<?xml version="1.0" encoding="utf-8" standalone="no"?>
<!DOCTYPE svg PUBLIC "-//W3C//DTD SVG 1.1//EN"
  "http://www.w3.org/Graphics/SVG/1.1/DTD/svg11.dtd">
<svg xmlns:xlink="http://www.w3.org/1999/xlink" width="460.8pt" height="345.6pt" viewBox="0 0 460.8 345.6" xmlns="http://www.w3.org/2000/svg" version="1.1">
 <metadata>
  <rdf:RDF xmlns:dc="http://purl.org/dc/elements/1.1/" xmlns:cc="http://creativecommons.org/ns#" xmlns:rdf="http://www.w3.org/1999/02/22-rdf-syntax-ns#">
   <cc:Work>
    <dc:type rdf:resource="http://purl.org/dc/dcmitype/StillImage"/>
    <dc:date>2023-10-10T10:55:06.669305</dc:date>
    <dc:format>image/svg+xml</dc:format>
    <dc:creator>
     <cc:Agent>
      <dc:title>Matplotlib v3.6.1, https://matplotlib.org/</dc:title>
     </cc:Agent>
    </dc:creator>
   </cc:Work>
  </rdf:RDF>
 </metadata>
 <defs>
  <style type="text/css">*{stroke-linejoin: round; stroke-linecap: butt}</style>
 </defs>
 <g id="figure_1">
  <g id="patch_1">
   <path d="M 0 345.6 
L 460.8 345.6 
L 460.8 0 
L 0 0 
z
" style="fill: #ffffff"/>
  </g>
  <g id="axes_1">
   <g id="patch_2">
    <path d="M 312.071166 163.622316 
Q 283.046053 152.878836 255.069452 142.523457 
" clip-path="url(#p1cbae41bcb)" style="fill: none; stroke: #000000; stroke-linecap: round"/>
    <path d="M 258.126467 145.787604 
L 255.069452 142.523457 
L 259.514979 142.036333 
L 258.126467 145.787604 
z
" clip-path="url(#p1cbae41bcb)" style="stroke: #000000; stroke-linecap: round"/>
   </g>
   <g id="patch_3">
    <path d="M 315.798514 163.954182 
Q 367.352442 154.738513 417.805782 145.719582 
" clip-path="url(#p1cbae41bcb)" style="fill: none; stroke: #000000; stroke-linecap: round"/>
    <path d="M 413.516262 144.454665 
L 417.805782 145.719582 
L 414.220136 148.392248 
L 413.516262 144.454665 
z
" clip-path="url(#p1cbae41bcb)" style="stroke: #000000; stroke-linecap: round"/>
   </g>
   <g id="patch_4">
    <path d="M 312.745494 165.852773 
Q 289.795899 197.091059 267.508247 227.428329 
" clip-path="url(#p1cbae41bcb)" style="fill: none; stroke: #000000; stroke-linecap: round"/>
    <path d="M 271.488275 225.388873 
L 267.508247 227.428329 
L 268.264699 223.020634 
L 271.488275 225.388873 
z
" clip-path="url(#p1cbae41bcb)" style="stroke: #000000; stroke-linecap: round"/>
   </g>
   <g id="patch_5">
    <path d="M 312.400723 165.531705 
Q 297.692277 177.744685 283.843994 189.243439 
" clip-path="url(#p1cbae41bcb)" style="fill: none; stroke: #000000; stroke-linecap: round"/>
    <path d="M 288.199055 188.226852 
L 283.843994 189.243439 
L 285.643761 185.149438 
L 288.199055 188.226852 
z
" clip-path="url(#p1cbae41bcb)" style="stroke: #000000; stroke-linecap: round"/>
   </g>
   <g id="patch_6">
    <path d="M 311.989824 163.931684 
Q 261.401576 154.246344 211.911418 144.771239 
" clip-path="url(#p1cbae41bcb)" style="fill: none; stroke: #000000; stroke-linecap: round"/>
    <path d="M 215.463986 147.487718 
L 211.911418 144.771239 
L 216.216142 143.559072 
L 215.463986 147.487718 
z
" clip-path="url(#p1cbae41bcb)" style="stroke: #000000; stroke-linecap: round"/>
   </g>
   <g id="patch_7">
    <path d="M 254.023393 142.136264 
Q 283.048506 152.879744 311.025107 163.235123 
" clip-path="url(#p1cbae41bcb)" style="fill: none; stroke: #000000; stroke-linecap: round"/>
    <path d="M 307.968092 159.970976 
L 311.025107 163.235123 
L 306.57958 163.722247 
L 307.968092 159.970976 
z
" clip-path="url(#p1cbae41bcb)" style="stroke: #000000; stroke-linecap: round"/>
   </g>
   <g id="patch_8">
    <path d="M 250.273259 141.585128 
Q 230.557367 142.829913 211.957288 144.00425 
" clip-path="url(#p1cbae41bcb)" style="fill: none; stroke: #000000; stroke-linecap: round"/>
    <path d="M 216.07536 145.748233 
L 211.957288 144.00425 
L 215.823318 141.756181 
L 216.07536 145.748233 
z
" clip-path="url(#p1cbae41bcb)" style="stroke: #000000; stroke-linecap: round"/>
   </g>
   <g id="patch_9">
    <path d="M 250.492167 140.553218 
Q 224.530167 126.760196 199.55551 113.491727 
" clip-path="url(#p1cbae41bcb)" style="fill: none; stroke: #000000; stroke-linecap: round"/>
    <path d="M 202.149584 117.134635 
L 199.55551 113.491727 
L 204.026281 113.602212 
L 202.149584 117.134635 
z
" clip-path="url(#p1cbae41bcb)" style="stroke: #000000; stroke-linecap: round"/>
   </g>
   <g id="patch_10">
    <path d="M 250.287499 141.750758 
Q 197.378832 149.686326 145.575832 157.456059 
" clip-path="url(#p1cbae41bcb)" style="fill: none; stroke: #000000; stroke-linecap: round"/>
    <path d="M 149.82824 158.840627 
L 145.575832 157.456059 
L 149.234932 154.884874 
L 149.82824 158.840627 
z
" clip-path="url(#p1cbae41bcb)" style="stroke: #000000; stroke-linecap: round"/>
   </g>
   <g id="patch_11">
    <path d="M 253.508615 140.029313 
Q 285.737105 104.582858 317.213467 69.963629 
" clip-path="url(#p1cbae41bcb)" style="fill: none; stroke: #000000; stroke-linecap: round"/>
    <path d="M 313.042785 71.577757 
L 317.213467 69.963629 
L 316.00236 74.268652 
L 313.042785 71.577757 
z
" clip-path="url(#p1cbae41bcb)" style="stroke: #000000; stroke-linecap: round"/>
   </g>
   <g id="patch_12">
    <path d="M 251.518097 139.656485 
Q 241.151946 112.388717 231.183088 86.166013 
" clip-path="url(#p1cbae41bcb)" style="fill: none; stroke: #000000; stroke-linecap: round"/>
    <path d="M 230.735019 90.615646 
L 231.183088 86.166013 
L 234.473953 89.194248 
L 230.735019 90.615646 
z
" clip-path="url(#p1cbae41bcb)" style="stroke: #000000; stroke-linecap: round"/>
   </g>
   <g id="patch_13">
    <path d="M 252.496935 143.376433 
Q 258.952709 185.675571 265.239801 226.869474 
" clip-path="url(#p1cbae41bcb)" style="fill: none; stroke: #000000; stroke-linecap: round"/>
    <path d="M 266.613407 222.613513 
L 265.239801 226.869474 
L 262.659196 223.217012 
L 266.613407 222.613513 
z
" clip-path="url(#p1cbae41bcb)" style="stroke: #000000; stroke-linecap: round"/>
   </g>
   <g id="patch_14">
    <path d="M 253.186341 143.129602 
Q 266.848408 166.327716 279.943112 188.56245 
" clip-path="url(#p1cbae41bcb)" style="fill: none; stroke: #000000; stroke-linecap: round"/>
    <path d="M 279.636597 184.100831 
L 279.943112 188.56245 
L 276.189907 186.13069 
L 279.636597 184.100831 
z
" clip-path="url(#p1cbae41bcb)" style="stroke: #000000; stroke-linecap: round"/>
   </g>
   <g id="patch_15">
    <path d="M 105.664779 109.476464 
Q 156.369008 126.527683 206.013521 143.222531 
" clip-path="url(#p1cbae41bcb)" style="fill: none; stroke: #000000; stroke-linecap: round"/>
    <path d="M 202.859656 140.051864 
L 206.013521 143.222531 
L 201.584667 143.843223 
L 202.859656 140.051864 
z
" clip-path="url(#p1cbae41bcb)" style="stroke: #000000; stroke-linecap: round"/>
   </g>
   <g id="patch_16">
    <path d="M 418.904339 145.523207 
Q 367.350411 154.738876 316.897071 163.757806 
" clip-path="url(#p1cbae41bcb)" style="fill: none; stroke: #000000; stroke-linecap: round"/>
    <path d="M 321.186591 165.022724 
L 316.897071 163.757806 
L 320.482717 161.085141 
L 321.186591 165.022724 
z
" clip-path="url(#p1cbae41bcb)" style="stroke: #000000; stroke-linecap: round"/>
   </g>
   <g id="patch_17">
    <path d="M 41.861698 183.614805 
Q 91.268782 171.001749 139.592575 158.665245 
" clip-path="url(#p1cbae41bcb)" style="fill: none; stroke: #000000; stroke-linecap: round"/>
    <path d="M 135.222165 157.716816 
L 139.592575 158.665245 
L 136.211586 161.592516 
L 135.222165 157.716816 
z
" clip-path="url(#p1cbae41bcb)" style="stroke: #000000; stroke-linecap: round"/>
   </g>
   <g id="patch_18">
    <path d="M 148.192056 31.645557 
Q 172.022818 71.023337 195.274716 109.444605 
" clip-path="url(#p1cbae41bcb)" style="fill: none; stroke: #000000; stroke-linecap: round"/>
    <path d="M 194.914767 104.986978 
L 195.274716 109.444605 
L 191.492645 107.057988 
L 194.914767 104.986978 
z
" clip-path="url(#p1cbae41bcb)" style="stroke: #000000; stroke-linecap: round"/>
   </g>
   <g id="patch_19">
    <path d="M 379.587619 228.413727 
Q 331.446149 210.147998 284.350002 192.278883 
" clip-path="url(#p1cbae41bcb)" style="fill: none; stroke: #000000; stroke-linecap: round"/>
    <path d="M 287.380375 195.567779 
L 284.350002 192.278883 
L 288.799343 191.827922 
L 287.380375 195.567779 
z
" clip-path="url(#p1cbae41bcb)" style="stroke: #000000; stroke-linecap: round"/>
   </g>
   <g id="patch_20">
    <path d="M 210.809959 144.56036 
Q 261.398208 154.245699 310.888366 163.720805 
" clip-path="url(#p1cbae41bcb)" style="fill: none; stroke: #000000; stroke-linecap: round"/>
    <path d="M 307.335798 161.004325 
L 310.888366 163.720805 
L 306.583642 164.932972 
L 307.335798 161.004325 
z
" clip-path="url(#p1cbae41bcb)" style="stroke: #000000; stroke-linecap: round"/>
   </g>
   <g id="patch_21">
    <path d="M 210.841824 144.074676 
Q 230.557715 142.829891 249.157795 141.655554 
" clip-path="url(#p1cbae41bcb)" style="fill: none; stroke: #000000; stroke-linecap: round"/>
    <path d="M 245.039722 139.911571 
L 249.157795 141.655554 
L 245.291765 143.903623 
L 245.039722 139.911571 
z
" clip-path="url(#p1cbae41bcb)" style="stroke: #000000; stroke-linecap: round"/>
   </g>
   <g id="patch_22">
    <path d="M 207.072614 143.578691 
Q 156.368384 126.527473 106.723872 109.832624 
" clip-path="url(#p1cbae41bcb)" style="fill: none; stroke: #000000; stroke-linecap: round"/>
    <path d="M 109.877737 113.003292 
L 106.723872 109.832624 
L 111.152725 109.211933 
L 109.877737 113.003292 
z
" clip-path="url(#p1cbae41bcb)" style="stroke: #000000; stroke-linecap: round"/>
   </g>
   <g id="patch_23">
    <path d="M 208.228872 142.38018 
Q 202.881886 128.123881 197.927524 114.91441 
" clip-path="url(#p1cbae41bcb)" style="fill: none; stroke: #000000; stroke-linecap: round"/>
    <path d="M 197.459598 119.361999 
L 197.927524 114.91441 
L 201.20484 117.957303 
L 197.459598 119.361999 
z
" clip-path="url(#p1cbae41bcb)" style="stroke: #000000; stroke-linecap: round"/>
   </g>
   <g id="patch_24">
    <path d="M 207.010659 144.589168 
Q 175.732123 151.052936 145.548486 157.290441 
" clip-path="url(#p1cbae41bcb)" style="fill: none; stroke: #000000; stroke-linecap: round"/>
    <path d="M 149.87047 158.439554 
L 145.548486 157.290441 
L 149.060966 154.522322 
L 149.87047 158.439554 
z
" clip-path="url(#p1cbae41bcb)" style="stroke: #000000; stroke-linecap: round"/>
   </g>
   <g id="patch_25">
    <path d="M 209.547666 142.364489 
Q 219.504272 113.750227 229.093456 86.1919 
" clip-path="url(#p1cbae41bcb)" style="fill: none; stroke: #000000; stroke-linecap: round"/>
    <path d="M 225.890008 89.312464 
L 229.093456 86.1919 
L 229.667839 90.626997 
L 225.890008 89.312464 
z
" clip-path="url(#p1cbae41bcb)" style="stroke: #000000; stroke-linecap: round"/>
   </g>
   <g id="patch_26">
    <path d="M 210.5338 145.247961 
Q 245.200525 167.695004 278.928776 189.534376 
" clip-path="url(#p1cbae41bcb)" style="fill: none; stroke: #000000; stroke-linecap: round"/>
    <path d="M 276.658222 185.681509 
L 278.928776 189.534376 
L 274.48415 189.039099 
L 276.658222 185.681509 
z
" clip-path="url(#p1cbae41bcb)" style="stroke: #000000; stroke-linecap: round"/>
   </g>
   <g id="patch_27">
    <path d="M 198.56879 112.967505 
Q 224.530789 126.760527 249.505447 140.028996 
" clip-path="url(#p1cbae41bcb)" style="fill: none; stroke: #000000; stroke-linecap: round"/>
    <path d="M 246.911372 136.386089 
L 249.505447 140.028996 
L 245.034676 139.918512 
L 246.911372 136.386089 
z
" clip-path="url(#p1cbae41bcb)" style="stroke: #000000; stroke-linecap: round"/>
   </g>
   <g id="patch_28">
    <path d="M 195.854162 110.402078 
Q 172.0234 71.024299 148.771502 32.603031 
" clip-path="url(#p1cbae41bcb)" style="fill: none; stroke: #000000; stroke-linecap: round"/>
    <path d="M 149.131451 37.060658 
L 148.771502 32.603031 
L 152.553573 34.989648 
L 149.131451 37.060658 
z
" clip-path="url(#p1cbae41bcb)" style="stroke: #000000; stroke-linecap: round"/>
   </g>
   <g id="patch_29">
    <path d="M 197.537309 113.874008 
Q 202.884295 128.130306 207.838657 141.339777 
" clip-path="url(#p1cbae41bcb)" style="fill: none; stroke: #000000; stroke-linecap: round"/>
    <path d="M 208.306583 136.892189 
L 207.838657 141.339777 
L 204.561342 138.296884 
L 208.306583 136.892189 
z
" clip-path="url(#p1cbae41bcb)" style="stroke: #000000; stroke-linecap: round"/>
   </g>
   <g id="patch_30">
    <path d="M 195.374504 113.308516 
Q 169.703841 134.9842 144.887419 155.938585 
" clip-path="url(#p1cbae41bcb)" style="fill: none; stroke: #000000; stroke-linecap: round"/>
    <path d="M 149.233942 154.886096 
L 144.887419 155.938585 
L 146.653342 151.829872 
L 149.233942 154.886096 
z
" clip-path="url(#p1cbae41bcb)" style="stroke: #000000; stroke-linecap: round"/>
   </g>
   <g id="patch_31">
    <path d="M 198.318831 110.792412 
Q 213.475611 97.6837 227.786755 85.306357 
" clip-path="url(#p1cbae41bcb)" style="fill: none; stroke: #000000; stroke-linecap: round"/>
    <path d="M 223.453005 86.410262 
L 227.786755 85.306357 
L 226.069629 89.4357 
L 223.453005 86.410262 
z
" clip-path="url(#p1cbae41bcb)" style="stroke: #000000; stroke-linecap: round"/>
   </g>
   <g id="patch_32">
    <path d="M 198.268892 113.378605 
Q 239.173885 151.625477 279.262221 189.108759 
" clip-path="url(#p1cbae41bcb)" style="fill: none; stroke: #000000; stroke-linecap: round"/>
    <path d="M 277.706405 184.915975 
L 279.262221 189.108759 
L 274.974504 187.837741 
L 277.706405 184.915975 
z
" clip-path="url(#p1cbae41bcb)" style="stroke: #000000; stroke-linecap: round"/>
   </g>
   <g id="patch_33">
    <path d="M 144.470817 157.621796 
Q 197.379484 149.686228 249.182484 141.916495 
" clip-path="url(#p1cbae41bcb)" style="fill: none; stroke: #000000; stroke-linecap: round"/>
    <path d="M 244.930076 140.531927 
L 249.182484 141.916495 
L 245.523385 144.48768 
L 244.930076 140.531927 
z
" clip-path="url(#p1cbae41bcb)" style="stroke: #000000; stroke-linecap: round"/>
   </g>
   <g id="patch_34">
    <path d="M 140.678467 158.388029 
Q 91.271383 171.001085 42.947589 183.337589 
" clip-path="url(#p1cbae41bcb)" style="fill: none; stroke: #000000; stroke-linecap: round"/>
    <path d="M 47.317999 184.286018 
L 42.947589 183.337589 
L 46.328578 180.410318 
L 47.317999 184.286018 
z
" clip-path="url(#p1cbae41bcb)" style="stroke: #000000; stroke-linecap: round"/>
   </g>
   <g id="patch_35">
    <path d="M 144.452882 157.51685 
Q 175.731418 151.053082 205.915055 144.815577 
" clip-path="url(#p1cbae41bcb)" style="fill: none; stroke: #000000; stroke-linecap: round"/>
    <path d="M 201.593072 143.666464 
L 205.915055 144.815577 
L 202.402575 147.583696 
L 201.593072 143.666464 
z
" clip-path="url(#p1cbae41bcb)" style="stroke: #000000; stroke-linecap: round"/>
   </g>
   <g id="patch_36">
    <path d="M 144.034911 156.658421 
Q 169.705574 134.982737 194.521996 114.028352 
" clip-path="url(#p1cbae41bcb)" style="fill: none; stroke: #000000; stroke-linecap: round"/>
    <path d="M 190.175473 115.080842 
L 194.521996 114.028352 
L 192.756074 118.137065 
L 190.175473 115.080842 
z
" clip-path="url(#p1cbae41bcb)" style="stroke: #000000; stroke-linecap: round"/>
   </g>
   <g id="patch_37">
    <path d="M 317.964333 69.13779 
Q 285.735843 104.584245 254.259481 139.203474 
" clip-path="url(#p1cbae41bcb)" style="fill: none; stroke: #000000; stroke-linecap: round"/>
    <path d="M 258.430163 137.589345 
L 254.259481 139.203474 
L 255.470588 134.898451 
L 258.430163 137.589345 
z
" clip-path="url(#p1cbae41bcb)" style="stroke: #000000; stroke-linecap: round"/>
   </g>
   <g id="patch_38">
    <path d="M 230.783599 85.115172 
Q 241.14975 112.382939 251.118608 138.605643 
" clip-path="url(#p1cbae41bcb)" style="fill: none; stroke: #000000; stroke-linecap: round"/>
    <path d="M 251.566677 134.15601 
L 251.118608 138.605643 
L 247.827743 135.577408 
L 251.566677 134.15601 
z
" clip-path="url(#p1cbae41bcb)" style="stroke: #000000; stroke-linecap: round"/>
   </g>
   <g id="patch_39">
    <path d="M 229.459255 85.140631 
Q 219.502648 113.754894 209.913465 141.313221 
" clip-path="url(#p1cbae41bcb)" style="fill: none; stroke: #000000; stroke-linecap: round"/>
    <path d="M 213.116913 138.192656 
L 209.913465 141.313221 
L 209.339082 136.878124 
L 213.116913 138.192656 
z
" clip-path="url(#p1cbae41bcb)" style="stroke: #000000; stroke-linecap: round"/>
   </g>
   <g id="patch_40">
    <path d="M 228.633964 84.573628 
Q 213.477184 97.68234 199.16604 110.059683 
" clip-path="url(#p1cbae41bcb)" style="fill: none; stroke: #000000; stroke-linecap: round"/>
    <path d="M 203.49979 108.955778 
L 199.16604 110.059683 
L 200.883166 105.930339 
L 203.49979 108.955778 
z
" clip-path="url(#p1cbae41bcb)" style="stroke: #000000; stroke-linecap: round"/>
   </g>
   <g id="patch_41">
    <path d="M 246.543481 313.723781 
Q 255.906614 272.749084 265.020685 232.864327 
" clip-path="url(#p1cbae41bcb)" style="fill: none; stroke: #000000; stroke-linecap: round"/>
    <path d="M 262.17987 236.318277 
L 265.020685 232.864327 
L 266.079356 237.209349 
L 262.17987 236.318277 
z
" clip-path="url(#p1cbae41bcb)" style="stroke: #000000; stroke-linecap: round"/>
   </g>
   <g id="patch_42">
    <path d="M 266.844755 228.331454 
Q 289.79435 197.093168 312.082002 166.755898 
" clip-path="url(#p1cbae41bcb)" style="fill: none; stroke: #000000; stroke-linecap: round"/>
    <path d="M 308.101974 168.795354 
L 312.082002 166.755898 
L 311.32555 171.163594 
L 308.101974 168.795354 
z
" clip-path="url(#p1cbae41bcb)" style="stroke: #000000; stroke-linecap: round"/>
   </g>
   <g id="patch_43">
    <path d="M 265.408613 227.975555 
Q 258.952838 185.676416 252.665747 144.482513 
" clip-path="url(#p1cbae41bcb)" style="fill: none; stroke: #000000; stroke-linecap: round"/>
    <path d="M 251.29214 148.738475 
L 252.665747 144.482513 
L 255.246352 148.134975 
L 251.29214 148.738475 
z
" clip-path="url(#p1cbae41bcb)" style="stroke: #000000; stroke-linecap: round"/>
   </g>
   <g id="patch_44">
    <path d="M 265.269617 231.774954 
Q 255.906485 272.74965 246.792414 312.634408 
" clip-path="url(#p1cbae41bcb)" style="fill: none; stroke: #000000; stroke-linecap: round"/>
    <path d="M 249.633229 309.180458 
L 246.792414 312.634408 
L 245.733743 308.289386 
L 249.633229 309.180458 
z
" clip-path="url(#p1cbae41bcb)" style="stroke: #000000; stroke-linecap: round"/>
   </g>
   <g id="patch_45">
    <path d="M 266.432237 228.096304 
Q 273.596108 210.544356 280.337487 194.027542 
" clip-path="url(#p1cbae41bcb)" style="fill: none; stroke: #000000; stroke-linecap: round"/>
    <path d="M 276.974231 196.975169 
L 280.337487 194.027542 
L 280.677635 198.486723 
L 276.974231 196.975169 
z
" clip-path="url(#p1cbae41bcb)" style="stroke: #000000; stroke-linecap: round"/>
   </g>
   <g id="patch_46">
    <path d="M 282.982463 189.958801 
Q 297.690909 177.745821 311.539192 166.247068 
" clip-path="url(#p1cbae41bcb)" style="fill: none; stroke: #000000; stroke-linecap: round"/>
    <path d="M 307.184131 167.263654 
L 311.539192 166.247068 
L 309.739424 170.341068 
L 307.184131 167.263654 
z
" clip-path="url(#p1cbae41bcb)" style="stroke: #000000; stroke-linecap: round"/>
   </g>
   <g id="patch_47">
    <path d="M 280.512144 189.528664 
Q 266.850077 166.33055 253.755373 144.095816 
" clip-path="url(#p1cbae41bcb)" style="fill: none; stroke: #000000; stroke-linecap: round"/>
    <path d="M 254.061888 148.557435 
L 253.755373 144.095816 
L 257.508577 146.527576 
L 254.061888 148.557435 
z
" clip-path="url(#p1cbae41bcb)" style="stroke: #000000; stroke-linecap: round"/>
   </g>
   <g id="patch_48">
    <path d="M 283.301475 191.881053 
Q 331.442944 210.146782 378.539092 228.015898 
" clip-path="url(#p1cbae41bcb)" style="fill: none; stroke: #000000; stroke-linecap: round"/>
    <path d="M 375.508719 224.727001 
L 378.539092 228.015898 
L 374.089751 228.466858 
L 375.508719 224.727001 
z
" clip-path="url(#p1cbae41bcb)" style="stroke: #000000; stroke-linecap: round"/>
   </g>
   <g id="patch_49">
    <path d="M 279.86991 190.14377 
Q 245.203185 167.696726 211.474934 145.857354 
" clip-path="url(#p1cbae41bcb)" style="fill: none; stroke: #000000; stroke-linecap: round"/>
    <path d="M 213.745488 149.710221 
L 211.474934 145.857354 
L 215.91956 146.352632 
L 213.745488 149.710221 
z
" clip-path="url(#p1cbae41bcb)" style="stroke: #000000; stroke-linecap: round"/>
   </g>
   <g id="patch_50">
    <path d="M 280.080692 189.874044 
Q 239.175698 151.627172 199.087363 114.14389 
" clip-path="url(#p1cbae41bcb)" style="fill: none; stroke: #000000; stroke-linecap: round"/>
    <path d="M 200.643178 118.336674 
L 199.087363 114.14389 
L 203.375079 115.414909 
L 200.643178 118.336674 
z
" clip-path="url(#p1cbae41bcb)" style="stroke: #000000; stroke-linecap: round"/>
   </g>
   <g id="patch_51">
    <path d="M 280.761937 192.987609 
Q 273.598067 210.539557 266.856688 227.056372 
" clip-path="url(#p1cbae41bcb)" style="fill: none; stroke: #000000; stroke-linecap: round"/>
    <path d="M 270.219944 224.108744 
L 266.856688 227.056372 
L 266.51654 222.597191 
L 270.219944 224.108744 
z
" clip-path="url(#p1cbae41bcb)" style="stroke: #000000; stroke-linecap: round"/>
   </g>
   <g id="patch_52">
    <path d="M 282.501037 192.849272 
Q 305.947885 231.346472 328.813164 268.888801 
" clip-path="url(#p1cbae41bcb)" style="fill: none; stroke: #000000; stroke-linecap: round"/>
    <path d="M 328.440611 264.43221 
L 328.813164 268.888801 
L 325.024359 266.512889 
L 328.440611 264.43221 
z
" clip-path="url(#p1cbae41bcb)" style="stroke: #000000; stroke-linecap: round"/>
   </g>
   <g id="patch_53">
    <path d="M 329.394444 269.843199 
Q 305.947597 231.345999 283.082317 193.803671 
" clip-path="url(#p1cbae41bcb)" style="fill: none; stroke: #000000; stroke-linecap: round"/>
    <path d="M 283.45487 198.260262 
L 283.082317 193.803671 
L 286.871122 196.179582 
L 283.45487 198.260262 
z
" clip-path="url(#p1cbae41bcb)" style="stroke: #000000; stroke-linecap: round"/>
   </g>
   <g id="PathCollection_1">
    <defs>
     <path id="mf59dfb8aae" d="M 0 1.936492 
C 0.513564 1.936492 1.006162 1.732451 1.369306 1.369306 
C 1.732451 1.006162 1.936492 0.513564 1.936492 0 
C 1.936492 -0.513564 1.732451 -1.006162 1.369306 -1.369306 
C 1.006162 -1.732451 0.513564 -1.936492 0 -1.936492 
C -0.513564 -1.936492 -1.006162 -1.732451 -1.369306 -1.369306 
C -1.732451 -1.006162 -1.936492 -0.513564 -1.936492 0 
C -1.936492 0.513564 -1.732451 1.006162 -1.369306 1.369306 
C -1.006162 1.732451 -0.513564 1.936492 0 1.936492 
z
" style="stroke: #1f78b4"/>
    </defs>
    <g clip-path="url(#p1cbae41bcb)">
     <use xlink:href="#mf59dfb8aae" x="313.88963" y="164.29541" style="fill: #1f78b4; stroke: #1f78b4"/>
     <use xlink:href="#mf59dfb8aae" x="252.204929" y="141.46317" style="fill: #1f78b4; stroke: #1f78b4"/>
     <use xlink:href="#mf59dfb8aae" x="103.827239" y="108.858522" style="fill: #1f78b4; stroke: #1f78b4"/>
     <use xlink:href="#mf59dfb8aae" x="420.813223" y="145.181979" style="fill: #1f78b4; stroke: #1f78b4"/>
     <use xlink:href="#mf59dfb8aae" x="39.986777" y="184.09345" style="fill: #1f78b4; stroke: #1f78b4"/>
     <use xlink:href="#mf59dfb8aae" x="147.19019" y="29.990083" style="fill: #1f78b4; stroke: #1f78b4"/>
     <use xlink:href="#mf59dfb8aae" x="381.395537" y="229.099684" style="fill: #1f78b4; stroke: #1f78b4"/>
     <use xlink:href="#mf59dfb8aae" x="208.910154" y="144.196634" style="fill: #1f78b4; stroke: #1f78b4"/>
     <use xlink:href="#mf59dfb8aae" x="196.856028" y="112.057553" style="fill: #1f78b4; stroke: #1f78b4"/>
     <use xlink:href="#mf59dfb8aae" x="142.553387" y="157.909384" style="fill: #1f78b4; stroke: #1f78b4"/>
     <use xlink:href="#mf59dfb8aae" x="319.268019" y="67.703932" style="fill: #1f78b4; stroke: #1f78b4"/>
     <use xlink:href="#mf59dfb8aae" x="230.096767" y="83.308486" style="fill: #1f78b4; stroke: #1f78b4"/>
     <use xlink:href="#mf59dfb8aae" x="246.11248" y="315.609917" style="fill: #1f78b4; stroke: #1f78b4"/>
     <use xlink:href="#mf59dfb8aae" x="265.700619" y="229.888817" style="fill: #1f78b4; stroke: #1f78b4"/>
     <use xlink:href="#mf59dfb8aae" x="281.493556" y="191.195096" style="fill: #1f78b4; stroke: #1f78b4"/>
     <use xlink:href="#mf59dfb8aae" x="330.401925" y="271.497375" style="fill: #1f78b4; stroke: #1f78b4"/>
    </g>
   </g>
   <g id="text_1">
    <g clip-path="url(#p1cbae41bcb)">
     <!-- 0 -->
     <g transform="translate(310.70838 167.054785) scale(0.1 -0.1)">
      <defs>
       <path id="DejaVuSans-30" d="M 2034 4250 
Q 1547 4250 1301 3770 
Q 1056 3291 1056 2328 
Q 1056 1369 1301 889 
Q 1547 409 2034 409 
Q 2525 409 2770 889 
Q 3016 1369 3016 2328 
Q 3016 3291 2770 3770 
Q 2525 4250 2034 4250 
z
M 2034 4750 
Q 2819 4750 3233 4129 
Q 3647 3509 3647 2328 
Q 3647 1150 3233 529 
Q 2819 -91 2034 -91 
Q 1250 -91 836 529 
Q 422 1150 422 2328 
Q 422 3509 836 4129 
Q 1250 4750 2034 4750 
z
" transform="scale(0.015625)"/>
      </defs>
      <use xlink:href="#DejaVuSans-30"/>
     </g>
    </g>
   </g>
   <g id="text_2">
    <g clip-path="url(#p1cbae41bcb)">
     <!-- 1 -->
     <g transform="translate(249.023679 144.222545) scale(0.1 -0.1)">
      <defs>
       <path id="DejaVuSans-31" d="M 794 531 
L 1825 531 
L 1825 4091 
L 703 3866 
L 703 4441 
L 1819 4666 
L 2450 4666 
L 2450 531 
L 3481 531 
L 3481 0 
L 794 0 
L 794 531 
z
" transform="scale(0.015625)"/>
      </defs>
      <use xlink:href="#DejaVuSans-31"/>
     </g>
    </g>
   </g>
   <g id="text_3">
    <g clip-path="url(#p1cbae41bcb)">
     <!-- 2 -->
     <g transform="translate(100.645989 111.617897) scale(0.1 -0.1)">
      <defs>
       <path id="DejaVuSans-32" d="M 1228 531 
L 3431 531 
L 3431 0 
L 469 0 
L 469 531 
Q 828 903 1448 1529 
Q 2069 2156 2228 2338 
Q 2531 2678 2651 2914 
Q 2772 3150 2772 3378 
Q 2772 3750 2511 3984 
Q 2250 4219 1831 4219 
Q 1534 4219 1204 4116 
Q 875 4013 500 3803 
L 500 4441 
Q 881 4594 1212 4672 
Q 1544 4750 1819 4750 
Q 2544 4750 2975 4387 
Q 3406 4025 3406 3419 
Q 3406 3131 3298 2873 
Q 3191 2616 2906 2266 
Q 2828 2175 2409 1742 
Q 1991 1309 1228 531 
z
" transform="scale(0.015625)"/>
      </defs>
      <use xlink:href="#DejaVuSans-32"/>
     </g>
    </g>
   </g>
   <g id="text_4">
    <g clip-path="url(#p1cbae41bcb)">
     <!-- 3 -->
     <g transform="translate(417.631973 147.941354) scale(0.1 -0.1)">
      <defs>
       <path id="DejaVuSans-33" d="M 2597 2516 
Q 3050 2419 3304 2112 
Q 3559 1806 3559 1356 
Q 3559 666 3084 287 
Q 2609 -91 1734 -91 
Q 1441 -91 1130 -33 
Q 819 25 488 141 
L 488 750 
Q 750 597 1062 519 
Q 1375 441 1716 441 
Q 2309 441 2620 675 
Q 2931 909 2931 1356 
Q 2931 1769 2642 2001 
Q 2353 2234 1838 2234 
L 1294 2234 
L 1294 2753 
L 1863 2753 
Q 2328 2753 2575 2939 
Q 2822 3125 2822 3475 
Q 2822 3834 2567 4026 
Q 2313 4219 1838 4219 
Q 1578 4219 1281 4162 
Q 984 4106 628 3988 
L 628 4550 
Q 988 4650 1302 4700 
Q 1616 4750 1894 4750 
Q 2613 4750 3031 4423 
Q 3450 4097 3450 3541 
Q 3450 3153 3228 2886 
Q 3006 2619 2597 2516 
z
" transform="scale(0.015625)"/>
      </defs>
      <use xlink:href="#DejaVuSans-33"/>
     </g>
    </g>
   </g>
   <g id="text_5">
    <g clip-path="url(#p1cbae41bcb)">
     <!-- 4 -->
     <g transform="translate(36.805527 186.852825) scale(0.1 -0.1)">
      <defs>
       <path id="DejaVuSans-34" d="M 2419 4116 
L 825 1625 
L 2419 1625 
L 2419 4116 
z
M 2253 4666 
L 3047 4666 
L 3047 1625 
L 3713 1625 
L 3713 1100 
L 3047 1100 
L 3047 0 
L 2419 0 
L 2419 1100 
L 313 1100 
L 313 1709 
L 2253 4666 
z
" transform="scale(0.015625)"/>
      </defs>
      <use xlink:href="#DejaVuSans-34"/>
     </g>
    </g>
   </g>
   <g id="text_6">
    <g clip-path="url(#p1cbae41bcb)">
     <!-- 5 -->
     <g transform="translate(144.00894 32.749458) scale(0.1 -0.1)">
      <defs>
       <path id="DejaVuSans-35" d="M 691 4666 
L 3169 4666 
L 3169 4134 
L 1269 4134 
L 1269 2991 
Q 1406 3038 1543 3061 
Q 1681 3084 1819 3084 
Q 2600 3084 3056 2656 
Q 3513 2228 3513 1497 
Q 3513 744 3044 326 
Q 2575 -91 1722 -91 
Q 1428 -91 1123 -41 
Q 819 9 494 109 
L 494 744 
Q 775 591 1075 516 
Q 1375 441 1709 441 
Q 2250 441 2565 725 
Q 2881 1009 2881 1497 
Q 2881 1984 2565 2268 
Q 2250 2553 1709 2553 
Q 1456 2553 1204 2497 
Q 953 2441 691 2322 
L 691 4666 
z
" transform="scale(0.015625)"/>
      </defs>
      <use xlink:href="#DejaVuSans-35"/>
     </g>
    </g>
   </g>
   <g id="text_7">
    <g clip-path="url(#p1cbae41bcb)">
     <!-- 6 -->
     <g transform="translate(378.214287 231.859059) scale(0.1 -0.1)">
      <defs>
       <path id="DejaVuSans-36" d="M 2113 2584 
Q 1688 2584 1439 2293 
Q 1191 2003 1191 1497 
Q 1191 994 1439 701 
Q 1688 409 2113 409 
Q 2538 409 2786 701 
Q 3034 994 3034 1497 
Q 3034 2003 2786 2293 
Q 2538 2584 2113 2584 
z
M 3366 4563 
L 3366 3988 
Q 3128 4100 2886 4159 
Q 2644 4219 2406 4219 
Q 1781 4219 1451 3797 
Q 1122 3375 1075 2522 
Q 1259 2794 1537 2939 
Q 1816 3084 2150 3084 
Q 2853 3084 3261 2657 
Q 3669 2231 3669 1497 
Q 3669 778 3244 343 
Q 2819 -91 2113 -91 
Q 1303 -91 875 529 
Q 447 1150 447 2328 
Q 447 3434 972 4092 
Q 1497 4750 2381 4750 
Q 2619 4750 2861 4703 
Q 3103 4656 3366 4563 
z
" transform="scale(0.015625)"/>
      </defs>
      <use xlink:href="#DejaVuSans-36"/>
     </g>
    </g>
   </g>
   <g id="text_8">
    <g clip-path="url(#p1cbae41bcb)">
     <!-- 7 -->
     <g transform="translate(205.728904 146.956009) scale(0.1 -0.1)">
      <defs>
       <path id="DejaVuSans-37" d="M 525 4666 
L 3525 4666 
L 3525 4397 
L 1831 0 
L 1172 0 
L 2766 4134 
L 525 4134 
L 525 4666 
z
" transform="scale(0.015625)"/>
      </defs>
      <use xlink:href="#DejaVuSans-37"/>
     </g>
    </g>
   </g>
   <g id="text_9">
    <g clip-path="url(#p1cbae41bcb)">
     <!-- 8 -->
     <g transform="translate(193.674778 114.816928) scale(0.1 -0.1)">
      <defs>
       <path id="DejaVuSans-38" d="M 2034 2216 
Q 1584 2216 1326 1975 
Q 1069 1734 1069 1313 
Q 1069 891 1326 650 
Q 1584 409 2034 409 
Q 2484 409 2743 651 
Q 3003 894 3003 1313 
Q 3003 1734 2745 1975 
Q 2488 2216 2034 2216 
z
M 1403 2484 
Q 997 2584 770 2862 
Q 544 3141 544 3541 
Q 544 4100 942 4425 
Q 1341 4750 2034 4750 
Q 2731 4750 3128 4425 
Q 3525 4100 3525 3541 
Q 3525 3141 3298 2862 
Q 3072 2584 2669 2484 
Q 3125 2378 3379 2068 
Q 3634 1759 3634 1313 
Q 3634 634 3220 271 
Q 2806 -91 2034 -91 
Q 1263 -91 848 271 
Q 434 634 434 1313 
Q 434 1759 690 2068 
Q 947 2378 1403 2484 
z
M 1172 3481 
Q 1172 3119 1398 2916 
Q 1625 2713 2034 2713 
Q 2441 2713 2670 2916 
Q 2900 3119 2900 3481 
Q 2900 3844 2670 4047 
Q 2441 4250 2034 4250 
Q 1625 4250 1398 4047 
Q 1172 3844 1172 3481 
z
" transform="scale(0.015625)"/>
      </defs>
      <use xlink:href="#DejaVuSans-38"/>
     </g>
    </g>
   </g>
   <g id="text_10">
    <g clip-path="url(#p1cbae41bcb)">
     <!-- 9 -->
     <g transform="translate(139.372137 160.668759) scale(0.1 -0.1)">
      <defs>
       <path id="DejaVuSans-39" d="M 703 97 
L 703 672 
Q 941 559 1184 500 
Q 1428 441 1663 441 
Q 2288 441 2617 861 
Q 2947 1281 2994 2138 
Q 2813 1869 2534 1725 
Q 2256 1581 1919 1581 
Q 1219 1581 811 2004 
Q 403 2428 403 3163 
Q 403 3881 828 4315 
Q 1253 4750 1959 4750 
Q 2769 4750 3195 4129 
Q 3622 3509 3622 2328 
Q 3622 1225 3098 567 
Q 2575 -91 1691 -91 
Q 1453 -91 1209 -44 
Q 966 3 703 97 
z
M 1959 2075 
Q 2384 2075 2632 2365 
Q 2881 2656 2881 3163 
Q 2881 3666 2632 3958 
Q 2384 4250 1959 4250 
Q 1534 4250 1286 3958 
Q 1038 3666 1038 3163 
Q 1038 2656 1286 2365 
Q 1534 2075 1959 2075 
z
" transform="scale(0.015625)"/>
      </defs>
      <use xlink:href="#DejaVuSans-39"/>
     </g>
    </g>
   </g>
   <g id="text_11">
    <g clip-path="url(#p1cbae41bcb)">
     <!-- 10 -->
     <g transform="translate(312.905519 70.463307) scale(0.1 -0.1)">
      <use xlink:href="#DejaVuSans-31"/>
      <use xlink:href="#DejaVuSans-30" x="63.623047"/>
     </g>
    </g>
   </g>
   <g id="text_12">
    <g clip-path="url(#p1cbae41bcb)">
     <!-- 11 -->
     <g transform="translate(223.734267 86.067861) scale(0.1 -0.1)">
      <use xlink:href="#DejaVuSans-31"/>
      <use xlink:href="#DejaVuSans-31" x="63.623047"/>
     </g>
    </g>
   </g>
   <g id="text_13">
    <g clip-path="url(#p1cbae41bcb)">
     <!-- 12 -->
     <g transform="translate(239.74998 318.369292) scale(0.1 -0.1)">
      <use xlink:href="#DejaVuSans-31"/>
      <use xlink:href="#DejaVuSans-32" x="63.623047"/>
     </g>
    </g>
   </g>
   <g id="text_14">
    <g clip-path="url(#p1cbae41bcb)">
     <!-- 13 -->
     <g transform="translate(259.338119 232.648192) scale(0.1 -0.1)">
      <use xlink:href="#DejaVuSans-31"/>
      <use xlink:href="#DejaVuSans-33" x="63.623047"/>
     </g>
    </g>
   </g>
   <g id="text_15">
    <g clip-path="url(#p1cbae41bcb)">
     <!-- 14 -->
     <g transform="translate(275.131056 193.954471) scale(0.1 -0.1)">
      <use xlink:href="#DejaVuSans-31"/>
      <use xlink:href="#DejaVuSans-34" x="63.623047"/>
     </g>
    </g>
   </g>
   <g id="text_16">
    <g clip-path="url(#p1cbae41bcb)">
     <!-- 15 -->
     <g transform="translate(324.039425 274.25675) scale(0.1 -0.1)">
      <use xlink:href="#DejaVuSans-31"/>
      <use xlink:href="#DejaVuSans-35" x="63.623047"/>
     </g>
    </g>
   </g>
  </g>
 </g>
 <defs>
  <clipPath id="p1cbae41bcb">
   <rect x="0" y="0" width="460.8" height="345.6"/>
  </clipPath>
 </defs>
</svg>
