<?xml version="1.0" encoding="utf-8" standalone="no"?>
<!DOCTYPE svg PUBLIC "-//W3C//DTD SVG 1.1//EN"
  "http://www.w3.org/Graphics/SVG/1.1/DTD/svg11.dtd">
<svg xmlns:xlink="http://www.w3.org/1999/xlink" width="460.8pt" height="345.6pt" viewBox="0 0 460.8 345.6" xmlns="http://www.w3.org/2000/svg" version="1.1">
 <metadata>
  <rdf:RDF xmlns:dc="http://purl.org/dc/elements/1.1/" xmlns:cc="http://creativecommons.org/ns#" xmlns:rdf="http://www.w3.org/1999/02/22-rdf-syntax-ns#">
   <cc:Work>
    <dc:type rdf:resource="http://purl.org/dc/dcmitype/StillImage"/>
    <dc:date>2023-10-10T10:55:08.470567</dc:date>
    <dc:format>image/svg+xml</dc:format>
    <dc:creator>
     <cc:Agent>
      <dc:title>Matplotlib v3.6.1, https://matplotlib.org/</dc:title>
     </cc:Agent>
    </dc:creator>
   </cc:Work>
  </rdf:RDF>
 </metadata>
 <defs>
  <style type="text/css">*{stroke-linejoin: round; stroke-linecap: butt}</style>
 </defs>
 <g id="figure_1">
  <g id="patch_1">
   <path d="M 0 345.6 
L 460.8 345.6 
L 460.8 0 
L 0 0 
z
" style="fill: #ffffff"/>
  </g>
  <g id="axes_1">
   <g id="patch_2">
    <path d="M 149.791625 31.912311 
Q 144.387726 74.160714 139.125677 115.300119 
" clip-path="url(#pb97499f1d6)" style="fill: none; stroke: #000000; stroke-linecap: round"/>
    <path d="M 141.617011 111.586192 
L 139.125677 115.300119 
L 137.649336 111.078695 
L 141.617011 111.586192 
z
" clip-path="url(#pb97499f1d6)" style="stroke: #000000; stroke-linecap: round"/>
   </g>
   <g id="patch_3">
    <path d="M 419.329979 281.668325 
Q 399.828477 298.016596 381.183772 313.646607 
" clip-path="url(#pb97499f1d6)" style="fill: none; stroke: #000000; stroke-linecap: round"/>
    <path d="M 385.534008 312.609566 
L 381.183772 313.646607 
L 382.964281 309.544194 
L 385.534008 312.609566 
z
" clip-path="url(#pb97499f1d6)" style="stroke: #000000; stroke-linecap: round"/>
   </g>
   <g id="patch_4">
    <path d="M 418.993445 279.763892 
Q 377.666689 264.752325 337.390788 250.122471 
" clip-path="url(#pb97499f1d6)" style="fill: none; stroke: #000000; stroke-linecap: round"/>
    <path d="M 340.46761 253.367955 
L 337.390788 250.122471 
L 341.833269 249.608304 
L 340.46761 253.367955 
z
" clip-path="url(#pb97499f1d6)" style="stroke: #000000; stroke-linecap: round"/>
   </g>
   <g id="patch_5">
    <path d="M 380.325025 314.366502 
Q 399.826528 298.018231 418.471232 282.38822 
" clip-path="url(#pb97499f1d6)" style="fill: none; stroke: #000000; stroke-linecap: round"/>
    <path d="M 414.120997 283.425261 
L 418.471232 282.38822 
L 416.690724 286.490633 
L 414.120997 283.425261 
z
" clip-path="url(#pb97499f1d6)" style="stroke: #000000; stroke-linecap: round"/>
   </g>
   <g id="patch_6">
    <path d="M 377.767756 313.997802 
Q 356.679719 282.344587 336.211567 251.621823 
" clip-path="url(#pb97499f1d6)" style="fill: none; stroke: #000000; stroke-linecap: round"/>
    <path d="M 336.764898 256.059596 
L 336.211567 251.621823 
L 340.093784 253.841822 
L 336.764898 256.059596 
z
" clip-path="url(#pb97499f1d6)" style="stroke: #000000; stroke-linecap: round"/>
   </g>
   <g id="patch_7">
    <path d="M 336.337061 249.739714 
Q 377.663816 264.751281 417.939717 279.381135 
" clip-path="url(#pb97499f1d6)" style="fill: none; stroke: #000000; stroke-linecap: round"/>
    <path d="M 414.862896 276.135651 
L 417.939717 279.381135 
L 413.497237 279.895302 
L 414.862896 276.135651 
z
" clip-path="url(#pb97499f1d6)" style="stroke: #000000; stroke-linecap: round"/>
   </g>
   <g id="patch_8">
    <path d="M 335.591307 250.690811 
Q 356.679345 282.344027 377.147497 313.06679 
" clip-path="url(#pb97499f1d6)" style="fill: none; stroke: #000000; stroke-linecap: round"/>
    <path d="M 376.594166 308.629017 
L 377.147497 313.06679 
L 373.26528 310.846791 
L 376.594166 308.629017 
z
" clip-path="url(#pb97499f1d6)" style="stroke: #000000; stroke-linecap: round"/>
   </g>
   <g id="patch_9">
    <path d="M 332.974193 247.908544 
Q 286.360332 212.560428 240.637329 177.887865 
" clip-path="url(#pb97499f1d6)" style="fill: none; stroke: #000000; stroke-linecap: round"/>
    <path d="M 242.616092 181.898413 
L 240.637329 177.887865 
L 245.033025 178.711183 
L 242.616092 181.898413 
z
" clip-path="url(#pb97499f1d6)" style="stroke: #000000; stroke-linecap: round"/>
   </g>
   <g id="patch_10">
    <path d="M 239.748057 177.213514 
Q 286.361918 212.56163 332.084921 247.234193 
" clip-path="url(#pb97499f1d6)" style="fill: none; stroke: #000000; stroke-linecap: round"/>
    <path d="M 330.106157 243.223645 
L 332.084921 247.234193 
L 327.689224 246.410875 
L 330.106157 243.223645 
z
" clip-path="url(#pb97499f1d6)" style="stroke: #000000; stroke-linecap: round"/>
   </g>
   <g id="patch_11">
    <path d="M 236.53241 175.07293 
Q 188.4723 147.188039 141.379236 119.864236 
" clip-path="url(#pb97499f1d6)" style="fill: none; stroke: #000000; stroke-linecap: round"/>
    <path d="M 143.835341 123.601554 
L 141.379236 119.864236 
L 145.842753 120.141743 
L 143.835341 123.601554 
z
" clip-path="url(#pb97499f1d6)" style="stroke: #000000; stroke-linecap: round"/>
   </g>
   <g id="patch_12">
    <path d="M 237.135949 174.431134 
Q 216.68756 143.592099 196.857022 113.684869 
" clip-path="url(#pb97499f1d6)" style="fill: none; stroke: #000000; stroke-linecap: round"/>
    <path d="M 197.400647 118.12384 
L 196.857022 113.684869 
L 200.734375 115.913351 
L 197.400647 118.12384 
z
" clip-path="url(#pb97499f1d6)" style="stroke: #000000; stroke-linecap: round"/>
   </g>
   <g id="patch_13">
    <path d="M 196.240114 112.754485 
Q 216.688503 143.59352 236.519041 173.50075 
" clip-path="url(#pb97499f1d6)" style="fill: none; stroke: #000000; stroke-linecap: round"/>
    <path d="M 235.975416 169.061778 
L 236.519041 173.50075 
L 232.641689 171.272267 
L 235.975416 169.061778 
z
" clip-path="url(#pb97499f1d6)" style="stroke: #000000; stroke-linecap: round"/>
   </g>
   <g id="patch_14">
    <path d="M 193.320579 110.561266 
Q 143.868806 95.035339 95.483731 79.844313 
" clip-path="url(#pb97499f1d6)" style="fill: none; stroke: #000000; stroke-linecap: round"/>
    <path d="M 98.70097 82.950656 
L 95.483731 79.844313 
L 99.899149 79.134327 
L 98.70097 82.950656 
z
" clip-path="url(#pb97499f1d6)" style="stroke: #000000; stroke-linecap: round"/>
   </g>
   <g id="patch_15">
    <path d="M 94.419663 79.510237 
Q 143.871435 95.036164 192.256511 110.22719 
" clip-path="url(#pb97499f1d6)" style="fill: none; stroke: #000000; stroke-linecap: round"/>
    <path d="M 189.039271 107.120847 
L 192.256511 110.22719 
L 187.841093 110.937177 
L 189.039271 107.120847 
z
" clip-path="url(#pb97499f1d6)" style="stroke: #000000; stroke-linecap: round"/>
   </g>
   <g id="patch_16">
    <path d="M 90.948412 79.993176 
Q 66.277867 96.188131 42.541967 111.769541 
" clip-path="url(#pb97499f1d6)" style="fill: none; stroke: #000000; stroke-linecap: round"/>
    <path d="M 46.983398 111.246393 
L 42.541967 111.769541 
L 44.788307 107.902507 
L 46.983398 111.246393 
z
" clip-path="url(#pb97499f1d6)" style="stroke: #000000; stroke-linecap: round"/>
   </g>
   <g id="patch_17">
    <path d="M 41.60751 112.382964 
Q 66.278055 96.188008 90.013956 80.606599 
" clip-path="url(#pb97499f1d6)" style="fill: none; stroke: #000000; stroke-linecap: round"/>
    <path d="M 85.572524 81.129746 
L 90.013956 80.606599 
L 87.767615 84.473633 
L 85.572524 81.129746 
z
" clip-path="url(#pb97499f1d6)" style="stroke: #000000; stroke-linecap: round"/>
   </g>
   <g id="patch_18">
    <path d="M 41.918524 113.542448 
Q 89.360556 115.889216 135.685919 118.180747 
" clip-path="url(#pb97499f1d6)" style="fill: none; stroke: #000000; stroke-linecap: round"/>
    <path d="M 131.789615 115.985567 
L 135.685919 118.180747 
L 131.591993 119.980683 
L 131.789615 115.985567 
z
" clip-path="url(#pb97499f1d6)" style="stroke: #000000; stroke-linecap: round"/>
   </g>
   <g id="patch_19">
    <path d="M 138.98378 116.409489 
Q 144.387679 74.161086 149.649728 33.021681 
" clip-path="url(#pb97499f1d6)" style="fill: none; stroke: #000000; stroke-linecap: round"/>
    <path d="M 147.158394 36.735608 
L 149.649728 33.021681 
L 151.126069 37.243105 
L 147.158394 36.735608 
z
" clip-path="url(#pb97499f1d6)" style="stroke: #000000; stroke-linecap: round"/>
   </g>
   <g id="patch_20">
    <path d="M 140.410469 119.302149 
Q 188.470579 147.187041 235.563643 174.510843 
" clip-path="url(#pb97499f1d6)" style="fill: none; stroke: #000000; stroke-linecap: round"/>
    <path d="M 233.107538 170.773525 
L 235.563643 174.510843 
L 231.100126 174.233336 
L 233.107538 170.773525 
z
" clip-path="url(#pb97499f1d6)" style="stroke: #000000; stroke-linecap: round"/>
   </g>
   <g id="patch_21">
    <path d="M 136.806165 118.236161 
Q 89.364133 115.889393 43.03877 113.597862 
" clip-path="url(#pb97499f1d6)" style="fill: none; stroke: #000000; stroke-linecap: round"/>
    <path d="M 46.935074 115.793042 
L 43.03877 113.597862 
L 47.132696 111.797927 
L 46.935074 115.793042 
z
" clip-path="url(#pb97499f1d6)" style="stroke: #000000; stroke-linecap: round"/>
   </g>
   <g id="PathCollection_1">
    <defs>
     <path id="m7016bd2bad" d="M 0 1.936492 
C 0.513564 1.936492 1.006162 1.732451 1.369306 1.369306 
C 1.732451 1.006162 1.936492 0.513564 1.936492 0 
C 1.936492 -0.513564 1.732451 -1.006162 1.369306 -1.369306 
C 1.006162 -1.732451 0.513564 -1.936492 0 -1.936492 
C -0.513564 -1.936492 -1.006162 -1.732451 -1.369306 -1.369306 
C -1.732451 -1.006162 -1.936492 -0.513564 -1.936492 0 
C -1.936492 0.513564 -1.732451 1.006162 -1.369306 1.369306 
C -1.006162 1.732451 -0.513564 1.936492 0 1.936492 
z
" style="stroke: #1f78b4"/>
    </defs>
    <g clip-path="url(#pb97499f1d6)">
     <use xlink:href="#m7016bd2bad" x="150.037493" y="29.990083" style="fill: #1f78b4; stroke: #1f78b4"/>
     <use xlink:href="#m7016bd2bad" x="420.813223" y="280.42491" style="fill: #1f78b4; stroke: #1f78b4"/>
     <use xlink:href="#m7016bd2bad" x="378.841782" y="315.609917" style="fill: #1f78b4; stroke: #1f78b4"/>
     <use xlink:href="#m7016bd2bad" x="334.517282" y="249.078696" style="fill: #1f78b4; stroke: #1f78b4"/>
     <use xlink:href="#m7016bd2bad" x="238.204967" y="176.043362" style="fill: #1f78b4; stroke: #1f78b4"/>
     <use xlink:href="#m7016bd2bad" x="195.171096" y="111.142256" style="fill: #1f78b4; stroke: #1f78b4"/>
     <use xlink:href="#m7016bd2bad" x="92.569146" y="78.929247" style="fill: #1f78b4; stroke: #1f78b4"/>
     <use xlink:href="#m7016bd2bad" x="39.986777" y="113.446893" style="fill: #1f78b4; stroke: #1f78b4"/>
     <use xlink:href="#m7016bd2bad" x="138.737912" y="118.331717" style="fill: #1f78b4; stroke: #1f78b4"/>
    </g>
   </g>
   <g id="text_1">
    <g clip-path="url(#pb97499f1d6)">
     <!-- 0 -->
     <g transform="translate(146.856243 32.749458) scale(0.1 -0.1)">
      <defs>
       <path id="DejaVuSans-30" d="M 2034 4250 
Q 1547 4250 1301 3770 
Q 1056 3291 1056 2328 
Q 1056 1369 1301 889 
Q 1547 409 2034 409 
Q 2525 409 2770 889 
Q 3016 1369 3016 2328 
Q 3016 3291 2770 3770 
Q 2525 4250 2034 4250 
z
M 2034 4750 
Q 2819 4750 3233 4129 
Q 3647 3509 3647 2328 
Q 3647 1150 3233 529 
Q 2819 -91 2034 -91 
Q 1250 -91 836 529 
Q 422 1150 422 2328 
Q 422 3509 836 4129 
Q 1250 4750 2034 4750 
z
" transform="scale(0.015625)"/>
      </defs>
      <use xlink:href="#DejaVuSans-30"/>
     </g>
    </g>
   </g>
   <g id="text_2">
    <g clip-path="url(#pb97499f1d6)">
     <!-- 1 -->
     <g transform="translate(417.631973 283.184285) scale(0.1 -0.1)">
      <defs>
       <path id="DejaVuSans-31" d="M 794 531 
L 1825 531 
L 1825 4091 
L 703 3866 
L 703 4441 
L 1819 4666 
L 2450 4666 
L 2450 531 
L 3481 531 
L 3481 0 
L 794 0 
L 794 531 
z
" transform="scale(0.015625)"/>
      </defs>
      <use xlink:href="#DejaVuSans-31"/>
     </g>
    </g>
   </g>
   <g id="text_3">
    <g clip-path="url(#pb97499f1d6)">
     <!-- 2 -->
     <g transform="translate(375.660532 318.369292) scale(0.1 -0.1)">
      <defs>
       <path id="DejaVuSans-32" d="M 1228 531 
L 3431 531 
L 3431 0 
L 469 0 
L 469 531 
Q 828 903 1448 1529 
Q 2069 2156 2228 2338 
Q 2531 2678 2651 2914 
Q 2772 3150 2772 3378 
Q 2772 3750 2511 3984 
Q 2250 4219 1831 4219 
Q 1534 4219 1204 4116 
Q 875 4013 500 3803 
L 500 4441 
Q 881 4594 1212 4672 
Q 1544 4750 1819 4750 
Q 2544 4750 2975 4387 
Q 3406 4025 3406 3419 
Q 3406 3131 3298 2873 
Q 3191 2616 2906 2266 
Q 2828 2175 2409 1742 
Q 1991 1309 1228 531 
z
" transform="scale(0.015625)"/>
      </defs>
      <use xlink:href="#DejaVuSans-32"/>
     </g>
    </g>
   </g>
   <g id="text_4">
    <g clip-path="url(#pb97499f1d6)">
     <!-- 3 -->
     <g transform="translate(331.336032 251.838071) scale(0.1 -0.1)">
      <defs>
       <path id="DejaVuSans-33" d="M 2597 2516 
Q 3050 2419 3304 2112 
Q 3559 1806 3559 1356 
Q 3559 666 3084 287 
Q 2609 -91 1734 -91 
Q 1441 -91 1130 -33 
Q 819 25 488 141 
L 488 750 
Q 750 597 1062 519 
Q 1375 441 1716 441 
Q 2309 441 2620 675 
Q 2931 909 2931 1356 
Q 2931 1769 2642 2001 
Q 2353 2234 1838 2234 
L 1294 2234 
L 1294 2753 
L 1863 2753 
Q 2328 2753 2575 2939 
Q 2822 3125 2822 3475 
Q 2822 3834 2567 4026 
Q 2313 4219 1838 4219 
Q 1578 4219 1281 4162 
Q 984 4106 628 3988 
L 628 4550 
Q 988 4650 1302 4700 
Q 1616 4750 1894 4750 
Q 2613 4750 3031 4423 
Q 3450 4097 3450 3541 
Q 3450 3153 3228 2886 
Q 3006 2619 2597 2516 
z
" transform="scale(0.015625)"/>
      </defs>
      <use xlink:href="#DejaVuSans-33"/>
     </g>
    </g>
   </g>
   <g id="text_5">
    <g clip-path="url(#pb97499f1d6)">
     <!-- 4 -->
     <g transform="translate(235.023717 178.802737) scale(0.1 -0.1)">
      <defs>
       <path id="DejaVuSans-34" d="M 2419 4116 
L 825 1625 
L 2419 1625 
L 2419 4116 
z
M 2253 4666 
L 3047 4666 
L 3047 1625 
L 3713 1625 
L 3713 1100 
L 3047 1100 
L 3047 0 
L 2419 0 
L 2419 1100 
L 313 1100 
L 313 1709 
L 2253 4666 
z
" transform="scale(0.015625)"/>
      </defs>
      <use xlink:href="#DejaVuSans-34"/>
     </g>
    </g>
   </g>
   <g id="text_6">
    <g clip-path="url(#pb97499f1d6)">
     <!-- 5 -->
     <g transform="translate(191.989846 113.901631) scale(0.1 -0.1)">
      <defs>
       <path id="DejaVuSans-35" d="M 691 4666 
L 3169 4666 
L 3169 4134 
L 1269 4134 
L 1269 2991 
Q 1406 3038 1543 3061 
Q 1681 3084 1819 3084 
Q 2600 3084 3056 2656 
Q 3513 2228 3513 1497 
Q 3513 744 3044 326 
Q 2575 -91 1722 -91 
Q 1428 -91 1123 -41 
Q 819 9 494 109 
L 494 744 
Q 775 591 1075 516 
Q 1375 441 1709 441 
Q 2250 441 2565 725 
Q 2881 1009 2881 1497 
Q 2881 1984 2565 2268 
Q 2250 2553 1709 2553 
Q 1456 2553 1204 2497 
Q 953 2441 691 2322 
L 691 4666 
z
" transform="scale(0.015625)"/>
      </defs>
      <use xlink:href="#DejaVuSans-35"/>
     </g>
    </g>
   </g>
   <g id="text_7">
    <g clip-path="url(#pb97499f1d6)">
     <!-- 6 -->
     <g transform="translate(89.387896 81.688622) scale(0.1 -0.1)">
      <defs>
       <path id="DejaVuSans-36" d="M 2113 2584 
Q 1688 2584 1439 2293 
Q 1191 2003 1191 1497 
Q 1191 994 1439 701 
Q 1688 409 2113 409 
Q 2538 409 2786 701 
Q 3034 994 3034 1497 
Q 3034 2003 2786 2293 
Q 2538 2584 2113 2584 
z
M 3366 4563 
L 3366 3988 
Q 3128 4100 2886 4159 
Q 2644 4219 2406 4219 
Q 1781 4219 1451 3797 
Q 1122 3375 1075 2522 
Q 1259 2794 1537 2939 
Q 1816 3084 2150 3084 
Q 2853 3084 3261 2657 
Q 3669 2231 3669 1497 
Q 3669 778 3244 343 
Q 2819 -91 2113 -91 
Q 1303 -91 875 529 
Q 447 1150 447 2328 
Q 447 3434 972 4092 
Q 1497 4750 2381 4750 
Q 2619 4750 2861 4703 
Q 3103 4656 3366 4563 
z
" transform="scale(0.015625)"/>
      </defs>
      <use xlink:href="#DejaVuSans-36"/>
     </g>
    </g>
   </g>
   <g id="text_8">
    <g clip-path="url(#pb97499f1d6)">
     <!-- 7 -->
     <g transform="translate(36.805527 116.206268) scale(0.1 -0.1)">
      <defs>
       <path id="DejaVuSans-37" d="M 525 4666 
L 3525 4666 
L 3525 4397 
L 1831 0 
L 1172 0 
L 2766 4134 
L 525 4134 
L 525 4666 
z
" transform="scale(0.015625)"/>
      </defs>
      <use xlink:href="#DejaVuSans-37"/>
     </g>
    </g>
   </g>
   <g id="text_9">
    <g clip-path="url(#pb97499f1d6)">
     <!-- 8 -->
     <g transform="translate(135.556662 121.091092) scale(0.1 -0.1)">
      <defs>
       <path id="DejaVuSans-38" d="M 2034 2216 
Q 1584 2216 1326 1975 
Q 1069 1734 1069 1313 
Q 1069 891 1326 650 
Q 1584 409 2034 409 
Q 2484 409 2743 651 
Q 3003 894 3003 1313 
Q 3003 1734 2745 1975 
Q 2488 2216 2034 2216 
z
M 1403 2484 
Q 997 2584 770 2862 
Q 544 3141 544 3541 
Q 544 4100 942 4425 
Q 1341 4750 2034 4750 
Q 2731 4750 3128 4425 
Q 3525 4100 3525 3541 
Q 3525 3141 3298 2862 
Q 3072 2584 2669 2484 
Q 3125 2378 3379 2068 
Q 3634 1759 3634 1313 
Q 3634 634 3220 271 
Q 2806 -91 2034 -91 
Q 1263 -91 848 271 
Q 434 634 434 1313 
Q 434 1759 690 2068 
Q 947 2378 1403 2484 
z
M 1172 3481 
Q 1172 3119 1398 2916 
Q 1625 2713 2034 2713 
Q 2441 2713 2670 2916 
Q 2900 3119 2900 3481 
Q 2900 3844 2670 4047 
Q 2441 4250 2034 4250 
Q 1625 4250 1398 4047 
Q 1172 3844 1172 3481 
z
" transform="scale(0.015625)"/>
      </defs>
      <use xlink:href="#DejaVuSans-38"/>
     </g>
    </g>
   </g>
  </g>
 </g>
 <defs>
  <clipPath id="pb97499f1d6">
   <rect x="0" y="0" width="460.8" height="345.6"/>
  </clipPath>
 </defs>
</svg>
