<?xml version="1.0" encoding="utf-8" standalone="no"?>
<!DOCTYPE svg PUBLIC "-//W3C//DTD SVG 1.1//EN"
  "http://www.w3.org/Graphics/SVG/1.1/DTD/svg11.dtd">
<svg xmlns:xlink="http://www.w3.org/1999/xlink" width="460.8pt" height="345.6pt" viewBox="0 0 460.8 345.6" xmlns="http://www.w3.org/2000/svg" version="1.1">
 <metadata>
  <rdf:RDF xmlns:dc="http://purl.org/dc/elements/1.1/" xmlns:cc="http://creativecommons.org/ns#" xmlns:rdf="http://www.w3.org/1999/02/22-rdf-syntax-ns#">
   <cc:Work>
    <dc:type rdf:resource="http://purl.org/dc/dcmitype/StillImage"/>
    <dc:date>2023-10-23T10:42:26.041842</dc:date>
    <dc:format>image/svg+xml</dc:format>
    <dc:creator>
     <cc:Agent>
      <dc:title>Matplotlib v3.6.1, https://matplotlib.org/</dc:title>
     </cc:Agent>
    </dc:creator>
   </cc:Work>
  </rdf:RDF>
 </metadata>
 <defs>
  <style type="text/css">*{stroke-linejoin: round; stroke-linecap: butt}</style>
 </defs>
 <g id="figure_1">
  <g id="patch_1">
   <path d="M 0 345.6 
L 460.8 345.6 
L 460.8 0 
L 0 0 
z
" style="fill: #ffffff"/>
  </g>
  <g id="axes_1">
   <g id="patch_2">
    <path d="M 290.696752 30.221527 
Q 277.261347 31.838088 264.935969 33.321089 
" clip-path="url(#pe912e96e92)" style="fill: none; stroke: #000000; stroke-linecap: round"/>
    <path d="M 269.146244 34.82893 
L 264.935969 33.321089 
L 268.668407 30.857573 
L 269.146244 34.82893 
z
" clip-path="url(#pe912e96e92)" style="stroke: #000000; stroke-linecap: round"/>
   </g>
   <g id="patch_3">
    <path d="M 293.508179 31.712904 
Q 303.026442 50.182217 312.032534 67.657709 
" clip-path="url(#pe912e96e92)" style="fill: none; stroke: #000000; stroke-linecap: round"/>
    <path d="M 311.977936 63.185906 
L 312.032534 67.657709 
L 308.422333 65.018306 
L 311.977936 63.185906 
z
" clip-path="url(#pe912e96e92)" style="stroke: #000000; stroke-linecap: round"/>
   </g>
   <g id="patch_4">
    <path d="M 273.903586 214.014825 
Q 291.194721 204.603658 307.503852 195.726973 
" clip-path="url(#pe912e96e92)" style="fill: none; stroke: #000000; stroke-linecap: round"/>
    <path d="M 303.034423 195.882532 
L 307.503852 195.726973 
L 304.946642 199.395852 
L 303.034423 195.882532 
z
" clip-path="url(#pe912e96e92)" style="stroke: #000000; stroke-linecap: round"/>
   </g>
   <g id="patch_5">
    <path d="M 272.254248 216.879057 
Q 272.634072 231.595328 272.985049 245.193938 
" clip-path="url(#pe912e96e92)" style="fill: none; stroke: #000000; stroke-linecap: round"/>
    <path d="M 274.881178 241.143667 
L 272.985049 245.193938 
L 270.88251 241.246872 
L 274.881178 241.143667 
z
" clip-path="url(#pe912e96e92)" style="stroke: #000000; stroke-linecap: round"/>
   </g>
   <g id="patch_6">
    <path d="M 266.947301 73.707699 
Q 264.546307 54.656832 262.285112 36.715225 
" clip-path="url(#pe912e96e92)" style="fill: none; stroke: #000000; stroke-linecap: round"/>
    <path d="M 260.800976 40.933914 
L 262.285112 36.715225 
L 264.769582 40.433748 
L 260.800976 40.933914 
z
" clip-path="url(#pe912e96e92)" style="stroke: #000000; stroke-linecap: round"/>
   </g>
   <g id="patch_7">
    <path d="M 268.193562 77.28759 
Q 280.784561 98.072174 292.796275 117.900501 
" clip-path="url(#pe912e96e92)" style="fill: none; stroke: #000000; stroke-linecap: round"/>
    <path d="M 292.434361 113.443034 
L 292.796275 117.900501 
L 289.013152 115.515552 
L 292.434361 113.443034 
z
" clip-path="url(#pe912e96e92)" style="stroke: #000000; stroke-linecap: round"/>
   </g>
   <g id="patch_8">
    <path d="M 263.826895 33.454534 
Q 277.2623 31.837973 289.587678 30.354972 
" clip-path="url(#pe912e96e92)" style="fill: none; stroke: #000000; stroke-linecap: round"/>
    <path d="M 285.377403 28.847131 
L 289.587678 30.354972 
L 285.85524 32.818488 
L 285.377403 28.847131 
z
" clip-path="url(#pe912e96e92)" style="stroke: #000000; stroke-linecap: round"/>
   </g>
   <g id="patch_9">
    <path d="M 262.145643 35.608598 
Q 264.546638 54.659465 266.807832 72.601072 
" clip-path="url(#pe912e96e92)" style="fill: none; stroke: #000000; stroke-linecap: round"/>
    <path d="M 268.291969 68.382383 
L 266.807832 72.601072 
L 264.323363 68.882549 
L 268.291969 68.382383 
z
" clip-path="url(#pe912e96e92)" style="stroke: #000000; stroke-linecap: round"/>
   </g>
   <g id="patch_10">
    <path d="M 358.979744 273.086914 
Q 381.554242 278.871958 403.045702 284.379457 
" clip-path="url(#pe912e96e92)" style="fill: none; stroke: #000000; stroke-linecap: round"/>
    <path d="M 399.667397 281.44909 
L 403.045702 284.379457 
L 398.674425 285.323881 
L 399.667397 281.44909 
z
" clip-path="url(#pe912e96e92)" style="stroke: #000000; stroke-linecap: round"/>
   </g>
   <g id="patch_11">
    <path d="M 355.386615 271.701947 
Q 335.641707 261.300388 316.885971 251.419921 
" clip-path="url(#pe912e96e92)" style="fill: none; stroke: #000000; stroke-linecap: round"/>
    <path d="M 319.492782 255.053726 
L 316.885971 251.419921 
L 321.357101 251.514755 
L 319.492782 255.053726 
z
" clip-path="url(#pe912e96e92)" style="stroke: #000000; stroke-linecap: round"/>
   </g>
   <g id="patch_12">
    <path d="M 429.55603 293.516052 
Q 418.692318 289.651405 408.881972 286.161482 
" clip-path="url(#pe912e96e92)" style="fill: none; stroke: #000000; stroke-linecap: round"/>
    <path d="M 411.980286 289.386455 
L 408.881972 286.161482 
L 413.320939 285.617814 
L 411.980286 289.386455 
z
" clip-path="url(#pe912e96e92)" style="stroke: #000000; stroke-linecap: round"/>
   </g>
   <g id="patch_13">
    <path d="M 429.661605 293.278152 
Q 412.777797 284.566533 396.887559 276.367571 
" clip-path="url(#pe912e96e92)" style="fill: none; stroke: #000000; stroke-linecap: round"/>
    <path d="M 399.525196 279.979062 
L 396.887559 276.367571 
L 401.359334 276.424356 
L 399.525196 279.979062 
z
" clip-path="url(#pe912e96e92)" style="stroke: #000000; stroke-linecap: round"/>
   </g>
   <g id="patch_14">
    <path d="M 273.013748 246.305888 
Q 272.633924 231.589616 272.282947 217.991007 
" clip-path="url(#pe912e96e92)" style="fill: none; stroke: #000000; stroke-linecap: round"/>
    <path d="M 270.386818 222.041278 
L 272.282947 217.991007 
L 274.385486 221.938073 
L 270.386818 222.041278 
z
" clip-path="url(#pe912e96e92)" style="stroke: #000000; stroke-linecap: round"/>
   </g>
   <g id="patch_15">
    <path d="M 274.99885 248.327601 
Q 293.622904 249.120867 311.129937 249.866555 
" clip-path="url(#pe912e96e92)" style="fill: none; stroke: #000000; stroke-linecap: round"/>
    <path d="M 307.218671 247.698147 
L 311.129937 249.866555 
L 307.048451 251.694523 
L 307.218671 247.698147 
z
" clip-path="url(#pe912e96e92)" style="stroke: #000000; stroke-linecap: round"/>
   </g>
   <g id="patch_16">
    <path d="M 315.900008 250.900519 
Q 335.644916 261.302078 354.400652 271.182545 
" clip-path="url(#pe912e96e92)" style="fill: none; stroke: #000000; stroke-linecap: round"/>
    <path d="M 351.793841 267.54874 
L 354.400652 271.182545 
L 349.929522 271.087711 
L 351.793841 267.54874 
z
" clip-path="url(#pe912e96e92)" style="stroke: #000000; stroke-linecap: round"/>
   </g>
   <g id="patch_17">
    <path d="M 312.249175 249.914228 
Q 293.62512 249.120961 276.118087 248.375273 
" clip-path="url(#pe912e96e92)" style="fill: none; stroke: #000000; stroke-linecap: round"/>
    <path d="M 280.029354 250.543682 
L 276.118087 248.375273 
L 280.199574 246.547305 
L 280.029354 250.543682 
z
" clip-path="url(#pe912e96e92)" style="stroke: #000000; stroke-linecap: round"/>
   </g>
   <g id="patch_18">
    <path d="M 313.166416 251.644237 
Q 301.831077 269.99344 291.083332 287.391469 
" clip-path="url(#pe912e96e92)" style="fill: none; stroke: #000000; stroke-linecap: round"/>
    <path d="M 294.887086 285.039564 
L 291.083332 287.391469 
L 291.48406 282.937323 
L 294.887086 285.039564 
z
" clip-path="url(#pe912e96e92)" style="stroke: #000000; stroke-linecap: round"/>
   </g>
   <g id="patch_19">
    <path d="M 314.045959 248.067966 
Q 312.186782 222.133843 310.40755 197.314892 
" clip-path="url(#pe912e96e92)" style="fill: none; stroke: #000000; stroke-linecap: round"/>
    <path d="M 308.698689 201.447663 
L 310.40755 197.314892 
L 312.68845 201.161643 
L 308.698689 201.447663 
z
" clip-path="url(#pe912e96e92)" style="stroke: #000000; stroke-linecap: round"/>
   </g>
   <g id="patch_20">
    <path d="M 315.978142 249.272325 
Q 333.803473 242.075053 350.592087 235.296373 
" clip-path="url(#pe912e96e92)" style="fill: none; stroke: #000000; stroke-linecap: round"/>
    <path d="M 346.134218 234.939436 
L 350.592087 235.296373 
L 347.631816 238.648506 
L 346.134218 234.939436 
z
" clip-path="url(#pe912e96e92)" style="stroke: #000000; stroke-linecap: round"/>
   </g>
   <g id="patch_21">
    <path d="M 404.125548 284.656183 
Q 381.55105 278.87114 360.059589 273.36364 
" clip-path="url(#pe912e96e92)" style="fill: none; stroke: #000000; stroke-linecap: round"/>
    <path d="M 363.437895 276.294007 
L 360.059589 273.36364 
L 364.430866 272.419216 
L 363.437895 276.294007 
z
" clip-path="url(#pe912e96e92)" style="stroke: #000000; stroke-linecap: round"/>
   </g>
   <g id="patch_22">
    <path d="M 407.82754 285.786379 
Q 418.691252 289.651026 428.501598 293.140949 
" clip-path="url(#pe912e96e92)" style="fill: none; stroke: #000000; stroke-linecap: round"/>
    <path d="M 425.403284 289.915977 
L 428.501598 293.140949 
L 424.062631 293.684617 
L 425.403284 289.915977 
z
" clip-path="url(#pe912e96e92)" style="stroke: #000000; stroke-linecap: round"/>
   </g>
   <g id="patch_23">
    <path d="M 404.532969 283.873512 
Q 400.088258 280.052166 396.491329 276.9597 
" clip-path="url(#pe912e96e92)" style="fill: none; stroke: #000000; stroke-linecap: round"/>
    <path d="M 398.22058 281.083981 
L 396.491329 276.9597 
L 400.828304 278.050867 
L 398.22058 281.083981 
z
" clip-path="url(#pe912e96e92)" style="stroke: #000000; stroke-linecap: round"/>
   </g>
   <g id="patch_24">
    <path d="M 290.497189 288.340294 
Q 301.832528 269.99109 312.580273 252.593061 
" clip-path="url(#pe912e96e92)" style="fill: none; stroke: #000000; stroke-linecap: round"/>
    <path d="M 308.776519 254.944966 
L 312.580273 252.593061 
L 312.179545 257.047207 
L 308.776519 254.944966 
z
" clip-path="url(#pe912e96e92)" style="stroke: #000000; stroke-linecap: round"/>
   </g>
   <g id="patch_25">
    <path d="M 339.55216 173.996605 
Q 352.253357 174.28992 363.836819 174.557422 
" clip-path="url(#pe912e96e92)" style="fill: none; stroke: #000000; stroke-linecap: round"/>
    <path d="M 359.884059 172.465606 
L 363.836819 174.557422 
L 359.79171 176.46454 
L 359.884059 172.465606 
z
" clip-path="url(#pe912e96e92)" style="stroke: #000000; stroke-linecap: round"/>
   </g>
   <g id="patch_26">
    <path d="M 336.061853 175.105012 
Q 323.903924 184.108728 312.644475 192.447063 
" clip-path="url(#pe912e96e92)" style="fill: none; stroke: #000000; stroke-linecap: round"/>
    <path d="M 317.049248 191.673772 
L 312.644475 192.447063 
L 314.668706 188.45927 
L 317.049248 191.673772 
z
" clip-path="url(#pe912e96e92)" style="stroke: #000000; stroke-linecap: round"/>
   </g>
   <g id="patch_27">
    <path d="M 373.616165 122.400019 
Q 370.378637 147.552913 367.283838 171.59692 
" clip-path="url(#pe912e96e92)" style="fill: none; stroke: #000000; stroke-linecap: round"/>
    <path d="M 369.778117 167.88497 
L 367.283838 171.59692 
L 365.810846 167.374327 
L 369.778117 167.88497 
z
" clip-path="url(#pe912e96e92)" style="stroke: #000000; stroke-linecap: round"/>
   </g>
   <g id="patch_28">
    <path d="M 373.043063 118.727482 
Q 364.167826 99.766696 355.766567 81.818504 
" clip-path="url(#pe912e96e92)" style="fill: none; stroke: #000000; stroke-linecap: round"/>
    <path d="M 355.650942 86.289145 
L 355.766567 81.818504 
L 359.273705 84.593388 
L 355.650942 86.289145 
z
" clip-path="url(#pe912e96e92)" style="stroke: #000000; stroke-linecap: round"/>
   </g>
   <g id="patch_29">
    <path d="M 312.543306 68.648815 
Q 303.025043 50.179502 294.018951 32.70401 
" clip-path="url(#pe912e96e92)" style="fill: none; stroke: #000000; stroke-linecap: round"/>
    <path d="M 294.073549 37.175812 
L 294.018951 32.70401 
L 297.629152 35.343413 
L 294.073549 37.175812 
z
" clip-path="url(#pe912e96e92)" style="stroke: #000000; stroke-linecap: round"/>
   </g>
   <g id="patch_30">
    <path d="M 312.743876 72.180248 
Q 303.90432 95.441425 295.461923 117.657488 
" clip-path="url(#pe912e96e92)" style="fill: none; stroke: #000000; stroke-linecap: round"/>
    <path d="M 298.752396 114.628827 
L 295.461923 117.657488 
L 295.013278 113.207913 
L 298.752396 114.628827 
z
" clip-path="url(#pe912e96e92)" style="stroke: #000000; stroke-linecap: round"/>
   </g>
   <g id="patch_31">
    <path d="M 315.327349 70.772616 
Q 333.95057 74.71082 351.479946 78.417712 
" clip-path="url(#pe912e96e92)" style="fill: none; stroke: #000000; stroke-linecap: round"/>
    <path d="M 347.980275 75.633416 
L 351.479946 78.417712 
L 347.152707 79.546871 
L 347.980275 75.633416 
z
" clip-path="url(#pe912e96e92)" style="stroke: #000000; stroke-linecap: round"/>
   </g>
   <g id="patch_32">
    <path d="M 293.373648 118.8536 
Q 280.782649 98.069016 268.770935 78.240689 
" clip-path="url(#pe912e96e92)" style="fill: none; stroke: #000000; stroke-linecap: round"/>
    <path d="M 269.13285 82.698157 
L 268.770935 78.240689 
L 272.554058 80.625638 
L 269.13285 82.698157 
z
" clip-path="url(#pe912e96e92)" style="stroke: #000000; stroke-linecap: round"/>
   </g>
   <g id="patch_33">
    <path d="M 295.064896 118.702261 
Q 303.904451 95.441083 312.346848 73.22502 
" clip-path="url(#pe912e96e92)" style="fill: none; stroke: #000000; stroke-linecap: round"/>
    <path d="M 309.056375 76.253681 
L 312.346848 73.22502 
L 312.795493 77.674595 
L 309.056375 76.253681 
z
" clip-path="url(#pe912e96e92)" style="stroke: #000000; stroke-linecap: round"/>
   </g>
   <g id="patch_34">
    <path d="M 294.783885 122.406057 
Q 302.283791 157.390624 309.549342 191.281996 
" clip-path="url(#pe912e96e92)" style="fill: none; stroke: #000000; stroke-linecap: round"/>
    <path d="M 310.66645 186.95163 
L 309.549342 191.281996 
L 306.755314 187.79009 
L 310.66645 186.95163 
z
" clip-path="url(#pe912e96e92)" style="stroke: #000000; stroke-linecap: round"/>
   </g>
   <g id="patch_35">
    <path d="M 395.893275 275.854545 
Q 412.777083 284.566164 428.66732 292.765126 
" clip-path="url(#pe912e96e92)" style="fill: none; stroke: #000000; stroke-linecap: round"/>
    <path d="M 426.029684 289.153635 
L 428.66732 292.765126 
L 424.195545 292.708341 
L 426.029684 289.153635 
z
" clip-path="url(#pe912e96e92)" style="stroke: #000000; stroke-linecap: round"/>
   </g>
   <g id="patch_36">
    <path d="M 395.644124 276.231315 
Q 400.088834 280.052661 403.685764 283.145126 
" clip-path="url(#pe912e96e92)" style="fill: none; stroke: #000000; stroke-linecap: round"/>
    <path d="M 401.956512 279.020846 
L 403.685764 283.145126 
L 399.348789 282.053959 
L 401.956512 279.020846 
z
" clip-path="url(#pe912e96e92)" style="stroke: #000000; stroke-linecap: round"/>
   </g>
   <g id="patch_37">
    <path d="M 392.8038 273.594919 
Q 373.798328 254.558571 355.582783 236.313435 
" clip-path="url(#pe912e96e92)" style="fill: none; stroke: #000000; stroke-linecap: round"/>
    <path d="M 356.993553 240.557222 
L 355.582783 236.313435 
L 359.824275 237.731091 
L 356.993553 240.557222 
z
" clip-path="url(#pe912e96e92)" style="stroke: #000000; stroke-linecap: round"/>
   </g>
   <g id="patch_38">
    <path d="M 393.945332 276.887541 
Q 391.75209 295.286815 389.691183 312.575914 
" clip-path="url(#pe912e96e92)" style="fill: none; stroke: #000000; stroke-linecap: round"/>
    <path d="M 392.150582 308.840763 
L 389.691183 312.575914 
L 388.178702 308.367304 
L 392.150582 308.840763 
z
" clip-path="url(#pe912e96e92)" style="stroke: #000000; stroke-linecap: round"/>
   </g>
   <g id="patch_39">
    <path d="M 389.55839 313.689923 
Q 391.751633 295.290649 393.81254 278.00155 
" clip-path="url(#pe912e96e92)" style="fill: none; stroke: #000000; stroke-linecap: round"/>
    <path d="M 391.353141 281.736701 
L 393.81254 278.00155 
L 395.325021 282.21016 
L 391.353141 281.736701 
z
" clip-path="url(#pe912e96e92)" style="stroke: #000000; stroke-linecap: round"/>
   </g>
   <g id="patch_40">
    <path d="M 388.108681 314.103704 
Q 378.241444 301.929994 369.078202 290.624839 
" clip-path="url(#pe912e96e92)" style="fill: none; stroke: #000000; stroke-linecap: round"/>
    <path d="M 370.043176 294.991625 
L 369.078202 290.624839 
L 373.150616 292.472932 
L 370.043176 294.991625 
z
" clip-path="url(#pe912e96e92)" style="stroke: #000000; stroke-linecap: round"/>
   </g>
   <g id="patch_41">
    <path d="M 368.374912 289.757153 
Q 378.242149 301.930864 387.40539 313.236019 
" clip-path="url(#pe912e96e92)" style="fill: none; stroke: #000000; stroke-linecap: round"/>
    <path d="M 386.440417 308.869232 
L 387.40539 313.236019 
L 383.332977 311.387926 
L 386.440417 308.869232 
z
" clip-path="url(#pe912e96e92)" style="stroke: #000000; stroke-linecap: round"/>
   </g>
   <g id="patch_42">
    <path d="M 366.677283 286.372153 
Q 360.289484 261.200931 354.176695 237.113392 
" clip-path="url(#pe912e96e92)" style="fill: none; stroke: #000000; stroke-linecap: round"/>
    <path d="M 353.222051 241.482449 
L 354.176695 237.113392 
L 357.099154 240.498541 
L 353.222051 241.482449 
z
" clip-path="url(#pe912e96e92)" style="stroke: #000000; stroke-linecap: round"/>
   </g>
   <g id="patch_43">
    <path d="M 351.631361 234.876749 
Q 333.80603 242.074021 317.017415 248.852701 
" clip-path="url(#pe912e96e92)" style="fill: none; stroke: #000000; stroke-linecap: round"/>
    <path d="M 321.475284 249.209638 
L 317.017415 248.852701 
L 319.977686 245.500568 
L 321.475284 249.209638 
z
" clip-path="url(#pe912e96e92)" style="stroke: #000000; stroke-linecap: round"/>
   </g>
   <g id="patch_44">
    <path d="M 354.79568 235.525053 
Q 373.801152 254.5614 392.016697 272.806537 
" clip-path="url(#pe912e96e92)" style="fill: none; stroke: #000000; stroke-linecap: round"/>
    <path d="M 390.605927 268.56275 
L 392.016697 272.806537 
L 387.775205 271.388881 
L 390.605927 268.56275 
z
" clip-path="url(#pe912e96e92)" style="stroke: #000000; stroke-linecap: round"/>
   </g>
   <g id="patch_45">
    <path d="M 353.902066 236.031213 
Q 360.289866 261.202435 366.402654 285.289973 
" clip-path="url(#pe912e96e92)" style="fill: none; stroke: #000000; stroke-linecap: round"/>
    <path d="M 367.357298 280.920916 
L 366.402654 285.289973 
L 363.480196 281.904824 
L 367.357298 280.920916 
z
" clip-path="url(#pe912e96e92)" style="stroke: #000000; stroke-linecap: round"/>
   </g>
   <g id="patch_46">
    <path d="M 353.851921 232.266856 
Q 360.15908 204.392018 366.219502 177.607648 
" clip-path="url(#pe912e96e92)" style="fill: none; stroke: #000000; stroke-linecap: round"/>
    <path d="M 363.386059 181.067648 
L 366.219502 177.607648 
L 367.287437 181.950402 
L 363.386059 181.067648 
z
" clip-path="url(#pe912e96e92)" style="stroke: #000000; stroke-linecap: round"/>
   </g>
   <g id="patch_47">
    <path d="M 352.002892 232.840229 
Q 331.806685 214.208587 312.432236 196.335044 
" clip-path="url(#pe912e96e92)" style="fill: none; stroke: #000000; stroke-linecap: round"/>
    <path d="M 314.016121 200.517305 
L 312.432236 196.335044 
L 316.728376 197.577292 
L 314.016121 200.517305 
z
" clip-path="url(#pe912e96e92)" style="stroke: #000000; stroke-linecap: round"/>
   </g>
   <g id="patch_48">
    <path d="M 364.960382 174.583369 
Q 352.259185 174.290054 340.675724 174.022552 
" clip-path="url(#pe912e96e92)" style="fill: none; stroke: #000000; stroke-linecap: round"/>
    <path d="M 344.628483 176.114368 
L 340.675724 174.022552 
L 344.720832 172.115435 
L 344.628483 176.114368 
z
" clip-path="url(#pe912e96e92)" style="stroke: #000000; stroke-linecap: round"/>
   </g>
   <g id="patch_49">
    <path d="M 367.140847 172.707845 
Q 370.378375 147.554951 373.473173 123.510944 
" clip-path="url(#pe912e96e92)" style="fill: none; stroke: #000000; stroke-linecap: round"/>
    <path d="M 370.978894 127.222894 
L 373.473173 123.510944 
L 374.946166 127.733537 
L 370.978894 127.222894 
z
" clip-path="url(#pe912e96e92)" style="stroke: #000000; stroke-linecap: round"/>
   </g>
   <g id="patch_50">
    <path d="M 366.467052 176.513585 
Q 360.159893 204.388423 354.099471 231.172794 
" clip-path="url(#pe912e96e92)" style="fill: none; stroke: #000000; stroke-linecap: round"/>
    <path d="M 356.932914 227.712793 
L 354.099471 231.172794 
L 353.031536 226.830039 
L 356.932914 227.712793 
z
" clip-path="url(#pe912e96e92)" style="stroke: #000000; stroke-linecap: round"/>
   </g>
   <g id="patch_51">
    <path d="M 308.489555 195.190478 
Q 291.198421 204.601644 274.889289 213.47833 
" clip-path="url(#pe912e96e92)" style="fill: none; stroke: #000000; stroke-linecap: round"/>
    <path d="M 279.358718 213.322771 
L 274.889289 213.47833 
L 277.446499 209.809451 
L 279.358718 213.322771 
z
" clip-path="url(#pe912e96e92)" style="stroke: #000000; stroke-linecap: round"/>
   </g>
   <g id="patch_52">
    <path d="M 310.32721 196.194221 
Q 312.186388 222.128344 313.96562 246.947295 
" clip-path="url(#pe912e96e92)" style="fill: none; stroke: #000000; stroke-linecap: round"/>
    <path d="M 315.674481 242.814524 
L 313.96562 246.947295 
L 311.68472 243.100544 
L 315.674481 242.814524 
z
" clip-path="url(#pe912e96e92)" style="stroke: #000000; stroke-linecap: round"/>
   </g>
   <g id="patch_53">
    <path d="M 311.745941 193.112485 
Q 323.90387 184.108768 335.163319 175.770433 
" clip-path="url(#pe912e96e92)" style="fill: none; stroke: #000000; stroke-linecap: round"/>
    <path d="M 330.758547 176.543724 
L 335.163319 175.770433 
L 333.139089 179.758226 
L 330.758547 176.543724 
z
" clip-path="url(#pe912e96e92)" style="stroke: #000000; stroke-linecap: round"/>
   </g>
   <g id="patch_54">
    <path d="M 309.782661 192.370353 
Q 302.282754 157.385786 295.017204 123.494414 
" clip-path="url(#pe912e96e92)" style="fill: none; stroke: #000000; stroke-linecap: round"/>
    <path d="M 293.900096 127.82478 
L 295.017204 123.494414 
L 297.811232 126.98632 
L 293.900096 127.82478 
z
" clip-path="url(#pe912e96e92)" style="stroke: #000000; stroke-linecap: round"/>
   </g>
   <g id="patch_55">
    <path d="M 311.611333 195.577735 
Q 331.80754 214.209376 351.181989 232.082919 
" clip-path="url(#pe912e96e92)" style="fill: none; stroke: #000000; stroke-linecap: round"/>
    <path d="M 349.598104 227.900658 
L 351.181989 232.082919 
L 346.885849 230.840671 
L 349.598104 227.900658 
z
" clip-path="url(#pe912e96e92)" style="stroke: #000000; stroke-linecap: round"/>
   </g>
   <g id="patch_56">
    <path d="M 355.291009 80.802537 
Q 364.166246 99.763322 372.567505 117.711515 
" clip-path="url(#pe912e96e92)" style="fill: none; stroke: #000000; stroke-linecap: round"/>
    <path d="M 372.68313 113.240874 
L 372.567505 117.711515 
L 369.060367 114.93663 
L 372.68313 113.240874 
z
" clip-path="url(#pe912e96e92)" style="stroke: #000000; stroke-linecap: round"/>
   </g>
   <g id="patch_57">
    <path d="M 352.574578 78.649191 
Q 333.951357 74.710987 316.42198 71.004095 
" clip-path="url(#pe912e96e92)" style="fill: none; stroke: #000000; stroke-linecap: round"/>
    <path d="M 319.921651 73.78839 
L 316.42198 71.004095 
L 320.749219 69.874935 
L 319.921651 73.78839 
z
" clip-path="url(#pe912e96e92)" style="stroke: #000000; stroke-linecap: round"/>
   </g>
   <g id="PathCollection_1">
    <defs>
     <path id="m150676b896" d="M 0 1.936492 
C 0.513564 1.936492 1.006162 1.732451 1.369306 1.369306 
C 1.732451 1.006162 1.936492 0.513564 1.936492 0 
C 1.936492 -0.513564 1.732451 -1.006162 1.369306 -1.369306 
C 1.006162 -1.732451 0.513564 -1.936492 0 -1.936492 
C -0.513564 -1.936492 -1.006162 -1.732451 -1.369306 -1.369306 
C -1.732451 -1.006162 -1.936492 -0.513564 -1.936492 0 
C -1.936492 0.513564 -1.732451 1.006162 -1.369306 1.369306 
C -1.006162 1.732451 -0.513564 1.936492 0 1.936492 
z
" style="stroke: #1f78b4"/>
    </defs>
    <g clip-path="url(#pe912e96e92)">
     <use xlink:href="#m150676b896" x="292.620313" y="29.990083" style="fill: #1f78b4; stroke: #1f78b4"/>
     <use xlink:href="#m150676b896" x="272.204195" y="214.939765" style="fill: #1f78b4; stroke: #1f78b4"/>
     <use xlink:href="#m150676b896" x="267.189611" y="75.630319" style="fill: #1f78b4; stroke: #1f78b4"/>
     <use xlink:href="#m150676b896" x="261.903334" y="33.685978" style="fill: #1f78b4; stroke: #1f78b4"/>
     <use xlink:href="#m150676b896" x="357.102399" y="272.605817" style="fill: #1f78b4; stroke: #1f78b4"/>
     <use xlink:href="#m150676b896" x="431.380678" y="294.165151" style="fill: #1f78b4; stroke: #1f78b4"/>
     <use xlink:href="#m150676b896" x="273.063801" y="248.24518" style="fill: #1f78b4; stroke: #1f78b4"/>
     <use xlink:href="#m150676b896" x="314.184224" y="249.996649" style="fill: #1f78b4; stroke: #1f78b4"/>
     <use xlink:href="#m150676b896" x="406.002892" y="285.13728" style="fill: #1f78b4; stroke: #1f78b4"/>
     <use xlink:href="#m150676b896" x="289.479381" y="289.987882" style="fill: #1f78b4; stroke: #1f78b4"/>
     <use xlink:href="#m150676b896" x="337.618848" y="173.951958" style="fill: #1f78b4; stroke: #1f78b4"/>
     <use xlink:href="#m150676b896" x="373.863317" y="120.479848" style="fill: #1f78b4; stroke: #1f78b4"/>
     <use xlink:href="#m150676b896" x="313.431172" y="70.371636" style="fill: #1f78b4; stroke: #1f78b4"/>
     <use xlink:href="#m150676b896" x="294.377599" y="120.510872" style="fill: #1f78b4; stroke: #1f78b4"/>
     <use xlink:href="#m150676b896" x="394.174201" y="274.967546" style="fill: #1f78b4; stroke: #1f78b4"/>
     <use xlink:href="#m150676b896" x="389.329522" y="315.609917" style="fill: #1f78b4; stroke: #1f78b4"/>
     <use xlink:href="#m150676b896" x="367.154071" y="288.25094" style="fill: #1f78b4; stroke: #1f78b4"/>
     <use xlink:href="#m150676b896" x="353.425279" y="234.152425" style="fill: #1f78b4; stroke: #1f78b4"/>
     <use xlink:href="#m150676b896" x="366.893694" y="174.628016" style="fill: #1f78b4; stroke: #1f78b4"/>
     <use xlink:href="#m150676b896" x="310.188946" y="194.265538" style="fill: #1f78b4; stroke: #1f78b4"/>
     <use xlink:href="#m150676b896" x="20.945455" y="168.486153" style="fill: #1f78b4; stroke: #1f78b4"/>
     <use xlink:href="#m150676b896" x="354.470755" y="79.050171" style="fill: #1f78b4; stroke: #1f78b4"/>
    </g>
   </g>
   <g id="text_1">
    <g clip-path="url(#pe912e96e92)">
     <!-- 0 -->
     <g transform="translate(289.439063 32.749458) scale(0.1 -0.1)">
      <defs>
       <path id="DejaVuSans-30" d="M 2034 4250 
Q 1547 4250 1301 3770 
Q 1056 3291 1056 2328 
Q 1056 1369 1301 889 
Q 1547 409 2034 409 
Q 2525 409 2770 889 
Q 3016 1369 3016 2328 
Q 3016 3291 2770 3770 
Q 2525 4250 2034 4250 
z
M 2034 4750 
Q 2819 4750 3233 4129 
Q 3647 3509 3647 2328 
Q 3647 1150 3233 529 
Q 2819 -91 2034 -91 
Q 1250 -91 836 529 
Q 422 1150 422 2328 
Q 422 3509 836 4129 
Q 1250 4750 2034 4750 
z
" transform="scale(0.015625)"/>
      </defs>
      <use xlink:href="#DejaVuSans-30"/>
     </g>
    </g>
   </g>
   <g id="text_2">
    <g clip-path="url(#pe912e96e92)">
     <!-- 1 -->
     <g transform="translate(269.022945 217.69914) scale(0.1 -0.1)">
      <defs>
       <path id="DejaVuSans-31" d="M 794 531 
L 1825 531 
L 1825 4091 
L 703 3866 
L 703 4441 
L 1819 4666 
L 2450 4666 
L 2450 531 
L 3481 531 
L 3481 0 
L 794 0 
L 794 531 
z
" transform="scale(0.015625)"/>
      </defs>
      <use xlink:href="#DejaVuSans-31"/>
     </g>
    </g>
   </g>
   <g id="text_3">
    <g clip-path="url(#pe912e96e92)">
     <!-- 2 -->
     <g transform="translate(264.008361 78.389694) scale(0.1 -0.1)">
      <defs>
       <path id="DejaVuSans-32" d="M 1228 531 
L 3431 531 
L 3431 0 
L 469 0 
L 469 531 
Q 828 903 1448 1529 
Q 2069 2156 2228 2338 
Q 2531 2678 2651 2914 
Q 2772 3150 2772 3378 
Q 2772 3750 2511 3984 
Q 2250 4219 1831 4219 
Q 1534 4219 1204 4116 
Q 875 4013 500 3803 
L 500 4441 
Q 881 4594 1212 4672 
Q 1544 4750 1819 4750 
Q 2544 4750 2975 4387 
Q 3406 4025 3406 3419 
Q 3406 3131 3298 2873 
Q 3191 2616 2906 2266 
Q 2828 2175 2409 1742 
Q 1991 1309 1228 531 
z
" transform="scale(0.015625)"/>
      </defs>
      <use xlink:href="#DejaVuSans-32"/>
     </g>
    </g>
   </g>
   <g id="text_4">
    <g clip-path="url(#pe912e96e92)">
     <!-- 3 -->
     <g transform="translate(258.722084 36.445353) scale(0.1 -0.1)">
      <defs>
       <path id="DejaVuSans-33" d="M 2597 2516 
Q 3050 2419 3304 2112 
Q 3559 1806 3559 1356 
Q 3559 666 3084 287 
Q 2609 -91 1734 -91 
Q 1441 -91 1130 -33 
Q 819 25 488 141 
L 488 750 
Q 750 597 1062 519 
Q 1375 441 1716 441 
Q 2309 441 2620 675 
Q 2931 909 2931 1356 
Q 2931 1769 2642 2001 
Q 2353 2234 1838 2234 
L 1294 2234 
L 1294 2753 
L 1863 2753 
Q 2328 2753 2575 2939 
Q 2822 3125 2822 3475 
Q 2822 3834 2567 4026 
Q 2313 4219 1838 4219 
Q 1578 4219 1281 4162 
Q 984 4106 628 3988 
L 628 4550 
Q 988 4650 1302 4700 
Q 1616 4750 1894 4750 
Q 2613 4750 3031 4423 
Q 3450 4097 3450 3541 
Q 3450 3153 3228 2886 
Q 3006 2619 2597 2516 
z
" transform="scale(0.015625)"/>
      </defs>
      <use xlink:href="#DejaVuSans-33"/>
     </g>
    </g>
   </g>
   <g id="text_5">
    <g clip-path="url(#pe912e96e92)">
     <!-- 4 -->
     <g transform="translate(353.921149 275.365192) scale(0.1 -0.1)">
      <defs>
       <path id="DejaVuSans-34" d="M 2419 4116 
L 825 1625 
L 2419 1625 
L 2419 4116 
z
M 2253 4666 
L 3047 4666 
L 3047 1625 
L 3713 1625 
L 3713 1100 
L 3047 1100 
L 3047 0 
L 2419 0 
L 2419 1100 
L 313 1100 
L 313 1709 
L 2253 4666 
z
" transform="scale(0.015625)"/>
      </defs>
      <use xlink:href="#DejaVuSans-34"/>
     </g>
    </g>
   </g>
   <g id="text_6">
    <g clip-path="url(#pe912e96e92)">
     <!-- 5 -->
     <g transform="translate(428.199428 296.924526) scale(0.1 -0.1)">
      <defs>
       <path id="DejaVuSans-35" d="M 691 4666 
L 3169 4666 
L 3169 4134 
L 1269 4134 
L 1269 2991 
Q 1406 3038 1543 3061 
Q 1681 3084 1819 3084 
Q 2600 3084 3056 2656 
Q 3513 2228 3513 1497 
Q 3513 744 3044 326 
Q 2575 -91 1722 -91 
Q 1428 -91 1123 -41 
Q 819 9 494 109 
L 494 744 
Q 775 591 1075 516 
Q 1375 441 1709 441 
Q 2250 441 2565 725 
Q 2881 1009 2881 1497 
Q 2881 1984 2565 2268 
Q 2250 2553 1709 2553 
Q 1456 2553 1204 2497 
Q 953 2441 691 2322 
L 691 4666 
z
" transform="scale(0.015625)"/>
      </defs>
      <use xlink:href="#DejaVuSans-35"/>
     </g>
    </g>
   </g>
   <g id="text_7">
    <g clip-path="url(#pe912e96e92)">
     <!-- 6 -->
     <g transform="translate(269.882551 251.004555) scale(0.1 -0.1)">
      <defs>
       <path id="DejaVuSans-36" d="M 2113 2584 
Q 1688 2584 1439 2293 
Q 1191 2003 1191 1497 
Q 1191 994 1439 701 
Q 1688 409 2113 409 
Q 2538 409 2786 701 
Q 3034 994 3034 1497 
Q 3034 2003 2786 2293 
Q 2538 2584 2113 2584 
z
M 3366 4563 
L 3366 3988 
Q 3128 4100 2886 4159 
Q 2644 4219 2406 4219 
Q 1781 4219 1451 3797 
Q 1122 3375 1075 2522 
Q 1259 2794 1537 2939 
Q 1816 3084 2150 3084 
Q 2853 3084 3261 2657 
Q 3669 2231 3669 1497 
Q 3669 778 3244 343 
Q 2819 -91 2113 -91 
Q 1303 -91 875 529 
Q 447 1150 447 2328 
Q 447 3434 972 4092 
Q 1497 4750 2381 4750 
Q 2619 4750 2861 4703 
Q 3103 4656 3366 4563 
z
" transform="scale(0.015625)"/>
      </defs>
      <use xlink:href="#DejaVuSans-36"/>
     </g>
    </g>
   </g>
   <g id="text_8">
    <g clip-path="url(#pe912e96e92)">
     <!-- 7 -->
     <g transform="translate(311.002974 252.756024) scale(0.1 -0.1)">
      <defs>
       <path id="DejaVuSans-37" d="M 525 4666 
L 3525 4666 
L 3525 4397 
L 1831 0 
L 1172 0 
L 2766 4134 
L 525 4134 
L 525 4666 
z
" transform="scale(0.015625)"/>
      </defs>
      <use xlink:href="#DejaVuSans-37"/>
     </g>
    </g>
   </g>
   <g id="text_9">
    <g clip-path="url(#pe912e96e92)">
     <!-- 8 -->
     <g transform="translate(402.821642 287.896655) scale(0.1 -0.1)">
      <defs>
       <path id="DejaVuSans-38" d="M 2034 2216 
Q 1584 2216 1326 1975 
Q 1069 1734 1069 1313 
Q 1069 891 1326 650 
Q 1584 409 2034 409 
Q 2484 409 2743 651 
Q 3003 894 3003 1313 
Q 3003 1734 2745 1975 
Q 2488 2216 2034 2216 
z
M 1403 2484 
Q 997 2584 770 2862 
Q 544 3141 544 3541 
Q 544 4100 942 4425 
Q 1341 4750 2034 4750 
Q 2731 4750 3128 4425 
Q 3525 4100 3525 3541 
Q 3525 3141 3298 2862 
Q 3072 2584 2669 2484 
Q 3125 2378 3379 2068 
Q 3634 1759 3634 1313 
Q 3634 634 3220 271 
Q 2806 -91 2034 -91 
Q 1263 -91 848 271 
Q 434 634 434 1313 
Q 434 1759 690 2068 
Q 947 2378 1403 2484 
z
M 1172 3481 
Q 1172 3119 1398 2916 
Q 1625 2713 2034 2713 
Q 2441 2713 2670 2916 
Q 2900 3119 2900 3481 
Q 2900 3844 2670 4047 
Q 2441 4250 2034 4250 
Q 1625 4250 1398 4047 
Q 1172 3844 1172 3481 
z
" transform="scale(0.015625)"/>
      </defs>
      <use xlink:href="#DejaVuSans-38"/>
     </g>
    </g>
   </g>
   <g id="text_10">
    <g clip-path="url(#pe912e96e92)">
     <!-- 9 -->
     <g transform="translate(286.298131 292.747257) scale(0.1 -0.1)">
      <defs>
       <path id="DejaVuSans-39" d="M 703 97 
L 703 672 
Q 941 559 1184 500 
Q 1428 441 1663 441 
Q 2288 441 2617 861 
Q 2947 1281 2994 2138 
Q 2813 1869 2534 1725 
Q 2256 1581 1919 1581 
Q 1219 1581 811 2004 
Q 403 2428 403 3163 
Q 403 3881 828 4315 
Q 1253 4750 1959 4750 
Q 2769 4750 3195 4129 
Q 3622 3509 3622 2328 
Q 3622 1225 3098 567 
Q 2575 -91 1691 -91 
Q 1453 -91 1209 -44 
Q 966 3 703 97 
z
M 1959 2075 
Q 2384 2075 2632 2365 
Q 2881 2656 2881 3163 
Q 2881 3666 2632 3958 
Q 2384 4250 1959 4250 
Q 1534 4250 1286 3958 
Q 1038 3666 1038 3163 
Q 1038 2656 1286 2365 
Q 1534 2075 1959 2075 
z
" transform="scale(0.015625)"/>
      </defs>
      <use xlink:href="#DejaVuSans-39"/>
     </g>
    </g>
   </g>
   <g id="text_11">
    <g clip-path="url(#pe912e96e92)">
     <!-- 10 -->
     <g transform="translate(331.256348 176.711333) scale(0.1 -0.1)">
      <use xlink:href="#DejaVuSans-31"/>
      <use xlink:href="#DejaVuSans-30" x="63.623047"/>
     </g>
    </g>
   </g>
   <g id="text_12">
    <g clip-path="url(#pe912e96e92)">
     <!-- 11 -->
     <g transform="translate(367.500817 123.239223) scale(0.1 -0.1)">
      <use xlink:href="#DejaVuSans-31"/>
      <use xlink:href="#DejaVuSans-31" x="63.623047"/>
     </g>
    </g>
   </g>
   <g id="text_13">
    <g clip-path="url(#pe912e96e92)">
     <!-- 12 -->
     <g transform="translate(307.068672 73.131011) scale(0.1 -0.1)">
      <use xlink:href="#DejaVuSans-31"/>
      <use xlink:href="#DejaVuSans-32" x="63.623047"/>
     </g>
    </g>
   </g>
   <g id="text_14">
    <g clip-path="url(#pe912e96e92)">
     <!-- 13 -->
     <g transform="translate(288.015099 123.270247) scale(0.1 -0.1)">
      <use xlink:href="#DejaVuSans-31"/>
      <use xlink:href="#DejaVuSans-33" x="63.623047"/>
     </g>
    </g>
   </g>
   <g id="text_15">
    <g clip-path="url(#pe912e96e92)">
     <!-- 14 -->
     <g transform="translate(387.811701 277.726921) scale(0.1 -0.1)">
      <use xlink:href="#DejaVuSans-31"/>
      <use xlink:href="#DejaVuSans-34" x="63.623047"/>
     </g>
    </g>
   </g>
   <g id="text_16">
    <g clip-path="url(#pe912e96e92)">
     <!-- 15 -->
     <g transform="translate(382.967022 318.369292) scale(0.1 -0.1)">
      <use xlink:href="#DejaVuSans-31"/>
      <use xlink:href="#DejaVuSans-35" x="63.623047"/>
     </g>
    </g>
   </g>
   <g id="text_17">
    <g clip-path="url(#pe912e96e92)">
     <!-- 16 -->
     <g transform="translate(360.791571 291.010315) scale(0.1 -0.1)">
      <use xlink:href="#DejaVuSans-31"/>
      <use xlink:href="#DejaVuSans-36" x="63.623047"/>
     </g>
    </g>
   </g>
   <g id="text_18">
    <g clip-path="url(#pe912e96e92)">
     <!-- 17 -->
     <g transform="translate(347.062779 236.9118) scale(0.1 -0.1)">
      <use xlink:href="#DejaVuSans-31"/>
      <use xlink:href="#DejaVuSans-37" x="63.623047"/>
     </g>
    </g>
   </g>
   <g id="text_19">
    <g clip-path="url(#pe912e96e92)">
     <!-- 18 -->
     <g transform="translate(360.531194 177.387391) scale(0.1 -0.1)">
      <use xlink:href="#DejaVuSans-31"/>
      <use xlink:href="#DejaVuSans-38" x="63.623047"/>
     </g>
    </g>
   </g>
   <g id="text_20">
    <g clip-path="url(#pe912e96e92)">
     <!-- 19 -->
     <g transform="translate(303.826446 197.024913) scale(0.1 -0.1)">
      <use xlink:href="#DejaVuSans-31"/>
      <use xlink:href="#DejaVuSans-39" x="63.623047"/>
     </g>
    </g>
   </g>
   <g id="text_21">
    <g clip-path="url(#pe912e96e92)">
     <!-- 20 -->
     <g transform="translate(14.582955 171.245528) scale(0.1 -0.1)">
      <use xlink:href="#DejaVuSans-32"/>
      <use xlink:href="#DejaVuSans-30" x="63.623047"/>
     </g>
    </g>
   </g>
   <g id="text_22">
    <g clip-path="url(#pe912e96e92)">
     <!-- 21 -->
     <g transform="translate(348.108255 81.809546) scale(0.1 -0.1)">
      <use xlink:href="#DejaVuSans-32"/>
      <use xlink:href="#DejaVuSans-31" x="63.623047"/>
     </g>
    </g>
   </g>
  </g>
 </g>
 <defs>
  <clipPath id="pe912e96e92">
   <rect x="0" y="0" width="460.8" height="345.6"/>
  </clipPath>
 </defs>
</svg>
