<?xml version="1.0" encoding="utf-8" standalone="no"?>
<!DOCTYPE svg PUBLIC "-//W3C//DTD SVG 1.1//EN"
  "http://www.w3.org/Graphics/SVG/1.1/DTD/svg11.dtd">
<svg xmlns:xlink="http://www.w3.org/1999/xlink" width="460.8pt" height="345.6pt" viewBox="0 0 460.8 345.6" xmlns="http://www.w3.org/2000/svg" version="1.1">
 <metadata>
  <rdf:RDF xmlns:dc="http://purl.org/dc/elements/1.1/" xmlns:cc="http://creativecommons.org/ns#" xmlns:rdf="http://www.w3.org/1999/02/22-rdf-syntax-ns#">
   <cc:Work>
    <dc:type rdf:resource="http://purl.org/dc/dcmitype/StillImage"/>
    <dc:date>2023-10-10T10:55:14.946792</dc:date>
    <dc:format>image/svg+xml</dc:format>
    <dc:creator>
     <cc:Agent>
      <dc:title>Matplotlib v3.6.1, https://matplotlib.org/</dc:title>
     </cc:Agent>
    </dc:creator>
   </cc:Work>
  </rdf:RDF>
 </metadata>
 <defs>
  <style type="text/css">*{stroke-linejoin: round; stroke-linecap: butt}</style>
 </defs>
 <g id="figure_1">
  <g id="patch_1">
   <path d="M 0 345.6 
L 460.8 345.6 
L 460.8 0 
L 0 0 
z
" style="fill: #ffffff"/>
  </g>
  <g id="axes_1">
   <g id="patch_2">
    <path d="M 291.016058 37.902271 
Q 255.999204 70.325154 221.80272 101.988437 
" clip-path="url(#p76f96d5aed)" style="fill: none; stroke: #000000; stroke-linecap: round"/>
    <path d="M 226.096581 100.738335 
L 221.80272 101.988437 
L 223.378955 97.803287 
L 226.096581 100.738335 
z
" clip-path="url(#p76f96d5aed)" style="stroke: #000000; stroke-linecap: round"/>
   </g>
   <g id="patch_3">
    <path d="M 290.851292 37.698273 
Q 245.282104 69.646268 200.628378 100.952443 
" clip-path="url(#p76f96d5aed)" style="fill: none; stroke: #000000; stroke-linecap: round"/>
    <path d="M 205.051751 100.293831 
L 200.628378 100.952443 
L 202.755511 97.018577 
L 205.051751 100.293831 
z
" clip-path="url(#p76f96d5aed)" style="stroke: #000000; stroke-linecap: round"/>
   </g>
   <g id="patch_4">
    <path d="M 225.660226 36.954864 
Q 222.699152 69.544061 219.839246 101.019811 
" clip-path="url(#p76f96d5aed)" style="fill: none; stroke: #000000; stroke-linecap: round"/>
    <path d="M 222.192992 97.217196 
L 219.839246 101.019811 
L 218.209402 96.855245 
L 222.192992 97.217196 
z
" clip-path="url(#p76f96d5aed)" style="stroke: #000000; stroke-linecap: round"/>
   </g>
   <g id="patch_5">
    <path d="M 225.102862 36.817925 
Q 211.980502 68.867784 199.281771 99.882975 
" clip-path="url(#p76f96d5aed)" style="fill: none; stroke: #000000; stroke-linecap: round"/>
    <path d="M 202.648266 96.939047 
L 199.281771 99.882975 
L 198.946526 95.423422 
L 202.648266 96.939047 
z
" clip-path="url(#p76f96d5aed)" style="stroke: #000000; stroke-linecap: round"/>
   </g>
   <g id="patch_6">
    <path d="M 282.198013 145.557039 
Q 251.688956 125.345389 222.111957 105.751209 
" clip-path="url(#p76f96d5aed)" style="fill: none; stroke: #000000; stroke-linecap: round"/>
    <path d="M 224.342023 109.627651 
L 222.111957 105.751209 
L 226.55115 106.293021 
L 224.342023 109.627651 
z
" clip-path="url(#p76f96d5aed)" style="stroke: #000000; stroke-linecap: round"/>
   </g>
   <g id="patch_7">
    <path d="M 282.086472 145.741505 
Q 240.968154 124.666298 200.844791 104.101056 
" clip-path="url(#p76f96d5aed)" style="fill: none; stroke: #000000; stroke-linecap: round"/>
    <path d="M 203.492199 107.705391 
L 200.844791 104.101056 
L 205.316704 104.14573 
L 203.492199 107.705391 
z
" clip-path="url(#p76f96d5aed)" style="stroke: #000000; stroke-linecap: round"/>
   </g>
   <g id="patch_8">
    <path d="M 352.425647 126.897892 
Q 286.94909 115.64428 222.57441 104.580051 
" clip-path="url(#p76f96d5aed)" style="fill: none; stroke: #000000; stroke-linecap: round"/>
    <path d="M 226.17783 107.228705 
L 222.57441 104.580051 
L 226.855385 103.286507 
L 226.17783 107.228705 
z
" clip-path="url(#p76f96d5aed)" style="stroke: #000000; stroke-linecap: round"/>
   </g>
   <g id="patch_9">
    <path d="M 352.426539 126.92655 
Q 276.234238 114.967304 201.146448 103.181424 
" clip-path="url(#p76f96d5aed)" style="fill: none; stroke: #000000; stroke-linecap: round"/>
    <path d="M 204.787941 105.777485 
L 201.146448 103.181424 
L 205.408192 101.825866 
L 204.787941 105.777485 
z
" clip-path="url(#p76f96d5aed)" style="stroke: #000000; stroke-linecap: round"/>
   </g>
   <g id="patch_10">
    <path d="M 220.983895 102.746606 
Q 256.000749 70.323723 290.197233 38.66044 
" clip-path="url(#p76f96d5aed)" style="fill: none; stroke: #000000; stroke-linecap: round"/>
    <path d="M 285.903371 39.910542 
L 290.197233 38.66044 
L 288.620998 42.84559 
L 285.903371 39.910542 
z
" clip-path="url(#p76f96d5aed)" style="stroke: #000000; stroke-linecap: round"/>
   </g>
   <g id="patch_11">
    <path d="M 219.737747 102.136892 
Q 222.698821 69.547694 225.558727 38.071944 
" clip-path="url(#p76f96d5aed)" style="fill: none; stroke: #000000; stroke-linecap: round"/>
    <path d="M 223.204981 41.874559 
L 225.558727 38.071944 
L 227.188571 42.23651 
L 223.204981 41.874559 
z
" clip-path="url(#p76f96d5aed)" style="stroke: #000000; stroke-linecap: round"/>
   </g>
   <g id="patch_12">
    <path d="M 221.174453 105.130131 
Q 251.68351 125.341781 281.260509 144.935961 
" clip-path="url(#p76f96d5aed)" style="fill: none; stroke: #000000; stroke-linecap: round"/>
    <path d="M 279.030443 141.059519 
L 281.260509 144.935961 
L 276.821316 144.394149 
L 279.030443 141.059519 
z
" clip-path="url(#p76f96d5aed)" style="stroke: #000000; stroke-linecap: round"/>
   </g>
   <g id="patch_13">
    <path d="M 221.475345 104.391152 
Q 286.951902 115.644764 351.326582 126.708993 
" clip-path="url(#p76f96d5aed)" style="fill: none; stroke: #000000; stroke-linecap: round"/>
    <path d="M 347.723162 124.06034 
L 351.326582 126.708993 
L 347.045607 128.002537 
L 347.723162 124.06034 
z
" clip-path="url(#p76f96d5aed)" style="stroke: #000000; stroke-linecap: round"/>
   </g>
   <g id="patch_14">
    <path d="M 217.628926 103.940185 
Q 208.841395 103.384667 201.169671 102.899686 
" clip-path="url(#p76f96d5aed)" style="fill: none; stroke: #000000; stroke-linecap: round"/>
    <path d="M 205.03552 105.148065 
L 201.169671 102.899686 
L 205.287883 101.156033 
L 205.03552 105.148065 
z
" clip-path="url(#p76f96d5aed)" style="stroke: #000000; stroke-linecap: round"/>
   </g>
   <g id="patch_15">
    <path d="M 218.5407 105.706209 
Q 191.419194 149.324214 164.888056 191.992763 
" clip-path="url(#p76f96d5aed)" style="fill: none; stroke: #000000; stroke-linecap: round"/>
    <path d="M 168.698658 189.651969 
L 164.888056 191.992763 
L 165.301782 187.539805 
L 168.698658 189.651969 
z
" clip-path="url(#p76f96d5aed)" style="stroke: #000000; stroke-linecap: round"/>
   </g>
   <g id="patch_16">
    <path d="M 217.634652 103.849422 
Q 144.876989 95.811387 73.2306 87.896121 
" clip-path="url(#p76f96d5aed)" style="fill: none; stroke: #000000; stroke-linecap: round"/>
    <path d="M 76.986793 90.323262 
L 73.2306 87.896121 
L 77.426028 86.347451 
L 76.986793 90.323262 
z
" clip-path="url(#p76f96d5aed)" style="stroke: #000000; stroke-linecap: round"/>
   </g>
   <g id="patch_17">
    <path d="M 219.905004 105.966905 
Q 230.12138 162.822562 240.140023 218.57781 
" clip-path="url(#p76f96d5aed)" style="fill: none; stroke: #000000; stroke-linecap: round"/>
    <path d="M 241.401067 214.28715 
L 240.140023 218.57781 
L 237.464121 214.994578 
L 241.401067 214.28715 
z
" clip-path="url(#p76f96d5aed)" style="stroke: #000000; stroke-linecap: round"/>
   </g>
   <g id="patch_18">
    <path d="M 217.696277 104.588464 
Q 159.482262 120.994517 102.344363 137.097296 
" clip-path="url(#p76f96d5aed)" style="fill: none; stroke: #000000; stroke-linecap: round"/>
    <path d="M 106.736905 137.937283 
L 102.344363 137.097296 
L 105.651878 134.087255 
L 106.736905 137.937283 
z
" clip-path="url(#p76f96d5aed)" style="stroke: #000000; stroke-linecap: round"/>
   </g>
   <g id="patch_19">
    <path d="M 221.339646 103.29137 
Q 258.851565 87.013065 295.337858 71.179831 
" clip-path="url(#p76f96d5aed)" style="fill: none; stroke: #000000; stroke-linecap: round"/>
    <path d="M 290.872294 70.937468 
L 295.337858 71.179831 
L 292.464629 74.606865 
L 290.872294 70.937468 
z
" clip-path="url(#p76f96d5aed)" style="stroke: #000000; stroke-linecap: round"/>
   </g>
   <g id="patch_20">
    <path d="M 217.631012 104.169433 
Q 129.775236 109.03552 43.035783 113.839778 
" clip-path="url(#p76f96d5aed)" style="fill: none; stroke: #000000; stroke-linecap: round"/>
    <path d="M 47.140267 115.615507 
L 43.035783 113.839778 
L 46.919057 111.621629 
L 47.140267 115.615507 
z
" clip-path="url(#p76f96d5aed)" style="stroke: #000000; stroke-linecap: round"/>
   </g>
   <g id="patch_21">
    <path d="M 218.390027 102.52303 
Q 191.34719 67.025758 164.981887 32.417838 
" clip-path="url(#p76f96d5aed)" style="fill: none; stroke: #000000; stroke-linecap: round"/>
    <path d="M 165.814985 36.811692 
L 164.981887 32.417838 
L 168.996828 34.387672 
L 165.814985 36.811692 
z
" clip-path="url(#p76f96d5aed)" style="stroke: #000000; stroke-linecap: round"/>
   </g>
   <g id="patch_22">
    <path d="M 217.690062 103.563264 
Q 137.63197 82.223913 58.654194 61.172518 
" clip-path="url(#p76f96d5aed)" style="fill: none; stroke: #000000; stroke-linecap: round"/>
    <path d="M 62.004135 64.135269 
L 58.654194 61.172518 
L 63.034359 60.270215 
L 62.004135 64.135269 
z
" clip-path="url(#p76f96d5aed)" style="stroke: #000000; stroke-linecap: round"/>
   </g>
   <g id="patch_23">
    <path d="M 221.418255 103.510996 
Q 291.770512 82.602405 361.051063 62.012323 
" clip-path="url(#p76f96d5aed)" style="fill: none; stroke: #000000; stroke-linecap: round"/>
    <path d="M 356.647047 61.234732 
L 361.051063 62.012323 
L 357.78658 65.06898 
L 356.647047 61.234732 
z
" clip-path="url(#p76f96d5aed)" style="stroke: #000000; stroke-linecap: round"/>
   </g>
   <g id="patch_24">
    <path d="M 217.86065 103.133443 
Q 168.94741 76.437593 121.015553 50.277362 
" clip-path="url(#p76f96d5aed)" style="fill: none; stroke: #000000; stroke-linecap: round"/>
    <path d="M 123.568511 53.949201 
L 121.015553 50.277362 
L 125.484799 50.438099 
L 123.568511 53.949201 
z
" clip-path="url(#p76f96d5aed)" style="stroke: #000000; stroke-linecap: round"/>
   </g>
   <g id="patch_25">
    <path d="M 221.494012 103.962826 
Q 296.173983 100.110882 369.737405 96.316528 
" clip-path="url(#p76f96d5aed)" style="fill: none; stroke: #000000; stroke-linecap: round"/>
    <path d="M 365.639693 94.525227 
L 369.737405 96.316528 
L 365.845737 98.519917 
L 365.639693 94.525227 
z
" clip-path="url(#p76f96d5aed)" style="stroke: #000000; stroke-linecap: round"/>
   </g>
   <g id="patch_26">
    <path d="M 418.93043 265.377904 
Q 330.745313 243.713369 243.645945 222.31557 
" clip-path="url(#p76f96d5aed)" style="fill: none; stroke: #000000; stroke-linecap: round"/>
    <path d="M 247.053285 225.212125 
L 243.645945 222.31557 
L 248.007593 221.327631 
L 247.053285 225.212125 
z
" clip-path="url(#p76f96d5aed)" style="stroke: #000000; stroke-linecap: round"/>
   </g>
   <g id="patch_27">
    <path d="M 199.711286 101.595405 
Q 245.280473 69.647411 289.9342 38.341235 
" clip-path="url(#p76f96d5aed)" style="fill: none; stroke: #000000; stroke-linecap: round"/>
    <path d="M 285.510827 38.999848 
L 289.9342 38.341235 
L 287.807066 42.275102 
L 285.510827 38.999848 
z
" clip-path="url(#p76f96d5aed)" style="stroke: #000000; stroke-linecap: round"/>
   </g>
   <g id="patch_28">
    <path d="M 198.857736 100.918632 
Q 211.980097 68.868773 224.678827 37.853582 
" clip-path="url(#p76f96d5aed)" style="fill: none; stroke: #000000; stroke-linecap: round"/>
    <path d="M 221.312332 40.79751 
L 224.678827 37.853582 
L 225.014072 42.313135 
L 221.312332 40.79751 
z
" clip-path="url(#p76f96d5aed)" style="stroke: #000000; stroke-linecap: round"/>
   </g>
   <g id="patch_29">
    <path d="M 199.84862 103.590467 
Q 240.966937 124.665674 281.0903 145.230917 
" clip-path="url(#p76f96d5aed)" style="fill: none; stroke: #000000; stroke-linecap: round"/>
    <path d="M 278.442892 141.626581 
L 281.0903 145.230917 
L 276.618387 145.186242 
L 278.442892 141.626581 
z
" clip-path="url(#p76f96d5aed)" style="stroke: #000000; stroke-linecap: round"/>
   </g>
   <g id="patch_30">
    <path d="M 200.037078 103.007296 
Q 276.229379 114.966542 351.317169 126.752422 
" clip-path="url(#p76f96d5aed)" style="fill: none; stroke: #000000; stroke-linecap: round"/>
    <path d="M 347.675676 124.156361 
L 351.317169 126.752422 
L 347.055425 128.10798 
L 347.675676 124.156361 
z
" clip-path="url(#p76f96d5aed)" style="stroke: #000000; stroke-linecap: round"/>
   </g>
   <g id="patch_31">
    <path d="M 200.059281 102.829491 
Q 208.846812 103.385009 216.518537 103.86999 
" clip-path="url(#p76f96d5aed)" style="fill: none; stroke: #000000; stroke-linecap: round"/>
    <path d="M 212.652687 101.621611 
L 216.518537 103.86999 
L 212.400324 105.613642 
L 212.652687 101.621611 
z
" clip-path="url(#p76f96d5aed)" style="stroke: #000000; stroke-linecap: round"/>
   </g>
   <g id="patch_32">
    <path d="M 197.439405 104.515819 
Q 180.700213 148.646524 164.357536 191.73187 
" clip-path="url(#p76f96d5aed)" style="fill: none; stroke: #000000; stroke-linecap: round"/>
    <path d="M 167.646146 188.701186 
L 164.357536 191.73187 
L 163.906155 187.282572 
L 167.646146 188.701186 
z
" clip-path="url(#p76f96d5aed)" style="stroke: #000000; stroke-linecap: round"/>
   </g>
   <g id="patch_33">
    <path d="M 196.200728 102.479363 
Q 134.162651 95.134275 73.234853 87.920641 
" clip-path="url(#p76f96d5aed)" style="fill: none; stroke: #000000; stroke-linecap: round"/>
    <path d="M 76.971958 90.37707 
L 73.234853 87.920641 
L 77.442259 86.404814 
L 76.971958 90.37707 
z
" clip-path="url(#p76f96d5aed)" style="stroke: #000000; stroke-linecap: round"/>
   </g>
   <g id="patch_34">
    <path d="M 198.778655 104.532086 
Q 219.402988 162.146892 239.650514 218.709075 
" clip-path="url(#p76f96d5aed)" style="fill: none; stroke: #000000; stroke-linecap: round"/>
    <path d="M 240.185399 214.269041 
L 239.650514 218.709075 
L 236.419418 215.617147 
L 240.185399 214.269041 
z
" clip-path="url(#p76f96d5aed)" style="stroke: #000000; stroke-linecap: round"/>
   </g>
   <g id="patch_35">
    <path d="M 196.30267 103.357498 
Q 148.764548 120.316575 102.279457 136.899986 
" clip-path="url(#p76f96d5aed)" style="fill: none; stroke: #000000; stroke-linecap: round"/>
    <path d="M 106.718908 137.439684 
L 102.279457 136.899986 
L 105.374886 133.672244 
L 106.718908 137.439684 
z
" clip-path="url(#p76f96d5aed)" style="stroke: #000000; stroke-linecap: round"/>
   </g>
   <g id="patch_36">
    <path d="M 199.965852 102.10471 
Q 248.130495 86.336389 295.232598 70.915927 
" clip-path="url(#p76f96d5aed)" style="fill: none; stroke: #000000; stroke-linecap: round"/>
    <path d="M 290.808865 70.259732 
L 295.232598 70.915927 
L 292.053403 74.061196 
L 290.808865 70.259732 
z
" clip-path="url(#p76f96d5aed)" style="stroke: #000000; stroke-linecap: round"/>
   </g>
   <g id="patch_37">
    <path d="M 196.190187 102.845541 
Q 119.053789 108.358111 43.032581 113.790985 
" clip-path="url(#p76f96d5aed)" style="fill: none; stroke: #000000; stroke-linecap: round"/>
    <path d="M 47.164973 115.500763 
L 43.032581 113.790985 
L 46.879839 111.510939 
L 47.164973 115.500763 
z
" clip-path="url(#p76f96d5aed)" style="stroke: #000000; stroke-linecap: round"/>
   </g>
   <g id="patch_38">
    <path d="M 197.286044 100.962986 
Q 180.629241 66.3494 164.457245 32.743268 
" clip-path="url(#p76f96d5aed)" style="fill: none; stroke: #000000; stroke-linecap: round"/>
    <path d="M 164.389561 37.214892 
L 164.457245 32.743268 
L 167.993934 35.48039 
L 164.389561 37.214892 
z
" clip-path="url(#p76f96d5aed)" style="stroke: #000000; stroke-linecap: round"/>
   </g>
   <g id="patch_39">
    <path d="M 196.269506 102.155748 
Q 126.914875 81.546762 58.631962 61.256241 
" clip-path="url(#p76f96d5aed)" style="fill: none; stroke: #000000; stroke-linecap: round"/>
    <path d="M 61.89657 64.312764 
L 58.631962 61.256241 
L 63.035945 60.478468 
L 61.89657 64.312764 
z
" clip-path="url(#p76f96d5aed)" style="stroke: #000000; stroke-linecap: round"/>
   </g>
   <g id="patch_40">
    <path d="M 200.005762 102.235999 
Q 281.053608 81.924306 361.016958 61.884402 
" clip-path="url(#p76f96d5aed)" style="fill: none; stroke: #000000; stroke-linecap: round"/>
    <path d="M 356.650757 60.916781 
L 361.016958 61.884402 
L 357.62314 64.79679 
L 356.650757 60.916781 
z
" clip-path="url(#p76f96d5aed)" style="stroke: #000000; stroke-linecap: round"/>
   </g>
   <g id="patch_41">
    <path d="M 196.520772 101.62341 
Q 158.231451 75.761557 120.868625 50.525488 
" clip-path="url(#p76f96d5aed)" style="fill: none; stroke: #000000; stroke-linecap: round"/>
    <path d="M 123.063917 54.42173 
L 120.868625 50.525488 
L 125.302793 51.107 
L 123.063917 54.42173 
z
" clip-path="url(#p76f96d5aed)" style="stroke: #000000; stroke-linecap: round"/>
   </g>
   <g id="patch_42">
    <path d="M 200.062979 102.6346 
Q 285.457181 99.433188 369.734135 96.273662 
" clip-path="url(#p76f96d5aed)" style="fill: none; stroke: #000000; stroke-linecap: round"/>
    <path d="M 365.662016 94.42492 
L 369.734135 96.273662 
L 365.81187 98.422112 
L 365.662016 94.42492 
z
" clip-path="url(#p76f96d5aed)" style="stroke: #000000; stroke-linecap: round"/>
   </g>
   <g id="patch_43">
    <path d="M 164.296008 192.944921 
Q 191.417514 149.326916 217.948652 106.658367 
" clip-path="url(#p76f96d5aed)" style="fill: none; stroke: #000000; stroke-linecap: round"/>
    <path d="M 214.13805 108.99916 
L 217.948652 106.658367 
L 217.534926 111.111324 
L 214.13805 108.99916 
z
" clip-path="url(#p76f96d5aed)" style="stroke: #000000; stroke-linecap: round"/>
   </g>
   <g id="patch_44">
    <path d="M 163.959928 192.780113 
Q 180.69912 148.649408 197.041797 105.564061 
" clip-path="url(#p76f96d5aed)" style="fill: none; stroke: #000000; stroke-linecap: round"/>
    <path d="M 193.753187 108.594746 
L 197.041797 105.564061 
L 197.493178 110.01336 
L 193.753187 108.594746 
z
" clip-path="url(#p76f96d5aed)" style="stroke: #000000; stroke-linecap: round"/>
   </g>
   <g id="patch_45">
    <path d="M 161.545696 195.468237 
Q 118.399912 217.426447 76.250543 238.877551 
" clip-path="url(#p76f96d5aed)" style="fill: none; stroke: #000000; stroke-linecap: round"/>
    <path d="M 80.722565 238.845714 
L 76.250543 238.877551 
L 78.908287 235.280831 
L 80.722565 238.845714 
z
" clip-path="url(#p76f96d5aed)" style="stroke: #000000; stroke-linecap: round"/>
   </g>
   <g id="patch_46">
    <path d="M 164.359558 196.19227 
Q 186.019022 228.185004 207.051698 259.251922 
" clip-path="url(#p76f96d5aed)" style="fill: none; stroke: #000000; stroke-linecap: round"/>
    <path d="M 206.465381 254.818387 
L 207.051698 259.251922 
L 203.15308 257.060854 
L 206.465381 254.818387 
z
" clip-path="url(#p76f96d5aed)" style="stroke: #000000; stroke-linecap: round"/>
   </g>
   <g id="patch_47">
    <path d="M 162.330323 196.282849 
Q 143.900725 229.371877 126.015149 261.484155 
" clip-path="url(#p76f96d5aed)" style="fill: none; stroke: #000000; stroke-linecap: round"/>
    <path d="M 129.708761 258.9628 
L 126.015149 261.484155 
L 126.214232 257.016453 
L 129.708761 258.9628 
z
" clip-path="url(#p76f96d5aed)" style="stroke: #000000; stroke-linecap: round"/>
   </g>
   <g id="patch_48">
    <path d="M 165.104676 195.227236 
Q 201.977079 208.087811 237.793817 220.580185 
" clip-path="url(#p76f96d5aed)" style="fill: none; stroke: #000000; stroke-linecap: round"/>
    <path d="M 234.675614 217.374438 
L 237.793817 220.580185 
L 233.358298 221.151299 
L 234.675614 217.374438 
z
" clip-path="url(#p76f96d5aed)" style="stroke: #000000; stroke-linecap: round"/>
   </g>
   <g id="patch_49">
    <path d="M 237.453797 313.673107 
Q 239.033354 268.598237 240.573756 224.640715 
" clip-path="url(#p76f96d5aed)" style="fill: none; stroke: #000000; stroke-linecap: round"/>
    <path d="M 238.434897 228.568219 
L 240.573756 224.640715 
L 242.432443 228.708304 
L 238.434897 228.568219 
z
" clip-path="url(#p76f96d5aed)" style="stroke: #000000; stroke-linecap: round"/>
   </g>
   <g id="patch_50">
    <path d="M 346.732931 298.894681 
Q 294.488451 260.810652 243.147441 223.385215 
" clip-path="url(#p76f96d5aed)" style="fill: none; stroke: #000000; stroke-linecap: round"/>
    <path d="M 245.201668 227.357639 
L 243.147441 223.385215 
L 247.557916 224.125287 
L 245.201668 227.357639 
z
" clip-path="url(#p76f96d5aed)" style="stroke: #000000; stroke-linecap: round"/>
   </g>
   <g id="patch_51">
    <path d="M 75.255174 239.384124 
Q 118.400958 217.425915 160.550327 195.974811 
" clip-path="url(#p76f96d5aed)" style="fill: none; stroke: #000000; stroke-linecap: round"/>
    <path d="M 156.078304 196.006647 
L 160.550327 195.974811 
L 157.892583 199.571531 
L 156.078304 196.006647 
z
" clip-path="url(#p76f96d5aed)" style="stroke: #000000; stroke-linecap: round"/>
   </g>
   <g id="patch_52">
    <path d="M 75.452629 240.048508 
Q 157.104866 230.925277 237.645982 221.926195 
" clip-path="url(#p76f96d5aed)" style="fill: none; stroke: #000000; stroke-linecap: round"/>
    <path d="M 233.448635 220.382731 
L 237.645982 221.926195 
L 233.892803 224.357994 
L 233.448635 220.382731 
z
" clip-path="url(#p76f96d5aed)" style="stroke: #000000; stroke-linecap: round"/>
   </g>
   <g id="patch_53">
    <path d="M 207.679682 260.179502 
Q 186.020217 228.186768 164.987541 197.119851 
" clip-path="url(#p76f96d5aed)" style="fill: none; stroke: #000000; stroke-linecap: round"/>
    <path d="M 165.573858 201.553385 
L 164.987541 197.119851 
L 168.886159 199.310918 
L 165.573858 201.553385 
z
" clip-path="url(#p76f96d5aed)" style="stroke: #000000; stroke-linecap: round"/>
   </g>
   <g id="patch_54">
    <path d="M 209.971112 260.264445 
Q 224.723328 241.684736 238.780324 223.980622 
" clip-path="url(#p76f96d5aed)" style="fill: none; stroke: #000000; stroke-linecap: round"/>
    <path d="M 234.726715 225.869604 
L 238.780324 223.980622 
L 237.859344 228.356899 
L 234.726715 225.869604 
z
" clip-path="url(#p76f96d5aed)" style="stroke: #000000; stroke-linecap: round"/>
   </g>
   <g id="patch_55">
    <path d="M 125.471035 262.461074 
Q 143.900632 229.372045 161.786208 197.259767 
" clip-path="url(#p76f96d5aed)" style="fill: none; stroke: #000000; stroke-linecap: round"/>
    <path d="M 158.092596 199.781122 
L 161.786208 197.259767 
L 161.587125 201.72747 
L 158.092596 199.781122 
z
" clip-path="url(#p76f96d5aed)" style="stroke: #000000; stroke-linecap: round"/>
   </g>
   <g id="patch_56">
    <path d="M 126.345881 263.488804 
Q 182.604379 242.871069 237.813119 222.638051 
" clip-path="url(#p76f96d5aed)" style="fill: none; stroke: #000000; stroke-linecap: round"/>
    <path d="M 233.369186 222.136594 
L 237.813119 222.638051 
L 234.745594 225.892323 
L 233.369186 222.136594 
z
" clip-path="url(#p76f96d5aed)" style="stroke: #000000; stroke-linecap: round"/>
   </g>
   <g id="patch_57">
    <path d="M 72.12622 87.774113 
Q 144.883882 95.812148 216.530271 103.727414 
" clip-path="url(#p76f96d5aed)" style="fill: none; stroke: #000000; stroke-linecap: round"/>
    <path d="M 212.774078 101.300273 
L 216.530271 103.727414 
L 212.334843 105.276084 
L 212.774078 101.300273 
z
" clip-path="url(#p76f96d5aed)" style="stroke: #000000; stroke-linecap: round"/>
   </g>
   <g id="patch_58">
    <path d="M 72.122768 87.788974 
Q 134.160846 95.134062 195.088644 102.347696 
" clip-path="url(#p76f96d5aed)" style="fill: none; stroke: #000000; stroke-linecap: round"/>
    <path d="M 191.351538 99.891267 
L 195.088644 102.347696 
L 190.881238 103.863523 
L 191.351538 99.891267 
z
" clip-path="url(#p76f96d5aed)" style="stroke: #000000; stroke-linecap: round"/>
   </g>
   <g id="patch_59">
    <path d="M 240.33855 219.682643 
Q 230.122174 162.826985 220.103531 107.071738 
" clip-path="url(#p76f96d5aed)" style="fill: none; stroke: #000000; stroke-linecap: round"/>
    <path d="M 218.842487 111.362398 
L 220.103531 107.071738 
L 222.779433 110.654969 
L 218.842487 111.362398 
z
" clip-path="url(#p76f96d5aed)" style="stroke: #000000; stroke-linecap: round"/>
   </g>
   <g id="patch_60">
    <path d="M 242.563556 222.049659 
Q 330.748673 243.714194 417.848041 265.111992 
" clip-path="url(#p76f96d5aed)" style="fill: none; stroke: #000000; stroke-linecap: round"/>
    <path d="M 414.440701 262.215437 
L 417.848041 265.111992 
L 413.486393 266.099932 
L 414.440701 262.215437 
z
" clip-path="url(#p76f96d5aed)" style="stroke: #000000; stroke-linecap: round"/>
   </g>
   <g id="patch_61">
    <path d="M 240.027524 219.762264 
Q 219.403191 162.147458 199.155665 105.585275 
" clip-path="url(#p76f96d5aed)" style="fill: none; stroke: #000000; stroke-linecap: round"/>
    <path d="M 198.62078 110.025309 
L 199.155665 105.585275 
L 202.386761 108.677203 
L 198.62078 110.025309 
z
" clip-path="url(#p76f96d5aed)" style="stroke: #000000; stroke-linecap: round"/>
   </g>
   <g id="patch_62">
    <path d="M 238.850004 220.948568 
Q 201.977601 208.087993 166.160862 195.595619 
" clip-path="url(#p76f96d5aed)" style="fill: none; stroke: #000000; stroke-linecap: round"/>
    <path d="M 169.279065 198.801365 
L 166.160862 195.595619 
L 170.596381 195.024504 
L 169.279065 198.801365 
z
" clip-path="url(#p76f96d5aed)" style="stroke: #000000; stroke-linecap: round"/>
   </g>
   <g id="patch_63">
    <path d="M 240.612891 223.523921 
Q 239.033334 268.598791 237.492933 312.556313 
" clip-path="url(#p76f96d5aed)" style="fill: none; stroke: #000000; stroke-linecap: round"/>
    <path d="M 239.631792 308.628809 
L 237.492933 312.556313 
L 235.634245 308.488724 
L 239.631792 308.628809 
z
" clip-path="url(#p76f96d5aed)" style="stroke: #000000; stroke-linecap: round"/>
   </g>
   <g id="patch_64">
    <path d="M 242.247357 222.729092 
Q 294.491837 260.813121 345.832847 298.238558 
" clip-path="url(#p76f96d5aed)" style="fill: none; stroke: #000000; stroke-linecap: round"/>
    <path d="M 343.77862 294.266134 
L 345.832847 298.238558 
L 341.422372 297.498486 
L 343.77862 294.266134 
z
" clip-path="url(#p76f96d5aed)" style="stroke: #000000; stroke-linecap: round"/>
   </g>
   <g id="patch_65">
    <path d="M 238.755087 221.802272 
Q 157.10285 230.925502 76.561734 239.924584 
" clip-path="url(#p76f96d5aed)" style="fill: none; stroke: #000000; stroke-linecap: round"/>
    <path d="M 80.759081 241.468049 
L 76.561734 239.924584 
L 80.314913 237.492786 
L 80.759081 241.468049 
z
" clip-path="url(#p76f96d5aed)" style="stroke: #000000; stroke-linecap: round"/>
   </g>
   <g id="patch_66">
    <path d="M 239.474973 223.105745 
Q 224.722757 241.685455 210.665762 259.389568 
" clip-path="url(#p76f96d5aed)" style="fill: none; stroke: #000000; stroke-linecap: round"/>
    <path d="M 214.719371 257.500586 
L 210.665762 259.389568 
L 211.586742 255.013291 
L 214.719371 257.500586 
z
" clip-path="url(#p76f96d5aed)" style="stroke: #000000; stroke-linecap: round"/>
   </g>
   <g id="patch_67">
    <path d="M 238.862323 222.253537 
Q 182.603824 242.871272 127.395084 263.104289 
" clip-path="url(#p76f96d5aed)" style="fill: none; stroke: #000000; stroke-linecap: round"/>
    <path d="M 131.839017 263.605746 
L 127.395084 263.104289 
L 130.46261 259.850017 
L 131.839017 263.605746 
z
" clip-path="url(#p76f96d5aed)" style="stroke: #000000; stroke-linecap: round"/>
   </g>
   <g id="patch_68">
    <path d="M 101.26836 137.400538 
Q 159.482375 120.994485 216.620275 104.891706 
" clip-path="url(#p76f96d5aed)" style="fill: none; stroke: #000000; stroke-linecap: round"/>
    <path d="M 212.227733 104.051719 
L 216.620275 104.891706 
L 213.31276 107.901747 
L 212.227733 104.051719 
z
" clip-path="url(#p76f96d5aed)" style="stroke: #000000; stroke-linecap: round"/>
   </g>
   <g id="patch_69">
    <path d="M 101.224593 137.276306 
Q 148.762715 120.317229 195.247806 103.733818 
" clip-path="url(#p76f96d5aed)" style="fill: none; stroke: #000000; stroke-linecap: round"/>
    <path d="M 190.808355 103.19412 
L 195.247806 103.733818 
L 192.152377 106.96156 
L 190.808355 103.19412 
z
" clip-path="url(#p76f96d5aed)" style="stroke: #000000; stroke-linecap: round"/>
   </g>
   <g id="patch_70">
    <path d="M 296.360803 70.735924 
Q 258.848884 87.014229 222.362591 102.847463 
" clip-path="url(#p76f96d5aed)" style="fill: none; stroke: #000000; stroke-linecap: round"/>
    <path d="M 226.828155 103.089826 
L 222.362591 102.847463 
L 225.23582 99.42043 
L 226.828155 103.089826 
z
" clip-path="url(#p76f96d5aed)" style="stroke: #000000; stroke-linecap: round"/>
   </g>
   <g id="patch_71">
    <path d="M 296.297223 70.567386 
Q 248.132579 86.335707 201.030477 101.756169 
" clip-path="url(#p76f96d5aed)" style="fill: none; stroke: #000000; stroke-linecap: round"/>
    <path d="M 205.454209 102.412364 
L 201.030477 101.756169 
L 204.209672 98.6109 
L 205.454209 102.412364 
z
" clip-path="url(#p76f96d5aed)" style="stroke: #000000; stroke-linecap: round"/>
   </g>
   <g id="patch_72">
    <path d="M 41.918556 113.901658 
Q 129.774332 109.03557 216.513785 104.231313 
" clip-path="url(#p76f96d5aed)" style="fill: none; stroke: #000000; stroke-linecap: round"/>
    <path d="M 212.409301 102.455583 
L 216.513785 104.231313 
L 212.630511 106.449462 
L 212.409301 102.455583 
z
" clip-path="url(#p76f96d5aed)" style="stroke: #000000; stroke-linecap: round"/>
   </g>
   <g id="patch_73">
    <path d="M 41.922006 113.870352 
Q 119.058404 108.357782 195.079612 102.924908 
" clip-path="url(#p76f96d5aed)" style="fill: none; stroke: #000000; stroke-linecap: round"/>
    <path d="M 190.947221 101.21513 
L 195.079612 102.924908 
L 191.232354 105.204954 
L 190.947221 101.21513 
z
" clip-path="url(#p76f96d5aed)" style="stroke: #000000; stroke-linecap: round"/>
   </g>
   <g id="patch_74">
    <path d="M 164.305117 31.529489 
Q 191.347954 67.026761 217.713257 101.634681 
" clip-path="url(#p76f96d5aed)" style="fill: none; stroke: #000000; stroke-linecap: round"/>
    <path d="M 216.88016 97.240828 
L 217.713257 101.634681 
L 213.698316 99.664847 
L 216.88016 97.240828 
z
" clip-path="url(#p76f96d5aed)" style="stroke: #000000; stroke-linecap: round"/>
   </g>
   <g id="patch_75">
    <path d="M 163.971725 31.734336 
Q 180.628529 66.347921 196.800524 99.954054 
" clip-path="url(#p76f96d5aed)" style="fill: none; stroke: #000000; stroke-linecap: round"/>
    <path d="M 196.868209 95.48243 
L 196.800524 99.954054 
L 193.263836 97.216932 
L 196.868209 95.48243 
z
" clip-path="url(#p76f96d5aed)" style="stroke: #000000; stroke-linecap: round"/>
   </g>
   <g id="patch_76">
    <path d="M 57.575508 60.884996 
Q 137.6336 82.224347 216.611376 103.275742 
" clip-path="url(#p76f96d5aed)" style="fill: none; stroke: #000000; stroke-linecap: round"/>
    <path d="M 213.261434 100.312992 
L 216.611376 103.275742 
L 212.231211 104.178045 
L 213.261434 100.312992 
z
" clip-path="url(#p76f96d5aed)" style="stroke: #000000; stroke-linecap: round"/>
   </g>
   <g id="patch_77">
    <path d="M 57.558689 60.937314 
Q 126.913321 81.5463 195.196234 101.836821 
" clip-path="url(#p76f96d5aed)" style="fill: none; stroke: #000000; stroke-linecap: round"/>
    <path d="M 191.931626 98.780298 
L 195.196234 101.836821 
L 190.79225 102.614594 
L 191.931626 98.780298 
z
" clip-path="url(#p76f96d5aed)" style="stroke: #000000; stroke-linecap: round"/>
   </g>
   <g id="patch_78">
    <path d="M 362.125033 61.69314 
Q 291.772777 82.601731 222.492226 103.191813 
" clip-path="url(#p76f96d5aed)" style="fill: none; stroke: #000000; stroke-linecap: round"/>
    <path d="M 226.896241 103.969404 
L 222.492226 103.191813 
L 225.756708 100.135155 
L 226.896241 103.969404 
z
" clip-path="url(#p76f96d5aed)" style="stroke: #000000; stroke-linecap: round"/>
   </g>
   <g id="patch_79">
    <path d="M 362.100152 61.612939 
Q 281.052306 81.924632 201.088956 101.964536 
" clip-path="url(#p76f96d5aed)" style="fill: none; stroke: #000000; stroke-linecap: round"/>
    <path d="M 205.455157 102.932157 
L 201.088956 101.964536 
L 204.482773 99.052148 
L 205.455157 102.932157 
z
" clip-path="url(#p76f96d5aed)" style="stroke: #000000; stroke-linecap: round"/>
   </g>
   <g id="patch_80">
    <path d="M 120.038494 49.744103 
Q 168.951734 76.439953 216.883591 102.600184 
" clip-path="url(#p76f96d5aed)" style="fill: none; stroke: #000000; stroke-linecap: round"/>
    <path d="M 214.330632 98.928345 
L 216.883591 102.600184 
L 212.414344 102.439447 
L 214.330632 98.928345 
z
" clip-path="url(#p76f96d5aed)" style="stroke: #000000; stroke-linecap: round"/>
   </g>
   <g id="patch_81">
    <path d="M 119.940997 49.898938 
Q 158.230318 75.760791 195.593144 100.99686 
" clip-path="url(#p76f96d5aed)" style="fill: none; stroke: #000000; stroke-linecap: round"/>
    <path d="M 193.397852 97.100619 
L 195.593144 100.99686 
L 191.158976 100.415348 
L 193.397852 97.100619 
z
" clip-path="url(#p76f96d5aed)" style="stroke: #000000; stroke-linecap: round"/>
   </g>
   <g id="patch_82">
    <path d="M 370.857317 96.258764 
Q 296.177345 100.110708 222.613923 103.905062 
" clip-path="url(#p76f96d5aed)" style="fill: none; stroke: #000000; stroke-linecap: round"/>
    <path d="M 226.711635 105.696363 
L 222.613923 103.905062 
L 226.505591 101.701673 
L 226.711635 105.696363 
z
" clip-path="url(#p76f96d5aed)" style="stroke: #000000; stroke-linecap: round"/>
   </g>
   <g id="patch_83">
    <path d="M 370.850975 96.231792 
Q 285.456772 99.433203 201.179819 102.59273 
" clip-path="url(#p76f96d5aed)" style="fill: none; stroke: #000000; stroke-linecap: round"/>
    <path d="M 205.251938 104.441472 
L 201.179819 102.59273 
L 205.102084 100.44428 
L 205.251938 104.441472 
z
" clip-path="url(#p76f96d5aed)" style="stroke: #000000; stroke-linecap: round"/>
   </g>
   <g id="PathCollection_1">
    <defs>
     <path id="m9aae8593da" d="M 0 1.936492 
C 0.513564 1.936492 1.006162 1.732451 1.369306 1.369306 
C 1.732451 1.006162 1.936492 0.513564 1.936492 0 
C 1.936492 -0.513564 1.732451 -1.006162 1.369306 -1.369306 
C 1.006162 -1.732451 0.513564 -1.936492 0 -1.936492 
C -0.513564 -1.936492 -1.006162 -1.732451 -1.369306 -1.369306 
C -1.732451 -1.006162 -1.936492 -0.513564 -1.936492 0 
C -1.936492 0.513564 -1.732451 1.006162 -1.369306 1.369306 
C -1.006162 1.732451 -0.513564 1.936492 0 1.936492 
z
" style="stroke: #1f78b4"/>
    </defs>
    <g clip-path="url(#p76f96d5aed)">
     <use xlink:href="#m9aae8593da" x="292.437162" y="36.58644" style="fill: #1f78b4; stroke: #1f78b4"/>
     <use xlink:href="#m9aae8593da" x="225.835182" y="35.029318" style="fill: #1f78b4; stroke: #1f78b4"/>
     <use xlink:href="#m9aae8593da" x="283.809675" y="146.624733" style="fill: #1f78b4; stroke: #1f78b4"/>
     <use xlink:href="#m9aae8593da" x="354.338201" y="127.226607" style="fill: #1f78b4; stroke: #1f78b4"/>
     <use xlink:href="#m9aae8593da" x="219.562791" y="104.062437" style="fill: #1f78b4; stroke: #1f78b4"/>
     <use xlink:href="#m9aae8593da" x="420.813223" y="265.840452" style="fill: #1f78b4; stroke: #1f78b4"/>
     <use xlink:href="#m9aae8593da" x="198.125416" y="102.707239" style="fill: #1f78b4; stroke: #1f78b4"/>
     <use xlink:href="#m9aae8593da" x="163.273917" y="194.588693" style="fill: #1f78b4; stroke: #1f78b4"/>
     <use xlink:href="#m9aae8593da" x="237.385925" y="315.609917" style="fill: #1f78b4; stroke: #1f78b4"/>
     <use xlink:href="#m9aae8593da" x="348.299525" y="300.036662" style="fill: #1f78b4; stroke: #1f78b4"/>
     <use xlink:href="#m9aae8593da" x="73.526953" y="240.263669" style="fill: #1f78b4; stroke: #1f78b4"/>
     <use xlink:href="#m9aae8593da" x="208.765323" y="261.783079" style="fill: #1f78b4; stroke: #1f78b4"/>
     <use xlink:href="#m9aae8593da" x="124.527441" y="264.15523" style="fill: #1f78b4; stroke: #1f78b4"/>
     <use xlink:href="#m9aae8593da" x="70.19808" y="87.561098" style="fill: #1f78b4; stroke: #1f78b4"/>
     <use xlink:href="#m9aae8593da" x="240.680763" y="221.587111" style="fill: #1f78b4; stroke: #1f78b4"/>
     <use xlink:href="#m9aae8593da" x="99.401847" y="137.926565" style="fill: #1f78b4; stroke: #1f78b4"/>
     <use xlink:href="#m9aae8593da" x="298.137658" y="69.964857" style="fill: #1f78b4; stroke: #1f78b4"/>
     <use xlink:href="#m9aae8593da" x="39.986777" y="114.008654" style="fill: #1f78b4; stroke: #1f78b4"/>
     <use xlink:href="#m9aae8593da" x="163.132353" y="29.990083" style="fill: #1f78b4; stroke: #1f78b4"/>
     <use xlink:href="#m9aae8593da" x="55.702779" y="60.385823" style="fill: #1f78b4; stroke: #1f78b4"/>
     <use xlink:href="#m9aae8593da" x="363.980497" y="61.141699" style="fill: #1f78b4; stroke: #1f78b4"/>
     <use xlink:href="#m9aae8593da" x="118.336353" y="48.815109" style="fill: #1f78b4; stroke: #1f78b4"/>
     <use xlink:href="#m9aae8593da" x="372.788537" y="96.159153" style="fill: #1f78b4; stroke: #1f78b4"/>
    </g>
   </g>
   <g id="text_1">
    <g clip-path="url(#p76f96d5aed)">
     <!-- 0 -->
     <g transform="translate(289.255912 39.345815) scale(0.1 -0.1)">
      <defs>
       <path id="DejaVuSans-30" d="M 2034 4250 
Q 1547 4250 1301 3770 
Q 1056 3291 1056 2328 
Q 1056 1369 1301 889 
Q 1547 409 2034 409 
Q 2525 409 2770 889 
Q 3016 1369 3016 2328 
Q 3016 3291 2770 3770 
Q 2525 4250 2034 4250 
z
M 2034 4750 
Q 2819 4750 3233 4129 
Q 3647 3509 3647 2328 
Q 3647 1150 3233 529 
Q 2819 -91 2034 -91 
Q 1250 -91 836 529 
Q 422 1150 422 2328 
Q 422 3509 836 4129 
Q 1250 4750 2034 4750 
z
" transform="scale(0.015625)"/>
      </defs>
      <use xlink:href="#DejaVuSans-30"/>
     </g>
    </g>
   </g>
   <g id="text_2">
    <g clip-path="url(#p76f96d5aed)">
     <!-- 1 -->
     <g transform="translate(222.653932 37.788693) scale(0.1 -0.1)">
      <defs>
       <path id="DejaVuSans-31" d="M 794 531 
L 1825 531 
L 1825 4091 
L 703 3866 
L 703 4441 
L 1819 4666 
L 2450 4666 
L 2450 531 
L 3481 531 
L 3481 0 
L 794 0 
L 794 531 
z
" transform="scale(0.015625)"/>
      </defs>
      <use xlink:href="#DejaVuSans-31"/>
     </g>
    </g>
   </g>
   <g id="text_3">
    <g clip-path="url(#p76f96d5aed)">
     <!-- 2 -->
     <g transform="translate(280.628425 149.384108) scale(0.1 -0.1)">
      <defs>
       <path id="DejaVuSans-32" d="M 1228 531 
L 3431 531 
L 3431 0 
L 469 0 
L 469 531 
Q 828 903 1448 1529 
Q 2069 2156 2228 2338 
Q 2531 2678 2651 2914 
Q 2772 3150 2772 3378 
Q 2772 3750 2511 3984 
Q 2250 4219 1831 4219 
Q 1534 4219 1204 4116 
Q 875 4013 500 3803 
L 500 4441 
Q 881 4594 1212 4672 
Q 1544 4750 1819 4750 
Q 2544 4750 2975 4387 
Q 3406 4025 3406 3419 
Q 3406 3131 3298 2873 
Q 3191 2616 2906 2266 
Q 2828 2175 2409 1742 
Q 1991 1309 1228 531 
z
" transform="scale(0.015625)"/>
      </defs>
      <use xlink:href="#DejaVuSans-32"/>
     </g>
    </g>
   </g>
   <g id="text_4">
    <g clip-path="url(#p76f96d5aed)">
     <!-- 3 -->
     <g transform="translate(351.156951 129.985982) scale(0.1 -0.1)">
      <defs>
       <path id="DejaVuSans-33" d="M 2597 2516 
Q 3050 2419 3304 2112 
Q 3559 1806 3559 1356 
Q 3559 666 3084 287 
Q 2609 -91 1734 -91 
Q 1441 -91 1130 -33 
Q 819 25 488 141 
L 488 750 
Q 750 597 1062 519 
Q 1375 441 1716 441 
Q 2309 441 2620 675 
Q 2931 909 2931 1356 
Q 2931 1769 2642 2001 
Q 2353 2234 1838 2234 
L 1294 2234 
L 1294 2753 
L 1863 2753 
Q 2328 2753 2575 2939 
Q 2822 3125 2822 3475 
Q 2822 3834 2567 4026 
Q 2313 4219 1838 4219 
Q 1578 4219 1281 4162 
Q 984 4106 628 3988 
L 628 4550 
Q 988 4650 1302 4700 
Q 1616 4750 1894 4750 
Q 2613 4750 3031 4423 
Q 3450 4097 3450 3541 
Q 3450 3153 3228 2886 
Q 3006 2619 2597 2516 
z
" transform="scale(0.015625)"/>
      </defs>
      <use xlink:href="#DejaVuSans-33"/>
     </g>
    </g>
   </g>
   <g id="text_5">
    <g clip-path="url(#p76f96d5aed)">
     <!-- 4 -->
     <g transform="translate(216.381541 106.821812) scale(0.1 -0.1)">
      <defs>
       <path id="DejaVuSans-34" d="M 2419 4116 
L 825 1625 
L 2419 1625 
L 2419 4116 
z
M 2253 4666 
L 3047 4666 
L 3047 1625 
L 3713 1625 
L 3713 1100 
L 3047 1100 
L 3047 0 
L 2419 0 
L 2419 1100 
L 313 1100 
L 313 1709 
L 2253 4666 
z
" transform="scale(0.015625)"/>
      </defs>
      <use xlink:href="#DejaVuSans-34"/>
     </g>
    </g>
   </g>
   <g id="text_6">
    <g clip-path="url(#p76f96d5aed)">
     <!-- 5 -->
     <g transform="translate(417.631973 268.599827) scale(0.1 -0.1)">
      <defs>
       <path id="DejaVuSans-35" d="M 691 4666 
L 3169 4666 
L 3169 4134 
L 1269 4134 
L 1269 2991 
Q 1406 3038 1543 3061 
Q 1681 3084 1819 3084 
Q 2600 3084 3056 2656 
Q 3513 2228 3513 1497 
Q 3513 744 3044 326 
Q 2575 -91 1722 -91 
Q 1428 -91 1123 -41 
Q 819 9 494 109 
L 494 744 
Q 775 591 1075 516 
Q 1375 441 1709 441 
Q 2250 441 2565 725 
Q 2881 1009 2881 1497 
Q 2881 1984 2565 2268 
Q 2250 2553 1709 2553 
Q 1456 2553 1204 2497 
Q 953 2441 691 2322 
L 691 4666 
z
" transform="scale(0.015625)"/>
      </defs>
      <use xlink:href="#DejaVuSans-35"/>
     </g>
    </g>
   </g>
   <g id="text_7">
    <g clip-path="url(#p76f96d5aed)">
     <!-- 6 -->
     <g transform="translate(194.944166 105.466614) scale(0.1 -0.1)">
      <defs>
       <path id="DejaVuSans-36" d="M 2113 2584 
Q 1688 2584 1439 2293 
Q 1191 2003 1191 1497 
Q 1191 994 1439 701 
Q 1688 409 2113 409 
Q 2538 409 2786 701 
Q 3034 994 3034 1497 
Q 3034 2003 2786 2293 
Q 2538 2584 2113 2584 
z
M 3366 4563 
L 3366 3988 
Q 3128 4100 2886 4159 
Q 2644 4219 2406 4219 
Q 1781 4219 1451 3797 
Q 1122 3375 1075 2522 
Q 1259 2794 1537 2939 
Q 1816 3084 2150 3084 
Q 2853 3084 3261 2657 
Q 3669 2231 3669 1497 
Q 3669 778 3244 343 
Q 2819 -91 2113 -91 
Q 1303 -91 875 529 
Q 447 1150 447 2328 
Q 447 3434 972 4092 
Q 1497 4750 2381 4750 
Q 2619 4750 2861 4703 
Q 3103 4656 3366 4563 
z
" transform="scale(0.015625)"/>
      </defs>
      <use xlink:href="#DejaVuSans-36"/>
     </g>
    </g>
   </g>
   <g id="text_8">
    <g clip-path="url(#p76f96d5aed)">
     <!-- 7 -->
     <g transform="translate(160.092667 197.348068) scale(0.1 -0.1)">
      <defs>
       <path id="DejaVuSans-37" d="M 525 4666 
L 3525 4666 
L 3525 4397 
L 1831 0 
L 1172 0 
L 2766 4134 
L 525 4134 
L 525 4666 
z
" transform="scale(0.015625)"/>
      </defs>
      <use xlink:href="#DejaVuSans-37"/>
     </g>
    </g>
   </g>
   <g id="text_9">
    <g clip-path="url(#p76f96d5aed)">
     <!-- 8 -->
     <g transform="translate(234.204675 318.369292) scale(0.1 -0.1)">
      <defs>
       <path id="DejaVuSans-38" d="M 2034 2216 
Q 1584 2216 1326 1975 
Q 1069 1734 1069 1313 
Q 1069 891 1326 650 
Q 1584 409 2034 409 
Q 2484 409 2743 651 
Q 3003 894 3003 1313 
Q 3003 1734 2745 1975 
Q 2488 2216 2034 2216 
z
M 1403 2484 
Q 997 2584 770 2862 
Q 544 3141 544 3541 
Q 544 4100 942 4425 
Q 1341 4750 2034 4750 
Q 2731 4750 3128 4425 
Q 3525 4100 3525 3541 
Q 3525 3141 3298 2862 
Q 3072 2584 2669 2484 
Q 3125 2378 3379 2068 
Q 3634 1759 3634 1313 
Q 3634 634 3220 271 
Q 2806 -91 2034 -91 
Q 1263 -91 848 271 
Q 434 634 434 1313 
Q 434 1759 690 2068 
Q 947 2378 1403 2484 
z
M 1172 3481 
Q 1172 3119 1398 2916 
Q 1625 2713 2034 2713 
Q 2441 2713 2670 2916 
Q 2900 3119 2900 3481 
Q 2900 3844 2670 4047 
Q 2441 4250 2034 4250 
Q 1625 4250 1398 4047 
Q 1172 3844 1172 3481 
z
" transform="scale(0.015625)"/>
      </defs>
      <use xlink:href="#DejaVuSans-38"/>
     </g>
    </g>
   </g>
   <g id="text_10">
    <g clip-path="url(#p76f96d5aed)">
     <!-- 9 -->
     <g transform="translate(345.118275 302.796037) scale(0.1 -0.1)">
      <defs>
       <path id="DejaVuSans-39" d="M 703 97 
L 703 672 
Q 941 559 1184 500 
Q 1428 441 1663 441 
Q 2288 441 2617 861 
Q 2947 1281 2994 2138 
Q 2813 1869 2534 1725 
Q 2256 1581 1919 1581 
Q 1219 1581 811 2004 
Q 403 2428 403 3163 
Q 403 3881 828 4315 
Q 1253 4750 1959 4750 
Q 2769 4750 3195 4129 
Q 3622 3509 3622 2328 
Q 3622 1225 3098 567 
Q 2575 -91 1691 -91 
Q 1453 -91 1209 -44 
Q 966 3 703 97 
z
M 1959 2075 
Q 2384 2075 2632 2365 
Q 2881 2656 2881 3163 
Q 2881 3666 2632 3958 
Q 2384 4250 1959 4250 
Q 1534 4250 1286 3958 
Q 1038 3666 1038 3163 
Q 1038 2656 1286 2365 
Q 1534 2075 1959 2075 
z
" transform="scale(0.015625)"/>
      </defs>
      <use xlink:href="#DejaVuSans-39"/>
     </g>
    </g>
   </g>
   <g id="text_11">
    <g clip-path="url(#p76f96d5aed)">
     <!-- 10 -->
     <g transform="translate(67.164453 243.023044) scale(0.1 -0.1)">
      <use xlink:href="#DejaVuSans-31"/>
      <use xlink:href="#DejaVuSans-30" x="63.623047"/>
     </g>
    </g>
   </g>
   <g id="text_12">
    <g clip-path="url(#p76f96d5aed)">
     <!-- 11 -->
     <g transform="translate(202.402823 264.542454) scale(0.1 -0.1)">
      <use xlink:href="#DejaVuSans-31"/>
      <use xlink:href="#DejaVuSans-31" x="63.623047"/>
     </g>
    </g>
   </g>
   <g id="text_13">
    <g clip-path="url(#p76f96d5aed)">
     <!-- 12 -->
     <g transform="translate(118.164941 266.914605) scale(0.1 -0.1)">
      <use xlink:href="#DejaVuSans-31"/>
      <use xlink:href="#DejaVuSans-32" x="63.623047"/>
     </g>
    </g>
   </g>
   <g id="text_14">
    <g clip-path="url(#p76f96d5aed)">
     <!-- 13 -->
     <g transform="translate(63.83558 90.320473) scale(0.1 -0.1)">
      <use xlink:href="#DejaVuSans-31"/>
      <use xlink:href="#DejaVuSans-33" x="63.623047"/>
     </g>
    </g>
   </g>
   <g id="text_15">
    <g clip-path="url(#p76f96d5aed)">
     <!-- 14 -->
     <g transform="translate(234.318263 224.346486) scale(0.1 -0.1)">
      <use xlink:href="#DejaVuSans-31"/>
      <use xlink:href="#DejaVuSans-34" x="63.623047"/>
     </g>
    </g>
   </g>
   <g id="text_16">
    <g clip-path="url(#p76f96d5aed)">
     <!-- 15 -->
     <g transform="translate(93.039347 140.68594) scale(0.1 -0.1)">
      <use xlink:href="#DejaVuSans-31"/>
      <use xlink:href="#DejaVuSans-35" x="63.623047"/>
     </g>
    </g>
   </g>
   <g id="text_17">
    <g clip-path="url(#p76f96d5aed)">
     <!-- 16 -->
     <g transform="translate(291.775158 72.724232) scale(0.1 -0.1)">
      <use xlink:href="#DejaVuSans-31"/>
      <use xlink:href="#DejaVuSans-36" x="63.623047"/>
     </g>
    </g>
   </g>
   <g id="text_18">
    <g clip-path="url(#p76f96d5aed)">
     <!-- 17 -->
     <g transform="translate(33.624277 116.768029) scale(0.1 -0.1)">
      <use xlink:href="#DejaVuSans-31"/>
      <use xlink:href="#DejaVuSans-37" x="63.623047"/>
     </g>
    </g>
   </g>
   <g id="text_19">
    <g clip-path="url(#p76f96d5aed)">
     <!-- 18 -->
     <g transform="translate(156.769853 32.749458) scale(0.1 -0.1)">
      <use xlink:href="#DejaVuSans-31"/>
      <use xlink:href="#DejaVuSans-38" x="63.623047"/>
     </g>
    </g>
   </g>
   <g id="text_20">
    <g clip-path="url(#p76f96d5aed)">
     <!-- 19 -->
     <g transform="translate(49.340279 63.145198) scale(0.1 -0.1)">
      <use xlink:href="#DejaVuSans-31"/>
      <use xlink:href="#DejaVuSans-39" x="63.623047"/>
     </g>
    </g>
   </g>
   <g id="text_21">
    <g clip-path="url(#p76f96d5aed)">
     <!-- 20 -->
     <g transform="translate(357.617997 63.901074) scale(0.1 -0.1)">
      <use xlink:href="#DejaVuSans-32"/>
      <use xlink:href="#DejaVuSans-30" x="63.623047"/>
     </g>
    </g>
   </g>
   <g id="text_22">
    <g clip-path="url(#p76f96d5aed)">
     <!-- 21 -->
     <g transform="translate(111.973853 51.574484) scale(0.1 -0.1)">
      <use xlink:href="#DejaVuSans-32"/>
      <use xlink:href="#DejaVuSans-31" x="63.623047"/>
     </g>
    </g>
   </g>
   <g id="text_23">
    <g clip-path="url(#p76f96d5aed)">
     <!-- 22 -->
     <g transform="translate(366.426037 98.918528) scale(0.1 -0.1)">
      <use xlink:href="#DejaVuSans-32"/>
      <use xlink:href="#DejaVuSans-32" x="63.623047"/>
     </g>
    </g>
   </g>
  </g>
 </g>
 <defs>
  <clipPath id="p76f96d5aed">
   <rect x="0" y="0" width="460.8" height="345.6"/>
  </clipPath>
 </defs>
</svg>
