<?xml version="1.0" encoding="utf-8" standalone="no"?>
<!DOCTYPE svg PUBLIC "-//W3C//DTD SVG 1.1//EN"
  "http://www.w3.org/Graphics/SVG/1.1/DTD/svg11.dtd">
<svg xmlns:xlink="http://www.w3.org/1999/xlink" width="460.8pt" height="345.6pt" viewBox="0 0 460.8 345.6" xmlns="http://www.w3.org/2000/svg" version="1.1">
 <metadata>
  <rdf:RDF xmlns:dc="http://purl.org/dc/elements/1.1/" xmlns:cc="http://creativecommons.org/ns#" xmlns:rdf="http://www.w3.org/1999/02/22-rdf-syntax-ns#">
   <cc:Work>
    <dc:type rdf:resource="http://purl.org/dc/dcmitype/StillImage"/>
    <dc:date>2023-10-10T10:55:16.019741</dc:date>
    <dc:format>image/svg+xml</dc:format>
    <dc:creator>
     <cc:Agent>
      <dc:title>Matplotlib v3.6.1, https://matplotlib.org/</dc:title>
     </cc:Agent>
    </dc:creator>
   </cc:Work>
  </rdf:RDF>
 </metadata>
 <defs>
  <style type="text/css">*{stroke-linejoin: round; stroke-linecap: butt}</style>
 </defs>
 <g id="figure_1">
  <g id="patch_1">
   <path d="M 0 345.6 
L 460.8 345.6 
L 460.8 0 
L 0 0 
z
" style="fill: #ffffff"/>
  </g>
  <g id="axes_1">
   <g id="patch_2">
    <path d="M 85.636691 173.035209 
Q 63.448392 198.535182 41.993994 223.191718 
" clip-path="url(#p54edf46c5d)" style="fill: none; stroke: #000000; stroke-linecap: round"/>
    <path d="M 46.128469 221.486983 
L 41.993994 223.191718 
L 43.110891 218.861297 
L 46.128469 221.486983 
z
" clip-path="url(#p54edf46c5d)" style="stroke: #000000; stroke-linecap: round"/>
   </g>
   <g id="patch_3">
    <path d="M 88.653111 170.744012 
Q 132.432126 149.873013 175.201926 129.483142 
" clip-path="url(#p54edf46c5d)" style="fill: none; stroke: #000000; stroke-linecap: round"/>
    <path d="M 170.730579 129.399141 
L 175.201926 129.483142 
L 172.451917 133.009819 
L 170.730579 129.399141 
z
" clip-path="url(#p54edf46c5d)" style="stroke: #000000; stroke-linecap: round"/>
   </g>
   <g id="patch_4">
    <path d="M 279.211692 97.443611 
Q 248.601904 94.059999 219.103381 90.799227 
" clip-path="url(#p54edf46c5d)" style="fill: none; stroke: #000000; stroke-linecap: round"/>
    <path d="M 222.859422 93.226602 
L 219.103381 90.799227 
L 223.298906 89.250819 
L 222.859422 93.226602 
z
" clip-path="url(#p54edf46c5d)" style="stroke: #000000; stroke-linecap: round"/>
   </g>
   <g id="patch_5">
    <path d="M 281.579124 99.544412 
Q 287.295903 124.002955 292.758219 147.372808 
" clip-path="url(#p54edf46c5d)" style="fill: none; stroke: #000000; stroke-linecap: round"/>
    <path d="M 293.795333 143.02259 
L 292.758219 147.372808 
L 289.900313 143.932986 
L 293.795333 143.02259 
z
" clip-path="url(#p54edf46c5d)" style="stroke: #000000; stroke-linecap: round"/>
   </g>
   <g id="patch_6">
    <path d="M 46.401676 277.091586 
Q 43.31384 252.257069 40.363954 228.532043 
" clip-path="url(#p54edf46c5d)" style="fill: none; stroke: #000000; stroke-linecap: round"/>
    <path d="M 38.872783 232.748251 
L 40.363954 228.532043 
L 42.842217 232.254705 
L 38.872783 232.748251 
z
" clip-path="url(#p54edf46c5d)" style="stroke: #000000; stroke-linecap: round"/>
   </g>
   <g id="patch_7">
    <path d="M 48.31909 279.981708 
Q 76.5912 296.258993 103.894389 311.978435 
" clip-path="url(#p54edf46c5d)" style="fill: none; stroke: #000000; stroke-linecap: round"/>
    <path d="M 101.425769 308.249372 
L 103.894389 311.978435 
L 99.429966 311.715893 
L 101.425769 308.249372 
z
" clip-path="url(#p54edf46c5d)" style="stroke: #000000; stroke-linecap: round"/>
   </g>
   <g id="patch_8">
    <path d="M 41.255387 224.040565 
Q 63.443686 198.540591 84.898084 173.884056 
" clip-path="url(#p54edf46c5d)" style="fill: none; stroke: #000000; stroke-linecap: round"/>
    <path d="M 80.763609 175.58879 
L 84.898084 173.884056 
L 83.781187 178.214476 
L 80.763609 175.58879 
z
" clip-path="url(#p54edf46c5d)" style="stroke: #000000; stroke-linecap: round"/>
   </g>
   <g id="patch_9">
    <path d="M 40.22599 227.422439 
Q 43.313826 252.256956 46.263711 275.981982 
" clip-path="url(#p54edf46c5d)" style="fill: none; stroke: #000000; stroke-linecap: round"/>
    <path d="M 47.754883 271.765774 
L 46.263711 275.981982 
L 43.785449 272.25932 
L 47.754883 271.765774 
z
" clip-path="url(#p54edf46c5d)" style="stroke: #000000; stroke-linecap: round"/>
   </g>
   <g id="patch_10">
    <path d="M 170.209427 167.053659 
Q 192.09463 180.725158 213.031611 193.804311 
" clip-path="url(#p54edf46c5d)" style="fill: none; stroke: #000000; stroke-linecap: round"/>
    <path d="M 210.698769 189.988836 
L 213.031611 193.804311 
L 208.579526 193.3813 
L 210.698769 189.988836 
z
" clip-path="url(#p54edf46c5d)" style="stroke: #000000; stroke-linecap: round"/>
   </g>
   <g id="patch_11">
    <path d="M 169.035993 164.148251 
Q 173.264521 147.0964 177.223949 131.129715 
" clip-path="url(#p54edf46c5d)" style="fill: none; stroke: #000000; stroke-linecap: round"/>
    <path d="M 174.319983 134.530742 
L 177.223949 131.129715 
L 178.202391 135.493504 
L 174.319983 134.530742 
z
" clip-path="url(#p54edf46c5d)" style="stroke: #000000; stroke-linecap: round"/>
   </g>
   <g id="patch_12">
    <path d="M 213.983662 194.399049 
Q 192.098459 180.72755 171.161479 167.648397 
" clip-path="url(#p54edf46c5d)" style="fill: none; stroke: #000000; stroke-linecap: round"/>
    <path d="M 173.494321 171.463872 
L 171.161479 167.648397 
L 175.613564 168.071409 
L 173.494321 171.463872 
z
" clip-path="url(#p54edf46c5d)" style="stroke: #000000; stroke-linecap: round"/>
   </g>
   <g id="patch_13">
    <path d="M 217.558949 195.515116 
Q 250.779976 197.088218 282.88422 198.608438 
" clip-path="url(#p54edf46c5d)" style="fill: none; stroke: #000000; stroke-linecap: round"/>
    <path d="M 278.983296 196.421478 
L 282.88422 198.608438 
L 278.794098 200.417001 
L 278.983296 196.421478 
z
" clip-path="url(#p54edf46c5d)" style="stroke: #000000; stroke-linecap: round"/>
   </g>
   <g id="patch_14">
    <path d="M 176.210296 129.002417 
Q 132.43128 149.873416 89.66148 170.263287 
" clip-path="url(#p54edf46c5d)" style="fill: none; stroke: #000000; stroke-linecap: round"/>
    <path d="M 94.132827 170.347288 
L 89.66148 170.263287 
L 92.41149 166.73661 
L 94.132827 170.347288 
z
" clip-path="url(#p54edf46c5d)" style="stroke: #000000; stroke-linecap: round"/>
   </g>
   <g id="patch_15">
    <path d="M 177.491657 130.050162 
Q 173.263129 147.102013 169.303701 163.068698 
" clip-path="url(#p54edf46c5d)" style="fill: none; stroke: #000000; stroke-linecap: round"/>
    <path d="M 172.207667 159.667671 
L 169.303701 163.068698 
L 168.325259 158.70491 
L 172.207667 159.667671 
z
" clip-path="url(#p54edf46c5d)" style="stroke: #000000; stroke-linecap: round"/>
   </g>
   <g id="patch_16">
    <path d="M 177.348407 126.335096 
Q 168.028426 98.298972 159.061134 71.323796 
" clip-path="url(#p54edf46c5d)" style="fill: none; stroke: #000000; stroke-linecap: round"/>
    <path d="M 158.425068 75.750467 
L 159.061134 71.323796 
L 162.220832 74.488651 
L 158.425068 75.750467 
z
" clip-path="url(#p54edf46c5d)" style="stroke: #000000; stroke-linecap: round"/>
   </g>
   <g id="patch_17">
    <path d="M 179.332833 126.809075 
Q 197.013687 109.316362 213.899753 92.609978 
" clip-path="url(#p54edf46c5d)" style="fill: none; stroke: #000000; stroke-linecap: round"/>
    <path d="M 209.649609 94.001478 
L 213.899753 92.609978 
L 212.462867 96.844994 
L 209.649609 94.001478 
z
" clip-path="url(#p54edf46c5d)" style="stroke: #000000; stroke-linecap: round"/>
   </g>
   <g id="patch_18">
    <path d="M 179.857895 128.534026 
Q 235.704384 139.25924 290.452902 149.773592 
" clip-path="url(#p54edf46c5d)" style="fill: none; stroke: #000000; stroke-linecap: round"/>
    <path d="M 286.901891 147.055078 
L 290.452902 149.773592 
L 286.147484 150.983293 
L 286.901891 147.055078 
z
" clip-path="url(#p54edf46c5d)" style="stroke: #000000; stroke-linecap: round"/>
   </g>
   <g id="patch_19">
    <path d="M 293.012818 148.462081 
Q 287.296039 124.003538 281.833724 100.633685 
" clip-path="url(#p54edf46c5d)" style="fill: none; stroke: #000000; stroke-linecap: round"/>
    <path d="M 280.79661 104.983903 
L 281.833724 100.633685 
L 284.69163 104.073507 
L 280.79661 104.983903 
z
" clip-path="url(#p54edf46c5d)" style="stroke: #000000; stroke-linecap: round"/>
   </g>
   <g id="patch_20">
    <path d="M 291.554289 149.985111 
Q 235.707801 139.259897 180.959282 128.745545 
" clip-path="url(#p54edf46c5d)" style="fill: none; stroke: #000000; stroke-linecap: round"/>
    <path d="M 184.510293 131.464059 
L 180.959282 128.745545 
L 185.2647 127.535844 
L 184.510293 131.464059 
z
" clip-path="url(#p54edf46c5d)" style="stroke: #000000; stroke-linecap: round"/>
   </g>
   <g id="patch_21">
    <path d="M 295.300154 149.756221 
Q 337.738951 136.106887 379.113409 122.799871 
" clip-path="url(#p54edf46c5d)" style="fill: none; stroke: #000000; stroke-linecap: round"/>
    <path d="M 374.693156 122.120633 
L 379.113409 122.799871 
L 375.917867 125.92853 
L 374.693156 122.120633 
z
" clip-path="url(#p54edf46c5d)" style="stroke: #000000; stroke-linecap: round"/>
   </g>
   <g id="patch_22">
    <path d="M 293.530326 152.283711 
Q 294.923701 187.622027 296.273026 221.843176 
" clip-path="url(#p54edf46c5d)" style="fill: none; stroke: #000000; stroke-linecap: round"/>
    <path d="M 298.113878 217.767484 
L 296.273026 221.843176 
L 294.116983 217.92508 
L 298.113878 217.767484 
z
" clip-path="url(#p54edf46c5d)" style="stroke: #000000; stroke-linecap: round"/>
   </g>
   <g id="patch_23">
    <path d="M 295.060771 151.433717 
Q 316.586558 165.953419 337.185461 179.847912 
" clip-path="url(#p54edf46c5d)" style="fill: none; stroke: #000000; stroke-linecap: round"/>
    <path d="M 334.987743 175.953039 
L 337.185461 179.847912 
L 332.750932 179.269163 
L 334.987743 175.953039 
z
" clip-path="url(#p54edf46c5d)" style="stroke: #000000; stroke-linecap: round"/>
   </g>
   <g id="patch_24">
    <path d="M 283.997806 198.661169 
Q 250.776779 197.088067 218.672535 195.567847 
" clip-path="url(#p54edf46c5d)" style="fill: none; stroke: #000000; stroke-linecap: round"/>
    <path d="M 222.573458 197.754807 
L 218.672535 195.567847 
L 222.762657 193.759284 
L 222.573458 197.754807 
z
" clip-path="url(#p54edf46c5d)" style="stroke: #000000; stroke-linecap: round"/>
   </g>
   <g id="patch_25">
    <path d="M 287.774832 198.163984 
Q 312.825306 190.154467 336.810856 182.485444 
" clip-path="url(#p54edf46c5d)" style="fill: none; stroke: #000000; stroke-linecap: round"/>
    <path d="M 332.391773 181.798637 
L 336.810856 182.485444 
L 333.609961 185.608626 
L 332.391773 181.798637 
z
" clip-path="url(#p54edf46c5d)" style="stroke: #000000; stroke-linecap: round"/>
   </g>
   <g id="patch_26">
    <path d="M 338.11106 180.472253 
Q 316.585272 165.952551 295.986369 152.058058 
" clip-path="url(#p54edf46c5d)" style="fill: none; stroke: #000000; stroke-linecap: round"/>
    <path d="M 298.184087 155.952931 
L 295.986369 152.058058 
L 300.420899 152.636807 
L 298.184087 155.952931 
z
" clip-path="url(#p54edf46c5d)" style="stroke: #000000; stroke-linecap: round"/>
   </g>
   <g id="patch_27">
    <path d="M 337.876129 182.144839 
Q 312.825655 190.154356 288.840104 197.823379 
" clip-path="url(#p54edf46c5d)" style="fill: none; stroke: #000000; stroke-linecap: round"/>
    <path d="M 293.259188 198.510186 
L 288.840104 197.823379 
L 292.041 194.700197 
L 293.259188 198.510186 
z
" clip-path="url(#p54edf46c5d)" style="stroke: #000000; stroke-linecap: round"/>
   </g>
   <g id="patch_28">
    <path d="M 187.099547 315.560497 
Q 147.788031 314.556941 109.594185 313.581917 
" clip-path="url(#p54edf46c5d)" style="fill: none; stroke: #000000; stroke-linecap: round"/>
    <path d="M 113.541842 315.683345 
L 109.594185 313.581917 
L 113.643922 311.684648 
L 113.541842 315.683345 
z
" clip-path="url(#p54edf46c5d)" style="stroke: #000000; stroke-linecap: round"/>
   </g>
   <g id="patch_29">
    <path d="M 190.788288 314.783889 
Q 224.144583 299.064657 256.489519 283.82203 
" clip-path="url(#p54edf46c5d)" style="fill: none; stroke: #000000; stroke-linecap: round"/>
    <path d="M 252.018593 283.718011 
L 256.489519 283.82203 
L 253.723748 287.33636 
L 252.018593 283.718011 
z
" clip-path="url(#p54edf46c5d)" style="stroke: #000000; stroke-linecap: round"/>
   </g>
   <g id="patch_30">
    <path d="M 104.866049 312.537855 
Q 76.593938 296.26057 49.29075 280.541128 
" clip-path="url(#p54edf46c5d)" style="fill: none; stroke: #000000; stroke-linecap: round"/>
    <path d="M 51.75937 284.270191 
L 49.29075 280.541128 
L 53.755173 280.80367 
L 51.75937 284.270191 
z
" clip-path="url(#p54edf46c5d)" style="stroke: #000000; stroke-linecap: round"/>
   </g>
   <g id="patch_31">
    <path d="M 108.480155 313.553477 
Q 147.791671 314.557034 185.985517 315.532058 
" clip-path="url(#p54edf46c5d)" style="fill: none; stroke: #000000; stroke-linecap: round"/>
    <path d="M 182.03786 313.430629 
L 185.985517 315.532058 
L 181.93578 317.429326 
L 182.03786 313.430629 
z
" clip-path="url(#p54edf46c5d)" style="stroke: #000000; stroke-linecap: round"/>
   </g>
   <g id="patch_32">
    <path d="M 217.995179 90.676726 
Q 248.604967 94.060338 278.10349 97.321111 
" clip-path="url(#p54edf46c5d)" style="fill: none; stroke: #000000; stroke-linecap: round"/>
    <path d="M 274.347449 94.893735 
L 278.10349 97.321111 
L 273.907965 98.869518 
L 274.347449 94.893735 
z
" clip-path="url(#p54edf46c5d)" style="stroke: #000000; stroke-linecap: round"/>
   </g>
   <g id="patch_33">
    <path d="M 214.69428 91.823906 
Q 197.013426 109.31662 180.127359 126.023003 
" clip-path="url(#p54edf46c5d)" style="fill: none; stroke: #000000; stroke-linecap: round"/>
    <path d="M 184.377504 124.631503 
L 180.127359 126.023003 
L 181.564246 121.787988 
L 184.377504 124.631503 
z
" clip-path="url(#p54edf46c5d)" style="stroke: #000000; stroke-linecap: round"/>
   </g>
   <g id="patch_34">
    <path d="M 419.423439 85.549131 
Q 401.418024 103.031777 384.214736 119.735583 
" clip-path="url(#p54edf46c5d)" style="fill: none; stroke: #000000; stroke-linecap: round"/>
    <path d="M 388.477747 118.384014 
L 384.214736 119.735583 
L 385.691288 115.514233 
L 388.477747 118.384014 
z
" clip-path="url(#p54edf46c5d)" style="stroke: #000000; stroke-linecap: round"/>
   </g>
   <g id="patch_35">
    <path d="M 418.898968 83.892225 
Q 388.074232 78.941052 358.35338 74.167188 
" clip-path="url(#p54edf46c5d)" style="fill: none; stroke: #000000; stroke-linecap: round"/>
    <path d="M 361.985577 76.77624 
L 358.35338 74.167188 
L 362.619939 72.826862 
L 361.985577 76.77624 
z
" clip-path="url(#p54edf46c5d)" style="stroke: #000000; stroke-linecap: round"/>
   </g>
   <g id="patch_36">
    <path d="M 357.251147 73.990144 
Q 388.075883 78.941317 417.796735 83.71518 
" clip-path="url(#p54edf46c5d)" style="fill: none; stroke: #000000; stroke-linecap: round"/>
    <path d="M 414.164538 81.106129 
L 417.796735 83.71518 
L 413.530176 85.055507 
L 414.164538 81.106129 
z
" clip-path="url(#p54edf46c5d)" style="stroke: #000000; stroke-linecap: round"/>
   </g>
   <g id="patch_37">
    <path d="M 353.471938 73.165333 
Q 314.542556 62.366345 276.690525 51.866213 
" clip-path="url(#p54edf46c5d)" style="fill: none; stroke: #000000; stroke-linecap: round"/>
    <path d="M 280.010362 54.862658 
L 276.690525 51.866213 
L 281.079584 51.008211 
L 280.010362 54.862658 
z
" clip-path="url(#p54edf46c5d)" style="stroke: #000000; stroke-linecap: round"/>
   </g>
   <g id="patch_38">
    <path d="M 275.612009 51.567033 
Q 314.541391 62.366021 352.393422 72.866153 
" clip-path="url(#p54edf46c5d)" style="fill: none; stroke: #000000; stroke-linecap: round"/>
    <path d="M 349.073585 69.869708 
L 352.393422 72.866153 
L 348.004364 73.724155 
L 349.073585 69.869708 
z
" clip-path="url(#p54edf46c5d)" style="stroke: #000000; stroke-linecap: round"/>
   </g>
   <g id="patch_39">
    <path d="M 271.888698 50.495699 
Q 238.426078 40.520112 206.034894 30.863933 
" clip-path="url(#p54edf46c5d)" style="fill: none; stroke: #000000; stroke-linecap: round"/>
    <path d="M 209.296813 33.923327 
L 206.034894 30.863933 
L 210.43956 30.090035 
L 209.296813 33.923327 
z
" clip-path="url(#p54edf46c5d)" style="stroke: #000000; stroke-linecap: round"/>
   </g>
   <g id="patch_40">
    <path d="M 204.961963 30.54408 
Q 238.424584 40.519667 270.815767 50.175846 
" clip-path="url(#p54edf46c5d)" style="fill: none; stroke: #000000; stroke-linecap: round"/>
    <path d="M 267.553849 47.116452 
L 270.815767 50.175846 
L 266.411101 50.949744 
L 267.553849 47.116452 
z
" clip-path="url(#p54edf46c5d)" style="stroke: #000000; stroke-linecap: round"/>
   </g>
   <g id="patch_41">
    <path d="M 201.628529 31.249936 
Q 180.600874 49.209528 160.423373 66.443009 
" clip-path="url(#p54edf46c5d)" style="fill: none; stroke: #000000; stroke-linecap: round"/>
    <path d="M 164.763885 65.365995 
L 160.423373 66.443009 
L 162.16607 62.324391 
L 164.763885 65.365995 
z
" clip-path="url(#p54edf46c5d)" style="stroke: #000000; stroke-linecap: round"/>
   </g>
   <g id="patch_42">
    <path d="M 158.708365 70.262606 
Q 168.028345 98.29873 176.995638 125.273906 
" clip-path="url(#p54edf46c5d)" style="fill: none; stroke: #000000; stroke-linecap: round"/>
    <path d="M 177.631703 120.847234 
L 176.995638 125.273906 
L 173.83594 122.109051 
L 177.631703 120.847234 
z
" clip-path="url(#p54edf46c5d)" style="stroke: #000000; stroke-linecap: round"/>
   </g>
   <g id="patch_43">
    <path d="M 159.573743 67.168673 
Q 180.601398 49.209081 200.778899 31.975601 
" clip-path="url(#p54edf46c5d)" style="fill: none; stroke: #000000; stroke-linecap: round"/>
    <path d="M 196.438387 33.052614 
L 200.778899 31.975601 
L 199.036203 36.094218 
L 196.438387 33.052614 
z
" clip-path="url(#p54edf46c5d)" style="stroke: #000000; stroke-linecap: round"/>
   </g>
   <g id="patch_44">
    <path d="M 380.176322 122.458012 
Q 337.737524 136.107346 296.363066 149.414362 
" clip-path="url(#p54edf46c5d)" style="fill: none; stroke: #000000; stroke-linecap: round"/>
    <path d="M 300.783319 150.0936 
L 296.363066 149.414362 
L 299.558608 146.285703 
L 300.783319 150.0936 
z
" clip-path="url(#p54edf46c5d)" style="stroke: #000000; stroke-linecap: round"/>
   </g>
   <g id="patch_45">
    <path d="M 383.41218 120.514838 
Q 401.417595 103.032193 418.620883 86.328387 
" clip-path="url(#p54edf46c5d)" style="fill: none; stroke: #000000; stroke-linecap: round"/>
    <path d="M 414.357872 87.679956 
L 418.620883 86.328387 
L 417.144332 90.549737 
L 414.357872 87.679956 
z
" clip-path="url(#p54edf46c5d)" style="stroke: #000000; stroke-linecap: round"/>
   </g>
   <g id="patch_46">
    <path d="M 296.317195 222.963364 
Q 294.92382 187.625049 293.574495 153.403899 
" clip-path="url(#p54edf46c5d)" style="fill: none; stroke: #000000; stroke-linecap: round"/>
    <path d="M 291.733644 157.479591 
L 293.574495 153.403899 
L 295.730538 157.321996 
L 291.733644 157.479591 
z
" clip-path="url(#p54edf46c5d)" style="stroke: #000000; stroke-linecap: round"/>
   </g>
   <g id="patch_47">
    <path d="M 295.343844 226.525503 
Q 277.823183 253.707804 260.90824 279.950368 
" clip-path="url(#p54edf46c5d)" style="fill: none; stroke: #000000; stroke-linecap: round"/>
    <path d="M 264.756375 277.671804 
L 260.90824 279.950368 
L 261.39427 275.504721 
L 264.756375 277.671804 
z
" clip-path="url(#p54edf46c5d)" style="stroke: #000000; stroke-linecap: round"/>
   </g>
   <g id="patch_48">
    <path d="M 257.498908 283.346353 
Q 224.142613 299.065585 191.797677 314.308212 
" clip-path="url(#p54edf46c5d)" style="fill: none; stroke: #000000; stroke-linecap: round"/>
    <path d="M 196.268603 314.412231 
L 191.797677 314.308212 
L 194.563448 310.793883 
L 196.268603 314.412231 
z
" clip-path="url(#p54edf46c5d)" style="stroke: #000000; stroke-linecap: round"/>
   </g>
   <g id="patch_49">
    <path d="M 260.301342 280.891935 
Q 277.822003 253.709634 294.736947 227.46707 
" clip-path="url(#p54edf46c5d)" style="fill: none; stroke: #000000; stroke-linecap: round"/>
    <path d="M 290.888811 229.745634 
L 294.736947 227.46707 
L 294.250916 231.912717 
L 290.888811 229.745634 
z
" clip-path="url(#p54edf46c5d)" style="stroke: #000000; stroke-linecap: round"/>
   </g>
   <g id="PathCollection_1">
    <defs>
     <path id="md9977381cf" d="M 0 1.936492 
C 0.513564 1.936492 1.006162 1.732451 1.369306 1.369306 
C 1.732451 1.006162 1.936492 0.513564 1.936492 0 
C 1.936492 -0.513564 1.732451 -1.006162 1.369306 -1.369306 
C 1.006162 -1.732451 0.513564 -1.936492 0 -1.936492 
C -0.513564 -1.936492 -1.006162 -1.732451 -1.369306 -1.369306 
C -1.732451 -1.006162 -1.936492 -0.513564 -1.936492 0 
C -1.936492 0.513564 -1.732451 1.006162 -1.369306 1.369306 
C -1.006162 1.732451 -0.513564 1.936492 0 1.936492 
z
" style="stroke: #1f78b4"/>
    </defs>
    <g clip-path="url(#p54edf46c5d)">
     <use xlink:href="#md9977381cf" x="86.905301" y="171.577254" style="fill: #1f78b4; stroke: #1f78b4"/>
     <use xlink:href="#md9977381cf" x="281.137864" y="97.656531" style="fill: #1f78b4; stroke: #1f78b4"/>
     <use xlink:href="#md9977381cf" x="46.640889" y="279.015506" style="fill: #1f78b4; stroke: #1f78b4"/>
     <use xlink:href="#md9977381cf" x="39.986777" y="225.498519" style="fill: #1f78b4; stroke: #1f78b4"/>
     <use xlink:href="#md9977381cf" x="168.569545" y="166.029238" style="fill: #1f78b4; stroke: #1f78b4"/>
     <use xlink:href="#md9977381cf" x="215.623545" y="195.42347" style="fill: #1f78b4; stroke: #1f78b4"/>
     <use xlink:href="#md9977381cf" x="177.958105" y="128.169175" style="fill: #1f78b4; stroke: #1f78b4"/>
     <use xlink:href="#md9977381cf" x="293.454079" y="150.349962" style="fill: #1f78b4; stroke: #1f78b4"/>
     <use xlink:href="#md9977381cf" x="285.93321" y="198.752816" style="fill: #1f78b4; stroke: #1f78b4"/>
     <use xlink:href="#md9977381cf" x="339.717751" y="181.556008" style="fill: #1f78b4; stroke: #1f78b4"/>
     <use xlink:href="#md9977381cf" x="189.035452" y="315.609917" style="fill: #1f78b4; stroke: #1f78b4"/>
     <use xlink:href="#md9977381cf" x="106.54425" y="313.504057" style="fill: #1f78b4; stroke: #1f78b4"/>
     <use xlink:href="#md9977381cf" x="216.069008" y="90.463807" style="fill: #1f78b4; stroke: #1f78b4"/>
     <use xlink:href="#md9977381cf" x="420.813223" y="84.199699" style="fill: #1f78b4; stroke: #1f78b4"/>
     <use xlink:href="#md9977381cf" x="355.336892" y="73.68267" style="fill: #1f78b4; stroke: #1f78b4"/>
     <use xlink:href="#md9977381cf" x="273.747056" y="51.049696" style="fill: #1f78b4; stroke: #1f78b4"/>
     <use xlink:href="#md9977381cf" x="203.103606" y="29.990083" style="fill: #1f78b4; stroke: #1f78b4"/>
     <use xlink:href="#md9977381cf" x="158.098666" y="68.428527" style="fill: #1f78b4; stroke: #1f78b4"/>
     <use xlink:href="#md9977381cf" x="382.022396" y="121.864271" style="fill: #1f78b4; stroke: #1f78b4"/>
     <use xlink:href="#md9977381cf" x="296.393442" y="224.897113" style="fill: #1f78b4; stroke: #1f78b4"/>
     <use xlink:href="#md9977381cf" x="259.251744" y="282.520325" style="fill: #1f78b4; stroke: #1f78b4"/>
    </g>
   </g>
   <g id="text_1">
    <g clip-path="url(#p54edf46c5d)">
     <!-- 0 -->
     <g transform="translate(83.724051 174.336629) scale(0.1 -0.1)">
      <defs>
       <path id="DejaVuSans-30" d="M 2034 4250 
Q 1547 4250 1301 3770 
Q 1056 3291 1056 2328 
Q 1056 1369 1301 889 
Q 1547 409 2034 409 
Q 2525 409 2770 889 
Q 3016 1369 3016 2328 
Q 3016 3291 2770 3770 
Q 2525 4250 2034 4250 
z
M 2034 4750 
Q 2819 4750 3233 4129 
Q 3647 3509 3647 2328 
Q 3647 1150 3233 529 
Q 2819 -91 2034 -91 
Q 1250 -91 836 529 
Q 422 1150 422 2328 
Q 422 3509 836 4129 
Q 1250 4750 2034 4750 
z
" transform="scale(0.015625)"/>
      </defs>
      <use xlink:href="#DejaVuSans-30"/>
     </g>
    </g>
   </g>
   <g id="text_2">
    <g clip-path="url(#p54edf46c5d)">
     <!-- 1 -->
     <g transform="translate(277.956614 100.415906) scale(0.1 -0.1)">
      <defs>
       <path id="DejaVuSans-31" d="M 794 531 
L 1825 531 
L 1825 4091 
L 703 3866 
L 703 4441 
L 1819 4666 
L 2450 4666 
L 2450 531 
L 3481 531 
L 3481 0 
L 794 0 
L 794 531 
z
" transform="scale(0.015625)"/>
      </defs>
      <use xlink:href="#DejaVuSans-31"/>
     </g>
    </g>
   </g>
   <g id="text_3">
    <g clip-path="url(#p54edf46c5d)">
     <!-- 2 -->
     <g transform="translate(43.459639 281.774881) scale(0.1 -0.1)">
      <defs>
       <path id="DejaVuSans-32" d="M 1228 531 
L 3431 531 
L 3431 0 
L 469 0 
L 469 531 
Q 828 903 1448 1529 
Q 2069 2156 2228 2338 
Q 2531 2678 2651 2914 
Q 2772 3150 2772 3378 
Q 2772 3750 2511 3984 
Q 2250 4219 1831 4219 
Q 1534 4219 1204 4116 
Q 875 4013 500 3803 
L 500 4441 
Q 881 4594 1212 4672 
Q 1544 4750 1819 4750 
Q 2544 4750 2975 4387 
Q 3406 4025 3406 3419 
Q 3406 3131 3298 2873 
Q 3191 2616 2906 2266 
Q 2828 2175 2409 1742 
Q 1991 1309 1228 531 
z
" transform="scale(0.015625)"/>
      </defs>
      <use xlink:href="#DejaVuSans-32"/>
     </g>
    </g>
   </g>
   <g id="text_4">
    <g clip-path="url(#p54edf46c5d)">
     <!-- 3 -->
     <g transform="translate(36.805527 228.257894) scale(0.1 -0.1)">
      <defs>
       <path id="DejaVuSans-33" d="M 2597 2516 
Q 3050 2419 3304 2112 
Q 3559 1806 3559 1356 
Q 3559 666 3084 287 
Q 2609 -91 1734 -91 
Q 1441 -91 1130 -33 
Q 819 25 488 141 
L 488 750 
Q 750 597 1062 519 
Q 1375 441 1716 441 
Q 2309 441 2620 675 
Q 2931 909 2931 1356 
Q 2931 1769 2642 2001 
Q 2353 2234 1838 2234 
L 1294 2234 
L 1294 2753 
L 1863 2753 
Q 2328 2753 2575 2939 
Q 2822 3125 2822 3475 
Q 2822 3834 2567 4026 
Q 2313 4219 1838 4219 
Q 1578 4219 1281 4162 
Q 984 4106 628 3988 
L 628 4550 
Q 988 4650 1302 4700 
Q 1616 4750 1894 4750 
Q 2613 4750 3031 4423 
Q 3450 4097 3450 3541 
Q 3450 3153 3228 2886 
Q 3006 2619 2597 2516 
z
" transform="scale(0.015625)"/>
      </defs>
      <use xlink:href="#DejaVuSans-33"/>
     </g>
    </g>
   </g>
   <g id="text_5">
    <g clip-path="url(#p54edf46c5d)">
     <!-- 4 -->
     <g transform="translate(165.388295 168.788613) scale(0.1 -0.1)">
      <defs>
       <path id="DejaVuSans-34" d="M 2419 4116 
L 825 1625 
L 2419 1625 
L 2419 4116 
z
M 2253 4666 
L 3047 4666 
L 3047 1625 
L 3713 1625 
L 3713 1100 
L 3047 1100 
L 3047 0 
L 2419 0 
L 2419 1100 
L 313 1100 
L 313 1709 
L 2253 4666 
z
" transform="scale(0.015625)"/>
      </defs>
      <use xlink:href="#DejaVuSans-34"/>
     </g>
    </g>
   </g>
   <g id="text_6">
    <g clip-path="url(#p54edf46c5d)">
     <!-- 5 -->
     <g transform="translate(212.442295 198.182845) scale(0.1 -0.1)">
      <defs>
       <path id="DejaVuSans-35" d="M 691 4666 
L 3169 4666 
L 3169 4134 
L 1269 4134 
L 1269 2991 
Q 1406 3038 1543 3061 
Q 1681 3084 1819 3084 
Q 2600 3084 3056 2656 
Q 3513 2228 3513 1497 
Q 3513 744 3044 326 
Q 2575 -91 1722 -91 
Q 1428 -91 1123 -41 
Q 819 9 494 109 
L 494 744 
Q 775 591 1075 516 
Q 1375 441 1709 441 
Q 2250 441 2565 725 
Q 2881 1009 2881 1497 
Q 2881 1984 2565 2268 
Q 2250 2553 1709 2553 
Q 1456 2553 1204 2497 
Q 953 2441 691 2322 
L 691 4666 
z
" transform="scale(0.015625)"/>
      </defs>
      <use xlink:href="#DejaVuSans-35"/>
     </g>
    </g>
   </g>
   <g id="text_7">
    <g clip-path="url(#p54edf46c5d)">
     <!-- 6 -->
     <g transform="translate(174.776855 130.92855) scale(0.1 -0.1)">
      <defs>
       <path id="DejaVuSans-36" d="M 2113 2584 
Q 1688 2584 1439 2293 
Q 1191 2003 1191 1497 
Q 1191 994 1439 701 
Q 1688 409 2113 409 
Q 2538 409 2786 701 
Q 3034 994 3034 1497 
Q 3034 2003 2786 2293 
Q 2538 2584 2113 2584 
z
M 3366 4563 
L 3366 3988 
Q 3128 4100 2886 4159 
Q 2644 4219 2406 4219 
Q 1781 4219 1451 3797 
Q 1122 3375 1075 2522 
Q 1259 2794 1537 2939 
Q 1816 3084 2150 3084 
Q 2853 3084 3261 2657 
Q 3669 2231 3669 1497 
Q 3669 778 3244 343 
Q 2819 -91 2113 -91 
Q 1303 -91 875 529 
Q 447 1150 447 2328 
Q 447 3434 972 4092 
Q 1497 4750 2381 4750 
Q 2619 4750 2861 4703 
Q 3103 4656 3366 4563 
z
" transform="scale(0.015625)"/>
      </defs>
      <use xlink:href="#DejaVuSans-36"/>
     </g>
    </g>
   </g>
   <g id="text_8">
    <g clip-path="url(#p54edf46c5d)">
     <!-- 7 -->
     <g transform="translate(290.272829 153.109337) scale(0.1 -0.1)">
      <defs>
       <path id="DejaVuSans-37" d="M 525 4666 
L 3525 4666 
L 3525 4397 
L 1831 0 
L 1172 0 
L 2766 4134 
L 525 4134 
L 525 4666 
z
" transform="scale(0.015625)"/>
      </defs>
      <use xlink:href="#DejaVuSans-37"/>
     </g>
    </g>
   </g>
   <g id="text_9">
    <g clip-path="url(#p54edf46c5d)">
     <!-- 8 -->
     <g transform="translate(282.75196 201.512191) scale(0.1 -0.1)">
      <defs>
       <path id="DejaVuSans-38" d="M 2034 2216 
Q 1584 2216 1326 1975 
Q 1069 1734 1069 1313 
Q 1069 891 1326 650 
Q 1584 409 2034 409 
Q 2484 409 2743 651 
Q 3003 894 3003 1313 
Q 3003 1734 2745 1975 
Q 2488 2216 2034 2216 
z
M 1403 2484 
Q 997 2584 770 2862 
Q 544 3141 544 3541 
Q 544 4100 942 4425 
Q 1341 4750 2034 4750 
Q 2731 4750 3128 4425 
Q 3525 4100 3525 3541 
Q 3525 3141 3298 2862 
Q 3072 2584 2669 2484 
Q 3125 2378 3379 2068 
Q 3634 1759 3634 1313 
Q 3634 634 3220 271 
Q 2806 -91 2034 -91 
Q 1263 -91 848 271 
Q 434 634 434 1313 
Q 434 1759 690 2068 
Q 947 2378 1403 2484 
z
M 1172 3481 
Q 1172 3119 1398 2916 
Q 1625 2713 2034 2713 
Q 2441 2713 2670 2916 
Q 2900 3119 2900 3481 
Q 2900 3844 2670 4047 
Q 2441 4250 2034 4250 
Q 1625 4250 1398 4047 
Q 1172 3844 1172 3481 
z
" transform="scale(0.015625)"/>
      </defs>
      <use xlink:href="#DejaVuSans-38"/>
     </g>
    </g>
   </g>
   <g id="text_10">
    <g clip-path="url(#p54edf46c5d)">
     <!-- 9 -->
     <g transform="translate(336.536501 184.315383) scale(0.1 -0.1)">
      <defs>
       <path id="DejaVuSans-39" d="M 703 97 
L 703 672 
Q 941 559 1184 500 
Q 1428 441 1663 441 
Q 2288 441 2617 861 
Q 2947 1281 2994 2138 
Q 2813 1869 2534 1725 
Q 2256 1581 1919 1581 
Q 1219 1581 811 2004 
Q 403 2428 403 3163 
Q 403 3881 828 4315 
Q 1253 4750 1959 4750 
Q 2769 4750 3195 4129 
Q 3622 3509 3622 2328 
Q 3622 1225 3098 567 
Q 2575 -91 1691 -91 
Q 1453 -91 1209 -44 
Q 966 3 703 97 
z
M 1959 2075 
Q 2384 2075 2632 2365 
Q 2881 2656 2881 3163 
Q 2881 3666 2632 3958 
Q 2384 4250 1959 4250 
Q 1534 4250 1286 3958 
Q 1038 3666 1038 3163 
Q 1038 2656 1286 2365 
Q 1534 2075 1959 2075 
z
" transform="scale(0.015625)"/>
      </defs>
      <use xlink:href="#DejaVuSans-39"/>
     </g>
    </g>
   </g>
   <g id="text_11">
    <g clip-path="url(#p54edf46c5d)">
     <!-- 10 -->
     <g transform="translate(182.672952 318.369292) scale(0.1 -0.1)">
      <use xlink:href="#DejaVuSans-31"/>
      <use xlink:href="#DejaVuSans-30" x="63.623047"/>
     </g>
    </g>
   </g>
   <g id="text_12">
    <g clip-path="url(#p54edf46c5d)">
     <!-- 11 -->
     <g transform="translate(100.18175 316.263432) scale(0.1 -0.1)">
      <use xlink:href="#DejaVuSans-31"/>
      <use xlink:href="#DejaVuSans-31" x="63.623047"/>
     </g>
    </g>
   </g>
   <g id="text_13">
    <g clip-path="url(#p54edf46c5d)">
     <!-- 12 -->
     <g transform="translate(209.706508 93.223182) scale(0.1 -0.1)">
      <use xlink:href="#DejaVuSans-31"/>
      <use xlink:href="#DejaVuSans-32" x="63.623047"/>
     </g>
    </g>
   </g>
   <g id="text_14">
    <g clip-path="url(#p54edf46c5d)">
     <!-- 13 -->
     <g transform="translate(414.450723 86.959074) scale(0.1 -0.1)">
      <use xlink:href="#DejaVuSans-31"/>
      <use xlink:href="#DejaVuSans-33" x="63.623047"/>
     </g>
    </g>
   </g>
   <g id="text_15">
    <g clip-path="url(#p54edf46c5d)">
     <!-- 14 -->
     <g transform="translate(348.974392 76.442045) scale(0.1 -0.1)">
      <use xlink:href="#DejaVuSans-31"/>
      <use xlink:href="#DejaVuSans-34" x="63.623047"/>
     </g>
    </g>
   </g>
   <g id="text_16">
    <g clip-path="url(#p54edf46c5d)">
     <!-- 15 -->
     <g transform="translate(267.384556 53.809071) scale(0.1 -0.1)">
      <use xlink:href="#DejaVuSans-31"/>
      <use xlink:href="#DejaVuSans-35" x="63.623047"/>
     </g>
    </g>
   </g>
   <g id="text_17">
    <g clip-path="url(#p54edf46c5d)">
     <!-- 16 -->
     <g transform="translate(196.741106 32.749458) scale(0.1 -0.1)">
      <use xlink:href="#DejaVuSans-31"/>
      <use xlink:href="#DejaVuSans-36" x="63.623047"/>
     </g>
    </g>
   </g>
   <g id="text_18">
    <g clip-path="url(#p54edf46c5d)">
     <!-- 17 -->
     <g transform="translate(151.736166 71.187902) scale(0.1 -0.1)">
      <use xlink:href="#DejaVuSans-31"/>
      <use xlink:href="#DejaVuSans-37" x="63.623047"/>
     </g>
    </g>
   </g>
   <g id="text_19">
    <g clip-path="url(#p54edf46c5d)">
     <!-- 18 -->
     <g transform="translate(375.659896 124.623646) scale(0.1 -0.1)">
      <use xlink:href="#DejaVuSans-31"/>
      <use xlink:href="#DejaVuSans-38" x="63.623047"/>
     </g>
    </g>
   </g>
   <g id="text_20">
    <g clip-path="url(#p54edf46c5d)">
     <!-- 19 -->
     <g transform="translate(290.030942 227.656488) scale(0.1 -0.1)">
      <use xlink:href="#DejaVuSans-31"/>
      <use xlink:href="#DejaVuSans-39" x="63.623047"/>
     </g>
    </g>
   </g>
   <g id="text_21">
    <g clip-path="url(#p54edf46c5d)">
     <!-- 20 -->
     <g transform="translate(252.889244 285.2797) scale(0.1 -0.1)">
      <use xlink:href="#DejaVuSans-32"/>
      <use xlink:href="#DejaVuSans-30" x="63.623047"/>
     </g>
    </g>
   </g>
  </g>
 </g>
 <defs>
  <clipPath id="p54edf46c5d">
   <rect x="0" y="0" width="460.8" height="345.6"/>
  </clipPath>
 </defs>
</svg>
