<?xml version="1.0" encoding="utf-8" standalone="no"?>
<!DOCTYPE svg PUBLIC "-//W3C//DTD SVG 1.1//EN"
  "http://www.w3.org/Graphics/SVG/1.1/DTD/svg11.dtd">
<svg xmlns:xlink="http://www.w3.org/1999/xlink" width="460.8pt" height="345.6pt" viewBox="0 0 460.8 345.6" xmlns="http://www.w3.org/2000/svg" version="1.1">
 <metadata>
  <rdf:RDF xmlns:dc="http://purl.org/dc/elements/1.1/" xmlns:cc="http://creativecommons.org/ns#" xmlns:rdf="http://www.w3.org/1999/02/22-rdf-syntax-ns#">
   <cc:Work>
    <dc:type rdf:resource="http://purl.org/dc/dcmitype/StillImage"/>
    <dc:date>2023-10-10T10:55:17.732315</dc:date>
    <dc:format>image/svg+xml</dc:format>
    <dc:creator>
     <cc:Agent>
      <dc:title>Matplotlib v3.6.1, https://matplotlib.org/</dc:title>
     </cc:Agent>
    </dc:creator>
   </cc:Work>
  </rdf:RDF>
 </metadata>
 <defs>
  <style type="text/css">*{stroke-linejoin: round; stroke-linecap: butt}</style>
 </defs>
 <g id="figure_1">
  <g id="patch_1">
   <path d="M 0 345.6 
L 460.8 345.6 
L 460.8 0 
L 0 0 
z
" style="fill: #ffffff"/>
  </g>
  <g id="axes_1">
   <g id="patch_2">
    <path d="M 150.165094 273.883377 
Q 152.128128 258.125415 153.952953 243.476911 
" clip-path="url(#pd45c9bded7)" style="fill: none; stroke: #000000; stroke-linecap: round"/>
    <path d="M 151.473819 247.198993 
L 153.952953 243.476911 
L 155.443138 247.693467 
L 151.473819 247.198993 
z
" clip-path="url(#pd45c9bded7)" style="stroke: #000000; stroke-linecap: round"/>
   </g>
   <g id="patch_3">
    <path d="M 148.194611 274.9373 
Q 141.170626 271.420302 135.146355 268.403873 
" clip-path="url(#pd45c9bded7)" style="fill: none; stroke: #000000; stroke-linecap: round"/>
    <path d="M 137.827597 271.983111 
L 135.146355 268.403873 
L 139.618491 268.406422 
L 137.827597 271.983111 
z
" clip-path="url(#pd45c9bded7)" style="stroke: #000000; stroke-linecap: round"/>
   </g>
   <g id="patch_4">
    <path d="M 154.091385 242.365662 
Q 152.128351 258.123625 150.303527 272.772129 
" clip-path="url(#pd45c9bded7)" style="fill: none; stroke: #000000; stroke-linecap: round"/>
    <path d="M 152.782661 269.050047 
L 150.303527 272.772129 
L 148.813341 268.555573 
L 152.782661 269.050047 
z
" clip-path="url(#pd45c9bded7)" style="stroke: #000000; stroke-linecap: round"/>
   </g>
   <g id="patch_5">
    <path d="M 154.315171 238.508783 
Q 154.16302 219.493262 154.019815 201.595738 
" clip-path="url(#pd45c9bded7)" style="fill: none; stroke: #000000; stroke-linecap: round"/>
    <path d="M 152.051884 205.611613 
L 154.019815 201.595738 
L 156.051756 205.579608 
L 152.051884 205.611613 
z
" clip-path="url(#pd45c9bded7)" style="stroke: #000000; stroke-linecap: round"/>
   </g>
   <g id="patch_6">
    <path d="M 209.687139 240.616812 
Q 209.879028 228.404736 210.053351 217.310557 
" clip-path="url(#pd45c9bded7)" style="fill: none; stroke: #000000; stroke-linecap: round"/>
    <path d="M 207.990754 221.278641 
L 210.053351 217.310557 
L 211.99026 221.341485 
L 207.990754 221.278641 
z
" clip-path="url(#pd45c9bded7)" style="stroke: #000000; stroke-linecap: round"/>
   </g>
   <g id="patch_7">
    <path d="M 207.813389 243.138811 
Q 171.037923 254.795603 135.328232 266.114575 
" clip-path="url(#pd45c9bded7)" style="fill: none; stroke: #000000; stroke-linecap: round"/>
    <path d="M 139.745579 266.812467 
L 135.328232 266.114575 
L 138.536954 262.999433 
L 139.745579 266.812467 
z
" clip-path="url(#pd45c9bded7)" style="stroke: #000000; stroke-linecap: round"/>
   </g>
   <g id="patch_8">
    <path d="M 211.413801 241.740085 
Q 224.313605 235.760803 236.199044 230.251697 
" clip-path="url(#pd45c9bded7)" style="fill: none; stroke: #000000; stroke-linecap: round"/>
    <path d="M 231.728869 230.119297 
L 236.199044 230.251697 
L 233.411019 233.748397 
L 231.728869 230.119297 
z
" clip-path="url(#pd45c9bded7)" style="stroke: #000000; stroke-linecap: round"/>
   </g>
   <g id="patch_9">
    <path d="M 211.512524 241.99619 
Q 244.446071 232.087801 276.308989 222.501522 
" clip-path="url(#pd45c9bded7)" style="fill: none; stroke: #000000; stroke-linecap: round"/>
    <path d="M 271.902385 221.738737 
L 276.308989 222.501522 
L 273.054799 225.569134 
L 271.902385 221.738737 
z
" clip-path="url(#pd45c9bded7)" style="stroke: #000000; stroke-linecap: round"/>
   </g>
   <g id="patch_10">
    <path d="M 134.148332 267.90415 
Q 141.172317 271.421149 147.196588 274.437577 
" clip-path="url(#pd45c9bded7)" style="fill: none; stroke: #000000; stroke-linecap: round"/>
    <path d="M 144.515346 270.858339 
L 147.196588 274.437577 
L 142.724453 274.435028 
L 144.515346 270.858339 
z
" clip-path="url(#pd45c9bded7)" style="stroke: #000000; stroke-linecap: round"/>
   </g>
   <g id="patch_11">
    <path d="M 134.260429 266.453038 
Q 171.035895 254.796246 206.745585 243.477275 
" clip-path="url(#pd45c9bded7)" style="fill: none; stroke: #000000; stroke-linecap: round"/>
    <path d="M 202.328239 242.779383 
L 206.745585 243.477275 
L 203.536864 246.592416 
L 202.328239 242.779383 
z
" clip-path="url(#pd45c9bded7)" style="stroke: #000000; stroke-linecap: round"/>
   </g>
   <g id="patch_12">
    <path d="M 130.616105 267.752978 
Q 110.230544 275.853502 90.883992 283.541159 
" clip-path="url(#pd45c9bded7)" style="fill: none; stroke: #000000; stroke-linecap: round"/>
    <path d="M 95.339824 283.922678 
L 90.883992 283.541159 
L 93.862707 280.205405 
L 95.339824 283.922678 
z
" clip-path="url(#pd45c9bded7)" style="stroke: #000000; stroke-linecap: round"/>
   </g>
   <g id="patch_13">
    <path d="M 132.042227 268.937646 
Q 127.62587 291.323757 123.425909 312.612976 
" clip-path="url(#pd45c9bded7)" style="fill: none; stroke: #000000; stroke-linecap: round"/>
    <path d="M 126.162292 309.075716 
L 123.425909 312.612976 
L 122.237931 308.301514 
L 126.162292 309.075716 
z
" clip-path="url(#pd45c9bded7)" style="stroke: #000000; stroke-linecap: round"/>
   </g>
   <g id="patch_14">
    <path d="M 132.997937 265.193628 
Q 143.205094 232.792729 153.076316 201.458202 
" clip-path="url(#pd45c9bded7)" style="fill: none; stroke: #000000; stroke-linecap: round"/>
    <path d="M 149.966854 204.672427 
L 153.076316 201.458202 
L 153.782019 205.874307 
L 149.966854 204.672427 
z
" clip-path="url(#pd45c9bded7)" style="stroke: #000000; stroke-linecap: round"/>
   </g>
   <g id="patch_15">
    <path d="M 130.930413 268.282567 
Q 114.10246 282.37746 98.131609 295.754454 
" clip-path="url(#pd45c9bded7)" style="fill: none; stroke: #000000; stroke-linecap: round"/>
    <path d="M 102.482283 294.719254 
L 98.131609 295.754454 
L 99.913854 291.652795 
L 102.482283 294.719254 
z
" clip-path="url(#pd45c9bded7)" style="stroke: #000000; stroke-linecap: round"/>
   </g>
   <g id="patch_16">
    <path d="M 131.388762 268.67553 
Q 119.477288 287.650878 108.160231 305.6793 
" clip-path="url(#pd45c9bded7)" style="fill: none; stroke: #000000; stroke-linecap: round"/>
    <path d="M 111.980796 303.354803 
L 108.160231 305.6793 
L 108.592972 301.22815 
L 111.980796 303.354803 
z
" clip-path="url(#pd45c9bded7)" style="stroke: #000000; stroke-linecap: round"/>
   </g>
   <g id="patch_17">
    <path d="M 130.483458 267.108968 
Q 111.492019 267.812716 93.617847 268.475063 
" clip-path="url(#pd45c9bded7)" style="fill: none; stroke: #000000; stroke-linecap: round"/>
    <path d="M 97.689165 270.325568 
L 93.617847 268.475063 
L 97.541042 266.328312 
L 97.689165 270.325568 
z
" clip-path="url(#pd45c9bded7)" style="stroke: #000000; stroke-linecap: round"/>
   </g>
   <g id="patch_18">
    <path d="M 90.0885 215.501054 
Q 111.979787 220.527773 132.781398 225.304278 
" clip-path="url(#pd45c9bded7)" style="fill: none; stroke: #000000; stroke-linecap: round"/>
    <path d="M 129.330451 222.459816 
L 132.781398 225.304278 
L 128.43526 226.358358 
L 129.330451 222.459816 
z
" clip-path="url(#pd45c9bded7)" style="stroke: #000000; stroke-linecap: round"/>
   </g>
   <g id="patch_19">
    <path d="M 86.661798 213.888893 
Q 74.484329 204.553733 63.19417 195.898779 
" clip-path="url(#pd45c9bded7)" style="fill: none; stroke: #000000; stroke-linecap: round"/>
    <path d="M 65.15192 199.919627 
L 63.19417 195.898779 
L 67.585498 196.745088 
L 65.15192 199.919627 
z
" clip-path="url(#pd45c9bded7)" style="stroke: #000000; stroke-linecap: round"/>
   </g>
   <g id="patch_20">
    <path d="M 133.868462 225.553891 
Q 111.977175 220.527173 91.175564 215.750668 
" clip-path="url(#pd45c9bded7)" style="fill: none; stroke: #000000; stroke-linecap: round"/>
    <path d="M 94.626511 218.59513 
L 91.175564 215.750668 
L 95.521702 214.696587 
L 94.626511 218.59513 
z
" clip-path="url(#pd45c9bded7)" style="stroke: #000000; stroke-linecap: round"/>
   </g>
   <g id="patch_21">
    <path d="M 136.528975 224.208544 
Q 152.893913 186.432366 168.814421 149.682093 
" clip-path="url(#pd45c9bded7)" style="fill: none; stroke: #000000; stroke-linecap: round"/>
    <path d="M 165.389183 152.557463 
L 168.814421 149.682093 
L 169.059574 154.147505 
L 165.389183 152.557463 
z
" clip-path="url(#pd45c9bded7)" style="stroke: #000000; stroke-linecap: round"/>
   </g>
   <g id="patch_22">
    <path d="M 135.806483 227.92259 
Q 136.434544 253.080779 137.034702 277.121283 
" clip-path="url(#pd45c9bded7)" style="fill: none; stroke: #000000; stroke-linecap: round"/>
    <path d="M 138.934252 273.072615 
L 137.034702 277.121283 
L 134.935498 273.172442 
L 138.934252 273.072615 
z
" clip-path="url(#pd45c9bded7)" style="stroke: #000000; stroke-linecap: round"/>
   </g>
   <g id="patch_23">
    <path d="M 134.864882 224.270331 
Q 130.289204 215.473013 126.229428 207.667583 
" clip-path="url(#pd45c9bded7)" style="fill: none; stroke: #000000; stroke-linecap: round"/>
    <path d="M 126.300835 212.139149 
L 126.229428 207.667583 
L 129.849525 210.293397 
L 126.300835 212.139149 
z
" clip-path="url(#pd45c9bded7)" style="stroke: #000000; stroke-linecap: round"/>
   </g>
   <g id="patch_24">
    <path d="M 135.144639 227.823405 
Q 127.917037 249.446886 121.043862 270.009999 
" clip-path="url(#pd45c9bded7)" style="fill: none; stroke: #000000; stroke-linecap: round"/>
    <path d="M 124.208741 266.850324 
L 121.043862 270.009999 
L 120.415049 265.582291 
L 124.208741 266.850324 
z
" clip-path="url(#pd45c9bded7)" style="stroke: #000000; stroke-linecap: round"/>
   </g>
   <g id="patch_25">
    <path d="M 136.710328 227.671925 
Q 147.812808 247.309477 158.365038 265.973773 
" clip-path="url(#pd45c9bded7)" style="fill: none; stroke: #000000; stroke-linecap: round"/>
    <path d="M 158.137419 261.507434 
L 158.365038 265.973773 
L 154.655395 263.476065 
L 158.137419 261.507434 
z
" clip-path="url(#pd45c9bded7)" style="stroke: #000000; stroke-linecap: round"/>
   </g>
   <g id="patch_26">
    <path d="M 80.207522 166.684919 
Q 69.349874 151.369883 59.138846 136.966923 
" clip-path="url(#pd45c9bded7)" style="fill: none; stroke: #000000; stroke-linecap: round"/>
    <path d="M 59.820691 141.386775 
L 59.138846 136.966923 
L 63.083834 139.073358 
L 59.820691 141.386775 
z
" clip-path="url(#pd45c9bded7)" style="stroke: #000000; stroke-linecap: round"/>
   </g>
   <g id="patch_27">
    <path d="M 83.11631 169.011343 
Q 117.662498 183.403897 151.176637 197.366481 
" clip-path="url(#pd45c9bded7)" style="fill: none; stroke: #000000; stroke-linecap: round"/>
    <path d="M 148.253419 193.981988 
L 151.176637 197.366481 
L 146.715111 197.67436 
L 148.253419 193.981988 
z
" clip-path="url(#pd45c9bded7)" style="stroke: #000000; stroke-linecap: round"/>
   </g>
   <g id="patch_28">
    <path d="M 79.398578 168.140346 
Q 60.657285 166.913743 43.031639 165.760157 
" clip-path="url(#pd45c9bded7)" style="fill: none; stroke: #000000; stroke-linecap: round"/>
    <path d="M 46.89248 168.017125 
L 43.031639 165.760157 
L 47.153719 164.025665 
L 46.89248 168.017125 
z
" clip-path="url(#pd45c9bded7)" style="stroke: #000000; stroke-linecap: round"/>
   </g>
   <g id="patch_29">
    <path d="M 79.647604 167.310222 
Q 62.591283 157.607264 46.506754 148.457137 
" clip-path="url(#pd45c9bded7)" style="fill: none; stroke: #000000; stroke-linecap: round"/>
    <path d="M 48.994608 152.173397 
L 46.506754 148.457137 
L 50.972473 148.69661 
L 48.994608 152.173397 
z
" clip-path="url(#pd45c9bded7)" style="stroke: #000000; stroke-linecap: round"/>
   </g>
   <g id="patch_30">
    <path d="M 80.12164 169.779899 
Q 71.0482 181.1526 62.672032 191.651337 
" clip-path="url(#pd45c9bded7)" style="fill: none; stroke: #000000; stroke-linecap: round"/>
    <path d="M 66.730059 189.771866 
L 62.672032 191.651337 
L 63.603271 187.277232 
L 66.730059 189.771866 
z
" clip-path="url(#pd45c9bded7)" style="stroke: #000000; stroke-linecap: round"/>
   </g>
   <g id="patch_31">
    <path d="M 62.304471 195.216742 
Q 74.48194 204.551902 85.772099 213.206856 
" clip-path="url(#pd45c9bded7)" style="fill: none; stroke: #000000; stroke-linecap: round"/>
    <path d="M 83.814349 209.186009 
L 85.772099 213.206856 
L 81.380771 212.360547 
L 83.814349 209.186009 
z
" clip-path="url(#pd45c9bded7)" style="stroke: #000000; stroke-linecap: round"/>
   </g>
   <g id="patch_32">
    <path d="M 61.97477 192.525289 
Q 71.04821 181.152588 79.424378 170.653851 
" clip-path="url(#pd45c9bded7)" style="fill: none; stroke: #000000; stroke-linecap: round"/>
    <path d="M 75.36635 172.533322 
L 79.424378 170.653851 
L 78.493138 175.027956 
L 75.36635 172.533322 
z
" clip-path="url(#pd45c9bded7)" style="stroke: #000000; stroke-linecap: round"/>
   </g>
   <g id="patch_33">
    <path d="M 169.257872 148.658448 
Q 152.892934 186.434626 136.972426 223.184899 
" clip-path="url(#pd45c9bded7)" style="fill: none; stroke: #000000; stroke-linecap: round"/>
    <path d="M 140.397663 220.309529 
L 136.972426 223.184899 
L 136.727273 218.719487 
L 140.397663 220.309529 
z
" clip-path="url(#pd45c9bded7)" style="stroke: #000000; stroke-linecap: round"/>
   </g>
   <g id="patch_34">
    <path d="M 170.992927 145.195518 
Q 190.336937 111.41966 209.125305 78.613988 
" clip-path="url(#pd45c9bded7)" style="fill: none; stroke: #000000; stroke-linecap: round"/>
    <path d="M 205.401856 81.09107 
L 209.125305 78.613988 
L 208.872901 83.078996 
L 205.401856 81.09107 
z
" clip-path="url(#pd45c9bded7)" style="stroke: #000000; stroke-linecap: round"/>
   </g>
   <g id="patch_35">
    <path d="M 209.677413 77.649973 
Q 190.333402 111.425832 171.545034 144.231503 
" clip-path="url(#pd45c9bded7)" style="fill: none; stroke: #000000; stroke-linecap: round"/>
    <path d="M 175.268483 141.754422 
L 171.545034 144.231503 
L 171.797439 139.766496 
L 175.268483 141.754422 
z
" clip-path="url(#pd45c9bded7)" style="stroke: #000000; stroke-linecap: round"/>
   </g>
   <g id="patch_36">
    <path d="M 212.436271 76.704435 
Q 241.991189 88.860458 270.512118 100.591197 
" clip-path="url(#pd45c9bded7)" style="fill: none; stroke: #000000; stroke-linecap: round"/>
    <path d="M 267.573573 97.220002 
L 270.512118 100.591197 
L 266.052035 100.919316 
L 267.573573 97.220002 
z
" clip-path="url(#pd45c9bded7)" style="stroke: #000000; stroke-linecap: round"/>
   </g>
   <g id="patch_37">
    <path d="M 212.083221 74.676862 
Q 224.731433 63.36316 236.546337 52.794843 
" clip-path="url(#pd45c9bded7)" style="fill: none; stroke: #000000; stroke-linecap: round"/>
    <path d="M 232.231621 53.970949 
L 236.546337 52.794843 
L 234.898392 56.952279 
L 232.231621 53.970949 
z
" clip-path="url(#pd45c9bded7)" style="stroke: #000000; stroke-linecap: round"/>
   </g>
   <g id="patch_38">
    <path d="M 211.211918 74.110798 
Q 216.381394 57.289868 221.222432 41.537643 
" clip-path="url(#pd45c9bded7)" style="fill: none; stroke: #000000; stroke-linecap: round"/>
    <path d="M 218.135619 44.773626 
L 221.222432 41.537643 
L 221.959131 45.948683 
L 218.135619 44.773626 
z
" clip-path="url(#pd45c9bded7)" style="stroke: #000000; stroke-linecap: round"/>
   </g>
   <g id="patch_39">
    <path d="M 209.135353 74.747221 
Q 196.193149 64.272875 184.120019 54.501886 
" clip-path="url(#pd45c9bded7)" style="fill: none; stroke: #000000; stroke-linecap: round"/>
    <path d="M 185.971111 58.572938 
L 184.120019 54.501886 
L 188.487515 55.463644 
L 185.971111 58.572938 
z
" clip-path="url(#pd45c9bded7)" style="stroke: #000000; stroke-linecap: round"/>
   </g>
   <g id="patch_40">
    <path d="M 210.394537 74.044088 
Q 207.686155 52.978347 205.120342 33.021512 
" clip-path="url(#pd45c9bded7)" style="fill: none; stroke: #000000; stroke-linecap: round"/>
    <path d="M 203.646744 37.243894 
L 205.120342 33.021512 
L 207.614089 36.73382 
L 203.646744 37.243894 
z
" clip-path="url(#pd45c9bded7)" style="stroke: #000000; stroke-linecap: round"/>
   </g>
   <g id="patch_41">
    <path d="M 209.736756 74.253133 
Q 200.330792 56.445894 191.447014 39.62725 
" clip-path="url(#pd45c9bded7)" style="fill: none; stroke: #000000; stroke-linecap: round"/>
    <path d="M 191.546791 44.098273 
L 191.447014 39.62725 
L 195.083698 42.230043 
L 191.546791 44.098273 
z
" clip-path="url(#pd45c9bded7)" style="stroke: #000000; stroke-linecap: round"/>
   </g>
   <g id="patch_42">
    <path d="M 41.91712 165.687213 
Q 60.658413 166.913816 78.284059 168.067402 
" clip-path="url(#pd45c9bded7)" style="fill: none; stroke: #000000; stroke-linecap: round"/>
    <path d="M 74.423218 165.810433 
L 78.284059 168.067402 
L 74.16198 169.801894 
L 74.423218 165.810433 
z
" clip-path="url(#pd45c9bded7)" style="stroke: #000000; stroke-linecap: round"/>
   </g>
   <g id="patch_43">
    <path d="M 183.249209 53.797125 
Q 196.191413 64.271471 208.264543 74.04246 
" clip-path="url(#pd45c9bded7)" style="fill: none; stroke: #000000; stroke-linecap: round"/>
    <path d="M 206.413451 69.971408 
L 208.264543 74.04246 
L 203.897047 73.080702 
L 206.413451 69.971408 
z
" clip-path="url(#pd45c9bded7)" style="stroke: #000000; stroke-linecap: round"/>
   </g>
   <g id="patch_44">
    <path d="M 137.062631 278.240049 
Q 136.43457 253.08186 135.834412 229.041357 
" clip-path="url(#pd45c9bded7)" style="fill: none; stroke: #000000; stroke-linecap: round"/>
    <path d="M 133.934862 233.090024 
L 135.834412 229.041357 
L 137.933616 232.990197 
L 133.934862 233.090024 
z
" clip-path="url(#pd45c9bded7)" style="stroke: #000000; stroke-linecap: round"/>
   </g>
   <g id="patch_45">
    <path d="M 123.209569 313.709585 
Q 127.625926 291.323474 131.825886 270.034255 
" clip-path="url(#pd45c9bded7)" style="fill: none; stroke: #000000; stroke-linecap: round"/>
    <path d="M 129.089503 273.571515 
L 131.825886 270.034255 
L 133.013865 274.345718 
L 129.089503 273.571515 
z
" clip-path="url(#pd45c9bded7)" style="stroke: #000000; stroke-linecap: round"/>
   </g>
   <g id="patch_46">
    <path d="M 45.531732 147.902469 
Q 62.588052 157.605427 78.672582 166.755554 
" clip-path="url(#pd45c9bded7)" style="fill: none; stroke: #000000; stroke-linecap: round"/>
    <path d="M 76.184728 163.039294 
L 78.672582 166.755554 
L 74.206862 166.516081 
L 76.184728 163.039294 
z
" clip-path="url(#pd45c9bded7)" style="stroke: #000000; stroke-linecap: round"/>
   </g>
   <g id="patch_47">
    <path d="M 329.526694 270.554929 
Q 315.760281 257.862151 302.815839 245.92724 
" clip-path="url(#pd45c9bded7)" style="fill: none; stroke: #000000; stroke-linecap: round"/>
    <path d="M 304.400902 250.109055 
L 302.815839 245.92724 
L 307.112329 247.168279 
L 304.400902 250.109055 
z
" clip-path="url(#pd45c9bded7)" style="stroke: #000000; stroke-linecap: round"/>
   </g>
   <g id="patch_48">
    <path d="M 286.099558 60.061404 
Q 279.999969 79.981656 274.22772 98.832868 
" clip-path="url(#pd45c9bded7)" style="fill: none; stroke: #000000; stroke-linecap: round"/>
    <path d="M 277.311208 95.593717 
L 274.22772 98.832868 
L 273.486491 94.422587 
L 277.311208 95.593717 
z
" clip-path="url(#pd45c9bded7)" style="stroke: #000000; stroke-linecap: round"/>
   </g>
   <g id="patch_49">
    <path d="M 352.093606 177.356957 
Q 337.113589 169.909564 323.134708 162.959892 
" clip-path="url(#pd45c9bded7)" style="fill: none; stroke: #000000; stroke-linecap: round"/>
    <path d="M 325.826135 166.531478 
L 323.134708 162.959892 
L 327.606833 162.949702 
L 325.826135 166.531478 
z
" clip-path="url(#pd45c9bded7)" style="stroke: #000000; stroke-linecap: round"/>
   </g>
   <g id="patch_50">
    <path d="M 418.886831 140.527978 
Q 400.837238 142.707677 383.897615 144.753335 
" clip-path="url(#pd45c9bded7)" style="fill: none; stroke: #000000; stroke-linecap: round"/>
    <path d="M 388.108545 146.259346 
L 383.897615 144.753335 
L 387.628983 142.288198 
L 388.108545 146.259346 
z
" clip-path="url(#pd45c9bded7)" style="stroke: #000000; stroke-linecap: round"/>
   </g>
   <g id="patch_51">
    <path d="M 120.689527 271.070094 
Q 127.917129 249.446613 134.790304 228.883501 
" clip-path="url(#pd45c9bded7)" style="fill: none; stroke: #000000; stroke-linecap: round"/>
    <path d="M 131.625426 232.043176 
L 134.790304 228.883501 
L 135.419117 233.311209 
L 131.625426 232.043176 
z
" clip-path="url(#pd45c9bded7)" style="stroke: #000000; stroke-linecap: round"/>
   </g>
   <g id="patch_52">
    <path d="M 158.917266 266.950528 
Q 147.814786 247.312976 137.262556 228.648679 
" clip-path="url(#pd45c9bded7)" style="fill: none; stroke: #000000; stroke-linecap: round"/>
    <path d="M 137.490175 233.115019 
L 137.262556 228.648679 
L 140.972199 231.146388 
L 137.490175 233.115019 
z
" clip-path="url(#pd45c9bded7)" style="stroke: #000000; stroke-linecap: round"/>
   </g>
   <g id="patch_53">
    <path d="M 97.274794 296.472113 
Q 114.102746 282.377221 130.073597 269.000226 
" clip-path="url(#pd45c9bded7)" style="fill: none; stroke: #000000; stroke-linecap: round"/>
    <path d="M 125.722923 270.035426 
L 130.073597 269.000226 
L 128.291353 273.101885 
L 125.722923 270.035426 
z
" clip-path="url(#pd45c9bded7)" style="stroke: #000000; stroke-linecap: round"/>
   </g>
   <g id="patch_54">
    <path d="M 107.564202 306.628794 
Q 119.475676 287.653446 130.792732 269.625024 
" clip-path="url(#pd45c9bded7)" style="fill: none; stroke: #000000; stroke-linecap: round"/>
    <path d="M 126.972168 271.949521 
L 130.792732 269.625024 
L 130.359991 274.076174 
L 126.972168 271.949521 
z
" clip-path="url(#pd45c9bded7)" style="stroke: #000000; stroke-linecap: round"/>
   </g>
   <g id="patch_55">
    <path d="M 297.385336 259.093974 
Q 288.733061 241.230059 280.568143 224.372366 
" clip-path="url(#pd45c9bded7)" style="fill: none; stroke: #000000; stroke-linecap: round"/>
    <path d="M 280.511781 228.844147 
L 280.568143 224.372366 
L 284.11175 227.100524 
L 280.511781 228.844147 
z
" clip-path="url(#pd45c9bded7)" style="stroke: #000000; stroke-linecap: round"/>
   </g>
   <g id="patch_56">
    <path d="M 415.51497 162.798234 
Q 399.048979 154.39827 383.578916 146.506368 
" clip-path="url(#pd45c9bded7)" style="fill: none; stroke: #000000; stroke-linecap: round"/>
    <path d="M 386.233206 150.105639 
L 383.578916 146.506368 
L 388.050906 146.542499 
L 386.233206 150.105639 
z
" clip-path="url(#pd45c9bded7)" style="stroke: #000000; stroke-linecap: round"/>
   </g>
   <g id="patch_57">
    <path d="M 210.070854 216.196658 
Q 209.878965 228.408734 209.704642 239.502913 
" clip-path="url(#pd45c9bded7)" style="fill: none; stroke: #000000; stroke-linecap: round"/>
    <path d="M 211.767239 235.534829 
L 209.704642 239.502913 
L 207.767733 235.471985 
L 211.767239 235.534829 
z
" clip-path="url(#pd45c9bded7)" style="stroke: #000000; stroke-linecap: round"/>
   </g>
   <g id="patch_58">
    <path d="M 212.031519 214.38914 
Q 236.76672 216.057685 260.386421 217.650983 
" clip-path="url(#pd45c9bded7)" style="fill: none; stroke: #000000; stroke-linecap: round"/>
    <path d="M 256.530098 215.386304 
L 260.386421 217.650983 
L 256.260884 219.377235 
L 256.530098 215.386304 
z
" clip-path="url(#pd45c9bded7)" style="stroke: #000000; stroke-linecap: round"/>
   </g>
   <g id="patch_59">
    <path d="M 208.234985 213.736085 
Q 182.04709 206.399526 156.93578 199.364574 
" clip-path="url(#pd45c9bded7)" style="fill: none; stroke: #000000; stroke-linecap: round"/>
    <path d="M 160.247957 202.369485 
L 156.93578 199.364574 
L 161.327015 198.517779 
L 160.247957 202.369485 
z
" clip-path="url(#pd45c9bded7)" style="stroke: #000000; stroke-linecap: round"/>
   </g>
   <g id="patch_60">
    <path d="M 58.495947 136.060095 
Q 69.353595 151.375131 79.564623 165.77809 
" clip-path="url(#pd45c9bded7)" style="fill: none; stroke: #000000; stroke-linecap: round"/>
    <path d="M 78.882778 161.358239 
L 79.564623 165.77809 
L 75.619635 163.671656 
L 78.882778 161.358239 
z
" clip-path="url(#pd45c9bded7)" style="stroke: #000000; stroke-linecap: round"/>
   </g>
   <g id="patch_61">
    <path d="M 204.977734 31.912307 
Q 207.686116 52.978048 210.251929 72.934883 
" clip-path="url(#pd45c9bded7)" style="fill: none; stroke: #000000; stroke-linecap: round"/>
    <path d="M 211.725527 68.712501 
L 210.251929 72.934883 
L 207.758183 69.222575 
L 211.725527 68.712501 
z
" clip-path="url(#pd45c9bded7)" style="stroke: #000000; stroke-linecap: round"/>
   </g>
   <g id="patch_62">
    <path d="M 190.926033 38.640935 
Q 200.331996 56.448174 209.215774 73.266818 
" clip-path="url(#pd45c9bded7)" style="fill: none; stroke: #000000; stroke-linecap: round"/>
    <path d="M 209.115998 68.795795 
L 209.215774 73.266818 
L 205.57909 70.664026 
L 209.115998 68.795795 
z
" clip-path="url(#pd45c9bded7)" style="stroke: #000000; stroke-linecap: round"/>
   </g>
   <g id="patch_63">
    <path d="M 351.114987 154.917628 
Q 336.702456 158.05212 323.382421 160.949012 
" clip-path="url(#pd45c9bded7)" style="fill: none; stroke: #000000; stroke-linecap: round"/>
    <path d="M 327.716083 162.053263 
L 323.382421 160.949012 
L 326.866019 158.144633 
L 327.716083 162.053263 
z
" clip-path="url(#pd45c9bded7)" style="stroke: #000000; stroke-linecap: round"/>
   </g>
   <g id="patch_64">
    <path d="M 171.981736 185.227557 
Q 163.766895 191.308069 156.450695 196.723419 
" clip-path="url(#pd45c9bded7)" style="fill: none; stroke: #000000; stroke-linecap: round"/>
    <path d="M 160.855656 195.951201 
L 156.450695 196.723419 
L 158.475897 192.73612 
L 160.855656 195.951201 
z
" clip-path="url(#pd45c9bded7)" style="stroke: #000000; stroke-linecap: round"/>
   </g>
   <g id="patch_65">
    <path d="M 92.499777 268.516494 
Q 111.491216 267.812746 129.365388 267.150399 
" clip-path="url(#pd45c9bded7)" style="fill: none; stroke: #000000; stroke-linecap: round"/>
    <path d="M 125.29407 265.299894 
L 129.365388 267.150399 
L 125.442193 269.29715 
L 125.29407 265.299894 
z
" clip-path="url(#pd45c9bded7)" style="stroke: #000000; stroke-linecap: round"/>
   </g>
   <g id="patch_66">
    <path d="M 301.139518 67.549928 
Q 287.846841 83.900411 275.25944 99.383377 
" clip-path="url(#pd45c9bded7)" style="fill: none; stroke: #000000; stroke-linecap: round"/>
    <path d="M 279.334576 97.541294 
L 275.25944 99.383377 
L 276.230855 95.018019 
L 279.334576 97.541294 
z
" clip-path="url(#pd45c9bded7)" style="stroke: #000000; stroke-linecap: round"/>
   </g>
   <g id="patch_67">
    <path d="M 89.845328 283.953888 
Q 110.23089 275.853364 129.577442 268.165707 
" clip-path="url(#pd45c9bded7)" style="fill: none; stroke: #000000; stroke-linecap: round"/>
    <path d="M 125.121609 267.784187 
L 129.577442 268.165707 
L 126.598727 271.501461 
L 125.121609 267.784187 
z
" clip-path="url(#pd45c9bded7)" style="stroke: #000000; stroke-linecap: round"/>
   </g>
   <g id="patch_68">
    <path d="M 134.916344 183.553937 
Q 143.695445 190.45006 151.59533 196.655546 
" clip-path="url(#pd45c9bded7)" style="fill: none; stroke: #000000; stroke-linecap: round"/>
    <path d="M 149.685204 192.611857 
L 151.59533 196.655546 
L 147.214304 195.757433 
L 149.685204 192.611857 
z
" clip-path="url(#pd45c9bded7)" style="stroke: #000000; stroke-linecap: round"/>
   </g>
   <g id="patch_69">
    <path d="M 271.539339 101.013696 
Q 241.984421 88.857674 213.463492 77.126934 
" clip-path="url(#pd45c9bded7)" style="fill: none; stroke: #000000; stroke-linecap: round"/>
    <path d="M 216.402036 80.498129 
L 213.463492 77.126934 
L 217.923575 76.798815 
L 216.402036 80.498129 
z
" clip-path="url(#pd45c9bded7)" style="stroke: #000000; stroke-linecap: round"/>
   </g>
   <g id="patch_70">
    <path d="M 273.901134 99.899443 
Q 280.000724 79.979191 285.772972 61.127979 
" clip-path="url(#pd45c9bded7)" style="fill: none; stroke: #000000; stroke-linecap: round"/>
    <path d="M 282.689485 64.367131 
L 285.772972 61.127979 
L 286.514201 65.53826 
L 282.689485 64.367131 
z
" clip-path="url(#pd45c9bded7)" style="stroke: #000000; stroke-linecap: round"/>
   </g>
   <g id="patch_71">
    <path d="M 274.554582 100.250379 
Q 287.847259 83.899896 300.434659 68.41693 
" clip-path="url(#pd45c9bded7)" style="fill: none; stroke: #000000; stroke-linecap: round"/>
    <path d="M 296.359524 70.259013 
L 300.434659 68.41693 
L 299.463245 72.782288 
L 296.359524 70.259013 
z
" clip-path="url(#pd45c9bded7)" style="stroke: #000000; stroke-linecap: round"/>
   </g>
   <g id="patch_72">
    <path d="M 273.137098 99.823012 
Q 271.505479 83.834834 269.987367 68.958914 
" clip-path="url(#pd45c9bded7)" style="fill: none; stroke: #000000; stroke-linecap: round"/>
    <path d="M 268.403798 73.141295 
L 269.987367 68.958914 
L 272.383131 72.735198 
L 268.403798 73.141295 
z
" clip-path="url(#pd45c9bded7)" style="stroke: #000000; stroke-linecap: round"/>
   </g>
   <g id="patch_73">
    <path d="M 274.815816 100.506366 
Q 285.120659 91.845612 294.56961 83.904197 
" clip-path="url(#pd45c9bded7)" style="fill: none; stroke: #000000; stroke-linecap: round"/>
    <path d="M 290.220684 84.946715 
L 294.56961 83.904197 
L 292.794268 88.008849 
L 290.220684 84.946715 
z
" clip-path="url(#pd45c9bded7)" style="stroke: #000000; stroke-linecap: round"/>
   </g>
   <g id="patch_74">
    <path d="M 271.785625 102.916539 
Q 243.491007 124.20123 216.089849 144.813814 
" clip-path="url(#pd45c9bded7)" style="fill: none; stroke: #000000; stroke-linecap: round"/>
    <path d="M 220.488693 144.007479 
L 216.089849 144.813814 
L 218.084088 140.810938 
L 220.488693 144.007479 
z
" clip-path="url(#pd45c9bded7)" style="stroke: #000000; stroke-linecap: round"/>
   </g>
   <g id="patch_75">
    <path d="M 274.53175 103.275015 
Q 296.866341 131.676722 318.509824 159.199583 
" clip-path="url(#pd45c9bded7)" style="fill: none; stroke: #000000; stroke-linecap: round"/>
    <path d="M 317.609366 154.819038 
L 318.509824 159.199583 
L 314.465113 157.291622 
L 317.609366 154.819038 
z
" clip-path="url(#pd45c9bded7)" style="stroke: #000000; stroke-linecap: round"/>
   </g>
   <g id="patch_76">
    <path d="M 275.248552 101.452462 
Q 297.879282 97.914069 319.405398 94.548387 
" clip-path="url(#pd45c9bded7)" style="fill: none; stroke: #000000; stroke-linecap: round"/>
    <path d="M 315.144458 93.1903 
L 319.405398 94.548387 
L 315.762365 97.142286 
L 315.144458 93.1903 
z
" clip-path="url(#pd45c9bded7)" style="stroke: #000000; stroke-linecap: round"/>
   </g>
   <g id="patch_77">
    <path d="M 269.874321 67.851172 
Q 271.50594 83.839349 273.024051 98.71527 
" clip-path="url(#pd45c9bded7)" style="fill: none; stroke: #000000; stroke-linecap: round"/>
    <path d="M 274.60762 94.532889 
L 273.024051 98.71527 
L 270.628288 94.938986 
L 274.60762 94.532889 
z
" clip-path="url(#pd45c9bded7)" style="stroke: #000000; stroke-linecap: round"/>
   </g>
   <g id="patch_78">
    <path d="M 271.349345 66.905909 
Q 283.293106 73.932337 294.273219 80.391857 
" clip-path="url(#pd45c9bded7)" style="fill: none; stroke: #000000; stroke-linecap: round"/>
    <path d="M 291.839682 76.639805 
L 294.273219 80.391857 
L 289.811455 80.087455 
L 291.839682 76.639805 
z
" clip-path="url(#pd45c9bded7)" style="stroke: #000000; stroke-linecap: round"/>
   </g>
   <g id="patch_79">
    <path d="M 267.941323 65.068879 
Q 254.252552 58.339568 241.567133 52.103497 
" clip-path="url(#pd45c9bded7)" style="fill: none; stroke: #000000; stroke-linecap: round"/>
    <path d="M 244.274494 55.663018 
L 241.567133 52.103497 
L 246.039167 52.07332 
L 244.274494 55.663018 
z
" clip-path="url(#pd45c9bded7)" style="stroke: #000000; stroke-linecap: round"/>
   </g>
   <g id="patch_80">
    <path d="M 237.38426 52.045329 
Q 224.736049 63.359031 212.921144 73.927348 
" clip-path="url(#pd45c9bded7)" style="fill: none; stroke: #000000; stroke-linecap: round"/>
    <path d="M 217.23586 72.751242 
L 212.921144 73.927348 
L 214.569089 69.769912 
L 217.23586 72.751242 
z
" clip-path="url(#pd45c9bded7)" style="stroke: #000000; stroke-linecap: round"/>
   </g>
   <g id="patch_81">
    <path d="M 240.561967 51.609364 
Q 254.250738 58.338676 266.936157 64.574747 
" clip-path="url(#pd45c9bded7)" style="fill: none; stroke: #000000; stroke-linecap: round"/>
    <path d="M 264.228795 61.015225 
L 266.936157 64.574747 
L 262.464123 64.604923 
L 264.228795 61.015225 
z
" clip-path="url(#pd45c9bded7)" style="stroke: #000000; stroke-linecap: round"/>
   </g>
   <g id="patch_82">
    <path d="M 237.257543 49.616561 
Q 230.470147 44.685631 224.587284 40.411829 
" clip-path="url(#pd45c9bded7)" style="fill: none; stroke: #000000; stroke-linecap: round"/>
    <path d="M 226.647935 44.380924 
L 224.587284 40.411829 
L 228.998951 41.144765 
L 226.647935 44.380924 
z
" clip-path="url(#pd45c9bded7)" style="stroke: #000000; stroke-linecap: round"/>
   </g>
   <g id="patch_83">
    <path d="M 221.549169 40.474476 
Q 216.379693 57.295405 211.538655 73.047631 
" clip-path="url(#pd45c9bded7)" style="fill: none; stroke: #000000; stroke-linecap: round"/>
    <path d="M 214.625468 69.811648 
L 211.538655 73.047631 
L 210.801956 68.636591 
L 214.625468 69.811648 
z
" clip-path="url(#pd45c9bded7)" style="stroke: #000000; stroke-linecap: round"/>
   </g>
   <g id="patch_84">
    <path d="M 223.687677 39.758279 
Q 230.475073 44.68921 236.357936 48.963012 
" clip-path="url(#pd45c9bded7)" style="fill: none; stroke: #000000; stroke-linecap: round"/>
    <path d="M 234.297285 44.993916 
L 236.357936 48.963012 
L 231.946269 48.230075 
L 234.297285 44.993916 
z
" clip-path="url(#pd45c9bded7)" style="stroke: #000000; stroke-linecap: round"/>
   </g>
   <g id="patch_85">
    <path d="M 366.051032 109.311271 
Q 373.086454 126.321731 379.694568 142.299036 
" clip-path="url(#pd45c9bded7)" style="fill: none; stroke: #000000; stroke-linecap: round"/>
    <path d="M 380.013954 137.838319 
L 379.694568 142.299036 
L 376.317626 139.367097 
L 380.013954 137.838319 
z
" clip-path="url(#pd45c9bded7)" style="stroke: #000000; stroke-linecap: round"/>
   </g>
   <g id="patch_86">
    <path d="M 363.467245 106.947369 
Q 343.869136 100.801319 325.337832 94.989823 
" clip-path="url(#pd45c9bded7)" style="fill: none; stroke: #000000; stroke-linecap: round"/>
    <path d="M 328.556081 98.095121 
L 325.337832 94.989823 
L 329.75302 94.278403 
L 328.556081 98.095121 
z
" clip-path="url(#pd45c9bded7)" style="stroke: #000000; stroke-linecap: round"/>
   </g>
   <g id="patch_87">
    <path d="M 382.787696 144.88737 
Q 400.837289 142.707671 417.776911 140.662014 
" clip-path="url(#pd45c9bded7)" style="fill: none; stroke: #000000; stroke-linecap: round"/>
    <path d="M 413.565982 139.156002 
L 417.776911 140.662014 
L 414.045544 143.12715 
L 413.565982 139.156002 
z
" clip-path="url(#pd45c9bded7)" style="stroke: #000000; stroke-linecap: round"/>
   </g>
   <g id="patch_88">
    <path d="M 382.58888 146.001311 
Q 399.054871 154.401275 414.524934 162.293177 
" clip-path="url(#pd45c9bded7)" style="fill: none; stroke: #000000; stroke-linecap: round"/>
    <path d="M 411.870645 158.693906 
L 414.524934 162.293177 
L 410.052944 162.257045 
L 411.870645 158.693906 
z
" clip-path="url(#pd45c9bded7)" style="stroke: #000000; stroke-linecap: round"/>
   </g>
   <g id="patch_89">
    <path d="M 380.122973 143.334845 
Q 373.087551 126.324386 366.479437 110.347081 
" clip-path="url(#pd45c9bded7)" style="fill: none; stroke: #000000; stroke-linecap: round"/>
    <path d="M 366.160051 114.807798 
L 366.479437 110.347081 
L 369.856379 113.279019 
L 366.160051 114.807798 
z
" clip-path="url(#pd45c9bded7)" style="stroke: #000000; stroke-linecap: round"/>
   </g>
   <g id="patch_90">
    <path d="M 378.990223 145.629927 
Q 350.628439 153.359322 323.345347 160.794743 
" clip-path="url(#pd45c9bded7)" style="fill: none; stroke: #000000; stroke-linecap: round"/>
    <path d="M 327.730475 161.672612 
L 323.345347 160.794743 
L 326.67872 157.813362 
L 327.730475 161.672612 
z
" clip-path="url(#pd45c9bded7)" style="stroke: #000000; stroke-linecap: round"/>
   </g>
   <g id="patch_91">
    <path d="M 320.510203 94.375646 
Q 297.879473 97.914039 276.353357 101.279722 
" clip-path="url(#pd45c9bded7)" style="fill: none; stroke: #000000; stroke-linecap: round"/>
    <path d="M 280.614296 102.637808 
L 276.353357 101.279722 
L 279.99639 98.685823 
L 280.614296 102.637808 
z
" clip-path="url(#pd45c9bded7)" style="stroke: #000000; stroke-linecap: round"/>
   </g>
   <g id="patch_92">
    <path d="M 324.270276 94.655033 
Q 343.868385 100.801083 362.399688 106.612579 
" clip-path="url(#pd45c9bded7)" style="fill: none; stroke: #000000; stroke-linecap: round"/>
    <path d="M 359.18144 103.507281 
L 362.399688 106.612579 
L 357.984501 107.323999 
L 359.18144 103.507281 
z
" clip-path="url(#pd45c9bded7)" style="stroke: #000000; stroke-linecap: round"/>
   </g>
   <g id="patch_93">
    <path d="M 320.677247 93.245223 
Q 309.666461 88.008991 299.665353 83.252916 
" clip-path="url(#pd45c9bded7)" style="fill: none; stroke: #000000; stroke-linecap: round"/>
    <path d="M 302.418755 86.776945 
L 299.665353 83.252916 
L 304.136617 83.164612 
L 302.418755 86.776945 
z
" clip-path="url(#pd45c9bded7)" style="stroke: #000000; stroke-linecap: round"/>
   </g>
   <g id="patch_94">
    <path d="M 295.424024 83.1861 
Q 285.119181 91.846854 275.670231 99.788269 
" clip-path="url(#pd45c9bded7)" style="fill: none; stroke: #000000; stroke-linecap: round"/>
    <path d="M 280.019157 98.745751 
L 275.670231 99.788269 
L 277.445572 95.683618 
L 280.019157 98.745751 
z
" clip-path="url(#pd45c9bded7)" style="stroke: #000000; stroke-linecap: round"/>
   </g>
   <g id="patch_95">
    <path d="M 295.234042 80.957103 
Q 283.290281 73.930675 272.310168 67.471154 
" clip-path="url(#pd45c9bded7)" style="fill: none; stroke: #000000; stroke-linecap: round"/>
    <path d="M 274.743705 71.223207 
L 272.310168 67.471154 
L 276.771932 67.775557 
L 274.743705 71.223207 
z
" clip-path="url(#pd45c9bded7)" style="stroke: #000000; stroke-linecap: round"/>
   </g>
   <g id="patch_96">
    <path d="M 298.653477 82.771714 
Q 309.664263 88.007946 319.665371 92.764021 
" clip-path="url(#pd45c9bded7)" style="fill: none; stroke: #000000; stroke-linecap: round"/>
    <path d="M 316.911969 89.239992 
L 319.665371 92.764021 
L 315.194107 92.852325 
L 316.911969 89.239992 
z
" clip-path="url(#pd45c9bded7)" style="stroke: #000000; stroke-linecap: round"/>
   </g>
   <g id="patch_97">
    <path d="M 261.501077 217.726173 
Q 236.765876 216.057628 213.146174 214.46433 
" clip-path="url(#pd45c9bded7)" style="fill: none; stroke: #000000; stroke-linecap: round"/>
    <path d="M 217.002498 216.729009 
L 213.146174 214.46433 
L 217.271711 212.738079 
L 217.002498 216.729009 
z
" clip-path="url(#pd45c9bded7)" style="stroke: #000000; stroke-linecap: round"/>
   </g>
   <g id="patch_98">
    <path d="M 265.028259 216.762194 
Q 281.625418 205.390405 297.300265 194.65055 
" clip-path="url(#pd45c9bded7)" style="fill: none; stroke: #000000; stroke-linecap: round"/>
    <path d="M 292.870064 195.26155 
L 297.300265 194.65055 
L 295.130945 198.56131 
L 292.870064 195.26155 
z
" clip-path="url(#pd45c9bded7)" style="stroke: #000000; stroke-linecap: round"/>
   </g>
   <g id="patch_99">
    <path d="M 261.666775 218.657865 
Q 251.202141 223.411153 241.755451 227.702066 
" clip-path="url(#pd45c9bded7)" style="fill: none; stroke: #000000; stroke-linecap: round"/>
    <path d="M 246.224478 227.868778 
L 241.755451 227.702066 
L 244.570237 224.226871 
L 246.224478 227.868778 
z
" clip-path="url(#pd45c9bded7)" style="stroke: #000000; stroke-linecap: round"/>
   </g>
   <g id="patch_100">
    <path d="M 265.015735 218.965613 
Q 281.99939 230.855511 298.06715 242.104211 
" clip-path="url(#pd45c9bded7)" style="fill: none; stroke: #000000; stroke-linecap: round"/>
    <path d="M 295.937355 238.171785 
L 298.06715 242.104211 
L 293.643332 241.448591 
L 295.937355 238.171785 
z
" clip-path="url(#pd45c9bded7)" style="stroke: #000000; stroke-linecap: round"/>
   </g>
   <g id="patch_101">
    <path d="M 237.215746 229.780438 
Q 224.315942 235.75972 212.430502 241.268826 
" clip-path="url(#pd45c9bded7)" style="fill: none; stroke: #000000; stroke-linecap: round"/>
    <path d="M 216.900678 241.401226 
L 212.430502 241.268826 
L 215.218527 237.772125 
L 216.900678 241.401226 
z
" clip-path="url(#pd45c9bded7)" style="stroke: #000000; stroke-linecap: round"/>
   </g>
   <g id="patch_102">
    <path d="M 240.737374 228.164501 
Q 251.202008 223.411213 260.648698 219.1203 
" clip-path="url(#pd45c9bded7)" style="fill: none; stroke: #000000; stroke-linecap: round"/>
    <path d="M 256.179671 218.953588 
L 260.648698 219.1203 
L 257.833912 222.595495 
L 256.179671 218.953588 
z
" clip-path="url(#pd45c9bded7)" style="stroke: #000000; stroke-linecap: round"/>
   </g>
   <g id="patch_103">
    <path d="M 125.712902 206.674497 
Q 130.288581 215.471816 134.348357 223.277246 
" clip-path="url(#pd45c9bded7)" style="fill: none; stroke: #000000; stroke-linecap: round"/>
    <path d="M 134.27695 218.80568 
L 134.348357 223.277246 
L 130.72826 220.651431 
L 134.27695 218.80568 
z
" clip-path="url(#pd45c9bded7)" style="stroke: #000000; stroke-linecap: round"/>
   </g>
   <g id="patch_104">
    <path d="M 126.710757 204.541122 
Q 139.408827 201.748621 151.014957 199.196255 
" clip-path="url(#pd45c9bded7)" style="fill: none; stroke: #000000; stroke-linecap: round"/>
    <path d="M 146.678744 198.102063 
L 151.014957 199.196255 
L 147.537875 202.00871 
L 146.678744 198.102063 
z
" clip-path="url(#pd45c9bded7)" style="stroke: #000000; stroke-linecap: round"/>
   </g>
   <g id="patch_105">
    <path d="M 168.311137 210.065784 
Q 161.90644 204.909655 156.372629 200.454637 
" clip-path="url(#pd45c9bded7)" style="fill: none; stroke: #000000; stroke-linecap: round"/>
    <path d="M 158.234222 204.520897 
L 156.372629 200.454637 
L 160.742593 201.405119 
L 158.234222 204.520897 
z
" clip-path="url(#pd45c9bded7)" style="stroke: #000000; stroke-linecap: round"/>
   </g>
   <g id="patch_106">
    <path d="M 154.010863 200.476936 
Q 154.163014 219.492458 154.306219 237.389981 
" clip-path="url(#pd45c9bded7)" style="fill: none; stroke: #000000; stroke-linecap: round"/>
    <path d="M 156.27415 233.374107 
L 154.306219 237.389981 
L 152.274278 233.406111 
L 156.27415 233.374107 
z
" clip-path="url(#pd45c9bded7)" style="stroke: #000000; stroke-linecap: round"/>
   </g>
   <g id="patch_107">
    <path d="M 153.41456 200.384502 
Q 143.207403 232.785401 133.336182 264.119928 
" clip-path="url(#pd45c9bded7)" style="fill: none; stroke: #000000; stroke-linecap: round"/>
    <path d="M 136.445644 260.905703 
L 133.336182 264.119928 
L 132.630479 259.703823 
L 136.445644 260.905703 
z
" clip-path="url(#pd45c9bded7)" style="stroke: #000000; stroke-linecap: round"/>
   </g>
   <g id="patch_108">
    <path d="M 152.207983 197.796158 
Q 117.661795 183.403604 84.147656 169.44102 
" clip-path="url(#pd45c9bded7)" style="fill: none; stroke: #000000; stroke-linecap: round"/>
    <path d="M 87.070874 172.825514 
L 84.147656 169.44102 
L 88.609182 169.133142 
L 87.070874 172.825514 
z
" clip-path="url(#pd45c9bded7)" style="stroke: #000000; stroke-linecap: round"/>
   </g>
   <g id="patch_109">
    <path d="M 155.861688 199.063666 
Q 182.049582 206.400224 207.160892 213.435177 
" clip-path="url(#pd45c9bded7)" style="fill: none; stroke: #000000; stroke-linecap: round"/>
    <path d="M 203.848716 210.430266 
L 207.160892 213.435177 
L 202.769658 214.281971 
L 203.848716 210.430266 
z
" clip-path="url(#pd45c9bded7)" style="stroke: #000000; stroke-linecap: round"/>
   </g>
   <g id="patch_110">
    <path d="M 155.553283 197.387671 
Q 163.768125 191.307158 171.084324 185.891809 
" clip-path="url(#pd45c9bded7)" style="fill: none; stroke: #000000; stroke-linecap: round"/>
    <path d="M 166.679364 186.664027 
L 171.084324 185.891809 
L 169.059122 189.879108 
L 166.679364 186.664027 
z
" clip-path="url(#pd45c9bded7)" style="stroke: #000000; stroke-linecap: round"/>
   </g>
   <g id="patch_111">
    <path d="M 152.473978 197.345737 
Q 143.694877 190.449614 135.794992 184.244128 
" clip-path="url(#pd45c9bded7)" style="fill: none; stroke: #000000; stroke-linecap: round"/>
    <path d="M 137.705118 188.287817 
L 135.794992 184.244128 
L 140.176018 185.14224 
L 137.705118 188.287817 
z
" clip-path="url(#pd45c9bded7)" style="stroke: #000000; stroke-linecap: round"/>
   </g>
   <g id="patch_112">
    <path d="M 152.104217 198.95671 
Q 139.406147 201.749211 127.800018 204.301577 
" clip-path="url(#pd45c9bded7)" style="fill: none; stroke: #000000; stroke-linecap: round"/>
    <path d="M 132.136231 205.395769 
L 127.800018 204.301577 
L 131.277099 201.489122 
L 132.136231 205.395769 
z
" clip-path="url(#pd45c9bded7)" style="stroke: #000000; stroke-linecap: round"/>
   </g>
   <g id="patch_113">
    <path d="M 155.506158 199.757081 
Q 161.910856 204.91321 167.444667 209.368228 
" clip-path="url(#pd45c9bded7)" style="fill: none; stroke: #000000; stroke-linecap: round"/>
    <path d="M 165.583073 205.301968 
L 167.444667 209.368228 
L 163.074703 208.417746 
L 165.583073 205.301968 
z
" clip-path="url(#pd45c9bded7)" style="stroke: #000000; stroke-linecap: round"/>
   </g>
   <g id="patch_114">
    <path d="M 155.455318 197.270843 
Q 183.820623 172.596545 211.342383 148.656026 
" clip-path="url(#pd45c9bded7)" style="fill: none; stroke: #000000; stroke-linecap: round"/>
    <path d="M 207.011801 149.772296 
L 211.342383 148.656026 
L 209.63705 152.790253 
L 207.011801 149.772296 
z
" clip-path="url(#pd45c9bded7)" style="stroke: #000000; stroke-linecap: round"/>
   </g>
   <g id="patch_115">
    <path d="M 215.193969 145.487741 
Q 243.488587 124.203051 270.889745 103.590467 
" clip-path="url(#pd45c9bded7)" style="fill: none; stroke: #000000; stroke-linecap: round"/>
    <path d="M 266.490901 104.396802 
L 270.889745 103.590467 
L 268.895507 107.593343 
L 266.490901 104.396802 
z
" clip-path="url(#pd45c9bded7)" style="stroke: #000000; stroke-linecap: round"/>
   </g>
   <g id="patch_116">
    <path d="M 212.185712 147.922434 
Q 183.820407 172.596733 156.298647 196.537252 
" clip-path="url(#pd45c9bded7)" style="fill: none; stroke: #000000; stroke-linecap: round"/>
    <path d="M 160.629229 195.420982 
L 156.298647 196.537252 
L 158.00398 192.403024 
L 160.629229 195.420982 
z
" clip-path="url(#pd45c9bded7)" style="stroke: #000000; stroke-linecap: round"/>
   </g>
   <g id="patch_117">
    <path d="M 322.130691 162.46074 
Q 337.110708 169.908132 351.089589 176.857804 
" clip-path="url(#pd45c9bded7)" style="fill: none; stroke: #000000; stroke-linecap: round"/>
    <path d="M 348.398162 173.286219 
L 351.089589 176.857804 
L 346.617464 176.867994 
L 348.398162 173.286219 
z
" clip-path="url(#pd45c9bded7)" style="stroke: #000000; stroke-linecap: round"/>
   </g>
   <g id="patch_118">
    <path d="M 322.287066 161.187234 
Q 336.699596 158.052742 350.019632 155.15585 
" clip-path="url(#pd45c9bded7)" style="fill: none; stroke: #000000; stroke-linecap: round"/>
    <path d="M 345.685969 154.051598 
L 350.019632 155.15585 
L 346.536033 157.960229 
L 345.685969 154.051598 
z
" clip-path="url(#pd45c9bded7)" style="stroke: #000000; stroke-linecap: round"/>
   </g>
   <g id="patch_119">
    <path d="M 319.198439 160.075259 
Q 296.863848 131.673552 275.220365 104.150691 
" clip-path="url(#pd45c9bded7)" style="fill: none; stroke: #000000; stroke-linecap: round"/>
    <path d="M 276.120823 108.531236 
L 275.220365 104.150691 
L 279.265076 106.058652 
L 276.120823 108.531236 
z
" clip-path="url(#pd45c9bded7)" style="stroke: #000000; stroke-linecap: round"/>
   </g>
   <g id="patch_120">
    <path d="M 322.267334 161.088532 
Q 350.629118 153.359137 377.91221 145.923717 
" clip-path="url(#pd45c9bded7)" style="fill: none; stroke: #000000; stroke-linecap: round"/>
    <path d="M 373.527082 145.045848 
L 377.91221 145.923717 
L 374.578838 148.905097 
L 373.527082 145.045848 
z
" clip-path="url(#pd45c9bded7)" style="stroke: #000000; stroke-linecap: round"/>
   </g>
   <g id="patch_121">
    <path d="M 319.333869 163.21592 
Q 310.110112 177.258959 301.500144 190.367513 
" clip-path="url(#pd45c9bded7)" style="fill: none; stroke: #000000; stroke-linecap: round"/>
    <path d="M 305.367761 188.122176 
L 301.500144 190.367513 
L 302.024445 185.926217 
L 305.367761 188.122176 
z
" clip-path="url(#pd45c9bded7)" style="stroke: #000000; stroke-linecap: round"/>
   </g>
   <g id="patch_122">
    <path d="M 319.303425 163.192072 
Q 299.816069 191.609504 280.961018 219.104877 
" clip-path="url(#pd45c9bded7)" style="fill: none; stroke: #000000; stroke-linecap: round"/>
    <path d="M 284.872647 216.937123 
L 280.961018 219.104877 
L 281.573792 214.674922 
L 284.872647 216.937123 
z
" clip-path="url(#pd45c9bded7)" style="stroke: #000000; stroke-linecap: round"/>
   </g>
   <g id="patch_123">
    <path d="M 298.224698 194.017161 
Q 281.627539 205.388951 265.952692 216.128806 
" clip-path="url(#pd45c9bded7)" style="fill: none; stroke: #000000; stroke-linecap: round"/>
    <path d="M 270.382893 215.517806 
L 265.952692 216.128806 
L 268.122013 212.218045 
L 270.382893 215.517806 
z
" clip-path="url(#pd45c9bded7)" style="stroke: #000000; stroke-linecap: round"/>
   </g>
   <g id="patch_124">
    <path d="M 300.884047 191.305512 
Q 310.107804 177.262473 318.717772 164.153919 
" clip-path="url(#pd45c9bded7)" style="fill: none; stroke: #000000; stroke-linecap: round"/>
    <path d="M 314.850155 166.399256 
L 318.717772 164.153919 
L 318.193472 168.595215 
L 314.850155 166.399256 
z
" clip-path="url(#pd45c9bded7)" style="stroke: #000000; stroke-linecap: round"/>
   </g>
   <g id="patch_125">
    <path d="M 277.37972 222.179382 
Q 244.446174 232.08777 212.583255 241.674049 
" clip-path="url(#pd45c9bded7)" style="fill: none; stroke: #000000; stroke-linecap: round"/>
    <path d="M 216.989859 242.436835 
L 212.583255 241.674049 
L 215.837446 238.606437 
L 216.989859 242.436835 
z
" clip-path="url(#pd45c9bded7)" style="stroke: #000000; stroke-linecap: round"/>
   </g>
   <g id="patch_126">
    <path d="M 280.080727 223.366023 
Q 288.733002 241.229938 296.89792 258.087631 
" clip-path="url(#pd45c9bded7)" style="fill: none; stroke: #000000; stroke-linecap: round"/>
    <path d="M 296.954282 253.61585 
L 296.89792 258.087631 
L 293.354313 255.359473 
L 296.954282 253.61585 
z
" clip-path="url(#pd45c9bded7)" style="stroke: #000000; stroke-linecap: round"/>
   </g>
   <g id="patch_127">
    <path d="M 280.328382 220.027419 
Q 299.815737 191.609987 318.670789 164.114614 
" clip-path="url(#pd45c9bded7)" style="fill: none; stroke: #000000; stroke-linecap: round"/>
    <path d="M 314.75916 166.282368 
L 318.670789 164.114614 
L 318.058014 168.54457 
L 314.75916 166.282368 
z
" clip-path="url(#pd45c9bded7)" style="stroke: #000000; stroke-linecap: round"/>
   </g>
   <g id="patch_128">
    <path d="M 280.576727 223.01886 
Q 289.90311 232.739182 298.45544 241.652756 
" clip-path="url(#pd45c9bded7)" style="fill: none; stroke: #000000; stroke-linecap: round"/>
    <path d="M 297.12926 237.381779 
L 298.45544 241.652756 
L 294.24295 240.151114 
L 297.12926 237.381779 
z
" clip-path="url(#pd45c9bded7)" style="stroke: #000000; stroke-linecap: round"/>
   </g>
   <g id="patch_129">
    <path d="M 301.991516 245.167206 
Q 315.757929 257.859984 328.702371 269.794895 
" clip-path="url(#pd45c9bded7)" style="fill: none; stroke: #000000; stroke-linecap: round"/>
    <path d="M 327.117308 265.61308 
L 328.702371 269.794895 
L 324.405881 268.553856 
L 327.117308 265.61308 
z
" clip-path="url(#pd45c9bded7)" style="stroke: #000000; stroke-linecap: round"/>
   </g>
   <g id="patch_130">
    <path d="M 298.984888 242.7467 
Q 282.001233 230.856801 265.933473 219.608102 
" clip-path="url(#pd45c9bded7)" style="fill: none; stroke: #000000; stroke-linecap: round"/>
    <path d="M 268.063268 223.540528 
L 265.933473 219.608102 
L 270.357291 220.263721 
L 268.063268 223.540528 
z
" clip-path="url(#pd45c9bded7)" style="stroke: #000000; stroke-linecap: round"/>
   </g>
   <g id="patch_131">
    <path d="M 299.228155 242.45811 
Q 289.901772 232.737788 281.349442 223.824214 
" clip-path="url(#pd45c9bded7)" style="fill: none; stroke: #000000; stroke-linecap: round"/>
    <path d="M 282.675622 228.095191 
L 281.349442 223.824214 
L 285.561932 225.325856 
L 282.675622 228.095191 
z
" clip-path="url(#pd45c9bded7)" style="stroke: #000000; stroke-linecap: round"/>
   </g>
   <g id="PathCollection_1">
    <defs>
     <path id="mc5fcdc0849" d="M 0 1.936492 
C 0.513564 1.936492 1.006162 1.732451 1.369306 1.369306 
C 1.732451 1.006162 1.936492 0.513564 1.936492 0 
C 1.936492 -0.513564 1.732451 -1.006162 1.369306 -1.369306 
C 1.006162 -1.732451 0.513564 -1.936492 0 -1.936492 
C -0.513564 -1.936492 -1.006162 -1.732451 -1.369306 -1.369306 
C -1.732451 -1.006162 -1.936492 -0.513564 -1.936492 0 
C -1.936492 0.513564 -1.732451 1.006162 -1.369306 1.369306 
C -1.006162 1.732451 -0.513564 1.936492 0 1.936492 
z
" style="stroke: #1f78b4"/>
    </defs>
    <g clip-path="url(#pd45c9bded7)">
     <use xlink:href="#mc5fcdc0849" x="149.925817" y="275.804136" style="fill: #1f78b4; stroke: #1f78b4"/>
     <use xlink:href="#mc5fcdc0849" x="154.330662" y="240.444903" style="fill: #1f78b4; stroke: #1f78b4"/>
     <use xlink:href="#mc5fcdc0849" x="209.656692" y="242.554535" style="fill: #1f78b4; stroke: #1f78b4"/>
     <use xlink:href="#mc5fcdc0849" x="132.417126" y="267.037314" style="fill: #1f78b4; stroke: #1f78b4"/>
     <use xlink:href="#mc5fcdc0849" x="88.19878" y="215.067133" style="fill: #1f78b4; stroke: #1f78b4"/>
     <use xlink:href="#mc5fcdc0849" x="135.758182" y="225.987812" style="fill: #1f78b4; stroke: #1f78b4"/>
     <use xlink:href="#mc5fcdc0849" x="81.328921" y="168.266686" style="fill: #1f78b4; stroke: #1f78b4"/>
     <use xlink:href="#mc5fcdc0849" x="60.767489" y="194.038503" style="fill: #1f78b4; stroke: #1f78b4"/>
     <use xlink:href="#mc5fcdc0849" x="170.028665" y="146.87918" style="fill: #1f78b4; stroke: #1f78b4"/>
     <use xlink:href="#mc5fcdc0849" x="210.641674" y="75.966312" style="fill: #1f78b4; stroke: #1f78b4"/>
     <use xlink:href="#mc5fcdc0849" x="39.986777" y="165.560873" style="fill: #1f78b4; stroke: #1f78b4"/>
     <use xlink:href="#mc5fcdc0849" x="181.742888" y="52.578034" style="fill: #1f78b4; stroke: #1f78b4"/>
     <use xlink:href="#mc5fcdc0849" x="137.110932" y="280.174827" style="fill: #1f78b4; stroke: #1f78b4"/>
     <use xlink:href="#mc5fcdc0849" x="122.834669" y="315.609917" style="fill: #1f78b4; stroke: #1f78b4"/>
     <use xlink:href="#mc5fcdc0849" x="43.850414" y="146.946006" style="fill: #1f78b4; stroke: #1f78b4"/>
     <use xlink:href="#mc5fcdc0849" x="330.948881" y="271.866201" style="fill: #1f78b4; stroke: #1f78b4"/>
     <use xlink:href="#mc5fcdc0849" x="286.666756" y="58.209028" style="fill: #1f78b4; stroke: #1f78b4"/>
     <use xlink:href="#mc5fcdc0849" x="353.828044" y="178.219241" style="fill: #1f78b4; stroke: #1f78b4"/>
     <use xlink:href="#mc5fcdc0849" x="420.813223" y="140.295343" style="fill: #1f78b4; stroke: #1f78b4"/>
     <use xlink:href="#mc5fcdc0849" x="120.075984" y="272.905687" style="fill: #1f78b4; stroke: #1f78b4"/>
     <use xlink:href="#mc5fcdc0849" x="159.869412" y="268.634641" style="fill: #1f78b4; stroke: #1f78b4"/>
     <use xlink:href="#mc5fcdc0849" x="95.78808" y="297.717366" style="fill: #1f78b4; stroke: #1f78b4"/>
     <use xlink:href="#mc5fcdc0849" x="106.535837" y="308.26701" style="fill: #1f78b4; stroke: #1f78b4"/>
     <use xlink:href="#mc5fcdc0849" x="298.23051" y="260.838961" style="fill: #1f78b4; stroke: #1f78b4"/>
     <use xlink:href="#mc5fcdc0849" x="417.242546" y="163.67954" style="fill: #1f78b4; stroke: #1f78b4"/>
     <use xlink:href="#mc5fcdc0849" x="210.101301" y="214.258935" style="fill: #1f78b4; stroke: #1f78b4"/>
     <use xlink:href="#mc5fcdc0849" x="57.374547" y="134.478328" style="fill: #1f78b4; stroke: #1f78b4"/>
     <use xlink:href="#mc5fcdc0849" x="204.730597" y="29.990083" style="fill: #1f78b4; stroke: #1f78b4"/>
     <use xlink:href="#mc5fcdc0849" x="190.021114" y="36.927756" style="fill: #1f78b4; stroke: #1f78b4"/>
     <use xlink:href="#mc5fcdc0849" x="353.005799" y="154.506407" style="fill: #1f78b4; stroke: #1f78b4"/>
     <use xlink:href="#mc5fcdc0849" x="173.539648" y="184.074412" style="fill: #1f78b4; stroke: #1f78b4"/>
     <use xlink:href="#mc5fcdc0849" x="90.566109" y="268.588148" style="fill: #1f78b4; stroke: #1f78b4"/>
     <use xlink:href="#mc5fcdc0849" x="302.360164" y="66.048488" style="fill: #1f78b4; stroke: #1f78b4"/>
     <use xlink:href="#mc5fcdc0849" x="88.044307" y="284.669552" style="fill: #1f78b4; stroke: #1f78b4"/>
     <use xlink:href="#mc5fcdc0849" x="133.39495" y="182.358858" style="fill: #1f78b4; stroke: #1f78b4"/>
     <use xlink:href="#mc5fcdc0849" x="273.333936" y="101.751819" style="fill: #1f78b4; stroke: #1f78b4"/>
     <use xlink:href="#mc5fcdc0849" x="269.677483" y="65.922365" style="fill: #1f78b4; stroke: #1f78b4"/>
     <use xlink:href="#mc5fcdc0849" x="238.825807" y="50.755879" style="fill: #1f78b4; stroke: #1f78b4"/>
     <use xlink:href="#mc5fcdc0849" x="222.119413" y="38.618962" style="fill: #1f78b4; stroke: #1f78b4"/>
     <use xlink:href="#mc5fcdc0849" x="365.312701" y="107.526112" style="fill: #1f78b4; stroke: #1f78b4"/>
     <use xlink:href="#mc5fcdc0849" x="380.861304" y="145.120005" style="fill: #1f78b4; stroke: #1f78b4"/>
     <use xlink:href="#mc5fcdc0849" x="322.424819" y="94.07629" style="fill: #1f78b4; stroke: #1f78b4"/>
     <use xlink:href="#mc5fcdc0849" x="296.905905" y="81.940647" style="fill: #1f78b4; stroke: #1f78b4"/>
     <use xlink:href="#mc5fcdc0849" x="263.431294" y="217.856379" style="fill: #1f78b4; stroke: #1f78b4"/>
     <use xlink:href="#mc5fcdc0849" x="238.972855" y="228.965987" style="fill: #1f78b4; stroke: #1f78b4"/>
     <use xlink:href="#mc5fcdc0849" x="124.819603" y="204.957016" style="fill: #1f78b4; stroke: #1f78b4"/>
     <use xlink:href="#mc5fcdc0849" x="169.821924" y="211.282049" style="fill: #1f78b4; stroke: #1f78b4"/>
     <use xlink:href="#mc5fcdc0849" x="153.995371" y="198.540816" style="fill: #1f78b4; stroke: #1f78b4"/>
     <use xlink:href="#mc5fcdc0849" x="213.645659" y="146.652462" style="fill: #1f78b4; stroke: #1f78b4"/>
     <use xlink:href="#mc5fcdc0849" x="320.396254" y="161.598455" style="fill: #1f78b4; stroke: #1f78b4"/>
     <use xlink:href="#mc5fcdc0849" x="299.821663" y="192.922977" style="fill: #1f78b4; stroke: #1f78b4"/>
     <use xlink:href="#mc5fcdc0849" x="279.235553" y="221.621036" style="fill: #1f78b4; stroke: #1f78b4"/>
     <use xlink:href="#mc5fcdc0849" x="300.569329" y="243.855934" style="fill: #1f78b4; stroke: #1f78b4"/>
    </g>
   </g>
   <g id="text_1">
    <g clip-path="url(#pd45c9bded7)">
     <!-- 0 -->
     <g transform="translate(146.744567 278.563511) scale(0.1 -0.1)">
      <defs>
       <path id="DejaVuSans-30" d="M 2034 4250 
Q 1547 4250 1301 3770 
Q 1056 3291 1056 2328 
Q 1056 1369 1301 889 
Q 1547 409 2034 409 
Q 2525 409 2770 889 
Q 3016 1369 3016 2328 
Q 3016 3291 2770 3770 
Q 2525 4250 2034 4250 
z
M 2034 4750 
Q 2819 4750 3233 4129 
Q 3647 3509 3647 2328 
Q 3647 1150 3233 529 
Q 2819 -91 2034 -91 
Q 1250 -91 836 529 
Q 422 1150 422 2328 
Q 422 3509 836 4129 
Q 1250 4750 2034 4750 
z
" transform="scale(0.015625)"/>
      </defs>
      <use xlink:href="#DejaVuSans-30"/>
     </g>
    </g>
   </g>
   <g id="text_2">
    <g clip-path="url(#pd45c9bded7)">
     <!-- 1 -->
     <g transform="translate(151.149412 243.204278) scale(0.1 -0.1)">
      <defs>
       <path id="DejaVuSans-31" d="M 794 531 
L 1825 531 
L 1825 4091 
L 703 3866 
L 703 4441 
L 1819 4666 
L 2450 4666 
L 2450 531 
L 3481 531 
L 3481 0 
L 794 0 
L 794 531 
z
" transform="scale(0.015625)"/>
      </defs>
      <use xlink:href="#DejaVuSans-31"/>
     </g>
    </g>
   </g>
   <g id="text_3">
    <g clip-path="url(#pd45c9bded7)">
     <!-- 2 -->
     <g transform="translate(206.475442 245.31391) scale(0.1 -0.1)">
      <defs>
       <path id="DejaVuSans-32" d="M 1228 531 
L 3431 531 
L 3431 0 
L 469 0 
L 469 531 
Q 828 903 1448 1529 
Q 2069 2156 2228 2338 
Q 2531 2678 2651 2914 
Q 2772 3150 2772 3378 
Q 2772 3750 2511 3984 
Q 2250 4219 1831 4219 
Q 1534 4219 1204 4116 
Q 875 4013 500 3803 
L 500 4441 
Q 881 4594 1212 4672 
Q 1544 4750 1819 4750 
Q 2544 4750 2975 4387 
Q 3406 4025 3406 3419 
Q 3406 3131 3298 2873 
Q 3191 2616 2906 2266 
Q 2828 2175 2409 1742 
Q 1991 1309 1228 531 
z
" transform="scale(0.015625)"/>
      </defs>
      <use xlink:href="#DejaVuSans-32"/>
     </g>
    </g>
   </g>
   <g id="text_4">
    <g clip-path="url(#pd45c9bded7)">
     <!-- 3 -->
     <g transform="translate(129.235876 269.796689) scale(0.1 -0.1)">
      <defs>
       <path id="DejaVuSans-33" d="M 2597 2516 
Q 3050 2419 3304 2112 
Q 3559 1806 3559 1356 
Q 3559 666 3084 287 
Q 2609 -91 1734 -91 
Q 1441 -91 1130 -33 
Q 819 25 488 141 
L 488 750 
Q 750 597 1062 519 
Q 1375 441 1716 441 
Q 2309 441 2620 675 
Q 2931 909 2931 1356 
Q 2931 1769 2642 2001 
Q 2353 2234 1838 2234 
L 1294 2234 
L 1294 2753 
L 1863 2753 
Q 2328 2753 2575 2939 
Q 2822 3125 2822 3475 
Q 2822 3834 2567 4026 
Q 2313 4219 1838 4219 
Q 1578 4219 1281 4162 
Q 984 4106 628 3988 
L 628 4550 
Q 988 4650 1302 4700 
Q 1616 4750 1894 4750 
Q 2613 4750 3031 4423 
Q 3450 4097 3450 3541 
Q 3450 3153 3228 2886 
Q 3006 2619 2597 2516 
z
" transform="scale(0.015625)"/>
      </defs>
      <use xlink:href="#DejaVuSans-33"/>
     </g>
    </g>
   </g>
   <g id="text_5">
    <g clip-path="url(#pd45c9bded7)">
     <!-- 4 -->
     <g transform="translate(85.01753 217.826508) scale(0.1 -0.1)">
      <defs>
       <path id="DejaVuSans-34" d="M 2419 4116 
L 825 1625 
L 2419 1625 
L 2419 4116 
z
M 2253 4666 
L 3047 4666 
L 3047 1625 
L 3713 1625 
L 3713 1100 
L 3047 1100 
L 3047 0 
L 2419 0 
L 2419 1100 
L 313 1100 
L 313 1709 
L 2253 4666 
z
" transform="scale(0.015625)"/>
      </defs>
      <use xlink:href="#DejaVuSans-34"/>
     </g>
    </g>
   </g>
   <g id="text_6">
    <g clip-path="url(#pd45c9bded7)">
     <!-- 5 -->
     <g transform="translate(132.576932 228.747187) scale(0.1 -0.1)">
      <defs>
       <path id="DejaVuSans-35" d="M 691 4666 
L 3169 4666 
L 3169 4134 
L 1269 4134 
L 1269 2991 
Q 1406 3038 1543 3061 
Q 1681 3084 1819 3084 
Q 2600 3084 3056 2656 
Q 3513 2228 3513 1497 
Q 3513 744 3044 326 
Q 2575 -91 1722 -91 
Q 1428 -91 1123 -41 
Q 819 9 494 109 
L 494 744 
Q 775 591 1075 516 
Q 1375 441 1709 441 
Q 2250 441 2565 725 
Q 2881 1009 2881 1497 
Q 2881 1984 2565 2268 
Q 2250 2553 1709 2553 
Q 1456 2553 1204 2497 
Q 953 2441 691 2322 
L 691 4666 
z
" transform="scale(0.015625)"/>
      </defs>
      <use xlink:href="#DejaVuSans-35"/>
     </g>
    </g>
   </g>
   <g id="text_7">
    <g clip-path="url(#pd45c9bded7)">
     <!-- 6 -->
     <g transform="translate(78.147671 171.026061) scale(0.1 -0.1)">
      <defs>
       <path id="DejaVuSans-36" d="M 2113 2584 
Q 1688 2584 1439 2293 
Q 1191 2003 1191 1497 
Q 1191 994 1439 701 
Q 1688 409 2113 409 
Q 2538 409 2786 701 
Q 3034 994 3034 1497 
Q 3034 2003 2786 2293 
Q 2538 2584 2113 2584 
z
M 3366 4563 
L 3366 3988 
Q 3128 4100 2886 4159 
Q 2644 4219 2406 4219 
Q 1781 4219 1451 3797 
Q 1122 3375 1075 2522 
Q 1259 2794 1537 2939 
Q 1816 3084 2150 3084 
Q 2853 3084 3261 2657 
Q 3669 2231 3669 1497 
Q 3669 778 3244 343 
Q 2819 -91 2113 -91 
Q 1303 -91 875 529 
Q 447 1150 447 2328 
Q 447 3434 972 4092 
Q 1497 4750 2381 4750 
Q 2619 4750 2861 4703 
Q 3103 4656 3366 4563 
z
" transform="scale(0.015625)"/>
      </defs>
      <use xlink:href="#DejaVuSans-36"/>
     </g>
    </g>
   </g>
   <g id="text_8">
    <g clip-path="url(#pd45c9bded7)">
     <!-- 7 -->
     <g transform="translate(57.586239 196.797878) scale(0.1 -0.1)">
      <defs>
       <path id="DejaVuSans-37" d="M 525 4666 
L 3525 4666 
L 3525 4397 
L 1831 0 
L 1172 0 
L 2766 4134 
L 525 4134 
L 525 4666 
z
" transform="scale(0.015625)"/>
      </defs>
      <use xlink:href="#DejaVuSans-37"/>
     </g>
    </g>
   </g>
   <g id="text_9">
    <g clip-path="url(#pd45c9bded7)">
     <!-- 8 -->
     <g transform="translate(166.847415 149.638555) scale(0.1 -0.1)">
      <defs>
       <path id="DejaVuSans-38" d="M 2034 2216 
Q 1584 2216 1326 1975 
Q 1069 1734 1069 1313 
Q 1069 891 1326 650 
Q 1584 409 2034 409 
Q 2484 409 2743 651 
Q 3003 894 3003 1313 
Q 3003 1734 2745 1975 
Q 2488 2216 2034 2216 
z
M 1403 2484 
Q 997 2584 770 2862 
Q 544 3141 544 3541 
Q 544 4100 942 4425 
Q 1341 4750 2034 4750 
Q 2731 4750 3128 4425 
Q 3525 4100 3525 3541 
Q 3525 3141 3298 2862 
Q 3072 2584 2669 2484 
Q 3125 2378 3379 2068 
Q 3634 1759 3634 1313 
Q 3634 634 3220 271 
Q 2806 -91 2034 -91 
Q 1263 -91 848 271 
Q 434 634 434 1313 
Q 434 1759 690 2068 
Q 947 2378 1403 2484 
z
M 1172 3481 
Q 1172 3119 1398 2916 
Q 1625 2713 2034 2713 
Q 2441 2713 2670 2916 
Q 2900 3119 2900 3481 
Q 2900 3844 2670 4047 
Q 2441 4250 2034 4250 
Q 1625 4250 1398 4047 
Q 1172 3844 1172 3481 
z
" transform="scale(0.015625)"/>
      </defs>
      <use xlink:href="#DejaVuSans-38"/>
     </g>
    </g>
   </g>
   <g id="text_10">
    <g clip-path="url(#pd45c9bded7)">
     <!-- 9 -->
     <g transform="translate(207.460424 78.725687) scale(0.1 -0.1)">
      <defs>
       <path id="DejaVuSans-39" d="M 703 97 
L 703 672 
Q 941 559 1184 500 
Q 1428 441 1663 441 
Q 2288 441 2617 861 
Q 2947 1281 2994 2138 
Q 2813 1869 2534 1725 
Q 2256 1581 1919 1581 
Q 1219 1581 811 2004 
Q 403 2428 403 3163 
Q 403 3881 828 4315 
Q 1253 4750 1959 4750 
Q 2769 4750 3195 4129 
Q 3622 3509 3622 2328 
Q 3622 1225 3098 567 
Q 2575 -91 1691 -91 
Q 1453 -91 1209 -44 
Q 966 3 703 97 
z
M 1959 2075 
Q 2384 2075 2632 2365 
Q 2881 2656 2881 3163 
Q 2881 3666 2632 3958 
Q 2384 4250 1959 4250 
Q 1534 4250 1286 3958 
Q 1038 3666 1038 3163 
Q 1038 2656 1286 2365 
Q 1534 2075 1959 2075 
z
" transform="scale(0.015625)"/>
      </defs>
      <use xlink:href="#DejaVuSans-39"/>
     </g>
    </g>
   </g>
   <g id="text_11">
    <g clip-path="url(#pd45c9bded7)">
     <!-- 10 -->
     <g transform="translate(33.624277 168.320248) scale(0.1 -0.1)">
      <use xlink:href="#DejaVuSans-31"/>
      <use xlink:href="#DejaVuSans-30" x="63.623047"/>
     </g>
    </g>
   </g>
   <g id="text_12">
    <g clip-path="url(#pd45c9bded7)">
     <!-- 11 -->
     <g transform="translate(175.380388 55.337409) scale(0.1 -0.1)">
      <use xlink:href="#DejaVuSans-31"/>
      <use xlink:href="#DejaVuSans-31" x="63.623047"/>
     </g>
    </g>
   </g>
   <g id="text_13">
    <g clip-path="url(#pd45c9bded7)">
     <!-- 12 -->
     <g transform="translate(130.748432 282.934202) scale(0.1 -0.1)">
      <use xlink:href="#DejaVuSans-31"/>
      <use xlink:href="#DejaVuSans-32" x="63.623047"/>
     </g>
    </g>
   </g>
   <g id="text_14">
    <g clip-path="url(#pd45c9bded7)">
     <!-- 13 -->
     <g transform="translate(116.472169 318.369292) scale(0.1 -0.1)">
      <use xlink:href="#DejaVuSans-31"/>
      <use xlink:href="#DejaVuSans-33" x="63.623047"/>
     </g>
    </g>
   </g>
   <g id="text_15">
    <g clip-path="url(#pd45c9bded7)">
     <!-- 14 -->
     <g transform="translate(37.487914 149.705381) scale(0.1 -0.1)">
      <use xlink:href="#DejaVuSans-31"/>
      <use xlink:href="#DejaVuSans-34" x="63.623047"/>
     </g>
    </g>
   </g>
   <g id="text_16">
    <g clip-path="url(#pd45c9bded7)">
     <!-- 15 -->
     <g transform="translate(324.586381 274.625576) scale(0.1 -0.1)">
      <use xlink:href="#DejaVuSans-31"/>
      <use xlink:href="#DejaVuSans-35" x="63.623047"/>
     </g>
    </g>
   </g>
   <g id="text_17">
    <g clip-path="url(#pd45c9bded7)">
     <!-- 16 -->
     <g transform="translate(280.304256 60.968403) scale(0.1 -0.1)">
      <use xlink:href="#DejaVuSans-31"/>
      <use xlink:href="#DejaVuSans-36" x="63.623047"/>
     </g>
    </g>
   </g>
   <g id="text_18">
    <g clip-path="url(#pd45c9bded7)">
     <!-- 17 -->
     <g transform="translate(347.465544 180.978616) scale(0.1 -0.1)">
      <use xlink:href="#DejaVuSans-31"/>
      <use xlink:href="#DejaVuSans-37" x="63.623047"/>
     </g>
    </g>
   </g>
   <g id="text_19">
    <g clip-path="url(#pd45c9bded7)">
     <!-- 18 -->
     <g transform="translate(414.450723 143.054718) scale(0.1 -0.1)">
      <use xlink:href="#DejaVuSans-31"/>
      <use xlink:href="#DejaVuSans-38" x="63.623047"/>
     </g>
    </g>
   </g>
   <g id="text_20">
    <g clip-path="url(#pd45c9bded7)">
     <!-- 19 -->
     <g transform="translate(113.713484 275.665062) scale(0.1 -0.1)">
      <use xlink:href="#DejaVuSans-31"/>
      <use xlink:href="#DejaVuSans-39" x="63.623047"/>
     </g>
    </g>
   </g>
   <g id="text_21">
    <g clip-path="url(#pd45c9bded7)">
     <!-- 20 -->
     <g transform="translate(153.506912 271.394016) scale(0.1 -0.1)">
      <use xlink:href="#DejaVuSans-32"/>
      <use xlink:href="#DejaVuSans-30" x="63.623047"/>
     </g>
    </g>
   </g>
   <g id="text_22">
    <g clip-path="url(#pd45c9bded7)">
     <!-- 21 -->
     <g transform="translate(89.42558 300.476741) scale(0.1 -0.1)">
      <use xlink:href="#DejaVuSans-32"/>
      <use xlink:href="#DejaVuSans-31" x="63.623047"/>
     </g>
    </g>
   </g>
   <g id="text_23">
    <g clip-path="url(#pd45c9bded7)">
     <!-- 22 -->
     <g transform="translate(100.173337 311.026385) scale(0.1 -0.1)">
      <use xlink:href="#DejaVuSans-32"/>
      <use xlink:href="#DejaVuSans-32" x="63.623047"/>
     </g>
    </g>
   </g>
   <g id="text_24">
    <g clip-path="url(#pd45c9bded7)">
     <!-- 23 -->
     <g transform="translate(291.86801 263.598336) scale(0.1 -0.1)">
      <use xlink:href="#DejaVuSans-32"/>
      <use xlink:href="#DejaVuSans-33" x="63.623047"/>
     </g>
    </g>
   </g>
   <g id="text_25">
    <g clip-path="url(#pd45c9bded7)">
     <!-- 24 -->
     <g transform="translate(410.880046 166.438915) scale(0.1 -0.1)">
      <use xlink:href="#DejaVuSans-32"/>
      <use xlink:href="#DejaVuSans-34" x="63.623047"/>
     </g>
    </g>
   </g>
   <g id="text_26">
    <g clip-path="url(#pd45c9bded7)">
     <!-- 25 -->
     <g transform="translate(203.738801 217.01831) scale(0.1 -0.1)">
      <use xlink:href="#DejaVuSans-32"/>
      <use xlink:href="#DejaVuSans-35" x="63.623047"/>
     </g>
    </g>
   </g>
   <g id="text_27">
    <g clip-path="url(#pd45c9bded7)">
     <!-- 26 -->
     <g transform="translate(51.012047 137.237703) scale(0.1 -0.1)">
      <use xlink:href="#DejaVuSans-32"/>
      <use xlink:href="#DejaVuSans-36" x="63.623047"/>
     </g>
    </g>
   </g>
   <g id="text_28">
    <g clip-path="url(#pd45c9bded7)">
     <!-- 27 -->
     <g transform="translate(198.368097 32.749458) scale(0.1 -0.1)">
      <use xlink:href="#DejaVuSans-32"/>
      <use xlink:href="#DejaVuSans-37" x="63.623047"/>
     </g>
    </g>
   </g>
   <g id="text_29">
    <g clip-path="url(#pd45c9bded7)">
     <!-- 28 -->
     <g transform="translate(183.658614 39.687131) scale(0.1 -0.1)">
      <use xlink:href="#DejaVuSans-32"/>
      <use xlink:href="#DejaVuSans-38" x="63.623047"/>
     </g>
    </g>
   </g>
   <g id="text_30">
    <g clip-path="url(#pd45c9bded7)">
     <!-- 29 -->
     <g transform="translate(346.643299 157.265782) scale(0.1 -0.1)">
      <use xlink:href="#DejaVuSans-32"/>
      <use xlink:href="#DejaVuSans-39" x="63.623047"/>
     </g>
    </g>
   </g>
   <g id="text_31">
    <g clip-path="url(#pd45c9bded7)">
     <!-- 30 -->
     <g transform="translate(167.177148 186.833787) scale(0.1 -0.1)">
      <use xlink:href="#DejaVuSans-33"/>
      <use xlink:href="#DejaVuSans-30" x="63.623047"/>
     </g>
    </g>
   </g>
   <g id="text_32">
    <g clip-path="url(#pd45c9bded7)">
     <!-- 31 -->
     <g transform="translate(84.203609 271.347523) scale(0.1 -0.1)">
      <use xlink:href="#DejaVuSans-33"/>
      <use xlink:href="#DejaVuSans-31" x="63.623047"/>
     </g>
    </g>
   </g>
   <g id="text_33">
    <g clip-path="url(#pd45c9bded7)">
     <!-- 32 -->
     <g transform="translate(295.997664 68.807863) scale(0.1 -0.1)">
      <use xlink:href="#DejaVuSans-33"/>
      <use xlink:href="#DejaVuSans-32" x="63.623047"/>
     </g>
    </g>
   </g>
   <g id="text_34">
    <g clip-path="url(#pd45c9bded7)">
     <!-- 33 -->
     <g transform="translate(81.681807 287.428927) scale(0.1 -0.1)">
      <use xlink:href="#DejaVuSans-33"/>
      <use xlink:href="#DejaVuSans-33" x="63.623047"/>
     </g>
    </g>
   </g>
   <g id="text_35">
    <g clip-path="url(#pd45c9bded7)">
     <!-- 34 -->
     <g transform="translate(127.03245 185.118233) scale(0.1 -0.1)">
      <use xlink:href="#DejaVuSans-33"/>
      <use xlink:href="#DejaVuSans-34" x="63.623047"/>
     </g>
    </g>
   </g>
   <g id="text_36">
    <g clip-path="url(#pd45c9bded7)">
     <!-- 35 -->
     <g transform="translate(266.971436 104.511194) scale(0.1 -0.1)">
      <use xlink:href="#DejaVuSans-33"/>
      <use xlink:href="#DejaVuSans-35" x="63.623047"/>
     </g>
    </g>
   </g>
   <g id="text_37">
    <g clip-path="url(#pd45c9bded7)">
     <!-- 36 -->
     <g transform="translate(263.314983 68.68174) scale(0.1 -0.1)">
      <use xlink:href="#DejaVuSans-33"/>
      <use xlink:href="#DejaVuSans-36" x="63.623047"/>
     </g>
    </g>
   </g>
   <g id="text_38">
    <g clip-path="url(#pd45c9bded7)">
     <!-- 37 -->
     <g transform="translate(232.463307 53.515254) scale(0.1 -0.1)">
      <use xlink:href="#DejaVuSans-33"/>
      <use xlink:href="#DejaVuSans-37" x="63.623047"/>
     </g>
    </g>
   </g>
   <g id="text_39">
    <g clip-path="url(#pd45c9bded7)">
     <!-- 38 -->
     <g transform="translate(215.756913 41.378337) scale(0.1 -0.1)">
      <use xlink:href="#DejaVuSans-33"/>
      <use xlink:href="#DejaVuSans-38" x="63.623047"/>
     </g>
    </g>
   </g>
   <g id="text_40">
    <g clip-path="url(#pd45c9bded7)">
     <!-- 39 -->
     <g transform="translate(358.950201 110.285487) scale(0.1 -0.1)">
      <use xlink:href="#DejaVuSans-33"/>
      <use xlink:href="#DejaVuSans-39" x="63.623047"/>
     </g>
    </g>
   </g>
   <g id="text_41">
    <g clip-path="url(#pd45c9bded7)">
     <!-- 40 -->
     <g transform="translate(374.498804 147.87938) scale(0.1 -0.1)">
      <use xlink:href="#DejaVuSans-34"/>
      <use xlink:href="#DejaVuSans-30" x="63.623047"/>
     </g>
    </g>
   </g>
   <g id="text_42">
    <g clip-path="url(#pd45c9bded7)">
     <!-- 41 -->
     <g transform="translate(316.062319 96.835665) scale(0.1 -0.1)">
      <use xlink:href="#DejaVuSans-34"/>
      <use xlink:href="#DejaVuSans-31" x="63.623047"/>
     </g>
    </g>
   </g>
   <g id="text_43">
    <g clip-path="url(#pd45c9bded7)">
     <!-- 42 -->
     <g transform="translate(290.543405 84.700022) scale(0.1 -0.1)">
      <use xlink:href="#DejaVuSans-34"/>
      <use xlink:href="#DejaVuSans-32" x="63.623047"/>
     </g>
    </g>
   </g>
   <g id="text_44">
    <g clip-path="url(#pd45c9bded7)">
     <!-- 43 -->
     <g transform="translate(257.068794 220.615754) scale(0.1 -0.1)">
      <use xlink:href="#DejaVuSans-34"/>
      <use xlink:href="#DejaVuSans-33" x="63.623047"/>
     </g>
    </g>
   </g>
   <g id="text_45">
    <g clip-path="url(#pd45c9bded7)">
     <!-- 44 -->
     <g transform="translate(232.610355 231.725362) scale(0.1 -0.1)">
      <use xlink:href="#DejaVuSans-34"/>
      <use xlink:href="#DejaVuSans-34" x="63.623047"/>
     </g>
    </g>
   </g>
   <g id="text_46">
    <g clip-path="url(#pd45c9bded7)">
     <!-- 45 -->
     <g transform="translate(118.457103 207.716391) scale(0.1 -0.1)">
      <use xlink:href="#DejaVuSans-34"/>
      <use xlink:href="#DejaVuSans-35" x="63.623047"/>
     </g>
    </g>
   </g>
   <g id="text_47">
    <g clip-path="url(#pd45c9bded7)">
     <!-- 46 -->
     <g transform="translate(163.459424 214.041424) scale(0.1 -0.1)">
      <use xlink:href="#DejaVuSans-34"/>
      <use xlink:href="#DejaVuSans-36" x="63.623047"/>
     </g>
    </g>
   </g>
   <g id="text_48">
    <g clip-path="url(#pd45c9bded7)">
     <!-- 47 -->
     <g transform="translate(147.632871 201.300191) scale(0.1 -0.1)">
      <use xlink:href="#DejaVuSans-34"/>
      <use xlink:href="#DejaVuSans-37" x="63.623047"/>
     </g>
    </g>
   </g>
   <g id="text_49">
    <g clip-path="url(#pd45c9bded7)">
     <!-- 48 -->
     <g transform="translate(207.283159 149.411837) scale(0.1 -0.1)">
      <use xlink:href="#DejaVuSans-34"/>
      <use xlink:href="#DejaVuSans-38" x="63.623047"/>
     </g>
    </g>
   </g>
   <g id="text_50">
    <g clip-path="url(#pd45c9bded7)">
     <!-- 49 -->
     <g transform="translate(314.033754 164.35783) scale(0.1 -0.1)">
      <use xlink:href="#DejaVuSans-34"/>
      <use xlink:href="#DejaVuSans-39" x="63.623047"/>
     </g>
    </g>
   </g>
   <g id="text_51">
    <g clip-path="url(#pd45c9bded7)">
     <!-- 50 -->
     <g transform="translate(293.459163 195.682352) scale(0.1 -0.1)">
      <use xlink:href="#DejaVuSans-35"/>
      <use xlink:href="#DejaVuSans-30" x="63.623047"/>
     </g>
    </g>
   </g>
   <g id="text_52">
    <g clip-path="url(#pd45c9bded7)">
     <!-- 51 -->
     <g transform="translate(272.873053 224.380411) scale(0.1 -0.1)">
      <use xlink:href="#DejaVuSans-35"/>
      <use xlink:href="#DejaVuSans-31" x="63.623047"/>
     </g>
    </g>
   </g>
   <g id="text_53">
    <g clip-path="url(#pd45c9bded7)">
     <!-- 52 -->
     <g transform="translate(294.206829 246.615309) scale(0.1 -0.1)">
      <use xlink:href="#DejaVuSans-35"/>
      <use xlink:href="#DejaVuSans-32" x="63.623047"/>
     </g>
    </g>
   </g>
  </g>
 </g>
 <defs>
  <clipPath id="pd45c9bded7">
   <rect x="0" y="0" width="460.8" height="345.6"/>
  </clipPath>
 </defs>
</svg>
