<?xml version="1.0" encoding="utf-8" standalone="no"?>
<!DOCTYPE svg PUBLIC "-//W3C//DTD SVG 1.1//EN"
  "http://www.w3.org/Graphics/SVG/1.1/DTD/svg11.dtd">
<svg xmlns:xlink="http://www.w3.org/1999/xlink" width="460.8pt" height="345.6pt" viewBox="0 0 460.8 345.6" xmlns="http://www.w3.org/2000/svg" version="1.1">
 <metadata>
  <rdf:RDF xmlns:dc="http://purl.org/dc/elements/1.1/" xmlns:cc="http://creativecommons.org/ns#" xmlns:rdf="http://www.w3.org/1999/02/22-rdf-syntax-ns#">
   <cc:Work>
    <dc:type rdf:resource="http://purl.org/dc/dcmitype/StillImage"/>
    <dc:date>2023-10-10T10:55:22.250952</dc:date>
    <dc:format>image/svg+xml</dc:format>
    <dc:creator>
     <cc:Agent>
      <dc:title>Matplotlib v3.6.1, https://matplotlib.org/</dc:title>
     </cc:Agent>
    </dc:creator>
   </cc:Work>
  </rdf:RDF>
 </metadata>
 <defs>
  <style type="text/css">*{stroke-linejoin: round; stroke-linecap: butt}</style>
 </defs>
 <g id="figure_1">
  <g id="patch_1">
   <path d="M 0 345.6 
L 460.8 345.6 
L 460.8 0 
L 0 0 
z
" style="fill: #ffffff"/>
  </g>
  <g id="axes_1">
   <g id="patch_2">
    <path d="M 190.976033 136.435771 
Q 175.1868 160.091906 160.018244 182.818115 
" clip-path="url(#p1c0d3d006d)" style="fill: none; stroke: #000000; stroke-linecap: round"/>
    <path d="M 163.902344 180.601414 
L 160.018244 182.818115 
L 160.575343 178.380814 
L 163.902344 180.601414 
z
" clip-path="url(#p1c0d3d006d)" style="stroke: #000000; stroke-linecap: round"/>
   </g>
   <g id="patch_3">
    <path d="M 193.189161 133.255811 
Q 201.851568 121.312896 209.857536 110.275015 
" clip-path="url(#p1c0d3d006d)" style="fill: none; stroke: #000000; stroke-linecap: round"/>
    <path d="M 205.890015 112.338696 
L 209.857536 110.275015 
L 209.127968 114.68724 
L 205.890015 112.338696 
z
" clip-path="url(#p1c0d3d006d)" style="stroke: #000000; stroke-linecap: round"/>
   </g>
   <g id="patch_4">
    <path d="M 199.099649 31.87568 
Q 194.286305 52.805548 189.72354 72.645824 
" clip-path="url(#p1c0d3d006d)" style="fill: none; stroke: #000000; stroke-linecap: round"/>
    <path d="M 192.569159 69.195831 
L 189.72354 72.645824 
L 188.670917 68.299333 
L 192.569159 69.195831 
z
" clip-path="url(#p1c0d3d006d)" style="stroke: #000000; stroke-linecap: round"/>
   </g>
   <g id="patch_5">
    <path d="M 199.831378 31.904006 
Q 205.592769 68.895814 211.182104 104.782907 
" clip-path="url(#p1c0d3d006d)" style="fill: none; stroke: #000000; stroke-linecap: round"/>
    <path d="M 212.54271 100.522771 
L 211.182104 104.782907 
L 208.590359 101.138341 
L 212.54271 100.522771 
z
" clip-path="url(#p1c0d3d006d)" style="stroke: #000000; stroke-linecap: round"/>
   </g>
   <g id="patch_6">
    <path d="M 319.860009 114.434034 
Q 312.051298 145.035639 304.519022 174.553924 
" clip-path="url(#p1c0d3d006d)" style="fill: none; stroke: #000000; stroke-linecap: round"/>
    <path d="M 307.445927 171.172619 
L 304.519022 174.553924 
L 303.570121 170.183617 
L 307.445927 171.172619 
z
" clip-path="url(#p1c0d3d006d)" style="stroke: #000000; stroke-linecap: round"/>
   </g>
   <g id="patch_7">
    <path d="M 318.404784 112.474201 
Q 265.994406 110.179784 214.700992 107.934265 
" clip-path="url(#p1c0d3d006d)" style="fill: none; stroke: #000000; stroke-linecap: round"/>
    <path d="M 218.609692 110.107295 
L 214.700992 107.934265 
L 218.784637 106.111122 
L 218.609692 110.107295 
z
" clip-path="url(#p1c0d3d006d)" style="stroke: #000000; stroke-linecap: round"/>
   </g>
   <g id="patch_8">
    <path d="M 243.954786 85.721777 
Q 228.601957 96.215508 214.172152 106.078347 
" clip-path="url(#p1c0d3d006d)" style="fill: none; stroke: #000000; stroke-linecap: round"/>
    <path d="M 218.603041 105.472357 
L 214.172152 106.078347 
L 216.345893 102.170042 
L 218.603041 105.472357 
z
" clip-path="url(#p1c0d3d006d)" style="stroke: #000000; stroke-linecap: round"/>
   </g>
   <g id="patch_9">
    <path d="M 244.856596 86.436955 
Q 229.655605 125.838187 214.857041 164.196323 
" clip-path="url(#p1c0d3d006d)" style="fill: none; stroke: #000000; stroke-linecap: round"/>
    <path d="M 218.162757 161.184307 
L 214.857041 164.196323 
L 214.430858 159.74454 
L 218.162757 161.184307 
z
" clip-path="url(#p1c0d3d006d)" style="stroke: #000000; stroke-linecap: round"/>
   </g>
   <g id="patch_10">
    <path d="M 189.472458 73.737606 
Q 194.285801 52.807737 198.848566 32.967461 
" clip-path="url(#p1c0d3d006d)" style="fill: none; stroke: #000000; stroke-linecap: round"/>
    <path d="M 196.002947 36.417455 
L 198.848566 32.967461 
L 199.90119 37.313952 
L 196.002947 36.417455 
z
" clip-path="url(#p1c0d3d006d)" style="stroke: #000000; stroke-linecap: round"/>
   </g>
   <g id="patch_11">
    <path d="M 190.151265 77.206158 
Q 200.343968 91.709852 209.893823 105.298807 
" clip-path="url(#p1c0d3d006d)" style="fill: none; stroke: #000000; stroke-linecap: round"/>
    <path d="M 209.230237 100.876177 
L 209.893823 105.298807 
L 205.957568 103.176098 
L 209.230237 100.876177 
z
" clip-path="url(#p1c0d3d006d)" style="stroke: #000000; stroke-linecap: round"/>
   </g>
   <g id="patch_12">
    <path d="M 189.54498 77.495326 
Q 201.397938 121.335414 212.959093 164.096219 
" clip-path="url(#p1c0d3d006d)" style="fill: none; stroke: #000000; stroke-linecap: round"/>
    <path d="M 213.845784 159.712867 
L 212.959093 164.096219 
L 209.984426 160.756855 
L 213.845784 159.712867 
z
" clip-path="url(#p1c0d3d006d)" style="stroke: #000000; stroke-linecap: round"/>
   </g>
   <g id="patch_13">
    <path d="M 210.515693 109.36761 
Q 201.853286 121.310526 193.847318 132.348406 
" clip-path="url(#p1c0d3d006d)" style="fill: none; stroke: #000000; stroke-linecap: round"/>
    <path d="M 197.814839 130.284725 
L 193.847318 132.348406 
L 194.576886 127.936181 
L 197.814839 130.284725 
z
" clip-path="url(#p1c0d3d006d)" style="stroke: #000000; stroke-linecap: round"/>
   </g>
   <g id="patch_14">
    <path d="M 211.354044 105.886869 
Q 205.592652 68.895061 200.003317 33.007968 
" clip-path="url(#p1c0d3d006d)" style="fill: none; stroke: #000000; stroke-linecap: round"/>
    <path d="M 198.642712 37.268103 
L 200.003317 33.007968 
L 202.595062 36.652533 
L 198.642712 37.268103 
z
" clip-path="url(#p1c0d3d006d)" style="stroke: #000000; stroke-linecap: round"/>
   </g>
   <g id="patch_15">
    <path d="M 213.585854 107.885446 
Q 265.996232 110.179864 317.289646 112.425383 
" clip-path="url(#p1c0d3d006d)" style="fill: none; stroke: #000000; stroke-linecap: round"/>
    <path d="M 313.380946 110.252352 
L 317.289646 112.425383 
L 313.206001 114.248525 
L 313.380946 110.252352 
z
" clip-path="url(#p1c0d3d006d)" style="stroke: #000000; stroke-linecap: round"/>
   </g>
   <g id="patch_16">
    <path d="M 213.251643 106.707519 
Q 228.604473 96.213788 243.034277 86.350949 
" clip-path="url(#p1c0d3d006d)" style="fill: none; stroke: #000000; stroke-linecap: round"/>
    <path d="M 238.603388 86.95694 
L 243.034277 86.350949 
L 240.860536 90.259254 
L 238.603388 86.95694 
z
" clip-path="url(#p1c0d3d006d)" style="stroke: #000000; stroke-linecap: round"/>
   </g>
   <g id="patch_17">
    <path d="M 210.539686 106.217837 
Q 200.346983 91.714143 190.797128 78.125188 
" clip-path="url(#p1c0d3d006d)" style="fill: none; stroke: #000000; stroke-linecap: round"/>
    <path d="M 191.460714 82.547817 
L 190.797128 78.125188 
L 194.733383 80.247897 
L 191.460714 82.547817 
z
" clip-path="url(#p1c0d3d006d)" style="stroke: #000000; stroke-linecap: round"/>
   </g>
   <g id="patch_18">
    <path d="M 212.922318 109.263792 
Q 226.287167 124.657437 238.919039 139.206839 
" clip-path="url(#p1c0d3d006d)" style="fill: none; stroke: #000000; stroke-linecap: round"/>
    <path d="M 237.806891 134.875197 
L 238.919039 139.206839 
L 234.786436 137.497572 
L 237.806891 134.875197 
z
" clip-path="url(#p1c0d3d006d)" style="stroke: #000000; stroke-linecap: round"/>
   </g>
   <g id="patch_19">
    <path d="M 209.720594 107.903691 
Q 170.606813 109.987411 132.609484 112.011653 
" clip-path="url(#p1c0d3d006d)" style="fill: none; stroke: #000000; stroke-linecap: round"/>
    <path d="M 136.710215 113.79603 
L 132.609484 112.011653 
L 136.497424 109.801694 
L 136.710215 113.79603 
z
" clip-path="url(#p1c0d3d006d)" style="stroke: #000000; stroke-linecap: round"/>
   </g>
   <g id="patch_20">
    <path d="M 210.553594 109.39841 
Q 184.98759 146.579356 160.055054 182.839043 
" clip-path="url(#p1c0d3d006d)" style="fill: none; stroke: #000000; stroke-linecap: round"/>
    <path d="M 163.969415 180.676226 
L 160.055054 182.839043 
L 160.673417 178.409864 
L 163.969415 180.676226 
z
" clip-path="url(#p1c0d3d006d)" style="stroke: #000000; stroke-linecap: round"/>
   </g>
   <g id="patch_21">
    <path d="M 211.720866 109.735424 
Q 212.704589 137.424275 213.648616 163.995797 
" clip-path="url(#p1c0d3d006d)" style="fill: none; stroke: #000000; stroke-linecap: round"/>
    <path d="M 215.505334 159.927308 
L 213.648616 163.995797 
L 211.507856 160.069329 
L 215.505334 159.927308 
z
" clip-path="url(#p1c0d3d006d)" style="stroke: #000000; stroke-linecap: round"/>
   </g>
   <g id="patch_22">
    <path d="M 239.651581 140.050581 
Q 226.286732 124.656936 213.65486 110.107534 
" clip-path="url(#p1c0d3d006d)" style="fill: none; stroke: #000000; stroke-linecap: round"/>
    <path d="M 214.767008 114.439177 
L 213.65486 110.107534 
L 217.787463 111.816801 
L 214.767008 114.439177 
z
" clip-path="url(#p1c0d3d006d)" style="stroke: #000000; stroke-linecap: round"/>
   </g>
   <g id="patch_23">
    <path d="M 239.210208 142.42209 
Q 199.62211 163.435763 161.021546 183.925246 
" clip-path="url(#p1c0d3d006d)" style="fill: none; stroke: #000000; stroke-linecap: round"/>
    <path d="M 165.492357 183.816399 
L 161.021546 183.925246 
L 163.616955 180.283289 
L 165.492357 183.816399 
z
" clip-path="url(#p1c0d3d006d)" style="stroke: #000000; stroke-linecap: round"/>
   </g>
   <g id="patch_24">
    <path d="M 158.509106 219.045407 
Q 158.421573 203.169882 158.340205 188.412373 
" clip-path="url(#p1c0d3d006d)" style="fill: none; stroke: #000000; stroke-linecap: round"/>
    <path d="M 156.36229 192.423339 
L 158.340205 188.412373 
L 160.362229 192.401285 
L 156.36229 192.423339 
z
" clip-path="url(#p1c0d3d006d)" style="stroke: #000000; stroke-linecap: round"/>
   </g>
   <g id="patch_25">
    <path d="M 159.905427 219.627564 
Q 186.139352 194.0131 211.57332 169.179704 
" clip-path="url(#p1c0d3d006d)" style="fill: none; stroke: #000000; stroke-linecap: round"/>
    <path d="M 207.314087 170.543131 
L 211.57332 169.179704 
L 210.108522 173.405146 
L 207.314087 170.543131 
z
" clip-path="url(#p1c0d3d006d)" style="stroke: #000000; stroke-linecap: round"/>
   </g>
   <g id="patch_26">
    <path d="M 131.492001 112.071185 
Q 170.605781 109.987466 208.603111 107.963223 
" clip-path="url(#p1c0d3d006d)" style="fill: none; stroke: #000000; stroke-linecap: round"/>
    <path d="M 204.502379 106.178847 
L 208.603111 107.963223 
L 204.715171 110.173183 
L 204.502379 106.178847 
z
" clip-path="url(#p1c0d3d006d)" style="stroke: #000000; stroke-linecap: round"/>
   </g>
   <g id="patch_27">
    <path d="M 130.267947 113.974189 
Q 143.942051 148.766129 157.207191 182.517516 
" clip-path="url(#p1c0d3d006d)" style="fill: none; stroke: #000000; stroke-linecap: round"/>
    <path d="M 157.605437 178.063147 
L 157.207191 182.517516 
L 153.882644 179.526298 
L 157.605437 178.063147 
z
" clip-path="url(#p1c0d3d006d)" style="stroke: #000000; stroke-linecap: round"/>
   </g>
   <g id="patch_28">
    <path d="M 84.497763 141.584376 
Q 63.093966 153.112131 42.674516 164.109731 
" clip-path="url(#p1c0d3d006d)" style="fill: none; stroke: #000000; stroke-linecap: round"/>
    <path d="M 47.144587 163.973848 
L 42.674516 164.109731 
L 45.247852 160.452144 
L 47.144587 163.973848 
z
" clip-path="url(#p1c0d3d006d)" style="stroke: #000000; stroke-linecap: round"/>
   </g>
   <g id="patch_29">
    <path d="M 88.100102 141.0573 
Q 149.979471 153.856118 210.76398 166.428481 
" clip-path="url(#p1c0d3d006d)" style="fill: none; stroke: #000000; stroke-linecap: round"/>
    <path d="M 207.251986 163.659745 
L 210.76398 166.428481 
L 206.441794 167.576834 
L 207.251986 163.659745 
z
" clip-path="url(#p1c0d3d006d)" style="stroke: #000000; stroke-linecap: round"/>
   </g>
   <g id="patch_30">
    <path d="M 230.745387 221.3907 
Q 195.402961 203.806243 161.061516 186.71982 
" clip-path="url(#p1c0d3d006d)" style="fill: none; stroke: #000000; stroke-linecap: round"/>
    <path d="M 163.751825 190.292247 
L 161.061516 186.71982 
L 165.533644 186.711029 
L 163.751825 190.292247 
z
" clip-path="url(#p1c0d3d006d)" style="stroke: #000000; stroke-linecap: round"/>
   </g>
   <g id="patch_31">
    <path d="M 44.719911 218.98264 
Q 100.59424 202.444549 155.39651 186.223775 
" clip-path="url(#p1c0d3d006d)" style="fill: none; stroke: #000000; stroke-linecap: round"/>
    <path d="M 150.993363 185.441281 
L 155.39651 186.223775 
L 152.128627 189.276796 
L 150.993363 185.441281 
z
" clip-path="url(#p1c0d3d006d)" style="stroke: #000000; stroke-linecap: round"/>
   </g>
   <g id="patch_32">
    <path d="M 418.880742 169.905801 
Q 362.2903 173.645043 306.81546 177.310571 
" clip-path="url(#p1c0d3d006d)" style="fill: none; stroke: #000000; stroke-linecap: round"/>
    <path d="M 310.93862 179.042492 
L 306.81546 177.310571 
L 310.674893 175.051196 
L 310.93862 179.042492 
z
" clip-path="url(#p1c0d3d006d)" style="stroke: #000000; stroke-linecap: round"/>
   </g>
   <g id="patch_33">
    <path d="M 41.693422 164.638133 
Q 63.097218 153.110379 83.516669 142.112779 
" clip-path="url(#p1c0d3d006d)" style="fill: none; stroke: #000000; stroke-linecap: round"/>
    <path d="M 79.046598 142.248662 
L 83.516669 142.112779 
L 80.943333 145.770366 
L 79.046598 142.248662 
z
" clip-path="url(#p1c0d3d006d)" style="stroke: #000000; stroke-linecap: round"/>
   </g>
   <g id="patch_34">
    <path d="M 41.897179 165.876956 
Q 99.156278 175.457587 155.312672 184.853713 
" clip-path="url(#p1c0d3d006d)" style="fill: none; stroke: #000000; stroke-linecap: round"/>
    <path d="M 151.697568 182.221029 
L 155.312672 184.853713 
L 151.037462 186.166185 
L 151.697568 182.221029 
z
" clip-path="url(#p1c0d3d006d)" style="stroke: #000000; stroke-linecap: round"/>
   </g>
   <g id="patch_35">
    <path d="M 418.622392 283.772102 
Q 373.906899 263.687728 330.211286 244.061441 
" clip-path="url(#p1c0d3d006d)" style="fill: none; stroke: #000000; stroke-linecap: round"/>
    <path d="M 333.040666 247.524765 
L 330.211286 244.061441 
L 334.679573 243.875932 
L 333.040666 247.524765 
z
" clip-path="url(#p1c0d3d006d)" style="stroke: #000000; stroke-linecap: round"/>
   </g>
   <g id="patch_36">
    <path d="M 366.139253 313.910324 
Q 347.243643 279.20834 328.882692 245.488262 
" clip-path="url(#p1c0d3d006d)" style="fill: none; stroke: #000000; stroke-linecap: round"/>
    <path d="M 329.039057 249.957663 
L 328.882692 245.488262 
L 332.552032 248.04481 
L 329.039057 249.957663 
z
" clip-path="url(#p1c0d3d006d)" style="stroke: #000000; stroke-linecap: round"/>
   </g>
   <g id="patch_37">
    <path d="M 304.242647 175.637009 
Q 312.051359 145.035404 319.583635 115.517119 
" clip-path="url(#p1c0d3d006d)" style="fill: none; stroke: #000000; stroke-linecap: round"/>
    <path d="M 316.65673 118.898424 
L 319.583635 115.517119 
L 320.532536 119.887426 
L 316.65673 118.898424 
z
" clip-path="url(#p1c0d3d006d)" style="stroke: #000000; stroke-linecap: round"/>
   </g>
   <g id="patch_38">
    <path d="M 305.696633 177.384498 
Q 362.287075 173.645256 417.761915 169.979728 
" clip-path="url(#p1c0d3d006d)" style="fill: none; stroke: #000000; stroke-linecap: round"/>
    <path d="M 413.638755 168.247806 
L 417.761915 169.979728 
L 413.902482 172.239103 
L 413.638755 168.247806 
z
" clip-path="url(#p1c0d3d006d)" style="stroke: #000000; stroke-linecap: round"/>
   </g>
   <g id="patch_39">
    <path d="M 301.833404 177.616335 
Q 231.04408 181.434808 161.371167 185.193061 
" clip-path="url(#p1c0d3d006d)" style="fill: none; stroke: #000000; stroke-linecap: round"/>
    <path d="M 165.473086 186.974705 
L 161.371167 185.193061 
L 165.257634 182.980512 
L 165.473086 186.974705 
z
" clip-path="url(#p1c0d3d006d)" style="stroke: #000000; stroke-linecap: round"/>
   </g>
   <g id="patch_40">
    <path d="M 301.838646 177.28832 
Q 258.758815 172.279662 216.789538 167.400122 
" clip-path="url(#p1c0d3d006d)" style="fill: none; stroke: #000000; stroke-linecap: round"/>
    <path d="M 220.531801 169.848687 
L 216.789538 167.400122 
L 220.993748 165.875451 
L 220.531801 169.848687 
z
" clip-path="url(#p1c0d3d006d)" style="stroke: #000000; stroke-linecap: round"/>
   </g>
   <g id="patch_41">
    <path d="M 304.424101 179.333532 
Q 315.59491 210.163027 326.384841 239.941364 
" clip-path="url(#p1c0d3d006d)" style="fill: none; stroke: #000000; stroke-linecap: round"/>
    <path d="M 326.902538 235.499294 
L 326.384841 239.941364 
L 323.141803 236.861965 
L 326.902538 235.499294 
z
" clip-path="url(#p1c0d3d006d)" style="stroke: #000000; stroke-linecap: round"/>
   </g>
   <g id="patch_42">
    <path d="M 159.40005 183.744322 
Q 175.189282 160.088187 190.357838 137.361978 
" clip-path="url(#p1c0d3d006d)" style="fill: none; stroke: #000000; stroke-linecap: round"/>
    <path d="M 186.473738 139.57868 
L 190.357838 137.361978 
L 189.80074 141.799279 
L 186.473738 139.57868 
z
" clip-path="url(#p1c0d3d006d)" style="stroke: #000000; stroke-linecap: round"/>
   </g>
   <g id="patch_43">
    <path d="M 159.4219 183.759846 
Q 184.987904 146.5789 209.920441 110.319213 
" clip-path="url(#p1c0d3d006d)" style="fill: none; stroke: #000000; stroke-linecap: round"/>
    <path d="M 206.00608 112.48203 
L 209.920441 110.319213 
L 209.302078 114.748392 
L 206.00608 112.48203 
z
" clip-path="url(#p1c0d3d006d)" style="stroke: #000000; stroke-linecap: round"/>
   </g>
   <g id="patch_44">
    <path d="M 160.034919 184.448956 
Q 199.623017 163.435282 238.223582 142.945799 
" clip-path="url(#p1c0d3d006d)" style="fill: none; stroke: #000000; stroke-linecap: round"/>
    <path d="M 233.75277 143.054647 
L 238.223582 142.945799 
L 235.628173 146.587756 
L 233.75277 143.054647 
z
" clip-path="url(#p1c0d3d006d)" style="stroke: #000000; stroke-linecap: round"/>
   </g>
   <g id="patch_45">
    <path d="M 158.334031 187.292553 
Q 158.421563 203.168079 158.502931 217.925587 
" clip-path="url(#p1c0d3d006d)" style="fill: none; stroke: #000000; stroke-linecap: round"/>
    <path d="M 160.480847 213.914621 
L 158.502931 217.925587 
L 156.480907 213.936675 
L 160.480847 213.914621 
z
" clip-path="url(#p1c0d3d006d)" style="stroke: #000000; stroke-linecap: round"/>
   </g>
   <g id="patch_46">
    <path d="M 157.615876 183.55736 
Q 143.941772 148.76542 130.676632 115.014032 
" clip-path="url(#p1c0d3d006d)" style="fill: none; stroke: #000000; stroke-linecap: round"/>
    <path d="M 130.278386 119.468401 
L 130.676632 115.014032 
L 134.001179 118.00525 
L 130.278386 119.468401 
z
" clip-path="url(#p1c0d3d006d)" style="stroke: #000000; stroke-linecap: round"/>
   </g>
   <g id="patch_47">
    <path d="M 160.059173 186.221108 
Q 195.401599 203.805565 229.743044 220.891989 
" clip-path="url(#p1c0d3d006d)" style="fill: none; stroke: #000000; stroke-linecap: round"/>
    <path d="M 227.052735 217.319561 
L 229.743044 220.891989 
L 225.270917 220.90078 
L 227.052735 217.319561 
z
" clip-path="url(#p1c0d3d006d)" style="stroke: #000000; stroke-linecap: round"/>
   </g>
   <g id="patch_48">
    <path d="M 156.46644 185.907089 
Q 100.592111 202.44518 45.789841 218.665954 
" clip-path="url(#p1c0d3d006d)" style="fill: none; stroke: #000000; stroke-linecap: round"/>
    <path d="M 50.192988 219.448448 
L 45.789841 218.665954 
L 49.057724 215.612933 
L 50.192988 219.448448 
z
" clip-path="url(#p1c0d3d006d)" style="stroke: #000000; stroke-linecap: round"/>
   </g>
   <g id="patch_49">
    <path d="M 156.41296 185.037814 
Q 99.153861 175.457183 42.997467 166.061057 
" clip-path="url(#p1c0d3d006d)" style="fill: none; stroke: #000000; stroke-linecap: round"/>
    <path d="M 46.61257 168.693741 
L 42.997467 166.061057 
L 47.272676 164.748585 
L 46.61257 168.693741 
z
" clip-path="url(#p1c0d3d006d)" style="stroke: #000000; stroke-linecap: round"/>
   </g>
   <g id="patch_50">
    <path d="M 160.254109 185.253317 
Q 231.043434 181.434843 300.716347 177.676591 
" clip-path="url(#p1c0d3d006d)" style="fill: none; stroke: #000000; stroke-linecap: round"/>
    <path d="M 296.614427 175.894946 
L 300.716347 177.676591 
L 296.82988 179.88914 
L 296.614427 175.894946 
z
" clip-path="url(#p1c0d3d006d)" style="stroke: #000000; stroke-linecap: round"/>
   </g>
   <g id="patch_51">
    <path d="M 157.890151 187.245227 
Q 148.613554 227.669006 139.587027 267.003076 
" clip-path="url(#p1c0d3d006d)" style="fill: none; stroke: #000000; stroke-linecap: round"/>
    <path d="M 142.431036 263.551755 
L 139.587027 267.003076 
L 138.532376 262.657076 
L 142.431036 263.551755 
z
" clip-path="url(#p1c0d3d006d)" style="stroke: #000000; stroke-linecap: round"/>
   </g>
   <g id="patch_52">
    <path d="M 156.427825 184.973883 
Q 137.310981 181.105393 119.28996 177.458655 
" clip-path="url(#p1c0d3d006d)" style="fill: none; stroke: #000000; stroke-linecap: round"/>
    <path d="M 122.813813 180.212282 
L 119.28996 177.458655 
L 123.607173 176.291748 
L 122.813813 180.212282 
z
" clip-path="url(#p1c0d3d006d)" style="stroke: #000000; stroke-linecap: round"/>
   </g>
   <g id="patch_53">
    <path d="M 156.877008 186.641528 
Q 120.040661 219.344631 84.040398 251.305465 
" clip-path="url(#p1c0d3d006d)" style="fill: none; stroke: #000000; stroke-linecap: round"/>
    <path d="M 88.359473 250.14547 
L 84.040398 251.305465 
L 85.703847 247.154207 
L 88.359473 250.14547 
z
" clip-path="url(#p1c0d3d006d)" style="stroke: #000000; stroke-linecap: round"/>
   </g>
   <g id="patch_54">
    <path d="M 160.160549 184.750635 
Q 186.037931 176.203256 210.853692 168.006534 
" clip-path="url(#p1c0d3d006d)" style="fill: none; stroke: #000000; stroke-linecap: round"/>
    <path d="M 206.428246 167.361996 
L 210.853692 168.006534 
L 207.682794 171.160168 
L 206.428246 167.361996 
z
" clip-path="url(#p1c0d3d006d)" style="stroke: #000000; stroke-linecap: round"/>
   </g>
   <g id="patch_55">
    <path d="M 139.33735 268.091069 
Q 148.613947 227.66729 157.640474 188.33322 
" clip-path="url(#p1c0d3d006d)" style="fill: none; stroke: #000000; stroke-linecap: round"/>
    <path d="M 154.796465 191.78454 
L 157.640474 188.33322 
L 158.695125 192.679219 
L 154.796465 191.78454 
z
" clip-path="url(#p1c0d3d006d)" style="stroke: #000000; stroke-linecap: round"/>
   </g>
   <g id="patch_56">
    <path d="M 118.19391 177.236858 
Q 137.310754 181.105347 155.331775 184.752086 
" clip-path="url(#p1c0d3d006d)" style="fill: none; stroke: #000000; stroke-linecap: round"/>
    <path d="M 151.807922 181.998459 
L 155.331775 184.752086 
L 151.014562 185.918992 
L 151.807922 181.998459 
z
" clip-path="url(#p1c0d3d006d)" style="stroke: #000000; stroke-linecap: round"/>
   </g>
   <g id="patch_57">
    <path d="M 118.222682 176.659664 
Q 165.026295 171.950555 210.71749 167.353372 
" clip-path="url(#p1c0d3d006d)" style="fill: none; stroke: #000000; stroke-linecap: round"/>
    <path d="M 206.537367 165.763854 
L 210.71749 167.353372 
L 206.937802 169.74376 
L 206.537367 165.763854 
z
" clip-path="url(#p1c0d3d006d)" style="stroke: #000000; stroke-linecap: round"/>
   </g>
   <g id="patch_58">
    <path d="M 83.204127 252.047901 
Q 120.040474 219.344798 156.040738 187.383964 
" clip-path="url(#p1c0d3d006d)" style="fill: none; stroke: #000000; stroke-linecap: round"/>
    <path d="M 151.721663 188.543959 
L 156.040738 187.383964 
L 154.377289 191.535222 
L 151.721663 188.543959 
z
" clip-path="url(#p1c0d3d006d)" style="stroke: #000000; stroke-linecap: round"/>
   </g>
   <g id="patch_59">
    <path d="M 214.454738 165.2391 
Q 229.655729 125.837867 244.454293 87.479731 
" clip-path="url(#p1c0d3d006d)" style="fill: none; stroke: #000000; stroke-linecap: round"/>
    <path d="M 241.148577 90.491748 
L 244.454293 87.479731 
L 244.880477 91.931514 
L 241.148577 90.491748 
z
" clip-path="url(#p1c0d3d006d)" style="stroke: #000000; stroke-linecap: round"/>
   </g>
   <g id="patch_60">
    <path d="M 213.250876 165.175427 
Q 201.397918 121.335339 189.836764 78.574533 
" clip-path="url(#p1c0d3d006d)" style="fill: none; stroke: #000000; stroke-linecap: round"/>
    <path d="M 188.950072 82.957886 
L 189.836764 78.574533 
L 192.811431 81.913898 
L 188.950072 82.957886 
z
" clip-path="url(#p1c0d3d006d)" style="stroke: #000000; stroke-linecap: round"/>
   </g>
   <g id="patch_61">
    <path d="M 213.688305 165.112918 
Q 212.704582 137.424067 211.760555 110.852545 
" clip-path="url(#p1c0d3d006d)" style="fill: none; stroke: #000000; stroke-linecap: round"/>
    <path d="M 209.903838 114.921034 
L 211.760555 110.852545 
L 213.901316 114.779012 
L 209.903838 114.921034 
z
" clip-path="url(#p1c0d3d006d)" style="stroke: #000000; stroke-linecap: round"/>
   </g>
   <g id="patch_62">
    <path d="M 212.371387 168.400482 
Q 186.137461 194.014946 160.703493 218.848343 
" clip-path="url(#p1c0d3d006d)" style="fill: none; stroke: #000000; stroke-linecap: round"/>
    <path d="M 164.962726 217.484916 
L 160.703493 218.848343 
L 162.168291 214.6229 
L 164.962726 217.484916 
z
" clip-path="url(#p1c0d3d006d)" style="stroke: #000000; stroke-linecap: round"/>
   </g>
   <g id="patch_63">
    <path d="M 211.861343 166.655454 
Q 149.981975 153.856636 89.197466 141.284273 
" clip-path="url(#p1c0d3d006d)" style="fill: none; stroke: #000000; stroke-linecap: round"/>
    <path d="M 92.70946 144.053009 
L 89.197466 141.284273 
L 93.519651 140.13592 
L 92.70946 144.053009 
z
" clip-path="url(#p1c0d3d006d)" style="stroke: #000000; stroke-linecap: round"/>
   </g>
   <g id="patch_64">
    <path d="M 215.682544 167.271418 
Q 258.762375 172.280076 300.731652 177.159615 
" clip-path="url(#p1c0d3d006d)" style="fill: none; stroke: #000000; stroke-linecap: round"/>
    <path d="M 296.989389 174.711051 
L 300.731652 177.159615 
L 296.527443 178.684287 
L 296.989389 174.711051 
z
" clip-path="url(#p1c0d3d006d)" style="stroke: #000000; stroke-linecap: round"/>
   </g>
   <g id="patch_65">
    <path d="M 211.91985 167.654379 
Q 186.042469 176.201758 161.226708 184.39848 
" clip-path="url(#p1c0d3d006d)" style="fill: none; stroke: #000000; stroke-linecap: round"/>
    <path d="M 165.652154 185.043018 
L 161.226708 184.39848 
L 164.397606 181.244846 
L 165.652154 185.043018 
z
" clip-path="url(#p1c0d3d006d)" style="stroke: #000000; stroke-linecap: round"/>
   </g>
   <g id="patch_66">
    <path d="M 211.832729 167.241163 
Q 165.029117 171.950271 119.337921 176.547455 
" clip-path="url(#p1c0d3d006d)" style="fill: none; stroke: #000000; stroke-linecap: round"/>
    <path d="M 123.518045 178.136973 
L 119.337921 176.547455 
L 123.11761 174.157067 
L 123.518045 178.136973 
z
" clip-path="url(#p1c0d3d006d)" style="stroke: #000000; stroke-linecap: round"/>
   </g>
   <g id="patch_67">
    <path d="M 214.867721 168.631051 
Q 240.167437 204.700895 264.825137 239.855415 
" clip-path="url(#p1c0d3d006d)" style="fill: none; stroke: #000000; stroke-linecap: round"/>
    <path d="M 264.165571 235.432184 
L 264.825137 239.855415 
L 260.890812 237.729129 
L 264.165571 235.432184 
z
" clip-path="url(#p1c0d3d006d)" style="stroke: #000000; stroke-linecap: round"/>
   </g>
   <g id="patch_68">
    <path d="M 215.370051 168.122664 
Q 270.591758 204.929342 324.883144 241.115938 
" clip-path="url(#p1c0d3d006d)" style="fill: none; stroke: #000000; stroke-linecap: round"/>
    <path d="M 322.663964 237.233253 
L 324.883144 241.115938 
L 320.445489 240.561671 
L 322.663964 237.233253 
z
" clip-path="url(#p1c0d3d006d)" style="stroke: #000000; stroke-linecap: round"/>
   </g>
   <g id="patch_69">
    <path d="M 265.469049 240.773441 
Q 240.169333 204.703598 215.511632 169.549077 
" clip-path="url(#p1c0d3d006d)" style="fill: none; stroke: #000000; stroke-linecap: round"/>
    <path d="M 216.171198 173.972308 
L 215.511632 169.549077 
L 219.445957 171.675363 
L 216.171198 173.972308 
z
" clip-path="url(#p1c0d3d006d)" style="stroke: #000000; stroke-linecap: round"/>
   </g>
   <g id="patch_70">
    <path d="M 268.514541 242.371335 
Q 297.000321 242.583236 324.368099 242.786821 
" clip-path="url(#p1c0d3d006d)" style="fill: none; stroke: #000000; stroke-linecap: round"/>
    <path d="M 320.383087 240.757121 
L 324.368099 242.786821 
L 320.353332 244.757011 
L 320.383087 240.757121 
z
" clip-path="url(#p1c0d3d006d)" style="stroke: #000000; stroke-linecap: round"/>
   </g>
   <g id="patch_71">
    <path d="M 329.191613 243.603446 
Q 373.907106 263.687821 417.602719 283.314107 
" clip-path="url(#p1c0d3d006d)" style="fill: none; stroke: #000000; stroke-linecap: round"/>
    <path d="M 414.773339 279.850783 
L 417.602719 283.314107 
L 413.134432 283.499616 
L 414.773339 279.850783 
z
" clip-path="url(#p1c0d3d006d)" style="stroke: #000000; stroke-linecap: round"/>
   </g>
   <g id="patch_72">
    <path d="M 328.349553 244.509147 
Q 347.245163 279.211131 365.606114 312.931209 
" clip-path="url(#p1c0d3d006d)" style="fill: none; stroke: #000000; stroke-linecap: round"/>
    <path d="M 365.449748 308.461808 
L 365.606114 312.931209 
L 361.936773 310.374661 
L 365.449748 308.461808 
z
" clip-path="url(#p1c0d3d006d)" style="stroke: #000000; stroke-linecap: round"/>
   </g>
   <g id="patch_73">
    <path d="M 326.764157 240.98821 
Q 315.593348 210.158715 304.803417 180.380377 
" clip-path="url(#p1c0d3d006d)" style="fill: none; stroke: #000000; stroke-linecap: round"/>
    <path d="M 304.28572 184.822448 
L 304.803417 180.380377 
L 308.046455 183.459777 
L 304.28572 184.822448 
z
" clip-path="url(#p1c0d3d006d)" style="stroke: #000000; stroke-linecap: round"/>
   </g>
   <g id="patch_74">
    <path d="M 325.811093 241.73444 
Q 270.589386 204.927761 216.298 168.741165 
" clip-path="url(#p1c0d3d006d)" style="fill: none; stroke: #000000; stroke-linecap: round"/>
    <path d="M 218.51718 172.62385 
L 216.298 168.741165 
L 220.735655 169.295432 
L 218.51718 172.62385 
z
" clip-path="url(#p1c0d3d006d)" style="stroke: #000000; stroke-linecap: round"/>
   </g>
   <g id="patch_75">
    <path d="M 325.489296 242.795161 
Q 297.003515 242.58326 269.635738 242.379676 
" clip-path="url(#p1c0d3d006d)" style="fill: none; stroke: #000000; stroke-linecap: round"/>
    <path d="M 273.62075 244.409375 
L 269.635738 242.379676 
L 273.650505 240.409486 
L 273.62075 244.409375 
z
" clip-path="url(#p1c0d3d006d)" style="stroke: #000000; stroke-linecap: round"/>
   </g>
   <g id="PathCollection_1">
    <defs>
     <path id="mf6890f94da" d="M 0 1.936492 
C 0.513564 1.936492 1.006162 1.732451 1.369306 1.369306 
C 1.732451 1.006162 1.936492 0.513564 1.936492 0 
C 1.936492 -0.513564 1.732451 -1.006162 1.369306 -1.369306 
C 1.006162 -1.732451 0.513564 -1.936492 0 -1.936492 
C -0.513564 -1.936492 -1.006162 -1.732451 -1.369306 -1.369306 
C -1.732451 -1.006162 -1.936492 -0.513564 -1.936492 0 
C -1.936492 0.513564 -1.732451 1.006162 -1.369306 1.369306 
C -1.006162 1.732451 -0.513564 1.936492 0 1.936492 
z
" style="stroke: #1f78b4"/>
    </defs>
    <g clip-path="url(#p1c0d3d006d)">
     <use xlink:href="#mf6890f94da" x="192.052721" y="134.822629" style="fill: #1f78b4; stroke: #1f78b4"/>
     <use xlink:href="#mf6890f94da" x="199.533288" y="29.990083" style="fill: #1f78b4; stroke: #1f78b4"/>
     <use xlink:href="#mf6890f94da" x="320.338505" y="112.558855" style="fill: #1f78b4; stroke: #1f78b4"/>
     <use xlink:href="#mf6890f94da" x="245.554296" y="84.628504" style="fill: #1f78b4; stroke: #1f78b4"/>
     <use xlink:href="#mf6890f94da" x="189.038818" y="75.623203" style="fill: #1f78b4; stroke: #1f78b4"/>
     <use xlink:href="#mf6890f94da" x="211.652133" y="107.800792" style="fill: #1f78b4; stroke: #1f78b4"/>
     <use xlink:href="#mf6890f94da" x="240.921766" y="141.513582" style="fill: #1f78b4; stroke: #1f78b4"/>
     <use xlink:href="#mf6890f94da" x="158.519775" y="220.980497" style="fill: #1f78b4; stroke: #1f78b4"/>
     <use xlink:href="#mf6890f94da" x="129.560461" y="112.174085" style="fill: #1f78b4; stroke: #1f78b4"/>
     <use xlink:href="#mf6890f94da" x="86.204408" y="140.665204" style="fill: #1f78b4; stroke: #1f78b4"/>
     <use xlink:href="#mf6890f94da" x="232.481199" y="222.254345" style="fill: #1f78b4; stroke: #1f78b4"/>
     <use xlink:href="#mf6890f94da" x="42.862989" y="219.532265" style="fill: #1f78b4; stroke: #1f78b4"/>
     <use xlink:href="#mf6890f94da" x="420.813223" y="169.778111" style="fill: #1f78b4; stroke: #1f78b4"/>
     <use xlink:href="#mf6890f94da" x="39.986777" y="165.557306" style="fill: #1f78b4; stroke: #1f78b4"/>
     <use xlink:href="#mf6890f94da" x="420.3899" y="284.565995" style="fill: #1f78b4; stroke: #1f78b4"/>
     <use xlink:href="#mf6890f94da" x="367.0647" y="315.609917" style="fill: #1f78b4; stroke: #1f78b4"/>
     <use xlink:href="#mf6890f94da" x="303.764152" y="177.512188" style="fill: #1f78b4; stroke: #1f78b4"/>
     <use xlink:href="#mf6890f94da" x="158.323362" y="185.357464" style="fill: #1f78b4; stroke: #1f78b4"/>
     <use xlink:href="#mf6890f94da" x="138.904139" y="269.978832" style="fill: #1f78b4; stroke: #1f78b4"/>
     <use xlink:href="#mf6890f94da" x="116.298374" y="176.853277" style="fill: #1f78b4; stroke: #1f78b4"/>
     <use xlink:href="#mf6890f94da" x="81.757774" y="253.331965" style="fill: #1f78b4; stroke: #1f78b4"/>
     <use xlink:href="#mf6890f94da" x="213.757038" y="167.04755" style="fill: #1f78b4; stroke: #1f78b4"/>
     <use xlink:href="#mf6890f94da" x="266.579731" y="242.356943" style="fill: #1f78b4; stroke: #1f78b4"/>
     <use xlink:href="#mf6890f94da" x="327.424106" y="242.809554" style="fill: #1f78b4; stroke: #1f78b4"/>
    </g>
   </g>
   <g id="text_1">
    <g clip-path="url(#p1c0d3d006d)">
     <!-- 0 -->
     <g transform="translate(188.871471 137.582004) scale(0.1 -0.1)">
      <defs>
       <path id="DejaVuSans-30" d="M 2034 4250 
Q 1547 4250 1301 3770 
Q 1056 3291 1056 2328 
Q 1056 1369 1301 889 
Q 1547 409 2034 409 
Q 2525 409 2770 889 
Q 3016 1369 3016 2328 
Q 3016 3291 2770 3770 
Q 2525 4250 2034 4250 
z
M 2034 4750 
Q 2819 4750 3233 4129 
Q 3647 3509 3647 2328 
Q 3647 1150 3233 529 
Q 2819 -91 2034 -91 
Q 1250 -91 836 529 
Q 422 1150 422 2328 
Q 422 3509 836 4129 
Q 1250 4750 2034 4750 
z
" transform="scale(0.015625)"/>
      </defs>
      <use xlink:href="#DejaVuSans-30"/>
     </g>
    </g>
   </g>
   <g id="text_2">
    <g clip-path="url(#p1c0d3d006d)">
     <!-- 1 -->
     <g transform="translate(196.352038 32.749458) scale(0.1 -0.1)">
      <defs>
       <path id="DejaVuSans-31" d="M 794 531 
L 1825 531 
L 1825 4091 
L 703 3866 
L 703 4441 
L 1819 4666 
L 2450 4666 
L 2450 531 
L 3481 531 
L 3481 0 
L 794 0 
L 794 531 
z
" transform="scale(0.015625)"/>
      </defs>
      <use xlink:href="#DejaVuSans-31"/>
     </g>
    </g>
   </g>
   <g id="text_3">
    <g clip-path="url(#p1c0d3d006d)">
     <!-- 2 -->
     <g transform="translate(317.157255 115.31823) scale(0.1 -0.1)">
      <defs>
       <path id="DejaVuSans-32" d="M 1228 531 
L 3431 531 
L 3431 0 
L 469 0 
L 469 531 
Q 828 903 1448 1529 
Q 2069 2156 2228 2338 
Q 2531 2678 2651 2914 
Q 2772 3150 2772 3378 
Q 2772 3750 2511 3984 
Q 2250 4219 1831 4219 
Q 1534 4219 1204 4116 
Q 875 4013 500 3803 
L 500 4441 
Q 881 4594 1212 4672 
Q 1544 4750 1819 4750 
Q 2544 4750 2975 4387 
Q 3406 4025 3406 3419 
Q 3406 3131 3298 2873 
Q 3191 2616 2906 2266 
Q 2828 2175 2409 1742 
Q 1991 1309 1228 531 
z
" transform="scale(0.015625)"/>
      </defs>
      <use xlink:href="#DejaVuSans-32"/>
     </g>
    </g>
   </g>
   <g id="text_4">
    <g clip-path="url(#p1c0d3d006d)">
     <!-- 3 -->
     <g transform="translate(242.373046 87.387879) scale(0.1 -0.1)">
      <defs>
       <path id="DejaVuSans-33" d="M 2597 2516 
Q 3050 2419 3304 2112 
Q 3559 1806 3559 1356 
Q 3559 666 3084 287 
Q 2609 -91 1734 -91 
Q 1441 -91 1130 -33 
Q 819 25 488 141 
L 488 750 
Q 750 597 1062 519 
Q 1375 441 1716 441 
Q 2309 441 2620 675 
Q 2931 909 2931 1356 
Q 2931 1769 2642 2001 
Q 2353 2234 1838 2234 
L 1294 2234 
L 1294 2753 
L 1863 2753 
Q 2328 2753 2575 2939 
Q 2822 3125 2822 3475 
Q 2822 3834 2567 4026 
Q 2313 4219 1838 4219 
Q 1578 4219 1281 4162 
Q 984 4106 628 3988 
L 628 4550 
Q 988 4650 1302 4700 
Q 1616 4750 1894 4750 
Q 2613 4750 3031 4423 
Q 3450 4097 3450 3541 
Q 3450 3153 3228 2886 
Q 3006 2619 2597 2516 
z
" transform="scale(0.015625)"/>
      </defs>
      <use xlink:href="#DejaVuSans-33"/>
     </g>
    </g>
   </g>
   <g id="text_5">
    <g clip-path="url(#p1c0d3d006d)">
     <!-- 4 -->
     <g transform="translate(185.857568 78.382578) scale(0.1 -0.1)">
      <defs>
       <path id="DejaVuSans-34" d="M 2419 4116 
L 825 1625 
L 2419 1625 
L 2419 4116 
z
M 2253 4666 
L 3047 4666 
L 3047 1625 
L 3713 1625 
L 3713 1100 
L 3047 1100 
L 3047 0 
L 2419 0 
L 2419 1100 
L 313 1100 
L 313 1709 
L 2253 4666 
z
" transform="scale(0.015625)"/>
      </defs>
      <use xlink:href="#DejaVuSans-34"/>
     </g>
    </g>
   </g>
   <g id="text_6">
    <g clip-path="url(#p1c0d3d006d)">
     <!-- 5 -->
     <g transform="translate(208.470883 110.560167) scale(0.1 -0.1)">
      <defs>
       <path id="DejaVuSans-35" d="M 691 4666 
L 3169 4666 
L 3169 4134 
L 1269 4134 
L 1269 2991 
Q 1406 3038 1543 3061 
Q 1681 3084 1819 3084 
Q 2600 3084 3056 2656 
Q 3513 2228 3513 1497 
Q 3513 744 3044 326 
Q 2575 -91 1722 -91 
Q 1428 -91 1123 -41 
Q 819 9 494 109 
L 494 744 
Q 775 591 1075 516 
Q 1375 441 1709 441 
Q 2250 441 2565 725 
Q 2881 1009 2881 1497 
Q 2881 1984 2565 2268 
Q 2250 2553 1709 2553 
Q 1456 2553 1204 2497 
Q 953 2441 691 2322 
L 691 4666 
z
" transform="scale(0.015625)"/>
      </defs>
      <use xlink:href="#DejaVuSans-35"/>
     </g>
    </g>
   </g>
   <g id="text_7">
    <g clip-path="url(#p1c0d3d006d)">
     <!-- 6 -->
     <g transform="translate(237.740516 144.272957) scale(0.1 -0.1)">
      <defs>
       <path id="DejaVuSans-36" d="M 2113 2584 
Q 1688 2584 1439 2293 
Q 1191 2003 1191 1497 
Q 1191 994 1439 701 
Q 1688 409 2113 409 
Q 2538 409 2786 701 
Q 3034 994 3034 1497 
Q 3034 2003 2786 2293 
Q 2538 2584 2113 2584 
z
M 3366 4563 
L 3366 3988 
Q 3128 4100 2886 4159 
Q 2644 4219 2406 4219 
Q 1781 4219 1451 3797 
Q 1122 3375 1075 2522 
Q 1259 2794 1537 2939 
Q 1816 3084 2150 3084 
Q 2853 3084 3261 2657 
Q 3669 2231 3669 1497 
Q 3669 778 3244 343 
Q 2819 -91 2113 -91 
Q 1303 -91 875 529 
Q 447 1150 447 2328 
Q 447 3434 972 4092 
Q 1497 4750 2381 4750 
Q 2619 4750 2861 4703 
Q 3103 4656 3366 4563 
z
" transform="scale(0.015625)"/>
      </defs>
      <use xlink:href="#DejaVuSans-36"/>
     </g>
    </g>
   </g>
   <g id="text_8">
    <g clip-path="url(#p1c0d3d006d)">
     <!-- 7 -->
     <g transform="translate(155.338525 223.739872) scale(0.1 -0.1)">
      <defs>
       <path id="DejaVuSans-37" d="M 525 4666 
L 3525 4666 
L 3525 4397 
L 1831 0 
L 1172 0 
L 2766 4134 
L 525 4134 
L 525 4666 
z
" transform="scale(0.015625)"/>
      </defs>
      <use xlink:href="#DejaVuSans-37"/>
     </g>
    </g>
   </g>
   <g id="text_9">
    <g clip-path="url(#p1c0d3d006d)">
     <!-- 8 -->
     <g transform="translate(126.379211 114.93346) scale(0.1 -0.1)">
      <defs>
       <path id="DejaVuSans-38" d="M 2034 2216 
Q 1584 2216 1326 1975 
Q 1069 1734 1069 1313 
Q 1069 891 1326 650 
Q 1584 409 2034 409 
Q 2484 409 2743 651 
Q 3003 894 3003 1313 
Q 3003 1734 2745 1975 
Q 2488 2216 2034 2216 
z
M 1403 2484 
Q 997 2584 770 2862 
Q 544 3141 544 3541 
Q 544 4100 942 4425 
Q 1341 4750 2034 4750 
Q 2731 4750 3128 4425 
Q 3525 4100 3525 3541 
Q 3525 3141 3298 2862 
Q 3072 2584 2669 2484 
Q 3125 2378 3379 2068 
Q 3634 1759 3634 1313 
Q 3634 634 3220 271 
Q 2806 -91 2034 -91 
Q 1263 -91 848 271 
Q 434 634 434 1313 
Q 434 1759 690 2068 
Q 947 2378 1403 2484 
z
M 1172 3481 
Q 1172 3119 1398 2916 
Q 1625 2713 2034 2713 
Q 2441 2713 2670 2916 
Q 2900 3119 2900 3481 
Q 2900 3844 2670 4047 
Q 2441 4250 2034 4250 
Q 1625 4250 1398 4047 
Q 1172 3844 1172 3481 
z
" transform="scale(0.015625)"/>
      </defs>
      <use xlink:href="#DejaVuSans-38"/>
     </g>
    </g>
   </g>
   <g id="text_10">
    <g clip-path="url(#p1c0d3d006d)">
     <!-- 9 -->
     <g transform="translate(83.023158 143.424579) scale(0.1 -0.1)">
      <defs>
       <path id="DejaVuSans-39" d="M 703 97 
L 703 672 
Q 941 559 1184 500 
Q 1428 441 1663 441 
Q 2288 441 2617 861 
Q 2947 1281 2994 2138 
Q 2813 1869 2534 1725 
Q 2256 1581 1919 1581 
Q 1219 1581 811 2004 
Q 403 2428 403 3163 
Q 403 3881 828 4315 
Q 1253 4750 1959 4750 
Q 2769 4750 3195 4129 
Q 3622 3509 3622 2328 
Q 3622 1225 3098 567 
Q 2575 -91 1691 -91 
Q 1453 -91 1209 -44 
Q 966 3 703 97 
z
M 1959 2075 
Q 2384 2075 2632 2365 
Q 2881 2656 2881 3163 
Q 2881 3666 2632 3958 
Q 2384 4250 1959 4250 
Q 1534 4250 1286 3958 
Q 1038 3666 1038 3163 
Q 1038 2656 1286 2365 
Q 1534 2075 1959 2075 
z
" transform="scale(0.015625)"/>
      </defs>
      <use xlink:href="#DejaVuSans-39"/>
     </g>
    </g>
   </g>
   <g id="text_11">
    <g clip-path="url(#p1c0d3d006d)">
     <!-- 10 -->
     <g transform="translate(226.118699 225.01372) scale(0.1 -0.1)">
      <use xlink:href="#DejaVuSans-31"/>
      <use xlink:href="#DejaVuSans-30" x="63.623047"/>
     </g>
    </g>
   </g>
   <g id="text_12">
    <g clip-path="url(#p1c0d3d006d)">
     <!-- 11 -->
     <g transform="translate(36.500489 222.29164) scale(0.1 -0.1)">
      <use xlink:href="#DejaVuSans-31"/>
      <use xlink:href="#DejaVuSans-31" x="63.623047"/>
     </g>
    </g>
   </g>
   <g id="text_13">
    <g clip-path="url(#p1c0d3d006d)">
     <!-- 12 -->
     <g transform="translate(414.450723 172.537486) scale(0.1 -0.1)">
      <use xlink:href="#DejaVuSans-31"/>
      <use xlink:href="#DejaVuSans-32" x="63.623047"/>
     </g>
    </g>
   </g>
   <g id="text_14">
    <g clip-path="url(#p1c0d3d006d)">
     <!-- 13 -->
     <g transform="translate(33.624277 168.316681) scale(0.1 -0.1)">
      <use xlink:href="#DejaVuSans-31"/>
      <use xlink:href="#DejaVuSans-33" x="63.623047"/>
     </g>
    </g>
   </g>
   <g id="text_15">
    <g clip-path="url(#p1c0d3d006d)">
     <!-- 14 -->
     <g transform="translate(414.0274 287.32537) scale(0.1 -0.1)">
      <use xlink:href="#DejaVuSans-31"/>
      <use xlink:href="#DejaVuSans-34" x="63.623047"/>
     </g>
    </g>
   </g>
   <g id="text_16">
    <g clip-path="url(#p1c0d3d006d)">
     <!-- 15 -->
     <g transform="translate(360.7022 318.369292) scale(0.1 -0.1)">
      <use xlink:href="#DejaVuSans-31"/>
      <use xlink:href="#DejaVuSans-35" x="63.623047"/>
     </g>
    </g>
   </g>
   <g id="text_17">
    <g clip-path="url(#p1c0d3d006d)">
     <!-- 16 -->
     <g transform="translate(297.401652 180.271563) scale(0.1 -0.1)">
      <use xlink:href="#DejaVuSans-31"/>
      <use xlink:href="#DejaVuSans-36" x="63.623047"/>
     </g>
    </g>
   </g>
   <g id="text_18">
    <g clip-path="url(#p1c0d3d006d)">
     <!-- 17 -->
     <g transform="translate(151.960862 188.116839) scale(0.1 -0.1)">
      <use xlink:href="#DejaVuSans-31"/>
      <use xlink:href="#DejaVuSans-37" x="63.623047"/>
     </g>
    </g>
   </g>
   <g id="text_19">
    <g clip-path="url(#p1c0d3d006d)">
     <!-- 18 -->
     <g transform="translate(132.541639 272.738207) scale(0.1 -0.1)">
      <use xlink:href="#DejaVuSans-31"/>
      <use xlink:href="#DejaVuSans-38" x="63.623047"/>
     </g>
    </g>
   </g>
   <g id="text_20">
    <g clip-path="url(#p1c0d3d006d)">
     <!-- 19 -->
     <g transform="translate(109.935874 179.612652) scale(0.1 -0.1)">
      <use xlink:href="#DejaVuSans-31"/>
      <use xlink:href="#DejaVuSans-39" x="63.623047"/>
     </g>
    </g>
   </g>
   <g id="text_21">
    <g clip-path="url(#p1c0d3d006d)">
     <!-- 20 -->
     <g transform="translate(75.395274 256.09134) scale(0.1 -0.1)">
      <use xlink:href="#DejaVuSans-32"/>
      <use xlink:href="#DejaVuSans-30" x="63.623047"/>
     </g>
    </g>
   </g>
   <g id="text_22">
    <g clip-path="url(#p1c0d3d006d)">
     <!-- 21 -->
     <g transform="translate(207.394538 169.806925) scale(0.1 -0.1)">
      <use xlink:href="#DejaVuSans-32"/>
      <use xlink:href="#DejaVuSans-31" x="63.623047"/>
     </g>
    </g>
   </g>
   <g id="text_23">
    <g clip-path="url(#p1c0d3d006d)">
     <!-- 22 -->
     <g transform="translate(260.217231 245.116318) scale(0.1 -0.1)">
      <use xlink:href="#DejaVuSans-32"/>
      <use xlink:href="#DejaVuSans-32" x="63.623047"/>
     </g>
    </g>
   </g>
   <g id="text_24">
    <g clip-path="url(#p1c0d3d006d)">
     <!-- 23 -->
     <g transform="translate(321.061606 245.568929) scale(0.1 -0.1)">
      <use xlink:href="#DejaVuSans-32"/>
      <use xlink:href="#DejaVuSans-33" x="63.623047"/>
     </g>
    </g>
   </g>
  </g>
 </g>
 <defs>
  <clipPath id="p1c0d3d006d">
   <rect x="0" y="0" width="460.8" height="345.6"/>
  </clipPath>
 </defs>
</svg>
