<?xml version="1.0" encoding="utf-8" standalone="no"?>
<!DOCTYPE svg PUBLIC "-//W3C//DTD SVG 1.1//EN"
  "http://www.w3.org/Graphics/SVG/1.1/DTD/svg11.dtd">
<svg xmlns:xlink="http://www.w3.org/1999/xlink" width="460.8pt" height="345.6pt" viewBox="0 0 460.8 345.6" xmlns="http://www.w3.org/2000/svg" version="1.1">
 <metadata>
  <rdf:RDF xmlns:dc="http://purl.org/dc/elements/1.1/" xmlns:cc="http://creativecommons.org/ns#" xmlns:rdf="http://www.w3.org/1999/02/22-rdf-syntax-ns#">
   <cc:Work>
    <dc:type rdf:resource="http://purl.org/dc/dcmitype/StillImage"/>
    <dc:date>2023-10-10T10:55:32.990118</dc:date>
    <dc:format>image/svg+xml</dc:format>
    <dc:creator>
     <cc:Agent>
      <dc:title>Matplotlib v3.6.1, https://matplotlib.org/</dc:title>
     </cc:Agent>
    </dc:creator>
   </cc:Work>
  </rdf:RDF>
 </metadata>
 <defs>
  <style type="text/css">*{stroke-linejoin: round; stroke-linecap: butt}</style>
 </defs>
 <g id="figure_1">
  <g id="patch_1">
   <path d="M 0 345.6 
L 460.8 345.6 
L 460.8 0 
L 0 0 
z
" style="fill: #ffffff"/>
  </g>
  <g id="axes_1">
   <g id="patch_2">
    <path d="M 211.559651 198.737676 
Q 195.808521 213.447859 180.8745 227.394934 
" clip-path="url(#p35c006bd42)" style="fill: none; stroke: #000000; stroke-linecap: round"/>
    <path d="M 185.162965 226.126444 
L 180.8745 227.394934 
L 182.432787 223.203068 
L 185.162965 226.126444 
z
" clip-path="url(#p35c006bd42)" style="stroke: #000000; stroke-linecap: round"/>
   </g>
   <g id="patch_3">
    <path d="M 212.403388 199.267036 
Q 207.720949 214.44749 203.368049 228.55958 
" clip-path="url(#p35c006bd42)" style="fill: none; stroke: #000000; stroke-linecap: round"/>
    <path d="M 206.458194 225.326778 
L 203.368049 228.55958 
L 202.635895 224.147783 
L 206.458194 225.326778 
z
" clip-path="url(#p35c006bd42)" style="stroke: #000000; stroke-linecap: round"/>
   </g>
   <g id="patch_4">
    <path d="M 211.052962 197.645742 
Q 177.286034 201.671955 144.629276 205.565797 
" clip-path="url(#p35c006bd42)" style="fill: none; stroke: #000000; stroke-linecap: round"/>
    <path d="M 148.837935 207.078142 
L 144.629276 205.565797 
L 148.364348 203.106277 
L 148.837935 207.078142 
z
" clip-path="url(#p35c006bd42)" style="stroke: #000000; stroke-linecap: round"/>
   </g>
   <g id="patch_5">
    <path d="M 214.32779 196.030106 
Q 241.966437 167.719509 268.824066 140.208918 
" clip-path="url(#p35c006bd42)" style="fill: none; stroke: #000000; stroke-linecap: round"/>
    <path d="M 264.598715 141.67398 
L 268.824066 140.208918 
L 267.460905 144.468236 
L 264.598715 141.67398 
z
" clip-path="url(#p35c006bd42)" style="stroke: #000000; stroke-linecap: round"/>
   </g>
   <g id="patch_6">
    <path d="M 214.307612 198.817295 
Q 228.873105 214.116268 242.667679 228.605499 
" clip-path="url(#p35c006bd42)" style="fill: none; stroke: #000000; stroke-linecap: round"/>
    <path d="M 241.358061 224.329414 
L 242.667679 228.605499 
L 238.46104 227.087543 
L 241.358061 224.329414 
z
" clip-path="url(#p35c006bd42)" style="stroke: #000000; stroke-linecap: round"/>
   </g>
   <g id="patch_7">
    <path d="M 212.226454 195.6286 
Q 207.313144 183.878507 202.831151 173.159902 
" clip-path="url(#p35c006bd42)" style="fill: none; stroke: #000000; stroke-linecap: round"/>
    <path d="M 202.529098 177.621825 
L 202.831151 173.159902 
L 206.219458 176.078699 
L 202.529098 177.621825 
z
" clip-path="url(#p35c006bd42)" style="stroke: #000000; stroke-linecap: round"/>
   </g>
   <g id="patch_8">
    <path d="M 180.055391 228.159911 
Q 195.80652 213.449728 210.740542 199.502653 
" clip-path="url(#p35c006bd42)" style="fill: none; stroke: #000000; stroke-linecap: round"/>
    <path d="M 206.452077 200.771143 
L 210.740542 199.502653 
L 209.182255 203.694519 
L 206.452077 200.771143 
z
" clip-path="url(#p35c006bd42)" style="stroke: #000000; stroke-linecap: round"/>
   </g>
   <g id="patch_9">
    <path d="M 108.893793 57.940787 
Q 135.369107 64.996079 160.764089 71.763477 
" clip-path="url(#p35c006bd42)" style="fill: none; stroke: #000000; stroke-linecap: round"/>
    <path d="M 157.413974 68.800923 
L 160.764089 71.763477 
L 156.383977 72.666037 
L 157.413974 68.800923 
z
" clip-path="url(#p35c006bd42)" style="stroke: #000000; stroke-linecap: round"/>
   </g>
   <g id="patch_10">
    <path d="M 203.037978 229.629669 
Q 207.720417 214.449215 212.073317 200.337125 
" clip-path="url(#p35c006bd42)" style="fill: none; stroke: #000000; stroke-linecap: round"/>
    <path d="M 208.983172 203.569927 
L 212.073317 200.337125 
L 212.805472 204.748922 
L 208.983172 203.569927 
z
" clip-path="url(#p35c006bd42)" style="stroke: #000000; stroke-linecap: round"/>
   </g>
   <g id="patch_11">
    <path d="M 201.354558 233.061123 
Q 190.691845 248.212658 180.672575 262.449872 
" clip-path="url(#p35c006bd42)" style="fill: none; stroke: #000000; stroke-linecap: round"/>
    <path d="M 184.61021 260.329724 
L 180.672575 262.449872 
L 181.339037 258.027675 
L 184.61021 260.329724 
z
" clip-path="url(#p35c006bd42)" style="stroke: #000000; stroke-linecap: round"/>
   </g>
   <g id="patch_12">
    <path d="M 202.441421 229.543323 
Q 202.059831 200.908814 201.693139 173.392241 
" clip-path="url(#p35c006bd42)" style="fill: none; stroke: #000000; stroke-linecap: round"/>
    <path d="M 199.746617 177.418535 
L 201.693139 173.392241 
L 203.746262 177.365235 
L 199.746617 177.418535 
z
" clip-path="url(#p35c006bd42)" style="stroke: #000000; stroke-linecap: round"/>
   </g>
   <g id="patch_13">
    <path d="M 202.684443 233.402012 
Q 205.269385 256.274466 207.728771 278.035959 
" clip-path="url(#p35c006bd42)" style="fill: none; stroke: #000000; stroke-linecap: round"/>
    <path d="M 209.266917 273.83666 
L 207.728771 278.035959 
L 205.29222 274.285863 
L 209.266917 273.83666 
z
" clip-path="url(#p35c006bd42)" style="stroke: #000000; stroke-linecap: round"/>
   </g>
   <g id="patch_14">
    <path d="M 274.762332 71.213645 
Q 261.715538 86.454672 249.395806 100.846357 
" clip-path="url(#p35c006bd42)" style="fill: none; stroke: #000000; stroke-linecap: round"/>
    <path d="M 253.516371 99.108271 
L 249.395806 100.846357 
L 250.477677 96.507053 
L 253.516371 99.108271 
z
" clip-path="url(#p35c006bd42)" style="stroke: #000000; stroke-linecap: round"/>
   </g>
   <g id="patch_15">
    <path d="M 284.548015 118.250032 
Q 278.300604 127.339538 272.686479 135.50766 
" clip-path="url(#p35c006bd42)" style="fill: none; stroke: #000000; stroke-linecap: round"/>
    <path d="M 276.600415 133.344075 
L 272.686479 135.50766 
L 273.303973 131.07836 
L 276.600415 133.344075 
z
" clip-path="url(#p35c006bd42)" style="stroke: #000000; stroke-linecap: round"/>
   </g>
   <g id="patch_16">
    <path d="M 283.818492 116.012496 
Q 266.526726 109.91256 250.289314 104.184563 
" clip-path="url(#p35c006bd42)" style="fill: none; stroke: #000000; stroke-linecap: round"/>
    <path d="M 253.396138 107.401338 
L 250.289314 104.184563 
L 254.726829 103.629169 
L 253.396138 107.401338 
z
" clip-path="url(#p35c006bd42)" style="stroke: #000000; stroke-linecap: round"/>
   </g>
   <g id="patch_17">
    <path d="M 269.602861 139.411189 
Q 241.964214 167.721786 215.106585 195.232377 
" clip-path="url(#p35c006bd42)" style="fill: none; stroke: #000000; stroke-linecap: round"/>
    <path d="M 219.331937 193.767315 
L 215.106585 195.232377 
L 216.469747 190.973059 
L 219.331937 193.767315 
z
" clip-path="url(#p35c006bd42)" style="stroke: #000000; stroke-linecap: round"/>
   </g>
   <g id="patch_18">
    <path d="M 272.051938 136.430868 
Q 278.29935 127.341362 283.913475 119.17324 
" clip-path="url(#p35c006bd42)" style="fill: none; stroke: #000000; stroke-linecap: round"/>
    <path d="M 279.999538 121.336825 
L 283.913475 119.17324 
L 283.295981 123.60254 
L 279.999538 121.336825 
z
" clip-path="url(#p35c006bd42)" style="stroke: #000000; stroke-linecap: round"/>
   </g>
   <g id="patch_19">
    <path d="M 272.574561 136.958498 
Q 302.593326 117.179193 331.678497 98.015033 
" clip-path="url(#p35c006bd42)" style="fill: none; stroke: #000000; stroke-linecap: round"/>
    <path d="M 327.237966 98.545773 
L 331.678497 98.015033 
L 329.43877 101.885901 
L 327.237966 98.545773 
z
" clip-path="url(#p35c006bd42)" style="stroke: #000000; stroke-linecap: round"/>
   </g>
   <g id="patch_20">
    <path d="M 269.871373 136.418388 
Q 259.18136 120.594926 249.117226 105.697895 
" clip-path="url(#p35c006bd42)" style="fill: none; stroke: #000000; stroke-linecap: round"/>
    <path d="M 249.699186 110.132004 
L 249.117226 105.697895 
L 253.013689 107.892793 
L 249.699186 110.132004 
z
" clip-path="url(#p35c006bd42)" style="stroke: #000000; stroke-linecap: round"/>
   </g>
   <g id="patch_21">
    <path d="M 248.66739 101.69728 
Q 261.714184 86.456253 274.033915 72.064568 
" clip-path="url(#p35c006bd42)" style="fill: none; stroke: #000000; stroke-linecap: round"/>
    <path d="M 269.91335 73.802654 
L 274.033915 72.064568 
L 272.952045 76.403872 
L 269.91335 73.802654 
z
" clip-path="url(#p35c006bd42)" style="stroke: #000000; stroke-linecap: round"/>
   </g>
   <g id="patch_22">
    <path d="M 249.233172 103.811992 
Q 266.524938 109.911929 282.76235 115.639926 
" clip-path="url(#p35c006bd42)" style="fill: none; stroke: #000000; stroke-linecap: round"/>
    <path d="M 279.655526 112.423151 
L 282.76235 115.639926 
L 278.324835 116.19532 
L 279.655526 112.423151 
z
" clip-path="url(#p35c006bd42)" style="stroke: #000000; stroke-linecap: round"/>
   </g>
   <g id="patch_23">
    <path d="M 248.493366 104.774451 
Q 259.183379 120.597914 269.247513 135.494944 
" clip-path="url(#p35c006bd42)" style="fill: none; stroke: #000000; stroke-linecap: round"/>
    <path d="M 268.665553 131.060835 
L 269.247513 135.494944 
L 265.351049 133.300047 
L 268.665553 131.060835 
z
" clip-path="url(#p35c006bd42)" style="stroke: #000000; stroke-linecap: round"/>
   </g>
   <g id="patch_24">
    <path d="M 246.316275 104.771279 
Q 224.528227 136.757791 203.369595 167.820273 
" clip-path="url(#p35c006bd42)" style="fill: none; stroke: #000000; stroke-linecap: round"/>
    <path d="M 207.274423 165.640291 
L 203.369595 167.820273 
L 203.968507 163.388421 
L 207.274423 165.640291 
z
" clip-path="url(#p35c006bd42)" style="stroke: #000000; stroke-linecap: round"/>
   </g>
   <g id="patch_25">
    <path d="M 249.169486 102.367378 
Q 268.53269 93.563032 286.87813 85.221459 
" clip-path="url(#p35c006bd42)" style="fill: none; stroke: #000000; stroke-linecap: round"/>
    <path d="M 282.409038 85.05649 
L 286.87813 85.221459 
L 284.0647 88.697751 
L 282.409038 85.05649 
z
" clip-path="url(#p35c006bd42)" style="stroke: #000000; stroke-linecap: round"/>
   </g>
   <g id="patch_26">
    <path d="M 249.339695 103.016221 
Q 290.818067 99.752163 331.18185 96.575816 
" clip-path="url(#p35c006bd42)" style="fill: none; stroke: #000000; stroke-linecap: round"/>
    <path d="M 327.037277 94.895782 
L 331.18185 96.575816 
L 327.351079 98.883454 
L 327.037277 94.895782 
z
" clip-path="url(#p35c006bd42)" style="stroke: #000000; stroke-linecap: round"/>
   </g>
   <g id="patch_27">
    <path d="M 247.573089 101.238163 
Q 249.00483 84.476882 250.341417 68.829578 
" clip-path="url(#p35c006bd42)" style="fill: none; stroke: #000000; stroke-linecap: round"/>
    <path d="M 248.008235 72.644845 
L 250.341417 68.829578 
L 251.993721 72.985284 
L 248.008235 72.644845 
z
" clip-path="url(#p35c006bd42)" style="stroke: #000000; stroke-linecap: round"/>
   </g>
   <g id="patch_28">
    <path d="M 246.310129 101.573146 
Q 237.115037 88.216561 228.553925 75.780882 
" clip-path="url(#p35c006bd42)" style="fill: none; stroke: #000000; stroke-linecap: round"/>
    <path d="M 229.174757 80.209716 
L 228.553925 75.780882 
L 232.469491 77.941517 
L 229.174757 80.209716 
z
" clip-path="url(#p35c006bd42)" style="stroke: #000000; stroke-linecap: round"/>
   </g>
   <g id="patch_29">
    <path d="M 245.587137 102.501987 
Q 205.55921 87.858162 166.581259 73.598461 
" clip-path="url(#p35c006bd42)" style="fill: none; stroke: #000000; stroke-linecap: round"/>
    <path d="M 169.650626 76.850997 
L 166.581259 73.598461 
L 171.024908 73.094489 
L 169.650626 76.850997 
z
" clip-path="url(#p35c006bd42)" style="stroke: #000000; stroke-linecap: round"/>
   </g>
   <g id="patch_30">
    <path d="M 287.896608 84.758362 
Q 268.533404 93.562707 250.187964 101.904281 
" clip-path="url(#p35c006bd42)" style="fill: none; stroke: #000000; stroke-linecap: round"/>
    <path d="M 254.657056 102.06925 
L 250.187964 101.904281 
L 253.001394 98.427989 
L 254.657056 102.06925 
z
" clip-path="url(#p35c006bd42)" style="stroke: #000000; stroke-linecap: round"/>
   </g>
   <g id="patch_31">
    <path d="M 332.608341 97.40236 
Q 302.589576 117.181664 273.504405 136.345825 
" clip-path="url(#p35c006bd42)" style="fill: none; stroke: #000000; stroke-linecap: round"/>
    <path d="M 277.944936 135.815085 
L 273.504405 136.345825 
L 275.744132 132.474957 
L 277.944936 135.815085 
z
" clip-path="url(#p35c006bd42)" style="stroke: #000000; stroke-linecap: round"/>
   </g>
   <g id="patch_32">
    <path d="M 332.294917 96.488226 
Q 290.816545 99.752283 250.452762 102.92863 
" clip-path="url(#p35c006bd42)" style="fill: none; stroke: #000000; stroke-linecap: round"/>
    <path d="M 254.597335 104.608664 
L 250.452762 102.92863 
L 254.283533 100.620992 
L 254.597335 104.608664 
z
" clip-path="url(#p35c006bd42)" style="stroke: #000000; stroke-linecap: round"/>
   </g>
   <g id="patch_33">
    <path d="M 336.161302 96.397422 
Q 364.883517 97.305734 392.488257 98.178708 
" clip-path="url(#p35c006bd42)" style="fill: none; stroke: #000000; stroke-linecap: round"/>
    <path d="M 388.553473 96.053274 
L 392.488257 98.178708 
L 388.42704 100.051275 
L 388.553473 96.053274 
z
" clip-path="url(#p35c006bd42)" style="stroke: #000000; stroke-linecap: round"/>
   </g>
   <g id="patch_34">
    <path d="M 336.08077 95.774116 
Q 360.282413 88.437907 383.4141 81.426032 
" clip-path="url(#p35c006bd42)" style="fill: none; stroke: #000000; stroke-linecap: round"/>
    <path d="M 379.00592 80.672409 
L 383.4141 81.426032 
L 380.166294 84.500402 
L 379.00592 80.672409 
z
" clip-path="url(#p35c006bd42)" style="stroke: #000000; stroke-linecap: round"/>
   </g>
   <g id="patch_35">
    <path d="M 335.760899 95.1491 
Q 359.420701 76.845346 382.196204 59.225707 
" clip-path="url(#p35c006bd42)" style="fill: none; stroke: #000000; stroke-linecap: round"/>
    <path d="M 377.808653 60.091385 
L 382.196204 59.225707 
L 380.256216 63.255155 
L 377.808653 60.091385 
z
" clip-path="url(#p35c006bd42)" style="stroke: #000000; stroke-linecap: round"/>
   </g>
   <g id="patch_36">
    <path d="M 384.485558 81.101242 
Q 360.283915 88.437452 337.152228 95.449327 
" clip-path="url(#p35c006bd42)" style="fill: none; stroke: #000000; stroke-linecap: round"/>
    <path d="M 341.560408 96.202949 
L 337.152228 95.449327 
L 340.400034 92.374956 
L 341.560408 96.202949 
z
" clip-path="url(#p35c006bd42)" style="stroke: #000000; stroke-linecap: round"/>
   </g>
   <g id="patch_37">
    <path d="M 174.140985 151.750798 
Q 187.095769 160.504729 199.124185 168.632686 
" clip-path="url(#p35c006bd42)" style="fill: none; stroke: #000000; stroke-linecap: round"/>
    <path d="M 196.929688 164.735997 
L 199.124185 168.632686 
L 194.690136 168.05027 
L 196.929688 164.735997 
z
" clip-path="url(#p35c006bd42)" style="stroke: #000000; stroke-linecap: round"/>
   </g>
   <g id="patch_38">
    <path d="M 236.607968 195.200076 
Q 219.918557 183.331233 204.140273 172.110348 
" clip-path="url(#p35c006bd42)" style="fill: none; stroke: #000000; stroke-linecap: round"/>
    <path d="M 206.240918 176.058422 
L 204.140273 172.110348 
L 208.559119 172.798676 
L 206.240918 176.058422 
z
" clip-path="url(#p35c006bd42)" style="stroke: #000000; stroke-linecap: round"/>
   </g>
   <g id="patch_39">
    <path d="M 41.909616 179.014523 
Q 71.679881 182.411864 100.339323 185.68244 
" clip-path="url(#p35c006bd42)" style="fill: none; stroke: #000000; stroke-linecap: round"/>
    <path d="M 96.591883 183.241806 
L 100.339323 185.68244 
L 96.138352 187.216012 
L 96.591883 183.241806 
z
" clip-path="url(#p35c006bd42)" style="stroke: #000000; stroke-linecap: round"/>
   </g>
   <g id="patch_40">
    <path d="M 243.442193 229.419015 
Q 228.876699 214.120043 215.082126 199.630812 
" clip-path="url(#p35c006bd42)" style="fill: none; stroke: #000000; stroke-linecap: round"/>
    <path d="M 216.391744 203.906896 
L 215.082126 199.630812 
L 219.288765 201.148768 
L 216.391744 203.906896 
z
" clip-path="url(#p35c006bd42)" style="stroke: #000000; stroke-linecap: round"/>
   </g>
   <g id="patch_41">
    <path d="M 419.268665 31.15771 
Q 402.71252 43.673524 387.048243 55.515121 
" clip-path="url(#p35c006bd42)" style="fill: none; stroke: #000000; stroke-linecap: round"/>
    <path d="M 391.445168 54.698386 
L 387.048243 55.515121 
L 389.03301 51.50754 
L 391.445168 54.698386 
z
" clip-path="url(#p35c006bd42)" style="stroke: #000000; stroke-linecap: round"/>
   </g>
   <g id="patch_42">
    <path d="M 250.436191 67.720063 
Q 249.004449 84.481344 247.667863 100.128647 
" clip-path="url(#p35c006bd42)" style="fill: none; stroke: #000000; stroke-linecap: round"/>
    <path d="M 250.001045 96.31338 
L 247.667863 100.128647 
L 246.015558 95.972942 
L 250.001045 96.31338 
z
" clip-path="url(#p35c006bd42)" style="stroke: #000000; stroke-linecap: round"/>
   </g>
   <g id="patch_43">
    <path d="M 207.854457 279.148075 
Q 205.269515 256.27562 202.810129 234.514128 
" clip-path="url(#p35c006bd42)" style="fill: none; stroke: #000000; stroke-linecap: round"/>
    <path d="M 201.271983 238.713426 
L 202.810129 234.514128 
L 205.24668 238.264223 
L 201.271983 238.713426 
z
" clip-path="url(#p35c006bd42)" style="stroke: #000000; stroke-linecap: round"/>
   </g>
   <g id="patch_44">
    <path d="M 208.097249 283.005329 
Q 208.299912 298.33848 208.487798 312.553696 
" clip-path="url(#p35c006bd42)" style="fill: none; stroke: #000000; stroke-linecap: round"/>
    <path d="M 210.434759 308.527613 
L 208.487798 312.553696 
L 206.435108 308.580477 
L 210.434759 308.527613 
z
" clip-path="url(#p35c006bd42)" style="stroke: #000000; stroke-linecap: round"/>
   </g>
   <g id="patch_45">
    <path d="M 227.921432 74.862136 
Q 237.116524 88.218721 245.677636 100.6544 
" clip-path="url(#p35c006bd42)" style="fill: none; stroke: #000000; stroke-linecap: round"/>
    <path d="M 245.056804 96.225566 
L 245.677636 100.6544 
L 241.76207 98.493765 
L 245.056804 96.225566 
z
" clip-path="url(#p35c006bd42)" style="stroke: #000000; stroke-linecap: round"/>
   </g>
   <g id="patch_46">
    <path d="M 208.502614 313.674639 
Q 208.299951 298.341488 208.112065 284.126273 
" clip-path="url(#p35c006bd42)" style="fill: none; stroke: #000000; stroke-linecap: round"/>
    <path d="M 206.165104 288.152356 
L 208.112065 284.126273 
L 210.164755 288.099491 
L 206.165104 288.152356 
z
" clip-path="url(#p35c006bd42)" style="stroke: #000000; stroke-linecap: round"/>
   </g>
   <g id="patch_47">
    <path d="M 341.697509 211.574425 
Q 314.614434 203.2622 288.600186 195.278014 
" clip-path="url(#p35c006bd42)" style="fill: none; stroke: #000000; stroke-linecap: round"/>
    <path d="M 291.83732 198.363619 
L 288.600186 195.278014 
L 293.010951 194.53967 
L 291.83732 198.363619 
z
" clip-path="url(#p35c006bd42)" style="stroke: #000000; stroke-linecap: round"/>
   </g>
   <g id="patch_48">
    <path d="M 124.136897 44.188674 
Q 143.139577 57.805793 161.233466 70.771683 
" clip-path="url(#p35c006bd42)" style="fill: none; stroke: #000000; stroke-linecap: round"/>
    <path d="M 159.147033 66.816079 
L 161.233466 70.771683 
L 156.817123 70.067466 
L 159.147033 66.816079 
z
" clip-path="url(#p35c006bd42)" style="stroke: #000000; stroke-linecap: round"/>
   </g>
   <g id="patch_49">
    <path d="M 243.013582 163.866179 
Q 223.288547 166.954071 204.668093 169.869044 
" clip-path="url(#p35c006bd42)" style="fill: none; stroke: #000000; stroke-linecap: round"/>
    <path d="M 208.929288 171.226326 
L 204.668093 169.869044 
L 208.310636 167.274457 
L 208.929288 171.226326 
z
" clip-path="url(#p35c006bd42)" style="stroke: #000000; stroke-linecap: round"/>
   </g>
   <g id="patch_50">
    <path d="M 383.075509 58.545457 
Q 359.415707 76.84921 336.640204 94.46885 
" clip-path="url(#p35c006bd42)" style="fill: none; stroke: #000000; stroke-linecap: round"/>
    <path d="M 341.027755 93.603171 
L 336.640204 94.46885 
L 338.580192 90.439402 
L 341.027755 93.603171 
z
" clip-path="url(#p35c006bd42)" style="stroke: #000000; stroke-linecap: round"/>
   </g>
   <g id="patch_51">
    <path d="M 386.154579 56.190697 
Q 402.710724 43.674882 418.375 31.833286 
" clip-path="url(#p35c006bd42)" style="fill: none; stroke: #000000; stroke-linecap: round"/>
    <path d="M 413.978076 32.650021 
L 418.375 31.833286 
L 416.390234 35.840867 
L 413.978076 32.650021 
z
" clip-path="url(#p35c006bd42)" style="stroke: #000000; stroke-linecap: round"/>
   </g>
   <g id="patch_52">
    <path d="M 393.609917 98.214179 
Q 364.887701 97.305867 337.282961 96.432894 
" clip-path="url(#p35c006bd42)" style="fill: none; stroke: #000000; stroke-linecap: round"/>
    <path d="M 341.217746 98.558327 
L 337.282961 96.432894 
L 341.344179 94.560326 
L 341.217746 98.558327 
z
" clip-path="url(#p35c006bd42)" style="stroke: #000000; stroke-linecap: round"/>
   </g>
   <g id="patch_53">
    <path d="M 180.026911 263.36735 
Q 190.689623 248.215815 200.708894 233.978601 
" clip-path="url(#p35c006bd42)" style="fill: none; stroke: #000000; stroke-linecap: round"/>
    <path d="M 196.771258 236.098749 
L 200.708894 233.978601 
L 200.042431 238.400798 
L 196.771258 236.098749 
z
" clip-path="url(#p35c006bd42)" style="stroke: #000000; stroke-linecap: round"/>
   </g>
   <g id="patch_54">
    <path d="M 148.810931 161.242321 
Q 174.278661 165.62762 198.644572 169.823196 
" clip-path="url(#p35c006bd42)" style="fill: none; stroke: #000000; stroke-linecap: round"/>
    <path d="M 195.04197 167.173429 
L 198.644572 169.823196 
L 194.363198 171.115417 
L 195.04197 167.173429 
z
" clip-path="url(#p35c006bd42)" style="stroke: #000000; stroke-linecap: round"/>
   </g>
   <g id="patch_55">
    <path d="M 152.124677 178.095202 
Q 175.931819 174.367956 198.634381 170.813642 
" clip-path="url(#p35c006bd42)" style="fill: none; stroke: #000000; stroke-linecap: round"/>
    <path d="M 194.373169 169.456415 
L 198.634381 170.813642 
L 194.991872 173.408276 
L 194.373169 169.456415 
z
" clip-path="url(#p35c006bd42)" style="stroke: #000000; stroke-linecap: round"/>
   </g>
   <g id="patch_56">
    <path d="M 151.7752 38.438391 
Q 157.425105 54.580105 162.705649 69.666559 
" clip-path="url(#p35c006bd42)" style="fill: none; stroke: #000000; stroke-linecap: round"/>
    <path d="M 163.271889 65.230415 
L 162.705649 69.666559 
L 159.496478 66.55188 
L 163.271889 65.230415 
z
" clip-path="url(#p35c006bd42)" style="stroke: #000000; stroke-linecap: round"/>
   </g>
   <g id="patch_57">
    <path d="M 250.697732 179.92082 
Q 227.125537 175.316616 204.65064 170.92674 
" clip-path="url(#p35c006bd42)" style="fill: none; stroke: #000000; stroke-linecap: round"/>
    <path d="M 208.193052 173.656451 
L 204.65064 170.92674 
L 208.959856 169.730637 
L 208.193052 173.656451 
z
" clip-path="url(#p35c006bd42)" style="stroke: #000000; stroke-linecap: round"/>
   </g>
   <g id="patch_58">
    <path d="M 174.775795 192.528435 
Q 187.467745 182.050945 199.297494 172.285222 
" clip-path="url(#p35c006bd42)" style="fill: none; stroke: #000000; stroke-linecap: round"/>
    <path d="M 194.939547 173.289361 
L 199.297494 172.285222 
L 197.486038 176.374063 
L 194.939547 173.289361 
z
" clip-path="url(#p35c006bd42)" style="stroke: #000000; stroke-linecap: round"/>
   </g>
   <g id="patch_59">
    <path d="M 166.416257 96.714135 
Q 169.454854 106.402267 172.15886 115.023606 
" clip-path="url(#p35c006bd42)" style="fill: none; stroke: #000000; stroke-linecap: round"/>
    <path d="M 172.870132 110.608395 
L 172.15886 115.023606 
L 169.053454 111.805462 
L 172.870132 110.608395 
z
" clip-path="url(#p35c006bd42)" style="stroke: #000000; stroke-linecap: round"/>
   </g>
   <g id="patch_60">
    <path d="M 172.492406 116.087069 
Q 169.453809 106.398936 166.749803 97.777597 
" clip-path="url(#p35c006bd42)" style="fill: none; stroke: #000000; stroke-linecap: round"/>
    <path d="M 166.038531 102.192809 
L 166.749803 97.777597 
L 169.855209 100.995741 
L 166.038531 102.192809 
z
" clip-path="url(#p35c006bd42)" style="stroke: #000000; stroke-linecap: round"/>
   </g>
   <g id="patch_61">
    <path d="M 173.999069 119.63599 
Q 187.362465 144.139038 200.190546 167.660537 
" clip-path="url(#p35c006bd42)" style="fill: none; stroke: #000000; stroke-linecap: round"/>
    <path d="M 200.031197 163.19124 
L 200.190546 167.660537 
L 196.5195 165.106439 
L 200.031197 163.19124 
z
" clip-path="url(#p35c006bd42)" style="stroke: #000000; stroke-linecap: round"/>
   </g>
   <g id="patch_62">
    <path d="M 172.681563 116.039987 
Q 168.393857 95.243857 164.331916 75.54273 
" clip-path="url(#p35c006bd42)" style="fill: none; stroke: #000000; stroke-linecap: round"/>
    <path d="M 163.18084 79.864191 
L 164.331916 75.54273 
L 167.098439 79.056468 
L 163.18084 79.864191 
z
" clip-path="url(#p35c006bd42)" style="stroke: #000000; stroke-linecap: round"/>
   </g>
   <g id="patch_63">
    <path d="M 44.204922 197.598459 
Q 72.838189 191.999717 100.374201 186.615523 
" clip-path="url(#p35c006bd42)" style="fill: none; stroke: #000000; stroke-linecap: round"/>
    <path d="M 96.064744 185.420289 
L 100.374201 186.615523 
L 96.832339 189.345948 
L 96.064744 185.420289 
z
" clip-path="url(#p35c006bd42)" style="stroke: #000000; stroke-linecap: round"/>
   </g>
   <g id="patch_64">
    <path d="M 101.451844 185.809399 
Q 71.681578 182.412058 43.022136 179.141482 
" clip-path="url(#p35c006bd42)" style="fill: none; stroke: #000000; stroke-linecap: round"/>
    <path d="M 46.769576 181.582116 
L 43.022136 179.141482 
L 47.223107 177.60791 
L 46.769576 181.582116 
z
" clip-path="url(#p35c006bd42)" style="stroke: #000000; stroke-linecap: round"/>
   </g>
   <g id="patch_65">
    <path d="M 101.477523 186.399787 
Q 72.844256 191.99853 45.308244 197.382724 
" clip-path="url(#p35c006bd42)" style="fill: none; stroke: #000000; stroke-linecap: round"/>
    <path d="M 49.6177 198.577958 
L 45.308244 197.382724 
L 48.850105 194.652299 
L 49.6177 198.577958 
z
" clip-path="url(#p35c006bd42)" style="stroke: #000000; stroke-linecap: round"/>
   </g>
   <g id="patch_66">
    <path d="M 105.285173 185.723866 
Q 152.511564 178.185301 198.633899 170.822973 
" clip-path="url(#p35c006bd42)" style="fill: none; stroke: #000000; stroke-linecap: round"/>
    <path d="M 194.368645 169.478498 
L 198.633899 170.822973 
L 194.999167 173.428491 
L 194.368645 169.478498 
z
" clip-path="url(#p35c006bd42)" style="stroke: #000000; stroke-linecap: round"/>
   </g>
   <g id="patch_67">
    <path d="M 105.094113 186.923914 
Q 122.487523 195.978399 138.889225 204.516631 
" clip-path="url(#p35c006bd42)" style="fill: none; stroke: #000000; stroke-linecap: round"/>
    <path d="M 136.264687 200.895609 
L 138.889225 204.516631 
L 134.417685 204.443649 
L 136.264687 200.895609 
z
" clip-path="url(#p35c006bd42)" style="stroke: #000000; stroke-linecap: round"/>
   </g>
   <g id="patch_68">
    <path d="M 202.400162 172.129198 
Q 207.313472 183.879291 211.795465 194.597897 
" clip-path="url(#p35c006bd42)" style="fill: none; stroke: #000000; stroke-linecap: round"/>
    <path d="M 212.097518 190.135973 
L 211.795465 194.597897 
L 208.407158 191.6791 
L 212.097518 190.135973 
z
" clip-path="url(#p35c006bd42)" style="stroke: #000000; stroke-linecap: round"/>
   </g>
   <g id="patch_69">
    <path d="M 201.678288 172.277841 
Q 202.059878 200.912349 202.42657 228.428923 
" clip-path="url(#p35c006bd42)" style="fill: none; stroke: #000000; stroke-linecap: round"/>
    <path d="M 204.373092 224.402628 
L 202.42657 228.428923 
L 200.373447 224.455929 
L 204.373092 224.402628 
z
" clip-path="url(#p35c006bd42)" style="stroke: #000000; stroke-linecap: round"/>
   </g>
   <g id="patch_70">
    <path d="M 202.744429 168.738064 
Q 224.532477 136.751551 245.691109 105.68907 
" clip-path="url(#p35c006bd42)" style="fill: none; stroke: #000000; stroke-linecap: round"/>
    <path d="M 241.786281 107.869051 
L 245.691109 105.68907 
L 245.092197 110.120921 
L 241.786281 107.869051 
z
" clip-path="url(#p35c006bd42)" style="stroke: #000000; stroke-linecap: round"/>
   </g>
   <g id="patch_71">
    <path d="M 200.049627 169.258034 
Q 187.094842 160.504103 175.066426 152.376146 
" clip-path="url(#p35c006bd42)" style="fill: none; stroke: #000000; stroke-linecap: round"/>
    <path d="M 177.260923 156.272835 
L 175.066426 152.376146 
L 179.500475 152.958562 
L 177.260923 156.272835 
z
" clip-path="url(#p35c006bd42)" style="stroke: #000000; stroke-linecap: round"/>
   </g>
   <g id="patch_72">
    <path d="M 203.228899 171.462215 
Q 219.91831 183.331058 235.696594 194.551943 
" clip-path="url(#p35c006bd42)" style="fill: none; stroke: #000000; stroke-linecap: round"/>
    <path d="M 233.595949 190.603869 
L 235.696594 194.551943 
L 231.277748 193.863615 
L 233.595949 190.603869 
z
" clip-path="url(#p35c006bd42)" style="stroke: #000000; stroke-linecap: round"/>
   </g>
   <g id="patch_73">
    <path d="M 203.567468 170.041343 
Q 223.292503 166.953451 241.912957 164.038478 
" clip-path="url(#p35c006bd42)" style="fill: none; stroke: #000000; stroke-linecap: round"/>
    <path d="M 237.651762 162.681196 
L 241.912957 164.038478 
L 238.270414 166.633065 
L 237.651762 162.681196 
z
" clip-path="url(#p35c006bd42)" style="stroke: #000000; stroke-linecap: round"/>
   </g>
   <g id="patch_74">
    <path d="M 199.744396 170.012575 
Q 174.276666 165.627276 149.910755 161.4317 
" clip-path="url(#p35c006bd42)" style="fill: none; stroke: #000000; stroke-linecap: round"/>
    <path d="M 153.513357 164.081467 
L 149.910755 161.4317 
L 154.192129 160.139479 
L 153.513357 164.081467 
z
" clip-path="url(#p35c006bd42)" style="stroke: #000000; stroke-linecap: round"/>
   </g>
   <g id="patch_75">
    <path d="M 199.740439 170.640478 
Q 175.933298 174.367724 153.230735 177.922038 
" clip-path="url(#p35c006bd42)" style="fill: none; stroke: #000000; stroke-linecap: round"/>
    <path d="M 157.491948 179.279265 
L 153.230735 177.922038 
L 156.873245 175.327404 
L 157.491948 179.279265 
z
" clip-path="url(#p35c006bd42)" style="stroke: #000000; stroke-linecap: round"/>
   </g>
   <g id="patch_76">
    <path d="M 203.552349 170.712218 
Q 227.124544 175.316422 249.599441 179.706298 
" clip-path="url(#p35c006bd42)" style="fill: none; stroke: #000000; stroke-linecap: round"/>
    <path d="M 246.057029 176.976588 
L 249.599441 179.706298 
L 245.290226 180.902401 
L 246.057029 176.976588 
z
" clip-path="url(#p35c006bd42)" style="stroke: #000000; stroke-linecap: round"/>
   </g>
   <g id="patch_77">
    <path d="M 200.159907 171.57328 
Q 187.467957 182.05077 175.638208 191.816493 
" clip-path="url(#p35c006bd42)" style="fill: none; stroke: #000000; stroke-linecap: round"/>
    <path d="M 179.996155 190.812354 
L 175.638208 191.816493 
L 177.449664 187.727652 
L 179.996155 190.812354 
z
" clip-path="url(#p35c006bd42)" style="stroke: #000000; stroke-linecap: round"/>
   </g>
   <g id="patch_78">
    <path d="M 200.726222 168.642748 
Q 187.362826 144.1397 174.534744 120.618202 
" clip-path="url(#p35c006bd42)" style="fill: none; stroke: #000000; stroke-linecap: round"/>
    <path d="M 174.694094 125.087498 
L 174.534744 120.618202 
L 178.205791 123.172299 
L 174.694094 125.087498 
z
" clip-path="url(#p35c006bd42)" style="stroke: #000000; stroke-linecap: round"/>
   </g>
   <g id="patch_79">
    <path d="M 199.741989 170.646093 
Q 152.515597 178.184658 106.393263 185.546986 
" clip-path="url(#p35c006bd42)" style="fill: none; stroke: #000000; stroke-linecap: round"/>
    <path d="M 110.658516 186.891461 
L 106.393263 185.546986 
L 110.027994 182.941468 
L 110.658516 186.891461 
z
" clip-path="url(#p35c006bd42)" style="stroke: #000000; stroke-linecap: round"/>
   </g>
   <g id="patch_80">
    <path d="M 203.516776 170.874513 
Q 243.667719 182.361887 282.743758 193.541725 
" clip-path="url(#p35c006bd42)" style="fill: none; stroke: #000000; stroke-linecap: round"/>
    <path d="M 279.448195 190.518603 
L 282.743758 193.541725 
L 278.347923 194.364302 
L 279.448195 190.518603 
z
" clip-path="url(#p35c006bd42)" style="stroke: #000000; stroke-linecap: round"/>
   </g>
   <g id="patch_81">
    <path d="M 143.519948 205.698068 
Q 177.286875 201.671855 209.943633 197.778013 
" clip-path="url(#p35c006bd42)" style="fill: none; stroke: #000000; stroke-linecap: round"/>
    <path d="M 205.734974 196.265668 
L 209.943633 197.778013 
L 206.208561 200.237533 
L 205.734974 196.265668 
z
" clip-path="url(#p35c006bd42)" style="stroke: #000000; stroke-linecap: round"/>
   </g>
   <g id="patch_82">
    <path d="M 139.879341 205.032056 
Q 122.485932 195.977571 106.08423 187.439339 
" clip-path="url(#p35c006bd42)" style="fill: none; stroke: #000000; stroke-linecap: round"/>
    <path d="M 108.708768 191.060361 
L 106.08423 187.439339 
L 110.55577 187.512322 
L 108.708768 191.060361 
z
" clip-path="url(#p35c006bd42)" style="stroke: #000000; stroke-linecap: round"/>
   </g>
   <g id="patch_83">
    <path d="M 287.536077 194.951422 
Q 314.619152 203.263647 340.6334 211.247833 
" clip-path="url(#p35c006bd42)" style="fill: none; stroke: #000000; stroke-linecap: round"/>
    <path d="M 337.396266 208.162228 
L 340.6334 211.247833 
L 336.222635 211.986177 
L 337.396266 208.162228 
z
" clip-path="url(#p35c006bd42)" style="stroke: #000000; stroke-linecap: round"/>
   </g>
   <g id="patch_84">
    <path d="M 283.817421 193.848905 
Q 243.666477 182.361531 204.590439 171.181693 
" clip-path="url(#p35c006bd42)" style="fill: none; stroke: #000000; stroke-linecap: round"/>
    <path d="M 207.886002 174.204815 
L 204.590439 171.181693 
L 208.986274 170.359116 
L 207.886002 174.204815 
z
" clip-path="url(#p35c006bd42)" style="stroke: #000000; stroke-linecap: round"/>
   </g>
   <g id="patch_85">
    <path d="M 161.842836 72.050948 
Q 135.367522 64.995656 109.97254 58.228257 
" clip-path="url(#p35c006bd42)" style="fill: none; stroke: #000000; stroke-linecap: round"/>
    <path d="M 113.322655 61.190812 
L 109.97254 58.228257 
L 114.352653 57.325698 
L 113.322655 61.190812 
z
" clip-path="url(#p35c006bd42)" style="stroke: #000000; stroke-linecap: round"/>
   </g>
   <g id="patch_86">
    <path d="M 165.535929 73.216037 
Q 205.563856 87.859862 244.541807 102.119563 
" clip-path="url(#p35c006bd42)" style="fill: none; stroke: #000000; stroke-linecap: round"/>
    <path d="M 241.47244 98.867028 
L 244.541807 102.119563 
L 240.098159 102.623536 
L 241.47244 98.867028 
z
" clip-path="url(#p35c006bd42)" style="stroke: #000000; stroke-linecap: round"/>
   </g>
   <g id="patch_87">
    <path d="M 162.139962 71.421269 
Q 143.137283 57.804149 125.043394 44.83826 
" clip-path="url(#p35c006bd42)" style="fill: none; stroke: #000000; stroke-linecap: round"/>
    <path d="M 127.129826 48.793863 
L 125.043394 44.83826 
L 129.459736 45.542476 
L 127.129826 48.793863 
z
" clip-path="url(#p35c006bd42)" style="stroke: #000000; stroke-linecap: round"/>
   </g>
   <g id="patch_88">
    <path d="M 163.074478 70.720298 
Q 157.424573 54.578584 152.144029 39.49213 
" clip-path="url(#p35c006bd42)" style="fill: none; stroke: #000000; stroke-linecap: round"/>
    <path d="M 151.577788 43.928274 
L 152.144029 39.49213 
L 155.3532 42.606809 
L 151.577788 43.928274 
z
" clip-path="url(#p35c006bd42)" style="stroke: #000000; stroke-linecap: round"/>
   </g>
   <g id="patch_89">
    <path d="M 164.10609 74.447433 
Q 168.393796 95.243562 172.455737 114.94469 
" clip-path="url(#p35c006bd42)" style="fill: none; stroke: #000000; stroke-linecap: round"/>
    <path d="M 173.606813 110.623229 
L 172.455737 114.94469 
L 169.689214 111.430952 
L 173.606813 110.623229 
z
" clip-path="url(#p35c006bd42)" style="stroke: #000000; stroke-linecap: round"/>
   </g>
   <g id="PathCollection_1">
    <defs>
     <path id="m499483cb68" d="M 0 1.936492 
C 0.513564 1.936492 1.006162 1.732451 1.369306 1.369306 
C 1.732451 1.006162 1.936492 0.513564 1.936492 0 
C 1.936492 -0.513564 1.732451 -1.006162 1.369306 -1.369306 
C 1.006162 -1.732451 0.513564 -1.936492 0 -1.936492 
C -0.513564 -1.936492 -1.006162 -1.732451 -1.369306 -1.369306 
C -1.732451 -1.006162 -1.936492 -0.513564 -1.936492 0 
C -1.936492 0.513564 -1.732451 1.006162 -1.369306 1.369306 
C -1.006162 1.732451 -0.513564 1.936492 0 1.936492 
z
" style="stroke: #1f78b4"/>
    </defs>
    <g clip-path="url(#p35c006bd42)">
     <use xlink:href="#m499483cb68" x="212.974137" y="197.41667" style="fill: #1f78b4; stroke: #1f78b4"/>
     <use xlink:href="#m499483cb68" x="178.640905" y="229.480917" style="fill: #1f78b4; stroke: #1f78b4"/>
     <use xlink:href="#m499483cb68" x="107.021787" y="57.441924" style="fill: #1f78b4; stroke: #1f78b4"/>
     <use xlink:href="#m499483cb68" x="202.46723" y="231.480035" style="fill: #1f78b4; stroke: #1f78b4"/>
     <use xlink:href="#m499483cb68" x="276.021497" y="69.742711" style="fill: #1f78b4; stroke: #1f78b4"/>
     <use xlink:href="#m499483cb68" x="285.643439" y="116.656275" style="fill: #1f78b4; stroke: #1f78b4"/>
     <use xlink:href="#m499483cb68" x="270.956514" y="138.024625" style="fill: #1f78b4; stroke: #1f78b4"/>
     <use xlink:href="#m499483cb68" x="247.408225" y="103.168214" style="fill: #1f78b4; stroke: #1f78b4"/>
     <use xlink:href="#m499483cb68" x="289.65787" y="83.957526" style="fill: #1f78b4; stroke: #1f78b4"/>
     <use xlink:href="#m499483cb68" x="334.226387" y="96.336233" style="fill: #1f78b4; stroke: #1f78b4"/>
     <use xlink:href="#m499483cb68" x="386.33994" y="80.539126" style="fill: #1f78b4; stroke: #1f78b4"/>
     <use xlink:href="#m499483cb68" x="172.538132" y="150.667703" style="fill: #1f78b4; stroke: #1f78b4"/>
     <use xlink:href="#m499483cb68" x="238.184388" y="196.321162" style="fill: #1f78b4; stroke: #1f78b4"/>
     <use xlink:href="#m499483cb68" x="39.986777" y="178.795091" style="fill: #1f78b4; stroke: #1f78b4"/>
     <use xlink:href="#m499483cb68" x="244.775668" y="230.81964" style="fill: #1f78b4; stroke: #1f78b4"/>
     <use xlink:href="#m499483cb68" x="420.813223" y="29.990083" style="fill: #1f78b4; stroke: #1f78b4"/>
     <use xlink:href="#m499483cb68" x="250.601055" y="65.790012" style="fill: #1f78b4; stroke: #1f78b4"/>
     <use xlink:href="#m499483cb68" x="208.07167" y="281.070051" style="fill: #1f78b4; stroke: #1f78b4"/>
     <use xlink:href="#m499483cb68" x="226.823336" y="73.267068" style="fill: #1f78b4; stroke: #1f78b4"/>
     <use xlink:href="#m499483cb68" x="208.528193" y="315.609917" style="fill: #1f78b4; stroke: #1f78b4"/>
     <use xlink:href="#m499483cb68" x="343.551869" y="212.143558" style="fill: #1f78b4; stroke: #1f78b4"/>
     <use xlink:href="#m499483cb68" x="122.562018" y="43.060132" style="fill: #1f78b4; stroke: #1f78b4"/>
     <use xlink:href="#m499483cb68" x="244.928571" y="163.566393" style="fill: #1f78b4; stroke: #1f78b4"/>
     <use xlink:href="#m499483cb68" x="384.610021" y="57.358324" style="fill: #1f78b4; stroke: #1f78b4"/>
     <use xlink:href="#m499483cb68" x="395.544831" y="98.275369" style="fill: #1f78b4; stroke: #1f78b4"/>
     <use xlink:href="#m499483cb68" x="178.914239" y="264.948438" style="fill: #1f78b4; stroke: #1f78b4"/>
     <use xlink:href="#m499483cb68" x="146.902847" y="160.913768" style="fill: #1f78b4; stroke: #1f78b4"/>
     <use xlink:href="#m499483cb68" x="150.212637" y="178.394551" style="fill: #1f78b4; stroke: #1f78b4"/>
     <use xlink:href="#m499483cb68" x="151.134836" y="36.608878" style="fill: #1f78b4; stroke: #1f78b4"/>
     <use xlink:href="#m499483cb68" x="252.597602" y="180.29191" style="fill: #1f78b4; stroke: #1f78b4"/>
     <use xlink:href="#m499483cb68" x="173.283223" y="193.760586" style="fill: #1f78b4; stroke: #1f78b4"/>
     <use xlink:href="#m499483cb68" x="165.835852" y="94.863594" style="fill: #1f78b4; stroke: #1f78b4"/>
     <use xlink:href="#m499483cb68" x="173.072811" y="117.937609" style="fill: #1f78b4; stroke: #1f78b4"/>
     <use xlink:href="#m499483cb68" x="42.307762" y="197.969416" style="fill: #1f78b4; stroke: #1f78b4"/>
     <use xlink:href="#m499483cb68" x="103.374682" y="186.028831" style="fill: #1f78b4; stroke: #1f78b4"/>
     <use xlink:href="#m499483cb68" x="201.652479" y="170.341129" style="fill: #1f78b4; stroke: #1f78b4"/>
     <use xlink:href="#m499483cb68" x="141.598772" y="205.92714" style="fill: #1f78b4; stroke: #1f78b4"/>
     <use xlink:href="#m499483cb68" x="285.681717" y="194.382289" style="fill: #1f78b4; stroke: #1f78b4"/>
     <use xlink:href="#m499483cb68" x="163.714842" y="72.54981" style="fill: #1f78b4; stroke: #1f78b4"/>
    </g>
   </g>
   <g id="text_1">
    <g clip-path="url(#p35c006bd42)">
     <!-- 0 -->
     <g transform="translate(209.792887 200.176045) scale(0.1 -0.1)">
      <defs>
       <path id="DejaVuSans-30" d="M 2034 4250 
Q 1547 4250 1301 3770 
Q 1056 3291 1056 2328 
Q 1056 1369 1301 889 
Q 1547 409 2034 409 
Q 2525 409 2770 889 
Q 3016 1369 3016 2328 
Q 3016 3291 2770 3770 
Q 2525 4250 2034 4250 
z
M 2034 4750 
Q 2819 4750 3233 4129 
Q 3647 3509 3647 2328 
Q 3647 1150 3233 529 
Q 2819 -91 2034 -91 
Q 1250 -91 836 529 
Q 422 1150 422 2328 
Q 422 3509 836 4129 
Q 1250 4750 2034 4750 
z
" transform="scale(0.015625)"/>
      </defs>
      <use xlink:href="#DejaVuSans-30"/>
     </g>
    </g>
   </g>
   <g id="text_2">
    <g clip-path="url(#p35c006bd42)">
     <!-- 1 -->
     <g transform="translate(175.459655 232.240292) scale(0.1 -0.1)">
      <defs>
       <path id="DejaVuSans-31" d="M 794 531 
L 1825 531 
L 1825 4091 
L 703 3866 
L 703 4441 
L 1819 4666 
L 2450 4666 
L 2450 531 
L 3481 531 
L 3481 0 
L 794 0 
L 794 531 
z
" transform="scale(0.015625)"/>
      </defs>
      <use xlink:href="#DejaVuSans-31"/>
     </g>
    </g>
   </g>
   <g id="text_3">
    <g clip-path="url(#p35c006bd42)">
     <!-- 2 -->
     <g transform="translate(103.840537 60.201299) scale(0.1 -0.1)">
      <defs>
       <path id="DejaVuSans-32" d="M 1228 531 
L 3431 531 
L 3431 0 
L 469 0 
L 469 531 
Q 828 903 1448 1529 
Q 2069 2156 2228 2338 
Q 2531 2678 2651 2914 
Q 2772 3150 2772 3378 
Q 2772 3750 2511 3984 
Q 2250 4219 1831 4219 
Q 1534 4219 1204 4116 
Q 875 4013 500 3803 
L 500 4441 
Q 881 4594 1212 4672 
Q 1544 4750 1819 4750 
Q 2544 4750 2975 4387 
Q 3406 4025 3406 3419 
Q 3406 3131 3298 2873 
Q 3191 2616 2906 2266 
Q 2828 2175 2409 1742 
Q 1991 1309 1228 531 
z
" transform="scale(0.015625)"/>
      </defs>
      <use xlink:href="#DejaVuSans-32"/>
     </g>
    </g>
   </g>
   <g id="text_4">
    <g clip-path="url(#p35c006bd42)">
     <!-- 3 -->
     <g transform="translate(199.28598 234.23941) scale(0.1 -0.1)">
      <defs>
       <path id="DejaVuSans-33" d="M 2597 2516 
Q 3050 2419 3304 2112 
Q 3559 1806 3559 1356 
Q 3559 666 3084 287 
Q 2609 -91 1734 -91 
Q 1441 -91 1130 -33 
Q 819 25 488 141 
L 488 750 
Q 750 597 1062 519 
Q 1375 441 1716 441 
Q 2309 441 2620 675 
Q 2931 909 2931 1356 
Q 2931 1769 2642 2001 
Q 2353 2234 1838 2234 
L 1294 2234 
L 1294 2753 
L 1863 2753 
Q 2328 2753 2575 2939 
Q 2822 3125 2822 3475 
Q 2822 3834 2567 4026 
Q 2313 4219 1838 4219 
Q 1578 4219 1281 4162 
Q 984 4106 628 3988 
L 628 4550 
Q 988 4650 1302 4700 
Q 1616 4750 1894 4750 
Q 2613 4750 3031 4423 
Q 3450 4097 3450 3541 
Q 3450 3153 3228 2886 
Q 3006 2619 2597 2516 
z
" transform="scale(0.015625)"/>
      </defs>
      <use xlink:href="#DejaVuSans-33"/>
     </g>
    </g>
   </g>
   <g id="text_5">
    <g clip-path="url(#p35c006bd42)">
     <!-- 4 -->
     <g transform="translate(272.840247 72.502086) scale(0.1 -0.1)">
      <defs>
       <path id="DejaVuSans-34" d="M 2419 4116 
L 825 1625 
L 2419 1625 
L 2419 4116 
z
M 2253 4666 
L 3047 4666 
L 3047 1625 
L 3713 1625 
L 3713 1100 
L 3047 1100 
L 3047 0 
L 2419 0 
L 2419 1100 
L 313 1100 
L 313 1709 
L 2253 4666 
z
" transform="scale(0.015625)"/>
      </defs>
      <use xlink:href="#DejaVuSans-34"/>
     </g>
    </g>
   </g>
   <g id="text_6">
    <g clip-path="url(#p35c006bd42)">
     <!-- 5 -->
     <g transform="translate(282.462189 119.41565) scale(0.1 -0.1)">
      <defs>
       <path id="DejaVuSans-35" d="M 691 4666 
L 3169 4666 
L 3169 4134 
L 1269 4134 
L 1269 2991 
Q 1406 3038 1543 3061 
Q 1681 3084 1819 3084 
Q 2600 3084 3056 2656 
Q 3513 2228 3513 1497 
Q 3513 744 3044 326 
Q 2575 -91 1722 -91 
Q 1428 -91 1123 -41 
Q 819 9 494 109 
L 494 744 
Q 775 591 1075 516 
Q 1375 441 1709 441 
Q 2250 441 2565 725 
Q 2881 1009 2881 1497 
Q 2881 1984 2565 2268 
Q 2250 2553 1709 2553 
Q 1456 2553 1204 2497 
Q 953 2441 691 2322 
L 691 4666 
z
" transform="scale(0.015625)"/>
      </defs>
      <use xlink:href="#DejaVuSans-35"/>
     </g>
    </g>
   </g>
   <g id="text_7">
    <g clip-path="url(#p35c006bd42)">
     <!-- 6 -->
     <g transform="translate(267.775264 140.784) scale(0.1 -0.1)">
      <defs>
       <path id="DejaVuSans-36" d="M 2113 2584 
Q 1688 2584 1439 2293 
Q 1191 2003 1191 1497 
Q 1191 994 1439 701 
Q 1688 409 2113 409 
Q 2538 409 2786 701 
Q 3034 994 3034 1497 
Q 3034 2003 2786 2293 
Q 2538 2584 2113 2584 
z
M 3366 4563 
L 3366 3988 
Q 3128 4100 2886 4159 
Q 2644 4219 2406 4219 
Q 1781 4219 1451 3797 
Q 1122 3375 1075 2522 
Q 1259 2794 1537 2939 
Q 1816 3084 2150 3084 
Q 2853 3084 3261 2657 
Q 3669 2231 3669 1497 
Q 3669 778 3244 343 
Q 2819 -91 2113 -91 
Q 1303 -91 875 529 
Q 447 1150 447 2328 
Q 447 3434 972 4092 
Q 1497 4750 2381 4750 
Q 2619 4750 2861 4703 
Q 3103 4656 3366 4563 
z
" transform="scale(0.015625)"/>
      </defs>
      <use xlink:href="#DejaVuSans-36"/>
     </g>
    </g>
   </g>
   <g id="text_8">
    <g clip-path="url(#p35c006bd42)">
     <!-- 7 -->
     <g transform="translate(244.226975 105.927589) scale(0.1 -0.1)">
      <defs>
       <path id="DejaVuSans-37" d="M 525 4666 
L 3525 4666 
L 3525 4397 
L 1831 0 
L 1172 0 
L 2766 4134 
L 525 4134 
L 525 4666 
z
" transform="scale(0.015625)"/>
      </defs>
      <use xlink:href="#DejaVuSans-37"/>
     </g>
    </g>
   </g>
   <g id="text_9">
    <g clip-path="url(#p35c006bd42)">
     <!-- 8 -->
     <g transform="translate(286.47662 86.716901) scale(0.1 -0.1)">
      <defs>
       <path id="DejaVuSans-38" d="M 2034 2216 
Q 1584 2216 1326 1975 
Q 1069 1734 1069 1313 
Q 1069 891 1326 650 
Q 1584 409 2034 409 
Q 2484 409 2743 651 
Q 3003 894 3003 1313 
Q 3003 1734 2745 1975 
Q 2488 2216 2034 2216 
z
M 1403 2484 
Q 997 2584 770 2862 
Q 544 3141 544 3541 
Q 544 4100 942 4425 
Q 1341 4750 2034 4750 
Q 2731 4750 3128 4425 
Q 3525 4100 3525 3541 
Q 3525 3141 3298 2862 
Q 3072 2584 2669 2484 
Q 3125 2378 3379 2068 
Q 3634 1759 3634 1313 
Q 3634 634 3220 271 
Q 2806 -91 2034 -91 
Q 1263 -91 848 271 
Q 434 634 434 1313 
Q 434 1759 690 2068 
Q 947 2378 1403 2484 
z
M 1172 3481 
Q 1172 3119 1398 2916 
Q 1625 2713 2034 2713 
Q 2441 2713 2670 2916 
Q 2900 3119 2900 3481 
Q 2900 3844 2670 4047 
Q 2441 4250 2034 4250 
Q 1625 4250 1398 4047 
Q 1172 3844 1172 3481 
z
" transform="scale(0.015625)"/>
      </defs>
      <use xlink:href="#DejaVuSans-38"/>
     </g>
    </g>
   </g>
   <g id="text_10">
    <g clip-path="url(#p35c006bd42)">
     <!-- 9 -->
     <g transform="translate(331.045137 99.095608) scale(0.1 -0.1)">
      <defs>
       <path id="DejaVuSans-39" d="M 703 97 
L 703 672 
Q 941 559 1184 500 
Q 1428 441 1663 441 
Q 2288 441 2617 861 
Q 2947 1281 2994 2138 
Q 2813 1869 2534 1725 
Q 2256 1581 1919 1581 
Q 1219 1581 811 2004 
Q 403 2428 403 3163 
Q 403 3881 828 4315 
Q 1253 4750 1959 4750 
Q 2769 4750 3195 4129 
Q 3622 3509 3622 2328 
Q 3622 1225 3098 567 
Q 2575 -91 1691 -91 
Q 1453 -91 1209 -44 
Q 966 3 703 97 
z
M 1959 2075 
Q 2384 2075 2632 2365 
Q 2881 2656 2881 3163 
Q 2881 3666 2632 3958 
Q 2384 4250 1959 4250 
Q 1534 4250 1286 3958 
Q 1038 3666 1038 3163 
Q 1038 2656 1286 2365 
Q 1534 2075 1959 2075 
z
" transform="scale(0.015625)"/>
      </defs>
      <use xlink:href="#DejaVuSans-39"/>
     </g>
    </g>
   </g>
   <g id="text_11">
    <g clip-path="url(#p35c006bd42)">
     <!-- 10 -->
     <g transform="translate(379.97744 83.298501) scale(0.1 -0.1)">
      <use xlink:href="#DejaVuSans-31"/>
      <use xlink:href="#DejaVuSans-30" x="63.623047"/>
     </g>
    </g>
   </g>
   <g id="text_12">
    <g clip-path="url(#p35c006bd42)">
     <!-- 11 -->
     <g transform="translate(166.175632 153.427078) scale(0.1 -0.1)">
      <use xlink:href="#DejaVuSans-31"/>
      <use xlink:href="#DejaVuSans-31" x="63.623047"/>
     </g>
    </g>
   </g>
   <g id="text_13">
    <g clip-path="url(#p35c006bd42)">
     <!-- 12 -->
     <g transform="translate(231.821888 199.080537) scale(0.1 -0.1)">
      <use xlink:href="#DejaVuSans-31"/>
      <use xlink:href="#DejaVuSans-32" x="63.623047"/>
     </g>
    </g>
   </g>
   <g id="text_14">
    <g clip-path="url(#p35c006bd42)">
     <!-- 13 -->
     <g transform="translate(33.624277 181.554466) scale(0.1 -0.1)">
      <use xlink:href="#DejaVuSans-31"/>
      <use xlink:href="#DejaVuSans-33" x="63.623047"/>
     </g>
    </g>
   </g>
   <g id="text_15">
    <g clip-path="url(#p35c006bd42)">
     <!-- 14 -->
     <g transform="translate(238.413168 233.579015) scale(0.1 -0.1)">
      <use xlink:href="#DejaVuSans-31"/>
      <use xlink:href="#DejaVuSans-34" x="63.623047"/>
     </g>
    </g>
   </g>
   <g id="text_16">
    <g clip-path="url(#p35c006bd42)">
     <!-- 15 -->
     <g transform="translate(414.450723 32.749458) scale(0.1 -0.1)">
      <use xlink:href="#DejaVuSans-31"/>
      <use xlink:href="#DejaVuSans-35" x="63.623047"/>
     </g>
    </g>
   </g>
   <g id="text_17">
    <g clip-path="url(#p35c006bd42)">
     <!-- 16 -->
     <g transform="translate(244.238555 68.549387) scale(0.1 -0.1)">
      <use xlink:href="#DejaVuSans-31"/>
      <use xlink:href="#DejaVuSans-36" x="63.623047"/>
     </g>
    </g>
   </g>
   <g id="text_18">
    <g clip-path="url(#p35c006bd42)">
     <!-- 17 -->
     <g transform="translate(201.70917 283.829426) scale(0.1 -0.1)">
      <use xlink:href="#DejaVuSans-31"/>
      <use xlink:href="#DejaVuSans-37" x="63.623047"/>
     </g>
    </g>
   </g>
   <g id="text_19">
    <g clip-path="url(#p35c006bd42)">
     <!-- 18 -->
     <g transform="translate(220.460836 76.026443) scale(0.1 -0.1)">
      <use xlink:href="#DejaVuSans-31"/>
      <use xlink:href="#DejaVuSans-38" x="63.623047"/>
     </g>
    </g>
   </g>
   <g id="text_20">
    <g clip-path="url(#p35c006bd42)">
     <!-- 19 -->
     <g transform="translate(202.165693 318.369292) scale(0.1 -0.1)">
      <use xlink:href="#DejaVuSans-31"/>
      <use xlink:href="#DejaVuSans-39" x="63.623047"/>
     </g>
    </g>
   </g>
   <g id="text_21">
    <g clip-path="url(#p35c006bd42)">
     <!-- 20 -->
     <g transform="translate(337.189369 214.902933) scale(0.1 -0.1)">
      <use xlink:href="#DejaVuSans-32"/>
      <use xlink:href="#DejaVuSans-30" x="63.623047"/>
     </g>
    </g>
   </g>
   <g id="text_22">
    <g clip-path="url(#p35c006bd42)">
     <!-- 21 -->
     <g transform="translate(116.199518 45.819507) scale(0.1 -0.1)">
      <use xlink:href="#DejaVuSans-32"/>
      <use xlink:href="#DejaVuSans-31" x="63.623047"/>
     </g>
    </g>
   </g>
   <g id="text_23">
    <g clip-path="url(#p35c006bd42)">
     <!-- 22 -->
     <g transform="translate(238.566071 166.325768) scale(0.1 -0.1)">
      <use xlink:href="#DejaVuSans-32"/>
      <use xlink:href="#DejaVuSans-32" x="63.623047"/>
     </g>
    </g>
   </g>
   <g id="text_24">
    <g clip-path="url(#p35c006bd42)">
     <!-- 23 -->
     <g transform="translate(378.247521 60.117699) scale(0.1 -0.1)">
      <use xlink:href="#DejaVuSans-32"/>
      <use xlink:href="#DejaVuSans-33" x="63.623047"/>
     </g>
    </g>
   </g>
   <g id="text_25">
    <g clip-path="url(#p35c006bd42)">
     <!-- 24 -->
     <g transform="translate(389.182331 101.034744) scale(0.1 -0.1)">
      <use xlink:href="#DejaVuSans-32"/>
      <use xlink:href="#DejaVuSans-34" x="63.623047"/>
     </g>
    </g>
   </g>
   <g id="text_26">
    <g clip-path="url(#p35c006bd42)">
     <!-- 25 -->
     <g transform="translate(172.551739 267.707813) scale(0.1 -0.1)">
      <use xlink:href="#DejaVuSans-32"/>
      <use xlink:href="#DejaVuSans-35" x="63.623047"/>
     </g>
    </g>
   </g>
   <g id="text_27">
    <g clip-path="url(#p35c006bd42)">
     <!-- 26 -->
     <g transform="translate(140.540347 163.673143) scale(0.1 -0.1)">
      <use xlink:href="#DejaVuSans-32"/>
      <use xlink:href="#DejaVuSans-36" x="63.623047"/>
     </g>
    </g>
   </g>
   <g id="text_28">
    <g clip-path="url(#p35c006bd42)">
     <!-- 27 -->
     <g transform="translate(143.850137 181.153926) scale(0.1 -0.1)">
      <use xlink:href="#DejaVuSans-32"/>
      <use xlink:href="#DejaVuSans-37" x="63.623047"/>
     </g>
    </g>
   </g>
   <g id="text_29">
    <g clip-path="url(#p35c006bd42)">
     <!-- 28 -->
     <g transform="translate(144.772336 39.368253) scale(0.1 -0.1)">
      <use xlink:href="#DejaVuSans-32"/>
      <use xlink:href="#DejaVuSans-38" x="63.623047"/>
     </g>
    </g>
   </g>
   <g id="text_30">
    <g clip-path="url(#p35c006bd42)">
     <!-- 29 -->
     <g transform="translate(246.235102 183.051285) scale(0.1 -0.1)">
      <use xlink:href="#DejaVuSans-32"/>
      <use xlink:href="#DejaVuSans-39" x="63.623047"/>
     </g>
    </g>
   </g>
   <g id="text_31">
    <g clip-path="url(#p35c006bd42)">
     <!-- 30 -->
     <g transform="translate(166.920723 196.519961) scale(0.1 -0.1)">
      <use xlink:href="#DejaVuSans-33"/>
      <use xlink:href="#DejaVuSans-30" x="63.623047"/>
     </g>
    </g>
   </g>
   <g id="text_32">
    <g clip-path="url(#p35c006bd42)">
     <!-- 31 -->
     <g transform="translate(159.473352 97.622969) scale(0.1 -0.1)">
      <use xlink:href="#DejaVuSans-33"/>
      <use xlink:href="#DejaVuSans-31" x="63.623047"/>
     </g>
    </g>
   </g>
   <g id="text_33">
    <g clip-path="url(#p35c006bd42)">
     <!-- 32 -->
     <g transform="translate(166.710311 120.696984) scale(0.1 -0.1)">
      <use xlink:href="#DejaVuSans-33"/>
      <use xlink:href="#DejaVuSans-32" x="63.623047"/>
     </g>
    </g>
   </g>
   <g id="text_34">
    <g clip-path="url(#p35c006bd42)">
     <!-- 33 -->
     <g transform="translate(35.945262 200.728791) scale(0.1 -0.1)">
      <use xlink:href="#DejaVuSans-33"/>
      <use xlink:href="#DejaVuSans-33" x="63.623047"/>
     </g>
    </g>
   </g>
   <g id="text_35">
    <g clip-path="url(#p35c006bd42)">
     <!-- 34 -->
     <g transform="translate(97.012182 188.788206) scale(0.1 -0.1)">
      <use xlink:href="#DejaVuSans-33"/>
      <use xlink:href="#DejaVuSans-34" x="63.623047"/>
     </g>
    </g>
   </g>
   <g id="text_36">
    <g clip-path="url(#p35c006bd42)">
     <!-- 35 -->
     <g transform="translate(195.289979 173.100504) scale(0.1 -0.1)">
      <use xlink:href="#DejaVuSans-33"/>
      <use xlink:href="#DejaVuSans-35" x="63.623047"/>
     </g>
    </g>
   </g>
   <g id="text_37">
    <g clip-path="url(#p35c006bd42)">
     <!-- 36 -->
     <g transform="translate(135.236272 208.686515) scale(0.1 -0.1)">
      <use xlink:href="#DejaVuSans-33"/>
      <use xlink:href="#DejaVuSans-36" x="63.623047"/>
     </g>
    </g>
   </g>
   <g id="text_38">
    <g clip-path="url(#p35c006bd42)">
     <!-- 37 -->
     <g transform="translate(279.319217 197.141664) scale(0.1 -0.1)">
      <use xlink:href="#DejaVuSans-33"/>
      <use xlink:href="#DejaVuSans-37" x="63.623047"/>
     </g>
    </g>
   </g>
   <g id="text_39">
    <g clip-path="url(#p35c006bd42)">
     <!-- 38 -->
     <g transform="translate(157.352342 75.309185) scale(0.1 -0.1)">
      <use xlink:href="#DejaVuSans-33"/>
      <use xlink:href="#DejaVuSans-38" x="63.623047"/>
     </g>
    </g>
   </g>
  </g>
 </g>
 <defs>
  <clipPath id="p35c006bd42">
   <rect x="0" y="0" width="460.8" height="345.6"/>
  </clipPath>
 </defs>
</svg>
