<?xml version="1.0" encoding="utf-8" standalone="no"?>
<!DOCTYPE svg PUBLIC "-//W3C//DTD SVG 1.1//EN"
  "http://www.w3.org/Graphics/SVG/1.1/DTD/svg11.dtd">
<svg xmlns:xlink="http://www.w3.org/1999/xlink" width="460.8pt" height="345.6pt" viewBox="0 0 460.8 345.6" xmlns="http://www.w3.org/2000/svg" version="1.1">
 <metadata>
  <rdf:RDF xmlns:dc="http://purl.org/dc/elements/1.1/" xmlns:cc="http://creativecommons.org/ns#" xmlns:rdf="http://www.w3.org/1999/02/22-rdf-syntax-ns#">
   <cc:Work>
    <dc:type rdf:resource="http://purl.org/dc/dcmitype/StillImage"/>
    <dc:date>2023-10-23T10:42:29.650209</dc:date>
    <dc:format>image/svg+xml</dc:format>
    <dc:creator>
     <cc:Agent>
      <dc:title>Matplotlib v3.6.1, https://matplotlib.org/</dc:title>
     </cc:Agent>
    </dc:creator>
   </cc:Work>
  </rdf:RDF>
 </metadata>
 <defs>
  <style type="text/css">*{stroke-linejoin: round; stroke-linecap: butt}</style>
 </defs>
 <g id="figure_1">
  <g id="patch_1">
   <path d="M 0 345.6 
L 460.8 345.6 
L 460.8 0 
L 0 0 
z
" style="fill: #ffffff"/>
  </g>
  <g id="axes_1">
   <g id="patch_2">
    <path d="M 338.072742 110.449758 
Q 328.335792 101.97875 319.442341 94.241574 
" clip-path="url(#p846049407a)" style="fill: none; stroke: #000000; stroke-linecap: round"/>
    <path d="M 321.147416 98.375908 
L 319.442341 94.241574 
L 323.772854 95.358115 
L 321.147416 98.375908 
z
" clip-path="url(#p846049407a)" style="stroke: #000000; stroke-linecap: round"/>
   </g>
   <g id="patch_3">
    <path d="M 338.072742 110.449758 
Q 328.335792 101.97875 319.442341 94.241574 
" clip-path="url(#p846049407a)" style="fill: none; stroke: #000000; stroke-linecap: round"/>
    <path d="M 321.147416 98.375908 
L 319.442341 94.241574 
L 323.772854 95.358115 
L 321.147416 98.375908 
z
" clip-path="url(#p846049407a)" style="stroke: #000000; stroke-linecap: round"/>
   </g>
   <g id="patch_4">
    <path d="M 340.786204 113.197484 
Q 350.506778 124.662084 359.504311 135.273917 
" clip-path="url(#p846049407a)" style="fill: none; stroke: #000000; stroke-linecap: round"/>
    <path d="M 358.442955 130.92955 
L 359.504311 135.273917 
L 355.392004 133.516382 
L 358.442955 130.92955 
z
" clip-path="url(#p846049407a)" style="stroke: #000000; stroke-linecap: round"/>
   </g>
   <g id="patch_5">
    <path d="M 337.601512 111.857582 
Q 311.790112 113.664569 287.094017 115.393477 
" clip-path="url(#p846049407a)" style="fill: none; stroke: #000000; stroke-linecap: round"/>
    <path d="M 291.223924 117.109248 
L 287.094017 115.393477 
L 290.944578 113.119014 
L 291.223924 117.109248 
z
" clip-path="url(#p846049407a)" style="stroke: #000000; stroke-linecap: round"/>
   </g>
   <g id="patch_6">
    <path d="M 318.602371 93.510812 
Q 328.339321 101.981819 337.232772 109.718995 
" clip-path="url(#p846049407a)" style="fill: none; stroke: #000000; stroke-linecap: round"/>
    <path d="M 335.527697 105.584661 
L 337.232772 109.718995 
L 332.902259 108.602454 
L 335.527697 105.584661 
z
" clip-path="url(#p846049407a)" style="stroke: #000000; stroke-linecap: round"/>
   </g>
   <g id="patch_7">
    <path d="M 318.602371 93.510812 
Q 328.339321 101.981819 337.232772 109.718995 
" clip-path="url(#p846049407a)" style="fill: none; stroke: #000000; stroke-linecap: round"/>
    <path d="M 335.527697 105.584661 
L 337.232772 109.718995 
L 332.902259 108.602454 
L 335.527697 105.584661 
z
" clip-path="url(#p846049407a)" style="stroke: #000000; stroke-linecap: round"/>
   </g>
   <g id="patch_8">
    <path d="M 316.620261 90.373478 
Q 312.036665 73.91962 307.753099 58.542786 
" clip-path="url(#p846049407a)" style="fill: none; stroke: #000000; stroke-linecap: round"/>
    <path d="M 306.899878 62.932776 
L 307.753099 58.542786 
L 310.753159 61.859358 
L 306.899878 62.932776 
z
" clip-path="url(#p846049407a)" style="stroke: #000000; stroke-linecap: round"/>
   </g>
   <g id="patch_9">
    <path d="M 315.560263 93.353732 
Q 300.59411 103.922037 286.541241 113.845428 
" clip-path="url(#p846049407a)" style="fill: none; stroke: #000000; stroke-linecap: round"/>
    <path d="M 290.96236 113.17185 
L 286.541241 113.845428 
L 288.65505 109.904386 
L 290.96236 113.17185 
z
" clip-path="url(#p846049407a)" style="stroke: #000000; stroke-linecap: round"/>
   </g>
   <g id="patch_10">
    <path d="M 315.560263 93.353732 
Q 300.59411 103.922037 286.541241 113.845428 
" clip-path="url(#p846049407a)" style="fill: none; stroke: #000000; stroke-linecap: round"/>
    <path d="M 290.96236 113.17185 
L 286.541241 113.845428 
L 288.65505 109.904386 
L 290.96236 113.17185 
z
" clip-path="url(#p846049407a)" style="stroke: #000000; stroke-linecap: round"/>
   </g>
   <g id="patch_11">
    <path d="M 418.977094 157.072518 
Q 391.145092 147.647673 364.372055 138.581427 
" clip-path="url(#p846049407a)" style="fill: none; stroke: #000000; stroke-linecap: round"/>
    <path d="M 367.519237 141.758729 
L 364.372055 138.581427 
L 368.802206 137.970063 
L 367.519237 141.758729 
z
" clip-path="url(#p846049407a)" style="stroke: #000000; stroke-linecap: round"/>
   </g>
   <g id="patch_12">
    <path d="M 360.226768 136.125993 
Q 350.506194 124.661394 341.508661 114.049561 
" clip-path="url(#p846049407a)" style="fill: none; stroke: #000000; stroke-linecap: round"/>
    <path d="M 342.570017 118.393928 
L 341.508661 114.049561 
L 345.620968 115.807096 
L 342.570017 118.393928 
z
" clip-path="url(#p846049407a)" style="stroke: #000000; stroke-linecap: round"/>
   </g>
   <g id="patch_13">
    <path d="M 363.313758 138.223052 
Q 391.145759 147.647898 417.918796 156.714144 
" clip-path="url(#p846049407a)" style="fill: none; stroke: #000000; stroke-linecap: round"/>
    <path d="M 414.771615 153.536842 
L 417.918796 156.714144 
L 413.488646 157.325508 
L 414.771615 153.536842 
z
" clip-path="url(#p846049407a)" style="stroke: #000000; stroke-linecap: round"/>
   </g>
   <g id="patch_14">
    <path d="M 359.61086 137.071015 
Q 322.758211 126.602886 286.981049 116.440252 
" clip-path="url(#p846049407a)" style="fill: none; stroke: #000000; stroke-linecap: round"/>
    <path d="M 290.282341 119.457117 
L 286.981049 116.440252 
L 291.375316 115.609338 
L 290.282341 119.457117 
z
" clip-path="url(#p846049407a)" style="stroke: #000000; stroke-linecap: round"/>
   </g>
   <g id="patch_15">
    <path d="M 129.938062 313.721242 
Q 135.115193 290.533482 140.0487 268.436891 
" clip-path="url(#p846049407a)" style="fill: none; stroke: #000000; stroke-linecap: round"/>
    <path d="M 137.22514 271.904961 
L 140.0487 268.436891 
L 141.12902 272.77658 
L 137.22514 271.904961 
z
" clip-path="url(#p846049407a)" style="stroke: #000000; stroke-linecap: round"/>
   </g>
   <g id="patch_16">
    <path d="M 140.292229 267.346149 
Q 135.115098 290.533909 130.181592 312.6305 
" clip-path="url(#p846049407a)" style="fill: none; stroke: #000000; stroke-linecap: round"/>
    <path d="M 133.005151 309.16243 
L 130.181592 312.6305 
L 129.101271 308.290811 
L 133.005151 309.16243 
z
" clip-path="url(#p846049407a)" style="stroke: #000000; stroke-linecap: round"/>
   </g>
   <g id="patch_17">
    <path d="M 142.573977 265.992162 
Q 169.847666 273.832175 196.046834 281.36331 
" clip-path="url(#p846049407a)" style="fill: none; stroke: #000000; stroke-linecap: round"/>
    <path d="M 192.755052 278.336072 
L 196.046834 281.36331 
L 191.649975 282.180393 
L 192.755052 278.336072 
z
" clip-path="url(#p846049407a)" style="stroke: #000000; stroke-linecap: round"/>
   </g>
   <g id="patch_18">
    <path d="M 140.5902 263.528442 
Q 138.730794 234.535394 136.942944 206.658089 
" clip-path="url(#p846049407a)" style="fill: none; stroke: #000000; stroke-linecap: round"/>
    <path d="M 135.20305 210.777891 
L 136.942944 206.658089 
L 139.194849 210.521885 
L 135.20305 210.777891 
z
" clip-path="url(#p846049407a)" style="stroke: #000000; stroke-linecap: round"/>
   </g>
   <g id="patch_19">
    <path d="M 139.100794 264.391694 
Q 118.201932 250.583932 98.235893 237.392482 
" clip-path="url(#p846049407a)" style="fill: none; stroke: #000000; stroke-linecap: round"/>
    <path d="M 100.470773 241.26615 
L 98.235893 237.392482 
L 102.675756 237.928779 
L 100.470773 241.26615 
z
" clip-path="url(#p846049407a)" style="stroke: #000000; stroke-linecap: round"/>
   </g>
   <g id="patch_20">
    <path d="M 307.453501 57.467312 
Q 312.037097 73.921169 316.320663 89.298003 
" clip-path="url(#p846049407a)" style="fill: none; stroke: #000000; stroke-linecap: round"/>
    <path d="M 317.173885 84.908013 
L 316.320663 89.298003 
L 313.320604 85.981431 
L 317.173885 84.908013 
z
" clip-path="url(#p846049407a)" style="stroke: #000000; stroke-linecap: round"/>
   </g>
   <g id="patch_21">
    <path d="M 285.980735 115.471415 
Q 311.792134 113.664428 336.48823 111.93552 
" clip-path="url(#p846049407a)" style="fill: none; stroke: #000000; stroke-linecap: round"/>
    <path d="M 332.358323 110.219749 
L 336.48823 111.93552 
L 332.637669 114.209983 
L 332.358323 110.219749 
z
" clip-path="url(#p846049407a)" style="stroke: #000000; stroke-linecap: round"/>
   </g>
   <g id="patch_22">
    <path d="M 285.626409 114.491434 
Q 300.592562 103.92313 314.645432 93.999738 
" clip-path="url(#p846049407a)" style="fill: none; stroke: #000000; stroke-linecap: round"/>
    <path d="M 310.224313 94.673316 
L 314.645432 93.999738 
L 312.531623 97.94078 
L 310.224313 94.673316 
z
" clip-path="url(#p846049407a)" style="stroke: #000000; stroke-linecap: round"/>
   </g>
   <g id="patch_23">
    <path d="M 285.626409 114.491434 
Q 300.592562 103.92313 314.645432 93.999738 
" clip-path="url(#p846049407a)" style="fill: none; stroke: #000000; stroke-linecap: round"/>
    <path d="M 310.224313 94.673316 
L 314.645432 93.999738 
L 312.531623 97.94078 
L 310.224313 94.673316 
z
" clip-path="url(#p846049407a)" style="stroke: #000000; stroke-linecap: round"/>
   </g>
   <g id="patch_24">
    <path d="M 285.913672 116.13706 
Q 322.76632 126.605189 358.543482 136.767823 
" clip-path="url(#p846049407a)" style="fill: none; stroke: #000000; stroke-linecap: round"/>
    <path d="M 355.242191 133.750957 
L 358.543482 136.767823 
L 354.149215 137.598736 
L 355.242191 133.750957 
z
" clip-path="url(#p846049407a)" style="stroke: #000000; stroke-linecap: round"/>
   </g>
   <g id="patch_25">
    <path d="M 282.452783 114.501823 
Q 257.339667 97.094513 233.145424 80.324125 
" clip-path="url(#p846049407a)" style="fill: none; stroke: #000000; stroke-linecap: round"/>
    <path d="M 235.293525 84.246582 
L 233.145424 80.324125 
L 237.57225 80.959119 
L 235.293525 84.246582 
z
" clip-path="url(#p846049407a)" style="stroke: #000000; stroke-linecap: round"/>
   </g>
   <g id="patch_26">
    <path d="M 282.179953 116.114893 
Q 239.394559 127.759069 197.68796 139.109648 
" clip-path="url(#p846049407a)" style="fill: none; stroke: #000000; stroke-linecap: round"/>
    <path d="M 202.072781 139.98905 
L 197.68796 139.109648 
L 201.022374 136.129433 
L 202.072781 139.98905 
z
" clip-path="url(#p846049407a)" style="stroke: #000000; stroke-linecap: round"/>
   </g>
   <g id="patch_27">
    <path d="M 197.123953 281.672935 
Q 169.850264 273.832922 143.651095 266.301787 
" clip-path="url(#p846049407a)" style="fill: none; stroke: #000000; stroke-linecap: round"/>
    <path d="M 146.942878 269.329025 
L 143.651095 266.301787 
L 148.047955 265.484704 
L 146.942878 269.329025 
z
" clip-path="url(#p846049407a)" style="stroke: #000000; stroke-linecap: round"/>
   </g>
   <g id="patch_28">
    <path d="M 196.605496 139.404244 
Q 239.39089 127.760068 281.097489 116.409489 
" clip-path="url(#p846049407a)" style="fill: none; stroke: #000000; stroke-linecap: round"/>
    <path d="M 276.712668 115.530087 
L 281.097489 116.409489 
L 277.763075 119.389705 
L 276.712668 115.530087 
z
" clip-path="url(#p846049407a)" style="stroke: #000000; stroke-linecap: round"/>
   </g>
   <g id="patch_29">
    <path d="M 195.717919 138.239151 
Q 212.687712 109.24745 229.092721 81.220642 
" clip-path="url(#p846049407a)" style="fill: none; stroke: #000000; stroke-linecap: round"/>
    <path d="M 225.346035 83.662434 
L 229.092721 81.220642 
L 228.798143 85.683066 
L 225.346035 83.662434 
z
" clip-path="url(#p846049407a)" style="stroke: #000000; stroke-linecap: round"/>
   </g>
   <g id="patch_30">
    <path d="M 193.434239 141.34494 
Q 165.7421 171.760904 138.802646 201.350148 
" clip-path="url(#p846049407a)" style="fill: none; stroke: #000000; stroke-linecap: round"/>
    <path d="M 142.974415 199.73883 
L 138.802646 201.350148 
L 140.016653 197.045942 
L 142.974415 199.73883 
z
" clip-path="url(#p846049407a)" style="stroke: #000000; stroke-linecap: round"/>
   </g>
   <g id="patch_31">
    <path d="M 192.883163 140.47728 
Q 158.972692 150.802583 126.131773 160.802221 
" clip-path="url(#p846049407a)" style="fill: none; stroke: #000000; stroke-linecap: round"/>
    <path d="M 130.540888 161.55036 
L 126.131773 160.802221 
L 129.375753 157.723813 
L 130.540888 161.55036 
z
" clip-path="url(#p846049407a)" style="stroke: #000000; stroke-linecap: round"/>
   </g>
   <g id="patch_32">
    <path d="M 136.871025 205.536681 
Q 138.730431 234.529728 140.518281 262.407033 
" clip-path="url(#p846049407a)" style="fill: none; stroke: #000000; stroke-linecap: round"/>
    <path d="M 142.258175 258.287232 
L 140.518281 262.407033 
L 138.266376 258.543237 
L 142.258175 258.287232 
z
" clip-path="url(#p846049407a)" style="stroke: #000000; stroke-linecap: round"/>
   </g>
   <g id="patch_33">
    <path d="M 138.051618 202.175048 
Q 165.743757 171.759085 192.683211 142.16984 
" clip-path="url(#p846049407a)" style="fill: none; stroke: #000000; stroke-linecap: round"/>
    <path d="M 188.511442 143.781159 
L 192.683211 142.16984 
L 191.469204 146.474046 
L 188.511442 143.781159 
z
" clip-path="url(#p846049407a)" style="stroke: #000000; stroke-linecap: round"/>
   </g>
   <g id="patch_34">
    <path d="M 134.857327 203.173937 
Q 105.59205 196.458177 77.416483 189.992481 
" clip-path="url(#p846049407a)" style="fill: none; stroke: #000000; stroke-linecap: round"/>
    <path d="M 80.867817 192.836474 
L 77.416483 189.992481 
L 81.762478 188.93781 
L 80.867817 192.836474 
z
" clip-path="url(#p846049407a)" style="stroke: #000000; stroke-linecap: round"/>
   </g>
   <g id="patch_35">
    <path d="M 134.823839 203.407883 
Q 121.967337 202.07265 110.222888 200.852912 
" clip-path="url(#p846049407a)" style="fill: none; stroke: #000000; stroke-linecap: round"/>
    <path d="M 113.994886 203.255416 
L 110.222888 200.852912 
L 114.40809 199.276815 
L 113.994886 203.255416 
z
" clip-path="url(#p846049407a)" style="stroke: #000000; stroke-linecap: round"/>
   </g>
   <g id="patch_36">
    <path d="M 134.823839 203.407883 
Q 121.967337 202.07265 110.222888 200.852912 
" clip-path="url(#p846049407a)" style="fill: none; stroke: #000000; stroke-linecap: round"/>
    <path d="M 113.994886 203.255416 
L 110.222888 200.852912 
L 114.40809 199.276815 
L 113.994886 203.255416 
z
" clip-path="url(#p846049407a)" style="stroke: #000000; stroke-linecap: round"/>
   </g>
   <g id="patch_37">
    <path d="M 135.221173 204.800908 
Q 116.218972 219.658394 98.097538 233.827222 
" clip-path="url(#p846049407a)" style="fill: none; stroke: #000000; stroke-linecap: round"/>
    <path d="M 102.480575 232.938974 
L 98.097538 233.827222 
L 100.016762 229.787844 
L 102.480575 232.938974 
z
" clip-path="url(#p846049407a)" style="stroke: #000000; stroke-linecap: round"/>
   </g>
   <g id="patch_38">
    <path d="M 76.332481 189.743726 
Q 105.597758 196.459486 133.773325 202.925182 
" clip-path="url(#p846049407a)" style="fill: none; stroke: #000000; stroke-linecap: round"/>
    <path d="M 130.321991 200.081189 
L 133.773325 202.925182 
L 129.427331 203.979853 
L 130.321991 200.081189 
z
" clip-path="url(#p846049407a)" style="stroke: #000000; stroke-linecap: round"/>
   </g>
   <g id="patch_39">
    <path d="M 73.069232 190.6724 
Q 57.21554 206.400479 42.155555 221.34114 
" clip-path="url(#p846049407a)" style="fill: none; stroke: #000000; stroke-linecap: round"/>
    <path d="M 46.403787 219.943812 
L 42.155555 221.34114 
L 43.586632 217.104157 
L 46.403787 219.943812 
z
" clip-path="url(#p846049407a)" style="stroke: #000000; stroke-linecap: round"/>
   </g>
   <g id="patch_40">
    <path d="M 76.130276 188.354209 
Q 98.827938 175.500302 120.552737 163.197337 
" clip-path="url(#p846049407a)" style="fill: none; stroke: #000000; stroke-linecap: round"/>
    <path d="M 116.086561 163.428136 
L 120.552737 163.197337 
L 118.05767 166.908757 
L 116.086561 163.428136 
z
" clip-path="url(#p846049407a)" style="stroke: #000000; stroke-linecap: round"/>
   </g>
   <g id="patch_41">
    <path d="M 41.360043 222.130349 
Q 57.213735 206.402269 72.27372 191.461609 
" clip-path="url(#p846049407a)" style="fill: none; stroke: #000000; stroke-linecap: round"/>
    <path d="M 68.025488 192.858936 
L 72.27372 191.461609 
L 70.842643 195.698591 
L 68.025488 192.858936 
z
" clip-path="url(#p846049407a)" style="stroke: #000000; stroke-linecap: round"/>
   </g>
   <g id="patch_42">
    <path d="M 41.880477 223.908081 
Q 67.840746 229.601975 92.70894 235.056343 
" clip-path="url(#p846049407a)" style="fill: none; stroke: #000000; stroke-linecap: round"/>
    <path d="M 89.230291 232.245826 
L 92.70894 235.056343 
L 88.373337 236.152952 
L 89.230291 232.245826 
z
" clip-path="url(#p846049407a)" style="stroke: #000000; stroke-linecap: round"/>
   </g>
   <g id="patch_43">
    <path d="M 97.302572 236.775842 
Q 118.201434 250.583604 138.167473 263.775054 
" clip-path="url(#p846049407a)" style="fill: none; stroke: #000000; stroke-linecap: round"/>
    <path d="M 135.932593 259.901385 
L 138.167473 263.775054 
L 133.72761 263.238757 
L 135.932593 259.901385 
z
" clip-path="url(#p846049407a)" style="stroke: #000000; stroke-linecap: round"/>
   </g>
   <g id="patch_44">
    <path d="M 97.215589 234.516802 
Q 116.217791 219.659317 134.339225 205.490488 
" clip-path="url(#p846049407a)" style="fill: none; stroke: #000000; stroke-linecap: round"/>
    <path d="M 129.956188 206.378736 
L 134.339225 205.490488 
L 132.420001 209.529867 
L 129.956188 206.378736 
z
" clip-path="url(#p846049407a)" style="stroke: #000000; stroke-linecap: round"/>
   </g>
   <g id="patch_45">
    <path d="M 93.795751 235.294715 
Q 67.835483 229.600821 42.967289 224.146453 
" clip-path="url(#p846049407a)" style="fill: none; stroke: #000000; stroke-linecap: round"/>
    <path d="M 46.445938 226.95697 
L 42.967289 224.146453 
L 47.302892 223.049844 
L 46.445938 226.95697 
z
" clip-path="url(#p846049407a)" style="stroke: #000000; stroke-linecap: round"/>
   </g>
   <g id="patch_46">
    <path d="M 96.291416 233.868131 
Q 101.436681 218.124293 106.234637 203.443177 
" clip-path="url(#p846049407a)" style="fill: none; stroke: #000000; stroke-linecap: round"/>
    <path d="M 103.091012 206.623998 
L 106.234637 203.443177 
L 106.893119 207.866569 
L 103.091012 206.623998 
z
" clip-path="url(#p846049407a)" style="stroke: #000000; stroke-linecap: round"/>
   </g>
   <g id="patch_47">
    <path d="M 109.107772 200.737099 
Q 121.964274 202.072332 133.708723 203.292071 
" clip-path="url(#p846049407a)" style="fill: none; stroke: #000000; stroke-linecap: round"/>
    <path d="M 129.936724 200.889567 
L 133.708723 203.292071 
L 129.52352 204.868167 
L 129.936724 200.889567 
z
" clip-path="url(#p846049407a)" style="stroke: #000000; stroke-linecap: round"/>
   </g>
   <g id="patch_48">
    <path d="M 109.107772 200.737099 
Q 121.964274 202.072332 133.708723 203.292071 
" clip-path="url(#p846049407a)" style="fill: none; stroke: #000000; stroke-linecap: round"/>
    <path d="M 129.936724 200.889567 
L 133.708723 203.292071 
L 129.52352 204.868167 
L 129.936724 200.889567 
z
" clip-path="url(#p846049407a)" style="stroke: #000000; stroke-linecap: round"/>
   </g>
   <g id="patch_49">
    <path d="M 106.582336 202.379265 
Q 101.43707 218.123103 96.639114 232.804219 
" clip-path="url(#p846049407a)" style="fill: none; stroke: #000000; stroke-linecap: round"/>
    <path d="M 99.782739 229.623399 
L 96.639114 232.804219 
L 95.980633 228.380827 
L 99.782739 229.623399 
z
" clip-path="url(#p846049407a)" style="stroke: #000000; stroke-linecap: round"/>
   </g>
   <g id="patch_50">
    <path d="M 107.922901 198.747241 
Q 115.199058 181.112562 122.048782 164.511398 
" clip-path="url(#p846049407a)" style="fill: none; stroke: #000000; stroke-linecap: round"/>
    <path d="M 118.674317 167.446188 
L 122.048782 164.511398 
L 122.371935 168.971844 
L 118.674317 167.446188 
z
" clip-path="url(#p846049407a)" style="stroke: #000000; stroke-linecap: round"/>
   </g>
   <g id="patch_51">
    <path d="M 125.067826 161.126179 
Q 158.978297 150.800876 191.819216 140.801239 
" clip-path="url(#p846049407a)" style="fill: none; stroke: #000000; stroke-linecap: round"/>
    <path d="M 187.410102 140.0531 
L 191.819216 140.801239 
L 188.575236 143.879647 
L 187.410102 140.0531 
z
" clip-path="url(#p846049407a)" style="stroke: #000000; stroke-linecap: round"/>
   </g>
   <g id="patch_52">
    <path d="M 121.524665 162.646925 
Q 98.827003 175.500832 77.102204 187.803797 
" clip-path="url(#p846049407a)" style="fill: none; stroke: #000000; stroke-linecap: round"/>
    <path d="M 81.56838 187.572998 
L 77.102204 187.803797 
L 79.59727 184.092376 
L 81.56838 187.572998 
z
" clip-path="url(#p846049407a)" style="stroke: #000000; stroke-linecap: round"/>
   </g>
   <g id="patch_53">
    <path d="M 122.473841 163.481213 
Q 115.197684 181.115892 108.347961 197.717055 
" clip-path="url(#p846049407a)" style="fill: none; stroke: #000000; stroke-linecap: round"/>
    <path d="M 111.722425 194.782265 
L 108.347961 197.717055 
L 108.024808 193.25661 
L 111.722425 194.782265 
z
" clip-path="url(#p846049407a)" style="stroke: #000000; stroke-linecap: round"/>
   </g>
   <g id="patch_54">
    <path d="M 263.983457 31.570944 
Q 247.870343 54.287188 232.404071 76.091514 
" clip-path="url(#p846049407a)" style="fill: none; stroke: #000000; stroke-linecap: round"/>
    <path d="M 236.349575 73.986045 
L 232.404071 76.091514 
L 233.086998 71.67183 
L 236.349575 73.986045 
z
" clip-path="url(#p846049407a)" style="stroke: #000000; stroke-linecap: round"/>
   </g>
   <g id="patch_55">
    <path d="M 232.229852 79.68949 
Q 257.342968 97.096801 281.53721 113.867188 
" clip-path="url(#p846049407a)" style="fill: none; stroke: #000000; stroke-linecap: round"/>
    <path d="M 279.38911 109.944732 
L 281.53721 113.867188 
L 277.110385 113.232195 
L 279.38911 109.944732 
z
" clip-path="url(#p846049407a)" style="stroke: #000000; stroke-linecap: round"/>
   </g>
   <g id="patch_56">
    <path d="M 229.656359 80.257706 
Q 212.686566 109.249407 196.281557 137.276214 
" clip-path="url(#p846049407a)" style="fill: none; stroke: #000000; stroke-linecap: round"/>
    <path d="M 200.028243 134.834422 
L 196.281557 137.276214 
L 196.576135 132.81379 
L 200.028243 134.834422 
z
" clip-path="url(#p846049407a)" style="stroke: #000000; stroke-linecap: round"/>
   </g>
   <g id="patch_57">
    <path d="M 231.75707 77.003655 
Q 247.870185 54.287411 263.336457 32.483085 
" clip-path="url(#p846049407a)" style="fill: none; stroke: #000000; stroke-linecap: round"/>
    <path d="M 259.390953 34.588554 
L 263.336457 32.483085 
L 262.65353 36.902769 
L 259.390953 34.588554 
z
" clip-path="url(#p846049407a)" style="stroke: #000000; stroke-linecap: round"/>
   </g>
   <g id="patch_58">
    <path d="M 229.675632 76.906393 
Q 217.329016 55.326202 205.537612 34.716445 
" clip-path="url(#p846049407a)" style="fill: none; stroke: #000000; stroke-linecap: round"/>
    <path d="M 205.788033 39.181564 
L 205.537612 34.716445 
L 209.25996 37.19518 
L 205.788033 39.181564 
z
" clip-path="url(#p846049407a)" style="stroke: #000000; stroke-linecap: round"/>
   </g>
   <g id="patch_59">
    <path d="M 204.979451 33.740856 
Q 217.326066 55.321046 229.11747 75.930804 
" clip-path="url(#p846049407a)" style="fill: none; stroke: #000000; stroke-linecap: round"/>
    <path d="M 228.86705 71.465684 
L 229.11747 75.930804 
L 225.395123 73.452069 
L 228.86705 71.465684 
z
" clip-path="url(#p846049407a)" style="stroke: #000000; stroke-linecap: round"/>
   </g>
   <g id="PathCollection_1">
    <defs>
     <path id="m61506dc41a" d="M 0 1.936492 
C 0.513564 1.936492 1.006162 1.732451 1.369306 1.369306 
C 1.732451 1.006162 1.936492 0.513564 1.936492 0 
C 1.936492 -0.513564 1.732451 -1.006162 1.369306 -1.369306 
C 1.006162 -1.732451 0.513564 -1.936492 0 -1.936492 
C -0.513564 -1.936492 -1.006162 -1.732451 -1.369306 -1.369306 
C -1.732451 -1.006162 -1.936492 -0.513564 -1.936492 0 
C -1.936492 0.513564 -1.732451 1.006162 -1.369306 1.369306 
C -1.006162 1.732451 -0.513564 1.936492 0 1.936492 
z
" style="stroke: #1f78b4"/>
    </defs>
    <g clip-path="url(#p846049407a)">
     <use xlink:href="#m61506dc41a" x="339.535344" y="111.7222" style="fill: #1f78b4; stroke: #1f78b4"/>
     <use xlink:href="#m61506dc41a" x="317.139769" y="92.238369" style="fill: #1f78b4; stroke: #1f78b4"/>
     <use xlink:href="#m61506dc41a" x="420.813223" y="157.694293" style="fill: #1f78b4; stroke: #1f78b4"/>
     <use xlink:href="#m61506dc41a" x="361.477628" y="137.601278" style="fill: #1f78b4; stroke: #1f78b4"/>
     <use xlink:href="#m61506dc41a" x="129.516377" y="315.609917" style="fill: #1f78b4; stroke: #1f78b4"/>
     <use xlink:href="#m61506dc41a" x="140.713914" y="265.457474" style="fill: #1f78b4; stroke: #1f78b4"/>
     <use xlink:href="#m61506dc41a" x="306.933994" y="55.60242" style="fill: #1f78b4; stroke: #1f78b4"/>
     <use xlink:href="#m61506dc41a" x="284.046903" y="115.606797" style="fill: #1f78b4; stroke: #1f78b4"/>
     <use xlink:href="#m61506dc41a" x="198.984015" y="282.207623" style="fill: #1f78b4; stroke: #1f78b4"/>
     <use xlink:href="#m61506dc41a" x="194.738546" y="139.91234" style="fill: #1f78b4; stroke: #1f78b4"/>
     <use xlink:href="#m61506dc41a" x="136.747311" y="203.607649" style="fill: #1f78b4; stroke: #1f78b4"/>
     <use xlink:href="#m61506dc41a" x="74.442498" y="189.310015" style="fill: #1f78b4; stroke: #1f78b4"/>
     <use xlink:href="#m61506dc41a" x="39.986777" y="223.492734" style="fill: #1f78b4; stroke: #1f78b4"/>
     <use xlink:href="#m61506dc41a" x="95.689452" y="235.710062" style="fill: #1f78b4; stroke: #1f78b4"/>
     <use xlink:href="#m61506dc41a" x="107.1843" y="200.537334" style="fill: #1f78b4; stroke: #1f78b4"/>
     <use xlink:href="#m61506dc41a" x="123.212443" y="161.691119" style="fill: #1f78b4; stroke: #1f78b4"/>
     <use xlink:href="#m61506dc41a" x="265.104796" y="29.990083" style="fill: #1f78b4; stroke: #1f78b4"/>
     <use xlink:href="#m61506dc41a" x="230.635732" y="78.584516" style="fill: #1f78b4; stroke: #1f78b4"/>
     <use xlink:href="#m61506dc41a" x="204.019351" y="32.062733" style="fill: #1f78b4; stroke: #1f78b4"/>
    </g>
   </g>
   <g id="text_1">
    <g clip-path="url(#p846049407a)">
     <!-- 0 -->
     <g transform="translate(336.354094 114.481575) scale(0.1 -0.1)">
      <defs>
       <path id="DejaVuSans-30" d="M 2034 4250 
Q 1547 4250 1301 3770 
Q 1056 3291 1056 2328 
Q 1056 1369 1301 889 
Q 1547 409 2034 409 
Q 2525 409 2770 889 
Q 3016 1369 3016 2328 
Q 3016 3291 2770 3770 
Q 2525 4250 2034 4250 
z
M 2034 4750 
Q 2819 4750 3233 4129 
Q 3647 3509 3647 2328 
Q 3647 1150 3233 529 
Q 2819 -91 2034 -91 
Q 1250 -91 836 529 
Q 422 1150 422 2328 
Q 422 3509 836 4129 
Q 1250 4750 2034 4750 
z
" transform="scale(0.015625)"/>
      </defs>
      <use xlink:href="#DejaVuSans-30"/>
     </g>
    </g>
   </g>
   <g id="text_2">
    <g clip-path="url(#p846049407a)">
     <!-- 1 -->
     <g transform="translate(313.958519 94.997744) scale(0.1 -0.1)">
      <defs>
       <path id="DejaVuSans-31" d="M 794 531 
L 1825 531 
L 1825 4091 
L 703 3866 
L 703 4441 
L 1819 4666 
L 2450 4666 
L 2450 531 
L 3481 531 
L 3481 0 
L 794 0 
L 794 531 
z
" transform="scale(0.015625)"/>
      </defs>
      <use xlink:href="#DejaVuSans-31"/>
     </g>
    </g>
   </g>
   <g id="text_3">
    <g clip-path="url(#p846049407a)">
     <!-- 2 -->
     <g transform="translate(417.631973 160.453668) scale(0.1 -0.1)">
      <defs>
       <path id="DejaVuSans-32" d="M 1228 531 
L 3431 531 
L 3431 0 
L 469 0 
L 469 531 
Q 828 903 1448 1529 
Q 2069 2156 2228 2338 
Q 2531 2678 2651 2914 
Q 2772 3150 2772 3378 
Q 2772 3750 2511 3984 
Q 2250 4219 1831 4219 
Q 1534 4219 1204 4116 
Q 875 4013 500 3803 
L 500 4441 
Q 881 4594 1212 4672 
Q 1544 4750 1819 4750 
Q 2544 4750 2975 4387 
Q 3406 4025 3406 3419 
Q 3406 3131 3298 2873 
Q 3191 2616 2906 2266 
Q 2828 2175 2409 1742 
Q 1991 1309 1228 531 
z
" transform="scale(0.015625)"/>
      </defs>
      <use xlink:href="#DejaVuSans-32"/>
     </g>
    </g>
   </g>
   <g id="text_4">
    <g clip-path="url(#p846049407a)">
     <!-- 3 -->
     <g transform="translate(358.296378 140.360653) scale(0.1 -0.1)">
      <defs>
       <path id="DejaVuSans-33" d="M 2597 2516 
Q 3050 2419 3304 2112 
Q 3559 1806 3559 1356 
Q 3559 666 3084 287 
Q 2609 -91 1734 -91 
Q 1441 -91 1130 -33 
Q 819 25 488 141 
L 488 750 
Q 750 597 1062 519 
Q 1375 441 1716 441 
Q 2309 441 2620 675 
Q 2931 909 2931 1356 
Q 2931 1769 2642 2001 
Q 2353 2234 1838 2234 
L 1294 2234 
L 1294 2753 
L 1863 2753 
Q 2328 2753 2575 2939 
Q 2822 3125 2822 3475 
Q 2822 3834 2567 4026 
Q 2313 4219 1838 4219 
Q 1578 4219 1281 4162 
Q 984 4106 628 3988 
L 628 4550 
Q 988 4650 1302 4700 
Q 1616 4750 1894 4750 
Q 2613 4750 3031 4423 
Q 3450 4097 3450 3541 
Q 3450 3153 3228 2886 
Q 3006 2619 2597 2516 
z
" transform="scale(0.015625)"/>
      </defs>
      <use xlink:href="#DejaVuSans-33"/>
     </g>
    </g>
   </g>
   <g id="text_5">
    <g clip-path="url(#p846049407a)">
     <!-- 4 -->
     <g transform="translate(126.335127 318.369292) scale(0.1 -0.1)">
      <defs>
       <path id="DejaVuSans-34" d="M 2419 4116 
L 825 1625 
L 2419 1625 
L 2419 4116 
z
M 2253 4666 
L 3047 4666 
L 3047 1625 
L 3713 1625 
L 3713 1100 
L 3047 1100 
L 3047 0 
L 2419 0 
L 2419 1100 
L 313 1100 
L 313 1709 
L 2253 4666 
z
" transform="scale(0.015625)"/>
      </defs>
      <use xlink:href="#DejaVuSans-34"/>
     </g>
    </g>
   </g>
   <g id="text_6">
    <g clip-path="url(#p846049407a)">
     <!-- 5 -->
     <g transform="translate(137.532664 268.216849) scale(0.1 -0.1)">
      <defs>
       <path id="DejaVuSans-35" d="M 691 4666 
L 3169 4666 
L 3169 4134 
L 1269 4134 
L 1269 2991 
Q 1406 3038 1543 3061 
Q 1681 3084 1819 3084 
Q 2600 3084 3056 2656 
Q 3513 2228 3513 1497 
Q 3513 744 3044 326 
Q 2575 -91 1722 -91 
Q 1428 -91 1123 -41 
Q 819 9 494 109 
L 494 744 
Q 775 591 1075 516 
Q 1375 441 1709 441 
Q 2250 441 2565 725 
Q 2881 1009 2881 1497 
Q 2881 1984 2565 2268 
Q 2250 2553 1709 2553 
Q 1456 2553 1204 2497 
Q 953 2441 691 2322 
L 691 4666 
z
" transform="scale(0.015625)"/>
      </defs>
      <use xlink:href="#DejaVuSans-35"/>
     </g>
    </g>
   </g>
   <g id="text_7">
    <g clip-path="url(#p846049407a)">
     <!-- 6 -->
     <g transform="translate(303.752744 58.361795) scale(0.1 -0.1)">
      <defs>
       <path id="DejaVuSans-36" d="M 2113 2584 
Q 1688 2584 1439 2293 
Q 1191 2003 1191 1497 
Q 1191 994 1439 701 
Q 1688 409 2113 409 
Q 2538 409 2786 701 
Q 3034 994 3034 1497 
Q 3034 2003 2786 2293 
Q 2538 2584 2113 2584 
z
M 3366 4563 
L 3366 3988 
Q 3128 4100 2886 4159 
Q 2644 4219 2406 4219 
Q 1781 4219 1451 3797 
Q 1122 3375 1075 2522 
Q 1259 2794 1537 2939 
Q 1816 3084 2150 3084 
Q 2853 3084 3261 2657 
Q 3669 2231 3669 1497 
Q 3669 778 3244 343 
Q 2819 -91 2113 -91 
Q 1303 -91 875 529 
Q 447 1150 447 2328 
Q 447 3434 972 4092 
Q 1497 4750 2381 4750 
Q 2619 4750 2861 4703 
Q 3103 4656 3366 4563 
z
" transform="scale(0.015625)"/>
      </defs>
      <use xlink:href="#DejaVuSans-36"/>
     </g>
    </g>
   </g>
   <g id="text_8">
    <g clip-path="url(#p846049407a)">
     <!-- 7 -->
     <g transform="translate(280.865653 118.366172) scale(0.1 -0.1)">
      <defs>
       <path id="DejaVuSans-37" d="M 525 4666 
L 3525 4666 
L 3525 4397 
L 1831 0 
L 1172 0 
L 2766 4134 
L 525 4134 
L 525 4666 
z
" transform="scale(0.015625)"/>
      </defs>
      <use xlink:href="#DejaVuSans-37"/>
     </g>
    </g>
   </g>
   <g id="text_9">
    <g clip-path="url(#p846049407a)">
     <!-- 8 -->
     <g transform="translate(195.802765 284.966998) scale(0.1 -0.1)">
      <defs>
       <path id="DejaVuSans-38" d="M 2034 2216 
Q 1584 2216 1326 1975 
Q 1069 1734 1069 1313 
Q 1069 891 1326 650 
Q 1584 409 2034 409 
Q 2484 409 2743 651 
Q 3003 894 3003 1313 
Q 3003 1734 2745 1975 
Q 2488 2216 2034 2216 
z
M 1403 2484 
Q 997 2584 770 2862 
Q 544 3141 544 3541 
Q 544 4100 942 4425 
Q 1341 4750 2034 4750 
Q 2731 4750 3128 4425 
Q 3525 4100 3525 3541 
Q 3525 3141 3298 2862 
Q 3072 2584 2669 2484 
Q 3125 2378 3379 2068 
Q 3634 1759 3634 1313 
Q 3634 634 3220 271 
Q 2806 -91 2034 -91 
Q 1263 -91 848 271 
Q 434 634 434 1313 
Q 434 1759 690 2068 
Q 947 2378 1403 2484 
z
M 1172 3481 
Q 1172 3119 1398 2916 
Q 1625 2713 2034 2713 
Q 2441 2713 2670 2916 
Q 2900 3119 2900 3481 
Q 2900 3844 2670 4047 
Q 2441 4250 2034 4250 
Q 1625 4250 1398 4047 
Q 1172 3844 1172 3481 
z
" transform="scale(0.015625)"/>
      </defs>
      <use xlink:href="#DejaVuSans-38"/>
     </g>
    </g>
   </g>
   <g id="text_10">
    <g clip-path="url(#p846049407a)">
     <!-- 9 -->
     <g transform="translate(191.557296 142.671715) scale(0.1 -0.1)">
      <defs>
       <path id="DejaVuSans-39" d="M 703 97 
L 703 672 
Q 941 559 1184 500 
Q 1428 441 1663 441 
Q 2288 441 2617 861 
Q 2947 1281 2994 2138 
Q 2813 1869 2534 1725 
Q 2256 1581 1919 1581 
Q 1219 1581 811 2004 
Q 403 2428 403 3163 
Q 403 3881 828 4315 
Q 1253 4750 1959 4750 
Q 2769 4750 3195 4129 
Q 3622 3509 3622 2328 
Q 3622 1225 3098 567 
Q 2575 -91 1691 -91 
Q 1453 -91 1209 -44 
Q 966 3 703 97 
z
M 1959 2075 
Q 2384 2075 2632 2365 
Q 2881 2656 2881 3163 
Q 2881 3666 2632 3958 
Q 2384 4250 1959 4250 
Q 1534 4250 1286 3958 
Q 1038 3666 1038 3163 
Q 1038 2656 1286 2365 
Q 1534 2075 1959 2075 
z
" transform="scale(0.015625)"/>
      </defs>
      <use xlink:href="#DejaVuSans-39"/>
     </g>
    </g>
   </g>
   <g id="text_11">
    <g clip-path="url(#p846049407a)">
     <!-- 10 -->
     <g transform="translate(130.384811 206.367024) scale(0.1 -0.1)">
      <use xlink:href="#DejaVuSans-31"/>
      <use xlink:href="#DejaVuSans-30" x="63.623047"/>
     </g>
    </g>
   </g>
   <g id="text_12">
    <g clip-path="url(#p846049407a)">
     <!-- 11 -->
     <g transform="translate(68.079998 192.06939) scale(0.1 -0.1)">
      <use xlink:href="#DejaVuSans-31"/>
      <use xlink:href="#DejaVuSans-31" x="63.623047"/>
     </g>
    </g>
   </g>
   <g id="text_13">
    <g clip-path="url(#p846049407a)">
     <!-- 12 -->
     <g transform="translate(33.624277 226.252109) scale(0.1 -0.1)">
      <use xlink:href="#DejaVuSans-31"/>
      <use xlink:href="#DejaVuSans-32" x="63.623047"/>
     </g>
    </g>
   </g>
   <g id="text_14">
    <g clip-path="url(#p846049407a)">
     <!-- 13 -->
     <g transform="translate(89.326952 238.469437) scale(0.1 -0.1)">
      <use xlink:href="#DejaVuSans-31"/>
      <use xlink:href="#DejaVuSans-33" x="63.623047"/>
     </g>
    </g>
   </g>
   <g id="text_15">
    <g clip-path="url(#p846049407a)">
     <!-- 14 -->
     <g transform="translate(100.8218 203.296709) scale(0.1 -0.1)">
      <use xlink:href="#DejaVuSans-31"/>
      <use xlink:href="#DejaVuSans-34" x="63.623047"/>
     </g>
    </g>
   </g>
   <g id="text_16">
    <g clip-path="url(#p846049407a)">
     <!-- 15 -->
     <g transform="translate(116.849943 164.450494) scale(0.1 -0.1)">
      <use xlink:href="#DejaVuSans-31"/>
      <use xlink:href="#DejaVuSans-35" x="63.623047"/>
     </g>
    </g>
   </g>
   <g id="text_17">
    <g clip-path="url(#p846049407a)">
     <!-- 16 -->
     <g transform="translate(258.742296 32.749458) scale(0.1 -0.1)">
      <use xlink:href="#DejaVuSans-31"/>
      <use xlink:href="#DejaVuSans-36" x="63.623047"/>
     </g>
    </g>
   </g>
   <g id="text_18">
    <g clip-path="url(#p846049407a)">
     <!-- 17 -->
     <g transform="translate(224.273232 81.343891) scale(0.1 -0.1)">
      <use xlink:href="#DejaVuSans-31"/>
      <use xlink:href="#DejaVuSans-37" x="63.623047"/>
     </g>
    </g>
   </g>
   <g id="text_19">
    <g clip-path="url(#p846049407a)">
     <!-- 18 -->
     <g transform="translate(197.656851 34.822108) scale(0.1 -0.1)">
      <use xlink:href="#DejaVuSans-31"/>
      <use xlink:href="#DejaVuSans-38" x="63.623047"/>
     </g>
    </g>
   </g>
  </g>
 </g>
 <defs>
  <clipPath id="p846049407a">
   <rect x="0" y="0" width="460.8" height="345.6"/>
  </clipPath>
 </defs>
</svg>
