<?xml version="1.0" encoding="utf-8" standalone="no"?>
<!DOCTYPE svg PUBLIC "-//W3C//DTD SVG 1.1//EN"
  "http://www.w3.org/Graphics/SVG/1.1/DTD/svg11.dtd">
<svg xmlns:xlink="http://www.w3.org/1999/xlink" width="460.8pt" height="345.6pt" viewBox="0 0 460.8 345.6" xmlns="http://www.w3.org/2000/svg" version="1.1">
 <metadata>
  <rdf:RDF xmlns:dc="http://purl.org/dc/elements/1.1/" xmlns:cc="http://creativecommons.org/ns#" xmlns:rdf="http://www.w3.org/1999/02/22-rdf-syntax-ns#">
   <cc:Work>
    <dc:type rdf:resource="http://purl.org/dc/dcmitype/StillImage"/>
    <dc:date>2023-10-10T10:55:57.520240</dc:date>
    <dc:format>image/svg+xml</dc:format>
    <dc:creator>
     <cc:Agent>
      <dc:title>Matplotlib v3.6.1, https://matplotlib.org/</dc:title>
     </cc:Agent>
    </dc:creator>
   </cc:Work>
  </rdf:RDF>
 </metadata>
 <defs>
  <style type="text/css">*{stroke-linejoin: round; stroke-linecap: butt}</style>
 </defs>
 <g id="figure_1">
  <g id="patch_1">
   <path d="M 0 345.6 
L 460.8 345.6 
L 460.8 0 
L 0 0 
z
" style="fill: #ffffff"/>
  </g>
  <g id="axes_1">
   <g id="patch_2">
    <path d="M 107.687075 242.29295 
Q 108.865993 189.91135 110.019754 138.647501 
" clip-path="url(#pdb18092484)" style="fill: none; stroke: #000000; stroke-linecap: round"/>
    <path d="M 107.930258 142.601487 
L 110.019754 138.647501 
L 111.929245 142.69149 
L 107.930258 142.601487 
z
" clip-path="url(#pdb18092484)" style="stroke: #000000; stroke-linecap: round"/>
   </g>
   <g id="patch_3">
    <path d="M 130.859167 35.147827 
Q 120.670024 84.421339 110.707287 132.59998 
" clip-path="url(#pdb18092484)" style="fill: none; stroke: #000000; stroke-linecap: round"/>
    <path d="M 113.475862 129.08786 
L 110.707287 132.59998 
L 109.558736 128.277847 
L 113.475862 129.08786 
z
" clip-path="url(#pdb18092484)" style="stroke: #000000; stroke-linecap: round"/>
   </g>
   <g id="patch_4">
    <path d="M 84.072582 31.86893 
Q 96.845145 82.79207 109.345707 132.630768 
" clip-path="url(#pdb18092484)" style="fill: none; stroke: #000000; stroke-linecap: round"/>
    <path d="M 110.312479 128.264379 
L 109.345707 132.630768 
L 106.432659 129.237517 
L 110.312479 128.264379 
z
" clip-path="url(#pdb18092484)" style="stroke: #000000; stroke-linecap: round"/>
   </g>
   <g id="patch_5">
    <path d="M 49.257406 78.522002 
Q 78.966594 106.394446 107.860409 133.501928 
" clip-path="url(#pdb18092484)" style="fill: none; stroke: #000000; stroke-linecap: round"/>
    <path d="M 106.311651 129.306532 
L 107.860409 133.501928 
L 103.574838 132.223697 
L 106.311651 129.306532 
z
" clip-path="url(#pdb18092484)" style="stroke: #000000; stroke-linecap: round"/>
   </g>
   <g id="patch_6">
    <path d="M 62.278114 217.248254 
Q 85.693801 177.256316 108.544577 138.229196 
" clip-path="url(#pdb18092484)" style="fill: none; stroke: #000000; stroke-linecap: round"/>
    <path d="M 104.797569 140.670493 
L 108.544577 138.229196 
L 108.249409 142.691581 
L 104.797569 140.670493 
z
" clip-path="url(#pdb18092484)" style="stroke: #000000; stroke-linecap: round"/>
   </g>
   <g id="patch_7">
    <path d="M 110.045016 137.525063 
Q 108.866098 189.906663 107.712337 241.170512 
" clip-path="url(#pdb18092484)" style="fill: none; stroke: #000000; stroke-linecap: round"/>
    <path d="M 109.801833 237.216526 
L 107.712337 241.170512 
L 105.802846 237.126524 
L 109.801833 237.216526 
z
" clip-path="url(#pdb18092484)" style="stroke: #000000; stroke-linecap: round"/>
   </g>
   <g id="patch_8">
    <path d="M 110.480537 133.696516 
Q 120.669679 84.423005 130.632417 36.244364 
" clip-path="url(#pdb18092484)" style="fill: none; stroke: #000000; stroke-linecap: round"/>
    <path d="M 127.863841 39.756484 
L 130.632417 36.244364 
L 131.780967 40.566497 
L 127.863841 39.756484 
z
" clip-path="url(#pdb18092484)" style="stroke: #000000; stroke-linecap: round"/>
   </g>
   <g id="patch_9">
    <path d="M 109.617262 133.713436 
Q 96.8447 82.790296 84.344138 32.951599 
" clip-path="url(#pdb18092484)" style="fill: none; stroke: #000000; stroke-linecap: round"/>
    <path d="M 83.377366 37.317988 
L 84.344138 32.951599 
L 87.257186 36.34485 
L 83.377366 37.317988 
z
" clip-path="url(#pdb18092484)" style="stroke: #000000; stroke-linecap: round"/>
   </g>
   <g id="patch_10">
    <path d="M 108.677196 134.268218 
Q 78.968008 106.395773 50.074193 79.288292 
" clip-path="url(#pdb18092484)" style="fill: none; stroke: #000000; stroke-linecap: round"/>
    <path d="M 51.622951 83.483688 
L 50.074193 79.288292 
L 54.359765 80.566523 
L 51.622951 83.483688 
z
" clip-path="url(#pdb18092484)" style="stroke: #000000; stroke-linecap: round"/>
   </g>
   <g id="patch_11">
    <path d="M 109.110302 137.262988 
Q 85.694615 177.254926 62.843839 216.282046 
" clip-path="url(#pdb18092484)" style="fill: none; stroke: #000000; stroke-linecap: round"/>
    <path d="M 66.590847 213.840749 
L 62.843839 216.282046 
L 63.139007 211.819661 
L 66.590847 213.840749 
z
" clip-path="url(#pdb18092484)" style="stroke: #000000; stroke-linecap: round"/>
   </g>
   <g id="patch_12">
    <path d="M 108.201622 136.02026 
Q 75.037233 143.542447 42.963183 150.817327 
" clip-path="url(#pdb18092484)" style="fill: none; stroke: #000000; stroke-linecap: round"/>
    <path d="M 47.306494 151.882999 
L 42.963183 150.817327 
L 46.421707 147.982082 
L 47.306494 151.882999 
z
" clip-path="url(#pdb18092484)" style="stroke: #000000; stroke-linecap: round"/>
   </g>
   <g id="patch_13">
    <path d="M 111.958103 136.093784 
Q 161.395842 149.355009 209.753721 162.326571 
" clip-path="url(#pdb18092484)" style="fill: none; stroke: #000000; stroke-linecap: round"/>
    <path d="M 206.408464 159.358533 
L 209.753721 162.326571 
L 205.372136 163.221954 
L 206.408464 159.358533 
z
" clip-path="url(#pdb18092484)" style="stroke: #000000; stroke-linecap: round"/>
   </g>
   <g id="patch_14">
    <path d="M 111.901436 136.279039 
Q 138.162498 146.227032 163.378029 155.778966 
" clip-path="url(#pdb18092484)" style="fill: none; stroke: #000000; stroke-linecap: round"/>
    <path d="M 160.345913 152.491676 
L 163.378029 155.778966 
L 158.928927 156.232285 
L 160.345913 152.491676 
z
" clip-path="url(#pdb18092484)" style="stroke: #000000; stroke-linecap: round"/>
   </g>
   <g id="patch_15">
    <path d="M 41.873671 151.064446 
Q 75.03806 143.542259 107.112109 136.267378 
" clip-path="url(#pdb18092484)" style="fill: none; stroke: #000000; stroke-linecap: round"/>
    <path d="M 102.768799 135.201707 
L 107.112109 136.267378 
L 103.653586 139.102624 
L 102.768799 135.201707 
z
" clip-path="url(#pdb18092484)" style="stroke: #000000; stroke-linecap: round"/>
   </g>
   <g id="patch_16">
    <path d="M 210.836413 162.616994 
Q 161.398675 149.355769 113.040795 136.384206 
" clip-path="url(#pdb18092484)" style="fill: none; stroke: #000000; stroke-linecap: round"/>
    <path d="M 116.386053 139.352245 
L 113.040795 136.384206 
L 117.42238 135.488823 
L 116.386053 139.352245 
z
" clip-path="url(#pdb18092484)" style="stroke: #000000; stroke-linecap: round"/>
   </g>
   <g id="patch_17">
    <path d="M 213.940276 161.623372 
Q 237.308274 133.316899 259.9645 105.872621 
" clip-path="url(#pdb18092484)" style="fill: none; stroke: #000000; stroke-linecap: round"/>
    <path d="M 255.875644 107.684046 
L 259.9645 105.872621 
L 258.960326 110.23056 
L 255.875644 107.684046 
z
" clip-path="url(#pdb18092484)" style="stroke: #000000; stroke-linecap: round"/>
   </g>
   <g id="patch_18">
    <path d="M 210.785891 162.859979 
Q 189.470217 159.990141 169.26258 157.269483 
" clip-path="url(#pdb18092484)" style="fill: none; stroke: #000000; stroke-linecap: round"/>
    <path d="M 172.95995 159.785325 
L 169.26258 157.269483 
L 173.493674 155.821092 
L 172.95995 159.785325 
z
" clip-path="url(#pdb18092484)" style="stroke: #000000; stroke-linecap: round"/>
   </g>
   <g id="patch_19">
    <path d="M 214.23829 164.303337 
Q 253.659987 194.78619 292.197224 224.585135 
" clip-path="url(#pdb18092484)" style="fill: none; stroke: #000000; stroke-linecap: round"/>
    <path d="M 290.256299 220.556138 
L 292.197224 224.585135 
L 287.809472 223.720477 
L 290.256299 220.556138 
z
" clip-path="url(#pdb18092484)" style="stroke: #000000; stroke-linecap: round"/>
   </g>
   <g id="patch_20">
    <path d="M 260.674588 105.012467 
Q 237.30659 133.31894 214.650364 160.763218 
" clip-path="url(#pdb18092484)" style="fill: none; stroke: #000000; stroke-linecap: round"/>
    <path d="M 218.73922 158.951793 
L 214.650364 160.763218 
L 215.654538 156.405279 
L 218.73922 158.951793 
z
" clip-path="url(#pdb18092484)" style="stroke: #000000; stroke-linecap: round"/>
   </g>
   <g id="patch_21">
    <path d="M 164.424721 156.175465 
Q 138.163659 146.227472 112.948129 136.675538 
" clip-path="url(#pdb18092484)" style="fill: none; stroke: #000000; stroke-linecap: round"/>
    <path d="M 115.980244 139.962828 
L 112.948129 136.675538 
L 117.39723 136.22222 
L 115.980244 139.962828 
z
" clip-path="url(#pdb18092484)" style="stroke: #000000; stroke-linecap: round"/>
   </g>
   <g id="patch_22">
    <path d="M 168.157751 157.120735 
Q 189.473425 159.990573 209.681062 162.711231 
" clip-path="url(#pdb18092484)" style="fill: none; stroke: #000000; stroke-linecap: round"/>
    <path d="M 205.983692 160.19539 
L 209.681062 162.711231 
L 205.449968 164.159622 
L 205.983692 160.19539 
z
" clip-path="url(#pdb18092484)" style="stroke: #000000; stroke-linecap: round"/>
   </g>
   <g id="patch_23">
    <path d="M 293.082453 225.269639 
Q 253.660757 194.786786 215.123519 164.987842 
" clip-path="url(#pdb18092484)" style="fill: none; stroke: #000000; stroke-linecap: round"/>
    <path d="M 217.064444 169.016838 
L 215.123519 164.987842 
L 219.511271 165.852499 
L 217.064444 169.016838 
z
" clip-path="url(#pdb18092484)" style="stroke: #000000; stroke-linecap: round"/>
   </g>
   <g id="patch_24">
    <path d="M 296.194298 227.578616 
Q 330.018236 251.650348 362.93127 275.073809 
" clip-path="url(#pdb18092484)" style="fill: none; stroke: #000000; stroke-linecap: round"/>
    <path d="M 360.83198 271.125014 
L 362.93127 275.073809 
L 358.51266 274.383963 
L 360.83198 271.125014 
z
" clip-path="url(#pdb18092484)" style="stroke: #000000; stroke-linecap: round"/>
   </g>
   <g id="patch_25">
    <path d="M 363.840738 275.721057 
Q 330.0168 251.649326 297.103766 228.225864 
" clip-path="url(#pdb18092484)" style="fill: none; stroke: #000000; stroke-linecap: round"/>
    <path d="M 299.203056 232.17466 
L 297.103766 228.225864 
L 301.522376 228.91571 
L 299.203056 232.17466 
z
" clip-path="url(#pdb18092484)" style="stroke: #000000; stroke-linecap: round"/>
   </g>
   <g id="patch_26">
    <path d="M 367.005943 277.95485 
Q 393.116464 296.227348 418.310976 313.858811 
" clip-path="url(#pdb18092484)" style="fill: none; stroke: #000000; stroke-linecap: round"/>
    <path d="M 416.180481 309.926764 
L 418.310976 313.858811 
L 413.887042 313.203979 
L 416.180481 309.926764 
z
" clip-path="url(#pdb18092484)" style="stroke: #000000; stroke-linecap: round"/>
   </g>
   <g id="patch_27">
    <path d="M 419.227573 314.500258 
Q 393.117052 296.22776 367.92254 278.596297 
" clip-path="url(#pdb18092484)" style="fill: none; stroke: #000000; stroke-linecap: round"/>
    <path d="M 370.053035 282.528344 
L 367.92254 278.596297 
L 372.346474 279.25113 
L 370.053035 282.528344 
z
" clip-path="url(#pdb18092484)" style="stroke: #000000; stroke-linecap: round"/>
   </g>
   <g id="PathCollection_1">
    <defs>
     <path id="mf25d88fc77" d="M 0 1.936492 
C 0.513564 1.936492 1.006162 1.732451 1.369306 1.369306 
C 1.732451 1.006162 1.936492 0.513564 1.936492 0 
C 1.936492 -0.513564 1.732451 -1.006162 1.369306 -1.369306 
C 1.006162 -1.732451 0.513564 -1.936492 0 -1.936492 
C -0.513564 -1.936492 -1.006162 -1.732451 -1.369306 -1.369306 
C -1.732451 -1.006162 -1.936492 -0.513564 -1.936492 0 
C -1.936492 0.513564 -1.732451 1.006162 -1.369306 1.369306 
C -1.006162 1.732451 -0.513564 1.936492 0 1.936492 
z
" style="stroke: #1f78b4"/>
    </defs>
    <g clip-path="url(#pdb18092484)">
     <use xlink:href="#mf25d88fc77" x="107.643575" y="244.225729" style="fill: #1f78b4; stroke: #1f78b4"/>
     <use xlink:href="#mf25d88fc77" x="131.251188" y="33.25206" style="fill: #1f78b4; stroke: #1f78b4"/>
     <use xlink:href="#mf25d88fc77" x="83.601329" y="29.990083" style="fill: #1f78b4; stroke: #1f78b4"/>
     <use xlink:href="#mf25d88fc77" x="47.846086" y="77.197936" style="fill: #1f78b4; stroke: #1f78b4"/>
     <use xlink:href="#mf25d88fc77" x="61.2999" y="218.918958" style="fill: #1f78b4; stroke: #1f78b4"/>
     <use xlink:href="#mf25d88fc77" x="110.088516" y="135.592284" style="fill: #1f78b4; stroke: #1f78b4"/>
     <use xlink:href="#mf25d88fc77" x="39.986777" y="151.492422" style="fill: #1f78b4; stroke: #1f78b4"/>
     <use xlink:href="#mf25d88fc77" x="212.706" y="163.118494" style="fill: #1f78b4; stroke: #1f78b4"/>
     <use xlink:href="#mf25d88fc77" x="261.908863" y="103.517345" style="fill: #1f78b4; stroke: #1f78b4"/>
     <use xlink:href="#mf25d88fc77" x="166.237642" y="156.862221" style="fill: #1f78b4; stroke: #1f78b4"/>
     <use xlink:href="#mf25d88fc77" x="294.614743" y="226.454482" style="fill: #1f78b4; stroke: #1f78b4"/>
     <use xlink:href="#mf25d88fc77" x="365.420293" y="276.845191" style="fill: #1f78b4; stroke: #1f78b4"/>
     <use xlink:href="#mf25d88fc77" x="420.813223" y="315.609917" style="fill: #1f78b4; stroke: #1f78b4"/>
    </g>
   </g>
   <g id="text_1">
    <g clip-path="url(#pdb18092484)">
     <!-- 0 -->
     <g transform="translate(104.462325 246.985104) scale(0.1 -0.1)">
      <defs>
       <path id="DejaVuSans-30" d="M 2034 4250 
Q 1547 4250 1301 3770 
Q 1056 3291 1056 2328 
Q 1056 1369 1301 889 
Q 1547 409 2034 409 
Q 2525 409 2770 889 
Q 3016 1369 3016 2328 
Q 3016 3291 2770 3770 
Q 2525 4250 2034 4250 
z
M 2034 4750 
Q 2819 4750 3233 4129 
Q 3647 3509 3647 2328 
Q 3647 1150 3233 529 
Q 2819 -91 2034 -91 
Q 1250 -91 836 529 
Q 422 1150 422 2328 
Q 422 3509 836 4129 
Q 1250 4750 2034 4750 
z
" transform="scale(0.015625)"/>
      </defs>
      <use xlink:href="#DejaVuSans-30"/>
     </g>
    </g>
   </g>
   <g id="text_2">
    <g clip-path="url(#pdb18092484)">
     <!-- 1 -->
     <g transform="translate(128.069938 36.011435) scale(0.1 -0.1)">
      <defs>
       <path id="DejaVuSans-31" d="M 794 531 
L 1825 531 
L 1825 4091 
L 703 3866 
L 703 4441 
L 1819 4666 
L 2450 4666 
L 2450 531 
L 3481 531 
L 3481 0 
L 794 0 
L 794 531 
z
" transform="scale(0.015625)"/>
      </defs>
      <use xlink:href="#DejaVuSans-31"/>
     </g>
    </g>
   </g>
   <g id="text_3">
    <g clip-path="url(#pdb18092484)">
     <!-- 2 -->
     <g transform="translate(80.420079 32.749458) scale(0.1 -0.1)">
      <defs>
       <path id="DejaVuSans-32" d="M 1228 531 
L 3431 531 
L 3431 0 
L 469 0 
L 469 531 
Q 828 903 1448 1529 
Q 2069 2156 2228 2338 
Q 2531 2678 2651 2914 
Q 2772 3150 2772 3378 
Q 2772 3750 2511 3984 
Q 2250 4219 1831 4219 
Q 1534 4219 1204 4116 
Q 875 4013 500 3803 
L 500 4441 
Q 881 4594 1212 4672 
Q 1544 4750 1819 4750 
Q 2544 4750 2975 4387 
Q 3406 4025 3406 3419 
Q 3406 3131 3298 2873 
Q 3191 2616 2906 2266 
Q 2828 2175 2409 1742 
Q 1991 1309 1228 531 
z
" transform="scale(0.015625)"/>
      </defs>
      <use xlink:href="#DejaVuSans-32"/>
     </g>
    </g>
   </g>
   <g id="text_4">
    <g clip-path="url(#pdb18092484)">
     <!-- 3 -->
     <g transform="translate(44.664836 79.957311) scale(0.1 -0.1)">
      <defs>
       <path id="DejaVuSans-33" d="M 2597 2516 
Q 3050 2419 3304 2112 
Q 3559 1806 3559 1356 
Q 3559 666 3084 287 
Q 2609 -91 1734 -91 
Q 1441 -91 1130 -33 
Q 819 25 488 141 
L 488 750 
Q 750 597 1062 519 
Q 1375 441 1716 441 
Q 2309 441 2620 675 
Q 2931 909 2931 1356 
Q 2931 1769 2642 2001 
Q 2353 2234 1838 2234 
L 1294 2234 
L 1294 2753 
L 1863 2753 
Q 2328 2753 2575 2939 
Q 2822 3125 2822 3475 
Q 2822 3834 2567 4026 
Q 2313 4219 1838 4219 
Q 1578 4219 1281 4162 
Q 984 4106 628 3988 
L 628 4550 
Q 988 4650 1302 4700 
Q 1616 4750 1894 4750 
Q 2613 4750 3031 4423 
Q 3450 4097 3450 3541 
Q 3450 3153 3228 2886 
Q 3006 2619 2597 2516 
z
" transform="scale(0.015625)"/>
      </defs>
      <use xlink:href="#DejaVuSans-33"/>
     </g>
    </g>
   </g>
   <g id="text_5">
    <g clip-path="url(#pdb18092484)">
     <!-- 4 -->
     <g transform="translate(58.11865 221.678333) scale(0.1 -0.1)">
      <defs>
       <path id="DejaVuSans-34" d="M 2419 4116 
L 825 1625 
L 2419 1625 
L 2419 4116 
z
M 2253 4666 
L 3047 4666 
L 3047 1625 
L 3713 1625 
L 3713 1100 
L 3047 1100 
L 3047 0 
L 2419 0 
L 2419 1100 
L 313 1100 
L 313 1709 
L 2253 4666 
z
" transform="scale(0.015625)"/>
      </defs>
      <use xlink:href="#DejaVuSans-34"/>
     </g>
    </g>
   </g>
   <g id="text_6">
    <g clip-path="url(#pdb18092484)">
     <!-- 5 -->
     <g transform="translate(106.907266 138.351659) scale(0.1 -0.1)">
      <defs>
       <path id="DejaVuSans-35" d="M 691 4666 
L 3169 4666 
L 3169 4134 
L 1269 4134 
L 1269 2991 
Q 1406 3038 1543 3061 
Q 1681 3084 1819 3084 
Q 2600 3084 3056 2656 
Q 3513 2228 3513 1497 
Q 3513 744 3044 326 
Q 2575 -91 1722 -91 
Q 1428 -91 1123 -41 
Q 819 9 494 109 
L 494 744 
Q 775 591 1075 516 
Q 1375 441 1709 441 
Q 2250 441 2565 725 
Q 2881 1009 2881 1497 
Q 2881 1984 2565 2268 
Q 2250 2553 1709 2553 
Q 1456 2553 1204 2497 
Q 953 2441 691 2322 
L 691 4666 
z
" transform="scale(0.015625)"/>
      </defs>
      <use xlink:href="#DejaVuSans-35"/>
     </g>
    </g>
   </g>
   <g id="text_7">
    <g clip-path="url(#pdb18092484)">
     <!-- 6 -->
     <g transform="translate(36.805527 154.251797) scale(0.1 -0.1)">
      <defs>
       <path id="DejaVuSans-36" d="M 2113 2584 
Q 1688 2584 1439 2293 
Q 1191 2003 1191 1497 
Q 1191 994 1439 701 
Q 1688 409 2113 409 
Q 2538 409 2786 701 
Q 3034 994 3034 1497 
Q 3034 2003 2786 2293 
Q 2538 2584 2113 2584 
z
M 3366 4563 
L 3366 3988 
Q 3128 4100 2886 4159 
Q 2644 4219 2406 4219 
Q 1781 4219 1451 3797 
Q 1122 3375 1075 2522 
Q 1259 2794 1537 2939 
Q 1816 3084 2150 3084 
Q 2853 3084 3261 2657 
Q 3669 2231 3669 1497 
Q 3669 778 3244 343 
Q 2819 -91 2113 -91 
Q 1303 -91 875 529 
Q 447 1150 447 2328 
Q 447 3434 972 4092 
Q 1497 4750 2381 4750 
Q 2619 4750 2861 4703 
Q 3103 4656 3366 4563 
z
" transform="scale(0.015625)"/>
      </defs>
      <use xlink:href="#DejaVuSans-36"/>
     </g>
    </g>
   </g>
   <g id="text_8">
    <g clip-path="url(#pdb18092484)">
     <!-- 7 -->
     <g transform="translate(209.52475 165.877869) scale(0.1 -0.1)">
      <defs>
       <path id="DejaVuSans-37" d="M 525 4666 
L 3525 4666 
L 3525 4397 
L 1831 0 
L 1172 0 
L 2766 4134 
L 525 4134 
L 525 4666 
z
" transform="scale(0.015625)"/>
      </defs>
      <use xlink:href="#DejaVuSans-37"/>
     </g>
    </g>
   </g>
   <g id="text_9">
    <g clip-path="url(#pdb18092484)">
     <!-- 8 -->
     <g transform="translate(258.727613 106.27672) scale(0.1 -0.1)">
      <defs>
       <path id="DejaVuSans-38" d="M 2034 2216 
Q 1584 2216 1326 1975 
Q 1069 1734 1069 1313 
Q 1069 891 1326 650 
Q 1584 409 2034 409 
Q 2484 409 2743 651 
Q 3003 894 3003 1313 
Q 3003 1734 2745 1975 
Q 2488 2216 2034 2216 
z
M 1403 2484 
Q 997 2584 770 2862 
Q 544 3141 544 3541 
Q 544 4100 942 4425 
Q 1341 4750 2034 4750 
Q 2731 4750 3128 4425 
Q 3525 4100 3525 3541 
Q 3525 3141 3298 2862 
Q 3072 2584 2669 2484 
Q 3125 2378 3379 2068 
Q 3634 1759 3634 1313 
Q 3634 634 3220 271 
Q 2806 -91 2034 -91 
Q 1263 -91 848 271 
Q 434 634 434 1313 
Q 434 1759 690 2068 
Q 947 2378 1403 2484 
z
M 1172 3481 
Q 1172 3119 1398 2916 
Q 1625 2713 2034 2713 
Q 2441 2713 2670 2916 
Q 2900 3119 2900 3481 
Q 2900 3844 2670 4047 
Q 2441 4250 2034 4250 
Q 1625 4250 1398 4047 
Q 1172 3844 1172 3481 
z
" transform="scale(0.015625)"/>
      </defs>
      <use xlink:href="#DejaVuSans-38"/>
     </g>
    </g>
   </g>
   <g id="text_10">
    <g clip-path="url(#pdb18092484)">
     <!-- 9 -->
     <g transform="translate(163.056392 159.621596) scale(0.1 -0.1)">
      <defs>
       <path id="DejaVuSans-39" d="M 703 97 
L 703 672 
Q 941 559 1184 500 
Q 1428 441 1663 441 
Q 2288 441 2617 861 
Q 2947 1281 2994 2138 
Q 2813 1869 2534 1725 
Q 2256 1581 1919 1581 
Q 1219 1581 811 2004 
Q 403 2428 403 3163 
Q 403 3881 828 4315 
Q 1253 4750 1959 4750 
Q 2769 4750 3195 4129 
Q 3622 3509 3622 2328 
Q 3622 1225 3098 567 
Q 2575 -91 1691 -91 
Q 1453 -91 1209 -44 
Q 966 3 703 97 
z
M 1959 2075 
Q 2384 2075 2632 2365 
Q 2881 2656 2881 3163 
Q 2881 3666 2632 3958 
Q 2384 4250 1959 4250 
Q 1534 4250 1286 3958 
Q 1038 3666 1038 3163 
Q 1038 2656 1286 2365 
Q 1534 2075 1959 2075 
z
" transform="scale(0.015625)"/>
      </defs>
      <use xlink:href="#DejaVuSans-39"/>
     </g>
    </g>
   </g>
   <g id="text_11">
    <g clip-path="url(#pdb18092484)">
     <!-- 10 -->
     <g transform="translate(288.252243 229.213857) scale(0.1 -0.1)">
      <use xlink:href="#DejaVuSans-31"/>
      <use xlink:href="#DejaVuSans-30" x="63.623047"/>
     </g>
    </g>
   </g>
   <g id="text_12">
    <g clip-path="url(#pdb18092484)">
     <!-- 11 -->
     <g transform="translate(359.057793 279.604566) scale(0.1 -0.1)">
      <use xlink:href="#DejaVuSans-31"/>
      <use xlink:href="#DejaVuSans-31" x="63.623047"/>
     </g>
    </g>
   </g>
   <g id="text_13">
    <g clip-path="url(#pdb18092484)">
     <!-- 12 -->
     <g transform="translate(414.450723 318.369292) scale(0.1 -0.1)">
      <use xlink:href="#DejaVuSans-31"/>
      <use xlink:href="#DejaVuSans-32" x="63.623047"/>
     </g>
    </g>
   </g>
  </g>
 </g>
 <defs>
  <clipPath id="pdb18092484">
   <rect x="0" y="0" width="460.8" height="345.6"/>
  </clipPath>
 </defs>
</svg>
