<?xml version="1.0" encoding="utf-8" standalone="no"?>
<!DOCTYPE svg PUBLIC "-//W3C//DTD SVG 1.1//EN"
  "http://www.w3.org/Graphics/SVG/1.1/DTD/svg11.dtd">
<svg xmlns:xlink="http://www.w3.org/1999/xlink" width="460.8pt" height="345.6pt" viewBox="0 0 460.8 345.6" xmlns="http://www.w3.org/2000/svg" version="1.1">
 <metadata>
  <rdf:RDF xmlns:dc="http://purl.org/dc/elements/1.1/" xmlns:cc="http://creativecommons.org/ns#" xmlns:rdf="http://www.w3.org/1999/02/22-rdf-syntax-ns#">
   <cc:Work>
    <dc:type rdf:resource="http://purl.org/dc/dcmitype/StillImage"/>
    <dc:date>2023-10-10T10:55:57.828813</dc:date>
    <dc:format>image/svg+xml</dc:format>
    <dc:creator>
     <cc:Agent>
      <dc:title>Matplotlib v3.6.1, https://matplotlib.org/</dc:title>
     </cc:Agent>
    </dc:creator>
   </cc:Work>
  </rdf:RDF>
 </metadata>
 <defs>
  <style type="text/css">*{stroke-linejoin: round; stroke-linecap: butt}</style>
 </defs>
 <g id="figure_1">
  <g id="patch_1">
   <path d="M 0 345.6 
L 460.8 345.6 
L 460.8 0 
L 0 0 
z
" style="fill: #ffffff"/>
  </g>
  <g id="axes_1">
   <g id="patch_2">
    <path d="M 342.772778 147.3565 
Q 380.833213 142.880196 417.783268 138.534484 
" clip-path="url(#pecb3503a25)" style="fill: none; stroke: #000000; stroke-linecap: round"/>
    <path d="M 413.577038 137.015396 
L 417.783268 138.534484 
L 414.04426 140.988015 
L 413.577038 137.015396 
z
" clip-path="url(#pecb3503a25)" style="stroke: #000000; stroke-linecap: round"/>
   </g>
   <g id="patch_3">
    <path d="M 342.174225 148.992598 
Q 357.994693 165.764571 373.047999 181.723241 
" clip-path="url(#pecb3503a25)" style="fill: none; stroke: #000000; stroke-linecap: round"/>
    <path d="M 371.758195 177.441138 
L 373.047999 181.723241 
L 368.848434 180.185822 
L 371.758195 177.441138 
z
" clip-path="url(#pecb3503a25)" style="stroke: #000000; stroke-linecap: round"/>
   </g>
   <g id="patch_4">
    <path d="M 338.932293 147.287941 
Q 279.762692 138.151832 221.698031 129.186331 
" clip-path="url(#pecb3503a25)" style="fill: none; stroke: #000000; stroke-linecap: round"/>
    <path d="M 225.345991 131.773297 
L 221.698031 129.186331 
L 225.956379 127.820143 
L 225.345991 131.773297 
z
" clip-path="url(#pecb3503a25)" style="stroke: #000000; stroke-linecap: round"/>
   </g>
   <g id="patch_5">
    <path d="M 418.885274 138.404877 
Q 380.824838 142.881181 343.874783 147.226892 
" clip-path="url(#pecb3503a25)" style="fill: none; stroke: #000000; stroke-linecap: round"/>
    <path d="M 348.081013 148.745981 
L 343.874783 147.226892 
L 347.613792 144.773361 
L 348.081013 148.745981 
z
" clip-path="url(#pecb3503a25)" style="stroke: #000000; stroke-linecap: round"/>
   </g>
   <g id="patch_6">
    <path d="M 419.444637 139.549736 
Q 397.97771 161.06402 377.30048 181.786864 
" clip-path="url(#pecb3503a25)" style="fill: none; stroke: #000000; stroke-linecap: round"/>
    <path d="M 381.54156 180.367976 
L 377.30048 181.786864 
L 378.710019 177.542667 
L 381.54156 180.367976 
z
" clip-path="url(#pecb3503a25)" style="stroke: #000000; stroke-linecap: round"/>
   </g>
   <g id="patch_7">
    <path d="M 419.876513 136.482465 
Q 408.535009 115.951681 397.73412 96.399537 
" clip-path="url(#pecb3503a25)" style="fill: none; stroke: #000000; stroke-linecap: round"/>
    <path d="M 397.917638 100.867906 
L 397.73412 96.399537 
L 401.418926 98.933743 
L 397.917638 100.867906 
z
" clip-path="url(#pecb3503a25)" style="stroke: #000000; stroke-linecap: round"/>
   </g>
   <g id="patch_8">
    <path d="M 292.775021 235.574884 
Q 274.633702 213.883322 257.209647 193.049392 
" clip-path="url(#pecb3503a25)" style="fill: none; stroke: #000000; stroke-linecap: round"/>
    <path d="M 258.24163 197.40083 
L 257.209647 193.049392 
L 261.309987 194.834668 
L 258.24163 197.40083 
z
" clip-path="url(#pecb3503a25)" style="stroke: #000000; stroke-linecap: round"/>
   </g>
   <g id="patch_9">
    <path d="M 292.532401 238.302238 
Q 266.80322 259.821931 241.931645 280.624328 
" clip-path="url(#pecb3503a25)" style="fill: none; stroke: #000000; stroke-linecap: round"/>
    <path d="M 246.283046 279.592188 
L 241.931645 280.624328 
L 243.716773 276.523924 
L 246.283046 279.592188 
z
" clip-path="url(#pecb3503a25)" style="stroke: #000000; stroke-linecap: round"/>
   </g>
   <g id="patch_10">
    <path d="M 295.638972 235.998591 
Q 334.582979 210.50243 372.591587 185.618663 
" clip-path="url(#pecb3503a25)" style="fill: none; stroke: #000000; stroke-linecap: round"/>
    <path d="M 368.149514 186.136339 
L 372.591587 185.618663 
L 370.340484 189.482927 
L 368.149514 186.136339 
z
" clip-path="url(#pecb3503a25)" style="stroke: #000000; stroke-linecap: round"/>
   </g>
   <g id="patch_11">
    <path d="M 294.902774 238.78016 
Q 306.631782 261.561796 317.84902 283.349404 
" clip-path="url(#pecb3503a25)" style="fill: none; stroke: #000000; stroke-linecap: round"/>
    <path d="M 317.796227 278.87758 
L 317.84902 283.349404 
L 314.239885 280.708544 
L 317.796227 278.87758 
z
" clip-path="url(#pecb3503a25)" style="stroke: #000000; stroke-linecap: round"/>
   </g>
   <g id="patch_12">
    <path d="M 373.81596 182.53739 
Q 357.995492 165.765417 342.942186 149.806748 
" clip-path="url(#pecb3503a25)" style="fill: none; stroke: #000000; stroke-linecap: round"/>
    <path d="M 344.231991 154.088851 
L 342.942186 149.806748 
L 347.141751 151.344166 
L 344.231991 154.088851 
z
" clip-path="url(#pecb3503a25)" style="stroke: #000000; stroke-linecap: round"/>
   </g>
   <g id="patch_13">
    <path d="M 376.513943 182.575136 
Q 397.98087 161.060852 418.658099 140.338008 
" clip-path="url(#pecb3503a25)" style="fill: none; stroke: #000000; stroke-linecap: round"/>
    <path d="M 414.41702 141.756895 
L 418.658099 140.338008 
L 417.248561 144.582204 
L 414.41702 141.756895 
z
" clip-path="url(#pecb3503a25)" style="stroke: #000000; stroke-linecap: round"/>
   </g>
   <g id="patch_14">
    <path d="M 373.523687 185.008429 
Q 334.57968 210.50459 296.571072 235.388356 
" clip-path="url(#pecb3503a25)" style="fill: none; stroke: #000000; stroke-linecap: round"/>
    <path d="M 301.013145 234.87068 
L 296.571072 235.388356 
L 298.822175 231.524093 
L 301.013145 234.87068 
z
" clip-path="url(#pecb3503a25)" style="stroke: #000000; stroke-linecap: round"/>
   </g>
   <g id="patch_15">
    <path d="M 397.19464 95.422952 
Q 408.536144 115.953736 419.337033 135.50588 
" clip-path="url(#pecb3503a25)" style="fill: none; stroke: #000000; stroke-linecap: round"/>
    <path d="M 419.153515 131.037511 
L 419.337033 135.50588 
L 415.652227 132.971673 
L 419.153515 131.037511 
z
" clip-path="url(#pecb3503a25)" style="stroke: #000000; stroke-linecap: round"/>
   </g>
   <g id="patch_16">
    <path d="M 394.331588 93.513307 
Q 336.819326 87.124782 280.418264 80.859691 
" clip-path="url(#pecb3503a25)" style="fill: none; stroke: #000000; stroke-linecap: round"/>
    <path d="M 284.173008 83.289073 
L 280.418264 80.859691 
L 284.614616 79.313525 
L 284.173008 83.289073 
z
" clip-path="url(#pecb3503a25)" style="stroke: #000000; stroke-linecap: round"/>
   </g>
   <g id="patch_17">
    <path d="M 154.354832 31.434858 
Q 143.406263 43.720373 133.201542 55.171208 
" clip-path="url(#pecb3503a25)" style="fill: none; stroke: #000000; stroke-linecap: round"/>
    <path d="M 137.355933 53.515602 
L 133.201542 55.171208 
L 134.369691 50.854331 
L 137.355933 53.515602 
z
" clip-path="url(#pecb3503a25)" style="stroke: #000000; stroke-linecap: round"/>
   </g>
   <g id="patch_18">
    <path d="M 157.051798 31.321719 
Q 177.143441 50.304585 196.422409 68.519625 
" clip-path="url(#pecb3503a25)" style="fill: none; stroke: #000000; stroke-linecap: round"/>
    <path d="M 194.888424 64.318805 
L 196.422409 68.519625 
L 192.141362 67.226321 
L 194.888424 64.318805 
z
" clip-path="url(#pecb3503a25)" style="stroke: #000000; stroke-linecap: round"/>
   </g>
   <g id="patch_19">
    <path d="M 197.234584 69.28698 
Q 177.142941 50.304113 157.863973 32.089073 
" clip-path="url(#pecb3503a25)" style="fill: none; stroke: #000000; stroke-linecap: round"/>
    <path d="M 159.397959 36.289893 
L 157.863973 32.089073 
L 162.145021 33.382377 
L 159.397959 36.289893 
z
" clip-path="url(#pecb3503a25)" style="stroke: #000000; stroke-linecap: round"/>
   </g>
   <g id="patch_20">
    <path d="M 196.745469 70.248112 
Q 164.908287 64.034998 134.168439 58.036031 
" clip-path="url(#pecb3503a25)" style="fill: none; stroke: #000000; stroke-linecap: round"/>
    <path d="M 137.7113 60.765159 
L 134.168439 58.036031 
L 138.477458 56.839219 
L 137.7113 60.765159 
z
" clip-path="url(#pecb3503a25)" style="stroke: #000000; stroke-linecap: round"/>
   </g>
   <g id="patch_21">
    <path d="M 199.276275 72.452031 
Q 208.66307 99.671013 217.685363 125.833048 
" clip-path="url(#pecb3503a25)" style="fill: none; stroke: #000000; stroke-linecap: round"/>
    <path d="M 218.27201 121.399556 
L 217.685363 125.833048 
L 214.490558 122.703635 
L 218.27201 121.399556 
z
" clip-path="url(#pecb3503a25)" style="stroke: #000000; stroke-linecap: round"/>
   </g>
   <g id="patch_22">
    <path d="M 200.561542 70.859807 
Q 238.013598 75.570583 274.35636 80.14183 
" clip-path="url(#pecb3503a25)" style="fill: none; stroke: #000000; stroke-linecap: round"/>
    <path d="M 270.637228 77.658273 
L 274.35636 80.14183 
L 270.138035 81.627001 
L 270.637228 77.658273 
z
" clip-path="url(#pecb3503a25)" style="stroke: #000000; stroke-linecap: round"/>
   </g>
   <g id="patch_23">
    <path d="M 279.309729 80.736554 
Q 336.82199 87.125078 393.223053 93.390169 
" clip-path="url(#pecb3503a25)" style="fill: none; stroke: #000000; stroke-linecap: round"/>
    <path d="M 389.468309 90.960787 
L 393.223053 93.390169 
L 389.0267 94.936335 
L 389.468309 90.960787 
z
" clip-path="url(#pecb3503a25)" style="stroke: #000000; stroke-linecap: round"/>
   </g>
   <g id="patch_24">
    <path d="M 275.465844 80.281382 
Q 238.013788 75.570607 201.671026 70.999359 
" clip-path="url(#pecb3503a25)" style="fill: none; stroke: #000000; stroke-linecap: round"/>
    <path d="M 205.390158 73.482916 
L 201.671026 70.999359 
L 205.889351 69.514188 
L 205.390158 73.482916 
z
" clip-path="url(#pecb3503a25)" style="stroke: #000000; stroke-linecap: round"/>
   </g>
   <g id="patch_25">
    <path d="M 275.475554 80.870974 
Q 216.213095 91.693249 158.050482 102.314673 
" clip-path="url(#pecb3503a25)" style="fill: none; stroke: #000000; stroke-linecap: round"/>
    <path d="M 162.344698 103.563556 
L 158.050482 102.314673 
L 161.626118 99.62863 
L 162.344698 103.563556 
z
" clip-path="url(#pecb3503a25)" style="stroke: #000000; stroke-linecap: round"/>
   </g>
   <g id="patch_26">
    <path d="M 132.457511 56.006094 
Q 143.40608 43.720579 153.610801 32.269744 
" clip-path="url(#pecb3503a25)" style="fill: none; stroke: #000000; stroke-linecap: round"/>
    <path d="M 149.45641 33.925351 
L 153.610801 32.269744 
L 152.442652 36.586621 
L 149.45641 33.925351 
z
" clip-path="url(#pecb3503a25)" style="stroke: #000000; stroke-linecap: round"/>
   </g>
   <g id="patch_27">
    <path d="M 133.068491 57.821373 
Q 164.905673 64.034487 195.645521 70.033454 
" clip-path="url(#pecb3503a25)" style="fill: none; stroke: #000000; stroke-linecap: round"/>
    <path d="M 192.10266 67.304326 
L 195.645521 70.033454 
L 191.336502 71.230266 
L 192.10266 67.304326 
z
" clip-path="url(#pecb3503a25)" style="stroke: #000000; stroke-linecap: round"/>
   </g>
   <g id="patch_28">
    <path d="M 132.071908 59.166607 
Q 143.10677 80.157771 153.621397 100.159311 
" clip-path="url(#pecb3503a25)" style="fill: none; stroke: #000000; stroke-linecap: round"/>
    <path d="M 153.530436 95.6881 
L 153.621397 100.159311 
L 149.989852 97.549353 
L 153.530436 95.6881 
z
" clip-path="url(#pecb3503a25)" style="stroke: #000000; stroke-linecap: round"/>
   </g>
   <g id="patch_29">
    <path d="M 156.950986 102.515459 
Q 216.213445 91.693185 274.376058 81.07176 
" clip-path="url(#pecb3503a25)" style="fill: none; stroke: #000000; stroke-linecap: round"/>
    <path d="M 270.081842 79.822878 
L 274.376058 81.07176 
L 270.800422 83.757804 
L 270.081842 79.822878 
z
" clip-path="url(#pecb3503a25)" style="stroke: #000000; stroke-linecap: round"/>
   </g>
   <g id="patch_30">
    <path d="M 154.141206 101.148122 
Q 143.106343 80.156959 132.591717 60.155418 
" clip-path="url(#pecb3503a25)" style="fill: none; stroke: #000000; stroke-linecap: round"/>
    <path d="M 132.682677 64.626629 
L 132.591717 60.155418 
L 136.223262 62.765376 
L 132.682677 64.626629 
z
" clip-path="url(#pecb3503a25)" style="stroke: #000000; stroke-linecap: round"/>
   </g>
   <g id="patch_31">
    <path d="M 153.108459 102.828868 
Q 97.51596 101.823407 43.041312 100.838164 
" clip-path="url(#pecb3503a25)" style="fill: none; stroke: #000000; stroke-linecap: round"/>
    <path d="M 47.004491 102.91017 
L 43.041312 100.838164 
L 47.076825 98.910824 
L 47.004491 102.91017 
z
" clip-path="url(#pecb3503a25)" style="stroke: #000000; stroke-linecap: round"/>
   </g>
   <g id="patch_32">
    <path d="M 153.178749 103.39048 
Q 128.010651 110.499472 103.91849 117.304555 
" clip-path="url(#pecb3503a25)" style="fill: none; stroke: #000000; stroke-linecap: round"/>
    <path d="M 108.311527 118.141949 
L 103.91849 117.304555 
L 107.224227 114.292562 
L 108.311527 118.141949 
z
" clip-path="url(#pecb3503a25)" style="stroke: #000000; stroke-linecap: round"/>
   </g>
   <g id="patch_33">
    <path d="M 156.833749 103.591394 
Q 186.860913 115.791682 215.852278 127.571117 
" clip-path="url(#pecb3503a25)" style="fill: none; stroke: #000000; stroke-linecap: round"/>
    <path d="M 212.899334 124.212528 
L 215.852278 127.571117 
L 211.39364 127.918318 
L 212.899334 124.212528 
z
" clip-path="url(#pecb3503a25)" style="stroke: #000000; stroke-linecap: round"/>
   </g>
   <g id="patch_34">
    <path d="M 155.606781 104.714739 
Q 162.96271 128.870664 169.992944 151.957046 
" clip-path="url(#pecb3503a25)" style="fill: none; stroke: #000000; stroke-linecap: round"/>
    <path d="M 170.740956 147.547911 
L 169.992944 151.957046 
L 166.914442 148.713155 
L 170.740956 147.547911 
z
" clip-path="url(#pecb3503a25)" style="stroke: #000000; stroke-linecap: round"/>
   </g>
   <g id="patch_35">
    <path d="M 257.445927 313.928693 
Q 248.996817 299.095325 241.101069 285.233446 
" clip-path="url(#pecb3503a25)" style="fill: none; stroke: #000000; stroke-linecap: round"/>
    <path d="M 241.342983 289.699035 
L 241.101069 285.233446 
L 244.818688 287.719268 
L 241.342983 289.699035 
z
" clip-path="url(#pecb3503a25)" style="stroke: #000000; stroke-linecap: round"/>
   </g>
   <g id="patch_36">
    <path d="M 260.145253 314.764221 
Q 288.825393 300.83834 316.49979 287.400805 
" clip-path="url(#pecb3503a25)" style="fill: none; stroke: #000000; stroke-linecap: round"/>
    <path d="M 312.027956 287.348841 
L 316.49979 287.400805 
L 313.775118 290.947094 
L 312.027956 287.348841 
z
" clip-path="url(#pecb3503a25)" style="stroke: #000000; stroke-linecap: round"/>
   </g>
   <g id="patch_37">
    <path d="M 241.075776 281.340171 
Q 266.804957 259.820478 291.676532 239.01808 
" clip-path="url(#pecb3503a25)" style="fill: none; stroke: #000000; stroke-linecap: round"/>
    <path d="M 287.325132 240.050221 
L 291.676532 239.01808 
L 289.891405 243.118485 
L 287.325132 240.050221 
z
" clip-path="url(#pecb3503a25)" style="stroke: #000000; stroke-linecap: round"/>
   </g>
   <g id="patch_38">
    <path d="M 240.548503 284.263355 
Q 248.997613 299.096723 256.893361 312.958602 
" clip-path="url(#pecb3503a25)" style="fill: none; stroke: #000000; stroke-linecap: round"/>
    <path d="M 256.651447 308.493013 
L 256.893361 312.958602 
L 253.175742 310.47278 
L 256.651447 308.493013 
z
" clip-path="url(#pecb3503a25)" style="stroke: #000000; stroke-linecap: round"/>
   </g>
   <g id="patch_39">
    <path d="M 41.921471 100.81791 
Q 97.51397 101.823371 151.988618 102.808615 
" clip-path="url(#pecb3503a25)" style="fill: none; stroke: #000000; stroke-linecap: round"/>
    <path d="M 148.025439 100.736608 
L 151.988618 102.808615 
L 147.953106 104.735954 
L 148.025439 100.736608 
z
" clip-path="url(#pecb3503a25)" style="stroke: #000000; stroke-linecap: round"/>
   </g>
   <g id="patch_40">
    <path d="M 41.851826 101.313519 
Q 70.482394 109.45882 98.037601 117.298184 
" clip-path="url(#pecb3503a25)" style="fill: none; stroke: #000000; stroke-linecap: round"/>
    <path d="M 94.737547 114.279966 
L 98.037601 117.298184 
L 93.642994 118.127296 
L 94.737547 114.279966 
z
" clip-path="url(#pecb3503a25)" style="stroke: #000000; stroke-linecap: round"/>
   </g>
   <g id="patch_41">
    <path d="M 102.843127 117.608302 
Q 128.011224 110.49931 152.103386 103.694228 
" clip-path="url(#pecb3503a25)" style="fill: none; stroke: #000000; stroke-linecap: round"/>
    <path d="M 147.710349 102.856834 
L 152.103386 103.694228 
L 148.797648 106.706221 
L 147.710349 102.856834 
z
" clip-path="url(#pecb3503a25)" style="stroke: #000000; stroke-linecap: round"/>
   </g>
   <g id="patch_42">
    <path d="M 99.113673 117.604323 
Q 70.483105 109.459022 42.927898 101.619658 
" clip-path="url(#pecb3503a25)" style="fill: none; stroke: #000000; stroke-linecap: round"/>
    <path d="M 46.227953 104.637876 
L 42.927898 101.619658 
L 47.322505 100.790545 
L 46.227953 104.637876 
z
" clip-path="url(#pecb3503a25)" style="stroke: #000000; stroke-linecap: round"/>
   </g>
   <g id="patch_43">
    <path d="M 102.907623 118.308399 
Q 159.831603 123.427865 215.642044 128.447185 
" clip-path="url(#pecb3503a25)" style="fill: none; stroke: #000000; stroke-linecap: round"/>
    <path d="M 211.837271 126.096931 
L 215.642044 128.447185 
L 211.478976 130.080851 
L 211.837271 126.096931 
z
" clip-path="url(#pecb3503a25)" style="stroke: #000000; stroke-linecap: round"/>
   </g>
   <g id="patch_44">
    <path d="M 220.593674 129.015813 
Q 279.763275 138.151922 337.827936 147.117422 
" clip-path="url(#pecb3503a25)" style="fill: none; stroke: #000000; stroke-linecap: round"/>
    <path d="M 334.179977 144.530457 
L 337.827936 147.117422 
L 333.569588 148.48361 
L 334.179977 144.530457 
z
" clip-path="url(#pecb3503a25)" style="stroke: #000000; stroke-linecap: round"/>
   </g>
   <g id="patch_45">
    <path d="M 218.048863 126.887091 
Q 208.662068 99.668109 199.639775 73.506075 
" clip-path="url(#pecb3503a25)" style="fill: none; stroke: #000000; stroke-linecap: round"/>
    <path d="M 199.053129 77.939566 
L 199.639775 73.506075 
L 202.83458 76.635487 
L 199.053129 77.939566 
z
" clip-path="url(#pecb3503a25)" style="stroke: #000000; stroke-linecap: round"/>
   </g>
   <g id="patch_46">
    <path d="M 216.890543 127.992973 
Q 186.863379 115.792684 157.872014 104.01325 
" clip-path="url(#pecb3503a25)" style="fill: none; stroke: #000000; stroke-linecap: round"/>
    <path d="M 160.824958 107.371839 
L 157.872014 104.01325 
L 162.330652 103.666048 
L 160.824958 107.371839 
z
" clip-path="url(#pecb3503a25)" style="stroke: #000000; stroke-linecap: round"/>
   </g>
   <g id="patch_47">
    <path d="M 216.752238 128.547031 
Q 159.828258 123.427564 104.017817 118.408244 
" clip-path="url(#pecb3503a25)" style="fill: none; stroke: #000000; stroke-linecap: round"/>
    <path d="M 107.82259 120.758499 
L 104.017817 118.408244 
L 108.180885 116.774578 
L 107.82259 120.758499 
z
" clip-path="url(#pecb3503a25)" style="stroke: #000000; stroke-linecap: round"/>
   </g>
   <g id="patch_48">
    <path d="M 219.665409 130.388904 
Q 236.965126 159.712952 253.696751 188.074052 
" clip-path="url(#pecb3503a25)" style="fill: none; stroke: #000000; stroke-linecap: round"/>
    <path d="M 253.38686 183.612665 
L 253.696751 188.074052 
L 249.941707 185.645133 
L 253.38686 183.612665 
z
" clip-path="url(#pecb3503a25)" style="stroke: #000000; stroke-linecap: round"/>
   </g>
   <g id="patch_49">
    <path d="M 170.319096 153.028088 
Q 162.963166 128.872163 155.932933 105.785781 
" clip-path="url(#pecb3503a25)" style="fill: none; stroke: #000000; stroke-linecap: round"/>
    <path d="M 155.184921 110.194916 
L 155.932933 105.785781 
L 159.011434 109.029672 
L 155.184921 110.194916 
z
" clip-path="url(#pecb3503a25)" style="stroke: #000000; stroke-linecap: round"/>
   </g>
   <g id="patch_50">
    <path d="M 172.666952 155.636633 
Q 213.066928 172.792338 252.437812 189.511042 
" clip-path="url(#pecb3503a25)" style="fill: none; stroke: #000000; stroke-linecap: round"/>
    <path d="M 249.53775 186.106686 
L 252.437812 189.511042 
L 247.97429 189.788478 
L 249.53775 186.106686 
z
" clip-path="url(#pecb3503a25)" style="stroke: #000000; stroke-linecap: round"/>
   </g>
   <g id="patch_51">
    <path d="M 256.490962 192.190061 
Q 274.632282 213.881623 292.056337 234.715553 
" clip-path="url(#pecb3503a25)" style="fill: none; stroke: #000000; stroke-linecap: round"/>
    <path d="M 291.024354 230.364116 
L 292.056337 234.715553 
L 287.955997 232.930277 
L 291.024354 230.364116 
z
" clip-path="url(#pecb3503a25)" style="stroke: #000000; stroke-linecap: round"/>
   </g>
   <g id="patch_52">
    <path d="M 254.264411 189.03627 
Q 236.964695 159.712222 220.23307 131.351122 
" clip-path="url(#pecb3503a25)" style="fill: none; stroke: #000000; stroke-linecap: round"/>
    <path d="M 220.54296 135.812509 
L 220.23307 131.351122 
L 223.988113 133.780041 
L 220.54296 135.812509 
z
" clip-path="url(#pecb3503a25)" style="stroke: #000000; stroke-linecap: round"/>
   </g>
   <g id="patch_53">
    <path d="M 253.464453 189.947001 
Q 213.064477 172.791297 173.693593 156.072593 
" clip-path="url(#pecb3503a25)" style="fill: none; stroke: #000000; stroke-linecap: round"/>
    <path d="M 176.593655 159.476949 
L 173.693593 156.072593 
L 178.157115 155.795156 
L 176.593655 159.476949 
z
" clip-path="url(#pecb3503a25)" style="stroke: #000000; stroke-linecap: round"/>
   </g>
   <g id="patch_54">
    <path d="M 257.016696 191.494948 
Q 304.597514 212.762976 351.157625 233.574761 
" clip-path="url(#pecb3503a25)" style="fill: none; stroke: #000000; stroke-linecap: round"/>
    <path d="M 348.321986 230.11656 
L 351.157625 233.574761 
L 346.689681 233.768351 
L 348.321986 230.11656 
z
" clip-path="url(#pecb3503a25)" style="stroke: #000000; stroke-linecap: round"/>
   </g>
   <g id="patch_55">
    <path d="M 352.176239 234.030069 
Q 304.595422 212.762041 258.035311 191.950256 
" clip-path="url(#pecb3503a25)" style="fill: none; stroke: #000000; stroke-linecap: round"/>
    <path d="M 260.87095 195.408456 
L 258.035311 191.950256 
L 262.503255 191.756665 
L 260.87095 195.408456 
z
" clip-path="url(#pecb3503a25)" style="stroke: #000000; stroke-linecap: round"/>
   </g>
   <g id="patch_56">
    <path d="M 355.371428 236.125051 
Q 375.87925 254.873023 395.561891 272.866624 
" clip-path="url(#pecb3503a25)" style="fill: none; stroke: #000000; stroke-linecap: round"/>
    <path d="M 393.959088 268.691576 
L 395.561891 272.866624 
L 391.260171 271.643838 
L 393.959088 268.691576 
z
" clip-path="url(#pecb3503a25)" style="stroke: #000000; stroke-linecap: round"/>
   </g>
   <g id="patch_57">
    <path d="M 396.387274 273.621178 
Q 375.879451 254.873207 356.196811 236.879605 
" clip-path="url(#pecb3503a25)" style="fill: none; stroke: #000000; stroke-linecap: round"/>
    <path d="M 357.799613 241.054653 
L 356.196811 236.879605 
L 360.49853 238.102392 
L 357.799613 241.054653 
z
" clip-path="url(#pecb3503a25)" style="stroke: #000000; stroke-linecap: round"/>
   </g>
   <g id="patch_58">
    <path d="M 395.901113 275.197187 
Q 358.531257 280.496151 322.268361 285.638151 
" clip-path="url(#pecb3503a25)" style="fill: none; stroke: #000000; stroke-linecap: round"/>
    <path d="M 326.509531 287.056769 
L 322.268361 285.638151 
L 325.947958 283.096386 
L 326.509531 287.056769 
z
" clip-path="url(#pecb3503a25)" style="stroke: #000000; stroke-linecap: round"/>
   </g>
   <g id="patch_59">
    <path d="M 318.362404 284.346567 
Q 306.633397 261.564931 295.416159 239.777323 
" clip-path="url(#pecb3503a25)" style="fill: none; stroke: #000000; stroke-linecap: round"/>
    <path d="M 295.468952 244.249148 
L 295.416159 239.777323 
L 299.025294 242.418183 
L 295.468952 244.249148 
z
" clip-path="url(#pecb3503a25)" style="stroke: #000000; stroke-linecap: round"/>
   </g>
   <g id="patch_60">
    <path d="M 317.506178 286.912145 
Q 288.826039 300.838026 261.151641 314.275561 
" clip-path="url(#pecb3503a25)" style="fill: none; stroke: #000000; stroke-linecap: round"/>
    <path d="M 265.623475 314.327526 
L 261.151641 314.275561 
L 263.876313 310.729273 
L 265.623475 314.327526 
z
" clip-path="url(#pecb3503a25)" style="stroke: #000000; stroke-linecap: round"/>
   </g>
   <g id="patch_61">
    <path d="M 321.161211 285.795142 
Q 358.531067 280.496178 394.793963 275.354179 
" clip-path="url(#pecb3503a25)" style="fill: none; stroke: #000000; stroke-linecap: round"/>
    <path d="M 390.552793 273.935561 
L 394.793963 275.354179 
L 391.114366 277.895944 
L 390.552793 273.935561 
z
" clip-path="url(#pecb3503a25)" style="stroke: #000000; stroke-linecap: round"/>
   </g>
   <g id="PathCollection_1">
    <defs>
     <path id="m427278c8fc" d="M 0 1.936492 
C 0.513564 1.936492 1.006162 1.732451 1.369306 1.369306 
C 1.732451 1.006162 1.936492 0.513564 1.936492 0 
C 1.936492 -0.513564 1.732451 -1.006162 1.369306 -1.369306 
C 1.006162 -1.732451 0.513564 -1.936492 0 -1.936492 
C -0.513564 -1.936492 -1.006162 -1.732451 -1.369306 -1.369306 
C -1.732451 -1.006162 -1.936492 -0.513564 -1.936492 0 
C -1.936492 0.513564 -1.732451 1.006162 -1.369306 1.369306 
C -1.006162 1.732451 -0.513564 1.936492 0 1.936492 
z
" style="stroke: #1f78b4"/>
    </defs>
    <g clip-path="url(#pecb3503a25)">
     <use xlink:href="#m427278c8fc" x="340.844829" y="147.583247" style="fill: #1f78b4; stroke: #1f78b4"/>
     <use xlink:href="#m427278c8fc" x="420.813223" y="138.17813" style="fill: #1f78b4; stroke: #1f78b4"/>
     <use xlink:href="#m427278c8fc" x="294.017302" y="237.060278" style="fill: #1f78b4; stroke: #1f78b4"/>
     <use xlink:href="#m427278c8fc" x="375.145357" y="183.946742" style="fill: #1f78b4; stroke: #1f78b4"/>
     <use xlink:href="#m427278c8fc" x="396.25793" y="93.727287" style="fill: #1f78b4; stroke: #1f78b4"/>
     <use xlink:href="#m427278c8fc" x="155.642383" y="29.990083" style="fill: #1f78b4; stroke: #1f78b4"/>
     <use xlink:href="#m427278c8fc" x="198.644" y="70.618616" style="fill: #1f78b4; stroke: #1f78b4"/>
     <use xlink:href="#m427278c8fc" x="277.383387" y="80.522574" style="fill: #1f78b4; stroke: #1f78b4"/>
     <use xlink:href="#m427278c8fc" x="131.16996" y="57.45087" style="fill: #1f78b4; stroke: #1f78b4"/>
     <use xlink:href="#m427278c8fc" x="155.043153" y="102.86386" style="fill: #1f78b4; stroke: #1f78b4"/>
     <use xlink:href="#m427278c8fc" x="258.403555" y="315.609917" style="fill: #1f78b4; stroke: #1f78b4"/>
     <use xlink:href="#m427278c8fc" x="239.590875" y="282.582131" style="fill: #1f78b4; stroke: #1f78b4"/>
     <use xlink:href="#m427278c8fc" x="39.986777" y="100.782919" style="fill: #1f78b4; stroke: #1f78b4"/>
     <use xlink:href="#m427278c8fc" x="100.978722" y="118.134923" style="fill: #1f78b4; stroke: #1f78b4"/>
     <use xlink:href="#m427278c8fc" x="218.681139" y="128.720507" style="fill: #1f78b4; stroke: #1f78b4"/>
     <use xlink:href="#m427278c8fc" x="170.882723" y="154.878967" style="fill: #1f78b4; stroke: #1f78b4"/>
     <use xlink:href="#m427278c8fc" x="255.248682" y="190.704667" style="fill: #1f78b4; stroke: #1f78b4"/>
     <use xlink:href="#m427278c8fc" x="353.944254" y="234.820349" style="fill: #1f78b4; stroke: #1f78b4"/>
     <use xlink:href="#m427278c8fc" x="397.814447" y="274.925881" style="fill: #1f78b4; stroke: #1f78b4"/>
     <use xlink:href="#m427278c8fc" x="319.247877" y="286.066449" style="fill: #1f78b4; stroke: #1f78b4"/>
    </g>
   </g>
   <g id="text_1">
    <g clip-path="url(#pecb3503a25)">
     <!-- 0 -->
     <g transform="translate(337.663579 150.342622) scale(0.1 -0.1)">
      <defs>
       <path id="DejaVuSans-30" d="M 2034 4250 
Q 1547 4250 1301 3770 
Q 1056 3291 1056 2328 
Q 1056 1369 1301 889 
Q 1547 409 2034 409 
Q 2525 409 2770 889 
Q 3016 1369 3016 2328 
Q 3016 3291 2770 3770 
Q 2525 4250 2034 4250 
z
M 2034 4750 
Q 2819 4750 3233 4129 
Q 3647 3509 3647 2328 
Q 3647 1150 3233 529 
Q 2819 -91 2034 -91 
Q 1250 -91 836 529 
Q 422 1150 422 2328 
Q 422 3509 836 4129 
Q 1250 4750 2034 4750 
z
" transform="scale(0.015625)"/>
      </defs>
      <use xlink:href="#DejaVuSans-30"/>
     </g>
    </g>
   </g>
   <g id="text_2">
    <g clip-path="url(#pecb3503a25)">
     <!-- 1 -->
     <g transform="translate(417.631973 140.937505) scale(0.1 -0.1)">
      <defs>
       <path id="DejaVuSans-31" d="M 794 531 
L 1825 531 
L 1825 4091 
L 703 3866 
L 703 4441 
L 1819 4666 
L 2450 4666 
L 2450 531 
L 3481 531 
L 3481 0 
L 794 0 
L 794 531 
z
" transform="scale(0.015625)"/>
      </defs>
      <use xlink:href="#DejaVuSans-31"/>
     </g>
    </g>
   </g>
   <g id="text_3">
    <g clip-path="url(#pecb3503a25)">
     <!-- 2 -->
     <g transform="translate(290.836052 239.819653) scale(0.1 -0.1)">
      <defs>
       <path id="DejaVuSans-32" d="M 1228 531 
L 3431 531 
L 3431 0 
L 469 0 
L 469 531 
Q 828 903 1448 1529 
Q 2069 2156 2228 2338 
Q 2531 2678 2651 2914 
Q 2772 3150 2772 3378 
Q 2772 3750 2511 3984 
Q 2250 4219 1831 4219 
Q 1534 4219 1204 4116 
Q 875 4013 500 3803 
L 500 4441 
Q 881 4594 1212 4672 
Q 1544 4750 1819 4750 
Q 2544 4750 2975 4387 
Q 3406 4025 3406 3419 
Q 3406 3131 3298 2873 
Q 3191 2616 2906 2266 
Q 2828 2175 2409 1742 
Q 1991 1309 1228 531 
z
" transform="scale(0.015625)"/>
      </defs>
      <use xlink:href="#DejaVuSans-32"/>
     </g>
    </g>
   </g>
   <g id="text_4">
    <g clip-path="url(#pecb3503a25)">
     <!-- 3 -->
     <g transform="translate(371.964107 186.706117) scale(0.1 -0.1)">
      <defs>
       <path id="DejaVuSans-33" d="M 2597 2516 
Q 3050 2419 3304 2112 
Q 3559 1806 3559 1356 
Q 3559 666 3084 287 
Q 2609 -91 1734 -91 
Q 1441 -91 1130 -33 
Q 819 25 488 141 
L 488 750 
Q 750 597 1062 519 
Q 1375 441 1716 441 
Q 2309 441 2620 675 
Q 2931 909 2931 1356 
Q 2931 1769 2642 2001 
Q 2353 2234 1838 2234 
L 1294 2234 
L 1294 2753 
L 1863 2753 
Q 2328 2753 2575 2939 
Q 2822 3125 2822 3475 
Q 2822 3834 2567 4026 
Q 2313 4219 1838 4219 
Q 1578 4219 1281 4162 
Q 984 4106 628 3988 
L 628 4550 
Q 988 4650 1302 4700 
Q 1616 4750 1894 4750 
Q 2613 4750 3031 4423 
Q 3450 4097 3450 3541 
Q 3450 3153 3228 2886 
Q 3006 2619 2597 2516 
z
" transform="scale(0.015625)"/>
      </defs>
      <use xlink:href="#DejaVuSans-33"/>
     </g>
    </g>
   </g>
   <g id="text_5">
    <g clip-path="url(#pecb3503a25)">
     <!-- 4 -->
     <g transform="translate(393.07668 96.486662) scale(0.1 -0.1)">
      <defs>
       <path id="DejaVuSans-34" d="M 2419 4116 
L 825 1625 
L 2419 1625 
L 2419 4116 
z
M 2253 4666 
L 3047 4666 
L 3047 1625 
L 3713 1625 
L 3713 1100 
L 3047 1100 
L 3047 0 
L 2419 0 
L 2419 1100 
L 313 1100 
L 313 1709 
L 2253 4666 
z
" transform="scale(0.015625)"/>
      </defs>
      <use xlink:href="#DejaVuSans-34"/>
     </g>
    </g>
   </g>
   <g id="text_6">
    <g clip-path="url(#pecb3503a25)">
     <!-- 5 -->
     <g transform="translate(152.461133 32.749458) scale(0.1 -0.1)">
      <defs>
       <path id="DejaVuSans-35" d="M 691 4666 
L 3169 4666 
L 3169 4134 
L 1269 4134 
L 1269 2991 
Q 1406 3038 1543 3061 
Q 1681 3084 1819 3084 
Q 2600 3084 3056 2656 
Q 3513 2228 3513 1497 
Q 3513 744 3044 326 
Q 2575 -91 1722 -91 
Q 1428 -91 1123 -41 
Q 819 9 494 109 
L 494 744 
Q 775 591 1075 516 
Q 1375 441 1709 441 
Q 2250 441 2565 725 
Q 2881 1009 2881 1497 
Q 2881 1984 2565 2268 
Q 2250 2553 1709 2553 
Q 1456 2553 1204 2497 
Q 953 2441 691 2322 
L 691 4666 
z
" transform="scale(0.015625)"/>
      </defs>
      <use xlink:href="#DejaVuSans-35"/>
     </g>
    </g>
   </g>
   <g id="text_7">
    <g clip-path="url(#pecb3503a25)">
     <!-- 6 -->
     <g transform="translate(195.46275 73.377991) scale(0.1 -0.1)">
      <defs>
       <path id="DejaVuSans-36" d="M 2113 2584 
Q 1688 2584 1439 2293 
Q 1191 2003 1191 1497 
Q 1191 994 1439 701 
Q 1688 409 2113 409 
Q 2538 409 2786 701 
Q 3034 994 3034 1497 
Q 3034 2003 2786 2293 
Q 2538 2584 2113 2584 
z
M 3366 4563 
L 3366 3988 
Q 3128 4100 2886 4159 
Q 2644 4219 2406 4219 
Q 1781 4219 1451 3797 
Q 1122 3375 1075 2522 
Q 1259 2794 1537 2939 
Q 1816 3084 2150 3084 
Q 2853 3084 3261 2657 
Q 3669 2231 3669 1497 
Q 3669 778 3244 343 
Q 2819 -91 2113 -91 
Q 1303 -91 875 529 
Q 447 1150 447 2328 
Q 447 3434 972 4092 
Q 1497 4750 2381 4750 
Q 2619 4750 2861 4703 
Q 3103 4656 3366 4563 
z
" transform="scale(0.015625)"/>
      </defs>
      <use xlink:href="#DejaVuSans-36"/>
     </g>
    </g>
   </g>
   <g id="text_8">
    <g clip-path="url(#pecb3503a25)">
     <!-- 7 -->
     <g transform="translate(274.202137 83.281949) scale(0.1 -0.1)">
      <defs>
       <path id="DejaVuSans-37" d="M 525 4666 
L 3525 4666 
L 3525 4397 
L 1831 0 
L 1172 0 
L 2766 4134 
L 525 4134 
L 525 4666 
z
" transform="scale(0.015625)"/>
      </defs>
      <use xlink:href="#DejaVuSans-37"/>
     </g>
    </g>
   </g>
   <g id="text_9">
    <g clip-path="url(#pecb3503a25)">
     <!-- 8 -->
     <g transform="translate(127.98871 60.210245) scale(0.1 -0.1)">
      <defs>
       <path id="DejaVuSans-38" d="M 2034 2216 
Q 1584 2216 1326 1975 
Q 1069 1734 1069 1313 
Q 1069 891 1326 650 
Q 1584 409 2034 409 
Q 2484 409 2743 651 
Q 3003 894 3003 1313 
Q 3003 1734 2745 1975 
Q 2488 2216 2034 2216 
z
M 1403 2484 
Q 997 2584 770 2862 
Q 544 3141 544 3541 
Q 544 4100 942 4425 
Q 1341 4750 2034 4750 
Q 2731 4750 3128 4425 
Q 3525 4100 3525 3541 
Q 3525 3141 3298 2862 
Q 3072 2584 2669 2484 
Q 3125 2378 3379 2068 
Q 3634 1759 3634 1313 
Q 3634 634 3220 271 
Q 2806 -91 2034 -91 
Q 1263 -91 848 271 
Q 434 634 434 1313 
Q 434 1759 690 2068 
Q 947 2378 1403 2484 
z
M 1172 3481 
Q 1172 3119 1398 2916 
Q 1625 2713 2034 2713 
Q 2441 2713 2670 2916 
Q 2900 3119 2900 3481 
Q 2900 3844 2670 4047 
Q 2441 4250 2034 4250 
Q 1625 4250 1398 4047 
Q 1172 3844 1172 3481 
z
" transform="scale(0.015625)"/>
      </defs>
      <use xlink:href="#DejaVuSans-38"/>
     </g>
    </g>
   </g>
   <g id="text_10">
    <g clip-path="url(#pecb3503a25)">
     <!-- 9 -->
     <g transform="translate(151.861903 105.623235) scale(0.1 -0.1)">
      <defs>
       <path id="DejaVuSans-39" d="M 703 97 
L 703 672 
Q 941 559 1184 500 
Q 1428 441 1663 441 
Q 2288 441 2617 861 
Q 2947 1281 2994 2138 
Q 2813 1869 2534 1725 
Q 2256 1581 1919 1581 
Q 1219 1581 811 2004 
Q 403 2428 403 3163 
Q 403 3881 828 4315 
Q 1253 4750 1959 4750 
Q 2769 4750 3195 4129 
Q 3622 3509 3622 2328 
Q 3622 1225 3098 567 
Q 2575 -91 1691 -91 
Q 1453 -91 1209 -44 
Q 966 3 703 97 
z
M 1959 2075 
Q 2384 2075 2632 2365 
Q 2881 2656 2881 3163 
Q 2881 3666 2632 3958 
Q 2384 4250 1959 4250 
Q 1534 4250 1286 3958 
Q 1038 3666 1038 3163 
Q 1038 2656 1286 2365 
Q 1534 2075 1959 2075 
z
" transform="scale(0.015625)"/>
      </defs>
      <use xlink:href="#DejaVuSans-39"/>
     </g>
    </g>
   </g>
   <g id="text_11">
    <g clip-path="url(#pecb3503a25)">
     <!-- 10 -->
     <g transform="translate(252.041055 318.369292) scale(0.1 -0.1)">
      <use xlink:href="#DejaVuSans-31"/>
      <use xlink:href="#DejaVuSans-30" x="63.623047"/>
     </g>
    </g>
   </g>
   <g id="text_12">
    <g clip-path="url(#pecb3503a25)">
     <!-- 11 -->
     <g transform="translate(233.228375 285.341506) scale(0.1 -0.1)">
      <use xlink:href="#DejaVuSans-31"/>
      <use xlink:href="#DejaVuSans-31" x="63.623047"/>
     </g>
    </g>
   </g>
   <g id="text_13">
    <g clip-path="url(#pecb3503a25)">
     <!-- 12 -->
     <g transform="translate(33.624277 103.542294) scale(0.1 -0.1)">
      <use xlink:href="#DejaVuSans-31"/>
      <use xlink:href="#DejaVuSans-32" x="63.623047"/>
     </g>
    </g>
   </g>
   <g id="text_14">
    <g clip-path="url(#pecb3503a25)">
     <!-- 13 -->
     <g transform="translate(94.616222 120.894298) scale(0.1 -0.1)">
      <use xlink:href="#DejaVuSans-31"/>
      <use xlink:href="#DejaVuSans-33" x="63.623047"/>
     </g>
    </g>
   </g>
   <g id="text_15">
    <g clip-path="url(#pecb3503a25)">
     <!-- 14 -->
     <g transform="translate(212.318639 131.479882) scale(0.1 -0.1)">
      <use xlink:href="#DejaVuSans-31"/>
      <use xlink:href="#DejaVuSans-34" x="63.623047"/>
     </g>
    </g>
   </g>
   <g id="text_16">
    <g clip-path="url(#pecb3503a25)">
     <!-- 15 -->
     <g transform="translate(164.520223 157.638342) scale(0.1 -0.1)">
      <use xlink:href="#DejaVuSans-31"/>
      <use xlink:href="#DejaVuSans-35" x="63.623047"/>
     </g>
    </g>
   </g>
   <g id="text_17">
    <g clip-path="url(#pecb3503a25)">
     <!-- 16 -->
     <g transform="translate(248.886182 193.464042) scale(0.1 -0.1)">
      <use xlink:href="#DejaVuSans-31"/>
      <use xlink:href="#DejaVuSans-36" x="63.623047"/>
     </g>
    </g>
   </g>
   <g id="text_18">
    <g clip-path="url(#pecb3503a25)">
     <!-- 17 -->
     <g transform="translate(347.581754 237.579724) scale(0.1 -0.1)">
      <use xlink:href="#DejaVuSans-31"/>
      <use xlink:href="#DejaVuSans-37" x="63.623047"/>
     </g>
    </g>
   </g>
   <g id="text_19">
    <g clip-path="url(#pecb3503a25)">
     <!-- 18 -->
     <g transform="translate(391.451947 277.685256) scale(0.1 -0.1)">
      <use xlink:href="#DejaVuSans-31"/>
      <use xlink:href="#DejaVuSans-38" x="63.623047"/>
     </g>
    </g>
   </g>
   <g id="text_20">
    <g clip-path="url(#pecb3503a25)">
     <!-- 19 -->
     <g transform="translate(312.885377 288.825824) scale(0.1 -0.1)">
      <use xlink:href="#DejaVuSans-31"/>
      <use xlink:href="#DejaVuSans-39" x="63.623047"/>
     </g>
    </g>
   </g>
  </g>
 </g>
 <defs>
  <clipPath id="pecb3503a25">
   <rect x="0" y="0" width="460.8" height="345.6"/>
  </clipPath>
 </defs>
</svg>
