<?xml version="1.0" encoding="utf-8" standalone="no"?>
<!DOCTYPE svg PUBLIC "-//W3C//DTD SVG 1.1//EN"
  "http://www.w3.org/Graphics/SVG/1.1/DTD/svg11.dtd">
<svg xmlns:xlink="http://www.w3.org/1999/xlink" width="460.8pt" height="345.6pt" viewBox="0 0 460.8 345.6" xmlns="http://www.w3.org/2000/svg" version="1.1">
 <metadata>
  <rdf:RDF xmlns:dc="http://purl.org/dc/elements/1.1/" xmlns:cc="http://creativecommons.org/ns#" xmlns:rdf="http://www.w3.org/1999/02/22-rdf-syntax-ns#">
   <cc:Work>
    <dc:type rdf:resource="http://purl.org/dc/dcmitype/StillImage"/>
    <dc:date>2023-10-23T10:42:30.027831</dc:date>
    <dc:format>image/svg+xml</dc:format>
    <dc:creator>
     <cc:Agent>
      <dc:title>Matplotlib v3.6.1, https://matplotlib.org/</dc:title>
     </cc:Agent>
    </dc:creator>
   </cc:Work>
  </rdf:RDF>
 </metadata>
 <defs>
  <style type="text/css">*{stroke-linejoin: round; stroke-linecap: butt}</style>
 </defs>
 <g id="figure_1">
  <g id="patch_1">
   <path d="M 0 345.6 
L 460.8 345.6 
L 460.8 0 
L 0 0 
z
" style="fill: #ffffff"/>
  </g>
  <g id="axes_1">
   <g id="patch_2">
    <path d="M 228.302649 181.823539 
Q 280.440065 174.442486 331.470486 167.218149 
" clip-path="url(#p0c83e8d1cd)" style="fill: none; stroke: #000000; stroke-linecap: round"/>
    <path d="M 327.229634 165.798581 
L 331.470486 167.218149 
L 327.79032 169.75909 
L 327.229634 165.798581 
z
" clip-path="url(#p0c83e8d1cd)" style="stroke: #000000; stroke-linecap: round"/>
   </g>
   <g id="patch_3">
    <path d="M 224.950052 183.395742 
Q 206.683413 199.945578 189.245319 215.744739 
" clip-path="url(#p0c83e8d1cd)" style="fill: none; stroke: #000000; stroke-linecap: round"/>
    <path d="M 193.552461 214.541192 
L 189.245319 215.744739 
L 190.866767 211.576897 
L 193.552461 214.541192 
z
" clip-path="url(#p0c83e8d1cd)" style="stroke: #000000; stroke-linecap: round"/>
   </g>
   <g id="patch_4">
    <path d="M 421.024417 184.402685 
Q 423.155501 171.945897 425.098054 160.591133 
" clip-path="url(#p0c83e8d1cd)" style="fill: none; stroke: #000000; stroke-linecap: round"/>
    <path d="M 422.452181 164.196595 
L 425.098054 160.591133 
L 426.3949 164.871108 
L 422.452181 164.196595 
z
" clip-path="url(#p0c83e8d1cd)" style="stroke: #000000; stroke-linecap: round"/>
   </g>
   <g id="patch_5">
    <path d="M 419.056484 187.349196 
Q 390.624363 205.280792 363.137911 222.615972 
" clip-path="url(#p0c83e8d1cd)" style="fill: none; stroke: #000000; stroke-linecap: round"/>
    <path d="M 367.588137 222.173836 
L 363.137911 222.615972 
L 365.454338 218.790509 
L 367.588137 222.173836 
z
" clip-path="url(#p0c83e8d1cd)" style="stroke: #000000; stroke-linecap: round"/>
   </g>
   <g id="patch_6">
    <path d="M 425.286115 159.491866 
Q 423.15503 171.948654 421.212477 183.303418 
" clip-path="url(#p0c83e8d1cd)" style="fill: none; stroke: #000000; stroke-linecap: round"/>
    <path d="M 423.85835 179.697956 
L 421.212477 183.303418 
L 419.915631 179.023443 
L 423.85835 179.697956 
z
" clip-path="url(#p0c83e8d1cd)" style="stroke: #000000; stroke-linecap: round"/>
   </g>
   <g id="patch_7">
    <path d="M 423.686076 157.775017 
Q 380.051609 162.185399 337.52951 166.483349 
" clip-path="url(#p0c83e8d1cd)" style="fill: none; stroke: #000000; stroke-linecap: round"/>
    <path d="M 341.710359 168.070957 
L 337.52951 166.483349 
L 341.308106 164.091234 
L 341.710359 168.070957 
z
" clip-path="url(#p0c83e8d1cd)" style="stroke: #000000; stroke-linecap: round"/>
   </g>
   <g id="patch_8">
    <path d="M 332.575902 167.061657 
Q 280.438486 174.44271 229.408065 181.667046 
" clip-path="url(#p0c83e8d1cd)" style="fill: none; stroke: #000000; stroke-linecap: round"/>
    <path d="M 233.648917 183.086615 
L 229.408065 181.667046 
L 233.088231 179.126106 
L 233.648917 183.086615 
z
" clip-path="url(#p0c83e8d1cd)" style="stroke: #000000; stroke-linecap: round"/>
   </g>
   <g id="patch_9">
    <path d="M 336.419791 166.595514 
Q 380.054257 162.185132 422.576357 157.887182 
" clip-path="url(#p0c83e8d1cd)" style="fill: none; stroke: #000000; stroke-linecap: round"/>
    <path d="M 418.395508 156.299574 
L 422.576357 157.887182 
L 418.797761 160.279297 
L 418.395508 156.299574 
z
" clip-path="url(#p0c83e8d1cd)" style="stroke: #000000; stroke-linecap: round"/>
   </g>
   <g id="patch_10">
    <path d="M 270.355101 218.935517 
Q 229.636832 218.378524 190.036492 217.836823 
" clip-path="url(#p0c83e8d1cd)" style="fill: none; stroke: #000000; stroke-linecap: round"/>
    <path d="M 194.008762 219.891348 
L 190.036492 217.836823 
L 194.063474 215.891722 
L 194.008762 219.891348 
z
" clip-path="url(#p0c83e8d1cd)" style="stroke: #000000; stroke-linecap: round"/>
   </g>
   <g id="patch_11">
    <path d="M 270.355101 218.935517 
Q 229.636832 218.378524 190.036492 217.836823 
" clip-path="url(#p0c83e8d1cd)" style="fill: none; stroke: #000000; stroke-linecap: round"/>
    <path d="M 194.008762 219.891348 
L 190.036492 217.836823 
L 194.063474 215.891722 
L 194.008762 219.891348 
z
" clip-path="url(#p0c83e8d1cd)" style="stroke: #000000; stroke-linecap: round"/>
   </g>
   <g id="patch_12">
    <path d="M 274.220712 219.077598 
Q 316.421387 221.60402 357.506025 224.063629 
" clip-path="url(#p0c83e8d1cd)" style="fill: none; stroke: #000000; stroke-linecap: round"/>
    <path d="M 353.632694 221.828164 
L 357.506025 224.063629 
L 353.393654 225.821015 
L 353.632694 221.828164 
z
" clip-path="url(#p0c83e8d1cd)" style="stroke: #000000; stroke-linecap: round"/>
   </g>
   <g id="patch_13">
    <path d="M 274.220712 219.077598 
Q 316.421387 221.60402 357.506025 224.063629 
" clip-path="url(#p0c83e8d1cd)" style="fill: none; stroke: #000000; stroke-linecap: round"/>
    <path d="M 353.632694 221.828164 
L 357.506025 224.063629 
L 353.393654 225.821015 
L 353.632694 221.828164 
z
" clip-path="url(#p0c83e8d1cd)" style="stroke: #000000; stroke-linecap: round"/>
   </g>
   <g id="patch_14">
    <path d="M 362.194161 223.211177 
Q 390.626282 205.279581 418.112734 187.944401 
" clip-path="url(#p0c83e8d1cd)" style="fill: none; stroke: #000000; stroke-linecap: round"/>
    <path d="M 413.662508 188.386537 
L 418.112734 187.944401 
L 415.796307 191.769863 
L 413.662508 188.386537 
z
" clip-path="url(#p0c83e8d1cd)" style="stroke: #000000; stroke-linecap: round"/>
   </g>
   <g id="patch_15">
    <path d="M 358.621956 224.130436 
Q 316.421282 221.604014 275.336644 219.144405 
" clip-path="url(#p0c83e8d1cd)" style="fill: none; stroke: #000000; stroke-linecap: round"/>
    <path d="M 279.209975 221.37987 
L 275.336644 219.144405 
L 279.449014 217.387019 
L 279.209975 221.37987 
z
" clip-path="url(#p0c83e8d1cd)" style="stroke: #000000; stroke-linecap: round"/>
   </g>
   <g id="patch_16">
    <path d="M 358.621956 224.130436 
Q 316.421282 221.604014 275.336644 219.144405 
" clip-path="url(#p0c83e8d1cd)" style="fill: none; stroke: #000000; stroke-linecap: round"/>
    <path d="M 279.209975 221.37987 
L 275.336644 219.144405 
L 279.449014 217.387019 
L 279.209975 221.37987 
z
" clip-path="url(#p0c83e8d1cd)" style="stroke: #000000; stroke-linecap: round"/>
   </g>
   <g id="patch_17">
    <path d="M 360.198757 226.147185 
Q 356.386882 246.589097 352.779959 265.931919 
" clip-path="url(#p0c83e8d1cd)" style="fill: none; stroke: #000000; stroke-linecap: round"/>
    <path d="M 355.479322 262.366329 
L 352.779959 265.931919 
L 351.547104 261.633074 
L 355.479322 262.366329 
z
" clip-path="url(#p0c83e8d1cd)" style="stroke: #000000; stroke-linecap: round"/>
   </g>
   <g id="patch_18">
    <path d="M 385.511314 297.446923 
Q 349.26176 294.323806 314.126115 291.296659 
" clip-path="url(#p0c83e8d1cd)" style="fill: none; stroke: #000000; stroke-linecap: round"/>
    <path d="M 317.939675 293.63263 
L 314.126115 291.296659 
L 318.283027 289.647393 
L 317.939675 293.63263 
z
" clip-path="url(#p0c83e8d1cd)" style="stroke: #000000; stroke-linecap: round"/>
   </g>
   <g id="patch_19">
    <path d="M 385.511314 297.446923 
Q 349.26176 294.323806 314.126115 291.296659 
" clip-path="url(#p0c83e8d1cd)" style="fill: none; stroke: #000000; stroke-linecap: round"/>
    <path d="M 317.939675 293.63263 
L 314.126115 291.296659 
L 318.283027 289.647393 
L 317.939675 293.63263 
z
" clip-path="url(#p0c83e8d1cd)" style="stroke: #000000; stroke-linecap: round"/>
   </g>
   <g id="patch_20">
    <path d="M 313.00621 291.200173 
Q 349.255764 294.32329 384.391409 297.350437 
" clip-path="url(#p0c83e8d1cd)" style="fill: none; stroke: #000000; stroke-linecap: round"/>
    <path d="M 380.577849 295.014466 
L 384.391409 297.350437 
L 380.234497 298.999703 
L 380.577849 295.014466 
z
" clip-path="url(#p0c83e8d1cd)" style="stroke: #000000; stroke-linecap: round"/>
   </g>
   <g id="patch_21">
    <path d="M 313.00621 291.200173 
Q 349.255764 294.32329 384.391409 297.350437 
" clip-path="url(#p0c83e8d1cd)" style="fill: none; stroke: #000000; stroke-linecap: round"/>
    <path d="M 380.577849 295.014466 
L 384.391409 297.350437 
L 380.234497 298.999703 
L 380.577849 295.014466 
z
" clip-path="url(#p0c83e8d1cd)" style="stroke: #000000; stroke-linecap: round"/>
   </g>
   <g id="patch_22">
    <path d="M 312.7864 290.11848 
Q 331.649975 279.985004 349.528634 270.380622 
" clip-path="url(#p0c83e8d1cd)" style="fill: none; stroke: #000000; stroke-linecap: round"/>
    <path d="M 345.058419 270.511699 
L 349.528634 270.380622 
L 346.951366 274.03544 
L 345.058419 270.511699 
z
" clip-path="url(#p0c83e8d1cd)" style="stroke: #000000; stroke-linecap: round"/>
   </g>
   <g id="patch_23">
    <path d="M 309.143682 291.049757 
Q 250.374615 291.517064 192.723546 291.975482 
" clip-path="url(#p0c83e8d1cd)" style="fill: none; stroke: #000000; stroke-linecap: round"/>
    <path d="M 196.739322 293.943614 
L 192.723546 291.975482 
L 196.707517 289.94374 
L 196.739322 293.943614 
z
" clip-path="url(#p0c83e8d1cd)" style="stroke: #000000; stroke-linecap: round"/>
   </g>
   <g id="patch_24">
    <path d="M 352.574506 267.0337 
Q 356.38638 246.591789 359.993304 227.248967 
" clip-path="url(#p0c83e8d1cd)" style="fill: none; stroke: #000000; stroke-linecap: round"/>
    <path d="M 357.293941 230.814557 
L 359.993304 227.248967 
L 361.226159 231.547812 
L 357.293941 230.814557 
z
" clip-path="url(#p0c83e8d1cd)" style="stroke: #000000; stroke-linecap: round"/>
   </g>
   <g id="patch_25">
    <path d="M 350.515099 269.850695 
Q 331.651524 279.984172 313.772864 289.588553 
" clip-path="url(#p0c83e8d1cd)" style="fill: none; stroke: #000000; stroke-linecap: round"/>
    <path d="M 318.243079 289.457477 
L 313.772864 289.588553 
L 316.350132 285.933736 
L 318.243079 289.457477 
z
" clip-path="url(#p0c83e8d1cd)" style="stroke: #000000; stroke-linecap: round"/>
   </g>
   <g id="patch_26">
    <path d="M 350.931611 270.382103 
Q 334.239876 289.132351 318.291541 307.047519 
" clip-path="url(#p0c83e8d1cd)" style="fill: none; stroke: #000000; stroke-linecap: round"/>
    <path d="M 322.445042 305.389682 
L 318.291541 307.047519 
L 319.457372 302.730015 
L 322.445042 305.389682 
z
" clip-path="url(#p0c83e8d1cd)" style="stroke: #000000; stroke-linecap: round"/>
   </g>
   <g id="patch_27">
    <path d="M 317.547744 307.883045 
Q 334.239479 289.132797 350.187815 271.217628 
" clip-path="url(#p0c83e8d1cd)" style="fill: none; stroke: #000000; stroke-linecap: round"/>
    <path d="M 346.034313 272.875466 
L 350.187815 271.217628 
L 349.021984 275.535132 
L 346.034313 272.875466 
z
" clip-path="url(#p0c83e8d1cd)" style="stroke: #000000; stroke-linecap: round"/>
   </g>
   <g id="patch_28">
    <path d="M 314.33963 309.578044 
Q 268.386725 315.507876 223.54266 321.294622 
" clip-path="url(#p0c83e8d1cd)" style="fill: none; stroke: #000000; stroke-linecap: round"/>
    <path d="M 227.765728 322.766254 
L 223.54266 321.294622 
L 227.253806 318.799147 
L 227.765728 322.766254 
z
" clip-path="url(#p0c83e8d1cd)" style="stroke: #000000; stroke-linecap: round"/>
   </g>
   <g id="patch_29">
    <path d="M 222.432223 321.437914 
Q 268.385129 315.508082 313.229194 309.721337 
" clip-path="url(#p0c83e8d1cd)" style="fill: none; stroke: #000000; stroke-linecap: round"/>
    <path d="M 309.006126 308.249705 
L 313.229194 309.721337 
L 309.518047 312.216812 
L 309.006126 308.249705 
z
" clip-path="url(#p0c83e8d1cd)" style="stroke: #000000; stroke-linecap: round"/>
   </g>
   <g id="patch_30">
    <path d="M 219.117556 320.343035 
Q 205.092698 306.844346 191.873375 294.120971 
" clip-path="url(#p0c83e8d1cd)" style="fill: none; stroke: #000000; stroke-linecap: round"/>
    <path d="M 193.368423 298.335806 
L 191.873375 294.120971 
L 196.142272 295.453834 
L 193.368423 298.335806 
z
" clip-path="url(#p0c83e8d1cd)" style="stroke: #000000; stroke-linecap: round"/>
   </g>
   <g id="patch_31">
    <path d="M 191.607308 291.984358 
Q 250.376375 291.51705 308.027444 291.058632 
" clip-path="url(#p0c83e8d1cd)" style="fill: none; stroke: #000000; stroke-linecap: round"/>
    <path d="M 304.011668 289.090501 
L 308.027444 291.058632 
L 304.043473 293.090375 
L 304.011668 289.090501 
z
" clip-path="url(#p0c83e8d1cd)" style="stroke: #000000; stroke-linecap: round"/>
   </g>
   <g id="patch_32">
    <path d="M 191.064426 293.342371 
Q 205.089284 306.84106 218.308607 319.564435 
" clip-path="url(#p0c83e8d1cd)" style="fill: none; stroke: #000000; stroke-linecap: round"/>
    <path d="M 216.81356 315.3496 
L 218.308607 319.564435 
L 214.03971 318.231571 
L 216.81356 315.3496 
z
" clip-path="url(#p0c83e8d1cd)" style="stroke: #000000; stroke-linecap: round"/>
   </g>
   <g id="patch_33">
    <path d="M 188.109037 290.848675 
Q 165.225595 273.968331 143.241878 257.751685 
" clip-path="url(#p0c83e8d1cd)" style="fill: none; stroke: #000000; stroke-linecap: round"/>
    <path d="M 145.273576 261.735678 
L 143.241878 257.751685 
L 147.648091 258.516722 
L 145.273576 261.735678 
z
" clip-path="url(#p0c83e8d1cd)" style="stroke: #000000; stroke-linecap: round"/>
   </g>
   <g id="patch_34">
    <path d="M 142.345749 257.090641 
Q 165.229192 273.970985 187.212908 290.187631 
" clip-path="url(#p0c83e8d1cd)" style="fill: none; stroke: #000000; stroke-linecap: round"/>
    <path d="M 185.18121 286.203638 
L 187.212908 290.187631 
L 182.806695 289.422594 
L 185.18121 286.203638 
z
" clip-path="url(#p0c83e8d1cd)" style="stroke: #000000; stroke-linecap: round"/>
   </g>
   <g id="patch_35">
    <path d="M 142.276889 254.707955 
Q 163.883333 236.867691 184.627649 219.73928 
" clip-path="url(#p0c83e8d1cd)" style="fill: none; stroke: #000000; stroke-linecap: round"/>
    <path d="M 180.269803 220.743859 
L 184.627649 219.73928 
L 182.816604 223.828304 
L 180.269803 220.743859 
z
" clip-path="url(#p0c83e8d1cd)" style="stroke: #000000; stroke-linecap: round"/>
   </g>
   <g id="patch_36">
    <path d="M 188.418108 216.494203 
Q 206.684748 199.944368 224.122842 184.145207 
" clip-path="url(#p0c83e8d1cd)" style="fill: none; stroke: #000000; stroke-linecap: round"/>
    <path d="M 219.815699 185.348753 
L 224.122842 184.145207 
L 222.501393 188.313049 
L 219.815699 185.348753 
z
" clip-path="url(#p0c83e8d1cd)" style="stroke: #000000; stroke-linecap: round"/>
   </g>
   <g id="patch_37">
    <path d="M 188.916624 217.821504 
Q 229.634893 218.378497 269.235233 218.920198 
" clip-path="url(#p0c83e8d1cd)" style="fill: none; stroke: #000000; stroke-linecap: round"/>
    <path d="M 265.262963 216.865673 
L 269.235233 218.920198 
L 265.208251 220.865299 
L 265.262963 216.865673 
z
" clip-path="url(#p0c83e8d1cd)" style="stroke: #000000; stroke-linecap: round"/>
   </g>
   <g id="patch_38">
    <path d="M 188.916624 217.821504 
Q 229.634893 218.378497 269.235233 218.920198 
" clip-path="url(#p0c83e8d1cd)" style="fill: none; stroke: #000000; stroke-linecap: round"/>
    <path d="M 265.262963 216.865673 
L 269.235233 218.920198 
L 265.208251 220.865299 
L 265.262963 216.865673 
z
" clip-path="url(#p0c83e8d1cd)" style="stroke: #000000; stroke-linecap: round"/>
   </g>
   <g id="patch_39">
    <path d="M 185.490732 219.026639 
Q 163.884288 236.866903 143.139973 253.995313 
" clip-path="url(#p0c83e8d1cd)" style="fill: none; stroke: #000000; stroke-linecap: round"/>
    <path d="M 147.497819 252.990735 
L 143.139973 253.995313 
L 144.951018 249.906289 
L 147.497819 252.990735 
z
" clip-path="url(#p0c83e8d1cd)" style="stroke: #000000; stroke-linecap: round"/>
   </g>
   <g id="PathCollection_1">
    <defs>
     <path id="m1aaa56b8ea" d="M 0 1.936492 
C 0.513564 1.936492 1.006162 1.732451 1.369306 1.369306 
C 1.732451 1.006162 1.936492 0.513564 1.936492 0 
C 1.936492 -0.513564 1.732451 -1.006162 1.369306 -1.369306 
C 1.006162 -1.732451 0.513564 -1.936492 0 -1.936492 
C -0.513564 -1.936492 -1.006162 -1.732451 -1.369306 -1.369306 
C -1.732451 -1.006162 -1.936492 -0.513564 -1.936492 0 
C -1.936492 0.513564 -1.732451 1.006162 -1.369306 1.369306 
C -1.006162 1.732451 -0.513564 1.936492 0 1.936492 
z
" style="stroke: #1f78b4"/>
    </defs>
    <g clip-path="url(#p0c83e8d1cd)">
     <use xlink:href="#m1aaa56b8ea" x="226.385837" y="182.094901" style="fill: #1f78b4; stroke: #1f78b4"/>
     <use xlink:href="#m1aaa56b8ea" x="20.945455" y="15.709091" style="fill: #1f78b4; stroke: #1f78b4"/>
     <use xlink:href="#m1aaa56b8ea" x="420.697378" y="186.314315" style="fill: #1f78b4; stroke: #1f78b4"/>
     <use xlink:href="#m1aaa56b8ea" x="425.613153" y="157.580236" style="fill: #1f78b4; stroke: #1f78b4"/>
     <use xlink:href="#m1aaa56b8ea" x="334.492714" y="166.790295" style="fill: #1f78b4; stroke: #1f78b4"/>
     <use xlink:href="#m1aaa56b8ea" x="272.289402" y="218.961976" style="fill: #1f78b4; stroke: #1f78b4"/>
     <use xlink:href="#m1aaa56b8ea" x="360.553267" y="224.246058" style="fill: #1f78b4; stroke: #1f78b4"/>
     <use xlink:href="#m1aaa56b8ea" x="387.436022" y="297.612748" style="fill: #1f78b4; stroke: #1f78b4"/>
     <use xlink:href="#m1aaa56b8ea" x="311.081502" y="291.034348" style="fill: #1f78b4; stroke: #1f78b4"/>
     <use xlink:href="#m1aaa56b8ea" x="352.219996" y="268.934828" style="fill: #1f78b4; stroke: #1f78b4"/>
     <use xlink:href="#m1aaa56b8ea" x="316.25936" y="309.33032" style="fill: #1f78b4; stroke: #1f78b4"/>
     <use xlink:href="#m1aaa56b8ea" x="220.512494" y="321.685639" style="fill: #1f78b4; stroke: #1f78b4"/>
     <use xlink:href="#m1aaa56b8ea" x="189.669488" y="291.999767" style="fill: #1f78b4; stroke: #1f78b4"/>
     <use xlink:href="#m1aaa56b8ea" x="140.785298" y="255.939549" style="fill: #1f78b4; stroke: #1f78b4"/>
     <use xlink:href="#m1aaa56b8ea" x="186.982323" y="217.795045" style="fill: #1f78b4; stroke: #1f78b4"/>
    </g>
   </g>
   <g id="text_1">
    <g clip-path="url(#p0c83e8d1cd)">
     <!-- 0 -->
     <g transform="translate(223.204587 184.854276) scale(0.1 -0.1)">
      <defs>
       <path id="DejaVuSans-30" d="M 2034 4250 
Q 1547 4250 1301 3770 
Q 1056 3291 1056 2328 
Q 1056 1369 1301 889 
Q 1547 409 2034 409 
Q 2525 409 2770 889 
Q 3016 1369 3016 2328 
Q 3016 3291 2770 3770 
Q 2525 4250 2034 4250 
z
M 2034 4750 
Q 2819 4750 3233 4129 
Q 3647 3509 3647 2328 
Q 3647 1150 3233 529 
Q 2819 -91 2034 -91 
Q 1250 -91 836 529 
Q 422 1150 422 2328 
Q 422 3509 836 4129 
Q 1250 4750 2034 4750 
z
" transform="scale(0.015625)"/>
      </defs>
      <use xlink:href="#DejaVuSans-30"/>
     </g>
    </g>
   </g>
   <g id="text_2">
    <g clip-path="url(#p0c83e8d1cd)">
     <!-- 1 -->
     <g transform="translate(17.764205 18.468466) scale(0.1 -0.1)">
      <defs>
       <path id="DejaVuSans-31" d="M 794 531 
L 1825 531 
L 1825 4091 
L 703 3866 
L 703 4441 
L 1819 4666 
L 2450 4666 
L 2450 531 
L 3481 531 
L 3481 0 
L 794 0 
L 794 531 
z
" transform="scale(0.015625)"/>
      </defs>
      <use xlink:href="#DejaVuSans-31"/>
     </g>
    </g>
   </g>
   <g id="text_3">
    <g clip-path="url(#p0c83e8d1cd)">
     <!-- 2 -->
     <g transform="translate(417.516128 189.07369) scale(0.1 -0.1)">
      <defs>
       <path id="DejaVuSans-32" d="M 1228 531 
L 3431 531 
L 3431 0 
L 469 0 
L 469 531 
Q 828 903 1448 1529 
Q 2069 2156 2228 2338 
Q 2531 2678 2651 2914 
Q 2772 3150 2772 3378 
Q 2772 3750 2511 3984 
Q 2250 4219 1831 4219 
Q 1534 4219 1204 4116 
Q 875 4013 500 3803 
L 500 4441 
Q 881 4594 1212 4672 
Q 1544 4750 1819 4750 
Q 2544 4750 2975 4387 
Q 3406 4025 3406 3419 
Q 3406 3131 3298 2873 
Q 3191 2616 2906 2266 
Q 2828 2175 2409 1742 
Q 1991 1309 1228 531 
z
" transform="scale(0.015625)"/>
      </defs>
      <use xlink:href="#DejaVuSans-32"/>
     </g>
    </g>
   </g>
   <g id="text_4">
    <g clip-path="url(#p0c83e8d1cd)">
     <!-- 3 -->
     <g transform="translate(422.431903 160.339611) scale(0.1 -0.1)">
      <defs>
       <path id="DejaVuSans-33" d="M 2597 2516 
Q 3050 2419 3304 2112 
Q 3559 1806 3559 1356 
Q 3559 666 3084 287 
Q 2609 -91 1734 -91 
Q 1441 -91 1130 -33 
Q 819 25 488 141 
L 488 750 
Q 750 597 1062 519 
Q 1375 441 1716 441 
Q 2309 441 2620 675 
Q 2931 909 2931 1356 
Q 2931 1769 2642 2001 
Q 2353 2234 1838 2234 
L 1294 2234 
L 1294 2753 
L 1863 2753 
Q 2328 2753 2575 2939 
Q 2822 3125 2822 3475 
Q 2822 3834 2567 4026 
Q 2313 4219 1838 4219 
Q 1578 4219 1281 4162 
Q 984 4106 628 3988 
L 628 4550 
Q 988 4650 1302 4700 
Q 1616 4750 1894 4750 
Q 2613 4750 3031 4423 
Q 3450 4097 3450 3541 
Q 3450 3153 3228 2886 
Q 3006 2619 2597 2516 
z
" transform="scale(0.015625)"/>
      </defs>
      <use xlink:href="#DejaVuSans-33"/>
     </g>
    </g>
   </g>
   <g id="text_5">
    <g clip-path="url(#p0c83e8d1cd)">
     <!-- 4 -->
     <g transform="translate(331.311464 169.54967) scale(0.1 -0.1)">
      <defs>
       <path id="DejaVuSans-34" d="M 2419 4116 
L 825 1625 
L 2419 1625 
L 2419 4116 
z
M 2253 4666 
L 3047 4666 
L 3047 1625 
L 3713 1625 
L 3713 1100 
L 3047 1100 
L 3047 0 
L 2419 0 
L 2419 1100 
L 313 1100 
L 313 1709 
L 2253 4666 
z
" transform="scale(0.015625)"/>
      </defs>
      <use xlink:href="#DejaVuSans-34"/>
     </g>
    </g>
   </g>
   <g id="text_6">
    <g clip-path="url(#p0c83e8d1cd)">
     <!-- 5 -->
     <g transform="translate(269.108152 221.721351) scale(0.1 -0.1)">
      <defs>
       <path id="DejaVuSans-35" d="M 691 4666 
L 3169 4666 
L 3169 4134 
L 1269 4134 
L 1269 2991 
Q 1406 3038 1543 3061 
Q 1681 3084 1819 3084 
Q 2600 3084 3056 2656 
Q 3513 2228 3513 1497 
Q 3513 744 3044 326 
Q 2575 -91 1722 -91 
Q 1428 -91 1123 -41 
Q 819 9 494 109 
L 494 744 
Q 775 591 1075 516 
Q 1375 441 1709 441 
Q 2250 441 2565 725 
Q 2881 1009 2881 1497 
Q 2881 1984 2565 2268 
Q 2250 2553 1709 2553 
Q 1456 2553 1204 2497 
Q 953 2441 691 2322 
L 691 4666 
z
" transform="scale(0.015625)"/>
      </defs>
      <use xlink:href="#DejaVuSans-35"/>
     </g>
    </g>
   </g>
   <g id="text_7">
    <g clip-path="url(#p0c83e8d1cd)">
     <!-- 6 -->
     <g transform="translate(357.372017 227.005433) scale(0.1 -0.1)">
      <defs>
       <path id="DejaVuSans-36" d="M 2113 2584 
Q 1688 2584 1439 2293 
Q 1191 2003 1191 1497 
Q 1191 994 1439 701 
Q 1688 409 2113 409 
Q 2538 409 2786 701 
Q 3034 994 3034 1497 
Q 3034 2003 2786 2293 
Q 2538 2584 2113 2584 
z
M 3366 4563 
L 3366 3988 
Q 3128 4100 2886 4159 
Q 2644 4219 2406 4219 
Q 1781 4219 1451 3797 
Q 1122 3375 1075 2522 
Q 1259 2794 1537 2939 
Q 1816 3084 2150 3084 
Q 2853 3084 3261 2657 
Q 3669 2231 3669 1497 
Q 3669 778 3244 343 
Q 2819 -91 2113 -91 
Q 1303 -91 875 529 
Q 447 1150 447 2328 
Q 447 3434 972 4092 
Q 1497 4750 2381 4750 
Q 2619 4750 2861 4703 
Q 3103 4656 3366 4563 
z
" transform="scale(0.015625)"/>
      </defs>
      <use xlink:href="#DejaVuSans-36"/>
     </g>
    </g>
   </g>
   <g id="text_8">
    <g clip-path="url(#p0c83e8d1cd)">
     <!-- 7 -->
     <g transform="translate(384.254772 300.372123) scale(0.1 -0.1)">
      <defs>
       <path id="DejaVuSans-37" d="M 525 4666 
L 3525 4666 
L 3525 4397 
L 1831 0 
L 1172 0 
L 2766 4134 
L 525 4134 
L 525 4666 
z
" transform="scale(0.015625)"/>
      </defs>
      <use xlink:href="#DejaVuSans-37"/>
     </g>
    </g>
   </g>
   <g id="text_9">
    <g clip-path="url(#p0c83e8d1cd)">
     <!-- 8 -->
     <g transform="translate(307.900252 293.793723) scale(0.1 -0.1)">
      <defs>
       <path id="DejaVuSans-38" d="M 2034 2216 
Q 1584 2216 1326 1975 
Q 1069 1734 1069 1313 
Q 1069 891 1326 650 
Q 1584 409 2034 409 
Q 2484 409 2743 651 
Q 3003 894 3003 1313 
Q 3003 1734 2745 1975 
Q 2488 2216 2034 2216 
z
M 1403 2484 
Q 997 2584 770 2862 
Q 544 3141 544 3541 
Q 544 4100 942 4425 
Q 1341 4750 2034 4750 
Q 2731 4750 3128 4425 
Q 3525 4100 3525 3541 
Q 3525 3141 3298 2862 
Q 3072 2584 2669 2484 
Q 3125 2378 3379 2068 
Q 3634 1759 3634 1313 
Q 3634 634 3220 271 
Q 2806 -91 2034 -91 
Q 1263 -91 848 271 
Q 434 634 434 1313 
Q 434 1759 690 2068 
Q 947 2378 1403 2484 
z
M 1172 3481 
Q 1172 3119 1398 2916 
Q 1625 2713 2034 2713 
Q 2441 2713 2670 2916 
Q 2900 3119 2900 3481 
Q 2900 3844 2670 4047 
Q 2441 4250 2034 4250 
Q 1625 4250 1398 4047 
Q 1172 3844 1172 3481 
z
" transform="scale(0.015625)"/>
      </defs>
      <use xlink:href="#DejaVuSans-38"/>
     </g>
    </g>
   </g>
   <g id="text_10">
    <g clip-path="url(#p0c83e8d1cd)">
     <!-- 9 -->
     <g transform="translate(349.038746 271.694203) scale(0.1 -0.1)">
      <defs>
       <path id="DejaVuSans-39" d="M 703 97 
L 703 672 
Q 941 559 1184 500 
Q 1428 441 1663 441 
Q 2288 441 2617 861 
Q 2947 1281 2994 2138 
Q 2813 1869 2534 1725 
Q 2256 1581 1919 1581 
Q 1219 1581 811 2004 
Q 403 2428 403 3163 
Q 403 3881 828 4315 
Q 1253 4750 1959 4750 
Q 2769 4750 3195 4129 
Q 3622 3509 3622 2328 
Q 3622 1225 3098 567 
Q 2575 -91 1691 -91 
Q 1453 -91 1209 -44 
Q 966 3 703 97 
z
M 1959 2075 
Q 2384 2075 2632 2365 
Q 2881 2656 2881 3163 
Q 2881 3666 2632 3958 
Q 2384 4250 1959 4250 
Q 1534 4250 1286 3958 
Q 1038 3666 1038 3163 
Q 1038 2656 1286 2365 
Q 1534 2075 1959 2075 
z
" transform="scale(0.015625)"/>
      </defs>
      <use xlink:href="#DejaVuSans-39"/>
     </g>
    </g>
   </g>
   <g id="text_11">
    <g clip-path="url(#p0c83e8d1cd)">
     <!-- 10 -->
     <g transform="translate(309.89686 312.089695) scale(0.1 -0.1)">
      <use xlink:href="#DejaVuSans-31"/>
      <use xlink:href="#DejaVuSans-30" x="63.623047"/>
     </g>
    </g>
   </g>
   <g id="text_12">
    <g clip-path="url(#p0c83e8d1cd)">
     <!-- 11 -->
     <g transform="translate(214.149994 324.445014) scale(0.1 -0.1)">
      <use xlink:href="#DejaVuSans-31"/>
      <use xlink:href="#DejaVuSans-31" x="63.623047"/>
     </g>
    </g>
   </g>
   <g id="text_13">
    <g clip-path="url(#p0c83e8d1cd)">
     <!-- 12 -->
     <g transform="translate(183.306988 294.759142) scale(0.1 -0.1)">
      <use xlink:href="#DejaVuSans-31"/>
      <use xlink:href="#DejaVuSans-32" x="63.623047"/>
     </g>
    </g>
   </g>
   <g id="text_14">
    <g clip-path="url(#p0c83e8d1cd)">
     <!-- 13 -->
     <g transform="translate(134.422798 258.698924) scale(0.1 -0.1)">
      <use xlink:href="#DejaVuSans-31"/>
      <use xlink:href="#DejaVuSans-33" x="63.623047"/>
     </g>
    </g>
   </g>
   <g id="text_15">
    <g clip-path="url(#p0c83e8d1cd)">
     <!-- 14 -->
     <g transform="translate(180.619823 220.55442) scale(0.1 -0.1)">
      <use xlink:href="#DejaVuSans-31"/>
      <use xlink:href="#DejaVuSans-34" x="63.623047"/>
     </g>
    </g>
   </g>
  </g>
 </g>
 <defs>
  <clipPath id="p0c83e8d1cd">
   <rect x="0" y="0" width="460.8" height="345.6"/>
  </clipPath>
 </defs>
</svg>
