<?xml version="1.0" encoding="utf-8" standalone="no"?>
<!DOCTYPE svg PUBLIC "-//W3C//DTD SVG 1.1//EN"
  "http://www.w3.org/Graphics/SVG/1.1/DTD/svg11.dtd">
<svg xmlns:xlink="http://www.w3.org/1999/xlink" width="460.8pt" height="345.6pt" viewBox="0 0 460.8 345.6" xmlns="http://www.w3.org/2000/svg" version="1.1">
 <metadata>
  <rdf:RDF xmlns:dc="http://purl.org/dc/elements/1.1/" xmlns:cc="http://creativecommons.org/ns#" xmlns:rdf="http://www.w3.org/1999/02/22-rdf-syntax-ns#">
   <cc:Work>
    <dc:type rdf:resource="http://purl.org/dc/dcmitype/StillImage"/>
    <dc:date>2023-10-10T10:56:04.595083</dc:date>
    <dc:format>image/svg+xml</dc:format>
    <dc:creator>
     <cc:Agent>
      <dc:title>Matplotlib v3.6.1, https://matplotlib.org/</dc:title>
     </cc:Agent>
    </dc:creator>
   </cc:Work>
  </rdf:RDF>
 </metadata>
 <defs>
  <style type="text/css">*{stroke-linejoin: round; stroke-linecap: butt}</style>
 </defs>
 <g id="figure_1">
  <g id="patch_1">
   <path d="M 0 345.6 
L 460.8 345.6 
L 460.8 0 
L 0 0 
z
" style="fill: #ffffff"/>
  </g>
  <g id="axes_1">
   <g id="patch_2">
    <path d="M 225.334328 41.130351 
Q 215.41874 67.585182 205.895549 92.993101 
" clip-path="url(#p290509d4ea)" style="fill: none; stroke: #000000; stroke-linecap: round"/>
    <path d="M 209.172199 89.949491 
L 205.895549 92.993101 
L 205.426651 88.545614 
L 209.172199 89.949491 
z
" clip-path="url(#p290509d4ea)" style="stroke: #000000; stroke-linecap: round"/>
   </g>
   <g id="patch_3">
    <path d="M 151.548444 44.603307 
Q 177.488433 69.557511 202.622691 93.736603 
" clip-path="url(#p290509d4ea)" style="fill: none; stroke: #000000; stroke-linecap: round"/>
    <path d="M 201.126581 89.522145 
L 202.622691 93.736603 
L 198.353459 92.404817 
L 201.126581 89.522145 
z
" clip-path="url(#p290509d4ea)" style="stroke: #000000; stroke-linecap: round"/>
   </g>
   <g id="patch_4">
    <path d="M 205.502377 94.042085 
Q 215.417964 67.587254 224.941156 42.179335 
" clip-path="url(#p290509d4ea)" style="fill: none; stroke: #000000; stroke-linecap: round"/>
    <path d="M 221.664505 45.222945 
L 224.941156 42.179335 
L 225.410054 46.626822 
L 221.664505 45.222945 
z
" clip-path="url(#p290509d4ea)" style="stroke: #000000; stroke-linecap: round"/>
   </g>
   <g id="patch_5">
    <path d="M 203.425182 94.508597 
Q 177.485192 69.554393 152.350934 45.375301 
" clip-path="url(#p290509d4ea)" style="fill: none; stroke: #000000; stroke-linecap: round"/>
    <path d="M 153.847044 49.589759 
L 152.350934 45.375301 
L 156.620166 46.707088 
L 153.847044 49.589759 
z
" clip-path="url(#p290509d4ea)" style="stroke: #000000; stroke-linecap: round"/>
   </g>
   <g id="patch_6">
    <path d="M 206.370032 94.690303 
Q 234.775138 73.324693 262.286751 52.631145 
" clip-path="url(#p290509d4ea)" style="fill: none; stroke: #000000; stroke-linecap: round"/>
    <path d="M 257.887868 53.437263 
L 262.286751 52.631145 
L 260.292315 56.633922 
L 257.887868 53.437263 
z
" clip-path="url(#p290509d4ea)" style="stroke: #000000; stroke-linecap: round"/>
   </g>
   <g id="patch_7">
    <path d="M 206.367844 97.020521 
Q 256.569981 134.948844 305.880056 172.203205 
" clip-path="url(#p290509d4ea)" style="fill: none; stroke: #000000; stroke-linecap: round"/>
    <path d="M 303.894142 168.196192 
L 305.880056 172.203205 
L 301.482898 171.387728 
L 303.894142 168.196192 
z
" clip-path="url(#p290509d4ea)" style="stroke: #000000; stroke-linecap: round"/>
   </g>
   <g id="patch_8">
    <path d="M 203.011102 95.176292 
Q 165.391686 81.115449 128.819542 67.44604 
" clip-path="url(#p290509d4ea)" style="fill: none; stroke: #000000; stroke-linecap: round"/>
    <path d="M 131.866158 70.719896 
L 128.819542 67.44604 
L 133.266596 66.97306 
L 131.866158 70.719896 
z
" clip-path="url(#p290509d4ea)" style="stroke: #000000; stroke-linecap: round"/>
   </g>
   <g id="patch_9">
    <path d="M 204.346512 93.976321 
Q 196.458463 62.922453 188.845667 32.952207 
" clip-path="url(#p290509d4ea)" style="fill: none; stroke: #000000; stroke-linecap: round"/>
    <path d="M 187.892 37.321476 
L 188.845667 32.952207 
L 191.768883 36.336702 
L 187.892 37.321476 
z
" clip-path="url(#p290509d4ea)" style="stroke: #000000; stroke-linecap: round"/>
   </g>
   <g id="patch_10">
    <path d="M 203.825563 97.509915 
Q 177.440232 141.306524 151.63185 184.145463 
" clip-path="url(#p290509d4ea)" style="fill: none; stroke: #000000; stroke-linecap: round"/>
    <path d="M 155.409136 181.751281 
L 151.63185 184.145463 
L 151.982876 179.687125 
L 155.409136 181.751281 
z
" clip-path="url(#p290509d4ea)" style="stroke: #000000; stroke-linecap: round"/>
   </g>
   <g id="patch_11">
    <path d="M 263.183057 51.956966 
Q 234.777951 73.322577 207.266338 94.016124 
" clip-path="url(#p290509d4ea)" style="fill: none; stroke: #000000; stroke-linecap: round"/>
    <path d="M 211.665221 93.210007 
L 207.266338 94.016124 
L 209.260774 90.013347 
L 211.665221 93.210007 
z
" clip-path="url(#p290509d4ea)" style="stroke: #000000; stroke-linecap: round"/>
   </g>
   <g id="patch_12">
    <path d="M 306.773959 172.878559 
Q 256.571823 134.950236 207.261748 97.695876 
" clip-path="url(#p290509d4ea)" style="fill: none; stroke: #000000; stroke-linecap: round"/>
    <path d="M 209.247661 101.702888 
L 207.261748 97.695876 
L 211.658906 98.511352 
L 209.247661 101.702888 
z
" clip-path="url(#p290509d4ea)" style="stroke: #000000; stroke-linecap: round"/>
   </g>
   <g id="patch_13">
    <path d="M 310.171129 174.608478 
Q 355.674757 188.437492 400.10866 201.941406 
" clip-path="url(#p290509d4ea)" style="fill: none; stroke: #000000; stroke-linecap: round"/>
    <path d="M 396.863055 198.864712 
L 400.10866 201.941406 
L 395.699941 202.691874 
L 396.863055 198.864712 
z
" clip-path="url(#p290509d4ea)" style="stroke: #000000; stroke-linecap: round"/>
   </g>
   <g id="patch_14">
    <path d="M 308.77279 172.165465 
Q 313.832405 151.231031 318.629366 131.383342 
" clip-path="url(#p290509d4ea)" style="fill: none; stroke: #000000; stroke-linecap: round"/>
    <path d="M 315.74564 134.801547 
L 318.629366 131.383342 
L 319.633695 135.741245 
L 315.74564 134.801547 
z
" clip-path="url(#p290509d4ea)" style="stroke: #000000; stroke-linecap: round"/>
   </g>
   <g id="patch_15">
    <path d="M 309.857714 175.221879 
Q 339.921987 198.199573 369.097961 220.498352 
" clip-path="url(#p290509d4ea)" style="fill: none; stroke: #000000; stroke-linecap: round"/>
    <path d="M 367.134365 216.480357 
L 369.097961 220.498352 
L 364.705407 219.658432 
L 367.134365 216.480357 
z
" clip-path="url(#p290509d4ea)" style="stroke: #000000; stroke-linecap: round"/>
   </g>
   <g id="patch_16">
    <path d="M 310.256187 173.970105 
Q 341.459427 172.75728 371.545477 171.58788 
" clip-path="url(#p290509d4ea)" style="fill: none; stroke: #000000; stroke-linecap: round"/>
    <path d="M 367.470816 169.744746 
L 371.545477 171.58788 
L 367.626173 173.741727 
L 367.470816 169.744746 
z
" clip-path="url(#p290509d4ea)" style="stroke: #000000; stroke-linecap: round"/>
   </g>
   <g id="patch_17">
    <path d="M 307.052566 175.507399 
Q 274.263325 213.376598 242.205927 250.400572 
" clip-path="url(#p290509d4ea)" style="fill: none; stroke: #000000; stroke-linecap: round"/>
    <path d="M 246.336233 248.685761 
L 242.205927 250.400572 
L 243.312262 246.067441 
L 246.336233 248.685761 
z
" clip-path="url(#p290509d4ea)" style="stroke: #000000; stroke-linecap: round"/>
   </g>
   <g id="patch_18">
    <path d="M 310.162916 173.454613 
Q 355.909965 158.801365 400.592267 144.489166 
" clip-path="url(#p290509d4ea)" style="fill: none; stroke: #000000; stroke-linecap: round"/>
    <path d="M 396.172826 143.804664 
L 400.592267 144.489166 
L 397.393001 147.614018 
L 396.172826 143.804664 
z
" clip-path="url(#p290509d4ea)" style="stroke: #000000; stroke-linecap: round"/>
   </g>
   <g id="patch_19">
    <path d="M 309.821859 172.822663 
Q 338.729093 149.31208 366.768951 126.506945 
" clip-path="url(#p290509d4ea)" style="fill: none; stroke: #000000; stroke-linecap: round"/>
    <path d="M 362.403784 127.47922 
L 366.768951 126.506945 
L 364.927671 130.582443 
L 362.403784 127.47922 
z
" clip-path="url(#p290509d4ea)" style="stroke: #000000; stroke-linecap: round"/>
   </g>
   <g id="patch_20">
    <path d="M 308.931842 175.884619 
Q 315.830003 196.567278 322.374429 216.189338 
" clip-path="url(#p290509d4ea)" style="fill: none; stroke: #000000; stroke-linecap: round"/>
    <path d="M 323.006126 211.762041 
L 322.374429 216.189338 
L 319.211609 213.027603 
L 323.006126 211.762041 
z
" clip-path="url(#p290509d4ea)" style="stroke: #000000; stroke-linecap: round"/>
   </g>
   <g id="patch_21">
    <path d="M 310.258109 174.046507 
Q 364.569051 174.076875 417.761959 174.106617 
" clip-path="url(#p290509d4ea)" style="fill: none; stroke: #000000; stroke-linecap: round"/>
    <path d="M 413.763078 172.104381 
L 417.761959 174.106617 
L 413.760842 176.104381 
L 413.763078 172.104381 
z
" clip-path="url(#p290509d4ea)" style="stroke: #000000; stroke-linecap: round"/>
   </g>
   <g id="patch_22">
    <path d="M 306.391336 174.200265 
Q 229.189581 180.403453 153.102268 186.517096 
" clip-path="url(#p290509d4ea)" style="fill: none; stroke: #000000; stroke-linecap: round"/>
    <path d="M 157.249602 188.190302 
L 153.102268 186.517096 
L 156.929233 184.203152 
L 157.249602 188.190302 
z
" clip-path="url(#p290509d4ea)" style="stroke: #000000; stroke-linecap: round"/>
   </g>
   <g id="patch_23">
    <path d="M 401.176148 202.265827 
Q 355.67252 188.436812 311.238616 174.932898 
" clip-path="url(#p290509d4ea)" style="fill: none; stroke: #000000; stroke-linecap: round"/>
    <path d="M 314.484222 178.009593 
L 311.238616 174.932898 
L 315.647335 174.182431 
L 314.484222 178.009593 
z
" clip-path="url(#p290509d4ea)" style="stroke: #000000; stroke-linecap: round"/>
   </g>
   <g id="patch_24">
    <path d="M 318.892663 130.293938 
Q 313.833048 151.228372 309.036086 171.076061 
" clip-path="url(#p290509d4ea)" style="fill: none; stroke: #000000; stroke-linecap: round"/>
    <path d="M 311.919812 167.657856 
L 309.036086 171.076061 
L 308.031758 166.718158 
L 311.919812 167.657856 
z
" clip-path="url(#p290509d4ea)" style="stroke: #000000; stroke-linecap: round"/>
   </g>
   <g id="patch_25">
    <path d="M 369.986413 221.177383 
Q 339.92214 198.199689 310.746166 175.90091 
" clip-path="url(#p290509d4ea)" style="fill: none; stroke: #000000; stroke-linecap: round"/>
    <path d="M 312.709763 179.918905 
L 310.746166 175.90091 
L 315.13872 176.74083 
L 312.709763 179.918905 
z
" clip-path="url(#p290509d4ea)" style="stroke: #000000; stroke-linecap: round"/>
   </g>
   <g id="patch_26">
    <path d="M 372.660995 171.544521 
Q 341.457755 172.757345 311.371705 173.926746 
" clip-path="url(#p290509d4ea)" style="fill: none; stroke: #000000; stroke-linecap: round"/>
    <path d="M 315.446366 175.76988 
L 311.371705 173.926746 
L 315.291009 171.772898 
L 315.446366 175.76988 
z
" clip-path="url(#p290509d4ea)" style="stroke: #000000; stroke-linecap: round"/>
   </g>
   <g id="patch_27">
    <path d="M 203.009385 306.340642 
Q 221.055491 280.321837 238.464411 255.221723 
" clip-path="url(#p290509d4ea)" style="fill: none; stroke: #000000; stroke-linecap: round"/>
    <path d="M 234.541341 257.368703 
L 238.464411 255.221723 
L 237.828152 259.648367 
L 234.541341 257.368703 
z
" clip-path="url(#p290509d4ea)" style="stroke: #000000; stroke-linecap: round"/>
   </g>
   <g id="patch_28">
    <path d="M 127.771589 67.054351 
Q 165.391006 81.115194 201.96315 94.784603 
" clip-path="url(#p290509d4ea)" style="fill: none; stroke: #000000; stroke-linecap: round"/>
    <path d="M 198.916534 91.510748 
L 201.96315 94.784603 
L 197.516096 95.257583 
L 198.916534 91.510748 
z
" clip-path="url(#p290509d4ea)" style="stroke: #000000; stroke-linecap: round"/>
   </g>
   <g id="patch_29">
    <path d="M 292.530881 302.002636 
Q 267.07326 278.019163 242.429419 254.802347 
" clip-path="url(#p290509d4ea)" style="fill: none; stroke: #000000; stroke-linecap: round"/>
    <path d="M 243.969448 259.000955 
L 242.429419 254.802347 
L 246.712323 256.089489 
L 243.969448 259.000955 
z
" clip-path="url(#p290509d4ea)" style="stroke: #000000; stroke-linecap: round"/>
   </g>
   <g id="patch_30">
    <path d="M 81.114026 198.442593 
Q 114.63172 192.763725 147.047091 187.271623 
" clip-path="url(#p290509d4ea)" style="fill: none; stroke: #000000; stroke-linecap: round"/>
    <path d="M 142.7692 185.967919 
L 147.047091 187.271623 
L 143.437393 189.911713 
L 142.7692 185.967919 
z
" clip-path="url(#p290509d4ea)" style="stroke: #000000; stroke-linecap: round"/>
   </g>
   <g id="patch_31">
    <path d="M 241.473131 251.246898 
Q 274.262372 213.377699 306.31977 176.353725 
" clip-path="url(#p290509d4ea)" style="fill: none; stroke: #000000; stroke-linecap: round"/>
    <path d="M 302.189464 178.068536 
L 306.31977 176.353725 
L 305.213435 180.686856 
L 302.189464 178.068536 
z
" clip-path="url(#p290509d4ea)" style="stroke: #000000; stroke-linecap: round"/>
   </g>
   <g id="patch_32">
    <path d="M 239.101457 254.303232 
Q 221.055351 280.322037 203.646431 305.422151 
" clip-path="url(#p290509d4ea)" style="fill: none; stroke: #000000; stroke-linecap: round"/>
    <path d="M 207.569501 303.275171 
L 203.646431 305.422151 
L 204.28269 300.995507 
L 207.569501 303.275171 
z
" clip-path="url(#p290509d4ea)" style="stroke: #000000; stroke-linecap: round"/>
   </g>
   <g id="patch_33">
    <path d="M 241.614155 254.034291 
Q 267.071775 278.017764 291.715616 301.23458 
" clip-path="url(#p290509d4ea)" style="fill: none; stroke: #000000; stroke-linecap: round"/>
    <path d="M 290.175587 297.035972 
L 291.715616 301.23458 
L 287.432712 299.947438 
L 290.175587 297.035972 
z
" clip-path="url(#p290509d4ea)" style="stroke: #000000; stroke-linecap: round"/>
   </g>
   <g id="patch_34">
    <path d="M 240.481352 254.624623 
Q 244.706719 284.158792 248.773745 312.586196 
" clip-path="url(#p290509d4ea)" style="fill: none; stroke: #000000; stroke-linecap: round"/>
    <path d="M 250.187086 308.343264 
L 248.773745 312.586196 
L 246.227404 308.909764 
L 250.187086 308.343264 
z
" clip-path="url(#p290509d4ea)" style="stroke: #000000; stroke-linecap: round"/>
   </g>
   <g id="patch_35">
    <path d="M 238.641832 251.563738 
Q 195.131349 219.735332 152.523237 188.567021 
" clip-path="url(#p290509d4ea)" style="fill: none; stroke: #000000; stroke-linecap: round"/>
    <path d="M 154.570846 192.542861 
L 152.523237 188.567021 
L 156.932474 189.314437 
L 154.570846 192.542861 
z
" clip-path="url(#p290509d4ea)" style="stroke: #000000; stroke-linecap: round"/>
   </g>
   <g id="patch_36">
    <path d="M 401.655451 144.148617 
Q 355.908402 158.801866 311.2261 173.114065 
" clip-path="url(#p290509d4ea)" style="fill: none; stroke: #000000; stroke-linecap: round"/>
    <path d="M 315.645541 173.798567 
L 311.2261 173.114065 
L 314.425366 169.989213 
L 315.645541 173.798567 
z
" clip-path="url(#p290509d4ea)" style="stroke: #000000; stroke-linecap: round"/>
   </g>
   <g id="patch_37">
    <path d="M 367.635368 125.802277 
Q 338.728134 149.31286 310.688277 172.117996 
" clip-path="url(#p290509d4ea)" style="fill: none; stroke: #000000; stroke-linecap: round"/>
    <path d="M 315.053443 171.145721 
L 310.688277 172.117996 
L 312.529557 168.042497 
L 315.053443 171.145721 
z
" clip-path="url(#p290509d4ea)" style="stroke: #000000; stroke-linecap: round"/>
   </g>
   <g id="patch_38">
    <path d="M 41.924939 183.331955 
Q 95.021741 185.016205 147.00107 186.665009 
" clip-path="url(#p290509d4ea)" style="fill: none; stroke: #000000; stroke-linecap: round"/>
    <path d="M 143.06649 184.539196 
L 147.00107 186.665009 
L 142.939672 188.537186 
L 143.06649 184.539196 
z
" clip-path="url(#p290509d4ea)" style="stroke: #000000; stroke-linecap: round"/>
   </g>
   <g id="patch_39">
    <path d="M 65.896755 158.085132 
Q 107.060558 172.111526 147.166077 185.777314 
" clip-path="url(#p290509d4ea)" style="fill: none; stroke: #000000; stroke-linecap: round"/>
    <path d="M 144.024919 182.594058 
L 147.166077 185.777314 
L 142.734777 186.380287 
L 144.024919 182.594058 
z
" clip-path="url(#p290509d4ea)" style="stroke: #000000; stroke-linecap: round"/>
   </g>
   <g id="patch_40">
    <path d="M 188.570119 31.86742 
Q 196.458167 62.921288 204.070963 92.891534 
" clip-path="url(#p290509d4ea)" style="fill: none; stroke: #000000; stroke-linecap: round"/>
    <path d="M 205.024631 88.522264 
L 204.070963 92.891534 
L 201.147748 89.507038 
L 205.024631 88.522264 
z
" clip-path="url(#p290509d4ea)" style="stroke: #000000; stroke-linecap: round"/>
   </g>
   <g id="patch_41">
    <path d="M 248.93226 313.694169 
Q 244.706892 284.16 240.639866 255.732596 
" clip-path="url(#p290509d4ea)" style="fill: none; stroke: #000000; stroke-linecap: round"/>
    <path d="M 239.226525 259.975528 
L 240.639866 255.732596 
L 243.186207 259.409028 
L 239.226525 259.975528 
z
" clip-path="url(#p290509d4ea)" style="stroke: #000000; stroke-linecap: round"/>
   </g>
   <g id="patch_42">
    <path d="M 322.727743 217.248672 
Q 315.829581 196.566013 309.285155 176.943953 
" clip-path="url(#p290509d4ea)" style="fill: none; stroke: #000000; stroke-linecap: round"/>
    <path d="M 308.653459 181.37125 
L 309.285155 176.943953 
L 312.447975 180.105689 
L 308.653459 181.37125 
z
" clip-path="url(#p290509d4ea)" style="stroke: #000000; stroke-linecap: round"/>
   </g>
   <g id="patch_43">
    <path d="M 418.873539 174.107239 
Q 364.562597 174.076871 311.369689 174.047129 
" clip-path="url(#p290509d4ea)" style="fill: none; stroke: #000000; stroke-linecap: round"/>
    <path d="M 315.36857 176.049365 
L 311.369689 174.047129 
L 315.370807 172.049366 
L 315.36857 176.049365 
z
" clip-path="url(#p290509d4ea)" style="stroke: #000000; stroke-linecap: round"/>
   </g>
   <g id="patch_44">
    <path d="M 110.27538 148.420306 
Q 129.46743 166.918299 147.854489 184.640413 
" clip-path="url(#p290509d4ea)" style="fill: none; stroke: #000000; stroke-linecap: round"/>
    <path d="M 146.362401 180.424529 
L 147.854489 184.640413 
L 143.58653 183.304553 
L 146.362401 180.424529 
z
" clip-path="url(#p290509d4ea)" style="stroke: #000000; stroke-linecap: round"/>
   </g>
   <g id="patch_45">
    <path d="M 54.081127 220.590048 
Q 101.155996 203.997551 147.176414 187.776718 
" clip-path="url(#p290509d4ea)" style="fill: none; stroke: #000000; stroke-linecap: round"/>
    <path d="M 142.739046 187.220159 
L 147.176414 187.776718 
L 144.068747 190.992678 
L 142.739046 187.220159 
z
" clip-path="url(#p290509d4ea)" style="stroke: #000000; stroke-linecap: round"/>
   </g>
   <g id="patch_46">
    <path d="M 151.053389 185.105642 
Q 177.43872 141.309033 203.247102 98.470093 
" clip-path="url(#p290509d4ea)" style="fill: none; stroke: #000000; stroke-linecap: round"/>
    <path d="M 199.469816 100.864276 
L 203.247102 98.470093 
L 202.896077 102.928432 
L 199.469816 100.864276 
z
" clip-path="url(#p290509d4ea)" style="stroke: #000000; stroke-linecap: round"/>
   </g>
   <g id="patch_47">
    <path d="M 151.982665 186.607056 
Q 229.18442 180.403868 305.271733 174.290225 
" clip-path="url(#p290509d4ea)" style="fill: none; stroke: #000000; stroke-linecap: round"/>
    <path d="M 301.124399 172.617019 
L 305.271733 174.290225 
L 301.444767 176.604169 
L 301.124399 172.617019 
z
" clip-path="url(#p290509d4ea)" style="stroke: #000000; stroke-linecap: round"/>
   </g>
   <g id="patch_48">
    <path d="M 148.14858 187.084999 
Q 114.630885 192.763867 82.215514 198.255968 
" clip-path="url(#p290509d4ea)" style="fill: none; stroke: #000000; stroke-linecap: round"/>
    <path d="M 86.493406 199.559673 
L 82.215514 198.255968 
L 85.825213 195.615878 
L 86.493406 199.559673 
z
" clip-path="url(#p290509d4ea)" style="stroke: #000000; stroke-linecap: round"/>
   </g>
   <g id="patch_49">
    <path d="M 151.621014 187.907035 
Q 195.131497 219.735441 237.739609 250.903752 
" clip-path="url(#p290509d4ea)" style="fill: none; stroke: #000000; stroke-linecap: round"/>
    <path d="M 235.692 246.927913 
L 237.739609 250.903752 
L 233.330372 250.156336 
L 235.692 246.927913 
z
" clip-path="url(#p290509d4ea)" style="stroke: #000000; stroke-linecap: round"/>
   </g>
   <g id="patch_50">
    <path d="M 148.117413 186.70042 
Q 95.020611 185.016169 43.041281 183.367365 
" clip-path="url(#p290509d4ea)" style="fill: none; stroke: #000000; stroke-linecap: round"/>
    <path d="M 46.975862 185.493178 
L 43.041281 183.367365 
L 47.102679 181.495189 
L 46.975862 185.493178 
z
" clip-path="url(#p290509d4ea)" style="stroke: #000000; stroke-linecap: round"/>
   </g>
   <g id="patch_51">
    <path d="M 148.221186 186.136838 
Q 107.057383 172.110444 66.951864 158.444656 
" clip-path="url(#p290509d4ea)" style="fill: none; stroke: #000000; stroke-linecap: round"/>
    <path d="M 70.093023 161.627913 
L 66.951864 158.444656 
L 71.383164 157.841683 
L 70.093023 161.627913 
z
" clip-path="url(#p290509d4ea)" style="stroke: #000000; stroke-linecap: round"/>
   </g>
   <g id="patch_52">
    <path d="M 148.660793 185.417557 
Q 129.468742 166.919564 111.081683 149.197451 
" clip-path="url(#p290509d4ea)" style="fill: none; stroke: #000000; stroke-linecap: round"/>
    <path d="M 112.573772 153.413334 
L 111.081683 149.197451 
L 115.349643 150.53331 
L 112.573772 153.413334 
z
" clip-path="url(#p290509d4ea)" style="stroke: #000000; stroke-linecap: round"/>
   </g>
   <g id="patch_53">
    <path d="M 148.23201 187.404652 
Q 101.157141 203.997148 55.136722 220.217982 
" clip-path="url(#p290509d4ea)" style="fill: none; stroke: #000000; stroke-linecap: round"/>
    <path d="M 59.574091 220.77454 
L 55.136722 220.217982 
L 58.24439 217.002021 
L 59.574091 220.77454 
z
" clip-path="url(#p290509d4ea)" style="stroke: #000000; stroke-linecap: round"/>
   </g>
   <g id="patch_54">
    <path d="M 148.630687 188.070376 
Q 122.065379 212.465356 96.323563 236.104121 
" clip-path="url(#p290509d4ea)" style="fill: none; stroke: #000000; stroke-linecap: round"/>
    <path d="M 100.622536 234.871713 
L 96.323563 236.104121 
L 97.917021 231.925498 
L 100.622536 234.871713 
z
" clip-path="url(#p290509d4ea)" style="stroke: #000000; stroke-linecap: round"/>
   </g>
   <g id="patch_55">
    <path d="M 149.700138 188.664314 
Q 145.541139 210.924657 141.587475 232.085984 
" clip-path="url(#p290509d4ea)" style="fill: none; stroke: #000000; stroke-linecap: round"/>
    <path d="M 144.288082 228.521335 
L 141.587475 232.085984 
L 140.35612 227.786709 
L 144.288082 228.521335 
z
" clip-path="url(#p290509d4ea)" style="stroke: #000000; stroke-linecap: round"/>
   </g>
   <g id="patch_56">
    <path d="M 95.496377 236.863728 
Q 122.061684 212.468749 147.8035 188.829984 
" clip-path="url(#p290509d4ea)" style="fill: none; stroke: #000000; stroke-linecap: round"/>
    <path d="M 143.504527 190.062392 
L 147.8035 188.829984 
L 146.210043 193.008607 
L 143.504527 190.062392 
z
" clip-path="url(#p290509d4ea)" style="stroke: #000000; stroke-linecap: round"/>
   </g>
   <g id="patch_57">
    <path d="M 141.38237 233.183774 
Q 145.541368 210.923431 149.495033 189.762104 
" clip-path="url(#p290509d4ea)" style="fill: none; stroke: #000000; stroke-linecap: round"/>
    <path d="M 146.794426 193.326753 
L 149.495033 189.762104 
L 150.726388 194.061379 
L 146.794426 193.326753 
z
" clip-path="url(#p290509d4ea)" style="stroke: #000000; stroke-linecap: round"/>
   </g>
   <g id="PathCollection_1">
    <defs>
     <path id="m7c209fd654" d="M 0 1.936492 
C 0.513564 1.936492 1.006162 1.732451 1.369306 1.369306 
C 1.732451 1.006162 1.936492 0.513564 1.936492 0 
C 1.936492 -0.513564 1.732451 -1.006162 1.369306 -1.369306 
C 1.006162 -1.732451 0.513564 -1.936492 0 -1.936492 
C -0.513564 -1.936492 -1.006162 -1.732451 -1.369306 -1.369306 
C -1.732451 -1.006162 -1.936492 -0.513564 -1.936492 0 
C -1.936492 0.513564 -1.732451 1.006162 -1.369306 1.369306 
C -1.006162 1.732451 -0.513564 1.936492 0 1.936492 
z
" style="stroke: #1f78b4"/>
    </defs>
    <g clip-path="url(#p290509d4ea)">
     <use xlink:href="#m7c209fd654" x="226.013327" y="39.318778" style="fill: #1f78b4; stroke: #1f78b4"/>
     <use xlink:href="#m7c209fd654" x="150.150248" y="43.258246" style="fill: #1f78b4; stroke: #1f78b4"/>
     <use xlink:href="#m7c209fd654" x="204.823378" y="95.853658" style="fill: #1f78b4; stroke: #1f78b4"/>
     <use xlink:href="#m7c209fd654" x="264.729711" y="50.793612" style="fill: #1f78b4; stroke: #1f78b4"/>
     <use xlink:href="#m7c209fd654" x="308.318426" y="174.045423" style="fill: #1f78b4; stroke: #1f78b4"/>
     <use xlink:href="#m7c209fd654" x="403.028851" y="202.828882" style="fill: #1f78b4; stroke: #1f78b4"/>
     <use xlink:href="#m7c209fd654" x="319.347027" y="128.41398" style="fill: #1f78b4; stroke: #1f78b4"/>
     <use xlink:href="#m7c209fd654" x="371.525702" y="222.35384" style="fill: #1f78b4; stroke: #1f78b4"/>
     <use xlink:href="#m7c209fd654" x="374.598756" y="171.469203" style="fill: #1f78b4; stroke: #1f78b4"/>
     <use xlink:href="#m7c209fd654" x="201.903571" y="307.934999" style="fill: #1f78b4; stroke: #1f78b4"/>
     <use xlink:href="#m7c209fd654" x="125.959314" y="66.376985" style="fill: #1f78b4; stroke: #1f78b4"/>
     <use xlink:href="#m7c209fd654" x="293.937764" y="303.328053" style="fill: #1f78b4; stroke: #1f78b4"/>
     <use xlink:href="#m7c209fd654" x="79.20703" y="198.765693" style="fill: #1f78b4; stroke: #1f78b4"/>
     <use xlink:href="#m7c209fd654" x="240.207271" y="252.708875" style="fill: #1f78b4; stroke: #1f78b4"/>
     <use xlink:href="#m7c209fd654" x="403.499941" y="143.557808" style="fill: #1f78b4; stroke: #1f78b4"/>
     <use xlink:href="#m7c209fd654" x="369.138802" y="124.579518" style="fill: #1f78b4; stroke: #1f78b4"/>
     <use xlink:href="#m7c209fd654" x="39.986777" y="183.270475" style="fill: #1f78b4; stroke: #1f78b4"/>
     <use xlink:href="#m7c209fd654" x="64.062366" y="157.460072" style="fill: #1f78b4; stroke: #1f78b4"/>
     <use xlink:href="#m7c209fd654" x="188.093253" y="29.990083" style="fill: #1f78b4; stroke: #1f78b4"/>
     <use xlink:href="#m7c209fd654" x="249.20634" y="315.609917" style="fill: #1f78b4; stroke: #1f78b4"/>
     <use xlink:href="#m7c209fd654" x="323.341159" y="219.087868" style="fill: #1f78b4; stroke: #1f78b4"/>
     <use xlink:href="#m7c209fd654" x="420.813223" y="174.108324" style="fill: #1f78b4; stroke: #1f78b4"/>
     <use xlink:href="#m7c209fd654" x="108.880598" y="147.075965" style="fill: #1f78b4; stroke: #1f78b4"/>
     <use xlink:href="#m7c209fd654" x="52.257562" y="221.2328" style="fill: #1f78b4; stroke: #1f78b4"/>
     <use xlink:href="#m7c209fd654" x="150.055575" y="186.761899" style="fill: #1f78b4; stroke: #1f78b4"/>
     <use xlink:href="#m7c209fd654" x="94.071489" y="238.172206" style="fill: #1f78b4; stroke: #1f78b4"/>
     <use xlink:href="#m7c209fd654" x="141.026933" y="235.086189" style="fill: #1f78b4; stroke: #1f78b4"/>
    </g>
   </g>
   <g id="text_1">
    <g clip-path="url(#p290509d4ea)">
     <!-- 0 -->
     <g transform="translate(222.832077 42.078153) scale(0.1 -0.1)">
      <defs>
       <path id="DejaVuSans-30" d="M 2034 4250 
Q 1547 4250 1301 3770 
Q 1056 3291 1056 2328 
Q 1056 1369 1301 889 
Q 1547 409 2034 409 
Q 2525 409 2770 889 
Q 3016 1369 3016 2328 
Q 3016 3291 2770 3770 
Q 2525 4250 2034 4250 
z
M 2034 4750 
Q 2819 4750 3233 4129 
Q 3647 3509 3647 2328 
Q 3647 1150 3233 529 
Q 2819 -91 2034 -91 
Q 1250 -91 836 529 
Q 422 1150 422 2328 
Q 422 3509 836 4129 
Q 1250 4750 2034 4750 
z
" transform="scale(0.015625)"/>
      </defs>
      <use xlink:href="#DejaVuSans-30"/>
     </g>
    </g>
   </g>
   <g id="text_2">
    <g clip-path="url(#p290509d4ea)">
     <!-- 1 -->
     <g transform="translate(146.968998 46.017621) scale(0.1 -0.1)">
      <defs>
       <path id="DejaVuSans-31" d="M 794 531 
L 1825 531 
L 1825 4091 
L 703 3866 
L 703 4441 
L 1819 4666 
L 2450 4666 
L 2450 531 
L 3481 531 
L 3481 0 
L 794 0 
L 794 531 
z
" transform="scale(0.015625)"/>
      </defs>
      <use xlink:href="#DejaVuSans-31"/>
     </g>
    </g>
   </g>
   <g id="text_3">
    <g clip-path="url(#p290509d4ea)">
     <!-- 2 -->
     <g transform="translate(201.642128 98.613033) scale(0.1 -0.1)">
      <defs>
       <path id="DejaVuSans-32" d="M 1228 531 
L 3431 531 
L 3431 0 
L 469 0 
L 469 531 
Q 828 903 1448 1529 
Q 2069 2156 2228 2338 
Q 2531 2678 2651 2914 
Q 2772 3150 2772 3378 
Q 2772 3750 2511 3984 
Q 2250 4219 1831 4219 
Q 1534 4219 1204 4116 
Q 875 4013 500 3803 
L 500 4441 
Q 881 4594 1212 4672 
Q 1544 4750 1819 4750 
Q 2544 4750 2975 4387 
Q 3406 4025 3406 3419 
Q 3406 3131 3298 2873 
Q 3191 2616 2906 2266 
Q 2828 2175 2409 1742 
Q 1991 1309 1228 531 
z
" transform="scale(0.015625)"/>
      </defs>
      <use xlink:href="#DejaVuSans-32"/>
     </g>
    </g>
   </g>
   <g id="text_4">
    <g clip-path="url(#p290509d4ea)">
     <!-- 3 -->
     <g transform="translate(261.548461 53.552987) scale(0.1 -0.1)">
      <defs>
       <path id="DejaVuSans-33" d="M 2597 2516 
Q 3050 2419 3304 2112 
Q 3559 1806 3559 1356 
Q 3559 666 3084 287 
Q 2609 -91 1734 -91 
Q 1441 -91 1130 -33 
Q 819 25 488 141 
L 488 750 
Q 750 597 1062 519 
Q 1375 441 1716 441 
Q 2309 441 2620 675 
Q 2931 909 2931 1356 
Q 2931 1769 2642 2001 
Q 2353 2234 1838 2234 
L 1294 2234 
L 1294 2753 
L 1863 2753 
Q 2328 2753 2575 2939 
Q 2822 3125 2822 3475 
Q 2822 3834 2567 4026 
Q 2313 4219 1838 4219 
Q 1578 4219 1281 4162 
Q 984 4106 628 3988 
L 628 4550 
Q 988 4650 1302 4700 
Q 1616 4750 1894 4750 
Q 2613 4750 3031 4423 
Q 3450 4097 3450 3541 
Q 3450 3153 3228 2886 
Q 3006 2619 2597 2516 
z
" transform="scale(0.015625)"/>
      </defs>
      <use xlink:href="#DejaVuSans-33"/>
     </g>
    </g>
   </g>
   <g id="text_5">
    <g clip-path="url(#p290509d4ea)">
     <!-- 4 -->
     <g transform="translate(305.137176 176.804798) scale(0.1 -0.1)">
      <defs>
       <path id="DejaVuSans-34" d="M 2419 4116 
L 825 1625 
L 2419 1625 
L 2419 4116 
z
M 2253 4666 
L 3047 4666 
L 3047 1625 
L 3713 1625 
L 3713 1100 
L 3047 1100 
L 3047 0 
L 2419 0 
L 2419 1100 
L 313 1100 
L 313 1709 
L 2253 4666 
z
" transform="scale(0.015625)"/>
      </defs>
      <use xlink:href="#DejaVuSans-34"/>
     </g>
    </g>
   </g>
   <g id="text_6">
    <g clip-path="url(#p290509d4ea)">
     <!-- 5 -->
     <g transform="translate(399.847601 205.588257) scale(0.1 -0.1)">
      <defs>
       <path id="DejaVuSans-35" d="M 691 4666 
L 3169 4666 
L 3169 4134 
L 1269 4134 
L 1269 2991 
Q 1406 3038 1543 3061 
Q 1681 3084 1819 3084 
Q 2600 3084 3056 2656 
Q 3513 2228 3513 1497 
Q 3513 744 3044 326 
Q 2575 -91 1722 -91 
Q 1428 -91 1123 -41 
Q 819 9 494 109 
L 494 744 
Q 775 591 1075 516 
Q 1375 441 1709 441 
Q 2250 441 2565 725 
Q 2881 1009 2881 1497 
Q 2881 1984 2565 2268 
Q 2250 2553 1709 2553 
Q 1456 2553 1204 2497 
Q 953 2441 691 2322 
L 691 4666 
z
" transform="scale(0.015625)"/>
      </defs>
      <use xlink:href="#DejaVuSans-35"/>
     </g>
    </g>
   </g>
   <g id="text_7">
    <g clip-path="url(#p290509d4ea)">
     <!-- 6 -->
     <g transform="translate(316.165777 131.173355) scale(0.1 -0.1)">
      <defs>
       <path id="DejaVuSans-36" d="M 2113 2584 
Q 1688 2584 1439 2293 
Q 1191 2003 1191 1497 
Q 1191 994 1439 701 
Q 1688 409 2113 409 
Q 2538 409 2786 701 
Q 3034 994 3034 1497 
Q 3034 2003 2786 2293 
Q 2538 2584 2113 2584 
z
M 3366 4563 
L 3366 3988 
Q 3128 4100 2886 4159 
Q 2644 4219 2406 4219 
Q 1781 4219 1451 3797 
Q 1122 3375 1075 2522 
Q 1259 2794 1537 2939 
Q 1816 3084 2150 3084 
Q 2853 3084 3261 2657 
Q 3669 2231 3669 1497 
Q 3669 778 3244 343 
Q 2819 -91 2113 -91 
Q 1303 -91 875 529 
Q 447 1150 447 2328 
Q 447 3434 972 4092 
Q 1497 4750 2381 4750 
Q 2619 4750 2861 4703 
Q 3103 4656 3366 4563 
z
" transform="scale(0.015625)"/>
      </defs>
      <use xlink:href="#DejaVuSans-36"/>
     </g>
    </g>
   </g>
   <g id="text_8">
    <g clip-path="url(#p290509d4ea)">
     <!-- 7 -->
     <g transform="translate(368.344452 225.113215) scale(0.1 -0.1)">
      <defs>
       <path id="DejaVuSans-37" d="M 525 4666 
L 3525 4666 
L 3525 4397 
L 1831 0 
L 1172 0 
L 2766 4134 
L 525 4134 
L 525 4666 
z
" transform="scale(0.015625)"/>
      </defs>
      <use xlink:href="#DejaVuSans-37"/>
     </g>
    </g>
   </g>
   <g id="text_9">
    <g clip-path="url(#p290509d4ea)">
     <!-- 8 -->
     <g transform="translate(371.417506 174.228578) scale(0.1 -0.1)">
      <defs>
       <path id="DejaVuSans-38" d="M 2034 2216 
Q 1584 2216 1326 1975 
Q 1069 1734 1069 1313 
Q 1069 891 1326 650 
Q 1584 409 2034 409 
Q 2484 409 2743 651 
Q 3003 894 3003 1313 
Q 3003 1734 2745 1975 
Q 2488 2216 2034 2216 
z
M 1403 2484 
Q 997 2584 770 2862 
Q 544 3141 544 3541 
Q 544 4100 942 4425 
Q 1341 4750 2034 4750 
Q 2731 4750 3128 4425 
Q 3525 4100 3525 3541 
Q 3525 3141 3298 2862 
Q 3072 2584 2669 2484 
Q 3125 2378 3379 2068 
Q 3634 1759 3634 1313 
Q 3634 634 3220 271 
Q 2806 -91 2034 -91 
Q 1263 -91 848 271 
Q 434 634 434 1313 
Q 434 1759 690 2068 
Q 947 2378 1403 2484 
z
M 1172 3481 
Q 1172 3119 1398 2916 
Q 1625 2713 2034 2713 
Q 2441 2713 2670 2916 
Q 2900 3119 2900 3481 
Q 2900 3844 2670 4047 
Q 2441 4250 2034 4250 
Q 1625 4250 1398 4047 
Q 1172 3844 1172 3481 
z
" transform="scale(0.015625)"/>
      </defs>
      <use xlink:href="#DejaVuSans-38"/>
     </g>
    </g>
   </g>
   <g id="text_10">
    <g clip-path="url(#p290509d4ea)">
     <!-- 9 -->
     <g transform="translate(198.722321 310.694374) scale(0.1 -0.1)">
      <defs>
       <path id="DejaVuSans-39" d="M 703 97 
L 703 672 
Q 941 559 1184 500 
Q 1428 441 1663 441 
Q 2288 441 2617 861 
Q 2947 1281 2994 2138 
Q 2813 1869 2534 1725 
Q 2256 1581 1919 1581 
Q 1219 1581 811 2004 
Q 403 2428 403 3163 
Q 403 3881 828 4315 
Q 1253 4750 1959 4750 
Q 2769 4750 3195 4129 
Q 3622 3509 3622 2328 
Q 3622 1225 3098 567 
Q 2575 -91 1691 -91 
Q 1453 -91 1209 -44 
Q 966 3 703 97 
z
M 1959 2075 
Q 2384 2075 2632 2365 
Q 2881 2656 2881 3163 
Q 2881 3666 2632 3958 
Q 2384 4250 1959 4250 
Q 1534 4250 1286 3958 
Q 1038 3666 1038 3163 
Q 1038 2656 1286 2365 
Q 1534 2075 1959 2075 
z
" transform="scale(0.015625)"/>
      </defs>
      <use xlink:href="#DejaVuSans-39"/>
     </g>
    </g>
   </g>
   <g id="text_11">
    <g clip-path="url(#p290509d4ea)">
     <!-- 10 -->
     <g transform="translate(119.596814 69.13636) scale(0.1 -0.1)">
      <use xlink:href="#DejaVuSans-31"/>
      <use xlink:href="#DejaVuSans-30" x="63.623047"/>
     </g>
    </g>
   </g>
   <g id="text_12">
    <g clip-path="url(#p290509d4ea)">
     <!-- 11 -->
     <g transform="translate(287.575264 306.087428) scale(0.1 -0.1)">
      <use xlink:href="#DejaVuSans-31"/>
      <use xlink:href="#DejaVuSans-31" x="63.623047"/>
     </g>
    </g>
   </g>
   <g id="text_13">
    <g clip-path="url(#p290509d4ea)">
     <!-- 12 -->
     <g transform="translate(72.84453 201.525068) scale(0.1 -0.1)">
      <use xlink:href="#DejaVuSans-31"/>
      <use xlink:href="#DejaVuSans-32" x="63.623047"/>
     </g>
    </g>
   </g>
   <g id="text_14">
    <g clip-path="url(#p290509d4ea)">
     <!-- 13 -->
     <g transform="translate(233.844771 255.46825) scale(0.1 -0.1)">
      <use xlink:href="#DejaVuSans-31"/>
      <use xlink:href="#DejaVuSans-33" x="63.623047"/>
     </g>
    </g>
   </g>
   <g id="text_15">
    <g clip-path="url(#p290509d4ea)">
     <!-- 14 -->
     <g transform="translate(397.137441 146.317183) scale(0.1 -0.1)">
      <use xlink:href="#DejaVuSans-31"/>
      <use xlink:href="#DejaVuSans-34" x="63.623047"/>
     </g>
    </g>
   </g>
   <g id="text_16">
    <g clip-path="url(#p290509d4ea)">
     <!-- 15 -->
     <g transform="translate(362.776302 127.338893) scale(0.1 -0.1)">
      <use xlink:href="#DejaVuSans-31"/>
      <use xlink:href="#DejaVuSans-35" x="63.623047"/>
     </g>
    </g>
   </g>
   <g id="text_17">
    <g clip-path="url(#p290509d4ea)">
     <!-- 16 -->
     <g transform="translate(33.624277 186.02985) scale(0.1 -0.1)">
      <use xlink:href="#DejaVuSans-31"/>
      <use xlink:href="#DejaVuSans-36" x="63.623047"/>
     </g>
    </g>
   </g>
   <g id="text_18">
    <g clip-path="url(#p290509d4ea)">
     <!-- 17 -->
     <g transform="translate(57.699866 160.219447) scale(0.1 -0.1)">
      <use xlink:href="#DejaVuSans-31"/>
      <use xlink:href="#DejaVuSans-37" x="63.623047"/>
     </g>
    </g>
   </g>
   <g id="text_19">
    <g clip-path="url(#p290509d4ea)">
     <!-- 18 -->
     <g transform="translate(181.730753 32.749458) scale(0.1 -0.1)">
      <use xlink:href="#DejaVuSans-31"/>
      <use xlink:href="#DejaVuSans-38" x="63.623047"/>
     </g>
    </g>
   </g>
   <g id="text_20">
    <g clip-path="url(#p290509d4ea)">
     <!-- 19 -->
     <g transform="translate(242.84384 318.369292) scale(0.1 -0.1)">
      <use xlink:href="#DejaVuSans-31"/>
      <use xlink:href="#DejaVuSans-39" x="63.623047"/>
     </g>
    </g>
   </g>
   <g id="text_21">
    <g clip-path="url(#p290509d4ea)">
     <!-- 20 -->
     <g transform="translate(316.978659 221.847243) scale(0.1 -0.1)">
      <use xlink:href="#DejaVuSans-32"/>
      <use xlink:href="#DejaVuSans-30" x="63.623047"/>
     </g>
    </g>
   </g>
   <g id="text_22">
    <g clip-path="url(#p290509d4ea)">
     <!-- 21 -->
     <g transform="translate(414.450723 176.867699) scale(0.1 -0.1)">
      <use xlink:href="#DejaVuSans-32"/>
      <use xlink:href="#DejaVuSans-31" x="63.623047"/>
     </g>
    </g>
   </g>
   <g id="text_23">
    <g clip-path="url(#p290509d4ea)">
     <!-- 22 -->
     <g transform="translate(102.518098 149.83534) scale(0.1 -0.1)">
      <use xlink:href="#DejaVuSans-32"/>
      <use xlink:href="#DejaVuSans-32" x="63.623047"/>
     </g>
    </g>
   </g>
   <g id="text_24">
    <g clip-path="url(#p290509d4ea)">
     <!-- 23 -->
     <g transform="translate(45.895062 223.992175) scale(0.1 -0.1)">
      <use xlink:href="#DejaVuSans-32"/>
      <use xlink:href="#DejaVuSans-33" x="63.623047"/>
     </g>
    </g>
   </g>
   <g id="text_25">
    <g clip-path="url(#p290509d4ea)">
     <!-- 24 -->
     <g transform="translate(143.693075 189.521274) scale(0.1 -0.1)">
      <use xlink:href="#DejaVuSans-32"/>
      <use xlink:href="#DejaVuSans-34" x="63.623047"/>
     </g>
    </g>
   </g>
   <g id="text_26">
    <g clip-path="url(#p290509d4ea)">
     <!-- 25 -->
     <g transform="translate(87.708989 240.931581) scale(0.1 -0.1)">
      <use xlink:href="#DejaVuSans-32"/>
      <use xlink:href="#DejaVuSans-35" x="63.623047"/>
     </g>
    </g>
   </g>
   <g id="text_27">
    <g clip-path="url(#p290509d4ea)">
     <!-- 26 -->
     <g transform="translate(134.664433 237.845564) scale(0.1 -0.1)">
      <use xlink:href="#DejaVuSans-32"/>
      <use xlink:href="#DejaVuSans-36" x="63.623047"/>
     </g>
    </g>
   </g>
  </g>
 </g>
 <defs>
  <clipPath id="p290509d4ea">
   <rect x="0" y="0" width="460.8" height="345.6"/>
  </clipPath>
 </defs>
</svg>
