<?xml version="1.0" encoding="utf-8" standalone="no"?>
<!DOCTYPE svg PUBLIC "-//W3C//DTD SVG 1.1//EN"
  "http://www.w3.org/Graphics/SVG/1.1/DTD/svg11.dtd">
<svg xmlns:xlink="http://www.w3.org/1999/xlink" width="460.8pt" height="345.6pt" viewBox="0 0 460.8 345.6" xmlns="http://www.w3.org/2000/svg" version="1.1">
 <metadata>
  <rdf:RDF xmlns:dc="http://purl.org/dc/elements/1.1/" xmlns:cc="http://creativecommons.org/ns#" xmlns:rdf="http://www.w3.org/1999/02/22-rdf-syntax-ns#">
   <cc:Work>
    <dc:type rdf:resource="http://purl.org/dc/dcmitype/StillImage"/>
    <dc:date>2023-10-10T10:56:15.463312</dc:date>
    <dc:format>image/svg+xml</dc:format>
    <dc:creator>
     <cc:Agent>
      <dc:title>Matplotlib v3.6.1, https://matplotlib.org/</dc:title>
     </cc:Agent>
    </dc:creator>
   </cc:Work>
  </rdf:RDF>
 </metadata>
 <defs>
  <style type="text/css">*{stroke-linejoin: round; stroke-linecap: butt}</style>
 </defs>
 <g id="figure_1">
  <g id="patch_1">
   <path d="M 0 345.6 
L 460.8 345.6 
L 460.8 0 
L 0 0 
z
" style="fill: #ffffff"/>
  </g>
  <g id="axes_1">
   <g id="patch_2">
    <path d="M 270.58748 83.167695 
Q 257.214383 100.820109 244.51642 117.581349 
" clip-path="url(#p6ddb987ece)" style="fill: none; stroke: #000000; stroke-linecap: round"/>
    <path d="M 248.526039 115.600704 
L 244.51642 117.581349 
L 245.337676 113.185267 
L 248.526039 115.600704 
z
" clip-path="url(#p6ddb987ece)" style="stroke: #000000; stroke-linecap: round"/>
   </g>
   <g id="patch_3">
    <path d="M 405.534876 133.559681 
Q 380.479851 148.504301 356.385023 162.87619 
" clip-path="url(#p6ddb987ece)" style="fill: none; stroke: #000000; stroke-linecap: round"/>
    <path d="M 360.844863 162.544779 
L 356.385023 162.87619 
L 358.795798 159.109472 
L 360.844863 162.544779 
z
" clip-path="url(#p6ddb987ece)" style="stroke: #000000; stroke-linecap: round"/>
   </g>
   <g id="patch_4">
    <path d="M 288.072699 90.9149 
Q 266.187795 104.943175 245.24415 118.3681 
" clip-path="url(#p6ddb987ece)" style="fill: none; stroke: #000000; stroke-linecap: round"/>
    <path d="M 249.691007 117.893267 
L 245.24415 118.3681 
L 247.532398 114.525715 
L 249.691007 117.893267 
z
" clip-path="url(#p6ddb987ece)" style="stroke: #000000; stroke-linecap: round"/>
   </g>
   <g id="patch_5">
    <path d="M 155.255974 68.396539 
Q 162.895133 86.759784 170.104863 104.090754 
" clip-path="url(#p6ddb987ece)" style="fill: none; stroke: #000000; stroke-linecap: round"/>
    <path d="M 170.41508 99.62939 
L 170.104863 104.090754 
L 166.721902 101.165762 
L 170.41508 99.62939 
z
" clip-path="url(#p6ddb987ece)" style="stroke: #000000; stroke-linecap: round"/>
   </g>
   <g id="patch_6">
    <path d="M 355.419517 163.452087 
Q 380.474542 148.507467 404.56937 134.135578 
" clip-path="url(#p6ddb987ece)" style="fill: none; stroke: #000000; stroke-linecap: round"/>
    <path d="M 400.10953 134.466989 
L 404.56937 134.135578 
L 402.158595 137.902296 
L 400.10953 134.466989 
z
" clip-path="url(#p6ddb987ece)" style="stroke: #000000; stroke-linecap: round"/>
   </g>
   <g id="patch_7">
    <path d="M 352.313664 165.731445 
Q 334.116756 181.957244 316.754321 197.438962 
" clip-path="url(#p6ddb987ece)" style="fill: none; stroke: #000000; stroke-linecap: round"/>
    <path d="M 321.070871 196.269605 
L 316.754321 197.438962 
L 318.408766 193.284108 
L 321.070871 196.269605 
z
" clip-path="url(#p6ddb987ece)" style="stroke: #000000; stroke-linecap: round"/>
   </g>
   <g id="patch_8">
    <path d="M 351.842824 164.703662 
Q 304.772345 171.12309 258.809645 177.391441 
" clip-path="url(#p6ddb987ece)" style="fill: none; stroke: #000000; stroke-linecap: round"/>
    <path d="M 263.043214 178.832584 
L 258.809645 177.391441 
L 262.502701 174.869272 
L 263.043214 178.832584 
z
" clip-path="url(#p6ddb987ece)" style="stroke: #000000; stroke-linecap: round"/>
   </g>
   <g id="patch_9">
    <path d="M 355.629777 163.94735 
Q 387.284568 155.570901 417.858526 147.480461 
" clip-path="url(#p6ddb987ece)" style="fill: none; stroke: #000000; stroke-linecap: round"/>
    <path d="M 413.479994 146.570264 
L 417.858526 147.480461 
L 414.503249 150.437168 
L 413.479994 146.570264 
z
" clip-path="url(#p6ddb987ece)" style="stroke: #000000; stroke-linecap: round"/>
   </g>
   <g id="patch_10">
    <path d="M 272.408032 201.972867 
Q 264.643867 190.686672 257.513372 180.321597 
" clip-path="url(#p6ddb987ece)" style="fill: none; stroke: #000000; stroke-linecap: round"/>
    <path d="M 258.132711 184.750639 
L 257.513372 180.321597 
L 261.428209 182.483551 
L 258.132711 184.750639 
z
" clip-path="url(#p6ddb987ece)" style="stroke: #000000; stroke-linecap: round"/>
   </g>
   <g id="patch_11">
    <path d="M 329.024616 203.949393 
Q 344.833302 210.076074 359.599506 215.79874 
" clip-path="url(#p6ddb987ece)" style="fill: none; stroke: #000000; stroke-linecap: round"/>
    <path d="M 356.59253 212.488438 
L 359.599506 215.79874 
L 355.147079 216.218139 
L 356.59253 212.488438 
z
" clip-path="url(#p6ddb987ece)" style="stroke: #000000; stroke-linecap: round"/>
   </g>
   <g id="patch_12">
    <path d="M 325.395845 202.600352 
Q 291.500163 190.527001 258.657697 178.828796 
" clip-path="url(#p6ddb987ece)" style="fill: none; stroke: #000000; stroke-linecap: round"/>
    <path d="M 261.754716 182.055012 
L 258.657697 178.828796 
L 263.096882 178.28691 
L 261.754716 182.055012 
z
" clip-path="url(#p6ddb987ece)" style="stroke: #000000; stroke-linecap: round"/>
   </g>
   <g id="patch_13">
    <path d="M 418.942888 147.193519 
Q 387.288097 155.569967 356.714139 163.660407 
" clip-path="url(#p6ddb987ece)" style="fill: none; stroke: #000000; stroke-linecap: round"/>
    <path d="M 361.092671 164.570604 
L 356.714139 163.660407 
L 360.069416 160.7037 
L 361.092671 164.570604 
z
" clip-path="url(#p6ddb987ece)" style="stroke: #000000; stroke-linecap: round"/>
   </g>
   <g id="patch_14">
    <path d="M 98.782182 260.668094 
Q 123.598914 250.300311 147.384021 240.363513 
" clip-path="url(#p6ddb987ece)" style="fill: none; stroke: #000000; stroke-linecap: round"/>
    <path d="M 142.922195 240.060029 
L 147.384021 240.363513 
L 144.464138 243.750884 
L 142.922195 240.060029 
z
" clip-path="url(#p6ddb987ece)" style="stroke: #000000; stroke-linecap: round"/>
   </g>
   <g id="patch_15">
    <path d="M 73.707637 31.182549 
Q 91.865768 45.373477 109.142976 58.875948 
" clip-path="url(#p6ddb987ece)" style="fill: none; stroke: #000000; stroke-linecap: round"/>
    <path d="M 107.222842 54.837002 
L 109.142976 58.875948 
L 104.759739 57.988688 
L 107.222842 54.837002 
z
" clip-path="url(#p6ddb987ece)" style="stroke: #000000; stroke-linecap: round"/>
   </g>
   <g id="patch_16">
    <path d="M 315.922253 198.180899 
Q 334.11916 181.955101 351.481596 166.473383 
" clip-path="url(#p6ddb987ece)" style="fill: none; stroke: #000000; stroke-linecap: round"/>
    <path d="M 347.165045 167.642739 
L 351.481596 166.473383 
L 349.827151 170.628237 
L 347.165045 167.642739 
z
" clip-path="url(#p6ddb987ece)" style="stroke: #000000; stroke-linecap: round"/>
   </g>
   <g id="patch_17">
    <path d="M 316.393193 199.728282 
Q 350.906687 204.377805 384.312156 208.878059 
" clip-path="url(#p6ddb987ece)" style="fill: none; stroke: #000000; stroke-linecap: round"/>
    <path d="M 380.614986 206.361924 
L 384.312156 208.878059 
L 380.080946 210.326114 
L 380.614986 206.361924 
z
" clip-path="url(#p6ddb987ece)" style="stroke: #000000; stroke-linecap: round"/>
   </g>
   <g id="patch_18">
    <path d="M 314.05705 197.581349 
Q 312.366465 189.968433 310.918256 183.446962 
" clip-path="url(#p6ddb987ece)" style="fill: none; stroke: #000000; stroke-linecap: round"/>
    <path d="M 309.832966 187.785412 
L 310.918256 183.446962 
L 313.737841 186.918264 
L 309.832966 187.785412 
z
" clip-path="url(#p6ddb987ece)" style="stroke: #000000; stroke-linecap: round"/>
   </g>
   <g id="patch_19">
    <path d="M 316.294789 200.130837 
Q 338.460831 208.185881 359.576071 215.859068 
" clip-path="url(#p6ddb987ece)" style="fill: none; stroke: #000000; stroke-linecap: round"/>
    <path d="M 356.499694 212.613163 
L 359.576071 215.859068 
L 355.133521 216.372627 
L 356.499694 212.613163 
z
" clip-path="url(#p6ddb987ece)" style="stroke: #000000; stroke-linecap: round"/>
   </g>
   <g id="patch_20">
    <path d="M 313.505455 201.145144 
Q 306.441683 213.330626 299.938624 224.548843 
" clip-path="url(#p6ddb987ece)" style="fill: none; stroke: #000000; stroke-linecap: round"/>
    <path d="M 303.674984 222.091281 
L 299.938624 224.548843 
L 300.21439 220.085218 
L 303.674984 222.091281 
z
" clip-path="url(#p6ddb987ece)" style="stroke: #000000; stroke-linecap: round"/>
   </g>
   <g id="patch_21">
    <path d="M 312.556279 199.725343 
Q 269.469663 205.453356 227.491329 211.034031 
" clip-path="url(#p6ddb987ece)" style="fill: none; stroke: #000000; stroke-linecap: round"/>
    <path d="M 231.720008 212.489459 
L 227.491329 211.034031 
L 231.192879 208.524344 
L 231.720008 212.489459 
z
" clip-path="url(#p6ddb987ece)" style="stroke: #000000; stroke-linecap: round"/>
   </g>
   <g id="patch_22">
    <path d="M 312.660175 198.799629 
Q 285.128757 188.637108 258.646198 178.861747 
" clip-path="url(#p6ddb987ece)" style="fill: none; stroke: #000000; stroke-linecap: round"/>
    <path d="M 261.706141 182.12315 
L 258.646198 178.861747 
L 263.091286 178.370634 
L 261.706141 182.12315 
z
" clip-path="url(#p6ddb987ece)" style="stroke: #000000; stroke-linecap: round"/>
   </g>
   <g id="patch_23">
    <path d="M 385.421721 209.027536 
Q 350.908227 204.378013 317.502758 199.877758 
" clip-path="url(#p6ddb987ece)" style="fill: none; stroke: #000000; stroke-linecap: round"/>
    <path d="M 321.199928 202.393893 
L 317.502758 199.877758 
L 321.733968 198.429703 
L 321.199928 202.393893 
z
" clip-path="url(#p6ddb987ece)" style="stroke: #000000; stroke-linecap: round"/>
   </g>
   <g id="patch_24">
    <path d="M 196.260333 119.793611 
Q 199.918425 140.711657 203.383921 160.528383 
" clip-path="url(#p6ddb987ece)" style="fill: none; stroke: #000000; stroke-linecap: round"/>
    <path d="M 204.66497 156.243653 
L 203.383921 160.528383 
L 200.724766 156.932705 
L 204.66497 156.243653 
z
" clip-path="url(#p6ddb987ece)" style="stroke: #000000; stroke-linecap: round"/>
   </g>
   <g id="patch_25">
    <path d="M 56.570828 199.539536 
Q 88.44438 198.035928 119.20114 196.585005 
" clip-path="url(#p6ddb987ece)" style="fill: none; stroke: #000000; stroke-linecap: round"/>
    <path d="M 115.11134 194.775713 
L 119.20114 196.585005 
L 115.299827 198.77127 
L 115.11134 194.775713 
z
" clip-path="url(#p6ddb987ece)" style="stroke: #000000; stroke-linecap: round"/>
   </g>
   <g id="patch_26">
    <path d="M 226.118008 195.495077 
Q 261.554455 168.457423 296.102047 142.097957 
" clip-path="url(#p6ddb987ece)" style="fill: none; stroke: #000000; stroke-linecap: round"/>
    <path d="M 291.708806 142.934282 
L 296.102047 142.097957 
L 294.135162 146.114344 
L 291.708806 142.934282 
z
" clip-path="url(#p6ddb987ece)" style="stroke: #000000; stroke-linecap: round"/>
   </g>
   <g id="patch_27">
    <path d="M 225.021599 194.785747 
Q 233.623706 158.344075 241.968958 122.990533 
" clip-path="url(#p6ddb987ece)" style="fill: none; stroke: #000000; stroke-linecap: round"/>
    <path d="M 239.103502 126.424068 
L 241.968958 122.990533 
L 242.996513 127.343019 
L 239.103502 126.424068 
z
" clip-path="url(#p6ddb987ece)" style="stroke: #000000; stroke-linecap: round"/>
   </g>
   <g id="patch_28">
    <path d="M 226.365507 197.410747 
Q 261.491249 211.93133 295.583761 226.024788 
" clip-path="url(#p6ddb987ece)" style="fill: none; stroke: #000000; stroke-linecap: round"/>
    <path d="M 292.651231 222.64836 
L 295.583761 226.024788 
L 291.123101 226.344955 
L 292.651231 222.64836 
z
" clip-path="url(#p6ddb987ece)" style="stroke: #000000; stroke-linecap: round"/>
   </g>
   <g id="patch_29">
    <path d="M 223.972356 198.506228 
Q 211.787805 235.513392 199.952901 271.458602 
" clip-path="url(#p6ddb987ece)" style="fill: none; stroke: #000000; stroke-linecap: round"/>
    <path d="M 203.103517 268.284706 
L 199.952901 271.458602 
L 199.304154 267.033771 
L 203.103517 268.284706 
z
" clip-path="url(#p6ddb987ece)" style="stroke: #000000; stroke-linecap: round"/>
   </g>
   <g id="patch_30">
    <path d="M 226.233546 195.669367 
Q 240.179827 187.237368 253.16935 179.38383 
" clip-path="url(#p6ddb987ece)" style="fill: none; stroke: #000000; stroke-linecap: round"/>
    <path d="M 248.711572 179.741894 
L 253.16935 179.38383 
L 250.781135 183.164891 
L 248.711572 179.741894 
z
" clip-path="url(#p6ddb987ece)" style="stroke: #000000; stroke-linecap: round"/>
   </g>
   <g id="patch_31">
    <path d="M 222.953312 197.729788 
Q 204.398789 209.830092 186.780754 221.319667 
" clip-path="url(#p6ddb987ece)" style="fill: none; stroke: #000000; stroke-linecap: round"/>
    <path d="M 191.223741 220.809896 
L 186.780754 221.319667 
L 189.03873 217.459415 
L 191.223741 220.809896 
z
" clip-path="url(#p6ddb987ece)" style="stroke: #000000; stroke-linecap: round"/>
   </g>
   <g id="patch_32">
    <path d="M 223.592562 198.340609 
Q 214.373107 213.982303 205.721362 228.660823 
" clip-path="url(#p6ddb987ece)" style="fill: none; stroke: #000000; stroke-linecap: round"/>
    <path d="M 209.475442 226.230415 
L 205.721362 228.660823 
L 206.029483 224.199314 
L 209.475442 226.230415 
z
" clip-path="url(#p6ddb987ece)" style="stroke: #000000; stroke-linecap: round"/>
   </g>
   <g id="patch_33">
    <path d="M 222.637382 196.666843 
Q 173.415412 196.556091 125.311474 196.447855 
" clip-path="url(#p6ddb987ece)" style="fill: none; stroke: #000000; stroke-linecap: round"/>
    <path d="M 129.306963 198.45685 
L 125.311474 196.447855 
L 129.315964 194.45686 
L 129.306963 198.45685 
z
" clip-path="url(#p6ddb987ece)" style="stroke: #000000; stroke-linecap: round"/>
   </g>
   <g id="patch_34">
    <path d="M 242.954613 89.796863 
Q 242.821755 103.938895 242.6994 116.962942 
" clip-path="url(#p6ddb987ece)" style="fill: none; stroke: #000000; stroke-linecap: round"/>
    <path d="M 244.736889 112.981907 
L 242.6994 116.962942 
L 240.737065 112.944331 
L 244.736889 112.981907 
z
" clip-path="url(#p6ddb987ece)" style="stroke: #000000; stroke-linecap: round"/>
   </g>
   <g id="patch_35">
    <path d="M 244.829521 88.416367 
Q 270.679978 96.138846 295.45918 103.541303 
" clip-path="url(#p6ddb987ece)" style="fill: none; stroke: #000000; stroke-linecap: round"/>
    <path d="M 292.199019 100.480036 
L 295.45918 103.541303 
L 291.054071 104.312672 
L 292.199019 100.480036 
z
" clip-path="url(#p6ddb987ece)" style="stroke: #000000; stroke-linecap: round"/>
   </g>
   <g id="patch_36">
    <path d="M 243.895743 86.157052 
Q 253.852155 67.768065 263.276244 50.362251 
" clip-path="url(#p6ddb987ece)" style="fill: none; stroke: #000000; stroke-linecap: round"/>
    <path d="M 259.61299 52.927514 
L 263.276244 50.362251 
L 263.130501 54.832012 
L 259.61299 52.927514 
z
" clip-path="url(#p6ddb987ece)" style="stroke: #000000; stroke-linecap: round"/>
   </g>
   <g id="patch_37">
    <path d="M 241.104295 88.358183 
Q 207.12687 97.386515 174.229984 106.12773 
" clip-path="url(#p6ddb987ece)" style="fill: none; stroke: #000000; stroke-linecap: round"/>
    <path d="M 178.609446 107.033439 
L 174.229984 106.12773 
L 177.582229 103.167586 
L 178.609446 107.033439 
z
" clip-path="url(#p6ddb987ece)" style="stroke: #000000; stroke-linecap: round"/>
   </g>
   <g id="patch_38">
    <path d="M 364.96166 145.444486 
Q 332.713443 142.920213 301.57985 140.483188 
" clip-path="url(#p6ddb987ece)" style="fill: none; stroke: #000000; stroke-linecap: round"/>
    <path d="M 305.411576 142.78924 
L 301.57985 140.483188 
L 305.723727 138.801438 
L 305.411576 142.78924 
z
" clip-path="url(#p6ddb987ece)" style="stroke: #000000; stroke-linecap: round"/>
   </g>
   <g id="patch_39">
    <path d="M 271.762802 115.764134 
Q 284.433017 127.351391 296.27819 138.184125 
" clip-path="url(#p6ddb987ece)" style="fill: none; stroke: #000000; stroke-linecap: round"/>
    <path d="M 294.676162 134.00878 
L 296.27819 138.184125 
L 291.976697 136.96054 
L 294.676162 134.00878 
z
" clip-path="url(#p6ddb987ece)" style="stroke: #000000; stroke-linecap: round"/>
   </g>
   <g id="patch_40">
    <path d="M 268.464759 113.941249 
Q 243.603871 107.072521 219.820642 100.501536 
" clip-path="url(#p6ddb987ece)" style="fill: none; stroke: #000000; stroke-linecap: round"/>
    <path d="M 223.143575 103.494548 
L 219.820642 100.501536 
L 224.208811 99.638997 
L 223.143575 103.494548 
z
" clip-path="url(#p6ddb987ece)" style="stroke: #000000; stroke-linecap: round"/>
   </g>
   <g id="patch_41">
    <path d="M 250.41929 245.905827 
Q 255.090213 263.522423 259.474597 280.058327 
" clip-path="url(#p6ddb987ece)" style="fill: none; stroke: #000000; stroke-linecap: round"/>
    <path d="M 260.382648 275.679349 
L 259.474597 280.058327 
L 256.516245 276.7045 
L 260.382648 275.679349 
z
" clip-path="url(#p6ddb987ece)" style="stroke: #000000; stroke-linecap: round"/>
   </g>
   <g id="patch_42">
    <path d="M 250.094104 242.107872 
Q 252.852678 210.919663 255.512746 180.845139 
" clip-path="url(#p6ddb987ece)" style="fill: none; stroke: #000000; stroke-linecap: round"/>
    <path d="M 253.168103 184.653373 
L 255.512746 180.845139 
L 257.152547 185.005794 
L 253.168103 184.653373 
z
" clip-path="url(#p6ddb987ece)" style="stroke: #000000; stroke-linecap: round"/>
   </g>
   <g id="patch_43">
    <path d="M 248.260642 245.026269 
Q 224.460738 259.197382 201.621474 272.796504 
" clip-path="url(#p6ddb987ece)" style="fill: none; stroke: #000000; stroke-linecap: round"/>
    <path d="M 206.081567 272.468531 
L 201.621474 272.796504 
L 204.035152 269.031646 
L 206.081567 272.468531 
z
" clip-path="url(#p6ddb987ece)" style="stroke: #000000; stroke-linecap: round"/>
   </g>
   <g id="patch_44">
    <path d="M 248.731539 242.510029 
Q 237.193159 227.737783 226.343 213.846645 
" clip-path="url(#p6ddb987ece)" style="fill: none; stroke: #000000; stroke-linecap: round"/>
    <path d="M 227.229078 218.230122 
L 226.343 213.846645 
L 230.381428 215.767869 
L 227.229078 218.230122 
z
" clip-path="url(#p6ddb987ece)" style="stroke: #000000; stroke-linecap: round"/>
   </g>
   <g id="patch_45">
    <path d="M 251.318277 245.383124 
Q 267.918294 261.415078 283.714101 276.670343 
" clip-path="url(#p6ddb987ece)" style="fill: none; stroke: #000000; stroke-linecap: round"/>
    <path d="M 282.226257 272.45296 
L 283.714101 276.670343 
L 279.447488 275.330189 
L 282.226257 272.45296 
z
" clip-path="url(#p6ddb987ece)" style="stroke: #000000; stroke-linecap: round"/>
   </g>
   <g id="patch_46">
    <path d="M 171.612562 214.631297 
Q 197.070612 213.0925 221.412664 211.621158 
" clip-path="url(#p6ddb987ece)" style="fill: none; stroke: #000000; stroke-linecap: round"/>
    <path d="M 217.299283 209.866139 
L 221.412664 211.621158 
L 217.54062 213.858852 
L 217.299283 209.866139 
z
" clip-path="url(#p6ddb987ece)" style="stroke: #000000; stroke-linecap: round"/>
   </g>
   <g id="patch_47">
    <path d="M 203.576569 161.63 
Q 199.918477 140.711954 196.452981 120.895228 
" clip-path="url(#p6ddb987ece)" style="fill: none; stroke: #000000; stroke-linecap: round"/>
    <path d="M 195.171931 125.179958 
L 196.452981 120.895228 
L 199.112135 124.490906 
L 195.171931 125.179958 
z
" clip-path="url(#p6ddb987ece)" style="stroke: #000000; stroke-linecap: round"/>
   </g>
   <g id="patch_48">
    <path d="M 204.674233 165.319142 
Q 214.185285 187.487143 223.255512 208.627684 
" clip-path="url(#p6ddb987ece)" style="fill: none; stroke: #000000; stroke-linecap: round"/>
    <path d="M 223.516342 204.163161 
L 223.255512 208.627684 
L 219.840391 205.740306 
L 223.516342 204.163161 
z
" clip-path="url(#p6ddb987ece)" style="stroke: #000000; stroke-linecap: round"/>
   </g>
   <g id="patch_49">
    <path d="M 226.380991 211.181641 
Q 269.467608 205.453629 311.445942 199.872954 
" clip-path="url(#p6ddb987ece)" style="fill: none; stroke: #000000; stroke-linecap: round"/>
    <path d="M 307.217263 198.417526 
L 311.445942 199.872954 
L 307.744392 202.38264 
L 307.217263 198.417526 
z
" clip-path="url(#p6ddb987ece)" style="stroke: #000000; stroke-linecap: round"/>
   </g>
   <g id="patch_50">
    <path d="M 225.652809 212.963014 
Q 237.191189 227.73526 248.041348 241.626398 
" clip-path="url(#p6ddb987ece)" style="fill: none; stroke: #000000; stroke-linecap: round"/>
    <path d="M 247.15527 237.242921 
L 248.041348 241.626398 
L 244.00292 239.705175 
L 247.15527 237.242921 
z
" clip-path="url(#p6ddb987ece)" style="stroke: #000000; stroke-linecap: round"/>
   </g>
   <g id="patch_51">
    <path d="M 222.524755 211.553939 
Q 197.066705 213.092736 172.724652 214.564078 
" clip-path="url(#p6ddb987ece)" style="fill: none; stroke: #000000; stroke-linecap: round"/>
    <path d="M 176.838034 216.319097 
L 172.724652 214.564078 
L 176.596697 212.326384 
L 176.838034 216.319097 
z
" clip-path="url(#p6ddb987ece)" style="stroke: #000000; stroke-linecap: round"/>
   </g>
   <g id="patch_52">
    <path d="M 223.696928 209.656521 
Q 214.185876 187.48852 205.11565 166.347979 
" clip-path="url(#p6ddb987ece)" style="fill: none; stroke: #000000; stroke-linecap: round"/>
    <path d="M 204.854819 170.812502 
L 205.11565 166.347979 
L 208.53077 169.235357 
L 204.854819 170.812502 
z
" clip-path="url(#p6ddb987ece)" style="stroke: #000000; stroke-linecap: round"/>
   </g>
   <g id="patch_53">
    <path d="M 222.64329 212.116089 
Q 187.330956 225.311754 153.065922 238.11606 
" clip-path="url(#p6ddb987ece)" style="fill: none; stroke: #000000; stroke-linecap: round"/>
    <path d="M 157.512943 238.589356 
L 153.065922 238.11606 
L 156.112772 234.842421 
L 157.512943 238.589356 
z
" clip-path="url(#p6ddb987ece)" style="stroke: #000000; stroke-linecap: round"/>
   </g>
   <g id="patch_54">
    <path d="M 224.86511 213.330987 
Q 227.434209 225.366321 229.769907 236.308254 
" clip-path="url(#p6ddb987ece)" style="fill: none; stroke: #000000; stroke-linecap: round"/>
    <path d="M 230.890802 231.978866 
L 229.769907 236.308254 
L 226.978934 232.813905 
L 230.890802 231.978866 
z
" clip-path="url(#p6ddb987ece)" style="stroke: #000000; stroke-linecap: round"/>
   </g>
   <g id="patch_55">
    <path d="M 148.411959 239.934068 
Q 123.595226 250.301852 99.810119 260.238649 
" clip-path="url(#p6ddb987ece)" style="fill: none; stroke: #000000; stroke-linecap: round"/>
    <path d="M 104.271945 260.542134 
L 99.810119 260.238649 
L 102.730002 256.851279 
L 104.271945 260.542134 
z
" clip-path="url(#p6ddb987ece)" style="stroke: #000000; stroke-linecap: round"/>
   </g>
   <g id="patch_56">
    <path d="M 152.018891 238.507319 
Q 187.331225 225.311654 221.596258 212.507349 
" clip-path="url(#p6ddb987ece)" style="fill: none; stroke: #000000; stroke-linecap: round"/>
    <path d="M 217.149238 212.034052 
L 221.596258 212.507349 
L 218.549409 215.780987 
L 217.149238 212.034052 
z
" clip-path="url(#p6ddb987ece)" style="stroke: #000000; stroke-linecap: round"/>
   </g>
   <g id="patch_57">
    <path d="M 230.002878 237.399641 
Q 227.433779 225.364308 225.098081 214.422375 
" clip-path="url(#p6ddb987ece)" style="fill: none; stroke: #000000; stroke-linecap: round"/>
    <path d="M 223.977187 218.751762 
L 225.098081 214.422375 
L 227.889054 217.916723 
L 223.977187 218.751762 
z
" clip-path="url(#p6ddb987ece)" style="stroke: #000000; stroke-linecap: round"/>
   </g>
   <g id="patch_58">
    <path d="M 133.396475 76.777796 
Q 151.580265 91.242538 168.889088 105.011266 
" clip-path="url(#p6ddb987ece)" style="fill: none; stroke: #000000; stroke-linecap: round"/>
    <path d="M 167.00378 100.955946 
L 168.889088 105.011266 
L 164.513648 104.08632 
L 167.00378 100.955946 
z
" clip-path="url(#p6ddb987ece)" style="stroke: #000000; stroke-linecap: round"/>
   </g>
   <g id="patch_59">
    <path d="M 122.94107 89.252551 
Q 146.199624 97.749752 168.408032 105.863296 
" clip-path="url(#p6ddb987ece)" style="fill: none; stroke: #000000; stroke-linecap: round"/>
    <path d="M 165.33722 102.612125 
L 168.408032 105.863296 
L 163.964607 106.369243 
L 165.33722 102.612125 
z
" clip-path="url(#p6ddb987ece)" style="stroke: #000000; stroke-linecap: round"/>
   </g>
   <g id="patch_60">
    <path d="M 205.153678 229.623954 
Q 214.373133 213.98226 223.024878 199.30374 
" clip-path="url(#p6ddb987ece)" style="fill: none; stroke: #000000; stroke-linecap: round"/>
    <path d="M 219.270798 201.734148 
L 223.024878 199.30374 
L 222.716756 203.765249 
L 219.270798 201.734148 
z
" clip-path="url(#p6ddb987ece)" style="stroke: #000000; stroke-linecap: round"/>
   </g>
   <g id="patch_61">
    <path d="M 285.968877 186.449789 
Q 271.80574 182.393564 258.717426 178.645162 
" clip-path="url(#p6ddb987ece)" style="fill: none; stroke: #000000; stroke-linecap: round"/>
    <path d="M 262.012182 181.669162 
L 258.717426 178.645162 
L 263.11348 177.823756 
L 262.012182 181.669162 
z
" clip-path="url(#p6ddb987ece)" style="stroke: #000000; stroke-linecap: round"/>
   </g>
   <g id="patch_62">
    <path d="M 120.31865 196.532287 
Q 88.445098 198.035895 57.688337 199.486818 
" clip-path="url(#p6ddb987ece)" style="fill: none; stroke: #000000; stroke-linecap: round"/>
    <path d="M 61.778137 201.29611 
L 57.688337 199.486818 
L 61.58965 197.300553 
L 61.778137 201.29611 
z
" clip-path="url(#p6ddb987ece)" style="stroke: #000000; stroke-linecap: round"/>
   </g>
   <g id="patch_63">
    <path d="M 124.193431 196.445339 
Q 173.415401 196.556091 221.519339 196.664327 
" clip-path="url(#p6ddb987ece)" style="fill: none; stroke: #000000; stroke-linecap: round"/>
    <path d="M 217.52385 194.655332 
L 221.519339 196.664327 
L 217.514849 198.655322 
L 217.52385 194.655332 
z
" clip-path="url(#p6ddb987ece)" style="stroke: #000000; stroke-linecap: round"/>
   </g>
   <g id="patch_64">
    <path d="M 123.663675 195.117062 
Q 139.774025 179.983835 155.069479 165.616078 
" clip-path="url(#p6ddb987ece)" style="fill: none; stroke: #000000; stroke-linecap: round"/>
    <path d="M 150.784705 166.896979 
L 155.069479 165.616078 
L 153.523336 169.812438 
L 150.784705 166.896979 
z
" clip-path="url(#p6ddb987ece)" style="stroke: #000000; stroke-linecap: round"/>
   </g>
   <g id="patch_65">
    <path d="M 120.397919 197.004308 
Q 91.529872 205.764628 63.731683 214.200287 
" clip-path="url(#p6ddb987ece)" style="fill: none; stroke: #000000; stroke-linecap: round"/>
    <path d="M 68.140093 214.952569 
L 63.731683 214.200287 
L 66.978554 211.124929 
L 68.140093 214.952569 
z
" clip-path="url(#p6ddb987ece)" style="stroke: #000000; stroke-linecap: round"/>
   </g>
   <g id="patch_66">
    <path d="M 62.666994 214.523379 
Q 91.53504 205.763059 119.333229 197.3274 
" clip-path="url(#p6ddb987ece)" style="fill: none; stroke: #000000; stroke-linecap: round"/>
    <path d="M 114.92482 196.575118 
L 119.333229 197.3274 
L 116.086358 200.402758 
L 114.92482 196.575118 
z
" clip-path="url(#p6ddb987ece)" style="stroke: #000000; stroke-linecap: round"/>
   </g>
   <g id="patch_67">
    <path d="M 349.029476 115.287401 
Q 324.647961 127.337177 301.268754 138.891594 
" clip-path="url(#p6ddb987ece)" style="fill: none; stroke: #000000; stroke-linecap: round"/>
    <path d="M 305.740842 138.91233 
L 301.268754 138.891594 
L 303.968595 135.326365 
L 305.740842 138.91233 
z
" clip-path="url(#p6ddb987ece)" style="stroke: #000000; stroke-linecap: round"/>
   </g>
   <g id="patch_68">
    <path d="M 357.309137 128.907053 
Q 328.872647 134.392079 301.533956 139.665354 
" clip-path="url(#p6ddb987ece)" style="fill: none; stroke: #000000; stroke-linecap: round"/>
    <path d="M 305.840351 140.871573 
L 301.533956 139.665354 
L 305.082768 136.94397 
L 305.840351 140.871573 
z
" clip-path="url(#p6ddb987ece)" style="stroke: #000000; stroke-linecap: round"/>
   </g>
   <g id="patch_69">
    <path d="M 296.98971 141.420679 
Q 261.553263 168.458333 227.005671 194.817799 
" clip-path="url(#p6ddb987ece)" style="fill: none; stroke: #000000; stroke-linecap: round"/>
    <path d="M 231.398911 193.981474 
L 227.005671 194.817799 
L 228.972556 190.801412 
L 231.398911 193.981474 
z
" clip-path="url(#p6ddb987ece)" style="stroke: #000000; stroke-linecap: round"/>
   </g>
   <g id="patch_70">
    <path d="M 300.463054 140.39577 
Q 332.711272 142.920043 363.844865 145.357068 
" clip-path="url(#p6ddb987ece)" style="fill: none; stroke: #000000; stroke-linecap: round"/>
    <path d="M 360.013139 143.051016 
L 363.844865 145.357068 
L 359.700988 147.038818 
L 360.013139 143.051016 
z
" clip-path="url(#p6ddb987ece)" style="stroke: #000000; stroke-linecap: round"/>
   </g>
   <g id="patch_71">
    <path d="M 297.102757 138.938214 
Q 284.432541 127.350957 272.587368 116.518223 
" clip-path="url(#p6ddb987ece)" style="fill: none; stroke: #000000; stroke-linecap: round"/>
    <path d="M 274.189396 120.693568 
L 272.587368 116.518223 
L 276.888861 117.741808 
L 274.189396 120.693568 
z
" clip-path="url(#p6ddb987ece)" style="stroke: #000000; stroke-linecap: round"/>
   </g>
   <g id="patch_72">
    <path d="M 300.268766 139.385806 
Q 324.650281 127.33603 348.029489 115.781612 
" clip-path="url(#p6ddb987ece)" style="fill: none; stroke: #000000; stroke-linecap: round"/>
    <path d="M 343.557401 115.760877 
L 348.029489 115.781612 
L 345.329648 119.346841 
L 343.557401 115.760877 
z
" clip-path="url(#p6ddb987ece)" style="stroke: #000000; stroke-linecap: round"/>
   </g>
   <g id="patch_73">
    <path d="M 300.43107 139.878087 
Q 328.867559 134.393061 356.20625 129.119785 
" clip-path="url(#p6ddb987ece)" style="fill: none; stroke: #000000; stroke-linecap: round"/>
    <path d="M 351.899855 127.913567 
L 356.20625 129.119785 
L 352.657438 131.84117 
L 351.899855 127.913567 
z
" clip-path="url(#p6ddb987ece)" style="stroke: #000000; stroke-linecap: round"/>
   </g>
   <g id="patch_74">
    <path d="M 296.707126 139.584066 
Q 270.600845 130.131083 245.545804 121.058749 
" clip-path="url(#p6ddb987ece)" style="fill: none; stroke: #000000; stroke-linecap: round"/>
    <path d="M 248.625907 124.301119 
L 245.545804 121.058749 
L 249.987762 120.540088 
L 248.625907 124.301119 
z
" clip-path="url(#p6ddb987ece)" style="stroke: #000000; stroke-linecap: round"/>
   </g>
   <g id="patch_75">
    <path d="M 298.523213 138.306989 
Q 298.457489 122.331164 298.396365 107.473363 
" clip-path="url(#p6ddb987ece)" style="fill: none; stroke: #000000; stroke-linecap: round"/>
    <path d="M 296.412838 111.481557 
L 298.396365 107.473363 
L 300.412804 111.465102 
L 296.412838 111.481557 
z
" clip-path="url(#p6ddb987ece)" style="stroke: #000000; stroke-linecap: round"/>
   </g>
   <g id="patch_76">
    <path d="M 243.840633 118.473384 
Q 257.213731 100.82097 269.911693 84.059731 
" clip-path="url(#p6ddb987ece)" style="fill: none; stroke: #000000; stroke-linecap: round"/>
    <path d="M 265.902074 86.040376 
L 269.911693 84.059731 
L 269.090438 88.455813 
L 265.902074 86.040376 
z
" clip-path="url(#p6ddb987ece)" style="stroke: #000000; stroke-linecap: round"/>
   </g>
   <g id="patch_77">
    <path d="M 244.298251 118.974424 
Q 266.183155 104.946149 287.1268 91.521224 
" clip-path="url(#p6ddb987ece)" style="fill: none; stroke: #000000; stroke-linecap: round"/>
    <path d="M 282.679943 91.996056 
L 287.1268 91.521224 
L 284.838552 95.363609 
L 282.679943 91.996056 
z
" clip-path="url(#p6ddb987ece)" style="stroke: #000000; stroke-linecap: round"/>
   </g>
   <g id="patch_78">
    <path d="M 242.225637 121.903146 
Q 233.623531 158.344817 225.278278 193.698359 
" clip-path="url(#p6ddb987ece)" style="fill: none; stroke: #000000; stroke-linecap: round"/>
    <path d="M 228.143734 190.264824 
L 225.278278 193.698359 
L 224.250724 189.345874 
L 228.143734 190.264824 
z
" clip-path="url(#p6ddb987ece)" style="stroke: #000000; stroke-linecap: round"/>
   </g>
   <g id="patch_79">
    <path d="M 242.688882 118.082517 
Q 242.82174 103.940486 242.944095 90.916438 
" clip-path="url(#p6ddb987ece)" style="fill: none; stroke: #000000; stroke-linecap: round"/>
    <path d="M 240.906607 94.897474 
L 242.944095 90.916438 
L 244.90643 94.93505 
L 240.906607 94.897474 
z
" clip-path="url(#p6ddb987ece)" style="stroke: #000000; stroke-linecap: round"/>
   </g>
   <g id="patch_80">
    <path d="M 244.49476 120.67817 
Q 270.601041 130.131154 295.656083 139.203487 
" clip-path="url(#p6ddb987ece)" style="fill: none; stroke: #000000; stroke-linecap: round"/>
    <path d="M 292.575979 135.961117 
L 295.656083 139.203487 
L 291.214124 139.722148 
L 292.575979 135.961117 
z
" clip-path="url(#p6ddb987ece)" style="stroke: #000000; stroke-linecap: round"/>
   </g>
   <g id="patch_81">
    <path d="M 240.766504 119.668126 
Q 206.974655 113.464845 174.282465 107.463432 
" clip-path="url(#p6ddb987ece)" style="fill: none; stroke: #000000; stroke-linecap: round"/>
    <path d="M 177.855611 110.152786 
L 174.282465 107.463432 
L 178.577836 106.218527 
L 177.855611 110.152786 
z
" clip-path="url(#p6ddb987ece)" style="stroke: #000000; stroke-linecap: round"/>
   </g>
   <g id="patch_82">
    <path d="M 242.56663 118.086391 
Q 241.523226 98.723686 240.539982 80.477395 
" clip-path="url(#p6ddb987ece)" style="fill: none; stroke: #000000; stroke-linecap: round"/>
    <path d="M 238.758116 84.579219 
L 240.539982 80.477395 
L 242.752321 84.363982 
L 238.758116 84.579219 
z
" clip-path="url(#p6ddb987ece)" style="stroke: #000000; stroke-linecap: round"/>
   </g>
   <g id="patch_83">
    <path d="M 241.149835 118.819043 
Q 229.772853 109.852492 219.27397 101.577998 
" clip-path="url(#p6ddb987ece)" style="fill: none; stroke: #000000; stroke-linecap: round"/>
    <path d="M 221.177563 105.624767 
L 219.27397 101.577998 
L 223.65354 102.483185 
L 221.177563 105.624767 
z
" clip-path="url(#p6ddb987ece)" style="stroke: #000000; stroke-linecap: round"/>
   </g>
   <g id="patch_84">
    <path d="M 296.527055 103.860316 
Q 270.676598 96.137837 245.897396 88.735381 
" clip-path="url(#p6ddb987ece)" style="fill: none; stroke: #000000; stroke-linecap: round"/>
    <path d="M 249.157557 91.796647 
L 245.897396 88.735381 
L 250.302505 87.964012 
L 249.157557 91.796647 
z
" clip-path="url(#p6ddb987ece)" style="stroke: #000000; stroke-linecap: round"/>
   </g>
   <g id="patch_85">
    <path d="M 298.391754 106.352549 
Q 298.457478 122.328375 298.518602 137.186175 
" clip-path="url(#p6ddb987ece)" style="fill: none; stroke: #000000; stroke-linecap: round"/>
    <path d="M 300.502129 133.177981 
L 298.518602 137.186175 
L 296.502163 133.194437 
L 300.502129 133.177981 
z
" clip-path="url(#p6ddb987ece)" style="stroke: #000000; stroke-linecap: round"/>
   </g>
   <g id="patch_86">
    <path d="M 170.53453 105.1236 
Q 162.895371 86.760356 155.685641 69.429386 
" clip-path="url(#p6ddb987ece)" style="fill: none; stroke: #000000; stroke-linecap: round"/>
    <path d="M 155.375424 73.890749 
L 155.685641 69.429386 
L 159.068601 72.354378 
L 155.375424 73.890749 
z
" clip-path="url(#p6ddb987ece)" style="stroke: #000000; stroke-linecap: round"/>
   </g>
   <g id="patch_87">
    <path d="M 173.147 106.415496 
Q 207.124425 97.387164 240.021311 88.645949 
" clip-path="url(#p6ddb987ece)" style="fill: none; stroke: #000000; stroke-linecap: round"/>
    <path d="M 235.641849 87.74024 
L 240.021311 88.645949 
L 236.669067 91.606093 
L 235.641849 87.74024 
z
" clip-path="url(#p6ddb987ece)" style="stroke: #000000; stroke-linecap: round"/>
   </g>
   <g id="patch_88">
    <path d="M 169.761105 105.704934 
Q 151.577316 91.240192 134.268493 77.471464 
" clip-path="url(#p6ddb987ece)" style="fill: none; stroke: #000000; stroke-linecap: round"/>
    <path d="M 136.1538 81.526783 
L 134.268493 77.471464 
L 138.643933 78.39641 
L 136.1538 81.526783 
z
" clip-path="url(#p6ddb987ece)" style="stroke: #000000; stroke-linecap: round"/>
   </g>
   <g id="patch_89">
    <path d="M 169.456932 106.246498 
Q 146.198378 97.749297 123.98997 89.635753 
" clip-path="url(#p6ddb987ece)" style="fill: none; stroke: #000000; stroke-linecap: round"/>
    <path d="M 127.060782 92.886925 
L 123.98997 89.635753 
L 128.433394 89.129807 
L 127.060782 92.886925 
z
" clip-path="url(#p6ddb987ece)" style="stroke: #000000; stroke-linecap: round"/>
   </g>
   <g id="patch_90">
    <path d="M 173.182701 107.261545 
Q 206.97455 113.464826 239.66674 119.466239 
" clip-path="url(#p6ddb987ece)" style="fill: none; stroke: #000000; stroke-linecap: round"/>
    <path d="M 236.093594 116.776885 
L 239.66674 119.466239 
L 235.371369 120.711143 
L 236.093594 116.776885 
z
" clip-path="url(#p6ddb987ece)" style="stroke: #000000; stroke-linecap: round"/>
   </g>
   <g id="patch_91">
    <path d="M 172.099581 105.156525 
Q 177.734687 93.10872 182.896109 82.073647 
" clip-path="url(#p6ddb987ece)" style="fill: none; stroke: #000000; stroke-linecap: round"/>
    <path d="M 179.389779 84.849552 
L 182.896109 82.073647 
L 183.013036 86.544254 
L 179.389779 84.849552 
z
" clip-path="url(#p6ddb987ece)" style="stroke: #000000; stroke-linecap: round"/>
   </g>
   <g id="patch_92">
    <path d="M 169.782726 108.139978 
Q 155.176729 120.131125 141.434858 131.412846 
" clip-path="url(#p6ddb987ece)" style="fill: none; stroke: #000000; stroke-linecap: round"/>
    <path d="M 145.795511 130.420524 
L 141.434858 131.412846 
L 143.257393 127.32893 
L 145.795511 130.420524 
z
" clip-path="url(#p6ddb987ece)" style="stroke: #000000; stroke-linecap: round"/>
   </g>
   <g id="patch_93">
    <path d="M 169.467631 107.608872 
Q 138.956633 119.350595 109.489069 130.690767 
" clip-path="url(#p6ddb987ece)" style="fill: none; stroke: #000000; stroke-linecap: round"/>
    <path d="M 113.940492 131.120688 
L 109.489069 130.690767 
L 112.503859 127.387581 
L 113.940492 131.120688 
z
" clip-path="url(#p6ddb987ece)" style="stroke: #000000; stroke-linecap: round"/>
   </g>
   <g id="patch_94">
    <path d="M 169.367587 106.607852 
Q 137.614339 101.554149 106.965228 96.676176 
" clip-path="url(#p6ddb987ece)" style="fill: none; stroke: #000000; stroke-linecap: round"/>
    <path d="M 110.601155 99.280026 
L 106.965228 96.676176 
L 111.229864 95.329744 
L 110.601155 99.280026 
z
" clip-path="url(#p6ddb987ece)" style="stroke: #000000; stroke-linecap: round"/>
   </g>
   <g id="patch_95">
    <path d="M 172.761331 108.155977 
Q 213.530442 142.358474 253.443019 175.842398 
" clip-path="url(#p6ddb987ece)" style="fill: none; stroke: #000000; stroke-linecap: round"/>
    <path d="M 251.664012 171.739334 
L 253.443019 175.842398 
L 249.093164 174.803765 
L 251.664012 171.739334 
z
" clip-path="url(#p6ddb987ece)" style="stroke: #000000; stroke-linecap: round"/>
   </g>
   <g id="patch_96">
    <path d="M 173.190449 106.609071 
Q 194.077231 103.299933 213.859752 100.165746 
" clip-path="url(#p6ddb987ece)" style="fill: none; stroke: #000000; stroke-linecap: round"/>
    <path d="M 209.596067 98.816306 
L 213.859752 100.165746 
L 210.221989 102.76703 
L 209.596067 98.816306 
z
" clip-path="url(#p6ddb987ece)" style="stroke: #000000; stroke-linecap: round"/>
   </g>
   <g id="patch_97">
    <path d="M 169.743747 105.72601 
Q 141.412615 83.833272 113.966159 62.624163 
" clip-path="url(#p6ddb987ece)" style="fill: none; stroke: #000000; stroke-linecap: round"/>
    <path d="M 115.90836 66.652545 
L 113.966159 62.624163 
L 118.354185 63.487432 
L 115.90836 66.652545 
z
" clip-path="url(#p6ddb987ece)" style="stroke: #000000; stroke-linecap: round"/>
   </g>
   <g id="patch_98">
    <path d="M 183.367748 81.065287 
Q 177.732643 93.113091 172.57122 104.148165 
" clip-path="url(#p6ddb987ece)" style="fill: none; stroke: #000000; stroke-linecap: round"/>
    <path d="M 176.07755 101.372259 
L 172.57122 104.148165 
L 172.454294 99.677558 
L 176.07755 101.372259 
z
" clip-path="url(#p6ddb987ece)" style="stroke: #000000; stroke-linecap: round"/>
   </g>
   <g id="patch_99">
    <path d="M 185.828761 80.332214 
Q 200.531753 89.498526 214.285985 98.073351 
" clip-path="url(#p6ddb987ece)" style="fill: none; stroke: #000000; stroke-linecap: round"/>
    <path d="M 211.949685 94.259992 
L 214.285985 98.073351 
L 209.833519 97.654376 
L 211.949685 94.259992 
z
" clip-path="url(#p6ddb987ece)" style="stroke: #000000; stroke-linecap: round"/>
   </g>
   <g id="patch_100">
    <path d="M 140.57086 132.122167 
Q 155.176857 120.13102 168.918728 108.849299 
" clip-path="url(#p6ddb987ece)" style="fill: none; stroke: #000000; stroke-linecap: round"/>
    <path d="M 164.558074 109.841621 
L 168.918728 108.849299 
L 167.096193 112.933215 
L 164.558074 109.841621 
z
" clip-path="url(#p6ddb987ece)" style="stroke: #000000; stroke-linecap: round"/>
   </g>
   <g id="patch_101">
    <path d="M 140.078133 135.01145 
Q 148.18511 148.438538 155.714206 160.908519 
" clip-path="url(#p6ddb987ece)" style="fill: none; stroke: #000000; stroke-linecap: round"/>
    <path d="M 155.358845 156.450524 
L 155.714206 160.908519 
L 151.934594 158.518011 
L 155.358845 156.450524 
z
" clip-path="url(#p6ddb987ece)" style="stroke: #000000; stroke-linecap: round"/>
   </g>
   <g id="patch_102">
    <path d="M 108.450349 131.090504 
Q 138.961348 119.348781 168.428911 108.008609 
" clip-path="url(#p6ddb987ece)" style="fill: none; stroke: #000000; stroke-linecap: round"/>
    <path d="M 163.977488 107.578689 
L 168.428911 108.008609 
L 165.414121 111.311795 
L 163.977488 107.578689 
z
" clip-path="url(#p6ddb987ece)" style="stroke: #000000; stroke-linecap: round"/>
   </g>
   <g id="patch_103">
    <path d="M 108.281192 132.816028 
Q 131.966697 147.656473 154.704777 161.903297 
" clip-path="url(#p6ddb987ece)" style="fill: none; stroke: #000000; stroke-linecap: round"/>
    <path d="M 152.377067 158.084689 
L 154.704777 161.903297 
L 150.253264 161.4743 
L 152.377067 158.084689 
z
" clip-path="url(#p6ddb987ece)" style="stroke: #000000; stroke-linecap: round"/>
   </g>
   <g id="patch_104">
    <path d="M 104.707103 131.619858 
Q 73.312768 128.898025 43.032288 126.272761 
" clip-path="url(#p6ddb987ece)" style="fill: none; stroke: #000000; stroke-linecap: round"/>
    <path d="M 46.84459 128.610784 
L 43.032288 126.272761 
L 47.190087 124.625733 
L 46.84459 128.610784 
z
" clip-path="url(#p6ddb987ece)" style="stroke: #000000; stroke-linecap: round"/>
   </g>
   <g id="patch_105">
    <path d="M 284.514926 277.443764 
Q 267.914909 261.411809 252.119102 246.156544 
" clip-path="url(#p6ddb987ece)" style="fill: none; stroke: #000000; stroke-linecap: round"/>
    <path d="M 253.606946 250.373927 
L 252.119102 246.156544 
L 256.385715 247.496698 
L 253.606946 250.373927 
z
" clip-path="url(#p6ddb987ece)" style="stroke: #000000; stroke-linecap: round"/>
   </g>
   <g id="patch_106">
    <path d="M 152.725497 301.417181 
Q 175.027233 288.375882 196.363837 275.89896 
" clip-path="url(#p6ddb987ece)" style="fill: none; stroke: #000000; stroke-linecap: round"/>
    <path d="M 191.90129 276.191654 
L 196.363837 275.89896 
L 193.920464 279.644614 
L 191.90129 276.191654 
z
" clip-path="url(#p6ddb987ece)" style="stroke: #000000; stroke-linecap: round"/>
   </g>
   <g id="patch_107">
    <path d="M 259.761371 281.139908 
Q 255.090449 263.523312 250.706064 246.987408 
" clip-path="url(#p6ddb987ece)" style="fill: none; stroke: #000000; stroke-linecap: round"/>
    <path d="M 249.798014 251.366386 
L 250.706064 246.987408 
L 253.664416 250.341235 
L 249.798014 251.366386 
z
" clip-path="url(#p6ddb987ece)" style="stroke: #000000; stroke-linecap: round"/>
   </g>
   <g id="patch_108">
    <path d="M 310.674863 182.350933 
Q 312.365448 189.96385 313.813658 196.48532 
" clip-path="url(#p6ddb987ece)" style="fill: none; stroke: #000000; stroke-linecap: round"/>
    <path d="M 314.898948 192.146871 
L 313.813658 196.48532 
L 310.994072 193.014019 
L 314.898948 192.146871 
z
" clip-path="url(#p6ddb987ece)" style="stroke: #000000; stroke-linecap: round"/>
   </g>
   <g id="patch_109">
    <path d="M 308.323722 180.367963 
Q 283.019594 179.133351 258.832171 177.953225 
" clip-path="url(#p6ddb987ece)" style="fill: none; stroke: #000000; stroke-linecap: round"/>
    <path d="M 262.729952 180.14578 
L 258.832171 177.953225 
L 262.924884 176.150533 
L 262.729952 180.14578 
z
" clip-path="url(#p6ddb987ece)" style="stroke: #000000; stroke-linecap: round"/>
   </g>
   <g id="patch_110">
    <path d="M 360.647758 216.204992 
Q 344.839072 210.07831 330.072868 204.355645 
" clip-path="url(#p6ddb987ece)" style="fill: none; stroke: #000000; stroke-linecap: round"/>
    <path d="M 333.079843 207.665947 
L 330.072868 204.355645 
L 334.525295 203.936246 
L 333.079843 207.665947 
z
" clip-path="url(#p6ddb987ece)" style="stroke: #000000; stroke-linecap: round"/>
   </g>
   <g id="patch_111">
    <path d="M 360.631198 216.242497 
Q 338.465155 208.187452 317.349915 200.514265 
" clip-path="url(#p6ddb987ece)" style="fill: none; stroke: #000000; stroke-linecap: round"/>
    <path d="M 320.426293 203.76017 
L 317.349915 200.514265 
L 321.792466 200.000706 
L 320.426293 203.76017 
z
" clip-path="url(#p6ddb987ece)" style="stroke: #000000; stroke-linecap: round"/>
   </g>
   <g id="patch_112">
    <path d="M 299.377606 225.516637 
Q 306.441377 213.331155 312.944437 202.112938 
" clip-path="url(#p6ddb987ece)" style="fill: none; stroke: #000000; stroke-linecap: round"/>
    <path d="M 309.208077 204.5705 
L 312.944437 202.112938 
L 312.668671 206.576563 
L 309.208077 204.5705 
z
" clip-path="url(#p6ddb987ece)" style="stroke: #000000; stroke-linecap: round"/>
   </g>
   <g id="patch_113">
    <path d="M 296.617613 226.452171 
Q 261.491871 211.931587 227.399358 197.83813 
" clip-path="url(#p6ddb987ece)" style="fill: none; stroke: #000000; stroke-linecap: round"/>
    <path d="M 230.331888 201.214558 
L 227.399358 197.83813 
L 231.860019 197.517963 
L 230.331888 201.214558 
z
" clip-path="url(#p6ddb987ece)" style="stroke: #000000; stroke-linecap: round"/>
   </g>
   <g id="patch_114">
    <path d="M 300.058642 228.207758 
Q 322.970259 242.298847 344.929538 255.804229 
" clip-path="url(#p6ddb987ece)" style="fill: none; stroke: #000000; stroke-linecap: round"/>
    <path d="M 342.570093 252.005148 
L 344.929538 255.804229 
L 340.474606 255.412336 
L 342.570093 252.005148 
z
" clip-path="url(#p6ddb987ece)" style="stroke: #000000; stroke-linecap: round"/>
   </g>
   <g id="patch_115">
    <path d="M 211.006826 312.167989 
Q 205.294914 294.184034 199.921442 277.265658 
" clip-path="url(#p6ddb987ece)" style="fill: none; stroke: #000000; stroke-linecap: round"/>
    <path d="M 199.226117 281.683409 
L 199.921442 277.265658 
L 203.038447 280.472569 
L 199.226117 281.683409 
z
" clip-path="url(#p6ddb987ece)" style="stroke: #000000; stroke-linecap: round"/>
   </g>
   <g id="patch_116">
    <path d="M 188.860719 313.734168 
Q 193.687485 294.986038 198.2355 277.320636 
" clip-path="url(#p6ddb987ece)" style="fill: none; stroke: #000000; stroke-linecap: round"/>
    <path d="M 195.301368 280.695672 
L 198.2355 277.320636 
L 199.175049 281.692964 
L 195.301368 280.695672 
z
" clip-path="url(#p6ddb987ece)" style="stroke: #000000; stroke-linecap: round"/>
   </g>
   <g id="patch_117">
    <path d="M 199.602282 272.523508 
Q 211.786833 235.516344 223.621737 199.571134 
" clip-path="url(#p6ddb987ece)" style="fill: none; stroke: #000000; stroke-linecap: round"/>
    <path d="M 220.471121 202.745031 
L 223.621737 199.571134 
L 224.270484 203.995965 
L 220.471121 202.745031 
z
" clip-path="url(#p6ddb987ece)" style="stroke: #000000; stroke-linecap: round"/>
   </g>
   <g id="patch_118">
    <path d="M 200.661014 273.368388 
Q 224.460917 259.197275 247.300182 245.598153 
" clip-path="url(#p6ddb987ece)" style="fill: none; stroke: #000000; stroke-linecap: round"/>
    <path d="M 242.840089 245.926126 
L 247.300182 245.598153 
L 244.886504 249.363012 
L 242.840089 245.926126 
z
" clip-path="url(#p6ddb987ece)" style="stroke: #000000; stroke-linecap: round"/>
   </g>
   <g id="patch_119">
    <path d="M 197.327222 275.335605 
Q 175.025486 288.376904 153.688882 300.853826 
" clip-path="url(#p6ddb987ece)" style="fill: none; stroke: #000000; stroke-linecap: round"/>
    <path d="M 158.151429 300.561132 
L 153.688882 300.853826 
L 156.132255 297.108172 
L 158.151429 300.561132 
z
" clip-path="url(#p6ddb987ece)" style="stroke: #000000; stroke-linecap: round"/>
   </g>
   <g id="patch_120">
    <path d="M 199.584664 276.205314 
Q 205.296576 294.189269 210.670049 311.107645 
" clip-path="url(#p6ddb987ece)" style="fill: none; stroke: #000000; stroke-linecap: round"/>
    <path d="M 211.365373 306.689894 
L 210.670049 311.107645 
L 207.553043 307.900735 
L 211.365373 306.689894 
z
" clip-path="url(#p6ddb987ece)" style="stroke: #000000; stroke-linecap: round"/>
   </g>
   <g id="patch_121">
    <path d="M 198.515186 276.23428 
Q 193.68842 294.982409 189.140405 312.647811 
" clip-path="url(#p6ddb987ece)" style="fill: none; stroke: #000000; stroke-linecap: round"/>
    <path d="M 192.074538 309.272776 
L 189.140405 312.647811 
L 188.200856 308.275484 
L 192.074538 309.272776 
z
" clip-path="url(#p6ddb987ece)" style="stroke: #000000; stroke-linecap: round"/>
   </g>
   <g id="patch_122">
    <path d="M 197.750354 275.836538 
Q 183.05173 293.247632 169.074323 309.804415 
" clip-path="url(#p6ddb987ece)" style="fill: none; stroke: #000000; stroke-linecap: round"/>
    <path d="M 173.182865 308.038095 
L 169.074323 309.804415 
L 170.126393 305.45779 
L 173.182865 308.038095 
z
" clip-path="url(#p6ddb987ece)" style="stroke: #000000; stroke-linecap: round"/>
   </g>
   <g id="patch_123">
    <path d="M 168.353292 310.658505 
Q 183.051916 293.247412 197.029323 276.690628 
" clip-path="url(#p6ddb987ece)" style="fill: none; stroke: #000000; stroke-linecap: round"/>
    <path d="M 192.920781 278.456948 
L 197.029323 276.690628 
L 195.977253 281.037253 
L 192.920781 278.456948 
z
" clip-path="url(#p6ddb987ece)" style="stroke: #000000; stroke-linecap: round"/>
   </g>
   <g id="patch_124">
    <path d="M 105.859425 96.500181 
Q 137.612673 101.553884 168.261784 106.431857 
" clip-path="url(#p6ddb987ece)" style="fill: none; stroke: #000000; stroke-linecap: round"/>
    <path d="M 164.625856 103.828007 
L 168.261784 106.431857 
L 163.997147 107.778289 
L 164.625856 103.828007 
z
" clip-path="url(#p6ddb987ece)" style="stroke: #000000; stroke-linecap: round"/>
   </g>
   <g id="patch_125">
    <path d="M 240.47986 79.361713 
Q 241.523265 98.724418 242.506509 116.970709 
" clip-path="url(#p6ddb987ece)" style="fill: none; stroke: #000000; stroke-linecap: round"/>
    <path d="M 244.288374 112.868885 
L 242.506509 116.970709 
L 240.294169 113.084122 
L 244.288374 112.868885 
z
" clip-path="url(#p6ddb987ece)" style="stroke: #000000; stroke-linecap: round"/>
   </g>
   <g id="patch_126">
    <path d="M 263.807566 49.380927 
Q 253.851154 67.769914 244.427065 85.175727 
" clip-path="url(#p6ddb987ece)" style="fill: none; stroke: #000000; stroke-linecap: round"/>
    <path d="M 248.090319 82.610465 
L 244.427065 85.175727 
L 244.572808 80.705967 
L 248.090319 82.610465 
z
" clip-path="url(#p6ddb987ece)" style="stroke: #000000; stroke-linecap: round"/>
   </g>
   <g id="patch_127">
    <path d="M 41.919152 126.176255 
Q 73.313487 128.898088 103.593967 131.523351 
" clip-path="url(#p6ddb987ece)" style="fill: none; stroke: #000000; stroke-linecap: round"/>
    <path d="M 99.781664 129.185329 
L 103.593967 131.523351 
L 99.436168 133.17038 
L 99.781664 129.185329 
z
" clip-path="url(#p6ddb987ece)" style="stroke: #000000; stroke-linecap: round"/>
   </g>
   <g id="patch_128">
    <path d="M 257.698316 177.543003 
Q 304.768795 171.123574 350.731495 164.855224 
" clip-path="url(#p6ddb987ece)" style="fill: none; stroke: #000000; stroke-linecap: round"/>
    <path d="M 346.497926 163.414081 
L 350.731495 164.855224 
L 347.038439 167.377393 
L 346.497926 163.414081 
z
" clip-path="url(#p6ddb987ece)" style="stroke: #000000; stroke-linecap: round"/>
   </g>
   <g id="patch_129">
    <path d="M 256.878582 179.398849 
Q 264.642747 190.685044 271.773241 201.050119 
" clip-path="url(#p6ddb987ece)" style="fill: none; stroke: #000000; stroke-linecap: round"/>
    <path d="M 271.153903 196.621076 
L 271.773241 201.050119 
L 267.858404 198.888164 
L 271.153903 196.621076 
z
" clip-path="url(#p6ddb987ece)" style="stroke: #000000; stroke-linecap: round"/>
   </g>
   <g id="patch_130">
    <path d="M 257.608715 178.455157 
Q 291.504397 190.528509 324.346863 202.226714 
" clip-path="url(#p6ddb987ece)" style="fill: none; stroke: #000000; stroke-linecap: round"/>
    <path d="M 321.249844 199.000497 
L 324.346863 202.226714 
L 319.907678 202.768599 
L 321.249844 199.000497 
z
" clip-path="url(#p6ddb987ece)" style="stroke: #000000; stroke-linecap: round"/>
   </g>
   <g id="patch_131">
    <path d="M 257.597998 178.47483 
Q 285.129416 188.637351 311.611975 198.412712 
" clip-path="url(#p6ddb987ece)" style="fill: none; stroke: #000000; stroke-linecap: round"/>
    <path d="M 308.552032 195.151309 
L 311.611975 198.412712 
L 307.166887 198.903824 
L 308.552032 195.151309 
z
" clip-path="url(#p6ddb987ece)" style="stroke: #000000; stroke-linecap: round"/>
   </g>
   <g id="patch_132">
    <path d="M 254.124686 178.806229 
Q 240.178405 187.238228 227.188882 195.091766 
" clip-path="url(#p6ddb987ece)" style="fill: none; stroke: #000000; stroke-linecap: round"/>
    <path d="M 231.64666 194.733701 
L 227.188882 195.091766 
L 229.577097 191.310704 
L 231.64666 194.733701 
z
" clip-path="url(#p6ddb987ece)" style="stroke: #000000; stroke-linecap: round"/>
   </g>
   <g id="patch_133">
    <path d="M 255.611145 179.732645 
Q 252.852572 210.920854 250.192504 240.995378 
" clip-path="url(#p6ddb987ece)" style="fill: none; stroke: #000000; stroke-linecap: round"/>
    <path d="M 252.537147 237.187144 
L 250.192504 240.995378 
L 248.552702 236.834723 
L 252.537147 237.187144 
z
" clip-path="url(#p6ddb987ece)" style="stroke: #000000; stroke-linecap: round"/>
   </g>
   <g id="patch_134">
    <path d="M 257.639792 178.336535 
Q 271.80293 182.392759 284.891244 186.141162 
" clip-path="url(#p6ddb987ece)" style="fill: none; stroke: #000000; stroke-linecap: round"/>
    <path d="M 281.596487 183.117162 
L 284.891244 186.141162 
L 280.495189 186.962567 
L 281.596487 183.117162 
z
" clip-path="url(#p6ddb987ece)" style="stroke: #000000; stroke-linecap: round"/>
   </g>
   <g id="patch_135">
    <path d="M 254.298869 176.560397 
Q 213.529758 142.3579 173.617182 108.873976 
" clip-path="url(#p6ddb987ece)" style="fill: none; stroke: #000000; stroke-linecap: round"/>
    <path d="M 175.396189 112.97704 
L 173.617182 108.873976 
L 177.967037 109.912609 
L 175.396189 112.97704 
z
" clip-path="url(#p6ddb987ece)" style="stroke: #000000; stroke-linecap: round"/>
   </g>
   <g id="patch_136">
    <path d="M 257.713415 177.89864 
Q 283.017543 179.133251 307.204966 180.313378 
" clip-path="url(#p6ddb987ece)" style="fill: none; stroke: #000000; stroke-linecap: round"/>
    <path d="M 303.307184 178.120822 
L 307.204966 180.313378 
L 303.112252 182.11607 
L 303.307184 178.120822 
z
" clip-path="url(#p6ddb987ece)" style="stroke: #000000; stroke-linecap: round"/>
   </g>
   <g id="patch_137">
    <path d="M 253.867138 177.526821 
Q 206.540148 170.665466 160.319625 163.964523 
" clip-path="url(#p6ddb987ece)" style="fill: none; stroke: #000000; stroke-linecap: round"/>
    <path d="M 163.991284 166.517741 
L 160.319625 163.964523 
L 164.565194 162.559126 
L 163.991284 166.517741 
z
" clip-path="url(#p6ddb987ece)" style="stroke: #000000; stroke-linecap: round"/>
   </g>
   <g id="patch_138">
    <path d="M 218.745395 100.20446 
Q 243.606283 107.073187 267.389512 113.644172 
" clip-path="url(#p6ddb987ece)" style="fill: none; stroke: #000000; stroke-linecap: round"/>
    <path d="M 264.066579 110.65116 
L 267.389512 113.644172 
L 263.001343 114.506711 
L 264.066579 110.65116 
z
" clip-path="url(#p6ddb987ece)" style="stroke: #000000; stroke-linecap: round"/>
   </g>
   <g id="patch_139">
    <path d="M 218.396647 100.886553 
Q 229.773629 109.853104 240.272512 118.127598 
" clip-path="url(#p6ddb987ece)" style="fill: none; stroke: #000000; stroke-linecap: round"/>
    <path d="M 238.368919 114.08083 
L 240.272512 118.127598 
L 235.892942 117.222412 
L 238.368919 114.08083 
z
" clip-path="url(#p6ddb987ece)" style="stroke: #000000; stroke-linecap: round"/>
   </g>
   <g id="patch_140">
    <path d="M 214.963833 99.990824 
Q 194.077051 103.299962 174.29453 106.434149 
" clip-path="url(#p6ddb987ece)" style="fill: none; stroke: #000000; stroke-linecap: round"/>
    <path d="M 178.558215 107.783589 
L 174.29453 106.434149 
L 177.932293 103.832865 
L 178.558215 107.783589 
z
" clip-path="url(#p6ddb987ece)" style="stroke: #000000; stroke-linecap: round"/>
   </g>
   <g id="patch_141">
    <path d="M 215.235846 98.665524 
Q 200.532854 89.499212 186.778621 80.924387 
" clip-path="url(#p6ddb987ece)" style="fill: none; stroke: #000000; stroke-linecap: round"/>
    <path d="M 189.114921 84.737745 
L 186.778621 80.924387 
L 191.231088 81.343362 
L 189.114921 84.737745 
z
" clip-path="url(#p6ddb987ece)" style="stroke: #000000; stroke-linecap: round"/>
   </g>
   <g id="patch_142">
    <path d="M 185.843361 221.930986 
Q 204.397884 209.830682 222.015919 198.341107 
" clip-path="url(#p6ddb987ece)" style="fill: none; stroke: #000000; stroke-linecap: round"/>
    <path d="M 217.572932 198.850878 
L 222.015919 198.341107 
L 219.757944 202.201359 
L 217.572932 198.850878 
z
" clip-path="url(#p6ddb987ece)" style="stroke: #000000; stroke-linecap: round"/>
   </g>
   <g id="patch_143">
    <path d="M 110.024816 59.565122 
Q 91.866685 45.374194 74.589476 31.871723 
" clip-path="url(#p6ddb987ece)" style="fill: none; stroke: #000000; stroke-linecap: round"/>
    <path d="M 76.509611 35.910669 
L 74.589476 31.871723 
L 78.972714 32.758983 
L 76.509611 35.910669 
z
" clip-path="url(#p6ddb987ece)" style="stroke: #000000; stroke-linecap: round"/>
   </g>
   <g id="patch_144">
    <path d="M 113.085402 61.943563 
Q 141.416534 83.8363 168.86299 105.045409 
" clip-path="url(#p6ddb987ece)" style="fill: none; stroke: #000000; stroke-linecap: round"/>
    <path d="M 166.920789 101.017028 
L 168.86299 105.045409 
L 164.474964 104.182141 
L 166.920789 101.017028 
z
" clip-path="url(#p6ddb987ece)" style="stroke: #000000; stroke-linecap: round"/>
   </g>
   <g id="patch_145">
    <path d="M 155.88516 164.849869 
Q 139.77481 179.983097 124.479356 194.350854 
" clip-path="url(#p6ddb987ece)" style="fill: none; stroke: #000000; stroke-linecap: round"/>
    <path d="M 128.764131 193.069952 
L 124.479356 194.350854 
L 126.0255 190.154493 
L 128.764131 193.069952 
z
" clip-path="url(#p6ddb987ece)" style="stroke: #000000; stroke-linecap: round"/>
   </g>
   <g id="patch_146">
    <path d="M 156.291507 161.864666 
Q 148.18453 148.437578 140.655433 135.967597 
" clip-path="url(#p6ddb987ece)" style="fill: none; stroke: #000000; stroke-linecap: round"/>
    <path d="M 141.010794 140.425592 
L 140.655433 135.967597 
L 144.435046 138.358105 
L 141.010794 140.425592 
z
" clip-path="url(#p6ddb987ece)" style="stroke: #000000; stroke-linecap: round"/>
   </g>
   <g id="patch_147">
    <path d="M 155.652842 162.497319 
Q 131.967337 147.656874 109.229258 133.41005 
" clip-path="url(#p6ddb987ece)" style="fill: none; stroke: #000000; stroke-linecap: round"/>
    <path d="M 111.556967 137.228658 
L 109.229258 133.41005 
L 113.68077 133.839047 
L 111.556967 137.228658 
z
" clip-path="url(#p6ddb987ece)" style="stroke: #000000; stroke-linecap: round"/>
   </g>
   <g id="patch_148">
    <path d="M 159.209116 163.803524 
Q 206.536106 170.66488 252.75663 177.365822 
" clip-path="url(#p6ddb987ece)" style="fill: none; stroke: #000000; stroke-linecap: round"/>
    <path d="M 249.084971 174.812605 
L 252.75663 177.365822 
L 248.51106 178.771219 
L 249.084971 174.812605 
z
" clip-path="url(#p6ddb987ece)" style="stroke: #000000; stroke-linecap: round"/>
   </g>
   <g id="patch_149">
    <path d="M 345.878471 256.387841 
Q 322.966854 242.296753 301.007575 228.791371 
" clip-path="url(#p6ddb987ece)" style="fill: none; stroke: #000000; stroke-linecap: round"/>
    <path d="M 303.36702 232.590452 
L 301.007575 228.791371 
L 305.462507 229.183263 
L 303.36702 232.590452 
z
" clip-path="url(#p6ddb987ece)" style="stroke: #000000; stroke-linecap: round"/>
   </g>
   <g id="PathCollection_1">
    <defs>
     <path id="m75b08d7437" d="M 0 1.936492 
C 0.513564 1.936492 1.006162 1.732451 1.369306 1.369306 
C 1.732451 1.006162 1.936492 0.513564 1.936492 0 
C 1.936492 -0.513564 1.732451 -1.006162 1.369306 -1.369306 
C 1.006162 -1.732451 0.513564 -1.936492 0 -1.936492 
C -0.513564 -1.936492 -1.006162 -1.732451 -1.369306 -1.369306 
C -1.732451 -1.006162 -1.936492 -0.513564 -1.936492 0 
C -1.936492 0.513564 -1.732451 1.006162 -1.369306 1.369306 
C -1.006162 1.732451 -0.513564 1.936492 0 1.936492 
z
" style="stroke: #1f78b4"/>
    </defs>
    <g clip-path="url(#p6ddb987ece)">
     <use xlink:href="#m75b08d7437" x="271.757411" y="81.623393" style="fill: #1f78b4; stroke: #1f78b4"/>
     <use xlink:href="#m75b08d7437" x="407.194951" y="132.569492" style="fill: #1f78b4; stroke: #1f78b4"/>
     <use xlink:href="#m75b08d7437" x="289.700248" y="89.871638" style="fill: #1f78b4; stroke: #1f78b4"/>
     <use xlink:href="#m75b08d7437" x="154.512001" y="66.608155" style="fill: #1f78b4; stroke: #1f78b4"/>
     <use xlink:href="#m75b08d7437" x="353.759442" y="164.442275" style="fill: #1f78b4; stroke: #1f78b4"/>
     <use xlink:href="#m75b08d7437" x="273.504915" y="203.567326" style="fill: #1f78b4; stroke: #1f78b4"/>
     <use xlink:href="#m75b08d7437" x="327.222862" y="203.25112" style="fill: #1f78b4; stroke: #1f78b4"/>
     <use xlink:href="#m75b08d7437" x="420.813223" y="146.698593" style="fill: #1f78b4; stroke: #1f78b4"/>
     <use xlink:href="#m75b08d7437" x="96.992756" y="261.41567" style="fill: #1f78b4; stroke: #1f78b4"/>
     <use xlink:href="#m75b08d7437" x="72.181806" y="29.990083" style="fill: #1f78b4; stroke: #1f78b4"/>
     <use xlink:href="#m75b08d7437" x="314.476475" y="199.470069" style="fill: #1f78b4; stroke: #1f78b4"/>
     <use xlink:href="#m75b08d7437" x="387.338439" y="209.285748" style="fill: #1f78b4; stroke: #1f78b4"/>
     <use xlink:href="#m75b08d7437" x="195.926536" y="117.884864" style="fill: #1f78b4; stroke: #1f78b4"/>
     <use xlink:href="#m75b08d7437" x="54.635198" y="199.630847" style="fill: #1f78b4; stroke: #1f78b4"/>
     <use xlink:href="#m75b08d7437" x="224.576534" y="196.671206" style="fill: #1f78b4; stroke: #1f78b4"/>
     <use xlink:href="#m75b08d7437" x="242.972793" y="87.861695" style="fill: #1f78b4; stroke: #1f78b4"/>
     <use xlink:href="#m75b08d7437" x="366.893531" y="145.595706" style="fill: #1f78b4; stroke: #1f78b4"/>
     <use xlink:href="#m75b08d7437" x="270.334374" y="114.457798" style="fill: #1f78b4; stroke: #1f78b4"/>
     <use xlink:href="#m75b08d7437" x="249.923552" y="244.036127" style="fill: #1f78b4; stroke: #1f78b4"/>
     <use xlink:href="#m75b08d7437" x="169.676521" y="214.74832" style="fill: #1f78b4; stroke: #1f78b4"/>
     <use xlink:href="#m75b08d7437" x="203.910365" y="163.538747" style="fill: #1f78b4; stroke: #1f78b4"/>
     <use xlink:href="#m75b08d7437" x="224.460796" y="211.436916" style="fill: #1f78b4; stroke: #1f78b4"/>
     <use xlink:href="#m75b08d7437" x="150.201385" y="239.186492" style="fill: #1f78b4; stroke: #1f78b4"/>
     <use xlink:href="#m75b08d7437" x="230.407192" y="239.293713" style="fill: #1f78b4; stroke: #1f78b4"/>
     <use xlink:href="#m75b08d7437" x="131.879078" y="75.570745" style="fill: #1f78b4; stroke: #1f78b4"/>
     <use xlink:href="#m75b08d7437" x="121.119499" y="88.587065" style="fill: #1f78b4; stroke: #1f78b4"/>
     <use xlink:href="#m75b08d7437" x="204.169706" y="231.293357" style="fill: #1f78b4; stroke: #1f78b4"/>
     <use xlink:href="#m75b08d7437" x="287.826971" y="186.981934" style="fill: #1f78b4; stroke: #1f78b4"/>
     <use xlink:href="#m75b08d7437" x="122.254279" y="196.440976" style="fill: #1f78b4; stroke: #1f78b4"/>
     <use xlink:href="#m75b08d7437" x="60.810633" y="215.086711" style="fill: #1f78b4; stroke: #1f78b4"/>
     <use xlink:href="#m75b08d7437" x="350.767059" y="114.428657" style="fill: #1f78b4; stroke: #1f78b4"/>
     <use xlink:href="#m75b08d7437" x="359.209023" y="128.54059" style="fill: #1f78b4; stroke: #1f78b4"/>
     <use xlink:href="#m75b08d7437" x="298.531184" y="140.24455" style="fill: #1f78b4; stroke: #1f78b4"/>
     <use xlink:href="#m75b08d7437" x="242.670702" y="120.017686" style="fill: #1f78b4; stroke: #1f78b4"/>
     <use xlink:href="#m75b08d7437" x="298.383783" y="104.414989" style="fill: #1f78b4; stroke: #1f78b4"/>
     <use xlink:href="#m75b08d7437" x="171.278502" y="106.911984" style="fill: #1f78b4; stroke: #1f78b4"/>
     <use xlink:href="#m75b08d7437" x="184.188827" y="79.309827" style="fill: #1f78b4; stroke: #1f78b4"/>
     <use xlink:href="#m75b08d7437" x="139.075083" y="133.350161" style="fill: #1f78b4; stroke: #1f78b4"/>
     <use xlink:href="#m75b08d7437" x="106.639478" y="131.787392" style="fill: #1f78b4; stroke: #1f78b4"/>
     <use xlink:href="#m75b08d7437" x="285.909651" y="278.79076" style="fill: #1f78b4; stroke: #1f78b4"/>
     <use xlink:href="#m75b08d7437" x="151.054615" y="302.394256" style="fill: #1f78b4; stroke: #1f78b4"/>
     <use xlink:href="#m75b08d7437" x="260.25711" y="283.009608" style="fill: #1f78b4; stroke: #1f78b4"/>
     <use xlink:href="#m75b08d7437" x="310.255438" y="180.462213" style="fill: #1f78b4; stroke: #1f78b4"/>
     <use xlink:href="#m75b08d7437" x="362.449512" y="216.903264" style="fill: #1f78b4; stroke: #1f78b4"/>
     <use xlink:href="#m75b08d7437" x="298.406586" y="227.191712" style="fill: #1f78b4; stroke: #1f78b4"/>
     <use xlink:href="#m75b08d7437" x="211.593386" y="314.014774" style="fill: #1f78b4; stroke: #1f78b4"/>
     <use xlink:href="#m75b08d7437" x="188.377801" y="315.609917" style="fill: #1f78b4; stroke: #1f78b4"/>
     <use xlink:href="#m75b08d7437" x="198.998104" y="274.35853" style="fill: #1f78b4; stroke: #1f78b4"/>
     <use xlink:href="#m75b08d7437" x="167.105542" y="312.136513" style="fill: #1f78b4; stroke: #1f78b4"/>
     <use xlink:href="#m75b08d7437" x="103.948509" y="96.196049" style="fill: #1f78b4; stroke: #1f78b4"/>
     <use xlink:href="#m75b08d7437" x="240.375788" y="77.430418" style="fill: #1f78b4; stroke: #1f78b4"/>
     <use xlink:href="#m75b08d7437" x="264.730516" y="47.676284" style="fill: #1f78b4; stroke: #1f78b4"/>
     <use xlink:href="#m75b08d7437" x="39.986777" y="126.008721" style="fill: #1f78b4; stroke: #1f78b4"/>
     <use xlink:href="#m75b08d7437" x="255.781698" y="177.804389" style="fill: #1f78b4; stroke: #1f78b4"/>
     <use xlink:href="#m75b08d7437" x="216.875779" y="99.68791" style="fill: #1f78b4; stroke: #1f78b4"/>
     <use xlink:href="#m75b08d7437" x="184.220139" y="222.989568" style="fill: #1f78b4; stroke: #1f78b4"/>
     <use xlink:href="#m75b08d7437" x="111.550647" y="60.757588" style="fill: #1f78b4; stroke: #1f78b4"/>
     <use xlink:href="#m75b08d7437" x="157.294556" y="163.525956" style="fill: #1f78b4; stroke: #1f78b4"/>
     <use xlink:href="#m75b08d7437" x="347.530527" y="257.403888" style="fill: #1f78b4; stroke: #1f78b4"/>
    </g>
   </g>
   <g id="text_1">
    <g clip-path="url(#p6ddb987ece)">
     <!-- 0 -->
     <g transform="translate(268.576161 84.382768) scale(0.1 -0.1)">
      <defs>
       <path id="DejaVuSans-30" d="M 2034 4250 
Q 1547 4250 1301 3770 
Q 1056 3291 1056 2328 
Q 1056 1369 1301 889 
Q 1547 409 2034 409 
Q 2525 409 2770 889 
Q 3016 1369 3016 2328 
Q 3016 3291 2770 3770 
Q 2525 4250 2034 4250 
z
M 2034 4750 
Q 2819 4750 3233 4129 
Q 3647 3509 3647 2328 
Q 3647 1150 3233 529 
Q 2819 -91 2034 -91 
Q 1250 -91 836 529 
Q 422 1150 422 2328 
Q 422 3509 836 4129 
Q 1250 4750 2034 4750 
z
" transform="scale(0.015625)"/>
      </defs>
      <use xlink:href="#DejaVuSans-30"/>
     </g>
    </g>
   </g>
   <g id="text_2">
    <g clip-path="url(#p6ddb987ece)">
     <!-- 1 -->
     <g transform="translate(404.013701 135.328867) scale(0.1 -0.1)">
      <defs>
       <path id="DejaVuSans-31" d="M 794 531 
L 1825 531 
L 1825 4091 
L 703 3866 
L 703 4441 
L 1819 4666 
L 2450 4666 
L 2450 531 
L 3481 531 
L 3481 0 
L 794 0 
L 794 531 
z
" transform="scale(0.015625)"/>
      </defs>
      <use xlink:href="#DejaVuSans-31"/>
     </g>
    </g>
   </g>
   <g id="text_3">
    <g clip-path="url(#p6ddb987ece)">
     <!-- 2 -->
     <g transform="translate(286.518998 92.631013) scale(0.1 -0.1)">
      <defs>
       <path id="DejaVuSans-32" d="M 1228 531 
L 3431 531 
L 3431 0 
L 469 0 
L 469 531 
Q 828 903 1448 1529 
Q 2069 2156 2228 2338 
Q 2531 2678 2651 2914 
Q 2772 3150 2772 3378 
Q 2772 3750 2511 3984 
Q 2250 4219 1831 4219 
Q 1534 4219 1204 4116 
Q 875 4013 500 3803 
L 500 4441 
Q 881 4594 1212 4672 
Q 1544 4750 1819 4750 
Q 2544 4750 2975 4387 
Q 3406 4025 3406 3419 
Q 3406 3131 3298 2873 
Q 3191 2616 2906 2266 
Q 2828 2175 2409 1742 
Q 1991 1309 1228 531 
z
" transform="scale(0.015625)"/>
      </defs>
      <use xlink:href="#DejaVuSans-32"/>
     </g>
    </g>
   </g>
   <g id="text_4">
    <g clip-path="url(#p6ddb987ece)">
     <!-- 3 -->
     <g transform="translate(151.330751 69.36753) scale(0.1 -0.1)">
      <defs>
       <path id="DejaVuSans-33" d="M 2597 2516 
Q 3050 2419 3304 2112 
Q 3559 1806 3559 1356 
Q 3559 666 3084 287 
Q 2609 -91 1734 -91 
Q 1441 -91 1130 -33 
Q 819 25 488 141 
L 488 750 
Q 750 597 1062 519 
Q 1375 441 1716 441 
Q 2309 441 2620 675 
Q 2931 909 2931 1356 
Q 2931 1769 2642 2001 
Q 2353 2234 1838 2234 
L 1294 2234 
L 1294 2753 
L 1863 2753 
Q 2328 2753 2575 2939 
Q 2822 3125 2822 3475 
Q 2822 3834 2567 4026 
Q 2313 4219 1838 4219 
Q 1578 4219 1281 4162 
Q 984 4106 628 3988 
L 628 4550 
Q 988 4650 1302 4700 
Q 1616 4750 1894 4750 
Q 2613 4750 3031 4423 
Q 3450 4097 3450 3541 
Q 3450 3153 3228 2886 
Q 3006 2619 2597 2516 
z
" transform="scale(0.015625)"/>
      </defs>
      <use xlink:href="#DejaVuSans-33"/>
     </g>
    </g>
   </g>
   <g id="text_5">
    <g clip-path="url(#p6ddb987ece)">
     <!-- 4 -->
     <g transform="translate(350.578192 167.20165) scale(0.1 -0.1)">
      <defs>
       <path id="DejaVuSans-34" d="M 2419 4116 
L 825 1625 
L 2419 1625 
L 2419 4116 
z
M 2253 4666 
L 3047 4666 
L 3047 1625 
L 3713 1625 
L 3713 1100 
L 3047 1100 
L 3047 0 
L 2419 0 
L 2419 1100 
L 313 1100 
L 313 1709 
L 2253 4666 
z
" transform="scale(0.015625)"/>
      </defs>
      <use xlink:href="#DejaVuSans-34"/>
     </g>
    </g>
   </g>
   <g id="text_6">
    <g clip-path="url(#p6ddb987ece)">
     <!-- 5 -->
     <g transform="translate(270.323665 206.326701) scale(0.1 -0.1)">
      <defs>
       <path id="DejaVuSans-35" d="M 691 4666 
L 3169 4666 
L 3169 4134 
L 1269 4134 
L 1269 2991 
Q 1406 3038 1543 3061 
Q 1681 3084 1819 3084 
Q 2600 3084 3056 2656 
Q 3513 2228 3513 1497 
Q 3513 744 3044 326 
Q 2575 -91 1722 -91 
Q 1428 -91 1123 -41 
Q 819 9 494 109 
L 494 744 
Q 775 591 1075 516 
Q 1375 441 1709 441 
Q 2250 441 2565 725 
Q 2881 1009 2881 1497 
Q 2881 1984 2565 2268 
Q 2250 2553 1709 2553 
Q 1456 2553 1204 2497 
Q 953 2441 691 2322 
L 691 4666 
z
" transform="scale(0.015625)"/>
      </defs>
      <use xlink:href="#DejaVuSans-35"/>
     </g>
    </g>
   </g>
   <g id="text_7">
    <g clip-path="url(#p6ddb987ece)">
     <!-- 6 -->
     <g transform="translate(324.041612 206.010495) scale(0.1 -0.1)">
      <defs>
       <path id="DejaVuSans-36" d="M 2113 2584 
Q 1688 2584 1439 2293 
Q 1191 2003 1191 1497 
Q 1191 994 1439 701 
Q 1688 409 2113 409 
Q 2538 409 2786 701 
Q 3034 994 3034 1497 
Q 3034 2003 2786 2293 
Q 2538 2584 2113 2584 
z
M 3366 4563 
L 3366 3988 
Q 3128 4100 2886 4159 
Q 2644 4219 2406 4219 
Q 1781 4219 1451 3797 
Q 1122 3375 1075 2522 
Q 1259 2794 1537 2939 
Q 1816 3084 2150 3084 
Q 2853 3084 3261 2657 
Q 3669 2231 3669 1497 
Q 3669 778 3244 343 
Q 2819 -91 2113 -91 
Q 1303 -91 875 529 
Q 447 1150 447 2328 
Q 447 3434 972 4092 
Q 1497 4750 2381 4750 
Q 2619 4750 2861 4703 
Q 3103 4656 3366 4563 
z
" transform="scale(0.015625)"/>
      </defs>
      <use xlink:href="#DejaVuSans-36"/>
     </g>
    </g>
   </g>
   <g id="text_8">
    <g clip-path="url(#p6ddb987ece)">
     <!-- 7 -->
     <g transform="translate(417.631973 149.457968) scale(0.1 -0.1)">
      <defs>
       <path id="DejaVuSans-37" d="M 525 4666 
L 3525 4666 
L 3525 4397 
L 1831 0 
L 1172 0 
L 2766 4134 
L 525 4134 
L 525 4666 
z
" transform="scale(0.015625)"/>
      </defs>
      <use xlink:href="#DejaVuSans-37"/>
     </g>
    </g>
   </g>
   <g id="text_9">
    <g clip-path="url(#p6ddb987ece)">
     <!-- 8 -->
     <g transform="translate(93.811506 264.175045) scale(0.1 -0.1)">
      <defs>
       <path id="DejaVuSans-38" d="M 2034 2216 
Q 1584 2216 1326 1975 
Q 1069 1734 1069 1313 
Q 1069 891 1326 650 
Q 1584 409 2034 409 
Q 2484 409 2743 651 
Q 3003 894 3003 1313 
Q 3003 1734 2745 1975 
Q 2488 2216 2034 2216 
z
M 1403 2484 
Q 997 2584 770 2862 
Q 544 3141 544 3541 
Q 544 4100 942 4425 
Q 1341 4750 2034 4750 
Q 2731 4750 3128 4425 
Q 3525 4100 3525 3541 
Q 3525 3141 3298 2862 
Q 3072 2584 2669 2484 
Q 3125 2378 3379 2068 
Q 3634 1759 3634 1313 
Q 3634 634 3220 271 
Q 2806 -91 2034 -91 
Q 1263 -91 848 271 
Q 434 634 434 1313 
Q 434 1759 690 2068 
Q 947 2378 1403 2484 
z
M 1172 3481 
Q 1172 3119 1398 2916 
Q 1625 2713 2034 2713 
Q 2441 2713 2670 2916 
Q 2900 3119 2900 3481 
Q 2900 3844 2670 4047 
Q 2441 4250 2034 4250 
Q 1625 4250 1398 4047 
Q 1172 3844 1172 3481 
z
" transform="scale(0.015625)"/>
      </defs>
      <use xlink:href="#DejaVuSans-38"/>
     </g>
    </g>
   </g>
   <g id="text_10">
    <g clip-path="url(#p6ddb987ece)">
     <!-- 9 -->
     <g transform="translate(69.000556 32.749458) scale(0.1 -0.1)">
      <defs>
       <path id="DejaVuSans-39" d="M 703 97 
L 703 672 
Q 941 559 1184 500 
Q 1428 441 1663 441 
Q 2288 441 2617 861 
Q 2947 1281 2994 2138 
Q 2813 1869 2534 1725 
Q 2256 1581 1919 1581 
Q 1219 1581 811 2004 
Q 403 2428 403 3163 
Q 403 3881 828 4315 
Q 1253 4750 1959 4750 
Q 2769 4750 3195 4129 
Q 3622 3509 3622 2328 
Q 3622 1225 3098 567 
Q 2575 -91 1691 -91 
Q 1453 -91 1209 -44 
Q 966 3 703 97 
z
M 1959 2075 
Q 2384 2075 2632 2365 
Q 2881 2656 2881 3163 
Q 2881 3666 2632 3958 
Q 2384 4250 1959 4250 
Q 1534 4250 1286 3958 
Q 1038 3666 1038 3163 
Q 1038 2656 1286 2365 
Q 1534 2075 1959 2075 
z
" transform="scale(0.015625)"/>
      </defs>
      <use xlink:href="#DejaVuSans-39"/>
     </g>
    </g>
   </g>
   <g id="text_11">
    <g clip-path="url(#p6ddb987ece)">
     <!-- 10 -->
     <g transform="translate(308.113975 202.229444) scale(0.1 -0.1)">
      <use xlink:href="#DejaVuSans-31"/>
      <use xlink:href="#DejaVuSans-30" x="63.623047"/>
     </g>
    </g>
   </g>
   <g id="text_12">
    <g clip-path="url(#p6ddb987ece)">
     <!-- 11 -->
     <g transform="translate(380.975939 212.045123) scale(0.1 -0.1)">
      <use xlink:href="#DejaVuSans-31"/>
      <use xlink:href="#DejaVuSans-31" x="63.623047"/>
     </g>
    </g>
   </g>
   <g id="text_13">
    <g clip-path="url(#p6ddb987ece)">
     <!-- 12 -->
     <g transform="translate(189.564036 120.644239) scale(0.1 -0.1)">
      <use xlink:href="#DejaVuSans-31"/>
      <use xlink:href="#DejaVuSans-32" x="63.623047"/>
     </g>
    </g>
   </g>
   <g id="text_14">
    <g clip-path="url(#p6ddb987ece)">
     <!-- 13 -->
     <g transform="translate(48.272698 202.390222) scale(0.1 -0.1)">
      <use xlink:href="#DejaVuSans-31"/>
      <use xlink:href="#DejaVuSans-33" x="63.623047"/>
     </g>
    </g>
   </g>
   <g id="text_15">
    <g clip-path="url(#p6ddb987ece)">
     <!-- 14 -->
     <g transform="translate(218.214034 199.430581) scale(0.1 -0.1)">
      <use xlink:href="#DejaVuSans-31"/>
      <use xlink:href="#DejaVuSans-34" x="63.623047"/>
     </g>
    </g>
   </g>
   <g id="text_16">
    <g clip-path="url(#p6ddb987ece)">
     <!-- 15 -->
     <g transform="translate(236.610293 90.62107) scale(0.1 -0.1)">
      <use xlink:href="#DejaVuSans-31"/>
      <use xlink:href="#DejaVuSans-35" x="63.623047"/>
     </g>
    </g>
   </g>
   <g id="text_17">
    <g clip-path="url(#p6ddb987ece)">
     <!-- 16 -->
     <g transform="translate(360.531031 148.355081) scale(0.1 -0.1)">
      <use xlink:href="#DejaVuSans-31"/>
      <use xlink:href="#DejaVuSans-36" x="63.623047"/>
     </g>
    </g>
   </g>
   <g id="text_18">
    <g clip-path="url(#p6ddb987ece)">
     <!-- 17 -->
     <g transform="translate(263.971874 117.217173) scale(0.1 -0.1)">
      <use xlink:href="#DejaVuSans-31"/>
      <use xlink:href="#DejaVuSans-37" x="63.623047"/>
     </g>
    </g>
   </g>
   <g id="text_19">
    <g clip-path="url(#p6ddb987ece)">
     <!-- 18 -->
     <g transform="translate(243.561052 246.795502) scale(0.1 -0.1)">
      <use xlink:href="#DejaVuSans-31"/>
      <use xlink:href="#DejaVuSans-38" x="63.623047"/>
     </g>
    </g>
   </g>
   <g id="text_20">
    <g clip-path="url(#p6ddb987ece)">
     <!-- 19 -->
     <g transform="translate(163.314021 217.507695) scale(0.1 -0.1)">
      <use xlink:href="#DejaVuSans-31"/>
      <use xlink:href="#DejaVuSans-39" x="63.623047"/>
     </g>
    </g>
   </g>
   <g id="text_21">
    <g clip-path="url(#p6ddb987ece)">
     <!-- 20 -->
     <g transform="translate(197.547865 166.298122) scale(0.1 -0.1)">
      <use xlink:href="#DejaVuSans-32"/>
      <use xlink:href="#DejaVuSans-30" x="63.623047"/>
     </g>
    </g>
   </g>
   <g id="text_22">
    <g clip-path="url(#p6ddb987ece)">
     <!-- 21 -->
     <g transform="translate(218.098296 214.196291) scale(0.1 -0.1)">
      <use xlink:href="#DejaVuSans-32"/>
      <use xlink:href="#DejaVuSans-31" x="63.623047"/>
     </g>
    </g>
   </g>
   <g id="text_23">
    <g clip-path="url(#p6ddb987ece)">
     <!-- 22 -->
     <g transform="translate(143.838885 241.945867) scale(0.1 -0.1)">
      <use xlink:href="#DejaVuSans-32"/>
      <use xlink:href="#DejaVuSans-32" x="63.623047"/>
     </g>
    </g>
   </g>
   <g id="text_24">
    <g clip-path="url(#p6ddb987ece)">
     <!-- 23 -->
     <g transform="translate(224.044692 242.053088) scale(0.1 -0.1)">
      <use xlink:href="#DejaVuSans-32"/>
      <use xlink:href="#DejaVuSans-33" x="63.623047"/>
     </g>
    </g>
   </g>
   <g id="text_25">
    <g clip-path="url(#p6ddb987ece)">
     <!-- 24 -->
     <g transform="translate(125.516578 78.33012) scale(0.1 -0.1)">
      <use xlink:href="#DejaVuSans-32"/>
      <use xlink:href="#DejaVuSans-34" x="63.623047"/>
     </g>
    </g>
   </g>
   <g id="text_26">
    <g clip-path="url(#p6ddb987ece)">
     <!-- 25 -->
     <g transform="translate(114.756999 91.34644) scale(0.1 -0.1)">
      <use xlink:href="#DejaVuSans-32"/>
      <use xlink:href="#DejaVuSans-35" x="63.623047"/>
     </g>
    </g>
   </g>
   <g id="text_27">
    <g clip-path="url(#p6ddb987ece)">
     <!-- 26 -->
     <g transform="translate(197.807206 234.052732) scale(0.1 -0.1)">
      <use xlink:href="#DejaVuSans-32"/>
      <use xlink:href="#DejaVuSans-36" x="63.623047"/>
     </g>
    </g>
   </g>
   <g id="text_28">
    <g clip-path="url(#p6ddb987ece)">
     <!-- 27 -->
     <g transform="translate(281.464471 189.741309) scale(0.1 -0.1)">
      <use xlink:href="#DejaVuSans-32"/>
      <use xlink:href="#DejaVuSans-37" x="63.623047"/>
     </g>
    </g>
   </g>
   <g id="text_29">
    <g clip-path="url(#p6ddb987ece)">
     <!-- 28 -->
     <g transform="translate(115.891779 199.200351) scale(0.1 -0.1)">
      <use xlink:href="#DejaVuSans-32"/>
      <use xlink:href="#DejaVuSans-38" x="63.623047"/>
     </g>
    </g>
   </g>
   <g id="text_30">
    <g clip-path="url(#p6ddb987ece)">
     <!-- 29 -->
     <g transform="translate(54.448133 217.846086) scale(0.1 -0.1)">
      <use xlink:href="#DejaVuSans-32"/>
      <use xlink:href="#DejaVuSans-39" x="63.623047"/>
     </g>
    </g>
   </g>
   <g id="text_31">
    <g clip-path="url(#p6ddb987ece)">
     <!-- 30 -->
     <g transform="translate(344.404559 117.188032) scale(0.1 -0.1)">
      <use xlink:href="#DejaVuSans-33"/>
      <use xlink:href="#DejaVuSans-30" x="63.623047"/>
     </g>
    </g>
   </g>
   <g id="text_32">
    <g clip-path="url(#p6ddb987ece)">
     <!-- 31 -->
     <g transform="translate(352.846523 131.299965) scale(0.1 -0.1)">
      <use xlink:href="#DejaVuSans-33"/>
      <use xlink:href="#DejaVuSans-31" x="63.623047"/>
     </g>
    </g>
   </g>
   <g id="text_33">
    <g clip-path="url(#p6ddb987ece)">
     <!-- 32 -->
     <g transform="translate(292.168684 143.003925) scale(0.1 -0.1)">
      <use xlink:href="#DejaVuSans-33"/>
      <use xlink:href="#DejaVuSans-32" x="63.623047"/>
     </g>
    </g>
   </g>
   <g id="text_34">
    <g clip-path="url(#p6ddb987ece)">
     <!-- 33 -->
     <g transform="translate(236.308202 122.777061) scale(0.1 -0.1)">
      <use xlink:href="#DejaVuSans-33"/>
      <use xlink:href="#DejaVuSans-33" x="63.623047"/>
     </g>
    </g>
   </g>
   <g id="text_35">
    <g clip-path="url(#p6ddb987ece)">
     <!-- 34 -->
     <g transform="translate(292.021283 107.174364) scale(0.1 -0.1)">
      <use xlink:href="#DejaVuSans-33"/>
      <use xlink:href="#DejaVuSans-34" x="63.623047"/>
     </g>
    </g>
   </g>
   <g id="text_36">
    <g clip-path="url(#p6ddb987ece)">
     <!-- 35 -->
     <g transform="translate(164.916002 109.671359) scale(0.1 -0.1)">
      <use xlink:href="#DejaVuSans-33"/>
      <use xlink:href="#DejaVuSans-35" x="63.623047"/>
     </g>
    </g>
   </g>
   <g id="text_37">
    <g clip-path="url(#p6ddb987ece)">
     <!-- 36 -->
     <g transform="translate(177.826327 82.069202) scale(0.1 -0.1)">
      <use xlink:href="#DejaVuSans-33"/>
      <use xlink:href="#DejaVuSans-36" x="63.623047"/>
     </g>
    </g>
   </g>
   <g id="text_38">
    <g clip-path="url(#p6ddb987ece)">
     <!-- 37 -->
     <g transform="translate(132.712583 136.109536) scale(0.1 -0.1)">
      <use xlink:href="#DejaVuSans-33"/>
      <use xlink:href="#DejaVuSans-37" x="63.623047"/>
     </g>
    </g>
   </g>
   <g id="text_39">
    <g clip-path="url(#p6ddb987ece)">
     <!-- 38 -->
     <g transform="translate(100.276978 134.546767) scale(0.1 -0.1)">
      <use xlink:href="#DejaVuSans-33"/>
      <use xlink:href="#DejaVuSans-38" x="63.623047"/>
     </g>
    </g>
   </g>
   <g id="text_40">
    <g clip-path="url(#p6ddb987ece)">
     <!-- 39 -->
     <g transform="translate(279.547151 281.550135) scale(0.1 -0.1)">
      <use xlink:href="#DejaVuSans-33"/>
      <use xlink:href="#DejaVuSans-39" x="63.623047"/>
     </g>
    </g>
   </g>
   <g id="text_41">
    <g clip-path="url(#p6ddb987ece)">
     <!-- 40 -->
     <g transform="translate(144.692115 305.153631) scale(0.1 -0.1)">
      <use xlink:href="#DejaVuSans-34"/>
      <use xlink:href="#DejaVuSans-30" x="63.623047"/>
     </g>
    </g>
   </g>
   <g id="text_42">
    <g clip-path="url(#p6ddb987ece)">
     <!-- 41 -->
     <g transform="translate(253.89461 285.768983) scale(0.1 -0.1)">
      <use xlink:href="#DejaVuSans-34"/>
      <use xlink:href="#DejaVuSans-31" x="63.623047"/>
     </g>
    </g>
   </g>
   <g id="text_43">
    <g clip-path="url(#p6ddb987ece)">
     <!-- 42 -->
     <g transform="translate(303.892938 183.221588) scale(0.1 -0.1)">
      <use xlink:href="#DejaVuSans-34"/>
      <use xlink:href="#DejaVuSans-32" x="63.623047"/>
     </g>
    </g>
   </g>
   <g id="text_44">
    <g clip-path="url(#p6ddb987ece)">
     <!-- 43 -->
     <g transform="translate(356.087012 219.662639) scale(0.1 -0.1)">
      <use xlink:href="#DejaVuSans-34"/>
      <use xlink:href="#DejaVuSans-33" x="63.623047"/>
     </g>
    </g>
   </g>
   <g id="text_45">
    <g clip-path="url(#p6ddb987ece)">
     <!-- 44 -->
     <g transform="translate(292.044086 229.951087) scale(0.1 -0.1)">
      <use xlink:href="#DejaVuSans-34"/>
      <use xlink:href="#DejaVuSans-34" x="63.623047"/>
     </g>
    </g>
   </g>
   <g id="text_46">
    <g clip-path="url(#p6ddb987ece)">
     <!-- 45 -->
     <g transform="translate(205.230886 316.774149) scale(0.1 -0.1)">
      <use xlink:href="#DejaVuSans-34"/>
      <use xlink:href="#DejaVuSans-35" x="63.623047"/>
     </g>
    </g>
   </g>
   <g id="text_47">
    <g clip-path="url(#p6ddb987ece)">
     <!-- 46 -->
     <g transform="translate(182.015301 318.369292) scale(0.1 -0.1)">
      <use xlink:href="#DejaVuSans-34"/>
      <use xlink:href="#DejaVuSans-36" x="63.623047"/>
     </g>
    </g>
   </g>
   <g id="text_48">
    <g clip-path="url(#p6ddb987ece)">
     <!-- 47 -->
     <g transform="translate(192.635604 277.117905) scale(0.1 -0.1)">
      <use xlink:href="#DejaVuSans-34"/>
      <use xlink:href="#DejaVuSans-37" x="63.623047"/>
     </g>
    </g>
   </g>
   <g id="text_49">
    <g clip-path="url(#p6ddb987ece)">
     <!-- 48 -->
     <g transform="translate(160.743042 314.895888) scale(0.1 -0.1)">
      <use xlink:href="#DejaVuSans-34"/>
      <use xlink:href="#DejaVuSans-38" x="63.623047"/>
     </g>
    </g>
   </g>
   <g id="text_50">
    <g clip-path="url(#p6ddb987ece)">
     <!-- 49 -->
     <g transform="translate(97.586009 98.955424) scale(0.1 -0.1)">
      <use xlink:href="#DejaVuSans-34"/>
      <use xlink:href="#DejaVuSans-39" x="63.623047"/>
     </g>
    </g>
   </g>
   <g id="text_51">
    <g clip-path="url(#p6ddb987ece)">
     <!-- 50 -->
     <g transform="translate(234.013288 80.189793) scale(0.1 -0.1)">
      <use xlink:href="#DejaVuSans-35"/>
      <use xlink:href="#DejaVuSans-30" x="63.623047"/>
     </g>
    </g>
   </g>
   <g id="text_52">
    <g clip-path="url(#p6ddb987ece)">
     <!-- 51 -->
     <g transform="translate(258.368016 50.435659) scale(0.1 -0.1)">
      <use xlink:href="#DejaVuSans-35"/>
      <use xlink:href="#DejaVuSans-31" x="63.623047"/>
     </g>
    </g>
   </g>
   <g id="text_53">
    <g clip-path="url(#p6ddb987ece)">
     <!-- 52 -->
     <g transform="translate(33.624277 128.768096) scale(0.1 -0.1)">
      <use xlink:href="#DejaVuSans-35"/>
      <use xlink:href="#DejaVuSans-32" x="63.623047"/>
     </g>
    </g>
   </g>
   <g id="text_54">
    <g clip-path="url(#p6ddb987ece)">
     <!-- 53 -->
     <g transform="translate(249.419198 180.563764) scale(0.1 -0.1)">
      <use xlink:href="#DejaVuSans-35"/>
      <use xlink:href="#DejaVuSans-33" x="63.623047"/>
     </g>
    </g>
   </g>
   <g id="text_55">
    <g clip-path="url(#p6ddb987ece)">
     <!-- 54 -->
     <g transform="translate(210.513279 102.447285) scale(0.1 -0.1)">
      <use xlink:href="#DejaVuSans-35"/>
      <use xlink:href="#DejaVuSans-34" x="63.623047"/>
     </g>
    </g>
   </g>
   <g id="text_56">
    <g clip-path="url(#p6ddb987ece)">
     <!-- 55 -->
     <g transform="translate(177.857639 225.748943) scale(0.1 -0.1)">
      <use xlink:href="#DejaVuSans-35"/>
      <use xlink:href="#DejaVuSans-35" x="63.623047"/>
     </g>
    </g>
   </g>
   <g id="text_57">
    <g clip-path="url(#p6ddb987ece)">
     <!-- 56 -->
     <g transform="translate(105.188147 63.516963) scale(0.1 -0.1)">
      <use xlink:href="#DejaVuSans-35"/>
      <use xlink:href="#DejaVuSans-36" x="63.623047"/>
     </g>
    </g>
   </g>
   <g id="text_58">
    <g clip-path="url(#p6ddb987ece)">
     <!-- 57 -->
     <g transform="translate(150.932056 166.285331) scale(0.1 -0.1)">
      <use xlink:href="#DejaVuSans-35"/>
      <use xlink:href="#DejaVuSans-37" x="63.623047"/>
     </g>
    </g>
   </g>
   <g id="text_59">
    <g clip-path="url(#p6ddb987ece)">
     <!-- 58 -->
     <g transform="translate(341.168027 260.163263) scale(0.1 -0.1)">
      <use xlink:href="#DejaVuSans-35"/>
      <use xlink:href="#DejaVuSans-38" x="63.623047"/>
     </g>
    </g>
   </g>
  </g>
 </g>
 <defs>
  <clipPath id="p6ddb987ece">
   <rect x="0" y="0" width="460.8" height="345.6"/>
  </clipPath>
 </defs>
</svg>
