<?xml version="1.0" encoding="utf-8" standalone="no"?>
<!DOCTYPE svg PUBLIC "-//W3C//DTD SVG 1.1//EN"
  "http://www.w3.org/Graphics/SVG/1.1/DTD/svg11.dtd">
<svg xmlns:xlink="http://www.w3.org/1999/xlink" width="460.8pt" height="345.6pt" viewBox="0 0 460.8 345.6" xmlns="http://www.w3.org/2000/svg" version="1.1">
 <metadata>
  <rdf:RDF xmlns:dc="http://purl.org/dc/elements/1.1/" xmlns:cc="http://creativecommons.org/ns#" xmlns:rdf="http://www.w3.org/1999/02/22-rdf-syntax-ns#">
   <cc:Work>
    <dc:type rdf:resource="http://purl.org/dc/dcmitype/StillImage"/>
    <dc:date>2023-10-10T10:56:04.266450</dc:date>
    <dc:format>image/svg+xml</dc:format>
    <dc:creator>
     <cc:Agent>
      <dc:title>Matplotlib v3.6.1, https://matplotlib.org/</dc:title>
     </cc:Agent>
    </dc:creator>
   </cc:Work>
  </rdf:RDF>
 </metadata>
 <defs>
  <style type="text/css">*{stroke-linejoin: round; stroke-linecap: butt}</style>
 </defs>
 <g id="figure_1">
  <g id="patch_1">
   <path d="M 0 345.6 
L 460.8 345.6 
L 460.8 0 
L 0 0 
z
" style="fill: #ffffff"/>
  </g>
  <g id="axes_1">
   <g id="patch_2">
    <path d="M 413.867748 223.664327 
Q 366.446147 208.451097 320.089139 193.579398 
" clip-path="url(#pe4b8ba69f2)" style="fill: none; stroke: #000000; stroke-linecap: round"/>
    <path d="M 323.286994 196.705693 
L 320.089139 193.579398 
L 324.508888 192.896891 
L 323.286994 196.705693 
z
" clip-path="url(#pe4b8ba69f2)" style="stroke: #000000; stroke-linecap: round"/>
   </g>
   <g id="patch_3">
    <path d="M 117.715156 31.817804 
Q 133.900883 77.447668 149.712841 122.023825 
" clip-path="url(#pe4b8ba69f2)" style="fill: none; stroke: #000000; stroke-linecap: round"/>
    <path d="M 150.260534 117.585353 
L 149.712841 122.023825 
L 146.490679 118.922588 
L 150.260534 117.585353 
z
" clip-path="url(#pe4b8ba69f2)" style="stroke: #000000; stroke-linecap: round"/>
   </g>
   <g id="patch_4">
    <path d="M 418.887186 182.952184 
Q 368.997527 187.707357 320.220859 192.356445 
" clip-path="url(#pe4b8ba69f2)" style="fill: none; stroke: #000000; stroke-linecap: round"/>
    <path d="M 324.39258 193.967887 
L 320.220859 192.356445 
L 324.013045 189.985934 
L 324.39258 193.967887 
z
" clip-path="url(#pe4b8ba69f2)" style="stroke: #000000; stroke-linecap: round"/>
   </g>
   <g id="patch_5">
    <path d="M 392.235003 260.442188 
Q 355.425759 227.192838 319.446186 194.692919 
" clip-path="url(#pe4b8ba69f2)" style="fill: none; stroke: #000000; stroke-linecap: round"/>
    <path d="M 321.073881 198.858325 
L 319.446186 194.692919 
L 323.755128 195.890006 
L 321.073881 198.858325 
z
" clip-path="url(#pe4b8ba69f2)" style="stroke: #000000; stroke-linecap: round"/>
   </g>
   <g id="patch_6">
    <path d="M 41.889578 104.505159 
Q 95.360398 114.526299 147.732315 124.34149 
" clip-path="url(#pe4b8ba69f2)" style="fill: none; stroke: #000000; stroke-linecap: round"/>
    <path d="M 144.169177 121.63889 
L 147.732315 124.34149 
L 143.432352 125.57044 
L 144.169177 121.63889 
z
" clip-path="url(#pe4b8ba69f2)" style="stroke: #000000; stroke-linecap: round"/>
   </g>
   <g id="patch_7">
    <path d="M 161.530817 38.658021 
Q 156.253103 80.819079 151.114261 121.870762 
" clip-path="url(#pe4b8ba69f2)" style="fill: none; stroke: #000000; stroke-linecap: round"/>
    <path d="M 153.595614 118.150159 
L 151.114261 121.870762 
L 149.626591 117.653318 
L 153.595614 118.150159 
z
" clip-path="url(#pe4b8ba69f2)" style="stroke: #000000; stroke-linecap: round"/>
   </g>
   <g id="patch_8">
    <path d="M 74.760957 48.70564 
Q 112.064942 86.120065 148.579528 122.742753 
" clip-path="url(#pe4b8ba69f2)" style="fill: none; stroke: #000000; stroke-linecap: round"/>
    <path d="M 147.171587 118.498026 
L 148.579528 122.742753 
L 144.338982 121.32227 
L 147.171587 118.498026 
z
" clip-path="url(#pe4b8ba69f2)" style="stroke: #000000; stroke-linecap: round"/>
   </g>
   <g id="patch_9">
    <path d="M 150.086217 123.076425 
Q 133.90049 77.446561 118.088532 32.870404 
" clip-path="url(#pe4b8ba69f2)" style="fill: none; stroke: #000000; stroke-linecap: round"/>
    <path d="M 117.54084 37.308876 
L 118.088532 32.870404 
L 121.310694 35.971641 
L 117.54084 37.308876 
z
" clip-path="url(#pe4b8ba69f2)" style="stroke: #000000; stroke-linecap: round"/>
   </g>
   <g id="patch_10">
    <path d="M 148.831741 124.547537 
Q 95.360922 114.526397 42.989004 104.711206 
" clip-path="url(#pe4b8ba69f2)" style="fill: none; stroke: #000000; stroke-linecap: round"/>
    <path d="M 46.552142 107.413806 
L 42.989004 104.711206 
L 47.288967 103.482255 
L 46.552142 107.413806 
z
" clip-path="url(#pe4b8ba69f2)" style="stroke: #000000; stroke-linecap: round"/>
   </g>
   <g id="patch_11">
    <path d="M 150.975373 122.980271 
Q 156.253086 80.819213 161.391928 39.76753 
" clip-path="url(#pe4b8ba69f2)" style="fill: none; stroke: #000000; stroke-linecap: round"/>
    <path d="M 158.910575 43.488133 
L 161.391928 39.76753 
L 162.879599 43.984974 
L 158.910575 43.488133 
z
" clip-path="url(#pe4b8ba69f2)" style="stroke: #000000; stroke-linecap: round"/>
   </g>
   <g id="patch_12">
    <path d="M 149.367966 123.533525 
Q 112.063981 86.1191 75.549395 49.496413 
" clip-path="url(#pe4b8ba69f2)" style="fill: none; stroke: #000000; stroke-linecap: round"/>
    <path d="M 76.957336 53.741139 
L 75.549395 49.496413 
L 79.789941 50.916896 
L 76.957336 53.741139 
z
" clip-path="url(#pe4b8ba69f2)" style="stroke: #000000; stroke-linecap: round"/>
   </g>
   <g id="patch_13">
    <path d="M 151.709376 126.578169 
Q 177.94411 171.629466 203.616222 215.714608 
" clip-path="url(#pe4b8ba69f2)" style="fill: none; stroke: #000000; stroke-linecap: round"/>
    <path d="M 203.331637 211.251536 
L 203.616222 215.714608 
L 199.875013 213.264432 
L 203.331637 211.251536 
z
" clip-path="url(#pe4b8ba69f2)" style="stroke: #000000; stroke-linecap: round"/>
   </g>
   <g id="patch_14">
    <path d="M 149.19019 126.075316 
Q 112.799659 153.672306 77.299969 180.593721 
" clip-path="url(#pe4b8ba69f2)" style="fill: none; stroke: #000000; stroke-linecap: round"/>
    <path d="M 81.695645 179.770295 
L 77.299969 180.593721 
L 79.278634 176.583124 
L 81.695645 179.770295 
z
" clip-path="url(#pe4b8ba69f2)" style="stroke: #000000; stroke-linecap: round"/>
   </g>
   <g id="patch_15">
    <path d="M 152.530154 125.634946 
Q 233.95961 158.77607 314.353513 191.495733 
" clip-path="url(#pe4b8ba69f2)" style="fill: none; stroke: #000000; stroke-linecap: round"/>
    <path d="M 311.402539 188.135412 
L 314.353513 191.495733 
L 309.894673 191.840319 
L 311.402539 188.135412 
z
" clip-path="url(#pe4b8ba69f2)" style="stroke: #000000; stroke-linecap: round"/>
   </g>
   <g id="patch_16">
    <path d="M 148.843306 125.33058 
Q 99.684509 136.414832 51.616365 147.253165 
" clip-path="url(#pe4b8ba69f2)" style="fill: none; stroke: #000000; stroke-linecap: round"/>
    <path d="M 55.958317 148.324359 
L 51.616365 147.253165 
L 55.078491 144.42232 
L 55.958317 148.324359 
z
" clip-path="url(#pe4b8ba69f2)" style="stroke: #000000; stroke-linecap: round"/>
   </g>
   <g id="patch_17">
    <path d="M 149.015529 124.012998 
Q 115.790891 106.789106 83.558838 90.079777 
" clip-path="url(#pe4b8ba69f2)" style="fill: none; stroke: #000000; stroke-linecap: round"/>
    <path d="M 86.189539 93.696324 
L 83.558838 90.079777 
L 88.030497 90.145145 
L 86.189539 93.696324 
z
" clip-path="url(#pe4b8ba69f2)" style="stroke: #000000; stroke-linecap: round"/>
   </g>
   <g id="patch_18">
    <path d="M 152.645909 125.20835 
Q 207.362662 133.916797 260.975278 142.449514 
" clip-path="url(#pe4b8ba69f2)" style="fill: none; stroke: #000000; stroke-linecap: round"/>
    <path d="M 257.339349 139.845666 
L 260.975278 142.449514 
L 256.710642 143.795948 
L 257.339349 139.845666 
z
" clip-path="url(#pe4b8ba69f2)" style="stroke: #000000; stroke-linecap: round"/>
   </g>
   <g id="patch_19">
    <path d="M 191.493317 313.695524 
Q 198.18557 266.982887 204.719267 221.376984 
" clip-path="url(#pe4b8ba69f2)" style="fill: none; stroke: #000000; stroke-linecap: round"/>
    <path d="M 202.172215 225.052924 
L 204.719267 221.376984 
L 206.131787 225.620189 
L 202.172215 225.052924 
z
" clip-path="url(#pe4b8ba69f2)" style="stroke: #000000; stroke-linecap: round"/>
   </g>
   <g id="patch_20">
    <path d="M 204.17769 216.678783 
Q 177.942956 171.627486 152.270844 127.542344 
" clip-path="url(#pe4b8ba69f2)" style="fill: none; stroke: #000000; stroke-linecap: round"/>
    <path d="M 152.555429 132.005416 
L 152.270844 127.542344 
L 156.012053 129.992519 
L 152.555429 132.005416 
z
" clip-path="url(#pe4b8ba69f2)" style="stroke: #000000; stroke-linecap: round"/>
   </g>
   <g id="patch_21">
    <path d="M 204.878259 220.267198 
Q 198.186007 266.979835 191.65231 312.585738 
" clip-path="url(#pe4b8ba69f2)" style="fill: none; stroke: #000000; stroke-linecap: round"/>
    <path d="M 194.199361 308.909799 
L 191.65231 312.585738 
L 190.239789 308.342533 
L 194.199361 308.909799 
z
" clip-path="url(#pe4b8ba69f2)" style="stroke: #000000; stroke-linecap: round"/>
   </g>
   <g id="patch_22">
    <path d="M 203.4555 217.419769 
Q 183.531625 206.465484 164.58747 196.049854 
" clip-path="url(#pe4b8ba69f2)" style="fill: none; stroke: #000000; stroke-linecap: round"/>
    <path d="M 167.129041 199.729584 
L 164.58747 196.049854 
L 169.056197 196.224435 
L 167.129041 199.729584 
z
" clip-path="url(#pe4b8ba69f2)" style="stroke: #000000; stroke-linecap: round"/>
   </g>
   <g id="patch_23">
    <path d="M 207.04313 217.918975 
Q 261.168961 205.498949 314.205079 193.328975 
" clip-path="url(#pe4b8ba69f2)" style="fill: none; stroke: #000000; stroke-linecap: round"/>
    <path d="M 309.859097 192.27425 
L 314.205079 193.328975 
L 310.75371 196.172925 
L 309.859097 192.27425 
z
" clip-path="url(#pe4b8ba69f2)" style="stroke: #000000; stroke-linecap: round"/>
   </g>
   <g id="patch_24">
    <path d="M 203.914654 219.83857 
Q 173.114096 256.807241 143.029195 292.916939 
" clip-path="url(#pe4b8ba69f2)" style="fill: none; stroke: #000000; stroke-linecap: round"/>
    <path d="M 147.126184 291.123987 
L 143.029195 292.916939 
L 144.053026 288.563576 
L 147.126184 291.123987 
z
" clip-path="url(#pe4b8ba69f2)" style="stroke: #000000; stroke-linecap: round"/>
   </g>
   <g id="patch_25">
    <path d="M 206.343042 216.826758 
Q 234.572243 180.641611 262.113745 145.337979 
" clip-path="url(#pe4b8ba69f2)" style="fill: none; stroke: #000000; stroke-linecap: round"/>
    <path d="M 258.076455 147.261593 
L 262.113745 145.337979 
L 261.230262 149.72198 
L 258.076455 147.261593 
z
" clip-path="url(#pe4b8ba69f2)" style="stroke: #000000; stroke-linecap: round"/>
   </g>
   <g id="patch_26">
    <path d="M 76.408808 181.269538 
Q 112.799339 153.672549 148.299029 126.751134 
" clip-path="url(#pe4b8ba69f2)" style="fill: none; stroke: #000000; stroke-linecap: round"/>
    <path d="M 143.903352 127.57456 
L 148.299029 126.751134 
L 146.320363 130.76173 
L 143.903352 127.57456 
z
" clip-path="url(#pe4b8ba69f2)" style="stroke: #000000; stroke-linecap: round"/>
   </g>
   <g id="patch_27">
    <path d="M 266.569382 57.59569 
Q 265.310158 99.29525 264.084681 139.877285 
" clip-path="url(#pe4b8ba69f2)" style="fill: none; stroke: #000000; stroke-linecap: round"/>
    <path d="M 266.204505 135.939475 
L 264.084681 139.877285 
L 262.206327 135.81874 
L 266.204505 135.939475 
z
" clip-path="url(#pe4b8ba69f2)" style="stroke: #000000; stroke-linecap: round"/>
   </g>
   <g id="patch_28">
    <path d="M 402.340783 143.557308 
Q 360.598724 167.618647 319.825297 191.121638 
" clip-path="url(#pe4b8ba69f2)" style="fill: none; stroke: #000000; stroke-linecap: round"/>
    <path d="M 324.289582 190.856775 
L 319.825297 191.121638 
L 322.291977 187.391292 
L 324.289582 190.856775 
z
" clip-path="url(#pe4b8ba69f2)" style="stroke: #000000; stroke-linecap: round"/>
   </g>
   <g id="patch_29">
    <path d="M 163.608425 195.511568 
Q 183.532299 206.465854 202.476454 216.881483 
" clip-path="url(#pe4b8ba69f2)" style="fill: none; stroke: #000000; stroke-linecap: round"/>
    <path d="M 199.934883 213.201753 
L 202.476454 216.881483 
L 198.007727 216.706902 
L 199.934883 213.201753 
z
" clip-path="url(#pe4b8ba69f2)" style="stroke: #000000; stroke-linecap: round"/>
   </g>
   <g id="patch_30">
    <path d="M 351.176983 285.087727 
Q 334.513274 239.776787 318.235467 195.515171 
" clip-path="url(#pe4b8ba69f2)" style="fill: none; stroke: #000000; stroke-linecap: round"/>
    <path d="M 317.739029 199.959668 
L 318.235467 195.515171 
L 321.493201 198.57902 
L 317.739029 199.959668 
z
" clip-path="url(#pe4b8ba69f2)" style="stroke: #000000; stroke-linecap: round"/>
   </g>
   <g id="patch_31">
    <path d="M 319.02362 193.237571 
Q 366.445221 208.4508 412.80223 223.3225 
" clip-path="url(#pe4b8ba69f2)" style="fill: none; stroke: #000000; stroke-linecap: round"/>
    <path d="M 409.604375 220.196205 
L 412.80223 223.3225 
L 408.382481 224.005007 
L 409.604375 220.196205 
z
" clip-path="url(#pe4b8ba69f2)" style="stroke: #000000; stroke-linecap: round"/>
   </g>
   <g id="patch_32">
    <path d="M 319.106419 192.462667 
Q 368.996077 187.707495 417.772745 183.058406 
" clip-path="url(#pe4b8ba69f2)" style="fill: none; stroke: #000000; stroke-linecap: round"/>
    <path d="M 413.601024 181.446964 
L 417.772745 183.058406 
L 413.980559 185.428918 
L 413.601024 181.446964 
z
" clip-path="url(#pe4b8ba69f2)" style="stroke: #000000; stroke-linecap: round"/>
   </g>
   <g id="patch_33">
    <path d="M 318.615973 193.942998 
Q 355.425217 227.192348 391.404791 259.692267 
" clip-path="url(#pe4b8ba69f2)" style="fill: none; stroke: #000000; stroke-linecap: round"/>
    <path d="M 389.777095 255.526861 
L 391.404791 259.692267 
L 387.095849 258.49518 
L 389.777095 255.526861 
z
" clip-path="url(#pe4b8ba69f2)" style="stroke: #000000; stroke-linecap: round"/>
   </g>
   <g id="patch_34">
    <path d="M 315.384769 191.915446 
Q 233.955313 158.774321 153.56141 126.054659 
" clip-path="url(#pe4b8ba69f2)" style="fill: none; stroke: #000000; stroke-linecap: round"/>
    <path d="M 156.512384 129.414979 
L 153.56141 126.054659 
L 158.020251 125.710072 
L 156.512384 129.414979 
z
" clip-path="url(#pe4b8ba69f2)" style="stroke: #000000; stroke-linecap: round"/>
   </g>
   <g id="patch_35">
    <path d="M 315.289774 193.080074 
Q 261.163944 205.500101 208.127826 217.670075 
" clip-path="url(#pe4b8ba69f2)" style="fill: none; stroke: #000000; stroke-linecap: round"/>
    <path d="M 212.473807 218.7248 
L 208.127826 217.670075 
L 211.579195 214.826125 
L 212.473807 218.7248 
z
" clip-path="url(#pe4b8ba69f2)" style="stroke: #000000; stroke-linecap: round"/>
   </g>
   <g id="patch_36">
    <path d="M 318.857883 191.679284 
Q 360.599943 167.617945 401.37337 144.114953 
" clip-path="url(#pe4b8ba69f2)" style="fill: none; stroke: #000000; stroke-linecap: round"/>
    <path d="M 396.909084 144.379817 
L 401.37337 144.114953 
L 398.906689 147.8453 
L 396.909084 144.379817 
z
" clip-path="url(#pe4b8ba69f2)" style="stroke: #000000; stroke-linecap: round"/>
   </g>
   <g id="patch_37">
    <path d="M 317.847894 194.461305 
Q 334.511603 239.772244 350.789409 284.03386 
" clip-path="url(#pe4b8ba69f2)" style="fill: none; stroke: #000000; stroke-linecap: round"/>
    <path d="M 351.285848 279.589364 
L 350.789409 284.03386 
L 347.531675 280.970012 
L 351.285848 279.589364 
z
" clip-path="url(#pe4b8ba69f2)" style="stroke: #000000; stroke-linecap: round"/>
   </g>
   <g id="patch_38">
    <path d="M 315.768227 191.326257 
Q 290.586657 167.788183 266.221861 145.013576 
" clip-path="url(#pe4b8ba69f2)" style="fill: none; stroke: #000000; stroke-linecap: round"/>
    <path d="M 267.778309 149.206126 
L 266.221861 145.013576 
L 270.509769 146.283947 
L 267.778309 149.206126 
z
" clip-path="url(#pe4b8ba69f2)" style="stroke: #000000; stroke-linecap: round"/>
   </g>
   <g id="patch_39">
    <path d="M 142.310602 293.779437 
Q 173.11116 256.810766 203.196061 220.701068 
" clip-path="url(#pe4b8ba69f2)" style="fill: none; stroke: #000000; stroke-linecap: round"/>
    <path d="M 199.099072 222.494021 
L 203.196061 220.701068 
L 202.17223 225.054431 
L 199.099072 222.494021 
z
" clip-path="url(#pe4b8ba69f2)" style="stroke: #000000; stroke-linecap: round"/>
   </g>
   <g id="patch_40">
    <path d="M 50.530166 147.49808 
Q 99.688963 136.413828 147.757106 125.575495 
" clip-path="url(#pe4b8ba69f2)" style="fill: none; stroke: #000000; stroke-linecap: round"/>
    <path d="M 143.415155 124.504301 
L 147.757106 125.575495 
L 144.294981 128.40634 
L 143.415155 124.504301 
z
" clip-path="url(#pe4b8ba69f2)" style="stroke: #000000; stroke-linecap: round"/>
   </g>
   <g id="patch_41">
    <path d="M 82.56693 89.565565 
Q 115.791568 106.789457 148.023621 123.498786 
" clip-path="url(#pe4b8ba69f2)" style="fill: none; stroke: #000000; stroke-linecap: round"/>
    <path d="M 145.39292 119.882239 
L 148.023621 123.498786 
L 143.551963 123.433418 
L 145.39292 119.882239 
z
" clip-path="url(#pe4b8ba69f2)" style="stroke: #000000; stroke-linecap: round"/>
   </g>
   <g id="patch_42">
    <path d="M 258.991177 231.458677 
Q 261.437276 188.160053 263.820314 145.977683 
" clip-path="url(#pe4b8ba69f2)" style="fill: none; stroke: #000000; stroke-linecap: round"/>
    <path d="M 261.597883 149.858508 
L 263.820314 145.977683 
L 265.591515 150.084123 
L 261.597883 149.858508 
z
" clip-path="url(#pe4b8ba69f2)" style="stroke: #000000; stroke-linecap: round"/>
   </g>
   <g id="patch_43">
    <path d="M 262.081139 142.625518 
Q 207.364385 133.917071 153.75177 125.384354 
" clip-path="url(#pe4b8ba69f2)" style="fill: none; stroke: #000000; stroke-linecap: round"/>
    <path d="M 157.387698 127.988202 
L 153.75177 125.384354 
L 158.016405 124.03792 
L 157.387698 127.988202 
z
" clip-path="url(#pe4b8ba69f2)" style="stroke: #000000; stroke-linecap: round"/>
   </g>
   <g id="patch_44">
    <path d="M 262.801987 144.455768 
Q 234.572786 180.640915 207.031284 215.944547 
" clip-path="url(#pe4b8ba69f2)" style="fill: none; stroke: #000000; stroke-linecap: round"/>
    <path d="M 211.068574 214.020933 
L 207.031284 215.944547 
L 207.914767 211.560547 
L 211.068574 214.020933 
z
" clip-path="url(#pe4b8ba69f2)" style="stroke: #000000; stroke-linecap: round"/>
   </g>
   <g id="patch_45">
    <path d="M 264.050974 140.99352 
Q 265.310197 99.29396 266.535674 58.711925 
" clip-path="url(#pe4b8ba69f2)" style="fill: none; stroke: #000000; stroke-linecap: round"/>
    <path d="M 264.41585 62.649735 
L 266.535674 58.711925 
L 268.414028 62.77047 
L 264.41585 62.649735 
z
" clip-path="url(#pe4b8ba69f2)" style="stroke: #000000; stroke-linecap: round"/>
   </g>
   <g id="patch_46">
    <path d="M 265.404659 144.24971 
Q 290.586229 167.787783 314.951025 190.56239 
" clip-path="url(#pe4b8ba69f2)" style="fill: none; stroke: #000000; stroke-linecap: round"/>
    <path d="M 313.394577 186.369841 
L 314.951025 190.56239 
L 310.663117 189.292019 
L 313.394577 186.369841 
z
" clip-path="url(#pe4b8ba69f2)" style="stroke: #000000; stroke-linecap: round"/>
   </g>
   <g id="patch_47">
    <path d="M 263.883174 144.865007 
Q 261.437074 188.163631 259.054036 230.346 
" clip-path="url(#pe4b8ba69f2)" style="fill: none; stroke: #000000; stroke-linecap: round"/>
    <path d="M 261.276468 226.465176 
L 259.054036 230.346 
L 257.282835 226.239561 
L 261.276468 226.465176 
z
" clip-path="url(#pe4b8ba69f2)" style="stroke: #000000; stroke-linecap: round"/>
   </g>
   <g id="patch_48">
    <path d="M 265.619094 141.876501 
Q 301.474721 118.65991 336.39187 96.050985 
" clip-path="url(#pe4b8ba69f2)" style="fill: none; stroke: #000000; stroke-linecap: round"/>
    <path d="M 331.947241 96.546238 
L 336.39187 96.050985 
L 334.121295 99.90384 
L 331.947241 96.546238 
z
" clip-path="url(#pe4b8ba69f2)" style="stroke: #000000; stroke-linecap: round"/>
   </g>
   <g id="patch_49">
    <path d="M 264.962002 141.25164 
Q 289.488938 98.798508 313.456573 57.313459 
" clip-path="url(#pe4b8ba69f2)" style="fill: none; stroke: #000000; stroke-linecap: round"/>
    <path d="M 309.723799 59.776465 
L 313.456573 57.313459 
L 313.187314 61.777482 
L 309.723799 59.776465 
z
" clip-path="url(#pe4b8ba69f2)" style="stroke: #000000; stroke-linecap: round"/>
   </g>
   <g id="patch_50">
    <path d="M 264.831392 144.673596 
Q 281.864146 180.081218 298.412234 214.481318 
" clip-path="url(#pe4b8ba69f2)" style="fill: none; stroke: #000000; stroke-linecap: round"/>
    <path d="M 298.48055 210.009704 
L 298.412234 214.481318 
L 294.875932 211.743697 
L 298.48055 210.009704 
z
" clip-path="url(#pe4b8ba69f2)" style="stroke: #000000; stroke-linecap: round"/>
   </g>
   <g id="patch_51">
    <path d="M 337.330864 95.442985 
Q 301.475237 118.659576 266.558089 141.268501 
" clip-path="url(#pe4b8ba69f2)" style="fill: none; stroke: #000000; stroke-linecap: round"/>
    <path d="M 271.002717 140.773248 
L 266.558089 141.268501 
L 268.828663 137.415646 
L 271.002717 140.773248 
z
" clip-path="url(#pe4b8ba69f2)" style="stroke: #000000; stroke-linecap: round"/>
   </g>
   <g id="patch_52">
    <path d="M 314.01576 56.345573 
Q 289.488825 98.798705 265.52119 140.283755 
" clip-path="url(#pe4b8ba69f2)" style="fill: none; stroke: #000000; stroke-linecap: round"/>
    <path d="M 269.253963 137.820748 
L 265.52119 140.283755 
L 265.790449 135.819732 
L 269.253963 137.820748 
z
" clip-path="url(#pe4b8ba69f2)" style="stroke: #000000; stroke-linecap: round"/>
   </g>
   <g id="patch_53">
    <path d="M 298.899583 215.494419 
Q 281.86683 180.086797 265.318742 145.686697 
" clip-path="url(#pe4b8ba69f2)" style="fill: none; stroke: #000000; stroke-linecap: round"/>
    <path d="M 265.250426 150.158311 
L 265.318742 145.686697 
L 268.855043 148.424318 
L 265.250426 150.158311 
z
" clip-path="url(#pe4b8ba69f2)" style="stroke: #000000; stroke-linecap: round"/>
   </g>
   <g id="PathCollection_1">
    <defs>
     <path id="m8c36a5db75" d="M 0 1.936492 
C 0.513564 1.936492 1.006162 1.732451 1.369306 1.369306 
C 1.732451 1.006162 1.936492 0.513564 1.936492 0 
C 1.936492 -0.513564 1.732451 -1.006162 1.369306 -1.369306 
C 1.006162 -1.732451 0.513564 -1.936492 0 -1.936492 
C -0.513564 -1.936492 -1.006162 -1.732451 -1.369306 -1.369306 
C -1.732451 -1.006162 -1.936492 -0.513564 -1.936492 0 
C -1.936492 0.513564 -1.732451 1.006162 -1.369306 1.369306 
C -1.006162 1.732451 -0.513564 1.936492 0 1.936492 
z
" style="stroke: #1f78b4"/>
    </defs>
    <g clip-path="url(#pe4b8ba69f2)">
     <use xlink:href="#m8c36a5db75" x="415.710988" y="224.255653" style="fill: #1f78b4; stroke: #1f78b4"/>
     <use xlink:href="#m8c36a5db75" x="117.066831" y="29.990083" style="fill: #1f78b4; stroke: #1f78b4"/>
     <use xlink:href="#m8c36a5db75" x="420.813223" y="182.768607" style="fill: #1f78b4; stroke: #1f78b4"/>
     <use xlink:href="#m8c36a5db75" x="393.670595" y="261.738941" style="fill: #1f78b4; stroke: #1f78b4"/>
     <use xlink:href="#m8c36a5db75" x="39.986777" y="104.148549" style="fill: #1f78b4; stroke: #1f78b4"/>
     <use xlink:href="#m8c36a5db75" x="161.771647" y="36.734145" style="fill: #1f78b4; stroke: #1f78b4"/>
     <use xlink:href="#m8c36a5db75" x="73.394381" y="47.335019" style="fill: #1f78b4; stroke: #1f78b4"/>
     <use xlink:href="#m8c36a5db75" x="150.734542" y="124.904147" style="fill: #1f78b4; stroke: #1f78b4"/>
     <use xlink:href="#m8c36a5db75" x="191.219053" y="315.609917" style="fill: #1f78b4; stroke: #1f78b4"/>
     <use xlink:href="#m8c36a5db75" x="205.152524" y="218.352805" style="fill: #1f78b4; stroke: #1f78b4"/>
     <use xlink:href="#m8c36a5db75" x="74.864456" y="182.440708" style="fill: #1f78b4; stroke: #1f78b4"/>
     <use xlink:href="#m8c36a5db75" x="266.62785" y="55.659489" style="fill: #1f78b4; stroke: #1f78b4"/>
     <use xlink:href="#m8c36a5db75" x="404.018285" y="142.590347" style="fill: #1f78b4; stroke: #1f78b4"/>
     <use xlink:href="#m8c36a5db75" x="161.911401" y="194.578533" style="fill: #1f78b4; stroke: #1f78b4"/>
     <use xlink:href="#m8c36a5db75" x="351.844496" y="286.902787" style="fill: #1f78b4; stroke: #1f78b4"/>
     <use xlink:href="#m8c36a5db75" x="317.180381" y="192.646245" style="fill: #1f78b4; stroke: #1f78b4"/>
     <use xlink:href="#m8c36a5db75" x="141.072732" y="295.265202" style="fill: #1f78b4; stroke: #1f78b4"/>
     <use xlink:href="#m8c36a5db75" x="48.638929" y="147.924513" style="fill: #1f78b4; stroke: #1f78b4"/>
     <use xlink:href="#m8c36a5db75" x="80.847917" y="88.674416" style="fill: #1f78b4; stroke: #1f78b4"/>
     <use xlink:href="#m8c36a5db75" x="258.881846" y="233.393962" style="fill: #1f78b4; stroke: #1f78b4"/>
     <use xlink:href="#m8c36a5db75" x="263.992505" y="142.929721" style="fill: #1f78b4; stroke: #1f78b4"/>
     <use xlink:href="#m8c36a5db75" x="338.957453" y="94.389765" style="fill: #1f78b4; stroke: #1f78b4"/>
     <use xlink:href="#m8c36a5db75" x="314.985258" y="54.667492" style="fill: #1f78b4; stroke: #1f78b4"/>
     <use xlink:href="#m8c36a5db75" x="299.73847" y="217.238294" style="fill: #1f78b4; stroke: #1f78b4"/>
    </g>
   </g>
   <g id="text_1">
    <g clip-path="url(#pe4b8ba69f2)">
     <!-- 0 -->
     <g transform="translate(412.529738 227.015028) scale(0.1 -0.1)">
      <defs>
       <path id="DejaVuSans-30" d="M 2034 4250 
Q 1547 4250 1301 3770 
Q 1056 3291 1056 2328 
Q 1056 1369 1301 889 
Q 1547 409 2034 409 
Q 2525 409 2770 889 
Q 3016 1369 3016 2328 
Q 3016 3291 2770 3770 
Q 2525 4250 2034 4250 
z
M 2034 4750 
Q 2819 4750 3233 4129 
Q 3647 3509 3647 2328 
Q 3647 1150 3233 529 
Q 2819 -91 2034 -91 
Q 1250 -91 836 529 
Q 422 1150 422 2328 
Q 422 3509 836 4129 
Q 1250 4750 2034 4750 
z
" transform="scale(0.015625)"/>
      </defs>
      <use xlink:href="#DejaVuSans-30"/>
     </g>
    </g>
   </g>
   <g id="text_2">
    <g clip-path="url(#pe4b8ba69f2)">
     <!-- 1 -->
     <g transform="translate(113.885581 32.749458) scale(0.1 -0.1)">
      <defs>
       <path id="DejaVuSans-31" d="M 794 531 
L 1825 531 
L 1825 4091 
L 703 3866 
L 703 4441 
L 1819 4666 
L 2450 4666 
L 2450 531 
L 3481 531 
L 3481 0 
L 794 0 
L 794 531 
z
" transform="scale(0.015625)"/>
      </defs>
      <use xlink:href="#DejaVuSans-31"/>
     </g>
    </g>
   </g>
   <g id="text_3">
    <g clip-path="url(#pe4b8ba69f2)">
     <!-- 2 -->
     <g transform="translate(417.631973 185.527982) scale(0.1 -0.1)">
      <defs>
       <path id="DejaVuSans-32" d="M 1228 531 
L 3431 531 
L 3431 0 
L 469 0 
L 469 531 
Q 828 903 1448 1529 
Q 2069 2156 2228 2338 
Q 2531 2678 2651 2914 
Q 2772 3150 2772 3378 
Q 2772 3750 2511 3984 
Q 2250 4219 1831 4219 
Q 1534 4219 1204 4116 
Q 875 4013 500 3803 
L 500 4441 
Q 881 4594 1212 4672 
Q 1544 4750 1819 4750 
Q 2544 4750 2975 4387 
Q 3406 4025 3406 3419 
Q 3406 3131 3298 2873 
Q 3191 2616 2906 2266 
Q 2828 2175 2409 1742 
Q 1991 1309 1228 531 
z
" transform="scale(0.015625)"/>
      </defs>
      <use xlink:href="#DejaVuSans-32"/>
     </g>
    </g>
   </g>
   <g id="text_4">
    <g clip-path="url(#pe4b8ba69f2)">
     <!-- 3 -->
     <g transform="translate(390.489345 264.498316) scale(0.1 -0.1)">
      <defs>
       <path id="DejaVuSans-33" d="M 2597 2516 
Q 3050 2419 3304 2112 
Q 3559 1806 3559 1356 
Q 3559 666 3084 287 
Q 2609 -91 1734 -91 
Q 1441 -91 1130 -33 
Q 819 25 488 141 
L 488 750 
Q 750 597 1062 519 
Q 1375 441 1716 441 
Q 2309 441 2620 675 
Q 2931 909 2931 1356 
Q 2931 1769 2642 2001 
Q 2353 2234 1838 2234 
L 1294 2234 
L 1294 2753 
L 1863 2753 
Q 2328 2753 2575 2939 
Q 2822 3125 2822 3475 
Q 2822 3834 2567 4026 
Q 2313 4219 1838 4219 
Q 1578 4219 1281 4162 
Q 984 4106 628 3988 
L 628 4550 
Q 988 4650 1302 4700 
Q 1616 4750 1894 4750 
Q 2613 4750 3031 4423 
Q 3450 4097 3450 3541 
Q 3450 3153 3228 2886 
Q 3006 2619 2597 2516 
z
" transform="scale(0.015625)"/>
      </defs>
      <use xlink:href="#DejaVuSans-33"/>
     </g>
    </g>
   </g>
   <g id="text_5">
    <g clip-path="url(#pe4b8ba69f2)">
     <!-- 4 -->
     <g transform="translate(36.805527 106.907924) scale(0.1 -0.1)">
      <defs>
       <path id="DejaVuSans-34" d="M 2419 4116 
L 825 1625 
L 2419 1625 
L 2419 4116 
z
M 2253 4666 
L 3047 4666 
L 3047 1625 
L 3713 1625 
L 3713 1100 
L 3047 1100 
L 3047 0 
L 2419 0 
L 2419 1100 
L 313 1100 
L 313 1709 
L 2253 4666 
z
" transform="scale(0.015625)"/>
      </defs>
      <use xlink:href="#DejaVuSans-34"/>
     </g>
    </g>
   </g>
   <g id="text_6">
    <g clip-path="url(#pe4b8ba69f2)">
     <!-- 5 -->
     <g transform="translate(158.590397 39.49352) scale(0.1 -0.1)">
      <defs>
       <path id="DejaVuSans-35" d="M 691 4666 
L 3169 4666 
L 3169 4134 
L 1269 4134 
L 1269 2991 
Q 1406 3038 1543 3061 
Q 1681 3084 1819 3084 
Q 2600 3084 3056 2656 
Q 3513 2228 3513 1497 
Q 3513 744 3044 326 
Q 2575 -91 1722 -91 
Q 1428 -91 1123 -41 
Q 819 9 494 109 
L 494 744 
Q 775 591 1075 516 
Q 1375 441 1709 441 
Q 2250 441 2565 725 
Q 2881 1009 2881 1497 
Q 2881 1984 2565 2268 
Q 2250 2553 1709 2553 
Q 1456 2553 1204 2497 
Q 953 2441 691 2322 
L 691 4666 
z
" transform="scale(0.015625)"/>
      </defs>
      <use xlink:href="#DejaVuSans-35"/>
     </g>
    </g>
   </g>
   <g id="text_7">
    <g clip-path="url(#pe4b8ba69f2)">
     <!-- 6 -->
     <g transform="translate(70.213131 50.094394) scale(0.1 -0.1)">
      <defs>
       <path id="DejaVuSans-36" d="M 2113 2584 
Q 1688 2584 1439 2293 
Q 1191 2003 1191 1497 
Q 1191 994 1439 701 
Q 1688 409 2113 409 
Q 2538 409 2786 701 
Q 3034 994 3034 1497 
Q 3034 2003 2786 2293 
Q 2538 2584 2113 2584 
z
M 3366 4563 
L 3366 3988 
Q 3128 4100 2886 4159 
Q 2644 4219 2406 4219 
Q 1781 4219 1451 3797 
Q 1122 3375 1075 2522 
Q 1259 2794 1537 2939 
Q 1816 3084 2150 3084 
Q 2853 3084 3261 2657 
Q 3669 2231 3669 1497 
Q 3669 778 3244 343 
Q 2819 -91 2113 -91 
Q 1303 -91 875 529 
Q 447 1150 447 2328 
Q 447 3434 972 4092 
Q 1497 4750 2381 4750 
Q 2619 4750 2861 4703 
Q 3103 4656 3366 4563 
z
" transform="scale(0.015625)"/>
      </defs>
      <use xlink:href="#DejaVuSans-36"/>
     </g>
    </g>
   </g>
   <g id="text_8">
    <g clip-path="url(#pe4b8ba69f2)">
     <!-- 7 -->
     <g transform="translate(147.553292 127.663522) scale(0.1 -0.1)">
      <defs>
       <path id="DejaVuSans-37" d="M 525 4666 
L 3525 4666 
L 3525 4397 
L 1831 0 
L 1172 0 
L 2766 4134 
L 525 4134 
L 525 4666 
z
" transform="scale(0.015625)"/>
      </defs>
      <use xlink:href="#DejaVuSans-37"/>
     </g>
    </g>
   </g>
   <g id="text_9">
    <g clip-path="url(#pe4b8ba69f2)">
     <!-- 8 -->
     <g transform="translate(188.037803 318.369292) scale(0.1 -0.1)">
      <defs>
       <path id="DejaVuSans-38" d="M 2034 2216 
Q 1584 2216 1326 1975 
Q 1069 1734 1069 1313 
Q 1069 891 1326 650 
Q 1584 409 2034 409 
Q 2484 409 2743 651 
Q 3003 894 3003 1313 
Q 3003 1734 2745 1975 
Q 2488 2216 2034 2216 
z
M 1403 2484 
Q 997 2584 770 2862 
Q 544 3141 544 3541 
Q 544 4100 942 4425 
Q 1341 4750 2034 4750 
Q 2731 4750 3128 4425 
Q 3525 4100 3525 3541 
Q 3525 3141 3298 2862 
Q 3072 2584 2669 2484 
Q 3125 2378 3379 2068 
Q 3634 1759 3634 1313 
Q 3634 634 3220 271 
Q 2806 -91 2034 -91 
Q 1263 -91 848 271 
Q 434 634 434 1313 
Q 434 1759 690 2068 
Q 947 2378 1403 2484 
z
M 1172 3481 
Q 1172 3119 1398 2916 
Q 1625 2713 2034 2713 
Q 2441 2713 2670 2916 
Q 2900 3119 2900 3481 
Q 2900 3844 2670 4047 
Q 2441 4250 2034 4250 
Q 1625 4250 1398 4047 
Q 1172 3844 1172 3481 
z
" transform="scale(0.015625)"/>
      </defs>
      <use xlink:href="#DejaVuSans-38"/>
     </g>
    </g>
   </g>
   <g id="text_10">
    <g clip-path="url(#pe4b8ba69f2)">
     <!-- 9 -->
     <g transform="translate(201.971274 221.11218) scale(0.1 -0.1)">
      <defs>
       <path id="DejaVuSans-39" d="M 703 97 
L 703 672 
Q 941 559 1184 500 
Q 1428 441 1663 441 
Q 2288 441 2617 861 
Q 2947 1281 2994 2138 
Q 2813 1869 2534 1725 
Q 2256 1581 1919 1581 
Q 1219 1581 811 2004 
Q 403 2428 403 3163 
Q 403 3881 828 4315 
Q 1253 4750 1959 4750 
Q 2769 4750 3195 4129 
Q 3622 3509 3622 2328 
Q 3622 1225 3098 567 
Q 2575 -91 1691 -91 
Q 1453 -91 1209 -44 
Q 966 3 703 97 
z
M 1959 2075 
Q 2384 2075 2632 2365 
Q 2881 2656 2881 3163 
Q 2881 3666 2632 3958 
Q 2384 4250 1959 4250 
Q 1534 4250 1286 3958 
Q 1038 3666 1038 3163 
Q 1038 2656 1286 2365 
Q 1534 2075 1959 2075 
z
" transform="scale(0.015625)"/>
      </defs>
      <use xlink:href="#DejaVuSans-39"/>
     </g>
    </g>
   </g>
   <g id="text_11">
    <g clip-path="url(#pe4b8ba69f2)">
     <!-- 10 -->
     <g transform="translate(68.501956 185.200083) scale(0.1 -0.1)">
      <use xlink:href="#DejaVuSans-31"/>
      <use xlink:href="#DejaVuSans-30" x="63.623047"/>
     </g>
    </g>
   </g>
   <g id="text_12">
    <g clip-path="url(#pe4b8ba69f2)">
     <!-- 11 -->
     <g transform="translate(260.26535 58.418864) scale(0.1 -0.1)">
      <use xlink:href="#DejaVuSans-31"/>
      <use xlink:href="#DejaVuSans-31" x="63.623047"/>
     </g>
    </g>
   </g>
   <g id="text_13">
    <g clip-path="url(#pe4b8ba69f2)">
     <!-- 12 -->
     <g transform="translate(397.655785 145.349722) scale(0.1 -0.1)">
      <use xlink:href="#DejaVuSans-31"/>
      <use xlink:href="#DejaVuSans-32" x="63.623047"/>
     </g>
    </g>
   </g>
   <g id="text_14">
    <g clip-path="url(#pe4b8ba69f2)">
     <!-- 13 -->
     <g transform="translate(155.548901 197.337908) scale(0.1 -0.1)">
      <use xlink:href="#DejaVuSans-31"/>
      <use xlink:href="#DejaVuSans-33" x="63.623047"/>
     </g>
    </g>
   </g>
   <g id="text_15">
    <g clip-path="url(#pe4b8ba69f2)">
     <!-- 14 -->
     <g transform="translate(345.481996 289.662162) scale(0.1 -0.1)">
      <use xlink:href="#DejaVuSans-31"/>
      <use xlink:href="#DejaVuSans-34" x="63.623047"/>
     </g>
    </g>
   </g>
   <g id="text_16">
    <g clip-path="url(#pe4b8ba69f2)">
     <!-- 15 -->
     <g transform="translate(310.817881 195.40562) scale(0.1 -0.1)">
      <use xlink:href="#DejaVuSans-31"/>
      <use xlink:href="#DejaVuSans-35" x="63.623047"/>
     </g>
    </g>
   </g>
   <g id="text_17">
    <g clip-path="url(#pe4b8ba69f2)">
     <!-- 16 -->
     <g transform="translate(134.710232 298.024577) scale(0.1 -0.1)">
      <use xlink:href="#DejaVuSans-31"/>
      <use xlink:href="#DejaVuSans-36" x="63.623047"/>
     </g>
    </g>
   </g>
   <g id="text_18">
    <g clip-path="url(#pe4b8ba69f2)">
     <!-- 17 -->
     <g transform="translate(42.276429 150.683888) scale(0.1 -0.1)">
      <use xlink:href="#DejaVuSans-31"/>
      <use xlink:href="#DejaVuSans-37" x="63.623047"/>
     </g>
    </g>
   </g>
   <g id="text_19">
    <g clip-path="url(#pe4b8ba69f2)">
     <!-- 18 -->
     <g transform="translate(74.485417 91.433791) scale(0.1 -0.1)">
      <use xlink:href="#DejaVuSans-31"/>
      <use xlink:href="#DejaVuSans-38" x="63.623047"/>
     </g>
    </g>
   </g>
   <g id="text_20">
    <g clip-path="url(#pe4b8ba69f2)">
     <!-- 19 -->
     <g transform="translate(252.519346 236.153337) scale(0.1 -0.1)">
      <use xlink:href="#DejaVuSans-31"/>
      <use xlink:href="#DejaVuSans-39" x="63.623047"/>
     </g>
    </g>
   </g>
   <g id="text_21">
    <g clip-path="url(#pe4b8ba69f2)">
     <!-- 20 -->
     <g transform="translate(257.630005 145.689096) scale(0.1 -0.1)">
      <use xlink:href="#DejaVuSans-32"/>
      <use xlink:href="#DejaVuSans-30" x="63.623047"/>
     </g>
    </g>
   </g>
   <g id="text_22">
    <g clip-path="url(#pe4b8ba69f2)">
     <!-- 21 -->
     <g transform="translate(332.594953 97.14914) scale(0.1 -0.1)">
      <use xlink:href="#DejaVuSans-32"/>
      <use xlink:href="#DejaVuSans-31" x="63.623047"/>
     </g>
    </g>
   </g>
   <g id="text_23">
    <g clip-path="url(#pe4b8ba69f2)">
     <!-- 22 -->
     <g transform="translate(308.622758 57.426867) scale(0.1 -0.1)">
      <use xlink:href="#DejaVuSans-32"/>
      <use xlink:href="#DejaVuSans-32" x="63.623047"/>
     </g>
    </g>
   </g>
   <g id="text_24">
    <g clip-path="url(#pe4b8ba69f2)">
     <!-- 23 -->
     <g transform="translate(293.37597 219.997669) scale(0.1 -0.1)">
      <use xlink:href="#DejaVuSans-32"/>
      <use xlink:href="#DejaVuSans-33" x="63.623047"/>
     </g>
    </g>
   </g>
  </g>
 </g>
 <defs>
  <clipPath id="pe4b8ba69f2">
   <rect x="0" y="0" width="460.8" height="345.6"/>
  </clipPath>
 </defs>
</svg>
