<?xml version="1.0" encoding="utf-8" standalone="no"?>
<!DOCTYPE svg PUBLIC "-//W3C//DTD SVG 1.1//EN"
  "http://www.w3.org/Graphics/SVG/1.1/DTD/svg11.dtd">
<svg xmlns:xlink="http://www.w3.org/1999/xlink" width="460.8pt" height="345.6pt" viewBox="0 0 460.8 345.6" xmlns="http://www.w3.org/2000/svg" version="1.1">
 <metadata>
  <rdf:RDF xmlns:dc="http://purl.org/dc/elements/1.1/" xmlns:cc="http://creativecommons.org/ns#" xmlns:rdf="http://www.w3.org/1999/02/22-rdf-syntax-ns#">
   <cc:Work>
    <dc:type rdf:resource="http://purl.org/dc/dcmitype/StillImage"/>
    <dc:date>2023-10-10T10:56:13.368628</dc:date>
    <dc:format>image/svg+xml</dc:format>
    <dc:creator>
     <cc:Agent>
      <dc:title>Matplotlib v3.6.1, https://matplotlib.org/</dc:title>
     </cc:Agent>
    </dc:creator>
   </cc:Work>
  </rdf:RDF>
 </metadata>
 <defs>
  <style type="text/css">*{stroke-linejoin: round; stroke-linecap: butt}</style>
 </defs>
 <g id="figure_1">
  <g id="patch_1">
   <path d="M 0 345.6 
L 460.8 345.6 
L 460.8 0 
L 0 0 
z
" style="fill: #ffffff"/>
  </g>
  <g id="axes_1">
   <g id="patch_2">
    <path d="M 368.267137 163.41155 
Q 352.473079 176.060878 337.55168 188.011301 
" clip-path="url(#pf4ec5262c7)" style="fill: none; stroke: #000000; stroke-linecap: round"/>
    <path d="M 341.924036 187.071883 
L 337.55168 188.011301 
L 339.423558 183.949766 
L 341.924036 187.071883 
z
" clip-path="url(#pf4ec5262c7)" style="stroke: #000000; stroke-linecap: round"/>
   </g>
   <g id="patch_3">
    <path d="M 248.758009 46.112324 
Q 247.045423 74.575008 245.399987 101.921676 
" clip-path="url(#pf4ec5262c7)" style="fill: none; stroke: #000000; stroke-linecap: round"/>
    <path d="M 247.63662 98.049019 
L 245.399987 101.921676 
L 243.643841 97.808775 
L 247.63662 98.049019 
z
" clip-path="url(#pf4ec5262c7)" style="stroke: #000000; stroke-linecap: round"/>
   </g>
   <g id="patch_4">
    <path d="M 372.420699 197.908233 
Q 354.741441 194.118449 338.155381 190.563007 
" clip-path="url(#pf4ec5262c7)" style="fill: none; stroke: #000000; stroke-linecap: round"/>
    <path d="M 341.647325 193.356987 
L 338.155381 190.563007 
L 342.485731 189.445839 
L 341.647325 193.356987 
z
" clip-path="url(#pf4ec5262c7)" style="stroke: #000000; stroke-linecap: round"/>
   </g>
   <g id="patch_5">
    <path d="M 330.757297 310.122646 
Q 324.284502 283.562859 318.076432 258.089314 
" clip-path="url(#pf4ec5262c7)" style="fill: none; stroke: #000000; stroke-linecap: round"/>
    <path d="M 317.08041 262.449124 
L 318.076432 258.089314 
L 320.966667 261.502018 
L 317.08041 262.449124 
z
" clip-path="url(#pf4ec5262c7)" style="stroke: #000000; stroke-linecap: round"/>
   </g>
   <g id="patch_6">
    <path d="M 245.332644 103.040883 
Q 247.045231 74.578199 248.690667 47.231531 
" clip-path="url(#pf4ec5262c7)" style="fill: none; stroke: #000000; stroke-linecap: round"/>
    <path d="M 246.454034 51.104188 
L 248.690667 47.231531 
L 250.446813 51.344432 
L 246.454034 51.104188 
z
" clip-path="url(#pf4ec5262c7)" style="stroke: #000000; stroke-linecap: round"/>
   </g>
   <g id="patch_7">
    <path d="M 243.501272 105.870737 
Q 224.341544 115.887271 206.17262 125.385823 
" clip-path="url(#pf4ec5262c7)" style="fill: none; stroke: #000000; stroke-linecap: round"/>
    <path d="M 210.644026 125.305033 
L 206.17262 125.385823 
L 208.790831 121.760224 
L 210.644026 125.305033 
z
" clip-path="url(#pf4ec5262c7)" style="stroke: #000000; stroke-linecap: round"/>
   </g>
   <g id="patch_8">
    <path d="M 245.209632 106.912223 
Q 245.073771 146.268292 244.941769 184.506334 
" clip-path="url(#pf4ec5262c7)" style="fill: none; stroke: #000000; stroke-linecap: round"/>
    <path d="M 246.955566 180.513262 
L 244.941769 184.506334 
L 242.955589 180.499454 
L 246.955566 180.513262 
z
" clip-path="url(#pf4ec5262c7)" style="stroke: #000000; stroke-linecap: round"/>
   </g>
   <g id="patch_9">
    <path d="M 246.287539 103.358213 
Q 262.662396 78.657047 278.4195 54.887752 
" clip-path="url(#pf4ec5262c7)" style="fill: none; stroke: #000000; stroke-linecap: round"/>
    <path d="M 274.542379 57.116638 
L 278.4195 54.887752 
L 277.876336 59.32678 
L 274.542379 57.116638 
z
" clip-path="url(#pf4ec5262c7)" style="stroke: #000000; stroke-linecap: round"/>
   </g>
   <g id="patch_10">
    <path d="M 227.443545 225.704945 
Q 235.783391 207.513125 243.657314 190.33763 
" clip-path="url(#pf4ec5262c7)" style="fill: none; stroke: #000000; stroke-linecap: round"/>
    <path d="M 240.17232 193.140275 
L 243.657314 190.33763 
L 243.808433 194.807212 
L 240.17232 193.140275 
z
" clip-path="url(#pf4ec5262c7)" style="stroke: #000000; stroke-linecap: round"/>
   </g>
   <g id="patch_11">
    <path d="M 211.248026 147.511802 
Q 200.641988 132.180755 190.672031 117.769164 
" clip-path="url(#pf4ec5262c7)" style="fill: none; stroke: #000000; stroke-linecap: round"/>
    <path d="M 191.30297 122.196569 
L 190.672031 117.769164 
L 194.592519 119.920855 
L 191.30297 122.196569 
z
" clip-path="url(#pf4ec5262c7)" style="stroke: #000000; stroke-linecap: round"/>
   </g>
   <g id="patch_12">
    <path d="M 213.600829 150.581002 
Q 228.639766 168.330759 242.955961 185.227497 
" clip-path="url(#pf4ec5262c7)" style="fill: none; stroke: #000000; stroke-linecap: round"/>
    <path d="M 241.896126 180.882759 
L 242.955961 185.227497 
L 238.844269 183.468522 
L 241.896126 180.882759 
z
" clip-path="url(#pf4ec5262c7)" style="stroke: #000000; stroke-linecap: round"/>
   </g>
   <g id="patch_13">
    <path d="M 279.037394 53.955669 
Q 262.662537 78.656834 246.905434 102.42613 
" clip-path="url(#pf4ec5262c7)" style="fill: none; stroke: #000000; stroke-linecap: round"/>
    <path d="M 250.782555 100.197244 
L 246.905434 102.42613 
L 247.448597 97.987102 
L 250.782555 100.197244 
z
" clip-path="url(#pf4ec5262c7)" style="stroke: #000000; stroke-linecap: round"/>
   </g>
   <g id="patch_14">
    <path d="M 205.178953 125.905303 
Q 224.338682 115.888768 242.507606 106.390216 
" clip-path="url(#pf4ec5262c7)" style="fill: none; stroke: #000000; stroke-linecap: round"/>
    <path d="M 238.0362 106.471006 
L 242.507606 106.390216 
L 239.889394 110.015815 
L 238.0362 106.471006 
z
" clip-path="url(#pf4ec5262c7)" style="stroke: #000000; stroke-linecap: round"/>
   </g>
   <g id="patch_15">
    <path d="M 204.176767 128.604848 
Q 211.037787 145.957336 217.487714 162.270111 
" clip-path="url(#pf4ec5262c7)" style="fill: none; stroke: #000000; stroke-linecap: round"/>
    <path d="M 217.876837 157.814936 
L 217.487714 162.270111 
L 214.157048 159.285707 
L 217.876837 157.814936 
z
" clip-path="url(#pf4ec5262c7)" style="stroke: #000000; stroke-linecap: round"/>
   </g>
   <g id="patch_16">
    <path d="M 201.949055 125.59817 
Q 196.198794 121.028833 191.323859 117.155057 
" clip-path="url(#pf4ec5262c7)" style="fill: none; stroke: #000000; stroke-linecap: round"/>
    <path d="M 193.211262 121.209402 
L 191.323859 117.155057 
L 195.699777 118.077742 
L 193.211262 121.209402 
z
" clip-path="url(#pf4ec5262c7)" style="stroke: #000000; stroke-linecap: round"/>
   </g>
   <g id="patch_17">
    <path d="M 202.570019 125.084645 
Q 191.479358 103.778018 180.904915 83.463115 
" clip-path="url(#pf4ec5262c7)" style="fill: none; stroke: #000000; stroke-linecap: round"/>
    <path d="M 180.977745 87.934658 
L 180.904915 83.463115 
L 184.525847 86.087777 
L 180.977745 87.934658 
z
" clip-path="url(#pf4ec5262c7)" style="stroke: #000000; stroke-linecap: round"/>
   </g>
   <g id="patch_18">
    <path d="M 204.554749 128.400196 
Q 224.197129 157.179724 243.209242 185.0358 
" clip-path="url(#pf4ec5262c7)" style="fill: none; stroke: #000000; stroke-linecap: round"/>
    <path d="M 242.606251 180.604502 
L 243.209242 185.0358 
L 239.302409 182.859414 
L 242.606251 180.604502 
z
" clip-path="url(#pf4ec5262c7)" style="stroke: #000000; stroke-linecap: round"/>
   </g>
   <g id="patch_19">
    <path d="M 201.550001 127.114767 
Q 167.749158 132.639944 135.051705 137.984757 
" clip-path="url(#pf4ec5262c7)" style="fill: none; stroke: #000000; stroke-linecap: round"/>
    <path d="M 139.321956 139.313274 
L 135.051705 137.984757 
L 138.67667 135.365667 
L 139.321956 139.313274 
z
" clip-path="url(#pf4ec5262c7)" style="stroke: #000000; stroke-linecap: round"/>
   </g>
   <g id="patch_20">
    <path d="M 204.941105 125.546905 
Q 224.009252 109.346864 242.225351 93.870712 
" clip-path="url(#pf4ec5262c7)" style="fill: none; stroke: #000000; stroke-linecap: round"/>
    <path d="M 237.882041 94.936384 
L 242.225351 93.870712 
L 240.471902 97.984764 
L 237.882041 94.936384 
z
" clip-path="url(#pf4ec5262c7)" style="stroke: #000000; stroke-linecap: round"/>
   </g>
   <g id="patch_21">
    <path d="M 180.388229 82.470493 
Q 191.478891 103.777121 202.053333 124.092023 
" clip-path="url(#pf4ec5262c7)" style="fill: none; stroke: #000000; stroke-linecap: round"/>
    <path d="M 201.980504 119.62048 
L 202.053333 124.092023 
L 198.432401 121.467361 
L 201.980504 119.62048 
z
" clip-path="url(#pf4ec5262c7)" style="stroke: #000000; stroke-linecap: round"/>
   </g>
   <g id="patch_22">
    <path d="M 41.81396 106.826944 
Q 58.468418 112.717889 74.068838 118.236004 
" clip-path="url(#pf4ec5262c7)" style="fill: none; stroke: #000000; stroke-linecap: round"/>
    <path d="M 70.964733 115.016604 
L 74.068838 118.236004 
L 69.630855 118.787648 
L 70.964733 115.016604 
z
" clip-path="url(#pf4ec5262c7)" style="stroke: #000000; stroke-linecap: round"/>
   </g>
   <g id="patch_23">
    <path d="M 361.178093 113.850608 
Q 343.140218 126.766786 326.011362 139.032053 
" clip-path="url(#pf4ec5262c7)" style="fill: none; stroke: #000000; stroke-linecap: round"/>
    <path d="M 330.427951 138.329386 
L 326.011362 139.032053 
L 328.099182 135.077182 
L 330.427951 138.329386 
z
" clip-path="url(#pf4ec5262c7)" style="stroke: #000000; stroke-linecap: round"/>
   </g>
   <g id="patch_24">
    <path d="M 268.744777 155.332094 
Q 256.994482 124.51605 245.642524 94.744673 
" clip-path="url(#pf4ec5262c7)" style="fill: none; stroke: #000000; stroke-linecap: round"/>
    <path d="M 245.198897 99.194751 
L 245.642524 94.744673 
L 248.93641 97.769621 
L 245.198897 99.194751 
z
" clip-path="url(#pf4ec5262c7)" style="stroke: #000000; stroke-linecap: round"/>
   </g>
   <g id="patch_25">
    <path d="M 267.682611 157.961821 
Q 230.036304 175.518718 193.403259 192.603066 
" clip-path="url(#pf4ec5262c7)" style="fill: none; stroke: #000000; stroke-linecap: round"/>
    <path d="M 197.873732 192.725 
L 193.403259 192.603066 
L 196.18309 189.099848 
L 197.873732 192.725 
z
" clip-path="url(#pf4ec5262c7)" style="stroke: #000000; stroke-linecap: round"/>
   </g>
   <g id="patch_26">
    <path d="M 268.2183 158.655297 
Q 257.181674 172.353773 246.84649 185.18163 
" clip-path="url(#pf4ec5262c7)" style="fill: none; stroke: #000000; stroke-linecap: round"/>
    <path d="M 250.91346 183.321587 
L 246.84649 185.18163 
L 247.798638 180.812028 
L 250.91346 183.321587 
z
" clip-path="url(#pf4ec5262c7)" style="stroke: #000000; stroke-linecap: round"/>
   </g>
   <g id="patch_27">
    <path d="M 269.04033 155.24673 
Q 266.666832 143.857057 264.521421 133.561906 
" clip-path="url(#pf4ec5262c7)" style="fill: none; stroke: #000000; stroke-linecap: round"/>
    <path d="M 263.379514 137.885798 
L 264.521421 133.561906 
L 267.295391 137.069767 
L 263.379514 137.885798 
z
" clip-path="url(#pf4ec5262c7)" style="stroke: #000000; stroke-linecap: round"/>
   </g>
   <g id="patch_28">
    <path d="M 271.287914 156.584928 
Q 296.481818 148.977221 320.60542 141.692709 
" clip-path="url(#pf4ec5262c7)" style="fill: none; stroke: #000000; stroke-linecap: round"/>
    <path d="M 316.198045 140.934392 
L 320.60542 141.692709 
L 317.354342 144.763619 
L 316.198045 140.934392 
z
" clip-path="url(#pf4ec5262c7)" style="stroke: #000000; stroke-linecap: round"/>
   </g>
   <g id="patch_29">
    <path d="M 270.681728 155.660668 
Q 284.207558 139.555857 297.014346 124.307188 
" clip-path="url(#pf4ec5262c7)" style="fill: none; stroke: #000000; stroke-linecap: round"/>
    <path d="M 292.910311 126.083953 
L 297.014346 124.307188 
L 295.973338 128.656475 
L 292.910311 126.083953 
z
" clip-path="url(#pf4ec5262c7)" style="stroke: #000000; stroke-linecap: round"/>
   </g>
   <g id="patch_30">
    <path d="M 271.164853 158.006481 
Q 302.300071 173.532837 332.434759 188.560253 
" clip-path="url(#pf4ec5262c7)" style="fill: none; stroke: #000000; stroke-linecap: round"/>
    <path d="M 329.747685 184.985392 
L 332.434759 188.560253 
L 327.962626 188.564996 
L 329.747685 184.985392 
z
" clip-path="url(#pf4ec5262c7)" style="stroke: #000000; stroke-linecap: round"/>
   </g>
   <g id="patch_31">
    <path d="M 379.800907 250.132779 
Q 398.507551 259.482895 416.214126 268.333148 
" clip-path="url(#pf4ec5262c7)" style="fill: none; stroke: #000000; stroke-linecap: round"/>
    <path d="M 413.530354 264.755807 
L 416.214126 268.333148 
L 411.74199 268.333761 
L 413.530354 264.755807 
z
" clip-path="url(#pf4ec5262c7)" style="stroke: #000000; stroke-linecap: round"/>
   </g>
   <g id="patch_32">
    <path d="M 376.136151 249.452175 
Q 347.707778 252.193075 320.392278 254.826677 
" clip-path="url(#pf4ec5262c7)" style="fill: none; stroke: #000000; stroke-linecap: round"/>
    <path d="M 324.565753 256.433569 
L 320.392278 254.826677 
L 324.181876 252.452032 
L 324.565753 256.433569 
z
" clip-path="url(#pf4ec5262c7)" style="stroke: #000000; stroke-linecap: round"/>
   </g>
   <g id="patch_33">
    <path d="M 380.000112 249.212779 
Q 399.437655 248.677371 417.757588 248.172748 
" clip-path="url(#pf4ec5262c7)" style="fill: none; stroke: #000000; stroke-linecap: round"/>
    <path d="M 413.704035 246.283644 
L 417.757588 248.172748 
L 413.814174 250.282128 
L 413.704035 246.283644 
z
" clip-path="url(#pf4ec5262c7)" style="stroke: #000000; stroke-linecap: round"/>
   </g>
   <g id="patch_34">
    <path d="M 376.93302 247.697678 
Q 356.616614 219.594523 336.955223 192.397433 
" clip-path="url(#pf4ec5262c7)" style="fill: none; stroke: #000000; stroke-linecap: round"/>
    <path d="M 337.677858 196.810799 
L 336.955223 192.397433 
L 340.919497 194.467345 
L 337.677858 196.810799 
z
" clip-path="url(#pf4ec5262c7)" style="stroke: #000000; stroke-linecap: round"/>
   </g>
   <g id="patch_35">
    <path d="M 379.301261 250.757345 
Q 393.892357 268.384633 407.770544 285.150667 
" clip-path="url(#pf4ec5262c7)" style="fill: none; stroke: #000000; stroke-linecap: round"/>
    <path d="M 406.760622 280.794056 
L 407.770544 285.150667 
L 403.679302 283.344638 
L 406.760622 280.794056 
z
" clip-path="url(#pf4ec5262c7)" style="stroke: #000000; stroke-linecap: round"/>
   </g>
   <g id="patch_36">
    <path d="M 296.882491 73.482664 
Q 297.888789 96.759295 298.846798 118.918936 
" clip-path="url(#pf4ec5262c7)" style="fill: none; stroke: #000000; stroke-linecap: round"/>
    <path d="M 300.672164 114.836285 
L 298.846798 118.918936 
L 296.675897 115.009052 
L 300.672164 114.836285 
z
" clip-path="url(#pf4ec5262c7)" style="stroke: #000000; stroke-linecap: round"/>
   </g>
   <g id="patch_37">
    <path d="M 310.216093 170.391368 
Q 312.928252 194.794189 315.516913 218.085817 
" clip-path="url(#pf4ec5262c7)" style="fill: none; stroke: #000000; stroke-linecap: round"/>
    <path d="M 317.062829 213.889373 
L 315.516913 218.085817 
L 313.087308 214.331218 
L 317.062829 213.889373 
z
" clip-path="url(#pf4ec5262c7)" style="stroke: #000000; stroke-linecap: round"/>
   </g>
   <g id="patch_38">
    <path d="M 309.556064 166.584755 
Q 304.490401 145.217417 299.682647 124.93796 
" clip-path="url(#pf4ec5262c7)" style="fill: none; stroke: #000000; stroke-linecap: round"/>
    <path d="M 298.659312 129.291439 
L 299.682647 124.93796 
L 302.55143 128.368715 
L 298.659312 129.291439 
z
" clip-path="url(#pf4ec5262c7)" style="stroke: #000000; stroke-linecap: round"/>
   </g>
   <g id="patch_39">
    <path d="M 174.802118 202.353773 
Q 181.865575 198.579643 187.942935 195.332402 
" clip-path="url(#pf4ec5262c7)" style="fill: none; stroke: #000000; stroke-linecap: round"/>
    <path d="M 183.472439 195.453474 
L 187.942935 195.332402 
L 185.357495 198.981442 
L 183.472439 195.453474 
z
" clip-path="url(#pf4ec5262c7)" style="stroke: #000000; stroke-linecap: round"/>
   </g>
   <g id="patch_40">
    <path d="M 174.983281 202.8535 
Q 209.01161 195.412931 241.947711 188.211188 
" clip-path="url(#pf4ec5262c7)" style="fill: none; stroke: #000000; stroke-linecap: round"/>
    <path d="M 237.612813 187.111795 
L 241.947711 188.211188 
L 238.467258 191.01947 
L 237.612813 187.111795 
z
" clip-path="url(#pf4ec5262c7)" style="stroke: #000000; stroke-linecap: round"/>
   </g>
   <g id="patch_41">
    <path d="M 172.058518 201.633549 
Q 152.565756 170.874857 133.671468 141.060532 
" clip-path="url(#pf4ec5262c7)" style="fill: none; stroke: #000000; stroke-linecap: round"/>
    <path d="M 134.123304 145.509784 
L 133.671468 141.060532 
L 137.501971 143.368614 
L 134.123304 145.509784 
z
" clip-path="url(#pf4ec5262c7)" style="stroke: #000000; stroke-linecap: round"/>
   </g>
   <g id="patch_42">
    <path d="M 172.494062 205.111819 
Q 164.016267 231.206683 155.883928 256.238222 
" clip-path="url(#pf4ec5262c7)" style="fill: none; stroke: #000000; stroke-linecap: round"/>
    <path d="M 159.022005 253.051927 
L 155.883928 256.238222 
L 155.217739 251.815983 
L 159.022005 253.051927 
z
" clip-path="url(#pf4ec5262c7)" style="stroke: #000000; stroke-linecap: round"/>
   </g>
   <g id="patch_43">
    <path d="M 171.84543 204.747038 
Q 155.734897 223.855485 140.345032 242.109159 
" clip-path="url(#pf4ec5262c7)" style="fill: none; stroke: #000000; stroke-linecap: round"/>
    <path d="M 144.452438 240.3402 
L 140.345032 242.109159 
L 141.394308 237.761859 
L 144.452438 240.3402 
z
" clip-path="url(#pf4ec5262c7)" style="stroke: #000000; stroke-linecap: round"/>
   </g>
   <g id="patch_44">
    <path d="M 99.172257 121.792574 
Q 114.739032 129.696316 129.308909 137.093901 
" clip-path="url(#pf4ec5262c7)" style="fill: none; stroke: #000000; stroke-linecap: round"/>
    <path d="M 126.647739 133.499715 
L 129.308909 137.093901 
L 124.836858 137.066326 
L 126.647739 133.499715 
z
" clip-path="url(#pf4ec5262c7)" style="stroke: #000000; stroke-linecap: round"/>
   </g>
   <g id="patch_45">
    <path d="M 75.118313 118.60722 
Q 58.463855 112.716275 42.863436 107.19816 
" clip-path="url(#pf4ec5262c7)" style="fill: none; stroke: #000000; stroke-linecap: round"/>
    <path d="M 45.96754 110.417559 
L 42.863436 107.19816 
L 47.301418 106.646516 
L 45.96754 110.417559 
z
" clip-path="url(#pf4ec5262c7)" style="stroke: #000000; stroke-linecap: round"/>
   </g>
   <g id="patch_46">
    <path d="M 78.77127 119.89066 
Q 104.487884 128.864931 129.148892 137.47083 
" clip-path="url(#pf4ec5262c7)" style="fill: none; stroke: #000000; stroke-linecap: round"/>
    <path d="M 126.031209 134.264578 
L 129.148892 137.47083 
L 124.713281 138.041225 
L 126.031209 134.264578 
z
" clip-path="url(#pf4ec5262c7)" style="stroke: #000000; stroke-linecap: round"/>
   </g>
   <g id="patch_47">
    <path d="M 133.948683 138.16506 
Q 167.749526 132.639883 200.446978 127.29507 
" clip-path="url(#pf4ec5262c7)" style="fill: none; stroke: #000000; stroke-linecap: round"/>
    <path d="M 196.176727 125.966553 
L 200.446978 127.29507 
L 196.822014 129.91416 
L 196.176727 125.966553 
z
" clip-path="url(#pf4ec5262c7)" style="stroke: #000000; stroke-linecap: round"/>
   </g>
   <g id="patch_48">
    <path d="M 133.069769 140.111077 
Q 152.562531 170.869769 171.456818 200.684094 
" clip-path="url(#pf4ec5262c7)" style="fill: none; stroke: #000000; stroke-linecap: round"/>
    <path d="M 171.004983 196.234842 
L 171.456818 200.684094 
L 167.626315 198.376011 
L 171.004983 196.234842 
z
" clip-path="url(#pf4ec5262c7)" style="stroke: #000000; stroke-linecap: round"/>
   </g>
   <g id="patch_49">
    <path d="M 130.30784 137.60109 
Q 114.741066 129.697348 100.171189 122.299763 
" clip-path="url(#pf4ec5262c7)" style="fill: none; stroke: #000000; stroke-linecap: round"/>
    <path d="M 102.832359 125.893949 
L 100.171189 122.299763 
L 104.64324 122.327338 
L 102.832359 125.893949 
z
" clip-path="url(#pf4ec5262c7)" style="stroke: #000000; stroke-linecap: round"/>
   </g>
   <g id="patch_50">
    <path d="M 130.209006 137.840775 
Q 104.492393 128.866504 79.831384 120.260606 
" clip-path="url(#pf4ec5262c7)" style="fill: none; stroke: #000000; stroke-linecap: round"/>
    <path d="M 82.949067 123.466858 
L 79.831384 120.260606 
L 84.266996 119.690211 
L 82.949067 123.466858 
z
" clip-path="url(#pf4ec5262c7)" style="stroke: #000000; stroke-linecap: round"/>
   </g>
   <g id="patch_51">
    <path d="M 130.163498 138.963275 
Q 112.332385 143.588215 95.583496 147.932453 
" clip-path="url(#pf4ec5262c7)" style="fill: none; stroke: #000000; stroke-linecap: round"/>
    <path d="M 99.957508 148.864125 
L 95.583496 147.932453 
L 98.953241 144.992246 
L 99.957508 148.864125 
z
" clip-path="url(#pf4ec5262c7)" style="stroke: #000000; stroke-linecap: round"/>
   </g>
   <g id="patch_52">
    <path d="M 130.991826 136.847978 
Q 119.302728 118.580202 108.216226 101.254168 
" clip-path="url(#pf4ec5262c7)" style="fill: none; stroke: #000000; stroke-linecap: round"/>
    <path d="M 108.687505 105.701403 
L 108.216226 101.254168 
L 112.056781 103.545486 
L 108.687505 105.701403 
z
" clip-path="url(#pf4ec5262c7)" style="stroke: #000000; stroke-linecap: round"/>
   </g>
   <g id="patch_53">
    <path d="M 94.49849 148.213876 
Q 112.329602 143.588937 129.078492 139.244698 
" clip-path="url(#pf4ec5262c7)" style="fill: none; stroke: #000000; stroke-linecap: round"/>
    <path d="M 124.704479 138.313026 
L 129.078492 139.244698 
L 125.708747 142.184905 
L 124.704479 138.313026 
z
" clip-path="url(#pf4ec5262c7)" style="stroke: #000000; stroke-linecap: round"/>
   </g>
   <g id="patch_54">
    <path d="M 107.611623 100.309291 
Q 119.300721 118.577067 130.387223 135.903101 
" clip-path="url(#pf4ec5262c7)" style="fill: none; stroke: #000000; stroke-linecap: round"/>
    <path d="M 129.915944 131.455867 
L 130.387223 135.903101 
L 126.546668 133.611783 
L 129.915944 131.455867 
z
" clip-path="url(#pf4ec5262c7)" style="stroke: #000000; stroke-linecap: round"/>
   </g>
   <g id="patch_55">
    <path d="M 302.835908 306.988782 
Q 309.833379 281.986596 316.52952 258.061072 
" clip-path="url(#pf4ec5262c7)" style="fill: none; stroke: #000000; stroke-linecap: round"/>
    <path d="M 313.525459 261.374018 
L 316.52952 258.061072 
L 317.37744 262.452089 
L 313.525459 261.374018 
z
" clip-path="url(#pf4ec5262c7)" style="stroke: #000000; stroke-linecap: round"/>
   </g>
   <g id="patch_56">
    <path d="M 317.098947 313.671603 
Q 317.221646 285.36236 317.3395 258.17114 
" clip-path="url(#pf4ec5262c7)" style="fill: none; stroke: #000000; stroke-linecap: round"/>
    <path d="M 315.322182 262.162434 
L 317.3395 258.17114 
L 319.322145 262.179771 
L 315.322182 262.162434 
z
" clip-path="url(#pf4ec5262c7)" style="stroke: #000000; stroke-linecap: round"/>
   </g>
   <g id="patch_57">
    <path d="M 241.483396 235.298307 
Q 243.137553 212.394482 244.711174 190.605787 
" clip-path="url(#pf4ec5262c7)" style="fill: none; stroke: #000000; stroke-linecap: round"/>
    <path d="M 242.428232 194.451327 
L 244.711174 190.605787 
L 246.417841 194.739464 
L 242.428232 194.451327 
z
" clip-path="url(#pf4ec5262c7)" style="stroke: #000000; stroke-linecap: round"/>
   </g>
   <g id="patch_58">
    <path d="M 325.101071 139.683875 
Q 343.138946 126.767697 360.267802 114.50243 
" clip-path="url(#pf4ec5262c7)" style="fill: none; stroke: #000000; stroke-linecap: round"/>
    <path d="M 355.851213 115.205097 
L 360.267802 114.50243 
L 358.179982 118.457302 
L 355.851213 115.205097 
z
" clip-path="url(#pf4ec5262c7)" style="stroke: #000000; stroke-linecap: round"/>
   </g>
   <g id="patch_59">
    <path d="M 321.676072 141.369408 
Q 296.482168 148.977115 272.358566 156.261628 
" clip-path="url(#pf4ec5262c7)" style="fill: none; stroke: #000000; stroke-linecap: round"/>
    <path d="M 276.765941 157.019944 
L 272.358566 156.261628 
L 275.609644 153.190717 
L 276.765941 157.019944 
z
" clip-path="url(#pf4ec5262c7)" style="stroke: #000000; stroke-linecap: round"/>
   </g>
   <g id="patch_60">
    <path d="M 324.560051 139.16881 
Q 337.500489 118.584454 349.845884 98.946631 
" clip-path="url(#pf4ec5262c7)" style="fill: none; stroke: #000000; stroke-linecap: round"/>
    <path d="M 346.023787 101.268608 
L 349.845884 98.946631 
L 349.410208 103.397495 
L 346.023787 101.268608 
z
" clip-path="url(#pf4ec5262c7)" style="stroke: #000000; stroke-linecap: round"/>
   </g>
   <g id="patch_61">
    <path d="M 322.986581 142.671435 
Q 314.302878 172.511598 305.931572 201.27826 
" clip-path="url(#pf4ec5262c7)" style="fill: none; stroke: #000000; stroke-linecap: round"/>
    <path d="M 308.969578 197.996412 
L 305.931572 201.27826 
L 305.128898 196.878747 
L 308.969578 197.996412 
z
" clip-path="url(#pf4ec5262c7)" style="stroke: #000000; stroke-linecap: round"/>
   </g>
   <g id="patch_62">
    <path d="M 350.43896 98.003225 
Q 337.498523 118.587582 325.153127 138.225405 
" clip-path="url(#pf4ec5262c7)" style="fill: none; stroke: #000000; stroke-linecap: round"/>
    <path d="M 328.975224 135.903428 
L 325.153127 138.225405 
L 325.588804 133.774541 
L 328.975224 135.903428 
z
" clip-path="url(#pf4ec5262c7)" style="stroke: #000000; stroke-linecap: round"/>
   </g>
   <g id="patch_63">
    <path d="M 282.79646 69.855225 
Q 290.600624 94.987795 298.073234 119.052623 
" clip-path="url(#pf4ec5262c7)" style="fill: none; stroke: #000000; stroke-linecap: round"/>
    <path d="M 298.79706 114.639452 
L 298.073234 119.052623 
L 294.976993 115.825659 
L 298.79706 114.639452 
z
" clip-path="url(#pf4ec5262c7)" style="stroke: #000000; stroke-linecap: round"/>
   </g>
   <g id="patch_64">
    <path d="M 271.335742 77.642735 
Q 284.645125 98.984457 297.362885 119.377506 
" clip-path="url(#pf4ec5262c7)" style="fill: none; stroke: #000000; stroke-linecap: round"/>
    <path d="M 296.943268 114.925099 
L 297.362885 119.377506 
L 293.54919 117.041756 
L 296.943268 114.925099 
z
" clip-path="url(#pf4ec5262c7)" style="stroke: #000000; stroke-linecap: round"/>
   </g>
   <g id="patch_65">
    <path d="M 297.732652 123.451922 
Q 284.206822 139.556734 271.400033 154.805403 
" clip-path="url(#pf4ec5262c7)" style="fill: none; stroke: #000000; stroke-linecap: round"/>
    <path d="M 275.504068 153.028637 
L 271.400033 154.805403 
L 272.441042 150.456116 
L 275.504068 153.028637 
z
" clip-path="url(#pf4ec5262c7)" style="stroke: #000000; stroke-linecap: round"/>
   </g>
   <g id="patch_66">
    <path d="M 298.894945 120.032635 
Q 297.888647 96.756004 296.930638 74.596363 
" clip-path="url(#pf4ec5262c7)" style="fill: none; stroke: #000000; stroke-linecap: round"/>
    <path d="M 295.105272 78.679014 
L 296.930638 74.596363 
L 299.101539 78.506247 
L 295.105272 78.679014 
z
" clip-path="url(#pf4ec5262c7)" style="stroke: #000000; stroke-linecap: round"/>
   </g>
   <g id="patch_67">
    <path d="M 299.424712 123.849972 
Q 304.490375 145.21731 309.298129 165.496768 
" clip-path="url(#pf4ec5262c7)" style="fill: none; stroke: #000000; stroke-linecap: round"/>
    <path d="M 310.321464 161.143288 
L 309.298129 165.496768 
L 306.429346 162.066012 
L 310.321464 161.143288 
z
" clip-path="url(#pf4ec5262c7)" style="stroke: #000000; stroke-linecap: round"/>
   </g>
   <g id="patch_68">
    <path d="M 298.404897 120.120714 
Q 290.600733 94.988144 283.128123 70.923316 
" clip-path="url(#pf4ec5262c7)" style="fill: none; stroke: #000000; stroke-linecap: round"/>
    <path d="M 282.404297 75.336486 
L 283.128123 70.923316 
L 286.224364 74.150279 
L 282.404297 75.336486 
z
" clip-path="url(#pf4ec5262c7)" style="stroke: #000000; stroke-linecap: round"/>
   </g>
   <g id="patch_69">
    <path d="M 297.95508 120.327096 
Q 284.645697 98.985374 271.927937 78.592326 
" clip-path="url(#pf4ec5262c7)" style="fill: none; stroke: #000000; stroke-linecap: round"/>
    <path d="M 272.347554 83.044732 
L 271.927937 78.592326 
L 275.741632 80.928076 
L 272.347554 83.044732 
z
" clip-path="url(#pf4ec5262c7)" style="stroke: #000000; stroke-linecap: round"/>
   </g>
   <g id="patch_70">
    <path d="M 299.89082 123.681317 
Q 317.072939 155.946633 333.729545 187.225118 
" clip-path="url(#pf4ec5262c7)" style="fill: none; stroke: #000000; stroke-linecap: round"/>
    <path d="M 333.614709 182.754457 
L 333.729545 187.225118 
L 330.084114 184.63459 
L 333.614709 182.754457 
z
" clip-path="url(#pf4ec5262c7)" style="stroke: #000000; stroke-linecap: round"/>
   </g>
   <g id="patch_71">
    <path d="M 336.676247 188.712428 
Q 352.470305 176.0631 367.391704 164.112677 
" clip-path="url(#pf4ec5262c7)" style="fill: none; stroke: #000000; stroke-linecap: round"/>
    <path d="M 363.019348 165.052096 
L 367.391704 164.112677 
L 365.519825 168.174213 
L 363.019348 165.052096 
z
" clip-path="url(#pf4ec5262c7)" style="stroke: #000000; stroke-linecap: round"/>
   </g>
   <g id="patch_72">
    <path d="M 337.063179 190.328879 
Q 354.742438 194.118663 371.328498 197.674105 
" clip-path="url(#pf4ec5262c7)" style="fill: none; stroke: #000000; stroke-linecap: round"/>
    <path d="M 367.836553 194.880125 
L 371.328498 197.674105 
L 366.998147 198.791272 
L 367.836553 194.880125 
z
" clip-path="url(#pf4ec5262c7)" style="stroke: #000000; stroke-linecap: round"/>
   </g>
   <g id="patch_73">
    <path d="M 333.436678 189.059886 
Q 302.30146 173.53353 272.166772 158.506113 
" clip-path="url(#pf4ec5262c7)" style="fill: none; stroke: #000000; stroke-linecap: round"/>
    <path d="M 274.853846 162.080974 
L 272.166772 158.506113 
L 276.638905 158.50137 
L 274.853846 162.080974 
z
" clip-path="url(#pf4ec5262c7)" style="stroke: #000000; stroke-linecap: round"/>
   </g>
   <g id="patch_74">
    <path d="M 336.299581 191.4905 
Q 356.615987 219.593656 376.277378 246.790745 
" clip-path="url(#pf4ec5262c7)" style="fill: none; stroke: #000000; stroke-linecap: round"/>
    <path d="M 375.554743 242.377379 
L 376.277378 246.790745 
L 372.313104 244.720833 
L 375.554743 242.377379 
z
" clip-path="url(#pf4ec5262c7)" style="stroke: #000000; stroke-linecap: round"/>
   </g>
   <g id="patch_75">
    <path d="M 334.253594 188.209201 
Q 317.071475 155.943884 300.414869 124.665399 
" clip-path="url(#pf4ec5262c7)" style="fill: none; stroke: #000000; stroke-linecap: round"/>
    <path d="M 300.529705 129.13606 
L 300.414869 124.665399 
L 304.0603 127.255927 
L 300.529705 129.13606 
z
" clip-path="url(#pf4ec5262c7)" style="stroke: #000000; stroke-linecap: round"/>
   </g>
   <g id="patch_76">
    <path d="M 334.655875 191.788459 
Q 326.259349 222.520594 318.157488 252.174224 
" clip-path="url(#pf4ec5262c7)" style="fill: none; stroke: #000000; stroke-linecap: round"/>
    <path d="M 321.141002 248.842761 
L 318.157488 252.174224 
L 317.282426 247.788535 
L 321.141002 248.842761 
z
" clip-path="url(#pf4ec5262c7)" style="stroke: #000000; stroke-linecap: round"/>
   </g>
   <g id="patch_77">
    <path d="M 337.038422 189.429506 
Q 357.111279 184.148879 376.102891 179.152699 
" clip-path="url(#pf4ec5262c7)" style="fill: none; stroke: #000000; stroke-linecap: round"/>
    <path d="M 371.725679 178.236176 
L 376.102891 179.152699 
L 372.743345 182.104555 
L 371.725679 178.236176 
z
" clip-path="url(#pf4ec5262c7)" style="stroke: #000000; stroke-linecap: round"/>
   </g>
   <g id="patch_78">
    <path d="M 334.145036 191.571142 
Q 325.509763 205.521249 317.462947 218.520715 
" clip-path="url(#pf4ec5262c7)" style="fill: none; stroke: #000000; stroke-linecap: round"/>
    <path d="M 321.268834 216.172264 
L 317.462947 218.520715 
L 317.867718 214.066935 
L 321.268834 216.172264 
z
" clip-path="url(#pf4ec5262c7)" style="stroke: #000000; stroke-linecap: round"/>
   </g>
   <g id="patch_79">
    <path d="M 408.483577 286.012072 
Q 393.892481 268.384783 380.014294 251.618749 
" clip-path="url(#pf4ec5262c7)" style="fill: none; stroke: #000000; stroke-linecap: round"/>
    <path d="M 381.024216 255.97536 
L 380.014294 251.618749 
L 384.105536 253.424778 
L 381.024216 255.97536 
z
" clip-path="url(#pf4ec5262c7)" style="stroke: #000000; stroke-linecap: round"/>
   </g>
   <g id="patch_80">
    <path d="M 317.810459 256.997949 
Q 324.283254 283.557736 330.491324 309.031281 
" clip-path="url(#pf4ec5262c7)" style="fill: none; stroke: #000000; stroke-linecap: round"/>
    <path d="M 331.487346 304.671471 
L 330.491324 309.031281 
L 327.601089 305.618578 
L 331.487346 304.671471 
z
" clip-path="url(#pf4ec5262c7)" style="stroke: #000000; stroke-linecap: round"/>
   </g>
   <g id="patch_81">
    <path d="M 319.283392 254.933589 
Q 347.711766 252.19269 375.027266 249.559088 
" clip-path="url(#pf4ec5262c7)" style="fill: none; stroke: #000000; stroke-linecap: round"/>
    <path d="M 370.85379 247.952196 
L 375.027266 249.559088 
L 371.237667 251.933733 
L 370.85379 247.952196 
z
" clip-path="url(#pf4ec5262c7)" style="stroke: #000000; stroke-linecap: round"/>
   </g>
   <g id="patch_82">
    <path d="M 316.830432 256.985904 
Q 309.832961 281.98809 303.13682 305.913614 
" clip-path="url(#pf4ec5262c7)" style="fill: none; stroke: #000000; stroke-linecap: round"/>
    <path d="M 306.140882 302.600668 
L 303.13682 305.913614 
L 302.2889 301.522597 
L 306.140882 302.600668 
z
" clip-path="url(#pf4ec5262c7)" style="stroke: #000000; stroke-linecap: round"/>
   </g>
   <g id="patch_83">
    <path d="M 317.344325 257.058048 
Q 317.221625 285.367291 317.103771 312.55851 
" clip-path="url(#pf4ec5262c7)" style="fill: none; stroke: #000000; stroke-linecap: round"/>
    <path d="M 319.121089 308.567216 
L 317.103771 312.55851 
L 315.121127 308.549879 
L 319.121089 308.567216 
z
" clip-path="url(#pf4ec5262c7)" style="stroke: #000000; stroke-linecap: round"/>
   </g>
   <g id="patch_84">
    <path d="M 317.862633 253.25342 
Q 326.25916 222.521286 334.361021 192.867656 
" clip-path="url(#pf4ec5262c7)" style="fill: none; stroke: #000000; stroke-linecap: round"/>
    <path d="M 331.377506 196.199118 
L 334.361021 192.867656 
L 335.236082 197.253345 
L 331.377506 196.199118 
z
" clip-path="url(#pf4ec5262c7)" style="stroke: #000000; stroke-linecap: round"/>
   </g>
   <g id="patch_85">
    <path d="M 315.933544 256.435004 
Q 311.285651 260.742586 307.457777 264.29019 
" clip-path="url(#pf4ec5262c7)" style="fill: none; stroke: #000000; stroke-linecap: round"/>
    <path d="M 311.751059 263.038102 
L 307.457777 264.29019 
L 309.032076 260.104311 
L 311.751059 263.038102 
z
" clip-path="url(#pf4ec5262c7)" style="stroke: #000000; stroke-linecap: round"/>
   </g>
   <g id="patch_86">
    <path d="M 318.314165 253.438854 
Q 322.938862 245.353526 327.008451 238.23869 
" clip-path="url(#pf4ec5262c7)" style="fill: none; stroke: #000000; stroke-linecap: round"/>
    <path d="M 323.286367 240.71782 
L 327.008451 238.23869 
L 326.758505 242.703836 
L 323.286367 240.71782 
z
" clip-path="url(#pf4ec5262c7)" style="stroke: #000000; stroke-linecap: round"/>
   </g>
   <g id="patch_87">
    <path d="M 317.267294 253.181502 
Q 316.603397 238.119293 315.988732 224.174033 
" clip-path="url(#pf4ec5262c7)" style="fill: none; stroke: #000000; stroke-linecap: round"/>
    <path d="M 314.166809 228.258222 
L 315.988732 224.174033 
L 318.162929 228.082085 
L 314.166809 228.258222 
z
" clip-path="url(#pf4ec5262c7)" style="stroke: #000000; stroke-linecap: round"/>
   </g>
   <g id="patch_88">
    <path d="M 318.319027 256.797353 
Q 330.182563 277.393931 341.488066 297.021695 
" clip-path="url(#pf4ec5262c7)" style="fill: none; stroke: #000000; stroke-linecap: round"/>
    <path d="M 341.224655 292.557323 
L 341.488066 297.021695 
L 337.758522 294.5538 
L 341.224655 292.557323 
z
" clip-path="url(#pf4ec5262c7)" style="stroke: #000000; stroke-linecap: round"/>
   </g>
   <g id="patch_89">
    <path d="M 315.936033 253.798122 
Q 281.141124 221.338477 247.163741 189.641491 
" clip-path="url(#pf4ec5262c7)" style="fill: none; stroke: #000000; stroke-linecap: round"/>
    <path d="M 248.724331 193.832501 
L 247.163741 189.641491 
L 251.452903 190.907625 
L 248.724331 193.832501 
z
" clip-path="url(#pf4ec5262c7)" style="stroke: #000000; stroke-linecap: round"/>
   </g>
   <g id="patch_90">
    <path d="M 319.238733 255.564308 
Q 329.039717 257.874621 337.752492 259.928418 
" clip-path="url(#pf4ec5262c7)" style="fill: none; stroke: #000000; stroke-linecap: round"/>
    <path d="M 334.318065 257.064032 
L 337.752492 259.928418 
L 333.400327 260.957329 
L 334.318065 257.064032 
z
" clip-path="url(#pf4ec5262c7)" style="stroke: #000000; stroke-linecap: round"/>
   </g>
   <g id="patch_91">
    <path d="M 306.636276 265.051541 
Q 311.28417 260.743959 315.112044 257.196355 
" clip-path="url(#pf4ec5262c7)" style="fill: none; stroke: #000000; stroke-linecap: round"/>
    <path d="M 310.818761 258.448443 
L 315.112044 257.196355 
L 313.537745 261.382234 
L 310.818761 258.448443 
z
" clip-path="url(#pf4ec5262c7)" style="stroke: #000000; stroke-linecap: round"/>
   </g>
   <g id="patch_92">
    <path d="M 305.66052 264.480598 
Q 310.535512 243.743668 315.154643 224.095102 
" clip-path="url(#pf4ec5262c7)" style="fill: none; stroke: #000000; stroke-linecap: round"/>
    <path d="M 312.292324 227.531253 
L 315.154643 224.095102 
L 316.186172 228.446648 
L 312.292324 227.531253 
z
" clip-path="url(#pf4ec5262c7)" style="stroke: #000000; stroke-linecap: round"/>
   </g>
   <g id="patch_93">
    <path d="M 327.563079 237.269037 
Q 322.938382 245.354365 318.868794 252.469201 
" clip-path="url(#pf4ec5262c7)" style="fill: none; stroke: #000000; stroke-linecap: round"/>
    <path d="M 322.590878 249.990071 
L 318.868794 252.469201 
L 319.11874 248.004055 
L 322.590878 249.990071 
z
" clip-path="url(#pf4ec5262c7)" style="stroke: #000000; stroke-linecap: round"/>
   </g>
   <g id="patch_94">
    <path d="M 327.365365 234.03692 
Q 316.802592 219.901293 306.909059 206.661277 
" clip-path="url(#pf4ec5262c7)" style="fill: none; stroke: #000000; stroke-linecap: round"/>
    <path d="M 307.701288 211.062683 
L 306.909059 206.661277 
L 310.905521 208.668337 
L 307.701288 211.062683 
z
" clip-path="url(#pf4ec5262c7)" style="stroke: #000000; stroke-linecap: round"/>
   </g>
   <g id="patch_95">
    <path d="M 338.840659 260.184924 
Q 329.039675 257.874611 320.3269 255.820813 
" clip-path="url(#pf4ec5262c7)" style="fill: none; stroke: #000000; stroke-linecap: round"/>
    <path d="M 323.761328 258.685199 
L 320.3269 255.820813 
L 324.679065 254.791903 
L 323.761328 258.685199 
z
" clip-path="url(#pf4ec5262c7)" style="stroke: #000000; stroke-linecap: round"/>
   </g>
   <g id="patch_96">
    <path d="M 341.810746 262.233732 
Q 355.453501 282.42244 368.470261 301.684794 
" clip-path="url(#pf4ec5262c7)" style="fill: none; stroke: #000000; stroke-linecap: round"/>
    <path d="M 367.887747 297.250758 
L 368.470261 301.684794 
L 364.573524 299.490383 
L 367.887747 297.250758 
z
" clip-path="url(#pf4ec5262c7)" style="stroke: #000000; stroke-linecap: round"/>
   </g>
   <g id="patch_97">
    <path d="M 339.693154 258.993831 
Q 322.9022 232.419955 306.708456 206.791245 
" clip-path="url(#pf4ec5262c7)" style="fill: none; stroke: #000000; stroke-linecap: round"/>
    <path d="M 307.154343 211.241097 
L 306.708456 206.791245 
L 310.53587 209.104447 
L 307.154343 211.241097 
z
" clip-path="url(#pf4ec5262c7)" style="stroke: #000000; stroke-linecap: round"/>
   </g>
   <g id="patch_98">
    <path d="M 155.538979 257.299984 
Q 164.016774 231.20512 172.149113 206.173581 
" clip-path="url(#pf4ec5262c7)" style="fill: none; stroke: #000000; stroke-linecap: round"/>
    <path d="M 169.011036 209.359876 
L 172.149113 206.173581 
L 172.815302 210.59582 
L 169.011036 209.359876 
z
" clip-path="url(#pf4ec5262c7)" style="stroke: #000000; stroke-linecap: round"/>
   </g>
   <g id="patch_99">
    <path d="M 156.31278 180.697418 
Q 172.570312 186.94892 187.784302 192.799149 
" clip-path="url(#pf4ec5262c7)" style="fill: none; stroke: #000000; stroke-linecap: round"/>
    <path d="M 184.768631 189.496767 
L 187.784302 192.799149 
L 183.332994 193.230257 
L 184.768631 189.496767 
z
" clip-path="url(#pf4ec5262c7)" style="stroke: #000000; stroke-linecap: round"/>
   </g>
   <g id="patch_100">
    <path d="M 139.62429 242.96402 
Q 155.734823 223.855572 171.124688 205.601898 
" clip-path="url(#pf4ec5262c7)" style="fill: none; stroke: #000000; stroke-linecap: round"/>
    <path d="M 167.017282 207.370857 
L 171.124688 205.601898 
L 170.075412 209.949199 
L 167.017282 207.370857 
z
" clip-path="url(#pf4ec5262c7)" style="stroke: #000000; stroke-linecap: round"/>
   </g>
   <g id="patch_101">
    <path d="M 217.899624 163.311888 
Q 211.038604 145.9594 204.588677 129.646625 
" clip-path="url(#pf4ec5262c7)" style="fill: none; stroke: #000000; stroke-linecap: round"/>
    <path d="M 204.199554 134.1018 
L 204.588677 129.646625 
L 207.919343 132.631029 
L 204.199554 134.1018 
z
" clip-path="url(#pf4ec5262c7)" style="stroke: #000000; stroke-linecap: round"/>
   </g>
   <g id="patch_102">
    <path d="M 220.087134 166.372364 
Q 231.773747 176.338428 242.609652 185.579029 
" clip-path="url(#pf4ec5262c7)" style="fill: none; stroke: #000000; stroke-linecap: round"/>
    <path d="M 240.863816 181.461741 
L 242.609652 185.579029 
L 238.26832 184.505325 
L 240.863816 181.461741 
z
" clip-path="url(#pf4ec5262c7)" style="stroke: #000000; stroke-linecap: round"/>
   </g>
   <g id="patch_103">
    <path d="M 190.034688 116.847883 
Q 200.640726 132.17893 210.610682 146.590521 
" clip-path="url(#pf4ec5262c7)" style="fill: none; stroke: #000000; stroke-linecap: round"/>
    <path d="M 209.979743 142.163116 
L 210.610682 146.590521 
L 206.690195 144.43883 
L 209.979743 142.163116 
z
" clip-path="url(#pf4ec5262c7)" style="stroke: #000000; stroke-linecap: round"/>
   </g>
   <g id="patch_104">
    <path d="M 190.447563 116.458725 
Q 196.197824 121.028062 201.072759 124.901837 
" clip-path="url(#pf4ec5262c7)" style="fill: none; stroke: #000000; stroke-linecap: round"/>
    <path d="M 199.185356 120.847493 
L 201.072759 124.901837 
L 196.696842 123.979153 
L 199.185356 120.847493 
z
" clip-path="url(#pf4ec5262c7)" style="stroke: #000000; stroke-linecap: round"/>
   </g>
   <g id="patch_105">
    <path d="M 243.077486 93.14675 
Q 224.009339 109.34679 205.79324 124.822942 
" clip-path="url(#pf4ec5262c7)" style="fill: none; stroke: #000000; stroke-linecap: round"/>
    <path d="M 210.13655 123.75727 
L 205.79324 124.822942 
L 207.546688 120.708891 
L 210.13655 123.75727 
z
" clip-path="url(#pf4ec5262c7)" style="stroke: #000000; stroke-linecap: round"/>
   </g>
   <g id="patch_106">
    <path d="M 245.245659 93.703866 
Q 256.995954 124.519909 268.347912 154.291286 
" clip-path="url(#pf4ec5262c7)" style="fill: none; stroke: #000000; stroke-linecap: round"/>
    <path d="M 268.791538 149.841208 
L 268.347912 154.291286 
L 265.054025 151.266339 
L 268.791538 149.841208 
z
" clip-path="url(#pf4ec5262c7)" style="stroke: #000000; stroke-linecap: round"/>
   </g>
   <g id="patch_107">
    <path d="M 245.213176 90.06688 
Q 255.723529 60.93968 265.854397 32.864142 
" clip-path="url(#pf4ec5262c7)" style="fill: none; stroke: #000000; stroke-linecap: round"/>
    <path d="M 262.615442 35.947836 
L 265.854397 32.864142 
L 266.377979 37.305522 
L 262.615442 35.947836 
z
" clip-path="url(#pf4ec5262c7)" style="stroke: #000000; stroke-linecap: round"/>
   </g>
   <g id="patch_108">
    <path d="M 169.873769 234.513974 
Q 179.813345 215.065891 189.244114 196.613357 
" clip-path="url(#pf4ec5262c7)" style="fill: none; stroke: #000000; stroke-linecap: round"/>
    <path d="M 185.64286 199.264955 
L 189.244114 196.613357 
L 189.20464 201.085318 
L 185.64286 199.264955 
z
" clip-path="url(#pf4ec5262c7)" style="stroke: #000000; stroke-linecap: round"/>
   </g>
   <g id="patch_109">
    <path d="M 157.151868 218.581456 
Q 173.113085 206.812938 188.174429 195.707915 
" clip-path="url(#pf4ec5262c7)" style="fill: none; stroke: #000000; stroke-linecap: round"/>
    <path d="M 183.768043 196.471963 
L 188.174429 195.707915 
L 186.141836 199.691452 
L 183.768043 196.471963 
z
" clip-path="url(#pf4ec5262c7)" style="stroke: #000000; stroke-linecap: round"/>
   </g>
   <g id="patch_110">
    <path d="M 192.386676 193.077164 
Q 230.032983 175.520267 266.666028 158.435919 
" clip-path="url(#pf4ec5262c7)" style="fill: none; stroke: #000000; stroke-linecap: round"/>
    <path d="M 262.195555 158.313985 
L 266.666028 158.435919 
L 263.886197 161.939137 
L 262.195555 158.313985 
z
" clip-path="url(#pf4ec5262c7)" style="stroke: #000000; stroke-linecap: round"/>
   </g>
   <g id="patch_111">
    <path d="M 188.924927 194.807706 
Q 181.86147 198.581837 175.78411 201.829077 
" clip-path="url(#pf4ec5262c7)" style="fill: none; stroke: #000000; stroke-linecap: round"/>
    <path d="M 180.254607 201.708006 
L 175.78411 201.829077 
L 178.36955 198.180037 
L 180.254607 201.708006 
z
" clip-path="url(#pf4ec5262c7)" style="stroke: #000000; stroke-linecap: round"/>
   </g>
   <g id="patch_112">
    <path d="M 188.829968 193.201239 
Q 172.572436 186.949737 157.358446 181.099507 
" clip-path="url(#pf4ec5262c7)" style="fill: none; stroke: #000000; stroke-linecap: round"/>
    <path d="M 160.374117 184.401889 
L 157.358446 181.099507 
L 161.809754 180.668399 
L 160.374117 184.401889 
z
" clip-path="url(#pf4ec5262c7)" style="stroke: #000000; stroke-linecap: round"/>
   </g>
   <g id="patch_113">
    <path d="M 189.752533 195.618568 
Q 179.812957 215.06665 170.382188 233.519185 
" clip-path="url(#pf4ec5262c7)" style="fill: none; stroke: #000000; stroke-linecap: round"/>
    <path d="M 173.983442 230.867587 
L 170.382188 233.519185 
L 170.421662 229.047223 
L 173.983442 230.867587 
z
" clip-path="url(#pf4ec5262c7)" style="stroke: #000000; stroke-linecap: round"/>
   </g>
   <g id="patch_114">
    <path d="M 189.074411 195.04434 
Q 173.113194 206.812858 158.051851 217.917881 
" clip-path="url(#pf4ec5262c7)" style="fill: none; stroke: #000000; stroke-linecap: round"/>
    <path d="M 162.458236 217.153833 
L 158.051851 217.917881 
L 160.084444 213.934344 
L 162.458236 217.153833 
z
" clip-path="url(#pf4ec5262c7)" style="stroke: #000000; stroke-linecap: round"/>
   </g>
   <g id="patch_115">
    <path d="M 188.721709 194.219057 
Q 168.728251 197.61042 149.837081 200.814809 
" clip-path="url(#pf4ec5262c7)" style="fill: none; stroke: #000000; stroke-linecap: round"/>
    <path d="M 154.115219 202.117704 
L 149.837081 200.814809 
L 153.44628 198.174036 
L 154.115219 202.117704 
z
" clip-path="url(#pf4ec5262c7)" style="stroke: #000000; stroke-linecap: round"/>
   </g>
   <g id="patch_116">
    <path d="M 148.736394 201.001512 
Q 168.729853 197.610148 187.621022 194.405759 
" clip-path="url(#pf4ec5262c7)" style="fill: none; stroke: #000000; stroke-linecap: round"/>
    <path d="M 183.342884 193.102864 
L 187.621022 194.405759 
L 184.011824 197.046533 
L 183.342884 193.102864 
z
" clip-path="url(#pf4ec5262c7)" style="stroke: #000000; stroke-linecap: round"/>
   </g>
   <g id="patch_117">
    <path d="M 342.04588 297.99013 
Q 330.182345 277.393552 318.876842 257.765788 
" clip-path="url(#pf4ec5262c7)" style="fill: none; stroke: #000000; stroke-linecap: round"/>
    <path d="M 319.140252 262.23016 
L 318.876842 257.765788 
L 322.606385 260.233683 
L 319.140252 262.23016 
z
" clip-path="url(#pf4ec5262c7)" style="stroke: #000000; stroke-linecap: round"/>
   </g>
   <g id="patch_118">
    <path d="M 377.186313 178.86768 
Q 357.113457 184.148306 338.121845 189.144487 
" clip-path="url(#pf4ec5262c7)" style="fill: none; stroke: #000000; stroke-linecap: round"/>
    <path d="M 342.499057 190.06101 
L 338.121845 189.144487 
L 341.481391 186.192631 
L 342.499057 190.06101 
z
" clip-path="url(#pf4ec5262c7)" style="stroke: #000000; stroke-linecap: round"/>
   </g>
   <g id="patch_119">
    <path d="M 417.212313 268.83207 
Q 398.505669 259.481954 380.799094 250.631701 
" clip-path="url(#pf4ec5262c7)" style="fill: none; stroke: #000000; stroke-linecap: round"/>
    <path d="M 383.482866 254.209042 
L 380.799094 250.631701 
L 385.27123 250.631088 
L 383.482866 254.209042 
z
" clip-path="url(#pf4ec5262c7)" style="stroke: #000000; stroke-linecap: round"/>
   </g>
   <g id="patch_120">
    <path d="M 369.097916 302.613605 
Q 355.455161 282.424897 342.438401 263.162543 
" clip-path="url(#pf4ec5262c7)" style="fill: none; stroke: #000000; stroke-linecap: round"/>
    <path d="M 343.020915 267.59658 
L 342.438401 263.162543 
L 346.335138 265.356954 
L 343.020915 267.59658 
z
" clip-path="url(#pf4ec5262c7)" style="stroke: #000000; stroke-linecap: round"/>
   </g>
   <g id="patch_121">
    <path d="M 244.937922 185.620718 
Q 245.073783 146.264648 245.205785 108.026606 
" clip-path="url(#pf4ec5262c7)" style="fill: none; stroke: #000000; stroke-linecap: round"/>
    <path d="M 243.191988 112.019678 
L 245.205785 108.026606 
L 247.191964 112.033487 
L 243.191988 112.019678 
z
" clip-path="url(#pf4ec5262c7)" style="stroke: #000000; stroke-linecap: round"/>
   </g>
   <g id="patch_122">
    <path d="M 244.123902 189.319857 
Q 235.784055 207.511676 227.910132 224.687171 
" clip-path="url(#pf4ec5262c7)" style="fill: none; stroke: #000000; stroke-linecap: round"/>
    <path d="M 231.395126 221.884527 
L 227.910132 224.687171 
L 227.759013 220.217589 
L 231.395126 221.884527 
z
" clip-path="url(#pf4ec5262c7)" style="stroke: #000000; stroke-linecap: round"/>
   </g>
   <g id="patch_123">
    <path d="M 243.680402 186.08252 
Q 228.641464 168.332763 214.325269 151.436026 
" clip-path="url(#pf4ec5262c7)" style="fill: none; stroke: #000000; stroke-linecap: round"/>
    <path d="M 215.385105 155.780764 
L 214.325269 151.436026 
L 218.436961 153.195 
L 215.385105 155.780764 
z
" clip-path="url(#pf4ec5262c7)" style="stroke: #000000; stroke-linecap: round"/>
   </g>
   <g id="patch_124">
    <path d="M 243.840386 185.960536 
Q 224.198006 157.181008 205.185893 129.324932 
" clip-path="url(#pf4ec5262c7)" style="fill: none; stroke: #000000; stroke-linecap: round"/>
    <path d="M 205.788885 133.75623 
L 205.185893 129.324932 
L 209.092726 131.501317 
L 205.788885 133.75623 
z
" clip-path="url(#pf4ec5262c7)" style="stroke: #000000; stroke-linecap: round"/>
   </g>
   <g id="patch_125">
    <path d="M 246.14868 186.04774 
Q 257.185306 172.349264 267.52049 159.521407 
" clip-path="url(#pf4ec5262c7)" style="fill: none; stroke: #000000; stroke-linecap: round"/>
    <path d="M 263.45352 161.38145 
L 267.52049 159.521407 
L 266.568342 163.891008 
L 263.45352 161.38145 
z
" clip-path="url(#pf4ec5262c7)" style="stroke: #000000; stroke-linecap: round"/>
   </g>
   <g id="patch_126">
    <path d="M 243.041458 187.972031 
Q 209.013128 195.412599 176.077028 202.614343 
" clip-path="url(#pf4ec5262c7)" style="fill: none; stroke: #000000; stroke-linecap: round"/>
    <path d="M 180.411925 203.713736 
L 176.077028 202.614343 
L 179.55748 199.806061 
L 180.411925 203.713736 
z
" clip-path="url(#pf4ec5262c7)" style="stroke: #000000; stroke-linecap: round"/>
   </g>
   <g id="patch_127">
    <path d="M 244.791759 189.489982 
Q 243.137602 212.393806 241.563981 234.182501 
" clip-path="url(#pf4ec5262c7)" style="fill: none; stroke: #000000; stroke-linecap: round"/>
    <path d="M 243.846923 230.336961 
L 241.563981 234.182501 
L 239.857314 230.048824 
L 243.846923 230.336961 
z
" clip-path="url(#pf4ec5262c7)" style="stroke: #000000; stroke-linecap: round"/>
   </g>
   <g id="patch_128">
    <path d="M 246.347924 188.880428 
Q 281.142834 221.340073 315.120216 253.037059 
" clip-path="url(#pf4ec5262c7)" style="fill: none; stroke: #000000; stroke-linecap: round"/>
    <path d="M 313.559627 248.846049 
L 315.120216 253.037059 
L 310.831055 251.770924 
L 313.559627 248.846049 
z
" clip-path="url(#pf4ec5262c7)" style="stroke: #000000; stroke-linecap: round"/>
   </g>
   <g id="patch_129">
    <path d="M 243.456585 186.301273 
Q 231.769973 176.335209 220.934067 167.094609 
" clip-path="url(#pf4ec5262c7)" style="fill: none; stroke: #000000; stroke-linecap: round"/>
    <path d="M 222.679903 171.211896 
L 220.934067 167.094609 
L 225.275399 168.168312 
L 222.679903 171.211896 
z
" clip-path="url(#pf4ec5262c7)" style="stroke: #000000; stroke-linecap: round"/>
   </g>
   <g id="patch_130">
    <path d="M 246.799809 188.076149 
Q 275.005244 195.885076 302.133178 203.395688 
" clip-path="url(#pf4ec5262c7)" style="fill: none; stroke: #000000; stroke-linecap: round"/>
    <path d="M 298.811838 200.40091 
L 302.133178 203.395688 
L 297.744551 204.255893 
L 298.811838 200.40091 
z
" clip-path="url(#pf4ec5262c7)" style="stroke: #000000; stroke-linecap: round"/>
   </g>
   <g id="patch_131">
    <path d="M 315.640161 219.194748 
Q 312.928001 194.791927 310.339341 171.500298 
" clip-path="url(#pf4ec5262c7)" style="fill: none; stroke: #000000; stroke-linecap: round"/>
    <path d="M 308.793424 175.696742 
L 310.339341 171.500298 
L 312.768946 175.254898 
L 308.793424 175.696742 
z
" clip-path="url(#pf4ec5262c7)" style="stroke: #000000; stroke-linecap: round"/>
   </g>
   <g id="patch_132">
    <path d="M 316.874856 219.470764 
Q 325.510129 205.520657 333.556945 192.521191 
" clip-path="url(#pf4ec5262c7)" style="fill: none; stroke: #000000; stroke-linecap: round"/>
    <path d="M 329.751058 194.869642 
L 333.556945 192.521191 
L 333.152174 196.974971 
L 329.751058 194.869642 
z
" clip-path="url(#pf4ec5262c7)" style="stroke: #000000; stroke-linecap: round"/>
   </g>
   <g id="patch_133">
    <path d="M 315.939541 223.05799 
Q 316.603437 238.120199 317.218103 252.065459 
" clip-path="url(#pf4ec5262c7)" style="fill: none; stroke: #000000; stroke-linecap: round"/>
    <path d="M 319.040026 247.98127 
L 317.218103 252.065459 
L 315.043906 248.157407 
L 319.040026 247.98127 
z
" clip-path="url(#pf4ec5262c7)" style="stroke: #000000; stroke-linecap: round"/>
   </g>
   <g id="patch_134">
    <path d="M 315.410684 223.005973 
Q 310.535692 243.742903 305.916561 263.391469 
" clip-path="url(#pf4ec5262c7)" style="fill: none; stroke: #000000; stroke-linecap: round"/>
    <path d="M 308.77888 259.955318 
L 305.916561 263.391469 
L 304.885032 259.039923 
L 308.77888 259.955318 
z
" clip-path="url(#pf4ec5262c7)" style="stroke: #000000; stroke-linecap: round"/>
   </g>
   <g id="patch_135">
    <path d="M 264.293954 132.470361 
Q 266.667452 143.860034 268.812862 154.155185 
" clip-path="url(#pf4ec5262c7)" style="fill: none; stroke: #000000; stroke-linecap: round"/>
    <path d="M 269.95477 149.831293 
L 268.812862 154.155185 
L 266.038893 150.647324 
L 269.95477 149.831293 
z
" clip-path="url(#pf4ec5262c7)" style="stroke: #000000; stroke-linecap: round"/>
   </g>
   <g id="patch_136">
    <path d="M 418.879929 248.141833 
Q 399.442386 248.677241 381.122453 249.181864 
" clip-path="url(#pf4ec5262c7)" style="fill: none; stroke: #000000; stroke-linecap: round"/>
    <path d="M 385.176006 251.070967 
L 381.122453 249.181864 
L 385.065867 247.072484 
L 385.176006 251.070967 
z
" clip-path="url(#pf4ec5262c7)" style="stroke: #000000; stroke-linecap: round"/>
   </g>
   <g id="patch_137">
    <path d="M 305.619775 202.349703 
Q 314.303477 172.509539 322.674783 143.742878 
" clip-path="url(#pf4ec5262c7)" style="fill: none; stroke: #000000; stroke-linecap: round"/>
    <path d="M 319.636777 147.024725 
L 322.674783 143.742878 
L 323.477457 148.142391 
L 319.636777 147.024725 
z
" clip-path="url(#pf4ec5262c7)" style="stroke: #000000; stroke-linecap: round"/>
   </g>
   <g id="patch_138">
    <path d="M 306.237272 205.762259 
Q 316.800045 219.897885 326.693578 233.137902 
" clip-path="url(#pf4ec5262c7)" style="fill: none; stroke: #000000; stroke-linecap: round"/>
    <path d="M 325.901348 228.736496 
L 326.693578 233.137902 
L 322.697115 231.130842 
L 325.901348 228.736496 
z
" clip-path="url(#pf4ec5262c7)" style="stroke: #000000; stroke-linecap: round"/>
   </g>
   <g id="patch_139">
    <path d="M 306.11163 205.846689 
Q 322.902584 232.420564 339.096328 258.049274 
" clip-path="url(#pf4ec5262c7)" style="fill: none; stroke: #000000; stroke-linecap: round"/>
    <path d="M 338.650441 253.599422 
L 339.096328 258.049274 
L 335.268914 255.736072 
L 338.650441 253.599422 
z
" clip-path="url(#pf4ec5262c7)" style="stroke: #000000; stroke-linecap: round"/>
   </g>
   <g id="patch_140">
    <path d="M 303.209541 203.693689 
Q 275.004105 195.884761 247.876171 188.374149 
" clip-path="url(#pf4ec5262c7)" style="fill: none; stroke: #000000; stroke-linecap: round"/>
    <path d="M 251.197511 191.368928 
L 247.876171 188.374149 
L 252.264798 187.513944 
L 251.197511 191.368928 
z
" clip-path="url(#pf4ec5262c7)" style="stroke: #000000; stroke-linecap: round"/>
   </g>
   <g id="patch_141">
    <path d="M 266.232993 31.814942 
Q 255.72264 60.942142 245.591772 89.01768 
" clip-path="url(#pf4ec5262c7)" style="fill: none; stroke: #000000; stroke-linecap: round"/>
    <path d="M 248.830727 85.933986 
L 245.591772 89.01768 
L 245.06819 84.576299 
L 248.830727 85.933986 
z
" clip-path="url(#pf4ec5262c7)" style="stroke: #000000; stroke-linecap: round"/>
   </g>
   <g id="PathCollection_1">
    <defs>
     <path id="mde61f37f8b" d="M 0 1.936492 
C 0.513564 1.936492 1.006162 1.732451 1.369306 1.369306 
C 1.732451 1.006162 1.936492 0.513564 1.936492 0 
C 1.936492 -0.513564 1.732451 -1.006162 1.369306 -1.369306 
C 1.006162 -1.732451 0.513564 -1.936492 0 -1.936492 
C -0.513564 -1.936492 -1.006162 -1.732451 -1.369306 -1.369306 
C -1.732451 -1.006162 -1.936492 -0.513564 -1.936492 0 
C -1.936492 0.513564 -1.732451 1.006162 -1.369306 1.369306 
C -1.006162 1.732451 -0.513564 1.936492 0 1.936492 
z
" style="stroke: #1f78b4"/>
    </defs>
    <g clip-path="url(#pf4ec5262c7)">
     <use xlink:href="#mde61f37f8b" x="369.777601" y="162.201832" style="fill: #1f78b4; stroke: #1f78b4"/>
     <use xlink:href="#mde61f37f8b" x="248.874332" y="44.179083" style="fill: #1f78b4; stroke: #1f78b4"/>
     <use xlink:href="#mde61f37f8b" x="374.318095" y="198.314965" style="fill: #1f78b4; stroke: #1f78b4"/>
     <use xlink:href="#mde61f37f8b" x="331.21503" y="312.000862" style="fill: #1f78b4; stroke: #1f78b4"/>
     <use xlink:href="#mde61f37f8b" x="245.216322" y="104.974124" style="fill: #1f78b4; stroke: #1f78b4"/>
     <use xlink:href="#mde61f37f8b" x="226.636215" y="227.465985" style="fill: #1f78b4; stroke: #1f78b4"/>
     <use xlink:href="#mde61f37f8b" x="212.349999" y="149.104706" style="fill: #1f78b4; stroke: #1f78b4"/>
     <use xlink:href="#mde61f37f8b" x="280.108611" y="52.339758" style="fill: #1f78b4; stroke: #1f78b4"/>
     <use xlink:href="#mde61f37f8b" x="203.463903" y="126.801915" style="fill: #1f78b4; stroke: #1f78b4"/>
     <use xlink:href="#mde61f37f8b" x="179.494345" y="80.753223" style="fill: #1f78b4; stroke: #1f78b4"/>
     <use xlink:href="#mde61f37f8b" x="39.986777" y="106.18064" style="fill: #1f78b4; stroke: #1f78b4"/>
     <use xlink:href="#mde61f37f8b" x="362.750926" y="112.724367" style="fill: #1f78b4; stroke: #1f78b4"/>
     <use xlink:href="#mde61f37f8b" x="269.435748" y="157.14422" style="fill: #1f78b4; stroke: #1f78b4"/>
     <use xlink:href="#mde61f37f8b" x="378.066818" y="249.266032" style="fill: #1f78b4; stroke: #1f78b4"/>
     <use xlink:href="#mde61f37f8b" x="296.798805" y="71.546928" style="fill: #1f78b4; stroke: #1f78b4"/>
     <use xlink:href="#mde61f37f8b" x="310.002144" y="168.466357" style="fill: #1f78b4; stroke: #1f78b4"/>
     <use xlink:href="#mde61f37f8b" x="173.093507" y="203.266714" style="fill: #1f78b4; stroke: #1f78b4"/>
     <use xlink:href="#mde61f37f8b" x="97.445318" y="120.915752" style="fill: #1f78b4; stroke: #1f78b4"/>
     <use xlink:href="#mde61f37f8b" x="76.945496" y="119.253524" style="fill: #1f78b4; stroke: #1f78b4"/>
     <use xlink:href="#mde61f37f8b" x="132.03478" y="138.477912" style="fill: #1f78b4; stroke: #1f78b4"/>
     <use xlink:href="#mde61f37f8b" x="92.627207" y="148.69924" style="fill: #1f78b4; stroke: #1f78b4"/>
     <use xlink:href="#mde61f37f8b" x="106.568669" y="98.679357" style="fill: #1f78b4; stroke: #1f78b4"/>
     <use xlink:href="#mde61f37f8b" x="302.313614" y="308.854953" style="fill: #1f78b4; stroke: #1f78b4"/>
     <use xlink:href="#mde61f37f8b" x="317.090546" y="315.609917" style="fill: #1f78b4; stroke: #1f78b4"/>
     <use xlink:href="#mde61f37f8b" x="241.343924" y="237.229472" style="fill: #1f78b4; stroke: #1f78b4"/>
     <use xlink:href="#mde61f37f8b" x="323.528238" y="140.810117" style="fill: #1f78b4; stroke: #1f78b4"/>
     <use xlink:href="#mde61f37f8b" x="351.470774" y="96.361919" style="fill: #1f78b4; stroke: #1f78b4"/>
     <use xlink:href="#mde61f37f8b" x="282.222725" y="68.007568" style="fill: #1f78b4; stroke: #1f78b4"/>
     <use xlink:href="#mde61f37f8b" x="270.312191" y="76.001461" style="fill: #1f78b4; stroke: #1f78b4"/>
     <use xlink:href="#mde61f37f8b" x="298.978631" y="121.968371" style="fill: #1f78b4; stroke: #1f78b4"/>
     <use xlink:href="#mde61f37f8b" x="335.165783" y="189.922147" style="fill: #1f78b4; stroke: #1f78b4"/>
     <use xlink:href="#mde61f37f8b" x="409.71802" y="287.503384" style="fill: #1f78b4; stroke: #1f78b4"/>
     <use xlink:href="#mde61f37f8b" x="317.352726" y="255.119733" style="fill: #1f78b4; stroke: #1f78b4"/>
     <use xlink:href="#mde61f37f8b" x="305.217095" y="266.366812" style="fill: #1f78b4; stroke: #1f78b4"/>
     <use xlink:href="#mde61f37f8b" x="328.524519" y="235.588158" style="fill: #1f78b4; stroke: #1f78b4"/>
     <use xlink:href="#mde61f37f8b" x="340.726666" y="260.629498" style="fill: #1f78b4; stroke: #1f78b4"/>
     <use xlink:href="#mde61f37f8b" x="154.939534" y="259.145089" style="fill: #1f78b4; stroke: #1f78b4"/>
     <use xlink:href="#mde61f37f8b" x="154.509209" y="180.003891" style="fill: #1f78b4; stroke: #1f78b4"/>
     <use xlink:href="#mde61f37f8b" x="138.376213" y="244.444343" style="fill: #1f78b4; stroke: #1f78b4"/>
     <use xlink:href="#mde61f37f8b" x="218.612487" y="165.114821" style="fill: #1f78b4; stroke: #1f78b4"/>
     <use xlink:href="#mde61f37f8b" x="188.932715" y="115.254979" style="fill: #1f78b4; stroke: #1f78b4"/>
     <use xlink:href="#mde61f37f8b" x="244.554687" y="91.891739" style="fill: #1f78b4; stroke: #1f78b4"/>
     <use xlink:href="#mde61f37f8b" x="168.992764" y="236.237777" style="fill: #1f78b4; stroke: #1f78b4"/>
     <use xlink:href="#mde61f37f8b" x="155.59274" y="219.731031" style="fill: #1f78b4; stroke: #1f78b4"/>
     <use xlink:href="#mde61f37f8b" x="190.633539" y="193.894765" style="fill: #1f78b4; stroke: #1f78b4"/>
     <use xlink:href="#mde61f37f8b" x="146.824565" y="201.325803" style="fill: #1f78b4; stroke: #1f78b4"/>
     <use xlink:href="#mde61f37f8b" x="343.012182" y="299.66775" style="fill: #1f78b4; stroke: #1f78b4"/>
     <use xlink:href="#mde61f37f8b" x="379.058953" y="178.375039" style="fill: #1f78b4; stroke: #1f78b4"/>
     <use xlink:href="#mde61f37f8b" x="418.946402" y="269.698817" style="fill: #1f78b4; stroke: #1f78b4"/>
     <use xlink:href="#mde61f37f8b" x="370.181996" y="304.217839" style="fill: #1f78b4; stroke: #1f78b4"/>
     <use xlink:href="#mde61f37f8b" x="244.931232" y="187.558817" style="fill: #1f78b4; stroke: #1f78b4"/>
     <use xlink:href="#mde61f37f8b" x="315.854109" y="221.119759" style="fill: #1f78b4; stroke: #1f78b4"/>
     <use xlink:href="#mde61f37f8b" x="263.898535" y="130.572871" style="fill: #1f78b4; stroke: #1f78b4"/>
     <use xlink:href="#mde61f37f8b" x="420.813223" y="248.08858" style="fill: #1f78b4; stroke: #1f78b4"/>
     <use xlink:href="#mde61f37f8b" x="305.078118" y="204.211021" style="fill: #1f78b4; stroke: #1f78b4"/>
     <use xlink:href="#mde61f37f8b" x="266.891482" y="29.990083" style="fill: #1f78b4; stroke: #1f78b4"/>
    </g>
   </g>
   <g id="text_1">
    <g clip-path="url(#pf4ec5262c7)">
     <!-- 0 -->
     <g transform="translate(366.596351 164.961207) scale(0.1 -0.1)">
      <defs>
       <path id="DejaVuSans-30" d="M 2034 4250 
Q 1547 4250 1301 3770 
Q 1056 3291 1056 2328 
Q 1056 1369 1301 889 
Q 1547 409 2034 409 
Q 2525 409 2770 889 
Q 3016 1369 3016 2328 
Q 3016 3291 2770 3770 
Q 2525 4250 2034 4250 
z
M 2034 4750 
Q 2819 4750 3233 4129 
Q 3647 3509 3647 2328 
Q 3647 1150 3233 529 
Q 2819 -91 2034 -91 
Q 1250 -91 836 529 
Q 422 1150 422 2328 
Q 422 3509 836 4129 
Q 1250 4750 2034 4750 
z
" transform="scale(0.015625)"/>
      </defs>
      <use xlink:href="#DejaVuSans-30"/>
     </g>
    </g>
   </g>
   <g id="text_2">
    <g clip-path="url(#pf4ec5262c7)">
     <!-- 1 -->
     <g transform="translate(245.693082 46.938458) scale(0.1 -0.1)">
      <defs>
       <path id="DejaVuSans-31" d="M 794 531 
L 1825 531 
L 1825 4091 
L 703 3866 
L 703 4441 
L 1819 4666 
L 2450 4666 
L 2450 531 
L 3481 531 
L 3481 0 
L 794 0 
L 794 531 
z
" transform="scale(0.015625)"/>
      </defs>
      <use xlink:href="#DejaVuSans-31"/>
     </g>
    </g>
   </g>
   <g id="text_3">
    <g clip-path="url(#pf4ec5262c7)">
     <!-- 2 -->
     <g transform="translate(371.136845 201.07434) scale(0.1 -0.1)">
      <defs>
       <path id="DejaVuSans-32" d="M 1228 531 
L 3431 531 
L 3431 0 
L 469 0 
L 469 531 
Q 828 903 1448 1529 
Q 2069 2156 2228 2338 
Q 2531 2678 2651 2914 
Q 2772 3150 2772 3378 
Q 2772 3750 2511 3984 
Q 2250 4219 1831 4219 
Q 1534 4219 1204 4116 
Q 875 4013 500 3803 
L 500 4441 
Q 881 4594 1212 4672 
Q 1544 4750 1819 4750 
Q 2544 4750 2975 4387 
Q 3406 4025 3406 3419 
Q 3406 3131 3298 2873 
Q 3191 2616 2906 2266 
Q 2828 2175 2409 1742 
Q 1991 1309 1228 531 
z
" transform="scale(0.015625)"/>
      </defs>
      <use xlink:href="#DejaVuSans-32"/>
     </g>
    </g>
   </g>
   <g id="text_4">
    <g clip-path="url(#pf4ec5262c7)">
     <!-- 3 -->
     <g transform="translate(328.03378 314.760237) scale(0.1 -0.1)">
      <defs>
       <path id="DejaVuSans-33" d="M 2597 2516 
Q 3050 2419 3304 2112 
Q 3559 1806 3559 1356 
Q 3559 666 3084 287 
Q 2609 -91 1734 -91 
Q 1441 -91 1130 -33 
Q 819 25 488 141 
L 488 750 
Q 750 597 1062 519 
Q 1375 441 1716 441 
Q 2309 441 2620 675 
Q 2931 909 2931 1356 
Q 2931 1769 2642 2001 
Q 2353 2234 1838 2234 
L 1294 2234 
L 1294 2753 
L 1863 2753 
Q 2328 2753 2575 2939 
Q 2822 3125 2822 3475 
Q 2822 3834 2567 4026 
Q 2313 4219 1838 4219 
Q 1578 4219 1281 4162 
Q 984 4106 628 3988 
L 628 4550 
Q 988 4650 1302 4700 
Q 1616 4750 1894 4750 
Q 2613 4750 3031 4423 
Q 3450 4097 3450 3541 
Q 3450 3153 3228 2886 
Q 3006 2619 2597 2516 
z
" transform="scale(0.015625)"/>
      </defs>
      <use xlink:href="#DejaVuSans-33"/>
     </g>
    </g>
   </g>
   <g id="text_5">
    <g clip-path="url(#pf4ec5262c7)">
     <!-- 4 -->
     <g transform="translate(242.035072 107.733499) scale(0.1 -0.1)">
      <defs>
       <path id="DejaVuSans-34" d="M 2419 4116 
L 825 1625 
L 2419 1625 
L 2419 4116 
z
M 2253 4666 
L 3047 4666 
L 3047 1625 
L 3713 1625 
L 3713 1100 
L 3047 1100 
L 3047 0 
L 2419 0 
L 2419 1100 
L 313 1100 
L 313 1709 
L 2253 4666 
z
" transform="scale(0.015625)"/>
      </defs>
      <use xlink:href="#DejaVuSans-34"/>
     </g>
    </g>
   </g>
   <g id="text_6">
    <g clip-path="url(#pf4ec5262c7)">
     <!-- 5 -->
     <g transform="translate(223.454965 230.22536) scale(0.1 -0.1)">
      <defs>
       <path id="DejaVuSans-35" d="M 691 4666 
L 3169 4666 
L 3169 4134 
L 1269 4134 
L 1269 2991 
Q 1406 3038 1543 3061 
Q 1681 3084 1819 3084 
Q 2600 3084 3056 2656 
Q 3513 2228 3513 1497 
Q 3513 744 3044 326 
Q 2575 -91 1722 -91 
Q 1428 -91 1123 -41 
Q 819 9 494 109 
L 494 744 
Q 775 591 1075 516 
Q 1375 441 1709 441 
Q 2250 441 2565 725 
Q 2881 1009 2881 1497 
Q 2881 1984 2565 2268 
Q 2250 2553 1709 2553 
Q 1456 2553 1204 2497 
Q 953 2441 691 2322 
L 691 4666 
z
" transform="scale(0.015625)"/>
      </defs>
      <use xlink:href="#DejaVuSans-35"/>
     </g>
    </g>
   </g>
   <g id="text_7">
    <g clip-path="url(#pf4ec5262c7)">
     <!-- 6 -->
     <g transform="translate(209.168749 151.864081) scale(0.1 -0.1)">
      <defs>
       <path id="DejaVuSans-36" d="M 2113 2584 
Q 1688 2584 1439 2293 
Q 1191 2003 1191 1497 
Q 1191 994 1439 701 
Q 1688 409 2113 409 
Q 2538 409 2786 701 
Q 3034 994 3034 1497 
Q 3034 2003 2786 2293 
Q 2538 2584 2113 2584 
z
M 3366 4563 
L 3366 3988 
Q 3128 4100 2886 4159 
Q 2644 4219 2406 4219 
Q 1781 4219 1451 3797 
Q 1122 3375 1075 2522 
Q 1259 2794 1537 2939 
Q 1816 3084 2150 3084 
Q 2853 3084 3261 2657 
Q 3669 2231 3669 1497 
Q 3669 778 3244 343 
Q 2819 -91 2113 -91 
Q 1303 -91 875 529 
Q 447 1150 447 2328 
Q 447 3434 972 4092 
Q 1497 4750 2381 4750 
Q 2619 4750 2861 4703 
Q 3103 4656 3366 4563 
z
" transform="scale(0.015625)"/>
      </defs>
      <use xlink:href="#DejaVuSans-36"/>
     </g>
    </g>
   </g>
   <g id="text_8">
    <g clip-path="url(#pf4ec5262c7)">
     <!-- 7 -->
     <g transform="translate(276.927361 55.099133) scale(0.1 -0.1)">
      <defs>
       <path id="DejaVuSans-37" d="M 525 4666 
L 3525 4666 
L 3525 4397 
L 1831 0 
L 1172 0 
L 2766 4134 
L 525 4134 
L 525 4666 
z
" transform="scale(0.015625)"/>
      </defs>
      <use xlink:href="#DejaVuSans-37"/>
     </g>
    </g>
   </g>
   <g id="text_9">
    <g clip-path="url(#pf4ec5262c7)">
     <!-- 8 -->
     <g transform="translate(200.282653 129.56129) scale(0.1 -0.1)">
      <defs>
       <path id="DejaVuSans-38" d="M 2034 2216 
Q 1584 2216 1326 1975 
Q 1069 1734 1069 1313 
Q 1069 891 1326 650 
Q 1584 409 2034 409 
Q 2484 409 2743 651 
Q 3003 894 3003 1313 
Q 3003 1734 2745 1975 
Q 2488 2216 2034 2216 
z
M 1403 2484 
Q 997 2584 770 2862 
Q 544 3141 544 3541 
Q 544 4100 942 4425 
Q 1341 4750 2034 4750 
Q 2731 4750 3128 4425 
Q 3525 4100 3525 3541 
Q 3525 3141 3298 2862 
Q 3072 2584 2669 2484 
Q 3125 2378 3379 2068 
Q 3634 1759 3634 1313 
Q 3634 634 3220 271 
Q 2806 -91 2034 -91 
Q 1263 -91 848 271 
Q 434 634 434 1313 
Q 434 1759 690 2068 
Q 947 2378 1403 2484 
z
M 1172 3481 
Q 1172 3119 1398 2916 
Q 1625 2713 2034 2713 
Q 2441 2713 2670 2916 
Q 2900 3119 2900 3481 
Q 2900 3844 2670 4047 
Q 2441 4250 2034 4250 
Q 1625 4250 1398 4047 
Q 1172 3844 1172 3481 
z
" transform="scale(0.015625)"/>
      </defs>
      <use xlink:href="#DejaVuSans-38"/>
     </g>
    </g>
   </g>
   <g id="text_10">
    <g clip-path="url(#pf4ec5262c7)">
     <!-- 9 -->
     <g transform="translate(176.313095 83.512598) scale(0.1 -0.1)">
      <defs>
       <path id="DejaVuSans-39" d="M 703 97 
L 703 672 
Q 941 559 1184 500 
Q 1428 441 1663 441 
Q 2288 441 2617 861 
Q 2947 1281 2994 2138 
Q 2813 1869 2534 1725 
Q 2256 1581 1919 1581 
Q 1219 1581 811 2004 
Q 403 2428 403 3163 
Q 403 3881 828 4315 
Q 1253 4750 1959 4750 
Q 2769 4750 3195 4129 
Q 3622 3509 3622 2328 
Q 3622 1225 3098 567 
Q 2575 -91 1691 -91 
Q 1453 -91 1209 -44 
Q 966 3 703 97 
z
M 1959 2075 
Q 2384 2075 2632 2365 
Q 2881 2656 2881 3163 
Q 2881 3666 2632 3958 
Q 2384 4250 1959 4250 
Q 1534 4250 1286 3958 
Q 1038 3666 1038 3163 
Q 1038 2656 1286 2365 
Q 1534 2075 1959 2075 
z
" transform="scale(0.015625)"/>
      </defs>
      <use xlink:href="#DejaVuSans-39"/>
     </g>
    </g>
   </g>
   <g id="text_11">
    <g clip-path="url(#pf4ec5262c7)">
     <!-- 10 -->
     <g transform="translate(33.624277 108.940015) scale(0.1 -0.1)">
      <use xlink:href="#DejaVuSans-31"/>
      <use xlink:href="#DejaVuSans-30" x="63.623047"/>
     </g>
    </g>
   </g>
   <g id="text_12">
    <g clip-path="url(#pf4ec5262c7)">
     <!-- 11 -->
     <g transform="translate(356.388426 115.483742) scale(0.1 -0.1)">
      <use xlink:href="#DejaVuSans-31"/>
      <use xlink:href="#DejaVuSans-31" x="63.623047"/>
     </g>
    </g>
   </g>
   <g id="text_13">
    <g clip-path="url(#pf4ec5262c7)">
     <!-- 12 -->
     <g transform="translate(263.073248 159.903595) scale(0.1 -0.1)">
      <use xlink:href="#DejaVuSans-31"/>
      <use xlink:href="#DejaVuSans-32" x="63.623047"/>
     </g>
    </g>
   </g>
   <g id="text_14">
    <g clip-path="url(#pf4ec5262c7)">
     <!-- 13 -->
     <g transform="translate(371.704318 252.025407) scale(0.1 -0.1)">
      <use xlink:href="#DejaVuSans-31"/>
      <use xlink:href="#DejaVuSans-33" x="63.623047"/>
     </g>
    </g>
   </g>
   <g id="text_15">
    <g clip-path="url(#pf4ec5262c7)">
     <!-- 14 -->
     <g transform="translate(290.436305 74.306303) scale(0.1 -0.1)">
      <use xlink:href="#DejaVuSans-31"/>
      <use xlink:href="#DejaVuSans-34" x="63.623047"/>
     </g>
    </g>
   </g>
   <g id="text_16">
    <g clip-path="url(#pf4ec5262c7)">
     <!-- 15 -->
     <g transform="translate(303.639644 171.225732) scale(0.1 -0.1)">
      <use xlink:href="#DejaVuSans-31"/>
      <use xlink:href="#DejaVuSans-35" x="63.623047"/>
     </g>
    </g>
   </g>
   <g id="text_17">
    <g clip-path="url(#pf4ec5262c7)">
     <!-- 16 -->
     <g transform="translate(166.731007 206.026089) scale(0.1 -0.1)">
      <use xlink:href="#DejaVuSans-31"/>
      <use xlink:href="#DejaVuSans-36" x="63.623047"/>
     </g>
    </g>
   </g>
   <g id="text_18">
    <g clip-path="url(#pf4ec5262c7)">
     <!-- 17 -->
     <g transform="translate(91.082818 123.675127) scale(0.1 -0.1)">
      <use xlink:href="#DejaVuSans-31"/>
      <use xlink:href="#DejaVuSans-37" x="63.623047"/>
     </g>
    </g>
   </g>
   <g id="text_19">
    <g clip-path="url(#pf4ec5262c7)">
     <!-- 18 -->
     <g transform="translate(70.582996 122.012899) scale(0.1 -0.1)">
      <use xlink:href="#DejaVuSans-31"/>
      <use xlink:href="#DejaVuSans-38" x="63.623047"/>
     </g>
    </g>
   </g>
   <g id="text_20">
    <g clip-path="url(#pf4ec5262c7)">
     <!-- 19 -->
     <g transform="translate(125.67228 141.237287) scale(0.1 -0.1)">
      <use xlink:href="#DejaVuSans-31"/>
      <use xlink:href="#DejaVuSans-39" x="63.623047"/>
     </g>
    </g>
   </g>
   <g id="text_21">
    <g clip-path="url(#pf4ec5262c7)">
     <!-- 20 -->
     <g transform="translate(86.264707 151.458615) scale(0.1 -0.1)">
      <use xlink:href="#DejaVuSans-32"/>
      <use xlink:href="#DejaVuSans-30" x="63.623047"/>
     </g>
    </g>
   </g>
   <g id="text_22">
    <g clip-path="url(#pf4ec5262c7)">
     <!-- 21 -->
     <g transform="translate(100.206169 101.438732) scale(0.1 -0.1)">
      <use xlink:href="#DejaVuSans-32"/>
      <use xlink:href="#DejaVuSans-31" x="63.623047"/>
     </g>
    </g>
   </g>
   <g id="text_23">
    <g clip-path="url(#pf4ec5262c7)">
     <!-- 22 -->
     <g transform="translate(295.951114 311.614328) scale(0.1 -0.1)">
      <use xlink:href="#DejaVuSans-32"/>
      <use xlink:href="#DejaVuSans-32" x="63.623047"/>
     </g>
    </g>
   </g>
   <g id="text_24">
    <g clip-path="url(#pf4ec5262c7)">
     <!-- 23 -->
     <g transform="translate(310.728046 318.369292) scale(0.1 -0.1)">
      <use xlink:href="#DejaVuSans-32"/>
      <use xlink:href="#DejaVuSans-33" x="63.623047"/>
     </g>
    </g>
   </g>
   <g id="text_25">
    <g clip-path="url(#pf4ec5262c7)">
     <!-- 24 -->
     <g transform="translate(234.981424 239.988847) scale(0.1 -0.1)">
      <use xlink:href="#DejaVuSans-32"/>
      <use xlink:href="#DejaVuSans-34" x="63.623047"/>
     </g>
    </g>
   </g>
   <g id="text_26">
    <g clip-path="url(#pf4ec5262c7)">
     <!-- 25 -->
     <g transform="translate(317.165738 143.569492) scale(0.1 -0.1)">
      <use xlink:href="#DejaVuSans-32"/>
      <use xlink:href="#DejaVuSans-35" x="63.623047"/>
     </g>
    </g>
   </g>
   <g id="text_27">
    <g clip-path="url(#pf4ec5262c7)">
     <!-- 26 -->
     <g transform="translate(345.108274 99.121294) scale(0.1 -0.1)">
      <use xlink:href="#DejaVuSans-32"/>
      <use xlink:href="#DejaVuSans-36" x="63.623047"/>
     </g>
    </g>
   </g>
   <g id="text_28">
    <g clip-path="url(#pf4ec5262c7)">
     <!-- 27 -->
     <g transform="translate(275.860225 70.766943) scale(0.1 -0.1)">
      <use xlink:href="#DejaVuSans-32"/>
      <use xlink:href="#DejaVuSans-37" x="63.623047"/>
     </g>
    </g>
   </g>
   <g id="text_29">
    <g clip-path="url(#pf4ec5262c7)">
     <!-- 28 -->
     <g transform="translate(263.949691 78.760836) scale(0.1 -0.1)">
      <use xlink:href="#DejaVuSans-32"/>
      <use xlink:href="#DejaVuSans-38" x="63.623047"/>
     </g>
    </g>
   </g>
   <g id="text_30">
    <g clip-path="url(#pf4ec5262c7)">
     <!-- 29 -->
     <g transform="translate(292.616131 124.727746) scale(0.1 -0.1)">
      <use xlink:href="#DejaVuSans-32"/>
      <use xlink:href="#DejaVuSans-39" x="63.623047"/>
     </g>
    </g>
   </g>
   <g id="text_31">
    <g clip-path="url(#pf4ec5262c7)">
     <!-- 30 -->
     <g transform="translate(328.803283 192.681522) scale(0.1 -0.1)">
      <use xlink:href="#DejaVuSans-33"/>
      <use xlink:href="#DejaVuSans-30" x="63.623047"/>
     </g>
    </g>
   </g>
   <g id="text_32">
    <g clip-path="url(#pf4ec5262c7)">
     <!-- 31 -->
     <g transform="translate(403.35552 290.262759) scale(0.1 -0.1)">
      <use xlink:href="#DejaVuSans-33"/>
      <use xlink:href="#DejaVuSans-31" x="63.623047"/>
     </g>
    </g>
   </g>
   <g id="text_33">
    <g clip-path="url(#pf4ec5262c7)">
     <!-- 32 -->
     <g transform="translate(310.990226 257.879108) scale(0.1 -0.1)">
      <use xlink:href="#DejaVuSans-33"/>
      <use xlink:href="#DejaVuSans-32" x="63.623047"/>
     </g>
    </g>
   </g>
   <g id="text_34">
    <g clip-path="url(#pf4ec5262c7)">
     <!-- 33 -->
     <g transform="translate(298.854595 269.126187) scale(0.1 -0.1)">
      <use xlink:href="#DejaVuSans-33"/>
      <use xlink:href="#DejaVuSans-33" x="63.623047"/>
     </g>
    </g>
   </g>
   <g id="text_35">
    <g clip-path="url(#pf4ec5262c7)">
     <!-- 34 -->
     <g transform="translate(322.162019 238.347533) scale(0.1 -0.1)">
      <use xlink:href="#DejaVuSans-33"/>
      <use xlink:href="#DejaVuSans-34" x="63.623047"/>
     </g>
    </g>
   </g>
   <g id="text_36">
    <g clip-path="url(#pf4ec5262c7)">
     <!-- 35 -->
     <g transform="translate(334.364166 263.388873) scale(0.1 -0.1)">
      <use xlink:href="#DejaVuSans-33"/>
      <use xlink:href="#DejaVuSans-35" x="63.623047"/>
     </g>
    </g>
   </g>
   <g id="text_37">
    <g clip-path="url(#pf4ec5262c7)">
     <!-- 36 -->
     <g transform="translate(148.577034 261.904464) scale(0.1 -0.1)">
      <use xlink:href="#DejaVuSans-33"/>
      <use xlink:href="#DejaVuSans-36" x="63.623047"/>
     </g>
    </g>
   </g>
   <g id="text_38">
    <g clip-path="url(#pf4ec5262c7)">
     <!-- 37 -->
     <g transform="translate(148.146709 182.763266) scale(0.1 -0.1)">
      <use xlink:href="#DejaVuSans-33"/>
      <use xlink:href="#DejaVuSans-37" x="63.623047"/>
     </g>
    </g>
   </g>
   <g id="text_39">
    <g clip-path="url(#pf4ec5262c7)">
     <!-- 38 -->
     <g transform="translate(132.013713 247.203718) scale(0.1 -0.1)">
      <use xlink:href="#DejaVuSans-33"/>
      <use xlink:href="#DejaVuSans-38" x="63.623047"/>
     </g>
    </g>
   </g>
   <g id="text_40">
    <g clip-path="url(#pf4ec5262c7)">
     <!-- 39 -->
     <g transform="translate(212.249987 167.874196) scale(0.1 -0.1)">
      <use xlink:href="#DejaVuSans-33"/>
      <use xlink:href="#DejaVuSans-39" x="63.623047"/>
     </g>
    </g>
   </g>
   <g id="text_41">
    <g clip-path="url(#pf4ec5262c7)">
     <!-- 40 -->
     <g transform="translate(182.570215 118.014354) scale(0.1 -0.1)">
      <use xlink:href="#DejaVuSans-34"/>
      <use xlink:href="#DejaVuSans-30" x="63.623047"/>
     </g>
    </g>
   </g>
   <g id="text_42">
    <g clip-path="url(#pf4ec5262c7)">
     <!-- 41 -->
     <g transform="translate(238.192187 94.651114) scale(0.1 -0.1)">
      <use xlink:href="#DejaVuSans-34"/>
      <use xlink:href="#DejaVuSans-31" x="63.623047"/>
     </g>
    </g>
   </g>
   <g id="text_43">
    <g clip-path="url(#pf4ec5262c7)">
     <!-- 42 -->
     <g transform="translate(162.630264 238.997152) scale(0.1 -0.1)">
      <use xlink:href="#DejaVuSans-34"/>
      <use xlink:href="#DejaVuSans-32" x="63.623047"/>
     </g>
    </g>
   </g>
   <g id="text_44">
    <g clip-path="url(#pf4ec5262c7)">
     <!-- 43 -->
     <g transform="translate(149.23024 222.490406) scale(0.1 -0.1)">
      <use xlink:href="#DejaVuSans-34"/>
      <use xlink:href="#DejaVuSans-33" x="63.623047"/>
     </g>
    </g>
   </g>
   <g id="text_45">
    <g clip-path="url(#pf4ec5262c7)">
     <!-- 44 -->
     <g transform="translate(184.271039 196.65414) scale(0.1 -0.1)">
      <use xlink:href="#DejaVuSans-34"/>
      <use xlink:href="#DejaVuSans-34" x="63.623047"/>
     </g>
    </g>
   </g>
   <g id="text_46">
    <g clip-path="url(#pf4ec5262c7)">
     <!-- 45 -->
     <g transform="translate(140.462065 204.085178) scale(0.1 -0.1)">
      <use xlink:href="#DejaVuSans-34"/>
      <use xlink:href="#DejaVuSans-35" x="63.623047"/>
     </g>
    </g>
   </g>
   <g id="text_47">
    <g clip-path="url(#pf4ec5262c7)">
     <!-- 46 -->
     <g transform="translate(336.649682 302.427125) scale(0.1 -0.1)">
      <use xlink:href="#DejaVuSans-34"/>
      <use xlink:href="#DejaVuSans-36" x="63.623047"/>
     </g>
    </g>
   </g>
   <g id="text_48">
    <g clip-path="url(#pf4ec5262c7)">
     <!-- 47 -->
     <g transform="translate(372.696453 181.134414) scale(0.1 -0.1)">
      <use xlink:href="#DejaVuSans-34"/>
      <use xlink:href="#DejaVuSans-37" x="63.623047"/>
     </g>
    </g>
   </g>
   <g id="text_49">
    <g clip-path="url(#pf4ec5262c7)">
     <!-- 48 -->
     <g transform="translate(412.583902 272.458192) scale(0.1 -0.1)">
      <use xlink:href="#DejaVuSans-34"/>
      <use xlink:href="#DejaVuSans-38" x="63.623047"/>
     </g>
    </g>
   </g>
   <g id="text_50">
    <g clip-path="url(#pf4ec5262c7)">
     <!-- 49 -->
     <g transform="translate(363.819496 306.977214) scale(0.1 -0.1)">
      <use xlink:href="#DejaVuSans-34"/>
      <use xlink:href="#DejaVuSans-39" x="63.623047"/>
     </g>
    </g>
   </g>
   <g id="text_51">
    <g clip-path="url(#pf4ec5262c7)">
     <!-- 50 -->
     <g transform="translate(238.568732 190.318192) scale(0.1 -0.1)">
      <use xlink:href="#DejaVuSans-35"/>
      <use xlink:href="#DejaVuSans-30" x="63.623047"/>
     </g>
    </g>
   </g>
   <g id="text_52">
    <g clip-path="url(#pf4ec5262c7)">
     <!-- 51 -->
     <g transform="translate(309.491609 223.879134) scale(0.1 -0.1)">
      <use xlink:href="#DejaVuSans-35"/>
      <use xlink:href="#DejaVuSans-31" x="63.623047"/>
     </g>
    </g>
   </g>
   <g id="text_53">
    <g clip-path="url(#pf4ec5262c7)">
     <!-- 52 -->
     <g transform="translate(257.536035 133.332246) scale(0.1 -0.1)">
      <use xlink:href="#DejaVuSans-35"/>
      <use xlink:href="#DejaVuSans-32" x="63.623047"/>
     </g>
    </g>
   </g>
   <g id="text_54">
    <g clip-path="url(#pf4ec5262c7)">
     <!-- 53 -->
     <g transform="translate(414.450723 250.847955) scale(0.1 -0.1)">
      <use xlink:href="#DejaVuSans-35"/>
      <use xlink:href="#DejaVuSans-33" x="63.623047"/>
     </g>
    </g>
   </g>
   <g id="text_55">
    <g clip-path="url(#pf4ec5262c7)">
     <!-- 54 -->
     <g transform="translate(298.715618 206.970396) scale(0.1 -0.1)">
      <use xlink:href="#DejaVuSans-35"/>
      <use xlink:href="#DejaVuSans-34" x="63.623047"/>
     </g>
    </g>
   </g>
   <g id="text_56">
    <g clip-path="url(#pf4ec5262c7)">
     <!-- 55 -->
     <g transform="translate(260.528982 32.749458) scale(0.1 -0.1)">
      <use xlink:href="#DejaVuSans-35"/>
      <use xlink:href="#DejaVuSans-35" x="63.623047"/>
     </g>
    </g>
   </g>
  </g>
 </g>
 <defs>
  <clipPath id="pf4ec5262c7">
   <rect x="0" y="0" width="460.8" height="345.6"/>
  </clipPath>
 </defs>
</svg>
