<?xml version="1.0" encoding="utf-8" standalone="no"?>
<!DOCTYPE svg PUBLIC "-//W3C//DTD SVG 1.1//EN"
  "http://www.w3.org/Graphics/SVG/1.1/DTD/svg11.dtd">
<svg xmlns:xlink="http://www.w3.org/1999/xlink" width="460.8pt" height="345.6pt" viewBox="0 0 460.8 345.6" xmlns="http://www.w3.org/2000/svg" version="1.1">
 <metadata>
  <rdf:RDF xmlns:dc="http://purl.org/dc/elements/1.1/" xmlns:cc="http://creativecommons.org/ns#" xmlns:rdf="http://www.w3.org/1999/02/22-rdf-syntax-ns#">
   <cc:Work>
    <dc:type rdf:resource="http://purl.org/dc/dcmitype/StillImage"/>
    <dc:date>2023-10-10T10:56:14.798985</dc:date>
    <dc:format>image/svg+xml</dc:format>
    <dc:creator>
     <cc:Agent>
      <dc:title>Matplotlib v3.6.1, https://matplotlib.org/</dc:title>
     </cc:Agent>
    </dc:creator>
   </cc:Work>
  </rdf:RDF>
 </metadata>
 <defs>
  <style type="text/css">*{stroke-linejoin: round; stroke-linecap: butt}</style>
 </defs>
 <g id="figure_1">
  <g id="patch_1">
   <path d="M 0 345.6 
L 460.8 345.6 
L 460.8 0 
L 0 0 
z
" style="fill: #ffffff"/>
  </g>
  <g id="axes_1">
   <g id="patch_2">
    <path d="M 314.67585 59.984191 
Q 308.206995 78.835853 302.101017 96.630009 
" clip-path="url(#p1939df5b7b)" style="fill: none; stroke: #000000; stroke-linecap: round"/>
    <path d="M 305.291014 93.495696 
L 302.101017 96.630009 
L 301.507565 92.197424 
L 305.291014 93.495696 
z
" clip-path="url(#p1939df5b7b)" style="stroke: #000000; stroke-linecap: round"/>
   </g>
   <g id="patch_3">
    <path d="M 212.756812 297.428564 
Q 215.969291 277.398275 219.004721 258.471913 
" clip-path="url(#p1939df5b7b)" style="fill: none; stroke: #000000; stroke-linecap: round"/>
    <path d="M 216.396528 262.104726 
L 219.004721 258.471913 
L 220.346055 262.738156 
L 216.396528 262.104726 
z
" clip-path="url(#p1939df5b7b)" style="stroke: #000000; stroke-linecap: round"/>
   </g>
   <g id="patch_4">
    <path d="M 289.449411 58.284264 
Q 295.015864 77.969166 300.278092 96.57822 
" clip-path="url(#p1939df5b7b)" style="fill: none; stroke: #000000; stroke-linecap: round"/>
    <path d="M 301.114195 92.184938 
L 300.278092 96.57822 
L 297.265127 93.273368 
L 301.114195 92.184938 
z
" clip-path="url(#p1939df5b7b)" style="stroke: #000000; stroke-linecap: round"/>
   </g>
   <g id="patch_5">
    <path d="M 363.729152 134.664737 
Q 344.263974 133.031678 325.912917 131.492089 
" clip-path="url(#p1939df5b7b)" style="fill: none; stroke: #000000; stroke-linecap: round"/>
    <path d="M 329.731708 133.819498 
L 325.912917 131.492089 
L 330.066119 129.833502 
L 329.731708 133.819498 
z
" clip-path="url(#p1939df5b7b)" style="stroke: #000000; stroke-linecap: round"/>
   </g>
   <g id="patch_6">
    <path d="M 219.182411 257.363991 
Q 215.969932 277.394279 212.934501 296.320641 
" clip-path="url(#p1939df5b7b)" style="fill: none; stroke: #000000; stroke-linecap: round"/>
    <path d="M 215.542695 292.687828 
L 212.934501 296.320641 
L 211.593167 292.054399 
L 215.542695 292.687828 
z
" clip-path="url(#p1939df5b7b)" style="stroke: #000000; stroke-linecap: round"/>
   </g>
   <g id="patch_7">
    <path d="M 218.02965 254.183735 
Q 203.864053 241.848669 190.541625 230.247813 
" clip-path="url(#p1939df5b7b)" style="fill: none; stroke: #000000; stroke-linecap: round"/>
    <path d="M 192.24484 234.382914 
L 190.541625 230.247813 
L 194.871635 231.366302 
L 192.24484 234.382914 
z
" clip-path="url(#p1939df5b7b)" style="stroke: #000000; stroke-linecap: round"/>
   </g>
   <g id="patch_8">
    <path d="M 219.97247 253.578662 
Q 227.974751 222.55388 235.697795 192.611701 
" clip-path="url(#p1939df5b7b)" style="fill: none; stroke: #000000; stroke-linecap: round"/>
    <path d="M 232.762148 195.985419 
L 235.697795 192.611701 
L 236.635382 196.984449 
L 232.762148 195.985419 
z
" clip-path="url(#p1939df5b7b)" style="stroke: #000000; stroke-linecap: round"/>
   </g>
   <g id="patch_9">
    <path d="M 219.934162 257.337018 
Q 224.563837 276.904601 228.936093 295.384189 
" clip-path="url(#p1939df5b7b)" style="fill: none; stroke: #000000; stroke-linecap: round"/>
    <path d="M 229.961389 291.03117 
L 228.936093 295.384189 
L 226.068856 291.952141 
L 229.961389 291.03117 
z
" clip-path="url(#p1939df5b7b)" style="stroke: #000000; stroke-linecap: round"/>
   </g>
   <g id="patch_10">
    <path d="M 254.680164 218.52662 
Q 246.087716 204.908979 238.091885 192.236878 
" clip-path="url(#p1939df5b7b)" style="fill: none; stroke: #000000; stroke-linecap: round"/>
    <path d="M 238.53497 196.68701 
L 238.091885 192.236878 
L 241.917842 194.552489 
L 238.53497 196.68701 
z
" clip-path="url(#p1939df5b7b)" style="stroke: #000000; stroke-linecap: round"/>
   </g>
   <g id="patch_11">
    <path d="M 195.990801 204.242251 
Q 184.625175 212.828577 174.151631 220.740967 
" clip-path="url(#p1939df5b7b)" style="fill: none; stroke: #000000; stroke-linecap: round"/>
    <path d="M 178.548814 219.925624 
L 174.151631 220.740967 
L 176.137666 216.734015 
L 178.548814 219.925624 
z
" clip-path="url(#p1939df5b7b)" style="stroke: #000000; stroke-linecap: round"/>
   </g>
   <g id="patch_12">
    <path d="M 199.370155 202.441445 
Q 216.99877 196.363037 233.570418 190.649075 
" clip-path="url(#p1939df5b7b)" style="fill: none; stroke: #000000; stroke-linecap: round"/>
    <path d="M 229.136957 190.062196 
L 233.570418 190.649075 
L 230.440838 193.843716 
L 229.136957 190.062196 
z
" clip-path="url(#p1939df5b7b)" style="stroke: #000000; stroke-linecap: round"/>
   </g>
   <g id="patch_13">
    <path d="M 229.194104 296.474686 
Q 224.564429 276.907102 220.192173 258.427515 
" clip-path="url(#p1939df5b7b)" style="fill: none; stroke: #000000; stroke-linecap: round"/>
    <path d="M 219.166876 262.780533 
L 220.192173 258.427515 
L 223.059409 261.859563 
L 219.166876 262.780533 
z
" clip-path="url(#p1939df5b7b)" style="stroke: #000000; stroke-linecap: round"/>
   </g>
   <g id="patch_14">
    <path d="M 41.807348 267.497378 
Q 57.531284 261.840229 72.203202 256.561575 
" clip-path="url(#p1939df5b7b)" style="fill: none; stroke: #000000; stroke-linecap: round"/>
    <path d="M 67.762317 256.033811 
L 72.203202 256.561575 
L 69.116459 259.797625 
L 67.762317 256.033811 
z
" clip-path="url(#p1939df5b7b)" style="stroke: #000000; stroke-linecap: round"/>
   </g>
   <g id="patch_15">
    <path d="M 418.914384 153.792765 
Q 401.221678 150.062343 384.622953 146.562582 
" clip-path="url(#p1939df5b7b)" style="fill: none; stroke: #000000; stroke-linecap: round"/>
    <path d="M 388.124282 149.344793 
L 384.622953 146.562582 
L 388.949519 145.430845 
L 388.124282 149.344793 
z
" clip-path="url(#p1939df5b7b)" style="stroke: #000000; stroke-linecap: round"/>
   </g>
   <g id="patch_16">
    <path d="M 189.699309 229.514344 
Q 203.864905 241.849411 217.187333 253.450266 
" clip-path="url(#p1939df5b7b)" style="fill: none; stroke: #000000; stroke-linecap: round"/>
    <path d="M 215.484118 249.315165 
L 217.187333 253.450266 
L 212.857323 252.331778 
L 215.484118 249.315165 
z
" clip-path="url(#p1939df5b7b)" style="stroke: #000000; stroke-linecap: round"/>
   </g>
   <g id="patch_17">
    <path d="M 189.364487 226.667974 
Q 200.942928 210.438102 211.872057 195.118392 
" clip-path="url(#p1939df5b7b)" style="fill: none; stroke: #000000; stroke-linecap: round"/>
    <path d="M 207.920862 197.21316 
L 211.872057 195.118392 
L 211.177154 199.536209 
L 207.920862 197.21316 
z
" clip-path="url(#p1939df5b7b)" style="stroke: #000000; stroke-linecap: round"/>
   </g>
   <g id="patch_18">
    <path d="M 190.055185 227.569912 
Q 201.397445 223.358248 211.691597 219.535773 
" clip-path="url(#p1939df5b7b)" style="fill: none; stroke: #000000; stroke-linecap: round"/>
    <path d="M 207.245566 219.053263 
L 211.691597 219.535773 
L 208.637971 222.803091 
L 207.245566 219.053263 
z
" clip-path="url(#p1939df5b7b)" style="stroke: #000000; stroke-linecap: round"/>
   </g>
   <g id="patch_19">
    <path d="M 186.404645 227.614815 
Q 179.976432 225.41201 174.605877 223.571641 
" clip-path="url(#p1939df5b7b)" style="fill: none; stroke: #000000; stroke-linecap: round"/>
    <path d="M 177.741524 226.760327 
L 174.605877 223.571641 
L 179.038213 222.976335 
L 177.741524 226.760327 
z
" clip-path="url(#p1939df5b7b)" style="stroke: #000000; stroke-linecap: round"/>
   </g>
   <g id="patch_20">
    <path d="M 187.4001 229.988749 
Q 179.220737 246.976294 171.526403 262.956493 
" clip-path="url(#p1939df5b7b)" style="fill: none; stroke: #000000; stroke-linecap: round"/>
    <path d="M 175.063691 260.220147 
L 171.526403 262.956493 
L 171.459699 258.484854 
L 175.063691 260.220147 
z
" clip-path="url(#p1939df5b7b)" style="stroke: #000000; stroke-linecap: round"/>
   </g>
   <g id="patch_21">
    <path d="M 189.750105 227.0355 
Q 212.348661 208.949716 234.07431 191.562525 
" clip-path="url(#p1939df5b7b)" style="fill: none; stroke: #000000; stroke-linecap: round"/>
    <path d="M 229.70162 192.500386 
L 234.07431 191.562525 
L 232.200985 195.623394 
L 229.70162 192.500386 
z
" clip-path="url(#p1939df5b7b)" style="stroke: #000000; stroke-linecap: round"/>
   </g>
   <g id="patch_22">
    <path d="M 186.329867 228.553621 
Q 156.368217 233.412091 127.510186 238.091603 
" clip-path="url(#p1939df5b7b)" style="fill: none; stroke: #000000; stroke-linecap: round"/>
    <path d="M 131.778742 239.425554 
L 127.510186 238.091603 
L 131.13848 235.477128 
L 131.778742 239.425554 
z
" clip-path="url(#p1939df5b7b)" style="stroke: #000000; stroke-linecap: round"/>
   </g>
   <g id="patch_23">
    <path d="M 171.039556 263.967615 
Q 179.218919 246.98007 186.913253 230.999871 
" clip-path="url(#p1939df5b7b)" style="fill: none; stroke: #000000; stroke-linecap: round"/>
    <path d="M 183.375965 233.736217 
L 186.913253 230.999871 
L 186.979957 235.47151 
L 183.375965 233.736217 
z
" clip-path="url(#p1939df5b7b)" style="stroke: #000000; stroke-linecap: round"/>
   </g>
   <g id="patch_24">
    <path d="M 70.811024 314.04678 
Q 81.168425 299.88 90.86597 286.615767 
" clip-path="url(#p1939df5b7b)" style="fill: none; stroke: #000000; stroke-linecap: round"/>
    <path d="M 86.890673 288.664429 
L 90.86597 286.615767 
L 90.119721 291.025202 
L 86.890673 288.664429 
z
" clip-path="url(#p1939df5b7b)" style="stroke: #000000; stroke-linecap: round"/>
   </g>
   <g id="patch_25">
    <path d="M 283.26245 128.987052 
Q 279.488317 141.193413 276.044448 152.331633 
" clip-path="url(#p1939df5b7b)" style="fill: none; stroke: #000000; stroke-linecap: round"/>
    <path d="M 279.136782 149.100925 
L 276.044448 152.331633 
L 275.315282 147.919341 
L 279.136782 149.100925 
z
" clip-path="url(#p1939df5b7b)" style="stroke: #000000; stroke-linecap: round"/>
   </g>
   <g id="patch_26">
    <path d="M 246.37067 142.229814 
Q 272.976754 121.470071 298.701378 101.398099 
" clip-path="url(#p1939df5b7b)" style="fill: none; stroke: #000000; stroke-linecap: round"/>
    <path d="M 294.31745 102.281938 
L 298.701378 101.398099 
L 296.778093 105.435545 
L 294.31745 102.281938 
z
" clip-path="url(#p1939df5b7b)" style="stroke: #000000; stroke-linecap: round"/>
   </g>
   <g id="patch_27">
    <path d="M 243.8047 145.059158 
Q 229.243633 168.027954 215.281189 190.052476 
" clip-path="url(#p1939df5b7b)" style="fill: none; stroke: #000000; stroke-linecap: round"/>
    <path d="M 219.112051 187.744989 
L 215.281189 190.052476 
L 215.733717 185.603294 
L 219.112051 187.744989 
z
" clip-path="url(#p1939df5b7b)" style="stroke: #000000; stroke-linecap: round"/>
   </g>
   <g id="patch_28">
    <path d="M 243.002168 142.821217 
Q 209.538464 131.89172 177.137545 121.309338 
" clip-path="url(#p1939df5b7b)" style="fill: none; stroke: #000000; stroke-linecap: round"/>
    <path d="M 180.318944 124.452377 
L 177.137545 121.309338 
L 181.560816 120.650041 
L 180.318944 124.452377 
z
" clip-path="url(#p1939df5b7b)" style="stroke: #000000; stroke-linecap: round"/>
   </g>
   <g id="patch_29">
    <path d="M 244.497115 145.326877 
Q 240.652004 166.535958 237.006336 186.644939 
" clip-path="url(#p1939df5b7b)" style="fill: none; stroke: #000000; stroke-linecap: round"/>
    <path d="M 239.687807 183.065873 
L 237.006336 186.644939 
L 235.751966 182.352323 
L 239.687807 183.065873 
z
" clip-path="url(#p1939df5b7b)" style="stroke: #000000; stroke-linecap: round"/>
   </g>
   <g id="patch_30">
    <path d="M 243.763408 141.815076 
Q 234.681928 128.288219 226.223639 115.689604 
" clip-path="url(#p1939df5b7b)" style="fill: none; stroke: #000000; stroke-linecap: round"/>
    <path d="M 226.792744 120.125381 
L 226.223639 115.689604 
L 230.113724 117.895786 
L 226.792744 120.125381 
z
" clip-path="url(#p1939df5b7b)" style="stroke: #000000; stroke-linecap: round"/>
   </g>
   <g id="patch_31">
    <path d="M 246.643686 144.125368 
Q 259.990208 149.335082 272.295229 154.138253 
" clip-path="url(#p1939df5b7b)" style="fill: none; stroke: #000000; stroke-linecap: round"/>
    <path d="M 269.296288 150.820672 
L 272.295229 154.138253 
L 267.841799 154.546858 
L 269.296288 150.820672 
z
" clip-path="url(#p1939df5b7b)" style="stroke: #000000; stroke-linecap: round"/>
   </g>
   <g id="patch_32">
    <path d="M 246.704763 143.964497 
Q 275.173028 152.253328 302.567835 160.22961 
" clip-path="url(#p1939df5b7b)" style="fill: none; stroke: #000000; stroke-linecap: round"/>
    <path d="M 299.286417 157.191141 
L 302.567835 160.22961 
L 298.168209 161.031663 
L 299.286417 157.191141 
z
" clip-path="url(#p1939df5b7b)" style="stroke: #000000; stroke-linecap: round"/>
   </g>
   <g id="patch_33">
    <path d="M 338.075032 73.70602 
Q 320.385404 86.058718 303.612436 97.771311 
" clip-path="url(#p1939df5b7b)" style="fill: none; stroke: #000000; stroke-linecap: round"/>
    <path d="M 308.037033 97.120973 
L 303.612436 97.771311 
L 305.746923 93.84143 
L 308.037033 97.120973 
z
" clip-path="url(#p1939df5b7b)" style="stroke: #000000; stroke-linecap: round"/>
   </g>
   <g id="patch_34">
    <path d="M 340.323375 70.779105 
Q 347.397691 51.29453 354.09045 32.860865 
" clip-path="url(#p1939df5b7b)" style="fill: none; stroke: #000000; stroke-linecap: round"/>
    <path d="M 350.845423 35.938169 
L 354.09045 32.860865 
L 354.605277 37.303269 
L 350.845423 35.938169 
z
" clip-path="url(#p1939df5b7b)" style="stroke: #000000; stroke-linecap: round"/>
   </g>
   <g id="patch_35">
    <path d="M 341.014145 71.210689 
Q 354.718723 57.146683 367.64303 43.883413 
" clip-path="url(#p1939df5b7b)" style="fill: none; stroke: #000000; stroke-linecap: round"/>
    <path d="M 363.419048 45.352419 
L 367.64303 43.883413 
L 366.283845 48.144002 
L 363.419048 45.352419 
z
" clip-path="url(#p1939df5b7b)" style="stroke: #000000; stroke-linecap: round"/>
   </g>
   <g id="patch_36">
    <path d="M 339.129413 74.461576 
Q 331.2667 101.918803 323.711779 128.301199 
" clip-path="url(#p1939df5b7b)" style="fill: none; stroke: #000000; stroke-linecap: round"/>
    <path d="M 326.735685 125.006356 
L 323.711779 128.301199 
L 322.890248 123.905168 
L 326.735685 125.006356 
z
" clip-path="url(#p1939df5b7b)" style="stroke: #000000; stroke-linecap: round"/>
   </g>
   <g id="patch_37">
    <path d="M 328.786014 198.026707 
Q 317.661495 180.375201 307.133086 163.669555 
" clip-path="url(#p1939df5b7b)" style="fill: none; stroke: #000000; stroke-linecap: round"/>
    <path d="M 307.573788 168.119923 
L 307.133086 163.669555 
L 310.957802 165.987214 
L 307.573788 168.119923 
z
" clip-path="url(#p1939df5b7b)" style="stroke: #000000; stroke-linecap: round"/>
   </g>
   <g id="patch_38">
    <path d="M 333.036379 143.702626 
Q 331.543299 128.610508 330.160289 114.630992 
" clip-path="url(#p1939df5b7b)" style="fill: none; stroke: #000000; stroke-linecap: round"/>
    <path d="M 328.563807 118.808461 
L 330.160289 114.630992 
L 332.544375 118.414659 
L 328.563807 118.808461 
z
" clip-path="url(#p1939df5b7b)" style="stroke: #000000; stroke-linecap: round"/>
   </g>
   <g id="patch_39">
    <path d="M 331.537988 146.567694 
Q 319.367872 153.353827 308.174243 159.595465 
" clip-path="url(#p1939df5b7b)" style="fill: none; stroke: #000000; stroke-linecap: round"/>
    <path d="M 312.641849 159.394213 
L 308.174243 159.595465 
L 310.693805 155.90063 
L 312.641849 159.394213 
z
" clip-path="url(#p1939df5b7b)" style="stroke: #000000; stroke-linecap: round"/>
   </g>
   <g id="patch_40">
    <path d="M 162.206489 181.300966 
Q 147.189548 174.368372 133.187693 167.904393 
" clip-path="url(#p1939df5b7b)" style="fill: none; stroke: #000000; stroke-linecap: round"/>
    <path d="M 135.981088 171.396805 
L 133.187693 167.904393 
L 137.65766 167.765124 
L 135.981088 171.396805 
z
" clip-path="url(#p1939df5b7b)" style="stroke: #000000; stroke-linecap: round"/>
   </g>
   <g id="patch_41">
    <path d="M 164.281141 180.201143 
Q 169.097799 151.235871 173.731056 123.373488 
" clip-path="url(#p1939df5b7b)" style="fill: none; stroke: #000000; stroke-linecap: round"/>
    <path d="M 171.101995 126.991227 
L 173.731056 123.373488 
L 175.047811 127.64738 
L 171.101995 126.991227 
z
" clip-path="url(#p1939df5b7b)" style="stroke: #000000; stroke-linecap: round"/>
   </g>
   <g id="patch_42">
    <path d="M 165.888213 182.312234 
Q 200.211949 185.882166 233.423649 189.336437 
" clip-path="url(#p1939df5b7b)" style="fill: none; stroke: #000000; stroke-linecap: round"/>
    <path d="M 229.65201 186.93337 
L 233.423649 189.336437 
L 229.238211 190.911908 
L 229.65201 186.93337 
z
" clip-path="url(#p1939df5b7b)" style="stroke: #000000; stroke-linecap: round"/>
   </g>
   <g id="patch_43">
    <path d="M 162.852792 183.700911 
Q 144.226631 210.3487 126.24099 236.080119 
" clip-path="url(#p1939df5b7b)" style="fill: none; stroke: #000000; stroke-linecap: round"/>
    <path d="M 130.171837 233.947413 
L 126.24099 236.080119 
L 126.893333 231.655817 
L 130.171837 233.947413 
z
" clip-path="url(#p1939df5b7b)" style="stroke: #000000; stroke-linecap: round"/>
   </g>
   <g id="patch_44">
    <path d="M 162.034469 182.271973 
Q 146.444397 183.564628 131.968536 184.764897 
" clip-path="url(#p1939df5b7b)" style="fill: none; stroke: #000000; stroke-linecap: round"/>
    <path d="M 136.12012 186.427531 
L 131.968536 184.764897 
L 135.789593 182.44121 
L 136.12012 186.427531 
z
" clip-path="url(#p1939df5b7b)" style="stroke: #000000; stroke-linecap: round"/>
   </g>
   <g id="patch_45">
    <path d="M 102.884991 260.552132 
Q 113.009806 250.257118 122.350668 240.759235 
" clip-path="url(#p1939df5b7b)" style="fill: none; stroke: #000000; stroke-linecap: round"/>
    <path d="M 118.119962 242.20876 
L 122.350668 240.759235 
L 120.971865 245.013515 
L 118.119962 242.20876 
z
" clip-path="url(#p1939df5b7b)" style="stroke: #000000; stroke-linecap: round"/>
   </g>
   <g id="patch_46">
    <path d="M 91.527753 285.710586 
Q 81.170352 299.877365 71.472807 313.141598 
" clip-path="url(#p1939df5b7b)" style="fill: none; stroke: #000000; stroke-linecap: round"/>
    <path d="M 75.448104 311.092936 
L 71.472807 313.141598 
L 72.219056 308.732163 
L 75.448104 311.092936 
z
" clip-path="url(#p1939df5b7b)" style="stroke: #000000; stroke-linecap: round"/>
   </g>
   <g id="patch_47">
    <path d="M 93.779617 282.559403 
Q 108.582384 261.36332 122.745001 241.083866 
" clip-path="url(#p1939df5b7b)" style="fill: none; stroke: #000000; stroke-linecap: round"/>
    <path d="M 118.815018 243.218166 
L 122.745001 241.083866 
L 122.094451 245.508432 
L 118.815018 243.218166 
z
" clip-path="url(#p1939df5b7b)" style="stroke: #000000; stroke-linecap: round"/>
   </g>
   <g id="patch_48">
    <path d="M 126.403431 238.27107 
Q 156.365081 233.4126 185.223112 228.733089 
" clip-path="url(#p1939df5b7b)" style="fill: none; stroke: #000000; stroke-linecap: round"/>
    <path d="M 180.954555 227.399138 
L 185.223112 228.733089 
L 181.594817 231.347563 
L 180.954555 227.399138 
z
" clip-path="url(#p1939df5b7b)" style="stroke: #000000; stroke-linecap: round"/>
   </g>
   <g id="patch_49">
    <path d="M 125.603622 236.991978 
Q 144.229784 210.344189 162.215425 184.61277 
" clip-path="url(#p1939df5b7b)" style="fill: none; stroke: #000000; stroke-linecap: round"/>
    <path d="M 158.284578 186.745477 
L 162.215425 184.61277 
L 161.563082 189.037072 
L 158.284578 186.745477 
z
" clip-path="url(#p1939df5b7b)" style="stroke: #000000; stroke-linecap: round"/>
   </g>
   <g id="patch_50">
    <path d="M 123.133247 239.963501 
Q 113.008432 250.258515 103.667569 259.756398 
" clip-path="url(#p1939df5b7b)" style="fill: none; stroke: #000000; stroke-linecap: round"/>
    <path d="M 107.898276 258.306872 
L 103.667569 259.756398 
L 105.046373 255.502117 
L 107.898276 258.306872 
z
" clip-path="url(#p1939df5b7b)" style="stroke: #000000; stroke-linecap: round"/>
   </g>
   <g id="patch_51">
    <path d="M 123.38399 240.168897 
Q 108.581224 261.36498 94.418607 281.644434 
" clip-path="url(#p1939df5b7b)" style="fill: none; stroke: #000000; stroke-linecap: round"/>
    <path d="M 98.34859 279.510134 
L 94.418607 281.644434 
L 95.069157 277.219868 
L 98.34859 279.510134 
z
" clip-path="url(#p1939df5b7b)" style="stroke: #000000; stroke-linecap: round"/>
   </g>
   <g id="patch_52">
    <path d="M 122.662322 239.208679 
Q 99.786865 247.053599 77.96898 254.535834 
" clip-path="url(#p1939df5b7b)" style="fill: none; stroke: #000000; stroke-linecap: round"/>
    <path d="M 82.401457 255.130098 
L 77.96898 254.535834 
L 81.103877 251.346411 
L 82.401457 255.130098 
z
" clip-path="url(#p1939df5b7b)" style="stroke: #000000; stroke-linecap: round"/>
   </g>
   <g id="patch_53">
    <path d="M 122.558452 238.517776 
Q 107.742222 238.034699 94.043433 237.588055 
" clip-path="url(#p1939df5b7b)" style="fill: none; stroke: #000000; stroke-linecap: round"/>
    <path d="M 97.976134 239.717342 
L 94.043433 237.588055 
L 98.106483 235.719466 
L 97.976134 239.717342 
z
" clip-path="url(#p1939df5b7b)" style="stroke: #000000; stroke-linecap: round"/>
   </g>
   <g id="patch_54">
    <path d="M 73.258244 256.181992 
Q 57.534308 261.839141 42.86239 267.117795 
" clip-path="url(#p1939df5b7b)" style="fill: none; stroke: #000000; stroke-linecap: round"/>
    <path d="M 47.303275 267.64556 
L 42.86239 267.117795 
L 45.949132 263.881745 
L 47.303275 267.64556 
z
" clip-path="url(#p1939df5b7b)" style="stroke: #000000; stroke-linecap: round"/>
   </g>
   <g id="patch_55">
    <path d="M 76.90953 254.899162 
Q 99.784987 247.054242 121.602872 239.572007 
" clip-path="url(#p1939df5b7b)" style="fill: none; stroke: #000000; stroke-linecap: round"/>
    <path d="M 117.170395 238.977743 
L 121.602872 239.572007 
L 118.467975 242.76143 
L 117.170395 238.977743 
z
" clip-path="url(#p1939df5b7b)" style="stroke: #000000; stroke-linecap: round"/>
   </g>
   <g id="patch_56">
    <path d="M 92.922078 237.551493 
Q 107.738308 238.034571 121.437097 238.481215 
" clip-path="url(#p1939df5b7b)" style="fill: none; stroke: #000000; stroke-linecap: round"/>
    <path d="M 117.504396 236.351928 
L 121.437097 238.481215 
L 117.374047 240.349803 
L 117.504396 236.351928 
z
" clip-path="url(#p1939df5b7b)" style="stroke: #000000; stroke-linecap: round"/>
   </g>
   <g id="patch_57">
    <path d="M 356.538682 152.394889 
Q 340.524802 142.331152 325.457547 132.86231 
" clip-path="url(#p1939df5b7b)" style="fill: none; stroke: #000000; stroke-linecap: round"/>
    <path d="M 327.780115 136.684048 
L 325.457547 132.86231 
L 329.908478 133.297299 
L 327.780115 136.684048 
z
" clip-path="url(#p1939df5b7b)" style="stroke: #000000; stroke-linecap: round"/>
   </g>
   <g id="patch_58">
    <path d="M 356.513947 123.125893 
Q 340.635036 126.954162 325.843017 130.52039 
" clip-path="url(#p1939df5b7b)" style="fill: none; stroke: #000000; stroke-linecap: round"/>
    <path d="M 330.200353 131.527178 
L 325.843017 130.52039 
L 329.262849 127.638594 
L 330.200353 131.527178 
z
" clip-path="url(#p1939df5b7b)" style="stroke: #000000; stroke-linecap: round"/>
   </g>
   <g id="patch_59">
    <path d="M 242.526359 225.968823 
Q 239.653286 208.765936 236.964385 192.665809 
" clip-path="url(#p1939df5b7b)" style="fill: none; stroke: #000000; stroke-linecap: round"/>
    <path d="M 235.650626 196.940624 
L 236.964385 192.665809 
L 239.595981 196.281705 
L 235.650626 196.940624 
z
" clip-path="url(#p1939df5b7b)" style="stroke: #000000; stroke-linecap: round"/>
   </g>
   <g id="patch_60">
    <path d="M 275.714147 153.399897 
Q 279.488279 141.193536 282.932149 130.055316 
" clip-path="url(#p1939df5b7b)" style="fill: none; stroke: #000000; stroke-linecap: round"/>
    <path d="M 279.839815 133.286024 
L 282.932149 130.055316 
L 283.661314 134.467608 
L 279.839815 133.286024 
z
" clip-path="url(#p1939df5b7b)" style="stroke: #000000; stroke-linecap: round"/>
   </g>
   <g id="patch_61">
    <path d="M 273.34097 154.54645 
Q 259.994448 149.336737 247.689427 144.533565 
" clip-path="url(#p1939df5b7b)" style="fill: none; stroke: #000000; stroke-linecap: round"/>
    <path d="M 250.688369 147.851146 
L 247.689427 144.533565 
L 252.142857 144.12496 
L 250.688369 147.851146 
z
" clip-path="url(#p1939df5b7b)" style="stroke: #000000; stroke-linecap: round"/>
   </g>
   <g id="patch_62">
    <path d="M 273.43391 154.343504 
Q 269.92765 152.483866 267.409102 151.148088 
" clip-path="url(#p1939df5b7b)" style="fill: none; stroke: #000000; stroke-linecap: round"/>
    <path d="M 270.005736 154.789171 
L 267.409102 151.148088 
L 271.87995 151.25543 
L 270.005736 154.789171 
z
" clip-path="url(#p1939df5b7b)" style="stroke: #000000; stroke-linecap: round"/>
   </g>
   <g id="patch_63">
    <path d="M 276.484351 156.650541 
Q 287.01779 167.646005 296.777803 177.834119 
" clip-path="url(#p1939df5b7b)" style="fill: none; stroke: #000000; stroke-linecap: round"/>
    <path d="M 295.454944 173.562112 
L 296.777803 177.834119 
L 292.566482 176.329202 
L 295.454944 173.562112 
z
" clip-path="url(#p1939df5b7b)" style="stroke: #000000; stroke-linecap: round"/>
   </g>
   <g id="patch_64">
    <path d="M 297.546481 178.636513 
Q 287.013043 167.64105 277.253029 157.452935 
" clip-path="url(#p1939df5b7b)" style="fill: none; stroke: #000000; stroke-linecap: round"/>
    <path d="M 278.575888 161.724942 
L 277.253029 157.452935 
L 281.46435 158.957852 
L 278.575888 161.724942 
z
" clip-path="url(#p1939df5b7b)" style="stroke: #000000; stroke-linecap: round"/>
   </g>
   <g id="patch_65">
    <path d="M 336.777711 185.03869 
Q 321.910047 173.650787 307.929969 162.942731 
" clip-path="url(#p1939df5b7b)" style="fill: none; stroke: #000000; stroke-linecap: round"/>
    <path d="M 309.889344 166.962787 
L 307.929969 162.942731 
L 312.321638 163.787265 
L 309.889344 166.962787 
z
" clip-path="url(#p1939df5b7b)" style="stroke: #000000; stroke-linecap: round"/>
   </g>
   <g id="patch_66">
    <path d="M 314.9367 202.098553 
Q 310.437058 182.534005 306.188009 164.059046 
" clip-path="url(#p1939df5b7b)" style="fill: none; stroke: #000000; stroke-linecap: round"/>
    <path d="M 305.135447 168.405552 
L 306.188009 164.059046 
L 309.033676 167.509 
L 305.135447 168.405552 
z
" clip-path="url(#p1939df5b7b)" style="stroke: #000000; stroke-linecap: round"/>
   </g>
   <g id="patch_67">
    <path d="M 303.641539 160.54223 
Q 275.173274 152.2534 247.778467 144.277117 
" clip-path="url(#p1939df5b7b)" style="fill: none; stroke: #000000; stroke-linecap: round"/>
    <path d="M 251.059886 147.315586 
L 247.778467 144.277117 
L 252.178094 143.475064 
L 251.059886 147.315586 
z
" clip-path="url(#p1939df5b7b)" style="stroke: #000000; stroke-linecap: round"/>
   </g>
   <g id="patch_68">
    <path d="M 306.535253 162.72096 
Q 317.659772 180.372467 328.18818 197.078113 
" clip-path="url(#p1939df5b7b)" style="fill: none; stroke: #000000; stroke-linecap: round"/>
    <path d="M 327.747478 192.627744 
L 328.18818 197.078113 
L 324.363464 194.760453 
L 327.747478 192.627744 
z
" clip-path="url(#p1939df5b7b)" style="stroke: #000000; stroke-linecap: round"/>
   </g>
   <g id="patch_69">
    <path d="M 307.192568 160.142854 
Q 319.362684 153.356721 330.556313 147.115083 
" clip-path="url(#p1939df5b7b)" style="fill: none; stroke: #000000; stroke-linecap: round"/>
    <path d="M 326.088707 147.316335 
L 330.556313 147.115083 
L 328.036751 150.809918 
L 326.088707 147.316335 
z
" clip-path="url(#p1939df5b7b)" style="stroke: #000000; stroke-linecap: round"/>
   </g>
   <g id="patch_70">
    <path d="M 307.039844 162.260939 
Q 321.907508 173.648842 335.887586 184.356898 
" clip-path="url(#p1939df5b7b)" style="fill: none; stroke: #000000; stroke-linecap: round"/>
    <path d="M 333.928211 180.336843 
L 335.887586 184.356898 
L 331.495917 183.512365 
L 333.928211 180.336843 
z
" clip-path="url(#p1939df5b7b)" style="stroke: #000000; stroke-linecap: round"/>
   </g>
   <g id="patch_71">
    <path d="M 305.9381 162.972435 
Q 310.437742 182.536982 314.686791 201.011941 
" clip-path="url(#p1939df5b7b)" style="fill: none; stroke: #000000; stroke-linecap: round"/>
    <path d="M 315.739354 196.665436 
L 314.686791 201.011941 
L 311.841124 197.561988 
L 315.739354 196.665436 
z
" clip-path="url(#p1939df5b7b)" style="stroke: #000000; stroke-linecap: round"/>
   </g>
   <g id="patch_72">
    <path d="M 305.365764 159.149278 
Q 303.30669 130.300434 301.327212 102.566787 
" clip-path="url(#p1939df5b7b)" style="fill: none; stroke: #000000; stroke-linecap: round"/>
    <path d="M 299.617061 106.699024 
L 301.327212 102.566787 
L 303.606911 106.41425 
L 299.617061 106.699024 
z
" clip-path="url(#p1939df5b7b)" style="stroke: #000000; stroke-linecap: round"/>
   </g>
   <g id="patch_73">
    <path d="M 301.737781 97.688561 
Q 308.206636 78.836898 314.312614 61.042742 
" clip-path="url(#p1939df5b7b)" style="fill: none; stroke: #000000; stroke-linecap: round"/>
    <path d="M 311.122617 64.177055 
L 314.312614 61.042742 
L 314.906066 65.475327 
L 311.122617 64.177055 
z
" clip-path="url(#p1939df5b7b)" style="stroke: #000000; stroke-linecap: round"/>
   </g>
   <g id="patch_74">
    <path d="M 300.582268 97.653894 
Q 295.015815 77.968992 289.753588 59.359938 
" clip-path="url(#p1939df5b7b)" style="fill: none; stroke: #000000; stroke-linecap: round"/>
    <path d="M 288.917485 63.75322 
L 289.753588 59.359938 
L 292.766552 62.66479 
L 288.917485 63.75322 
z
" clip-path="url(#p1939df5b7b)" style="stroke: #000000; stroke-linecap: round"/>
   </g>
   <g id="patch_75">
    <path d="M 299.581422 100.711433 
Q 272.975337 121.471176 247.250713 141.543149 
" clip-path="url(#p1939df5b7b)" style="fill: none; stroke: #000000; stroke-linecap: round"/>
    <path d="M 251.634641 140.659309 
L 247.250713 141.543149 
L 249.173999 137.505703 
L 251.634641 140.659309 
z
" clip-path="url(#p1939df5b7b)" style="stroke: #000000; stroke-linecap: round"/>
   </g>
   <g id="patch_76">
    <path d="M 302.698041 98.409835 
Q 320.387669 86.057137 337.160638 74.344544 
" clip-path="url(#p1939df5b7b)" style="fill: none; stroke: #000000; stroke-linecap: round"/>
    <path d="M 332.736041 74.994882 
L 337.160638 74.344544 
L 335.026151 78.274425 
L 332.736041 74.994882 
z
" clip-path="url(#p1939df5b7b)" style="stroke: #000000; stroke-linecap: round"/>
   </g>
   <g id="patch_77">
    <path d="M 301.247801 101.454187 
Q 303.306875 130.303031 305.286353 158.036678 
" clip-path="url(#p1939df5b7b)" style="fill: none; stroke: #000000; stroke-linecap: round"/>
    <path d="M 306.996504 153.90444 
L 305.286353 158.036678 
L 303.006654 154.189214 
L 306.996504 153.90444 
z
" clip-path="url(#p1939df5b7b)" style="stroke: #000000; stroke-linecap: round"/>
   </g>
   <g id="patch_78">
    <path d="M 302.20678 101.118051 
Q 311.9903 115.377808 321.141302 128.715652 
" clip-path="url(#p1939df5b7b)" style="fill: none; stroke: #000000; stroke-linecap: round"/>
    <path d="M 320.527505 124.285837 
L 321.141302 128.715652 
L 317.229172 126.548801 
L 320.527505 124.285837 
z
" clip-path="url(#p1939df5b7b)" style="stroke: #000000; stroke-linecap: round"/>
   </g>
   <g id="patch_79">
    <path d="M 301.155964 97.584562 
Q 301.681592 75.61731 302.180475 54.767773 
" clip-path="url(#p1939df5b7b)" style="fill: none; stroke: #000000; stroke-linecap: round"/>
    <path d="M 300.085364 58.718786 
L 302.180475 54.767773 
L 304.084219 58.81447 
L 300.085364 58.718786 
z
" clip-path="url(#p1939df5b7b)" style="stroke: #000000; stroke-linecap: round"/>
   </g>
   <g id="patch_80">
    <path d="M 302.896033 100.269252 
Q 315.484293 105.556256 327.041745 110.410325 
" clip-path="url(#p1939df5b7b)" style="fill: none; stroke: #000000; stroke-linecap: round"/>
    <path d="M 324.128266 107.017444 
L 327.041745 110.410325 
L 322.579352 110.705379 
L 324.128266 107.017444 
z
" clip-path="url(#p1939df5b7b)" style="stroke: #000000; stroke-linecap: round"/>
   </g>
   <g id="patch_81">
    <path d="M 354.472775 31.80784 
Q 347.398458 51.292416 340.705699 69.72608 
" clip-path="url(#p1939df5b7b)" style="fill: none; stroke: #000000; stroke-linecap: round"/>
    <path d="M 343.950726 66.648776 
L 340.705699 69.72608 
L 340.190872 65.283676 
L 343.950726 66.648776 
z
" clip-path="url(#p1939df5b7b)" style="stroke: #000000; stroke-linecap: round"/>
   </g>
   <g id="patch_82">
    <path d="M 324.801059 131.398808 
Q 344.266236 133.031867 362.617294 134.571456 
" clip-path="url(#p1939df5b7b)" style="fill: none; stroke: #000000; stroke-linecap: round"/>
    <path d="M 358.798503 132.244047 
L 362.617294 134.571456 
L 358.464092 136.230044 
L 358.798503 132.244047 
z
" clip-path="url(#p1939df5b7b)" style="stroke: #000000; stroke-linecap: round"/>
   </g>
   <g id="patch_83">
    <path d="M 323.40509 129.372179 
Q 331.267803 101.914951 338.822725 75.532556 
" clip-path="url(#p1939df5b7b)" style="fill: none; stroke: #000000; stroke-linecap: round"/>
    <path d="M 335.798819 78.827399 
L 338.822725 75.532556 
L 339.644256 79.928587 
L 335.798819 78.827399 
z
" clip-path="url(#p1939df5b7b)" style="stroke: #000000; stroke-linecap: round"/>
   </g>
   <g id="patch_84">
    <path d="M 324.511063 132.267503 
Q 340.524943 142.33124 355.592197 151.800082 
" clip-path="url(#p1939df5b7b)" style="fill: none; stroke: #000000; stroke-linecap: round"/>
    <path d="M 353.26963 147.978344 
L 355.592197 151.800082 
L 351.141267 151.365093 
L 353.26963 147.978344 
z
" clip-path="url(#p1939df5b7b)" style="stroke: #000000; stroke-linecap: round"/>
   </g>
   <g id="patch_85">
    <path d="M 324.757743 130.78204 
Q 340.636654 126.953772 355.428673 123.387543 
" clip-path="url(#p1939df5b7b)" style="fill: none; stroke: #000000; stroke-linecap: round"/>
    <path d="M 351.071337 122.380755 
L 355.428673 123.387543 
L 352.008841 126.269339 
L 351.071337 122.380755 
z
" clip-path="url(#p1939df5b7b)" style="stroke: #000000; stroke-linecap: round"/>
   </g>
   <g id="patch_86">
    <path d="M 321.774004 129.637833 
Q 311.990484 115.378076 302.839482 102.040232 
" clip-path="url(#p1939df5b7b)" style="fill: none; stroke: #000000; stroke-linecap: round"/>
    <path d="M 303.453279 106.470047 
L 302.839482 102.040232 
L 306.751612 104.207083 
L 303.453279 106.470047 
z
" clip-path="url(#p1939df5b7b)" style="stroke: #000000; stroke-linecap: round"/>
   </g>
   <g id="patch_87">
    <path d="M 321.056775 131.911251 
Q 309.80977 136.091592 299.610751 139.882412 
" clip-path="url(#p1939df5b7b)" style="fill: none; stroke: #000000; stroke-linecap: round"/>
    <path d="M 304.056933 140.363516 
L 299.610751 139.882412 
L 302.663343 136.614128 
L 304.056933 140.363516 
z
" clip-path="url(#p1939df5b7b)" style="stroke: #000000; stroke-linecap: round"/>
   </g>
   <g id="patch_88">
    <path d="M 321.164822 130.3237 
Q 302.988468 120.595848 285.797853 111.395555 
" clip-path="url(#p1939df5b7b)" style="fill: none; stroke: #000000; stroke-linecap: round"/>
    <path d="M 288.38081 115.046354 
L 285.797853 111.395555 
L 290.268266 111.519669 
L 288.38081 115.046354 
z
" clip-path="url(#p1939df5b7b)" style="stroke: #000000; stroke-linecap: round"/>
   </g>
   <g id="patch_89">
    <path d="M 324.523465 130.228885 
Q 342.923449 119.004131 360.36898 108.361633 
" clip-path="url(#p1939df5b7b)" style="fill: none; stroke: #000000; stroke-linecap: round"/>
    <path d="M 355.912659 108.737397 
L 360.36898 108.361633 
L 357.995799 112.152149 
L 355.912659 108.737397 
z
" clip-path="url(#p1939df5b7b)" style="stroke: #000000; stroke-linecap: round"/>
   </g>
   <g id="patch_90">
    <path d="M 324.073263 129.721603 
Q 334.402099 116.70235 344.036062 104.558968 
" clip-path="url(#p1939df5b7b)" style="fill: none; stroke: #000000; stroke-linecap: round"/>
    <path d="M 339.983201 106.449553 
L 344.036062 104.558968 
L 343.116814 108.935608 
L 339.983201 106.449553 
z
" clip-path="url(#p1939df5b7b)" style="stroke: #000000; stroke-linecap: round"/>
   </g>
   <g id="patch_91">
    <path d="M 321.265159 132.322555 
Q 279.664123 160.445965 238.989325 187.943212 
" clip-path="url(#p1939df5b7b)" style="fill: none; stroke: #000000; stroke-linecap: round"/>
    <path d="M 243.423256 187.359892 
L 238.989325 187.943212 
L 241.183028 184.046075 
L 243.423256 187.359892 
z
" clip-path="url(#p1939df5b7b)" style="stroke: #000000; stroke-linecap: round"/>
   </g>
   <g id="patch_92">
    <path d="M 323.520328 129.412146 
Q 326.365828 121.414383 328.83656 114.469971 
" clip-path="url(#p1939df5b7b)" style="fill: none; stroke: #000000; stroke-linecap: round"/>
    <path d="M 325.611455 117.568148 
L 328.83656 114.469971 
L 329.380038 118.908961 
L 325.611455 117.568148 
z
" clip-path="url(#p1939df5b7b)" style="stroke: #000000; stroke-linecap: round"/>
   </g>
   <g id="patch_93">
    <path d="M 324.746809 131.705973 
Q 352.249809 138.584004 378.668178 145.190787 
" clip-path="url(#p1939df5b7b)" style="fill: none; stroke: #000000; stroke-linecap: round"/>
    <path d="M 375.272906 142.280094 
L 378.668178 145.190787 
L 374.302461 146.160589 
L 375.272906 142.280094 
z
" clip-path="url(#p1939df5b7b)" style="stroke: #000000; stroke-linecap: round"/>
   </g>
   <g id="patch_94">
    <path d="M 344.732321 103.68135 
Q 334.403485 116.700603 324.769522 128.843985 
" clip-path="url(#p1939df5b7b)" style="fill: none; stroke: #000000; stroke-linecap: round"/>
    <path d="M 328.822383 126.9534 
L 324.769522 128.843985 
L 325.68877 124.467345 
L 328.822383 126.9534 
z
" clip-path="url(#p1939df5b7b)" style="stroke: #000000; stroke-linecap: round"/>
   </g>
   <g id="patch_95">
    <path d="M 344.266575 103.144292 
Q 337.898553 106.879161 332.494932 110.048405 
" clip-path="url(#p1939df5b7b)" style="fill: none; stroke: #000000; stroke-linecap: round"/>
    <path d="M 336.957097 109.749937 
L 332.494932 110.048405 
L 334.933457 106.299593 
L 336.957097 109.749937 
z
" clip-path="url(#p1939df5b7b)" style="stroke: #000000; stroke-linecap: round"/>
   </g>
   <g id="patch_96">
    <path d="M 298.564164 140.271413 
Q 309.81117 136.091072 320.010189 132.300251 
" clip-path="url(#p1939df5b7b)" style="fill: none; stroke: #000000; stroke-linecap: round"/>
    <path d="M 315.564007 131.819148 
L 320.010189 132.300251 
L 316.957597 135.568535 
L 315.564007 131.819148 
z
" clip-path="url(#p1939df5b7b)" style="stroke: #000000; stroke-linecap: round"/>
   </g>
   <g id="patch_97">
    <path d="M 294.884467 141.456597 
Q 280.732869 145.331973 267.659602 148.91205 
" clip-path="url(#p1939df5b7b)" style="fill: none; stroke: #000000; stroke-linecap: round"/>
    <path d="M 272.045804 149.784538 
L 267.659602 148.91205 
L 270.989313 145.926582 
L 272.045804 149.784538 
z
" clip-path="url(#p1939df5b7b)" style="stroke: #000000; stroke-linecap: round"/>
   </g>
   <g id="patch_98">
    <path d="M 284.810991 110.867394 
Q 302.987345 120.595246 320.17796 129.795539 
" clip-path="url(#p1939df5b7b)" style="fill: none; stroke: #000000; stroke-linecap: round"/>
    <path d="M 317.595003 126.14474 
L 320.17796 129.795539 
L 315.707546 129.671425 
L 317.595003 126.14474 
z
" clip-path="url(#p1939df5b7b)" style="stroke: #000000; stroke-linecap: round"/>
   </g>
   <g id="patch_99">
    <path d="M 282.290909 111.7138 
Q 273.908528 129.838262 265.995465 146.947961 
" clip-path="url(#p1939df5b7b)" style="fill: none; stroke: #000000; stroke-linecap: round"/>
    <path d="M 269.489806 144.156979 
L 265.995465 146.947961 
L 265.859284 142.477899 
L 269.489806 144.156979 
z
" clip-path="url(#p1939df5b7b)" style="stroke: #000000; stroke-linecap: round"/>
   </g>
   <g id="patch_100">
    <path d="M 282.347689 108.174367 
Q 274.912684 90.693793 267.915275 74.242059 
" clip-path="url(#p1939df5b7b)" style="fill: none; stroke: #000000; stroke-linecap: round"/>
    <path d="M 267.640421 78.70574 
L 267.915275 74.242059 
L 271.321308 77.14015 
L 267.640421 78.70574 
z
" clip-path="url(#p1939df5b7b)" style="stroke: #000000; stroke-linecap: round"/>
   </g>
   <g id="patch_101">
    <path d="M 130.85544 184.85719 
Q 146.445512 183.564535 160.921373 182.364265 
" clip-path="url(#p1939df5b7b)" style="fill: none; stroke: #000000; stroke-linecap: round"/>
    <path d="M 156.769789 180.701632 
L 160.921373 182.364265 
L 157.100316 184.687952 
L 156.769789 180.701632 
z
" clip-path="url(#p1939df5b7b)" style="stroke: #000000; stroke-linecap: round"/>
   </g>
   <g id="patch_102">
    <path d="M 164.885051 82.389322 
Q 169.327526 100.436244 173.50276 117.397541 
" clip-path="url(#p1939df5b7b)" style="fill: none; stroke: #000000; stroke-linecap: round"/>
    <path d="M 174.488678 113.035436 
L 173.50276 117.397541 
L 170.604627 113.991544 
L 174.488678 113.035436 
z
" clip-path="url(#p1939df5b7b)" style="stroke: #000000; stroke-linecap: round"/>
   </g>
   <g id="patch_103">
    <path d="M 132.171472 167.435253 
Q 147.188413 174.367848 161.190268 180.831826 
" clip-path="url(#p1939df5b7b)" style="fill: none; stroke: #000000; stroke-linecap: round"/>
    <path d="M 158.396872 177.339414 
L 161.190268 180.831826 
L 156.720301 180.971095 
L 158.396872 177.339414 
z
" clip-path="url(#p1939df5b7b)" style="stroke: #000000; stroke-linecap: round"/>
   </g>
   <g id="patch_104">
    <path d="M 212.74014 219.146422 
Q 201.39788 223.358086 191.103729 227.180562 
" clip-path="url(#p1939df5b7b)" style="fill: none; stroke: #000000; stroke-linecap: round"/>
    <path d="M 195.549759 227.663071 
L 191.103729 227.180562 
L 194.157354 223.913243 
L 195.549759 227.663071 
z
" clip-path="url(#p1939df5b7b)" style="stroke: #000000; stroke-linecap: round"/>
   </g>
   <g id="patch_105">
    <path d="M 215.728985 216.928057 
Q 225.50917 204.060998 234.612798 192.084035 
" clip-path="url(#p1939df5b7b)" style="fill: none; stroke: #000000; stroke-linecap: round"/>
    <path d="M 230.600022 194.058276 
L 234.612798 192.084035 
L 233.784525 196.478801 
L 230.600022 194.058276 
z
" clip-path="url(#p1939df5b7b)" style="stroke: #000000; stroke-linecap: round"/>
   </g>
   <g id="patch_106">
    <path d="M 173.263417 221.411981 
Q 184.629042 212.825655 195.102586 204.913265 
" clip-path="url(#p1939df5b7b)" style="fill: none; stroke: #000000; stroke-linecap: round"/>
    <path d="M 190.705404 205.728608 
L 195.102586 204.913265 
L 193.116551 208.920217 
L 190.705404 205.728608 
z
" clip-path="url(#p1939df5b7b)" style="stroke: #000000; stroke-linecap: round"/>
   </g>
   <g id="patch_107">
    <path d="M 173.5513 223.210262 
Q 179.979513 225.413066 185.350068 227.253435 
" clip-path="url(#p1939df5b7b)" style="fill: none; stroke: #000000; stroke-linecap: round"/>
    <path d="M 182.214421 224.06475 
L 185.350068 227.253435 
L 180.917732 227.848742 
L 182.214421 224.06475 
z
" clip-path="url(#p1939df5b7b)" style="stroke: #000000; stroke-linecap: round"/>
   </g>
   <g id="patch_108">
    <path d="M 212.522011 194.207331 
Q 200.94357 210.437203 190.014441 225.756913 
" clip-path="url(#p1939df5b7b)" style="fill: none; stroke: #000000; stroke-linecap: round"/>
    <path d="M 193.965637 223.662145 
L 190.014441 225.756913 
L 190.709344 221.339096 
L 193.965637 223.662145 
z
" clip-path="url(#p1939df5b7b)" style="stroke: #000000; stroke-linecap: round"/>
   </g>
   <g id="patch_109">
    <path d="M 214.683953 190.994563 
Q 229.245019 168.025768 243.207464 146.001246 
" clip-path="url(#p1939df5b7b)" style="fill: none; stroke: #000000; stroke-linecap: round"/>
    <path d="M 239.376601 148.308733 
L 243.207464 146.001246 
L 242.754936 150.450428 
L 239.376601 148.308733 
z
" clip-path="url(#p1939df5b7b)" style="stroke: #000000; stroke-linecap: round"/>
   </g>
   <g id="patch_110">
    <path d="M 213.210604 194.519152 
Q 209.059527 212.506565 205.159859 229.404578 
" clip-path="url(#p1939df5b7b)" style="fill: none; stroke: #000000; stroke-linecap: round"/>
    <path d="M 208.008104 225.956753 
L 205.159859 229.404578 
L 204.110545 225.057287 
L 208.008104 225.956753 
z
" clip-path="url(#p1939df5b7b)" style="stroke: #000000; stroke-linecap: round"/>
   </g>
   <g id="patch_111">
    <path d="M 151.081612 85.045488 
Q 162.126279 101.893571 172.557991 117.806623 
" clip-path="url(#p1939df5b7b)" style="fill: none; stroke: #000000; stroke-linecap: round"/>
    <path d="M 172.037652 113.364861 
L 172.557991 117.806623 
L 168.692378 115.557837 
L 172.037652 113.364861 
z
" clip-path="url(#p1939df5b7b)" style="stroke: #000000; stroke-linecap: round"/>
   </g>
   <g id="patch_112">
    <path d="M 145.895921 97.984364 
Q 159.304761 108.572828 171.836156 118.468407 
" clip-path="url(#p1939df5b7b)" style="fill: none; stroke: #000000; stroke-linecap: round"/>
    <path d="M 169.936385 114.419843 
L 171.836156 118.468407 
L 167.457442 117.559085 
L 169.936385 114.419843 
z
" clip-path="url(#p1939df5b7b)" style="stroke: #000000; stroke-linecap: round"/>
   </g>
   <g id="patch_113">
    <path d="M 176.072351 120.961437 
Q 209.536055 131.890934 241.936974 142.473317 
" clip-path="url(#p1939df5b7b)" style="fill: none; stroke: #000000; stroke-linecap: round"/>
    <path d="M 238.755574 139.330278 
L 241.936974 142.473317 
L 237.513703 143.132613 
L 238.755574 139.330278 
z
" clip-path="url(#p1939df5b7b)" style="stroke: #000000; stroke-linecap: round"/>
   </g>
   <g id="patch_114">
    <path d="M 173.914341 122.271293 
Q 169.097683 151.236565 164.464426 179.098948 
" clip-path="url(#p1939df5b7b)" style="fill: none; stroke: #000000; stroke-linecap: round"/>
    <path d="M 167.093487 175.481209 
L 164.464426 179.098948 
L 163.147671 174.825056 
L 167.093487 175.481209 
z
" clip-path="url(#p1939df5b7b)" style="stroke: #000000; stroke-linecap: round"/>
   </g>
   <g id="patch_115">
    <path d="M 173.769272 118.480209 
Q 169.326798 100.433287 165.151563 83.47199 
" clip-path="url(#p1939df5b7b)" style="fill: none; stroke: #000000; stroke-linecap: round"/>
    <path d="M 164.165645 87.834096 
L 165.151563 83.47199 
L 168.049697 86.877988 
L 164.165645 87.834096 
z
" clip-path="url(#p1939df5b7b)" style="stroke: #000000; stroke-linecap: round"/>
   </g>
   <g id="patch_116">
    <path d="M 173.169532 118.739498 
Q 162.124865 101.891414 151.693153 85.978362 
" clip-path="url(#p1939df5b7b)" style="fill: none; stroke: #000000; stroke-linecap: round"/>
    <path d="M 152.213492 90.420124 
L 151.693153 85.978362 
L 155.558765 88.227149 
L 152.213492 90.420124 
z
" clip-path="url(#p1939df5b7b)" style="stroke: #000000; stroke-linecap: round"/>
   </g>
   <g id="patch_117">
    <path d="M 172.712337 119.160295 
Q 159.303498 108.571831 146.772102 98.676252 
" clip-path="url(#p1939df5b7b)" style="fill: none; stroke: #000000; stroke-linecap: round"/>
    <path d="M 148.671873 102.724817 
L 146.772102 98.676252 
L 151.150816 99.585575 
L 148.671873 102.724817 
z
" clip-path="url(#p1939df5b7b)" style="stroke: #000000; stroke-linecap: round"/>
   </g>
   <g id="patch_118">
    <path d="M 172.366429 119.848717 
Q 156.16839 115.406229 141.048569 111.259454 
" clip-path="url(#p1939df5b7b)" style="fill: none; stroke: #000000; stroke-linecap: round"/>
    <path d="M 144.377131 114.246203 
L 141.048569 111.259454 
L 145.435106 110.388654 
L 144.377131 114.246203 
z
" clip-path="url(#p1939df5b7b)" style="stroke: #000000; stroke-linecap: round"/>
   </g>
   <g id="patch_119">
    <path d="M 139.966298 110.962629 
Q 156.164337 115.405117 171.284158 119.551893 
" clip-path="url(#p1939df5b7b)" style="fill: none; stroke: #000000; stroke-linecap: round"/>
    <path d="M 167.955596 116.565143 
L 171.284158 119.551893 
L 166.897621 120.422693 
L 167.955596 116.565143 
z
" clip-path="url(#p1939df5b7b)" style="stroke: #000000; stroke-linecap: round"/>
   </g>
   <g id="patch_120">
    <path d="M 361.32577 107.777952 
Q 342.925786 119.002705 325.480255 129.645203 
" clip-path="url(#p1939df5b7b)" style="fill: none; stroke: #000000; stroke-linecap: round"/>
    <path d="M 329.936576 129.269439 
L 325.480255 129.645203 
L 327.853436 125.854687 
L 329.936576 129.269439 
z
" clip-path="url(#p1939df5b7b)" style="stroke: #000000; stroke-linecap: round"/>
   </g>
   <g id="patch_121">
    <path d="M 302.207222 53.649948 
Q 301.681594 75.6172 301.182711 96.466738 
" clip-path="url(#p1939df5b7b)" style="fill: none; stroke: #000000; stroke-linecap: round"/>
    <path d="M 303.277822 92.515724 
L 301.182711 96.466738 
L 299.278967 92.420041 
L 303.277822 92.515724 
z
" clip-path="url(#p1939df5b7b)" style="stroke: #000000; stroke-linecap: round"/>
   </g>
   <g id="patch_122">
    <path d="M 368.422386 43.083617 
Q 354.717808 57.147622 341.793501 70.410893 
" clip-path="url(#p1939df5b7b)" style="fill: none; stroke: #000000; stroke-linecap: round"/>
    <path d="M 346.017483 68.941887 
L 341.793501 70.410893 
L 343.152685 66.150304 
L 346.017483 68.941887 
z
" clip-path="url(#p1939df5b7b)" style="stroke: #000000; stroke-linecap: round"/>
   </g>
   <g id="patch_123">
    <path d="M 267.477365 73.21248 
Q 274.91237 90.693054 281.909779 107.144789 
" clip-path="url(#p1939df5b7b)" style="fill: none; stroke: #000000; stroke-linecap: round"/>
    <path d="M 282.184632 102.681107 
L 281.909779 107.144789 
L 278.503745 104.246697 
L 282.184632 102.681107 
z
" clip-path="url(#p1939df5b7b)" style="stroke: #000000; stroke-linecap: round"/>
   </g>
   <g id="patch_124">
    <path d="M 235.977333 191.527935 
Q 227.975052 222.552716 220.252008 252.494896 
" clip-path="url(#p1939df5b7b)" style="fill: none; stroke: #000000; stroke-linecap: round"/>
    <path d="M 223.187655 249.121178 
L 220.252008 252.494896 
L 219.314421 248.122147 
L 223.187655 249.121178 
z
" clip-path="url(#p1939df5b7b)" style="stroke: #000000; stroke-linecap: round"/>
   </g>
   <g id="patch_125">
    <path d="M 237.492727 191.287311 
Q 246.085175 204.904952 254.081007 217.577052 
" clip-path="url(#p1939df5b7b)" style="fill: none; stroke: #000000; stroke-linecap: round"/>
    <path d="M 253.637921 213.12692 
L 254.081007 217.577052 
L 250.25505 215.261442 
L 253.637921 213.12692 
z
" clip-path="url(#p1939df5b7b)" style="stroke: #000000; stroke-linecap: round"/>
   </g>
   <g id="patch_126">
    <path d="M 234.629482 190.283906 
Q 217.000867 196.362314 200.42922 202.076275 
" clip-path="url(#p1939df5b7b)" style="fill: none; stroke: #000000; stroke-linecap: round"/>
    <path d="M 204.86268 202.663154 
L 200.42922 202.076275 
L 203.558799 198.881634 
L 204.86268 202.663154 
z
" clip-path="url(#p1939df5b7b)" style="stroke: #000000; stroke-linecap: round"/>
   </g>
   <g id="patch_127">
    <path d="M 234.95126 190.860695 
Q 212.352704 208.94648 190.627055 226.33367 
" clip-path="url(#p1939df5b7b)" style="fill: none; stroke: #000000; stroke-linecap: round"/>
    <path d="M 194.999745 225.395809 
L 190.627055 226.33367 
L 192.50038 222.272801 
L 194.999745 225.395809 
z
" clip-path="url(#p1939df5b7b)" style="stroke: #000000; stroke-linecap: round"/>
   </g>
   <g id="patch_128">
    <path d="M 236.806404 187.747735 
Q 240.651515 166.538653 244.297183 146.429672 
" clip-path="url(#p1939df5b7b)" style="fill: none; stroke: #000000; stroke-linecap: round"/>
    <path d="M 241.615712 150.008738 
L 244.297183 146.429672 
L 245.551553 150.722288 
L 241.615712 150.008738 
z
" clip-path="url(#p1939df5b7b)" style="stroke: #000000; stroke-linecap: round"/>
   </g>
   <g id="patch_129">
    <path d="M 234.536269 189.452158 
Q 200.212533 185.882227 167.000833 182.427955 
" clip-path="url(#p1939df5b7b)" style="fill: none; stroke: #000000; stroke-linecap: round"/>
    <path d="M 170.772472 184.831023 
L 167.000833 182.427955 
L 171.186271 180.852485 
L 170.772472 184.831023 
z
" clip-path="url(#p1939df5b7b)" style="stroke: #000000; stroke-linecap: round"/>
   </g>
   <g id="patch_130">
    <path d="M 236.779837 191.560802 
Q 239.65291 208.763689 242.341811 224.863815 
" clip-path="url(#p1939df5b7b)" style="fill: none; stroke: #000000; stroke-linecap: round"/>
    <path d="M 243.65557 220.589001 
L 242.341811 224.863815 
L 239.710215 221.247919 
L 243.65557 220.589001 
z
" clip-path="url(#p1939df5b7b)" style="stroke: #000000; stroke-linecap: round"/>
   </g>
   <g id="patch_131">
    <path d="M 238.067052 188.566693 
Q 279.668089 160.443283 320.342886 132.946036 
" clip-path="url(#p1939df5b7b)" style="fill: none; stroke: #000000; stroke-linecap: round"/>
    <path d="M 315.908956 133.529356 
L 320.342886 132.946036 
L 318.149184 136.843172 
L 315.908956 133.529356 
z
" clip-path="url(#p1939df5b7b)" style="stroke: #000000; stroke-linecap: round"/>
   </g>
   <g id="patch_132">
    <path d="M 235.287185 191.196795 
Q 225.507 204.063853 216.403372 216.040816 
" clip-path="url(#p1939df5b7b)" style="fill: none; stroke: #000000; stroke-linecap: round"/>
    <path d="M 220.416148 214.066575 
L 216.403372 216.040816 
L 217.231645 211.646051 
L 220.416148 214.066575 
z
" clip-path="url(#p1939df5b7b)" style="stroke: #000000; stroke-linecap: round"/>
   </g>
   <g id="patch_133">
    <path d="M 237.580255 188.070511 
Q 250.588205 169.684622 262.950421 152.211436 
" clip-path="url(#p1939df5b7b)" style="fill: none; stroke: #000000; stroke-linecap: round"/>
    <path d="M 259.007479 154.321698 
L 262.950421 152.211436 
L 262.272865 156.631947 
L 259.007479 154.321698 
z
" clip-path="url(#p1939df5b7b)" style="stroke: #000000; stroke-linecap: round"/>
   </g>
   <g id="patch_134">
    <path d="M 330.050116 113.517354 
Q 331.543196 128.609472 332.926205 142.588988 
" clip-path="url(#p1939df5b7b)" style="fill: none; stroke: #000000; stroke-linecap: round"/>
    <path d="M 334.522687 138.411519 
L 332.926205 142.588988 
L 330.542119 138.805321 
L 334.522687 138.411519 
z
" clip-path="url(#p1939df5b7b)" style="stroke: #000000; stroke-linecap: round"/>
   </g>
   <g id="patch_135">
    <path d="M 328.073471 110.843644 
Q 315.48521 105.556641 303.927759 100.702572 
" clip-path="url(#p1939df5b7b)" style="fill: none; stroke: #000000; stroke-linecap: round"/>
    <path d="M 306.841238 104.095453 
L 303.927759 100.702572 
L 308.390151 100.407518 
L 306.841238 104.095453 
z
" clip-path="url(#p1939df5b7b)" style="stroke: #000000; stroke-linecap: round"/>
   </g>
   <g id="patch_136">
    <path d="M 329.210606 113.41865 
Q 326.365106 121.416413 323.894374 128.360825 
" clip-path="url(#p1939df5b7b)" style="fill: none; stroke: #000000; stroke-linecap: round"/>
    <path d="M 327.119479 125.262648 
L 323.894374 128.360825 
L 323.350896 123.921835 
L 327.119479 125.262648 
z
" clip-path="url(#p1939df5b7b)" style="stroke: #000000; stroke-linecap: round"/>
   </g>
   <g id="patch_137">
    <path d="M 331.527729 110.615674 
Q 337.895751 106.880805 343.299372 103.711561 
" clip-path="url(#p1939df5b7b)" style="fill: none; stroke: #000000; stroke-linecap: round"/>
    <path d="M 338.837207 104.010028 
L 343.299372 103.711561 
L 340.860847 107.460373 
L 338.837207 104.010028 
z
" clip-path="url(#p1939df5b7b)" style="stroke: #000000; stroke-linecap: round"/>
   </g>
   <g id="patch_138">
    <path d="M 225.601374 114.76274 
Q 234.682854 128.289598 243.141143 140.888213 
" clip-path="url(#p1939df5b7b)" style="fill: none; stroke: #000000; stroke-linecap: round"/>
    <path d="M 242.572038 136.452435 
L 243.141143 140.888213 
L 239.251058 138.68203 
L 242.572038 136.452435 
z
" clip-path="url(#p1939df5b7b)" style="stroke: #000000; stroke-linecap: round"/>
   </g>
   <g id="patch_139">
    <path d="M 383.52997 146.332132 
Q 401.222676 150.062554 417.8214 153.562315 
" clip-path="url(#p1939df5b7b)" style="fill: none; stroke: #000000; stroke-linecap: round"/>
    <path d="M 414.320071 150.780104 
L 417.8214 153.562315 
L 413.494834 154.694051 
L 414.320071 150.780104 
z
" clip-path="url(#p1939df5b7b)" style="stroke: #000000; stroke-linecap: round"/>
   </g>
   <g id="patch_140">
    <path d="M 379.755429 145.46269 
Q 352.252429 138.584659 325.83406 131.977876 
" clip-path="url(#p1939df5b7b)" style="fill: none; stroke: #000000; stroke-linecap: round"/>
    <path d="M 329.229331 134.888568 
L 325.83406 131.977876 
L 330.199777 131.008074 
L 329.229331 134.888568 
z
" clip-path="url(#p1939df5b7b)" style="stroke: #000000; stroke-linecap: round"/>
   </g>
   <g id="patch_141">
    <path d="M 266.422365 150.624745 
Q 269.928624 152.484383 272.447172 153.820162 
" clip-path="url(#p1939df5b7b)" style="fill: none; stroke: #000000; stroke-linecap: round"/>
    <path d="M 269.850538 150.179078 
L 272.447172 153.820162 
L 267.976325 153.712819 
L 269.850538 150.179078 
z
" clip-path="url(#p1939df5b7b)" style="stroke: #000000; stroke-linecap: round"/>
   </g>
   <g id="patch_142">
    <path d="M 266.579398 149.207861 
Q 280.730997 145.332485 293.804264 141.752408 
" clip-path="url(#p1939df5b7b)" style="fill: none; stroke: #000000; stroke-linecap: round"/>
    <path d="M 289.418062 140.87992 
L 293.804264 141.752408 
L 290.474552 144.737877 
L 289.418062 140.87992 
z
" clip-path="url(#p1939df5b7b)" style="stroke: #000000; stroke-linecap: round"/>
   </g>
   <g id="patch_143">
    <path d="M 265.527829 147.959088 
Q 273.910209 129.834627 281.823273 112.724927 
" clip-path="url(#p1939df5b7b)" style="fill: none; stroke: #000000; stroke-linecap: round"/>
    <path d="M 278.328932 115.515909 
L 281.823273 112.724927 
L 281.959454 117.194989 
L 278.328932 115.515909 
z
" clip-path="url(#p1939df5b7b)" style="stroke: #000000; stroke-linecap: round"/>
   </g>
   <g id="patch_144">
    <path d="M 263.594883 151.300531 
Q 250.586932 169.68642 238.224716 187.159606 
" clip-path="url(#p1939df5b7b)" style="fill: none; stroke: #000000; stroke-linecap: round"/>
    <path d="M 242.167659 185.049344 
L 238.224716 187.159606 
L 238.902272 182.739095 
L 242.167659 185.049344 
z
" clip-path="url(#p1939df5b7b)" style="stroke: #000000; stroke-linecap: round"/>
   </g>
   <g id="patch_145">
    <path d="M 204.907803 230.496786 
Q 209.058879 212.509372 212.958548 195.61136 
" clip-path="url(#p1939df5b7b)" style="fill: none; stroke: #000000; stroke-linecap: round"/>
    <path d="M 210.110303 199.059185 
L 212.958548 195.61136 
L 214.007861 199.958651 
L 210.110303 199.059185 
z
" clip-path="url(#p1939df5b7b)" style="stroke: #000000; stroke-linecap: round"/>
   </g>
   <g id="PathCollection_1">
    <defs>
     <path id="m598a763ba7" d="M 0 1.936492 
C 0.513564 1.936492 1.006162 1.732451 1.369306 1.369306 
C 1.732451 1.006162 1.936492 0.513564 1.936492 0 
C 1.936492 -0.513564 1.732451 -1.006162 1.369306 -1.369306 
C 1.006162 -1.732451 0.513564 -1.936492 0 -1.936492 
C -0.513564 -1.936492 -1.006162 -1.732451 -1.369306 -1.369306 
C -1.732451 -1.006162 -1.936492 -0.513564 -1.936492 0 
C -1.936492 0.513564 -1.732451 1.006162 -1.369306 1.369306 
C -1.006162 1.732451 -0.513564 1.936492 0 1.936492 
z
" style="stroke: #1f78b4"/>
    </defs>
    <g clip-path="url(#p1939df5b7b)">
     <use xlink:href="#m598a763ba7" x="315.303954" y="58.153759" style="fill: #1f78b4; stroke: #1f78b4"/>
     <use xlink:href="#m598a763ba7" x="212.450524" y="299.338314" style="fill: #1f78b4; stroke: #1f78b4"/>
     <use xlink:href="#m598a763ba7" x="288.922003" y="56.419166" style="fill: #1f78b4; stroke: #1f78b4"/>
     <use xlink:href="#m598a763ba7" x="365.659104" y="134.826653" style="fill: #1f78b4; stroke: #1f78b4"/>
     <use xlink:href="#m598a763ba7" x="219.488698" y="255.454241" style="fill: #1f78b4; stroke: #1f78b4"/>
     <use xlink:href="#m598a763ba7" x="255.711786" y="220.161575" style="fill: #1f78b4; stroke: #1f78b4"/>
     <use xlink:href="#m598a763ba7" x="197.538533" y="203.072994" style="fill: #1f78b4; stroke: #1f78b4"/>
     <use xlink:href="#m598a763ba7" x="229.639567" y="298.357463" style="fill: #1f78b4; stroke: #1f78b4"/>
     <use xlink:href="#m598a763ba7" x="39.986777" y="268.152382" style="fill: #1f78b4; stroke: #1f78b4"/>
     <use xlink:href="#m598a763ba7" x="420.813223" y="154.193126" style="fill: #1f78b4; stroke: #1f78b4"/>
     <use xlink:href="#m598a763ba7" x="188.24026" y="228.243839" style="fill: #1f78b4; stroke: #1f78b4"/>
     <use xlink:href="#m598a763ba7" x="170.199396" y="265.712525" style="fill: #1f78b4; stroke: #1f78b4"/>
     <use xlink:href="#m598a763ba7" x="69.668207" y="315.609917" style="fill: #1f78b4; stroke: #1f78b4"/>
     <use xlink:href="#m598a763ba7" x="283.834355" y="127.137386" style="fill: #1f78b4; stroke: #1f78b4"/>
     <use xlink:href="#m598a763ba7" x="244.842414" y="143.422255" style="fill: #1f78b4; stroke: #1f78b4"/>
     <use xlink:href="#m598a763ba7" x="339.663397" y="72.596863" style="fill: #1f78b4; stroke: #1f78b4"/>
     <use xlink:href="#m598a763ba7" x="329.817378" y="199.663195" style="fill: #1f78b4; stroke: #1f78b4"/>
     <use xlink:href="#m598a763ba7" x="333.226668" y="145.626076" style="fill: #1f78b4; stroke: #1f78b4"/>
     <use xlink:href="#m598a763ba7" x="163.963377" y="182.112037" style="fill: #1f78b4; stroke: #1f78b4"/>
     <use xlink:href="#m598a763ba7" x="101.525201" y="261.93478" style="fill: #1f78b4; stroke: #1f78b4"/>
     <use xlink:href="#m598a763ba7" x="92.67057" y="284.147448" style="fill: #1f78b4; stroke: #1f78b4"/>
     <use xlink:href="#m598a763ba7" x="124.493037" y="238.580853" style="fill: #1f78b4; stroke: #1f78b4"/>
     <use xlink:href="#m598a763ba7" x="75.078815" y="255.526989" style="fill: #1f78b4; stroke: #1f78b4"/>
     <use xlink:href="#m598a763ba7" x="90.987493" y="237.488417" style="fill: #1f78b4; stroke: #1f78b4"/>
     <use xlink:href="#m598a763ba7" x="358.178637" y="153.4255" style="fill: #1f78b4; stroke: #1f78b4"/>
     <use xlink:href="#m598a763ba7" x="358.400583" y="122.671042" style="fill: #1f78b4; stroke: #1f78b4"/>
     <use xlink:href="#m598a763ba7" x="242.845091" y="227.877269" style="fill: #1f78b4; stroke: #1f78b4"/>
     <use xlink:href="#m598a763ba7" x="275.142242" y="155.249563" style="fill: #1f78b4; stroke: #1f78b4"/>
     <use xlink:href="#m598a763ba7" x="298.888591" y="180.037491" style="fill: #1f78b4; stroke: #1f78b4"/>
     <use xlink:href="#m598a763ba7" x="338.313667" y="186.215157" style="fill: #1f78b4; stroke: #1f78b4"/>
     <use xlink:href="#m598a763ba7" x="315.370912" y="203.986515" style="fill: #1f78b4; stroke: #1f78b4"/>
     <use xlink:href="#m598a763ba7" x="305.503888" y="161.084472" style="fill: #1f78b4; stroke: #1f78b4"/>
     <use xlink:href="#m598a763ba7" x="301.109677" y="99.518992" style="fill: #1f78b4; stroke: #1f78b4"/>
     <use xlink:href="#m598a763ba7" x="355.132753" y="29.990083" style="fill: #1f78b4; stroke: #1f78b4"/>
     <use xlink:href="#m598a763ba7" x="322.871107" y="131.236892" style="fill: #1f78b4; stroke: #1f78b4"/>
     <use xlink:href="#m598a763ba7" x="345.934477" y="102.166061" style="fill: #1f78b4; stroke: #1f78b4"/>
     <use xlink:href="#m598a763ba7" x="296.749833" y="140.945772" style="fill: #1f78b4; stroke: #1f78b4"/>
     <use xlink:href="#m598a763ba7" x="283.104705" y="109.954202" style="fill: #1f78b4; stroke: #1f78b4"/>
     <use xlink:href="#m598a763ba7" x="128.926532" y="185.017126" style="fill: #1f78b4; stroke: #1f78b4"/>
     <use xlink:href="#m598a763ba7" x="164.422219" y="80.509132" style="fill: #1f78b4; stroke: #1f78b4"/>
     <use xlink:href="#m598a763ba7" x="130.414583" y="166.624183" style="fill: #1f78b4; stroke: #1f78b4"/>
     <use xlink:href="#m598a763ba7" x="214.555065" y="218.472495" style="fill: #1f78b4; stroke: #1f78b4"/>
     <use xlink:href="#m598a763ba7" x="171.715685" y="222.581237" style="fill: #1f78b4; stroke: #1f78b4"/>
     <use xlink:href="#m598a763ba7" x="213.646238" y="192.631466" style="fill: #1f78b4; stroke: #1f78b4"/>
     <use xlink:href="#m598a763ba7" x="150.019039" y="83.424586" style="fill: #1f78b4; stroke: #1f78b4"/>
     <use xlink:href="#m598a763ba7" x="144.376154" y="96.78426" style="fill: #1f78b4; stroke: #1f78b4"/>
     <use xlink:href="#m598a763ba7" x="174.232105" y="120.360399" style="fill: #1f78b4; stroke: #1f78b4"/>
     <use xlink:href="#m598a763ba7" x="138.100622" y="110.450947" style="fill: #1f78b4; stroke: #1f78b4"/>
     <use xlink:href="#m598a763ba7" x="362.978128" y="106.769944" style="fill: #1f78b4; stroke: #1f78b4"/>
     <use xlink:href="#m598a763ba7" x="302.253509" y="51.715518" style="fill: #1f78b4; stroke: #1f78b4"/>
     <use xlink:href="#m598a763ba7" x="369.773134" y="41.697443" style="fill: #1f78b4; stroke: #1f78b4"/>
     <use xlink:href="#m598a763ba7" x="266.720348" y="71.432645" style="fill: #1f78b4; stroke: #1f78b4"/>
     <use xlink:href="#m598a763ba7" x="236.461105" y="189.652356" style="fill: #1f78b4; stroke: #1f78b4"/>
     <use xlink:href="#m598a763ba7" x="329.859827" y="111.593904" style="fill: #1f78b4; stroke: #1f78b4"/>
     <use xlink:href="#m598a763ba7" x="224.522367" y="113.155561" style="fill: #1f78b4; stroke: #1f78b4"/>
     <use xlink:href="#m598a763ba7" x="381.631131" y="145.931771" style="fill: #1f78b4; stroke: #1f78b4"/>
     <use xlink:href="#m598a763ba7" x="264.714033" y="149.718686" style="fill: #1f78b4; stroke: #1f78b4"/>
     <use xlink:href="#m598a763ba7" x="204.472169" y="232.384471" style="fill: #1f78b4; stroke: #1f78b4"/>
    </g>
   </g>
   <g id="text_1">
    <g clip-path="url(#p1939df5b7b)">
     <!-- 0 -->
     <g transform="translate(312.122704 60.913134) scale(0.1 -0.1)">
      <defs>
       <path id="DejaVuSans-30" d="M 2034 4250 
Q 1547 4250 1301 3770 
Q 1056 3291 1056 2328 
Q 1056 1369 1301 889 
Q 1547 409 2034 409 
Q 2525 409 2770 889 
Q 3016 1369 3016 2328 
Q 3016 3291 2770 3770 
Q 2525 4250 2034 4250 
z
M 2034 4750 
Q 2819 4750 3233 4129 
Q 3647 3509 3647 2328 
Q 3647 1150 3233 529 
Q 2819 -91 2034 -91 
Q 1250 -91 836 529 
Q 422 1150 422 2328 
Q 422 3509 836 4129 
Q 1250 4750 2034 4750 
z
" transform="scale(0.015625)"/>
      </defs>
      <use xlink:href="#DejaVuSans-30"/>
     </g>
    </g>
   </g>
   <g id="text_2">
    <g clip-path="url(#p1939df5b7b)">
     <!-- 1 -->
     <g transform="translate(209.269274 302.097689) scale(0.1 -0.1)">
      <defs>
       <path id="DejaVuSans-31" d="M 794 531 
L 1825 531 
L 1825 4091 
L 703 3866 
L 703 4441 
L 1819 4666 
L 2450 4666 
L 2450 531 
L 3481 531 
L 3481 0 
L 794 0 
L 794 531 
z
" transform="scale(0.015625)"/>
      </defs>
      <use xlink:href="#DejaVuSans-31"/>
     </g>
    </g>
   </g>
   <g id="text_3">
    <g clip-path="url(#p1939df5b7b)">
     <!-- 2 -->
     <g transform="translate(285.740753 59.178541) scale(0.1 -0.1)">
      <defs>
       <path id="DejaVuSans-32" d="M 1228 531 
L 3431 531 
L 3431 0 
L 469 0 
L 469 531 
Q 828 903 1448 1529 
Q 2069 2156 2228 2338 
Q 2531 2678 2651 2914 
Q 2772 3150 2772 3378 
Q 2772 3750 2511 3984 
Q 2250 4219 1831 4219 
Q 1534 4219 1204 4116 
Q 875 4013 500 3803 
L 500 4441 
Q 881 4594 1212 4672 
Q 1544 4750 1819 4750 
Q 2544 4750 2975 4387 
Q 3406 4025 3406 3419 
Q 3406 3131 3298 2873 
Q 3191 2616 2906 2266 
Q 2828 2175 2409 1742 
Q 1991 1309 1228 531 
z
" transform="scale(0.015625)"/>
      </defs>
      <use xlink:href="#DejaVuSans-32"/>
     </g>
    </g>
   </g>
   <g id="text_4">
    <g clip-path="url(#p1939df5b7b)">
     <!-- 3 -->
     <g transform="translate(362.477854 137.586028) scale(0.1 -0.1)">
      <defs>
       <path id="DejaVuSans-33" d="M 2597 2516 
Q 3050 2419 3304 2112 
Q 3559 1806 3559 1356 
Q 3559 666 3084 287 
Q 2609 -91 1734 -91 
Q 1441 -91 1130 -33 
Q 819 25 488 141 
L 488 750 
Q 750 597 1062 519 
Q 1375 441 1716 441 
Q 2309 441 2620 675 
Q 2931 909 2931 1356 
Q 2931 1769 2642 2001 
Q 2353 2234 1838 2234 
L 1294 2234 
L 1294 2753 
L 1863 2753 
Q 2328 2753 2575 2939 
Q 2822 3125 2822 3475 
Q 2822 3834 2567 4026 
Q 2313 4219 1838 4219 
Q 1578 4219 1281 4162 
Q 984 4106 628 3988 
L 628 4550 
Q 988 4650 1302 4700 
Q 1616 4750 1894 4750 
Q 2613 4750 3031 4423 
Q 3450 4097 3450 3541 
Q 3450 3153 3228 2886 
Q 3006 2619 2597 2516 
z
" transform="scale(0.015625)"/>
      </defs>
      <use xlink:href="#DejaVuSans-33"/>
     </g>
    </g>
   </g>
   <g id="text_5">
    <g clip-path="url(#p1939df5b7b)">
     <!-- 4 -->
     <g transform="translate(216.307448 258.213616) scale(0.1 -0.1)">
      <defs>
       <path id="DejaVuSans-34" d="M 2419 4116 
L 825 1625 
L 2419 1625 
L 2419 4116 
z
M 2253 4666 
L 3047 4666 
L 3047 1625 
L 3713 1625 
L 3713 1100 
L 3047 1100 
L 3047 0 
L 2419 0 
L 2419 1100 
L 313 1100 
L 313 1709 
L 2253 4666 
z
" transform="scale(0.015625)"/>
      </defs>
      <use xlink:href="#DejaVuSans-34"/>
     </g>
    </g>
   </g>
   <g id="text_6">
    <g clip-path="url(#p1939df5b7b)">
     <!-- 5 -->
     <g transform="translate(252.530536 222.92095) scale(0.1 -0.1)">
      <defs>
       <path id="DejaVuSans-35" d="M 691 4666 
L 3169 4666 
L 3169 4134 
L 1269 4134 
L 1269 2991 
Q 1406 3038 1543 3061 
Q 1681 3084 1819 3084 
Q 2600 3084 3056 2656 
Q 3513 2228 3513 1497 
Q 3513 744 3044 326 
Q 2575 -91 1722 -91 
Q 1428 -91 1123 -41 
Q 819 9 494 109 
L 494 744 
Q 775 591 1075 516 
Q 1375 441 1709 441 
Q 2250 441 2565 725 
Q 2881 1009 2881 1497 
Q 2881 1984 2565 2268 
Q 2250 2553 1709 2553 
Q 1456 2553 1204 2497 
Q 953 2441 691 2322 
L 691 4666 
z
" transform="scale(0.015625)"/>
      </defs>
      <use xlink:href="#DejaVuSans-35"/>
     </g>
    </g>
   </g>
   <g id="text_7">
    <g clip-path="url(#p1939df5b7b)">
     <!-- 6 -->
     <g transform="translate(194.357283 205.832369) scale(0.1 -0.1)">
      <defs>
       <path id="DejaVuSans-36" d="M 2113 2584 
Q 1688 2584 1439 2293 
Q 1191 2003 1191 1497 
Q 1191 994 1439 701 
Q 1688 409 2113 409 
Q 2538 409 2786 701 
Q 3034 994 3034 1497 
Q 3034 2003 2786 2293 
Q 2538 2584 2113 2584 
z
M 3366 4563 
L 3366 3988 
Q 3128 4100 2886 4159 
Q 2644 4219 2406 4219 
Q 1781 4219 1451 3797 
Q 1122 3375 1075 2522 
Q 1259 2794 1537 2939 
Q 1816 3084 2150 3084 
Q 2853 3084 3261 2657 
Q 3669 2231 3669 1497 
Q 3669 778 3244 343 
Q 2819 -91 2113 -91 
Q 1303 -91 875 529 
Q 447 1150 447 2328 
Q 447 3434 972 4092 
Q 1497 4750 2381 4750 
Q 2619 4750 2861 4703 
Q 3103 4656 3366 4563 
z
" transform="scale(0.015625)"/>
      </defs>
      <use xlink:href="#DejaVuSans-36"/>
     </g>
    </g>
   </g>
   <g id="text_8">
    <g clip-path="url(#p1939df5b7b)">
     <!-- 7 -->
     <g transform="translate(226.458317 301.116838) scale(0.1 -0.1)">
      <defs>
       <path id="DejaVuSans-37" d="M 525 4666 
L 3525 4666 
L 3525 4397 
L 1831 0 
L 1172 0 
L 2766 4134 
L 525 4134 
L 525 4666 
z
" transform="scale(0.015625)"/>
      </defs>
      <use xlink:href="#DejaVuSans-37"/>
     </g>
    </g>
   </g>
   <g id="text_9">
    <g clip-path="url(#p1939df5b7b)">
     <!-- 8 -->
     <g transform="translate(36.805527 270.911757) scale(0.1 -0.1)">
      <defs>
       <path id="DejaVuSans-38" d="M 2034 2216 
Q 1584 2216 1326 1975 
Q 1069 1734 1069 1313 
Q 1069 891 1326 650 
Q 1584 409 2034 409 
Q 2484 409 2743 651 
Q 3003 894 3003 1313 
Q 3003 1734 2745 1975 
Q 2488 2216 2034 2216 
z
M 1403 2484 
Q 997 2584 770 2862 
Q 544 3141 544 3541 
Q 544 4100 942 4425 
Q 1341 4750 2034 4750 
Q 2731 4750 3128 4425 
Q 3525 4100 3525 3541 
Q 3525 3141 3298 2862 
Q 3072 2584 2669 2484 
Q 3125 2378 3379 2068 
Q 3634 1759 3634 1313 
Q 3634 634 3220 271 
Q 2806 -91 2034 -91 
Q 1263 -91 848 271 
Q 434 634 434 1313 
Q 434 1759 690 2068 
Q 947 2378 1403 2484 
z
M 1172 3481 
Q 1172 3119 1398 2916 
Q 1625 2713 2034 2713 
Q 2441 2713 2670 2916 
Q 2900 3119 2900 3481 
Q 2900 3844 2670 4047 
Q 2441 4250 2034 4250 
Q 1625 4250 1398 4047 
Q 1172 3844 1172 3481 
z
" transform="scale(0.015625)"/>
      </defs>
      <use xlink:href="#DejaVuSans-38"/>
     </g>
    </g>
   </g>
   <g id="text_10">
    <g clip-path="url(#p1939df5b7b)">
     <!-- 9 -->
     <g transform="translate(417.631973 156.952501) scale(0.1 -0.1)">
      <defs>
       <path id="DejaVuSans-39" d="M 703 97 
L 703 672 
Q 941 559 1184 500 
Q 1428 441 1663 441 
Q 2288 441 2617 861 
Q 2947 1281 2994 2138 
Q 2813 1869 2534 1725 
Q 2256 1581 1919 1581 
Q 1219 1581 811 2004 
Q 403 2428 403 3163 
Q 403 3881 828 4315 
Q 1253 4750 1959 4750 
Q 2769 4750 3195 4129 
Q 3622 3509 3622 2328 
Q 3622 1225 3098 567 
Q 2575 -91 1691 -91 
Q 1453 -91 1209 -44 
Q 966 3 703 97 
z
M 1959 2075 
Q 2384 2075 2632 2365 
Q 2881 2656 2881 3163 
Q 2881 3666 2632 3958 
Q 2384 4250 1959 4250 
Q 1534 4250 1286 3958 
Q 1038 3666 1038 3163 
Q 1038 2656 1286 2365 
Q 1534 2075 1959 2075 
z
" transform="scale(0.015625)"/>
      </defs>
      <use xlink:href="#DejaVuSans-39"/>
     </g>
    </g>
   </g>
   <g id="text_11">
    <g clip-path="url(#p1939df5b7b)">
     <!-- 10 -->
     <g transform="translate(181.87776 231.003214) scale(0.1 -0.1)">
      <use xlink:href="#DejaVuSans-31"/>
      <use xlink:href="#DejaVuSans-30" x="63.623047"/>
     </g>
    </g>
   </g>
   <g id="text_12">
    <g clip-path="url(#p1939df5b7b)">
     <!-- 11 -->
     <g transform="translate(163.836896 268.4719) scale(0.1 -0.1)">
      <use xlink:href="#DejaVuSans-31"/>
      <use xlink:href="#DejaVuSans-31" x="63.623047"/>
     </g>
    </g>
   </g>
   <g id="text_13">
    <g clip-path="url(#p1939df5b7b)">
     <!-- 12 -->
     <g transform="translate(63.305707 318.369292) scale(0.1 -0.1)">
      <use xlink:href="#DejaVuSans-31"/>
      <use xlink:href="#DejaVuSans-32" x="63.623047"/>
     </g>
    </g>
   </g>
   <g id="text_14">
    <g clip-path="url(#p1939df5b7b)">
     <!-- 13 -->
     <g transform="translate(277.471855 129.896761) scale(0.1 -0.1)">
      <use xlink:href="#DejaVuSans-31"/>
      <use xlink:href="#DejaVuSans-33" x="63.623047"/>
     </g>
    </g>
   </g>
   <g id="text_15">
    <g clip-path="url(#p1939df5b7b)">
     <!-- 14 -->
     <g transform="translate(238.479914 146.18163) scale(0.1 -0.1)">
      <use xlink:href="#DejaVuSans-31"/>
      <use xlink:href="#DejaVuSans-34" x="63.623047"/>
     </g>
    </g>
   </g>
   <g id="text_16">
    <g clip-path="url(#p1939df5b7b)">
     <!-- 15 -->
     <g transform="translate(333.300897 75.356238) scale(0.1 -0.1)">
      <use xlink:href="#DejaVuSans-31"/>
      <use xlink:href="#DejaVuSans-35" x="63.623047"/>
     </g>
    </g>
   </g>
   <g id="text_17">
    <g clip-path="url(#p1939df5b7b)">
     <!-- 16 -->
     <g transform="translate(323.454878 202.42257) scale(0.1 -0.1)">
      <use xlink:href="#DejaVuSans-31"/>
      <use xlink:href="#DejaVuSans-36" x="63.623047"/>
     </g>
    </g>
   </g>
   <g id="text_18">
    <g clip-path="url(#p1939df5b7b)">
     <!-- 17 -->
     <g transform="translate(326.864168 148.385451) scale(0.1 -0.1)">
      <use xlink:href="#DejaVuSans-31"/>
      <use xlink:href="#DejaVuSans-37" x="63.623047"/>
     </g>
    </g>
   </g>
   <g id="text_19">
    <g clip-path="url(#p1939df5b7b)">
     <!-- 18 -->
     <g transform="translate(157.600877 184.871412) scale(0.1 -0.1)">
      <use xlink:href="#DejaVuSans-31"/>
      <use xlink:href="#DejaVuSans-38" x="63.623047"/>
     </g>
    </g>
   </g>
   <g id="text_20">
    <g clip-path="url(#p1939df5b7b)">
     <!-- 19 -->
     <g transform="translate(95.162701 264.694155) scale(0.1 -0.1)">
      <use xlink:href="#DejaVuSans-31"/>
      <use xlink:href="#DejaVuSans-39" x="63.623047"/>
     </g>
    </g>
   </g>
   <g id="text_21">
    <g clip-path="url(#p1939df5b7b)">
     <!-- 20 -->
     <g transform="translate(86.30807 286.906823) scale(0.1 -0.1)">
      <use xlink:href="#DejaVuSans-32"/>
      <use xlink:href="#DejaVuSans-30" x="63.623047"/>
     </g>
    </g>
   </g>
   <g id="text_22">
    <g clip-path="url(#p1939df5b7b)">
     <!-- 21 -->
     <g transform="translate(118.130537 241.340228) scale(0.1 -0.1)">
      <use xlink:href="#DejaVuSans-32"/>
      <use xlink:href="#DejaVuSans-31" x="63.623047"/>
     </g>
    </g>
   </g>
   <g id="text_23">
    <g clip-path="url(#p1939df5b7b)">
     <!-- 22 -->
     <g transform="translate(68.716315 258.286364) scale(0.1 -0.1)">
      <use xlink:href="#DejaVuSans-32"/>
      <use xlink:href="#DejaVuSans-32" x="63.623047"/>
     </g>
    </g>
   </g>
   <g id="text_24">
    <g clip-path="url(#p1939df5b7b)">
     <!-- 23 -->
     <g transform="translate(84.624993 240.247792) scale(0.1 -0.1)">
      <use xlink:href="#DejaVuSans-32"/>
      <use xlink:href="#DejaVuSans-33" x="63.623047"/>
     </g>
    </g>
   </g>
   <g id="text_25">
    <g clip-path="url(#p1939df5b7b)">
     <!-- 24 -->
     <g transform="translate(351.816137 156.184875) scale(0.1 -0.1)">
      <use xlink:href="#DejaVuSans-32"/>
      <use xlink:href="#DejaVuSans-34" x="63.623047"/>
     </g>
    </g>
   </g>
   <g id="text_26">
    <g clip-path="url(#p1939df5b7b)">
     <!-- 25 -->
     <g transform="translate(352.038083 125.430417) scale(0.1 -0.1)">
      <use xlink:href="#DejaVuSans-32"/>
      <use xlink:href="#DejaVuSans-35" x="63.623047"/>
     </g>
    </g>
   </g>
   <g id="text_27">
    <g clip-path="url(#p1939df5b7b)">
     <!-- 26 -->
     <g transform="translate(236.482591 230.636644) scale(0.1 -0.1)">
      <use xlink:href="#DejaVuSans-32"/>
      <use xlink:href="#DejaVuSans-36" x="63.623047"/>
     </g>
    </g>
   </g>
   <g id="text_28">
    <g clip-path="url(#p1939df5b7b)">
     <!-- 27 -->
     <g transform="translate(268.779742 158.008938) scale(0.1 -0.1)">
      <use xlink:href="#DejaVuSans-32"/>
      <use xlink:href="#DejaVuSans-37" x="63.623047"/>
     </g>
    </g>
   </g>
   <g id="text_29">
    <g clip-path="url(#p1939df5b7b)">
     <!-- 28 -->
     <g transform="translate(292.526091 182.796866) scale(0.1 -0.1)">
      <use xlink:href="#DejaVuSans-32"/>
      <use xlink:href="#DejaVuSans-38" x="63.623047"/>
     </g>
    </g>
   </g>
   <g id="text_30">
    <g clip-path="url(#p1939df5b7b)">
     <!-- 29 -->
     <g transform="translate(331.951167 188.974532) scale(0.1 -0.1)">
      <use xlink:href="#DejaVuSans-32"/>
      <use xlink:href="#DejaVuSans-39" x="63.623047"/>
     </g>
    </g>
   </g>
   <g id="text_31">
    <g clip-path="url(#p1939df5b7b)">
     <!-- 30 -->
     <g transform="translate(309.008412 206.74589) scale(0.1 -0.1)">
      <use xlink:href="#DejaVuSans-33"/>
      <use xlink:href="#DejaVuSans-30" x="63.623047"/>
     </g>
    </g>
   </g>
   <g id="text_32">
    <g clip-path="url(#p1939df5b7b)">
     <!-- 31 -->
     <g transform="translate(299.141388 163.843847) scale(0.1 -0.1)">
      <use xlink:href="#DejaVuSans-33"/>
      <use xlink:href="#DejaVuSans-31" x="63.623047"/>
     </g>
    </g>
   </g>
   <g id="text_33">
    <g clip-path="url(#p1939df5b7b)">
     <!-- 32 -->
     <g transform="translate(294.747177 102.278367) scale(0.1 -0.1)">
      <use xlink:href="#DejaVuSans-33"/>
      <use xlink:href="#DejaVuSans-32" x="63.623047"/>
     </g>
    </g>
   </g>
   <g id="text_34">
    <g clip-path="url(#p1939df5b7b)">
     <!-- 33 -->
     <g transform="translate(348.770253 32.749458) scale(0.1 -0.1)">
      <use xlink:href="#DejaVuSans-33"/>
      <use xlink:href="#DejaVuSans-33" x="63.623047"/>
     </g>
    </g>
   </g>
   <g id="text_35">
    <g clip-path="url(#p1939df5b7b)">
     <!-- 34 -->
     <g transform="translate(316.508607 133.996267) scale(0.1 -0.1)">
      <use xlink:href="#DejaVuSans-33"/>
      <use xlink:href="#DejaVuSans-34" x="63.623047"/>
     </g>
    </g>
   </g>
   <g id="text_36">
    <g clip-path="url(#p1939df5b7b)">
     <!-- 35 -->
     <g transform="translate(339.571977 104.925436) scale(0.1 -0.1)">
      <use xlink:href="#DejaVuSans-33"/>
      <use xlink:href="#DejaVuSans-35" x="63.623047"/>
     </g>
    </g>
   </g>
   <g id="text_37">
    <g clip-path="url(#p1939df5b7b)">
     <!-- 36 -->
     <g transform="translate(290.387333 143.705147) scale(0.1 -0.1)">
      <use xlink:href="#DejaVuSans-33"/>
      <use xlink:href="#DejaVuSans-36" x="63.623047"/>
     </g>
    </g>
   </g>
   <g id="text_38">
    <g clip-path="url(#p1939df5b7b)">
     <!-- 37 -->
     <g transform="translate(276.742205 112.713577) scale(0.1 -0.1)">
      <use xlink:href="#DejaVuSans-33"/>
      <use xlink:href="#DejaVuSans-37" x="63.623047"/>
     </g>
    </g>
   </g>
   <g id="text_39">
    <g clip-path="url(#p1939df5b7b)">
     <!-- 38 -->
     <g transform="translate(122.564032 187.776501) scale(0.1 -0.1)">
      <use xlink:href="#DejaVuSans-33"/>
      <use xlink:href="#DejaVuSans-38" x="63.623047"/>
     </g>
    </g>
   </g>
   <g id="text_40">
    <g clip-path="url(#p1939df5b7b)">
     <!-- 39 -->
     <g transform="translate(158.059719 83.268507) scale(0.1 -0.1)">
      <use xlink:href="#DejaVuSans-33"/>
      <use xlink:href="#DejaVuSans-39" x="63.623047"/>
     </g>
    </g>
   </g>
   <g id="text_41">
    <g clip-path="url(#p1939df5b7b)">
     <!-- 40 -->
     <g transform="translate(124.052083 169.383558) scale(0.1 -0.1)">
      <use xlink:href="#DejaVuSans-34"/>
      <use xlink:href="#DejaVuSans-30" x="63.623047"/>
     </g>
    </g>
   </g>
   <g id="text_42">
    <g clip-path="url(#p1939df5b7b)">
     <!-- 41 -->
     <g transform="translate(208.192565 221.23187) scale(0.1 -0.1)">
      <use xlink:href="#DejaVuSans-34"/>
      <use xlink:href="#DejaVuSans-31" x="63.623047"/>
     </g>
    </g>
   </g>
   <g id="text_43">
    <g clip-path="url(#p1939df5b7b)">
     <!-- 42 -->
     <g transform="translate(165.353185 225.340612) scale(0.1 -0.1)">
      <use xlink:href="#DejaVuSans-34"/>
      <use xlink:href="#DejaVuSans-32" x="63.623047"/>
     </g>
    </g>
   </g>
   <g id="text_44">
    <g clip-path="url(#p1939df5b7b)">
     <!-- 43 -->
     <g transform="translate(207.283738 195.390841) scale(0.1 -0.1)">
      <use xlink:href="#DejaVuSans-34"/>
      <use xlink:href="#DejaVuSans-33" x="63.623047"/>
     </g>
    </g>
   </g>
   <g id="text_45">
    <g clip-path="url(#p1939df5b7b)">
     <!-- 44 -->
     <g transform="translate(143.656539 86.183961) scale(0.1 -0.1)">
      <use xlink:href="#DejaVuSans-34"/>
      <use xlink:href="#DejaVuSans-34" x="63.623047"/>
     </g>
    </g>
   </g>
   <g id="text_46">
    <g clip-path="url(#p1939df5b7b)">
     <!-- 45 -->
     <g transform="translate(138.013654 99.543635) scale(0.1 -0.1)">
      <use xlink:href="#DejaVuSans-34"/>
      <use xlink:href="#DejaVuSans-35" x="63.623047"/>
     </g>
    </g>
   </g>
   <g id="text_47">
    <g clip-path="url(#p1939df5b7b)">
     <!-- 46 -->
     <g transform="translate(167.869605 123.119774) scale(0.1 -0.1)">
      <use xlink:href="#DejaVuSans-34"/>
      <use xlink:href="#DejaVuSans-36" x="63.623047"/>
     </g>
    </g>
   </g>
   <g id="text_48">
    <g clip-path="url(#p1939df5b7b)">
     <!-- 47 -->
     <g transform="translate(131.738122 113.210322) scale(0.1 -0.1)">
      <use xlink:href="#DejaVuSans-34"/>
      <use xlink:href="#DejaVuSans-37" x="63.623047"/>
     </g>
    </g>
   </g>
   <g id="text_49">
    <g clip-path="url(#p1939df5b7b)">
     <!-- 48 -->
     <g transform="translate(356.615628 109.529319) scale(0.1 -0.1)">
      <use xlink:href="#DejaVuSans-34"/>
      <use xlink:href="#DejaVuSans-38" x="63.623047"/>
     </g>
    </g>
   </g>
   <g id="text_50">
    <g clip-path="url(#p1939df5b7b)">
     <!-- 49 -->
     <g transform="translate(295.891009 54.474893) scale(0.1 -0.1)">
      <use xlink:href="#DejaVuSans-34"/>
      <use xlink:href="#DejaVuSans-39" x="63.623047"/>
     </g>
    </g>
   </g>
   <g id="text_51">
    <g clip-path="url(#p1939df5b7b)">
     <!-- 50 -->
     <g transform="translate(363.410634 44.456818) scale(0.1 -0.1)">
      <use xlink:href="#DejaVuSans-35"/>
      <use xlink:href="#DejaVuSans-30" x="63.623047"/>
     </g>
    </g>
   </g>
   <g id="text_52">
    <g clip-path="url(#p1939df5b7b)">
     <!-- 51 -->
     <g transform="translate(260.357848 74.19202) scale(0.1 -0.1)">
      <use xlink:href="#DejaVuSans-35"/>
      <use xlink:href="#DejaVuSans-31" x="63.623047"/>
     </g>
    </g>
   </g>
   <g id="text_53">
    <g clip-path="url(#p1939df5b7b)">
     <!-- 52 -->
     <g transform="translate(230.098605 192.411731) scale(0.1 -0.1)">
      <use xlink:href="#DejaVuSans-35"/>
      <use xlink:href="#DejaVuSans-32" x="63.623047"/>
     </g>
    </g>
   </g>
   <g id="text_54">
    <g clip-path="url(#p1939df5b7b)">
     <!-- 53 -->
     <g transform="translate(323.497327 114.353279) scale(0.1 -0.1)">
      <use xlink:href="#DejaVuSans-35"/>
      <use xlink:href="#DejaVuSans-33" x="63.623047"/>
     </g>
    </g>
   </g>
   <g id="text_55">
    <g clip-path="url(#p1939df5b7b)">
     <!-- 54 -->
     <g transform="translate(218.159867 115.914936) scale(0.1 -0.1)">
      <use xlink:href="#DejaVuSans-35"/>
      <use xlink:href="#DejaVuSans-34" x="63.623047"/>
     </g>
    </g>
   </g>
   <g id="text_56">
    <g clip-path="url(#p1939df5b7b)">
     <!-- 55 -->
     <g transform="translate(375.268631 148.691146) scale(0.1 -0.1)">
      <use xlink:href="#DejaVuSans-35"/>
      <use xlink:href="#DejaVuSans-35" x="63.623047"/>
     </g>
    </g>
   </g>
   <g id="text_57">
    <g clip-path="url(#p1939df5b7b)">
     <!-- 56 -->
     <g transform="translate(258.351533 152.478061) scale(0.1 -0.1)">
      <use xlink:href="#DejaVuSans-35"/>
      <use xlink:href="#DejaVuSans-36" x="63.623047"/>
     </g>
    </g>
   </g>
   <g id="text_58">
    <g clip-path="url(#p1939df5b7b)">
     <!-- 57 -->
     <g transform="translate(198.109669 235.143846) scale(0.1 -0.1)">
      <use xlink:href="#DejaVuSans-35"/>
      <use xlink:href="#DejaVuSans-37" x="63.623047"/>
     </g>
    </g>
   </g>
  </g>
 </g>
 <defs>
  <clipPath id="p1939df5b7b">
   <rect x="0" y="0" width="460.8" height="345.6"/>
  </clipPath>
 </defs>
</svg>
