<?xml version="1.0" encoding="utf-8" standalone="no"?>
<!DOCTYPE svg PUBLIC "-//W3C//DTD SVG 1.1//EN"
  "http://www.w3.org/Graphics/SVG/1.1/DTD/svg11.dtd">
<svg xmlns:xlink="http://www.w3.org/1999/xlink" width="460.8pt" height="345.6pt" viewBox="0 0 460.8 345.6" xmlns="http://www.w3.org/2000/svg" version="1.1">
 <metadata>
  <rdf:RDF xmlns:dc="http://purl.org/dc/elements/1.1/" xmlns:cc="http://creativecommons.org/ns#" xmlns:rdf="http://www.w3.org/1999/02/22-rdf-syntax-ns#">
   <cc:Work>
    <dc:type rdf:resource="http://purl.org/dc/dcmitype/StillImage"/>
    <dc:date>2023-10-10T10:56:29.115763</dc:date>
    <dc:format>image/svg+xml</dc:format>
    <dc:creator>
     <cc:Agent>
      <dc:title>Matplotlib v3.6.1, https://matplotlib.org/</dc:title>
     </cc:Agent>
    </dc:creator>
   </cc:Work>
  </rdf:RDF>
 </metadata>
 <defs>
  <style type="text/css">*{stroke-linejoin: round; stroke-linecap: butt}</style>
 </defs>
 <g id="figure_1">
  <g id="patch_1">
   <path d="M 0 345.6 
L 460.8 345.6 
L 460.8 0 
L 0 0 
z
" style="fill: #ffffff"/>
  </g>
  <g id="axes_1">
   <g id="patch_2">
    <path d="M 351.418428 225.912996 
Q 330.779529 247.328319 310.916472 267.938614 
" clip-path="url(#p88d6e7ed7a)" style="fill: none; stroke: #000000; stroke-linecap: round"/>
    <path d="M 315.132285 266.446325 
L 310.916472 267.938614 
L 312.252129 263.670591 
L 315.132285 266.446325 
z
" clip-path="url(#p88d6e7ed7a)" style="stroke: #000000; stroke-linecap: round"/>
   </g>
   <g id="patch_3">
    <path d="M 351.242528 225.715055 
Q 335.14665 238.388573 319.929194 250.370443 
" clip-path="url(#p88d6e7ed7a)" style="fill: none; stroke: #000000; stroke-linecap: round"/>
    <path d="M 324.309185 249.467295 
L 319.929194 250.370443 
L 321.83467 246.324561 
L 324.309185 249.467295 
z
" clip-path="url(#p88d6e7ed7a)" style="stroke: #000000; stroke-linecap: round"/>
   </g>
   <g id="patch_4">
    <path d="M 353.465025 222.713601 
Q 361.208965 202.813235 368.547455 183.954795 
" clip-path="url(#p88d6e7ed7a)" style="fill: none; stroke: #000000; stroke-linecap: round"/>
    <path d="M 365.233017 186.957212 
L 368.547455 183.954795 
L 368.960725 188.407795 
L 365.233017 186.957212 
z
" clip-path="url(#p88d6e7ed7a)" style="stroke: #000000; stroke-linecap: round"/>
   </g>
   <g id="patch_5">
    <path d="M 350.946723 223.852288 
Q 326.799687 215.001716 303.702393 206.535904 
" clip-path="url(#p88d6e7ed7a)" style="fill: none; stroke: #000000; stroke-linecap: round"/>
    <path d="M 306.769786 209.790301 
L 303.702393 206.535904 
L 308.146347 206.034628 
L 306.769786 209.790301 
z
" clip-path="url(#p88d6e7ed7a)" style="stroke: #000000; stroke-linecap: round"/>
   </g>
   <g id="patch_6">
    <path d="M 354.140535 223.160897 
Q 372.595397 204.981804 390.25376 187.587307 
" clip-path="url(#p88d6e7ed7a)" style="fill: none; stroke: #000000; stroke-linecap: round"/>
    <path d="M 386.000594 188.969544 
L 390.25376 187.587307 
L 388.80765 191.819182 
L 386.000594 188.969544 
z
" clip-path="url(#p88d6e7ed7a)" style="stroke: #000000; stroke-linecap: round"/>
   </g>
   <g id="patch_7">
    <path d="M 354.331967 225.654958 
Q 369.199361 236.428242 383.161421 246.545498 
" clip-path="url(#p88d6e7ed7a)" style="fill: none; stroke: #000000; stroke-linecap: round"/>
    <path d="M 381.095939 242.578915 
L 383.161421 246.545498 
L 378.748865 245.817934 
L 381.095939 242.578915 
z
" clip-path="url(#p88d6e7ed7a)" style="stroke: #000000; stroke-linecap: round"/>
   </g>
   <g id="patch_8">
    <path d="M 354.68238 224.793309 
Q 375.0065 227.708758 394.223916 230.465453 
" clip-path="url(#p88d6e7ed7a)" style="fill: none; stroke: #000000; stroke-linecap: round"/>
    <path d="M 390.548434 227.917741 
L 394.223916 230.465453 
L 389.980457 231.877211 
L 390.548434 227.917741 
z
" clip-path="url(#p88d6e7ed7a)" style="stroke: #000000; stroke-linecap: round"/>
   </g>
   <g id="patch_9">
    <path d="M 310.140119 268.744174 
Q 330.779017 247.328851 350.642074 226.718556 
" clip-path="url(#p88d6e7ed7a)" style="fill: none; stroke: #000000; stroke-linecap: round"/>
    <path d="M 346.426262 228.210845 
L 350.642074 226.718556 
L 349.306418 230.986579 
L 346.426262 228.210845 
z
" clip-path="url(#p88d6e7ed7a)" style="stroke: #000000; stroke-linecap: round"/>
   </g>
   <g id="patch_10">
    <path d="M 307.087433 271.04277 
Q 279.583739 285.590747 253.06834 299.615969 
" clip-path="url(#p88d6e7ed7a)" style="fill: none; stroke: #000000; stroke-linecap: round"/>
    <path d="M 257.539305 299.51362 
L 253.06834 299.615969 
L 255.66904 295.977788 
L 257.539305 299.51362 
z
" clip-path="url(#p88d6e7ed7a)" style="stroke: #000000; stroke-linecap: round"/>
   </g>
   <g id="patch_11">
    <path d="M 268.319935 273.172672 
Q 245.443503 279.944281 223.639124 286.398554 
" clip-path="url(#p88d6e7ed7a)" style="fill: none; stroke: #000000; stroke-linecap: round"/>
    <path d="M 228.042286 287.180964 
L 223.639124 286.398554 
L 226.906949 283.34547 
L 228.042286 287.180964 
z
" clip-path="url(#p88d6e7ed7a)" style="stroke: #000000; stroke-linecap: round"/>
   </g>
   <g id="patch_12">
    <path d="M 271.954229 271.858659 
Q 293.853439 262.441216 314.725559 253.465458 
" clip-path="url(#p88d6e7ed7a)" style="fill: none; stroke: #000000; stroke-linecap: round"/>
    <path d="M 310.260819 253.208365 
L 314.725559 253.465458 
L 311.841041 256.882995 
L 310.260819 253.208365 
z
" clip-path="url(#p88d6e7ed7a)" style="stroke: #000000; stroke-linecap: round"/>
   </g>
   <g id="patch_13">
    <path d="M 319.050535 251.062278 
Q 335.146412 238.388761 350.363869 226.406891 
" clip-path="url(#p88d6e7ed7a)" style="fill: none; stroke: #000000; stroke-linecap: round"/>
    <path d="M 345.983878 227.310039 
L 350.363869 226.406891 
L 348.458393 230.452773 
L 345.983878 227.310039 
z
" clip-path="url(#p88d6e7ed7a)" style="stroke: #000000; stroke-linecap: round"/>
   </g>
   <g id="patch_14">
    <path d="M 315.75269 253.023755 
Q 293.85348 262.441198 272.981359 271.416956 
" clip-path="url(#p88d6e7ed7a)" style="fill: none; stroke: #000000; stroke-linecap: round"/>
    <path d="M 277.446099 271.674049 
L 272.981359 271.416956 
L 275.865878 267.99942 
L 277.446099 271.674049 
z
" clip-path="url(#p88d6e7ed7a)" style="stroke: #000000; stroke-linecap: round"/>
   </g>
   <g id="patch_15">
    <path d="M 270.639103 102.398162 
Q 286.149936 88.870286 300.818177 76.077283 
" clip-path="url(#p88d6e7ed7a)" style="fill: none; stroke: #000000; stroke-linecap: round"/>
    <path d="M 296.489046 77.199168 
L 300.818177 76.077283 
L 299.118206 80.213719 
L 296.489046 77.199168 
z
" clip-path="url(#p88d6e7ed7a)" style="stroke: #000000; stroke-linecap: round"/>
   </g>
   <g id="patch_16">
    <path d="M 268.399018 105.445171 
Q 260.322191 123.817655 252.695309 141.166642 
" clip-path="url(#p88d6e7ed7a)" style="fill: none; stroke: #000000; stroke-linecap: round"/>
    <path d="M 256.135973 138.30975 
L 252.695309 141.166642 
L 252.474194 136.699975 
L 256.135973 138.30975 
z
" clip-path="url(#p88d6e7ed7a)" style="stroke: #000000; stroke-linecap: round"/>
   </g>
   <g id="patch_17">
    <path d="M 252.244525 142.192046 
Q 260.321353 123.819562 267.948235 106.470576 
" clip-path="url(#p88d6e7ed7a)" style="fill: none; stroke: #000000; stroke-linecap: round"/>
    <path d="M 264.507571 109.327467 
L 267.948235 106.470576 
L 268.16935 110.937242 
L 264.507571 109.327467 
z
" clip-path="url(#p88d6e7ed7a)" style="stroke: #000000; stroke-linecap: round"/>
   </g>
   <g id="patch_18">
    <path d="M 251.272136 145.893953 
Q 249.123997 167.37446 247.08711 187.742483 
" clip-path="url(#p88d6e7ed7a)" style="fill: none; stroke: #000000; stroke-linecap: round"/>
    <path d="M 249.475215 183.961352 
L 247.08711 187.742483 
L 245.495068 183.56332 
L 249.475215 183.961352 
z
" clip-path="url(#p88d6e7ed7a)" style="stroke: #000000; stroke-linecap: round"/>
   </g>
   <g id="patch_19">
    <path d="M 368.953367 182.911684 
Q 361.209427 202.81205 353.870937 221.67049 
" clip-path="url(#p88d6e7ed7a)" style="fill: none; stroke: #000000; stroke-linecap: round"/>
    <path d="M 357.185375 218.668074 
L 353.870937 221.67049 
L 353.457667 217.21749 
L 357.185375 218.668074 
z
" clip-path="url(#p88d6e7ed7a)" style="stroke: #000000; stroke-linecap: round"/>
   </g>
   <g id="patch_20">
    <path d="M 370.154539 179.233865 
Q 375.27928 159.994608 380.116246 141.835715 
" clip-path="url(#p88d6e7ed7a)" style="fill: none; stroke: #000000; stroke-linecap: round"/>
    <path d="M 377.154056 145.186153 
L 380.116246 141.835715 
L 381.019282 146.215729 
L 377.154056 145.186153 
z
" clip-path="url(#p88d6e7ed7a)" style="stroke: #000000; stroke-linecap: round"/>
   </g>
   <g id="patch_21">
    <path d="M 380.402869 140.759677 
Q 375.278127 159.998934 370.441162 178.157828 
" clip-path="url(#p88d6e7ed7a)" style="fill: none; stroke: #000000; stroke-linecap: round"/>
    <path d="M 373.403351 174.80739 
L 370.441162 178.157828 
L 369.538125 173.777813 
L 373.403351 174.80739 
z
" clip-path="url(#p88d6e7ed7a)" style="stroke: #000000; stroke-linecap: round"/>
   </g>
   <g id="patch_22">
    <path d="M 381.234551 136.980898 
Q 384.169521 120.170329 386.912202 104.461134 
" clip-path="url(#p88d6e7ed7a)" style="fill: none; stroke: #000000; stroke-linecap: round"/>
    <path d="M 384.254048 108.057551 
L 386.912202 104.461134 
L 388.194443 108.745507 
L 384.254048 108.057551 
z
" clip-path="url(#p88d6e7ed7a)" style="stroke: #000000; stroke-linecap: round"/>
   </g>
   <g id="patch_23">
    <path d="M 246.976132 188.852217 
Q 249.124272 167.371709 251.161158 147.003687 
" clip-path="url(#p88d6e7ed7a)" style="fill: none; stroke: #000000; stroke-linecap: round"/>
    <path d="M 248.773053 150.784818 
L 251.161158 147.003687 
L 252.7532 151.182849 
L 248.773053 150.784818 
z
" clip-path="url(#p88d6e7ed7a)" style="stroke: #000000; stroke-linecap: round"/>
   </g>
   <g id="patch_24">
    <path d="M 248.653736 191.289797 
Q 273.8085 198.132667 297.884436 204.682063 
" clip-path="url(#p88d6e7ed7a)" style="fill: none; stroke: #000000; stroke-linecap: round"/>
    <path d="M 294.549683 201.702227 
L 297.884436 204.682063 
L 293.499715 205.561964 
L 294.549683 201.702227 
z
" clip-path="url(#p88d6e7ed7a)" style="stroke: #000000; stroke-linecap: round"/>
   </g>
   <g id="patch_25">
    <path d="M 245.326257 192.060676 
Q 224.961833 209.947193 205.437432 227.095901 
" clip-path="url(#p88d6e7ed7a)" style="fill: none; stroke: #000000; stroke-linecap: round"/>
    <path d="M 209.76262 225.95891 
L 205.437432 227.095901 
L 207.122952 222.953556 
L 209.76262 225.95891 
z
" clip-path="url(#p88d6e7ed7a)" style="stroke: #000000; stroke-linecap: round"/>
   </g>
   <g id="patch_26">
    <path d="M 302.648876 206.14976 
Q 326.795912 215.000332 349.893206 223.466144 
" clip-path="url(#p88d6e7ed7a)" style="fill: none; stroke: #000000; stroke-linecap: round"/>
    <path d="M 346.825813 220.211746 
L 349.893206 223.466144 
L 345.449252 223.96742 
L 346.825813 220.211746 
z
" clip-path="url(#p88d6e7ed7a)" style="stroke: #000000; stroke-linecap: round"/>
   </g>
   <g id="patch_27">
    <path d="M 298.962228 204.975256 
Q 273.807464 198.132385 249.731528 191.58299 
" clip-path="url(#p88d6e7ed7a)" style="fill: none; stroke: #000000; stroke-linecap: round"/>
    <path d="M 253.066281 194.562826 
L 249.731528 191.58299 
L 254.116249 190.703089 
L 253.066281 194.562826 
z
" clip-path="url(#p88d6e7ed7a)" style="stroke: #000000; stroke-linecap: round"/>
   </g>
   <g id="patch_28">
    <path d="M 348.452213 61.264071 
Q 326.718086 67.403083 306.059895 73.238186 
" clip-path="url(#p88d6e7ed7a)" style="fill: none; stroke: #000000; stroke-linecap: round"/>
    <path d="M 310.452931 74.075584 
L 306.059895 73.238186 
L 309.365634 70.226196 
L 310.452931 74.075584 
z
" clip-path="url(#p88d6e7ed7a)" style="stroke: #000000; stroke-linecap: round"/>
   </g>
   <g id="patch_29">
    <path d="M 351.618659 62.166677 
Q 368.875191 81.095537 385.378494 99.198173 
" clip-path="url(#p88d6e7ed7a)" style="fill: none; stroke: #000000; stroke-linecap: round"/>
    <path d="M 384.161656 94.894767 
L 385.378494 99.198173 
L 381.205666 97.5896 
L 384.161656 94.894767 
z
" clip-path="url(#p88d6e7ed7a)" style="stroke: #000000; stroke-linecap: round"/>
   </g>
   <g id="patch_30">
    <path d="M 351.269157 59.052704 
Q 358.785198 45.767674 365.750709 33.455739 
" clip-path="url(#p88d6e7ed7a)" style="fill: none; stroke: #000000; stroke-linecap: round"/>
    <path d="M 362.040341 35.952371 
L 365.750709 33.455739 
L 365.521794 37.922012 
L 362.040341 35.952371 
z
" clip-path="url(#p88d6e7ed7a)" style="stroke: #000000; stroke-linecap: round"/>
   </g>
   <g id="patch_31">
    <path d="M 349.506524 58.977329 
Q 343.246918 45.363019 337.454361 32.764516 
" clip-path="url(#p88d6e7ed7a)" style="fill: none; stroke: #000000; stroke-linecap: round"/>
    <path d="M 337.308196 37.234263 
L 337.454361 32.764516 
L 340.942459 35.563296 
L 337.308196 37.234263 
z
" clip-path="url(#p88d6e7ed7a)" style="stroke: #000000; stroke-linecap: round"/>
   </g>
   <g id="patch_32">
    <path d="M 387.104215 103.361343 
Q 384.169245 120.171912 381.426565 135.881107 
" clip-path="url(#p88d6e7ed7a)" style="fill: none; stroke: #000000; stroke-linecap: round"/>
    <path d="M 384.084719 132.28469 
L 381.426565 135.881107 
L 380.144324 131.596734 
L 384.084719 132.28469 
z
" clip-path="url(#p88d6e7ed7a)" style="stroke: #000000; stroke-linecap: round"/>
   </g>
   <g id="patch_33">
    <path d="M 386.134098 100.027002 
Q 368.877566 81.098142 352.374262 62.995506 
" clip-path="url(#p88d6e7ed7a)" style="fill: none; stroke: #000000; stroke-linecap: round"/>
    <path d="M 353.591101 67.298912 
L 352.374262 62.995506 
L 356.54709 64.604079 
L 353.591101 67.298912 
z
" clip-path="url(#p88d6e7ed7a)" style="stroke: #000000; stroke-linecap: round"/>
   </g>
   <g id="patch_34">
    <path d="M 388.210024 103.230191 
Q 396.221058 121.613176 403.785439 138.971222 
" clip-path="url(#p88d6e7ed7a)" style="fill: none; stroke: #000000; stroke-linecap: round"/>
    <path d="M 404.02091 134.505289 
L 403.785439 138.971222 
L 400.353976 136.103285 
L 404.02091 134.505289 
z
" clip-path="url(#p88d6e7ed7a)" style="stroke: #000000; stroke-linecap: round"/>
   </g>
   <g id="patch_35">
    <path d="M 389.095091 100.446983 
Q 404.127519 91.299666 418.204843 82.733535 
" clip-path="url(#p88d6e7ed7a)" style="fill: none; stroke: #000000; stroke-linecap: round"/>
    <path d="M 413.748103 83.104308 
L 418.204843 82.733535 
L 415.827417 86.52139 
L 413.748103 83.104308 
z
" clip-path="url(#p88d6e7ed7a)" style="stroke: #000000; stroke-linecap: round"/>
   </g>
   <g id="patch_36">
    <path d="M 225.752555 254.341475 
Q 215.094853 242.448661 205.183303 231.388468 
" clip-path="url(#p88d6e7ed7a)" style="fill: none; stroke: #000000; stroke-linecap: round"/>
    <path d="M 206.363374 235.702101 
L 205.183303 231.388468 
L 209.342252 233.032591 
L 206.363374 235.702101 
z
" clip-path="url(#p88d6e7ed7a)" style="stroke: #000000; stroke-linecap: round"/>
   </g>
   <g id="patch_37">
    <path d="M 179.464802 311.484316 
Q 150.303101 313.481017 122.256822 315.401346 
" clip-path="url(#p88d6e7ed7a)" style="fill: none; stroke: #000000; stroke-linecap: round"/>
    <path d="M 126.384099 317.123434 
L 122.256822 315.401346 
L 126.110859 313.132777 
L 126.384099 317.123434 
z
" clip-path="url(#p88d6e7ed7a)" style="stroke: #000000; stroke-linecap: round"/>
   </g>
   <g id="patch_38">
    <path d="M 183.312086 311.065805 
Q 215.883588 306.198298 247.349334 301.496036 
" clip-path="url(#p88d6e7ed7a)" style="fill: none; stroke: #000000; stroke-linecap: round"/>
    <path d="M 243.097666 300.109199 
L 247.349334 301.496036 
L 243.688864 304.065268 
L 243.097666 300.109199 
z
" clip-path="url(#p88d6e7ed7a)" style="stroke: #000000; stroke-linecap: round"/>
   </g>
   <g id="patch_39">
    <path d="M 180.898217 309.48324 
Q 177.870101 298.13162 175.130151 287.860259 
" clip-path="url(#p88d6e7ed7a)" style="fill: none; stroke: #000000; stroke-linecap: round"/>
    <path d="M 174.228698 292.2406 
L 175.130151 287.860259 
L 178.093551 291.209626 
L 174.228698 292.2406 
z
" clip-path="url(#p88d6e7ed7a)" style="stroke: #000000; stroke-linecap: round"/>
   </g>
   <g id="patch_40">
    <path d="M 252.074595 300.141607 
Q 279.578289 285.59363 306.093687 271.568408 
" clip-path="url(#p88d6e7ed7a)" style="fill: none; stroke: #000000; stroke-linecap: round"/>
    <path d="M 301.622723 271.670757 
L 306.093687 271.568408 
L 303.492988 275.206589 
L 301.622723 271.670757 
z
" clip-path="url(#p88d6e7ed7a)" style="stroke: #000000; stroke-linecap: round"/>
   </g>
   <g id="patch_41">
    <path d="M 248.45101 301.3314 
Q 215.879508 306.198907 184.413761 310.90117 
" clip-path="url(#p88d6e7ed7a)" style="fill: none; stroke: #000000; stroke-linecap: round"/>
    <path d="M 188.66543 312.288007 
L 184.413761 310.90117 
L 188.074232 308.331937 
L 188.66543 312.288007 
z
" clip-path="url(#p88d6e7ed7a)" style="stroke: #000000; stroke-linecap: round"/>
   </g>
   <g id="patch_42">
    <path d="M 419.154998 82.15536 
Q 404.122571 91.302677 390.045247 99.868808 
" clip-path="url(#p88d6e7ed7a)" style="fill: none; stroke: #000000; stroke-linecap: round"/>
    <path d="M 394.501987 99.498035 
L 390.045247 99.868808 
L 392.422673 96.080952 
L 394.501987 99.498035 
z
" clip-path="url(#p88d6e7ed7a)" style="stroke: #000000; stroke-linecap: round"/>
   </g>
   <g id="patch_43">
    <path d="M 301.661364 75.341892 
Q 286.150531 88.869768 271.48229 101.662771 
" clip-path="url(#p88d6e7ed7a)" style="fill: none; stroke: #000000; stroke-linecap: round"/>
    <path d="M 275.811421 100.540886 
L 271.48229 101.662771 
L 273.182261 97.526335 
L 275.811421 100.540886 
z
" clip-path="url(#p88d6e7ed7a)" style="stroke: #000000; stroke-linecap: round"/>
   </g>
   <g id="patch_44">
    <path d="M 304.985619 73.541626 
Q 326.719746 67.402614 347.377937 61.56751 
" clip-path="url(#p88d6e7ed7a)" style="fill: none; stroke: #000000; stroke-linecap: round"/>
    <path d="M 342.984901 60.730113 
L 347.377937 61.56751 
L 344.072198 64.579501 
L 342.984901 60.730113 
z
" clip-path="url(#p88d6e7ed7a)" style="stroke: #000000; stroke-linecap: round"/>
   </g>
   <g id="patch_45">
    <path d="M 404.232924 139.998069 
Q 396.221889 121.615084 388.657508 104.257038 
" clip-path="url(#p88d6e7ed7a)" style="fill: none; stroke: #000000; stroke-linecap: round"/>
    <path d="M 388.422037 108.722971 
L 388.657508 104.257038 
L 392.088972 107.124974 
L 388.422037 108.722971 
z
" clip-path="url(#p88d6e7ed7a)" style="stroke: #000000; stroke-linecap: round"/>
   </g>
   <g id="patch_46">
    <path d="M 404.469604 143.635352 
Q 398.718358 163.608651 393.276477 182.50757 
" clip-path="url(#p88d6e7ed7a)" style="fill: none; stroke: #000000; stroke-linecap: round"/>
    <path d="M 396.305203 179.217157 
L 393.276477 182.50757 
L 392.461382 178.110341 
L 396.305203 179.217157 
z
" clip-path="url(#p88d6e7ed7a)" style="stroke: #000000; stroke-linecap: round"/>
   </g>
   <g id="patch_47">
    <path d="M 391.05383 186.799192 
Q 372.598968 204.978286 354.940605 222.372783 
" clip-path="url(#p88d6e7ed7a)" style="fill: none; stroke: #000000; stroke-linecap: round"/>
    <path d="M 359.193771 220.990546 
L 354.940605 222.372783 
L 356.386715 218.140908 
L 359.193771 220.990546 
z
" clip-path="url(#p88d6e7ed7a)" style="stroke: #000000; stroke-linecap: round"/>
   </g>
   <g id="patch_48">
    <path d="M 392.967958 183.579014 
Q 398.719204 163.605715 404.161085 144.706796 
" clip-path="url(#p88d6e7ed7a)" style="fill: none; stroke: #000000; stroke-linecap: round"/>
    <path d="M 401.132359 147.997209 
L 404.161085 144.706796 
L 404.97618 149.104024 
L 401.132359 147.997209 
z
" clip-path="url(#p88d6e7ed7a)" style="stroke: #000000; stroke-linecap: round"/>
   </g>
   <g id="patch_49">
    <path d="M 366.302236 32.480882 
Q 358.786195 45.765913 351.820684 58.077848 
" clip-path="url(#p88d6e7ed7a)" style="fill: none; stroke: #000000; stroke-linecap: round"/>
    <path d="M 355.531052 55.581215 
L 351.820684 58.077848 
L 352.049599 53.611574 
L 355.531052 55.581215 
z
" clip-path="url(#p88d6e7ed7a)" style="stroke: #000000; stroke-linecap: round"/>
   </g>
   <g id="patch_50">
    <path d="M 336.988095 31.750411 
Q 343.247701 45.364722 349.040257 57.963224 
" clip-path="url(#p88d6e7ed7a)" style="fill: none; stroke: #000000; stroke-linecap: round"/>
    <path d="M 349.186422 53.493478 
L 349.040257 57.963224 
L 345.552159 55.164444 
L 349.186422 53.493478 
z
" clip-path="url(#p88d6e7ed7a)" style="stroke: #000000; stroke-linecap: round"/>
   </g>
   <g id="patch_51">
    <path d="M 384.068292 247.20264 
Q 369.200899 236.429356 355.238838 226.3121 
" clip-path="url(#p88d6e7ed7a)" style="fill: none; stroke: #000000; stroke-linecap: round"/>
    <path d="M 357.30432 230.278683 
L 355.238838 226.3121 
L 359.651394 227.039664 
L 357.30432 230.278683 
z
" clip-path="url(#p88d6e7ed7a)" style="stroke: #000000; stroke-linecap: round"/>
   </g>
   <g id="patch_52">
    <path d="M 395.325726 230.623505 
Q 375.001606 227.708056 355.784191 224.951362 
" clip-path="url(#p88d6e7ed7a)" style="fill: none; stroke: #000000; stroke-linecap: round"/>
    <path d="M 359.459672 227.499074 
L 355.784191 224.951362 
L 360.027649 223.539604 
L 359.459672 227.499074 
z
" clip-path="url(#p88d6e7ed7a)" style="stroke: #000000; stroke-linecap: round"/>
   </g>
   <g id="patch_53">
    <path d="M 174.842013 286.780106 
Q 177.870129 298.131726 180.610079 308.403087 
" clip-path="url(#p88d6e7ed7a)" style="fill: none; stroke: #000000; stroke-linecap: round"/>
    <path d="M 181.511532 304.022747 
L 180.610079 308.403087 
L 177.646679 305.053721 
L 181.511532 304.022747 
z
" clip-path="url(#p88d6e7ed7a)" style="stroke: #000000; stroke-linecap: round"/>
   </g>
   <g id="patch_54">
    <path d="M 176.27639 285.00945 
Q 197.526469 286.088401 217.659953 287.110658 
" clip-path="url(#p88d6e7ed7a)" style="fill: none; stroke: #000000; stroke-linecap: round"/>
    <path d="M 213.766516 284.910397 
L 217.659953 287.110658 
L 213.563681 288.905251 
L 213.766516 284.910397 
z
" clip-path="url(#p88d6e7ed7a)" style="stroke: #000000; stroke-linecap: round"/>
   </g>
   <g id="patch_55">
    <path d="M 173.222963 283.332016 
Q 162.184266 267.773985 151.79253 253.127788 
" clip-path="url(#p88d6e7ed7a)" style="fill: none; stroke: #000000; stroke-linecap: round"/>
    <path d="M 152.476034 257.547383 
L 151.79253 253.127788 
L 155.738309 255.232742 
L 152.476034 257.547383 
z
" clip-path="url(#p88d6e7ed7a)" style="stroke: #000000; stroke-linecap: round"/>
   </g>
   <g id="patch_56">
    <path d="M 222.567029 286.715903 
Q 245.44346 279.944294 267.247839 273.490021 
" clip-path="url(#p88d6e7ed7a)" style="fill: none; stroke: #000000; stroke-linecap: round"/>
    <path d="M 262.844677 272.707611 
L 267.247839 273.490021 
L 263.980014 276.543105 
L 262.844677 272.707611 
z
" clip-path="url(#p88d6e7ed7a)" style="stroke: #000000; stroke-linecap: round"/>
   </g>
   <g id="patch_57">
    <path d="M 218.777333 287.167392 
Q 197.527253 286.088441 177.39377 285.066184 
" clip-path="url(#p88d6e7ed7a)" style="fill: none; stroke: #000000; stroke-linecap: round"/>
    <path d="M 181.287206 287.266445 
L 177.39377 285.066184 
L 181.490041 283.271591 
L 181.287206 287.266445 
z
" clip-path="url(#p88d6e7ed7a)" style="stroke: #000000; stroke-linecap: round"/>
   </g>
   <g id="patch_58">
    <path d="M 121.142577 315.477638 
Q 150.304278 313.480937 178.350556 311.560608 
" clip-path="url(#p88d6e7ed7a)" style="fill: none; stroke: #000000; stroke-linecap: round"/>
    <path d="M 174.22328 309.83852 
L 178.350556 311.560608 
L 174.49652 313.829177 
L 174.22328 309.83852 
z
" clip-path="url(#p88d6e7ed7a)" style="stroke: #000000; stroke-linecap: round"/>
   </g>
   <g id="patch_59">
    <path d="M 117.328324 315.150514 
Q 93.552068 309.347645 70.861966 303.809865 
" clip-path="url(#p88d6e7ed7a)" style="fill: none; stroke: #000000; stroke-linecap: round"/>
    <path d="M 74.273701 306.701242 
L 70.861966 303.809865 
L 75.222109 302.815303 
L 74.273701 306.701242 
z
" clip-path="url(#p88d6e7ed7a)" style="stroke: #000000; stroke-linecap: round"/>
   </g>
   <g id="patch_60">
    <path d="M 69.778484 303.545429 
Q 93.55474 309.348297 116.244842 314.886078 
" clip-path="url(#p88d6e7ed7a)" style="fill: none; stroke: #000000; stroke-linecap: round"/>
    <path d="M 112.833108 311.994701 
L 116.244842 314.886078 
L 111.884699 315.88064 
L 112.833108 311.994701 
z
" clip-path="url(#p88d6e7ed7a)" style="stroke: #000000; stroke-linecap: round"/>
   </g>
   <g id="patch_61">
    <path d="M 66.516362 301.731482 
Q 53.942984 289.388224 42.167442 277.828201 
" clip-path="url(#p88d6e7ed7a)" style="fill: none; stroke: #000000; stroke-linecap: round"/>
    <path d="M 43.620777 282.0576 
L 42.167442 277.828201 
L 46.422963 279.203173 
L 43.620777 282.0576 
z
" clip-path="url(#p88d6e7ed7a)" style="stroke: #000000; stroke-linecap: round"/>
   </g>
   <g id="patch_62">
    <path d="M 41.366574 277.041991 
Q 53.939953 289.385248 65.715494 300.945271 
" clip-path="url(#p88d6e7ed7a)" style="fill: none; stroke: #000000; stroke-linecap: round"/>
    <path d="M 64.262159 296.715872 
L 65.715494 300.945271 
L 61.459974 299.5703 
L 64.262159 296.715872 
z
" clip-path="url(#p88d6e7ed7a)" style="stroke: #000000; stroke-linecap: round"/>
   </g>
   <g id="patch_63">
    <path d="M 40.737174 273.899257 
Q 45.775683 261.892532 50.381568 250.916747 
" clip-path="url(#p88d6e7ed7a)" style="fill: none; stroke: #000000; stroke-linecap: round"/>
    <path d="M 46.989564 253.831247 
L 50.381568 250.916747 
L 50.677965 255.37905 
L 46.989564 253.831247 
z
" clip-path="url(#p88d6e7ed7a)" style="stroke: #000000; stroke-linecap: round"/>
   </g>
   <g id="patch_64">
    <path d="M 50.813128 249.888342 
Q 45.774619 261.895067 41.168735 272.870851 
" clip-path="url(#p88d6e7ed7a)" style="fill: none; stroke: #000000; stroke-linecap: round"/>
    <path d="M 44.560738 269.956351 
L 41.168735 272.870851 
L 40.872337 268.408548 
L 44.560738 269.956351 
z
" clip-path="url(#p88d6e7ed7a)" style="stroke: #000000; stroke-linecap: round"/>
   </g>
   <g id="patch_65">
    <path d="M 53.498346 247.97394 
Q 73.070592 246.6972 91.527176 245.493237 
" clip-path="url(#p88d6e7ed7a)" style="fill: none; stroke: #000000; stroke-linecap: round"/>
    <path d="M 87.405471 243.757854 
L 91.527176 245.493237 
L 87.665847 247.749371 
L 87.405471 243.757854 
z
" clip-path="url(#p88d6e7ed7a)" style="stroke: #000000; stroke-linecap: round"/>
   </g>
   <g id="patch_66">
    <path d="M 92.641048 245.420577 
Q 73.068802 246.697317 54.612218 247.901279 
" clip-path="url(#p88d6e7ed7a)" style="fill: none; stroke: #000000; stroke-linecap: round"/>
    <path d="M 58.733923 249.636662 
L 54.612218 247.901279 
L 58.473547 245.645146 
L 58.733923 249.636662 
z
" clip-path="url(#p88d6e7ed7a)" style="stroke: #000000; stroke-linecap: round"/>
   </g>
   <g id="patch_67">
    <path d="M 96.501635 245.479999 
Q 122.298996 247.966741 146.983481 250.346207 
" clip-path="url(#p88d6e7ed7a)" style="fill: none; stroke: #000000; stroke-linecap: round"/>
    <path d="M 143.193838 247.971633 
L 146.983481 250.346207 
L 142.810036 251.953178 
L 143.193838 247.971633 
z
" clip-path="url(#p88d6e7ed7a)" style="stroke: #000000; stroke-linecap: round"/>
   </g>
   <g id="patch_68">
    <path d="M 200.999604 250.754483 
Q 201.975803 240.895942 202.841833 232.149994 
" clip-path="url(#p88d6e7ed7a)" style="fill: none; stroke: #000000; stroke-linecap: round"/>
    <path d="M 200.457411 235.93345 
L 202.841833 232.149994 
L 204.437944 236.327605 
L 200.457411 235.93345 
z
" clip-path="url(#p88d6e7ed7a)" style="stroke: #000000; stroke-linecap: round"/>
   </g>
   <g id="patch_69">
    <path d="M 204.599709 227.831691 
Q 224.964133 209.945174 244.488534 192.796466 
" clip-path="url(#p88d6e7ed7a)" style="fill: none; stroke: #000000; stroke-linecap: round"/>
    <path d="M 240.163346 193.933457 
L 244.488534 192.796466 
L 242.803014 196.938811 
L 240.163346 193.933457 
z
" clip-path="url(#p88d6e7ed7a)" style="stroke: #000000; stroke-linecap: round"/>
   </g>
   <g id="patch_70">
    <path d="M 204.435291 230.553769 
Q 215.092992 242.446584 225.004543 253.506777 
" clip-path="url(#p88d6e7ed7a)" style="fill: none; stroke: #000000; stroke-linecap: round"/>
    <path d="M 223.824472 249.193144 
L 225.004543 253.506777 
L 220.845594 251.862654 
L 223.824472 249.193144 
z
" clip-path="url(#p88d6e7ed7a)" style="stroke: #000000; stroke-linecap: round"/>
   </g>
   <g id="patch_71">
    <path d="M 202.952135 231.03606 
Q 201.975936 240.894601 201.109906 249.640549 
" clip-path="url(#p88d6e7ed7a)" style="fill: none; stroke: #000000; stroke-linecap: round"/>
    <path d="M 203.494328 245.857094 
L 201.109906 249.640549 
L 199.513795 245.462939 
L 203.494328 245.857094 
z
" clip-path="url(#p88d6e7ed7a)" style="stroke: #000000; stroke-linecap: round"/>
   </g>
   <g id="patch_72">
    <path d="M 201.349935 229.838029 
Q 176.585986 239.875066 152.858197 249.492138 
" clip-path="url(#p88d6e7ed7a)" style="fill: none; stroke: #000000; stroke-linecap: round"/>
    <path d="M 157.316535 249.843167 
L 152.858197 249.492138 
L 155.814024 246.136085 
L 157.316535 249.843167 
z
" clip-path="url(#p88d6e7ed7a)" style="stroke: #000000; stroke-linecap: round"/>
   </g>
   <g id="patch_73">
    <path d="M 151.147653 252.218892 
Q 162.18635 267.776923 172.578086 282.42312 
" clip-path="url(#p88d6e7ed7a)" style="fill: none; stroke: #000000; stroke-linecap: round"/>
    <path d="M 171.894581 278.003525 
L 172.578086 282.42312 
L 168.632307 280.318166 
L 171.894581 278.003525 
z
" clip-path="url(#p88d6e7ed7a)" style="stroke: #000000; stroke-linecap: round"/>
   </g>
   <g id="patch_74">
    <path d="M 148.101349 250.453964 
Q 122.303989 247.967222 97.619503 245.587756 
" clip-path="url(#p88d6e7ed7a)" style="fill: none; stroke: #000000; stroke-linecap: round"/>
    <path d="M 101.409147 247.96233 
L 97.619503 245.587756 
L 101.792949 243.980786 
L 101.409147 247.96233 
z
" clip-path="url(#p88d6e7ed7a)" style="stroke: #000000; stroke-linecap: round"/>
   </g>
   <g id="patch_75">
    <path d="M 151.819897 249.91297 
Q 176.583847 239.875933 200.311635 230.258861 
" clip-path="url(#p88d6e7ed7a)" style="fill: none; stroke: #000000; stroke-linecap: round"/>
    <path d="M 195.853297 229.907831 
L 200.311635 230.258861 
L 197.355809 233.614913 
L 195.853297 229.907831 
z
" clip-path="url(#p88d6e7ed7a)" style="stroke: #000000; stroke-linecap: round"/>
   </g>
   <g id="PathCollection_1">
    <defs>
     <path id="mb28074716a" d="M 0 1.936492 
C 0.513564 1.936492 1.006162 1.732451 1.369306 1.369306 
C 1.732451 1.006162 1.936492 0.513564 1.936492 0 
C 1.936492 -0.513564 1.732451 -1.006162 1.369306 -1.369306 
C 1.006162 -1.732451 0.513564 -1.936492 0 -1.936492 
C -0.513564 -1.936492 -1.006162 -1.732451 -1.369306 -1.369306 
C -1.732451 -1.006162 -1.936492 -0.513564 -1.936492 0 
C -1.936492 0.513564 -1.732451 1.006162 -1.369306 1.369306 
C -1.006162 1.732451 -0.513564 1.936492 0 1.936492 
z
" style="stroke: #1f78b4"/>
    </defs>
    <g clip-path="url(#p88d6e7ed7a)">
     <use xlink:href="#mb28074716a" x="352.762885" y="224.517962" style="fill: #1f78b4; stroke: #1f78b4"/>
     <use xlink:href="#mb28074716a" x="308.795662" y="270.139208" style="fill: #1f78b4; stroke: #1f78b4"/>
     <use xlink:href="#mb28074716a" x="270.176741" y="272.623042" style="fill: #1f78b4; stroke: #1f78b4"/>
     <use xlink:href="#mb28074716a" x="317.530178" y="252.259372" style="fill: #1f78b4; stroke: #1f78b4"/>
     <use xlink:href="#mb28074716a" x="269.178525" y="103.672015" style="fill: #1f78b4; stroke: #1f78b4"/>
     <use xlink:href="#mb28074716a" x="251.465019" y="143.965202" style="fill: #1f78b4; stroke: #1f78b4"/>
     <use xlink:href="#mb28074716a" x="369.655507" y="181.107324" style="fill: #1f78b4; stroke: #1f78b4"/>
     <use xlink:href="#mb28074716a" x="380.9019" y="138.886219" style="fill: #1f78b4; stroke: #1f78b4"/>
     <use xlink:href="#mb28074716a" x="246.783249" y="190.780967" style="fill: #1f78b4; stroke: #1f78b4"/>
     <use xlink:href="#mb28074716a" x="300.832715" y="205.484086" style="fill: #1f78b4; stroke: #1f78b4"/>
     <use xlink:href="#mb28074716a" x="350.31589" y="60.737657" style="fill: #1f78b4; stroke: #1f78b4"/>
     <use xlink:href="#mb28074716a" x="387.436867" y="101.456022" style="fill: #1f78b4; stroke: #1f78b4"/>
     <use xlink:href="#mb28074716a" x="227.045129" y="255.783845" style="fill: #1f78b4; stroke: #1f78b4"/>
     <use xlink:href="#mb28074716a" x="181.39673" y="311.352037" style="fill: #1f78b4; stroke: #1f78b4"/>
     <use xlink:href="#mb28074716a" x="250.366366" y="301.045168" style="fill: #1f78b4; stroke: #1f78b4"/>
     <use xlink:href="#mb28074716a" x="420.813223" y="81.146321" style="fill: #1f78b4; stroke: #1f78b4"/>
     <use xlink:href="#mb28074716a" x="303.121942" y="74.068039" style="fill: #1f78b4; stroke: #1f78b4"/>
     <use xlink:href="#mb28074716a" x="405.006081" y="141.772238" style="fill: #1f78b4; stroke: #1f78b4"/>
     <use xlink:href="#mb28074716a" x="392.431481" y="185.442128" style="fill: #1f78b4; stroke: #1f78b4"/>
     <use xlink:href="#mb28074716a" x="367.255503" y="30.795929" style="fill: #1f78b4; stroke: #1f78b4"/>
     <use xlink:href="#mb28074716a" x="336.178728" y="29.990083" style="fill: #1f78b4; stroke: #1f78b4"/>
     <use xlink:href="#mb28074716a" x="385.637375" y="248.339636" style="fill: #1f78b4; stroke: #1f78b4"/>
     <use xlink:href="#mb28074716a" x="397.245222" y="230.898853" style="fill: #1f78b4; stroke: #1f78b4"/>
     <use xlink:href="#mb28074716a" x="174.3435" y="284.911309" style="fill: #1f78b4; stroke: #1f78b4"/>
     <use xlink:href="#mb28074716a" x="220.710223" y="287.265533" style="fill: #1f78b4; stroke: #1f78b4"/>
     <use xlink:href="#mb28074716a" x="119.210649" y="315.609917" style="fill: #1f78b4; stroke: #1f78b4"/>
     <use xlink:href="#mb28074716a" x="67.89616" y="303.086026" style="fill: #1f78b4; stroke: #1f78b4"/>
     <use xlink:href="#mb28074716a" x="39.986777" y="275.687447" style="fill: #1f78b4; stroke: #1f78b4"/>
     <use xlink:href="#mb28074716a" x="51.563525" y="248.100152" style="fill: #1f78b4; stroke: #1f78b4"/>
     <use xlink:href="#mb28074716a" x="94.575869" y="245.294364" style="fill: #1f78b4; stroke: #1f78b4"/>
     <use xlink:href="#mb28074716a" x="200.809023" y="252.679144" style="fill: #1f78b4; stroke: #1f78b4"/>
     <use xlink:href="#mb28074716a" x="203.142716" y="229.1114" style="fill: #1f78b4; stroke: #1f78b4"/>
     <use xlink:href="#mb28074716a" x="150.027116" y="250.639599" style="fill: #1f78b4; stroke: #1f78b4"/>
    </g>
   </g>
   <g id="text_1">
    <g clip-path="url(#p88d6e7ed7a)">
     <!-- 0 -->
     <g transform="translate(349.581635 227.277337) scale(0.1 -0.1)">
      <defs>
       <path id="DejaVuSans-30" d="M 2034 4250 
Q 1547 4250 1301 3770 
Q 1056 3291 1056 2328 
Q 1056 1369 1301 889 
Q 1547 409 2034 409 
Q 2525 409 2770 889 
Q 3016 1369 3016 2328 
Q 3016 3291 2770 3770 
Q 2525 4250 2034 4250 
z
M 2034 4750 
Q 2819 4750 3233 4129 
Q 3647 3509 3647 2328 
Q 3647 1150 3233 529 
Q 2819 -91 2034 -91 
Q 1250 -91 836 529 
Q 422 1150 422 2328 
Q 422 3509 836 4129 
Q 1250 4750 2034 4750 
z
" transform="scale(0.015625)"/>
      </defs>
      <use xlink:href="#DejaVuSans-30"/>
     </g>
    </g>
   </g>
   <g id="text_2">
    <g clip-path="url(#p88d6e7ed7a)">
     <!-- 1 -->
     <g transform="translate(305.614412 272.898583) scale(0.1 -0.1)">
      <defs>
       <path id="DejaVuSans-31" d="M 794 531 
L 1825 531 
L 1825 4091 
L 703 3866 
L 703 4441 
L 1819 4666 
L 2450 4666 
L 2450 531 
L 3481 531 
L 3481 0 
L 794 0 
L 794 531 
z
" transform="scale(0.015625)"/>
      </defs>
      <use xlink:href="#DejaVuSans-31"/>
     </g>
    </g>
   </g>
   <g id="text_3">
    <g clip-path="url(#p88d6e7ed7a)">
     <!-- 2 -->
     <g transform="translate(266.995491 275.382417) scale(0.1 -0.1)">
      <defs>
       <path id="DejaVuSans-32" d="M 1228 531 
L 3431 531 
L 3431 0 
L 469 0 
L 469 531 
Q 828 903 1448 1529 
Q 2069 2156 2228 2338 
Q 2531 2678 2651 2914 
Q 2772 3150 2772 3378 
Q 2772 3750 2511 3984 
Q 2250 4219 1831 4219 
Q 1534 4219 1204 4116 
Q 875 4013 500 3803 
L 500 4441 
Q 881 4594 1212 4672 
Q 1544 4750 1819 4750 
Q 2544 4750 2975 4387 
Q 3406 4025 3406 3419 
Q 3406 3131 3298 2873 
Q 3191 2616 2906 2266 
Q 2828 2175 2409 1742 
Q 1991 1309 1228 531 
z
" transform="scale(0.015625)"/>
      </defs>
      <use xlink:href="#DejaVuSans-32"/>
     </g>
    </g>
   </g>
   <g id="text_4">
    <g clip-path="url(#p88d6e7ed7a)">
     <!-- 3 -->
     <g transform="translate(314.348928 255.018747) scale(0.1 -0.1)">
      <defs>
       <path id="DejaVuSans-33" d="M 2597 2516 
Q 3050 2419 3304 2112 
Q 3559 1806 3559 1356 
Q 3559 666 3084 287 
Q 2609 -91 1734 -91 
Q 1441 -91 1130 -33 
Q 819 25 488 141 
L 488 750 
Q 750 597 1062 519 
Q 1375 441 1716 441 
Q 2309 441 2620 675 
Q 2931 909 2931 1356 
Q 2931 1769 2642 2001 
Q 2353 2234 1838 2234 
L 1294 2234 
L 1294 2753 
L 1863 2753 
Q 2328 2753 2575 2939 
Q 2822 3125 2822 3475 
Q 2822 3834 2567 4026 
Q 2313 4219 1838 4219 
Q 1578 4219 1281 4162 
Q 984 4106 628 3988 
L 628 4550 
Q 988 4650 1302 4700 
Q 1616 4750 1894 4750 
Q 2613 4750 3031 4423 
Q 3450 4097 3450 3541 
Q 3450 3153 3228 2886 
Q 3006 2619 2597 2516 
z
" transform="scale(0.015625)"/>
      </defs>
      <use xlink:href="#DejaVuSans-33"/>
     </g>
    </g>
   </g>
   <g id="text_5">
    <g clip-path="url(#p88d6e7ed7a)">
     <!-- 4 -->
     <g transform="translate(265.997275 106.43139) scale(0.1 -0.1)">
      <defs>
       <path id="DejaVuSans-34" d="M 2419 4116 
L 825 1625 
L 2419 1625 
L 2419 4116 
z
M 2253 4666 
L 3047 4666 
L 3047 1625 
L 3713 1625 
L 3713 1100 
L 3047 1100 
L 3047 0 
L 2419 0 
L 2419 1100 
L 313 1100 
L 313 1709 
L 2253 4666 
z
" transform="scale(0.015625)"/>
      </defs>
      <use xlink:href="#DejaVuSans-34"/>
     </g>
    </g>
   </g>
   <g id="text_6">
    <g clip-path="url(#p88d6e7ed7a)">
     <!-- 5 -->
     <g transform="translate(248.283769 146.724577) scale(0.1 -0.1)">
      <defs>
       <path id="DejaVuSans-35" d="M 691 4666 
L 3169 4666 
L 3169 4134 
L 1269 4134 
L 1269 2991 
Q 1406 3038 1543 3061 
Q 1681 3084 1819 3084 
Q 2600 3084 3056 2656 
Q 3513 2228 3513 1497 
Q 3513 744 3044 326 
Q 2575 -91 1722 -91 
Q 1428 -91 1123 -41 
Q 819 9 494 109 
L 494 744 
Q 775 591 1075 516 
Q 1375 441 1709 441 
Q 2250 441 2565 725 
Q 2881 1009 2881 1497 
Q 2881 1984 2565 2268 
Q 2250 2553 1709 2553 
Q 1456 2553 1204 2497 
Q 953 2441 691 2322 
L 691 4666 
z
" transform="scale(0.015625)"/>
      </defs>
      <use xlink:href="#DejaVuSans-35"/>
     </g>
    </g>
   </g>
   <g id="text_7">
    <g clip-path="url(#p88d6e7ed7a)">
     <!-- 6 -->
     <g transform="translate(366.474257 183.866699) scale(0.1 -0.1)">
      <defs>
       <path id="DejaVuSans-36" d="M 2113 2584 
Q 1688 2584 1439 2293 
Q 1191 2003 1191 1497 
Q 1191 994 1439 701 
Q 1688 409 2113 409 
Q 2538 409 2786 701 
Q 3034 994 3034 1497 
Q 3034 2003 2786 2293 
Q 2538 2584 2113 2584 
z
M 3366 4563 
L 3366 3988 
Q 3128 4100 2886 4159 
Q 2644 4219 2406 4219 
Q 1781 4219 1451 3797 
Q 1122 3375 1075 2522 
Q 1259 2794 1537 2939 
Q 1816 3084 2150 3084 
Q 2853 3084 3261 2657 
Q 3669 2231 3669 1497 
Q 3669 778 3244 343 
Q 2819 -91 2113 -91 
Q 1303 -91 875 529 
Q 447 1150 447 2328 
Q 447 3434 972 4092 
Q 1497 4750 2381 4750 
Q 2619 4750 2861 4703 
Q 3103 4656 3366 4563 
z
" transform="scale(0.015625)"/>
      </defs>
      <use xlink:href="#DejaVuSans-36"/>
     </g>
    </g>
   </g>
   <g id="text_8">
    <g clip-path="url(#p88d6e7ed7a)">
     <!-- 7 -->
     <g transform="translate(377.72065 141.645594) scale(0.1 -0.1)">
      <defs>
       <path id="DejaVuSans-37" d="M 525 4666 
L 3525 4666 
L 3525 4397 
L 1831 0 
L 1172 0 
L 2766 4134 
L 525 4134 
L 525 4666 
z
" transform="scale(0.015625)"/>
      </defs>
      <use xlink:href="#DejaVuSans-37"/>
     </g>
    </g>
   </g>
   <g id="text_9">
    <g clip-path="url(#p88d6e7ed7a)">
     <!-- 8 -->
     <g transform="translate(243.601999 193.540342) scale(0.1 -0.1)">
      <defs>
       <path id="DejaVuSans-38" d="M 2034 2216 
Q 1584 2216 1326 1975 
Q 1069 1734 1069 1313 
Q 1069 891 1326 650 
Q 1584 409 2034 409 
Q 2484 409 2743 651 
Q 3003 894 3003 1313 
Q 3003 1734 2745 1975 
Q 2488 2216 2034 2216 
z
M 1403 2484 
Q 997 2584 770 2862 
Q 544 3141 544 3541 
Q 544 4100 942 4425 
Q 1341 4750 2034 4750 
Q 2731 4750 3128 4425 
Q 3525 4100 3525 3541 
Q 3525 3141 3298 2862 
Q 3072 2584 2669 2484 
Q 3125 2378 3379 2068 
Q 3634 1759 3634 1313 
Q 3634 634 3220 271 
Q 2806 -91 2034 -91 
Q 1263 -91 848 271 
Q 434 634 434 1313 
Q 434 1759 690 2068 
Q 947 2378 1403 2484 
z
M 1172 3481 
Q 1172 3119 1398 2916 
Q 1625 2713 2034 2713 
Q 2441 2713 2670 2916 
Q 2900 3119 2900 3481 
Q 2900 3844 2670 4047 
Q 2441 4250 2034 4250 
Q 1625 4250 1398 4047 
Q 1172 3844 1172 3481 
z
" transform="scale(0.015625)"/>
      </defs>
      <use xlink:href="#DejaVuSans-38"/>
     </g>
    </g>
   </g>
   <g id="text_10">
    <g clip-path="url(#p88d6e7ed7a)">
     <!-- 9 -->
     <g transform="translate(297.651465 208.243461) scale(0.1 -0.1)">
      <defs>
       <path id="DejaVuSans-39" d="M 703 97 
L 703 672 
Q 941 559 1184 500 
Q 1428 441 1663 441 
Q 2288 441 2617 861 
Q 2947 1281 2994 2138 
Q 2813 1869 2534 1725 
Q 2256 1581 1919 1581 
Q 1219 1581 811 2004 
Q 403 2428 403 3163 
Q 403 3881 828 4315 
Q 1253 4750 1959 4750 
Q 2769 4750 3195 4129 
Q 3622 3509 3622 2328 
Q 3622 1225 3098 567 
Q 2575 -91 1691 -91 
Q 1453 -91 1209 -44 
Q 966 3 703 97 
z
M 1959 2075 
Q 2384 2075 2632 2365 
Q 2881 2656 2881 3163 
Q 2881 3666 2632 3958 
Q 2384 4250 1959 4250 
Q 1534 4250 1286 3958 
Q 1038 3666 1038 3163 
Q 1038 2656 1286 2365 
Q 1534 2075 1959 2075 
z
" transform="scale(0.015625)"/>
      </defs>
      <use xlink:href="#DejaVuSans-39"/>
     </g>
    </g>
   </g>
   <g id="text_11">
    <g clip-path="url(#p88d6e7ed7a)">
     <!-- 10 -->
     <g transform="translate(343.95339 63.497032) scale(0.1 -0.1)">
      <use xlink:href="#DejaVuSans-31"/>
      <use xlink:href="#DejaVuSans-30" x="63.623047"/>
     </g>
    </g>
   </g>
   <g id="text_12">
    <g clip-path="url(#p88d6e7ed7a)">
     <!-- 11 -->
     <g transform="translate(381.074367 104.215397) scale(0.1 -0.1)">
      <use xlink:href="#DejaVuSans-31"/>
      <use xlink:href="#DejaVuSans-31" x="63.623047"/>
     </g>
    </g>
   </g>
   <g id="text_13">
    <g clip-path="url(#p88d6e7ed7a)">
     <!-- 12 -->
     <g transform="translate(220.682629 258.54322) scale(0.1 -0.1)">
      <use xlink:href="#DejaVuSans-31"/>
      <use xlink:href="#DejaVuSans-32" x="63.623047"/>
     </g>
    </g>
   </g>
   <g id="text_14">
    <g clip-path="url(#p88d6e7ed7a)">
     <!-- 13 -->
     <g transform="translate(175.03423 314.111412) scale(0.1 -0.1)">
      <use xlink:href="#DejaVuSans-31"/>
      <use xlink:href="#DejaVuSans-33" x="63.623047"/>
     </g>
    </g>
   </g>
   <g id="text_15">
    <g clip-path="url(#p88d6e7ed7a)">
     <!-- 14 -->
     <g transform="translate(244.003866 303.804543) scale(0.1 -0.1)">
      <use xlink:href="#DejaVuSans-31"/>
      <use xlink:href="#DejaVuSans-34" x="63.623047"/>
     </g>
    </g>
   </g>
   <g id="text_16">
    <g clip-path="url(#p88d6e7ed7a)">
     <!-- 15 -->
     <g transform="translate(414.450723 83.905696) scale(0.1 -0.1)">
      <use xlink:href="#DejaVuSans-31"/>
      <use xlink:href="#DejaVuSans-35" x="63.623047"/>
     </g>
    </g>
   </g>
   <g id="text_17">
    <g clip-path="url(#p88d6e7ed7a)">
     <!-- 16 -->
     <g transform="translate(296.759442 76.827414) scale(0.1 -0.1)">
      <use xlink:href="#DejaVuSans-31"/>
      <use xlink:href="#DejaVuSans-36" x="63.623047"/>
     </g>
    </g>
   </g>
   <g id="text_18">
    <g clip-path="url(#p88d6e7ed7a)">
     <!-- 17 -->
     <g transform="translate(398.643581 144.531613) scale(0.1 -0.1)">
      <use xlink:href="#DejaVuSans-31"/>
      <use xlink:href="#DejaVuSans-37" x="63.623047"/>
     </g>
    </g>
   </g>
   <g id="text_19">
    <g clip-path="url(#p88d6e7ed7a)">
     <!-- 18 -->
     <g transform="translate(386.068981 188.201503) scale(0.1 -0.1)">
      <use xlink:href="#DejaVuSans-31"/>
      <use xlink:href="#DejaVuSans-38" x="63.623047"/>
     </g>
    </g>
   </g>
   <g id="text_20">
    <g clip-path="url(#p88d6e7ed7a)">
     <!-- 19 -->
     <g transform="translate(360.893003 33.555304) scale(0.1 -0.1)">
      <use xlink:href="#DejaVuSans-31"/>
      <use xlink:href="#DejaVuSans-39" x="63.623047"/>
     </g>
    </g>
   </g>
   <g id="text_21">
    <g clip-path="url(#p88d6e7ed7a)">
     <!-- 20 -->
     <g transform="translate(329.816228 32.749458) scale(0.1 -0.1)">
      <use xlink:href="#DejaVuSans-32"/>
      <use xlink:href="#DejaVuSans-30" x="63.623047"/>
     </g>
    </g>
   </g>
   <g id="text_22">
    <g clip-path="url(#p88d6e7ed7a)">
     <!-- 21 -->
     <g transform="translate(379.274875 251.099011) scale(0.1 -0.1)">
      <use xlink:href="#DejaVuSans-32"/>
      <use xlink:href="#DejaVuSans-31" x="63.623047"/>
     </g>
    </g>
   </g>
   <g id="text_23">
    <g clip-path="url(#p88d6e7ed7a)">
     <!-- 22 -->
     <g transform="translate(390.882722 233.658228) scale(0.1 -0.1)">
      <use xlink:href="#DejaVuSans-32"/>
      <use xlink:href="#DejaVuSans-32" x="63.623047"/>
     </g>
    </g>
   </g>
   <g id="text_24">
    <g clip-path="url(#p88d6e7ed7a)">
     <!-- 23 -->
     <g transform="translate(167.981 287.670684) scale(0.1 -0.1)">
      <use xlink:href="#DejaVuSans-32"/>
      <use xlink:href="#DejaVuSans-33" x="63.623047"/>
     </g>
    </g>
   </g>
   <g id="text_25">
    <g clip-path="url(#p88d6e7ed7a)">
     <!-- 24 -->
     <g transform="translate(214.347723 290.024908) scale(0.1 -0.1)">
      <use xlink:href="#DejaVuSans-32"/>
      <use xlink:href="#DejaVuSans-34" x="63.623047"/>
     </g>
    </g>
   </g>
   <g id="text_26">
    <g clip-path="url(#p88d6e7ed7a)">
     <!-- 25 -->
     <g transform="translate(112.848149 318.369292) scale(0.1 -0.1)">
      <use xlink:href="#DejaVuSans-32"/>
      <use xlink:href="#DejaVuSans-35" x="63.623047"/>
     </g>
    </g>
   </g>
   <g id="text_27">
    <g clip-path="url(#p88d6e7ed7a)">
     <!-- 26 -->
     <g transform="translate(61.53366 305.845401) scale(0.1 -0.1)">
      <use xlink:href="#DejaVuSans-32"/>
      <use xlink:href="#DejaVuSans-36" x="63.623047"/>
     </g>
    </g>
   </g>
   <g id="text_28">
    <g clip-path="url(#p88d6e7ed7a)">
     <!-- 27 -->
     <g transform="translate(33.624277 278.446822) scale(0.1 -0.1)">
      <use xlink:href="#DejaVuSans-32"/>
      <use xlink:href="#DejaVuSans-37" x="63.623047"/>
     </g>
    </g>
   </g>
   <g id="text_29">
    <g clip-path="url(#p88d6e7ed7a)">
     <!-- 28 -->
     <g transform="translate(45.201025 250.859527) scale(0.1 -0.1)">
      <use xlink:href="#DejaVuSans-32"/>
      <use xlink:href="#DejaVuSans-38" x="63.623047"/>
     </g>
    </g>
   </g>
   <g id="text_30">
    <g clip-path="url(#p88d6e7ed7a)">
     <!-- 29 -->
     <g transform="translate(88.213369 248.053739) scale(0.1 -0.1)">
      <use xlink:href="#DejaVuSans-32"/>
      <use xlink:href="#DejaVuSans-39" x="63.623047"/>
     </g>
    </g>
   </g>
   <g id="text_31">
    <g clip-path="url(#p88d6e7ed7a)">
     <!-- 30 -->
     <g transform="translate(194.446523 255.438519) scale(0.1 -0.1)">
      <use xlink:href="#DejaVuSans-33"/>
      <use xlink:href="#DejaVuSans-30" x="63.623047"/>
     </g>
    </g>
   </g>
   <g id="text_32">
    <g clip-path="url(#p88d6e7ed7a)">
     <!-- 31 -->
     <g transform="translate(196.780216 231.870775) scale(0.1 -0.1)">
      <use xlink:href="#DejaVuSans-33"/>
      <use xlink:href="#DejaVuSans-31" x="63.623047"/>
     </g>
    </g>
   </g>
   <g id="text_33">
    <g clip-path="url(#p88d6e7ed7a)">
     <!-- 32 -->
     <g transform="translate(143.664616 253.398974) scale(0.1 -0.1)">
      <use xlink:href="#DejaVuSans-33"/>
      <use xlink:href="#DejaVuSans-32" x="63.623047"/>
     </g>
    </g>
   </g>
  </g>
 </g>
 <defs>
  <clipPath id="p88d6e7ed7a">
   <rect x="0" y="0" width="460.8" height="345.6"/>
  </clipPath>
 </defs>
</svg>
