<?xml version="1.0" encoding="utf-8" standalone="no"?>
<!DOCTYPE svg PUBLIC "-//W3C//DTD SVG 1.1//EN"
  "http://www.w3.org/Graphics/SVG/1.1/DTD/svg11.dtd">
<svg xmlns:xlink="http://www.w3.org/1999/xlink" width="460.8pt" height="345.6pt" viewBox="0 0 460.8 345.6" xmlns="http://www.w3.org/2000/svg" version="1.1">
 <metadata>
  <rdf:RDF xmlns:dc="http://purl.org/dc/elements/1.1/" xmlns:cc="http://creativecommons.org/ns#" xmlns:rdf="http://www.w3.org/1999/02/22-rdf-syntax-ns#">
   <cc:Work>
    <dc:type rdf:resource="http://purl.org/dc/dcmitype/StillImage"/>
    <dc:date>2023-10-10T10:56:39.152859</dc:date>
    <dc:format>image/svg+xml</dc:format>
    <dc:creator>
     <cc:Agent>
      <dc:title>Matplotlib v3.6.1, https://matplotlib.org/</dc:title>
     </cc:Agent>
    </dc:creator>
   </cc:Work>
  </rdf:RDF>
 </metadata>
 <defs>
  <style type="text/css">*{stroke-linejoin: round; stroke-linecap: butt}</style>
 </defs>
 <g id="figure_1">
  <g id="patch_1">
   <path d="M 0 345.6 
L 460.8 345.6 
L 460.8 0 
L 0 0 
z
" style="fill: #ffffff"/>
  </g>
  <g id="axes_1">
   <g id="patch_2">
    <path d="M 112.740464 206.301401 
Q 107.034384 216.124851 101.889865 224.98153 
" clip-path="url(#pcc805167fb)" style="fill: none; stroke: #000000; stroke-linecap: round"/>
    <path d="M 105.628385 222.527255 
L 101.889865 224.98153 
L 102.169557 220.518149 
L 105.628385 222.527255 
z
" clip-path="url(#pcc805167fb)" style="stroke: #000000; stroke-linecap: round"/>
   </g>
   <g id="patch_3">
    <path d="M 115.357637 203.606746 
Q 131.020344 193.898953 145.732747 184.780163 
" clip-path="url(#pcc805167fb)" style="fill: none; stroke: #000000; stroke-linecap: round"/>
    <path d="M 141.279199 185.187482 
L 145.732747 184.780163 
L 143.386474 188.587393 
L 141.279199 185.187482 
z
" clip-path="url(#pcc805167fb)" style="stroke: #000000; stroke-linecap: round"/>
   </g>
   <g id="patch_4">
    <path d="M 101.329704 225.94589 
Q 107.035785 216.122439 112.180303 207.265761 
" clip-path="url(#pcc805167fb)" style="fill: none; stroke: #000000; stroke-linecap: round"/>
    <path d="M 108.441783 209.720036 
L 112.180303 207.265761 
L 111.900611 211.729142 
L 108.441783 209.720036 
z
" clip-path="url(#pcc805167fb)" style="stroke: #000000; stroke-linecap: round"/>
   </g>
   <g id="patch_5">
    <path d="M 98.616648 228.468677 
Q 84.833829 235.178752 72.056243 241.399435 
" clip-path="url(#pcc805167fb)" style="fill: none; stroke: #000000; stroke-linecap: round"/>
    <path d="M 76.528129 241.446751 
L 72.056243 241.399435 
L 74.777228 237.850316 
L 76.528129 241.446751 
z
" clip-path="url(#pcc805167fb)" style="stroke: #000000; stroke-linecap: round"/>
   </g>
   <g id="patch_6">
    <path d="M 102.258099 227.24761 
Q 120.177608 223.722282 137.000109 220.41277 
" clip-path="url(#pcc805167fb)" style="fill: none; stroke: #000000; stroke-linecap: round"/>
    <path d="M 132.689276 219.22251 
L 137.000109 220.41277 
L 133.461401 223.14728 
L 132.689276 219.22251 
z
" clip-path="url(#pcc805167fb)" style="stroke: #000000; stroke-linecap: round"/>
   </g>
   <g id="patch_7">
    <path d="M 390.811661 54.326905 
Q 373.630448 59.169683 357.525338 63.709146 
" clip-path="url(#pcc805167fb)" style="fill: none; stroke: #000000; stroke-linecap: round"/>
    <path d="M 361.917912 64.548963 
L 357.525338 63.709146 
L 360.832737 60.698977 
L 361.917912 64.548963 
z
" clip-path="url(#pcc805167fb)" style="stroke: #000000; stroke-linecap: round"/>
   </g>
   <g id="patch_8">
    <path d="M 393.144005 55.683959 
Q 393.820407 58.4054 394.227131 60.041818 
" clip-path="url(#pcc805167fb)" style="fill: none; stroke: #000000; stroke-linecap: round"/>
    <path d="M 395.203251 55.67751 
L 394.227131 60.041818 
L 391.321356 56.642337 
L 395.203251 55.67751 
z
" clip-path="url(#pcc805167fb)" style="stroke: #000000; stroke-linecap: round"/>
   </g>
   <g id="patch_9">
    <path d="M 394.596101 54.032515 
Q 406.742962 55.494753 417.779803 56.823366 
" clip-path="url(#pcc805167fb)" style="fill: none; stroke: #000000; stroke-linecap: round"/>
    <path d="M 414.047509 54.359634 
L 417.779803 56.823366 
L 413.569441 58.330962 
L 414.047509 54.359634 
z
" clip-path="url(#pcc805167fb)" style="stroke: #000000; stroke-linecap: round"/>
   </g>
   <g id="patch_10">
    <path d="M 71.048306 241.890142 
Q 84.831125 235.180068 97.608711 228.959385 
" clip-path="url(#pcc805167fb)" style="fill: none; stroke: #000000; stroke-linecap: round"/>
    <path d="M 93.136825 228.912068 
L 97.608711 228.959385 
L 94.887726 232.508503 
L 93.136825 228.912068 
z
" clip-path="url(#pcc805167fb)" style="stroke: #000000; stroke-linecap: round"/>
   </g>
   <g id="patch_11">
    <path d="M 162.43522 200.526214 
Q 173.673526 210.244037 184.066126 219.230573 
" clip-path="url(#pcc805167fb)" style="fill: none; stroke: #000000; stroke-linecap: round"/>
    <path d="M 182.3486 215.101396 
L 184.066126 219.230573 
L 179.732268 218.127088 
L 182.3486 215.101396 
z
" clip-path="url(#pcc805167fb)" style="stroke: #000000; stroke-linecap: round"/>
   </g>
   <g id="patch_12">
    <path d="M 162.763832 199.989064 
Q 177.723697 206.082479 191.648127 211.754144 
" clip-path="url(#pcc805167fb)" style="fill: none; stroke: #000000; stroke-linecap: round"/>
    <path d="M 188.698092 208.392999 
L 191.648127 211.754144 
L 187.18919 212.097485 
L 188.698092 208.392999 
z
" clip-path="url(#pcc805167fb)" style="stroke: #000000; stroke-linecap: round"/>
   </g>
   <g id="patch_13">
    <path d="M 159.774031 197.737748 
Q 154.650967 191.217147 150.218626 185.575694 
" clip-path="url(#pcc805167fb)" style="fill: none; stroke: #000000; stroke-linecap: round"/>
    <path d="M 151.117166 189.956633 
L 150.218626 185.575694 
L 154.262501 187.485426 
L 151.117166 189.956633 
z
" clip-path="url(#pcc805167fb)" style="stroke: #000000; stroke-linecap: round"/>
   </g>
   <g id="patch_14">
    <path d="M 159.299655 198.278282 
Q 142.322452 188.313124 126.309453 178.913926 
" clip-path="url(#pcc805167fb)" style="fill: none; stroke: #000000; stroke-linecap: round"/>
    <path d="M 128.746669 182.66359 
L 126.309453 178.913926 
L 130.771513 179.213952 
L 128.746669 182.66359 
z
" clip-path="url(#pcc805167fb)" style="stroke: #000000; stroke-linecap: round"/>
   </g>
   <g id="patch_15">
    <path d="M 177.137214 242.610241 
Q 198.006764 244.406109 217.762396 246.106122 
" clip-path="url(#pcc805167fb)" style="fill: none; stroke: #000000; stroke-linecap: round"/>
    <path d="M 213.948595 243.770545 
L 217.762396 246.106122 
L 213.605654 247.755817 
L 213.948595 243.770545 
z
" clip-path="url(#pcc805167fb)" style="stroke: #000000; stroke-linecap: round"/>
   </g>
   <g id="patch_16">
    <path d="M 173.577612 241.396323 
Q 157.602361 231.132225 142.567729 221.472474 
" clip-path="url(#pcc805167fb)" style="fill: none; stroke: #000000; stroke-linecap: round"/>
    <path d="M 144.8519 225.317284 
L 142.567729 221.472474 
L 147.01408 221.952023 
L 144.8519 225.317284 
z
" clip-path="url(#pcc805167fb)" style="stroke: #000000; stroke-linecap: round"/>
   </g>
   <g id="patch_17">
    <path d="M 138.09802 220.196777 
Q 120.178512 223.722104 103.35601 227.031616 
" clip-path="url(#pcc805167fb)" style="fill: none; stroke: #000000; stroke-linecap: round"/>
    <path d="M 107.666843 228.221877 
L 103.35601 227.031616 
L 106.894718 224.297106 
L 107.666843 228.221877 
z
" clip-path="url(#pcc805167fb)" style="stroke: #000000; stroke-linecap: round"/>
   </g>
   <g id="patch_18">
    <path d="M 141.630941 220.870588 
Q 157.606192 231.134686 172.640824 240.794436 
" clip-path="url(#pcc805167fb)" style="fill: none; stroke: #000000; stroke-linecap: round"/>
    <path d="M 170.356654 236.949626 
L 172.640824 240.794436 
L 168.194474 240.314887 
L 170.356654 236.949626 
z
" clip-path="url(#pcc805167fb)" style="stroke: #000000; stroke-linecap: round"/>
   </g>
   <g id="patch_19">
    <path d="M 140.429961 217.930083 
Q 144.165039 201.494556 147.652354 186.149265 
" clip-path="url(#pcc805167fb)" style="fill: none; stroke: #000000; stroke-linecap: round"/>
    <path d="M 144.815658 189.606598 
L 147.652354 186.149265 
L 148.716203 190.493022 
L 144.815658 189.606598 
z
" clip-path="url(#pcc805167fb)" style="stroke: #000000; stroke-linecap: round"/>
   </g>
   <g id="patch_20">
    <path d="M 192.680242 212.174542 
Q 177.720377 206.081127 163.795947 200.409462 
" clip-path="url(#pcc805167fb)" style="fill: none; stroke: #000000; stroke-linecap: round"/>
    <path d="M 166.745982 203.770607 
L 163.795947 200.409462 
L 168.254884 200.066122 
L 166.745982 203.770607 
z
" clip-path="url(#pcc805167fb)" style="stroke: #000000; stroke-linecap: round"/>
   </g>
   <g id="patch_21">
    <path d="M 196.092729 213.971958 
Q 207.801205 221.691591 218.576266 228.795805 
" clip-path="url(#pcc805167fb)" style="fill: none; stroke: #000000; stroke-linecap: round"/>
    <path d="M 216.337679 224.924278 
L 218.576266 228.795805 
L 214.135892 228.263759 
L 216.337679 224.924278 
z
" clip-path="url(#pcc805167fb)" style="stroke: #000000; stroke-linecap: round"/>
   </g>
   <g id="patch_22">
    <path d="M 218.874697 246.201838 
Q 198.005147 244.40597 178.249514 242.705956 
" clip-path="url(#pcc805167fb)" style="fill: none; stroke: #000000; stroke-linecap: round"/>
    <path d="M 182.063316 245.041533 
L 178.249514 242.705956 
L 182.406257 241.056261 
L 182.063316 245.041533 
z
" clip-path="url(#pcc805167fb)" style="stroke: #000000; stroke-linecap: round"/>
   </g>
   <g id="patch_23">
    <path d="M 222.696739 245.952096 
Q 240.339823 242.078795 256.89088 238.445234 
" clip-path="url(#pcc805167fb)" style="fill: none; stroke: #000000; stroke-linecap: round"/>
    <path d="M 252.555062 237.349475 
L 256.89088 238.445234 
L 253.412782 241.256433 
L 252.555062 237.349475 
z
" clip-path="url(#pcc805167fb)" style="stroke: #000000; stroke-linecap: round"/>
   </g>
   <g id="patch_24">
    <path d="M 220.842575 244.431883 
Q 220.964697 238.423738 221.064099 233.533396 
" clip-path="url(#pcc805167fb)" style="fill: none; stroke: #000000; stroke-linecap: round"/>
    <path d="M 218.983224 237.491926 
L 221.064099 233.533396 
L 222.982398 237.573214 
L 218.983224 237.491926 
z
" clip-path="url(#pcc805167fb)" style="stroke: #000000; stroke-linecap: round"/>
   </g>
   <g id="patch_25">
    <path d="M 184.908956 219.959373 
Q 173.67065 210.24155 163.27805 201.255014 
" clip-path="url(#pcc805167fb)" style="fill: none; stroke: #000000; stroke-linecap: round"/>
    <path d="M 164.995576 205.384192 
L 163.27805 201.255014 
L 167.611907 202.3585 
L 164.995576 205.384192 
z
" clip-path="url(#pcc805167fb)" style="stroke: #000000; stroke-linecap: round"/>
   </g>
   <g id="patch_26">
    <path d="M 188.246693 221.725827 
Q 203.749279 225.851995 218.171445 229.690599 
" clip-path="url(#pcc805167fb)" style="fill: none; stroke: #000000; stroke-linecap: round"/>
    <path d="M 214.820429 226.729063 
L 218.171445 229.690599 
L 213.791607 230.59449 
L 214.820429 226.729063 
z
" clip-path="url(#pcc805167fb)" style="stroke: #000000; stroke-linecap: round"/>
   </g>
   <g id="patch_27">
    <path d="M 314.606529 211.317804 
Q 312.037228 217.966501 309.870932 223.572323 
" clip-path="url(#pcc805167fb)" style="fill: none; stroke: #000000; stroke-linecap: round"/>
    <path d="M 313.178317 220.56214 
L 309.870932 223.572323 
L 309.447217 219.120305 
L 313.178317 220.56214 
z
" clip-path="url(#pcc805167fb)" style="stroke: #000000; stroke-linecap: round"/>
   </g>
   <g id="patch_28">
    <path d="M 315.651307 207.609706 
Q 317.747636 196.13168 319.643093 185.753495 
" clip-path="url(#pcc805167fb)" style="fill: none; stroke: #000000; stroke-linecap: round"/>
    <path d="M 316.956971 189.329072 
L 319.643093 185.753495 
L 320.891882 190.047739 
L 316.956971 189.329072 
z
" clip-path="url(#pcc805167fb)" style="stroke: #000000; stroke-linecap: round"/>
   </g>
   <g id="patch_29">
    <path d="M 313.652995 210.530762 
Q 302.665511 217.297145 292.630022 223.477263 
" clip-path="url(#pcc805167fb)" style="fill: none; stroke: #000000; stroke-linecap: round"/>
    <path d="M 297.084724 223.082763 
L 292.630022 223.477263 
L 294.987243 219.676801 
L 297.084724 223.082763 
z
" clip-path="url(#pcc805167fb)" style="stroke: #000000; stroke-linecap: round"/>
   </g>
   <g id="patch_30">
    <path d="M 259.306764 107.786002 
Q 255.32018 116.930321 251.780402 125.049767 
" clip-path="url(#pcc805167fb)" style="fill: none; stroke: #000000; stroke-linecap: round"/>
    <path d="M 255.212293 122.182343 
L 251.780402 125.049767 
L 251.545598 120.583799 
L 255.212293 122.182343 
z
" clip-path="url(#pcc805167fb)" style="stroke: #000000; stroke-linecap: round"/>
   </g>
   <g id="patch_31">
    <path d="M 261.81658 106.868668 
Q 275.056716 113.388291 287.293826 119.414011 
" clip-path="url(#pcc805167fb)" style="fill: none; stroke: #000000; stroke-linecap: round"/>
    <path d="M 284.588815 115.852703 
L 287.293826 119.414011 
L 282.821773 119.441235 
L 284.588815 115.852703 
z
" clip-path="url(#pcc805167fb)" style="stroke: #000000; stroke-linecap: round"/>
   </g>
   <g id="patch_32">
    <path d="M 288.299478 119.909208 
Q 275.059343 113.389585 262.822233 107.363865 
" clip-path="url(#pcc805167fb)" style="fill: none; stroke: #000000; stroke-linecap: round"/>
    <path d="M 265.527243 110.925173 
L 262.822233 107.363865 
L 267.294286 107.336641 
L 265.527243 110.925173 
z
" clip-path="url(#pcc805167fb)" style="stroke: #000000; stroke-linecap: round"/>
   </g>
   <g id="patch_33">
    <path d="M 291.253988 122.273675 
Q 301.192616 134.592955 310.429235 146.042072 
" clip-path="url(#pcc805167fb)" style="fill: none; stroke: #000000; stroke-linecap: round"/>
    <path d="M 309.474252 141.673089 
L 310.429235 146.042072 
L 306.361059 144.18467 
L 309.474252 141.673089 
z
" clip-path="url(#pcc805167fb)" style="stroke: #000000; stroke-linecap: round"/>
   </g>
   <g id="patch_34">
    <path d="M 146.685495 184.189646 
Q 131.022788 193.897438 116.310385 203.016229 
" clip-path="url(#pcc805167fb)" style="fill: none; stroke: #000000; stroke-linecap: round"/>
    <path d="M 120.763933 202.60891 
L 116.310385 203.016229 
L 118.656659 199.208999 
L 120.763933 202.60891 
z
" clip-path="url(#pcc805167fb)" style="stroke: #000000; stroke-linecap: round"/>
   </g>
   <g id="patch_35">
    <path d="M 149.523376 184.690784 
Q 154.64644 191.211385 159.078781 196.852839 
" clip-path="url(#pcc805167fb)" style="fill: none; stroke: #000000; stroke-linecap: round"/>
    <path d="M 158.180242 192.471899 
L 159.078781 196.852839 
L 155.034906 194.943107 
L 158.180242 192.471899 
z
" clip-path="url(#pcc805167fb)" style="stroke: #000000; stroke-linecap: round"/>
   </g>
   <g id="patch_36">
    <path d="M 147.899123 185.063405 
Q 144.164045 201.498931 140.676729 216.844222 
" clip-path="url(#pcc805167fb)" style="fill: none; stroke: #000000; stroke-linecap: round"/>
    <path d="M 143.513426 213.386889 
L 140.676729 216.844222 
L 139.612881 212.500465 
L 143.513426 213.386889 
z
" clip-path="url(#pcc805167fb)" style="stroke: #000000; stroke-linecap: round"/>
   </g>
   <g id="patch_37">
    <path d="M 148.573272 181.249334 
Q 149.681675 172.522581 150.649205 164.904952 
" clip-path="url(#pcc805167fb)" style="fill: none; stroke: #000000; stroke-linecap: round"/>
    <path d="M 148.161145 168.621074 
L 150.649205 164.904952 
L 152.129267 169.125073 
L 148.161145 168.621074 
z
" clip-path="url(#pcc805167fb)" style="stroke: #000000; stroke-linecap: round"/>
   </g>
   <g id="patch_38">
    <path d="M 149.717321 181.817801 
Q 167.377379 164.603576 184.236826 148.16975 
" clip-path="url(#pcc805167fb)" style="fill: none; stroke: #000000; stroke-linecap: round"/>
    <path d="M 179.976454 149.529614 
L 184.236826 148.16975 
L 182.768495 152.393966 
L 179.976454 149.529614 
z
" clip-path="url(#pcc805167fb)" style="stroke: #000000; stroke-linecap: round"/>
   </g>
   <g id="patch_39">
    <path d="M 146.442081 182.726605 
Q 136.001193 180.268666 126.648589 178.066925 
" clip-path="url(#pcc805167fb)" style="fill: none; stroke: #000000; stroke-linecap: round"/>
    <path d="M 130.083852 180.93031 
L 126.648589 178.066925 
L 131.000454 177.036746 
L 130.083852 180.93031 
z
" clip-path="url(#pcc805167fb)" style="stroke: #000000; stroke-linecap: round"/>
   </g>
   <g id="patch_40">
    <path d="M 327.2926 52.166247 
Q 329.459809 42.02428 331.393383 32.975662 
" clip-path="url(#pcc805167fb)" style="fill: none; stroke: #000000; stroke-linecap: round"/>
    <path d="M 328.601661 36.469412 
L 331.393383 32.975662 
L 332.513349 37.305289 
L 328.601661 36.469412 
z
" clip-path="url(#pcc805167fb)" style="stroke: #000000; stroke-linecap: round"/>
   </g>
   <g id="patch_41">
    <path d="M 325.513049 55.422167 
Q 314.179383 66.641141 303.640297 77.073577 
" clip-path="url(#pcc805167fb)" style="fill: none; stroke: #000000; stroke-linecap: round"/>
    <path d="M 307.890075 75.680957 
L 303.640297 77.073577 
L 305.076068 72.838183 
L 307.890075 75.680957 
z
" clip-path="url(#pcc805167fb)" style="stroke: #000000; stroke-linecap: round"/>
   </g>
   <g id="patch_42">
    <path d="M 328.696627 54.745661 
Q 340.736635 59.298982 351.730894 63.456819 
" clip-path="url(#pcc805167fb)" style="fill: none; stroke: #000000; stroke-linecap: round"/>
    <path d="M 348.69697 60.171198 
L 351.730894 63.456819 
L 347.282043 63.912585 
L 348.69697 60.171198 
z
" clip-path="url(#pcc805167fb)" style="stroke: #000000; stroke-linecap: round"/>
   </g>
   <g id="patch_43">
    <path d="M 125.341617 178.345833 
Q 142.318819 188.310991 158.331819 197.710189 
" clip-path="url(#pcc805167fb)" style="fill: none; stroke: #000000; stroke-linecap: round"/>
    <path d="M 155.894603 193.960525 
L 158.331819 197.710189 
L 153.869758 197.410163 
L 155.894603 193.960525 
z
" clip-path="url(#pcc805167fb)" style="stroke: #000000; stroke-linecap: round"/>
   </g>
   <g id="patch_44">
    <path d="M 125.560212 177.810706 
Q 136.001101 180.268644 145.353705 182.470385 
" clip-path="url(#pcc805167fb)" style="fill: none; stroke: #000000; stroke-linecap: round"/>
    <path d="M 141.918442 179.607001 
L 145.353705 182.470385 
L 141.00184 183.500565 
L 141.918442 179.607001 
z
" clip-path="url(#pcc805167fb)" style="stroke: #000000; stroke-linecap: round"/>
   </g>
   <g id="patch_45">
    <path d="M 121.758188 177.061913 
Q 99.575311 173.534078 78.496592 170.181841 
" clip-path="url(#pcc805167fb)" style="fill: none; stroke: #000000; stroke-linecap: round"/>
    <path d="M 82.132828 172.785261 
L 78.496592 170.181841 
L 82.761069 168.834905 
L 82.132828 172.785261 
z
" clip-path="url(#pcc805167fb)" style="stroke: #000000; stroke-linecap: round"/>
   </g>
   <g id="patch_46">
    <path d="M 125.359797 176.411174 
Q 137.355709 169.617289 148.378774 163.374375 
" clip-path="url(#pcc805167fb)" style="fill: none; stroke: #000000; stroke-linecap: round"/>
    <path d="M 143.912605 163.60531 
L 148.378774 163.374375 
L 145.883821 167.085872 
L 143.912605 163.60531 
z
" clip-path="url(#pcc805167fb)" style="stroke: #000000; stroke-linecap: round"/>
   </g>
   <g id="patch_47">
    <path d="M 219.509374 229.411022 
Q 207.800899 221.691389 197.025837 214.587175 
" clip-path="url(#pcc805167fb)" style="fill: none; stroke: #000000; stroke-linecap: round"/>
    <path d="M 199.264425 218.458702 
L 197.025837 214.587175 
L 201.466212 215.119221 
L 199.264425 218.458702 
z
" clip-path="url(#pcc805167fb)" style="stroke: #000000; stroke-linecap: round"/>
   </g>
   <g id="patch_48">
    <path d="M 221.086873 232.412951 
Q 220.964751 238.421096 220.865349 243.311438 
" clip-path="url(#pcc805167fb)" style="fill: none; stroke: #000000; stroke-linecap: round"/>
    <path d="M 222.946224 239.352908 
L 220.865349 243.311438 
L 218.94705 239.27162 
L 222.946224 239.352908 
z
" clip-path="url(#pcc805167fb)" style="stroke: #000000; stroke-linecap: round"/>
   </g>
   <g id="patch_49">
    <path d="M 219.255513 229.979134 
Q 203.752927 225.852966 189.33076 222.014363 
" clip-path="url(#pcc805167fb)" style="fill: none; stroke: #000000; stroke-linecap: round"/>
    <path d="M 192.681776 224.975898 
L 189.33076 222.014363 
L 193.710598 221.110471 
L 192.681776 224.975898 
z
" clip-path="url(#pcc805167fb)" style="stroke: #000000; stroke-linecap: round"/>
   </g>
   <g id="patch_50">
    <path d="M 223.032464 230.836799 
Q 240.502738 234.133891 256.874373 237.223641 
" clip-path="url(#pcc805167fb)" style="fill: none; stroke: #000000; stroke-linecap: round"/>
    <path d="M 253.314664 234.516526 
L 256.874373 237.223641 
L 252.572855 238.447139 
L 253.314664 234.516526 
z
" clip-path="url(#pcc805167fb)" style="stroke: #000000; stroke-linecap: round"/>
   </g>
   <g id="patch_51">
    <path d="M 309.4682 224.614491 
Q 312.037501 217.965795 314.203797 212.359972 
" clip-path="url(#pcc805167fb)" style="fill: none; stroke: #000000; stroke-linecap: round"/>
    <path d="M 310.896412 215.370156 
L 314.203797 212.359972 
L 314.627513 216.81199 
L 310.896412 215.370156 
z
" clip-path="url(#pcc805167fb)" style="stroke: #000000; stroke-linecap: round"/>
   </g>
   <g id="patch_52">
    <path d="M 306.882184 226.857285 
Q 284.321293 232.104449 262.849371 237.098343 
" clip-path="url(#pcc805167fb)" style="fill: none; stroke: #000000; stroke-linecap: round"/>
    <path d="M 267.19845 238.140224 
L 262.849371 237.098343 
L 266.292323 234.244209 
L 267.19845 238.140224 
z
" clip-path="url(#pcc805167fb)" style="stroke: #000000; stroke-linecap: round"/>
   </g>
   <g id="patch_53">
    <path d="M 310.324399 225.264667 
Q 322.332971 216.347765 333.443914 208.097393 
" clip-path="url(#pcc805167fb)" style="fill: none; stroke: #000000; stroke-linecap: round"/>
    <path d="M 329.040133 208.876315 
L 333.443914 208.097393 
L 331.424783 212.08777 
L 329.040133 208.876315 
z
" clip-path="url(#pcc805167fb)" style="stroke: #000000; stroke-linecap: round"/>
   </g>
   <g id="patch_54">
    <path d="M 319.843595 184.655686 
Q 317.747265 196.133712 315.851809 206.511897 
" clip-path="url(#pcc805167fb)" style="fill: none; stroke: #000000; stroke-linecap: round"/>
    <path d="M 318.53793 202.936319 
L 315.851809 206.511897 
L 314.60302 202.217653 
L 318.53793 202.936319 
z
" clip-path="url(#pcc805167fb)" style="stroke: #000000; stroke-linecap: round"/>
   </g>
   <g id="patch_55">
    <path d="M 318.280727 183.084852 
Q 304.934919 185.416566 292.690461 187.555858 
" clip-path="url(#pcc805167fb)" style="fill: none; stroke: #000000; stroke-linecap: round"/>
    <path d="M 296.97499 188.837582 
L 292.690461 187.555858 
L 296.286558 184.89727 
L 296.97499 188.837582 
z
" clip-path="url(#pcc805167fb)" style="stroke: #000000; stroke-linecap: round"/>
   </g>
   <g id="patch_56">
    <path d="M 319.759719 180.861079 
Q 316.27024 165.585974 313.029753 151.400824 
" clip-path="url(#pcc805167fb)" style="fill: none; stroke: #000000; stroke-linecap: round"/>
    <path d="M 311.970802 155.745777 
L 313.029753 151.400824 
L 315.870345 154.854957 
L 311.970802 155.745777 
z
" clip-path="url(#pcc805167fb)" style="stroke: #000000; stroke-linecap: round"/>
   </g>
   <g id="patch_57">
    <path d="M 321.267163 184.361912 
Q 328.044751 194.51154 334.201458 203.73138 
" clip-path="url(#pcc805167fb)" style="fill: none; stroke: #000000; stroke-linecap: round"/>
    <path d="M 333.643378 199.294202 
L 334.201458 203.73138 
L 330.316868 201.515537 
L 333.643378 199.294202 
z
" clip-path="url(#pcc805167fb)" style="stroke: #000000; stroke-linecap: round"/>
   </g>
   <g id="patch_58">
    <path d="M 251.332263 126.077697 
Q 255.318847 116.933378 258.858625 108.813932 
" clip-path="url(#pcc805167fb)" style="fill: none; stroke: #000000; stroke-linecap: round"/>
    <path d="M 255.426733 111.681356 
L 258.858625 108.813932 
L 259.093429 113.279899 
L 255.426733 111.681356 
z
" clip-path="url(#pcc805167fb)" style="stroke: #000000; stroke-linecap: round"/>
   </g>
   <g id="patch_59">
    <path d="M 251.64863 129.455005 
Q 260.238515 142.110174 268.2005 153.84028 
" clip-path="url(#pcc805167fb)" style="fill: none; stroke: #000000; stroke-linecap: round"/>
    <path d="M 267.608859 149.407452 
L 268.2005 153.84028 
L 264.299253 151.653896 
L 267.608859 149.407452 
z
" clip-path="url(#pcc805167fb)" style="stroke: #000000; stroke-linecap: round"/>
   </g>
   <g id="patch_60">
    <path d="M 268.825079 154.76045 
Q 260.235194 142.105281 252.273209 130.375175 
" clip-path="url(#pcc805167fb)" style="fill: none; stroke: #000000; stroke-linecap: round"/>
    <path d="M 252.864851 134.808003 
L 252.273209 130.375175 
L 256.174456 132.561559 
L 252.864851 134.808003 
z
" clip-path="url(#pcc805167fb)" style="stroke: #000000; stroke-linecap: round"/>
   </g>
   <g id="patch_61">
    <path d="M 270.939669 158.010567 
Q 279.798228 172.225829 288.065478 185.492222 
" clip-path="url(#pcc805167fb)" style="fill: none; stroke: #000000; stroke-linecap: round"/>
    <path d="M 287.647335 181.039677 
L 288.065478 185.492222 
L 284.252556 183.155209 
L 287.647335 181.039677 
z
" clip-path="url(#pcc805167fb)" style="stroke: #000000; stroke-linecap: round"/>
   </g>
   <g id="patch_62">
    <path d="M 291.590058 187.748115 
Q 304.935866 185.416401 317.180324 183.277109 
" clip-path="url(#pcc805167fb)" style="fill: none; stroke: #000000; stroke-linecap: round"/>
    <path d="M 312.895795 181.995385 
L 317.180324 183.277109 
L 313.584227 185.935697 
L 312.895795 181.995385 
z
" clip-path="url(#pcc805167fb)" style="stroke: #000000; stroke-linecap: round"/>
   </g>
   <g id="patch_63">
    <path d="M 288.653915 186.436483 
Q 279.795356 172.221221 271.528107 158.954828 
" clip-path="url(#pcc805167fb)" style="fill: none; stroke: #000000; stroke-linecap: round"/>
    <path d="M 271.94625 163.407373 
L 271.528107 158.954828 
L 275.341028 161.29184 
L 271.94625 163.407373 
z
" clip-path="url(#pcc805167fb)" style="stroke: #000000; stroke-linecap: round"/>
   </g>
   <g id="patch_64">
    <path d="M 289.697771 190.019336 
Q 289.855437 206.57908 290.00246 222.020841 
" clip-path="url(#pcc805167fb)" style="fill: none; stroke: #000000; stroke-linecap: round"/>
    <path d="M 291.964286 218.001981 
L 290.00246 222.020841 
L 287.964468 218.040063 
L 291.964286 218.001981 
z
" clip-path="url(#pcc805167fb)" style="stroke: #000000; stroke-linecap: round"/>
   </g>
   <g id="patch_65">
    <path d="M 311.131762 146.912879 
Q 301.193135 134.593599 291.956515 123.144482 
" clip-path="url(#pcc805167fb)" style="fill: none; stroke: #000000; stroke-linecap: round"/>
    <path d="M 292.911499 127.513464 
L 291.956515 123.144482 
L 296.024691 125.001884 
L 292.911499 127.513464 
z
" clip-path="url(#pcc805167fb)" style="stroke: #000000; stroke-linecap: round"/>
   </g>
   <g id="patch_66">
    <path d="M 312.781011 150.31196 
Q 316.27049 165.587066 319.510976 179.772216 
" clip-path="url(#pcc805167fb)" style="fill: none; stroke: #000000; stroke-linecap: round"/>
    <path d="M 320.569928 175.427262 
L 319.510976 179.772216 
L 316.670384 176.318083 
L 320.569928 175.427262 
z
" clip-path="url(#pcc805167fb)" style="stroke: #000000; stroke-linecap: round"/>
   </g>
   <g id="patch_67">
    <path d="M 334.346284 207.427342 
Q 322.337712 216.344245 311.22677 224.594617 
" clip-path="url(#pcc805167fb)" style="fill: none; stroke: #000000; stroke-linecap: round"/>
    <path d="M 315.63055 223.815695 
L 311.22677 224.594617 
L 313.2459 220.60424 
L 315.63055 223.815695 
z
" clip-path="url(#pcc805167fb)" style="stroke: #000000; stroke-linecap: round"/>
   </g>
   <g id="patch_68">
    <path d="M 334.823693 204.663194 
Q 328.046104 194.513566 321.889398 185.293726 
" clip-path="url(#pcc805167fb)" style="fill: none; stroke: #000000; stroke-linecap: round"/>
    <path d="M 322.447477 189.730904 
L 321.889398 185.293726 
L 325.773987 187.509569 
L 322.447477 189.730904 
z
" clip-path="url(#pcc805167fb)" style="stroke: #000000; stroke-linecap: round"/>
   </g>
   <g id="patch_69">
    <path d="M 257.981913 238.205713 
Q 240.338828 242.079014 223.787772 245.712575 
" clip-path="url(#pcc805167fb)" style="fill: none; stroke: #000000; stroke-linecap: round"/>
    <path d="M 228.123589 246.808334 
L 223.787772 245.712575 
L 227.26587 242.901376 
L 228.123589 246.808334 
z
" clip-path="url(#pcc805167fb)" style="stroke: #000000; stroke-linecap: round"/>
   </g>
   <g id="patch_70">
    <path d="M 257.969185 237.43026 
Q 240.498911 234.133169 224.127276 231.043418 
" clip-path="url(#pcc805167fb)" style="fill: none; stroke: #000000; stroke-linecap: round"/>
    <path d="M 227.686985 233.750533 
L 224.127276 231.043418 
L 228.428793 229.81992 
L 227.686985 233.750533 
z
" clip-path="url(#pcc805167fb)" style="stroke: #000000; stroke-linecap: round"/>
   </g>
   <g id="patch_71">
    <path d="M 261.76453 237.350653 
Q 284.325422 232.103489 305.797344 227.109595 
" clip-path="url(#pcc805167fb)" style="fill: none; stroke: #000000; stroke-linecap: round"/>
    <path d="M 301.448265 226.067715 
L 305.797344 227.109595 
L 302.354392 229.96373 
L 301.448265 226.067715 
z
" clip-path="url(#pcc805167fb)" style="stroke: #000000; stroke-linecap: round"/>
   </g>
   <g id="patch_72">
    <path d="M 229.006665 314.296397 
Q 239.049559 304.998794 248.272027 296.460731 
" clip-path="url(#pcc805167fb)" style="fill: none; stroke: #000000; stroke-linecap: round"/>
    <path d="M 243.978077 297.710526 
L 248.272027 296.460731 
L 246.695493 300.645769 
L 243.978077 297.710526 
z
" clip-path="url(#pcc805167fb)" style="stroke: #000000; stroke-linecap: round"/>
   </g>
   <g id="patch_73">
    <path d="M 249.093901 295.699849 
Q 239.051008 304.997452 229.828539 313.535515 
" clip-path="url(#pcc805167fb)" style="fill: none; stroke: #000000; stroke-linecap: round"/>
    <path d="M 234.12249 312.28572 
L 229.828539 313.535515 
L 231.405074 309.350477 
L 234.12249 312.28572 
z
" clip-path="url(#pcc805167fb)" style="stroke: #000000; stroke-linecap: round"/>
   </g>
   <g id="patch_74">
    <path d="M 251.68515 292.846074 
Q 262.196756 279.036762 272.031183 266.117075 
" clip-path="url(#pcc805167fb)" style="fill: none; stroke: #000000; stroke-linecap: round"/>
    <path d="M 268.017029 268.088513 
L 272.031183 266.117075 
L 271.199842 270.511261 
L 268.017029 268.088513 
z
" clip-path="url(#pcc805167fb)" style="stroke: #000000; stroke-linecap: round"/>
   </g>
   <g id="patch_75">
    <path d="M 272.709149 265.226417 
Q 262.197543 279.035728 252.363116 291.955416 
" clip-path="url(#pcc805167fb)" style="fill: none; stroke: #000000; stroke-linecap: round"/>
    <path d="M 256.377269 289.983977 
L 252.363116 291.955416 
L 253.194457 287.56123 
L 256.377269 289.983977 
z
" clip-path="url(#pcc805167fb)" style="stroke: #000000; stroke-linecap: round"/>
   </g>
   <g id="patch_76">
    <path d="M 274.629745 261.897588 
Q 281.957453 244.379712 288.853713 227.89327 
" clip-path="url(#pcc805167fb)" style="fill: none; stroke: #000000; stroke-linecap: round"/>
    <path d="M 285.465038 230.811639 
L 288.853713 227.89327 
L 289.155204 232.355231 
L 285.465038 230.811639 
z
" clip-path="url(#pcc805167fb)" style="stroke: #000000; stroke-linecap: round"/>
   </g>
   <g id="patch_77">
    <path d="M 291.682008 224.061075 
Q 302.669492 217.294693 312.704981 211.114574 
" clip-path="url(#pcc805167fb)" style="fill: none; stroke: #000000; stroke-linecap: round"/>
    <path d="M 308.250279 211.509074 
L 312.704981 211.114574 
L 310.34776 214.915036 
L 308.250279 211.509074 
z
" clip-path="url(#pcc805167fb)" style="stroke: #000000; stroke-linecap: round"/>
   </g>
   <g id="patch_78">
    <path d="M 290.013116 223.140076 
Q 289.855449 206.580332 289.708427 191.138571 
" clip-path="url(#pcc805167fb)" style="fill: none; stroke: #000000; stroke-linecap: round"/>
    <path d="M 287.7466 195.157431 
L 289.708427 191.138571 
L 291.746419 195.119349 
L 287.7466 195.157431 
z
" clip-path="url(#pcc805167fb)" style="stroke: #000000; stroke-linecap: round"/>
   </g>
   <g id="patch_79">
    <path d="M 289.283403 226.866037 
Q 281.955696 244.383913 275.059435 260.870356 
" clip-path="url(#pcc805167fb)" style="fill: none; stroke: #000000; stroke-linecap: round"/>
    <path d="M 278.44811 257.951986 
L 275.059435 260.870356 
L 274.757944 256.408394 
L 278.44811 257.951986 
z
" clip-path="url(#pcc805167fb)" style="stroke: #000000; stroke-linecap: round"/>
   </g>
   <g id="patch_80">
    <path d="M 394.495234 61.120507 
Q 393.818832 58.399066 393.412108 56.762648 
" clip-path="url(#pcc805167fb)" style="fill: none; stroke: #000000; stroke-linecap: round"/>
    <path d="M 392.435988 61.126957 
L 393.412108 56.762648 
L 396.317883 60.162129 
L 392.435988 61.126957 
z
" clip-path="url(#pcc805167fb)" style="stroke: #000000; stroke-linecap: round"/>
   </g>
   <g id="patch_81">
    <path d="M 393.026179 63.076677 
Q 374.775842 63.770115 357.642732 64.421102 
" clip-path="url(#pcc805167fb)" style="fill: none; stroke: #000000; stroke-linecap: round"/>
    <path d="M 361.715785 66.267786 
L 357.642732 64.421102 
L 361.563911 62.27067 
L 361.715785 66.267786 
z
" clip-path="url(#pcc805167fb)" style="stroke: #000000; stroke-linecap: round"/>
   </g>
   <g id="patch_82">
    <path d="M 396.8533 62.57792 
Q 407.890015 60.095392 417.83595 57.858217 
" clip-path="url(#pcc805167fb)" style="fill: none; stroke: #000000; stroke-linecap: round"/>
    <path d="M 413.494554 56.784772 
L 417.83595 57.858217 
L 414.372356 60.687267 
L 413.494554 56.784772 
z
" clip-path="url(#pcc805167fb)" style="stroke: #000000; stroke-linecap: round"/>
   </g>
   <g id="patch_83">
    <path d="M 418.893222 56.957399 
Q 406.746361 55.495162 395.70952 54.166549 
" clip-path="url(#pcc805167fb)" style="fill: none; stroke: #000000; stroke-linecap: round"/>
    <path d="M 399.441814 56.630281 
L 395.70952 54.166549 
L 399.919882 52.658952 
L 399.441814 56.630281 
z
" clip-path="url(#pcc805167fb)" style="stroke: #000000; stroke-linecap: round"/>
   </g>
   <g id="patch_84">
    <path d="M 418.923062 57.613689 
Q 407.886347 60.096217 397.940412 62.333392 
" clip-path="url(#pcc805167fb)" style="fill: none; stroke: #000000; stroke-linecap: round"/>
    <path d="M 402.281808 63.406837 
L 397.940412 62.333392 
L 401.404006 59.504342 
L 402.281808 63.406837 
z
" clip-path="url(#pcc805167fb)" style="stroke: #000000; stroke-linecap: round"/>
   </g>
   <g id="patch_85">
    <path d="M 41.906159 165.818455 
Q 57.732102 167.649121 72.447416 169.351314 
" clip-path="url(#pcc805167fb)" style="fill: none; stroke: #000000; stroke-linecap: round"/>
    <path d="M 68.70373 166.904927 
L 72.447416 169.351314 
L 68.244095 170.878431 
L 68.70373 166.904927 
z
" clip-path="url(#pcc805167fb)" style="stroke: #000000; stroke-linecap: round"/>
   </g>
   <g id="patch_86">
    <path d="M 77.395081 170.006663 
Q 99.577958 173.534499 120.656677 176.886736 
" clip-path="url(#pcc805167fb)" style="fill: none; stroke: #000000; stroke-linecap: round"/>
    <path d="M 117.020442 174.283316 
L 120.656677 176.886736 
L 116.3922 178.233672 
L 117.020442 174.283316 
z
" clip-path="url(#pcc805167fb)" style="stroke: #000000; stroke-linecap: round"/>
   </g>
   <g id="patch_87">
    <path d="M 73.560808 169.480106 
Q 57.734865 167.64944 43.019551 165.947247 
" clip-path="url(#pcc805167fb)" style="fill: none; stroke: #000000; stroke-linecap: round"/>
    <path d="M 46.763238 168.393634 
L 43.019551 165.947247 
L 47.222873 164.42013 
L 46.763238 168.393634 
z
" clip-path="url(#pcc805167fb)" style="stroke: #000000; stroke-linecap: round"/>
   </g>
   <g id="patch_88">
    <path d="M 331.626367 31.885356 
Q 329.459158 42.027324 327.525585 51.075941 
" clip-path="url(#pcc805167fb)" style="fill: none; stroke: #000000; stroke-linecap: round"/>
    <path d="M 330.317307 47.582192 
L 327.525585 51.075941 
L 326.405618 46.746314 
L 330.317307 47.582192 
z
" clip-path="url(#pcc805167fb)" style="stroke: #000000; stroke-linecap: round"/>
   </g>
   <g id="patch_89">
    <path d="M 150.790595 163.791749 
Q 149.682193 172.518501 148.714663 180.13613 
" clip-path="url(#pcc805167fb)" style="fill: none; stroke: #000000; stroke-linecap: round"/>
    <path d="M 151.202722 176.420009 
L 148.714663 180.13613 
L 147.234601 175.91601 
L 151.202722 176.420009 
z
" clip-path="url(#pcc805167fb)" style="stroke: #000000; stroke-linecap: round"/>
   </g>
   <g id="patch_90">
    <path d="M 149.347935 162.825491 
Q 137.352023 169.619376 126.328957 175.86229 
" clip-path="url(#pcc805167fb)" style="fill: none; stroke: #000000; stroke-linecap: round"/>
    <path d="M 130.795127 175.631354 
L 126.328957 175.86229 
L 128.823911 172.150793 
L 130.795127 175.631354 
z
" clip-path="url(#pcc805167fb)" style="stroke: #000000; stroke-linecap: round"/>
   </g>
   <g id="patch_91">
    <path d="M 152.801541 161.079744 
Q 168.728412 153.954347 183.634728 147.285529 
" clip-path="url(#pcc805167fb)" style="fill: none; stroke: #000000; stroke-linecap: round"/>
    <path d="M 179.16672 147.093407 
L 183.634728 147.285529 
L 180.800226 150.744662 
L 179.16672 147.093407 
z
" clip-path="url(#pcc805167fb)" style="stroke: #000000; stroke-linecap: round"/>
   </g>
   <g id="patch_92">
    <path d="M 185.036146 147.390609 
Q 167.376088 164.604834 150.516641 181.03866 
" clip-path="url(#pcc805167fb)" style="fill: none; stroke: #000000; stroke-linecap: round"/>
    <path d="M 154.777013 179.678795 
L 150.516641 181.03866 
L 151.984973 176.814444 
L 154.777013 179.678795 
z
" clip-path="url(#pcc805167fb)" style="stroke: #000000; stroke-linecap: round"/>
   </g>
   <g id="patch_93">
    <path d="M 184.657365 146.828019 
Q 168.730493 153.953416 153.824178 160.622235 
" clip-path="url(#pcc805167fb)" style="fill: none; stroke: #000000; stroke-linecap: round"/>
    <path d="M 158.292185 160.814356 
L 153.824178 160.622235 
L 156.658679 157.163102 
L 158.292185 160.814356 
z
" clip-path="url(#pcc805167fb)" style="stroke: #000000; stroke-linecap: round"/>
   </g>
   <g id="patch_94">
    <path d="M 188.056011 144.988034 
Q 214.101059 128.236433 239.205777 112.08963 
" clip-path="url(#pcc805167fb)" style="fill: none; stroke: #000000; stroke-linecap: round"/>
    <path d="M 234.759657 112.571313 
L 239.205777 112.08963 
L 236.923451 115.935536 
L 234.759657 112.571313 
z
" clip-path="url(#pcc805167fb)" style="stroke: #000000; stroke-linecap: round"/>
   </g>
   <g id="patch_95">
    <path d="M 240.143905 111.486247 
Q 214.098857 128.237848 188.994139 144.384651 
" clip-path="url(#pcc805167fb)" style="fill: none; stroke: #000000; stroke-linecap: round"/>
    <path d="M 193.440259 143.902968 
L 188.994139 144.384651 
L 191.276465 140.538746 
L 193.440259 143.902968 
z
" clip-path="url(#pcc805167fb)" style="stroke: #000000; stroke-linecap: round"/>
   </g>
   <g id="patch_96">
    <path d="M 243.491706 109.539409 
Q 271.622318 94.829783 298.762173 80.638229 
" clip-path="url(#pcc805167fb)" style="fill: none; stroke: #000000; stroke-linecap: round"/>
    <path d="M 294.290774 80.719418 
L 298.762173 80.638229 
L 296.144284 84.264061 
L 294.290774 80.719418 
z
" clip-path="url(#pcc805167fb)" style="stroke: #000000; stroke-linecap: round"/>
   </g>
   <g id="patch_97">
    <path d="M 302.843739 77.862075 
Q 314.177404 66.6431 324.71649 56.210664 
" clip-path="url(#pcc805167fb)" style="fill: none; stroke: #000000; stroke-linecap: round"/>
    <path d="M 320.466712 57.603284 
L 324.71649 56.210664 
L 323.280719 60.446058 
L 320.466712 57.603284 
z
" clip-path="url(#pcc805167fb)" style="stroke: #000000; stroke-linecap: round"/>
   </g>
   <g id="patch_98">
    <path d="M 299.75314 80.120048 
Q 271.622528 94.829674 244.482674 109.021228 
" clip-path="url(#pcc805167fb)" style="fill: none; stroke: #000000; stroke-linecap: round"/>
    <path d="M 248.954072 108.940039 
L 244.482674 109.021228 
L 247.100562 105.395396 
L 248.954072 108.940039 
z
" clip-path="url(#pcc805167fb)" style="stroke: #000000; stroke-linecap: round"/>
   </g>
   <g id="patch_99">
    <path d="M 303.333386 78.707329 
Q 328.026704 71.880422 351.642413 65.35144 
" clip-path="url(#pcc805167fb)" style="fill: none; stroke: #000000; stroke-linecap: round"/>
    <path d="M 347.254098 64.48964 
L 351.642413 65.35144 
L 348.319984 68.345011 
L 347.254098 64.48964 
z
" clip-path="url(#pcc805167fb)" style="stroke: #000000; stroke-linecap: round"/>
   </g>
   <g id="patch_100">
    <path d="M 356.452061 64.011664 
Q 373.633275 59.168886 389.738385 54.629424 
" clip-path="url(#pcc805167fb)" style="fill: none; stroke: #000000; stroke-linecap: round"/>
    <path d="M 385.345811 53.789606 
L 389.738385 54.629424 
L 386.430986 57.639593 
L 385.345811 53.789606 
z
" clip-path="url(#pcc805167fb)" style="stroke: #000000; stroke-linecap: round"/>
   </g>
   <g id="patch_101">
    <path d="M 352.778601 63.853043 
Q 340.738592 59.299722 329.744333 55.141886 
" clip-path="url(#pcc805167fb)" style="fill: none; stroke: #000000; stroke-linecap: round"/>
    <path d="M 332.778257 58.427507 
L 329.744333 55.141886 
L 334.193184 54.686119 
L 332.778257 58.427507 
z
" clip-path="url(#pcc805167fb)" style="stroke: #000000; stroke-linecap: round"/>
   </g>
   <g id="patch_102">
    <path d="M 356.524583 64.463587 
Q 374.77492 63.77015 391.90803 63.119162 
" clip-path="url(#pcc805167fb)" style="fill: none; stroke: #000000; stroke-linecap: round"/>
    <path d="M 387.834977 61.272478 
L 391.90803 63.119162 
L 387.986851 65.269594 
L 387.834977 61.272478 
z
" clip-path="url(#pcc805167fb)" style="stroke: #000000; stroke-linecap: round"/>
   </g>
   <g id="patch_103">
    <path d="M 352.72342 65.052576 
Q 328.030102 71.879483 304.414393 78.408465 
" clip-path="url(#pcc805167fb)" style="fill: none; stroke: #000000; stroke-linecap: round"/>
    <path d="M 308.802707 79.270265 
L 304.414393 78.408465 
L 307.736821 75.414894 
L 308.802707 79.270265 
z
" clip-path="url(#pcc805167fb)" style="stroke: #000000; stroke-linecap: round"/>
   </g>
   <g id="PathCollection_1">
    <defs>
     <path id="m59e48d370f" d="M 0 1.936492 
C 0.513564 1.936492 1.006162 1.732451 1.369306 1.369306 
C 1.732451 1.006162 1.936492 0.513564 1.936492 0 
C 1.936492 -0.513564 1.732451 -1.006162 1.369306 -1.369306 
C 1.006162 -1.732451 0.513564 -1.936492 0 -1.936492 
C -0.513564 -1.936492 -1.006162 -1.732451 -1.369306 -1.369306 
C -1.732451 -1.006162 -1.936492 -0.513564 -1.936492 0 
C -1.936492 0.513564 -1.732451 1.006162 -1.369306 1.369306 
C -1.006162 1.732451 -0.513564 1.936492 0 1.936492 
z
" style="stroke: #1f78b4"/>
    </defs>
    <g clip-path="url(#pcc805167fb)">
     <use xlink:href="#m59e48d370f" x="113.713917" y="204.625528" style="fill: #1f78b4; stroke: #1f78b4"/>
     <use xlink:href="#m59e48d370f" x="100.356251" y="227.621763" style="fill: #1f78b4; stroke: #1f78b4"/>
     <use xlink:href="#m59e48d370f" x="392.6761" y="53.801386" style="fill: #1f78b4; stroke: #1f78b4"/>
     <use xlink:href="#m59e48d370f" x="69.308703" y="242.737056" style="fill: #1f78b4; stroke: #1f78b4"/>
     <use xlink:href="#m59e48d370f" x="160.968193" y="199.257668" style="fill: #1f78b4; stroke: #1f78b4"/>
     <use xlink:href="#m59e48d370f" x="175.208685" y="242.444287" style="fill: #1f78b4; stroke: #1f78b4"/>
     <use xlink:href="#m59e48d370f" x="139.999869" y="219.822624" style="fill: #1f78b4; stroke: #1f78b4"/>
     <use xlink:href="#m59e48d370f" x="194.475881" y="212.905938" style="fill: #1f78b4; stroke: #1f78b4"/>
     <use xlink:href="#m59e48d370f" x="220.803226" y="246.367792" style="fill: #1f78b4; stroke: #1f78b4"/>
     <use xlink:href="#m59e48d370f" x="186.375983" y="221.227919" style="fill: #1f78b4; stroke: #1f78b4"/>
     <use xlink:href="#m59e48d370f" x="315.303441" y="209.514374" style="fill: #1f78b4; stroke: #1f78b4"/>
     <use xlink:href="#m59e48d370f" x="260.079577" y="106.013344" style="fill: #1f78b4; stroke: #1f78b4"/>
     <use xlink:href="#m59e48d370f" x="290.036481" y="120.764532" style="fill: #1f78b4; stroke: #1f78b4"/>
     <use xlink:href="#m59e48d370f" x="148.329215" y="183.170864" style="fill: #1f78b4; stroke: #1f78b4"/>
     <use xlink:href="#m59e48d370f" x="326.887605" y="54.061521" style="fill: #1f78b4; stroke: #1f78b4"/>
     <use xlink:href="#m59e48d370f" x="123.673079" y="177.366447" style="fill: #1f78b4; stroke: #1f78b4"/>
     <use xlink:href="#m59e48d370f" x="221.126223" y="230.477042" style="fill: #1f78b4; stroke: #1f78b4"/>
     <use xlink:href="#m59e48d370f" x="308.771289" y="226.417921" style="fill: #1f78b4; stroke: #1f78b4"/>
     <use xlink:href="#m59e48d370f" x="320.191461" y="182.751018" style="fill: #1f78b4; stroke: #1f78b4"/>
     <use xlink:href="#m59e48d370f" x="250.55945" y="127.850354" style="fill: #1f78b4; stroke: #1f78b4"/>
     <use xlink:href="#m59e48d370f" x="269.91426" y="156.365101" style="fill: #1f78b4; stroke: #1f78b4"/>
     <use xlink:href="#m59e48d370f" x="289.679325" y="188.081949" style="fill: #1f78b4; stroke: #1f78b4"/>
     <use xlink:href="#m59e48d370f" x="312.349269" y="148.422022" style="fill: #1f78b4; stroke: #1f78b4"/>
     <use xlink:href="#m59e48d370f" x="335.899395" y="206.274088" style="fill: #1f78b4; stroke: #1f78b4"/>
     <use xlink:href="#m59e48d370f" x="259.875426" y="237.790017" style="fill: #1f78b4; stroke: #1f78b4"/>
     <use xlink:href="#m59e48d370f" x="227.587854" y="315.609917" style="fill: #1f78b4; stroke: #1f78b4"/>
     <use xlink:href="#m59e48d370f" x="250.512713" y="294.386329" style="fill: #1f78b4; stroke: #1f78b4"/>
     <use xlink:href="#m59e48d370f" x="273.881586" y="263.686162" style="fill: #1f78b4; stroke: #1f78b4"/>
     <use xlink:href="#m59e48d370f" x="290.031562" y="225.077463" style="fill: #1f78b4; stroke: #1f78b4"/>
     <use xlink:href="#m59e48d370f" x="394.963139" y="63.00308" style="fill: #1f78b4; stroke: #1f78b4"/>
     <use xlink:href="#m59e48d370f" x="420.813223" y="57.188528" style="fill: #1f78b4; stroke: #1f78b4"/>
     <use xlink:href="#m59e48d370f" x="39.986777" y="165.596431" style="fill: #1f78b4; stroke: #1f78b4"/>
     <use xlink:href="#m59e48d370f" x="75.48019" y="169.70213" style="fill: #1f78b4; stroke: #1f78b4"/>
     <use xlink:href="#m59e48d370f" x="332.031363" y="29.990083" style="fill: #1f78b4; stroke: #1f78b4"/>
     <use xlink:href="#m59e48d370f" x="151.034653" y="161.870218" style="fill: #1f78b4; stroke: #1f78b4"/>
     <use xlink:href="#m59e48d370f" x="186.424253" y="146.037545" style="fill: #1f78b4; stroke: #1f78b4"/>
     <use xlink:href="#m59e48d370f" x="241.775663" y="110.436736" style="fill: #1f78b4; stroke: #1f78b4"/>
     <use xlink:href="#m59e48d370f" x="301.469183" y="79.222721" style="fill: #1f78b4; stroke: #1f78b4"/>
     <use xlink:href="#m59e48d370f" x="354.587623" y="64.537184" style="fill: #1f78b4; stroke: #1f78b4"/>
    </g>
   </g>
   <g id="text_1">
    <g clip-path="url(#pcc805167fb)">
     <!-- 0 -->
     <g transform="translate(110.532667 207.384903) scale(0.1 -0.1)">
      <defs>
       <path id="DejaVuSans-30" d="M 2034 4250 
Q 1547 4250 1301 3770 
Q 1056 3291 1056 2328 
Q 1056 1369 1301 889 
Q 1547 409 2034 409 
Q 2525 409 2770 889 
Q 3016 1369 3016 2328 
Q 3016 3291 2770 3770 
Q 2525 4250 2034 4250 
z
M 2034 4750 
Q 2819 4750 3233 4129 
Q 3647 3509 3647 2328 
Q 3647 1150 3233 529 
Q 2819 -91 2034 -91 
Q 1250 -91 836 529 
Q 422 1150 422 2328 
Q 422 3509 836 4129 
Q 1250 4750 2034 4750 
z
" transform="scale(0.015625)"/>
      </defs>
      <use xlink:href="#DejaVuSans-30"/>
     </g>
    </g>
   </g>
   <g id="text_2">
    <g clip-path="url(#pcc805167fb)">
     <!-- 1 -->
     <g transform="translate(97.175001 230.381138) scale(0.1 -0.1)">
      <defs>
       <path id="DejaVuSans-31" d="M 794 531 
L 1825 531 
L 1825 4091 
L 703 3866 
L 703 4441 
L 1819 4666 
L 2450 4666 
L 2450 531 
L 3481 531 
L 3481 0 
L 794 0 
L 794 531 
z
" transform="scale(0.015625)"/>
      </defs>
      <use xlink:href="#DejaVuSans-31"/>
     </g>
    </g>
   </g>
   <g id="text_3">
    <g clip-path="url(#pcc805167fb)">
     <!-- 2 -->
     <g transform="translate(389.49485 56.560761) scale(0.1 -0.1)">
      <defs>
       <path id="DejaVuSans-32" d="M 1228 531 
L 3431 531 
L 3431 0 
L 469 0 
L 469 531 
Q 828 903 1448 1529 
Q 2069 2156 2228 2338 
Q 2531 2678 2651 2914 
Q 2772 3150 2772 3378 
Q 2772 3750 2511 3984 
Q 2250 4219 1831 4219 
Q 1534 4219 1204 4116 
Q 875 4013 500 3803 
L 500 4441 
Q 881 4594 1212 4672 
Q 1544 4750 1819 4750 
Q 2544 4750 2975 4387 
Q 3406 4025 3406 3419 
Q 3406 3131 3298 2873 
Q 3191 2616 2906 2266 
Q 2828 2175 2409 1742 
Q 1991 1309 1228 531 
z
" transform="scale(0.015625)"/>
      </defs>
      <use xlink:href="#DejaVuSans-32"/>
     </g>
    </g>
   </g>
   <g id="text_4">
    <g clip-path="url(#pcc805167fb)">
     <!-- 3 -->
     <g transform="translate(66.127453 245.496431) scale(0.1 -0.1)">
      <defs>
       <path id="DejaVuSans-33" d="M 2597 2516 
Q 3050 2419 3304 2112 
Q 3559 1806 3559 1356 
Q 3559 666 3084 287 
Q 2609 -91 1734 -91 
Q 1441 -91 1130 -33 
Q 819 25 488 141 
L 488 750 
Q 750 597 1062 519 
Q 1375 441 1716 441 
Q 2309 441 2620 675 
Q 2931 909 2931 1356 
Q 2931 1769 2642 2001 
Q 2353 2234 1838 2234 
L 1294 2234 
L 1294 2753 
L 1863 2753 
Q 2328 2753 2575 2939 
Q 2822 3125 2822 3475 
Q 2822 3834 2567 4026 
Q 2313 4219 1838 4219 
Q 1578 4219 1281 4162 
Q 984 4106 628 3988 
L 628 4550 
Q 988 4650 1302 4700 
Q 1616 4750 1894 4750 
Q 2613 4750 3031 4423 
Q 3450 4097 3450 3541 
Q 3450 3153 3228 2886 
Q 3006 2619 2597 2516 
z
" transform="scale(0.015625)"/>
      </defs>
      <use xlink:href="#DejaVuSans-33"/>
     </g>
    </g>
   </g>
   <g id="text_5">
    <g clip-path="url(#pcc805167fb)">
     <!-- 4 -->
     <g transform="translate(157.786943 202.017043) scale(0.1 -0.1)">
      <defs>
       <path id="DejaVuSans-34" d="M 2419 4116 
L 825 1625 
L 2419 1625 
L 2419 4116 
z
M 2253 4666 
L 3047 4666 
L 3047 1625 
L 3713 1625 
L 3713 1100 
L 3047 1100 
L 3047 0 
L 2419 0 
L 2419 1100 
L 313 1100 
L 313 1709 
L 2253 4666 
z
" transform="scale(0.015625)"/>
      </defs>
      <use xlink:href="#DejaVuSans-34"/>
     </g>
    </g>
   </g>
   <g id="text_6">
    <g clip-path="url(#pcc805167fb)">
     <!-- 5 -->
     <g transform="translate(172.027435 245.203662) scale(0.1 -0.1)">
      <defs>
       <path id="DejaVuSans-35" d="M 691 4666 
L 3169 4666 
L 3169 4134 
L 1269 4134 
L 1269 2991 
Q 1406 3038 1543 3061 
Q 1681 3084 1819 3084 
Q 2600 3084 3056 2656 
Q 3513 2228 3513 1497 
Q 3513 744 3044 326 
Q 2575 -91 1722 -91 
Q 1428 -91 1123 -41 
Q 819 9 494 109 
L 494 744 
Q 775 591 1075 516 
Q 1375 441 1709 441 
Q 2250 441 2565 725 
Q 2881 1009 2881 1497 
Q 2881 1984 2565 2268 
Q 2250 2553 1709 2553 
Q 1456 2553 1204 2497 
Q 953 2441 691 2322 
L 691 4666 
z
" transform="scale(0.015625)"/>
      </defs>
      <use xlink:href="#DejaVuSans-35"/>
     </g>
    </g>
   </g>
   <g id="text_7">
    <g clip-path="url(#pcc805167fb)">
     <!-- 6 -->
     <g transform="translate(136.818619 222.581999) scale(0.1 -0.1)">
      <defs>
       <path id="DejaVuSans-36" d="M 2113 2584 
Q 1688 2584 1439 2293 
Q 1191 2003 1191 1497 
Q 1191 994 1439 701 
Q 1688 409 2113 409 
Q 2538 409 2786 701 
Q 3034 994 3034 1497 
Q 3034 2003 2786 2293 
Q 2538 2584 2113 2584 
z
M 3366 4563 
L 3366 3988 
Q 3128 4100 2886 4159 
Q 2644 4219 2406 4219 
Q 1781 4219 1451 3797 
Q 1122 3375 1075 2522 
Q 1259 2794 1537 2939 
Q 1816 3084 2150 3084 
Q 2853 3084 3261 2657 
Q 3669 2231 3669 1497 
Q 3669 778 3244 343 
Q 2819 -91 2113 -91 
Q 1303 -91 875 529 
Q 447 1150 447 2328 
Q 447 3434 972 4092 
Q 1497 4750 2381 4750 
Q 2619 4750 2861 4703 
Q 3103 4656 3366 4563 
z
" transform="scale(0.015625)"/>
      </defs>
      <use xlink:href="#DejaVuSans-36"/>
     </g>
    </g>
   </g>
   <g id="text_8">
    <g clip-path="url(#pcc805167fb)">
     <!-- 7 -->
     <g transform="translate(191.294631 215.665313) scale(0.1 -0.1)">
      <defs>
       <path id="DejaVuSans-37" d="M 525 4666 
L 3525 4666 
L 3525 4397 
L 1831 0 
L 1172 0 
L 2766 4134 
L 525 4134 
L 525 4666 
z
" transform="scale(0.015625)"/>
      </defs>
      <use xlink:href="#DejaVuSans-37"/>
     </g>
    </g>
   </g>
   <g id="text_9">
    <g clip-path="url(#pcc805167fb)">
     <!-- 8 -->
     <g transform="translate(217.621976 249.127167) scale(0.1 -0.1)">
      <defs>
       <path id="DejaVuSans-38" d="M 2034 2216 
Q 1584 2216 1326 1975 
Q 1069 1734 1069 1313 
Q 1069 891 1326 650 
Q 1584 409 2034 409 
Q 2484 409 2743 651 
Q 3003 894 3003 1313 
Q 3003 1734 2745 1975 
Q 2488 2216 2034 2216 
z
M 1403 2484 
Q 997 2584 770 2862 
Q 544 3141 544 3541 
Q 544 4100 942 4425 
Q 1341 4750 2034 4750 
Q 2731 4750 3128 4425 
Q 3525 4100 3525 3541 
Q 3525 3141 3298 2862 
Q 3072 2584 2669 2484 
Q 3125 2378 3379 2068 
Q 3634 1759 3634 1313 
Q 3634 634 3220 271 
Q 2806 -91 2034 -91 
Q 1263 -91 848 271 
Q 434 634 434 1313 
Q 434 1759 690 2068 
Q 947 2378 1403 2484 
z
M 1172 3481 
Q 1172 3119 1398 2916 
Q 1625 2713 2034 2713 
Q 2441 2713 2670 2916 
Q 2900 3119 2900 3481 
Q 2900 3844 2670 4047 
Q 2441 4250 2034 4250 
Q 1625 4250 1398 4047 
Q 1172 3844 1172 3481 
z
" transform="scale(0.015625)"/>
      </defs>
      <use xlink:href="#DejaVuSans-38"/>
     </g>
    </g>
   </g>
   <g id="text_10">
    <g clip-path="url(#pcc805167fb)">
     <!-- 9 -->
     <g transform="translate(183.194733 223.987294) scale(0.1 -0.1)">
      <defs>
       <path id="DejaVuSans-39" d="M 703 97 
L 703 672 
Q 941 559 1184 500 
Q 1428 441 1663 441 
Q 2288 441 2617 861 
Q 2947 1281 2994 2138 
Q 2813 1869 2534 1725 
Q 2256 1581 1919 1581 
Q 1219 1581 811 2004 
Q 403 2428 403 3163 
Q 403 3881 828 4315 
Q 1253 4750 1959 4750 
Q 2769 4750 3195 4129 
Q 3622 3509 3622 2328 
Q 3622 1225 3098 567 
Q 2575 -91 1691 -91 
Q 1453 -91 1209 -44 
Q 966 3 703 97 
z
M 1959 2075 
Q 2384 2075 2632 2365 
Q 2881 2656 2881 3163 
Q 2881 3666 2632 3958 
Q 2384 4250 1959 4250 
Q 1534 4250 1286 3958 
Q 1038 3666 1038 3163 
Q 1038 2656 1286 2365 
Q 1534 2075 1959 2075 
z
" transform="scale(0.015625)"/>
      </defs>
      <use xlink:href="#DejaVuSans-39"/>
     </g>
    </g>
   </g>
   <g id="text_11">
    <g clip-path="url(#pcc805167fb)">
     <!-- 10 -->
     <g transform="translate(308.940941 212.273749) scale(0.1 -0.1)">
      <use xlink:href="#DejaVuSans-31"/>
      <use xlink:href="#DejaVuSans-30" x="63.623047"/>
     </g>
    </g>
   </g>
   <g id="text_12">
    <g clip-path="url(#pcc805167fb)">
     <!-- 11 -->
     <g transform="translate(253.717077 108.772719) scale(0.1 -0.1)">
      <use xlink:href="#DejaVuSans-31"/>
      <use xlink:href="#DejaVuSans-31" x="63.623047"/>
     </g>
    </g>
   </g>
   <g id="text_13">
    <g clip-path="url(#pcc805167fb)">
     <!-- 12 -->
     <g transform="translate(283.673981 123.523907) scale(0.1 -0.1)">
      <use xlink:href="#DejaVuSans-31"/>
      <use xlink:href="#DejaVuSans-32" x="63.623047"/>
     </g>
    </g>
   </g>
   <g id="text_14">
    <g clip-path="url(#pcc805167fb)">
     <!-- 13 -->
     <g transform="translate(141.966715 185.930239) scale(0.1 -0.1)">
      <use xlink:href="#DejaVuSans-31"/>
      <use xlink:href="#DejaVuSans-33" x="63.623047"/>
     </g>
    </g>
   </g>
   <g id="text_15">
    <g clip-path="url(#pcc805167fb)">
     <!-- 14 -->
     <g transform="translate(320.525105 56.820896) scale(0.1 -0.1)">
      <use xlink:href="#DejaVuSans-31"/>
      <use xlink:href="#DejaVuSans-34" x="63.623047"/>
     </g>
    </g>
   </g>
   <g id="text_16">
    <g clip-path="url(#pcc805167fb)">
     <!-- 15 -->
     <g transform="translate(117.310579 180.125822) scale(0.1 -0.1)">
      <use xlink:href="#DejaVuSans-31"/>
      <use xlink:href="#DejaVuSans-35" x="63.623047"/>
     </g>
    </g>
   </g>
   <g id="text_17">
    <g clip-path="url(#pcc805167fb)">
     <!-- 16 -->
     <g transform="translate(214.763723 233.236417) scale(0.1 -0.1)">
      <use xlink:href="#DejaVuSans-31"/>
      <use xlink:href="#DejaVuSans-36" x="63.623047"/>
     </g>
    </g>
   </g>
   <g id="text_18">
    <g clip-path="url(#pcc805167fb)">
     <!-- 17 -->
     <g transform="translate(302.408789 229.177296) scale(0.1 -0.1)">
      <use xlink:href="#DejaVuSans-31"/>
      <use xlink:href="#DejaVuSans-37" x="63.623047"/>
     </g>
    </g>
   </g>
   <g id="text_19">
    <g clip-path="url(#pcc805167fb)">
     <!-- 18 -->
     <g transform="translate(313.828961 185.510393) scale(0.1 -0.1)">
      <use xlink:href="#DejaVuSans-31"/>
      <use xlink:href="#DejaVuSans-38" x="63.623047"/>
     </g>
    </g>
   </g>
   <g id="text_20">
    <g clip-path="url(#pcc805167fb)">
     <!-- 19 -->
     <g transform="translate(244.19695 130.609729) scale(0.1 -0.1)">
      <use xlink:href="#DejaVuSans-31"/>
      <use xlink:href="#DejaVuSans-39" x="63.623047"/>
     </g>
    </g>
   </g>
   <g id="text_21">
    <g clip-path="url(#pcc805167fb)">
     <!-- 20 -->
     <g transform="translate(263.55176 159.124476) scale(0.1 -0.1)">
      <use xlink:href="#DejaVuSans-32"/>
      <use xlink:href="#DejaVuSans-30" x="63.623047"/>
     </g>
    </g>
   </g>
   <g id="text_22">
    <g clip-path="url(#pcc805167fb)">
     <!-- 21 -->
     <g transform="translate(283.316825 190.841324) scale(0.1 -0.1)">
      <use xlink:href="#DejaVuSans-32"/>
      <use xlink:href="#DejaVuSans-31" x="63.623047"/>
     </g>
    </g>
   </g>
   <g id="text_23">
    <g clip-path="url(#pcc805167fb)">
     <!-- 22 -->
     <g transform="translate(305.986769 151.181397) scale(0.1 -0.1)">
      <use xlink:href="#DejaVuSans-32"/>
      <use xlink:href="#DejaVuSans-32" x="63.623047"/>
     </g>
    </g>
   </g>
   <g id="text_24">
    <g clip-path="url(#pcc805167fb)">
     <!-- 23 -->
     <g transform="translate(329.536895 209.033463) scale(0.1 -0.1)">
      <use xlink:href="#DejaVuSans-32"/>
      <use xlink:href="#DejaVuSans-33" x="63.623047"/>
     </g>
    </g>
   </g>
   <g id="text_25">
    <g clip-path="url(#pcc805167fb)">
     <!-- 24 -->
     <g transform="translate(253.512926 240.549392) scale(0.1 -0.1)">
      <use xlink:href="#DejaVuSans-32"/>
      <use xlink:href="#DejaVuSans-34" x="63.623047"/>
     </g>
    </g>
   </g>
   <g id="text_26">
    <g clip-path="url(#pcc805167fb)">
     <!-- 25 -->
     <g transform="translate(221.225354 318.369292) scale(0.1 -0.1)">
      <use xlink:href="#DejaVuSans-32"/>
      <use xlink:href="#DejaVuSans-35" x="63.623047"/>
     </g>
    </g>
   </g>
   <g id="text_27">
    <g clip-path="url(#pcc805167fb)">
     <!-- 26 -->
     <g transform="translate(244.150213 297.145704) scale(0.1 -0.1)">
      <use xlink:href="#DejaVuSans-32"/>
      <use xlink:href="#DejaVuSans-36" x="63.623047"/>
     </g>
    </g>
   </g>
   <g id="text_28">
    <g clip-path="url(#pcc805167fb)">
     <!-- 27 -->
     <g transform="translate(267.519086 266.445537) scale(0.1 -0.1)">
      <use xlink:href="#DejaVuSans-32"/>
      <use xlink:href="#DejaVuSans-37" x="63.623047"/>
     </g>
    </g>
   </g>
   <g id="text_29">
    <g clip-path="url(#pcc805167fb)">
     <!-- 28 -->
     <g transform="translate(283.669062 227.836838) scale(0.1 -0.1)">
      <use xlink:href="#DejaVuSans-32"/>
      <use xlink:href="#DejaVuSans-38" x="63.623047"/>
     </g>
    </g>
   </g>
   <g id="text_30">
    <g clip-path="url(#pcc805167fb)">
     <!-- 29 -->
     <g transform="translate(388.600639 65.762455) scale(0.1 -0.1)">
      <use xlink:href="#DejaVuSans-32"/>
      <use xlink:href="#DejaVuSans-39" x="63.623047"/>
     </g>
    </g>
   </g>
   <g id="text_31">
    <g clip-path="url(#pcc805167fb)">
     <!-- 30 -->
     <g transform="translate(414.450723 59.947903) scale(0.1 -0.1)">
      <use xlink:href="#DejaVuSans-33"/>
      <use xlink:href="#DejaVuSans-30" x="63.623047"/>
     </g>
    </g>
   </g>
   <g id="text_32">
    <g clip-path="url(#pcc805167fb)">
     <!-- 31 -->
     <g transform="translate(33.624277 168.355806) scale(0.1 -0.1)">
      <use xlink:href="#DejaVuSans-33"/>
      <use xlink:href="#DejaVuSans-31" x="63.623047"/>
     </g>
    </g>
   </g>
   <g id="text_33">
    <g clip-path="url(#pcc805167fb)">
     <!-- 32 -->
     <g transform="translate(69.11769 172.461505) scale(0.1 -0.1)">
      <use xlink:href="#DejaVuSans-33"/>
      <use xlink:href="#DejaVuSans-32" x="63.623047"/>
     </g>
    </g>
   </g>
   <g id="text_34">
    <g clip-path="url(#pcc805167fb)">
     <!-- 33 -->
     <g transform="translate(325.668863 32.749458) scale(0.1 -0.1)">
      <use xlink:href="#DejaVuSans-33"/>
      <use xlink:href="#DejaVuSans-33" x="63.623047"/>
     </g>
    </g>
   </g>
   <g id="text_35">
    <g clip-path="url(#pcc805167fb)">
     <!-- 34 -->
     <g transform="translate(144.672153 164.629593) scale(0.1 -0.1)">
      <use xlink:href="#DejaVuSans-33"/>
      <use xlink:href="#DejaVuSans-34" x="63.623047"/>
     </g>
    </g>
   </g>
   <g id="text_36">
    <g clip-path="url(#pcc805167fb)">
     <!-- 35 -->
     <g transform="translate(180.061753 148.79692) scale(0.1 -0.1)">
      <use xlink:href="#DejaVuSans-33"/>
      <use xlink:href="#DejaVuSans-35" x="63.623047"/>
     </g>
    </g>
   </g>
   <g id="text_37">
    <g clip-path="url(#pcc805167fb)">
     <!-- 36 -->
     <g transform="translate(235.413163 113.196111) scale(0.1 -0.1)">
      <use xlink:href="#DejaVuSans-33"/>
      <use xlink:href="#DejaVuSans-36" x="63.623047"/>
     </g>
    </g>
   </g>
   <g id="text_38">
    <g clip-path="url(#pcc805167fb)">
     <!-- 37 -->
     <g transform="translate(295.106683 81.982096) scale(0.1 -0.1)">
      <use xlink:href="#DejaVuSans-33"/>
      <use xlink:href="#DejaVuSans-37" x="63.623047"/>
     </g>
    </g>
   </g>
   <g id="text_39">
    <g clip-path="url(#pcc805167fb)">
     <!-- 38 -->
     <g transform="translate(348.225123 67.296559) scale(0.1 -0.1)">
      <use xlink:href="#DejaVuSans-33"/>
      <use xlink:href="#DejaVuSans-38" x="63.623047"/>
     </g>
    </g>
   </g>
  </g>
 </g>
 <defs>
  <clipPath id="pcc805167fb">
   <rect x="0" y="0" width="460.8" height="345.6"/>
  </clipPath>
 </defs>
</svg>
