<?xml version="1.0" encoding="utf-8" standalone="no"?>
<!DOCTYPE svg PUBLIC "-//W3C//DTD SVG 1.1//EN"
  "http://www.w3.org/Graphics/SVG/1.1/DTD/svg11.dtd">
<svg xmlns:xlink="http://www.w3.org/1999/xlink" width="460.8pt" height="345.6pt" viewBox="0 0 460.8 345.6" xmlns="http://www.w3.org/2000/svg" version="1.1">
 <metadata>
  <rdf:RDF xmlns:dc="http://purl.org/dc/elements/1.1/" xmlns:cc="http://creativecommons.org/ns#" xmlns:rdf="http://www.w3.org/1999/02/22-rdf-syntax-ns#">
   <cc:Work>
    <dc:type rdf:resource="http://purl.org/dc/dcmitype/StillImage"/>
    <dc:date>2023-10-10T10:56:40.853096</dc:date>
    <dc:format>image/svg+xml</dc:format>
    <dc:creator>
     <cc:Agent>
      <dc:title>Matplotlib v3.6.1, https://matplotlib.org/</dc:title>
     </cc:Agent>
    </dc:creator>
   </cc:Work>
  </rdf:RDF>
 </metadata>
 <defs>
  <style type="text/css">*{stroke-linejoin: round; stroke-linecap: butt}</style>
 </defs>
 <g id="figure_1">
  <g id="patch_1">
   <path d="M 0 345.6 
L 460.8 345.6 
L 460.8 0 
L 0 0 
z
" style="fill: #ffffff"/>
  </g>
  <g id="axes_1">
   <g id="patch_2">
    <path d="M 261.267663 295.006592 
Q 278.787128 304.834795 295.331512 314.115991 
" clip-path="url(#p12af5191c8)" style="fill: none; stroke: #000000; stroke-linecap: round"/>
    <path d="M 292.821476 310.414678 
L 295.331512 314.115991 
L 290.86444 313.903232 
L 292.821476 310.414678 
z
" clip-path="url(#p12af5191c8)" style="stroke: #000000; stroke-linecap: round"/>
   </g>
   <g id="patch_3">
    <path d="M 257.692685 293.604417 
Q 230.615232 287.084081 204.624744 280.82549 
" clip-path="url(#p12af5191c8)" style="fill: none; stroke: #000000; stroke-linecap: round"/>
    <path d="M 208.04536 283.706354 
L 204.624744 280.82549 
L 208.981805 279.817515 
L 208.04536 283.706354 
z
" clip-path="url(#p12af5191c8)" style="stroke: #000000; stroke-linecap: round"/>
   </g>
   <g id="patch_4">
    <path d="M 260.880028 292.6218 
Q 278.469276 273.231749 295.307344 254.669785 
" clip-path="url(#p12af5191c8)" style="fill: none; stroke: #000000; stroke-linecap: round"/>
    <path d="M 291.138512 256.288687 
L 295.307344 254.669785 
L 294.101166 258.976191 
L 291.138512 256.288687 
z
" clip-path="url(#p12af5191c8)" style="stroke: #000000; stroke-linecap: round"/>
   </g>
   <g id="patch_5">
    <path d="M 79.876683 232.729345 
Q 60.883693 236.03611 42.992166 239.151104 
" clip-path="url(#p12af5191c8)" style="fill: none; stroke: #000000; stroke-linecap: round"/>
    <path d="M 47.275935 240.435367 
L 42.992166 239.151104 
L 46.589838 236.494648 
L 47.275935 240.435367 
z
" clip-path="url(#p12af5191c8)" style="stroke: #000000; stroke-linecap: round"/>
   </g>
   <g id="patch_6">
    <path d="M 83.069562 233.844923 
Q 94.549047 246.751806 105.285508 258.823276 
" clip-path="url(#p12af5191c8)" style="fill: none; stroke: #000000; stroke-linecap: round"/>
    <path d="M 104.12162 254.505248 
L 105.285508 258.823276 
L 101.132753 257.16357 
L 104.12162 254.505248 
z
" clip-path="url(#p12af5191c8)" style="stroke: #000000; stroke-linecap: round"/>
   </g>
   <g id="patch_7">
    <path d="M 83.436981 231.390737 
Q 104.113127 218.809951 123.834152 206.810325 
" clip-path="url(#p12af5191c8)" style="fill: none; stroke: #000000; stroke-linecap: round"/>
    <path d="M 119.377403 207.180977 
L 123.834152 206.810325 
L 121.456625 210.598116 
L 119.377403 207.180977 
z
" clip-path="url(#p12af5191c8)" style="stroke: #000000; stroke-linecap: round"/>
   </g>
   <g id="patch_8">
    <path d="M 323.801242 280.373417 
Q 311.470446 297.209901 299.800259 313.144388 
" clip-path="url(#p12af5191c8)" style="fill: none; stroke: #000000; stroke-linecap: round"/>
    <path d="M 303.777263 311.099043 
L 299.800259 313.144388 
L 300.550185 308.735577 
L 303.777263 311.099043 
z
" clip-path="url(#p12af5191c8)" style="stroke: #000000; stroke-linecap: round"/>
   </g>
   <g id="patch_9">
    <path d="M 324.854952 276.875881 
Q 323.45127 246.499235 322.099197 217.23943 
" clip-path="url(#p12af5191c8)" style="fill: none; stroke: #000000; stroke-linecap: round"/>
    <path d="M 320.285969 221.327486 
L 322.099197 217.23943 
L 324.281705 221.142847 
L 320.285969 221.327486 
z
" clip-path="url(#p12af5191c8)" style="stroke: #000000; stroke-linecap: round"/>
   </g>
   <g id="patch_10">
    <path d="M 296.303927 314.661504 
Q 278.784463 304.8333 262.240078 295.552104 
" clip-path="url(#p12af5191c8)" style="fill: none; stroke: #000000; stroke-linecap: round"/>
    <path d="M 264.750115 299.253417 
L 262.240078 295.552104 
L 266.70715 295.764863 
L 264.750115 299.253417 
z
" clip-path="url(#p12af5191c8)" style="stroke: #000000; stroke-linecap: round"/>
   </g>
   <g id="patch_11">
    <path d="M 299.13774 314.048991 
Q 311.468536 297.212508 323.138724 281.278021 
" clip-path="url(#p12af5191c8)" style="fill: none; stroke: #000000; stroke-linecap: round"/>
    <path d="M 319.16172 283.323366 
L 323.138724 281.278021 
L 322.388798 285.686831 
L 319.16172 283.323366 
z
" clip-path="url(#p12af5191c8)" style="stroke: #000000; stroke-linecap: round"/>
   </g>
   <g id="patch_12">
    <path d="M 152.810998 286.584543 
Q 176.273654 283.474282 198.627972 280.510945 
" clip-path="url(#p12af5191c8)" style="fill: none; stroke: #000000; stroke-linecap: round"/>
    <path d="M 194.399835 279.053939 
L 198.627972 280.510945 
L 194.925486 283.01925 
L 194.399835 279.053939 
z
" clip-path="url(#p12af5191c8)" style="stroke: #000000; stroke-linecap: round"/>
   </g>
   <g id="patch_13">
    <path d="M 149.225592 285.854006 
Q 129.103428 273.971806 109.94398 262.658094 
" clip-path="url(#p12af5191c8)" style="fill: none; stroke: #000000; stroke-linecap: round"/>
    <path d="M 112.371358 266.414133 
L 109.94398 262.658094 
L 114.405239 262.969815 
L 112.371358 266.414133 
z
" clip-path="url(#p12af5191c8)" style="stroke: #000000; stroke-linecap: round"/>
   </g>
   <g id="patch_14">
    <path d="M 203.537515 280.563682 
Q 230.614967 287.084017 256.605456 293.342609 
" clip-path="url(#p12af5191c8)" style="fill: none; stroke: #000000; stroke-linecap: round"/>
    <path d="M 253.184839 290.461745 
L 256.605456 293.342609 
L 252.248394 294.350584 
L 253.184839 290.461745 
z
" clip-path="url(#p12af5191c8)" style="stroke: #000000; stroke-linecap: round"/>
   </g>
   <g id="patch_15">
    <path d="M 199.735402 280.364141 
Q 176.272746 283.474402 153.918428 286.437739 
" clip-path="url(#p12af5191c8)" style="fill: none; stroke: #000000; stroke-linecap: round"/>
    <path d="M 158.146564 287.894744 
L 153.918428 286.437739 
L 157.620914 283.929433 
L 158.146564 287.894744 
z
" clip-path="url(#p12af5191c8)" style="stroke: #000000; stroke-linecap: round"/>
   </g>
   <g id="patch_16">
    <path d="M 201.409084 278.185207 
Q 197.901539 250.52448 194.53464 223.972905 
" clip-path="url(#p12af5191c8)" style="fill: none; stroke: #000000; stroke-linecap: round"/>
    <path d="M 193.053723 228.192725 
L 194.53464 223.972905 
L 197.021946 227.689531 
L 193.053723 228.192725 
z
" clip-path="url(#p12af5191c8)" style="stroke: #000000; stroke-linecap: round"/>
   </g>
   <g id="patch_17">
    <path d="M 106.028749 259.658933 
Q 94.549264 246.75205 83.812802 234.68058 
" clip-path="url(#p12af5191c8)" style="fill: none; stroke: #000000; stroke-linecap: round"/>
    <path d="M 84.976691 238.998608 
L 83.812802 234.68058 
L 87.965557 236.340286 
L 84.976691 238.998608 
z
" clip-path="url(#p12af5191c8)" style="stroke: #000000; stroke-linecap: round"/>
   </g>
   <g id="patch_18">
    <path d="M 108.983692 262.091041 
Q 129.105856 273.973241 148.265304 285.286953 
" clip-path="url(#p12af5191c8)" style="fill: none; stroke: #000000; stroke-linecap: round"/>
    <path d="M 145.837926 281.530913 
L 148.265304 285.286953 
L 143.804045 284.975232 
L 145.837926 281.530913 
z
" clip-path="url(#p12af5191c8)" style="stroke: #000000; stroke-linecap: round"/>
   </g>
   <g id="patch_19">
    <path d="M 106.095211 262.610549 
Q 92.36647 279.526749 79.342268 295.574833 
" clip-path="url(#p12af5191c8)" style="fill: none; stroke: #000000; stroke-linecap: round"/>
    <path d="M 83.415837 293.729288 
L 79.342268 295.574833 
L 80.309973 291.208651 
L 83.415837 293.729288 
z
" clip-path="url(#p12af5191c8)" style="stroke: #000000; stroke-linecap: round"/>
   </g>
   <g id="patch_20">
    <path d="M 107.943025 259.274604 
Q 116.880965 233.163465 125.456823 208.110105 
" clip-path="url(#p12af5191c8)" style="fill: none; stroke: #000000; stroke-linecap: round"/>
    <path d="M 122.269187 211.246819 
L 125.456823 208.110105 
L 126.053613 212.542242 
L 122.269187 211.246819 
z
" clip-path="url(#p12af5191c8)" style="stroke: #000000; stroke-linecap: round"/>
   </g>
   <g id="patch_21">
    <path d="M 124.790969 206.228132 
Q 104.114824 218.808918 84.393798 230.808544 
" clip-path="url(#p12af5191c8)" style="fill: none; stroke: #000000; stroke-linecap: round"/>
    <path d="M 88.850547 230.437892 
L 84.393798 230.808544 
L 86.771325 227.020753 
L 88.850547 230.437892 
z
" clip-path="url(#p12af5191c8)" style="stroke: #000000; stroke-linecap: round"/>
   </g>
   <g id="patch_22">
    <path d="M 125.818683 207.052976 
Q 116.880742 233.164115 108.304884 258.217475 
" clip-path="url(#p12af5191c8)" style="fill: none; stroke: #000000; stroke-linecap: round"/>
    <path d="M 111.49252 255.080761 
L 108.304884 258.217475 
L 107.708094 253.785338 
L 111.49252 255.080761 
z
" clip-path="url(#p12af5191c8)" style="stroke: #000000; stroke-linecap: round"/>
   </g>
   <g id="patch_23">
    <path d="M 128.334176 205.6599 
Q 160.300462 213.084045 191.177699 220.25526 
" clip-path="url(#p12af5191c8)" style="fill: none; stroke: #000000; stroke-linecap: round"/>
    <path d="M 187.733857 217.402199 
L 191.177699 220.25526 
L 186.828945 221.298497 
L 187.733857 217.402199 
z
" clip-path="url(#p12af5191c8)" style="stroke: #000000; stroke-linecap: round"/>
   </g>
   <g id="patch_24">
    <path d="M 126.181384 203.304979 
Q 120.93672 165.276892 115.844805 128.356356 
" clip-path="url(#p12af5191c8)" style="fill: none; stroke: #000000; stroke-linecap: round"/>
    <path d="M 114.410048 132.592093 
L 115.844805 128.356356 
L 118.37254 132.045604 
L 114.410048 132.592093 
z
" clip-path="url(#p12af5191c8)" style="stroke: #000000; stroke-linecap: round"/>
   </g>
   <g id="patch_25">
    <path d="M 78.638569 296.441913 
Q 92.36731 279.525714 105.391512 263.47763 
" clip-path="url(#p12af5191c8)" style="fill: none; stroke: #000000; stroke-linecap: round"/>
    <path d="M 101.317943 265.323175 
L 105.391512 263.47763 
L 104.423807 267.843812 
L 101.317943 265.323175 
z
" clip-path="url(#p12af5191c8)" style="stroke: #000000; stroke-linecap: round"/>
   </g>
   <g id="patch_26">
    <path d="M 115.691832 127.24718 
Q 120.936496 165.275267 126.028411 202.195804 
" clip-path="url(#p12af5191c8)" style="fill: none; stroke: #000000; stroke-linecap: round"/>
    <path d="M 127.463168 197.960066 
L 126.028411 202.195804 
L 123.500675 198.506555 
L 127.463168 197.960066 
z
" clip-path="url(#p12af5191c8)" style="stroke: #000000; stroke-linecap: round"/>
   </g>
   <g id="patch_27">
    <path d="M 114.665846 123.553848 
Q 103.071422 96.504409 91.917471 70.482579 
" clip-path="url(#p12af5191c8)" style="fill: none; stroke: #000000; stroke-linecap: round"/>
    <path d="M 91.65511 74.947013 
L 91.917471 70.482579 
L 95.331601 73.371128 
L 91.65511 74.947013 
z
" clip-path="url(#p12af5191c8)" style="stroke: #000000; stroke-linecap: round"/>
   </g>
   <g id="patch_28">
    <path d="M 116.745348 123.912232 
Q 132.53532 106.914172 147.564367 90.735255 
" clip-path="url(#p12af5191c8)" style="fill: none; stroke: #000000; stroke-linecap: round"/>
    <path d="M 143.376675 92.304725 
L 147.564367 90.735255 
L 146.307328 95.02709 
L 143.376675 92.304725 
z
" clip-path="url(#p12af5191c8)" style="stroke: #000000; stroke-linecap: round"/>
   </g>
   <g id="patch_29">
    <path d="M 91.477086 69.455175 
Q 103.07151 96.504615 114.225461 122.526444 
" clip-path="url(#p12af5191c8)" style="fill: none; stroke: #000000; stroke-linecap: round"/>
    <path d="M 114.487822 118.06201 
L 114.225461 122.526444 
L 110.811331 119.637895 
L 114.487822 118.06201 
z
" clip-path="url(#p12af5191c8)" style="stroke: #000000; stroke-linecap: round"/>
   </g>
   <g id="patch_30">
    <path d="M 89.573611 66.116258 
Q 76.94057 48.834831 64.967335 32.455988 
" clip-path="url(#p12af5191c8)" style="fill: none; stroke: #000000; stroke-linecap: round"/>
    <path d="M 65.713335 36.865464 
L 64.967335 32.455988 
L 68.942516 34.504873 
L 65.713335 36.865464 
z
" clip-path="url(#p12af5191c8)" style="stroke: #000000; stroke-linecap: round"/>
   </g>
   <g id="patch_31">
    <path d="M 92.485788 66.891985 
Q 105.017346 61.32713 116.527088 56.21603 
" clip-path="url(#p12af5191c8)" style="fill: none; stroke: #000000; stroke-linecap: round"/>
    <path d="M 112.059629 56.011554 
L 116.527088 56.21603 
L 113.683031 59.667311 
L 112.059629 56.011554 
z
" clip-path="url(#p12af5191c8)" style="stroke: #000000; stroke-linecap: round"/>
   </g>
   <g id="patch_32">
    <path d="M 148.326746 89.914546 
Q 132.536775 106.912605 117.507728 123.091523 
" clip-path="url(#p12af5191c8)" style="fill: none; stroke: #000000; stroke-linecap: round"/>
    <path d="M 121.69542 121.522052 
L 117.507728 123.091523 
L 118.764767 118.799687 
L 121.69542 121.522052 
z
" clip-path="url(#p12af5191c8)" style="stroke: #000000; stroke-linecap: round"/>
   </g>
   <g id="patch_33">
    <path d="M 151.501848 89.03825 
Q 176.669417 96.387251 200.76377 103.422869 
" clip-path="url(#p12af5191c8)" style="fill: none; stroke: #000000; stroke-linecap: round"/>
    <path d="M 197.484712 100.381853 
L 200.76377 103.422869 
L 196.363522 104.221506 
L 197.484712 100.381853 
z
" clip-path="url(#p12af5191c8)" style="stroke: #000000; stroke-linecap: round"/>
   </g>
   <g id="patch_34">
    <path d="M 148.347144 87.061713 
Q 134.483421 71.736258 121.369738 57.239924 
" clip-path="url(#p12af5191c8)" style="fill: none; stroke: #000000; stroke-linecap: round"/>
    <path d="M 122.569985 61.547987 
L 121.369738 57.239924 
L 125.536336 58.864564 
L 122.569985 61.547987 
z
" clip-path="url(#p12af5191c8)" style="stroke: #000000; stroke-linecap: round"/>
   </g>
   <g id="patch_35">
    <path d="M 255.260493 143.89907 
Q 255.605698 158.742273 255.924909 172.467744 
" clip-path="url(#p12af5191c8)" style="fill: none; stroke: #000000; stroke-linecap: round"/>
    <path d="M 257.831366 168.422324 
L 255.924909 172.467744 
L 253.832448 168.515327 
L 257.831366 168.422324 
z
" clip-path="url(#p12af5191c8)" style="stroke: #000000; stroke-linecap: round"/>
   </g>
   <g id="patch_36">
    <path d="M 253.65256 140.818376 
Q 229.45549 123.120515 206.160837 106.082687 
" clip-path="url(#p12af5191c8)" style="fill: none; stroke: #000000; stroke-linecap: round"/>
    <path d="M 208.208721 110.058384 
L 206.160837 106.082687 
L 210.570126 106.829798 
L 208.208721 110.058384 
z
" clip-path="url(#p12af5191c8)" style="stroke: #000000; stroke-linecap: round"/>
   </g>
   <g id="patch_37">
    <path d="M 257.084821 142.454576 
Q 288.577845 150.761813 318.989813 158.783889 
" clip-path="url(#p12af5191c8)" style="fill: none; stroke: #000000; stroke-linecap: round"/>
    <path d="M 315.63222 155.829812 
L 318.989813 158.783889 
L 314.611996 159.697517 
L 315.63222 155.829812 
z
" clip-path="url(#p12af5191c8)" style="stroke: #000000; stroke-linecap: round"/>
   </g>
   <g id="patch_38">
    <path d="M 253.804785 143.291014 
Q 236.900255 159.223685 220.809336 174.38952 
" clip-path="url(#p12af5191c8)" style="fill: none; stroke: #000000; stroke-linecap: round"/>
    <path d="M 225.091957 173.101437 
L 220.809336 174.38952 
L 222.348442 170.190574 
L 225.091957 173.101437 
z
" clip-path="url(#p12af5191c8)" style="stroke: #000000; stroke-linecap: round"/>
   </g>
   <g id="patch_39">
    <path d="M 360.661561 191.252832 
Q 342.052743 176.022004 324.309112 161.49931 
" clip-path="url(#p12af5191c8)" style="fill: none; stroke: #000000; stroke-linecap: round"/>
    <path d="M 326.137753 165.580495 
L 324.309112 161.49931 
L 328.671245 162.485109 
L 326.137753 165.580495 
z
" clip-path="url(#p12af5191c8)" style="stroke: #000000; stroke-linecap: round"/>
   </g>
   <g id="patch_40">
    <path d="M 41.89237 239.342584 
Q 60.885361 236.035819 78.776887 232.920824 
" clip-path="url(#p12af5191c8)" style="fill: none; stroke: #000000; stroke-linecap: round"/>
    <path d="M 74.493119 231.636562 
L 78.776887 232.920824 
L 75.179216 235.577281 
L 74.493119 231.636562 
z
" clip-path="url(#p12af5191c8)" style="stroke: #000000; stroke-linecap: round"/>
   </g>
   <g id="patch_41">
    <path d="M 419.454762 56.294768 
Q 404.128494 71.876947 389.586224 86.662037 
" clip-path="url(#p12af5191c8)" style="fill: none; stroke: #000000; stroke-linecap: round"/>
    <path d="M 393.81701 85.212746 
L 389.586224 86.662037 
L 390.965262 82.407833 
L 393.81701 85.212746 
z
" clip-path="url(#p12af5191c8)" style="stroke: #000000; stroke-linecap: round"/>
   </g>
   <g id="patch_42">
    <path d="M 388.802825 87.458517 
Q 404.129093 71.876338 418.671363 57.091248 
" clip-path="url(#p12af5191c8)" style="fill: none; stroke: #000000; stroke-linecap: round"/>
    <path d="M 414.440577 58.540539 
L 418.671363 57.091248 
L 417.292325 61.345452 
L 414.440577 58.540539 
z
" clip-path="url(#p12af5191c8)" style="stroke: #000000; stroke-linecap: round"/>
   </g>
   <g id="patch_43">
    <path d="M 388.428554 90.508257 
Q 395.555614 102.591465 402.114665 113.711674 
" clip-path="url(#p12af5191c8)" style="fill: none; stroke: #000000; stroke-linecap: round"/>
    <path d="M 401.805165 109.250261 
L 402.114665 113.711674 
L 398.359835 111.282426 
L 401.805165 109.250261 
z
" clip-path="url(#p12af5191c8)" style="stroke: #000000; stroke-linecap: round"/>
   </g>
   <g id="patch_44">
    <path d="M 386.915805 90.700859 
Q 379.165665 117.991205 371.720955 144.206046 
" clip-path="url(#p12af5191c8)" style="fill: none; stroke: #000000; stroke-linecap: round"/>
    <path d="M 374.737621 140.904572 
L 371.720955 144.206046 
L 370.889776 139.811829 
L 374.737621 140.904572 
z
" clip-path="url(#p12af5191c8)" style="stroke: #000000; stroke-linecap: round"/>
   </g>
   <g id="patch_45">
    <path d="M 387.756703 86.926308 
Q 391.701962 62.758121 395.467096 39.693362 
" clip-path="url(#p12af5191c8)" style="fill: none; stroke: #000000; stroke-linecap: round"/>
    <path d="M 392.848785 43.31889 
L 395.467096 39.693362 
L 396.796532 43.963327 
L 392.848785 43.31889 
z
" clip-path="url(#p12af5191c8)" style="stroke: #000000; stroke-linecap: round"/>
   </g>
   <g id="patch_46">
    <path d="M 386.190076 90.31677 
Q 370.515295 108.776132 355.564187 126.383263 
" clip-path="url(#p12af5191c8)" style="fill: none; stroke: #000000; stroke-linecap: round"/>
    <path d="M 359.677795 124.628773 
L 355.564187 126.383263 
L 356.62876 122.039683 
L 359.677795 124.628773 
z
" clip-path="url(#p12af5191c8)" style="stroke: #000000; stroke-linecap: round"/>
   </g>
   <g id="patch_47">
    <path d="M 402.682487 114.674358 
Q 395.555428 102.59115 388.996376 91.470941 
" clip-path="url(#p12af5191c8)" style="fill: none; stroke: #000000; stroke-linecap: round"/>
    <path d="M 389.305876 95.932354 
L 388.996376 91.470941 
L 392.751207 93.900189 
L 389.305876 95.932354 
z
" clip-path="url(#p12af5191c8)" style="stroke: #000000; stroke-linecap: round"/>
   </g>
   <g id="patch_48">
    <path d="M 402.256142 117.668374 
Q 387.276739 131.743882 373.112107 145.053785 
" clip-path="url(#p12af5191c8)" style="fill: none; stroke: #000000; stroke-linecap: round"/>
    <path d="M 377.396671 143.772179 
L 373.112107 145.053785 
L 374.657561 140.857171 
L 377.396671 143.772179 
z
" clip-path="url(#p12af5191c8)" style="stroke: #000000; stroke-linecap: round"/>
   </g>
   <g id="patch_49">
    <path d="M 371.414786 145.284151 
Q 379.164926 117.993805 386.609636 91.778964 
" clip-path="url(#p12af5191c8)" style="fill: none; stroke: #000000; stroke-linecap: round"/>
    <path d="M 383.59297 95.080438 
L 386.609636 91.778964 
L 387.440815 96.173181 
L 383.59297 95.080438 
z
" clip-path="url(#p12af5191c8)" style="stroke: #000000; stroke-linecap: round"/>
   </g>
   <g id="patch_50">
    <path d="M 372.296763 145.819929 
Q 387.276165 131.744422 401.440798 118.434518 
" clip-path="url(#p12af5191c8)" style="fill: none; stroke: #000000; stroke-linecap: round"/>
    <path d="M 397.156234 119.716124 
L 401.440798 118.434518 
L 399.895344 122.631133 
L 397.156234 119.716124 
z
" clip-path="url(#p12af5191c8)" style="stroke: #000000; stroke-linecap: round"/>
   </g>
   <g id="patch_51">
    <path d="M 370.357826 149.009643 
Q 368.200967 156.619431 366.348985 163.153556 
" clip-path="url(#p12af5191c8)" style="fill: none; stroke: #000000; stroke-linecap: round"/>
    <path d="M 369.363952 159.85053 
L 366.348985 163.153556 
L 365.515544 158.759768 
L 369.363952 159.85053 
z
" clip-path="url(#p12af5191c8)" style="stroke: #000000; stroke-linecap: round"/>
   </g>
   <g id="patch_52">
    <path d="M 369.743958 148.710581 
Q 346.421328 180.669185 323.757772 211.724672 
" clip-path="url(#p12af5191c8)" style="fill: none; stroke: #000000; stroke-linecap: round"/>
    <path d="M 327.731293 209.672567 
L 323.757772 211.724672 
L 324.5002 207.314593 
L 327.731293 209.672567 
z
" clip-path="url(#p12af5191c8)" style="stroke: #000000; stroke-linecap: round"/>
   </g>
   <g id="patch_53">
    <path d="M 395.646778 38.592649 
Q 391.701519 62.760836 387.936386 85.825595 
" clip-path="url(#p12af5191c8)" style="fill: none; stroke: #000000; stroke-linecap: round"/>
    <path d="M 390.554696 82.200067 
L 387.936386 85.825595 
L 386.60695 81.55563 
L 390.554696 82.200067 
z
" clip-path="url(#p12af5191c8)" style="stroke: #000000; stroke-linecap: round"/>
   </g>
   <g id="patch_54">
    <path d="M 325.679493 193.467448 
Q 311.939439 222.064257 298.683581 249.65332 
" clip-path="url(#p12af5191c8)" style="fill: none; stroke: #000000; stroke-linecap: round"/>
    <path d="M 302.218609 246.914055 
L 298.683581 249.65332 
L 298.613186 245.181738 
L 302.218609 246.914055 
z
" clip-path="url(#p12af5191c8)" style="stroke: #000000; stroke-linecap: round"/>
   </g>
   <g id="patch_55">
    <path d="M 327.282688 189.942249 
Q 340.052867 160.217199 352.38173 131.519398 
" clip-path="url(#p12af5191c8)" style="fill: none; stroke: #000000; stroke-linecap: round"/>
    <path d="M 348.96523 134.405144 
L 352.38173 131.519398 
L 352.640427 135.984045 
L 348.96523 134.405144 
z
" clip-path="url(#p12af5191c8)" style="stroke: #000000; stroke-linecap: round"/>
   </g>
   <g id="patch_56">
    <path d="M 296.058124 253.84214 
Q 278.468875 273.232191 261.630808 291.794155 
" clip-path="url(#p12af5191c8)" style="fill: none; stroke: #000000; stroke-linecap: round"/>
    <path d="M 265.799639 290.175253 
L 261.630808 291.794155 
L 262.836985 287.487749 
L 265.799639 290.175253 
z
" clip-path="url(#p12af5191c8)" style="stroke: #000000; stroke-linecap: round"/>
   </g>
   <g id="patch_57">
    <path d="M 298.199282 250.661279 
Q 311.939336 222.06447 325.195194 194.475407 
" clip-path="url(#p12af5191c8)" style="fill: none; stroke: #000000; stroke-linecap: round"/>
    <path d="M 321.660166 197.214673 
L 325.195194 194.475407 
L 325.26559 198.946989 
L 321.660166 197.214673 
z
" clip-path="url(#p12af5191c8)" style="stroke: #000000; stroke-linecap: round"/>
   </g>
   <g id="patch_58">
    <path d="M 354.843208 127.232322 
Q 370.517989 108.77296 385.469096 91.165829 
" clip-path="url(#p12af5191c8)" style="fill: none; stroke: #000000; stroke-linecap: round"/>
    <path d="M 381.355489 92.920319 
L 385.469096 91.165829 
L 384.404524 95.509409 
L 381.355489 92.920319 
z
" clip-path="url(#p12af5191c8)" style="stroke: #000000; stroke-linecap: round"/>
   </g>
   <g id="patch_59">
    <path d="M 352.823906 130.490148 
Q 340.053727 160.215198 327.724864 188.912999 
" clip-path="url(#p12af5191c8)" style="fill: none; stroke: #000000; stroke-linecap: round"/>
    <path d="M 331.141363 186.027253 
L 327.724864 188.912999 
L 327.466167 184.448352 
L 331.141363 186.027253 
z
" clip-path="url(#p12af5191c8)" style="stroke: #000000; stroke-linecap: round"/>
   </g>
   <g id="patch_60">
    <path d="M 219.998467 175.153773 
Q 236.902996 159.221101 252.993915 144.055266 
" clip-path="url(#p12af5191c8)" style="fill: none; stroke: #000000; stroke-linecap: round"/>
    <path d="M 248.711294 145.343349 
L 252.993915 144.055266 
L 251.454809 148.254213 
L 248.711294 145.343349 
z
" clip-path="url(#p12af5191c8)" style="stroke: #000000; stroke-linecap: round"/>
   </g>
   <g id="patch_61">
    <path d="M 217.655622 178.179426 
Q 206.37017 198.712955 195.623227 218.266683 
" clip-path="url(#p12af5191c8)" style="fill: none; stroke: #000000; stroke-linecap: round"/>
    <path d="M 199.302575 215.724558 
L 195.623227 218.266683 
L 195.797135 213.79793 
L 199.302575 215.724558 
z
" clip-path="url(#p12af5191c8)" style="stroke: #000000; stroke-linecap: round"/>
   </g>
   <g id="patch_62">
    <path d="M 255.950815 173.581677 
Q 255.60561 158.738474 255.2864 145.013003 
" clip-path="url(#p12af5191c8)" style="fill: none; stroke: #000000; stroke-linecap: round"/>
    <path d="M 253.379942 149.058423 
L 255.2864 145.013003 
L 257.378861 148.965421 
L 253.379942 149.058423 
z
" clip-path="url(#p12af5191c8)" style="stroke: #000000; stroke-linecap: round"/>
   </g>
   <g id="patch_63">
    <path d="M 256.034534 177.454417 
Q 256.386788 195.088315 256.716712 211.604402 
" clip-path="url(#p12af5191c8)" style="fill: none; stroke: #000000; stroke-linecap: round"/>
    <path d="M 258.636425 207.565256 
L 256.716712 211.604402 
L 254.637223 207.645144 
L 258.636425 207.565256 
z
" clip-path="url(#p12af5191c8)" style="stroke: #000000; stroke-linecap: round"/>
   </g>
   <g id="patch_64">
    <path d="M 117.550711 55.761473 
Q 105.019153 61.326327 93.509411 66.437427 
" clip-path="url(#p12af5191c8)" style="fill: none; stroke: #000000; stroke-linecap: round"/>
    <path d="M 97.97687 66.641904 
L 93.509411 66.437427 
L 96.353468 62.986146 
L 97.97687 66.641904 
z
" clip-path="url(#p12af5191c8)" style="stroke: #000000; stroke-linecap: round"/>
   </g>
   <g id="patch_65">
    <path d="M 120.618517 56.409498 
Q 134.48224 71.734953 147.595923 86.231287 
" clip-path="url(#p12af5191c8)" style="fill: none; stroke: #000000; stroke-linecap: round"/>
    <path d="M 146.395676 81.923224 
L 147.595923 86.231287 
L 143.429325 84.606647 
L 146.395676 81.923224 
z
" clip-path="url(#p12af5191c8)" style="stroke: #000000; stroke-linecap: round"/>
   </g>
   <g id="patch_66">
    <path d="M 64.306492 31.551985 
Q 76.939533 48.833412 88.912768 65.212255 
" clip-path="url(#p12af5191c8)" style="fill: none; stroke: #000000; stroke-linecap: round"/>
    <path d="M 88.166768 60.802779 
L 88.912768 65.212255 
L 84.937587 63.163369 
L 88.166768 60.802779 
z
" clip-path="url(#p12af5191c8)" style="stroke: #000000; stroke-linecap: round"/>
   </g>
   <g id="patch_67">
    <path d="M 201.836875 103.736219 
Q 176.669306 96.387218 152.574953 89.3516 
" clip-path="url(#p12af5191c8)" style="fill: none; stroke: #000000; stroke-linecap: round"/>
    <path d="M 155.854011 92.392616 
L 152.574953 89.3516 
L 156.975201 88.552963 
L 155.854011 92.392616 
z
" clip-path="url(#p12af5191c8)" style="stroke: #000000; stroke-linecap: round"/>
   </g>
   <g id="patch_68">
    <path d="M 205.257041 105.421646 
Q 229.454112 123.119507 252.748764 140.157335 
" clip-path="url(#p12af5191c8)" style="fill: none; stroke: #000000; stroke-linecap: round"/>
    <path d="M 250.700881 136.181637 
L 252.748764 140.157335 
L 248.339476 139.410224 
L 250.700881 136.181637 
z
" clip-path="url(#p12af5191c8)" style="stroke: #000000; stroke-linecap: round"/>
   </g>
   <g id="patch_69">
    <path d="M 320.073919 159.069854 
Q 288.580895 150.762617 258.168928 142.740541 
" clip-path="url(#p12af5191c8)" style="fill: none; stroke: #000000; stroke-linecap: round"/>
    <path d="M 261.526521 145.694618 
L 258.168928 142.740541 
L 262.546745 141.826913 
L 261.526521 145.694618 
z
" clip-path="url(#p12af5191c8)" style="stroke: #000000; stroke-linecap: round"/>
   </g>
   <g id="patch_70">
    <path d="M 323.443142 160.790536 
Q 342.05196 176.021363 359.795591 190.544058 
" clip-path="url(#p12af5191c8)" style="fill: none; stroke: #000000; stroke-linecap: round"/>
    <path d="M 357.96695 186.462872 
L 359.795591 190.544058 
L 355.433458 189.558258 
L 357.96695 186.462872 
z
" clip-path="url(#p12af5191c8)" style="stroke: #000000; stroke-linecap: round"/>
   </g>
   <g id="patch_71">
    <path d="M 323.860771 159.850353 
Q 343.731007 162.828511 362.495559 165.640949 
" clip-path="url(#p12af5191c8)" style="fill: none; stroke: #000000; stroke-linecap: round"/>
    <path d="M 358.836194 163.070143 
L 362.495559 165.640949 
L 358.243295 167.025958 
L 358.836194 163.070143 
z
" clip-path="url(#p12af5191c8)" style="stroke: #000000; stroke-linecap: round"/>
   </g>
   <g id="patch_72">
    <path d="M 366.044081 164.229312 
Q 368.20094 156.619525 370.052922 150.0854 
" clip-path="url(#p12af5191c8)" style="fill: none; stroke: #000000; stroke-linecap: round"/>
    <path d="M 367.037956 153.388425 
L 370.052922 150.0854 
L 370.886363 154.479188 
L 367.037956 153.388425 
z
" clip-path="url(#p12af5191c8)" style="stroke: #000000; stroke-linecap: round"/>
   </g>
   <g id="patch_73">
    <path d="M 363.59822 165.806216 
Q 343.727983 162.828058 324.963431 160.01562 
" clip-path="url(#p12af5191c8)" style="fill: none; stroke: #000000; stroke-linecap: round"/>
    <path d="M 328.622797 162.586426 
L 324.963431 160.01562 
L 329.215696 158.630611 
L 328.622797 162.586426 
z
" clip-path="url(#p12af5191c8)" style="stroke: #000000; stroke-linecap: round"/>
   </g>
   <g id="patch_74">
    <path d="M 322.047795 216.127061 
Q 323.451477 246.503707 324.803551 275.763512 
" clip-path="url(#p12af5191c8)" style="fill: none; stroke: #000000; stroke-linecap: round"/>
    <path d="M 326.616779 271.675455 
L 324.803551 275.763512 
L 322.621043 271.860095 
L 326.616779 271.675455 
z
" clip-path="url(#p12af5191c8)" style="stroke: #000000; stroke-linecap: round"/>
   </g>
   <g id="patch_75">
    <path d="M 323.100575 212.625219 
Q 346.423205 180.666615 369.086761 149.611128 
" clip-path="url(#p12af5191c8)" style="fill: none; stroke: #000000; stroke-linecap: round"/>
    <path d="M 365.11324 151.663233 
L 369.086761 149.611128 
L 368.344332 154.021207 
L 365.11324 151.663233 
z
" clip-path="url(#p12af5191c8)" style="stroke: #000000; stroke-linecap: round"/>
   </g>
   <g id="patch_76">
    <path d="M 320.020872 214.204455 
Q 289.36627 214.426039 259.829673 214.639541 
" clip-path="url(#p12af5191c8)" style="fill: none; stroke: #000000; stroke-linecap: round"/>
    <path d="M 263.844025 216.610576 
L 259.829673 214.639541 
L 263.815112 212.61068 
L 263.844025 216.610576 
z
" clip-path="url(#p12af5191c8)" style="stroke: #000000; stroke-linecap: round"/>
   </g>
   <g id="patch_77">
    <path d="M 256.739126 212.726464 
Q 256.386873 195.092566 256.056948 178.576479 
" clip-path="url(#p12af5191c8)" style="fill: none; stroke: #000000; stroke-linecap: round"/>
    <path d="M 254.137235 182.615625 
L 256.056948 178.576479 
L 258.136437 182.535738 
L 254.137235 182.615625 
z
" clip-path="url(#p12af5191c8)" style="stroke: #000000; stroke-linecap: round"/>
   </g>
   <g id="patch_78">
    <path d="M 258.715216 214.647596 
Q 289.369818 214.426013 318.906415 214.212511 
" clip-path="url(#p12af5191c8)" style="fill: none; stroke: #000000; stroke-linecap: round"/>
    <path d="M 314.892063 212.241476 
L 318.906415 214.212511 
L 314.920976 216.241371 
L 314.892063 212.241476 
z
" clip-path="url(#p12af5191c8)" style="stroke: #000000; stroke-linecap: round"/>
   </g>
   <g id="patch_79">
    <path d="M 254.847446 214.855296 
Q 225.464169 217.80369 197.19334 220.640458 
" clip-path="url(#p12af5191c8)" style="fill: none; stroke: #000000; stroke-linecap: round"/>
    <path d="M 201.373036 222.2311 
L 197.19334 220.640458 
L 200.973671 218.251086 
L 201.373036 222.2311 
z
" clip-path="url(#p12af5191c8)" style="stroke: #000000; stroke-linecap: round"/>
   </g>
   <g id="patch_80">
    <path d="M 194.394845 222.870469 
Q 197.90239 250.531196 201.269289 277.082772 
" clip-path="url(#p12af5191c8)" style="fill: none; stroke: #000000; stroke-linecap: round"/>
    <path d="M 202.750206 272.862951 
L 201.269289 277.082772 
L 198.781983 273.366146 
L 202.750206 272.862951 
z
" clip-path="url(#p12af5191c8)" style="stroke: #000000; stroke-linecap: round"/>
   </g>
   <g id="patch_81">
    <path d="M 192.262276 220.507153 
Q 160.295991 213.083007 129.418754 205.911792 
" clip-path="url(#p12af5191c8)" style="fill: none; stroke: #000000; stroke-linecap: round"/>
    <path d="M 132.862596 208.764853 
L 129.418754 205.911792 
L 133.767508 204.868556 
L 132.862596 208.764853 
z
" clip-path="url(#p12af5191c8)" style="stroke: #000000; stroke-linecap: round"/>
   </g>
   <g id="patch_82">
    <path d="M 195.082979 219.249649 
Q 206.36843 198.71612 217.115373 179.162392 
" clip-path="url(#p12af5191c8)" style="fill: none; stroke: #000000; stroke-linecap: round"/>
    <path d="M 213.436026 181.704517 
L 217.115373 179.162392 
L 216.941465 183.631145 
L 213.436026 181.704517 
z
" clip-path="url(#p12af5191c8)" style="stroke: #000000; stroke-linecap: round"/>
   </g>
   <g id="patch_83">
    <path d="M 196.081116 220.752061 
Q 225.464393 217.803667 253.735222 214.966899 
" clip-path="url(#p12af5191c8)" style="fill: none; stroke: #000000; stroke-linecap: round"/>
    <path d="M 249.555526 213.376257 
L 253.735222 214.966899 
L 249.954891 217.356271 
L 249.555526 213.376257 
z
" clip-path="url(#p12af5191c8)" style="stroke: #000000; stroke-linecap: round"/>
   </g>
   <g id="PathCollection_1">
    <defs>
     <path id="m9517b5b9b4" d="M 0 1.936492 
C 0.513564 1.936492 1.006162 1.732451 1.369306 1.369306 
C 1.732451 1.006162 1.936492 0.513564 1.936492 0 
C 1.936492 -0.513564 1.732451 -1.006162 1.369306 -1.369306 
C 1.006162 -1.732451 0.513564 -1.936492 0 -1.936492 
C -0.513564 -1.936492 -1.006162 -1.732451 -1.369306 -1.369306 
C -1.732451 -1.006162 -1.936492 -0.513564 -1.936492 0 
C -1.936492 0.513564 -1.732451 1.006162 -1.369306 1.369306 
C -1.006162 1.732451 -0.513564 1.936492 0 1.936492 
z
" style="stroke: #1f78b4"/>
    </defs>
    <g clip-path="url(#p12af5191c8)">
     <use xlink:href="#m9517b5b9b4" x="259.57705" y="294.058178" style="fill: #1f78b4; stroke: #1f78b4"/>
     <use xlink:href="#m9517b5b9b4" x="81.782277" y="232.397573" style="fill: #1f78b4; stroke: #1f78b4"/>
     <use xlink:href="#m9517b5b9b4" x="324.944442" y="278.812491" style="fill: #1f78b4; stroke: #1f78b4"/>
     <use xlink:href="#m9517b5b9b4" x="297.994541" y="315.609917" style="fill: #1f78b4; stroke: #1f78b4"/>
     <use xlink:href="#m9517b5b9b4" x="150.89325" y="286.838763" style="fill: #1f78b4; stroke: #1f78b4"/>
     <use xlink:href="#m9517b5b9b4" x="201.65315" y="280.10992" style="fill: #1f78b4; stroke: #1f78b4"/>
     <use xlink:href="#m9517b5b9b4" x="107.316034" y="261.106284" style="fill: #1f78b4; stroke: #1f78b4"/>
     <use xlink:href="#m9517b5b9b4" x="126.445673" y="205.221296" style="fill: #1f78b4; stroke: #1f78b4"/>
     <use xlink:href="#m9517b5b9b4" x="77.417746" y="297.946179" style="fill: #1f78b4; stroke: #1f78b4"/>
     <use xlink:href="#m9517b5b9b4" x="115.427542" y="125.330863" style="fill: #1f78b4; stroke: #1f78b4"/>
     <use xlink:href="#m9517b5b9b4" x="90.71539" y="67.67816" style="fill: #1f78b4; stroke: #1f78b4"/>
     <use xlink:href="#m9517b5b9b4" x="149.644552" y="88.495914" style="fill: #1f78b4; stroke: #1f78b4"/>
     <use xlink:href="#m9517b5b9b4" x="255.215431" y="141.961467" style="fill: #1f78b4; stroke: #1f78b4"/>
     <use xlink:href="#m9517b5b9b4" x="362.161393" y="192.480405" style="fill: #1f78b4; stroke: #1f78b4"/>
     <use xlink:href="#m9517b5b9b4" x="39.986777" y="239.674356" style="fill: #1f78b4; stroke: #1f78b4"/>
     <use xlink:href="#m9517b5b9b4" x="420.813223" y="54.913624" style="fill: #1f78b4; stroke: #1f78b4"/>
     <use xlink:href="#m9517b5b9b4" x="387.444364" y="88.839661" style="fill: #1f78b4; stroke: #1f78b4"/>
     <use xlink:href="#m9517b5b9b4" x="403.666677" y="116.342954" style="fill: #1f78b4; stroke: #1f78b4"/>
     <use xlink:href="#m9517b5b9b4" x="370.886227" y="147.14535" style="fill: #1f78b4; stroke: #1f78b4"/>
     <use xlink:href="#m9517b5b9b4" x="395.959118" y="36.679296" style="fill: #1f78b4; stroke: #1f78b4"/>
     <use xlink:href="#m9517b5b9b4" x="326.517674" y="191.722966" style="fill: #1f78b4; stroke: #1f78b4"/>
     <use xlink:href="#m9517b5b9b4" x="297.361102" y="252.405762" style="fill: #1f78b4; stroke: #1f78b4"/>
     <use xlink:href="#m9517b5b9b4" x="353.58892" y="128.709431" style="fill: #1f78b4; stroke: #1f78b4"/>
     <use xlink:href="#m9517b5b9b4" x="218.587821" y="176.483319" style="fill: #1f78b4; stroke: #1f78b4"/>
     <use xlink:href="#m9517b5b9b4" x="255.995878" y="175.51928" style="fill: #1f78b4; stroke: #1f78b4"/>
     <use xlink:href="#m9517b5b9b4" x="119.321109" y="54.975297" style="fill: #1f78b4; stroke: #1f78b4"/>
     <use xlink:href="#m9517b5b9b4" x="63.164713" y="29.990083" style="fill: #1f78b4; stroke: #1f78b4"/>
     <use xlink:href="#m9517b5b9b4" x="203.694171" y="104.278554" style="fill: #1f78b4; stroke: #1f78b4"/>
     <use xlink:href="#m9517b5b9b4" x="321.94331" y="159.562963" style="fill: #1f78b4; stroke: #1f78b4"/>
     <use xlink:href="#m9517b5b9b4" x="365.515681" y="166.093606" style="fill: #1f78b4; stroke: #1f78b4"/>
     <use xlink:href="#m9517b5b9b4" x="321.958306" y="214.19045" style="fill: #1f78b4; stroke: #1f78b4"/>
     <use xlink:href="#m9517b5b9b4" x="256.777782" y="214.661601" style="fill: #1f78b4; stroke: #1f78b4"/>
     <use xlink:href="#m9517b5b9b4" x="194.15078" y="220.945756" style="fill: #1f78b4; stroke: #1f78b4"/>
    </g>
   </g>
   <g id="text_1">
    <g clip-path="url(#p12af5191c8)">
     <!-- 0 -->
     <g transform="translate(256.3958 296.817553) scale(0.1 -0.1)">
      <defs>
       <path id="DejaVuSans-30" d="M 2034 4250 
Q 1547 4250 1301 3770 
Q 1056 3291 1056 2328 
Q 1056 1369 1301 889 
Q 1547 409 2034 409 
Q 2525 409 2770 889 
Q 3016 1369 3016 2328 
Q 3016 3291 2770 3770 
Q 2525 4250 2034 4250 
z
M 2034 4750 
Q 2819 4750 3233 4129 
Q 3647 3509 3647 2328 
Q 3647 1150 3233 529 
Q 2819 -91 2034 -91 
Q 1250 -91 836 529 
Q 422 1150 422 2328 
Q 422 3509 836 4129 
Q 1250 4750 2034 4750 
z
" transform="scale(0.015625)"/>
      </defs>
      <use xlink:href="#DejaVuSans-30"/>
     </g>
    </g>
   </g>
   <g id="text_2">
    <g clip-path="url(#p12af5191c8)">
     <!-- 1 -->
     <g transform="translate(78.601027 235.156948) scale(0.1 -0.1)">
      <defs>
       <path id="DejaVuSans-31" d="M 794 531 
L 1825 531 
L 1825 4091 
L 703 3866 
L 703 4441 
L 1819 4666 
L 2450 4666 
L 2450 531 
L 3481 531 
L 3481 0 
L 794 0 
L 794 531 
z
" transform="scale(0.015625)"/>
      </defs>
      <use xlink:href="#DejaVuSans-31"/>
     </g>
    </g>
   </g>
   <g id="text_3">
    <g clip-path="url(#p12af5191c8)">
     <!-- 2 -->
     <g transform="translate(321.763192 281.571866) scale(0.1 -0.1)">
      <defs>
       <path id="DejaVuSans-32" d="M 1228 531 
L 3431 531 
L 3431 0 
L 469 0 
L 469 531 
Q 828 903 1448 1529 
Q 2069 2156 2228 2338 
Q 2531 2678 2651 2914 
Q 2772 3150 2772 3378 
Q 2772 3750 2511 3984 
Q 2250 4219 1831 4219 
Q 1534 4219 1204 4116 
Q 875 4013 500 3803 
L 500 4441 
Q 881 4594 1212 4672 
Q 1544 4750 1819 4750 
Q 2544 4750 2975 4387 
Q 3406 4025 3406 3419 
Q 3406 3131 3298 2873 
Q 3191 2616 2906 2266 
Q 2828 2175 2409 1742 
Q 1991 1309 1228 531 
z
" transform="scale(0.015625)"/>
      </defs>
      <use xlink:href="#DejaVuSans-32"/>
     </g>
    </g>
   </g>
   <g id="text_4">
    <g clip-path="url(#p12af5191c8)">
     <!-- 3 -->
     <g transform="translate(294.813291 318.369292) scale(0.1 -0.1)">
      <defs>
       <path id="DejaVuSans-33" d="M 2597 2516 
Q 3050 2419 3304 2112 
Q 3559 1806 3559 1356 
Q 3559 666 3084 287 
Q 2609 -91 1734 -91 
Q 1441 -91 1130 -33 
Q 819 25 488 141 
L 488 750 
Q 750 597 1062 519 
Q 1375 441 1716 441 
Q 2309 441 2620 675 
Q 2931 909 2931 1356 
Q 2931 1769 2642 2001 
Q 2353 2234 1838 2234 
L 1294 2234 
L 1294 2753 
L 1863 2753 
Q 2328 2753 2575 2939 
Q 2822 3125 2822 3475 
Q 2822 3834 2567 4026 
Q 2313 4219 1838 4219 
Q 1578 4219 1281 4162 
Q 984 4106 628 3988 
L 628 4550 
Q 988 4650 1302 4700 
Q 1616 4750 1894 4750 
Q 2613 4750 3031 4423 
Q 3450 4097 3450 3541 
Q 3450 3153 3228 2886 
Q 3006 2619 2597 2516 
z
" transform="scale(0.015625)"/>
      </defs>
      <use xlink:href="#DejaVuSans-33"/>
     </g>
    </g>
   </g>
   <g id="text_5">
    <g clip-path="url(#p12af5191c8)">
     <!-- 4 -->
     <g transform="translate(147.712 289.598138) scale(0.1 -0.1)">
      <defs>
       <path id="DejaVuSans-34" d="M 2419 4116 
L 825 1625 
L 2419 1625 
L 2419 4116 
z
M 2253 4666 
L 3047 4666 
L 3047 1625 
L 3713 1625 
L 3713 1100 
L 3047 1100 
L 3047 0 
L 2419 0 
L 2419 1100 
L 313 1100 
L 313 1709 
L 2253 4666 
z
" transform="scale(0.015625)"/>
      </defs>
      <use xlink:href="#DejaVuSans-34"/>
     </g>
    </g>
   </g>
   <g id="text_6">
    <g clip-path="url(#p12af5191c8)">
     <!-- 5 -->
     <g transform="translate(198.4719 282.869295) scale(0.1 -0.1)">
      <defs>
       <path id="DejaVuSans-35" d="M 691 4666 
L 3169 4666 
L 3169 4134 
L 1269 4134 
L 1269 2991 
Q 1406 3038 1543 3061 
Q 1681 3084 1819 3084 
Q 2600 3084 3056 2656 
Q 3513 2228 3513 1497 
Q 3513 744 3044 326 
Q 2575 -91 1722 -91 
Q 1428 -91 1123 -41 
Q 819 9 494 109 
L 494 744 
Q 775 591 1075 516 
Q 1375 441 1709 441 
Q 2250 441 2565 725 
Q 2881 1009 2881 1497 
Q 2881 1984 2565 2268 
Q 2250 2553 1709 2553 
Q 1456 2553 1204 2497 
Q 953 2441 691 2322 
L 691 4666 
z
" transform="scale(0.015625)"/>
      </defs>
      <use xlink:href="#DejaVuSans-35"/>
     </g>
    </g>
   </g>
   <g id="text_7">
    <g clip-path="url(#p12af5191c8)">
     <!-- 6 -->
     <g transform="translate(104.134784 263.865659) scale(0.1 -0.1)">
      <defs>
       <path id="DejaVuSans-36" d="M 2113 2584 
Q 1688 2584 1439 2293 
Q 1191 2003 1191 1497 
Q 1191 994 1439 701 
Q 1688 409 2113 409 
Q 2538 409 2786 701 
Q 3034 994 3034 1497 
Q 3034 2003 2786 2293 
Q 2538 2584 2113 2584 
z
M 3366 4563 
L 3366 3988 
Q 3128 4100 2886 4159 
Q 2644 4219 2406 4219 
Q 1781 4219 1451 3797 
Q 1122 3375 1075 2522 
Q 1259 2794 1537 2939 
Q 1816 3084 2150 3084 
Q 2853 3084 3261 2657 
Q 3669 2231 3669 1497 
Q 3669 778 3244 343 
Q 2819 -91 2113 -91 
Q 1303 -91 875 529 
Q 447 1150 447 2328 
Q 447 3434 972 4092 
Q 1497 4750 2381 4750 
Q 2619 4750 2861 4703 
Q 3103 4656 3366 4563 
z
" transform="scale(0.015625)"/>
      </defs>
      <use xlink:href="#DejaVuSans-36"/>
     </g>
    </g>
   </g>
   <g id="text_8">
    <g clip-path="url(#p12af5191c8)">
     <!-- 7 -->
     <g transform="translate(123.264423 207.980671) scale(0.1 -0.1)">
      <defs>
       <path id="DejaVuSans-37" d="M 525 4666 
L 3525 4666 
L 3525 4397 
L 1831 0 
L 1172 0 
L 2766 4134 
L 525 4134 
L 525 4666 
z
" transform="scale(0.015625)"/>
      </defs>
      <use xlink:href="#DejaVuSans-37"/>
     </g>
    </g>
   </g>
   <g id="text_9">
    <g clip-path="url(#p12af5191c8)">
     <!-- 8 -->
     <g transform="translate(74.236496 300.705554) scale(0.1 -0.1)">
      <defs>
       <path id="DejaVuSans-38" d="M 2034 2216 
Q 1584 2216 1326 1975 
Q 1069 1734 1069 1313 
Q 1069 891 1326 650 
Q 1584 409 2034 409 
Q 2484 409 2743 651 
Q 3003 894 3003 1313 
Q 3003 1734 2745 1975 
Q 2488 2216 2034 2216 
z
M 1403 2484 
Q 997 2584 770 2862 
Q 544 3141 544 3541 
Q 544 4100 942 4425 
Q 1341 4750 2034 4750 
Q 2731 4750 3128 4425 
Q 3525 4100 3525 3541 
Q 3525 3141 3298 2862 
Q 3072 2584 2669 2484 
Q 3125 2378 3379 2068 
Q 3634 1759 3634 1313 
Q 3634 634 3220 271 
Q 2806 -91 2034 -91 
Q 1263 -91 848 271 
Q 434 634 434 1313 
Q 434 1759 690 2068 
Q 947 2378 1403 2484 
z
M 1172 3481 
Q 1172 3119 1398 2916 
Q 1625 2713 2034 2713 
Q 2441 2713 2670 2916 
Q 2900 3119 2900 3481 
Q 2900 3844 2670 4047 
Q 2441 4250 2034 4250 
Q 1625 4250 1398 4047 
Q 1172 3844 1172 3481 
z
" transform="scale(0.015625)"/>
      </defs>
      <use xlink:href="#DejaVuSans-38"/>
     </g>
    </g>
   </g>
   <g id="text_10">
    <g clip-path="url(#p12af5191c8)">
     <!-- 9 -->
     <g transform="translate(112.246292 128.090238) scale(0.1 -0.1)">
      <defs>
       <path id="DejaVuSans-39" d="M 703 97 
L 703 672 
Q 941 559 1184 500 
Q 1428 441 1663 441 
Q 2288 441 2617 861 
Q 2947 1281 2994 2138 
Q 2813 1869 2534 1725 
Q 2256 1581 1919 1581 
Q 1219 1581 811 2004 
Q 403 2428 403 3163 
Q 403 3881 828 4315 
Q 1253 4750 1959 4750 
Q 2769 4750 3195 4129 
Q 3622 3509 3622 2328 
Q 3622 1225 3098 567 
Q 2575 -91 1691 -91 
Q 1453 -91 1209 -44 
Q 966 3 703 97 
z
M 1959 2075 
Q 2384 2075 2632 2365 
Q 2881 2656 2881 3163 
Q 2881 3666 2632 3958 
Q 2384 4250 1959 4250 
Q 1534 4250 1286 3958 
Q 1038 3666 1038 3163 
Q 1038 2656 1286 2365 
Q 1534 2075 1959 2075 
z
" transform="scale(0.015625)"/>
      </defs>
      <use xlink:href="#DejaVuSans-39"/>
     </g>
    </g>
   </g>
   <g id="text_11">
    <g clip-path="url(#p12af5191c8)">
     <!-- 10 -->
     <g transform="translate(84.35289 70.437535) scale(0.1 -0.1)">
      <use xlink:href="#DejaVuSans-31"/>
      <use xlink:href="#DejaVuSans-30" x="63.623047"/>
     </g>
    </g>
   </g>
   <g id="text_12">
    <g clip-path="url(#p12af5191c8)">
     <!-- 11 -->
     <g transform="translate(143.282052 91.255289) scale(0.1 -0.1)">
      <use xlink:href="#DejaVuSans-31"/>
      <use xlink:href="#DejaVuSans-31" x="63.623047"/>
     </g>
    </g>
   </g>
   <g id="text_13">
    <g clip-path="url(#p12af5191c8)">
     <!-- 12 -->
     <g transform="translate(248.852931 144.720842) scale(0.1 -0.1)">
      <use xlink:href="#DejaVuSans-31"/>
      <use xlink:href="#DejaVuSans-32" x="63.623047"/>
     </g>
    </g>
   </g>
   <g id="text_14">
    <g clip-path="url(#p12af5191c8)">
     <!-- 13 -->
     <g transform="translate(355.798893 195.23978) scale(0.1 -0.1)">
      <use xlink:href="#DejaVuSans-31"/>
      <use xlink:href="#DejaVuSans-33" x="63.623047"/>
     </g>
    </g>
   </g>
   <g id="text_15">
    <g clip-path="url(#p12af5191c8)">
     <!-- 14 -->
     <g transform="translate(33.624277 242.433731) scale(0.1 -0.1)">
      <use xlink:href="#DejaVuSans-31"/>
      <use xlink:href="#DejaVuSans-34" x="63.623047"/>
     </g>
    </g>
   </g>
   <g id="text_16">
    <g clip-path="url(#p12af5191c8)">
     <!-- 15 -->
     <g transform="translate(414.450723 57.672999) scale(0.1 -0.1)">
      <use xlink:href="#DejaVuSans-31"/>
      <use xlink:href="#DejaVuSans-35" x="63.623047"/>
     </g>
    </g>
   </g>
   <g id="text_17">
    <g clip-path="url(#p12af5191c8)">
     <!-- 16 -->
     <g transform="translate(381.081864 91.599036) scale(0.1 -0.1)">
      <use xlink:href="#DejaVuSans-31"/>
      <use xlink:href="#DejaVuSans-36" x="63.623047"/>
     </g>
    </g>
   </g>
   <g id="text_18">
    <g clip-path="url(#p12af5191c8)">
     <!-- 17 -->
     <g transform="translate(397.304177 119.102329) scale(0.1 -0.1)">
      <use xlink:href="#DejaVuSans-31"/>
      <use xlink:href="#DejaVuSans-37" x="63.623047"/>
     </g>
    </g>
   </g>
   <g id="text_19">
    <g clip-path="url(#p12af5191c8)">
     <!-- 18 -->
     <g transform="translate(364.523727 149.904725) scale(0.1 -0.1)">
      <use xlink:href="#DejaVuSans-31"/>
      <use xlink:href="#DejaVuSans-38" x="63.623047"/>
     </g>
    </g>
   </g>
   <g id="text_20">
    <g clip-path="url(#p12af5191c8)">
     <!-- 19 -->
     <g transform="translate(389.596618 39.438671) scale(0.1 -0.1)">
      <use xlink:href="#DejaVuSans-31"/>
      <use xlink:href="#DejaVuSans-39" x="63.623047"/>
     </g>
    </g>
   </g>
   <g id="text_21">
    <g clip-path="url(#p12af5191c8)">
     <!-- 20 -->
     <g transform="translate(320.155174 194.482341) scale(0.1 -0.1)">
      <use xlink:href="#DejaVuSans-32"/>
      <use xlink:href="#DejaVuSans-30" x="63.623047"/>
     </g>
    </g>
   </g>
   <g id="text_22">
    <g clip-path="url(#p12af5191c8)">
     <!-- 21 -->
     <g transform="translate(290.998602 255.165137) scale(0.1 -0.1)">
      <use xlink:href="#DejaVuSans-32"/>
      <use xlink:href="#DejaVuSans-31" x="63.623047"/>
     </g>
    </g>
   </g>
   <g id="text_23">
    <g clip-path="url(#p12af5191c8)">
     <!-- 22 -->
     <g transform="translate(347.22642 131.468806) scale(0.1 -0.1)">
      <use xlink:href="#DejaVuSans-32"/>
      <use xlink:href="#DejaVuSans-32" x="63.623047"/>
     </g>
    </g>
   </g>
   <g id="text_24">
    <g clip-path="url(#p12af5191c8)">
     <!-- 23 -->
     <g transform="translate(212.225321 179.242694) scale(0.1 -0.1)">
      <use xlink:href="#DejaVuSans-32"/>
      <use xlink:href="#DejaVuSans-33" x="63.623047"/>
     </g>
    </g>
   </g>
   <g id="text_25">
    <g clip-path="url(#p12af5191c8)">
     <!-- 24 -->
     <g transform="translate(249.633378 178.278655) scale(0.1 -0.1)">
      <use xlink:href="#DejaVuSans-32"/>
      <use xlink:href="#DejaVuSans-34" x="63.623047"/>
     </g>
    </g>
   </g>
   <g id="text_26">
    <g clip-path="url(#p12af5191c8)">
     <!-- 25 -->
     <g transform="translate(112.958609 57.734672) scale(0.1 -0.1)">
      <use xlink:href="#DejaVuSans-32"/>
      <use xlink:href="#DejaVuSans-35" x="63.623047"/>
     </g>
    </g>
   </g>
   <g id="text_27">
    <g clip-path="url(#p12af5191c8)">
     <!-- 26 -->
     <g transform="translate(56.802213 32.749458) scale(0.1 -0.1)">
      <use xlink:href="#DejaVuSans-32"/>
      <use xlink:href="#DejaVuSans-36" x="63.623047"/>
     </g>
    </g>
   </g>
   <g id="text_28">
    <g clip-path="url(#p12af5191c8)">
     <!-- 27 -->
     <g transform="translate(197.331671 107.037929) scale(0.1 -0.1)">
      <use xlink:href="#DejaVuSans-32"/>
      <use xlink:href="#DejaVuSans-37" x="63.623047"/>
     </g>
    </g>
   </g>
   <g id="text_29">
    <g clip-path="url(#p12af5191c8)">
     <!-- 28 -->
     <g transform="translate(315.58081 162.322338) scale(0.1 -0.1)">
      <use xlink:href="#DejaVuSans-32"/>
      <use xlink:href="#DejaVuSans-38" x="63.623047"/>
     </g>
    </g>
   </g>
   <g id="text_30">
    <g clip-path="url(#p12af5191c8)">
     <!-- 29 -->
     <g transform="translate(359.153181 168.852981) scale(0.1 -0.1)">
      <use xlink:href="#DejaVuSans-32"/>
      <use xlink:href="#DejaVuSans-39" x="63.623047"/>
     </g>
    </g>
   </g>
   <g id="text_31">
    <g clip-path="url(#p12af5191c8)">
     <!-- 30 -->
     <g transform="translate(315.595806 216.949825) scale(0.1 -0.1)">
      <use xlink:href="#DejaVuSans-33"/>
      <use xlink:href="#DejaVuSans-30" x="63.623047"/>
     </g>
    </g>
   </g>
   <g id="text_32">
    <g clip-path="url(#p12af5191c8)">
     <!-- 31 -->
     <g transform="translate(250.415282 217.420976) scale(0.1 -0.1)">
      <use xlink:href="#DejaVuSans-33"/>
      <use xlink:href="#DejaVuSans-31" x="63.623047"/>
     </g>
    </g>
   </g>
   <g id="text_33">
    <g clip-path="url(#p12af5191c8)">
     <!-- 32 -->
     <g transform="translate(187.78828 223.705131) scale(0.1 -0.1)">
      <use xlink:href="#DejaVuSans-33"/>
      <use xlink:href="#DejaVuSans-32" x="63.623047"/>
     </g>
    </g>
   </g>
  </g>
 </g>
 <defs>
  <clipPath id="p12af5191c8">
   <rect x="0" y="0" width="460.8" height="345.6"/>
  </clipPath>
 </defs>
</svg>
