<?xml version="1.0" encoding="utf-8" standalone="no"?>
<!DOCTYPE svg PUBLIC "-//W3C//DTD SVG 1.1//EN"
  "http://www.w3.org/Graphics/SVG/1.1/DTD/svg11.dtd">
<svg xmlns:xlink="http://www.w3.org/1999/xlink" width="460.8pt" height="345.6pt" viewBox="0 0 460.8 345.6" xmlns="http://www.w3.org/2000/svg" version="1.1">
 <metadata>
  <rdf:RDF xmlns:dc="http://purl.org/dc/elements/1.1/" xmlns:cc="http://creativecommons.org/ns#" xmlns:rdf="http://www.w3.org/1999/02/22-rdf-syntax-ns#">
   <cc:Work>
    <dc:type rdf:resource="http://purl.org/dc/dcmitype/StillImage"/>
    <dc:date>2023-10-10T10:56:42.449590</dc:date>
    <dc:format>image/svg+xml</dc:format>
    <dc:creator>
     <cc:Agent>
      <dc:title>Matplotlib v3.6.1, https://matplotlib.org/</dc:title>
     </cc:Agent>
    </dc:creator>
   </cc:Work>
  </rdf:RDF>
 </metadata>
 <defs>
  <style type="text/css">*{stroke-linejoin: round; stroke-linecap: butt}</style>
 </defs>
 <g id="figure_1">
  <g id="patch_1">
   <path d="M 0 345.6 
L 460.8 345.6 
L 460.8 0 
L 0 0 
z
" style="fill: #ffffff"/>
  </g>
  <g id="axes_1">
   <g id="patch_2">
    <path d="M 418.878892 204.334672 
Q 382.81563 203.863159 347.870307 203.406263 
" clip-path="url(#p42756b4452)" style="fill: none; stroke: #000000; stroke-linecap: round"/>
    <path d="M 351.843819 205.458386 
L 347.870307 203.406263 
L 351.896112 201.458728 
L 351.843819 205.458386 
z
" clip-path="url(#p42756b4452)" style="stroke: #000000; stroke-linecap: round"/>
   </g>
   <g id="patch_3">
    <path d="M 419.666063 202.799792 
Q 406.060617 184.295998 393.117476 166.692957 
" clip-path="url(#p42756b4452)" style="fill: none; stroke: #000000; stroke-linecap: round"/>
    <path d="M 393.875691 171.100349 
L 393.117476 166.692957 
L 397.098319 168.73082 
L 393.875691 171.100349 
z
" clip-path="url(#p42756b4452)" style="stroke: #000000; stroke-linecap: round"/>
   </g>
   <g id="patch_4">
    <path d="M 405.264149 313.97322 
Q 382.936683 278.825114 361.208707 244.62073 
" clip-path="url(#p42756b4452)" style="fill: none; stroke: #000000; stroke-linecap: round"/>
    <path d="M 361.665325 249.069494 
L 361.208707 244.62073 
L 365.041689 246.924694 
L 361.665325 249.069494 
z
" clip-path="url(#p42756b4452)" style="stroke: #000000; stroke-linecap: round"/>
   </g>
   <g id="patch_5">
    <path d="M 406.124825 313.680866 
Q 404.406512 295.16495 402.791511 277.762285 
" clip-path="url(#p42756b4452)" style="fill: none; stroke: #000000; stroke-linecap: round"/>
    <path d="M 401.169688 281.929981 
L 402.791511 277.762285 
L 405.152574 281.560361 
L 401.169688 281.929981 
z
" clip-path="url(#p42756b4452)" style="stroke: #000000; stroke-linecap: round"/>
   </g>
   <g id="patch_6">
    <path d="M 216.073373 160.234302 
Q 205.243924 137.3066 194.891972 115.389837 
" clip-path="url(#p42756b4452)" style="fill: none; stroke: #000000; stroke-linecap: round"/>
    <path d="M 194.791895 119.860853 
L 194.891972 115.389837 
L 198.408739 118.152508 
L 194.791895 119.860853 
z
" clip-path="url(#p42756b4452)" style="stroke: #000000; stroke-linecap: round"/>
   </g>
   <g id="patch_7">
    <path d="M 216.36065 163.844307 
Q 210.821621 182.939881 205.594059 200.961683 
" clip-path="url(#p42756b4452)" style="fill: none; stroke: #000000; stroke-linecap: round"/>
    <path d="M 208.629224 197.677208 
L 205.594059 200.961683 
L 204.787578 196.562866 
L 208.629224 197.677208 
z
" clip-path="url(#p42756b4452)" style="stroke: #000000; stroke-linecap: round"/>
   </g>
   <g id="patch_8">
    <path d="M 402.688481 276.652069 
Q 404.406794 295.167985 406.021795 312.57065 
" clip-path="url(#p42756b4452)" style="fill: none; stroke: #000000; stroke-linecap: round"/>
    <path d="M 407.643618 308.402954 
L 406.021795 312.57065 
L 403.660732 308.772574 
L 407.643618 308.402954 
z
" clip-path="url(#p42756b4452)" style="stroke: #000000; stroke-linecap: round"/>
   </g>
   <g id="patch_9">
    <path d="M 401.292779 273.218272 
Q 373.662202 239.045842 346.734586 205.742806 
" clip-path="url(#p42756b4452)" style="fill: none; stroke: #000000; stroke-linecap: round"/>
    <path d="M 347.694354 210.11074 
L 346.734586 205.742806 
L 350.804794 207.595752 
L 347.694354 210.11074 
z
" clip-path="url(#p42756b4452)" style="stroke: #000000; stroke-linecap: round"/>
   </g>
   <g id="patch_10">
    <path d="M 392.45477 165.791659 
Q 406.060216 184.295452 419.003358 201.898494 
" clip-path="url(#p42756b4452)" style="fill: none; stroke: #000000; stroke-linecap: round"/>
    <path d="M 418.245142 197.491101 
L 419.003358 201.898494 
L 415.022514 199.860631 
L 418.245142 197.491101 
z
" clip-path="url(#p42756b4452)" style="stroke: #000000; stroke-linecap: round"/>
   </g>
   <g id="patch_11">
    <path d="M 389.428502 163.754385 
Q 351.736515 154.184438 315.128179 144.889629 
" clip-path="url(#p42756b4452)" style="fill: none; stroke: #000000; stroke-linecap: round"/>
    <path d="M 318.512986 147.812485 
L 315.128179 144.889629 
L 319.497348 143.935498 
L 318.512986 147.812485 
z
" clip-path="url(#p42756b4452)" style="stroke: #000000; stroke-linecap: round"/>
   </g>
   <g id="patch_12">
    <path d="M 262.73411 110.365732 
Q 286.650525 126.706045 309.643795 142.415642 
" clip-path="url(#p42756b4452)" style="fill: none; stroke: #000000; stroke-linecap: round"/>
    <path d="M 307.469311 138.50775 
L 309.643795 142.415642 
L 305.212791 141.810494 
L 307.469311 138.50775 
z
" clip-path="url(#p42756b4452)" style="stroke: #000000; stroke-linecap: round"/>
   </g>
   <g id="patch_13">
    <path d="M 259.20278 109.370118 
Q 227.362006 110.950427 196.637893 112.475314 
" clip-path="url(#p42756b4452)" style="fill: none; stroke: #000000; stroke-linecap: round"/>
    <path d="M 200.732116 114.274573 
L 196.637893 112.475314 
L 200.533834 110.27949 
L 200.732116 114.274573 
z
" clip-path="url(#p42756b4452)" style="stroke: #000000; stroke-linecap: round"/>
   </g>
   <g id="patch_14">
    <path d="M 321.437471 222.369839 
Q 316.914238 184.215448 312.522627 147.171315 
" clip-path="url(#p42756b4452)" style="fill: none; stroke: #000000; stroke-linecap: round"/>
    <path d="M 311.007441 151.378952 
L 312.522627 147.171315 
L 314.979625 150.908046 
L 311.007441 151.378952 
z
" clip-path="url(#p42756b4452)" style="stroke: #000000; stroke-linecap: round"/>
   </g>
   <g id="patch_15">
    <path d="M 323.421378 225.11476 
Q 340.619936 233.168026 356.805966 240.747174 
" clip-path="url(#p42756b4452)" style="fill: none; stroke: #000000; stroke-linecap: round"/>
    <path d="M 354.031566 237.239652 
L 356.805966 240.747174 
L 352.335309 240.86218 
L 354.031566 237.239652 
z
" clip-path="url(#p42756b4452)" style="stroke: #000000; stroke-linecap: round"/>
   </g>
   <g id="patch_16">
    <path d="M 355.423189 145.305222 
Q 334.760739 144.747121 315.215916 144.219207 
" clip-path="url(#p42756b4452)" style="fill: none; stroke: #000000; stroke-linecap: round"/>
    <path d="M 319.160457 146.32648 
L 315.215916 144.219207 
L 319.268459 142.327938 
L 319.160457 146.32648 
z
" clip-path="url(#p42756b4452)" style="stroke: #000000; stroke-linecap: round"/>
   </g>
   <g id="patch_17">
    <path d="M 356.947238 147.251661 
Q 351.08491 174.361973 345.458883 200.379507 
" clip-path="url(#p42756b4452)" style="fill: none; stroke: #000000; stroke-linecap: round"/>
    <path d="M 348.259121 196.892579 
L 345.458883 200.379507 
L 344.349484 196.04716 
L 348.259121 196.892579 
z
" clip-path="url(#p42756b4452)" style="stroke: #000000; stroke-linecap: round"/>
   </g>
   <g id="patch_18">
    <path d="M 265.591147 79.269374 
Q 288.312773 110.917159 310.382351 141.656741 
" clip-path="url(#p42756b4452)" style="fill: none; stroke: #000000; stroke-linecap: round"/>
    <path d="M 309.674159 137.241034 
L 310.382351 141.656741 
L 306.424871 139.573871 
L 309.674159 137.241034 
z
" clip-path="url(#p42756b4452)" style="stroke: #000000; stroke-linecap: round"/>
   </g>
   <g id="patch_19">
    <path d="M 262.729746 78.554933 
Q 229.025552 95.163484 196.324239 111.27784 
" clip-path="url(#p42756b4452)" style="fill: none; stroke: #000000; stroke-linecap: round"/>
    <path d="M 200.7963 111.303767 
L 196.324239 111.27784 
L 199.028218 107.715748 
L 200.7963 111.303767 
z
" clip-path="url(#p42756b4452)" style="stroke: #000000; stroke-linecap: round"/>
   </g>
   <g id="patch_20">
    <path d="M 152.562407 284.591912 
Q 124.993636 278.360894 98.515392 272.376354 
" clip-path="url(#p42756b4452)" style="fill: none; stroke: #000000; stroke-linecap: round"/>
    <path d="M 101.976066 275.208974 
L 98.515392 272.376354 
L 102.857892 271.307387 
L 101.976066 275.208974 
z
" clip-path="url(#p42756b4452)" style="stroke: #000000; stroke-linecap: round"/>
   </g>
   <g id="patch_21">
    <path d="M 155.47091 283.372277 
Q 179.596449 244.45745 203.132881 206.492861 
" clip-path="url(#p42756b4452)" style="fill: none; stroke: #000000; stroke-linecap: round"/>
    <path d="M 199.325389 208.838709 
L 203.132881 206.492861 
L 202.725065 210.946364 
L 199.325389 208.838709 
z
" clip-path="url(#p42756b4452)" style="stroke: #000000; stroke-linecap: round"/>
   </g>
   <g id="patch_22">
    <path d="M 130.705556 108.796245 
Q 161.180967 110.652693 190.540413 112.441161 
" clip-path="url(#p42756b4452)" style="fill: none; stroke: #000000; stroke-linecap: round"/>
    <path d="M 186.669421 110.201648 
L 190.540413 112.441161 
L 186.426207 114.194247 
L 186.669421 110.201648 
z
" clip-path="url(#p42756b4452)" style="stroke: #000000; stroke-linecap: round"/>
   </g>
   <g id="patch_23">
    <path d="M 128.264974 110.544273 
Q 118.781956 145.507581 109.591607 179.39184 
" clip-path="url(#p42756b4452)" style="fill: none; stroke: #000000; stroke-linecap: round"/>
    <path d="M 112.568947 176.054859 
L 109.591607 179.39184 
L 108.708426 175.007779 
L 112.568947 176.054859 
z
" clip-path="url(#p42756b4452)" style="stroke: #000000; stroke-linecap: round"/>
   </g>
   <g id="patch_24">
    <path d="M 346.747353 203.391581 
Q 382.810615 203.863094 417.755938 204.31999 
" clip-path="url(#p42756b4452)" style="fill: none; stroke: #000000; stroke-linecap: round"/>
    <path d="M 413.782427 202.267867 
L 417.755938 204.31999 
L 413.730133 206.267525 
L 413.782427 202.267867 
z
" clip-path="url(#p42756b4452)" style="stroke: #000000; stroke-linecap: round"/>
   </g>
   <g id="patch_25">
    <path d="M 346.029704 204.871036 
Q 373.660281 239.043466 400.587898 272.346502 
" clip-path="url(#p42756b4452)" style="fill: none; stroke: #000000; stroke-linecap: round"/>
    <path d="M 399.62813 267.978568 
L 400.587898 272.346502 
L 396.51769 270.493556 
L 399.62813 267.978568 
z
" clip-path="url(#p42756b4452)" style="stroke: #000000; stroke-linecap: round"/>
   </g>
   <g id="patch_26">
    <path d="M 345.222626 201.472081 
Q 351.084954 174.361769 356.710981 148.344234 
" clip-path="url(#p42756b4452)" style="fill: none; stroke: #000000; stroke-linecap: round"/>
    <path d="M 353.910743 151.831162 
L 356.710981 148.344234 
L 357.82038 152.676581 
L 353.910743 151.831162 
z
" clip-path="url(#p42756b4452)" style="stroke: #000000; stroke-linecap: round"/>
   </g>
   <g id="patch_27">
    <path d="M 342.876629 203.37361 
Q 274.777261 203.631025 207.795919 203.884215 
" clip-path="url(#p42756b4452)" style="fill: none; stroke: #000000; stroke-linecap: round"/>
    <path d="M 211.803451 205.869081 
L 207.795919 203.884215 
L 211.788331 201.869109 
L 211.803451 205.869081 
z
" clip-path="url(#p42756b4452)" style="stroke: #000000; stroke-linecap: round"/>
   </g>
   <g id="patch_28">
    <path d="M 346.169786 201.985468 
Q 378.340939 169.243852 409.728501 137.299722 
" clip-path="url(#p42756b4452)" style="fill: none; stroke: #000000; stroke-linecap: round"/>
    <path d="M 405.498452 138.751165 
L 409.728501 137.299722 
L 408.351625 141.554627 
L 405.498452 138.751165 
z
" clip-path="url(#p42756b4452)" style="stroke: #000000; stroke-linecap: round"/>
   </g>
   <g id="patch_29">
    <path d="M 345.503871 205.176835 
Q 352.191111 222.702448 358.479773 239.183487 
" clip-path="url(#p42756b4452)" style="fill: none; stroke: #000000; stroke-linecap: round"/>
    <path d="M 358.922369 234.733306 
L 358.479773 239.183487 
L 355.185186 236.159301 
L 358.922369 234.733306 
z
" clip-path="url(#p42756b4452)" style="stroke: #000000; stroke-linecap: round"/>
   </g>
   <g id="patch_30">
    <path d="M 194.413597 114.377041 
Q 205.243046 137.304742 215.594998 159.221505 
" clip-path="url(#p42756b4452)" style="fill: none; stroke: #000000; stroke-linecap: round"/>
    <path d="M 215.695075 154.750489 
L 215.594998 159.221505 
L 212.078232 156.458834 
L 215.695075 154.750489 
z
" clip-path="url(#p42756b4452)" style="stroke: #000000; stroke-linecap: round"/>
   </g>
   <g id="patch_31">
    <path d="M 195.520516 112.530771 
Q 227.36129 110.950462 258.085403 109.425575 
" clip-path="url(#p42756b4452)" style="fill: none; stroke: #000000; stroke-linecap: round"/>
    <path d="M 253.99118 107.626316 
L 258.085403 109.425575 
L 254.189462 111.621399 
L 253.99118 107.626316 
z
" clip-path="url(#p42756b4452)" style="stroke: #000000; stroke-linecap: round"/>
   </g>
   <g id="patch_32">
    <path d="M 195.321614 111.771908 
Q 229.025808 95.163357 261.72712 79.049001 
" clip-path="url(#p42756b4452)" style="fill: none; stroke: #000000; stroke-linecap: round"/>
    <path d="M 257.255059 79.023074 
L 261.72712 79.049001 
L 259.023142 82.611093 
L 257.255059 79.023074 
z
" clip-path="url(#p42756b4452)" style="stroke: #000000; stroke-linecap: round"/>
   </g>
   <g id="patch_33">
    <path d="M 191.652372 112.508898 
Q 161.176961 110.652449 131.817515 108.863981 
" clip-path="url(#p42756b4452)" style="fill: none; stroke: #000000; stroke-linecap: round"/>
    <path d="M 135.688507 111.103495 
L 131.817515 108.863981 
L 135.931721 107.110896 
L 135.688507 111.103495 
z
" clip-path="url(#p42756b4452)" style="stroke: #000000; stroke-linecap: round"/>
   </g>
   <g id="patch_34">
    <path d="M 193.822133 114.551389 
Q 199.165075 158.262455 204.372365 200.863747 
" clip-path="url(#p42756b4452)" style="fill: none; stroke: #000000; stroke-linecap: round"/>
    <path d="M 205.872269 196.650637 
L 204.372365 200.863747 
L 201.90182 197.135958 
L 205.872269 196.650637 
z
" clip-path="url(#p42756b4452)" style="stroke: #000000; stroke-linecap: round"/>
   </g>
   <g id="patch_35">
    <path d="M 195.457721 113.123892 
Q 252.87539 128.381878 309.212525 143.352726 
" clip-path="url(#p42756b4452)" style="fill: none; stroke: #000000; stroke-linecap: round"/>
    <path d="M 305.860339 140.392515 
L 309.212525 143.352726 
L 304.833045 144.258349 
L 305.860339 140.392515 
z
" clip-path="url(#p42756b4452)" style="stroke: #000000; stroke-linecap: round"/>
   </g>
   <g id="patch_36">
    <path d="M 192.212253 111.258305 
Q 154.822373 74.036775 118.224845 37.604028 
" clip-path="url(#p42756b4452)" style="fill: none; stroke: #000000; stroke-linecap: round"/>
    <path d="M 119.648627 41.843467 
L 118.224845 37.604028 
L 122.470665 39.008666 
L 119.648627 41.843467 
z
" clip-path="url(#p42756b4452)" style="stroke: #000000; stroke-linecap: round"/>
   </g>
   <g id="patch_37">
    <path d="M 191.656555 112.794975 
Q 144.552291 116.900265 98.561839 120.908482 
" clip-path="url(#p42756b4452)" style="fill: none; stroke: #000000; stroke-linecap: round"/>
    <path d="M 102.720382 122.553633 
L 98.561839 120.908482 
L 102.373086 118.568739 
L 102.720382 122.553633 
z
" clip-path="url(#p42756b4452)" style="stroke: #000000; stroke-linecap: round"/>
   </g>
   <g id="patch_38">
    <path d="M 191.87041 113.514292 
Q 162.819777 128.535797 134.762268 143.043777 
" clip-path="url(#p42756b4452)" style="fill: none; stroke: #000000; stroke-linecap: round"/>
    <path d="M 139.233992 142.98309 
L 134.762268 143.043777 
L 137.396753 139.429985 
L 139.233992 142.98309 
z
" clip-path="url(#p42756b4452)" style="stroke: #000000; stroke-linecap: round"/>
   </g>
   <g id="patch_39">
    <path d="M 192.594667 110.966008 
Q 181.581269 92.532102 171.141296 75.057978 
" clip-path="url(#p42756b4452)" style="fill: none; stroke: #000000; stroke-linecap: round"/>
    <path d="M 171.475933 79.517577 
L 171.141296 75.057978 
L 174.909757 77.466027 
L 171.475933 79.517577 
z
" clip-path="url(#p42756b4452)" style="stroke: #000000; stroke-linecap: round"/>
   </g>
   <g id="patch_40">
    <path d="M 205.282419 202.03605 
Q 210.821448 182.940476 216.04901 164.918674 
" clip-path="url(#p42756b4452)" style="fill: none; stroke: #000000; stroke-linecap: round"/>
    <path d="M 213.013846 168.203149 
L 216.04901 164.918674 
L 216.855491 169.317491 
L 213.013846 168.203149 
z
" clip-path="url(#p42756b4452)" style="stroke: #000000; stroke-linecap: round"/>
   </g>
   <g id="patch_41">
    <path d="M 203.722327 205.542078 
Q 179.596787 244.456905 156.060355 282.421493 
" clip-path="url(#p42756b4452)" style="fill: none; stroke: #000000; stroke-linecap: round"/>
    <path d="M 159.867847 280.075645 
L 156.060355 282.421493 
L 156.468172 277.967991 
L 159.867847 280.075645 
z
" clip-path="url(#p42756b4452)" style="stroke: #000000; stroke-linecap: round"/>
   </g>
   <g id="patch_42">
    <path d="M 206.67937 203.888436 
Q 274.778738 203.63102 341.76008 203.37783 
" clip-path="url(#p42756b4452)" style="fill: none; stroke: #000000; stroke-linecap: round"/>
    <path d="M 337.752548 201.392964 
L 341.76008 203.37783 
L 337.767668 205.392936 
L 337.752548 201.392964 
z
" clip-path="url(#p42756b4452)" style="stroke: #000000; stroke-linecap: round"/>
   </g>
   <g id="patch_43">
    <path d="M 204.507721 201.971106 
Q 199.16478 158.260041 193.95749 115.658749 
" clip-path="url(#p42756b4452)" style="fill: none; stroke: #000000; stroke-linecap: round"/>
    <path d="M 192.457586 119.871858 
L 193.95749 115.658749 
L 196.428034 119.386538 
L 192.457586 119.871858 
z
" clip-path="url(#p42756b4452)" style="stroke: #000000; stroke-linecap: round"/>
   </g>
   <g id="patch_44">
    <path d="M 202.854282 203.471496 
Q 156.768703 193.119258 111.773976 183.012058 
" clip-path="url(#p42756b4452)" style="fill: none; stroke: #000000; stroke-linecap: round"/>
    <path d="M 115.238385 185.840109 
L 111.773976 183.012058 
L 116.115062 181.937362 
L 115.238385 185.840109 
z
" clip-path="url(#p42756b4452)" style="stroke: #000000; stroke-linecap: round"/>
   </g>
   <g id="patch_45">
    <path d="M 203.027827 204.788152 
Q 174.265837 219.753082 146.495663 234.201969 
" clip-path="url(#p42756b4452)" style="fill: none; stroke: #000000; stroke-linecap: round"/>
    <path d="M 150.967218 234.129927 
L 146.495663 234.201969 
L 149.120963 230.5815 
L 150.967218 234.129927 
z
" clip-path="url(#p42756b4452)" style="stroke: #000000; stroke-linecap: round"/>
   </g>
   <g id="patch_46">
    <path d="M 203.45893 202.444608 
Q 183.1424 179.484171 163.566759 157.36104 
" clip-path="url(#p42756b4452)" style="fill: none; stroke: #000000; stroke-linecap: round"/>
    <path d="M 164.719629 161.682023 
L 163.566759 157.36104 
L 167.715267 159.031334 
L 164.719629 161.682023 
z
" clip-path="url(#p42756b4452)" style="stroke: #000000; stroke-linecap: round"/>
   </g>
   <g id="patch_47">
    <path d="M 109.297495 180.476213 
Q 118.780512 145.512905 127.970862 111.628646 
" clip-path="url(#p42756b4452)" style="fill: none; stroke: #000000; stroke-linecap: round"/>
    <path d="M 124.993521 114.965627 
L 127.970862 111.628646 
L 128.854042 116.012707 
L 124.993521 114.965627 
z
" clip-path="url(#p42756b4452)" style="stroke: #000000; stroke-linecap: round"/>
   </g>
   <g id="patch_48">
    <path d="M 110.680114 182.766343 
Q 156.765692 193.118581 201.760419 203.225781 
" clip-path="url(#p42756b4452)" style="fill: none; stroke: #000000; stroke-linecap: round"/>
    <path d="M 198.296011 200.39773 
L 201.760419 203.225781 
L 197.419333 204.300478 
L 198.296011 200.39773 
z
" clip-path="url(#p42756b4452)" style="stroke: #000000; stroke-linecap: round"/>
   </g>
   <g id="patch_49">
    <path d="M 109.852971 183.957988 
Q 126.288409 208.976148 142.109979 233.059875 
" clip-path="url(#p42756b4452)" style="fill: none; stroke: #000000; stroke-linecap: round"/>
    <path d="M 141.585307 228.618623 
L 142.109979 233.059875 
L 138.242174 230.814862 
L 141.585307 228.618623 
z
" clip-path="url(#p42756b4452)" style="stroke: #000000; stroke-linecap: round"/>
   </g>
   <g id="patch_50">
    <path d="M 108.507014 184.259214 
Q 102.162856 227.024278 95.982762 268.68341 
" clip-path="url(#p42756b4452)" style="fill: none; stroke: #000000; stroke-linecap: round"/>
    <path d="M 98.548084 265.020198 
L 95.982762 268.68341 
L 94.591385 264.433225 
L 98.548084 265.020198 
z
" clip-path="url(#p42756b4452)" style="stroke: #000000; stroke-linecap: round"/>
   </g>
   <g id="patch_51">
    <path d="M 107.495872 180.906099 
Q 74.389262 144.210693 42.031585 108.345406 
" clip-path="url(#p42756b4452)" style="fill: none; stroke: #000000; stroke-linecap: round"/>
    <path d="M 43.22609 112.655065 
L 42.031585 108.345406 
L 46.196015 109.975597 
L 43.22609 112.655065 
z
" clip-path="url(#p42756b4452)" style="stroke: #000000; stroke-linecap: round"/>
   </g>
   <g id="patch_52">
    <path d="M 106.893904 181.9418 
Q 77.764946 175.797001 49.729946 169.882974 
" clip-path="url(#p42756b4452)" style="fill: none; stroke: #000000; stroke-linecap: round"/>
    <path d="M 53.230991 172.665541 
L 49.729946 169.882974 
L 54.056627 168.751678 
L 53.230991 172.665541 
z
" clip-path="url(#p42756b4452)" style="stroke: #000000; stroke-linecap: round"/>
   </g>
   <g id="patch_53">
    <path d="M 109.803563 180.692943 
Q 120.419369 163.396031 130.450355 147.052002 
" clip-path="url(#p42756b4452)" style="fill: none; stroke: #000000; stroke-linecap: round"/>
    <path d="M 126.653466 149.414974 
L 130.450355 147.052002 
L 130.0626 151.507296 
L 126.653466 149.414974 
z
" clip-path="url(#p42756b4452)" style="stroke: #000000; stroke-linecap: round"/>
   </g>
   <g id="patch_54">
    <path d="M 110.513997 181.451718 
Q 135.167889 168.708616 158.828577 156.478882 
" clip-path="url(#p42756b4452)" style="fill: none; stroke: #000000; stroke-linecap: round"/>
    <path d="M 154.356844 156.538863 
L 158.828577 156.478882 
L 156.193522 160.092258 
L 154.356844 156.538863 
z
" clip-path="url(#p42756b4452)" style="stroke: #000000; stroke-linecap: round"/>
   </g>
   <g id="patch_55">
    <path d="M 381.354196 92.806743 
Q 396.044702 113.177349 410.081242 132.641131 
" clip-path="url(#p42756b4452)" style="fill: none; stroke: #000000; stroke-linecap: round"/>
    <path d="M 409.363716 128.226932 
L 410.081242 132.641131 
L 406.119367 130.566633 
L 409.363716 128.226932 
z
" clip-path="url(#p42756b4452)" style="stroke: #000000; stroke-linecap: round"/>
   </g>
   <g id="patch_56">
    <path d="M 378.68957 92.424248 
Q 346.190606 117.686326 314.574361 142.262249 
" clip-path="url(#p42756b4452)" style="fill: none; stroke: #000000; stroke-linecap: round"/>
    <path d="M 318.959901 141.386444 
L 314.574361 142.262249 
L 316.505041 138.228333 
L 318.959901 141.386444 
z
" clip-path="url(#p42756b4452)" style="stroke: #000000; stroke-linecap: round"/>
   </g>
   <g id="patch_57">
    <path d="M 410.51271 136.501607 
Q 378.341557 169.243223 346.953996 201.187353 
" clip-path="url(#p42756b4452)" style="fill: none; stroke: #000000; stroke-linecap: round"/>
    <path d="M 351.184045 199.73591 
L 346.953996 201.187353 
L 348.330871 196.932448 
L 351.184045 199.73591 
z
" clip-path="url(#p42756b4452)" style="stroke: #000000; stroke-linecap: round"/>
   </g>
   <g id="patch_58">
    <path d="M 410.735558 133.548439 
Q 396.045052 113.177833 382.008512 93.714051 
" clip-path="url(#p42756b4452)" style="fill: none; stroke: #000000; stroke-linecap: round"/>
    <path d="M 382.726039 98.12825 
L 382.008512 93.714051 
L 385.970387 95.788549 
L 382.726039 98.12825 
z
" clip-path="url(#p42756b4452)" style="stroke: #000000; stroke-linecap: round"/>
   </g>
   <g id="patch_59">
    <path d="M 314.041984 144.613846 
Q 351.733971 154.183792 388.342307 163.478601 
" clip-path="url(#p42756b4452)" style="fill: none; stroke: #000000; stroke-linecap: round"/>
    <path d="M 384.957501 160.555746 
L 388.342307 163.478601 
L 383.973139 164.432733 
L 384.957501 160.555746 
z
" clip-path="url(#p42756b4452)" style="stroke: #000000; stroke-linecap: round"/>
   </g>
   <g id="patch_60">
    <path d="M 310.565185 143.045159 
Q 286.64877 126.704846 263.6555 110.995249 
" clip-path="url(#p42756b4452)" style="fill: none; stroke: #000000; stroke-linecap: round"/>
    <path d="M 265.829984 114.903141 
L 263.6555 110.995249 
L 268.086504 111.600397 
L 265.829984 114.903141 
z
" clip-path="url(#p42756b4452)" style="stroke: #000000; stroke-linecap: round"/>
   </g>
   <g id="patch_61">
    <path d="M 312.390812 146.059425 
Q 316.914045 184.213817 321.305655 221.257949 
" clip-path="url(#p42756b4452)" style="fill: none; stroke: #000000; stroke-linecap: round"/>
    <path d="M 322.820842 217.050312 
L 321.305655 221.257949 
L 318.848657 217.521218 
L 322.820842 217.050312 
z
" clip-path="url(#p42756b4452)" style="stroke: #000000; stroke-linecap: round"/>
   </g>
   <g id="patch_62">
    <path d="M 314.096529 144.188972 
Q 334.758979 144.747073 354.303802 145.274987 
" clip-path="url(#p42756b4452)" style="fill: none; stroke: #000000; stroke-linecap: round"/>
    <path d="M 350.359262 143.167714 
L 354.303802 145.274987 
L 350.25126 147.166256 
L 350.359262 143.167714 
z
" clip-path="url(#p42756b4452)" style="stroke: #000000; stroke-linecap: round"/>
   </g>
   <g id="patch_63">
    <path d="M 311.036212 142.567469 
Q 288.314586 110.919684 266.245007 80.180102 
" clip-path="url(#p42756b4452)" style="fill: none; stroke: #000000; stroke-linecap: round"/>
    <path d="M 266.9532 84.595809 
L 266.245007 80.180102 
L 270.202488 82.262972 
L 266.9532 84.595809 
z
" clip-path="url(#p42756b4452)" style="stroke: #000000; stroke-linecap: round"/>
   </g>
   <g id="patch_64">
    <path d="M 310.292033 143.639591 
Q 252.874365 128.381606 196.537229 113.410758 
" clip-path="url(#p42756b4452)" style="fill: none; stroke: #000000; stroke-linecap: round"/>
    <path d="M 199.889415 116.370968 
L 196.537229 113.410758 
L 200.916709 112.505135 
L 199.889415 116.370968 
z
" clip-path="url(#p42756b4452)" style="stroke: #000000; stroke-linecap: round"/>
   </g>
   <g id="patch_65">
    <path d="M 313.693587 142.946892 
Q 346.19255 117.684815 377.808796 93.108891 
" clip-path="url(#p42756b4452)" style="fill: none; stroke: #000000; stroke-linecap: round"/>
    <path d="M 373.423255 93.984697 
L 377.808796 93.108891 
L 375.878116 97.142807 
L 373.423255 93.984697 
z
" clip-path="url(#p42756b4452)" style="stroke: #000000; stroke-linecap: round"/>
   </g>
   <g id="patch_66">
    <path d="M 313.006338 145.878641 
Q 335.867007 193.089993 358.24042 239.295074 
" clip-path="url(#p42756b4452)" style="fill: none; stroke: #000000; stroke-linecap: round"/>
    <path d="M 358.297231 234.823299 
L 358.24042 239.295074 
L 354.697086 236.56656 
L 358.297231 234.823299 
z
" clip-path="url(#p42756b4452)" style="stroke: #000000; stroke-linecap: round"/>
   </g>
   <g id="patch_67">
    <path d="M 360.610036 243.678297 
Q 382.937502 278.826403 404.665479 313.030787 
" clip-path="url(#p42756b4452)" style="fill: none; stroke: #000000; stroke-linecap: round"/>
    <path d="M 404.208861 308.582023 
L 404.665479 313.030787 
L 400.832497 310.726823 
L 404.208861 308.582023 
z
" clip-path="url(#p42756b4452)" style="stroke: #000000; stroke-linecap: round"/>
   </g>
   <g id="patch_68">
    <path d="M 357.814369 241.219361 
Q 340.615812 233.166095 324.429781 225.586947 
" clip-path="url(#p42756b4452)" style="fill: none; stroke: #000000; stroke-linecap: round"/>
    <path d="M 327.204181 229.094468 
L 324.429781 225.586947 
L 328.900438 225.47194 
L 327.204181 229.094468 
z
" clip-path="url(#p42756b4452)" style="stroke: #000000; stroke-linecap: round"/>
   </g>
   <g id="patch_69">
    <path d="M 358.879493 240.231054 
Q 352.192253 222.705441 345.903591 206.224402 
" clip-path="url(#p42756b4452)" style="fill: none; stroke: #000000; stroke-linecap: round"/>
    <path d="M 345.460994 210.674583 
L 345.903591 206.224402 
L 349.198177 209.248588 
L 345.460994 210.674583 
z
" clip-path="url(#p42756b4452)" style="stroke: #000000; stroke-linecap: round"/>
   </g>
   <g id="patch_70">
    <path d="M 358.726879 240.2997 
Q 335.866211 193.088349 313.492798 146.883268 
" clip-path="url(#p42756b4452)" style="fill: none; stroke: #000000; stroke-linecap: round"/>
    <path d="M 313.435987 151.355043 
L 313.492798 146.883268 
L 317.036131 149.611782 
L 313.435987 151.355043 
z
" clip-path="url(#p42756b4452)" style="stroke: #000000; stroke-linecap: round"/>
   </g>
   <g id="patch_71">
    <path d="M 145.501485 234.719242 
Q 174.263475 219.754311 202.033649 205.305424 
" clip-path="url(#p42756b4452)" style="fill: none; stroke: #000000; stroke-linecap: round"/>
    <path d="M 197.562094 205.377466 
L 202.033649 205.305424 
L 199.408349 208.925894 
L 197.562094 205.377466 
z
" clip-path="url(#p42756b4452)" style="stroke: #000000; stroke-linecap: round"/>
   </g>
   <g id="patch_72">
    <path d="M 142.724783 233.995734 
Q 126.289345 208.977574 110.467775 184.893847 
" clip-path="url(#p42756b4452)" style="fill: none; stroke: #000000; stroke-linecap: round"/>
    <path d="M 110.992447 189.335099 
L 110.467775 184.893847 
L 114.33558 187.138861 
L 110.992447 189.335099 
z
" clip-path="url(#p42756b4452)" style="stroke: #000000; stroke-linecap: round"/>
   </g>
   <g id="patch_73">
    <path d="M 97.422706 272.129388 
Q 124.991477 278.360406 151.469721 284.344946 
" clip-path="url(#p42756b4452)" style="fill: none; stroke: #000000; stroke-linecap: round"/>
    <path d="M 148.009047 281.512326 
L 151.469721 284.344946 
L 147.127221 285.413914 
L 148.009047 281.512326 
z
" clip-path="url(#p42756b4452)" style="stroke: #000000; stroke-linecap: round"/>
   </g>
   <g id="patch_74">
    <path d="M 95.819257 269.785571 
Q 102.163415 227.020508 108.34351 185.361375 
" clip-path="url(#p42756b4452)" style="fill: none; stroke: #000000; stroke-linecap: round"/>
    <path d="M 105.778188 189.024587 
L 108.34351 185.361375 
L 109.734886 189.61156 
L 105.778188 189.024587 
z
" clip-path="url(#p42756b4452)" style="stroke: #000000; stroke-linecap: round"/>
   </g>
   <g id="patch_75">
    <path d="M 41.282323 107.514923 
Q 74.388934 144.210329 106.74661 180.075616 
" clip-path="url(#p42756b4452)" style="fill: none; stroke: #000000; stroke-linecap: round"/>
    <path d="M 105.552105 175.765957 
L 106.74661 180.075616 
L 102.58218 178.445425 
L 105.552105 175.765957 
z
" clip-path="url(#p42756b4452)" style="stroke: #000000; stroke-linecap: round"/>
   </g>
   <g id="patch_76">
    <path d="M 40.088924 104.14235 
Q 41.993572 68.032495 43.83933 33.039122 
" clip-path="url(#p42756b4452)" style="fill: none; stroke: #000000; stroke-linecap: round"/>
    <path d="M 41.631415 36.928224 
L 43.83933 33.039122 
L 45.625863 37.138915 
L 41.631415 36.928224 
z
" clip-path="url(#p42756b4452)" style="stroke: #000000; stroke-linecap: round"/>
   </g>
   <g id="patch_77">
    <path d="M 43.898007 31.92667 
Q 41.993359 68.036525 40.147601 103.029899 
" clip-path="url(#p42756b4452)" style="fill: none; stroke: #000000; stroke-linecap: round"/>
    <path d="M 42.355516 99.140797 
L 40.147601 103.029899 
L 38.361068 98.930106 
L 42.355516 99.140797 
z
" clip-path="url(#p42756b4452)" style="stroke: #000000; stroke-linecap: round"/>
   </g>
   <g id="patch_78">
    <path d="M 45.93093 30.136323 
Q 80.029763 32.719024 113.013756 35.217286 
" clip-path="url(#p42756b4452)" style="fill: none; stroke: #000000; stroke-linecap: round"/>
    <path d="M 109.176231 32.920897 
L 113.013756 35.217286 
L 108.87413 36.909472 
L 109.176231 32.920897 
z
" clip-path="url(#p42756b4452)" style="stroke: #000000; stroke-linecap: round"/>
   </g>
   <g id="patch_79">
    <path d="M 117.433626 36.816373 
Q 154.823506 74.037903 191.421035 110.47065 
" clip-path="url(#p42756b4452)" style="fill: none; stroke: #000000; stroke-linecap: round"/>
    <path d="M 189.997252 106.231211 
L 191.421035 110.47065 
L 187.175214 109.066013 
L 189.997252 106.231211 
z
" clip-path="url(#p42756b4452)" style="stroke: #000000; stroke-linecap: round"/>
   </g>
   <g id="patch_80">
    <path d="M 114.128226 35.301697 
Q 80.029393 32.718996 47.0454 30.220735 
" clip-path="url(#p42756b4452)" style="fill: none; stroke: #000000; stroke-linecap: round"/>
    <path d="M 50.882925 32.517124 
L 47.0454 30.220735 
L 51.185027 28.528548 
L 50.882925 32.517124 
z
" clip-path="url(#p42756b4452)" style="stroke: #000000; stroke-linecap: round"/>
   </g>
   <g id="patch_81">
    <path d="M 97.450818 121.005312 
Q 144.555081 116.900022 190.545533 112.891804 
" clip-path="url(#p42756b4452)" style="fill: none; stroke: #000000; stroke-linecap: round"/>
    <path d="M 186.38699 111.246653 
L 190.545533 112.891804 
L 186.734287 115.231548 
L 186.38699 111.246653 
z
" clip-path="url(#p42756b4452)" style="stroke: #000000; stroke-linecap: round"/>
   </g>
   <g id="patch_82">
    <path d="M 94.14193 122.532201 
Q 71.129897 145.211892 48.914163 167.106785 
" clip-path="url(#p42756b4452)" style="fill: none; stroke: #000000; stroke-linecap: round"/>
    <path d="M 53.166977 165.723467 
L 48.914163 167.106785 
L 50.359197 162.874542 
L 53.166977 165.723467 
z
" clip-path="url(#p42756b4452)" style="stroke: #000000; stroke-linecap: round"/>
   </g>
   <g id="patch_83">
    <path d="M 48.635265 169.65205 
Q 77.764223 175.796849 105.799223 181.710876 
" clip-path="url(#p42756b4452)" style="fill: none; stroke: #000000; stroke-linecap: round"/>
    <path d="M 102.298177 178.928309 
L 105.799223 181.710876 
L 101.472542 182.842172 
L 102.298177 178.928309 
z
" clip-path="url(#p42756b4452)" style="stroke: #000000; stroke-linecap: round"/>
   </g>
   <g id="patch_84">
    <path d="M 48.116315 167.89311 
Q 71.128348 145.213419 93.344082 123.318527 
" clip-path="url(#p42756b4452)" style="fill: none; stroke: #000000; stroke-linecap: round"/>
    <path d="M 89.091267 124.701844 
L 93.344082 123.318527 
L 91.899047 127.550769 
L 89.091267 124.701844 
z
" clip-path="url(#p42756b4452)" style="stroke: #000000; stroke-linecap: round"/>
   </g>
   <g id="patch_85">
    <path d="M 133.765906 143.558976 
Q 162.816538 128.537472 190.874048 114.029491 
" clip-path="url(#p42756b4452)" style="fill: none; stroke: #000000; stroke-linecap: round"/>
    <path d="M 186.402324 114.090178 
L 190.874048 114.029491 
L 188.239563 117.643283 
L 186.402324 114.090178 
z
" clip-path="url(#p42756b4452)" style="stroke: #000000; stroke-linecap: round"/>
   </g>
   <g id="patch_86">
    <path d="M 131.037294 146.095669 
Q 120.421487 163.39258 110.390502 179.73661 
" clip-path="url(#p42756b4452)" style="fill: none; stroke: #000000; stroke-linecap: round"/>
    <path d="M 114.187391 177.373638 
L 110.390502 179.73661 
L 110.778257 175.281316 
L 114.187391 177.373638 
z
" clip-path="url(#p42756b4452)" style="stroke: #000000; stroke-linecap: round"/>
   </g>
   <g id="patch_87">
    <path d="M 170.566718 74.096267 
Q 181.580116 92.530173 192.020089 110.004296 
" clip-path="url(#p42756b4452)" style="fill: none; stroke: #000000; stroke-linecap: round"/>
    <path d="M 191.685452 105.544698 
L 192.020089 110.004296 
L 188.251628 107.596247 
L 191.685452 105.544698 
z
" clip-path="url(#p42756b4452)" style="stroke: #000000; stroke-linecap: round"/>
   </g>
   <g id="patch_88">
    <path d="M 169.387032 74.364836 
Q 165.559187 113.756974 161.839475 152.036319 
" clip-path="url(#p42756b4452)" style="fill: none; stroke: #000000; stroke-linecap: round"/>
    <path d="M 164.216968 148.248506 
L 161.839475 152.036319 
L 160.23572 147.861637 
L 164.216968 148.248506 
z
" clip-path="url(#p42756b4452)" style="stroke: #000000; stroke-linecap: round"/>
   </g>
   <g id="patch_89">
    <path d="M 162.828221 156.526391 
Q 183.144751 179.486829 202.720391 201.609959 
" clip-path="url(#p42756b4452)" style="fill: none; stroke: #000000; stroke-linecap: round"/>
    <path d="M 201.567522 197.288977 
L 202.720391 201.609959 
L 198.571883 199.939666 
L 201.567522 197.288977 
z
" clip-path="url(#p42756b4452)" style="stroke: #000000; stroke-linecap: round"/>
   </g>
   <g id="patch_90">
    <path d="M 159.821596 155.965611 
Q 135.167704 168.708712 111.507016 180.938447 
" clip-path="url(#p42756b4452)" style="fill: none; stroke: #000000; stroke-linecap: round"/>
    <path d="M 115.978749 180.878466 
L 111.507016 180.938447 
L 114.142071 177.325071 
L 115.978749 180.878466 
z
" clip-path="url(#p42756b4452)" style="stroke: #000000; stroke-linecap: round"/>
   </g>
   <g id="patch_91">
    <path d="M 161.73165 153.145942 
Q 165.559495 113.753805 169.279207 75.47446 
" clip-path="url(#p42756b4452)" style="fill: none; stroke: #000000; stroke-linecap: round"/>
    <path d="M 166.901714 79.262273 
L 169.279207 75.47446 
L 170.882961 79.649142 
L 166.901714 79.262273 
z
" clip-path="url(#p42756b4452)" style="stroke: #000000; stroke-linecap: round"/>
   </g>
   <g id="PathCollection_1">
    <defs>
     <path id="maf113e73da" d="M 0 1.936492 
C 0.513564 1.936492 1.006162 1.732451 1.369306 1.369306 
C 1.732451 1.006162 1.936492 0.513564 1.936492 0 
C 1.936492 -0.513564 1.732451 -1.006162 1.369306 -1.369306 
C 1.006162 -1.732451 0.513564 -1.936492 0 -1.936492 
C -0.513564 -1.936492 -1.006162 -1.732451 -1.369306 -1.369306 
C -1.732451 -1.006162 -1.936492 -0.513564 -1.936492 0 
C -1.936492 0.513564 -1.732451 1.006162 -1.369306 1.369306 
C -1.006162 1.732451 -0.513564 1.936492 0 1.936492 
z
" style="stroke: #1f78b4"/>
    </defs>
    <g clip-path="url(#p42756b4452)">
     <use xlink:href="#maf113e73da" x="420.813223" y="204.359963" style="fill: #1f78b4; stroke: #1f78b4"/>
     <use xlink:href="#maf113e73da" x="406.303844" y="315.609917" style="fill: #1f78b4; stroke: #1f78b4"/>
     <use xlink:href="#maf113e73da" x="216.900093" y="161.984602" style="fill: #1f78b4; stroke: #1f78b4"/>
     <use xlink:href="#maf113e73da" x="402.509461" y="274.723018" style="fill: #1f78b4; stroke: #1f78b4"/>
     <use xlink:href="#maf113e73da" x="391.30761" y="164.231488" style="fill: #1f78b4; stroke: #1f78b4"/>
     <use xlink:href="#maf113e73da" x="261.136418" y="109.274148" style="fill: #1f78b4; stroke: #1f78b4"/>
     <use xlink:href="#maf113e73da" x="321.665406" y="224.292521" style="fill: #1f78b4; stroke: #1f78b4"/>
     <use xlink:href="#maf113e73da" x="357.356842" y="145.357451" style="fill: #1f78b4; stroke: #1f78b4"/>
     <use xlink:href="#maf113e73da" x="264.464482" y="77.7001" style="fill: #1f78b4; stroke: #1f78b4"/>
     <use xlink:href="#maf113e73da" x="154.45026" y="285.018599" style="fill: #1f78b4; stroke: #1f78b4"/>
     <use xlink:href="#maf113e73da" x="128.77105" y="108.678402" style="fill: #1f78b4; stroke: #1f78b4"/>
     <use xlink:href="#maf113e73da" x="344.813022" y="203.36629" style="fill: #1f78b4; stroke: #1f78b4"/>
     <use xlink:href="#maf113e73da" x="193.586878" y="112.626741" style="fill: #1f78b4; stroke: #1f78b4"/>
     <use xlink:href="#maf113e73da" x="204.742977" y="203.895755" style="fill: #1f78b4; stroke: #1f78b4"/>
     <use xlink:href="#maf113e73da" x="108.791419" y="182.342084" style="fill: #1f78b4; stroke: #1f78b4"/>
     <use xlink:href="#maf113e73da" x="380.22028" y="91.234397" style="fill: #1f78b4; stroke: #1f78b4"/>
     <use xlink:href="#maf113e73da" x="411.869474" y="135.120785" style="fill: #1f78b4; stroke: #1f78b4"/>
     <use xlink:href="#maf113e73da" x="312.162877" y="144.136743" style="fill: #1f78b4; stroke: #1f78b4"/>
     <use xlink:href="#maf113e73da" x="359.570341" y="242.041599" style="fill: #1f78b4; stroke: #1f78b4"/>
     <use xlink:href="#maf113e73da" x="143.786335" y="235.611638" style="fill: #1f78b4; stroke: #1f78b4"/>
     <use xlink:href="#maf113e73da" x="95.534853" y="271.702701" style="fill: #1f78b4; stroke: #1f78b4"/>
     <use xlink:href="#maf113e73da" x="39.986777" y="106.078938" style="fill: #1f78b4; stroke: #1f78b4"/>
     <use xlink:href="#maf113e73da" x="44.000154" y="29.990083" style="fill: #1f78b4; stroke: #1f78b4"/>
     <use xlink:href="#maf113e73da" x="116.059002" y="35.447938" style="fill: #1f78b4; stroke: #1f78b4"/>
     <use xlink:href="#maf113e73da" x="95.520495" y="121.173546" style="fill: #1f78b4; stroke: #1f78b4"/>
     <use xlink:href="#maf113e73da" x="46.73775" y="169.251766" style="fill: #1f78b4; stroke: #1f78b4"/>
     <use xlink:href="#maf113e73da" x="132.049438" y="144.446528" style="fill: #1f78b4; stroke: #1f78b4"/>
     <use xlink:href="#maf113e73da" x="169.574508" y="72.435534" style="fill: #1f78b4; stroke: #1f78b4"/>
     <use xlink:href="#maf113e73da" x="161.544174" y="155.075245" style="fill: #1f78b4; stroke: #1f78b4"/>
    </g>
   </g>
   <g id="text_1">
    <g clip-path="url(#p42756b4452)">
     <!-- 0 -->
     <g transform="translate(417.631973 207.119338) scale(0.1 -0.1)">
      <defs>
       <path id="DejaVuSans-30" d="M 2034 4250 
Q 1547 4250 1301 3770 
Q 1056 3291 1056 2328 
Q 1056 1369 1301 889 
Q 1547 409 2034 409 
Q 2525 409 2770 889 
Q 3016 1369 3016 2328 
Q 3016 3291 2770 3770 
Q 2525 4250 2034 4250 
z
M 2034 4750 
Q 2819 4750 3233 4129 
Q 3647 3509 3647 2328 
Q 3647 1150 3233 529 
Q 2819 -91 2034 -91 
Q 1250 -91 836 529 
Q 422 1150 422 2328 
Q 422 3509 836 4129 
Q 1250 4750 2034 4750 
z
" transform="scale(0.015625)"/>
      </defs>
      <use xlink:href="#DejaVuSans-30"/>
     </g>
    </g>
   </g>
   <g id="text_2">
    <g clip-path="url(#p42756b4452)">
     <!-- 1 -->
     <g transform="translate(403.122594 318.369292) scale(0.1 -0.1)">
      <defs>
       <path id="DejaVuSans-31" d="M 794 531 
L 1825 531 
L 1825 4091 
L 703 3866 
L 703 4441 
L 1819 4666 
L 2450 4666 
L 2450 531 
L 3481 531 
L 3481 0 
L 794 0 
L 794 531 
z
" transform="scale(0.015625)"/>
      </defs>
      <use xlink:href="#DejaVuSans-31"/>
     </g>
    </g>
   </g>
   <g id="text_3">
    <g clip-path="url(#p42756b4452)">
     <!-- 2 -->
     <g transform="translate(213.718843 164.743977) scale(0.1 -0.1)">
      <defs>
       <path id="DejaVuSans-32" d="M 1228 531 
L 3431 531 
L 3431 0 
L 469 0 
L 469 531 
Q 828 903 1448 1529 
Q 2069 2156 2228 2338 
Q 2531 2678 2651 2914 
Q 2772 3150 2772 3378 
Q 2772 3750 2511 3984 
Q 2250 4219 1831 4219 
Q 1534 4219 1204 4116 
Q 875 4013 500 3803 
L 500 4441 
Q 881 4594 1212 4672 
Q 1544 4750 1819 4750 
Q 2544 4750 2975 4387 
Q 3406 4025 3406 3419 
Q 3406 3131 3298 2873 
Q 3191 2616 2906 2266 
Q 2828 2175 2409 1742 
Q 1991 1309 1228 531 
z
" transform="scale(0.015625)"/>
      </defs>
      <use xlink:href="#DejaVuSans-32"/>
     </g>
    </g>
   </g>
   <g id="text_4">
    <g clip-path="url(#p42756b4452)">
     <!-- 3 -->
     <g transform="translate(399.328211 277.482393) scale(0.1 -0.1)">
      <defs>
       <path id="DejaVuSans-33" d="M 2597 2516 
Q 3050 2419 3304 2112 
Q 3559 1806 3559 1356 
Q 3559 666 3084 287 
Q 2609 -91 1734 -91 
Q 1441 -91 1130 -33 
Q 819 25 488 141 
L 488 750 
Q 750 597 1062 519 
Q 1375 441 1716 441 
Q 2309 441 2620 675 
Q 2931 909 2931 1356 
Q 2931 1769 2642 2001 
Q 2353 2234 1838 2234 
L 1294 2234 
L 1294 2753 
L 1863 2753 
Q 2328 2753 2575 2939 
Q 2822 3125 2822 3475 
Q 2822 3834 2567 4026 
Q 2313 4219 1838 4219 
Q 1578 4219 1281 4162 
Q 984 4106 628 3988 
L 628 4550 
Q 988 4650 1302 4700 
Q 1616 4750 1894 4750 
Q 2613 4750 3031 4423 
Q 3450 4097 3450 3541 
Q 3450 3153 3228 2886 
Q 3006 2619 2597 2516 
z
" transform="scale(0.015625)"/>
      </defs>
      <use xlink:href="#DejaVuSans-33"/>
     </g>
    </g>
   </g>
   <g id="text_5">
    <g clip-path="url(#p42756b4452)">
     <!-- 4 -->
     <g transform="translate(388.12636 166.990863) scale(0.1 -0.1)">
      <defs>
       <path id="DejaVuSans-34" d="M 2419 4116 
L 825 1625 
L 2419 1625 
L 2419 4116 
z
M 2253 4666 
L 3047 4666 
L 3047 1625 
L 3713 1625 
L 3713 1100 
L 3047 1100 
L 3047 0 
L 2419 0 
L 2419 1100 
L 313 1100 
L 313 1709 
L 2253 4666 
z
" transform="scale(0.015625)"/>
      </defs>
      <use xlink:href="#DejaVuSans-34"/>
     </g>
    </g>
   </g>
   <g id="text_6">
    <g clip-path="url(#p42756b4452)">
     <!-- 5 -->
     <g transform="translate(257.955168 112.033523) scale(0.1 -0.1)">
      <defs>
       <path id="DejaVuSans-35" d="M 691 4666 
L 3169 4666 
L 3169 4134 
L 1269 4134 
L 1269 2991 
Q 1406 3038 1543 3061 
Q 1681 3084 1819 3084 
Q 2600 3084 3056 2656 
Q 3513 2228 3513 1497 
Q 3513 744 3044 326 
Q 2575 -91 1722 -91 
Q 1428 -91 1123 -41 
Q 819 9 494 109 
L 494 744 
Q 775 591 1075 516 
Q 1375 441 1709 441 
Q 2250 441 2565 725 
Q 2881 1009 2881 1497 
Q 2881 1984 2565 2268 
Q 2250 2553 1709 2553 
Q 1456 2553 1204 2497 
Q 953 2441 691 2322 
L 691 4666 
z
" transform="scale(0.015625)"/>
      </defs>
      <use xlink:href="#DejaVuSans-35"/>
     </g>
    </g>
   </g>
   <g id="text_7">
    <g clip-path="url(#p42756b4452)">
     <!-- 6 -->
     <g transform="translate(318.484156 227.051896) scale(0.1 -0.1)">
      <defs>
       <path id="DejaVuSans-36" d="M 2113 2584 
Q 1688 2584 1439 2293 
Q 1191 2003 1191 1497 
Q 1191 994 1439 701 
Q 1688 409 2113 409 
Q 2538 409 2786 701 
Q 3034 994 3034 1497 
Q 3034 2003 2786 2293 
Q 2538 2584 2113 2584 
z
M 3366 4563 
L 3366 3988 
Q 3128 4100 2886 4159 
Q 2644 4219 2406 4219 
Q 1781 4219 1451 3797 
Q 1122 3375 1075 2522 
Q 1259 2794 1537 2939 
Q 1816 3084 2150 3084 
Q 2853 3084 3261 2657 
Q 3669 2231 3669 1497 
Q 3669 778 3244 343 
Q 2819 -91 2113 -91 
Q 1303 -91 875 529 
Q 447 1150 447 2328 
Q 447 3434 972 4092 
Q 1497 4750 2381 4750 
Q 2619 4750 2861 4703 
Q 3103 4656 3366 4563 
z
" transform="scale(0.015625)"/>
      </defs>
      <use xlink:href="#DejaVuSans-36"/>
     </g>
    </g>
   </g>
   <g id="text_8">
    <g clip-path="url(#p42756b4452)">
     <!-- 7 -->
     <g transform="translate(354.175592 148.116826) scale(0.1 -0.1)">
      <defs>
       <path id="DejaVuSans-37" d="M 525 4666 
L 3525 4666 
L 3525 4397 
L 1831 0 
L 1172 0 
L 2766 4134 
L 525 4134 
L 525 4666 
z
" transform="scale(0.015625)"/>
      </defs>
      <use xlink:href="#DejaVuSans-37"/>
     </g>
    </g>
   </g>
   <g id="text_9">
    <g clip-path="url(#p42756b4452)">
     <!-- 8 -->
     <g transform="translate(261.283232 80.459475) scale(0.1 -0.1)">
      <defs>
       <path id="DejaVuSans-38" d="M 2034 2216 
Q 1584 2216 1326 1975 
Q 1069 1734 1069 1313 
Q 1069 891 1326 650 
Q 1584 409 2034 409 
Q 2484 409 2743 651 
Q 3003 894 3003 1313 
Q 3003 1734 2745 1975 
Q 2488 2216 2034 2216 
z
M 1403 2484 
Q 997 2584 770 2862 
Q 544 3141 544 3541 
Q 544 4100 942 4425 
Q 1341 4750 2034 4750 
Q 2731 4750 3128 4425 
Q 3525 4100 3525 3541 
Q 3525 3141 3298 2862 
Q 3072 2584 2669 2484 
Q 3125 2378 3379 2068 
Q 3634 1759 3634 1313 
Q 3634 634 3220 271 
Q 2806 -91 2034 -91 
Q 1263 -91 848 271 
Q 434 634 434 1313 
Q 434 1759 690 2068 
Q 947 2378 1403 2484 
z
M 1172 3481 
Q 1172 3119 1398 2916 
Q 1625 2713 2034 2713 
Q 2441 2713 2670 2916 
Q 2900 3119 2900 3481 
Q 2900 3844 2670 4047 
Q 2441 4250 2034 4250 
Q 1625 4250 1398 4047 
Q 1172 3844 1172 3481 
z
" transform="scale(0.015625)"/>
      </defs>
      <use xlink:href="#DejaVuSans-38"/>
     </g>
    </g>
   </g>
   <g id="text_10">
    <g clip-path="url(#p42756b4452)">
     <!-- 9 -->
     <g transform="translate(151.26901 287.777974) scale(0.1 -0.1)">
      <defs>
       <path id="DejaVuSans-39" d="M 703 97 
L 703 672 
Q 941 559 1184 500 
Q 1428 441 1663 441 
Q 2288 441 2617 861 
Q 2947 1281 2994 2138 
Q 2813 1869 2534 1725 
Q 2256 1581 1919 1581 
Q 1219 1581 811 2004 
Q 403 2428 403 3163 
Q 403 3881 828 4315 
Q 1253 4750 1959 4750 
Q 2769 4750 3195 4129 
Q 3622 3509 3622 2328 
Q 3622 1225 3098 567 
Q 2575 -91 1691 -91 
Q 1453 -91 1209 -44 
Q 966 3 703 97 
z
M 1959 2075 
Q 2384 2075 2632 2365 
Q 2881 2656 2881 3163 
Q 2881 3666 2632 3958 
Q 2384 4250 1959 4250 
Q 1534 4250 1286 3958 
Q 1038 3666 1038 3163 
Q 1038 2656 1286 2365 
Q 1534 2075 1959 2075 
z
" transform="scale(0.015625)"/>
      </defs>
      <use xlink:href="#DejaVuSans-39"/>
     </g>
    </g>
   </g>
   <g id="text_11">
    <g clip-path="url(#p42756b4452)">
     <!-- 10 -->
     <g transform="translate(122.40855 111.437777) scale(0.1 -0.1)">
      <use xlink:href="#DejaVuSans-31"/>
      <use xlink:href="#DejaVuSans-30" x="63.623047"/>
     </g>
    </g>
   </g>
   <g id="text_12">
    <g clip-path="url(#p42756b4452)">
     <!-- 11 -->
     <g transform="translate(338.450522 206.125665) scale(0.1 -0.1)">
      <use xlink:href="#DejaVuSans-31"/>
      <use xlink:href="#DejaVuSans-31" x="63.623047"/>
     </g>
    </g>
   </g>
   <g id="text_13">
    <g clip-path="url(#p42756b4452)">
     <!-- 12 -->
     <g transform="translate(187.224378 115.386116) scale(0.1 -0.1)">
      <use xlink:href="#DejaVuSans-31"/>
      <use xlink:href="#DejaVuSans-32" x="63.623047"/>
     </g>
    </g>
   </g>
   <g id="text_14">
    <g clip-path="url(#p42756b4452)">
     <!-- 13 -->
     <g transform="translate(198.380477 206.65513) scale(0.1 -0.1)">
      <use xlink:href="#DejaVuSans-31"/>
      <use xlink:href="#DejaVuSans-33" x="63.623047"/>
     </g>
    </g>
   </g>
   <g id="text_15">
    <g clip-path="url(#p42756b4452)">
     <!-- 14 -->
     <g transform="translate(102.428919 185.101459) scale(0.1 -0.1)">
      <use xlink:href="#DejaVuSans-31"/>
      <use xlink:href="#DejaVuSans-34" x="63.623047"/>
     </g>
    </g>
   </g>
   <g id="text_16">
    <g clip-path="url(#p42756b4452)">
     <!-- 15 -->
     <g transform="translate(373.85778 93.993772) scale(0.1 -0.1)">
      <use xlink:href="#DejaVuSans-31"/>
      <use xlink:href="#DejaVuSans-35" x="63.623047"/>
     </g>
    </g>
   </g>
   <g id="text_17">
    <g clip-path="url(#p42756b4452)">
     <!-- 16 -->
     <g transform="translate(405.506974 137.88016) scale(0.1 -0.1)">
      <use xlink:href="#DejaVuSans-31"/>
      <use xlink:href="#DejaVuSans-36" x="63.623047"/>
     </g>
    </g>
   </g>
   <g id="text_18">
    <g clip-path="url(#p42756b4452)">
     <!-- 17 -->
     <g transform="translate(305.800377 146.896118) scale(0.1 -0.1)">
      <use xlink:href="#DejaVuSans-31"/>
      <use xlink:href="#DejaVuSans-37" x="63.623047"/>
     </g>
    </g>
   </g>
   <g id="text_19">
    <g clip-path="url(#p42756b4452)">
     <!-- 18 -->
     <g transform="translate(353.207841 244.800974) scale(0.1 -0.1)">
      <use xlink:href="#DejaVuSans-31"/>
      <use xlink:href="#DejaVuSans-38" x="63.623047"/>
     </g>
    </g>
   </g>
   <g id="text_20">
    <g clip-path="url(#p42756b4452)">
     <!-- 19 -->
     <g transform="translate(137.423835 238.371013) scale(0.1 -0.1)">
      <use xlink:href="#DejaVuSans-31"/>
      <use xlink:href="#DejaVuSans-39" x="63.623047"/>
     </g>
    </g>
   </g>
   <g id="text_21">
    <g clip-path="url(#p42756b4452)">
     <!-- 20 -->
     <g transform="translate(89.172353 274.462076) scale(0.1 -0.1)">
      <use xlink:href="#DejaVuSans-32"/>
      <use xlink:href="#DejaVuSans-30" x="63.623047"/>
     </g>
    </g>
   </g>
   <g id="text_22">
    <g clip-path="url(#p42756b4452)">
     <!-- 21 -->
     <g transform="translate(33.624277 108.838313) scale(0.1 -0.1)">
      <use xlink:href="#DejaVuSans-32"/>
      <use xlink:href="#DejaVuSans-31" x="63.623047"/>
     </g>
    </g>
   </g>
   <g id="text_23">
    <g clip-path="url(#p42756b4452)">
     <!-- 22 -->
     <g transform="translate(37.637654 32.749458) scale(0.1 -0.1)">
      <use xlink:href="#DejaVuSans-32"/>
      <use xlink:href="#DejaVuSans-32" x="63.623047"/>
     </g>
    </g>
   </g>
   <g id="text_24">
    <g clip-path="url(#p42756b4452)">
     <!-- 23 -->
     <g transform="translate(109.696502 38.207313) scale(0.1 -0.1)">
      <use xlink:href="#DejaVuSans-32"/>
      <use xlink:href="#DejaVuSans-33" x="63.623047"/>
     </g>
    </g>
   </g>
   <g id="text_25">
    <g clip-path="url(#p42756b4452)">
     <!-- 24 -->
     <g transform="translate(89.157995 123.932921) scale(0.1 -0.1)">
      <use xlink:href="#DejaVuSans-32"/>
      <use xlink:href="#DejaVuSans-34" x="63.623047"/>
     </g>
    </g>
   </g>
   <g id="text_26">
    <g clip-path="url(#p42756b4452)">
     <!-- 25 -->
     <g transform="translate(40.37525 172.011141) scale(0.1 -0.1)">
      <use xlink:href="#DejaVuSans-32"/>
      <use xlink:href="#DejaVuSans-35" x="63.623047"/>
     </g>
    </g>
   </g>
   <g id="text_27">
    <g clip-path="url(#p42756b4452)">
     <!-- 26 -->
     <g transform="translate(125.686938 147.205903) scale(0.1 -0.1)">
      <use xlink:href="#DejaVuSans-32"/>
      <use xlink:href="#DejaVuSans-36" x="63.623047"/>
     </g>
    </g>
   </g>
   <g id="text_28">
    <g clip-path="url(#p42756b4452)">
     <!-- 27 -->
     <g transform="translate(163.212008 75.194909) scale(0.1 -0.1)">
      <use xlink:href="#DejaVuSans-32"/>
      <use xlink:href="#DejaVuSans-37" x="63.623047"/>
     </g>
    </g>
   </g>
   <g id="text_29">
    <g clip-path="url(#p42756b4452)">
     <!-- 28 -->
     <g transform="translate(155.181674 157.83462) scale(0.1 -0.1)">
      <use xlink:href="#DejaVuSans-32"/>
      <use xlink:href="#DejaVuSans-38" x="63.623047"/>
     </g>
    </g>
   </g>
  </g>
 </g>
 <defs>
  <clipPath id="p42756b4452">
   <rect x="0" y="0" width="460.8" height="345.6"/>
  </clipPath>
 </defs>
</svg>
