<?xml version="1.0" encoding="utf-8" standalone="no"?>
<!DOCTYPE svg PUBLIC "-//W3C//DTD SVG 1.1//EN"
  "http://www.w3.org/Graphics/SVG/1.1/DTD/svg11.dtd">
<svg xmlns:xlink="http://www.w3.org/1999/xlink" width="460.8pt" height="345.6pt" viewBox="0 0 460.8 345.6" xmlns="http://www.w3.org/2000/svg" version="1.1">
 <metadata>
  <rdf:RDF xmlns:dc="http://purl.org/dc/elements/1.1/" xmlns:cc="http://creativecommons.org/ns#" xmlns:rdf="http://www.w3.org/1999/02/22-rdf-syntax-ns#">
   <cc:Work>
    <dc:type rdf:resource="http://purl.org/dc/dcmitype/StillImage"/>
    <dc:date>2023-10-10T10:56:59.511410</dc:date>
    <dc:format>image/svg+xml</dc:format>
    <dc:creator>
     <cc:Agent>
      <dc:title>Matplotlib v3.6.1, https://matplotlib.org/</dc:title>
     </cc:Agent>
    </dc:creator>
   </cc:Work>
  </rdf:RDF>
 </metadata>
 <defs>
  <style type="text/css">*{stroke-linejoin: round; stroke-linecap: butt}</style>
 </defs>
 <g id="figure_1">
  <g id="patch_1">
   <path d="M 0 345.6 
L 460.8 345.6 
L 460.8 0 
L 0 0 
z
" style="fill: #ffffff"/>
  </g>
  <g id="axes_1">
   <g id="patch_2">
    <path d="M 41.671257 30.945496 
Q 122.248838 76.647964 201.853921 121.798845 
" clip-path="url(#pb8d5b0f6d7)" style="fill: none; stroke: #000000; stroke-linecap: round"/>
    <path d="M 199.361316 118.085771 
L 201.853921 121.798845 
L 197.387898 121.565084 
L 199.361316 118.085771 
z
" clip-path="url(#pb8d5b0f6d7)" style="stroke: #000000; stroke-linecap: round"/>
   </g>
   <g id="patch_3">
    <path d="M 202.82408 122.349106 
Q 122.246499 76.646638 42.641417 31.495757 
" clip-path="url(#pb8d5b0f6d7)" style="fill: none; stroke: #000000; stroke-linecap: round"/>
    <path d="M 45.134021 35.208831 
L 42.641417 31.495757 
L 47.107439 31.729518 
L 45.134021 35.208831 
z
" clip-path="url(#pb8d5b0f6d7)" style="stroke: #000000; stroke-linecap: round"/>
   </g>
   <g id="patch_4">
    <path d="M 206.333763 122.666781 
Q 312.658774 85.516087 417.928325 48.734179 
" clip-path="url(#pb8d5b0f6d7)" style="fill: none; stroke: #000000; stroke-linecap: round"/>
    <path d="M 413.49249 48.16552 
L 417.928325 48.734179 
L 414.811897 51.941651 
L 413.49249 48.16552 
z
" clip-path="url(#pb8d5b0f6d7)" style="stroke: #000000; stroke-linecap: round"/>
   </g>
   <g id="patch_5">
    <path d="M 205.34771 125.052315 
Q 230.999458 178.480208 256.167301 230.900215 
" clip-path="url(#pb8d5b0f6d7)" style="fill: none; stroke: #000000; stroke-linecap: round"/>
    <path d="M 256.238991 226.428653 
L 256.167301 230.900215 
L 252.633066 228.159926 
L 256.238991 226.428653 
z
" clip-path="url(#pb8d5b0f6d7)" style="stroke: #000000; stroke-linecap: round"/>
   </g>
   <g id="patch_6">
    <path d="M 203.039899 124.565219 
Q 145.096542 174.303831 88.001531 223.314221 
" clip-path="url(#pb8d5b0f6d7)" style="fill: none; stroke: #000000; stroke-linecap: round"/>
    <path d="M 92.339353 222.226425 
L 88.001531 223.314221 
L 89.733988 219.191286 
L 92.339353 222.226425 
z
" clip-path="url(#pb8d5b0f6d7)" style="stroke: #000000; stroke-linecap: round"/>
   </g>
   <g id="patch_7">
    <path d="M 418.988021 48.363914 
Q 312.663009 85.514608 207.393458 122.296516 
" clip-path="url(#pb8d5b0f6d7)" style="fill: none; stroke: #000000; stroke-linecap: round"/>
    <path d="M 211.829293 122.865175 
L 207.393458 122.296516 
L 210.509887 119.089044 
L 211.829293 122.865175 
z
" clip-path="url(#pb8d5b0f6d7)" style="stroke: #000000; stroke-linecap: round"/>
   </g>
   <g id="patch_8">
    <path d="M 256.650646 231.906933 
Q 230.998898 178.47904 205.831055 126.059033 
" clip-path="url(#pb8d5b0f6d7)" style="fill: none; stroke: #000000; stroke-linecap: round"/>
    <path d="M 205.759365 130.530594 
L 205.831055 126.059033 
L 209.36529 128.799321 
L 205.759365 130.530594 
z
" clip-path="url(#pb8d5b0f6d7)" style="stroke: #000000; stroke-linecap: round"/>
   </g>
   <g id="patch_9">
    <path d="M 255.923137 234.787715 
Q 200.830058 274.630288 146.642932 313.817689 
" clip-path="url(#pb8d5b0f6d7)" style="fill: none; stroke: #000000; stroke-linecap: round"/>
    <path d="M 151.056172 313.09429 
L 146.642932 313.817689 
L 148.712157 309.853057 
L 151.056172 313.09429 
z
" clip-path="url(#pb8d5b0f6d7)" style="stroke: #000000; stroke-linecap: round"/>
   </g>
   <g id="patch_10">
    <path d="M 255.557683 233.560841 
Q 171.587587 229.480469 88.734208 225.454363 
" clip-path="url(#pb8d5b0f6d7)" style="fill: none; stroke: #000000; stroke-linecap: round"/>
    <path d="M 92.632422 227.646149 
L 88.734208 225.454363 
L 92.826566 223.650863 
L 92.632422 227.646149 
z
" clip-path="url(#pb8d5b0f6d7)" style="stroke: #000000; stroke-linecap: round"/>
   </g>
   <g id="patch_11">
    <path d="M 145.731353 314.476931 
Q 200.824432 274.634357 255.011558 235.446956 
" clip-path="url(#pb8d5b0f6d7)" style="fill: none; stroke: #000000; stroke-linecap: round"/>
    <path d="M 250.598318 236.170356 
L 255.011558 235.446956 
L 252.942334 239.411588 
L 250.598318 236.170356 
z
" clip-path="url(#pb8d5b0f6d7)" style="stroke: #000000; stroke-linecap: round"/>
   </g>
   <g id="patch_12">
    <path d="M 143.113462 313.986718 
Q 114.924009 270.459612 87.342306 227.870929 
" clip-path="url(#pb8d5b0f6d7)" style="fill: none; stroke: #000000; stroke-linecap: round"/>
    <path d="M 87.837959 232.315513 
L 87.342306 227.870929 
L 91.195365 230.141157 
L 87.837959 232.315513 
z
" clip-path="url(#pb8d5b0f6d7)" style="stroke: #000000; stroke-linecap: round"/>
   </g>
   <g id="patch_13">
    <path d="M 87.149847 224.045307 
Q 145.093205 174.306695 202.188215 125.296305 
" clip-path="url(#pb8d5b0f6d7)" style="fill: none; stroke: #000000; stroke-linecap: round"/>
    <path d="M 197.850393 126.384101 
L 202.188215 125.296305 
L 200.455758 129.41924 
L 197.850393 126.384101 
z
" clip-path="url(#pb8d5b0f6d7)" style="stroke: #000000; stroke-linecap: round"/>
   </g>
   <g id="patch_14">
    <path d="M 87.613299 225.399894 
Q 171.583394 229.480266 254.436774 233.506372 
" clip-path="url(#pb8d5b0f6d7)" style="fill: none; stroke: #000000; stroke-linecap: round"/>
    <path d="M 250.53856 231.314586 
L 254.436774 233.506372 
L 250.344416 235.309872 
L 250.53856 231.314586 
z
" clip-path="url(#pb8d5b0f6d7)" style="stroke: #000000; stroke-linecap: round"/>
   </g>
   <g id="patch_15">
    <path d="M 86.732418 226.929206 
Q 114.921872 270.456312 142.503574 313.044995 
" clip-path="url(#pb8d5b0f6d7)" style="fill: none; stroke: #000000; stroke-linecap: round"/>
    <path d="M 142.007921 308.600411 
L 142.503574 313.044995 
L 138.650515 310.774767 
L 142.007921 308.600411 
z
" clip-path="url(#pb8d5b0f6d7)" style="stroke: #000000; stroke-linecap: round"/>
   </g>
   <g id="PathCollection_1">
    <defs>
     <path id="m71016b250d" d="M 0 1.936492 
C 0.513564 1.936492 1.006162 1.732451 1.369306 1.369306 
C 1.732451 1.006162 1.936492 0.513564 1.936492 0 
C 1.936492 -0.513564 1.732451 -1.006162 1.369306 -1.369306 
C 1.006162 -1.732451 0.513564 -1.936492 0 -1.936492 
C -0.513564 -1.936492 -1.006162 -1.732451 -1.369306 -1.369306 
C -1.732451 -1.006162 -1.936492 -0.513564 -1.936492 0 
C -1.936492 0.513564 -1.732451 1.006162 -1.369306 1.369306 
C -1.006162 1.732451 -0.513564 1.936492 0 1.936492 
z
" style="stroke: #1f78b4"/>
    </defs>
    <g clip-path="url(#pb8d5b0f6d7)">
     <use xlink:href="#m71016b250d" x="39.986777" y="29.990083" style="fill: #1f78b4; stroke: #1f78b4"/>
     <use xlink:href="#m71016b250d" x="204.50856" y="123.304519" style="fill: #1f78b4; stroke: #1f78b4"/>
     <use xlink:href="#m71016b250d" x="420.813223" y="47.726176" style="fill: #1f78b4; stroke: #1f78b4"/>
     <use xlink:href="#m71016b250d" x="257.489796" y="233.654728" style="fill: #1f78b4; stroke: #1f78b4"/>
     <use xlink:href="#m71016b250d" x="144.164694" y="315.609917" style="fill: #1f78b4; stroke: #1f78b4"/>
     <use xlink:href="#m71016b250d" x="85.681186" y="225.306007" style="fill: #1f78b4; stroke: #1f78b4"/>
    </g>
   </g>
   <g id="text_1">
    <g clip-path="url(#pb8d5b0f6d7)">
     <!-- 0 -->
     <g transform="translate(36.805527 32.749458) scale(0.1 -0.1)">
      <defs>
       <path id="DejaVuSans-30" d="M 2034 4250 
Q 1547 4250 1301 3770 
Q 1056 3291 1056 2328 
Q 1056 1369 1301 889 
Q 1547 409 2034 409 
Q 2525 409 2770 889 
Q 3016 1369 3016 2328 
Q 3016 3291 2770 3770 
Q 2525 4250 2034 4250 
z
M 2034 4750 
Q 2819 4750 3233 4129 
Q 3647 3509 3647 2328 
Q 3647 1150 3233 529 
Q 2819 -91 2034 -91 
Q 1250 -91 836 529 
Q 422 1150 422 2328 
Q 422 3509 836 4129 
Q 1250 4750 2034 4750 
z
" transform="scale(0.015625)"/>
      </defs>
      <use xlink:href="#DejaVuSans-30"/>
     </g>
    </g>
   </g>
   <g id="text_2">
    <g clip-path="url(#pb8d5b0f6d7)">
     <!-- 1 -->
     <g transform="translate(201.32731 126.063894) scale(0.1 -0.1)">
      <defs>
       <path id="DejaVuSans-31" d="M 794 531 
L 1825 531 
L 1825 4091 
L 703 3866 
L 703 4441 
L 1819 4666 
L 2450 4666 
L 2450 531 
L 3481 531 
L 3481 0 
L 794 0 
L 794 531 
z
" transform="scale(0.015625)"/>
      </defs>
      <use xlink:href="#DejaVuSans-31"/>
     </g>
    </g>
   </g>
   <g id="text_3">
    <g clip-path="url(#pb8d5b0f6d7)">
     <!-- 2 -->
     <g transform="translate(417.631973 50.485551) scale(0.1 -0.1)">
      <defs>
       <path id="DejaVuSans-32" d="M 1228 531 
L 3431 531 
L 3431 0 
L 469 0 
L 469 531 
Q 828 903 1448 1529 
Q 2069 2156 2228 2338 
Q 2531 2678 2651 2914 
Q 2772 3150 2772 3378 
Q 2772 3750 2511 3984 
Q 2250 4219 1831 4219 
Q 1534 4219 1204 4116 
Q 875 4013 500 3803 
L 500 4441 
Q 881 4594 1212 4672 
Q 1544 4750 1819 4750 
Q 2544 4750 2975 4387 
Q 3406 4025 3406 3419 
Q 3406 3131 3298 2873 
Q 3191 2616 2906 2266 
Q 2828 2175 2409 1742 
Q 1991 1309 1228 531 
z
" transform="scale(0.015625)"/>
      </defs>
      <use xlink:href="#DejaVuSans-32"/>
     </g>
    </g>
   </g>
   <g id="text_4">
    <g clip-path="url(#pb8d5b0f6d7)">
     <!-- 3 -->
     <g transform="translate(254.308546 236.414103) scale(0.1 -0.1)">
      <defs>
       <path id="DejaVuSans-33" d="M 2597 2516 
Q 3050 2419 3304 2112 
Q 3559 1806 3559 1356 
Q 3559 666 3084 287 
Q 2609 -91 1734 -91 
Q 1441 -91 1130 -33 
Q 819 25 488 141 
L 488 750 
Q 750 597 1062 519 
Q 1375 441 1716 441 
Q 2309 441 2620 675 
Q 2931 909 2931 1356 
Q 2931 1769 2642 2001 
Q 2353 2234 1838 2234 
L 1294 2234 
L 1294 2753 
L 1863 2753 
Q 2328 2753 2575 2939 
Q 2822 3125 2822 3475 
Q 2822 3834 2567 4026 
Q 2313 4219 1838 4219 
Q 1578 4219 1281 4162 
Q 984 4106 628 3988 
L 628 4550 
Q 988 4650 1302 4700 
Q 1616 4750 1894 4750 
Q 2613 4750 3031 4423 
Q 3450 4097 3450 3541 
Q 3450 3153 3228 2886 
Q 3006 2619 2597 2516 
z
" transform="scale(0.015625)"/>
      </defs>
      <use xlink:href="#DejaVuSans-33"/>
     </g>
    </g>
   </g>
   <g id="text_5">
    <g clip-path="url(#pb8d5b0f6d7)">
     <!-- 4 -->
     <g transform="translate(140.983444 318.369292) scale(0.1 -0.1)">
      <defs>
       <path id="DejaVuSans-34" d="M 2419 4116 
L 825 1625 
L 2419 1625 
L 2419 4116 
z
M 2253 4666 
L 3047 4666 
L 3047 1625 
L 3713 1625 
L 3713 1100 
L 3047 1100 
L 3047 0 
L 2419 0 
L 2419 1100 
L 313 1100 
L 313 1709 
L 2253 4666 
z
" transform="scale(0.015625)"/>
      </defs>
      <use xlink:href="#DejaVuSans-34"/>
     </g>
    </g>
   </g>
   <g id="text_6">
    <g clip-path="url(#pb8d5b0f6d7)">
     <!-- 5 -->
     <g transform="translate(82.499936 228.065382) scale(0.1 -0.1)">
      <defs>
       <path id="DejaVuSans-35" d="M 691 4666 
L 3169 4666 
L 3169 4134 
L 1269 4134 
L 1269 2991 
Q 1406 3038 1543 3061 
Q 1681 3084 1819 3084 
Q 2600 3084 3056 2656 
Q 3513 2228 3513 1497 
Q 3513 744 3044 326 
Q 2575 -91 1722 -91 
Q 1428 -91 1123 -41 
Q 819 9 494 109 
L 494 744 
Q 775 591 1075 516 
Q 1375 441 1709 441 
Q 2250 441 2565 725 
Q 2881 1009 2881 1497 
Q 2881 1984 2565 2268 
Q 2250 2553 1709 2553 
Q 1456 2553 1204 2497 
Q 953 2441 691 2322 
L 691 4666 
z
" transform="scale(0.015625)"/>
      </defs>
      <use xlink:href="#DejaVuSans-35"/>
     </g>
    </g>
   </g>
  </g>
 </g>
 <defs>
  <clipPath id="pb8d5b0f6d7">
   <rect x="0" y="0" width="460.8" height="345.6"/>
  </clipPath>
 </defs>
</svg>
