<?xml version="1.0" encoding="utf-8" standalone="no"?>
<!DOCTYPE svg PUBLIC "-//W3C//DTD SVG 1.1//EN"
  "http://www.w3.org/Graphics/SVG/1.1/DTD/svg11.dtd">
<svg xmlns:xlink="http://www.w3.org/1999/xlink" width="460.8pt" height="345.6pt" viewBox="0 0 460.8 345.6" xmlns="http://www.w3.org/2000/svg" version="1.1">
 <metadata>
  <rdf:RDF xmlns:dc="http://purl.org/dc/elements/1.1/" xmlns:cc="http://creativecommons.org/ns#" xmlns:rdf="http://www.w3.org/1999/02/22-rdf-syntax-ns#">
   <cc:Work>
    <dc:type rdf:resource="http://purl.org/dc/dcmitype/StillImage"/>
    <dc:date>2023-10-23T10:42:32.135526</dc:date>
    <dc:format>image/svg+xml</dc:format>
    <dc:creator>
     <cc:Agent>
      <dc:title>Matplotlib v3.6.1, https://matplotlib.org/</dc:title>
     </cc:Agent>
    </dc:creator>
   </cc:Work>
  </rdf:RDF>
 </metadata>
 <defs>
  <style type="text/css">*{stroke-linejoin: round; stroke-linecap: butt}</style>
 </defs>
 <g id="figure_1">
  <g id="patch_1">
   <path d="M 0 345.6 
L 460.8 345.6 
L 460.8 0 
L 0 0 
z
" style="fill: #ffffff"/>
  </g>
  <g id="axes_1">
   <g id="patch_2">
    <path d="M 244.934762 195.750636 
Q 223.531868 202.576563 203.194148 209.062778 
" clip-path="url(#pb5f62eacb6)" style="fill: none; stroke: #000000; stroke-linecap: round"/>
    <path d="M 207.612726 209.752832 
L 203.194148 209.062778 
L 206.397338 205.941948 
L 207.612726 209.752832 
z
" clip-path="url(#pb5f62eacb6)" style="stroke: #000000; stroke-linecap: round"/>
   </g>
   <g id="patch_3">
    <path d="M 247.756053 193.485532 
Q 253.841318 183.012285 259.3649 173.505741 
" clip-path="url(#pb5f62eacb6)" style="fill: none; stroke: #000000; stroke-linecap: round"/>
    <path d="M 255.626075 175.959551 
L 259.3649 173.505741 
L 259.084654 177.969087 
L 255.626075 175.959551 
z
" clip-path="url(#pb5f62eacb6)" style="stroke: #000000; stroke-linecap: round"/>
   </g>
   <g id="patch_4">
    <path d="M 248.555661 195.942074 
Q 265.264322 203.297682 280.949715 210.202819 
" clip-path="url(#pb5f62eacb6)" style="fill: none; stroke: #000000; stroke-linecap: round"/>
    <path d="M 278.094587 206.760691 
L 280.949715 210.202819 
L 276.482936 210.421645 
L 278.094587 206.760691 
z
" clip-path="url(#pb5f62eacb6)" style="stroke: #000000; stroke-linecap: round"/>
   </g>
   <g id="patch_5">
    <path d="M 247.338983 193.30912 
Q 249.223572 187.038161 250.786379 181.837929 
" clip-path="url(#pb5f62eacb6)" style="fill: none; stroke: #000000; stroke-linecap: round"/>
    <path d="M 247.719763 185.093058 
L 250.786379 181.837929 
L 251.550512 186.2443 
L 247.719763 185.093058 
z
" clip-path="url(#pb5f62eacb6)" style="stroke: #000000; stroke-linecap: round"/>
   </g>
   <g id="patch_6">
    <path d="M 264.221805 153.322463 
Q 262.74159 161.139803 261.46938 167.858629 
" clip-path="url(#pb5f62eacb6)" style="fill: none; stroke: #000000; stroke-linecap: round"/>
    <path d="M 264.17864 164.300552 
L 261.46938 167.858629 
L 260.248475 163.556374 
L 264.17864 164.300552 
z
" clip-path="url(#pb5f62eacb6)" style="stroke: #000000; stroke-linecap: round"/>
   </g>
   <g id="patch_7">
    <path d="M 262.690401 151.00685 
Q 252.788687 148.850217 243.979395 146.931518 
" clip-path="url(#pb5f62eacb6)" style="fill: none; stroke: #000000; stroke-linecap: round"/>
    <path d="M 247.462136 149.736962 
L 243.979395 146.931518 
L 248.313394 145.828592 
L 247.462136 149.736962 
z
" clip-path="url(#pb5f62eacb6)" style="stroke: #000000; stroke-linecap: round"/>
   </g>
   <g id="patch_8">
    <path d="M 202.131528 209.401674 
Q 223.534422 202.575748 243.872142 196.089533 
" clip-path="url(#pb5f62eacb6)" style="fill: none; stroke: #000000; stroke-linecap: round"/>
    <path d="M 239.453565 195.399479 
L 243.872142 196.089533 
L 240.668952 199.210362 
L 239.453565 195.399479 
z
" clip-path="url(#pb5f62eacb6)" style="stroke: #000000; stroke-linecap: round"/>
   </g>
   <g id="patch_9">
    <path d="M 198.399388 209.553287 
Q 188.949143 207.358832 180.587955 205.417268 
" clip-path="url(#pb5f62eacb6)" style="fill: none; stroke: #000000; stroke-linecap: round"/>
    <path d="M 184.031899 208.270206 
L 180.587955 205.417268 
L 184.936671 204.373876 
L 184.031899 208.270206 
z
" clip-path="url(#pb5f62eacb6)" style="stroke: #000000; stroke-linecap: round"/>
   </g>
   <g id="patch_10">
    <path d="M 198.499986 210.742483 
Q 180.925513 218.146446 164.381373 225.11634 
" clip-path="url(#pb5f62eacb6)" style="fill: none; stroke: #000000; stroke-linecap: round"/>
    <path d="M 168.844088 225.40648 
L 164.381373 225.11634 
L 167.291114 221.720252 
L 168.844088 225.40648 
z
" clip-path="url(#pb5f62eacb6)" style="stroke: #000000; stroke-linecap: round"/>
   </g>
   <g id="patch_11">
    <path d="M 259.926816 172.538637 
Q 253.841551 183.011884 248.317969 192.518428 
" clip-path="url(#pb5f62eacb6)" style="fill: none; stroke: #000000; stroke-linecap: round"/>
    <path d="M 252.056794 190.064618 
L 248.317969 192.518428 
L 248.598215 188.055082 
L 252.056794 190.064618 
z
" clip-path="url(#pb5f62eacb6)" style="stroke: #000000; stroke-linecap: round"/>
   </g>
   <g id="patch_12">
    <path d="M 261.260986 168.959205 
Q 262.7412 161.141865 264.01341 154.423039 
" clip-path="url(#pb5f62eacb6)" style="fill: none; stroke: #000000; stroke-linecap: round"/>
    <path d="M 261.30415 157.981116 
L 264.01341 154.423039 
L 265.234316 158.725294 
L 261.30415 157.981116 
z
" clip-path="url(#pb5f62eacb6)" style="stroke: #000000; stroke-linecap: round"/>
   </g>
   <g id="patch_13">
    <path d="M 290.877555 191.672367 
Q 306.237918 192.948316 320.484085 194.131712 
" clip-path="url(#pb5f62eacb6)" style="fill: none; stroke: #000000; stroke-linecap: round"/>
    <path d="M 316.66338 191.807446 
L 320.484085 194.131712 
L 316.33225 195.793717 
L 316.66338 191.807446 
z
" clip-path="url(#pb5f62eacb6)" style="stroke: #000000; stroke-linecap: round"/>
   </g>
   <g id="patch_14">
    <path d="M 288.458779 193.387112 
Q 286.34741 201.474434 284.518461 208.479982 
" clip-path="url(#pb5f62eacb6)" style="fill: none; stroke: #000000; stroke-linecap: round"/>
    <path d="M 287.464019 205.114913 
L 284.518461 208.479982 
L 283.593741 204.104494 
L 287.464019 205.114913 
z
" clip-path="url(#pb5f62eacb6)" style="stroke: #000000; stroke-linecap: round"/>
   </g>
   <g id="patch_15">
    <path d="M 287.114149 190.892414 
Q 270.304663 185.21306 254.554388 179.891578 
" clip-path="url(#pb5f62eacb6)" style="fill: none; stroke: #000000; stroke-linecap: round"/>
    <path d="M 257.703757 183.066712 
L 254.554388 179.891578 
L 258.984117 179.277163 
L 257.703757 183.066712 
z
" clip-path="url(#pb5f62eacb6)" style="stroke: #000000; stroke-linecap: round"/>
   </g>
   <g id="patch_16">
    <path d="M 281.973826 210.653661 
Q 265.265165 203.298053 249.579771 196.392915 
" clip-path="url(#pb5f62eacb6)" style="fill: none; stroke: #000000; stroke-linecap: round"/>
    <path d="M 252.434899 199.835044 
L 249.579771 196.392915 
L 254.046551 196.17409 
L 252.434899 199.835044 
z
" clip-path="url(#pb5f62eacb6)" style="stroke: #000000; stroke-linecap: round"/>
   </g>
   <g id="patch_17">
    <path d="M 284.236674 209.559328 
Q 286.348044 201.472006 288.176993 194.466458 
" clip-path="url(#pb5f62eacb6)" style="fill: none; stroke: #000000; stroke-linecap: round"/>
    <path d="M 285.231434 197.831527 
L 288.176993 194.466458 
L 289.101712 198.841946 
L 285.231434 197.831527 
z
" clip-path="url(#pb5f62eacb6)" style="stroke: #000000; stroke-linecap: round"/>
   </g>
   <g id="patch_18">
    <path d="M 282.661622 213.034647 
Q 274.347882 225.290824 266.661767 236.621752 
" clip-path="url(#pb5f62eacb6)" style="fill: none; stroke: #000000; stroke-linecap: round"/>
    <path d="M 270.562363 234.434209 
L 266.661767 236.621752 
L 267.25209 232.188749 
L 270.562363 234.434209 
z
" clip-path="url(#pb5f62eacb6)" style="stroke: #000000; stroke-linecap: round"/>
   </g>
   <g id="patch_19">
    <path d="M 285.680995 211.348327 
Q 306.474562 210.423547 326.151198 209.548442 
" clip-path="url(#pb5f62eacb6)" style="fill: none; stroke: #000000; stroke-linecap: round"/>
    <path d="M 322.066287 207.728138 
L 326.151198 209.548442 
L 322.244009 211.724188 
L 322.066287 207.728138 
z
" clip-path="url(#pb5f62eacb6)" style="stroke: #000000; stroke-linecap: round"/>
   </g>
   <g id="patch_20">
    <path d="M 242.88508 146.693172 
Q 252.786795 148.849805 261.596087 150.768504 
" clip-path="url(#pb5f62eacb6)" style="fill: none; stroke: #000000; stroke-linecap: round"/>
    <path d="M 258.113346 147.96306 
L 261.596087 150.768504 
L 257.262088 151.871431 
L 258.113346 147.96306 
z
" clip-path="url(#pb5f62eacb6)" style="stroke: #000000; stroke-linecap: round"/>
   </g>
   <g id="patch_21">
    <path d="M 239.311911 147.240266 
Q 228.761692 153.258839 219.182601 158.723414 
" clip-path="url(#pb5f62eacb6)" style="fill: none; stroke: #000000; stroke-linecap: round"/>
    <path d="M 223.648029 158.478576 
L 219.182601 158.723414 
L 221.665987 155.004168 
L 223.648029 158.478576 
z
" clip-path="url(#pb5f62eacb6)" style="stroke: #000000; stroke-linecap: round"/>
   </g>
   <g id="patch_22">
    <path d="M 251.10806 180.76754 
Q 249.22347 187.038499 247.660663 192.238731 
" clip-path="url(#pb5f62eacb6)" style="fill: none; stroke: #000000; stroke-linecap: round"/>
    <path d="M 250.72728 188.983602 
L 247.660663 192.238731 
L 246.89653 187.83236 
L 250.72728 188.983602 
z
" clip-path="url(#pb5f62eacb6)" style="stroke: #000000; stroke-linecap: round"/>
   </g>
   <g id="patch_23">
    <path d="M 253.49886 179.534951 
Q 270.308346 185.214305 286.058621 190.535787 
" clip-path="url(#pb5f62eacb6)" style="fill: none; stroke: #000000; stroke-linecap: round"/>
    <path d="M 282.909252 187.360653 
L 286.058621 190.535787 
L 281.628892 191.150201 
L 282.909252 187.360653 
z
" clip-path="url(#pb5f62eacb6)" style="stroke: #000000; stroke-linecap: round"/>
   </g>
   <g id="patch_24">
    <path d="M 249.953392 178.005527 
Q 234.09593 169.5758 219.225681 161.67087 
" clip-path="url(#pb5f62eacb6)" style="fill: none; stroke: #000000; stroke-linecap: round"/>
    <path d="M 221.818858 165.314418 
L 219.225681 161.67087 
L 223.696425 161.782458 
L 221.818858 165.314418 
z
" clip-path="url(#pb5f62eacb6)" style="stroke: #000000; stroke-linecap: round"/>
   </g>
   <g id="patch_25">
    <path d="M 168.627933 255.213329 
Q 162.160727 250.658045 156.607571 246.746587 
" clip-path="url(#pb5f62eacb6)" style="fill: none; stroke: #000000; stroke-linecap: round"/>
    <path d="M 158.726065 250.685113 
L 156.607571 246.746587 
L 161.029488 247.414908 
L 158.726065 250.685113 
z
" clip-path="url(#pb5f62eacb6)" style="stroke: #000000; stroke-linecap: round"/>
   </g>
   <g id="patch_26">
    <path d="M 168.340259 255.825628 
Q 148.642591 250.525885 130.024562 245.516623 
" clip-path="url(#pb5f62eacb6)" style="fill: none; stroke: #000000; stroke-linecap: round"/>
    <path d="M 133.367567 248.487198 
L 130.024562 245.516623 
L 134.406825 244.624564 
L 133.367567 248.487198 
z
" clip-path="url(#pb5f62eacb6)" style="stroke: #000000; stroke-linecap: round"/>
   </g>
   <g id="patch_27">
    <path d="M 172.133297 256.566069 
Q 196.482002 259.567002 219.72107 262.431173 
" clip-path="url(#pb5f62eacb6)" style="fill: none; stroke: #000000; stroke-linecap: round"/>
    <path d="M 215.995754 259.956902 
L 219.72107 262.431173 
L 215.506464 263.926864 
L 215.995754 259.956902 
z
" clip-path="url(#pb5f62eacb6)" style="stroke: #000000; stroke-linecap: round"/>
   </g>
   <g id="patch_28">
    <path d="M 128.945563 245.226314 
Q 148.643231 250.526057 167.26126 255.535318 
" clip-path="url(#pb5f62eacb6)" style="fill: none; stroke: #000000; stroke-linecap: round"/>
    <path d="M 163.918256 252.564743 
L 167.26126 255.535318 
L 162.878997 256.427377 
L 163.918256 252.564743 
z
" clip-path="url(#pb5f62eacb6)" style="stroke: #000000; stroke-linecap: round"/>
   </g>
   <g id="patch_29">
    <path d="M 125.138531 244.683159 
Q 109.103331 244.356058 94.185932 244.051759 
" clip-path="url(#pb5f62eacb6)" style="fill: none; stroke: #000000; stroke-linecap: round"/>
    <path d="M 98.144311 246.132921 
L 94.185932 244.051759 
L 98.22589 242.133753 
L 98.144311 246.132921 
z
" clip-path="url(#pb5f62eacb6)" style="stroke: #000000; stroke-linecap: round"/>
   </g>
   <g id="patch_30">
    <path d="M 125.138531 244.683159 
Q 109.103331 244.356058 94.185932 244.051759 
" clip-path="url(#pb5f62eacb6)" style="fill: none; stroke: #000000; stroke-linecap: round"/>
    <path d="M 98.144311 246.132921 
L 94.185932 244.051759 
L 98.22589 242.133753 
L 98.144311 246.132921 
z
" clip-path="url(#pb5f62eacb6)" style="stroke: #000000; stroke-linecap: round"/>
   </g>
   <g id="patch_31">
    <path d="M 128.778985 243.811872 
Q 144.320072 235.512609 158.87494 227.740006 
" clip-path="url(#pb5f62eacb6)" style="fill: none; stroke: #000000; stroke-linecap: round"/>
    <path d="M 154.404415 227.860045 
L 158.87494 227.740006 
L 156.288656 231.388449 
L 154.404415 227.860045 
z
" clip-path="url(#pb5f62eacb6)" style="stroke: #000000; stroke-linecap: round"/>
   </g>
   <g id="patch_32">
    <path d="M 220.834631 262.568417 
Q 196.485925 259.567485 173.246857 256.703313 
" clip-path="url(#pb5f62eacb6)" style="fill: none; stroke: #000000; stroke-linecap: round"/>
    <path d="M 176.972173 259.177584 
L 173.246857 256.703313 
L 177.461464 255.207623 
L 176.972173 259.177584 
z
" clip-path="url(#pb5f62eacb6)" style="stroke: #000000; stroke-linecap: round"/>
   </g>
   <g id="patch_33">
    <path d="M 224.028312 264.261889 
Q 230.737419 271.941061 236.710928 278.778275 
" clip-path="url(#pb5f62eacb6)" style="fill: none; stroke: #000000; stroke-linecap: round"/>
    <path d="M 235.58531 274.450113 
L 236.710928 278.778275 
L 232.573028 277.081872 
L 235.58531 274.450113 
z
" clip-path="url(#pb5f62eacb6)" style="stroke: #000000; stroke-linecap: round"/>
   </g>
   <g id="patch_34">
    <path d="M 223.202008 264.687599 
Q 225.40156 273.963078 227.34314 282.150692 
" clip-path="url(#pb5f62eacb6)" style="fill: none; stroke: #000000; stroke-linecap: round"/>
    <path d="M 228.366223 277.797153 
L 227.34314 282.150692 
L 224.474158 278.720102 
L 228.366223 277.797153 
z
" clip-path="url(#pb5f62eacb6)" style="stroke: #000000; stroke-linecap: round"/>
   </g>
   <g id="patch_35">
    <path d="M 224.442322 261.85951 
Q 243.850115 250.978367 262.282692 240.643987 
" clip-path="url(#pb5f62eacb6)" style="fill: none; stroke: #000000; stroke-linecap: round"/>
    <path d="M 257.815566 240.855627 
L 262.282692 240.643987 
L 259.771728 244.344671 
L 257.815566 240.855627 
z
" clip-path="url(#pb5f62eacb6)" style="stroke: #000000; stroke-linecap: round"/>
   </g>
   <g id="patch_36">
    <path d="M 266.031945 237.55024 
Q 274.345685 225.294063 282.0318 213.963135 
" clip-path="url(#pb5f62eacb6)" style="fill: none; stroke: #000000; stroke-linecap: round"/>
    <path d="M 278.131203 216.150678 
L 282.0318 213.963135 
L 281.441477 218.396138 
L 278.131203 216.150678 
z
" clip-path="url(#pb5f62eacb6)" style="stroke: #000000; stroke-linecap: round"/>
   </g>
   <g id="patch_37">
    <path d="M 263.259699 240.09622 
Q 243.851905 250.977363 225.419329 261.311743 
" clip-path="url(#pb5f62eacb6)" style="fill: none; stroke: #000000; stroke-linecap: round"/>
    <path d="M 229.886454 261.100103 
L 225.419329 261.311743 
L 227.930292 257.611059 
L 229.886454 261.100103 
z
" clip-path="url(#pb5f62eacb6)" style="stroke: #000000; stroke-linecap: round"/>
   </g>
   <g id="patch_38">
    <path d="M 266.876647 239.00884 
Q 284.182439 237.738287 300.373198 236.549597 
" clip-path="url(#pb5f62eacb6)" style="fill: none; stroke: #000000; stroke-linecap: round"/>
    <path d="M 296.237493 234.847849 
L 300.373198 236.549597 
L 296.530376 238.837112 
L 296.237493 234.847849 
z
" clip-path="url(#pb5f62eacb6)" style="stroke: #000000; stroke-linecap: round"/>
   </g>
   <g id="patch_39">
    <path d="M 370.201842 311.911504 
Q 383.941707 314.972605 396.590294 317.79058 
" clip-path="url(#pb5f62eacb6)" style="fill: none; stroke: #000000; stroke-linecap: round"/>
    <path d="M 393.120932 314.968608 
L 396.590294 317.79058 
L 392.251099 318.872886 
L 393.120932 314.968608 
z
" clip-path="url(#pb5f62eacb6)" style="stroke: #000000; stroke-linecap: round"/>
   </g>
   <g id="patch_40">
    <path d="M 366.493717 310.824137 
Q 350.693578 305.035372 335.943233 299.631224 
" clip-path="url(#pb5f62eacb6)" style="fill: none; stroke: #000000; stroke-linecap: round"/>
    <path d="M 339.011067 302.885205 
L 335.943233 299.631224 
L 340.387118 299.129345 
L 339.011067 302.885205 
z
" clip-path="url(#pb5f62eacb6)" style="stroke: #000000; stroke-linecap: round"/>
   </g>
   <g id="patch_41">
    <path d="M 334.897644 299.248147 
Q 350.697784 305.036913 365.448129 310.44106 
" clip-path="url(#pb5f62eacb6)" style="fill: none; stroke: #000000; stroke-linecap: round"/>
    <path d="M 362.380294 307.18708 
L 365.448129 310.44106 
L 361.004243 310.94294 
L 362.380294 307.18708 
z
" clip-path="url(#pb5f62eacb6)" style="stroke: #000000; stroke-linecap: round"/>
   </g>
   <g id="patch_42">
    <path d="M 331.149662 298.382528 
Q 313.858555 296.59796 297.679574 294.928171 
" clip-path="url(#pb5f62eacb6)" style="fill: none; stroke: #000000; stroke-linecap: round"/>
    <path d="M 301.453116 297.328252 
L 297.679574 294.928171 
L 301.863764 293.349386 
L 301.453116 297.328252 
z
" clip-path="url(#pb5f62eacb6)" style="stroke: #000000; stroke-linecap: round"/>
   </g>
   <g id="patch_43">
    <path d="M 332.21559 296.842892 
Q 328.75725 289.872786 325.795837 283.904212 
" clip-path="url(#pb5f62eacb6)" style="fill: none; stroke: #000000; stroke-linecap: round"/>
    <path d="M 325.782104 288.376326 
L 325.795837 283.904212 
L 329.365289 286.598466 
L 325.782104 288.376326 
z
" clip-path="url(#pb5f62eacb6)" style="stroke: #000000; stroke-linecap: round"/>
   </g>
   <g id="patch_44">
    <path d="M 325.301512 282.907925 
Q 328.759852 289.878031 331.721265 295.846606 
" clip-path="url(#pb5f62eacb6)" style="fill: none; stroke: #000000; stroke-linecap: round"/>
    <path d="M 331.734997 291.374491 
L 331.721265 295.846606 
L 328.151812 293.152351 
L 331.734997 291.374491 
z
" clip-path="url(#pb5f62eacb6)" style="stroke: #000000; stroke-linecap: round"/>
   </g>
   <g id="patch_45">
    <path d="M 322.504104 281.208201 
Q 313.945338 281.380545 306.50438 281.530379 
" clip-path="url(#pb5f62eacb6)" style="fill: none; stroke: #000000; stroke-linecap: round"/>
    <path d="M 310.543834 283.449444 
L 306.50438 281.530379 
L 310.463305 279.450255 
L 310.543834 283.449444 
z
" clip-path="url(#pb5f62eacb6)" style="stroke: #000000; stroke-linecap: round"/>
   </g>
   <g id="patch_46">
    <path d="M 305.381099 281.552998 
Q 313.939865 281.380655 321.380823 281.23082 
" clip-path="url(#pb5f62eacb6)" style="fill: none; stroke: #000000; stroke-linecap: round"/>
    <path d="M 317.341369 279.311755 
L 321.380823 281.23082 
L 317.421898 283.310944 
L 317.341369 279.311755 
z
" clip-path="url(#pb5f62eacb6)" style="stroke: #000000; stroke-linecap: round"/>
   </g>
   <g id="patch_47">
    <path d="M 302.36032 283.197484 
Q 299.040999 288.104503 296.348104 292.085461 
" clip-path="url(#pb5f62eacb6)" style="fill: none; stroke: #000000; stroke-linecap: round"/>
    <path d="M 300.245868 289.892874 
L 296.348104 292.085461 
L 296.932693 287.651698 
L 300.245868 289.892874 
z
" clip-path="url(#pb5f62eacb6)" style="stroke: #000000; stroke-linecap: round"/>
   </g>
   <g id="patch_48">
    <path d="M 296.566153 294.813258 
Q 313.85726 296.597826 330.03624 298.267615 
" clip-path="url(#pb5f62eacb6)" style="fill: none; stroke: #000000; stroke-linecap: round"/>
    <path d="M 326.262699 295.867535 
L 330.03624 298.267615 
L 325.852051 299.8464 
L 326.262699 295.867535 
z
" clip-path="url(#pb5f62eacb6)" style="stroke: #000000; stroke-linecap: round"/>
   </g>
   <g id="patch_49">
    <path d="M 295.723596 293.008685 
Q 299.042918 288.101666 301.735812 284.120707 
" clip-path="url(#pb5f62eacb6)" style="fill: none; stroke: #000000; stroke-linecap: round"/>
    <path d="M 297.838048 286.313294 
L 301.735812 284.120707 
L 301.151223 288.55447 
L 297.838048 286.313294 
z
" clip-path="url(#pb5f62eacb6)" style="stroke: #000000; stroke-linecap: round"/>
   </g>
   <g id="patch_50">
    <path d="M 292.702359 294.569244 
Q 275.628275 294.172497 259.671924 293.801722 
" clip-path="url(#pb5f62eacb6)" style="fill: none; stroke: #000000; stroke-linecap: round"/>
    <path d="M 263.624383 295.894104 
L 259.671924 293.801722 
L 263.717305 291.895184 
L 263.624383 295.894104 
z
" clip-path="url(#pb5f62eacb6)" style="stroke: #000000; stroke-linecap: round"/>
   </g>
   <g id="patch_51">
    <path d="M 258.5558 293.775787 
Q 275.629883 294.172534 291.586235 294.543309 
" clip-path="url(#pb5f62eacb6)" style="fill: none; stroke: #000000; stroke-linecap: round"/>
    <path d="M 287.633775 292.450927 
L 291.586235 294.543309 
L 287.540853 296.449847 
L 287.633775 292.450927 
z
" clip-path="url(#pb5f62eacb6)" style="stroke: #000000; stroke-linecap: round"/>
   </g>
   <g id="patch_52">
    <path d="M 254.768535 293.172791 
Q 242.336109 289.426917 230.974181 286.003582 
" clip-path="url(#pb5f62eacb6)" style="fill: none; stroke: #000000; stroke-linecap: round"/>
    <path d="M 234.227138 289.072503 
L 230.974181 286.003582 
L 235.381092 285.24257 
L 234.227138 289.072503 
z
" clip-path="url(#pb5f62eacb6)" style="stroke: #000000; stroke-linecap: round"/>
   </g>
   <g id="patch_53">
    <path d="M 255.040919 292.614289 
Q 247.672217 287.406075 241.216517 282.843171 
" clip-path="url(#pb5f62eacb6)" style="fill: none; stroke: #000000; stroke-linecap: round"/>
    <path d="M 243.328603 286.785137 
L 241.216517 282.843171 
L 245.637341 283.518682 
L 243.328603 286.785137 
z
" clip-path="url(#pb5f62eacb6)" style="stroke: #000000; stroke-linecap: round"/>
   </g>
   <g id="patch_54">
    <path d="M 227.601316 283.239416 
Q 225.401764 273.963937 223.460184 265.776323 
" clip-path="url(#pb5f62eacb6)" style="fill: none; stroke: #000000; stroke-linecap: round"/>
    <path d="M 222.437101 270.129862 
L 223.460184 265.776323 
L 226.329166 269.206913 
L 222.437101 270.129862 
z
" clip-path="url(#pb5f62eacb6)" style="stroke: #000000; stroke-linecap: round"/>
   </g>
   <g id="patch_55">
    <path d="M 229.899784 285.679868 
Q 242.33221 289.425742 253.694137 292.849076 
" clip-path="url(#pb5f62eacb6)" style="fill: none; stroke: #000000; stroke-linecap: round"/>
    <path d="M 250.441181 289.780155 
L 253.694137 292.849076 
L 249.287227 293.610089 
L 250.441181 289.780155 
z
" clip-path="url(#pb5f62eacb6)" style="stroke: #000000; stroke-linecap: round"/>
   </g>
   <g id="patch_56">
    <path d="M 237.449108 279.623189 
Q 230.740001 271.944017 224.766493 265.106803 
" clip-path="url(#pb5f62eacb6)" style="fill: none; stroke: #000000; stroke-linecap: round"/>
    <path d="M 225.89211 269.434965 
L 224.766493 265.106803 
L 228.904393 266.803206 
L 225.89211 269.434965 
z
" clip-path="url(#pb5f62eacb6)" style="stroke: #000000; stroke-linecap: round"/>
   </g>
   <g id="patch_57">
    <path d="M 240.301496 282.196433 
Q 247.670198 287.404647 254.125898 291.967551 
" clip-path="url(#pb5f62eacb6)" style="fill: none; stroke: #000000; stroke-linecap: round"/>
    <path d="M 252.013812 288.025585 
L 254.125898 291.967551 
L 249.705074 291.29204 
L 252.013812 288.025585 
z
" clip-path="url(#pb5f62eacb6)" style="stroke: #000000; stroke-linecap: round"/>
   </g>
   <g id="patch_58">
    <path d="M 329.681968 226.836588 
Q 317.462929 231.251701 306.295388 235.286876 
" clip-path="url(#pb5f62eacb6)" style="fill: none; stroke: #000000; stroke-linecap: round"/>
    <path d="M 310.736994 235.808543 
L 306.295388 235.286876 
L 309.377686 232.046592 
L 310.736994 235.808543 
z
" clip-path="url(#pb5f62eacb6)" style="stroke: #000000; stroke-linecap: round"/>
   </g>
   <g id="patch_59">
    <path d="M 331.239181 224.259097 
Q 330.353317 217.794581 329.619244 212.437747 
" clip-path="url(#pb5f62eacb6)" style="fill: none; stroke: #000000; stroke-linecap: round"/>
    <path d="M 328.180826 216.672243 
L 329.619244 212.437747 
L 332.14379 216.129179 
L 328.180826 216.672243 
z
" clip-path="url(#pb5f62eacb6)" style="stroke: #000000; stroke-linecap: round"/>
   </g>
   <g id="patch_60">
    <path d="M 301.489527 236.467639 
Q 284.183735 237.738192 267.992976 238.926882 
" clip-path="url(#pb5f62eacb6)" style="fill: none; stroke: #000000; stroke-linecap: round"/>
    <path d="M 272.12868 240.62863 
L 267.992976 238.926882 
L 271.835797 236.639367 
L 272.12868 240.62863 
z
" clip-path="url(#pb5f62eacb6)" style="stroke: #000000; stroke-linecap: round"/>
   </g>
   <g id="patch_61">
    <path d="M 305.240059 235.668199 
Q 317.459097 231.253086 328.626639 227.217911 
" clip-path="url(#pb5f62eacb6)" style="fill: none; stroke: #000000; stroke-linecap: round"/>
    <path d="M 324.185033 226.696244 
L 328.626639 227.217911 
L 325.544341 230.458195 
L 324.185033 226.696244 
z
" clip-path="url(#pb5f62eacb6)" style="stroke: #000000; stroke-linecap: round"/>
   </g>
   <g id="patch_62">
    <path d="M 327.270867 209.498645 
Q 306.477301 210.423425 286.800664 211.29853 
" clip-path="url(#pb5f62eacb6)" style="fill: none; stroke: #000000; stroke-linecap: round"/>
    <path d="M 290.885575 213.118834 
L 286.800664 211.29853 
L 290.707854 209.122784 
L 290.885575 213.118834 
z
" clip-path="url(#pb5f62eacb6)" style="stroke: #000000; stroke-linecap: round"/>
   </g>
   <g id="patch_63">
    <path d="M 329.467774 211.332405 
Q 330.353638 217.796921 331.087711 223.153755 
" clip-path="url(#pb5f62eacb6)" style="fill: none; stroke: #000000; stroke-linecap: round"/>
    <path d="M 332.526129 218.919259 
L 331.087711 223.153755 
L 328.563165 219.462323 
L 332.526129 218.919259 
z
" clip-path="url(#pb5f62eacb6)" style="stroke: #000000; stroke-linecap: round"/>
   </g>
   <g id="patch_64">
    <path d="M 328.521869 207.603875 
Q 326.368445 201.899623 324.609893 197.241353 
" clip-path="url(#pb5f62eacb6)" style="fill: none; stroke: #000000; stroke-linecap: round"/>
    <path d="M 324.151516 201.689936 
L 324.609893 197.241353 
L 327.893733 200.277204 
L 324.151516 201.689936 
z
" clip-path="url(#pb5f62eacb6)" style="stroke: #000000; stroke-linecap: round"/>
   </g>
   <g id="patch_65">
    <path d="M 331.131807 209.241631 
Q 347.351357 207.80234 362.457249 206.461873 
" clip-path="url(#pb5f62eacb6)" style="fill: none; stroke: #000000; stroke-linecap: round"/>
    <path d="M 358.296124 204.823264 
L 362.457249 206.461873 
L 358.649687 208.807607 
L 358.296124 204.823264 
z
" clip-path="url(#pb5f62eacb6)" style="stroke: #000000; stroke-linecap: round"/>
   </g>
   <g id="patch_66">
    <path d="M 363.569254 206.363195 
Q 347.349704 207.802487 332.243812 209.142954 
" clip-path="url(#pb5f62eacb6)" style="fill: none; stroke: #000000; stroke-linecap: round"/>
    <path d="M 336.404937 210.781563 
L 332.243812 209.142954 
L 336.051374 206.79722 
L 336.404937 210.781563 
z
" clip-path="url(#pb5f62eacb6)" style="stroke: #000000; stroke-linecap: round"/>
   </g>
   <g id="patch_67">
    <path d="M 155.693442 246.102705 
Q 162.160648 250.657989 167.713803 254.569446 
" clip-path="url(#pb5f62eacb6)" style="fill: none; stroke: #000000; stroke-linecap: round"/>
    <path d="M 165.59531 250.630921 
L 167.713803 254.569446 
L 163.291887 253.901126 
L 165.59531 250.630921 
z
" clip-path="url(#pb5f62eacb6)" style="stroke: #000000; stroke-linecap: round"/>
   </g>
   <g id="patch_68">
    <path d="M 154.8286 243.184715 
Q 157.839851 235.64333 160.436504 229.140264 
" clip-path="url(#pb5f62eacb6)" style="fill: none; stroke: #000000; stroke-linecap: round"/>
    <path d="M 157.09579 232.113416 
L 160.436504 229.140264 
L 160.810597 233.596727 
L 157.09579 232.113416 
z
" clip-path="url(#pb5f62eacb6)" style="stroke: #000000; stroke-linecap: round"/>
   </g>
   <g id="patch_69">
    <path d="M 321.602266 194.224597 
Q 306.241902 192.948647 291.995735 191.765252 
" clip-path="url(#pb5f62eacb6)" style="fill: none; stroke: #000000; stroke-linecap: round"/>
    <path d="M 295.816441 194.089517 
L 291.995735 191.765252 
L 296.147571 190.103246 
L 295.816441 194.089517 
z
" clip-path="url(#pb5f62eacb6)" style="stroke: #000000; stroke-linecap: round"/>
   </g>
   <g id="patch_70">
    <path d="M 324.214361 196.19362 
Q 326.367784 201.897872 328.126337 206.556143 
" clip-path="url(#pb5f62eacb6)" style="fill: none; stroke: #000000; stroke-linecap: round"/>
    <path d="M 328.584714 202.10756 
L 328.126337 206.556143 
L 324.842497 203.520291 
L 328.584714 202.10756 
z
" clip-path="url(#pb5f62eacb6)" style="stroke: #000000; stroke-linecap: round"/>
   </g>
   <g id="patch_71">
    <path d="M 67.557675 185.880942 
Q 62.215133 188.754095 57.857264 191.097703 
" clip-path="url(#pb5f62eacb6)" style="fill: none; stroke: #000000; stroke-linecap: round"/>
    <path d="M 62.327418 190.964582 
L 57.857264 191.097703 
L 60.43286 187.441707 
L 62.327418 190.964582 
z
" clip-path="url(#pb5f62eacb6)" style="stroke: #000000; stroke-linecap: round"/>
   </g>
   <g id="patch_72">
    <path d="M 70.871282 183.887001 
Q 77.818847 179.236609 83.837307 175.208119 
" clip-path="url(#pb5f62eacb6)" style="fill: none; stroke: #000000; stroke-linecap: round"/>
    <path d="M 79.400745 175.771069 
L 83.837307 175.208119 
L 81.62573 179.095139 
L 79.400745 175.771069 
z
" clip-path="url(#pb5f62eacb6)" style="stroke: #000000; stroke-linecap: round"/>
   </g>
   <g id="patch_73">
    <path d="M 397.682169 318.033838 
Q 383.942303 314.972737 371.293716 312.154762 
" clip-path="url(#pb5f62eacb6)" style="fill: none; stroke: #000000; stroke-linecap: round"/>
    <path d="M 374.763078 314.976735 
L 371.293716 312.154762 
L 375.632911 311.072456 
L 374.763078 314.976735 
z
" clip-path="url(#pb5f62eacb6)" style="stroke: #000000; stroke-linecap: round"/>
   </g>
   <g id="patch_74">
    <path d="M 401.435323 317.93434 
Q 410.189914 315.491231 417.867617 313.348646 
" clip-path="url(#pb5f62eacb6)" style="fill: none; stroke: #000000; stroke-linecap: round"/>
    <path d="M 413.477237 312.497433 
L 417.867617 313.348646 
L 414.55242 316.350222 
L 413.477237 312.497433 
z
" clip-path="url(#pb5f62eacb6)" style="stroke: #000000; stroke-linecap: round"/>
   </g>
   <g id="patch_75">
    <path d="M 418.948817 313.04692 
Q 410.194226 315.490028 402.516522 317.632614 
" clip-path="url(#pb5f62eacb6)" style="fill: none; stroke: #000000; stroke-linecap: round"/>
    <path d="M 406.906902 318.483826 
L 402.516522 317.632614 
L 405.83172 314.631037 
L 406.906902 318.483826 
z
" clip-path="url(#pb5f62eacb6)" style="stroke: #000000; stroke-linecap: round"/>
   </g>
   <g id="patch_76">
    <path d="M 141.364504 90.94213 
Q 134.496228 96.470645 128.498889 101.298113 
" clip-path="url(#pb5f62eacb6)" style="fill: none; stroke: #000000; stroke-linecap: round"/>
    <path d="M 132.868921 100.347948 
L 128.498889 101.298113 
L 130.360776 97.231988 
L 132.868921 100.347948 
z
" clip-path="url(#pb5f62eacb6)" style="stroke: #000000; stroke-linecap: round"/>
   </g>
   <g id="patch_77">
    <path d="M 41.088651 215.729785 
Q 46.774231 223.952839 51.823968 231.256273 
" clip-path="url(#pb5f62eacb6)" style="fill: none; stroke: #000000; stroke-linecap: round"/>
    <path d="M 51.194172 226.828705 
L 51.823968 231.256273 
L 47.904036 229.103569 
L 51.194172 226.828705 
z
" clip-path="url(#pb5f62eacb6)" style="stroke: #000000; stroke-linecap: round"/>
   </g>
   <g id="patch_78">
    <path d="M 41.100673 212.551976 
Q 47.577967 203.340056 53.412182 195.042714 
" clip-path="url(#pb5f62eacb6)" style="fill: none; stroke: #000000; stroke-linecap: round"/>
    <path d="M 49.475391 197.16443 
L 53.412182 195.042714 
L 52.747481 199.465176 
L 49.475391 197.16443 
z
" clip-path="url(#pb5f62eacb6)" style="stroke: #000000; stroke-linecap: round"/>
   </g>
   <g id="patch_79">
    <path d="M 52.458667 232.174239 
Q 46.773087 223.951184 41.72335 216.64775 
" clip-path="url(#pb5f62eacb6)" style="fill: none; stroke: #000000; stroke-linecap: round"/>
    <path d="M 42.353146 221.075318 
L 41.72335 216.64775 
L 45.643282 218.800454 
L 42.353146 221.075318 
z
" clip-path="url(#pb5f62eacb6)" style="stroke: #000000; stroke-linecap: round"/>
   </g>
   <g id="patch_80">
    <path d="M 55.42706 234.275712 
Q 72.343386 238.878216 88.180895 243.187201 
" clip-path="url(#pb5f62eacb6)" style="fill: none; stroke: #000000; stroke-linecap: round"/>
    <path d="M 84.846263 240.207229 
L 88.180895 243.187201 
L 83.796138 244.066923 
L 84.846263 240.207229 
z
" clip-path="url(#pb5f62eacb6)" style="stroke: #000000; stroke-linecap: round"/>
   </g>
   <g id="patch_81">
    <path d="M 93.064358 244.02888 
Q 109.099558 244.355981 124.016956 244.66028 
" clip-path="url(#pb5f62eacb6)" style="fill: none; stroke: #000000; stroke-linecap: round"/>
    <path d="M 120.058578 242.579117 
L 124.016956 244.66028 
L 119.976999 246.578285 
L 120.058578 242.579117 
z
" clip-path="url(#pb5f62eacb6)" style="stroke: #000000; stroke-linecap: round"/>
   </g>
   <g id="patch_82">
    <path d="M 93.064358 244.02888 
Q 109.099558 244.355981 124.016956 244.66028 
" clip-path="url(#pb5f62eacb6)" style="fill: none; stroke: #000000; stroke-linecap: round"/>
    <path d="M 120.058578 242.579117 
L 124.016956 244.66028 
L 119.976999 246.578285 
L 120.058578 242.579117 
z
" clip-path="url(#pb5f62eacb6)" style="stroke: #000000; stroke-linecap: round"/>
   </g>
   <g id="patch_83">
    <path d="M 89.262859 243.481576 
Q 72.346532 238.879072 56.509024 234.570087 
" clip-path="url(#pb5f62eacb6)" style="fill: none; stroke: #000000; stroke-linecap: round"/>
    <path d="M 59.843655 237.550059 
L 56.509024 234.570087 
L 60.89378 233.690365 
L 59.843655 237.550059 
z
" clip-path="url(#pb5f62eacb6)" style="stroke: #000000; stroke-linecap: round"/>
   </g>
   <g id="patch_84">
    <path d="M 56.872723 191.627178 
Q 62.215265 188.754025 66.573133 186.410417 
" clip-path="url(#pb5f62eacb6)" style="fill: none; stroke: #000000; stroke-linecap: round"/>
    <path d="M 62.102979 186.543538 
L 66.573133 186.410417 
L 63.997537 190.066413 
L 62.102979 186.543538 
z
" clip-path="url(#pb5f62eacb6)" style="stroke: #000000; stroke-linecap: round"/>
   </g>
   <g id="patch_85">
    <path d="M 54.055976 194.127118 
Q 47.578683 203.339037 41.744468 211.63638 
" clip-path="url(#pb5f62eacb6)" style="fill: none; stroke: #000000; stroke-linecap: round"/>
    <path d="M 45.681258 209.514663 
L 41.744468 211.63638 
L 42.409169 207.213917 
L 45.681258 209.514663 
z
" clip-path="url(#pb5f62eacb6)" style="stroke: #000000; stroke-linecap: round"/>
   </g>
   <g id="patch_86">
    <path d="M 56.826888 191.532259 
Q 70.773189 183.025763 83.764998 175.101456 
" clip-path="url(#pb5f62eacb6)" style="fill: none; stroke: #000000; stroke-linecap: round"/>
    <path d="M 79.30865 175.476911 
L 83.764998 175.101456 
L 81.391554 178.891807 
L 79.30865 175.476911 
z
" clip-path="url(#pb5f62eacb6)" style="stroke: #000000; stroke-linecap: round"/>
   </g>
   <g id="patch_87">
    <path d="M 129.431717 168.283197 
Q 123.308312 170.456956 118.238523 172.256689 
" clip-path="url(#pb5f62eacb6)" style="fill: none; stroke: #000000; stroke-linecap: round"/>
    <path d="M 122.677128 172.803302 
L 118.238523 172.256689 
L 121.338976 169.033773 
L 122.677128 172.803302 
z
" clip-path="url(#pb5f62eacb6)" style="stroke: #000000; stroke-linecap: round"/>
   </g>
   <g id="patch_88">
    <path d="M 129.431717 168.283197 
Q 123.308312 170.456956 118.238523 172.256689 
" clip-path="url(#pb5f62eacb6)" style="fill: none; stroke: #000000; stroke-linecap: round"/>
    <path d="M 122.677128 172.803302 
L 118.238523 172.256689 
L 121.338976 169.033773 
L 122.677128 172.803302 
z
" clip-path="url(#pb5f62eacb6)" style="stroke: #000000; stroke-linecap: round"/>
   </g>
   <g id="patch_89">
    <path d="M 117.189021 172.629254 
Q 123.312426 170.455495 128.382215 168.655761 
" clip-path="url(#pb5f62eacb6)" style="fill: none; stroke: #000000; stroke-linecap: round"/>
    <path d="M 123.94361 168.109149 
L 128.382215 168.655761 
L 125.281762 171.878678 
L 123.94361 168.109149 
z
" clip-path="url(#pb5f62eacb6)" style="stroke: #000000; stroke-linecap: round"/>
   </g>
   <g id="patch_90">
    <path d="M 117.189021 172.629254 
Q 123.312426 170.455495 128.382215 168.655761 
" clip-path="url(#pb5f62eacb6)" style="fill: none; stroke: #000000; stroke-linecap: round"/>
    <path d="M 123.94361 168.109149 
L 128.382215 168.655761 
L 125.281762 171.878678 
L 123.94361 168.109149 
z
" clip-path="url(#pb5f62eacb6)" style="stroke: #000000; stroke-linecap: round"/>
   </g>
   <g id="patch_91">
    <path d="M 113.425323 173.293705 
Q 100.869349 173.393845 89.431374 173.485068 
" clip-path="url(#pb5f62eacb6)" style="fill: none; stroke: #000000; stroke-linecap: round"/>
    <path d="M 93.447198 175.453104 
L 89.431374 173.485068 
L 93.415297 171.453231 
L 93.447198 175.453104 
z
" clip-path="url(#pb5f62eacb6)" style="stroke: #000000; stroke-linecap: round"/>
   </g>
   <g id="patch_92">
    <path d="M 113.425323 173.293705 
Q 100.869349 173.393845 89.431374 173.485068 
" clip-path="url(#pb5f62eacb6)" style="fill: none; stroke: #000000; stroke-linecap: round"/>
    <path d="M 93.447198 175.453104 
L 89.431374 173.485068 
L 93.415297 171.453231 
L 93.447198 175.453104 
z
" clip-path="url(#pb5f62eacb6)" style="stroke: #000000; stroke-linecap: round"/>
   </g>
   <g id="patch_93">
    <path d="M 84.764326 174.587613 
Q 77.816761 179.238006 71.798301 183.266496 
" clip-path="url(#pb5f62eacb6)" style="fill: none; stroke: #000000; stroke-linecap: round"/>
    <path d="M 76.234864 182.703546 
L 71.798301 183.266496 
L 74.009879 179.379476 
L 76.234864 182.703546 
z
" clip-path="url(#pb5f62eacb6)" style="stroke: #000000; stroke-linecap: round"/>
   </g>
   <g id="patch_94">
    <path d="M 84.718069 174.520134 
Q 70.771768 183.02663 57.779959 190.950937 
" clip-path="url(#pb5f62eacb6)" style="fill: none; stroke: #000000; stroke-linecap: round"/>
    <path d="M 62.236306 190.575481 
L 57.779959 190.950937 
L 60.153403 187.160585 
L 62.236306 190.575481 
z
" clip-path="url(#pb5f62eacb6)" style="stroke: #000000; stroke-linecap: round"/>
   </g>
   <g id="patch_95">
    <path d="M 88.310529 173.494007 
Q 100.866503 173.393868 112.304478 173.302644 
" clip-path="url(#pb5f62eacb6)" style="fill: none; stroke: #000000; stroke-linecap: round"/>
    <path d="M 108.288654 171.334609 
L 112.304478 173.302644 
L 108.320555 175.334482 
L 108.288654 171.334609 
z
" clip-path="url(#pb5f62eacb6)" style="stroke: #000000; stroke-linecap: round"/>
   </g>
   <g id="patch_96">
    <path d="M 88.310529 173.494007 
Q 100.866503 173.393868 112.304478 173.302644 
" clip-path="url(#pb5f62eacb6)" style="fill: none; stroke: #000000; stroke-linecap: round"/>
    <path d="M 108.288654 171.334609 
L 112.304478 173.302644 
L 108.320555 175.334482 
L 108.288654 171.334609 
z
" clip-path="url(#pb5f62eacb6)" style="stroke: #000000; stroke-linecap: round"/>
   </g>
   <g id="patch_97">
    <path d="M 86.629452 171.591309 
Q 88.149888 160.126034 89.523346 149.769089 
" clip-path="url(#pb5f62eacb6)" style="fill: none; stroke: #000000; stroke-linecap: round"/>
    <path d="M 87.014858 153.471452 
L 89.523346 149.769089 
L 90.980143 153.997297 
L 87.014858 153.471452 
z
" clip-path="url(#pb5f62eacb6)" style="stroke: #000000; stroke-linecap: round"/>
   </g>
   <g id="patch_98">
    <path d="M 179.498249 205.164226 
Q 188.948494 207.358681 197.309682 209.300245 
" clip-path="url(#pb5f62eacb6)" style="fill: none; stroke: #000000; stroke-linecap: round"/>
    <path d="M 193.865738 206.447308 
L 197.309682 209.300245 
L 192.960966 210.343638 
L 193.865738 206.447308 
z
" clip-path="url(#pb5f62eacb6)" style="stroke: #000000; stroke-linecap: round"/>
   </g>
   <g id="patch_99">
    <path d="M 178.714885 203.131572 
Q 185.770262 192.912351 192.190429 183.613189 
" clip-path="url(#pb5f62eacb6)" style="fill: none; stroke: #000000; stroke-linecap: round"/>
    <path d="M 188.27198 185.76859 
L 192.190429 183.613189 
L 191.56368 188.041189 
L 188.27198 185.76859 
z
" clip-path="url(#pb5f62eacb6)" style="stroke: #000000; stroke-linecap: round"/>
   </g>
   <g id="patch_100">
    <path d="M 176.456249 206.283029 
Q 169.59025 215.51598 163.391414 223.851774 
" clip-path="url(#pb5f62eacb6)" style="fill: none; stroke: #000000; stroke-linecap: round"/>
    <path d="M 167.383216 221.835461 
L 163.391414 223.851774 
L 164.173446 219.448545 
L 167.383216 221.835461 
z
" clip-path="url(#pb5f62eacb6)" style="stroke: #000000; stroke-linecap: round"/>
   </g>
   <g id="patch_101">
    <path d="M 163.35436 225.549011 
Q 180.928832 218.145048 197.472972 211.175155 
" clip-path="url(#pb5f62eacb6)" style="fill: none; stroke: #000000; stroke-linecap: round"/>
    <path d="M 193.010258 210.885014 
L 197.472972 211.175155 
L 194.563231 214.571242 
L 193.010258 210.885014 
z
" clip-path="url(#pb5f62eacb6)" style="stroke: #000000; stroke-linecap: round"/>
   </g>
   <g id="patch_102">
    <path d="M 159.864905 227.211344 
Q 144.323818 235.510608 129.76895 243.28321 
" clip-path="url(#pb5f62eacb6)" style="fill: none; stroke: #000000; stroke-linecap: round"/>
    <path d="M 134.239475 243.163171 
L 129.76895 243.28321 
L 132.355234 239.634767 
L 134.239475 243.163171 
z
" clip-path="url(#pb5f62eacb6)" style="stroke: #000000; stroke-linecap: round"/>
   </g>
   <g id="patch_103">
    <path d="M 160.850842 228.102594 
Q 157.839592 235.643979 155.242939 242.147044 
" clip-path="url(#pb5f62eacb6)" style="fill: none; stroke: #000000; stroke-linecap: round"/>
    <path d="M 158.583653 239.173892 
L 155.242939 242.147044 
L 154.868846 237.690582 
L 158.583653 239.173892 
z
" clip-path="url(#pb5f62eacb6)" style="stroke: #000000; stroke-linecap: round"/>
   </g>
   <g id="patch_104">
    <path d="M 162.727798 224.744162 
Q 169.593797 215.511211 175.792633 207.175417 
" clip-path="url(#pb5f62eacb6)" style="fill: none; stroke: #000000; stroke-linecap: round"/>
    <path d="M 171.800831 209.19173 
L 175.792633 207.175417 
L 175.010602 211.578647 
L 171.800831 209.19173 
z
" clip-path="url(#pb5f62eacb6)" style="stroke: #000000; stroke-linecap: round"/>
   </g>
   <g id="patch_105">
    <path d="M 72.808677 155.321353 
Q 80.499727 151.465637 87.191307 148.11098 
" clip-path="url(#pb5f62eacb6)" style="fill: none; stroke: #000000; stroke-linecap: round"/>
    <path d="M 82.719173 148.115718 
L 87.191307 148.11098 
L 84.511817 151.69153 
L 82.719173 148.115718 
z
" clip-path="url(#pb5f62eacb6)" style="stroke: #000000; stroke-linecap: round"/>
   </g>
   <g id="patch_106">
    <path d="M 150.037902 125.795581 
Q 133.600509 124.776728 118.279009 123.827043 
" clip-path="url(#pb5f62eacb6)" style="fill: none; stroke: #000000; stroke-linecap: round"/>
    <path d="M 122.147617 126.070672 
L 118.279009 123.827043 
L 122.395077 122.078334 
L 122.147617 126.070672 
z
" clip-path="url(#pb5f62eacb6)" style="stroke: #000000; stroke-linecap: round"/>
   </g>
   <g id="patch_107">
    <path d="M 153.781219 126.598436 
Q 169.41629 132.497706 184.005309 138.00229 
" clip-path="url(#pb5f62eacb6)" style="fill: none; stroke: #000000; stroke-linecap: round"/>
    <path d="M 180.968878 134.718986 
L 184.005309 138.00229 
L 179.556807 138.461453 
L 180.968878 134.718986 
z
" clip-path="url(#pb5f62eacb6)" style="stroke: #000000; stroke-linecap: round"/>
   </g>
   <g id="patch_108">
    <path d="M 117.162841 123.757858 
Q 133.600234 124.776711 148.921734 125.726397 
" clip-path="url(#pb5f62eacb6)" style="fill: none; stroke: #000000; stroke-linecap: round"/>
    <path d="M 145.053126 123.482767 
L 148.921734 125.726397 
L 144.805666 127.475106 
L 145.053126 123.482767 
z
" clip-path="url(#pb5f62eacb6)" style="stroke: #000000; stroke-linecap: round"/>
   </g>
   <g id="patch_109">
    <path d="M 116.140481 121.930088 
Q 120.675555 113.424648 124.6846 105.905765 
" clip-path="url(#pb5f62eacb6)" style="fill: none; stroke: #000000; stroke-linecap: round"/>
    <path d="M 121.037816 108.494388 
L 124.6846 105.905765 
L 124.567428 110.376366 
L 121.037816 108.494388 
z
" clip-path="url(#pb5f62eacb6)" style="stroke: #000000; stroke-linecap: round"/>
   </g>
   <g id="patch_110">
    <path d="M 113.799613 124.94376 
Q 102.577773 135.188932 92.181617 144.680282 
" clip-path="url(#pb5f62eacb6)" style="fill: none; stroke: #000000; stroke-linecap: round"/>
    <path d="M 96.484149 143.460354 
L 92.181617 144.680282 
L 93.787194 140.5063 
L 96.484149 143.460354 
z
" clip-path="url(#pb5f62eacb6)" style="stroke: #000000; stroke-linecap: round"/>
   </g>
   <g id="patch_111">
    <path d="M 127.62769 101.999371 
Q 134.495967 96.470856 140.493306 91.643388 
" clip-path="url(#pb5f62eacb6)" style="fill: none; stroke: #000000; stroke-linecap: round"/>
    <path d="M 136.123273 92.593553 
L 140.493306 91.643388 
L 138.631418 95.709513 
L 136.123273 92.593553 
z
" clip-path="url(#pb5f62eacb6)" style="stroke: #000000; stroke-linecap: round"/>
   </g>
   <g id="patch_112">
    <path d="M 125.210014 104.920362 
Q 120.67494 113.425802 116.665895 120.944685 
" clip-path="url(#pb5f62eacb6)" style="fill: none; stroke: #000000; stroke-linecap: round"/>
    <path d="M 120.312679 118.356062 
L 116.665895 120.944685 
L 116.783067 116.474084 
L 120.312679 118.356062 
z
" clip-path="url(#pb5f62eacb6)" style="stroke: #000000; stroke-linecap: round"/>
   </g>
   <g id="patch_113">
    <path d="M 89.670603 148.65866 
Q 88.150167 160.123935 86.776708 170.48088 
" clip-path="url(#pb5f62eacb6)" style="fill: none; stroke: #000000; stroke-linecap: round"/>
    <path d="M 89.285197 166.778518 
L 86.776708 170.48088 
L 85.319911 166.252672 
L 89.285197 166.778518 
z
" clip-path="url(#pb5f62eacb6)" style="stroke: #000000; stroke-linecap: round"/>
   </g>
   <g id="patch_114">
    <path d="M 88.192404 147.609105 
Q 80.501354 151.464821 73.809775 154.819478 
" clip-path="url(#pb5f62eacb6)" style="fill: none; stroke: #000000; stroke-linecap: round"/>
    <path d="M 78.281908 154.81474 
L 73.809775 154.819478 
L 76.489264 151.238928 
L 78.281908 154.81474 
z
" clip-path="url(#pb5f62eacb6)" style="stroke: #000000; stroke-linecap: round"/>
   </g>
   <g id="patch_115">
    <path d="M 91.355164 145.434807 
Q 102.577003 135.189635 112.973159 125.698285 
" clip-path="url(#pb5f62eacb6)" style="fill: none; stroke: #000000; stroke-linecap: round"/>
    <path d="M 108.670628 126.918213 
L 112.973159 125.698285 
L 111.367582 129.872267 
L 108.670628 126.918213 
z
" clip-path="url(#pb5f62eacb6)" style="stroke: #000000; stroke-linecap: round"/>
   </g>
   <g id="patch_116">
    <path d="M 185.054368 138.39811 
Q 169.419297 132.49884 154.830278 126.994256 
" clip-path="url(#pb5f62eacb6)" style="fill: none; stroke: #000000; stroke-linecap: round"/>
    <path d="M 157.866709 130.27756 
L 154.830278 126.994256 
L 159.278779 126.535093 
L 157.866709 130.27756 
z
" clip-path="url(#pb5f62eacb6)" style="stroke: #000000; stroke-linecap: round"/>
   </g>
   <g id="patch_117">
    <path d="M 188.439838 140.20455 
Q 201.697445 149.659692 214.044798 158.465653 
" clip-path="url(#pb5f62eacb6)" style="fill: none; stroke: #000000; stroke-linecap: round"/>
    <path d="M 211.949462 154.514759 
L 214.044798 158.465653 
L 209.626881 157.771385 
L 211.949462 154.514759 
z
" clip-path="url(#pb5f62eacb6)" style="stroke: #000000; stroke-linecap: round"/>
   </g>
   <g id="patch_118">
    <path d="M 218.210217 159.278128 
Q 228.760435 153.259556 238.339527 147.794981 
" clip-path="url(#pb5f62eacb6)" style="fill: none; stroke: #000000; stroke-linecap: round"/>
    <path d="M 233.874098 148.039819 
L 238.339527 147.794981 
L 235.85614 151.514227 
L 233.874098 148.039819 
z
" clip-path="url(#pb5f62eacb6)" style="stroke: #000000; stroke-linecap: round"/>
   </g>
   <g id="patch_119">
    <path d="M 218.240218 161.147004 
Q 234.09768 169.57673 248.967928 177.48166 
" clip-path="url(#pb5f62eacb6)" style="fill: none; stroke: #000000; stroke-linecap: round"/>
    <path d="M 246.374752 173.838113 
L 248.967928 177.48166 
L 244.497185 177.370073 
L 246.374752 173.838113 
z
" clip-path="url(#pb5f62eacb6)" style="stroke: #000000; stroke-linecap: round"/>
   </g>
   <g id="patch_120">
    <path d="M 214.953702 159.113871 
Q 201.696094 149.658729 189.348741 140.852768 
" clip-path="url(#pb5f62eacb6)" style="fill: none; stroke: #000000; stroke-linecap: round"/>
    <path d="M 191.444078 144.803662 
L 189.348741 140.852768 
L 193.766659 141.547035 
L 191.444078 144.803662 
z
" clip-path="url(#pb5f62eacb6)" style="stroke: #000000; stroke-linecap: round"/>
   </g>
   <g id="patch_121">
    <path d="M 215.107982 161.54872 
Q 205.22972 170.665996 196.173039 179.024983 
" clip-path="url(#pb5f62eacb6)" style="fill: none; stroke: #000000; stroke-linecap: round"/>
    <path d="M 200.468889 177.781733 
L 196.173039 179.024983 
L 197.755948 174.842353 
L 200.468889 177.781733 
z
" clip-path="url(#pb5f62eacb6)" style="stroke: #000000; stroke-linecap: round"/>
   </g>
   <g id="patch_122">
    <path d="M 192.825579 182.693219 
Q 185.770202 192.912439 179.350035 202.211601 
" clip-path="url(#pb5f62eacb6)" style="fill: none; stroke: #000000; stroke-linecap: round"/>
    <path d="M 183.268485 200.0562 
L 179.350035 202.211601 
L 179.976784 197.783601 
L 183.268485 200.0562 
z
" clip-path="url(#pb5f62eacb6)" style="stroke: #000000; stroke-linecap: round"/>
   </g>
   <g id="patch_123">
    <path d="M 195.347703 179.786738 
Q 205.225965 170.669462 214.282646 162.310475 
" clip-path="url(#pb5f62eacb6)" style="fill: none; stroke: #000000; stroke-linecap: round"/>
    <path d="M 209.986796 163.553725 
L 214.282646 162.310475 
L 212.699737 166.493105 
L 209.986796 163.553725 
z
" clip-path="url(#pb5f62eacb6)" style="stroke: #000000; stroke-linecap: round"/>
   </g>
   <g id="PathCollection_1">
    <defs>
     <path id="mfc3f704610" d="M 0 1.936492 
C 0.513564 1.936492 1.006162 1.732451 1.369306 1.369306 
C 1.732451 1.006162 1.936492 0.513564 1.936492 0 
C 1.936492 -0.513564 1.732451 -1.006162 1.369306 -1.369306 
C 1.006162 -1.732451 0.513564 -1.936492 0 -1.936492 
C -0.513564 -1.936492 -1.006162 -1.732451 -1.369306 -1.369306 
C -1.732451 -1.006162 -1.936492 -0.513564 -1.936492 0 
C -1.936492 0.513564 -1.732451 1.006162 -1.369306 1.369306 
C -1.006162 1.732451 -0.513564 1.936492 0 1.936492 
z
" style="stroke: #1f78b4"/>
    </defs>
    <g clip-path="url(#pb5f62eacb6)">
     <use xlink:href="#mfc3f704610" x="246.782323" y="195.161402" style="fill: #1f78b4; stroke: #1f78b4"/>
     <use xlink:href="#mfc3f704610" x="264.582244" y="151.418901" style="fill: #1f78b4; stroke: #1f78b4"/>
     <use xlink:href="#mfc3f704610" x="200.283967" y="209.990908" style="fill: #1f78b4; stroke: #1f78b4"/>
     <use xlink:href="#mfc3f704610" x="260.900546" y="170.862767" style="fill: #1f78b4; stroke: #1f78b4"/>
     <use xlink:href="#mfc3f704610" x="288.94829" y="191.512107" style="fill: #1f78b4; stroke: #1f78b4"/>
     <use xlink:href="#mfc3f704610" x="283.747164" y="211.434333" style="fill: #1f78b4; stroke: #1f78b4"/>
     <use xlink:href="#mfc3f704610" x="240.993237" y="146.281121" style="fill: #1f78b4; stroke: #1f78b4"/>
     <use xlink:href="#mfc3f704610" x="251.66472" y="178.915258" style="fill: #1f78b4; stroke: #1f78b4"/>
     <use xlink:href="#mfc3f704610" x="170.21231" y="256.329311" style="fill: #1f78b4; stroke: #1f78b4"/>
     <use xlink:href="#mfc3f704610" x="127.073512" y="244.72263" style="fill: #1f78b4; stroke: #1f78b4"/>
     <use xlink:href="#mfc3f704610" x="222.755617" y="262.805175" style="fill: #1f78b4; stroke: #1f78b4"/>
     <use xlink:href="#mfc3f704610" x="264.946403" y="239.150554" style="fill: #1f78b4; stroke: #1f78b4"/>
     <use xlink:href="#mfc3f704610" x="368.313094" y="311.49071" style="fill: #1f78b4; stroke: #1f78b4"/>
     <use xlink:href="#mfc3f704610" x="333.078268" y="298.581574" style="fill: #1f78b4; stroke: #1f78b4"/>
     <use xlink:href="#mfc3f704610" x="324.438834" y="281.169243" style="fill: #1f78b4; stroke: #1f78b4"/>
     <use xlink:href="#mfc3f704610" x="303.446369" y="281.591957" style="fill: #1f78b4; stroke: #1f78b4"/>
     <use xlink:href="#mfc3f704610" x="294.637547" y="294.614212" style="fill: #1f78b4; stroke: #1f78b4"/>
     <use xlink:href="#mfc3f704610" x="256.620612" y="293.730819" style="fill: #1f78b4; stroke: #1f78b4"/>
     <use xlink:href="#mfc3f704610" x="228.047707" y="285.121839" style="fill: #1f78b4; stroke: #1f78b4"/>
     <use xlink:href="#mfc3f704610" x="238.721804" y="281.079903" style="fill: #1f78b4; stroke: #1f78b4"/>
     <use xlink:href="#mfc3f704610" x="331.502256" y="226.178863" style="fill: #1f78b4; stroke: #1f78b4"/>
     <use xlink:href="#mfc3f704610" x="303.419771" y="236.325924" style="fill: #1f78b4; stroke: #1f78b4"/>
     <use xlink:href="#mfc3f704610" x="329.204699" y="209.412639" style="fill: #1f78b4; stroke: #1f78b4"/>
     <use xlink:href="#mfc3f704610" x="365.496362" y="206.192188" style="fill: #1f78b4; stroke: #1f78b4"/>
     <use xlink:href="#mfc3f704610" x="154.109065" y="244.986723" style="fill: #1f78b4; stroke: #1f78b4"/>
     <use xlink:href="#mfc3f704610" x="323.531531" y="194.384856" style="fill: #1f78b4; stroke: #1f78b4"/>
     <use xlink:href="#mfc3f704610" x="227.992541" y="15.709091" style="fill: #1f78b4; stroke: #1f78b4"/>
     <use xlink:href="#mfc3f704610" x="69.260524" y="184.965171" style="fill: #1f78b4; stroke: #1f78b4"/>
     <use xlink:href="#mfc3f704610" x="399.570916" y="318.454632" style="fill: #1f78b4; stroke: #1f78b4"/>
     <use xlink:href="#mfc3f704610" x="420.813223" y="312.526627" style="fill: #1f78b4; stroke: #1f78b4"/>
     <use xlink:href="#mfc3f704610" x="142.871505" y="89.729093" style="fill: #1f78b4; stroke: #1f78b4"/>
     <use xlink:href="#mfc3f704610" x="39.986777" y="214.136144" style="fill: #1f78b4; stroke: #1f78b4"/>
     <use xlink:href="#mfc3f704610" x="53.560541" y="233.767879" style="fill: #1f78b4; stroke: #1f78b4"/>
     <use xlink:href="#mfc3f704610" x="91.129377" y="243.989408" style="fill: #1f78b4; stroke: #1f78b4"/>
     <use xlink:href="#mfc3f704610" x="55.169873" y="192.542949" style="fill: #1f78b4; stroke: #1f78b4"/>
     <use xlink:href="#mfc3f704610" x="131.25997" y="167.634182" style="fill: #1f78b4; stroke: #1f78b4"/>
     <use xlink:href="#mfc3f704610" x="115.360768" y="173.278269" style="fill: #1f78b4; stroke: #1f78b4"/>
     <use xlink:href="#mfc3f704610" x="86.375084" y="173.509444" style="fill: #1f78b4; stroke: #1f78b4"/>
     <use xlink:href="#mfc3f704610" x="177.613669" y="204.726605" style="fill: #1f78b4; stroke: #1f78b4"/>
     <use xlink:href="#mfc3f704610" x="161.570378" y="226.300586" style="fill: #1f78b4; stroke: #1f78b4"/>
     <use xlink:href="#mfc3f704610" x="71.07611" y="156.189932" style="fill: #1f78b4; stroke: #1f78b4"/>
     <use xlink:href="#mfc3f704610" x="151.970938" y="125.915398" style="fill: #1f78b4; stroke: #1f78b4"/>
     <use xlink:href="#mfc3f704610" x="115.229805" y="123.638041" style="fill: #1f78b4; stroke: #1f78b4"/>
     <use xlink:href="#mfc3f704610" x="126.120689" y="103.212408" style="fill: #1f78b4; stroke: #1f78b4"/>
     <use xlink:href="#mfc3f704610" x="89.924971" y="146.740526" style="fill: #1f78b4; stroke: #1f78b4"/>
     <use xlink:href="#mfc3f704610" x="186.864649" y="139.081148" style="fill: #1f78b4; stroke: #1f78b4"/>
     <use xlink:href="#mfc3f704610" x="216.52889" y="160.237273" style="fill: #1f78b4; stroke: #1f78b4"/>
     <use xlink:href="#mfc3f704610" x="193.926795" y="181.098185" style="fill: #1f78b4; stroke: #1f78b4"/>
    </g>
   </g>
   <g id="text_1">
    <g clip-path="url(#pb5f62eacb6)">
     <!-- 0 -->
     <g transform="translate(243.601073 197.920777) scale(0.1 -0.1)">
      <defs>
       <path id="DejaVuSans-30" d="M 2034 4250 
Q 1547 4250 1301 3770 
Q 1056 3291 1056 2328 
Q 1056 1369 1301 889 
Q 1547 409 2034 409 
Q 2525 409 2770 889 
Q 3016 1369 3016 2328 
Q 3016 3291 2770 3770 
Q 2525 4250 2034 4250 
z
M 2034 4750 
Q 2819 4750 3233 4129 
Q 3647 3509 3647 2328 
Q 3647 1150 3233 529 
Q 2819 -91 2034 -91 
Q 1250 -91 836 529 
Q 422 1150 422 2328 
Q 422 3509 836 4129 
Q 1250 4750 2034 4750 
z
" transform="scale(0.015625)"/>
      </defs>
      <use xlink:href="#DejaVuSans-30"/>
     </g>
    </g>
   </g>
   <g id="text_2">
    <g clip-path="url(#pb5f62eacb6)">
     <!-- 1 -->
     <g transform="translate(261.400994 154.178276) scale(0.1 -0.1)">
      <defs>
       <path id="DejaVuSans-31" d="M 794 531 
L 1825 531 
L 1825 4091 
L 703 3866 
L 703 4441 
L 1819 4666 
L 2450 4666 
L 2450 531 
L 3481 531 
L 3481 0 
L 794 0 
L 794 531 
z
" transform="scale(0.015625)"/>
      </defs>
      <use xlink:href="#DejaVuSans-31"/>
     </g>
    </g>
   </g>
   <g id="text_3">
    <g clip-path="url(#pb5f62eacb6)">
     <!-- 2 -->
     <g transform="translate(197.102717 212.750283) scale(0.1 -0.1)">
      <defs>
       <path id="DejaVuSans-32" d="M 1228 531 
L 3431 531 
L 3431 0 
L 469 0 
L 469 531 
Q 828 903 1448 1529 
Q 2069 2156 2228 2338 
Q 2531 2678 2651 2914 
Q 2772 3150 2772 3378 
Q 2772 3750 2511 3984 
Q 2250 4219 1831 4219 
Q 1534 4219 1204 4116 
Q 875 4013 500 3803 
L 500 4441 
Q 881 4594 1212 4672 
Q 1544 4750 1819 4750 
Q 2544 4750 2975 4387 
Q 3406 4025 3406 3419 
Q 3406 3131 3298 2873 
Q 3191 2616 2906 2266 
Q 2828 2175 2409 1742 
Q 1991 1309 1228 531 
z
" transform="scale(0.015625)"/>
      </defs>
      <use xlink:href="#DejaVuSans-32"/>
     </g>
    </g>
   </g>
   <g id="text_4">
    <g clip-path="url(#pb5f62eacb6)">
     <!-- 3 -->
     <g transform="translate(257.719296 173.622142) scale(0.1 -0.1)">
      <defs>
       <path id="DejaVuSans-33" d="M 2597 2516 
Q 3050 2419 3304 2112 
Q 3559 1806 3559 1356 
Q 3559 666 3084 287 
Q 2609 -91 1734 -91 
Q 1441 -91 1130 -33 
Q 819 25 488 141 
L 488 750 
Q 750 597 1062 519 
Q 1375 441 1716 441 
Q 2309 441 2620 675 
Q 2931 909 2931 1356 
Q 2931 1769 2642 2001 
Q 2353 2234 1838 2234 
L 1294 2234 
L 1294 2753 
L 1863 2753 
Q 2328 2753 2575 2939 
Q 2822 3125 2822 3475 
Q 2822 3834 2567 4026 
Q 2313 4219 1838 4219 
Q 1578 4219 1281 4162 
Q 984 4106 628 3988 
L 628 4550 
Q 988 4650 1302 4700 
Q 1616 4750 1894 4750 
Q 2613 4750 3031 4423 
Q 3450 4097 3450 3541 
Q 3450 3153 3228 2886 
Q 3006 2619 2597 2516 
z
" transform="scale(0.015625)"/>
      </defs>
      <use xlink:href="#DejaVuSans-33"/>
     </g>
    </g>
   </g>
   <g id="text_5">
    <g clip-path="url(#pb5f62eacb6)">
     <!-- 4 -->
     <g transform="translate(285.76704 194.271482) scale(0.1 -0.1)">
      <defs>
       <path id="DejaVuSans-34" d="M 2419 4116 
L 825 1625 
L 2419 1625 
L 2419 4116 
z
M 2253 4666 
L 3047 4666 
L 3047 1625 
L 3713 1625 
L 3713 1100 
L 3047 1100 
L 3047 0 
L 2419 0 
L 2419 1100 
L 313 1100 
L 313 1709 
L 2253 4666 
z
" transform="scale(0.015625)"/>
      </defs>
      <use xlink:href="#DejaVuSans-34"/>
     </g>
    </g>
   </g>
   <g id="text_6">
    <g clip-path="url(#pb5f62eacb6)">
     <!-- 5 -->
     <g transform="translate(280.565914 214.193708) scale(0.1 -0.1)">
      <defs>
       <path id="DejaVuSans-35" d="M 691 4666 
L 3169 4666 
L 3169 4134 
L 1269 4134 
L 1269 2991 
Q 1406 3038 1543 3061 
Q 1681 3084 1819 3084 
Q 2600 3084 3056 2656 
Q 3513 2228 3513 1497 
Q 3513 744 3044 326 
Q 2575 -91 1722 -91 
Q 1428 -91 1123 -41 
Q 819 9 494 109 
L 494 744 
Q 775 591 1075 516 
Q 1375 441 1709 441 
Q 2250 441 2565 725 
Q 2881 1009 2881 1497 
Q 2881 1984 2565 2268 
Q 2250 2553 1709 2553 
Q 1456 2553 1204 2497 
Q 953 2441 691 2322 
L 691 4666 
z
" transform="scale(0.015625)"/>
      </defs>
      <use xlink:href="#DejaVuSans-35"/>
     </g>
    </g>
   </g>
   <g id="text_7">
    <g clip-path="url(#pb5f62eacb6)">
     <!-- 6 -->
     <g transform="translate(237.811987 149.040496) scale(0.1 -0.1)">
      <defs>
       <path id="DejaVuSans-36" d="M 2113 2584 
Q 1688 2584 1439 2293 
Q 1191 2003 1191 1497 
Q 1191 994 1439 701 
Q 1688 409 2113 409 
Q 2538 409 2786 701 
Q 3034 994 3034 1497 
Q 3034 2003 2786 2293 
Q 2538 2584 2113 2584 
z
M 3366 4563 
L 3366 3988 
Q 3128 4100 2886 4159 
Q 2644 4219 2406 4219 
Q 1781 4219 1451 3797 
Q 1122 3375 1075 2522 
Q 1259 2794 1537 2939 
Q 1816 3084 2150 3084 
Q 2853 3084 3261 2657 
Q 3669 2231 3669 1497 
Q 3669 778 3244 343 
Q 2819 -91 2113 -91 
Q 1303 -91 875 529 
Q 447 1150 447 2328 
Q 447 3434 972 4092 
Q 1497 4750 2381 4750 
Q 2619 4750 2861 4703 
Q 3103 4656 3366 4563 
z
" transform="scale(0.015625)"/>
      </defs>
      <use xlink:href="#DejaVuSans-36"/>
     </g>
    </g>
   </g>
   <g id="text_8">
    <g clip-path="url(#pb5f62eacb6)">
     <!-- 7 -->
     <g transform="translate(248.48347 181.674633) scale(0.1 -0.1)">
      <defs>
       <path id="DejaVuSans-37" d="M 525 4666 
L 3525 4666 
L 3525 4397 
L 1831 0 
L 1172 0 
L 2766 4134 
L 525 4134 
L 525 4666 
z
" transform="scale(0.015625)"/>
      </defs>
      <use xlink:href="#DejaVuSans-37"/>
     </g>
    </g>
   </g>
   <g id="text_9">
    <g clip-path="url(#pb5f62eacb6)">
     <!-- 8 -->
     <g transform="translate(167.03106 259.088686) scale(0.1 -0.1)">
      <defs>
       <path id="DejaVuSans-38" d="M 2034 2216 
Q 1584 2216 1326 1975 
Q 1069 1734 1069 1313 
Q 1069 891 1326 650 
Q 1584 409 2034 409 
Q 2484 409 2743 651 
Q 3003 894 3003 1313 
Q 3003 1734 2745 1975 
Q 2488 2216 2034 2216 
z
M 1403 2484 
Q 997 2584 770 2862 
Q 544 3141 544 3541 
Q 544 4100 942 4425 
Q 1341 4750 2034 4750 
Q 2731 4750 3128 4425 
Q 3525 4100 3525 3541 
Q 3525 3141 3298 2862 
Q 3072 2584 2669 2484 
Q 3125 2378 3379 2068 
Q 3634 1759 3634 1313 
Q 3634 634 3220 271 
Q 2806 -91 2034 -91 
Q 1263 -91 848 271 
Q 434 634 434 1313 
Q 434 1759 690 2068 
Q 947 2378 1403 2484 
z
M 1172 3481 
Q 1172 3119 1398 2916 
Q 1625 2713 2034 2713 
Q 2441 2713 2670 2916 
Q 2900 3119 2900 3481 
Q 2900 3844 2670 4047 
Q 2441 4250 2034 4250 
Q 1625 4250 1398 4047 
Q 1172 3844 1172 3481 
z
" transform="scale(0.015625)"/>
      </defs>
      <use xlink:href="#DejaVuSans-38"/>
     </g>
    </g>
   </g>
   <g id="text_10">
    <g clip-path="url(#pb5f62eacb6)">
     <!-- 9 -->
     <g transform="translate(123.892262 247.482005) scale(0.1 -0.1)">
      <defs>
       <path id="DejaVuSans-39" d="M 703 97 
L 703 672 
Q 941 559 1184 500 
Q 1428 441 1663 441 
Q 2288 441 2617 861 
Q 2947 1281 2994 2138 
Q 2813 1869 2534 1725 
Q 2256 1581 1919 1581 
Q 1219 1581 811 2004 
Q 403 2428 403 3163 
Q 403 3881 828 4315 
Q 1253 4750 1959 4750 
Q 2769 4750 3195 4129 
Q 3622 3509 3622 2328 
Q 3622 1225 3098 567 
Q 2575 -91 1691 -91 
Q 1453 -91 1209 -44 
Q 966 3 703 97 
z
M 1959 2075 
Q 2384 2075 2632 2365 
Q 2881 2656 2881 3163 
Q 2881 3666 2632 3958 
Q 2384 4250 1959 4250 
Q 1534 4250 1286 3958 
Q 1038 3666 1038 3163 
Q 1038 2656 1286 2365 
Q 1534 2075 1959 2075 
z
" transform="scale(0.015625)"/>
      </defs>
      <use xlink:href="#DejaVuSans-39"/>
     </g>
    </g>
   </g>
   <g id="text_11">
    <g clip-path="url(#pb5f62eacb6)">
     <!-- 10 -->
     <g transform="translate(216.393117 265.56455) scale(0.1 -0.1)">
      <use xlink:href="#DejaVuSans-31"/>
      <use xlink:href="#DejaVuSans-30" x="63.623047"/>
     </g>
    </g>
   </g>
   <g id="text_12">
    <g clip-path="url(#pb5f62eacb6)">
     <!-- 11 -->
     <g transform="translate(258.583903 241.909929) scale(0.1 -0.1)">
      <use xlink:href="#DejaVuSans-31"/>
      <use xlink:href="#DejaVuSans-31" x="63.623047"/>
     </g>
    </g>
   </g>
   <g id="text_13">
    <g clip-path="url(#pb5f62eacb6)">
     <!-- 12 -->
     <g transform="translate(361.950594 314.250085) scale(0.1 -0.1)">
      <use xlink:href="#DejaVuSans-31"/>
      <use xlink:href="#DejaVuSans-32" x="63.623047"/>
     </g>
    </g>
   </g>
   <g id="text_14">
    <g clip-path="url(#pb5f62eacb6)">
     <!-- 13 -->
     <g transform="translate(326.715768 301.340949) scale(0.1 -0.1)">
      <use xlink:href="#DejaVuSans-31"/>
      <use xlink:href="#DejaVuSans-33" x="63.623047"/>
     </g>
    </g>
   </g>
   <g id="text_15">
    <g clip-path="url(#pb5f62eacb6)">
     <!-- 14 -->
     <g transform="translate(318.076334 283.928618) scale(0.1 -0.1)">
      <use xlink:href="#DejaVuSans-31"/>
      <use xlink:href="#DejaVuSans-34" x="63.623047"/>
     </g>
    </g>
   </g>
   <g id="text_16">
    <g clip-path="url(#pb5f62eacb6)">
     <!-- 15 -->
     <g transform="translate(297.083869 284.351332) scale(0.1 -0.1)">
      <use xlink:href="#DejaVuSans-31"/>
      <use xlink:href="#DejaVuSans-35" x="63.623047"/>
     </g>
    </g>
   </g>
   <g id="text_17">
    <g clip-path="url(#pb5f62eacb6)">
     <!-- 16 -->
     <g transform="translate(288.275047 297.373587) scale(0.1 -0.1)">
      <use xlink:href="#DejaVuSans-31"/>
      <use xlink:href="#DejaVuSans-36" x="63.623047"/>
     </g>
    </g>
   </g>
   <g id="text_18">
    <g clip-path="url(#pb5f62eacb6)">
     <!-- 17 -->
     <g transform="translate(250.258112 296.490194) scale(0.1 -0.1)">
      <use xlink:href="#DejaVuSans-31"/>
      <use xlink:href="#DejaVuSans-37" x="63.623047"/>
     </g>
    </g>
   </g>
   <g id="text_19">
    <g clip-path="url(#pb5f62eacb6)">
     <!-- 18 -->
     <g transform="translate(221.685207 287.881214) scale(0.1 -0.1)">
      <use xlink:href="#DejaVuSans-31"/>
      <use xlink:href="#DejaVuSans-38" x="63.623047"/>
     </g>
    </g>
   </g>
   <g id="text_20">
    <g clip-path="url(#pb5f62eacb6)">
     <!-- 19 -->
     <g transform="translate(232.359304 283.839278) scale(0.1 -0.1)">
      <use xlink:href="#DejaVuSans-31"/>
      <use xlink:href="#DejaVuSans-39" x="63.623047"/>
     </g>
    </g>
   </g>
   <g id="text_21">
    <g clip-path="url(#pb5f62eacb6)">
     <!-- 20 -->
     <g transform="translate(325.139756 228.938238) scale(0.1 -0.1)">
      <use xlink:href="#DejaVuSans-32"/>
      <use xlink:href="#DejaVuSans-30" x="63.623047"/>
     </g>
    </g>
   </g>
   <g id="text_22">
    <g clip-path="url(#pb5f62eacb6)">
     <!-- 21 -->
     <g transform="translate(297.057271 239.085299) scale(0.1 -0.1)">
      <use xlink:href="#DejaVuSans-32"/>
      <use xlink:href="#DejaVuSans-31" x="63.623047"/>
     </g>
    </g>
   </g>
   <g id="text_23">
    <g clip-path="url(#pb5f62eacb6)">
     <!-- 22 -->
     <g transform="translate(322.842199 212.172014) scale(0.1 -0.1)">
      <use xlink:href="#DejaVuSans-32"/>
      <use xlink:href="#DejaVuSans-32" x="63.623047"/>
     </g>
    </g>
   </g>
   <g id="text_24">
    <g clip-path="url(#pb5f62eacb6)">
     <!-- 23 -->
     <g transform="translate(359.133862 208.951563) scale(0.1 -0.1)">
      <use xlink:href="#DejaVuSans-32"/>
      <use xlink:href="#DejaVuSans-33" x="63.623047"/>
     </g>
    </g>
   </g>
   <g id="text_25">
    <g clip-path="url(#pb5f62eacb6)">
     <!-- 24 -->
     <g transform="translate(147.746565 247.746098) scale(0.1 -0.1)">
      <use xlink:href="#DejaVuSans-32"/>
      <use xlink:href="#DejaVuSans-34" x="63.623047"/>
     </g>
    </g>
   </g>
   <g id="text_26">
    <g clip-path="url(#pb5f62eacb6)">
     <!-- 25 -->
     <g transform="translate(317.169031 197.144231) scale(0.1 -0.1)">
      <use xlink:href="#DejaVuSans-32"/>
      <use xlink:href="#DejaVuSans-35" x="63.623047"/>
     </g>
    </g>
   </g>
   <g id="text_27">
    <g clip-path="url(#pb5f62eacb6)">
     <!-- 26 -->
     <g transform="translate(221.630041 18.468466) scale(0.1 -0.1)">
      <use xlink:href="#DejaVuSans-32"/>
      <use xlink:href="#DejaVuSans-36" x="63.623047"/>
     </g>
    </g>
   </g>
   <g id="text_28">
    <g clip-path="url(#pb5f62eacb6)">
     <!-- 27 -->
     <g transform="translate(62.898024 187.724546) scale(0.1 -0.1)">
      <use xlink:href="#DejaVuSans-32"/>
      <use xlink:href="#DejaVuSans-37" x="63.623047"/>
     </g>
    </g>
   </g>
   <g id="text_29">
    <g clip-path="url(#pb5f62eacb6)">
     <!-- 28 -->
     <g transform="translate(393.208416 321.214007) scale(0.1 -0.1)">
      <use xlink:href="#DejaVuSans-32"/>
      <use xlink:href="#DejaVuSans-38" x="63.623047"/>
     </g>
    </g>
   </g>
   <g id="text_30">
    <g clip-path="url(#pb5f62eacb6)">
     <!-- 29 -->
     <g transform="translate(414.450723 315.286002) scale(0.1 -0.1)">
      <use xlink:href="#DejaVuSans-32"/>
      <use xlink:href="#DejaVuSans-39" x="63.623047"/>
     </g>
    </g>
   </g>
   <g id="text_31">
    <g clip-path="url(#pb5f62eacb6)">
     <!-- 30 -->
     <g transform="translate(136.509005 92.488468) scale(0.1 -0.1)">
      <use xlink:href="#DejaVuSans-33"/>
      <use xlink:href="#DejaVuSans-30" x="63.623047"/>
     </g>
    </g>
   </g>
   <g id="text_32">
    <g clip-path="url(#pb5f62eacb6)">
     <!-- 31 -->
     <g transform="translate(33.624277 216.895519) scale(0.1 -0.1)">
      <use xlink:href="#DejaVuSans-33"/>
      <use xlink:href="#DejaVuSans-31" x="63.623047"/>
     </g>
    </g>
   </g>
   <g id="text_33">
    <g clip-path="url(#pb5f62eacb6)">
     <!-- 32 -->
     <g transform="translate(47.198041 236.527254) scale(0.1 -0.1)">
      <use xlink:href="#DejaVuSans-33"/>
      <use xlink:href="#DejaVuSans-32" x="63.623047"/>
     </g>
    </g>
   </g>
   <g id="text_34">
    <g clip-path="url(#pb5f62eacb6)">
     <!-- 33 -->
     <g transform="translate(84.766877 246.748783) scale(0.1 -0.1)">
      <use xlink:href="#DejaVuSans-33"/>
      <use xlink:href="#DejaVuSans-33" x="63.623047"/>
     </g>
    </g>
   </g>
   <g id="text_35">
    <g clip-path="url(#pb5f62eacb6)">
     <!-- 34 -->
     <g transform="translate(48.807373 195.302324) scale(0.1 -0.1)">
      <use xlink:href="#DejaVuSans-33"/>
      <use xlink:href="#DejaVuSans-34" x="63.623047"/>
     </g>
    </g>
   </g>
   <g id="text_36">
    <g clip-path="url(#pb5f62eacb6)">
     <!-- 35 -->
     <g transform="translate(124.89747 170.393557) scale(0.1 -0.1)">
      <use xlink:href="#DejaVuSans-33"/>
      <use xlink:href="#DejaVuSans-35" x="63.623047"/>
     </g>
    </g>
   </g>
   <g id="text_37">
    <g clip-path="url(#pb5f62eacb6)">
     <!-- 36 -->
     <g transform="translate(108.998268 176.037644) scale(0.1 -0.1)">
      <use xlink:href="#DejaVuSans-33"/>
      <use xlink:href="#DejaVuSans-36" x="63.623047"/>
     </g>
    </g>
   </g>
   <g id="text_38">
    <g clip-path="url(#pb5f62eacb6)">
     <!-- 37 -->
     <g transform="translate(80.012584 176.268819) scale(0.1 -0.1)">
      <use xlink:href="#DejaVuSans-33"/>
      <use xlink:href="#DejaVuSans-37" x="63.623047"/>
     </g>
    </g>
   </g>
   <g id="text_39">
    <g clip-path="url(#pb5f62eacb6)">
     <!-- 38 -->
     <g transform="translate(171.251169 207.48598) scale(0.1 -0.1)">
      <use xlink:href="#DejaVuSans-33"/>
      <use xlink:href="#DejaVuSans-38" x="63.623047"/>
     </g>
    </g>
   </g>
   <g id="text_40">
    <g clip-path="url(#pb5f62eacb6)">
     <!-- 39 -->
     <g transform="translate(155.207878 229.059961) scale(0.1 -0.1)">
      <use xlink:href="#DejaVuSans-33"/>
      <use xlink:href="#DejaVuSans-39" x="63.623047"/>
     </g>
    </g>
   </g>
   <g id="text_41">
    <g clip-path="url(#pb5f62eacb6)">
     <!-- 40 -->
     <g transform="translate(64.71361 158.949307) scale(0.1 -0.1)">
      <use xlink:href="#DejaVuSans-34"/>
      <use xlink:href="#DejaVuSans-30" x="63.623047"/>
     </g>
    </g>
   </g>
   <g id="text_42">
    <g clip-path="url(#pb5f62eacb6)">
     <!-- 41 -->
     <g transform="translate(145.608438 128.674773) scale(0.1 -0.1)">
      <use xlink:href="#DejaVuSans-34"/>
      <use xlink:href="#DejaVuSans-31" x="63.623047"/>
     </g>
    </g>
   </g>
   <g id="text_43">
    <g clip-path="url(#pb5f62eacb6)">
     <!-- 42 -->
     <g transform="translate(108.867305 126.397416) scale(0.1 -0.1)">
      <use xlink:href="#DejaVuSans-34"/>
      <use xlink:href="#DejaVuSans-32" x="63.623047"/>
     </g>
    </g>
   </g>
   <g id="text_44">
    <g clip-path="url(#pb5f62eacb6)">
     <!-- 43 -->
     <g transform="translate(119.758189 105.971783) scale(0.1 -0.1)">
      <use xlink:href="#DejaVuSans-34"/>
      <use xlink:href="#DejaVuSans-33" x="63.623047"/>
     </g>
    </g>
   </g>
   <g id="text_45">
    <g clip-path="url(#pb5f62eacb6)">
     <!-- 44 -->
     <g transform="translate(83.562471 149.499901) scale(0.1 -0.1)">
      <use xlink:href="#DejaVuSans-34"/>
      <use xlink:href="#DejaVuSans-34" x="63.623047"/>
     </g>
    </g>
   </g>
   <g id="text_46">
    <g clip-path="url(#pb5f62eacb6)">
     <!-- 45 -->
     <g transform="translate(180.502149 141.840523) scale(0.1 -0.1)">
      <use xlink:href="#DejaVuSans-34"/>
      <use xlink:href="#DejaVuSans-35" x="63.623047"/>
     </g>
    </g>
   </g>
   <g id="text_47">
    <g clip-path="url(#pb5f62eacb6)">
     <!-- 46 -->
     <g transform="translate(210.16639 162.996648) scale(0.1 -0.1)">
      <use xlink:href="#DejaVuSans-34"/>
      <use xlink:href="#DejaVuSans-36" x="63.623047"/>
     </g>
    </g>
   </g>
   <g id="text_48">
    <g clip-path="url(#pb5f62eacb6)">
     <!-- 47 -->
     <g transform="translate(187.564295 183.85756) scale(0.1 -0.1)">
      <use xlink:href="#DejaVuSans-34"/>
      <use xlink:href="#DejaVuSans-37" x="63.623047"/>
     </g>
    </g>
   </g>
  </g>
 </g>
 <defs>
  <clipPath id="pb5f62eacb6">
   <rect x="0" y="0" width="460.8" height="345.6"/>
  </clipPath>
 </defs>
</svg>
