<?xml version="1.0" encoding="utf-8" standalone="no"?>
<!DOCTYPE svg PUBLIC "-//W3C//DTD SVG 1.1//EN"
  "http://www.w3.org/Graphics/SVG/1.1/DTD/svg11.dtd">
<svg xmlns:xlink="http://www.w3.org/1999/xlink" width="460.8pt" height="345.6pt" viewBox="0 0 460.8 345.6" xmlns="http://www.w3.org/2000/svg" version="1.1">
 <metadata>
  <rdf:RDF xmlns:dc="http://purl.org/dc/elements/1.1/" xmlns:cc="http://creativecommons.org/ns#" xmlns:rdf="http://www.w3.org/1999/02/22-rdf-syntax-ns#">
   <cc:Work>
    <dc:type rdf:resource="http://purl.org/dc/dcmitype/StillImage"/>
    <dc:date>2023-10-10T10:57:26.280280</dc:date>
    <dc:format>image/svg+xml</dc:format>
    <dc:creator>
     <cc:Agent>
      <dc:title>Matplotlib v3.6.1, https://matplotlib.org/</dc:title>
     </cc:Agent>
    </dc:creator>
   </cc:Work>
  </rdf:RDF>
 </metadata>
 <defs>
  <style type="text/css">*{stroke-linejoin: round; stroke-linecap: butt}</style>
 </defs>
 <g id="figure_1">
  <g id="patch_1">
   <path d="M 0 345.6 
L 460.8 345.6 
L 460.8 0 
L 0 0 
z
" style="fill: #ffffff"/>
  </g>
  <g id="axes_1">
   <g id="patch_2">
    <path d="M 51.74359 63.389135 
Q 89.005002 70.665952 125.169109 77.728476 
" clip-path="url(#pd82bb93d6f)" style="fill: none; stroke: #000000; stroke-linecap: round"/>
    <path d="M 121.626611 74.998876 
L 125.169109 77.728476 
L 120.859931 78.924714 
L 121.626611 74.998876 
z
" clip-path="url(#pd82bb93d6f)" style="stroke: #000000; stroke-linecap: round"/>
   </g>
   <g id="patch_3">
    <path d="M 51.019142 64.556568 
Q 84.234225 108.097419 116.771201 150.749354 
" clip-path="url(#pd82bb93d6f)" style="fill: none; stroke: #000000; stroke-linecap: round"/>
    <path d="M 115.935269 146.356039 
L 116.771201 150.749354 
L 112.75499 148.782111 
L 115.935269 146.356039 
z
" clip-path="url(#pd82bb93d6f)" style="stroke: #000000; stroke-linecap: round"/>
   </g>
   <g id="patch_4">
    <path d="M 41.897363 152.73101 
Q 92.95119 144.623889 142.900818 136.692111 
" clip-path="url(#pd82bb93d6f)" style="fill: none; stroke: #000000; stroke-linecap: round"/>
    <path d="M 138.636655 135.344182 
L 142.900818 136.692111 
L 139.263977 139.294684 
L 138.636655 135.344182 
z
" clip-path="url(#pd82bb93d6f)" style="stroke: #000000; stroke-linecap: round"/>
   </g>
   <g id="patch_5">
    <path d="M 41.921011 153.037913 
Q 79.305379 153.105762 115.571716 153.171582 
" clip-path="url(#pd82bb93d6f)" style="fill: none; stroke: #000000; stroke-linecap: round"/>
    <path d="M 111.575352 151.164326 
L 115.571716 153.171582 
L 111.568092 155.164319 
L 111.575352 151.164326 
z
" clip-path="url(#pd82bb93d6f)" style="stroke: #000000; stroke-linecap: round"/>
   </g>
   <g id="patch_6">
    <path d="M 55.684235 95.119648 
Q 76.491547 63.363817 96.686111 32.543154 
" clip-path="url(#pd82bb93d6f)" style="fill: none; stroke: #000000; stroke-linecap: round"/>
    <path d="M 92.820996 34.792796 
L 96.686111 32.543154 
L 96.166756 36.985031 
L 92.820996 34.792796 
z
" clip-path="url(#pd82bb93d6f)" style="stroke: #000000; stroke-linecap: round"/>
   </g>
   <g id="patch_7">
    <path d="M 56.505207 96.265832 
Q 91.396841 87.524704 125.203957 79.055271 
" clip-path="url(#pd82bb93d6f)" style="fill: none; stroke: #000000; stroke-linecap: round"/>
    <path d="M 120.837839 78.087274 
L 125.203957 79.055271 
L 121.809889 81.967367 
L 120.837839 78.087274 
z
" clip-path="url(#pd82bb93d6f)" style="stroke: #000000; stroke-linecap: round"/>
   </g>
   <g id="patch_8">
    <path d="M 126.267073 77.942898 
Q 89.005661 70.666081 52.841554 63.603558 
" clip-path="url(#pd82bb93d6f)" style="fill: none; stroke: #000000; stroke-linecap: round"/>
    <path d="M 56.384052 66.333157 
L 52.841554 63.603558 
L 57.150732 62.40732 
L 56.384052 66.333157 
z
" clip-path="url(#pd82bb93d6f)" style="stroke: #000000; stroke-linecap: round"/>
   </g>
   <g id="patch_9">
    <path d="M 126.284117 78.784667 
Q 91.392483 87.525796 57.585367 95.995228 
" clip-path="url(#pd82bb93d6f)" style="fill: none; stroke: #000000; stroke-linecap: round"/>
    <path d="M 61.951485 96.963225 
L 57.585367 95.995228 
L 60.979435 93.083133 
L 61.951485 96.963225 
z
" clip-path="url(#pd82bb93d6f)" style="stroke: #000000; stroke-linecap: round"/>
   </g>
   <g id="patch_10">
    <path d="M 129.998389 77.696434 
Q 149.65248 71.081986 168.246935 64.824151 
" clip-path="url(#pd82bb93d6f)" style="fill: none; stroke: #000000; stroke-linecap: round"/>
    <path d="M 163.81794 64.204475 
L 168.246935 64.824151 
L 165.093797 67.995542 
L 163.81794 64.204475 
z
" clip-path="url(#pd82bb93d6f)" style="stroke: #000000; stroke-linecap: round"/>
   </g>
   <g id="patch_11">
    <path d="M 129.914517 79.144259 
Q 184.931147 105.265872 238.937803 130.907954 
" clip-path="url(#pd82bb93d6f)" style="fill: none; stroke: #000000; stroke-linecap: round"/>
    <path d="M 236.182217 127.385633 
L 238.937803 130.907954 
L 234.466595 130.99903 
L 236.182217 127.385633 
z
" clip-path="url(#pd82bb93d6f)" style="stroke: #000000; stroke-linecap: round"/>
   </g>
   <g id="patch_12">
    <path d="M 235.692922 314.019239 
Q 259.511258 279.662349 282.692605 246.224287 
" clip-path="url(#pd82bb93d6f)" style="fill: none; stroke: #000000; stroke-linecap: round"/>
    <path d="M 278.769995 248.372106 
L 282.692605 246.224287 
L 282.057294 250.651067 
L 278.769995 248.372106 
z
" clip-path="url(#pd82bb93d6f)" style="stroke: #000000; stroke-linecap: round"/>
   </g>
   <g id="patch_13">
    <path d="M 233.928387 313.79084 
Q 218.761316 272.099963 203.976476 231.459753 
" clip-path="url(#pd82bb93d6f)" style="fill: none; stroke: #000000; stroke-linecap: round"/>
    <path d="M 203.464497 235.902486 
L 203.976476 231.459753 
L 207.223475 234.534976 
L 203.464497 235.902486 
z
" clip-path="url(#pd82bb93d6f)" style="stroke: #000000; stroke-linecap: round"/>
   </g>
   <g id="patch_14">
    <path d="M 283.328994 245.306325 
Q 259.510658 279.663215 236.32931 313.101277 
" clip-path="url(#pd82bb93d6f)" style="fill: none; stroke: #000000; stroke-linecap: round"/>
    <path d="M 240.251921 310.953458 
L 236.32931 313.101277 
L 236.964621 308.674497 
L 240.251921 310.953458 
z
" clip-path="url(#pd82bb93d6f)" style="stroke: #000000; stroke-linecap: round"/>
   </g>
   <g id="patch_15">
    <path d="M 286.273492 244.314977 
Q 326.991403 257.565183 366.646157 270.469423 
" clip-path="url(#pd82bb93d6f)" style="fill: none; stroke: #000000; stroke-linecap: round"/>
    <path d="M 363.46137 267.329816 
L 366.646157 270.469423 
L 362.223599 271.133488 
L 363.46137 267.329816 
z
" clip-path="url(#pd82bb93d6f)" style="stroke: #000000; stroke-linecap: round"/>
   </g>
   <g id="patch_16">
    <path d="M 285.833619 242.376772 
Q 316.645094 212.949816 346.648042 184.295055 
" clip-path="url(#pd82bb93d6f)" style="fill: none; stroke: #000000; stroke-linecap: round"/>
    <path d="M 342.374026 185.611408 
L 346.648042 184.295055 
L 345.136715 188.504079 
L 342.374026 185.611408 
z
" clip-path="url(#pd82bb93d6f)" style="stroke: #000000; stroke-linecap: round"/>
   </g>
   <g id="patch_17">
    <path d="M 283.739254 241.908852 
Q 263.065581 187.969115 242.792038 135.073359 
" clip-path="url(#pd82bb93d6f)" style="fill: none; stroke: #000000; stroke-linecap: round"/>
    <path d="M 242.356058 139.524193 
L 242.792038 135.073359 
L 246.091117 138.092644 
L 242.356058 139.524193 
z
" clip-path="url(#pd82bb93d6f)" style="stroke: #000000; stroke-linecap: round"/>
   </g>
   <g id="patch_18">
    <path d="M 282.529087 243.362563 
Q 243.680843 236.153351 205.931865 229.148134 
" clip-path="url(#pd82bb93d6f)" style="fill: none; stroke: #000000; stroke-linecap: round"/>
    <path d="M 209.499802 231.844396 
L 205.931865 229.148134 
L 210.229636 227.911542 
L 209.499802 231.844396 
z
" clip-path="url(#pd82bb93d6f)" style="stroke: #000000; stroke-linecap: round"/>
   </g>
   <g id="patch_19">
    <path d="M 117.449924 151.639076 
Q 84.234841 108.098225 51.697865 65.44629 
" clip-path="url(#pd82bb93d6f)" style="fill: none; stroke: #000000; stroke-linecap: round"/>
    <path d="M 52.533797 69.839605 
L 51.697865 65.44629 
L 55.714076 67.413533 
L 52.533797 69.839605 
z
" clip-path="url(#pd82bb93d6f)" style="stroke: #000000; stroke-linecap: round"/>
   </g>
   <g id="patch_20">
    <path d="M 116.688986 153.17361 
Q 79.304618 153.105761 43.038281 153.039941 
" clip-path="url(#pd82bb93d6f)" style="fill: none; stroke: #000000; stroke-linecap: round"/>
    <path d="M 47.034645 155.047197 
L 43.038281 153.039941 
L 47.041905 151.047204 
L 47.034645 155.047197 
z
" clip-path="url(#pd82bb93d6f)" style="stroke: #000000; stroke-linecap: round"/>
   </g>
   <g id="patch_21">
    <path d="M 120.534993 152.851559 
Q 180.16057 142.697744 238.68398 132.731621 
" clip-path="url(#pd82bb93d6f)" style="fill: none; stroke: #000000; stroke-linecap: round"/>
    <path d="M 234.404995 131.431509 
L 238.68398 132.731621 
L 235.0765 135.374741 
L 234.404995 131.431509 
z
" clip-path="url(#pd82bb93d6f)" style="stroke: #000000; stroke-linecap: round"/>
   </g>
   <g id="patch_22">
    <path d="M 120.066635 154.468244 
Q 160.777851 190.88412 200.655761 226.554609 
" clip-path="url(#pd82bb93d6f)" style="fill: none; stroke: #000000; stroke-linecap: round"/>
    <path d="M 199.007822 222.397171 
L 200.655761 226.554609 
L 196.341047 225.378498 
L 199.007822 222.397171 
z
" clip-path="url(#pd82bb93d6f)" style="stroke: #000000; stroke-linecap: round"/>
   </g>
   <g id="patch_23">
    <path d="M 203.594837 230.410712 
Q 218.761908 272.101589 233.546748 312.7418 
" clip-path="url(#pd82bb93d6f)" style="fill: none; stroke: #000000; stroke-linecap: round"/>
    <path d="M 234.058727 308.299067 
L 233.546748 312.7418 
L 230.299749 309.666577 
L 234.058727 308.299067 
z
" clip-path="url(#pd82bb93d6f)" style="stroke: #000000; stroke-linecap: round"/>
   </g>
   <g id="patch_24">
    <path d="M 204.835724 228.944719 
Q 243.683968 236.153931 281.432946 243.159148 
" clip-path="url(#pd82bb93d6f)" style="fill: none; stroke: #000000; stroke-linecap: round"/>
    <path d="M 277.865009 240.462886 
L 281.432946 243.159148 
L 277.135174 244.395741 
L 277.865009 240.462886 
z
" clip-path="url(#pd82bb93d6f)" style="stroke: #000000; stroke-linecap: round"/>
   </g>
   <g id="patch_25">
    <path d="M 201.489645 227.300511 
Q 160.778428 190.884636 120.900518 155.214147 
" clip-path="url(#pd82bb93d6f)" style="fill: none; stroke: #000000; stroke-linecap: round"/>
    <path d="M 122.548458 159.371585 
L 120.900518 155.214147 
L 125.215233 156.390258 
L 122.548458 159.371585 
z
" clip-path="url(#pd82bb93d6f)" style="stroke: #000000; stroke-linecap: round"/>
   </g>
   <g id="patch_26">
    <path d="M 203.655876 226.794636 
Q 222.315205 180.405575 240.557308 135.053781 
" clip-path="url(#pd82bb93d6f)" style="fill: none; stroke: #000000; stroke-linecap: round"/>
    <path d="M 237.209076 138.018464 
L 240.557308 135.053781 
L 240.920115 139.511176 
L 237.209076 138.018464 
z
" clip-path="url(#pd82bb93d6f)" style="stroke: #000000; stroke-linecap: round"/>
   </g>
   <g id="patch_27">
    <path d="M 367.710129 270.815655 
Q 326.992217 257.565448 287.337464 244.661209 
" clip-path="url(#pd82bb93d6f)" style="fill: none; stroke: #000000; stroke-linecap: round"/>
    <path d="M 290.522251 247.800816 
L 287.337464 244.661209 
L 291.760022 243.997143 
L 290.522251 247.800816 
z
" clip-path="url(#pd82bb93d6f)" style="stroke: #000000; stroke-linecap: round"/>
   </g>
   <g id="patch_28">
    <path d="M 369.114237 269.527861 
Q 359.204988 226.798059 349.548314 185.157387 
" clip-path="url(#pd82bb93d6f)" style="fill: none; stroke: #000000; stroke-linecap: round"/>
    <path d="M 348.503656 189.5058 
L 349.548314 185.157387 
L 352.400249 188.602161 
L 348.503656 189.5058 
z
" clip-path="url(#pd82bb93d6f)" style="stroke: #000000; stroke-linecap: round"/>
   </g>
   <g id="patch_29">
    <path d="M 169.308703 64.466821 
Q 149.654612 71.081269 131.060157 77.339104 
" clip-path="url(#pd82bb93d6f)" style="fill: none; stroke: #000000; stroke-linecap: round"/>
    <path d="M 135.489152 77.95878 
L 131.060157 77.339104 
L 134.213295 74.167713 
L 135.489152 77.95878 
z
" clip-path="url(#pd82bb93d6f)" style="stroke: #000000; stroke-linecap: round"/>
   </g>
   <g id="patch_30">
    <path d="M 172.531079 65.195502 
Q 206.418932 98.032993 239.503871 130.092457 
" clip-path="url(#pd82bb93d6f)" style="fill: none; stroke: #000000; stroke-linecap: round"/>
    <path d="M 238.023055 125.872601 
L 239.503871 130.092457 
L 235.239497 128.745196 
L 238.023055 125.872601 
z
" clip-path="url(#pd82bb93d6f)" style="stroke: #000000; stroke-linecap: round"/>
   </g>
   <g id="patch_31">
    <path d="M 169.38755 63.033426 
Q 134.751139 46.920158 101.128436 31.278478 
" clip-path="url(#pd82bb93d6f)" style="fill: none; stroke: #000000; stroke-linecap: round"/>
    <path d="M 103.911584 34.779062 
L 101.128436 31.278478 
L 105.598792 31.15231 
L 103.911584 34.779062 
z
" clip-path="url(#pd82bb93d6f)" style="stroke: #000000; stroke-linecap: round"/>
   </g>
   <g id="patch_32">
    <path d="M 170.503386 65.682671 
Q 158.530167 100.032961 146.924939 133.327513 
" clip-path="url(#pd82bb93d6f)" style="fill: none; stroke: #000000; stroke-linecap: round"/>
    <path d="M 150.130064 130.208672 
L 146.924939 133.327513 
L 146.352941 128.892108 
L 150.130064 130.208672 
z
" clip-path="url(#pd82bb93d6f)" style="stroke: #000000; stroke-linecap: round"/>
   </g>
   <g id="patch_33">
    <path d="M 97.299228 31.607424 
Q 76.491916 63.363255 56.297351 94.183918 
" clip-path="url(#pd82bb93d6f)" style="fill: none; stroke: #000000; stroke-linecap: round"/>
    <path d="M 60.162466 91.934276 
L 56.297351 94.183918 
L 56.816707 89.742041 
L 60.162466 91.934276 
z
" clip-path="url(#pd82bb93d6f)" style="stroke: #000000; stroke-linecap: round"/>
   </g>
   <g id="patch_34">
    <path d="M 100.113681 30.806401 
Q 134.750091 46.91967 168.372794 62.56135 
" clip-path="url(#pd82bb93d6f)" style="fill: none; stroke: #000000; stroke-linecap: round"/>
    <path d="M 165.589646 59.060766 
L 168.372794 62.56135 
L 163.902438 62.687518 
L 165.589646 59.060766 
z
" clip-path="url(#pd82bb93d6f)" style="stroke: #000000; stroke-linecap: round"/>
   </g>
   <g id="patch_35">
    <path d="M 329.921263 123.447315 
Q 286.772054 127.737159 244.735395 131.916394 
" clip-path="url(#pd82bb93d6f)" style="fill: none; stroke: #000000; stroke-linecap: round"/>
    <path d="M 248.913634 133.510858 
L 244.735395 131.916394 
L 248.51791 129.530481 
L 248.913634 133.510858 
z
" clip-path="url(#pd82bb93d6f)" style="stroke: #000000; stroke-linecap: round"/>
   </g>
   <g id="patch_36">
    <path d="M 332.386587 125.115063 
Q 340.353708 152.71764 348.010781 179.246033 
" clip-path="url(#pd82bb93d6f)" style="fill: none; stroke: #000000; stroke-linecap: round"/>
    <path d="M 348.823074 174.848286 
L 348.010781 179.246033 
L 344.979959 175.957551 
L 348.823074 174.848286 
z
" clip-path="url(#pd82bb93d6f)" style="stroke: #000000; stroke-linecap: round"/>
   </g>
   <g id="patch_37">
    <path d="M 347.456839 183.522601 
Q 316.645364 212.949557 286.642416 241.604318 
" clip-path="url(#pd82bb93d6f)" style="fill: none; stroke: #000000; stroke-linecap: round"/>
    <path d="M 290.916432 240.287965 
L 286.642416 241.604318 
L 288.153743 237.395293 
L 290.916432 240.287965 
z
" clip-path="url(#pd82bb93d6f)" style="stroke: #000000; stroke-linecap: round"/>
   </g>
   <g id="patch_38">
    <path d="M 349.29634 184.070849 
Q 359.205589 226.800652 368.862263 268.441323 
" clip-path="url(#pd82bb93d6f)" style="fill: none; stroke: #000000; stroke-linecap: round"/>
    <path d="M 369.906921 264.092911 
L 368.862263 268.441323 
L 366.010328 264.996549 
L 369.906921 264.092911 
z
" clip-path="url(#pd82bb93d6f)" style="stroke: #000000; stroke-linecap: round"/>
   </g>
   <g id="patch_39">
    <path d="M 348.32199 180.324238 
Q 340.354869 152.721661 332.697797 126.193268 
" clip-path="url(#pd82bb93d6f)" style="fill: none; stroke: #000000; stroke-linecap: round"/>
    <path d="M 331.885504 130.591015 
L 332.697797 126.193268 
L 335.728619 129.48175 
L 331.885504 130.591015 
z
" clip-path="url(#pd82bb93d6f)" style="stroke: #000000; stroke-linecap: round"/>
   </g>
   <g id="patch_40">
    <path d="M 350.174038 180.758738 
Q 384.837209 143.205743 418.742053 106.474296 
" clip-path="url(#pd82bb93d6f)" style="fill: none; stroke: #000000; stroke-linecap: round"/>
    <path d="M 414.559351 108.057017 
L 418.742053 106.474296 
L 417.498609 110.77009 
L 414.559351 108.057017 
z
" clip-path="url(#pd82bb93d6f)" style="stroke: #000000; stroke-linecap: round"/>
   </g>
   <g id="patch_41">
    <path d="M 346.923228 182.129812 
Q 326.682451 181.565991 307.559274 181.033301 
" clip-path="url(#pd82bb93d6f)" style="fill: none; stroke: #000000; stroke-linecap: round"/>
    <path d="M 311.502033 183.143905 
L 307.559274 181.033301 
L 311.613413 179.145456 
L 311.502033 183.143905 
z
" clip-path="url(#pd82bb93d6f)" style="stroke: #000000; stroke-linecap: round"/>
   </g>
   <g id="patch_42">
    <path d="M 347.102561 181.364897 
Q 295.276732 157.200347 244.464203 133.508262 
" clip-path="url(#pd82bb93d6f)" style="fill: none; stroke: #000000; stroke-linecap: round"/>
    <path d="M 247.244322 137.011252 
L 244.464203 133.508262 
L 248.934667 133.385962 
L 247.244322 137.011252 
z
" clip-path="url(#pd82bb93d6f)" style="stroke: #000000; stroke-linecap: round"/>
   </g>
   <g id="patch_43">
    <path d="M 419.497892 105.655442 
Q 384.834722 143.208437 350.929878 179.939884 
" clip-path="url(#pd82bb93d6f)" style="fill: none; stroke: #000000; stroke-linecap: round"/>
    <path d="M 355.112579 178.357163 
L 350.929878 179.939884 
L 352.173321 175.64409 
L 355.112579 178.357163 
z
" clip-path="url(#pd82bb93d6f)" style="stroke: #000000; stroke-linecap: round"/>
   </g>
   <g id="patch_44">
    <path d="M 419.139171 103.261612 
Q 385.740399 83.932376 353.309289 65.163166 
" clip-path="url(#pd82bb93d6f)" style="fill: none; stroke: #000000; stroke-linecap: round"/>
    <path d="M 355.769499 68.897783 
L 353.309289 65.163166 
L 357.773109 65.435768 
L 355.769499 68.897783 
z
" clip-path="url(#pd82bb93d6f)" style="stroke: #000000; stroke-linecap: round"/>
   </g>
   <g id="patch_45">
    <path d="M 352.339785 64.602074 
Q 385.738557 83.93131 418.169666 102.70052 
" clip-path="url(#pd82bb93d6f)" style="fill: none; stroke: #000000; stroke-linecap: round"/>
    <path d="M 415.709456 98.965903 
L 418.169666 102.70052 
L 413.705847 102.427918 
L 415.709456 98.965903 
z
" clip-path="url(#pd82bb93d6f)" style="stroke: #000000; stroke-linecap: round"/>
   </g>
   <g id="patch_46">
    <path d="M 349.026292 64.665107 
Q 296.182537 97.925326 244.284994 130.589993 
" clip-path="url(#pd82bb93d6f)" style="fill: none; stroke: #000000; stroke-linecap: round"/>
    <path d="M 248.735622 130.151915 
L 244.284994 130.589993 
L 246.604909 126.766644 
L 248.735622 130.151915 
z
" clip-path="url(#pd82bb93d6f)" style="stroke: #000000; stroke-linecap: round"/>
   </g>
   <g id="patch_47">
    <path d="M 306.443295 181.002215 
Q 326.684073 181.566036 345.80725 182.098725 
" clip-path="url(#pd82bb93d6f)" style="fill: none; stroke: #000000; stroke-linecap: round"/>
    <path d="M 341.86449 179.988121 
L 345.80725 182.098725 
L 341.753111 183.98657 
L 341.86449 179.988121 
z
" clip-path="url(#pd82bb93d6f)" style="stroke: #000000; stroke-linecap: round"/>
   </g>
   <g id="patch_48">
    <path d="M 302.978203 179.76158 
Q 273.102886 156.583403 244.110925 134.090561 
" clip-path="url(#pd82bb93d6f)" style="fill: none; stroke: #000000; stroke-linecap: round"/>
    <path d="M 246.045351 138.122681 
L 244.110925 134.090561 
L 248.497277 134.962292 
L 246.045351 138.122681 
z
" clip-path="url(#pd82bb93d6f)" style="stroke: #000000; stroke-linecap: round"/>
   </g>
   <g id="patch_49">
    <path d="M 239.948104 131.387639 
Q 184.931473 105.266026 130.924817 79.623944 
" clip-path="url(#pd82bb93d6f)" style="fill: none; stroke: #000000; stroke-linecap: round"/>
    <path d="M 133.680403 83.146265 
L 130.924817 79.623944 
L 135.396026 79.532868 
L 133.680403 83.146265 
z
" clip-path="url(#pd82bb93d6f)" style="stroke: #000000; stroke-linecap: round"/>
   </g>
   <g id="patch_50">
    <path d="M 242.3903 134.025182 
Q 263.063973 187.964919 283.337516 240.860676 
" clip-path="url(#pd82bb93d6f)" style="fill: none; stroke: #000000; stroke-linecap: round"/>
    <path d="M 283.773496 236.409842 
L 283.337516 240.860676 
L 280.038437 237.841391 
L 283.773496 236.409842 
z
" clip-path="url(#pd82bb93d6f)" style="stroke: #000000; stroke-linecap: round"/>
   </g>
   <g id="patch_51">
    <path d="M 239.786031 132.543949 
Q 180.160454 142.697764 121.637044 152.663888 
" clip-path="url(#pd82bb93d6f)" style="fill: none; stroke: #000000; stroke-linecap: round"/>
    <path d="M 125.916029 153.963999 
L 121.637044 152.663888 
L 125.244524 150.020767 
L 125.916029 153.963999 
z
" clip-path="url(#pd82bb93d6f)" style="stroke: #000000; stroke-linecap: round"/>
   </g>
   <g id="patch_52">
    <path d="M 240.974987 134.015386 
Q 222.315658 180.404448 204.073556 225.756242 
" clip-path="url(#pd82bb93d6f)" style="fill: none; stroke: #000000; stroke-linecap: round"/>
    <path d="M 207.421787 222.791559 
L 204.073556 225.756242 
L 203.710748 221.298847 
L 207.421787 222.791559 
z
" clip-path="url(#pd82bb93d6f)" style="stroke: #000000; stroke-linecap: round"/>
   </g>
   <g id="patch_53">
    <path d="M 240.309 130.87263 
Q 206.421146 98.035139 173.336208 65.975676 
" clip-path="url(#pd82bb93d6f)" style="fill: none; stroke: #000000; stroke-linecap: round"/>
    <path d="M 174.817024 70.195532 
L 173.336208 65.975676 
L 177.600582 67.322937 
L 174.817024 70.195532 
z
" clip-path="url(#pd82bb93d6f)" style="stroke: #000000; stroke-linecap: round"/>
   </g>
   <g id="patch_54">
    <path d="M 243.626411 132.026648 
Q 286.77562 127.736804 328.812279 123.557569 
" clip-path="url(#pd82bb93d6f)" style="fill: none; stroke: #000000; stroke-linecap: round"/>
    <path d="M 324.63404 121.963105 
L 328.812279 123.557569 
L 325.029764 125.943482 
L 324.63404 121.963105 
z
" clip-path="url(#pd82bb93d6f)" style="stroke: #000000; stroke-linecap: round"/>
   </g>
   <g id="patch_55">
    <path d="M 243.45395 133.037217 
Q 295.279778 157.201767 346.092307 180.893851 
" clip-path="url(#pd82bb93d6f)" style="fill: none; stroke: #000000; stroke-linecap: round"/>
    <path d="M 343.312189 177.390861 
L 346.092307 180.893851 
L 341.621844 181.016152 
L 343.312189 177.390861 
z
" clip-path="url(#pd82bb93d6f)" style="stroke: #000000; stroke-linecap: round"/>
   </g>
   <g id="patch_56">
    <path d="M 243.337244 131.186513 
Q 296.180999 97.926294 348.078542 65.261627 
" clip-path="url(#pd82bb93d6f)" style="fill: none; stroke: #000000; stroke-linecap: round"/>
    <path d="M 343.627914 65.699704 
L 348.078542 65.261627 
L 345.758627 69.084975 
L 343.627914 65.699704 
z
" clip-path="url(#pd82bb93d6f)" style="stroke: #000000; stroke-linecap: round"/>
   </g>
   <g id="patch_57">
    <path d="M 243.227417 133.405109 
Q 273.102734 156.583285 302.094695 179.076128 
" clip-path="url(#pd82bb93d6f)" style="fill: none; stroke: #000000; stroke-linecap: round"/>
    <path d="M 300.160269 175.044007 
L 302.094695 179.076128 
L 297.708343 178.204397 
L 300.160269 175.044007 
z
" clip-path="url(#pd82bb93d6f)" style="stroke: #000000; stroke-linecap: round"/>
   </g>
   <g id="patch_58">
    <path d="M 242.432308 130.426334 
Q 262.060621 82.536893 281.264922 35.681964 
" clip-path="url(#pd82bb93d6f)" style="fill: none; stroke: #000000; stroke-linecap: round"/>
    <path d="M 277.897339 38.624648 
L 281.264922 35.681964 
L 281.598519 40.141641 
L 277.897339 38.624648 
z
" clip-path="url(#pd82bb93d6f)" style="stroke: #000000; stroke-linecap: round"/>
   </g>
   <g id="patch_59">
    <path d="M 239.765747 132.298963 
Q 193.809081 134.21557 148.969479 136.08559 
" clip-path="url(#pd82bb93d6f)" style="fill: none; stroke: #000000; stroke-linecap: round"/>
    <path d="M 153.049342 137.917179 
L 148.969479 136.08559 
L 152.882668 133.920653 
L 153.049342 137.917179 
z
" clip-path="url(#pd82bb93d6f)" style="stroke: #000000; stroke-linecap: round"/>
   </g>
   <g id="patch_60">
    <path d="M 281.687891 34.649999 
Q 262.059577 82.539439 242.855277 129.394368 
" clip-path="url(#pd82bb93d6f)" style="fill: none; stroke: #000000; stroke-linecap: round"/>
    <path d="M 246.222859 126.451685 
L 242.855277 129.394368 
L 242.521679 124.934692 
L 246.222859 126.451685 
z
" clip-path="url(#pd82bb93d6f)" style="stroke: #000000; stroke-linecap: round"/>
   </g>
   <g id="patch_61">
    <path d="M 144.008651 136.516191 
Q 92.954825 144.623312 43.005197 152.555091 
" clip-path="url(#pd82bb93d6f)" style="fill: none; stroke: #000000; stroke-linecap: round"/>
    <path d="M 47.26936 153.90302 
L 43.005197 152.555091 
L 46.642038 149.952518 
L 47.26936 153.90302 
z
" clip-path="url(#pd82bb93d6f)" style="stroke: #000000; stroke-linecap: round"/>
   </g>
   <g id="patch_62">
    <path d="M 146.558127 134.379872 
Q 158.531345 100.029582 170.136573 66.73503 
" clip-path="url(#pd82bb93d6f)" style="fill: none; stroke: #000000; stroke-linecap: round"/>
    <path d="M 166.931448 69.853872 
L 170.136573 66.73503 
L 170.708572 71.170435 
L 166.931448 69.853872 
z
" clip-path="url(#pd82bb93d6f)" style="stroke: #000000; stroke-linecap: round"/>
   </g>
   <g id="patch_63">
    <path d="M 147.851294 136.132223 
Q 193.80796 134.215617 238.647562 132.345597 
" clip-path="url(#pd82bb93d6f)" style="fill: none; stroke: #000000; stroke-linecap: round"/>
    <path d="M 234.567699 130.514008 
L 238.647562 132.345597 
L 234.734373 134.510534 
L 234.567699 130.514008 
z
" clip-path="url(#pd82bb93d6f)" style="stroke: #000000; stroke-linecap: round"/>
   </g>
   <g id="PathCollection_1">
    <defs>
     <path id="me29d13692d" d="M 0 1.936492 
C 0.513564 1.936492 1.006162 1.732451 1.369306 1.369306 
C 1.732451 1.006162 1.936492 0.513564 1.936492 0 
C 1.936492 -0.513564 1.732451 -1.006162 1.369306 -1.369306 
C 1.006162 -1.732451 0.513564 -1.936492 0 -1.936492 
C -0.513564 -1.936492 -1.006162 -1.732451 -1.369306 -1.369306 
C -1.732451 -1.006162 -1.936492 -0.513564 -1.936492 0 
C -1.936492 0.513564 -1.732451 1.006162 -1.369306 1.369306 
C -1.006162 1.732451 -0.513564 1.936492 0 1.936492 
z
" style="stroke: #1f78b4"/>
    </defs>
    <g clip-path="url(#pd82bb93d6f)">
     <use xlink:href="#me29d13692d" x="49.845846" y="63.018523" style="fill: #1f78b4; stroke: #1f78b4"/>
     <use xlink:href="#me29d13692d" x="39.986777" y="153.034403" style="fill: #1f78b4; stroke: #1f78b4"/>
     <use xlink:href="#me29d13692d" x="54.624507" y="96.73699" style="fill: #1f78b4; stroke: #1f78b4"/>
     <use xlink:href="#me29d13692d" x="128.164817" y="78.31351" style="fill: #1f78b4; stroke: #1f78b4"/>
     <use xlink:href="#me29d13692d" x="234.590165" y="315.609917" style="fill: #1f78b4; stroke: #1f78b4"/>
     <use xlink:href="#me29d13692d" x="284.431751" y="243.715647" style="fill: #1f78b4; stroke: #1f78b4"/>
     <use xlink:href="#me29d13692d" x="118.62322" y="153.177121" style="fill: #1f78b4; stroke: #1f78b4"/>
     <use xlink:href="#me29d13692d" x="202.93306" y="228.591635" style="fill: #1f78b4; stroke: #1f78b4"/>
     <use xlink:href="#me29d13692d" x="369.55187" y="271.414985" style="fill: #1f78b4; stroke: #1f78b4"/>
     <use xlink:href="#me29d13692d" x="171.142275" y="63.849745" style="fill: #1f78b4; stroke: #1f78b4"/>
     <use xlink:href="#me29d13692d" x="98.358956" y="29.990083" style="fill: #1f78b4; stroke: #1f78b4"/>
     <use xlink:href="#me29d13692d" x="331.84987" y="123.255575" style="fill: #1f78b4; stroke: #1f78b4"/>
     <use xlink:href="#me29d13692d" x="348.858707" y="182.183726" style="fill: #1f78b4; stroke: #1f78b4"/>
     <use xlink:href="#me29d13692d" x="420.813223" y="104.230454" style="fill: #1f78b4; stroke: #1f78b4"/>
     <use xlink:href="#me29d13692d" x="350.665733" y="63.633232" style="fill: #1f78b4; stroke: #1f78b4"/>
     <use xlink:href="#me29d13692d" x="304.507817" y="180.948301" style="fill: #1f78b4; stroke: #1f78b4"/>
     <use xlink:href="#me29d13692d" x="241.697804" y="132.218388" style="fill: #1f78b4; stroke: #1f78b4"/>
     <use xlink:href="#me29d13692d" x="282.422395" y="32.857945" style="fill: #1f78b4; stroke: #1f78b4"/>
     <use xlink:href="#me29d13692d" x="145.919238" y="136.212799" style="fill: #1f78b4; stroke: #1f78b4"/>
    </g>
   </g>
   <g id="text_1">
    <g clip-path="url(#pd82bb93d6f)">
     <!-- 0 -->
     <g transform="translate(46.664596 65.777898) scale(0.1 -0.1)">
      <defs>
       <path id="DejaVuSans-30" d="M 2034 4250 
Q 1547 4250 1301 3770 
Q 1056 3291 1056 2328 
Q 1056 1369 1301 889 
Q 1547 409 2034 409 
Q 2525 409 2770 889 
Q 3016 1369 3016 2328 
Q 3016 3291 2770 3770 
Q 2525 4250 2034 4250 
z
M 2034 4750 
Q 2819 4750 3233 4129 
Q 3647 3509 3647 2328 
Q 3647 1150 3233 529 
Q 2819 -91 2034 -91 
Q 1250 -91 836 529 
Q 422 1150 422 2328 
Q 422 3509 836 4129 
Q 1250 4750 2034 4750 
z
" transform="scale(0.015625)"/>
      </defs>
      <use xlink:href="#DejaVuSans-30"/>
     </g>
    </g>
   </g>
   <g id="text_2">
    <g clip-path="url(#pd82bb93d6f)">
     <!-- 1 -->
     <g transform="translate(36.805527 155.793778) scale(0.1 -0.1)">
      <defs>
       <path id="DejaVuSans-31" d="M 794 531 
L 1825 531 
L 1825 4091 
L 703 3866 
L 703 4441 
L 1819 4666 
L 2450 4666 
L 2450 531 
L 3481 531 
L 3481 0 
L 794 0 
L 794 531 
z
" transform="scale(0.015625)"/>
      </defs>
      <use xlink:href="#DejaVuSans-31"/>
     </g>
    </g>
   </g>
   <g id="text_3">
    <g clip-path="url(#pd82bb93d6f)">
     <!-- 2 -->
     <g transform="translate(51.443257 99.496365) scale(0.1 -0.1)">
      <defs>
       <path id="DejaVuSans-32" d="M 1228 531 
L 3431 531 
L 3431 0 
L 469 0 
L 469 531 
Q 828 903 1448 1529 
Q 2069 2156 2228 2338 
Q 2531 2678 2651 2914 
Q 2772 3150 2772 3378 
Q 2772 3750 2511 3984 
Q 2250 4219 1831 4219 
Q 1534 4219 1204 4116 
Q 875 4013 500 3803 
L 500 4441 
Q 881 4594 1212 4672 
Q 1544 4750 1819 4750 
Q 2544 4750 2975 4387 
Q 3406 4025 3406 3419 
Q 3406 3131 3298 2873 
Q 3191 2616 2906 2266 
Q 2828 2175 2409 1742 
Q 1991 1309 1228 531 
z
" transform="scale(0.015625)"/>
      </defs>
      <use xlink:href="#DejaVuSans-32"/>
     </g>
    </g>
   </g>
   <g id="text_4">
    <g clip-path="url(#pd82bb93d6f)">
     <!-- 3 -->
     <g transform="translate(124.983567 81.072885) scale(0.1 -0.1)">
      <defs>
       <path id="DejaVuSans-33" d="M 2597 2516 
Q 3050 2419 3304 2112 
Q 3559 1806 3559 1356 
Q 3559 666 3084 287 
Q 2609 -91 1734 -91 
Q 1441 -91 1130 -33 
Q 819 25 488 141 
L 488 750 
Q 750 597 1062 519 
Q 1375 441 1716 441 
Q 2309 441 2620 675 
Q 2931 909 2931 1356 
Q 2931 1769 2642 2001 
Q 2353 2234 1838 2234 
L 1294 2234 
L 1294 2753 
L 1863 2753 
Q 2328 2753 2575 2939 
Q 2822 3125 2822 3475 
Q 2822 3834 2567 4026 
Q 2313 4219 1838 4219 
Q 1578 4219 1281 4162 
Q 984 4106 628 3988 
L 628 4550 
Q 988 4650 1302 4700 
Q 1616 4750 1894 4750 
Q 2613 4750 3031 4423 
Q 3450 4097 3450 3541 
Q 3450 3153 3228 2886 
Q 3006 2619 2597 2516 
z
" transform="scale(0.015625)"/>
      </defs>
      <use xlink:href="#DejaVuSans-33"/>
     </g>
    </g>
   </g>
   <g id="text_5">
    <g clip-path="url(#pd82bb93d6f)">
     <!-- 4 -->
     <g transform="translate(231.408915 318.369292) scale(0.1 -0.1)">
      <defs>
       <path id="DejaVuSans-34" d="M 2419 4116 
L 825 1625 
L 2419 1625 
L 2419 4116 
z
M 2253 4666 
L 3047 4666 
L 3047 1625 
L 3713 1625 
L 3713 1100 
L 3047 1100 
L 3047 0 
L 2419 0 
L 2419 1100 
L 313 1100 
L 313 1709 
L 2253 4666 
z
" transform="scale(0.015625)"/>
      </defs>
      <use xlink:href="#DejaVuSans-34"/>
     </g>
    </g>
   </g>
   <g id="text_6">
    <g clip-path="url(#pd82bb93d6f)">
     <!-- 5 -->
     <g transform="translate(281.250501 246.475022) scale(0.1 -0.1)">
      <defs>
       <path id="DejaVuSans-35" d="M 691 4666 
L 3169 4666 
L 3169 4134 
L 1269 4134 
L 1269 2991 
Q 1406 3038 1543 3061 
Q 1681 3084 1819 3084 
Q 2600 3084 3056 2656 
Q 3513 2228 3513 1497 
Q 3513 744 3044 326 
Q 2575 -91 1722 -91 
Q 1428 -91 1123 -41 
Q 819 9 494 109 
L 494 744 
Q 775 591 1075 516 
Q 1375 441 1709 441 
Q 2250 441 2565 725 
Q 2881 1009 2881 1497 
Q 2881 1984 2565 2268 
Q 2250 2553 1709 2553 
Q 1456 2553 1204 2497 
Q 953 2441 691 2322 
L 691 4666 
z
" transform="scale(0.015625)"/>
      </defs>
      <use xlink:href="#DejaVuSans-35"/>
     </g>
    </g>
   </g>
   <g id="text_7">
    <g clip-path="url(#pd82bb93d6f)">
     <!-- 6 -->
     <g transform="translate(115.44197 155.936496) scale(0.1 -0.1)">
      <defs>
       <path id="DejaVuSans-36" d="M 2113 2584 
Q 1688 2584 1439 2293 
Q 1191 2003 1191 1497 
Q 1191 994 1439 701 
Q 1688 409 2113 409 
Q 2538 409 2786 701 
Q 3034 994 3034 1497 
Q 3034 2003 2786 2293 
Q 2538 2584 2113 2584 
z
M 3366 4563 
L 3366 3988 
Q 3128 4100 2886 4159 
Q 2644 4219 2406 4219 
Q 1781 4219 1451 3797 
Q 1122 3375 1075 2522 
Q 1259 2794 1537 2939 
Q 1816 3084 2150 3084 
Q 2853 3084 3261 2657 
Q 3669 2231 3669 1497 
Q 3669 778 3244 343 
Q 2819 -91 2113 -91 
Q 1303 -91 875 529 
Q 447 1150 447 2328 
Q 447 3434 972 4092 
Q 1497 4750 2381 4750 
Q 2619 4750 2861 4703 
Q 3103 4656 3366 4563 
z
" transform="scale(0.015625)"/>
      </defs>
      <use xlink:href="#DejaVuSans-36"/>
     </g>
    </g>
   </g>
   <g id="text_8">
    <g clip-path="url(#pd82bb93d6f)">
     <!-- 7 -->
     <g transform="translate(199.75181 231.35101) scale(0.1 -0.1)">
      <defs>
       <path id="DejaVuSans-37" d="M 525 4666 
L 3525 4666 
L 3525 4397 
L 1831 0 
L 1172 0 
L 2766 4134 
L 525 4134 
L 525 4666 
z
" transform="scale(0.015625)"/>
      </defs>
      <use xlink:href="#DejaVuSans-37"/>
     </g>
    </g>
   </g>
   <g id="text_9">
    <g clip-path="url(#pd82bb93d6f)">
     <!-- 8 -->
     <g transform="translate(366.37062 274.17436) scale(0.1 -0.1)">
      <defs>
       <path id="DejaVuSans-38" d="M 2034 2216 
Q 1584 2216 1326 1975 
Q 1069 1734 1069 1313 
Q 1069 891 1326 650 
Q 1584 409 2034 409 
Q 2484 409 2743 651 
Q 3003 894 3003 1313 
Q 3003 1734 2745 1975 
Q 2488 2216 2034 2216 
z
M 1403 2484 
Q 997 2584 770 2862 
Q 544 3141 544 3541 
Q 544 4100 942 4425 
Q 1341 4750 2034 4750 
Q 2731 4750 3128 4425 
Q 3525 4100 3525 3541 
Q 3525 3141 3298 2862 
Q 3072 2584 2669 2484 
Q 3125 2378 3379 2068 
Q 3634 1759 3634 1313 
Q 3634 634 3220 271 
Q 2806 -91 2034 -91 
Q 1263 -91 848 271 
Q 434 634 434 1313 
Q 434 1759 690 2068 
Q 947 2378 1403 2484 
z
M 1172 3481 
Q 1172 3119 1398 2916 
Q 1625 2713 2034 2713 
Q 2441 2713 2670 2916 
Q 2900 3119 2900 3481 
Q 2900 3844 2670 4047 
Q 2441 4250 2034 4250 
Q 1625 4250 1398 4047 
Q 1172 3844 1172 3481 
z
" transform="scale(0.015625)"/>
      </defs>
      <use xlink:href="#DejaVuSans-38"/>
     </g>
    </g>
   </g>
   <g id="text_10">
    <g clip-path="url(#pd82bb93d6f)">
     <!-- 9 -->
     <g transform="translate(167.961025 66.60912) scale(0.1 -0.1)">
      <defs>
       <path id="DejaVuSans-39" d="M 703 97 
L 703 672 
Q 941 559 1184 500 
Q 1428 441 1663 441 
Q 2288 441 2617 861 
Q 2947 1281 2994 2138 
Q 2813 1869 2534 1725 
Q 2256 1581 1919 1581 
Q 1219 1581 811 2004 
Q 403 2428 403 3163 
Q 403 3881 828 4315 
Q 1253 4750 1959 4750 
Q 2769 4750 3195 4129 
Q 3622 3509 3622 2328 
Q 3622 1225 3098 567 
Q 2575 -91 1691 -91 
Q 1453 -91 1209 -44 
Q 966 3 703 97 
z
M 1959 2075 
Q 2384 2075 2632 2365 
Q 2881 2656 2881 3163 
Q 2881 3666 2632 3958 
Q 2384 4250 1959 4250 
Q 1534 4250 1286 3958 
Q 1038 3666 1038 3163 
Q 1038 2656 1286 2365 
Q 1534 2075 1959 2075 
z
" transform="scale(0.015625)"/>
      </defs>
      <use xlink:href="#DejaVuSans-39"/>
     </g>
    </g>
   </g>
   <g id="text_11">
    <g clip-path="url(#pd82bb93d6f)">
     <!-- 10 -->
     <g transform="translate(91.996456 32.749458) scale(0.1 -0.1)">
      <use xlink:href="#DejaVuSans-31"/>
      <use xlink:href="#DejaVuSans-30" x="63.623047"/>
     </g>
    </g>
   </g>
   <g id="text_12">
    <g clip-path="url(#pd82bb93d6f)">
     <!-- 11 -->
     <g transform="translate(325.48737 126.01495) scale(0.1 -0.1)">
      <use xlink:href="#DejaVuSans-31"/>
      <use xlink:href="#DejaVuSans-31" x="63.623047"/>
     </g>
    </g>
   </g>
   <g id="text_13">
    <g clip-path="url(#pd82bb93d6f)">
     <!-- 12 -->
     <g transform="translate(342.496207 184.943101) scale(0.1 -0.1)">
      <use xlink:href="#DejaVuSans-31"/>
      <use xlink:href="#DejaVuSans-32" x="63.623047"/>
     </g>
    </g>
   </g>
   <g id="text_14">
    <g clip-path="url(#pd82bb93d6f)">
     <!-- 13 -->
     <g transform="translate(414.450723 106.989829) scale(0.1 -0.1)">
      <use xlink:href="#DejaVuSans-31"/>
      <use xlink:href="#DejaVuSans-33" x="63.623047"/>
     </g>
    </g>
   </g>
   <g id="text_15">
    <g clip-path="url(#pd82bb93d6f)">
     <!-- 14 -->
     <g transform="translate(344.303233 66.392607) scale(0.1 -0.1)">
      <use xlink:href="#DejaVuSans-31"/>
      <use xlink:href="#DejaVuSans-34" x="63.623047"/>
     </g>
    </g>
   </g>
   <g id="text_16">
    <g clip-path="url(#pd82bb93d6f)">
     <!-- 15 -->
     <g transform="translate(298.145317 183.707676) scale(0.1 -0.1)">
      <use xlink:href="#DejaVuSans-31"/>
      <use xlink:href="#DejaVuSans-35" x="63.623047"/>
     </g>
    </g>
   </g>
   <g id="text_17">
    <g clip-path="url(#pd82bb93d6f)">
     <!-- 16 -->
     <g transform="translate(235.335304 134.977763) scale(0.1 -0.1)">
      <use xlink:href="#DejaVuSans-31"/>
      <use xlink:href="#DejaVuSans-36" x="63.623047"/>
     </g>
    </g>
   </g>
   <g id="text_18">
    <g clip-path="url(#pd82bb93d6f)">
     <!-- 17 -->
     <g transform="translate(276.059895 35.61732) scale(0.1 -0.1)">
      <use xlink:href="#DejaVuSans-31"/>
      <use xlink:href="#DejaVuSans-37" x="63.623047"/>
     </g>
    </g>
   </g>
   <g id="text_19">
    <g clip-path="url(#pd82bb93d6f)">
     <!-- 18 -->
     <g transform="translate(139.556738 138.972174) scale(0.1 -0.1)">
      <use xlink:href="#DejaVuSans-31"/>
      <use xlink:href="#DejaVuSans-38" x="63.623047"/>
     </g>
    </g>
   </g>
  </g>
 </g>
 <defs>
  <clipPath id="pd82bb93d6f">
   <rect x="0" y="0" width="460.8" height="345.6"/>
  </clipPath>
 </defs>
</svg>
