<?xml version="1.0" encoding="utf-8" standalone="no"?>
<!DOCTYPE svg PUBLIC "-//W3C//DTD SVG 1.1//EN"
  "http://www.w3.org/Graphics/SVG/1.1/DTD/svg11.dtd">
<svg xmlns:xlink="http://www.w3.org/1999/xlink" width="460.8pt" height="345.6pt" viewBox="0 0 460.8 345.6" xmlns="http://www.w3.org/2000/svg" version="1.1">
 <metadata>
  <rdf:RDF xmlns:dc="http://purl.org/dc/elements/1.1/" xmlns:cc="http://creativecommons.org/ns#" xmlns:rdf="http://www.w3.org/1999/02/22-rdf-syntax-ns#">
   <cc:Work>
    <dc:type rdf:resource="http://purl.org/dc/dcmitype/StillImage"/>
    <dc:date>2023-10-10T10:57:30.888365</dc:date>
    <dc:format>image/svg+xml</dc:format>
    <dc:creator>
     <cc:Agent>
      <dc:title>Matplotlib v3.6.1, https://matplotlib.org/</dc:title>
     </cc:Agent>
    </dc:creator>
   </cc:Work>
  </rdf:RDF>
 </metadata>
 <defs>
  <style type="text/css">*{stroke-linejoin: round; stroke-linecap: butt}</style>
 </defs>
 <g id="figure_1">
  <g id="patch_1">
   <path d="M 0 345.6 
L 460.8 345.6 
L 460.8 0 
L 0 0 
z
" style="fill: #ffffff"/>
  </g>
  <g id="axes_1">
   <g id="patch_2">
    <path d="M 239.06671 50.005409 
Q 205.226497 62.503469 172.435075 74.614184 
" clip-path="url(#pd402f08abe)" style="fill: none; stroke: #000000; stroke-linecap: round"/>
    <path d="M 176.88025 75.104509 
L 172.435075 74.614184 
L 175.494441 71.352239 
L 176.88025 75.104509 
z
" clip-path="url(#pd402f08abe)" style="stroke: #000000; stroke-linecap: round"/>
   </g>
   <g id="patch_3">
    <path d="M 242.628674 48.500277 
Q 261.122637 39.662631 278.607828 31.307043 
" clip-path="url(#pd402f08abe)" style="fill: none; stroke: #000000; stroke-linecap: round"/>
    <path d="M 274.136405 31.227161 
L 278.607828 31.307043 
L 275.861069 34.836252 
L 274.136405 31.227161 
z
" clip-path="url(#pd402f08abe)" style="stroke: #000000; stroke-linecap: round"/>
   </g>
   <g id="patch_4">
    <path d="M 242.566683 50.286006 
Q 264.801682 62.835585 286.063024 74.835625 
" clip-path="url(#pd402f08abe)" style="fill: none; stroke: #000000; stroke-linecap: round"/>
    <path d="M 283.562608 71.127807 
L 286.063024 74.835625 
L 281.59652 74.611268 
L 283.562608 71.127807 
z
" clip-path="url(#pd402f08abe)" style="stroke: #000000; stroke-linecap: round"/>
   </g>
   <g id="patch_5">
    <path d="M 279.616873 30.824854 
Q 261.122911 39.6625 243.63772 48.018088 
" clip-path="url(#pd402f08abe)" style="fill: none; stroke: #000000; stroke-linecap: round"/>
    <path d="M 248.109142 48.09797 
L 243.63772 48.018088 
L 246.384478 44.488879 
L 248.109142 48.09797 
z
" clip-path="url(#pd402f08abe)" style="stroke: #000000; stroke-linecap: round"/>
   </g>
   <g id="patch_6">
    <path d="M 281.667884 31.9052 
Q 285.044227 53.165447 288.245213 73.321498 
" clip-path="url(#pd402f08abe)" style="fill: none; stroke: #000000; stroke-linecap: round"/>
    <path d="M 289.593081 69.057316 
L 288.245213 73.321498 
L 285.642588 69.684695 
L 289.593081 69.057316 
z
" clip-path="url(#pd402f08abe)" style="stroke: #000000; stroke-linecap: round"/>
   </g>
   <g id="patch_7">
    <path d="M 143.899308 96.871283 
Q 155.985628 86.889599 167.209893 77.619857 
" clip-path="url(#pd402f08abe)" style="fill: none; stroke: #000000; stroke-linecap: round"/>
    <path d="M 162.852151 78.624888 
L 167.209893 77.619857 
L 165.399272 81.709069 
L 162.852151 78.624888 
z
" clip-path="url(#pd402f08abe)" style="stroke: #000000; stroke-linecap: round"/>
   </g>
   <g id="patch_8">
    <path d="M 142.650707 100.028132 
Q 146.113767 126.995237 149.434421 152.853414 
" clip-path="url(#pd402f08abe)" style="fill: none; stroke: #000000; stroke-linecap: round"/>
    <path d="M 150.908643 148.63125 
L 149.434421 152.853414 
L 146.941223 149.140737 
L 150.908643 148.63125 
z
" clip-path="url(#pd402f08abe)" style="stroke: #000000; stroke-linecap: round"/>
   </g>
   <g id="patch_9">
    <path d="M 213.157847 87.16413 
Q 192.297368 81.665395 172.517996 76.451634 
" clip-path="url(#pd402f08abe)" style="fill: none; stroke: #000000; stroke-linecap: round"/>
    <path d="M 175.876098 79.405132 
L 172.517996 76.451634 
L 176.895655 75.537251 
L 175.876098 79.405132 
z
" clip-path="url(#pd402f08abe)" style="stroke: #000000; stroke-linecap: round"/>
   </g>
   <g id="patch_10">
    <path d="M 215.952075 89.361475 
Q 228.20092 112.014942 239.917996 133.684935 
" clip-path="url(#pd402f08abe)" style="fill: none; stroke: #000000; stroke-linecap: round"/>
    <path d="M 239.774771 129.215093 
L 239.917996 133.684935 
L 236.256188 131.117609 
L 239.774771 129.215093 
z
" clip-path="url(#pd402f08abe)" style="stroke: #000000; stroke-linecap: round"/>
   </g>
   <g id="patch_11">
    <path d="M 240.448577 134.666212 
Q 228.199732 112.012745 216.482656 90.342752 
" clip-path="url(#pd402f08abe)" style="fill: none; stroke: #000000; stroke-linecap: round"/>
    <path d="M 216.62588 94.812594 
L 216.482656 90.342752 
L 220.144464 92.910078 
L 216.62588 94.812594 
z
" clip-path="url(#pd402f08abe)" style="stroke: #000000; stroke-linecap: round"/>
   </g>
   <g id="patch_12">
    <path d="M 241.198913 138.300864 
Q 238.82996 165.0816 236.559521 190.748651 
" clip-path="url(#pd402f08abe)" style="fill: none; stroke: #000000; stroke-linecap: round"/>
    <path d="M 238.904195 186.940436 
L 236.559521 190.748651 
L 234.919753 186.587983 
L 238.904195 186.940436 
z
" clip-path="url(#pd402f08abe)" style="stroke: #000000; stroke-linecap: round"/>
   </g>
   <g id="patch_13">
    <path d="M 237.234784 252.98236 
Q 227.372346 259.965596 218.422368 266.302753 
" clip-path="url(#pd402f08abe)" style="fill: none; stroke: #000000; stroke-linecap: round"/>
    <path d="M 222.842622 265.623526 
L 218.422368 266.302753 
L 220.531138 262.359013 
L 222.842622 265.623526 
z
" clip-path="url(#pd402f08abe)" style="stroke: #000000; stroke-linecap: round"/>
   </g>
   <g id="patch_14">
    <path d="M 238.729012 249.933107 
Q 237.551823 222.829307 236.423148 196.842487 
" clip-path="url(#pd402f08abe)" style="fill: none; stroke: #000000; stroke-linecap: round"/>
    <path d="M 234.598599 200.925503 
L 236.423148 196.842487 
L 238.594831 200.751936 
L 234.598599 200.925503 
z
" clip-path="url(#pd402f08abe)" style="stroke: #000000; stroke-linecap: round"/>
   </g>
   <g id="patch_15">
    <path d="M 287.039323 75.386655 
Q 264.804324 62.837076 243.542982 50.837035 
" clip-path="url(#pd402f08abe)" style="fill: none; stroke: #000000; stroke-linecap: round"/>
    <path d="M 246.043399 54.544853 
L 243.542982 50.837035 
L 248.009487 51.061393 
L 246.043399 54.544853 
z
" clip-path="url(#pd402f08abe)" style="stroke: #000000; stroke-linecap: round"/>
   </g>
   <g id="patch_16">
    <path d="M 288.420063 74.422495 
Q 285.043719 53.162247 281.842733 33.006196 
" clip-path="url(#pd402f08abe)" style="fill: none; stroke: #000000; stroke-linecap: round"/>
    <path d="M 280.494865 37.270379 
L 281.842733 33.006196 
L 284.445358 36.643 
L 280.494865 37.270379 
z
" clip-path="url(#pd402f08abe)" style="stroke: #000000; stroke-linecap: round"/>
   </g>
   <g id="patch_17">
    <path d="M 289.16583 78.22068 
Q 297.317127 112.977207 305.213142 146.645233 
" clip-path="url(#pd402f08abe)" style="fill: none; stroke: #000000; stroke-linecap: round"/>
    <path d="M 306.246988 142.294238 
L 305.213142 146.645233 
L 302.352653 143.207559 
L 306.246988 142.294238 
z
" clip-path="url(#pd402f08abe)" style="stroke: #000000; stroke-linecap: round"/>
   </g>
   <g id="patch_18">
    <path d="M 305.46934 147.737641 
Q 297.318043 112.981115 289.422028 79.313088 
" clip-path="url(#pd402f08abe)" style="fill: none; stroke: #000000; stroke-linecap: round"/>
    <path d="M 288.388182 83.664083 
L 289.422028 79.313088 
L 292.282517 82.750762 
L 288.388182 83.664083 
z
" clip-path="url(#pd402f08abe)" style="stroke: #000000; stroke-linecap: round"/>
   </g>
   <g id="patch_19">
    <path d="M 307.778321 150.147587 
Q 340.757063 159.452611 372.659782 168.454032 
" clip-path="url(#pd402f08abe)" style="fill: none; stroke: #000000; stroke-linecap: round"/>
    <path d="M 369.353185 165.442983 
L 372.659782 168.454032 
L 368.266985 169.292681 
L 369.353185 165.442983 
z
" clip-path="url(#pd402f08abe)" style="stroke: #000000; stroke-linecap: round"/>
   </g>
   <g id="patch_20">
    <path d="M 304.277114 150.657261 
Q 271.10337 171.703395 238.873697 192.150591 
" clip-path="url(#pd402f08abe)" style="fill: none; stroke: #000000; stroke-linecap: round"/>
    <path d="M 243.322726 191.696567 
L 238.873697 192.150591 
L 241.179896 188.318953 
L 243.322726 191.696567 
z
" clip-path="url(#pd402f08abe)" style="stroke: #000000; stroke-linecap: round"/>
   </g>
   <g id="patch_21">
    <path d="M 217.50953 266.9491 
Q 227.371968 259.965864 236.321947 253.628707 
" clip-path="url(#pd402f08abe)" style="fill: none; stroke: #000000; stroke-linecap: round"/>
    <path d="M 231.901693 254.307934 
L 236.321947 253.628707 
L 234.213176 257.572447 
L 231.901693 254.307934 
z
" clip-path="url(#pd402f08abe)" style="stroke: #000000; stroke-linecap: round"/>
   </g>
   <g id="patch_22">
    <path d="M 214.792023 269.630599 
Q 198.614249 291.838688 183.094774 313.143095 
" clip-path="url(#pd402f08abe)" style="fill: none; stroke: #000000; stroke-linecap: round"/>
    <path d="M 187.066534 311.087584 
L 183.094774 313.143095 
L 183.833421 308.732381 
L 187.066534 311.087584 
z
" clip-path="url(#pd402f08abe)" style="stroke: #000000; stroke-linecap: round"/>
   </g>
   <g id="patch_23">
    <path d="M 216.442117 266.203244 
Q 226.110109 230.931106 235.482552 196.737232 
" clip-path="url(#pd402f08abe)" style="fill: none; stroke: #000000; stroke-linecap: round"/>
    <path d="M 232.496309 200.066249 
L 235.482552 196.737232 
L 236.35402 201.123637 
L 232.496309 200.066249 
z
" clip-path="url(#pd402f08abe)" style="stroke: #000000; stroke-linecap: round"/>
   </g>
   <g id="patch_24">
    <path d="M 266.042988 235.203875 
Q 251.732433 215.284027 238.074198 196.272188 
" clip-path="url(#pd402f08abe)" style="fill: none; stroke: #000000; stroke-linecap: round"/>
    <path d="M 238.783712 200.687682 
L 238.074198 196.272188 
L 242.032302 198.353873 
L 238.783712 200.687682 
z
" clip-path="url(#pd402f08abe)" style="stroke: #000000; stroke-linecap: round"/>
   </g>
   <g id="patch_25">
    <path d="M 213.231673 147.638231 
Q 224.328333 169.847635 234.925282 191.056894 
" clip-path="url(#pd402f08abe)" style="fill: none; stroke: #000000; stroke-linecap: round"/>
    <path d="M 234.926578 186.584758 
L 234.925282 191.056894 
L 231.348351 188.372576 
L 234.926578 186.584758 
z
" clip-path="url(#pd402f08abe)" style="stroke: #000000; stroke-linecap: round"/>
   </g>
   <g id="patch_26">
    <path d="M 211.220788 144.341029 
Q 196.495121 124.224791 182.429854 105.010701 
" clip-path="url(#pd402f08abe)" style="fill: none; stroke: #000000; stroke-linecap: round"/>
    <path d="M 183.178757 109.419686 
L 182.429854 105.010701 
L 186.406383 107.05697 
L 183.178757 109.419686 
z
" clip-path="url(#pd402f08abe)" style="stroke: #000000; stroke-linecap: round"/>
   </g>
   <g id="patch_27">
    <path d="M 135.136899 126.46343 
Q 142.047143 140.305279 148.458005 153.146819 
" clip-path="url(#pd402f08abe)" style="fill: none; stroke: #000000; stroke-linecap: round"/>
    <path d="M 148.460767 148.674684 
L 148.458005 153.146819 
L 144.881954 150.461329 
L 148.460767 148.674684 
z
" clip-path="url(#pd402f08abe)" style="stroke: #000000; stroke-linecap: round"/>
   </g>
   <g id="patch_28">
    <path d="M 107.106531 151.523012 
Q 127.501544 153.60402 146.784299 155.571539 
" clip-path="url(#pd402f08abe)" style="fill: none; stroke: #000000; stroke-linecap: round"/>
    <path d="M 143.007976 153.175837 
L 146.784299 155.571539 
L 142.601944 157.155176 
L 143.007976 153.175837 
z
" clip-path="url(#pd402f08abe)" style="stroke: #000000; stroke-linecap: round"/>
   </g>
   <g id="patch_29">
    <path d="M 181.769672 104.108848 
Q 196.495338 124.225087 210.560605 143.439177 
" clip-path="url(#pd402f08abe)" style="fill: none; stroke: #000000; stroke-linecap: round"/>
    <path d="M 209.811703 139.030192 
L 210.560605 143.439177 
L 206.584076 141.392908 
L 209.811703 139.030192 
z
" clip-path="url(#pd402f08abe)" style="stroke: #000000; stroke-linecap: round"/>
   </g>
   <g id="patch_30">
    <path d="M 179.656533 104.221307 
Q 165.223357 129.214318 151.3493 153.239141 
" clip-path="url(#pd402f08abe)" style="fill: none; stroke: #000000; stroke-linecap: round"/>
    <path d="M 155.081606 150.775427 
L 151.3493 153.239141 
L 151.617711 148.775068 
L 155.081606 150.775427 
z
" clip-path="url(#pd402f08abe)" style="stroke: #000000; stroke-linecap: round"/>
   </g>
   <g id="patch_31">
    <path d="M 180.550469 100.611328 
Q 179.349556 69.339334 178.191547 39.18455 
" clip-path="url(#pd402f08abe)" style="fill: none; stroke: #000000; stroke-linecap: round"/>
    <path d="M 176.346516 43.258352 
L 178.191547 39.18455 
L 180.343569 43.104856 
L 176.346516 43.258352 
z
" clip-path="url(#pd402f08abe)" style="stroke: #000000; stroke-linecap: round"/>
   </g>
   <g id="patch_32">
    <path d="M 178.14869 38.068535 
Q 179.349602 69.340529 180.507611 99.495313 
" clip-path="url(#pd402f08abe)" style="fill: none; stroke: #000000; stroke-linecap: round"/>
    <path d="M 182.352643 95.421511 
L 180.507611 99.495313 
L 178.355589 95.575006 
L 182.352643 95.421511 
z
" clip-path="url(#pd402f08abe)" style="stroke: #000000; stroke-linecap: round"/>
   </g>
   <g id="patch_33">
    <path d="M 418.411023 188.081083 
Q 397.893959 179.072241 378.400592 170.512894 
" clip-path="url(#pd402f08abe)" style="fill: none; stroke: #000000; stroke-linecap: round"/>
    <path d="M 381.258998 173.9523 
L 378.400592 170.512894 
L 382.867161 170.289813 
L 381.258998 173.9523 
z
" clip-path="url(#pd402f08abe)" style="stroke: #000000; stroke-linecap: round"/>
   </g>
   <g id="patch_34">
    <path d="M 373.735447 168.757534 
Q 340.756705 159.45251 308.853985 150.451088 
" clip-path="url(#pd402f08abe)" style="fill: none; stroke: #000000; stroke-linecap: round"/>
    <path d="M 312.160582 153.462137 
L 308.853985 150.451088 
L 313.246783 149.61244 
L 312.160582 153.462137 
z
" clip-path="url(#pd402f08abe)" style="stroke: #000000; stroke-linecap: round"/>
   </g>
   <g id="patch_35">
    <path d="M 377.374118 170.06218 
Q 397.891182 179.071022 417.38455 187.630368 
" clip-path="url(#pd402f08abe)" style="fill: none; stroke: #000000; stroke-linecap: round"/>
    <path d="M 414.526143 184.190962 
L 417.38455 187.630368 
L 412.917981 187.853449 
L 414.526143 184.190962 
z
" clip-path="url(#pd402f08abe)" style="stroke: #000000; stroke-linecap: round"/>
   </g>
   <g id="patch_36">
    <path d="M 374.542444 170.905268 
Q 363.555609 187.699714 353.180845 203.558549 
" clip-path="url(#pd402f08abe)" style="fill: none; stroke: #000000; stroke-linecap: round"/>
    <path d="M 357.044332 201.306112 
L 353.180845 203.558549 
L 353.696988 199.116297 
L 357.044332 201.306112 
z
" clip-path="url(#pd402f08abe)" style="stroke: #000000; stroke-linecap: round"/>
   </g>
   <g id="patch_37">
    <path d="M 377.421261 168.622834 
Q 398.207505 161.060554 417.943086 153.880518 
" clip-path="url(#pd402f08abe)" style="fill: none; stroke: #000000; stroke-linecap: round"/>
    <path d="M 413.500347 153.368591 
L 417.943086 153.880518 
L 414.867902 157.127553 
L 413.500347 153.368591 
z
" clip-path="url(#pd402f08abe)" style="stroke: #000000; stroke-linecap: round"/>
   </g>
   <g id="patch_38">
    <path d="M 352.567634 204.495902 
Q 363.554469 187.701457 373.929232 171.842622 
" clip-path="url(#pd402f08abe)" style="fill: none; stroke: #000000; stroke-linecap: round"/>
    <path d="M 370.065746 174.095059 
L 373.929232 171.842622 
L 373.41309 176.284874 
L 370.065746 174.095059 
z
" clip-path="url(#pd402f08abe)" style="stroke: #000000; stroke-linecap: round"/>
   </g>
   <g id="patch_39">
    <path d="M 349.577359 206.233302 
Q 325.968804 207.658963 303.476249 209.017232 
" clip-path="url(#pd402f08abe)" style="fill: none; stroke: #000000; stroke-linecap: round"/>
    <path d="M 307.589531 210.772484 
L 303.476249 209.017232 
L 307.34842 206.779758 
L 307.589531 210.772484 
z
" clip-path="url(#pd402f08abe)" style="stroke: #000000; stroke-linecap: round"/>
   </g>
   <g id="patch_40">
    <path d="M 302.355161 209.084931 
Q 325.963717 207.65927 348.456272 206.301002 
" clip-path="url(#pd402f08abe)" style="fill: none; stroke: #000000; stroke-linecap: round"/>
    <path d="M 344.34299 204.545749 
L 348.456272 206.301002 
L 344.584101 208.538476 
L 344.34299 204.545749 
z
" clip-path="url(#pd402f08abe)" style="stroke: #000000; stroke-linecap: round"/>
   </g>
   <g id="patch_41">
    <path d="M 298.542382 208.749008 
Q 268.356852 201.495186 239.258408 194.502599 
" clip-path="url(#pd402f08abe)" style="fill: none; stroke: #000000; stroke-linecap: round"/>
    <path d="M 242.680373 197.381862 
L 239.258408 194.502599 
L 243.614998 193.492585 
L 242.680373 197.381862 
z
" clip-path="url(#pd402f08abe)" style="stroke: #000000; stroke-linecap: round"/>
   </g>
   <g id="patch_42">
    <path d="M 192.262548 189.490403 
Q 213.313165 191.545834 233.25104 193.492614 
" clip-path="url(#pd402f08abe)" style="fill: none; stroke: #000000; stroke-linecap: round"/>
    <path d="M 229.464333 191.113359 
L 233.25104 193.492614 
L 229.075613 195.094427 
L 229.464333 191.113359 
z
" clip-path="url(#pd402f08abe)" style="stroke: #000000; stroke-linecap: round"/>
   </g>
   <g id="patch_43">
    <path d="M 188.839636 188.068152 
Q 170.078026 172.590762 152.178858 157.824843 
" clip-path="url(#pd402f08abe)" style="fill: none; stroke: #000000; stroke-linecap: round"/>
    <path d="M 153.991707 161.913067 
L 152.178858 157.824843 
L 156.537147 158.827498 
L 153.991707 161.913067 
z
" clip-path="url(#pd402f08abe)" style="stroke: #000000; stroke-linecap: round"/>
   </g>
   <g id="patch_44">
    <path d="M 236.461359 191.858356 
Q 238.830312 165.07762 241.100751 139.410569 
" clip-path="url(#pd402f08abe)" style="fill: none; stroke: #000000; stroke-linecap: round"/>
    <path d="M 238.756077 143.218784 
L 241.100751 139.410569 
L 242.740519 143.571237 
L 238.756077 143.218784 
z
" clip-path="url(#pd402f08abe)" style="stroke: #000000; stroke-linecap: round"/>
   </g>
   <g id="patch_45">
    <path d="M 236.374449 195.721232 
Q 237.551638 222.825033 238.680313 248.811853 
" clip-path="url(#pd402f08abe)" style="fill: none; stroke: #000000; stroke-linecap: round"/>
    <path d="M 240.504862 244.728837 
L 238.680313 248.811853 
L 236.50863 244.902403 
L 240.504862 244.728837 
z
" clip-path="url(#pd402f08abe)" style="stroke: #000000; stroke-linecap: round"/>
   </g>
   <g id="patch_46">
    <path d="M 237.924398 192.752846 
Q 271.098142 171.706712 303.327815 151.259516 
" clip-path="url(#pd402f08abe)" style="fill: none; stroke: #000000; stroke-linecap: round"/>
    <path d="M 298.878786 151.71354 
L 303.327815 151.259516 
L 301.021617 155.091154 
L 298.878786 151.71354 
z
" clip-path="url(#pd402f08abe)" style="stroke: #000000; stroke-linecap: round"/>
   </g>
   <g id="patch_47">
    <path d="M 235.779826 195.652673 
Q 226.111834 230.92481 216.739391 265.118684 
" clip-path="url(#pd402f08abe)" style="fill: none; stroke: #000000; stroke-linecap: round"/>
    <path d="M 219.725634 261.789667 
L 216.739391 265.118684 
L 215.867923 260.73228 
L 219.725634 261.789667 
z
" clip-path="url(#pd402f08abe)" style="stroke: #000000; stroke-linecap: round"/>
   </g>
   <g id="patch_48">
    <path d="M 237.419573 195.36097 
Q 251.730128 215.280818 265.388363 234.292658 
" clip-path="url(#pd402f08abe)" style="fill: none; stroke: #000000; stroke-linecap: round"/>
    <path d="M 264.678849 229.877164 
L 265.388363 234.292658 
L 261.430259 232.210973 
L 264.678849 229.877164 
z
" clip-path="url(#pd402f08abe)" style="stroke: #000000; stroke-linecap: round"/>
   </g>
   <g id="patch_49">
    <path d="M 235.424614 192.056281 
Q 224.327954 169.846877 213.731005 148.637618 
" clip-path="url(#pd402f08abe)" style="fill: none; stroke: #000000; stroke-linecap: round"/>
    <path d="M 213.729709 153.109754 
L 213.731005 148.637618 
L 217.307936 151.321936 
L 213.729709 153.109754 
z
" clip-path="url(#pd402f08abe)" style="stroke: #000000; stroke-linecap: round"/>
   </g>
   <g id="patch_50">
    <path d="M 238.173405 194.241864 
Q 268.358935 201.495686 297.457379 208.488273 
" clip-path="url(#pd402f08abe)" style="fill: none; stroke: #000000; stroke-linecap: round"/>
    <path d="M 294.035414 205.60901 
L 297.457379 208.488273 
L 293.10079 209.498287 
L 294.035414 205.60901 
z
" clip-path="url(#pd402f08abe)" style="stroke: #000000; stroke-linecap: round"/>
   </g>
   <g id="patch_51">
    <path d="M 234.363601 193.601247 
Q 213.312984 191.545816 193.375109 189.599036 
" clip-path="url(#pd402f08abe)" style="fill: none; stroke: #000000; stroke-linecap: round"/>
    <path d="M 197.161816 191.97829 
L 193.375109 189.599036 
L 197.550537 187.997223 
L 197.161816 191.97829 
z
" clip-path="url(#pd402f08abe)" style="stroke: #000000; stroke-linecap: round"/>
   </g>
   <g id="patch_52">
    <path d="M 234.514652 193.010836 
Q 193.056776 174.835447 152.622854 157.108966 
" clip-path="url(#pd402f08abe)" style="fill: none; stroke: #000000; stroke-linecap: round"/>
    <path d="M 155.483233 160.546732 
L 152.622854 157.108966 
L 157.089294 156.883323 
L 155.483233 160.546732 
z
" clip-path="url(#pd402f08abe)" style="stroke: #000000; stroke-linecap: round"/>
   </g>
   <g id="patch_53">
    <path d="M 149.576497 153.959775 
Q 146.113437 126.99267 142.792784 101.134494 
" clip-path="url(#pd402f08abe)" style="fill: none; stroke: #000000; stroke-linecap: round"/>
    <path d="M 141.318562 105.356658 
L 142.792784 101.134494 
L 145.285982 104.84717 
L 141.318562 105.356658 
z
" clip-path="url(#pd402f08abe)" style="stroke: #000000; stroke-linecap: round"/>
   </g>
   <g id="patch_54">
    <path d="M 148.959615 154.151588 
Q 142.04937 140.30974 135.638509 127.4682 
" clip-path="url(#pd402f08abe)" style="fill: none; stroke: #000000; stroke-linecap: round"/>
    <path d="M 135.635747 131.940335 
L 135.638509 127.4682 
L 139.21456 130.15369 
L 135.635747 131.940335 
z
" clip-path="url(#pd402f08abe)" style="stroke: #000000; stroke-linecap: round"/>
   </g>
   <g id="patch_55">
    <path d="M 147.89686 155.685059 
Q 127.501846 153.604051 108.219092 151.636533 
" clip-path="url(#pd402f08abe)" style="fill: none; stroke: #000000; stroke-linecap: round"/>
    <path d="M 111.995414 154.032235 
L 108.219092 151.636533 
L 112.401447 150.052896 
L 111.995414 154.032235 
z
" clip-path="url(#pd402f08abe)" style="stroke: #000000; stroke-linecap: round"/>
   </g>
   <g id="patch_56">
    <path d="M 150.791481 154.20508 
Q 165.224656 129.212069 179.098714 105.187245 
" clip-path="url(#pd402f08abe)" style="fill: none; stroke: #000000; stroke-linecap: round"/>
    <path d="M 175.366408 107.65096 
L 179.098714 105.187245 
L 178.830303 109.651319 
L 175.366408 107.65096 
z
" clip-path="url(#pd402f08abe)" style="stroke: #000000; stroke-linecap: round"/>
   </g>
   <g id="patch_57">
    <path d="M 151.319265 157.115722 
Q 170.080876 172.593113 187.980044 187.359032 
" clip-path="url(#pd402f08abe)" style="fill: none; stroke: #000000; stroke-linecap: round"/>
    <path d="M 186.167195 183.270807 
L 187.980044 187.359032 
L 183.621755 186.356376 
L 186.167195 183.270807 
z
" clip-path="url(#pd402f08abe)" style="stroke: #000000; stroke-linecap: round"/>
   </g>
   <g id="patch_58">
    <path d="M 151.59919 156.660185 
Q 193.057066 174.835574 233.490987 192.562055 
" clip-path="url(#pd402f08abe)" style="fill: none; stroke: #000000; stroke-linecap: round"/>
    <path d="M 230.630609 189.124289 
L 233.490987 192.562055 
L 229.024548 192.787698 
L 230.630609 189.124289 
z
" clip-path="url(#pd402f08abe)" style="stroke: #000000; stroke-linecap: round"/>
   </g>
   <g id="patch_59">
    <path d="M 150.28663 153.9993 
Q 159.695326 115.775856 168.836795 78.63804 
" clip-path="url(#pd402f08abe)" style="fill: none; stroke: #000000; stroke-linecap: round"/>
    <path d="M 165.938702 82.044073 
L 168.836795 78.63804 
L 169.822765 83.000134 
L 165.938702 82.044073 
z
" clip-path="url(#pd402f08abe)" style="stroke: #000000; stroke-linecap: round"/>
   </g>
   <g id="patch_60">
    <path d="M 149.534409 157.798963 
Q 143.684407 196.625207 138.000981 234.345895 
" clip-path="url(#pd402f08abe)" style="fill: none; stroke: #000000; stroke-linecap: round"/>
    <path d="M 140.574617 230.68852 
L 138.000981 234.345895 
L 136.619262 230.092561 
L 140.574617 230.68852 
z
" clip-path="url(#pd402f08abe)" style="stroke: #000000; stroke-linecap: round"/>
   </g>
   <g id="patch_61">
    <path d="M 148.172506 156.894432 
Q 126.548303 170.161522 105.877072 182.843935 
" clip-path="url(#pd402f08abe)" style="fill: none; stroke: #000000; stroke-linecap: round"/>
    <path d="M 110.332425 182.456861 
L 105.877072 182.843935 
L 108.240625 179.047408 
L 110.332425 182.456861 
z
" clip-path="url(#pd402f08abe)" style="stroke: #000000; stroke-linecap: round"/>
   </g>
   <g id="patch_62">
    <path d="M 148.642375 157.41357 
Q 133.727657 176.761631 119.495524 195.224211 
" clip-path="url(#pd402f08abe)" style="fill: none; stroke: #000000; stroke-linecap: round"/>
    <path d="M 123.521613 193.277263 
L 119.495524 195.224211 
L 120.353619 190.835171 
L 123.521613 193.277263 
z
" clip-path="url(#pd402f08abe)" style="stroke: #000000; stroke-linecap: round"/>
   </g>
   <g id="patch_63">
    <path d="M 148.075318 155.046703 
Q 116.44557 139.938794 85.824678 125.312764 
" clip-path="url(#pd402f08abe)" style="fill: none; stroke: #000000; stroke-linecap: round"/>
    <path d="M 88.572063 128.841486 
L 85.824678 125.312764 
L 90.296086 125.23209 
L 88.572063 128.841486 
z
" clip-path="url(#pd402f08abe)" style="stroke: #000000; stroke-linecap: round"/>
   </g>
   <g id="patch_64">
    <path d="M 418.994762 153.497906 
Q 398.208518 161.060185 378.472937 168.240222 
" clip-path="url(#pd402f08abe)" style="fill: none; stroke: #000000; stroke-linecap: round"/>
    <path d="M 382.915676 168.752148 
L 378.472937 168.240222 
L 381.548121 164.993186 
L 382.915676 168.752148 
z
" clip-path="url(#pd402f08abe)" style="stroke: #000000; stroke-linecap: round"/>
   </g>
   <g id="patch_65">
    <path d="M 108.100783 43.777944 
Q 137.972649 59.279005 166.852137 74.265103 
" clip-path="url(#pd402f08abe)" style="fill: none; stroke: #000000; stroke-linecap: round"/>
    <path d="M 164.222893 70.647497 
L 166.852137 74.265103 
L 162.380505 74.197935 
L 164.222893 70.647497 
z
" clip-path="url(#pd402f08abe)" style="stroke: #000000; stroke-linecap: round"/>
   </g>
   <g id="patch_66">
    <path d="M 104.454346 43.012438 
Q 79.717064 44.614116 56.09548 46.143556 
" clip-path="url(#pd402f08abe)" style="fill: none; stroke: #000000; stroke-linecap: round"/>
    <path d="M 60.216346 47.880928 
L 56.09548 46.143556 
L 59.957897 43.889286 
L 60.216346 47.880928 
z
" clip-path="url(#pd402f08abe)" style="stroke: #000000; stroke-linecap: round"/>
   </g>
   <g id="patch_67">
    <path d="M 171.381578 75.003268 
Q 205.221791 62.505207 238.013213 50.394493 
" clip-path="url(#pd402f08abe)" style="fill: none; stroke: #000000; stroke-linecap: round"/>
    <path d="M 233.568038 49.904168 
L 238.013213 50.394493 
L 234.953847 53.656438 
L 233.568038 49.904168 
z
" clip-path="url(#pd402f08abe)" style="stroke: #000000; stroke-linecap: round"/>
   </g>
   <g id="patch_68">
    <path d="M 168.071084 76.908629 
Q 155.984764 86.890313 144.760499 96.160055 
" clip-path="url(#pd402f08abe)" style="fill: none; stroke: #000000; stroke-linecap: round"/>
    <path d="M 149.118241 95.155024 
L 144.760499 96.160055 
L 146.571119 92.070843 
L 149.118241 95.155024 
z
" clip-path="url(#pd402f08abe)" style="stroke: #000000; stroke-linecap: round"/>
   </g>
   <g id="patch_69">
    <path d="M 171.439562 76.167363 
Q 192.30004 81.666099 212.079413 86.879859 
" clip-path="url(#pd402f08abe)" style="fill: none; stroke: #000000; stroke-linecap: round"/>
    <path d="M 208.72131 83.926361 
L 212.079413 86.879859 
L 207.701753 87.794242 
L 208.72131 83.926361 
z
" clip-path="url(#pd402f08abe)" style="stroke: #000000; stroke-linecap: round"/>
   </g>
   <g id="patch_70">
    <path d="M 169.103151 77.555951 
Q 159.694455 115.779395 150.552987 152.917211 
" clip-path="url(#pd402f08abe)" style="fill: none; stroke: #000000; stroke-linecap: round"/>
    <path d="M 153.45108 149.511179 
L 150.552987 152.917211 
L 149.567017 148.555117 
L 153.45108 149.511179 
z
" clip-path="url(#pd402f08abe)" style="stroke: #000000; stroke-linecap: round"/>
   </g>
   <g id="patch_71">
    <path d="M 167.850427 74.783134 
Q 137.978562 59.282074 109.099074 44.295976 
" clip-path="url(#pd402f08abe)" style="fill: none; stroke: #000000; stroke-linecap: round"/>
    <path d="M 111.728318 47.913582 
L 109.099074 44.295976 
L 113.570705 44.363144 
L 111.728318 47.913582 
z
" clip-path="url(#pd402f08abe)" style="stroke: #000000; stroke-linecap: round"/>
   </g>
   <g id="patch_72">
    <path d="M 182.43716 314.045837 
Q 198.614934 291.837748 214.134409 270.533341 
" clip-path="url(#pd402f08abe)" style="fill: none; stroke: #000000; stroke-linecap: round"/>
    <path d="M 210.16265 272.588852 
L 214.134409 270.533341 
L 213.395762 274.944055 
L 210.16265 272.588852 
z
" clip-path="url(#pd402f08abe)" style="stroke: #000000; stroke-linecap: round"/>
   </g>
   <g id="patch_73">
    <path d="M 179.503394 314.886835 
Q 162.181527 307.906676 145.896664 301.344396 
" clip-path="url(#pd402f08abe)" style="fill: none; stroke: #000000; stroke-linecap: round"/>
    <path d="M 148.859236 304.694495 
L 145.896664 301.344396 
L 150.354287 300.984398 
L 148.859236 304.694495 
z
" clip-path="url(#pd402f08abe)" style="stroke: #000000; stroke-linecap: round"/>
   </g>
   <g id="patch_74">
    <path d="M 144.861598 300.927297 
Q 162.183465 307.907456 178.468328 314.469736 
" clip-path="url(#pd402f08abe)" style="fill: none; stroke: #000000; stroke-linecap: round"/>
    <path d="M 175.505756 311.119637 
L 178.468328 314.469736 
L 174.010705 314.829734 
L 175.505756 311.119637 
z
" clip-path="url(#pd402f08abe)" style="stroke: #000000; stroke-linecap: round"/>
   </g>
   <g id="patch_75">
    <path d="M 142.897682 298.275156 
Q 140.306296 268.787142 137.812785 240.41287 
" clip-path="url(#pd402f08abe)" style="fill: none; stroke: #000000; stroke-linecap: round"/>
    <path d="M 136.170631 244.572598 
L 137.812785 240.41287 
L 140.155274 244.22243 
L 136.170631 244.572598 
z
" clip-path="url(#pd402f08abe)" style="stroke: #000000; stroke-linecap: round"/>
   </g>
   <g id="patch_76">
    <path d="M 137.834252 235.452475 
Q 143.684253 196.626232 149.367679 158.905543 
" clip-path="url(#pd402f08abe)" style="fill: none; stroke: #000000; stroke-linecap: round"/>
    <path d="M 146.794043 162.562919 
L 149.367679 158.905543 
L 150.749398 163.158877 
L 146.794043 162.562919 
z
" clip-path="url(#pd402f08abe)" style="stroke: #000000; stroke-linecap: round"/>
   </g>
   <g id="patch_77">
    <path d="M 137.714888 239.298874 
Q 140.306274 268.786888 142.799785 297.161159 
" clip-path="url(#pd402f08abe)" style="fill: none; stroke: #000000; stroke-linecap: round"/>
    <path d="M 144.441939 293.001432 
L 142.799785 297.161159 
L 140.457295 293.3516 
L 144.441939 293.001432 
z
" clip-path="url(#pd402f08abe)" style="stroke: #000000; stroke-linecap: round"/>
   </g>
   <g id="patch_78">
    <path d="M 104.922348 183.429686 
Q 126.546551 170.162597 147.217782 157.480184 
" clip-path="url(#pd402f08abe)" style="fill: none; stroke: #000000; stroke-linecap: round"/>
    <path d="M 142.762429 157.867258 
L 147.217782 157.480184 
L 144.85423 161.276711 
L 142.762429 157.867258 
z
" clip-path="url(#pd402f08abe)" style="stroke: #000000; stroke-linecap: round"/>
   </g>
   <g id="patch_79">
    <path d="M 104.698278 185.754303 
Q 110.452159 191.044747 115.38302 195.578461 
" clip-path="url(#pd402f08abe)" style="fill: none; stroke: #000000; stroke-linecap: round"/>
    <path d="M 113.792179 191.398841 
L 115.38302 195.578461 
L 111.084819 194.343362 
L 113.792179 191.398841 
z
" clip-path="url(#pd402f08abe)" style="stroke: #000000; stroke-linecap: round"/>
   </g>
   <g id="patch_80">
    <path d="M 118.810829 196.112429 
Q 133.725547 176.764368 147.95768 158.301788 
" clip-path="url(#pd402f08abe)" style="fill: none; stroke: #000000; stroke-linecap: round"/>
    <path d="M 143.931591 160.248736 
L 147.95768 158.301788 
L 147.099585 162.690828 
L 143.931591 160.248736 
z
" clip-path="url(#pd402f08abe)" style="stroke: #000000; stroke-linecap: round"/>
   </g>
   <g id="patch_81">
    <path d="M 116.203186 196.332568 
Q 110.449306 191.042124 105.518444 186.50841 
" clip-path="url(#pd402f08abe)" style="fill: none; stroke: #000000; stroke-linecap: round"/>
    <path d="M 107.109286 190.688031 
L 105.518444 186.50841 
L 109.816645 187.74351 
L 107.109286 190.688031 
z
" clip-path="url(#pd402f08abe)" style="stroke: #000000; stroke-linecap: round"/>
   </g>
   <g id="patch_82">
    <path d="M 84.813976 124.830004 
Q 116.443725 139.937913 147.064616 154.563943 
" clip-path="url(#pd402f08abe)" style="fill: none; stroke: #000000; stroke-linecap: round"/>
    <path d="M 144.317232 151.035221 
L 147.064616 154.563943 
L 142.593208 154.644617 
L 144.317232 151.035221 
z
" clip-path="url(#pd402f08abe)" style="stroke: #000000; stroke-linecap: round"/>
   </g>
   <g id="patch_83">
    <path d="M 81.559382 122.78115 
Q 61.527953 106.641119 42.367121 91.202559 
" clip-path="url(#pd402f08abe)" style="fill: none; stroke: #000000; stroke-linecap: round"/>
    <path d="M 44.227034 95.269587 
L 42.367121 91.202559 
L 46.736692 92.154845 
L 44.227034 95.269587 
z
" clip-path="url(#pd402f08abe)" style="stroke: #000000; stroke-linecap: round"/>
   </g>
   <g id="patch_84">
    <path d="M 41.493393 90.498565 
Q 61.524821 106.638596 80.685653 122.077156 
" clip-path="url(#pd402f08abe)" style="fill: none; stroke: #000000; stroke-linecap: round"/>
    <path d="M 78.82574 118.010128 
L 80.685653 122.077156 
L 76.316083 121.12487 
L 78.82574 118.010128 
z
" clip-path="url(#pd402f08abe)" style="stroke: #000000; stroke-linecap: round"/>
   </g>
   <g id="patch_85">
    <path d="M 40.55049 87.431522 
Q 46.518467 67.812824 52.161063 49.263765 
" clip-path="url(#pd402f08abe)" style="fill: none; stroke: #000000; stroke-linecap: round"/>
    <path d="M 49.083512 52.508558 
L 52.161063 49.263765 
L 52.910367 53.672682 
L 49.083512 52.508558 
z
" clip-path="url(#pd402f08abe)" style="stroke: #000000; stroke-linecap: round"/>
   </g>
   <g id="patch_86">
    <path d="M 54.980626 46.21574 
Q 79.717908 44.614062 103.339492 43.084622 
" clip-path="url(#pd402f08abe)" style="fill: none; stroke: #000000; stroke-linecap: round"/>
    <path d="M 99.218626 41.34725 
L 103.339492 43.084622 
L 99.477075 45.338892 
L 99.218626 41.34725 
z
" clip-path="url(#pd402f08abe)" style="stroke: #000000; stroke-linecap: round"/>
   </g>
   <g id="patch_87">
    <path d="M 52.486533 48.193836 
Q 46.518556 67.812534 40.87596 86.361593 
" clip-path="url(#pd402f08abe)" style="fill: none; stroke: #000000; stroke-linecap: round"/>
    <path d="M 43.953511 83.1168 
L 40.87596 86.361593 
L 40.126656 81.952677 
L 43.953511 83.1168 
z
" clip-path="url(#pd402f08abe)" style="stroke: #000000; stroke-linecap: round"/>
   </g>
   <g id="PathCollection_1">
    <defs>
     <path id="m95c3e9446b" d="M 0 1.936492 
C 0.513564 1.936492 1.006162 1.732451 1.369306 1.369306 
C 1.732451 1.006162 1.936492 0.513564 1.936492 0 
C 1.936492 -0.513564 1.732451 -1.006162 1.369306 -1.369306 
C 1.006162 -1.732451 0.513564 -1.936492 0 -1.936492 
C -0.513564 -1.936492 -1.006162 -1.732451 -1.369306 -1.369306 
C -1.732451 -1.006162 -1.936492 -0.513564 -1.936492 0 
C -1.936492 0.513564 -1.732451 1.006162 -1.369306 1.369306 
C -1.006162 1.732451 -0.513564 1.936492 0 1.936492 
z
" style="stroke: #1f78b4"/>
    </defs>
    <g clip-path="url(#pd402f08abe)">
     <use xlink:href="#m95c3e9446b" x="240.881804" y="49.335049" style="fill: #1f78b4; stroke: #1f78b4"/>
     <use xlink:href="#m95c3e9446b" x="281.363744" y="29.990083" style="fill: #1f78b4; stroke: #1f78b4"/>
     <use xlink:href="#m95c3e9446b" x="142.403908" y="98.106284" style="fill: #1f78b4; stroke: #1f78b4"/>
     <use xlink:href="#m95c3e9446b" x="215.030924" y="87.657865" style="fill: #1f78b4; stroke: #1f78b4"/>
     <use xlink:href="#m95c3e9446b" x="241.369728" y="136.369822" style="fill: #1f78b4; stroke: #1f78b4"/>
     <use xlink:href="#m95c3e9446b" x="238.812916" y="251.864942" style="fill: #1f78b4; stroke: #1f78b4"/>
     <use xlink:href="#m95c3e9446b" x="288.724203" y="76.337612" style="fill: #1f78b4; stroke: #1f78b4"/>
     <use xlink:href="#m95c3e9446b" x="305.910968" y="149.620709" style="fill: #1f78b4; stroke: #1f78b4"/>
     <use xlink:href="#m95c3e9446b" x="215.931398" y="268.066519" style="fill: #1f78b4; stroke: #1f78b4"/>
     <use xlink:href="#m95c3e9446b" x="267.172017" y="236.775448" style="fill: #1f78b4; stroke: #1f78b4"/>
     <use xlink:href="#m95c3e9446b" x="212.365743" y="145.905114" style="fill: #1f78b4; stroke: #1f78b4"/>
     <use xlink:href="#m95c3e9446b" x="134.273217" y="124.733396" style="fill: #1f78b4; stroke: #1f78b4"/>
     <use xlink:href="#m95c3e9446b" x="105.180094" y="151.326448" style="fill: #1f78b4; stroke: #1f78b4"/>
     <use xlink:href="#m95c3e9446b" x="180.624717" y="102.544764" style="fill: #1f78b4; stroke: #1f78b4"/>
     <use xlink:href="#m95c3e9446b" x="178.074441" y="36.135099" style="fill: #1f78b4; stroke: #1f78b4"/>
     <use xlink:href="#m95c3e9446b" x="420.182342" y="188.858851" style="fill: #1f78b4; stroke: #1f78b4"/>
     <use xlink:href="#m95c3e9446b" x="375.6028" y="169.284411" style="fill: #1f78b4; stroke: #1f78b4"/>
     <use xlink:href="#m95c3e9446b" x="351.507278" y="206.11676" style="fill: #1f78b4; stroke: #1f78b4"/>
     <use xlink:href="#m95c3e9446b" x="300.425243" y="209.201474" style="fill: #1f78b4; stroke: #1f78b4"/>
     <use xlink:href="#m95c3e9446b" x="190.335605" y="189.302251" style="fill: #1f78b4; stroke: #1f78b4"/>
     <use xlink:href="#m95c3e9446b" x="236.290545" y="193.789398" style="fill: #1f78b4; stroke: #1f78b4"/>
     <use xlink:href="#m95c3e9446b" x="149.823297" y="155.881623" style="fill: #1f78b4; stroke: #1f78b4"/>
     <use xlink:href="#m95c3e9446b" x="420.813223" y="152.836328" style="fill: #1f78b4; stroke: #1f78b4"/>
     <use xlink:href="#m95c3e9446b" x="106.384726" y="42.887451" style="fill: #1f78b4; stroke: #1f78b4"/>
     <use xlink:href="#m95c3e9446b" x="169.566484" y="75.673628" style="fill: #1f78b4; stroke: #1f78b4"/>
     <use xlink:href="#m95c3e9446b" x="181.297785" y="315.609917" style="fill: #1f78b4; stroke: #1f78b4"/>
     <use xlink:href="#m95c3e9446b" x="143.067206" y="300.204215" style="fill: #1f78b4; stroke: #1f78b4"/>
     <use xlink:href="#m95c3e9446b" x="137.545363" y="237.369815" style="fill: #1f78b4; stroke: #1f78b4"/>
     <use xlink:href="#m95c3e9446b" x="103.271557" y="184.442495" style="fill: #1f78b4; stroke: #1f78b4"/>
     <use xlink:href="#m95c3e9446b" x="117.629907" y="197.644376" style="fill: #1f78b4; stroke: #1f78b4"/>
     <use xlink:href="#m95c3e9446b" x="83.065998" y="123.995084" style="fill: #1f78b4; stroke: #1f78b4"/>
     <use xlink:href="#m95c3e9446b" x="39.986777" y="89.284631" style="fill: #1f78b4; stroke: #1f78b4"/>
     <use xlink:href="#m95c3e9446b" x="53.050246" y="46.340727" style="fill: #1f78b4; stroke: #1f78b4"/>
    </g>
   </g>
   <g id="text_1">
    <g clip-path="url(#pd402f08abe)">
     <!-- 0 -->
     <g transform="translate(237.700554 52.094424) scale(0.1 -0.1)">
      <defs>
       <path id="DejaVuSans-30" d="M 2034 4250 
Q 1547 4250 1301 3770 
Q 1056 3291 1056 2328 
Q 1056 1369 1301 889 
Q 1547 409 2034 409 
Q 2525 409 2770 889 
Q 3016 1369 3016 2328 
Q 3016 3291 2770 3770 
Q 2525 4250 2034 4250 
z
M 2034 4750 
Q 2819 4750 3233 4129 
Q 3647 3509 3647 2328 
Q 3647 1150 3233 529 
Q 2819 -91 2034 -91 
Q 1250 -91 836 529 
Q 422 1150 422 2328 
Q 422 3509 836 4129 
Q 1250 4750 2034 4750 
z
" transform="scale(0.015625)"/>
      </defs>
      <use xlink:href="#DejaVuSans-30"/>
     </g>
    </g>
   </g>
   <g id="text_2">
    <g clip-path="url(#pd402f08abe)">
     <!-- 1 -->
     <g transform="translate(278.182494 32.749458) scale(0.1 -0.1)">
      <defs>
       <path id="DejaVuSans-31" d="M 794 531 
L 1825 531 
L 1825 4091 
L 703 3866 
L 703 4441 
L 1819 4666 
L 2450 4666 
L 2450 531 
L 3481 531 
L 3481 0 
L 794 0 
L 794 531 
z
" transform="scale(0.015625)"/>
      </defs>
      <use xlink:href="#DejaVuSans-31"/>
     </g>
    </g>
   </g>
   <g id="text_3">
    <g clip-path="url(#pd402f08abe)">
     <!-- 2 -->
     <g transform="translate(139.222658 100.865659) scale(0.1 -0.1)">
      <defs>
       <path id="DejaVuSans-32" d="M 1228 531 
L 3431 531 
L 3431 0 
L 469 0 
L 469 531 
Q 828 903 1448 1529 
Q 2069 2156 2228 2338 
Q 2531 2678 2651 2914 
Q 2772 3150 2772 3378 
Q 2772 3750 2511 3984 
Q 2250 4219 1831 4219 
Q 1534 4219 1204 4116 
Q 875 4013 500 3803 
L 500 4441 
Q 881 4594 1212 4672 
Q 1544 4750 1819 4750 
Q 2544 4750 2975 4387 
Q 3406 4025 3406 3419 
Q 3406 3131 3298 2873 
Q 3191 2616 2906 2266 
Q 2828 2175 2409 1742 
Q 1991 1309 1228 531 
z
" transform="scale(0.015625)"/>
      </defs>
      <use xlink:href="#DejaVuSans-32"/>
     </g>
    </g>
   </g>
   <g id="text_4">
    <g clip-path="url(#pd402f08abe)">
     <!-- 3 -->
     <g transform="translate(211.849674 90.41724) scale(0.1 -0.1)">
      <defs>
       <path id="DejaVuSans-33" d="M 2597 2516 
Q 3050 2419 3304 2112 
Q 3559 1806 3559 1356 
Q 3559 666 3084 287 
Q 2609 -91 1734 -91 
Q 1441 -91 1130 -33 
Q 819 25 488 141 
L 488 750 
Q 750 597 1062 519 
Q 1375 441 1716 441 
Q 2309 441 2620 675 
Q 2931 909 2931 1356 
Q 2931 1769 2642 2001 
Q 2353 2234 1838 2234 
L 1294 2234 
L 1294 2753 
L 1863 2753 
Q 2328 2753 2575 2939 
Q 2822 3125 2822 3475 
Q 2822 3834 2567 4026 
Q 2313 4219 1838 4219 
Q 1578 4219 1281 4162 
Q 984 4106 628 3988 
L 628 4550 
Q 988 4650 1302 4700 
Q 1616 4750 1894 4750 
Q 2613 4750 3031 4423 
Q 3450 4097 3450 3541 
Q 3450 3153 3228 2886 
Q 3006 2619 2597 2516 
z
" transform="scale(0.015625)"/>
      </defs>
      <use xlink:href="#DejaVuSans-33"/>
     </g>
    </g>
   </g>
   <g id="text_5">
    <g clip-path="url(#pd402f08abe)">
     <!-- 4 -->
     <g transform="translate(238.188478 139.129197) scale(0.1 -0.1)">
      <defs>
       <path id="DejaVuSans-34" d="M 2419 4116 
L 825 1625 
L 2419 1625 
L 2419 4116 
z
M 2253 4666 
L 3047 4666 
L 3047 1625 
L 3713 1625 
L 3713 1100 
L 3047 1100 
L 3047 0 
L 2419 0 
L 2419 1100 
L 313 1100 
L 313 1709 
L 2253 4666 
z
" transform="scale(0.015625)"/>
      </defs>
      <use xlink:href="#DejaVuSans-34"/>
     </g>
    </g>
   </g>
   <g id="text_6">
    <g clip-path="url(#pd402f08abe)">
     <!-- 5 -->
     <g transform="translate(235.631666 254.624317) scale(0.1 -0.1)">
      <defs>
       <path id="DejaVuSans-35" d="M 691 4666 
L 3169 4666 
L 3169 4134 
L 1269 4134 
L 1269 2991 
Q 1406 3038 1543 3061 
Q 1681 3084 1819 3084 
Q 2600 3084 3056 2656 
Q 3513 2228 3513 1497 
Q 3513 744 3044 326 
Q 2575 -91 1722 -91 
Q 1428 -91 1123 -41 
Q 819 9 494 109 
L 494 744 
Q 775 591 1075 516 
Q 1375 441 1709 441 
Q 2250 441 2565 725 
Q 2881 1009 2881 1497 
Q 2881 1984 2565 2268 
Q 2250 2553 1709 2553 
Q 1456 2553 1204 2497 
Q 953 2441 691 2322 
L 691 4666 
z
" transform="scale(0.015625)"/>
      </defs>
      <use xlink:href="#DejaVuSans-35"/>
     </g>
    </g>
   </g>
   <g id="text_7">
    <g clip-path="url(#pd402f08abe)">
     <!-- 6 -->
     <g transform="translate(285.542953 79.096987) scale(0.1 -0.1)">
      <defs>
       <path id="DejaVuSans-36" d="M 2113 2584 
Q 1688 2584 1439 2293 
Q 1191 2003 1191 1497 
Q 1191 994 1439 701 
Q 1688 409 2113 409 
Q 2538 409 2786 701 
Q 3034 994 3034 1497 
Q 3034 2003 2786 2293 
Q 2538 2584 2113 2584 
z
M 3366 4563 
L 3366 3988 
Q 3128 4100 2886 4159 
Q 2644 4219 2406 4219 
Q 1781 4219 1451 3797 
Q 1122 3375 1075 2522 
Q 1259 2794 1537 2939 
Q 1816 3084 2150 3084 
Q 2853 3084 3261 2657 
Q 3669 2231 3669 1497 
Q 3669 778 3244 343 
Q 2819 -91 2113 -91 
Q 1303 -91 875 529 
Q 447 1150 447 2328 
Q 447 3434 972 4092 
Q 1497 4750 2381 4750 
Q 2619 4750 2861 4703 
Q 3103 4656 3366 4563 
z
" transform="scale(0.015625)"/>
      </defs>
      <use xlink:href="#DejaVuSans-36"/>
     </g>
    </g>
   </g>
   <g id="text_8">
    <g clip-path="url(#pd402f08abe)">
     <!-- 7 -->
     <g transform="translate(302.729718 152.380084) scale(0.1 -0.1)">
      <defs>
       <path id="DejaVuSans-37" d="M 525 4666 
L 3525 4666 
L 3525 4397 
L 1831 0 
L 1172 0 
L 2766 4134 
L 525 4134 
L 525 4666 
z
" transform="scale(0.015625)"/>
      </defs>
      <use xlink:href="#DejaVuSans-37"/>
     </g>
    </g>
   </g>
   <g id="text_9">
    <g clip-path="url(#pd402f08abe)">
     <!-- 8 -->
     <g transform="translate(212.750148 270.825894) scale(0.1 -0.1)">
      <defs>
       <path id="DejaVuSans-38" d="M 2034 2216 
Q 1584 2216 1326 1975 
Q 1069 1734 1069 1313 
Q 1069 891 1326 650 
Q 1584 409 2034 409 
Q 2484 409 2743 651 
Q 3003 894 3003 1313 
Q 3003 1734 2745 1975 
Q 2488 2216 2034 2216 
z
M 1403 2484 
Q 997 2584 770 2862 
Q 544 3141 544 3541 
Q 544 4100 942 4425 
Q 1341 4750 2034 4750 
Q 2731 4750 3128 4425 
Q 3525 4100 3525 3541 
Q 3525 3141 3298 2862 
Q 3072 2584 2669 2484 
Q 3125 2378 3379 2068 
Q 3634 1759 3634 1313 
Q 3634 634 3220 271 
Q 2806 -91 2034 -91 
Q 1263 -91 848 271 
Q 434 634 434 1313 
Q 434 1759 690 2068 
Q 947 2378 1403 2484 
z
M 1172 3481 
Q 1172 3119 1398 2916 
Q 1625 2713 2034 2713 
Q 2441 2713 2670 2916 
Q 2900 3119 2900 3481 
Q 2900 3844 2670 4047 
Q 2441 4250 2034 4250 
Q 1625 4250 1398 4047 
Q 1172 3844 1172 3481 
z
" transform="scale(0.015625)"/>
      </defs>
      <use xlink:href="#DejaVuSans-38"/>
     </g>
    </g>
   </g>
   <g id="text_10">
    <g clip-path="url(#pd402f08abe)">
     <!-- 9 -->
     <g transform="translate(263.990767 239.534823) scale(0.1 -0.1)">
      <defs>
       <path id="DejaVuSans-39" d="M 703 97 
L 703 672 
Q 941 559 1184 500 
Q 1428 441 1663 441 
Q 2288 441 2617 861 
Q 2947 1281 2994 2138 
Q 2813 1869 2534 1725 
Q 2256 1581 1919 1581 
Q 1219 1581 811 2004 
Q 403 2428 403 3163 
Q 403 3881 828 4315 
Q 1253 4750 1959 4750 
Q 2769 4750 3195 4129 
Q 3622 3509 3622 2328 
Q 3622 1225 3098 567 
Q 2575 -91 1691 -91 
Q 1453 -91 1209 -44 
Q 966 3 703 97 
z
M 1959 2075 
Q 2384 2075 2632 2365 
Q 2881 2656 2881 3163 
Q 2881 3666 2632 3958 
Q 2384 4250 1959 4250 
Q 1534 4250 1286 3958 
Q 1038 3666 1038 3163 
Q 1038 2656 1286 2365 
Q 1534 2075 1959 2075 
z
" transform="scale(0.015625)"/>
      </defs>
      <use xlink:href="#DejaVuSans-39"/>
     </g>
    </g>
   </g>
   <g id="text_11">
    <g clip-path="url(#pd402f08abe)">
     <!-- 10 -->
     <g transform="translate(206.003243 148.664489) scale(0.1 -0.1)">
      <use xlink:href="#DejaVuSans-31"/>
      <use xlink:href="#DejaVuSans-30" x="63.623047"/>
     </g>
    </g>
   </g>
   <g id="text_12">
    <g clip-path="url(#pd402f08abe)">
     <!-- 11 -->
     <g transform="translate(127.910717 127.492771) scale(0.1 -0.1)">
      <use xlink:href="#DejaVuSans-31"/>
      <use xlink:href="#DejaVuSans-31" x="63.623047"/>
     </g>
    </g>
   </g>
   <g id="text_13">
    <g clip-path="url(#pd402f08abe)">
     <!-- 12 -->
     <g transform="translate(98.817594 154.085823) scale(0.1 -0.1)">
      <use xlink:href="#DejaVuSans-31"/>
      <use xlink:href="#DejaVuSans-32" x="63.623047"/>
     </g>
    </g>
   </g>
   <g id="text_14">
    <g clip-path="url(#pd402f08abe)">
     <!-- 13 -->
     <g transform="translate(174.262217 105.304139) scale(0.1 -0.1)">
      <use xlink:href="#DejaVuSans-31"/>
      <use xlink:href="#DejaVuSans-33" x="63.623047"/>
     </g>
    </g>
   </g>
   <g id="text_15">
    <g clip-path="url(#pd402f08abe)">
     <!-- 14 -->
     <g transform="translate(171.711941 38.894474) scale(0.1 -0.1)">
      <use xlink:href="#DejaVuSans-31"/>
      <use xlink:href="#DejaVuSans-34" x="63.623047"/>
     </g>
    </g>
   </g>
   <g id="text_16">
    <g clip-path="url(#pd402f08abe)">
     <!-- 15 -->
     <g transform="translate(413.819842 191.618226) scale(0.1 -0.1)">
      <use xlink:href="#DejaVuSans-31"/>
      <use xlink:href="#DejaVuSans-35" x="63.623047"/>
     </g>
    </g>
   </g>
   <g id="text_17">
    <g clip-path="url(#pd402f08abe)">
     <!-- 16 -->
     <g transform="translate(369.2403 172.043786) scale(0.1 -0.1)">
      <use xlink:href="#DejaVuSans-31"/>
      <use xlink:href="#DejaVuSans-36" x="63.623047"/>
     </g>
    </g>
   </g>
   <g id="text_18">
    <g clip-path="url(#pd402f08abe)">
     <!-- 17 -->
     <g transform="translate(345.144778 208.876135) scale(0.1 -0.1)">
      <use xlink:href="#DejaVuSans-31"/>
      <use xlink:href="#DejaVuSans-37" x="63.623047"/>
     </g>
    </g>
   </g>
   <g id="text_19">
    <g clip-path="url(#pd402f08abe)">
     <!-- 18 -->
     <g transform="translate(294.062743 211.960849) scale(0.1 -0.1)">
      <use xlink:href="#DejaVuSans-31"/>
      <use xlink:href="#DejaVuSans-38" x="63.623047"/>
     </g>
    </g>
   </g>
   <g id="text_20">
    <g clip-path="url(#pd402f08abe)">
     <!-- 19 -->
     <g transform="translate(183.973105 192.061626) scale(0.1 -0.1)">
      <use xlink:href="#DejaVuSans-31"/>
      <use xlink:href="#DejaVuSans-39" x="63.623047"/>
     </g>
    </g>
   </g>
   <g id="text_21">
    <g clip-path="url(#pd402f08abe)">
     <!-- 20 -->
     <g transform="translate(229.928045 196.548773) scale(0.1 -0.1)">
      <use xlink:href="#DejaVuSans-32"/>
      <use xlink:href="#DejaVuSans-30" x="63.623047"/>
     </g>
    </g>
   </g>
   <g id="text_22">
    <g clip-path="url(#pd402f08abe)">
     <!-- 21 -->
     <g transform="translate(143.460797 158.640998) scale(0.1 -0.1)">
      <use xlink:href="#DejaVuSans-32"/>
      <use xlink:href="#DejaVuSans-31" x="63.623047"/>
     </g>
    </g>
   </g>
   <g id="text_23">
    <g clip-path="url(#pd402f08abe)">
     <!-- 22 -->
     <g transform="translate(414.450723 155.595703) scale(0.1 -0.1)">
      <use xlink:href="#DejaVuSans-32"/>
      <use xlink:href="#DejaVuSans-32" x="63.623047"/>
     </g>
    </g>
   </g>
   <g id="text_24">
    <g clip-path="url(#pd402f08abe)">
     <!-- 23 -->
     <g transform="translate(100.022226 45.646826) scale(0.1 -0.1)">
      <use xlink:href="#DejaVuSans-32"/>
      <use xlink:href="#DejaVuSans-33" x="63.623047"/>
     </g>
    </g>
   </g>
   <g id="text_25">
    <g clip-path="url(#pd402f08abe)">
     <!-- 24 -->
     <g transform="translate(163.203984 78.433003) scale(0.1 -0.1)">
      <use xlink:href="#DejaVuSans-32"/>
      <use xlink:href="#DejaVuSans-34" x="63.623047"/>
     </g>
    </g>
   </g>
   <g id="text_26">
    <g clip-path="url(#pd402f08abe)">
     <!-- 25 -->
     <g transform="translate(174.935285 318.369292) scale(0.1 -0.1)">
      <use xlink:href="#DejaVuSans-32"/>
      <use xlink:href="#DejaVuSans-35" x="63.623047"/>
     </g>
    </g>
   </g>
   <g id="text_27">
    <g clip-path="url(#pd402f08abe)">
     <!-- 26 -->
     <g transform="translate(136.704706 302.96359) scale(0.1 -0.1)">
      <use xlink:href="#DejaVuSans-32"/>
      <use xlink:href="#DejaVuSans-36" x="63.623047"/>
     </g>
    </g>
   </g>
   <g id="text_28">
    <g clip-path="url(#pd402f08abe)">
     <!-- 27 -->
     <g transform="translate(131.182863 240.12919) scale(0.1 -0.1)">
      <use xlink:href="#DejaVuSans-32"/>
      <use xlink:href="#DejaVuSans-37" x="63.623047"/>
     </g>
    </g>
   </g>
   <g id="text_29">
    <g clip-path="url(#pd402f08abe)">
     <!-- 28 -->
     <g transform="translate(96.909057 187.20187) scale(0.1 -0.1)">
      <use xlink:href="#DejaVuSans-32"/>
      <use xlink:href="#DejaVuSans-38" x="63.623047"/>
     </g>
    </g>
   </g>
   <g id="text_30">
    <g clip-path="url(#pd402f08abe)">
     <!-- 29 -->
     <g transform="translate(111.267407 200.403751) scale(0.1 -0.1)">
      <use xlink:href="#DejaVuSans-32"/>
      <use xlink:href="#DejaVuSans-39" x="63.623047"/>
     </g>
    </g>
   </g>
   <g id="text_31">
    <g clip-path="url(#pd402f08abe)">
     <!-- 30 -->
     <g transform="translate(76.703498 126.754459) scale(0.1 -0.1)">
      <use xlink:href="#DejaVuSans-33"/>
      <use xlink:href="#DejaVuSans-30" x="63.623047"/>
     </g>
    </g>
   </g>
   <g id="text_32">
    <g clip-path="url(#pd402f08abe)">
     <!-- 31 -->
     <g transform="translate(33.624277 92.044006) scale(0.1 -0.1)">
      <use xlink:href="#DejaVuSans-33"/>
      <use xlink:href="#DejaVuSans-31" x="63.623047"/>
     </g>
    </g>
   </g>
   <g id="text_33">
    <g clip-path="url(#pd402f08abe)">
     <!-- 32 -->
     <g transform="translate(46.687746 49.100102) scale(0.1 -0.1)">
      <use xlink:href="#DejaVuSans-33"/>
      <use xlink:href="#DejaVuSans-32" x="63.623047"/>
     </g>
    </g>
   </g>
  </g>
 </g>
 <defs>
  <clipPath id="pd402f08abe">
   <rect x="0" y="0" width="460.8" height="345.6"/>
  </clipPath>
 </defs>
</svg>
