<?xml version="1.0" encoding="utf-8" standalone="no"?>
<!DOCTYPE svg PUBLIC "-//W3C//DTD SVG 1.1//EN"
  "http://www.w3.org/Graphics/SVG/1.1/DTD/svg11.dtd">
<svg xmlns:xlink="http://www.w3.org/1999/xlink" width="460.8pt" height="345.6pt" viewBox="0 0 460.8 345.6" xmlns="http://www.w3.org/2000/svg" version="1.1">
 <metadata>
  <rdf:RDF xmlns:dc="http://purl.org/dc/elements/1.1/" xmlns:cc="http://creativecommons.org/ns#" xmlns:rdf="http://www.w3.org/1999/02/22-rdf-syntax-ns#">
   <cc:Work>
    <dc:type rdf:resource="http://purl.org/dc/dcmitype/StillImage"/>
    <dc:date>2023-10-10T10:57:34.493111</dc:date>
    <dc:format>image/svg+xml</dc:format>
    <dc:creator>
     <cc:Agent>
      <dc:title>Matplotlib v3.6.1, https://matplotlib.org/</dc:title>
     </cc:Agent>
    </dc:creator>
   </cc:Work>
  </rdf:RDF>
 </metadata>
 <defs>
  <style type="text/css">*{stroke-linejoin: round; stroke-linecap: butt}</style>
 </defs>
 <g id="figure_1">
  <g id="patch_1">
   <path d="M 0 345.6 
L 460.8 345.6 
L 460.8 0 
L 0 0 
z
" style="fill: #ffffff"/>
  </g>
  <g id="axes_1">
   <g id="patch_2">
    <path d="M 40.959235 48.77961 
Q 45.922883 40.223173 50.325517 32.633825 
" clip-path="url(#p5454dd920c)" style="fill: none; stroke: #000000; stroke-linecap: round"/>
    <path d="M 46.588385 35.090215 
L 50.325517 32.633825 
L 50.04835 37.097364 
L 46.588385 35.090215 
z
" clip-path="url(#p5454dd920c)" style="stroke: #000000; stroke-linecap: round"/>
   </g>
   <g id="patch_3">
    <path d="M 41.919068 50.534081 
Q 66.499344 51.527927 89.962498 52.476606 
" clip-path="url(#p5454dd920c)" style="fill: none; stroke: #000000; stroke-linecap: round"/>
    <path d="M 86.046563 50.31664 
L 89.962498 52.476606 
L 85.884964 54.313374 
L 86.046563 50.31664 
z
" clip-path="url(#p5454dd920c)" style="stroke: #000000; stroke-linecap: round"/>
   </g>
   <g id="patch_4">
    <path d="M 165.246425 76.721572 
Q 199.494563 92.816456 232.730834 108.435813 
" clip-path="url(#p5454dd920c)" style="fill: none; stroke: #000000; stroke-linecap: round"/>
    <path d="M 229.961315 104.924437 
L 232.730834 108.435813 
L 228.260021 108.544602 
L 229.961315 104.924437 
z
" clip-path="url(#p5454dd920c)" style="stroke: #000000; stroke-linecap: round"/>
   </g>
   <g id="patch_5">
    <path d="M 161.656162 75.290337 
Q 128.255839 64.249196 95.917053 53.558966 
" clip-path="url(#p5454dd920c)" style="fill: none; stroke: #000000; stroke-linecap: round"/>
    <path d="M 99.087192 56.713362 
L 95.917053 53.558966 
L 100.342654 52.915492 
L 99.087192 56.713362 
z
" clip-path="url(#p5454dd920c)" style="stroke: #000000; stroke-linecap: round"/>
   </g>
   <g id="patch_6">
    <path d="M 50.886712 31.666425 
Q 45.923064 40.222862 41.52043 47.81221 
" clip-path="url(#p5454dd920c)" style="fill: none; stroke: #000000; stroke-linecap: round"/>
    <path d="M 45.257562 45.355821 
L 41.52043 47.81221 
L 41.797598 43.348671 
L 45.257562 45.355821 
z
" clip-path="url(#p5454dd920c)" style="stroke: #000000; stroke-linecap: round"/>
   </g>
   <g id="patch_7">
    <path d="M 53.554794 30.921586 
Q 72.436561 41.294423 90.338424 51.128942 
" clip-path="url(#p5454dd920c)" style="fill: none; stroke: #000000; stroke-linecap: round"/>
    <path d="M 87.795582 47.45009 
L 90.338424 51.128942 
L 85.869637 50.955905 
L 87.795582 47.45009 
z
" clip-path="url(#p5454dd920c)" style="stroke: #000000; stroke-linecap: round"/>
   </g>
   <g id="patch_8">
    <path d="M 91.08406 52.521953 
Q 66.503784 51.528107 43.04063 50.579428 
" clip-path="url(#p5454dd920c)" style="fill: none; stroke: #000000; stroke-linecap: round"/>
    <path d="M 46.956565 52.739394 
L 43.04063 50.579428 
L 47.118164 48.74266 
L 46.956565 52.739394 
z
" clip-path="url(#p5454dd920c)" style="stroke: #000000; stroke-linecap: round"/>
   </g>
   <g id="patch_9">
    <path d="M 94.853112 53.207259 
Q 128.253435 64.248401 160.592221 74.938631 
" clip-path="url(#p5454dd920c)" style="fill: none; stroke: #000000; stroke-linecap: round"/>
    <path d="M 157.422082 71.784234 
L 160.592221 74.938631 
L 156.16662 75.582104 
L 157.422082 71.784234 
z
" clip-path="url(#p5454dd920c)" style="stroke: #000000; stroke-linecap: round"/>
   </g>
   <g id="patch_10">
    <path d="M 91.320727 51.668578 
Q 72.43896 41.295741 54.537098 31.461222 
" clip-path="url(#p5454dd920c)" style="fill: none; stroke: #000000; stroke-linecap: round"/>
    <path d="M 57.07994 35.140074 
L 54.537098 31.461222 
L 59.005885 31.634259 
L 57.07994 35.140074 
z
" clip-path="url(#p5454dd920c)" style="stroke: #000000; stroke-linecap: round"/>
   </g>
   <g id="patch_11">
    <path d="M 264.310192 77.426953 
Q 250.547832 92.858494 237.529625 107.455626 
" clip-path="url(#p5454dd920c)" style="fill: none; stroke: #000000; stroke-linecap: round"/>
    <path d="M 241.684621 105.801538 
L 237.529625 107.455626 
L 238.699352 103.139177 
L 241.684621 105.801538 
z
" clip-path="url(#p5454dd920c)" style="stroke: #000000; stroke-linecap: round"/>
   </g>
   <g id="patch_12">
    <path d="M 204.822604 123.265887 
Q 219.27395 116.8913 232.702361 110.967937 
" clip-path="url(#p5454dd920c)" style="fill: none; stroke: #000000; stroke-linecap: round"/>
    <path d="M 228.235422 110.752402 
L 232.702361 110.967937 
L 229.849769 114.412167 
L 228.235422 110.752402 
z
" clip-path="url(#p5454dd920c)" style="stroke: #000000; stroke-linecap: round"/>
   </g>
   <g id="patch_13">
    <path d="M 203.951421 125.757813 
Q 210.013083 137.29285 215.554657 147.838186 
" clip-path="url(#p5454dd920c)" style="fill: none; stroke: #000000; stroke-linecap: round"/>
    <path d="M 215.464365 143.366961 
L 215.554657 147.838186 
L 211.923502 145.227685 
L 215.464365 143.366961 
z
" clip-path="url(#p5454dd920c)" style="stroke: #000000; stroke-linecap: round"/>
   </g>
   <g id="patch_14">
    <path d="M 396.772151 284.813728 
Q 408.195475 299.446805 418.930817 313.198588 
" clip-path="url(#p5454dd920c)" style="fill: none; stroke: #000000; stroke-linecap: round"/>
    <path d="M 418.045921 308.814873 
L 418.930817 313.198588 
L 414.892907 311.276276 
L 418.045921 308.814873 
z
" clip-path="url(#p5454dd920c)" style="stroke: #000000; stroke-linecap: round"/>
   </g>
   <g id="patch_15">
    <path d="M 394.230494 281.902135 
Q 376.332034 263.534145 359.213842 245.966892 
" clip-path="url(#p5454dd920c)" style="fill: none; stroke: #000000; stroke-linecap: round"/>
    <path d="M 360.573014 250.227485 
L 359.213842 245.966892 
L 363.437819 247.43591 
L 360.573014 250.227485 
z
" clip-path="url(#p5454dd920c)" style="stroke: #000000; stroke-linecap: round"/>
   </g>
   <g id="patch_16">
    <path d="M 419.622797 314.085002 
Q 408.199472 299.451925 397.464131 285.700142 
" clip-path="url(#p5454dd920c)" style="fill: none; stroke: #000000; stroke-linecap: round"/>
    <path d="M 398.349027 290.083857 
L 397.464131 285.700142 
L 401.502041 287.622454 
L 398.349027 290.083857 
z
" clip-path="url(#p5454dd920c)" style="stroke: #000000; stroke-linecap: round"/>
   </g>
   <g id="patch_17">
    <path d="M 340.422229 192.030302 
Q 320.876916 170.298088 302.07924 149.397162 
" clip-path="url(#p5454dd920c)" style="fill: none; stroke: #000000; stroke-linecap: round"/>
    <path d="M 303.26701 153.708681 
L 302.07924 149.397162 
L 306.241118 151.033857 
L 303.26701 153.708681 
z
" clip-path="url(#p5454dd920c)" style="stroke: #000000; stroke-linecap: round"/>
   </g>
   <g id="patch_18">
    <path d="M 342.282499 195.321541 
Q 349.398048 218.622074 356.187058 240.853321 
" clip-path="url(#p5454dd920c)" style="fill: none; stroke: #000000; stroke-linecap: round"/>
    <path d="M 356.93159 236.443597 
L 356.187058 240.853321 
L 353.105997 237.611861 
L 356.93159 236.443597 
z
" clip-path="url(#p5454dd920c)" style="stroke: #000000; stroke-linecap: round"/>
   </g>
   <g id="patch_19">
    <path d="M 301.332392 148.566751 
Q 320.877705 170.298965 339.675382 191.199891 
" clip-path="url(#p5454dd920c)" style="fill: none; stroke: #000000; stroke-linecap: round"/>
    <path d="M 338.487611 186.888371 
L 339.675382 191.199891 
L 335.513504 189.563196 
L 338.487611 186.888371 
z
" clip-path="url(#p5454dd920c)" style="stroke: #000000; stroke-linecap: round"/>
   </g>
   <g id="patch_20">
    <path d="M 298.363344 146.157083 
Q 267.768266 128.432005 238.140597 111.267391 
" clip-path="url(#p5454dd920c)" style="fill: none; stroke: #000000; stroke-linecap: round"/>
    <path d="M 240.59912 115.003119 
L 238.140597 111.267391 
L 242.604294 111.54201 
L 240.59912 115.003119 
z
" clip-path="url(#p5454dd920c)" style="stroke: #000000; stroke-linecap: round"/>
   </g>
   <g id="patch_21">
    <path d="M 233.742875 108.911421 
Q 199.494737 92.816538 166.258466 77.19718 
" clip-path="url(#p5454dd920c)" style="fill: none; stroke: #000000; stroke-linecap: round"/>
    <path d="M 169.027985 80.708557 
L 166.258466 77.19718 
L 170.729279 77.088391 
L 169.027985 80.708557 
z
" clip-path="url(#p5454dd920c)" style="stroke: #000000; stroke-linecap: round"/>
   </g>
   <g id="patch_22">
    <path d="M 236.784299 108.291349 
Q 250.54666 92.859808 263.564867 78.262676 
" clip-path="url(#p5454dd920c)" style="fill: none; stroke: #000000; stroke-linecap: round"/>
    <path d="M 259.409871 79.916764 
L 263.564867 78.262676 
L 262.39514 82.579125 
L 259.409871 79.916764 
z
" clip-path="url(#p5454dd920c)" style="stroke: #000000; stroke-linecap: round"/>
   </g>
   <g id="patch_23">
    <path d="M 233.726051 110.516381 
Q 219.274705 116.890967 205.846294 122.81433 
" clip-path="url(#p5454dd920c)" style="fill: none; stroke: #000000; stroke-linecap: round"/>
    <path d="M 210.313233 123.029865 
L 205.846294 122.81433 
L 208.698886 119.3701 
L 210.313233 123.029865 
z
" clip-path="url(#p5454dd920c)" style="stroke: #000000; stroke-linecap: round"/>
   </g>
   <g id="patch_24">
    <path d="M 237.170571 110.705412 
Q 267.765649 128.43049 297.393318 145.595104 
" clip-path="url(#p5454dd920c)" style="fill: none; stroke: #000000; stroke-linecap: round"/>
    <path d="M 294.934795 141.859376 
L 297.393318 145.595104 
L 292.929622 145.320485 
L 294.934795 141.859376 
z
" clip-path="url(#p5454dd920c)" style="stroke: #000000; stroke-linecap: round"/>
   </g>
   <g id="patch_25">
    <path d="M 234.697199 111.496415 
Q 226.236373 130.139297 218.237595 147.764087 
" clip-path="url(#p5454dd920c)" style="fill: none; stroke: #000000; stroke-linecap: round"/>
    <path d="M 221.711886 144.948186 
L 218.237595 147.764087 
L 218.069448 143.295114 
L 221.711886 144.948186 
z
" clip-path="url(#p5454dd920c)" style="stroke: #000000; stroke-linecap: round"/>
   </g>
   <g id="patch_26">
    <path d="M 216.077101 148.83237 
Q 210.015438 137.297332 204.473864 126.751996 
" clip-path="url(#p5454dd920c)" style="fill: none; stroke: #000000; stroke-linecap: round"/>
    <path d="M 204.564156 131.223221 
L 204.473864 126.751996 
L 208.105019 129.362497 
L 204.564156 131.223221 
z
" clip-path="url(#p5454dd920c)" style="stroke: #000000; stroke-linecap: round"/>
   </g>
   <g id="patch_27">
    <path d="M 217.775422 148.782456 
Q 226.236248 130.139573 234.235026 112.514783 
" clip-path="url(#p5454dd920c)" style="fill: none; stroke: #000000; stroke-linecap: round"/>
    <path d="M 230.760735 115.330685 
L 234.235026 112.514783 
L 234.403173 116.983757 
L 230.760735 115.330685 
z
" clip-path="url(#p5454dd920c)" style="stroke: #000000; stroke-linecap: round"/>
   </g>
   <g id="patch_28">
    <path d="M 217.064925 152.477895 
Q 218.021582 173.346514 218.92704 193.098273 
" clip-path="url(#p5454dd920c)" style="fill: none; stroke: #000000; stroke-linecap: round"/>
    <path d="M 220.741767 189.010881 
L 218.92704 193.098273 
L 216.745963 189.194057 
L 220.741767 189.010881 
z
" clip-path="url(#p5454dd920c)" style="stroke: #000000; stroke-linecap: round"/>
   </g>
   <g id="patch_29">
    <path d="M 218.978143 194.213035 
Q 218.021486 173.344415 217.116028 153.592657 
" clip-path="url(#p5454dd920c)" style="fill: none; stroke: #000000; stroke-linecap: round"/>
    <path d="M 215.301301 157.680048 
L 217.116028 153.592657 
L 219.297105 157.496873 
L 215.301301 157.680048 
z
" clip-path="url(#p5454dd920c)" style="stroke: #000000; stroke-linecap: round"/>
   </g>
   <g id="patch_30">
    <path d="M 220.224982 197.696843 
Q 232.877109 214.622014 244.85983 230.651698 
" clip-path="url(#p5454dd920c)" style="fill: none; stroke: #000000; stroke-linecap: round"/>
    <path d="M 244.066786 226.250439 
L 244.85983 230.651698 
L 240.862996 228.645378 
L 244.066786 226.250439 
z
" clip-path="url(#p5454dd920c)" style="stroke: #000000; stroke-linecap: round"/>
   </g>
   <g id="patch_31">
    <path d="M 245.529127 231.547039 
Q 232.877 214.621868 220.894279 198.592183 
" clip-path="url(#p5454dd920c)" style="fill: none; stroke: #000000; stroke-linecap: round"/>
    <path d="M 221.687323 202.993442 
L 220.894279 198.592183 
L 224.891112 200.598503 
L 221.687323 202.993442 
z
" clip-path="url(#p5454dd920c)" style="stroke: #000000; stroke-linecap: round"/>
   </g>
   <g id="patch_32">
    <path d="M 248.516358 233.730679 
Q 273.301496 242.326313 297.030321 250.555611 
" clip-path="url(#p5454dd920c)" style="fill: none; stroke: #000000; stroke-linecap: round"/>
    <path d="M 293.90646 247.355377 
L 297.030321 250.555611 
L 292.595817 251.134559 
L 293.90646 247.355377 
z
" clip-path="url(#p5454dd920c)" style="stroke: #000000; stroke-linecap: round"/>
   </g>
   <g id="patch_33">
    <path d="M 298.086525 250.921909 
Q 273.301387 242.326275 249.572562 234.096977 
" clip-path="url(#p5454dd920c)" style="fill: none; stroke: #000000; stroke-linecap: round"/>
    <path d="M 252.696423 237.297211 
L 249.572562 234.096977 
L 254.007066 233.518029 
L 252.696423 237.297211 
z
" clip-path="url(#p5454dd920c)" style="stroke: #000000; stroke-linecap: round"/>
   </g>
   <g id="patch_34">
    <path d="M 301.831077 251.295572 
Q 328.49611 247.666818 354.053321 244.188823 
" clip-path="url(#p5454dd920c)" style="fill: none; stroke: #000000; stroke-linecap: round"/>
    <path d="M 349.820166 242.746464 
L 354.053321 244.188823 
L 350.359541 246.709932 
L 349.820166 242.746464 
z
" clip-path="url(#p5454dd920c)" style="stroke: #000000; stroke-linecap: round"/>
   </g>
   <g id="patch_35">
    <path d="M 358.43111 245.163626 
Q 376.329571 263.531617 393.447762 281.09887 
" clip-path="url(#p5454dd920c)" style="fill: none; stroke: #000000; stroke-linecap: round"/>
    <path d="M 392.088591 276.838277 
L 393.447762 281.09887 
L 389.223785 279.629851 
L 392.088591 276.838277 
z
" clip-path="url(#p5454dd920c)" style="stroke: #000000; stroke-linecap: round"/>
   </g>
   <g id="patch_36">
    <path d="M 356.514464 241.925443 
Q 349.398915 218.624911 342.609905 196.393663 
" clip-path="url(#p5454dd920c)" style="fill: none; stroke: #000000; stroke-linecap: round"/>
    <path d="M 341.865374 200.803388 
L 342.609905 196.393663 
L 345.690966 199.635123 
L 341.865374 200.803388 
z
" clip-path="url(#p5454dd920c)" style="stroke: #000000; stroke-linecap: round"/>
   </g>
   <g id="patch_37">
    <path d="M 355.164402 244.03762 
Q 328.499368 247.666374 302.942158 251.144369 
" clip-path="url(#p5454dd920c)" style="fill: none; stroke: #000000; stroke-linecap: round"/>
    <path d="M 307.175313 252.586728 
L 302.942158 251.144369 
L 306.635938 248.62326 
L 307.175313 252.586728 
z
" clip-path="url(#p5454dd920c)" style="stroke: #000000; stroke-linecap: round"/>
   </g>
   <g id="PathCollection_1">
    <defs>
     <path id="mef45c86c68" d="M 0 1.936492 
C 0.513564 1.936492 1.006162 1.732451 1.369306 1.369306 
C 1.732451 1.006162 1.936492 0.513564 1.936492 0 
C 1.936492 -0.513564 1.732451 -1.006162 1.369306 -1.369306 
C 1.006162 -1.732451 0.513564 -1.936492 0 -1.936492 
C -0.513564 -1.936492 -1.006162 -1.732451 -1.369306 -1.369306 
C -1.732451 -1.006162 -1.936492 -0.513564 -1.936492 0 
C -1.936492 0.513564 -1.732451 1.006162 -1.369306 1.369306 
C -1.006162 1.732451 -0.513564 1.936492 0 1.936492 
z
" style="stroke: #1f78b4"/>
    </defs>
    <g clip-path="url(#p5454dd920c)">
     <use xlink:href="#mef45c86c68" x="39.986777" y="50.455953" style="fill: #1f78b4; stroke: #1f78b4"/>
     <use xlink:href="#mef45c86c68" x="163.492923" y="75.897515" style="fill: #1f78b4; stroke: #1f78b4"/>
     <use xlink:href="#mef45c86c68" x="51.85917" y="29.990083" style="fill: #1f78b4; stroke: #1f78b4"/>
     <use xlink:href="#mef45c86c68" x="93.016351" y="52.600081" style="fill: #1f78b4; stroke: #1f78b4"/>
     <use xlink:href="#mef45c86c68" x="265.598114" y="75.982824" style="fill: #1f78b4; stroke: #1f78b4"/>
     <use xlink:href="#mef45c86c68" x="203.052278" y="124.046789" style="fill: #1f78b4; stroke: #1f78b4"/>
     <use xlink:href="#mef45c86c68" x="395.581724" y="283.288812" style="fill: #1f78b4; stroke: #1f78b4"/>
     <use xlink:href="#mef45c86c68" x="420.813223" y="315.609917" style="fill: #1f78b4; stroke: #1f78b4"/>
     <use xlink:href="#mef45c86c68" x="341.717083" y="193.470036" style="fill: #1f78b4; stroke: #1f78b4"/>
     <use xlink:href="#mef45c86c68" x="300.037538" y="147.127017" style="fill: #1f78b4; stroke: #1f78b4"/>
     <use xlink:href="#mef45c86c68" x="235.496377" y="109.735478" style="fill: #1f78b4; stroke: #1f78b4"/>
     <use xlink:href="#mef45c86c68" x="216.976244" y="150.543393" style="fill: #1f78b4; stroke: #1f78b4"/>
     <use xlink:href="#mef45c86c68" x="219.066824" y="196.147537" style="fill: #1f78b4; stroke: #1f78b4"/>
     <use xlink:href="#mef45c86c68" x="246.687284" y="233.096345" style="fill: #1f78b4; stroke: #1f78b4"/>
     <use xlink:href="#mef45c86c68" x="299.915599" y="251.556243" style="fill: #1f78b4; stroke: #1f78b4"/>
     <use xlink:href="#mef45c86c68" x="357.07988" y="243.776949" style="fill: #1f78b4; stroke: #1f78b4"/>
    </g>
   </g>
   <g id="text_1">
    <g clip-path="url(#p5454dd920c)">
     <!-- 0 -->
     <g transform="translate(36.805527 53.215328) scale(0.1 -0.1)">
      <defs>
       <path id="DejaVuSans-30" d="M 2034 4250 
Q 1547 4250 1301 3770 
Q 1056 3291 1056 2328 
Q 1056 1369 1301 889 
Q 1547 409 2034 409 
Q 2525 409 2770 889 
Q 3016 1369 3016 2328 
Q 3016 3291 2770 3770 
Q 2525 4250 2034 4250 
z
M 2034 4750 
Q 2819 4750 3233 4129 
Q 3647 3509 3647 2328 
Q 3647 1150 3233 529 
Q 2819 -91 2034 -91 
Q 1250 -91 836 529 
Q 422 1150 422 2328 
Q 422 3509 836 4129 
Q 1250 4750 2034 4750 
z
" transform="scale(0.015625)"/>
      </defs>
      <use xlink:href="#DejaVuSans-30"/>
     </g>
    </g>
   </g>
   <g id="text_2">
    <g clip-path="url(#p5454dd920c)">
     <!-- 1 -->
     <g transform="translate(160.311673 78.65689) scale(0.1 -0.1)">
      <defs>
       <path id="DejaVuSans-31" d="M 794 531 
L 1825 531 
L 1825 4091 
L 703 3866 
L 703 4441 
L 1819 4666 
L 2450 4666 
L 2450 531 
L 3481 531 
L 3481 0 
L 794 0 
L 794 531 
z
" transform="scale(0.015625)"/>
      </defs>
      <use xlink:href="#DejaVuSans-31"/>
     </g>
    </g>
   </g>
   <g id="text_3">
    <g clip-path="url(#p5454dd920c)">
     <!-- 2 -->
     <g transform="translate(48.67792 32.749458) scale(0.1 -0.1)">
      <defs>
       <path id="DejaVuSans-32" d="M 1228 531 
L 3431 531 
L 3431 0 
L 469 0 
L 469 531 
Q 828 903 1448 1529 
Q 2069 2156 2228 2338 
Q 2531 2678 2651 2914 
Q 2772 3150 2772 3378 
Q 2772 3750 2511 3984 
Q 2250 4219 1831 4219 
Q 1534 4219 1204 4116 
Q 875 4013 500 3803 
L 500 4441 
Q 881 4594 1212 4672 
Q 1544 4750 1819 4750 
Q 2544 4750 2975 4387 
Q 3406 4025 3406 3419 
Q 3406 3131 3298 2873 
Q 3191 2616 2906 2266 
Q 2828 2175 2409 1742 
Q 1991 1309 1228 531 
z
" transform="scale(0.015625)"/>
      </defs>
      <use xlink:href="#DejaVuSans-32"/>
     </g>
    </g>
   </g>
   <g id="text_4">
    <g clip-path="url(#p5454dd920c)">
     <!-- 3 -->
     <g transform="translate(89.835101 55.359456) scale(0.1 -0.1)">
      <defs>
       <path id="DejaVuSans-33" d="M 2597 2516 
Q 3050 2419 3304 2112 
Q 3559 1806 3559 1356 
Q 3559 666 3084 287 
Q 2609 -91 1734 -91 
Q 1441 -91 1130 -33 
Q 819 25 488 141 
L 488 750 
Q 750 597 1062 519 
Q 1375 441 1716 441 
Q 2309 441 2620 675 
Q 2931 909 2931 1356 
Q 2931 1769 2642 2001 
Q 2353 2234 1838 2234 
L 1294 2234 
L 1294 2753 
L 1863 2753 
Q 2328 2753 2575 2939 
Q 2822 3125 2822 3475 
Q 2822 3834 2567 4026 
Q 2313 4219 1838 4219 
Q 1578 4219 1281 4162 
Q 984 4106 628 3988 
L 628 4550 
Q 988 4650 1302 4700 
Q 1616 4750 1894 4750 
Q 2613 4750 3031 4423 
Q 3450 4097 3450 3541 
Q 3450 3153 3228 2886 
Q 3006 2619 2597 2516 
z
" transform="scale(0.015625)"/>
      </defs>
      <use xlink:href="#DejaVuSans-33"/>
     </g>
    </g>
   </g>
   <g id="text_5">
    <g clip-path="url(#p5454dd920c)">
     <!-- 4 -->
     <g transform="translate(262.416864 78.742199) scale(0.1 -0.1)">
      <defs>
       <path id="DejaVuSans-34" d="M 2419 4116 
L 825 1625 
L 2419 1625 
L 2419 4116 
z
M 2253 4666 
L 3047 4666 
L 3047 1625 
L 3713 1625 
L 3713 1100 
L 3047 1100 
L 3047 0 
L 2419 0 
L 2419 1100 
L 313 1100 
L 313 1709 
L 2253 4666 
z
" transform="scale(0.015625)"/>
      </defs>
      <use xlink:href="#DejaVuSans-34"/>
     </g>
    </g>
   </g>
   <g id="text_6">
    <g clip-path="url(#p5454dd920c)">
     <!-- 5 -->
     <g transform="translate(199.871028 126.806164) scale(0.1 -0.1)">
      <defs>
       <path id="DejaVuSans-35" d="M 691 4666 
L 3169 4666 
L 3169 4134 
L 1269 4134 
L 1269 2991 
Q 1406 3038 1543 3061 
Q 1681 3084 1819 3084 
Q 2600 3084 3056 2656 
Q 3513 2228 3513 1497 
Q 3513 744 3044 326 
Q 2575 -91 1722 -91 
Q 1428 -91 1123 -41 
Q 819 9 494 109 
L 494 744 
Q 775 591 1075 516 
Q 1375 441 1709 441 
Q 2250 441 2565 725 
Q 2881 1009 2881 1497 
Q 2881 1984 2565 2268 
Q 2250 2553 1709 2553 
Q 1456 2553 1204 2497 
Q 953 2441 691 2322 
L 691 4666 
z
" transform="scale(0.015625)"/>
      </defs>
      <use xlink:href="#DejaVuSans-35"/>
     </g>
    </g>
   </g>
   <g id="text_7">
    <g clip-path="url(#p5454dd920c)">
     <!-- 6 -->
     <g transform="translate(392.400474 286.048187) scale(0.1 -0.1)">
      <defs>
       <path id="DejaVuSans-36" d="M 2113 2584 
Q 1688 2584 1439 2293 
Q 1191 2003 1191 1497 
Q 1191 994 1439 701 
Q 1688 409 2113 409 
Q 2538 409 2786 701 
Q 3034 994 3034 1497 
Q 3034 2003 2786 2293 
Q 2538 2584 2113 2584 
z
M 3366 4563 
L 3366 3988 
Q 3128 4100 2886 4159 
Q 2644 4219 2406 4219 
Q 1781 4219 1451 3797 
Q 1122 3375 1075 2522 
Q 1259 2794 1537 2939 
Q 1816 3084 2150 3084 
Q 2853 3084 3261 2657 
Q 3669 2231 3669 1497 
Q 3669 778 3244 343 
Q 2819 -91 2113 -91 
Q 1303 -91 875 529 
Q 447 1150 447 2328 
Q 447 3434 972 4092 
Q 1497 4750 2381 4750 
Q 2619 4750 2861 4703 
Q 3103 4656 3366 4563 
z
" transform="scale(0.015625)"/>
      </defs>
      <use xlink:href="#DejaVuSans-36"/>
     </g>
    </g>
   </g>
   <g id="text_8">
    <g clip-path="url(#p5454dd920c)">
     <!-- 7 -->
     <g transform="translate(417.631973 318.369292) scale(0.1 -0.1)">
      <defs>
       <path id="DejaVuSans-37" d="M 525 4666 
L 3525 4666 
L 3525 4397 
L 1831 0 
L 1172 0 
L 2766 4134 
L 525 4134 
L 525 4666 
z
" transform="scale(0.015625)"/>
      </defs>
      <use xlink:href="#DejaVuSans-37"/>
     </g>
    </g>
   </g>
   <g id="text_9">
    <g clip-path="url(#p5454dd920c)">
     <!-- 8 -->
     <g transform="translate(338.535833 196.229411) scale(0.1 -0.1)">
      <defs>
       <path id="DejaVuSans-38" d="M 2034 2216 
Q 1584 2216 1326 1975 
Q 1069 1734 1069 1313 
Q 1069 891 1326 650 
Q 1584 409 2034 409 
Q 2484 409 2743 651 
Q 3003 894 3003 1313 
Q 3003 1734 2745 1975 
Q 2488 2216 2034 2216 
z
M 1403 2484 
Q 997 2584 770 2862 
Q 544 3141 544 3541 
Q 544 4100 942 4425 
Q 1341 4750 2034 4750 
Q 2731 4750 3128 4425 
Q 3525 4100 3525 3541 
Q 3525 3141 3298 2862 
Q 3072 2584 2669 2484 
Q 3125 2378 3379 2068 
Q 3634 1759 3634 1313 
Q 3634 634 3220 271 
Q 2806 -91 2034 -91 
Q 1263 -91 848 271 
Q 434 634 434 1313 
Q 434 1759 690 2068 
Q 947 2378 1403 2484 
z
M 1172 3481 
Q 1172 3119 1398 2916 
Q 1625 2713 2034 2713 
Q 2441 2713 2670 2916 
Q 2900 3119 2900 3481 
Q 2900 3844 2670 4047 
Q 2441 4250 2034 4250 
Q 1625 4250 1398 4047 
Q 1172 3844 1172 3481 
z
" transform="scale(0.015625)"/>
      </defs>
      <use xlink:href="#DejaVuSans-38"/>
     </g>
    </g>
   </g>
   <g id="text_10">
    <g clip-path="url(#p5454dd920c)">
     <!-- 9 -->
     <g transform="translate(296.856288 149.886392) scale(0.1 -0.1)">
      <defs>
       <path id="DejaVuSans-39" d="M 703 97 
L 703 672 
Q 941 559 1184 500 
Q 1428 441 1663 441 
Q 2288 441 2617 861 
Q 2947 1281 2994 2138 
Q 2813 1869 2534 1725 
Q 2256 1581 1919 1581 
Q 1219 1581 811 2004 
Q 403 2428 403 3163 
Q 403 3881 828 4315 
Q 1253 4750 1959 4750 
Q 2769 4750 3195 4129 
Q 3622 3509 3622 2328 
Q 3622 1225 3098 567 
Q 2575 -91 1691 -91 
Q 1453 -91 1209 -44 
Q 966 3 703 97 
z
M 1959 2075 
Q 2384 2075 2632 2365 
Q 2881 2656 2881 3163 
Q 2881 3666 2632 3958 
Q 2384 4250 1959 4250 
Q 1534 4250 1286 3958 
Q 1038 3666 1038 3163 
Q 1038 2656 1286 2365 
Q 1534 2075 1959 2075 
z
" transform="scale(0.015625)"/>
      </defs>
      <use xlink:href="#DejaVuSans-39"/>
     </g>
    </g>
   </g>
   <g id="text_11">
    <g clip-path="url(#p5454dd920c)">
     <!-- 10 -->
     <g transform="translate(229.133877 112.494853) scale(0.1 -0.1)">
      <use xlink:href="#DejaVuSans-31"/>
      <use xlink:href="#DejaVuSans-30" x="63.623047"/>
     </g>
    </g>
   </g>
   <g id="text_12">
    <g clip-path="url(#p5454dd920c)">
     <!-- 11 -->
     <g transform="translate(210.613744 153.302768) scale(0.1 -0.1)">
      <use xlink:href="#DejaVuSans-31"/>
      <use xlink:href="#DejaVuSans-31" x="63.623047"/>
     </g>
    </g>
   </g>
   <g id="text_13">
    <g clip-path="url(#p5454dd920c)">
     <!-- 12 -->
     <g transform="translate(212.704324 198.906912) scale(0.1 -0.1)">
      <use xlink:href="#DejaVuSans-31"/>
      <use xlink:href="#DejaVuSans-32" x="63.623047"/>
     </g>
    </g>
   </g>
   <g id="text_14">
    <g clip-path="url(#p5454dd920c)">
     <!-- 13 -->
     <g transform="translate(240.324784 235.85572) scale(0.1 -0.1)">
      <use xlink:href="#DejaVuSans-31"/>
      <use xlink:href="#DejaVuSans-33" x="63.623047"/>
     </g>
    </g>
   </g>
   <g id="text_15">
    <g clip-path="url(#p5454dd920c)">
     <!-- 14 -->
     <g transform="translate(293.553099 254.315618) scale(0.1 -0.1)">
      <use xlink:href="#DejaVuSans-31"/>
      <use xlink:href="#DejaVuSans-34" x="63.623047"/>
     </g>
    </g>
   </g>
   <g id="text_16">
    <g clip-path="url(#p5454dd920c)">
     <!-- 15 -->
     <g transform="translate(350.71738 246.536324) scale(0.1 -0.1)">
      <use xlink:href="#DejaVuSans-31"/>
      <use xlink:href="#DejaVuSans-35" x="63.623047"/>
     </g>
    </g>
   </g>
  </g>
 </g>
 <defs>
  <clipPath id="p5454dd920c">
   <rect x="0" y="0" width="460.8" height="345.6"/>
  </clipPath>
 </defs>
</svg>
