<?xml version="1.0" encoding="utf-8" standalone="no"?>
<!DOCTYPE svg PUBLIC "-//W3C//DTD SVG 1.1//EN"
  "http://www.w3.org/Graphics/SVG/1.1/DTD/svg11.dtd">
<svg xmlns:xlink="http://www.w3.org/1999/xlink" width="460.8pt" height="345.6pt" viewBox="0 0 460.8 345.6" xmlns="http://www.w3.org/2000/svg" version="1.1">
 <metadata>
  <rdf:RDF xmlns:dc="http://purl.org/dc/elements/1.1/" xmlns:cc="http://creativecommons.org/ns#" xmlns:rdf="http://www.w3.org/1999/02/22-rdf-syntax-ns#">
   <cc:Work>
    <dc:type rdf:resource="http://purl.org/dc/dcmitype/StillImage"/>
    <dc:date>2023-10-10T10:57:35.179944</dc:date>
    <dc:format>image/svg+xml</dc:format>
    <dc:creator>
     <cc:Agent>
      <dc:title>Matplotlib v3.6.1, https://matplotlib.org/</dc:title>
     </cc:Agent>
    </dc:creator>
   </cc:Work>
  </rdf:RDF>
 </metadata>
 <defs>
  <style type="text/css">*{stroke-linejoin: round; stroke-linecap: butt}</style>
 </defs>
 <g id="figure_1">
  <g id="patch_1">
   <path d="M 0 345.6 
L 460.8 345.6 
L 460.8 0 
L 0 0 
z
" style="fill: #ffffff"/>
  </g>
  <g id="axes_1">
   <g id="patch_2">
    <path d="M 347.499532 279.519148 
Q 339.192793 296.694424 331.372842 312.863203 
" clip-path="url(#pab5fc5b887)" style="fill: none; stroke: #000000; stroke-linecap: round"/>
    <path d="M 334.914904 310.13304 
L 331.372842 312.863203 
L 331.313948 308.391455 
L 334.914904 310.13304 
z
" clip-path="url(#pab5fc5b887)" style="stroke: #000000; stroke-linecap: round"/>
   </g>
   <g id="patch_3">
    <path d="M 347.82247 275.910778 
Q 342.02886 255.143911 336.535691 235.453955 
" clip-path="url(#pab5fc5b887)" style="fill: none; stroke: #000000; stroke-linecap: round"/>
    <path d="M 335.684142 239.84427 
L 336.535691 235.453955 
L 339.537014 238.769383 
L 335.684142 239.84427 
z
" clip-path="url(#pab5fc5b887)" style="stroke: #000000; stroke-linecap: round"/>
   </g>
   <g id="patch_4">
    <path d="M 41.766952 233.788297 
Q 56.154917 227.648399 69.514566 221.947323 
" clip-path="url(#pab5fc5b887)" style="fill: none; stroke: #000000; stroke-linecap: round"/>
    <path d="M 65.050559 221.677793 
L 69.514566 221.947323 
L 66.620537 225.35681 
L 65.050559 221.677793 
z
" clip-path="url(#pab5fc5b887)" style="stroke: #000000; stroke-linecap: round"/>
   </g>
   <g id="patch_5">
    <path d="M 330.887622 313.866458 
Q 339.194362 296.691181 347.014313 280.522402 
" clip-path="url(#pab5fc5b887)" style="fill: none; stroke: #000000; stroke-linecap: round"/>
    <path d="M 343.47225 283.252566 
L 347.014313 280.522402 
L 347.073206 284.99415 
L 343.47225 283.252566 
z
" clip-path="url(#pab5fc5b887)" style="stroke: #000000; stroke-linecap: round"/>
   </g>
   <g id="patch_6">
    <path d="M 328.112524 315.471365 
Q 312.954233 314.384231 298.911113 313.377076 
" clip-path="url(#pab5fc5b887)" style="fill: none; stroke: #000000; stroke-linecap: round"/>
    <path d="M 302.757795 315.658092 
L 298.911113 313.377076 
L 303.043935 311.66834 
L 302.757795 315.658092 
z
" clip-path="url(#pab5fc5b887)" style="stroke: #000000; stroke-linecap: round"/>
   </g>
   <g id="patch_7">
    <path d="M 297.794902 313.297022 
Q 312.953193 314.384156 326.996314 315.391312 
" clip-path="url(#pab5fc5b887)" style="fill: none; stroke: #000000; stroke-linecap: round"/>
    <path d="M 323.149631 313.110296 
L 326.996314 315.391312 
L 322.863491 317.100048 
L 323.149631 313.110296 
z
" clip-path="url(#pab5fc5b887)" style="stroke: #000000; stroke-linecap: round"/>
   </g>
   <g id="patch_8">
    <path d="M 294.356801 311.944626 
Q 277.797517 298.599699 262.108764 285.956324 
" clip-path="url(#pab5fc5b887)" style="fill: none; stroke: #000000; stroke-linecap: round"/>
    <path d="M 263.968301 290.023525 
L 262.108764 285.956324 
L 266.478247 286.909015 
L 263.968301 290.023525 
z
" clip-path="url(#pab5fc5b887)" style="stroke: #000000; stroke-linecap: round"/>
   </g>
   <g id="patch_9">
    <path d="M 142.601471 244.672653 
Q 145.982374 209.661905 149.255812 175.764015 
" clip-path="url(#pab5fc5b887)" style="fill: none; stroke: #000000; stroke-linecap: round"/>
    <path d="M 146.88059 179.553253 
L 149.255812 175.764015 
L 150.862069 179.937735 
L 146.88059 179.553253 
z
" clip-path="url(#pab5fc5b887)" style="stroke: #000000; stroke-linecap: round"/>
   </g>
   <g id="patch_10">
    <path d="M 142.584517 248.529348 
Q 144.726488 273.012809 146.771018 296.38249 
" clip-path="url(#pab5fc5b887)" style="fill: none; stroke: #000000; stroke-linecap: round"/>
    <path d="M 148.414794 292.223403 
L 146.771018 296.38249 
L 144.430014 292.572017 
L 148.414794 292.223403 
z
" clip-path="url(#pab5fc5b887)" style="stroke: #000000; stroke-linecap: round"/>
   </g>
   <g id="patch_11">
    <path d="M 141.875068 248.456502 
Q 134.74247 272.983094 127.922074 296.436127 
" clip-path="url(#pab5fc5b887)" style="fill: none; stroke: #000000; stroke-linecap: round"/>
    <path d="M 130.959486 293.15373 
L 127.922074 296.436127 
L 127.118603 292.03676 
L 130.959486 293.15373 
z
" clip-path="url(#pab5fc5b887)" style="stroke: #000000; stroke-linecap: round"/>
   </g>
   <g id="patch_12">
    <path d="M 141.046505 247.960526 
Q 127.926999 261.017829 115.599939 273.286443 
" clip-path="url(#pab5fc5b887)" style="fill: none; stroke: #000000; stroke-linecap: round"/>
    <path d="M 119.845928 271.882315 
L 115.599939 273.286443 
L 117.02423 269.047175 
L 119.845928 271.882315 
z
" clip-path="url(#pab5fc5b887)" style="stroke: #000000; stroke-linecap: round"/>
   </g>
   <g id="patch_13">
    <path d="M 143.42063 244.942176 
Q 156.68617 223.088169 169.371569 202.189902 
" clip-path="url(#pab5fc5b887)" style="fill: none; stroke: #000000; stroke-linecap: round"/>
    <path d="M 165.586317 204.571471 
L 169.371569 202.189902 
L 169.005673 206.647045 
L 165.586317 204.571471 
z
" clip-path="url(#pab5fc5b887)" style="stroke: #000000; stroke-linecap: round"/>
   </g>
   <g id="patch_14">
    <path d="M 169.949924 201.237104 
Q 156.684385 223.09111 143.998985 243.989377 
" clip-path="url(#pab5fc5b887)" style="fill: none; stroke: #000000; stroke-linecap: round"/>
    <path d="M 147.784237 241.607808 
L 143.998985 243.989377 
L 144.364881 239.532235 
L 147.784237 241.607808 
z
" clip-path="url(#pab5fc5b887)" style="stroke: #000000; stroke-linecap: round"/>
   </g>
   <g id="patch_15">
    <path d="M 171.205368 197.663547 
Q 176.756804 155.139784 182.16351 113.724647 
" clip-path="url(#pab5fc5b887)" style="fill: none; stroke: #000000; stroke-linecap: round"/>
    <path d="M 179.662536 117.432089 
L 182.16351 113.724647 
L 183.62888 117.949892 
L 179.662536 117.432089 
z
" clip-path="url(#pab5fc5b887)" style="stroke: #000000; stroke-linecap: round"/>
   </g>
   <g id="patch_16">
    <path d="M 172.56183 200.659485 
Q 198.205649 217.866516 222.92107 234.450591 
" clip-path="url(#pab5fc5b887)" style="fill: none; stroke: #000000; stroke-linecap: round"/>
    <path d="M 220.713907 230.561062 
L 222.92107 234.450591 
L 218.485149 233.882604 
L 220.713907 230.561062 
z
" clip-path="url(#pab5fc5b887)" style="stroke: #000000; stroke-linecap: round"/>
   </g>
   <g id="patch_17">
    <path d="M 169.02849 199.793906 
Q 144.069404 202.54827 120.221605 205.179998 
" clip-path="url(#pab5fc5b887)" style="fill: none; stroke: #000000; stroke-linecap: round"/>
    <path d="M 124.416848 206.729173 
L 120.221605 205.179998 
L 123.97809 202.753309 
L 124.416848 206.729173 
z
" clip-path="url(#pab5fc5b887)" style="stroke: #000000; stroke-linecap: round"/>
   </g>
   <g id="patch_18">
    <path d="M 70.541854 221.50894 
Q 56.153889 227.648838 42.79424 233.349914 
" clip-path="url(#pab5fc5b887)" style="fill: none; stroke: #000000; stroke-linecap: round"/>
    <path d="M 47.258247 233.619444 
L 42.79424 233.349914 
L 45.688269 229.940427 
L 47.258247 233.619444 
z
" clip-path="url(#pab5fc5b887)" style="stroke: #000000; stroke-linecap: round"/>
   </g>
   <g id="patch_19">
    <path d="M 74.153824 220.127229 
Q 94.750622 213.132964 114.28876 206.498198 
" clip-path="url(#pab5fc5b887)" style="fill: none; stroke: #000000; stroke-linecap: round"/>
    <path d="M 109.858092 205.890596 
L 114.28876 206.498198 
L 111.144278 209.678172 
L 109.858092 205.890596 
z
" clip-path="url(#pab5fc5b887)" style="stroke: #000000; stroke-linecap: round"/>
   </g>
   <g id="patch_20">
    <path d="M 119.109724 205.3027 
Q 144.06881 202.548336 167.916608 199.916608 
" clip-path="url(#pab5fc5b887)" style="fill: none; stroke: #000000; stroke-linecap: round"/>
    <path d="M 163.721366 198.367433 
L 167.916608 199.916608 
L 164.160123 202.343297 
L 163.721366 198.367433 
z
" clip-path="url(#pab5fc5b887)" style="stroke: #000000; stroke-linecap: round"/>
   </g>
   <g id="patch_21">
    <path d="M 115.351412 206.137343 
Q 94.754614 213.131608 75.216476 219.766373 
" clip-path="url(#pab5fc5b887)" style="fill: none; stroke: #000000; stroke-linecap: round"/>
    <path d="M 79.647144 220.373975 
L 75.216476 219.766373 
L 78.360958 216.5864 
L 79.647144 220.373975 
z
" clip-path="url(#pab5fc5b887)" style="stroke: #000000; stroke-linecap: round"/>
   </g>
   <g id="patch_22">
    <path d="M 117.250095 203.578647 
Q 117.780183 188.230609 118.27168 173.999939 
" clip-path="url(#pab5fc5b887)" style="fill: none; stroke: #000000; stroke-linecap: round"/>
    <path d="M 116.134803 177.928521 
L 118.27168 173.999939 
L 120.132419 178.06659 
L 116.134803 177.928521 
z
" clip-path="url(#pab5fc5b887)" style="stroke: #000000; stroke-linecap: round"/>
   </g>
   <g id="patch_23">
    <path d="M 118.310101 172.887528 
Q 117.780012 188.235566 117.288515 202.466236 
" clip-path="url(#pab5fc5b887)" style="fill: none; stroke: #000000; stroke-linecap: round"/>
    <path d="M 119.425393 198.537654 
L 117.288515 202.466236 
L 115.427776 198.399585 
L 119.425393 198.537654 
z
" clip-path="url(#pab5fc5b887)" style="stroke: #000000; stroke-linecap: round"/>
   </g>
   <g id="patch_24">
    <path d="M 120.313851 171.061002 
Q 133.966288 171.83727 146.502494 172.550069 
" clip-path="url(#pab5fc5b887)" style="fill: none; stroke: #000000; stroke-linecap: round"/>
    <path d="M 142.622479 170.326224 
L 146.502494 172.550069 
L 142.395409 174.319773 
L 142.622479 170.326224 
z
" clip-path="url(#pab5fc5b887)" style="stroke: #000000; stroke-linecap: round"/>
   </g>
   <g id="patch_25">
    <path d="M 149.363521 174.648638 
Q 145.982618 209.659386 142.709181 243.557276 
" clip-path="url(#pab5fc5b887)" style="fill: none; stroke: #000000; stroke-linecap: round"/>
    <path d="M 145.084402 239.768038 
L 142.709181 243.557276 
L 141.102923 239.383556 
L 145.084402 239.768038 
z
" clip-path="url(#pab5fc5b887)" style="stroke: #000000; stroke-linecap: round"/>
   </g>
   <g id="patch_26">
    <path d="M 147.612582 172.613188 
Q 133.960145 171.83692 121.423939 171.124121 
" clip-path="url(#pab5fc5b887)" style="fill: none; stroke: #000000; stroke-linecap: round"/>
    <path d="M 125.303954 173.347966 
L 121.423939 171.124121 
L 125.531024 169.354416 
L 125.303954 173.347966 
z
" clip-path="url(#pab5fc5b887)" style="stroke: #000000; stroke-linecap: round"/>
   </g>
   <g id="patch_27">
    <path d="M 150.458087 171.015932 
Q 166.052885 141.712518 181.122434 113.396075 
" clip-path="url(#pab5fc5b887)" style="fill: none; stroke: #000000; stroke-linecap: round"/>
    <path d="M 177.477694 115.987575 
L 181.122434 113.396075 
L 181.00879 117.866767 
L 177.477694 115.987575 
z
" clip-path="url(#pab5fc5b887)" style="stroke: #000000; stroke-linecap: round"/>
   </g>
   <g id="patch_28">
    <path d="M 114.804759 274.077852 
Q 127.924265 261.02055 140.251326 248.751936 
" clip-path="url(#pab5fc5b887)" style="fill: none; stroke: #000000; stroke-linecap: round"/>
    <path d="M 136.005336 250.156064 
L 140.251326 248.751936 
L 138.827034 252.991204 
L 136.005336 250.156064 
z
" clip-path="url(#pab5fc5b887)" style="stroke: #000000; stroke-linecap: round"/>
   </g>
   <g id="patch_29">
    <path d="M 393.793037 47.135129 
Q 406.486785 39.080599 418.236507 31.625079 
" clip-path="url(#pab5fc5b887)" style="fill: none; stroke: #000000; stroke-linecap: round"/>
    <path d="M 413.787512 32.079439 
L 418.236507 31.625079 
L 415.930598 35.456891 
L 413.787512 32.079439 
z
" clip-path="url(#pab5fc5b887)" style="stroke: #000000; stroke-linecap: round"/>
   </g>
   <g id="patch_30">
    <path d="M 390.610767 49.332407 
Q 374.213587 61.621767 358.711057 73.240604 
" clip-path="url(#pab5fc5b887)" style="fill: none; stroke: #000000; stroke-linecap: round"/>
    <path d="M 363.111323 72.442069 
L 358.711057 73.240604 
L 360.712388 69.24127 
L 363.111323 72.442069 
z
" clip-path="url(#pab5fc5b887)" style="stroke: #000000; stroke-linecap: round"/>
   </g>
   <g id="patch_31">
    <path d="M 357.816164 73.911309 
Q 374.213344 61.621949 389.715874 50.003112 
" clip-path="url(#pab5fc5b887)" style="fill: none; stroke: #000000; stroke-linecap: round"/>
    <path d="M 385.315608 50.801647 
L 389.715874 50.003112 
L 387.714543 54.002446 
L 385.315608 50.801647 
z
" clip-path="url(#pab5fc5b887)" style="stroke: #000000; stroke-linecap: round"/>
   </g>
   <g id="patch_32">
    <path d="M 357.562673 76.515824 
Q 373.865949 94.68668 389.422578 112.025358 
" clip-path="url(#pab5fc5b887)" style="fill: none; stroke: #000000; stroke-linecap: round"/>
    <path d="M 388.239937 107.712429 
L 389.422578 112.025358 
L 385.26265 110.383714 
L 388.239937 107.712429 
z
" clip-path="url(#pab5fc5b887)" style="stroke: #000000; stroke-linecap: round"/>
   </g>
   <g id="patch_33">
    <path d="M 354.342969 74.874266 
Q 327.965478 72.162332 302.700158 69.564743 
" clip-path="url(#pab5fc5b887)" style="fill: none; stroke: #000000; stroke-linecap: round"/>
    <path d="M 306.474637 71.963349 
L 302.700158 69.564743 
L 306.88373 67.984323 
L 306.474637 71.963349 
z
" clip-path="url(#pab5fc5b887)" style="stroke: #000000; stroke-linecap: round"/>
   </g>
   <g id="patch_34">
    <path d="M 238.65505 77.384822 
Q 211.440604 93.545909 185.187465 109.13613 
" clip-path="url(#pab5fc5b887)" style="fill: none; stroke: #000000; stroke-linecap: round"/>
    <path d="M 189.64794 108.813381 
L 185.187465 109.13613 
L 187.60555 105.374101 
L 189.64794 108.813381 
z
" clip-path="url(#pab5fc5b887)" style="stroke: #000000; stroke-linecap: round"/>
   </g>
   <g id="patch_35">
    <path d="M 242.24585 76.163043 
Q 269.992102 72.823509 296.628332 69.617577 
" clip-path="url(#pab5fc5b887)" style="fill: none; stroke: #000000; stroke-linecap: round"/>
    <path d="M 292.417999 68.109898 
L 296.628332 69.617577 
L 292.895988 72.081236 
L 292.417999 68.109898 
z
" clip-path="url(#pab5fc5b887)" style="stroke: #000000; stroke-linecap: round"/>
   </g>
   <g id="patch_36">
    <path d="M 239.664121 74.571493 
Q 233.176549 56.612408 227.068833 39.704851 
" clip-path="url(#pab5fc5b887)" style="fill: none; stroke: #000000; stroke-linecap: round"/>
    <path d="M 226.546816 44.146416 
L 227.068833 39.704851 
L 230.308875 42.787403 
L 226.546816 44.146416 
z
" clip-path="url(#pab5fc5b887)" style="stroke: #000000; stroke-linecap: round"/>
   </g>
   <g id="patch_37">
    <path d="M 226.690202 38.656715 
Q 233.177774 56.615799 239.28549 73.523357 
" clip-path="url(#pab5fc5b887)" style="fill: none; stroke: #000000; stroke-linecap: round"/>
    <path d="M 239.807507 69.081792 
L 239.28549 73.523357 
L 236.045448 70.440804 
L 239.807507 69.081792 
z
" clip-path="url(#pab5fc5b887)" style="stroke: #000000; stroke-linecap: round"/>
   </g>
   <g id="patch_38">
    <path d="M 224.673111 38.209636 
Q 214.268597 48.747458 204.649604 58.489694 
" clip-path="url(#pab5fc5b887)" style="fill: none; stroke: #000000; stroke-linecap: round"/>
    <path d="M 208.883157 57.048503 
L 204.649604 58.489694 
L 206.036783 54.238137 
L 208.883157 57.048503 
z
" clip-path="url(#pab5fc5b887)" style="stroke: #000000; stroke-linecap: round"/>
   </g>
   <g id="patch_39">
    <path d="M 203.861334 59.288064 
Q 214.265848 48.750242 223.884841 39.008006 
" clip-path="url(#pab5fc5b887)" style="fill: none; stroke: #000000; stroke-linecap: round"/>
    <path d="M 219.651288 40.449196 
L 223.884841 39.008006 
L 222.497662 43.259562 
L 219.651288 40.449196 
z
" clip-path="url(#pab5fc5b887)" style="stroke: #000000; stroke-linecap: round"/>
   </g>
   <g id="patch_40">
    <path d="M 201.785812 62.462687 
Q 192.530791 85.68054 183.689757 107.859829 
" clip-path="url(#pab5fc5b887)" style="fill: none; stroke: #000000; stroke-linecap: round"/>
    <path d="M 187.028726 104.884718 
L 183.689757 107.859829 
L 183.313049 103.403587 
L 187.028726 104.884718 
z
" clip-path="url(#pab5fc5b887)" style="stroke: #000000; stroke-linecap: round"/>
   </g>
   <g id="patch_41">
    <path d="M 182.308382 112.614934 
Q 176.756946 155.138697 171.35024 196.553834 
" clip-path="url(#pab5fc5b887)" style="fill: none; stroke: #000000; stroke-linecap: round"/>
    <path d="M 173.851214 192.846391 
L 171.35024 196.553834 
L 169.884871 192.328589 
L 173.851214 192.846391 
z
" clip-path="url(#pab5fc5b887)" style="stroke: #000000; stroke-linecap: round"/>
   </g>
   <g id="patch_42">
    <path d="M 181.650102 112.404561 
Q 166.055303 141.707975 150.985754 170.024417 
" clip-path="url(#pab5fc5b887)" style="fill: none; stroke: #000000; stroke-linecap: round"/>
    <path d="M 154.630494 167.432917 
L 150.985754 170.024417 
L 151.099398 165.553726 
L 154.630494 167.432917 
z
" clip-path="url(#pab5fc5b887)" style="stroke: #000000; stroke-linecap: round"/>
   </g>
   <g id="patch_43">
    <path d="M 184.226367 109.706871 
Q 211.440813 93.545784 237.693952 77.955562 
" clip-path="url(#pab5fc5b887)" style="fill: none; stroke: #000000; stroke-linecap: round"/>
    <path d="M 233.233477 78.278312 
L 237.693952 77.955562 
L 235.275867 81.717592 
L 233.233477 78.278312 
z
" clip-path="url(#pab5fc5b887)" style="stroke: #000000; stroke-linecap: round"/>
   </g>
   <g id="patch_44">
    <path d="M 183.275727 108.898498 
Q 192.530748 85.680646 201.371781 63.501356 
" clip-path="url(#pab5fc5b887)" style="fill: none; stroke: #000000; stroke-linecap: round"/>
    <path d="M 198.032813 66.476467 
L 201.371781 63.501356 
L 201.748489 67.957598 
L 198.032813 66.476467 
z
" clip-path="url(#pab5fc5b887)" style="stroke: #000000; stroke-linecap: round"/>
   </g>
   <g id="patch_45">
    <path d="M 182.365231 108.768511 
Q 180.022214 85.416606 177.790816 63.177149 
" clip-path="url(#pab5fc5b887)" style="fill: none; stroke: #000000; stroke-linecap: round"/>
    <path d="M 176.200143 67.356833 
L 177.790816 63.177149 
L 180.180159 66.957498 
L 176.200143 67.356833 
z
" clip-path="url(#pab5fc5b887)" style="stroke: #000000; stroke-linecap: round"/>
   </g>
   <g id="patch_46">
    <path d="M 180.917867 109.668778 
Q 168.16643 101.676978 156.362344 94.278919 
" clip-path="url(#pab5fc5b887)" style="fill: none; stroke: #000000; stroke-linecap: round"/>
    <path d="M 158.689574 98.097819 
L 156.362344 94.278919 
L 160.813802 94.708474 
L 158.689574 98.097819 
z
" clip-path="url(#pab5fc5b887)" style="stroke: #000000; stroke-linecap: round"/>
   </g>
   <g id="patch_47">
    <path d="M 181.718467 108.950686 
Q 171.180173 87.047175 161.126608 66.151154 
" clip-path="url(#pab5fc5b887)" style="fill: none; stroke: #000000; stroke-linecap: round"/>
    <path d="M 161.058567 70.622773 
L 161.126608 66.151154 
L 164.663078 68.888558 
L 161.058567 70.622773 
z
" clip-path="url(#pab5fc5b887)" style="stroke: #000000; stroke-linecap: round"/>
   </g>
   <g id="patch_48">
    <path d="M 390.167071 112.855135 
Q 373.863795 94.684279 358.307166 77.345601 
" clip-path="url(#pab5fc5b887)" style="fill: none; stroke: #000000; stroke-linecap: round"/>
    <path d="M 359.489808 81.65853 
L 358.307166 77.345601 
L 362.467094 78.987245 
L 359.489808 81.65853 
z
" clip-path="url(#pab5fc5b887)" style="stroke: #000000; stroke-linecap: round"/>
   </g>
   <g id="patch_49">
    <path d="M 392.56899 115.886324 
Q 404.320629 132.744827 415.432919 148.686143 
" clip-path="url(#pab5fc5b887)" style="fill: none; stroke: #000000; stroke-linecap: round"/>
    <path d="M 414.786232 144.261011 
L 415.432919 148.686143 
L 411.504801 146.548414 
L 414.786232 144.261011 
z
" clip-path="url(#pab5fc5b887)" style="stroke: #000000; stroke-linecap: round"/>
   </g>
   <g id="patch_50">
    <path d="M 416.072718 149.603977 
Q 404.32108 132.745474 393.20879 116.804158 
" clip-path="url(#pab5fc5b887)" style="fill: none; stroke: #000000; stroke-linecap: round"/>
    <path d="M 393.855477 121.229291 
L 393.20879 116.804158 
L 397.136908 118.941888 
L 393.855477 121.229291 
z
" clip-path="url(#pab5fc5b887)" style="stroke: #000000; stroke-linecap: round"/>
   </g>
   <g id="patch_51">
    <path d="M 419.17977 31.026553 
Q 406.486021 39.081084 394.7363 46.536603 
" clip-path="url(#pab5fc5b887)" style="fill: none; stroke: #000000; stroke-linecap: round"/>
    <path d="M 399.185295 46.082244 
L 394.7363 46.536603 
L 397.042209 42.704792 
L 399.185295 46.082244 
z
" clip-path="url(#pab5fc5b887)" style="stroke: #000000; stroke-linecap: round"/>
   </g>
   <g id="patch_52">
    <path d="M 301.58666 69.450261 
Q 327.964151 72.162195 353.229471 74.759784 
" clip-path="url(#pab5fc5b887)" style="fill: none; stroke: #000000; stroke-linecap: round"/>
    <path d="M 349.454992 72.361178 
L 353.229471 74.759784 
L 349.045899 76.340204 
L 349.454992 72.361178 
z
" clip-path="url(#pab5fc5b887)" style="stroke: #000000; stroke-linecap: round"/>
   </g>
   <g id="patch_53">
    <path d="M 297.739104 69.483885 
Q 269.992852 72.823419 243.356623 76.029351 
" clip-path="url(#pab5fc5b887)" style="fill: none; stroke: #000000; stroke-linecap: round"/>
    <path d="M 247.566956 77.53703 
L 243.356623 76.029351 
L 247.088966 73.565692 
L 247.566956 77.53703 
z
" clip-path="url(#pab5fc5b887)" style="stroke: #000000; stroke-linecap: round"/>
   </g>
   <g id="patch_54">
    <path d="M 336.234515 234.374406 
Q 342.028124 255.141273 347.521294 274.83123 
" clip-path="url(#pab5fc5b887)" style="fill: none; stroke: #000000; stroke-linecap: round"/>
    <path d="M 348.372842 270.440915 
L 347.521294 274.83123 
L 344.519971 271.515802 
L 348.372842 270.440915 
z
" clip-path="url(#pab5fc5b887)" style="stroke: #000000; stroke-linecap: round"/>
   </g>
   <g id="patch_55">
    <path d="M 333.909146 231.811342 
Q 319.745714 226.333358 306.62504 221.258681 
" clip-path="url(#pab5fc5b887)" style="fill: none; stroke: #000000; stroke-linecap: round"/>
    <path d="M 309.634266 224.566937 
L 306.62504 221.258681 
L 311.077181 220.836254 
L 309.634266 224.566937 
z
" clip-path="url(#pab5fc5b887)" style="stroke: #000000; stroke-linecap: round"/>
   </g>
   <g id="patch_56">
    <path d="M 261.237621 285.25428 
Q 277.796905 298.599207 293.485657 311.242583 
" clip-path="url(#pab5fc5b887)" style="fill: none; stroke: #000000; stroke-linecap: round"/>
    <path d="M 291.626121 307.175382 
L 293.485657 311.242583 
L 289.116175 310.289892 
L 291.626121 307.175382 
z
" clip-path="url(#pab5fc5b887)" style="stroke: #000000; stroke-linecap: round"/>
   </g>
   <g id="patch_57">
    <path d="M 258.603962 282.465091 
Q 242.595653 260.097048 227.238026 238.638187 
" clip-path="url(#pab5fc5b887)" style="fill: none; stroke: #000000; stroke-linecap: round"/>
    <path d="M 227.93958 243.054953 
L 227.238026 238.638187 
L 231.192371 240.727003 
L 227.93958 243.054953 
z
" clip-path="url(#pab5fc5b887)" style="stroke: #000000; stroke-linecap: round"/>
   </g>
   <g id="patch_58">
    <path d="M 177.679432 62.067038 
Q 180.022449 85.418943 182.253848 107.6584 
" clip-path="url(#pab5fc5b887)" style="fill: none; stroke: #000000; stroke-linecap: round"/>
    <path d="M 183.84452 103.478715 
L 182.253848 107.6584 
L 179.864504 103.878051 
L 183.84452 103.478715 
z
" clip-path="url(#pab5fc5b887)" style="stroke: #000000; stroke-linecap: round"/>
   </g>
   <g id="patch_59">
    <path d="M 155.41576 93.68566 
Q 168.167197 101.677459 179.971284 109.075519 
" clip-path="url(#pab5fc5b887)" style="fill: none; stroke: #000000; stroke-linecap: round"/>
    <path d="M 177.644053 105.256619 
L 179.971284 109.075519 
L 175.519825 108.645963 
L 177.644053 105.256619 
z
" clip-path="url(#pab5fc5b887)" style="stroke: #000000; stroke-linecap: round"/>
   </g>
   <g id="patch_60">
    <path d="M 160.643481 65.146991 
Q 171.181774 87.050502 181.23534 107.946523 
" clip-path="url(#pab5fc5b887)" style="fill: none; stroke: #000000; stroke-linecap: round"/>
    <path d="M 181.303381 103.474904 
L 181.23534 107.946523 
L 177.69887 105.209119 
L 181.303381 103.474904 
z
" clip-path="url(#pab5fc5b887)" style="stroke: #000000; stroke-linecap: round"/>
   </g>
   <g id="patch_61">
    <path d="M 146.86826 297.494 
Q 144.726289 273.010539 142.681759 249.640858 
" clip-path="url(#pab5fc5b887)" style="fill: none; stroke: #000000; stroke-linecap: round"/>
    <path d="M 141.037983 253.799945 
L 142.681759 249.640858 
L 145.022763 253.451331 
L 141.037983 253.799945 
z
" clip-path="url(#pab5fc5b887)" style="stroke: #000000; stroke-linecap: round"/>
   </g>
   <g id="patch_62">
    <path d="M 127.609024 297.512601 
Q 134.741622 272.986009 141.562018 249.532976 
" clip-path="url(#pab5fc5b887)" style="fill: none; stroke: #000000; stroke-linecap: round"/>
    <path d="M 138.524606 252.815373 
L 141.562018 249.532976 
L 142.365489 253.932343 
L 138.524606 252.815373 
z
" clip-path="url(#pab5fc5b887)" style="stroke: #000000; stroke-linecap: round"/>
   </g>
   <g id="patch_63">
    <path d="M 305.58131 220.854998 
Q 319.744742 226.332982 332.865416 231.407659 
" clip-path="url(#pab5fc5b887)" style="fill: none; stroke: #000000; stroke-linecap: round"/>
    <path d="M 329.85619 228.099403 
L 332.865416 231.407659 
L 328.413276 231.830086 
L 329.85619 228.099403 
z
" clip-path="url(#pab5fc5b887)" style="stroke: #000000; stroke-linecap: round"/>
   </g>
   <g id="patch_64">
    <path d="M 301.870332 220.491374 
Q 284.874408 223.474582 268.979683 226.264503 
" clip-path="url(#pab5fc5b887)" style="fill: none; stroke: #000000; stroke-linecap: round"/>
    <path d="M 273.265217 227.54286 
L 268.979683 226.264503 
L 272.573689 223.60309 
L 273.265217 227.54286 
z
" clip-path="url(#pab5fc5b887)" style="stroke: #000000; stroke-linecap: round"/>
   </g>
   <g id="patch_65">
    <path d="M 267.878163 226.457847 
Q 284.874088 223.474639 300.768813 220.684718 
" clip-path="url(#pab5fc5b887)" style="fill: none; stroke: #000000; stroke-linecap: round"/>
    <path d="M 296.483278 219.406361 
L 300.768813 220.684718 
L 297.174806 223.346131 
L 296.483278 219.406361 
z
" clip-path="url(#pab5fc5b887)" style="stroke: #000000; stroke-linecap: round"/>
   </g>
   <g id="patch_66">
    <path d="M 264.085653 227.228375 
Q 245.71847 231.47302 228.440611 235.465924 
" clip-path="url(#pab5fc5b887)" style="fill: none; stroke: #000000; stroke-linecap: round"/>
    <path d="M 232.788223 236.513905 
L 228.440611 235.465924 
L 231.887563 232.616622 
L 232.788223 236.513905 
z
" clip-path="url(#pab5fc5b887)" style="stroke: #000000; stroke-linecap: round"/>
   </g>
   <g id="patch_67">
    <path d="M 223.853759 235.076426 
Q 198.209939 217.869395 173.494519 201.28532 
" clip-path="url(#pab5fc5b887)" style="fill: none; stroke: #000000; stroke-linecap: round"/>
    <path d="M 175.701681 205.174849 
L 173.494519 201.28532 
L 177.930439 201.853307 
L 175.701681 205.174849 
z
" clip-path="url(#pab5fc5b887)" style="stroke: #000000; stroke-linecap: round"/>
   </g>
   <g id="patch_68">
    <path d="M 226.588022 237.729952 
Q 242.596331 260.097995 257.953959 281.556855 
" clip-path="url(#pab5fc5b887)" style="fill: none; stroke: #000000; stroke-linecap: round"/>
    <path d="M 257.252404 277.140089 
L 257.953959 281.556855 
L 253.999613 279.468039 
L 257.252404 277.140089 
z
" clip-path="url(#pab5fc5b887)" style="stroke: #000000; stroke-linecap: round"/>
   </g>
   <g id="patch_69">
    <path d="M 227.347205 235.718609 
Q 245.714388 231.473964 262.992248 227.48106 
" clip-path="url(#pab5fc5b887)" style="fill: none; stroke: #000000; stroke-linecap: round"/>
    <path d="M 258.644635 226.433079 
L 262.992248 227.48106 
L 259.545295 230.330361 
L 258.644635 226.433079 
z
" clip-path="url(#pab5fc5b887)" style="stroke: #000000; stroke-linecap: round"/>
   </g>
   <g id="PathCollection_1">
    <defs>
     <path id="m139652fac6" d="M 0 1.936492 
C 0.513564 1.936492 1.006162 1.732451 1.369306 1.369306 
C 1.732451 1.006162 1.936492 0.513564 1.936492 0 
C 1.936492 -0.513564 1.732451 -1.006162 1.369306 -1.369306 
C 1.006162 -1.732451 0.513564 -1.936492 0 -1.936492 
C -0.513564 -1.936492 -1.006162 -1.732451 -1.369306 -1.369306 
C -1.732451 -1.006162 -1.936492 -0.513564 -1.936492 0 
C -1.936492 0.513564 -1.732451 1.006162 -1.369306 1.369306 
C -1.006162 1.732451 -0.513564 1.936492 0 1.936492 
z
" style="stroke: #1f78b4"/>
    </defs>
    <g clip-path="url(#pab5fc5b887)">
     <use xlink:href="#m139652fac6" x="348.342748" y="277.775688" style="fill: #1f78b4; stroke: #1f78b4"/>
     <use xlink:href="#m139652fac6" x="39.986777" y="234.547966" style="fill: #1f78b4; stroke: #1f78b4"/>
     <use xlink:href="#m139652fac6" x="330.044407" y="315.609917" style="fill: #1f78b4; stroke: #1f78b4"/>
     <use xlink:href="#m139652fac6" x="295.86302" y="313.15847" style="fill: #1f78b4; stroke: #1f78b4"/>
     <use xlink:href="#m139652fac6" x="142.415548" y="246.597975" style="fill: #1f78b4; stroke: #1f78b4"/>
     <use xlink:href="#m139652fac6" x="170.955007" y="199.581305" style="fill: #1f78b4; stroke: #1f78b4"/>
     <use xlink:href="#m139652fac6" x="72.322029" y="220.74927" style="fill: #1f78b4; stroke: #1f78b4"/>
     <use xlink:href="#m139652fac6" x="117.183207" y="205.515301" style="fill: #1f78b4; stroke: #1f78b4"/>
     <use xlink:href="#m139652fac6" x="118.376988" y="170.950874" style="fill: #1f78b4; stroke: #1f78b4"/>
     <use xlink:href="#m139652fac6" x="149.549445" y="172.723316" style="fill: #1f78b4; stroke: #1f78b4"/>
     <use xlink:href="#m139652fac6" x="113.435717" y="275.440403" style="fill: #1f78b4; stroke: #1f78b4"/>
     <use xlink:href="#m139652fac6" x="392.159584" y="48.1716" style="fill: #1f78b4; stroke: #1f78b4"/>
     <use xlink:href="#m139652fac6" x="356.267348" y="75.072116" style="fill: #1f78b4; stroke: #1f78b4"/>
     <use xlink:href="#m139652fac6" x="240.322673" y="76.394517" style="fill: #1f78b4; stroke: #1f78b4"/>
     <use xlink:href="#m139652fac6" x="226.03165" y="36.833691" style="fill: #1f78b4; stroke: #1f78b4"/>
     <use xlink:href="#m139652fac6" x="202.502795" y="60.664009" style="fill: #1f78b4; stroke: #1f78b4"/>
     <use xlink:href="#m139652fac6" x="182.558744" y="110.697176" style="fill: #1f78b4; stroke: #1f78b4"/>
     <use xlink:href="#m139652fac6" x="391.462397" y="114.298843" style="fill: #1f78b4; stroke: #1f78b4"/>
     <use xlink:href="#m139652fac6" x="417.179312" y="151.191458" style="fill: #1f78b4; stroke: #1f78b4"/>
     <use xlink:href="#m139652fac6" x="420.813223" y="29.990083" style="fill: #1f78b4; stroke: #1f78b4"/>
     <use xlink:href="#m139652fac6" x="299.662281" y="69.252411" style="fill: #1f78b4; stroke: #1f78b4"/>
     <use xlink:href="#m139652fac6" x="335.714237" y="232.509497" style="fill: #1f78b4; stroke: #1f78b4"/>
     <use xlink:href="#m139652fac6" x="259.731402" y="284.040436" style="fill: #1f78b4; stroke: #1f78b4"/>
     <use xlink:href="#m139652fac6" x="177.48592" y="60.138373" style="fill: #1f78b4; stroke: #1f78b4"/>
     <use xlink:href="#m139652fac6" x="153.774884" y="92.657261" style="fill: #1f78b4; stroke: #1f78b4"/>
     <use xlink:href="#m139652fac6" x="159.803204" y="63.400501" style="fill: #1f78b4; stroke: #1f78b4"/>
     <use xlink:href="#m139652fac6" x="147.037229" y="299.425373" style="fill: #1f78b4; stroke: #1f78b4"/>
     <use xlink:href="#m139652fac6" x="127.068544" y="299.371128" style="fill: #1f78b4; stroke: #1f78b4"/>
     <use xlink:href="#m139652fac6" x="303.77622" y="220.156843" style="fill: #1f78b4; stroke: #1f78b4"/>
     <use xlink:href="#m139652fac6" x="265.972276" y="226.792377" style="fill: #1f78b4; stroke: #1f78b4"/>
     <use xlink:href="#m139652fac6" x="225.460582" y="236.154606" style="fill: #1f78b4; stroke: #1f78b4"/>
    </g>
   </g>
   <g id="text_1">
    <g clip-path="url(#pab5fc5b887)">
     <!-- 0 -->
     <g transform="translate(345.161498 280.535063) scale(0.1 -0.1)">
      <defs>
       <path id="DejaVuSans-30" d="M 2034 4250 
Q 1547 4250 1301 3770 
Q 1056 3291 1056 2328 
Q 1056 1369 1301 889 
Q 1547 409 2034 409 
Q 2525 409 2770 889 
Q 3016 1369 3016 2328 
Q 3016 3291 2770 3770 
Q 2525 4250 2034 4250 
z
M 2034 4750 
Q 2819 4750 3233 4129 
Q 3647 3509 3647 2328 
Q 3647 1150 3233 529 
Q 2819 -91 2034 -91 
Q 1250 -91 836 529 
Q 422 1150 422 2328 
Q 422 3509 836 4129 
Q 1250 4750 2034 4750 
z
" transform="scale(0.015625)"/>
      </defs>
      <use xlink:href="#DejaVuSans-30"/>
     </g>
    </g>
   </g>
   <g id="text_2">
    <g clip-path="url(#pab5fc5b887)">
     <!-- 1 -->
     <g transform="translate(36.805527 237.307341) scale(0.1 -0.1)">
      <defs>
       <path id="DejaVuSans-31" d="M 794 531 
L 1825 531 
L 1825 4091 
L 703 3866 
L 703 4441 
L 1819 4666 
L 2450 4666 
L 2450 531 
L 3481 531 
L 3481 0 
L 794 0 
L 794 531 
z
" transform="scale(0.015625)"/>
      </defs>
      <use xlink:href="#DejaVuSans-31"/>
     </g>
    </g>
   </g>
   <g id="text_3">
    <g clip-path="url(#pab5fc5b887)">
     <!-- 2 -->
     <g transform="translate(326.863157 318.369292) scale(0.1 -0.1)">
      <defs>
       <path id="DejaVuSans-32" d="M 1228 531 
L 3431 531 
L 3431 0 
L 469 0 
L 469 531 
Q 828 903 1448 1529 
Q 2069 2156 2228 2338 
Q 2531 2678 2651 2914 
Q 2772 3150 2772 3378 
Q 2772 3750 2511 3984 
Q 2250 4219 1831 4219 
Q 1534 4219 1204 4116 
Q 875 4013 500 3803 
L 500 4441 
Q 881 4594 1212 4672 
Q 1544 4750 1819 4750 
Q 2544 4750 2975 4387 
Q 3406 4025 3406 3419 
Q 3406 3131 3298 2873 
Q 3191 2616 2906 2266 
Q 2828 2175 2409 1742 
Q 1991 1309 1228 531 
z
" transform="scale(0.015625)"/>
      </defs>
      <use xlink:href="#DejaVuSans-32"/>
     </g>
    </g>
   </g>
   <g id="text_4">
    <g clip-path="url(#pab5fc5b887)">
     <!-- 3 -->
     <g transform="translate(292.68177 315.917845) scale(0.1 -0.1)">
      <defs>
       <path id="DejaVuSans-33" d="M 2597 2516 
Q 3050 2419 3304 2112 
Q 3559 1806 3559 1356 
Q 3559 666 3084 287 
Q 2609 -91 1734 -91 
Q 1441 -91 1130 -33 
Q 819 25 488 141 
L 488 750 
Q 750 597 1062 519 
Q 1375 441 1716 441 
Q 2309 441 2620 675 
Q 2931 909 2931 1356 
Q 2931 1769 2642 2001 
Q 2353 2234 1838 2234 
L 1294 2234 
L 1294 2753 
L 1863 2753 
Q 2328 2753 2575 2939 
Q 2822 3125 2822 3475 
Q 2822 3834 2567 4026 
Q 2313 4219 1838 4219 
Q 1578 4219 1281 4162 
Q 984 4106 628 3988 
L 628 4550 
Q 988 4650 1302 4700 
Q 1616 4750 1894 4750 
Q 2613 4750 3031 4423 
Q 3450 4097 3450 3541 
Q 3450 3153 3228 2886 
Q 3006 2619 2597 2516 
z
" transform="scale(0.015625)"/>
      </defs>
      <use xlink:href="#DejaVuSans-33"/>
     </g>
    </g>
   </g>
   <g id="text_5">
    <g clip-path="url(#pab5fc5b887)">
     <!-- 4 -->
     <g transform="translate(139.234298 249.35735) scale(0.1 -0.1)">
      <defs>
       <path id="DejaVuSans-34" d="M 2419 4116 
L 825 1625 
L 2419 1625 
L 2419 4116 
z
M 2253 4666 
L 3047 4666 
L 3047 1625 
L 3713 1625 
L 3713 1100 
L 3047 1100 
L 3047 0 
L 2419 0 
L 2419 1100 
L 313 1100 
L 313 1709 
L 2253 4666 
z
" transform="scale(0.015625)"/>
      </defs>
      <use xlink:href="#DejaVuSans-34"/>
     </g>
    </g>
   </g>
   <g id="text_6">
    <g clip-path="url(#pab5fc5b887)">
     <!-- 5 -->
     <g transform="translate(167.773757 202.34068) scale(0.1 -0.1)">
      <defs>
       <path id="DejaVuSans-35" d="M 691 4666 
L 3169 4666 
L 3169 4134 
L 1269 4134 
L 1269 2991 
Q 1406 3038 1543 3061 
Q 1681 3084 1819 3084 
Q 2600 3084 3056 2656 
Q 3513 2228 3513 1497 
Q 3513 744 3044 326 
Q 2575 -91 1722 -91 
Q 1428 -91 1123 -41 
Q 819 9 494 109 
L 494 744 
Q 775 591 1075 516 
Q 1375 441 1709 441 
Q 2250 441 2565 725 
Q 2881 1009 2881 1497 
Q 2881 1984 2565 2268 
Q 2250 2553 1709 2553 
Q 1456 2553 1204 2497 
Q 953 2441 691 2322 
L 691 4666 
z
" transform="scale(0.015625)"/>
      </defs>
      <use xlink:href="#DejaVuSans-35"/>
     </g>
    </g>
   </g>
   <g id="text_7">
    <g clip-path="url(#pab5fc5b887)">
     <!-- 6 -->
     <g transform="translate(69.140779 223.508645) scale(0.1 -0.1)">
      <defs>
       <path id="DejaVuSans-36" d="M 2113 2584 
Q 1688 2584 1439 2293 
Q 1191 2003 1191 1497 
Q 1191 994 1439 701 
Q 1688 409 2113 409 
Q 2538 409 2786 701 
Q 3034 994 3034 1497 
Q 3034 2003 2786 2293 
Q 2538 2584 2113 2584 
z
M 3366 4563 
L 3366 3988 
Q 3128 4100 2886 4159 
Q 2644 4219 2406 4219 
Q 1781 4219 1451 3797 
Q 1122 3375 1075 2522 
Q 1259 2794 1537 2939 
Q 1816 3084 2150 3084 
Q 2853 3084 3261 2657 
Q 3669 2231 3669 1497 
Q 3669 778 3244 343 
Q 2819 -91 2113 -91 
Q 1303 -91 875 529 
Q 447 1150 447 2328 
Q 447 3434 972 4092 
Q 1497 4750 2381 4750 
Q 2619 4750 2861 4703 
Q 3103 4656 3366 4563 
z
" transform="scale(0.015625)"/>
      </defs>
      <use xlink:href="#DejaVuSans-36"/>
     </g>
    </g>
   </g>
   <g id="text_8">
    <g clip-path="url(#pab5fc5b887)">
     <!-- 7 -->
     <g transform="translate(114.001957 208.274676) scale(0.1 -0.1)">
      <defs>
       <path id="DejaVuSans-37" d="M 525 4666 
L 3525 4666 
L 3525 4397 
L 1831 0 
L 1172 0 
L 2766 4134 
L 525 4134 
L 525 4666 
z
" transform="scale(0.015625)"/>
      </defs>
      <use xlink:href="#DejaVuSans-37"/>
     </g>
    </g>
   </g>
   <g id="text_9">
    <g clip-path="url(#pab5fc5b887)">
     <!-- 8 -->
     <g transform="translate(115.195738 173.710249) scale(0.1 -0.1)">
      <defs>
       <path id="DejaVuSans-38" d="M 2034 2216 
Q 1584 2216 1326 1975 
Q 1069 1734 1069 1313 
Q 1069 891 1326 650 
Q 1584 409 2034 409 
Q 2484 409 2743 651 
Q 3003 894 3003 1313 
Q 3003 1734 2745 1975 
Q 2488 2216 2034 2216 
z
M 1403 2484 
Q 997 2584 770 2862 
Q 544 3141 544 3541 
Q 544 4100 942 4425 
Q 1341 4750 2034 4750 
Q 2731 4750 3128 4425 
Q 3525 4100 3525 3541 
Q 3525 3141 3298 2862 
Q 3072 2584 2669 2484 
Q 3125 2378 3379 2068 
Q 3634 1759 3634 1313 
Q 3634 634 3220 271 
Q 2806 -91 2034 -91 
Q 1263 -91 848 271 
Q 434 634 434 1313 
Q 434 1759 690 2068 
Q 947 2378 1403 2484 
z
M 1172 3481 
Q 1172 3119 1398 2916 
Q 1625 2713 2034 2713 
Q 2441 2713 2670 2916 
Q 2900 3119 2900 3481 
Q 2900 3844 2670 4047 
Q 2441 4250 2034 4250 
Q 1625 4250 1398 4047 
Q 1172 3844 1172 3481 
z
" transform="scale(0.015625)"/>
      </defs>
      <use xlink:href="#DejaVuSans-38"/>
     </g>
    </g>
   </g>
   <g id="text_10">
    <g clip-path="url(#pab5fc5b887)">
     <!-- 9 -->
     <g transform="translate(146.368195 175.482691) scale(0.1 -0.1)">
      <defs>
       <path id="DejaVuSans-39" d="M 703 97 
L 703 672 
Q 941 559 1184 500 
Q 1428 441 1663 441 
Q 2288 441 2617 861 
Q 2947 1281 2994 2138 
Q 2813 1869 2534 1725 
Q 2256 1581 1919 1581 
Q 1219 1581 811 2004 
Q 403 2428 403 3163 
Q 403 3881 828 4315 
Q 1253 4750 1959 4750 
Q 2769 4750 3195 4129 
Q 3622 3509 3622 2328 
Q 3622 1225 3098 567 
Q 2575 -91 1691 -91 
Q 1453 -91 1209 -44 
Q 966 3 703 97 
z
M 1959 2075 
Q 2384 2075 2632 2365 
Q 2881 2656 2881 3163 
Q 2881 3666 2632 3958 
Q 2384 4250 1959 4250 
Q 1534 4250 1286 3958 
Q 1038 3666 1038 3163 
Q 1038 2656 1286 2365 
Q 1534 2075 1959 2075 
z
" transform="scale(0.015625)"/>
      </defs>
      <use xlink:href="#DejaVuSans-39"/>
     </g>
    </g>
   </g>
   <g id="text_11">
    <g clip-path="url(#pab5fc5b887)">
     <!-- 10 -->
     <g transform="translate(107.073217 278.199778) scale(0.1 -0.1)">
      <use xlink:href="#DejaVuSans-31"/>
      <use xlink:href="#DejaVuSans-30" x="63.623047"/>
     </g>
    </g>
   </g>
   <g id="text_12">
    <g clip-path="url(#pab5fc5b887)">
     <!-- 11 -->
     <g transform="translate(385.797084 50.930975) scale(0.1 -0.1)">
      <use xlink:href="#DejaVuSans-31"/>
      <use xlink:href="#DejaVuSans-31" x="63.623047"/>
     </g>
    </g>
   </g>
   <g id="text_13">
    <g clip-path="url(#pab5fc5b887)">
     <!-- 12 -->
     <g transform="translate(349.904848 77.831491) scale(0.1 -0.1)">
      <use xlink:href="#DejaVuSans-31"/>
      <use xlink:href="#DejaVuSans-32" x="63.623047"/>
     </g>
    </g>
   </g>
   <g id="text_14">
    <g clip-path="url(#pab5fc5b887)">
     <!-- 13 -->
     <g transform="translate(233.960173 79.153892) scale(0.1 -0.1)">
      <use xlink:href="#DejaVuSans-31"/>
      <use xlink:href="#DejaVuSans-33" x="63.623047"/>
     </g>
    </g>
   </g>
   <g id="text_15">
    <g clip-path="url(#pab5fc5b887)">
     <!-- 14 -->
     <g transform="translate(219.66915 39.593066) scale(0.1 -0.1)">
      <use xlink:href="#DejaVuSans-31"/>
      <use xlink:href="#DejaVuSans-34" x="63.623047"/>
     </g>
    </g>
   </g>
   <g id="text_16">
    <g clip-path="url(#pab5fc5b887)">
     <!-- 15 -->
     <g transform="translate(196.140295 63.423384) scale(0.1 -0.1)">
      <use xlink:href="#DejaVuSans-31"/>
      <use xlink:href="#DejaVuSans-35" x="63.623047"/>
     </g>
    </g>
   </g>
   <g id="text_17">
    <g clip-path="url(#pab5fc5b887)">
     <!-- 16 -->
     <g transform="translate(176.196244 113.456551) scale(0.1 -0.1)">
      <use xlink:href="#DejaVuSans-31"/>
      <use xlink:href="#DejaVuSans-36" x="63.623047"/>
     </g>
    </g>
   </g>
   <g id="text_18">
    <g clip-path="url(#pab5fc5b887)">
     <!-- 17 -->
     <g transform="translate(385.099897 117.058218) scale(0.1 -0.1)">
      <use xlink:href="#DejaVuSans-31"/>
      <use xlink:href="#DejaVuSans-37" x="63.623047"/>
     </g>
    </g>
   </g>
   <g id="text_19">
    <g clip-path="url(#pab5fc5b887)">
     <!-- 18 -->
     <g transform="translate(410.816812 153.950833) scale(0.1 -0.1)">
      <use xlink:href="#DejaVuSans-31"/>
      <use xlink:href="#DejaVuSans-38" x="63.623047"/>
     </g>
    </g>
   </g>
   <g id="text_20">
    <g clip-path="url(#pab5fc5b887)">
     <!-- 19 -->
     <g transform="translate(414.450723 32.749458) scale(0.1 -0.1)">
      <use xlink:href="#DejaVuSans-31"/>
      <use xlink:href="#DejaVuSans-39" x="63.623047"/>
     </g>
    </g>
   </g>
   <g id="text_21">
    <g clip-path="url(#pab5fc5b887)">
     <!-- 20 -->
     <g transform="translate(293.299781 72.011786) scale(0.1 -0.1)">
      <use xlink:href="#DejaVuSans-32"/>
      <use xlink:href="#DejaVuSans-30" x="63.623047"/>
     </g>
    </g>
   </g>
   <g id="text_22">
    <g clip-path="url(#pab5fc5b887)">
     <!-- 21 -->
     <g transform="translate(329.351737 235.268872) scale(0.1 -0.1)">
      <use xlink:href="#DejaVuSans-32"/>
      <use xlink:href="#DejaVuSans-31" x="63.623047"/>
     </g>
    </g>
   </g>
   <g id="text_23">
    <g clip-path="url(#pab5fc5b887)">
     <!-- 22 -->
     <g transform="translate(253.368902 286.799811) scale(0.1 -0.1)">
      <use xlink:href="#DejaVuSans-32"/>
      <use xlink:href="#DejaVuSans-32" x="63.623047"/>
     </g>
    </g>
   </g>
   <g id="text_24">
    <g clip-path="url(#pab5fc5b887)">
     <!-- 23 -->
     <g transform="translate(171.12342 62.897748) scale(0.1 -0.1)">
      <use xlink:href="#DejaVuSans-32"/>
      <use xlink:href="#DejaVuSans-33" x="63.623047"/>
     </g>
    </g>
   </g>
   <g id="text_25">
    <g clip-path="url(#pab5fc5b887)">
     <!-- 24 -->
     <g transform="translate(147.412384 95.416636) scale(0.1 -0.1)">
      <use xlink:href="#DejaVuSans-32"/>
      <use xlink:href="#DejaVuSans-34" x="63.623047"/>
     </g>
    </g>
   </g>
   <g id="text_26">
    <g clip-path="url(#pab5fc5b887)">
     <!-- 25 -->
     <g transform="translate(153.440704 66.159876) scale(0.1 -0.1)">
      <use xlink:href="#DejaVuSans-32"/>
      <use xlink:href="#DejaVuSans-35" x="63.623047"/>
     </g>
    </g>
   </g>
   <g id="text_27">
    <g clip-path="url(#pab5fc5b887)">
     <!-- 26 -->
     <g transform="translate(140.674729 302.184748) scale(0.1 -0.1)">
      <use xlink:href="#DejaVuSans-32"/>
      <use xlink:href="#DejaVuSans-36" x="63.623047"/>
     </g>
    </g>
   </g>
   <g id="text_28">
    <g clip-path="url(#pab5fc5b887)">
     <!-- 27 -->
     <g transform="translate(120.706044 302.130503) scale(0.1 -0.1)">
      <use xlink:href="#DejaVuSans-32"/>
      <use xlink:href="#DejaVuSans-37" x="63.623047"/>
     </g>
    </g>
   </g>
   <g id="text_29">
    <g clip-path="url(#pab5fc5b887)">
     <!-- 28 -->
     <g transform="translate(297.41372 222.916218) scale(0.1 -0.1)">
      <use xlink:href="#DejaVuSans-32"/>
      <use xlink:href="#DejaVuSans-38" x="63.623047"/>
     </g>
    </g>
   </g>
   <g id="text_30">
    <g clip-path="url(#pab5fc5b887)">
     <!-- 29 -->
     <g transform="translate(259.609776 229.551752) scale(0.1 -0.1)">
      <use xlink:href="#DejaVuSans-32"/>
      <use xlink:href="#DejaVuSans-39" x="63.623047"/>
     </g>
    </g>
   </g>
   <g id="text_31">
    <g clip-path="url(#pab5fc5b887)">
     <!-- 30 -->
     <g transform="translate(219.098082 238.913981) scale(0.1 -0.1)">
      <use xlink:href="#DejaVuSans-33"/>
      <use xlink:href="#DejaVuSans-30" x="63.623047"/>
     </g>
    </g>
   </g>
  </g>
 </g>
 <defs>
  <clipPath id="pab5fc5b887">
   <rect x="0" y="0" width="460.8" height="345.6"/>
  </clipPath>
 </defs>
</svg>
