<?xml version="1.0" encoding="utf-8" standalone="no"?>
<!DOCTYPE svg PUBLIC "-//W3C//DTD SVG 1.1//EN"
  "http://www.w3.org/Graphics/SVG/1.1/DTD/svg11.dtd">
<svg xmlns:xlink="http://www.w3.org/1999/xlink" width="460.8pt" height="345.6pt" viewBox="0 0 460.8 345.6" xmlns="http://www.w3.org/2000/svg" version="1.1">
 <metadata>
  <rdf:RDF xmlns:dc="http://purl.org/dc/elements/1.1/" xmlns:cc="http://creativecommons.org/ns#" xmlns:rdf="http://www.w3.org/1999/02/22-rdf-syntax-ns#">
   <cc:Work>
    <dc:type rdf:resource="http://purl.org/dc/dcmitype/StillImage"/>
    <dc:date>2023-10-10T10:57:40.260701</dc:date>
    <dc:format>image/svg+xml</dc:format>
    <dc:creator>
     <cc:Agent>
      <dc:title>Matplotlib v3.6.1, https://matplotlib.org/</dc:title>
     </cc:Agent>
    </dc:creator>
   </cc:Work>
  </rdf:RDF>
 </metadata>
 <defs>
  <style type="text/css">*{stroke-linejoin: round; stroke-linecap: butt}</style>
 </defs>
 <g id="figure_1">
  <g id="patch_1">
   <path d="M 0 345.6 
L 460.8 345.6 
L 460.8 0 
L 0 0 
z
" style="fill: #ffffff"/>
  </g>
  <g id="axes_1">
   <g id="patch_2">
    <path d="M 397.666687 52.724847 
Q 373.551351 41.757793 350.453747 31.253579 
" clip-path="url(#pd523d00402)" style="fill: none; stroke: #000000; stroke-linecap: round"/>
    <path d="M 353.266946 34.730059 
L 350.453747 31.253579 
L 354.92285 31.088908 
L 353.266946 34.730059 
z
" clip-path="url(#pd523d00402)" style="stroke: #000000; stroke-linecap: round"/>
   </g>
   <g id="patch_3">
    <path d="M 400.349964 55.230887 
Q 410.122594 73.371815 419.364978 90.528447 
" clip-path="url(#pd523d00402)" style="fill: none; stroke: #000000; stroke-linecap: round"/>
    <path d="M 419.228673 86.058389 
L 419.364978 90.528447 
L 415.707148 87.955456 
L 419.228673 86.058389 
z
" clip-path="url(#pd523d00402)" style="stroke: #000000; stroke-linecap: round"/>
   </g>
   <g id="patch_4">
    <path d="M 349.441342 30.793162 
Q 373.556678 41.760216 396.654282 52.264431 
" clip-path="url(#pd523d00402)" style="fill: none; stroke: #000000; stroke-linecap: round"/>
    <path d="M 393.841083 48.787951 
L 396.654282 52.264431 
L 392.185178 52.429101 
L 393.841083 48.787951 
z
" clip-path="url(#pd523d00402)" style="stroke: #000000; stroke-linecap: round"/>
   </g>
   <g id="patch_5">
    <path d="M 345.742208 30.084783 
Q 315.938202 31.544737 287.250891 32.949988 
" clip-path="url(#pd523d00402)" style="fill: none; stroke: #000000; stroke-linecap: round"/>
    <path d="M 291.343954 34.751887 
L 287.250891 32.949988 
L 291.148248 30.756678 
L 291.343954 34.751887 
z
" clip-path="url(#pd523d00402)" style="stroke: #000000; stroke-linecap: round"/>
   </g>
   <g id="patch_6">
    <path d="M 407.067267 138.803256 
Q 387.839481 158.54245 369.391821 177.480768 
" clip-path="url(#pd523d00402)" style="fill: none; stroke: #000000; stroke-linecap: round"/>
    <path d="M 373.615538 176.011 
L 369.391821 177.480768 
L 370.750237 173.219934 
L 373.615538 176.011 
z
" clip-path="url(#pd523d00402)" style="stroke: #000000; stroke-linecap: round"/>
   </g>
   <g id="patch_7">
    <path d="M 408.9391 135.554176 
Q 414.614893 115.317056 419.988767 96.156433 
" clip-path="url(#pd523d00402)" style="fill: none; stroke: #000000; stroke-linecap: round"/>
    <path d="M 416.982893 99.467735 
L 419.988767 96.156433 
L 420.834285 100.547913 
L 416.982893 99.467735 
z
" clip-path="url(#pd523d00402)" style="stroke: #000000; stroke-linecap: round"/>
   </g>
   <g id="patch_8">
    <path d="M 419.895828 91.513864 
Q 410.123198 73.372936 400.880815 56.216304 
" clip-path="url(#pd523d00402)" style="fill: none; stroke: #000000; stroke-linecap: round"/>
    <path d="M 401.01712 60.686362 
L 400.880815 56.216304 
L 404.538644 58.789295 
L 401.01712 60.686362 
z
" clip-path="url(#pd523d00402)" style="stroke: #000000; stroke-linecap: round"/>
   </g>
   <g id="patch_9">
    <path d="M 420.290377 95.081038 
Q 414.614584 115.318158 409.24071 134.478781 
" clip-path="url(#pd523d00402)" style="fill: none; stroke: #000000; stroke-linecap: round"/>
    <path d="M 412.246584 131.167479 
L 409.24071 134.478781 
L 408.395193 130.0873 
L 412.246584 131.167479 
z
" clip-path="url(#pd523d00402)" style="stroke: #000000; stroke-linecap: round"/>
   </g>
   <g id="patch_10">
    <path d="M 210.833362 103.554603 
Q 209.733185 125.305329 208.689487 145.939448 
" clip-path="url(#pd523d00402)" style="fill: none; stroke: #000000; stroke-linecap: round"/>
    <path d="M 210.889 142.045588 
L 208.689487 145.939448 
L 206.894107 141.843522 
L 210.889 142.045588 
z
" clip-path="url(#pd523d00402)" style="stroke: #000000; stroke-linecap: round"/>
   </g>
   <g id="patch_11">
    <path d="M 211.912553 99.948525 
Q 222.948407 81.147148 233.418301 63.309975 
" clip-path="url(#pd523d00402)" style="fill: none; stroke: #000000; stroke-linecap: round"/>
    <path d="M 229.668642 65.747198 
L 233.418301 63.309975 
L 233.118284 67.772036 
L 229.668642 65.747198 
z
" clip-path="url(#pd523d00402)" style="stroke: #000000; stroke-linecap: round"/>
   </g>
   <g id="patch_12">
    <path d="M 208.633075 147.054724 
Q 209.733252 125.303998 210.77695 104.669879 
" clip-path="url(#pd523d00402)" style="fill: none; stroke: #000000; stroke-linecap: round"/>
    <path d="M 208.577437 108.563739 
L 210.77695 104.669879 
L 212.57233 108.765805 
L 208.577437 108.563739 
z
" clip-path="url(#pd523d00402)" style="stroke: #000000; stroke-linecap: round"/>
   </g>
   <g id="patch_13">
    <path d="M 209.008458 150.869652 
Q 214.88052 174.207641 220.479777 196.461389 
" clip-path="url(#pd523d00402)" style="fill: none; stroke: #000000; stroke-linecap: round"/>
    <path d="M 221.443307 192.094284 
L 220.479777 196.461389 
L 217.564211 193.070302 
L 221.443307 192.094284 
z
" clip-path="url(#pd523d00402)" style="stroke: #000000; stroke-linecap: round"/>
   </g>
   <g id="patch_14">
    <path d="M 286.132976 33.00475 
Q 315.936982 31.544796 344.624293 30.139544 
" clip-path="url(#pd523d00402)" style="fill: none; stroke: #000000; stroke-linecap: round"/>
    <path d="M 340.53123 28.337646 
L 344.624293 30.139544 
L 340.726936 32.332855 
L 340.53123 28.337646 
z
" clip-path="url(#pd523d00402)" style="stroke: #000000; stroke-linecap: round"/>
   </g>
   <g id="patch_15">
    <path d="M 282.50788 34.047024 
Q 259.582284 46.887262 237.632145 59.181163 
" clip-path="url(#pd523d00402)" style="fill: none; stroke: #000000; stroke-linecap: round"/>
    <path d="M 242.099362 58.971479 
L 237.632145 59.181163 
L 240.144728 55.481578 
L 242.099362 58.971479 
z
" clip-path="url(#pd523d00402)" style="stroke: #000000; stroke-linecap: round"/>
   </g>
   <g id="patch_16">
    <path d="M 233.983585 62.346921 
Q 222.947732 81.148298 212.477838 98.985471 
" clip-path="url(#pd523d00402)" style="fill: none; stroke: #000000; stroke-linecap: round"/>
    <path d="M 216.227497 96.548248 
L 212.477838 98.985471 
L 212.777855 94.52341 
L 216.227497 96.548248 
z
" clip-path="url(#pd523d00402)" style="stroke: #000000; stroke-linecap: round"/>
   </g>
   <g id="patch_17">
    <path d="M 236.656789 59.727443 
Q 259.582385 46.887205 281.532524 34.593304 
" clip-path="url(#pd523d00402)" style="fill: none; stroke: #000000; stroke-linecap: round"/>
    <path d="M 277.065306 34.802988 
L 281.532524 34.593304 
L 279.019941 38.292889 
L 277.065306 34.802988 
z
" clip-path="url(#pd523d00402)" style="stroke: #000000; stroke-linecap: round"/>
   </g>
   <g id="patch_18">
    <path d="M 220.751338 197.540686 
Q 214.879276 174.202697 209.28002 151.948949 
" clip-path="url(#pd523d00402)" style="fill: none; stroke: #000000; stroke-linecap: round"/>
    <path d="M 208.316489 156.316054 
L 209.28002 151.948949 
L 212.195586 155.340036 
L 208.316489 156.316054 
z
" clip-path="url(#pd523d00402)" style="stroke: #000000; stroke-linecap: round"/>
   </g>
   <g id="patch_19">
    <path d="M 223.115715 199.833267 
Q 263.151352 208.551595 302.094556 217.032031 
" clip-path="url(#pd523d00402)" style="fill: none; stroke: #000000; stroke-linecap: round"/>
    <path d="M 298.611709 214.226719 
L 302.094556 217.032031 
L 297.760598 218.135122 
L 298.611709 214.226719 
z
" clip-path="url(#pd523d00402)" style="stroke: #000000; stroke-linecap: round"/>
   </g>
   <g id="patch_20">
    <path d="M 219.469094 200.228398 
Q 187.229151 215.048593 156.005053 229.401819 
" clip-path="url(#pd523d00402)" style="fill: none; stroke: #000000; stroke-linecap: round"/>
    <path d="M 160.474788 229.548343 
L 156.005053 229.401819 
L 158.804113 225.913945 
L 160.474788 229.548343 
z
" clip-path="url(#pd523d00402)" style="stroke: #000000; stroke-linecap: round"/>
   </g>
   <g id="patch_21">
    <path d="M 352.897567 235.517741 
Q 329.895246 226.938012 307.940462 218.749007 
" clip-path="url(#pd523d00402)" style="fill: none; stroke: #000000; stroke-linecap: round"/>
    <path d="M 310.989294 222.020799 
L 307.940462 218.749007 
L 312.387194 218.273017 
L 310.989294 222.020799 
z
" clip-path="url(#pd523d00402)" style="stroke: #000000; stroke-linecap: round"/>
   </g>
   <g id="patch_22">
    <path d="M 368.607314 178.286141 
Q 387.8351 158.546947 406.28276 139.60863 
" clip-path="url(#pd523d00402)" style="fill: none; stroke: #000000; stroke-linecap: round"/>
    <path d="M 402.059043 141.078397 
L 406.28276 139.60863 
L 404.924344 143.869464 
L 402.059043 141.078397 
z
" clip-path="url(#pd523d00402)" style="stroke: #000000; stroke-linecap: round"/>
   </g>
   <g id="patch_23">
    <path d="M 365.607488 180.680218 
Q 336.169675 198.676484 307.685767 216.089599 
" clip-path="url(#pd523d00402)" style="fill: none; stroke: #000000; stroke-linecap: round"/>
    <path d="M 312.141734 215.709647 
L 307.685767 216.089599 
L 310.055386 212.296855 
L 312.141734 215.709647 
z
" clip-path="url(#pd523d00402)" style="stroke: #000000; stroke-linecap: round"/>
   </g>
   <g id="patch_24">
    <path d="M 120.144902 300.621446 
Q 110.105179 284.101425 100.6461 268.536837 
" clip-path="url(#pd523d00402)" style="fill: none; stroke: #000000; stroke-linecap: round"/>
    <path d="M 101.014352 272.993785 
L 100.6461 268.536837 
L 104.43261 270.916405 
L 101.014352 272.993785 
z
" clip-path="url(#pd523d00402)" style="stroke: #000000; stroke-linecap: round"/>
   </g>
   <g id="patch_25">
    <path d="M 123.031547 302.726012 
Q 148.930015 308.941883 173.741323 314.896826 
" clip-path="url(#pd523d00402)" style="fill: none; stroke: #000000; stroke-linecap: round"/>
    <path d="M 170.318545 312.018529 
L 173.741323 314.896826 
L 169.385019 315.90807 
L 170.318545 312.018529 
z
" clip-path="url(#pd523d00402)" style="stroke: #000000; stroke-linecap: round"/>
   </g>
   <g id="patch_26">
    <path d="M 100.063511 267.578206 
Q 110.103235 284.098227 119.562313 299.662816 
" clip-path="url(#pd523d00402)" style="fill: none; stroke: #000000; stroke-linecap: round"/>
    <path d="M 119.194062 295.205867 
L 119.562313 299.662816 
L 115.775803 297.283248 
L 119.194062 295.205867 
z
" clip-path="url(#pd523d00402)" style="stroke: #000000; stroke-linecap: round"/>
   </g>
   <g id="patch_27">
    <path d="M 97.137314 266.137044 
Q 69.523042 269.178583 43.020084 272.097717 
" clip-path="url(#pd523d00402)" style="fill: none; stroke: #000000; stroke-linecap: round"/>
    <path d="M 47.215002 273.647768 
L 43.020084 272.097717 
L 46.777076 269.671813 
L 47.215002 273.647768 
z
" clip-path="url(#pd523d00402)" style="stroke: #000000; stroke-linecap: round"/>
   </g>
   <g id="patch_28">
    <path d="M 100.682464 264.869052 
Q 126.143464 248.302162 150.667346 232.345034 
" clip-path="url(#pd523d00402)" style="fill: none; stroke: #000000; stroke-linecap: round"/>
    <path d="M 146.223835 232.850215 
L 150.667346 232.345034 
L 148.405384 236.202952 
L 146.223835 232.850215 
z
" clip-path="url(#pd523d00402)" style="stroke: #000000; stroke-linecap: round"/>
   </g>
   <g id="patch_29">
    <path d="M 41.9085 272.220151 
Q 69.522772 269.178613 96.02573 266.259478 
" clip-path="url(#pd523d00402)" style="fill: none; stroke: #000000; stroke-linecap: round"/>
    <path d="M 91.830812 264.709427 
L 96.02573 266.259478 
L 92.268738 268.685382 
L 91.830812 264.709427 
z
" clip-path="url(#pd523d00402)" style="stroke: #000000; stroke-linecap: round"/>
   </g>
   <g id="patch_30">
    <path d="M 154.986016 229.870255 
Q 187.225959 215.05006 218.450057 200.696833 
" clip-path="url(#pd523d00402)" style="fill: none; stroke: #000000; stroke-linecap: round"/>
    <path d="M 213.980322 200.55031 
L 218.450057 200.696833 
L 215.650997 204.184707 
L 213.980322 200.55031 
z
" clip-path="url(#pd523d00402)" style="stroke: #000000; stroke-linecap: round"/>
   </g>
   <g id="patch_31">
    <path d="M 151.60713 231.733538 
Q 126.146129 248.300428 101.622247 264.257557 
" clip-path="url(#pd523d00402)" style="fill: none; stroke: #000000; stroke-linecap: round"/>
    <path d="M 106.065758 263.752376 
L 101.622247 264.257557 
L 103.884209 260.399639 
L 106.065758 263.752376 
z
" clip-path="url(#pd523d00402)" style="stroke: #000000; stroke-linecap: round"/>
   </g>
   <g id="patch_32">
    <path d="M 174.830254 315.158179 
Q 148.931786 308.942308 124.120478 302.987366 
" clip-path="url(#pd523d00402)" style="fill: none; stroke: #000000; stroke-linecap: round"/>
    <path d="M 127.543256 305.865662 
L 124.120478 302.987366 
L 128.476782 301.976121 
L 127.543256 305.865662 
z
" clip-path="url(#pd523d00402)" style="stroke: #000000; stroke-linecap: round"/>
   </g>
   <g id="patch_33">
    <path d="M 178.583373 315.110497 
Q 206.590273 307.634497 233.516961 300.446843 
" clip-path="url(#pd523d00402)" style="fill: none; stroke: #000000; stroke-linecap: round"/>
    <path d="M 229.13647 299.546118 
L 233.516961 300.446843 
L 230.168086 303.4108 
L 229.13647 299.546118 
z
" clip-path="url(#pd523d00402)" style="stroke: #000000; stroke-linecap: round"/>
   </g>
   <g id="patch_34">
    <path d="M 234.595117 300.159046 
Q 206.588217 307.635046 179.66153 314.8227 
" clip-path="url(#pd523d00402)" style="fill: none; stroke: #000000; stroke-linecap: round"/>
    <path d="M 184.04202 315.723426 
L 179.66153 314.8227 
L 183.010404 311.858743 
L 184.04202 315.723426 
z
" clip-path="url(#pd523d00402)" style="stroke: #000000; stroke-linecap: round"/>
   </g>
   <g id="patch_35">
    <path d="M 237.958962 298.431355 
Q 258.109426 281.852697 277.396514 265.984377 
" clip-path="url(#pd523d00402)" style="fill: none; stroke: #000000; stroke-linecap: round"/>
    <path d="M 273.036911 266.981303 
L 277.396514 265.984377 
L 275.578292 270.070215 
L 273.036911 266.981303 
z
" clip-path="url(#pd523d00402)" style="stroke: #000000; stroke-linecap: round"/>
   </g>
   <g id="patch_36">
    <path d="M 278.264534 265.270219 
Q 258.11407 281.848877 238.826983 297.717197 
" clip-path="url(#pd523d00402)" style="fill: none; stroke: #000000; stroke-linecap: round"/>
    <path d="M 243.186586 296.720272 
L 238.826983 297.717197 
L 240.645204 293.631359 
L 243.186586 296.720272 
z
" clip-path="url(#pd523d00402)" style="stroke: #000000; stroke-linecap: round"/>
   </g>
   <g id="patch_37">
    <path d="M 280.686336 262.341376 
Q 292.419636 240.860901 303.616977 220.361622 
" clip-path="url(#pd523d00402)" style="fill: none; stroke: #000000; stroke-linecap: round"/>
    <path d="M 299.94425 222.913304 
L 303.616977 220.361622 
L 303.454686 224.830812 
L 299.94425 222.913304 
z
" clip-path="url(#pd523d00402)" style="stroke: #000000; stroke-linecap: round"/>
   </g>
   <g id="patch_38">
    <path d="M 303.189362 217.27044 
Q 263.153726 208.552112 224.210521 200.071677 
" clip-path="url(#pd523d00402)" style="fill: none; stroke: #000000; stroke-linecap: round"/>
    <path d="M 227.693369 202.876988 
L 224.210521 200.071677 
L 228.544479 198.968586 
L 227.693369 202.876988 
z
" clip-path="url(#pd523d00402)" style="stroke: #000000; stroke-linecap: round"/>
   </g>
   <g id="patch_39">
    <path d="M 306.895056 218.359077 
Q 329.897378 226.938807 351.852162 235.127811 
" clip-path="url(#pd523d00402)" style="fill: none; stroke: #000000; stroke-linecap: round"/>
    <path d="M 348.80333 231.856019 
L 351.852162 235.127811 
L 347.405429 235.603802 
L 348.80333 231.856019 
z
" clip-path="url(#pd523d00402)" style="stroke: #000000; stroke-linecap: round"/>
   </g>
   <g id="patch_40">
    <path d="M 306.731362 216.673057 
Q 336.169174 198.676791 364.653082 181.263676 
" clip-path="url(#pd523d00402)" style="fill: none; stroke: #000000; stroke-linecap: round"/>
    <path d="M 360.197116 181.643628 
L 364.653082 181.263676 
L 362.283464 185.05642 
L 360.197116 181.643628 
z
" clip-path="url(#pd523d00402)" style="stroke: #000000; stroke-linecap: round"/>
   </g>
   <g id="patch_41">
    <path d="M 304.151618 219.382839 
Q 292.418318 240.863314 281.220978 261.362593 
" clip-path="url(#pd523d00402)" style="fill: none; stroke: #000000; stroke-linecap: round"/>
    <path d="M 284.893704 258.810912 
L 281.220978 261.362593 
L 281.383269 256.893403 
L 284.893704 258.810912 
z
" clip-path="url(#pd523d00402)" style="stroke: #000000; stroke-linecap: round"/>
   </g>
   <g id="PathCollection_1">
    <defs>
     <path id="m6b59d31d95" d="M 0 1.936492 
C 0.513564 1.936492 1.006162 1.732451 1.369306 1.369306 
C 1.732451 1.006162 1.936492 0.513564 1.936492 0 
C 1.936492 -0.513564 1.732451 -1.006162 1.369306 -1.369306 
C 1.006162 -1.732451 0.513564 -1.936492 0 -1.936492 
C -0.513564 -1.936492 -1.006162 -1.732451 -1.369306 -1.369306 
C -1.732451 -1.006162 -1.936492 -0.513564 -1.936492 0 
C -1.936492 0.513564 -1.732451 1.006162 -1.369306 1.369306 
C -1.006162 1.732451 -0.513564 1.936492 0 1.936492 
z
" style="stroke: #1f78b4"/>
    </defs>
    <g clip-path="url(#pd523d00402)">
     <use xlink:href="#m6b59d31d95" x="399.432569" y="53.527927" style="fill: #1f78b4; stroke: #1f78b4"/>
     <use xlink:href="#m6b59d31d95" x="347.675459" y="29.990083" style="fill: #1f78b4; stroke: #1f78b4"/>
     <use xlink:href="#m6b59d31d95" x="408.416255" y="137.41839" style="fill: #1f78b4; stroke: #1f78b4"/>
     <use xlink:href="#m6b59d31d95" x="420.813223" y="93.216824" style="fill: #1f78b4; stroke: #1f78b4"/>
     <use xlink:href="#m6b59d31d95" x="210.931195" y="101.620429" style="fill: #1f78b4; stroke: #1f78b4"/>
     <use xlink:href="#m6b59d31d95" x="208.535242" y="148.988897" style="fill: #1f78b4; stroke: #1f78b4"/>
     <use xlink:href="#m6b59d31d95" x="284.199725" y="33.09945" style="fill: #1f78b4; stroke: #1f78b4"/>
     <use xlink:href="#m6b59d31d95" x="234.964944" y="60.675017" style="fill: #1f78b4; stroke: #1f78b4"/>
     <use xlink:href="#m6b59d31d95" x="221.224554" y="199.42144" style="fill: #1f78b4; stroke: #1f78b4"/>
     <use xlink:href="#m6b59d31d95" x="354.7121" y="236.194551" style="fill: #1f78b4; stroke: #1f78b4"/>
     <use xlink:href="#m6b59d31d95" x="367.258326" y="179.671008" style="fill: #1f78b4; stroke: #1f78b4"/>
     <use xlink:href="#m6b59d31d95" x="121.149376" y="302.274274" style="fill: #1f78b4; stroke: #1f78b4"/>
     <use xlink:href="#m6b59d31d95" x="99.059037" y="265.925379" style="fill: #1f78b4; stroke: #1f78b4"/>
     <use xlink:href="#m6b59d31d95" x="39.986777" y="272.431817" style="fill: #1f78b4; stroke: #1f78b4"/>
     <use xlink:href="#m6b59d31d95" x="153.230556" y="230.677212" style="fill: #1f78b4; stroke: #1f78b4"/>
     <use xlink:href="#m6b59d31d95" x="176.712425" y="315.609917" style="fill: #1f78b4; stroke: #1f78b4"/>
     <use xlink:href="#m6b59d31d95" x="236.466065" y="299.659626" style="fill: #1f78b4; stroke: #1f78b4"/>
     <use xlink:href="#m6b59d31d95" x="279.757431" y="264.041948" style="fill: #1f78b4; stroke: #1f78b4"/>
     <use xlink:href="#m6b59d31d95" x="305.080523" y="217.682267" style="fill: #1f78b4; stroke: #1f78b4"/>
    </g>
   </g>
   <g id="text_1">
    <g clip-path="url(#pd523d00402)">
     <!-- 0 -->
     <g transform="translate(396.251319 56.287302) scale(0.1 -0.1)">
      <defs>
       <path id="DejaVuSans-30" d="M 2034 4250 
Q 1547 4250 1301 3770 
Q 1056 3291 1056 2328 
Q 1056 1369 1301 889 
Q 1547 409 2034 409 
Q 2525 409 2770 889 
Q 3016 1369 3016 2328 
Q 3016 3291 2770 3770 
Q 2525 4250 2034 4250 
z
M 2034 4750 
Q 2819 4750 3233 4129 
Q 3647 3509 3647 2328 
Q 3647 1150 3233 529 
Q 2819 -91 2034 -91 
Q 1250 -91 836 529 
Q 422 1150 422 2328 
Q 422 3509 836 4129 
Q 1250 4750 2034 4750 
z
" transform="scale(0.015625)"/>
      </defs>
      <use xlink:href="#DejaVuSans-30"/>
     </g>
    </g>
   </g>
   <g id="text_2">
    <g clip-path="url(#pd523d00402)">
     <!-- 1 -->
     <g transform="translate(344.494209 32.749458) scale(0.1 -0.1)">
      <defs>
       <path id="DejaVuSans-31" d="M 794 531 
L 1825 531 
L 1825 4091 
L 703 3866 
L 703 4441 
L 1819 4666 
L 2450 4666 
L 2450 531 
L 3481 531 
L 3481 0 
L 794 0 
L 794 531 
z
" transform="scale(0.015625)"/>
      </defs>
      <use xlink:href="#DejaVuSans-31"/>
     </g>
    </g>
   </g>
   <g id="text_3">
    <g clip-path="url(#pd523d00402)">
     <!-- 2 -->
     <g transform="translate(405.235005 140.177765) scale(0.1 -0.1)">
      <defs>
       <path id="DejaVuSans-32" d="M 1228 531 
L 3431 531 
L 3431 0 
L 469 0 
L 469 531 
Q 828 903 1448 1529 
Q 2069 2156 2228 2338 
Q 2531 2678 2651 2914 
Q 2772 3150 2772 3378 
Q 2772 3750 2511 3984 
Q 2250 4219 1831 4219 
Q 1534 4219 1204 4116 
Q 875 4013 500 3803 
L 500 4441 
Q 881 4594 1212 4672 
Q 1544 4750 1819 4750 
Q 2544 4750 2975 4387 
Q 3406 4025 3406 3419 
Q 3406 3131 3298 2873 
Q 3191 2616 2906 2266 
Q 2828 2175 2409 1742 
Q 1991 1309 1228 531 
z
" transform="scale(0.015625)"/>
      </defs>
      <use xlink:href="#DejaVuSans-32"/>
     </g>
    </g>
   </g>
   <g id="text_4">
    <g clip-path="url(#pd523d00402)">
     <!-- 3 -->
     <g transform="translate(417.631973 95.976199) scale(0.1 -0.1)">
      <defs>
       <path id="DejaVuSans-33" d="M 2597 2516 
Q 3050 2419 3304 2112 
Q 3559 1806 3559 1356 
Q 3559 666 3084 287 
Q 2609 -91 1734 -91 
Q 1441 -91 1130 -33 
Q 819 25 488 141 
L 488 750 
Q 750 597 1062 519 
Q 1375 441 1716 441 
Q 2309 441 2620 675 
Q 2931 909 2931 1356 
Q 2931 1769 2642 2001 
Q 2353 2234 1838 2234 
L 1294 2234 
L 1294 2753 
L 1863 2753 
Q 2328 2753 2575 2939 
Q 2822 3125 2822 3475 
Q 2822 3834 2567 4026 
Q 2313 4219 1838 4219 
Q 1578 4219 1281 4162 
Q 984 4106 628 3988 
L 628 4550 
Q 988 4650 1302 4700 
Q 1616 4750 1894 4750 
Q 2613 4750 3031 4423 
Q 3450 4097 3450 3541 
Q 3450 3153 3228 2886 
Q 3006 2619 2597 2516 
z
" transform="scale(0.015625)"/>
      </defs>
      <use xlink:href="#DejaVuSans-33"/>
     </g>
    </g>
   </g>
   <g id="text_5">
    <g clip-path="url(#pd523d00402)">
     <!-- 4 -->
     <g transform="translate(207.749945 104.379804) scale(0.1 -0.1)">
      <defs>
       <path id="DejaVuSans-34" d="M 2419 4116 
L 825 1625 
L 2419 1625 
L 2419 4116 
z
M 2253 4666 
L 3047 4666 
L 3047 1625 
L 3713 1625 
L 3713 1100 
L 3047 1100 
L 3047 0 
L 2419 0 
L 2419 1100 
L 313 1100 
L 313 1709 
L 2253 4666 
z
" transform="scale(0.015625)"/>
      </defs>
      <use xlink:href="#DejaVuSans-34"/>
     </g>
    </g>
   </g>
   <g id="text_6">
    <g clip-path="url(#pd523d00402)">
     <!-- 5 -->
     <g transform="translate(205.353992 151.748272) scale(0.1 -0.1)">
      <defs>
       <path id="DejaVuSans-35" d="M 691 4666 
L 3169 4666 
L 3169 4134 
L 1269 4134 
L 1269 2991 
Q 1406 3038 1543 3061 
Q 1681 3084 1819 3084 
Q 2600 3084 3056 2656 
Q 3513 2228 3513 1497 
Q 3513 744 3044 326 
Q 2575 -91 1722 -91 
Q 1428 -91 1123 -41 
Q 819 9 494 109 
L 494 744 
Q 775 591 1075 516 
Q 1375 441 1709 441 
Q 2250 441 2565 725 
Q 2881 1009 2881 1497 
Q 2881 1984 2565 2268 
Q 2250 2553 1709 2553 
Q 1456 2553 1204 2497 
Q 953 2441 691 2322 
L 691 4666 
z
" transform="scale(0.015625)"/>
      </defs>
      <use xlink:href="#DejaVuSans-35"/>
     </g>
    </g>
   </g>
   <g id="text_7">
    <g clip-path="url(#pd523d00402)">
     <!-- 6 -->
     <g transform="translate(281.018475 35.858825) scale(0.1 -0.1)">
      <defs>
       <path id="DejaVuSans-36" d="M 2113 2584 
Q 1688 2584 1439 2293 
Q 1191 2003 1191 1497 
Q 1191 994 1439 701 
Q 1688 409 2113 409 
Q 2538 409 2786 701 
Q 3034 994 3034 1497 
Q 3034 2003 2786 2293 
Q 2538 2584 2113 2584 
z
M 3366 4563 
L 3366 3988 
Q 3128 4100 2886 4159 
Q 2644 4219 2406 4219 
Q 1781 4219 1451 3797 
Q 1122 3375 1075 2522 
Q 1259 2794 1537 2939 
Q 1816 3084 2150 3084 
Q 2853 3084 3261 2657 
Q 3669 2231 3669 1497 
Q 3669 778 3244 343 
Q 2819 -91 2113 -91 
Q 1303 -91 875 529 
Q 447 1150 447 2328 
Q 447 3434 972 4092 
Q 1497 4750 2381 4750 
Q 2619 4750 2861 4703 
Q 3103 4656 3366 4563 
z
" transform="scale(0.015625)"/>
      </defs>
      <use xlink:href="#DejaVuSans-36"/>
     </g>
    </g>
   </g>
   <g id="text_8">
    <g clip-path="url(#pd523d00402)">
     <!-- 7 -->
     <g transform="translate(231.783694 63.434392) scale(0.1 -0.1)">
      <defs>
       <path id="DejaVuSans-37" d="M 525 4666 
L 3525 4666 
L 3525 4397 
L 1831 0 
L 1172 0 
L 2766 4134 
L 525 4134 
L 525 4666 
z
" transform="scale(0.015625)"/>
      </defs>
      <use xlink:href="#DejaVuSans-37"/>
     </g>
    </g>
   </g>
   <g id="text_9">
    <g clip-path="url(#pd523d00402)">
     <!-- 8 -->
     <g transform="translate(218.043304 202.180815) scale(0.1 -0.1)">
      <defs>
       <path id="DejaVuSans-38" d="M 2034 2216 
Q 1584 2216 1326 1975 
Q 1069 1734 1069 1313 
Q 1069 891 1326 650 
Q 1584 409 2034 409 
Q 2484 409 2743 651 
Q 3003 894 3003 1313 
Q 3003 1734 2745 1975 
Q 2488 2216 2034 2216 
z
M 1403 2484 
Q 997 2584 770 2862 
Q 544 3141 544 3541 
Q 544 4100 942 4425 
Q 1341 4750 2034 4750 
Q 2731 4750 3128 4425 
Q 3525 4100 3525 3541 
Q 3525 3141 3298 2862 
Q 3072 2584 2669 2484 
Q 3125 2378 3379 2068 
Q 3634 1759 3634 1313 
Q 3634 634 3220 271 
Q 2806 -91 2034 -91 
Q 1263 -91 848 271 
Q 434 634 434 1313 
Q 434 1759 690 2068 
Q 947 2378 1403 2484 
z
M 1172 3481 
Q 1172 3119 1398 2916 
Q 1625 2713 2034 2713 
Q 2441 2713 2670 2916 
Q 2900 3119 2900 3481 
Q 2900 3844 2670 4047 
Q 2441 4250 2034 4250 
Q 1625 4250 1398 4047 
Q 1172 3844 1172 3481 
z
" transform="scale(0.015625)"/>
      </defs>
      <use xlink:href="#DejaVuSans-38"/>
     </g>
    </g>
   </g>
   <g id="text_10">
    <g clip-path="url(#pd523d00402)">
     <!-- 9 -->
     <g transform="translate(351.53085 238.953926) scale(0.1 -0.1)">
      <defs>
       <path id="DejaVuSans-39" d="M 703 97 
L 703 672 
Q 941 559 1184 500 
Q 1428 441 1663 441 
Q 2288 441 2617 861 
Q 2947 1281 2994 2138 
Q 2813 1869 2534 1725 
Q 2256 1581 1919 1581 
Q 1219 1581 811 2004 
Q 403 2428 403 3163 
Q 403 3881 828 4315 
Q 1253 4750 1959 4750 
Q 2769 4750 3195 4129 
Q 3622 3509 3622 2328 
Q 3622 1225 3098 567 
Q 2575 -91 1691 -91 
Q 1453 -91 1209 -44 
Q 966 3 703 97 
z
M 1959 2075 
Q 2384 2075 2632 2365 
Q 2881 2656 2881 3163 
Q 2881 3666 2632 3958 
Q 2384 4250 1959 4250 
Q 1534 4250 1286 3958 
Q 1038 3666 1038 3163 
Q 1038 2656 1286 2365 
Q 1534 2075 1959 2075 
z
" transform="scale(0.015625)"/>
      </defs>
      <use xlink:href="#DejaVuSans-39"/>
     </g>
    </g>
   </g>
   <g id="text_11">
    <g clip-path="url(#pd523d00402)">
     <!-- 10 -->
     <g transform="translate(360.895826 182.430383) scale(0.1 -0.1)">
      <use xlink:href="#DejaVuSans-31"/>
      <use xlink:href="#DejaVuSans-30" x="63.623047"/>
     </g>
    </g>
   </g>
   <g id="text_12">
    <g clip-path="url(#pd523d00402)">
     <!-- 11 -->
     <g transform="translate(114.786876 305.033649) scale(0.1 -0.1)">
      <use xlink:href="#DejaVuSans-31"/>
      <use xlink:href="#DejaVuSans-31" x="63.623047"/>
     </g>
    </g>
   </g>
   <g id="text_13">
    <g clip-path="url(#pd523d00402)">
     <!-- 12 -->
     <g transform="translate(92.696537 268.684754) scale(0.1 -0.1)">
      <use xlink:href="#DejaVuSans-31"/>
      <use xlink:href="#DejaVuSans-32" x="63.623047"/>
     </g>
    </g>
   </g>
   <g id="text_14">
    <g clip-path="url(#pd523d00402)">
     <!-- 13 -->
     <g transform="translate(33.624277 275.191192) scale(0.1 -0.1)">
      <use xlink:href="#DejaVuSans-31"/>
      <use xlink:href="#DejaVuSans-33" x="63.623047"/>
     </g>
    </g>
   </g>
   <g id="text_15">
    <g clip-path="url(#pd523d00402)">
     <!-- 14 -->
     <g transform="translate(146.868056 233.436587) scale(0.1 -0.1)">
      <use xlink:href="#DejaVuSans-31"/>
      <use xlink:href="#DejaVuSans-34" x="63.623047"/>
     </g>
    </g>
   </g>
   <g id="text_16">
    <g clip-path="url(#pd523d00402)">
     <!-- 15 -->
     <g transform="translate(170.349925 318.369292) scale(0.1 -0.1)">
      <use xlink:href="#DejaVuSans-31"/>
      <use xlink:href="#DejaVuSans-35" x="63.623047"/>
     </g>
    </g>
   </g>
   <g id="text_17">
    <g clip-path="url(#pd523d00402)">
     <!-- 16 -->
     <g transform="translate(230.103565 302.419001) scale(0.1 -0.1)">
      <use xlink:href="#DejaVuSans-31"/>
      <use xlink:href="#DejaVuSans-36" x="63.623047"/>
     </g>
    </g>
   </g>
   <g id="text_18">
    <g clip-path="url(#pd523d00402)">
     <!-- 17 -->
     <g transform="translate(273.394931 266.801323) scale(0.1 -0.1)">
      <use xlink:href="#DejaVuSans-31"/>
      <use xlink:href="#DejaVuSans-37" x="63.623047"/>
     </g>
    </g>
   </g>
   <g id="text_19">
    <g clip-path="url(#pd523d00402)">
     <!-- 18 -->
     <g transform="translate(298.718023 220.441642) scale(0.1 -0.1)">
      <use xlink:href="#DejaVuSans-31"/>
      <use xlink:href="#DejaVuSans-38" x="63.623047"/>
     </g>
    </g>
   </g>
  </g>
 </g>
 <defs>
  <clipPath id="pd523d00402">
   <rect x="0" y="0" width="460.8" height="345.6"/>
  </clipPath>
 </defs>
</svg>
