<?xml version="1.0" encoding="utf-8" standalone="no"?>
<!DOCTYPE svg PUBLIC "-//W3C//DTD SVG 1.1//EN"
  "http://www.w3.org/Graphics/SVG/1.1/DTD/svg11.dtd">
<svg xmlns:xlink="http://www.w3.org/1999/xlink" width="460.8pt" height="345.6pt" viewBox="0 0 460.8 345.6" xmlns="http://www.w3.org/2000/svg" version="1.1">
 <metadata>
  <rdf:RDF xmlns:dc="http://purl.org/dc/elements/1.1/" xmlns:cc="http://creativecommons.org/ns#" xmlns:rdf="http://www.w3.org/1999/02/22-rdf-syntax-ns#">
   <cc:Work>
    <dc:type rdf:resource="http://purl.org/dc/dcmitype/StillImage"/>
    <dc:date>2023-10-10T10:58:08.088190</dc:date>
    <dc:format>image/svg+xml</dc:format>
    <dc:creator>
     <cc:Agent>
      <dc:title>Matplotlib v3.6.1, https://matplotlib.org/</dc:title>
     </cc:Agent>
    </dc:creator>
   </cc:Work>
  </rdf:RDF>
 </metadata>
 <defs>
  <style type="text/css">*{stroke-linejoin: round; stroke-linecap: butt}</style>
 </defs>
 <g id="figure_1">
  <g id="patch_1">
   <path d="M 0 345.6 
L 460.8 345.6 
L 460.8 0 
L 0 0 
z
" style="fill: #ffffff"/>
  </g>
  <g id="axes_1">
   <g id="patch_2">
    <path d="M 99.592478 120.349488 
Q 96.137896 94.831319 92.833302 70.421077 
" clip-path="url(#p0444596712)" style="fill: none; stroke: #000000; stroke-linecap: round"/>
    <path d="M 91.387995 74.653226 
L 92.833302 70.421077 
L 95.351837 74.116612 
L 91.387995 74.653226 
z
" clip-path="url(#p0444596712)" style="stroke: #000000; stroke-linecap: round"/>
   </g>
   <g id="patch_3">
    <path d="M 100.199262 124.170463 
Q 107.048463 161.712549 113.697 198.154755 
" clip-path="url(#p0444596712)" style="fill: none; stroke: #000000; stroke-linecap: round"/>
    <path d="M 114.946612 193.860751 
L 113.697 198.154755 
L 111.011564 194.578664 
L 114.946612 193.860751 
z
" clip-path="url(#p0444596712)" style="stroke: #000000; stroke-linecap: round"/>
   </g>
   <g id="patch_4">
    <path d="M 99.552581 124.178803 
Q 97.459881 137.517887 95.540464 149.752447 
" clip-path="url(#p0444596712)" style="fill: none; stroke: #000000; stroke-linecap: round"/>
    <path d="M 98.136253 146.11076 
L 95.540464 149.752447 
L 94.184588 145.490804 
L 98.136253 146.11076 
z
" clip-path="url(#p0444596712)" style="stroke: #000000; stroke-linecap: round"/>
   </g>
   <g id="patch_5">
    <path d="M 98.495928 120.888862 
Q 78.848584 100.903631 59.985042 81.715682 
" clip-path="url(#p0444596712)" style="fill: none; stroke: #000000; stroke-linecap: round"/>
    <path d="M 61.363035 85.970224 
L 59.985042 81.715682 
L 64.215472 83.166013 
L 61.363035 85.970224 
z
" clip-path="url(#p0444596712)" style="stroke: #000000; stroke-linecap: round"/>
   </g>
   <g id="patch_6">
    <path d="M 98.167825 121.310428 
Q 69.920685 105.243602 42.64537 89.729545 
" clip-path="url(#p0444596712)" style="fill: none; stroke: #000000; stroke-linecap: round"/>
    <path d="M 45.133457 93.445649 
L 42.64537 89.729545 
L 47.111105 89.968738 
L 45.133457 93.445649 
z
" clip-path="url(#p0444596712)" style="stroke: #000000; stroke-linecap: round"/>
   </g>
   <g id="patch_7">
    <path d="M 101.762455 122.583819 
Q 146.355288 129.944108 189.845012 137.122322 
" clip-path="url(#p0444596712)" style="fill: none; stroke: #000000; stroke-linecap: round"/>
    <path d="M 186.224114 134.497613 
L 189.845012 137.122322 
L 185.572706 138.444215 
L 186.224114 134.497613 
z
" clip-path="url(#p0444596712)" style="stroke: #000000; stroke-linecap: round"/>
   </g>
   <g id="patch_8">
    <path d="M 92.683649 69.315624 
Q 96.138231 94.833794 99.442825 119.244036 
" clip-path="url(#p0444596712)" style="fill: none; stroke: #000000; stroke-linecap: round"/>
    <path d="M 100.888131 115.011887 
L 99.442825 119.244036 
L 96.924289 115.548501 
L 100.888131 115.011887 
z
" clip-path="url(#p0444596712)" style="stroke: #000000; stroke-linecap: round"/>
   </g>
   <g id="patch_9">
    <path d="M 92.823335 65.501597 
Q 96.366758 48.693016 99.679557 32.978424 
" clip-path="url(#p0444596712)" style="fill: none; stroke: #000000; stroke-linecap: round"/>
    <path d="M 96.897463 36.479846 
L 99.679557 32.978424 
L 100.811438 37.304952 
L 96.897463 36.479846 
z
" clip-path="url(#p0444596712)" style="stroke: #000000; stroke-linecap: round"/>
   </g>
   <g id="patch_10">
    <path d="M 171.156135 211.212471 
Q 143.653997 206.353545 117.252843 201.689135 
" clip-path="url(#p0444596712)" style="fill: none; stroke: #000000; stroke-linecap: round"/>
    <path d="M 120.843879 204.354553 
L 117.252843 201.689135 
L 121.5398 200.415556 
L 120.843879 204.354553 
z
" clip-path="url(#p0444596712)" style="stroke: #000000; stroke-linecap: round"/>
   </g>
   <g id="patch_11">
    <path d="M 174.995457 211.441616 
Q 207.263631 209.644768 238.415501 207.910082 
" clip-path="url(#p0444596712)" style="fill: none; stroke: #000000; stroke-linecap: round"/>
    <path d="M 234.310491 206.13557 
L 238.415501 207.910082 
L 234.532885 210.129383 
L 234.310491 206.13557 
z
" clip-path="url(#p0444596712)" style="stroke: #000000; stroke-linecap: round"/>
   </g>
   <g id="patch_12">
    <path d="M 113.89787 199.255771 
Q 107.04867 161.713685 100.400132 125.271478 
" clip-path="url(#p0444596712)" style="fill: none; stroke: #000000; stroke-linecap: round"/>
    <path d="M 99.150521 129.565482 
L 100.400132 125.271478 
L 103.085569 128.84757 
L 99.150521 129.565482 
z
" clip-path="url(#p0444596712)" style="stroke: #000000; stroke-linecap: round"/>
   </g>
   <g id="patch_13">
    <path d="M 116.151116 201.494488 
Q 143.653254 206.353414 170.054408 211.017824 
" clip-path="url(#p0444596712)" style="fill: none; stroke: #000000; stroke-linecap: round"/>
    <path d="M 166.463372 208.352406 
L 170.054408 211.017824 
L 165.767451 212.291402 
L 166.463372 208.352406 
z
" clip-path="url(#p0444596712)" style="stroke: #000000; stroke-linecap: round"/>
   </g>
   <g id="patch_14">
    <path d="M 114.471366 203.081211 
Q 118.184418 234.612779 121.766718 265.033985 
" clip-path="url(#p0444596712)" style="fill: none; stroke: #000000; stroke-linecap: round"/>
    <path d="M 123.285199 260.827536 
L 121.766718 265.033985 
L 119.312647 261.295331 
L 123.285199 260.827536 
z
" clip-path="url(#p0444596712)" style="stroke: #000000; stroke-linecap: round"/>
   </g>
   <g id="patch_15">
    <path d="M 292.268284 91.957079 
Q 311.923935 114.933134 330.852792 137.059618 
" clip-path="url(#p0444596712)" style="fill: none; stroke: #000000; stroke-linecap: round"/>
    <path d="M 329.772292 132.719973 
L 330.852792 137.059618 
L 326.732776 135.320231 
L 329.772292 132.719973 
z
" clip-path="url(#p0444596712)" style="stroke: #000000; stroke-linecap: round"/>
   </g>
   <g id="patch_16">
    <path d="M 289.104086 90.137278 
Q 255.612565 84.012337 223.220838 78.088527 
" clip-path="url(#p0444596712)" style="fill: none; stroke: #000000; stroke-linecap: round"/>
    <path d="M 226.795786 80.775485 
L 223.220838 78.088527 
L 227.515373 76.840743 
L 226.795786 80.775485 
z
" clip-path="url(#p0444596712)" style="stroke: #000000; stroke-linecap: round"/>
   </g>
   <g id="patch_17">
    <path d="M 351.126222 188.371082 
Q 335.289563 205.520027 320.211422 221.847601 
" clip-path="url(#p0444596712)" style="fill: none; stroke: #000000; stroke-linecap: round"/>
    <path d="M 324.394491 220.265852 
L 320.211422 221.847601 
L 321.455863 217.552096 
L 324.394491 220.265852 
z
" clip-path="url(#p0444596712)" style="stroke: #000000; stroke-linecap: round"/>
   </g>
   <g id="patch_18">
    <path d="M 350.531622 187.282066 
Q 327.358905 191.3208 305.287619 195.167567 
" clip-path="url(#p0444596712)" style="fill: none; stroke: #000000; stroke-linecap: round"/>
    <path d="M 309.571616 196.451065 
L 305.287619 195.167567 
L 308.884816 192.510468 
L 309.571616 196.451065 
z
" clip-path="url(#p0444596712)" style="stroke: #000000; stroke-linecap: round"/>
   </g>
   <g id="patch_19">
    <path d="M 352.740845 185.0359 
Q 355.947618 164.712493 358.980136 145.493457 
" clip-path="url(#p0444596712)" style="fill: none; stroke: #000000; stroke-linecap: round"/>
    <path d="M 356.381142 149.132857 
L 358.980136 145.493457 
L 360.332259 149.756292 
L 356.381142 149.132857 
z
" clip-path="url(#p0444596712)" style="stroke: #000000; stroke-linecap: round"/>
   </g>
   <g id="patch_20">
    <path d="M 99.910048 31.885065 
Q 96.366625 48.693646 93.053827 64.408238 
" clip-path="url(#p0444596712)" style="fill: none; stroke: #000000; stroke-linecap: round"/>
    <path d="M 95.835921 60.906817 
L 93.053827 64.408238 
L 91.921946 60.08171 
L 95.835921 60.906817 
z
" clip-path="url(#p0444596712)" style="stroke: #000000; stroke-linecap: round"/>
   </g>
   <g id="patch_21">
    <path d="M 98.45984 30.553467 
Q 73.493538 38.157786 49.596759 45.436346 
" clip-path="url(#p0444596712)" style="fill: none; stroke: #000000; stroke-linecap: round"/>
    <path d="M 54.005939 46.184097 
L 49.596759 45.436346 
L 52.840468 42.357653 
L 54.005939 46.184097 
z
" clip-path="url(#p0444596712)" style="stroke: #000000; stroke-linecap: round"/>
   </g>
   <g id="patch_22">
    <path d="M 102.236861 30.145363 
Q 133.406188 32.656604 163.461092 35.078058 
" clip-path="url(#p0444596712)" style="fill: none; stroke: #000000; stroke-linecap: round"/>
    <path d="M 159.634626 32.763288 
L 163.461092 35.078058 
L 159.313396 36.750369 
L 159.634626 32.763288 
z
" clip-path="url(#p0444596712)" style="stroke: #000000; stroke-linecap: round"/>
   </g>
   <g id="patch_23">
    <path d="M 222.121879 77.887549 
Q 255.6134 84.01249 288.005127 89.9363 
" clip-path="url(#p0444596712)" style="fill: none; stroke: #000000; stroke-linecap: round"/>
    <path d="M 284.430179 87.249342 
L 288.005127 89.9363 
L 283.710592 91.184084 
L 284.430179 87.249342 
z
" clip-path="url(#p0444596712)" style="stroke: #000000; stroke-linecap: round"/>
   </g>
   <g id="patch_24">
    <path d="M 218.692099 76.340939 
Q 193.363601 56.431887 168.914096 37.213755 
" clip-path="url(#p0444596712)" style="fill: none; stroke: #000000; stroke-linecap: round"/>
    <path d="M 170.822928 41.258055 
L 168.914096 37.213755 
L 173.294835 38.113269 
L 170.822928 41.258055 
z
" clip-path="url(#p0444596712)" style="stroke: #000000; stroke-linecap: round"/>
   </g>
   <g id="patch_25">
    <path d="M 219.413188 79.302909 
Q 206.536738 107.580326 194.123621 134.840235 
" clip-path="url(#p0444596712)" style="fill: none; stroke: #000000; stroke-linecap: round"/>
    <path d="M 197.601468 132.028726 
L 194.123621 134.840235 
L 193.961122 130.371052 
L 197.601468 132.028726 
z
" clip-path="url(#p0444596712)" style="stroke: #000000; stroke-linecap: round"/>
   </g>
   <g id="patch_26">
    <path d="M 331.581333 137.91123 
Q 311.925681 114.935175 292.996824 92.808691 
" clip-path="url(#p0444596712)" style="fill: none; stroke: #000000; stroke-linecap: round"/>
    <path d="M 294.077324 97.148336 
L 292.996824 92.808691 
L 297.11684 94.548078 
L 294.077324 97.148336 
z
" clip-path="url(#p0444596712)" style="stroke: #000000; stroke-linecap: round"/>
   </g>
   <g id="patch_27">
    <path d="M 332.945098 141.315706 
Q 334.607401 171.898755 336.209024 201.365419 
" clip-path="url(#p0444596712)" style="fill: none; stroke: #000000; stroke-linecap: round"/>
    <path d="M 337.988982 197.262767 
L 336.209024 201.365419 
L 333.994877 197.479862 
L 337.988982 197.262767 
z
" clip-path="url(#p0444596712)" style="stroke: #000000; stroke-linecap: round"/>
   </g>
   <g id="patch_28">
    <path d="M 334.766728 139.606374 
Q 346.148668 140.9286 356.420042 142.121814 
" clip-path="url(#p0444596712)" style="fill: none; stroke: #000000; stroke-linecap: round"/>
    <path d="M 352.677548 139.673602 
L 356.420042 142.121814 
L 352.215976 143.646882 
L 352.677548 139.673602 
z
" clip-path="url(#p0444596712)" style="stroke: #000000; stroke-linecap: round"/>
   </g>
   <g id="patch_29">
    <path d="M 418.90706 132.388953 
Q 390.1379 137.269549 362.471024 141.963145 
" clip-path="url(#p0444596712)" style="fill: none; stroke: #000000; stroke-linecap: round"/>
    <path d="M 366.749191 143.265944 
L 362.471024 141.963145 
L 366.080163 139.322291 
L 366.749191 143.265944 
z
" clip-path="url(#p0444596712)" style="stroke: #000000; stroke-linecap: round"/>
   </g>
   <g id="patch_30">
    <path d="M 95.366235 150.863005 
Q 97.458934 137.523921 99.378351 125.289361 
" clip-path="url(#p0444596712)" style="fill: none; stroke: #000000; stroke-linecap: round"/>
    <path d="M 96.782562 128.931048 
L 99.378351 125.289361 
L 100.734227 129.551004 
L 96.782562 128.931048 
z
" clip-path="url(#p0444596712)" style="stroke: #000000; stroke-linecap: round"/>
   </g>
   <g id="patch_31">
    <path d="M 93.296781 151.982164 
Q 81.958101 146.913597 71.640118 142.301297 
" clip-path="url(#p0444596712)" style="fill: none; stroke: #000000; stroke-linecap: round"/>
    <path d="M 74.475675 145.759564 
L 71.640118 142.301297 
L 76.108066 142.107811 
L 74.475675 145.759564 
z
" clip-path="url(#p0444596712)" style="stroke: #000000; stroke-linecap: round"/>
   </g>
   <g id="patch_32">
    <path d="M 96.995871 152.960214 
Q 123.040394 155.483749 147.972095 157.89946 
" clip-path="url(#p0444596712)" style="fill: none; stroke: #000000; stroke-linecap: round"/>
    <path d="M 144.183623 155.523017 
L 147.972095 157.89946 
L 143.797857 159.504372 
L 144.183623 155.523017 
z
" clip-path="url(#p0444596712)" style="stroke: #000000; stroke-linecap: round"/>
   </g>
   <g id="patch_33">
    <path d="M 70.619519 141.845074 
Q 81.958199 146.913641 92.276182 151.525941 
" clip-path="url(#p0444596712)" style="fill: none; stroke: #000000; stroke-linecap: round"/>
    <path d="M 89.440625 148.067673 
L 92.276182 151.525941 
L 87.808234 151.719427 
L 89.440625 148.067673 
z
" clip-path="url(#p0444596712)" style="stroke: #000000; stroke-linecap: round"/>
   </g>
   <g id="patch_34">
    <path d="M 70.75797 140.733217 
Q 98.852164 136.010949 125.84379 131.474008 
" clip-path="url(#p0444596712)" style="fill: none; stroke: #000000; stroke-linecap: round"/>
    <path d="M 121.567603 130.164723 
L 125.84379 131.474008 
L 122.23065 134.109386 
L 121.567603 130.164723 
z
" clip-path="url(#p0444596712)" style="stroke: #000000; stroke-linecap: round"/>
   </g>
   <g id="patch_35">
    <path d="M 126.949507 131.288151 
Q 98.855314 136.01042 71.863687 140.54736 
" clip-path="url(#p0444596712)" style="fill: none; stroke: #000000; stroke-linecap: round"/>
    <path d="M 76.139874 141.856646 
L 71.863687 140.54736 
L 75.476828 137.911982 
L 76.139874 141.856646 
z
" clip-path="url(#p0444596712)" style="stroke: #000000; stroke-linecap: round"/>
   </g>
   <g id="patch_36">
    <path d="M 130.783509 131.167574 
Q 160.856519 134.293379 189.817487 137.303599 
" clip-path="url(#p0444596712)" style="fill: none; stroke: #000000; stroke-linecap: round"/>
    <path d="M 186.045688 134.900781 
L 189.817487 137.303599 
L 185.632153 138.879348 
L 186.045688 134.900781 
z
" clip-path="url(#p0444596712)" style="stroke: #000000; stroke-linecap: round"/>
   </g>
   <g id="patch_37">
    <path d="M 342.315216 262.129769 
Q 330.745366 243.927272 319.77526 226.668336 
" clip-path="url(#p0444596712)" style="fill: none; stroke: #000000; stroke-linecap: round"/>
    <path d="M 320.23308 231.116976 
L 319.77526 226.668336 
L 323.608865 228.971264 
L 320.23308 231.116976 
z
" clip-path="url(#p0444596712)" style="stroke: #000000; stroke-linecap: round"/>
   </g>
   <g id="patch_38">
    <path d="M 341.447205 263.434869 
Q 322.718904 260.200518 305.092328 257.156433 
" clip-path="url(#p0444596712)" style="fill: none; stroke: #000000; stroke-linecap: round"/>
    <path d="M 308.693622 259.807977 
L 305.092328 257.156433 
L 309.37434 255.866324 
L 308.693622 259.807977 
z
" clip-path="url(#p0444596712)" style="stroke: #000000; stroke-linecap: round"/>
   </g>
   <g id="patch_39">
    <path d="M 149.084324 158.007228 
Q 123.039801 155.483692 98.1081 153.067981 
" clip-path="url(#p0444596712)" style="fill: none; stroke: #000000; stroke-linecap: round"/>
    <path d="M 101.896572 155.444424 
L 98.1081 153.067981 
L 102.282338 151.46307 
L 101.896572 155.444424 
z
" clip-path="url(#p0444596712)" style="stroke: #000000; stroke-linecap: round"/>
   </g>
   <g id="patch_40">
    <path d="M 152.840988 158.84126 
Q 172.997316 165.978988 192.099739 172.74351 
" clip-path="url(#p0444596712)" style="fill: none; stroke: #000000; stroke-linecap: round"/>
    <path d="M 188.996787 169.522999 
L 192.099739 172.74351 
L 187.66156 173.293565 
L 188.996787 169.522999 
z
" clip-path="url(#p0444596712)" style="stroke: #000000; stroke-linecap: round"/>
   </g>
   <g id="patch_41">
    <path d="M 152.75291 157.338987 
Q 171.937698 147.905976 190.119175 138.966285 
" clip-path="url(#p0444596712)" style="fill: none; stroke: #000000; stroke-linecap: round"/>
    <path d="M 185.647139 138.936464 
L 190.119175 138.966285 
L 187.412096 142.526022 
L 185.647139 138.936464 
z
" clip-path="url(#p0444596712)" style="stroke: #000000; stroke-linecap: round"/>
   </g>
   <g id="patch_42">
    <path d="M 164.582169 35.168381 
Q 133.412842 32.65714 103.357938 30.235686 
" clip-path="url(#p0444596712)" style="fill: none; stroke: #000000; stroke-linecap: round"/>
    <path d="M 107.184404 32.550456 
L 103.357938 30.235686 
L 107.505634 28.563375 
L 107.184404 32.550456 
z
" clip-path="url(#p0444596712)" style="stroke: #000000; stroke-linecap: round"/>
   </g>
   <g id="patch_43">
    <path d="M 168.033773 36.521792 
Q 193.362272 56.430843 217.811776 75.648975 
" clip-path="url(#p0444596712)" style="fill: none; stroke: #000000; stroke-linecap: round"/>
    <path d="M 215.902944 71.604676 
L 217.811776 75.648975 
L 213.431037 74.749461 
L 215.902944 71.604676 
z
" clip-path="url(#p0444596712)" style="stroke: #000000; stroke-linecap: round"/>
   </g>
   <g id="patch_44">
    <path d="M 273.254443 135.960046 
Q 252.837292 140.134697 233.515512 144.08538 
" clip-path="url(#p0444596712)" style="fill: none; stroke: #000000; stroke-linecap: round"/>
    <path d="M 237.835078 145.243547 
L 233.515512 144.08538 
L 237.033785 141.324628 
L 237.835078 145.243547 
z
" clip-path="url(#p0444596712)" style="stroke: #000000; stroke-linecap: round"/>
   </g>
   <g id="patch_45">
    <path d="M 277.085151 135.730048 
Q 317.306784 139.023366 356.414111 142.225446 
" clip-path="url(#p0444596712)" style="fill: none; stroke: #000000; stroke-linecap: round"/>
    <path d="M 352.590665 139.905692 
L 356.414111 142.225446 
L 352.26424 143.892351 
L 352.590665 139.905692 
z
" clip-path="url(#p0444596712)" style="stroke: #000000; stroke-linecap: round"/>
   </g>
   <g id="patch_46">
    <path d="M 273.216701 135.620029 
Q 234.006026 136.595726 195.913038 137.543611 
" clip-path="url(#p0444596712)" style="fill: none; stroke: #000000; stroke-linecap: round"/>
    <path d="M 199.961552 139.443489 
L 195.913038 137.543611 
L 199.862049 135.444727 
L 199.961552 139.443489 
z
" clip-path="url(#p0444596712)" style="stroke: #000000; stroke-linecap: round"/>
   </g>
   <g id="patch_47">
    <path d="M 232.422668 144.308832 
Q 252.839819 140.134181 272.161599 136.183497 
" clip-path="url(#p0444596712)" style="fill: none; stroke: #000000; stroke-linecap: round"/>
    <path d="M 267.842033 135.025331 
L 272.161599 136.183497 
L 268.643326 138.94425 
L 267.842033 135.025331 
z
" clip-path="url(#p0444596712)" style="stroke: #000000; stroke-linecap: round"/>
   </g>
   <g id="patch_48">
    <path d="M 229.024878 145.922872 
Q 212.750118 159.230085 197.34089 171.829587 
" clip-path="url(#p0444596712)" style="fill: none; stroke: #000000; stroke-linecap: round"/>
    <path d="M 201.703503 170.845915 
L 197.34089 171.829587 
L 199.171521 167.749294 
L 201.703503 170.845915 
z
" clip-path="url(#p0444596712)" style="stroke: #000000; stroke-linecap: round"/>
   </g>
   <g id="patch_49">
    <path d="M 228.625148 144.340224 
Q 211.691198 141.158361 195.856053 138.182962 
" clip-path="url(#p0444596712)" style="fill: none; stroke: #000000; stroke-linecap: round"/>
    <path d="M 199.417925 140.887232 
L 195.856053 138.182962 
L 200.156592 136.956027 
L 199.417925 140.887232 
z
" clip-path="url(#p0444596712)" style="stroke: #000000; stroke-linecap: round"/>
   </g>
   <g id="patch_50">
    <path d="M 359.154514 144.388307 
Q 355.947741 164.711714 352.915224 183.930749 
" clip-path="url(#p0444596712)" style="fill: none; stroke: #000000; stroke-linecap: round"/>
    <path d="M 355.514218 180.29135 
L 352.915224 183.930749 
L 351.563101 179.667914 
L 355.514218 180.29135 
z
" clip-path="url(#p0444596712)" style="stroke: #000000; stroke-linecap: round"/>
   </g>
   <g id="patch_51">
    <path d="M 357.529776 142.25073 
Q 346.147837 140.928504 335.876463 139.73529 
" clip-path="url(#p0444596712)" style="fill: none; stroke: #000000; stroke-linecap: round"/>
    <path d="M 339.618957 142.183501 
L 335.876463 139.73529 
L 340.080528 138.210222 
L 339.618957 142.183501 
z
" clip-path="url(#p0444596712)" style="stroke: #000000; stroke-linecap: round"/>
   </g>
   <g id="patch_52">
    <path d="M 361.362644 142.151179 
Q 390.131804 137.270583 417.798679 132.576986 
" clip-path="url(#p0444596712)" style="fill: none; stroke: #000000; stroke-linecap: round"/>
    <path d="M 413.520512 131.274188 
L 417.798679 132.576986 
L 414.18954 135.217841 
L 413.520512 131.274188 
z
" clip-path="url(#p0444596712)" style="stroke: #000000; stroke-linecap: round"/>
   </g>
   <g id="patch_53">
    <path d="M 357.524355 142.316352 
Q 317.302722 139.023034 278.195395 135.820954 
" clip-path="url(#p0444596712)" style="fill: none; stroke: #000000; stroke-linecap: round"/>
    <path d="M 282.018841 138.140708 
L 278.195395 135.820954 
L 282.345266 134.154049 
L 282.018841 138.140708 
z
" clip-path="url(#p0444596712)" style="stroke: #000000; stroke-linecap: round"/>
   </g>
   <g id="patch_54">
    <path d="M 193.149701 173.115321 
Q 172.993373 165.977592 153.89095 159.213071 
" clip-path="url(#p0444596712)" style="fill: none; stroke: #000000; stroke-linecap: round"/>
    <path d="M 156.993902 162.433581 
L 153.89095 159.213071 
L 158.32913 158.663015 
L 156.993902 162.433581 
z
" clip-path="url(#p0444596712)" style="stroke: #000000; stroke-linecap: round"/>
   </g>
   <g id="patch_55">
    <path d="M 196.476244 172.536573 
Q 212.751004 159.22936 228.160232 146.629858 
" clip-path="url(#p0444596712)" style="fill: none; stroke: #000000; stroke-linecap: round"/>
    <path d="M 223.797619 147.61353 
L 228.160232 146.629858 
L 226.329602 150.710151 
L 223.797619 147.61353 
z
" clip-path="url(#p0444596712)" style="stroke: #000000; stroke-linecap: round"/>
   </g>
   <g id="patch_56">
    <path d="M 59.200372 80.917518 
Q 78.847716 100.902748 97.711258 120.090698 
" clip-path="url(#p0444596712)" style="fill: none; stroke: #000000; stroke-linecap: round"/>
    <path d="M 96.333266 115.836155 
L 97.711258 120.090698 
L 93.480828 118.640367 
L 96.333266 115.836155 
z
" clip-path="url(#p0444596712)" style="stroke: #000000; stroke-linecap: round"/>
   </g>
   <g id="patch_57">
    <path d="M 57.226227 77.701371 
Q 52.257577 62.931556 47.64541 49.22142 
" clip-path="url(#p0444596712)" style="fill: none; stroke: #000000; stroke-linecap: round"/>
    <path d="M 47.025187 53.650339 
L 47.64541 49.22142 
L 50.816411 52.37495 
L 47.025187 53.650339 
z
" clip-path="url(#p0444596712)" style="stroke: #000000; stroke-linecap: round"/>
   </g>
   <g id="patch_58">
    <path d="M 48.521482 45.763858 
Q 73.487785 38.159539 97.384563 30.880979 
" clip-path="url(#p0444596712)" style="fill: none; stroke: #000000; stroke-linecap: round"/>
    <path d="M 92.975383 30.133228 
L 97.384563 30.880979 
L 94.140854 33.959672 
L 92.975383 30.133228 
z
" clip-path="url(#p0444596712)" style="stroke: #000000; stroke-linecap: round"/>
   </g>
   <g id="patch_59">
    <path d="M 47.289593 48.163717 
Q 52.258242 62.933533 56.870409 76.643669 
" clip-path="url(#p0444596712)" style="fill: none; stroke: #000000; stroke-linecap: round"/>
    <path d="M 57.490632 72.21475 
L 56.870409 76.643669 
L 53.699408 73.490139 
L 57.490632 72.21475 
z
" clip-path="url(#p0444596712)" style="stroke: #000000; stroke-linecap: round"/>
   </g>
   <g id="patch_60">
    <path d="M 46.367001 48.237149 
Q 43.329151 67.273133 40.467493 85.205053 
" clip-path="url(#p0444596712)" style="fill: none; stroke: #000000; stroke-linecap: round"/>
    <path d="M 43.072864 81.570215 
L 40.467493 85.205053 
L 39.122846 80.939853 
L 43.072864 81.570215 
z
" clip-path="url(#p0444596712)" style="stroke: #000000; stroke-linecap: round"/>
   </g>
   <g id="patch_61">
    <path d="M 41.671225 89.175456 
Q 69.918365 105.242282 97.19368 120.756339 
" clip-path="url(#p0444596712)" style="fill: none; stroke: #000000; stroke-linecap: round"/>
    <path d="M 94.705593 117.040235 
L 97.19368 120.756339 
L 92.727945 120.517146 
L 94.705593 117.040235 
z
" clip-path="url(#p0444596712)" style="stroke: #000000; stroke-linecap: round"/>
   </g>
   <g id="patch_62">
    <path d="M 40.291569 86.307444 
Q 43.329418 67.271461 46.191076 49.339541 
" clip-path="url(#p0444596712)" style="fill: none; stroke: #000000; stroke-linecap: round"/>
    <path d="M 43.585705 52.974378 
L 46.191076 49.339541 
L 47.535723 53.60474 
L 43.585705 52.974378 
z
" clip-path="url(#p0444596712)" style="stroke: #000000; stroke-linecap: round"/>
   </g>
   <g id="patch_63">
    <path d="M 190.947809 137.304345 
Q 146.354976 129.944056 102.865252 122.765842 
" clip-path="url(#p0444596712)" style="fill: none; stroke: #000000; stroke-linecap: round"/>
    <path d="M 106.48615 125.390551 
L 102.865252 122.765842 
L 107.137558 121.443949 
L 106.48615 125.390551 
z
" clip-path="url(#p0444596712)" style="stroke: #000000; stroke-linecap: round"/>
   </g>
   <g id="patch_64">
    <path d="M 193.661176 135.855791 
Q 206.537626 107.578374 218.950742 80.318465 
" clip-path="url(#p0444596712)" style="fill: none; stroke: #000000; stroke-linecap: round"/>
    <path d="M 215.472896 83.129974 
L 218.950742 80.318465 
L 219.113242 84.787648 
L 215.472896 83.129974 
z
" clip-path="url(#p0444596712)" style="stroke: #000000; stroke-linecap: round"/>
   </g>
   <g id="patch_65">
    <path d="M 190.932202 137.419463 
Q 160.859191 134.293657 131.898224 131.283438 
" clip-path="url(#p0444596712)" style="fill: none; stroke: #000000; stroke-linecap: round"/>
    <path d="M 135.670023 133.686255 
L 131.898224 131.283438 
L 136.083558 129.707689 
L 135.670023 133.686255 
z
" clip-path="url(#p0444596712)" style="stroke: #000000; stroke-linecap: round"/>
   </g>
   <g id="patch_66">
    <path d="M 191.118734 138.47481 
Q 171.933945 147.907821 153.752469 156.847512 
" clip-path="url(#p0444596712)" style="fill: none; stroke: #000000; stroke-linecap: round"/>
    <path d="M 158.224505 156.877333 
L 153.752469 156.847512 
L 156.459548 153.287775 
L 158.224505 156.877333 
z
" clip-path="url(#p0444596712)" style="stroke: #000000; stroke-linecap: round"/>
   </g>
   <g id="patch_67">
    <path d="M 194.794315 137.571448 
Q 234.004991 136.595752 272.097978 135.647867 
" clip-path="url(#p0444596712)" style="fill: none; stroke: #000000; stroke-linecap: round"/>
    <path d="M 268.049465 133.747989 
L 272.097978 135.647867 
L 268.148968 137.746751 
L 268.049465 133.747989 
z
" clip-path="url(#p0444596712)" style="stroke: #000000; stroke-linecap: round"/>
   </g>
   <g id="patch_68">
    <path d="M 194.756929 137.976438 
Q 211.690879 141.158301 227.526023 144.1337 
" clip-path="url(#p0444596712)" style="fill: none; stroke: #000000; stroke-linecap: round"/>
    <path d="M 223.964152 141.42943 
L 227.526023 144.1337 
L 223.225485 145.360635 
L 223.964152 141.42943 
z
" clip-path="url(#p0444596712)" style="stroke: #000000; stroke-linecap: round"/>
   </g>
   <g id="patch_69">
    <path d="M 193.96018 139.209583 
Q 217.161965 172.679097 239.726787 205.229766 
" clip-path="url(#p0444596712)" style="fill: none; stroke: #000000; stroke-linecap: round"/>
    <path d="M 239.091598 200.802968 
L 239.726787 205.229766 
L 235.804235 203.081838 
L 239.091598 200.802968 
z
" clip-path="url(#p0444596712)" style="stroke: #000000; stroke-linecap: round"/>
   </g>
   <g id="patch_70">
    <path d="M 319.450789 222.671263 
Q 335.287448 205.522318 350.36559 189.194744 
" clip-path="url(#p0444596712)" style="fill: none; stroke: #000000; stroke-linecap: round"/>
    <path d="M 346.18252 190.776494 
L 350.36559 189.194744 
L 349.121148 193.490249 
L 346.18252 190.776494 
z
" clip-path="url(#p0444596712)" style="stroke: #000000; stroke-linecap: round"/>
   </g>
   <g id="patch_71">
    <path d="M 319.176997 225.727107 
Q 330.746847 243.929603 341.716953 261.188539 
" clip-path="url(#p0444596712)" style="fill: none; stroke: #000000; stroke-linecap: round"/>
    <path d="M 341.259133 256.739899 
L 341.716953 261.188539 
L 337.883348 258.885611 
L 341.259133 256.739899 
z
" clip-path="url(#p0444596712)" style="stroke: #000000; stroke-linecap: round"/>
   </g>
   <g id="patch_72">
    <path d="M 319.453805 222.673371 
Q 327.256519 214.255961 334.299169 206.658492 
" clip-path="url(#p0444596712)" style="fill: none; stroke: #000000; stroke-linecap: round"/>
    <path d="M 330.113128 208.23236 
L 334.299169 206.658492 
L 333.046638 210.951646 
L 330.113128 208.23236 
z
" clip-path="url(#p0444596712)" style="stroke: #000000; stroke-linecap: round"/>
   </g>
   <g id="patch_73">
    <path d="M 316.242881 223.68847 
Q 279.801983 215.916295 244.454526 208.377332 
" clip-path="url(#p0444596712)" style="fill: none; stroke: #000000; stroke-linecap: round"/>
    <path d="M 247.949358 211.167699 
L 244.454526 208.377332 
L 248.783719 207.255686 
L 247.949358 211.167699 
z
" clip-path="url(#p0444596712)" style="stroke: #000000; stroke-linecap: round"/>
   </g>
   <g id="patch_74">
    <path d="M 304.188032 195.359212 
Q 327.360749 191.320479 349.432035 187.473711 
" clip-path="url(#p0444596712)" style="fill: none; stroke: #000000; stroke-linecap: round"/>
    <path d="M 345.148038 186.190213 
L 349.432035 187.473711 
L 345.834838 190.13081 
L 345.148038 186.190213 
z
" clip-path="url(#p0444596712)" style="stroke: #000000; stroke-linecap: round"/>
   </g>
   <g id="patch_75">
    <path d="M 300.384057 196.067406 
Q 271.876695 201.715339 244.466049 207.145988 
" clip-path="url(#p0444596712)" style="fill: none; stroke: #000000; stroke-linecap: round"/>
    <path d="M 248.778472 208.330478 
L 244.466049 207.145988 
L 248.001094 204.406744 
L 248.778472 208.330478 
z
" clip-path="url(#p0444596712)" style="stroke: #000000; stroke-linecap: round"/>
   </g>
   <g id="patch_76">
    <path d="M 132.435887 313.36527 
Q 127.494881 291.660833 122.802046 271.046539 
" clip-path="url(#p0444596712)" style="fill: none; stroke: #000000; stroke-linecap: round"/>
    <path d="M 121.739821 275.390693 
L 122.802046 271.046539 
L 125.640035 274.502812 
L 121.739821 275.390693 
z
" clip-path="url(#p0444596712)" style="stroke: #000000; stroke-linecap: round"/>
   </g>
   <g id="patch_77">
    <path d="M 134.801315 315.264543 
Q 159.61077 315.430748 183.302216 315.589463 
" clip-path="url(#p0444596712)" style="fill: none; stroke: #000000; stroke-linecap: round"/>
    <path d="M 179.315704 313.562712 
L 183.302216 315.589463 
L 179.288908 317.562622 
L 179.315704 313.562712 
z
" clip-path="url(#p0444596712)" style="stroke: #000000; stroke-linecap: round"/>
   </g>
   <g id="patch_78">
    <path d="M 121.897498 266.144582 
Q 118.184446 234.613014 114.602146 204.191808 
" clip-path="url(#p0444596712)" style="fill: none; stroke: #000000; stroke-linecap: round"/>
    <path d="M 113.083664 208.398257 
L 114.602146 204.191808 
L 117.056216 207.930462 
L 113.083664 208.398257 
z
" clip-path="url(#p0444596712)" style="stroke: #000000; stroke-linecap: round"/>
   </g>
   <g id="patch_79">
    <path d="M 122.55342 269.954395 
Q 127.494426 291.658832 132.187261 312.273126 
" clip-path="url(#p0444596712)" style="fill: none; stroke: #000000; stroke-linecap: round"/>
    <path d="M 133.249486 307.928971 
L 132.187261 312.273126 
L 129.349272 308.816853 
L 133.249486 307.928971 
z
" clip-path="url(#p0444596712)" style="stroke: #000000; stroke-linecap: round"/>
   </g>
   <g id="patch_80">
    <path d="M 123.934958 268.755532 
Q 146.891898 277.470018 168.80358 285.787721 
" clip-path="url(#p0444596712)" style="fill: none; stroke: #000000; stroke-linecap: round"/>
    <path d="M 165.773735 282.498339 
L 168.80358 285.787721 
L 164.354167 286.237968 
L 165.773735 282.498339 
z
" clip-path="url(#p0444596712)" style="stroke: #000000; stroke-linecap: round"/>
   </g>
   <g id="patch_81">
    <path d="M 169.846711 286.183695 
Q 146.88977 277.46921 124.978088 269.151506 
" clip-path="url(#p0444596712)" style="fill: none; stroke: #000000; stroke-linecap: round"/>
    <path d="M 128.007933 272.440889 
L 124.978088 269.151506 
L 129.427501 268.70126 
L 128.007933 272.440889 
z
" clip-path="url(#p0444596712)" style="stroke: #000000; stroke-linecap: round"/>
   </g>
   <g id="patch_82">
    <path d="M 173.529422 286.371044 
Q 200.752535 279.097637 226.895503 272.112822 
" clip-path="url(#p0444596712)" style="fill: none; stroke: #000000; stroke-linecap: round"/>
    <path d="M 222.514808 271.213092 
L 226.895503 272.112822 
L 223.547302 275.07754 
L 222.514808 271.213092 
z
" clip-path="url(#p0444596712)" style="stroke: #000000; stroke-linecap: round"/>
   </g>
   <g id="patch_83">
    <path d="M 184.419379 315.596947 
Q 159.609924 315.430742 135.918478 315.272027 
" clip-path="url(#p0444596712)" style="fill: none; stroke: #000000; stroke-linecap: round"/>
    <path d="M 139.90499 317.298778 
L 135.918478 315.272027 
L 139.931786 313.298868 
L 139.90499 317.298778 
z
" clip-path="url(#p0444596712)" style="stroke: #000000; stroke-linecap: round"/>
   </g>
   <g id="patch_84">
    <path d="M 187.711914 314.228676 
Q 208.102813 293.466215 227.710311 273.50143 
" clip-path="url(#p0444596712)" style="fill: none; stroke: #000000; stroke-linecap: round"/>
    <path d="M 223.480612 274.95389 
L 227.710311 273.50143 
L 226.33446 277.756665 
L 223.480612 274.95389 
z
" clip-path="url(#p0444596712)" style="stroke: #000000; stroke-linecap: round"/>
   </g>
   <g id="patch_85">
    <path d="M 227.977318 271.823785 
Q 200.754204 279.097192 174.611236 286.082007 
" clip-path="url(#p0444596712)" style="fill: none; stroke: #000000; stroke-linecap: round"/>
    <path d="M 178.991931 286.981737 
L 174.611236 286.082007 
L 177.959437 283.117289 
L 178.991931 286.981737 
z
" clip-path="url(#p0444596712)" style="stroke: #000000; stroke-linecap: round"/>
   </g>
   <g id="patch_86">
    <path d="M 228.492552 272.704935 
Q 208.101654 293.467395 188.494155 313.432181 
" clip-path="url(#p0444596712)" style="fill: none; stroke: #000000; stroke-linecap: round"/>
    <path d="M 192.723854 311.979721 
L 188.494155 313.432181 
L 189.870007 309.176945 
L 192.723854 311.979721 
z
" clip-path="url(#p0444596712)" style="stroke: #000000; stroke-linecap: round"/>
   </g>
   <g id="patch_87">
    <path d="M 231.74927 270.937336 
Q 265.965242 263.980359 299.085597 257.24615 
" clip-path="url(#p0444596712)" style="fill: none; stroke: #000000; stroke-linecap: round"/>
    <path d="M 294.767304 256.083246 
L 299.085597 257.24615 
L 295.564298 260.003042 
L 294.767304 256.083246 
z
" clip-path="url(#p0444596712)" style="stroke: #000000; stroke-linecap: round"/>
   </g>
   <g id="patch_88">
    <path d="M 230.197245 269.418205 
Q 235.657774 239.533489 240.917342 210.748599 
" clip-path="url(#p0444596712)" style="fill: none; stroke: #000000; stroke-linecap: round"/>
    <path d="M 238.23094 214.323965 
L 240.917342 210.748599 
L 242.165793 215.04294 
L 238.23094 214.323965 
z
" clip-path="url(#p0444596712)" style="stroke: #000000; stroke-linecap: round"/>
   </g>
   <g id="patch_89">
    <path d="M 239.533978 207.8478 
Q 207.265804 209.644647 176.113934 211.379333 
" clip-path="url(#p0444596712)" style="fill: none; stroke: #000000; stroke-linecap: round"/>
    <path d="M 180.218945 213.153845 
L 176.113934 211.379333 
L 179.99655 209.160032 
L 180.218945 213.153845 
z
" clip-path="url(#p0444596712)" style="stroke: #000000; stroke-linecap: round"/>
   </g>
   <g id="patch_90">
    <path d="M 240.364855 206.150205 
Q 217.16307 172.680691 194.598248 140.130022 
" clip-path="url(#p0444596712)" style="fill: none; stroke: #000000; stroke-linecap: round"/>
    <path d="M 195.233437 144.556819 
L 194.598248 140.130022 
L 198.5208 142.277949 
L 195.233437 144.556819 
z
" clip-path="url(#p0444596712)" style="stroke: #000000; stroke-linecap: round"/>
   </g>
   <g id="patch_91">
    <path d="M 243.362295 208.144379 
Q 279.803193 215.916553 315.15065 223.455517 
" clip-path="url(#p0444596712)" style="fill: none; stroke: #000000; stroke-linecap: round"/>
    <path d="M 311.655818 220.66515 
L 315.15065 223.455517 
L 310.821457 224.577163 
L 311.655818 220.66515 
z
" clip-path="url(#p0444596712)" style="stroke: #000000; stroke-linecap: round"/>
   </g>
   <g id="patch_92">
    <path d="M 243.363761 207.364376 
Q 271.871123 201.716443 299.281769 196.285793 
" clip-path="url(#p0444596712)" style="fill: none; stroke: #000000; stroke-linecap: round"/>
    <path d="M 294.969347 195.101304 
L 299.281769 196.285793 
L 295.746724 199.025038 
L 294.969347 195.101304 
z
" clip-path="url(#p0444596712)" style="stroke: #000000; stroke-linecap: round"/>
   </g>
   <g id="patch_93">
    <path d="M 241.118873 209.645645 
Q 235.658345 239.530361 230.398777 268.315252 
" clip-path="url(#p0444596712)" style="fill: none; stroke: #000000; stroke-linecap: round"/>
    <path d="M 233.085179 264.739886 
L 230.398777 268.315252 
L 229.150326 264.02091 
L 233.085179 264.739886 
z
" clip-path="url(#p0444596712)" style="stroke: #000000; stroke-linecap: round"/>
   </g>
   <g id="patch_94">
    <path d="M 303.989811 256.96603 
Q 322.718112 260.200381 340.344688 263.244466 
" clip-path="url(#p0444596712)" style="fill: none; stroke: #000000; stroke-linecap: round"/>
    <path d="M 336.743394 260.592922 
L 340.344688 263.244466 
L 336.062676 264.534574 
L 336.743394 260.592922 
z
" clip-path="url(#p0444596712)" style="stroke: #000000; stroke-linecap: round"/>
   </g>
   <g id="patch_95">
    <path d="M 300.18274 257.023073 
Q 265.966769 263.980049 232.846413 270.714258 
" clip-path="url(#p0444596712)" style="fill: none; stroke: #000000; stroke-linecap: round"/>
    <path d="M 237.164706 271.877162 
L 232.846413 270.714258 
L 236.367712 267.957366 
L 237.164706 271.877162 
z
" clip-path="url(#p0444596712)" style="stroke: #000000; stroke-linecap: round"/>
   </g>
   <g id="patch_96">
    <path d="M 303.144097 255.02085 
Q 319.227134 230.530714 334.696451 206.975108 
" clip-path="url(#p0444596712)" style="fill: none; stroke: #000000; stroke-linecap: round"/>
    <path d="M 330.829 209.22073 
L 334.696451 206.975108 
L 334.172478 211.416442 
L 330.829 209.22073 
z
" clip-path="url(#p0444596712)" style="stroke: #000000; stroke-linecap: round"/>
   </g>
   <g id="patch_97">
    <path d="M 336.26993 202.485968 
Q 334.607627 171.902918 333.006004 142.436255 
" clip-path="url(#p0444596712)" style="fill: none; stroke: #000000; stroke-linecap: round"/>
    <path d="M 331.226047 146.538907 
L 333.006004 142.436255 
L 335.220151 146.321812 
L 331.226047 146.538907 
z
" clip-path="url(#p0444596712)" style="stroke: #000000; stroke-linecap: round"/>
   </g>
   <g id="patch_98">
    <path d="M 335.059331 205.838444 
Q 327.256618 214.255854 320.213968 221.853322 
" clip-path="url(#p0444596712)" style="fill: none; stroke: #000000; stroke-linecap: round"/>
    <path d="M 324.400009 220.279455 
L 320.213968 221.853322 
L 321.466498 217.560169 
L 324.400009 220.279455 
z
" clip-path="url(#p0444596712)" style="stroke: #000000; stroke-linecap: round"/>
   </g>
   <g id="patch_99">
    <path d="M 335.313842 206.034987 
Q 319.230805 230.525124 303.761488 254.08073 
" clip-path="url(#p0444596712)" style="fill: none; stroke: #000000; stroke-linecap: round"/>
    <path d="M 307.62894 251.835107 
L 303.761488 254.08073 
L 304.285461 249.639395 
L 307.62894 251.835107 
z
" clip-path="url(#p0444596712)" style="stroke: #000000; stroke-linecap: round"/>
   </g>
   <g id="PathCollection_1">
    <defs>
     <path id="m1f2a5e0f03" d="M 0 1.936492 
C 0.513564 1.936492 1.006162 1.732451 1.369306 1.369306 
C 1.732451 1.006162 1.936492 0.513564 1.936492 0 
C 1.936492 -0.513564 1.732451 -1.006162 1.369306 -1.369306 
C 1.006162 -1.732451 0.513564 -1.936492 0 -1.936492 
C -0.513564 -1.936492 -1.006162 -1.732451 -1.369306 -1.369306 
C -1.732451 -1.006162 -1.936492 -0.513564 -1.936492 0 
C -1.936492 0.513564 -1.732451 1.006162 -1.369306 1.369306 
C -1.006162 1.732451 -0.513564 1.936492 0 1.936492 
z
" style="stroke: #1f78b4"/>
    </defs>
    <g clip-path="url(#p0444596712)">
     <use xlink:href="#m1f2a5e0f03" x="99.852273" y="122.268533" style="fill: #1f78b4; stroke: #1f78b4"/>
     <use xlink:href="#m1f2a5e0f03" x="92.423853" y="67.39658" style="fill: #1f78b4; stroke: #1f78b4"/>
     <use xlink:href="#m1f2a5e0f03" x="173.062391" y="211.549258" style="fill: #1f78b4; stroke: #1f78b4"/>
     <use xlink:href="#m1f2a5e0f03" x="114.24486" y="201.157701" style="fill: #1f78b4; stroke: #1f78b4"/>
     <use xlink:href="#m1f2a5e0f03" x="291.009592" y="90.485758" style="fill: #1f78b4; stroke: #1f78b4"/>
     <use xlink:href="#m1f2a5e0f03" x="352.438879" y="186.949654" style="fill: #1f78b4; stroke: #1f78b4"/>
     <use xlink:href="#m1f2a5e0f03" x="100.30953" y="29.990083" style="fill: #1f78b4; stroke: #1f78b4"/>
     <use xlink:href="#m1f2a5e0f03" x="220.216373" y="77.539069" style="fill: #1f78b4; stroke: #1f78b4"/>
     <use xlink:href="#m1f2a5e0f03" x="332.840024" y="139.382551" style="fill: #1f78b4; stroke: #1f78b4"/>
     <use xlink:href="#m1f2a5e0f03" x="420.813223" y="132.065579" style="fill: #1f78b4; stroke: #1f78b4"/>
     <use xlink:href="#m1f2a5e0f03" x="95.066542" y="152.773275" style="fill: #1f78b4; stroke: #1f78b4"/>
     <use xlink:href="#m1f2a5e0f03" x="68.849758" y="141.053963" style="fill: #1f78b4; stroke: #1f78b4"/>
     <use xlink:href="#m1f2a5e0f03" x="128.85772" y="130.967406" style="fill: #1f78b4; stroke: #1f78b4"/>
     <use xlink:href="#m1f2a5e0f03" x="343.354081" y="263.764184" style="fill: #1f78b4; stroke: #1f78b4"/>
     <use xlink:href="#m1f2a5e0f03" x="151.013652" y="158.194166" style="fill: #1f78b4; stroke: #1f78b4"/>
     <use xlink:href="#m1f2a5e0f03" x="166.5095" y="35.323662" style="fill: #1f78b4; stroke: #1f78b4"/>
     <use xlink:href="#m1f2a5e0f03" x="275.153025" y="135.571847" style="fill: #1f78b4; stroke: #1f78b4"/>
     <use xlink:href="#m1f2a5e0f03" x="230.524085" y="144.697031" style="fill: #1f78b4; stroke: #1f78b4"/>
     <use xlink:href="#m1f2a5e0f03" x="359.45648" y="142.474553" style="fill: #1f78b4; stroke: #1f78b4"/>
     <use xlink:href="#m1f2a5e0f03" x="194.977037" y="173.762414" style="fill: #1f78b4; stroke: #1f78b4"/>
     <use xlink:href="#m1f2a5e0f03" x="57.844027" y="79.537847" style="fill: #1f78b4; stroke: #1f78b4"/>
     <use xlink:href="#m1f2a5e0f03" x="46.671792" y="46.327242" style="fill: #1f78b4; stroke: #1f78b4"/>
     <use xlink:href="#m1f2a5e0f03" x="39.986777" y="88.217351" style="fill: #1f78b4; stroke: #1f78b4"/>
     <use xlink:href="#m1f2a5e0f03" x="192.857991" y="137.619631" style="fill: #1f78b4; stroke: #1f78b4"/>
     <use xlink:href="#m1f2a5e0f03" x="318.138132" y="224.092692" style="fill: #1f78b4; stroke: #1f78b4"/>
     <use xlink:href="#m1f2a5e0f03" x="302.280775" y="195.691625" style="fill: #1f78b4; stroke: #1f78b4"/>
     <use xlink:href="#m1f2a5e0f03" x="132.865303" y="315.251573" style="fill: #1f78b4; stroke: #1f78b4"/>
     <use xlink:href="#m1f2a5e0f03" x="122.124004" y="268.068092" style="fill: #1f78b4; stroke: #1f78b4"/>
     <use xlink:href="#m1f2a5e0f03" x="171.657664" y="286.871135" style="fill: #1f78b4; stroke: #1f78b4"/>
     <use xlink:href="#m1f2a5e0f03" x="186.355391" y="315.609917" style="fill: #1f78b4; stroke: #1f78b4"/>
     <use xlink:href="#m1f2a5e0f03" x="229.849075" y="271.323693" style="fill: #1f78b4; stroke: #1f78b4"/>
     <use xlink:href="#m1f2a5e0f03" x="241.467044" y="207.740157" style="fill: #1f78b4; stroke: #1f78b4"/>
     <use xlink:href="#m1f2a5e0f03" x="302.082935" y="256.636715" style="fill: #1f78b4; stroke: #1f78b4"/>
     <use xlink:href="#m1f2a5e0f03" x="336.375004" y="204.419123" style="fill: #1f78b4; stroke: #1f78b4"/>
    </g>
   </g>
   <g id="text_1">
    <g clip-path="url(#p0444596712)">
     <!-- 0 -->
     <g transform="translate(96.671023 125.027908) scale(0.1 -0.1)">
      <defs>
       <path id="DejaVuSans-30" d="M 2034 4250 
Q 1547 4250 1301 3770 
Q 1056 3291 1056 2328 
Q 1056 1369 1301 889 
Q 1547 409 2034 409 
Q 2525 409 2770 889 
Q 3016 1369 3016 2328 
Q 3016 3291 2770 3770 
Q 2525 4250 2034 4250 
z
M 2034 4750 
Q 2819 4750 3233 4129 
Q 3647 3509 3647 2328 
Q 3647 1150 3233 529 
Q 2819 -91 2034 -91 
Q 1250 -91 836 529 
Q 422 1150 422 2328 
Q 422 3509 836 4129 
Q 1250 4750 2034 4750 
z
" transform="scale(0.015625)"/>
      </defs>
      <use xlink:href="#DejaVuSans-30"/>
     </g>
    </g>
   </g>
   <g id="text_2">
    <g clip-path="url(#p0444596712)">
     <!-- 1 -->
     <g transform="translate(89.242603 70.155955) scale(0.1 -0.1)">
      <defs>
       <path id="DejaVuSans-31" d="M 794 531 
L 1825 531 
L 1825 4091 
L 703 3866 
L 703 4441 
L 1819 4666 
L 2450 4666 
L 2450 531 
L 3481 531 
L 3481 0 
L 794 0 
L 794 531 
z
" transform="scale(0.015625)"/>
      </defs>
      <use xlink:href="#DejaVuSans-31"/>
     </g>
    </g>
   </g>
   <g id="text_3">
    <g clip-path="url(#p0444596712)">
     <!-- 2 -->
     <g transform="translate(169.881141 214.308633) scale(0.1 -0.1)">
      <defs>
       <path id="DejaVuSans-32" d="M 1228 531 
L 3431 531 
L 3431 0 
L 469 0 
L 469 531 
Q 828 903 1448 1529 
Q 2069 2156 2228 2338 
Q 2531 2678 2651 2914 
Q 2772 3150 2772 3378 
Q 2772 3750 2511 3984 
Q 2250 4219 1831 4219 
Q 1534 4219 1204 4116 
Q 875 4013 500 3803 
L 500 4441 
Q 881 4594 1212 4672 
Q 1544 4750 1819 4750 
Q 2544 4750 2975 4387 
Q 3406 4025 3406 3419 
Q 3406 3131 3298 2873 
Q 3191 2616 2906 2266 
Q 2828 2175 2409 1742 
Q 1991 1309 1228 531 
z
" transform="scale(0.015625)"/>
      </defs>
      <use xlink:href="#DejaVuSans-32"/>
     </g>
    </g>
   </g>
   <g id="text_4">
    <g clip-path="url(#p0444596712)">
     <!-- 3 -->
     <g transform="translate(111.06361 203.917076) scale(0.1 -0.1)">
      <defs>
       <path id="DejaVuSans-33" d="M 2597 2516 
Q 3050 2419 3304 2112 
Q 3559 1806 3559 1356 
Q 3559 666 3084 287 
Q 2609 -91 1734 -91 
Q 1441 -91 1130 -33 
Q 819 25 488 141 
L 488 750 
Q 750 597 1062 519 
Q 1375 441 1716 441 
Q 2309 441 2620 675 
Q 2931 909 2931 1356 
Q 2931 1769 2642 2001 
Q 2353 2234 1838 2234 
L 1294 2234 
L 1294 2753 
L 1863 2753 
Q 2328 2753 2575 2939 
Q 2822 3125 2822 3475 
Q 2822 3834 2567 4026 
Q 2313 4219 1838 4219 
Q 1578 4219 1281 4162 
Q 984 4106 628 3988 
L 628 4550 
Q 988 4650 1302 4700 
Q 1616 4750 1894 4750 
Q 2613 4750 3031 4423 
Q 3450 4097 3450 3541 
Q 3450 3153 3228 2886 
Q 3006 2619 2597 2516 
z
" transform="scale(0.015625)"/>
      </defs>
      <use xlink:href="#DejaVuSans-33"/>
     </g>
    </g>
   </g>
   <g id="text_5">
    <g clip-path="url(#p0444596712)">
     <!-- 4 -->
     <g transform="translate(287.828342 93.245133) scale(0.1 -0.1)">
      <defs>
       <path id="DejaVuSans-34" d="M 2419 4116 
L 825 1625 
L 2419 1625 
L 2419 4116 
z
M 2253 4666 
L 3047 4666 
L 3047 1625 
L 3713 1625 
L 3713 1100 
L 3047 1100 
L 3047 0 
L 2419 0 
L 2419 1100 
L 313 1100 
L 313 1709 
L 2253 4666 
z
" transform="scale(0.015625)"/>
      </defs>
      <use xlink:href="#DejaVuSans-34"/>
     </g>
    </g>
   </g>
   <g id="text_6">
    <g clip-path="url(#p0444596712)">
     <!-- 5 -->
     <g transform="translate(349.257629 189.709029) scale(0.1 -0.1)">
      <defs>
       <path id="DejaVuSans-35" d="M 691 4666 
L 3169 4666 
L 3169 4134 
L 1269 4134 
L 1269 2991 
Q 1406 3038 1543 3061 
Q 1681 3084 1819 3084 
Q 2600 3084 3056 2656 
Q 3513 2228 3513 1497 
Q 3513 744 3044 326 
Q 2575 -91 1722 -91 
Q 1428 -91 1123 -41 
Q 819 9 494 109 
L 494 744 
Q 775 591 1075 516 
Q 1375 441 1709 441 
Q 2250 441 2565 725 
Q 2881 1009 2881 1497 
Q 2881 1984 2565 2268 
Q 2250 2553 1709 2553 
Q 1456 2553 1204 2497 
Q 953 2441 691 2322 
L 691 4666 
z
" transform="scale(0.015625)"/>
      </defs>
      <use xlink:href="#DejaVuSans-35"/>
     </g>
    </g>
   </g>
   <g id="text_7">
    <g clip-path="url(#p0444596712)">
     <!-- 6 -->
     <g transform="translate(97.12828 32.749458) scale(0.1 -0.1)">
      <defs>
       <path id="DejaVuSans-36" d="M 2113 2584 
Q 1688 2584 1439 2293 
Q 1191 2003 1191 1497 
Q 1191 994 1439 701 
Q 1688 409 2113 409 
Q 2538 409 2786 701 
Q 3034 994 3034 1497 
Q 3034 2003 2786 2293 
Q 2538 2584 2113 2584 
z
M 3366 4563 
L 3366 3988 
Q 3128 4100 2886 4159 
Q 2644 4219 2406 4219 
Q 1781 4219 1451 3797 
Q 1122 3375 1075 2522 
Q 1259 2794 1537 2939 
Q 1816 3084 2150 3084 
Q 2853 3084 3261 2657 
Q 3669 2231 3669 1497 
Q 3669 778 3244 343 
Q 2819 -91 2113 -91 
Q 1303 -91 875 529 
Q 447 1150 447 2328 
Q 447 3434 972 4092 
Q 1497 4750 2381 4750 
Q 2619 4750 2861 4703 
Q 3103 4656 3366 4563 
z
" transform="scale(0.015625)"/>
      </defs>
      <use xlink:href="#DejaVuSans-36"/>
     </g>
    </g>
   </g>
   <g id="text_8">
    <g clip-path="url(#p0444596712)">
     <!-- 7 -->
     <g transform="translate(217.035123 80.298444) scale(0.1 -0.1)">
      <defs>
       <path id="DejaVuSans-37" d="M 525 4666 
L 3525 4666 
L 3525 4397 
L 1831 0 
L 1172 0 
L 2766 4134 
L 525 4134 
L 525 4666 
z
" transform="scale(0.015625)"/>
      </defs>
      <use xlink:href="#DejaVuSans-37"/>
     </g>
    </g>
   </g>
   <g id="text_9">
    <g clip-path="url(#p0444596712)">
     <!-- 8 -->
     <g transform="translate(329.658774 142.141926) scale(0.1 -0.1)">
      <defs>
       <path id="DejaVuSans-38" d="M 2034 2216 
Q 1584 2216 1326 1975 
Q 1069 1734 1069 1313 
Q 1069 891 1326 650 
Q 1584 409 2034 409 
Q 2484 409 2743 651 
Q 3003 894 3003 1313 
Q 3003 1734 2745 1975 
Q 2488 2216 2034 2216 
z
M 1403 2484 
Q 997 2584 770 2862 
Q 544 3141 544 3541 
Q 544 4100 942 4425 
Q 1341 4750 2034 4750 
Q 2731 4750 3128 4425 
Q 3525 4100 3525 3541 
Q 3525 3141 3298 2862 
Q 3072 2584 2669 2484 
Q 3125 2378 3379 2068 
Q 3634 1759 3634 1313 
Q 3634 634 3220 271 
Q 2806 -91 2034 -91 
Q 1263 -91 848 271 
Q 434 634 434 1313 
Q 434 1759 690 2068 
Q 947 2378 1403 2484 
z
M 1172 3481 
Q 1172 3119 1398 2916 
Q 1625 2713 2034 2713 
Q 2441 2713 2670 2916 
Q 2900 3119 2900 3481 
Q 2900 3844 2670 4047 
Q 2441 4250 2034 4250 
Q 1625 4250 1398 4047 
Q 1172 3844 1172 3481 
z
" transform="scale(0.015625)"/>
      </defs>
      <use xlink:href="#DejaVuSans-38"/>
     </g>
    </g>
   </g>
   <g id="text_10">
    <g clip-path="url(#p0444596712)">
     <!-- 9 -->
     <g transform="translate(417.631973 134.824954) scale(0.1 -0.1)">
      <defs>
       <path id="DejaVuSans-39" d="M 703 97 
L 703 672 
Q 941 559 1184 500 
Q 1428 441 1663 441 
Q 2288 441 2617 861 
Q 2947 1281 2994 2138 
Q 2813 1869 2534 1725 
Q 2256 1581 1919 1581 
Q 1219 1581 811 2004 
Q 403 2428 403 3163 
Q 403 3881 828 4315 
Q 1253 4750 1959 4750 
Q 2769 4750 3195 4129 
Q 3622 3509 3622 2328 
Q 3622 1225 3098 567 
Q 2575 -91 1691 -91 
Q 1453 -91 1209 -44 
Q 966 3 703 97 
z
M 1959 2075 
Q 2384 2075 2632 2365 
Q 2881 2656 2881 3163 
Q 2881 3666 2632 3958 
Q 2384 4250 1959 4250 
Q 1534 4250 1286 3958 
Q 1038 3666 1038 3163 
Q 1038 2656 1286 2365 
Q 1534 2075 1959 2075 
z
" transform="scale(0.015625)"/>
      </defs>
      <use xlink:href="#DejaVuSans-39"/>
     </g>
    </g>
   </g>
   <g id="text_11">
    <g clip-path="url(#p0444596712)">
     <!-- 10 -->
     <g transform="translate(88.704042 155.53265) scale(0.1 -0.1)">
      <use xlink:href="#DejaVuSans-31"/>
      <use xlink:href="#DejaVuSans-30" x="63.623047"/>
     </g>
    </g>
   </g>
   <g id="text_12">
    <g clip-path="url(#p0444596712)">
     <!-- 11 -->
     <g transform="translate(62.487258 143.813338) scale(0.1 -0.1)">
      <use xlink:href="#DejaVuSans-31"/>
      <use xlink:href="#DejaVuSans-31" x="63.623047"/>
     </g>
    </g>
   </g>
   <g id="text_13">
    <g clip-path="url(#p0444596712)">
     <!-- 12 -->
     <g transform="translate(122.49522 133.726781) scale(0.1 -0.1)">
      <use xlink:href="#DejaVuSans-31"/>
      <use xlink:href="#DejaVuSans-32" x="63.623047"/>
     </g>
    </g>
   </g>
   <g id="text_14">
    <g clip-path="url(#p0444596712)">
     <!-- 13 -->
     <g transform="translate(336.991581 266.523559) scale(0.1 -0.1)">
      <use xlink:href="#DejaVuSans-31"/>
      <use xlink:href="#DejaVuSans-33" x="63.623047"/>
     </g>
    </g>
   </g>
   <g id="text_15">
    <g clip-path="url(#p0444596712)">
     <!-- 14 -->
     <g transform="translate(144.651152 160.953541) scale(0.1 -0.1)">
      <use xlink:href="#DejaVuSans-31"/>
      <use xlink:href="#DejaVuSans-34" x="63.623047"/>
     </g>
    </g>
   </g>
   <g id="text_16">
    <g clip-path="url(#p0444596712)">
     <!-- 15 -->
     <g transform="translate(160.147 38.083037) scale(0.1 -0.1)">
      <use xlink:href="#DejaVuSans-31"/>
      <use xlink:href="#DejaVuSans-35" x="63.623047"/>
     </g>
    </g>
   </g>
   <g id="text_17">
    <g clip-path="url(#p0444596712)">
     <!-- 16 -->
     <g transform="translate(268.790525 138.331222) scale(0.1 -0.1)">
      <use xlink:href="#DejaVuSans-31"/>
      <use xlink:href="#DejaVuSans-36" x="63.623047"/>
     </g>
    </g>
   </g>
   <g id="text_18">
    <g clip-path="url(#p0444596712)">
     <!-- 17 -->
     <g transform="translate(224.161585 147.456406) scale(0.1 -0.1)">
      <use xlink:href="#DejaVuSans-31"/>
      <use xlink:href="#DejaVuSans-37" x="63.623047"/>
     </g>
    </g>
   </g>
   <g id="text_19">
    <g clip-path="url(#p0444596712)">
     <!-- 18 -->
     <g transform="translate(353.09398 145.233928) scale(0.1 -0.1)">
      <use xlink:href="#DejaVuSans-31"/>
      <use xlink:href="#DejaVuSans-38" x="63.623047"/>
     </g>
    </g>
   </g>
   <g id="text_20">
    <g clip-path="url(#p0444596712)">
     <!-- 19 -->
     <g transform="translate(188.614537 176.521789) scale(0.1 -0.1)">
      <use xlink:href="#DejaVuSans-31"/>
      <use xlink:href="#DejaVuSans-39" x="63.623047"/>
     </g>
    </g>
   </g>
   <g id="text_21">
    <g clip-path="url(#p0444596712)">
     <!-- 20 -->
     <g transform="translate(51.481527 82.297222) scale(0.1 -0.1)">
      <use xlink:href="#DejaVuSans-32"/>
      <use xlink:href="#DejaVuSans-30" x="63.623047"/>
     </g>
    </g>
   </g>
   <g id="text_22">
    <g clip-path="url(#p0444596712)">
     <!-- 21 -->
     <g transform="translate(40.309292 49.086617) scale(0.1 -0.1)">
      <use xlink:href="#DejaVuSans-32"/>
      <use xlink:href="#DejaVuSans-31" x="63.623047"/>
     </g>
    </g>
   </g>
   <g id="text_23">
    <g clip-path="url(#p0444596712)">
     <!-- 22 -->
     <g transform="translate(33.624277 90.976726) scale(0.1 -0.1)">
      <use xlink:href="#DejaVuSans-32"/>
      <use xlink:href="#DejaVuSans-32" x="63.623047"/>
     </g>
    </g>
   </g>
   <g id="text_24">
    <g clip-path="url(#p0444596712)">
     <!-- 23 -->
     <g transform="translate(186.495491 140.379006) scale(0.1 -0.1)">
      <use xlink:href="#DejaVuSans-32"/>
      <use xlink:href="#DejaVuSans-33" x="63.623047"/>
     </g>
    </g>
   </g>
   <g id="text_25">
    <g clip-path="url(#p0444596712)">
     <!-- 24 -->
     <g transform="translate(311.775632 226.852067) scale(0.1 -0.1)">
      <use xlink:href="#DejaVuSans-32"/>
      <use xlink:href="#DejaVuSans-34" x="63.623047"/>
     </g>
    </g>
   </g>
   <g id="text_26">
    <g clip-path="url(#p0444596712)">
     <!-- 25 -->
     <g transform="translate(295.918275 198.451) scale(0.1 -0.1)">
      <use xlink:href="#DejaVuSans-32"/>
      <use xlink:href="#DejaVuSans-35" x="63.623047"/>
     </g>
    </g>
   </g>
   <g id="text_27">
    <g clip-path="url(#p0444596712)">
     <!-- 26 -->
     <g transform="translate(126.502803 318.010948) scale(0.1 -0.1)">
      <use xlink:href="#DejaVuSans-32"/>
      <use xlink:href="#DejaVuSans-36" x="63.623047"/>
     </g>
    </g>
   </g>
   <g id="text_28">
    <g clip-path="url(#p0444596712)">
     <!-- 27 -->
     <g transform="translate(115.761504 270.827467) scale(0.1 -0.1)">
      <use xlink:href="#DejaVuSans-32"/>
      <use xlink:href="#DejaVuSans-37" x="63.623047"/>
     </g>
    </g>
   </g>
   <g id="text_29">
    <g clip-path="url(#p0444596712)">
     <!-- 28 -->
     <g transform="translate(165.295164 289.63051) scale(0.1 -0.1)">
      <use xlink:href="#DejaVuSans-32"/>
      <use xlink:href="#DejaVuSans-38" x="63.623047"/>
     </g>
    </g>
   </g>
   <g id="text_30">
    <g clip-path="url(#p0444596712)">
     <!-- 29 -->
     <g transform="translate(179.992891 318.369292) scale(0.1 -0.1)">
      <use xlink:href="#DejaVuSans-32"/>
      <use xlink:href="#DejaVuSans-39" x="63.623047"/>
     </g>
    </g>
   </g>
   <g id="text_31">
    <g clip-path="url(#p0444596712)">
     <!-- 30 -->
     <g transform="translate(223.486575 274.083068) scale(0.1 -0.1)">
      <use xlink:href="#DejaVuSans-33"/>
      <use xlink:href="#DejaVuSans-30" x="63.623047"/>
     </g>
    </g>
   </g>
   <g id="text_32">
    <g clip-path="url(#p0444596712)">
     <!-- 31 -->
     <g transform="translate(235.104544 210.499532) scale(0.1 -0.1)">
      <use xlink:href="#DejaVuSans-33"/>
      <use xlink:href="#DejaVuSans-31" x="63.623047"/>
     </g>
    </g>
   </g>
   <g id="text_33">
    <g clip-path="url(#p0444596712)">
     <!-- 32 -->
     <g transform="translate(295.720435 259.39609) scale(0.1 -0.1)">
      <use xlink:href="#DejaVuSans-33"/>
      <use xlink:href="#DejaVuSans-32" x="63.623047"/>
     </g>
    </g>
   </g>
   <g id="text_34">
    <g clip-path="url(#p0444596712)">
     <!-- 33 -->
     <g transform="translate(330.012504 207.178498) scale(0.1 -0.1)">
      <use xlink:href="#DejaVuSans-33"/>
      <use xlink:href="#DejaVuSans-33" x="63.623047"/>
     </g>
    </g>
   </g>
  </g>
 </g>
 <defs>
  <clipPath id="p0444596712">
   <rect x="0" y="0" width="460.8" height="345.6"/>
  </clipPath>
 </defs>
</svg>
