<?xml version="1.0" encoding="utf-8" standalone="no"?>
<!DOCTYPE svg PUBLIC "-//W3C//DTD SVG 1.1//EN"
  "http://www.w3.org/Graphics/SVG/1.1/DTD/svg11.dtd">
<svg xmlns:xlink="http://www.w3.org/1999/xlink" width="600.279028pt" height="376.061359pt" viewBox="0 0 600.279028 376.061359" xmlns="http://www.w3.org/2000/svg" version="1.1">
 <metadata>
  <rdf:RDF xmlns:dc="http://purl.org/dc/elements/1.1/" xmlns:cc="http://creativecommons.org/ns#" xmlns:rdf="http://www.w3.org/1999/02/22-rdf-syntax-ns#">
   <cc:Work>
    <dc:type rdf:resource="http://purl.org/dc/dcmitype/StillImage"/>
    <dc:date>2024-01-23T13:10:59.187604</dc:date>
    <dc:format>image/svg+xml</dc:format>
    <dc:creator>
     <cc:Agent>
      <dc:title>Matplotlib v3.8.0, https://matplotlib.org/</dc:title>
     </cc:Agent>
    </dc:creator>
   </cc:Work>
  </rdf:RDF>
 </metadata>
 <defs>
  <style type="text/css">*{stroke-linejoin: round; stroke-linecap: butt}</style>
 </defs>
 <g id="figure_1">
  <g id="patch_1">
   <path d="M -0 376.061359 
L 600.279028 376.061359 
L 600.279028 0 
L -0 0 
z
" style="fill: #ffffff"/>
  </g>
  <g id="axes_1">
   <g id="patch_2">
    <path d="M 67.300625 323.020109 
L 581.626528 323.020109 
L 581.626528 7.2 
L 67.300625 7.2 
z
" style="fill: #ffffff"/>
   </g>
   <g id="matplotlib.axis_1">
    <g id="xtick_1">
     <g id="line2d_1">
      <path d="M 67.300625 323.020109 
L 67.300625 7.2 
" clip-path="url(#pa9d5afad31)" style="fill: none; stroke-dasharray: 1,1.65; stroke-dashoffset: 0; stroke: #000000"/>
     </g>
     <g id="line2d_2">
      <defs>
       <path id="mf353a7c41c" d="M 0 0 
L 0 3.5 
" style="stroke: #000000; stroke-width: 0.8"/>
      </defs>
      <g>
       <use xlink:href="#mf353a7c41c" x="67.300625" y="323.020109" style="stroke: #000000; stroke-width: 0.8"/>
      </g>
     </g>
     <g id="text_1">
      <!-- 0 -->
      <g transform="translate(61.574375 343.697297) scale(0.18 -0.18)">
       <defs>
        <path id="DejaVuSans-30" d="M 2034 4250 
Q 1547 4250 1301 3770 
Q 1056 3291 1056 2328 
Q 1056 1369 1301 889 
Q 1547 409 2034 409 
Q 2525 409 2770 889 
Q 3016 1369 3016 2328 
Q 3016 3291 2770 3770 
Q 2525 4250 2034 4250 
z
M 2034 4750 
Q 2819 4750 3233 4129 
Q 3647 3509 3647 2328 
Q 3647 1150 3233 529 
Q 2819 -91 2034 -91 
Q 1250 -91 836 529 
Q 422 1150 422 2328 
Q 422 3509 836 4129 
Q 1250 4750 2034 4750 
z
" transform="scale(0.015625)"/>
       </defs>
       <use xlink:href="#DejaVuSans-30"/>
      </g>
     </g>
    </g>
    <g id="xtick_2">
     <g id="line2d_3">
      <path d="M 140.775754 323.020109 
L 140.775754 7.2 
" clip-path="url(#pa9d5afad31)" style="fill: none; stroke-dasharray: 1,1.65; stroke-dashoffset: 0; stroke: #000000"/>
     </g>
     <g id="line2d_4">
      <g>
       <use xlink:href="#mf353a7c41c" x="140.775754" y="323.020109" style="stroke: #000000; stroke-width: 0.8"/>
      </g>
     </g>
     <g id="text_2">
      <!-- 5 -->
      <g transform="translate(135.049504 343.697297) scale(0.18 -0.18)">
       <defs>
        <path id="DejaVuSans-35" d="M 691 4666 
L 3169 4666 
L 3169 4134 
L 1269 4134 
L 1269 2991 
Q 1406 3038 1543 3061 
Q 1681 3084 1819 3084 
Q 2600 3084 3056 2656 
Q 3513 2228 3513 1497 
Q 3513 744 3044 326 
Q 2575 -91 1722 -91 
Q 1428 -91 1123 -41 
Q 819 9 494 109 
L 494 744 
Q 775 591 1075 516 
Q 1375 441 1709 441 
Q 2250 441 2565 725 
Q 2881 1009 2881 1497 
Q 2881 1984 2565 2268 
Q 2250 2553 1709 2553 
Q 1456 2553 1204 2497 
Q 953 2441 691 2322 
L 691 4666 
z
" transform="scale(0.015625)"/>
       </defs>
       <use xlink:href="#DejaVuSans-35"/>
      </g>
     </g>
    </g>
    <g id="xtick_3">
     <g id="line2d_5">
      <path d="M 214.250883 323.020109 
L 214.250883 7.2 
" clip-path="url(#pa9d5afad31)" style="fill: none; stroke-dasharray: 1,1.65; stroke-dashoffset: 0; stroke: #000000"/>
     </g>
     <g id="line2d_6">
      <g>
       <use xlink:href="#mf353a7c41c" x="214.250883" y="323.020109" style="stroke: #000000; stroke-width: 0.8"/>
      </g>
     </g>
     <g id="text_3">
      <!-- 10 -->
      <g transform="translate(202.798383 343.697297) scale(0.18 -0.18)">
       <defs>
        <path id="DejaVuSans-31" d="M 794 531 
L 1825 531 
L 1825 4091 
L 703 3866 
L 703 4441 
L 1819 4666 
L 2450 4666 
L 2450 531 
L 3481 531 
L 3481 0 
L 794 0 
L 794 531 
z
" transform="scale(0.015625)"/>
       </defs>
       <use xlink:href="#DejaVuSans-31"/>
       <use xlink:href="#DejaVuSans-30" x="63.623047"/>
      </g>
     </g>
    </g>
    <g id="xtick_4">
     <g id="line2d_7">
      <path d="M 287.726012 323.020109 
L 287.726012 7.2 
" clip-path="url(#pa9d5afad31)" style="fill: none; stroke-dasharray: 1,1.65; stroke-dashoffset: 0; stroke: #000000"/>
     </g>
     <g id="line2d_8">
      <g>
       <use xlink:href="#mf353a7c41c" x="287.726012" y="323.020109" style="stroke: #000000; stroke-width: 0.8"/>
      </g>
     </g>
     <g id="text_4">
      <!-- 15 -->
      <g transform="translate(276.273512 343.697297) scale(0.18 -0.18)">
       <use xlink:href="#DejaVuSans-31"/>
       <use xlink:href="#DejaVuSans-35" x="63.623047"/>
      </g>
     </g>
    </g>
    <g id="xtick_5">
     <g id="line2d_9">
      <path d="M 361.201141 323.020109 
L 361.201141 7.2 
" clip-path="url(#pa9d5afad31)" style="fill: none; stroke-dasharray: 1,1.65; stroke-dashoffset: 0; stroke: #000000"/>
     </g>
     <g id="line2d_10">
      <g>
       <use xlink:href="#mf353a7c41c" x="361.201141" y="323.020109" style="stroke: #000000; stroke-width: 0.8"/>
      </g>
     </g>
     <g id="text_5">
      <!-- 20 -->
      <g transform="translate(349.748641 343.697297) scale(0.18 -0.18)">
       <defs>
        <path id="DejaVuSans-32" d="M 1228 531 
L 3431 531 
L 3431 0 
L 469 0 
L 469 531 
Q 828 903 1448 1529 
Q 2069 2156 2228 2338 
Q 2531 2678 2651 2914 
Q 2772 3150 2772 3378 
Q 2772 3750 2511 3984 
Q 2250 4219 1831 4219 
Q 1534 4219 1204 4116 
Q 875 4013 500 3803 
L 500 4441 
Q 881 4594 1212 4672 
Q 1544 4750 1819 4750 
Q 2544 4750 2975 4387 
Q 3406 4025 3406 3419 
Q 3406 3131 3298 2873 
Q 3191 2616 2906 2266 
Q 2828 2175 2409 1742 
Q 1991 1309 1228 531 
z
" transform="scale(0.015625)"/>
       </defs>
       <use xlink:href="#DejaVuSans-32"/>
       <use xlink:href="#DejaVuSans-30" x="63.623047"/>
      </g>
     </g>
    </g>
    <g id="xtick_6">
     <g id="line2d_11">
      <path d="M 434.67627 323.020109 
L 434.67627 7.2 
" clip-path="url(#pa9d5afad31)" style="fill: none; stroke-dasharray: 1,1.65; stroke-dashoffset: 0; stroke: #000000"/>
     </g>
     <g id="line2d_12">
      <g>
       <use xlink:href="#mf353a7c41c" x="434.67627" y="323.020109" style="stroke: #000000; stroke-width: 0.8"/>
      </g>
     </g>
     <g id="text_6">
      <!-- 25 -->
      <g transform="translate(423.22377 343.697297) scale(0.18 -0.18)">
       <use xlink:href="#DejaVuSans-32"/>
       <use xlink:href="#DejaVuSans-35" x="63.623047"/>
      </g>
     </g>
    </g>
    <g id="xtick_7">
     <g id="line2d_13">
      <path d="M 508.151399 323.020109 
L 508.151399 7.2 
" clip-path="url(#pa9d5afad31)" style="fill: none; stroke-dasharray: 1,1.65; stroke-dashoffset: 0; stroke: #000000"/>
     </g>
     <g id="line2d_14">
      <g>
       <use xlink:href="#mf353a7c41c" x="508.151399" y="323.020109" style="stroke: #000000; stroke-width: 0.8"/>
      </g>
     </g>
     <g id="text_7">
      <!-- 30 -->
      <g transform="translate(496.698899 343.697297) scale(0.18 -0.18)">
       <defs>
        <path id="DejaVuSans-33" d="M 2597 2516 
Q 3050 2419 3304 2112 
Q 3559 1806 3559 1356 
Q 3559 666 3084 287 
Q 2609 -91 1734 -91 
Q 1441 -91 1130 -33 
Q 819 25 488 141 
L 488 750 
Q 750 597 1062 519 
Q 1375 441 1716 441 
Q 2309 441 2620 675 
Q 2931 909 2931 1356 
Q 2931 1769 2642 2001 
Q 2353 2234 1838 2234 
L 1294 2234 
L 1294 2753 
L 1863 2753 
Q 2328 2753 2575 2939 
Q 2822 3125 2822 3475 
Q 2822 3834 2567 4026 
Q 2313 4219 1838 4219 
Q 1578 4219 1281 4162 
Q 984 4106 628 3988 
L 628 4550 
Q 988 4650 1302 4700 
Q 1616 4750 1894 4750 
Q 2613 4750 3031 4423 
Q 3450 4097 3450 3541 
Q 3450 3153 3228 2886 
Q 3006 2619 2597 2516 
z
" transform="scale(0.015625)"/>
       </defs>
       <use xlink:href="#DejaVuSans-33"/>
       <use xlink:href="#DejaVuSans-30" x="63.623047"/>
      </g>
     </g>
    </g>
    <g id="xtick_8">
     <g id="line2d_15">
      <path d="M 581.626528 323.020109 
L 581.626528 7.2 
" clip-path="url(#pa9d5afad31)" style="fill: none; stroke-dasharray: 1,1.65; stroke-dashoffset: 0; stroke: #000000"/>
     </g>
     <g id="line2d_16">
      <g>
       <use xlink:href="#mf353a7c41c" x="581.626528" y="323.020109" style="stroke: #000000; stroke-width: 0.8"/>
      </g>
     </g>
     <g id="text_8">
      <!-- 35 -->
      <g transform="translate(570.174028 343.697297) scale(0.18 -0.18)">
       <use xlink:href="#DejaVuSans-33"/>
       <use xlink:href="#DejaVuSans-35" x="63.623047"/>
      </g>
     </g>
    </g>
    <g id="text_9">
     <!-- instances -->
     <g transform="translate(281.648889 365.117922) scale(0.18 -0.18)">
      <defs>
       <path id="DejaVuSans-69" d="M 603 3500 
L 1178 3500 
L 1178 0 
L 603 0 
L 603 3500 
z
M 603 4863 
L 1178 4863 
L 1178 4134 
L 603 4134 
L 603 4863 
z
" transform="scale(0.015625)"/>
       <path id="DejaVuSans-6e" d="M 3513 2113 
L 3513 0 
L 2938 0 
L 2938 2094 
Q 2938 2591 2744 2837 
Q 2550 3084 2163 3084 
Q 1697 3084 1428 2787 
Q 1159 2491 1159 1978 
L 1159 0 
L 581 0 
L 581 3500 
L 1159 3500 
L 1159 2956 
Q 1366 3272 1645 3428 
Q 1925 3584 2291 3584 
Q 2894 3584 3203 3211 
Q 3513 2838 3513 2113 
z
" transform="scale(0.015625)"/>
       <path id="DejaVuSans-73" d="M 2834 3397 
L 2834 2853 
Q 2591 2978 2328 3040 
Q 2066 3103 1784 3103 
Q 1356 3103 1142 2972 
Q 928 2841 928 2578 
Q 928 2378 1081 2264 
Q 1234 2150 1697 2047 
L 1894 2003 
Q 2506 1872 2764 1633 
Q 3022 1394 3022 966 
Q 3022 478 2636 193 
Q 2250 -91 1575 -91 
Q 1294 -91 989 -36 
Q 684 19 347 128 
L 347 722 
Q 666 556 975 473 
Q 1284 391 1588 391 
Q 1994 391 2212 530 
Q 2431 669 2431 922 
Q 2431 1156 2273 1281 
Q 2116 1406 1581 1522 
L 1381 1569 
Q 847 1681 609 1914 
Q 372 2147 372 2553 
Q 372 3047 722 3315 
Q 1072 3584 1716 3584 
Q 2034 3584 2315 3537 
Q 2597 3491 2834 3397 
z
" transform="scale(0.015625)"/>
       <path id="DejaVuSans-74" d="M 1172 4494 
L 1172 3500 
L 2356 3500 
L 2356 3053 
L 1172 3053 
L 1172 1153 
Q 1172 725 1289 603 
Q 1406 481 1766 481 
L 2356 481 
L 2356 0 
L 1766 0 
Q 1100 0 847 248 
Q 594 497 594 1153 
L 594 3053 
L 172 3053 
L 172 3500 
L 594 3500 
L 594 4494 
L 1172 4494 
z
" transform="scale(0.015625)"/>
       <path id="DejaVuSans-61" d="M 2194 1759 
Q 1497 1759 1228 1600 
Q 959 1441 959 1056 
Q 959 750 1161 570 
Q 1363 391 1709 391 
Q 2188 391 2477 730 
Q 2766 1069 2766 1631 
L 2766 1759 
L 2194 1759 
z
M 3341 1997 
L 3341 0 
L 2766 0 
L 2766 531 
Q 2569 213 2275 61 
Q 1981 -91 1556 -91 
Q 1019 -91 701 211 
Q 384 513 384 1019 
Q 384 1609 779 1909 
Q 1175 2209 1959 2209 
L 2766 2209 
L 2766 2266 
Q 2766 2663 2505 2880 
Q 2244 3097 1772 3097 
Q 1472 3097 1187 3025 
Q 903 2953 641 2809 
L 641 3341 
Q 956 3463 1253 3523 
Q 1550 3584 1831 3584 
Q 2591 3584 2966 3190 
Q 3341 2797 3341 1997 
z
" transform="scale(0.015625)"/>
       <path id="DejaVuSans-63" d="M 3122 3366 
L 3122 2828 
Q 2878 2963 2633 3030 
Q 2388 3097 2138 3097 
Q 1578 3097 1268 2742 
Q 959 2388 959 1747 
Q 959 1106 1268 751 
Q 1578 397 2138 397 
Q 2388 397 2633 464 
Q 2878 531 3122 666 
L 3122 134 
Q 2881 22 2623 -34 
Q 2366 -91 2075 -91 
Q 1284 -91 818 406 
Q 353 903 353 1747 
Q 353 2603 823 3093 
Q 1294 3584 2113 3584 
Q 2378 3584 2631 3529 
Q 2884 3475 3122 3366 
z
" transform="scale(0.015625)"/>
       <path id="DejaVuSans-65" d="M 3597 1894 
L 3597 1613 
L 953 1613 
Q 991 1019 1311 708 
Q 1631 397 2203 397 
Q 2534 397 2845 478 
Q 3156 559 3463 722 
L 3463 178 
Q 3153 47 2828 -22 
Q 2503 -91 2169 -91 
Q 1331 -91 842 396 
Q 353 884 353 1716 
Q 353 2575 817 3079 
Q 1281 3584 2069 3584 
Q 2775 3584 3186 3129 
Q 3597 2675 3597 1894 
z
M 3022 2063 
Q 3016 2534 2758 2815 
Q 2500 3097 2075 3097 
Q 1594 3097 1305 2825 
Q 1016 2553 972 2059 
L 3022 2063 
z
" transform="scale(0.015625)"/>
      </defs>
      <use xlink:href="#DejaVuSans-69"/>
      <use xlink:href="#DejaVuSans-6e" x="27.783203"/>
      <use xlink:href="#DejaVuSans-73" x="91.162109"/>
      <use xlink:href="#DejaVuSans-74" x="143.261719"/>
      <use xlink:href="#DejaVuSans-61" x="182.470703"/>
      <use xlink:href="#DejaVuSans-6e" x="243.75"/>
      <use xlink:href="#DejaVuSans-63" x="307.128906"/>
      <use xlink:href="#DejaVuSans-65" x="362.109375"/>
      <use xlink:href="#DejaVuSans-73" x="423.632812"/>
     </g>
    </g>
   </g>
   <g id="matplotlib.axis_2">
    <g id="ytick_1">
     <g id="line2d_17">
      <path d="M 67.300625 261.273605 
L 581.626528 261.273605 
" clip-path="url(#pa9d5afad31)" style="fill: none; stroke-dasharray: 1,1.65; stroke-dashoffset: 0; stroke: #000000"/>
     </g>
     <g id="line2d_18">
      <defs>
       <path id="m6f3b557ea8" d="M 0 0 
L -3.5 0 
" style="stroke: #000000; stroke-width: 0.8"/>
      </defs>
      <g>
       <use xlink:href="#m6f3b557ea8" x="67.300625" y="261.273605" style="stroke: #000000; stroke-width: 0.8"/>
      </g>
     </g>
     <g id="text_10">
      <!-- $\mathdefault{10^{1}}$ -->
      <g transform="translate(28.620625 268.112199) scale(0.18 -0.18)">
       <use xlink:href="#DejaVuSans-31" transform="translate(0 0.684375)"/>
       <use xlink:href="#DejaVuSans-30" transform="translate(63.623047 0.684375)"/>
       <use xlink:href="#DejaVuSans-31" transform="translate(128.203125 38.965625) scale(0.7)"/>
      </g>
     </g>
    </g>
    <g id="ytick_2">
     <g id="line2d_19">
      <path d="M 67.300625 161.248001 
L 581.626528 161.248001 
" clip-path="url(#pa9d5afad31)" style="fill: none; stroke-dasharray: 1,1.65; stroke-dashoffset: 0; stroke: #000000"/>
     </g>
     <g id="line2d_20">
      <g>
       <use xlink:href="#m6f3b557ea8" x="67.300625" y="161.248001" style="stroke: #000000; stroke-width: 0.8"/>
      </g>
     </g>
     <g id="text_11">
      <!-- $\mathdefault{10^{2}}$ -->
      <g transform="translate(28.620625 168.086595) scale(0.18 -0.18)">
       <use xlink:href="#DejaVuSans-31" transform="translate(0 0.765625)"/>
       <use xlink:href="#DejaVuSans-30" transform="translate(63.623047 0.765625)"/>
       <use xlink:href="#DejaVuSans-32" transform="translate(128.203125 39.046875) scale(0.7)"/>
      </g>
     </g>
    </g>
    <g id="ytick_3">
     <g id="line2d_21">
      <path d="M 67.300625 61.222397 
L 581.626528 61.222397 
" clip-path="url(#pa9d5afad31)" style="fill: none; stroke-dasharray: 1,1.65; stroke-dashoffset: 0; stroke: #000000"/>
     </g>
     <g id="line2d_22">
      <g>
       <use xlink:href="#m6f3b557ea8" x="67.300625" y="61.222397" style="stroke: #000000; stroke-width: 0.8"/>
      </g>
     </g>
     <g id="text_12">
      <!-- $\mathdefault{10^{3}}$ -->
      <g transform="translate(28.620625 68.060991) scale(0.18 -0.18)">
       <use xlink:href="#DejaVuSans-31" transform="translate(0 0.765625)"/>
       <use xlink:href="#DejaVuSans-30" transform="translate(63.623047 0.765625)"/>
       <use xlink:href="#DejaVuSans-33" transform="translate(128.203125 39.046875) scale(0.7)"/>
      </g>
     </g>
    </g>
    <g id="ytick_4">
     <g id="line2d_23">
      <defs>
       <path id="me2a4fb6ce0" d="M 0 0 
L -2 0 
" style="stroke: #000000; stroke-width: 0.6"/>
      </defs>
      <g>
       <use xlink:href="#me2a4fb6ce0" x="67.300625" y="313.574868" style="stroke: #000000; stroke-width: 0.6"/>
      </g>
     </g>
    </g>
    <g id="ytick_5">
     <g id="line2d_24">
      <g>
       <use xlink:href="#me2a4fb6ce0" x="67.300625" y="301.077795" style="stroke: #000000; stroke-width: 0.6"/>
      </g>
     </g>
    </g>
    <g id="ytick_6">
     <g id="line2d_25">
      <g>
       <use xlink:href="#me2a4fb6ce0" x="67.300625" y="291.384312" style="stroke: #000000; stroke-width: 0.6"/>
      </g>
     </g>
    </g>
    <g id="ytick_7">
     <g id="line2d_26">
      <g>
       <use xlink:href="#me2a4fb6ce0" x="67.300625" y="283.46416" style="stroke: #000000; stroke-width: 0.6"/>
      </g>
     </g>
    </g>
    <g id="ytick_8">
     <g id="line2d_27">
      <g>
       <use xlink:href="#me2a4fb6ce0" x="67.300625" y="276.767767" style="stroke: #000000; stroke-width: 0.6"/>
      </g>
     </g>
    </g>
    <g id="ytick_9">
     <g id="line2d_28">
      <g>
       <use xlink:href="#me2a4fb6ce0" x="67.300625" y="270.967088" style="stroke: #000000; stroke-width: 0.6"/>
      </g>
     </g>
    </g>
    <g id="ytick_10">
     <g id="line2d_29">
      <g>
       <use xlink:href="#me2a4fb6ce0" x="67.300625" y="265.850526" style="stroke: #000000; stroke-width: 0.6"/>
      </g>
     </g>
    </g>
    <g id="ytick_11">
     <g id="line2d_30">
      <g>
       <use xlink:href="#me2a4fb6ce0" x="67.300625" y="231.162898" style="stroke: #000000; stroke-width: 0.6"/>
      </g>
     </g>
    </g>
    <g id="ytick_12">
     <g id="line2d_31">
      <g>
       <use xlink:href="#me2a4fb6ce0" x="67.300625" y="213.549263" style="stroke: #000000; stroke-width: 0.6"/>
      </g>
     </g>
    </g>
    <g id="ytick_13">
     <g id="line2d_32">
      <g>
       <use xlink:href="#me2a4fb6ce0" x="67.300625" y="201.052191" style="stroke: #000000; stroke-width: 0.6"/>
      </g>
     </g>
    </g>
    <g id="ytick_14">
     <g id="line2d_33">
      <g>
       <use xlink:href="#me2a4fb6ce0" x="67.300625" y="191.358708" style="stroke: #000000; stroke-width: 0.6"/>
      </g>
     </g>
    </g>
    <g id="ytick_15">
     <g id="line2d_34">
      <g>
       <use xlink:href="#me2a4fb6ce0" x="67.300625" y="183.438556" style="stroke: #000000; stroke-width: 0.6"/>
      </g>
     </g>
    </g>
    <g id="ytick_16">
     <g id="line2d_35">
      <g>
       <use xlink:href="#me2a4fb6ce0" x="67.300625" y="176.742163" style="stroke: #000000; stroke-width: 0.6"/>
      </g>
     </g>
    </g>
    <g id="ytick_17">
     <g id="line2d_36">
      <g>
       <use xlink:href="#me2a4fb6ce0" x="67.300625" y="170.941484" style="stroke: #000000; stroke-width: 0.6"/>
      </g>
     </g>
    </g>
    <g id="ytick_18">
     <g id="line2d_37">
      <g>
       <use xlink:href="#me2a4fb6ce0" x="67.300625" y="165.824922" style="stroke: #000000; stroke-width: 0.6"/>
      </g>
     </g>
    </g>
    <g id="ytick_19">
     <g id="line2d_38">
      <g>
       <use xlink:href="#me2a4fb6ce0" x="67.300625" y="131.137294" style="stroke: #000000; stroke-width: 0.6"/>
      </g>
     </g>
    </g>
    <g id="ytick_20">
     <g id="line2d_39">
      <g>
       <use xlink:href="#me2a4fb6ce0" x="67.300625" y="113.523659" style="stroke: #000000; stroke-width: 0.6"/>
      </g>
     </g>
    </g>
    <g id="ytick_21">
     <g id="line2d_40">
      <g>
       <use xlink:href="#me2a4fb6ce0" x="67.300625" y="101.026587" style="stroke: #000000; stroke-width: 0.6"/>
      </g>
     </g>
    </g>
    <g id="ytick_22">
     <g id="line2d_41">
      <g>
       <use xlink:href="#me2a4fb6ce0" x="67.300625" y="91.333104" style="stroke: #000000; stroke-width: 0.6"/>
      </g>
     </g>
    </g>
    <g id="ytick_23">
     <g id="line2d_42">
      <g>
       <use xlink:href="#me2a4fb6ce0" x="67.300625" y="83.412952" style="stroke: #000000; stroke-width: 0.6"/>
      </g>
     </g>
    </g>
    <g id="ytick_24">
     <g id="line2d_43">
      <g>
       <use xlink:href="#me2a4fb6ce0" x="67.300625" y="76.716559" style="stroke: #000000; stroke-width: 0.6"/>
      </g>
     </g>
    </g>
    <g id="ytick_25">
     <g id="line2d_44">
      <g>
       <use xlink:href="#me2a4fb6ce0" x="67.300625" y="70.91588" style="stroke: #000000; stroke-width: 0.6"/>
      </g>
     </g>
    </g>
    <g id="ytick_26">
     <g id="line2d_45">
      <g>
       <use xlink:href="#me2a4fb6ce0" x="67.300625" y="65.799318" style="stroke: #000000; stroke-width: 0.6"/>
      </g>
     </g>
    </g>
    <g id="ytick_27">
     <g id="line2d_46">
      <g>
       <use xlink:href="#me2a4fb6ce0" x="67.300625" y="31.11169" style="stroke: #000000; stroke-width: 0.6"/>
      </g>
     </g>
    </g>
    <g id="ytick_28">
     <g id="line2d_47">
      <g>
       <use xlink:href="#me2a4fb6ce0" x="67.300625" y="13.498055" style="stroke: #000000; stroke-width: 0.6"/>
      </g>
     </g>
    </g>
    <g id="text_13">
     <!-- Run time (s) -->
     <g transform="translate(20.877187 220.130992) rotate(-90) scale(0.18 -0.18)">
      <defs>
       <path id="DejaVuSans-52" d="M 2841 2188 
Q 3044 2119 3236 1894 
Q 3428 1669 3622 1275 
L 4263 0 
L 3584 0 
L 2988 1197 
Q 2756 1666 2539 1819 
Q 2322 1972 1947 1972 
L 1259 1972 
L 1259 0 
L 628 0 
L 628 4666 
L 2053 4666 
Q 2853 4666 3247 4331 
Q 3641 3997 3641 3322 
Q 3641 2881 3436 2590 
Q 3231 2300 2841 2188 
z
M 1259 4147 
L 1259 2491 
L 2053 2491 
Q 2509 2491 2742 2702 
Q 2975 2913 2975 3322 
Q 2975 3731 2742 3939 
Q 2509 4147 2053 4147 
L 1259 4147 
z
" transform="scale(0.015625)"/>
       <path id="DejaVuSans-75" d="M 544 1381 
L 544 3500 
L 1119 3500 
L 1119 1403 
Q 1119 906 1312 657 
Q 1506 409 1894 409 
Q 2359 409 2629 706 
Q 2900 1003 2900 1516 
L 2900 3500 
L 3475 3500 
L 3475 0 
L 2900 0 
L 2900 538 
Q 2691 219 2414 64 
Q 2138 -91 1772 -91 
Q 1169 -91 856 284 
Q 544 659 544 1381 
z
M 1991 3584 
L 1991 3584 
z
" transform="scale(0.015625)"/>
       <path id="DejaVuSans-20" transform="scale(0.015625)"/>
       <path id="DejaVuSans-6d" d="M 3328 2828 
Q 3544 3216 3844 3400 
Q 4144 3584 4550 3584 
Q 5097 3584 5394 3201 
Q 5691 2819 5691 2113 
L 5691 0 
L 5113 0 
L 5113 2094 
Q 5113 2597 4934 2840 
Q 4756 3084 4391 3084 
Q 3944 3084 3684 2787 
Q 3425 2491 3425 1978 
L 3425 0 
L 2847 0 
L 2847 2094 
Q 2847 2600 2669 2842 
Q 2491 3084 2119 3084 
Q 1678 3084 1418 2786 
Q 1159 2488 1159 1978 
L 1159 0 
L 581 0 
L 581 3500 
L 1159 3500 
L 1159 2956 
Q 1356 3278 1631 3431 
Q 1906 3584 2284 3584 
Q 2666 3584 2933 3390 
Q 3200 3197 3328 2828 
z
" transform="scale(0.015625)"/>
       <path id="DejaVuSans-28" d="M 1984 4856 
Q 1566 4138 1362 3434 
Q 1159 2731 1159 2009 
Q 1159 1288 1364 580 
Q 1569 -128 1984 -844 
L 1484 -844 
Q 1016 -109 783 600 
Q 550 1309 550 2009 
Q 550 2706 781 3412 
Q 1013 4119 1484 4856 
L 1984 4856 
z
" transform="scale(0.015625)"/>
       <path id="DejaVuSans-29" d="M 513 4856 
L 1013 4856 
Q 1481 4119 1714 3412 
Q 1947 2706 1947 2009 
Q 1947 1309 1714 600 
Q 1481 -109 1013 -844 
L 513 -844 
Q 928 -128 1133 580 
Q 1338 1288 1338 2009 
Q 1338 2731 1133 3434 
Q 928 4138 513 4856 
z
" transform="scale(0.015625)"/>
      </defs>
      <use xlink:href="#DejaVuSans-52"/>
      <use xlink:href="#DejaVuSans-75" x="64.982422"/>
      <use xlink:href="#DejaVuSans-6e" x="128.361328"/>
      <use xlink:href="#DejaVuSans-20" x="191.740234"/>
      <use xlink:href="#DejaVuSans-74" x="223.527344"/>
      <use xlink:href="#DejaVuSans-69" x="262.736328"/>
      <use xlink:href="#DejaVuSans-6d" x="290.519531"/>
      <use xlink:href="#DejaVuSans-65" x="387.931641"/>
      <use xlink:href="#DejaVuSans-20" x="449.455078"/>
      <use xlink:href="#DejaVuSans-28" x="481.242188"/>
      <use xlink:href="#DejaVuSans-73" x="520.255859"/>
      <use xlink:href="#DejaVuSans-29" x="572.355469"/>
     </g>
    </g>
   </g>
   <g id="patch_3">
    <path d="M 67.300625 323.020109 
L 67.300625 7.2 
" style="fill: none; stroke: #000000; stroke-linejoin: miter; stroke-linecap: square"/>
   </g>
   <g id="patch_4">
    <path d="M 581.626528 323.020109 
L 581.626528 7.2 
" style="fill: none; stroke: #000000; stroke-linejoin: miter; stroke-linecap: square"/>
   </g>
   <g id="patch_5">
    <path d="M 67.300625 323.020109 
L 581.626528 323.020109 
" style="fill: none; stroke: #000000; stroke-linejoin: miter; stroke-linecap: square"/>
   </g>
   <g id="patch_6">
    <path d="M 67.300625 7.2 
L 581.626528 7.2 
" style="fill: none; stroke: #000000; stroke-linejoin: miter; stroke-linecap: square"/>
   </g>
   <g id="line2d_48">
    <path d="M 81.995651 258.895983 
L 96.690677 255.199519 
L 111.385702 237.017801 
L 126.080728 232.523032 
L 140.775754 223.88861 
L 155.47078 218.911352 
L 170.165806 216.048152 
L 184.860831 210.318888 
L 199.555857 206.433523 
L 214.250883 198.49369 
L 228.945909 197.7701 
L 243.640935 197.636574 
L 258.33596 197.60251 
L 273.030986 188.509871 
L 287.726012 187.386283 
L 302.421038 181.618554 
L 317.116064 170.893448 
L 331.811089 167.477538 
L 346.506115 160.619513 
L 361.201141 159.283011 
L 375.896167 154.891989 
L 390.591193 150.578785 
L 405.286218 137.370626 
L 419.981244 128.021133 
L 434.67627 123.745175 
L 449.371296 114.598238 
L 464.066321 110.14582 
L 478.761347 58.315056 
L 493.456373 25.145281 
L 508.151399 14.665095 
" clip-path="url(#pa9d5afad31)" style="fill: none; stroke: #ff0000; stroke-opacity: 0.7; stroke-width: 2; stroke-linecap: square"/>
    <defs>
     <path id="m6b2dd4631a" d="M 0 3.535534 
L 2.12132 0 
L 0 -3.535534 
L -2.12132 0 
z
" style="stroke: #000000; stroke-opacity: 0.7; stroke-width: 0.75; stroke-linejoin: miter"/>
    </defs>
    <g clip-path="url(#pa9d5afad31)">
     <use xlink:href="#m6b2dd4631a" x="81.995651" y="258.895983" style="fill: #ffffff; fill-opacity: 0.7; stroke: #000000; stroke-opacity: 0.7; stroke-width: 0.75; stroke-linejoin: miter"/>
     <use xlink:href="#m6b2dd4631a" x="96.690677" y="255.199519" style="fill: #ffffff; fill-opacity: 0.7; stroke: #000000; stroke-opacity: 0.7; stroke-width: 0.75; stroke-linejoin: miter"/>
     <use xlink:href="#m6b2dd4631a" x="111.385702" y="237.017801" style="fill: #ffffff; fill-opacity: 0.7; stroke: #000000; stroke-opacity: 0.7; stroke-width: 0.75; stroke-linejoin: miter"/>
     <use xlink:href="#m6b2dd4631a" x="126.080728" y="232.523032" style="fill: #ffffff; fill-opacity: 0.7; stroke: #000000; stroke-opacity: 0.7; stroke-width: 0.75; stroke-linejoin: miter"/>
     <use xlink:href="#m6b2dd4631a" x="140.775754" y="223.88861" style="fill: #ffffff; fill-opacity: 0.7; stroke: #000000; stroke-opacity: 0.7; stroke-width: 0.75; stroke-linejoin: miter"/>
     <use xlink:href="#m6b2dd4631a" x="155.47078" y="218.911352" style="fill: #ffffff; fill-opacity: 0.7; stroke: #000000; stroke-opacity: 0.7; stroke-width: 0.75; stroke-linejoin: miter"/>
     <use xlink:href="#m6b2dd4631a" x="170.165806" y="216.048152" style="fill: #ffffff; fill-opacity: 0.7; stroke: #000000; stroke-opacity: 0.7; stroke-width: 0.75; stroke-linejoin: miter"/>
     <use xlink:href="#m6b2dd4631a" x="184.860831" y="210.318888" style="fill: #ffffff; fill-opacity: 0.7; stroke: #000000; stroke-opacity: 0.7; stroke-width: 0.75; stroke-linejoin: miter"/>
     <use xlink:href="#m6b2dd4631a" x="199.555857" y="206.433523" style="fill: #ffffff; fill-opacity: 0.7; stroke: #000000; stroke-opacity: 0.7; stroke-width: 0.75; stroke-linejoin: miter"/>
     <use xlink:href="#m6b2dd4631a" x="214.250883" y="198.49369" style="fill: #ffffff; fill-opacity: 0.7; stroke: #000000; stroke-opacity: 0.7; stroke-width: 0.75; stroke-linejoin: miter"/>
     <use xlink:href="#m6b2dd4631a" x="228.945909" y="197.7701" style="fill: #ffffff; fill-opacity: 0.7; stroke: #000000; stroke-opacity: 0.7; stroke-width: 0.75; stroke-linejoin: miter"/>
     <use xlink:href="#m6b2dd4631a" x="243.640935" y="197.636574" style="fill: #ffffff; fill-opacity: 0.7; stroke: #000000; stroke-opacity: 0.7; stroke-width: 0.75; stroke-linejoin: miter"/>
     <use xlink:href="#m6b2dd4631a" x="258.33596" y="197.60251" style="fill: #ffffff; fill-opacity: 0.7; stroke: #000000; stroke-opacity: 0.7; stroke-width: 0.75; stroke-linejoin: miter"/>
     <use xlink:href="#m6b2dd4631a" x="273.030986" y="188.509871" style="fill: #ffffff; fill-opacity: 0.7; stroke: #000000; stroke-opacity: 0.7; stroke-width: 0.75; stroke-linejoin: miter"/>
     <use xlink:href="#m6b2dd4631a" x="287.726012" y="187.386283" style="fill: #ffffff; fill-opacity: 0.7; stroke: #000000; stroke-opacity: 0.7; stroke-width: 0.75; stroke-linejoin: miter"/>
     <use xlink:href="#m6b2dd4631a" x="302.421038" y="181.618554" style="fill: #ffffff; fill-opacity: 0.7; stroke: #000000; stroke-opacity: 0.7; stroke-width: 0.75; stroke-linejoin: miter"/>
     <use xlink:href="#m6b2dd4631a" x="317.116064" y="170.893448" style="fill: #ffffff; fill-opacity: 0.7; stroke: #000000; stroke-opacity: 0.7; stroke-width: 0.75; stroke-linejoin: miter"/>
     <use xlink:href="#m6b2dd4631a" x="331.811089" y="167.477538" style="fill: #ffffff; fill-opacity: 0.7; stroke: #000000; stroke-opacity: 0.7; stroke-width: 0.75; stroke-linejoin: miter"/>
     <use xlink:href="#m6b2dd4631a" x="346.506115" y="160.619513" style="fill: #ffffff; fill-opacity: 0.7; stroke: #000000; stroke-opacity: 0.7; stroke-width: 0.75; stroke-linejoin: miter"/>
     <use xlink:href="#m6b2dd4631a" x="361.201141" y="159.283011" style="fill: #ffffff; fill-opacity: 0.7; stroke: #000000; stroke-opacity: 0.7; stroke-width: 0.75; stroke-linejoin: miter"/>
     <use xlink:href="#m6b2dd4631a" x="375.896167" y="154.891989" style="fill: #ffffff; fill-opacity: 0.7; stroke: #000000; stroke-opacity: 0.7; stroke-width: 0.75; stroke-linejoin: miter"/>
     <use xlink:href="#m6b2dd4631a" x="390.591193" y="150.578785" style="fill: #ffffff; fill-opacity: 0.7; stroke: #000000; stroke-opacity: 0.7; stroke-width: 0.75; stroke-linejoin: miter"/>
     <use xlink:href="#m6b2dd4631a" x="405.286218" y="137.370626" style="fill: #ffffff; fill-opacity: 0.7; stroke: #000000; stroke-opacity: 0.7; stroke-width: 0.75; stroke-linejoin: miter"/>
     <use xlink:href="#m6b2dd4631a" x="419.981244" y="128.021133" style="fill: #ffffff; fill-opacity: 0.7; stroke: #000000; stroke-opacity: 0.7; stroke-width: 0.75; stroke-linejoin: miter"/>
     <use xlink:href="#m6b2dd4631a" x="434.67627" y="123.745175" style="fill: #ffffff; fill-opacity: 0.7; stroke: #000000; stroke-opacity: 0.7; stroke-width: 0.75; stroke-linejoin: miter"/>
     <use xlink:href="#m6b2dd4631a" x="449.371296" y="114.598238" style="fill: #ffffff; fill-opacity: 0.7; stroke: #000000; stroke-opacity: 0.7; stroke-width: 0.75; stroke-linejoin: miter"/>
     <use xlink:href="#m6b2dd4631a" x="464.066321" y="110.14582" style="fill: #ffffff; fill-opacity: 0.7; stroke: #000000; stroke-opacity: 0.7; stroke-width: 0.75; stroke-linejoin: miter"/>
     <use xlink:href="#m6b2dd4631a" x="478.761347" y="58.315056" style="fill: #ffffff; fill-opacity: 0.7; stroke: #000000; stroke-opacity: 0.7; stroke-width: 0.75; stroke-linejoin: miter"/>
     <use xlink:href="#m6b2dd4631a" x="493.456373" y="25.145281" style="fill: #ffffff; fill-opacity: 0.7; stroke: #000000; stroke-opacity: 0.7; stroke-width: 0.75; stroke-linejoin: miter"/>
     <use xlink:href="#m6b2dd4631a" x="508.151399" y="14.665095" style="fill: #ffffff; fill-opacity: 0.7; stroke: #000000; stroke-opacity: 0.7; stroke-width: 0.75; stroke-linejoin: miter"/>
    </g>
   </g>
   <g id="line2d_49">
    <path d="M 81.995651 271.634363 
L 96.690677 260.05724 
L 111.385702 231.229031 
L 126.080728 215.965707 
L 140.775754 212.976598 
L 155.47078 210.224863 
L 170.165806 207.731812 
L 184.860831 200.229706 
L 199.555857 197.121335 
L 214.250883 193.171229 
L 228.945909 191.670474 
L 243.640935 189.867296 
L 258.33596 189.544106 
L 273.030986 185.309552 
L 287.726012 183.139984 
L 302.421038 181.467369 
L 317.116064 181.313319 
L 331.811089 178.318373 
L 346.506115 177.530212 
L 361.201141 173.420347 
L 375.896167 172.397685 
L 390.591193 164.409385 
L 405.286218 164.256674 
L 419.981244 117.127037 
L 434.67627 110.430563 
L 449.371296 101.78389 
L 464.066321 99.724529 
L 478.761347 86.943486 
L 493.456373 86.408866 
L 508.151399 69.2322 
L 522.846425 52.32134 
L 537.54145 7.830855 
" clip-path="url(#pa9d5afad31)" style="fill: none; stroke: #000000; stroke-opacity: 0.7; stroke-width: 2; stroke-linecap: square"/>
    <g clip-path="url(#pa9d5afad31)">
     <use xlink:href="#m6b2dd4631a" x="81.995651" y="271.634363" style="fill: #ffffff; fill-opacity: 0.7; stroke: #000000; stroke-opacity: 0.7; stroke-width: 0.75; stroke-linejoin: miter"/>
     <use xlink:href="#m6b2dd4631a" x="96.690677" y="260.05724" style="fill: #ffffff; fill-opacity: 0.7; stroke: #000000; stroke-opacity: 0.7; stroke-width: 0.75; stroke-linejoin: miter"/>
     <use xlink:href="#m6b2dd4631a" x="111.385702" y="231.229031" style="fill: #ffffff; fill-opacity: 0.7; stroke: #000000; stroke-opacity: 0.7; stroke-width: 0.75; stroke-linejoin: miter"/>
     <use xlink:href="#m6b2dd4631a" x="126.080728" y="215.965707" style="fill: #ffffff; fill-opacity: 0.7; stroke: #000000; stroke-opacity: 0.7; stroke-width: 0.75; stroke-linejoin: miter"/>
     <use xlink:href="#m6b2dd4631a" x="140.775754" y="212.976598" style="fill: #ffffff; fill-opacity: 0.7; stroke: #000000; stroke-opacity: 0.7; stroke-width: 0.75; stroke-linejoin: miter"/>
     <use xlink:href="#m6b2dd4631a" x="155.47078" y="210.224863" style="fill: #ffffff; fill-opacity: 0.7; stroke: #000000; stroke-opacity: 0.7; stroke-width: 0.75; stroke-linejoin: miter"/>
     <use xlink:href="#m6b2dd4631a" x="170.165806" y="207.731812" style="fill: #ffffff; fill-opacity: 0.7; stroke: #000000; stroke-opacity: 0.7; stroke-width: 0.75; stroke-linejoin: miter"/>
     <use xlink:href="#m6b2dd4631a" x="184.860831" y="200.229706" style="fill: #ffffff; fill-opacity: 0.7; stroke: #000000; stroke-opacity: 0.7; stroke-width: 0.75; stroke-linejoin: miter"/>
     <use xlink:href="#m6b2dd4631a" x="199.555857" y="197.121335" style="fill: #ffffff; fill-opacity: 0.7; stroke: #000000; stroke-opacity: 0.7; stroke-width: 0.75; stroke-linejoin: miter"/>
     <use xlink:href="#m6b2dd4631a" x="214.250883" y="193.171229" style="fill: #ffffff; fill-opacity: 0.7; stroke: #000000; stroke-opacity: 0.7; stroke-width: 0.75; stroke-linejoin: miter"/>
     <use xlink:href="#m6b2dd4631a" x="228.945909" y="191.670474" style="fill: #ffffff; fill-opacity: 0.7; stroke: #000000; stroke-opacity: 0.7; stroke-width: 0.75; stroke-linejoin: miter"/>
     <use xlink:href="#m6b2dd4631a" x="243.640935" y="189.867296" style="fill: #ffffff; fill-opacity: 0.7; stroke: #000000; stroke-opacity: 0.7; stroke-width: 0.75; stroke-linejoin: miter"/>
     <use xlink:href="#m6b2dd4631a" x="258.33596" y="189.544106" style="fill: #ffffff; fill-opacity: 0.7; stroke: #000000; stroke-opacity: 0.7; stroke-width: 0.75; stroke-linejoin: miter"/>
     <use xlink:href="#m6b2dd4631a" x="273.030986" y="185.309552" style="fill: #ffffff; fill-opacity: 0.7; stroke: #000000; stroke-opacity: 0.7; stroke-width: 0.75; stroke-linejoin: miter"/>
     <use xlink:href="#m6b2dd4631a" x="287.726012" y="183.139984" style="fill: #ffffff; fill-opacity: 0.7; stroke: #000000; stroke-opacity: 0.7; stroke-width: 0.75; stroke-linejoin: miter"/>
     <use xlink:href="#m6b2dd4631a" x="302.421038" y="181.467369" style="fill: #ffffff; fill-opacity: 0.7; stroke: #000000; stroke-opacity: 0.7; stroke-width: 0.75; stroke-linejoin: miter"/>
     <use xlink:href="#m6b2dd4631a" x="317.116064" y="181.313319" style="fill: #ffffff; fill-opacity: 0.7; stroke: #000000; stroke-opacity: 0.7; stroke-width: 0.75; stroke-linejoin: miter"/>
     <use xlink:href="#m6b2dd4631a" x="331.811089" y="178.318373" style="fill: #ffffff; fill-opacity: 0.7; stroke: #000000; stroke-opacity: 0.7; stroke-width: 0.75; stroke-linejoin: miter"/>
     <use xlink:href="#m6b2dd4631a" x="346.506115" y="177.530212" style="fill: #ffffff; fill-opacity: 0.7; stroke: #000000; stroke-opacity: 0.7; stroke-width: 0.75; stroke-linejoin: miter"/>
     <use xlink:href="#m6b2dd4631a" x="361.201141" y="173.420347" style="fill: #ffffff; fill-opacity: 0.7; stroke: #000000; stroke-opacity: 0.7; stroke-width: 0.75; stroke-linejoin: miter"/>
     <use xlink:href="#m6b2dd4631a" x="375.896167" y="172.397685" style="fill: #ffffff; fill-opacity: 0.7; stroke: #000000; stroke-opacity: 0.7; stroke-width: 0.75; stroke-linejoin: miter"/>
     <use xlink:href="#m6b2dd4631a" x="390.591193" y="164.409385" style="fill: #ffffff; fill-opacity: 0.7; stroke: #000000; stroke-opacity: 0.7; stroke-width: 0.75; stroke-linejoin: miter"/>
     <use xlink:href="#m6b2dd4631a" x="405.286218" y="164.256674" style="fill: #ffffff; fill-opacity: 0.7; stroke: #000000; stroke-opacity: 0.7; stroke-width: 0.75; stroke-linejoin: miter"/>
     <use xlink:href="#m6b2dd4631a" x="419.981244" y="117.127037" style="fill: #ffffff; fill-opacity: 0.7; stroke: #000000; stroke-opacity: 0.7; stroke-width: 0.75; stroke-linejoin: miter"/>
     <use xlink:href="#m6b2dd4631a" x="434.67627" y="110.430563" style="fill: #ffffff; fill-opacity: 0.7; stroke: #000000; stroke-opacity: 0.7; stroke-width: 0.75; stroke-linejoin: miter"/>
     <use xlink:href="#m6b2dd4631a" x="449.371296" y="101.78389" style="fill: #ffffff; fill-opacity: 0.7; stroke: #000000; stroke-opacity: 0.7; stroke-width: 0.75; stroke-linejoin: miter"/>
     <use xlink:href="#m6b2dd4631a" x="464.066321" y="99.724529" style="fill: #ffffff; fill-opacity: 0.7; stroke: #000000; stroke-opacity: 0.7; stroke-width: 0.75; stroke-linejoin: miter"/>
     <use xlink:href="#m6b2dd4631a" x="478.761347" y="86.943486" style="fill: #ffffff; fill-opacity: 0.7; stroke: #000000; stroke-opacity: 0.7; stroke-width: 0.75; stroke-linejoin: miter"/>
     <use xlink:href="#m6b2dd4631a" x="493.456373" y="86.408866" style="fill: #ffffff; fill-opacity: 0.7; stroke: #000000; stroke-opacity: 0.7; stroke-width: 0.75; stroke-linejoin: miter"/>
     <use xlink:href="#m6b2dd4631a" x="508.151399" y="69.2322" style="fill: #ffffff; fill-opacity: 0.7; stroke: #000000; stroke-opacity: 0.7; stroke-width: 0.75; stroke-linejoin: miter"/>
     <use xlink:href="#m6b2dd4631a" x="522.846425" y="52.32134" style="fill: #ffffff; fill-opacity: 0.7; stroke: #000000; stroke-opacity: 0.7; stroke-width: 0.75; stroke-linejoin: miter"/>
     <use xlink:href="#m6b2dd4631a" x="537.54145" y="7.830855" style="fill: #ffffff; fill-opacity: 0.7; stroke: #000000; stroke-opacity: 0.7; stroke-width: 0.75; stroke-linejoin: miter"/>
    </g>
   </g>
   <g id="line2d_50">
    <path d="M 81.995651 323.020109 
L 96.690677 276.451906 
L 111.385702 271.094603 
L 126.080728 259.542409 
L 140.775754 244.12387 
L 155.47078 229.729496 
L 170.165806 187.710166 
L 184.860831 185.620483 
L 199.555857 182.248555 
L 214.250883 181.682968 
L 228.945909 165.256588 
L 243.640935 163.516287 
L 258.33596 159.055829 
L 273.030986 156.074485 
L 287.726012 152.788324 
L 302.421038 151.148756 
L 317.116064 144.075685 
L 331.811089 140.775718 
L 346.506115 140.024692 
L 361.201141 128.580831 
L 375.896167 127.688986 
L 390.591193 127.602575 
L 405.286218 124.487001 
L 419.981244 93.21574 
L 434.67627 89.348202 
L 449.371296 88.912906 
L 464.066321 86.210997 
L 478.761347 84.762138 
L 493.456373 70.092555 
L 508.151399 60.231913 
L 522.846425 46.011191 
L 537.54145 25.430403 
L 552.236476 17.904197 
" clip-path="url(#pa9d5afad31)" style="fill: none; stroke-dasharray: 7.4,3.2; stroke-dashoffset: 0; stroke: #008000; stroke-opacity: 0.7; stroke-width: 2"/>
   </g>
   <g id="legend_1">
    <g id="patch_7">
     <path d="M 325.596528 316.020109 
L 571.026528 316.020109 
Q 574.626528 316.020109 574.626528 312.420109 
L 574.626528 234.958234 
Q 574.626528 231.358234 571.026528 231.358234 
L 325.596528 231.358234 
Q 321.996528 231.358234 321.996528 234.958234 
L 321.996528 312.420109 
Q 321.996528 316.020109 325.596528 316.020109 
z
" style="fill: #4d4d4d; opacity: 0.5; stroke: #4d4d4d; stroke-linejoin: miter"/>
    </g>
    <g id="patch_8">
     <path d="M 323.596528 314.020109 
L 569.026528 314.020109 
Q 572.626528 314.020109 572.626528 310.420109 
L 572.626528 232.958234 
Q 572.626528 229.358234 569.026528 229.358234 
L 323.596528 229.358234 
Q 319.996528 229.358234 319.996528 232.958234 
L 319.996528 310.420109 
Q 319.996528 314.020109 323.596528 314.020109 
z
" style="fill: #ffffff; stroke: #000000; stroke-linejoin: miter"/>
    </g>
    <g id="line2d_51">
     <path d="M 327.196528 243.935422 
L 345.196528 243.935422 
L 363.196528 243.935422 
" style="fill: none; stroke: #ff0000; stroke-opacity: 0.7; stroke-width: 2; stroke-linecap: square"/>
     <g>
      <use xlink:href="#m6b2dd4631a" x="345.196528" y="243.935422" style="fill: #ffffff; fill-opacity: 0.7; stroke: #000000; stroke-opacity: 0.7; stroke-width: 0.75; stroke-linejoin: miter"/>
     </g>
    </g>
    <g id="text_14">
     <!-- default-heuristic-bad -->
     <g transform="translate(377.596528 250.235422) scale(0.18 -0.18)">
      <defs>
       <path id="DejaVuSans-64" d="M 2906 2969 
L 2906 4863 
L 3481 4863 
L 3481 0 
L 2906 0 
L 2906 525 
Q 2725 213 2448 61 
Q 2172 -91 1784 -91 
Q 1150 -91 751 415 
Q 353 922 353 1747 
Q 353 2572 751 3078 
Q 1150 3584 1784 3584 
Q 2172 3584 2448 3432 
Q 2725 3281 2906 2969 
z
M 947 1747 
Q 947 1113 1208 752 
Q 1469 391 1925 391 
Q 2381 391 2643 752 
Q 2906 1113 2906 1747 
Q 2906 2381 2643 2742 
Q 2381 3103 1925 3103 
Q 1469 3103 1208 2742 
Q 947 2381 947 1747 
z
" transform="scale(0.015625)"/>
       <path id="DejaVuSans-66" d="M 2375 4863 
L 2375 4384 
L 1825 4384 
Q 1516 4384 1395 4259 
Q 1275 4134 1275 3809 
L 1275 3500 
L 2222 3500 
L 2222 3053 
L 1275 3053 
L 1275 0 
L 697 0 
L 697 3053 
L 147 3053 
L 147 3500 
L 697 3500 
L 697 3744 
Q 697 4328 969 4595 
Q 1241 4863 1831 4863 
L 2375 4863 
z
" transform="scale(0.015625)"/>
       <path id="DejaVuSans-6c" d="M 603 4863 
L 1178 4863 
L 1178 0 
L 603 0 
L 603 4863 
z
" transform="scale(0.015625)"/>
       <path id="DejaVuSans-2d" d="M 313 2009 
L 1997 2009 
L 1997 1497 
L 313 1497 
L 313 2009 
z
" transform="scale(0.015625)"/>
       <path id="DejaVuSans-68" d="M 3513 2113 
L 3513 0 
L 2938 0 
L 2938 2094 
Q 2938 2591 2744 2837 
Q 2550 3084 2163 3084 
Q 1697 3084 1428 2787 
Q 1159 2491 1159 1978 
L 1159 0 
L 581 0 
L 581 4863 
L 1159 4863 
L 1159 2956 
Q 1366 3272 1645 3428 
Q 1925 3584 2291 3584 
Q 2894 3584 3203 3211 
Q 3513 2838 3513 2113 
z
" transform="scale(0.015625)"/>
       <path id="DejaVuSans-72" d="M 2631 2963 
Q 2534 3019 2420 3045 
Q 2306 3072 2169 3072 
Q 1681 3072 1420 2755 
Q 1159 2438 1159 1844 
L 1159 0 
L 581 0 
L 581 3500 
L 1159 3500 
L 1159 2956 
Q 1341 3275 1631 3429 
Q 1922 3584 2338 3584 
Q 2397 3584 2469 3576 
Q 2541 3569 2628 3553 
L 2631 2963 
z
" transform="scale(0.015625)"/>
       <path id="DejaVuSans-62" d="M 3116 1747 
Q 3116 2381 2855 2742 
Q 2594 3103 2138 3103 
Q 1681 3103 1420 2742 
Q 1159 2381 1159 1747 
Q 1159 1113 1420 752 
Q 1681 391 2138 391 
Q 2594 391 2855 752 
Q 3116 1113 3116 1747 
z
M 1159 2969 
Q 1341 3281 1617 3432 
Q 1894 3584 2278 3584 
Q 2916 3584 3314 3078 
Q 3713 2572 3713 1747 
Q 3713 922 3314 415 
Q 2916 -91 2278 -91 
Q 1894 -91 1617 61 
Q 1341 213 1159 525 
L 1159 0 
L 581 0 
L 581 4863 
L 1159 4863 
L 1159 2969 
z
" transform="scale(0.015625)"/>
      </defs>
      <use xlink:href="#DejaVuSans-64"/>
      <use xlink:href="#DejaVuSans-65" x="63.476562"/>
      <use xlink:href="#DejaVuSans-66" x="125"/>
      <use xlink:href="#DejaVuSans-61" x="160.205078"/>
      <use xlink:href="#DejaVuSans-75" x="221.484375"/>
      <use xlink:href="#DejaVuSans-6c" x="284.863281"/>
      <use xlink:href="#DejaVuSans-74" x="312.646484"/>
      <use xlink:href="#DejaVuSans-2d" x="351.855469"/>
      <use xlink:href="#DejaVuSans-68" x="387.939453"/>
      <use xlink:href="#DejaVuSans-65" x="451.318359"/>
      <use xlink:href="#DejaVuSans-75" x="512.841797"/>
      <use xlink:href="#DejaVuSans-72" x="576.220703"/>
      <use xlink:href="#DejaVuSans-69" x="617.333984"/>
      <use xlink:href="#DejaVuSans-73" x="645.117188"/>
      <use xlink:href="#DejaVuSans-74" x="697.216797"/>
      <use xlink:href="#DejaVuSans-69" x="736.425781"/>
      <use xlink:href="#DejaVuSans-63" x="764.208984"/>
      <use xlink:href="#DejaVuSans-2d" x="819.189453"/>
      <use xlink:href="#DejaVuSans-62" x="855.273438"/>
      <use xlink:href="#DejaVuSans-61" x="918.75"/>
      <use xlink:href="#DejaVuSans-64" x="980.029297"/>
     </g>
    </g>
    <g id="line2d_52">
     <path d="M 327.196528 270.356047 
L 345.196528 270.356047 
L 363.196528 270.356047 
" style="fill: none; stroke: #000000; stroke-opacity: 0.7; stroke-width: 2; stroke-linecap: square"/>
     <g>
      <use xlink:href="#m6b2dd4631a" x="345.196528" y="270.356047" style="fill: #ffffff; fill-opacity: 0.7; stroke: #000000; stroke-opacity: 0.7; stroke-width: 0.75; stroke-linejoin: miter"/>
     </g>
    </g>
    <g id="text_15">
     <!-- default-heuristic -->
     <g transform="translate(377.596528 276.656047) scale(0.18 -0.18)">
      <use xlink:href="#DejaVuSans-64"/>
      <use xlink:href="#DejaVuSans-65" x="63.476562"/>
      <use xlink:href="#DejaVuSans-66" x="125"/>
      <use xlink:href="#DejaVuSans-61" x="160.205078"/>
      <use xlink:href="#DejaVuSans-75" x="221.484375"/>
      <use xlink:href="#DejaVuSans-6c" x="284.863281"/>
      <use xlink:href="#DejaVuSans-74" x="312.646484"/>
      <use xlink:href="#DejaVuSans-2d" x="351.855469"/>
      <use xlink:href="#DejaVuSans-68" x="387.939453"/>
      <use xlink:href="#DejaVuSans-65" x="451.318359"/>
      <use xlink:href="#DejaVuSans-75" x="512.841797"/>
      <use xlink:href="#DejaVuSans-72" x="576.220703"/>
      <use xlink:href="#DejaVuSans-69" x="617.333984"/>
      <use xlink:href="#DejaVuSans-73" x="645.117188"/>
      <use xlink:href="#DejaVuSans-74" x="697.216797"/>
      <use xlink:href="#DejaVuSans-69" x="736.425781"/>
      <use xlink:href="#DejaVuSans-63" x="764.208984"/>
     </g>
    </g>
    <g id="line2d_53">
     <path d="M 327.196528 296.776672 
L 345.196528 296.776672 
L 363.196528 296.776672 
" style="fill: none; stroke-dasharray: 7.4,3.2; stroke-dashoffset: 0; stroke: #008000; stroke-opacity: 0.7; stroke-width: 2"/>
    </g>
    <g id="text_16">
     <!-- baseline -->
     <g transform="translate(377.596528 303.076672) scale(0.18 -0.18)">
      <use xlink:href="#DejaVuSans-62"/>
      <use xlink:href="#DejaVuSans-61" x="63.476562"/>
      <use xlink:href="#DejaVuSans-73" x="124.755859"/>
      <use xlink:href="#DejaVuSans-65" x="176.855469"/>
      <use xlink:href="#DejaVuSans-6c" x="238.378906"/>
      <use xlink:href="#DejaVuSans-69" x="266.162109"/>
      <use xlink:href="#DejaVuSans-6e" x="293.945312"/>
      <use xlink:href="#DejaVuSans-65" x="357.324219"/>
     </g>
    </g>
   </g>
  </g>
 </g>
 <defs>
  <clipPath id="pa9d5afad31">
   <rect x="67.300625" y="7.2" width="514.325903" height="315.820109"/>
  </clipPath>
 </defs>
</svg>
