<?xml version="1.0" encoding="utf-8" standalone="no"?>
<!DOCTYPE svg PUBLIC "-//W3C//DTD SVG 1.1//EN"
  "http://www.w3.org/Graphics/SVG/1.1/DTD/svg11.dtd">
<svg xmlns:xlink="http://www.w3.org/1999/xlink" width="597.027778pt" height="373.743859pt" viewBox="0 0 597.027778 373.743859" xmlns="http://www.w3.org/2000/svg" version="1.1">
 <metadata>
  <rdf:RDF xmlns:dc="http://purl.org/dc/elements/1.1/" xmlns:cc="http://creativecommons.org/ns#" xmlns:rdf="http://www.w3.org/1999/02/22-rdf-syntax-ns#">
   <cc:Work>
    <dc:type rdf:resource="http://purl.org/dc/dcmitype/StillImage"/>
    <dc:date>2023-12-05T09:22:17.774345</dc:date>
    <dc:format>image/svg+xml</dc:format>
    <dc:creator>
     <cc:Agent>
      <dc:title>Matplotlib v3.7.0, https://matplotlib.org/</dc:title>
     </cc:Agent>
    </dc:creator>
   </cc:Work>
  </rdf:RDF>
 </metadata>
 <defs>
  <style type="text/css">*{stroke-linejoin: round; stroke-linecap: butt}</style>
 </defs>
 <g id="figure_1">
  <g id="patch_1">
   <path d="M 0 373.743859 
L 597.027778 373.743859 
L 597.027778 0 
L 0 0 
z
" style="fill: #ffffff"/>
  </g>
  <g id="axes_1">
   <g id="patch_2">
    <path d="M 66.501875 323.020109 
L 580.827778 323.020109 
L 580.827778 7.2 
L 66.501875 7.2 
z
" style="fill: #ffffff"/>
   </g>
   <g id="matplotlib.axis_1">
    <g id="xtick_1">
     <g id="line2d_1">
      <path d="M 66.501875 323.020109 
L 66.501875 7.2 
" clip-path="url(#p2eedf278f7)" style="fill: none; stroke-dasharray: 1,1.65; stroke-dashoffset: 0; stroke: #000000"/>
     </g>
     <g id="line2d_2">
      <defs>
       <path id="m19d9fe6ea0" d="M 0 0 
L 0 3.5 
" style="stroke: #000000; stroke-width: 0.8"/>
      </defs>
      <g>
       <use xlink:href="#m19d9fe6ea0" x="66.501875" y="323.020109" style="stroke: #000000; stroke-width: 0.8"/>
      </g>
     </g>
     <g id="text_1">
      <!-- 0 -->
      <g transform="translate(62.001875 342.361359) scale(0.18 -0.18)">
       <defs>
        <path id="Times-Roman-30" d="M 1531 116 
Q 1991 116 2162 619 
Q 2334 1122 2334 2075 
Q 2334 2834 2231 3288 
Q 2038 4131 1506 4131 
Q 975 4131 778 3263 
Q 675 2800 675 2044 
Q 675 1334 781 909 
Q 981 116 1531 116 
z
M 1522 4300 
Q 2241 4300 2638 3547 
Q 2953 2938 2953 2147 
Q 2953 1525 2759 975 
Q 2394 -59 1494 -59 
Q 878 -59 481 500 
Q 56 1097 56 2122 
Q 56 2928 341 3509 
Q 725 4300 1522 4300 
z
" transform="scale(0.015625)"/>
       </defs>
       <use xlink:href="#Times-Roman-30"/>
      </g>
     </g>
    </g>
    <g id="xtick_2">
     <g id="line2d_3">
      <path d="M 139.977004 323.020109 
L 139.977004 7.2 
" clip-path="url(#p2eedf278f7)" style="fill: none; stroke-dasharray: 1,1.65; stroke-dashoffset: 0; stroke: #000000"/>
     </g>
     <g id="line2d_4">
      <g>
       <use xlink:href="#m19d9fe6ea0" x="139.977004" y="323.020109" style="stroke: #000000; stroke-width: 0.8"/>
      </g>
     </g>
     <g id="text_2">
      <!-- 10 -->
      <g transform="translate(130.977004 342.361359) scale(0.18 -0.18)">
       <defs>
        <path id="Times-Roman-31" d="M 1894 4294 
Q 1906 4278 1907 4270 
Q 1909 4263 1909 4234 
L 1909 472 
Q 1909 231 2037 165 
Q 2166 100 2516 88 
L 2516 0 
L 753 0 
L 753 94 
Q 1131 113 1247 197 
Q 1363 281 1363 563 
L 1363 3456 
Q 1363 3606 1325 3684 
Q 1288 3763 1163 3763 
Q 1081 3763 951 3717 
Q 822 3672 709 3622 
L 709 3709 
L 1856 4294 
L 1894 4294 
z
" transform="scale(0.015625)"/>
       </defs>
       <use xlink:href="#Times-Roman-31"/>
       <use xlink:href="#Times-Roman-30" x="50"/>
      </g>
     </g>
    </g>
    <g id="xtick_3">
     <g id="line2d_5">
      <path d="M 213.452133 323.020109 
L 213.452133 7.2 
" clip-path="url(#p2eedf278f7)" style="fill: none; stroke-dasharray: 1,1.65; stroke-dashoffset: 0; stroke: #000000"/>
     </g>
     <g id="line2d_6">
      <g>
       <use xlink:href="#m19d9fe6ea0" x="213.452133" y="323.020109" style="stroke: #000000; stroke-width: 0.8"/>
      </g>
     </g>
     <g id="text_3">
      <!-- 20 -->
      <g transform="translate(204.452133 342.361359) scale(0.18 -0.18)">
       <defs>
        <path id="Times-Roman-32" d="M 191 72 
Q 1334 1259 1743 1815 
Q 2153 2372 2153 2900 
Q 2153 3363 1903 3605 
Q 1653 3847 1306 3847 
Q 878 3847 613 3534 
Q 466 3363 331 3006 
L 197 3034 
Q 353 3753 726 4033 
Q 1100 4313 1528 4313 
Q 2056 4313 2382 3980 
Q 2709 3647 2709 3166 
Q 2709 2653 2356 2178 
Q 2003 1703 822 488 
L 2256 488 
Q 2556 488 2678 559 
Q 2800 631 2953 909 
L 3034 872 
L 2688 0 
L 191 0 
L 191 72 
z
" transform="scale(0.015625)"/>
       </defs>
       <use xlink:href="#Times-Roman-32"/>
       <use xlink:href="#Times-Roman-30" x="50"/>
      </g>
     </g>
    </g>
    <g id="xtick_4">
     <g id="line2d_7">
      <path d="M 286.927262 323.020109 
L 286.927262 7.2 
" clip-path="url(#p2eedf278f7)" style="fill: none; stroke-dasharray: 1,1.65; stroke-dashoffset: 0; stroke: #000000"/>
     </g>
     <g id="line2d_8">
      <g>
       <use xlink:href="#m19d9fe6ea0" x="286.927262" y="323.020109" style="stroke: #000000; stroke-width: 0.8"/>
      </g>
     </g>
     <g id="text_4">
      <!-- 30 -->
      <g transform="translate(277.927262 342.361359) scale(0.18 -0.18)">
       <defs>
        <path id="Times-Roman-33" d="M 497 544 
Q 669 544 951 366 
Q 1234 188 1431 188 
Q 1869 188 2081 483 
Q 2294 778 2294 1125 
Q 2294 1459 2122 1713 
Q 1831 2141 1141 2141 
Q 1100 2141 1062 2139 
Q 1025 2138 975 2131 
L 969 2213 
Q 1469 2394 1756 2628 
Q 2044 2863 2044 3247 
Q 2044 3588 1817 3766 
Q 1591 3944 1300 3944 
Q 956 3944 694 3691 
Q 550 3553 384 3266 
L 288 3288 
Q 413 3763 753 4047 
Q 1094 4331 1541 4331 
Q 2019 4331 2280 4068 
Q 2541 3806 2541 3463 
Q 2541 3159 2325 2906 
Q 2203 2763 1947 2584 
Q 2247 2456 2428 2284 
Q 2769 1956 2769 1453 
Q 2769 859 2301 406 
Q 1834 -47 972 -47 
Q 588 -47 433 67 
Q 278 181 278 313 
Q 278 394 329 469 
Q 381 544 497 544 
z
" transform="scale(0.015625)"/>
       </defs>
       <use xlink:href="#Times-Roman-33"/>
       <use xlink:href="#Times-Roman-30" x="50"/>
      </g>
     </g>
    </g>
    <g id="xtick_5">
     <g id="line2d_9">
      <path d="M 360.402391 323.020109 
L 360.402391 7.2 
" clip-path="url(#p2eedf278f7)" style="fill: none; stroke-dasharray: 1,1.65; stroke-dashoffset: 0; stroke: #000000"/>
     </g>
     <g id="line2d_10">
      <g>
       <use xlink:href="#m19d9fe6ea0" x="360.402391" y="323.020109" style="stroke: #000000; stroke-width: 0.8"/>
      </g>
     </g>
     <g id="text_5">
      <!-- 40 -->
      <g transform="translate(351.402391 342.361359) scale(0.18 -0.18)">
       <defs>
        <path id="Times-Roman-34" d="M 1866 3650 
L 331 1481 
L 1866 1481 
L 1866 3650 
z
M 2072 4294 
L 2369 4294 
L 2369 1481 
L 3022 1481 
L 3022 1066 
L 2369 1066 
L 2369 0 
L 1872 0 
L 1872 1066 
L 72 1066 
L 72 1481 
L 2072 4294 
z
" transform="scale(0.015625)"/>
       </defs>
       <use xlink:href="#Times-Roman-34"/>
       <use xlink:href="#Times-Roman-30" x="50"/>
      </g>
     </g>
    </g>
    <g id="xtick_6">
     <g id="line2d_11">
      <path d="M 433.87752 323.020109 
L 433.87752 7.2 
" clip-path="url(#p2eedf278f7)" style="fill: none; stroke-dasharray: 1,1.65; stroke-dashoffset: 0; stroke: #000000"/>
     </g>
     <g id="line2d_12">
      <g>
       <use xlink:href="#m19d9fe6ea0" x="433.87752" y="323.020109" style="stroke: #000000; stroke-width: 0.8"/>
      </g>
     </g>
     <g id="text_6">
      <!-- 50 -->
      <g transform="translate(424.87752 342.361359) scale(0.18 -0.18)">
       <defs>
        <path id="Times-Roman-35" d="M 478 572 
Q 656 572 945 370 
Q 1234 169 1391 169 
Q 1750 169 2019 486 
Q 2288 803 2288 1266 
Q 2288 2075 1425 2431 
Q 947 2628 534 2628 
Q 466 2628 448 2633 
Q 431 2638 406 2666 
Q 413 2691 417 2708 
Q 422 2725 428 2741 
L 1109 4234 
L 2450 4234 
Q 2550 4234 2604 4268 
Q 2659 4303 2747 4397 
L 2797 4353 
L 2553 3775 
Q 2541 3747 2484 3739 
Q 2428 3731 2363 3731 
L 1153 3731 
L 888 3184 
Q 1400 3097 1638 3019 
Q 2028 2888 2291 2631 
Q 2516 2409 2631 2132 
Q 2747 1856 2747 1547 
Q 2747 856 2255 393 
Q 1763 -69 1009 -69 
Q 703 -69 516 -9 
Q 203 88 203 338 
Q 203 431 270 501 
Q 338 572 478 572 
z
" transform="scale(0.015625)"/>
       </defs>
       <use xlink:href="#Times-Roman-35"/>
       <use xlink:href="#Times-Roman-30" x="50"/>
      </g>
     </g>
    </g>
    <g id="xtick_7">
     <g id="line2d_13">
      <path d="M 507.352649 323.020109 
L 507.352649 7.2 
" clip-path="url(#p2eedf278f7)" style="fill: none; stroke-dasharray: 1,1.65; stroke-dashoffset: 0; stroke: #000000"/>
     </g>
     <g id="line2d_14">
      <g>
       <use xlink:href="#m19d9fe6ea0" x="507.352649" y="323.020109" style="stroke: #000000; stroke-width: 0.8"/>
      </g>
     </g>
     <g id="text_7">
      <!-- 60 -->
      <g transform="translate(498.352649 342.361359) scale(0.18 -0.18)">
       <defs>
        <path id="Times-Roman-36" d="M 2994 1422 
Q 2994 850 2626 390 
Q 2259 -69 1672 -69 
Q 1122 -69 670 447 
Q 219 963 219 1819 
Q 219 2922 1094 3713 
Q 1875 4375 2850 4375 
L 2866 4272 
Q 2475 4200 2192 4076 
Q 1909 3953 1688 3731 
Q 1459 3506 1259 3159 
Q 1059 2813 984 2472 
Q 1178 2591 1319 2647 
Q 1569 2747 1822 2747 
Q 2319 2747 2656 2403 
Q 2994 2059 2994 1422 
z
M 2422 1181 
Q 2422 1597 2291 1919 
Q 2072 2456 1547 2456 
Q 1063 2456 903 2169 
Q 809 2000 809 1606 
Q 809 1097 1026 609 
Q 1244 122 1713 122 
Q 2084 122 2253 439 
Q 2422 756 2422 1181 
z
" transform="scale(0.015625)"/>
       </defs>
       <use xlink:href="#Times-Roman-36"/>
       <use xlink:href="#Times-Roman-30" x="50"/>
      </g>
     </g>
    </g>
    <g id="xtick_8">
     <g id="line2d_15">
      <path d="M 580.827778 323.020109 
L 580.827778 7.2 
" clip-path="url(#p2eedf278f7)" style="fill: none; stroke-dasharray: 1,1.65; stroke-dashoffset: 0; stroke: #000000"/>
     </g>
     <g id="line2d_16">
      <g>
       <use xlink:href="#m19d9fe6ea0" x="580.827778" y="323.020109" style="stroke: #000000; stroke-width: 0.8"/>
      </g>
     </g>
     <g id="text_8">
      <!-- 70 -->
      <g transform="translate(571.827778 342.361359) scale(0.18 -0.18)">
       <defs>
        <path id="Times-Roman-37" d="M 2872 4234 
L 2872 4131 
L 1516 -59 
L 1103 -59 
L 2369 3763 
L 1006 3763 
Q 703 3763 570 3663 
Q 438 3563 234 3244 
L 125 3294 
Q 328 3794 376 3911 
Q 425 4028 503 4234 
L 2872 4234 
z
" transform="scale(0.015625)"/>
       </defs>
       <use xlink:href="#Times-Roman-37"/>
       <use xlink:href="#Times-Roman-30" x="50"/>
      </g>
     </g>
    </g>
    <g id="text_9">
     <!-- instances -->
     <g transform="translate(290.672795 362.623234) scale(0.18 -0.18)">
      <defs>
       <path id="Times-Roman-69" d="M 525 4034 
Q 525 4169 619 4266 
Q 713 4363 850 4363 
Q 984 4363 1079 4267 
Q 1175 4172 1175 4034 
Q 1175 3900 1079 3804 
Q 984 3709 850 3709 
Q 713 3709 619 3804 
Q 525 3900 525 4034 
z
M 125 88 
Q 459 119 546 201 
Q 634 284 634 650 
L 634 2141 
Q 634 2344 606 2422 
Q 559 2550 409 2550 
Q 375 2550 342 2544 
Q 309 2538 153 2494 
L 153 2591 
L 288 2634 
Q 834 2813 1050 2903 
Q 1138 2941 1163 2941 
Q 1169 2919 1169 2894 
L 1169 650 
Q 1169 294 1255 203 
Q 1341 113 1644 88 
L 1644 0 
L 125 0 
L 125 88 
z
" transform="scale(0.015625)"/>
       <path id="Times-Roman-6e" d="M 116 88 
Q 338 116 427 198 
Q 516 281 516 569 
L 516 2153 
Q 516 2353 478 2434 
Q 419 2553 234 2553 
Q 206 2553 176 2550 
Q 147 2547 103 2541 
L 103 2650 
Q 231 2688 709 2844 
L 1003 2941 
Q 1025 2941 1029 2925 
Q 1034 2909 1034 2881 
L 1034 2422 
Q 1322 2691 1484 2791 
Q 1728 2944 1991 2944 
Q 2203 2944 2378 2822 
Q 2716 2584 2716 1975 
L 2716 516 
Q 2716 291 2806 191 
Q 2897 91 3109 88 
L 3109 0 
L 1775 0 
L 1775 88 
Q 2003 119 2093 214 
Q 2184 309 2184 628 
L 2184 1963 
Q 2184 2231 2084 2407 
Q 1984 2584 1716 2584 
Q 1531 2584 1341 2459 
Q 1234 2388 1066 2222 
L 1066 472 
Q 1066 247 1166 170 
Q 1266 94 1481 88 
L 1481 0 
L 116 0 
L 116 88 
z
M 1603 2944 
L 1603 2944 
z
" transform="scale(0.015625)"/>
       <path id="Times-Roman-73" d="M 331 984 
L 434 984 
Q 506 628 628 438 
Q 847 88 1269 88 
Q 1503 88 1639 217 
Q 1775 347 1775 553 
Q 1775 684 1697 806 
Q 1619 928 1422 1044 
L 1072 1244 
Q 688 1450 506 1659 
Q 325 1869 325 2153 
Q 325 2503 575 2728 
Q 825 2953 1203 2953 
Q 1369 2953 1567 2890 
Q 1766 2828 1791 2828 
Q 1847 2828 1872 2843 
Q 1897 2859 1916 2894 
L 1991 2894 
L 2013 2022 
L 1916 2022 
Q 1853 2325 1747 2494 
Q 1553 2806 1188 2806 
Q 969 2806 844 2672 
Q 719 2538 719 2356 
Q 719 2069 1150 1844 
L 1563 1622 
Q 2228 1259 2228 778 
Q 2228 409 1951 175 
Q 1675 -59 1228 -59 
Q 1041 -59 803 3 
Q 566 66 522 66 
Q 484 66 456 39 
Q 428 13 413 -25 
L 331 -25 
L 331 984 
z
M 1247 2953 
L 1247 2953 
z
" transform="scale(0.015625)"/>
       <path id="Times-Roman-74" d="M 1628 2881 
L 1628 2656 
L 991 2656 
L 984 856 
Q 984 619 1025 497 
Q 1100 281 1319 281 
Q 1431 281 1514 334 
Q 1597 388 1703 503 
L 1784 434 
L 1716 341 
Q 1553 122 1372 31 
Q 1191 -59 1022 -59 
Q 653 -59 522 269 
Q 450 447 450 763 
L 450 2656 
L 109 2656 
Q 94 2666 86 2675 
Q 78 2684 78 2700 
Q 78 2731 92 2748 
Q 106 2766 181 2828 
Q 397 3006 492 3117 
Q 588 3228 941 3703 
Q 981 3703 989 3697 
Q 997 3691 997 3650 
L 997 2881 
L 1628 2881 
z
" transform="scale(0.015625)"/>
       <path id="Times-Roman-61" d="M 1834 1731 
Q 1475 1613 1241 1469 
Q 791 1191 791 838 
Q 791 553 978 419 
Q 1100 331 1250 331 
Q 1456 331 1645 447 
Q 1834 563 1834 741 
L 1834 1731 
z
M 234 622 
Q 234 1075 688 1378 
Q 975 1566 1834 1888 
L 1834 2153 
Q 1834 2472 1772 2597 
Q 1666 2806 1331 2806 
Q 1172 2806 1028 2725 
Q 884 2641 884 2494 
Q 884 2456 900 2367 
Q 916 2278 916 2253 
Q 916 2078 800 2009 
Q 734 1969 644 1969 
Q 503 1969 428 2061 
Q 353 2153 353 2266 
Q 353 2484 623 2723 
Q 894 2963 1416 2963 
Q 2022 2963 2238 2569 
Q 2353 2353 2353 1941 
L 2353 688 
Q 2353 506 2378 438 
Q 2419 316 2547 316 
Q 2619 316 2666 337 
Q 2713 359 2828 444 
L 2828 281 
Q 2728 159 2613 81 
Q 2438 -38 2256 -38 
Q 2044 -38 1948 100 
Q 1853 238 1844 428 
Q 1606 222 1438 122 
Q 1153 -47 897 -47 
Q 628 -47 431 142 
Q 234 331 234 622 
z
M 1425 2963 
L 1425 2963 
z
" transform="scale(0.015625)"/>
       <path id="Times-Roman-63" d="M 1591 2947 
Q 1981 2947 2264 2745 
Q 2547 2544 2547 2303 
Q 2547 2200 2475 2111 
Q 2403 2022 2253 2022 
Q 2144 2022 2061 2097 
Q 1978 2172 1941 2316 
L 1903 2466 
Q 1863 2631 1763 2700 
Q 1659 2766 1491 2766 
Q 1134 2766 889 2455 
Q 644 2144 644 1628 
Q 644 1156 914 781 
Q 1184 406 1644 406 
Q 1969 406 2222 619 
Q 2366 741 2547 1006 
L 2634 953 
Q 2456 578 2259 359 
Q 1881 -59 1384 -59 
Q 897 -59 522 325 
Q 147 709 147 1369 
Q 147 2016 556 2481 
Q 966 2947 1591 2947 
z
M 1453 2947 
L 1453 2947 
z
" transform="scale(0.015625)"/>
       <path id="Times-Roman-65" d="M 1466 2931 
Q 1906 2931 2237 2626 
Q 2569 2322 2569 1763 
L 584 1763 
Q 616 1038 912 706 
Q 1209 375 1616 375 
Q 1944 375 2169 547 
Q 2394 719 2584 1034 
L 2694 997 
Q 2566 600 2214 262 
Q 1863 -75 1353 -75 
Q 766 -75 445 369 
Q 125 813 125 1391 
Q 125 2019 497 2475 
Q 869 2931 1466 2931 
z
M 1284 2703 
Q 928 2703 741 2388 
Q 641 2219 597 1963 
L 1916 1963 
Q 1881 2275 1797 2428 
Q 1644 2703 1284 2703 
z
M 1425 2931 
L 1425 2931 
z
" transform="scale(0.015625)"/>
      </defs>
      <use xlink:href="#Times-Roman-69"/>
      <use xlink:href="#Times-Roman-6e" x="27.783203"/>
      <use xlink:href="#Times-Roman-73" x="77.783203"/>
      <use xlink:href="#Times-Roman-74" x="116.699219"/>
      <use xlink:href="#Times-Roman-61" x="144.482422"/>
      <use xlink:href="#Times-Roman-6e" x="188.867188"/>
      <use xlink:href="#Times-Roman-63" x="238.867188"/>
      <use xlink:href="#Times-Roman-65" x="283.251953"/>
      <use xlink:href="#Times-Roman-73" x="327.636719"/>
     </g>
    </g>
   </g>
   <g id="matplotlib.axis_2">
    <g id="ytick_1">
     <g id="line2d_17">
      <path d="M 66.501875 280.290186 
L 580.827778 280.290186 
" clip-path="url(#p2eedf278f7)" style="fill: none; stroke-dasharray: 1,1.65; stroke-dashoffset: 0; stroke: #000000"/>
     </g>
     <g id="line2d_18">
      <defs>
       <path id="mebaba097d9" d="M 0 0 
L -3.5 0 
" style="stroke: #000000; stroke-width: 0.8"/>
      </defs>
      <g>
       <use xlink:href="#mebaba097d9" x="66.501875" y="280.290186" style="stroke: #000000; stroke-width: 0.8"/>
      </g>
     </g>
     <g id="text_10">
      <!-- $\mathdefault{10^{-1}}$ -->
      <g transform="translate(27.461875 286.460811) scale(0.18 -0.18)">
       <defs>
        <path id="Times-Roman-2212" d="M 191 1834 
L 3422 1834 
L 3422 1397 
L 191 1397 
L 191 1834 
z
" transform="scale(0.015625)"/>
       </defs>
       <use xlink:href="#Times-Roman-31" transform="translate(0 0.621875)"/>
       <use xlink:href="#Times-Roman-30" transform="translate(50 0.621875)"/>
       <use xlink:href="#Times-Roman-2212" transform="translate(100.785313 32.034375) scale(0.7)"/>
       <use xlink:href="#Times-Roman-31" transform="translate(140.262852 32.034375) scale(0.7)"/>
      </g>
     </g>
    </g>
    <g id="ytick_2">
     <g id="line2d_19">
      <path d="M 66.501875 187.804644 
L 580.827778 187.804644 
" clip-path="url(#p2eedf278f7)" style="fill: none; stroke-dasharray: 1,1.65; stroke-dashoffset: 0; stroke: #000000"/>
     </g>
     <g id="line2d_20">
      <g>
       <use xlink:href="#mebaba097d9" x="66.501875" y="187.804644" style="stroke: #000000; stroke-width: 0.8"/>
      </g>
     </g>
     <g id="text_11">
      <!-- $\mathdefault{10^{0}}$ -->
      <g transform="translate(34.481875 193.975269) scale(0.18 -0.18)">
       <use xlink:href="#Times-Roman-31" transform="translate(0 0.55625)"/>
       <use xlink:href="#Times-Roman-30" transform="translate(50 0.55625)"/>
       <use xlink:href="#Times-Roman-30" transform="translate(100.785313 31.96875) scale(0.7)"/>
      </g>
     </g>
    </g>
    <g id="ytick_3">
     <g id="line2d_21">
      <path d="M 66.501875 95.319103 
L 580.827778 95.319103 
" clip-path="url(#p2eedf278f7)" style="fill: none; stroke-dasharray: 1,1.65; stroke-dashoffset: 0; stroke: #000000"/>
     </g>
     <g id="line2d_22">
      <g>
       <use xlink:href="#mebaba097d9" x="66.501875" y="95.319103" style="stroke: #000000; stroke-width: 0.8"/>
      </g>
     </g>
     <g id="text_12">
      <!-- $\mathdefault{10^{1}}$ -->
      <g transform="translate(34.481875 101.489728) scale(0.18 -0.18)">
       <use xlink:href="#Times-Roman-31" transform="translate(0 0.621875)"/>
       <use xlink:href="#Times-Roman-30" transform="translate(50 0.621875)"/>
       <use xlink:href="#Times-Roman-31" transform="translate(100.785313 32.034375) scale(0.7)"/>
      </g>
     </g>
    </g>
    <g id="ytick_4">
     <g id="line2d_23">
      <defs>
       <path id="mdbff0488ab" d="M 0 0 
L -2 0 
" style="stroke: #000000; stroke-width: 0.6"/>
      </defs>
      <g>
       <use xlink:href="#mdbff0488ab" x="66.501875" y="317.093884" style="stroke: #000000; stroke-width: 0.6"/>
      </g>
     </g>
    </g>
    <g id="ytick_5">
     <g id="line2d_24">
      <g>
       <use xlink:href="#mdbff0488ab" x="66.501875" y="308.131108" style="stroke: #000000; stroke-width: 0.6"/>
      </g>
     </g>
    </g>
    <g id="ytick_6">
     <g id="line2d_25">
      <g>
       <use xlink:href="#mdbff0488ab" x="66.501875" y="300.807988" style="stroke: #000000; stroke-width: 0.6"/>
      </g>
     </g>
    </g>
    <g id="ytick_7">
     <g id="line2d_26">
      <g>
       <use xlink:href="#mdbff0488ab" x="66.501875" y="294.616378" style="stroke: #000000; stroke-width: 0.6"/>
      </g>
     </g>
    </g>
    <g id="ytick_8">
     <g id="line2d_27">
      <g>
       <use xlink:href="#mdbff0488ab" x="66.501875" y="289.252961" style="stroke: #000000; stroke-width: 0.6"/>
      </g>
     </g>
    </g>
    <g id="ytick_9">
     <g id="line2d_28">
      <g>
       <use xlink:href="#mdbff0488ab" x="66.501875" y="284.522093" style="stroke: #000000; stroke-width: 0.6"/>
      </g>
     </g>
    </g>
    <g id="ytick_10">
     <g id="line2d_29">
      <g>
       <use xlink:href="#mdbff0488ab" x="66.501875" y="252.449264" style="stroke: #000000; stroke-width: 0.6"/>
      </g>
     </g>
    </g>
    <g id="ytick_11">
     <g id="line2d_30">
      <g>
       <use xlink:href="#mdbff0488ab" x="66.501875" y="236.163368" style="stroke: #000000; stroke-width: 0.6"/>
      </g>
     </g>
    </g>
    <g id="ytick_12">
     <g id="line2d_31">
      <g>
       <use xlink:href="#mdbff0488ab" x="66.501875" y="224.608342" style="stroke: #000000; stroke-width: 0.6"/>
      </g>
     </g>
    </g>
    <g id="ytick_13">
     <g id="line2d_32">
      <g>
       <use xlink:href="#mdbff0488ab" x="66.501875" y="215.645567" style="stroke: #000000; stroke-width: 0.6"/>
      </g>
     </g>
    </g>
    <g id="ytick_14">
     <g id="line2d_33">
      <g>
       <use xlink:href="#mdbff0488ab" x="66.501875" y="208.322446" style="stroke: #000000; stroke-width: 0.6"/>
      </g>
     </g>
    </g>
    <g id="ytick_15">
     <g id="line2d_34">
      <g>
       <use xlink:href="#mdbff0488ab" x="66.501875" y="202.130836" style="stroke: #000000; stroke-width: 0.6"/>
      </g>
     </g>
    </g>
    <g id="ytick_16">
     <g id="line2d_35">
      <g>
       <use xlink:href="#mdbff0488ab" x="66.501875" y="196.767419" style="stroke: #000000; stroke-width: 0.6"/>
      </g>
     </g>
    </g>
    <g id="ytick_17">
     <g id="line2d_36">
      <g>
       <use xlink:href="#mdbff0488ab" x="66.501875" y="192.036551" style="stroke: #000000; stroke-width: 0.6"/>
      </g>
     </g>
    </g>
    <g id="ytick_18">
     <g id="line2d_37">
      <g>
       <use xlink:href="#mdbff0488ab" x="66.501875" y="159.963722" style="stroke: #000000; stroke-width: 0.6"/>
      </g>
     </g>
    </g>
    <g id="ytick_19">
     <g id="line2d_38">
      <g>
       <use xlink:href="#mdbff0488ab" x="66.501875" y="143.677827" style="stroke: #000000; stroke-width: 0.6"/>
      </g>
     </g>
    </g>
    <g id="ytick_20">
     <g id="line2d_39">
      <g>
       <use xlink:href="#mdbff0488ab" x="66.501875" y="132.1228" style="stroke: #000000; stroke-width: 0.6"/>
      </g>
     </g>
    </g>
    <g id="ytick_21">
     <g id="line2d_40">
      <g>
       <use xlink:href="#mdbff0488ab" x="66.501875" y="123.160025" style="stroke: #000000; stroke-width: 0.6"/>
      </g>
     </g>
    </g>
    <g id="ytick_22">
     <g id="line2d_41">
      <g>
       <use xlink:href="#mdbff0488ab" x="66.501875" y="115.836904" style="stroke: #000000; stroke-width: 0.6"/>
      </g>
     </g>
    </g>
    <g id="ytick_23">
     <g id="line2d_42">
      <g>
       <use xlink:href="#mdbff0488ab" x="66.501875" y="109.645294" style="stroke: #000000; stroke-width: 0.6"/>
      </g>
     </g>
    </g>
    <g id="ytick_24">
     <g id="line2d_43">
      <g>
       <use xlink:href="#mdbff0488ab" x="66.501875" y="104.281878" style="stroke: #000000; stroke-width: 0.6"/>
      </g>
     </g>
    </g>
    <g id="ytick_25">
     <g id="line2d_44">
      <g>
       <use xlink:href="#mdbff0488ab" x="66.501875" y="99.551009" style="stroke: #000000; stroke-width: 0.6"/>
      </g>
     </g>
    </g>
    <g id="ytick_26">
     <g id="line2d_45">
      <g>
       <use xlink:href="#mdbff0488ab" x="66.501875" y="67.47818" style="stroke: #000000; stroke-width: 0.6"/>
      </g>
     </g>
    </g>
    <g id="ytick_27">
     <g id="line2d_46">
      <g>
       <use xlink:href="#mdbff0488ab" x="66.501875" y="51.192285" style="stroke: #000000; stroke-width: 0.6"/>
      </g>
     </g>
    </g>
    <g id="ytick_28">
     <g id="line2d_47">
      <g>
       <use xlink:href="#mdbff0488ab" x="66.501875" y="39.637258" style="stroke: #000000; stroke-width: 0.6"/>
      </g>
     </g>
    </g>
    <g id="ytick_29">
     <g id="line2d_48">
      <g>
       <use xlink:href="#mdbff0488ab" x="66.501875" y="30.674483" style="stroke: #000000; stroke-width: 0.6"/>
      </g>
     </g>
    </g>
    <g id="ytick_30">
     <g id="line2d_49">
      <g>
       <use xlink:href="#mdbff0488ab" x="66.501875" y="23.351363" style="stroke: #000000; stroke-width: 0.6"/>
      </g>
     </g>
    </g>
    <g id="ytick_31">
     <g id="line2d_50">
      <g>
       <use xlink:href="#mdbff0488ab" x="66.501875" y="17.159752" style="stroke: #000000; stroke-width: 0.6"/>
      </g>
     </g>
    </g>
    <g id="ytick_32">
     <g id="line2d_51">
      <g>
       <use xlink:href="#mdbff0488ab" x="66.501875" y="11.796336" style="stroke: #000000; stroke-width: 0.6"/>
      </g>
     </g>
    </g>
    <g id="text_13">
     <!-- CPU time (s) -->
     <g transform="translate(19.54125 212.610367) rotate(-90) scale(0.18 -0.18)">
      <defs>
       <path id="Times-Roman-43" d="M 2369 4309 
Q 2716 4309 3081 4206 
Q 3447 4103 3491 4103 
Q 3581 4103 3662 4153 
Q 3744 4203 3775 4309 
L 3909 4309 
L 3969 2872 
L 3822 2872 
Q 3694 3300 3488 3563 
Q 3094 4056 2428 4056 
Q 1756 4056 1329 3525 
Q 903 2994 903 2063 
Q 903 1206 1351 695 
Q 1800 184 2488 184 
Q 2984 184 3403 422 
Q 3644 556 3931 828 
L 4050 709 
Q 3838 441 3522 238 
Q 2984 -106 2356 -106 
Q 1325 -106 719 553 
Q 159 1163 159 2075 
Q 159 3009 750 3644 
Q 1372 4309 2369 4309 
z
M 2347 4309 
Q 2347 4309 2347 4309 
z
" transform="scale(0.015625)"/>
       <path id="Times-Roman-50" d="M 2769 3072 
Q 2769 3659 2263 3878 
Q 1991 3997 1575 3997 
Q 1378 3997 1333 3958 
Q 1288 3919 1288 3784 
L 1288 2116 
Q 1459 2100 1512 2097 
Q 1566 2094 1616 2094 
Q 2056 2094 2309 2219 
Q 2769 2447 2769 3072 
z
M 103 116 
Q 469 150 559 261 
Q 650 372 650 769 
L 650 3541 
Q 650 3875 548 3981 
Q 447 4088 103 4116 
L 103 4234 
L 1791 4234 
Q 2603 4234 3034 3918 
Q 3466 3603 3466 3088 
Q 3466 2434 2987 2140 
Q 2509 1847 1791 1847 
Q 1688 1847 1527 1851 
Q 1366 1856 1288 1856 
L 1288 694 
Q 1288 331 1398 237 
Q 1509 144 1894 116 
L 1894 0 
L 103 0 
L 103 116 
z
" transform="scale(0.015625)"/>
       <path id="Times-Roman-55" d="M 1903 4234 
L 1903 4116 
Q 1534 4091 1425 3992 
Q 1316 3894 1316 3541 
L 1316 1494 
Q 1316 991 1453 709 
Q 1709 197 2425 197 
Q 3209 197 3478 722 
Q 3628 1016 3628 1628 
L 3628 3294 
Q 3628 3816 3503 3948 
Q 3378 4081 3028 4116 
L 3028 4234 
L 4509 4234 
L 4509 4116 
Q 4138 4075 4023 3936 
Q 3909 3797 3909 3294 
L 3909 1628 
Q 3909 966 3706 594 
Q 3331 -91 2281 -91 
Q 1244 -91 869 584 
Q 666 947 666 1541 
L 666 3541 
Q 666 3891 558 3989 
Q 450 4088 88 4116 
L 88 4234 
L 1903 4234 
z
M 2316 4234 
L 2316 4234 
z
" transform="scale(0.015625)"/>
       <path id="Times-Roman-20" transform="scale(0.015625)"/>
       <path id="Times-Roman-6d" d="M 103 81 
Q 347 103 428 163 
Q 553 253 553 525 
L 553 2141 
Q 553 2372 492 2444 
Q 431 2516 291 2516 
Q 225 2516 192 2509 
Q 159 2503 116 2488 
L 116 2597 
L 341 2672 
Q 463 2713 741 2819 
Q 1019 2925 1034 2925 
Q 1050 2925 1053 2909 
Q 1056 2894 1056 2850 
L 1056 2428 
Q 1366 2709 1591 2817 
Q 1816 2925 2053 2925 
Q 2375 2925 2566 2706 
Q 2666 2588 2731 2384 
Q 2963 2619 3134 2731 
Q 3431 2925 3741 2925 
Q 4244 2925 4413 2516 
Q 4509 2284 4509 1784 
L 4509 488 
Q 4509 266 4607 186 
Q 4706 106 4963 81 
L 4963 0 
L 3553 0 
L 3553 88 
Q 3825 113 3911 197 
Q 3997 281 3997 541 
L 3997 1888 
Q 3997 2191 3931 2334 
Q 3816 2591 3478 2591 
Q 3275 2591 3075 2456 
Q 2959 2378 2791 2206 
L 2791 606 
Q 2791 353 2880 222 
Q 2969 91 3256 81 
L 3256 0 
L 1822 0 
L 1822 81 
Q 2119 119 2200 225 
Q 2281 331 2281 747 
L 2281 1622 
Q 2281 2103 2219 2284 
Q 2116 2591 1781 2591 
Q 1591 2591 1406 2486 
Q 1222 2381 1081 2213 
L 1081 503 
Q 1081 266 1164 175 
Q 1247 84 1525 81 
L 1525 0 
L 103 0 
L 103 81 
z
" transform="scale(0.015625)"/>
       <path id="Times-Roman-28" d="M 294 1606 
Q 294 2694 944 3516 
Q 1344 4019 1888 4325 
L 1947 4222 
Q 1444 3822 1228 3444 
Q 850 2784 850 1688 
Q 850 875 994 347 
Q 1247 -578 1947 -1038 
L 1866 -1141 
Q 1481 -956 1034 -419 
Q 294 472 294 1606 
z
" transform="scale(0.015625)"/>
       <path id="Times-Roman-29" d="M 1822 1575 
Q 1822 1109 1700 693 
Q 1578 278 1344 -91 
Q 1097 -484 684 -825 
Q 413 -1050 228 -1141 
L 169 -1038 
Q 650 -672 872 -291 
Q 1266 384 1266 1494 
Q 1266 2391 1084 2959 
Q 831 3763 169 4222 
L 250 4325 
Q 744 4050 1169 3494 
Q 1822 2638 1822 1575 
z
" transform="scale(0.015625)"/>
      </defs>
      <use xlink:href="#Times-Roman-43"/>
      <use xlink:href="#Times-Roman-50" x="66.699219"/>
      <use xlink:href="#Times-Roman-55" x="122.314453"/>
      <use xlink:href="#Times-Roman-20" x="194.53125"/>
      <use xlink:href="#Times-Roman-74" x="219.53125"/>
      <use xlink:href="#Times-Roman-69" x="247.314453"/>
      <use xlink:href="#Times-Roman-6d" x="275.097656"/>
      <use xlink:href="#Times-Roman-65" x="352.880859"/>
      <use xlink:href="#Times-Roman-20" x="397.265625"/>
      <use xlink:href="#Times-Roman-28" x="422.265625"/>
      <use xlink:href="#Times-Roman-73" x="455.566406"/>
      <use xlink:href="#Times-Roman-29" x="494.482422"/>
     </g>
    </g>
   </g>
   <g id="patch_3">
    <path d="M 66.501875 323.020109 
L 66.501875 7.2 
" style="fill: none; stroke: #000000; stroke-linejoin: miter; stroke-linecap: square"/>
   </g>
   <g id="patch_4">
    <path d="M 580.827778 323.020109 
L 580.827778 7.2 
" style="fill: none; stroke: #000000; stroke-linejoin: miter; stroke-linecap: square"/>
   </g>
   <g id="patch_5">
    <path d="M 66.501875 323.020109 
L 580.827778 323.020109 
" style="fill: none; stroke: #000000; stroke-linejoin: miter; stroke-linecap: square"/>
   </g>
   <g id="patch_6">
    <path d="M 66.501875 7.2 
L 580.827778 7.2 
" style="fill: none; stroke: #000000; stroke-linejoin: miter; stroke-linecap: square"/>
   </g>
   <g id="line2d_52">
    <path d="M 73.849388 236.509198 
L 81.196901 236.158814 
L 88.544414 236.037909 
L 95.891927 235.418107 
L 103.239439 234.197426 
L 110.586952 233.990341 
L 117.934465 233.479769 
L 125.281978 232.264086 
L 132.629491 231.331907 
L 139.977004 231.201795 
L 147.324517 231.033606 
L 154.67203 230.69157 
L 162.019543 230.444318 
L 169.367056 230.202751 
L 176.714568 229.355657 
L 184.062081 229.176377 
L 191.409594 226.015246 
L 198.757107 225.188613 
L 206.10462 222.917829 
L 213.452133 222.022766 
L 220.799646 221.300672 
L 228.147159 221.040698 
L 235.494672 219.705205 
L 242.842185 219.50275 
L 250.189697 214.539794 
L 257.53721 212.736471 
L 264.884723 212.213843 
L 272.232236 210.486616 
L 279.579749 209.770139 
L 286.927262 205.95508 
L 294.274775 205.658584 
L 301.622288 204.611889 
L 308.969801 204.223476 
L 316.317314 201.197303 
L 323.664826 200.438882 
L 331.012339 199.646772 
L 338.359852 197.797966 
L 345.707365 196.75367 
L 353.054878 196.664454 
L 360.402391 193.259727 
L 367.749904 190.576558 
L 375.097417 187.630139 
L 382.44493 181.20033 
L 389.792443 180.070056 
L 397.139955 179.47982 
L 404.487468 177.201433 
L 411.834981 176.338727 
L 419.182494 172.081166 
L 426.530007 169.250025 
L 433.87752 169.23124 
L 441.225033 161.0985 
L 448.572546 158.428446 
L 455.920059 157.972883 
L 463.267571 151.320956 
L 470.615084 148.608868 
L 477.962597 148.457277 
L 485.31011 144.893698 
L 492.657623 138.728861 
L 500.005136 130.310669 
L 507.352649 126.30626 
L 514.700162 112.093447 
L 522.047675 111.669897 
L 529.395188 105.357043 
L 536.7427 103.982335 
L 544.090213 103.657739 
L 551.437726 90.998346 
L 558.785239 66.475169 
" clip-path="url(#p2eedf278f7)" style="fill: none; stroke: #008000; stroke-opacity: 0.7; stroke-width: 2; stroke-linecap: square"/>
   </g>
   <g id="line2d_53">
    <path d="M 73.849388 318.813219 
L 81.196901 314.477792 
L 88.544414 312.095619 
L 95.891927 309.327366 
L 103.239439 308.068294 
L 110.586952 307.52688 
L 117.934465 305.118207 
L 125.281978 302.691774 
L 132.629491 301.937282 
L 139.977004 299.737233 
L 147.324517 297.70726 
L 154.67203 297.628722 
L 162.019543 292.911149 
L 169.367056 291.282932 
L 176.714568 291.184032 
L 184.062081 288.36064 
L 191.409594 286.860837 
L 198.757107 283.234187 
L 206.10462 277.353286 
L 213.452133 273.8414 
L 220.799646 270.471833 
L 228.147159 269.833757 
L 235.494672 264.76945 
L 242.842185 259.921867 
L 250.189697 256.844499 
L 257.53721 253.560461 
L 264.884723 244.898869 
L 272.232236 242.41918 
L 279.579749 241.434669 
L 286.927262 240.124082 
L 294.274775 239.983259 
L 301.622288 237.807862 
L 308.969801 235.38156 
L 316.317314 230.416454 
L 323.664826 224.182282 
L 331.012339 222.836374 
L 338.359852 219.201217 
L 345.707365 216.66744 
L 353.054878 215.605635 
L 360.402391 215.358042 
L 367.749904 214.113337 
L 375.097417 213.588953 
L 382.44493 211.632125 
L 389.792443 208.012427 
L 397.139955 197.463913 
L 404.487468 193.305827 
L 411.834981 192.897306 
L 419.182494 192.564802 
L 426.530007 188.682643 
L 433.87752 187.674884 
L 441.225033 178.99982 
L 448.572546 173.584341 
L 455.920059 171.576473 
L 463.267571 169.028183 
L 470.615084 162.143467 
L 477.962597 154.240424 
L 485.31011 148.501833 
L 492.657623 148.316966 
L 500.005136 145.078426 
L 507.352649 143.716342 
L 514.700162 128.561797 
L 522.047675 128.046358 
L 529.395188 123.519266 
L 536.7427 112.300914 
L 544.090213 111.4882 
L 551.437726 99.832338 
L 558.785239 68.376674 
" clip-path="url(#p2eedf278f7)" style="fill: none; stroke-dasharray: 7.4,3.2; stroke-dashoffset: 0; stroke: #ff0000; stroke-opacity: 0.7; stroke-width: 2"/>
   </g>
   <g id="line2d_54">
    <path d="M 73.849388 323.020109 
L 81.196901 321.101256 
L 88.544414 316.07327 
L 95.891927 313.230243 
L 103.239439 312.807261 
L 110.586952 312.330915 
L 117.934465 308.633925 
L 125.281978 302.723866 
L 132.629491 302.431696 
L 139.977004 300.558908 
L 147.324517 299.037209 
L 154.67203 297.868006 
L 162.019543 289.35255 
L 169.367056 287.969014 
L 176.714568 286.933571 
L 184.062081 286.716548 
L 191.409594 286.303104 
L 198.757107 284.225837 
L 206.10462 269.526102 
L 213.452133 269.260354 
L 220.799646 269.143616 
L 228.147159 265.811087 
L 235.494672 263.486171 
L 242.842185 259.18206 
L 250.189697 257.317665 
L 257.53721 245.684958 
L 264.884723 244.291475 
L 272.232236 240.913857 
L 279.579749 240.117228 
L 286.927262 238.289177 
L 294.274775 235.861471 
L 301.622288 235.630931 
L 308.969801 229.782567 
L 316.317314 223.341091 
L 323.664826 221.272255 
L 331.012339 220.703186 
L 338.359852 218.829816 
L 345.707365 217.725223 
L 353.054878 217.617581 
L 360.402391 210.26199 
L 367.749904 210.084282 
L 375.097417 206.626349 
L 382.44493 203.542526 
L 389.792443 195.941909 
L 397.139955 193.552024 
L 404.487468 186.120177 
L 411.834981 182.969748 
L 419.182494 181.542301 
L 426.530007 173.050967 
L 433.87752 168.365851 
L 441.225033 167.174291 
L 448.572546 166.251297 
L 455.920059 163.208637 
L 463.267571 158.39755 
L 470.615084 156.721298 
L 477.962597 154.471955 
L 485.31011 149.000006 
L 492.657623 148.350855 
L 500.005136 136.055013 
L 507.352649 130.08932 
L 514.700162 114.466022 
L 522.047675 113.330269 
L 529.395188 110.735789 
L 536.7427 107.566883 
L 544.090213 97.653686 
L 551.437726 96.389926 
L 558.785239 67.158531 
" clip-path="url(#p2eedf278f7)" style="fill: none; stroke: #0000ff; stroke-opacity: 0.7; stroke-linecap: square"/>
    <defs>
     <path id="m57677f9bbb" d="M -2.5 2.5 
L 2.5 -2.5 
M -2.5 -2.5 
L 2.5 2.5 
" style="stroke: #0000ff; stroke-opacity: 0.7; stroke-width: 0.75"/>
    </defs>
    <g clip-path="url(#p2eedf278f7)">
     <use xlink:href="#m57677f9bbb" x="73.849388" y="323.020109" style="fill: #ffffff; fill-opacity: 0.7; stroke: #0000ff; stroke-opacity: 0.7; stroke-width: 0.75"/>
     <use xlink:href="#m57677f9bbb" x="81.196901" y="321.101256" style="fill: #ffffff; fill-opacity: 0.7; stroke: #0000ff; stroke-opacity: 0.7; stroke-width: 0.75"/>
     <use xlink:href="#m57677f9bbb" x="88.544414" y="316.07327" style="fill: #ffffff; fill-opacity: 0.7; stroke: #0000ff; stroke-opacity: 0.7; stroke-width: 0.75"/>
     <use xlink:href="#m57677f9bbb" x="95.891927" y="313.230243" style="fill: #ffffff; fill-opacity: 0.7; stroke: #0000ff; stroke-opacity: 0.7; stroke-width: 0.75"/>
     <use xlink:href="#m57677f9bbb" x="103.239439" y="312.807261" style="fill: #ffffff; fill-opacity: 0.7; stroke: #0000ff; stroke-opacity: 0.7; stroke-width: 0.75"/>
     <use xlink:href="#m57677f9bbb" x="110.586952" y="312.330915" style="fill: #ffffff; fill-opacity: 0.7; stroke: #0000ff; stroke-opacity: 0.7; stroke-width: 0.75"/>
     <use xlink:href="#m57677f9bbb" x="117.934465" y="308.633925" style="fill: #ffffff; fill-opacity: 0.7; stroke: #0000ff; stroke-opacity: 0.7; stroke-width: 0.75"/>
     <use xlink:href="#m57677f9bbb" x="125.281978" y="302.723866" style="fill: #ffffff; fill-opacity: 0.7; stroke: #0000ff; stroke-opacity: 0.7; stroke-width: 0.75"/>
     <use xlink:href="#m57677f9bbb" x="132.629491" y="302.431696" style="fill: #ffffff; fill-opacity: 0.7; stroke: #0000ff; stroke-opacity: 0.7; stroke-width: 0.75"/>
     <use xlink:href="#m57677f9bbb" x="139.977004" y="300.558908" style="fill: #ffffff; fill-opacity: 0.7; stroke: #0000ff; stroke-opacity: 0.7; stroke-width: 0.75"/>
     <use xlink:href="#m57677f9bbb" x="147.324517" y="299.037209" style="fill: #ffffff; fill-opacity: 0.7; stroke: #0000ff; stroke-opacity: 0.7; stroke-width: 0.75"/>
     <use xlink:href="#m57677f9bbb" x="154.67203" y="297.868006" style="fill: #ffffff; fill-opacity: 0.7; stroke: #0000ff; stroke-opacity: 0.7; stroke-width: 0.75"/>
     <use xlink:href="#m57677f9bbb" x="162.019543" y="289.35255" style="fill: #ffffff; fill-opacity: 0.7; stroke: #0000ff; stroke-opacity: 0.7; stroke-width: 0.75"/>
     <use xlink:href="#m57677f9bbb" x="169.367056" y="287.969014" style="fill: #ffffff; fill-opacity: 0.7; stroke: #0000ff; stroke-opacity: 0.7; stroke-width: 0.75"/>
     <use xlink:href="#m57677f9bbb" x="176.714568" y="286.933571" style="fill: #ffffff; fill-opacity: 0.7; stroke: #0000ff; stroke-opacity: 0.7; stroke-width: 0.75"/>
     <use xlink:href="#m57677f9bbb" x="184.062081" y="286.716548" style="fill: #ffffff; fill-opacity: 0.7; stroke: #0000ff; stroke-opacity: 0.7; stroke-width: 0.75"/>
     <use xlink:href="#m57677f9bbb" x="191.409594" y="286.303104" style="fill: #ffffff; fill-opacity: 0.7; stroke: #0000ff; stroke-opacity: 0.7; stroke-width: 0.75"/>
     <use xlink:href="#m57677f9bbb" x="198.757107" y="284.225837" style="fill: #ffffff; fill-opacity: 0.7; stroke: #0000ff; stroke-opacity: 0.7; stroke-width: 0.75"/>
     <use xlink:href="#m57677f9bbb" x="206.10462" y="269.526102" style="fill: #ffffff; fill-opacity: 0.7; stroke: #0000ff; stroke-opacity: 0.7; stroke-width: 0.75"/>
     <use xlink:href="#m57677f9bbb" x="213.452133" y="269.260354" style="fill: #ffffff; fill-opacity: 0.7; stroke: #0000ff; stroke-opacity: 0.7; stroke-width: 0.75"/>
     <use xlink:href="#m57677f9bbb" x="220.799646" y="269.143616" style="fill: #ffffff; fill-opacity: 0.7; stroke: #0000ff; stroke-opacity: 0.7; stroke-width: 0.75"/>
     <use xlink:href="#m57677f9bbb" x="228.147159" y="265.811087" style="fill: #ffffff; fill-opacity: 0.7; stroke: #0000ff; stroke-opacity: 0.7; stroke-width: 0.75"/>
     <use xlink:href="#m57677f9bbb" x="235.494672" y="263.486171" style="fill: #ffffff; fill-opacity: 0.7; stroke: #0000ff; stroke-opacity: 0.7; stroke-width: 0.75"/>
     <use xlink:href="#m57677f9bbb" x="242.842185" y="259.18206" style="fill: #ffffff; fill-opacity: 0.7; stroke: #0000ff; stroke-opacity: 0.7; stroke-width: 0.75"/>
     <use xlink:href="#m57677f9bbb" x="250.189697" y="257.317665" style="fill: #ffffff; fill-opacity: 0.7; stroke: #0000ff; stroke-opacity: 0.7; stroke-width: 0.75"/>
     <use xlink:href="#m57677f9bbb" x="257.53721" y="245.684958" style="fill: #ffffff; fill-opacity: 0.7; stroke: #0000ff; stroke-opacity: 0.7; stroke-width: 0.75"/>
     <use xlink:href="#m57677f9bbb" x="264.884723" y="244.291475" style="fill: #ffffff; fill-opacity: 0.7; stroke: #0000ff; stroke-opacity: 0.7; stroke-width: 0.75"/>
     <use xlink:href="#m57677f9bbb" x="272.232236" y="240.913857" style="fill: #ffffff; fill-opacity: 0.7; stroke: #0000ff; stroke-opacity: 0.7; stroke-width: 0.75"/>
     <use xlink:href="#m57677f9bbb" x="279.579749" y="240.117228" style="fill: #ffffff; fill-opacity: 0.7; stroke: #0000ff; stroke-opacity: 0.7; stroke-width: 0.75"/>
     <use xlink:href="#m57677f9bbb" x="286.927262" y="238.289177" style="fill: #ffffff; fill-opacity: 0.7; stroke: #0000ff; stroke-opacity: 0.7; stroke-width: 0.75"/>
     <use xlink:href="#m57677f9bbb" x="294.274775" y="235.861471" style="fill: #ffffff; fill-opacity: 0.7; stroke: #0000ff; stroke-opacity: 0.7; stroke-width: 0.75"/>
     <use xlink:href="#m57677f9bbb" x="301.622288" y="235.630931" style="fill: #ffffff; fill-opacity: 0.7; stroke: #0000ff; stroke-opacity: 0.7; stroke-width: 0.75"/>
     <use xlink:href="#m57677f9bbb" x="308.969801" y="229.782567" style="fill: #ffffff; fill-opacity: 0.7; stroke: #0000ff; stroke-opacity: 0.7; stroke-width: 0.75"/>
     <use xlink:href="#m57677f9bbb" x="316.317314" y="223.341091" style="fill: #ffffff; fill-opacity: 0.7; stroke: #0000ff; stroke-opacity: 0.7; stroke-width: 0.75"/>
     <use xlink:href="#m57677f9bbb" x="323.664826" y="221.272255" style="fill: #ffffff; fill-opacity: 0.7; stroke: #0000ff; stroke-opacity: 0.7; stroke-width: 0.75"/>
     <use xlink:href="#m57677f9bbb" x="331.012339" y="220.703186" style="fill: #ffffff; fill-opacity: 0.7; stroke: #0000ff; stroke-opacity: 0.7; stroke-width: 0.75"/>
     <use xlink:href="#m57677f9bbb" x="338.359852" y="218.829816" style="fill: #ffffff; fill-opacity: 0.7; stroke: #0000ff; stroke-opacity: 0.7; stroke-width: 0.75"/>
     <use xlink:href="#m57677f9bbb" x="345.707365" y="217.725223" style="fill: #ffffff; fill-opacity: 0.7; stroke: #0000ff; stroke-opacity: 0.7; stroke-width: 0.75"/>
     <use xlink:href="#m57677f9bbb" x="353.054878" y="217.617581" style="fill: #ffffff; fill-opacity: 0.7; stroke: #0000ff; stroke-opacity: 0.7; stroke-width: 0.75"/>
     <use xlink:href="#m57677f9bbb" x="360.402391" y="210.26199" style="fill: #ffffff; fill-opacity: 0.7; stroke: #0000ff; stroke-opacity: 0.7; stroke-width: 0.75"/>
     <use xlink:href="#m57677f9bbb" x="367.749904" y="210.084282" style="fill: #ffffff; fill-opacity: 0.7; stroke: #0000ff; stroke-opacity: 0.7; stroke-width: 0.75"/>
     <use xlink:href="#m57677f9bbb" x="375.097417" y="206.626349" style="fill: #ffffff; fill-opacity: 0.7; stroke: #0000ff; stroke-opacity: 0.7; stroke-width: 0.75"/>
     <use xlink:href="#m57677f9bbb" x="382.44493" y="203.542526" style="fill: #ffffff; fill-opacity: 0.7; stroke: #0000ff; stroke-opacity: 0.7; stroke-width: 0.75"/>
     <use xlink:href="#m57677f9bbb" x="389.792443" y="195.941909" style="fill: #ffffff; fill-opacity: 0.7; stroke: #0000ff; stroke-opacity: 0.7; stroke-width: 0.75"/>
     <use xlink:href="#m57677f9bbb" x="397.139955" y="193.552024" style="fill: #ffffff; fill-opacity: 0.7; stroke: #0000ff; stroke-opacity: 0.7; stroke-width: 0.75"/>
     <use xlink:href="#m57677f9bbb" x="404.487468" y="186.120177" style="fill: #ffffff; fill-opacity: 0.7; stroke: #0000ff; stroke-opacity: 0.7; stroke-width: 0.75"/>
     <use xlink:href="#m57677f9bbb" x="411.834981" y="182.969748" style="fill: #ffffff; fill-opacity: 0.7; stroke: #0000ff; stroke-opacity: 0.7; stroke-width: 0.75"/>
     <use xlink:href="#m57677f9bbb" x="419.182494" y="181.542301" style="fill: #ffffff; fill-opacity: 0.7; stroke: #0000ff; stroke-opacity: 0.7; stroke-width: 0.75"/>
     <use xlink:href="#m57677f9bbb" x="426.530007" y="173.050967" style="fill: #ffffff; fill-opacity: 0.7; stroke: #0000ff; stroke-opacity: 0.7; stroke-width: 0.75"/>
     <use xlink:href="#m57677f9bbb" x="433.87752" y="168.365851" style="fill: #ffffff; fill-opacity: 0.7; stroke: #0000ff; stroke-opacity: 0.7; stroke-width: 0.75"/>
     <use xlink:href="#m57677f9bbb" x="441.225033" y="167.174291" style="fill: #ffffff; fill-opacity: 0.7; stroke: #0000ff; stroke-opacity: 0.7; stroke-width: 0.75"/>
     <use xlink:href="#m57677f9bbb" x="448.572546" y="166.251297" style="fill: #ffffff; fill-opacity: 0.7; stroke: #0000ff; stroke-opacity: 0.7; stroke-width: 0.75"/>
     <use xlink:href="#m57677f9bbb" x="455.920059" y="163.208637" style="fill: #ffffff; fill-opacity: 0.7; stroke: #0000ff; stroke-opacity: 0.7; stroke-width: 0.75"/>
     <use xlink:href="#m57677f9bbb" x="463.267571" y="158.39755" style="fill: #ffffff; fill-opacity: 0.7; stroke: #0000ff; stroke-opacity: 0.7; stroke-width: 0.75"/>
     <use xlink:href="#m57677f9bbb" x="470.615084" y="156.721298" style="fill: #ffffff; fill-opacity: 0.7; stroke: #0000ff; stroke-opacity: 0.7; stroke-width: 0.75"/>
     <use xlink:href="#m57677f9bbb" x="477.962597" y="154.471955" style="fill: #ffffff; fill-opacity: 0.7; stroke: #0000ff; stroke-opacity: 0.7; stroke-width: 0.75"/>
     <use xlink:href="#m57677f9bbb" x="485.31011" y="149.000006" style="fill: #ffffff; fill-opacity: 0.7; stroke: #0000ff; stroke-opacity: 0.7; stroke-width: 0.75"/>
     <use xlink:href="#m57677f9bbb" x="492.657623" y="148.350855" style="fill: #ffffff; fill-opacity: 0.7; stroke: #0000ff; stroke-opacity: 0.7; stroke-width: 0.75"/>
     <use xlink:href="#m57677f9bbb" x="500.005136" y="136.055013" style="fill: #ffffff; fill-opacity: 0.7; stroke: #0000ff; stroke-opacity: 0.7; stroke-width: 0.75"/>
     <use xlink:href="#m57677f9bbb" x="507.352649" y="130.08932" style="fill: #ffffff; fill-opacity: 0.7; stroke: #0000ff; stroke-opacity: 0.7; stroke-width: 0.75"/>
     <use xlink:href="#m57677f9bbb" x="514.700162" y="114.466022" style="fill: #ffffff; fill-opacity: 0.7; stroke: #0000ff; stroke-opacity: 0.7; stroke-width: 0.75"/>
     <use xlink:href="#m57677f9bbb" x="522.047675" y="113.330269" style="fill: #ffffff; fill-opacity: 0.7; stroke: #0000ff; stroke-opacity: 0.7; stroke-width: 0.75"/>
     <use xlink:href="#m57677f9bbb" x="529.395188" y="110.735789" style="fill: #ffffff; fill-opacity: 0.7; stroke: #0000ff; stroke-opacity: 0.7; stroke-width: 0.75"/>
     <use xlink:href="#m57677f9bbb" x="536.7427" y="107.566883" style="fill: #ffffff; fill-opacity: 0.7; stroke: #0000ff; stroke-opacity: 0.7; stroke-width: 0.75"/>
     <use xlink:href="#m57677f9bbb" x="544.090213" y="97.653686" style="fill: #ffffff; fill-opacity: 0.7; stroke: #0000ff; stroke-opacity: 0.7; stroke-width: 0.75"/>
     <use xlink:href="#m57677f9bbb" x="551.437726" y="96.389926" style="fill: #ffffff; fill-opacity: 0.7; stroke: #0000ff; stroke-opacity: 0.7; stroke-width: 0.75"/>
     <use xlink:href="#m57677f9bbb" x="558.785239" y="67.158531" style="fill: #ffffff; fill-opacity: 0.7; stroke: #0000ff; stroke-opacity: 0.7; stroke-width: 0.75"/>
    </g>
   </g>
   <g id="line2d_55">
    <path d="M 73.849388 276.149589 
L 81.196901 273.327791 
L 88.544414 271.396577 
L 95.891927 269.382244 
L 103.239439 267.642146 
L 110.586952 265.94416 
L 117.934465 265.772202 
L 125.281978 263.809251 
L 132.629491 262.64051 
L 139.977004 260.63918 
L 147.324517 260.030197 
L 154.67203 259.349045 
L 162.019543 258.444716 
L 169.367056 258.257876 
L 176.714568 257.002222 
L 184.062081 250.917442 
L 191.409594 249.910258 
L 198.757107 249.606223 
L 206.10462 245.613878 
L 213.452133 244.669754 
L 220.799646 244.626306 
L 228.147159 242.885068 
L 235.494672 239.962014 
L 242.842185 230.518864 
L 250.189697 229.662233 
L 257.53721 229.402898 
L 264.884723 218.053948 
L 272.232236 216.22958 
L 279.579749 211.831182 
L 286.927262 207.543083 
L 294.274775 206.750917 
L 301.622288 200.167176 
L 308.969801 199.413993 
L 316.317314 196.850544 
L 323.664826 188.686423 
L 331.012339 188.58192 
L 338.359852 184.799564 
L 345.707365 183.6336 
L 353.054878 181.577149 
L 360.402391 179.493658 
L 367.749904 175.160911 
L 375.097417 172.406361 
L 382.44493 170.672342 
L 389.792443 168.889057 
L 397.139955 167.800215 
L 404.487468 164.720328 
L 411.834981 163.747731 
L 419.182494 161.897758 
L 426.530007 155.774472 
L 433.87752 154.10174 
L 441.225033 152.700855 
L 448.572546 149.235706 
L 455.920059 148.176873 
L 463.267571 140.040974 
L 470.615084 129.773293 
L 477.962597 113.268771 
L 485.31011 110.231068 
L 492.657623 108.400543 
L 500.005136 102.775498 
L 507.352649 100.496621 
L 514.700162 97.307616 
L 522.047675 96.499839 
L 529.395188 79.346112 
L 536.7427 68.44113 
L 544.090213 64.190397 
L 551.437726 49.68969 
L 558.785239 39.940593 
" clip-path="url(#p2eedf278f7)" style="fill: none; stroke: #a52a2a; stroke-opacity: 0.7; stroke-linecap: square"/>
    <defs>
     <path id="mcb5a0ca79f" d="M -2.5 0 
L 2.5 0 
M 0 2.5 
L 0 -2.5 
" style="stroke: #a52a2a; stroke-opacity: 0.7; stroke-width: 0.75"/>
    </defs>
    <g clip-path="url(#p2eedf278f7)">
     <use xlink:href="#mcb5a0ca79f" x="73.849388" y="276.149589" style="fill: #ffffff; fill-opacity: 0.7; stroke: #a52a2a; stroke-opacity: 0.7; stroke-width: 0.75"/>
     <use xlink:href="#mcb5a0ca79f" x="81.196901" y="273.327791" style="fill: #ffffff; fill-opacity: 0.7; stroke: #a52a2a; stroke-opacity: 0.7; stroke-width: 0.75"/>
     <use xlink:href="#mcb5a0ca79f" x="88.544414" y="271.396577" style="fill: #ffffff; fill-opacity: 0.7; stroke: #a52a2a; stroke-opacity: 0.7; stroke-width: 0.75"/>
     <use xlink:href="#mcb5a0ca79f" x="95.891927" y="269.382244" style="fill: #ffffff; fill-opacity: 0.7; stroke: #a52a2a; stroke-opacity: 0.7; stroke-width: 0.75"/>
     <use xlink:href="#mcb5a0ca79f" x="103.239439" y="267.642146" style="fill: #ffffff; fill-opacity: 0.7; stroke: #a52a2a; stroke-opacity: 0.7; stroke-width: 0.75"/>
     <use xlink:href="#mcb5a0ca79f" x="110.586952" y="265.94416" style="fill: #ffffff; fill-opacity: 0.7; stroke: #a52a2a; stroke-opacity: 0.7; stroke-width: 0.75"/>
     <use xlink:href="#mcb5a0ca79f" x="117.934465" y="265.772202" style="fill: #ffffff; fill-opacity: 0.7; stroke: #a52a2a; stroke-opacity: 0.7; stroke-width: 0.75"/>
     <use xlink:href="#mcb5a0ca79f" x="125.281978" y="263.809251" style="fill: #ffffff; fill-opacity: 0.7; stroke: #a52a2a; stroke-opacity: 0.7; stroke-width: 0.75"/>
     <use xlink:href="#mcb5a0ca79f" x="132.629491" y="262.64051" style="fill: #ffffff; fill-opacity: 0.7; stroke: #a52a2a; stroke-opacity: 0.7; stroke-width: 0.75"/>
     <use xlink:href="#mcb5a0ca79f" x="139.977004" y="260.63918" style="fill: #ffffff; fill-opacity: 0.7; stroke: #a52a2a; stroke-opacity: 0.7; stroke-width: 0.75"/>
     <use xlink:href="#mcb5a0ca79f" x="147.324517" y="260.030197" style="fill: #ffffff; fill-opacity: 0.7; stroke: #a52a2a; stroke-opacity: 0.7; stroke-width: 0.75"/>
     <use xlink:href="#mcb5a0ca79f" x="154.67203" y="259.349045" style="fill: #ffffff; fill-opacity: 0.7; stroke: #a52a2a; stroke-opacity: 0.7; stroke-width: 0.75"/>
     <use xlink:href="#mcb5a0ca79f" x="162.019543" y="258.444716" style="fill: #ffffff; fill-opacity: 0.7; stroke: #a52a2a; stroke-opacity: 0.7; stroke-width: 0.75"/>
     <use xlink:href="#mcb5a0ca79f" x="169.367056" y="258.257876" style="fill: #ffffff; fill-opacity: 0.7; stroke: #a52a2a; stroke-opacity: 0.7; stroke-width: 0.75"/>
     <use xlink:href="#mcb5a0ca79f" x="176.714568" y="257.002222" style="fill: #ffffff; fill-opacity: 0.7; stroke: #a52a2a; stroke-opacity: 0.7; stroke-width: 0.75"/>
     <use xlink:href="#mcb5a0ca79f" x="184.062081" y="250.917442" style="fill: #ffffff; fill-opacity: 0.7; stroke: #a52a2a; stroke-opacity: 0.7; stroke-width: 0.75"/>
     <use xlink:href="#mcb5a0ca79f" x="191.409594" y="249.910258" style="fill: #ffffff; fill-opacity: 0.7; stroke: #a52a2a; stroke-opacity: 0.7; stroke-width: 0.75"/>
     <use xlink:href="#mcb5a0ca79f" x="198.757107" y="249.606223" style="fill: #ffffff; fill-opacity: 0.7; stroke: #a52a2a; stroke-opacity: 0.7; stroke-width: 0.75"/>
     <use xlink:href="#mcb5a0ca79f" x="206.10462" y="245.613878" style="fill: #ffffff; fill-opacity: 0.7; stroke: #a52a2a; stroke-opacity: 0.7; stroke-width: 0.75"/>
     <use xlink:href="#mcb5a0ca79f" x="213.452133" y="244.669754" style="fill: #ffffff; fill-opacity: 0.7; stroke: #a52a2a; stroke-opacity: 0.7; stroke-width: 0.75"/>
     <use xlink:href="#mcb5a0ca79f" x="220.799646" y="244.626306" style="fill: #ffffff; fill-opacity: 0.7; stroke: #a52a2a; stroke-opacity: 0.7; stroke-width: 0.75"/>
     <use xlink:href="#mcb5a0ca79f" x="228.147159" y="242.885068" style="fill: #ffffff; fill-opacity: 0.7; stroke: #a52a2a; stroke-opacity: 0.7; stroke-width: 0.75"/>
     <use xlink:href="#mcb5a0ca79f" x="235.494672" y="239.962014" style="fill: #ffffff; fill-opacity: 0.7; stroke: #a52a2a; stroke-opacity: 0.7; stroke-width: 0.75"/>
     <use xlink:href="#mcb5a0ca79f" x="242.842185" y="230.518864" style="fill: #ffffff; fill-opacity: 0.7; stroke: #a52a2a; stroke-opacity: 0.7; stroke-width: 0.75"/>
     <use xlink:href="#mcb5a0ca79f" x="250.189697" y="229.662233" style="fill: #ffffff; fill-opacity: 0.7; stroke: #a52a2a; stroke-opacity: 0.7; stroke-width: 0.75"/>
     <use xlink:href="#mcb5a0ca79f" x="257.53721" y="229.402898" style="fill: #ffffff; fill-opacity: 0.7; stroke: #a52a2a; stroke-opacity: 0.7; stroke-width: 0.75"/>
     <use xlink:href="#mcb5a0ca79f" x="264.884723" y="218.053948" style="fill: #ffffff; fill-opacity: 0.7; stroke: #a52a2a; stroke-opacity: 0.7; stroke-width: 0.75"/>
     <use xlink:href="#mcb5a0ca79f" x="272.232236" y="216.22958" style="fill: #ffffff; fill-opacity: 0.7; stroke: #a52a2a; stroke-opacity: 0.7; stroke-width: 0.75"/>
     <use xlink:href="#mcb5a0ca79f" x="279.579749" y="211.831182" style="fill: #ffffff; fill-opacity: 0.7; stroke: #a52a2a; stroke-opacity: 0.7; stroke-width: 0.75"/>
     <use xlink:href="#mcb5a0ca79f" x="286.927262" y="207.543083" style="fill: #ffffff; fill-opacity: 0.7; stroke: #a52a2a; stroke-opacity: 0.7; stroke-width: 0.75"/>
     <use xlink:href="#mcb5a0ca79f" x="294.274775" y="206.750917" style="fill: #ffffff; fill-opacity: 0.7; stroke: #a52a2a; stroke-opacity: 0.7; stroke-width: 0.75"/>
     <use xlink:href="#mcb5a0ca79f" x="301.622288" y="200.167176" style="fill: #ffffff; fill-opacity: 0.7; stroke: #a52a2a; stroke-opacity: 0.7; stroke-width: 0.75"/>
     <use xlink:href="#mcb5a0ca79f" x="308.969801" y="199.413993" style="fill: #ffffff; fill-opacity: 0.7; stroke: #a52a2a; stroke-opacity: 0.7; stroke-width: 0.75"/>
     <use xlink:href="#mcb5a0ca79f" x="316.317314" y="196.850544" style="fill: #ffffff; fill-opacity: 0.7; stroke: #a52a2a; stroke-opacity: 0.7; stroke-width: 0.75"/>
     <use xlink:href="#mcb5a0ca79f" x="323.664826" y="188.686423" style="fill: #ffffff; fill-opacity: 0.7; stroke: #a52a2a; stroke-opacity: 0.7; stroke-width: 0.75"/>
     <use xlink:href="#mcb5a0ca79f" x="331.012339" y="188.58192" style="fill: #ffffff; fill-opacity: 0.7; stroke: #a52a2a; stroke-opacity: 0.7; stroke-width: 0.75"/>
     <use xlink:href="#mcb5a0ca79f" x="338.359852" y="184.799564" style="fill: #ffffff; fill-opacity: 0.7; stroke: #a52a2a; stroke-opacity: 0.7; stroke-width: 0.75"/>
     <use xlink:href="#mcb5a0ca79f" x="345.707365" y="183.6336" style="fill: #ffffff; fill-opacity: 0.7; stroke: #a52a2a; stroke-opacity: 0.7; stroke-width: 0.75"/>
     <use xlink:href="#mcb5a0ca79f" x="353.054878" y="181.577149" style="fill: #ffffff; fill-opacity: 0.7; stroke: #a52a2a; stroke-opacity: 0.7; stroke-width: 0.75"/>
     <use xlink:href="#mcb5a0ca79f" x="360.402391" y="179.493658" style="fill: #ffffff; fill-opacity: 0.7; stroke: #a52a2a; stroke-opacity: 0.7; stroke-width: 0.75"/>
     <use xlink:href="#mcb5a0ca79f" x="367.749904" y="175.160911" style="fill: #ffffff; fill-opacity: 0.7; stroke: #a52a2a; stroke-opacity: 0.7; stroke-width: 0.75"/>
     <use xlink:href="#mcb5a0ca79f" x="375.097417" y="172.406361" style="fill: #ffffff; fill-opacity: 0.7; stroke: #a52a2a; stroke-opacity: 0.7; stroke-width: 0.75"/>
     <use xlink:href="#mcb5a0ca79f" x="382.44493" y="170.672342" style="fill: #ffffff; fill-opacity: 0.7; stroke: #a52a2a; stroke-opacity: 0.7; stroke-width: 0.75"/>
     <use xlink:href="#mcb5a0ca79f" x="389.792443" y="168.889057" style="fill: #ffffff; fill-opacity: 0.7; stroke: #a52a2a; stroke-opacity: 0.7; stroke-width: 0.75"/>
     <use xlink:href="#mcb5a0ca79f" x="397.139955" y="167.800215" style="fill: #ffffff; fill-opacity: 0.7; stroke: #a52a2a; stroke-opacity: 0.7; stroke-width: 0.75"/>
     <use xlink:href="#mcb5a0ca79f" x="404.487468" y="164.720328" style="fill: #ffffff; fill-opacity: 0.7; stroke: #a52a2a; stroke-opacity: 0.7; stroke-width: 0.75"/>
     <use xlink:href="#mcb5a0ca79f" x="411.834981" y="163.747731" style="fill: #ffffff; fill-opacity: 0.7; stroke: #a52a2a; stroke-opacity: 0.7; stroke-width: 0.75"/>
     <use xlink:href="#mcb5a0ca79f" x="419.182494" y="161.897758" style="fill: #ffffff; fill-opacity: 0.7; stroke: #a52a2a; stroke-opacity: 0.7; stroke-width: 0.75"/>
     <use xlink:href="#mcb5a0ca79f" x="426.530007" y="155.774472" style="fill: #ffffff; fill-opacity: 0.7; stroke: #a52a2a; stroke-opacity: 0.7; stroke-width: 0.75"/>
     <use xlink:href="#mcb5a0ca79f" x="433.87752" y="154.10174" style="fill: #ffffff; fill-opacity: 0.7; stroke: #a52a2a; stroke-opacity: 0.7; stroke-width: 0.75"/>
     <use xlink:href="#mcb5a0ca79f" x="441.225033" y="152.700855" style="fill: #ffffff; fill-opacity: 0.7; stroke: #a52a2a; stroke-opacity: 0.7; stroke-width: 0.75"/>
     <use xlink:href="#mcb5a0ca79f" x="448.572546" y="149.235706" style="fill: #ffffff; fill-opacity: 0.7; stroke: #a52a2a; stroke-opacity: 0.7; stroke-width: 0.75"/>
     <use xlink:href="#mcb5a0ca79f" x="455.920059" y="148.176873" style="fill: #ffffff; fill-opacity: 0.7; stroke: #a52a2a; stroke-opacity: 0.7; stroke-width: 0.75"/>
     <use xlink:href="#mcb5a0ca79f" x="463.267571" y="140.040974" style="fill: #ffffff; fill-opacity: 0.7; stroke: #a52a2a; stroke-opacity: 0.7; stroke-width: 0.75"/>
     <use xlink:href="#mcb5a0ca79f" x="470.615084" y="129.773293" style="fill: #ffffff; fill-opacity: 0.7; stroke: #a52a2a; stroke-opacity: 0.7; stroke-width: 0.75"/>
     <use xlink:href="#mcb5a0ca79f" x="477.962597" y="113.268771" style="fill: #ffffff; fill-opacity: 0.7; stroke: #a52a2a; stroke-opacity: 0.7; stroke-width: 0.75"/>
     <use xlink:href="#mcb5a0ca79f" x="485.31011" y="110.231068" style="fill: #ffffff; fill-opacity: 0.7; stroke: #a52a2a; stroke-opacity: 0.7; stroke-width: 0.75"/>
     <use xlink:href="#mcb5a0ca79f" x="492.657623" y="108.400543" style="fill: #ffffff; fill-opacity: 0.7; stroke: #a52a2a; stroke-opacity: 0.7; stroke-width: 0.75"/>
     <use xlink:href="#mcb5a0ca79f" x="500.005136" y="102.775498" style="fill: #ffffff; fill-opacity: 0.7; stroke: #a52a2a; stroke-opacity: 0.7; stroke-width: 0.75"/>
     <use xlink:href="#mcb5a0ca79f" x="507.352649" y="100.496621" style="fill: #ffffff; fill-opacity: 0.7; stroke: #a52a2a; stroke-opacity: 0.7; stroke-width: 0.75"/>
     <use xlink:href="#mcb5a0ca79f" x="514.700162" y="97.307616" style="fill: #ffffff; fill-opacity: 0.7; stroke: #a52a2a; stroke-opacity: 0.7; stroke-width: 0.75"/>
     <use xlink:href="#mcb5a0ca79f" x="522.047675" y="96.499839" style="fill: #ffffff; fill-opacity: 0.7; stroke: #a52a2a; stroke-opacity: 0.7; stroke-width: 0.75"/>
     <use xlink:href="#mcb5a0ca79f" x="529.395188" y="79.346112" style="fill: #ffffff; fill-opacity: 0.7; stroke: #a52a2a; stroke-opacity: 0.7; stroke-width: 0.75"/>
     <use xlink:href="#mcb5a0ca79f" x="536.7427" y="68.44113" style="fill: #ffffff; fill-opacity: 0.7; stroke: #a52a2a; stroke-opacity: 0.7; stroke-width: 0.75"/>
     <use xlink:href="#mcb5a0ca79f" x="544.090213" y="64.190397" style="fill: #ffffff; fill-opacity: 0.7; stroke: #a52a2a; stroke-opacity: 0.7; stroke-width: 0.75"/>
     <use xlink:href="#mcb5a0ca79f" x="551.437726" y="49.68969" style="fill: #ffffff; fill-opacity: 0.7; stroke: #a52a2a; stroke-opacity: 0.7; stroke-width: 0.75"/>
     <use xlink:href="#mcb5a0ca79f" x="558.785239" y="39.940593" style="fill: #ffffff; fill-opacity: 0.7; stroke: #a52a2a; stroke-opacity: 0.7; stroke-width: 0.75"/>
    </g>
   </g>
   <g id="line2d_56">
    <path d="M 73.849388 320.999477 
L 81.196901 317.412894 
L 88.544414 316.73272 
L 95.891927 314.54682 
L 103.239439 313.170176 
L 110.586952 313.013989 
L 117.934465 306.430616 
L 125.281978 304.647739 
L 132.629491 304.215834 
L 139.977004 303.292919 
L 147.324517 301.173474 
L 154.67203 300.914802 
L 162.019543 291.701071 
L 169.367056 289.671739 
L 176.714568 288.188789 
L 184.062081 287.522128 
L 191.409594 282.966734 
L 198.757107 276.926888 
L 206.10462 269.895907 
L 213.452133 262.641351 
L 220.799646 261.279159 
L 228.147159 260.132226 
L 235.494672 259.969859 
L 242.842185 258.616348 
L 250.189697 253.555219 
L 257.53721 241.107024 
L 264.884723 239.609179 
L 272.232236 234.306606 
L 279.579749 234.129177 
L 286.927262 233.893741 
L 294.274775 229.511218 
L 301.622288 225.916181 
L 308.969801 224.547135 
L 316.317314 222.23412 
L 323.664826 220.958787 
L 331.012339 218.342824 
L 338.359852 214.440324 
L 345.707365 214.131478 
L 353.054878 212.723589 
L 360.402391 212.525362 
L 367.749904 208.269756 
L 375.097417 206.596708 
L 382.44493 198.886808 
L 389.792443 194.885444 
L 397.139955 190.908061 
L 404.487468 188.73019 
L 411.834981 183.38674 
L 419.182494 182.830775 
L 426.530007 173.654719 
L 433.87752 170.453549 
L 441.225033 169.361382 
L 448.572546 167.477557 
L 455.920059 159.983599 
L 463.267571 156.500972 
L 470.615084 155.573068 
L 477.962597 152.528758 
L 485.31011 149.243466 
L 492.657623 148.172292 
L 500.005136 135.818451 
L 507.352649 125.278399 
L 514.700162 119.891966 
L 522.047675 112.183995 
L 529.395188 111.04528 
L 536.7427 108.687351 
L 544.090213 103.821025 
L 551.437726 96.205968 
L 558.785239 66.603167 
" clip-path="url(#p2eedf278f7)" style="fill: none; stroke: #ffa500; stroke-opacity: 0.7; stroke-linecap: square"/>
    <defs>
     <path id="m58ce7ec084" d="M -0 3.535534 
L 3.535534 0 
L 0 -3.535534 
L -3.535534 -0 
z
" style="stroke: #ffa500; stroke-opacity: 0.7; stroke-width: 0.75; stroke-linejoin: miter"/>
    </defs>
    <g clip-path="url(#p2eedf278f7)">
     <use xlink:href="#m58ce7ec084" x="73.849388" y="320.999477" style="fill: #ffffff; fill-opacity: 0.7; stroke: #ffa500; stroke-opacity: 0.7; stroke-width: 0.75; stroke-linejoin: miter"/>
     <use xlink:href="#m58ce7ec084" x="81.196901" y="317.412894" style="fill: #ffffff; fill-opacity: 0.7; stroke: #ffa500; stroke-opacity: 0.7; stroke-width: 0.75; stroke-linejoin: miter"/>
     <use xlink:href="#m58ce7ec084" x="88.544414" y="316.73272" style="fill: #ffffff; fill-opacity: 0.7; stroke: #ffa500; stroke-opacity: 0.7; stroke-width: 0.75; stroke-linejoin: miter"/>
     <use xlink:href="#m58ce7ec084" x="95.891927" y="314.54682" style="fill: #ffffff; fill-opacity: 0.7; stroke: #ffa500; stroke-opacity: 0.7; stroke-width: 0.75; stroke-linejoin: miter"/>
     <use xlink:href="#m58ce7ec084" x="103.239439" y="313.170176" style="fill: #ffffff; fill-opacity: 0.7; stroke: #ffa500; stroke-opacity: 0.7; stroke-width: 0.75; stroke-linejoin: miter"/>
     <use xlink:href="#m58ce7ec084" x="110.586952" y="313.013989" style="fill: #ffffff; fill-opacity: 0.7; stroke: #ffa500; stroke-opacity: 0.7; stroke-width: 0.75; stroke-linejoin: miter"/>
     <use xlink:href="#m58ce7ec084" x="117.934465" y="306.430616" style="fill: #ffffff; fill-opacity: 0.7; stroke: #ffa500; stroke-opacity: 0.7; stroke-width: 0.75; stroke-linejoin: miter"/>
     <use xlink:href="#m58ce7ec084" x="125.281978" y="304.647739" style="fill: #ffffff; fill-opacity: 0.7; stroke: #ffa500; stroke-opacity: 0.7; stroke-width: 0.75; stroke-linejoin: miter"/>
     <use xlink:href="#m58ce7ec084" x="132.629491" y="304.215834" style="fill: #ffffff; fill-opacity: 0.7; stroke: #ffa500; stroke-opacity: 0.7; stroke-width: 0.75; stroke-linejoin: miter"/>
     <use xlink:href="#m58ce7ec084" x="139.977004" y="303.292919" style="fill: #ffffff; fill-opacity: 0.7; stroke: #ffa500; stroke-opacity: 0.7; stroke-width: 0.75; stroke-linejoin: miter"/>
     <use xlink:href="#m58ce7ec084" x="147.324517" y="301.173474" style="fill: #ffffff; fill-opacity: 0.7; stroke: #ffa500; stroke-opacity: 0.7; stroke-width: 0.75; stroke-linejoin: miter"/>
     <use xlink:href="#m58ce7ec084" x="154.67203" y="300.914802" style="fill: #ffffff; fill-opacity: 0.7; stroke: #ffa500; stroke-opacity: 0.7; stroke-width: 0.75; stroke-linejoin: miter"/>
     <use xlink:href="#m58ce7ec084" x="162.019543" y="291.701071" style="fill: #ffffff; fill-opacity: 0.7; stroke: #ffa500; stroke-opacity: 0.7; stroke-width: 0.75; stroke-linejoin: miter"/>
     <use xlink:href="#m58ce7ec084" x="169.367056" y="289.671739" style="fill: #ffffff; fill-opacity: 0.7; stroke: #ffa500; stroke-opacity: 0.7; stroke-width: 0.75; stroke-linejoin: miter"/>
     <use xlink:href="#m58ce7ec084" x="176.714568" y="288.188789" style="fill: #ffffff; fill-opacity: 0.7; stroke: #ffa500; stroke-opacity: 0.7; stroke-width: 0.75; stroke-linejoin: miter"/>
     <use xlink:href="#m58ce7ec084" x="184.062081" y="287.522128" style="fill: #ffffff; fill-opacity: 0.7; stroke: #ffa500; stroke-opacity: 0.7; stroke-width: 0.75; stroke-linejoin: miter"/>
     <use xlink:href="#m58ce7ec084" x="191.409594" y="282.966734" style="fill: #ffffff; fill-opacity: 0.7; stroke: #ffa500; stroke-opacity: 0.7; stroke-width: 0.75; stroke-linejoin: miter"/>
     <use xlink:href="#m58ce7ec084" x="198.757107" y="276.926888" style="fill: #ffffff; fill-opacity: 0.7; stroke: #ffa500; stroke-opacity: 0.7; stroke-width: 0.75; stroke-linejoin: miter"/>
     <use xlink:href="#m58ce7ec084" x="206.10462" y="269.895907" style="fill: #ffffff; fill-opacity: 0.7; stroke: #ffa500; stroke-opacity: 0.7; stroke-width: 0.75; stroke-linejoin: miter"/>
     <use xlink:href="#m58ce7ec084" x="213.452133" y="262.641351" style="fill: #ffffff; fill-opacity: 0.7; stroke: #ffa500; stroke-opacity: 0.7; stroke-width: 0.75; stroke-linejoin: miter"/>
     <use xlink:href="#m58ce7ec084" x="220.799646" y="261.279159" style="fill: #ffffff; fill-opacity: 0.7; stroke: #ffa500; stroke-opacity: 0.7; stroke-width: 0.75; stroke-linejoin: miter"/>
     <use xlink:href="#m58ce7ec084" x="228.147159" y="260.132226" style="fill: #ffffff; fill-opacity: 0.7; stroke: #ffa500; stroke-opacity: 0.7; stroke-width: 0.75; stroke-linejoin: miter"/>
     <use xlink:href="#m58ce7ec084" x="235.494672" y="259.969859" style="fill: #ffffff; fill-opacity: 0.7; stroke: #ffa500; stroke-opacity: 0.7; stroke-width: 0.75; stroke-linejoin: miter"/>
     <use xlink:href="#m58ce7ec084" x="242.842185" y="258.616348" style="fill: #ffffff; fill-opacity: 0.7; stroke: #ffa500; stroke-opacity: 0.7; stroke-width: 0.75; stroke-linejoin: miter"/>
     <use xlink:href="#m58ce7ec084" x="250.189697" y="253.555219" style="fill: #ffffff; fill-opacity: 0.7; stroke: #ffa500; stroke-opacity: 0.7; stroke-width: 0.75; stroke-linejoin: miter"/>
     <use xlink:href="#m58ce7ec084" x="257.53721" y="241.107024" style="fill: #ffffff; fill-opacity: 0.7; stroke: #ffa500; stroke-opacity: 0.7; stroke-width: 0.75; stroke-linejoin: miter"/>
     <use xlink:href="#m58ce7ec084" x="264.884723" y="239.609179" style="fill: #ffffff; fill-opacity: 0.7; stroke: #ffa500; stroke-opacity: 0.7; stroke-width: 0.75; stroke-linejoin: miter"/>
     <use xlink:href="#m58ce7ec084" x="272.232236" y="234.306606" style="fill: #ffffff; fill-opacity: 0.7; stroke: #ffa500; stroke-opacity: 0.7; stroke-width: 0.75; stroke-linejoin: miter"/>
     <use xlink:href="#m58ce7ec084" x="279.579749" y="234.129177" style="fill: #ffffff; fill-opacity: 0.7; stroke: #ffa500; stroke-opacity: 0.7; stroke-width: 0.75; stroke-linejoin: miter"/>
     <use xlink:href="#m58ce7ec084" x="286.927262" y="233.893741" style="fill: #ffffff; fill-opacity: 0.7; stroke: #ffa500; stroke-opacity: 0.7; stroke-width: 0.75; stroke-linejoin: miter"/>
     <use xlink:href="#m58ce7ec084" x="294.274775" y="229.511218" style="fill: #ffffff; fill-opacity: 0.7; stroke: #ffa500; stroke-opacity: 0.7; stroke-width: 0.75; stroke-linejoin: miter"/>
     <use xlink:href="#m58ce7ec084" x="301.622288" y="225.916181" style="fill: #ffffff; fill-opacity: 0.7; stroke: #ffa500; stroke-opacity: 0.7; stroke-width: 0.75; stroke-linejoin: miter"/>
     <use xlink:href="#m58ce7ec084" x="308.969801" y="224.547135" style="fill: #ffffff; fill-opacity: 0.7; stroke: #ffa500; stroke-opacity: 0.7; stroke-width: 0.75; stroke-linejoin: miter"/>
     <use xlink:href="#m58ce7ec084" x="316.317314" y="222.23412" style="fill: #ffffff; fill-opacity: 0.7; stroke: #ffa500; stroke-opacity: 0.7; stroke-width: 0.75; stroke-linejoin: miter"/>
     <use xlink:href="#m58ce7ec084" x="323.664826" y="220.958787" style="fill: #ffffff; fill-opacity: 0.7; stroke: #ffa500; stroke-opacity: 0.7; stroke-width: 0.75; stroke-linejoin: miter"/>
     <use xlink:href="#m58ce7ec084" x="331.012339" y="218.342824" style="fill: #ffffff; fill-opacity: 0.7; stroke: #ffa500; stroke-opacity: 0.7; stroke-width: 0.75; stroke-linejoin: miter"/>
     <use xlink:href="#m58ce7ec084" x="338.359852" y="214.440324" style="fill: #ffffff; fill-opacity: 0.7; stroke: #ffa500; stroke-opacity: 0.7; stroke-width: 0.75; stroke-linejoin: miter"/>
     <use xlink:href="#m58ce7ec084" x="345.707365" y="214.131478" style="fill: #ffffff; fill-opacity: 0.7; stroke: #ffa500; stroke-opacity: 0.7; stroke-width: 0.75; stroke-linejoin: miter"/>
     <use xlink:href="#m58ce7ec084" x="353.054878" y="212.723589" style="fill: #ffffff; fill-opacity: 0.7; stroke: #ffa500; stroke-opacity: 0.7; stroke-width: 0.75; stroke-linejoin: miter"/>
     <use xlink:href="#m58ce7ec084" x="360.402391" y="212.525362" style="fill: #ffffff; fill-opacity: 0.7; stroke: #ffa500; stroke-opacity: 0.7; stroke-width: 0.75; stroke-linejoin: miter"/>
     <use xlink:href="#m58ce7ec084" x="367.749904" y="208.269756" style="fill: #ffffff; fill-opacity: 0.7; stroke: #ffa500; stroke-opacity: 0.7; stroke-width: 0.75; stroke-linejoin: miter"/>
     <use xlink:href="#m58ce7ec084" x="375.097417" y="206.596708" style="fill: #ffffff; fill-opacity: 0.7; stroke: #ffa500; stroke-opacity: 0.7; stroke-width: 0.75; stroke-linejoin: miter"/>
     <use xlink:href="#m58ce7ec084" x="382.44493" y="198.886808" style="fill: #ffffff; fill-opacity: 0.7; stroke: #ffa500; stroke-opacity: 0.7; stroke-width: 0.75; stroke-linejoin: miter"/>
     <use xlink:href="#m58ce7ec084" x="389.792443" y="194.885444" style="fill: #ffffff; fill-opacity: 0.7; stroke: #ffa500; stroke-opacity: 0.7; stroke-width: 0.75; stroke-linejoin: miter"/>
     <use xlink:href="#m58ce7ec084" x="397.139955" y="190.908061" style="fill: #ffffff; fill-opacity: 0.7; stroke: #ffa500; stroke-opacity: 0.7; stroke-width: 0.75; stroke-linejoin: miter"/>
     <use xlink:href="#m58ce7ec084" x="404.487468" y="188.73019" style="fill: #ffffff; fill-opacity: 0.7; stroke: #ffa500; stroke-opacity: 0.7; stroke-width: 0.75; stroke-linejoin: miter"/>
     <use xlink:href="#m58ce7ec084" x="411.834981" y="183.38674" style="fill: #ffffff; fill-opacity: 0.7; stroke: #ffa500; stroke-opacity: 0.7; stroke-width: 0.75; stroke-linejoin: miter"/>
     <use xlink:href="#m58ce7ec084" x="419.182494" y="182.830775" style="fill: #ffffff; fill-opacity: 0.7; stroke: #ffa500; stroke-opacity: 0.7; stroke-width: 0.75; stroke-linejoin: miter"/>
     <use xlink:href="#m58ce7ec084" x="426.530007" y="173.654719" style="fill: #ffffff; fill-opacity: 0.7; stroke: #ffa500; stroke-opacity: 0.7; stroke-width: 0.75; stroke-linejoin: miter"/>
     <use xlink:href="#m58ce7ec084" x="433.87752" y="170.453549" style="fill: #ffffff; fill-opacity: 0.7; stroke: #ffa500; stroke-opacity: 0.7; stroke-width: 0.75; stroke-linejoin: miter"/>
     <use xlink:href="#m58ce7ec084" x="441.225033" y="169.361382" style="fill: #ffffff; fill-opacity: 0.7; stroke: #ffa500; stroke-opacity: 0.7; stroke-width: 0.75; stroke-linejoin: miter"/>
     <use xlink:href="#m58ce7ec084" x="448.572546" y="167.477557" style="fill: #ffffff; fill-opacity: 0.7; stroke: #ffa500; stroke-opacity: 0.7; stroke-width: 0.75; stroke-linejoin: miter"/>
     <use xlink:href="#m58ce7ec084" x="455.920059" y="159.983599" style="fill: #ffffff; fill-opacity: 0.7; stroke: #ffa500; stroke-opacity: 0.7; stroke-width: 0.75; stroke-linejoin: miter"/>
     <use xlink:href="#m58ce7ec084" x="463.267571" y="156.500972" style="fill: #ffffff; fill-opacity: 0.7; stroke: #ffa500; stroke-opacity: 0.7; stroke-width: 0.75; stroke-linejoin: miter"/>
     <use xlink:href="#m58ce7ec084" x="470.615084" y="155.573068" style="fill: #ffffff; fill-opacity: 0.7; stroke: #ffa500; stroke-opacity: 0.7; stroke-width: 0.75; stroke-linejoin: miter"/>
     <use xlink:href="#m58ce7ec084" x="477.962597" y="152.528758" style="fill: #ffffff; fill-opacity: 0.7; stroke: #ffa500; stroke-opacity: 0.7; stroke-width: 0.75; stroke-linejoin: miter"/>
     <use xlink:href="#m58ce7ec084" x="485.31011" y="149.243466" style="fill: #ffffff; fill-opacity: 0.7; stroke: #ffa500; stroke-opacity: 0.7; stroke-width: 0.75; stroke-linejoin: miter"/>
     <use xlink:href="#m58ce7ec084" x="492.657623" y="148.172292" style="fill: #ffffff; fill-opacity: 0.7; stroke: #ffa500; stroke-opacity: 0.7; stroke-width: 0.75; stroke-linejoin: miter"/>
     <use xlink:href="#m58ce7ec084" x="500.005136" y="135.818451" style="fill: #ffffff; fill-opacity: 0.7; stroke: #ffa500; stroke-opacity: 0.7; stroke-width: 0.75; stroke-linejoin: miter"/>
     <use xlink:href="#m58ce7ec084" x="507.352649" y="125.278399" style="fill: #ffffff; fill-opacity: 0.7; stroke: #ffa500; stroke-opacity: 0.7; stroke-width: 0.75; stroke-linejoin: miter"/>
     <use xlink:href="#m58ce7ec084" x="514.700162" y="119.891966" style="fill: #ffffff; fill-opacity: 0.7; stroke: #ffa500; stroke-opacity: 0.7; stroke-width: 0.75; stroke-linejoin: miter"/>
     <use xlink:href="#m58ce7ec084" x="522.047675" y="112.183995" style="fill: #ffffff; fill-opacity: 0.7; stroke: #ffa500; stroke-opacity: 0.7; stroke-width: 0.75; stroke-linejoin: miter"/>
     <use xlink:href="#m58ce7ec084" x="529.395188" y="111.04528" style="fill: #ffffff; fill-opacity: 0.7; stroke: #ffa500; stroke-opacity: 0.7; stroke-width: 0.75; stroke-linejoin: miter"/>
     <use xlink:href="#m58ce7ec084" x="536.7427" y="108.687351" style="fill: #ffffff; fill-opacity: 0.7; stroke: #ffa500; stroke-opacity: 0.7; stroke-width: 0.75; stroke-linejoin: miter"/>
     <use xlink:href="#m58ce7ec084" x="544.090213" y="103.821025" style="fill: #ffffff; fill-opacity: 0.7; stroke: #ffa500; stroke-opacity: 0.7; stroke-width: 0.75; stroke-linejoin: miter"/>
     <use xlink:href="#m58ce7ec084" x="551.437726" y="96.205968" style="fill: #ffffff; fill-opacity: 0.7; stroke: #ffa500; stroke-opacity: 0.7; stroke-width: 0.75; stroke-linejoin: miter"/>
     <use xlink:href="#m58ce7ec084" x="558.785239" y="66.603167" style="fill: #ffffff; fill-opacity: 0.7; stroke: #ffa500; stroke-opacity: 0.7; stroke-width: 0.75; stroke-linejoin: miter"/>
    </g>
   </g>
   <g id="legend_1">
    <g id="patch_7">
     <path d="M 81.101875 151.22 
L 431.6125 151.22 
Q 435.2125 151.22 435.2125 147.62 
L 435.2125 21.8 
Q 435.2125 18.2 431.6125 18.2 
L 81.101875 18.2 
Q 77.501875 18.2 77.501875 21.8 
L 77.501875 147.62 
Q 77.501875 151.22 81.101875 151.22 
z
" style="fill: #4c4c4c; opacity: 0.5; stroke: #4c4c4c; stroke-linejoin: miter"/>
    </g>
    <g id="patch_8">
     <path d="M 79.101875 149.22 
L 429.6125 149.22 
Q 433.2125 149.22 433.2125 145.62 
L 433.2125 19.8 
Q 433.2125 16.2 429.6125 16.2 
L 79.101875 16.2 
Q 75.501875 16.2 75.501875 19.8 
L 75.501875 145.62 
Q 75.501875 149.22 79.101875 149.22 
z
" style="fill: #ffffff; stroke: #000000; stroke-linejoin: miter"/>
    </g>
    <g id="line2d_57">
     <path d="M 82.701875 29.7 
L 100.701875 29.7 
L 118.701875 29.7 
" style="fill: none; stroke: #008000; stroke-opacity: 0.7; stroke-width: 2; stroke-linecap: square"/>
    </g>
    <g id="text_14">
     <!-- sequence31_run, 8 -->
     <g transform="translate(133.101875 36) scale(0.18 -0.18)">
      <defs>
       <path id="Times-Roman-71" d="M 1525 334 
Q 1600 334 1726 359 
Q 1853 384 1963 444 
Q 2113 525 2144 587 
Q 2175 650 2175 822 
L 2175 2141 
Q 2175 2388 2100 2525 
Q 1959 2775 1569 2775 
Q 1125 2775 914 2408 
Q 703 2041 703 1569 
Q 703 1016 917 675 
Q 1131 334 1525 334 
z
M 1597 2947 
Q 1809 2947 1972 2888 
Q 2081 2850 2303 2725 
L 2650 2931 
Q 2678 2944 2694 2947 
Q 2709 2934 2712 2928 
Q 2716 2922 2716 2888 
L 2716 -913 
Q 2716 -1078 2775 -1159 
Q 2866 -1281 3125 -1306 
L 3125 -1394 
L 1613 -1394 
L 1613 -1291 
Q 1891 -1288 2027 -1197 
Q 2163 -1106 2163 -794 
L 2163 397 
Q 1944 181 1784 88 
Q 1522 -66 1194 -66 
Q 803 -66 478 295 
Q 153 656 153 1356 
Q 153 2000 554 2473 
Q 956 2947 1597 2947 
z
" transform="scale(0.015625)"/>
       <path id="Times-Roman-75" d="M 991 2894 
L 991 894 
Q 991 681 1050 553 
Q 1166 316 1475 316 
Q 1688 316 1891 456 
Q 2006 534 2125 672 
L 2125 2384 
Q 2125 2625 2031 2700 
Q 1938 2775 1656 2791 
L 1656 2894 
L 2666 2894 
L 2666 694 
Q 2666 481 2742 401 
Q 2819 322 3066 331 
L 3066 244 
Q 2894 197 2812 173 
Q 2731 150 2541 88 
Q 2459 59 2184 -47 
Q 2169 -47 2166 -33 
Q 2163 -19 2163 0 
L 2163 503 
Q 1950 250 1775 128 
Q 1509 -59 1213 -59 
Q 941 -59 700 134 
Q 456 325 456 775 
L 456 2397 
Q 456 2647 350 2731 
Q 281 2784 56 2806 
L 56 2894 
L 991 2894 
z
M 1603 2931 
L 1603 2931 
z
" transform="scale(0.015625)"/>
       <path id="Times-Roman-5f" d="M 0 -800 
L 0 -484 
L 3197 -484 
L 3197 -800 
L 0 -800 
z
" transform="scale(0.015625)"/>
       <path id="Times-Roman-72" d="M 28 103 
Q 316 128 409 204 
Q 503 281 503 531 
L 503 1941 
Q 503 2250 445 2383 
Q 388 2516 234 2516 
Q 203 2516 151 2508 
Q 100 2500 44 2488 
L 44 2591 
Q 222 2653 409 2718 
Q 597 2784 669 2813 
Q 825 2872 991 2947 
Q 1013 2947 1017 2931 
Q 1022 2916 1022 2866 
L 1022 2353 
Q 1222 2631 1408 2787 
Q 1594 2944 1794 2944 
Q 1953 2944 2053 2848 
Q 2153 2753 2153 2609 
Q 2153 2481 2076 2393 
Q 2000 2306 1884 2306 
Q 1766 2306 1645 2415 
Q 1525 2525 1456 2525 
Q 1347 2525 1187 2348 
Q 1028 2172 1028 1984 
L 1028 575 
Q 1028 306 1153 201 
Q 1278 97 1569 103 
L 1569 0 
L 28 0 
L 28 103 
z
" transform="scale(0.015625)"/>
       <path id="Times-Roman-2c" d="M 1569 66 
Q 1569 -250 1341 -522 
Q 1113 -794 850 -913 
L 791 -788 
Q 1091 -619 1205 -422 
Q 1319 -225 1319 -94 
Q 1319 -50 1291 -37 
Q 1263 -25 1231 -25 
L 1022 -47 
Q 891 -47 781 39 
Q 672 125 672 288 
Q 672 413 762 531 
Q 853 650 1059 650 
Q 1256 650 1412 495 
Q 1569 341 1569 66 
z
" transform="scale(0.015625)"/>
       <path id="Times-Roman-38" d="M 1609 106 
Q 1969 106 2153 306 
Q 2338 506 2338 806 
Q 2338 1147 2142 1358 
Q 1947 1569 1341 1997 
Q 1072 1828 950 1559 
Q 828 1291 828 1041 
Q 828 613 1048 359 
Q 1269 106 1609 106 
z
M 1650 2494 
Q 1944 2700 2056 2841 
Q 2250 3081 2250 3422 
Q 2250 3719 2067 3926 
Q 1884 4134 1513 4134 
Q 1225 4134 1037 3953 
Q 850 3772 850 3513 
Q 850 3219 1070 2967 
Q 1291 2716 1650 2494 
z
M 1169 2131 
Q 756 2463 606 2659 
Q 375 2959 375 3322 
Q 375 3734 717 4021 
Q 1059 4309 1606 4309 
Q 2109 4309 2406 4037 
Q 2703 3766 2703 3406 
Q 2703 3041 2400 2750 
Q 2225 2584 1834 2369 
Q 2366 1975 2595 1683 
Q 2825 1391 2825 994 
Q 2825 544 2486 237 
Q 2147 -69 1578 -69 
Q 1069 -69 705 214 
Q 341 497 341 959 
Q 341 1356 594 1659 
Q 759 1856 1169 2131 
z
" transform="scale(0.015625)"/>
      </defs>
      <use xlink:href="#Times-Roman-73"/>
      <use xlink:href="#Times-Roman-65" x="38.916016"/>
      <use xlink:href="#Times-Roman-71" x="83.300781"/>
      <use xlink:href="#Times-Roman-75" x="133.300781"/>
      <use xlink:href="#Times-Roman-65" x="183.300781"/>
      <use xlink:href="#Times-Roman-6e" x="227.685547"/>
      <use xlink:href="#Times-Roman-63" x="277.685547"/>
      <use xlink:href="#Times-Roman-65" x="322.070312"/>
      <use xlink:href="#Times-Roman-33" x="366.455078"/>
      <use xlink:href="#Times-Roman-31" x="416.455078"/>
      <use xlink:href="#Times-Roman-5f" x="466.455078"/>
      <use xlink:href="#Times-Roman-72" x="516.455078"/>
      <use xlink:href="#Times-Roman-75" x="549.755859"/>
      <use xlink:href="#Times-Roman-6e" x="599.755859"/>
      <use xlink:href="#Times-Roman-2c" x="649.755859"/>
      <use xlink:href="#Times-Roman-20" x="674.755859"/>
      <use xlink:href="#Times-Roman-38" x="699.755859"/>
     </g>
    </g>
    <g id="line2d_58">
     <path d="M 82.701875 55.220625 
L 100.701875 55.220625 
L 118.701875 55.220625 
" style="fill: none; stroke-dasharray: 7.4,3.2; stroke-dashoffset: 0; stroke: #ff0000; stroke-opacity: 0.7; stroke-width: 2"/>
    </g>
    <g id="text_15">
     <!-- dynamic_add_last_1.3_run, 8 -->
     <g transform="translate(133.101875 61.520625) scale(0.18 -0.18)">
      <defs>
       <path id="Times-Roman-64" d="M 1516 2953 
Q 1744 2953 1934 2853 
Q 2059 2788 2175 2672 
L 2175 3666 
Q 2175 3856 2133 3928 
Q 2091 4000 1931 4000 
Q 1894 4000 1866 3997 
Q 1838 3994 1741 3984 
L 1741 4088 
L 1997 4153 
Q 2138 4191 2278 4231 
Q 2419 4272 2525 4309 
Q 2575 4325 2691 4369 
L 2709 4363 
L 2703 4034 
Q 2700 3856 2697 3667 
Q 2694 3478 2694 3294 
L 2688 741 
Q 2688 538 2738 456 
Q 2788 375 3003 375 
Q 3038 375 3072 376 
Q 3106 378 3141 384 
L 3141 281 
Q 3122 275 2688 125 
L 2197 -59 
L 2175 -31 
L 2175 353 
Q 2000 163 1872 81 
Q 1644 -59 1344 -59 
Q 813 -59 483 352 
Q 153 763 153 1303 
Q 153 1981 548 2467 
Q 944 2953 1516 2953 
z
M 1631 278 
Q 1875 278 2025 422 
Q 2175 566 2175 694 
L 2175 2034 
Q 2175 2441 1958 2608 
Q 1741 2775 1534 2775 
Q 1141 2775 922 2426 
Q 703 2078 703 1569 
Q 703 1066 936 672 
Q 1169 278 1631 278 
z
" transform="scale(0.015625)"/>
       <path id="Times-Roman-79" d="M 88 2872 
L 1406 2872 
L 1406 2775 
Q 1250 2772 1175 2747 
Q 1031 2706 1031 2588 
Q 1031 2544 1047 2498 
Q 1063 2453 1103 2363 
L 1834 741 
L 2422 2375 
Q 2431 2400 2451 2487 
Q 2472 2575 2472 2606 
Q 2472 2688 2415 2725 
Q 2359 2763 2272 2769 
L 2175 2775 
L 2175 2872 
L 3034 2872 
L 3034 2775 
Q 2906 2759 2842 2687 
Q 2778 2616 2731 2488 
L 1747 -119 
Q 1491 -794 1256 -1097 
Q 1022 -1400 663 -1400 
Q 488 -1400 334 -1312 
Q 181 -1225 181 -1034 
Q 181 -909 273 -829 
Q 366 -750 506 -750 
Q 588 -750 748 -809 
Q 909 -869 978 -869 
Q 1153 -869 1347 -462 
Q 1541 -56 1541 81 
Q 1541 109 1531 150 
Q 1522 191 1509 222 
L 509 2384 
Q 403 2616 323 2689 
Q 244 2763 88 2784 
L 88 2872 
z
M 1575 2931 
L 1575 2931 
z
" transform="scale(0.015625)"/>
       <path id="Times-Roman-6c" d="M 131 88 
Q 422 116 525 205 
Q 628 294 628 553 
L 628 3606 
Q 628 3813 594 3891 
Q 531 4022 341 4022 
Q 297 4022 245 4012 
Q 194 4003 116 3984 
L 116 4088 
Q 538 4200 1131 4388 
Q 1153 4388 1158 4369 
Q 1163 4350 1163 4288 
L 1163 541 
Q 1163 269 1256 189 
Q 1350 109 1644 88 
L 1644 0 
L 131 0 
L 131 88 
z
" transform="scale(0.015625)"/>
       <path id="Times-Roman-2e" d="M 1044 -75 
Q 894 -75 791 29 
Q 688 134 688 281 
Q 688 428 792 531 
Q 897 634 1044 634 
Q 1191 634 1294 531 
Q 1397 428 1397 281 
Q 1397 134 1295 29 
Q 1194 -75 1044 -75 
z
" transform="scale(0.015625)"/>
      </defs>
      <use xlink:href="#Times-Roman-64"/>
      <use xlink:href="#Times-Roman-79" x="50"/>
      <use xlink:href="#Times-Roman-6e" x="100"/>
      <use xlink:href="#Times-Roman-61" x="150"/>
      <use xlink:href="#Times-Roman-6d" x="194.384766"/>
      <use xlink:href="#Times-Roman-69" x="272.167969"/>
      <use xlink:href="#Times-Roman-63" x="299.951172"/>
      <use xlink:href="#Times-Roman-5f" x="344.335938"/>
      <use xlink:href="#Times-Roman-61" x="394.335938"/>
      <use xlink:href="#Times-Roman-64" x="438.720703"/>
      <use xlink:href="#Times-Roman-64" x="488.720703"/>
      <use xlink:href="#Times-Roman-5f" x="538.720703"/>
      <use xlink:href="#Times-Roman-6c" x="588.720703"/>
      <use xlink:href="#Times-Roman-61" x="616.503906"/>
      <use xlink:href="#Times-Roman-73" x="660.888672"/>
      <use xlink:href="#Times-Roman-74" x="699.804688"/>
      <use xlink:href="#Times-Roman-5f" x="727.587891"/>
      <use xlink:href="#Times-Roman-31" x="777.587891"/>
      <use xlink:href="#Times-Roman-2e" x="827.587891"/>
      <use xlink:href="#Times-Roman-33" x="852.587891"/>
      <use xlink:href="#Times-Roman-5f" x="902.587891"/>
      <use xlink:href="#Times-Roman-72" x="952.587891"/>
      <use xlink:href="#Times-Roman-75" x="985.888672"/>
      <use xlink:href="#Times-Roman-6e" x="1035.888672"/>
      <use xlink:href="#Times-Roman-2c" x="1085.888672"/>
      <use xlink:href="#Times-Roman-20" x="1110.888672"/>
      <use xlink:href="#Times-Roman-38" x="1135.888672"/>
     </g>
    </g>
    <g id="line2d_59">
     <path d="M 82.701875 80.758125 
L 100.701875 80.758125 
L 118.701875 80.758125 
" style="fill: none; stroke: #0000ff; stroke-opacity: 0.7; stroke-linecap: square"/>
     <g>
      <use xlink:href="#m57677f9bbb" x="100.701875" y="80.758125" style="fill: #ffffff; fill-opacity: 0.7; stroke: #0000ff; stroke-opacity: 0.7; stroke-width: 0.75"/>
     </g>
    </g>
    <g id="text_16">
     <!-- bdd_wavelength_constraint_run3, 8 -->
     <g transform="translate(133.101875 87.058125) scale(0.18 -0.18)">
      <defs>
       <path id="Times-Roman-62" d="M 22 3975 
L 22 4081 
Q 378 4163 662 4263 
Q 947 4363 969 4363 
Q 975 4344 975 4325 
L 975 2422 
Q 1056 2572 1219 2706 
Q 1506 2941 1881 2941 
Q 2341 2941 2666 2553 
Q 2991 2166 2991 1547 
Q 2991 884 2569 412 
Q 2147 -59 1459 -59 
Q 1113 -59 778 78 
Q 444 216 444 353 
L 444 3656 
Q 444 3838 394 3914 
Q 344 3991 163 3991 
L 22 3975 
z
M 963 456 
Q 991 294 1206 223 
Q 1422 153 1584 153 
Q 2022 153 2233 481 
Q 2444 809 2444 1275 
Q 2444 1741 2247 2136 
Q 2050 2531 1609 2531 
Q 1388 2531 1175 2395 
Q 963 2259 963 2050 
L 963 456 
z
" transform="scale(0.015625)"/>
       <path id="Times-Roman-77" d="M 2975 2806 
Q 2788 2784 2697 2743 
Q 2606 2703 2606 2581 
Q 2606 2516 2626 2445 
Q 2647 2375 2681 2281 
L 3250 797 
L 3806 2153 
Q 3844 2241 3887 2383 
Q 3931 2525 3931 2597 
Q 3931 2713 3859 2753 
Q 3788 2794 3650 2813 
L 3650 2903 
L 4444 2903 
L 4444 2813 
Q 4366 2797 4316 2737 
Q 4266 2678 4175 2456 
L 3175 -9 
Q 3163 -38 3153 -50 
Q 3144 -63 3125 -63 
Q 3088 -44 3081 -31 
L 2375 1716 
L 1553 -25 
Q 1547 -41 1536 -52 
Q 1525 -63 1509 -63 
Q 1472 -44 1466 -31 
L 531 2272 
Q 378 2650 328 2717 
Q 278 2784 131 2806 
L 131 2903 
L 1288 2903 
L 1288 2806 
Q 1144 2794 1067 2755 
Q 991 2716 991 2588 
Q 991 2497 1119 2144 
Q 1194 1941 1309 1650 
L 1666 763 
L 2228 1969 
L 2234 2006 
Q 2234 2069 2167 2239 
Q 2100 2409 2038 2544 
Q 1975 2684 1895 2739 
Q 1816 2794 1672 2806 
L 1672 2903 
L 2975 2903 
L 2975 2806 
z
" transform="scale(0.015625)"/>
       <path id="Times-Roman-76" d="M 1375 2903 
L 1375 2806 
Q 1213 2788 1145 2756 
Q 1078 2725 1078 2619 
Q 1078 2569 1092 2523 
Q 1106 2478 1141 2391 
L 1791 775 
L 2353 2206 
Q 2394 2309 2430 2421 
Q 2466 2534 2466 2594 
Q 2466 2716 2350 2769 
Q 2281 2797 2163 2806 
L 2163 2903 
L 3050 2903 
L 3050 2806 
Q 2897 2794 2830 2705 
Q 2763 2616 2634 2294 
L 1731 44 
Q 1706 -16 1690 -37 
Q 1675 -59 1647 -59 
Q 1616 -59 1594 -23 
Q 1572 13 1547 66 
L 591 2353 
Q 475 2631 344 2731 
Q 266 2788 116 2806 
L 116 2903 
L 1375 2903 
z
" transform="scale(0.015625)"/>
       <path id="Times-Roman-67" d="M 628 -578 
Q 628 -841 923 -941 
Q 1219 -1041 1600 -1041 
Q 2119 -1041 2444 -861 
Q 2769 -681 2769 -419 
Q 2769 -209 2506 -141 
Q 2344 -100 1891 -94 
Q 1775 -91 1647 -86 
Q 1519 -81 1413 -75 
Q 1344 -72 1191 -50 
Q 1038 -28 963 -13 
Q 925 -13 778 -209 
Q 628 -409 628 -578 
z
M 1034 1050 
Q 750 1144 592 1384 
Q 434 1625 434 1925 
Q 434 2291 725 2619 
Q 1016 2947 1547 2947 
Q 1775 2947 2050 2839 
Q 2325 2731 2578 2731 
Q 2644 2731 2776 2736 
Q 2909 2741 2969 2741 
L 3006 2741 
L 3006 2488 
L 2466 2488 
Q 2522 2356 2553 2259 
Q 2606 2078 2606 1916 
Q 2606 1559 2311 1261 
Q 2016 963 1516 963 
Q 1438 963 1234 991 
Q 1144 991 995 837 
Q 847 684 847 588 
Q 847 488 1066 441 
Q 1209 409 1384 409 
Q 2188 409 2475 319 
Q 2947 172 2947 -313 
Q 2947 -806 2395 -1100 
Q 1844 -1394 1281 -1394 
Q 769 -1394 469 -1186 
Q 169 -978 169 -750 
Q 169 -638 248 -530 
Q 328 -422 563 -209 
L 769 -25 
L 806 13 
Q 663 69 591 122 
Q 466 219 466 344 
Q 466 459 573 598 
Q 681 738 1034 1050 
z
M 1628 1113 
Q 1800 1113 1916 1206 
Q 2103 1356 2103 1728 
Q 2103 2025 1951 2397 
Q 1800 2769 1447 2769 
Q 1141 2769 1025 2478 
Q 966 2325 966 2100 
Q 966 1719 1150 1416 
Q 1334 1113 1628 1113 
z
M 1603 2947 
L 1603 2947 
z
" transform="scale(0.015625)"/>
       <path id="Times-Roman-68" d="M 56 88 
Q 313 122 392 214 
Q 472 306 472 650 
L 472 3650 
Q 472 3825 426 3908 
Q 381 3991 206 3991 
Q 172 3991 139 3986 
Q 106 3981 66 3975 
L 66 4088 
Q 203 4128 404 4186 
Q 606 4244 684 4269 
L 984 4363 
L 991 4341 
L 991 2422 
Q 1188 2647 1341 2753 
Q 1616 2941 1934 2941 
Q 2441 2941 2625 2516 
Q 2725 2291 2725 1925 
L 2725 650 
Q 2725 319 2801 219 
Q 2878 119 3116 88 
L 3116 0 
L 1763 0 
L 1763 88 
Q 2034 125 2112 215 
Q 2191 306 2191 650 
L 2191 1916 
Q 2191 2219 2089 2406 
Q 1988 2594 1706 2594 
Q 1463 2594 1234 2419 
Q 1006 2244 1006 2191 
L 1006 650 
Q 1006 300 1087 212 
Q 1169 125 1434 88 
L 1434 0 
L 56 0 
L 56 88 
z
" transform="scale(0.015625)"/>
       <path id="Times-Roman-6f" d="M 163 1450 
Q 163 2072 558 2501 
Q 953 2931 1575 2931 
Q 2194 2931 2600 2525 
Q 3006 2119 3006 1444 
Q 3006 822 2612 362 
Q 2219 -97 1594 -97 
Q 994 -97 578 343 
Q 163 784 163 1450 
z
M 1488 2744 
Q 1241 2744 1059 2581 
Q 747 2297 747 1600 
Q 747 1044 998 562 
Q 1250 81 1697 81 
Q 2047 81 2236 403 
Q 2425 725 2425 1247 
Q 2425 1788 2184 2266 
Q 1944 2744 1488 2744 
z
M 1603 2931 
L 1603 2931 
z
" transform="scale(0.015625)"/>
      </defs>
      <use xlink:href="#Times-Roman-62"/>
      <use xlink:href="#Times-Roman-64" x="50"/>
      <use xlink:href="#Times-Roman-64" x="100"/>
      <use xlink:href="#Times-Roman-5f" x="150"/>
      <use xlink:href="#Times-Roman-77" x="200"/>
      <use xlink:href="#Times-Roman-61" x="272.216797"/>
      <use xlink:href="#Times-Roman-76" x="316.601562"/>
      <use xlink:href="#Times-Roman-65" x="366.601562"/>
      <use xlink:href="#Times-Roman-6c" x="410.986328"/>
      <use xlink:href="#Times-Roman-65" x="438.769531"/>
      <use xlink:href="#Times-Roman-6e" x="483.154297"/>
      <use xlink:href="#Times-Roman-67" x="533.154297"/>
      <use xlink:href="#Times-Roman-74" x="583.154297"/>
      <use xlink:href="#Times-Roman-68" x="610.9375"/>
      <use xlink:href="#Times-Roman-5f" x="660.9375"/>
      <use xlink:href="#Times-Roman-63" x="710.9375"/>
      <use xlink:href="#Times-Roman-6f" x="755.322266"/>
      <use xlink:href="#Times-Roman-6e" x="805.322266"/>
      <use xlink:href="#Times-Roman-73" x="855.322266"/>
      <use xlink:href="#Times-Roman-74" x="894.238281"/>
      <use xlink:href="#Times-Roman-72" x="922.021484"/>
      <use xlink:href="#Times-Roman-61" x="955.322266"/>
      <use xlink:href="#Times-Roman-69" x="999.707031"/>
      <use xlink:href="#Times-Roman-6e" x="1027.490234"/>
      <use xlink:href="#Times-Roman-74" x="1077.490234"/>
      <use xlink:href="#Times-Roman-5f" x="1105.273438"/>
      <use xlink:href="#Times-Roman-72" x="1155.273438"/>
      <use xlink:href="#Times-Roman-75" x="1188.574219"/>
      <use xlink:href="#Times-Roman-6e" x="1238.574219"/>
      <use xlink:href="#Times-Roman-33" x="1288.574219"/>
      <use xlink:href="#Times-Roman-2c" x="1338.574219"/>
      <use xlink:href="#Times-Roman-20" x="1363.574219"/>
      <use xlink:href="#Times-Roman-38" x="1388.574219"/>
     </g>
    </g>
    <g id="line2d_60">
     <path d="M 82.701875 106.27875 
L 100.701875 106.27875 
L 118.701875 106.27875 
" style="fill: none; stroke: #a52a2a; stroke-opacity: 0.7; stroke-linecap: square"/>
     <g>
      <use xlink:href="#mcb5a0ca79f" x="100.701875" y="106.27875" style="fill: #ffffff; fill-opacity: 0.7; stroke: #a52a2a; stroke-opacity: 0.7; stroke-width: 0.75"/>
     </g>
    </g>
    <g id="text_17">
     <!-- bdd_increasing_run2, 8 -->
     <g transform="translate(133.101875 112.57875) scale(0.18 -0.18)">
      <use xlink:href="#Times-Roman-62"/>
      <use xlink:href="#Times-Roman-64" x="50"/>
      <use xlink:href="#Times-Roman-64" x="100"/>
      <use xlink:href="#Times-Roman-5f" x="150"/>
      <use xlink:href="#Times-Roman-69" x="200"/>
      <use xlink:href="#Times-Roman-6e" x="227.783203"/>
      <use xlink:href="#Times-Roman-63" x="277.783203"/>
      <use xlink:href="#Times-Roman-72" x="322.167969"/>
      <use xlink:href="#Times-Roman-65" x="355.46875"/>
      <use xlink:href="#Times-Roman-61" x="399.853516"/>
      <use xlink:href="#Times-Roman-73" x="444.238281"/>
      <use xlink:href="#Times-Roman-69" x="483.154297"/>
      <use xlink:href="#Times-Roman-6e" x="510.9375"/>
      <use xlink:href="#Times-Roman-67" x="560.9375"/>
      <use xlink:href="#Times-Roman-5f" x="610.9375"/>
      <use xlink:href="#Times-Roman-72" x="660.9375"/>
      <use xlink:href="#Times-Roman-75" x="694.238281"/>
      <use xlink:href="#Times-Roman-6e" x="744.238281"/>
      <use xlink:href="#Times-Roman-32" x="794.238281"/>
      <use xlink:href="#Times-Roman-2c" x="844.238281"/>
      <use xlink:href="#Times-Roman-20" x="869.238281"/>
      <use xlink:href="#Times-Roman-38" x="894.238281"/>
     </g>
    </g>
    <g id="line2d_61">
     <path d="M 82.701875 131.799375 
L 100.701875 131.799375 
L 118.701875 131.799375 
" style="fill: none; stroke: #ffa500; stroke-opacity: 0.7; stroke-linecap: square"/>
     <g>
      <use xlink:href="#m58ce7ec084" x="100.701875" y="131.799375" style="fill: #ffffff; fill-opacity: 0.7; stroke: #ffa500; stroke-opacity: 0.7; stroke-width: 0.75; stroke-linejoin: miter"/>
     </g>
    </g>
    <g id="text_18">
     <!-- bdd_baseline_demands_effect_run2-2, 8 -->
     <g transform="translate(133.101875 138.099375) scale(0.18 -0.18)">
      <defs>
       <path id="Times-Roman-66" d="M 125 88 
Q 456 103 561 211 
Q 666 319 666 666 
L 666 2672 
L 131 2672 
L 131 2881 
L 666 2881 
Q 666 3375 800 3716 
Q 1056 4369 1741 4369 
Q 2016 4369 2233 4259 
Q 2450 4150 2450 3966 
Q 2450 3863 2375 3781 
Q 2300 3700 2194 3700 
Q 2103 3700 2037 3754 
Q 1972 3809 1881 3947 
L 1828 4028 
Q 1784 4094 1725 4139 
Q 1666 4184 1559 4184 
Q 1322 4184 1238 3950 
Q 1191 3825 1191 3622 
L 1191 2881 
L 1975 2881 
L 1975 2672 
L 1197 2672 
L 1197 666 
Q 1197 313 1292 214 
Q 1388 116 1791 88 
L 1791 0 
L 125 0 
L 125 88 
z
" transform="scale(0.015625)"/>
       <path id="Times-Roman-2d" d="M 250 1644 
L 1822 1644 
L 1822 1244 
L 250 1244 
L 250 1644 
z
" transform="scale(0.015625)"/>
      </defs>
      <use xlink:href="#Times-Roman-62"/>
      <use xlink:href="#Times-Roman-64" x="50"/>
      <use xlink:href="#Times-Roman-64" x="100"/>
      <use xlink:href="#Times-Roman-5f" x="150"/>
      <use xlink:href="#Times-Roman-62" x="200"/>
      <use xlink:href="#Times-Roman-61" x="250"/>
      <use xlink:href="#Times-Roman-73" x="294.384766"/>
      <use xlink:href="#Times-Roman-65" x="333.300781"/>
      <use xlink:href="#Times-Roman-6c" x="377.685547"/>
      <use xlink:href="#Times-Roman-69" x="405.46875"/>
      <use xlink:href="#Times-Roman-6e" x="433.251953"/>
      <use xlink:href="#Times-Roman-65" x="483.251953"/>
      <use xlink:href="#Times-Roman-5f" x="527.636719"/>
      <use xlink:href="#Times-Roman-64" x="577.636719"/>
      <use xlink:href="#Times-Roman-65" x="627.636719"/>
      <use xlink:href="#Times-Roman-6d" x="672.021484"/>
      <use xlink:href="#Times-Roman-61" x="749.804688"/>
      <use xlink:href="#Times-Roman-6e" x="794.189453"/>
      <use xlink:href="#Times-Roman-64" x="844.189453"/>
      <use xlink:href="#Times-Roman-73" x="894.189453"/>
      <use xlink:href="#Times-Roman-5f" x="933.105469"/>
      <use xlink:href="#Times-Roman-65" x="983.105469"/>
      <use xlink:href="#Times-Roman-66" x="1027.490234"/>
      <use xlink:href="#Times-Roman-66" x="1060.791016"/>
      <use xlink:href="#Times-Roman-65" x="1094.091797"/>
      <use xlink:href="#Times-Roman-63" x="1138.476562"/>
      <use xlink:href="#Times-Roman-74" x="1182.861328"/>
      <use xlink:href="#Times-Roman-5f" x="1210.644531"/>
      <use xlink:href="#Times-Roman-72" x="1260.644531"/>
      <use xlink:href="#Times-Roman-75" x="1293.945312"/>
      <use xlink:href="#Times-Roman-6e" x="1343.945312"/>
      <use xlink:href="#Times-Roman-32" x="1393.945312"/>
      <use xlink:href="#Times-Roman-2d" x="1443.945312"/>
      <use xlink:href="#Times-Roman-32" x="1477.246094"/>
      <use xlink:href="#Times-Roman-2c" x="1527.246094"/>
      <use xlink:href="#Times-Roman-20" x="1552.246094"/>
      <use xlink:href="#Times-Roman-38" x="1577.246094"/>
     </g>
    </g>
   </g>
  </g>
 </g>
 <defs>
  <clipPath id="p2eedf278f7">
   <rect x="66.501875" y="7.2" width="514.325903" height="315.820109"/>
  </clipPath>
 </defs>
</svg>
