<?xml version="1.0" encoding="utf-8" standalone="no"?>
<!DOCTYPE svg PUBLIC "-//W3C//DTD SVG 1.1//EN"
  "http://www.w3.org/Graphics/SVG/1.1/DTD/svg11.dtd">
<svg xmlns:xlink="http://www.w3.org/1999/xlink" width="590.007778pt" height="373.743859pt" viewBox="0 0 590.007778 373.743859" xmlns="http://www.w3.org/2000/svg" version="1.1">
 <metadata>
  <rdf:RDF xmlns:dc="http://purl.org/dc/elements/1.1/" xmlns:cc="http://creativecommons.org/ns#" xmlns:rdf="http://www.w3.org/1999/02/22-rdf-syntax-ns#">
   <cc:Work>
    <dc:type rdf:resource="http://purl.org/dc/dcmitype/StillImage"/>
    <dc:date>2024-02-12T14:06:56.150470</dc:date>
    <dc:format>image/svg+xml</dc:format>
    <dc:creator>
     <cc:Agent>
      <dc:title>Matplotlib v3.7.0, https://matplotlib.org/</dc:title>
     </cc:Agent>
    </dc:creator>
   </cc:Work>
  </rdf:RDF>
 </metadata>
 <defs>
  <style type="text/css">*{stroke-linejoin: round; stroke-linecap: butt}</style>
 </defs>
 <g id="figure_1">
  <g id="patch_1">
   <path d="M 0 373.743859 
L 590.007778 373.743859 
L 590.007778 0 
L 0 0 
z
" style="fill: #ffffff"/>
  </g>
  <g id="axes_1">
   <g id="patch_2">
    <path d="M 59.481875 323.020109 
L 573.807778 323.020109 
L 573.807778 7.2 
L 59.481875 7.2 
z
" style="fill: #ffffff"/>
   </g>
   <g id="matplotlib.axis_1">
    <g id="xtick_1">
     <g id="line2d_1">
      <path d="M 59.481875 323.020109 
L 59.481875 7.2 
" clip-path="url(#p3a5ec3eecd)" style="fill: none; stroke-dasharray: 1,1.65; stroke-dashoffset: 0; stroke: #000000"/>
     </g>
     <g id="line2d_2">
      <defs>
       <path id="m6e32a8bc61" d="M 0 0 
L 0 3.5 
" style="stroke: #000000; stroke-width: 0.8"/>
      </defs>
      <g>
       <use xlink:href="#m6e32a8bc61" x="59.481875" y="323.020109" style="stroke: #000000; stroke-width: 0.8"/>
      </g>
     </g>
     <g id="text_1">
      <!-- 0 -->
      <g transform="translate(54.981875 342.361359) scale(0.18 -0.18)">
       <defs>
        <path id="Times-Roman-30" d="M 1531 116 
Q 1991 116 2162 619 
Q 2334 1122 2334 2075 
Q 2334 2834 2231 3288 
Q 2038 4131 1506 4131 
Q 975 4131 778 3263 
Q 675 2800 675 2044 
Q 675 1334 781 909 
Q 981 116 1531 116 
z
M 1522 4300 
Q 2241 4300 2638 3547 
Q 2953 2938 2953 2147 
Q 2953 1525 2759 975 
Q 2394 -59 1494 -59 
Q 878 -59 481 500 
Q 56 1097 56 2122 
Q 56 2928 341 3509 
Q 725 4300 1522 4300 
z
" transform="scale(0.015625)"/>
       </defs>
       <use xlink:href="#Times-Roman-30"/>
      </g>
     </g>
    </g>
    <g id="xtick_2">
     <g id="line2d_3">
      <path d="M 123.772613 323.020109 
L 123.772613 7.2 
" clip-path="url(#p3a5ec3eecd)" style="fill: none; stroke-dasharray: 1,1.65; stroke-dashoffset: 0; stroke: #000000"/>
     </g>
     <g id="line2d_4">
      <g>
       <use xlink:href="#m6e32a8bc61" x="123.772613" y="323.020109" style="stroke: #000000; stroke-width: 0.8"/>
      </g>
     </g>
     <g id="text_2">
      <!-- 5 -->
      <g transform="translate(119.272613 342.361359) scale(0.18 -0.18)">
       <defs>
        <path id="Times-Roman-35" d="M 478 572 
Q 656 572 945 370 
Q 1234 169 1391 169 
Q 1750 169 2019 486 
Q 2288 803 2288 1266 
Q 2288 2075 1425 2431 
Q 947 2628 534 2628 
Q 466 2628 448 2633 
Q 431 2638 406 2666 
Q 413 2691 417 2708 
Q 422 2725 428 2741 
L 1109 4234 
L 2450 4234 
Q 2550 4234 2604 4268 
Q 2659 4303 2747 4397 
L 2797 4353 
L 2553 3775 
Q 2541 3747 2484 3739 
Q 2428 3731 2363 3731 
L 1153 3731 
L 888 3184 
Q 1400 3097 1638 3019 
Q 2028 2888 2291 2631 
Q 2516 2409 2631 2132 
Q 2747 1856 2747 1547 
Q 2747 856 2255 393 
Q 1763 -69 1009 -69 
Q 703 -69 516 -9 
Q 203 88 203 338 
Q 203 431 270 501 
Q 338 572 478 572 
z
" transform="scale(0.015625)"/>
       </defs>
       <use xlink:href="#Times-Roman-35"/>
      </g>
     </g>
    </g>
    <g id="xtick_3">
     <g id="line2d_5">
      <path d="M 188.063351 323.020109 
L 188.063351 7.2 
" clip-path="url(#p3a5ec3eecd)" style="fill: none; stroke-dasharray: 1,1.65; stroke-dashoffset: 0; stroke: #000000"/>
     </g>
     <g id="line2d_6">
      <g>
       <use xlink:href="#m6e32a8bc61" x="188.063351" y="323.020109" style="stroke: #000000; stroke-width: 0.8"/>
      </g>
     </g>
     <g id="text_3">
      <!-- 10 -->
      <g transform="translate(179.063351 342.361359) scale(0.18 -0.18)">
       <defs>
        <path id="Times-Roman-31" d="M 1894 4294 
Q 1906 4278 1907 4270 
Q 1909 4263 1909 4234 
L 1909 472 
Q 1909 231 2037 165 
Q 2166 100 2516 88 
L 2516 0 
L 753 0 
L 753 94 
Q 1131 113 1247 197 
Q 1363 281 1363 563 
L 1363 3456 
Q 1363 3606 1325 3684 
Q 1288 3763 1163 3763 
Q 1081 3763 951 3717 
Q 822 3672 709 3622 
L 709 3709 
L 1856 4294 
L 1894 4294 
z
" transform="scale(0.015625)"/>
       </defs>
       <use xlink:href="#Times-Roman-31"/>
       <use xlink:href="#Times-Roman-30" x="50"/>
      </g>
     </g>
    </g>
    <g id="xtick_4">
     <g id="line2d_7">
      <path d="M 252.354089 323.020109 
L 252.354089 7.2 
" clip-path="url(#p3a5ec3eecd)" style="fill: none; stroke-dasharray: 1,1.65; stroke-dashoffset: 0; stroke: #000000"/>
     </g>
     <g id="line2d_8">
      <g>
       <use xlink:href="#m6e32a8bc61" x="252.354089" y="323.020109" style="stroke: #000000; stroke-width: 0.8"/>
      </g>
     </g>
     <g id="text_4">
      <!-- 15 -->
      <g transform="translate(243.354089 342.361359) scale(0.18 -0.18)">
       <use xlink:href="#Times-Roman-31"/>
       <use xlink:href="#Times-Roman-35" x="50"/>
      </g>
     </g>
    </g>
    <g id="xtick_5">
     <g id="line2d_9">
      <path d="M 316.644826 323.020109 
L 316.644826 7.2 
" clip-path="url(#p3a5ec3eecd)" style="fill: none; stroke-dasharray: 1,1.65; stroke-dashoffset: 0; stroke: #000000"/>
     </g>
     <g id="line2d_10">
      <g>
       <use xlink:href="#m6e32a8bc61" x="316.644826" y="323.020109" style="stroke: #000000; stroke-width: 0.8"/>
      </g>
     </g>
     <g id="text_5">
      <!-- 20 -->
      <g transform="translate(307.644826 342.361359) scale(0.18 -0.18)">
       <defs>
        <path id="Times-Roman-32" d="M 191 72 
Q 1334 1259 1743 1815 
Q 2153 2372 2153 2900 
Q 2153 3363 1903 3605 
Q 1653 3847 1306 3847 
Q 878 3847 613 3534 
Q 466 3363 331 3006 
L 197 3034 
Q 353 3753 726 4033 
Q 1100 4313 1528 4313 
Q 2056 4313 2382 3980 
Q 2709 3647 2709 3166 
Q 2709 2653 2356 2178 
Q 2003 1703 822 488 
L 2256 488 
Q 2556 488 2678 559 
Q 2800 631 2953 909 
L 3034 872 
L 2688 0 
L 191 0 
L 191 72 
z
" transform="scale(0.015625)"/>
       </defs>
       <use xlink:href="#Times-Roman-32"/>
       <use xlink:href="#Times-Roman-30" x="50"/>
      </g>
     </g>
    </g>
    <g id="xtick_6">
     <g id="line2d_11">
      <path d="M 380.935564 323.020109 
L 380.935564 7.2 
" clip-path="url(#p3a5ec3eecd)" style="fill: none; stroke-dasharray: 1,1.65; stroke-dashoffset: 0; stroke: #000000"/>
     </g>
     <g id="line2d_12">
      <g>
       <use xlink:href="#m6e32a8bc61" x="380.935564" y="323.020109" style="stroke: #000000; stroke-width: 0.8"/>
      </g>
     </g>
     <g id="text_6">
      <!-- 25 -->
      <g transform="translate(371.935564 342.361359) scale(0.18 -0.18)">
       <use xlink:href="#Times-Roman-32"/>
       <use xlink:href="#Times-Roman-35" x="50"/>
      </g>
     </g>
    </g>
    <g id="xtick_7">
     <g id="line2d_13">
      <path d="M 445.226302 323.020109 
L 445.226302 7.2 
" clip-path="url(#p3a5ec3eecd)" style="fill: none; stroke-dasharray: 1,1.65; stroke-dashoffset: 0; stroke: #000000"/>
     </g>
     <g id="line2d_14">
      <g>
       <use xlink:href="#m6e32a8bc61" x="445.226302" y="323.020109" style="stroke: #000000; stroke-width: 0.8"/>
      </g>
     </g>
     <g id="text_7">
      <!-- 30 -->
      <g transform="translate(436.226302 342.361359) scale(0.18 -0.18)">
       <defs>
        <path id="Times-Roman-33" d="M 497 544 
Q 669 544 951 366 
Q 1234 188 1431 188 
Q 1869 188 2081 483 
Q 2294 778 2294 1125 
Q 2294 1459 2122 1713 
Q 1831 2141 1141 2141 
Q 1100 2141 1062 2139 
Q 1025 2138 975 2131 
L 969 2213 
Q 1469 2394 1756 2628 
Q 2044 2863 2044 3247 
Q 2044 3588 1817 3766 
Q 1591 3944 1300 3944 
Q 956 3944 694 3691 
Q 550 3553 384 3266 
L 288 3288 
Q 413 3763 753 4047 
Q 1094 4331 1541 4331 
Q 2019 4331 2280 4068 
Q 2541 3806 2541 3463 
Q 2541 3159 2325 2906 
Q 2203 2763 1947 2584 
Q 2247 2456 2428 2284 
Q 2769 1956 2769 1453 
Q 2769 859 2301 406 
Q 1834 -47 972 -47 
Q 588 -47 433 67 
Q 278 181 278 313 
Q 278 394 329 469 
Q 381 544 497 544 
z
" transform="scale(0.015625)"/>
       </defs>
       <use xlink:href="#Times-Roman-33"/>
       <use xlink:href="#Times-Roman-30" x="50"/>
      </g>
     </g>
    </g>
    <g id="xtick_8">
     <g id="line2d_15">
      <path d="M 509.51704 323.020109 
L 509.51704 7.2 
" clip-path="url(#p3a5ec3eecd)" style="fill: none; stroke-dasharray: 1,1.65; stroke-dashoffset: 0; stroke: #000000"/>
     </g>
     <g id="line2d_16">
      <g>
       <use xlink:href="#m6e32a8bc61" x="509.51704" y="323.020109" style="stroke: #000000; stroke-width: 0.8"/>
      </g>
     </g>
     <g id="text_8">
      <!-- 35 -->
      <g transform="translate(500.51704 342.361359) scale(0.18 -0.18)">
       <use xlink:href="#Times-Roman-33"/>
       <use xlink:href="#Times-Roman-35" x="50"/>
      </g>
     </g>
    </g>
    <g id="xtick_9">
     <g id="line2d_17">
      <path d="M 573.807778 323.020109 
L 573.807778 7.2 
" clip-path="url(#p3a5ec3eecd)" style="fill: none; stroke-dasharray: 1,1.65; stroke-dashoffset: 0; stroke: #000000"/>
     </g>
     <g id="line2d_18">
      <g>
       <use xlink:href="#m6e32a8bc61" x="573.807778" y="323.020109" style="stroke: #000000; stroke-width: 0.8"/>
      </g>
     </g>
     <g id="text_9">
      <!-- 40 -->
      <g transform="translate(564.807778 342.361359) scale(0.18 -0.18)">
       <defs>
        <path id="Times-Roman-34" d="M 1866 3650 
L 331 1481 
L 1866 1481 
L 1866 3650 
z
M 2072 4294 
L 2369 4294 
L 2369 1481 
L 3022 1481 
L 3022 1066 
L 2369 1066 
L 2369 0 
L 1872 0 
L 1872 1066 
L 72 1066 
L 72 1481 
L 2072 4294 
z
" transform="scale(0.015625)"/>
       </defs>
       <use xlink:href="#Times-Roman-34"/>
       <use xlink:href="#Times-Roman-30" x="50"/>
      </g>
     </g>
    </g>
    <g id="text_10">
     <!-- instances -->
     <g transform="translate(283.652795 362.623234) scale(0.18 -0.18)">
      <defs>
       <path id="Times-Roman-69" d="M 525 4034 
Q 525 4169 619 4266 
Q 713 4363 850 4363 
Q 984 4363 1079 4267 
Q 1175 4172 1175 4034 
Q 1175 3900 1079 3804 
Q 984 3709 850 3709 
Q 713 3709 619 3804 
Q 525 3900 525 4034 
z
M 125 88 
Q 459 119 546 201 
Q 634 284 634 650 
L 634 2141 
Q 634 2344 606 2422 
Q 559 2550 409 2550 
Q 375 2550 342 2544 
Q 309 2538 153 2494 
L 153 2591 
L 288 2634 
Q 834 2813 1050 2903 
Q 1138 2941 1163 2941 
Q 1169 2919 1169 2894 
L 1169 650 
Q 1169 294 1255 203 
Q 1341 113 1644 88 
L 1644 0 
L 125 0 
L 125 88 
z
" transform="scale(0.015625)"/>
       <path id="Times-Roman-6e" d="M 116 88 
Q 338 116 427 198 
Q 516 281 516 569 
L 516 2153 
Q 516 2353 478 2434 
Q 419 2553 234 2553 
Q 206 2553 176 2550 
Q 147 2547 103 2541 
L 103 2650 
Q 231 2688 709 2844 
L 1003 2941 
Q 1025 2941 1029 2925 
Q 1034 2909 1034 2881 
L 1034 2422 
Q 1322 2691 1484 2791 
Q 1728 2944 1991 2944 
Q 2203 2944 2378 2822 
Q 2716 2584 2716 1975 
L 2716 516 
Q 2716 291 2806 191 
Q 2897 91 3109 88 
L 3109 0 
L 1775 0 
L 1775 88 
Q 2003 119 2093 214 
Q 2184 309 2184 628 
L 2184 1963 
Q 2184 2231 2084 2407 
Q 1984 2584 1716 2584 
Q 1531 2584 1341 2459 
Q 1234 2388 1066 2222 
L 1066 472 
Q 1066 247 1166 170 
Q 1266 94 1481 88 
L 1481 0 
L 116 0 
L 116 88 
z
M 1603 2944 
L 1603 2944 
z
" transform="scale(0.015625)"/>
       <path id="Times-Roman-73" d="M 331 984 
L 434 984 
Q 506 628 628 438 
Q 847 88 1269 88 
Q 1503 88 1639 217 
Q 1775 347 1775 553 
Q 1775 684 1697 806 
Q 1619 928 1422 1044 
L 1072 1244 
Q 688 1450 506 1659 
Q 325 1869 325 2153 
Q 325 2503 575 2728 
Q 825 2953 1203 2953 
Q 1369 2953 1567 2890 
Q 1766 2828 1791 2828 
Q 1847 2828 1872 2843 
Q 1897 2859 1916 2894 
L 1991 2894 
L 2013 2022 
L 1916 2022 
Q 1853 2325 1747 2494 
Q 1553 2806 1188 2806 
Q 969 2806 844 2672 
Q 719 2538 719 2356 
Q 719 2069 1150 1844 
L 1563 1622 
Q 2228 1259 2228 778 
Q 2228 409 1951 175 
Q 1675 -59 1228 -59 
Q 1041 -59 803 3 
Q 566 66 522 66 
Q 484 66 456 39 
Q 428 13 413 -25 
L 331 -25 
L 331 984 
z
M 1247 2953 
L 1247 2953 
z
" transform="scale(0.015625)"/>
       <path id="Times-Roman-74" d="M 1628 2881 
L 1628 2656 
L 991 2656 
L 984 856 
Q 984 619 1025 497 
Q 1100 281 1319 281 
Q 1431 281 1514 334 
Q 1597 388 1703 503 
L 1784 434 
L 1716 341 
Q 1553 122 1372 31 
Q 1191 -59 1022 -59 
Q 653 -59 522 269 
Q 450 447 450 763 
L 450 2656 
L 109 2656 
Q 94 2666 86 2675 
Q 78 2684 78 2700 
Q 78 2731 92 2748 
Q 106 2766 181 2828 
Q 397 3006 492 3117 
Q 588 3228 941 3703 
Q 981 3703 989 3697 
Q 997 3691 997 3650 
L 997 2881 
L 1628 2881 
z
" transform="scale(0.015625)"/>
       <path id="Times-Roman-61" d="M 1834 1731 
Q 1475 1613 1241 1469 
Q 791 1191 791 838 
Q 791 553 978 419 
Q 1100 331 1250 331 
Q 1456 331 1645 447 
Q 1834 563 1834 741 
L 1834 1731 
z
M 234 622 
Q 234 1075 688 1378 
Q 975 1566 1834 1888 
L 1834 2153 
Q 1834 2472 1772 2597 
Q 1666 2806 1331 2806 
Q 1172 2806 1028 2725 
Q 884 2641 884 2494 
Q 884 2456 900 2367 
Q 916 2278 916 2253 
Q 916 2078 800 2009 
Q 734 1969 644 1969 
Q 503 1969 428 2061 
Q 353 2153 353 2266 
Q 353 2484 623 2723 
Q 894 2963 1416 2963 
Q 2022 2963 2238 2569 
Q 2353 2353 2353 1941 
L 2353 688 
Q 2353 506 2378 438 
Q 2419 316 2547 316 
Q 2619 316 2666 337 
Q 2713 359 2828 444 
L 2828 281 
Q 2728 159 2613 81 
Q 2438 -38 2256 -38 
Q 2044 -38 1948 100 
Q 1853 238 1844 428 
Q 1606 222 1438 122 
Q 1153 -47 897 -47 
Q 628 -47 431 142 
Q 234 331 234 622 
z
M 1425 2963 
L 1425 2963 
z
" transform="scale(0.015625)"/>
       <path id="Times-Roman-63" d="M 1591 2947 
Q 1981 2947 2264 2745 
Q 2547 2544 2547 2303 
Q 2547 2200 2475 2111 
Q 2403 2022 2253 2022 
Q 2144 2022 2061 2097 
Q 1978 2172 1941 2316 
L 1903 2466 
Q 1863 2631 1763 2700 
Q 1659 2766 1491 2766 
Q 1134 2766 889 2455 
Q 644 2144 644 1628 
Q 644 1156 914 781 
Q 1184 406 1644 406 
Q 1969 406 2222 619 
Q 2366 741 2547 1006 
L 2634 953 
Q 2456 578 2259 359 
Q 1881 -59 1384 -59 
Q 897 -59 522 325 
Q 147 709 147 1369 
Q 147 2016 556 2481 
Q 966 2947 1591 2947 
z
M 1453 2947 
L 1453 2947 
z
" transform="scale(0.015625)"/>
       <path id="Times-Roman-65" d="M 1466 2931 
Q 1906 2931 2237 2626 
Q 2569 2322 2569 1763 
L 584 1763 
Q 616 1038 912 706 
Q 1209 375 1616 375 
Q 1944 375 2169 547 
Q 2394 719 2584 1034 
L 2694 997 
Q 2566 600 2214 262 
Q 1863 -75 1353 -75 
Q 766 -75 445 369 
Q 125 813 125 1391 
Q 125 2019 497 2475 
Q 869 2931 1466 2931 
z
M 1284 2703 
Q 928 2703 741 2388 
Q 641 2219 597 1963 
L 1916 1963 
Q 1881 2275 1797 2428 
Q 1644 2703 1284 2703 
z
M 1425 2931 
L 1425 2931 
z
" transform="scale(0.015625)"/>
      </defs>
      <use xlink:href="#Times-Roman-69"/>
      <use xlink:href="#Times-Roman-6e" x="27.783203"/>
      <use xlink:href="#Times-Roman-73" x="77.783203"/>
      <use xlink:href="#Times-Roman-74" x="116.699219"/>
      <use xlink:href="#Times-Roman-61" x="144.482422"/>
      <use xlink:href="#Times-Roman-6e" x="188.867188"/>
      <use xlink:href="#Times-Roman-63" x="238.867188"/>
      <use xlink:href="#Times-Roman-65" x="283.251953"/>
      <use xlink:href="#Times-Roman-73" x="327.636719"/>
     </g>
    </g>
   </g>
   <g id="matplotlib.axis_2">
    <g id="ytick_1">
     <g id="line2d_19">
      <path d="M 59.481875 237.828321 
L 573.807778 237.828321 
" clip-path="url(#p3a5ec3eecd)" style="fill: none; stroke-dasharray: 1,1.65; stroke-dashoffset: 0; stroke: #000000"/>
     </g>
     <g id="line2d_20">
      <defs>
       <path id="mc6be9ac314" d="M 0 0 
L -3.5 0 
" style="stroke: #000000; stroke-width: 0.8"/>
      </defs>
      <g>
       <use xlink:href="#mc6be9ac314" x="59.481875" y="237.828321" style="stroke: #000000; stroke-width: 0.8"/>
      </g>
     </g>
     <g id="text_11">
      <!-- $\mathdefault{10^{1}}$ -->
      <g transform="translate(27.461875 243.998946) scale(0.18 -0.18)">
       <use xlink:href="#Times-Roman-31" transform="translate(0 0.621875)"/>
       <use xlink:href="#Times-Roman-30" transform="translate(50 0.621875)"/>
       <use xlink:href="#Times-Roman-31" transform="translate(100.785313 32.034375) scale(0.7)"/>
      </g>
     </g>
    </g>
    <g id="ytick_2">
     <g id="line2d_21">
      <path d="M 59.481875 147.819749 
L 573.807778 147.819749 
" clip-path="url(#p3a5ec3eecd)" style="fill: none; stroke-dasharray: 1,1.65; stroke-dashoffset: 0; stroke: #000000"/>
     </g>
     <g id="line2d_22">
      <g>
       <use xlink:href="#mc6be9ac314" x="59.481875" y="147.819749" style="stroke: #000000; stroke-width: 0.8"/>
      </g>
     </g>
     <g id="text_12">
      <!-- $\mathdefault{10^{2}}$ -->
      <g transform="translate(27.461875 153.990374) scale(0.18 -0.18)">
       <use xlink:href="#Times-Roman-31" transform="translate(0 0.414062)"/>
       <use xlink:href="#Times-Roman-30" transform="translate(50 0.414062)"/>
       <use xlink:href="#Times-Roman-32" transform="translate(100.785313 31.826562) scale(0.7)"/>
      </g>
     </g>
    </g>
    <g id="ytick_3">
     <g id="line2d_23">
      <path d="M 59.481875 57.811178 
L 573.807778 57.811178 
" clip-path="url(#p3a5ec3eecd)" style="fill: none; stroke-dasharray: 1,1.65; stroke-dashoffset: 0; stroke: #000000"/>
     </g>
     <g id="line2d_24">
      <g>
       <use xlink:href="#mc6be9ac314" x="59.481875" y="57.811178" style="stroke: #000000; stroke-width: 0.8"/>
      </g>
     </g>
     <g id="text_13">
      <!-- $\mathdefault{10^{3}}$ -->
      <g transform="translate(27.461875 63.981803) scale(0.18 -0.18)">
       <use xlink:href="#Times-Roman-31" transform="translate(0 0.217188)"/>
       <use xlink:href="#Times-Roman-30" transform="translate(50 0.217188)"/>
       <use xlink:href="#Times-Roman-33" transform="translate(100.785313 31.629688) scale(0.7)"/>
      </g>
     </g>
    </g>
    <g id="ytick_4">
     <g id="line2d_25">
      <defs>
       <path id="m182750bec3" d="M 0 0 
L -2 0 
" style="stroke: #000000; stroke-width: 0.6"/>
      </defs>
      <g>
       <use xlink:href="#m182750bec3" x="59.481875" y="300.741613" style="stroke: #000000; stroke-width: 0.6"/>
      </g>
     </g>
    </g>
    <g id="ytick_5">
     <g id="line2d_26">
      <g>
       <use xlink:href="#m182750bec3" x="59.481875" y="284.89189" style="stroke: #000000; stroke-width: 0.6"/>
      </g>
     </g>
    </g>
    <g id="ytick_6">
     <g id="line2d_27">
      <g>
       <use xlink:href="#m182750bec3" x="59.481875" y="273.646333" style="stroke: #000000; stroke-width: 0.6"/>
      </g>
     </g>
    </g>
    <g id="ytick_7">
     <g id="line2d_28">
      <g>
       <use xlink:href="#m182750bec3" x="59.481875" y="264.923601" style="stroke: #000000; stroke-width: 0.6"/>
      </g>
     </g>
    </g>
    <g id="ytick_8">
     <g id="line2d_29">
      <g>
       <use xlink:href="#m182750bec3" x="59.481875" y="257.79661" style="stroke: #000000; stroke-width: 0.6"/>
      </g>
     </g>
    </g>
    <g id="ytick_9">
     <g id="line2d_30">
      <g>
       <use xlink:href="#m182750bec3" x="59.481875" y="251.770825" style="stroke: #000000; stroke-width: 0.6"/>
      </g>
     </g>
    </g>
    <g id="ytick_10">
     <g id="line2d_31">
      <g>
       <use xlink:href="#m182750bec3" x="59.481875" y="246.551053" style="stroke: #000000; stroke-width: 0.6"/>
      </g>
     </g>
    </g>
    <g id="ytick_11">
     <g id="line2d_32">
      <g>
       <use xlink:href="#m182750bec3" x="59.481875" y="241.946887" style="stroke: #000000; stroke-width: 0.6"/>
      </g>
     </g>
    </g>
    <g id="ytick_12">
     <g id="line2d_33">
      <g>
       <use xlink:href="#m182750bec3" x="59.481875" y="210.733041" style="stroke: #000000; stroke-width: 0.6"/>
      </g>
     </g>
    </g>
    <g id="ytick_13">
     <g id="line2d_34">
      <g>
       <use xlink:href="#m182750bec3" x="59.481875" y="194.883318" style="stroke: #000000; stroke-width: 0.6"/>
      </g>
     </g>
    </g>
    <g id="ytick_14">
     <g id="line2d_35">
      <g>
       <use xlink:href="#m182750bec3" x="59.481875" y="183.637761" style="stroke: #000000; stroke-width: 0.6"/>
      </g>
     </g>
    </g>
    <g id="ytick_15">
     <g id="line2d_36">
      <g>
       <use xlink:href="#m182750bec3" x="59.481875" y="174.915029" style="stroke: #000000; stroke-width: 0.6"/>
      </g>
     </g>
    </g>
    <g id="ytick_16">
     <g id="line2d_37">
      <g>
       <use xlink:href="#m182750bec3" x="59.481875" y="167.788038" style="stroke: #000000; stroke-width: 0.6"/>
      </g>
     </g>
    </g>
    <g id="ytick_17">
     <g id="line2d_38">
      <g>
       <use xlink:href="#m182750bec3" x="59.481875" y="161.762254" style="stroke: #000000; stroke-width: 0.6"/>
      </g>
     </g>
    </g>
    <g id="ytick_18">
     <g id="line2d_39">
      <g>
       <use xlink:href="#m182750bec3" x="59.481875" y="156.542481" style="stroke: #000000; stroke-width: 0.6"/>
      </g>
     </g>
    </g>
    <g id="ytick_19">
     <g id="line2d_40">
      <g>
       <use xlink:href="#m182750bec3" x="59.481875" y="151.938316" style="stroke: #000000; stroke-width: 0.6"/>
      </g>
     </g>
    </g>
    <g id="ytick_20">
     <g id="line2d_41">
      <g>
       <use xlink:href="#m182750bec3" x="59.481875" y="120.724469" style="stroke: #000000; stroke-width: 0.6"/>
      </g>
     </g>
    </g>
    <g id="ytick_21">
     <g id="line2d_42">
      <g>
       <use xlink:href="#m182750bec3" x="59.481875" y="104.874747" style="stroke: #000000; stroke-width: 0.6"/>
      </g>
     </g>
    </g>
    <g id="ytick_22">
     <g id="line2d_43">
      <g>
       <use xlink:href="#m182750bec3" x="59.481875" y="93.629189" style="stroke: #000000; stroke-width: 0.6"/>
      </g>
     </g>
    </g>
    <g id="ytick_23">
     <g id="line2d_44">
      <g>
       <use xlink:href="#m182750bec3" x="59.481875" y="84.906458" style="stroke: #000000; stroke-width: 0.6"/>
      </g>
     </g>
    </g>
    <g id="ytick_24">
     <g id="line2d_45">
      <g>
       <use xlink:href="#m182750bec3" x="59.481875" y="77.779467" style="stroke: #000000; stroke-width: 0.6"/>
      </g>
     </g>
    </g>
    <g id="ytick_25">
     <g id="line2d_46">
      <g>
       <use xlink:href="#m182750bec3" x="59.481875" y="71.753682" style="stroke: #000000; stroke-width: 0.6"/>
      </g>
     </g>
    </g>
    <g id="ytick_26">
     <g id="line2d_47">
      <g>
       <use xlink:href="#m182750bec3" x="59.481875" y="66.533909" style="stroke: #000000; stroke-width: 0.6"/>
      </g>
     </g>
    </g>
    <g id="ytick_27">
     <g id="line2d_48">
      <g>
       <use xlink:href="#m182750bec3" x="59.481875" y="61.929744" style="stroke: #000000; stroke-width: 0.6"/>
      </g>
     </g>
    </g>
    <g id="ytick_28">
     <g id="line2d_49">
      <g>
       <use xlink:href="#m182750bec3" x="59.481875" y="30.715898" style="stroke: #000000; stroke-width: 0.6"/>
      </g>
     </g>
    </g>
    <g id="ytick_29">
     <g id="line2d_50">
      <g>
       <use xlink:href="#m182750bec3" x="59.481875" y="14.866175" style="stroke: #000000; stroke-width: 0.6"/>
      </g>
     </g>
    </g>
    <g id="text_14">
     <!-- Run time (s) -->
     <g transform="translate(19.54125 210.105836) rotate(-90) scale(0.18 -0.18)">
      <defs>
       <path id="Times-Roman-52" d="M 1272 2191 
Q 1963 2216 2259 2334 
Q 2769 2544 2769 3122 
Q 2769 3678 2313 3881 
Q 2069 3991 1666 3991 
Q 1394 3991 1333 3952 
Q 1272 3913 1272 3769 
L 1272 2191 
z
M 72 116 
Q 441 150 531 259 
Q 622 369 622 769 
L 622 3541 
Q 622 3878 520 3983 
Q 419 4088 72 4116 
L 72 4234 
L 1844 4234 
Q 2397 4234 2766 4094 
Q 3466 3828 3466 3116 
Q 3466 2638 3155 2381 
Q 2844 2125 2309 2044 
L 3628 422 
Q 3750 272 3872 203 
Q 3994 134 4184 116 
L 4184 0 
L 3153 0 
L 1628 1969 
L 1272 1953 
L 1272 694 
Q 1272 338 1380 242 
Q 1488 147 1850 116 
L 1850 0 
L 72 0 
L 72 116 
z
" transform="scale(0.015625)"/>
       <path id="Times-Roman-75" d="M 991 2894 
L 991 894 
Q 991 681 1050 553 
Q 1166 316 1475 316 
Q 1688 316 1891 456 
Q 2006 534 2125 672 
L 2125 2384 
Q 2125 2625 2031 2700 
Q 1938 2775 1656 2791 
L 1656 2894 
L 2666 2894 
L 2666 694 
Q 2666 481 2742 401 
Q 2819 322 3066 331 
L 3066 244 
Q 2894 197 2812 173 
Q 2731 150 2541 88 
Q 2459 59 2184 -47 
Q 2169 -47 2166 -33 
Q 2163 -19 2163 0 
L 2163 503 
Q 1950 250 1775 128 
Q 1509 -59 1213 -59 
Q 941 -59 700 134 
Q 456 325 456 775 
L 456 2397 
Q 456 2647 350 2731 
Q 281 2784 56 2806 
L 56 2894 
L 991 2894 
z
M 1603 2931 
L 1603 2931 
z
" transform="scale(0.015625)"/>
       <path id="Times-Roman-20" transform="scale(0.015625)"/>
       <path id="Times-Roman-6d" d="M 103 81 
Q 347 103 428 163 
Q 553 253 553 525 
L 553 2141 
Q 553 2372 492 2444 
Q 431 2516 291 2516 
Q 225 2516 192 2509 
Q 159 2503 116 2488 
L 116 2597 
L 341 2672 
Q 463 2713 741 2819 
Q 1019 2925 1034 2925 
Q 1050 2925 1053 2909 
Q 1056 2894 1056 2850 
L 1056 2428 
Q 1366 2709 1591 2817 
Q 1816 2925 2053 2925 
Q 2375 2925 2566 2706 
Q 2666 2588 2731 2384 
Q 2963 2619 3134 2731 
Q 3431 2925 3741 2925 
Q 4244 2925 4413 2516 
Q 4509 2284 4509 1784 
L 4509 488 
Q 4509 266 4607 186 
Q 4706 106 4963 81 
L 4963 0 
L 3553 0 
L 3553 88 
Q 3825 113 3911 197 
Q 3997 281 3997 541 
L 3997 1888 
Q 3997 2191 3931 2334 
Q 3816 2591 3478 2591 
Q 3275 2591 3075 2456 
Q 2959 2378 2791 2206 
L 2791 606 
Q 2791 353 2880 222 
Q 2969 91 3256 81 
L 3256 0 
L 1822 0 
L 1822 81 
Q 2119 119 2200 225 
Q 2281 331 2281 747 
L 2281 1622 
Q 2281 2103 2219 2284 
Q 2116 2591 1781 2591 
Q 1591 2591 1406 2486 
Q 1222 2381 1081 2213 
L 1081 503 
Q 1081 266 1164 175 
Q 1247 84 1525 81 
L 1525 0 
L 103 0 
L 103 81 
z
" transform="scale(0.015625)"/>
       <path id="Times-Roman-28" d="M 294 1606 
Q 294 2694 944 3516 
Q 1344 4019 1888 4325 
L 1947 4222 
Q 1444 3822 1228 3444 
Q 850 2784 850 1688 
Q 850 875 994 347 
Q 1247 -578 1947 -1038 
L 1866 -1141 
Q 1481 -956 1034 -419 
Q 294 472 294 1606 
z
" transform="scale(0.015625)"/>
       <path id="Times-Roman-29" d="M 1822 1575 
Q 1822 1109 1700 693 
Q 1578 278 1344 -91 
Q 1097 -484 684 -825 
Q 413 -1050 228 -1141 
L 169 -1038 
Q 650 -672 872 -291 
Q 1266 384 1266 1494 
Q 1266 2391 1084 2959 
Q 831 3763 169 4222 
L 250 4325 
Q 744 4050 1169 3494 
Q 1822 2638 1822 1575 
z
" transform="scale(0.015625)"/>
      </defs>
      <use xlink:href="#Times-Roman-52"/>
      <use xlink:href="#Times-Roman-75" x="66.699219"/>
      <use xlink:href="#Times-Roman-6e" x="116.699219"/>
      <use xlink:href="#Times-Roman-20" x="166.699219"/>
      <use xlink:href="#Times-Roman-74" x="191.699219"/>
      <use xlink:href="#Times-Roman-69" x="219.482422"/>
      <use xlink:href="#Times-Roman-6d" x="247.265625"/>
      <use xlink:href="#Times-Roman-65" x="325.048828"/>
      <use xlink:href="#Times-Roman-20" x="369.433594"/>
      <use xlink:href="#Times-Roman-28" x="394.433594"/>
      <use xlink:href="#Times-Roman-73" x="427.734375"/>
      <use xlink:href="#Times-Roman-29" x="466.650391"/>
     </g>
    </g>
   </g>
   <g id="patch_3">
    <path d="M 59.481875 323.020109 
L 59.481875 7.2 
" style="fill: none; stroke: #000000; stroke-linejoin: miter; stroke-linecap: square"/>
   </g>
   <g id="patch_4">
    <path d="M 573.807778 323.020109 
L 573.807778 7.2 
" style="fill: none; stroke: #000000; stroke-linejoin: miter; stroke-linecap: square"/>
   </g>
   <g id="patch_5">
    <path d="M 59.481875 323.020109 
L 573.807778 323.020109 
" style="fill: none; stroke: #000000; stroke-linejoin: miter; stroke-linecap: square"/>
   </g>
   <g id="patch_6">
    <path d="M 59.481875 7.2 
L 573.807778 7.2 
" style="fill: none; stroke: #000000; stroke-linejoin: miter; stroke-linecap: square"/>
   </g>
   <g id="line2d_51">
    <path d="M 72.340023 323.020109 
L 85.19817 320.512787 
L 98.056318 317.045963 
L 110.914465 310.411413 
L 123.772613 309.765228 
L 136.63076 308.941203 
L 149.488908 306.741425 
L 162.347056 301.59665 
L 175.205203 295.585385 
L 188.063351 292.184686 
L 200.921498 290.657503 
L 213.779646 277.510592 
L 226.637793 271.780613 
L 239.495941 269.778934 
L 252.354089 267.468502 
L 265.212236 244.076799 
L 278.070384 244.057768 
L 290.928531 238.271101 
L 303.786679 228.843005 
L 316.644826 224.966614 
L 329.502974 210.135056 
L 342.361122 208.256604 
L 355.219269 199.316502 
L 368.077417 198.419934 
L 380.935564 196.933621 
L 393.793712 188.621532 
L 406.651859 170.202084 
L 419.510007 170.145424 
L 432.368155 164.74875 
L 445.226302 151.775777 
L 458.08445 143.433499 
L 470.942597 137.926885 
L 483.800745 117.743306 
L 496.658892 98.83324 
L 509.51704 94.812317 
L 522.375188 61.263467 
L 534.183987 -1 
" clip-path="url(#p3a5ec3eecd)" style="fill: none; stroke: #00ffff; stroke-opacity: 0.7; stroke-linecap: square"/>
    <defs>
     <path id="md5b483bd69" d="M -2.5 2.5 
L 2.5 -2.5 
M -2.5 -2.5 
L 2.5 2.5 
" style="stroke: #ff00ff; stroke-opacity: 0.7; stroke-width: 0.75"/>
    </defs>
    <g clip-path="url(#p3a5ec3eecd)">
     <use xlink:href="#md5b483bd69" x="72.340023" y="323.020109" style="fill: #ffffff; fill-opacity: 0.7; stroke: #ff00ff; stroke-opacity: 0.7; stroke-width: 0.75"/>
     <use xlink:href="#md5b483bd69" x="85.19817" y="320.512787" style="fill: #ffffff; fill-opacity: 0.7; stroke: #ff00ff; stroke-opacity: 0.7; stroke-width: 0.75"/>
     <use xlink:href="#md5b483bd69" x="98.056318" y="317.045963" style="fill: #ffffff; fill-opacity: 0.7; stroke: #ff00ff; stroke-opacity: 0.7; stroke-width: 0.75"/>
     <use xlink:href="#md5b483bd69" x="110.914465" y="310.411413" style="fill: #ffffff; fill-opacity: 0.7; stroke: #ff00ff; stroke-opacity: 0.7; stroke-width: 0.75"/>
     <use xlink:href="#md5b483bd69" x="123.772613" y="309.765228" style="fill: #ffffff; fill-opacity: 0.7; stroke: #ff00ff; stroke-opacity: 0.7; stroke-width: 0.75"/>
     <use xlink:href="#md5b483bd69" x="136.63076" y="308.941203" style="fill: #ffffff; fill-opacity: 0.7; stroke: #ff00ff; stroke-opacity: 0.7; stroke-width: 0.75"/>
     <use xlink:href="#md5b483bd69" x="149.488908" y="306.741425" style="fill: #ffffff; fill-opacity: 0.7; stroke: #ff00ff; stroke-opacity: 0.7; stroke-width: 0.75"/>
     <use xlink:href="#md5b483bd69" x="162.347056" y="301.59665" style="fill: #ffffff; fill-opacity: 0.7; stroke: #ff00ff; stroke-opacity: 0.7; stroke-width: 0.75"/>
     <use xlink:href="#md5b483bd69" x="175.205203" y="295.585385" style="fill: #ffffff; fill-opacity: 0.7; stroke: #ff00ff; stroke-opacity: 0.7; stroke-width: 0.75"/>
     <use xlink:href="#md5b483bd69" x="188.063351" y="292.184686" style="fill: #ffffff; fill-opacity: 0.7; stroke: #ff00ff; stroke-opacity: 0.7; stroke-width: 0.75"/>
     <use xlink:href="#md5b483bd69" x="200.921498" y="290.657503" style="fill: #ffffff; fill-opacity: 0.7; stroke: #ff00ff; stroke-opacity: 0.7; stroke-width: 0.75"/>
     <use xlink:href="#md5b483bd69" x="213.779646" y="277.510592" style="fill: #ffffff; fill-opacity: 0.7; stroke: #ff00ff; stroke-opacity: 0.7; stroke-width: 0.75"/>
     <use xlink:href="#md5b483bd69" x="226.637793" y="271.780613" style="fill: #ffffff; fill-opacity: 0.7; stroke: #ff00ff; stroke-opacity: 0.7; stroke-width: 0.75"/>
     <use xlink:href="#md5b483bd69" x="239.495941" y="269.778934" style="fill: #ffffff; fill-opacity: 0.7; stroke: #ff00ff; stroke-opacity: 0.7; stroke-width: 0.75"/>
     <use xlink:href="#md5b483bd69" x="252.354089" y="267.468502" style="fill: #ffffff; fill-opacity: 0.7; stroke: #ff00ff; stroke-opacity: 0.7; stroke-width: 0.75"/>
     <use xlink:href="#md5b483bd69" x="265.212236" y="244.076799" style="fill: #ffffff; fill-opacity: 0.7; stroke: #ff00ff; stroke-opacity: 0.7; stroke-width: 0.75"/>
     <use xlink:href="#md5b483bd69" x="278.070384" y="244.057768" style="fill: #ffffff; fill-opacity: 0.7; stroke: #ff00ff; stroke-opacity: 0.7; stroke-width: 0.75"/>
     <use xlink:href="#md5b483bd69" x="290.928531" y="238.271101" style="fill: #ffffff; fill-opacity: 0.7; stroke: #ff00ff; stroke-opacity: 0.7; stroke-width: 0.75"/>
     <use xlink:href="#md5b483bd69" x="303.786679" y="228.843005" style="fill: #ffffff; fill-opacity: 0.7; stroke: #ff00ff; stroke-opacity: 0.7; stroke-width: 0.75"/>
     <use xlink:href="#md5b483bd69" x="316.644826" y="224.966614" style="fill: #ffffff; fill-opacity: 0.7; stroke: #ff00ff; stroke-opacity: 0.7; stroke-width: 0.75"/>
     <use xlink:href="#md5b483bd69" x="329.502974" y="210.135056" style="fill: #ffffff; fill-opacity: 0.7; stroke: #ff00ff; stroke-opacity: 0.7; stroke-width: 0.75"/>
     <use xlink:href="#md5b483bd69" x="342.361122" y="208.256604" style="fill: #ffffff; fill-opacity: 0.7; stroke: #ff00ff; stroke-opacity: 0.7; stroke-width: 0.75"/>
     <use xlink:href="#md5b483bd69" x="355.219269" y="199.316502" style="fill: #ffffff; fill-opacity: 0.7; stroke: #ff00ff; stroke-opacity: 0.7; stroke-width: 0.75"/>
     <use xlink:href="#md5b483bd69" x="368.077417" y="198.419934" style="fill: #ffffff; fill-opacity: 0.7; stroke: #ff00ff; stroke-opacity: 0.7; stroke-width: 0.75"/>
     <use xlink:href="#md5b483bd69" x="380.935564" y="196.933621" style="fill: #ffffff; fill-opacity: 0.7; stroke: #ff00ff; stroke-opacity: 0.7; stroke-width: 0.75"/>
     <use xlink:href="#md5b483bd69" x="393.793712" y="188.621532" style="fill: #ffffff; fill-opacity: 0.7; stroke: #ff00ff; stroke-opacity: 0.7; stroke-width: 0.75"/>
     <use xlink:href="#md5b483bd69" x="406.651859" y="170.202084" style="fill: #ffffff; fill-opacity: 0.7; stroke: #ff00ff; stroke-opacity: 0.7; stroke-width: 0.75"/>
     <use xlink:href="#md5b483bd69" x="419.510007" y="170.145424" style="fill: #ffffff; fill-opacity: 0.7; stroke: #ff00ff; stroke-opacity: 0.7; stroke-width: 0.75"/>
     <use xlink:href="#md5b483bd69" x="432.368155" y="164.74875" style="fill: #ffffff; fill-opacity: 0.7; stroke: #ff00ff; stroke-opacity: 0.7; stroke-width: 0.75"/>
     <use xlink:href="#md5b483bd69" x="445.226302" y="151.775777" style="fill: #ffffff; fill-opacity: 0.7; stroke: #ff00ff; stroke-opacity: 0.7; stroke-width: 0.75"/>
     <use xlink:href="#md5b483bd69" x="458.08445" y="143.433499" style="fill: #ffffff; fill-opacity: 0.7; stroke: #ff00ff; stroke-opacity: 0.7; stroke-width: 0.75"/>
     <use xlink:href="#md5b483bd69" x="470.942597" y="137.926885" style="fill: #ffffff; fill-opacity: 0.7; stroke: #ff00ff; stroke-opacity: 0.7; stroke-width: 0.75"/>
     <use xlink:href="#md5b483bd69" x="483.800745" y="117.743306" style="fill: #ffffff; fill-opacity: 0.7; stroke: #ff00ff; stroke-opacity: 0.7; stroke-width: 0.75"/>
     <use xlink:href="#md5b483bd69" x="496.658892" y="98.83324" style="fill: #ffffff; fill-opacity: 0.7; stroke: #ff00ff; stroke-opacity: 0.7; stroke-width: 0.75"/>
     <use xlink:href="#md5b483bd69" x="509.51704" y="94.812317" style="fill: #ffffff; fill-opacity: 0.7; stroke: #ff00ff; stroke-opacity: 0.7; stroke-width: 0.75"/>
     <use xlink:href="#md5b483bd69" x="522.375188" y="61.263467" style="fill: #ffffff; fill-opacity: 0.7; stroke: #ff00ff; stroke-opacity: 0.7; stroke-width: 0.75"/>
     <use xlink:href="#md5b483bd69" x="534.183987" y="-1" style="fill: #ffffff; fill-opacity: 0.7; stroke: #ff00ff; stroke-opacity: 0.7; stroke-width: 0.75"/>
    </g>
   </g>
   <g id="line2d_52">
    <path d="M 72.340023 321.064475 
L 85.19817 320.112833 
L 98.056318 317.475735 
L 110.914465 310.986896 
L 123.772613 310.914759 
L 136.63076 310.238138 
L 149.488908 308.765088 
L 162.347056 303.01888 
L 175.205203 300.817604 
L 188.063351 292.490527 
L 200.921498 289.840739 
L 213.779646 279.676204 
L 226.637793 273.90395 
L 239.495941 269.836316 
L 252.354089 268.776286 
L 265.212236 246.626932 
L 278.070384 243.539331 
L 290.928531 242.481234 
L 303.786679 241.531622 
L 316.644826 236.480809 
L 329.502974 229.91949 
L 342.361122 212.747413 
L 355.219269 209.109154 
L 368.077417 204.655824 
L 380.935564 196.735224 
L 393.793712 195.844264 
L 406.651859 172.88473 
L 419.510007 169.115922 
L 432.368155 166.600175 
L 445.226302 156.142691 
L 458.08445 145.698094 
L 470.942597 123.766377 
L 483.800745 99.982978 
L 496.658892 84.971755 
L 509.51704 64.955128 
" clip-path="url(#p3a5ec3eecd)" style="fill: none; stroke-dasharray: 3.7,1.6; stroke-dashoffset: 0; stroke: #008000; stroke-opacity: 0.7"/>
    <defs>
     <path id="mfcd750e27b" d="M 0 -2.5 
L -2.5 2.5 
L 2.5 2.5 
z
" style="stroke: #008000; stroke-opacity: 0.7; stroke-width: 0.75; stroke-linejoin: miter"/>
    </defs>
    <g clip-path="url(#p3a5ec3eecd)">
     <use xlink:href="#mfcd750e27b" x="72.340023" y="321.064475" style="fill: #ffffff; fill-opacity: 0.7; stroke: #008000; stroke-opacity: 0.7; stroke-width: 0.75; stroke-linejoin: miter"/>
     <use xlink:href="#mfcd750e27b" x="85.19817" y="320.112833" style="fill: #ffffff; fill-opacity: 0.7; stroke: #008000; stroke-opacity: 0.7; stroke-width: 0.75; stroke-linejoin: miter"/>
     <use xlink:href="#mfcd750e27b" x="98.056318" y="317.475735" style="fill: #ffffff; fill-opacity: 0.7; stroke: #008000; stroke-opacity: 0.7; stroke-width: 0.75; stroke-linejoin: miter"/>
     <use xlink:href="#mfcd750e27b" x="110.914465" y="310.986896" style="fill: #ffffff; fill-opacity: 0.7; stroke: #008000; stroke-opacity: 0.7; stroke-width: 0.75; stroke-linejoin: miter"/>
     <use xlink:href="#mfcd750e27b" x="123.772613" y="310.914759" style="fill: #ffffff; fill-opacity: 0.7; stroke: #008000; stroke-opacity: 0.7; stroke-width: 0.75; stroke-linejoin: miter"/>
     <use xlink:href="#mfcd750e27b" x="136.63076" y="310.238138" style="fill: #ffffff; fill-opacity: 0.7; stroke: #008000; stroke-opacity: 0.7; stroke-width: 0.75; stroke-linejoin: miter"/>
     <use xlink:href="#mfcd750e27b" x="149.488908" y="308.765088" style="fill: #ffffff; fill-opacity: 0.7; stroke: #008000; stroke-opacity: 0.7; stroke-width: 0.75; stroke-linejoin: miter"/>
     <use xlink:href="#mfcd750e27b" x="162.347056" y="303.01888" style="fill: #ffffff; fill-opacity: 0.7; stroke: #008000; stroke-opacity: 0.7; stroke-width: 0.75; stroke-linejoin: miter"/>
     <use xlink:href="#mfcd750e27b" x="175.205203" y="300.817604" style="fill: #ffffff; fill-opacity: 0.7; stroke: #008000; stroke-opacity: 0.7; stroke-width: 0.75; stroke-linejoin: miter"/>
     <use xlink:href="#mfcd750e27b" x="188.063351" y="292.490527" style="fill: #ffffff; fill-opacity: 0.7; stroke: #008000; stroke-opacity: 0.7; stroke-width: 0.75; stroke-linejoin: miter"/>
     <use xlink:href="#mfcd750e27b" x="200.921498" y="289.840739" style="fill: #ffffff; fill-opacity: 0.7; stroke: #008000; stroke-opacity: 0.7; stroke-width: 0.75; stroke-linejoin: miter"/>
     <use xlink:href="#mfcd750e27b" x="213.779646" y="279.676204" style="fill: #ffffff; fill-opacity: 0.7; stroke: #008000; stroke-opacity: 0.7; stroke-width: 0.75; stroke-linejoin: miter"/>
     <use xlink:href="#mfcd750e27b" x="226.637793" y="273.90395" style="fill: #ffffff; fill-opacity: 0.7; stroke: #008000; stroke-opacity: 0.7; stroke-width: 0.75; stroke-linejoin: miter"/>
     <use xlink:href="#mfcd750e27b" x="239.495941" y="269.836316" style="fill: #ffffff; fill-opacity: 0.7; stroke: #008000; stroke-opacity: 0.7; stroke-width: 0.75; stroke-linejoin: miter"/>
     <use xlink:href="#mfcd750e27b" x="252.354089" y="268.776286" style="fill: #ffffff; fill-opacity: 0.7; stroke: #008000; stroke-opacity: 0.7; stroke-width: 0.75; stroke-linejoin: miter"/>
     <use xlink:href="#mfcd750e27b" x="265.212236" y="246.626932" style="fill: #ffffff; fill-opacity: 0.7; stroke: #008000; stroke-opacity: 0.7; stroke-width: 0.75; stroke-linejoin: miter"/>
     <use xlink:href="#mfcd750e27b" x="278.070384" y="243.539331" style="fill: #ffffff; fill-opacity: 0.7; stroke: #008000; stroke-opacity: 0.7; stroke-width: 0.75; stroke-linejoin: miter"/>
     <use xlink:href="#mfcd750e27b" x="290.928531" y="242.481234" style="fill: #ffffff; fill-opacity: 0.7; stroke: #008000; stroke-opacity: 0.7; stroke-width: 0.75; stroke-linejoin: miter"/>
     <use xlink:href="#mfcd750e27b" x="303.786679" y="241.531622" style="fill: #ffffff; fill-opacity: 0.7; stroke: #008000; stroke-opacity: 0.7; stroke-width: 0.75; stroke-linejoin: miter"/>
     <use xlink:href="#mfcd750e27b" x="316.644826" y="236.480809" style="fill: #ffffff; fill-opacity: 0.7; stroke: #008000; stroke-opacity: 0.7; stroke-width: 0.75; stroke-linejoin: miter"/>
     <use xlink:href="#mfcd750e27b" x="329.502974" y="229.91949" style="fill: #ffffff; fill-opacity: 0.7; stroke: #008000; stroke-opacity: 0.7; stroke-width: 0.75; stroke-linejoin: miter"/>
     <use xlink:href="#mfcd750e27b" x="342.361122" y="212.747413" style="fill: #ffffff; fill-opacity: 0.7; stroke: #008000; stroke-opacity: 0.7; stroke-width: 0.75; stroke-linejoin: miter"/>
     <use xlink:href="#mfcd750e27b" x="355.219269" y="209.109154" style="fill: #ffffff; fill-opacity: 0.7; stroke: #008000; stroke-opacity: 0.7; stroke-width: 0.75; stroke-linejoin: miter"/>
     <use xlink:href="#mfcd750e27b" x="368.077417" y="204.655824" style="fill: #ffffff; fill-opacity: 0.7; stroke: #008000; stroke-opacity: 0.7; stroke-width: 0.75; stroke-linejoin: miter"/>
     <use xlink:href="#mfcd750e27b" x="380.935564" y="196.735224" style="fill: #ffffff; fill-opacity: 0.7; stroke: #008000; stroke-opacity: 0.7; stroke-width: 0.75; stroke-linejoin: miter"/>
     <use xlink:href="#mfcd750e27b" x="393.793712" y="195.844264" style="fill: #ffffff; fill-opacity: 0.7; stroke: #008000; stroke-opacity: 0.7; stroke-width: 0.75; stroke-linejoin: miter"/>
     <use xlink:href="#mfcd750e27b" x="406.651859" y="172.88473" style="fill: #ffffff; fill-opacity: 0.7; stroke: #008000; stroke-opacity: 0.7; stroke-width: 0.75; stroke-linejoin: miter"/>
     <use xlink:href="#mfcd750e27b" x="419.510007" y="169.115922" style="fill: #ffffff; fill-opacity: 0.7; stroke: #008000; stroke-opacity: 0.7; stroke-width: 0.75; stroke-linejoin: miter"/>
     <use xlink:href="#mfcd750e27b" x="432.368155" y="166.600175" style="fill: #ffffff; fill-opacity: 0.7; stroke: #008000; stroke-opacity: 0.7; stroke-width: 0.75; stroke-linejoin: miter"/>
     <use xlink:href="#mfcd750e27b" x="445.226302" y="156.142691" style="fill: #ffffff; fill-opacity: 0.7; stroke: #008000; stroke-opacity: 0.7; stroke-width: 0.75; stroke-linejoin: miter"/>
     <use xlink:href="#mfcd750e27b" x="458.08445" y="145.698094" style="fill: #ffffff; fill-opacity: 0.7; stroke: #008000; stroke-opacity: 0.7; stroke-width: 0.75; stroke-linejoin: miter"/>
     <use xlink:href="#mfcd750e27b" x="470.942597" y="123.766377" style="fill: #ffffff; fill-opacity: 0.7; stroke: #008000; stroke-opacity: 0.7; stroke-width: 0.75; stroke-linejoin: miter"/>
     <use xlink:href="#mfcd750e27b" x="483.800745" y="99.982978" style="fill: #ffffff; fill-opacity: 0.7; stroke: #008000; stroke-opacity: 0.7; stroke-width: 0.75; stroke-linejoin: miter"/>
     <use xlink:href="#mfcd750e27b" x="496.658892" y="84.971755" style="fill: #ffffff; fill-opacity: 0.7; stroke: #008000; stroke-opacity: 0.7; stroke-width: 0.75; stroke-linejoin: miter"/>
     <use xlink:href="#mfcd750e27b" x="509.51704" y="64.955128" style="fill: #ffffff; fill-opacity: 0.7; stroke: #008000; stroke-opacity: 0.7; stroke-width: 0.75; stroke-linejoin: miter"/>
    </g>
   </g>
   <g id="legend_1">
    <g id="patch_7">
     <path d="M 444.604653 316.020109 
L 563.207778 316.020109 
Q 566.807778 316.020109 566.807778 312.420109 
L 566.807778 263.178859 
Q 566.807778 259.578859 563.207778 259.578859 
L 444.604653 259.578859 
Q 441.004653 259.578859 441.004653 263.178859 
L 441.004653 312.420109 
Q 441.004653 316.020109 444.604653 316.020109 
z
" style="fill: #4c4c4c; opacity: 0.5; stroke: #4c4c4c; stroke-linejoin: miter"/>
    </g>
    <g id="patch_8">
     <path d="M 442.604653 314.020109 
L 561.207778 314.020109 
Q 564.807778 314.020109 564.807778 310.420109 
L 564.807778 261.178859 
Q 564.807778 257.578859 561.207778 257.578859 
L 442.604653 257.578859 
Q 439.004653 257.578859 439.004653 261.178859 
L 439.004653 310.420109 
Q 439.004653 314.020109 442.604653 314.020109 
z
" style="fill: #ffffff; stroke: #000000; stroke-linejoin: miter"/>
    </g>
    <g id="line2d_53">
     <path d="M 446.204653 271.078859 
L 464.204653 271.078859 
L 482.204653 271.078859 
" style="fill: none; stroke: #00ffff; stroke-opacity: 0.7; stroke-linecap: square"/>
     <g>
      <use xlink:href="#md5b483bd69" x="464.204653" y="271.078859" style="fill: #ffffff; fill-opacity: 0.7; stroke: #ff00ff; stroke-opacity: 0.7; stroke-width: 0.75"/>
     </g>
    </g>
    <g id="text_15">
     <!-- split-lim -->
     <g transform="translate(496.604653 277.378859) scale(0.18 -0.18)">
      <defs>
       <path id="Times-Roman-70" d="M 1022 575 
Q 1103 363 1264 258 
Q 1425 153 1644 153 
Q 1981 153 2220 489 
Q 2459 825 2459 1425 
Q 2459 2000 2211 2284 
Q 1963 2569 1634 2569 
Q 1403 2569 1212 2426 
Q 1022 2284 1022 2147 
L 1022 575 
z
M 28 -1291 
Q 322 -1272 401 -1165 
Q 481 -1059 481 -831 
L 481 2169 
Q 481 2406 423 2473 
Q 366 2541 206 2541 
Q 172 2541 142 2537 
Q 113 2534 56 2525 
L 56 2628 
L 353 2725 
Q 369 2728 981 2941 
Q 997 2941 1005 2927 
Q 1013 2913 1013 2894 
L 1013 2472 
Q 1219 2678 1375 2778 
Q 1656 2953 1953 2953 
Q 2384 2953 2695 2586 
Q 3006 2219 3006 1581 
Q 3006 956 2632 446 
Q 2259 -63 1694 -63 
Q 1519 -63 1391 -19 
Q 1191 47 1022 222 
L 1022 -800 
Q 1022 -1116 1125 -1187 
Q 1228 -1259 1575 -1284 
L 1575 -1394 
L 28 -1394 
L 28 -1291 
z
" transform="scale(0.015625)"/>
       <path id="Times-Roman-6c" d="M 131 88 
Q 422 116 525 205 
Q 628 294 628 553 
L 628 3606 
Q 628 3813 594 3891 
Q 531 4022 341 4022 
Q 297 4022 245 4012 
Q 194 4003 116 3984 
L 116 4088 
Q 538 4200 1131 4388 
Q 1153 4388 1158 4369 
Q 1163 4350 1163 4288 
L 1163 541 
Q 1163 269 1256 189 
Q 1350 109 1644 88 
L 1644 0 
L 131 0 
L 131 88 
z
" transform="scale(0.015625)"/>
       <path id="Times-Roman-2d" d="M 250 1644 
L 1822 1644 
L 1822 1244 
L 250 1244 
L 250 1644 
z
" transform="scale(0.015625)"/>
      </defs>
      <use xlink:href="#Times-Roman-73"/>
      <use xlink:href="#Times-Roman-70" x="38.916016"/>
      <use xlink:href="#Times-Roman-6c" x="88.916016"/>
      <use xlink:href="#Times-Roman-69" x="116.699219"/>
      <use xlink:href="#Times-Roman-74" x="144.482422"/>
      <use xlink:href="#Times-Roman-2d" x="172.265625"/>
      <use xlink:href="#Times-Roman-6c" x="205.566406"/>
      <use xlink:href="#Times-Roman-69" x="233.349609"/>
      <use xlink:href="#Times-Roman-6d" x="261.132812"/>
     </g>
    </g>
    <g id="line2d_54">
     <path d="M 446.204653 296.599484 
L 464.204653 296.599484 
L 482.204653 296.599484 
" style="fill: none; stroke-dasharray: 3.7,1.6; stroke-dashoffset: 0; stroke: #008000; stroke-opacity: 0.7"/>
     <g>
      <use xlink:href="#mfcd750e27b" x="464.204653" y="296.599484" style="fill: #ffffff; fill-opacity: 0.7; stroke: #008000; stroke-opacity: 0.7; stroke-width: 0.75; stroke-linejoin: miter"/>
     </g>
    </g>
    <g id="text_16">
     <!-- split -->
     <g transform="translate(496.604653 302.899484) scale(0.18 -0.18)">
      <use xlink:href="#Times-Roman-73"/>
      <use xlink:href="#Times-Roman-70" x="38.916016"/>
      <use xlink:href="#Times-Roman-6c" x="88.916016"/>
      <use xlink:href="#Times-Roman-69" x="116.699219"/>
      <use xlink:href="#Times-Roman-74" x="144.482422"/>
     </g>
    </g>
   </g>
  </g>
 </g>
 <defs>
  <clipPath id="p3a5ec3eecd">
   <rect x="59.481875" y="7.2" width="514.325903" height="315.820109"/>
  </clipPath>
 </defs>
</svg>
