<?xml version="1.0" encoding="utf-8" standalone="no"?>
<!DOCTYPE svg PUBLIC "-//W3C//DTD SVG 1.1//EN"
  "http://www.w3.org/Graphics/SVG/1.1/DTD/svg11.dtd">
<svg xmlns:xlink="http://www.w3.org/1999/xlink" width="590.007778pt" height="373.743859pt" viewBox="0 0 590.007778 373.743859" xmlns="http://www.w3.org/2000/svg" version="1.1">
 <metadata>
  <rdf:RDF xmlns:dc="http://purl.org/dc/elements/1.1/" xmlns:cc="http://creativecommons.org/ns#" xmlns:rdf="http://www.w3.org/1999/02/22-rdf-syntax-ns#">
   <cc:Work>
    <dc:type rdf:resource="http://purl.org/dc/dcmitype/StillImage"/>
    <dc:date>2023-12-14T14:38:40.519462</dc:date>
    <dc:format>image/svg+xml</dc:format>
    <dc:creator>
     <cc:Agent>
      <dc:title>Matplotlib v3.7.0, https://matplotlib.org/</dc:title>
     </cc:Agent>
    </dc:creator>
   </cc:Work>
  </rdf:RDF>
 </metadata>
 <defs>
  <style type="text/css">*{stroke-linejoin: round; stroke-linecap: butt}</style>
 </defs>
 <g id="figure_1">
  <g id="patch_1">
   <path d="M 0 373.743859 
L 590.007778 373.743859 
L 590.007778 0 
L 0 0 
z
" style="fill: #ffffff"/>
  </g>
  <g id="axes_1">
   <g id="patch_2">
    <path d="M 59.481875 323.020109 
L 573.807778 323.020109 
L 573.807778 7.2 
L 59.481875 7.2 
z
" style="fill: #ffffff"/>
   </g>
   <g id="matplotlib.axis_1">
    <g id="xtick_1">
     <g id="line2d_1">
      <path d="M 59.481875 323.020109 
L 59.481875 7.2 
" clip-path="url(#p80581ebfbb)" style="fill: none; stroke-dasharray: 1,1.65; stroke-dashoffset: 0; stroke: #000000"/>
     </g>
     <g id="line2d_2">
      <defs>
       <path id="m874dcb20be" d="M 0 0 
L 0 3.5 
" style="stroke: #000000; stroke-width: 0.8"/>
      </defs>
      <g>
       <use xlink:href="#m874dcb20be" x="59.481875" y="323.020109" style="stroke: #000000; stroke-width: 0.8"/>
      </g>
     </g>
     <g id="text_1">
      <!-- 0 -->
      <g transform="translate(54.981875 342.361359) scale(0.18 -0.18)">
       <defs>
        <path id="Times-Roman-30" d="M 1531 116 
Q 1991 116 2162 619 
Q 2334 1122 2334 2075 
Q 2334 2834 2231 3288 
Q 2038 4131 1506 4131 
Q 975 4131 778 3263 
Q 675 2800 675 2044 
Q 675 1334 781 909 
Q 981 116 1531 116 
z
M 1522 4300 
Q 2241 4300 2638 3547 
Q 2953 2938 2953 2147 
Q 2953 1525 2759 975 
Q 2394 -59 1494 -59 
Q 878 -59 481 500 
Q 56 1097 56 2122 
Q 56 2928 341 3509 
Q 725 4300 1522 4300 
z
" transform="scale(0.015625)"/>
       </defs>
       <use xlink:href="#Times-Roman-30"/>
      </g>
     </g>
    </g>
    <g id="xtick_2">
     <g id="line2d_3">
      <path d="M 116.629198 323.020109 
L 116.629198 7.2 
" clip-path="url(#p80581ebfbb)" style="fill: none; stroke-dasharray: 1,1.65; stroke-dashoffset: 0; stroke: #000000"/>
     </g>
     <g id="line2d_4">
      <g>
       <use xlink:href="#m874dcb20be" x="116.629198" y="323.020109" style="stroke: #000000; stroke-width: 0.8"/>
      </g>
     </g>
     <g id="text_2">
      <!-- 5 -->
      <g transform="translate(112.129198 342.361359) scale(0.18 -0.18)">
       <defs>
        <path id="Times-Roman-35" d="M 478 572 
Q 656 572 945 370 
Q 1234 169 1391 169 
Q 1750 169 2019 486 
Q 2288 803 2288 1266 
Q 2288 2075 1425 2431 
Q 947 2628 534 2628 
Q 466 2628 448 2633 
Q 431 2638 406 2666 
Q 413 2691 417 2708 
Q 422 2725 428 2741 
L 1109 4234 
L 2450 4234 
Q 2550 4234 2604 4268 
Q 2659 4303 2747 4397 
L 2797 4353 
L 2553 3775 
Q 2541 3747 2484 3739 
Q 2428 3731 2363 3731 
L 1153 3731 
L 888 3184 
Q 1400 3097 1638 3019 
Q 2028 2888 2291 2631 
Q 2516 2409 2631 2132 
Q 2747 1856 2747 1547 
Q 2747 856 2255 393 
Q 1763 -69 1009 -69 
Q 703 -69 516 -9 
Q 203 88 203 338 
Q 203 431 270 501 
Q 338 572 478 572 
z
" transform="scale(0.015625)"/>
       </defs>
       <use xlink:href="#Times-Roman-35"/>
      </g>
     </g>
    </g>
    <g id="xtick_3">
     <g id="line2d_5">
      <path d="M 173.77652 323.020109 
L 173.77652 7.2 
" clip-path="url(#p80581ebfbb)" style="fill: none; stroke-dasharray: 1,1.65; stroke-dashoffset: 0; stroke: #000000"/>
     </g>
     <g id="line2d_6">
      <g>
       <use xlink:href="#m874dcb20be" x="173.77652" y="323.020109" style="stroke: #000000; stroke-width: 0.8"/>
      </g>
     </g>
     <g id="text_3">
      <!-- 10 -->
      <g transform="translate(164.77652 342.361359) scale(0.18 -0.18)">
       <defs>
        <path id="Times-Roman-31" d="M 1894 4294 
Q 1906 4278 1907 4270 
Q 1909 4263 1909 4234 
L 1909 472 
Q 1909 231 2037 165 
Q 2166 100 2516 88 
L 2516 0 
L 753 0 
L 753 94 
Q 1131 113 1247 197 
Q 1363 281 1363 563 
L 1363 3456 
Q 1363 3606 1325 3684 
Q 1288 3763 1163 3763 
Q 1081 3763 951 3717 
Q 822 3672 709 3622 
L 709 3709 
L 1856 4294 
L 1894 4294 
z
" transform="scale(0.015625)"/>
       </defs>
       <use xlink:href="#Times-Roman-31"/>
       <use xlink:href="#Times-Roman-30" x="50"/>
      </g>
     </g>
    </g>
    <g id="xtick_4">
     <g id="line2d_7">
      <path d="M 230.923843 323.020109 
L 230.923843 7.2 
" clip-path="url(#p80581ebfbb)" style="fill: none; stroke-dasharray: 1,1.65; stroke-dashoffset: 0; stroke: #000000"/>
     </g>
     <g id="line2d_8">
      <g>
       <use xlink:href="#m874dcb20be" x="230.923843" y="323.020109" style="stroke: #000000; stroke-width: 0.8"/>
      </g>
     </g>
     <g id="text_4">
      <!-- 15 -->
      <g transform="translate(221.923843 342.361359) scale(0.18 -0.18)">
       <use xlink:href="#Times-Roman-31"/>
       <use xlink:href="#Times-Roman-35" x="50"/>
      </g>
     </g>
    </g>
    <g id="xtick_5">
     <g id="line2d_9">
      <path d="M 288.071165 323.020109 
L 288.071165 7.2 
" clip-path="url(#p80581ebfbb)" style="fill: none; stroke-dasharray: 1,1.65; stroke-dashoffset: 0; stroke: #000000"/>
     </g>
     <g id="line2d_10">
      <g>
       <use xlink:href="#m874dcb20be" x="288.071165" y="323.020109" style="stroke: #000000; stroke-width: 0.8"/>
      </g>
     </g>
     <g id="text_5">
      <!-- 20 -->
      <g transform="translate(279.071165 342.361359) scale(0.18 -0.18)">
       <defs>
        <path id="Times-Roman-32" d="M 191 72 
Q 1334 1259 1743 1815 
Q 2153 2372 2153 2900 
Q 2153 3363 1903 3605 
Q 1653 3847 1306 3847 
Q 878 3847 613 3534 
Q 466 3363 331 3006 
L 197 3034 
Q 353 3753 726 4033 
Q 1100 4313 1528 4313 
Q 2056 4313 2382 3980 
Q 2709 3647 2709 3166 
Q 2709 2653 2356 2178 
Q 2003 1703 822 488 
L 2256 488 
Q 2556 488 2678 559 
Q 2800 631 2953 909 
L 3034 872 
L 2688 0 
L 191 0 
L 191 72 
z
" transform="scale(0.015625)"/>
       </defs>
       <use xlink:href="#Times-Roman-32"/>
       <use xlink:href="#Times-Roman-30" x="50"/>
      </g>
     </g>
    </g>
    <g id="xtick_6">
     <g id="line2d_11">
      <path d="M 345.218488 323.020109 
L 345.218488 7.2 
" clip-path="url(#p80581ebfbb)" style="fill: none; stroke-dasharray: 1,1.65; stroke-dashoffset: 0; stroke: #000000"/>
     </g>
     <g id="line2d_12">
      <g>
       <use xlink:href="#m874dcb20be" x="345.218488" y="323.020109" style="stroke: #000000; stroke-width: 0.8"/>
      </g>
     </g>
     <g id="text_6">
      <!-- 25 -->
      <g transform="translate(336.218488 342.361359) scale(0.18 -0.18)">
       <use xlink:href="#Times-Roman-32"/>
       <use xlink:href="#Times-Roman-35" x="50"/>
      </g>
     </g>
    </g>
    <g id="xtick_7">
     <g id="line2d_13">
      <path d="M 402.36581 323.020109 
L 402.36581 7.2 
" clip-path="url(#p80581ebfbb)" style="fill: none; stroke-dasharray: 1,1.65; stroke-dashoffset: 0; stroke: #000000"/>
     </g>
     <g id="line2d_14">
      <g>
       <use xlink:href="#m874dcb20be" x="402.36581" y="323.020109" style="stroke: #000000; stroke-width: 0.8"/>
      </g>
     </g>
     <g id="text_7">
      <!-- 30 -->
      <g transform="translate(393.36581 342.361359) scale(0.18 -0.18)">
       <defs>
        <path id="Times-Roman-33" d="M 497 544 
Q 669 544 951 366 
Q 1234 188 1431 188 
Q 1869 188 2081 483 
Q 2294 778 2294 1125 
Q 2294 1459 2122 1713 
Q 1831 2141 1141 2141 
Q 1100 2141 1062 2139 
Q 1025 2138 975 2131 
L 969 2213 
Q 1469 2394 1756 2628 
Q 2044 2863 2044 3247 
Q 2044 3588 1817 3766 
Q 1591 3944 1300 3944 
Q 956 3944 694 3691 
Q 550 3553 384 3266 
L 288 3288 
Q 413 3763 753 4047 
Q 1094 4331 1541 4331 
Q 2019 4331 2280 4068 
Q 2541 3806 2541 3463 
Q 2541 3159 2325 2906 
Q 2203 2763 1947 2584 
Q 2247 2456 2428 2284 
Q 2769 1956 2769 1453 
Q 2769 859 2301 406 
Q 1834 -47 972 -47 
Q 588 -47 433 67 
Q 278 181 278 313 
Q 278 394 329 469 
Q 381 544 497 544 
z
" transform="scale(0.015625)"/>
       </defs>
       <use xlink:href="#Times-Roman-33"/>
       <use xlink:href="#Times-Roman-30" x="50"/>
      </g>
     </g>
    </g>
    <g id="xtick_8">
     <g id="line2d_15">
      <path d="M 459.513133 323.020109 
L 459.513133 7.2 
" clip-path="url(#p80581ebfbb)" style="fill: none; stroke-dasharray: 1,1.65; stroke-dashoffset: 0; stroke: #000000"/>
     </g>
     <g id="line2d_16">
      <g>
       <use xlink:href="#m874dcb20be" x="459.513133" y="323.020109" style="stroke: #000000; stroke-width: 0.8"/>
      </g>
     </g>
     <g id="text_8">
      <!-- 35 -->
      <g transform="translate(450.513133 342.361359) scale(0.18 -0.18)">
       <use xlink:href="#Times-Roman-33"/>
       <use xlink:href="#Times-Roman-35" x="50"/>
      </g>
     </g>
    </g>
    <g id="xtick_9">
     <g id="line2d_17">
      <path d="M 516.660455 323.020109 
L 516.660455 7.2 
" clip-path="url(#p80581ebfbb)" style="fill: none; stroke-dasharray: 1,1.65; stroke-dashoffset: 0; stroke: #000000"/>
     </g>
     <g id="line2d_18">
      <g>
       <use xlink:href="#m874dcb20be" x="516.660455" y="323.020109" style="stroke: #000000; stroke-width: 0.8"/>
      </g>
     </g>
     <g id="text_9">
      <!-- 40 -->
      <g transform="translate(507.660455 342.361359) scale(0.18 -0.18)">
       <defs>
        <path id="Times-Roman-34" d="M 1866 3650 
L 331 1481 
L 1866 1481 
L 1866 3650 
z
M 2072 4294 
L 2369 4294 
L 2369 1481 
L 3022 1481 
L 3022 1066 
L 2369 1066 
L 2369 0 
L 1872 0 
L 1872 1066 
L 72 1066 
L 72 1481 
L 2072 4294 
z
" transform="scale(0.015625)"/>
       </defs>
       <use xlink:href="#Times-Roman-34"/>
       <use xlink:href="#Times-Roman-30" x="50"/>
      </g>
     </g>
    </g>
    <g id="xtick_10">
     <g id="line2d_19">
      <path d="M 573.807778 323.020109 
L 573.807778 7.2 
" clip-path="url(#p80581ebfbb)" style="fill: none; stroke-dasharray: 1,1.65; stroke-dashoffset: 0; stroke: #000000"/>
     </g>
     <g id="line2d_20">
      <g>
       <use xlink:href="#m874dcb20be" x="573.807778" y="323.020109" style="stroke: #000000; stroke-width: 0.8"/>
      </g>
     </g>
     <g id="text_10">
      <!-- 45 -->
      <g transform="translate(564.807778 342.361359) scale(0.18 -0.18)">
       <use xlink:href="#Times-Roman-34"/>
       <use xlink:href="#Times-Roman-35" x="50"/>
      </g>
     </g>
    </g>
    <g id="text_11">
     <!-- instances -->
     <g transform="translate(283.652795 362.623234) scale(0.18 -0.18)">
      <defs>
       <path id="Times-Roman-69" d="M 525 4034 
Q 525 4169 619 4266 
Q 713 4363 850 4363 
Q 984 4363 1079 4267 
Q 1175 4172 1175 4034 
Q 1175 3900 1079 3804 
Q 984 3709 850 3709 
Q 713 3709 619 3804 
Q 525 3900 525 4034 
z
M 125 88 
Q 459 119 546 201 
Q 634 284 634 650 
L 634 2141 
Q 634 2344 606 2422 
Q 559 2550 409 2550 
Q 375 2550 342 2544 
Q 309 2538 153 2494 
L 153 2591 
L 288 2634 
Q 834 2813 1050 2903 
Q 1138 2941 1163 2941 
Q 1169 2919 1169 2894 
L 1169 650 
Q 1169 294 1255 203 
Q 1341 113 1644 88 
L 1644 0 
L 125 0 
L 125 88 
z
" transform="scale(0.015625)"/>
       <path id="Times-Roman-6e" d="M 116 88 
Q 338 116 427 198 
Q 516 281 516 569 
L 516 2153 
Q 516 2353 478 2434 
Q 419 2553 234 2553 
Q 206 2553 176 2550 
Q 147 2547 103 2541 
L 103 2650 
Q 231 2688 709 2844 
L 1003 2941 
Q 1025 2941 1029 2925 
Q 1034 2909 1034 2881 
L 1034 2422 
Q 1322 2691 1484 2791 
Q 1728 2944 1991 2944 
Q 2203 2944 2378 2822 
Q 2716 2584 2716 1975 
L 2716 516 
Q 2716 291 2806 191 
Q 2897 91 3109 88 
L 3109 0 
L 1775 0 
L 1775 88 
Q 2003 119 2093 214 
Q 2184 309 2184 628 
L 2184 1963 
Q 2184 2231 2084 2407 
Q 1984 2584 1716 2584 
Q 1531 2584 1341 2459 
Q 1234 2388 1066 2222 
L 1066 472 
Q 1066 247 1166 170 
Q 1266 94 1481 88 
L 1481 0 
L 116 0 
L 116 88 
z
M 1603 2944 
L 1603 2944 
z
" transform="scale(0.015625)"/>
       <path id="Times-Roman-73" d="M 331 984 
L 434 984 
Q 506 628 628 438 
Q 847 88 1269 88 
Q 1503 88 1639 217 
Q 1775 347 1775 553 
Q 1775 684 1697 806 
Q 1619 928 1422 1044 
L 1072 1244 
Q 688 1450 506 1659 
Q 325 1869 325 2153 
Q 325 2503 575 2728 
Q 825 2953 1203 2953 
Q 1369 2953 1567 2890 
Q 1766 2828 1791 2828 
Q 1847 2828 1872 2843 
Q 1897 2859 1916 2894 
L 1991 2894 
L 2013 2022 
L 1916 2022 
Q 1853 2325 1747 2494 
Q 1553 2806 1188 2806 
Q 969 2806 844 2672 
Q 719 2538 719 2356 
Q 719 2069 1150 1844 
L 1563 1622 
Q 2228 1259 2228 778 
Q 2228 409 1951 175 
Q 1675 -59 1228 -59 
Q 1041 -59 803 3 
Q 566 66 522 66 
Q 484 66 456 39 
Q 428 13 413 -25 
L 331 -25 
L 331 984 
z
M 1247 2953 
L 1247 2953 
z
" transform="scale(0.015625)"/>
       <path id="Times-Roman-74" d="M 1628 2881 
L 1628 2656 
L 991 2656 
L 984 856 
Q 984 619 1025 497 
Q 1100 281 1319 281 
Q 1431 281 1514 334 
Q 1597 388 1703 503 
L 1784 434 
L 1716 341 
Q 1553 122 1372 31 
Q 1191 -59 1022 -59 
Q 653 -59 522 269 
Q 450 447 450 763 
L 450 2656 
L 109 2656 
Q 94 2666 86 2675 
Q 78 2684 78 2700 
Q 78 2731 92 2748 
Q 106 2766 181 2828 
Q 397 3006 492 3117 
Q 588 3228 941 3703 
Q 981 3703 989 3697 
Q 997 3691 997 3650 
L 997 2881 
L 1628 2881 
z
" transform="scale(0.015625)"/>
       <path id="Times-Roman-61" d="M 1834 1731 
Q 1475 1613 1241 1469 
Q 791 1191 791 838 
Q 791 553 978 419 
Q 1100 331 1250 331 
Q 1456 331 1645 447 
Q 1834 563 1834 741 
L 1834 1731 
z
M 234 622 
Q 234 1075 688 1378 
Q 975 1566 1834 1888 
L 1834 2153 
Q 1834 2472 1772 2597 
Q 1666 2806 1331 2806 
Q 1172 2806 1028 2725 
Q 884 2641 884 2494 
Q 884 2456 900 2367 
Q 916 2278 916 2253 
Q 916 2078 800 2009 
Q 734 1969 644 1969 
Q 503 1969 428 2061 
Q 353 2153 353 2266 
Q 353 2484 623 2723 
Q 894 2963 1416 2963 
Q 2022 2963 2238 2569 
Q 2353 2353 2353 1941 
L 2353 688 
Q 2353 506 2378 438 
Q 2419 316 2547 316 
Q 2619 316 2666 337 
Q 2713 359 2828 444 
L 2828 281 
Q 2728 159 2613 81 
Q 2438 -38 2256 -38 
Q 2044 -38 1948 100 
Q 1853 238 1844 428 
Q 1606 222 1438 122 
Q 1153 -47 897 -47 
Q 628 -47 431 142 
Q 234 331 234 622 
z
M 1425 2963 
L 1425 2963 
z
" transform="scale(0.015625)"/>
       <path id="Times-Roman-63" d="M 1591 2947 
Q 1981 2947 2264 2745 
Q 2547 2544 2547 2303 
Q 2547 2200 2475 2111 
Q 2403 2022 2253 2022 
Q 2144 2022 2061 2097 
Q 1978 2172 1941 2316 
L 1903 2466 
Q 1863 2631 1763 2700 
Q 1659 2766 1491 2766 
Q 1134 2766 889 2455 
Q 644 2144 644 1628 
Q 644 1156 914 781 
Q 1184 406 1644 406 
Q 1969 406 2222 619 
Q 2366 741 2547 1006 
L 2634 953 
Q 2456 578 2259 359 
Q 1881 -59 1384 -59 
Q 897 -59 522 325 
Q 147 709 147 1369 
Q 147 2016 556 2481 
Q 966 2947 1591 2947 
z
M 1453 2947 
L 1453 2947 
z
" transform="scale(0.015625)"/>
       <path id="Times-Roman-65" d="M 1466 2931 
Q 1906 2931 2237 2626 
Q 2569 2322 2569 1763 
L 584 1763 
Q 616 1038 912 706 
Q 1209 375 1616 375 
Q 1944 375 2169 547 
Q 2394 719 2584 1034 
L 2694 997 
Q 2566 600 2214 262 
Q 1863 -75 1353 -75 
Q 766 -75 445 369 
Q 125 813 125 1391 
Q 125 2019 497 2475 
Q 869 2931 1466 2931 
z
M 1284 2703 
Q 928 2703 741 2388 
Q 641 2219 597 1963 
L 1916 1963 
Q 1881 2275 1797 2428 
Q 1644 2703 1284 2703 
z
M 1425 2931 
L 1425 2931 
z
" transform="scale(0.015625)"/>
      </defs>
      <use xlink:href="#Times-Roman-69"/>
      <use xlink:href="#Times-Roman-6e" x="27.783203"/>
      <use xlink:href="#Times-Roman-73" x="77.783203"/>
      <use xlink:href="#Times-Roman-74" x="116.699219"/>
      <use xlink:href="#Times-Roman-61" x="144.482422"/>
      <use xlink:href="#Times-Roman-6e" x="188.867188"/>
      <use xlink:href="#Times-Roman-63" x="238.867188"/>
      <use xlink:href="#Times-Roman-65" x="283.251953"/>
      <use xlink:href="#Times-Roman-73" x="327.636719"/>
     </g>
    </g>
   </g>
   <g id="matplotlib.axis_2">
    <g id="ytick_1">
     <g id="line2d_21">
      <path d="M 59.481875 235.524077 
L 573.807778 235.524077 
" clip-path="url(#p80581ebfbb)" style="fill: none; stroke-dasharray: 1,1.65; stroke-dashoffset: 0; stroke: #000000"/>
     </g>
     <g id="line2d_22">
      <defs>
       <path id="mbee51d86a3" d="M 0 0 
L -3.5 0 
" style="stroke: #000000; stroke-width: 0.8"/>
      </defs>
      <g>
       <use xlink:href="#mbee51d86a3" x="59.481875" y="235.524077" style="stroke: #000000; stroke-width: 0.8"/>
      </g>
     </g>
     <g id="text_12">
      <!-- $\mathdefault{10^{1}}$ -->
      <g transform="translate(27.461875 241.694702) scale(0.18 -0.18)">
       <use xlink:href="#Times-Roman-31" transform="translate(0 0.621875)"/>
       <use xlink:href="#Times-Roman-30" transform="translate(50 0.621875)"/>
       <use xlink:href="#Times-Roman-31" transform="translate(100.785313 32.034375) scale(0.7)"/>
      </g>
     </g>
    </g>
    <g id="ytick_2">
     <g id="line2d_23">
      <path d="M 59.481875 142.64096 
L 573.807778 142.64096 
" clip-path="url(#p80581ebfbb)" style="fill: none; stroke-dasharray: 1,1.65; stroke-dashoffset: 0; stroke: #000000"/>
     </g>
     <g id="line2d_24">
      <g>
       <use xlink:href="#mbee51d86a3" x="59.481875" y="142.64096" style="stroke: #000000; stroke-width: 0.8"/>
      </g>
     </g>
     <g id="text_13">
      <!-- $\mathdefault{10^{2}}$ -->
      <g transform="translate(27.461875 148.811585) scale(0.18 -0.18)">
       <use xlink:href="#Times-Roman-31" transform="translate(0 0.414062)"/>
       <use xlink:href="#Times-Roman-30" transform="translate(50 0.414062)"/>
       <use xlink:href="#Times-Roman-32" transform="translate(100.785313 31.826562) scale(0.7)"/>
      </g>
     </g>
    </g>
    <g id="ytick_3">
     <g id="line2d_25">
      <path d="M 59.481875 49.757844 
L 573.807778 49.757844 
" clip-path="url(#p80581ebfbb)" style="fill: none; stroke-dasharray: 1,1.65; stroke-dashoffset: 0; stroke: #000000"/>
     </g>
     <g id="line2d_26">
      <g>
       <use xlink:href="#mbee51d86a3" x="59.481875" y="49.757844" style="stroke: #000000; stroke-width: 0.8"/>
      </g>
     </g>
     <g id="text_14">
      <!-- $\mathdefault{10^{3}}$ -->
      <g transform="translate(27.461875 55.928469) scale(0.18 -0.18)">
       <use xlink:href="#Times-Roman-31" transform="translate(0 0.217188)"/>
       <use xlink:href="#Times-Roman-30" transform="translate(50 0.217188)"/>
       <use xlink:href="#Times-Roman-33" transform="translate(100.785313 31.629688) scale(0.7)"/>
      </g>
     </g>
    </g>
    <g id="ytick_4">
     <g id="line2d_27">
      <defs>
       <path id="m91c233cce9" d="M 0 0 
L -2 0 
" style="stroke: #000000; stroke-width: 0.6"/>
      </defs>
      <g>
       <use xlink:href="#m91c233cce9" x="59.481875" y="300.44659" style="stroke: #000000; stroke-width: 0.6"/>
      </g>
     </g>
    </g>
    <g id="ytick_5">
     <g id="line2d_28">
      <g>
       <use xlink:href="#m91c233cce9" x="59.481875" y="284.090685" style="stroke: #000000; stroke-width: 0.6"/>
      </g>
     </g>
    </g>
    <g id="ytick_6">
     <g id="line2d_29">
      <g>
       <use xlink:href="#m91c233cce9" x="59.481875" y="272.485985" style="stroke: #000000; stroke-width: 0.6"/>
      </g>
     </g>
    </g>
    <g id="ytick_7">
     <g id="line2d_30">
      <g>
       <use xlink:href="#m91c233cce9" x="59.481875" y="263.484681" style="stroke: #000000; stroke-width: 0.6"/>
      </g>
     </g>
    </g>
    <g id="ytick_8">
     <g id="line2d_31">
      <g>
       <use xlink:href="#m91c233cce9" x="59.481875" y="256.13008" style="stroke: #000000; stroke-width: 0.6"/>
      </g>
     </g>
    </g>
    <g id="ytick_9">
     <g id="line2d_32">
      <g>
       <use xlink:href="#m91c233cce9" x="59.481875" y="249.911854" style="stroke: #000000; stroke-width: 0.6"/>
      </g>
     </g>
    </g>
    <g id="ytick_10">
     <g id="line2d_33">
      <g>
       <use xlink:href="#m91c233cce9" x="59.481875" y="244.525381" style="stroke: #000000; stroke-width: 0.6"/>
      </g>
     </g>
    </g>
    <g id="ytick_11">
     <g id="line2d_34">
      <g>
       <use xlink:href="#m91c233cce9" x="59.481875" y="239.774176" style="stroke: #000000; stroke-width: 0.6"/>
      </g>
     </g>
    </g>
    <g id="ytick_12">
     <g id="line2d_35">
      <g>
       <use xlink:href="#m91c233cce9" x="59.481875" y="207.563473" style="stroke: #000000; stroke-width: 0.6"/>
      </g>
     </g>
    </g>
    <g id="ytick_13">
     <g id="line2d_36">
      <g>
       <use xlink:href="#m91c233cce9" x="59.481875" y="191.207568" style="stroke: #000000; stroke-width: 0.6"/>
      </g>
     </g>
    </g>
    <g id="ytick_14">
     <g id="line2d_37">
      <g>
       <use xlink:href="#m91c233cce9" x="59.481875" y="179.602869" style="stroke: #000000; stroke-width: 0.6"/>
      </g>
     </g>
    </g>
    <g id="ytick_15">
     <g id="line2d_38">
      <g>
       <use xlink:href="#m91c233cce9" x="59.481875" y="170.601565" style="stroke: #000000; stroke-width: 0.6"/>
      </g>
     </g>
    </g>
    <g id="ytick_16">
     <g id="line2d_39">
      <g>
       <use xlink:href="#m91c233cce9" x="59.481875" y="163.246964" style="stroke: #000000; stroke-width: 0.6"/>
      </g>
     </g>
    </g>
    <g id="ytick_17">
     <g id="line2d_40">
      <g>
       <use xlink:href="#m91c233cce9" x="59.481875" y="157.028737" style="stroke: #000000; stroke-width: 0.6"/>
      </g>
     </g>
    </g>
    <g id="ytick_18">
     <g id="line2d_41">
      <g>
       <use xlink:href="#m91c233cce9" x="59.481875" y="151.642265" style="stroke: #000000; stroke-width: 0.6"/>
      </g>
     </g>
    </g>
    <g id="ytick_19">
     <g id="line2d_42">
      <g>
       <use xlink:href="#m91c233cce9" x="59.481875" y="146.891059" style="stroke: #000000; stroke-width: 0.6"/>
      </g>
     </g>
    </g>
    <g id="ytick_20">
     <g id="line2d_43">
      <g>
       <use xlink:href="#m91c233cce9" x="59.481875" y="114.680356" style="stroke: #000000; stroke-width: 0.6"/>
      </g>
     </g>
    </g>
    <g id="ytick_21">
     <g id="line2d_44">
      <g>
       <use xlink:href="#m91c233cce9" x="59.481875" y="98.324451" style="stroke: #000000; stroke-width: 0.6"/>
      </g>
     </g>
    </g>
    <g id="ytick_22">
     <g id="line2d_45">
      <g>
       <use xlink:href="#m91c233cce9" x="59.481875" y="86.719752" style="stroke: #000000; stroke-width: 0.6"/>
      </g>
     </g>
    </g>
    <g id="ytick_23">
     <g id="line2d_46">
      <g>
       <use xlink:href="#m91c233cce9" x="59.481875" y="77.718448" style="stroke: #000000; stroke-width: 0.6"/>
      </g>
     </g>
    </g>
    <g id="ytick_24">
     <g id="line2d_47">
      <g>
       <use xlink:href="#m91c233cce9" x="59.481875" y="70.363847" style="stroke: #000000; stroke-width: 0.6"/>
      </g>
     </g>
    </g>
    <g id="ytick_25">
     <g id="line2d_48">
      <g>
       <use xlink:href="#m91c233cce9" x="59.481875" y="64.145621" style="stroke: #000000; stroke-width: 0.6"/>
      </g>
     </g>
    </g>
    <g id="ytick_26">
     <g id="line2d_49">
      <g>
       <use xlink:href="#m91c233cce9" x="59.481875" y="58.759148" style="stroke: #000000; stroke-width: 0.6"/>
      </g>
     </g>
    </g>
    <g id="ytick_27">
     <g id="line2d_50">
      <g>
       <use xlink:href="#m91c233cce9" x="59.481875" y="54.007942" style="stroke: #000000; stroke-width: 0.6"/>
      </g>
     </g>
    </g>
    <g id="ytick_28">
     <g id="line2d_51">
      <g>
       <use xlink:href="#m91c233cce9" x="59.481875" y="21.79724" style="stroke: #000000; stroke-width: 0.6"/>
      </g>
     </g>
    </g>
    <g id="text_15">
     <!-- CPU time (s) -->
     <g transform="translate(19.54125 212.610367) rotate(-90) scale(0.18 -0.18)">
      <defs>
       <path id="Times-Roman-43" d="M 2369 4309 
Q 2716 4309 3081 4206 
Q 3447 4103 3491 4103 
Q 3581 4103 3662 4153 
Q 3744 4203 3775 4309 
L 3909 4309 
L 3969 2872 
L 3822 2872 
Q 3694 3300 3488 3563 
Q 3094 4056 2428 4056 
Q 1756 4056 1329 3525 
Q 903 2994 903 2063 
Q 903 1206 1351 695 
Q 1800 184 2488 184 
Q 2984 184 3403 422 
Q 3644 556 3931 828 
L 4050 709 
Q 3838 441 3522 238 
Q 2984 -106 2356 -106 
Q 1325 -106 719 553 
Q 159 1163 159 2075 
Q 159 3009 750 3644 
Q 1372 4309 2369 4309 
z
M 2347 4309 
Q 2347 4309 2347 4309 
z
" transform="scale(0.015625)"/>
       <path id="Times-Roman-50" d="M 2769 3072 
Q 2769 3659 2263 3878 
Q 1991 3997 1575 3997 
Q 1378 3997 1333 3958 
Q 1288 3919 1288 3784 
L 1288 2116 
Q 1459 2100 1512 2097 
Q 1566 2094 1616 2094 
Q 2056 2094 2309 2219 
Q 2769 2447 2769 3072 
z
M 103 116 
Q 469 150 559 261 
Q 650 372 650 769 
L 650 3541 
Q 650 3875 548 3981 
Q 447 4088 103 4116 
L 103 4234 
L 1791 4234 
Q 2603 4234 3034 3918 
Q 3466 3603 3466 3088 
Q 3466 2434 2987 2140 
Q 2509 1847 1791 1847 
Q 1688 1847 1527 1851 
Q 1366 1856 1288 1856 
L 1288 694 
Q 1288 331 1398 237 
Q 1509 144 1894 116 
L 1894 0 
L 103 0 
L 103 116 
z
" transform="scale(0.015625)"/>
       <path id="Times-Roman-55" d="M 1903 4234 
L 1903 4116 
Q 1534 4091 1425 3992 
Q 1316 3894 1316 3541 
L 1316 1494 
Q 1316 991 1453 709 
Q 1709 197 2425 197 
Q 3209 197 3478 722 
Q 3628 1016 3628 1628 
L 3628 3294 
Q 3628 3816 3503 3948 
Q 3378 4081 3028 4116 
L 3028 4234 
L 4509 4234 
L 4509 4116 
Q 4138 4075 4023 3936 
Q 3909 3797 3909 3294 
L 3909 1628 
Q 3909 966 3706 594 
Q 3331 -91 2281 -91 
Q 1244 -91 869 584 
Q 666 947 666 1541 
L 666 3541 
Q 666 3891 558 3989 
Q 450 4088 88 4116 
L 88 4234 
L 1903 4234 
z
M 2316 4234 
L 2316 4234 
z
" transform="scale(0.015625)"/>
       <path id="Times-Roman-20" transform="scale(0.015625)"/>
       <path id="Times-Roman-6d" d="M 103 81 
Q 347 103 428 163 
Q 553 253 553 525 
L 553 2141 
Q 553 2372 492 2444 
Q 431 2516 291 2516 
Q 225 2516 192 2509 
Q 159 2503 116 2488 
L 116 2597 
L 341 2672 
Q 463 2713 741 2819 
Q 1019 2925 1034 2925 
Q 1050 2925 1053 2909 
Q 1056 2894 1056 2850 
L 1056 2428 
Q 1366 2709 1591 2817 
Q 1816 2925 2053 2925 
Q 2375 2925 2566 2706 
Q 2666 2588 2731 2384 
Q 2963 2619 3134 2731 
Q 3431 2925 3741 2925 
Q 4244 2925 4413 2516 
Q 4509 2284 4509 1784 
L 4509 488 
Q 4509 266 4607 186 
Q 4706 106 4963 81 
L 4963 0 
L 3553 0 
L 3553 88 
Q 3825 113 3911 197 
Q 3997 281 3997 541 
L 3997 1888 
Q 3997 2191 3931 2334 
Q 3816 2591 3478 2591 
Q 3275 2591 3075 2456 
Q 2959 2378 2791 2206 
L 2791 606 
Q 2791 353 2880 222 
Q 2969 91 3256 81 
L 3256 0 
L 1822 0 
L 1822 81 
Q 2119 119 2200 225 
Q 2281 331 2281 747 
L 2281 1622 
Q 2281 2103 2219 2284 
Q 2116 2591 1781 2591 
Q 1591 2591 1406 2486 
Q 1222 2381 1081 2213 
L 1081 503 
Q 1081 266 1164 175 
Q 1247 84 1525 81 
L 1525 0 
L 103 0 
L 103 81 
z
" transform="scale(0.015625)"/>
       <path id="Times-Roman-28" d="M 294 1606 
Q 294 2694 944 3516 
Q 1344 4019 1888 4325 
L 1947 4222 
Q 1444 3822 1228 3444 
Q 850 2784 850 1688 
Q 850 875 994 347 
Q 1247 -578 1947 -1038 
L 1866 -1141 
Q 1481 -956 1034 -419 
Q 294 472 294 1606 
z
" transform="scale(0.015625)"/>
       <path id="Times-Roman-29" d="M 1822 1575 
Q 1822 1109 1700 693 
Q 1578 278 1344 -91 
Q 1097 -484 684 -825 
Q 413 -1050 228 -1141 
L 169 -1038 
Q 650 -672 872 -291 
Q 1266 384 1266 1494 
Q 1266 2391 1084 2959 
Q 831 3763 169 4222 
L 250 4325 
Q 744 4050 1169 3494 
Q 1822 2638 1822 1575 
z
" transform="scale(0.015625)"/>
      </defs>
      <use xlink:href="#Times-Roman-43"/>
      <use xlink:href="#Times-Roman-50" x="66.699219"/>
      <use xlink:href="#Times-Roman-55" x="122.314453"/>
      <use xlink:href="#Times-Roman-20" x="194.53125"/>
      <use xlink:href="#Times-Roman-74" x="219.53125"/>
      <use xlink:href="#Times-Roman-69" x="247.314453"/>
      <use xlink:href="#Times-Roman-6d" x="275.097656"/>
      <use xlink:href="#Times-Roman-65" x="352.880859"/>
      <use xlink:href="#Times-Roman-20" x="397.265625"/>
      <use xlink:href="#Times-Roman-28" x="422.265625"/>
      <use xlink:href="#Times-Roman-73" x="455.566406"/>
      <use xlink:href="#Times-Roman-29" x="494.482422"/>
     </g>
    </g>
   </g>
   <g id="patch_3">
    <path d="M 59.481875 323.020109 
L 59.481875 7.2 
" style="fill: none; stroke: #000000; stroke-linejoin: miter; stroke-linecap: square"/>
   </g>
   <g id="patch_4">
    <path d="M 573.807778 323.020109 
L 573.807778 7.2 
" style="fill: none; stroke: #000000; stroke-linejoin: miter; stroke-linecap: square"/>
   </g>
   <g id="patch_5">
    <path d="M 59.481875 323.020109 
L 573.807778 323.020109 
" style="fill: none; stroke: #000000; stroke-linejoin: miter; stroke-linecap: square"/>
   </g>
   <g id="patch_6">
    <path d="M 59.481875 7.2 
L 573.807778 7.2 
" style="fill: none; stroke: #000000; stroke-linejoin: miter; stroke-linecap: square"/>
   </g>
   <g id="line2d_52">
    <path d="M 70.91134 323.020109 
L 82.340804 295.199219 
L 93.770269 290.167189 
L 105.199733 285.482437 
L 116.629198 270.901688 
L 128.058662 260.454976 
L 139.488127 260.204947 
L 150.917591 256.345151 
L 162.347056 256.108519 
L 173.77652 251.649976 
L 185.205985 242.265875 
L 196.635449 240.68855 
L 208.064914 240.216558 
L 219.494378 233.657722 
L 230.923843 233.078915 
L 242.353307 225.164734 
L 253.782772 223.637442 
L 265.212236 222.859208 
L 276.641701 213.720437 
L 288.071165 213.674693 
L 299.50063 212.017603 
L 310.930094 207.672905 
L 322.359559 204.241797 
L 333.789023 202.221252 
L 345.218488 186.360122 
L 356.647952 186.069385 
L 368.077417 180.453115 
L 379.506881 179.243418 
L 390.936346 175.831156 
L 402.36581 168.404737 
L 413.795275 162.857766 
L 425.224739 130.798621 
L 436.654204 126.114282 
L 448.083668 113.107762 
L 459.513133 99.371855 
L 470.942597 84.258975 
L 482.372062 80.589805 
L 493.801526 59.142731 
L 505.230991 44.163158 
L 516.660455 30.084114 
L 528.08992 25.218953 
" clip-path="url(#p80581ebfbb)" style="fill: none; stroke: #008000; stroke-opacity: 0.7; stroke-width: 2; stroke-linecap: square"/>
   </g>
   <g id="line2d_53">
    <path d="M 70.91134 308.102182 
L 82.340804 294.789401 
L 93.770269 284.699261 
L 105.199733 276.299365 
L 116.629198 262.056299 
L 128.058662 241.669645 
L 139.488127 240.01382 
L 150.917591 238.745862 
L 162.347056 236.646427 
L 173.77652 232.879403 
L 185.205985 232.296414 
L 196.635449 229.399945 
L 208.064914 225.941491 
L 219.494378 222.112516 
L 230.923843 208.707861 
L 242.353307 207.467824 
L 253.782772 206.909942 
L 265.212236 197.61123 
L 276.641701 197.247544 
L 288.071165 196.091467 
L 299.50063 195.444781 
L 310.930094 188.778396 
L 322.359559 177.788225 
L 333.789023 177.691111 
L 345.218488 174.874022 
L 356.647952 170.832394 
L 368.077417 165.66343 
L 379.506881 163.924445 
L 390.936346 157.098241 
L 402.36581 156.067177 
L 413.795275 152.613328 
L 425.224739 152.321193 
L 436.654204 148.187646 
L 448.083668 112.87502 
L 459.513133 91.116846 
L 470.942597 82.676052 
L 482.372062 76.760207 
L 493.801526 72.950148 
L 505.230991 63.328749 
L 516.660455 50.258073 
L 528.08992 29.599278 
L 539.519384 28.684337 
L 550.948849 20.138037 
L 562.378313 7.908455 
" clip-path="url(#p80581ebfbb)" style="fill: none; stroke-dasharray: 7.4,3.2; stroke-dashoffset: 0; stroke: #ff0000; stroke-opacity: 0.7; stroke-width: 2"/>
   </g>
   <g id="line2d_54">
    <path d="M 70.91134 320.451528 
L 82.340804 312.062071 
L 93.770269 305.656397 
L 105.199733 297.087081 
L 116.629198 282.318165 
L 128.058662 253.224446 
L 139.488127 252.616467 
L 150.917591 252.068475 
L 162.347056 250.222759 
L 173.77652 249.227589 
L 185.205985 248.199957 
L 196.635449 242.214113 
L 208.064914 241.519732 
L 219.494378 235.302423 
L 230.923843 228.955651 
L 242.353307 217.938457 
L 253.782772 216.529593 
L 265.212236 215.929412 
L 276.641701 214.905669 
L 288.071165 212.319004 
L 299.50063 207.285367 
L 310.930094 199.640359 
L 322.359559 196.385891 
L 333.789023 185.285492 
L 345.218488 182.737211 
L 356.647952 181.437548 
L 368.077417 179.808996 
L 379.506881 178.325242 
L 390.936346 170.308817 
L 402.36581 164.953823 
L 413.795275 162.43693 
L 425.224739 160.763614 
L 436.654204 159.550652 
L 448.083668 125.498407 
L 459.513133 99.417029 
L 470.942597 93.535736 
L 482.372062 90.787673 
L 493.801526 82.344977 
L 505.230991 73.930418 
L 516.660455 56.529057 
L 528.08992 42.911469 
L 539.519384 33.993658 
L 550.948849 28.17795 
L 562.378313 25.460283 
" clip-path="url(#p80581ebfbb)" style="fill: none; stroke: #0000ff; stroke-opacity: 0.7; stroke-linecap: square"/>
    <defs>
     <path id="m379eef4cb0" d="M -2.5 2.5 
L 2.5 -2.5 
M -2.5 -2.5 
L 2.5 2.5 
" style="stroke: #0000ff; stroke-opacity: 0.7; stroke-width: 0.75"/>
    </defs>
    <g clip-path="url(#p80581ebfbb)">
     <use xlink:href="#m379eef4cb0" x="70.91134" y="320.451528" style="fill: #ffffff; fill-opacity: 0.7; stroke: #0000ff; stroke-opacity: 0.7; stroke-width: 0.75"/>
     <use xlink:href="#m379eef4cb0" x="82.340804" y="312.062071" style="fill: #ffffff; fill-opacity: 0.7; stroke: #0000ff; stroke-opacity: 0.7; stroke-width: 0.75"/>
     <use xlink:href="#m379eef4cb0" x="93.770269" y="305.656397" style="fill: #ffffff; fill-opacity: 0.7; stroke: #0000ff; stroke-opacity: 0.7; stroke-width: 0.75"/>
     <use xlink:href="#m379eef4cb0" x="105.199733" y="297.087081" style="fill: #ffffff; fill-opacity: 0.7; stroke: #0000ff; stroke-opacity: 0.7; stroke-width: 0.75"/>
     <use xlink:href="#m379eef4cb0" x="116.629198" y="282.318165" style="fill: #ffffff; fill-opacity: 0.7; stroke: #0000ff; stroke-opacity: 0.7; stroke-width: 0.75"/>
     <use xlink:href="#m379eef4cb0" x="128.058662" y="253.224446" style="fill: #ffffff; fill-opacity: 0.7; stroke: #0000ff; stroke-opacity: 0.7; stroke-width: 0.75"/>
     <use xlink:href="#m379eef4cb0" x="139.488127" y="252.616467" style="fill: #ffffff; fill-opacity: 0.7; stroke: #0000ff; stroke-opacity: 0.7; stroke-width: 0.75"/>
     <use xlink:href="#m379eef4cb0" x="150.917591" y="252.068475" style="fill: #ffffff; fill-opacity: 0.7; stroke: #0000ff; stroke-opacity: 0.7; stroke-width: 0.75"/>
     <use xlink:href="#m379eef4cb0" x="162.347056" y="250.222759" style="fill: #ffffff; fill-opacity: 0.7; stroke: #0000ff; stroke-opacity: 0.7; stroke-width: 0.75"/>
     <use xlink:href="#m379eef4cb0" x="173.77652" y="249.227589" style="fill: #ffffff; fill-opacity: 0.7; stroke: #0000ff; stroke-opacity: 0.7; stroke-width: 0.75"/>
     <use xlink:href="#m379eef4cb0" x="185.205985" y="248.199957" style="fill: #ffffff; fill-opacity: 0.7; stroke: #0000ff; stroke-opacity: 0.7; stroke-width: 0.75"/>
     <use xlink:href="#m379eef4cb0" x="196.635449" y="242.214113" style="fill: #ffffff; fill-opacity: 0.7; stroke: #0000ff; stroke-opacity: 0.7; stroke-width: 0.75"/>
     <use xlink:href="#m379eef4cb0" x="208.064914" y="241.519732" style="fill: #ffffff; fill-opacity: 0.7; stroke: #0000ff; stroke-opacity: 0.7; stroke-width: 0.75"/>
     <use xlink:href="#m379eef4cb0" x="219.494378" y="235.302423" style="fill: #ffffff; fill-opacity: 0.7; stroke: #0000ff; stroke-opacity: 0.7; stroke-width: 0.75"/>
     <use xlink:href="#m379eef4cb0" x="230.923843" y="228.955651" style="fill: #ffffff; fill-opacity: 0.7; stroke: #0000ff; stroke-opacity: 0.7; stroke-width: 0.75"/>
     <use xlink:href="#m379eef4cb0" x="242.353307" y="217.938457" style="fill: #ffffff; fill-opacity: 0.7; stroke: #0000ff; stroke-opacity: 0.7; stroke-width: 0.75"/>
     <use xlink:href="#m379eef4cb0" x="253.782772" y="216.529593" style="fill: #ffffff; fill-opacity: 0.7; stroke: #0000ff; stroke-opacity: 0.7; stroke-width: 0.75"/>
     <use xlink:href="#m379eef4cb0" x="265.212236" y="215.929412" style="fill: #ffffff; fill-opacity: 0.7; stroke: #0000ff; stroke-opacity: 0.7; stroke-width: 0.75"/>
     <use xlink:href="#m379eef4cb0" x="276.641701" y="214.905669" style="fill: #ffffff; fill-opacity: 0.7; stroke: #0000ff; stroke-opacity: 0.7; stroke-width: 0.75"/>
     <use xlink:href="#m379eef4cb0" x="288.071165" y="212.319004" style="fill: #ffffff; fill-opacity: 0.7; stroke: #0000ff; stroke-opacity: 0.7; stroke-width: 0.75"/>
     <use xlink:href="#m379eef4cb0" x="299.50063" y="207.285367" style="fill: #ffffff; fill-opacity: 0.7; stroke: #0000ff; stroke-opacity: 0.7; stroke-width: 0.75"/>
     <use xlink:href="#m379eef4cb0" x="310.930094" y="199.640359" style="fill: #ffffff; fill-opacity: 0.7; stroke: #0000ff; stroke-opacity: 0.7; stroke-width: 0.75"/>
     <use xlink:href="#m379eef4cb0" x="322.359559" y="196.385891" style="fill: #ffffff; fill-opacity: 0.7; stroke: #0000ff; stroke-opacity: 0.7; stroke-width: 0.75"/>
     <use xlink:href="#m379eef4cb0" x="333.789023" y="185.285492" style="fill: #ffffff; fill-opacity: 0.7; stroke: #0000ff; stroke-opacity: 0.7; stroke-width: 0.75"/>
     <use xlink:href="#m379eef4cb0" x="345.218488" y="182.737211" style="fill: #ffffff; fill-opacity: 0.7; stroke: #0000ff; stroke-opacity: 0.7; stroke-width: 0.75"/>
     <use xlink:href="#m379eef4cb0" x="356.647952" y="181.437548" style="fill: #ffffff; fill-opacity: 0.7; stroke: #0000ff; stroke-opacity: 0.7; stroke-width: 0.75"/>
     <use xlink:href="#m379eef4cb0" x="368.077417" y="179.808996" style="fill: #ffffff; fill-opacity: 0.7; stroke: #0000ff; stroke-opacity: 0.7; stroke-width: 0.75"/>
     <use xlink:href="#m379eef4cb0" x="379.506881" y="178.325242" style="fill: #ffffff; fill-opacity: 0.7; stroke: #0000ff; stroke-opacity: 0.7; stroke-width: 0.75"/>
     <use xlink:href="#m379eef4cb0" x="390.936346" y="170.308817" style="fill: #ffffff; fill-opacity: 0.7; stroke: #0000ff; stroke-opacity: 0.7; stroke-width: 0.75"/>
     <use xlink:href="#m379eef4cb0" x="402.36581" y="164.953823" style="fill: #ffffff; fill-opacity: 0.7; stroke: #0000ff; stroke-opacity: 0.7; stroke-width: 0.75"/>
     <use xlink:href="#m379eef4cb0" x="413.795275" y="162.43693" style="fill: #ffffff; fill-opacity: 0.7; stroke: #0000ff; stroke-opacity: 0.7; stroke-width: 0.75"/>
     <use xlink:href="#m379eef4cb0" x="425.224739" y="160.763614" style="fill: #ffffff; fill-opacity: 0.7; stroke: #0000ff; stroke-opacity: 0.7; stroke-width: 0.75"/>
     <use xlink:href="#m379eef4cb0" x="436.654204" y="159.550652" style="fill: #ffffff; fill-opacity: 0.7; stroke: #0000ff; stroke-opacity: 0.7; stroke-width: 0.75"/>
     <use xlink:href="#m379eef4cb0" x="448.083668" y="125.498407" style="fill: #ffffff; fill-opacity: 0.7; stroke: #0000ff; stroke-opacity: 0.7; stroke-width: 0.75"/>
     <use xlink:href="#m379eef4cb0" x="459.513133" y="99.417029" style="fill: #ffffff; fill-opacity: 0.7; stroke: #0000ff; stroke-opacity: 0.7; stroke-width: 0.75"/>
     <use xlink:href="#m379eef4cb0" x="470.942597" y="93.535736" style="fill: #ffffff; fill-opacity: 0.7; stroke: #0000ff; stroke-opacity: 0.7; stroke-width: 0.75"/>
     <use xlink:href="#m379eef4cb0" x="482.372062" y="90.787673" style="fill: #ffffff; fill-opacity: 0.7; stroke: #0000ff; stroke-opacity: 0.7; stroke-width: 0.75"/>
     <use xlink:href="#m379eef4cb0" x="493.801526" y="82.344977" style="fill: #ffffff; fill-opacity: 0.7; stroke: #0000ff; stroke-opacity: 0.7; stroke-width: 0.75"/>
     <use xlink:href="#m379eef4cb0" x="505.230991" y="73.930418" style="fill: #ffffff; fill-opacity: 0.7; stroke: #0000ff; stroke-opacity: 0.7; stroke-width: 0.75"/>
     <use xlink:href="#m379eef4cb0" x="516.660455" y="56.529057" style="fill: #ffffff; fill-opacity: 0.7; stroke: #0000ff; stroke-opacity: 0.7; stroke-width: 0.75"/>
     <use xlink:href="#m379eef4cb0" x="528.08992" y="42.911469" style="fill: #ffffff; fill-opacity: 0.7; stroke: #0000ff; stroke-opacity: 0.7; stroke-width: 0.75"/>
     <use xlink:href="#m379eef4cb0" x="539.519384" y="33.993658" style="fill: #ffffff; fill-opacity: 0.7; stroke: #0000ff; stroke-opacity: 0.7; stroke-width: 0.75"/>
     <use xlink:href="#m379eef4cb0" x="550.948849" y="28.17795" style="fill: #ffffff; fill-opacity: 0.7; stroke: #0000ff; stroke-opacity: 0.7; stroke-width: 0.75"/>
     <use xlink:href="#m379eef4cb0" x="562.378313" y="25.460283" style="fill: #ffffff; fill-opacity: 0.7; stroke: #0000ff; stroke-opacity: 0.7; stroke-width: 0.75"/>
    </g>
   </g>
   <g id="legend_1">
    <g id="patch_7">
     <path d="M 379.638715 316.020109 
L 563.207778 316.020109 
Q 566.807778 316.020109 566.807778 312.420109 
L 566.807778 237.624484 
Q 566.807778 234.024484 563.207778 234.024484 
L 379.638715 234.024484 
Q 376.038715 234.024484 376.038715 237.624484 
L 376.038715 312.420109 
Q 376.038715 316.020109 379.638715 316.020109 
z
" style="fill: #4c4c4c; opacity: 0.5; stroke: #4c4c4c; stroke-linejoin: miter"/>
    </g>
    <g id="patch_8">
     <path d="M 377.638715 314.020109 
L 561.207778 314.020109 
Q 564.807778 314.020109 564.807778 310.420109 
L 564.807778 235.624484 
Q 564.807778 232.024484 561.207778 232.024484 
L 377.638715 232.024484 
Q 374.038715 232.024484 374.038715 235.624484 
L 374.038715 310.420109 
Q 374.038715 314.020109 377.638715 314.020109 
z
" style="fill: #ffffff; stroke: #000000; stroke-linejoin: miter"/>
    </g>
    <g id="line2d_55">
     <path d="M 381.238715 245.524484 
L 399.238715 245.524484 
L 417.238715 245.524484 
" style="fill: none; stroke: #008000; stroke-opacity: 0.7; stroke-width: 2; stroke-linecap: square"/>
    </g>
    <g id="text_16">
     <!-- WC -->
     <g transform="translate(431.638715 251.824484) scale(0.18 -0.18)">
      <defs>
       <path id="Times-Roman-57" d="M 1597 4234 
L 1597 4116 
Q 1406 4109 1325 4081 
Q 1181 4028 1181 3888 
Q 1181 3825 1198 3765 
Q 1216 3706 1250 3613 
L 2175 1206 
L 2856 3013 
L 2553 3784 
Q 2469 3997 2300 4069 
Q 2200 4113 1997 4116 
L 1997 4234 
L 3709 4234 
L 3709 4116 
Q 3469 4113 3378 4081 
Q 3234 4028 3234 3863 
Q 3234 3806 3246 3764 
Q 3259 3722 3309 3591 
L 4234 1191 
L 5034 3363 
Q 5103 3547 5128 3691 
Q 5144 3772 5144 3822 
Q 5144 4000 4975 4069 
Q 4881 4109 4694 4116 
L 4694 4234 
L 5963 4234 
L 5963 4116 
Q 5791 4091 5700 4038 
Q 5538 3947 5456 3725 
L 4775 1822 
L 4509 1088 
L 4125 -75 
L 4028 -75 
L 3769 666 
L 3006 2634 
L 2022 -75 
L 1925 -75 
L 1466 1256 
L 916 2753 
Q 575 3678 442 3889 
Q 309 4100 28 4116 
L 28 4234 
L 1597 4234 
z
" transform="scale(0.015625)"/>
      </defs>
      <use xlink:href="#Times-Roman-57"/>
      <use xlink:href="#Times-Roman-43" x="94.384766"/>
     </g>
    </g>
    <g id="line2d_56">
     <path d="M 381.238715 271.045109 
L 399.238715 271.045109 
L 417.238715 271.045109 
" style="fill: none; stroke-dasharray: 7.4,3.2; stroke-dashoffset: 0; stroke: #ff0000; stroke-opacity: 0.7; stroke-width: 2"/>
    </g>
    <g id="text_17">
     <!-- Dynamic total -->
     <g transform="translate(431.638715 277.345109) scale(0.18 -0.18)">
      <defs>
       <path id="Times-Roman-44" d="M 1316 494 
Q 1316 338 1392 288 
Q 1469 238 1709 238 
Q 2459 238 2944 534 
Q 3688 991 3688 2094 
Q 3688 3078 3075 3575 
Q 2550 4000 1684 4000 
Q 1469 4000 1392 3953 
Q 1316 3906 1316 3747 
L 1316 494 
z
M 103 116 
Q 453 153 559 242 
Q 666 331 666 694 
L 666 3541 
Q 666 3891 562 3991 
Q 459 4091 103 4116 
L 103 4234 
L 1828 4234 
Q 2700 4234 3303 3947 
Q 4391 3431 4391 2103 
Q 4391 1625 4195 1194 
Q 4000 763 3606 466 
Q 3356 278 3088 181 
Q 2597 0 1881 0 
L 103 0 
L 103 116 
z
" transform="scale(0.015625)"/>
       <path id="Times-Roman-79" d="M 88 2872 
L 1406 2872 
L 1406 2775 
Q 1250 2772 1175 2747 
Q 1031 2706 1031 2588 
Q 1031 2544 1047 2498 
Q 1063 2453 1103 2363 
L 1834 741 
L 2422 2375 
Q 2431 2400 2451 2487 
Q 2472 2575 2472 2606 
Q 2472 2688 2415 2725 
Q 2359 2763 2272 2769 
L 2175 2775 
L 2175 2872 
L 3034 2872 
L 3034 2775 
Q 2906 2759 2842 2687 
Q 2778 2616 2731 2488 
L 1747 -119 
Q 1491 -794 1256 -1097 
Q 1022 -1400 663 -1400 
Q 488 -1400 334 -1312 
Q 181 -1225 181 -1034 
Q 181 -909 273 -829 
Q 366 -750 506 -750 
Q 588 -750 748 -809 
Q 909 -869 978 -869 
Q 1153 -869 1347 -462 
Q 1541 -56 1541 81 
Q 1541 109 1531 150 
Q 1522 191 1509 222 
L 509 2384 
Q 403 2616 323 2689 
Q 244 2763 88 2784 
L 88 2872 
z
M 1575 2931 
L 1575 2931 
z
" transform="scale(0.015625)"/>
       <path id="Times-Roman-6f" d="M 163 1450 
Q 163 2072 558 2501 
Q 953 2931 1575 2931 
Q 2194 2931 2600 2525 
Q 3006 2119 3006 1444 
Q 3006 822 2612 362 
Q 2219 -97 1594 -97 
Q 994 -97 578 343 
Q 163 784 163 1450 
z
M 1488 2744 
Q 1241 2744 1059 2581 
Q 747 2297 747 1600 
Q 747 1044 998 562 
Q 1250 81 1697 81 
Q 2047 81 2236 403 
Q 2425 725 2425 1247 
Q 2425 1788 2184 2266 
Q 1944 2744 1488 2744 
z
M 1603 2931 
L 1603 2931 
z
" transform="scale(0.015625)"/>
       <path id="Times-Roman-6c" d="M 131 88 
Q 422 116 525 205 
Q 628 294 628 553 
L 628 3606 
Q 628 3813 594 3891 
Q 531 4022 341 4022 
Q 297 4022 245 4012 
Q 194 4003 116 3984 
L 116 4088 
Q 538 4200 1131 4388 
Q 1153 4388 1158 4369 
Q 1163 4350 1163 4288 
L 1163 541 
Q 1163 269 1256 189 
Q 1350 109 1644 88 
L 1644 0 
L 131 0 
L 131 88 
z
" transform="scale(0.015625)"/>
      </defs>
      <use xlink:href="#Times-Roman-44"/>
      <use xlink:href="#Times-Roman-79" x="72.216797"/>
      <use xlink:href="#Times-Roman-6e" x="122.216797"/>
      <use xlink:href="#Times-Roman-61" x="172.216797"/>
      <use xlink:href="#Times-Roman-6d" x="216.601562"/>
      <use xlink:href="#Times-Roman-69" x="294.384766"/>
      <use xlink:href="#Times-Roman-63" x="322.167969"/>
      <use xlink:href="#Times-Roman-20" x="366.552734"/>
      <use xlink:href="#Times-Roman-74" x="391.552734"/>
      <use xlink:href="#Times-Roman-6f" x="419.335938"/>
      <use xlink:href="#Times-Roman-74" x="469.335938"/>
      <use xlink:href="#Times-Roman-61" x="497.119141"/>
      <use xlink:href="#Times-Roman-6c" x="541.503906"/>
     </g>
    </g>
    <g id="line2d_57">
     <path d="M 381.238715 296.582609 
L 399.238715 296.582609 
L 417.238715 296.582609 
" style="fill: none; stroke: #0000ff; stroke-opacity: 0.7; stroke-linecap: square"/>
     <g>
      <use xlink:href="#m379eef4cb0" x="399.238715" y="296.582609" style="fill: #ffffff; fill-opacity: 0.7; stroke: #0000ff; stroke-opacity: 0.7; stroke-width: 0.75"/>
     </g>
    </g>
    <g id="text_18">
     <!-- Dynamic add last -->
     <g transform="translate(431.638715 302.882609) scale(0.18 -0.18)">
      <defs>
       <path id="Times-Roman-64" d="M 1516 2953 
Q 1744 2953 1934 2853 
Q 2059 2788 2175 2672 
L 2175 3666 
Q 2175 3856 2133 3928 
Q 2091 4000 1931 4000 
Q 1894 4000 1866 3997 
Q 1838 3994 1741 3984 
L 1741 4088 
L 1997 4153 
Q 2138 4191 2278 4231 
Q 2419 4272 2525 4309 
Q 2575 4325 2691 4369 
L 2709 4363 
L 2703 4034 
Q 2700 3856 2697 3667 
Q 2694 3478 2694 3294 
L 2688 741 
Q 2688 538 2738 456 
Q 2788 375 3003 375 
Q 3038 375 3072 376 
Q 3106 378 3141 384 
L 3141 281 
Q 3122 275 2688 125 
L 2197 -59 
L 2175 -31 
L 2175 353 
Q 2000 163 1872 81 
Q 1644 -59 1344 -59 
Q 813 -59 483 352 
Q 153 763 153 1303 
Q 153 1981 548 2467 
Q 944 2953 1516 2953 
z
M 1631 278 
Q 1875 278 2025 422 
Q 2175 566 2175 694 
L 2175 2034 
Q 2175 2441 1958 2608 
Q 1741 2775 1534 2775 
Q 1141 2775 922 2426 
Q 703 2078 703 1569 
Q 703 1066 936 672 
Q 1169 278 1631 278 
z
" transform="scale(0.015625)"/>
      </defs>
      <use xlink:href="#Times-Roman-44"/>
      <use xlink:href="#Times-Roman-79" x="72.216797"/>
      <use xlink:href="#Times-Roman-6e" x="122.216797"/>
      <use xlink:href="#Times-Roman-61" x="172.216797"/>
      <use xlink:href="#Times-Roman-6d" x="216.601562"/>
      <use xlink:href="#Times-Roman-69" x="294.384766"/>
      <use xlink:href="#Times-Roman-63" x="322.167969"/>
      <use xlink:href="#Times-Roman-20" x="366.552734"/>
      <use xlink:href="#Times-Roman-61" x="391.552734"/>
      <use xlink:href="#Times-Roman-64" x="435.9375"/>
      <use xlink:href="#Times-Roman-64" x="485.9375"/>
      <use xlink:href="#Times-Roman-20" x="535.9375"/>
      <use xlink:href="#Times-Roman-6c" x="560.9375"/>
      <use xlink:href="#Times-Roman-61" x="588.720703"/>
      <use xlink:href="#Times-Roman-73" x="633.105469"/>
      <use xlink:href="#Times-Roman-74" x="672.021484"/>
     </g>
    </g>
   </g>
  </g>
 </g>
 <defs>
  <clipPath id="p80581ebfbb">
   <rect x="59.481875" y="7.2" width="514.325903" height="315.820109"/>
  </clipPath>
 </defs>
</svg>
