<?xml version="1.0" encoding="utf-8" standalone="no"?>
<!DOCTYPE svg PUBLIC "-//W3C//DTD SVG 1.1//EN"
  "http://www.w3.org/Graphics/SVG/1.1/DTD/svg11.dtd">
<svg xmlns:xlink="http://www.w3.org/1999/xlink" width="606.005278pt" height="376.061359pt" viewBox="0 0 606.005278 376.061359" xmlns="http://www.w3.org/2000/svg" version="1.1">
 <metadata>
  <rdf:RDF xmlns:dc="http://purl.org/dc/elements/1.1/" xmlns:cc="http://creativecommons.org/ns#" xmlns:rdf="http://www.w3.org/1999/02/22-rdf-syntax-ns#">
   <cc:Work>
    <dc:type rdf:resource="http://purl.org/dc/dcmitype/StillImage"/>
    <dc:date>2024-01-04T13:22:02.639070</dc:date>
    <dc:format>image/svg+xml</dc:format>
    <dc:creator>
     <cc:Agent>
      <dc:title>Matplotlib v3.8.0, https://matplotlib.org/</dc:title>
     </cc:Agent>
    </dc:creator>
   </cc:Work>
  </rdf:RDF>
 </metadata>
 <defs>
  <style type="text/css">*{stroke-linejoin: round; stroke-linecap: butt}</style>
 </defs>
 <g id="figure_1">
  <g id="patch_1">
   <path d="M -0 376.061359 
L 606.005278 376.061359 
L 606.005278 0 
L -0 0 
z
" style="fill: #ffffff"/>
  </g>
  <g id="axes_1">
   <g id="patch_2">
    <path d="M 67.300625 323.020109 
L 581.626528 323.020109 
L 581.626528 7.2 
L 67.300625 7.2 
z
" style="fill: #ffffff"/>
   </g>
   <g id="matplotlib.axis_1">
    <g id="xtick_1">
     <g id="line2d_1">
      <path d="M 67.300625 323.020109 
L 67.300625 7.2 
" clip-path="url(#pcbc8ac0c0a)" style="fill: none; stroke-dasharray: 1,1.65; stroke-dashoffset: 0; stroke: #000000"/>
     </g>
     <g id="line2d_2">
      <defs>
       <path id="mb53a36b90a" d="M 0 0 
L 0 3.5 
" style="stroke: #000000; stroke-width: 0.8"/>
      </defs>
      <g>
       <use xlink:href="#mb53a36b90a" x="67.300625" y="323.020109" style="stroke: #000000; stroke-width: 0.8"/>
      </g>
     </g>
     <g id="text_1">
      <!-- 0 -->
      <g transform="translate(61.574375 343.697297) scale(0.18 -0.18)">
       <defs>
        <path id="DejaVuSans-30" d="M 2034 4250 
Q 1547 4250 1301 3770 
Q 1056 3291 1056 2328 
Q 1056 1369 1301 889 
Q 1547 409 2034 409 
Q 2525 409 2770 889 
Q 3016 1369 3016 2328 
Q 3016 3291 2770 3770 
Q 2525 4250 2034 4250 
z
M 2034 4750 
Q 2819 4750 3233 4129 
Q 3647 3509 3647 2328 
Q 3647 1150 3233 529 
Q 2819 -91 2034 -91 
Q 1250 -91 836 529 
Q 422 1150 422 2328 
Q 422 3509 836 4129 
Q 1250 4750 2034 4750 
z
" transform="scale(0.015625)"/>
       </defs>
       <use xlink:href="#DejaVuSans-30"/>
      </g>
     </g>
    </g>
    <g id="xtick_2">
     <g id="line2d_3">
      <path d="M 170.165806 323.020109 
L 170.165806 7.2 
" clip-path="url(#pcbc8ac0c0a)" style="fill: none; stroke-dasharray: 1,1.65; stroke-dashoffset: 0; stroke: #000000"/>
     </g>
     <g id="line2d_4">
      <g>
       <use xlink:href="#mb53a36b90a" x="170.165806" y="323.020109" style="stroke: #000000; stroke-width: 0.8"/>
      </g>
     </g>
     <g id="text_2">
      <!-- 50 -->
      <g transform="translate(158.713306 343.697297) scale(0.18 -0.18)">
       <defs>
        <path id="DejaVuSans-35" d="M 691 4666 
L 3169 4666 
L 3169 4134 
L 1269 4134 
L 1269 2991 
Q 1406 3038 1543 3061 
Q 1681 3084 1819 3084 
Q 2600 3084 3056 2656 
Q 3513 2228 3513 1497 
Q 3513 744 3044 326 
Q 2575 -91 1722 -91 
Q 1428 -91 1123 -41 
Q 819 9 494 109 
L 494 744 
Q 775 591 1075 516 
Q 1375 441 1709 441 
Q 2250 441 2565 725 
Q 2881 1009 2881 1497 
Q 2881 1984 2565 2268 
Q 2250 2553 1709 2553 
Q 1456 2553 1204 2497 
Q 953 2441 691 2322 
L 691 4666 
z
" transform="scale(0.015625)"/>
       </defs>
       <use xlink:href="#DejaVuSans-35"/>
       <use xlink:href="#DejaVuSans-30" x="63.623047"/>
      </g>
     </g>
    </g>
    <g id="xtick_3">
     <g id="line2d_5">
      <path d="M 273.030986 323.020109 
L 273.030986 7.2 
" clip-path="url(#pcbc8ac0c0a)" style="fill: none; stroke-dasharray: 1,1.65; stroke-dashoffset: 0; stroke: #000000"/>
     </g>
     <g id="line2d_6">
      <g>
       <use xlink:href="#mb53a36b90a" x="273.030986" y="323.020109" style="stroke: #000000; stroke-width: 0.8"/>
      </g>
     </g>
     <g id="text_3">
      <!-- 100 -->
      <g transform="translate(255.852236 343.697297) scale(0.18 -0.18)">
       <defs>
        <path id="DejaVuSans-31" d="M 794 531 
L 1825 531 
L 1825 4091 
L 703 3866 
L 703 4441 
L 1819 4666 
L 2450 4666 
L 2450 531 
L 3481 531 
L 3481 0 
L 794 0 
L 794 531 
z
" transform="scale(0.015625)"/>
       </defs>
       <use xlink:href="#DejaVuSans-31"/>
       <use xlink:href="#DejaVuSans-30" x="63.623047"/>
       <use xlink:href="#DejaVuSans-30" x="127.246094"/>
      </g>
     </g>
    </g>
    <g id="xtick_4">
     <g id="line2d_7">
      <path d="M 375.896167 323.020109 
L 375.896167 7.2 
" clip-path="url(#pcbc8ac0c0a)" style="fill: none; stroke-dasharray: 1,1.65; stroke-dashoffset: 0; stroke: #000000"/>
     </g>
     <g id="line2d_8">
      <g>
       <use xlink:href="#mb53a36b90a" x="375.896167" y="323.020109" style="stroke: #000000; stroke-width: 0.8"/>
      </g>
     </g>
     <g id="text_4">
      <!-- 150 -->
      <g transform="translate(358.717417 343.697297) scale(0.18 -0.18)">
       <use xlink:href="#DejaVuSans-31"/>
       <use xlink:href="#DejaVuSans-35" x="63.623047"/>
       <use xlink:href="#DejaVuSans-30" x="127.246094"/>
      </g>
     </g>
    </g>
    <g id="xtick_5">
     <g id="line2d_9">
      <path d="M 478.761347 323.020109 
L 478.761347 7.2 
" clip-path="url(#pcbc8ac0c0a)" style="fill: none; stroke-dasharray: 1,1.65; stroke-dashoffset: 0; stroke: #000000"/>
     </g>
     <g id="line2d_10">
      <g>
       <use xlink:href="#mb53a36b90a" x="478.761347" y="323.020109" style="stroke: #000000; stroke-width: 0.8"/>
      </g>
     </g>
     <g id="text_5">
      <!-- 200 -->
      <g transform="translate(461.582597 343.697297) scale(0.18 -0.18)">
       <defs>
        <path id="DejaVuSans-32" d="M 1228 531 
L 3431 531 
L 3431 0 
L 469 0 
L 469 531 
Q 828 903 1448 1529 
Q 2069 2156 2228 2338 
Q 2531 2678 2651 2914 
Q 2772 3150 2772 3378 
Q 2772 3750 2511 3984 
Q 2250 4219 1831 4219 
Q 1534 4219 1204 4116 
Q 875 4013 500 3803 
L 500 4441 
Q 881 4594 1212 4672 
Q 1544 4750 1819 4750 
Q 2544 4750 2975 4387 
Q 3406 4025 3406 3419 
Q 3406 3131 3298 2873 
Q 3191 2616 2906 2266 
Q 2828 2175 2409 1742 
Q 1991 1309 1228 531 
z
" transform="scale(0.015625)"/>
       </defs>
       <use xlink:href="#DejaVuSans-32"/>
       <use xlink:href="#DejaVuSans-30" x="63.623047"/>
       <use xlink:href="#DejaVuSans-30" x="127.246094"/>
      </g>
     </g>
    </g>
    <g id="xtick_6">
     <g id="line2d_11">
      <path d="M 581.626528 323.020109 
L 581.626528 7.2 
" clip-path="url(#pcbc8ac0c0a)" style="fill: none; stroke-dasharray: 1,1.65; stroke-dashoffset: 0; stroke: #000000"/>
     </g>
     <g id="line2d_12">
      <g>
       <use xlink:href="#mb53a36b90a" x="581.626528" y="323.020109" style="stroke: #000000; stroke-width: 0.8"/>
      </g>
     </g>
     <g id="text_6">
      <!-- 250 -->
      <g transform="translate(564.447778 343.697297) scale(0.18 -0.18)">
       <use xlink:href="#DejaVuSans-32"/>
       <use xlink:href="#DejaVuSans-35" x="63.623047"/>
       <use xlink:href="#DejaVuSans-30" x="127.246094"/>
      </g>
     </g>
    </g>
    <g id="text_7">
     <!-- instances -->
     <g transform="translate(281.648889 365.117922) scale(0.18 -0.18)">
      <defs>
       <path id="DejaVuSans-69" d="M 603 3500 
L 1178 3500 
L 1178 0 
L 603 0 
L 603 3500 
z
M 603 4863 
L 1178 4863 
L 1178 4134 
L 603 4134 
L 603 4863 
z
" transform="scale(0.015625)"/>
       <path id="DejaVuSans-6e" d="M 3513 2113 
L 3513 0 
L 2938 0 
L 2938 2094 
Q 2938 2591 2744 2837 
Q 2550 3084 2163 3084 
Q 1697 3084 1428 2787 
Q 1159 2491 1159 1978 
L 1159 0 
L 581 0 
L 581 3500 
L 1159 3500 
L 1159 2956 
Q 1366 3272 1645 3428 
Q 1925 3584 2291 3584 
Q 2894 3584 3203 3211 
Q 3513 2838 3513 2113 
z
" transform="scale(0.015625)"/>
       <path id="DejaVuSans-73" d="M 2834 3397 
L 2834 2853 
Q 2591 2978 2328 3040 
Q 2066 3103 1784 3103 
Q 1356 3103 1142 2972 
Q 928 2841 928 2578 
Q 928 2378 1081 2264 
Q 1234 2150 1697 2047 
L 1894 2003 
Q 2506 1872 2764 1633 
Q 3022 1394 3022 966 
Q 3022 478 2636 193 
Q 2250 -91 1575 -91 
Q 1294 -91 989 -36 
Q 684 19 347 128 
L 347 722 
Q 666 556 975 473 
Q 1284 391 1588 391 
Q 1994 391 2212 530 
Q 2431 669 2431 922 
Q 2431 1156 2273 1281 
Q 2116 1406 1581 1522 
L 1381 1569 
Q 847 1681 609 1914 
Q 372 2147 372 2553 
Q 372 3047 722 3315 
Q 1072 3584 1716 3584 
Q 2034 3584 2315 3537 
Q 2597 3491 2834 3397 
z
" transform="scale(0.015625)"/>
       <path id="DejaVuSans-74" d="M 1172 4494 
L 1172 3500 
L 2356 3500 
L 2356 3053 
L 1172 3053 
L 1172 1153 
Q 1172 725 1289 603 
Q 1406 481 1766 481 
L 2356 481 
L 2356 0 
L 1766 0 
Q 1100 0 847 248 
Q 594 497 594 1153 
L 594 3053 
L 172 3053 
L 172 3500 
L 594 3500 
L 594 4494 
L 1172 4494 
z
" transform="scale(0.015625)"/>
       <path id="DejaVuSans-61" d="M 2194 1759 
Q 1497 1759 1228 1600 
Q 959 1441 959 1056 
Q 959 750 1161 570 
Q 1363 391 1709 391 
Q 2188 391 2477 730 
Q 2766 1069 2766 1631 
L 2766 1759 
L 2194 1759 
z
M 3341 1997 
L 3341 0 
L 2766 0 
L 2766 531 
Q 2569 213 2275 61 
Q 1981 -91 1556 -91 
Q 1019 -91 701 211 
Q 384 513 384 1019 
Q 384 1609 779 1909 
Q 1175 2209 1959 2209 
L 2766 2209 
L 2766 2266 
Q 2766 2663 2505 2880 
Q 2244 3097 1772 3097 
Q 1472 3097 1187 3025 
Q 903 2953 641 2809 
L 641 3341 
Q 956 3463 1253 3523 
Q 1550 3584 1831 3584 
Q 2591 3584 2966 3190 
Q 3341 2797 3341 1997 
z
" transform="scale(0.015625)"/>
       <path id="DejaVuSans-63" d="M 3122 3366 
L 3122 2828 
Q 2878 2963 2633 3030 
Q 2388 3097 2138 3097 
Q 1578 3097 1268 2742 
Q 959 2388 959 1747 
Q 959 1106 1268 751 
Q 1578 397 2138 397 
Q 2388 397 2633 464 
Q 2878 531 3122 666 
L 3122 134 
Q 2881 22 2623 -34 
Q 2366 -91 2075 -91 
Q 1284 -91 818 406 
Q 353 903 353 1747 
Q 353 2603 823 3093 
Q 1294 3584 2113 3584 
Q 2378 3584 2631 3529 
Q 2884 3475 3122 3366 
z
" transform="scale(0.015625)"/>
       <path id="DejaVuSans-65" d="M 3597 1894 
L 3597 1613 
L 953 1613 
Q 991 1019 1311 708 
Q 1631 397 2203 397 
Q 2534 397 2845 478 
Q 3156 559 3463 722 
L 3463 178 
Q 3153 47 2828 -22 
Q 2503 -91 2169 -91 
Q 1331 -91 842 396 
Q 353 884 353 1716 
Q 353 2575 817 3079 
Q 1281 3584 2069 3584 
Q 2775 3584 3186 3129 
Q 3597 2675 3597 1894 
z
M 3022 2063 
Q 3016 2534 2758 2815 
Q 2500 3097 2075 3097 
Q 1594 3097 1305 2825 
Q 1016 2553 972 2059 
L 3022 2063 
z
" transform="scale(0.015625)"/>
      </defs>
      <use xlink:href="#DejaVuSans-69"/>
      <use xlink:href="#DejaVuSans-6e" x="27.783203"/>
      <use xlink:href="#DejaVuSans-73" x="91.162109"/>
      <use xlink:href="#DejaVuSans-74" x="143.261719"/>
      <use xlink:href="#DejaVuSans-61" x="182.470703"/>
      <use xlink:href="#DejaVuSans-6e" x="243.75"/>
      <use xlink:href="#DejaVuSans-63" x="307.128906"/>
      <use xlink:href="#DejaVuSans-65" x="362.109375"/>
      <use xlink:href="#DejaVuSans-73" x="423.632812"/>
     </g>
    </g>
   </g>
   <g id="matplotlib.axis_2">
    <g id="ytick_1">
     <g id="line2d_13">
      <path d="M 67.300625 259.415623 
L 581.626528 259.415623 
" clip-path="url(#pcbc8ac0c0a)" style="fill: none; stroke-dasharray: 1,1.65; stroke-dashoffset: 0; stroke: #000000"/>
     </g>
     <g id="line2d_14">
      <defs>
       <path id="m33a833c932" d="M 0 0 
L -3.5 0 
" style="stroke: #000000; stroke-width: 0.8"/>
      </defs>
      <g>
       <use xlink:href="#m33a833c932" x="67.300625" y="259.415623" style="stroke: #000000; stroke-width: 0.8"/>
      </g>
     </g>
     <g id="text_8">
      <!-- $\mathdefault{10^{0}}$ -->
      <g transform="translate(28.620625 266.254217) scale(0.18 -0.18)">
       <use xlink:href="#DejaVuSans-31" transform="translate(0 0.765625)"/>
       <use xlink:href="#DejaVuSans-30" transform="translate(63.623047 0.765625)"/>
       <use xlink:href="#DejaVuSans-30" transform="translate(128.203125 39.046875) scale(0.7)"/>
      </g>
     </g>
    </g>
    <g id="ytick_2">
     <g id="line2d_15">
      <path d="M 67.300625 188.078313 
L 581.626528 188.078313 
" clip-path="url(#pcbc8ac0c0a)" style="fill: none; stroke-dasharray: 1,1.65; stroke-dashoffset: 0; stroke: #000000"/>
     </g>
     <g id="line2d_16">
      <g>
       <use xlink:href="#m33a833c932" x="67.300625" y="188.078313" style="stroke: #000000; stroke-width: 0.8"/>
      </g>
     </g>
     <g id="text_9">
      <!-- $\mathdefault{10^{1}}$ -->
      <g transform="translate(28.620625 194.916907) scale(0.18 -0.18)">
       <use xlink:href="#DejaVuSans-31" transform="translate(0 0.684375)"/>
       <use xlink:href="#DejaVuSans-30" transform="translate(63.623047 0.684375)"/>
       <use xlink:href="#DejaVuSans-31" transform="translate(128.203125 38.965625) scale(0.7)"/>
      </g>
     </g>
    </g>
    <g id="ytick_3">
     <g id="line2d_17">
      <path d="M 67.300625 116.741004 
L 581.626528 116.741004 
" clip-path="url(#pcbc8ac0c0a)" style="fill: none; stroke-dasharray: 1,1.65; stroke-dashoffset: 0; stroke: #000000"/>
     </g>
     <g id="line2d_18">
      <g>
       <use xlink:href="#m33a833c932" x="67.300625" y="116.741004" style="stroke: #000000; stroke-width: 0.8"/>
      </g>
     </g>
     <g id="text_10">
      <!-- $\mathdefault{10^{2}}$ -->
      <g transform="translate(28.620625 123.579598) scale(0.18 -0.18)">
       <use xlink:href="#DejaVuSans-31" transform="translate(0 0.765625)"/>
       <use xlink:href="#DejaVuSans-30" transform="translate(63.623047 0.765625)"/>
       <use xlink:href="#DejaVuSans-32" transform="translate(128.203125 39.046875) scale(0.7)"/>
      </g>
     </g>
    </g>
    <g id="ytick_4">
     <g id="line2d_19">
      <path d="M 67.300625 45.403694 
L 581.626528 45.403694 
" clip-path="url(#pcbc8ac0c0a)" style="fill: none; stroke-dasharray: 1,1.65; stroke-dashoffset: 0; stroke: #000000"/>
     </g>
     <g id="line2d_20">
      <g>
       <use xlink:href="#m33a833c932" x="67.300625" y="45.403694" style="stroke: #000000; stroke-width: 0.8"/>
      </g>
     </g>
     <g id="text_11">
      <!-- $\mathdefault{10^{3}}$ -->
      <g transform="translate(28.620625 52.242288) scale(0.18 -0.18)">
       <defs>
        <path id="DejaVuSans-33" d="M 2597 2516 
Q 3050 2419 3304 2112 
Q 3559 1806 3559 1356 
Q 3559 666 3084 287 
Q 2609 -91 1734 -91 
Q 1441 -91 1130 -33 
Q 819 25 488 141 
L 488 750 
Q 750 597 1062 519 
Q 1375 441 1716 441 
Q 2309 441 2620 675 
Q 2931 909 2931 1356 
Q 2931 1769 2642 2001 
Q 2353 2234 1838 2234 
L 1294 2234 
L 1294 2753 
L 1863 2753 
Q 2328 2753 2575 2939 
Q 2822 3125 2822 3475 
Q 2822 3834 2567 4026 
Q 2313 4219 1838 4219 
Q 1578 4219 1281 4162 
Q 984 4106 628 3988 
L 628 4550 
Q 988 4650 1302 4700 
Q 1616 4750 1894 4750 
Q 2613 4750 3031 4423 
Q 3450 4097 3450 3541 
Q 3450 3153 3228 2886 
Q 3006 2619 2597 2516 
z
" transform="scale(0.015625)"/>
       </defs>
       <use xlink:href="#DejaVuSans-31" transform="translate(0 0.765625)"/>
       <use xlink:href="#DejaVuSans-30" transform="translate(63.623047 0.765625)"/>
       <use xlink:href="#DejaVuSans-33" transform="translate(128.203125 39.046875) scale(0.7)"/>
      </g>
     </g>
    </g>
    <g id="ytick_5">
     <g id="line2d_21">
      <defs>
       <path id="m76c1dc9e43" d="M 0 0 
L -2 0 
" style="stroke: #000000; stroke-width: 0.6"/>
      </defs>
      <g>
       <use xlink:href="#m76c1dc9e43" x="67.300625" y="309.278262" style="stroke: #000000; stroke-width: 0.6"/>
      </g>
     </g>
    </g>
    <g id="ytick_6">
     <g id="line2d_22">
      <g>
       <use xlink:href="#m76c1dc9e43" x="67.300625" y="296.716386" style="stroke: #000000; stroke-width: 0.6"/>
      </g>
     </g>
    </g>
    <g id="ytick_7">
     <g id="line2d_23">
      <g>
       <use xlink:href="#m76c1dc9e43" x="67.300625" y="287.803592" style="stroke: #000000; stroke-width: 0.6"/>
      </g>
     </g>
    </g>
    <g id="ytick_8">
     <g id="line2d_24">
      <g>
       <use xlink:href="#m76c1dc9e43" x="67.300625" y="280.890293" style="stroke: #000000; stroke-width: 0.6"/>
      </g>
     </g>
    </g>
    <g id="ytick_9">
     <g id="line2d_25">
      <g>
       <use xlink:href="#m76c1dc9e43" x="67.300625" y="275.241716" style="stroke: #000000; stroke-width: 0.6"/>
      </g>
     </g>
    </g>
    <g id="ytick_10">
     <g id="line2d_26">
      <g>
       <use xlink:href="#m76c1dc9e43" x="67.300625" y="270.465912" style="stroke: #000000; stroke-width: 0.6"/>
      </g>
     </g>
    </g>
    <g id="ytick_11">
     <g id="line2d_27">
      <g>
       <use xlink:href="#m76c1dc9e43" x="67.300625" y="266.328922" style="stroke: #000000; stroke-width: 0.6"/>
      </g>
     </g>
    </g>
    <g id="ytick_12">
     <g id="line2d_28">
      <g>
       <use xlink:href="#m76c1dc9e43" x="67.300625" y="262.679839" style="stroke: #000000; stroke-width: 0.6"/>
      </g>
     </g>
    </g>
    <g id="ytick_13">
     <g id="line2d_29">
      <g>
       <use xlink:href="#m76c1dc9e43" x="67.300625" y="237.940953" style="stroke: #000000; stroke-width: 0.6"/>
      </g>
     </g>
    </g>
    <g id="ytick_14">
     <g id="line2d_30">
      <g>
       <use xlink:href="#m76c1dc9e43" x="67.300625" y="225.379076" style="stroke: #000000; stroke-width: 0.6"/>
      </g>
     </g>
    </g>
    <g id="ytick_15">
     <g id="line2d_31">
      <g>
       <use xlink:href="#m76c1dc9e43" x="67.300625" y="216.466283" style="stroke: #000000; stroke-width: 0.6"/>
      </g>
     </g>
    </g>
    <g id="ytick_16">
     <g id="line2d_32">
      <g>
       <use xlink:href="#m76c1dc9e43" x="67.300625" y="209.552983" style="stroke: #000000; stroke-width: 0.6"/>
      </g>
     </g>
    </g>
    <g id="ytick_17">
     <g id="line2d_33">
      <g>
       <use xlink:href="#m76c1dc9e43" x="67.300625" y="203.904406" style="stroke: #000000; stroke-width: 0.6"/>
      </g>
     </g>
    </g>
    <g id="ytick_18">
     <g id="line2d_34">
      <g>
       <use xlink:href="#m76c1dc9e43" x="67.300625" y="199.128602" style="stroke: #000000; stroke-width: 0.6"/>
      </g>
     </g>
    </g>
    <g id="ytick_19">
     <g id="line2d_35">
      <g>
       <use xlink:href="#m76c1dc9e43" x="67.300625" y="194.991613" style="stroke: #000000; stroke-width: 0.6"/>
      </g>
     </g>
    </g>
    <g id="ytick_20">
     <g id="line2d_36">
      <g>
       <use xlink:href="#m76c1dc9e43" x="67.300625" y="191.34253" style="stroke: #000000; stroke-width: 0.6"/>
      </g>
     </g>
    </g>
    <g id="ytick_21">
     <g id="line2d_37">
      <g>
       <use xlink:href="#m76c1dc9e43" x="67.300625" y="166.603643" style="stroke: #000000; stroke-width: 0.6"/>
      </g>
     </g>
    </g>
    <g id="ytick_22">
     <g id="line2d_38">
      <g>
       <use xlink:href="#m76c1dc9e43" x="67.300625" y="154.041767" style="stroke: #000000; stroke-width: 0.6"/>
      </g>
     </g>
    </g>
    <g id="ytick_23">
     <g id="line2d_39">
      <g>
       <use xlink:href="#m76c1dc9e43" x="67.300625" y="145.128973" style="stroke: #000000; stroke-width: 0.6"/>
      </g>
     </g>
    </g>
    <g id="ytick_24">
     <g id="line2d_40">
      <g>
       <use xlink:href="#m76c1dc9e43" x="67.300625" y="138.215674" style="stroke: #000000; stroke-width: 0.6"/>
      </g>
     </g>
    </g>
    <g id="ytick_25">
     <g id="line2d_41">
      <g>
       <use xlink:href="#m76c1dc9e43" x="67.300625" y="132.567097" style="stroke: #000000; stroke-width: 0.6"/>
      </g>
     </g>
    </g>
    <g id="ytick_26">
     <g id="line2d_42">
      <g>
       <use xlink:href="#m76c1dc9e43" x="67.300625" y="127.791293" style="stroke: #000000; stroke-width: 0.6"/>
      </g>
     </g>
    </g>
    <g id="ytick_27">
     <g id="line2d_43">
      <g>
       <use xlink:href="#m76c1dc9e43" x="67.300625" y="123.654303" style="stroke: #000000; stroke-width: 0.6"/>
      </g>
     </g>
    </g>
    <g id="ytick_28">
     <g id="line2d_44">
      <g>
       <use xlink:href="#m76c1dc9e43" x="67.300625" y="120.00522" style="stroke: #000000; stroke-width: 0.6"/>
      </g>
     </g>
    </g>
    <g id="ytick_29">
     <g id="line2d_45">
      <g>
       <use xlink:href="#m76c1dc9e43" x="67.300625" y="95.266334" style="stroke: #000000; stroke-width: 0.6"/>
      </g>
     </g>
    </g>
    <g id="ytick_30">
     <g id="line2d_46">
      <g>
       <use xlink:href="#m76c1dc9e43" x="67.300625" y="82.704457" style="stroke: #000000; stroke-width: 0.6"/>
      </g>
     </g>
    </g>
    <g id="ytick_31">
     <g id="line2d_47">
      <g>
       <use xlink:href="#m76c1dc9e43" x="67.300625" y="73.791664" style="stroke: #000000; stroke-width: 0.6"/>
      </g>
     </g>
    </g>
    <g id="ytick_32">
     <g id="line2d_48">
      <g>
       <use xlink:href="#m76c1dc9e43" x="67.300625" y="66.878364" style="stroke: #000000; stroke-width: 0.6"/>
      </g>
     </g>
    </g>
    <g id="ytick_33">
     <g id="line2d_49">
      <g>
       <use xlink:href="#m76c1dc9e43" x="67.300625" y="61.229787" style="stroke: #000000; stroke-width: 0.6"/>
      </g>
     </g>
    </g>
    <g id="ytick_34">
     <g id="line2d_50">
      <g>
       <use xlink:href="#m76c1dc9e43" x="67.300625" y="56.453983" style="stroke: #000000; stroke-width: 0.6"/>
      </g>
     </g>
    </g>
    <g id="ytick_35">
     <g id="line2d_51">
      <g>
       <use xlink:href="#m76c1dc9e43" x="67.300625" y="52.316994" style="stroke: #000000; stroke-width: 0.6"/>
      </g>
     </g>
    </g>
    <g id="ytick_36">
     <g id="line2d_52">
      <g>
       <use xlink:href="#m76c1dc9e43" x="67.300625" y="48.667911" style="stroke: #000000; stroke-width: 0.6"/>
      </g>
     </g>
    </g>
    <g id="ytick_37">
     <g id="line2d_53">
      <g>
       <use xlink:href="#m76c1dc9e43" x="67.300625" y="23.929024" style="stroke: #000000; stroke-width: 0.6"/>
      </g>
     </g>
    </g>
    <g id="ytick_38">
     <g id="line2d_54">
      <g>
       <use xlink:href="#m76c1dc9e43" x="67.300625" y="11.367148" style="stroke: #000000; stroke-width: 0.6"/>
      </g>
     </g>
    </g>
    <g id="text_12">
     <!-- CPU time (s) -->
     <g transform="translate(20.877187 221.173023) rotate(-90) scale(0.18 -0.18)">
      <defs>
       <path id="DejaVuSans-43" d="M 4122 4306 
L 4122 3641 
Q 3803 3938 3442 4084 
Q 3081 4231 2675 4231 
Q 1875 4231 1450 3742 
Q 1025 3253 1025 2328 
Q 1025 1406 1450 917 
Q 1875 428 2675 428 
Q 3081 428 3442 575 
Q 3803 722 4122 1019 
L 4122 359 
Q 3791 134 3420 21 
Q 3050 -91 2638 -91 
Q 1578 -91 968 557 
Q 359 1206 359 2328 
Q 359 3453 968 4101 
Q 1578 4750 2638 4750 
Q 3056 4750 3426 4639 
Q 3797 4528 4122 4306 
z
" transform="scale(0.015625)"/>
       <path id="DejaVuSans-50" d="M 1259 4147 
L 1259 2394 
L 2053 2394 
Q 2494 2394 2734 2622 
Q 2975 2850 2975 3272 
Q 2975 3691 2734 3919 
Q 2494 4147 2053 4147 
L 1259 4147 
z
M 628 4666 
L 2053 4666 
Q 2838 4666 3239 4311 
Q 3641 3956 3641 3272 
Q 3641 2581 3239 2228 
Q 2838 1875 2053 1875 
L 1259 1875 
L 1259 0 
L 628 0 
L 628 4666 
z
" transform="scale(0.015625)"/>
       <path id="DejaVuSans-55" d="M 556 4666 
L 1191 4666 
L 1191 1831 
Q 1191 1081 1462 751 
Q 1734 422 2344 422 
Q 2950 422 3222 751 
Q 3494 1081 3494 1831 
L 3494 4666 
L 4128 4666 
L 4128 1753 
Q 4128 841 3676 375 
Q 3225 -91 2344 -91 
Q 1459 -91 1007 375 
Q 556 841 556 1753 
L 556 4666 
z
" transform="scale(0.015625)"/>
       <path id="DejaVuSans-20" transform="scale(0.015625)"/>
       <path id="DejaVuSans-6d" d="M 3328 2828 
Q 3544 3216 3844 3400 
Q 4144 3584 4550 3584 
Q 5097 3584 5394 3201 
Q 5691 2819 5691 2113 
L 5691 0 
L 5113 0 
L 5113 2094 
Q 5113 2597 4934 2840 
Q 4756 3084 4391 3084 
Q 3944 3084 3684 2787 
Q 3425 2491 3425 1978 
L 3425 0 
L 2847 0 
L 2847 2094 
Q 2847 2600 2669 2842 
Q 2491 3084 2119 3084 
Q 1678 3084 1418 2786 
Q 1159 2488 1159 1978 
L 1159 0 
L 581 0 
L 581 3500 
L 1159 3500 
L 1159 2956 
Q 1356 3278 1631 3431 
Q 1906 3584 2284 3584 
Q 2666 3584 2933 3390 
Q 3200 3197 3328 2828 
z
" transform="scale(0.015625)"/>
       <path id="DejaVuSans-28" d="M 1984 4856 
Q 1566 4138 1362 3434 
Q 1159 2731 1159 2009 
Q 1159 1288 1364 580 
Q 1569 -128 1984 -844 
L 1484 -844 
Q 1016 -109 783 600 
Q 550 1309 550 2009 
Q 550 2706 781 3412 
Q 1013 4119 1484 4856 
L 1984 4856 
z
" transform="scale(0.015625)"/>
       <path id="DejaVuSans-29" d="M 513 4856 
L 1013 4856 
Q 1481 4119 1714 3412 
Q 1947 2706 1947 2009 
Q 1947 1309 1714 600 
Q 1481 -109 1013 -844 
L 513 -844 
Q 928 -128 1133 580 
Q 1338 1288 1338 2009 
Q 1338 2731 1133 3434 
Q 928 4138 513 4856 
z
" transform="scale(0.015625)"/>
      </defs>
      <use xlink:href="#DejaVuSans-43"/>
      <use xlink:href="#DejaVuSans-50" x="69.824219"/>
      <use xlink:href="#DejaVuSans-55" x="130.126953"/>
      <use xlink:href="#DejaVuSans-20" x="203.320312"/>
      <use xlink:href="#DejaVuSans-74" x="235.107422"/>
      <use xlink:href="#DejaVuSans-69" x="274.316406"/>
      <use xlink:href="#DejaVuSans-6d" x="302.099609"/>
      <use xlink:href="#DejaVuSans-65" x="399.511719"/>
      <use xlink:href="#DejaVuSans-20" x="461.035156"/>
      <use xlink:href="#DejaVuSans-28" x="492.822266"/>
      <use xlink:href="#DejaVuSans-73" x="531.835938"/>
      <use xlink:href="#DejaVuSans-29" x="583.935547"/>
     </g>
    </g>
   </g>
   <g id="patch_3">
    <path d="M 67.300625 323.020109 
L 67.300625 7.2 
" style="fill: none; stroke: #000000; stroke-linejoin: miter; stroke-linecap: square"/>
   </g>
   <g id="patch_4">
    <path d="M 581.626528 323.020109 
L 581.626528 7.2 
" style="fill: none; stroke: #000000; stroke-linejoin: miter; stroke-linecap: square"/>
   </g>
   <g id="patch_5">
    <path d="M 67.300625 323.020109 
L 581.626528 323.020109 
" style="fill: none; stroke: #000000; stroke-linejoin: miter; stroke-linecap: square"/>
   </g>
   <g id="patch_6">
    <path d="M 67.300625 7.2 
L 581.626528 7.2 
" style="fill: none; stroke: #000000; stroke-linejoin: miter; stroke-linecap: square"/>
   </g>
   <g id="line2d_55">
    <path d="M 69.357929 296.617972 
L 71.415232 259.128677 
L 73.472536 231.790455 
L 75.529839 227.317076 
L 77.587143 222.24103 
L 79.644447 203.691736 
L 81.70175 202.920054 
L 83.759054 197.697566 
L 85.816358 197.197184 
L 87.873661 195.071137 
L 89.930965 194.495505 
L 91.988268 180.391279 
L 94.045572 178.24866 
L 96.102876 176.114146 
L 98.160179 175.596787 
L 100.217483 174.863392 
L 102.274786 166.794896 
L 104.33209 165.465459 
L 106.389394 164.672248 
L 108.446697 154.775633 
L 110.504001 144.326837 
L 112.561304 144.167216 
L 114.618608 142.00578 
L 116.675912 141.66857 
L 118.733215 135.159941 
L 120.790519 131.902883 
L 122.847823 130.145312 
L 124.905126 126.638232 
L 126.96243 123.927793 
L 129.019733 114.710191 
L 131.077037 103.977982 
L 133.134341 98.861879 
L 135.191644 95.375697 
L 137.248948 93.400623 
L 139.306251 91.168165 
L 141.363555 83.246123 
L 143.420859 83.078735 
L 145.478162 81.842003 
L 147.535466 75.910551 
L 149.592769 66.658149 
L 151.650073 48.594985 
L 153.707377 45.15438 
L 155.76468 25.127384 
L 157.821984 22.20912 
L 159.879288 19.791488 
" clip-path="url(#pcbc8ac0c0a)" style="fill: none; stroke-dasharray: 12.8,3.2,2,3.2; stroke-dashoffset: 0; stroke: #008000; stroke-opacity: 0.7; stroke-width: 2"/>
   </g>
   <g id="line2d_56">
    <path d="M 69.357929 278.72268 
L 71.415232 250.815808 
L 73.472536 219.746497 
L 75.529839 213.934889 
L 77.587143 210.40675 
L 79.644447 197.496717 
L 81.70175 196.902256 
L 83.759054 189.524971 
L 85.816358 187.341252 
L 87.873661 186.845796 
L 89.930965 174.781418 
L 91.988268 171.54792 
L 94.045572 167.352955 
L 96.102876 163.536236 
L 98.160179 159.475911 
L 100.217483 159.382244 
L 102.274786 153.857406 
L 104.33209 149.67457 
L 106.389394 144.246079 
L 108.446697 138.375168 
L 110.504001 136.937959 
L 112.561304 134.606238 
L 114.618608 131.490162 
L 116.675912 128.79854 
L 118.733215 125.008266 
L 120.790519 124.495382 
L 122.847823 123.62165 
L 124.905126 120.33422 
L 126.96243 113.089784 
L 129.019733 109.795798 
L 131.077037 92.962324 
L 133.134341 90.179599 
L 135.191644 86.64969 
L 137.248948 82.580337 
L 139.306251 81.697492 
L 141.363555 77.273474 
L 143.420859 76.707879 
L 145.478162 74.695282 
L 147.535466 60.560522 
L 149.592769 42.247663 
L 151.650073 40.937372 
L 153.707377 37.985426 
L 155.76468 20.030339 
L 157.821984 13.066164 
L 159.879288 7.654693 
" clip-path="url(#pcbc8ac0c0a)" style="fill: none; stroke-dasharray: 2,3.3; stroke-dashoffset: 0; stroke: #a52a2a; stroke-opacity: 0.7; stroke-width: 2"/>
   </g>
   <g id="line2d_57">
    <path d="M 69.357929 323.020109 
L 71.415232 321.344668 
L 73.472536 308.16111 
L 75.529839 306.295072 
L 77.587143 304.696658 
L 79.644447 294.823675 
L 81.70175 294.652747 
L 83.759054 293.275038 
L 85.816358 292.456251 
L 87.873661 290.365803 
L 89.930965 289.909994 
L 91.988268 288.354449 
L 94.045572 287.194272 
L 96.102876 287.175469 
L 98.160179 285.105922 
L 100.217483 284.664872 
L 102.274786 284.638392 
L 104.33209 284.344693 
L 106.389394 281.585349 
L 108.446697 280.013699 
L 110.504001 272.967309 
L 112.561304 271.52284 
L 114.618608 271.052062 
L 116.675912 269.310153 
L 118.733215 269.039239 
L 120.790519 267.456544 
L 122.847823 267.135089 
L 124.905126 261.125001 
L 129.019733 259.020817 
L 131.077037 257.352683 
L 133.134341 253.452368 
L 135.191644 251.717369 
L 137.248948 245.261797 
L 139.306251 244.810333 
L 141.363555 241.288138 
L 143.420859 235.209655 
L 145.478162 233.617298 
L 147.535466 233.308608 
L 149.592769 231.225417 
L 151.650073 227.489712 
L 155.76468 227.185831 
L 157.821984 224.283529 
L 159.879288 224.10419 
L 161.936591 220.724933 
L 163.993895 220.644743 
L 166.051198 220.415753 
L 168.108502 219.846223 
L 170.165806 217.862664 
L 172.223109 217.103926 
L 174.280413 217.081905 
L 176.337716 216.370511 
L 180.452324 216.017198 
L 182.509627 214.073625 
L 184.566931 213.922521 
L 186.624234 212.735932 
L 188.681538 212.086147 
L 190.738842 211.628621 
L 192.796145 210.290042 
L 194.853449 208.707402 
L 196.910753 208.254171 
L 198.968056 207.468343 
L 203.082663 206.385069 
L 205.139967 206.101956 
L 207.197271 204.510129 
L 211.311878 202.492993 
L 213.369181 202.033495 
L 215.426485 201.418646 
L 217.483789 196.475477 
L 219.541092 195.449774 
L 221.598396 193.572644 
L 223.655699 193.062816 
L 227.770307 192.696968 
L 229.82761 191.69081 
L 231.884914 191.029836 
L 235.999521 189.292994 
L 238.056825 186.143224 
L 242.171432 185.069429 
L 244.228736 181.946144 
L 246.286039 180.831545 
L 248.343343 180.641947 
L 250.400646 180.623648 
L 252.45795 178.934229 
L 254.515254 178.543124 
L 256.572557 178.400734 
L 258.629861 177.964762 
L 260.687164 177.869548 
L 262.744468 174.038929 
L 264.801772 172.052896 
L 266.859075 171.95166 
L 268.916379 167.561747 
L 270.973683 167.012306 
L 273.030986 161.515064 
L 275.08829 159.564366 
L 277.145593 159.248314 
L 279.202897 159.08231 
L 281.260201 158.633981 
L 283.317504 156.472258 
L 285.374808 156.030537 
L 287.432111 154.339779 
L 289.489415 154.187136 
L 291.546719 153.660396 
L 293.604022 153.515779 
L 295.661326 151.558155 
L 297.718629 151.39416 
L 299.775933 151.353418 
L 301.833237 145.924263 
L 303.89054 145.683569 
L 305.947844 143.877787 
L 308.005148 143.69199 
L 310.062451 143.656822 
L 312.119755 142.03006 
L 314.177058 141.633086 
L 316.234362 141.617416 
L 318.291666 140.960916 
L 320.348969 140.025748 
L 322.406273 139.604846 
L 324.463576 139.504947 
L 326.52088 138.603139 
L 328.578184 138.599487 
L 330.635487 136.024512 
L 332.692791 135.511127 
L 334.750094 134.060459 
L 336.807398 133.698035 
L 338.864702 132.860214 
L 340.922005 131.527484 
L 342.979309 130.974547 
L 345.036613 130.143618 
L 347.093916 125.49457 
L 349.15122 125.160107 
L 351.208523 124.985896 
L 353.265827 124.984728 
L 355.323131 124.68246 
L 357.380434 123.011965 
L 359.437738 122.308296 
L 361.495041 121.85467 
L 363.552345 119.966022 
L 365.609649 119.881089 
L 367.666952 118.885995 
L 369.724256 118.40164 
L 371.781559 118.359739 
L 373.838863 118.058403 
L 375.896167 117.603165 
L 377.95347 117.520656 
L 380.010774 116.024985 
L 382.068078 113.044888 
L 386.182685 113.005051 
L 388.239988 112.565994 
L 390.297292 111.605809 
L 392.354596 111.380949 
L 394.411899 111.292647 
L 396.469203 110.229075 
L 398.526506 110.030896 
L 400.58381 110.001265 
L 402.641114 107.896394 
L 404.698417 105.498974 
L 406.755721 102.370986 
L 408.813025 101.954961 
L 410.870328 100.363494 
L 412.927632 100.230818 
L 414.984935 97.854684 
L 417.042239 97.651145 
L 419.099543 96.806057 
L 421.156846 96.550092 
L 423.21415 95.221419 
L 425.271453 94.601507 
L 427.328757 92.853883 
L 429.386061 92.658043 
L 431.443364 92.039602 
L 433.500668 91.15421 
L 435.557971 90.4512 
L 437.615275 90.261311 
L 439.672579 89.394394 
L 441.729882 87.556641 
L 443.787186 87.554908 
L 445.84449 86.108713 
L 447.901793 85.582215 
L 449.959097 85.336769 
L 452.0164 84.570392 
L 454.073704 82.905194 
L 456.131008 81.673707 
L 462.302918 79.722255 
L 464.360222 79.511815 
L 466.417526 79.16929 
L 468.474829 78.469799 
L 470.532133 78.417119 
L 474.64674 77.272645 
L 476.704044 77.250045 
L 478.761347 77.039802 
L 480.818651 75.196177 
L 482.875955 75.063751 
L 486.990562 74.091767 
L 489.047865 73.851493 
L 491.105169 73.162706 
L 493.162473 71.749114 
L 495.219776 70.52891 
L 497.27708 70.084382 
L 499.334383 69.936256 
L 503.448991 68.847592 
L 505.506294 67.778056 
L 507.563598 67.531065 
L 509.620901 66.99086 
L 511.678205 66.867331 
L 513.735509 66.305273 
L 515.792812 65.549323 
L 517.850116 64.471769 
L 519.90742 63.931571 
L 521.964723 62.973598 
L 524.022027 61.393402 
L 526.07933 59.646285 
L 528.136634 55.266868 
L 530.193938 54.810611 
L 532.251241 54.698838 
L 534.308545 51.047188 
L 536.365848 44.127841 
L 538.423152 40.792622 
L 540.480456 38.795037 
L 542.537759 36.524494 
L 544.595063 31.322417 
L 546.652366 23.857527 
L 548.70967 20.393281 
L 550.766974 13.843393 
L 552.824277 11.485577 
L 552.824277 11.485577 
" clip-path="url(#pcbc8ac0c0a)" style="fill: none; stroke: #ff0000; stroke-opacity: 0.7; stroke-width: 2; stroke-linecap: square"/>
   </g>
   <g id="legend_1">
    <g id="patch_7">
     <path d="M 440.582778 316.020109 
L 571.026528 316.020109 
Q 574.626528 316.020109 574.626528 312.420109 
L 574.626528 234.958234 
Q 574.626528 231.358234 571.026528 231.358234 
L 440.582778 231.358234 
Q 436.982778 231.358234 436.982778 234.958234 
L 436.982778 312.420109 
Q 436.982778 316.020109 440.582778 316.020109 
z
" style="fill: #4d4d4d; opacity: 0.5; stroke: #4d4d4d; stroke-linejoin: miter"/>
    </g>
    <g id="patch_8">
     <path d="M 438.582778 314.020109 
L 569.026528 314.020109 
Q 572.626528 314.020109 572.626528 310.420109 
L 572.626528 232.958234 
Q 572.626528 229.358234 569.026528 229.358234 
L 438.582778 229.358234 
Q 434.982778 229.358234 434.982778 232.958234 
L 434.982778 310.420109 
Q 434.982778 314.020109 438.582778 314.020109 
z
" style="fill: #ffffff; stroke: #000000; stroke-linejoin: miter"/>
    </g>
    <g id="line2d_58">
     <path d="M 442.182778 243.935422 
L 460.182778 243.935422 
L 478.182778 243.935422 
" style="fill: none; stroke-dasharray: 12.8,3.2,2,3.2; stroke-dashoffset: 0; stroke: #008000; stroke-opacity: 0.7; stroke-width: 2"/>
    </g>
    <g id="text_13">
     <!-- add-last -->
     <g transform="translate(492.582778 250.235422) scale(0.18 -0.18)">
      <defs>
       <path id="DejaVuSans-64" d="M 2906 2969 
L 2906 4863 
L 3481 4863 
L 3481 0 
L 2906 0 
L 2906 525 
Q 2725 213 2448 61 
Q 2172 -91 1784 -91 
Q 1150 -91 751 415 
Q 353 922 353 1747 
Q 353 2572 751 3078 
Q 1150 3584 1784 3584 
Q 2172 3584 2448 3432 
Q 2725 3281 2906 2969 
z
M 947 1747 
Q 947 1113 1208 752 
Q 1469 391 1925 391 
Q 2381 391 2643 752 
Q 2906 1113 2906 1747 
Q 2906 2381 2643 2742 
Q 2381 3103 1925 3103 
Q 1469 3103 1208 2742 
Q 947 2381 947 1747 
z
" transform="scale(0.015625)"/>
       <path id="DejaVuSans-2d" d="M 313 2009 
L 1997 2009 
L 1997 1497 
L 313 1497 
L 313 2009 
z
" transform="scale(0.015625)"/>
       <path id="DejaVuSans-6c" d="M 603 4863 
L 1178 4863 
L 1178 0 
L 603 0 
L 603 4863 
z
" transform="scale(0.015625)"/>
      </defs>
      <use xlink:href="#DejaVuSans-61"/>
      <use xlink:href="#DejaVuSans-64" x="61.279297"/>
      <use xlink:href="#DejaVuSans-64" x="124.755859"/>
      <use xlink:href="#DejaVuSans-2d" x="188.232422"/>
      <use xlink:href="#DejaVuSans-6c" x="224.316406"/>
      <use xlink:href="#DejaVuSans-61" x="252.099609"/>
      <use xlink:href="#DejaVuSans-73" x="313.378906"/>
      <use xlink:href="#DejaVuSans-74" x="365.478516"/>
     </g>
    </g>
    <g id="line2d_59">
     <path d="M 442.182778 270.356047 
L 460.182778 270.356047 
L 478.182778 270.356047 
" style="fill: none; stroke-dasharray: 2,3.3; stroke-dashoffset: 0; stroke: #a52a2a; stroke-opacity: 0.7; stroke-width: 2"/>
    </g>
    <g id="text_14">
     <!-- add-full -->
     <g transform="translate(492.582778 276.656047) scale(0.18 -0.18)">
      <defs>
       <path id="DejaVuSans-66" d="M 2375 4863 
L 2375 4384 
L 1825 4384 
Q 1516 4384 1395 4259 
Q 1275 4134 1275 3809 
L 1275 3500 
L 2222 3500 
L 2222 3053 
L 1275 3053 
L 1275 0 
L 697 0 
L 697 3053 
L 147 3053 
L 147 3500 
L 697 3500 
L 697 3744 
Q 697 4328 969 4595 
Q 1241 4863 1831 4863 
L 2375 4863 
z
" transform="scale(0.015625)"/>
       <path id="DejaVuSans-75" d="M 544 1381 
L 544 3500 
L 1119 3500 
L 1119 1403 
Q 1119 906 1312 657 
Q 1506 409 1894 409 
Q 2359 409 2629 706 
Q 2900 1003 2900 1516 
L 2900 3500 
L 3475 3500 
L 3475 0 
L 2900 0 
L 2900 538 
Q 2691 219 2414 64 
Q 2138 -91 1772 -91 
Q 1169 -91 856 284 
Q 544 659 544 1381 
z
M 1991 3584 
L 1991 3584 
z
" transform="scale(0.015625)"/>
      </defs>
      <use xlink:href="#DejaVuSans-61"/>
      <use xlink:href="#DejaVuSans-64" x="61.279297"/>
      <use xlink:href="#DejaVuSans-64" x="124.755859"/>
      <use xlink:href="#DejaVuSans-2d" x="188.232422"/>
      <use xlink:href="#DejaVuSans-66" x="224.316406"/>
      <use xlink:href="#DejaVuSans-75" x="259.521484"/>
      <use xlink:href="#DejaVuSans-6c" x="322.900391"/>
      <use xlink:href="#DejaVuSans-6c" x="350.683594"/>
     </g>
    </g>
    <g id="line2d_60">
     <path d="M 442.182778 296.776672 
L 460.182778 296.776672 
L 478.182778 296.776672 
" style="fill: none; stroke: #ff0000; stroke-opacity: 0.7; stroke-width: 2; stroke-linecap: square"/>
    </g>
    <g id="text_15">
     <!-- MIP -->
     <g transform="translate(492.582778 303.076672) scale(0.18 -0.18)">
      <defs>
       <path id="DejaVuSans-4d" d="M 628 4666 
L 1569 4666 
L 2759 1491 
L 3956 4666 
L 4897 4666 
L 4897 0 
L 4281 0 
L 4281 4097 
L 3078 897 
L 2444 897 
L 1241 4097 
L 1241 0 
L 628 0 
L 628 4666 
z
" transform="scale(0.015625)"/>
       <path id="DejaVuSans-49" d="M 628 4666 
L 1259 4666 
L 1259 0 
L 628 0 
L 628 4666 
z
" transform="scale(0.015625)"/>
      </defs>
      <use xlink:href="#DejaVuSans-4d"/>
      <use xlink:href="#DejaVuSans-49" x="86.279297"/>
      <use xlink:href="#DejaVuSans-50" x="115.771484"/>
     </g>
    </g>
   </g>
  </g>
 </g>
 <defs>
  <clipPath id="pcbc8ac0c0a">
   <rect x="67.300625" y="7.2" width="514.325903" height="315.820109"/>
  </clipPath>
 </defs>
</svg>
