<?xml version="1.0" encoding="utf-8" standalone="no"?>
<!DOCTYPE svg PUBLIC "-//W3C//DTD SVG 1.1//EN"
  "http://www.w3.org/Graphics/SVG/1.1/DTD/svg11.dtd">
<svg xmlns:xlink="http://www.w3.org/1999/xlink" width="600.279028pt" height="376.061359pt" viewBox="0 0 600.279028 376.061359" xmlns="http://www.w3.org/2000/svg" version="1.1">
 <metadata>
  <rdf:RDF xmlns:dc="http://purl.org/dc/elements/1.1/" xmlns:cc="http://creativecommons.org/ns#" xmlns:rdf="http://www.w3.org/1999/02/22-rdf-syntax-ns#">
   <cc:Work>
    <dc:type rdf:resource="http://purl.org/dc/dcmitype/StillImage"/>
    <dc:date>2024-01-04T13:16:15.696342</dc:date>
    <dc:format>image/svg+xml</dc:format>
    <dc:creator>
     <cc:Agent>
      <dc:title>Matplotlib v3.8.0, https://matplotlib.org/</dc:title>
     </cc:Agent>
    </dc:creator>
   </cc:Work>
  </rdf:RDF>
 </metadata>
 <defs>
  <style type="text/css">*{stroke-linejoin: round; stroke-linecap: butt}</style>
 </defs>
 <g id="figure_1">
  <g id="patch_1">
   <path d="M -0 376.061359 
L 600.279028 376.061359 
L 600.279028 0 
L -0 0 
z
" style="fill: #ffffff"/>
  </g>
  <g id="axes_1">
   <g id="patch_2">
    <path d="M 67.300625 323.020109 
L 581.626528 323.020109 
L 581.626528 7.2 
L 67.300625 7.2 
z
" style="fill: #ffffff"/>
   </g>
   <g id="matplotlib.axis_1">
    <g id="xtick_1">
     <g id="line2d_1">
      <path d="M 67.300625 323.020109 
L 67.300625 7.2 
" clip-path="url(#p9197442885)" style="fill: none; stroke-dasharray: 1,1.65; stroke-dashoffset: 0; stroke: #000000"/>
     </g>
     <g id="line2d_2">
      <defs>
       <path id="m77030f5d69" d="M 0 0 
L 0 3.5 
" style="stroke: #000000; stroke-width: 0.8"/>
      </defs>
      <g>
       <use xlink:href="#m77030f5d69" x="67.300625" y="323.020109" style="stroke: #000000; stroke-width: 0.8"/>
      </g>
     </g>
     <g id="text_1">
      <!-- 0 -->
      <g transform="translate(61.574375 343.697297) scale(0.18 -0.18)">
       <defs>
        <path id="DejaVuSans-30" d="M 2034 4250 
Q 1547 4250 1301 3770 
Q 1056 3291 1056 2328 
Q 1056 1369 1301 889 
Q 1547 409 2034 409 
Q 2525 409 2770 889 
Q 3016 1369 3016 2328 
Q 3016 3291 2770 3770 
Q 2525 4250 2034 4250 
z
M 2034 4750 
Q 2819 4750 3233 4129 
Q 3647 3509 3647 2328 
Q 3647 1150 3233 529 
Q 2819 -91 2034 -91 
Q 1250 -91 836 529 
Q 422 1150 422 2328 
Q 422 3509 836 4129 
Q 1250 4750 2034 4750 
z
" transform="scale(0.015625)"/>
       </defs>
       <use xlink:href="#DejaVuSans-30"/>
      </g>
     </g>
    </g>
    <g id="xtick_2">
     <g id="line2d_3">
      <path d="M 124.447948 323.020109 
L 124.447948 7.2 
" clip-path="url(#p9197442885)" style="fill: none; stroke-dasharray: 1,1.65; stroke-dashoffset: 0; stroke: #000000"/>
     </g>
     <g id="line2d_4">
      <g>
       <use xlink:href="#m77030f5d69" x="124.447948" y="323.020109" style="stroke: #000000; stroke-width: 0.8"/>
      </g>
     </g>
     <g id="text_2">
      <!-- 5 -->
      <g transform="translate(118.721698 343.697297) scale(0.18 -0.18)">
       <defs>
        <path id="DejaVuSans-35" d="M 691 4666 
L 3169 4666 
L 3169 4134 
L 1269 4134 
L 1269 2991 
Q 1406 3038 1543 3061 
Q 1681 3084 1819 3084 
Q 2600 3084 3056 2656 
Q 3513 2228 3513 1497 
Q 3513 744 3044 326 
Q 2575 -91 1722 -91 
Q 1428 -91 1123 -41 
Q 819 9 494 109 
L 494 744 
Q 775 591 1075 516 
Q 1375 441 1709 441 
Q 2250 441 2565 725 
Q 2881 1009 2881 1497 
Q 2881 1984 2565 2268 
Q 2250 2553 1709 2553 
Q 1456 2553 1204 2497 
Q 953 2441 691 2322 
L 691 4666 
z
" transform="scale(0.015625)"/>
       </defs>
       <use xlink:href="#DejaVuSans-35"/>
      </g>
     </g>
    </g>
    <g id="xtick_3">
     <g id="line2d_5">
      <path d="M 181.59527 323.020109 
L 181.59527 7.2 
" clip-path="url(#p9197442885)" style="fill: none; stroke-dasharray: 1,1.65; stroke-dashoffset: 0; stroke: #000000"/>
     </g>
     <g id="line2d_6">
      <g>
       <use xlink:href="#m77030f5d69" x="181.59527" y="323.020109" style="stroke: #000000; stroke-width: 0.8"/>
      </g>
     </g>
     <g id="text_3">
      <!-- 10 -->
      <g transform="translate(170.14277 343.697297) scale(0.18 -0.18)">
       <defs>
        <path id="DejaVuSans-31" d="M 794 531 
L 1825 531 
L 1825 4091 
L 703 3866 
L 703 4441 
L 1819 4666 
L 2450 4666 
L 2450 531 
L 3481 531 
L 3481 0 
L 794 0 
L 794 531 
z
" transform="scale(0.015625)"/>
       </defs>
       <use xlink:href="#DejaVuSans-31"/>
       <use xlink:href="#DejaVuSans-30" x="63.623047"/>
      </g>
     </g>
    </g>
    <g id="xtick_4">
     <g id="line2d_7">
      <path d="M 238.742593 323.020109 
L 238.742593 7.2 
" clip-path="url(#p9197442885)" style="fill: none; stroke-dasharray: 1,1.65; stroke-dashoffset: 0; stroke: #000000"/>
     </g>
     <g id="line2d_8">
      <g>
       <use xlink:href="#m77030f5d69" x="238.742593" y="323.020109" style="stroke: #000000; stroke-width: 0.8"/>
      </g>
     </g>
     <g id="text_4">
      <!-- 15 -->
      <g transform="translate(227.290093 343.697297) scale(0.18 -0.18)">
       <use xlink:href="#DejaVuSans-31"/>
       <use xlink:href="#DejaVuSans-35" x="63.623047"/>
      </g>
     </g>
    </g>
    <g id="xtick_5">
     <g id="line2d_9">
      <path d="M 295.889915 323.020109 
L 295.889915 7.2 
" clip-path="url(#p9197442885)" style="fill: none; stroke-dasharray: 1,1.65; stroke-dashoffset: 0; stroke: #000000"/>
     </g>
     <g id="line2d_10">
      <g>
       <use xlink:href="#m77030f5d69" x="295.889915" y="323.020109" style="stroke: #000000; stroke-width: 0.8"/>
      </g>
     </g>
     <g id="text_5">
      <!-- 20 -->
      <g transform="translate(284.437415 343.697297) scale(0.18 -0.18)">
       <defs>
        <path id="DejaVuSans-32" d="M 1228 531 
L 3431 531 
L 3431 0 
L 469 0 
L 469 531 
Q 828 903 1448 1529 
Q 2069 2156 2228 2338 
Q 2531 2678 2651 2914 
Q 2772 3150 2772 3378 
Q 2772 3750 2511 3984 
Q 2250 4219 1831 4219 
Q 1534 4219 1204 4116 
Q 875 4013 500 3803 
L 500 4441 
Q 881 4594 1212 4672 
Q 1544 4750 1819 4750 
Q 2544 4750 2975 4387 
Q 3406 4025 3406 3419 
Q 3406 3131 3298 2873 
Q 3191 2616 2906 2266 
Q 2828 2175 2409 1742 
Q 1991 1309 1228 531 
z
" transform="scale(0.015625)"/>
       </defs>
       <use xlink:href="#DejaVuSans-32"/>
       <use xlink:href="#DejaVuSans-30" x="63.623047"/>
      </g>
     </g>
    </g>
    <g id="xtick_6">
     <g id="line2d_11">
      <path d="M 353.037238 323.020109 
L 353.037238 7.2 
" clip-path="url(#p9197442885)" style="fill: none; stroke-dasharray: 1,1.65; stroke-dashoffset: 0; stroke: #000000"/>
     </g>
     <g id="line2d_12">
      <g>
       <use xlink:href="#m77030f5d69" x="353.037238" y="323.020109" style="stroke: #000000; stroke-width: 0.8"/>
      </g>
     </g>
     <g id="text_6">
      <!-- 25 -->
      <g transform="translate(341.584738 343.697297) scale(0.18 -0.18)">
       <use xlink:href="#DejaVuSans-32"/>
       <use xlink:href="#DejaVuSans-35" x="63.623047"/>
      </g>
     </g>
    </g>
    <g id="xtick_7">
     <g id="line2d_13">
      <path d="M 410.18456 323.020109 
L 410.18456 7.2 
" clip-path="url(#p9197442885)" style="fill: none; stroke-dasharray: 1,1.65; stroke-dashoffset: 0; stroke: #000000"/>
     </g>
     <g id="line2d_14">
      <g>
       <use xlink:href="#m77030f5d69" x="410.18456" y="323.020109" style="stroke: #000000; stroke-width: 0.8"/>
      </g>
     </g>
     <g id="text_7">
      <!-- 30 -->
      <g transform="translate(398.73206 343.697297) scale(0.18 -0.18)">
       <defs>
        <path id="DejaVuSans-33" d="M 2597 2516 
Q 3050 2419 3304 2112 
Q 3559 1806 3559 1356 
Q 3559 666 3084 287 
Q 2609 -91 1734 -91 
Q 1441 -91 1130 -33 
Q 819 25 488 141 
L 488 750 
Q 750 597 1062 519 
Q 1375 441 1716 441 
Q 2309 441 2620 675 
Q 2931 909 2931 1356 
Q 2931 1769 2642 2001 
Q 2353 2234 1838 2234 
L 1294 2234 
L 1294 2753 
L 1863 2753 
Q 2328 2753 2575 2939 
Q 2822 3125 2822 3475 
Q 2822 3834 2567 4026 
Q 2313 4219 1838 4219 
Q 1578 4219 1281 4162 
Q 984 4106 628 3988 
L 628 4550 
Q 988 4650 1302 4700 
Q 1616 4750 1894 4750 
Q 2613 4750 3031 4423 
Q 3450 4097 3450 3541 
Q 3450 3153 3228 2886 
Q 3006 2619 2597 2516 
z
" transform="scale(0.015625)"/>
       </defs>
       <use xlink:href="#DejaVuSans-33"/>
       <use xlink:href="#DejaVuSans-30" x="63.623047"/>
      </g>
     </g>
    </g>
    <g id="xtick_8">
     <g id="line2d_15">
      <path d="M 467.331883 323.020109 
L 467.331883 7.2 
" clip-path="url(#p9197442885)" style="fill: none; stroke-dasharray: 1,1.65; stroke-dashoffset: 0; stroke: #000000"/>
     </g>
     <g id="line2d_16">
      <g>
       <use xlink:href="#m77030f5d69" x="467.331883" y="323.020109" style="stroke: #000000; stroke-width: 0.8"/>
      </g>
     </g>
     <g id="text_8">
      <!-- 35 -->
      <g transform="translate(455.879383 343.697297) scale(0.18 -0.18)">
       <use xlink:href="#DejaVuSans-33"/>
       <use xlink:href="#DejaVuSans-35" x="63.623047"/>
      </g>
     </g>
    </g>
    <g id="xtick_9">
     <g id="line2d_17">
      <path d="M 524.479205 323.020109 
L 524.479205 7.2 
" clip-path="url(#p9197442885)" style="fill: none; stroke-dasharray: 1,1.65; stroke-dashoffset: 0; stroke: #000000"/>
     </g>
     <g id="line2d_18">
      <g>
       <use xlink:href="#m77030f5d69" x="524.479205" y="323.020109" style="stroke: #000000; stroke-width: 0.8"/>
      </g>
     </g>
     <g id="text_9">
      <!-- 40 -->
      <g transform="translate(513.026705 343.697297) scale(0.18 -0.18)">
       <defs>
        <path id="DejaVuSans-34" d="M 2419 4116 
L 825 1625 
L 2419 1625 
L 2419 4116 
z
M 2253 4666 
L 3047 4666 
L 3047 1625 
L 3713 1625 
L 3713 1100 
L 3047 1100 
L 3047 0 
L 2419 0 
L 2419 1100 
L 313 1100 
L 313 1709 
L 2253 4666 
z
" transform="scale(0.015625)"/>
       </defs>
       <use xlink:href="#DejaVuSans-34"/>
       <use xlink:href="#DejaVuSans-30" x="63.623047"/>
      </g>
     </g>
    </g>
    <g id="xtick_10">
     <g id="line2d_19">
      <path d="M 581.626528 323.020109 
L 581.626528 7.2 
" clip-path="url(#p9197442885)" style="fill: none; stroke-dasharray: 1,1.65; stroke-dashoffset: 0; stroke: #000000"/>
     </g>
     <g id="line2d_20">
      <g>
       <use xlink:href="#m77030f5d69" x="581.626528" y="323.020109" style="stroke: #000000; stroke-width: 0.8"/>
      </g>
     </g>
     <g id="text_10">
      <!-- 45 -->
      <g transform="translate(570.174028 343.697297) scale(0.18 -0.18)">
       <use xlink:href="#DejaVuSans-34"/>
       <use xlink:href="#DejaVuSans-35" x="63.623047"/>
      </g>
     </g>
    </g>
    <g id="text_11">
     <!-- instances -->
     <g transform="translate(281.648889 365.117922) scale(0.18 -0.18)">
      <defs>
       <path id="DejaVuSans-69" d="M 603 3500 
L 1178 3500 
L 1178 0 
L 603 0 
L 603 3500 
z
M 603 4863 
L 1178 4863 
L 1178 4134 
L 603 4134 
L 603 4863 
z
" transform="scale(0.015625)"/>
       <path id="DejaVuSans-6e" d="M 3513 2113 
L 3513 0 
L 2938 0 
L 2938 2094 
Q 2938 2591 2744 2837 
Q 2550 3084 2163 3084 
Q 1697 3084 1428 2787 
Q 1159 2491 1159 1978 
L 1159 0 
L 581 0 
L 581 3500 
L 1159 3500 
L 1159 2956 
Q 1366 3272 1645 3428 
Q 1925 3584 2291 3584 
Q 2894 3584 3203 3211 
Q 3513 2838 3513 2113 
z
" transform="scale(0.015625)"/>
       <path id="DejaVuSans-73" d="M 2834 3397 
L 2834 2853 
Q 2591 2978 2328 3040 
Q 2066 3103 1784 3103 
Q 1356 3103 1142 2972 
Q 928 2841 928 2578 
Q 928 2378 1081 2264 
Q 1234 2150 1697 2047 
L 1894 2003 
Q 2506 1872 2764 1633 
Q 3022 1394 3022 966 
Q 3022 478 2636 193 
Q 2250 -91 1575 -91 
Q 1294 -91 989 -36 
Q 684 19 347 128 
L 347 722 
Q 666 556 975 473 
Q 1284 391 1588 391 
Q 1994 391 2212 530 
Q 2431 669 2431 922 
Q 2431 1156 2273 1281 
Q 2116 1406 1581 1522 
L 1381 1569 
Q 847 1681 609 1914 
Q 372 2147 372 2553 
Q 372 3047 722 3315 
Q 1072 3584 1716 3584 
Q 2034 3584 2315 3537 
Q 2597 3491 2834 3397 
z
" transform="scale(0.015625)"/>
       <path id="DejaVuSans-74" d="M 1172 4494 
L 1172 3500 
L 2356 3500 
L 2356 3053 
L 1172 3053 
L 1172 1153 
Q 1172 725 1289 603 
Q 1406 481 1766 481 
L 2356 481 
L 2356 0 
L 1766 0 
Q 1100 0 847 248 
Q 594 497 594 1153 
L 594 3053 
L 172 3053 
L 172 3500 
L 594 3500 
L 594 4494 
L 1172 4494 
z
" transform="scale(0.015625)"/>
       <path id="DejaVuSans-61" d="M 2194 1759 
Q 1497 1759 1228 1600 
Q 959 1441 959 1056 
Q 959 750 1161 570 
Q 1363 391 1709 391 
Q 2188 391 2477 730 
Q 2766 1069 2766 1631 
L 2766 1759 
L 2194 1759 
z
M 3341 1997 
L 3341 0 
L 2766 0 
L 2766 531 
Q 2569 213 2275 61 
Q 1981 -91 1556 -91 
Q 1019 -91 701 211 
Q 384 513 384 1019 
Q 384 1609 779 1909 
Q 1175 2209 1959 2209 
L 2766 2209 
L 2766 2266 
Q 2766 2663 2505 2880 
Q 2244 3097 1772 3097 
Q 1472 3097 1187 3025 
Q 903 2953 641 2809 
L 641 3341 
Q 956 3463 1253 3523 
Q 1550 3584 1831 3584 
Q 2591 3584 2966 3190 
Q 3341 2797 3341 1997 
z
" transform="scale(0.015625)"/>
       <path id="DejaVuSans-63" d="M 3122 3366 
L 3122 2828 
Q 2878 2963 2633 3030 
Q 2388 3097 2138 3097 
Q 1578 3097 1268 2742 
Q 959 2388 959 1747 
Q 959 1106 1268 751 
Q 1578 397 2138 397 
Q 2388 397 2633 464 
Q 2878 531 3122 666 
L 3122 134 
Q 2881 22 2623 -34 
Q 2366 -91 2075 -91 
Q 1284 -91 818 406 
Q 353 903 353 1747 
Q 353 2603 823 3093 
Q 1294 3584 2113 3584 
Q 2378 3584 2631 3529 
Q 2884 3475 3122 3366 
z
" transform="scale(0.015625)"/>
       <path id="DejaVuSans-65" d="M 3597 1894 
L 3597 1613 
L 953 1613 
Q 991 1019 1311 708 
Q 1631 397 2203 397 
Q 2534 397 2845 478 
Q 3156 559 3463 722 
L 3463 178 
Q 3153 47 2828 -22 
Q 2503 -91 2169 -91 
Q 1331 -91 842 396 
Q 353 884 353 1716 
Q 353 2575 817 3079 
Q 1281 3584 2069 3584 
Q 2775 3584 3186 3129 
Q 3597 2675 3597 1894 
z
M 3022 2063 
Q 3016 2534 2758 2815 
Q 2500 3097 2075 3097 
Q 1594 3097 1305 2825 
Q 1016 2553 972 2059 
L 3022 2063 
z
" transform="scale(0.015625)"/>
      </defs>
      <use xlink:href="#DejaVuSans-69"/>
      <use xlink:href="#DejaVuSans-6e" x="27.783203"/>
      <use xlink:href="#DejaVuSans-73" x="91.162109"/>
      <use xlink:href="#DejaVuSans-74" x="143.261719"/>
      <use xlink:href="#DejaVuSans-61" x="182.470703"/>
      <use xlink:href="#DejaVuSans-6e" x="243.75"/>
      <use xlink:href="#DejaVuSans-63" x="307.128906"/>
      <use xlink:href="#DejaVuSans-65" x="362.109375"/>
      <use xlink:href="#DejaVuSans-73" x="423.632812"/>
     </g>
    </g>
   </g>
   <g id="matplotlib.axis_2">
    <g id="ytick_1">
     <g id="line2d_21">
      <path d="M 67.300625 300.563212 
L 581.626528 300.563212 
" clip-path="url(#p9197442885)" style="fill: none; stroke-dasharray: 1,1.65; stroke-dashoffset: 0; stroke: #000000"/>
     </g>
     <g id="line2d_22">
      <defs>
       <path id="m0dda3acc7d" d="M 0 0 
L -3.5 0 
" style="stroke: #000000; stroke-width: 0.8"/>
      </defs>
      <g>
       <use xlink:href="#m0dda3acc7d" x="67.300625" y="300.563212" style="stroke: #000000; stroke-width: 0.8"/>
      </g>
     </g>
     <g id="text_12">
      <!-- $\mathdefault{10^{0}}$ -->
      <g transform="translate(28.620625 307.401806) scale(0.18 -0.18)">
       <use xlink:href="#DejaVuSans-31" transform="translate(0 0.765625)"/>
       <use xlink:href="#DejaVuSans-30" transform="translate(63.623047 0.765625)"/>
       <use xlink:href="#DejaVuSans-30" transform="translate(128.203125 39.046875) scale(0.7)"/>
      </g>
     </g>
    </g>
    <g id="ytick_2">
     <g id="line2d_23">
      <path d="M 67.300625 217.587614 
L 581.626528 217.587614 
" clip-path="url(#p9197442885)" style="fill: none; stroke-dasharray: 1,1.65; stroke-dashoffset: 0; stroke: #000000"/>
     </g>
     <g id="line2d_24">
      <g>
       <use xlink:href="#m0dda3acc7d" x="67.300625" y="217.587614" style="stroke: #000000; stroke-width: 0.8"/>
      </g>
     </g>
     <g id="text_13">
      <!-- $\mathdefault{10^{1}}$ -->
      <g transform="translate(28.620625 224.426207) scale(0.18 -0.18)">
       <use xlink:href="#DejaVuSans-31" transform="translate(0 0.684375)"/>
       <use xlink:href="#DejaVuSans-30" transform="translate(63.623047 0.684375)"/>
       <use xlink:href="#DejaVuSans-31" transform="translate(128.203125 38.965625) scale(0.7)"/>
      </g>
     </g>
    </g>
    <g id="ytick_3">
     <g id="line2d_25">
      <path d="M 67.300625 134.612015 
L 581.626528 134.612015 
" clip-path="url(#p9197442885)" style="fill: none; stroke-dasharray: 1,1.65; stroke-dashoffset: 0; stroke: #000000"/>
     </g>
     <g id="line2d_26">
      <g>
       <use xlink:href="#m0dda3acc7d" x="67.300625" y="134.612015" style="stroke: #000000; stroke-width: 0.8"/>
      </g>
     </g>
     <g id="text_14">
      <!-- $\mathdefault{10^{2}}$ -->
      <g transform="translate(28.620625 141.450609) scale(0.18 -0.18)">
       <use xlink:href="#DejaVuSans-31" transform="translate(0 0.765625)"/>
       <use xlink:href="#DejaVuSans-30" transform="translate(63.623047 0.765625)"/>
       <use xlink:href="#DejaVuSans-32" transform="translate(128.203125 39.046875) scale(0.7)"/>
      </g>
     </g>
    </g>
    <g id="ytick_4">
     <g id="line2d_27">
      <path d="M 67.300625 51.636417 
L 581.626528 51.636417 
" clip-path="url(#p9197442885)" style="fill: none; stroke-dasharray: 1,1.65; stroke-dashoffset: 0; stroke: #000000"/>
     </g>
     <g id="line2d_28">
      <g>
       <use xlink:href="#m0dda3acc7d" x="67.300625" y="51.636417" style="stroke: #000000; stroke-width: 0.8"/>
      </g>
     </g>
     <g id="text_15">
      <!-- $\mathdefault{10^{3}}$ -->
      <g transform="translate(28.620625 58.47501) scale(0.18 -0.18)">
       <use xlink:href="#DejaVuSans-31" transform="translate(0 0.765625)"/>
       <use xlink:href="#DejaVuSans-30" transform="translate(63.623047 0.765625)"/>
       <use xlink:href="#DejaVuSans-33" transform="translate(128.203125 39.046875) scale(0.7)"/>
      </g>
     </g>
    </g>
    <g id="ytick_5">
     <g id="line2d_29">
      <defs>
       <path id="mc14791076f" d="M 0 0 
L -2 0 
" style="stroke: #000000; stroke-width: 0.6"/>
      </defs>
      <g>
       <use xlink:href="#mc14791076f" x="67.300625" y="318.971245" style="stroke: #000000; stroke-width: 0.6"/>
      </g>
     </g>
    </g>
    <g id="ytick_6">
     <g id="line2d_30">
      <g>
       <use xlink:href="#mc14791076f" x="67.300625" y="313.416295" style="stroke: #000000; stroke-width: 0.6"/>
      </g>
     </g>
    </g>
    <g id="ytick_7">
     <g id="line2d_31">
      <g>
       <use xlink:href="#mc14791076f" x="67.300625" y="308.604379" style="stroke: #000000; stroke-width: 0.6"/>
      </g>
     </g>
    </g>
    <g id="ytick_8">
     <g id="line2d_32">
      <g>
       <use xlink:href="#mc14791076f" x="67.300625" y="304.359967" style="stroke: #000000; stroke-width: 0.6"/>
      </g>
     </g>
    </g>
    <g id="ytick_9">
     <g id="line2d_33">
      <g>
       <use xlink:href="#mc14791076f" x="67.300625" y="275.585068" style="stroke: #000000; stroke-width: 0.6"/>
      </g>
     </g>
    </g>
    <g id="ytick_10">
     <g id="line2d_34">
      <g>
       <use xlink:href="#mc14791076f" x="67.300625" y="260.973791" style="stroke: #000000; stroke-width: 0.6"/>
      </g>
     </g>
    </g>
    <g id="ytick_11">
     <g id="line2d_35">
      <g>
       <use xlink:href="#mc14791076f" x="67.300625" y="250.606924" style="stroke: #000000; stroke-width: 0.6"/>
      </g>
     </g>
    </g>
    <g id="ytick_12">
     <g id="line2d_36">
      <g>
       <use xlink:href="#mc14791076f" x="67.300625" y="242.565758" style="stroke: #000000; stroke-width: 0.6"/>
      </g>
     </g>
    </g>
    <g id="ytick_13">
     <g id="line2d_37">
      <g>
       <use xlink:href="#mc14791076f" x="67.300625" y="235.995647" style="stroke: #000000; stroke-width: 0.6"/>
      </g>
     </g>
    </g>
    <g id="ytick_14">
     <g id="line2d_38">
      <g>
       <use xlink:href="#mc14791076f" x="67.300625" y="230.440697" style="stroke: #000000; stroke-width: 0.6"/>
      </g>
     </g>
    </g>
    <g id="ytick_15">
     <g id="line2d_39">
      <g>
       <use xlink:href="#mc14791076f" x="67.300625" y="225.62878" style="stroke: #000000; stroke-width: 0.6"/>
      </g>
     </g>
    </g>
    <g id="ytick_16">
     <g id="line2d_40">
      <g>
       <use xlink:href="#mc14791076f" x="67.300625" y="221.384369" style="stroke: #000000; stroke-width: 0.6"/>
      </g>
     </g>
    </g>
    <g id="ytick_17">
     <g id="line2d_41">
      <g>
       <use xlink:href="#mc14791076f" x="67.300625" y="192.60947" style="stroke: #000000; stroke-width: 0.6"/>
      </g>
     </g>
    </g>
    <g id="ytick_18">
     <g id="line2d_42">
      <g>
       <use xlink:href="#mc14791076f" x="67.300625" y="177.998192" style="stroke: #000000; stroke-width: 0.6"/>
      </g>
     </g>
    </g>
    <g id="ytick_19">
     <g id="line2d_43">
      <g>
       <use xlink:href="#mc14791076f" x="67.300625" y="167.631326" style="stroke: #000000; stroke-width: 0.6"/>
      </g>
     </g>
    </g>
    <g id="ytick_20">
     <g id="line2d_44">
      <g>
       <use xlink:href="#mc14791076f" x="67.300625" y="159.590159" style="stroke: #000000; stroke-width: 0.6"/>
      </g>
     </g>
    </g>
    <g id="ytick_21">
     <g id="line2d_45">
      <g>
       <use xlink:href="#mc14791076f" x="67.300625" y="153.020048" style="stroke: #000000; stroke-width: 0.6"/>
      </g>
     </g>
    </g>
    <g id="ytick_22">
     <g id="line2d_46">
      <g>
       <use xlink:href="#mc14791076f" x="67.300625" y="147.465098" style="stroke: #000000; stroke-width: 0.6"/>
      </g>
     </g>
    </g>
    <g id="ytick_23">
     <g id="line2d_47">
      <g>
       <use xlink:href="#mc14791076f" x="67.300625" y="142.653181" style="stroke: #000000; stroke-width: 0.6"/>
      </g>
     </g>
    </g>
    <g id="ytick_24">
     <g id="line2d_48">
      <g>
       <use xlink:href="#mc14791076f" x="67.300625" y="138.40877" style="stroke: #000000; stroke-width: 0.6"/>
      </g>
     </g>
    </g>
    <g id="ytick_25">
     <g id="line2d_49">
      <g>
       <use xlink:href="#mc14791076f" x="67.300625" y="109.633871" style="stroke: #000000; stroke-width: 0.6"/>
      </g>
     </g>
    </g>
    <g id="ytick_26">
     <g id="line2d_50">
      <g>
       <use xlink:href="#mc14791076f" x="67.300625" y="95.022593" style="stroke: #000000; stroke-width: 0.6"/>
      </g>
     </g>
    </g>
    <g id="ytick_27">
     <g id="line2d_51">
      <g>
       <use xlink:href="#mc14791076f" x="67.300625" y="84.655727" style="stroke: #000000; stroke-width: 0.6"/>
      </g>
     </g>
    </g>
    <g id="ytick_28">
     <g id="line2d_52">
      <g>
       <use xlink:href="#mc14791076f" x="67.300625" y="76.614561" style="stroke: #000000; stroke-width: 0.6"/>
      </g>
     </g>
    </g>
    <g id="ytick_29">
     <g id="line2d_53">
      <g>
       <use xlink:href="#mc14791076f" x="67.300625" y="70.044449" style="stroke: #000000; stroke-width: 0.6"/>
      </g>
     </g>
    </g>
    <g id="ytick_30">
     <g id="line2d_54">
      <g>
       <use xlink:href="#mc14791076f" x="67.300625" y="64.489499" style="stroke: #000000; stroke-width: 0.6"/>
      </g>
     </g>
    </g>
    <g id="ytick_31">
     <g id="line2d_55">
      <g>
       <use xlink:href="#mc14791076f" x="67.300625" y="59.677583" style="stroke: #000000; stroke-width: 0.6"/>
      </g>
     </g>
    </g>
    <g id="ytick_32">
     <g id="line2d_56">
      <g>
       <use xlink:href="#mc14791076f" x="67.300625" y="55.433172" style="stroke: #000000; stroke-width: 0.6"/>
      </g>
     </g>
    </g>
    <g id="ytick_33">
     <g id="line2d_57">
      <g>
       <use xlink:href="#mc14791076f" x="67.300625" y="26.658272" style="stroke: #000000; stroke-width: 0.6"/>
      </g>
     </g>
    </g>
    <g id="ytick_34">
     <g id="line2d_58">
      <g>
       <use xlink:href="#mc14791076f" x="67.300625" y="12.046995" style="stroke: #000000; stroke-width: 0.6"/>
      </g>
     </g>
    </g>
    <g id="text_16">
     <!-- CPU time (s) -->
     <g transform="translate(20.877187 221.173023) rotate(-90) scale(0.18 -0.18)">
      <defs>
       <path id="DejaVuSans-43" d="M 4122 4306 
L 4122 3641 
Q 3803 3938 3442 4084 
Q 3081 4231 2675 4231 
Q 1875 4231 1450 3742 
Q 1025 3253 1025 2328 
Q 1025 1406 1450 917 
Q 1875 428 2675 428 
Q 3081 428 3442 575 
Q 3803 722 4122 1019 
L 4122 359 
Q 3791 134 3420 21 
Q 3050 -91 2638 -91 
Q 1578 -91 968 557 
Q 359 1206 359 2328 
Q 359 3453 968 4101 
Q 1578 4750 2638 4750 
Q 3056 4750 3426 4639 
Q 3797 4528 4122 4306 
z
" transform="scale(0.015625)"/>
       <path id="DejaVuSans-50" d="M 1259 4147 
L 1259 2394 
L 2053 2394 
Q 2494 2394 2734 2622 
Q 2975 2850 2975 3272 
Q 2975 3691 2734 3919 
Q 2494 4147 2053 4147 
L 1259 4147 
z
M 628 4666 
L 2053 4666 
Q 2838 4666 3239 4311 
Q 3641 3956 3641 3272 
Q 3641 2581 3239 2228 
Q 2838 1875 2053 1875 
L 1259 1875 
L 1259 0 
L 628 0 
L 628 4666 
z
" transform="scale(0.015625)"/>
       <path id="DejaVuSans-55" d="M 556 4666 
L 1191 4666 
L 1191 1831 
Q 1191 1081 1462 751 
Q 1734 422 2344 422 
Q 2950 422 3222 751 
Q 3494 1081 3494 1831 
L 3494 4666 
L 4128 4666 
L 4128 1753 
Q 4128 841 3676 375 
Q 3225 -91 2344 -91 
Q 1459 -91 1007 375 
Q 556 841 556 1753 
L 556 4666 
z
" transform="scale(0.015625)"/>
       <path id="DejaVuSans-20" transform="scale(0.015625)"/>
       <path id="DejaVuSans-6d" d="M 3328 2828 
Q 3544 3216 3844 3400 
Q 4144 3584 4550 3584 
Q 5097 3584 5394 3201 
Q 5691 2819 5691 2113 
L 5691 0 
L 5113 0 
L 5113 2094 
Q 5113 2597 4934 2840 
Q 4756 3084 4391 3084 
Q 3944 3084 3684 2787 
Q 3425 2491 3425 1978 
L 3425 0 
L 2847 0 
L 2847 2094 
Q 2847 2600 2669 2842 
Q 2491 3084 2119 3084 
Q 1678 3084 1418 2786 
Q 1159 2488 1159 1978 
L 1159 0 
L 581 0 
L 581 3500 
L 1159 3500 
L 1159 2956 
Q 1356 3278 1631 3431 
Q 1906 3584 2284 3584 
Q 2666 3584 2933 3390 
Q 3200 3197 3328 2828 
z
" transform="scale(0.015625)"/>
       <path id="DejaVuSans-28" d="M 1984 4856 
Q 1566 4138 1362 3434 
Q 1159 2731 1159 2009 
Q 1159 1288 1364 580 
Q 1569 -128 1984 -844 
L 1484 -844 
Q 1016 -109 783 600 
Q 550 1309 550 2009 
Q 550 2706 781 3412 
Q 1013 4119 1484 4856 
L 1984 4856 
z
" transform="scale(0.015625)"/>
       <path id="DejaVuSans-29" d="M 513 4856 
L 1013 4856 
Q 1481 4119 1714 3412 
Q 1947 2706 1947 2009 
Q 1947 1309 1714 600 
Q 1481 -109 1013 -844 
L 513 -844 
Q 928 -128 1133 580 
Q 1338 1288 1338 2009 
Q 1338 2731 1133 3434 
Q 928 4138 513 4856 
z
" transform="scale(0.015625)"/>
      </defs>
      <use xlink:href="#DejaVuSans-43"/>
      <use xlink:href="#DejaVuSans-50" x="69.824219"/>
      <use xlink:href="#DejaVuSans-55" x="130.126953"/>
      <use xlink:href="#DejaVuSans-20" x="203.320312"/>
      <use xlink:href="#DejaVuSans-74" x="235.107422"/>
      <use xlink:href="#DejaVuSans-69" x="274.316406"/>
      <use xlink:href="#DejaVuSans-6d" x="302.099609"/>
      <use xlink:href="#DejaVuSans-65" x="399.511719"/>
      <use xlink:href="#DejaVuSans-20" x="461.035156"/>
      <use xlink:href="#DejaVuSans-28" x="492.822266"/>
      <use xlink:href="#DejaVuSans-73" x="531.835938"/>
      <use xlink:href="#DejaVuSans-29" x="583.935547"/>
     </g>
    </g>
   </g>
   <g id="patch_3">
    <path d="M 67.300625 323.020109 
L 67.300625 7.2 
" style="fill: none; stroke: #000000; stroke-linejoin: miter; stroke-linecap: square"/>
   </g>
   <g id="patch_4">
    <path d="M 581.626528 323.020109 
L 581.626528 7.2 
" style="fill: none; stroke: #000000; stroke-linejoin: miter; stroke-linecap: square"/>
   </g>
   <g id="patch_5">
    <path d="M 67.300625 323.020109 
L 581.626528 323.020109 
" style="fill: none; stroke: #000000; stroke-linejoin: miter; stroke-linecap: square"/>
   </g>
   <g id="patch_6">
    <path d="M 67.300625 7.2 
L 581.626528 7.2 
" style="fill: none; stroke: #000000; stroke-linejoin: miter; stroke-linecap: square"/>
   </g>
   <g id="line2d_59">
    <path d="M 78.73009 323.020109 
L 90.159554 290.560385 
L 101.589019 254.422287 
L 113.018483 247.662547 
L 124.447948 243.558812 
L 135.877412 228.542578 
L 147.306877 227.851134 
L 158.736341 219.270286 
L 170.165806 216.730305 
L 181.59527 216.154018 
L 193.024735 202.121403 
L 204.454199 198.360378 
L 215.883664 193.481028 
L 227.313128 189.041632 
L 238.742593 184.318887 
L 250.172057 184.209939 
L 261.601522 177.783753 
L 273.030986 172.918512 
L 284.460451 166.604392 
L 295.889915 159.775674 
L 307.31938 158.103992 
L 318.748844 155.391863 
L 330.178309 151.767418 
L 341.607773 148.636672 
L 353.037238 144.228036 
L 364.466702 143.631477 
L 375.896167 142.615201 
L 387.325631 138.791444 
L 398.755096 130.365119 
L 410.18456 126.533737 
L 421.614025 106.953975 
L 433.043489 103.717263 
L 444.472954 99.61147 
L 455.902418 94.878224 
L 467.331883 93.851347 
L 478.761347 88.705575 
L 490.190812 88.047707 
L 501.620276 85.706765 
L 513.049741 69.265997 
L 524.479205 47.965496 
L 535.90867 46.441439 
L 547.338134 43.007899 
L 558.767599 22.123538 
L 570.197063 14.023197 
L 581.626528 7.728873 
" clip-path="url(#p9197442885)" style="fill: none; stroke-dasharray: 3.7,1.6; stroke-dashoffset: 0; stroke: #008000; stroke-opacity: 0.7"/>
    <defs>
     <path id="m3afcc73298" d="M 0 -2.5 
L -2.5 2.5 
L 2.5 2.5 
z
" style="stroke: #008000; stroke-opacity: 0.7; stroke-width: 0.75; stroke-linejoin: miter"/>
    </defs>
    <g clip-path="url(#p9197442885)">
     <use xlink:href="#m3afcc73298" x="78.73009" y="323.020109" style="fill: #ffffff; fill-opacity: 0.7; stroke: #008000; stroke-opacity: 0.7; stroke-width: 0.75; stroke-linejoin: miter"/>
     <use xlink:href="#m3afcc73298" x="90.159554" y="290.560385" style="fill: #ffffff; fill-opacity: 0.7; stroke: #008000; stroke-opacity: 0.7; stroke-width: 0.75; stroke-linejoin: miter"/>
     <use xlink:href="#m3afcc73298" x="101.589019" y="254.422287" style="fill: #ffffff; fill-opacity: 0.7; stroke: #008000; stroke-opacity: 0.7; stroke-width: 0.75; stroke-linejoin: miter"/>
     <use xlink:href="#m3afcc73298" x="113.018483" y="247.662547" style="fill: #ffffff; fill-opacity: 0.7; stroke: #008000; stroke-opacity: 0.7; stroke-width: 0.75; stroke-linejoin: miter"/>
     <use xlink:href="#m3afcc73298" x="124.447948" y="243.558812" style="fill: #ffffff; fill-opacity: 0.7; stroke: #008000; stroke-opacity: 0.7; stroke-width: 0.75; stroke-linejoin: miter"/>
     <use xlink:href="#m3afcc73298" x="135.877412" y="228.542578" style="fill: #ffffff; fill-opacity: 0.7; stroke: #008000; stroke-opacity: 0.7; stroke-width: 0.75; stroke-linejoin: miter"/>
     <use xlink:href="#m3afcc73298" x="147.306877" y="227.851134" style="fill: #ffffff; fill-opacity: 0.7; stroke: #008000; stroke-opacity: 0.7; stroke-width: 0.75; stroke-linejoin: miter"/>
     <use xlink:href="#m3afcc73298" x="158.736341" y="219.270286" style="fill: #ffffff; fill-opacity: 0.7; stroke: #008000; stroke-opacity: 0.7; stroke-width: 0.75; stroke-linejoin: miter"/>
     <use xlink:href="#m3afcc73298" x="170.165806" y="216.730305" style="fill: #ffffff; fill-opacity: 0.7; stroke: #008000; stroke-opacity: 0.7; stroke-width: 0.75; stroke-linejoin: miter"/>
     <use xlink:href="#m3afcc73298" x="181.59527" y="216.154018" style="fill: #ffffff; fill-opacity: 0.7; stroke: #008000; stroke-opacity: 0.7; stroke-width: 0.75; stroke-linejoin: miter"/>
     <use xlink:href="#m3afcc73298" x="193.024735" y="202.121403" style="fill: #ffffff; fill-opacity: 0.7; stroke: #008000; stroke-opacity: 0.7; stroke-width: 0.75; stroke-linejoin: miter"/>
     <use xlink:href="#m3afcc73298" x="204.454199" y="198.360378" style="fill: #ffffff; fill-opacity: 0.7; stroke: #008000; stroke-opacity: 0.7; stroke-width: 0.75; stroke-linejoin: miter"/>
     <use xlink:href="#m3afcc73298" x="215.883664" y="193.481028" style="fill: #ffffff; fill-opacity: 0.7; stroke: #008000; stroke-opacity: 0.7; stroke-width: 0.75; stroke-linejoin: miter"/>
     <use xlink:href="#m3afcc73298" x="227.313128" y="189.041632" style="fill: #ffffff; fill-opacity: 0.7; stroke: #008000; stroke-opacity: 0.7; stroke-width: 0.75; stroke-linejoin: miter"/>
     <use xlink:href="#m3afcc73298" x="238.742593" y="184.318887" style="fill: #ffffff; fill-opacity: 0.7; stroke: #008000; stroke-opacity: 0.7; stroke-width: 0.75; stroke-linejoin: miter"/>
     <use xlink:href="#m3afcc73298" x="250.172057" y="184.209939" style="fill: #ffffff; fill-opacity: 0.7; stroke: #008000; stroke-opacity: 0.7; stroke-width: 0.75; stroke-linejoin: miter"/>
     <use xlink:href="#m3afcc73298" x="261.601522" y="177.783753" style="fill: #ffffff; fill-opacity: 0.7; stroke: #008000; stroke-opacity: 0.7; stroke-width: 0.75; stroke-linejoin: miter"/>
     <use xlink:href="#m3afcc73298" x="273.030986" y="172.918512" style="fill: #ffffff; fill-opacity: 0.7; stroke: #008000; stroke-opacity: 0.7; stroke-width: 0.75; stroke-linejoin: miter"/>
     <use xlink:href="#m3afcc73298" x="284.460451" y="166.604392" style="fill: #ffffff; fill-opacity: 0.7; stroke: #008000; stroke-opacity: 0.7; stroke-width: 0.75; stroke-linejoin: miter"/>
     <use xlink:href="#m3afcc73298" x="295.889915" y="159.775674" style="fill: #ffffff; fill-opacity: 0.7; stroke: #008000; stroke-opacity: 0.7; stroke-width: 0.75; stroke-linejoin: miter"/>
     <use xlink:href="#m3afcc73298" x="307.31938" y="158.103992" style="fill: #ffffff; fill-opacity: 0.7; stroke: #008000; stroke-opacity: 0.7; stroke-width: 0.75; stroke-linejoin: miter"/>
     <use xlink:href="#m3afcc73298" x="318.748844" y="155.391863" style="fill: #ffffff; fill-opacity: 0.7; stroke: #008000; stroke-opacity: 0.7; stroke-width: 0.75; stroke-linejoin: miter"/>
     <use xlink:href="#m3afcc73298" x="330.178309" y="151.767418" style="fill: #ffffff; fill-opacity: 0.7; stroke: #008000; stroke-opacity: 0.7; stroke-width: 0.75; stroke-linejoin: miter"/>
     <use xlink:href="#m3afcc73298" x="341.607773" y="148.636672" style="fill: #ffffff; fill-opacity: 0.7; stroke: #008000; stroke-opacity: 0.7; stroke-width: 0.75; stroke-linejoin: miter"/>
     <use xlink:href="#m3afcc73298" x="353.037238" y="144.228036" style="fill: #ffffff; fill-opacity: 0.7; stroke: #008000; stroke-opacity: 0.7; stroke-width: 0.75; stroke-linejoin: miter"/>
     <use xlink:href="#m3afcc73298" x="364.466702" y="143.631477" style="fill: #ffffff; fill-opacity: 0.7; stroke: #008000; stroke-opacity: 0.7; stroke-width: 0.75; stroke-linejoin: miter"/>
     <use xlink:href="#m3afcc73298" x="375.896167" y="142.615201" style="fill: #ffffff; fill-opacity: 0.7; stroke: #008000; stroke-opacity: 0.7; stroke-width: 0.75; stroke-linejoin: miter"/>
     <use xlink:href="#m3afcc73298" x="387.325631" y="138.791444" style="fill: #ffffff; fill-opacity: 0.7; stroke: #008000; stroke-opacity: 0.7; stroke-width: 0.75; stroke-linejoin: miter"/>
     <use xlink:href="#m3afcc73298" x="398.755096" y="130.365119" style="fill: #ffffff; fill-opacity: 0.7; stroke: #008000; stroke-opacity: 0.7; stroke-width: 0.75; stroke-linejoin: miter"/>
     <use xlink:href="#m3afcc73298" x="410.18456" y="126.533737" style="fill: #ffffff; fill-opacity: 0.7; stroke: #008000; stroke-opacity: 0.7; stroke-width: 0.75; stroke-linejoin: miter"/>
     <use xlink:href="#m3afcc73298" x="421.614025" y="106.953975" style="fill: #ffffff; fill-opacity: 0.7; stroke: #008000; stroke-opacity: 0.7; stroke-width: 0.75; stroke-linejoin: miter"/>
     <use xlink:href="#m3afcc73298" x="433.043489" y="103.717263" style="fill: #ffffff; fill-opacity: 0.7; stroke: #008000; stroke-opacity: 0.7; stroke-width: 0.75; stroke-linejoin: miter"/>
     <use xlink:href="#m3afcc73298" x="444.472954" y="99.61147" style="fill: #ffffff; fill-opacity: 0.7; stroke: #008000; stroke-opacity: 0.7; stroke-width: 0.75; stroke-linejoin: miter"/>
     <use xlink:href="#m3afcc73298" x="455.902418" y="94.878224" style="fill: #ffffff; fill-opacity: 0.7; stroke: #008000; stroke-opacity: 0.7; stroke-width: 0.75; stroke-linejoin: miter"/>
     <use xlink:href="#m3afcc73298" x="467.331883" y="93.851347" style="fill: #ffffff; fill-opacity: 0.7; stroke: #008000; stroke-opacity: 0.7; stroke-width: 0.75; stroke-linejoin: miter"/>
     <use xlink:href="#m3afcc73298" x="478.761347" y="88.705575" style="fill: #ffffff; fill-opacity: 0.7; stroke: #008000; stroke-opacity: 0.7; stroke-width: 0.75; stroke-linejoin: miter"/>
     <use xlink:href="#m3afcc73298" x="490.190812" y="88.047707" style="fill: #ffffff; fill-opacity: 0.7; stroke: #008000; stroke-opacity: 0.7; stroke-width: 0.75; stroke-linejoin: miter"/>
     <use xlink:href="#m3afcc73298" x="501.620276" y="85.706765" style="fill: #ffffff; fill-opacity: 0.7; stroke: #008000; stroke-opacity: 0.7; stroke-width: 0.75; stroke-linejoin: miter"/>
     <use xlink:href="#m3afcc73298" x="513.049741" y="69.265997" style="fill: #ffffff; fill-opacity: 0.7; stroke: #008000; stroke-opacity: 0.7; stroke-width: 0.75; stroke-linejoin: miter"/>
     <use xlink:href="#m3afcc73298" x="524.479205" y="47.965496" style="fill: #ffffff; fill-opacity: 0.7; stroke: #008000; stroke-opacity: 0.7; stroke-width: 0.75; stroke-linejoin: miter"/>
     <use xlink:href="#m3afcc73298" x="535.90867" y="46.441439" style="fill: #ffffff; fill-opacity: 0.7; stroke: #008000; stroke-opacity: 0.7; stroke-width: 0.75; stroke-linejoin: miter"/>
     <use xlink:href="#m3afcc73298" x="547.338134" y="43.007899" style="fill: #ffffff; fill-opacity: 0.7; stroke: #008000; stroke-opacity: 0.7; stroke-width: 0.75; stroke-linejoin: miter"/>
     <use xlink:href="#m3afcc73298" x="558.767599" y="22.123538" style="fill: #ffffff; fill-opacity: 0.7; stroke: #008000; stroke-opacity: 0.7; stroke-width: 0.75; stroke-linejoin: miter"/>
     <use xlink:href="#m3afcc73298" x="570.197063" y="14.023197" style="fill: #ffffff; fill-opacity: 0.7; stroke: #008000; stroke-opacity: 0.7; stroke-width: 0.75; stroke-linejoin: miter"/>
     <use xlink:href="#m3afcc73298" x="581.626528" y="7.728873" style="fill: #ffffff; fill-opacity: 0.7; stroke: #008000; stroke-opacity: 0.7; stroke-width: 0.75; stroke-linejoin: miter"/>
    </g>
   </g>
   <g id="legend_1">
    <g id="patch_7">
     <path d="M 485.681215 316.020109 
L 571.026528 316.020109 
Q 574.626528 316.020109 574.626528 312.420109 
L 574.626528 287.799484 
Q 574.626528 284.199484 571.026528 284.199484 
L 485.681215 284.199484 
Q 482.081215 284.199484 482.081215 287.799484 
L 482.081215 312.420109 
Q 482.081215 316.020109 485.681215 316.020109 
z
" style="fill: #4d4d4d; opacity: 0.5; stroke: #4d4d4d; stroke-linejoin: miter"/>
    </g>
    <g id="patch_8">
     <path d="M 483.681215 314.020109 
L 569.026528 314.020109 
Q 572.626528 314.020109 572.626528 310.420109 
L 572.626528 285.799484 
Q 572.626528 282.199484 569.026528 282.199484 
L 483.681215 282.199484 
Q 480.081215 282.199484 480.081215 285.799484 
L 480.081215 310.420109 
Q 480.081215 314.020109 483.681215 314.020109 
z
" style="fill: #ffffff; stroke: #000000; stroke-linejoin: miter"/>
    </g>
    <g id="line2d_60">
     <path d="M 487.281215 296.776672 
L 505.281215 296.776672 
L 523.281215 296.776672 
" style="fill: none; stroke-dasharray: 3.7,1.6; stroke-dashoffset: 0; stroke: #008000; stroke-opacity: 0.7"/>
     <g>
      <use xlink:href="#m3afcc73298" x="505.281215" y="296.776672" style="fill: #ffffff; fill-opacity: 0.7; stroke: #008000; stroke-opacity: 0.7; stroke-width: 0.75; stroke-linejoin: miter"/>
     </g>
    </g>
    <g id="text_17">
     <!-- full -->
     <g transform="translate(537.681215 303.076672) scale(0.18 -0.18)">
      <defs>
       <path id="DejaVuSans-66" d="M 2375 4863 
L 2375 4384 
L 1825 4384 
Q 1516 4384 1395 4259 
Q 1275 4134 1275 3809 
L 1275 3500 
L 2222 3500 
L 2222 3053 
L 1275 3053 
L 1275 0 
L 697 0 
L 697 3053 
L 147 3053 
L 147 3500 
L 697 3500 
L 697 3744 
Q 697 4328 969 4595 
Q 1241 4863 1831 4863 
L 2375 4863 
z
" transform="scale(0.015625)"/>
       <path id="DejaVuSans-75" d="M 544 1381 
L 544 3500 
L 1119 3500 
L 1119 1403 
Q 1119 906 1312 657 
Q 1506 409 1894 409 
Q 2359 409 2629 706 
Q 2900 1003 2900 1516 
L 2900 3500 
L 3475 3500 
L 3475 0 
L 2900 0 
L 2900 538 
Q 2691 219 2414 64 
Q 2138 -91 1772 -91 
Q 1169 -91 856 284 
Q 544 659 544 1381 
z
M 1991 3584 
L 1991 3584 
z
" transform="scale(0.015625)"/>
       <path id="DejaVuSans-6c" d="M 603 4863 
L 1178 4863 
L 1178 0 
L 603 0 
L 603 4863 
z
" transform="scale(0.015625)"/>
      </defs>
      <use xlink:href="#DejaVuSans-66"/>
      <use xlink:href="#DejaVuSans-75" x="35.205078"/>
      <use xlink:href="#DejaVuSans-6c" x="98.583984"/>
      <use xlink:href="#DejaVuSans-6c" x="126.367188"/>
     </g>
    </g>
   </g>
  </g>
 </g>
 <defs>
  <clipPath id="p9197442885">
   <rect x="67.300625" y="7.2" width="514.325903" height="315.820109"/>
  </clipPath>
 </defs>
</svg>
