<?xml version="1.0" encoding="utf-8" standalone="no"?>
<!DOCTYPE svg PUBLIC "-//W3C//DTD SVG 1.1//EN"
  "http://www.w3.org/Graphics/SVG/1.1/DTD/svg11.dtd">
<svg xmlns:xlink="http://www.w3.org/1999/xlink" width="610.899028pt" height="376.061359pt" viewBox="0 0 610.899028 376.061359" xmlns="http://www.w3.org/2000/svg" version="1.1">
 <metadata>
  <rdf:RDF xmlns:dc="http://purl.org/dc/elements/1.1/" xmlns:cc="http://creativecommons.org/ns#" xmlns:rdf="http://www.w3.org/1999/02/22-rdf-syntax-ns#">
   <cc:Work>
    <dc:type rdf:resource="http://purl.org/dc/dcmitype/StillImage"/>
    <dc:date>2024-02-19T08:45:47.545174</dc:date>
    <dc:format>image/svg+xml</dc:format>
    <dc:creator>
     <cc:Agent>
      <dc:title>Matplotlib v3.8.0, https://matplotlib.org/</dc:title>
     </cc:Agent>
    </dc:creator>
   </cc:Work>
  </rdf:RDF>
 </metadata>
 <defs>
  <style type="text/css">*{stroke-linejoin: round; stroke-linecap: butt}</style>
 </defs>
 <g id="figure_1">
  <g id="patch_1">
   <path d="M 0 376.061359 
L 610.899028 376.061359 
L 610.899028 0 
L 0 0 
z
" style="fill: #ffffff"/>
  </g>
  <g id="axes_1">
   <g id="patch_2">
    <path d="M 77.920625 323.020109 
L 592.246528 323.020109 
L 592.246528 7.2 
L 77.920625 7.2 
z
" style="fill: #ffffff"/>
   </g>
   <g id="matplotlib.axis_1">
    <g id="xtick_1">
     <g id="line2d_1">
      <path d="M 77.920625 323.020109 
L 77.920625 7.2 
" clip-path="url(#p8049770395)" style="fill: none; stroke-dasharray: 1,1.65; stroke-dashoffset: 0; stroke: #000000"/>
     </g>
     <g id="line2d_2">
      <defs>
       <path id="m2cd2709e1b" d="M 0 0 
L 0 3.5 
" style="stroke: #000000; stroke-width: 0.8"/>
      </defs>
      <g>
       <use xlink:href="#m2cd2709e1b" x="77.920625" y="323.020109" style="stroke: #000000; stroke-width: 0.8"/>
      </g>
     </g>
     <g id="text_1">
      <!-- 0 -->
      <g transform="translate(72.194375 343.697297) scale(0.18 -0.18)">
       <defs>
        <path id="DejaVuSans-30" d="M 2034 4250 
Q 1547 4250 1301 3770 
Q 1056 3291 1056 2328 
Q 1056 1369 1301 889 
Q 1547 409 2034 409 
Q 2525 409 2770 889 
Q 3016 1369 3016 2328 
Q 3016 3291 2770 3770 
Q 2525 4250 2034 4250 
z
M 2034 4750 
Q 2819 4750 3233 4129 
Q 3647 3509 3647 2328 
Q 3647 1150 3233 529 
Q 2819 -91 2034 -91 
Q 1250 -91 836 529 
Q 422 1150 422 2328 
Q 422 3509 836 4129 
Q 1250 4750 2034 4750 
z
" transform="scale(0.015625)"/>
       </defs>
       <use xlink:href="#DejaVuSans-30"/>
      </g>
     </g>
    </g>
    <g id="xtick_2">
     <g id="line2d_3">
      <path d="M 163.641609 323.020109 
L 163.641609 7.2 
" clip-path="url(#p8049770395)" style="fill: none; stroke-dasharray: 1,1.65; stroke-dashoffset: 0; stroke: #000000"/>
     </g>
     <g id="line2d_4">
      <g>
       <use xlink:href="#m2cd2709e1b" x="163.641609" y="323.020109" style="stroke: #000000; stroke-width: 0.8"/>
      </g>
     </g>
     <g id="text_2">
      <!-- 10 -->
      <g transform="translate(152.189109 343.697297) scale(0.18 -0.18)">
       <defs>
        <path id="DejaVuSans-31" d="M 794 531 
L 1825 531 
L 1825 4091 
L 703 3866 
L 703 4441 
L 1819 4666 
L 2450 4666 
L 2450 531 
L 3481 531 
L 3481 0 
L 794 0 
L 794 531 
z
" transform="scale(0.015625)"/>
       </defs>
       <use xlink:href="#DejaVuSans-31"/>
       <use xlink:href="#DejaVuSans-30" x="63.623047"/>
      </g>
     </g>
    </g>
    <g id="xtick_3">
     <g id="line2d_5">
      <path d="M 249.362593 323.020109 
L 249.362593 7.2 
" clip-path="url(#p8049770395)" style="fill: none; stroke-dasharray: 1,1.65; stroke-dashoffset: 0; stroke: #000000"/>
     </g>
     <g id="line2d_6">
      <g>
       <use xlink:href="#m2cd2709e1b" x="249.362593" y="323.020109" style="stroke: #000000; stroke-width: 0.8"/>
      </g>
     </g>
     <g id="text_3">
      <!-- 20 -->
      <g transform="translate(237.910093 343.697297) scale(0.18 -0.18)">
       <defs>
        <path id="DejaVuSans-32" d="M 1228 531 
L 3431 531 
L 3431 0 
L 469 0 
L 469 531 
Q 828 903 1448 1529 
Q 2069 2156 2228 2338 
Q 2531 2678 2651 2914 
Q 2772 3150 2772 3378 
Q 2772 3750 2511 3984 
Q 2250 4219 1831 4219 
Q 1534 4219 1204 4116 
Q 875 4013 500 3803 
L 500 4441 
Q 881 4594 1212 4672 
Q 1544 4750 1819 4750 
Q 2544 4750 2975 4387 
Q 3406 4025 3406 3419 
Q 3406 3131 3298 2873 
Q 3191 2616 2906 2266 
Q 2828 2175 2409 1742 
Q 1991 1309 1228 531 
z
" transform="scale(0.015625)"/>
       </defs>
       <use xlink:href="#DejaVuSans-32"/>
       <use xlink:href="#DejaVuSans-30" x="63.623047"/>
      </g>
     </g>
    </g>
    <g id="xtick_4">
     <g id="line2d_7">
      <path d="M 335.083576 323.020109 
L 335.083576 7.2 
" clip-path="url(#p8049770395)" style="fill: none; stroke-dasharray: 1,1.65; stroke-dashoffset: 0; stroke: #000000"/>
     </g>
     <g id="line2d_8">
      <g>
       <use xlink:href="#m2cd2709e1b" x="335.083576" y="323.020109" style="stroke: #000000; stroke-width: 0.8"/>
      </g>
     </g>
     <g id="text_4">
      <!-- 30 -->
      <g transform="translate(323.631076 343.697297) scale(0.18 -0.18)">
       <defs>
        <path id="DejaVuSans-33" d="M 2597 2516 
Q 3050 2419 3304 2112 
Q 3559 1806 3559 1356 
Q 3559 666 3084 287 
Q 2609 -91 1734 -91 
Q 1441 -91 1130 -33 
Q 819 25 488 141 
L 488 750 
Q 750 597 1062 519 
Q 1375 441 1716 441 
Q 2309 441 2620 675 
Q 2931 909 2931 1356 
Q 2931 1769 2642 2001 
Q 2353 2234 1838 2234 
L 1294 2234 
L 1294 2753 
L 1863 2753 
Q 2328 2753 2575 2939 
Q 2822 3125 2822 3475 
Q 2822 3834 2567 4026 
Q 2313 4219 1838 4219 
Q 1578 4219 1281 4162 
Q 984 4106 628 3988 
L 628 4550 
Q 988 4650 1302 4700 
Q 1616 4750 1894 4750 
Q 2613 4750 3031 4423 
Q 3450 4097 3450 3541 
Q 3450 3153 3228 2886 
Q 3006 2619 2597 2516 
z
" transform="scale(0.015625)"/>
       </defs>
       <use xlink:href="#DejaVuSans-33"/>
       <use xlink:href="#DejaVuSans-30" x="63.623047"/>
      </g>
     </g>
    </g>
    <g id="xtick_5">
     <g id="line2d_9">
      <path d="M 420.80456 323.020109 
L 420.80456 7.2 
" clip-path="url(#p8049770395)" style="fill: none; stroke-dasharray: 1,1.65; stroke-dashoffset: 0; stroke: #000000"/>
     </g>
     <g id="line2d_10">
      <g>
       <use xlink:href="#m2cd2709e1b" x="420.80456" y="323.020109" style="stroke: #000000; stroke-width: 0.8"/>
      </g>
     </g>
     <g id="text_5">
      <!-- 40 -->
      <g transform="translate(409.35206 343.697297) scale(0.18 -0.18)">
       <defs>
        <path id="DejaVuSans-34" d="M 2419 4116 
L 825 1625 
L 2419 1625 
L 2419 4116 
z
M 2253 4666 
L 3047 4666 
L 3047 1625 
L 3713 1625 
L 3713 1100 
L 3047 1100 
L 3047 0 
L 2419 0 
L 2419 1100 
L 313 1100 
L 313 1709 
L 2253 4666 
z
" transform="scale(0.015625)"/>
       </defs>
       <use xlink:href="#DejaVuSans-34"/>
       <use xlink:href="#DejaVuSans-30" x="63.623047"/>
      </g>
     </g>
    </g>
    <g id="xtick_6">
     <g id="line2d_11">
      <path d="M 506.525544 323.020109 
L 506.525544 7.2 
" clip-path="url(#p8049770395)" style="fill: none; stroke-dasharray: 1,1.65; stroke-dashoffset: 0; stroke: #000000"/>
     </g>
     <g id="line2d_12">
      <g>
       <use xlink:href="#m2cd2709e1b" x="506.525544" y="323.020109" style="stroke: #000000; stroke-width: 0.8"/>
      </g>
     </g>
     <g id="text_6">
      <!-- 50 -->
      <g transform="translate(495.073044 343.697297) scale(0.18 -0.18)">
       <defs>
        <path id="DejaVuSans-35" d="M 691 4666 
L 3169 4666 
L 3169 4134 
L 1269 4134 
L 1269 2991 
Q 1406 3038 1543 3061 
Q 1681 3084 1819 3084 
Q 2600 3084 3056 2656 
Q 3513 2228 3513 1497 
Q 3513 744 3044 326 
Q 2575 -91 1722 -91 
Q 1428 -91 1123 -41 
Q 819 9 494 109 
L 494 744 
Q 775 591 1075 516 
Q 1375 441 1709 441 
Q 2250 441 2565 725 
Q 2881 1009 2881 1497 
Q 2881 1984 2565 2268 
Q 2250 2553 1709 2553 
Q 1456 2553 1204 2497 
Q 953 2441 691 2322 
L 691 4666 
z
" transform="scale(0.015625)"/>
       </defs>
       <use xlink:href="#DejaVuSans-35"/>
       <use xlink:href="#DejaVuSans-30" x="63.623047"/>
      </g>
     </g>
    </g>
    <g id="xtick_7">
     <g id="line2d_13">
      <path d="M 592.246528 323.020109 
L 592.246528 7.2 
" clip-path="url(#p8049770395)" style="fill: none; stroke-dasharray: 1,1.65; stroke-dashoffset: 0; stroke: #000000"/>
     </g>
     <g id="line2d_14">
      <g>
       <use xlink:href="#m2cd2709e1b" x="592.246528" y="323.020109" style="stroke: #000000; stroke-width: 0.8"/>
      </g>
     </g>
     <g id="text_7">
      <!-- 60 -->
      <g transform="translate(580.794028 343.697297) scale(0.18 -0.18)">
       <defs>
        <path id="DejaVuSans-36" d="M 2113 2584 
Q 1688 2584 1439 2293 
Q 1191 2003 1191 1497 
Q 1191 994 1439 701 
Q 1688 409 2113 409 
Q 2538 409 2786 701 
Q 3034 994 3034 1497 
Q 3034 2003 2786 2293 
Q 2538 2584 2113 2584 
z
M 3366 4563 
L 3366 3988 
Q 3128 4100 2886 4159 
Q 2644 4219 2406 4219 
Q 1781 4219 1451 3797 
Q 1122 3375 1075 2522 
Q 1259 2794 1537 2939 
Q 1816 3084 2150 3084 
Q 2853 3084 3261 2657 
Q 3669 2231 3669 1497 
Q 3669 778 3244 343 
Q 2819 -91 2113 -91 
Q 1303 -91 875 529 
Q 447 1150 447 2328 
Q 447 3434 972 4092 
Q 1497 4750 2381 4750 
Q 2619 4750 2861 4703 
Q 3103 4656 3366 4563 
z
" transform="scale(0.015625)"/>
       </defs>
       <use xlink:href="#DejaVuSans-36"/>
       <use xlink:href="#DejaVuSans-30" x="63.623047"/>
      </g>
     </g>
    </g>
    <g id="text_8">
     <!-- instances -->
     <g transform="translate(292.268889 365.117922) scale(0.18 -0.18)">
      <defs>
       <path id="DejaVuSans-69" d="M 603 3500 
L 1178 3500 
L 1178 0 
L 603 0 
L 603 3500 
z
M 603 4863 
L 1178 4863 
L 1178 4134 
L 603 4134 
L 603 4863 
z
" transform="scale(0.015625)"/>
       <path id="DejaVuSans-6e" d="M 3513 2113 
L 3513 0 
L 2938 0 
L 2938 2094 
Q 2938 2591 2744 2837 
Q 2550 3084 2163 3084 
Q 1697 3084 1428 2787 
Q 1159 2491 1159 1978 
L 1159 0 
L 581 0 
L 581 3500 
L 1159 3500 
L 1159 2956 
Q 1366 3272 1645 3428 
Q 1925 3584 2291 3584 
Q 2894 3584 3203 3211 
Q 3513 2838 3513 2113 
z
" transform="scale(0.015625)"/>
       <path id="DejaVuSans-73" d="M 2834 3397 
L 2834 2853 
Q 2591 2978 2328 3040 
Q 2066 3103 1784 3103 
Q 1356 3103 1142 2972 
Q 928 2841 928 2578 
Q 928 2378 1081 2264 
Q 1234 2150 1697 2047 
L 1894 2003 
Q 2506 1872 2764 1633 
Q 3022 1394 3022 966 
Q 3022 478 2636 193 
Q 2250 -91 1575 -91 
Q 1294 -91 989 -36 
Q 684 19 347 128 
L 347 722 
Q 666 556 975 473 
Q 1284 391 1588 391 
Q 1994 391 2212 530 
Q 2431 669 2431 922 
Q 2431 1156 2273 1281 
Q 2116 1406 1581 1522 
L 1381 1569 
Q 847 1681 609 1914 
Q 372 2147 372 2553 
Q 372 3047 722 3315 
Q 1072 3584 1716 3584 
Q 2034 3584 2315 3537 
Q 2597 3491 2834 3397 
z
" transform="scale(0.015625)"/>
       <path id="DejaVuSans-74" d="M 1172 4494 
L 1172 3500 
L 2356 3500 
L 2356 3053 
L 1172 3053 
L 1172 1153 
Q 1172 725 1289 603 
Q 1406 481 1766 481 
L 2356 481 
L 2356 0 
L 1766 0 
Q 1100 0 847 248 
Q 594 497 594 1153 
L 594 3053 
L 172 3053 
L 172 3500 
L 594 3500 
L 594 4494 
L 1172 4494 
z
" transform="scale(0.015625)"/>
       <path id="DejaVuSans-61" d="M 2194 1759 
Q 1497 1759 1228 1600 
Q 959 1441 959 1056 
Q 959 750 1161 570 
Q 1363 391 1709 391 
Q 2188 391 2477 730 
Q 2766 1069 2766 1631 
L 2766 1759 
L 2194 1759 
z
M 3341 1997 
L 3341 0 
L 2766 0 
L 2766 531 
Q 2569 213 2275 61 
Q 1981 -91 1556 -91 
Q 1019 -91 701 211 
Q 384 513 384 1019 
Q 384 1609 779 1909 
Q 1175 2209 1959 2209 
L 2766 2209 
L 2766 2266 
Q 2766 2663 2505 2880 
Q 2244 3097 1772 3097 
Q 1472 3097 1187 3025 
Q 903 2953 641 2809 
L 641 3341 
Q 956 3463 1253 3523 
Q 1550 3584 1831 3584 
Q 2591 3584 2966 3190 
Q 3341 2797 3341 1997 
z
" transform="scale(0.015625)"/>
       <path id="DejaVuSans-63" d="M 3122 3366 
L 3122 2828 
Q 2878 2963 2633 3030 
Q 2388 3097 2138 3097 
Q 1578 3097 1268 2742 
Q 959 2388 959 1747 
Q 959 1106 1268 751 
Q 1578 397 2138 397 
Q 2388 397 2633 464 
Q 2878 531 3122 666 
L 3122 134 
Q 2881 22 2623 -34 
Q 2366 -91 2075 -91 
Q 1284 -91 818 406 
Q 353 903 353 1747 
Q 353 2603 823 3093 
Q 1294 3584 2113 3584 
Q 2378 3584 2631 3529 
Q 2884 3475 3122 3366 
z
" transform="scale(0.015625)"/>
       <path id="DejaVuSans-65" d="M 3597 1894 
L 3597 1613 
L 953 1613 
Q 991 1019 1311 708 
Q 1631 397 2203 397 
Q 2534 397 2845 478 
Q 3156 559 3463 722 
L 3463 178 
Q 3153 47 2828 -22 
Q 2503 -91 2169 -91 
Q 1331 -91 842 396 
Q 353 884 353 1716 
Q 353 2575 817 3079 
Q 1281 3584 2069 3584 
Q 2775 3584 3186 3129 
Q 3597 2675 3597 1894 
z
M 3022 2063 
Q 3016 2534 2758 2815 
Q 2500 3097 2075 3097 
Q 1594 3097 1305 2825 
Q 1016 2553 972 2059 
L 3022 2063 
z
" transform="scale(0.015625)"/>
      </defs>
      <use xlink:href="#DejaVuSans-69"/>
      <use xlink:href="#DejaVuSans-6e" x="27.783203"/>
      <use xlink:href="#DejaVuSans-73" x="91.162109"/>
      <use xlink:href="#DejaVuSans-74" x="143.261719"/>
      <use xlink:href="#DejaVuSans-61" x="182.470703"/>
      <use xlink:href="#DejaVuSans-6e" x="243.75"/>
      <use xlink:href="#DejaVuSans-63" x="307.128906"/>
      <use xlink:href="#DejaVuSans-65" x="362.109375"/>
      <use xlink:href="#DejaVuSans-73" x="423.632812"/>
     </g>
    </g>
   </g>
   <g id="matplotlib.axis_2">
    <g id="ytick_1">
     <g id="line2d_15">
      <path d="M 77.920625 258.67357 
L 592.246528 258.67357 
" clip-path="url(#p8049770395)" style="fill: none; stroke-dasharray: 1,1.65; stroke-dashoffset: 0; stroke: #000000"/>
     </g>
     <g id="line2d_16">
      <defs>
       <path id="m3c996412dc" d="M 0 0 
L -3.5 0 
" style="stroke: #000000; stroke-width: 0.8"/>
      </defs>
      <g>
       <use xlink:href="#m3c996412dc" x="77.920625" y="258.67357" style="stroke: #000000; stroke-width: 0.8"/>
      </g>
     </g>
     <g id="text_9">
      <!-- $\mathdefault{10^{-1}}$ -->
      <g transform="translate(28.620625 265.512164) scale(0.18 -0.18)">
       <defs>
        <path id="DejaVuSans-2212" d="M 678 2272 
L 4684 2272 
L 4684 1741 
L 678 1741 
L 678 2272 
z
" transform="scale(0.015625)"/>
       </defs>
       <use xlink:href="#DejaVuSans-31" transform="translate(0 0.684375)"/>
       <use xlink:href="#DejaVuSans-30" transform="translate(63.623047 0.684375)"/>
       <use xlink:href="#DejaVuSans-2212" transform="translate(128.203125 38.965625) scale(0.7)"/>
       <use xlink:href="#DejaVuSans-31" transform="translate(186.855469 38.965625) scale(0.7)"/>
      </g>
     </g>
    </g>
    <g id="ytick_2">
     <g id="line2d_17">
      <path d="M 77.920625 167.547418 
L 592.246528 167.547418 
" clip-path="url(#p8049770395)" style="fill: none; stroke-dasharray: 1,1.65; stroke-dashoffset: 0; stroke: #000000"/>
     </g>
     <g id="line2d_18">
      <g>
       <use xlink:href="#m3c996412dc" x="77.920625" y="167.547418" style="stroke: #000000; stroke-width: 0.8"/>
      </g>
     </g>
     <g id="text_10">
      <!-- $\mathdefault{10^{0}}$ -->
      <g transform="translate(39.240625 174.386012) scale(0.18 -0.18)">
       <use xlink:href="#DejaVuSans-31" transform="translate(0 0.765625)"/>
       <use xlink:href="#DejaVuSans-30" transform="translate(63.623047 0.765625)"/>
       <use xlink:href="#DejaVuSans-30" transform="translate(128.203125 39.046875) scale(0.7)"/>
      </g>
     </g>
    </g>
    <g id="ytick_3">
     <g id="line2d_19">
      <path d="M 77.920625 76.421266 
L 592.246528 76.421266 
" clip-path="url(#p8049770395)" style="fill: none; stroke-dasharray: 1,1.65; stroke-dashoffset: 0; stroke: #000000"/>
     </g>
     <g id="line2d_20">
      <g>
       <use xlink:href="#m3c996412dc" x="77.920625" y="76.421266" style="stroke: #000000; stroke-width: 0.8"/>
      </g>
     </g>
     <g id="text_11">
      <!-- $\mathdefault{10^{1}}$ -->
      <g transform="translate(39.240625 83.25986) scale(0.18 -0.18)">
       <use xlink:href="#DejaVuSans-31" transform="translate(0 0.684375)"/>
       <use xlink:href="#DejaVuSans-30" transform="translate(63.623047 0.684375)"/>
       <use xlink:href="#DejaVuSans-31" transform="translate(128.203125 38.965625) scale(0.7)"/>
      </g>
     </g>
    </g>
    <g id="ytick_4">
     <g id="line2d_21">
      <defs>
       <path id="m56fd8a2975" d="M 0 0 
L -2 0 
" style="stroke: #000000; stroke-width: 0.6"/>
      </defs>
      <g>
       <use xlink:href="#m56fd8a2975" x="77.920625" y="322.368017" style="stroke: #000000; stroke-width: 0.6"/>
      </g>
     </g>
    </g>
    <g id="ytick_5">
     <g id="line2d_22">
      <g>
       <use xlink:href="#m56fd8a2975" x="77.920625" y="306.321498" style="stroke: #000000; stroke-width: 0.6"/>
      </g>
     </g>
    </g>
    <g id="ytick_6">
     <g id="line2d_23">
      <g>
       <use xlink:href="#m56fd8a2975" x="77.920625" y="294.936312" style="stroke: #000000; stroke-width: 0.6"/>
      </g>
     </g>
    </g>
    <g id="ytick_7">
     <g id="line2d_24">
      <g>
       <use xlink:href="#m56fd8a2975" x="77.920625" y="286.105276" style="stroke: #000000; stroke-width: 0.6"/>
      </g>
     </g>
    </g>
    <g id="ytick_8">
     <g id="line2d_25">
      <g>
       <use xlink:href="#m56fd8a2975" x="77.920625" y="278.889793" style="stroke: #000000; stroke-width: 0.6"/>
      </g>
     </g>
    </g>
    <g id="ytick_9">
     <g id="line2d_26">
      <g>
       <use xlink:href="#m56fd8a2975" x="77.920625" y="272.78919" style="stroke: #000000; stroke-width: 0.6"/>
      </g>
     </g>
    </g>
    <g id="ytick_10">
     <g id="line2d_27">
      <g>
       <use xlink:href="#m56fd8a2975" x="77.920625" y="267.504607" style="stroke: #000000; stroke-width: 0.6"/>
      </g>
     </g>
    </g>
    <g id="ytick_11">
     <g id="line2d_28">
      <g>
       <use xlink:href="#m56fd8a2975" x="77.920625" y="262.843274" style="stroke: #000000; stroke-width: 0.6"/>
      </g>
     </g>
    </g>
    <g id="ytick_12">
     <g id="line2d_29">
      <g>
       <use xlink:href="#m56fd8a2975" x="77.920625" y="231.241865" style="stroke: #000000; stroke-width: 0.6"/>
      </g>
     </g>
    </g>
    <g id="ytick_13">
     <g id="line2d_30">
      <g>
       <use xlink:href="#m56fd8a2975" x="77.920625" y="215.195346" style="stroke: #000000; stroke-width: 0.6"/>
      </g>
     </g>
    </g>
    <g id="ytick_14">
     <g id="line2d_31">
      <g>
       <use xlink:href="#m56fd8a2975" x="77.920625" y="203.81016" style="stroke: #000000; stroke-width: 0.6"/>
      </g>
     </g>
    </g>
    <g id="ytick_15">
     <g id="line2d_32">
      <g>
       <use xlink:href="#m56fd8a2975" x="77.920625" y="194.979123" style="stroke: #000000; stroke-width: 0.6"/>
      </g>
     </g>
    </g>
    <g id="ytick_16">
     <g id="line2d_33">
      <g>
       <use xlink:href="#m56fd8a2975" x="77.920625" y="187.763641" style="stroke: #000000; stroke-width: 0.6"/>
      </g>
     </g>
    </g>
    <g id="ytick_17">
     <g id="line2d_34">
      <g>
       <use xlink:href="#m56fd8a2975" x="77.920625" y="181.663038" style="stroke: #000000; stroke-width: 0.6"/>
      </g>
     </g>
    </g>
    <g id="ytick_18">
     <g id="line2d_35">
      <g>
       <use xlink:href="#m56fd8a2975" x="77.920625" y="176.378455" style="stroke: #000000; stroke-width: 0.6"/>
      </g>
     </g>
    </g>
    <g id="ytick_19">
     <g id="line2d_36">
      <g>
       <use xlink:href="#m56fd8a2975" x="77.920625" y="171.717122" style="stroke: #000000; stroke-width: 0.6"/>
      </g>
     </g>
    </g>
    <g id="ytick_20">
     <g id="line2d_37">
      <g>
       <use xlink:href="#m56fd8a2975" x="77.920625" y="140.115713" style="stroke: #000000; stroke-width: 0.6"/>
      </g>
     </g>
    </g>
    <g id="ytick_21">
     <g id="line2d_38">
      <g>
       <use xlink:href="#m56fd8a2975" x="77.920625" y="124.069194" style="stroke: #000000; stroke-width: 0.6"/>
      </g>
     </g>
    </g>
    <g id="ytick_22">
     <g id="line2d_39">
      <g>
       <use xlink:href="#m56fd8a2975" x="77.920625" y="112.684008" style="stroke: #000000; stroke-width: 0.6"/>
      </g>
     </g>
    </g>
    <g id="ytick_23">
     <g id="line2d_40">
      <g>
       <use xlink:href="#m56fd8a2975" x="77.920625" y="103.852971" style="stroke: #000000; stroke-width: 0.6"/>
      </g>
     </g>
    </g>
    <g id="ytick_24">
     <g id="line2d_41">
      <g>
       <use xlink:href="#m56fd8a2975" x="77.920625" y="96.637489" style="stroke: #000000; stroke-width: 0.6"/>
      </g>
     </g>
    </g>
    <g id="ytick_25">
     <g id="line2d_42">
      <g>
       <use xlink:href="#m56fd8a2975" x="77.920625" y="90.536886" style="stroke: #000000; stroke-width: 0.6"/>
      </g>
     </g>
    </g>
    <g id="ytick_26">
     <g id="line2d_43">
      <g>
       <use xlink:href="#m56fd8a2975" x="77.920625" y="85.252303" style="stroke: #000000; stroke-width: 0.6"/>
      </g>
     </g>
    </g>
    <g id="ytick_27">
     <g id="line2d_44">
      <g>
       <use xlink:href="#m56fd8a2975" x="77.920625" y="80.59097" style="stroke: #000000; stroke-width: 0.6"/>
      </g>
     </g>
    </g>
    <g id="ytick_28">
     <g id="line2d_45">
      <g>
       <use xlink:href="#m56fd8a2975" x="77.920625" y="48.989561" style="stroke: #000000; stroke-width: 0.6"/>
      </g>
     </g>
    </g>
    <g id="ytick_29">
     <g id="line2d_46">
      <g>
       <use xlink:href="#m56fd8a2975" x="77.920625" y="32.943042" style="stroke: #000000; stroke-width: 0.6"/>
      </g>
     </g>
    </g>
    <g id="ytick_30">
     <g id="line2d_47">
      <g>
       <use xlink:href="#m56fd8a2975" x="77.920625" y="21.557856" style="stroke: #000000; stroke-width: 0.6"/>
      </g>
     </g>
    </g>
    <g id="ytick_31">
     <g id="line2d_48">
      <g>
       <use xlink:href="#m56fd8a2975" x="77.920625" y="12.726819" style="stroke: #000000; stroke-width: 0.6"/>
      </g>
     </g>
    </g>
    <g id="text_12">
     <!-- Run time (s) -->
     <g transform="translate(20.877188 220.130992) rotate(-90) scale(0.18 -0.18)">
      <defs>
       <path id="DejaVuSans-52" d="M 2841 2188 
Q 3044 2119 3236 1894 
Q 3428 1669 3622 1275 
L 4263 0 
L 3584 0 
L 2988 1197 
Q 2756 1666 2539 1819 
Q 2322 1972 1947 1972 
L 1259 1972 
L 1259 0 
L 628 0 
L 628 4666 
L 2053 4666 
Q 2853 4666 3247 4331 
Q 3641 3997 3641 3322 
Q 3641 2881 3436 2590 
Q 3231 2300 2841 2188 
z
M 1259 4147 
L 1259 2491 
L 2053 2491 
Q 2509 2491 2742 2702 
Q 2975 2913 2975 3322 
Q 2975 3731 2742 3939 
Q 2509 4147 2053 4147 
L 1259 4147 
z
" transform="scale(0.015625)"/>
       <path id="DejaVuSans-75" d="M 544 1381 
L 544 3500 
L 1119 3500 
L 1119 1403 
Q 1119 906 1312 657 
Q 1506 409 1894 409 
Q 2359 409 2629 706 
Q 2900 1003 2900 1516 
L 2900 3500 
L 3475 3500 
L 3475 0 
L 2900 0 
L 2900 538 
Q 2691 219 2414 64 
Q 2138 -91 1772 -91 
Q 1169 -91 856 284 
Q 544 659 544 1381 
z
M 1991 3584 
L 1991 3584 
z
" transform="scale(0.015625)"/>
       <path id="DejaVuSans-20" transform="scale(0.015625)"/>
       <path id="DejaVuSans-6d" d="M 3328 2828 
Q 3544 3216 3844 3400 
Q 4144 3584 4550 3584 
Q 5097 3584 5394 3201 
Q 5691 2819 5691 2113 
L 5691 0 
L 5113 0 
L 5113 2094 
Q 5113 2597 4934 2840 
Q 4756 3084 4391 3084 
Q 3944 3084 3684 2787 
Q 3425 2491 3425 1978 
L 3425 0 
L 2847 0 
L 2847 2094 
Q 2847 2600 2669 2842 
Q 2491 3084 2119 3084 
Q 1678 3084 1418 2786 
Q 1159 2488 1159 1978 
L 1159 0 
L 581 0 
L 581 3500 
L 1159 3500 
L 1159 2956 
Q 1356 3278 1631 3431 
Q 1906 3584 2284 3584 
Q 2666 3584 2933 3390 
Q 3200 3197 3328 2828 
z
" transform="scale(0.015625)"/>
       <path id="DejaVuSans-28" d="M 1984 4856 
Q 1566 4138 1362 3434 
Q 1159 2731 1159 2009 
Q 1159 1288 1364 580 
Q 1569 -128 1984 -844 
L 1484 -844 
Q 1016 -109 783 600 
Q 550 1309 550 2009 
Q 550 2706 781 3412 
Q 1013 4119 1484 4856 
L 1984 4856 
z
" transform="scale(0.015625)"/>
       <path id="DejaVuSans-29" d="M 513 4856 
L 1013 4856 
Q 1481 4119 1714 3412 
Q 1947 2706 1947 2009 
Q 1947 1309 1714 600 
Q 1481 -109 1013 -844 
L 513 -844 
Q 928 -128 1133 580 
Q 1338 1288 1338 2009 
Q 1338 2731 1133 3434 
Q 928 4138 513 4856 
z
" transform="scale(0.015625)"/>
      </defs>
      <use xlink:href="#DejaVuSans-52"/>
      <use xlink:href="#DejaVuSans-75" x="64.982422"/>
      <use xlink:href="#DejaVuSans-6e" x="128.361328"/>
      <use xlink:href="#DejaVuSans-20" x="191.740234"/>
      <use xlink:href="#DejaVuSans-74" x="223.527344"/>
      <use xlink:href="#DejaVuSans-69" x="262.736328"/>
      <use xlink:href="#DejaVuSans-6d" x="290.519531"/>
      <use xlink:href="#DejaVuSans-65" x="387.931641"/>
      <use xlink:href="#DejaVuSans-20" x="449.455078"/>
      <use xlink:href="#DejaVuSans-28" x="481.242188"/>
      <use xlink:href="#DejaVuSans-73" x="520.255859"/>
      <use xlink:href="#DejaVuSans-29" x="572.355469"/>
     </g>
    </g>
   </g>
   <g id="patch_3">
    <path d="M 77.920625 323.020109 
L 77.920625 7.2 
" style="fill: none; stroke: #000000; stroke-linejoin: miter; stroke-linecap: square"/>
   </g>
   <g id="patch_4">
    <path d="M 592.246528 323.020109 
L 592.246528 7.2 
" style="fill: none; stroke: #000000; stroke-linejoin: miter; stroke-linecap: square"/>
   </g>
   <g id="patch_5">
    <path d="M 77.920625 323.020109 
L 592.246528 323.020109 
" style="fill: none; stroke: #000000; stroke-linejoin: miter; stroke-linecap: square"/>
   </g>
   <g id="patch_6">
    <path d="M 77.920625 7.2 
L 592.246528 7.2 
" style="fill: none; stroke: #000000; stroke-linejoin: miter; stroke-linecap: square"/>
   </g>
   <g id="line2d_49">
    <path d="M 86.492723 323.020109 
L 95.064822 318.014817 
L 103.63692 317.568961 
L 112.209019 316.788474 
L 120.781117 316.192869 
L 129.353215 313.036567 
L 137.925314 308.747251 
L 146.497412 305.087159 
L 155.06951 304.144147 
L 163.641609 303.841242 
L 172.213707 303.778295 
L 180.785806 301.778039 
L 189.357904 300.697583 
L 197.930002 293.924312 
L 206.502101 293.732295 
L 215.074199 290.197944 
L 223.646297 289.713922 
L 232.218396 288.299874 
L 240.790494 283.570419 
L 249.362593 280.99837 
L 257.934691 276.797289 
L 266.506789 276.572837 
L 275.078888 262.636958 
L 283.650986 259.327083 
L 292.223085 248.302009 
L 300.795183 243.881748 
L 309.367281 238.666516 
L 317.93938 230.188575 
L 326.511478 229.935698 
L 335.083576 219.232002 
L 343.655675 218.310182 
L 352.227773 216.268544 
L 360.799872 215.852694 
L 369.37197 210.616285 
L 377.944068 200.136398 
L 386.516167 199.29507 
L 395.088265 198.533567 
L 403.660363 190.854269 
L 412.232462 189.79454 
L 420.80456 188.056984 
L 429.376659 187.851289 
L 437.948757 187.666302 
L 446.520855 186.816103 
L 455.092954 185.887718 
L 463.665052 177.949968 
L 472.237151 177.737735 
L 480.809249 176.159169 
L 489.381347 175.143549 
L 497.953446 159.079874 
L 506.525544 153.452297 
L 515.097642 150.534749 
L 523.669741 146.994605 
L 532.241839 145.055346 
L 540.813938 138.745829 
L 549.386036 134.312631 
L 557.958134 122.91217 
L 566.530233 90.822411 
L 575.102331 87.839747 
" clip-path="url(#p8049770395)" style="fill: none; stroke-dasharray: 3.7,1.6; stroke-dashoffset: 0; stroke: #008000; stroke-opacity: 0.7"/>
    <defs>
     <path id="m0d616d3cf6" d="M 0 -2.5 
L -2.5 2.5 
L 2.5 2.5 
z
" style="stroke: #008000; stroke-opacity: 0.7; stroke-width: 0.75; stroke-linejoin: miter"/>
    </defs>
    <g clip-path="url(#p8049770395)">
     <use xlink:href="#m0d616d3cf6" x="86.492723" y="323.020109" style="fill: #ffffff; fill-opacity: 0.7; stroke: #008000; stroke-opacity: 0.7; stroke-width: 0.75; stroke-linejoin: miter"/>
     <use xlink:href="#m0d616d3cf6" x="95.064822" y="318.014817" style="fill: #ffffff; fill-opacity: 0.7; stroke: #008000; stroke-opacity: 0.7; stroke-width: 0.75; stroke-linejoin: miter"/>
     <use xlink:href="#m0d616d3cf6" x="103.63692" y="317.568961" style="fill: #ffffff; fill-opacity: 0.7; stroke: #008000; stroke-opacity: 0.7; stroke-width: 0.75; stroke-linejoin: miter"/>
     <use xlink:href="#m0d616d3cf6" x="112.209019" y="316.788474" style="fill: #ffffff; fill-opacity: 0.7; stroke: #008000; stroke-opacity: 0.7; stroke-width: 0.75; stroke-linejoin: miter"/>
     <use xlink:href="#m0d616d3cf6" x="120.781117" y="316.192869" style="fill: #ffffff; fill-opacity: 0.7; stroke: #008000; stroke-opacity: 0.7; stroke-width: 0.75; stroke-linejoin: miter"/>
     <use xlink:href="#m0d616d3cf6" x="129.353215" y="313.036567" style="fill: #ffffff; fill-opacity: 0.7; stroke: #008000; stroke-opacity: 0.7; stroke-width: 0.75; stroke-linejoin: miter"/>
     <use xlink:href="#m0d616d3cf6" x="137.925314" y="308.747251" style="fill: #ffffff; fill-opacity: 0.7; stroke: #008000; stroke-opacity: 0.7; stroke-width: 0.75; stroke-linejoin: miter"/>
     <use xlink:href="#m0d616d3cf6" x="146.497412" y="305.087159" style="fill: #ffffff; fill-opacity: 0.7; stroke: #008000; stroke-opacity: 0.7; stroke-width: 0.75; stroke-linejoin: miter"/>
     <use xlink:href="#m0d616d3cf6" x="155.06951" y="304.144147" style="fill: #ffffff; fill-opacity: 0.7; stroke: #008000; stroke-opacity: 0.7; stroke-width: 0.75; stroke-linejoin: miter"/>
     <use xlink:href="#m0d616d3cf6" x="163.641609" y="303.841242" style="fill: #ffffff; fill-opacity: 0.7; stroke: #008000; stroke-opacity: 0.7; stroke-width: 0.75; stroke-linejoin: miter"/>
     <use xlink:href="#m0d616d3cf6" x="172.213707" y="303.778295" style="fill: #ffffff; fill-opacity: 0.7; stroke: #008000; stroke-opacity: 0.7; stroke-width: 0.75; stroke-linejoin: miter"/>
     <use xlink:href="#m0d616d3cf6" x="180.785806" y="301.778039" style="fill: #ffffff; fill-opacity: 0.7; stroke: #008000; stroke-opacity: 0.7; stroke-width: 0.75; stroke-linejoin: miter"/>
     <use xlink:href="#m0d616d3cf6" x="189.357904" y="300.697583" style="fill: #ffffff; fill-opacity: 0.7; stroke: #008000; stroke-opacity: 0.7; stroke-width: 0.75; stroke-linejoin: miter"/>
     <use xlink:href="#m0d616d3cf6" x="197.930002" y="293.924312" style="fill: #ffffff; fill-opacity: 0.7; stroke: #008000; stroke-opacity: 0.7; stroke-width: 0.75; stroke-linejoin: miter"/>
     <use xlink:href="#m0d616d3cf6" x="206.502101" y="293.732295" style="fill: #ffffff; fill-opacity: 0.7; stroke: #008000; stroke-opacity: 0.7; stroke-width: 0.75; stroke-linejoin: miter"/>
     <use xlink:href="#m0d616d3cf6" x="215.074199" y="290.197944" style="fill: #ffffff; fill-opacity: 0.7; stroke: #008000; stroke-opacity: 0.7; stroke-width: 0.75; stroke-linejoin: miter"/>
     <use xlink:href="#m0d616d3cf6" x="223.646297" y="289.713922" style="fill: #ffffff; fill-opacity: 0.7; stroke: #008000; stroke-opacity: 0.7; stroke-width: 0.75; stroke-linejoin: miter"/>
     <use xlink:href="#m0d616d3cf6" x="232.218396" y="288.299874" style="fill: #ffffff; fill-opacity: 0.7; stroke: #008000; stroke-opacity: 0.7; stroke-width: 0.75; stroke-linejoin: miter"/>
     <use xlink:href="#m0d616d3cf6" x="240.790494" y="283.570419" style="fill: #ffffff; fill-opacity: 0.7; stroke: #008000; stroke-opacity: 0.7; stroke-width: 0.75; stroke-linejoin: miter"/>
     <use xlink:href="#m0d616d3cf6" x="249.362593" y="280.99837" style="fill: #ffffff; fill-opacity: 0.7; stroke: #008000; stroke-opacity: 0.7; stroke-width: 0.75; stroke-linejoin: miter"/>
     <use xlink:href="#m0d616d3cf6" x="257.934691" y="276.797289" style="fill: #ffffff; fill-opacity: 0.7; stroke: #008000; stroke-opacity: 0.7; stroke-width: 0.75; stroke-linejoin: miter"/>
     <use xlink:href="#m0d616d3cf6" x="266.506789" y="276.572837" style="fill: #ffffff; fill-opacity: 0.7; stroke: #008000; stroke-opacity: 0.7; stroke-width: 0.75; stroke-linejoin: miter"/>
     <use xlink:href="#m0d616d3cf6" x="275.078888" y="262.636958" style="fill: #ffffff; fill-opacity: 0.7; stroke: #008000; stroke-opacity: 0.7; stroke-width: 0.75; stroke-linejoin: miter"/>
     <use xlink:href="#m0d616d3cf6" x="283.650986" y="259.327083" style="fill: #ffffff; fill-opacity: 0.7; stroke: #008000; stroke-opacity: 0.7; stroke-width: 0.75; stroke-linejoin: miter"/>
     <use xlink:href="#m0d616d3cf6" x="292.223085" y="248.302009" style="fill: #ffffff; fill-opacity: 0.7; stroke: #008000; stroke-opacity: 0.7; stroke-width: 0.75; stroke-linejoin: miter"/>
     <use xlink:href="#m0d616d3cf6" x="300.795183" y="243.881748" style="fill: #ffffff; fill-opacity: 0.7; stroke: #008000; stroke-opacity: 0.7; stroke-width: 0.75; stroke-linejoin: miter"/>
     <use xlink:href="#m0d616d3cf6" x="309.367281" y="238.666516" style="fill: #ffffff; fill-opacity: 0.7; stroke: #008000; stroke-opacity: 0.7; stroke-width: 0.75; stroke-linejoin: miter"/>
     <use xlink:href="#m0d616d3cf6" x="317.93938" y="230.188575" style="fill: #ffffff; fill-opacity: 0.7; stroke: #008000; stroke-opacity: 0.7; stroke-width: 0.75; stroke-linejoin: miter"/>
     <use xlink:href="#m0d616d3cf6" x="326.511478" y="229.935698" style="fill: #ffffff; fill-opacity: 0.7; stroke: #008000; stroke-opacity: 0.7; stroke-width: 0.75; stroke-linejoin: miter"/>
     <use xlink:href="#m0d616d3cf6" x="335.083576" y="219.232002" style="fill: #ffffff; fill-opacity: 0.7; stroke: #008000; stroke-opacity: 0.7; stroke-width: 0.75; stroke-linejoin: miter"/>
     <use xlink:href="#m0d616d3cf6" x="343.655675" y="218.310182" style="fill: #ffffff; fill-opacity: 0.7; stroke: #008000; stroke-opacity: 0.7; stroke-width: 0.75; stroke-linejoin: miter"/>
     <use xlink:href="#m0d616d3cf6" x="352.227773" y="216.268544" style="fill: #ffffff; fill-opacity: 0.7; stroke: #008000; stroke-opacity: 0.7; stroke-width: 0.75; stroke-linejoin: miter"/>
     <use xlink:href="#m0d616d3cf6" x="360.799872" y="215.852694" style="fill: #ffffff; fill-opacity: 0.7; stroke: #008000; stroke-opacity: 0.7; stroke-width: 0.75; stroke-linejoin: miter"/>
     <use xlink:href="#m0d616d3cf6" x="369.37197" y="210.616285" style="fill: #ffffff; fill-opacity: 0.7; stroke: #008000; stroke-opacity: 0.7; stroke-width: 0.75; stroke-linejoin: miter"/>
     <use xlink:href="#m0d616d3cf6" x="377.944068" y="200.136398" style="fill: #ffffff; fill-opacity: 0.7; stroke: #008000; stroke-opacity: 0.7; stroke-width: 0.75; stroke-linejoin: miter"/>
     <use xlink:href="#m0d616d3cf6" x="386.516167" y="199.29507" style="fill: #ffffff; fill-opacity: 0.7; stroke: #008000; stroke-opacity: 0.7; stroke-width: 0.75; stroke-linejoin: miter"/>
     <use xlink:href="#m0d616d3cf6" x="395.088265" y="198.533567" style="fill: #ffffff; fill-opacity: 0.7; stroke: #008000; stroke-opacity: 0.7; stroke-width: 0.75; stroke-linejoin: miter"/>
     <use xlink:href="#m0d616d3cf6" x="403.660363" y="190.854269" style="fill: #ffffff; fill-opacity: 0.7; stroke: #008000; stroke-opacity: 0.7; stroke-width: 0.75; stroke-linejoin: miter"/>
     <use xlink:href="#m0d616d3cf6" x="412.232462" y="189.79454" style="fill: #ffffff; fill-opacity: 0.7; stroke: #008000; stroke-opacity: 0.7; stroke-width: 0.75; stroke-linejoin: miter"/>
     <use xlink:href="#m0d616d3cf6" x="420.80456" y="188.056984" style="fill: #ffffff; fill-opacity: 0.7; stroke: #008000; stroke-opacity: 0.7; stroke-width: 0.75; stroke-linejoin: miter"/>
     <use xlink:href="#m0d616d3cf6" x="429.376659" y="187.851289" style="fill: #ffffff; fill-opacity: 0.7; stroke: #008000; stroke-opacity: 0.7; stroke-width: 0.75; stroke-linejoin: miter"/>
     <use xlink:href="#m0d616d3cf6" x="437.948757" y="187.666302" style="fill: #ffffff; fill-opacity: 0.7; stroke: #008000; stroke-opacity: 0.7; stroke-width: 0.75; stroke-linejoin: miter"/>
     <use xlink:href="#m0d616d3cf6" x="446.520855" y="186.816103" style="fill: #ffffff; fill-opacity: 0.7; stroke: #008000; stroke-opacity: 0.7; stroke-width: 0.75; stroke-linejoin: miter"/>
     <use xlink:href="#m0d616d3cf6" x="455.092954" y="185.887718" style="fill: #ffffff; fill-opacity: 0.7; stroke: #008000; stroke-opacity: 0.7; stroke-width: 0.75; stroke-linejoin: miter"/>
     <use xlink:href="#m0d616d3cf6" x="463.665052" y="177.949968" style="fill: #ffffff; fill-opacity: 0.7; stroke: #008000; stroke-opacity: 0.7; stroke-width: 0.75; stroke-linejoin: miter"/>
     <use xlink:href="#m0d616d3cf6" x="472.237151" y="177.737735" style="fill: #ffffff; fill-opacity: 0.7; stroke: #008000; stroke-opacity: 0.7; stroke-width: 0.75; stroke-linejoin: miter"/>
     <use xlink:href="#m0d616d3cf6" x="480.809249" y="176.159169" style="fill: #ffffff; fill-opacity: 0.7; stroke: #008000; stroke-opacity: 0.7; stroke-width: 0.75; stroke-linejoin: miter"/>
     <use xlink:href="#m0d616d3cf6" x="489.381347" y="175.143549" style="fill: #ffffff; fill-opacity: 0.7; stroke: #008000; stroke-opacity: 0.7; stroke-width: 0.75; stroke-linejoin: miter"/>
     <use xlink:href="#m0d616d3cf6" x="497.953446" y="159.079874" style="fill: #ffffff; fill-opacity: 0.7; stroke: #008000; stroke-opacity: 0.7; stroke-width: 0.75; stroke-linejoin: miter"/>
     <use xlink:href="#m0d616d3cf6" x="506.525544" y="153.452297" style="fill: #ffffff; fill-opacity: 0.7; stroke: #008000; stroke-opacity: 0.7; stroke-width: 0.75; stroke-linejoin: miter"/>
     <use xlink:href="#m0d616d3cf6" x="515.097642" y="150.534749" style="fill: #ffffff; fill-opacity: 0.7; stroke: #008000; stroke-opacity: 0.7; stroke-width: 0.75; stroke-linejoin: miter"/>
     <use xlink:href="#m0d616d3cf6" x="523.669741" y="146.994605" style="fill: #ffffff; fill-opacity: 0.7; stroke: #008000; stroke-opacity: 0.7; stroke-width: 0.75; stroke-linejoin: miter"/>
     <use xlink:href="#m0d616d3cf6" x="532.241839" y="145.055346" style="fill: #ffffff; fill-opacity: 0.7; stroke: #008000; stroke-opacity: 0.7; stroke-width: 0.75; stroke-linejoin: miter"/>
     <use xlink:href="#m0d616d3cf6" x="540.813938" y="138.745829" style="fill: #ffffff; fill-opacity: 0.7; stroke: #008000; stroke-opacity: 0.7; stroke-width: 0.75; stroke-linejoin: miter"/>
     <use xlink:href="#m0d616d3cf6" x="549.386036" y="134.312631" style="fill: #ffffff; fill-opacity: 0.7; stroke: #008000; stroke-opacity: 0.7; stroke-width: 0.75; stroke-linejoin: miter"/>
     <use xlink:href="#m0d616d3cf6" x="557.958134" y="122.91217" style="fill: #ffffff; fill-opacity: 0.7; stroke: #008000; stroke-opacity: 0.7; stroke-width: 0.75; stroke-linejoin: miter"/>
     <use xlink:href="#m0d616d3cf6" x="566.530233" y="90.822411" style="fill: #ffffff; fill-opacity: 0.7; stroke: #008000; stroke-opacity: 0.7; stroke-width: 0.75; stroke-linejoin: miter"/>
     <use xlink:href="#m0d616d3cf6" x="575.102331" y="87.839747" style="fill: #ffffff; fill-opacity: 0.7; stroke: #008000; stroke-opacity: 0.7; stroke-width: 0.75; stroke-linejoin: miter"/>
    </g>
   </g>
   <g id="legend_1">
    <g id="patch_7">
     <path d="M 486.842778 316.020109 
L 581.646528 316.020109 
Q 585.246528 316.020109 585.246528 312.420109 
L 585.246528 287.799484 
Q 585.246528 284.199484 581.646528 284.199484 
L 486.842778 284.199484 
Q 483.242778 284.199484 483.242778 287.799484 
L 483.242778 312.420109 
Q 483.242778 316.020109 486.842778 316.020109 
z
" style="fill: #4d4d4d; opacity: 0.5; stroke: #4d4d4d; stroke-linejoin: miter"/>
    </g>
    <g id="patch_8">
     <path d="M 484.842778 314.020109 
L 579.646528 314.020109 
Q 583.246528 314.020109 583.246528 310.420109 
L 583.246528 285.799484 
Q 583.246528 282.199484 579.646528 282.199484 
L 484.842778 282.199484 
Q 481.242778 282.199484 481.242778 285.799484 
L 481.242778 310.420109 
Q 481.242778 314.020109 484.842778 314.020109 
z
" style="fill: #ffffff; stroke: #000000; stroke-linejoin: miter"/>
    </g>
    <g id="line2d_50">
     <path d="M 488.442778 296.776672 
L 506.442778 296.776672 
L 524.442778 296.776672 
" style="fill: none; stroke-dasharray: 3.7,1.6; stroke-dashoffset: 0; stroke: #008000; stroke-opacity: 0.7"/>
     <g>
      <use xlink:href="#m0d616d3cf6" x="506.442778" y="296.776672" style="fill: #ffffff; fill-opacity: 0.7; stroke: #008000; stroke-opacity: 0.7; stroke-width: 0.75; stroke-linejoin: miter"/>
     </g>
    </g>
    <g id="text_13">
     <!-- new -->
     <g transform="translate(538.842778 303.076672) scale(0.18 -0.18)">
      <defs>
       <path id="DejaVuSans-77" d="M 269 3500 
L 844 3500 
L 1563 769 
L 2278 3500 
L 2956 3500 
L 3675 769 
L 4391 3500 
L 4966 3500 
L 4050 0 
L 3372 0 
L 2619 2869 
L 1863 0 
L 1184 0 
L 269 3500 
z
" transform="scale(0.015625)"/>
      </defs>
      <use xlink:href="#DejaVuSans-6e"/>
      <use xlink:href="#DejaVuSans-65" x="63.378906"/>
      <use xlink:href="#DejaVuSans-77" x="124.902344"/>
     </g>
    </g>
   </g>
  </g>
 </g>
 <defs>
  <clipPath id="p8049770395">
   <rect x="77.920625" y="7.2" width="514.325903" height="315.820109"/>
  </clipPath>
 </defs>
</svg>
