<?xml version="1.0" encoding="utf-8" standalone="no"?>
<!DOCTYPE svg PUBLIC "-//W3C//DTD SVG 1.1//EN"
  "http://www.w3.org/Graphics/SVG/1.1/DTD/svg11.dtd">
<svg xmlns:xlink="http://www.w3.org/1999/xlink" width="590.007778pt" height="373.743859pt" viewBox="0 0 590.007778 373.743859" xmlns="http://www.w3.org/2000/svg" version="1.1">
 <metadata>
  <rdf:RDF xmlns:dc="http://purl.org/dc/elements/1.1/" xmlns:cc="http://creativecommons.org/ns#" xmlns:rdf="http://www.w3.org/1999/02/22-rdf-syntax-ns#">
   <cc:Work>
    <dc:type rdf:resource="http://purl.org/dc/dcmitype/StillImage"/>
    <dc:date>2023-12-12T13:56:38.328157</dc:date>
    <dc:format>image/svg+xml</dc:format>
    <dc:creator>
     <cc:Agent>
      <dc:title>Matplotlib v3.7.0, https://matplotlib.org/</dc:title>
     </cc:Agent>
    </dc:creator>
   </cc:Work>
  </rdf:RDF>
 </metadata>
 <defs>
  <style type="text/css">*{stroke-linejoin: round; stroke-linecap: butt}</style>
 </defs>
 <g id="figure_1">
  <g id="patch_1">
   <path d="M 0 373.743859 
L 590.007778 373.743859 
L 590.007778 0 
L 0 0 
z
" style="fill: #ffffff"/>
  </g>
  <g id="axes_1">
   <g id="patch_2">
    <path d="M 59.481875 323.020109 
L 573.807778 323.020109 
L 573.807778 7.2 
L 59.481875 7.2 
z
" style="fill: #ffffff"/>
   </g>
   <g id="matplotlib.axis_1">
    <g id="xtick_1">
     <g id="line2d_1">
      <path d="M 59.481875 323.020109 
L 59.481875 7.2 
" clip-path="url(#p42ed3aeca7)" style="fill: none; stroke-dasharray: 1,1.65; stroke-dashoffset: 0; stroke: #000000"/>
     </g>
     <g id="line2d_2">
      <defs>
       <path id="mbc03e9b674" d="M 0 0 
L 0 3.5 
" style="stroke: #000000; stroke-width: 0.8"/>
      </defs>
      <g>
       <use xlink:href="#mbc03e9b674" x="59.481875" y="323.020109" style="stroke: #000000; stroke-width: 0.8"/>
      </g>
     </g>
     <g id="text_1">
      <!-- 0 -->
      <g transform="translate(54.981875 342.361359) scale(0.18 -0.18)">
       <defs>
        <path id="Times-Roman-30" d="M 1531 116 
Q 1991 116 2162 619 
Q 2334 1122 2334 2075 
Q 2334 2834 2231 3288 
Q 2038 4131 1506 4131 
Q 975 4131 778 3263 
Q 675 2800 675 2044 
Q 675 1334 781 909 
Q 981 116 1531 116 
z
M 1522 4300 
Q 2241 4300 2638 3547 
Q 2953 2938 2953 2147 
Q 2953 1525 2759 975 
Q 2394 -59 1494 -59 
Q 878 -59 481 500 
Q 56 1097 56 2122 
Q 56 2928 341 3509 
Q 725 4300 1522 4300 
z
" transform="scale(0.015625)"/>
       </defs>
       <use xlink:href="#Times-Roman-30"/>
      </g>
     </g>
    </g>
    <g id="xtick_2">
     <g id="line2d_3">
      <path d="M 132.957004 323.020109 
L 132.957004 7.2 
" clip-path="url(#p42ed3aeca7)" style="fill: none; stroke-dasharray: 1,1.65; stroke-dashoffset: 0; stroke: #000000"/>
     </g>
     <g id="line2d_4">
      <g>
       <use xlink:href="#mbc03e9b674" x="132.957004" y="323.020109" style="stroke: #000000; stroke-width: 0.8"/>
      </g>
     </g>
     <g id="text_2">
      <!-- 10 -->
      <g transform="translate(123.957004 342.361359) scale(0.18 -0.18)">
       <defs>
        <path id="Times-Roman-31" d="M 1894 4294 
Q 1906 4278 1907 4270 
Q 1909 4263 1909 4234 
L 1909 472 
Q 1909 231 2037 165 
Q 2166 100 2516 88 
L 2516 0 
L 753 0 
L 753 94 
Q 1131 113 1247 197 
Q 1363 281 1363 563 
L 1363 3456 
Q 1363 3606 1325 3684 
Q 1288 3763 1163 3763 
Q 1081 3763 951 3717 
Q 822 3672 709 3622 
L 709 3709 
L 1856 4294 
L 1894 4294 
z
" transform="scale(0.015625)"/>
       </defs>
       <use xlink:href="#Times-Roman-31"/>
       <use xlink:href="#Times-Roman-30" x="50"/>
      </g>
     </g>
    </g>
    <g id="xtick_3">
     <g id="line2d_5">
      <path d="M 206.432133 323.020109 
L 206.432133 7.2 
" clip-path="url(#p42ed3aeca7)" style="fill: none; stroke-dasharray: 1,1.65; stroke-dashoffset: 0; stroke: #000000"/>
     </g>
     <g id="line2d_6">
      <g>
       <use xlink:href="#mbc03e9b674" x="206.432133" y="323.020109" style="stroke: #000000; stroke-width: 0.8"/>
      </g>
     </g>
     <g id="text_3">
      <!-- 20 -->
      <g transform="translate(197.432133 342.361359) scale(0.18 -0.18)">
       <defs>
        <path id="Times-Roman-32" d="M 191 72 
Q 1334 1259 1743 1815 
Q 2153 2372 2153 2900 
Q 2153 3363 1903 3605 
Q 1653 3847 1306 3847 
Q 878 3847 613 3534 
Q 466 3363 331 3006 
L 197 3034 
Q 353 3753 726 4033 
Q 1100 4313 1528 4313 
Q 2056 4313 2382 3980 
Q 2709 3647 2709 3166 
Q 2709 2653 2356 2178 
Q 2003 1703 822 488 
L 2256 488 
Q 2556 488 2678 559 
Q 2800 631 2953 909 
L 3034 872 
L 2688 0 
L 191 0 
L 191 72 
z
" transform="scale(0.015625)"/>
       </defs>
       <use xlink:href="#Times-Roman-32"/>
       <use xlink:href="#Times-Roman-30" x="50"/>
      </g>
     </g>
    </g>
    <g id="xtick_4">
     <g id="line2d_7">
      <path d="M 279.907262 323.020109 
L 279.907262 7.2 
" clip-path="url(#p42ed3aeca7)" style="fill: none; stroke-dasharray: 1,1.65; stroke-dashoffset: 0; stroke: #000000"/>
     </g>
     <g id="line2d_8">
      <g>
       <use xlink:href="#mbc03e9b674" x="279.907262" y="323.020109" style="stroke: #000000; stroke-width: 0.8"/>
      </g>
     </g>
     <g id="text_4">
      <!-- 30 -->
      <g transform="translate(270.907262 342.361359) scale(0.18 -0.18)">
       <defs>
        <path id="Times-Roman-33" d="M 497 544 
Q 669 544 951 366 
Q 1234 188 1431 188 
Q 1869 188 2081 483 
Q 2294 778 2294 1125 
Q 2294 1459 2122 1713 
Q 1831 2141 1141 2141 
Q 1100 2141 1062 2139 
Q 1025 2138 975 2131 
L 969 2213 
Q 1469 2394 1756 2628 
Q 2044 2863 2044 3247 
Q 2044 3588 1817 3766 
Q 1591 3944 1300 3944 
Q 956 3944 694 3691 
Q 550 3553 384 3266 
L 288 3288 
Q 413 3763 753 4047 
Q 1094 4331 1541 4331 
Q 2019 4331 2280 4068 
Q 2541 3806 2541 3463 
Q 2541 3159 2325 2906 
Q 2203 2763 1947 2584 
Q 2247 2456 2428 2284 
Q 2769 1956 2769 1453 
Q 2769 859 2301 406 
Q 1834 -47 972 -47 
Q 588 -47 433 67 
Q 278 181 278 313 
Q 278 394 329 469 
Q 381 544 497 544 
z
" transform="scale(0.015625)"/>
       </defs>
       <use xlink:href="#Times-Roman-33"/>
       <use xlink:href="#Times-Roman-30" x="50"/>
      </g>
     </g>
    </g>
    <g id="xtick_5">
     <g id="line2d_9">
      <path d="M 353.382391 323.020109 
L 353.382391 7.2 
" clip-path="url(#p42ed3aeca7)" style="fill: none; stroke-dasharray: 1,1.65; stroke-dashoffset: 0; stroke: #000000"/>
     </g>
     <g id="line2d_10">
      <g>
       <use xlink:href="#mbc03e9b674" x="353.382391" y="323.020109" style="stroke: #000000; stroke-width: 0.8"/>
      </g>
     </g>
     <g id="text_5">
      <!-- 40 -->
      <g transform="translate(344.382391 342.361359) scale(0.18 -0.18)">
       <defs>
        <path id="Times-Roman-34" d="M 1866 3650 
L 331 1481 
L 1866 1481 
L 1866 3650 
z
M 2072 4294 
L 2369 4294 
L 2369 1481 
L 3022 1481 
L 3022 1066 
L 2369 1066 
L 2369 0 
L 1872 0 
L 1872 1066 
L 72 1066 
L 72 1481 
L 2072 4294 
z
" transform="scale(0.015625)"/>
       </defs>
       <use xlink:href="#Times-Roman-34"/>
       <use xlink:href="#Times-Roman-30" x="50"/>
      </g>
     </g>
    </g>
    <g id="xtick_6">
     <g id="line2d_11">
      <path d="M 426.85752 323.020109 
L 426.85752 7.2 
" clip-path="url(#p42ed3aeca7)" style="fill: none; stroke-dasharray: 1,1.65; stroke-dashoffset: 0; stroke: #000000"/>
     </g>
     <g id="line2d_12">
      <g>
       <use xlink:href="#mbc03e9b674" x="426.85752" y="323.020109" style="stroke: #000000; stroke-width: 0.8"/>
      </g>
     </g>
     <g id="text_6">
      <!-- 50 -->
      <g transform="translate(417.85752 342.361359) scale(0.18 -0.18)">
       <defs>
        <path id="Times-Roman-35" d="M 478 572 
Q 656 572 945 370 
Q 1234 169 1391 169 
Q 1750 169 2019 486 
Q 2288 803 2288 1266 
Q 2288 2075 1425 2431 
Q 947 2628 534 2628 
Q 466 2628 448 2633 
Q 431 2638 406 2666 
Q 413 2691 417 2708 
Q 422 2725 428 2741 
L 1109 4234 
L 2450 4234 
Q 2550 4234 2604 4268 
Q 2659 4303 2747 4397 
L 2797 4353 
L 2553 3775 
Q 2541 3747 2484 3739 
Q 2428 3731 2363 3731 
L 1153 3731 
L 888 3184 
Q 1400 3097 1638 3019 
Q 2028 2888 2291 2631 
Q 2516 2409 2631 2132 
Q 2747 1856 2747 1547 
Q 2747 856 2255 393 
Q 1763 -69 1009 -69 
Q 703 -69 516 -9 
Q 203 88 203 338 
Q 203 431 270 501 
Q 338 572 478 572 
z
" transform="scale(0.015625)"/>
       </defs>
       <use xlink:href="#Times-Roman-35"/>
       <use xlink:href="#Times-Roman-30" x="50"/>
      </g>
     </g>
    </g>
    <g id="xtick_7">
     <g id="line2d_13">
      <path d="M 500.332649 323.020109 
L 500.332649 7.2 
" clip-path="url(#p42ed3aeca7)" style="fill: none; stroke-dasharray: 1,1.65; stroke-dashoffset: 0; stroke: #000000"/>
     </g>
     <g id="line2d_14">
      <g>
       <use xlink:href="#mbc03e9b674" x="500.332649" y="323.020109" style="stroke: #000000; stroke-width: 0.8"/>
      </g>
     </g>
     <g id="text_7">
      <!-- 60 -->
      <g transform="translate(491.332649 342.361359) scale(0.18 -0.18)">
       <defs>
        <path id="Times-Roman-36" d="M 2994 1422 
Q 2994 850 2626 390 
Q 2259 -69 1672 -69 
Q 1122 -69 670 447 
Q 219 963 219 1819 
Q 219 2922 1094 3713 
Q 1875 4375 2850 4375 
L 2866 4272 
Q 2475 4200 2192 4076 
Q 1909 3953 1688 3731 
Q 1459 3506 1259 3159 
Q 1059 2813 984 2472 
Q 1178 2591 1319 2647 
Q 1569 2747 1822 2747 
Q 2319 2747 2656 2403 
Q 2994 2059 2994 1422 
z
M 2422 1181 
Q 2422 1597 2291 1919 
Q 2072 2456 1547 2456 
Q 1063 2456 903 2169 
Q 809 2000 809 1606 
Q 809 1097 1026 609 
Q 1244 122 1713 122 
Q 2084 122 2253 439 
Q 2422 756 2422 1181 
z
" transform="scale(0.015625)"/>
       </defs>
       <use xlink:href="#Times-Roman-36"/>
       <use xlink:href="#Times-Roman-30" x="50"/>
      </g>
     </g>
    </g>
    <g id="xtick_8">
     <g id="line2d_15">
      <path d="M 573.807778 323.020109 
L 573.807778 7.2 
" clip-path="url(#p42ed3aeca7)" style="fill: none; stroke-dasharray: 1,1.65; stroke-dashoffset: 0; stroke: #000000"/>
     </g>
     <g id="line2d_16">
      <g>
       <use xlink:href="#mbc03e9b674" x="573.807778" y="323.020109" style="stroke: #000000; stroke-width: 0.8"/>
      </g>
     </g>
     <g id="text_8">
      <!-- 70 -->
      <g transform="translate(564.807778 342.361359) scale(0.18 -0.18)">
       <defs>
        <path id="Times-Roman-37" d="M 2872 4234 
L 2872 4131 
L 1516 -59 
L 1103 -59 
L 2369 3763 
L 1006 3763 
Q 703 3763 570 3663 
Q 438 3563 234 3244 
L 125 3294 
Q 328 3794 376 3911 
Q 425 4028 503 4234 
L 2872 4234 
z
" transform="scale(0.015625)"/>
       </defs>
       <use xlink:href="#Times-Roman-37"/>
       <use xlink:href="#Times-Roman-30" x="50"/>
      </g>
     </g>
    </g>
    <g id="text_9">
     <!-- instances -->
     <g transform="translate(283.652795 362.623234) scale(0.18 -0.18)">
      <defs>
       <path id="Times-Roman-69" d="M 525 4034 
Q 525 4169 619 4266 
Q 713 4363 850 4363 
Q 984 4363 1079 4267 
Q 1175 4172 1175 4034 
Q 1175 3900 1079 3804 
Q 984 3709 850 3709 
Q 713 3709 619 3804 
Q 525 3900 525 4034 
z
M 125 88 
Q 459 119 546 201 
Q 634 284 634 650 
L 634 2141 
Q 634 2344 606 2422 
Q 559 2550 409 2550 
Q 375 2550 342 2544 
Q 309 2538 153 2494 
L 153 2591 
L 288 2634 
Q 834 2813 1050 2903 
Q 1138 2941 1163 2941 
Q 1169 2919 1169 2894 
L 1169 650 
Q 1169 294 1255 203 
Q 1341 113 1644 88 
L 1644 0 
L 125 0 
L 125 88 
z
" transform="scale(0.015625)"/>
       <path id="Times-Roman-6e" d="M 116 88 
Q 338 116 427 198 
Q 516 281 516 569 
L 516 2153 
Q 516 2353 478 2434 
Q 419 2553 234 2553 
Q 206 2553 176 2550 
Q 147 2547 103 2541 
L 103 2650 
Q 231 2688 709 2844 
L 1003 2941 
Q 1025 2941 1029 2925 
Q 1034 2909 1034 2881 
L 1034 2422 
Q 1322 2691 1484 2791 
Q 1728 2944 1991 2944 
Q 2203 2944 2378 2822 
Q 2716 2584 2716 1975 
L 2716 516 
Q 2716 291 2806 191 
Q 2897 91 3109 88 
L 3109 0 
L 1775 0 
L 1775 88 
Q 2003 119 2093 214 
Q 2184 309 2184 628 
L 2184 1963 
Q 2184 2231 2084 2407 
Q 1984 2584 1716 2584 
Q 1531 2584 1341 2459 
Q 1234 2388 1066 2222 
L 1066 472 
Q 1066 247 1166 170 
Q 1266 94 1481 88 
L 1481 0 
L 116 0 
L 116 88 
z
M 1603 2944 
L 1603 2944 
z
" transform="scale(0.015625)"/>
       <path id="Times-Roman-73" d="M 331 984 
L 434 984 
Q 506 628 628 438 
Q 847 88 1269 88 
Q 1503 88 1639 217 
Q 1775 347 1775 553 
Q 1775 684 1697 806 
Q 1619 928 1422 1044 
L 1072 1244 
Q 688 1450 506 1659 
Q 325 1869 325 2153 
Q 325 2503 575 2728 
Q 825 2953 1203 2953 
Q 1369 2953 1567 2890 
Q 1766 2828 1791 2828 
Q 1847 2828 1872 2843 
Q 1897 2859 1916 2894 
L 1991 2894 
L 2013 2022 
L 1916 2022 
Q 1853 2325 1747 2494 
Q 1553 2806 1188 2806 
Q 969 2806 844 2672 
Q 719 2538 719 2356 
Q 719 2069 1150 1844 
L 1563 1622 
Q 2228 1259 2228 778 
Q 2228 409 1951 175 
Q 1675 -59 1228 -59 
Q 1041 -59 803 3 
Q 566 66 522 66 
Q 484 66 456 39 
Q 428 13 413 -25 
L 331 -25 
L 331 984 
z
M 1247 2953 
L 1247 2953 
z
" transform="scale(0.015625)"/>
       <path id="Times-Roman-74" d="M 1628 2881 
L 1628 2656 
L 991 2656 
L 984 856 
Q 984 619 1025 497 
Q 1100 281 1319 281 
Q 1431 281 1514 334 
Q 1597 388 1703 503 
L 1784 434 
L 1716 341 
Q 1553 122 1372 31 
Q 1191 -59 1022 -59 
Q 653 -59 522 269 
Q 450 447 450 763 
L 450 2656 
L 109 2656 
Q 94 2666 86 2675 
Q 78 2684 78 2700 
Q 78 2731 92 2748 
Q 106 2766 181 2828 
Q 397 3006 492 3117 
Q 588 3228 941 3703 
Q 981 3703 989 3697 
Q 997 3691 997 3650 
L 997 2881 
L 1628 2881 
z
" transform="scale(0.015625)"/>
       <path id="Times-Roman-61" d="M 1834 1731 
Q 1475 1613 1241 1469 
Q 791 1191 791 838 
Q 791 553 978 419 
Q 1100 331 1250 331 
Q 1456 331 1645 447 
Q 1834 563 1834 741 
L 1834 1731 
z
M 234 622 
Q 234 1075 688 1378 
Q 975 1566 1834 1888 
L 1834 2153 
Q 1834 2472 1772 2597 
Q 1666 2806 1331 2806 
Q 1172 2806 1028 2725 
Q 884 2641 884 2494 
Q 884 2456 900 2367 
Q 916 2278 916 2253 
Q 916 2078 800 2009 
Q 734 1969 644 1969 
Q 503 1969 428 2061 
Q 353 2153 353 2266 
Q 353 2484 623 2723 
Q 894 2963 1416 2963 
Q 2022 2963 2238 2569 
Q 2353 2353 2353 1941 
L 2353 688 
Q 2353 506 2378 438 
Q 2419 316 2547 316 
Q 2619 316 2666 337 
Q 2713 359 2828 444 
L 2828 281 
Q 2728 159 2613 81 
Q 2438 -38 2256 -38 
Q 2044 -38 1948 100 
Q 1853 238 1844 428 
Q 1606 222 1438 122 
Q 1153 -47 897 -47 
Q 628 -47 431 142 
Q 234 331 234 622 
z
M 1425 2963 
L 1425 2963 
z
" transform="scale(0.015625)"/>
       <path id="Times-Roman-63" d="M 1591 2947 
Q 1981 2947 2264 2745 
Q 2547 2544 2547 2303 
Q 2547 2200 2475 2111 
Q 2403 2022 2253 2022 
Q 2144 2022 2061 2097 
Q 1978 2172 1941 2316 
L 1903 2466 
Q 1863 2631 1763 2700 
Q 1659 2766 1491 2766 
Q 1134 2766 889 2455 
Q 644 2144 644 1628 
Q 644 1156 914 781 
Q 1184 406 1644 406 
Q 1969 406 2222 619 
Q 2366 741 2547 1006 
L 2634 953 
Q 2456 578 2259 359 
Q 1881 -59 1384 -59 
Q 897 -59 522 325 
Q 147 709 147 1369 
Q 147 2016 556 2481 
Q 966 2947 1591 2947 
z
M 1453 2947 
L 1453 2947 
z
" transform="scale(0.015625)"/>
       <path id="Times-Roman-65" d="M 1466 2931 
Q 1906 2931 2237 2626 
Q 2569 2322 2569 1763 
L 584 1763 
Q 616 1038 912 706 
Q 1209 375 1616 375 
Q 1944 375 2169 547 
Q 2394 719 2584 1034 
L 2694 997 
Q 2566 600 2214 262 
Q 1863 -75 1353 -75 
Q 766 -75 445 369 
Q 125 813 125 1391 
Q 125 2019 497 2475 
Q 869 2931 1466 2931 
z
M 1284 2703 
Q 928 2703 741 2388 
Q 641 2219 597 1963 
L 1916 1963 
Q 1881 2275 1797 2428 
Q 1644 2703 1284 2703 
z
M 1425 2931 
L 1425 2931 
z
" transform="scale(0.015625)"/>
      </defs>
      <use xlink:href="#Times-Roman-69"/>
      <use xlink:href="#Times-Roman-6e" x="27.783203"/>
      <use xlink:href="#Times-Roman-73" x="77.783203"/>
      <use xlink:href="#Times-Roman-74" x="116.699219"/>
      <use xlink:href="#Times-Roman-61" x="144.482422"/>
      <use xlink:href="#Times-Roman-6e" x="188.867188"/>
      <use xlink:href="#Times-Roman-63" x="238.867188"/>
      <use xlink:href="#Times-Roman-65" x="283.251953"/>
      <use xlink:href="#Times-Roman-73" x="327.636719"/>
     </g>
    </g>
   </g>
   <g id="matplotlib.axis_2">
    <g id="ytick_1">
     <g id="line2d_17">
      <path d="M 59.481875 260.302376 
L 573.807778 260.302376 
" clip-path="url(#p42ed3aeca7)" style="fill: none; stroke-dasharray: 1,1.65; stroke-dashoffset: 0; stroke: #000000"/>
     </g>
     <g id="line2d_18">
      <defs>
       <path id="m10617a9463" d="M 0 0 
L -3.5 0 
" style="stroke: #000000; stroke-width: 0.8"/>
      </defs>
      <g>
       <use xlink:href="#m10617a9463" x="59.481875" y="260.302376" style="stroke: #000000; stroke-width: 0.8"/>
      </g>
     </g>
     <g id="text_10">
      <!-- $\mathdefault{10^{0}}$ -->
      <g transform="translate(27.461875 266.473001) scale(0.18 -0.18)">
       <use xlink:href="#Times-Roman-31" transform="translate(0 0.55625)"/>
       <use xlink:href="#Times-Roman-30" transform="translate(50 0.55625)"/>
       <use xlink:href="#Times-Roman-30" transform="translate(100.785313 31.96875) scale(0.7)"/>
      </g>
     </g>
    </g>
    <g id="ytick_2">
     <g id="line2d_19">
      <path d="M 59.481875 189.007789 
L 573.807778 189.007789 
" clip-path="url(#p42ed3aeca7)" style="fill: none; stroke-dasharray: 1,1.65; stroke-dashoffset: 0; stroke: #000000"/>
     </g>
     <g id="line2d_20">
      <g>
       <use xlink:href="#m10617a9463" x="59.481875" y="189.007789" style="stroke: #000000; stroke-width: 0.8"/>
      </g>
     </g>
     <g id="text_11">
      <!-- $\mathdefault{10^{1}}$ -->
      <g transform="translate(27.461875 195.178414) scale(0.18 -0.18)">
       <use xlink:href="#Times-Roman-31" transform="translate(0 0.621875)"/>
       <use xlink:href="#Times-Roman-30" transform="translate(50 0.621875)"/>
       <use xlink:href="#Times-Roman-31" transform="translate(100.785313 32.034375) scale(0.7)"/>
      </g>
     </g>
    </g>
    <g id="ytick_3">
     <g id="line2d_21">
      <path d="M 59.481875 117.713202 
L 573.807778 117.713202 
" clip-path="url(#p42ed3aeca7)" style="fill: none; stroke-dasharray: 1,1.65; stroke-dashoffset: 0; stroke: #000000"/>
     </g>
     <g id="line2d_22">
      <g>
       <use xlink:href="#m10617a9463" x="59.481875" y="117.713202" style="stroke: #000000; stroke-width: 0.8"/>
      </g>
     </g>
     <g id="text_12">
      <!-- $\mathdefault{10^{2}}$ -->
      <g transform="translate(27.461875 123.883827) scale(0.18 -0.18)">
       <use xlink:href="#Times-Roman-31" transform="translate(0 0.414062)"/>
       <use xlink:href="#Times-Roman-30" transform="translate(50 0.414062)"/>
       <use xlink:href="#Times-Roman-32" transform="translate(100.785313 31.826562) scale(0.7)"/>
      </g>
     </g>
    </g>
    <g id="ytick_4">
     <g id="line2d_23">
      <path d="M 59.481875 46.418615 
L 573.807778 46.418615 
" clip-path="url(#p42ed3aeca7)" style="fill: none; stroke-dasharray: 1,1.65; stroke-dashoffset: 0; stroke: #000000"/>
     </g>
     <g id="line2d_24">
      <g>
       <use xlink:href="#m10617a9463" x="59.481875" y="46.418615" style="stroke: #000000; stroke-width: 0.8"/>
      </g>
     </g>
     <g id="text_13">
      <!-- $\mathdefault{10^{3}}$ -->
      <g transform="translate(27.461875 52.58924) scale(0.18 -0.18)">
       <use xlink:href="#Times-Roman-31" transform="translate(0 0.217188)"/>
       <use xlink:href="#Times-Roman-30" transform="translate(50 0.217188)"/>
       <use xlink:href="#Times-Roman-33" transform="translate(100.785313 31.629688) scale(0.7)"/>
      </g>
     </g>
    </g>
    <g id="ytick_5">
     <g id="line2d_25">
      <defs>
       <path id="mfac908ad10" d="M 0 0 
L -2 0 
" style="stroke: #000000; stroke-width: 0.6"/>
      </defs>
      <g>
       <use xlink:href="#mfac908ad10" x="59.481875" y="310.135154" style="stroke: #000000; stroke-width: 0.6"/>
      </g>
     </g>
    </g>
    <g id="ytick_6">
     <g id="line2d_26">
      <g>
       <use xlink:href="#mfac908ad10" x="59.481875" y="297.5808" style="stroke: #000000; stroke-width: 0.6"/>
      </g>
     </g>
    </g>
    <g id="ytick_7">
     <g id="line2d_27">
      <g>
       <use xlink:href="#mfac908ad10" x="59.481875" y="288.673345" style="stroke: #000000; stroke-width: 0.6"/>
      </g>
     </g>
    </g>
    <g id="ytick_8">
     <g id="line2d_28">
      <g>
       <use xlink:href="#mfac908ad10" x="59.481875" y="281.764185" style="stroke: #000000; stroke-width: 0.6"/>
      </g>
     </g>
    </g>
    <g id="ytick_9">
     <g id="line2d_29">
      <g>
       <use xlink:href="#mfac908ad10" x="59.481875" y="276.118991" style="stroke: #000000; stroke-width: 0.6"/>
      </g>
     </g>
    </g>
    <g id="ytick_10">
     <g id="line2d_30">
      <g>
       <use xlink:href="#mfac908ad10" x="59.481875" y="271.346047" style="stroke: #000000; stroke-width: 0.6"/>
      </g>
     </g>
    </g>
    <g id="ytick_11">
     <g id="line2d_31">
      <g>
       <use xlink:href="#mfac908ad10" x="59.481875" y="267.211535" style="stroke: #000000; stroke-width: 0.6"/>
      </g>
     </g>
    </g>
    <g id="ytick_12">
     <g id="line2d_32">
      <g>
       <use xlink:href="#mfac908ad10" x="59.481875" y="263.564637" style="stroke: #000000; stroke-width: 0.6"/>
      </g>
     </g>
    </g>
    <g id="ytick_13">
     <g id="line2d_33">
      <g>
       <use xlink:href="#mfac908ad10" x="59.481875" y="238.840567" style="stroke: #000000; stroke-width: 0.6"/>
      </g>
     </g>
    </g>
    <g id="ytick_14">
     <g id="line2d_34">
      <g>
       <use xlink:href="#mfac908ad10" x="59.481875" y="226.286213" style="stroke: #000000; stroke-width: 0.6"/>
      </g>
     </g>
    </g>
    <g id="ytick_15">
     <g id="line2d_35">
      <g>
       <use xlink:href="#mfac908ad10" x="59.481875" y="217.378758" style="stroke: #000000; stroke-width: 0.6"/>
      </g>
     </g>
    </g>
    <g id="ytick_16">
     <g id="line2d_36">
      <g>
       <use xlink:href="#mfac908ad10" x="59.481875" y="210.469598" style="stroke: #000000; stroke-width: 0.6"/>
      </g>
     </g>
    </g>
    <g id="ytick_17">
     <g id="line2d_37">
      <g>
       <use xlink:href="#mfac908ad10" x="59.481875" y="204.824404" style="stroke: #000000; stroke-width: 0.6"/>
      </g>
     </g>
    </g>
    <g id="ytick_18">
     <g id="line2d_38">
      <g>
       <use xlink:href="#mfac908ad10" x="59.481875" y="200.05146" style="stroke: #000000; stroke-width: 0.6"/>
      </g>
     </g>
    </g>
    <g id="ytick_19">
     <g id="line2d_39">
      <g>
       <use xlink:href="#mfac908ad10" x="59.481875" y="195.916948" style="stroke: #000000; stroke-width: 0.6"/>
      </g>
     </g>
    </g>
    <g id="ytick_20">
     <g id="line2d_40">
      <g>
       <use xlink:href="#mfac908ad10" x="59.481875" y="192.27005" style="stroke: #000000; stroke-width: 0.6"/>
      </g>
     </g>
    </g>
    <g id="ytick_21">
     <g id="line2d_41">
      <g>
       <use xlink:href="#mfac908ad10" x="59.481875" y="167.54598" style="stroke: #000000; stroke-width: 0.6"/>
      </g>
     </g>
    </g>
    <g id="ytick_22">
     <g id="line2d_42">
      <g>
       <use xlink:href="#mfac908ad10" x="59.481875" y="154.991626" style="stroke: #000000; stroke-width: 0.6"/>
      </g>
     </g>
    </g>
    <g id="ytick_23">
     <g id="line2d_43">
      <g>
       <use xlink:href="#mfac908ad10" x="59.481875" y="146.084171" style="stroke: #000000; stroke-width: 0.6"/>
      </g>
     </g>
    </g>
    <g id="ytick_24">
     <g id="line2d_44">
      <g>
       <use xlink:href="#mfac908ad10" x="59.481875" y="139.175011" style="stroke: #000000; stroke-width: 0.6"/>
      </g>
     </g>
    </g>
    <g id="ytick_25">
     <g id="line2d_45">
      <g>
       <use xlink:href="#mfac908ad10" x="59.481875" y="133.529817" style="stroke: #000000; stroke-width: 0.6"/>
      </g>
     </g>
    </g>
    <g id="ytick_26">
     <g id="line2d_46">
      <g>
       <use xlink:href="#mfac908ad10" x="59.481875" y="128.756873" style="stroke: #000000; stroke-width: 0.6"/>
      </g>
     </g>
    </g>
    <g id="ytick_27">
     <g id="line2d_47">
      <g>
       <use xlink:href="#mfac908ad10" x="59.481875" y="124.622361" style="stroke: #000000; stroke-width: 0.6"/>
      </g>
     </g>
    </g>
    <g id="ytick_28">
     <g id="line2d_48">
      <g>
       <use xlink:href="#mfac908ad10" x="59.481875" y="120.975463" style="stroke: #000000; stroke-width: 0.6"/>
      </g>
     </g>
    </g>
    <g id="ytick_29">
     <g id="line2d_49">
      <g>
       <use xlink:href="#mfac908ad10" x="59.481875" y="96.251393" style="stroke: #000000; stroke-width: 0.6"/>
      </g>
     </g>
    </g>
    <g id="ytick_30">
     <g id="line2d_50">
      <g>
       <use xlink:href="#mfac908ad10" x="59.481875" y="83.697039" style="stroke: #000000; stroke-width: 0.6"/>
      </g>
     </g>
    </g>
    <g id="ytick_31">
     <g id="line2d_51">
      <g>
       <use xlink:href="#mfac908ad10" x="59.481875" y="74.789583" style="stroke: #000000; stroke-width: 0.6"/>
      </g>
     </g>
    </g>
    <g id="ytick_32">
     <g id="line2d_52">
      <g>
       <use xlink:href="#mfac908ad10" x="59.481875" y="67.880424" style="stroke: #000000; stroke-width: 0.6"/>
      </g>
     </g>
    </g>
    <g id="ytick_33">
     <g id="line2d_53">
      <g>
       <use xlink:href="#mfac908ad10" x="59.481875" y="62.23523" style="stroke: #000000; stroke-width: 0.6"/>
      </g>
     </g>
    </g>
    <g id="ytick_34">
     <g id="line2d_54">
      <g>
       <use xlink:href="#mfac908ad10" x="59.481875" y="57.462286" style="stroke: #000000; stroke-width: 0.6"/>
      </g>
     </g>
    </g>
    <g id="ytick_35">
     <g id="line2d_55">
      <g>
       <use xlink:href="#mfac908ad10" x="59.481875" y="53.327774" style="stroke: #000000; stroke-width: 0.6"/>
      </g>
     </g>
    </g>
    <g id="ytick_36">
     <g id="line2d_56">
      <g>
       <use xlink:href="#mfac908ad10" x="59.481875" y="49.680876" style="stroke: #000000; stroke-width: 0.6"/>
      </g>
     </g>
    </g>
    <g id="ytick_37">
     <g id="line2d_57">
      <g>
       <use xlink:href="#mfac908ad10" x="59.481875" y="24.956806" style="stroke: #000000; stroke-width: 0.6"/>
      </g>
     </g>
    </g>
    <g id="ytick_38">
     <g id="line2d_58">
      <g>
       <use xlink:href="#mfac908ad10" x="59.481875" y="12.402452" style="stroke: #000000; stroke-width: 0.6"/>
      </g>
     </g>
    </g>
    <g id="text_14">
     <!-- CPU time (s) -->
     <g transform="translate(19.54125 212.610367) rotate(-90) scale(0.18 -0.18)">
      <defs>
       <path id="Times-Roman-43" d="M 2369 4309 
Q 2716 4309 3081 4206 
Q 3447 4103 3491 4103 
Q 3581 4103 3662 4153 
Q 3744 4203 3775 4309 
L 3909 4309 
L 3969 2872 
L 3822 2872 
Q 3694 3300 3488 3563 
Q 3094 4056 2428 4056 
Q 1756 4056 1329 3525 
Q 903 2994 903 2063 
Q 903 1206 1351 695 
Q 1800 184 2488 184 
Q 2984 184 3403 422 
Q 3644 556 3931 828 
L 4050 709 
Q 3838 441 3522 238 
Q 2984 -106 2356 -106 
Q 1325 -106 719 553 
Q 159 1163 159 2075 
Q 159 3009 750 3644 
Q 1372 4309 2369 4309 
z
M 2347 4309 
Q 2347 4309 2347 4309 
z
" transform="scale(0.015625)"/>
       <path id="Times-Roman-50" d="M 2769 3072 
Q 2769 3659 2263 3878 
Q 1991 3997 1575 3997 
Q 1378 3997 1333 3958 
Q 1288 3919 1288 3784 
L 1288 2116 
Q 1459 2100 1512 2097 
Q 1566 2094 1616 2094 
Q 2056 2094 2309 2219 
Q 2769 2447 2769 3072 
z
M 103 116 
Q 469 150 559 261 
Q 650 372 650 769 
L 650 3541 
Q 650 3875 548 3981 
Q 447 4088 103 4116 
L 103 4234 
L 1791 4234 
Q 2603 4234 3034 3918 
Q 3466 3603 3466 3088 
Q 3466 2434 2987 2140 
Q 2509 1847 1791 1847 
Q 1688 1847 1527 1851 
Q 1366 1856 1288 1856 
L 1288 694 
Q 1288 331 1398 237 
Q 1509 144 1894 116 
L 1894 0 
L 103 0 
L 103 116 
z
" transform="scale(0.015625)"/>
       <path id="Times-Roman-55" d="M 1903 4234 
L 1903 4116 
Q 1534 4091 1425 3992 
Q 1316 3894 1316 3541 
L 1316 1494 
Q 1316 991 1453 709 
Q 1709 197 2425 197 
Q 3209 197 3478 722 
Q 3628 1016 3628 1628 
L 3628 3294 
Q 3628 3816 3503 3948 
Q 3378 4081 3028 4116 
L 3028 4234 
L 4509 4234 
L 4509 4116 
Q 4138 4075 4023 3936 
Q 3909 3797 3909 3294 
L 3909 1628 
Q 3909 966 3706 594 
Q 3331 -91 2281 -91 
Q 1244 -91 869 584 
Q 666 947 666 1541 
L 666 3541 
Q 666 3891 558 3989 
Q 450 4088 88 4116 
L 88 4234 
L 1903 4234 
z
M 2316 4234 
L 2316 4234 
z
" transform="scale(0.015625)"/>
       <path id="Times-Roman-20" transform="scale(0.015625)"/>
       <path id="Times-Roman-6d" d="M 103 81 
Q 347 103 428 163 
Q 553 253 553 525 
L 553 2141 
Q 553 2372 492 2444 
Q 431 2516 291 2516 
Q 225 2516 192 2509 
Q 159 2503 116 2488 
L 116 2597 
L 341 2672 
Q 463 2713 741 2819 
Q 1019 2925 1034 2925 
Q 1050 2925 1053 2909 
Q 1056 2894 1056 2850 
L 1056 2428 
Q 1366 2709 1591 2817 
Q 1816 2925 2053 2925 
Q 2375 2925 2566 2706 
Q 2666 2588 2731 2384 
Q 2963 2619 3134 2731 
Q 3431 2925 3741 2925 
Q 4244 2925 4413 2516 
Q 4509 2284 4509 1784 
L 4509 488 
Q 4509 266 4607 186 
Q 4706 106 4963 81 
L 4963 0 
L 3553 0 
L 3553 88 
Q 3825 113 3911 197 
Q 3997 281 3997 541 
L 3997 1888 
Q 3997 2191 3931 2334 
Q 3816 2591 3478 2591 
Q 3275 2591 3075 2456 
Q 2959 2378 2791 2206 
L 2791 606 
Q 2791 353 2880 222 
Q 2969 91 3256 81 
L 3256 0 
L 1822 0 
L 1822 81 
Q 2119 119 2200 225 
Q 2281 331 2281 747 
L 2281 1622 
Q 2281 2103 2219 2284 
Q 2116 2591 1781 2591 
Q 1591 2591 1406 2486 
Q 1222 2381 1081 2213 
L 1081 503 
Q 1081 266 1164 175 
Q 1247 84 1525 81 
L 1525 0 
L 103 0 
L 103 81 
z
" transform="scale(0.015625)"/>
       <path id="Times-Roman-28" d="M 294 1606 
Q 294 2694 944 3516 
Q 1344 4019 1888 4325 
L 1947 4222 
Q 1444 3822 1228 3444 
Q 850 2784 850 1688 
Q 850 875 994 347 
Q 1247 -578 1947 -1038 
L 1866 -1141 
Q 1481 -956 1034 -419 
Q 294 472 294 1606 
z
" transform="scale(0.015625)"/>
       <path id="Times-Roman-29" d="M 1822 1575 
Q 1822 1109 1700 693 
Q 1578 278 1344 -91 
Q 1097 -484 684 -825 
Q 413 -1050 228 -1141 
L 169 -1038 
Q 650 -672 872 -291 
Q 1266 384 1266 1494 
Q 1266 2391 1084 2959 
Q 831 3763 169 4222 
L 250 4325 
Q 744 4050 1169 3494 
Q 1822 2638 1822 1575 
z
" transform="scale(0.015625)"/>
      </defs>
      <use xlink:href="#Times-Roman-43"/>
      <use xlink:href="#Times-Roman-50" x="66.699219"/>
      <use xlink:href="#Times-Roman-55" x="122.314453"/>
      <use xlink:href="#Times-Roman-20" x="194.53125"/>
      <use xlink:href="#Times-Roman-74" x="219.53125"/>
      <use xlink:href="#Times-Roman-69" x="247.314453"/>
      <use xlink:href="#Times-Roman-6d" x="275.097656"/>
      <use xlink:href="#Times-Roman-65" x="352.880859"/>
      <use xlink:href="#Times-Roman-20" x="397.265625"/>
      <use xlink:href="#Times-Roman-28" x="422.265625"/>
      <use xlink:href="#Times-Roman-73" x="455.566406"/>
      <use xlink:href="#Times-Roman-29" x="494.482422"/>
     </g>
    </g>
   </g>
   <g id="patch_3">
    <path d="M 59.481875 323.020109 
L 59.481875 7.2 
" style="fill: none; stroke: #000000; stroke-linejoin: miter; stroke-linecap: square"/>
   </g>
   <g id="patch_4">
    <path d="M 573.807778 323.020109 
L 573.807778 7.2 
" style="fill: none; stroke: #000000; stroke-linejoin: miter; stroke-linecap: square"/>
   </g>
   <g id="patch_5">
    <path d="M 59.481875 323.020109 
L 573.807778 323.020109 
" style="fill: none; stroke: #000000; stroke-linejoin: miter; stroke-linecap: square"/>
   </g>
   <g id="patch_6">
    <path d="M 59.481875 7.2 
L 573.807778 7.2 
" style="fill: none; stroke: #000000; stroke-linejoin: miter; stroke-linecap: square"/>
   </g>
   <g id="line2d_59">
    <path d="M 66.829388 302.371991 
L 74.176901 272.203884 
L 81.524414 272.122728 
L 88.871927 255.097447 
L 96.219439 249.800373 
L 103.566952 247.302196 
L 110.914465 242.92421 
L 118.261978 241.979729 
L 125.609491 240.552012 
L 132.957004 227.421187 
L 140.304517 227.377431 
L 147.65203 226.523854 
L 154.999543 222.855974 
L 162.347056 220.887745 
L 169.694568 220.319376 
L 177.042081 220.073105 
L 184.389594 219.807831 
L 191.737107 219.254473 
L 199.08462 206.980849 
L 206.432133 206.931153 
L 213.779646 205.237609 
L 221.127159 200.722921 
L 228.474672 200.41917 
L 235.822185 199.170795 
L 243.169697 195.843629 
L 250.51721 194.230397 
L 257.864723 189.744726 
L 265.212236 187.018793 
L 272.559749 181.884744 
L 279.907262 180.777773 
L 287.254775 170.154385 
L 294.602288 166.9919 
L 301.949801 165.546671 
L 309.297314 139.894331 
L 316.644826 139.239218 
L 323.992339 125.593164 
L 331.339852 119.557249 
L 338.687365 113.412399 
L 346.034878 109.655692 
L 353.382391 106.894124 
L 360.729904 95.747428 
L 368.077417 88.31655 
L 375.42493 79.430056 
L 382.772443 77.984701 
L 390.119955 42.448097 
L 397.467468 36.264085 
" clip-path="url(#p42ed3aeca7)" style="fill: none; stroke: #008000; stroke-opacity: 0.7; stroke-width: 2; stroke-linecap: square"/>
   </g>
   <g id="line2d_60">
    <path d="M 66.829388 323.020109 
L 74.176901 312.508334 
L 81.524414 308.398798 
L 88.871927 306.732957 
L 96.219439 305.180087 
L 103.566952 297.377014 
L 110.914465 296.784507 
L 118.261978 296.540163 
L 125.609491 290.898646 
L 132.957004 285.70563 
L 140.304517 285.509487 
L 147.65203 285.413335 
L 154.999543 283.926721 
L 162.347056 282.44777 
L 169.694568 281.955519 
L 177.042081 281.139865 
L 184.389594 280.372358 
L 191.737107 272.307535 
L 199.08462 269.723756 
L 206.432133 269.375812 
L 213.779646 267.48063 
L 221.127159 266.703048 
L 228.474672 265.242916 
L 235.822185 261.569123 
L 243.169697 261.217002 
L 250.51721 258.103184 
L 257.864723 255.729485 
L 265.212236 248.937523 
L 272.559749 247.356471 
L 279.907262 246.229216 
L 287.254775 235.385021 
L 294.602288 232.35753 
L 301.949801 230.992838 
L 309.297314 230.244829 
L 316.644826 228.378652 
L 323.992339 223.405901 
L 331.339852 221.451562 
L 338.687365 220.109808 
L 346.034878 218.551275 
L 353.382391 217.420134 
L 360.729904 215.14216 
L 368.077417 211.682005 
L 375.42493 206.292094 
L 382.772443 205.456128 
L 390.119955 204.358084 
L 397.467468 202.586384 
L 404.814981 201.86144 
L 412.162494 197.376817 
L 419.510007 194.226403 
L 426.85752 193.99485 
L 434.205033 192.967534 
L 441.552546 190.873976 
L 448.900059 183.351146 
L 456.247571 182.328952 
L 463.595084 179.213425 
L 470.942597 177.151342 
L 478.29011 166.282659 
L 485.637623 161.4069 
L 492.985136 158.565756 
L 500.332649 157.740399 
L 507.680162 146.907297 
L 515.027675 143.599501 
L 522.375188 142.325894 
L 529.7227 124.720018 
L 537.070213 117.926726 
L 544.417726 116.785396 
" clip-path="url(#p42ed3aeca7)" style="fill: none; stroke-dasharray: 7.4,3.2; stroke-dashoffset: 0; stroke: #ff0000; stroke-opacity: 0.7; stroke-width: 2"/>
   </g>
   <g id="line2d_61">
    <path d="M 66.829388 289.26596 
L 74.176901 289.255486 
L 81.524414 285.41835 
L 88.871927 283.260077 
L 96.219439 283.038884 
L 103.566952 263.846754 
L 110.914465 254.580622 
L 118.261978 251.014886 
L 125.609491 248.139634 
L 132.957004 243.045657 
L 140.304517 239.915957 
L 147.65203 239.839182 
L 154.999543 238.370923 
L 162.347056 237.922294 
L 169.694568 235.175262 
L 177.042081 235.158126 
L 184.389594 233.94381 
L 191.737107 231.507924 
L 199.08462 217.139643 
L 206.432133 212.829983 
L 213.779646 207.132645 
L 221.127159 206.100315 
L 228.474672 203.097121 
L 235.822185 201.028915 
L 243.169697 197.556538 
L 250.51721 196.890035 
L 257.864723 195.214802 
L 265.212236 195.057034 
L 272.559749 192.37005 
L 279.907262 186.225178 
L 287.254775 177.138744 
L 294.602288 171.704414 
L 301.949801 165.069154 
L 309.297314 163.33985 
L 316.644826 162.799986 
L 323.992339 160.426764 
L 331.339852 148.342951 
L 338.687365 141.06227 
L 346.034878 140.005733 
L 353.382391 121.740787 
L 360.729904 115.313874 
L 368.077417 104.487528 
L 375.42493 101.774637 
L 382.772443 101.209137 
L 390.119955 96.968275 
L 397.467468 95.620319 
L 404.814981 86.597795 
L 412.162494 84.588806 
L 419.510007 72.04686 
L 426.85752 66.709533 
L 434.205033 42.942022 
L 441.552546 41.552481 
L 448.900059 32.701186 
L 456.247571 27.355659 
L 463.595084 7.639335 
" clip-path="url(#p42ed3aeca7)" style="fill: none; stroke: #0000ff; stroke-opacity: 0.7; stroke-linecap: square"/>
    <defs>
     <path id="m45066890eb" d="M -2.5 2.5 
L 2.5 -2.5 
M -2.5 -2.5 
L 2.5 2.5 
" style="stroke: #0000ff; stroke-opacity: 0.7; stroke-width: 0.75"/>
    </defs>
    <g clip-path="url(#p42ed3aeca7)">
     <use xlink:href="#m45066890eb" x="66.829388" y="289.26596" style="fill: #ffffff; fill-opacity: 0.7; stroke: #0000ff; stroke-opacity: 0.7; stroke-width: 0.75"/>
     <use xlink:href="#m45066890eb" x="74.176901" y="289.255486" style="fill: #ffffff; fill-opacity: 0.7; stroke: #0000ff; stroke-opacity: 0.7; stroke-width: 0.75"/>
     <use xlink:href="#m45066890eb" x="81.524414" y="285.41835" style="fill: #ffffff; fill-opacity: 0.7; stroke: #0000ff; stroke-opacity: 0.7; stroke-width: 0.75"/>
     <use xlink:href="#m45066890eb" x="88.871927" y="283.260077" style="fill: #ffffff; fill-opacity: 0.7; stroke: #0000ff; stroke-opacity: 0.7; stroke-width: 0.75"/>
     <use xlink:href="#m45066890eb" x="96.219439" y="283.038884" style="fill: #ffffff; fill-opacity: 0.7; stroke: #0000ff; stroke-opacity: 0.7; stroke-width: 0.75"/>
     <use xlink:href="#m45066890eb" x="103.566952" y="263.846754" style="fill: #ffffff; fill-opacity: 0.7; stroke: #0000ff; stroke-opacity: 0.7; stroke-width: 0.75"/>
     <use xlink:href="#m45066890eb" x="110.914465" y="254.580622" style="fill: #ffffff; fill-opacity: 0.7; stroke: #0000ff; stroke-opacity: 0.7; stroke-width: 0.75"/>
     <use xlink:href="#m45066890eb" x="118.261978" y="251.014886" style="fill: #ffffff; fill-opacity: 0.7; stroke: #0000ff; stroke-opacity: 0.7; stroke-width: 0.75"/>
     <use xlink:href="#m45066890eb" x="125.609491" y="248.139634" style="fill: #ffffff; fill-opacity: 0.7; stroke: #0000ff; stroke-opacity: 0.7; stroke-width: 0.75"/>
     <use xlink:href="#m45066890eb" x="132.957004" y="243.045657" style="fill: #ffffff; fill-opacity: 0.7; stroke: #0000ff; stroke-opacity: 0.7; stroke-width: 0.75"/>
     <use xlink:href="#m45066890eb" x="140.304517" y="239.915957" style="fill: #ffffff; fill-opacity: 0.7; stroke: #0000ff; stroke-opacity: 0.7; stroke-width: 0.75"/>
     <use xlink:href="#m45066890eb" x="147.65203" y="239.839182" style="fill: #ffffff; fill-opacity: 0.7; stroke: #0000ff; stroke-opacity: 0.7; stroke-width: 0.75"/>
     <use xlink:href="#m45066890eb" x="154.999543" y="238.370923" style="fill: #ffffff; fill-opacity: 0.7; stroke: #0000ff; stroke-opacity: 0.7; stroke-width: 0.75"/>
     <use xlink:href="#m45066890eb" x="162.347056" y="237.922294" style="fill: #ffffff; fill-opacity: 0.7; stroke: #0000ff; stroke-opacity: 0.7; stroke-width: 0.75"/>
     <use xlink:href="#m45066890eb" x="169.694568" y="235.175262" style="fill: #ffffff; fill-opacity: 0.7; stroke: #0000ff; stroke-opacity: 0.7; stroke-width: 0.75"/>
     <use xlink:href="#m45066890eb" x="177.042081" y="235.158126" style="fill: #ffffff; fill-opacity: 0.7; stroke: #0000ff; stroke-opacity: 0.7; stroke-width: 0.75"/>
     <use xlink:href="#m45066890eb" x="184.389594" y="233.94381" style="fill: #ffffff; fill-opacity: 0.7; stroke: #0000ff; stroke-opacity: 0.7; stroke-width: 0.75"/>
     <use xlink:href="#m45066890eb" x="191.737107" y="231.507924" style="fill: #ffffff; fill-opacity: 0.7; stroke: #0000ff; stroke-opacity: 0.7; stroke-width: 0.75"/>
     <use xlink:href="#m45066890eb" x="199.08462" y="217.139643" style="fill: #ffffff; fill-opacity: 0.7; stroke: #0000ff; stroke-opacity: 0.7; stroke-width: 0.75"/>
     <use xlink:href="#m45066890eb" x="206.432133" y="212.829983" style="fill: #ffffff; fill-opacity: 0.7; stroke: #0000ff; stroke-opacity: 0.7; stroke-width: 0.75"/>
     <use xlink:href="#m45066890eb" x="213.779646" y="207.132645" style="fill: #ffffff; fill-opacity: 0.7; stroke: #0000ff; stroke-opacity: 0.7; stroke-width: 0.75"/>
     <use xlink:href="#m45066890eb" x="221.127159" y="206.100315" style="fill: #ffffff; fill-opacity: 0.7; stroke: #0000ff; stroke-opacity: 0.7; stroke-width: 0.75"/>
     <use xlink:href="#m45066890eb" x="228.474672" y="203.097121" style="fill: #ffffff; fill-opacity: 0.7; stroke: #0000ff; stroke-opacity: 0.7; stroke-width: 0.75"/>
     <use xlink:href="#m45066890eb" x="235.822185" y="201.028915" style="fill: #ffffff; fill-opacity: 0.7; stroke: #0000ff; stroke-opacity: 0.7; stroke-width: 0.75"/>
     <use xlink:href="#m45066890eb" x="243.169697" y="197.556538" style="fill: #ffffff; fill-opacity: 0.7; stroke: #0000ff; stroke-opacity: 0.7; stroke-width: 0.75"/>
     <use xlink:href="#m45066890eb" x="250.51721" y="196.890035" style="fill: #ffffff; fill-opacity: 0.7; stroke: #0000ff; stroke-opacity: 0.7; stroke-width: 0.75"/>
     <use xlink:href="#m45066890eb" x="257.864723" y="195.214802" style="fill: #ffffff; fill-opacity: 0.7; stroke: #0000ff; stroke-opacity: 0.7; stroke-width: 0.75"/>
     <use xlink:href="#m45066890eb" x="265.212236" y="195.057034" style="fill: #ffffff; fill-opacity: 0.7; stroke: #0000ff; stroke-opacity: 0.7; stroke-width: 0.75"/>
     <use xlink:href="#m45066890eb" x="272.559749" y="192.37005" style="fill: #ffffff; fill-opacity: 0.7; stroke: #0000ff; stroke-opacity: 0.7; stroke-width: 0.75"/>
     <use xlink:href="#m45066890eb" x="279.907262" y="186.225178" style="fill: #ffffff; fill-opacity: 0.7; stroke: #0000ff; stroke-opacity: 0.7; stroke-width: 0.75"/>
     <use xlink:href="#m45066890eb" x="287.254775" y="177.138744" style="fill: #ffffff; fill-opacity: 0.7; stroke: #0000ff; stroke-opacity: 0.7; stroke-width: 0.75"/>
     <use xlink:href="#m45066890eb" x="294.602288" y="171.704414" style="fill: #ffffff; fill-opacity: 0.7; stroke: #0000ff; stroke-opacity: 0.7; stroke-width: 0.75"/>
     <use xlink:href="#m45066890eb" x="301.949801" y="165.069154" style="fill: #ffffff; fill-opacity: 0.7; stroke: #0000ff; stroke-opacity: 0.7; stroke-width: 0.75"/>
     <use xlink:href="#m45066890eb" x="309.297314" y="163.33985" style="fill: #ffffff; fill-opacity: 0.7; stroke: #0000ff; stroke-opacity: 0.7; stroke-width: 0.75"/>
     <use xlink:href="#m45066890eb" x="316.644826" y="162.799986" style="fill: #ffffff; fill-opacity: 0.7; stroke: #0000ff; stroke-opacity: 0.7; stroke-width: 0.75"/>
     <use xlink:href="#m45066890eb" x="323.992339" y="160.426764" style="fill: #ffffff; fill-opacity: 0.7; stroke: #0000ff; stroke-opacity: 0.7; stroke-width: 0.75"/>
     <use xlink:href="#m45066890eb" x="331.339852" y="148.342951" style="fill: #ffffff; fill-opacity: 0.7; stroke: #0000ff; stroke-opacity: 0.7; stroke-width: 0.75"/>
     <use xlink:href="#m45066890eb" x="338.687365" y="141.06227" style="fill: #ffffff; fill-opacity: 0.7; stroke: #0000ff; stroke-opacity: 0.7; stroke-width: 0.75"/>
     <use xlink:href="#m45066890eb" x="346.034878" y="140.005733" style="fill: #ffffff; fill-opacity: 0.7; stroke: #0000ff; stroke-opacity: 0.7; stroke-width: 0.75"/>
     <use xlink:href="#m45066890eb" x="353.382391" y="121.740787" style="fill: #ffffff; fill-opacity: 0.7; stroke: #0000ff; stroke-opacity: 0.7; stroke-width: 0.75"/>
     <use xlink:href="#m45066890eb" x="360.729904" y="115.313874" style="fill: #ffffff; fill-opacity: 0.7; stroke: #0000ff; stroke-opacity: 0.7; stroke-width: 0.75"/>
     <use xlink:href="#m45066890eb" x="368.077417" y="104.487528" style="fill: #ffffff; fill-opacity: 0.7; stroke: #0000ff; stroke-opacity: 0.7; stroke-width: 0.75"/>
     <use xlink:href="#m45066890eb" x="375.42493" y="101.774637" style="fill: #ffffff; fill-opacity: 0.7; stroke: #0000ff; stroke-opacity: 0.7; stroke-width: 0.75"/>
     <use xlink:href="#m45066890eb" x="382.772443" y="101.209137" style="fill: #ffffff; fill-opacity: 0.7; stroke: #0000ff; stroke-opacity: 0.7; stroke-width: 0.75"/>
     <use xlink:href="#m45066890eb" x="390.119955" y="96.968275" style="fill: #ffffff; fill-opacity: 0.7; stroke: #0000ff; stroke-opacity: 0.7; stroke-width: 0.75"/>
     <use xlink:href="#m45066890eb" x="397.467468" y="95.620319" style="fill: #ffffff; fill-opacity: 0.7; stroke: #0000ff; stroke-opacity: 0.7; stroke-width: 0.75"/>
     <use xlink:href="#m45066890eb" x="404.814981" y="86.597795" style="fill: #ffffff; fill-opacity: 0.7; stroke: #0000ff; stroke-opacity: 0.7; stroke-width: 0.75"/>
     <use xlink:href="#m45066890eb" x="412.162494" y="84.588806" style="fill: #ffffff; fill-opacity: 0.7; stroke: #0000ff; stroke-opacity: 0.7; stroke-width: 0.75"/>
     <use xlink:href="#m45066890eb" x="419.510007" y="72.04686" style="fill: #ffffff; fill-opacity: 0.7; stroke: #0000ff; stroke-opacity: 0.7; stroke-width: 0.75"/>
     <use xlink:href="#m45066890eb" x="426.85752" y="66.709533" style="fill: #ffffff; fill-opacity: 0.7; stroke: #0000ff; stroke-opacity: 0.7; stroke-width: 0.75"/>
     <use xlink:href="#m45066890eb" x="434.205033" y="42.942022" style="fill: #ffffff; fill-opacity: 0.7; stroke: #0000ff; stroke-opacity: 0.7; stroke-width: 0.75"/>
     <use xlink:href="#m45066890eb" x="441.552546" y="41.552481" style="fill: #ffffff; fill-opacity: 0.7; stroke: #0000ff; stroke-opacity: 0.7; stroke-width: 0.75"/>
     <use xlink:href="#m45066890eb" x="448.900059" y="32.701186" style="fill: #ffffff; fill-opacity: 0.7; stroke: #0000ff; stroke-opacity: 0.7; stroke-width: 0.75"/>
     <use xlink:href="#m45066890eb" x="456.247571" y="27.355659" style="fill: #ffffff; fill-opacity: 0.7; stroke: #0000ff; stroke-opacity: 0.7; stroke-width: 0.75"/>
     <use xlink:href="#m45066890eb" x="463.595084" y="7.639335" style="fill: #ffffff; fill-opacity: 0.7; stroke: #0000ff; stroke-opacity: 0.7; stroke-width: 0.75"/>
    </g>
   </g>
   <g id="legend_1">
    <g id="patch_7">
     <path d="M 419.632465 316.020109 
L 563.207778 316.020109 
Q 566.807778 316.020109 566.807778 312.420109 
L 566.807778 237.658234 
Q 566.807778 234.058234 563.207778 234.058234 
L 419.632465 234.058234 
Q 416.032465 234.058234 416.032465 237.658234 
L 416.032465 312.420109 
Q 416.032465 316.020109 419.632465 316.020109 
z
" style="fill: #4c4c4c; opacity: 0.5; stroke: #4c4c4c; stroke-linejoin: miter"/>
    </g>
    <g id="patch_8">
     <path d="M 417.632465 314.020109 
L 561.207778 314.020109 
Q 564.807778 314.020109 564.807778 310.420109 
L 564.807778 235.658234 
Q 564.807778 232.058234 561.207778 232.058234 
L 417.632465 232.058234 
Q 414.032465 232.058234 414.032465 235.658234 
L 414.032465 310.420109 
Q 414.032465 314.020109 417.632465 314.020109 
z
" style="fill: #ffffff; stroke: #000000; stroke-linejoin: miter"/>
    </g>
    <g id="line2d_62">
     <path d="M 421.232465 245.558234 
L 439.232465 245.558234 
L 457.232465 245.558234 
" style="fill: none; stroke: #008000; stroke-opacity: 0.7; stroke-width: 2; stroke-linecap: square"/>
    </g>
    <g id="text_15">
     <!-- Precompute -->
     <g transform="translate(471.632465 251.858234) scale(0.18 -0.18)">
      <defs>
       <path id="Times-Roman-72" d="M 28 103 
Q 316 128 409 204 
Q 503 281 503 531 
L 503 1941 
Q 503 2250 445 2383 
Q 388 2516 234 2516 
Q 203 2516 151 2508 
Q 100 2500 44 2488 
L 44 2591 
Q 222 2653 409 2718 
Q 597 2784 669 2813 
Q 825 2872 991 2947 
Q 1013 2947 1017 2931 
Q 1022 2916 1022 2866 
L 1022 2353 
Q 1222 2631 1408 2787 
Q 1594 2944 1794 2944 
Q 1953 2944 2053 2848 
Q 2153 2753 2153 2609 
Q 2153 2481 2076 2393 
Q 2000 2306 1884 2306 
Q 1766 2306 1645 2415 
Q 1525 2525 1456 2525 
Q 1347 2525 1187 2348 
Q 1028 2172 1028 1984 
L 1028 575 
Q 1028 306 1153 201 
Q 1278 97 1569 103 
L 1569 0 
L 28 0 
L 28 103 
z
" transform="scale(0.015625)"/>
       <path id="Times-Roman-6f" d="M 163 1450 
Q 163 2072 558 2501 
Q 953 2931 1575 2931 
Q 2194 2931 2600 2525 
Q 3006 2119 3006 1444 
Q 3006 822 2612 362 
Q 2219 -97 1594 -97 
Q 994 -97 578 343 
Q 163 784 163 1450 
z
M 1488 2744 
Q 1241 2744 1059 2581 
Q 747 2297 747 1600 
Q 747 1044 998 562 
Q 1250 81 1697 81 
Q 2047 81 2236 403 
Q 2425 725 2425 1247 
Q 2425 1788 2184 2266 
Q 1944 2744 1488 2744 
z
M 1603 2931 
L 1603 2931 
z
" transform="scale(0.015625)"/>
       <path id="Times-Roman-70" d="M 1022 575 
Q 1103 363 1264 258 
Q 1425 153 1644 153 
Q 1981 153 2220 489 
Q 2459 825 2459 1425 
Q 2459 2000 2211 2284 
Q 1963 2569 1634 2569 
Q 1403 2569 1212 2426 
Q 1022 2284 1022 2147 
L 1022 575 
z
M 28 -1291 
Q 322 -1272 401 -1165 
Q 481 -1059 481 -831 
L 481 2169 
Q 481 2406 423 2473 
Q 366 2541 206 2541 
Q 172 2541 142 2537 
Q 113 2534 56 2525 
L 56 2628 
L 353 2725 
Q 369 2728 981 2941 
Q 997 2941 1005 2927 
Q 1013 2913 1013 2894 
L 1013 2472 
Q 1219 2678 1375 2778 
Q 1656 2953 1953 2953 
Q 2384 2953 2695 2586 
Q 3006 2219 3006 1581 
Q 3006 956 2632 446 
Q 2259 -63 1694 -63 
Q 1519 -63 1391 -19 
Q 1191 47 1022 222 
L 1022 -800 
Q 1022 -1116 1125 -1187 
Q 1228 -1259 1575 -1284 
L 1575 -1394 
L 28 -1394 
L 28 -1291 
z
" transform="scale(0.015625)"/>
       <path id="Times-Roman-75" d="M 991 2894 
L 991 894 
Q 991 681 1050 553 
Q 1166 316 1475 316 
Q 1688 316 1891 456 
Q 2006 534 2125 672 
L 2125 2384 
Q 2125 2625 2031 2700 
Q 1938 2775 1656 2791 
L 1656 2894 
L 2666 2894 
L 2666 694 
Q 2666 481 2742 401 
Q 2819 322 3066 331 
L 3066 244 
Q 2894 197 2812 173 
Q 2731 150 2541 88 
Q 2459 59 2184 -47 
Q 2169 -47 2166 -33 
Q 2163 -19 2163 0 
L 2163 503 
Q 1950 250 1775 128 
Q 1509 -59 1213 -59 
Q 941 -59 700 134 
Q 456 325 456 775 
L 456 2397 
Q 456 2647 350 2731 
Q 281 2784 56 2806 
L 56 2894 
L 991 2894 
z
M 1603 2931 
L 1603 2931 
z
" transform="scale(0.015625)"/>
      </defs>
      <use xlink:href="#Times-Roman-50"/>
      <use xlink:href="#Times-Roman-72" x="55.615234"/>
      <use xlink:href="#Times-Roman-65" x="88.916016"/>
      <use xlink:href="#Times-Roman-63" x="133.300781"/>
      <use xlink:href="#Times-Roman-6f" x="177.685547"/>
      <use xlink:href="#Times-Roman-6d" x="227.685547"/>
      <use xlink:href="#Times-Roman-70" x="305.46875"/>
      <use xlink:href="#Times-Roman-75" x="355.46875"/>
      <use xlink:href="#Times-Roman-74" x="405.46875"/>
      <use xlink:href="#Times-Roman-65" x="433.251953"/>
     </g>
    </g>
    <g id="line2d_63">
     <path d="M 421.232465 271.078859 
L 439.232465 271.078859 
L 457.232465 271.078859 
" style="fill: none; stroke-dasharray: 7.4,3.2; stroke-dashoffset: 0; stroke: #ff0000; stroke-opacity: 0.7; stroke-width: 2"/>
    </g>
    <g id="text_16">
     <!-- MIP -->
     <g transform="translate(471.632465 277.378859) scale(0.18 -0.18)">
      <defs>
       <path id="Times-Roman-4d" d="M 72 116 
Q 469 156 581 295 
Q 694 434 694 941 
L 694 3541 
Q 694 3888 584 3992 
Q 475 4097 88 4116 
L 88 4234 
L 1353 4234 
L 2834 1006 
L 4250 4234 
L 5525 4234 
L 5525 4116 
Q 5169 4091 5066 3986 
Q 4963 3881 4963 3541 
L 4963 694 
Q 4963 344 5066 245 
Q 5169 147 5525 116 
L 5525 0 
L 3731 0 
L 3731 116 
Q 4119 147 4214 255 
Q 4309 363 4309 769 
L 4309 3644 
L 2672 0 
L 2584 0 
L 975 3494 
L 975 941 
Q 975 416 1128 256 
Q 1228 153 1575 116 
L 1575 0 
L 72 0 
L 72 116 
z
" transform="scale(0.015625)"/>
       <path id="Times-Roman-49" d="M 103 116 
Q 494 144 609 233 
Q 725 322 725 694 
L 725 3541 
Q 725 3894 609 3995 
Q 494 4097 103 4116 
L 103 4234 
L 1997 4234 
L 1997 4116 
Q 1606 4097 1490 3995 
Q 1375 3894 1375 3541 
L 1375 694 
Q 1375 322 1490 233 
Q 1606 144 1997 116 
L 1997 0 
L 103 0 
L 103 116 
z
M 1050 4234 
L 1050 4234 
z
" transform="scale(0.015625)"/>
      </defs>
      <use xlink:href="#Times-Roman-4d"/>
      <use xlink:href="#Times-Roman-49" x="88.916016"/>
      <use xlink:href="#Times-Roman-50" x="122.216797"/>
     </g>
    </g>
    <g id="line2d_64">
     <path d="M 421.232465 296.599484 
L 439.232465 296.599484 
L 457.232465 296.599484 
" style="fill: none; stroke: #0000ff; stroke-opacity: 0.7; stroke-linecap: square"/>
     <g>
      <use xlink:href="#m45066890eb" x="439.232465" y="296.599484" style="fill: #ffffff; fill-opacity: 0.7; stroke: #0000ff; stroke-opacity: 0.7; stroke-width: 0.75"/>
     </g>
    </g>
    <g id="text_17">
     <!-- Combined -->
     <g transform="translate(471.632465 302.899484) scale(0.18 -0.18)">
      <defs>
       <path id="Times-Roman-62" d="M 22 3975 
L 22 4081 
Q 378 4163 662 4263 
Q 947 4363 969 4363 
Q 975 4344 975 4325 
L 975 2422 
Q 1056 2572 1219 2706 
Q 1506 2941 1881 2941 
Q 2341 2941 2666 2553 
Q 2991 2166 2991 1547 
Q 2991 884 2569 412 
Q 2147 -59 1459 -59 
Q 1113 -59 778 78 
Q 444 216 444 353 
L 444 3656 
Q 444 3838 394 3914 
Q 344 3991 163 3991 
L 22 3975 
z
M 963 456 
Q 991 294 1206 223 
Q 1422 153 1584 153 
Q 2022 153 2233 481 
Q 2444 809 2444 1275 
Q 2444 1741 2247 2136 
Q 2050 2531 1609 2531 
Q 1388 2531 1175 2395 
Q 963 2259 963 2050 
L 963 456 
z
" transform="scale(0.015625)"/>
       <path id="Times-Roman-64" d="M 1516 2953 
Q 1744 2953 1934 2853 
Q 2059 2788 2175 2672 
L 2175 3666 
Q 2175 3856 2133 3928 
Q 2091 4000 1931 4000 
Q 1894 4000 1866 3997 
Q 1838 3994 1741 3984 
L 1741 4088 
L 1997 4153 
Q 2138 4191 2278 4231 
Q 2419 4272 2525 4309 
Q 2575 4325 2691 4369 
L 2709 4363 
L 2703 4034 
Q 2700 3856 2697 3667 
Q 2694 3478 2694 3294 
L 2688 741 
Q 2688 538 2738 456 
Q 2788 375 3003 375 
Q 3038 375 3072 376 
Q 3106 378 3141 384 
L 3141 281 
Q 3122 275 2688 125 
L 2197 -59 
L 2175 -31 
L 2175 353 
Q 2000 163 1872 81 
Q 1644 -59 1344 -59 
Q 813 -59 483 352 
Q 153 763 153 1303 
Q 153 1981 548 2467 
Q 944 2953 1516 2953 
z
M 1631 278 
Q 1875 278 2025 422 
Q 2175 566 2175 694 
L 2175 2034 
Q 2175 2441 1958 2608 
Q 1741 2775 1534 2775 
Q 1141 2775 922 2426 
Q 703 2078 703 1569 
Q 703 1066 936 672 
Q 1169 278 1631 278 
z
" transform="scale(0.015625)"/>
      </defs>
      <use xlink:href="#Times-Roman-43"/>
      <use xlink:href="#Times-Roman-6f" x="66.699219"/>
      <use xlink:href="#Times-Roman-6d" x="116.699219"/>
      <use xlink:href="#Times-Roman-62" x="194.482422"/>
      <use xlink:href="#Times-Roman-69" x="244.482422"/>
      <use xlink:href="#Times-Roman-6e" x="272.265625"/>
      <use xlink:href="#Times-Roman-65" x="322.265625"/>
      <use xlink:href="#Times-Roman-64" x="366.650391"/>
     </g>
    </g>
   </g>
  </g>
 </g>
 <defs>
  <clipPath id="p42ed3aeca7">
   <rect x="59.481875" y="7.2" width="514.325903" height="315.820109"/>
  </clipPath>
 </defs>
</svg>
