<?xml version="1.0" encoding="utf-8" standalone="no"?>
<!DOCTYPE svg PUBLIC "-//W3C//DTD SVG 1.1//EN"
  "http://www.w3.org/Graphics/SVG/1.1/DTD/svg11.dtd">
<svg xmlns:xlink="http://www.w3.org/1999/xlink" width="460.8pt" height="345.6pt" viewBox="0 0 460.8 345.6" xmlns="http://www.w3.org/2000/svg" version="1.1">
 <metadata>
  <rdf:RDF xmlns:dc="http://purl.org/dc/elements/1.1/" xmlns:cc="http://creativecommons.org/ns#" xmlns:rdf="http://www.w3.org/1999/02/22-rdf-syntax-ns#">
   <cc:Work>
    <dc:type rdf:resource="http://purl.org/dc/dcmitype/StillImage"/>
    <dc:date>2023-10-10T10:55:07.318739</dc:date>
    <dc:format>image/svg+xml</dc:format>
    <dc:creator>
     <cc:Agent>
      <dc:title>Matplotlib v3.6.1, https://matplotlib.org/</dc:title>
     </cc:Agent>
    </dc:creator>
   </cc:Work>
  </rdf:RDF>
 </metadata>
 <defs>
  <style type="text/css">*{stroke-linejoin: round; stroke-linecap: butt}</style>
 </defs>
 <g id="figure_1">
  <g id="patch_1">
   <path d="M 0 345.6 
L 460.8 345.6 
L 460.8 0 
L 0 0 
z
" style="fill: #ffffff"/>
  </g>
  <g id="axes_1">
   <g id="patch_2">
    <path d="M 309.482867 314.652866 
Q 280.521442 298.149932 252.531413 282.200523 
" clip-path="url(#p188651df7d)" style="fill: none; stroke: #000000; stroke-linecap: round"/>
    <path d="M 255.016608 285.918561 
L 252.531413 282.200523 
L 256.996961 282.44319 
L 255.016608 285.918561 
z
" clip-path="url(#p188651df7d)" style="stroke: #000000; stroke-linecap: round"/>
   </g>
   <g id="patch_3">
    <path d="M 312.085217 313.90611 
Q 324.402036 291.164916 336.1864 269.406823 
" clip-path="url(#p188651df7d)" style="fill: none; stroke: #000000; stroke-linecap: round"/>
    <path d="M 332.522799 271.97159 
L 336.1864 269.406823 
L 336.040053 273.876564 
L 332.522799 271.97159 
z
" clip-path="url(#p188651df7d)" style="stroke: #000000; stroke-linecap: round"/>
   </g>
   <g id="patch_4">
    <path d="M 251.555111 281.644202 
Q 280.516536 298.147137 308.506565 314.096546 
" clip-path="url(#p188651df7d)" style="fill: none; stroke: #000000; stroke-linecap: round"/>
    <path d="M 306.02137 310.378508 
L 308.506565 314.096546 
L 304.041018 313.853879 
L 306.02137 310.378508 
z
" clip-path="url(#p188651df7d)" style="stroke: #000000; stroke-linecap: round"/>
   </g>
   <g id="patch_5">
    <path d="M 251.790599 280.382424 
Q 293.760676 273.704017 334.62661 267.201304 
" clip-path="url(#p188651df7d)" style="fill: none; stroke: #000000; stroke-linecap: round"/>
    <path d="M 330.362017 265.854738 
L 334.62661 267.201304 
L 330.990601 269.805039 
L 330.362017 265.854738 
z
" clip-path="url(#p188651df7d)" style="stroke: #000000; stroke-linecap: round"/>
   </g>
   <g id="patch_6">
    <path d="M 247.972707 280.327402 
Q 202.852893 271.797132 158.831652 263.474557 
" clip-path="url(#p188651df7d)" style="fill: none; stroke: #000000; stroke-linecap: round"/>
    <path d="M 162.390493 266.182814 
L 158.831652 263.474557 
L 163.133562 262.252439 
L 162.390493 266.182814 
z
" clip-path="url(#p188651df7d)" style="stroke: #000000; stroke-linecap: round"/>
   </g>
   <g id="patch_7">
    <path d="M 248.93231 278.999441 
Q 234.390709 252.980827 220.394559 227.938166 
" clip-path="url(#p188651df7d)" style="fill: none; stroke: #000000; stroke-linecap: round"/>
    <path d="M 220.600192 232.405571 
L 220.394559 227.938166 
L 224.091863 230.454103 
L 220.600192 232.405571 
z
" clip-path="url(#p188651df7d)" style="stroke: #000000; stroke-linecap: round"/>
   </g>
   <g id="patch_8">
    <path d="M 369.506715 195.31168 
Q 353.967553 230.134087 338.883998 263.935503 
" clip-path="url(#p188651df7d)" style="fill: none; stroke: #000000; stroke-linecap: round"/>
    <path d="M 342.340432 261.097711 
L 338.883998 263.935503 
L 338.687625 259.467681 
L 342.340432 261.097711 
z
" clip-path="url(#p188651df7d)" style="stroke: #000000; stroke-linecap: round"/>
   </g>
   <g id="patch_9">
    <path d="M 368.356446 193.51698 
Q 325.896751 192.847424 284.554951 192.195496 
" clip-path="url(#p188651df7d)" style="fill: none; stroke: #000000; stroke-linecap: round"/>
    <path d="M 288.522919 194.258316 
L 284.554951 192.195496 
L 288.585988 190.258814 
L 288.522919 194.258316 
z
" clip-path="url(#p188651df7d)" style="stroke: #000000; stroke-linecap: round"/>
   </g>
   <g id="patch_10">
    <path d="M 370.981886 191.736836 
Q 385.183598 154.35698 398.98823 118.022267 
" clip-path="url(#p188651df7d)" style="fill: none; stroke: #000000; stroke-linecap: round"/>
    <path d="M 395.697978 121.051169 
L 398.98823 118.022267 
L 399.4372 122.47181 
L 395.697978 121.051169 
z
" clip-path="url(#p188651df7d)" style="stroke: #000000; stroke-linecap: round"/>
   </g>
   <g id="patch_11">
    <path d="M 336.717891 268.425502 
Q 324.401071 291.166697 312.616708 312.924789 
" clip-path="url(#p188651df7d)" style="fill: none; stroke: #000000; stroke-linecap: round"/>
    <path d="M 316.280309 310.360022 
L 312.616708 312.924789 
L 312.763055 308.455049 
L 316.280309 310.360022 
z
" clip-path="url(#p188651df7d)" style="stroke: #000000; stroke-linecap: round"/>
   </g>
   <g id="patch_12">
    <path d="M 335.725646 267.026422 
Q 293.755569 273.70483 252.889635 280.207542 
" clip-path="url(#p188651df7d)" style="fill: none; stroke: #000000; stroke-linecap: round"/>
    <path d="M 257.154228 281.554109 
L 252.889635 280.207542 
L 256.525644 277.603807 
L 257.154228 281.554109 
z
" clip-path="url(#p188651df7d)" style="stroke: #000000; stroke-linecap: round"/>
   </g>
   <g id="patch_13">
    <path d="M 338.427921 264.957548 
Q 353.967083 230.135141 369.050638 196.333724 
" clip-path="url(#p188651df7d)" style="fill: none; stroke: #000000; stroke-linecap: round"/>
    <path d="M 365.594204 199.171517 
L 369.050638 196.333724 
L 369.247011 200.801547 
L 365.594204 199.171517 
z
" clip-path="url(#p188651df7d)" style="stroke: #000000; stroke-linecap: round"/>
   </g>
   <g id="patch_14">
    <path d="M 64.498782 233.020378 
Q 57.349069 204.467397 50.47093 176.998966 
" clip-path="url(#p188651df7d)" style="fill: none; stroke: #000000; stroke-linecap: round"/>
    <path d="M 49.502438 181.364974 
L 50.47093 176.998966 
L 53.382641 180.393365 
L 49.502438 181.364974 
z
" clip-path="url(#p188651df7d)" style="stroke: #000000; stroke-linecap: round"/>
   </g>
   <g id="patch_15">
    <path d="M 66.817976 235.466334 
Q 110.39873 248.9015 152.911068 262.007292 
" clip-path="url(#p188651df7d)" style="fill: none; stroke: #000000; stroke-linecap: round"/>
    <path d="M 149.677788 258.917648 
L 152.911068 262.007292 
L 148.499385 262.74013 
L 149.677788 258.917648 
z
" clip-path="url(#p188651df7d)" style="stroke: #000000; stroke-linecap: round"/>
   </g>
   <g id="patch_16">
    <path d="M 50.199412 175.914634 
Q 57.349124 204.467615 64.227264 231.936046 
" clip-path="url(#p188651df7d)" style="fill: none; stroke: #000000; stroke-linecap: round"/>
    <path d="M 65.195756 227.570038 
L 64.227264 231.936046 
L 61.315553 228.541648 
L 65.195756 227.570038 
z
" clip-path="url(#p188651df7d)" style="stroke: #000000; stroke-linecap: round"/>
   </g>
   <g id="patch_17">
    <path d="M 51.221765 172.804046 
Q 82.367185 147.028641 112.651276 121.966056 
" clip-path="url(#p188651df7d)" style="fill: none; stroke: #000000; stroke-linecap: round"/>
    <path d="M 108.294561 122.975529 
L 112.651276 121.966056 
L 110.844825 126.057112 
L 108.294561 122.975529 
z
" clip-path="url(#p188651df7d)" style="stroke: #000000; stroke-linecap: round"/>
   </g>
   <g id="patch_18">
    <path d="M 157.732212 263.266699 
Q 202.852026 271.796968 246.873266 280.119544 
" clip-path="url(#p188651df7d)" style="fill: none; stroke: #000000; stroke-linecap: round"/>
    <path d="M 243.314426 277.411287 
L 246.873266 280.119544 
L 242.571357 281.341662 
L 243.314426 277.411287 
z
" clip-path="url(#p188651df7d)" style="stroke: #000000; stroke-linecap: round"/>
   </g>
   <g id="patch_19">
    <path d="M 153.979867 262.336783 
Q 110.399113 248.901618 67.886776 235.795826 
" clip-path="url(#p188651df7d)" style="fill: none; stroke: #000000; stroke-linecap: round"/>
    <path d="M 71.120056 238.885469 
L 67.886776 235.795826 
L 72.298459 235.062987 
L 71.120056 238.885469 
z
" clip-path="url(#p188651df7d)" style="stroke: #000000; stroke-linecap: round"/>
   </g>
   <g id="patch_20">
    <path d="M 157.488645 261.916956 
Q 187.366646 244.090592 216.284519 226.837076 
" clip-path="url(#p188651df7d)" style="fill: none; stroke: #000000; stroke-linecap: round"/>
    <path d="M 211.82472 227.169034 
L 216.284519 226.837076 
L 213.874207 230.60409 
L 211.82472 227.169034 
z
" clip-path="url(#p188651df7d)" style="stroke: #000000; stroke-linecap: round"/>
   </g>
   <g id="patch_21">
    <path d="M 219.848512 226.961149 
Q 234.390113 252.979762 248.386263 278.022424 
" clip-path="url(#p188651df7d)" style="fill: none; stroke: #000000; stroke-linecap: round"/>
    <path d="M 248.18063 273.555019 
L 248.386263 278.022424 
L 244.688959 275.506487 
L 248.18063 273.555019 
z
" clip-path="url(#p188651df7d)" style="stroke: #000000; stroke-linecap: round"/>
   </g>
   <g id="patch_22">
    <path d="M 217.24598 226.263431 
Q 187.367979 244.089796 158.450106 261.343312 
" clip-path="url(#p188651df7d)" style="fill: none; stroke: #000000; stroke-linecap: round"/>
    <path d="M 162.909904 261.011353 
L 158.450106 261.343312 
L 160.860418 257.576298 
L 162.909904 261.011353 
z
" clip-path="url(#p188651df7d)" style="stroke: #000000; stroke-linecap: round"/>
   </g>
   <g id="patch_23">
    <path d="M 218.758908 223.343449 
Q 216.234898 190.059445 213.795428 157.890274 
" clip-path="url(#p188651df7d)" style="fill: none; stroke: #000000; stroke-linecap: round"/>
    <path d="M 212.103615 162.030053 
L 213.795428 157.890274 
L 216.092164 161.727591 
L 212.103615 162.030053 
z
" clip-path="url(#p188651df7d)" style="stroke: #000000; stroke-linecap: round"/>
   </g>
   <g id="patch_24">
    <path d="M 220.620643 224.365624 
Q 250.203552 208.709735 278.798277 193.576813 
" clip-path="url(#p188651df7d)" style="fill: none; stroke: #000000; stroke-linecap: round"/>
    <path d="M 274.327335 193.680121 
L 278.798277 193.576813 
L 276.198358 197.215552 
L 274.327335 193.680121 
z
" clip-path="url(#p188651df7d)" style="stroke: #000000; stroke-linecap: round"/>
   </g>
   <g id="patch_25">
    <path d="M 213.711094 156.778164 
Q 216.235104 190.062169 218.674574 222.23134 
" clip-path="url(#p188651df7d)" style="fill: none; stroke: #000000; stroke-linecap: round"/>
    <path d="M 220.366386 218.091561 
L 218.674574 222.23134 
L 216.377838 218.394022 
L 220.366386 218.091561 
z
" clip-path="url(#p188651df7d)" style="stroke: #000000; stroke-linecap: round"/>
   </g>
   <g id="patch_26">
    <path d="M 215.260617 155.779288 
Q 247.533031 173.498267 278.825411 190.679165 
" clip-path="url(#p188651df7d)" style="fill: none; stroke: #000000; stroke-linecap: round"/>
    <path d="M 276.281684 187.000924 
L 278.825411 190.679165 
L 274.356583 190.507202 
L 276.281684 187.000924 
z
" clip-path="url(#p188651df7d)" style="stroke: #000000; stroke-linecap: round"/>
   </g>
   <g id="patch_27">
    <path d="M 215.021146 153.575667 
Q 244.431662 127.878796 273.000242 102.91755 
" clip-path="url(#p188651df7d)" style="fill: none; stroke: #000000; stroke-linecap: round"/>
    <path d="M 268.672115 104.043302 
L 273.000242 102.91755 
L 271.303967 107.055502 
L 268.672115 104.043302 
z
" clip-path="url(#p188651df7d)" style="stroke: #000000; stroke-linecap: round"/>
   </g>
   <g id="patch_28">
    <path d="M 211.739011 154.202969 
Q 164.285967 137.433204 117.887067 121.035971 
" clip-path="url(#p188651df7d)" style="fill: none; stroke: #000000; stroke-linecap: round"/>
    <path d="M 120.992084 124.254491 
L 117.887067 121.035971 
L 122.324893 120.483069 
L 120.992084 124.254491 
z
" clip-path="url(#p188651df7d)" style="stroke: #000000; stroke-linecap: round"/>
   </g>
   <g id="patch_29">
    <path d="M 283.436922 192.177866 
Q 325.896617 192.847422 367.238417 193.499349 
" clip-path="url(#p188651df7d)" style="fill: none; stroke: #000000; stroke-linecap: round"/>
    <path d="M 363.270449 191.436529 
L 367.238417 193.499349 
L 363.20738 195.436032 
L 363.270449 191.436529 
z
" clip-path="url(#p188651df7d)" style="stroke: #000000; stroke-linecap: round"/>
   </g>
   <g id="patch_30">
    <path d="M 279.78404 193.055127 
Q 250.201131 208.711016 221.606406 223.843938 
" clip-path="url(#p188651df7d)" style="fill: none; stroke: #000000; stroke-linecap: round"/>
    <path d="M 226.077348 223.74063 
L 221.606406 223.843938 
L 224.206325 220.205199 
L 226.077348 223.74063 
z
" clip-path="url(#p188651df7d)" style="stroke: #000000; stroke-linecap: round"/>
   </g>
   <g id="patch_31">
    <path d="M 279.80354 191.2162 
Q 247.531125 173.497221 216.238746 156.316324 
" clip-path="url(#p188651df7d)" style="fill: none; stroke: #000000; stroke-linecap: round"/>
    <path d="M 218.782473 159.994564 
L 216.238746 156.316324 
L 220.707574 156.488286 
L 218.782473 159.994564 
z
" clip-path="url(#p188651df7d)" style="stroke: #000000; stroke-linecap: round"/>
   </g>
   <g id="patch_32">
    <path d="M 420.077726 66.414512 
Q 410.443226 89.894347 401.233149 112.339838 
" clip-path="url(#p188651df7d)" style="fill: none; stroke: #000000; stroke-linecap: round"/>
    <path d="M 404.601899 109.398491 
L 401.233149 112.339838 
L 400.901321 107.88003 
L 404.601899 109.398491 
z
" clip-path="url(#p188651df7d)" style="stroke: #000000; stroke-linecap: round"/>
   </g>
   <g id="patch_33">
    <path d="M 418.876511 64.605014 
Q 379.226958 64.25599 340.695395 63.916807 
" clip-path="url(#p188651df7d)" style="fill: none; stroke: #000000; stroke-linecap: round"/>
    <path d="M 344.677636 65.951939 
L 340.695395 63.916807 
L 344.712845 61.952094 
L 344.677636 65.951939 
z
" clip-path="url(#p188651df7d)" style="stroke: #000000; stroke-linecap: round"/>
   </g>
   <g id="patch_34">
    <path d="M 399.38451 116.97923 
Q 385.182798 154.359086 371.378167 190.693799 
" clip-path="url(#p188651df7d)" style="fill: none; stroke: #000000; stroke-linecap: round"/>
    <path d="M 374.668418 187.664897 
L 371.378167 190.693799 
L 370.929197 186.244256 
L 374.668418 187.664897 
z
" clip-path="url(#p188651df7d)" style="stroke: #000000; stroke-linecap: round"/>
   </g>
   <g id="patch_35">
    <path d="M 400.807945 113.376084 
Q 410.442445 89.896249 419.652522 67.450758 
" clip-path="url(#p188651df7d)" style="fill: none; stroke: #000000; stroke-linecap: round"/>
    <path d="M 416.283772 70.392105 
L 419.652522 67.450758 
L 419.98435 71.910566 
L 416.283772 70.392105 
z
" clip-path="url(#p188651df7d)" style="stroke: #000000; stroke-linecap: round"/>
   </g>
   <g id="patch_36">
    <path d="M 398.57486 113.938522 
Q 368.856201 89.529738 340.001518 65.830562 
" clip-path="url(#p188651df7d)" style="fill: none; stroke: #000000; stroke-linecap: round"/>
    <path d="M 341.823188 69.914864 
L 340.001518 65.830562 
L 344.361962 66.823807 
L 341.823188 69.914864 
z
" clip-path="url(#p188651df7d)" style="stroke: #000000; stroke-linecap: round"/>
   </g>
   <g id="patch_37">
    <path d="M 339.575396 63.906948 
Q 379.22495 64.255972 417.756512 64.595155 
" clip-path="url(#p188651df7d)" style="fill: none; stroke: #000000; stroke-linecap: round"/>
    <path d="M 413.774272 62.560023 
L 417.756512 64.595155 
L 413.739063 66.559868 
L 413.774272 62.560023 
z
" clip-path="url(#p188651df7d)" style="stroke: #000000; stroke-linecap: round"/>
   </g>
   <g id="patch_38">
    <path d="M 339.136272 65.119911 
Q 368.854931 89.528695 397.709614 113.22787 
" clip-path="url(#p188651df7d)" style="fill: none; stroke: #000000; stroke-linecap: round"/>
    <path d="M 395.887944 109.143569 
L 397.709614 113.22787 
L 393.34917 112.234626 
L 395.887944 109.143569 
z
" clip-path="url(#p188651df7d)" style="stroke: #000000; stroke-linecap: round"/>
   </g>
   <g id="patch_39">
    <path d="M 335.976041 64.877198 
Q 306.470819 82.397763 277.926917 99.347484 
" clip-path="url(#p188651df7d)" style="fill: none; stroke: #000000; stroke-linecap: round"/>
    <path d="M 282.387399 99.024832 
L 277.926917 99.347484 
L 280.345085 95.585508 
L 282.387399 99.024832 
z
" clip-path="url(#p188651df7d)" style="stroke: #000000; stroke-linecap: round"/>
   </g>
   <g id="patch_40">
    <path d="M 335.789444 63.320765 
Q 285.849427 47.950906 236.977982 32.909917 
" clip-path="url(#p188651df7d)" style="fill: none; stroke: #000000; stroke-linecap: round"/>
    <path d="M 240.212717 35.998038 
L 236.977982 32.909917 
L 241.389319 32.175001 
L 240.212717 35.998038 
z
" clip-path="url(#p188651df7d)" style="stroke: #000000; stroke-linecap: round"/>
   </g>
   <g id="patch_41">
    <path d="M 273.846454 102.178189 
Q 244.435938 127.87506 215.867357 152.836306 
" clip-path="url(#p188651df7d)" style="fill: none; stroke: #000000; stroke-linecap: round"/>
    <path d="M 220.195484 151.710554 
L 215.867357 152.836306 
L 217.563632 148.698353 
L 220.195484 151.710554 
z
" clip-path="url(#p188651df7d)" style="stroke: #000000; stroke-linecap: round"/>
   </g>
   <g id="patch_42">
    <path d="M 276.965505 99.918382 
Q 306.470727 82.397817 335.014629 65.448096 
" clip-path="url(#p188651df7d)" style="fill: none; stroke: #000000; stroke-linecap: round"/>
    <path d="M 330.554147 65.770747 
L 335.014629 65.448096 
L 332.59646 69.210072 
L 330.554147 65.770747 
z
" clip-path="url(#p188651df7d)" style="stroke: #000000; stroke-linecap: round"/>
   </g>
   <g id="patch_43">
    <path d="M 235.905169 32.579742 
Q 285.845185 47.949601 334.716631 62.990589 
" clip-path="url(#p188651df7d)" style="fill: none; stroke: #000000; stroke-linecap: round"/>
    <path d="M 331.481896 59.902469 
L 334.716631 62.990589 
L 330.305294 63.725506 
L 331.481896 59.902469 
z
" clip-path="url(#p188651df7d)" style="stroke: #000000; stroke-linecap: round"/>
   </g>
   <g id="patch_44">
    <path d="M 232.138333 32.298467 
Q 179.604978 40.184496 128.177268 47.904552 
" clip-path="url(#p188651df7d)" style="fill: none; stroke: #000000; stroke-linecap: round"/>
    <path d="M 132.42985 49.288585 
L 128.177268 47.904552 
L 131.836044 45.332907 
L 132.42985 49.288585 
z
" clip-path="url(#p188651df7d)" style="stroke: #000000; stroke-linecap: round"/>
   </g>
   <g id="patch_45">
    <path d="M 127.07274 48.070358 
Q 179.606095 40.184328 231.033805 32.464273 
" clip-path="url(#p188651df7d)" style="fill: none; stroke: #000000; stroke-linecap: round"/>
    <path d="M 226.781223 31.080239 
L 231.033805 32.464273 
L 227.375029 35.035918 
L 226.781223 31.080239 
z
" clip-path="url(#p188651df7d)" style="stroke: #000000; stroke-linecap: round"/>
   </g>
   <g id="patch_46">
    <path d="M 123.260378 47.949575 
Q 82.570215 39.173989 42.972958 30.634108 
" clip-path="url(#p188651df7d)" style="fill: none; stroke: #000000; stroke-linecap: round"/>
    <path d="M 46.461414 33.432442 
L 42.972958 30.634108 
L 47.304699 29.522344 
L 46.461414 33.432442 
z
" clip-path="url(#p188651df7d)" style="stroke: #000000; stroke-linecap: round"/>
   </g>
   <g id="patch_47">
    <path d="M 124.883194 50.278291 
Q 120.080342 84.188126 115.43428 116.990975 
" clip-path="url(#p188651df7d)" style="fill: none; stroke: #000000; stroke-linecap: round"/>
    <path d="M 117.975461 113.310975 
L 115.43428 116.990975 
L 114.014989 112.75003 
L 117.975461 113.310975 
z
" clip-path="url(#p188651df7d)" style="stroke: #000000; stroke-linecap: round"/>
   </g>
   <g id="patch_48">
    <path d="M 41.881544 30.398724 
Q 82.571707 39.174311 122.168965 47.714192 
" clip-path="url(#p188651df7d)" style="fill: none; stroke: #000000; stroke-linecap: round"/>
    <path d="M 118.680509 44.915857 
L 122.168965 47.714192 
L 117.837223 48.825956 
L 118.680509 44.915857 
z
" clip-path="url(#p188651df7d)" style="stroke: #000000; stroke-linecap: round"/>
   </g>
   <g id="patch_49">
    <path d="M 113.513537 121.252464 
Q 82.368117 147.027869 52.084026 172.090454 
" clip-path="url(#p188651df7d)" style="fill: none; stroke: #000000; stroke-linecap: round"/>
    <path d="M 56.440741 171.080981 
L 52.084026 172.090454 
L 53.890477 167.999398 
L 56.440741 171.080981 
z
" clip-path="url(#p188651df7d)" style="stroke: #000000; stroke-linecap: round"/>
   </g>
   <g id="patch_50">
    <path d="M 116.831318 120.662872 
Q 164.284362 137.432637 210.683262 153.82987 
" clip-path="url(#p188651df7d)" style="fill: none; stroke: #000000; stroke-linecap: round"/>
    <path d="M 207.578245 150.611351 
L 210.683262 153.82987 
L 206.245436 154.382772 
L 207.578245 150.611351 
z
" clip-path="url(#p188651df7d)" style="stroke: #000000; stroke-linecap: round"/>
   </g>
   <g id="patch_51">
    <path d="M 115.277543 118.097592 
Q 120.080394 84.187757 124.726457 51.384908 
" clip-path="url(#p188651df7d)" style="fill: none; stroke: #000000; stroke-linecap: round"/>
    <path d="M 122.185276 55.064908 
L 124.726457 51.384908 
L 126.145748 55.625853 
L 122.185276 55.064908 
z
" clip-path="url(#p188651df7d)" style="stroke: #000000; stroke-linecap: round"/>
   </g>
   <g id="PathCollection_1">
    <defs>
     <path id="m0aa55a9b06" d="M 0 1.936492 
C 0.513564 1.936492 1.006162 1.732451 1.369306 1.369306 
C 1.732451 1.006162 1.936492 0.513564 1.936492 0 
C 1.936492 -0.513564 1.732451 -1.006162 1.369306 -1.369306 
C 1.006162 -1.732451 0.513564 -1.936492 0 -1.936492 
C -0.513564 -1.936492 -1.006162 -1.732451 -1.369306 -1.369306 
C -1.732451 -1.006162 -1.936492 -0.513564 -1.936492 0 
C -1.936492 0.513564 -1.732451 1.006162 -1.369306 1.369306 
C -1.006162 1.732451 -0.513564 1.936492 0 1.936492 
z
" style="stroke: #1f78b4"/>
    </defs>
    <g clip-path="url(#p188651df7d)">
     <use xlink:href="#m0aa55a9b06" x="311.162421" y="315.609917" style="fill: #1f78b4; stroke: #1f78b4"/>
     <use xlink:href="#m0aa55a9b06" x="249.875558" y="280.687151" style="fill: #1f78b4; stroke: #1f78b4"/>
     <use xlink:href="#m0aa55a9b06" x="370.293949" y="193.547533" style="fill: #1f78b4; stroke: #1f78b4"/>
     <use xlink:href="#m0aa55a9b06" x="337.640687" y="266.721695" style="fill: #1f78b4; stroke: #1f78b4"/>
     <use xlink:href="#m0aa55a9b06" x="64.968483" y="234.896168" style="fill: #1f78b4; stroke: #1f78b4"/>
     <use xlink:href="#m0aa55a9b06" x="49.729711" y="174.038844" style="fill: #1f78b4; stroke: #1f78b4"/>
     <use xlink:href="#m0aa55a9b06" x="155.829361" y="262.906949" style="fill: #1f78b4; stroke: #1f78b4"/>
     <use xlink:href="#m0aa55a9b06" x="218.905264" y="225.273439" style="fill: #1f78b4; stroke: #1f78b4"/>
     <use xlink:href="#m0aa55a9b06" x="213.564738" y="154.848175" style="fill: #1f78b4; stroke: #1f78b4"/>
     <use xlink:href="#m0aa55a9b06" x="281.499419" y="192.147313" style="fill: #1f78b4; stroke: #1f78b4"/>
     <use xlink:href="#m0aa55a9b06" x="420.813223" y="64.622062" style="fill: #1f78b4; stroke: #1f78b4"/>
     <use xlink:href="#m0aa55a9b06" x="400.072448" y="115.168533" style="fill: #1f78b4; stroke: #1f78b4"/>
     <use xlink:href="#m0aa55a9b06" x="337.638684" y="63.889899" style="fill: #1f78b4; stroke: #1f78b4"/>
     <use xlink:href="#m0aa55a9b06" x="275.302861" y="100.90568" style="fill: #1f78b4; stroke: #1f78b4"/>
     <use xlink:href="#m0aa55a9b06" x="234.055928" y="32.010608" style="fill: #1f78b4; stroke: #1f78b4"/>
     <use xlink:href="#m0aa55a9b06" x="125.155145" y="48.358217" style="fill: #1f78b4; stroke: #1f78b4"/>
     <use xlink:href="#m0aa55a9b06" x="39.986777" y="29.990083" style="fill: #1f78b4; stroke: #1f78b4"/>
     <use xlink:href="#m0aa55a9b06" x="115.005591" y="120.017666" style="fill: #1f78b4; stroke: #1f78b4"/>
    </g>
   </g>
   <g id="text_1">
    <g clip-path="url(#p188651df7d)">
     <!-- 0 -->
     <g transform="translate(307.981171 318.369292) scale(0.1 -0.1)">
      <defs>
       <path id="DejaVuSans-30" d="M 2034 4250 
Q 1547 4250 1301 3770 
Q 1056 3291 1056 2328 
Q 1056 1369 1301 889 
Q 1547 409 2034 409 
Q 2525 409 2770 889 
Q 3016 1369 3016 2328 
Q 3016 3291 2770 3770 
Q 2525 4250 2034 4250 
z
M 2034 4750 
Q 2819 4750 3233 4129 
Q 3647 3509 3647 2328 
Q 3647 1150 3233 529 
Q 2819 -91 2034 -91 
Q 1250 -91 836 529 
Q 422 1150 422 2328 
Q 422 3509 836 4129 
Q 1250 4750 2034 4750 
z
" transform="scale(0.015625)"/>
      </defs>
      <use xlink:href="#DejaVuSans-30"/>
     </g>
    </g>
   </g>
   <g id="text_2">
    <g clip-path="url(#p188651df7d)">
     <!-- 1 -->
     <g transform="translate(246.694308 283.446526) scale(0.1 -0.1)">
      <defs>
       <path id="DejaVuSans-31" d="M 794 531 
L 1825 531 
L 1825 4091 
L 703 3866 
L 703 4441 
L 1819 4666 
L 2450 4666 
L 2450 531 
L 3481 531 
L 3481 0 
L 794 0 
L 794 531 
z
" transform="scale(0.015625)"/>
      </defs>
      <use xlink:href="#DejaVuSans-31"/>
     </g>
    </g>
   </g>
   <g id="text_3">
    <g clip-path="url(#p188651df7d)">
     <!-- 2 -->
     <g transform="translate(367.112699 196.306908) scale(0.1 -0.1)">
      <defs>
       <path id="DejaVuSans-32" d="M 1228 531 
L 3431 531 
L 3431 0 
L 469 0 
L 469 531 
Q 828 903 1448 1529 
Q 2069 2156 2228 2338 
Q 2531 2678 2651 2914 
Q 2772 3150 2772 3378 
Q 2772 3750 2511 3984 
Q 2250 4219 1831 4219 
Q 1534 4219 1204 4116 
Q 875 4013 500 3803 
L 500 4441 
Q 881 4594 1212 4672 
Q 1544 4750 1819 4750 
Q 2544 4750 2975 4387 
Q 3406 4025 3406 3419 
Q 3406 3131 3298 2873 
Q 3191 2616 2906 2266 
Q 2828 2175 2409 1742 
Q 1991 1309 1228 531 
z
" transform="scale(0.015625)"/>
      </defs>
      <use xlink:href="#DejaVuSans-32"/>
     </g>
    </g>
   </g>
   <g id="text_4">
    <g clip-path="url(#p188651df7d)">
     <!-- 3 -->
     <g transform="translate(334.459437 269.48107) scale(0.1 -0.1)">
      <defs>
       <path id="DejaVuSans-33" d="M 2597 2516 
Q 3050 2419 3304 2112 
Q 3559 1806 3559 1356 
Q 3559 666 3084 287 
Q 2609 -91 1734 -91 
Q 1441 -91 1130 -33 
Q 819 25 488 141 
L 488 750 
Q 750 597 1062 519 
Q 1375 441 1716 441 
Q 2309 441 2620 675 
Q 2931 909 2931 1356 
Q 2931 1769 2642 2001 
Q 2353 2234 1838 2234 
L 1294 2234 
L 1294 2753 
L 1863 2753 
Q 2328 2753 2575 2939 
Q 2822 3125 2822 3475 
Q 2822 3834 2567 4026 
Q 2313 4219 1838 4219 
Q 1578 4219 1281 4162 
Q 984 4106 628 3988 
L 628 4550 
Q 988 4650 1302 4700 
Q 1616 4750 1894 4750 
Q 2613 4750 3031 4423 
Q 3450 4097 3450 3541 
Q 3450 3153 3228 2886 
Q 3006 2619 2597 2516 
z
" transform="scale(0.015625)"/>
      </defs>
      <use xlink:href="#DejaVuSans-33"/>
     </g>
    </g>
   </g>
   <g id="text_5">
    <g clip-path="url(#p188651df7d)">
     <!-- 4 -->
     <g transform="translate(61.787233 237.655543) scale(0.1 -0.1)">
      <defs>
       <path id="DejaVuSans-34" d="M 2419 4116 
L 825 1625 
L 2419 1625 
L 2419 4116 
z
M 2253 4666 
L 3047 4666 
L 3047 1625 
L 3713 1625 
L 3713 1100 
L 3047 1100 
L 3047 0 
L 2419 0 
L 2419 1100 
L 313 1100 
L 313 1709 
L 2253 4666 
z
" transform="scale(0.015625)"/>
      </defs>
      <use xlink:href="#DejaVuSans-34"/>
     </g>
    </g>
   </g>
   <g id="text_6">
    <g clip-path="url(#p188651df7d)">
     <!-- 5 -->
     <g transform="translate(46.548461 176.798219) scale(0.1 -0.1)">
      <defs>
       <path id="DejaVuSans-35" d="M 691 4666 
L 3169 4666 
L 3169 4134 
L 1269 4134 
L 1269 2991 
Q 1406 3038 1543 3061 
Q 1681 3084 1819 3084 
Q 2600 3084 3056 2656 
Q 3513 2228 3513 1497 
Q 3513 744 3044 326 
Q 2575 -91 1722 -91 
Q 1428 -91 1123 -41 
Q 819 9 494 109 
L 494 744 
Q 775 591 1075 516 
Q 1375 441 1709 441 
Q 2250 441 2565 725 
Q 2881 1009 2881 1497 
Q 2881 1984 2565 2268 
Q 2250 2553 1709 2553 
Q 1456 2553 1204 2497 
Q 953 2441 691 2322 
L 691 4666 
z
" transform="scale(0.015625)"/>
      </defs>
      <use xlink:href="#DejaVuSans-35"/>
     </g>
    </g>
   </g>
   <g id="text_7">
    <g clip-path="url(#p188651df7d)">
     <!-- 6 -->
     <g transform="translate(152.648111 265.666324) scale(0.1 -0.1)">
      <defs>
       <path id="DejaVuSans-36" d="M 2113 2584 
Q 1688 2584 1439 2293 
Q 1191 2003 1191 1497 
Q 1191 994 1439 701 
Q 1688 409 2113 409 
Q 2538 409 2786 701 
Q 3034 994 3034 1497 
Q 3034 2003 2786 2293 
Q 2538 2584 2113 2584 
z
M 3366 4563 
L 3366 3988 
Q 3128 4100 2886 4159 
Q 2644 4219 2406 4219 
Q 1781 4219 1451 3797 
Q 1122 3375 1075 2522 
Q 1259 2794 1537 2939 
Q 1816 3084 2150 3084 
Q 2853 3084 3261 2657 
Q 3669 2231 3669 1497 
Q 3669 778 3244 343 
Q 2819 -91 2113 -91 
Q 1303 -91 875 529 
Q 447 1150 447 2328 
Q 447 3434 972 4092 
Q 1497 4750 2381 4750 
Q 2619 4750 2861 4703 
Q 3103 4656 3366 4563 
z
" transform="scale(0.015625)"/>
      </defs>
      <use xlink:href="#DejaVuSans-36"/>
     </g>
    </g>
   </g>
   <g id="text_8">
    <g clip-path="url(#p188651df7d)">
     <!-- 7 -->
     <g transform="translate(215.724014 228.032814) scale(0.1 -0.1)">
      <defs>
       <path id="DejaVuSans-37" d="M 525 4666 
L 3525 4666 
L 3525 4397 
L 1831 0 
L 1172 0 
L 2766 4134 
L 525 4134 
L 525 4666 
z
" transform="scale(0.015625)"/>
      </defs>
      <use xlink:href="#DejaVuSans-37"/>
     </g>
    </g>
   </g>
   <g id="text_9">
    <g clip-path="url(#p188651df7d)">
     <!-- 8 -->
     <g transform="translate(210.383488 157.60755) scale(0.1 -0.1)">
      <defs>
       <path id="DejaVuSans-38" d="M 2034 2216 
Q 1584 2216 1326 1975 
Q 1069 1734 1069 1313 
Q 1069 891 1326 650 
Q 1584 409 2034 409 
Q 2484 409 2743 651 
Q 3003 894 3003 1313 
Q 3003 1734 2745 1975 
Q 2488 2216 2034 2216 
z
M 1403 2484 
Q 997 2584 770 2862 
Q 544 3141 544 3541 
Q 544 4100 942 4425 
Q 1341 4750 2034 4750 
Q 2731 4750 3128 4425 
Q 3525 4100 3525 3541 
Q 3525 3141 3298 2862 
Q 3072 2584 2669 2484 
Q 3125 2378 3379 2068 
Q 3634 1759 3634 1313 
Q 3634 634 3220 271 
Q 2806 -91 2034 -91 
Q 1263 -91 848 271 
Q 434 634 434 1313 
Q 434 1759 690 2068 
Q 947 2378 1403 2484 
z
M 1172 3481 
Q 1172 3119 1398 2916 
Q 1625 2713 2034 2713 
Q 2441 2713 2670 2916 
Q 2900 3119 2900 3481 
Q 2900 3844 2670 4047 
Q 2441 4250 2034 4250 
Q 1625 4250 1398 4047 
Q 1172 3844 1172 3481 
z
" transform="scale(0.015625)"/>
      </defs>
      <use xlink:href="#DejaVuSans-38"/>
     </g>
    </g>
   </g>
   <g id="text_10">
    <g clip-path="url(#p188651df7d)">
     <!-- 9 -->
     <g transform="translate(278.318169 194.906688) scale(0.1 -0.1)">
      <defs>
       <path id="DejaVuSans-39" d="M 703 97 
L 703 672 
Q 941 559 1184 500 
Q 1428 441 1663 441 
Q 2288 441 2617 861 
Q 2947 1281 2994 2138 
Q 2813 1869 2534 1725 
Q 2256 1581 1919 1581 
Q 1219 1581 811 2004 
Q 403 2428 403 3163 
Q 403 3881 828 4315 
Q 1253 4750 1959 4750 
Q 2769 4750 3195 4129 
Q 3622 3509 3622 2328 
Q 3622 1225 3098 567 
Q 2575 -91 1691 -91 
Q 1453 -91 1209 -44 
Q 966 3 703 97 
z
M 1959 2075 
Q 2384 2075 2632 2365 
Q 2881 2656 2881 3163 
Q 2881 3666 2632 3958 
Q 2384 4250 1959 4250 
Q 1534 4250 1286 3958 
Q 1038 3666 1038 3163 
Q 1038 2656 1286 2365 
Q 1534 2075 1959 2075 
z
" transform="scale(0.015625)"/>
      </defs>
      <use xlink:href="#DejaVuSans-39"/>
     </g>
    </g>
   </g>
   <g id="text_11">
    <g clip-path="url(#p188651df7d)">
     <!-- 10 -->
     <g transform="translate(414.450723 67.381437) scale(0.1 -0.1)">
      <use xlink:href="#DejaVuSans-31"/>
      <use xlink:href="#DejaVuSans-30" x="63.623047"/>
     </g>
    </g>
   </g>
   <g id="text_12">
    <g clip-path="url(#p188651df7d)">
     <!-- 11 -->
     <g transform="translate(393.709948 117.927908) scale(0.1 -0.1)">
      <use xlink:href="#DejaVuSans-31"/>
      <use xlink:href="#DejaVuSans-31" x="63.623047"/>
     </g>
    </g>
   </g>
   <g id="text_13">
    <g clip-path="url(#p188651df7d)">
     <!-- 12 -->
     <g transform="translate(331.276184 66.649274) scale(0.1 -0.1)">
      <use xlink:href="#DejaVuSans-31"/>
      <use xlink:href="#DejaVuSans-32" x="63.623047"/>
     </g>
    </g>
   </g>
   <g id="text_14">
    <g clip-path="url(#p188651df7d)">
     <!-- 13 -->
     <g transform="translate(268.940361 103.665055) scale(0.1 -0.1)">
      <use xlink:href="#DejaVuSans-31"/>
      <use xlink:href="#DejaVuSans-33" x="63.623047"/>
     </g>
    </g>
   </g>
   <g id="text_15">
    <g clip-path="url(#p188651df7d)">
     <!-- 14 -->
     <g transform="translate(227.693428 34.769983) scale(0.1 -0.1)">
      <use xlink:href="#DejaVuSans-31"/>
      <use xlink:href="#DejaVuSans-34" x="63.623047"/>
     </g>
    </g>
   </g>
   <g id="text_16">
    <g clip-path="url(#p188651df7d)">
     <!-- 15 -->
     <g transform="translate(118.792645 51.117592) scale(0.1 -0.1)">
      <use xlink:href="#DejaVuSans-31"/>
      <use xlink:href="#DejaVuSans-35" x="63.623047"/>
     </g>
    </g>
   </g>
   <g id="text_17">
    <g clip-path="url(#p188651df7d)">
     <!-- 16 -->
     <g transform="translate(33.624277 32.749458) scale(0.1 -0.1)">
      <use xlink:href="#DejaVuSans-31"/>
      <use xlink:href="#DejaVuSans-36" x="63.623047"/>
     </g>
    </g>
   </g>
   <g id="text_18">
    <g clip-path="url(#p188651df7d)">
     <!-- 17 -->
     <g transform="translate(108.643091 122.777041) scale(0.1 -0.1)">
      <use xlink:href="#DejaVuSans-31"/>
      <use xlink:href="#DejaVuSans-37" x="63.623047"/>
     </g>
    </g>
   </g>
  </g>
 </g>
 <defs>
  <clipPath id="p188651df7d">
   <rect x="0" y="0" width="460.8" height="345.6"/>
  </clipPath>
 </defs>
</svg>
