<?xml version="1.0" encoding="utf-8" standalone="no"?>
<!DOCTYPE svg PUBLIC "-//W3C//DTD SVG 1.1//EN"
  "http://www.w3.org/Graphics/SVG/1.1/DTD/svg11.dtd">
<svg xmlns:xlink="http://www.w3.org/1999/xlink" width="460.8pt" height="345.6pt" viewBox="0 0 460.8 345.6" xmlns="http://www.w3.org/2000/svg" version="1.1">
 <metadata>
  <rdf:RDF xmlns:dc="http://purl.org/dc/elements/1.1/" xmlns:cc="http://creativecommons.org/ns#" xmlns:rdf="http://www.w3.org/1999/02/22-rdf-syntax-ns#">
   <cc:Work>
    <dc:type rdf:resource="http://purl.org/dc/dcmitype/StillImage"/>
    <dc:date>2023-10-10T10:55:11.519938</dc:date>
    <dc:format>image/svg+xml</dc:format>
    <dc:creator>
     <cc:Agent>
      <dc:title>Matplotlib v3.6.1, https://matplotlib.org/</dc:title>
     </cc:Agent>
    </dc:creator>
   </cc:Work>
  </rdf:RDF>
 </metadata>
 <defs>
  <style type="text/css">*{stroke-linejoin: round; stroke-linecap: butt}</style>
 </defs>
 <g id="figure_1">
  <g id="patch_1">
   <path d="M 0 345.6 
L 460.8 345.6 
L 460.8 0 
L 0 0 
z
" style="fill: #ffffff"/>
  </g>
  <g id="axes_1">
   <g id="patch_2">
    <path d="M 41.579636 144.531505 
Q 52.414044 152.041479 62.32958 158.914528 
" clip-path="url(#p3346147b10)" style="fill: none; stroke: #000000; stroke-linecap: round"/>
    <path d="M 60.181489 154.992067 
L 62.32958 158.914528 
L 57.902756 158.279524 
L 60.181489 154.992067 
z
" clip-path="url(#p3346147b10)" style="stroke: #000000; stroke-linecap: round"/>
   </g>
   <g id="patch_3">
    <path d="M 41.628365 142.395286 
Q 58.954261 131.502004 75.333655 121.203815 
" clip-path="url(#p3346147b10)" style="fill: none; stroke: #000000; stroke-linecap: round"/>
    <path d="M 70.882815 121.639729 
L 75.333655 121.203815 
L 73.011882 125.026036 
L 70.882815 121.639729 
z
" clip-path="url(#p3346147b10)" style="stroke: #000000; stroke-linecap: round"/>
   </g>
   <g id="patch_4">
    <path d="M 224.733068 43.312997 
Q 223.482832 57.896729 222.328092 71.366513 
" clip-path="url(#p3346147b10)" style="fill: none; stroke: #000000; stroke-linecap: round"/>
    <path d="M 224.662443 67.55196 
L 222.328092 71.366513 
L 220.677061 67.210301 
L 224.662443 67.55196 
z
" clip-path="url(#p3346147b10)" style="stroke: #000000; stroke-linecap: round"/>
   </g>
   <g id="patch_5">
    <path d="M 226.691068 40.649972 
Q 241.932799 34.428572 256.139407 28.629691 
" clip-path="url(#p3346147b10)" style="fill: none; stroke: #000000; stroke-linecap: round"/>
    <path d="M 251.680217 28.289655 
L 256.139407 28.629691 
L 253.191864 31.993021 
L 251.680217 28.289655 
z
" clip-path="url(#p3346147b10)" style="stroke: #000000; stroke-linecap: round"/>
   </g>
   <g id="patch_6">
    <path d="M 107.407068 143.452602 
Q 87.02187 151.691358 67.673249 159.511178 
" clip-path="url(#p3346147b10)" style="fill: none; stroke: #000000; stroke-linecap: round"/>
    <path d="M 72.131237 159.86663 
L 67.673249 159.511178 
L 70.632403 156.158059 
L 72.131237 159.86663 
z
" clip-path="url(#p3346147b10)" style="stroke: #000000; stroke-linecap: round"/>
   </g>
   <g id="patch_7">
    <path d="M 110.665029 141.457787 
Q 127.724693 126.655113 143.939902 112.585173 
" clip-path="url(#p3346147b10)" style="fill: none; stroke: #000000; stroke-linecap: round"/>
    <path d="M 139.607939 113.696072 
L 143.939902 112.585173 
L 142.229444 116.717283 
L 139.607939 113.696072 
z
" clip-path="url(#p3346147b10)" style="stroke: #000000; stroke-linecap: round"/>
   </g>
   <g id="patch_8">
    <path d="M 63.248595 159.551553 
Q 52.414187 152.041578 42.498652 145.168529 
" clip-path="url(#p3346147b10)" style="fill: none; stroke: #000000; stroke-linecap: round"/>
    <path d="M 44.646743 149.090991 
L 42.498652 145.168529 
L 46.925476 145.803533 
L 44.646743 149.090991 
z
" clip-path="url(#p3346147b10)" style="stroke: #000000; stroke-linecap: round"/>
   </g>
   <g id="patch_9">
    <path d="M 66.63657 159.930156 
Q 87.021767 151.6914 106.370388 143.87158 
" clip-path="url(#p3346147b10)" style="fill: none; stroke: #000000; stroke-linecap: round"/>
    <path d="M 101.912401 143.516128 
L 106.370388 143.87158 
L 103.411234 147.224699 
L 101.912401 143.516128 
z
" clip-path="url(#p3346147b10)" style="stroke: #000000; stroke-linecap: round"/>
   </g>
   <g id="patch_10">
    <path d="M 356.979707 52.712464 
Q 376.505247 60.918352 395.000077 68.691069 
" clip-path="url(#p3346147b10)" style="fill: none; stroke: #000000; stroke-linecap: round"/>
    <path d="M 392.087376 65.297521 
L 395.000077 68.691069 
L 390.537617 68.985101 
L 392.087376 65.297521 
z
" clip-path="url(#p3346147b10)" style="stroke: #000000; stroke-linecap: round"/>
   </g>
   <g id="patch_11">
    <path d="M 353.258753 51.956729 
Q 321.561556 51.881648 290.98239 51.809216 
" clip-path="url(#p3346147b10)" style="fill: none; stroke: #000000; stroke-linecap: round"/>
    <path d="M 294.977642 53.818685 
L 290.98239 51.809216 
L 294.987116 49.818696 
L 294.977642 53.818685 
z
" clip-path="url(#p3346147b10)" style="stroke: #000000; stroke-linecap: round"/>
   </g>
   <g id="patch_12">
    <path d="M 419.238474 85.176415 
Q 409.316581 78.089014 400.304456 71.651478 
" clip-path="url(#p3346147b10)" style="fill: none; stroke: #000000; stroke-linecap: round"/>
    <path d="M 402.396825 75.603944 
L 400.304456 71.651478 
L 404.721851 72.349062 
L 402.396825 75.603944 
z
" clip-path="url(#p3346147b10)" style="stroke: #000000; stroke-linecap: round"/>
   </g>
   <g id="patch_13">
    <path d="M 418.880361 86.419584 
Q 392.386591 88.041058 367.008767 89.594234 
" clip-path="url(#p3346147b10)" style="fill: none; stroke: #000000; stroke-linecap: round"/>
    <path d="M 371.123472 91.346148 
L 367.008767 89.594234 
L 370.879121 87.353618 
L 371.123472 91.346148 
z
" clip-path="url(#p3346147b10)" style="stroke: #000000; stroke-linecap: round"/>
   </g>
   <g id="patch_14">
    <path d="M 257.174784 28.207068 
Q 241.933054 34.428468 227.726446 40.227349 
" clip-path="url(#p3346147b10)" style="fill: none; stroke: #000000; stroke-linecap: round"/>
    <path d="M 232.185636 40.567385 
L 227.726446 40.227349 
L 230.673989 36.864019 
L 232.185636 40.567385 
z
" clip-path="url(#p3346147b10)" style="stroke: #000000; stroke-linecap: round"/>
   </g>
   <g id="patch_15">
    <path d="M 260.448609 28.719674 
Q 273.446488 39.636718 285.588244 49.834696 
" clip-path="url(#p3346147b10)" style="fill: none; stroke: #000000; stroke-linecap: round"/>
    <path d="M 283.811592 45.730612 
L 285.588244 49.834696 
L 281.238986 48.793568 
L 283.811592 45.730612 
z
" clip-path="url(#p3346147b10)" style="stroke: #000000; stroke-linecap: round"/>
   </g>
   <g id="patch_16">
    <path d="M 289.864123 51.806567 
Q 321.56132 51.881648 352.140486 51.95408 
" clip-path="url(#p3346147b10)" style="fill: none; stroke: #000000; stroke-linecap: round"/>
    <path d="M 348.145235 49.944611 
L 352.140486 51.95408 
L 348.13576 53.9446 
L 348.145235 49.944611 
z
" clip-path="url(#p3346147b10)" style="stroke: #000000; stroke-linecap: round"/>
   </g>
   <g id="patch_17">
    <path d="M 286.44911 50.557746 
Q 273.451232 39.640702 261.309475 29.442723 
" clip-path="url(#p3346147b10)" style="fill: none; stroke: #000000; stroke-linecap: round"/>
    <path d="M 263.086128 33.546807 
L 261.309475 29.442723 
L 265.658734 30.483852 
L 263.086128 33.546807 
z
" clip-path="url(#p3346147b10)" style="stroke: #000000; stroke-linecap: round"/>
   </g>
   <g id="patch_18">
    <path d="M 289.215014 50.351718 
Q 300.856534 37.20787 311.756764 24.900975 
" clip-path="url(#p3346147b10)" style="fill: none; stroke: #000000; stroke-linecap: round"/>
    <path d="M 307.607459 26.569288 
L 311.756764 24.900975 
L 310.601832 29.221407 
L 307.607459 26.569288 
z
" clip-path="url(#p3346147b10)" style="stroke: #000000; stroke-linecap: round"/>
   </g>
   <g id="patch_19">
    <path d="M 286.101412 52.429912 
Q 255.000685 63.106725 224.957414 73.420516 
" clip-path="url(#p3346147b10)" style="fill: none; stroke: #000000; stroke-linecap: round"/>
    <path d="M 229.39008 74.013363 
L 224.957414 73.420516 
L 228.091291 70.230091 
L 229.39008 74.013363 
z
" clip-path="url(#p3346147b10)" style="stroke: #000000; stroke-linecap: round"/>
   </g>
   <g id="patch_20">
    <path d="M 287.528571 53.693722 
Q 284.450283 68.181781 281.604357 81.576218 
" clip-path="url(#p3346147b10)" style="fill: none; stroke: #000000; stroke-linecap: round"/>
    <path d="M 284.392012 78.079222 
L 281.604357 81.576218 
L 280.479353 77.247897 
L 284.392012 78.079222 
z
" clip-path="url(#p3346147b10)" style="stroke: #000000; stroke-linecap: round"/>
   </g>
   <g id="patch_21">
    <path d="M 396.030619 69.124169 
Q 376.505079 60.918282 358.010249 53.145564 
" clip-path="url(#p3346147b10)" style="fill: none; stroke: #000000; stroke-linecap: round"/>
    <path d="M 360.92295 56.539113 
L 358.010249 53.145564 
L 362.472709 52.851533 
L 360.92295 56.539113 
z
" clip-path="url(#p3346147b10)" style="stroke: #000000; stroke-linecap: round"/>
   </g>
   <g id="patch_22">
    <path d="M 399.392708 71.000198 
Q 409.314601 78.087599 418.326726 84.525136 
" clip-path="url(#p3346147b10)" style="fill: none; stroke: #000000; stroke-linecap: round"/>
    <path d="M 416.234357 80.572669 
L 418.326726 84.525136 
L 413.909331 83.827551 
L 416.234357 80.572669 
z
" clip-path="url(#p3346147b10)" style="stroke: #000000; stroke-linecap: round"/>
   </g>
   <g id="patch_23">
    <path d="M 396.152271 70.854567 
Q 380.89055 79.82679 366.592646 88.232394 
" clip-path="url(#p3346147b10)" style="fill: none; stroke: #000000; stroke-linecap: round"/>
    <path d="M 371.054501 87.929324 
L 366.592646 88.232394 
L 369.027303 84.481068 
L 371.054501 87.929324 
z
" clip-path="url(#p3346147b10)" style="stroke: #000000; stroke-linecap: round"/>
   </g>
   <g id="patch_24">
    <path d="M 312.50022 24.061578 
Q 300.8587 37.205425 289.95847 49.51232 
" clip-path="url(#p3346147b10)" style="fill: none; stroke: #000000; stroke-linecap: round"/>
    <path d="M 294.107775 47.844007 
L 289.95847 49.51232 
L 291.113402 45.191889 
L 294.107775 47.844007 
z
" clip-path="url(#p3346147b10)" style="stroke: #000000; stroke-linecap: round"/>
   </g>
   <g id="patch_25">
    <path d="M 184.514527 67.210732 
Q 190.41229 74.960839 195.632991 81.821234 
" clip-path="url(#p3346147b10)" style="fill: none; stroke: #000000; stroke-linecap: round"/>
    <path d="M 194.802222 77.42694 
L 195.632991 81.821234 
L 191.619094 79.849272 
L 194.802222 77.42694 
z
" clip-path="url(#p3346147b10)" style="stroke: #000000; stroke-linecap: round"/>
   </g>
   <g id="patch_26">
    <path d="M 185.228586 66.09636 
Q 202.701171 70.040887 219.083169 73.739208 
" clip-path="url(#p3346147b10)" style="fill: none; stroke: #000000; stroke-linecap: round"/>
    <path d="M 215.621789 70.907451 
L 219.083169 73.739208 
L 214.740935 74.809258 
L 215.621789 70.907451 
z
" clip-path="url(#p3346147b10)" style="stroke: #000000; stroke-linecap: round"/>
   </g>
   <g id="patch_27">
    <path d="M 127.275067 84.110719 
Q 161.412788 84.179628 194.432477 84.24628 
" clip-path="url(#p3346147b10)" style="fill: none; stroke: #000000; stroke-linecap: round"/>
    <path d="M 190.436522 82.23821 
L 194.432477 84.24628 
L 190.428448 86.238201 
L 190.436522 82.23821 
z
" clip-path="url(#p3346147b10)" style="stroke: #000000; stroke-linecap: round"/>
   </g>
   <g id="patch_28">
    <path d="M 123.444577 84.485843 
Q 98.861255 89.396328 75.374309 94.087815 
" clip-path="url(#p3346147b10)" style="fill: none; stroke: #000000; stroke-linecap: round"/>
    <path d="M 79.688579 95.265554 
L 75.374309 94.087815 
L 78.905063 91.343042 
L 79.688579 95.265554 
z
" clip-path="url(#p3346147b10)" style="stroke: #000000; stroke-linecap: round"/>
   </g>
   <g id="patch_29">
    <path d="M 76.280004 120.608819 
Q 58.954108 131.5021 42.574714 141.800289 
" clip-path="url(#p3346147b10)" style="fill: none; stroke: #000000; stroke-linecap: round"/>
    <path d="M 47.025554 141.364376 
L 42.574714 141.800289 
L 44.896487 137.978069 
L 47.025554 141.364376 
z
" clip-path="url(#p3346147b10)" style="stroke: #000000; stroke-linecap: round"/>
   </g>
   <g id="patch_30">
    <path d="M 79.844048 119.323683 
Q 112.086475 115.080123 143.220428 110.982453 
" clip-path="url(#p3346147b10)" style="fill: none; stroke: #000000; stroke-linecap: round"/>
    <path d="M 138.993651 109.521509 
L 143.220428 110.982453 
L 139.515607 113.487308 
L 138.993651 109.521509 
z
" clip-path="url(#p3346147b10)" style="stroke: #000000; stroke-linecap: round"/>
   </g>
   <g id="patch_31">
    <path d="M 77.500143 117.683769 
Q 75.150315 107.129536 73.04346 97.666616 
" clip-path="url(#p3346147b10)" style="fill: none; stroke: #000000; stroke-linecap: round"/>
    <path d="M 71.960548 102.00566 
L 73.04346 97.666616 
L 75.864948 101.136372 
L 71.960548 102.00566 
z
" clip-path="url(#p3346147b10)" style="stroke: #000000; stroke-linecap: round"/>
   </g>
   <g id="patch_32">
    <path d="M 144.783053 111.853571 
Q 127.723389 126.656244 111.50818 140.726185 
" clip-path="url(#p3346147b10)" style="fill: none; stroke: #000000; stroke-linecap: round"/>
    <path d="M 115.840143 139.615285 
L 111.50818 140.726185 
L 113.218638 136.594075 
L 115.840143 139.615285 
z
" clip-path="url(#p3346147b10)" style="stroke: #000000; stroke-linecap: round"/>
   </g>
   <g id="patch_33">
    <path d="M 144.323444 110.837281 
Q 112.081017 115.080841 80.947064 119.178511 
" clip-path="url(#p3346147b10)" style="fill: none; stroke: #000000; stroke-linecap: round"/>
    <path d="M 85.173841 120.639455 
L 80.947064 119.178511 
L 84.651885 116.673656 
L 85.173841 120.639455 
z
" clip-path="url(#p3346147b10)" style="stroke: #000000; stroke-linecap: round"/>
   </g>
   <g id="patch_34">
    <path d="M 147.992875 109.75084 
Q 184.1562 92.498639 219.310439 75.727835 
" clip-path="url(#p3346147b10)" style="fill: none; stroke: #000000; stroke-linecap: round"/>
    <path d="M 214.83907 75.64503 
L 219.310439 75.727835 
L 216.561373 79.255247 
L 214.83907 75.64503 
z
" clip-path="url(#p3346147b10)" style="stroke: #000000; stroke-linecap: round"/>
   </g>
   <g id="patch_35">
    <path d="M 365.891488 89.662614 
Q 392.385258 88.04114 417.763083 86.487964 
" clip-path="url(#p3346147b10)" style="fill: none; stroke: #000000; stroke-linecap: round"/>
    <path d="M 413.648378 84.73605 
L 417.763083 86.487964 
L 413.892729 88.72858 
L 413.648378 84.73605 
z
" clip-path="url(#p3346147b10)" style="stroke: #000000; stroke-linecap: round"/>
   </g>
   <g id="patch_36">
    <path d="M 365.624314 88.801667 
Q 380.886035 79.829444 395.183939 71.42384 
" clip-path="url(#p3346147b10)" style="fill: none; stroke: #000000; stroke-linecap: round"/>
    <path d="M 390.722085 71.726909 
L 395.183939 71.42384 
L 392.749282 75.175166 
L 390.722085 71.726909 
z
" clip-path="url(#p3346147b10)" style="stroke: #000000; stroke-linecap: round"/>
   </g>
   <g id="patch_37">
    <path d="M 362.026226 89.659466 
Q 322.464936 87.173219 284.019479 84.757096 
" clip-path="url(#p3346147b10)" style="fill: none; stroke: #000000; stroke-linecap: round"/>
    <path d="M 287.88616 87.004045 
L 284.019479 84.757096 
L 288.137047 83.011921 
L 287.88616 87.004045 
z
" clip-path="url(#p3346147b10)" style="stroke: #000000; stroke-linecap: round"/>
   </g>
   <g id="patch_38">
    <path d="M 364.341013 91.680629 
Q 366.56459 102.727472 368.567546 112.678264 
" clip-path="url(#p3346147b10)" style="fill: none; stroke: #000000; stroke-linecap: round"/>
    <path d="M 369.738908 108.362257 
L 368.567546 112.678264 
L 365.817558 109.151571 
L 369.738908 108.362257 
z
" clip-path="url(#p3346147b10)" style="stroke: #000000; stroke-linecap: round"/>
   </g>
   <g id="patch_39">
    <path d="M 368.788412 113.775537 
Q 366.564836 102.728694 364.561879 92.777901 
" clip-path="url(#p3346147b10)" style="fill: none; stroke: #000000; stroke-linecap: round"/>
    <path d="M 363.390518 97.093908 
L 364.561879 92.777901 
L 367.311867 96.304594 
L 363.390518 97.093908 
z
" clip-path="url(#p3346147b10)" style="stroke: #000000; stroke-linecap: round"/>
   </g>
   <g id="patch_40">
    <path d="M 367.252053 115.423375 
Q 346.09012 112.64537 326.03671 110.012885 
" clip-path="url(#p3346147b10)" style="fill: none; stroke: #000000; stroke-linecap: round"/>
    <path d="M 329.742369 112.516499 
L 326.03671 110.012885 
L 330.262997 108.550526 
L 329.742369 112.516499 
z
" clip-path="url(#p3346147b10)" style="stroke: #000000; stroke-linecap: round"/>
   </g>
   <g id="patch_41">
    <path d="M 324.926926 109.867199 
Q 346.088859 112.645204 366.142269 115.27769 
" clip-path="url(#p3346147b10)" style="fill: none; stroke: #000000; stroke-linecap: round"/>
    <path d="M 362.43661 112.774075 
L 366.142269 115.27769 
L 361.915982 116.740049 
L 362.43661 112.774075 
z
" clip-path="url(#p3346147b10)" style="stroke: #000000; stroke-linecap: round"/>
   </g>
   <g id="patch_42">
    <path d="M 321.342941 108.623046 
Q 301.987764 97.089796 283.593038 86.128855 
" clip-path="url(#p3346147b10)" style="fill: none; stroke: #000000; stroke-linecap: round"/>
    <path d="M 286.005474 89.894509 
L 283.593038 86.128855 
L 288.053023 86.458298 
L 286.005474 89.894509 
z
" clip-path="url(#p3346147b10)" style="stroke: #000000; stroke-linecap: round"/>
   </g>
   <g id="patch_43">
    <path d="M 281.371181 82.673668 
Q 284.449469 68.185609 287.295395 54.791172 
" clip-path="url(#p3346147b10)" style="fill: none; stroke: #000000; stroke-linecap: round"/>
    <path d="M 284.50774 58.288168 
L 287.295395 54.791172 
L 288.420399 59.119493 
L 284.50774 58.288168 
z
" clip-path="url(#p3346147b10)" style="stroke: #000000; stroke-linecap: round"/>
   </g>
   <g id="patch_44">
    <path d="M 282.901643 84.686845 
Q 322.462932 87.173093 360.908389 89.589215 
" clip-path="url(#p3346147b10)" style="fill: none; stroke: #000000; stroke-linecap: round"/>
    <path d="M 357.041708 87.342266 
L 360.908389 89.589215 
L 356.790822 91.334391 
L 357.041708 87.342266 
z
" clip-path="url(#p3346147b10)" style="stroke: #000000; stroke-linecap: round"/>
   </g>
   <g id="patch_45">
    <path d="M 282.634481 85.557676 
Q 301.989658 97.090925 320.384384 108.051867 
" clip-path="url(#p3346147b10)" style="fill: none; stroke: #000000; stroke-linecap: round"/>
    <path d="M 317.971948 104.286212 
L 320.384384 108.051867 
L 315.924399 107.722423 
L 317.971948 104.286212 
z
" clip-path="url(#p3346147b10)" style="stroke: #000000; stroke-linecap: round"/>
   </g>
   <g id="patch_46">
    <path d="M 279.030371 84.558135 
Q 239.224818 84.408915 200.537292 84.263887 
" clip-path="url(#p3346147b10)" style="fill: none; stroke: #000000; stroke-linecap: round"/>
    <path d="M 204.529766 86.278867 
L 200.537292 84.263887 
L 204.544761 82.278896 
L 204.529766 86.278867 
z
" clip-path="url(#p3346147b10)" style="stroke: #000000; stroke-linecap: round"/>
   </g>
   <g id="patch_47">
    <path d="M 279.060238 84.236361 
Q 251.518463 79.489171 225.078475 74.931888 
" clip-path="url(#p3346147b10)" style="fill: none; stroke: #000000; stroke-linecap: round"/>
    <path d="M 228.680632 77.582259 
L 225.078475 74.931888 
L 229.360066 73.640385 
L 228.680632 77.582259 
z
" clip-path="url(#p3346147b10)" style="stroke: #000000; stroke-linecap: round"/>
   </g>
   <g id="patch_48">
    <path d="M 196.311058 82.712265 
Q 190.413294 74.962158 185.192594 68.101763 
" clip-path="url(#p3346147b10)" style="fill: none; stroke: #000000; stroke-linecap: round"/>
    <path d="M 186.023362 72.496057 
L 185.192594 68.101763 
L 189.206491 70.073725 
L 186.023362 72.496057 
z
" clip-path="url(#p3346147b10)" style="stroke: #000000; stroke-linecap: round"/>
   </g>
   <g id="patch_49">
    <path d="M 195.550138 84.248536 
Q 161.412417 84.179627 128.392728 84.112975 
" clip-path="url(#p3346147b10)" style="fill: none; stroke: #000000; stroke-linecap: round"/>
    <path d="M 132.388682 86.121045 
L 128.392728 84.112975 
L 132.396757 82.121053 
L 132.388682 86.121045 
z
" clip-path="url(#p3346147b10)" style="stroke: #000000; stroke-linecap: round"/>
   </g>
   <g id="patch_50">
    <path d="M 199.421987 84.259706 
Q 239.22754 84.408925 277.915066 84.553954 
" clip-path="url(#p3346147b10)" style="fill: none; stroke: #000000; stroke-linecap: round"/>
    <path d="M 273.922592 82.538973 
L 277.915066 84.553954 
L 273.907597 86.538945 
L 273.922592 82.538973 
z
" clip-path="url(#p3346147b10)" style="stroke: #000000; stroke-linecap: round"/>
   </g>
   <g id="patch_51">
    <path d="M 222.232514 72.48142 
Q 223.48275 57.897688 224.637489 44.427905 
" clip-path="url(#p3346147b10)" style="fill: none; stroke: #000000; stroke-linecap: round"/>
    <path d="M 222.303139 48.242457 
L 224.637489 44.427905 
L 226.288521 48.584116 
L 222.303139 48.242457 
z
" clip-path="url(#p3346147b10)" style="stroke: #000000; stroke-linecap: round"/>
   </g>
   <g id="patch_52">
    <path d="M 223.896036 73.784885 
Q 254.996764 63.108072 285.040035 52.794281 
" clip-path="url(#p3346147b10)" style="fill: none; stroke: #000000; stroke-linecap: round"/>
    <path d="M 280.607368 52.201434 
L 285.040035 52.794281 
L 281.906157 55.984706 
L 280.607368 52.201434 
z
" clip-path="url(#p3346147b10)" style="stroke: #000000; stroke-linecap: round"/>
   </g>
   <g id="patch_53">
    <path d="M 220.180823 73.987009 
Q 202.708237 70.042482 186.32624 66.344161 
" clip-path="url(#p3346147b10)" style="fill: none; stroke: #000000; stroke-linecap: round"/>
    <path d="M 189.78762 69.175918 
L 186.32624 66.344161 
L 190.668473 65.274111 
L 189.78762 69.175918 
z
" clip-path="url(#p3346147b10)" style="stroke: #000000; stroke-linecap: round"/>
   </g>
   <g id="patch_54">
    <path d="M 220.319964 75.246228 
Q 184.156639 92.498429 149.0024 109.269233 
" clip-path="url(#p3346147b10)" style="fill: none; stroke: #000000; stroke-linecap: round"/>
    <path d="M 153.473769 109.352039 
L 149.0024 109.269233 
L 151.751466 105.741821 
L 153.473769 109.352039 
z
" clip-path="url(#p3346147b10)" style="stroke: #000000; stroke-linecap: round"/>
   </g>
   <g id="patch_55">
    <path d="M 223.975943 74.741852 
Q 251.517719 79.489042 277.957707 84.046325 
" clip-path="url(#p3346147b10)" style="fill: none; stroke: #000000; stroke-linecap: round"/>
    <path d="M 274.35555 81.395954 
L 277.957707 84.046325 
L 273.676116 85.337827 
L 274.35555 81.395954 
z
" clip-path="url(#p3346147b10)" style="stroke: #000000; stroke-linecap: round"/>
   </g>
   <g id="patch_56">
    <path d="M 74.277348 94.306931 
Q 98.86067 89.396445 122.347616 84.704959 
" clip-path="url(#p3346147b10)" style="fill: none; stroke: #000000; stroke-linecap: round"/>
    <path d="M 118.033346 83.52722 
L 122.347616 84.704959 
L 118.816862 87.449732 
L 118.033346 83.52722 
z
" clip-path="url(#p3346147b10)" style="stroke: #000000; stroke-linecap: round"/>
   </g>
   <g id="patch_57">
    <path d="M 72.801285 96.578893 
Q 75.151114 107.133126 77.257969 116.596046 
" clip-path="url(#p3346147b10)" style="fill: none; stroke: #000000; stroke-linecap: round"/>
    <path d="M 78.340881 112.257002 
L 77.257969 116.596046 
L 74.436481 113.12629 
L 78.340881 112.257002 
z
" clip-path="url(#p3346147b10)" style="stroke: #000000; stroke-linecap: round"/>
   </g>
   <g id="PathCollection_1">
    <defs>
     <path id="m6b08b18fcc" d="M 0 1.936492 
C 0.513564 1.936492 1.006162 1.732451 1.369306 1.369306 
C 1.732451 1.006162 1.936492 0.513564 1.936492 0 
C 1.936492 -0.513564 1.732451 -1.006162 1.369306 -1.369306 
C 1.006162 -1.732451 0.513564 -1.936492 0 -1.936492 
C -0.513564 -1.936492 -1.006162 -1.732451 -1.369306 -1.369306 
C -1.732451 -1.006162 -1.936492 -0.513564 -1.936492 0 
C -1.936492 0.513564 -1.732451 1.006162 -1.369306 1.369306 
C -1.006162 1.732451 -0.513564 1.936492 0 1.936492 
z
" style="stroke: #1f78b4"/>
    </defs>
    <g clip-path="url(#p3346147b10)">
     <use xlink:href="#m6b08b18fcc" x="39.986777" y="143.427399" style="fill: #1f78b4; stroke: #1f78b4"/>
     <use xlink:href="#m6b08b18fcc" x="224.898642" y="41.381607" style="fill: #1f78b4; stroke: #1f78b4"/>
     <use xlink:href="#m6b08b18fcc" x="109.202182" y="142.727099" style="fill: #1f78b4; stroke: #1f78b4"/>
     <use xlink:href="#m6b08b18fcc" x="64.841455" y="160.655659" style="fill: #1f78b4; stroke: #1f78b4"/>
     <use xlink:href="#m6b08b18fcc" x="355.192367" y="51.961309" style="fill: #1f78b4; stroke: #1f78b4"/>
     <use xlink:href="#m6b08b18fcc" x="420.813223" y="86.301289" style="fill: #1f78b4; stroke: #1f78b4"/>
     <use xlink:href="#m6b08b18fcc" x="258.96721" y="27.475432" style="fill: #1f78b4; stroke: #1f78b4"/>
     <use xlink:href="#m6b08b18fcc" x="287.930509" y="51.801987" style="fill: #1f78b4; stroke: #1f78b4"/>
     <use xlink:href="#m6b08b18fcc" x="397.817959" y="69.875325" style="fill: #1f78b4; stroke: #1f78b4"/>
     <use xlink:href="#m6b08b18fcc" x="313.784725" y="22.611308" style="fill: #1f78b4; stroke: #1f78b4"/>
     <use xlink:href="#m6b08b18fcc" x="183.342469" y="65.670559" style="fill: #1f78b4; stroke: #1f78b4"/>
     <use xlink:href="#m6b08b18fcc" x="125.342089" y="84.106817" style="fill: #1f78b4; stroke: #1f78b4"/>
     <use xlink:href="#m6b08b18fcc" x="77.921593" y="119.576706" style="fill: #1f78b4; stroke: #1f78b4"/>
     <use xlink:href="#m6b08b18fcc" x="146.2459" y="110.584258" style="fill: #1f78b4; stroke: #1f78b4"/>
     <use xlink:href="#m6b08b18fcc" x="363.958626" y="89.780909" style="fill: #1f78b4; stroke: #1f78b4"/>
     <use xlink:href="#m6b08b18fcc" x="369.170799" y="115.675256" style="fill: #1f78b4; stroke: #1f78b4"/>
     <use xlink:href="#m6b08b18fcc" x="323.00818" y="109.615318" style="fill: #1f78b4; stroke: #1f78b4"/>
     <use xlink:href="#m6b08b18fcc" x="280.969243" y="84.565403" style="fill: #1f78b4; stroke: #1f78b4"/>
     <use xlink:href="#m6b08b18fcc" x="197.483115" y="84.252438" style="fill: #1f78b4; stroke: #1f78b4"/>
     <use xlink:href="#m6b08b18fcc" x="222.066939" y="74.41281" style="fill: #1f78b4; stroke: #1f78b4"/>
     <use xlink:href="#m6b08b18fcc" x="280.249205" y="329.890909" style="fill: #1f78b4; stroke: #1f78b4"/>
     <use xlink:href="#m6b08b18fcc" x="72.379836" y="94.685957" style="fill: #1f78b4; stroke: #1f78b4"/>
    </g>
   </g>
   <g id="text_1">
    <g clip-path="url(#p3346147b10)">
     <!-- 0 -->
     <g transform="translate(36.805527 146.186774) scale(0.1 -0.1)">
      <defs>
       <path id="DejaVuSans-30" d="M 2034 4250 
Q 1547 4250 1301 3770 
Q 1056 3291 1056 2328 
Q 1056 1369 1301 889 
Q 1547 409 2034 409 
Q 2525 409 2770 889 
Q 3016 1369 3016 2328 
Q 3016 3291 2770 3770 
Q 2525 4250 2034 4250 
z
M 2034 4750 
Q 2819 4750 3233 4129 
Q 3647 3509 3647 2328 
Q 3647 1150 3233 529 
Q 2819 -91 2034 -91 
Q 1250 -91 836 529 
Q 422 1150 422 2328 
Q 422 3509 836 4129 
Q 1250 4750 2034 4750 
z
" transform="scale(0.015625)"/>
      </defs>
      <use xlink:href="#DejaVuSans-30"/>
     </g>
    </g>
   </g>
   <g id="text_2">
    <g clip-path="url(#p3346147b10)">
     <!-- 1 -->
     <g transform="translate(221.717392 44.140982) scale(0.1 -0.1)">
      <defs>
       <path id="DejaVuSans-31" d="M 794 531 
L 1825 531 
L 1825 4091 
L 703 3866 
L 703 4441 
L 1819 4666 
L 2450 4666 
L 2450 531 
L 3481 531 
L 3481 0 
L 794 0 
L 794 531 
z
" transform="scale(0.015625)"/>
      </defs>
      <use xlink:href="#DejaVuSans-31"/>
     </g>
    </g>
   </g>
   <g id="text_3">
    <g clip-path="url(#p3346147b10)">
     <!-- 2 -->
     <g transform="translate(106.020932 145.486474) scale(0.1 -0.1)">
      <defs>
       <path id="DejaVuSans-32" d="M 1228 531 
L 3431 531 
L 3431 0 
L 469 0 
L 469 531 
Q 828 903 1448 1529 
Q 2069 2156 2228 2338 
Q 2531 2678 2651 2914 
Q 2772 3150 2772 3378 
Q 2772 3750 2511 3984 
Q 2250 4219 1831 4219 
Q 1534 4219 1204 4116 
Q 875 4013 500 3803 
L 500 4441 
Q 881 4594 1212 4672 
Q 1544 4750 1819 4750 
Q 2544 4750 2975 4387 
Q 3406 4025 3406 3419 
Q 3406 3131 3298 2873 
Q 3191 2616 2906 2266 
Q 2828 2175 2409 1742 
Q 1991 1309 1228 531 
z
" transform="scale(0.015625)"/>
      </defs>
      <use xlink:href="#DejaVuSans-32"/>
     </g>
    </g>
   </g>
   <g id="text_4">
    <g clip-path="url(#p3346147b10)">
     <!-- 3 -->
     <g transform="translate(61.660205 163.415034) scale(0.1 -0.1)">
      <defs>
       <path id="DejaVuSans-33" d="M 2597 2516 
Q 3050 2419 3304 2112 
Q 3559 1806 3559 1356 
Q 3559 666 3084 287 
Q 2609 -91 1734 -91 
Q 1441 -91 1130 -33 
Q 819 25 488 141 
L 488 750 
Q 750 597 1062 519 
Q 1375 441 1716 441 
Q 2309 441 2620 675 
Q 2931 909 2931 1356 
Q 2931 1769 2642 2001 
Q 2353 2234 1838 2234 
L 1294 2234 
L 1294 2753 
L 1863 2753 
Q 2328 2753 2575 2939 
Q 2822 3125 2822 3475 
Q 2822 3834 2567 4026 
Q 2313 4219 1838 4219 
Q 1578 4219 1281 4162 
Q 984 4106 628 3988 
L 628 4550 
Q 988 4650 1302 4700 
Q 1616 4750 1894 4750 
Q 2613 4750 3031 4423 
Q 3450 4097 3450 3541 
Q 3450 3153 3228 2886 
Q 3006 2619 2597 2516 
z
" transform="scale(0.015625)"/>
      </defs>
      <use xlink:href="#DejaVuSans-33"/>
     </g>
    </g>
   </g>
   <g id="text_5">
    <g clip-path="url(#p3346147b10)">
     <!-- 4 -->
     <g transform="translate(352.011117 54.720684) scale(0.1 -0.1)">
      <defs>
       <path id="DejaVuSans-34" d="M 2419 4116 
L 825 1625 
L 2419 1625 
L 2419 4116 
z
M 2253 4666 
L 3047 4666 
L 3047 1625 
L 3713 1625 
L 3713 1100 
L 3047 1100 
L 3047 0 
L 2419 0 
L 2419 1100 
L 313 1100 
L 313 1709 
L 2253 4666 
z
" transform="scale(0.015625)"/>
      </defs>
      <use xlink:href="#DejaVuSans-34"/>
     </g>
    </g>
   </g>
   <g id="text_6">
    <g clip-path="url(#p3346147b10)">
     <!-- 5 -->
     <g transform="translate(417.631973 89.060664) scale(0.1 -0.1)">
      <defs>
       <path id="DejaVuSans-35" d="M 691 4666 
L 3169 4666 
L 3169 4134 
L 1269 4134 
L 1269 2991 
Q 1406 3038 1543 3061 
Q 1681 3084 1819 3084 
Q 2600 3084 3056 2656 
Q 3513 2228 3513 1497 
Q 3513 744 3044 326 
Q 2575 -91 1722 -91 
Q 1428 -91 1123 -41 
Q 819 9 494 109 
L 494 744 
Q 775 591 1075 516 
Q 1375 441 1709 441 
Q 2250 441 2565 725 
Q 2881 1009 2881 1497 
Q 2881 1984 2565 2268 
Q 2250 2553 1709 2553 
Q 1456 2553 1204 2497 
Q 953 2441 691 2322 
L 691 4666 
z
" transform="scale(0.015625)"/>
      </defs>
      <use xlink:href="#DejaVuSans-35"/>
     </g>
    </g>
   </g>
   <g id="text_7">
    <g clip-path="url(#p3346147b10)">
     <!-- 6 -->
     <g transform="translate(255.78596 30.234807) scale(0.1 -0.1)">
      <defs>
       <path id="DejaVuSans-36" d="M 2113 2584 
Q 1688 2584 1439 2293 
Q 1191 2003 1191 1497 
Q 1191 994 1439 701 
Q 1688 409 2113 409 
Q 2538 409 2786 701 
Q 3034 994 3034 1497 
Q 3034 2003 2786 2293 
Q 2538 2584 2113 2584 
z
M 3366 4563 
L 3366 3988 
Q 3128 4100 2886 4159 
Q 2644 4219 2406 4219 
Q 1781 4219 1451 3797 
Q 1122 3375 1075 2522 
Q 1259 2794 1537 2939 
Q 1816 3084 2150 3084 
Q 2853 3084 3261 2657 
Q 3669 2231 3669 1497 
Q 3669 778 3244 343 
Q 2819 -91 2113 -91 
Q 1303 -91 875 529 
Q 447 1150 447 2328 
Q 447 3434 972 4092 
Q 1497 4750 2381 4750 
Q 2619 4750 2861 4703 
Q 3103 4656 3366 4563 
z
" transform="scale(0.015625)"/>
      </defs>
      <use xlink:href="#DejaVuSans-36"/>
     </g>
    </g>
   </g>
   <g id="text_8">
    <g clip-path="url(#p3346147b10)">
     <!-- 7 -->
     <g transform="translate(284.749259 54.561362) scale(0.1 -0.1)">
      <defs>
       <path id="DejaVuSans-37" d="M 525 4666 
L 3525 4666 
L 3525 4397 
L 1831 0 
L 1172 0 
L 2766 4134 
L 525 4134 
L 525 4666 
z
" transform="scale(0.015625)"/>
      </defs>
      <use xlink:href="#DejaVuSans-37"/>
     </g>
    </g>
   </g>
   <g id="text_9">
    <g clip-path="url(#p3346147b10)">
     <!-- 8 -->
     <g transform="translate(394.636709 72.6347) scale(0.1 -0.1)">
      <defs>
       <path id="DejaVuSans-38" d="M 2034 2216 
Q 1584 2216 1326 1975 
Q 1069 1734 1069 1313 
Q 1069 891 1326 650 
Q 1584 409 2034 409 
Q 2484 409 2743 651 
Q 3003 894 3003 1313 
Q 3003 1734 2745 1975 
Q 2488 2216 2034 2216 
z
M 1403 2484 
Q 997 2584 770 2862 
Q 544 3141 544 3541 
Q 544 4100 942 4425 
Q 1341 4750 2034 4750 
Q 2731 4750 3128 4425 
Q 3525 4100 3525 3541 
Q 3525 3141 3298 2862 
Q 3072 2584 2669 2484 
Q 3125 2378 3379 2068 
Q 3634 1759 3634 1313 
Q 3634 634 3220 271 
Q 2806 -91 2034 -91 
Q 1263 -91 848 271 
Q 434 634 434 1313 
Q 434 1759 690 2068 
Q 947 2378 1403 2484 
z
M 1172 3481 
Q 1172 3119 1398 2916 
Q 1625 2713 2034 2713 
Q 2441 2713 2670 2916 
Q 2900 3119 2900 3481 
Q 2900 3844 2670 4047 
Q 2441 4250 2034 4250 
Q 1625 4250 1398 4047 
Q 1172 3844 1172 3481 
z
" transform="scale(0.015625)"/>
      </defs>
      <use xlink:href="#DejaVuSans-38"/>
     </g>
    </g>
   </g>
   <g id="text_10">
    <g clip-path="url(#p3346147b10)">
     <!-- 9 -->
     <g transform="translate(310.603475 25.370683) scale(0.1 -0.1)">
      <defs>
       <path id="DejaVuSans-39" d="M 703 97 
L 703 672 
Q 941 559 1184 500 
Q 1428 441 1663 441 
Q 2288 441 2617 861 
Q 2947 1281 2994 2138 
Q 2813 1869 2534 1725 
Q 2256 1581 1919 1581 
Q 1219 1581 811 2004 
Q 403 2428 403 3163 
Q 403 3881 828 4315 
Q 1253 4750 1959 4750 
Q 2769 4750 3195 4129 
Q 3622 3509 3622 2328 
Q 3622 1225 3098 567 
Q 2575 -91 1691 -91 
Q 1453 -91 1209 -44 
Q 966 3 703 97 
z
M 1959 2075 
Q 2384 2075 2632 2365 
Q 2881 2656 2881 3163 
Q 2881 3666 2632 3958 
Q 2384 4250 1959 4250 
Q 1534 4250 1286 3958 
Q 1038 3666 1038 3163 
Q 1038 2656 1286 2365 
Q 1534 2075 1959 2075 
z
" transform="scale(0.015625)"/>
      </defs>
      <use xlink:href="#DejaVuSans-39"/>
     </g>
    </g>
   </g>
   <g id="text_11">
    <g clip-path="url(#p3346147b10)">
     <!-- 10 -->
     <g transform="translate(176.979969 68.429934) scale(0.1 -0.1)">
      <use xlink:href="#DejaVuSans-31"/>
      <use xlink:href="#DejaVuSans-30" x="63.623047"/>
     </g>
    </g>
   </g>
   <g id="text_12">
    <g clip-path="url(#p3346147b10)">
     <!-- 11 -->
     <g transform="translate(118.979589 86.866192) scale(0.1 -0.1)">
      <use xlink:href="#DejaVuSans-31"/>
      <use xlink:href="#DejaVuSans-31" x="63.623047"/>
     </g>
    </g>
   </g>
   <g id="text_13">
    <g clip-path="url(#p3346147b10)">
     <!-- 12 -->
     <g transform="translate(71.559093 122.336081) scale(0.1 -0.1)">
      <use xlink:href="#DejaVuSans-31"/>
      <use xlink:href="#DejaVuSans-32" x="63.623047"/>
     </g>
    </g>
   </g>
   <g id="text_14">
    <g clip-path="url(#p3346147b10)">
     <!-- 13 -->
     <g transform="translate(139.8834 113.343633) scale(0.1 -0.1)">
      <use xlink:href="#DejaVuSans-31"/>
      <use xlink:href="#DejaVuSans-33" x="63.623047"/>
     </g>
    </g>
   </g>
   <g id="text_15">
    <g clip-path="url(#p3346147b10)">
     <!-- 14 -->
     <g transform="translate(357.596126 92.540284) scale(0.1 -0.1)">
      <use xlink:href="#DejaVuSans-31"/>
      <use xlink:href="#DejaVuSans-34" x="63.623047"/>
     </g>
    </g>
   </g>
   <g id="text_16">
    <g clip-path="url(#p3346147b10)">
     <!-- 15 -->
     <g transform="translate(362.808299 118.434631) scale(0.1 -0.1)">
      <use xlink:href="#DejaVuSans-31"/>
      <use xlink:href="#DejaVuSans-35" x="63.623047"/>
     </g>
    </g>
   </g>
   <g id="text_17">
    <g clip-path="url(#p3346147b10)">
     <!-- 16 -->
     <g transform="translate(316.64568 112.374693) scale(0.1 -0.1)">
      <use xlink:href="#DejaVuSans-31"/>
      <use xlink:href="#DejaVuSans-36" x="63.623047"/>
     </g>
    </g>
   </g>
   <g id="text_18">
    <g clip-path="url(#p3346147b10)">
     <!-- 17 -->
     <g transform="translate(274.606743 87.324778) scale(0.1 -0.1)">
      <use xlink:href="#DejaVuSans-31"/>
      <use xlink:href="#DejaVuSans-37" x="63.623047"/>
     </g>
    </g>
   </g>
   <g id="text_19">
    <g clip-path="url(#p3346147b10)">
     <!-- 18 -->
     <g transform="translate(191.120615 87.011813) scale(0.1 -0.1)">
      <use xlink:href="#DejaVuSans-31"/>
      <use xlink:href="#DejaVuSans-38" x="63.623047"/>
     </g>
    </g>
   </g>
   <g id="text_20">
    <g clip-path="url(#p3346147b10)">
     <!-- 19 -->
     <g transform="translate(215.704439 77.172185) scale(0.1 -0.1)">
      <use xlink:href="#DejaVuSans-31"/>
      <use xlink:href="#DejaVuSans-39" x="63.623047"/>
     </g>
    </g>
   </g>
   <g id="text_21">
    <g clip-path="url(#p3346147b10)">
     <!-- 20 -->
     <g transform="translate(273.886705 332.650284) scale(0.1 -0.1)">
      <use xlink:href="#DejaVuSans-32"/>
      <use xlink:href="#DejaVuSans-30" x="63.623047"/>
     </g>
    </g>
   </g>
   <g id="text_22">
    <g clip-path="url(#p3346147b10)">
     <!-- 21 -->
     <g transform="translate(66.017336 97.445332) scale(0.1 -0.1)">
      <use xlink:href="#DejaVuSans-32"/>
      <use xlink:href="#DejaVuSans-31" x="63.623047"/>
     </g>
    </g>
   </g>
  </g>
 </g>
 <defs>
  <clipPath id="p3346147b10">
   <rect x="0" y="0" width="460.8" height="345.6"/>
  </clipPath>
 </defs>
</svg>
