<?xml version="1.0" encoding="utf-8" standalone="no"?>
<!DOCTYPE svg PUBLIC "-//W3C//DTD SVG 1.1//EN"
  "http://www.w3.org/Graphics/SVG/1.1/DTD/svg11.dtd">
<svg xmlns:xlink="http://www.w3.org/1999/xlink" width="460.8pt" height="345.6pt" viewBox="0 0 460.8 345.6" xmlns="http://www.w3.org/2000/svg" version="1.1">
 <metadata>
  <rdf:RDF xmlns:dc="http://purl.org/dc/elements/1.1/" xmlns:cc="http://creativecommons.org/ns#" xmlns:rdf="http://www.w3.org/1999/02/22-rdf-syntax-ns#">
   <cc:Work>
    <dc:type rdf:resource="http://purl.org/dc/dcmitype/StillImage"/>
    <dc:date>2023-10-10T10:55:18.412024</dc:date>
    <dc:format>image/svg+xml</dc:format>
    <dc:creator>
     <cc:Agent>
      <dc:title>Matplotlib v3.6.1, https://matplotlib.org/</dc:title>
     </cc:Agent>
    </dc:creator>
   </cc:Work>
  </rdf:RDF>
 </metadata>
 <defs>
  <style type="text/css">*{stroke-linejoin: round; stroke-linecap: butt}</style>
 </defs>
 <g id="figure_1">
  <g id="patch_1">
   <path d="M 0 345.6 
L 460.8 345.6 
L 460.8 0 
L 0 0 
z
" style="fill: #ffffff"/>
  </g>
  <g id="axes_1">
   <g id="patch_2">
    <path d="M 237.794559 221.725193 
Q 250.766151 198.485722 263.192828 176.222503 
" clip-path="url(#pf5f5e7fcce)" style="fill: none; stroke: #000000; stroke-linecap: round"/>
    <path d="M 259.496908 178.740474 
L 263.192828 176.222503 
L 262.989653 180.690022 
L 259.496908 178.740474 
z
" clip-path="url(#pf5f5e7fcce)" style="stroke: #000000; stroke-linecap: round"/>
   </g>
   <g id="patch_3">
    <path d="M 235.352722 222.191223 
Q 218.605192 208.52958 202.724009 195.574651 
" clip-path="url(#pf5f5e7fcce)" style="fill: none; stroke: #000000; stroke-linecap: round"/>
    <path d="M 204.559335 199.652834 
L 202.724009 195.574651 
L 207.087751 196.5533 
L 204.559335 199.652834 
z
" clip-path="url(#pf5f5e7fcce)" style="stroke: #000000; stroke-linecap: round"/>
   </g>
   <g id="patch_4">
    <path d="M 235.793137 225.039399 
Q 220.267522 248.873499 205.352148 271.770791 
" clip-path="url(#pf5f5e7fcce)" style="fill: none; stroke: #000000; stroke-linecap: round"/>
    <path d="M 209.211218 269.510798 
L 205.352148 271.770791 
L 205.859595 267.327538 
L 209.211218 269.510798 
z
" clip-path="url(#pf5f5e7fcce)" style="stroke: #000000; stroke-linecap: round"/>
   </g>
   <g id="patch_5">
    <path d="M 263.73863 175.244663 
Q 250.767038 198.484133 238.340361 220.747352 
" clip-path="url(#pf5f5e7fcce)" style="fill: none; stroke: #000000; stroke-linecap: round"/>
    <path d="M 242.036281 218.229382 
L 238.340361 220.747352 
L 238.543536 216.279834 
L 242.036281 218.229382 
z
" clip-path="url(#pf5f5e7fcce)" style="stroke: #000000; stroke-linecap: round"/>
   </g>
   <g id="patch_6">
    <path d="M 266.280841 172.46273 
Q 295.95551 152.18481 324.707084 132.537679 
" clip-path="url(#pf5f5e7fcce)" style="fill: none; stroke: #000000; stroke-linecap: round"/>
    <path d="M 320.276128 133.143175 
L 324.707084 132.537679 
L 322.532907 136.445742 
L 320.276128 133.143175 
z
" clip-path="url(#pf5f5e7fcce)" style="stroke: #000000; stroke-linecap: round"/>
   </g>
   <g id="patch_7">
    <path d="M 262.812131 173.054727 
Q 221.84905 162.075342 181.965884 151.385408 
" clip-path="url(#pf5f5e7fcce)" style="fill: none; stroke: #000000; stroke-linecap: round"/>
    <path d="M 185.311722 154.352792 
L 181.965884 151.385408 
L 186.347294 150.489168 
L 185.311722 154.352792 
z
" clip-path="url(#pf5f5e7fcce)" style="stroke: #000000; stroke-linecap: round"/>
   </g>
   <g id="patch_8">
    <path d="M 201.855161 194.865896 
Q 218.602691 208.527539 234.483874 221.482468 
" clip-path="url(#pf5f5e7fcce)" style="fill: none; stroke: #000000; stroke-linecap: round"/>
    <path d="M 232.648548 217.404285 
L 234.483874 221.482468 
L 230.120132 220.503819 
L 232.648548 217.404285 
z
" clip-path="url(#pf5f5e7fcce)" style="stroke: #000000; stroke-linecap: round"/>
   </g>
   <g id="patch_9">
    <path d="M 198.462662 194.056084 
Q 178.901323 198.323877 160.432321 202.35335 
" clip-path="url(#pf5f5e7fcce)" style="fill: none; stroke: #000000; stroke-linecap: round"/>
    <path d="M 164.766711 203.454742 
L 160.432321 202.35335 
L 163.914069 199.546673 
L 164.766711 203.454742 
z
" clip-path="url(#pf5f5e7fcce)" style="stroke: #000000; stroke-linecap: round"/>
   </g>
   <g id="patch_10">
    <path d="M 199.495113 191.906256 
Q 189.686464 172.119223 180.374375 153.333903 
" clip-path="url(#pf5f5e7fcce)" style="fill: none; stroke: #000000; stroke-linecap: round"/>
    <path d="M 180.359004 157.806013 
L 180.374375 153.333903 
L 183.94284 156.029466 
L 180.359004 157.806013 
z
" clip-path="url(#pf5f5e7fcce)" style="stroke: #000000; stroke-linecap: round"/>
   </g>
   <g id="patch_11">
    <path d="M 71.234587 94.263138 
Q 92.905583 100.264737 113.499102 105.967937 
" clip-path="url(#pf5f5e7fcce)" style="fill: none; stroke: #000000; stroke-linecap: round"/>
    <path d="M 110.177991 102.972904 
L 113.499102 105.967937 
L 109.110409 106.827805 
L 110.177991 102.972904 
z
" clip-path="url(#pf5f5e7fcce)" style="stroke: #000000; stroke-linecap: round"/>
   </g>
   <g id="patch_12">
    <path d="M 71.286612 94.016773 
Q 105.301105 98.809113 138.208498 103.445474 
" clip-path="url(#pf5f5e7fcce)" style="fill: none; stroke: #000000; stroke-linecap: round"/>
    <path d="M 134.526644 100.90698 
L 138.208498 103.445474 
L 133.968591 104.867861 
L 134.526644 100.90698 
z
" clip-path="url(#pf5f5e7fcce)" style="stroke: #000000; stroke-linecap: round"/>
   </g>
   <g id="patch_13">
    <path d="M 328.478335 100.529517 
Q 327.892131 114.706168 327.352118 127.76574 
" clip-path="url(#pf5f5e7fcce)" style="fill: none; stroke: #000000; stroke-linecap: round"/>
    <path d="M 329.515669 123.851785 
L 327.352118 127.76574 
L 325.519084 123.686526 
L 329.515669 123.851785 
z
" clip-path="url(#pf5f5e7fcce)" style="stroke: #000000; stroke-linecap: round"/>
   </g>
   <g id="patch_14">
    <path d="M 326.667584 99.033335 
Q 300.138955 105.135067 274.69991 110.986188 
" clip-path="url(#pf5f5e7fcce)" style="fill: none; stroke: #000000; stroke-linecap: round"/>
    <path d="M 279.046431 112.038685 
L 274.69991 110.986188 
L 278.14982 108.140469 
L 279.046431 112.038685 
z
" clip-path="url(#pf5f5e7fcce)" style="stroke: #000000; stroke-linecap: round"/>
   </g>
   <g id="patch_15">
    <path d="M 204.744349 272.703852 
Q 220.269963 248.869752 235.185338 225.97246 
" clip-path="url(#pf5f5e7fcce)" style="fill: none; stroke: #000000; stroke-linecap: round"/>
    <path d="M 231.326267 228.232454 
L 235.185338 225.97246 
L 234.677891 230.415713 
L 231.326267 228.232454 
z
" clip-path="url(#pf5f5e7fcce)" style="stroke: #000000; stroke-linecap: round"/>
   </g>
   <g id="patch_16">
    <path d="M 201.787344 274.729916 
Q 169.505992 281.545468 138.31856 288.130062 
" clip-path="url(#pf5f5e7fcce)" style="fill: none; stroke: #000000; stroke-linecap: round"/>
    <path d="M 142.645433 289.26062 
L 138.31856 288.130062 
L 141.81913 285.346897 
L 142.645433 289.26062 
z
" clip-path="url(#pf5f5e7fcce)" style="stroke: #000000; stroke-linecap: round"/>
   </g>
   <g id="patch_17">
    <path d="M 201.747851 274.356353 
Q 157.064326 274.984098 113.498724 275.596138 
" clip-path="url(#pf5f5e7fcce)" style="fill: none; stroke: #000000; stroke-linecap: round"/>
    <path d="M 117.526424 277.539752 
L 113.498724 275.596138 
L 117.470234 273.540146 
L 117.526424 277.539752 
z
" clip-path="url(#pf5f5e7fcce)" style="stroke: #000000; stroke-linecap: round"/>
   </g>
   <g id="patch_18">
    <path d="M 205.527563 274.929633 
Q 243.656423 287.360371 280.722312 299.444561 
" clip-path="url(#pf5f5e7fcce)" style="fill: none; stroke: #000000; stroke-linecap: round"/>
    <path d="M 277.539242 296.303214 
L 280.722312 299.444561 
L 276.299392 300.10621 
L 277.539242 296.303214 
z
" clip-path="url(#pf5f5e7fcce)" style="stroke: #000000; stroke-linecap: round"/>
   </g>
   <g id="patch_19">
    <path d="M 347.08996 315.170575 
Q 316.301996 308.000813 286.602929 301.084628 
" clip-path="url(#pf5f5e7fcce)" style="fill: none; stroke: #000000; stroke-linecap: round"/>
    <path d="M 290.045075 303.939735 
L 286.602929 301.084628 
L 290.952301 300.043976 
L 290.045075 303.939735 
z
" clip-path="url(#pf5f5e7fcce)" style="stroke: #000000; stroke-linecap: round"/>
   </g>
   <g id="patch_20">
    <path d="M 281.785744 299.79126 
Q 243.656885 287.360522 206.590995 275.276332 
" clip-path="url(#pf5f5e7fcce)" style="fill: none; stroke: #000000; stroke-linecap: round"/>
    <path d="M 209.774066 278.417679 
L 206.590995 275.276332 
L 211.013915 274.614684 
L 209.774066 278.417679 
z
" clip-path="url(#pf5f5e7fcce)" style="stroke: #000000; stroke-linecap: round"/>
   </g>
   <g id="patch_21">
    <path d="M 285.514268 300.831106 
Q 316.302233 308.000868 346.0013 314.917053 
" clip-path="url(#pf5f5e7fcce)" style="fill: none; stroke: #000000; stroke-linecap: round"/>
    <path d="M 342.559154 312.061946 
L 346.0013 314.917053 
L 341.651927 315.957705 
L 342.559154 312.061946 
z
" clip-path="url(#pf5f5e7fcce)" style="stroke: #000000; stroke-linecap: round"/>
   </g>
   <g id="patch_22">
    <path d="M 137.228684 288.360167 
Q 169.510035 281.544615 200.697468 274.960021 
" clip-path="url(#pf5f5e7fcce)" style="fill: none; stroke: #000000; stroke-linecap: round"/>
    <path d="M 196.370594 273.829463 
L 200.697468 274.960021 
L 197.196897 277.743185 
L 196.370594 273.829463 
z
" clip-path="url(#pf5f5e7fcce)" style="stroke: #000000; stroke-linecap: round"/>
   </g>
   <g id="patch_23">
    <path d="M 135.481599 286.826513 
Q 136.882721 268.901652 138.196716 252.091426 
" clip-path="url(#pf5f5e7fcce)" style="fill: none; stroke: #000000; stroke-linecap: round"/>
    <path d="M 135.891083 255.923404 
L 138.196716 252.091426 
L 139.878919 256.235119 
L 135.891083 255.923404 
z
" clip-path="url(#pf5f5e7fcce)" style="stroke: #000000; stroke-linecap: round"/>
   </g>
   <g id="patch_24">
    <path d="M 133.447569 289.231033 
Q 101.279884 297.262278 70.196936 305.022699 
" clip-path="url(#pf5f5e7fcce)" style="fill: none; stroke: #000000; stroke-linecap: round"/>
    <path d="M 74.562274 305.994205 
L 70.196936 305.022699 
L 73.593344 302.113332 
L 74.562274 305.994205 
z
" clip-path="url(#pf5f5e7fcce)" style="stroke: #000000; stroke-linecap: round"/>
   </g>
   <g id="patch_25">
    <path d="M 69.11576 305.292634 
Q 101.283445 297.261389 132.366393 289.500968 
" clip-path="url(#pf5f5e7fcce)" style="fill: none; stroke: #000000; stroke-linecap: round"/>
    <path d="M 128.001055 288.529462 
L 132.366393 289.500968 
L 128.969985 292.410335 
L 128.001055 288.529462 
z
" clip-path="url(#pf5f5e7fcce)" style="stroke: #000000; stroke-linecap: round"/>
   </g>
   <g id="patch_26">
    <path d="M 65.732936 304.540482 
Q 53.609424 294.662 42.352649 285.489752 
" clip-path="url(#pf5f5e7fcce)" style="fill: none; stroke: #000000; stroke-linecap: round"/>
    <path d="M 44.19023 289.56692 
L 42.352649 285.489752 
L 46.716932 286.465988 
L 44.19023 289.56692 
z
" clip-path="url(#pf5f5e7fcce)" style="stroke: #000000; stroke-linecap: round"/>
   </g>
   <g id="patch_27">
    <path d="M 282.986605 68.095003 
Q 277.596779 88.9455 272.486765 108.713544 
" clip-path="url(#pf5f5e7fcce)" style="fill: none; stroke: #000000; stroke-linecap: round"/>
    <path d="M 275.424205 105.341386 
L 272.486765 108.713544 
L 271.551503 104.340298 
L 275.424205 105.341386 
z
" clip-path="url(#pf5f5e7fcce)" style="stroke: #000000; stroke-linecap: round"/>
   </g>
   <g id="patch_28">
    <path d="M 133.272002 138.662902 
Q 164.831212 134.89566 195.280269 131.260938 
" clip-path="url(#pf5f5e7fcce)" style="fill: none; stroke: #000000; stroke-linecap: round"/>
    <path d="M 191.071409 129.749154 
L 195.280269 131.260938 
L 191.545525 133.720956 
L 191.071409 129.749154 
z
" clip-path="url(#pf5f5e7fcce)" style="stroke: #000000; stroke-linecap: round"/>
   </g>
   <g id="patch_29">
    <path d="M 133.229275 139.354831 
Q 155.182556 144.744021 176.050041 149.866664 
" clip-path="url(#pf5f5e7fcce)" style="fill: none; stroke: #000000; stroke-linecap: round"/>
    <path d="M 172.642191 146.970709 
L 176.050041 149.866664 
L 171.688567 150.855371 
L 172.642191 146.970709 
z
" clip-path="url(#pf5f5e7fcce)" style="stroke: #000000; stroke-linecap: round"/>
   </g>
   <g id="patch_30">
    <path d="M 129.470222 138.412892 
Q 105.422328 132.264104 82.45762 126.392276 
" clip-path="url(#pf5f5e7fcce)" style="fill: none; stroke: #000000; stroke-linecap: round"/>
    <path d="M 85.837507 129.320818 
L 82.45762 126.392276 
L 86.828386 125.445492 
L 85.837507 129.320818 
z
" clip-path="url(#pf5f5e7fcce)" style="stroke: #000000; stroke-linecap: round"/>
   </g>
   <g id="patch_31">
    <path d="M 81.375253 126.115526 
Q 105.423148 132.264314 128.387856 138.136142 
" clip-path="url(#pf5f5e7fcce)" style="fill: none; stroke: #000000; stroke-linecap: round"/>
    <path d="M 125.007969 135.2076 
L 128.387856 138.136142 
L 124.017089 139.082926 
L 125.007969 135.2076 
z
" clip-path="url(#pf5f5e7fcce)" style="stroke: #000000; stroke-linecap: round"/>
   </g>
   <g id="patch_32">
    <path d="M 81.326116 124.99144 
Q 110.367013 114.7531 138.353484 104.886498 
" clip-path="url(#pf5f5e7fcce)" style="fill: none; stroke: #000000; stroke-linecap: round"/>
    <path d="M 133.916076 104.33025 
L 138.353484 104.886498 
L 135.246041 108.102675 
L 133.916076 104.33025 
z
" clip-path="url(#pf5f5e7fcce)" style="stroke: #000000; stroke-linecap: round"/>
   </g>
   <g id="patch_33">
    <path d="M 273.612849 111.236218 
Q 300.141479 105.134486 325.580524 99.283365 
" clip-path="url(#pf5f5e7fcce)" style="fill: none; stroke: #000000; stroke-linecap: round"/>
    <path d="M 321.234002 98.230868 
L 325.580524 99.283365 
L 322.130614 102.129084 
L 321.234002 98.230868 
z
" clip-path="url(#pf5f5e7fcce)" style="stroke: #000000; stroke-linecap: round"/>
   </g>
   <g id="patch_34">
    <path d="M 272.206268 109.798646 
Q 277.596094 88.948149 282.706107 69.180105 
" clip-path="url(#pf5f5e7fcce)" style="fill: none; stroke: #000000; stroke-linecap: round"/>
    <path d="M 279.768668 72.552263 
L 282.706107 69.180105 
L 283.64137 73.553351 
L 279.768668 72.552263 
z
" clip-path="url(#pf5f5e7fcce)" style="stroke: #000000; stroke-linecap: round"/>
   </g>
   <g id="patch_35">
    <path d="M 273.554984 112.303246 
Q 299.474887 121.24401 324.337867 129.820202 
" clip-path="url(#pf5f5e7fcce)" style="fill: none; stroke: #000000; stroke-linecap: round"/>
    <path d="M 321.208673 126.625184 
L 324.337867 129.820202 
L 319.904336 130.406547 
L 321.208673 126.625184 
z
" clip-path="url(#pf5f5e7fcce)" style="stroke: #000000; stroke-linecap: round"/>
   </g>
   <g id="patch_36">
    <path d="M 269.937056 112.420607 
Q 225.368899 131.133218 181.831599 149.413008 
" clip-path="url(#pf5f5e7fcce)" style="fill: none; stroke: #000000; stroke-linecap: round"/>
    <path d="M 186.293959 149.708554 
L 181.831599 149.413008 
L 184.745452 146.020448 
L 186.293959 149.708554 
z
" clip-path="url(#pf5f5e7fcce)" style="stroke: #000000; stroke-linecap: round"/>
   </g>
   <g id="patch_37">
    <path d="M 269.788527 111.633969 
Q 259.848567 111.443275 251.026435 111.274027 
" clip-path="url(#pf5f5e7fcce)" style="fill: none; stroke: #000000; stroke-linecap: round"/>
    <path d="M 254.987337 113.350383 
L 251.026435 111.274027 
L 255.064061 109.351119 
L 254.987337 113.350383 
z
" clip-path="url(#pf5f5e7fcce)" style="stroke: #000000; stroke-linecap: round"/>
   </g>
   <g id="patch_38">
    <path d="M 139.315704 103.601469 
Q 105.301211 98.809128 72.393818 94.172768 
" clip-path="url(#pf5f5e7fcce)" style="fill: none; stroke: #000000; stroke-linecap: round"/>
    <path d="M 76.075672 96.711261 
L 72.393818 94.172768 
L 76.633725 92.750381 
L 76.075672 96.711261 
z
" clip-path="url(#pf5f5e7fcce)" style="stroke: #000000; stroke-linecap: round"/>
   </g>
   <g id="patch_39">
    <path d="M 139.405002 104.515786 
Q 110.364106 114.754125 82.377635 124.620728 
" clip-path="url(#pf5f5e7fcce)" style="fill: none; stroke: #000000; stroke-linecap: round"/>
    <path d="M 86.815042 125.176976 
L 82.377635 124.620728 
L 85.485078 121.40455 
L 86.815042 125.176976 
z
" clip-path="url(#pf5f5e7fcce)" style="stroke: #000000; stroke-linecap: round"/>
   </g>
   <g id="patch_40">
    <path d="M 142.452409 105.380108 
Q 160.12638 127.235495 177.09733 148.221537 
" clip-path="url(#pf5f5e7fcce)" style="fill: none; stroke: #000000; stroke-linecap: round"/>
    <path d="M 176.137259 143.85367 
L 177.09733 148.221537 
L 173.026994 146.368873 
L 176.137259 143.85367 
z
" clip-path="url(#pf5f5e7fcce)" style="stroke: #000000; stroke-linecap: round"/>
   </g>
   <g id="patch_41">
    <path d="M 139.311035 104.097258 
Q 128.839469 105.327503 119.478301 106.427294 
" clip-path="url(#pf5f5e7fcce)" style="fill: none; stroke: #000000; stroke-linecap: round"/>
    <path d="M 123.684342 107.946905 
L 119.478301 106.427294 
L 123.217615 103.974227 
L 123.684342 107.946905 
z
" clip-path="url(#pf5f5e7fcce)" style="stroke: #000000; stroke-linecap: round"/>
   </g>
   <g id="patch_42">
    <path d="M 140.544008 102.064769 
Q 134.437507 86.038788 128.729099 71.057566 
" clip-path="url(#pf5f5e7fcce)" style="fill: none; stroke: #000000; stroke-linecap: round"/>
    <path d="M 128.284435 75.50754 
L 128.729099 71.057566 
L 132.02228 74.083281 
L 128.284435 75.50754 
z
" clip-path="url(#pf5f5e7fcce)" style="stroke: #000000; stroke-linecap: round"/>
   </g>
   <g id="patch_43">
    <path d="M 143.122973 103.447751 
Q 184.919407 94.078867 225.62488 84.954527 
" clip-path="url(#pf5f5e7fcce)" style="fill: none; stroke: #000000; stroke-linecap: round"/>
    <path d="M 221.284281 83.877865 
L 225.62488 84.954527 
L 222.159191 87.781009 
L 221.284281 83.877865 
z
" clip-path="url(#pf5f5e7fcce)" style="stroke: #000000; stroke-linecap: round"/>
   </g>
   <g id="patch_44">
    <path d="M 249.906267 111.252537 
Q 259.846227 111.44323 268.66836 111.612479 
" clip-path="url(#pf5f5e7fcce)" style="fill: none; stroke: #000000; stroke-linecap: round"/>
    <path d="M 264.707457 109.536123 
L 268.66836 111.612479 
L 264.630733 113.535387 
L 264.707457 109.536123 
z
" clip-path="url(#pf5f5e7fcce)" style="stroke: #000000; stroke-linecap: round"/>
   </g>
   <g id="patch_45">
    <path d="M 246.175278 111.927848 
Q 223.146727 121.056007 201.157536 129.77218 
" clip-path="url(#pf5f5e7fcce)" style="fill: none; stroke: #000000; stroke-linecap: round"/>
    <path d="M 205.613043 130.157477 
L 201.157536 129.77218 
L 204.139078 126.438953 
L 205.613043 130.157477 
z
" clip-path="url(#pf5f5e7fcce)" style="stroke: #000000; stroke-linecap: round"/>
   </g>
   <g id="patch_46">
    <path d="M 246.84022 109.640831 
Q 238.287928 97.748028 230.38838 86.762928 
" clip-path="url(#pf5f5e7fcce)" style="fill: none; stroke: #000000; stroke-linecap: round"/>
    <path d="M 231.099955 91.178091 
L 230.38838 86.762928 
L 234.347455 88.842765 
L 231.099955 91.178091 
z
" clip-path="url(#pf5f5e7fcce)" style="stroke: #000000; stroke-linecap: round"/>
   </g>
   <g id="patch_47">
    <path d="M 249.765441 110.488596 
Q 274.340706 100.525741 297.879843 90.982934 
" clip-path="url(#pf5f5e7fcce)" style="fill: none; stroke: #000000; stroke-linecap: round"/>
    <path d="M 293.421476 90.632262 
L 297.879843 90.982934 
L 294.924285 94.339224 
L 293.421476 90.632262 
z
" clip-path="url(#pf5f5e7fcce)" style="stroke: #000000; stroke-linecap: round"/>
   </g>
   <g id="patch_48">
    <path d="M 325.626473 131.909423 
Q 295.951803 152.187343 267.200229 171.834475 
" clip-path="url(#pf5f5e7fcce)" style="fill: none; stroke: #000000; stroke-linecap: round"/>
    <path d="M 271.631185 171.228979 
L 267.200229 171.834475 
L 269.374406 167.926412 
L 271.631185 171.228979 
z
" clip-path="url(#pf5f5e7fcce)" style="stroke: #000000; stroke-linecap: round"/>
   </g>
   <g id="patch_49">
    <path d="M 327.30582 128.885388 
Q 327.892025 114.708737 328.432038 101.649166 
" clip-path="url(#pf5f5e7fcce)" style="fill: none; stroke: #000000; stroke-linecap: round"/>
    <path d="M 326.268487 105.563121 
L 328.432038 101.649166 
L 330.265072 105.72838 
L 326.268487 105.563121 
z
" clip-path="url(#pf5f5e7fcce)" style="stroke: #000000; stroke-linecap: round"/>
   </g>
   <g id="patch_50">
    <path d="M 325.393238 130.184239 
Q 299.473335 121.243475 274.610355 112.667284 
" clip-path="url(#pf5f5e7fcce)" style="fill: none; stroke: #000000; stroke-linecap: round"/>
    <path d="M 277.73955 115.862302 
L 274.610355 112.667284 
L 279.043886 112.080939 
L 277.73955 115.862302 
z
" clip-path="url(#pf5f5e7fcce)" style="stroke: #000000; stroke-linecap: round"/>
   </g>
   <g id="patch_51">
    <path d="M 328.93028 129.893718 
Q 354.548984 116.023907 379.184497 102.68639 
" clip-path="url(#pf5f5e7fcce)" style="fill: none; stroke: #000000; stroke-linecap: round"/>
    <path d="M 374.714732 102.831996 
L 379.184497 102.68639 
L 376.619123 106.349565 
L 374.714732 102.831996 
z
" clip-path="url(#pf5f5e7fcce)" style="stroke: #000000; stroke-linecap: round"/>
   </g>
   <g id="patch_52">
    <path d="M 41.486779 284.784224 
Q 53.610291 294.662706 64.867066 303.834954 
" clip-path="url(#pf5f5e7fcce)" style="fill: none; stroke: #000000; stroke-linecap: round"/>
    <path d="M 63.029486 299.757786 
L 64.867066 303.834954 
L 60.502784 302.858718 
L 63.029486 299.757786 
z
" clip-path="url(#pf5f5e7fcce)" style="stroke: #000000; stroke-linecap: round"/>
   </g>
   <g id="patch_53">
    <path d="M 41.909049 283.345832 
Q 75.212468 279.600864 107.404856 275.980832 
" clip-path="url(#pf5f5e7fcce)" style="fill: none; stroke: #000000; stroke-linecap: round"/>
    <path d="M 103.206417 274.440341 
L 107.404856 275.980832 
L 103.653399 278.415288 
L 103.206417 274.440341 
z
" clip-path="url(#pf5f5e7fcce)" style="stroke: #000000; stroke-linecap: round"/>
   </g>
   <g id="patch_54">
    <path d="M 112.382063 275.611826 
Q 157.065589 274.984081 200.631191 274.372041 
" clip-path="url(#pf5f5e7fcce)" style="fill: none; stroke: #000000; stroke-linecap: round"/>
    <path d="M 196.603491 272.428427 
L 200.631191 274.372041 
L 196.65968 276.428033 
L 196.603491 272.428427 
z
" clip-path="url(#pf5f5e7fcce)" style="stroke: #000000; stroke-linecap: round"/>
   </g>
   <g id="patch_55">
    <path d="M 108.522005 275.855209 
Q 75.218586 279.600176 43.026198 283.220209 
" clip-path="url(#pf5f5e7fcce)" style="fill: none; stroke: #000000; stroke-linecap: round"/>
    <path d="M 47.224637 284.7607 
L 43.026198 283.220209 
L 46.777654 280.785752 
L 47.224637 284.7607 
z
" clip-path="url(#pf5f5e7fcce)" style="stroke: #000000; stroke-linecap: round"/>
   </g>
   <g id="patch_56">
    <path d="M 180.885838 151.095922 
Q 221.84892 162.075307 261.732086 172.765242 
" clip-path="url(#pf5f5e7fcce)" style="fill: none; stroke: #000000; stroke-linecap: round"/>
    <path d="M 258.386248 169.797858 
L 261.732086 172.765242 
L 257.350676 173.661482 
L 258.386248 169.797858 
z
" clip-path="url(#pf5f5e7fcce)" style="stroke: #000000; stroke-linecap: round"/>
   </g>
   <g id="patch_57">
    <path d="M 179.877551 152.331657 
Q 189.6862 172.11869 198.998289 190.90401 
" clip-path="url(#pf5f5e7fcce)" style="fill: none; stroke: #000000; stroke-linecap: round"/>
    <path d="M 199.01366 186.431901 
L 198.998289 190.90401 
L 195.429824 188.208448 
L 199.01366 186.431901 
z
" clip-path="url(#pf5f5e7fcce)" style="stroke: #000000; stroke-linecap: round"/>
   </g>
   <g id="patch_58">
    <path d="M 177.134159 150.132798 
Q 155.180878 144.743609 134.313393 139.620965 
" clip-path="url(#pf5f5e7fcce)" style="fill: none; stroke: #000000; stroke-linecap: round"/>
    <path d="M 137.721244 142.516921 
L 134.313393 139.620965 
L 138.674868 138.632258 
L 137.721244 142.516921 
z
" clip-path="url(#pf5f5e7fcce)" style="stroke: #000000; stroke-linecap: round"/>
   </g>
   <g id="patch_59">
    <path d="M 180.801823 149.845375 
Q 225.36998 131.132764 268.907279 112.852974 
" clip-path="url(#pf5f5e7fcce)" style="fill: none; stroke: #000000; stroke-linecap: round"/>
    <path d="M 264.44492 112.557428 
L 268.907279 112.852974 
L 265.993427 116.245534 
L 264.44492 112.557428 
z
" clip-path="url(#pf5f5e7fcce)" style="stroke: #000000; stroke-linecap: round"/>
   </g>
   <g id="patch_60">
    <path d="M 177.796668 149.086329 
Q 160.122697 127.230942 143.151747 106.2449 
" clip-path="url(#pf5f5e7fcce)" style="fill: none; stroke: #000000; stroke-linecap: round"/>
    <path d="M 144.111818 110.612767 
L 143.151747 106.2449 
L 147.222084 108.097564 
L 144.111818 110.612767 
z
" clip-path="url(#pf5f5e7fcce)" style="stroke: #000000; stroke-linecap: round"/>
   </g>
   <g id="patch_61">
    <path d="M 177.431707 149.485195 
Q 147.732925 128.690888 118.949996 108.537839 
" clip-path="url(#pf5f5e7fcce)" style="fill: none; stroke: #000000; stroke-linecap: round"/>
    <path d="M 121.079541 112.4704 
L 118.949996 108.537839 
L 123.373772 109.19374 
L 121.079541 112.4704 
z
" clip-path="url(#pf5f5e7fcce)" style="stroke: #000000; stroke-linecap: round"/>
   </g>
   <g id="patch_62">
    <path d="M 177.145973 151.092544 
Q 144.423641 159.797287 112.781766 168.214608 
" clip-path="url(#pf5f5e7fcce)" style="fill: none; stroke: #000000; stroke-linecap: round"/>
    <path d="M 117.161484 169.119079 
L 112.781766 168.214608 
L 116.133173 165.253516 
L 117.161484 169.119079 
z
" clip-path="url(#pf5f5e7fcce)" style="stroke: #000000; stroke-linecap: round"/>
   </g>
   <g id="patch_63">
    <path d="M 178.280806 152.383043 
Q 168.233505 176.799068 158.611665 200.181176 
" clip-path="url(#pf5f5e7fcce)" style="fill: none; stroke: #000000; stroke-linecap: round"/>
    <path d="M 161.983367 197.243213 
L 158.611665 200.181176 
L 158.284315 195.721037 
L 161.983367 197.243213 
z
" clip-path="url(#pf5f5e7fcce)" style="stroke: #000000; stroke-linecap: round"/>
   </g>
   <g id="patch_64">
    <path d="M 114.579978 106.267276 
Q 92.908982 100.265678 72.315463 94.562478 
" clip-path="url(#pf5f5e7fcce)" style="fill: none; stroke: #000000; stroke-linecap: round"/>
    <path d="M 75.636574 97.557511 
L 72.315463 94.562478 
L 76.704156 93.702609 
L 75.636574 97.557511 
z
" clip-path="url(#pf5f5e7fcce)" style="stroke: #000000; stroke-linecap: round"/>
   </g>
   <g id="patch_65">
    <path d="M 118.366111 106.557958 
Q 128.837677 105.327713 138.198845 104.227923 
" clip-path="url(#pf5f5e7fcce)" style="fill: none; stroke: #000000; stroke-linecap: round"/>
    <path d="M 133.992804 102.708311 
L 138.198845 104.227923 
L 134.459532 106.680989 
L 133.992804 102.708311 
z
" clip-path="url(#pf5f5e7fcce)" style="stroke: #000000; stroke-linecap: round"/>
   </g>
   <g id="patch_66">
    <path d="M 118.029619 107.893415 
Q 147.728402 128.687722 176.51133 148.840771 
" clip-path="url(#pf5f5e7fcce)" style="fill: none; stroke: #000000; stroke-linecap: round"/>
    <path d="M 174.381785 144.90821 
L 176.51133 148.840771 
L 172.087554 148.18487 
L 174.381785 144.90821 
z
" clip-path="url(#pf5f5e7fcce)" style="stroke: #000000; stroke-linecap: round"/>
   </g>
   <g id="patch_67">
    <path d="M 116.984645 104.923596 
Q 122.043753 87.49515 126.791185 71.140417 
" clip-path="url(#pf5f5e7fcce)" style="fill: none; stroke: #000000; stroke-linecap: round"/>
    <path d="M 123.755385 74.424304 
L 126.791185 71.140417 
L 127.596815 75.53939 
L 123.755385 74.424304 
z
" clip-path="url(#pf5f5e7fcce)" style="stroke: #000000; stroke-linecap: round"/>
   </g>
   <g id="patch_68">
    <path d="M 128.331235 70.013407 
Q 134.437736 86.039389 140.146144 101.02061 
" clip-path="url(#pf5f5e7fcce)" style="fill: none; stroke: #000000; stroke-linecap: round"/>
    <path d="M 140.590807 96.570636 
L 140.146144 101.02061 
L 136.852962 97.994895 
L 140.590807 96.570636 
z
" clip-path="url(#pf5f5e7fcce)" style="stroke: #000000; stroke-linecap: round"/>
   </g>
   <g id="patch_69">
    <path d="M 127.102847 70.066753 
Q 122.043739 87.495199 117.296307 103.849932 
" clip-path="url(#pf5f5e7fcce)" style="fill: none; stroke: #000000; stroke-linecap: round"/>
    <path d="M 120.332107 100.566045 
L 117.296307 103.849932 
L 116.490677 99.450959 
L 120.332107 100.566045 
z
" clip-path="url(#pf5f5e7fcce)" style="stroke: #000000; stroke-linecap: round"/>
   </g>
   <g id="patch_70">
    <path d="M 125.815745 67.551727 
Q 93.548795 55.98526 62.334304 44.796059 
" clip-path="url(#pf5f5e7fcce)" style="fill: none; stroke: #000000; stroke-linecap: round"/>
    <path d="M 65.424822 48.028505 
L 62.334304 44.796059 
L 66.774571 44.263112 
L 65.424822 48.028505 
z
" clip-path="url(#pf5f5e7fcce)" style="stroke: #000000; stroke-linecap: round"/>
   </g>
   <g id="patch_71">
    <path d="M 126.581462 66.585529 
Q 115.132237 49.097489 104.295408 32.544848 
" clip-path="url(#pf5f5e7fcce)" style="fill: none; stroke: #000000; stroke-linecap: round"/>
    <path d="M 104.813088 36.986921 
L 104.295408 32.544848 
L 108.159674 34.795948 
L 104.813088 36.986921 
z
" clip-path="url(#pf5f5e7fcce)" style="stroke: #000000; stroke-linecap: round"/>
   </g>
   <g id="patch_72">
    <path d="M 129.556213 68.511381 
Q 178.124992 76.246338 225.589651 83.805456 
" clip-path="url(#pf5f5e7fcce)" style="fill: none; stroke: #000000; stroke-linecap: round"/>
    <path d="M 221.953984 81.201243 
L 225.589651 83.805456 
L 221.324881 85.151462 
L 221.953984 81.201243 
z
" clip-path="url(#pf5f5e7fcce)" style="stroke: #000000; stroke-linecap: round"/>
   </g>
   <g id="patch_73">
    <path d="M 226.716677 84.709795 
Q 184.920242 94.078679 144.21477 103.203019 
" clip-path="url(#pf5f5e7fcce)" style="fill: none; stroke: #000000; stroke-linecap: round"/>
    <path d="M 148.555369 104.279681 
L 144.21477 103.203019 
L 147.680459 100.376537 
L 148.555369 104.279681 
z
" clip-path="url(#pf5f5e7fcce)" style="stroke: #000000; stroke-linecap: round"/>
   </g>
   <g id="patch_74">
    <path d="M 229.739525 85.860632 
Q 238.291817 97.753436 246.191366 108.738536 
" clip-path="url(#pf5f5e7fcce)" style="fill: none; stroke: #000000; stroke-linecap: round"/>
    <path d="M 245.47979 104.323373 
L 246.191366 108.738536 
L 242.232291 106.658699 
L 245.47979 104.323373 
z
" clip-path="url(#pf5f5e7fcce)" style="stroke: #000000; stroke-linecap: round"/>
   </g>
   <g id="patch_75">
    <path d="M 226.693783 83.981297 
Q 178.125003 76.24634 130.660344 68.687223 
" clip-path="url(#pf5f5e7fcce)" style="fill: none; stroke: #000000; stroke-linecap: round"/>
    <path d="M 134.296011 71.291435 
L 130.660344 68.687223 
L 134.925115 67.341217 
L 134.296011 71.291435 
z
" clip-path="url(#pf5f5e7fcce)" style="stroke: #000000; stroke-linecap: round"/>
   </g>
   <g id="patch_76">
    <path d="M 230.543994 84.282838 
Q 287.26421 84.189526 342.866394 84.098053 
" clip-path="url(#pf5f5e7fcce)" style="fill: none; stroke: #000000; stroke-linecap: round"/>
    <path d="M 338.863109 82.104636 
L 342.866394 84.098053 
L 338.86969 86.104631 
L 338.863109 82.104636 
z
" clip-path="url(#pf5f5e7fcce)" style="stroke: #000000; stroke-linecap: round"/>
   </g>
   <g id="patch_77">
    <path d="M 230.539158 84.43472 
Q 264.658837 87.060797 297.66378 89.601076 
" clip-path="url(#pf5f5e7fcce)" style="fill: none; stroke: #000000; stroke-linecap: round"/>
    <path d="M 293.829055 87.300015 
L 297.66378 89.601076 
L 293.522096 91.28822 
L 293.829055 87.300015 
z
" clip-path="url(#pf5f5e7fcce)" style="stroke: #000000; stroke-linecap: round"/>
   </g>
   <g id="patch_78">
    <path d="M 111.702586 168.50169 
Q 144.424918 159.796947 176.066793 151.379626 
" clip-path="url(#pf5f5e7fcce)" style="fill: none; stroke: #000000; stroke-linecap: round"/>
    <path d="M 171.687074 150.475155 
L 176.066793 151.379626 
L 172.715385 154.340718 
L 171.687074 150.475155 
z
" clip-path="url(#pf5f5e7fcce)" style="stroke: #000000; stroke-linecap: round"/>
   </g>
   <g id="patch_79">
    <path d="M 159.343432 202.590918 
Q 178.904771 198.323125 197.373773 194.293653 
" clip-path="url(#pf5f5e7fcce)" style="fill: none; stroke: #000000; stroke-linecap: round"/>
    <path d="M 193.039383 193.192261 
L 197.373773 194.293653 
L 193.892025 197.10033 
L 193.039383 193.192261 
z
" clip-path="url(#pf5f5e7fcce)" style="stroke: #000000; stroke-linecap: round"/>
   </g>
   <g id="patch_80">
    <path d="M 158.185881 201.215877 
Q 168.233182 176.799852 177.855022 153.417744 
" clip-path="url(#pf5f5e7fcce)" style="fill: none; stroke: #000000; stroke-linecap: round"/>
    <path d="M 174.483321 156.355707 
L 177.855022 153.417744 
L 178.182372 157.877883 
L 174.483321 156.355707 
z
" clip-path="url(#pf5f5e7fcce)" style="stroke: #000000; stroke-linecap: round"/>
   </g>
   <g id="patch_81">
    <path d="M 156.710761 204.794024 
Q 147.942607 226.023853 139.601245 246.220315 
" clip-path="url(#pf5f5e7fcce)" style="fill: none; stroke: #000000; stroke-linecap: round"/>
    <path d="M 142.976728 243.286696 
L 139.601245 246.220315 
L 139.27964 241.759758 
L 142.976728 243.286696 
z
" clip-path="url(#pf5f5e7fcce)" style="stroke: #000000; stroke-linecap: round"/>
   </g>
   <g id="patch_82">
    <path d="M 138.283688 250.978769 
Q 136.882566 268.903629 135.568571 285.713856 
" clip-path="url(#pf5f5e7fcce)" style="fill: none; stroke: #000000; stroke-linecap: round"/>
    <path d="M 137.874204 281.881878 
L 135.568571 285.713856 
L 133.886368 281.570163 
L 137.874204 281.881878 
z
" clip-path="url(#pf5f5e7fcce)" style="stroke: #000000; stroke-linecap: round"/>
   </g>
   <g id="patch_83">
    <path d="M 139.174194 247.254309 
Q 147.942348 226.02448 156.28371 205.828018 
" clip-path="url(#pf5f5e7fcce)" style="fill: none; stroke: #000000; stroke-linecap: round"/>
    <path d="M 152.908228 208.761637 
L 156.28371 205.828018 
L 156.605316 210.288576 
L 152.908228 208.761637 
z
" clip-path="url(#pf5f5e7fcce)" style="stroke: #000000; stroke-linecap: round"/>
   </g>
   <g id="patch_84">
    <path d="M 61.282196 44.418919 
Q 93.549146 55.985386 124.763637 67.174587 
" clip-path="url(#pf5f5e7fcce)" style="fill: none; stroke: #000000; stroke-linecap: round"/>
    <path d="M 121.673119 63.942142 
L 124.763637 67.174587 
L 120.32337 67.707534 
L 121.673119 63.942142 
z
" clip-path="url(#pf5f5e7fcce)" style="stroke: #000000; stroke-linecap: round"/>
   </g>
   <g id="patch_85">
    <path d="M 103.684164 31.611208 
Q 115.133389 49.099248 125.970218 65.651889 
" clip-path="url(#pf5f5e7fcce)" style="fill: none; stroke: #000000; stroke-linecap: round"/>
    <path d="M 125.452538 61.209816 
L 125.970218 65.651889 
L 122.105952 63.400789 
L 125.452538 61.209816 
z
" clip-path="url(#pf5f5e7fcce)" style="stroke: #000000; stroke-linecap: round"/>
   </g>
   <g id="patch_86">
    <path d="M 343.980618 84.09622 
Q 287.260401 84.189532 231.658217 84.281005 
" clip-path="url(#pf5f5e7fcce)" style="fill: none; stroke: #000000; stroke-linecap: round"/>
    <path d="M 235.661502 86.274422 
L 231.658217 84.281005 
L 235.654921 82.274427 
L 235.661502 86.274422 
z
" clip-path="url(#pf5f5e7fcce)" style="stroke: #000000; stroke-linecap: round"/>
   </g>
   <g id="patch_87">
    <path d="M 347.851061 83.956929 
Q 383.368012 81.456976 417.769688 79.035524 
" clip-path="url(#pf5f5e7fcce)" style="fill: none; stroke: #000000; stroke-linecap: round"/>
    <path d="M 413.639133 77.321316 
L 417.769688 79.035524 
L 413.919988 81.311444 
L 413.639133 77.321316 
z
" clip-path="url(#pf5f5e7fcce)" style="stroke: #000000; stroke-linecap: round"/>
   </g>
   <g id="patch_88">
    <path d="M 418.879573 78.957402 
Q 383.362622 81.457355 348.960945 83.878807 
" clip-path="url(#pf5f5e7fcce)" style="fill: none; stroke: #000000; stroke-linecap: round"/>
    <path d="M 353.091501 85.593015 
L 348.960945 83.878807 
L 352.810645 81.602887 
L 353.091501 85.593015 
z
" clip-path="url(#pf5f5e7fcce)" style="stroke: #000000; stroke-linecap: round"/>
   </g>
   <g id="patch_89">
    <path d="M 419.132774 79.788368 
Q 401.339738 90.027973 384.515731 99.709918 
" clip-path="url(#pf5f5e7fcce)" style="fill: none; stroke: #000000; stroke-linecap: round"/>
    <path d="M 388.980203 99.448223 
L 384.515731 99.709918 
L 386.985058 95.981323 
L 388.980203 99.448223 
z
" clip-path="url(#pf5f5e7fcce)" style="stroke: #000000; stroke-linecap: round"/>
   </g>
   <g id="patch_90">
    <path d="M 380.166232 102.154884 
Q 354.547528 116.024695 329.912014 129.362213 
" clip-path="url(#pf5f5e7fcce)" style="fill: none; stroke: #000000; stroke-linecap: round"/>
    <path d="M 334.381779 129.216607 
L 329.912014 129.362213 
L 332.477388 125.699037 
L 334.381779 129.216607 
z
" clip-path="url(#pf5f5e7fcce)" style="stroke: #000000; stroke-linecap: round"/>
   </g>
   <g id="patch_91">
    <path d="M 383.550988 100.265111 
Q 401.344024 90.025507 418.168031 80.343562 
" clip-path="url(#pf5f5e7fcce)" style="fill: none; stroke: #000000; stroke-linecap: round"/>
    <path d="M 413.703559 80.605257 
L 418.168031 80.343562 
L 415.698704 84.072157 
L 413.703559 80.605257 
z
" clip-path="url(#pf5f5e7fcce)" style="stroke: #000000; stroke-linecap: round"/>
   </g>
   <g id="patch_92">
    <path d="M 379.951004 100.962639 
Q 341.290595 95.533901 303.737357 90.260632 
" clip-path="url(#pf5f5e7fcce)" style="fill: none; stroke: #000000; stroke-linecap: round"/>
    <path d="M 307.420381 92.797428 
L 303.737357 90.260632 
L 307.976608 88.836291 
L 307.420381 92.797428 
z
" clip-path="url(#pf5f5e7fcce)" style="stroke: #000000; stroke-linecap: round"/>
   </g>
   <g id="patch_93">
    <path d="M 298.917206 90.562385 
Q 274.341941 100.52524 250.802804 110.068047 
" clip-path="url(#pf5f5e7fcce)" style="fill: none; stroke: #000000; stroke-linecap: round"/>
    <path d="M 255.26117 110.418719 
L 250.802804 110.068047 
L 253.758362 106.711758 
L 255.26117 110.418719 
z
" clip-path="url(#pf5f5e7fcce)" style="stroke: #000000; stroke-linecap: round"/>
   </g>
   <g id="patch_94">
    <path d="M 298.778146 89.686845 
Q 264.658466 87.060769 231.653524 84.520489 
" clip-path="url(#pf5f5e7fcce)" style="fill: none; stroke: #000000; stroke-linecap: round"/>
    <path d="M 235.488249 86.82155 
L 231.653524 84.520489 
L 235.795208 82.833346 
L 235.488249 86.82155 
z
" clip-path="url(#pf5f5e7fcce)" style="stroke: #000000; stroke-linecap: round"/>
   </g>
   <g id="patch_95">
    <path d="M 302.629638 90.105085 
Q 341.290047 95.533824 378.843285 100.807092 
" clip-path="url(#pf5f5e7fcce)" style="fill: none; stroke: #000000; stroke-linecap: round"/>
    <path d="M 375.160261 98.270296 
L 378.843285 100.807092 
L 374.604033 102.231434 
L 375.160261 98.270296 
z
" clip-path="url(#pf5f5e7fcce)" style="stroke: #000000; stroke-linecap: round"/>
   </g>
   <g id="patch_96">
    <path d="M 196.390656 131.128391 
Q 164.831447 134.895632 134.38239 138.530355 
" clip-path="url(#pf5f5e7fcce)" style="fill: none; stroke: #000000; stroke-linecap: round"/>
    <path d="M 138.59125 140.042139 
L 134.38239 138.530355 
L 138.117134 136.070337 
L 138.59125 140.042139 
z
" clip-path="url(#pf5f5e7fcce)" style="stroke: #000000; stroke-linecap: round"/>
   </g>
   <g id="patch_97">
    <path d="M 200.11312 130.18617 
Q 223.14167 121.058011 245.130862 112.341838 
" clip-path="url(#pf5f5e7fcce)" style="fill: none; stroke: #000000; stroke-linecap: round"/>
    <path d="M 240.675354 111.956541 
L 245.130862 112.341838 
L 242.14932 115.675066 
L 240.675354 111.956541 
z
" clip-path="url(#pf5f5e7fcce)" style="stroke: #000000; stroke-linecap: round"/>
   </g>
   <g id="PathCollection_1">
    <defs>
     <path id="m05d0c097cc" d="M 0 1.936492 
C 0.513564 1.936492 1.006162 1.732451 1.369306 1.369306 
C 1.732451 1.006162 1.936492 0.513564 1.936492 0 
C 1.936492 -0.513564 1.732451 -1.006162 1.369306 -1.369306 
C 1.006162 -1.732451 0.513564 -1.936492 0 -1.936492 
C -0.513564 -1.936492 -1.006162 -1.732451 -1.369306 -1.369306 
C -1.732451 -1.006162 -1.936492 -0.513564 -1.936492 0 
C -1.936492 0.513564 -1.732451 1.006162 -1.369306 1.369306 
C -1.006162 1.732451 -0.513564 1.936492 0 1.936492 
z
" style="stroke: #1f78b4"/>
    </defs>
    <g clip-path="url(#pf5f5e7fcce)">
     <use xlink:href="#m05d0c097cc" x="236.851848" y="223.414121" style="fill: #1f78b4; stroke: #1f78b4"/>
     <use xlink:href="#m05d0c097cc" x="264.681341" y="173.555734" style="fill: #1f78b4; stroke: #1f78b4"/>
     <use xlink:href="#m05d0c097cc" x="200.356035" y="193.642998" style="fill: #1f78b4; stroke: #1f78b4"/>
     <use xlink:href="#m05d0c097cc" x="69.369867" y="93.74672" style="fill: #1f78b4; stroke: #1f78b4"/>
     <use xlink:href="#m05d0c097cc" x="328.558184" y="98.598486" style="fill: #1f78b4; stroke: #1f78b4"/>
     <use xlink:href="#m05d0c097cc" x="203.685637" y="274.32913" style="fill: #1f78b4; stroke: #1f78b4"/>
     <use xlink:href="#m05d0c097cc" x="348.976558" y="315.609917" style="fill: #1f78b4; stroke: #1f78b4"/>
     <use xlink:href="#m05d0c097cc" x="283.62767" y="300.391764" style="fill: #1f78b4; stroke: #1f78b4"/>
     <use xlink:href="#m05d0c097cc" x="135.330391" y="288.760953" style="fill: #1f78b4; stroke: #1f78b4"/>
     <use xlink:href="#m05d0c097cc" x="67.232939" y="305.762714" style="fill: #1f78b4; stroke: #1f78b4"/>
     <use xlink:href="#m05d0c097cc" x="283.470623" y="66.222583" style="fill: #1f78b4; stroke: #1f78b4"/>
     <use xlink:href="#m05d0c097cc" x="131.346806" y="138.892714" style="fill: #1f78b4; stroke: #1f78b4"/>
     <use xlink:href="#m05d0c097cc" x="79.49867" y="125.635704" style="fill: #1f78b4; stroke: #1f78b4"/>
     <use xlink:href="#m05d0c097cc" x="271.72225" y="111.671066" style="fill: #1f78b4; stroke: #1f78b4"/>
     <use xlink:href="#m05d0c097cc" x="141.232449" y="103.871522" style="fill: #1f78b4; stroke: #1f78b4"/>
     <use xlink:href="#m05d0c097cc" x="247.972544" y="111.21544" style="fill: #1f78b4; stroke: #1f78b4"/>
     <use xlink:href="#m05d0c097cc" x="327.225972" y="130.816419" style="fill: #1f78b4; stroke: #1f78b4"/>
     <use xlink:href="#m05d0c097cc" x="39.986777" y="283.561991" style="fill: #1f78b4; stroke: #1f78b4"/>
     <use xlink:href="#m05d0c097cc" x="110.444277" y="275.639049" style="fill: #1f78b4; stroke: #1f78b4"/>
     <use xlink:href="#m05d0c097cc" x="179.016629" y="150.594915" style="fill: #1f78b4; stroke: #1f78b4"/>
     <use xlink:href="#m05d0c097cc" x="116.444698" y="106.783695" style="fill: #1f78b4; stroke: #1f78b4"/>
     <use xlink:href="#m05d0c097cc" x="127.642794" y="68.206654" style="fill: #1f78b4; stroke: #1f78b4"/>
     <use xlink:href="#m05d0c097cc" x="228.607201" y="84.286024" style="fill: #1f78b4; stroke: #1f78b4"/>
     <use xlink:href="#m05d0c097cc" x="109.83193" y="168.999319" style="fill: #1f78b4; stroke: #1f78b4"/>
     <use xlink:href="#m05d0c097cc" x="157.450059" y="203.004004" style="fill: #1f78b4; stroke: #1f78b4"/>
     <use xlink:href="#m05d0c097cc" x="138.434896" y="249.044329" style="fill: #1f78b4; stroke: #1f78b4"/>
     <use xlink:href="#m05d0c097cc" x="59.455147" y="43.763992" style="fill: #1f78b4; stroke: #1f78b4"/>
     <use xlink:href="#m05d0c097cc" x="102.622831" y="29.990083" style="fill: #1f78b4; stroke: #1f78b4"/>
     <use xlink:href="#m05d0c097cc" x="345.91741" y="84.093034" style="fill: #1f78b4; stroke: #1f78b4"/>
     <use xlink:href="#m05d0c097cc" x="420.813223" y="78.821297" style="fill: #1f78b4; stroke: #1f78b4"/>
     <use xlink:href="#m05d0c097cc" x="381.870539" y="101.232183" style="fill: #1f78b4; stroke: #1f78b4"/>
     <use xlink:href="#m05d0c097cc" x="300.710103" y="89.835542" style="fill: #1f78b4; stroke: #1f78b4"/>
     <use xlink:href="#m05d0c097cc" x="198.315853" y="130.898579" style="fill: #1f78b4; stroke: #1f78b4"/>
    </g>
   </g>
   <g id="text_1">
    <g clip-path="url(#pf5f5e7fcce)">
     <!-- 0 -->
     <g transform="translate(233.670598 226.173496) scale(0.1 -0.1)">
      <defs>
       <path id="DejaVuSans-30" d="M 2034 4250 
Q 1547 4250 1301 3770 
Q 1056 3291 1056 2328 
Q 1056 1369 1301 889 
Q 1547 409 2034 409 
Q 2525 409 2770 889 
Q 3016 1369 3016 2328 
Q 3016 3291 2770 3770 
Q 2525 4250 2034 4250 
z
M 2034 4750 
Q 2819 4750 3233 4129 
Q 3647 3509 3647 2328 
Q 3647 1150 3233 529 
Q 2819 -91 2034 -91 
Q 1250 -91 836 529 
Q 422 1150 422 2328 
Q 422 3509 836 4129 
Q 1250 4750 2034 4750 
z
" transform="scale(0.015625)"/>
      </defs>
      <use xlink:href="#DejaVuSans-30"/>
     </g>
    </g>
   </g>
   <g id="text_2">
    <g clip-path="url(#pf5f5e7fcce)">
     <!-- 1 -->
     <g transform="translate(261.500091 176.315109) scale(0.1 -0.1)">
      <defs>
       <path id="DejaVuSans-31" d="M 794 531 
L 1825 531 
L 1825 4091 
L 703 3866 
L 703 4441 
L 1819 4666 
L 2450 4666 
L 2450 531 
L 3481 531 
L 3481 0 
L 794 0 
L 794 531 
z
" transform="scale(0.015625)"/>
      </defs>
      <use xlink:href="#DejaVuSans-31"/>
     </g>
    </g>
   </g>
   <g id="text_3">
    <g clip-path="url(#pf5f5e7fcce)">
     <!-- 2 -->
     <g transform="translate(197.174785 196.402373) scale(0.1 -0.1)">
      <defs>
       <path id="DejaVuSans-32" d="M 1228 531 
L 3431 531 
L 3431 0 
L 469 0 
L 469 531 
Q 828 903 1448 1529 
Q 2069 2156 2228 2338 
Q 2531 2678 2651 2914 
Q 2772 3150 2772 3378 
Q 2772 3750 2511 3984 
Q 2250 4219 1831 4219 
Q 1534 4219 1204 4116 
Q 875 4013 500 3803 
L 500 4441 
Q 881 4594 1212 4672 
Q 1544 4750 1819 4750 
Q 2544 4750 2975 4387 
Q 3406 4025 3406 3419 
Q 3406 3131 3298 2873 
Q 3191 2616 2906 2266 
Q 2828 2175 2409 1742 
Q 1991 1309 1228 531 
z
" transform="scale(0.015625)"/>
      </defs>
      <use xlink:href="#DejaVuSans-32"/>
     </g>
    </g>
   </g>
   <g id="text_4">
    <g clip-path="url(#pf5f5e7fcce)">
     <!-- 3 -->
     <g transform="translate(66.188617 96.506095) scale(0.1 -0.1)">
      <defs>
       <path id="DejaVuSans-33" d="M 2597 2516 
Q 3050 2419 3304 2112 
Q 3559 1806 3559 1356 
Q 3559 666 3084 287 
Q 2609 -91 1734 -91 
Q 1441 -91 1130 -33 
Q 819 25 488 141 
L 488 750 
Q 750 597 1062 519 
Q 1375 441 1716 441 
Q 2309 441 2620 675 
Q 2931 909 2931 1356 
Q 2931 1769 2642 2001 
Q 2353 2234 1838 2234 
L 1294 2234 
L 1294 2753 
L 1863 2753 
Q 2328 2753 2575 2939 
Q 2822 3125 2822 3475 
Q 2822 3834 2567 4026 
Q 2313 4219 1838 4219 
Q 1578 4219 1281 4162 
Q 984 4106 628 3988 
L 628 4550 
Q 988 4650 1302 4700 
Q 1616 4750 1894 4750 
Q 2613 4750 3031 4423 
Q 3450 4097 3450 3541 
Q 3450 3153 3228 2886 
Q 3006 2619 2597 2516 
z
" transform="scale(0.015625)"/>
      </defs>
      <use xlink:href="#DejaVuSans-33"/>
     </g>
    </g>
   </g>
   <g id="text_5">
    <g clip-path="url(#pf5f5e7fcce)">
     <!-- 4 -->
     <g transform="translate(325.376934 101.357861) scale(0.1 -0.1)">
      <defs>
       <path id="DejaVuSans-34" d="M 2419 4116 
L 825 1625 
L 2419 1625 
L 2419 4116 
z
M 2253 4666 
L 3047 4666 
L 3047 1625 
L 3713 1625 
L 3713 1100 
L 3047 1100 
L 3047 0 
L 2419 0 
L 2419 1100 
L 313 1100 
L 313 1709 
L 2253 4666 
z
" transform="scale(0.015625)"/>
      </defs>
      <use xlink:href="#DejaVuSans-34"/>
     </g>
    </g>
   </g>
   <g id="text_6">
    <g clip-path="url(#pf5f5e7fcce)">
     <!-- 5 -->
     <g transform="translate(200.504387 277.088505) scale(0.1 -0.1)">
      <defs>
       <path id="DejaVuSans-35" d="M 691 4666 
L 3169 4666 
L 3169 4134 
L 1269 4134 
L 1269 2991 
Q 1406 3038 1543 3061 
Q 1681 3084 1819 3084 
Q 2600 3084 3056 2656 
Q 3513 2228 3513 1497 
Q 3513 744 3044 326 
Q 2575 -91 1722 -91 
Q 1428 -91 1123 -41 
Q 819 9 494 109 
L 494 744 
Q 775 591 1075 516 
Q 1375 441 1709 441 
Q 2250 441 2565 725 
Q 2881 1009 2881 1497 
Q 2881 1984 2565 2268 
Q 2250 2553 1709 2553 
Q 1456 2553 1204 2497 
Q 953 2441 691 2322 
L 691 4666 
z
" transform="scale(0.015625)"/>
      </defs>
      <use xlink:href="#DejaVuSans-35"/>
     </g>
    </g>
   </g>
   <g id="text_7">
    <g clip-path="url(#pf5f5e7fcce)">
     <!-- 6 -->
     <g transform="translate(345.795308 318.369292) scale(0.1 -0.1)">
      <defs>
       <path id="DejaVuSans-36" d="M 2113 2584 
Q 1688 2584 1439 2293 
Q 1191 2003 1191 1497 
Q 1191 994 1439 701 
Q 1688 409 2113 409 
Q 2538 409 2786 701 
Q 3034 994 3034 1497 
Q 3034 2003 2786 2293 
Q 2538 2584 2113 2584 
z
M 3366 4563 
L 3366 3988 
Q 3128 4100 2886 4159 
Q 2644 4219 2406 4219 
Q 1781 4219 1451 3797 
Q 1122 3375 1075 2522 
Q 1259 2794 1537 2939 
Q 1816 3084 2150 3084 
Q 2853 3084 3261 2657 
Q 3669 2231 3669 1497 
Q 3669 778 3244 343 
Q 2819 -91 2113 -91 
Q 1303 -91 875 529 
Q 447 1150 447 2328 
Q 447 3434 972 4092 
Q 1497 4750 2381 4750 
Q 2619 4750 2861 4703 
Q 3103 4656 3366 4563 
z
" transform="scale(0.015625)"/>
      </defs>
      <use xlink:href="#DejaVuSans-36"/>
     </g>
    </g>
   </g>
   <g id="text_8">
    <g clip-path="url(#pf5f5e7fcce)">
     <!-- 7 -->
     <g transform="translate(280.44642 303.151139) scale(0.1 -0.1)">
      <defs>
       <path id="DejaVuSans-37" d="M 525 4666 
L 3525 4666 
L 3525 4397 
L 1831 0 
L 1172 0 
L 2766 4134 
L 525 4134 
L 525 4666 
z
" transform="scale(0.015625)"/>
      </defs>
      <use xlink:href="#DejaVuSans-37"/>
     </g>
    </g>
   </g>
   <g id="text_9">
    <g clip-path="url(#pf5f5e7fcce)">
     <!-- 8 -->
     <g transform="translate(132.149141 291.520328) scale(0.1 -0.1)">
      <defs>
       <path id="DejaVuSans-38" d="M 2034 2216 
Q 1584 2216 1326 1975 
Q 1069 1734 1069 1313 
Q 1069 891 1326 650 
Q 1584 409 2034 409 
Q 2484 409 2743 651 
Q 3003 894 3003 1313 
Q 3003 1734 2745 1975 
Q 2488 2216 2034 2216 
z
M 1403 2484 
Q 997 2584 770 2862 
Q 544 3141 544 3541 
Q 544 4100 942 4425 
Q 1341 4750 2034 4750 
Q 2731 4750 3128 4425 
Q 3525 4100 3525 3541 
Q 3525 3141 3298 2862 
Q 3072 2584 2669 2484 
Q 3125 2378 3379 2068 
Q 3634 1759 3634 1313 
Q 3634 634 3220 271 
Q 2806 -91 2034 -91 
Q 1263 -91 848 271 
Q 434 634 434 1313 
Q 434 1759 690 2068 
Q 947 2378 1403 2484 
z
M 1172 3481 
Q 1172 3119 1398 2916 
Q 1625 2713 2034 2713 
Q 2441 2713 2670 2916 
Q 2900 3119 2900 3481 
Q 2900 3844 2670 4047 
Q 2441 4250 2034 4250 
Q 1625 4250 1398 4047 
Q 1172 3844 1172 3481 
z
" transform="scale(0.015625)"/>
      </defs>
      <use xlink:href="#DejaVuSans-38"/>
     </g>
    </g>
   </g>
   <g id="text_10">
    <g clip-path="url(#pf5f5e7fcce)">
     <!-- 9 -->
     <g transform="translate(64.051689 308.522089) scale(0.1 -0.1)">
      <defs>
       <path id="DejaVuSans-39" d="M 703 97 
L 703 672 
Q 941 559 1184 500 
Q 1428 441 1663 441 
Q 2288 441 2617 861 
Q 2947 1281 2994 2138 
Q 2813 1869 2534 1725 
Q 2256 1581 1919 1581 
Q 1219 1581 811 2004 
Q 403 2428 403 3163 
Q 403 3881 828 4315 
Q 1253 4750 1959 4750 
Q 2769 4750 3195 4129 
Q 3622 3509 3622 2328 
Q 3622 1225 3098 567 
Q 2575 -91 1691 -91 
Q 1453 -91 1209 -44 
Q 966 3 703 97 
z
M 1959 2075 
Q 2384 2075 2632 2365 
Q 2881 2656 2881 3163 
Q 2881 3666 2632 3958 
Q 2384 4250 1959 4250 
Q 1534 4250 1286 3958 
Q 1038 3666 1038 3163 
Q 1038 2656 1286 2365 
Q 1534 2075 1959 2075 
z
" transform="scale(0.015625)"/>
      </defs>
      <use xlink:href="#DejaVuSans-39"/>
     </g>
    </g>
   </g>
   <g id="text_11">
    <g clip-path="url(#pf5f5e7fcce)">
     <!-- 10 -->
     <g transform="translate(277.108123 68.981958) scale(0.1 -0.1)">
      <use xlink:href="#DejaVuSans-31"/>
      <use xlink:href="#DejaVuSans-30" x="63.623047"/>
     </g>
    </g>
   </g>
   <g id="text_12">
    <g clip-path="url(#pf5f5e7fcce)">
     <!-- 11 -->
     <g transform="translate(124.984306 141.652089) scale(0.1 -0.1)">
      <use xlink:href="#DejaVuSans-31"/>
      <use xlink:href="#DejaVuSans-31" x="63.623047"/>
     </g>
    </g>
   </g>
   <g id="text_13">
    <g clip-path="url(#pf5f5e7fcce)">
     <!-- 12 -->
     <g transform="translate(73.13617 128.395079) scale(0.1 -0.1)">
      <use xlink:href="#DejaVuSans-31"/>
      <use xlink:href="#DejaVuSans-32" x="63.623047"/>
     </g>
    </g>
   </g>
   <g id="text_14">
    <g clip-path="url(#pf5f5e7fcce)">
     <!-- 13 -->
     <g transform="translate(265.35975 114.430441) scale(0.1 -0.1)">
      <use xlink:href="#DejaVuSans-31"/>
      <use xlink:href="#DejaVuSans-33" x="63.623047"/>
     </g>
    </g>
   </g>
   <g id="text_15">
    <g clip-path="url(#pf5f5e7fcce)">
     <!-- 14 -->
     <g transform="translate(134.869949 106.630897) scale(0.1 -0.1)">
      <use xlink:href="#DejaVuSans-31"/>
      <use xlink:href="#DejaVuSans-34" x="63.623047"/>
     </g>
    </g>
   </g>
   <g id="text_16">
    <g clip-path="url(#pf5f5e7fcce)">
     <!-- 15 -->
     <g transform="translate(241.610044 113.974815) scale(0.1 -0.1)">
      <use xlink:href="#DejaVuSans-31"/>
      <use xlink:href="#DejaVuSans-35" x="63.623047"/>
     </g>
    </g>
   </g>
   <g id="text_17">
    <g clip-path="url(#pf5f5e7fcce)">
     <!-- 16 -->
     <g transform="translate(320.863472 133.575794) scale(0.1 -0.1)">
      <use xlink:href="#DejaVuSans-31"/>
      <use xlink:href="#DejaVuSans-36" x="63.623047"/>
     </g>
    </g>
   </g>
   <g id="text_18">
    <g clip-path="url(#pf5f5e7fcce)">
     <!-- 17 -->
     <g transform="translate(33.624277 286.321366) scale(0.1 -0.1)">
      <use xlink:href="#DejaVuSans-31"/>
      <use xlink:href="#DejaVuSans-37" x="63.623047"/>
     </g>
    </g>
   </g>
   <g id="text_19">
    <g clip-path="url(#pf5f5e7fcce)">
     <!-- 18 -->
     <g transform="translate(104.081777 278.398424) scale(0.1 -0.1)">
      <use xlink:href="#DejaVuSans-31"/>
      <use xlink:href="#DejaVuSans-38" x="63.623047"/>
     </g>
    </g>
   </g>
   <g id="text_20">
    <g clip-path="url(#pf5f5e7fcce)">
     <!-- 19 -->
     <g transform="translate(172.654129 153.35429) scale(0.1 -0.1)">
      <use xlink:href="#DejaVuSans-31"/>
      <use xlink:href="#DejaVuSans-39" x="63.623047"/>
     </g>
    </g>
   </g>
   <g id="text_21">
    <g clip-path="url(#pf5f5e7fcce)">
     <!-- 20 -->
     <g transform="translate(110.082198 109.54307) scale(0.1 -0.1)">
      <use xlink:href="#DejaVuSans-32"/>
      <use xlink:href="#DejaVuSans-30" x="63.623047"/>
     </g>
    </g>
   </g>
   <g id="text_22">
    <g clip-path="url(#pf5f5e7fcce)">
     <!-- 21 -->
     <g transform="translate(121.280294 70.966029) scale(0.1 -0.1)">
      <use xlink:href="#DejaVuSans-32"/>
      <use xlink:href="#DejaVuSans-31" x="63.623047"/>
     </g>
    </g>
   </g>
   <g id="text_23">
    <g clip-path="url(#pf5f5e7fcce)">
     <!-- 22 -->
     <g transform="translate(222.244701 87.045399) scale(0.1 -0.1)">
      <use xlink:href="#DejaVuSans-32"/>
      <use xlink:href="#DejaVuSans-32" x="63.623047"/>
     </g>
    </g>
   </g>
   <g id="text_24">
    <g clip-path="url(#pf5f5e7fcce)">
     <!-- 23 -->
     <g transform="translate(103.46943 171.758694) scale(0.1 -0.1)">
      <use xlink:href="#DejaVuSans-32"/>
      <use xlink:href="#DejaVuSans-33" x="63.623047"/>
     </g>
    </g>
   </g>
   <g id="text_25">
    <g clip-path="url(#pf5f5e7fcce)">
     <!-- 24 -->
     <g transform="translate(151.087559 205.763379) scale(0.1 -0.1)">
      <use xlink:href="#DejaVuSans-32"/>
      <use xlink:href="#DejaVuSans-34" x="63.623047"/>
     </g>
    </g>
   </g>
   <g id="text_26">
    <g clip-path="url(#pf5f5e7fcce)">
     <!-- 25 -->
     <g transform="translate(132.072396 251.803704) scale(0.1 -0.1)">
      <use xlink:href="#DejaVuSans-32"/>
      <use xlink:href="#DejaVuSans-35" x="63.623047"/>
     </g>
    </g>
   </g>
   <g id="text_27">
    <g clip-path="url(#pf5f5e7fcce)">
     <!-- 26 -->
     <g transform="translate(53.092647 46.523367) scale(0.1 -0.1)">
      <use xlink:href="#DejaVuSans-32"/>
      <use xlink:href="#DejaVuSans-36" x="63.623047"/>
     </g>
    </g>
   </g>
   <g id="text_28">
    <g clip-path="url(#pf5f5e7fcce)">
     <!-- 27 -->
     <g transform="translate(96.260331 32.749458) scale(0.1 -0.1)">
      <use xlink:href="#DejaVuSans-32"/>
      <use xlink:href="#DejaVuSans-37" x="63.623047"/>
     </g>
    </g>
   </g>
   <g id="text_29">
    <g clip-path="url(#pf5f5e7fcce)">
     <!-- 28 -->
     <g transform="translate(339.55491 86.852409) scale(0.1 -0.1)">
      <use xlink:href="#DejaVuSans-32"/>
      <use xlink:href="#DejaVuSans-38" x="63.623047"/>
     </g>
    </g>
   </g>
   <g id="text_30">
    <g clip-path="url(#pf5f5e7fcce)">
     <!-- 29 -->
     <g transform="translate(414.450723 81.580672) scale(0.1 -0.1)">
      <use xlink:href="#DejaVuSans-32"/>
      <use xlink:href="#DejaVuSans-39" x="63.623047"/>
     </g>
    </g>
   </g>
   <g id="text_31">
    <g clip-path="url(#pf5f5e7fcce)">
     <!-- 30 -->
     <g transform="translate(375.508039 103.991558) scale(0.1 -0.1)">
      <use xlink:href="#DejaVuSans-33"/>
      <use xlink:href="#DejaVuSans-30" x="63.623047"/>
     </g>
    </g>
   </g>
   <g id="text_32">
    <g clip-path="url(#pf5f5e7fcce)">
     <!-- 31 -->
     <g transform="translate(294.347603 92.594917) scale(0.1 -0.1)">
      <use xlink:href="#DejaVuSans-33"/>
      <use xlink:href="#DejaVuSans-31" x="63.623047"/>
     </g>
    </g>
   </g>
   <g id="text_33">
    <g clip-path="url(#pf5f5e7fcce)">
     <!-- 32 -->
     <g transform="translate(191.953353 133.657954) scale(0.1 -0.1)">
      <use xlink:href="#DejaVuSans-33"/>
      <use xlink:href="#DejaVuSans-32" x="63.623047"/>
     </g>
    </g>
   </g>
  </g>
 </g>
 <defs>
  <clipPath id="pf5f5e7fcce">
   <rect x="0" y="0" width="460.8" height="345.6"/>
  </clipPath>
 </defs>
</svg>
