<?xml version="1.0" encoding="utf-8" standalone="no"?>
<!DOCTYPE svg PUBLIC "-//W3C//DTD SVG 1.1//EN"
  "http://www.w3.org/Graphics/SVG/1.1/DTD/svg11.dtd">
<svg xmlns:xlink="http://www.w3.org/1999/xlink" width="460.8pt" height="345.6pt" viewBox="0 0 460.8 345.6" xmlns="http://www.w3.org/2000/svg" version="1.1">
 <metadata>
  <rdf:RDF xmlns:dc="http://purl.org/dc/elements/1.1/" xmlns:cc="http://creativecommons.org/ns#" xmlns:rdf="http://www.w3.org/1999/02/22-rdf-syntax-ns#">
   <cc:Work>
    <dc:type rdf:resource="http://purl.org/dc/dcmitype/StillImage"/>
    <dc:date>2023-10-10T10:55:21.415981</dc:date>
    <dc:format>image/svg+xml</dc:format>
    <dc:creator>
     <cc:Agent>
      <dc:title>Matplotlib v3.6.1, https://matplotlib.org/</dc:title>
     </cc:Agent>
    </dc:creator>
   </cc:Work>
  </rdf:RDF>
 </metadata>
 <defs>
  <style type="text/css">*{stroke-linejoin: round; stroke-linecap: butt}</style>
 </defs>
 <g id="figure_1">
  <g id="patch_1">
   <path d="M 0 345.6 
L 460.8 345.6 
L 460.8 0 
L 0 0 
z
" style="fill: #ffffff"/>
  </g>
  <g id="axes_1">
   <g id="patch_2">
    <path d="M 385.133355 45.959172 
Q 337.147076 74.199558 290.124354 101.872883 
" clip-path="url(#p8c15231188)" style="fill: none; stroke: #000000; stroke-linecap: round"/>
    <path d="M 294.586069 101.567762 
L 290.124354 101.872883 
L 292.557286 98.120438 
L 294.586069 101.567762 
z
" clip-path="url(#p8c15231188)" style="stroke: #000000; stroke-linecap: round"/>
   </g>
   <g id="patch_3">
    <path d="M 301.223939 189.831887 
Q 310.333946 215.215718 319.066287 239.547234 
" clip-path="url(#p8c15231188)" style="fill: none; stroke: #000000; stroke-linecap: round"/>
    <path d="M 319.597548 235.106765 
L 319.066287 239.547234 
L 315.832669 236.457943 
L 319.597548 235.106765 
z
" clip-path="url(#p8c15231188)" style="stroke: #000000; stroke-linecap: round"/>
   </g>
   <g id="patch_4">
    <path d="M 298.647918 188.282405 
Q 261.11019 193.629377 224.679324 198.818685 
" clip-path="url(#p8c15231188)" style="fill: none; stroke: #000000; stroke-linecap: round"/>
    <path d="M 228.92139 200.234622 
L 224.679324 198.818685 
L 228.357313 196.274594 
L 228.92139 200.234622 
z
" clip-path="url(#p8c15231188)" style="stroke: #000000; stroke-linecap: round"/>
   </g>
   <g id="patch_5">
    <path d="M 300.27381 186.095911 
Q 294.029516 145.717296 287.956088 106.443582 
" clip-path="url(#p8c15231188)" style="fill: none; stroke: #000000; stroke-linecap: round"/>
    <path d="M 286.59089 110.702248 
L 287.956088 106.443582 
L 290.543902 110.09094 
L 286.59089 110.702248 
z
" clip-path="url(#p8c15231188)" style="stroke: #000000; stroke-linecap: round"/>
   </g>
   <g id="patch_6">
    <path d="M 319.442762 240.596231 
Q 310.332755 215.2124 301.600414 190.880884 
" clip-path="url(#p8c15231188)" style="fill: none; stroke: #000000; stroke-linecap: round"/>
    <path d="M 301.069153 195.321353 
L 301.600414 190.880884 
L 304.834032 193.970175 
L 301.069153 195.321353 
z
" clip-path="url(#p8c15231188)" style="stroke: #000000; stroke-linecap: round"/>
   </g>
   <g id="patch_7">
    <path d="M 321.132495 244.055366 
Q 342.565834 277.919836 363.401249 310.83959 
" clip-path="url(#p8c15231188)" style="fill: none; stroke: #000000; stroke-linecap: round"/>
    <path d="M 362.952007 306.390076 
L 363.401249 310.83959 
L 359.572092 308.529275 
L 362.952007 306.390076 
z
" clip-path="url(#p8c15231188)" style="stroke: #000000; stroke-linecap: round"/>
   </g>
   <g id="patch_8">
    <path d="M 318.321694 241.640822 
Q 270.877277 220.833553 224.456756 200.475324 
" clip-path="url(#p8c15231188)" style="fill: none; stroke: #000000; stroke-linecap: round"/>
    <path d="M 227.316688 203.913461 
L 224.456756 200.475324 
L 228.923225 200.25026 
L 227.316688 203.913461 
z
" clip-path="url(#p8c15231188)" style="stroke: #000000; stroke-linecap: round"/>
   </g>
   <g id="patch_9">
    <path d="M 318.850111 240.939691 
Q 287.197625 203.378765 256.2656 166.672786 
" clip-path="url(#p8c15231188)" style="fill: none; stroke: #000000; stroke-linecap: round"/>
    <path d="M 257.313826 171.02034 
L 256.2656 166.672786 
L 260.372578 168.442738 
L 257.313826 171.02034 
z
" clip-path="url(#p8c15231188)" style="stroke: #000000; stroke-linecap: round"/>
   </g>
   <g id="patch_10">
    <path d="M 321.12755 240.776546 
Q 341.253673 208.688651 360.785728 177.547902 
" clip-path="url(#p8c15231188)" style="fill: none; stroke: #000000; stroke-linecap: round"/>
    <path d="M 356.966024 179.873812 
L 360.785728 177.547902 
L 360.354634 181.999211 
L 356.966024 179.873812 
z
" clip-path="url(#p8c15231188)" style="stroke: #000000; stroke-linecap: round"/>
   </g>
   <g id="patch_11">
    <path d="M 321.889011 243.154038 
Q 370.456005 263.064027 417.988518 282.549932 
" clip-path="url(#p8c15231188)" style="fill: none; stroke: #000000; stroke-linecap: round"/>
    <path d="M 415.046069 279.182144 
L 417.988518 282.549932 
L 413.528818 282.883218 
L 415.046069 279.182144 
z
" clip-path="url(#p8c15231188)" style="stroke: #000000; stroke-linecap: round"/>
   </g>
   <g id="patch_12">
    <path d="M 319.393089 244.219722 
Q 305.786256 279.015035 292.586608 312.769098 
" clip-path="url(#p8c15231188)" style="fill: none; stroke: #000000; stroke-linecap: round"/>
    <path d="M 295.906039 309.772204 
L 292.586608 312.769098 
L 292.180751 308.315416 
L 295.906039 309.772204 
z
" clip-path="url(#p8c15231188)" style="stroke: #000000; stroke-linecap: round"/>
   </g>
   <g id="patch_13">
    <path d="M 363.999433 311.784716 
Q 342.566094 277.920246 321.730679 245.000491 
" clip-path="url(#p8c15231188)" style="fill: none; stroke: #000000; stroke-linecap: round"/>
    <path d="M 322.179921 249.450006 
L 321.730679 245.000491 
L 325.559836 247.310806 
L 322.179921 249.450006 
z
" clip-path="url(#p8c15231188)" style="stroke: #000000; stroke-linecap: round"/>
   </g>
   <g id="patch_14">
    <path d="M 235.226564 127.840435 
Q 236.151788 104.069574 237.033529 81.415901 
" clip-path="url(#p8c15231188)" style="fill: none; stroke: #000000; stroke-linecap: round"/>
    <path d="M 234.879469 85.335088 
L 237.033529 81.415901 
L 238.876443 85.490661 
L 234.879469 85.335088 
z
" clip-path="url(#p8c15231188)" style="stroke: #000000; stroke-linecap: round"/>
   </g>
   <g id="patch_15">
    <path d="M 234.781479 131.680475 
Q 228.405331 164.51403 222.24232 196.250054 
" clip-path="url(#p8c15231188)" style="fill: none; stroke: #000000; stroke-linecap: round"/>
    <path d="M 224.968181 192.70468 
L 222.24232 196.250054 
L 221.041537 191.942141 
L 224.968181 192.70468 
z
" clip-path="url(#p8c15231188)" style="stroke: #000000; stroke-linecap: round"/>
   </g>
   <g id="patch_16">
    <path d="M 236.879401 128.906434 
Q 261.320879 116.599814 284.763765 104.795999 
" clip-path="url(#p8c15231188)" style="fill: none; stroke: #000000; stroke-linecap: round"/>
    <path d="M 280.291647 104.808552 
L 284.763765 104.795999 
L 282.090537 108.381226 
L 280.291647 104.808552 
z
" clip-path="url(#p8c15231188)" style="stroke: #000000; stroke-linecap: round"/>
   </g>
   <g id="patch_17">
    <path d="M 190.950896 143.937806 
Q 238.325849 124.056027 284.669873 104.606897 
" clip-path="url(#p8c15231188)" style="fill: none; stroke: #000000; stroke-linecap: round"/>
    <path d="M 280.207563 104.310605 
L 284.669873 104.606897 
L 281.755454 107.99897 
L 280.207563 104.310605 
z
" clip-path="url(#p8c15231188)" style="stroke: #000000; stroke-linecap: round"/>
   </g>
   <g id="patch_18">
    <path d="M 190.299019 143.120448 
Q 213.158037 111.526282 235.361684 80.837924 
" clip-path="url(#p8c15231188)" style="fill: none; stroke: #000000; stroke-linecap: round"/>
    <path d="M 231.396599 82.90628 
L 235.361684 80.837924 
L 234.637318 85.251006 
L 231.396599 82.90628 
z
" clip-path="url(#p8c15231188)" style="stroke: #000000; stroke-linecap: round"/>
   </g>
   <g id="patch_19">
    <path d="M 190.155209 146.348824 
Q 205.412449 171.967391 220.097608 196.625373 
" clip-path="url(#p8c15231188)" style="fill: none; stroke: #000000; stroke-linecap: round"/>
    <path d="M 219.769219 192.16531 
L 220.097608 196.625373 
L 216.332524 194.212047 
L 219.769219 192.16531 
z
" clip-path="url(#p8c15231188)" style="stroke: #000000; stroke-linecap: round"/>
   </g>
   <g id="patch_20">
    <path d="M 187.716821 145.975196 
Q 158.457891 171.99085 130.034481 197.263599 
" clip-path="url(#p8c15231188)" style="fill: none; stroke: #000000; stroke-linecap: round"/>
    <path d="M 134.352675 196.100326 
L 130.034481 197.263599 
L 131.694779 193.111081 
L 134.352675 196.100326 
z
" clip-path="url(#p8c15231188)" style="stroke: #000000; stroke-linecap: round"/>
   </g>
   <g id="patch_21">
    <path d="M 223.58167 198.975037 
Q 261.119398 193.628065 297.550264 188.438757 
" clip-path="url(#p8c15231188)" style="fill: none; stroke: #000000; stroke-linecap: round"/>
    <path d="M 293.308198 187.02282 
L 297.550264 188.438757 
L 293.872275 190.982848 
L 293.308198 187.02282 
z
" clip-path="url(#p8c15231188)" style="stroke: #000000; stroke-linecap: round"/>
   </g>
   <g id="patch_22">
    <path d="M 223.435382 200.027389 
Q 270.879799 220.834659 317.30032 241.192887 
" clip-path="url(#p8c15231188)" style="fill: none; stroke: #000000; stroke-linecap: round"/>
    <path d="M 314.440388 237.75475 
L 317.30032 241.192887 
L 312.833851 241.417951 
L 314.440388 237.75475 
z
" clip-path="url(#p8c15231188)" style="stroke: #000000; stroke-linecap: round"/>
   </g>
   <g id="patch_23">
    <path d="M 222.029706 197.344898 
Q 228.405853 164.511343 234.568865 132.775319 
" clip-path="url(#p8c15231188)" style="fill: none; stroke: #000000; stroke-linecap: round"/>
    <path d="M 231.843004 136.320693 
L 234.568865 132.775319 
L 235.769648 137.083232 
L 231.843004 136.320693 
z
" clip-path="url(#p8c15231188)" style="stroke: #000000; stroke-linecap: round"/>
   </g>
   <g id="patch_24">
    <path d="M 220.670313 197.587007 
Q 205.413074 171.96844 190.727914 147.310458 
" clip-path="url(#p8c15231188)" style="fill: none; stroke: #000000; stroke-linecap: round"/>
    <path d="M 191.056304 151.770521 
L 190.727914 147.310458 
L 194.492998 149.723784 
L 191.056304 151.770521 
z
" clip-path="url(#p8c15231188)" style="stroke: #000000; stroke-linecap: round"/>
   </g>
   <g id="patch_25">
    <path d="M 219.725564 199.249657 
Q 174.706368 199.270339 130.805207 199.290508 
" clip-path="url(#p8c15231188)" style="fill: none; stroke: #000000; stroke-linecap: round"/>
    <path d="M 134.806125 201.28867 
L 130.805207 199.290508 
L 134.804288 197.288671 
L 134.806125 201.28867 
z
" clip-path="url(#p8c15231188)" style="stroke: #000000; stroke-linecap: round"/>
   </g>
   <g id="patch_26">
    <path d="M 129.202028 198.003777 
Q 158.460958 171.988123 186.884368 146.715374 
" clip-path="url(#p8c15231188)" style="fill: none; stroke: #000000; stroke-linecap: round"/>
    <path d="M 182.566174 147.878647 
L 186.884368 146.715374 
L 185.22407 150.867893 
L 182.566174 147.878647 
z
" clip-path="url(#p8c15231188)" style="stroke: #000000; stroke-linecap: round"/>
   </g>
   <g id="patch_27">
    <path d="M 129.687726 199.291022 
Q 174.706921 199.270339 218.608083 199.25017 
" clip-path="url(#p8c15231188)" style="fill: none; stroke: #000000; stroke-linecap: round"/>
    <path d="M 214.607164 197.252008 
L 218.608083 199.25017 
L 214.609002 201.252007 
L 214.607164 197.252008 
z
" clip-path="url(#p8c15231188)" style="stroke: #000000; stroke-linecap: round"/>
   </g>
   <g id="patch_28">
    <path d="M 255.545131 165.81783 
Q 287.197617 203.378756 318.129642 240.084735 
" clip-path="url(#p8c15231188)" style="fill: none; stroke: #000000; stroke-linecap: round"/>
    <path d="M 317.081416 235.737181 
L 318.129642 240.084735 
L 314.022664 238.314783 
L 317.081416 235.737181 
z
" clip-path="url(#p8c15231188)" style="stroke: #000000; stroke-linecap: round"/>
   </g>
   <g id="patch_29">
    <path d="M 252.627933 163.359699 
Q 205.345455 135.66256 159.027683 108.530526 
" clip-path="url(#p8c15231188)" style="fill: none; stroke: #000000; stroke-linecap: round"/>
    <path d="M 161.468227 112.278025 
L 159.027683 108.530526 
L 163.490008 108.826591 
L 161.468227 112.278025 
z
" clip-path="url(#p8c15231188)" style="stroke: #000000; stroke-linecap: round"/>
   </g>
   <g id="patch_30">
    <path d="M 255.223945 162.63899 
Q 270.892746 133.882522 286.02661 106.107807 
" clip-path="url(#p8c15231188)" style="fill: none; stroke: #000000; stroke-linecap: round"/>
    <path d="M 282.356544 108.663313 
L 286.02661 106.107807 
L 285.868975 110.577164 
L 282.356544 108.663313 
z
" clip-path="url(#p8c15231188)" style="stroke: #000000; stroke-linecap: round"/>
   </g>
   <g id="patch_31">
    <path d="M 411.643217 89.182037 
Q 350.526637 96.192722 290.520806 103.075991 
" clip-path="url(#p8c15231188)" style="fill: none; stroke: #000000; stroke-linecap: round"/>
    <path d="M 294.722672 104.607111 
L 290.520806 103.075991 
L 294.266821 100.633171 
L 294.722672 104.607111 
z
" clip-path="url(#p8c15231188)" style="stroke: #000000; stroke-linecap: round"/>
   </g>
   <g id="patch_32">
    <path d="M 41.873102 79.45905 
Q 98.190636 92.99639 153.421101 106.272426 
" clip-path="url(#p8c15231188)" style="fill: none; stroke: #000000; stroke-linecap: round"/>
    <path d="M 149.999319 103.392945 
L 153.421101 106.272426 
L 149.064447 107.282163 
L 149.999319 103.392945 
z
" clip-path="url(#p8c15231188)" style="stroke: #000000; stroke-linecap: round"/>
   </g>
   <g id="patch_33">
    <path d="M 158.062102 107.964908 
Q 205.344579 135.662047 251.662351 162.79408 
" clip-path="url(#p8c15231188)" style="fill: none; stroke: #000000; stroke-linecap: round"/>
    <path d="M 249.221808 159.046581 
L 251.662351 162.79408 
L 247.200026 162.498015 
L 249.221808 159.046581 
z
" clip-path="url(#p8c15231188)" style="stroke: #000000; stroke-linecap: round"/>
   </g>
   <g id="patch_34">
    <path d="M 154.505562 106.533103 
Q 98.188027 92.995763 42.957563 79.719727 
" clip-path="url(#p8c15231188)" style="fill: none; stroke: #000000; stroke-linecap: round"/>
    <path d="M 46.379345 82.599208 
L 42.957563 79.719727 
L 47.314216 78.70999 
L 46.379345 82.599208 
z
" clip-path="url(#p8c15231188)" style="stroke: #000000; stroke-linecap: round"/>
   </g>
   <g id="patch_35">
    <path d="M 158.324259 106.934014 
Q 221.938964 105.205186 284.436048 103.506731 
" clip-path="url(#p8c15231188)" style="fill: none; stroke: #000000; stroke-linecap: round"/>
    <path d="M 280.383191 101.616135 
L 284.436048 103.506731 
L 280.491858 105.614659 
L 280.383191 101.616135 
z
" clip-path="url(#p8c15231188)" style="stroke: #000000; stroke-linecap: round"/>
   </g>
   <g id="patch_36">
    <path d="M 215.903282 42.979881 
Q 226.029146 59.841059 235.579403 75.743761 
" clip-path="url(#p8c15231188)" style="fill: none; stroke: #000000; stroke-linecap: round"/>
    <path d="M 235.234625 71.284935 
L 235.579403 75.743761 
L 231.805476 73.344287 
L 235.234625 71.284935 
z
" clip-path="url(#p8c15231188)" style="stroke: #000000; stroke-linecap: round"/>
   </g>
   <g id="patch_37">
    <path d="M 216.378289 42.578398 
Q 251.196931 72.370677 285.16607 101.436085 
" clip-path="url(#p8c15231188)" style="fill: none; stroke: #000000; stroke-linecap: round"/>
    <path d="M 283.427057 97.315911 
L 285.16607 101.436085 
L 280.826523 100.35519 
L 283.427057 97.315911 
z
" clip-path="url(#p8c15231188)" style="stroke: #000000; stroke-linecap: round"/>
   </g>
   <g id="patch_38">
    <path d="M 237.076996 80.29915 
Q 236.151771 104.070011 235.270031 126.723684 
" clip-path="url(#p8c15231188)" style="fill: none; stroke: #000000; stroke-linecap: round"/>
    <path d="M 237.42409 122.804497 
L 235.270031 126.723684 
L 233.427117 122.648924 
L 237.42409 122.804497 
z
" clip-path="url(#p8c15231188)" style="stroke: #000000; stroke-linecap: round"/>
   </g>
   <g id="patch_39">
    <path d="M 236.018879 79.929595 
Q 213.15986 111.523761 190.956213 142.212119 
" clip-path="url(#p8c15231188)" style="fill: none; stroke: #000000; stroke-linecap: round"/>
    <path d="M 194.921298 140.143763 
L 190.956213 142.212119 
L 191.680579 137.799037 
L 194.921298 140.143763 
z
" clip-path="url(#p8c15231188)" style="stroke: #000000; stroke-linecap: round"/>
   </g>
   <g id="patch_40">
    <path d="M 236.154333 76.701112 
Q 226.028469 59.839933 216.478212 43.937232 
" clip-path="url(#p8c15231188)" style="fill: none; stroke: #000000; stroke-linecap: round"/>
    <path d="M 216.822989 48.396057 
L 216.478212 43.937232 
L 220.252139 46.336705 
L 216.822989 48.396057 
z
" clip-path="url(#p8c15231188)" style="stroke: #000000; stroke-linecap: round"/>
   </g>
   <g id="patch_41">
    <path d="M 238.218255 76.742086 
Q 253.058324 54.175056 267.284096 32.542177 
" clip-path="url(#p8c15231188)" style="fill: none; stroke: #000000; stroke-linecap: round"/>
    <path d="M 263.415257 34.78541 
L 267.284096 32.542177 
L 266.757379 36.983187 
L 263.415257 34.78541 
z
" clip-path="url(#p8c15231188)" style="stroke: #000000; stroke-linecap: round"/>
   </g>
   <g id="patch_42">
    <path d="M 238.888212 79.227197 
Q 262.320991 90.893502 284.752916 102.06152 
" clip-path="url(#p8c15231188)" style="fill: none; stroke: #000000; stroke-linecap: round"/>
    <path d="M 282.063516 98.488408 
L 284.752916 102.06152 
L 280.280787 102.069173 
L 282.063516 98.488408 
z
" clip-path="url(#p8c15231188)" style="stroke: #000000; stroke-linecap: round"/>
   </g>
   <g id="patch_43">
    <path d="M 238.948523 77.640309 
Q 274.029946 63.525621 308.074141 49.828252 
" clip-path="url(#p8c15231188)" style="fill: none; stroke: #000000; stroke-linecap: round"/>
    <path d="M 303.616713 49.465848 
L 308.074141 49.828252 
L 305.109761 53.176752 
L 303.616713 49.465848 
z
" clip-path="url(#p8c15231188)" style="stroke: #000000; stroke-linecap: round"/>
   </g>
   <g id="patch_44">
    <path d="M 267.896453 31.610976 
Q 253.056384 54.178006 238.830613 75.810885 
" clip-path="url(#p8c15231188)" style="fill: none; stroke: #000000; stroke-linecap: round"/>
    <path d="M 242.699451 73.567653 
L 238.830613 75.810885 
L 239.35733 71.369875 
L 242.699451 73.567653 
z
" clip-path="url(#p8c15231188)" style="stroke: #000000; stroke-linecap: round"/>
   </g>
   <g id="patch_45">
    <path d="M 269.43615 31.868056 
Q 278.226271 66.709097 286.742891 100.466074 
" clip-path="url(#p8c15231188)" style="fill: none; stroke: #000000; stroke-linecap: round"/>
    <path d="M 287.703619 96.098351 
L 286.742891 100.466074 
L 283.825149 97.076858 
L 287.703619 96.098351 
z
" clip-path="url(#p8c15231188)" style="stroke: #000000; stroke-linecap: round"/>
   </g>
   <g id="patch_46">
    <path d="M 289.15908 102.440956 
Q 337.145359 74.200569 384.168081 46.527245 
" clip-path="url(#p8c15231188)" style="fill: none; stroke: #000000; stroke-linecap: round"/>
    <path d="M 379.706366 46.832366 
L 384.168081 46.527245 
L 381.735149 50.279689 
L 379.706366 46.832366 
z
" clip-path="url(#p8c15231188)" style="stroke: #000000; stroke-linecap: round"/>
   </g>
   <g id="patch_47">
    <path d="M 287.784889 105.336523 
Q 294.029182 145.715137 300.10261 184.988852 
" clip-path="url(#p8c15231188)" style="fill: none; stroke: #000000; stroke-linecap: round"/>
    <path d="M 301.467808 180.730186 
L 300.10261 184.988852 
L 297.514796 181.341494 
L 301.467808 180.730186 
z
" clip-path="url(#p8c15231188)" style="stroke: #000000; stroke-linecap: round"/>
   </g>
   <g id="patch_48">
    <path d="M 285.760894 104.293931 
Q 261.319416 116.600551 237.87653 128.404366 
" clip-path="url(#p8c15231188)" style="fill: none; stroke: #000000; stroke-linecap: round"/>
    <path d="M 242.348648 128.391812 
L 237.87653 128.404366 
L 240.549758 124.819139 
L 242.348648 128.391812 
z
" clip-path="url(#p8c15231188)" style="stroke: #000000; stroke-linecap: round"/>
   </g>
   <g id="patch_49">
    <path d="M 285.703737 104.173017 
Q 238.328784 124.054795 191.98476 143.503925 
" clip-path="url(#p8c15231188)" style="fill: none; stroke: #000000; stroke-linecap: round"/>
    <path d="M 196.44707 143.800217 
L 191.98476 143.503925 
L 194.89918 140.111852 
L 196.44707 143.800217 
z
" clip-path="url(#p8c15231188)" style="stroke: #000000; stroke-linecap: round"/>
   </g>
   <g id="patch_50">
    <path d="M 286.563295 105.122847 
Q 270.894493 133.879315 255.760629 161.65403 
" clip-path="url(#p8c15231188)" style="fill: none; stroke: #000000; stroke-linecap: round"/>
    <path d="M 259.430696 159.098524 
L 255.760629 161.65403 
L 255.918264 157.184673 
L 259.430696 159.098524 
z
" clip-path="url(#p8c15231188)" style="stroke: #000000; stroke-linecap: round"/>
   </g>
   <g id="patch_51">
    <path d="M 289.416796 103.202632 
Q 350.533377 96.191948 410.539207 89.308678 
" clip-path="url(#p8c15231188)" style="fill: none; stroke: #000000; stroke-linecap: round"/>
    <path d="M 406.337342 87.777559 
L 410.539207 89.308678 
L 406.793192 91.751499 
L 406.337342 87.777559 
z
" clip-path="url(#p8c15231188)" style="stroke: #000000; stroke-linecap: round"/>
   </g>
   <g id="patch_52">
    <path d="M 285.556721 103.476275 
Q 221.942015 105.205103 159.444931 106.903558 
" clip-path="url(#p8c15231188)" style="fill: none; stroke: #000000; stroke-linecap: round"/>
    <path d="M 163.497788 108.794154 
L 159.444931 106.903558 
L 163.389122 104.79563 
L 163.497788 108.794154 
z
" clip-path="url(#p8c15231188)" style="stroke: #000000; stroke-linecap: round"/>
   </g>
   <g id="patch_53">
    <path d="M 286.016062 102.163374 
Q 251.197419 72.371095 217.228281 43.305687 
" clip-path="url(#p8c15231188)" style="fill: none; stroke: #000000; stroke-linecap: round"/>
    <path d="M 218.967294 47.425861 
L 217.228281 43.305687 
L 221.567828 44.386582 
L 218.967294 47.425861 
z
" clip-path="url(#p8c15231188)" style="stroke: #000000; stroke-linecap: round"/>
   </g>
   <g id="patch_54">
    <path d="M 285.753237 102.559542 
Q 262.320458 90.893237 239.888533 79.72522 
" clip-path="url(#p8c15231188)" style="fill: none; stroke: #000000; stroke-linecap: round"/>
    <path d="M 242.577933 83.298331 
L 239.888533 79.72522 
L 244.360662 79.717566 
L 242.577933 83.298331 
z
" clip-path="url(#p8c15231188)" style="stroke: #000000; stroke-linecap: round"/>
   </g>
   <g id="patch_55">
    <path d="M 287.015294 101.545786 
Q 278.225173 66.704745 269.708553 32.947768 
" clip-path="url(#p8c15231188)" style="fill: none; stroke: #000000; stroke-linecap: round"/>
    <path d="M 268.747825 37.315491 
L 269.708553 32.947768 
L 272.626295 36.336984 
L 268.747825 37.315491 
z
" clip-path="url(#p8c15231188)" style="stroke: #000000; stroke-linecap: round"/>
   </g>
   <g id="patch_56">
    <path d="M 288.250941 101.643116 
Q 299.19835 76.0561 309.70597 51.496987 
" clip-path="url(#p8c15231188)" style="fill: none; stroke: #000000; stroke-linecap: round"/>
    <path d="M 306.293764 54.387809 
L 309.70597 51.496987 
L 309.971304 55.961245 
L 306.293764 54.387809 
z
" clip-path="url(#p8c15231188)" style="stroke: #000000; stroke-linecap: round"/>
   </g>
   <g id="patch_57">
    <path d="M 288.890665 104.761964 
Q 324.949371 139.190391 360.199439 172.84674 
" clip-path="url(#p8c15231188)" style="fill: none; stroke: #000000; stroke-linecap: round"/>
    <path d="M 358.687503 168.637934 
L 360.199439 172.84674 
L 355.925232 171.531005 
L 358.687503 168.637934 
z
" clip-path="url(#p8c15231188)" style="stroke: #000000; stroke-linecap: round"/>
   </g>
   <g id="patch_58">
    <path d="M 309.111548 49.41086 
Q 274.030125 63.525549 239.98593 77.222918 
" clip-path="url(#p8c15231188)" style="fill: none; stroke: #000000; stroke-linecap: round"/>
    <path d="M 244.443358 77.585321 
L 239.98593 77.222918 
L 242.95031 73.874418 
L 244.443358 77.585321 
z
" clip-path="url(#p8c15231188)" style="stroke: #000000; stroke-linecap: round"/>
   </g>
   <g id="patch_59">
    <path d="M 310.145866 50.468833 
Q 299.198457 76.055849 288.690837 100.614962 
" clip-path="url(#p8c15231188)" style="fill: none; stroke: #000000; stroke-linecap: round"/>
    <path d="M 292.103043 97.72414 
L 288.690837 100.614962 
L 288.425503 96.150704 
L 292.103043 97.72414 
z
" clip-path="url(#p8c15231188)" style="stroke: #000000; stroke-linecap: round"/>
   </g>
   <g id="patch_60">
    <path d="M 361.379898 176.600593 
Q 341.253775 208.688488 321.72172 239.829237 
" clip-path="url(#p8c15231188)" style="fill: none; stroke: #000000; stroke-linecap: round"/>
    <path d="M 325.541424 237.503327 
L 321.72172 239.829237 
L 322.152814 235.377928 
L 325.541424 237.503327 
z
" clip-path="url(#p8c15231188)" style="stroke: #000000; stroke-linecap: round"/>
   </g>
   <g id="patch_61">
    <path d="M 361.008781 173.61949 
Q 324.950075 139.191064 289.700007 105.534715 
" clip-path="url(#p8c15231188)" style="fill: none; stroke: #000000; stroke-linecap: round"/>
    <path d="M 291.211943 109.743521 
L 289.700007 105.534715 
L 293.974214 106.85045 
L 291.211943 109.743521 
z
" clip-path="url(#p8c15231188)" style="stroke: #000000; stroke-linecap: round"/>
   </g>
   <g id="patch_62">
    <path d="M 419.021307 282.973323 
Q 370.454313 263.063334 322.9218 243.577429 
" clip-path="url(#p8c15231188)" style="fill: none; stroke: #000000; stroke-linecap: round"/>
    <path d="M 325.864248 246.945217 
L 322.9218 243.577429 
L 327.3815 243.244143 
L 325.864248 246.945217 
z
" clip-path="url(#p8c15231188)" style="stroke: #000000; stroke-linecap: round"/>
   </g>
   <g id="patch_63">
    <path d="M 292.1797 313.809639 
Q 305.786533 279.014326 318.986182 245.260263 
" clip-path="url(#p8c15231188)" style="fill: none; stroke: #000000; stroke-linecap: round"/>
    <path d="M 315.66675 248.257157 
L 318.986182 245.260263 
L 319.392038 249.713945 
L 315.66675 248.257157 
z
" clip-path="url(#p8c15231188)" style="stroke: #000000; stroke-linecap: round"/>
   </g>
   <g id="PathCollection_1">
    <defs>
     <path id="m744b8600d8" d="M 0 1.936492 
C 0.513564 1.936492 1.006162 1.732451 1.369306 1.369306 
C 1.732451 1.006162 1.936492 0.513564 1.936492 0 
C 1.936492 -0.513564 1.732451 -1.006162 1.369306 -1.369306 
C 1.006162 -1.732451 0.513564 -1.936492 0 -1.936492 
C -0.513564 -1.936492 -1.006162 -1.732451 -1.369306 -1.369306 
C -1.732451 -1.006162 -1.936492 -0.513564 -1.936492 0 
C -1.936492 0.513564 -1.732451 1.006162 -1.369306 1.369306 
C -1.006162 1.732451 -0.513564 1.936492 0 1.936492 
z
" style="stroke: #1f78b4"/>
    </defs>
    <g clip-path="url(#p8c15231188)">
     <use xlink:href="#m744b8600d8" x="386.803342" y="44.976368" style="fill: #1f78b4; stroke: #1f78b4"/>
     <use xlink:href="#m744b8600d8" x="300.569606" y="188.008674" style="fill: #1f78b4; stroke: #1f78b4"/>
     <use xlink:href="#m744b8600d8" x="320.097095" y="242.419444" style="fill: #1f78b4; stroke: #1f78b4"/>
     <use xlink:href="#m744b8600d8" x="365.034833" y="313.420638" style="fill: #1f78b4; stroke: #1f78b4"/>
     <use xlink:href="#m744b8600d8" x="235.151203" y="129.776605" style="fill: #1f78b4; stroke: #1f78b4"/>
     <use xlink:href="#m744b8600d8" x="189.165541" y="144.687063" style="fill: #1f78b4; stroke: #1f78b4"/>
     <use xlink:href="#m744b8600d8" x="221.659982" y="199.248768" style="fill: #1f78b4; stroke: #1f78b4"/>
     <use xlink:href="#m744b8600d8" x="127.753308" y="199.29191" style="fill: #1f78b4; stroke: #1f78b4"/>
     <use xlink:href="#m744b8600d8" x="254.298147" y="164.338077" style="fill: #1f78b4; stroke: #1f78b4"/>
     <use xlink:href="#m744b8600d8" x="413.570921" y="88.96091" style="fill: #1f78b4; stroke: #1f78b4"/>
     <use xlink:href="#m744b8600d8" x="39.986777" y="79.005624" style="fill: #1f78b4; stroke: #1f78b4"/>
     <use xlink:href="#m744b8600d8" x="156.391887" y="106.986529" style="fill: #1f78b4; stroke: #1f78b4"/>
     <use xlink:href="#m744b8600d8" x="214.905259" y="41.318013" style="fill: #1f78b4; stroke: #1f78b4"/>
     <use xlink:href="#m744b8600d8" x="237.152356" y="78.36298" style="fill: #1f78b4; stroke: #1f78b4"/>
     <use xlink:href="#m744b8600d8" x="268.962352" y="29.990083" style="fill: #1f78b4; stroke: #1f78b4"/>
     <use xlink:href="#m744b8600d8" x="287.489092" y="103.423759" style="fill: #1f78b4; stroke: #1f78b4"/>
     <use xlink:href="#m744b8600d8" x="310.907714" y="48.688189" style="fill: #1f78b4; stroke: #1f78b4"/>
     <use xlink:href="#m744b8600d8" x="362.410354" y="174.957695" style="fill: #1f78b4; stroke: #1f78b4"/>
     <use xlink:href="#m744b8600d8" x="420.813223" y="283.707917" style="fill: #1f78b4; stroke: #1f78b4"/>
     <use xlink:href="#m744b8600d8" x="291.475695" y="315.609917" style="fill: #1f78b4; stroke: #1f78b4"/>
    </g>
   </g>
   <g id="text_1">
    <g clip-path="url(#p8c15231188)">
     <!-- 0 -->
     <g transform="translate(383.622092 47.735743) scale(0.1 -0.1)">
      <defs>
       <path id="DejaVuSans-30" d="M 2034 4250 
Q 1547 4250 1301 3770 
Q 1056 3291 1056 2328 
Q 1056 1369 1301 889 
Q 1547 409 2034 409 
Q 2525 409 2770 889 
Q 3016 1369 3016 2328 
Q 3016 3291 2770 3770 
Q 2525 4250 2034 4250 
z
M 2034 4750 
Q 2819 4750 3233 4129 
Q 3647 3509 3647 2328 
Q 3647 1150 3233 529 
Q 2819 -91 2034 -91 
Q 1250 -91 836 529 
Q 422 1150 422 2328 
Q 422 3509 836 4129 
Q 1250 4750 2034 4750 
z
" transform="scale(0.015625)"/>
      </defs>
      <use xlink:href="#DejaVuSans-30"/>
     </g>
    </g>
   </g>
   <g id="text_2">
    <g clip-path="url(#p8c15231188)">
     <!-- 1 -->
     <g transform="translate(297.388356 190.768049) scale(0.1 -0.1)">
      <defs>
       <path id="DejaVuSans-31" d="M 794 531 
L 1825 531 
L 1825 4091 
L 703 3866 
L 703 4441 
L 1819 4666 
L 2450 4666 
L 2450 531 
L 3481 531 
L 3481 0 
L 794 0 
L 794 531 
z
" transform="scale(0.015625)"/>
      </defs>
      <use xlink:href="#DejaVuSans-31"/>
     </g>
    </g>
   </g>
   <g id="text_3">
    <g clip-path="url(#p8c15231188)">
     <!-- 2 -->
     <g transform="translate(316.915845 245.178819) scale(0.1 -0.1)">
      <defs>
       <path id="DejaVuSans-32" d="M 1228 531 
L 3431 531 
L 3431 0 
L 469 0 
L 469 531 
Q 828 903 1448 1529 
Q 2069 2156 2228 2338 
Q 2531 2678 2651 2914 
Q 2772 3150 2772 3378 
Q 2772 3750 2511 3984 
Q 2250 4219 1831 4219 
Q 1534 4219 1204 4116 
Q 875 4013 500 3803 
L 500 4441 
Q 881 4594 1212 4672 
Q 1544 4750 1819 4750 
Q 2544 4750 2975 4387 
Q 3406 4025 3406 3419 
Q 3406 3131 3298 2873 
Q 3191 2616 2906 2266 
Q 2828 2175 2409 1742 
Q 1991 1309 1228 531 
z
" transform="scale(0.015625)"/>
      </defs>
      <use xlink:href="#DejaVuSans-32"/>
     </g>
    </g>
   </g>
   <g id="text_4">
    <g clip-path="url(#p8c15231188)">
     <!-- 3 -->
     <g transform="translate(361.853583 316.180013) scale(0.1 -0.1)">
      <defs>
       <path id="DejaVuSans-33" d="M 2597 2516 
Q 3050 2419 3304 2112 
Q 3559 1806 3559 1356 
Q 3559 666 3084 287 
Q 2609 -91 1734 -91 
Q 1441 -91 1130 -33 
Q 819 25 488 141 
L 488 750 
Q 750 597 1062 519 
Q 1375 441 1716 441 
Q 2309 441 2620 675 
Q 2931 909 2931 1356 
Q 2931 1769 2642 2001 
Q 2353 2234 1838 2234 
L 1294 2234 
L 1294 2753 
L 1863 2753 
Q 2328 2753 2575 2939 
Q 2822 3125 2822 3475 
Q 2822 3834 2567 4026 
Q 2313 4219 1838 4219 
Q 1578 4219 1281 4162 
Q 984 4106 628 3988 
L 628 4550 
Q 988 4650 1302 4700 
Q 1616 4750 1894 4750 
Q 2613 4750 3031 4423 
Q 3450 4097 3450 3541 
Q 3450 3153 3228 2886 
Q 3006 2619 2597 2516 
z
" transform="scale(0.015625)"/>
      </defs>
      <use xlink:href="#DejaVuSans-33"/>
     </g>
    </g>
   </g>
   <g id="text_5">
    <g clip-path="url(#p8c15231188)">
     <!-- 4 -->
     <g transform="translate(231.969953 132.53598) scale(0.1 -0.1)">
      <defs>
       <path id="DejaVuSans-34" d="M 2419 4116 
L 825 1625 
L 2419 1625 
L 2419 4116 
z
M 2253 4666 
L 3047 4666 
L 3047 1625 
L 3713 1625 
L 3713 1100 
L 3047 1100 
L 3047 0 
L 2419 0 
L 2419 1100 
L 313 1100 
L 313 1709 
L 2253 4666 
z
" transform="scale(0.015625)"/>
      </defs>
      <use xlink:href="#DejaVuSans-34"/>
     </g>
    </g>
   </g>
   <g id="text_6">
    <g clip-path="url(#p8c15231188)">
     <!-- 5 -->
     <g transform="translate(185.984291 147.446438) scale(0.1 -0.1)">
      <defs>
       <path id="DejaVuSans-35" d="M 691 4666 
L 3169 4666 
L 3169 4134 
L 1269 4134 
L 1269 2991 
Q 1406 3038 1543 3061 
Q 1681 3084 1819 3084 
Q 2600 3084 3056 2656 
Q 3513 2228 3513 1497 
Q 3513 744 3044 326 
Q 2575 -91 1722 -91 
Q 1428 -91 1123 -41 
Q 819 9 494 109 
L 494 744 
Q 775 591 1075 516 
Q 1375 441 1709 441 
Q 2250 441 2565 725 
Q 2881 1009 2881 1497 
Q 2881 1984 2565 2268 
Q 2250 2553 1709 2553 
Q 1456 2553 1204 2497 
Q 953 2441 691 2322 
L 691 4666 
z
" transform="scale(0.015625)"/>
      </defs>
      <use xlink:href="#DejaVuSans-35"/>
     </g>
    </g>
   </g>
   <g id="text_7">
    <g clip-path="url(#p8c15231188)">
     <!-- 6 -->
     <g transform="translate(218.478732 202.008143) scale(0.1 -0.1)">
      <defs>
       <path id="DejaVuSans-36" d="M 2113 2584 
Q 1688 2584 1439 2293 
Q 1191 2003 1191 1497 
Q 1191 994 1439 701 
Q 1688 409 2113 409 
Q 2538 409 2786 701 
Q 3034 994 3034 1497 
Q 3034 2003 2786 2293 
Q 2538 2584 2113 2584 
z
M 3366 4563 
L 3366 3988 
Q 3128 4100 2886 4159 
Q 2644 4219 2406 4219 
Q 1781 4219 1451 3797 
Q 1122 3375 1075 2522 
Q 1259 2794 1537 2939 
Q 1816 3084 2150 3084 
Q 2853 3084 3261 2657 
Q 3669 2231 3669 1497 
Q 3669 778 3244 343 
Q 2819 -91 2113 -91 
Q 1303 -91 875 529 
Q 447 1150 447 2328 
Q 447 3434 972 4092 
Q 1497 4750 2381 4750 
Q 2619 4750 2861 4703 
Q 3103 4656 3366 4563 
z
" transform="scale(0.015625)"/>
      </defs>
      <use xlink:href="#DejaVuSans-36"/>
     </g>
    </g>
   </g>
   <g id="text_8">
    <g clip-path="url(#p8c15231188)">
     <!-- 7 -->
     <g transform="translate(124.572058 202.051285) scale(0.1 -0.1)">
      <defs>
       <path id="DejaVuSans-37" d="M 525 4666 
L 3525 4666 
L 3525 4397 
L 1831 0 
L 1172 0 
L 2766 4134 
L 525 4134 
L 525 4666 
z
" transform="scale(0.015625)"/>
      </defs>
      <use xlink:href="#DejaVuSans-37"/>
     </g>
    </g>
   </g>
   <g id="text_9">
    <g clip-path="url(#p8c15231188)">
     <!-- 8 -->
     <g transform="translate(251.116897 167.097452) scale(0.1 -0.1)">
      <defs>
       <path id="DejaVuSans-38" d="M 2034 2216 
Q 1584 2216 1326 1975 
Q 1069 1734 1069 1313 
Q 1069 891 1326 650 
Q 1584 409 2034 409 
Q 2484 409 2743 651 
Q 3003 894 3003 1313 
Q 3003 1734 2745 1975 
Q 2488 2216 2034 2216 
z
M 1403 2484 
Q 997 2584 770 2862 
Q 544 3141 544 3541 
Q 544 4100 942 4425 
Q 1341 4750 2034 4750 
Q 2731 4750 3128 4425 
Q 3525 4100 3525 3541 
Q 3525 3141 3298 2862 
Q 3072 2584 2669 2484 
Q 3125 2378 3379 2068 
Q 3634 1759 3634 1313 
Q 3634 634 3220 271 
Q 2806 -91 2034 -91 
Q 1263 -91 848 271 
Q 434 634 434 1313 
Q 434 1759 690 2068 
Q 947 2378 1403 2484 
z
M 1172 3481 
Q 1172 3119 1398 2916 
Q 1625 2713 2034 2713 
Q 2441 2713 2670 2916 
Q 2900 3119 2900 3481 
Q 2900 3844 2670 4047 
Q 2441 4250 2034 4250 
Q 1625 4250 1398 4047 
Q 1172 3844 1172 3481 
z
" transform="scale(0.015625)"/>
      </defs>
      <use xlink:href="#DejaVuSans-38"/>
     </g>
    </g>
   </g>
   <g id="text_10">
    <g clip-path="url(#p8c15231188)">
     <!-- 9 -->
     <g transform="translate(410.389671 91.720285) scale(0.1 -0.1)">
      <defs>
       <path id="DejaVuSans-39" d="M 703 97 
L 703 672 
Q 941 559 1184 500 
Q 1428 441 1663 441 
Q 2288 441 2617 861 
Q 2947 1281 2994 2138 
Q 2813 1869 2534 1725 
Q 2256 1581 1919 1581 
Q 1219 1581 811 2004 
Q 403 2428 403 3163 
Q 403 3881 828 4315 
Q 1253 4750 1959 4750 
Q 2769 4750 3195 4129 
Q 3622 3509 3622 2328 
Q 3622 1225 3098 567 
Q 2575 -91 1691 -91 
Q 1453 -91 1209 -44 
Q 966 3 703 97 
z
M 1959 2075 
Q 2384 2075 2632 2365 
Q 2881 2656 2881 3163 
Q 2881 3666 2632 3958 
Q 2384 4250 1959 4250 
Q 1534 4250 1286 3958 
Q 1038 3666 1038 3163 
Q 1038 2656 1286 2365 
Q 1534 2075 1959 2075 
z
" transform="scale(0.015625)"/>
      </defs>
      <use xlink:href="#DejaVuSans-39"/>
     </g>
    </g>
   </g>
   <g id="text_11">
    <g clip-path="url(#p8c15231188)">
     <!-- 10 -->
     <g transform="translate(33.624277 81.764999) scale(0.1 -0.1)">
      <use xlink:href="#DejaVuSans-31"/>
      <use xlink:href="#DejaVuSans-30" x="63.623047"/>
     </g>
    </g>
   </g>
   <g id="text_12">
    <g clip-path="url(#p8c15231188)">
     <!-- 11 -->
     <g transform="translate(150.029387 109.745904) scale(0.1 -0.1)">
      <use xlink:href="#DejaVuSans-31"/>
      <use xlink:href="#DejaVuSans-31" x="63.623047"/>
     </g>
    </g>
   </g>
   <g id="text_13">
    <g clip-path="url(#p8c15231188)">
     <!-- 12 -->
     <g transform="translate(208.542759 44.077388) scale(0.1 -0.1)">
      <use xlink:href="#DejaVuSans-31"/>
      <use xlink:href="#DejaVuSans-32" x="63.623047"/>
     </g>
    </g>
   </g>
   <g id="text_14">
    <g clip-path="url(#p8c15231188)">
     <!-- 13 -->
     <g transform="translate(230.789856 81.122355) scale(0.1 -0.1)">
      <use xlink:href="#DejaVuSans-31"/>
      <use xlink:href="#DejaVuSans-33" x="63.623047"/>
     </g>
    </g>
   </g>
   <g id="text_15">
    <g clip-path="url(#p8c15231188)">
     <!-- 14 -->
     <g transform="translate(262.599852 32.749458) scale(0.1 -0.1)">
      <use xlink:href="#DejaVuSans-31"/>
      <use xlink:href="#DejaVuSans-34" x="63.623047"/>
     </g>
    </g>
   </g>
   <g id="text_16">
    <g clip-path="url(#p8c15231188)">
     <!-- 15 -->
     <g transform="translate(281.126592 106.183134) scale(0.1 -0.1)">
      <use xlink:href="#DejaVuSans-31"/>
      <use xlink:href="#DejaVuSans-35" x="63.623047"/>
     </g>
    </g>
   </g>
   <g id="text_17">
    <g clip-path="url(#p8c15231188)">
     <!-- 16 -->
     <g transform="translate(304.545214 51.447564) scale(0.1 -0.1)">
      <use xlink:href="#DejaVuSans-31"/>
      <use xlink:href="#DejaVuSans-36" x="63.623047"/>
     </g>
    </g>
   </g>
   <g id="text_18">
    <g clip-path="url(#p8c15231188)">
     <!-- 17 -->
     <g transform="translate(356.047854 177.71707) scale(0.1 -0.1)">
      <use xlink:href="#DejaVuSans-31"/>
      <use xlink:href="#DejaVuSans-37" x="63.623047"/>
     </g>
    </g>
   </g>
   <g id="text_19">
    <g clip-path="url(#p8c15231188)">
     <!-- 18 -->
     <g transform="translate(414.450723 286.467292) scale(0.1 -0.1)">
      <use xlink:href="#DejaVuSans-31"/>
      <use xlink:href="#DejaVuSans-38" x="63.623047"/>
     </g>
    </g>
   </g>
   <g id="text_20">
    <g clip-path="url(#p8c15231188)">
     <!-- 19 -->
     <g transform="translate(285.113195 318.369292) scale(0.1 -0.1)">
      <use xlink:href="#DejaVuSans-31"/>
      <use xlink:href="#DejaVuSans-39" x="63.623047"/>
     </g>
    </g>
   </g>
  </g>
 </g>
 <defs>
  <clipPath id="p8c15231188">
   <rect x="0" y="0" width="460.8" height="345.6"/>
  </clipPath>
 </defs>
</svg>
