<?xml version="1.0" encoding="utf-8" standalone="no"?>
<!DOCTYPE svg PUBLIC "-//W3C//DTD SVG 1.1//EN"
  "http://www.w3.org/Graphics/SVG/1.1/DTD/svg11.dtd">
<svg xmlns:xlink="http://www.w3.org/1999/xlink" width="460.8pt" height="345.6pt" viewBox="0 0 460.8 345.6" xmlns="http://www.w3.org/2000/svg" version="1.1">
 <metadata>
  <rdf:RDF xmlns:dc="http://purl.org/dc/elements/1.1/" xmlns:cc="http://creativecommons.org/ns#" xmlns:rdf="http://www.w3.org/1999/02/22-rdf-syntax-ns#">
   <cc:Work>
    <dc:type rdf:resource="http://purl.org/dc/dcmitype/StillImage"/>
    <dc:date>2023-10-10T10:55:29.873563</dc:date>
    <dc:format>image/svg+xml</dc:format>
    <dc:creator>
     <cc:Agent>
      <dc:title>Matplotlib v3.6.1, https://matplotlib.org/</dc:title>
     </cc:Agent>
    </dc:creator>
   </cc:Work>
  </rdf:RDF>
 </metadata>
 <defs>
  <style type="text/css">*{stroke-linejoin: round; stroke-linecap: butt}</style>
 </defs>
 <g id="figure_1">
  <g id="patch_1">
   <path d="M 0 345.6 
L 460.8 345.6 
L 460.8 0 
L 0 0 
z
" style="fill: #ffffff"/>
  </g>
  <g id="axes_1">
   <g id="patch_2">
    <path d="M 108.719862 139.819637 
Q 177.86912 126.943308 245.919238 114.27165 
" clip-path="url(#pbc753a001a)" style="fill: none; stroke: #000000; stroke-linecap: round"/>
    <path d="M 241.620706 113.037703 
L 245.919238 114.27165 
L 242.352962 116.970107 
L 241.620706 113.037703 
z
" clip-path="url(#pbc753a001a)" style="stroke: #000000; stroke-linecap: round"/>
   </g>
   <g id="patch_3">
    <path d="M 269.82696 304.333621 
Q 227.271918 272.361051 185.610736 241.060059 
" clip-path="url(#pbc753a001a)" style="fill: none; stroke: #000000; stroke-linecap: round"/>
    <path d="M 187.607351 245.061749 
L 185.610736 241.060059 
L 190.010058 241.863781 
L 187.607351 245.061749 
z
" clip-path="url(#pbc753a001a)" style="stroke: #000000; stroke-linecap: round"/>
   </g>
   <g id="patch_4">
    <path d="M 41.861335 277.116659 
Q 111.581937 258.42174 180.222653 240.016383 
" clip-path="url(#pbc753a001a)" style="fill: none; stroke: #000000; stroke-linecap: round"/>
    <path d="M 175.841152 239.120589 
L 180.222653 240.016383 
L 176.877118 242.984108 
L 175.841152 239.120589 
z
" clip-path="url(#pbc753a001a)" style="stroke: #000000; stroke-linecap: round"/>
   </g>
   <g id="patch_5">
    <path d="M 142.817523 313.905921 
Q 162.533716 277.41725 181.71842 241.912205 
" clip-path="url(#pbc753a001a)" style="fill: none; stroke: #000000; stroke-linecap: round"/>
    <path d="M 178.057342 244.480573 
L 181.71842 241.912205 
L 181.576467 246.382087 
L 178.057342 244.480573 
z
" clip-path="url(#pbc753a001a)" style="stroke: #000000; stroke-linecap: round"/>
   </g>
   <g id="patch_6">
    <path d="M 184.717591 240.389018 
Q 227.272633 272.361588 268.933815 303.662581 
" clip-path="url(#pbc753a001a)" style="fill: none; stroke: #000000; stroke-linecap: round"/>
    <path d="M 266.9372 299.66089 
L 268.933815 303.662581 
L 264.534493 302.858859 
L 266.9372 299.66089 
z
" clip-path="url(#pbc753a001a)" style="stroke: #000000; stroke-linecap: round"/>
   </g>
   <g id="patch_7">
    <path d="M 181.295247 239.728777 
Q 111.574645 258.423695 42.933929 276.829053 
" clip-path="url(#pbc753a001a)" style="fill: none; stroke: #000000; stroke-linecap: round"/>
    <path d="M 47.31543 277.724846 
L 42.933929 276.829053 
L 46.279464 273.861328 
L 47.31543 277.724846 
z
" clip-path="url(#pbc753a001a)" style="stroke: #000000; stroke-linecap: round"/>
   </g>
   <g id="patch_8">
    <path d="M 182.249072 240.930128 
Q 162.532879 277.418799 143.348176 312.923844 
" clip-path="url(#pbc753a001a)" style="fill: none; stroke: #000000; stroke-linecap: round"/>
    <path d="M 147.009253 310.355477 
L 143.348176 312.923844 
L 143.490128 308.453962 
L 147.009253 310.355477 
z
" clip-path="url(#pbc753a001a)" style="stroke: #000000; stroke-linecap: round"/>
   </g>
   <g id="patch_9">
    <path d="M 184.066759 237.513955 
Q 216.04429 176.472717 247.503 116.421846 
" clip-path="url(#pbc753a001a)" style="fill: none; stroke: #000000; stroke-linecap: round"/>
    <path d="M 243.87519 119.036992 
L 247.503 116.421846 
L 247.418432 120.893182 
L 243.87519 119.036992 
z
" clip-path="url(#pbc753a001a)" style="stroke: #000000; stroke-linecap: round"/>
   </g>
   <g id="patch_10">
    <path d="M 84.53079 87.455062 
Q 165.769621 100.430898 245.904412 113.230391 
" clip-path="url(#pbc753a001a)" style="fill: none; stroke: #000000; stroke-linecap: round"/>
    <path d="M 242.269931 110.624524 
L 245.904412 113.230391 
L 241.63903 114.574456 
L 242.269931 110.624524 
z
" clip-path="url(#pbc753a001a)" style="stroke: #000000; stroke-linecap: round"/>
   </g>
   <g id="patch_11">
    <path d="M 244.529785 31.92422 
Q 246.674202 71.852383 248.758658 110.664122 
" clip-path="url(#pbc753a001a)" style="fill: none; stroke: #000000; stroke-linecap: round"/>
    <path d="M 250.541262 106.562619 
L 248.758658 110.664122 
L 246.547018 106.777137 
L 250.541262 106.562619 
z
" clip-path="url(#pbc753a001a)" style="stroke: #000000; stroke-linecap: round"/>
   </g>
   <g id="patch_12">
    <path d="M 247.018544 114.066947 
Q 177.869286 126.943277 109.819168 139.614935 
" clip-path="url(#pbc753a001a)" style="fill: none; stroke: #000000; stroke-linecap: round"/>
    <path d="M 114.1177 140.848881 
L 109.819168 139.614935 
L 113.385445 136.916477 
L 114.1177 140.848881 
z
" clip-path="url(#pbc753a001a)" style="stroke: #000000; stroke-linecap: round"/>
   </g>
   <g id="patch_13">
    <path d="M 248.025419 115.424611 
Q 216.047889 176.465849 184.589178 236.51672 
" clip-path="url(#pbc753a001a)" style="fill: none; stroke: #000000; stroke-linecap: round"/>
    <path d="M 188.216989 233.901573 
L 184.589178 236.51672 
L 184.673747 232.045384 
L 188.216989 233.901573 
z
" clip-path="url(#pbc753a001a)" style="stroke: #000000; stroke-linecap: round"/>
   </g>
   <g id="patch_14">
    <path d="M 247.011581 113.407233 
Q 165.77275 100.431398 85.637959 87.631904 
" clip-path="url(#pbc753a001a)" style="fill: none; stroke: #000000; stroke-linecap: round"/>
    <path d="M 89.272441 90.237772 
L 85.637959 87.631904 
L 89.903342 86.287839 
L 89.272441 90.237772 
z
" clip-path="url(#pbc753a001a)" style="stroke: #000000; stroke-linecap: round"/>
   </g>
   <g id="patch_15">
    <path d="M 248.818497 111.778296 
Q 246.674081 71.850133 244.589624 33.038395 
" clip-path="url(#pbc753a001a)" style="fill: none; stroke: #000000; stroke-linecap: round"/>
    <path d="M 242.80702 37.139898 
L 244.589624 33.038395 
L 246.801264 36.925379 
L 242.80702 37.139898 
z
" clip-path="url(#pbc753a001a)" style="stroke: #000000; stroke-linecap: round"/>
   </g>
   <g id="patch_16">
    <path d="M 250.551961 114.758894 
Q 291.505045 141.057455 331.517367 166.751892 
" clip-path="url(#pbc753a001a)" style="fill: none; stroke: #000000; stroke-linecap: round"/>
    <path d="M 329.23228 162.907627 
L 331.517367 166.751892 
L 327.070903 166.273403 
L 329.23228 162.907627 
z
" clip-path="url(#pbc753a001a)" style="stroke: #000000; stroke-linecap: round"/>
   </g>
   <g id="patch_17">
    <path d="M 247.297841 112.656783 
Q 196.630894 79.73247 146.901433 47.417353 
" clip-path="url(#pbc753a001a)" style="fill: none; stroke: #000000; stroke-linecap: round"/>
    <path d="M 149.165723 51.273905 
L 146.901433 47.417353 
L 151.345248 47.919852 
L 149.165723 51.273905 
z
" clip-path="url(#pbc753a001a)" style="stroke: #000000; stroke-linecap: round"/>
   </g>
   <g id="patch_18">
    <path d="M 250.483056 112.565564 
Q 296.718434 78.589438 342.052876 45.275365 
" clip-path="url(#pbc753a001a)" style="fill: none; stroke: #000000; stroke-linecap: round"/>
    <path d="M 337.645274 46.032358 
L 342.052876 45.275365 
L 340.013909 49.255643 
L 337.645274 46.032358 
z
" clip-path="url(#pbc753a001a)" style="stroke: #000000; stroke-linecap: round"/>
   </g>
   <g id="patch_19">
    <path d="M 250.850166 113.913127 
Q 334.868235 122.659839 417.77428 131.290784 
" clip-path="url(#pbc753a001a)" style="fill: none; stroke: #000000; stroke-linecap: round"/>
    <path d="M 414.002872 128.887352 
L 417.77428 131.290784 
L 413.58869 132.865851 
L 414.002872 128.887352 
z
" clip-path="url(#pbc753a001a)" style="stroke: #000000; stroke-linecap: round"/>
   </g>
   <g id="patch_20">
    <path d="M 250.821829 113.33105 
Q 329.86056 97.461213 407.803134 81.811467 
" clip-path="url(#pbc753a001a)" style="fill: none; stroke: #000000; stroke-linecap: round"/>
    <path d="M 403.487691 80.63803 
L 407.803134 81.811467 
L 404.275118 84.559759 
L 403.487691 80.63803 
z
" clip-path="url(#pbc753a001a)" style="stroke: #000000; stroke-linecap: round"/>
   </g>
   <g id="patch_21">
    <path d="M 332.45754 167.355637 
Q 291.504456 141.057076 251.492134 115.362639 
" clip-path="url(#pbc753a001a)" style="fill: none; stroke: #000000; stroke-linecap: round"/>
    <path d="M 253.777221 119.206904 
L 251.492134 115.362639 
L 255.938598 115.841128 
L 253.777221 119.206904 
z
" clip-path="url(#pbc753a001a)" style="stroke: #000000; stroke-linecap: round"/>
   </g>
   <g id="patch_22">
    <path d="M 145.964045 46.808221 
Q 196.630992 79.732534 246.360453 112.047651 
" clip-path="url(#pbc753a001a)" style="fill: none; stroke: #000000; stroke-linecap: round"/>
    <path d="M 244.096163 108.191099 
L 246.360453 112.047651 
L 241.916638 111.545152 
L 244.096163 108.191099 
z
" clip-path="url(#pbc753a001a)" style="stroke: #000000; stroke-linecap: round"/>
   </g>
   <g id="patch_23">
    <path d="M 342.951287 44.615167 
Q 296.715909 78.591293 251.381467 111.905366 
" clip-path="url(#pbc753a001a)" style="fill: none; stroke: #000000; stroke-linecap: round"/>
    <path d="M 255.789069 111.148373 
L 251.381467 111.905366 
L 253.420434 107.925088 
L 255.789069 111.148373 
z
" clip-path="url(#pbc753a001a)" style="stroke: #000000; stroke-linecap: round"/>
   </g>
   <g id="patch_24">
    <path d="M 418.885431 131.40646 
Q 334.867362 122.659748 251.961317 114.028803 
" clip-path="url(#pbc753a001a)" style="fill: none; stroke: #000000; stroke-linecap: round"/>
    <path d="M 255.732725 116.432235 
L 251.961317 114.028803 
L 256.146907 112.453736 
L 255.732725 116.432235 
z
" clip-path="url(#pbc753a001a)" style="stroke: #000000; stroke-linecap: round"/>
   </g>
   <g id="patch_25">
    <path d="M 408.898972 81.591439 
Q 329.860241 97.461277 251.917667 113.111022 
" clip-path="url(#pbc753a001a)" style="fill: none; stroke: #000000; stroke-linecap: round"/>
    <path d="M 256.233109 114.28446 
L 251.917667 113.111022 
L 255.445682 110.362731 
L 256.233109 114.28446 
z
" clip-path="url(#pbc753a001a)" style="stroke: #000000; stroke-linecap: round"/>
   </g>
   <g id="PathCollection_1">
    <defs>
     <path id="ma24f381911" d="M 0 1.936492 
C 0.513564 1.936492 1.006162 1.732451 1.369306 1.369306 
C 1.732451 1.006162 1.936492 0.513564 1.936492 0 
C 1.936492 -0.513564 1.732451 -1.006162 1.369306 -1.369306 
C 1.006162 -1.732451 0.513564 -1.936492 0 -1.936492 
C -0.513564 -1.936492 -1.006162 -1.732451 -1.369306 -1.369306 
C -1.732451 -1.006162 -1.936492 -0.513564 -1.936492 0 
C -1.936492 0.513564 -1.732451 1.006162 -1.369306 1.369306 
C -1.006162 1.732451 -0.513564 1.936492 0 1.936492 
z
" style="stroke: #1f78b4"/>
    </defs>
    <g clip-path="url(#pbc753a001a)">
     <use xlink:href="#ma24f381911" x="106.816033" y="140.174151" style="fill: #1f78b4; stroke: #1f78b4"/>
     <use xlink:href="#ma24f381911" x="271.374746" y="305.496508" style="fill: #1f78b4; stroke: #1f78b4"/>
     <use xlink:href="#ma24f381911" x="39.986777" y="277.619304" style="fill: #1f78b4; stroke: #1f78b4"/>
     <use xlink:href="#ma24f381911" x="141.89679" y="315.609917" style="fill: #1f78b4; stroke: #1f78b4"/>
     <use xlink:href="#ma24f381911" x="183.169805" y="239.226132" style="fill: #1f78b4; stroke: #1f78b4"/>
     <use xlink:href="#ma24f381911" x="82.619998" y="87.149862" style="fill: #1f78b4; stroke: #1f78b4"/>
     <use xlink:href="#ma24f381911" x="244.425909" y="29.990083" style="fill: #1f78b4; stroke: #1f78b4"/>
     <use xlink:href="#ma24f381911" x="248.922374" y="113.712434" style="fill: #1f78b4; stroke: #1f78b4"/>
     <use xlink:href="#ma24f381911" x="334.087127" y="168.402098" style="fill: #1f78b4; stroke: #1f78b4"/>
     <use xlink:href="#ma24f381911" x="144.339512" y="45.75257" style="fill: #1f78b4; stroke: #1f78b4"/>
     <use xlink:href="#ma24f381911" x="344.511969" y="43.468297" style="fill: #1f78b4; stroke: #1f78b4"/>
     <use xlink:href="#ma24f381911" x="420.813223" y="131.607153" style="fill: #1f78b4; stroke: #1f78b4"/>
     <use xlink:href="#ma24f381911" x="410.798427" y="81.210056" style="fill: #1f78b4; stroke: #1f78b4"/>
    </g>
   </g>
   <g id="text_1">
    <g clip-path="url(#pbc753a001a)">
     <!-- 0 -->
     <g transform="translate(103.634783 142.933526) scale(0.1 -0.1)">
      <defs>
       <path id="DejaVuSans-30" d="M 2034 4250 
Q 1547 4250 1301 3770 
Q 1056 3291 1056 2328 
Q 1056 1369 1301 889 
Q 1547 409 2034 409 
Q 2525 409 2770 889 
Q 3016 1369 3016 2328 
Q 3016 3291 2770 3770 
Q 2525 4250 2034 4250 
z
M 2034 4750 
Q 2819 4750 3233 4129 
Q 3647 3509 3647 2328 
Q 3647 1150 3233 529 
Q 2819 -91 2034 -91 
Q 1250 -91 836 529 
Q 422 1150 422 2328 
Q 422 3509 836 4129 
Q 1250 4750 2034 4750 
z
" transform="scale(0.015625)"/>
      </defs>
      <use xlink:href="#DejaVuSans-30"/>
     </g>
    </g>
   </g>
   <g id="text_2">
    <g clip-path="url(#pbc753a001a)">
     <!-- 1 -->
     <g transform="translate(268.193496 308.255883) scale(0.1 -0.1)">
      <defs>
       <path id="DejaVuSans-31" d="M 794 531 
L 1825 531 
L 1825 4091 
L 703 3866 
L 703 4441 
L 1819 4666 
L 2450 4666 
L 2450 531 
L 3481 531 
L 3481 0 
L 794 0 
L 794 531 
z
" transform="scale(0.015625)"/>
      </defs>
      <use xlink:href="#DejaVuSans-31"/>
     </g>
    </g>
   </g>
   <g id="text_3">
    <g clip-path="url(#pbc753a001a)">
     <!-- 2 -->
     <g transform="translate(36.805527 280.378679) scale(0.1 -0.1)">
      <defs>
       <path id="DejaVuSans-32" d="M 1228 531 
L 3431 531 
L 3431 0 
L 469 0 
L 469 531 
Q 828 903 1448 1529 
Q 2069 2156 2228 2338 
Q 2531 2678 2651 2914 
Q 2772 3150 2772 3378 
Q 2772 3750 2511 3984 
Q 2250 4219 1831 4219 
Q 1534 4219 1204 4116 
Q 875 4013 500 3803 
L 500 4441 
Q 881 4594 1212 4672 
Q 1544 4750 1819 4750 
Q 2544 4750 2975 4387 
Q 3406 4025 3406 3419 
Q 3406 3131 3298 2873 
Q 3191 2616 2906 2266 
Q 2828 2175 2409 1742 
Q 1991 1309 1228 531 
z
" transform="scale(0.015625)"/>
      </defs>
      <use xlink:href="#DejaVuSans-32"/>
     </g>
    </g>
   </g>
   <g id="text_4">
    <g clip-path="url(#pbc753a001a)">
     <!-- 3 -->
     <g transform="translate(138.71554 318.369292) scale(0.1 -0.1)">
      <defs>
       <path id="DejaVuSans-33" d="M 2597 2516 
Q 3050 2419 3304 2112 
Q 3559 1806 3559 1356 
Q 3559 666 3084 287 
Q 2609 -91 1734 -91 
Q 1441 -91 1130 -33 
Q 819 25 488 141 
L 488 750 
Q 750 597 1062 519 
Q 1375 441 1716 441 
Q 2309 441 2620 675 
Q 2931 909 2931 1356 
Q 2931 1769 2642 2001 
Q 2353 2234 1838 2234 
L 1294 2234 
L 1294 2753 
L 1863 2753 
Q 2328 2753 2575 2939 
Q 2822 3125 2822 3475 
Q 2822 3834 2567 4026 
Q 2313 4219 1838 4219 
Q 1578 4219 1281 4162 
Q 984 4106 628 3988 
L 628 4550 
Q 988 4650 1302 4700 
Q 1616 4750 1894 4750 
Q 2613 4750 3031 4423 
Q 3450 4097 3450 3541 
Q 3450 3153 3228 2886 
Q 3006 2619 2597 2516 
z
" transform="scale(0.015625)"/>
      </defs>
      <use xlink:href="#DejaVuSans-33"/>
     </g>
    </g>
   </g>
   <g id="text_5">
    <g clip-path="url(#pbc753a001a)">
     <!-- 4 -->
     <g transform="translate(179.988555 241.985507) scale(0.1 -0.1)">
      <defs>
       <path id="DejaVuSans-34" d="M 2419 4116 
L 825 1625 
L 2419 1625 
L 2419 4116 
z
M 2253 4666 
L 3047 4666 
L 3047 1625 
L 3713 1625 
L 3713 1100 
L 3047 1100 
L 3047 0 
L 2419 0 
L 2419 1100 
L 313 1100 
L 313 1709 
L 2253 4666 
z
" transform="scale(0.015625)"/>
      </defs>
      <use xlink:href="#DejaVuSans-34"/>
     </g>
    </g>
   </g>
   <g id="text_6">
    <g clip-path="url(#pbc753a001a)">
     <!-- 5 -->
     <g transform="translate(79.438748 89.909237) scale(0.1 -0.1)">
      <defs>
       <path id="DejaVuSans-35" d="M 691 4666 
L 3169 4666 
L 3169 4134 
L 1269 4134 
L 1269 2991 
Q 1406 3038 1543 3061 
Q 1681 3084 1819 3084 
Q 2600 3084 3056 2656 
Q 3513 2228 3513 1497 
Q 3513 744 3044 326 
Q 2575 -91 1722 -91 
Q 1428 -91 1123 -41 
Q 819 9 494 109 
L 494 744 
Q 775 591 1075 516 
Q 1375 441 1709 441 
Q 2250 441 2565 725 
Q 2881 1009 2881 1497 
Q 2881 1984 2565 2268 
Q 2250 2553 1709 2553 
Q 1456 2553 1204 2497 
Q 953 2441 691 2322 
L 691 4666 
z
" transform="scale(0.015625)"/>
      </defs>
      <use xlink:href="#DejaVuSans-35"/>
     </g>
    </g>
   </g>
   <g id="text_7">
    <g clip-path="url(#pbc753a001a)">
     <!-- 6 -->
     <g transform="translate(241.244659 32.749458) scale(0.1 -0.1)">
      <defs>
       <path id="DejaVuSans-36" d="M 2113 2584 
Q 1688 2584 1439 2293 
Q 1191 2003 1191 1497 
Q 1191 994 1439 701 
Q 1688 409 2113 409 
Q 2538 409 2786 701 
Q 3034 994 3034 1497 
Q 3034 2003 2786 2293 
Q 2538 2584 2113 2584 
z
M 3366 4563 
L 3366 3988 
Q 3128 4100 2886 4159 
Q 2644 4219 2406 4219 
Q 1781 4219 1451 3797 
Q 1122 3375 1075 2522 
Q 1259 2794 1537 2939 
Q 1816 3084 2150 3084 
Q 2853 3084 3261 2657 
Q 3669 2231 3669 1497 
Q 3669 778 3244 343 
Q 2819 -91 2113 -91 
Q 1303 -91 875 529 
Q 447 1150 447 2328 
Q 447 3434 972 4092 
Q 1497 4750 2381 4750 
Q 2619 4750 2861 4703 
Q 3103 4656 3366 4563 
z
" transform="scale(0.015625)"/>
      </defs>
      <use xlink:href="#DejaVuSans-36"/>
     </g>
    </g>
   </g>
   <g id="text_8">
    <g clip-path="url(#pbc753a001a)">
     <!-- 7 -->
     <g transform="translate(245.741124 116.471809) scale(0.1 -0.1)">
      <defs>
       <path id="DejaVuSans-37" d="M 525 4666 
L 3525 4666 
L 3525 4397 
L 1831 0 
L 1172 0 
L 2766 4134 
L 525 4134 
L 525 4666 
z
" transform="scale(0.015625)"/>
      </defs>
      <use xlink:href="#DejaVuSans-37"/>
     </g>
    </g>
   </g>
   <g id="text_9">
    <g clip-path="url(#pbc753a001a)">
     <!-- 8 -->
     <g transform="translate(330.905877 171.161473) scale(0.1 -0.1)">
      <defs>
       <path id="DejaVuSans-38" d="M 2034 2216 
Q 1584 2216 1326 1975 
Q 1069 1734 1069 1313 
Q 1069 891 1326 650 
Q 1584 409 2034 409 
Q 2484 409 2743 651 
Q 3003 894 3003 1313 
Q 3003 1734 2745 1975 
Q 2488 2216 2034 2216 
z
M 1403 2484 
Q 997 2584 770 2862 
Q 544 3141 544 3541 
Q 544 4100 942 4425 
Q 1341 4750 2034 4750 
Q 2731 4750 3128 4425 
Q 3525 4100 3525 3541 
Q 3525 3141 3298 2862 
Q 3072 2584 2669 2484 
Q 3125 2378 3379 2068 
Q 3634 1759 3634 1313 
Q 3634 634 3220 271 
Q 2806 -91 2034 -91 
Q 1263 -91 848 271 
Q 434 634 434 1313 
Q 434 1759 690 2068 
Q 947 2378 1403 2484 
z
M 1172 3481 
Q 1172 3119 1398 2916 
Q 1625 2713 2034 2713 
Q 2441 2713 2670 2916 
Q 2900 3119 2900 3481 
Q 2900 3844 2670 4047 
Q 2441 4250 2034 4250 
Q 1625 4250 1398 4047 
Q 1172 3844 1172 3481 
z
" transform="scale(0.015625)"/>
      </defs>
      <use xlink:href="#DejaVuSans-38"/>
     </g>
    </g>
   </g>
   <g id="text_10">
    <g clip-path="url(#pbc753a001a)">
     <!-- 9 -->
     <g transform="translate(141.158262 48.511945) scale(0.1 -0.1)">
      <defs>
       <path id="DejaVuSans-39" d="M 703 97 
L 703 672 
Q 941 559 1184 500 
Q 1428 441 1663 441 
Q 2288 441 2617 861 
Q 2947 1281 2994 2138 
Q 2813 1869 2534 1725 
Q 2256 1581 1919 1581 
Q 1219 1581 811 2004 
Q 403 2428 403 3163 
Q 403 3881 828 4315 
Q 1253 4750 1959 4750 
Q 2769 4750 3195 4129 
Q 3622 3509 3622 2328 
Q 3622 1225 3098 567 
Q 2575 -91 1691 -91 
Q 1453 -91 1209 -44 
Q 966 3 703 97 
z
M 1959 2075 
Q 2384 2075 2632 2365 
Q 2881 2656 2881 3163 
Q 2881 3666 2632 3958 
Q 2384 4250 1959 4250 
Q 1534 4250 1286 3958 
Q 1038 3666 1038 3163 
Q 1038 2656 1286 2365 
Q 1534 2075 1959 2075 
z
" transform="scale(0.015625)"/>
      </defs>
      <use xlink:href="#DejaVuSans-39"/>
     </g>
    </g>
   </g>
   <g id="text_11">
    <g clip-path="url(#pbc753a001a)">
     <!-- 10 -->
     <g transform="translate(338.149469 46.227672) scale(0.1 -0.1)">
      <use xlink:href="#DejaVuSans-31"/>
      <use xlink:href="#DejaVuSans-30" x="63.623047"/>
     </g>
    </g>
   </g>
   <g id="text_12">
    <g clip-path="url(#pbc753a001a)">
     <!-- 11 -->
     <g transform="translate(414.450723 134.366528) scale(0.1 -0.1)">
      <use xlink:href="#DejaVuSans-31"/>
      <use xlink:href="#DejaVuSans-31" x="63.623047"/>
     </g>
    </g>
   </g>
   <g id="text_13">
    <g clip-path="url(#pbc753a001a)">
     <!-- 12 -->
     <g transform="translate(404.435927 83.969431) scale(0.1 -0.1)">
      <use xlink:href="#DejaVuSans-31"/>
      <use xlink:href="#DejaVuSans-32" x="63.623047"/>
     </g>
    </g>
   </g>
  </g>
 </g>
 <defs>
  <clipPath id="pbc753a001a">
   <rect x="0" y="0" width="460.8" height="345.6"/>
  </clipPath>
 </defs>
</svg>
