<?xml version="1.0" encoding="utf-8" standalone="no"?>
<!DOCTYPE svg PUBLIC "-//W3C//DTD SVG 1.1//EN"
  "http://www.w3.org/Graphics/SVG/1.1/DTD/svg11.dtd">
<svg xmlns:xlink="http://www.w3.org/1999/xlink" width="460.8pt" height="345.6pt" viewBox="0 0 460.8 345.6" xmlns="http://www.w3.org/2000/svg" version="1.1">
 <metadata>
  <rdf:RDF xmlns:dc="http://purl.org/dc/elements/1.1/" xmlns:cc="http://creativecommons.org/ns#" xmlns:rdf="http://www.w3.org/1999/02/22-rdf-syntax-ns#">
   <cc:Work>
    <dc:type rdf:resource="http://purl.org/dc/dcmitype/StillImage"/>
    <dc:date>2023-10-10T10:55:29.109307</dc:date>
    <dc:format>image/svg+xml</dc:format>
    <dc:creator>
     <cc:Agent>
      <dc:title>Matplotlib v3.6.1, https://matplotlib.org/</dc:title>
     </cc:Agent>
    </dc:creator>
   </cc:Work>
  </rdf:RDF>
 </metadata>
 <defs>
  <style type="text/css">*{stroke-linejoin: round; stroke-linecap: butt}</style>
 </defs>
 <g id="figure_1">
  <g id="patch_1">
   <path d="M 0 345.6 
L 460.8 345.6 
L 460.8 0 
L 0 0 
z
" style="fill: #ffffff"/>
  </g>
  <g id="axes_1">
   <g id="patch_2">
    <path d="M 129.464759 313.793474 
Q 146.001687 269.324715 162.148917 225.903876 
" clip-path="url(#p2a92373b15)" style="fill: none; stroke: #000000; stroke-linecap: round"/>
    <path d="M 158.880116 228.955915 
L 162.148917 225.903876 
L 162.629268 230.35014 
L 158.880116 228.955915 
z
" clip-path="url(#p2a92373b15)" style="stroke: #000000; stroke-linecap: round"/>
   </g>
   <g id="patch_3">
    <path d="M 417.69307 162.844325 
Q 357.819144 144.146755 299.012426 125.782455 
" clip-path="url(#p2a92373b15)" style="fill: none; stroke: #000000; stroke-linecap: round"/>
    <path d="M 302.234411 128.883876 
L 299.012426 125.782455 
L 303.426754 125.06572 
L 302.234411 128.883876 
z
" clip-path="url(#p2a92373b15)" style="stroke: #000000; stroke-linecap: round"/>
   </g>
   <g id="patch_4">
    <path d="M 249.823673 31.724507 
Q 272.527191 77.429296 294.73332 122.132784 
" clip-path="url(#p2a92373b15)" style="fill: none; stroke: #000000; stroke-linecap: round"/>
    <path d="M 294.744989 117.660664 
L 294.73332 122.132784 
L 291.162625 119.440177 
L 294.744989 117.660664 
z
" clip-path="url(#p2a92373b15)" style="stroke: #000000; stroke-linecap: round"/>
   </g>
   <g id="patch_5">
    <path d="M 297.943249 125.44857 
Q 357.817174 144.14614 416.623892 162.51044 
" clip-path="url(#p2a92373b15)" style="fill: none; stroke: #000000; stroke-linecap: round"/>
    <path d="M 413.401907 159.409019 
L 416.623892 162.51044 
L 412.209565 163.227175 
L 413.401907 159.409019 
z
" clip-path="url(#p2a92373b15)" style="stroke: #000000; stroke-linecap: round"/>
   </g>
   <g id="patch_6">
    <path d="M 295.231905 123.136491 
Q 272.528386 77.431702 250.322257 32.728214 
" clip-path="url(#p2a92373b15)" style="fill: none; stroke: #000000; stroke-linecap: round"/>
    <path d="M 250.310588 37.200335 
L 250.322257 32.728214 
L 253.892952 35.420822 
L 250.310588 37.200335 
z
" clip-path="url(#p2a92373b15)" style="stroke: #000000; stroke-linecap: round"/>
   </g>
   <g id="patch_7">
    <path d="M 297.074845 123.202176 
Q 323.673509 77.973684 349.705407 33.708923 
" clip-path="url(#p2a92373b15)" style="fill: none; stroke: #000000; stroke-linecap: round"/>
    <path d="M 345.953711 36.14301 
L 349.705407 33.708923 
L 349.401659 38.170731 
L 345.953711 36.14301 
z
" clip-path="url(#p2a92373b15)" style="stroke: #000000; stroke-linecap: round"/>
   </g>
   <g id="patch_8">
    <path d="M 297.94706 124.301461 
Q 358.455871 105.712125 417.895945 87.451124 
" clip-path="url(#p2a92373b15)" style="fill: none; stroke: #000000; stroke-linecap: round"/>
    <path d="M 413.484977 86.713994 
L 417.895945 87.451124 
L 414.65966 90.53762 
L 413.484977 86.713994 
z
" clip-path="url(#p2a92373b15)" style="stroke: #000000; stroke-linecap: round"/>
   </g>
   <g id="patch_9">
    <path d="M 294.234687 124.320302 
Q 239.380038 108.07108 185.597379 92.139407 
" clip-path="url(#p2a92373b15)" style="fill: none; stroke: #000000; stroke-linecap: round"/>
    <path d="M 188.8646 95.193137 
L 185.597379 92.139407 
L 190.000695 91.357868 
L 188.8646 95.193137 
z
" clip-path="url(#p2a92373b15)" style="stroke: #000000; stroke-linecap: round"/>
   </g>
   <g id="patch_10">
    <path d="M 296.898314 126.631755 
Q 315.68732 167.738203 334.011544 207.827803 
" clip-path="url(#p2a92373b15)" style="fill: none; stroke: #000000; stroke-linecap: round"/>
    <path d="M 334.16768 203.358394 
L 334.011544 207.827803 
L 330.529698 205.021249 
L 334.16768 203.358394 
z
" clip-path="url(#p2a92373b15)" style="stroke: #000000; stroke-linecap: round"/>
   </g>
   <g id="patch_11">
    <path d="M 294.534249 126.022855 
Q 229.653209 173.956516 165.671411 221.225823 
" clip-path="url(#p2a92373b15)" style="fill: none; stroke: #000000; stroke-linecap: round"/>
    <path d="M 170.077065 220.457573 
L 165.671411 221.225823 
L 167.700203 217.240349 
L 170.077065 220.457573 
z
" clip-path="url(#p2a92373b15)" style="stroke: #000000; stroke-linecap: round"/>
   </g>
   <g id="patch_12">
    <path d="M 350.271246 32.746768 
Q 323.672582 77.97526 297.640684 122.240021 
" clip-path="url(#p2a92373b15)" style="fill: none; stroke: #000000; stroke-linecap: round"/>
    <path d="M 301.39238 119.805935 
L 297.640684 122.240021 
L 297.944432 117.778213 
L 301.39238 119.805935 
z
" clip-path="url(#p2a92373b15)" style="stroke: #000000; stroke-linecap: round"/>
   </g>
   <g id="patch_13">
    <path d="M 418.959631 87.124342 
Q 358.45082 105.713677 299.010745 123.974679 
" clip-path="url(#p2a92373b15)" style="fill: none; stroke: #000000; stroke-linecap: round"/>
    <path d="M 303.421713 124.711809 
L 299.010745 123.974679 
L 302.24703 120.888182 
L 303.421713 124.711809 
z
" clip-path="url(#p2a92373b15)" style="stroke: #000000; stroke-linecap: round"/>
   </g>
   <g id="patch_14">
    <path d="M 184.528612 91.822814 
Q 239.383262 108.072035 293.165921 124.003709 
" clip-path="url(#p2a92373b15)" style="fill: none; stroke: #000000; stroke-linecap: round"/>
    <path d="M 289.8987 120.949979 
L 293.165921 124.003709 
L 288.762605 124.785247 
L 289.8987 120.949979 
z
" clip-path="url(#p2a92373b15)" style="stroke: #000000; stroke-linecap: round"/>
   </g>
   <g id="patch_15">
    <path d="M 334.476195 208.844363 
Q 315.687189 167.737915 297.362965 127.648314 
" clip-path="url(#p2a92373b15)" style="fill: none; stroke: #000000; stroke-linecap: round"/>
    <path d="M 297.206829 132.117724 
L 297.362965 127.648314 
L 300.844811 130.454869 
L 297.206829 132.117724 
z
" clip-path="url(#p2a92373b15)" style="stroke: #000000; stroke-linecap: round"/>
   </g>
   <g id="patch_16">
    <path d="M 41.885866 247.254895 
Q 101.599818 235.337942 160.217357 223.639798 
" clip-path="url(#p2a92373b15)" style="fill: none; stroke: #000000; stroke-linecap: round"/>
    <path d="M 155.903292 222.461306 
L 160.217357 223.639798 
L 156.686124 226.383954 
L 155.903292 222.461306 
z
" clip-path="url(#p2a92373b15)" style="stroke: #000000; stroke-linecap: round"/>
   </g>
   <g id="patch_17">
    <path d="M 162.537719 224.858366 
Q 146.000791 269.327125 129.853561 312.747964 
" clip-path="url(#p2a92373b15)" style="fill: none; stroke: #000000; stroke-linecap: round"/>
    <path d="M 133.122361 309.695925 
L 129.853561 312.747964 
L 129.37321 308.3017 
L 133.122361 309.695925 
z
" clip-path="url(#p2a92373b15)" style="stroke: #000000; stroke-linecap: round"/>
   </g>
   <g id="patch_18">
    <path d="M 164.772431 221.889983 
Q 229.653471 173.956323 293.635269 126.687015 
" clip-path="url(#p2a92373b15)" style="fill: none; stroke: #000000; stroke-linecap: round"/>
    <path d="M 289.229615 127.455266 
L 293.635269 126.687015 
L 291.606477 130.672489 
L 289.229615 127.455266 
z
" clip-path="url(#p2a92373b15)" style="stroke: #000000; stroke-linecap: round"/>
   </g>
   <g id="patch_19">
    <path d="M 161.314124 223.420919 
Q 101.600172 235.337871 42.982633 247.036016 
" clip-path="url(#p2a92373b15)" style="fill: none; stroke: #000000; stroke-linecap: round"/>
    <path d="M 47.296698 248.214508 
L 42.982633 247.036016 
L 46.513865 244.291859 
L 47.296698 248.214508 
z
" clip-path="url(#p2a92373b15)" style="stroke: #000000; stroke-linecap: round"/>
   </g>
   <g id="PathCollection_1">
    <defs>
     <path id="m1f9862ed2b" d="M 0 1.936492 
C 0.513564 1.936492 1.006162 1.732451 1.369306 1.369306 
C 1.732451 1.006162 1.936492 0.513564 1.936492 0 
C 1.936492 -0.513564 1.732451 -1.006162 1.369306 -1.369306 
C 1.006162 -1.732451 0.513564 -1.936492 0 -1.936492 
C -0.513564 -1.936492 -1.006162 -1.732451 -1.369306 -1.369306 
C -1.732451 -1.006162 -1.936492 -0.513564 -1.936492 0 
C -1.936492 0.513564 -1.732451 1.006162 -1.369306 1.369306 
C -1.006162 1.732451 -0.513564 1.936492 0 1.936492 
z
" style="stroke: #1f78b4"/>
    </defs>
    <g clip-path="url(#p2a92373b15)">
     <use xlink:href="#m1f9862ed2b" x="128.789265" y="315.609917" style="fill: #1f78b4; stroke: #1f78b4"/>
     <use xlink:href="#m1f9862ed2b" x="419.542851" y="163.421979" style="fill: #1f78b4; stroke: #1f78b4"/>
     <use xlink:href="#m1f9862ed2b" x="248.96211" y="29.990083" style="fill: #1f78b4; stroke: #1f78b4"/>
     <use xlink:href="#m1f9862ed2b" x="296.093467" y="124.870916" style="fill: #1f78b4; stroke: #1f78b4"/>
     <use xlink:href="#m1f9862ed2b" x="351.252624" y="31.078028" style="fill: #1f78b4; stroke: #1f78b4"/>
     <use xlink:href="#m1f9862ed2b" x="420.813223" y="86.554886" style="fill: #1f78b4; stroke: #1f78b4"/>
     <use xlink:href="#m1f9862ed2b" x="182.669833" y="91.2722" style="fill: #1f78b4; stroke: #1f78b4"/>
     <use xlink:href="#m1f9862ed2b" x="335.281042" y="210.605202" style="fill: #1f78b4; stroke: #1f78b4"/>
     <use xlink:href="#m1f9862ed2b" x="39.986777" y="247.633891" style="fill: #1f78b4; stroke: #1f78b4"/>
     <use xlink:href="#m1f9862ed2b" x="163.213213" y="223.041923" style="fill: #1f78b4; stroke: #1f78b4"/>
    </g>
   </g>
   <g id="text_1">
    <g clip-path="url(#p2a92373b15)">
     <!-- 0 -->
     <g transform="translate(125.608015 318.369292) scale(0.1 -0.1)">
      <defs>
       <path id="DejaVuSans-30" d="M 2034 4250 
Q 1547 4250 1301 3770 
Q 1056 3291 1056 2328 
Q 1056 1369 1301 889 
Q 1547 409 2034 409 
Q 2525 409 2770 889 
Q 3016 1369 3016 2328 
Q 3016 3291 2770 3770 
Q 2525 4250 2034 4250 
z
M 2034 4750 
Q 2819 4750 3233 4129 
Q 3647 3509 3647 2328 
Q 3647 1150 3233 529 
Q 2819 -91 2034 -91 
Q 1250 -91 836 529 
Q 422 1150 422 2328 
Q 422 3509 836 4129 
Q 1250 4750 2034 4750 
z
" transform="scale(0.015625)"/>
      </defs>
      <use xlink:href="#DejaVuSans-30"/>
     </g>
    </g>
   </g>
   <g id="text_2">
    <g clip-path="url(#p2a92373b15)">
     <!-- 1 -->
     <g transform="translate(416.361601 166.181354) scale(0.1 -0.1)">
      <defs>
       <path id="DejaVuSans-31" d="M 794 531 
L 1825 531 
L 1825 4091 
L 703 3866 
L 703 4441 
L 1819 4666 
L 2450 4666 
L 2450 531 
L 3481 531 
L 3481 0 
L 794 0 
L 794 531 
z
" transform="scale(0.015625)"/>
      </defs>
      <use xlink:href="#DejaVuSans-31"/>
     </g>
    </g>
   </g>
   <g id="text_3">
    <g clip-path="url(#p2a92373b15)">
     <!-- 2 -->
     <g transform="translate(245.78086 32.749458) scale(0.1 -0.1)">
      <defs>
       <path id="DejaVuSans-32" d="M 1228 531 
L 3431 531 
L 3431 0 
L 469 0 
L 469 531 
Q 828 903 1448 1529 
Q 2069 2156 2228 2338 
Q 2531 2678 2651 2914 
Q 2772 3150 2772 3378 
Q 2772 3750 2511 3984 
Q 2250 4219 1831 4219 
Q 1534 4219 1204 4116 
Q 875 4013 500 3803 
L 500 4441 
Q 881 4594 1212 4672 
Q 1544 4750 1819 4750 
Q 2544 4750 2975 4387 
Q 3406 4025 3406 3419 
Q 3406 3131 3298 2873 
Q 3191 2616 2906 2266 
Q 2828 2175 2409 1742 
Q 1991 1309 1228 531 
z
" transform="scale(0.015625)"/>
      </defs>
      <use xlink:href="#DejaVuSans-32"/>
     </g>
    </g>
   </g>
   <g id="text_4">
    <g clip-path="url(#p2a92373b15)">
     <!-- 3 -->
     <g transform="translate(292.912217 127.630291) scale(0.1 -0.1)">
      <defs>
       <path id="DejaVuSans-33" d="M 2597 2516 
Q 3050 2419 3304 2112 
Q 3559 1806 3559 1356 
Q 3559 666 3084 287 
Q 2609 -91 1734 -91 
Q 1441 -91 1130 -33 
Q 819 25 488 141 
L 488 750 
Q 750 597 1062 519 
Q 1375 441 1716 441 
Q 2309 441 2620 675 
Q 2931 909 2931 1356 
Q 2931 1769 2642 2001 
Q 2353 2234 1838 2234 
L 1294 2234 
L 1294 2753 
L 1863 2753 
Q 2328 2753 2575 2939 
Q 2822 3125 2822 3475 
Q 2822 3834 2567 4026 
Q 2313 4219 1838 4219 
Q 1578 4219 1281 4162 
Q 984 4106 628 3988 
L 628 4550 
Q 988 4650 1302 4700 
Q 1616 4750 1894 4750 
Q 2613 4750 3031 4423 
Q 3450 4097 3450 3541 
Q 3450 3153 3228 2886 
Q 3006 2619 2597 2516 
z
" transform="scale(0.015625)"/>
      </defs>
      <use xlink:href="#DejaVuSans-33"/>
     </g>
    </g>
   </g>
   <g id="text_5">
    <g clip-path="url(#p2a92373b15)">
     <!-- 4 -->
     <g transform="translate(348.071374 33.837403) scale(0.1 -0.1)">
      <defs>
       <path id="DejaVuSans-34" d="M 2419 4116 
L 825 1625 
L 2419 1625 
L 2419 4116 
z
M 2253 4666 
L 3047 4666 
L 3047 1625 
L 3713 1625 
L 3713 1100 
L 3047 1100 
L 3047 0 
L 2419 0 
L 2419 1100 
L 313 1100 
L 313 1709 
L 2253 4666 
z
" transform="scale(0.015625)"/>
      </defs>
      <use xlink:href="#DejaVuSans-34"/>
     </g>
    </g>
   </g>
   <g id="text_6">
    <g clip-path="url(#p2a92373b15)">
     <!-- 5 -->
     <g transform="translate(417.631973 89.314261) scale(0.1 -0.1)">
      <defs>
       <path id="DejaVuSans-35" d="M 691 4666 
L 3169 4666 
L 3169 4134 
L 1269 4134 
L 1269 2991 
Q 1406 3038 1543 3061 
Q 1681 3084 1819 3084 
Q 2600 3084 3056 2656 
Q 3513 2228 3513 1497 
Q 3513 744 3044 326 
Q 2575 -91 1722 -91 
Q 1428 -91 1123 -41 
Q 819 9 494 109 
L 494 744 
Q 775 591 1075 516 
Q 1375 441 1709 441 
Q 2250 441 2565 725 
Q 2881 1009 2881 1497 
Q 2881 1984 2565 2268 
Q 2250 2553 1709 2553 
Q 1456 2553 1204 2497 
Q 953 2441 691 2322 
L 691 4666 
z
" transform="scale(0.015625)"/>
      </defs>
      <use xlink:href="#DejaVuSans-35"/>
     </g>
    </g>
   </g>
   <g id="text_7">
    <g clip-path="url(#p2a92373b15)">
     <!-- 6 -->
     <g transform="translate(179.488583 94.031575) scale(0.1 -0.1)">
      <defs>
       <path id="DejaVuSans-36" d="M 2113 2584 
Q 1688 2584 1439 2293 
Q 1191 2003 1191 1497 
Q 1191 994 1439 701 
Q 1688 409 2113 409 
Q 2538 409 2786 701 
Q 3034 994 3034 1497 
Q 3034 2003 2786 2293 
Q 2538 2584 2113 2584 
z
M 3366 4563 
L 3366 3988 
Q 3128 4100 2886 4159 
Q 2644 4219 2406 4219 
Q 1781 4219 1451 3797 
Q 1122 3375 1075 2522 
Q 1259 2794 1537 2939 
Q 1816 3084 2150 3084 
Q 2853 3084 3261 2657 
Q 3669 2231 3669 1497 
Q 3669 778 3244 343 
Q 2819 -91 2113 -91 
Q 1303 -91 875 529 
Q 447 1150 447 2328 
Q 447 3434 972 4092 
Q 1497 4750 2381 4750 
Q 2619 4750 2861 4703 
Q 3103 4656 3366 4563 
z
" transform="scale(0.015625)"/>
      </defs>
      <use xlink:href="#DejaVuSans-36"/>
     </g>
    </g>
   </g>
   <g id="text_8">
    <g clip-path="url(#p2a92373b15)">
     <!-- 7 -->
     <g transform="translate(332.099792 213.364577) scale(0.1 -0.1)">
      <defs>
       <path id="DejaVuSans-37" d="M 525 4666 
L 3525 4666 
L 3525 4397 
L 1831 0 
L 1172 0 
L 2766 4134 
L 525 4134 
L 525 4666 
z
" transform="scale(0.015625)"/>
      </defs>
      <use xlink:href="#DejaVuSans-37"/>
     </g>
    </g>
   </g>
   <g id="text_9">
    <g clip-path="url(#p2a92373b15)">
     <!-- 8 -->
     <g transform="translate(36.805527 250.393266) scale(0.1 -0.1)">
      <defs>
       <path id="DejaVuSans-38" d="M 2034 2216 
Q 1584 2216 1326 1975 
Q 1069 1734 1069 1313 
Q 1069 891 1326 650 
Q 1584 409 2034 409 
Q 2484 409 2743 651 
Q 3003 894 3003 1313 
Q 3003 1734 2745 1975 
Q 2488 2216 2034 2216 
z
M 1403 2484 
Q 997 2584 770 2862 
Q 544 3141 544 3541 
Q 544 4100 942 4425 
Q 1341 4750 2034 4750 
Q 2731 4750 3128 4425 
Q 3525 4100 3525 3541 
Q 3525 3141 3298 2862 
Q 3072 2584 2669 2484 
Q 3125 2378 3379 2068 
Q 3634 1759 3634 1313 
Q 3634 634 3220 271 
Q 2806 -91 2034 -91 
Q 1263 -91 848 271 
Q 434 634 434 1313 
Q 434 1759 690 2068 
Q 947 2378 1403 2484 
z
M 1172 3481 
Q 1172 3119 1398 2916 
Q 1625 2713 2034 2713 
Q 2441 2713 2670 2916 
Q 2900 3119 2900 3481 
Q 2900 3844 2670 4047 
Q 2441 4250 2034 4250 
Q 1625 4250 1398 4047 
Q 1172 3844 1172 3481 
z
" transform="scale(0.015625)"/>
      </defs>
      <use xlink:href="#DejaVuSans-38"/>
     </g>
    </g>
   </g>
   <g id="text_10">
    <g clip-path="url(#p2a92373b15)">
     <!-- 9 -->
     <g transform="translate(160.031963 225.801298) scale(0.1 -0.1)">
      <defs>
       <path id="DejaVuSans-39" d="M 703 97 
L 703 672 
Q 941 559 1184 500 
Q 1428 441 1663 441 
Q 2288 441 2617 861 
Q 2947 1281 2994 2138 
Q 2813 1869 2534 1725 
Q 2256 1581 1919 1581 
Q 1219 1581 811 2004 
Q 403 2428 403 3163 
Q 403 3881 828 4315 
Q 1253 4750 1959 4750 
Q 2769 4750 3195 4129 
Q 3622 3509 3622 2328 
Q 3622 1225 3098 567 
Q 2575 -91 1691 -91 
Q 1453 -91 1209 -44 
Q 966 3 703 97 
z
M 1959 2075 
Q 2384 2075 2632 2365 
Q 2881 2656 2881 3163 
Q 2881 3666 2632 3958 
Q 2384 4250 1959 4250 
Q 1534 4250 1286 3958 
Q 1038 3666 1038 3163 
Q 1038 2656 1286 2365 
Q 1534 2075 1959 2075 
z
" transform="scale(0.015625)"/>
      </defs>
      <use xlink:href="#DejaVuSans-39"/>
     </g>
    </g>
   </g>
  </g>
 </g>
 <defs>
  <clipPath id="p2a92373b15">
   <rect x="0" y="0" width="460.8" height="345.6"/>
  </clipPath>
 </defs>
</svg>
