<?xml version="1.0" encoding="utf-8" standalone="no"?>
<!DOCTYPE svg PUBLIC "-//W3C//DTD SVG 1.1//EN"
  "http://www.w3.org/Graphics/SVG/1.1/DTD/svg11.dtd">
<svg xmlns:xlink="http://www.w3.org/1999/xlink" width="460.8pt" height="345.6pt" viewBox="0 0 460.8 345.6" xmlns="http://www.w3.org/2000/svg" version="1.1">
 <metadata>
  <rdf:RDF xmlns:dc="http://purl.org/dc/elements/1.1/" xmlns:cc="http://creativecommons.org/ns#" xmlns:rdf="http://www.w3.org/1999/02/22-rdf-syntax-ns#">
   <cc:Work>
    <dc:type rdf:resource="http://purl.org/dc/dcmitype/StillImage"/>
    <dc:date>2023-10-10T10:55:50.795872</dc:date>
    <dc:format>image/svg+xml</dc:format>
    <dc:creator>
     <cc:Agent>
      <dc:title>Matplotlib v3.6.1, https://matplotlib.org/</dc:title>
     </cc:Agent>
    </dc:creator>
   </cc:Work>
  </rdf:RDF>
 </metadata>
 <defs>
  <style type="text/css">*{stroke-linejoin: round; stroke-linecap: butt}</style>
 </defs>
 <g id="figure_1">
  <g id="patch_1">
   <path d="M 0 345.6 
L 460.8 345.6 
L 460.8 0 
L 0 0 
z
" style="fill: #ffffff"/>
  </g>
  <g id="axes_1">
   <g id="patch_2">
    <path d="M 213.006272 228.239759 
Q 182.299993 210.08238 152.556083 192.494073 
" clip-path="url(#p41abcdb3c3)" style="fill: none; stroke: #000000; stroke-linecap: round"/>
    <path d="M 154.981174 196.25159 
L 152.556083 192.494073 
L 157.017152 192.808511 
L 154.981174 196.25159 
z
" clip-path="url(#p41abcdb3c3)" style="stroke: #000000; stroke-linecap: round"/>
   </g>
   <g id="patch_3">
    <path d="M 216.39522 230.106033 
Q 247.310998 245.919963 277.231403 261.224744 
" clip-path="url(#p41abcdb3c3)" style="fill: none; stroke: #000000; stroke-linecap: round"/>
    <path d="M 274.581044 257.622578 
L 277.231403 261.224744 
L 272.759455 261.183732 
L 274.581044 257.622578 
z
" clip-path="url(#p41abcdb3c3)" style="stroke: #000000; stroke-linecap: round"/>
   </g>
   <g id="patch_4">
    <path d="M 151.590261 191.922958 
Q 182.29654 210.080338 212.040449 227.668645 
" clip-path="url(#p41abcdb3c3)" style="fill: none; stroke: #000000; stroke-linecap: round"/>
    <path d="M 209.615359 223.911127 
L 212.040449 227.668645 
L 207.579381 227.354207 
L 209.615359 223.911127 
z
" clip-path="url(#p41abcdb3c3)" style="stroke: #000000; stroke-linecap: round"/>
   </g>
   <g id="patch_5">
    <path d="M 148.448974 189.69272 
Q 119.889212 165.600838 92.184034 142.229848 
" clip-path="url(#p41abcdb3c3)" style="fill: none; stroke: #000000; stroke-linecap: round"/>
    <path d="M 93.951913 146.337719 
L 92.184034 142.229848 
L 96.531058 143.280267 
L 93.951913 146.337719 
z
" clip-path="url(#p41abcdb3c3)" style="stroke: #000000; stroke-linecap: round"/>
   </g>
   <g id="patch_6">
    <path d="M 343.426917 240.889157 
Q 312.606216 251.439397 282.843292 261.62755 
" clip-path="url(#p41abcdb3c3)" style="fill: none; stroke: #000000; stroke-linecap: round"/>
    <path d="M 287.275432 262.224314 
L 282.843292 261.62755 
L 285.979987 258.439896 
L 287.275432 262.224314 
z
" clip-path="url(#p41abcdb3c3)" style="stroke: #000000; stroke-linecap: round"/>
   </g>
   <g id="patch_7">
    <path d="M 346.908542 239.250451 
Q 369.91063 225.154461 391.959444 211.642651 
" clip-path="url(#p41abcdb3c3)" style="fill: none; stroke: #000000; stroke-linecap: round"/>
    <path d="M 387.503889 212.027406 
L 391.959444 211.642651 
L 389.593915 215.437947 
L 387.503889 212.027406 
z
" clip-path="url(#p41abcdb3c3)" style="stroke: #000000; stroke-linecap: round"/>
   </g>
   <g id="patch_8">
    <path d="M 278.22773 261.734381 
Q 247.311952 245.920451 217.391546 230.615671 
" clip-path="url(#p41abcdb3c3)" style="fill: none; stroke: #000000; stroke-linecap: round"/>
    <path d="M 220.041906 234.217836 
L 217.391546 230.615671 
L 221.863494 230.656683 
L 220.041906 234.217836 
z
" clip-path="url(#p41abcdb3c3)" style="stroke: #000000; stroke-linecap: round"/>
   </g>
   <g id="patch_9">
    <path d="M 281.78253 261.990659 
Q 312.603231 251.440419 342.366155 241.252266 
" clip-path="url(#p41abcdb3c3)" style="fill: none; stroke: #000000; stroke-linecap: round"/>
    <path d="M 337.934015 240.655502 
L 342.366155 241.252266 
L 339.22946 244.439921 
L 337.934015 240.655502 
z
" clip-path="url(#p41abcdb3c3)" style="stroke: #000000; stroke-linecap: round"/>
   </g>
   <g id="patch_10">
    <path d="M 279.982145 260.68363 
Q 280.568954 221.694884 281.138939 183.824045 
" clip-path="url(#p41abcdb3c3)" style="fill: none; stroke: #000000; stroke-linecap: round"/>
    <path d="M 279.078969 187.793494 
L 281.138939 183.824045 
L 283.078516 187.85369 
L 279.078969 187.793494 
z
" clip-path="url(#p41abcdb3c3)" style="stroke: #000000; stroke-linecap: round"/>
   </g>
   <g id="patch_11">
    <path d="M 279.768363 264.542198 
Q 277.452445 288.685033 275.243285 311.714943 
" clip-path="url(#p41abcdb3c3)" style="fill: none; stroke: #000000; stroke-linecap: round"/>
    <path d="M 277.616096 307.924195 
L 275.243285 311.714943 
L 273.634374 307.542246 
L 277.616096 307.924195 
z
" clip-path="url(#p41abcdb3c3)" style="stroke: #000000; stroke-linecap: round"/>
   </g>
   <g id="patch_12">
    <path d="M 281.491126 263.79314 
Q 300.709981 278.490572 319.040733 292.508836 
" clip-path="url(#p41abcdb3c3)" style="fill: none; stroke: #000000; stroke-linecap: round"/>
    <path d="M 317.078289 288.490277 
L 319.040733 292.508836 
L 314.648419 291.667656 
L 317.078289 288.490277 
z
" clip-path="url(#p41abcdb3c3)" style="stroke: #000000; stroke-linecap: round"/>
   </g>
   <g id="patch_13">
    <path d="M 280.881989 264.3154 
Q 288.70045 278.610781 295.982429 291.92525 
" clip-path="url(#p41abcdb3c3)" style="fill: none; stroke: #000000; stroke-linecap: round"/>
    <path d="M 295.817759 287.456147 
L 295.982429 291.92525 
L 292.308345 289.375524 
L 295.817759 287.456147 
z
" clip-path="url(#p41abcdb3c3)" style="stroke: #000000; stroke-linecap: round"/>
   </g>
   <g id="patch_14">
    <path d="M 280.628745 264.431429 
Q 289.819849 289.113242 298.620789 312.747309 
" clip-path="url(#p41abcdb3c3)" style="fill: none; stroke: #000000; stroke-linecap: round"/>
    <path d="M 299.099163 308.300832 
L 298.620789 312.747309 
L 295.350632 309.696724 
L 299.099163 308.300832 
z
" clip-path="url(#p41abcdb3c3)" style="stroke: #000000; stroke-linecap: round"/>
   </g>
   <g id="patch_15">
    <path d="M 281.863382 262.917647 
Q 299.083292 265.628521 315.19877 268.165527 
" clip-path="url(#p41abcdb3c3)" style="fill: none; stroke: #000000; stroke-linecap: round"/>
    <path d="M 311.558456 265.567813 
L 315.19877 268.165527 
L 310.93641 269.519149 
L 311.558456 265.567813 
z
" clip-path="url(#p41abcdb3c3)" style="stroke: #000000; stroke-linecap: round"/>
   </g>
   <g id="patch_16">
    <path d="M 278.980799 264.292439 
Q 269.45828 280.703113 260.496891 296.146764 
" clip-path="url(#p41abcdb3c3)" style="fill: none; stroke: #000000; stroke-linecap: round"/>
    <path d="M 264.23431 293.690813 
L 260.496891 296.146764 
L 260.774581 291.683258 
L 264.23431 293.690813 
z
" clip-path="url(#p41abcdb3c3)" style="stroke: #000000; stroke-linecap: round"/>
   </g>
   <g id="patch_17">
    <path d="M 278.016054 262.619774 
Q 248.777893 262.663005 220.657765 262.704582 
" clip-path="url(#p41abcdb3c3)" style="fill: none; stroke: #000000; stroke-linecap: round"/>
    <path d="M 224.660718 264.698666 
L 220.657765 262.704582 
L 224.654804 260.69867 
L 224.660718 264.698666 
z
" clip-path="url(#p41abcdb3c3)" style="stroke: #000000; stroke-linecap: round"/>
   </g>
   <g id="patch_18">
    <path d="M 71.416119 102.088198 
Q 80.212837 120.30299 88.52334 137.511007 
" clip-path="url(#p41abcdb3c3)" style="fill: none; stroke: #000000; stroke-linecap: round"/>
    <path d="M 88.584776 133.039293 
L 88.52334 137.511007 
L 84.982831 134.77883 
L 88.584776 133.039293 
z
" clip-path="url(#p41abcdb3c3)" style="stroke: #000000; stroke-linecap: round"/>
   </g>
   <g id="patch_19">
    <path d="M 69.045029 101.530618 
Q 64.141845 105.326686 60.122712 108.438318 
" clip-path="url(#p41abcdb3c3)" style="fill: none; stroke: #000000; stroke-linecap: round"/>
    <path d="M 64.509947 107.571042 
L 60.122712 108.438318 
L 62.061232 104.408164 
L 64.509947 107.571042 
z
" clip-path="url(#p41abcdb3c3)" style="stroke: #000000; stroke-linecap: round"/>
   </g>
   <g id="patch_20">
    <path d="M 230.819288 126.834862 
Q 240.716805 110.849442 250.025763 95.814599 
" clip-path="url(#p41abcdb3c3)" style="fill: none; stroke: #000000; stroke-linecap: round"/>
    <path d="M 246.219625 98.162644 
L 250.025763 95.814599 
L 249.620516 100.268336 
L 246.219625 98.162644 
z
" clip-path="url(#p41abcdb3c3)" style="stroke: #000000; stroke-linecap: round"/>
   </g>
   <g id="patch_21">
    <path d="M 231.157865 129.863241 
Q 255.492003 154.625168 279.04249 178.589667 
" clip-path="url(#p41abcdb3c3)" style="fill: none; stroke: #000000; stroke-linecap: round"/>
    <path d="M 277.665296 174.334865 
L 279.04249 178.589667 
L 274.812333 177.138541 
L 277.665296 174.334865 
z
" clip-path="url(#p41abcdb3c3)" style="stroke: #000000; stroke-linecap: round"/>
   </g>
   <g id="patch_22">
    <path d="M 227.880536 128.740141 
Q 203.373947 132.044463 179.975367 135.199388 
" clip-path="url(#p41abcdb3c3)" style="fill: none; stroke: #000000; stroke-linecap: round"/>
    <path d="M 184.206744 136.646952 
L 179.975367 135.199388 
L 183.672245 132.682825 
L 184.206744 136.646952 
z
" clip-path="url(#p41abcdb3c3)" style="stroke: #000000; stroke-linecap: round"/>
   </g>
   <g id="patch_23">
    <path d="M 228.351853 127.19897 
Q 208.194549 109.347159 188.87423 92.236602 
" clip-path="url(#p41abcdb3c3)" style="fill: none; stroke: #000000; stroke-linecap: round"/>
    <path d="M 190.54272 96.385836 
L 188.87423 92.236602 
L 193.194711 93.391351 
L 190.54272 96.385836 
z
" clip-path="url(#p41abcdb3c3)" style="stroke: #000000; stroke-linecap: round"/>
   </g>
   <g id="patch_24">
    <path d="M 91.330032 141.509445 
Q 119.889794 165.601328 147.594972 188.972318 
" clip-path="url(#p41abcdb3c3)" style="fill: none; stroke: #000000; stroke-linecap: round"/>
    <path d="M 145.827093 184.864447 
L 147.594972 188.972318 
L 143.247948 187.921899 
L 145.827093 184.864447 
z
" clip-path="url(#p41abcdb3c3)" style="stroke: #000000; stroke-linecap: round"/>
   </g>
   <g id="patch_25">
    <path d="M 89.011101 138.520982 
Q 80.214383 120.30619 71.903879 103.098173 
" clip-path="url(#p41abcdb3c3)" style="fill: none; stroke: #000000; stroke-linecap: round"/>
    <path d="M 71.842444 107.569887 
L 71.903879 103.098173 
L 75.444389 105.83035 
L 71.842444 107.569887 
z
" clip-path="url(#p41abcdb3c3)" style="stroke: #000000; stroke-linecap: round"/>
   </g>
   <g id="patch_26">
    <path d="M 91.412308 141.405051 
Q 113.917926 157.882439 135.521445 173.69936 
" clip-path="url(#p41abcdb3c3)" style="fill: none; stroke: #000000; stroke-linecap: round"/>
    <path d="M 133.475478 169.722676 
L 135.521445 173.69936 
L 131.112517 172.950123 
L 133.475478 169.722676 
z
" clip-path="url(#p41abcdb3c3)" style="stroke: #000000; stroke-linecap: round"/>
   </g>
   <g id="patch_27">
    <path d="M 88.433897 138.941077 
Q 73.778925 125.28415 59.941884 112.389449 
" clip-path="url(#p41abcdb3c3)" style="fill: none; stroke: #000000; stroke-linecap: round"/>
    <path d="M 61.504687 116.579633 
L 59.941884 112.389449 
L 64.231713 113.653317 
L 61.504687 116.579633 
z
" clip-path="url(#p41abcdb3c3)" style="stroke: #000000; stroke-linecap: round"/>
   </g>
   <g id="patch_28">
    <path d="M 88.035373 139.596882 
Q 64.918731 131.122858 42.851816 123.033638 
" clip-path="url(#p41abcdb3c3)" style="fill: none; stroke: #000000; stroke-linecap: round"/>
    <path d="M 45.919069 126.288166 
L 42.851816 123.033638 
L 47.29579 122.532552 
L 45.919069 126.288166 
z
" clip-path="url(#p41abcdb3c3)" style="stroke: #000000; stroke-linecap: round"/>
   </g>
   <g id="patch_29">
    <path d="M 88.129668 141.140931 
Q 67.417265 151.697013 47.700988 161.74542 
" clip-path="url(#p41abcdb3c3)" style="fill: none; stroke: #000000; stroke-linecap: round"/>
    <path d="M 52.172992 161.711027 
L 47.700988 161.74542 
L 50.356677 158.147181 
L 52.172992 161.711027 
z
" clip-path="url(#p41abcdb3c3)" style="stroke: #000000; stroke-linecap: round"/>
   </g>
   <g id="patch_30">
    <path d="M 87.92 140.36448 
Q 65.831638 141.525002 44.85977 142.626864 
" clip-path="url(#p41abcdb3c3)" style="fill: none; stroke: #000000; stroke-linecap: round"/>
    <path d="M 48.959196 144.414239 
L 44.85977 142.626864 
L 48.749325 140.419748 
L 48.959196 144.414239 
z
" clip-path="url(#p41abcdb3c3)" style="stroke: #000000; stroke-linecap: round"/>
   </g>
   <g id="patch_31">
    <path d="M 88.682786 141.807983 
Q 77.093546 157.117384 66.179115 171.535363 
" clip-path="url(#p41abcdb3c3)" style="fill: none; stroke: #000000; stroke-linecap: round"/>
    <path d="M 70.188007 169.553246 
L 66.179115 171.535363 
L 66.998757 167.138979 
L 70.188007 169.553246 
z
" clip-path="url(#p41abcdb3c3)" style="stroke: #000000; stroke-linecap: round"/>
   </g>
   <g id="patch_32">
    <path d="M 90.914919 138.645879 
Q 110.236588 109.24042 128.9443 80.769336 
" clip-path="url(#p41abcdb3c3)" style="fill: none; stroke: #000000; stroke-linecap: round"/>
    <path d="M 125.076279 83.013978 
L 128.9443 80.769336 
L 128.419201 85.210538 
L 125.076279 83.013978 
z
" clip-path="url(#p41abcdb3c3)" style="stroke: #000000; stroke-linecap: round"/>
   </g>
   <g id="patch_33">
    <path d="M 59.237875 109.123363 
Q 64.141059 105.327295 68.160192 102.215663 
" clip-path="url(#p41abcdb3c3)" style="fill: none; stroke: #000000; stroke-linecap: round"/>
    <path d="M 63.772957 103.082939 
L 68.160192 102.215663 
L 66.221672 106.245817 
L 63.772957 103.082939 
z
" clip-path="url(#p41abcdb3c3)" style="stroke: #000000; stroke-linecap: round"/>
   </g>
   <g id="patch_34">
    <path d="M 59.126537 111.62963 
Q 73.781509 125.286557 87.618551 138.181258 
" clip-path="url(#p41abcdb3c3)" style="fill: none; stroke: #000000; stroke-linecap: round"/>
    <path d="M 86.055748 133.991074 
L 87.618551 138.181258 
L 83.328721 136.91739 
L 86.055748 133.991074 
z
" clip-path="url(#p41abcdb3c3)" style="stroke: #000000; stroke-linecap: round"/>
   </g>
   <g id="patch_35">
    <path d="M 250.613726 94.864983 
Q 240.716209 110.850404 231.407252 125.885246 
" clip-path="url(#p41abcdb3c3)" style="fill: none; stroke: #000000; stroke-linecap: round"/>
    <path d="M 235.21339 123.537201 
L 231.407252 125.885246 
L 231.812499 121.431509 
L 235.21339 123.537201 
z
" clip-path="url(#p41abcdb3c3)" style="stroke: #000000; stroke-linecap: round"/>
   </g>
   <g id="patch_36">
    <path d="M 281.155811 182.703027 
Q 280.569001 221.691774 279.999017 259.562612 
" clip-path="url(#p41abcdb3c3)" style="fill: none; stroke: #000000; stroke-linecap: round"/>
    <path d="M 282.058986 255.593164 
L 279.999017 259.562612 
L 278.059439 255.532967 
L 282.058986 255.593164 
z
" clip-path="url(#p41abcdb3c3)" style="stroke: #000000; stroke-linecap: round"/>
   </g>
   <g id="patch_37">
    <path d="M 279.826892 179.387859 
Q 255.492754 154.625932 231.942268 130.661433 
" clip-path="url(#p41abcdb3c3)" style="fill: none; stroke: #000000; stroke-linecap: round"/>
    <path d="M 233.319461 134.916235 
L 231.942268 130.661433 
L 236.172425 132.112559 
L 233.319461 134.916235 
z
" clip-path="url(#p41abcdb3c3)" style="stroke: #000000; stroke-linecap: round"/>
   </g>
   <g id="patch_38">
    <path d="M 282.666117 179.521555 
Q 305.404313 160.36041 327.287556 141.91972 
" clip-path="url(#p41abcdb3c3)" style="fill: none; stroke: #000000; stroke-linecap: round"/>
    <path d="M 322.939995 142.967916 
L 327.287556 141.91972 
L 325.517576 146.026686 
L 322.939995 142.967916 
z
" clip-path="url(#p41abcdb3c3)" style="stroke: #000000; stroke-linecap: round"/>
   </g>
   <g id="patch_39">
    <path d="M 275.136291 312.83033 
Q 277.452209 288.687494 279.661369 265.657584 
" clip-path="url(#p41abcdb3c3)" style="fill: none; stroke: #000000; stroke-linecap: round"/>
    <path d="M 277.288558 269.448332 
L 279.661369 265.657584 
L 281.27028 269.830281 
L 277.288558 269.448332 
z
" clip-path="url(#p41abcdb3c3)" style="stroke: #000000; stroke-linecap: round"/>
   </g>
   <g id="patch_40">
    <path d="M 319.930414 293.189211 
Q 300.711559 278.491779 282.380807 264.473515 
" clip-path="url(#p41abcdb3c3)" style="fill: none; stroke: #000000; stroke-linecap: round"/>
    <path d="M 284.343251 268.492074 
L 282.380807 264.473515 
L 286.773121 265.314695 
L 284.343251 268.492074 
z
" clip-path="url(#p41abcdb3c3)" style="stroke: #000000; stroke-linecap: round"/>
   </g>
   <g id="patch_41">
    <path d="M 296.518114 292.904704 
Q 288.699653 278.609324 281.417675 265.294854 
" clip-path="url(#p41abcdb3c3)" style="fill: none; stroke: #000000; stroke-linecap: round"/>
    <path d="M 281.582344 269.763958 
L 281.417675 265.294854 
L 285.091759 267.844581 
L 281.582344 269.763958 
z
" clip-path="url(#p41abcdb3c3)" style="stroke: #000000; stroke-linecap: round"/>
   </g>
   <g id="patch_42">
    <path d="M 299.01108 313.795398 
Q 289.819976 289.113585 281.019036 265.479518 
" clip-path="url(#p41abcdb3c3)" style="fill: none; stroke: #000000; stroke-linecap: round"/>
    <path d="M 280.540662 269.925995 
L 281.019036 265.479518 
L 284.289193 268.530104 
L 280.540662 269.925995 
z
" clip-path="url(#p41abcdb3c3)" style="stroke: #000000; stroke-linecap: round"/>
   </g>
   <g id="patch_43">
    <path d="M 316.305451 268.339748 
Q 299.085541 265.628875 282.970063 263.091869 
" clip-path="url(#p41abcdb3c3)" style="fill: none; stroke: #000000; stroke-linecap: round"/>
    <path d="M 286.610377 265.689582 
L 282.970063 263.091869 
L 287.232422 261.738246 
L 286.610377 265.689582 
z
" clip-path="url(#p41abcdb3c3)" style="stroke: #000000; stroke-linecap: round"/>
   </g>
   <g id="patch_44">
    <path d="M 259.938046 297.109853 
Q 269.460564 280.699178 278.421953 265.255527 
" clip-path="url(#p41abcdb3c3)" style="fill: none; stroke: #000000; stroke-linecap: round"/>
    <path d="M 274.684534 267.711479 
L 278.421953 265.255527 
L 278.144263 269.719034 
L 274.684534 267.711479 
z
" clip-path="url(#p41abcdb3c3)" style="stroke: #000000; stroke-linecap: round"/>
   </g>
   <g id="patch_45">
    <path d="M 41.803779 122.649452 
Q 64.920421 131.123477 86.987337 139.212696 
" clip-path="url(#p41abcdb3c3)" style="fill: none; stroke: #000000; stroke-linecap: round"/>
    <path d="M 83.920083 135.958168 
L 86.987337 139.212696 
L 82.543362 139.713782 
L 83.920083 135.958168 
z
" clip-path="url(#p41abcdb3c3)" style="stroke: #000000; stroke-linecap: round"/>
   </g>
   <g id="patch_46">
    <path d="M 46.702525 162.254287 
Q 67.414927 151.698205 87.131204 141.649799 
" clip-path="url(#p41abcdb3c3)" style="fill: none; stroke: #000000; stroke-linecap: round"/>
    <path d="M 82.6592 141.684191 
L 87.131204 141.649799 
L 84.475516 145.248037 
L 82.6592 141.684191 
z
" clip-path="url(#p41abcdb3c3)" style="stroke: #000000; stroke-linecap: round"/>
   </g>
   <g id="patch_47">
    <path d="M 367.630114 103.530016 
Q 349.326585 121.070091 331.830281 137.83661 
" clip-path="url(#p41abcdb3c3)" style="fill: none; stroke: #000000; stroke-linecap: round"/>
    <path d="M 336.102075 136.513064 
L 331.830281 137.83661 
L 333.33452 133.625047 
L 336.102075 136.513064 
z
" clip-path="url(#p41abcdb3c3)" style="stroke: #000000; stroke-linecap: round"/>
   </g>
   <g id="patch_48">
    <path d="M 368.128893 100.478513 
Q 357.790311 80.77397 347.971181 62.059462 
" clip-path="url(#p41abcdb3c3)" style="fill: none; stroke: #000000; stroke-linecap: round"/>
    <path d="M 348.0586 66.530744 
L 347.971181 62.059462 
L 351.600658 64.672296 
L 348.0586 66.530744 
z
" clip-path="url(#p41abcdb3c3)" style="stroke: #000000; stroke-linecap: round"/>
   </g>
   <g id="patch_49">
    <path d="M 370.74874 103.084247 
Q 390.4922 113.329576 409.243284 123.059938 
" clip-path="url(#p41abcdb3c3)" style="fill: none; stroke: #000000; stroke-linecap: round"/>
    <path d="M 406.614052 119.442323 
L 409.243284 123.059938 
L 404.771653 122.992755 
L 406.614052 119.442323 
z
" clip-path="url(#p41abcdb3c3)" style="stroke: #000000; stroke-linecap: round"/>
   </g>
   <g id="patch_50">
    <path d="M 410.232023 123.573017 
Q 390.488562 113.327688 371.737478 103.597326 
" clip-path="url(#p41abcdb3c3)" style="fill: none; stroke: #000000; stroke-linecap: round"/>
    <path d="M 374.36671 107.214941 
L 371.737478 103.597326 
L 376.20911 103.664509 
L 374.36671 107.214941 
z
" clip-path="url(#p41abcdb3c3)" style="stroke: #000000; stroke-linecap: round"/>
   </g>
   <g id="patch_51">
    <path d="M 412.340003 126.364414 
Q 416.383452 146.214886 420.203746 164.969822 
" clip-path="url(#p41abcdb3c3)" style="fill: none; stroke: #000000; stroke-linecap: round"/>
    <path d="M 421.365115 160.651116 
L 420.203746 164.969822 
L 417.445603 161.449503 
L 421.365115 160.651116 
z
" clip-path="url(#p41abcdb3c3)" style="stroke: #000000; stroke-linecap: round"/>
   </g>
   <g id="patch_52">
    <path d="M 420.426577 166.063768 
Q 416.383128 146.213296 412.562835 127.45836 
" clip-path="url(#p41abcdb3c3)" style="fill: none; stroke: #000000; stroke-linecap: round"/>
    <path d="M 411.401465 131.777066 
L 412.562835 127.45836 
L 415.320978 130.978679 
L 411.401465 131.777066 
z
" clip-path="url(#p41abcdb3c3)" style="stroke: #000000; stroke-linecap: round"/>
   </g>
   <g id="patch_53">
    <path d="M 419.789381 169.603338 
Q 407.68759 189.00481 396.177507 207.45766 
" clip-path="url(#p41abcdb3c3)" style="fill: none; stroke: #000000; stroke-linecap: round"/>
    <path d="M 399.991411 205.122251 
L 396.177507 207.45766 
L 396.597522 203.005292 
L 399.991411 205.122251 
z
" clip-path="url(#p41abcdb3c3)" style="stroke: #000000; stroke-linecap: round"/>
   </g>
   <g id="patch_54">
    <path d="M 392.909712 211.060313 
Q 369.907623 225.156304 347.85881 238.668114 
" clip-path="url(#p41abcdb3c3)" style="fill: none; stroke: #000000; stroke-linecap: round"/>
    <path d="M 352.314364 238.283359 
L 347.85881 238.668114 
L 350.224338 234.872818 
L 352.314364 238.283359 
z
" clip-path="url(#p41abcdb3c3)" style="stroke: #000000; stroke-linecap: round"/>
   </g>
   <g id="patch_55">
    <path d="M 395.585696 208.406445 
Q 407.687487 189.004974 419.19757 170.552123 
" clip-path="url(#p41abcdb3c3)" style="fill: none; stroke: #000000; stroke-linecap: round"/>
    <path d="M 415.383666 172.887532 
L 419.19757 170.552123 
L 418.777555 175.004492 
L 415.383666 172.887532 
z
" clip-path="url(#p41abcdb3c3)" style="stroke: #000000; stroke-linecap: round"/>
   </g>
   <g id="patch_56">
    <path d="M 43.742199 142.685581 
Q 65.830561 141.525059 86.802428 140.423197 
" clip-path="url(#p41abcdb3c3)" style="fill: none; stroke: #000000; stroke-linecap: round"/>
    <path d="M 82.703003 138.635822 
L 86.802428 140.423197 
L 82.912873 142.630313 
L 82.703003 138.635822 
z
" clip-path="url(#p41abcdb3c3)" style="stroke: #000000; stroke-linecap: round"/>
   </g>
   <g id="patch_57">
    <path d="M 65.505909 172.42467 
Q 77.095148 157.115269 88.009579 142.69729 
" clip-path="url(#p41abcdb3c3)" style="fill: none; stroke: #000000; stroke-linecap: round"/>
    <path d="M 84.000687 144.679406 
L 88.009579 142.69729 
L 87.189937 147.093673 
L 84.000687 144.679406 
z
" clip-path="url(#p41abcdb3c3)" style="stroke: #000000; stroke-linecap: round"/>
   </g>
   <g id="patch_58">
    <path d="M 328.143072 141.198789 
Q 305.404877 160.359934 283.521634 178.800624 
" clip-path="url(#p41abcdb3c3)" style="fill: none; stroke: #000000; stroke-linecap: round"/>
    <path d="M 287.869194 177.752428 
L 283.521634 178.800624 
L 285.291613 174.693657 
L 287.869194 177.752428 
z
" clip-path="url(#p41abcdb3c3)" style="stroke: #000000; stroke-linecap: round"/>
   </g>
   <g id="patch_59">
    <path d="M 331.021572 138.611587 
Q 349.325102 121.071512 366.821406 104.304993 
" clip-path="url(#p41abcdb3c3)" style="fill: none; stroke: #000000; stroke-linecap: round"/>
    <path d="M 362.549612 105.62854 
L 366.821406 104.304993 
L 365.317167 108.516556 
L 362.549612 105.62854 
z
" clip-path="url(#p41abcdb3c3)" style="stroke: #000000; stroke-linecap: round"/>
   </g>
   <g id="patch_60">
    <path d="M 347.450776 61.06761 
Q 357.789358 80.772153 367.608488 99.486661 
" clip-path="url(#p41abcdb3c3)" style="fill: none; stroke: #000000; stroke-linecap: round"/>
    <path d="M 367.52107 95.015379 
L 367.608488 99.486661 
L 363.979012 96.873827 
L 367.52107 95.015379 
z
" clip-path="url(#p41abcdb3c3)" style="stroke: #000000; stroke-linecap: round"/>
   </g>
   <g id="patch_61">
    <path d="M 162.713309 240.598255 
Q 189.25907 251.291325 214.767773 261.566651 
" clip-path="url(#p41abcdb3c3)" style="fill: none; stroke: #000000; stroke-linecap: round"/>
    <path d="M 211.804764 258.216938 
L 214.767773 261.566651 
L 210.310197 261.92723 
L 211.804764 258.216938 
z
" clip-path="url(#p41abcdb3c3)" style="stroke: #000000; stroke-linecap: round"/>
   </g>
   <g id="patch_62">
    <path d="M 160.266759 238.047951 
Q 149.449788 207.68563 139.008031 178.376502 
" clip-path="url(#p41abcdb3c3)" style="fill: none; stroke: #000000; stroke-linecap: round"/>
    <path d="M 138.466427 182.815721 
L 139.008031 178.376502 
L 142.234444 181.473316 
L 138.466427 182.815721 
z
" clip-path="url(#p41abcdb3c3)" style="stroke: #000000; stroke-linecap: round"/>
   </g>
   <g id="patch_63">
    <path d="M 159.832345 241.47762 
Q 148.087798 258.821097 136.970141 275.238827 
" clip-path="url(#p41abcdb3c3)" style="fill: none; stroke: #000000; stroke-linecap: round"/>
    <path d="M 140.869003 273.048192 
L 136.970141 275.238827 
L 137.55695 270.805357 
L 140.869003 273.048192 
z
" clip-path="url(#p41abcdb3c3)" style="stroke: #000000; stroke-linecap: round"/>
   </g>
   <g id="patch_64">
    <path d="M 219.540913 262.706234 
Q 248.779073 262.663003 276.899201 262.621425 
" clip-path="url(#p41abcdb3c3)" style="fill: none; stroke: #000000; stroke-linecap: round"/>
    <path d="M 272.896248 260.627342 
L 276.899201 262.621425 
L 272.902162 264.627337 
L 272.896248 260.627342 
z
" clip-path="url(#p41abcdb3c3)" style="stroke: #000000; stroke-linecap: round"/>
   </g>
   <g id="patch_65">
    <path d="M 215.808254 261.985774 
Q 189.262493 251.292704 163.75379 241.017378 
" clip-path="url(#p41abcdb3c3)" style="fill: none; stroke: #000000; stroke-linecap: round"/>
    <path d="M 166.716799 244.367091 
L 163.75379 241.017378 
L 168.211366 240.656798 
L 166.716799 244.367091 
z
" clip-path="url(#p41abcdb3c3)" style="stroke: #000000; stroke-linecap: round"/>
   </g>
   <g id="patch_66">
    <path d="M 134.81722 31.918051 
Q 132.807144 54.101904 130.89796 75.172284 
" clip-path="url(#p41abcdb3c3)" style="fill: none; stroke: #000000; stroke-linecap: round"/>
    <path d="M 133.250761 71.369084 
L 130.89796 75.172284 
L 129.267081 71.008124 
L 133.250761 71.369084 
z
" clip-path="url(#p41abcdb3c3)" style="stroke: #000000; stroke-linecap: round"/>
   </g>
   <g id="patch_67">
    <path d="M 110.271697 36.772639 
Q 120.020284 56.625326 129.276072 75.474444 
" clip-path="url(#p41abcdb3c3)" style="fill: none; stroke: #000000; stroke-linecap: round"/>
    <path d="M 129.308221 71.002423 
L 129.276072 75.474444 
L 125.717745 72.765513 
L 129.308221 71.002423 
z
" clip-path="url(#p41abcdb3c3)" style="stroke: #000000; stroke-linecap: round"/>
   </g>
   <g id="patch_68">
    <path d="M 129.559647 79.832845 
Q 110.237978 109.238304 91.530266 137.709387 
" clip-path="url(#p41abcdb3c3)" style="fill: none; stroke: #000000; stroke-linecap: round"/>
    <path d="M 95.398286 135.464745 
L 91.530266 137.709387 
L 92.055364 133.268186 
L 95.398286 135.464745 
z
" clip-path="url(#p41abcdb3c3)" style="stroke: #000000; stroke-linecap: round"/>
   </g>
   <g id="patch_69">
    <path d="M 130.796883 76.287802 
Q 132.806959 54.103949 134.716143 33.033569 
" clip-path="url(#p41abcdb3c3)" style="fill: none; stroke: #000000; stroke-linecap: round"/>
    <path d="M 132.363343 36.836768 
L 134.716143 33.033569 
L 136.347023 37.197729 
L 132.363343 36.836768 
z
" clip-path="url(#p41abcdb3c3)" style="stroke: #000000; stroke-linecap: round"/>
   </g>
   <g id="patch_70">
    <path d="M 129.769346 76.47898 
Q 120.020759 56.626294 110.764971 37.777176 
" clip-path="url(#p41abcdb3c3)" style="fill: none; stroke: #000000; stroke-linecap: round"/>
    <path d="M 110.732823 42.249196 
L 110.764971 37.777176 
L 114.323298 40.486107 
L 110.732823 42.249196 
z
" clip-path="url(#p41abcdb3c3)" style="stroke: #000000; stroke-linecap: round"/>
   </g>
   <g id="patch_71">
    <path d="M 132.13437 79.42049 
Q 142.983309 88.063597 152.957795 96.010046 
" clip-path="url(#p41abcdb3c3)" style="fill: none; stroke: #000000; stroke-linecap: round"/>
    <path d="M 151.075474 91.953339 
L 152.957795 96.010046 
L 148.583037 95.081878 
L 151.075474 91.953339 
z
" clip-path="url(#p41abcdb3c3)" style="stroke: #000000; stroke-linecap: round"/>
   </g>
   <g id="patch_72">
    <path d="M 132.517964 78.622096 
Q 158.606897 84.213794 183.602624 89.571183 
" clip-path="url(#p41abcdb3c3)" style="fill: none; stroke: #000000; stroke-linecap: round"/>
    <path d="M 180.110596 86.777307 
L 183.602624 89.571183 
L 179.272306 90.688479 
L 180.110596 86.777307 
z
" clip-path="url(#p41abcdb3c3)" style="stroke: #000000; stroke-linecap: round"/>
   </g>
   <g id="patch_73">
    <path d="M 188.034783 91.493167 
Q 208.192087 109.344978 227.512406 126.455535 
" clip-path="url(#p41abcdb3c3)" style="fill: none; stroke: #000000; stroke-linecap: round"/>
    <path d="M 225.843916 122.306301 
L 227.512406 126.455535 
L 223.191925 125.300787 
L 225.843916 122.306301 
z
" clip-path="url(#p41abcdb3c3)" style="stroke: #000000; stroke-linecap: round"/>
   </g>
   <g id="patch_74">
    <path d="M 184.691013 89.80446 
Q 158.60208 84.212762 133.606353 78.855372 
" clip-path="url(#p41abcdb3c3)" style="fill: none; stroke: #000000; stroke-linecap: round"/>
    <path d="M 137.09838 81.649249 
L 133.606353 78.855372 
L 137.936671 77.738076 
L 137.09838 81.649249 
z
" clip-path="url(#p41abcdb3c3)" style="stroke: #000000; stroke-linecap: round"/>
   </g>
   <g id="patch_75">
    <path d="M 153.836114 96.709783 
Q 142.987175 88.066677 133.01269 80.120228 
" clip-path="url(#p41abcdb3c3)" style="fill: none; stroke: #000000; stroke-linecap: round"/>
    <path d="M 134.89501 84.176934 
L 133.01269 80.120228 
L 137.387447 81.048395 
L 134.89501 84.176934 
z
" clip-path="url(#p41abcdb3c3)" style="stroke: #000000; stroke-linecap: round"/>
   </g>
   <g id="patch_76">
    <path d="M 156.312062 99.596235 
Q 166.148913 116.761101 175.429856 132.955933 
" clip-path="url(#p41abcdb3c3)" style="fill: none; stroke: #000000; stroke-linecap: round"/>
    <path d="M 175.17623 128.490995 
L 175.429856 132.955933 
L 171.705729 130.479871 
L 175.17623 128.490995 
z
" clip-path="url(#p41abcdb3c3)" style="stroke: #000000; stroke-linecap: round"/>
   </g>
   <g id="patch_77">
    <path d="M 178.868672 135.348608 
Q 203.37526 132.044286 226.773841 128.889361 
" clip-path="url(#p41abcdb3c3)" style="fill: none; stroke: #000000; stroke-linecap: round"/>
    <path d="M 222.542463 127.441796 
L 226.773841 128.889361 
L 223.076962 131.405924 
L 222.542463 127.441796 
z
" clip-path="url(#p41abcdb3c3)" style="stroke: #000000; stroke-linecap: round"/>
   </g>
   <g id="patch_78">
    <path d="M 175.98559 133.925664 
Q 166.148739 116.760798 156.867796 100.565966 
" clip-path="url(#p41abcdb3c3)" style="fill: none; stroke: #000000; stroke-linecap: round"/>
    <path d="M 157.121422 105.030905 
L 156.867796 100.565966 
L 160.591922 103.042029 
L 157.121422 105.030905 
z
" clip-path="url(#p41abcdb3c3)" style="stroke: #000000; stroke-linecap: round"/>
   </g>
   <g id="patch_79">
    <path d="M 175.596133 136.99291 
Q 157.46618 155.555439 140.117422 173.318133 
" clip-path="url(#p41abcdb3c3)" style="fill: none; stroke: #000000; stroke-linecap: round"/>
    <path d="M 144.343096 171.854004 
L 140.117422 173.318133 
L 141.481523 169.059116 
L 144.343096 171.854004 
z
" clip-path="url(#p41abcdb3c3)" style="stroke: #000000; stroke-linecap: round"/>
   </g>
   <g id="patch_80">
    <path d="M 136.424152 174.360273 
Q 113.918534 157.882885 92.315015 142.065964 
" clip-path="url(#p41abcdb3c3)" style="fill: none; stroke: #000000; stroke-linecap: round"/>
    <path d="M 94.360982 146.042649 
L 92.315015 142.065964 
L 96.723943 142.815202 
L 94.360982 146.042649 
z
" clip-path="url(#p41abcdb3c3)" style="stroke: #000000; stroke-linecap: round"/>
   </g>
   <g id="patch_81">
    <path d="M 138.63497 177.329351 
Q 149.451941 207.691672 159.893698 237.000801 
" clip-path="url(#p41abcdb3c3)" style="fill: none; stroke: #000000; stroke-linecap: round"/>
    <path d="M 160.435302 232.561582 
L 159.893698 237.000801 
L 156.667285 233.903987 
L 160.435302 232.561582 
z
" clip-path="url(#p41abcdb3c3)" style="stroke: #000000; stroke-linecap: round"/>
   </g>
   <g id="patch_82">
    <path d="M 139.33731 174.116859 
Q 157.467263 155.55433 174.816021 137.791635 
" clip-path="url(#p41abcdb3c3)" style="fill: none; stroke: #000000; stroke-linecap: round"/>
    <path d="M 170.590346 139.255764 
L 174.816021 137.791635 
L 173.45192 142.050652 
L 170.590346 139.255764 
z
" clip-path="url(#p41abcdb3c3)" style="stroke: #000000; stroke-linecap: round"/>
   </g>
   <g id="patch_83">
    <path d="M 136.34416 276.16323 
Q 148.088708 258.819753 159.206364 242.402023 
" clip-path="url(#p41abcdb3c3)" style="fill: none; stroke: #000000; stroke-linecap: round"/>
    <path d="M 155.307503 244.592658 
L 159.206364 242.402023 
L 158.619555 246.835493 
L 155.307503 244.592658 
z
" clip-path="url(#p41abcdb3c3)" style="stroke: #000000; stroke-linecap: round"/>
   </g>
   <g id="PathCollection_1">
    <defs>
     <path id="mcca5702cd3" d="M 0 1.936492 
C 0.513564 1.936492 1.006162 1.732451 1.369306 1.369306 
C 1.732451 1.006162 1.936492 0.513564 1.936492 0 
C 1.936492 -0.513564 1.732451 -1.006162 1.369306 -1.369306 
C 1.006162 -1.732451 0.513564 -1.936492 0 -1.936492 
C -0.513564 -1.936492 -1.006162 -1.732451 -1.369306 -1.369306 
C -1.732451 -1.006162 -1.936492 -0.513564 -1.936492 0 
C -1.936492 0.513564 -1.732451 1.006162 -1.369306 1.369306 
C -1.006162 1.732451 -0.513564 1.936492 0 1.936492 
z
" style="stroke: #1f78b4"/>
    </defs>
    <g clip-path="url(#p41abcdb3c3)">
     <use xlink:href="#mcca5702cd3" x="214.669902" y="229.223505" style="fill: #1f78b4; stroke: #1f78b4"/>
     <use xlink:href="#mcca5702cd3" x="149.926631" y="190.939213" style="fill: #1f78b4; stroke: #1f78b4"/>
     <use xlink:href="#mcca5702cd3" x="345.2564" y="240.262906" style="fill: #1f78b4; stroke: #1f78b4"/>
     <use xlink:href="#mcca5702cd3" x="279.953047" y="262.61691" style="fill: #1f78b4; stroke: #1f78b4"/>
     <use xlink:href="#mcca5702cd3" x="70.574845" y="100.346227" style="fill: #1f78b4; stroke: #1f78b4"/>
     <use xlink:href="#mcca5702cd3" x="229.79985" y="128.481352" style="fill: #1f78b4; stroke: #1f78b4"/>
     <use xlink:href="#mcca5702cd3" x="89.852375" y="140.262953" style="fill: #1f78b4; stroke: #1f78b4"/>
     <use xlink:href="#mcca5702cd3" x="57.708059" y="110.307754" style="fill: #1f78b4; stroke: #1f78b4"/>
     <use xlink:href="#mcca5702cd3" x="251.633165" y="93.218493" style="fill: #1f78b4; stroke: #1f78b4"/>
     <use xlink:href="#mcca5702cd3" x="281.184908" y="180.769748" style="fill: #1f78b4; stroke: #1f78b4"/>
     <use xlink:href="#mcca5702cd3" x="274.951607" y="314.755618" style="fill: #1f78b4; stroke: #1f78b4"/>
     <use xlink:href="#mcca5702cd3" x="321.468493" y="294.365441" style="fill: #1f78b4; stroke: #1f78b4"/>
     <use xlink:href="#mcca5702cd3" x="297.447056" y="294.603195" style="fill: #1f78b4; stroke: #1f78b4"/>
     <use xlink:href="#mcca5702cd3" x="299.686778" y="315.609917" style="fill: #1f78b4; stroke: #1f78b4"/>
     <use xlink:href="#mcca5702cd3" x="318.215785" y="268.640486" style="fill: #1f78b4; stroke: #1f78b4"/>
     <use xlink:href="#mcca5702cd3" x="258.965797" y="298.785382" style="fill: #1f78b4; stroke: #1f78b4"/>
     <use xlink:href="#mcca5702cd3" x="39.986777" y="121.983381" style="fill: #1f78b4; stroke: #1f78b4"/>
     <use xlink:href="#mcca5702cd3" x="44.979817" y="163.132265" style="fill: #1f78b4; stroke: #1f78b4"/>
     <use xlink:href="#mcca5702cd3" x="369.027405" y="102.191008" style="fill: #1f78b4; stroke: #1f78b4"/>
     <use xlink:href="#mcca5702cd3" x="411.953357" y="124.466257" style="fill: #1f78b4; stroke: #1f78b4"/>
     <use xlink:href="#mcca5702cd3" x="420.813223" y="167.961925" style="fill: #1f78b4; stroke: #1f78b4"/>
     <use xlink:href="#mcca5702cd3" x="394.561854" y="210.047859" style="fill: #1f78b4; stroke: #1f78b4"/>
     <use xlink:href="#mcca5702cd3" x="41.809823" y="142.787108" style="fill: #1f78b4; stroke: #1f78b4"/>
     <use xlink:href="#mcca5702cd3" x="64.336319" y="173.9697" style="fill: #1f78b4; stroke: #1f78b4"/>
     <use xlink:href="#mcca5702cd3" x="329.624281" y="139.950596" style="fill: #1f78b4; stroke: #1f78b4"/>
     <use xlink:href="#mcca5702cd3" x="346.552264" y="59.355115" style="fill: #1f78b4; stroke: #1f78b4"/>
     <use xlink:href="#mcca5702cd3" x="160.917644" y="239.874931" style="fill: #1f78b4; stroke: #1f78b4"/>
     <use xlink:href="#mcca5702cd3" x="217.603919" y="262.709098" style="fill: #1f78b4; stroke: #1f78b4"/>
     <use xlink:href="#mcca5702cd3" x="134.991913" y="29.990083" style="fill: #1f78b4; stroke: #1f78b4"/>
     <use xlink:href="#mcca5702cd3" x="109.418853" y="35.035849" style="fill: #1f78b4; stroke: #1f78b4"/>
     <use xlink:href="#mcca5702cd3" x="130.62219" y="78.21577" style="fill: #1f78b4; stroke: #1f78b4"/>
     <use xlink:href="#mcca5702cd3" x="186.586786" y="90.210786" style="fill: #1f78b4; stroke: #1f78b4"/>
     <use xlink:href="#mcca5702cd3" x="155.348294" y="97.914503" style="fill: #1f78b4; stroke: #1f78b4"/>
     <use xlink:href="#mcca5702cd3" x="176.949358" y="135.607397" style="fill: #1f78b4; stroke: #1f78b4"/>
     <use xlink:href="#mcca5702cd3" x="137.984085" y="175.502371" style="fill: #1f78b4; stroke: #1f78b4"/>
     <use xlink:href="#mcca5702cd3" x="135.258861" y="277.765919" style="fill: #1f78b4; stroke: #1f78b4"/>
    </g>
   </g>
   <g id="text_1">
    <g clip-path="url(#p41abcdb3c3)">
     <!-- 0 -->
     <g transform="translate(211.488652 231.98288) scale(0.1 -0.1)">
      <defs>
       <path id="DejaVuSans-30" d="M 2034 4250 
Q 1547 4250 1301 3770 
Q 1056 3291 1056 2328 
Q 1056 1369 1301 889 
Q 1547 409 2034 409 
Q 2525 409 2770 889 
Q 3016 1369 3016 2328 
Q 3016 3291 2770 3770 
Q 2525 4250 2034 4250 
z
M 2034 4750 
Q 2819 4750 3233 4129 
Q 3647 3509 3647 2328 
Q 3647 1150 3233 529 
Q 2819 -91 2034 -91 
Q 1250 -91 836 529 
Q 422 1150 422 2328 
Q 422 3509 836 4129 
Q 1250 4750 2034 4750 
z
" transform="scale(0.015625)"/>
      </defs>
      <use xlink:href="#DejaVuSans-30"/>
     </g>
    </g>
   </g>
   <g id="text_2">
    <g clip-path="url(#p41abcdb3c3)">
     <!-- 1 -->
     <g transform="translate(146.745381 193.698588) scale(0.1 -0.1)">
      <defs>
       <path id="DejaVuSans-31" d="M 794 531 
L 1825 531 
L 1825 4091 
L 703 3866 
L 703 4441 
L 1819 4666 
L 2450 4666 
L 2450 531 
L 3481 531 
L 3481 0 
L 794 0 
L 794 531 
z
" transform="scale(0.015625)"/>
      </defs>
      <use xlink:href="#DejaVuSans-31"/>
     </g>
    </g>
   </g>
   <g id="text_3">
    <g clip-path="url(#p41abcdb3c3)">
     <!-- 2 -->
     <g transform="translate(342.07515 243.022281) scale(0.1 -0.1)">
      <defs>
       <path id="DejaVuSans-32" d="M 1228 531 
L 3431 531 
L 3431 0 
L 469 0 
L 469 531 
Q 828 903 1448 1529 
Q 2069 2156 2228 2338 
Q 2531 2678 2651 2914 
Q 2772 3150 2772 3378 
Q 2772 3750 2511 3984 
Q 2250 4219 1831 4219 
Q 1534 4219 1204 4116 
Q 875 4013 500 3803 
L 500 4441 
Q 881 4594 1212 4672 
Q 1544 4750 1819 4750 
Q 2544 4750 2975 4387 
Q 3406 4025 3406 3419 
Q 3406 3131 3298 2873 
Q 3191 2616 2906 2266 
Q 2828 2175 2409 1742 
Q 1991 1309 1228 531 
z
" transform="scale(0.015625)"/>
      </defs>
      <use xlink:href="#DejaVuSans-32"/>
     </g>
    </g>
   </g>
   <g id="text_4">
    <g clip-path="url(#p41abcdb3c3)">
     <!-- 3 -->
     <g transform="translate(276.771797 265.376285) scale(0.1 -0.1)">
      <defs>
       <path id="DejaVuSans-33" d="M 2597 2516 
Q 3050 2419 3304 2112 
Q 3559 1806 3559 1356 
Q 3559 666 3084 287 
Q 2609 -91 1734 -91 
Q 1441 -91 1130 -33 
Q 819 25 488 141 
L 488 750 
Q 750 597 1062 519 
Q 1375 441 1716 441 
Q 2309 441 2620 675 
Q 2931 909 2931 1356 
Q 2931 1769 2642 2001 
Q 2353 2234 1838 2234 
L 1294 2234 
L 1294 2753 
L 1863 2753 
Q 2328 2753 2575 2939 
Q 2822 3125 2822 3475 
Q 2822 3834 2567 4026 
Q 2313 4219 1838 4219 
Q 1578 4219 1281 4162 
Q 984 4106 628 3988 
L 628 4550 
Q 988 4650 1302 4700 
Q 1616 4750 1894 4750 
Q 2613 4750 3031 4423 
Q 3450 4097 3450 3541 
Q 3450 3153 3228 2886 
Q 3006 2619 2597 2516 
z
" transform="scale(0.015625)"/>
      </defs>
      <use xlink:href="#DejaVuSans-33"/>
     </g>
    </g>
   </g>
   <g id="text_5">
    <g clip-path="url(#p41abcdb3c3)">
     <!-- 4 -->
     <g transform="translate(67.393595 103.105602) scale(0.1 -0.1)">
      <defs>
       <path id="DejaVuSans-34" d="M 2419 4116 
L 825 1625 
L 2419 1625 
L 2419 4116 
z
M 2253 4666 
L 3047 4666 
L 3047 1625 
L 3713 1625 
L 3713 1100 
L 3047 1100 
L 3047 0 
L 2419 0 
L 2419 1100 
L 313 1100 
L 313 1709 
L 2253 4666 
z
" transform="scale(0.015625)"/>
      </defs>
      <use xlink:href="#DejaVuSans-34"/>
     </g>
    </g>
   </g>
   <g id="text_6">
    <g clip-path="url(#p41abcdb3c3)">
     <!-- 5 -->
     <g transform="translate(226.6186 131.240727) scale(0.1 -0.1)">
      <defs>
       <path id="DejaVuSans-35" d="M 691 4666 
L 3169 4666 
L 3169 4134 
L 1269 4134 
L 1269 2991 
Q 1406 3038 1543 3061 
Q 1681 3084 1819 3084 
Q 2600 3084 3056 2656 
Q 3513 2228 3513 1497 
Q 3513 744 3044 326 
Q 2575 -91 1722 -91 
Q 1428 -91 1123 -41 
Q 819 9 494 109 
L 494 744 
Q 775 591 1075 516 
Q 1375 441 1709 441 
Q 2250 441 2565 725 
Q 2881 1009 2881 1497 
Q 2881 1984 2565 2268 
Q 2250 2553 1709 2553 
Q 1456 2553 1204 2497 
Q 953 2441 691 2322 
L 691 4666 
z
" transform="scale(0.015625)"/>
      </defs>
      <use xlink:href="#DejaVuSans-35"/>
     </g>
    </g>
   </g>
   <g id="text_7">
    <g clip-path="url(#p41abcdb3c3)">
     <!-- 6 -->
     <g transform="translate(86.671125 143.022328) scale(0.1 -0.1)">
      <defs>
       <path id="DejaVuSans-36" d="M 2113 2584 
Q 1688 2584 1439 2293 
Q 1191 2003 1191 1497 
Q 1191 994 1439 701 
Q 1688 409 2113 409 
Q 2538 409 2786 701 
Q 3034 994 3034 1497 
Q 3034 2003 2786 2293 
Q 2538 2584 2113 2584 
z
M 3366 4563 
L 3366 3988 
Q 3128 4100 2886 4159 
Q 2644 4219 2406 4219 
Q 1781 4219 1451 3797 
Q 1122 3375 1075 2522 
Q 1259 2794 1537 2939 
Q 1816 3084 2150 3084 
Q 2853 3084 3261 2657 
Q 3669 2231 3669 1497 
Q 3669 778 3244 343 
Q 2819 -91 2113 -91 
Q 1303 -91 875 529 
Q 447 1150 447 2328 
Q 447 3434 972 4092 
Q 1497 4750 2381 4750 
Q 2619 4750 2861 4703 
Q 3103 4656 3366 4563 
z
" transform="scale(0.015625)"/>
      </defs>
      <use xlink:href="#DejaVuSans-36"/>
     </g>
    </g>
   </g>
   <g id="text_8">
    <g clip-path="url(#p41abcdb3c3)">
     <!-- 7 -->
     <g transform="translate(54.526809 113.067129) scale(0.1 -0.1)">
      <defs>
       <path id="DejaVuSans-37" d="M 525 4666 
L 3525 4666 
L 3525 4397 
L 1831 0 
L 1172 0 
L 2766 4134 
L 525 4134 
L 525 4666 
z
" transform="scale(0.015625)"/>
      </defs>
      <use xlink:href="#DejaVuSans-37"/>
     </g>
    </g>
   </g>
   <g id="text_9">
    <g clip-path="url(#p41abcdb3c3)">
     <!-- 8 -->
     <g transform="translate(248.451915 95.977868) scale(0.1 -0.1)">
      <defs>
       <path id="DejaVuSans-38" d="M 2034 2216 
Q 1584 2216 1326 1975 
Q 1069 1734 1069 1313 
Q 1069 891 1326 650 
Q 1584 409 2034 409 
Q 2484 409 2743 651 
Q 3003 894 3003 1313 
Q 3003 1734 2745 1975 
Q 2488 2216 2034 2216 
z
M 1403 2484 
Q 997 2584 770 2862 
Q 544 3141 544 3541 
Q 544 4100 942 4425 
Q 1341 4750 2034 4750 
Q 2731 4750 3128 4425 
Q 3525 4100 3525 3541 
Q 3525 3141 3298 2862 
Q 3072 2584 2669 2484 
Q 3125 2378 3379 2068 
Q 3634 1759 3634 1313 
Q 3634 634 3220 271 
Q 2806 -91 2034 -91 
Q 1263 -91 848 271 
Q 434 634 434 1313 
Q 434 1759 690 2068 
Q 947 2378 1403 2484 
z
M 1172 3481 
Q 1172 3119 1398 2916 
Q 1625 2713 2034 2713 
Q 2441 2713 2670 2916 
Q 2900 3119 2900 3481 
Q 2900 3844 2670 4047 
Q 2441 4250 2034 4250 
Q 1625 4250 1398 4047 
Q 1172 3844 1172 3481 
z
" transform="scale(0.015625)"/>
      </defs>
      <use xlink:href="#DejaVuSans-38"/>
     </g>
    </g>
   </g>
   <g id="text_10">
    <g clip-path="url(#p41abcdb3c3)">
     <!-- 9 -->
     <g transform="translate(278.003658 183.529123) scale(0.1 -0.1)">
      <defs>
       <path id="DejaVuSans-39" d="M 703 97 
L 703 672 
Q 941 559 1184 500 
Q 1428 441 1663 441 
Q 2288 441 2617 861 
Q 2947 1281 2994 2138 
Q 2813 1869 2534 1725 
Q 2256 1581 1919 1581 
Q 1219 1581 811 2004 
Q 403 2428 403 3163 
Q 403 3881 828 4315 
Q 1253 4750 1959 4750 
Q 2769 4750 3195 4129 
Q 3622 3509 3622 2328 
Q 3622 1225 3098 567 
Q 2575 -91 1691 -91 
Q 1453 -91 1209 -44 
Q 966 3 703 97 
z
M 1959 2075 
Q 2384 2075 2632 2365 
Q 2881 2656 2881 3163 
Q 2881 3666 2632 3958 
Q 2384 4250 1959 4250 
Q 1534 4250 1286 3958 
Q 1038 3666 1038 3163 
Q 1038 2656 1286 2365 
Q 1534 2075 1959 2075 
z
" transform="scale(0.015625)"/>
      </defs>
      <use xlink:href="#DejaVuSans-39"/>
     </g>
    </g>
   </g>
   <g id="text_11">
    <g clip-path="url(#p41abcdb3c3)">
     <!-- 10 -->
     <g transform="translate(268.589107 317.514993) scale(0.1 -0.1)">
      <use xlink:href="#DejaVuSans-31"/>
      <use xlink:href="#DejaVuSans-30" x="63.623047"/>
     </g>
    </g>
   </g>
   <g id="text_12">
    <g clip-path="url(#p41abcdb3c3)">
     <!-- 11 -->
     <g transform="translate(315.105993 297.124816) scale(0.1 -0.1)">
      <use xlink:href="#DejaVuSans-31"/>
      <use xlink:href="#DejaVuSans-31" x="63.623047"/>
     </g>
    </g>
   </g>
   <g id="text_13">
    <g clip-path="url(#p41abcdb3c3)">
     <!-- 12 -->
     <g transform="translate(291.084556 297.36257) scale(0.1 -0.1)">
      <use xlink:href="#DejaVuSans-31"/>
      <use xlink:href="#DejaVuSans-32" x="63.623047"/>
     </g>
    </g>
   </g>
   <g id="text_14">
    <g clip-path="url(#p41abcdb3c3)">
     <!-- 13 -->
     <g transform="translate(293.324278 318.369292) scale(0.1 -0.1)">
      <use xlink:href="#DejaVuSans-31"/>
      <use xlink:href="#DejaVuSans-33" x="63.623047"/>
     </g>
    </g>
   </g>
   <g id="text_15">
    <g clip-path="url(#p41abcdb3c3)">
     <!-- 14 -->
     <g transform="translate(311.853285 271.399861) scale(0.1 -0.1)">
      <use xlink:href="#DejaVuSans-31"/>
      <use xlink:href="#DejaVuSans-34" x="63.623047"/>
     </g>
    </g>
   </g>
   <g id="text_16">
    <g clip-path="url(#p41abcdb3c3)">
     <!-- 15 -->
     <g transform="translate(252.603297 301.544757) scale(0.1 -0.1)">
      <use xlink:href="#DejaVuSans-31"/>
      <use xlink:href="#DejaVuSans-35" x="63.623047"/>
     </g>
    </g>
   </g>
   <g id="text_17">
    <g clip-path="url(#p41abcdb3c3)">
     <!-- 16 -->
     <g transform="translate(33.624277 124.742756) scale(0.1 -0.1)">
      <use xlink:href="#DejaVuSans-31"/>
      <use xlink:href="#DejaVuSans-36" x="63.623047"/>
     </g>
    </g>
   </g>
   <g id="text_18">
    <g clip-path="url(#p41abcdb3c3)">
     <!-- 17 -->
     <g transform="translate(38.617317 165.89164) scale(0.1 -0.1)">
      <use xlink:href="#DejaVuSans-31"/>
      <use xlink:href="#DejaVuSans-37" x="63.623047"/>
     </g>
    </g>
   </g>
   <g id="text_19">
    <g clip-path="url(#p41abcdb3c3)">
     <!-- 18 -->
     <g transform="translate(362.664905 104.950383) scale(0.1 -0.1)">
      <use xlink:href="#DejaVuSans-31"/>
      <use xlink:href="#DejaVuSans-38" x="63.623047"/>
     </g>
    </g>
   </g>
   <g id="text_20">
    <g clip-path="url(#p41abcdb3c3)">
     <!-- 19 -->
     <g transform="translate(405.590857 127.225632) scale(0.1 -0.1)">
      <use xlink:href="#DejaVuSans-31"/>
      <use xlink:href="#DejaVuSans-39" x="63.623047"/>
     </g>
    </g>
   </g>
   <g id="text_21">
    <g clip-path="url(#p41abcdb3c3)">
     <!-- 20 -->
     <g transform="translate(414.450723 170.7213) scale(0.1 -0.1)">
      <use xlink:href="#DejaVuSans-32"/>
      <use xlink:href="#DejaVuSans-30" x="63.623047"/>
     </g>
    </g>
   </g>
   <g id="text_22">
    <g clip-path="url(#p41abcdb3c3)">
     <!-- 21 -->
     <g transform="translate(388.199354 212.807234) scale(0.1 -0.1)">
      <use xlink:href="#DejaVuSans-32"/>
      <use xlink:href="#DejaVuSans-31" x="63.623047"/>
     </g>
    </g>
   </g>
   <g id="text_23">
    <g clip-path="url(#p41abcdb3c3)">
     <!-- 22 -->
     <g transform="translate(35.447323 145.546483) scale(0.1 -0.1)">
      <use xlink:href="#DejaVuSans-32"/>
      <use xlink:href="#DejaVuSans-32" x="63.623047"/>
     </g>
    </g>
   </g>
   <g id="text_24">
    <g clip-path="url(#p41abcdb3c3)">
     <!-- 23 -->
     <g transform="translate(57.973819 176.729075) scale(0.1 -0.1)">
      <use xlink:href="#DejaVuSans-32"/>
      <use xlink:href="#DejaVuSans-33" x="63.623047"/>
     </g>
    </g>
   </g>
   <g id="text_25">
    <g clip-path="url(#p41abcdb3c3)">
     <!-- 24 -->
     <g transform="translate(323.261781 142.709971) scale(0.1 -0.1)">
      <use xlink:href="#DejaVuSans-32"/>
      <use xlink:href="#DejaVuSans-34" x="63.623047"/>
     </g>
    </g>
   </g>
   <g id="text_26">
    <g clip-path="url(#p41abcdb3c3)">
     <!-- 25 -->
     <g transform="translate(340.189764 62.11449) scale(0.1 -0.1)">
      <use xlink:href="#DejaVuSans-32"/>
      <use xlink:href="#DejaVuSans-35" x="63.623047"/>
     </g>
    </g>
   </g>
   <g id="text_27">
    <g clip-path="url(#p41abcdb3c3)">
     <!-- 26 -->
     <g transform="translate(154.555144 242.634306) scale(0.1 -0.1)">
      <use xlink:href="#DejaVuSans-32"/>
      <use xlink:href="#DejaVuSans-36" x="63.623047"/>
     </g>
    </g>
   </g>
   <g id="text_28">
    <g clip-path="url(#p41abcdb3c3)">
     <!-- 27 -->
     <g transform="translate(211.241419 265.468473) scale(0.1 -0.1)">
      <use xlink:href="#DejaVuSans-32"/>
      <use xlink:href="#DejaVuSans-37" x="63.623047"/>
     </g>
    </g>
   </g>
   <g id="text_29">
    <g clip-path="url(#p41abcdb3c3)">
     <!-- 28 -->
     <g transform="translate(128.629413 32.749458) scale(0.1 -0.1)">
      <use xlink:href="#DejaVuSans-32"/>
      <use xlink:href="#DejaVuSans-38" x="63.623047"/>
     </g>
    </g>
   </g>
   <g id="text_30">
    <g clip-path="url(#p41abcdb3c3)">
     <!-- 29 -->
     <g transform="translate(103.056353 37.795224) scale(0.1 -0.1)">
      <use xlink:href="#DejaVuSans-32"/>
      <use xlink:href="#DejaVuSans-39" x="63.623047"/>
     </g>
    </g>
   </g>
   <g id="text_31">
    <g clip-path="url(#p41abcdb3c3)">
     <!-- 30 -->
     <g transform="translate(124.25969 80.975145) scale(0.1 -0.1)">
      <use xlink:href="#DejaVuSans-33"/>
      <use xlink:href="#DejaVuSans-30" x="63.623047"/>
     </g>
    </g>
   </g>
   <g id="text_32">
    <g clip-path="url(#p41abcdb3c3)">
     <!-- 31 -->
     <g transform="translate(180.224286 92.970161) scale(0.1 -0.1)">
      <use xlink:href="#DejaVuSans-33"/>
      <use xlink:href="#DejaVuSans-31" x="63.623047"/>
     </g>
    </g>
   </g>
   <g id="text_33">
    <g clip-path="url(#p41abcdb3c3)">
     <!-- 32 -->
     <g transform="translate(148.985794 100.673878) scale(0.1 -0.1)">
      <use xlink:href="#DejaVuSans-33"/>
      <use xlink:href="#DejaVuSans-32" x="63.623047"/>
     </g>
    </g>
   </g>
   <g id="text_34">
    <g clip-path="url(#p41abcdb3c3)">
     <!-- 33 -->
     <g transform="translate(170.586858 138.366772) scale(0.1 -0.1)">
      <use xlink:href="#DejaVuSans-33"/>
      <use xlink:href="#DejaVuSans-33" x="63.623047"/>
     </g>
    </g>
   </g>
   <g id="text_35">
    <g clip-path="url(#p41abcdb3c3)">
     <!-- 34 -->
     <g transform="translate(131.621585 178.261746) scale(0.1 -0.1)">
      <use xlink:href="#DejaVuSans-33"/>
      <use xlink:href="#DejaVuSans-34" x="63.623047"/>
     </g>
    </g>
   </g>
   <g id="text_36">
    <g clip-path="url(#p41abcdb3c3)">
     <!-- 35 -->
     <g transform="translate(128.896361 280.525294) scale(0.1 -0.1)">
      <use xlink:href="#DejaVuSans-33"/>
      <use xlink:href="#DejaVuSans-35" x="63.623047"/>
     </g>
    </g>
   </g>
  </g>
 </g>
 <defs>
  <clipPath id="p41abcdb3c3">
   <rect x="0" y="0" width="460.8" height="345.6"/>
  </clipPath>
 </defs>
</svg>
