<?xml version="1.0" encoding="utf-8" standalone="no"?>
<!DOCTYPE svg PUBLIC "-//W3C//DTD SVG 1.1//EN"
  "http://www.w3.org/Graphics/SVG/1.1/DTD/svg11.dtd">
<svg xmlns:xlink="http://www.w3.org/1999/xlink" width="460.8pt" height="345.6pt" viewBox="0 0 460.8 345.6" xmlns="http://www.w3.org/2000/svg" version="1.1">
 <metadata>
  <rdf:RDF xmlns:dc="http://purl.org/dc/elements/1.1/" xmlns:cc="http://creativecommons.org/ns#" xmlns:rdf="http://www.w3.org/1999/02/22-rdf-syntax-ns#">
   <cc:Work>
    <dc:type rdf:resource="http://purl.org/dc/dcmitype/StillImage"/>
    <dc:date>2023-10-10T10:55:51.196734</dc:date>
    <dc:format>image/svg+xml</dc:format>
    <dc:creator>
     <cc:Agent>
      <dc:title>Matplotlib v3.6.1, https://matplotlib.org/</dc:title>
     </cc:Agent>
    </dc:creator>
   </cc:Work>
  </rdf:RDF>
 </metadata>
 <defs>
  <style type="text/css">*{stroke-linejoin: round; stroke-linecap: butt}</style>
 </defs>
 <g id="figure_1">
  <g id="patch_1">
   <path d="M 0 345.6 
L 460.8 345.6 
L 460.8 0 
L 0 0 
z
" style="fill: #ffffff"/>
  </g>
  <g id="axes_1">
   <g id="patch_2">
    <path d="M 163.908563 31.891283 
Q 168.383753 54.439723 172.641291 75.891519 
" clip-path="url(#p015d761a55)" style="fill: none; stroke: #000000; stroke-linecap: round"/>
    <path d="M 173.824336 71.5787 
L 172.641291 75.891519 
L 169.900863 72.357392 
L 173.824336 71.5787 
z
" clip-path="url(#p015d761a55)" style="stroke: #000000; stroke-linecap: round"/>
   </g>
   <g id="patch_3">
    <path d="M 194.73213 35.979506 
Q 184.417882 56.569171 174.604388 76.159214 
" clip-path="url(#p015d761a55)" style="fill: none; stroke: #000000; stroke-linecap: round"/>
    <path d="M 178.184119 73.478631 
L 174.604388 76.159214 
L 174.607761 71.687079 
L 178.184119 73.478631 
z
" clip-path="url(#p015d761a55)" style="stroke: #000000; stroke-linecap: round"/>
   </g>
   <g id="patch_4">
    <path d="M 47.910125 88.866694 
Q 70.294429 97.339144 91.633094 105.41582 
" clip-path="url(#p015d761a55)" style="fill: none; stroke: #000000; stroke-linecap: round"/>
    <path d="M 88.600082 102.129357 
L 91.633094 105.41582 
L 87.184116 105.870352 
L 88.600082 102.129357 
z
" clip-path="url(#p015d761a55)" style="stroke: #000000; stroke-linecap: round"/>
   </g>
   <g id="patch_5">
    <path d="M 202.307196 242.879988 
Q 221.043883 248.681403 238.712559 254.152132 
" clip-path="url(#p015d761a55)" style="fill: none; stroke: #000000; stroke-linecap: round"/>
    <path d="M 235.483079 251.058516 
L 238.712559 254.152132 
L 234.299979 254.879546 
L 235.483079 251.058516 
z
" clip-path="url(#p015d761a55)" style="stroke: #000000; stroke-linecap: round"/>
   </g>
   <g id="patch_6">
    <path d="M 419.403774 161.421462 
Q 403.70873 176.191316 388.827888 190.194962 
" clip-path="url(#p015d761a55)" style="fill: none; stroke: #000000; stroke-linecap: round"/>
    <path d="M 393.111502 188.910186 
L 388.827888 190.194962 
L 390.370236 185.997205 
L 393.111502 188.910186 
z
" clip-path="url(#p015d761a55)" style="stroke: #000000; stroke-linecap: round"/>
   </g>
   <g id="patch_7">
    <path d="M 381.55896 238.758047 
Q 357.909771 234.072142 335.357295 229.603543 
" clip-path="url(#p015d761a55)" style="fill: none; stroke: #000000; stroke-linecap: round"/>
    <path d="M 338.892286 232.342856 
L 335.357295 229.603543 
L 339.669741 228.419138 
L 338.892286 232.342856 
z
" clip-path="url(#p015d761a55)" style="stroke: #000000; stroke-linecap: round"/>
   </g>
   <g id="patch_8">
    <path d="M 334.259113 229.385946 
Q 357.908302 234.071851 380.460779 238.54045 
" clip-path="url(#p015d761a55)" style="fill: none; stroke: #000000; stroke-linecap: round"/>
    <path d="M 376.925788 235.801137 
L 380.460779 238.54045 
L 376.148333 239.724855 
L 376.925788 235.801137 
z
" clip-path="url(#p015d761a55)" style="stroke: #000000; stroke-linecap: round"/>
   </g>
   <g id="patch_9">
    <path d="M 333.965448 227.922611 
Q 359.482278 210.648643 384.07327 194.001433 
" clip-path="url(#p015d761a55)" style="fill: none; stroke: #000000; stroke-linecap: round"/>
    <path d="M 379.639716 194.587603 
L 384.07327 194.001433 
L 381.882074 197.899978 
L 379.639716 194.587603 
z
" clip-path="url(#p015d761a55)" style="stroke: #000000; stroke-linecap: round"/>
   </g>
   <g id="patch_10">
    <path d="M 330.496343 229.544549 
Q 286.995266 242.03274 244.568817 254.212429 
" clip-path="url(#p015d761a55)" style="fill: none; stroke: #000000; stroke-linecap: round"/>
    <path d="M 248.96539 255.031053 
L 244.568817 254.212429 
L 247.86166 251.186345 
L 248.96539 255.031053 
z
" clip-path="url(#p015d761a55)" style="stroke: #000000; stroke-linecap: round"/>
   </g>
   <g id="patch_11">
    <path d="M 388.011691 190.963045 
Q 403.706736 176.193192 418.587577 162.189546 
" clip-path="url(#p015d761a55)" style="fill: none; stroke: #000000; stroke-linecap: round"/>
    <path d="M 414.303963 163.474322 
L 418.587577 162.189546 
L 417.04523 166.387303 
L 414.303963 163.474322 
z
" clip-path="url(#p015d761a55)" style="stroke: #000000; stroke-linecap: round"/>
   </g>
   <g id="patch_12">
    <path d="M 384.996553 193.376403 
Q 359.479724 210.650372 334.888731 227.297582 
" clip-path="url(#p015d761a55)" style="fill: none; stroke: #000000; stroke-linecap: round"/>
    <path d="M 339.322285 226.711411 
L 334.888731 227.297582 
L 337.079927 223.399036 
L 339.322285 226.711411 
z
" clip-path="url(#p015d761a55)" style="stroke: #000000; stroke-linecap: round"/>
   </g>
   <g id="patch_13">
    <path d="M 291.702129 263.821461 
Q 267.621633 259.605817 244.642421 255.582969 
" clip-path="url(#p015d761a55)" style="fill: none; stroke: #000000; stroke-linecap: round"/>
    <path d="M 248.237616 258.242777 
L 244.642421 255.582969 
L 248.927384 254.302698 
L 248.237616 258.242777 
z
" clip-path="url(#p015d761a55)" style="stroke: #000000; stroke-linecap: round"/>
   </g>
   <g id="patch_14">
    <path d="M 265.373285 216.608539 
Q 254.011543 235.007322 243.237237 252.454833 
" clip-path="url(#p015d761a55)" style="fill: none; stroke: #000000; stroke-linecap: round"/>
    <path d="M 247.0406 250.102295 
L 243.237237 252.454833 
L 243.637225 248.00062 
L 247.0406 250.102295 
z
" clip-path="url(#p015d761a55)" style="stroke: #000000; stroke-linecap: round"/>
   </g>
   <g id="patch_15">
    <path d="M 288.342173 287.140313 
Q 265.783485 271.645391 244.146374 256.783474 
" clip-path="url(#p015d761a55)" style="fill: none; stroke: #000000; stroke-linecap: round"/>
    <path d="M 246.311154 260.69675 
L 244.146374 256.783474 
L 248.575863 257.399615 
L 246.311154 260.69675 
z
" clip-path="url(#p015d761a55)" style="stroke: #000000; stroke-linecap: round"/>
   </g>
   <g id="patch_16">
    <path d="M 199.03869 297.904904 
Q 219.65248 277.166863 239.478079 257.221764 
" clip-path="url(#p015d761a55)" style="fill: none; stroke: #000000; stroke-linecap: round"/>
    <path d="M 235.239707 258.648719 
L 239.478079 257.221764 
L 238.07662 261.468634 
L 235.239707 258.648719 
z
" clip-path="url(#p015d761a55)" style="stroke: #000000; stroke-linecap: round"/>
   </g>
   <g id="patch_17">
    <path d="M 218.576335 283.244987 
Q 229.491596 269.898819 239.699044 257.4181 
" clip-path="url(#p015d761a55)" style="fill: none; stroke: #000000; stroke-linecap: round"/>
    <path d="M 235.618533 259.248247 
L 239.699044 257.4181 
L 238.714855 261.780596 
L 235.618533 259.248247 
z
" clip-path="url(#p015d761a55)" style="stroke: #000000; stroke-linecap: round"/>
   </g>
   <g id="patch_18">
    <path d="M 281.669582 239.32138 
Q 262.550854 246.834695 244.472693 253.939085 
" clip-path="url(#p015d761a55)" style="fill: none; stroke: #000000; stroke-linecap: round"/>
    <path d="M 248.927047 254.337497 
L 244.472693 253.939085 
L 247.464035 250.614649 
L 248.927047 254.337497 
z
" clip-path="url(#p015d761a55)" style="stroke: #000000; stroke-linecap: round"/>
   </g>
   <g id="patch_19">
    <path d="M 257.899063 286.815528 
Q 250.206919 271.798273 243.02448 257.776107 
" clip-path="url(#p015d761a55)" style="fill: none; stroke: #000000; stroke-linecap: round"/>
    <path d="M 243.067986 262.248031 
L 243.02448 257.776107 
L 246.628123 260.424457 
L 243.067986 262.248031 
z
" clip-path="url(#p015d761a55)" style="stroke: #000000; stroke-linecap: round"/>
   </g>
   <g id="patch_20">
    <path d="M 223.772056 310.713015 
Q 232.405624 283.8067 240.697597 257.964957 
" clip-path="url(#p015d761a55)" style="fill: none; stroke: #000000; stroke-linecap: round"/>
    <path d="M 237.571107 261.162622 
L 240.697597 257.964957 
L 241.379835 262.384748 
L 237.571107 261.162622 
z
" clip-path="url(#p015d761a55)" style="stroke: #000000; stroke-linecap: round"/>
   </g>
   <g id="patch_21">
    <path d="M 233.641439 218.446402 
Q 237.429982 235.805919 240.980137 252.073112 
" clip-path="url(#p015d761a55)" style="fill: none; stroke: #000000; stroke-linecap: round"/>
    <path d="M 242.081259 247.738654 
L 240.980137 252.073112 
L 238.173244 248.59154 
L 242.081259 247.738654 
z
" clip-path="url(#p015d761a55)" style="stroke: #000000; stroke-linecap: round"/>
   </g>
   <g id="patch_22">
    <path d="M 272.726035 307.727545 
Q 257.671057 282.225915 243.18446 257.687064 
" clip-path="url(#p015d761a55)" style="fill: none; stroke: #000000; stroke-linecap: round"/>
    <path d="M 243.495687 262.148357 
L 243.18446 257.687064 
L 246.94023 260.114859 
L 243.495687 262.148357 
z
" clip-path="url(#p015d761a55)" style="stroke: #000000; stroke-linecap: round"/>
   </g>
   <g id="patch_23">
    <path d="M 190.55805 269.698088 
Q 215.164064 262.643706 238.695341 255.897445 
" clip-path="url(#p015d761a55)" style="fill: none; stroke: #000000; stroke-linecap: round"/>
    <path d="M 234.299058 255.07726 
L 238.695341 255.897445 
L 235.401423 258.922359 
L 234.299058 255.07726 
z
" clip-path="url(#p015d761a55)" style="stroke: #000000; stroke-linecap: round"/>
   </g>
   <g id="patch_24">
    <path d="M 247.223744 313.684337 
Q 244.519404 285.334443 241.921233 258.097529 
" clip-path="url(#p015d761a55)" style="fill: none; stroke: #000000; stroke-linecap: round"/>
    <path d="M 240.310113 262.269374 
L 241.921233 258.097529 
L 244.292037 261.889532 
L 240.310113 262.269374 
z
" clip-path="url(#p015d761a55)" style="stroke: #000000; stroke-linecap: round"/>
   </g>
   <g id="patch_25">
    <path d="M 172.859074 76.988829 
Q 168.383885 54.440389 164.126346 32.988592 
" clip-path="url(#p015d761a55)" style="fill: none; stroke: #000000; stroke-linecap: round"/>
    <path d="M 162.943301 37.301411 
L 164.126346 32.988592 
L 166.866774 36.522719 
L 162.943301 37.301411 
z
" clip-path="url(#p015d761a55)" style="stroke: #000000; stroke-linecap: round"/>
   </g>
   <g id="patch_26">
    <path d="M 174.103114 77.159876 
Q 184.417362 56.57021 194.230856 36.980168 
" clip-path="url(#p015d761a55)" style="fill: none; stroke: #000000; stroke-linecap: round"/>
    <path d="M 190.651124 39.660751 
L 194.230856 36.980168 
L 194.227483 41.452302 
L 190.651124 39.660751 
z
" clip-path="url(#p015d761a55)" style="stroke: #000000; stroke-linecap: round"/>
   </g>
   <g id="patch_27">
    <path d="M 172.903998 80.79918 
Q 166.307585 118.68505 159.90295 155.469457 
" clip-path="url(#p015d761a55)" style="fill: none; stroke: #000000; stroke-linecap: round"/>
    <path d="M 162.559436 151.871807 
L 159.90295 155.469457 
L 158.618721 151.185679 
L 162.559436 151.871807 
z
" clip-path="url(#p015d761a55)" style="stroke: #000000; stroke-linecap: round"/>
   </g>
   <g id="patch_28">
    <path d="M 68.060651 65.896051 
Q 80.746895 85.384977 92.8232 103.936901 
" clip-path="url(#p015d761a55)" style="fill: none; stroke: #000000; stroke-linecap: round"/>
    <path d="M 92.317179 99.493485 
L 92.8232 103.936901 
L 88.964855 101.675668 
L 92.317179 99.493485 
z
" clip-path="url(#p015d761a55)" style="stroke: #000000; stroke-linecap: round"/>
   </g>
   <g id="patch_29">
    <path d="M 159.710889 156.57254 
Q 166.307303 118.686669 172.711937 81.902262 
" clip-path="url(#p015d761a55)" style="fill: none; stroke: #000000; stroke-linecap: round"/>
    <path d="M 170.055452 85.499912 
L 172.711937 81.902262 
L 173.996166 86.18604 
L 170.055452 85.499912 
z
" clip-path="url(#p015d761a55)" style="stroke: #000000; stroke-linecap: round"/>
   </g>
   <g id="patch_30">
    <path d="M 157.474776 158.85284 
Q 124.950288 165.193871 93.523173 171.320957 
" clip-path="url(#p015d761a55)" style="fill: none; stroke: #000000; stroke-linecap: round"/>
    <path d="M 97.831971 172.518562 
L 93.523173 171.320957 
L 97.066535 168.592481 
L 97.831971 172.518562 
z
" clip-path="url(#p015d761a55)" style="stroke: #000000; stroke-linecap: round"/>
   </g>
   <g id="patch_31">
    <path d="M 158.221995 156.925515 
Q 147.564712 142.585018 137.574314 129.141885 
" clip-path="url(#p015d761a55)" style="fill: none; stroke: #000000; stroke-linecap: round"/>
    <path d="M 138.354982 133.545356 
L 137.574314 129.141885 
L 141.565492 131.159434 
L 138.354982 133.545356 
z
" clip-path="url(#p015d761a55)" style="stroke: #000000; stroke-linecap: round"/>
   </g>
   <g id="patch_32">
    <path d="M 157.514547 158.994428 
Q 141.331627 163.446088 126.226698 167.601209 
" clip-path="url(#p015d761a55)" style="fill: none; stroke: #000000; stroke-linecap: round"/>
    <path d="M 130.6139 168.468652 
L 126.226698 167.601209 
L 129.552974 164.611913 
L 130.6139 168.468652 
z
" clip-path="url(#p015d761a55)" style="stroke: #000000; stroke-linecap: round"/>
   </g>
   <g id="patch_33">
    <path d="M 160.310335 156.78641 
Q 168.755758 141.422017 176.662624 127.037398 
" clip-path="url(#p015d761a55)" style="fill: none; stroke: #000000; stroke-linecap: round"/>
    <path d="M 172.983151 129.579342 
L 176.662624 127.037398 
L 176.488495 131.506143 
L 172.983151 129.579342 
z
" clip-path="url(#p015d761a55)" style="stroke: #000000; stroke-linecap: round"/>
   </g>
   <g id="patch_34">
    <path d="M 157.867553 157.271232 
Q 126.934884 132.489999 96.874771 108.407799 
" clip-path="url(#p015d761a55)" style="fill: none; stroke: #000000; stroke-linecap: round"/>
    <path d="M 98.746048 112.469611 
L 96.874771 108.407799 
L 101.246987 109.347865 
L 98.746048 112.469611 
z
" clip-path="url(#p015d761a55)" style="stroke: #000000; stroke-linecap: round"/>
   </g>
   <g id="patch_35">
    <path d="M 160.636067 159.958241 
Q 200.506978 206.771321 239.652954 252.733242 
" clip-path="url(#p015d761a55)" style="fill: none; stroke: #000000; stroke-linecap: round"/>
    <path d="M 238.581945 248.391245 
L 239.652954 252.733242 
L 235.536751 250.984851 
L 238.581945 248.391245 
z
" clip-path="url(#p015d761a55)" style="stroke: #000000; stroke-linecap: round"/>
   </g>
   <g id="patch_36">
    <path d="M 92.4294 171.534201 
Q 124.953888 165.19317 156.381004 159.066084 
" clip-path="url(#p015d761a55)" style="fill: none; stroke: #000000; stroke-linecap: round"/>
    <path d="M 152.072205 157.868479 
L 156.381004 159.066084 
L 152.837641 161.79456 
L 152.072205 157.868479 
z
" clip-path="url(#p015d761a55)" style="stroke: #000000; stroke-linecap: round"/>
   </g>
   <g id="patch_37">
    <path d="M 88.622465 172.255686 
Q 65.256021 176.556842 42.989138 180.655597 
" clip-path="url(#p015d761a55)" style="fill: none; stroke: #000000; stroke-linecap: round"/>
    <path d="M 47.285111 181.89842 
L 42.989138 180.655597 
L 46.560981 177.964512 
L 47.285111 181.89842 
z
" clip-path="url(#p015d761a55)" style="stroke: #000000; stroke-linecap: round"/>
   </g>
   <g id="patch_38">
    <path d="M 41.890006 180.857918 
Q 65.256451 176.556763 87.523334 172.458008 
" clip-path="url(#p015d761a55)" style="fill: none; stroke: #000000; stroke-linecap: round"/>
    <path d="M 83.22736 171.215184 
L 87.523334 172.458008 
L 83.951491 175.149092 
L 83.22736 171.215184 
z
" clip-path="url(#p015d761a55)" style="stroke: #000000; stroke-linecap: round"/>
   </g>
   <g id="patch_39">
    <path d="M 136.909182 128.24688 
Q 147.566465 142.587377 157.556863 156.03051 
" clip-path="url(#p015d761a55)" style="fill: none; stroke: #000000; stroke-linecap: round"/>
    <path d="M 156.776196 151.627039 
L 157.556863 156.03051 
L 153.565686 154.012961 
L 156.776196 151.627039 
z
" clip-path="url(#p015d761a55)" style="stroke: #000000; stroke-linecap: round"/>
   </g>
   <g id="patch_40">
    <path d="M 125.144658 167.898861 
Q 141.327578 163.447201 156.432507 159.29208 
" clip-path="url(#p015d761a55)" style="fill: none; stroke: #000000; stroke-linecap: round"/>
    <path d="M 152.045305 158.424637 
L 156.432507 159.29208 
L 153.106231 162.281376 
L 152.045305 158.424637 
z
" clip-path="url(#p015d761a55)" style="stroke: #000000; stroke-linecap: round"/>
   </g>
   <g id="patch_41">
    <path d="M 177.202752 126.054766 
Q 168.757329 141.419159 160.850463 155.803778 
" clip-path="url(#p015d761a55)" style="fill: none; stroke: #000000; stroke-linecap: round"/>
    <path d="M 164.529936 153.261834 
L 160.850463 155.803778 
L 161.024591 151.335033 
L 164.529936 153.261834 
z
" clip-path="url(#p015d761a55)" style="stroke: #000000; stroke-linecap: round"/>
   </g>
   <g id="patch_42">
    <path d="M 92.679227 105.811781 
Q 70.294922 97.339331 48.956258 89.262655 
" clip-path="url(#p015d761a55)" style="fill: none; stroke: #000000; stroke-linecap: round"/>
    <path d="M 51.98927 92.549117 
L 48.956258 89.262655 
L 53.405235 88.808122 
L 51.98927 92.549117 
z
" clip-path="url(#p015d761a55)" style="stroke: #000000; stroke-linecap: round"/>
   </g>
   <g id="patch_43">
    <path d="M 93.43457 104.876104 
Q 80.748327 85.387178 68.672022 66.835254 
" clip-path="url(#p015d761a55)" style="fill: none; stroke: #000000; stroke-linecap: round"/>
    <path d="M 69.178043 71.27867 
L 68.672022 66.835254 
L 72.530367 69.096487 
L 69.178043 71.27867 
z
" clip-path="url(#p015d761a55)" style="stroke: #000000; stroke-linecap: round"/>
   </g>
   <g id="patch_44">
    <path d="M 96.000649 107.70751 
Q 126.933318 132.488743 156.993431 156.570943 
" clip-path="url(#p015d761a55)" style="fill: none; stroke: #000000; stroke-linecap: round"/>
    <path d="M 155.122154 152.509131 
L 156.993431 156.570943 
L 152.621215 155.630877 
L 155.122154 152.509131 
z
" clip-path="url(#p015d761a55)" style="stroke: #000000; stroke-linecap: round"/>
   </g>
   <g id="patch_45">
    <path d="M 239.778856 254.482288 
Q 221.042169 248.680872 203.373493 243.210144 
" clip-path="url(#p015d761a55)" style="fill: none; stroke: #000000; stroke-linecap: round"/>
    <path d="M 206.602973 246.303759 
L 203.373493 243.210144 
L 207.786074 242.482729 
L 206.602973 246.303759 
z
" clip-path="url(#p015d761a55)" style="stroke: #000000; stroke-linecap: round"/>
   </g>
   <g id="patch_46">
    <path d="M 243.494493 254.520843 
Q 286.99557 242.032653 329.422019 229.852964 
" clip-path="url(#p015d761a55)" style="fill: none; stroke: #000000; stroke-linecap: round"/>
    <path d="M 325.025446 229.03434 
L 329.422019 229.852964 
L 326.129176 232.879048 
L 325.025446 229.03434 
z
" clip-path="url(#p015d761a55)" style="stroke: #000000; stroke-linecap: round"/>
   </g>
   <g id="patch_47">
    <path d="M 243.53773 255.389576 
Q 267.618227 259.605221 290.597438 263.628069 
" clip-path="url(#p015d761a55)" style="fill: none; stroke: #000000; stroke-linecap: round"/>
    <path d="M 287.002243 260.968261 
L 290.597438 263.628069 
L 286.312475 264.90834 
L 287.002243 260.968261 
z
" clip-path="url(#p015d761a55)" style="stroke: #000000; stroke-linecap: round"/>
   </g>
   <g id="patch_48">
    <path d="M 242.648104 253.408853 
Q 254.009846 235.01007 264.784151 217.562559 
" clip-path="url(#p015d761a55)" style="fill: none; stroke: #000000; stroke-linecap: round"/>
    <path d="M 260.980789 219.915097 
L 264.784151 217.562559 
L 264.384164 222.016772 
L 260.980789 219.915097 
z
" clip-path="url(#p015d761a55)" style="stroke: #000000; stroke-linecap: round"/>
   </g>
   <g id="patch_49">
    <path d="M 243.226148 256.151397 
Q 265.784835 271.646319 287.421946 286.508236 
" clip-path="url(#p015d761a55)" style="fill: none; stroke: #000000; stroke-linecap: round"/>
    <path d="M 285.257166 282.59496 
L 287.421946 286.508236 
L 282.992458 285.892095 
L 285.257166 282.59496 
z
" clip-path="url(#p015d761a55)" style="stroke: #000000; stroke-linecap: round"/>
   </g>
   <g id="patch_50">
    <path d="M 240.265438 256.429659 
Q 219.651648 277.1677 199.826048 297.112799 
" clip-path="url(#p015d761a55)" style="fill: none; stroke: #000000; stroke-linecap: round"/>
    <path d="M 204.06442 295.685844 
L 199.826048 297.112799 
L 201.227507 292.865929 
L 204.06442 295.685844 
z
" clip-path="url(#p015d761a55)" style="stroke: #000000; stroke-linecap: round"/>
   </g>
   <g id="patch_51">
    <path d="M 240.407063 256.5524 
Q 229.491802 269.898567 219.284354 282.379287 
" clip-path="url(#p015d761a55)" style="fill: none; stroke: #000000; stroke-linecap: round"/>
    <path d="M 223.364864 280.54914 
L 219.284354 282.379287 
L 220.268542 278.01679 
L 223.364864 280.54914 
z
" clip-path="url(#p015d761a55)" style="stroke: #000000; stroke-linecap: round"/>
   </g>
   <g id="patch_52">
    <path d="M 243.431392 254.348297 
Q 262.550121 246.834983 280.628281 239.730593 
" clip-path="url(#p015d761a55)" style="fill: none; stroke: #000000; stroke-linecap: round"/>
    <path d="M 276.173928 239.332181 
L 280.628281 239.730593 
L 277.63694 243.055028 
L 276.173928 239.332181 
z
" clip-path="url(#p015d761a55)" style="stroke: #000000; stroke-linecap: round"/>
   </g>
   <g id="patch_53">
    <path d="M 242.512408 256.776397 
Q 250.204552 271.793652 257.386991 285.815818 
" clip-path="url(#p015d761a55)" style="fill: none; stroke: #000000; stroke-linecap: round"/>
    <path d="M 257.343485 281.343894 
L 257.386991 285.815818 
L 253.783348 283.167469 
L 257.343485 281.343894 
z
" clip-path="url(#p015d761a55)" style="stroke: #000000; stroke-linecap: round"/>
   </g>
   <g id="patch_54">
    <path d="M 241.039868 256.898278 
Q 232.4063 283.804593 224.114327 309.646336 
" clip-path="url(#p015d761a55)" style="fill: none; stroke: #000000; stroke-linecap: round"/>
    <path d="M 227.240817 306.448671 
L 224.114327 309.646336 
L 223.432089 305.226545 
L 227.240817 306.448671 
z
" clip-path="url(#p015d761a55)" style="stroke: #000000; stroke-linecap: round"/>
   </g>
   <g id="patch_55">
    <path d="M 241.217696 253.161632 
Q 237.429152 235.802115 233.878997 219.534922 
" clip-path="url(#p015d761a55)" style="fill: none; stroke: #000000; stroke-linecap: round"/>
    <path d="M 232.777876 223.86938 
L 233.878997 219.534922 
L 236.685891 223.016494 
L 232.777876 223.86938 
z
" clip-path="url(#p015d761a55)" style="stroke: #000000; stroke-linecap: round"/>
   </g>
   <g id="patch_56">
    <path d="M 242.61595 256.724065 
Q 257.670928 282.225695 272.157525 306.764546 
" clip-path="url(#p015d761a55)" style="fill: none; stroke: #000000; stroke-linecap: round"/>
    <path d="M 271.846298 302.303253 
L 272.157525 306.764546 
L 268.401754 304.336751 
L 271.846298 302.303253 
z
" clip-path="url(#p015d761a55)" style="stroke: #000000; stroke-linecap: round"/>
   </g>
   <g id="patch_57">
    <path d="M 239.766768 255.590274 
Q 215.160753 262.644655 191.629477 269.390916 
" clip-path="url(#p015d761a55)" style="fill: none; stroke: #000000; stroke-linecap: round"/>
    <path d="M 196.025759 270.211102 
L 191.629477 269.390916 
L 194.923395 266.366002 
L 196.025759 270.211102 
z
" clip-path="url(#p015d761a55)" style="stroke: #000000; stroke-linecap: round"/>
   </g>
   <g id="patch_58">
    <path d="M 241.814761 256.981368 
Q 244.519101 285.331263 247.117272 312.568177 
" clip-path="url(#p015d761a55)" style="fill: none; stroke: #000000; stroke-linecap: round"/>
    <path d="M 248.728392 308.396332 
L 247.117272 312.568177 
L 244.746468 308.776173 
L 248.728392 308.396332 
z
" clip-path="url(#p015d761a55)" style="stroke: #000000; stroke-linecap: round"/>
   </g>
   <g id="patch_59">
    <path d="M 240.373492 253.579238 
Q 200.502581 206.766158 161.356605 160.804236 
" clip-path="url(#p015d761a55)" style="fill: none; stroke: #000000; stroke-linecap: round"/>
    <path d="M 162.427613 165.146234 
L 161.356605 160.804236 
L 165.472808 162.552628 
L 162.427613 165.146234 
z
" clip-path="url(#p015d761a55)" style="stroke: #000000; stroke-linecap: round"/>
   </g>
   <g id="PathCollection_1">
    <defs>
     <path id="m9bd95d17a8" d="M 0 1.936492 
C 0.513564 1.936492 1.006162 1.732451 1.369306 1.369306 
C 1.732451 1.006162 1.936492 0.513564 1.936492 0 
C 1.936492 -0.513564 1.732451 -1.006162 1.369306 -1.369306 
C 1.006162 -1.732451 0.513564 -1.936492 0 -1.936492 
C -0.513564 -1.936492 -1.006162 -1.732451 -1.369306 -1.369306 
C -1.732451 -1.006162 -1.936492 -0.513564 -1.936492 0 
C -1.936492 0.513564 -1.732451 1.006162 -1.369306 1.369306 
C -1.006162 1.732451 -0.513564 1.936492 0 1.936492 
z
" style="stroke: #1f78b4"/>
    </defs>
    <g clip-path="url(#p015d761a55)">
     <use xlink:href="#m9bd95d17a8" x="163.531232" y="29.990083" style="fill: #1f78b4; stroke: #1f78b4"/>
     <use xlink:href="#m9bd95d17a8" x="195.598838" y="34.249353" style="fill: #1f78b4; stroke: #1f78b4"/>
     <use xlink:href="#m9bd95d17a8" x="46.099632" y="88.181423" style="fill: #1f78b4; stroke: #1f78b4"/>
     <use xlink:href="#m9bd95d17a8" x="200.454975" y="242.306487" style="fill: #1f78b4; stroke: #1f78b4"/>
     <use xlink:href="#m9bd95d17a8" x="420.813223" y="160.095097" style="fill: #1f78b4; stroke: #1f78b4"/>
     <use xlink:href="#m9bd95d17a8" x="383.458315" y="239.134389" style="fill: #1f78b4; stroke: #1f78b4"/>
     <use xlink:href="#m9bd95d17a8" x="332.359759" y="229.009604" style="fill: #1f78b4; stroke: #1f78b4"/>
     <use xlink:href="#m9bd95d17a8" x="386.602242" y="192.28941" style="fill: #1f78b4; stroke: #1f78b4"/>
     <use xlink:href="#m9bd95d17a8" x="293.608782" y="264.155249" style="fill: #1f78b4; stroke: #1f78b4"/>
     <use xlink:href="#m9bd95d17a8" x="266.390311" y="214.961604" style="fill: #1f78b4; stroke: #1f78b4"/>
     <use xlink:href="#m9bd95d17a8" x="289.937243" y="288.235922" style="fill: #1f78b4; stroke: #1f78b4"/>
     <use xlink:href="#m9bd95d17a8" x="197.67305" y="299.278774" style="fill: #1f78b4; stroke: #1f78b4"/>
     <use xlink:href="#m9bd95d17a8" x="217.35232" y="284.741598" style="fill: #1f78b4; stroke: #1f78b4"/>
     <use xlink:href="#m9bd95d17a8" x="283.469898" y="238.613889" style="fill: #1f78b4; stroke: #1f78b4"/>
     <use xlink:href="#m9bd95d17a8" x="258.780394" y="288.536137" style="fill: #1f78b4; stroke: #1f78b4"/>
     <use xlink:href="#m9bd95d17a8" x="223.180847" y="312.555504" style="fill: #1f78b4; stroke: #1f78b4"/>
     <use xlink:href="#m9bd95d17a8" x="233.228058" y="216.552245" style="fill: #1f78b4; stroke: #1f78b4"/>
     <use xlink:href="#m9bd95d17a8" x="273.710908" y="309.395821" style="fill: #1f78b4; stroke: #1f78b4"/>
     <use xlink:href="#m9bd95d17a8" x="188.693741" y="270.232573" style="fill: #1f78b4; stroke: #1f78b4"/>
     <use xlink:href="#m9bd95d17a8" x="247.407428" y="315.609917" style="fill: #1f78b4; stroke: #1f78b4"/>
     <use xlink:href="#m9bd95d17a8" x="173.236406" y="78.890029" style="fill: #1f78b4; stroke: #1f78b4"/>
     <use xlink:href="#m9bd95d17a8" x="67.005501" y="64.275103" style="fill: #1f78b4; stroke: #1f78b4"/>
     <use xlink:href="#m9bd95d17a8" x="159.378482" y="158.48169" style="fill: #1f78b4; stroke: #1f78b4"/>
     <use xlink:href="#m9bd95d17a8" x="90.525695" y="171.905351" style="fill: #1f78b4; stroke: #1f78b4"/>
     <use xlink:href="#m9bd95d17a8" x="39.986777" y="181.208253" style="fill: #1f78b4; stroke: #1f78b4"/>
     <use xlink:href="#m9bd95d17a8" x="135.752696" y="126.690705" style="fill: #1f78b4; stroke: #1f78b4"/>
     <use xlink:href="#m9bd95d17a8" x="123.280723" y="168.411599" style="fill: #1f78b4; stroke: #1f78b4"/>
     <use xlink:href="#m9bd95d17a8" x="178.134605" y="124.359486" style="fill: #1f78b4; stroke: #1f78b4"/>
     <use xlink:href="#m9bd95d17a8" x="94.48972" y="106.497052" style="fill: #1f78b4; stroke: #1f78b4"/>
     <use xlink:href="#m9bd95d17a8" x="241.631077" y="255.055789" style="fill: #1f78b4; stroke: #1f78b4"/>
    </g>
   </g>
   <g id="text_1">
    <g clip-path="url(#p015d761a55)">
     <!-- 0 -->
     <g transform="translate(160.349982 32.749458) scale(0.1 -0.1)">
      <defs>
       <path id="DejaVuSans-30" d="M 2034 4250 
Q 1547 4250 1301 3770 
Q 1056 3291 1056 2328 
Q 1056 1369 1301 889 
Q 1547 409 2034 409 
Q 2525 409 2770 889 
Q 3016 1369 3016 2328 
Q 3016 3291 2770 3770 
Q 2525 4250 2034 4250 
z
M 2034 4750 
Q 2819 4750 3233 4129 
Q 3647 3509 3647 2328 
Q 3647 1150 3233 529 
Q 2819 -91 2034 -91 
Q 1250 -91 836 529 
Q 422 1150 422 2328 
Q 422 3509 836 4129 
Q 1250 4750 2034 4750 
z
" transform="scale(0.015625)"/>
      </defs>
      <use xlink:href="#DejaVuSans-30"/>
     </g>
    </g>
   </g>
   <g id="text_2">
    <g clip-path="url(#p015d761a55)">
     <!-- 1 -->
     <g transform="translate(192.417588 37.008728) scale(0.1 -0.1)">
      <defs>
       <path id="DejaVuSans-31" d="M 794 531 
L 1825 531 
L 1825 4091 
L 703 3866 
L 703 4441 
L 1819 4666 
L 2450 4666 
L 2450 531 
L 3481 531 
L 3481 0 
L 794 0 
L 794 531 
z
" transform="scale(0.015625)"/>
      </defs>
      <use xlink:href="#DejaVuSans-31"/>
     </g>
    </g>
   </g>
   <g id="text_3">
    <g clip-path="url(#p015d761a55)">
     <!-- 2 -->
     <g transform="translate(42.918382 90.940798) scale(0.1 -0.1)">
      <defs>
       <path id="DejaVuSans-32" d="M 1228 531 
L 3431 531 
L 3431 0 
L 469 0 
L 469 531 
Q 828 903 1448 1529 
Q 2069 2156 2228 2338 
Q 2531 2678 2651 2914 
Q 2772 3150 2772 3378 
Q 2772 3750 2511 3984 
Q 2250 4219 1831 4219 
Q 1534 4219 1204 4116 
Q 875 4013 500 3803 
L 500 4441 
Q 881 4594 1212 4672 
Q 1544 4750 1819 4750 
Q 2544 4750 2975 4387 
Q 3406 4025 3406 3419 
Q 3406 3131 3298 2873 
Q 3191 2616 2906 2266 
Q 2828 2175 2409 1742 
Q 1991 1309 1228 531 
z
" transform="scale(0.015625)"/>
      </defs>
      <use xlink:href="#DejaVuSans-32"/>
     </g>
    </g>
   </g>
   <g id="text_4">
    <g clip-path="url(#p015d761a55)">
     <!-- 3 -->
     <g transform="translate(197.273725 245.065862) scale(0.1 -0.1)">
      <defs>
       <path id="DejaVuSans-33" d="M 2597 2516 
Q 3050 2419 3304 2112 
Q 3559 1806 3559 1356 
Q 3559 666 3084 287 
Q 2609 -91 1734 -91 
Q 1441 -91 1130 -33 
Q 819 25 488 141 
L 488 750 
Q 750 597 1062 519 
Q 1375 441 1716 441 
Q 2309 441 2620 675 
Q 2931 909 2931 1356 
Q 2931 1769 2642 2001 
Q 2353 2234 1838 2234 
L 1294 2234 
L 1294 2753 
L 1863 2753 
Q 2328 2753 2575 2939 
Q 2822 3125 2822 3475 
Q 2822 3834 2567 4026 
Q 2313 4219 1838 4219 
Q 1578 4219 1281 4162 
Q 984 4106 628 3988 
L 628 4550 
Q 988 4650 1302 4700 
Q 1616 4750 1894 4750 
Q 2613 4750 3031 4423 
Q 3450 4097 3450 3541 
Q 3450 3153 3228 2886 
Q 3006 2619 2597 2516 
z
" transform="scale(0.015625)"/>
      </defs>
      <use xlink:href="#DejaVuSans-33"/>
     </g>
    </g>
   </g>
   <g id="text_5">
    <g clip-path="url(#p015d761a55)">
     <!-- 4 -->
     <g transform="translate(417.631973 162.854472) scale(0.1 -0.1)">
      <defs>
       <path id="DejaVuSans-34" d="M 2419 4116 
L 825 1625 
L 2419 1625 
L 2419 4116 
z
M 2253 4666 
L 3047 4666 
L 3047 1625 
L 3713 1625 
L 3713 1100 
L 3047 1100 
L 3047 0 
L 2419 0 
L 2419 1100 
L 313 1100 
L 313 1709 
L 2253 4666 
z
" transform="scale(0.015625)"/>
      </defs>
      <use xlink:href="#DejaVuSans-34"/>
     </g>
    </g>
   </g>
   <g id="text_6">
    <g clip-path="url(#p015d761a55)">
     <!-- 5 -->
     <g transform="translate(380.277065 241.893764) scale(0.1 -0.1)">
      <defs>
       <path id="DejaVuSans-35" d="M 691 4666 
L 3169 4666 
L 3169 4134 
L 1269 4134 
L 1269 2991 
Q 1406 3038 1543 3061 
Q 1681 3084 1819 3084 
Q 2600 3084 3056 2656 
Q 3513 2228 3513 1497 
Q 3513 744 3044 326 
Q 2575 -91 1722 -91 
Q 1428 -91 1123 -41 
Q 819 9 494 109 
L 494 744 
Q 775 591 1075 516 
Q 1375 441 1709 441 
Q 2250 441 2565 725 
Q 2881 1009 2881 1497 
Q 2881 1984 2565 2268 
Q 2250 2553 1709 2553 
Q 1456 2553 1204 2497 
Q 953 2441 691 2322 
L 691 4666 
z
" transform="scale(0.015625)"/>
      </defs>
      <use xlink:href="#DejaVuSans-35"/>
     </g>
    </g>
   </g>
   <g id="text_7">
    <g clip-path="url(#p015d761a55)">
     <!-- 6 -->
     <g transform="translate(329.178509 231.768979) scale(0.1 -0.1)">
      <defs>
       <path id="DejaVuSans-36" d="M 2113 2584 
Q 1688 2584 1439 2293 
Q 1191 2003 1191 1497 
Q 1191 994 1439 701 
Q 1688 409 2113 409 
Q 2538 409 2786 701 
Q 3034 994 3034 1497 
Q 3034 2003 2786 2293 
Q 2538 2584 2113 2584 
z
M 3366 4563 
L 3366 3988 
Q 3128 4100 2886 4159 
Q 2644 4219 2406 4219 
Q 1781 4219 1451 3797 
Q 1122 3375 1075 2522 
Q 1259 2794 1537 2939 
Q 1816 3084 2150 3084 
Q 2853 3084 3261 2657 
Q 3669 2231 3669 1497 
Q 3669 778 3244 343 
Q 2819 -91 2113 -91 
Q 1303 -91 875 529 
Q 447 1150 447 2328 
Q 447 3434 972 4092 
Q 1497 4750 2381 4750 
Q 2619 4750 2861 4703 
Q 3103 4656 3366 4563 
z
" transform="scale(0.015625)"/>
      </defs>
      <use xlink:href="#DejaVuSans-36"/>
     </g>
    </g>
   </g>
   <g id="text_8">
    <g clip-path="url(#p015d761a55)">
     <!-- 7 -->
     <g transform="translate(383.420992 195.048785) scale(0.1 -0.1)">
      <defs>
       <path id="DejaVuSans-37" d="M 525 4666 
L 3525 4666 
L 3525 4397 
L 1831 0 
L 1172 0 
L 2766 4134 
L 525 4134 
L 525 4666 
z
" transform="scale(0.015625)"/>
      </defs>
      <use xlink:href="#DejaVuSans-37"/>
     </g>
    </g>
   </g>
   <g id="text_9">
    <g clip-path="url(#p015d761a55)">
     <!-- 8 -->
     <g transform="translate(290.427532 266.914624) scale(0.1 -0.1)">
      <defs>
       <path id="DejaVuSans-38" d="M 2034 2216 
Q 1584 2216 1326 1975 
Q 1069 1734 1069 1313 
Q 1069 891 1326 650 
Q 1584 409 2034 409 
Q 2484 409 2743 651 
Q 3003 894 3003 1313 
Q 3003 1734 2745 1975 
Q 2488 2216 2034 2216 
z
M 1403 2484 
Q 997 2584 770 2862 
Q 544 3141 544 3541 
Q 544 4100 942 4425 
Q 1341 4750 2034 4750 
Q 2731 4750 3128 4425 
Q 3525 4100 3525 3541 
Q 3525 3141 3298 2862 
Q 3072 2584 2669 2484 
Q 3125 2378 3379 2068 
Q 3634 1759 3634 1313 
Q 3634 634 3220 271 
Q 2806 -91 2034 -91 
Q 1263 -91 848 271 
Q 434 634 434 1313 
Q 434 1759 690 2068 
Q 947 2378 1403 2484 
z
M 1172 3481 
Q 1172 3119 1398 2916 
Q 1625 2713 2034 2713 
Q 2441 2713 2670 2916 
Q 2900 3119 2900 3481 
Q 2900 3844 2670 4047 
Q 2441 4250 2034 4250 
Q 1625 4250 1398 4047 
Q 1172 3844 1172 3481 
z
" transform="scale(0.015625)"/>
      </defs>
      <use xlink:href="#DejaVuSans-38"/>
     </g>
    </g>
   </g>
   <g id="text_10">
    <g clip-path="url(#p015d761a55)">
     <!-- 9 -->
     <g transform="translate(263.209061 217.720979) scale(0.1 -0.1)">
      <defs>
       <path id="DejaVuSans-39" d="M 703 97 
L 703 672 
Q 941 559 1184 500 
Q 1428 441 1663 441 
Q 2288 441 2617 861 
Q 2947 1281 2994 2138 
Q 2813 1869 2534 1725 
Q 2256 1581 1919 1581 
Q 1219 1581 811 2004 
Q 403 2428 403 3163 
Q 403 3881 828 4315 
Q 1253 4750 1959 4750 
Q 2769 4750 3195 4129 
Q 3622 3509 3622 2328 
Q 3622 1225 3098 567 
Q 2575 -91 1691 -91 
Q 1453 -91 1209 -44 
Q 966 3 703 97 
z
M 1959 2075 
Q 2384 2075 2632 2365 
Q 2881 2656 2881 3163 
Q 2881 3666 2632 3958 
Q 2384 4250 1959 4250 
Q 1534 4250 1286 3958 
Q 1038 3666 1038 3163 
Q 1038 2656 1286 2365 
Q 1534 2075 1959 2075 
z
" transform="scale(0.015625)"/>
      </defs>
      <use xlink:href="#DejaVuSans-39"/>
     </g>
    </g>
   </g>
   <g id="text_11">
    <g clip-path="url(#p015d761a55)">
     <!-- 10 -->
     <g transform="translate(283.574743 290.995297) scale(0.1 -0.1)">
      <use xlink:href="#DejaVuSans-31"/>
      <use xlink:href="#DejaVuSans-30" x="63.623047"/>
     </g>
    </g>
   </g>
   <g id="text_12">
    <g clip-path="url(#p015d761a55)">
     <!-- 11 -->
     <g transform="translate(191.31055 302.038149) scale(0.1 -0.1)">
      <use xlink:href="#DejaVuSans-31"/>
      <use xlink:href="#DejaVuSans-31" x="63.623047"/>
     </g>
    </g>
   </g>
   <g id="text_13">
    <g clip-path="url(#p015d761a55)">
     <!-- 12 -->
     <g transform="translate(210.98982 287.500973) scale(0.1 -0.1)">
      <use xlink:href="#DejaVuSans-31"/>
      <use xlink:href="#DejaVuSans-32" x="63.623047"/>
     </g>
    </g>
   </g>
   <g id="text_14">
    <g clip-path="url(#p015d761a55)">
     <!-- 13 -->
     <g transform="translate(277.107398 241.373264) scale(0.1 -0.1)">
      <use xlink:href="#DejaVuSans-31"/>
      <use xlink:href="#DejaVuSans-33" x="63.623047"/>
     </g>
    </g>
   </g>
   <g id="text_15">
    <g clip-path="url(#p015d761a55)">
     <!-- 14 -->
     <g transform="translate(252.417894 291.295512) scale(0.1 -0.1)">
      <use xlink:href="#DejaVuSans-31"/>
      <use xlink:href="#DejaVuSans-34" x="63.623047"/>
     </g>
    </g>
   </g>
   <g id="text_16">
    <g clip-path="url(#p015d761a55)">
     <!-- 15 -->
     <g transform="translate(216.818347 315.314879) scale(0.1 -0.1)">
      <use xlink:href="#DejaVuSans-31"/>
      <use xlink:href="#DejaVuSans-35" x="63.623047"/>
     </g>
    </g>
   </g>
   <g id="text_17">
    <g clip-path="url(#p015d761a55)">
     <!-- 16 -->
     <g transform="translate(226.865558 219.31162) scale(0.1 -0.1)">
      <use xlink:href="#DejaVuSans-31"/>
      <use xlink:href="#DejaVuSans-36" x="63.623047"/>
     </g>
    </g>
   </g>
   <g id="text_18">
    <g clip-path="url(#p015d761a55)">
     <!-- 17 -->
     <g transform="translate(267.348408 312.155196) scale(0.1 -0.1)">
      <use xlink:href="#DejaVuSans-31"/>
      <use xlink:href="#DejaVuSans-37" x="63.623047"/>
     </g>
    </g>
   </g>
   <g id="text_19">
    <g clip-path="url(#p015d761a55)">
     <!-- 18 -->
     <g transform="translate(182.331241 272.991948) scale(0.1 -0.1)">
      <use xlink:href="#DejaVuSans-31"/>
      <use xlink:href="#DejaVuSans-38" x="63.623047"/>
     </g>
    </g>
   </g>
   <g id="text_20">
    <g clip-path="url(#p015d761a55)">
     <!-- 19 -->
     <g transform="translate(241.044928 318.369292) scale(0.1 -0.1)">
      <use xlink:href="#DejaVuSans-31"/>
      <use xlink:href="#DejaVuSans-39" x="63.623047"/>
     </g>
    </g>
   </g>
   <g id="text_21">
    <g clip-path="url(#p015d761a55)">
     <!-- 20 -->
     <g transform="translate(166.873906 81.649404) scale(0.1 -0.1)">
      <use xlink:href="#DejaVuSans-32"/>
      <use xlink:href="#DejaVuSans-30" x="63.623047"/>
     </g>
    </g>
   </g>
   <g id="text_22">
    <g clip-path="url(#p015d761a55)">
     <!-- 21 -->
     <g transform="translate(60.643001 67.034478) scale(0.1 -0.1)">
      <use xlink:href="#DejaVuSans-32"/>
      <use xlink:href="#DejaVuSans-31" x="63.623047"/>
     </g>
    </g>
   </g>
   <g id="text_23">
    <g clip-path="url(#p015d761a55)">
     <!-- 22 -->
     <g transform="translate(153.015982 161.241065) scale(0.1 -0.1)">
      <use xlink:href="#DejaVuSans-32"/>
      <use xlink:href="#DejaVuSans-32" x="63.623047"/>
     </g>
    </g>
   </g>
   <g id="text_24">
    <g clip-path="url(#p015d761a55)">
     <!-- 23 -->
     <g transform="translate(84.163195 174.664726) scale(0.1 -0.1)">
      <use xlink:href="#DejaVuSans-32"/>
      <use xlink:href="#DejaVuSans-33" x="63.623047"/>
     </g>
    </g>
   </g>
   <g id="text_25">
    <g clip-path="url(#p015d761a55)">
     <!-- 24 -->
     <g transform="translate(33.624277 183.967628) scale(0.1 -0.1)">
      <use xlink:href="#DejaVuSans-32"/>
      <use xlink:href="#DejaVuSans-34" x="63.623047"/>
     </g>
    </g>
   </g>
   <g id="text_26">
    <g clip-path="url(#p015d761a55)">
     <!-- 25 -->
     <g transform="translate(129.390196 129.45008) scale(0.1 -0.1)">
      <use xlink:href="#DejaVuSans-32"/>
      <use xlink:href="#DejaVuSans-35" x="63.623047"/>
     </g>
    </g>
   </g>
   <g id="text_27">
    <g clip-path="url(#p015d761a55)">
     <!-- 26 -->
     <g transform="translate(116.918223 171.170974) scale(0.1 -0.1)">
      <use xlink:href="#DejaVuSans-32"/>
      <use xlink:href="#DejaVuSans-36" x="63.623047"/>
     </g>
    </g>
   </g>
   <g id="text_28">
    <g clip-path="url(#p015d761a55)">
     <!-- 27 -->
     <g transform="translate(171.772105 127.118861) scale(0.1 -0.1)">
      <use xlink:href="#DejaVuSans-32"/>
      <use xlink:href="#DejaVuSans-37" x="63.623047"/>
     </g>
    </g>
   </g>
   <g id="text_29">
    <g clip-path="url(#p015d761a55)">
     <!-- 28 -->
     <g transform="translate(88.12722 109.256427) scale(0.1 -0.1)">
      <use xlink:href="#DejaVuSans-32"/>
      <use xlink:href="#DejaVuSans-38" x="63.623047"/>
     </g>
    </g>
   </g>
   <g id="text_30">
    <g clip-path="url(#p015d761a55)">
     <!-- 29 -->
     <g transform="translate(235.268577 257.815164) scale(0.1 -0.1)">
      <use xlink:href="#DejaVuSans-32"/>
      <use xlink:href="#DejaVuSans-39" x="63.623047"/>
     </g>
    </g>
   </g>
  </g>
 </g>
 <defs>
  <clipPath id="p015d761a55">
   <rect x="0" y="0" width="460.8" height="345.6"/>
  </clipPath>
 </defs>
</svg>
