<?xml version="1.0" encoding="utf-8" standalone="no"?>
<!DOCTYPE svg PUBLIC "-//W3C//DTD SVG 1.1//EN"
  "http://www.w3.org/Graphics/SVG/1.1/DTD/svg11.dtd">
<svg xmlns:xlink="http://www.w3.org/1999/xlink" width="460.8pt" height="345.6pt" viewBox="0 0 460.8 345.6" xmlns="http://www.w3.org/2000/svg" version="1.1">
 <metadata>
  <rdf:RDF xmlns:dc="http://purl.org/dc/elements/1.1/" xmlns:cc="http://creativecommons.org/ns#" xmlns:rdf="http://www.w3.org/1999/02/22-rdf-syntax-ns#">
   <cc:Work>
    <dc:type rdf:resource="http://purl.org/dc/dcmitype/StillImage"/>
    <dc:date>2023-10-10T10:55:59.499009</dc:date>
    <dc:format>image/svg+xml</dc:format>
    <dc:creator>
     <cc:Agent>
      <dc:title>Matplotlib v3.6.1, https://matplotlib.org/</dc:title>
     </cc:Agent>
    </dc:creator>
   </cc:Work>
  </rdf:RDF>
 </metadata>
 <defs>
  <style type="text/css">*{stroke-linejoin: round; stroke-linecap: butt}</style>
 </defs>
 <g id="figure_1">
  <g id="patch_1">
   <path d="M 0 345.6 
L 460.8 345.6 
L 460.8 0 
L 0 0 
z
" style="fill: #ffffff"/>
  </g>
  <g id="axes_1">
   <g id="patch_2">
    <path d="M 390.758256 135.695261 
Q 366.440141 124.504873 343.137684 113.781857 
" clip-path="url(#p7bbf5e98e2)" style="fill: none; stroke: #000000; stroke-linecap: round"/>
    <path d="M 345.935354 117.270845 
L 343.137684 113.781857 
L 347.607477 113.637114 
L 345.935354 117.270845 
z
" clip-path="url(#p7bbf5e98e2)" style="stroke: #000000; stroke-linecap: round"/>
   </g>
   <g id="patch_3">
    <path d="M 393.228139 138.309665 
Q 402.12755 160.939211 410.617782 182.52829 
" clip-path="url(#p7bbf5e98e2)" style="fill: none; stroke: #000000; stroke-linecap: round"/>
    <path d="M 411.015101 178.073839 
L 410.617782 182.52829 
L 407.292612 179.537764 
L 411.015101 178.073839 
z
" clip-path="url(#p7bbf5e98e2)" style="stroke: #000000; stroke-linecap: round"/>
   </g>
   <g id="patch_4">
    <path d="M 266.966103 166.761715 
Q 275.81173 147.031056 284.199983 128.320597 
" clip-path="url(#p7bbf5e98e2)" style="fill: none; stroke: #000000; stroke-linecap: round"/>
    <path d="M 280.73864 131.152399 
L 284.199983 128.320597 
L 284.388618 132.788753 
L 280.73864 131.152399 
z
" clip-path="url(#p7bbf5e98e2)" style="stroke: #000000; stroke-linecap: round"/>
   </g>
   <g id="patch_5">
    <path d="M 267.145934 170.204669 
Q 279.826765 192.08865 291.947051 213.005268 
" clip-path="url(#p7bbf5e98e2)" style="fill: none; stroke: #000000; stroke-linecap: round"/>
    <path d="M 291.672054 208.541595 
L 291.947051 213.005268 
L 288.211115 210.547062 
L 291.672054 208.541595 
z
" clip-path="url(#p7bbf5e98e2)" style="stroke: #000000; stroke-linecap: round"/>
   </g>
   <g id="patch_6">
    <path d="M 284.65868 127.29745 
Q 275.813052 147.028109 267.424799 165.738568 
" clip-path="url(#p7bbf5e98e2)" style="fill: none; stroke: #000000; stroke-linecap: round"/>
    <path d="M 270.886143 162.906766 
L 267.424799 165.738568 
L 267.236164 161.270412 
L 270.886143 162.906766 
z
" clip-path="url(#p7bbf5e98e2)" style="stroke: #000000; stroke-linecap: round"/>
   </g>
   <g id="patch_7">
    <path d="M 287.337524 125.08372 
Q 312.908193 119.018796 337.391008 113.211893 
" clip-path="url(#p7bbf5e98e2)" style="fill: none; stroke: #000000; stroke-linecap: round"/>
    <path d="M 333.037424 112.189003 
L 337.391008 113.211893 
L 333.960545 116.081026 
L 333.037424 112.189003 
z
" clip-path="url(#p7bbf5e98e2)" style="stroke: #000000; stroke-linecap: round"/>
   </g>
   <g id="patch_8">
    <path d="M 342.126076 113.316349 
Q 366.444192 124.506737 389.746648 135.229753 
" clip-path="url(#p7bbf5e98e2)" style="fill: none; stroke: #000000; stroke-linecap: round"/>
    <path d="M 386.948978 131.740765 
L 389.746648 135.229753 
L 385.276855 135.374496 
L 386.948978 131.740765 
z
" clip-path="url(#p7bbf5e98e2)" style="stroke: #000000; stroke-linecap: round"/>
   </g>
   <g id="patch_9">
    <path d="M 338.47875 112.9539 
Q 312.908081 119.018823 288.425266 124.825726 
" clip-path="url(#p7bbf5e98e2)" style="fill: none; stroke: #000000; stroke-linecap: round"/>
    <path d="M 292.77885 125.848617 
L 288.425266 124.825726 
L 291.855729 121.956593 
L 292.77885 125.848617 
z
" clip-path="url(#p7bbf5e98e2)" style="stroke: #000000; stroke-linecap: round"/>
   </g>
   <g id="patch_10">
    <path d="M 361.763394 202.162447 
Q 385.832765 194.07407 408.842342 186.341832 
" clip-path="url(#p7bbf5e98e2)" style="fill: none; stroke: #000000; stroke-linecap: round"/>
    <path d="M 404.413624 185.720171 
L 408.842342 186.341832 
L 405.687783 189.511809 
L 404.413624 185.720171 
z
" clip-path="url(#p7bbf5e98e2)" style="stroke: #000000; stroke-linecap: round"/>
   </g>
   <g id="patch_11">
    <path d="M 358.024118 203.148273 
Q 326.703446 209.215242 296.480405 215.069595 
" clip-path="url(#p7bbf5e98e2)" style="fill: none; stroke: #000000; stroke-linecap: round"/>
    <path d="M 300.78775 216.272417 
L 296.480405 215.069595 
L 300.02707 212.345413 
L 300.78775 216.272417 
z
" clip-path="url(#p7bbf5e98e2)" style="stroke: #000000; stroke-linecap: round"/>
   </g>
   <g id="patch_12">
    <path d="M 292.508382 213.973988 
Q 279.827552 192.090007 267.707266 171.173388 
" clip-path="url(#p7bbf5e98e2)" style="fill: none; stroke: #000000; stroke-linecap: round"/>
    <path d="M 267.982262 175.637061 
L 267.707266 171.173388 
L 271.443202 173.631595 
L 267.982262 175.637061 
z
" clip-path="url(#p7bbf5e98e2)" style="stroke: #000000; stroke-linecap: round"/>
   </g>
   <g id="patch_13">
    <path d="M 295.382069 215.282348 
Q 326.702741 209.215379 356.925782 203.361026 
" clip-path="url(#p7bbf5e98e2)" style="fill: none; stroke: #000000; stroke-linecap: round"/>
    <path d="M 352.618437 202.158204 
L 356.925782 203.361026 
L 353.379117 206.085208 
L 352.618437 202.158204 
z
" clip-path="url(#p7bbf5e98e2)" style="stroke: #000000; stroke-linecap: round"/>
   </g>
   <g id="patch_14">
    <path d="M 293.800477 217.563759 
Q 298.014402 242.718485 302.043607 266.770541 
" clip-path="url(#p7bbf5e98e2)" style="fill: none; stroke: #000000; stroke-linecap: round"/>
    <path d="M 303.355249 262.495077 
L 302.043607 266.770541 
L 299.410221 263.155949 
L 303.355249 262.495077 
z
" clip-path="url(#p7bbf5e98e2)" style="stroke: #000000; stroke-linecap: round"/>
   </g>
   <g id="patch_15">
    <path d="M 332.066609 217.397785 
Q 340.008425 237.672215 347.542459 256.90563 
" clip-path="url(#p7bbf5e98e2)" style="fill: none; stroke: #000000; stroke-linecap: round"/>
    <path d="M 347.945758 252.451716 
L 347.542459 256.90563 
L 344.221308 253.910643 
L 347.945758 252.451716 
z
" clip-path="url(#p7bbf5e98e2)" style="stroke: #000000; stroke-linecap: round"/>
   </g>
   <g id="patch_16">
    <path d="M 347.949756 257.945406 
Q 340.00794 237.670975 332.473906 218.43756 
" clip-path="url(#p7bbf5e98e2)" style="fill: none; stroke: #000000; stroke-linecap: round"/>
    <path d="M 332.070607 222.891474 
L 332.473906 218.43756 
L 335.795057 221.432548 
L 332.070607 222.891474 
z
" clip-path="url(#p7bbf5e98e2)" style="stroke: #000000; stroke-linecap: round"/>
   </g>
   <g id="patch_17">
    <path d="M 346.762023 260.160465 
Q 325.600942 264.765556 305.532325 269.132903 
" clip-path="url(#p7bbf5e98e2)" style="fill: none; stroke: #000000; stroke-linecap: round"/>
    <path d="M 309.866132 270.236588 
L 305.532325 269.132903 
L 309.015557 266.328069 
L 309.866132 270.236588 
z
" clip-path="url(#p7bbf5e98e2)" style="stroke: #000000; stroke-linecap: round"/>
   </g>
   <g id="patch_18">
    <path d="M 350.474617 260.41476 
Q 374.477845 269.210999 397.431308 277.622541 
" clip-path="url(#p7bbf5e98e2)" style="fill: none; stroke: #000000; stroke-linecap: round"/>
    <path d="M 394.363721 274.368326 
L 397.431308 277.622541 
L 392.987385 278.124082 
L 394.363721 274.368326 
z
" clip-path="url(#p7bbf5e98e2)" style="stroke: #000000; stroke-linecap: round"/>
   </g>
   <g id="patch_19">
    <path d="M 302.227679 267.86935 
Q 298.013755 242.714625 293.98455 218.662568 
" clip-path="url(#p7bbf5e98e2)" style="fill: none; stroke: #000000; stroke-linecap: round"/>
    <path d="M 292.672907 222.938033 
L 293.98455 218.662568 
L 296.617936 222.277161 
L 292.672907 222.938033 
z
" clip-path="url(#p7bbf5e98e2)" style="stroke: #000000; stroke-linecap: round"/>
   </g>
   <g id="patch_20">
    <path d="M 304.442097 269.37016 
Q 325.603178 264.765069 345.671795 260.397721 
" clip-path="url(#p7bbf5e98e2)" style="fill: none; stroke: #000000; stroke-linecap: round"/>
    <path d="M 341.337988 259.294036 
L 345.671795 260.397721 
L 342.188563 263.202556 
L 341.337988 259.294036 
z
" clip-path="url(#p7bbf5e98e2)" style="stroke: #000000; stroke-linecap: round"/>
   </g>
   <g id="patch_21">
    <path d="M 303.318291 271.560675 
Q 312.360214 292.43937 320.957827 312.292107 
" clip-path="url(#p7bbf5e98e2)" style="fill: none; stroke: #000000; stroke-linecap: round"/>
    <path d="M 321.203501 307.826724 
L 320.957827 312.292107 
L 317.532925 309.416338 
L 321.203501 307.826724 
z
" clip-path="url(#p7bbf5e98e2)" style="stroke: #000000; stroke-linecap: round"/>
   </g>
   <g id="patch_22">
    <path d="M 321.401832 313.317358 
Q 312.359909 292.438664 303.762296 272.585926 
" clip-path="url(#p7bbf5e98e2)" style="fill: none; stroke: #000000; stroke-linecap: round"/>
    <path d="M 303.516622 277.051309 
L 303.762296 272.585926 
L 307.187198 275.461695 
L 303.516622 277.051309 
z
" clip-path="url(#p7bbf5e98e2)" style="stroke: #000000; stroke-linecap: round"/>
   </g>
   <g id="patch_23">
    <path d="M 324.101566 315.258708 
Q 348.474775 317.317602 371.733918 319.282385 
" clip-path="url(#p7bbf5e98e2)" style="fill: none; stroke: #000000; stroke-linecap: round"/>
    <path d="M 367.916461 316.952788 
L 371.733918 319.282385 
L 367.579766 320.938592 
L 367.916461 316.952788 
z
" clip-path="url(#p7bbf5e98e2)" style="stroke: #000000; stroke-linecap: round"/>
   </g>
   <g id="patch_24">
    <path d="M 372.845246 319.376263 
Q 348.472037 317.31737 325.212894 315.352586 
" clip-path="url(#p7bbf5e98e2)" style="fill: none; stroke: #000000; stroke-linecap: round"/>
    <path d="M 329.03035 317.682184 
L 325.212894 315.352586 
L 329.367046 313.696379 
L 329.03035 317.682184 
z
" clip-path="url(#p7bbf5e98e2)" style="stroke: #000000; stroke-linecap: round"/>
   </g>
   <g id="patch_25">
    <path d="M 375.801366 317.895513 
Q 387.53537 299.106346 398.677152 281.26548 
" clip-path="url(#p7bbf5e98e2)" style="fill: none; stroke: #000000; stroke-linecap: round"/>
    <path d="M 394.861983 283.598823 
L 398.677152 281.26548 
L 398.254725 285.71762 
L 394.861983 283.598823 
z
" clip-path="url(#p7bbf5e98e2)" style="stroke: #000000; stroke-linecap: round"/>
   </g>
   <g id="patch_26">
    <path d="M 398.477844 278.006055 
Q 374.474616 269.209816 351.521153 260.798274 
" clip-path="url(#p7bbf5e98e2)" style="fill: none; stroke: #000000; stroke-linecap: round"/>
    <path d="M 354.58874 264.052488 
L 351.521153 260.798274 
L 355.965076 260.296733 
L 354.58874 264.052488 
z
" clip-path="url(#p7bbf5e98e2)" style="stroke: #000000; stroke-linecap: round"/>
   </g>
   <g id="patch_27">
    <path d="M 399.269946 280.316263 
Q 387.535942 299.10543 376.394161 316.946297 
" clip-path="url(#p7bbf5e98e2)" style="fill: none; stroke: #000000; stroke-linecap: round"/>
    <path d="M 380.209329 314.612954 
L 376.394161 316.946297 
L 376.816587 312.494156 
L 380.209329 314.612954 
z
" clip-path="url(#p7bbf5e98e2)" style="stroke: #000000; stroke-linecap: round"/>
   </g>
   <g id="patch_28">
    <path d="M 401.413623 277.091328 
Q 415.939958 256.530942 429.821153 236.88368 
" clip-path="url(#p7bbf5e98e2)" style="fill: none; stroke: #000000; stroke-linecap: round"/>
    <path d="M 425.879584 238.996507 
L 429.821153 236.88368 
L 429.146473 241.304631 
L 425.879584 238.996507 
z
" clip-path="url(#p7bbf5e98e2)" style="stroke: #000000; stroke-linecap: round"/>
   </g>
   <g id="patch_29">
    <path d="M 430.466917 235.969673 
Q 415.940582 256.530059 402.059387 276.177322 
" clip-path="url(#p7bbf5e98e2)" style="fill: none; stroke: #000000; stroke-linecap: round"/>
    <path d="M 406.000956 274.064495 
L 402.059387 276.177322 
L 402.734067 271.756371 
L 406.000956 274.064495 
z
" clip-path="url(#p7bbf5e98e2)" style="stroke: #000000; stroke-linecap: round"/>
   </g>
   <g id="patch_30">
    <path d="M 430.858383 232.596357 
Q 421.660374 209.880923 412.881988 188.201789 
" clip-path="url(#p7bbf5e98e2)" style="fill: none; stroke: #000000; stroke-linecap: round"/>
    <path d="M 412.529484 192.66001 
L 412.881988 188.201789 
L 416.237063 191.158725 
L 412.529484 192.66001 
z
" clip-path="url(#p7bbf5e98e2)" style="stroke: #000000; stroke-linecap: round"/>
   </g>
   <g id="patch_31">
    <path d="M 411.025609 183.565319 
Q 402.126198 160.935773 393.635966 139.346695 
" clip-path="url(#p7bbf5e98e2)" style="fill: none; stroke: #000000; stroke-linecap: round"/>
    <path d="M 393.238647 143.801146 
L 393.635966 139.346695 
L 396.961136 142.337221 
L 393.238647 143.801146 
z
" clip-path="url(#p7bbf5e98e2)" style="stroke: #000000; stroke-linecap: round"/>
   </g>
   <g id="patch_32">
    <path d="M 409.897987 185.987088 
Q 385.828616 194.075465 362.819039 201.807703 
" clip-path="url(#p7bbf5e98e2)" style="fill: none; stroke: #000000; stroke-linecap: round"/>
    <path d="M 367.247757 202.429364 
L 362.819039 201.807703 
L 365.973598 198.637726 
L 367.247757 202.429364 
z
" clip-path="url(#p7bbf5e98e2)" style="stroke: #000000; stroke-linecap: round"/>
   </g>
   <g id="patch_33">
    <path d="M 412.460884 187.16183 
Q 421.658893 209.877264 430.437279 231.556398 
" clip-path="url(#p7bbf5e98e2)" style="fill: none; stroke: #000000; stroke-linecap: round"/>
    <path d="M 430.789783 227.098177 
L 430.437279 231.556398 
L 427.082204 228.599462 
L 430.789783 227.098177 
z
" clip-path="url(#p7bbf5e98e2)" style="stroke: #000000; stroke-linecap: round"/>
   </g>
   <g id="PathCollection_1">
    <defs>
     <path id="mbb6290e18d" d="M 0 1.936492 
C 0.513564 1.936492 1.006162 1.732451 1.369306 1.369306 
C 1.732451 1.006162 1.936492 0.513564 1.936492 0 
C 1.936492 -0.513564 1.732451 -1.006162 1.369306 -1.369306 
C 1.006162 -1.732451 0.513564 -1.936492 0 -1.936492 
C -0.513564 -1.936492 -1.006162 -1.732451 -1.369306 -1.369306 
C -1.732451 -1.006162 -1.936492 -0.513564 -1.936492 0 
C -1.936492 0.513564 -1.732451 1.006162 -1.369306 1.369306 
C -1.006162 1.732451 -0.513564 1.936492 0 1.936492 
z
" style="stroke: #1f78b4"/>
    </defs>
    <g clip-path="url(#p7bbf5e98e2)">
     <use xlink:href="#mbb6290e18d" x="392.518539" y="136.505285" style="fill: #1f78b4; stroke: #1f78b4"/>
     <use xlink:href="#mbb6290e18d" x="20.945455" y="15.709091" style="fill: #1f78b4; stroke: #1f78b4"/>
     <use xlink:href="#mbb6290e18d" x="266.174301" y="168.527871" style="fill: #1f78b4; stroke: #1f78b4"/>
     <use xlink:href="#mbb6290e18d" x="285.450481" y="125.531294" style="fill: #1f78b4; stroke: #1f78b4"/>
     <use xlink:href="#mbb6290e18d" x="340.365793" y="112.506325" style="fill: #1f78b4; stroke: #1f78b4"/>
     <use xlink:href="#mbb6290e18d" x="359.926172" y="202.779835" style="fill: #1f78b4; stroke: #1f78b4"/>
     <use xlink:href="#mbb6290e18d" x="293.480015" y="215.650786" style="fill: #1f78b4; stroke: #1f78b4"/>
     <use xlink:href="#mbb6290e18d" x="331.360386" y="215.59489" style="fill: #1f78b4; stroke: #1f78b4"/>
     <use xlink:href="#mbb6290e18d" x="348.655979" y="259.748301" style="fill: #1f78b4; stroke: #1f78b4"/>
     <use xlink:href="#mbb6290e18d" x="302.548141" y="269.782324" style="fill: #1f78b4; stroke: #1f78b4"/>
     <use xlink:href="#mbb6290e18d" x="322.171982" y="315.095709" style="fill: #1f78b4; stroke: #1f78b4"/>
     <use xlink:href="#mbb6290e18d" x="374.77483" y="319.539262" style="fill: #1f78b4; stroke: #1f78b4"/>
     <use xlink:href="#mbb6290e18d" x="400.296482" y="278.672514" style="fill: #1f78b4; stroke: #1f78b4"/>
     <use xlink:href="#mbb6290e18d" x="431.584058" y="234.388487" style="fill: #1f78b4; stroke: #1f78b4"/>
     <use xlink:href="#mbb6290e18d" x="411.735209" y="185.3697" style="fill: #1f78b4; stroke: #1f78b4"/>
    </g>
   </g>
   <g id="text_1">
    <g clip-path="url(#p7bbf5e98e2)">
     <!-- 0 -->
     <g transform="translate(389.337289 139.26466) scale(0.1 -0.1)">
      <defs>
       <path id="DejaVuSans-30" d="M 2034 4250 
Q 1547 4250 1301 3770 
Q 1056 3291 1056 2328 
Q 1056 1369 1301 889 
Q 1547 409 2034 409 
Q 2525 409 2770 889 
Q 3016 1369 3016 2328 
Q 3016 3291 2770 3770 
Q 2525 4250 2034 4250 
z
M 2034 4750 
Q 2819 4750 3233 4129 
Q 3647 3509 3647 2328 
Q 3647 1150 3233 529 
Q 2819 -91 2034 -91 
Q 1250 -91 836 529 
Q 422 1150 422 2328 
Q 422 3509 836 4129 
Q 1250 4750 2034 4750 
z
" transform="scale(0.015625)"/>
      </defs>
      <use xlink:href="#DejaVuSans-30"/>
     </g>
    </g>
   </g>
   <g id="text_2">
    <g clip-path="url(#p7bbf5e98e2)">
     <!-- 1 -->
     <g transform="translate(17.764205 18.468466) scale(0.1 -0.1)">
      <defs>
       <path id="DejaVuSans-31" d="M 794 531 
L 1825 531 
L 1825 4091 
L 703 3866 
L 703 4441 
L 1819 4666 
L 2450 4666 
L 2450 531 
L 3481 531 
L 3481 0 
L 794 0 
L 794 531 
z
" transform="scale(0.015625)"/>
      </defs>
      <use xlink:href="#DejaVuSans-31"/>
     </g>
    </g>
   </g>
   <g id="text_3">
    <g clip-path="url(#p7bbf5e98e2)">
     <!-- 2 -->
     <g transform="translate(262.993051 171.287246) scale(0.1 -0.1)">
      <defs>
       <path id="DejaVuSans-32" d="M 1228 531 
L 3431 531 
L 3431 0 
L 469 0 
L 469 531 
Q 828 903 1448 1529 
Q 2069 2156 2228 2338 
Q 2531 2678 2651 2914 
Q 2772 3150 2772 3378 
Q 2772 3750 2511 3984 
Q 2250 4219 1831 4219 
Q 1534 4219 1204 4116 
Q 875 4013 500 3803 
L 500 4441 
Q 881 4594 1212 4672 
Q 1544 4750 1819 4750 
Q 2544 4750 2975 4387 
Q 3406 4025 3406 3419 
Q 3406 3131 3298 2873 
Q 3191 2616 2906 2266 
Q 2828 2175 2409 1742 
Q 1991 1309 1228 531 
z
" transform="scale(0.015625)"/>
      </defs>
      <use xlink:href="#DejaVuSans-32"/>
     </g>
    </g>
   </g>
   <g id="text_4">
    <g clip-path="url(#p7bbf5e98e2)">
     <!-- 3 -->
     <g transform="translate(282.269231 128.290669) scale(0.1 -0.1)">
      <defs>
       <path id="DejaVuSans-33" d="M 2597 2516 
Q 3050 2419 3304 2112 
Q 3559 1806 3559 1356 
Q 3559 666 3084 287 
Q 2609 -91 1734 -91 
Q 1441 -91 1130 -33 
Q 819 25 488 141 
L 488 750 
Q 750 597 1062 519 
Q 1375 441 1716 441 
Q 2309 441 2620 675 
Q 2931 909 2931 1356 
Q 2931 1769 2642 2001 
Q 2353 2234 1838 2234 
L 1294 2234 
L 1294 2753 
L 1863 2753 
Q 2328 2753 2575 2939 
Q 2822 3125 2822 3475 
Q 2822 3834 2567 4026 
Q 2313 4219 1838 4219 
Q 1578 4219 1281 4162 
Q 984 4106 628 3988 
L 628 4550 
Q 988 4650 1302 4700 
Q 1616 4750 1894 4750 
Q 2613 4750 3031 4423 
Q 3450 4097 3450 3541 
Q 3450 3153 3228 2886 
Q 3006 2619 2597 2516 
z
" transform="scale(0.015625)"/>
      </defs>
      <use xlink:href="#DejaVuSans-33"/>
     </g>
    </g>
   </g>
   <g id="text_5">
    <g clip-path="url(#p7bbf5e98e2)">
     <!-- 4 -->
     <g transform="translate(337.184543 115.2657) scale(0.1 -0.1)">
      <defs>
       <path id="DejaVuSans-34" d="M 2419 4116 
L 825 1625 
L 2419 1625 
L 2419 4116 
z
M 2253 4666 
L 3047 4666 
L 3047 1625 
L 3713 1625 
L 3713 1100 
L 3047 1100 
L 3047 0 
L 2419 0 
L 2419 1100 
L 313 1100 
L 313 1709 
L 2253 4666 
z
" transform="scale(0.015625)"/>
      </defs>
      <use xlink:href="#DejaVuSans-34"/>
     </g>
    </g>
   </g>
   <g id="text_6">
    <g clip-path="url(#p7bbf5e98e2)">
     <!-- 5 -->
     <g transform="translate(356.744922 205.53921) scale(0.1 -0.1)">
      <defs>
       <path id="DejaVuSans-35" d="M 691 4666 
L 3169 4666 
L 3169 4134 
L 1269 4134 
L 1269 2991 
Q 1406 3038 1543 3061 
Q 1681 3084 1819 3084 
Q 2600 3084 3056 2656 
Q 3513 2228 3513 1497 
Q 3513 744 3044 326 
Q 2575 -91 1722 -91 
Q 1428 -91 1123 -41 
Q 819 9 494 109 
L 494 744 
Q 775 591 1075 516 
Q 1375 441 1709 441 
Q 2250 441 2565 725 
Q 2881 1009 2881 1497 
Q 2881 1984 2565 2268 
Q 2250 2553 1709 2553 
Q 1456 2553 1204 2497 
Q 953 2441 691 2322 
L 691 4666 
z
" transform="scale(0.015625)"/>
      </defs>
      <use xlink:href="#DejaVuSans-35"/>
     </g>
    </g>
   </g>
   <g id="text_7">
    <g clip-path="url(#p7bbf5e98e2)">
     <!-- 6 -->
     <g transform="translate(290.298765 218.410161) scale(0.1 -0.1)">
      <defs>
       <path id="DejaVuSans-36" d="M 2113 2584 
Q 1688 2584 1439 2293 
Q 1191 2003 1191 1497 
Q 1191 994 1439 701 
Q 1688 409 2113 409 
Q 2538 409 2786 701 
Q 3034 994 3034 1497 
Q 3034 2003 2786 2293 
Q 2538 2584 2113 2584 
z
M 3366 4563 
L 3366 3988 
Q 3128 4100 2886 4159 
Q 2644 4219 2406 4219 
Q 1781 4219 1451 3797 
Q 1122 3375 1075 2522 
Q 1259 2794 1537 2939 
Q 1816 3084 2150 3084 
Q 2853 3084 3261 2657 
Q 3669 2231 3669 1497 
Q 3669 778 3244 343 
Q 2819 -91 2113 -91 
Q 1303 -91 875 529 
Q 447 1150 447 2328 
Q 447 3434 972 4092 
Q 1497 4750 2381 4750 
Q 2619 4750 2861 4703 
Q 3103 4656 3366 4563 
z
" transform="scale(0.015625)"/>
      </defs>
      <use xlink:href="#DejaVuSans-36"/>
     </g>
    </g>
   </g>
   <g id="text_8">
    <g clip-path="url(#p7bbf5e98e2)">
     <!-- 7 -->
     <g transform="translate(328.179136 218.354265) scale(0.1 -0.1)">
      <defs>
       <path id="DejaVuSans-37" d="M 525 4666 
L 3525 4666 
L 3525 4397 
L 1831 0 
L 1172 0 
L 2766 4134 
L 525 4134 
L 525 4666 
z
" transform="scale(0.015625)"/>
      </defs>
      <use xlink:href="#DejaVuSans-37"/>
     </g>
    </g>
   </g>
   <g id="text_9">
    <g clip-path="url(#p7bbf5e98e2)">
     <!-- 8 -->
     <g transform="translate(345.474729 262.507676) scale(0.1 -0.1)">
      <defs>
       <path id="DejaVuSans-38" d="M 2034 2216 
Q 1584 2216 1326 1975 
Q 1069 1734 1069 1313 
Q 1069 891 1326 650 
Q 1584 409 2034 409 
Q 2484 409 2743 651 
Q 3003 894 3003 1313 
Q 3003 1734 2745 1975 
Q 2488 2216 2034 2216 
z
M 1403 2484 
Q 997 2584 770 2862 
Q 544 3141 544 3541 
Q 544 4100 942 4425 
Q 1341 4750 2034 4750 
Q 2731 4750 3128 4425 
Q 3525 4100 3525 3541 
Q 3525 3141 3298 2862 
Q 3072 2584 2669 2484 
Q 3125 2378 3379 2068 
Q 3634 1759 3634 1313 
Q 3634 634 3220 271 
Q 2806 -91 2034 -91 
Q 1263 -91 848 271 
Q 434 634 434 1313 
Q 434 1759 690 2068 
Q 947 2378 1403 2484 
z
M 1172 3481 
Q 1172 3119 1398 2916 
Q 1625 2713 2034 2713 
Q 2441 2713 2670 2916 
Q 2900 3119 2900 3481 
Q 2900 3844 2670 4047 
Q 2441 4250 2034 4250 
Q 1625 4250 1398 4047 
Q 1172 3844 1172 3481 
z
" transform="scale(0.015625)"/>
      </defs>
      <use xlink:href="#DejaVuSans-38"/>
     </g>
    </g>
   </g>
   <g id="text_10">
    <g clip-path="url(#p7bbf5e98e2)">
     <!-- 9 -->
     <g transform="translate(299.366891 272.541699) scale(0.1 -0.1)">
      <defs>
       <path id="DejaVuSans-39" d="M 703 97 
L 703 672 
Q 941 559 1184 500 
Q 1428 441 1663 441 
Q 2288 441 2617 861 
Q 2947 1281 2994 2138 
Q 2813 1869 2534 1725 
Q 2256 1581 1919 1581 
Q 1219 1581 811 2004 
Q 403 2428 403 3163 
Q 403 3881 828 4315 
Q 1253 4750 1959 4750 
Q 2769 4750 3195 4129 
Q 3622 3509 3622 2328 
Q 3622 1225 3098 567 
Q 2575 -91 1691 -91 
Q 1453 -91 1209 -44 
Q 966 3 703 97 
z
M 1959 2075 
Q 2384 2075 2632 2365 
Q 2881 2656 2881 3163 
Q 2881 3666 2632 3958 
Q 2384 4250 1959 4250 
Q 1534 4250 1286 3958 
Q 1038 3666 1038 3163 
Q 1038 2656 1286 2365 
Q 1534 2075 1959 2075 
z
" transform="scale(0.015625)"/>
      </defs>
      <use xlink:href="#DejaVuSans-39"/>
     </g>
    </g>
   </g>
   <g id="text_11">
    <g clip-path="url(#p7bbf5e98e2)">
     <!-- 10 -->
     <g transform="translate(315.809482 317.855084) scale(0.1 -0.1)">
      <use xlink:href="#DejaVuSans-31"/>
      <use xlink:href="#DejaVuSans-30" x="63.623047"/>
     </g>
    </g>
   </g>
   <g id="text_12">
    <g clip-path="url(#p7bbf5e98e2)">
     <!-- 11 -->
     <g transform="translate(368.41233 322.298637) scale(0.1 -0.1)">
      <use xlink:href="#DejaVuSans-31"/>
      <use xlink:href="#DejaVuSans-31" x="63.623047"/>
     </g>
    </g>
   </g>
   <g id="text_13">
    <g clip-path="url(#p7bbf5e98e2)">
     <!-- 12 -->
     <g transform="translate(393.933982 281.431889) scale(0.1 -0.1)">
      <use xlink:href="#DejaVuSans-31"/>
      <use xlink:href="#DejaVuSans-32" x="63.623047"/>
     </g>
    </g>
   </g>
   <g id="text_14">
    <g clip-path="url(#p7bbf5e98e2)">
     <!-- 13 -->
     <g transform="translate(425.221558 237.147862) scale(0.1 -0.1)">
      <use xlink:href="#DejaVuSans-31"/>
      <use xlink:href="#DejaVuSans-33" x="63.623047"/>
     </g>
    </g>
   </g>
   <g id="text_15">
    <g clip-path="url(#p7bbf5e98e2)">
     <!-- 14 -->
     <g transform="translate(405.372709 188.129075) scale(0.1 -0.1)">
      <use xlink:href="#DejaVuSans-31"/>
      <use xlink:href="#DejaVuSans-34" x="63.623047"/>
     </g>
    </g>
   </g>
  </g>
 </g>
 <defs>
  <clipPath id="p7bbf5e98e2">
   <rect x="0" y="0" width="460.8" height="345.6"/>
  </clipPath>
 </defs>
</svg>
