<?xml version="1.0" encoding="utf-8" standalone="no"?>
<!DOCTYPE svg PUBLIC "-//W3C//DTD SVG 1.1//EN"
  "http://www.w3.org/Graphics/SVG/1.1/DTD/svg11.dtd">
<svg xmlns:xlink="http://www.w3.org/1999/xlink" width="460.8pt" height="345.6pt" viewBox="0 0 460.8 345.6" xmlns="http://www.w3.org/2000/svg" version="1.1">
 <metadata>
  <rdf:RDF xmlns:dc="http://purl.org/dc/elements/1.1/" xmlns:cc="http://creativecommons.org/ns#" xmlns:rdf="http://www.w3.org/1999/02/22-rdf-syntax-ns#">
   <cc:Work>
    <dc:type rdf:resource="http://purl.org/dc/dcmitype/StillImage"/>
    <dc:date>2023-10-10T10:56:00.842932</dc:date>
    <dc:format>image/svg+xml</dc:format>
    <dc:creator>
     <cc:Agent>
      <dc:title>Matplotlib v3.6.1, https://matplotlib.org/</dc:title>
     </cc:Agent>
    </dc:creator>
   </cc:Work>
  </rdf:RDF>
 </metadata>
 <defs>
  <style type="text/css">*{stroke-linejoin: round; stroke-linecap: butt}</style>
 </defs>
 <g id="figure_1">
  <g id="patch_1">
   <path d="M 0 345.6 
L 460.8 345.6 
L 460.8 0 
L 0 0 
z
" style="fill: #ffffff"/>
  </g>
  <g id="axes_1">
   <g id="patch_2">
    <path d="M 361.497173 215.65995 
Q 334.608853 217.425131 308.836166 219.117071 
" clip-path="url(#pa1f089699c)" style="fill: none; stroke: #000000; stroke-linecap: round"/>
    <path d="M 312.95859 220.850745 
L 308.836166 219.117071 
L 312.696559 216.859337 
L 312.95859 220.850745 
z
" clip-path="url(#pa1f089699c)" style="stroke: #000000; stroke-linecap: round"/>
   </g>
   <g id="patch_3">
    <path d="M 290.427442 298.538942 
Q 297.922388 259.878272 305.204548 222.315201 
" clip-path="url(#pa1f089699c)" style="fill: none; stroke: #000000; stroke-linecap: round"/>
    <path d="M 302.479819 225.861445 
L 305.204548 222.315201 
L 306.406706 226.622731 
L 302.479819 225.861445 
z
" clip-path="url(#pa1f089699c)" style="stroke: #000000; stroke-linecap: round"/>
   </g>
   <g id="patch_4">
    <path d="M 64.462649 266.154376 
Q 81.554361 231.553926 98.150911 197.955881 
" clip-path="url(#pa1f089699c)" style="fill: none; stroke: #000000; stroke-linecap: round"/>
    <path d="M 94.586211 200.656421 
L 98.150911 197.955881 
L 98.172523 202.427965 
L 94.586211 200.656421 
z
" clip-path="url(#pa1f089699c)" style="stroke: #000000; stroke-linecap: round"/>
   </g>
   <g id="patch_5">
    <path d="M 339.577133 174.539655 
Q 323.264078 196.156415 307.624495 216.880744 
" clip-path="url(#pa1f089699c)" style="fill: none; stroke: #000000; stroke-linecap: round"/>
    <path d="M 311.630414 214.892627 
L 307.624495 216.880744 
L 308.437552 212.483138 
L 311.630414 214.892627 
z
" clip-path="url(#pa1f089699c)" style="stroke: #000000; stroke-linecap: round"/>
   </g>
   <g id="patch_6">
    <path d="M 305.098481 141.353129 
Q 305.43357 179.366862 305.758803 216.262605 
" clip-path="url(#pa1f089699c)" style="fill: none; stroke: #000000; stroke-linecap: round"/>
    <path d="M 307.723467 212.245131 
L 305.758803 216.262605 
L 303.723623 212.280389 
L 307.723467 212.245131 
z
" clip-path="url(#pa1f089699c)" style="stroke: #000000; stroke-linecap: round"/>
   </g>
   <g id="patch_7">
    <path d="M 251.055066 191.795464 
Q 228.821056 200.09783 207.634442 208.009089 
" clip-path="url(#pa1f089699c)" style="fill: none; stroke: #000000; stroke-linecap: round"/>
    <path d="M 212.081348 208.483463 
L 207.634442 208.009089 
L 210.682084 204.736189 
L 212.081348 208.483463 
z
" clip-path="url(#pa1f089699c)" style="stroke: #000000; stroke-linecap: round"/>
   </g>
   <g id="patch_8">
    <path d="M 254.574928 192.029591 
Q 279.325462 205.217942 303.089297 217.88053 
" clip-path="url(#pa1f089699c)" style="fill: none; stroke: #000000; stroke-linecap: round"/>
    <path d="M 300.499693 214.234443 
L 303.089297 217.88053 
L 298.618665 217.764562 
L 300.499693 214.234443 
z
" clip-path="url(#pa1f089699c)" style="stroke: #000000; stroke-linecap: round"/>
   </g>
   <g id="patch_9">
    <path d="M 307.717248 219.190527 
Q 334.605568 217.425346 360.378256 215.733406 
" clip-path="url(#pa1f089699c)" style="fill: none; stroke: #000000; stroke-linecap: round"/>
    <path d="M 356.255832 213.999732 
L 360.378256 215.733406 
L 356.517862 217.99114 
L 356.255832 213.999732 
z
" clip-path="url(#pa1f089699c)" style="stroke: #000000; stroke-linecap: round"/>
   </g>
   <g id="patch_10">
    <path d="M 305.417623 221.216112 
Q 297.922677 259.876782 290.640517 297.439853 
" clip-path="url(#pa1f089699c)" style="fill: none; stroke: #000000; stroke-linecap: round"/>
    <path d="M 293.365246 293.893609 
L 290.640517 297.439853 
L 289.438358 293.132323 
L 293.365246 293.893609 
z
" clip-path="url(#pa1f089699c)" style="stroke: #000000; stroke-linecap: round"/>
   </g>
   <g id="patch_11">
    <path d="M 306.952864 217.770735 
Q 323.26592 196.153975 338.905503 175.429646 
" clip-path="url(#pa1f089699c)" style="fill: none; stroke: #000000; stroke-linecap: round"/>
    <path d="M 334.899584 177.417764 
L 338.905503 175.429646 
L 338.092445 179.827252 
L 334.899584 177.417764 
z
" clip-path="url(#pa1f089699c)" style="stroke: #000000; stroke-linecap: round"/>
   </g>
   <g id="patch_12">
    <path d="M 305.768664 217.381268 
Q 305.433576 179.367535 305.108342 142.471792 
" clip-path="url(#pa1f089699c)" style="fill: none; stroke: #000000; stroke-linecap: round"/>
    <path d="M 303.143678 146.489266 
L 305.108342 142.471792 
L 307.143523 146.454008 
L 303.143678 146.489266 
z
" clip-path="url(#pa1f089699c)" style="stroke: #000000; stroke-linecap: round"/>
   </g>
   <g id="patch_13">
    <path d="M 304.077089 218.406876 
Q 279.326556 205.218525 255.56272 192.555937 
" clip-path="url(#pa1f089699c)" style="fill: none; stroke: #000000; stroke-linecap: round"/>
    <path d="M 258.152325 196.202024 
L 255.56272 192.555937 
L 260.033353 192.671906 
L 258.152325 196.202024 
z
" clip-path="url(#pa1f089699c)" style="stroke: #000000; stroke-linecap: round"/>
   </g>
   <g id="patch_14">
    <path d="M 303.940466 219.914793 
Q 278.249606 228.233049 253.622415 236.206908 
" clip-path="url(#pa1f089699c)" style="fill: none; stroke: #000000; stroke-linecap: round"/>
    <path d="M 258.043988 236.877502 
L 253.622415 236.206908 
L 256.811834 233.072007 
L 258.043988 236.877502 
z
" clip-path="url(#pa1f089699c)" style="stroke: #000000; stroke-linecap: round"/>
   </g>
   <g id="patch_15">
    <path d="M 306.778107 217.655548 
Q 337.480035 166.243769 367.608733 115.79189 
" clip-path="url(#pa1f089699c)" style="fill: none; stroke: #000000; stroke-linecap: round"/>
    <path d="M 363.840762 118.200707 
L 367.608733 115.79189 
L 367.275004 120.251557 
L 363.840762 118.200707 
z
" clip-path="url(#pa1f089699c)" style="stroke: #000000; stroke-linecap: round"/>
   </g>
   <g id="patch_16">
    <path d="M 306.642908 221.052803 
Q 324.789253 257.792576 342.440482 293.529921 
" clip-path="url(#pa1f089699c)" style="fill: none; stroke: #000000; stroke-linecap: round"/>
    <path d="M 342.462303 289.057838 
L 342.440482 293.529921 
L 338.875909 290.829214 
L 342.462303 289.057838 
z
" clip-path="url(#pa1f089699c)" style="stroke: #000000; stroke-linecap: round"/>
   </g>
   <g id="patch_17">
    <path d="M 306.033424 221.236245 
Q 312.000308 267.462582 317.824064 312.580085 
" clip-path="url(#pa1f089699c)" style="fill: none; stroke: #000000; stroke-linecap: round"/>
    <path d="M 319.295537 308.356962 
L 317.824064 312.580085 
L 315.328449 308.869033 
L 319.295537 308.356962 
z
" clip-path="url(#pa1f089699c)" style="stroke: #000000; stroke-linecap: round"/>
   </g>
   <g id="patch_18">
    <path d="M 307.317592 220.497703 
Q 332.772181 240.111718 357.341154 259.043322 
" clip-path="url(#pa1f089699c)" style="fill: none; stroke: #000000; stroke-linecap: round"/>
    <path d="M 355.393411 255.017617 
L 357.341154 259.043322 
L 352.951944 258.186093 
L 355.393411 255.017617 
z
" clip-path="url(#pa1f089699c)" style="stroke: #000000; stroke-linecap: round"/>
   </g>
   <g id="patch_19">
    <path d="M 303.85902 219.122038 
Q 255.277927 214.197879 207.809168 209.386467 
" clip-path="url(#pa1f089699c)" style="fill: none; stroke: #000000; stroke-linecap: round"/>
    <path d="M 211.587092 211.779643 
L 207.809168 209.386467 
L 211.990464 207.800034 
L 211.587092 211.779643 
z
" clip-path="url(#pa1f089699c)" style="stroke: #000000; stroke-linecap: round"/>
   </g>
   <g id="patch_20">
    <path d="M 252.562105 236.550218 
Q 278.252965 228.231962 302.880156 220.258103 
" clip-path="url(#pa1f089699c)" style="fill: none; stroke: #000000; stroke-linecap: round"/>
    <path d="M 298.458583 219.587509 
L 302.880156 220.258103 
L 299.690737 223.393005 
L 298.458583 219.587509 
z
" clip-path="url(#pa1f089699c)" style="stroke: #000000; stroke-linecap: round"/>
   </g>
   <g id="patch_21">
    <path d="M 249.065086 236.138603 
Q 227.743761 223.11311 207.376518 210.670479 
" clip-path="url(#pa1f089699c)" style="fill: none; stroke: #000000; stroke-linecap: round"/>
    <path d="M 209.74729 214.462502 
L 207.376518 210.670479 
L 211.8326 211.049075 
L 209.74729 214.462502 
z
" clip-path="url(#pa1f089699c)" style="stroke: #000000; stroke-linecap: round"/>
   </g>
   <g id="patch_22">
    <path d="M 368.18166 114.832498 
Q 337.479732 166.244276 307.351035 216.696155 
" clip-path="url(#pa1f089699c)" style="fill: none; stroke: #000000; stroke-linecap: round"/>
    <path d="M 311.119005 214.287339 
L 307.351035 216.696155 
L 307.684764 212.236489 
L 311.119005 214.287339 
z
" clip-path="url(#pa1f089699c)" style="stroke: #000000; stroke-linecap: round"/>
   </g>
   <g id="patch_23">
    <path d="M 370.753092 112.050828 
Q 394.993329 94.859278 418.321603 78.314507 
" clip-path="url(#pa1f089699c)" style="fill: none; stroke: #000000; stroke-linecap: round"/>
    <path d="M 413.901871 78.997122 
L 418.321603 78.314507 
L 416.215856 82.259862 
L 413.901871 78.997122 
z
" clip-path="url(#pa1f089699c)" style="stroke: #000000; stroke-linecap: round"/>
   </g>
   <g id="patch_24">
    <path d="M 369.643114 111.28971 
Q 379.546 71.578981 389.17836 32.953062 
" clip-path="url(#pa1f089699c)" style="fill: none; stroke: #000000; stroke-linecap: round"/>
    <path d="M 386.269929 36.350271 
L 389.17836 32.953062 
L 390.151069 37.318133 
L 386.269929 36.350271 
z
" clip-path="url(#pa1f089699c)" style="stroke: #000000; stroke-linecap: round"/>
   </g>
   <g id="patch_25">
    <path d="M 342.936673 294.534527 
Q 324.790329 257.794754 307.139099 222.057409 
" clip-path="url(#pa1f089699c)" style="fill: none; stroke: #000000; stroke-linecap: round"/>
    <path d="M 307.117278 226.529492 
L 307.139099 222.057409 
L 310.703673 224.758116 
L 307.117278 226.529492 
z
" clip-path="url(#pa1f089699c)" style="stroke: #000000; stroke-linecap: round"/>
   </g>
   <g id="patch_26">
    <path d="M 419.234168 77.667302 
Q 394.993931 94.858851 371.665657 111.403622 
" clip-path="url(#pa1f089699c)" style="fill: none; stroke: #000000; stroke-linecap: round"/>
    <path d="M 376.085389 110.721007 
L 371.665657 111.403622 
L 373.771404 107.458267 
L 376.085389 110.721007 
z
" clip-path="url(#pa1f089699c)" style="stroke: #000000; stroke-linecap: round"/>
   </g>
   <g id="patch_27">
    <path d="M 389.448178 31.87109 
Q 379.545292 71.58182 369.912932 110.207738 
" clip-path="url(#pa1f089699c)" style="fill: none; stroke: #000000; stroke-linecap: round"/>
    <path d="M 372.821363 106.810529 
L 369.912932 110.207738 
L 368.940223 105.842668 
L 372.821363 106.810529 
z
" clip-path="url(#pa1f089699c)" style="stroke: #000000; stroke-linecap: round"/>
   </g>
   <g id="patch_28">
    <path d="M 317.96746 313.691001 
Q 312.000576 267.464663 306.176821 222.34716 
" clip-path="url(#pa1f089699c)" style="fill: none; stroke: #000000; stroke-linecap: round"/>
    <path d="M 304.705347 226.570283 
L 306.176821 222.34716 
L 308.672435 226.058212 
L 304.705347 226.570283 
z
" clip-path="url(#pa1f089699c)" style="stroke: #000000; stroke-linecap: round"/>
   </g>
   <g id="patch_29">
    <path d="M 358.228105 259.726761 
Q 332.773516 240.112747 308.204543 221.181143 
" clip-path="url(#pa1f089699c)" style="fill: none; stroke: #000000; stroke-linecap: round"/>
    <path d="M 310.152286 225.206847 
L 308.204543 221.181143 
L 312.593753 222.038371 
L 310.152286 225.206847 
z
" clip-path="url(#pa1f089699c)" style="stroke: #000000; stroke-linecap: round"/>
   </g>
   <g id="patch_30">
    <path d="M 46.041239 231.733854 
Q 71.971384 214.022738 96.9783 196.942217 
" clip-path="url(#pa1f089699c)" style="fill: none; stroke: #000000; stroke-linecap: round"/>
    <path d="M 92.547216 197.546779 
L 96.9783 196.942217 
L 94.803299 200.849821 
L 92.547216 197.546779 
z
" clip-path="url(#pa1f089699c)" style="stroke: #000000; stroke-linecap: round"/>
   </g>
   <g id="patch_31">
    <path d="M 41.908436 188.221402 
Q 69.744626 191.60256 96.47094 194.848906 
" clip-path="url(#pa1f089699c)" style="fill: none; stroke: #000000; stroke-linecap: round"/>
    <path d="M 92.741286 192.381178 
L 96.47094 194.848906 
L 92.258966 196.351993 
L 92.741286 192.381178 
z
" clip-path="url(#pa1f089699c)" style="stroke: #000000; stroke-linecap: round"/>
   </g>
   <g id="patch_32">
    <path d="M 53.096226 149.586955 
Q 75.610255 171.723959 97.327067 193.077097 
" clip-path="url(#pa1f089699c)" style="fill: none; stroke: #000000; stroke-linecap: round"/>
    <path d="M 95.877081 188.846548 
L 97.327067 193.077097 
L 93.072637 191.698756 
L 95.877081 188.846548 
z
" clip-path="url(#pa1f089699c)" style="stroke: #000000; stroke-linecap: round"/>
   </g>
   <g id="patch_33">
    <path d="M 101.417666 116.611335 
Q 100.484225 154.947568 99.577998 192.166098 
" clip-path="url(#pa1f089699c)" style="fill: none; stroke: #000000; stroke-linecap: round"/>
    <path d="M 101.674772 188.215966 
L 99.577998 192.166098 
L 97.675957 188.1186 
L 101.674772 188.215966 
z
" clip-path="url(#pa1f089699c)" style="stroke: #000000; stroke-linecap: round"/>
   </g>
   <g id="patch_34">
    <path d="M 94.386002 274.630501 
Q 96.882538 235.890869 99.307172 198.266956 
" clip-path="url(#pa1f089699c)" style="fill: none; stroke: #000000; stroke-linecap: round"/>
    <path d="M 97.05407 202.130055 
L 99.307172 198.266956 
L 101.04579 202.387297 
L 97.05407 202.130055 
z
" clip-path="url(#pa1f089699c)" style="stroke: #000000; stroke-linecap: round"/>
   </g>
   <g id="patch_35">
    <path d="M 70.241514 114.844983 
Q 84.541749 154.122383 98.459489 192.349213 
" clip-path="url(#pa1f089699c)" style="fill: none; stroke: #000000; stroke-linecap: round"/>
    <path d="M 98.970351 187.906351 
L 98.459489 192.349213 
L 95.211717 189.274806 
L 98.970351 187.906351 
z
" clip-path="url(#pa1f089699c)" style="stroke: #000000; stroke-linecap: round"/>
   </g>
   <g id="patch_36">
    <path d="M 98.647015 196.951568 
Q 81.555303 231.552018 64.958753 265.150063 
" clip-path="url(#pa1f089699c)" style="fill: none; stroke: #000000; stroke-linecap: round"/>
    <path d="M 68.523453 262.449523 
L 64.958753 265.150063 
L 64.937141 260.67798 
L 68.523453 262.449523 
z
" clip-path="url(#pa1f089699c)" style="stroke: #000000; stroke-linecap: round"/>
   </g>
   <g id="patch_37">
    <path d="M 97.90746 196.307571 
Q 71.977315 214.018687 46.970399 231.099208 
" clip-path="url(#pa1f089699c)" style="fill: none; stroke: #000000; stroke-linecap: round"/>
    <path d="M 51.401483 230.494646 
L 46.970399 231.099208 
L 49.1454 227.191604 
L 51.401483 230.494646 
z
" clip-path="url(#pa1f089699c)" style="stroke: #000000; stroke-linecap: round"/>
   </g>
   <g id="patch_38">
    <path d="M 97.582047 194.983868 
Q 69.745856 191.60271 43.019542 188.356364 
" clip-path="url(#pa1f089699c)" style="fill: none; stroke: #000000; stroke-linecap: round"/>
    <path d="M 46.749197 190.824091 
L 43.019542 188.356364 
L 47.231517 186.853277 
L 46.749197 190.824091 
z
" clip-path="url(#pa1f089699c)" style="stroke: #000000; stroke-linecap: round"/>
   </g>
   <g id="patch_39">
    <path d="M 98.12411 193.860792 
Q 75.610081 171.723788 53.893269 150.370651 
" clip-path="url(#pa1f089699c)" style="fill: none; stroke: #000000; stroke-linecap: round"/>
    <path d="M 55.343255 154.601199 
L 53.893269 150.370651 
L 58.147699 151.748991 
L 55.343255 154.601199 
z
" clip-path="url(#pa1f089699c)" style="stroke: #000000; stroke-linecap: round"/>
   </g>
   <g id="patch_40">
    <path d="M 99.550743 193.285439 
Q 100.484185 154.949206 101.390411 117.730676 
" clip-path="url(#pa1f089699c)" style="fill: none; stroke: #000000; stroke-linecap: round"/>
    <path d="M 99.293637 121.680808 
L 101.390411 117.730676 
L 103.292452 121.778174 
L 99.293637 121.680808 
z
" clip-path="url(#pa1f089699c)" style="stroke: #000000; stroke-linecap: round"/>
   </g>
   <g id="patch_41">
    <path d="M 99.379242 197.148622 
Q 96.882707 235.888254 94.458072 273.512167 
" clip-path="url(#pa1f089699c)" style="fill: none; stroke: #000000; stroke-linecap: round"/>
    <path d="M 96.711174 269.649068 
L 94.458072 273.512167 
L 92.719455 269.391826 
L 96.711174 269.649068 
z
" clip-path="url(#pa1f089699c)" style="stroke: #000000; stroke-linecap: round"/>
   </g>
   <g id="patch_42">
    <path d="M 98.841624 193.398793 
Q 84.541389 154.121393 70.623649 115.894563 
" clip-path="url(#pa1f089699c)" style="fill: none; stroke: #000000; stroke-linecap: round"/>
    <path d="M 70.112786 120.337424 
L 70.623649 115.894563 
L 73.871421 118.96897 
L 70.112786 120.337424 
z
" clip-path="url(#pa1f089699c)" style="stroke: #000000; stroke-linecap: round"/>
   </g>
   <g id="patch_43">
    <path d="M 101.421953 195.484361 
Q 125.565473 198.845849 148.60164 202.053162 
" clip-path="url(#pa1f089699c)" style="fill: none; stroke: #000000; stroke-linecap: round"/>
    <path d="M 144.915653 199.520672 
L 148.60164 202.053162 
L 144.364056 203.482457 
L 144.915653 199.520672 
z
" clip-path="url(#pa1f089699c)" style="stroke: #000000; stroke-linecap: round"/>
   </g>
   <g id="patch_44">
    <path d="M 101.421562 195.469821 
Q 152.135692 202.14769 201.741356 208.679599 
" clip-path="url(#pa1f089699c)" style="fill: none; stroke: #000000; stroke-linecap: round"/>
    <path d="M 198.036689 206.174516 
L 201.741356 208.679599 
L 197.51449 210.140283 
L 198.036689 206.174516 
z
" clip-path="url(#pa1f089699c)" style="stroke: #000000; stroke-linecap: round"/>
   </g>
   <g id="patch_45">
    <path d="M 149.705803 202.206894 
Q 125.562283 198.845405 102.526116 195.638093 
" clip-path="url(#pa1f089699c)" style="fill: none; stroke: #000000; stroke-linecap: round"/>
    <path d="M 106.212103 198.170582 
L 102.526116 195.638093 
L 106.7637 194.208797 
L 106.212103 198.170582 
z
" clip-path="url(#pa1f089699c)" style="stroke: #000000; stroke-linecap: round"/>
   </g>
   <g id="patch_46">
    <path d="M 153.547628 202.713013 
Q 178.197738 205.776276 201.738348 208.701662 
" clip-path="url(#pa1f089699c)" style="fill: none; stroke: #000000; stroke-linecap: round"/>
    <path d="M 198.015523 206.223644 
L 201.738348 208.701662 
L 197.522238 210.193111 
L 198.015523 206.223644 
z
" clip-path="url(#pa1f089699c)" style="stroke: #000000; stroke-linecap: round"/>
   </g>
   <g id="patch_47">
    <path d="M 206.581806 208.402152 
Q 228.815815 200.099787 250.002429 192.188527 
" clip-path="url(#pa1f089699c)" style="fill: none; stroke: #000000; stroke-linecap: round"/>
    <path d="M 245.555524 191.714154 
L 250.002429 192.188527 
L 246.954787 195.461428 
L 245.555524 191.714154 
z
" clip-path="url(#pa1f089699c)" style="stroke: #000000; stroke-linecap: round"/>
   </g>
   <g id="patch_48">
    <path d="M 206.697295 209.273768 
Q 255.278388 214.197926 302.747147 219.009339 
" clip-path="url(#pa1f089699c)" style="fill: none; stroke: #000000; stroke-linecap: round"/>
    <path d="M 298.969223 216.616162 
L 302.747147 219.009339 
L 298.565852 220.595772 
L 298.969223 216.616162 
z
" clip-path="url(#pa1f089699c)" style="stroke: #000000; stroke-linecap: round"/>
   </g>
   <g id="patch_49">
    <path d="M 206.422339 210.087557 
Q 227.743664 223.113051 248.110907 235.555682 
" clip-path="url(#pa1f089699c)" style="fill: none; stroke: #000000; stroke-linecap: round"/>
    <path d="M 245.740135 231.763659 
L 248.110907 235.555682 
L 243.654825 235.177086 
L 245.740135 231.763659 
z
" clip-path="url(#pa1f089699c)" style="stroke: #000000; stroke-linecap: round"/>
   </g>
   <g id="patch_50">
    <path d="M 202.852728 208.82594 
Q 152.138598 202.148072 102.532934 195.616163 
" clip-path="url(#pa1f089699c)" style="fill: none; stroke: #000000; stroke-linecap: round"/>
    <path d="M 106.237601 198.121246 
L 102.532934 195.616163 
L 106.7598 194.155479 
L 106.237601 198.121246 
z
" clip-path="url(#pa1f089699c)" style="stroke: #000000; stroke-linecap: round"/>
   </g>
   <g id="patch_51">
    <path d="M 202.847007 208.839435 
Q 178.196897 205.776172 154.656287 202.850786 
" clip-path="url(#pa1f089699c)" style="fill: none; stroke: #000000; stroke-linecap: round"/>
    <path d="M 158.379112 205.328804 
L 154.656287 202.850786 
L 158.872396 201.359337 
L 158.379112 205.328804 
z
" clip-path="url(#pa1f089699c)" style="stroke: #000000; stroke-linecap: round"/>
   </g>
   <g id="PathCollection_1">
    <defs>
     <path id="me4d08d4653" d="M 0 1.936492 
C 0.513564 1.936492 1.006162 1.732451 1.369306 1.369306 
C 1.732451 1.006162 1.936492 0.513564 1.936492 0 
C 1.936492 -0.513564 1.732451 -1.006162 1.369306 -1.369306 
C 1.006162 -1.732451 0.513564 -1.936492 0 -1.936492 
C -0.513564 -1.936492 -1.006162 -1.732451 -1.369306 -1.369306 
C -1.732451 -1.006162 -1.936492 -0.513564 -1.936492 0 
C -1.936492 0.513564 -1.732451 1.006162 -1.369306 1.369306 
C -1.006162 1.732451 -0.513564 1.936492 0 1.936492 
z
" style="stroke: #1f78b4"/>
    </defs>
    <g clip-path="url(#pa1f089699c)">
     <use xlink:href="#me4d08d4653" x="363.428691" y="215.533149" style="fill: #1f78b4; stroke: #1f78b4"/>
     <use xlink:href="#me4d08d4653" x="290.059334" y="300.437726" style="fill: #1f78b4; stroke: #1f78b4"/>
     <use xlink:href="#me4d08d4653" x="63.605958" y="267.88866" style="fill: #1f78b4; stroke: #1f78b4"/>
     <use xlink:href="#me4d08d4653" x="340.744267" y="172.993062" style="fill: #1f78b4; stroke: #1f78b4"/>
     <use xlink:href="#me4d08d4653" x="305.081415" y="139.417069" style="fill: #1f78b4; stroke: #1f78b4"/>
     <use xlink:href="#me4d08d4653" x="252.866287" y="191.119139" style="fill: #1f78b4; stroke: #1f78b4"/>
     <use xlink:href="#me4d08d4653" x="305.785731" y="219.317328" style="fill: #1f78b4; stroke: #1f78b4"/>
     <use xlink:href="#me4d08d4653" x="250.716841" y="237.147683" style="fill: #1f78b4; stroke: #1f78b4"/>
     <use xlink:href="#me4d08d4653" x="369.174037" y="113.170718" style="fill: #1f78b4; stroke: #1f78b4"/>
     <use xlink:href="#me4d08d4653" x="343.793851" y="296.270002" style="fill: #1f78b4; stroke: #1f78b4"/>
     <use xlink:href="#me4d08d4653" x="420.813223" y="76.547412" style="fill: #1f78b4; stroke: #1f78b4"/>
     <use xlink:href="#me4d08d4653" x="389.917255" y="29.990083" style="fill: #1f78b4; stroke: #1f78b4"/>
     <use xlink:href="#me4d08d4653" x="318.215153" y="315.609917" style="fill: #1f78b4; stroke: #1f78b4"/>
     <use xlink:href="#me4d08d4653" x="359.759967" y="260.907136" style="fill: #1f78b4; stroke: #1f78b4"/>
     <use xlink:href="#me4d08d4653" x="44.444994" y="232.824141" style="fill: #1f78b4; stroke: #1f78b4"/>
     <use xlink:href="#me4d08d4653" x="39.986777" y="187.987985" style="fill: #1f78b4; stroke: #1f78b4"/>
     <use xlink:href="#me4d08d4653" x="51.716631" y="148.230463" style="fill: #1f78b4; stroke: #1f78b4"/>
     <use xlink:href="#me4d08d4653" x="101.464704" y="114.67949" style="fill: #1f78b4; stroke: #1f78b4"/>
     <use xlink:href="#me4d08d4653" x="94.261539" y="276.561839" style="fill: #1f78b4; stroke: #1f78b4"/>
     <use xlink:href="#me4d08d4653" x="69.579433" y="113.026492" style="fill: #1f78b4; stroke: #1f78b4"/>
     <use xlink:href="#me4d08d4653" x="99.503705" y="195.217284" style="fill: #1f78b4; stroke: #1f78b4"/>
     <use xlink:href="#me4d08d4653" x="151.62405" y="202.47397" style="fill: #1f78b4; stroke: #1f78b4"/>
     <use xlink:href="#me4d08d4653" x="204.770584" y="209.078477" style="fill: #1f78b4; stroke: #1f78b4"/>
    </g>
   </g>
   <g id="text_1">
    <g clip-path="url(#pa1f089699c)">
     <!-- 0 -->
     <g transform="translate(360.247441 218.292524) scale(0.1 -0.1)">
      <defs>
       <path id="DejaVuSans-30" d="M 2034 4250 
Q 1547 4250 1301 3770 
Q 1056 3291 1056 2328 
Q 1056 1369 1301 889 
Q 1547 409 2034 409 
Q 2525 409 2770 889 
Q 3016 1369 3016 2328 
Q 3016 3291 2770 3770 
Q 2525 4250 2034 4250 
z
M 2034 4750 
Q 2819 4750 3233 4129 
Q 3647 3509 3647 2328 
Q 3647 1150 3233 529 
Q 2819 -91 2034 -91 
Q 1250 -91 836 529 
Q 422 1150 422 2328 
Q 422 3509 836 4129 
Q 1250 4750 2034 4750 
z
" transform="scale(0.015625)"/>
      </defs>
      <use xlink:href="#DejaVuSans-30"/>
     </g>
    </g>
   </g>
   <g id="text_2">
    <g clip-path="url(#pa1f089699c)">
     <!-- 1 -->
     <g transform="translate(286.878084 303.197101) scale(0.1 -0.1)">
      <defs>
       <path id="DejaVuSans-31" d="M 794 531 
L 1825 531 
L 1825 4091 
L 703 3866 
L 703 4441 
L 1819 4666 
L 2450 4666 
L 2450 531 
L 3481 531 
L 3481 0 
L 794 0 
L 794 531 
z
" transform="scale(0.015625)"/>
      </defs>
      <use xlink:href="#DejaVuSans-31"/>
     </g>
    </g>
   </g>
   <g id="text_3">
    <g clip-path="url(#pa1f089699c)">
     <!-- 2 -->
     <g transform="translate(60.424708 270.648035) scale(0.1 -0.1)">
      <defs>
       <path id="DejaVuSans-32" d="M 1228 531 
L 3431 531 
L 3431 0 
L 469 0 
L 469 531 
Q 828 903 1448 1529 
Q 2069 2156 2228 2338 
Q 2531 2678 2651 2914 
Q 2772 3150 2772 3378 
Q 2772 3750 2511 3984 
Q 2250 4219 1831 4219 
Q 1534 4219 1204 4116 
Q 875 4013 500 3803 
L 500 4441 
Q 881 4594 1212 4672 
Q 1544 4750 1819 4750 
Q 2544 4750 2975 4387 
Q 3406 4025 3406 3419 
Q 3406 3131 3298 2873 
Q 3191 2616 2906 2266 
Q 2828 2175 2409 1742 
Q 1991 1309 1228 531 
z
" transform="scale(0.015625)"/>
      </defs>
      <use xlink:href="#DejaVuSans-32"/>
     </g>
    </g>
   </g>
   <g id="text_4">
    <g clip-path="url(#pa1f089699c)">
     <!-- 3 -->
     <g transform="translate(337.563017 175.752437) scale(0.1 -0.1)">
      <defs>
       <path id="DejaVuSans-33" d="M 2597 2516 
Q 3050 2419 3304 2112 
Q 3559 1806 3559 1356 
Q 3559 666 3084 287 
Q 2609 -91 1734 -91 
Q 1441 -91 1130 -33 
Q 819 25 488 141 
L 488 750 
Q 750 597 1062 519 
Q 1375 441 1716 441 
Q 2309 441 2620 675 
Q 2931 909 2931 1356 
Q 2931 1769 2642 2001 
Q 2353 2234 1838 2234 
L 1294 2234 
L 1294 2753 
L 1863 2753 
Q 2328 2753 2575 2939 
Q 2822 3125 2822 3475 
Q 2822 3834 2567 4026 
Q 2313 4219 1838 4219 
Q 1578 4219 1281 4162 
Q 984 4106 628 3988 
L 628 4550 
Q 988 4650 1302 4700 
Q 1616 4750 1894 4750 
Q 2613 4750 3031 4423 
Q 3450 4097 3450 3541 
Q 3450 3153 3228 2886 
Q 3006 2619 2597 2516 
z
" transform="scale(0.015625)"/>
      </defs>
      <use xlink:href="#DejaVuSans-33"/>
     </g>
    </g>
   </g>
   <g id="text_5">
    <g clip-path="url(#pa1f089699c)">
     <!-- 4 -->
     <g transform="translate(301.900165 142.176444) scale(0.1 -0.1)">
      <defs>
       <path id="DejaVuSans-34" d="M 2419 4116 
L 825 1625 
L 2419 1625 
L 2419 4116 
z
M 2253 4666 
L 3047 4666 
L 3047 1625 
L 3713 1625 
L 3713 1100 
L 3047 1100 
L 3047 0 
L 2419 0 
L 2419 1100 
L 313 1100 
L 313 1709 
L 2253 4666 
z
" transform="scale(0.015625)"/>
      </defs>
      <use xlink:href="#DejaVuSans-34"/>
     </g>
    </g>
   </g>
   <g id="text_6">
    <g clip-path="url(#pa1f089699c)">
     <!-- 5 -->
     <g transform="translate(249.685037 193.878514) scale(0.1 -0.1)">
      <defs>
       <path id="DejaVuSans-35" d="M 691 4666 
L 3169 4666 
L 3169 4134 
L 1269 4134 
L 1269 2991 
Q 1406 3038 1543 3061 
Q 1681 3084 1819 3084 
Q 2600 3084 3056 2656 
Q 3513 2228 3513 1497 
Q 3513 744 3044 326 
Q 2575 -91 1722 -91 
Q 1428 -91 1123 -41 
Q 819 9 494 109 
L 494 744 
Q 775 591 1075 516 
Q 1375 441 1709 441 
Q 2250 441 2565 725 
Q 2881 1009 2881 1497 
Q 2881 1984 2565 2268 
Q 2250 2553 1709 2553 
Q 1456 2553 1204 2497 
Q 953 2441 691 2322 
L 691 4666 
z
" transform="scale(0.015625)"/>
      </defs>
      <use xlink:href="#DejaVuSans-35"/>
     </g>
    </g>
   </g>
   <g id="text_7">
    <g clip-path="url(#pa1f089699c)">
     <!-- 6 -->
     <g transform="translate(302.604481 222.076703) scale(0.1 -0.1)">
      <defs>
       <path id="DejaVuSans-36" d="M 2113 2584 
Q 1688 2584 1439 2293 
Q 1191 2003 1191 1497 
Q 1191 994 1439 701 
Q 1688 409 2113 409 
Q 2538 409 2786 701 
Q 3034 994 3034 1497 
Q 3034 2003 2786 2293 
Q 2538 2584 2113 2584 
z
M 3366 4563 
L 3366 3988 
Q 3128 4100 2886 4159 
Q 2644 4219 2406 4219 
Q 1781 4219 1451 3797 
Q 1122 3375 1075 2522 
Q 1259 2794 1537 2939 
Q 1816 3084 2150 3084 
Q 2853 3084 3261 2657 
Q 3669 2231 3669 1497 
Q 3669 778 3244 343 
Q 2819 -91 2113 -91 
Q 1303 -91 875 529 
Q 447 1150 447 2328 
Q 447 3434 972 4092 
Q 1497 4750 2381 4750 
Q 2619 4750 2861 4703 
Q 3103 4656 3366 4563 
z
" transform="scale(0.015625)"/>
      </defs>
      <use xlink:href="#DejaVuSans-36"/>
     </g>
    </g>
   </g>
   <g id="text_8">
    <g clip-path="url(#pa1f089699c)">
     <!-- 7 -->
     <g transform="translate(247.535591 239.907058) scale(0.1 -0.1)">
      <defs>
       <path id="DejaVuSans-37" d="M 525 4666 
L 3525 4666 
L 3525 4397 
L 1831 0 
L 1172 0 
L 2766 4134 
L 525 4134 
L 525 4666 
z
" transform="scale(0.015625)"/>
      </defs>
      <use xlink:href="#DejaVuSans-37"/>
     </g>
    </g>
   </g>
   <g id="text_9">
    <g clip-path="url(#pa1f089699c)">
     <!-- 8 -->
     <g transform="translate(365.992787 115.930093) scale(0.1 -0.1)">
      <defs>
       <path id="DejaVuSans-38" d="M 2034 2216 
Q 1584 2216 1326 1975 
Q 1069 1734 1069 1313 
Q 1069 891 1326 650 
Q 1584 409 2034 409 
Q 2484 409 2743 651 
Q 3003 894 3003 1313 
Q 3003 1734 2745 1975 
Q 2488 2216 2034 2216 
z
M 1403 2484 
Q 997 2584 770 2862 
Q 544 3141 544 3541 
Q 544 4100 942 4425 
Q 1341 4750 2034 4750 
Q 2731 4750 3128 4425 
Q 3525 4100 3525 3541 
Q 3525 3141 3298 2862 
Q 3072 2584 2669 2484 
Q 3125 2378 3379 2068 
Q 3634 1759 3634 1313 
Q 3634 634 3220 271 
Q 2806 -91 2034 -91 
Q 1263 -91 848 271 
Q 434 634 434 1313 
Q 434 1759 690 2068 
Q 947 2378 1403 2484 
z
M 1172 3481 
Q 1172 3119 1398 2916 
Q 1625 2713 2034 2713 
Q 2441 2713 2670 2916 
Q 2900 3119 2900 3481 
Q 2900 3844 2670 4047 
Q 2441 4250 2034 4250 
Q 1625 4250 1398 4047 
Q 1172 3844 1172 3481 
z
" transform="scale(0.015625)"/>
      </defs>
      <use xlink:href="#DejaVuSans-38"/>
     </g>
    </g>
   </g>
   <g id="text_10">
    <g clip-path="url(#pa1f089699c)">
     <!-- 9 -->
     <g transform="translate(340.612601 299.029377) scale(0.1 -0.1)">
      <defs>
       <path id="DejaVuSans-39" d="M 703 97 
L 703 672 
Q 941 559 1184 500 
Q 1428 441 1663 441 
Q 2288 441 2617 861 
Q 2947 1281 2994 2138 
Q 2813 1869 2534 1725 
Q 2256 1581 1919 1581 
Q 1219 1581 811 2004 
Q 403 2428 403 3163 
Q 403 3881 828 4315 
Q 1253 4750 1959 4750 
Q 2769 4750 3195 4129 
Q 3622 3509 3622 2328 
Q 3622 1225 3098 567 
Q 2575 -91 1691 -91 
Q 1453 -91 1209 -44 
Q 966 3 703 97 
z
M 1959 2075 
Q 2384 2075 2632 2365 
Q 2881 2656 2881 3163 
Q 2881 3666 2632 3958 
Q 2384 4250 1959 4250 
Q 1534 4250 1286 3958 
Q 1038 3666 1038 3163 
Q 1038 2656 1286 2365 
Q 1534 2075 1959 2075 
z
" transform="scale(0.015625)"/>
      </defs>
      <use xlink:href="#DejaVuSans-39"/>
     </g>
    </g>
   </g>
   <g id="text_11">
    <g clip-path="url(#pa1f089699c)">
     <!-- 10 -->
     <g transform="translate(414.450723 79.306787) scale(0.1 -0.1)">
      <use xlink:href="#DejaVuSans-31"/>
      <use xlink:href="#DejaVuSans-30" x="63.623047"/>
     </g>
    </g>
   </g>
   <g id="text_12">
    <g clip-path="url(#pa1f089699c)">
     <!-- 11 -->
     <g transform="translate(383.554755 32.749458) scale(0.1 -0.1)">
      <use xlink:href="#DejaVuSans-31"/>
      <use xlink:href="#DejaVuSans-31" x="63.623047"/>
     </g>
    </g>
   </g>
   <g id="text_13">
    <g clip-path="url(#pa1f089699c)">
     <!-- 12 -->
     <g transform="translate(311.852653 318.369292) scale(0.1 -0.1)">
      <use xlink:href="#DejaVuSans-31"/>
      <use xlink:href="#DejaVuSans-32" x="63.623047"/>
     </g>
    </g>
   </g>
   <g id="text_14">
    <g clip-path="url(#pa1f089699c)">
     <!-- 13 -->
     <g transform="translate(353.397467 263.666511) scale(0.1 -0.1)">
      <use xlink:href="#DejaVuSans-31"/>
      <use xlink:href="#DejaVuSans-33" x="63.623047"/>
     </g>
    </g>
   </g>
   <g id="text_15">
    <g clip-path="url(#pa1f089699c)">
     <!-- 14 -->
     <g transform="translate(38.082494 235.583516) scale(0.1 -0.1)">
      <use xlink:href="#DejaVuSans-31"/>
      <use xlink:href="#DejaVuSans-34" x="63.623047"/>
     </g>
    </g>
   </g>
   <g id="text_16">
    <g clip-path="url(#pa1f089699c)">
     <!-- 15 -->
     <g transform="translate(33.624277 190.74736) scale(0.1 -0.1)">
      <use xlink:href="#DejaVuSans-31"/>
      <use xlink:href="#DejaVuSans-35" x="63.623047"/>
     </g>
    </g>
   </g>
   <g id="text_17">
    <g clip-path="url(#pa1f089699c)">
     <!-- 16 -->
     <g transform="translate(45.354131 150.989838) scale(0.1 -0.1)">
      <use xlink:href="#DejaVuSans-31"/>
      <use xlink:href="#DejaVuSans-36" x="63.623047"/>
     </g>
    </g>
   </g>
   <g id="text_18">
    <g clip-path="url(#pa1f089699c)">
     <!-- 17 -->
     <g transform="translate(95.102204 117.438865) scale(0.1 -0.1)">
      <use xlink:href="#DejaVuSans-31"/>
      <use xlink:href="#DejaVuSans-37" x="63.623047"/>
     </g>
    </g>
   </g>
   <g id="text_19">
    <g clip-path="url(#pa1f089699c)">
     <!-- 18 -->
     <g transform="translate(87.899039 279.321214) scale(0.1 -0.1)">
      <use xlink:href="#DejaVuSans-31"/>
      <use xlink:href="#DejaVuSans-38" x="63.623047"/>
     </g>
    </g>
   </g>
   <g id="text_20">
    <g clip-path="url(#pa1f089699c)">
     <!-- 19 -->
     <g transform="translate(63.216933 115.785867) scale(0.1 -0.1)">
      <use xlink:href="#DejaVuSans-31"/>
      <use xlink:href="#DejaVuSans-39" x="63.623047"/>
     </g>
    </g>
   </g>
   <g id="text_21">
    <g clip-path="url(#pa1f089699c)">
     <!-- 20 -->
     <g transform="translate(93.141205 197.976659) scale(0.1 -0.1)">
      <use xlink:href="#DejaVuSans-32"/>
      <use xlink:href="#DejaVuSans-30" x="63.623047"/>
     </g>
    </g>
   </g>
   <g id="text_22">
    <g clip-path="url(#pa1f089699c)">
     <!-- 21 -->
     <g transform="translate(145.26155 205.233345) scale(0.1 -0.1)">
      <use xlink:href="#DejaVuSans-32"/>
      <use xlink:href="#DejaVuSans-31" x="63.623047"/>
     </g>
    </g>
   </g>
   <g id="text_23">
    <g clip-path="url(#pa1f089699c)">
     <!-- 22 -->
     <g transform="translate(198.408084 211.837852) scale(0.1 -0.1)">
      <use xlink:href="#DejaVuSans-32"/>
      <use xlink:href="#DejaVuSans-32" x="63.623047"/>
     </g>
    </g>
   </g>
  </g>
 </g>
 <defs>
  <clipPath id="pa1f089699c">
   <rect x="0" y="0" width="460.8" height="345.6"/>
  </clipPath>
 </defs>
</svg>
