<?xml version="1.0" encoding="utf-8" standalone="no"?>
<!DOCTYPE svg PUBLIC "-//W3C//DTD SVG 1.1//EN"
  "http://www.w3.org/Graphics/SVG/1.1/DTD/svg11.dtd">
<svg xmlns:xlink="http://www.w3.org/1999/xlink" width="460.8pt" height="345.6pt" viewBox="0 0 460.8 345.6" xmlns="http://www.w3.org/2000/svg" version="1.1">
 <metadata>
  <rdf:RDF xmlns:dc="http://purl.org/dc/elements/1.1/" xmlns:cc="http://creativecommons.org/ns#" xmlns:rdf="http://www.w3.org/1999/02/22-rdf-syntax-ns#">
   <cc:Work>
    <dc:type rdf:resource="http://purl.org/dc/dcmitype/StillImage"/>
    <dc:date>2023-10-10T10:56:09.932248</dc:date>
    <dc:format>image/svg+xml</dc:format>
    <dc:creator>
     <cc:Agent>
      <dc:title>Matplotlib v3.6.1, https://matplotlib.org/</dc:title>
     </cc:Agent>
    </dc:creator>
   </cc:Work>
  </rdf:RDF>
 </metadata>
 <defs>
  <style type="text/css">*{stroke-linejoin: round; stroke-linecap: butt}</style>
 </defs>
 <g id="figure_1">
  <g id="patch_1">
   <path d="M 0 345.6 
L 460.8 345.6 
L 460.8 0 
L 0 0 
z
" style="fill: #ffffff"/>
  </g>
  <g id="axes_1">
   <g id="patch_2">
    <path d="M 341.460863 76.413823 
Q 326.402062 91.433499 312.134858 105.663634 
" clip-path="url(#pad1e4d70f6)" style="fill: none; stroke: #000000; stroke-linecap: round"/>
    <path d="M 316.379334 104.254941 
L 312.134858 105.663634 
L 313.554589 101.422837 
L 316.379334 104.254941 
z
" clip-path="url(#pad1e4d70f6)" style="stroke: #000000; stroke-linecap: round"/>
   </g>
   <g id="patch_3">
    <path d="M 182.192094 313.696994 
Q 186.216121 287.676641 190.069276 262.761187 
" clip-path="url(#pad1e4d70f6)" style="fill: none; stroke: #000000; stroke-linecap: round"/>
    <path d="M 187.481443 266.408531 
L 190.069276 262.761187 
L 191.434451 267.019861 
L 187.481443 266.408531 
z
" clip-path="url(#pad1e4d70f6)" style="stroke: #000000; stroke-linecap: round"/>
   </g>
   <g id="patch_4">
    <path d="M 331.4568 59.631502 
Q 321.108921 82.841878 311.216299 105.031107 
" clip-path="url(#pad1e4d70f6)" style="fill: none; stroke: #000000; stroke-linecap: round"/>
    <path d="M 314.671761 102.192131 
L 311.216299 105.031107 
L 311.018396 100.563352 
L 314.671761 102.192131 
z
" clip-path="url(#pad1e4d70f6)" style="stroke: #000000; stroke-linecap: round"/>
   </g>
   <g id="patch_5">
    <path d="M 364.847629 206.372582 
Q 350.460847 190.138382 336.81559 174.740926 
" clip-path="url(#pad1e4d70f6)" style="fill: none; stroke: #000000; stroke-linecap: round"/>
    <path d="M 337.971736 179.061034 
L 336.81559 174.740926 
L 340.965363 176.408075 
L 337.971736 179.061034 
z
" clip-path="url(#pad1e4d70f6)" style="stroke: #000000; stroke-linecap: round"/>
   </g>
   <g id="patch_6">
    <path d="M 190.240204 261.655926 
Q 186.216177 287.676279 182.363022 312.591732 
" clip-path="url(#pad1e4d70f6)" style="fill: none; stroke: #000000; stroke-linecap: round"/>
    <path d="M 184.950856 308.944389 
L 182.363022 312.591732 
L 180.997847 308.333059 
L 184.950856 308.944389 
z
" clip-path="url(#pad1e4d70f6)" style="stroke: #000000; stroke-linecap: round"/>
   </g>
   <g id="patch_7">
    <path d="M 190.055451 257.867381 
Q 182.485466 228.323333 175.192986 199.862331 
" clip-path="url(#pad1e4d70f6)" style="fill: none; stroke: #000000; stroke-linecap: round"/>
    <path d="M 174.248409 204.233575 
L 175.192986 199.862331 
L 178.123235 203.240739 
L 174.248409 204.233575 
z
" clip-path="url(#pad1e4d70f6)" style="stroke: #000000; stroke-linecap: round"/>
   </g>
   <g id="patch_8">
    <path d="M 189.547721 261.408324 
Q 176.882732 282.748951 164.788343 303.128113 
" clip-path="url(#pad1e4d70f6)" style="fill: none; stroke: #000000; stroke-linecap: round"/>
    <path d="M 168.549704 300.708988 
L 164.788343 303.128113 
L 165.10986 298.667549 
L 168.549704 300.708988 
z
" clip-path="url(#pad1e4d70f6)" style="stroke: #000000; stroke-linecap: round"/>
   </g>
   <g id="patch_9">
    <path d="M 191.777211 258.262398 
Q 214.126497 231.601801 235.757531 205.798011 
" clip-path="url(#pad1e4d70f6)" style="fill: none; stroke: #000000; stroke-linecap: round"/>
    <path d="M 231.655139 207.578566 
L 235.757531 205.798011 
L 234.72054 210.148258 
L 231.655139 207.578566 
z
" clip-path="url(#pad1e4d70f6)" style="stroke: #000000; stroke-linecap: round"/>
   </g>
   <g id="patch_10">
    <path d="M 262.824486 218.893791 
Q 251.097174 211.68436 240.322312 205.060454 
" clip-path="url(#pad1e4d70f6)" style="fill: none; stroke: #000000; stroke-linecap: round"/>
    <path d="M 242.682484 208.859083 
L 240.322312 205.060454 
L 244.777319 205.451493 
L 242.682484 208.859083 
z
" clip-path="url(#pad1e4d70f6)" style="stroke: #000000; stroke-linecap: round"/>
   </g>
   <g id="patch_11">
    <path d="M 210.052196 240.488293 
Q 223.305047 222.750183 235.888717 205.907729 
" clip-path="url(#pad1e4d70f6)" style="fill: none; stroke: #000000; stroke-linecap: round"/>
    <path d="M 231.89239 207.915058 
L 235.888717 205.907729 
L 235.096784 210.309188 
L 231.89239 207.915058 
z
" clip-path="url(#pad1e4d70f6)" style="stroke: #000000; stroke-linecap: round"/>
   </g>
   <g id="patch_12">
    <path d="M 206.960311 241.981729 
Q 191.870425 241.525999 177.898062 241.104019 
" clip-path="url(#pad1e4d70f6)" style="fill: none; stroke: #000000; stroke-linecap: round"/>
    <path d="M 181.835865 243.223857 
L 177.898062 241.104019 
L 181.956614 239.22568 
L 181.835865 243.223857 
z
" clip-path="url(#pad1e4d70f6)" style="stroke: #000000; stroke-linecap: round"/>
   </g>
   <g id="patch_13">
    <path d="M 164.218176 304.088851 
Q 176.883164 282.748223 188.977553 262.369061 
" clip-path="url(#pad1e4d70f6)" style="fill: none; stroke: #000000; stroke-linecap: round"/>
    <path d="M 185.216192 264.788186 
L 188.977553 262.369061 
L 188.656037 266.829625 
L 185.216192 264.788186 
z
" clip-path="url(#pad1e4d70f6)" style="stroke: #000000; stroke-linecap: round"/>
   </g>
   <g id="patch_14">
    <path d="M 174.914569 198.775726 
Q 182.484554 228.319774 189.777034 256.780776 
" clip-path="url(#pad1e4d70f6)" style="fill: none; stroke: #000000; stroke-linecap: round"/>
    <path d="M 190.721611 252.409532 
L 189.777034 256.780776 
L 186.846785 253.402368 
L 190.721611 252.409532 
z
" clip-path="url(#pad1e4d70f6)" style="stroke: #000000; stroke-linecap: round"/>
   </g>
   <g id="patch_15">
    <path d="M 176.199906 197.68966 
Q 189.164414 203.486174 201.10826 208.826344 
" clip-path="url(#pad1e4d70f6)" style="fill: none; stroke: #000000; stroke-linecap: round"/>
    <path d="M 198.272964 205.367862 
L 201.10826 208.826344 
L 196.640297 209.019492 
L 198.272964 205.367862 
z
" clip-path="url(#pad1e4d70f6)" style="stroke: #000000; stroke-linecap: round"/>
   </g>
   <g id="patch_16">
    <path d="M 174.452152 198.835919 
Q 174.640978 218.954719 174.819312 237.955533 
" clip-path="url(#pad1e4d70f6)" style="fill: none; stroke: #000000; stroke-linecap: round"/>
    <path d="M 176.781683 233.936939 
L 174.819312 237.955533 
L 172.781859 233.97448 
L 176.781683 233.936939 
z
" clip-path="url(#pad1e4d70f6)" style="stroke: #000000; stroke-linecap: round"/>
   </g>
   <g id="patch_17">
    <path d="M 174.687618 194.979865 
Q 175.71051 187.235651 176.586998 180.599843 
" clip-path="url(#pad1e4d70f6)" style="fill: none; stroke: #000000; stroke-linecap: round"/>
    <path d="M 174.08043 184.303506 
L 176.586998 180.599843 
L 178.045987 184.827295 
L 174.08043 184.303506 
z
" clip-path="url(#pad1e4d70f6)" style="stroke: #000000; stroke-linecap: round"/>
   </g>
   <g id="patch_18">
    <path d="M 173.094807 198.296184 
Q 156.710665 215.376496 141.100478 231.649966 
" clip-path="url(#pad1e4d70f6)" style="fill: none; stroke: #000000; stroke-linecap: round"/>
    <path d="M 145.312787 230.147817 
L 141.100478 231.649966 
L 142.426144 227.37883 
L 145.312787 230.147817 
z
" clip-path="url(#pad1e4d70f6)" style="stroke: #000000; stroke-linecap: round"/>
   </g>
   <g id="patch_19">
    <path d="M 176.361395 197.099878 
Q 206.075361 200.179695 234.677251 203.144245 
" clip-path="url(#pad1e4d70f6)" style="fill: none; stroke: #000000; stroke-linecap: round"/>
    <path d="M 230.904758 200.742517 
L 234.677251 203.144245 
L 230.492372 204.721202 
L 230.904758 200.742517 
z
" clip-path="url(#pad1e4d70f6)" style="stroke: #000000; stroke-linecap: round"/>
   </g>
   <g id="patch_20">
    <path d="M 173.680376 195.118802 
Q 154.487168 149.751807 135.729581 105.414489 
" clip-path="url(#pad1e4d70f6)" style="fill: none; stroke: #000000; stroke-linecap: round"/>
    <path d="M 135.446163 109.877635 
L 135.729581 105.414489 
L 139.130047 108.319111 
L 135.446163 109.877635 
z
" clip-path="url(#pad1e4d70f6)" style="stroke: #000000; stroke-linecap: round"/>
   </g>
   <g id="patch_21">
    <path d="M 140.327157 232.456147 
Q 156.711299 215.375835 172.321485 199.102364 
" clip-path="url(#pad1e4d70f6)" style="fill: none; stroke: #000000; stroke-linecap: round"/>
    <path d="M 168.109176 200.604514 
L 172.321485 199.102364 
L 170.995819 203.373501 
L 168.109176 200.604514 
z
" clip-path="url(#pad1e4d70f6)" style="stroke: #000000; stroke-linecap: round"/>
   </g>
   <g id="patch_22">
    <path d="M 41.564049 36.885175 
Q 59.071554 49.365014 75.66865 61.195889 
" clip-path="url(#pad1e4d70f6)" style="fill: none; stroke: #000000; stroke-linecap: round"/>
    <path d="M 73.572376 57.245493 
L 75.66865 61.195889 
L 71.250569 60.502671 
L 73.572376 57.245493 
z
" clip-path="url(#pad1e4d70f6)" style="stroke: #000000; stroke-linecap: round"/>
   </g>
   <g id="patch_23">
    <path d="M 256.667278 292.382257 
Q 257.542077 265.235602 258.380866 239.2064 
" clip-path="url(#pad1e4d70f6)" style="fill: none; stroke: #000000; stroke-linecap: round"/>
    <path d="M 256.253071 243.139909 
L 258.380866 239.2064 
L 260.250996 243.268742 
L 256.253071 243.139909 
z
" clip-path="url(#pad1e4d70f6)" style="stroke: #000000; stroke-linecap: round"/>
   </g>
   <g id="patch_24">
    <path d="M 229.514946 150.832028 
Q 204.114776 163.763637 179.710947 176.187993 
" clip-path="url(#pad1e4d70f6)" style="fill: none; stroke: #000000; stroke-linecap: round"/>
    <path d="M 184.182965 176.155502 
L 179.710947 176.187993 
L 182.368164 172.590884 
L 184.182965 176.155502 
z
" clip-path="url(#pad1e4d70f6)" style="stroke: #000000; stroke-linecap: round"/>
   </g>
   <g id="patch_25">
    <path d="M 229.355016 149.520325 
Q 187.180506 139.825197 146.09561 130.380551 
" clip-path="url(#pad1e4d70f6)" style="fill: none; stroke: #000000; stroke-linecap: round"/>
    <path d="M 149.545856 133.225863 
L 146.09561 130.380551 
L 150.442007 129.327541 
L 149.545856 133.225863 
z
" clip-path="url(#pad1e4d70f6)" style="stroke: #000000; stroke-linecap: round"/>
   </g>
   <g id="patch_26">
    <path d="M 231.473049 151.877203 
Q 234.479058 176.706492 237.350691 200.425853 
" clip-path="url(#pad1e4d70f6)" style="fill: none; stroke: #000000; stroke-linecap: round"/>
    <path d="M 238.855435 196.21447 
L 237.350691 200.425853 
L 234.884431 196.695228 
L 238.855435 196.21447 
z
" clip-path="url(#pad1e4d70f6)" style="stroke: #000000; stroke-linecap: round"/>
   </g>
   <g id="patch_27">
    <path d="M 230.018866 148.451826 
Q 222.510738 139.218975 215.707999 130.853549 
" clip-path="url(#pad1e4d70f6)" style="fill: none; stroke: #000000; stroke-linecap: round"/>
    <path d="M 216.679973 135.218782 
L 215.707999 130.853549 
L 219.78337 132.695109 
L 216.679973 135.218782 
z
" clip-path="url(#pad1e4d70f6)" style="stroke: #000000; stroke-linecap: round"/>
   </g>
   <g id="patch_28">
    <path d="M 231.822893 151.797817 
Q 244.859381 193.054417 257.559003 233.244938 
" clip-path="url(#pad1e4d70f6)" style="fill: none; stroke: #000000; stroke-linecap: round"/>
    <path d="M 258.260856 228.82822 
L 257.559003 233.244938 
L 254.44674 230.033425 
L 258.260856 228.82822 
z
" clip-path="url(#pad1e4d70f6)" style="stroke: #000000; stroke-linecap: round"/>
   </g>
   <g id="patch_29">
    <path d="M 232.159215 148.251983 
Q 249.122291 116.842947 265.554081 86.417646 
" clip-path="url(#pad1e4d70f6)" style="fill: none; stroke: #000000; stroke-linecap: round"/>
    <path d="M 261.893535 88.986772 
L 265.554081 86.417646 
L 265.413054 90.887558 
L 261.893535 88.986772 
z
" clip-path="url(#pad1e4d70f6)" style="stroke: #000000; stroke-linecap: round"/>
   </g>
   <g id="patch_30">
    <path d="M 232.948519 149.039469 
Q 270.606301 128.886942 307.278326 109.261942 
" clip-path="url(#pad1e4d70f6)" style="fill: none; stroke: #000000; stroke-linecap: round"/>
    <path d="M 302.807908 109.385904 
L 307.278326 109.261942 
L 304.695245 112.912653 
L 302.807908 109.385904 
z
" clip-path="url(#pad1e4d70f6)" style="stroke: #000000; stroke-linecap: round"/>
   </g>
   <g id="patch_31">
    <path d="M 373.74852 109.217346 
Q 354.775927 140.011103 336.389799 169.85299 
" clip-path="url(#pad1e4d70f6)" style="fill: none; stroke: #000000; stroke-linecap: round"/>
    <path d="M 340.190759 167.496573 
L 336.389799 169.85299 
L 336.785241 165.398371 
L 340.190759 167.496573 
z
" clip-path="url(#pad1e4d70f6)" style="stroke: #000000; stroke-linecap: round"/>
   </g>
   <g id="patch_32">
    <path d="M 375.856947 105.962199 
Q 389.203772 86.342198 401.921746 67.646614 
" clip-path="url(#pad1e4d70f6)" style="fill: none; stroke: #000000; stroke-linecap: round"/>
    <path d="M 398.018256 69.82899 
L 401.921746 67.646614 
L 401.325553 72.078832 
L 398.018256 69.82899 
z
" clip-path="url(#pad1e4d70f6)" style="stroke: #000000; stroke-linecap: round"/>
   </g>
   <g id="patch_33">
    <path d="M 372.832203 107.573445 
Q 342.371333 107.692878 313.028488 107.807927 
" clip-path="url(#pad1e4d70f6)" style="fill: none; stroke: #000000; stroke-linecap: round"/>
    <path d="M 317.036299 109.792228 
L 313.028488 107.807927 
L 317.020616 105.792259 
L 317.036299 109.792228 
z
" clip-path="url(#pad1e4d70f6)" style="stroke: #000000; stroke-linecap: round"/>
   </g>
   <g id="patch_34">
    <path d="M 376.404928 106.534709 
Q 395.581849 94.469073 413.812459 82.998833 
" clip-path="url(#pad1e4d70f6)" style="fill: none; stroke: #000000; stroke-linecap: round"/>
    <path d="M 409.361758 83.43617 
L 413.812459 82.998833 
L 411.491908 86.821796 
L 409.361758 83.43617 
z
" clip-path="url(#pad1e4d70f6)" style="stroke: #000000; stroke-linecap: round"/>
   </g>
   <g id="patch_35">
    <path d="M 376.69122 107.379801 
Q 397.789476 105.340738 417.774884 103.409227 
" clip-path="url(#pad1e4d70f6)" style="fill: none; stroke: #000000; stroke-linecap: round"/>
    <path d="M 413.601039 101.803294 
L 417.774884 103.409227 
L 413.985831 105.784743 
L 413.601039 101.803294 
z
" clip-path="url(#pad1e4d70f6)" style="stroke: #000000; stroke-linecap: round"/>
   </g>
   <g id="patch_36">
    <path d="M 270.787572 31.921969 
Q 268.967449 56.859322 267.228713 80.681606 
" clip-path="url(#pad1e4d70f6)" style="fill: none; stroke: #000000; stroke-linecap: round"/>
    <path d="M 269.514583 76.837806 
L 267.228713 80.681606 
L 265.525195 76.54663 
L 269.514583 76.837806 
z
" clip-path="url(#pad1e4d70f6)" style="stroke: #000000; stroke-linecap: round"/>
   </g>
   <g id="patch_37">
    <path d="M 302.200157 88.924879 
Q 315.132054 106.104974 327.391574 122.391811 
" clip-path="url(#pad1e4d70f6)" style="fill: none; stroke: #000000; stroke-linecap: round"/>
    <path d="M 326.58391 117.993212 
L 327.391574 122.391811 
L 323.388096 120.398783 
L 326.58391 117.993212 
z
" clip-path="url(#pad1e4d70f6)" style="stroke: #000000; stroke-linecap: round"/>
   </g>
   <g id="patch_38">
    <path d="M 299.111989 87.171086 
Q 284.021302 85.553043 270.042279 84.054194 
" clip-path="url(#pad1e4d70f6)" style="fill: none; stroke: #000000; stroke-linecap: round"/>
    <path d="M 273.806262 86.469237 
L 270.042279 84.054194 
L 274.232703 82.492034 
L 273.806262 86.469237 
z
" clip-path="url(#pad1e4d70f6)" style="stroke: #000000; stroke-linecap: round"/>
   </g>
   <g id="patch_39">
    <path d="M 174.605629 149.143522 
Q 205.427009 175.669096 235.400973 201.465365 
" clip-path="url(#pad1e4d70f6)" style="fill: none; stroke: #000000; stroke-linecap: round"/>
    <path d="M 233.673787 197.340219 
L 235.400973 201.465365 
L 231.064545 200.372026 
L 233.673787 197.340219 
z
" clip-path="url(#pad1e4d70f6)" style="stroke: #000000; stroke-linecap: round"/>
   </g>
   <g id="patch_40">
    <path d="M 171.88172 146.406962 
Q 153.838891 125.241687 136.521376 104.927247 
" clip-path="url(#pad1e4d70f6)" style="fill: none; stroke: #000000; stroke-linecap: round"/>
    <path d="M 137.594318 109.268767 
L 136.521376 104.927247 
L 140.638357 106.673806 
L 137.594318 109.268767 
z
" clip-path="url(#pad1e4d70f6)" style="stroke: #000000; stroke-linecap: round"/>
   </g>
   <g id="patch_41">
    <path d="M 172.961076 145.950238 
Q 171.204147 126.717461 169.548928 108.598082 
" clip-path="url(#pad1e4d70f6)" style="fill: none; stroke: #000000; stroke-linecap: round"/>
    <path d="M 167.921109 112.763439 
L 169.548928 108.598082 
L 171.904523 112.399552 
L 167.921109 112.763439 
z
" clip-path="url(#pad1e4d70f6)" style="stroke: #000000; stroke-linecap: round"/>
   </g>
   <g id="patch_42">
    <path d="M 171.30508 148.507654 
Q 154.232635 154.356946 138.217869 159.84386 
" clip-path="url(#pad1e4d70f6)" style="fill: none; stroke: #000000; stroke-linecap: round"/>
    <path d="M 142.650173 160.439412 
L 138.217869 159.84386 
L 141.353692 156.655348 
L 142.650173 160.439412 
z
" clip-path="url(#pad1e4d70f6)" style="stroke: #000000; stroke-linecap: round"/>
   </g>
   <g id="patch_43">
    <path d="M 171.477404 146.874375 
Q 158.127311 138.787552 145.73349 131.27999 
" clip-path="url(#pad1e4d70f6)" style="fill: none; stroke: #000000; stroke-linecap: round"/>
    <path d="M 148.118536 135.063052 
L 145.73349 131.27999 
L 150.190967 131.64179 
L 148.118536 135.063052 
z
" clip-path="url(#pad1e4d70f6)" style="stroke: #000000; stroke-linecap: round"/>
   </g>
   <g id="patch_44">
    <path d="M 109.169882 60.541232 
Q 121.355682 80.744312 132.964032 99.990027 
" clip-path="url(#pad1e4d70f6)" style="fill: none; stroke: #000000; stroke-linecap: round"/>
    <path d="M 132.610672 95.531873 
L 132.964032 99.990027 
L 129.185493 97.597822 
L 132.610672 95.531873 
z
" clip-path="url(#pad1e4d70f6)" style="stroke: #000000; stroke-linecap: round"/>
   </g>
   <g id="patch_45">
    <path d="M 76.580891 61.84616 
Q 59.073386 49.36632 42.47629 37.535445 
" clip-path="url(#pad1e4d70f6)" style="fill: none; stroke: #000000; stroke-linecap: round"/>
    <path d="M 44.572564 41.485842 
L 42.47629 37.535445 
L 46.894372 38.228664 
L 44.572564 41.485842 
z
" clip-path="url(#pad1e4d70f6)" style="stroke: #000000; stroke-linecap: round"/>
   </g>
   <g id="patch_46">
    <path d="M 79.744598 64.08564 
Q 106.351461 82.788464 132.043658 100.848339 
" clip-path="url(#pad1e4d70f6)" style="fill: none; stroke: #000000; stroke-linecap: round"/>
    <path d="M 129.921387 96.911847 
L 132.043658 100.848339 
L 127.621102 100.184261 
L 129.921387 96.911847 
z
" clip-path="url(#pad1e4d70f6)" style="stroke: #000000; stroke-linecap: round"/>
   </g>
   <g id="patch_47">
    <path d="M 135.293863 104.384581 
Q 154.487071 149.751576 173.244658 194.088894 
" clip-path="url(#pad1e4d70f6)" style="fill: none; stroke: #000000; stroke-linecap: round"/>
    <path d="M 173.528076 189.625748 
L 173.244658 194.088894 
L 169.844191 191.184272 
L 173.528076 189.625748 
z
" clip-path="url(#pad1e4d70f6)" style="stroke: #000000; stroke-linecap: round"/>
   </g>
   <g id="patch_48">
    <path d="M 135.795886 104.076205 
Q 153.838715 125.24148 171.15623 145.55592 
" clip-path="url(#pad1e4d70f6)" style="fill: none; stroke: #000000; stroke-linecap: round"/>
    <path d="M 170.083288 141.2144 
L 171.15623 145.55592 
L 167.039248 143.809362 
L 170.083288 141.2144 
z
" clip-path="url(#pad1e4d70f6)" style="stroke: #000000; stroke-linecap: round"/>
   </g>
   <g id="patch_49">
    <path d="M 133.540763 100.9462 
Q 121.354962 80.743119 109.746613 61.497405 
" clip-path="url(#pad1e4d70f6)" style="fill: none; stroke: #000000; stroke-linecap: round"/>
    <path d="M 110.099973 65.955559 
L 109.746613 61.497405 
L 113.525152 63.889609 
L 110.099973 65.955559 
z
" clip-path="url(#pad1e4d70f6)" style="stroke: #000000; stroke-linecap: round"/>
   </g>
   <g id="patch_50">
    <path d="M 132.953821 101.488122 
Q 106.346957 82.785298 80.654761 64.725423 
" clip-path="url(#pad1e4d70f6)" style="fill: none; stroke: #000000; stroke-linecap: round"/>
    <path d="M 82.777032 68.661915 
L 80.654761 64.725423 
L 85.077317 65.389501 
L 82.777032 68.661915 
z
" clip-path="url(#pad1e4d70f6)" style="stroke: #000000; stroke-linecap: round"/>
   </g>
   <g id="patch_51">
    <path d="M 134.069761 100.728331 
Q 127.494478 74.525461 121.191316 49.407003 
" clip-path="url(#pad1e4d70f6)" style="fill: none; stroke: #000000; stroke-linecap: round"/>
    <path d="M 120.225025 53.773498 
L 121.191316 49.407003 
L 124.104738 52.799933 
L 120.225025 53.773498 
z
" clip-path="url(#pad1e4d70f6)" style="stroke: #000000; stroke-linecap: round"/>
   </g>
   <g id="patch_52">
    <path d="M 134.617152 100.669705 
Q 135.557942 77.013428 136.454304 54.474302 
" clip-path="url(#pad1e4d70f6)" style="fill: none; stroke: #000000; stroke-linecap: round"/>
    <path d="M 134.296932 58.391667 
L 136.454304 54.474302 
L 138.293773 58.550618 
L 134.296932 58.391667 
z
" clip-path="url(#pad1e4d70f6)" style="stroke: #000000; stroke-linecap: round"/>
   </g>
   <g id="patch_53">
    <path d="M 120.918276 48.318923 
Q 127.493558 74.521793 133.79672 99.640251 
" clip-path="url(#pad1e4d70f6)" style="fill: none; stroke: #000000; stroke-linecap: round"/>
    <path d="M 134.763011 95.273755 
L 133.79672 99.640251 
L 130.883299 96.247321 
L 134.763011 95.273755 
z
" clip-path="url(#pad1e4d70f6)" style="stroke: #000000; stroke-linecap: round"/>
   </g>
   <g id="patch_54">
    <path d="M 136.498695 53.358066 
Q 135.557905 77.014343 134.661543 99.553469 
" clip-path="url(#pad1e4d70f6)" style="fill: none; stroke: #000000; stroke-linecap: round"/>
    <path d="M 136.818915 95.636104 
L 134.661543 99.553469 
L 132.822074 95.477153 
L 136.818915 95.636104 
z
" clip-path="url(#pad1e4d70f6)" style="stroke: #000000; stroke-linecap: round"/>
   </g>
   <g id="patch_55">
    <path d="M 375.156415 163.321401 
Q 355.917083 167.673413 337.768234 171.778753 
" clip-path="url(#pad1e4d70f6)" style="fill: none; stroke: #000000; stroke-linecap: round"/>
    <path d="M 342.110924 172.84695 
L 337.768234 171.778753 
L 341.228405 168.945519 
L 342.110924 172.84695 
z
" clip-path="url(#pad1e4d70f6)" style="stroke: #000000; stroke-linecap: round"/>
   </g>
   <g id="patch_56">
    <path d="M 382.385297 179.83664 
Q 359.543854 176.293268 337.807231 172.921286 
" clip-path="url(#pad1e4d70f6)" style="fill: none; stroke: #000000; stroke-linecap: round"/>
    <path d="M 341.453361 175.510829 
L 337.807231 172.921286 
L 342.066543 171.558107 
L 341.453361 175.510829 
z
" clip-path="url(#pad1e4d70f6)" style="stroke: #000000; stroke-linecap: round"/>
   </g>
   <g id="patch_57">
    <path d="M 249.989335 253.529462 
Q 244.083958 229.434167 238.444717 206.424768 
" clip-path="url(#pad1e4d70f6)" style="fill: none; stroke: #000000; stroke-linecap: round"/>
    <path d="M 237.454363 210.785869 
L 238.444717 206.424768 
L 241.339385 209.833711 
L 237.454363 210.785869 
z
" clip-path="url(#pad1e4d70f6)" style="stroke: #000000; stroke-linecap: round"/>
   </g>
   <g id="patch_58">
    <path d="M 258.416793 238.09153 
Q 257.541994 265.238185 256.703204 291.267386 
" clip-path="url(#pad1e4d70f6)" style="fill: none; stroke: #000000; stroke-linecap: round"/>
    <path d="M 258.831 287.333878 
L 256.703204 291.267386 
L 254.833075 287.205045 
L 258.831 287.333878 
z
" clip-path="url(#pad1e4d70f6)" style="stroke: #000000; stroke-linecap: round"/>
   </g>
   <g id="patch_59">
    <path d="M 257.896418 234.312756 
Q 244.859931 193.056157 232.160308 152.865635 
" clip-path="url(#pad1e4d70f6)" style="fill: none; stroke: #000000; stroke-linecap: round"/>
    <path d="M 231.458456 157.282354 
L 232.160308 152.865635 
L 235.272571 156.077148 
L 231.458456 157.282354 
z
" clip-path="url(#pad1e4d70f6)" style="stroke: #000000; stroke-linecap: round"/>
   </g>
   <g id="patch_60">
    <path d="M 259.074418 238.001436 
Q 267.140876 262.996289 274.863955 286.927144 
" clip-path="url(#pad1e4d70f6)" style="fill: none; stroke: #000000; stroke-linecap: round"/>
    <path d="M 275.538784 282.506215 
L 274.863955 286.927144 
L 271.73211 283.734723 
L 275.538784 282.506215 
z
" clip-path="url(#pad1e4d70f6)" style="stroke: #000000; stroke-linecap: round"/>
   </g>
   <g id="patch_61">
    <path d="M 260.362061 235.715233 
Q 275.656177 232.127893 289.861801 228.795866 
" clip-path="url(#pad1e4d70f6)" style="fill: none; stroke: #000000; stroke-linecap: round"/>
    <path d="M 285.510775 227.762149 
L 289.861801 228.795866 
L 286.424212 231.656457 
L 285.510775 227.762149 
z
" clip-path="url(#pad1e4d70f6)" style="stroke: #000000; stroke-linecap: round"/>
   </g>
   <g id="patch_62">
    <path d="M 275.207298 287.991032 
Q 267.14084 262.996179 259.417761 239.065324 
" clip-path="url(#pad1e4d70f6)" style="fill: none; stroke: #000000; stroke-linecap: round"/>
    <path d="M 258.742932 243.486252 
L 259.417761 239.065324 
L 262.549606 242.257744 
L 258.742932 243.486252 
z
" clip-path="url(#pad1e4d70f6)" style="stroke: #000000; stroke-linecap: round"/>
   </g>
   <g id="patch_63">
    <path d="M 251.202553 39.338471 
Q 258.779851 60.621872 265.982162 80.851999 
" clip-path="url(#pad1e4d70f6)" style="fill: none; stroke: #000000; stroke-linecap: round"/>
    <path d="M 266.524727 76.412898 
L 265.982162 80.851999 
L 262.75642 77.754487 
L 266.524727 76.412898 
z
" clip-path="url(#pad1e4d70f6)" style="stroke: #000000; stroke-linecap: round"/>
   </g>
   <g id="patch_64">
    <path d="M 266.087274 85.430379 
Q 249.124198 116.839415 232.692408 147.264716 
" clip-path="url(#pad1e4d70f6)" style="fill: none; stroke: #000000; stroke-linecap: round"/>
    <path d="M 236.352953 144.69559 
L 232.692408 147.264716 
L 232.833435 142.794804 
L 236.352953 144.69559 
z
" clip-path="url(#pad1e4d70f6)" style="stroke: #000000; stroke-linecap: round"/>
   </g>
   <g id="patch_65">
    <path d="M 267.147318 81.796788 
Q 268.967441 56.859435 270.706178 33.037151 
" clip-path="url(#pad1e4d70f6)" style="fill: none; stroke: #000000; stroke-linecap: round"/>
    <path d="M 268.420307 36.880951 
L 270.706178 33.037151 
L 272.409695 37.172127 
L 268.420307 36.880951 
z
" clip-path="url(#pad1e4d70f6)" style="stroke: #000000; stroke-linecap: round"/>
   </g>
   <g id="patch_66">
    <path d="M 268.92958 83.93489 
Q 284.020267 85.552932 297.99929 87.051781 
" clip-path="url(#pad1e4d70f6)" style="fill: none; stroke: #000000; stroke-linecap: round"/>
    <path d="M 294.235307 84.636739 
L 297.99929 87.051781 
L 293.808866 88.613942 
L 294.235307 84.636739 
z
" clip-path="url(#pad1e4d70f6)" style="stroke: #000000; stroke-linecap: round"/>
   </g>
   <g id="patch_67">
    <path d="M 266.356569 81.903647 
Q 258.779272 60.620246 251.57696 40.390119 
" clip-path="url(#pad1e4d70f6)" style="fill: none; stroke: #000000; stroke-linecap: round"/>
    <path d="M 251.034396 44.82922 
L 251.57696 40.390119 
L 254.802703 43.487631 
L 251.034396 44.82922 
z
" clip-path="url(#pad1e4d70f6)" style="stroke: #000000; stroke-linecap: round"/>
   </g>
   <g id="patch_68">
    <path d="M 268.697811 84.67709 
Q 288.490186 95.774596 307.307359 106.32531 
" clip-path="url(#pad1e4d70f6)" style="fill: none; stroke: #000000; stroke-linecap: round"/>
    <path d="M 304.796502 102.624554 
L 307.307359 106.32531 
L 302.84024 106.113543 
L 304.796502 102.624554 
z
" clip-path="url(#pad1e4d70f6)" style="stroke: #000000; stroke-linecap: round"/>
   </g>
   <g id="patch_69">
    <path d="M 311.342705 106.453729 
Q 326.401506 91.434053 340.66871 77.203918 
" clip-path="url(#pad1e4d70f6)" style="fill: none; stroke: #000000; stroke-linecap: round"/>
    <path d="M 336.424234 78.612611 
L 340.66871 77.203918 
L 339.248979 81.444715 
L 336.424234 78.612611 
z
" clip-path="url(#pad1e4d70f6)" style="stroke: #000000; stroke-linecap: round"/>
   </g>
   <g id="patch_70">
    <path d="M 310.762825 106.048252 
Q 321.110705 82.837876 331.003327 60.648647 
" clip-path="url(#pad1e4d70f6)" style="fill: none; stroke: #000000; stroke-linecap: round"/>
    <path d="M 327.547865 63.487622 
L 331.003327 60.648647 
L 331.20123 65.116402 
L 327.547865 63.487622 
z
" clip-path="url(#pad1e4d70f6)" style="stroke: #000000; stroke-linecap: round"/>
   </g>
   <g id="patch_71">
    <path d="M 308.264624 108.734125 
Q 270.606843 128.886652 233.934817 148.511652 
" clip-path="url(#pad1e4d70f6)" style="fill: none; stroke: #000000; stroke-linecap: round"/>
    <path d="M 238.405235 148.38769 
L 233.934817 148.511652 
L 236.517898 144.860941 
L 238.405235 148.38769 
z
" clip-path="url(#pad1e4d70f6)" style="stroke: #000000; stroke-linecap: round"/>
   </g>
   <g id="patch_72">
    <path d="M 311.906794 107.812325 
Q 342.367664 107.692892 371.710509 107.577843 
" clip-path="url(#pad1e4d70f6)" style="fill: none; stroke: #000000; stroke-linecap: round"/>
    <path d="M 367.702698 105.593542 
L 371.710509 107.577843 
L 367.718381 109.593511 
L 367.702698 105.593542 
z
" clip-path="url(#pad1e4d70f6)" style="stroke: #000000; stroke-linecap: round"/>
   </g>
   <g id="patch_73">
    <path d="M 308.281471 106.871491 
Q 288.489096 95.773985 269.671923 85.223271 
" clip-path="url(#pad1e4d70f6)" style="fill: none; stroke: #000000; stroke-linecap: round"/>
    <path d="M 272.18278 88.924027 
L 269.671923 85.223271 
L 274.139042 85.435038 
L 272.18278 88.924027 
z
" clip-path="url(#pad1e4d70f6)" style="stroke: #000000; stroke-linecap: round"/>
   </g>
   <g id="patch_74">
    <path d="M 310.147104 105.88958 
Q 312.378604 81.152985 314.509654 57.529901 
" clip-path="url(#pad1e4d70f6)" style="fill: none; stroke: #000000; stroke-linecap: round"/>
    <path d="M 312.15836 61.334033 
L 314.509654 57.529901 
L 316.142183 61.693415 
L 312.15836 61.334033 
z
" clip-path="url(#pad1e4d70f6)" style="stroke: #000000; stroke-linecap: round"/>
   </g>
   <g id="patch_75">
    <path d="M 311.423125 109.101067 
Q 319.600216 116.325229 326.939424 122.809153 
" clip-path="url(#pad1e4d70f6)" style="fill: none; stroke: #000000; stroke-linecap: round"/>
    <path d="M 325.265904 118.661946 
L 326.939424 122.809153 
L 322.617546 121.659645 
L 325.265904 118.661946 
z
" clip-path="url(#pad1e4d70f6)" style="stroke: #000000; stroke-linecap: round"/>
   </g>
   <g id="patch_76">
    <path d="M 310.668163 109.630609 
Q 322.381361 140.138764 333.693824 169.60317 
" clip-path="url(#pad1e4d70f6)" style="fill: none; stroke: #000000; stroke-linecap: round"/>
    <path d="M 334.127232 165.152085 
L 333.693824 169.60317 
L 330.393001 166.585793 
L 334.127232 165.152085 
z
" clip-path="url(#pad1e4d70f6)" style="stroke: #000000; stroke-linecap: round"/>
   </g>
   <g id="patch_77">
    <path d="M 414.757714 82.404102 
Q 395.580793 94.469738 377.350183 105.939978 
" clip-path="url(#pad1e4d70f6)" style="fill: none; stroke: #000000; stroke-linecap: round"/>
    <path d="M 381.800883 105.502641 
L 377.350183 105.939978 
L 379.670733 102.117015 
L 381.800883 105.502641 
z
" clip-path="url(#pad1e4d70f6)" style="stroke: #000000; stroke-linecap: round"/>
   </g>
   <g id="patch_78">
    <path d="M 336.071596 173.901395 
Q 350.458378 190.135595 364.103635 205.533051 
" clip-path="url(#pad1e4d70f6)" style="fill: none; stroke: #000000; stroke-linecap: round"/>
    <path d="M 362.94749 201.212943 
L 364.103635 205.533051 
L 359.953862 203.865902 
L 362.94749 201.212943 
z
" clip-path="url(#pad1e4d70f6)" style="stroke: #000000; stroke-linecap: round"/>
   </g>
   <g id="patch_79">
    <path d="M 335.805451 170.801424 
Q 354.778044 140.007666 373.164173 110.16578 
" clip-path="url(#pad1e4d70f6)" style="fill: none; stroke: #000000; stroke-linecap: round"/>
    <path d="M 369.363212 112.522197 
L 373.164173 110.16578 
L 372.76873 114.620398 
L 369.363212 112.522197 
z
" clip-path="url(#pad1e4d70f6)" style="stroke: #000000; stroke-linecap: round"/>
   </g>
   <g id="patch_80">
    <path d="M 336.678562 172.025241 
Q 355.917894 167.673229 374.066744 163.567889 
" clip-path="url(#pad1e4d70f6)" style="fill: none; stroke: #000000; stroke-linecap: round"/>
    <path d="M 369.724054 162.499693 
L 374.066744 163.567889 
L 370.606572 166.401123 
L 369.724054 162.499693 
z
" clip-path="url(#pad1e4d70f6)" style="stroke: #000000; stroke-linecap: round"/>
   </g>
   <g id="patch_81">
    <path d="M 336.700782 172.749644 
Q 359.542224 176.293015 381.278848 179.664997 
" clip-path="url(#pad1e4d70f6)" style="fill: none; stroke: #000000; stroke-linecap: round"/>
    <path d="M 377.632717 177.075455 
L 381.278848 179.664997 
L 377.019535 181.028176 
L 377.632717 177.075455 
z
" clip-path="url(#pad1e4d70f6)" style="stroke: #000000; stroke-linecap: round"/>
   </g>
   <g id="patch_82">
    <path d="M 334.092748 170.642204 
Q 322.37955 140.134049 311.067087 110.669644 
" clip-path="url(#pad1e4d70f6)" style="fill: none; stroke: #000000; stroke-linecap: round"/>
    <path d="M 310.633679 115.120729 
L 311.067087 110.669644 
L 314.36791 113.687021 
L 310.633679 115.120729 
z
" clip-path="url(#pad1e4d70f6)" style="stroke: #000000; stroke-linecap: round"/>
   </g>
   <g id="patch_83">
    <path d="M 335.8034 170.801351 
Q 343.930092 157.583973 351.471195 145.319005 
" clip-path="url(#pad1e4d70f6)" style="fill: none; stroke: #000000; stroke-linecap: round"/>
    <path d="M 347.672405 147.67892 
L 351.471195 145.319005 
L 351.079853 149.773986 
L 347.672405 147.67892 
z
" clip-path="url(#pad1e4d70f6)" style="stroke: #000000; stroke-linecap: round"/>
   </g>
   <g id="patch_84">
    <path d="M 334.378791 174.345476 
Q 330.31324 193.151058 326.483938 210.863851 
" clip-path="url(#pad1e4d70f6)" style="fill: none; stroke: #000000; stroke-linecap: round"/>
    <path d="M 329.284005 207.376786 
L 326.483938 210.863851 
L 325.374326 206.531558 
L 329.284005 207.376786 
z
" clip-path="url(#pad1e4d70f6)" style="stroke: #000000; stroke-linecap: round"/>
   </g>
   <g id="patch_85">
    <path d="M 334.984179 174.37669 
Q 338.035445 204.289451 340.973254 233.08995 
" clip-path="url(#pad1e4d70f6)" style="fill: none; stroke: #000000; stroke-linecap: round"/>
    <path d="M 342.557014 228.907641 
L 340.973254 233.08995 
L 338.577663 229.313557 
L 342.557014 228.907641 
z
" clip-path="url(#pad1e4d70f6)" style="stroke: #000000; stroke-linecap: round"/>
   </g>
   <g id="patch_86">
    <path d="M 336.461863 173.422019 
Q 357.45258 185.574548 377.475722 197.166901 
" clip-path="url(#pad1e4d70f6)" style="fill: none; stroke: #000000; stroke-linecap: round"/>
    <path d="M 375.016091 193.431903 
L 377.475722 197.166901 
L 373.011945 196.893608 
L 375.016091 193.431903 
z
" clip-path="url(#pad1e4d70f6)" style="stroke: #000000; stroke-linecap: round"/>
   </g>
   <g id="patch_87">
    <path d="M 332.942404 173.042416 
Q 286.252841 187.956193 240.628297 202.529777 
" clip-path="url(#pad1e4d70f6)" style="fill: none; stroke: #000000; stroke-linecap: round"/>
    <path d="M 245.047186 203.21783 
L 240.628297 202.529777 
L 243.830074 199.407498 
L 245.047186 203.21783 
z
" clip-path="url(#pad1e4d70f6)" style="stroke: #000000; stroke-linecap: round"/>
   </g>
   <g id="patch_88">
    <path d="M 334.563587 170.531599 
Q 332.007459 148.641778 329.581006 127.862446 
" clip-path="url(#pad1e4d70f6)" style="fill: none; stroke: #000000; stroke-linecap: round"/>
    <path d="M 328.058441 132.067419 
L 329.581006 127.862446 
L 332.031445 131.603481 
L 328.058441 132.067419 
z
" clip-path="url(#pad1e4d70f6)" style="stroke: #000000; stroke-linecap: round"/>
   </g>
   <g id="patch_89">
    <path d="M 352.055186 144.369193 
Q 343.928494 157.586571 336.387392 169.851538 
" clip-path="url(#pad1e4d70f6)" style="fill: none; stroke: #000000; stroke-linecap: round"/>
    <path d="M 340.186181 167.491623 
L 336.387392 169.851538 
L 336.778734 165.396557 
L 340.186181 167.491623 
z
" clip-path="url(#pad1e4d70f6)" style="stroke: #000000; stroke-linecap: round"/>
   </g>
   <g id="patch_90">
    <path d="M 351.519287 141.553809 
Q 341.147289 133.772734 331.669632 126.662594 
" clip-path="url(#pad1e4d70f6)" style="fill: none; stroke: #000000; stroke-linecap: round"/>
    <path d="M 333.66912 130.66285 
L 331.669632 126.662594 
L 336.06953 127.463157 
L 333.66912 130.66285 
z
" clip-path="url(#pad1e4d70f6)" style="stroke: #000000; stroke-linecap: round"/>
   </g>
   <g id="patch_91">
    <path d="M 326.247106 211.959337 
Q 330.312657 193.153756 334.141959 175.440962 
" clip-path="url(#pad1e4d70f6)" style="fill: none; stroke: #000000; stroke-linecap: round"/>
    <path d="M 331.341892 178.928027 
L 334.141959 175.440962 
L 335.251571 179.773255 
L 331.341892 178.928027 
z
" clip-path="url(#pad1e4d70f6)" style="stroke: #000000; stroke-linecap: round"/>
   </g>
   <g id="patch_92">
    <path d="M 324.061203 214.618867 
Q 309.337246 220.974672 295.639772 226.887382 
" clip-path="url(#pad1e4d70f6)" style="fill: none; stroke: #000000; stroke-linecap: round"/>
    <path d="M 300.104861 227.138342 
L 295.639772 226.887382 
L 298.519594 223.465887 
L 300.104861 227.138342 
z
" clip-path="url(#pad1e4d70f6)" style="stroke: #000000; stroke-linecap: round"/>
   </g>
   <g id="patch_93">
    <path d="M 341.086934 234.204394 
Q 338.035668 204.291633 335.097859 175.491134 
" clip-path="url(#pad1e4d70f6)" style="fill: none; stroke: #000000; stroke-linecap: round"/>
    <path d="M 333.514099 179.673443 
L 335.097859 175.491134 
L 337.49345 179.267527 
L 333.514099 179.673443 
z
" clip-path="url(#pad1e4d70f6)" style="stroke: #000000; stroke-linecap: round"/>
   </g>
   <g id="patch_94">
    <path d="M 342.475064 237.658375 
Q 357.265092 256.646356 371.368088 274.752301 
" clip-path="url(#pad1e4d70f6)" style="fill: none; stroke: #000000; stroke-linecap: round"/>
    <path d="M 370.487924 270.367633 
L 371.368088 274.752301 
L 367.332256 272.825631 
L 370.487924 270.367633 
z
" clip-path="url(#pad1e4d70f6)" style="stroke: #000000; stroke-linecap: round"/>
   </g>
   <g id="patch_95">
    <path d="M 339.369888 235.811105 
Q 317.057269 232.113414 295.84764 228.598514 
" clip-path="url(#pad1e4d70f6)" style="fill: none; stroke: #000000; stroke-linecap: round"/>
    <path d="M 299.466835 231.225571 
L 295.84764 228.598514 
L 300.120803 227.279393 
L 299.466835 231.225571 
z
" clip-path="url(#pad1e4d70f6)" style="stroke: #000000; stroke-linecap: round"/>
   </g>
   <g id="patch_96">
    <path d="M 137.161154 160.205908 
Q 154.233598 154.356616 170.248365 148.869702 
" clip-path="url(#pad1e4d70f6)" style="fill: none; stroke: #000000; stroke-linecap: round"/>
    <path d="M 165.816061 148.27415 
L 170.248365 148.869702 
L 167.112542 152.058214 
L 165.816061 148.27415 
z
" clip-path="url(#pad1e4d70f6)" style="stroke: #000000; stroke-linecap: round"/>
   </g>
   <g id="patch_97">
    <path d="M 96.105744 126.519625 
Q 118.646826 128.042718 140.072418 129.490437 
" clip-path="url(#pad1e4d70f6)" style="fill: none; stroke: #000000; stroke-linecap: round"/>
    <path d="M 136.21635 127.225323 
L 140.072418 129.490437 
L 135.946686 131.216223 
L 136.21635 127.225323 
z
" clip-path="url(#pad1e4d70f6)" style="stroke: #000000; stroke-linecap: round"/>
   </g>
   <g id="patch_98">
    <path d="M 169.447373 107.486373 
Q 171.204302 126.71915 172.85952 144.838529 
" clip-path="url(#pad1e4d70f6)" style="fill: none; stroke: #000000; stroke-linecap: round"/>
    <path d="M 174.487339 140.673171 
L 172.85952 144.838529 
L 170.503926 141.037059 
L 174.487339 140.673171 
z
" clip-path="url(#pad1e4d70f6)" style="stroke: #000000; stroke-linecap: round"/>
   </g>
   <g id="patch_99">
    <path d="M 202.131271 209.283739 
Q 189.166763 203.487224 177.222917 198.147054 
" clip-path="url(#pad1e4d70f6)" style="fill: none; stroke: #000000; stroke-linecap: round"/>
    <path d="M 180.058213 201.605536 
L 177.222917 198.147054 
L 181.69088 197.953907 
L 180.058213 201.605536 
z
" clip-path="url(#pad1e4d70f6)" style="stroke: #000000; stroke-linecap: round"/>
   </g>
   <g id="patch_100">
    <path d="M 205.800436 209.701101 
Q 220.810475 206.765785 234.723264 204.045043 
" clip-path="url(#pad1e4d70f6)" style="fill: none; stroke: #000000; stroke-linecap: round"/>
    <path d="M 230.41378 202.849909 
L 234.723264 204.045043 
L 231.181466 206.77555 
L 230.41378 202.849909 
z
" clip-path="url(#pad1e4d70f6)" style="stroke: #000000; stroke-linecap: round"/>
   </g>
   <g id="patch_101">
    <path d="M 176.780471 241.070267 
Q 191.870358 241.525997 205.842721 241.947976 
" clip-path="url(#pad1e4d70f6)" style="fill: none; stroke: #000000; stroke-linecap: round"/>
    <path d="M 201.904918 239.828139 
L 205.842721 241.947976 
L 201.784169 243.826316 
L 201.904918 239.828139 
z
" clip-path="url(#pad1e4d70f6)" style="stroke: #000000; stroke-linecap: round"/>
   </g>
   <g id="patch_102">
    <path d="M 174.829829 239.07609 
Q 174.641002 218.95729 174.462669 199.956475 
" clip-path="url(#pad1e4d70f6)" style="fill: none; stroke: #000000; stroke-linecap: round"/>
    <path d="M 172.500298 203.97507 
L 174.462669 199.956475 
L 176.500122 203.937529 
L 172.500298 203.97507 
z
" clip-path="url(#pad1e4d70f6)" style="stroke: #000000; stroke-linecap: round"/>
   </g>
   <g id="patch_103">
    <path d="M 176.732894 179.495276 
Q 175.710003 187.23949 174.833514 193.875297 
" clip-path="url(#pad1e4d70f6)" style="fill: none; stroke: #000000; stroke-linecap: round"/>
    <path d="M 177.340082 190.171634 
L 174.833514 193.875297 
L 173.374525 189.647845 
L 177.340082 190.171634 
z
" clip-path="url(#pad1e4d70f6)" style="stroke: #000000; stroke-linecap: round"/>
   </g>
   <g id="patch_104">
    <path d="M 178.711758 176.696696 
Q 204.111928 163.765087 228.515757 151.34073 
" clip-path="url(#pad1e4d70f6)" style="fill: none; stroke: #000000; stroke-linecap: round"/>
    <path d="M 224.043739 151.373222 
L 228.515757 151.34073 
L 225.858539 154.937839 
L 224.043739 151.373222 
z
" clip-path="url(#pad1e4d70f6)" style="stroke: #000000; stroke-linecap: round"/>
   </g>
   <g id="patch_105">
    <path d="M 175.294507 178.516881 
Q 154.951046 189.840845 135.584473 200.621036 
" clip-path="url(#pad1e4d70f6)" style="fill: none; stroke: #000000; stroke-linecap: round"/>
    <path d="M 140.052225 200.423081 
L 135.584473 200.621036 
L 138.10676 196.928061 
L 140.052225 200.423081 
z
" clip-path="url(#pad1e4d70f6)" style="stroke: #000000; stroke-linecap: round"/>
   </g>
   <g id="patch_106">
    <path d="M 101.035844 108.540994 
Q 121.213132 118.684151 140.391502 128.32515 
" clip-path="url(#pad1e4d70f6)" style="fill: none; stroke: #000000; stroke-linecap: round"/>
    <path d="M 137.715951 124.741657 
L 140.391502 128.32515 
L 135.919376 128.315495 
L 137.715951 124.741657 
z
" clip-path="url(#pad1e4d70f6)" style="stroke: #000000; stroke-linecap: round"/>
   </g>
   <g id="patch_107">
    <path d="M 114.146304 95.605999 
Q 128.005799 111.913538 141.141258 127.369153 
" clip-path="url(#pad1e4d70f6)" style="fill: none; stroke: #000000; stroke-linecap: round"/>
    <path d="M 140.074839 123.026026 
L 141.141258 127.369153 
L 137.026905 125.616412 
L 140.074839 123.026026 
z
" clip-path="url(#pad1e4d70f6)" style="stroke: #000000; stroke-linecap: round"/>
   </g>
   <g id="patch_108">
    <path d="M 145.004217 130.12966 
Q 187.178727 139.824788 228.263623 149.269434 
" clip-path="url(#pad1e4d70f6)" style="fill: none; stroke: #000000; stroke-linecap: round"/>
    <path d="M 224.813377 146.424122 
L 228.263623 149.269434 
L 223.917226 150.322444 
L 224.813377 146.424122 
z
" clip-path="url(#pad1e4d70f6)" style="stroke: #000000; stroke-linecap: round"/>
   </g>
   <g id="patch_109">
    <path d="M 144.779005 130.701811 
Q 158.129098 138.788634 170.522919 146.296196 
" clip-path="url(#pad1e4d70f6)" style="fill: none; stroke: #000000; stroke-linecap: round"/>
    <path d="M 168.137873 142.513135 
L 170.522919 146.296196 
L 166.065442 145.934396 
L 168.137873 142.513135 
z
" clip-path="url(#pad1e4d70f6)" style="stroke: #000000; stroke-linecap: round"/>
   </g>
   <g id="patch_110">
    <path d="M 141.186186 129.565694 
Q 118.645104 128.042601 97.219512 126.594882 
" clip-path="url(#pad1e4d70f6)" style="fill: none; stroke: #000000; stroke-linecap: round"/>
    <path d="M 101.07558 128.859996 
L 97.219512 126.594882 
L 101.345244 124.869096 
L 101.07558 128.859996 
z
" clip-path="url(#pad1e4d70f6)" style="stroke: #000000; stroke-linecap: round"/>
   </g>
   <g id="patch_111">
    <path d="M 141.388878 128.826533 
Q 121.21159 118.683376 102.03322 109.042377 
" clip-path="url(#pad1e4d70f6)" style="fill: none; stroke: #000000; stroke-linecap: round"/>
    <path d="M 104.708771 112.62587 
L 102.03322 109.042377 
L 106.505345 109.052032 
L 104.708771 112.62587 
z
" clip-path="url(#pad1e4d70f6)" style="stroke: #000000; stroke-linecap: round"/>
   </g>
   <g id="patch_112">
    <path d="M 141.866432 128.222416 
Q 128.006937 111.914877 114.871477 96.459262 
" clip-path="url(#pad1e4d70f6)" style="fill: none; stroke: #000000; stroke-linecap: round"/>
    <path d="M 115.937897 100.802389 
L 114.871477 96.459262 
L 118.98583 98.212003 
L 115.937897 100.802389 
z
" clip-path="url(#pad1e4d70f6)" style="stroke: #000000; stroke-linecap: round"/>
   </g>
   <g id="patch_113">
    <path d="M 141.303558 130.368582 
Q 120.482695 138.078601 100.71029 145.400374 
" clip-path="url(#pad1e4d70f6)" style="fill: none; stroke: #000000; stroke-linecap: round"/>
    <path d="M 105.155885 145.886879 
L 100.71029 145.400374 
L 103.766851 142.135801 
L 105.155885 145.886879 
z
" clip-path="url(#pad1e4d70f6)" style="stroke: #000000; stroke-linecap: round"/>
   </g>
   <g id="patch_114">
    <path d="M 99.660364 145.789165 
Q 120.481227 138.079145 140.253632 130.757372 
" clip-path="url(#pad1e4d70f6)" style="fill: none; stroke: #000000; stroke-linecap: round"/>
    <path d="M 135.808037 130.270867 
L 140.253632 130.757372 
L 137.197071 134.021945 
L 135.808037 130.270867 
z
" clip-path="url(#pad1e4d70f6)" style="stroke: #000000; stroke-linecap: round"/>
   </g>
   <g id="patch_115">
    <path d="M 378.445438 197.728316 
Q 357.45472 185.575787 337.431578 173.983434 
" clip-path="url(#pad1e4d70f6)" style="fill: none; stroke: #000000; stroke-linecap: round"/>
    <path d="M 339.89121 177.718432 
L 337.431578 173.983434 
L 341.895356 174.256728 
L 339.89121 177.718432 
z
" clip-path="url(#pad1e4d70f6)" style="stroke: #000000; stroke-linecap: round"/>
   </g>
   <g id="patch_116">
    <path d="M 314.610028 56.417233 
Q 312.378528 81.153828 310.247478 104.776912 
" clip-path="url(#pad1e4d70f6)" style="fill: none; stroke: #000000; stroke-linecap: round"/>
    <path d="M 312.598772 100.97278 
L 310.247478 104.776912 
L 308.61495 100.613398 
L 312.598772 100.97278 
z
" clip-path="url(#pad1e4d70f6)" style="stroke: #000000; stroke-linecap: round"/>
   </g>
   <g id="patch_117">
    <path d="M 418.888032 103.301646 
Q 397.789776 105.340709 377.804368 107.272219 
" clip-path="url(#pad1e4d70f6)" style="fill: none; stroke: #000000; stroke-linecap: round"/>
    <path d="M 381.978212 108.878153 
L 377.804368 107.272219 
L 381.593421 104.896704 
L 381.978212 108.878153 
z
" clip-path="url(#pad1e4d70f6)" style="stroke: #000000; stroke-linecap: round"/>
   </g>
   <g id="patch_118">
    <path d="M 372.051987 275.630314 
Q 357.261959 256.642333 343.158962 238.536389 
" clip-path="url(#pad1e4d70f6)" style="fill: none; stroke: #000000; stroke-linecap: round"/>
    <path d="M 344.039126 242.921056 
L 343.158962 238.536389 
L 347.194795 240.463058 
L 344.039126 242.921056 
z
" clip-path="url(#pad1e4d70f6)" style="stroke: #000000; stroke-linecap: round"/>
   </g>
   <g id="patch_119">
    <path d="M 236.47678 204.940015 
Q 214.127494 231.600612 192.496459 257.404402 
" clip-path="url(#pad1e4d70f6)" style="fill: none; stroke: #000000; stroke-linecap: round"/>
    <path d="M 196.598852 255.623847 
L 192.496459 257.404402 
L 193.533451 253.054155 
L 196.598852 255.623847 
z
" clip-path="url(#pad1e4d70f6)" style="stroke: #000000; stroke-linecap: round"/>
   </g>
   <g id="patch_120">
    <path d="M 239.367336 204.473377 
Q 251.094649 211.682808 261.869511 218.306715 
" clip-path="url(#pad1e4d70f6)" style="fill: none; stroke: #000000; stroke-linecap: round"/>
    <path d="M 259.509339 214.508085 
L 261.869511 218.306715 
L 257.414504 217.915675 
L 259.509339 214.508085 
z
" clip-path="url(#pad1e4d70f6)" style="stroke: #000000; stroke-linecap: round"/>
   </g>
   <g id="patch_121">
    <path d="M 236.558544 205.011209 
Q 223.305693 222.749318 210.722022 239.591772 
" clip-path="url(#pad1e4d70f6)" style="fill: none; stroke: #000000; stroke-linecap: round"/>
    <path d="M 214.71835 237.584444 
L 210.722022 239.591772 
L 211.513956 235.190313 
L 214.71835 237.584444 
z
" clip-path="url(#pad1e4d70f6)" style="stroke: #000000; stroke-linecap: round"/>
   </g>
   <g id="patch_122">
    <path d="M 235.790543 203.259637 
Q 206.076577 200.179821 177.474687 197.21527 
" clip-path="url(#pad1e4d70f6)" style="fill: none; stroke: #000000; stroke-linecap: round"/>
    <path d="M 181.24718 199.616998 
L 177.474687 197.21527 
L 181.659566 195.638313 
L 181.24718 199.616998 
z
" clip-path="url(#pad1e4d70f6)" style="stroke: #000000; stroke-linecap: round"/>
   </g>
   <g id="patch_123">
    <path d="M 237.48508 201.535895 
Q 234.479072 176.706606 231.607439 152.987246 
" clip-path="url(#pad1e4d70f6)" style="fill: none; stroke: #000000; stroke-linecap: round"/>
    <path d="M 230.102695 157.198628 
L 231.607439 152.987246 
L 234.073699 156.717871 
L 230.102695 157.198628 
z
" clip-path="url(#pad1e4d70f6)" style="stroke: #000000; stroke-linecap: round"/>
   </g>
   <g id="patch_124">
    <path d="M 236.249676 202.195777 
Q 205.428296 175.670203 175.454332 149.873935 
" clip-path="url(#pad1e4d70f6)" style="fill: none; stroke: #000000; stroke-linecap: round"/>
    <path d="M 177.181518 153.99908 
L 175.454332 149.873935 
L 179.79076 150.967273 
L 177.181518 153.99908 
z
" clip-path="url(#pad1e4d70f6)" style="stroke: #000000; stroke-linecap: round"/>
   </g>
   <g id="patch_125">
    <path d="M 238.178782 205.339693 
Q 244.084159 229.434989 249.7234 252.444388 
" clip-path="url(#pad1e4d70f6)" style="fill: none; stroke: #000000; stroke-linecap: round"/>
    <path d="M 250.713754 248.083287 
L 249.7234 252.444388 
L 246.828732 249.035444 
L 250.713754 248.083287 
z
" clip-path="url(#pad1e4d70f6)" style="stroke: #000000; stroke-linecap: round"/>
   </g>
   <g id="patch_126">
    <path d="M 239.563493 202.869901 
Q 286.253057 187.956124 331.8776 173.382541 
" clip-path="url(#pad1e4d70f6)" style="fill: none; stroke: #000000; stroke-linecap: round"/>
    <path d="M 327.458711 172.694487 
L 331.8776 173.382541 
L 328.675823 176.50482 
L 327.458711 172.694487 
z
" clip-path="url(#pad1e4d70f6)" style="stroke: #000000; stroke-linecap: round"/>
   </g>
   <g id="patch_127">
    <path d="M 235.814711 203.831603 
Q 220.804672 206.76692 206.891883 209.487661 
" clip-path="url(#pad1e4d70f6)" style="fill: none; stroke: #000000; stroke-linecap: round"/>
    <path d="M 211.201367 210.682796 
L 206.891883 209.487661 
L 210.433681 206.757155 
L 211.201367 210.682796 
z
" clip-path="url(#pad1e4d70f6)" style="stroke: #000000; stroke-linecap: round"/>
   </g>
   <g id="patch_128">
    <path d="M 239.484033 204.248946 
Q 265.274504 215.778721 290.044294 226.852194 
" clip-path="url(#pad1e4d70f6)" style="fill: none; stroke: #000000; stroke-linecap: round"/>
    <path d="M 287.208851 223.393832 
L 290.044294 226.852194 
L 285.576339 227.045531 
L 287.208851 223.393832 
z
" clip-path="url(#pad1e4d70f6)" style="stroke: #000000; stroke-linecap: round"/>
   </g>
   <g id="patch_129">
    <path d="M 328.062005 123.282483 
Q 315.130108 106.102388 302.870588 89.815551 
" clip-path="url(#pad1e4d70f6)" style="fill: none; stroke: #000000; stroke-linecap: round"/>
    <path d="M 303.678252 94.21415 
L 302.870588 89.815551 
L 306.874066 91.808579 
L 303.678252 94.21415 
z
" clip-path="url(#pad1e4d70f6)" style="stroke: #000000; stroke-linecap: round"/>
   </g>
   <g id="patch_130">
    <path d="M 327.77675 123.5489 
Q 319.599659 116.324738 312.260451 109.840814 
" clip-path="url(#pad1e4d70f6)" style="fill: none; stroke: #000000; stroke-linecap: round"/>
    <path d="M 313.933971 113.988022 
L 312.260451 109.840814 
L 316.582329 110.990323 
L 313.933971 113.988022 
z
" clip-path="url(#pad1e4d70f6)" style="stroke: #000000; stroke-linecap: round"/>
   </g>
   <g id="patch_131">
    <path d="M 329.451262 126.751368 
Q 332.00739 148.641189 334.433844 169.420521 
" clip-path="url(#pad1e4d70f6)" style="fill: none; stroke: #000000; stroke-linecap: round"/>
    <path d="M 335.956408 165.215549 
L 334.433844 169.420521 
L 331.983404 165.679486 
L 335.956408 165.215549 
z
" clip-path="url(#pad1e4d70f6)" style="stroke: #000000; stroke-linecap: round"/>
   </g>
   <g id="patch_132">
    <path d="M 330.778263 125.993888 
Q 341.150261 133.774963 350.627918 140.885103 
" clip-path="url(#pad1e4d70f6)" style="fill: none; stroke: #000000; stroke-linecap: round"/>
    <path d="M 348.62843 136.884847 
L 350.627918 140.885103 
L 346.228021 140.08454 
L 348.62843 136.884847 
z
" clip-path="url(#pad1e4d70f6)" style="stroke: #000000; stroke-linecap: round"/>
   </g>
   <g id="patch_133">
    <path d="M 215.000813 129.983913 
Q 222.508941 139.216765 229.311681 147.582191 
" clip-path="url(#pad1e4d70f6)" style="fill: none; stroke: #000000; stroke-linecap: round"/>
    <path d="M 228.339706 143.216957 
L 229.311681 147.582191 
L 225.236309 145.74063 
L 228.339706 143.216957 
z
" clip-path="url(#pad1e4d70f6)" style="stroke: #000000; stroke-linecap: round"/>
   </g>
   <g id="patch_134">
    <path d="M 402.55008 66.722956 
Q 389.203255 86.342957 376.485281 105.038541 
" clip-path="url(#pad1e4d70f6)" style="fill: none; stroke: #000000; stroke-linecap: round"/>
    <path d="M 380.388771 102.856165 
L 376.485281 105.038541 
L 377.081475 100.606323 
L 380.388771 102.856165 
z
" clip-path="url(#pad1e4d70f6)" style="stroke: #000000; stroke-linecap: round"/>
   </g>
   <g id="patch_135">
    <path d="M 290.950149 228.540587 
Q 275.656032 232.127927 261.450408 235.459954 
" clip-path="url(#pad1e4d70f6)" style="fill: none; stroke: #000000; stroke-linecap: round"/>
    <path d="M 265.801435 236.493671 
L 261.450408 235.459954 
L 264.887998 232.599363 
L 265.801435 236.493671 
z
" clip-path="url(#pad1e4d70f6)" style="stroke: #000000; stroke-linecap: round"/>
   </g>
   <g id="patch_136">
    <path d="M 294.609825 227.331973 
Q 309.333781 220.976168 323.031255 215.063458 
" clip-path="url(#pad1e4d70f6)" style="fill: none; stroke: #000000; stroke-linecap: round"/>
    <path d="M 318.566166 214.812498 
L 323.031255 215.063458 
L 320.151434 218.484953 
L 318.566166 214.812498 
z
" clip-path="url(#pad1e4d70f6)" style="stroke: #000000; stroke-linecap: round"/>
   </g>
   <g id="patch_137">
    <path d="M 294.746355 228.416007 
Q 317.058974 232.113697 338.268603 235.628597 
" clip-path="url(#pad1e4d70f6)" style="fill: none; stroke: #000000; stroke-linecap: round"/>
    <path d="M 334.649408 233.00154 
L 338.268603 235.628597 
L 333.99544 236.947718 
L 334.649408 233.00154 
z
" clip-path="url(#pad1e4d70f6)" style="stroke: #000000; stroke-linecap: round"/>
   </g>
   <g id="patch_138">
    <path d="M 291.066994 227.309398 
Q 265.276524 215.779624 240.506734 204.70615 
" clip-path="url(#pad1e4d70f6)" style="fill: none; stroke: #000000; stroke-linecap: round"/>
    <path d="M 243.342176 208.164512 
L 240.506734 204.70615 
L 244.974689 204.512813 
L 243.342176 208.164512 
z
" clip-path="url(#pad1e4d70f6)" style="stroke: #000000; stroke-linecap: round"/>
   </g>
   <g id="patch_139">
    <path d="M 134.605288 201.166088 
Q 154.948749 189.842124 174.315322 179.061933 
" clip-path="url(#pad1e4d70f6)" style="fill: none; stroke: #000000; stroke-linecap: round"/>
    <path d="M 169.84757 179.259888 
L 174.315322 179.061933 
L 171.793034 182.754908 
L 169.84757 179.259888 
z
" clip-path="url(#pad1e4d70f6)" style="stroke: #000000; stroke-linecap: round"/>
   </g>
   <g id="PathCollection_1">
    <defs>
     <path id="mb1bcf0ace8" d="M 0 1.936492 
C 0.513564 1.936492 1.006162 1.732451 1.369306 1.369306 
C 1.732451 1.006162 1.936492 0.513564 1.936492 0 
C 1.936492 -0.513564 1.732451 -1.006162 1.369306 -1.369306 
C 1.006162 -1.732451 0.513564 -1.936492 0 -1.936492 
C -0.513564 -1.936492 -1.006162 -1.732451 -1.369306 -1.369306 
C -1.732451 -1.006162 -1.936492 -0.513564 -1.936492 0 
C -1.936492 0.513564 -1.732451 1.006162 -1.369306 1.369306 
C -1.006162 1.732451 -0.513564 1.936492 0 1.936492 
z
" style="stroke: #1f78b4"/>
    </defs>
    <g clip-path="url(#pad1e4d70f6)">
     <use xlink:href="#mb1bcf0ace8" x="342.8306" y="75.047645" style="fill: #1f78b4; stroke: #1f78b4"/>
     <use xlink:href="#mb1bcf0ace8" x="181.896262" y="315.609917" style="fill: #1f78b4; stroke: #1f78b4"/>
     <use xlink:href="#mb1bcf0ace8" x="332.246657" y="57.859847" style="fill: #1f78b4; stroke: #1f78b4"/>
     <use xlink:href="#mb1bcf0ace8" x="366.131283" y="207.82107" style="fill: #1f78b4; stroke: #1f78b4"/>
     <use xlink:href="#mb1bcf0ace8" x="190.536036" y="259.743002" style="fill: #1f78b4; stroke: #1f78b4"/>
     <use xlink:href="#mb1bcf0ace8" x="264.473868" y="219.907758" style="fill: #1f78b4; stroke: #1f78b4"/>
     <use xlink:href="#mb1bcf0ace8" x="208.892785" y="242.040091" style="fill: #1f78b4; stroke: #1f78b4"/>
     <use xlink:href="#mb1bcf0ace8" x="163.22986" y="305.754172" style="fill: #1f78b4; stroke: #1f78b4"/>
     <use xlink:href="#mb1bcf0ace8" x="174.433984" y="196.900105" style="fill: #1f78b4; stroke: #1f78b4"/>
     <use xlink:href="#mb1bcf0ace8" x="138.98798" y="233.852226" style="fill: #1f78b4; stroke: #1f78b4"/>
     <use xlink:href="#mb1bcf0ace8" x="39.986777" y="35.760851" style="fill: #1f78b4; stroke: #1f78b4"/>
     <use xlink:href="#mb1bcf0ace8" x="256.604934" y="294.316901" style="fill: #1f78b4; stroke: #1f78b4"/>
     <use xlink:href="#mb1bcf0ace8" x="231.240175" y="149.953688" style="fill: #1f78b4; stroke: #1f78b4"/>
     <use xlink:href="#mb1bcf0ace8" x="374.766029" y="107.565863" style="fill: #1f78b4; stroke: #1f78b4"/>
     <use xlink:href="#mb1bcf0ace8" x="270.928577" y="29.990083" style="fill: #1f78b4; stroke: #1f78b4"/>
     <use xlink:href="#mb1bcf0ace8" x="301.035255" y="87.377301" style="fill: #1f78b4; stroke: #1f78b4"/>
     <use xlink:href="#mb1bcf0ace8" x="173.137351" y="147.879889" style="fill: #1f78b4; stroke: #1f78b4"/>
     <use xlink:href="#mb1bcf0ace8" x="108.170389" y="58.884153" style="fill: #1f78b4; stroke: #1f78b4"/>
     <use xlink:href="#mb1bcf0ace8" x="78.158163" y="62.970484" style="fill: #1f78b4; stroke: #1f78b4"/>
     <use xlink:href="#mb1bcf0ace8" x="134.540255" y="102.603278" style="fill: #1f78b4; stroke: #1f78b4"/>
     <use xlink:href="#mb1bcf0ace8" x="120.447781" y="46.443975" style="fill: #1f78b4; stroke: #1f78b4"/>
     <use xlink:href="#mb1bcf0ace8" x="136.575592" y="51.424493" style="fill: #1f78b4; stroke: #1f78b4"/>
     <use xlink:href="#mb1bcf0ace8" x="377.047035" y="162.893736" style="fill: #1f78b4; stroke: #1f78b4"/>
     <use xlink:href="#mb1bcf0ace8" x="384.298136" y="180.133377" style="fill: #1f78b4; stroke: #1f78b4"/>
     <use xlink:href="#mb1bcf0ace8" x="250.450163" y="255.409745" style="fill: #1f78b4; stroke: #1f78b4"/>
     <use xlink:href="#mb1bcf0ace8" x="258.479137" y="236.156886" style="fill: #1f78b4; stroke: #1f78b4"/>
     <use xlink:href="#mb1bcf0ace8" x="275.802579" y="289.835581" style="fill: #1f78b4; stroke: #1f78b4"/>
     <use xlink:href="#mb1bcf0ace8" x="250.552809" y="37.513444" style="fill: #1f78b4; stroke: #1f78b4"/>
     <use xlink:href="#mb1bcf0ace8" x="267.006314" y="83.728674" style="fill: #1f78b4; stroke: #1f78b4"/>
     <use xlink:href="#mb1bcf0ace8" x="309.972968" y="107.819907" style="fill: #1f78b4; stroke: #1f78b4"/>
     <use xlink:href="#mb1bcf0ace8" x="416.396613" y="81.372948" style="fill: #1f78b4; stroke: #1f78b4"/>
     <use xlink:href="#mb1bcf0ace8" x="334.787943" y="172.452907" style="fill: #1f78b4; stroke: #1f78b4"/>
     <use xlink:href="#mb1bcf0ace8" x="353.070644" y="142.717636" style="fill: #1f78b4; stroke: #1f78b4"/>
     <use xlink:href="#mb1bcf0ace8" x="325.837955" y="213.851906" style="fill: #1f78b4; stroke: #1f78b4"/>
     <use xlink:href="#mb1bcf0ace8" x="341.28317" y="236.128177" style="fill: #1f78b4; stroke: #1f78b4"/>
     <use xlink:href="#mb1bcf0ace8" x="135.328883" y="160.833673" style="fill: #1f78b4; stroke: #1f78b4"/>
     <use xlink:href="#mb1bcf0ace8" x="94.172872" y="126.389022" style="fill: #1f78b4; stroke: #1f78b4"/>
     <use xlink:href="#mb1bcf0ace8" x="169.271098" y="105.556722" style="fill: #1f78b4; stroke: #1f78b4"/>
     <use xlink:href="#mb1bcf0ace8" x="203.897193" y="210.073294" style="fill: #1f78b4; stroke: #1f78b4"/>
     <use xlink:href="#mb1bcf0ace8" x="174.847997" y="241.011904" style="fill: #1f78b4; stroke: #1f78b4"/>
     <use xlink:href="#mb1bcf0ace8" x="176.986529" y="177.575036" style="fill: #1f78b4; stroke: #1f78b4"/>
     <use xlink:href="#mb1bcf0ace8" x="99.305664" y="107.67123" style="fill: #1f78b4; stroke: #1f78b4"/>
     <use xlink:href="#mb1bcf0ace8" x="112.893678" y="94.132118" style="fill: #1f78b4; stroke: #1f78b4"/>
     <use xlink:href="#mb1bcf0ace8" x="143.119058" y="129.696297" style="fill: #1f78b4; stroke: #1f78b4"/>
     <use xlink:href="#mb1bcf0ace8" x="97.844864" y="146.461449" style="fill: #1f78b4; stroke: #1f78b4"/>
     <use xlink:href="#mb1bcf0ace8" x="380.119358" y="198.697428" style="fill: #1f78b4; stroke: #1f78b4"/>
     <use xlink:href="#mb1bcf0ace8" x="314.784164" y="54.486906" style="fill: #1f78b4; stroke: #1f78b4"/>
     <use xlink:href="#mb1bcf0ace8" x="420.813223" y="103.115584" style="fill: #1f78b4; stroke: #1f78b4"/>
     <use xlink:href="#mb1bcf0ace8" x="373.243881" y="277.160512" style="fill: #1f78b4; stroke: #1f78b4"/>
     <use xlink:href="#mb1bcf0ace8" x="237.717954" y="203.45941" style="fill: #1f78b4; stroke: #1f78b4"/>
     <use xlink:href="#mb1bcf0ace8" x="329.226907" y="124.830061" style="fill: #1f78b4; stroke: #1f78b4"/>
     <use xlink:href="#mb1bcf0ace8" x="213.779504" y="128.482052" style="fill: #1f78b4; stroke: #1f78b4"/>
     <use xlink:href="#mb1bcf0ace8" x="403.640998" y="65.119292" style="fill: #1f78b4; stroke: #1f78b4"/>
     <use xlink:href="#mb1bcf0ace8" x="292.833073" y="228.098934" style="fill: #1f78b4; stroke: #1f78b4"/>
     <use xlink:href="#mb1bcf0ace8" x="132.913266" y="202.107933" style="fill: #1f78b4; stroke: #1f78b4"/>
    </g>
   </g>
   <g id="text_1">
    <g clip-path="url(#pad1e4d70f6)">
     <!-- 0 -->
     <g transform="translate(339.64935 77.80702) scale(0.1 -0.1)">
      <defs>
       <path id="DejaVuSans-30" d="M 2034 4250 
Q 1547 4250 1301 3770 
Q 1056 3291 1056 2328 
Q 1056 1369 1301 889 
Q 1547 409 2034 409 
Q 2525 409 2770 889 
Q 3016 1369 3016 2328 
Q 3016 3291 2770 3770 
Q 2525 4250 2034 4250 
z
M 2034 4750 
Q 2819 4750 3233 4129 
Q 3647 3509 3647 2328 
Q 3647 1150 3233 529 
Q 2819 -91 2034 -91 
Q 1250 -91 836 529 
Q 422 1150 422 2328 
Q 422 3509 836 4129 
Q 1250 4750 2034 4750 
z
" transform="scale(0.015625)"/>
      </defs>
      <use xlink:href="#DejaVuSans-30"/>
     </g>
    </g>
   </g>
   <g id="text_2">
    <g clip-path="url(#pad1e4d70f6)">
     <!-- 1 -->
     <g transform="translate(178.715012 318.369292) scale(0.1 -0.1)">
      <defs>
       <path id="DejaVuSans-31" d="M 794 531 
L 1825 531 
L 1825 4091 
L 703 3866 
L 703 4441 
L 1819 4666 
L 2450 4666 
L 2450 531 
L 3481 531 
L 3481 0 
L 794 0 
L 794 531 
z
" transform="scale(0.015625)"/>
      </defs>
      <use xlink:href="#DejaVuSans-31"/>
     </g>
    </g>
   </g>
   <g id="text_3">
    <g clip-path="url(#pad1e4d70f6)">
     <!-- 2 -->
     <g transform="translate(329.065407 60.619222) scale(0.1 -0.1)">
      <defs>
       <path id="DejaVuSans-32" d="M 1228 531 
L 3431 531 
L 3431 0 
L 469 0 
L 469 531 
Q 828 903 1448 1529 
Q 2069 2156 2228 2338 
Q 2531 2678 2651 2914 
Q 2772 3150 2772 3378 
Q 2772 3750 2511 3984 
Q 2250 4219 1831 4219 
Q 1534 4219 1204 4116 
Q 875 4013 500 3803 
L 500 4441 
Q 881 4594 1212 4672 
Q 1544 4750 1819 4750 
Q 2544 4750 2975 4387 
Q 3406 4025 3406 3419 
Q 3406 3131 3298 2873 
Q 3191 2616 2906 2266 
Q 2828 2175 2409 1742 
Q 1991 1309 1228 531 
z
" transform="scale(0.015625)"/>
      </defs>
      <use xlink:href="#DejaVuSans-32"/>
     </g>
    </g>
   </g>
   <g id="text_4">
    <g clip-path="url(#pad1e4d70f6)">
     <!-- 3 -->
     <g transform="translate(362.950033 210.580445) scale(0.1 -0.1)">
      <defs>
       <path id="DejaVuSans-33" d="M 2597 2516 
Q 3050 2419 3304 2112 
Q 3559 1806 3559 1356 
Q 3559 666 3084 287 
Q 2609 -91 1734 -91 
Q 1441 -91 1130 -33 
Q 819 25 488 141 
L 488 750 
Q 750 597 1062 519 
Q 1375 441 1716 441 
Q 2309 441 2620 675 
Q 2931 909 2931 1356 
Q 2931 1769 2642 2001 
Q 2353 2234 1838 2234 
L 1294 2234 
L 1294 2753 
L 1863 2753 
Q 2328 2753 2575 2939 
Q 2822 3125 2822 3475 
Q 2822 3834 2567 4026 
Q 2313 4219 1838 4219 
Q 1578 4219 1281 4162 
Q 984 4106 628 3988 
L 628 4550 
Q 988 4650 1302 4700 
Q 1616 4750 1894 4750 
Q 2613 4750 3031 4423 
Q 3450 4097 3450 3541 
Q 3450 3153 3228 2886 
Q 3006 2619 2597 2516 
z
" transform="scale(0.015625)"/>
      </defs>
      <use xlink:href="#DejaVuSans-33"/>
     </g>
    </g>
   </g>
   <g id="text_5">
    <g clip-path="url(#pad1e4d70f6)">
     <!-- 4 -->
     <g transform="translate(187.354786 262.502377) scale(0.1 -0.1)">
      <defs>
       <path id="DejaVuSans-34" d="M 2419 4116 
L 825 1625 
L 2419 1625 
L 2419 4116 
z
M 2253 4666 
L 3047 4666 
L 3047 1625 
L 3713 1625 
L 3713 1100 
L 3047 1100 
L 3047 0 
L 2419 0 
L 2419 1100 
L 313 1100 
L 313 1709 
L 2253 4666 
z
" transform="scale(0.015625)"/>
      </defs>
      <use xlink:href="#DejaVuSans-34"/>
     </g>
    </g>
   </g>
   <g id="text_6">
    <g clip-path="url(#pad1e4d70f6)">
     <!-- 5 -->
     <g transform="translate(261.292618 222.667133) scale(0.1 -0.1)">
      <defs>
       <path id="DejaVuSans-35" d="M 691 4666 
L 3169 4666 
L 3169 4134 
L 1269 4134 
L 1269 2991 
Q 1406 3038 1543 3061 
Q 1681 3084 1819 3084 
Q 2600 3084 3056 2656 
Q 3513 2228 3513 1497 
Q 3513 744 3044 326 
Q 2575 -91 1722 -91 
Q 1428 -91 1123 -41 
Q 819 9 494 109 
L 494 744 
Q 775 591 1075 516 
Q 1375 441 1709 441 
Q 2250 441 2565 725 
Q 2881 1009 2881 1497 
Q 2881 1984 2565 2268 
Q 2250 2553 1709 2553 
Q 1456 2553 1204 2497 
Q 953 2441 691 2322 
L 691 4666 
z
" transform="scale(0.015625)"/>
      </defs>
      <use xlink:href="#DejaVuSans-35"/>
     </g>
    </g>
   </g>
   <g id="text_7">
    <g clip-path="url(#pad1e4d70f6)">
     <!-- 6 -->
     <g transform="translate(205.711535 244.799466) scale(0.1 -0.1)">
      <defs>
       <path id="DejaVuSans-36" d="M 2113 2584 
Q 1688 2584 1439 2293 
Q 1191 2003 1191 1497 
Q 1191 994 1439 701 
Q 1688 409 2113 409 
Q 2538 409 2786 701 
Q 3034 994 3034 1497 
Q 3034 2003 2786 2293 
Q 2538 2584 2113 2584 
z
M 3366 4563 
L 3366 3988 
Q 3128 4100 2886 4159 
Q 2644 4219 2406 4219 
Q 1781 4219 1451 3797 
Q 1122 3375 1075 2522 
Q 1259 2794 1537 2939 
Q 1816 3084 2150 3084 
Q 2853 3084 3261 2657 
Q 3669 2231 3669 1497 
Q 3669 778 3244 343 
Q 2819 -91 2113 -91 
Q 1303 -91 875 529 
Q 447 1150 447 2328 
Q 447 3434 972 4092 
Q 1497 4750 2381 4750 
Q 2619 4750 2861 4703 
Q 3103 4656 3366 4563 
z
" transform="scale(0.015625)"/>
      </defs>
      <use xlink:href="#DejaVuSans-36"/>
     </g>
    </g>
   </g>
   <g id="text_8">
    <g clip-path="url(#pad1e4d70f6)">
     <!-- 7 -->
     <g transform="translate(160.04861 308.513547) scale(0.1 -0.1)">
      <defs>
       <path id="DejaVuSans-37" d="M 525 4666 
L 3525 4666 
L 3525 4397 
L 1831 0 
L 1172 0 
L 2766 4134 
L 525 4134 
L 525 4666 
z
" transform="scale(0.015625)"/>
      </defs>
      <use xlink:href="#DejaVuSans-37"/>
     </g>
    </g>
   </g>
   <g id="text_9">
    <g clip-path="url(#pad1e4d70f6)">
     <!-- 8 -->
     <g transform="translate(171.252734 199.65948) scale(0.1 -0.1)">
      <defs>
       <path id="DejaVuSans-38" d="M 2034 2216 
Q 1584 2216 1326 1975 
Q 1069 1734 1069 1313 
Q 1069 891 1326 650 
Q 1584 409 2034 409 
Q 2484 409 2743 651 
Q 3003 894 3003 1313 
Q 3003 1734 2745 1975 
Q 2488 2216 2034 2216 
z
M 1403 2484 
Q 997 2584 770 2862 
Q 544 3141 544 3541 
Q 544 4100 942 4425 
Q 1341 4750 2034 4750 
Q 2731 4750 3128 4425 
Q 3525 4100 3525 3541 
Q 3525 3141 3298 2862 
Q 3072 2584 2669 2484 
Q 3125 2378 3379 2068 
Q 3634 1759 3634 1313 
Q 3634 634 3220 271 
Q 2806 -91 2034 -91 
Q 1263 -91 848 271 
Q 434 634 434 1313 
Q 434 1759 690 2068 
Q 947 2378 1403 2484 
z
M 1172 3481 
Q 1172 3119 1398 2916 
Q 1625 2713 2034 2713 
Q 2441 2713 2670 2916 
Q 2900 3119 2900 3481 
Q 2900 3844 2670 4047 
Q 2441 4250 2034 4250 
Q 1625 4250 1398 4047 
Q 1172 3844 1172 3481 
z
" transform="scale(0.015625)"/>
      </defs>
      <use xlink:href="#DejaVuSans-38"/>
     </g>
    </g>
   </g>
   <g id="text_10">
    <g clip-path="url(#pad1e4d70f6)">
     <!-- 9 -->
     <g transform="translate(135.80673 236.611601) scale(0.1 -0.1)">
      <defs>
       <path id="DejaVuSans-39" d="M 703 97 
L 703 672 
Q 941 559 1184 500 
Q 1428 441 1663 441 
Q 2288 441 2617 861 
Q 2947 1281 2994 2138 
Q 2813 1869 2534 1725 
Q 2256 1581 1919 1581 
Q 1219 1581 811 2004 
Q 403 2428 403 3163 
Q 403 3881 828 4315 
Q 1253 4750 1959 4750 
Q 2769 4750 3195 4129 
Q 3622 3509 3622 2328 
Q 3622 1225 3098 567 
Q 2575 -91 1691 -91 
Q 1453 -91 1209 -44 
Q 966 3 703 97 
z
M 1959 2075 
Q 2384 2075 2632 2365 
Q 2881 2656 2881 3163 
Q 2881 3666 2632 3958 
Q 2384 4250 1959 4250 
Q 1534 4250 1286 3958 
Q 1038 3666 1038 3163 
Q 1038 2656 1286 2365 
Q 1534 2075 1959 2075 
z
" transform="scale(0.015625)"/>
      </defs>
      <use xlink:href="#DejaVuSans-39"/>
     </g>
    </g>
   </g>
   <g id="text_11">
    <g clip-path="url(#pad1e4d70f6)">
     <!-- 10 -->
     <g transform="translate(33.624277 38.520226) scale(0.1 -0.1)">
      <use xlink:href="#DejaVuSans-31"/>
      <use xlink:href="#DejaVuSans-30" x="63.623047"/>
     </g>
    </g>
   </g>
   <g id="text_12">
    <g clip-path="url(#pad1e4d70f6)">
     <!-- 11 -->
     <g transform="translate(250.242434 297.076276) scale(0.1 -0.1)">
      <use xlink:href="#DejaVuSans-31"/>
      <use xlink:href="#DejaVuSans-31" x="63.623047"/>
     </g>
    </g>
   </g>
   <g id="text_13">
    <g clip-path="url(#pad1e4d70f6)">
     <!-- 12 -->
     <g transform="translate(224.877675 152.713063) scale(0.1 -0.1)">
      <use xlink:href="#DejaVuSans-31"/>
      <use xlink:href="#DejaVuSans-32" x="63.623047"/>
     </g>
    </g>
   </g>
   <g id="text_14">
    <g clip-path="url(#pad1e4d70f6)">
     <!-- 13 -->
     <g transform="translate(368.403529 110.325238) scale(0.1 -0.1)">
      <use xlink:href="#DejaVuSans-31"/>
      <use xlink:href="#DejaVuSans-33" x="63.623047"/>
     </g>
    </g>
   </g>
   <g id="text_15">
    <g clip-path="url(#pad1e4d70f6)">
     <!-- 14 -->
     <g transform="translate(264.566077 32.749458) scale(0.1 -0.1)">
      <use xlink:href="#DejaVuSans-31"/>
      <use xlink:href="#DejaVuSans-34" x="63.623047"/>
     </g>
    </g>
   </g>
   <g id="text_16">
    <g clip-path="url(#pad1e4d70f6)">
     <!-- 15 -->
     <g transform="translate(294.672755 90.136676) scale(0.1 -0.1)">
      <use xlink:href="#DejaVuSans-31"/>
      <use xlink:href="#DejaVuSans-35" x="63.623047"/>
     </g>
    </g>
   </g>
   <g id="text_17">
    <g clip-path="url(#pad1e4d70f6)">
     <!-- 16 -->
     <g transform="translate(166.774851 150.639264) scale(0.1 -0.1)">
      <use xlink:href="#DejaVuSans-31"/>
      <use xlink:href="#DejaVuSans-36" x="63.623047"/>
     </g>
    </g>
   </g>
   <g id="text_18">
    <g clip-path="url(#pad1e4d70f6)">
     <!-- 17 -->
     <g transform="translate(101.807889 61.643528) scale(0.1 -0.1)">
      <use xlink:href="#DejaVuSans-31"/>
      <use xlink:href="#DejaVuSans-37" x="63.623047"/>
     </g>
    </g>
   </g>
   <g id="text_19">
    <g clip-path="url(#pad1e4d70f6)">
     <!-- 18 -->
     <g transform="translate(71.795663 65.729859) scale(0.1 -0.1)">
      <use xlink:href="#DejaVuSans-31"/>
      <use xlink:href="#DejaVuSans-38" x="63.623047"/>
     </g>
    </g>
   </g>
   <g id="text_20">
    <g clip-path="url(#pad1e4d70f6)">
     <!-- 19 -->
     <g transform="translate(128.177755 105.362653) scale(0.1 -0.1)">
      <use xlink:href="#DejaVuSans-31"/>
      <use xlink:href="#DejaVuSans-39" x="63.623047"/>
     </g>
    </g>
   </g>
   <g id="text_21">
    <g clip-path="url(#pad1e4d70f6)">
     <!-- 20 -->
     <g transform="translate(114.085281 49.20335) scale(0.1 -0.1)">
      <use xlink:href="#DejaVuSans-32"/>
      <use xlink:href="#DejaVuSans-30" x="63.623047"/>
     </g>
    </g>
   </g>
   <g id="text_22">
    <g clip-path="url(#pad1e4d70f6)">
     <!-- 21 -->
     <g transform="translate(130.213092 54.183868) scale(0.1 -0.1)">
      <use xlink:href="#DejaVuSans-32"/>
      <use xlink:href="#DejaVuSans-31" x="63.623047"/>
     </g>
    </g>
   </g>
   <g id="text_23">
    <g clip-path="url(#pad1e4d70f6)">
     <!-- 22 -->
     <g transform="translate(370.684535 165.653111) scale(0.1 -0.1)">
      <use xlink:href="#DejaVuSans-32"/>
      <use xlink:href="#DejaVuSans-32" x="63.623047"/>
     </g>
    </g>
   </g>
   <g id="text_24">
    <g clip-path="url(#pad1e4d70f6)">
     <!-- 23 -->
     <g transform="translate(377.935636 182.892752) scale(0.1 -0.1)">
      <use xlink:href="#DejaVuSans-32"/>
      <use xlink:href="#DejaVuSans-33" x="63.623047"/>
     </g>
    </g>
   </g>
   <g id="text_25">
    <g clip-path="url(#pad1e4d70f6)">
     <!-- 24 -->
     <g transform="translate(244.087663 258.16912) scale(0.1 -0.1)">
      <use xlink:href="#DejaVuSans-32"/>
      <use xlink:href="#DejaVuSans-34" x="63.623047"/>
     </g>
    </g>
   </g>
   <g id="text_26">
    <g clip-path="url(#pad1e4d70f6)">
     <!-- 25 -->
     <g transform="translate(252.116637 238.916261) scale(0.1 -0.1)">
      <use xlink:href="#DejaVuSans-32"/>
      <use xlink:href="#DejaVuSans-35" x="63.623047"/>
     </g>
    </g>
   </g>
   <g id="text_27">
    <g clip-path="url(#pad1e4d70f6)">
     <!-- 26 -->
     <g transform="translate(269.440079 292.594956) scale(0.1 -0.1)">
      <use xlink:href="#DejaVuSans-32"/>
      <use xlink:href="#DejaVuSans-36" x="63.623047"/>
     </g>
    </g>
   </g>
   <g id="text_28">
    <g clip-path="url(#pad1e4d70f6)">
     <!-- 27 -->
     <g transform="translate(244.190309 40.272819) scale(0.1 -0.1)">
      <use xlink:href="#DejaVuSans-32"/>
      <use xlink:href="#DejaVuSans-37" x="63.623047"/>
     </g>
    </g>
   </g>
   <g id="text_29">
    <g clip-path="url(#pad1e4d70f6)">
     <!-- 28 -->
     <g transform="translate(260.643814 86.488049) scale(0.1 -0.1)">
      <use xlink:href="#DejaVuSans-32"/>
      <use xlink:href="#DejaVuSans-38" x="63.623047"/>
     </g>
    </g>
   </g>
   <g id="text_30">
    <g clip-path="url(#pad1e4d70f6)">
     <!-- 29 -->
     <g transform="translate(303.610468 110.579282) scale(0.1 -0.1)">
      <use xlink:href="#DejaVuSans-32"/>
      <use xlink:href="#DejaVuSans-39" x="63.623047"/>
     </g>
    </g>
   </g>
   <g id="text_31">
    <g clip-path="url(#pad1e4d70f6)">
     <!-- 30 -->
     <g transform="translate(410.034113 84.132323) scale(0.1 -0.1)">
      <use xlink:href="#DejaVuSans-33"/>
      <use xlink:href="#DejaVuSans-30" x="63.623047"/>
     </g>
    </g>
   </g>
   <g id="text_32">
    <g clip-path="url(#pad1e4d70f6)">
     <!-- 31 -->
     <g transform="translate(328.425443 175.212282) scale(0.1 -0.1)">
      <use xlink:href="#DejaVuSans-33"/>
      <use xlink:href="#DejaVuSans-31" x="63.623047"/>
     </g>
    </g>
   </g>
   <g id="text_33">
    <g clip-path="url(#pad1e4d70f6)">
     <!-- 32 -->
     <g transform="translate(346.708144 145.477011) scale(0.1 -0.1)">
      <use xlink:href="#DejaVuSans-33"/>
      <use xlink:href="#DejaVuSans-32" x="63.623047"/>
     </g>
    </g>
   </g>
   <g id="text_34">
    <g clip-path="url(#pad1e4d70f6)">
     <!-- 33 -->
     <g transform="translate(319.475455 216.611281) scale(0.1 -0.1)">
      <use xlink:href="#DejaVuSans-33"/>
      <use xlink:href="#DejaVuSans-33" x="63.623047"/>
     </g>
    </g>
   </g>
   <g id="text_35">
    <g clip-path="url(#pad1e4d70f6)">
     <!-- 34 -->
     <g transform="translate(334.92067 238.887552) scale(0.1 -0.1)">
      <use xlink:href="#DejaVuSans-33"/>
      <use xlink:href="#DejaVuSans-34" x="63.623047"/>
     </g>
    </g>
   </g>
   <g id="text_36">
    <g clip-path="url(#pad1e4d70f6)">
     <!-- 35 -->
     <g transform="translate(128.966383 163.593048) scale(0.1 -0.1)">
      <use xlink:href="#DejaVuSans-33"/>
      <use xlink:href="#DejaVuSans-35" x="63.623047"/>
     </g>
    </g>
   </g>
   <g id="text_37">
    <g clip-path="url(#pad1e4d70f6)">
     <!-- 36 -->
     <g transform="translate(87.810372 129.148397) scale(0.1 -0.1)">
      <use xlink:href="#DejaVuSans-33"/>
      <use xlink:href="#DejaVuSans-36" x="63.623047"/>
     </g>
    </g>
   </g>
   <g id="text_38">
    <g clip-path="url(#pad1e4d70f6)">
     <!-- 37 -->
     <g transform="translate(162.908598 108.316097) scale(0.1 -0.1)">
      <use xlink:href="#DejaVuSans-33"/>
      <use xlink:href="#DejaVuSans-37" x="63.623047"/>
     </g>
    </g>
   </g>
   <g id="text_39">
    <g clip-path="url(#pad1e4d70f6)">
     <!-- 38 -->
     <g transform="translate(197.534693 212.832669) scale(0.1 -0.1)">
      <use xlink:href="#DejaVuSans-33"/>
      <use xlink:href="#DejaVuSans-38" x="63.623047"/>
     </g>
    </g>
   </g>
   <g id="text_40">
    <g clip-path="url(#pad1e4d70f6)">
     <!-- 39 -->
     <g transform="translate(168.485497 243.771279) scale(0.1 -0.1)">
      <use xlink:href="#DejaVuSans-33"/>
      <use xlink:href="#DejaVuSans-39" x="63.623047"/>
     </g>
    </g>
   </g>
   <g id="text_41">
    <g clip-path="url(#pad1e4d70f6)">
     <!-- 40 -->
     <g transform="translate(170.624029 180.334411) scale(0.1 -0.1)">
      <use xlink:href="#DejaVuSans-34"/>
      <use xlink:href="#DejaVuSans-30" x="63.623047"/>
     </g>
    </g>
   </g>
   <g id="text_42">
    <g clip-path="url(#pad1e4d70f6)">
     <!-- 41 -->
     <g transform="translate(92.943164 110.430605) scale(0.1 -0.1)">
      <use xlink:href="#DejaVuSans-34"/>
      <use xlink:href="#DejaVuSans-31" x="63.623047"/>
     </g>
    </g>
   </g>
   <g id="text_43">
    <g clip-path="url(#pad1e4d70f6)">
     <!-- 42 -->
     <g transform="translate(106.531178 96.891493) scale(0.1 -0.1)">
      <use xlink:href="#DejaVuSans-34"/>
      <use xlink:href="#DejaVuSans-32" x="63.623047"/>
     </g>
    </g>
   </g>
   <g id="text_44">
    <g clip-path="url(#pad1e4d70f6)">
     <!-- 43 -->
     <g transform="translate(136.756558 132.455672) scale(0.1 -0.1)">
      <use xlink:href="#DejaVuSans-34"/>
      <use xlink:href="#DejaVuSans-33" x="63.623047"/>
     </g>
    </g>
   </g>
   <g id="text_45">
    <g clip-path="url(#pad1e4d70f6)">
     <!-- 44 -->
     <g transform="translate(91.482364 149.220824) scale(0.1 -0.1)">
      <use xlink:href="#DejaVuSans-34"/>
      <use xlink:href="#DejaVuSans-34" x="63.623047"/>
     </g>
    </g>
   </g>
   <g id="text_46">
    <g clip-path="url(#pad1e4d70f6)">
     <!-- 45 -->
     <g transform="translate(373.756858 201.456803) scale(0.1 -0.1)">
      <use xlink:href="#DejaVuSans-34"/>
      <use xlink:href="#DejaVuSans-35" x="63.623047"/>
     </g>
    </g>
   </g>
   <g id="text_47">
    <g clip-path="url(#pad1e4d70f6)">
     <!-- 46 -->
     <g transform="translate(308.421664 57.246281) scale(0.1 -0.1)">
      <use xlink:href="#DejaVuSans-34"/>
      <use xlink:href="#DejaVuSans-36" x="63.623047"/>
     </g>
    </g>
   </g>
   <g id="text_48">
    <g clip-path="url(#pad1e4d70f6)">
     <!-- 47 -->
     <g transform="translate(414.450723 105.874959) scale(0.1 -0.1)">
      <use xlink:href="#DejaVuSans-34"/>
      <use xlink:href="#DejaVuSans-37" x="63.623047"/>
     </g>
    </g>
   </g>
   <g id="text_49">
    <g clip-path="url(#pad1e4d70f6)">
     <!-- 48 -->
     <g transform="translate(366.881381 279.919887) scale(0.1 -0.1)">
      <use xlink:href="#DejaVuSans-34"/>
      <use xlink:href="#DejaVuSans-38" x="63.623047"/>
     </g>
    </g>
   </g>
   <g id="text_50">
    <g clip-path="url(#pad1e4d70f6)">
     <!-- 49 -->
     <g transform="translate(231.355454 206.218785) scale(0.1 -0.1)">
      <use xlink:href="#DejaVuSans-34"/>
      <use xlink:href="#DejaVuSans-39" x="63.623047"/>
     </g>
    </g>
   </g>
   <g id="text_51">
    <g clip-path="url(#pad1e4d70f6)">
     <!-- 50 -->
     <g transform="translate(322.864407 127.589436) scale(0.1 -0.1)">
      <use xlink:href="#DejaVuSans-35"/>
      <use xlink:href="#DejaVuSans-30" x="63.623047"/>
     </g>
    </g>
   </g>
   <g id="text_52">
    <g clip-path="url(#pad1e4d70f6)">
     <!-- 51 -->
     <g transform="translate(207.417004 131.241427) scale(0.1 -0.1)">
      <use xlink:href="#DejaVuSans-35"/>
      <use xlink:href="#DejaVuSans-31" x="63.623047"/>
     </g>
    </g>
   </g>
   <g id="text_53">
    <g clip-path="url(#pad1e4d70f6)">
     <!-- 52 -->
     <g transform="translate(397.278498 67.878667) scale(0.1 -0.1)">
      <use xlink:href="#DejaVuSans-35"/>
      <use xlink:href="#DejaVuSans-32" x="63.623047"/>
     </g>
    </g>
   </g>
   <g id="text_54">
    <g clip-path="url(#pad1e4d70f6)">
     <!-- 53 -->
     <g transform="translate(286.470573 230.858309) scale(0.1 -0.1)">
      <use xlink:href="#DejaVuSans-35"/>
      <use xlink:href="#DejaVuSans-33" x="63.623047"/>
     </g>
    </g>
   </g>
   <g id="text_55">
    <g clip-path="url(#pad1e4d70f6)">
     <!-- 54 -->
     <g transform="translate(126.550766 204.867308) scale(0.1 -0.1)">
      <use xlink:href="#DejaVuSans-35"/>
      <use xlink:href="#DejaVuSans-34" x="63.623047"/>
     </g>
    </g>
   </g>
  </g>
 </g>
 <defs>
  <clipPath id="pad1e4d70f6">
   <rect x="0" y="0" width="460.8" height="345.6"/>
  </clipPath>
 </defs>
</svg>
