<?xml version="1.0" encoding="utf-8" standalone="no"?>
<!DOCTYPE svg PUBLIC "-//W3C//DTD SVG 1.1//EN"
  "http://www.w3.org/Graphics/SVG/1.1/DTD/svg11.dtd">
<svg xmlns:xlink="http://www.w3.org/1999/xlink" width="460.8pt" height="345.6pt" viewBox="0 0 460.8 345.6" xmlns="http://www.w3.org/2000/svg" version="1.1">
 <metadata>
  <rdf:RDF xmlns:dc="http://purl.org/dc/elements/1.1/" xmlns:cc="http://creativecommons.org/ns#" xmlns:rdf="http://www.w3.org/1999/02/22-rdf-syntax-ns#">
   <cc:Work>
    <dc:type rdf:resource="http://purl.org/dc/dcmitype/StillImage"/>
    <dc:date>2023-10-10T10:56:07.313350</dc:date>
    <dc:format>image/svg+xml</dc:format>
    <dc:creator>
     <cc:Agent>
      <dc:title>Matplotlib v3.6.1, https://matplotlib.org/</dc:title>
     </cc:Agent>
    </dc:creator>
   </cc:Work>
  </rdf:RDF>
 </metadata>
 <defs>
  <style type="text/css">*{stroke-linejoin: round; stroke-linecap: butt}</style>
 </defs>
 <g id="figure_1">
  <g id="patch_1">
   <path d="M 0 345.6 
L 460.8 345.6 
L 460.8 0 
L 0 0 
z
" style="fill: #ffffff"/>
  </g>
  <g id="axes_1">
   <g id="patch_2">
    <path d="M 127.413528 140.902411 
Q 143.647185 155.56745 159.051207 169.48302 
" clip-path="url(#pb26978759d)" style="fill: none; stroke: #000000; stroke-linecap: round"/>
    <path d="M 157.423705 165.317538 
L 159.051207 169.48302 
L 154.74232 168.285732 
L 157.423705 165.317538 
z
" clip-path="url(#pb26978759d)" style="stroke: #000000; stroke-linecap: round"/>
   </g>
   <g id="patch_3">
    <path d="M 362.660164 239.538483 
Q 346.556505 223.092704 331.235063 207.44576 
" clip-path="url(#pb26978759d)" style="fill: none; stroke: #000000; stroke-linecap: round"/>
    <path d="M 332.604607 211.70303 
L 331.235063 207.44576 
L 335.462606 208.904487 
L 332.604607 211.70303 
z
" clip-path="url(#pb26978759d)" style="stroke: #000000; stroke-linecap: round"/>
   </g>
   <g id="patch_4">
    <path d="M 112.174362 151.662363 
Q 135.848363 161.233853 158.48584 170.386272 
" clip-path="url(#pb26978759d)" style="fill: none; stroke: #000000; stroke-linecap: round"/>
    <path d="M 155.527118 167.032772 
L 158.48584 170.386272 
L 154.027806 170.74115 
L 155.527118 167.032772 
z
" clip-path="url(#pb26978759d)" style="stroke: #000000; stroke-linecap: round"/>
   </g>
   <g id="patch_5">
    <path d="M 160.176586 272.498386 
Q 166.870497 252.081935 173.216085 232.727873 
" clip-path="url(#pb26978759d)" style="fill: none; stroke: #000000; stroke-linecap: round"/>
    <path d="M 170.069424 235.905691 
L 173.216085 232.727873 
L 173.870342 237.151892 
L 170.069424 235.905691 
z
" clip-path="url(#pb26978759d)" style="stroke: #000000; stroke-linecap: round"/>
   </g>
   <g id="patch_6">
    <path d="M 330.452033 206.646096 
Q 346.555692 223.091874 361.877135 238.738818 
" clip-path="url(#pb26978759d)" style="fill: none; stroke: #000000; stroke-linecap: round"/>
    <path d="M 360.50759 234.481548 
L 361.877135 238.738818 
L 357.649592 237.280091 
L 360.50759 234.481548 
z
" clip-path="url(#pb26978759d)" style="stroke: #000000; stroke-linecap: round"/>
   </g>
   <g id="patch_7">
    <path d="M 327.812829 203.816986 
Q 307.816739 181.315067 288.563314 159.648881 
" clip-path="url(#pb26978759d)" style="fill: none; stroke: #000000; stroke-linecap: round"/>
    <path d="M 289.725349 163.967408 
L 288.563314 159.648881 
L 292.715356 161.31037 
L 289.725349 163.967408 
z
" clip-path="url(#pb26978759d)" style="stroke: #000000; stroke-linecap: round"/>
   </g>
   <g id="patch_8">
    <path d="M 327.234491 204.740967 
Q 297.476988 196.390204 268.795937 188.341523 
" clip-path="url(#pb26978759d)" style="fill: none; stroke: #000000; stroke-linecap: round"/>
    <path d="M 272.106785 191.347896 
L 268.795937 188.341523 
L 273.187545 187.496668 
L 272.106785 191.347896 
z
" clip-path="url(#pb26978759d)" style="stroke: #000000; stroke-linecap: round"/>
   </g>
   <g id="patch_9">
    <path d="M 330.885702 206.006139 
Q 354.732425 215.908372 377.546597 225.381843 
" clip-path="url(#pb26978759d)" style="fill: none; stroke: #000000; stroke-linecap: round"/>
    <path d="M 374.61942 222.000773 
L 377.546597 225.381843 
L 373.085435 225.694942 
L 374.61942 222.000773 
z
" clip-path="url(#pb26978759d)" style="stroke: #000000; stroke-linecap: round"/>
   </g>
   <g id="patch_10">
    <path d="M 303.412182 183.561733 
Q 285.599911 185.437714 268.899523 187.196592 
" clip-path="url(#pb26978759d)" style="fill: none; stroke: #000000; stroke-linecap: round"/>
    <path d="M 273.087002 188.76663 
L 268.899523 187.196592 
L 272.668041 184.788631 
L 273.087002 188.76663 
z
" clip-path="url(#pb26978759d)" style="stroke: #000000; stroke-linecap: round"/>
   </g>
   <g id="patch_11">
    <path d="M 293.503932 217.632495 
Q 280.337189 203.289751 267.926528 189.77062 
" clip-path="url(#pb26978759d)" style="fill: none; stroke: #000000; stroke-linecap: round"/>
    <path d="M 269.158248 194.06979 
L 267.926528 189.77062 
L 272.104896 191.364746 
L 269.158248 194.06979 
z
" clip-path="url(#pb26978759d)" style="stroke: #000000; stroke-linecap: round"/>
   </g>
   <g id="patch_12">
    <path d="M 295.561814 217.272963 
Q 299.367889 208.188309 302.741941 200.134846 
" clip-path="url(#pb26978759d)" style="fill: none; stroke: #000000; stroke-linecap: round"/>
    <path d="M 299.351633 203.051319 
L 302.741941 200.134846 
L 303.040934 204.596976 
L 299.351633 203.051319 
z
" clip-path="url(#pb26978759d)" style="stroke: #000000; stroke-linecap: round"/>
   </g>
   <g id="patch_13">
    <path d="M 378.583321 225.812337 
Q 354.736597 215.910105 331.922426 206.436634 
" clip-path="url(#pb26978759d)" style="fill: none; stroke: #000000; stroke-linecap: round"/>
    <path d="M 334.849603 209.817704 
L 331.922426 206.436634 
L 336.383588 206.123534 
L 334.849603 209.817704 
z
" clip-path="url(#pb26978759d)" style="stroke: #000000; stroke-linecap: round"/>
   </g>
   <g id="patch_14">
    <path d="M 287.81919 158.811507 
Q 307.815281 181.313426 327.068706 202.979612 
" clip-path="url(#pb26978759d)" style="fill: none; stroke: #000000; stroke-linecap: round"/>
    <path d="M 325.906671 198.661085 
L 327.068706 202.979612 
L 322.916663 201.318123 
L 325.906671 198.661085 
z
" clip-path="url(#pb26978759d)" style="stroke: #000000; stroke-linecap: round"/>
   </g>
   <g id="patch_15">
    <path d="M 285.266616 155.900346 
Q 284.144743 154.603599 283.75437 154.152375 
" clip-path="url(#pb26978759d)" style="fill: none; stroke: #000000; stroke-linecap: round"/>
    <path d="M 284.858942 158.485956 
L 283.75437 154.152375 
L 287.883978 155.868866 
L 284.858942 158.485956 
z
" clip-path="url(#pb26978759d)" style="stroke: #000000; stroke-linecap: round"/>
   </g>
   <g id="patch_16">
    <path d="M 287.306889 159.142069 
Q 295.22757 177.341181 302.702082 194.515144 
" clip-path="url(#pb26978759d)" style="fill: none; stroke: #000000; stroke-linecap: round"/>
    <path d="M 302.939662 190.049323 
L 302.702082 194.515144 
L 299.271974 191.645587 
L 302.939662 190.049323 
z
" clip-path="url(#pb26978759d)" style="stroke: #000000; stroke-linecap: round"/>
   </g>
   <g id="patch_17">
    <path d="M 288.313383 158.136616 
Q 305.185526 165.455987 321.03199 172.330404 
" clip-path="url(#pb26978759d)" style="fill: none; stroke: #000000; stroke-linecap: round"/>
    <path d="M 318.158368 168.9037 
L 321.03199 172.330404 
L 316.566454 172.573279 
L 318.158368 168.9037 
z
" clip-path="url(#pb26978759d)" style="stroke: #000000; stroke-linecap: round"/>
   </g>
   <g id="patch_18">
    <path d="M 284.745135 156.612312 
Q 269.298138 150.115517 254.881731 144.052174 
" clip-path="url(#pb26978759d)" style="fill: none; stroke: #000000; stroke-linecap: round"/>
    <path d="M 257.793504 147.446519 
L 254.881731 144.052174 
L 259.344271 143.759363 
L 257.793504 147.446519 
z
" clip-path="url(#pb26978759d)" style="stroke: #000000; stroke-linecap: round"/>
   </g>
   <g id="patch_19">
    <path d="M 285.440345 158.958099 
Q 276.19761 172.437449 267.587144 184.994717 
" clip-path="url(#pb26978759d)" style="fill: none; stroke: #000000; stroke-linecap: round"/>
    <path d="M 271.498688 182.826809 
L 267.587144 184.994717 
L 268.199744 180.564737 
L 271.498688 182.826809 
z
" clip-path="url(#pb26978759d)" style="stroke: #000000; stroke-linecap: round"/>
   </g>
   <g id="patch_20">
    <path d="M 285.540751 155.701053 
Q 264.167026 119.879233 243.366171 85.017528 
" clip-path="url(#pb26978759d)" style="fill: none; stroke: #000000; stroke-linecap: round"/>
    <path d="M 243.698226 89.477319 
L 243.366171 85.017528 
L 247.133237 87.427759 
L 243.698226 89.477319 
z
" clip-path="url(#pb26978759d)" style="stroke: #000000; stroke-linecap: round"/>
   </g>
   <g id="patch_21">
    <path d="M 253.856147 143.620827 
Q 269.303145 150.117623 283.719552 156.180966 
" clip-path="url(#pb26978759d)" style="fill: none; stroke: #000000; stroke-linecap: round"/>
    <path d="M 280.807779 152.78662 
L 283.719552 156.180966 
L 279.257012 156.473776 
L 280.807779 152.78662 
z
" clip-path="url(#pb26978759d)" style="stroke: #000000; stroke-linecap: round"/>
   </g>
   <g id="patch_22">
    <path d="M 124.142896 30.718691 
Q 147.476314 40.192891 169.773833 49.246479 
" clip-path="url(#pb26978759d)" style="fill: none; stroke: #000000; stroke-linecap: round"/>
    <path d="M 166.820103 45.888581 
L 169.773833 49.246479 
L 165.315277 49.594724 
L 166.820103 45.888581 
z
" clip-path="url(#pb26978759d)" style="stroke: #000000; stroke-linecap: round"/>
   </g>
   <g id="patch_23">
    <path d="M 172.533828 239.025587 
Q 189.716305 224.601888 206.042463 210.89702 
" clip-path="url(#pb26978759d)" style="fill: none; stroke: #000000; stroke-linecap: round"/>
    <path d="M 201.692919 211.936956 
L 206.042463 210.89702 
L 204.264686 215.000617 
L 201.692919 211.936956 
z
" clip-path="url(#pb26978759d)" style="stroke: #000000; stroke-linecap: round"/>
   </g>
   <g id="patch_24">
    <path d="M 261.881538 161.348084 
Q 291.905297 167.259136 320.83208 172.954216 
" clip-path="url(#pb26978759d)" style="fill: none; stroke: #000000; stroke-linecap: round"/>
    <path d="M 317.293761 170.219202 
L 320.83208 172.954216 
L 316.521077 174.143863 
L 317.293761 170.219202 
z
" clip-path="url(#pb26978759d)" style="stroke: #000000; stroke-linecap: round"/>
   </g>
   <g id="patch_25">
    <path d="M 261.825375 160.371281 
Q 310.527105 144.420713 358.166335 128.818129 
" clip-path="url(#pb26978759d)" style="fill: none; stroke: #000000; stroke-linecap: round"/>
    <path d="M 353.742524 128.162461 
L 358.166335 128.818129 
L 354.987514 131.963777 
L 353.742524 128.162461 
z
" clip-path="url(#pb26978759d)" style="stroke: #000000; stroke-linecap: round"/>
   </g>
   <g id="patch_26">
    <path d="M 260.401764 162.863397 
Q 262.92025 174.243701 265.197158 184.532382 
" clip-path="url(#pb26978759d)" style="fill: none; stroke: #000000; stroke-linecap: round"/>
    <path d="M 266.285614 180.194726 
L 265.197158 184.532382 
L 262.380107 181.059023 
L 266.285614 180.194726 
z
" clip-path="url(#pb26978759d)" style="stroke: #000000; stroke-linecap: round"/>
   </g>
   <g id="patch_27">
    <path d="M 261.719616 160.1202 
Q 281.62738 150.323371 300.531998 141.020201 
" clip-path="url(#pb26978759d)" style="fill: none; stroke: #000000; stroke-linecap: round"/>
    <path d="M 296.059952 140.991887 
L 300.531998 141.020201 
L 297.82612 144.58085 
L 296.059952 140.991887 
z
" clip-path="url(#pb26978759d)" style="stroke: #000000; stroke-linecap: round"/>
   </g>
   <g id="patch_28">
    <path d="M 258.563246 162.294644 
Q 234.180681 184.955721 210.617067 206.855666 
" clip-path="url(#pb26978759d)" style="fill: none; stroke: #000000; stroke-linecap: round"/>
    <path d="M 214.908587 205.597548 
L 210.617067 206.855666 
L 212.185484 202.66758 
L 214.908587 205.597548 
z
" clip-path="url(#pb26978759d)" style="stroke: #000000; stroke-linecap: round"/>
   </g>
   <g id="patch_29">
    <path d="M 258.308685 160.005271 
Q 233.443938 145.618652 209.546915 131.791953 
" clip-path="url(#pb26978759d)" style="fill: none; stroke: #000000; stroke-linecap: round"/>
    <path d="M 212.007533 135.526301 
L 209.546915 131.791953 
L 214.010765 132.064067 
L 212.007533 135.526301 
z
" clip-path="url(#pb26978759d)" style="stroke: #000000; stroke-linecap: round"/>
   </g>
   <g id="patch_30">
    <path d="M 258.059703 161.180322 
Q 210.653322 166.252904 164.35863 171.206533 
" clip-path="url(#pb26978759d)" style="fill: none; stroke: #000000; stroke-linecap: round"/>
    <path d="M 168.548715 172.769602 
L 164.35863 171.206533 
L 168.123136 168.792306 
L 168.548715 172.769602 
z
" clip-path="url(#pb26978759d)" style="stroke: #000000; stroke-linecap: round"/>
   </g>
   <g id="patch_31">
    <path d="M 94.805467 209.276792 
Q 68.358059 212.314616 43.021381 215.224858 
" clip-path="url(#pb26978759d)" style="fill: none; stroke: #000000; stroke-linecap: round"/>
    <path d="M 47.223478 216.755343 
L 43.021381 215.224858 
L 46.767028 212.781472 
L 47.223478 216.755343 
z
" clip-path="url(#pb26978759d)" style="stroke: #000000; stroke-linecap: round"/>
   </g>
   <g id="patch_32">
    <path d="M 94.83407 208.658674 
Q 69.939076 203.434439 46.138283 198.439823 
" clip-path="url(#pb26978759d)" style="fill: none; stroke: #000000; stroke-linecap: round"/>
    <path d="M 49.64226 201.218698 
L 46.138283 198.439823 
L 50.463769 197.303967 
L 49.64226 201.218698 
z
" clip-path="url(#pb26978759d)" style="stroke: #000000; stroke-linecap: round"/>
   </g>
   <g id="patch_33">
    <path d="M 98.403033 208.082642 
Q 129.022005 190.294655 158.67424 173.06829 
" clip-path="url(#pb26978759d)" style="fill: none; stroke: #000000; stroke-linecap: round"/>
    <path d="M 154.210876 173.34826 
L 158.67424 173.06829 
L 156.220198 176.806963 
L 154.210876 173.34826 
z
" clip-path="url(#pb26978759d)" style="stroke: #000000; stroke-linecap: round"/>
   </g>
   <g id="patch_34">
    <path d="M 94.982004 209.893369 
Q 72.45023 220.702132 50.926503 231.027323 
" clip-path="url(#pb26978759d)" style="fill: none; stroke: #000000; stroke-linecap: round"/>
    <path d="M 55.39804 231.100491 
L 50.926503 231.027323 
L 53.66796 227.493994 
L 55.39804 231.100491 
z
" clip-path="url(#pb26978759d)" style="stroke: #000000; stroke-linecap: round"/>
   </g>
   <g id="patch_35">
    <path d="M 98.59454 209.556712 
Q 135.447294 219.439862 171.220173 229.033413 
" clip-path="url(#pb26978759d)" style="fill: none; stroke: #000000; stroke-linecap: round"/>
    <path d="M 167.874745 226.065566 
L 171.220173 229.033413 
L 166.838639 229.929047 
L 167.874745 226.065566 
z
" clip-path="url(#pb26978759d)" style="stroke: #000000; stroke-linecap: round"/>
   </g>
   <g id="patch_36">
    <path d="M 207.902701 88.351692 
Q 207.424762 108.338051 206.973551 127.206696 
" clip-path="url(#pb26978759d)" style="fill: none; stroke: #000000; stroke-linecap: round"/>
    <path d="M 209.068605 123.255652 
L 206.973551 127.206696 
L 205.069749 123.160026 
L 209.068605 123.255652 
z
" clip-path="url(#pb26978759d)" style="stroke: #000000; stroke-linecap: round"/>
   </g>
   <g id="patch_37">
    <path d="M 170.408452 151.929087 
Q 166.00657 169.839105 161.871535 186.6634 
" clip-path="url(#pb26978759d)" style="fill: none; stroke: #000000; stroke-linecap: round"/>
    <path d="M 164.768432 183.256351 
L 161.871535 186.6634 
L 160.884034 182.301653 
L 164.768432 183.256351 
z
" clip-path="url(#pb26978759d)" style="stroke: #000000; stroke-linecap: round"/>
   </g>
   <g id="patch_38">
    <path d="M 172.565915 149.118302 
Q 188.884492 140.155676 204.22311 131.73127 
" clip-path="url(#pb26978759d)" style="fill: none; stroke: #000000; stroke-linecap: round"/>
    <path d="M 199.754306 131.903865 
L 204.22311 131.73127 
L 201.679904 135.409871 
L 199.754306 131.903865 
z
" clip-path="url(#pb26978759d)" style="stroke: #000000; stroke-linecap: round"/>
   </g>
   <g id="patch_39">
    <path d="M 301.83468 117.098643 
Q 284.286436 151.446054 267.246859 184.797845 
" clip-path="url(#pb26978759d)" style="fill: none; stroke: #000000; stroke-linecap: round"/>
    <path d="M 270.847738 182.145739 
L 267.246859 184.797845 
L 267.285701 180.325878 
L 270.847738 182.145739 
z
" clip-path="url(#pb26978759d)" style="stroke: #000000; stroke-linecap: round"/>
   </g>
   <g id="patch_40">
    <path d="M 303.598214 113.652709 
Q 312.899224 95.509326 321.690198 78.360863 
" clip-path="url(#pb26978759d)" style="fill: none; stroke: #000000; stroke-linecap: round"/>
    <path d="M 318.085677 81.008017 
L 321.690198 78.360863 
L 321.645209 82.832772 
L 318.085677 81.008017 
z
" clip-path="url(#pb26978759d)" style="stroke: #000000; stroke-linecap: round"/>
   </g>
   <g id="patch_41">
    <path d="M 301.007775 114.453053 
Q 272.255672 98.884936 244.486733 83.849163 
" clip-path="url(#pb26978759d)" style="fill: none; stroke: #000000; stroke-linecap: round"/>
    <path d="M 247.051919 87.51247 
L 244.486733 83.849163 
L 248.95649 83.994998 
L 247.051919 87.51247 
z
" clip-path="url(#pb26978759d)" style="stroke: #000000; stroke-linecap: round"/>
   </g>
   <g id="patch_42">
    <path d="M 304.25114 114.197524 
Q 322.603286 100.112755 340.068499 86.708683 
" clip-path="url(#pb26978759d)" style="fill: none; stroke: #000000; stroke-linecap: round"/>
    <path d="M 335.677641 87.557424 
L 340.068499 86.708683 
L 338.112977 90.730614 
L 335.677641 87.557424 
z
" clip-path="url(#pb26978759d)" style="stroke: #000000; stroke-linecap: round"/>
   </g>
   <g id="patch_43">
    <path d="M 304.605453 115.781872 
Q 331.890362 121.622467 358.082003 127.229037 
" clip-path="url(#pb26978759d)" style="fill: none; stroke: #000000; stroke-linecap: round"/>
    <path d="M 354.589247 124.436071 
L 358.082003 127.229037 
L 353.751977 128.347462 
L 354.589247 124.436071 
z
" clip-path="url(#pb26978759d)" style="stroke: #000000; stroke-linecap: round"/>
   </g>
   <g id="patch_44">
    <path d="M 209.577577 51.139751 
Q 224.994294 66.093127 239.608473 80.268086 
" clip-path="url(#pb26978759d)" style="fill: none; stroke: #000000; stroke-linecap: round"/>
    <path d="M 238.129704 76.047512 
L 239.608473 80.268086 
L 235.344753 78.918757 
L 238.129704 76.047512 
z
" clip-path="url(#pb26978759d)" style="stroke: #000000; stroke-linecap: round"/>
   </g>
   <g id="patch_45">
    <path d="M 170.810734 49.667498 
Q 147.477316 40.193298 125.179797 31.13971 
" clip-path="url(#pb26978759d)" style="fill: none; stroke: #000000; stroke-linecap: round"/>
    <path d="M 128.133527 34.497608 
L 125.179797 31.13971 
L 129.638353 30.791465 
L 128.133527 34.497608 
z
" clip-path="url(#pb26978759d)" style="stroke: #000000; stroke-linecap: round"/>
   </g>
   <g id="patch_46">
    <path d="M 174.366341 51.210537 
Q 207.205189 66.396519 239.029256 81.113225 
" clip-path="url(#pb26978759d)" style="fill: none; stroke: #000000; stroke-linecap: round"/>
    <path d="M 236.238129 77.619 
L 239.029256 81.113225 
L 234.5592 81.249592 
L 236.238129 77.619 
z
" clip-path="url(#pb26978759d)" style="stroke: #000000; stroke-linecap: round"/>
   </g>
   <g id="patch_47">
    <path d="M 242.793963 84.058521 
Q 264.167688 119.880341 284.968543 154.742047 
" clip-path="url(#pb26978759d)" style="fill: none; stroke: #000000; stroke-linecap: round"/>
    <path d="M 284.636488 150.282255 
L 284.968543 154.742047 
L 281.201477 152.331816 
L 284.636488 150.282255 
z
" clip-path="url(#pb26978759d)" style="stroke: #000000; stroke-linecap: round"/>
   </g>
   <g id="patch_48">
    <path d="M 243.508012 83.319226 
Q 272.260116 98.887342 300.029055 113.923115 
" clip-path="url(#pb26978759d)" style="fill: none; stroke: #000000; stroke-linecap: round"/>
    <path d="M 297.463869 110.259808 
L 300.029055 113.923115 
L 295.559298 113.77728 
L 297.463869 110.259808 
z
" clip-path="url(#pb26978759d)" style="stroke: #000000; stroke-linecap: round"/>
   </g>
   <g id="patch_49">
    <path d="M 240.412624 81.048068 
Q 224.995907 66.094692 210.381727 51.919733 
" clip-path="url(#pb26978759d)" style="fill: none; stroke: #000000; stroke-linecap: round"/>
    <path d="M 211.860496 56.140306 
L 210.381727 51.919733 
L 214.645448 53.269061 
L 211.860496 56.140306 
z
" clip-path="url(#pb26978759d)" style="stroke: #000000; stroke-linecap: round"/>
   </g>
   <g id="patch_50">
    <path d="M 240.040372 81.580805 
Q 207.201524 66.394824 175.377457 51.678117 
" clip-path="url(#pb26978759d)" style="fill: none; stroke: #000000; stroke-linecap: round"/>
    <path d="M 178.168584 55.172342 
L 175.377457 51.678117 
L 179.847513 51.541751 
L 178.168584 55.172342 
z
" clip-path="url(#pb26978759d)" style="stroke: #000000; stroke-linecap: round"/>
   </g>
   <g id="patch_51">
    <path d="M 241.122923 80.581823 
Q 233.893962 61.264284 227.05685 42.993862 
" clip-path="url(#pb26978759d)" style="fill: none; stroke: #000000; stroke-linecap: round"/>
    <path d="M 226.585633 47.441104 
L 227.05685 42.993862 
L 230.331913 46.03918 
L 226.585633 47.441104 
z
" clip-path="url(#pb26978759d)" style="stroke: #000000; stroke-linecap: round"/>
   </g>
   <g id="patch_52">
    <path d="M 242.184788 80.496545 
Q 246.050217 61.346664 249.694431 43.292713 
" clip-path="url(#pb26978759d)" style="fill: none; stroke: #000000; stroke-linecap: round"/>
    <path d="M 246.942527 46.817912 
L 249.694431 43.292713 
L 250.863448 47.609355 
L 246.942527 46.817912 
z
" clip-path="url(#pb26978759d)" style="stroke: #000000; stroke-linecap: round"/>
   </g>
   <g id="patch_53">
    <path d="M 226.664553 41.945552 
Q 233.893515 61.26309 240.730627 79.533512 
" clip-path="url(#pb26978759d)" style="fill: none; stroke: #000000; stroke-linecap: round"/>
    <path d="M 241.201843 75.086271 
L 240.730627 79.533512 
L 237.455564 76.488194 
L 241.201843 75.086271 
z
" clip-path="url(#pb26978759d)" style="stroke: #000000; stroke-linecap: round"/>
   </g>
   <g id="patch_54">
    <path d="M 249.915196 42.199008 
Q 246.049767 61.348889 242.405553 79.40284 
" clip-path="url(#pb26978759d)" style="fill: none; stroke: #000000; stroke-linecap: round"/>
    <path d="M 245.157457 75.877641 
L 242.405553 79.40284 
L 241.236536 75.086198 
L 245.157457 75.877641 
z
" clip-path="url(#pb26978759d)" style="stroke: #000000; stroke-linecap: round"/>
   </g>
   <g id="patch_55">
    <path d="M 196.778139 275.816 
Q 185.900266 253.688809 175.515645 232.564964 
" clip-path="url(#pb26978759d)" style="fill: none; stroke: #000000; stroke-linecap: round"/>
    <path d="M 175.485515 237.036998 
L 175.515645 232.564964 
L 179.075194 235.272288 
L 175.485515 237.036998 
z
" clip-path="url(#pb26978759d)" style="stroke: #000000; stroke-linecap: round"/>
   </g>
   <g id="patch_56">
    <path d="M 126.288981 253.93934 
Q 149.365032 242.316614 171.442554 231.196818 
" clip-path="url(#pb26978759d)" style="fill: none; stroke: #000000; stroke-linecap: round"/>
    <path d="M 166.970438 231.209931 
L 171.442554 231.196818 
L 168.769774 234.782379 
L 166.970438 231.209931 
z
" clip-path="url(#pb26978759d)" style="stroke: #000000; stroke-linecap: round"/>
   </g>
   <g id="patch_57">
    <path d="M 206.896732 210.17991 
Q 189.714255 224.603609 173.388097 238.308477 
" clip-path="url(#pb26978759d)" style="fill: none; stroke: #000000; stroke-linecap: round"/>
    <path d="M 177.737641 237.268541 
L 173.388097 238.308477 
L 175.165875 234.20488 
L 177.737641 237.268541 
z
" clip-path="url(#pb26978759d)" style="stroke: #000000; stroke-linecap: round"/>
   </g>
   <g id="patch_58">
    <path d="M 209.800463 207.614616 
Q 234.183028 184.95354 257.746642 163.053594 
" clip-path="url(#pb26978759d)" style="fill: none; stroke: #000000; stroke-linecap: round"/>
    <path d="M 253.455122 164.311713 
L 257.746642 163.053594 
L 256.178225 167.241681 
L 253.455122 164.311713 
z
" clip-path="url(#pb26978759d)" style="stroke: #000000; stroke-linecap: round"/>
   </g>
   <g id="patch_59">
    <path d="M 206.503284 209.407671 
Q 181.828798 215.624735 158.238462 221.568634 
" clip-path="url(#pb26978759d)" style="fill: none; stroke: #000000; stroke-linecap: round"/>
    <path d="M 162.605888 222.530712 
L 158.238462 221.568634 
L 161.62858 218.65194 
L 162.605888 222.530712 
z
" clip-path="url(#pb26978759d)" style="stroke: #000000; stroke-linecap: round"/>
   </g>
   <g id="patch_60">
    <path d="M 209.704796 210.351984 
Q 219.805753 221.157032 229.143198 231.145349 
" clip-path="url(#pb26978759d)" style="fill: none; stroke: #000000; stroke-linecap: round"/>
    <path d="M 227.872593 226.85751 
L 229.143198 231.145349 
L 224.950564 229.58913 
L 227.872593 226.85751 
z
" clip-path="url(#pb26978759d)" style="stroke: #000000; stroke-linecap: round"/>
   </g>
   <g id="patch_61">
    <path d="M 157.151846 221.842421 
Q 181.826331 215.625357 205.416667 209.681459 
" clip-path="url(#pb26978759d)" style="fill: none; stroke: #000000; stroke-linecap: round"/>
    <path d="M 201.049242 208.719381 
L 205.416667 209.681459 
L 202.02655 212.598152 
L 201.049242 208.719381 
z
" clip-path="url(#pb26978759d)" style="stroke: #000000; stroke-linecap: round"/>
   </g>
   <g id="patch_62">
    <path d="M 238.813117 96.223846 
Q 223.520041 112.534932 208.991672 128.030407 
" clip-path="url(#pb26978759d)" style="fill: none; stroke: #000000; stroke-linecap: round"/>
    <path d="M 213.186583 126.480337 
L 208.991672 128.030407 
L 210.268562 123.744436 
L 213.186583 126.480337 
z
" clip-path="url(#pb26978759d)" style="stroke: #000000; stroke-linecap: round"/>
   </g>
   <g id="patch_63">
    <path d="M 208.575569 131.229937 
Q 233.440316 145.616556 257.337339 159.443255 
" clip-path="url(#pb26978759d)" style="fill: none; stroke: #000000; stroke-linecap: round"/>
    <path d="M 254.876721 155.708906 
L 257.337339 159.443255 
L 252.87349 159.17114 
L 254.876721 155.708906 
z
" clip-path="url(#pb26978759d)" style="stroke: #000000; stroke-linecap: round"/>
   </g>
   <g id="patch_64">
    <path d="M 206.946785 128.326002 
Q 207.424724 108.339643 207.875935 89.470998 
" clip-path="url(#pb26978759d)" style="fill: none; stroke: #000000; stroke-linecap: round"/>
    <path d="M 205.78088 93.422042 
L 207.875935 89.470998 
L 209.779737 93.517667 
L 205.78088 93.422042 
z
" clip-path="url(#pb26978759d)" style="stroke: #000000; stroke-linecap: round"/>
   </g>
   <g id="patch_65">
    <path d="M 205.20501 131.191983 
Q 188.886433 140.154609 173.547815 148.579015 
" clip-path="url(#pb26978759d)" style="fill: none; stroke: #000000; stroke-linecap: round"/>
    <path d="M 178.016619 148.40642 
L 173.547815 148.579015 
L 176.091021 144.900414 
L 178.016619 148.40642 
z
" clip-path="url(#pb26978759d)" style="stroke: #000000; stroke-linecap: round"/>
   </g>
   <g id="patch_66">
    <path d="M 208.225223 128.847875 
Q 223.5183 112.536789 238.046669 97.041315 
" clip-path="url(#pb26978759d)" style="fill: none; stroke: #000000; stroke-linecap: round"/>
    <path d="M 233.851758 98.591385 
L 238.046669 97.041315 
L 236.769779 101.327286 
L 233.851758 98.591385 
z
" clip-path="url(#pb26978759d)" style="stroke: #000000; stroke-linecap: round"/>
   </g>
   <g id="patch_67">
    <path d="M 205.467753 131.558037 
Q 184.111541 150.894696 163.584114 169.480944 
" clip-path="url(#pb26978759d)" style="fill: none; stroke: #000000; stroke-linecap: round"/>
    <path d="M 167.89164 168.278769 
L 163.584114 169.480944 
L 165.206889 165.313618 
L 167.89164 168.278769 
z
" clip-path="url(#pb26978759d)" style="stroke: #000000; stroke-linecap: round"/>
   </g>
   <g id="patch_68">
    <path d="M 159.880208 170.231917 
Q 143.646552 155.566878 128.24253 141.651309 
" clip-path="url(#pb26978759d)" style="fill: none; stroke: #000000; stroke-linecap: round"/>
    <path d="M 129.870032 145.81679 
L 128.24253 141.651309 
L 132.551416 142.848596 
L 129.870032 145.81679 
z
" clip-path="url(#pb26978759d)" style="stroke: #000000; stroke-linecap: round"/>
   </g>
   <g id="patch_69">
    <path d="M 159.525176 170.80648 
Q 135.851176 161.23499 113.213699 152.08257 
" clip-path="url(#pb26978759d)" style="fill: none; stroke: #000000; stroke-linecap: round"/>
    <path d="M 116.17242 155.436071 
L 113.213699 152.08257 
L 117.671732 151.727693 
L 116.17242 155.436071 
z
" clip-path="url(#pb26978759d)" style="stroke: #000000; stroke-linecap: round"/>
   </g>
   <g id="patch_70">
    <path d="M 163.24313 171.325894 
Q 210.64951 166.253312 256.944203 161.299683 
" clip-path="url(#pb26978759d)" style="fill: none; stroke: #000000; stroke-linecap: round"/>
    <path d="M 252.754117 159.736614 
L 256.944203 161.299683 
L 253.179696 163.71391 
L 252.754117 159.736614 
z
" clip-path="url(#pb26978759d)" style="stroke: #000000; stroke-linecap: round"/>
   </g>
   <g id="patch_71">
    <path d="M 159.643596 172.505146 
Q 129.024624 190.293133 99.372389 207.519498 
" clip-path="url(#pb26978759d)" style="fill: none; stroke: #000000; stroke-linecap: round"/>
    <path d="M 103.835753 207.239528 
L 99.372389 207.519498 
L 101.826431 203.780825 
L 103.835753 207.239528 
z
" clip-path="url(#pb26978759d)" style="stroke: #000000; stroke-linecap: round"/>
   </g>
   <g id="patch_72">
    <path d="M 162.751863 170.234493 
Q 184.108074 150.897835 204.635501 132.311586 
" clip-path="url(#pb26978759d)" style="fill: none; stroke: #000000; stroke-linecap: round"/>
    <path d="M 200.327976 133.513762 
L 204.635501 132.311586 
L 203.012726 136.478912 
L 200.327976 133.513762 
z
" clip-path="url(#pb26978759d)" style="stroke: #000000; stroke-linecap: round"/>
   </g>
   <g id="patch_73">
    <path d="M 159.386743 171.387925 
Q 134.534069 169.537889 110.796344 167.77085 
" clip-path="url(#pb26978759d)" style="fill: none; stroke: #000000; stroke-linecap: round"/>
    <path d="M 114.636838 170.06227 
L 110.796344 167.77085 
L 114.933777 166.073307 
L 114.636838 170.06227 
z
" clip-path="url(#pb26978759d)" style="stroke: #000000; stroke-linecap: round"/>
   </g>
   <g id="patch_74">
    <path d="M 161.300121 173.471655 
Q 161.230559 180.583005 161.171932 186.576373 
" clip-path="url(#pb26978759d)" style="fill: none; stroke: #000000; stroke-linecap: round"/>
    <path d="M 163.210962 182.596127 
L 161.171932 186.576373 
L 159.211154 182.557001 
L 163.210962 182.596127 
z
" clip-path="url(#pb26978759d)" style="stroke: #000000; stroke-linecap: round"/>
   </g>
   <g id="patch_75">
    <path d="M 161.735531 173.421001 
Q 167.743553 200.677519 173.510909 226.842212 
" clip-path="url(#pb26978759d)" style="fill: none; stroke: #000000; stroke-linecap: round"/>
    <path d="M 174.602993 222.505468 
L 173.510909 226.842212 
L 170.696764 223.366499 
L 174.602993 222.505468 
z
" clip-path="url(#pb26978759d)" style="stroke: #000000; stroke-linecap: round"/>
   </g>
   <g id="patch_76">
    <path d="M 49.918354 231.510944 
Q 72.450128 220.702181 93.973855 210.376991 
" clip-path="url(#pb26978759d)" style="fill: none; stroke: #000000; stroke-linecap: round"/>
    <path d="M 89.502318 210.303822 
L 93.973855 210.376991 
L 91.232398 213.910319 
L 89.502318 210.303822 
z
" clip-path="url(#pb26978759d)" style="stroke: #000000; stroke-linecap: round"/>
   </g>
   <g id="patch_77">
    <path d="M 173.565109 231.663348 
Q 166.871198 252.079799 160.52561 271.433861 
" clip-path="url(#pb26978759d)" style="fill: none; stroke: #000000; stroke-linecap: round"/>
    <path d="M 163.672271 268.256043 
L 160.52561 271.433861 
L 159.871352 267.009841 
L 163.672271 268.256043 
z
" clip-path="url(#pb26978759d)" style="stroke: #000000; stroke-linecap: round"/>
   </g>
   <g id="patch_78">
    <path d="M 172.301164 229.323312 
Q 135.448409 219.440162 99.67553 209.846611 
" clip-path="url(#pb26978759d)" style="fill: none; stroke: #000000; stroke-linecap: round"/>
    <path d="M 103.020958 212.814458 
L 99.67553 209.846611 
L 104.057064 208.950977 
L 103.020958 212.814458 
z
" clip-path="url(#pb26978759d)" style="stroke: #000000; stroke-linecap: round"/>
   </g>
   <g id="patch_79">
    <path d="M 175.023188 231.563235 
Q 185.901061 253.690426 196.285682 274.814271 
" clip-path="url(#pb26978759d)" style="fill: none; stroke: #000000; stroke-linecap: round"/>
    <path d="M 196.315812 270.342237 
L 196.285682 274.814271 
L 192.726133 272.106947 
L 196.315812 270.342237 
z
" clip-path="url(#pb26978759d)" style="stroke: #000000; stroke-linecap: round"/>
   </g>
   <g id="patch_80">
    <path d="M 172.439276 230.694799 
Q 149.363225 242.317525 127.285703 253.43732 
" clip-path="url(#pb26978759d)" style="fill: none; stroke: #000000; stroke-linecap: round"/>
    <path d="M 131.75782 253.424208 
L 127.285703 253.43732 
L 129.958483 249.851759 
L 131.75782 253.424208 
z
" clip-path="url(#pb26978759d)" style="stroke: #000000; stroke-linecap: round"/>
   </g>
   <g id="patch_81">
    <path d="M 173.751737 227.934773 
Q 167.743716 200.678256 161.976359 174.513562 
" clip-path="url(#pb26978759d)" style="fill: none; stroke: #000000; stroke-linecap: round"/>
    <path d="M 160.884276 178.850307 
L 161.976359 174.513562 
L 164.790505 177.989276 
L 160.884276 178.850307 
z
" clip-path="url(#pb26978759d)" style="stroke: #000000; stroke-linecap: round"/>
   </g>
   <g id="patch_82">
    <path d="M 175.796111 230.872621 
Q 191.878027 241.23157 207.020023 250.985082 
" clip-path="url(#pb26978759d)" style="fill: none; stroke: #000000; stroke-linecap: round"/>
    <path d="M 204.740305 247.137631 
L 207.020023 250.985082 
L 202.574231 250.500386 
L 204.740305 247.137631 
z
" clip-path="url(#pb26978759d)" style="stroke: #000000; stroke-linecap: round"/>
   </g>
   <g id="patch_83">
    <path d="M 175.163607 231.484542 
Q 186.072625 249.682438 196.406796 266.921403 
" clip-path="url(#pb26978759d)" style="fill: none; stroke: #000000; stroke-linecap: round"/>
    <path d="M 196.065551 262.462305 
L 196.406796 266.921403 
L 192.634771 264.518941 
L 196.065551 262.462305 
z
" clip-path="url(#pb26978759d)" style="stroke: #000000; stroke-linecap: round"/>
   </g>
   <g id="patch_84">
    <path d="M 172.845967 231.236475 
Q 156.206496 249.0119 140.331084 265.971105 
" clip-path="url(#pb26978759d)" style="fill: none; stroke: #000000; stroke-linecap: round"/>
    <path d="M 144.524761 264.417698 
L 140.331084 265.971105 
L 141.604565 261.684119 
L 144.524761 264.417698 
z
" clip-path="url(#pb26978759d)" style="stroke: #000000; stroke-linecap: round"/>
   </g>
   <g id="patch_85">
    <path d="M 175.928202 229.011898 
Q 220.013337 208.670286 263.083296 188.797094 
" clip-path="url(#pb26978759d)" style="fill: none; stroke: #000000; stroke-linecap: round"/>
    <path d="M 258.613356 188.656959 
L 263.083296 188.797094 
L 260.289224 192.288964 
L 258.613356 188.656959 
z
" clip-path="url(#pb26978759d)" style="stroke: #000000; stroke-linecap: round"/>
   </g>
   <g id="patch_86">
    <path d="M 173.571088 227.981684 
Q 167.654701 209.726482 162.08301 192.534851 
" clip-path="url(#pb26978759d)" style="fill: none; stroke: #000000; stroke-linecap: round"/>
    <path d="M 161.413658 196.956612 
L 162.08301 192.534851 
L 165.218807 195.723389 
L 161.413658 196.956612 
z
" clip-path="url(#pb26978759d)" style="stroke: #000000; stroke-linecap: round"/>
   </g>
   <g id="patch_87">
    <path d="M 172.93489 228.329665 
Q 165.980706 219.903428 159.738175 212.339486 
" clip-path="url(#pb26978759d)" style="fill: none; stroke: #000000; stroke-linecap: round"/>
    <path d="M 160.741741 216.697565 
L 159.738175 212.339486 
L 163.826778 214.15148 
L 160.741741 216.697565 
z
" clip-path="url(#pb26978759d)" style="stroke: #000000; stroke-linecap: round"/>
   </g>
   <g id="patch_88">
    <path d="M 159.026995 211.477765 
Q 165.981179 219.904002 172.223711 227.467944 
" clip-path="url(#pb26978759d)" style="fill: none; stroke: #000000; stroke-linecap: round"/>
    <path d="M 171.220144 223.109865 
L 172.223711 227.467944 
L 168.135108 225.65595 
L 171.220144 223.109865 
z
" clip-path="url(#pb26978759d)" style="stroke: #000000; stroke-linecap: round"/>
   </g>
   <g id="patch_89">
    <path d="M 158.108029 208.072946 
Q 159.467634 199.808954 160.645738 192.648166 
" clip-path="url(#pb26978759d)" style="fill: none; stroke: #000000; stroke-linecap: round"/>
    <path d="M 158.022911 196.270428 
L 160.645738 192.648166 
L 161.969851 196.919785 
L 158.022911 196.270428 
z
" clip-path="url(#pb26978759d)" style="stroke: #000000; stroke-linecap: round"/>
   </g>
   <g id="patch_90">
    <path d="M 207.961438 251.591482 
Q 191.879523 241.232533 176.737526 231.479021 
" clip-path="url(#pb26978759d)" style="fill: none; stroke: #000000; stroke-linecap: round"/>
    <path d="M 179.017245 235.326472 
L 176.737526 231.479021 
L 181.183319 231.963716 
L 179.017245 235.326472 
z
" clip-path="url(#pb26978759d)" style="stroke: #000000; stroke-linecap: round"/>
   </g>
   <g id="patch_91">
    <path d="M 211.034261 251.353771 
Q 220.407767 243.008881 228.946214 235.407413 
" clip-path="url(#pb26978759d)" style="fill: none; stroke: #000000; stroke-linecap: round"/>
    <path d="M 224.628742 236.573363 
L 228.946214 235.407413 
L 227.288491 239.560961 
L 224.628742 236.573363 
z
" clip-path="url(#pb26978759d)" style="stroke: #000000; stroke-linecap: round"/>
   </g>
   <g id="patch_92">
    <path d="M 196.981798 267.880593 
Q 186.07278 249.682697 175.738608 232.443732 
" clip-path="url(#pb26978759d)" style="fill: none; stroke: #000000; stroke-linecap: round"/>
    <path d="M 176.079854 236.90283 
L 175.738608 232.443732 
L 179.510634 234.846194 
L 176.079854 236.90283 
z
" clip-path="url(#pb26978759d)" style="stroke: #000000; stroke-linecap: round"/>
   </g>
   <g id="patch_93">
    <path d="M 199.28625 268.117383 
Q 214.601229 251.460113 229.159496 235.625877 
" clip-path="url(#pb26978759d)" style="fill: none; stroke: #000000; stroke-linecap: round"/>
    <path d="M 224.97991 237.216808 
L 229.159496 235.625877 
L 227.92449 239.924104 
L 224.97991 237.216808 
z
" clip-path="url(#pb26978759d)" style="stroke: #000000; stroke-linecap: round"/>
   </g>
   <g id="patch_94">
    <path d="M 197.765711 271.467223 
Q 195.447629 292.575374 193.251595 312.572172 
" clip-path="url(#pb26978759d)" style="fill: none; stroke: #000000; stroke-linecap: round"/>
    <path d="M 195.676294 308.814402 
L 193.251595 312.572172 
L 191.700199 308.37775 
L 195.676294 308.814402 
z
" clip-path="url(#pb26978759d)" style="stroke: #000000; stroke-linecap: round"/>
   </g>
   <g id="patch_95">
    <path d="M 322.199931 77.366533 
Q 312.898921 95.509916 304.107947 112.65838 
" clip-path="url(#pb26978759d)" style="fill: none; stroke: #000000; stroke-linecap: round"/>
    <path d="M 307.712468 110.011226 
L 304.107947 112.65838 
L 304.152936 108.18647 
L 307.712468 110.011226 
z
" clip-path="url(#pb26978759d)" style="stroke: #000000; stroke-linecap: round"/>
   </g>
   <g id="patch_96">
    <path d="M 399.678979 98.043818 
Q 381.140191 112.363417 363.486221 125.999571 
" clip-path="url(#pb26978759d)" style="fill: none; stroke: #000000; stroke-linecap: round"/>
    <path d="M 367.874426 125.137215 
L 363.486221 125.999571 
L 365.429259 121.971594 
L 367.874426 125.137215 
z
" clip-path="url(#pb26978759d)" style="stroke: #000000; stroke-linecap: round"/>
   </g>
   <g id="patch_97">
    <path d="M 340.956742 86.02698 
Q 322.604596 100.11175 305.139383 113.515822 
" clip-path="url(#pb26978759d)" style="fill: none; stroke: #000000; stroke-linecap: round"/>
    <path d="M 309.530241 112.667081 
L 305.139383 113.515822 
L 307.094905 109.49389 
L 309.530241 112.667081 
z
" clip-path="url(#pb26978759d)" style="stroke: #000000; stroke-linecap: round"/>
   </g>
   <g id="patch_98">
    <path d="M 283.022721 153.30668 
Q 284.144594 154.603427 284.534967 155.054651 
" clip-path="url(#pb26978759d)" style="fill: none; stroke: #000000; stroke-linecap: round"/>
    <path d="M 283.430395 150.72107 
L 284.534967 155.054651 
L 280.40536 153.338161 
L 283.430395 150.72107 
z
" clip-path="url(#pb26978759d)" style="stroke: #000000; stroke-linecap: round"/>
   </g>
   <g id="patch_99">
    <path d="M 280.966278 153.615079 
Q 273.805726 169.682468 267.100285 184.728646 
" clip-path="url(#pb26978759d)" style="fill: none; stroke: #000000; stroke-linecap: round"/>
    <path d="M 270.555338 181.889173 
L 267.100285 184.728646 
L 266.901739 180.260919 
L 270.555338 181.889173 
z
" clip-path="url(#pb26978759d)" style="stroke: #000000; stroke-linecap: round"/>
   </g>
   <g id="patch_100">
    <path d="M 303.173722 199.104235 
Q 299.367647 208.188889 295.993595 216.242352 
" clip-path="url(#pb26978759d)" style="fill: none; stroke: #000000; stroke-linecap: round"/>
    <path d="M 299.383903 213.325879 
L 295.993595 216.242352 
L 295.694602 211.780222 
L 299.383903 213.325879 
z
" clip-path="url(#pb26978759d)" style="stroke: #000000; stroke-linecap: round"/>
   </g>
   <g id="patch_101">
    <path d="M 303.148305 195.540418 
Q 295.227624 177.341305 287.753113 160.167342 
" clip-path="url(#pb26978759d)" style="fill: none; stroke: #000000; stroke-linecap: round"/>
    <path d="M 287.515532 164.633163 
L 287.753113 160.167342 
L 291.183221 163.036899 
L 287.515532 164.633163 
z
" clip-path="url(#pb26978759d)" style="stroke: #000000; stroke-linecap: round"/>
   </g>
   <g id="patch_102">
    <path d="M 322.050742 172.772353 
Q 305.178599 165.452982 289.332135 158.578565 
" clip-path="url(#pb26978759d)" style="fill: none; stroke: #000000; stroke-linecap: round"/>
    <path d="M 292.205756 162.005269 
L 289.332135 158.578565 
L 293.797671 158.33569 
L 292.205756 162.005269 
z
" clip-path="url(#pb26978759d)" style="stroke: #000000; stroke-linecap: round"/>
   </g>
   <g id="patch_103">
    <path d="M 321.933143 173.170992 
Q 291.909384 167.259941 262.982601 161.56486 
" clip-path="url(#pb26978759d)" style="fill: none; stroke: #000000; stroke-linecap: round"/>
    <path d="M 266.520919 164.299874 
L 262.982601 161.56486 
L 267.293603 160.375214 
L 266.520919 164.299874 
z
" clip-path="url(#pb26978759d)" style="stroke: #000000; stroke-linecap: round"/>
   </g>
   <g id="patch_104">
    <path d="M 325.664842 174.170189 
Q 349.869456 182.426607 373.015904 190.322074 
" clip-path="url(#pb26978759d)" style="fill: none; stroke: #000000; stroke-linecap: round"/>
    <path d="M 369.875782 187.137795 
L 373.015904 190.322074 
L 368.584408 190.923604 
L 369.875782 187.137795 
z
" clip-path="url(#pb26978759d)" style="stroke: #000000; stroke-linecap: round"/>
   </g>
   <g id="patch_105">
    <path d="M 418.884168 123.332396 
Q 390.940833 125.524508 364.112107 127.629181 
" clip-path="url(#pb26978759d)" style="fill: none; stroke: #000000; stroke-linecap: round"/>
    <path d="M 368.256272 129.310222 
L 364.112107 127.629181 
L 367.943439 125.322474 
L 368.256272 129.310222 
z
" clip-path="url(#pb26978759d)" style="stroke: #000000; stroke-linecap: round"/>
   </g>
   <g id="patch_106">
    <path d="M 412.923728 109.544457 
Q 387.90859 118.3836 363.947613 126.850253 
" clip-path="url(#pb26978759d)" style="fill: none; stroke: #000000; stroke-linecap: round"/>
    <path d="M 368.385416 127.403333 
L 363.947613 126.850253 
L 367.052759 123.631858 
L 368.385416 127.403333 
z
" clip-path="url(#pb26978759d)" style="stroke: #000000; stroke-linecap: round"/>
   </g>
   <g id="patch_107">
    <path d="M 359.225568 128.471214 
Q 310.523838 144.421782 262.884608 160.024366 
" clip-path="url(#pb26978759d)" style="fill: none; stroke: #000000; stroke-linecap: round"/>
    <path d="M 267.308419 160.680034 
L 262.884608 160.024366 
L 266.063429 156.878718 
L 267.308419 160.680034 
z
" clip-path="url(#pb26978759d)" style="stroke: #000000; stroke-linecap: round"/>
   </g>
   <g id="patch_108">
    <path d="M 359.176008 127.463219 
Q 331.891099 121.622625 305.699458 116.016054 
" clip-path="url(#pb26978759d)" style="fill: none; stroke: #000000; stroke-linecap: round"/>
    <path d="M 309.192214 118.80902 
L 305.699458 116.016054 
L 310.029484 114.897629 
L 309.192214 118.80902 
z
" clip-path="url(#pb26978759d)" style="stroke: #000000; stroke-linecap: round"/>
   </g>
   <g id="patch_109">
    <path d="M 362.598546 126.685224 
Q 381.137333 112.365624 398.791303 98.72947 
" clip-path="url(#pb26978759d)" style="fill: none; stroke: #000000; stroke-linecap: round"/>
    <path d="M 394.403098 99.591826 
L 398.791303 98.72947 
L 396.848265 102.757448 
L 394.403098 99.591826 
z
" clip-path="url(#pb26978759d)" style="stroke: #000000; stroke-linecap: round"/>
   </g>
   <g id="patch_110">
    <path d="M 362.996263 127.716717 
Q 390.939598 125.524605 417.768323 123.419933 
" clip-path="url(#pb26978759d)" style="fill: none; stroke: #000000; stroke-linecap: round"/>
    <path d="M 413.624159 121.738891 
L 417.768323 123.419933 
L 413.936991 125.726639 
L 413.624159 121.738891 
z
" clip-path="url(#pb26978759d)" style="stroke: #000000; stroke-linecap: round"/>
   </g>
   <g id="patch_111">
    <path d="M 362.892195 127.223186 
Q 387.907332 118.384044 411.86831 109.917391 
" clip-path="url(#pb26978759d)" style="fill: none; stroke: #000000; stroke-linecap: round"/>
    <path d="M 407.430506 109.364311 
L 411.86831 109.917391 
L 408.763164 113.135786 
L 407.430506 109.364311 
z
" clip-path="url(#pb26978759d)" style="stroke: #000000; stroke-linecap: round"/>
   </g>
   <g id="patch_112">
    <path d="M 362.972965 128.227107 
Q 388.602075 133.055812 413.13248 137.677513 
" clip-path="url(#pb26978759d)" style="fill: none; stroke: #000000; stroke-linecap: round"/>
    <path d="M 409.571938 134.971494 
L 413.13248 137.677513 
L 408.83134 138.902335 
L 409.571938 134.971494 
z
" clip-path="url(#pb26978759d)" style="stroke: #000000; stroke-linecap: round"/>
   </g>
   <g id="patch_113">
    <path d="M 414.230128 137.884317 
Q 388.601018 133.055613 364.070613 128.433912 
" clip-path="url(#pb26978759d)" style="fill: none; stroke: #000000; stroke-linecap: round"/>
    <path d="M 367.631155 131.13993 
L 364.070613 128.433912 
L 368.371753 127.209089 
L 367.631155 131.13993 
z
" clip-path="url(#pb26978759d)" style="stroke: #000000; stroke-linecap: round"/>
   </g>
   <g id="patch_114">
    <path d="M 139.565 266.789489 
Q 156.204471 249.014064 172.079883 232.054859 
" clip-path="url(#pb26978759d)" style="fill: none; stroke: #000000; stroke-linecap: round"/>
    <path d="M 167.886206 233.608266 
L 172.079883 232.054859 
L 170.806402 236.341845 
L 167.886206 233.608266 
z
" clip-path="url(#pb26978759d)" style="stroke: #000000; stroke-linecap: round"/>
   </g>
   <g id="patch_115">
    <path d="M 109.681762 167.68788 
Q 134.534436 169.537916 158.27216 171.304955 
" clip-path="url(#pb26978759d)" style="fill: none; stroke: #000000; stroke-linecap: round"/>
    <path d="M 154.431667 169.013535 
L 158.27216 171.304955 
L 154.134728 173.002498 
L 154.431667 169.013535 
z
" clip-path="url(#pb26978759d)" style="stroke: #000000; stroke-linecap: round"/>
   </g>
   <g id="patch_116">
    <path d="M 41.908842 215.352647 
Q 68.35625 212.314824 93.692927 209.404582 
" clip-path="url(#pb26978759d)" style="fill: none; stroke: #000000; stroke-linecap: round"/>
    <path d="M 89.490831 207.874096 
L 93.692927 209.404582 
L 89.947281 211.847967 
L 89.490831 207.874096 
z
" clip-path="url(#pb26978759d)" style="stroke: #000000; stroke-linecap: round"/>
   </g>
   <g id="patch_117">
    <path d="M 193.129514 313.683824 
Q 195.447596 292.575673 197.64363 272.578875 
" clip-path="url(#pb26978759d)" style="fill: none; stroke: #000000; stroke-linecap: round"/>
    <path d="M 195.21893 276.336645 
L 197.64363 272.578875 
L 199.195026 276.773297 
L 195.21893 276.336645 
z
" clip-path="url(#pb26978759d)" style="stroke: #000000; stroke-linecap: round"/>
   </g>
   <g id="patch_118">
    <path d="M 267.722001 188.040147 
Q 297.479503 196.39091 326.160555 204.439591 
" clip-path="url(#pb26978759d)" style="fill: none; stroke: #000000; stroke-linecap: round"/>
    <path d="M 322.849706 201.433218 
L 326.160555 204.439591 
L 321.768947 205.284446 
L 322.849706 201.433218 
z
" clip-path="url(#pb26978759d)" style="stroke: #000000; stroke-linecap: round"/>
   </g>
   <g id="patch_119">
    <path d="M 267.780436 187.314453 
Q 285.592708 185.438473 302.293095 183.679595 
" clip-path="url(#pb26978759d)" style="fill: none; stroke: #000000; stroke-linecap: round"/>
    <path d="M 298.105616 182.109557 
L 302.293095 183.679595 
L 298.524577 186.087555 
L 298.105616 182.109557 
z
" clip-path="url(#pb26978759d)" style="stroke: #000000; stroke-linecap: round"/>
   </g>
   <g id="patch_120">
    <path d="M 267.16724 188.943516 
Q 280.333984 203.28626 292.744645 216.805391 
" clip-path="url(#pb26978759d)" style="fill: none; stroke: #000000; stroke-linecap: round"/>
    <path d="M 291.512924 212.50622 
L 292.744645 216.805391 
L 288.566276 215.211265 
L 291.512924 212.50622 
z
" clip-path="url(#pb26978759d)" style="stroke: #000000; stroke-linecap: round"/>
   </g>
   <g id="patch_121">
    <path d="M 266.950487 185.9232 
Q 276.193221 172.44385 284.803688 159.886583 
" clip-path="url(#pb26978759d)" style="fill: none; stroke: #000000; stroke-linecap: round"/>
    <path d="M 280.892144 162.05449 
L 284.803688 159.886583 
L 284.191087 164.316562 
L 280.892144 162.05449 
z
" clip-path="url(#pb26978759d)" style="stroke: #000000; stroke-linecap: round"/>
   </g>
   <g id="patch_122">
    <path d="M 265.439623 185.628009 
Q 262.921137 174.247706 260.644229 163.959024 
" clip-path="url(#pb26978759d)" style="fill: none; stroke: #000000; stroke-linecap: round"/>
    <path d="M 259.555773 168.296681 
L 260.644229 163.959024 
L 263.46128 167.432383 
L 259.555773 168.296681 
z
" clip-path="url(#pb26978759d)" style="stroke: #000000; stroke-linecap: round"/>
   </g>
   <g id="patch_123">
    <path d="M 266.737225 185.795359 
Q 284.285469 151.447948 301.325046 118.096157 
" clip-path="url(#pb26978759d)" style="fill: none; stroke: #000000; stroke-linecap: round"/>
    <path d="M 297.724167 120.748264 
L 301.325046 118.096157 
L 301.286204 122.568124 
L 297.724167 120.748264 
z
" clip-path="url(#pb26978759d)" style="stroke: #000000; stroke-linecap: round"/>
   </g>
   <g id="patch_124">
    <path d="M 264.097621 188.329067 
Q 220.012486 208.670679 176.942527 228.543872 
" clip-path="url(#pb26978759d)" style="fill: none; stroke: #000000; stroke-linecap: round"/>
    <path d="M 181.412467 228.684007 
L 176.942527 228.543872 
L 179.736599 225.052001 
L 181.412467 228.684007 
z
" clip-path="url(#pb26978759d)" style="stroke: #000000; stroke-linecap: round"/>
   </g>
   <g id="patch_125">
    <path d="M 266.647531 185.744569 
Q 273.808083 169.677179 280.513524 154.631002 
" clip-path="url(#pb26978759d)" style="fill: none; stroke: #000000; stroke-linecap: round"/>
    <path d="M 277.058471 157.470475 
L 280.513524 154.631002 
L 280.71207 159.098728 
L 277.058471 157.470475 
z
" clip-path="url(#pb26978759d)" style="stroke: #000000; stroke-linecap: round"/>
   </g>
   <g id="patch_126">
    <path d="M 264.688826 189.064807 
Q 248.541621 210.448147 233.068163 230.939262 
" clip-path="url(#pb26978759d)" style="fill: none; stroke: #000000; stroke-linecap: round"/>
    <path d="M 237.074692 228.952374 
L 233.068163 230.939262 
L 233.882569 226.541906 
L 237.074692 228.952374 
z
" clip-path="url(#pb26978759d)" style="stroke: #000000; stroke-linecap: round"/>
   </g>
   <g id="patch_127">
    <path d="M 161.604002 187.751918 
Q 166.005883 169.8419 170.140918 153.017605 
" clip-path="url(#pb26978759d)" style="fill: none; stroke: #000000; stroke-linecap: round"/>
    <path d="M 167.244021 156.424654 
L 170.140918 153.017605 
L 171.128419 157.379352 
L 167.244021 156.424654 
z
" clip-path="url(#pb26978759d)" style="stroke: #000000; stroke-linecap: round"/>
   </g>
   <g id="patch_128">
    <path d="M 161.161023 187.691595 
Q 161.230586 180.580246 161.289212 174.586877 
" clip-path="url(#pb26978759d)" style="fill: none; stroke: #000000; stroke-linecap: round"/>
    <path d="M 159.250182 178.567123 
L 161.289212 174.586877 
L 163.249991 178.606249 
L 159.250182 178.567123 
z
" clip-path="url(#pb26978759d)" style="stroke: #000000; stroke-linecap: round"/>
   </g>
   <g id="patch_129">
    <path d="M 161.739131 191.473802 
Q 167.655518 209.729004 173.227209 226.920635 
" clip-path="url(#pb26978759d)" style="fill: none; stroke: #000000; stroke-linecap: round"/>
    <path d="M 173.896561 222.498874 
L 173.227209 226.920635 
L 170.091411 223.732098 
L 173.896561 222.498874 
z
" clip-path="url(#pb26978759d)" style="stroke: #000000; stroke-linecap: round"/>
   </g>
   <g id="patch_130">
    <path d="M 160.827732 191.54196 
Q 159.468128 199.805951 158.290024 206.966739 
" clip-path="url(#pb26978759d)" style="fill: none; stroke: #000000; stroke-linecap: round"/>
    <path d="M 160.912851 203.344478 
L 158.290024 206.966739 
L 156.96591 202.695121 
L 160.912851 203.344478 
z
" clip-path="url(#pb26978759d)" style="stroke: #000000; stroke-linecap: round"/>
   </g>
   <g id="patch_131">
    <path d="M 301.536548 140.525851 
Q 281.628784 150.32268 262.724166 159.62585 
" clip-path="url(#pb26978759d)" style="fill: none; stroke: #000000; stroke-linecap: round"/>
    <path d="M 267.196212 159.654164 
L 262.724166 159.62585 
L 265.430044 156.065201 
L 267.196212 159.654164 
z
" clip-path="url(#pb26978759d)" style="stroke: #000000; stroke-linecap: round"/>
   </g>
   <g id="patch_132">
    <path d="M 45.041594 198.209682 
Q 69.936588 203.433917 93.737381 208.428533 
" clip-path="url(#pb26978759d)" style="fill: none; stroke: #000000; stroke-linecap: round"/>
    <path d="M 90.233404 205.649658 
L 93.737381 208.428533 
L 89.411895 209.564389 
L 90.233404 205.649658 
z
" clip-path="url(#pb26978759d)" style="stroke: #000000; stroke-linecap: round"/>
   </g>
   <g id="patch_133">
    <path d="M 229.903458 231.958603 
Q 219.802502 221.153555 210.465056 211.165238 
" clip-path="url(#pb26978759d)" style="fill: none; stroke: #000000; stroke-linecap: round"/>
    <path d="M 211.735662 215.453077 
L 210.465056 211.165238 
L 214.65769 212.721457 
L 211.735662 215.453077 
z
" clip-path="url(#pb26978759d)" style="stroke: #000000; stroke-linecap: round"/>
   </g>
   <g id="patch_134">
    <path d="M 229.783398 234.662099 
Q 220.409892 243.006989 211.871445 250.608457 
" clip-path="url(#pb26978759d)" style="fill: none; stroke: #000000; stroke-linecap: round"/>
    <path d="M 216.188917 249.442507 
L 211.871445 250.608457 
L 213.529168 246.454909 
L 216.188917 249.442507 
z
" clip-path="url(#pb26978759d)" style="stroke: #000000; stroke-linecap: round"/>
   </g>
   <g id="patch_135">
    <path d="M 229.919264 234.799519 
Q 214.604285 251.456789 200.046018 267.291025 
" clip-path="url(#pb26978759d)" style="fill: none; stroke: #000000; stroke-linecap: round"/>
    <path d="M 204.225604 265.700094 
L 200.046018 267.291025 
L 201.281024 262.992798 
L 204.225604 265.700094 
z
" clip-path="url(#pb26978759d)" style="stroke: #000000; stroke-linecap: round"/>
   </g>
   <g id="patch_136">
    <path d="M 232.397106 231.827926 
Q 248.544311 210.444585 264.017769 189.95347 
" clip-path="url(#pb26978759d)" style="fill: none; stroke: #000000; stroke-linecap: round"/>
    <path d="M 260.01124 191.940359 
L 264.017769 189.95347 
L 263.203363 194.350826 
L 260.01124 191.940359 
z
" clip-path="url(#pb26978759d)" style="stroke: #000000; stroke-linecap: round"/>
   </g>
   <g id="patch_137">
    <path d="M 374.070813 190.681913 
Q 349.866199 182.425496 326.719751 174.530028 
" clip-path="url(#pb26978759d)" style="fill: none; stroke: #000000; stroke-linecap: round"/>
    <path d="M 329.859873 177.714308 
L 326.719751 174.530028 
L 331.151247 173.928498 
L 329.859873 177.714308 
z
" clip-path="url(#pb26978759d)" style="stroke: #000000; stroke-linecap: round"/>
   </g>
   <g id="PathCollection_1">
    <defs>
     <path id="m94b94ff1b4" d="M 0 1.936492 
C 0.513564 1.936492 1.006162 1.732451 1.369306 1.369306 
C 1.732451 1.006162 1.936492 0.513564 1.936492 0 
C 1.936492 -0.513564 1.732451 -1.006162 1.369306 -1.369306 
C 1.006162 -1.732451 0.513564 -1.936492 0 -1.936492 
C -0.513564 -1.936492 -1.006162 -1.732451 -1.369306 -1.369306 
C -1.732451 -1.006162 -1.936492 -0.513564 -1.936492 0 
C -1.936492 0.513564 -1.732451 1.006162 -1.369306 1.369306 
C -1.006162 1.732451 -0.513564 1.936492 0 1.936492 
z
" style="stroke: #1f78b4"/>
    </defs>
    <g clip-path="url(#pb26978759d)">
     <use xlink:href="#m94b94ff1b4" x="125.97464" y="139.602559" style="fill: #1f78b4; stroke: #1f78b4"/>
     <use xlink:href="#m94b94ff1b4" x="364.013357" y="240.920424" style="fill: #1f78b4; stroke: #1f78b4"/>
     <use xlink:href="#m94b94ff1b4" x="110.380441" y="150.937073" style="fill: #1f78b4; stroke: #1f78b4"/>
     <use xlink:href="#m94b94ff1b4" x="159.573523" y="274.337728" style="fill: #1f78b4; stroke: #1f78b4"/>
     <use xlink:href="#m94b94ff1b4" x="329.09884" y="205.264154" style="fill: #1f78b4; stroke: #1f78b4"/>
     <use xlink:href="#m94b94ff1b4" x="305.334967" y="183.359227" style="fill: #1f78b4; stroke: #1f78b4"/>
     <use xlink:href="#m94b94ff1b4" x="294.813521" y="219.059051" style="fill: #1f78b4; stroke: #1f78b4"/>
     <use xlink:href="#m94b94ff1b4" x="380.370182" y="226.554323" style="fill: #1f78b4; stroke: #1f78b4"/>
     <use xlink:href="#m94b94ff1b4" x="286.53318" y="157.364339" style="fill: #1f78b4; stroke: #1f78b4"/>
     <use xlink:href="#m94b94ff1b4" x="252.068103" y="142.8688" style="fill: #1f78b4; stroke: #1f78b4"/>
     <use xlink:href="#m94b94ff1b4" x="122.348451" y="29.990083" style="fill: #1f78b4; stroke: #1f78b4"/>
     <use xlink:href="#m94b94ff1b4" x="171.050587" y="240.270683" style="fill: #1f78b4; stroke: #1f78b4"/>
     <use xlink:href="#m94b94ff1b4" x="259.983735" y="160.974446" style="fill: #1f78b4; stroke: #1f78b4"/>
     <use xlink:href="#m94b94ff1b4" x="96.727532" y="209.056019" style="fill: #1f78b4; stroke: #1f78b4"/>
     <use xlink:href="#m94b94ff1b4" x="207.948967" y="86.416933" style="fill: #1f78b4; stroke: #1f78b4"/>
     <use xlink:href="#m94b94ff1b4" x="170.870406" y="150.049524" style="fill: #1f78b4; stroke: #1f78b4"/>
     <use xlink:href="#m94b94ff1b4" x="302.714254" y="115.377042" style="fill: #1f78b4; stroke: #1f78b4"/>
     <use xlink:href="#m94b94ff1b4" x="208.188666" y="49.792583" style="fill: #1f78b4; stroke: #1f78b4"/>
     <use xlink:href="#m94b94ff1b4" x="172.605179" y="50.396106" style="fill: #1f78b4; stroke: #1f78b4"/>
     <use xlink:href="#m94b94ff1b4" x="241.801534" y="82.395236" style="fill: #1f78b4; stroke: #1f78b4"/>
     <use xlink:href="#m94b94ff1b4" x="225.985943" y="40.132139" style="fill: #1f78b4; stroke: #1f78b4"/>
     <use xlink:href="#m94b94ff1b4" x="250.29845" y="40.300318" style="fill: #1f78b4; stroke: #1f78b4"/>
     <use xlink:href="#m94b94ff1b4" x="197.633156" y="277.55523" style="fill: #1f78b4; stroke: #1f78b4"/>
     <use xlink:href="#m94b94ff1b4" x="124.560086" y="254.810133" style="fill: #1f78b4; stroke: #1f78b4"/>
     <use xlink:href="#m94b94ff1b4" x="208.379974" y="208.934814" style="fill: #1f78b4; stroke: #1f78b4"/>
     <use xlink:href="#m94b94ff1b4" x="155.275156" y="222.315278" style="fill: #1f78b4; stroke: #1f78b4"/>
     <use xlink:href="#m94b94ff1b4" x="240.137822" y="94.810961" style="fill: #1f78b4; stroke: #1f78b4"/>
     <use xlink:href="#m94b94ff1b4" x="206.900519" y="130.260761" style="fill: #1f78b4; stroke: #1f78b4"/>
     <use xlink:href="#m94b94ff1b4" x="161.319097" y="171.531769" style="fill: #1f78b4; stroke: #1f78b4"/>
     <use xlink:href="#m94b94ff1b4" x="48.172826" y="232.348295" style="fill: #1f78b4; stroke: #1f78b4"/>
     <use xlink:href="#m94b94ff1b4" x="174.168171" y="229.824005" style="fill: #1f78b4; stroke: #1f78b4"/>
     <use xlink:href="#m94b94ff1b4" x="157.793714" y="209.983425" style="fill: #1f78b4; stroke: #1f78b4"/>
     <use xlink:href="#m94b94ff1b4" x="209.589378" y="252.640098" style="fill: #1f78b4; stroke: #1f78b4"/>
     <use xlink:href="#m94b94ff1b4" x="197.977233" y="269.54113" style="fill: #1f78b4; stroke: #1f78b4"/>
     <use xlink:href="#m94b94ff1b4" x="323.083891" y="75.6422" style="fill: #1f78b4; stroke: #1f78b4"/>
     <use xlink:href="#m94b94ff1b4" x="401.210317" y="96.860993" style="fill: #1f78b4; stroke: #1f78b4"/>
     <use xlink:href="#m94b94ff1b4" x="342.493629" y="84.847462" style="fill: #1f78b4; stroke: #1f78b4"/>
     <use xlink:href="#m94b94ff1b4" x="281.756157" y="151.842687" style="fill: #1f78b4; stroke: #1f78b4"/>
     <use xlink:href="#m94b94ff1b4" x="303.922015" y="197.318147" style="fill: #1f78b4; stroke: #1f78b4"/>
     <use xlink:href="#m94b94ff1b4" x="323.830945" y="173.54463" style="fill: #1f78b4; stroke: #1f78b4"/>
     <use xlink:href="#m94b94ff1b4" x="420.813223" y="123.181065" style="fill: #1f78b4; stroke: #1f78b4"/>
     <use xlink:href="#m94b94ff1b4" x="414.748715" y="108.899595" style="fill: #1f78b4; stroke: #1f78b4"/>
     <use xlink:href="#m94b94ff1b4" x="361.067207" y="127.868049" style="fill: #1f78b4; stroke: #1f78b4"/>
     <use xlink:href="#m94b94ff1b4" x="416.135886" y="138.243376" style="fill: #1f78b4; stroke: #1f78b4"/>
     <use xlink:href="#m94b94ff1b4" x="138.242796" y="268.201958" style="fill: #1f78b4; stroke: #1f78b4"/>
     <use xlink:href="#m94b94ff1b4" x="107.749408" y="167.544036" style="fill: #1f78b4; stroke: #1f78b4"/>
     <use xlink:href="#m94b94ff1b4" x="39.986777" y="215.573421" style="fill: #1f78b4; stroke: #1f78b4"/>
     <use xlink:href="#m94b94ff1b4" x="192.917991" y="315.609917" style="fill: #1f78b4; stroke: #1f78b4"/>
     <use xlink:href="#m94b94ff1b4" x="265.857652" y="187.51696" style="fill: #1f78b4; stroke: #1f78b4"/>
     <use xlink:href="#m94b94ff1b4" x="161.142047" y="189.631481" style="fill: #1f78b4; stroke: #1f78b4"/>
     <use xlink:href="#m94b94ff1b4" x="303.272428" y="139.671605" style="fill: #1f78b4; stroke: #1f78b4"/>
     <use xlink:href="#m94b94ff1b4" x="43.148132" y="197.812338" style="fill: #1f78b4; stroke: #1f78b4"/>
     <use xlink:href="#m94b94ff1b4" x="231.228281" y="233.375773" style="fill: #1f78b4; stroke: #1f78b4"/>
     <use xlink:href="#m94b94ff1b4" x="375.90471" y="191.307473" style="fill: #1f78b4; stroke: #1f78b4"/>
    </g>
   </g>
   <g id="text_1">
    <g clip-path="url(#pb26978759d)">
     <!-- 0 -->
     <g transform="translate(122.79339 142.361934) scale(0.1 -0.1)">
      <defs>
       <path id="DejaVuSans-30" d="M 2034 4250 
Q 1547 4250 1301 3770 
Q 1056 3291 1056 2328 
Q 1056 1369 1301 889 
Q 1547 409 2034 409 
Q 2525 409 2770 889 
Q 3016 1369 3016 2328 
Q 3016 3291 2770 3770 
Q 2525 4250 2034 4250 
z
M 2034 4750 
Q 2819 4750 3233 4129 
Q 3647 3509 3647 2328 
Q 3647 1150 3233 529 
Q 2819 -91 2034 -91 
Q 1250 -91 836 529 
Q 422 1150 422 2328 
Q 422 3509 836 4129 
Q 1250 4750 2034 4750 
z
" transform="scale(0.015625)"/>
      </defs>
      <use xlink:href="#DejaVuSans-30"/>
     </g>
    </g>
   </g>
   <g id="text_2">
    <g clip-path="url(#pb26978759d)">
     <!-- 1 -->
     <g transform="translate(360.832107 243.679799) scale(0.1 -0.1)">
      <defs>
       <path id="DejaVuSans-31" d="M 794 531 
L 1825 531 
L 1825 4091 
L 703 3866 
L 703 4441 
L 1819 4666 
L 2450 4666 
L 2450 531 
L 3481 531 
L 3481 0 
L 794 0 
L 794 531 
z
" transform="scale(0.015625)"/>
      </defs>
      <use xlink:href="#DejaVuSans-31"/>
     </g>
    </g>
   </g>
   <g id="text_3">
    <g clip-path="url(#pb26978759d)">
     <!-- 2 -->
     <g transform="translate(107.199191 153.696448) scale(0.1 -0.1)">
      <defs>
       <path id="DejaVuSans-32" d="M 1228 531 
L 3431 531 
L 3431 0 
L 469 0 
L 469 531 
Q 828 903 1448 1529 
Q 2069 2156 2228 2338 
Q 2531 2678 2651 2914 
Q 2772 3150 2772 3378 
Q 2772 3750 2511 3984 
Q 2250 4219 1831 4219 
Q 1534 4219 1204 4116 
Q 875 4013 500 3803 
L 500 4441 
Q 881 4594 1212 4672 
Q 1544 4750 1819 4750 
Q 2544 4750 2975 4387 
Q 3406 4025 3406 3419 
Q 3406 3131 3298 2873 
Q 3191 2616 2906 2266 
Q 2828 2175 2409 1742 
Q 1991 1309 1228 531 
z
" transform="scale(0.015625)"/>
      </defs>
      <use xlink:href="#DejaVuSans-32"/>
     </g>
    </g>
   </g>
   <g id="text_4">
    <g clip-path="url(#pb26978759d)">
     <!-- 3 -->
     <g transform="translate(156.392273 277.097103) scale(0.1 -0.1)">
      <defs>
       <path id="DejaVuSans-33" d="M 2597 2516 
Q 3050 2419 3304 2112 
Q 3559 1806 3559 1356 
Q 3559 666 3084 287 
Q 2609 -91 1734 -91 
Q 1441 -91 1130 -33 
Q 819 25 488 141 
L 488 750 
Q 750 597 1062 519 
Q 1375 441 1716 441 
Q 2309 441 2620 675 
Q 2931 909 2931 1356 
Q 2931 1769 2642 2001 
Q 2353 2234 1838 2234 
L 1294 2234 
L 1294 2753 
L 1863 2753 
Q 2328 2753 2575 2939 
Q 2822 3125 2822 3475 
Q 2822 3834 2567 4026 
Q 2313 4219 1838 4219 
Q 1578 4219 1281 4162 
Q 984 4106 628 3988 
L 628 4550 
Q 988 4650 1302 4700 
Q 1616 4750 1894 4750 
Q 2613 4750 3031 4423 
Q 3450 4097 3450 3541 
Q 3450 3153 3228 2886 
Q 3006 2619 2597 2516 
z
" transform="scale(0.015625)"/>
      </defs>
      <use xlink:href="#DejaVuSans-33"/>
     </g>
    </g>
   </g>
   <g id="text_5">
    <g clip-path="url(#pb26978759d)">
     <!-- 4 -->
     <g transform="translate(325.91759 208.023529) scale(0.1 -0.1)">
      <defs>
       <path id="DejaVuSans-34" d="M 2419 4116 
L 825 1625 
L 2419 1625 
L 2419 4116 
z
M 2253 4666 
L 3047 4666 
L 3047 1625 
L 3713 1625 
L 3713 1100 
L 3047 1100 
L 3047 0 
L 2419 0 
L 2419 1100 
L 313 1100 
L 313 1709 
L 2253 4666 
z
" transform="scale(0.015625)"/>
      </defs>
      <use xlink:href="#DejaVuSans-34"/>
     </g>
    </g>
   </g>
   <g id="text_6">
    <g clip-path="url(#pb26978759d)">
     <!-- 5 -->
     <g transform="translate(302.153717 186.118602) scale(0.1 -0.1)">
      <defs>
       <path id="DejaVuSans-35" d="M 691 4666 
L 3169 4666 
L 3169 4134 
L 1269 4134 
L 1269 2991 
Q 1406 3038 1543 3061 
Q 1681 3084 1819 3084 
Q 2600 3084 3056 2656 
Q 3513 2228 3513 1497 
Q 3513 744 3044 326 
Q 2575 -91 1722 -91 
Q 1428 -91 1123 -41 
Q 819 9 494 109 
L 494 744 
Q 775 591 1075 516 
Q 1375 441 1709 441 
Q 2250 441 2565 725 
Q 2881 1009 2881 1497 
Q 2881 1984 2565 2268 
Q 2250 2553 1709 2553 
Q 1456 2553 1204 2497 
Q 953 2441 691 2322 
L 691 4666 
z
" transform="scale(0.015625)"/>
      </defs>
      <use xlink:href="#DejaVuSans-35"/>
     </g>
    </g>
   </g>
   <g id="text_7">
    <g clip-path="url(#pb26978759d)">
     <!-- 6 -->
     <g transform="translate(291.632271 221.818426) scale(0.1 -0.1)">
      <defs>
       <path id="DejaVuSans-36" d="M 2113 2584 
Q 1688 2584 1439 2293 
Q 1191 2003 1191 1497 
Q 1191 994 1439 701 
Q 1688 409 2113 409 
Q 2538 409 2786 701 
Q 3034 994 3034 1497 
Q 3034 2003 2786 2293 
Q 2538 2584 2113 2584 
z
M 3366 4563 
L 3366 3988 
Q 3128 4100 2886 4159 
Q 2644 4219 2406 4219 
Q 1781 4219 1451 3797 
Q 1122 3375 1075 2522 
Q 1259 2794 1537 2939 
Q 1816 3084 2150 3084 
Q 2853 3084 3261 2657 
Q 3669 2231 3669 1497 
Q 3669 778 3244 343 
Q 2819 -91 2113 -91 
Q 1303 -91 875 529 
Q 447 1150 447 2328 
Q 447 3434 972 4092 
Q 1497 4750 2381 4750 
Q 2619 4750 2861 4703 
Q 3103 4656 3366 4563 
z
" transform="scale(0.015625)"/>
      </defs>
      <use xlink:href="#DejaVuSans-36"/>
     </g>
    </g>
   </g>
   <g id="text_8">
    <g clip-path="url(#pb26978759d)">
     <!-- 7 -->
     <g transform="translate(377.188932 229.313698) scale(0.1 -0.1)">
      <defs>
       <path id="DejaVuSans-37" d="M 525 4666 
L 3525 4666 
L 3525 4397 
L 1831 0 
L 1172 0 
L 2766 4134 
L 525 4134 
L 525 4666 
z
" transform="scale(0.015625)"/>
      </defs>
      <use xlink:href="#DejaVuSans-37"/>
     </g>
    </g>
   </g>
   <g id="text_9">
    <g clip-path="url(#pb26978759d)">
     <!-- 8 -->
     <g transform="translate(283.35193 160.123714) scale(0.1 -0.1)">
      <defs>
       <path id="DejaVuSans-38" d="M 2034 2216 
Q 1584 2216 1326 1975 
Q 1069 1734 1069 1313 
Q 1069 891 1326 650 
Q 1584 409 2034 409 
Q 2484 409 2743 651 
Q 3003 894 3003 1313 
Q 3003 1734 2745 1975 
Q 2488 2216 2034 2216 
z
M 1403 2484 
Q 997 2584 770 2862 
Q 544 3141 544 3541 
Q 544 4100 942 4425 
Q 1341 4750 2034 4750 
Q 2731 4750 3128 4425 
Q 3525 4100 3525 3541 
Q 3525 3141 3298 2862 
Q 3072 2584 2669 2484 
Q 3125 2378 3379 2068 
Q 3634 1759 3634 1313 
Q 3634 634 3220 271 
Q 2806 -91 2034 -91 
Q 1263 -91 848 271 
Q 434 634 434 1313 
Q 434 1759 690 2068 
Q 947 2378 1403 2484 
z
M 1172 3481 
Q 1172 3119 1398 2916 
Q 1625 2713 2034 2713 
Q 2441 2713 2670 2916 
Q 2900 3119 2900 3481 
Q 2900 3844 2670 4047 
Q 2441 4250 2034 4250 
Q 1625 4250 1398 4047 
Q 1172 3844 1172 3481 
z
" transform="scale(0.015625)"/>
      </defs>
      <use xlink:href="#DejaVuSans-38"/>
     </g>
    </g>
   </g>
   <g id="text_10">
    <g clip-path="url(#pb26978759d)">
     <!-- 9 -->
     <g transform="translate(248.886853 145.628175) scale(0.1 -0.1)">
      <defs>
       <path id="DejaVuSans-39" d="M 703 97 
L 703 672 
Q 941 559 1184 500 
Q 1428 441 1663 441 
Q 2288 441 2617 861 
Q 2947 1281 2994 2138 
Q 2813 1869 2534 1725 
Q 2256 1581 1919 1581 
Q 1219 1581 811 2004 
Q 403 2428 403 3163 
Q 403 3881 828 4315 
Q 1253 4750 1959 4750 
Q 2769 4750 3195 4129 
Q 3622 3509 3622 2328 
Q 3622 1225 3098 567 
Q 2575 -91 1691 -91 
Q 1453 -91 1209 -44 
Q 966 3 703 97 
z
M 1959 2075 
Q 2384 2075 2632 2365 
Q 2881 2656 2881 3163 
Q 2881 3666 2632 3958 
Q 2384 4250 1959 4250 
Q 1534 4250 1286 3958 
Q 1038 3666 1038 3163 
Q 1038 2656 1286 2365 
Q 1534 2075 1959 2075 
z
" transform="scale(0.015625)"/>
      </defs>
      <use xlink:href="#DejaVuSans-39"/>
     </g>
    </g>
   </g>
   <g id="text_11">
    <g clip-path="url(#pb26978759d)">
     <!-- 10 -->
     <g transform="translate(115.985951 32.749458) scale(0.1 -0.1)">
      <use xlink:href="#DejaVuSans-31"/>
      <use xlink:href="#DejaVuSans-30" x="63.623047"/>
     </g>
    </g>
   </g>
   <g id="text_12">
    <g clip-path="url(#pb26978759d)">
     <!-- 11 -->
     <g transform="translate(164.688087 243.030058) scale(0.1 -0.1)">
      <use xlink:href="#DejaVuSans-31"/>
      <use xlink:href="#DejaVuSans-31" x="63.623047"/>
     </g>
    </g>
   </g>
   <g id="text_13">
    <g clip-path="url(#pb26978759d)">
     <!-- 12 -->
     <g transform="translate(253.621235 163.733821) scale(0.1 -0.1)">
      <use xlink:href="#DejaVuSans-31"/>
      <use xlink:href="#DejaVuSans-32" x="63.623047"/>
     </g>
    </g>
   </g>
   <g id="text_14">
    <g clip-path="url(#pb26978759d)">
     <!-- 13 -->
     <g transform="translate(90.365032 211.815394) scale(0.1 -0.1)">
      <use xlink:href="#DejaVuSans-31"/>
      <use xlink:href="#DejaVuSans-33" x="63.623047"/>
     </g>
    </g>
   </g>
   <g id="text_15">
    <g clip-path="url(#pb26978759d)">
     <!-- 14 -->
     <g transform="translate(201.586467 89.176308) scale(0.1 -0.1)">
      <use xlink:href="#DejaVuSans-31"/>
      <use xlink:href="#DejaVuSans-34" x="63.623047"/>
     </g>
    </g>
   </g>
   <g id="text_16">
    <g clip-path="url(#pb26978759d)">
     <!-- 15 -->
     <g transform="translate(164.507906 152.808899) scale(0.1 -0.1)">
      <use xlink:href="#DejaVuSans-31"/>
      <use xlink:href="#DejaVuSans-35" x="63.623047"/>
     </g>
    </g>
   </g>
   <g id="text_17">
    <g clip-path="url(#pb26978759d)">
     <!-- 16 -->
     <g transform="translate(296.351754 118.136417) scale(0.1 -0.1)">
      <use xlink:href="#DejaVuSans-31"/>
      <use xlink:href="#DejaVuSans-36" x="63.623047"/>
     </g>
    </g>
   </g>
   <g id="text_18">
    <g clip-path="url(#pb26978759d)">
     <!-- 17 -->
     <g transform="translate(201.826166 52.551958) scale(0.1 -0.1)">
      <use xlink:href="#DejaVuSans-31"/>
      <use xlink:href="#DejaVuSans-37" x="63.623047"/>
     </g>
    </g>
   </g>
   <g id="text_19">
    <g clip-path="url(#pb26978759d)">
     <!-- 18 -->
     <g transform="translate(166.242679 53.155481) scale(0.1 -0.1)">
      <use xlink:href="#DejaVuSans-31"/>
      <use xlink:href="#DejaVuSans-38" x="63.623047"/>
     </g>
    </g>
   </g>
   <g id="text_20">
    <g clip-path="url(#pb26978759d)">
     <!-- 19 -->
     <g transform="translate(235.439034 85.154611) scale(0.1 -0.1)">
      <use xlink:href="#DejaVuSans-31"/>
      <use xlink:href="#DejaVuSans-39" x="63.623047"/>
     </g>
    </g>
   </g>
   <g id="text_21">
    <g clip-path="url(#pb26978759d)">
     <!-- 20 -->
     <g transform="translate(219.623443 42.891514) scale(0.1 -0.1)">
      <use xlink:href="#DejaVuSans-32"/>
      <use xlink:href="#DejaVuSans-30" x="63.623047"/>
     </g>
    </g>
   </g>
   <g id="text_22">
    <g clip-path="url(#pb26978759d)">
     <!-- 21 -->
     <g transform="translate(243.93595 43.059693) scale(0.1 -0.1)">
      <use xlink:href="#DejaVuSans-32"/>
      <use xlink:href="#DejaVuSans-31" x="63.623047"/>
     </g>
    </g>
   </g>
   <g id="text_23">
    <g clip-path="url(#pb26978759d)">
     <!-- 22 -->
     <g transform="translate(191.270656 280.314605) scale(0.1 -0.1)">
      <use xlink:href="#DejaVuSans-32"/>
      <use xlink:href="#DejaVuSans-32" x="63.623047"/>
     </g>
    </g>
   </g>
   <g id="text_24">
    <g clip-path="url(#pb26978759d)">
     <!-- 23 -->
     <g transform="translate(118.197586 257.569508) scale(0.1 -0.1)">
      <use xlink:href="#DejaVuSans-32"/>
      <use xlink:href="#DejaVuSans-33" x="63.623047"/>
     </g>
    </g>
   </g>
   <g id="text_25">
    <g clip-path="url(#pb26978759d)">
     <!-- 24 -->
     <g transform="translate(202.017474 211.694189) scale(0.1 -0.1)">
      <use xlink:href="#DejaVuSans-32"/>
      <use xlink:href="#DejaVuSans-34" x="63.623047"/>
     </g>
    </g>
   </g>
   <g id="text_26">
    <g clip-path="url(#pb26978759d)">
     <!-- 25 -->
     <g transform="translate(148.912656 225.074653) scale(0.1 -0.1)">
      <use xlink:href="#DejaVuSans-32"/>
      <use xlink:href="#DejaVuSans-35" x="63.623047"/>
     </g>
    </g>
   </g>
   <g id="text_27">
    <g clip-path="url(#pb26978759d)">
     <!-- 26 -->
     <g transform="translate(233.775322 97.570336) scale(0.1 -0.1)">
      <use xlink:href="#DejaVuSans-32"/>
      <use xlink:href="#DejaVuSans-36" x="63.623047"/>
     </g>
    </g>
   </g>
   <g id="text_28">
    <g clip-path="url(#pb26978759d)">
     <!-- 27 -->
     <g transform="translate(200.538019 133.020136) scale(0.1 -0.1)">
      <use xlink:href="#DejaVuSans-32"/>
      <use xlink:href="#DejaVuSans-37" x="63.623047"/>
     </g>
    </g>
   </g>
   <g id="text_29">
    <g clip-path="url(#pb26978759d)">
     <!-- 28 -->
     <g transform="translate(154.956597 174.291144) scale(0.1 -0.1)">
      <use xlink:href="#DejaVuSans-32"/>
      <use xlink:href="#DejaVuSans-38" x="63.623047"/>
     </g>
    </g>
   </g>
   <g id="text_30">
    <g clip-path="url(#pb26978759d)">
     <!-- 29 -->
     <g transform="translate(41.810326 235.10767) scale(0.1 -0.1)">
      <use xlink:href="#DejaVuSans-32"/>
      <use xlink:href="#DejaVuSans-39" x="63.623047"/>
     </g>
    </g>
   </g>
   <g id="text_31">
    <g clip-path="url(#pb26978759d)">
     <!-- 30 -->
     <g transform="translate(167.805671 232.58338) scale(0.1 -0.1)">
      <use xlink:href="#DejaVuSans-33"/>
      <use xlink:href="#DejaVuSans-30" x="63.623047"/>
     </g>
    </g>
   </g>
   <g id="text_32">
    <g clip-path="url(#pb26978759d)">
     <!-- 31 -->
     <g transform="translate(151.431214 212.7428) scale(0.1 -0.1)">
      <use xlink:href="#DejaVuSans-33"/>
      <use xlink:href="#DejaVuSans-31" x="63.623047"/>
     </g>
    </g>
   </g>
   <g id="text_33">
    <g clip-path="url(#pb26978759d)">
     <!-- 32 -->
     <g transform="translate(203.226878 255.399473) scale(0.1 -0.1)">
      <use xlink:href="#DejaVuSans-33"/>
      <use xlink:href="#DejaVuSans-32" x="63.623047"/>
     </g>
    </g>
   </g>
   <g id="text_34">
    <g clip-path="url(#pb26978759d)">
     <!-- 33 -->
     <g transform="translate(191.614733 272.300505) scale(0.1 -0.1)">
      <use xlink:href="#DejaVuSans-33"/>
      <use xlink:href="#DejaVuSans-33" x="63.623047"/>
     </g>
    </g>
   </g>
   <g id="text_35">
    <g clip-path="url(#pb26978759d)">
     <!-- 34 -->
     <g transform="translate(316.721391 78.401575) scale(0.1 -0.1)">
      <use xlink:href="#DejaVuSans-33"/>
      <use xlink:href="#DejaVuSans-34" x="63.623047"/>
     </g>
    </g>
   </g>
   <g id="text_36">
    <g clip-path="url(#pb26978759d)">
     <!-- 35 -->
     <g transform="translate(394.847817 99.620368) scale(0.1 -0.1)">
      <use xlink:href="#DejaVuSans-33"/>
      <use xlink:href="#DejaVuSans-35" x="63.623047"/>
     </g>
    </g>
   </g>
   <g id="text_37">
    <g clip-path="url(#pb26978759d)">
     <!-- 36 -->
     <g transform="translate(336.131129 87.606837) scale(0.1 -0.1)">
      <use xlink:href="#DejaVuSans-33"/>
      <use xlink:href="#DejaVuSans-36" x="63.623047"/>
     </g>
    </g>
   </g>
   <g id="text_38">
    <g clip-path="url(#pb26978759d)">
     <!-- 37 -->
     <g transform="translate(275.393657 154.602062) scale(0.1 -0.1)">
      <use xlink:href="#DejaVuSans-33"/>
      <use xlink:href="#DejaVuSans-37" x="63.623047"/>
     </g>
    </g>
   </g>
   <g id="text_39">
    <g clip-path="url(#pb26978759d)">
     <!-- 38 -->
     <g transform="translate(297.559515 200.077522) scale(0.1 -0.1)">
      <use xlink:href="#DejaVuSans-33"/>
      <use xlink:href="#DejaVuSans-38" x="63.623047"/>
     </g>
    </g>
   </g>
   <g id="text_40">
    <g clip-path="url(#pb26978759d)">
     <!-- 39 -->
     <g transform="translate(317.468445 176.304005) scale(0.1 -0.1)">
      <use xlink:href="#DejaVuSans-33"/>
      <use xlink:href="#DejaVuSans-39" x="63.623047"/>
     </g>
    </g>
   </g>
   <g id="text_41">
    <g clip-path="url(#pb26978759d)">
     <!-- 40 -->
     <g transform="translate(414.450723 125.94044) scale(0.1 -0.1)">
      <use xlink:href="#DejaVuSans-34"/>
      <use xlink:href="#DejaVuSans-30" x="63.623047"/>
     </g>
    </g>
   </g>
   <g id="text_42">
    <g clip-path="url(#pb26978759d)">
     <!-- 41 -->
     <g transform="translate(408.386215 111.65897) scale(0.1 -0.1)">
      <use xlink:href="#DejaVuSans-34"/>
      <use xlink:href="#DejaVuSans-31" x="63.623047"/>
     </g>
    </g>
   </g>
   <g id="text_43">
    <g clip-path="url(#pb26978759d)">
     <!-- 42 -->
     <g transform="translate(354.704707 130.627424) scale(0.1 -0.1)">
      <use xlink:href="#DejaVuSans-34"/>
      <use xlink:href="#DejaVuSans-32" x="63.623047"/>
     </g>
    </g>
   </g>
   <g id="text_44">
    <g clip-path="url(#pb26978759d)">
     <!-- 43 -->
     <g transform="translate(409.773386 141.002751) scale(0.1 -0.1)">
      <use xlink:href="#DejaVuSans-34"/>
      <use xlink:href="#DejaVuSans-33" x="63.623047"/>
     </g>
    </g>
   </g>
   <g id="text_45">
    <g clip-path="url(#pb26978759d)">
     <!-- 44 -->
     <g transform="translate(131.880296 270.961333) scale(0.1 -0.1)">
      <use xlink:href="#DejaVuSans-34"/>
      <use xlink:href="#DejaVuSans-34" x="63.623047"/>
     </g>
    </g>
   </g>
   <g id="text_46">
    <g clip-path="url(#pb26978759d)">
     <!-- 45 -->
     <g transform="translate(101.386908 170.303411) scale(0.1 -0.1)">
      <use xlink:href="#DejaVuSans-34"/>
      <use xlink:href="#DejaVuSans-35" x="63.623047"/>
     </g>
    </g>
   </g>
   <g id="text_47">
    <g clip-path="url(#pb26978759d)">
     <!-- 46 -->
     <g transform="translate(33.624277 218.332796) scale(0.1 -0.1)">
      <use xlink:href="#DejaVuSans-34"/>
      <use xlink:href="#DejaVuSans-36" x="63.623047"/>
     </g>
    </g>
   </g>
   <g id="text_48">
    <g clip-path="url(#pb26978759d)">
     <!-- 47 -->
     <g transform="translate(186.555491 318.369292) scale(0.1 -0.1)">
      <use xlink:href="#DejaVuSans-34"/>
      <use xlink:href="#DejaVuSans-37" x="63.623047"/>
     </g>
    </g>
   </g>
   <g id="text_49">
    <g clip-path="url(#pb26978759d)">
     <!-- 48 -->
     <g transform="translate(259.495152 190.276335) scale(0.1 -0.1)">
      <use xlink:href="#DejaVuSans-34"/>
      <use xlink:href="#DejaVuSans-38" x="63.623047"/>
     </g>
    </g>
   </g>
   <g id="text_50">
    <g clip-path="url(#pb26978759d)">
     <!-- 49 -->
     <g transform="translate(154.779547 192.390856) scale(0.1 -0.1)">
      <use xlink:href="#DejaVuSans-34"/>
      <use xlink:href="#DejaVuSans-39" x="63.623047"/>
     </g>
    </g>
   </g>
   <g id="text_51">
    <g clip-path="url(#pb26978759d)">
     <!-- 50 -->
     <g transform="translate(296.909928 142.43098) scale(0.1 -0.1)">
      <use xlink:href="#DejaVuSans-35"/>
      <use xlink:href="#DejaVuSans-30" x="63.623047"/>
     </g>
    </g>
   </g>
   <g id="text_52">
    <g clip-path="url(#pb26978759d)">
     <!-- 51 -->
     <g transform="translate(36.785632 200.571713) scale(0.1 -0.1)">
      <use xlink:href="#DejaVuSans-35"/>
      <use xlink:href="#DejaVuSans-31" x="63.623047"/>
     </g>
    </g>
   </g>
   <g id="text_53">
    <g clip-path="url(#pb26978759d)">
     <!-- 52 -->
     <g transform="translate(224.865781 236.135148) scale(0.1 -0.1)">
      <use xlink:href="#DejaVuSans-35"/>
      <use xlink:href="#DejaVuSans-32" x="63.623047"/>
     </g>
    </g>
   </g>
   <g id="text_54">
    <g clip-path="url(#pb26978759d)">
     <!-- 53 -->
     <g transform="translate(369.54221 194.066848) scale(0.1 -0.1)">
      <use xlink:href="#DejaVuSans-35"/>
      <use xlink:href="#DejaVuSans-33" x="63.623047"/>
     </g>
    </g>
   </g>
  </g>
 </g>
 <defs>
  <clipPath id="pb26978759d">
   <rect x="0" y="0" width="460.8" height="345.6"/>
  </clipPath>
 </defs>
</svg>
