<?xml version="1.0" encoding="utf-8" standalone="no"?>
<!DOCTYPE svg PUBLIC "-//W3C//DTD SVG 1.1//EN"
  "http://www.w3.org/Graphics/SVG/1.1/DTD/svg11.dtd">
<svg xmlns:xlink="http://www.w3.org/1999/xlink" width="460.8pt" height="345.6pt" viewBox="0 0 460.8 345.6" xmlns="http://www.w3.org/2000/svg" version="1.1">
 <metadata>
  <rdf:RDF xmlns:dc="http://purl.org/dc/elements/1.1/" xmlns:cc="http://creativecommons.org/ns#" xmlns:rdf="http://www.w3.org/1999/02/22-rdf-syntax-ns#">
   <cc:Work>
    <dc:type rdf:resource="http://purl.org/dc/dcmitype/StillImage"/>
    <dc:date>2023-10-10T10:56:09.292099</dc:date>
    <dc:format>image/svg+xml</dc:format>
    <dc:creator>
     <cc:Agent>
      <dc:title>Matplotlib v3.6.1, https://matplotlib.org/</dc:title>
     </cc:Agent>
    </dc:creator>
   </cc:Work>
  </rdf:RDF>
 </metadata>
 <defs>
  <style type="text/css">*{stroke-linejoin: round; stroke-linecap: butt}</style>
 </defs>
 <g id="figure_1">
  <g id="patch_1">
   <path d="M 0 345.6 
L 460.8 345.6 
L 460.8 0 
L 0 0 
z
" style="fill: #ffffff"/>
  </g>
  <g id="axes_1">
   <g id="patch_2">
    <path d="M 61.625621 163.351847 
Q 80.138865 164.482124 97.536152 165.544269 
" clip-path="url(#pb7059b08f7)" style="fill: none; stroke: #000000; stroke-linecap: round"/>
    <path d="M 93.665464 163.304231 
L 97.536152 165.544269 
L 93.421708 167.296797 
L 93.665464 163.304231 
z
" clip-path="url(#pb7059b08f7)" style="stroke: #000000; stroke-linecap: round"/>
   </g>
   <g id="patch_3">
    <path d="M 331.017066 207.090705 
Q 311.495641 198.748731 293.002315 190.846088 
" clip-path="url(#pb7059b08f7)" style="fill: none; stroke: #000000; stroke-linecap: round"/>
    <path d="M 295.894654 194.257008 
L 293.002315 190.846088 
L 297.466454 190.578769 
L 295.894654 194.257008 
z
" clip-path="url(#pb7059b08f7)" style="stroke: #000000; stroke-linecap: round"/>
   </g>
   <g id="patch_4">
    <path d="M 72.665267 136.127179 
Q 85.963603 150.226017 98.494797 163.511533 
" clip-path="url(#pb7059b08f7)" style="fill: none; stroke: #000000; stroke-linecap: round"/>
    <path d="M 97.205097 159.229399 
L 98.494797 163.511533 
L 94.295269 161.974012 
L 97.205097 159.229399 
z
" clip-path="url(#pb7059b08f7)" style="stroke: #000000; stroke-linecap: round"/>
   </g>
   <g id="patch_5">
    <path d="M 117.708587 251.60137 
Q 125.189849 231.277888 132.284888 212.003611 
" clip-path="url(#pb7059b08f7)" style="fill: none; stroke: #000000; stroke-linecap: round"/>
    <path d="M 129.026221 215.066468 
L 132.284888 212.003611 
L 132.779973 216.448259 
L 129.026221 215.066468 
z
" clip-path="url(#pb7059b08f7)" style="stroke: #000000; stroke-linecap: round"/>
   </g>
   <g id="patch_6">
    <path d="M 291.973939 190.406639 
Q 311.495364 198.748613 329.98869 206.651255 
" clip-path="url(#pb7059b08f7)" style="fill: none; stroke: #000000; stroke-linecap: round"/>
    <path d="M 327.09635 203.240336 
L 329.98869 206.651255 
L 325.52455 206.918575 
L 327.09635 203.240336 
z
" clip-path="url(#pb7059b08f7)" style="stroke: #000000; stroke-linecap: round"/>
   </g>
   <g id="patch_7">
    <path d="M 288.928782 188.178546 
Q 283.671947 182.077157 279.144884 176.822783 
" clip-path="url(#pb7059b08f7)" style="fill: none; stroke: #000000; stroke-linecap: round"/>
    <path d="M 280.240606 181.15861 
L 279.144884 176.822783 
L 283.270978 178.547701 
L 280.240606 181.15861 
z
" clip-path="url(#pb7059b08f7)" style="stroke: #000000; stroke-linecap: round"/>
   </g>
   <g id="patch_8">
    <path d="M 292.121955 189.479358 
Q 311.128226 187.84321 329.020582 186.302952 
" clip-path="url(#pb7059b08f7)" style="fill: none; stroke: #000000; stroke-linecap: round"/>
    <path d="M 324.863787 184.653392 
L 329.020582 186.302952 
L 325.206857 188.638652 
L 324.863787 184.653392 
z
" clip-path="url(#pb7059b08f7)" style="stroke: #000000; stroke-linecap: round"/>
   </g>
   <g id="patch_9">
    <path d="M 288.273046 189.362798 
Q 256.37172 184.665559 225.576503 180.131185 
" clip-path="url(#pb7059b08f7)" style="fill: none; stroke: #000000; stroke-linecap: round"/>
    <path d="M 229.24249 182.69254 
L 225.576503 180.131185 
L 229.825179 178.735208 
L 229.24249 182.69254 
z
" clip-path="url(#pb7059b08f7)" style="stroke: #000000; stroke-linecap: round"/>
   </g>
   <g id="patch_10">
    <path d="M 232.460248 151.427785 
Q 227.82845 164.644787 223.56641 176.80667 
" clip-path="url(#pb7059b08f7)" style="fill: none; stroke: #000000; stroke-linecap: round"/>
    <path d="M 226.776756 173.693202 
L 223.56641 176.80667 
L 223.001844 172.370312 
L 226.776756 173.693202 
z
" clip-path="url(#pb7059b08f7)" style="stroke: #000000; stroke-linecap: round"/>
   </g>
   <g id="patch_11">
    <path d="M 256.947059 209.473895 
Q 240.483608 195.21385 224.865252 181.685796 
" clip-path="url(#pb7059b08f7)" style="fill: none; stroke: #000000; stroke-linecap: round"/>
    <path d="M 226.579334 185.816405 
L 224.865252 181.685796 
L 229.198188 182.792896 
L 226.579334 185.816405 
z
" clip-path="url(#pb7059b08f7)" style="stroke: #000000; stroke-linecap: round"/>
   </g>
   <g id="patch_12">
    <path d="M 260.325373 211.039017 
Q 272.590154 212.942213 283.750123 214.673968 
" clip-path="url(#pb7059b08f7)" style="fill: none; stroke: #000000; stroke-linecap: round"/>
    <path d="M 280.104111 212.08426 
L 283.750123 214.673968 
L 279.490749 216.036953 
L 280.104111 212.08426 
z
" clip-path="url(#pb7059b08f7)" style="stroke: #000000; stroke-linecap: round"/>
   </g>
   <g id="patch_13">
    <path d="M 330.130908 186.20737 
Q 311.124637 187.843519 293.232281 189.383776 
" clip-path="url(#pb7059b08f7)" style="fill: none; stroke: #000000; stroke-linecap: round"/>
    <path d="M 297.389076 191.033337 
L 293.232281 189.383776 
L 297.046007 187.048076 
L 297.389076 191.033337 
z
" clip-path="url(#pb7059b08f7)" style="stroke: #000000; stroke-linecap: round"/>
   </g>
   <g id="patch_14">
    <path d="M 278.416862 175.977799 
Q 283.673697 182.079188 288.20076 187.333561 
" clip-path="url(#pb7059b08f7)" style="fill: none; stroke: #000000; stroke-linecap: round"/>
    <path d="M 287.105038 182.997735 
L 288.20076 187.333561 
L 284.074666 185.608643 
L 287.105038 182.997735 
z
" clip-path="url(#pb7059b08f7)" style="stroke: #000000; stroke-linecap: round"/>
   </g>
   <g id="patch_15">
    <path d="M 275.22655 174.72357 
Q 266.267475 175.712593 258.419684 176.578938 
" clip-path="url(#pb7059b08f7)" style="fill: none; stroke: #000000; stroke-linecap: round"/>
    <path d="M 262.614985 178.127954 
L 258.419684 176.578938 
L 262.176078 174.152107 
L 262.614985 178.127954 
z
" clip-path="url(#pb7059b08f7)" style="stroke: #000000; stroke-linecap: round"/>
   </g>
   <g id="patch_16">
    <path d="M 277.598486 176.393185 
Q 281.960479 194.824154 286.064983 212.167143 
" clip-path="url(#pb7059b08f7)" style="fill: none; stroke: #000000; stroke-linecap: round"/>
    <path d="M 287.090002 207.814059 
L 286.064983 212.167143 
L 283.197528 208.735278 
L 287.090002 207.814059 
z
" clip-path="url(#pb7059b08f7)" style="stroke: #000000; stroke-linecap: round"/>
   </g>
   <g id="patch_17">
    <path d="M 275.308249 175.095016 
Q 250.872431 182.83223 227.502492 190.231951 
" clip-path="url(#pb7059b08f7)" style="fill: none; stroke: #000000; stroke-linecap: round"/>
    <path d="M 231.919624 190.931199 
L 227.502492 190.231951 
L 230.71217 187.117794 
L 231.919624 190.931199 
z
" clip-path="url(#pb7059b08f7)" style="stroke: #000000; stroke-linecap: round"/>
   </g>
   <g id="patch_18">
    <path d="M 278.639047 175.749711 
Q 294.225225 188.742882 308.952633 201.020153 
" clip-path="url(#pb7059b08f7)" style="fill: none; stroke: #000000; stroke-linecap: round"/>
    <path d="M 307.160844 196.922654 
L 308.952633 201.020153 
L 304.599561 199.995085 
L 307.160844 196.922654 
z
" clip-path="url(#pb7059b08f7)" style="stroke: #000000; stroke-linecap: round"/>
   </g>
   <g id="patch_19">
    <path d="M 275.22363 174.693807 
Q 249.853139 177.098939 225.595691 179.398555 
" clip-path="url(#pb7059b08f7)" style="fill: none; stroke: #000000; stroke-linecap: round"/>
    <path d="M 229.766591 181.012119 
L 225.595691 179.398555 
L 229.389082 177.029973 
L 229.766591 181.012119 
z
" clip-path="url(#pb7059b08f7)" style="stroke: #000000; stroke-linecap: round"/>
   </g>
   <g id="patch_20">
    <path d="M 278.423384 173.053267 
Q 301.754428 146.283049 324.350898 120.355685 
" clip-path="url(#pb7059b08f7)" style="fill: none; stroke: #000000; stroke-linecap: round"/>
    <path d="M 320.215068 122.057129 
L 324.350898 120.355685 
L 323.230555 124.685216 
L 320.215068 122.057129 
z
" clip-path="url(#pb7059b08f7)" style="stroke: #000000; stroke-linecap: round"/>
   </g>
   <g id="patch_21">
    <path d="M 309.814513 201.738645 
Q 294.228335 188.745474 279.500927 176.468203 
" clip-path="url(#pb7059b08f7)" style="fill: none; stroke: #000000; stroke-linecap: round"/>
    <path d="M 281.292716 180.565702 
L 279.500927 176.468203 
L 283.853999 177.493271 
L 281.292716 180.565702 
z
" clip-path="url(#pb7059b08f7)" style="stroke: #000000; stroke-linecap: round"/>
   </g>
   <g id="patch_22">
    <path d="M 418.97897 86.76868 
Q 401.696356 92.68612 385.471493 98.241394 
" clip-path="url(#pb7059b08f7)" style="fill: none; stroke: #000000; stroke-linecap: round"/>
    <path d="M 389.903678 98.837831 
L 385.471493 98.241394 
L 388.607953 95.053508 
L 389.903678 98.837831 
z
" clip-path="url(#pb7059b08f7)" style="stroke: #000000; stroke-linecap: round"/>
   </g>
   <g id="patch_23">
    <path d="M 166.932443 291.695353 
Q 166.473383 268.606166 166.036547 246.634792 
" clip-path="url(#pb7059b08f7)" style="fill: none; stroke: #000000; stroke-linecap: round"/>
    <path d="M 164.116454 250.673758 
L 166.036547 246.634792 
L 168.115664 250.594245 
L 164.116454 250.673758 
z
" clip-path="url(#pb7059b08f7)" style="stroke: #000000; stroke-linecap: round"/>
   </g>
   <g id="patch_24">
    <path d="M 166.989473 167.322189 
Q 194.894269 178.868207 221.765972 189.986767 
" clip-path="url(#pb7059b08f7)" style="fill: none; stroke: #000000; stroke-linecap: round"/>
    <path d="M 218.834526 186.609398 
L 221.765972 189.986767 
L 217.305209 190.305502 
L 218.834526 186.609398 
z
" clip-path="url(#pb7059b08f7)" style="stroke: #000000; stroke-linecap: round"/>
   </g>
   <g id="patch_25">
    <path d="M 166.021321 164.829547 
Q 184.672182 124.892666 202.849958 85.968795 
" clip-path="url(#pb7059b08f7)" style="fill: none; stroke: #000000; stroke-linecap: round"/>
    <path d="M 199.34527 88.746773 
L 202.849958 85.968795 
L 202.969528 90.439332 
L 199.34527 88.746773 
z
" clip-path="url(#pb7059b08f7)" style="stroke: #000000; stroke-linecap: round"/>
   </g>
   <g id="patch_26">
    <path d="M 167.08938 167.013903 
Q 193.880411 173.134842 219.581494 179.00676 
" clip-path="url(#pb7059b08f7)" style="fill: none; stroke: #000000; stroke-linecap: round"/>
    <path d="M 216.127435 176.166078 
L 219.581494 179.00676 
L 215.236512 180.065598 
L 216.127435 176.166078 
z
" clip-path="url(#pb7059b08f7)" style="stroke: #000000; stroke-linecap: round"/>
   </g>
   <g id="patch_27">
    <path d="M 164.889835 164.668278 
Q 162.244511 148.471738 159.779404 133.378613 
" clip-path="url(#pb7059b08f7)" style="fill: none; stroke: #000000; stroke-linecap: round"/>
    <path d="M 158.45032 137.648688 
L 159.779404 133.378613 
L 162.398013 137.003925 
L 158.45032 137.648688 
z
" clip-path="url(#pb7059b08f7)" style="stroke: #000000; stroke-linecap: round"/>
   </g>
   <g id="patch_28">
    <path d="M 165.222023 168.523768 
Q 165.589204 205.083838 165.945156 240.52593 
" clip-path="url(#pb7059b08f7)" style="fill: none; stroke: #000000; stroke-linecap: round"/>
    <path d="M 167.904884 236.506047 
L 165.945156 240.52593 
L 163.905086 236.546217 
L 167.904884 236.506047 
z
" clip-path="url(#pb7059b08f7)" style="stroke: #000000; stroke-linecap: round"/>
   </g>
   <g id="patch_29">
    <path d="M 163.30364 166.972408 
Q 126.792775 174.463296 91.37713 181.729478 
" clip-path="url(#pb7059b08f7)" style="fill: none; stroke: #000000; stroke-linecap: round"/>
    <path d="M 95.697474 182.884739 
L 91.37713 181.729478 
L 94.893545 178.966359 
L 95.697474 182.884739 
z
" clip-path="url(#pb7059b08f7)" style="stroke: #000000; stroke-linecap: round"/>
   </g>
   <g id="patch_30">
    <path d="M 163.266141 166.557276 
Q 132.896781 166.15672 103.645359 165.770909 
" clip-path="url(#pb7059b08f7)" style="fill: none; stroke: #000000; stroke-linecap: round"/>
    <path d="M 107.618634 167.823489 
L 103.645359 165.770909 
L 107.671388 163.823837 
L 107.618634 167.823489 
z
" clip-path="url(#pb7059b08f7)" style="stroke: #000000; stroke-linecap: round"/>
   </g>
   <g id="patch_31">
    <path d="M 93.392386 137.451558 
Q 112.894964 172.449021 131.853306 206.469854 
" clip-path="url(#pb7059b08f7)" style="fill: none; stroke: #000000; stroke-linecap: round"/>
    <path d="M 131.653245 202.002195 
L 131.853306 206.469854 
L 128.159143 203.949308 
L 131.653245 202.002195 
z
" clip-path="url(#pb7059b08f7)" style="stroke: #000000; stroke-linecap: round"/>
   </g>
   <g id="patch_32">
    <path d="M 90.925594 134.570303 
Q 73.26552 120.779662 56.486636 107.677137 
" clip-path="url(#pb7059b08f7)" style="fill: none; stroke: #000000; stroke-linecap: round"/>
    <path d="M 58.408339 111.715337 
L 56.486636 107.677137 
L 60.870218 108.562695 
L 58.408339 111.715337 
z
" clip-path="url(#pb7059b08f7)" style="stroke: #000000; stroke-linecap: round"/>
   </g>
   <g id="patch_33">
    <path d="M 92.957864 137.630349 
Q 96.519053 150.745735 99.787274 162.782155 
" clip-path="url(#pb7059b08f7)" style="fill: none; stroke: #000000; stroke-linecap: round"/>
    <path d="M 100.669229 158.397847 
L 99.787274 162.782155 
L 96.809001 159.446006 
L 100.669229 158.397847 
z
" clip-path="url(#pb7059b08f7)" style="stroke: #000000; stroke-linecap: round"/>
   </g>
   <g id="patch_34">
    <path d="M 92.164095 133.846587 
Q 89.037953 112.933917 86.077104 93.126994 
" clip-path="url(#pb7059b08f7)" style="fill: none; stroke: #000000; stroke-linecap: round"/>
    <path d="M 84.690453 97.378724 
L 86.077104 93.126994 
L 88.646497 96.787352 
L 84.690453 97.378724 
z
" clip-path="url(#pb7059b08f7)" style="stroke: #000000; stroke-linecap: round"/>
   </g>
   <g id="patch_35">
    <path d="M 91.494594 134.077572 
Q 80.312291 114.380749 69.681969 95.656201 
" clip-path="url(#pb7059b08f7)" style="fill: none; stroke: #000000; stroke-linecap: round"/>
    <path d="M 69.917538 100.122128 
L 69.681969 95.656201 
L 73.396052 98.147302 
L 69.917538 100.122128 
z
" clip-path="url(#pb7059b08f7)" style="stroke: #000000; stroke-linecap: round"/>
   </g>
   <g id="patch_36">
    <path d="M 41.921612 182.101527 
Q 64.184478 182.217483 85.329325 182.327615 
" clip-path="url(#pb7059b08f7)" style="fill: none; stroke: #000000; stroke-linecap: round"/>
    <path d="M 81.339796 180.306809 
L 85.329325 182.327615 
L 81.318963 184.306755 
L 81.339796 180.306809 
z
" clip-path="url(#pb7059b08f7)" style="stroke: #000000; stroke-linecap: round"/>
   </g>
   <g id="patch_37">
    <path d="M 66.946187 206.564335 
Q 79.966364 203.953051 91.890337 201.561618 
" clip-path="url(#pb7059b08f7)" style="fill: none; stroke: #000000; stroke-linecap: round"/>
    <path d="M 87.575153 200.38723 
L 91.890337 201.561618 
L 88.361716 204.309133 
L 87.575153 200.38723 
z
" clip-path="url(#pb7059b08f7)" style="stroke: #000000; stroke-linecap: round"/>
   </g>
   <g id="patch_38">
    <path d="M 66.378842 205.542471 
Q 76.714015 194.646727 86.279761 184.562143 
" clip-path="url(#pb7059b08f7)" style="fill: none; stroke: #000000; stroke-linecap: round"/>
    <path d="M 82.075925 186.087845 
L 86.279761 184.562143 
L 84.978021 188.840633 
L 82.075925 186.087845 
z
" clip-path="url(#pb7059b08f7)" style="stroke: #000000; stroke-linecap: round"/>
   </g>
   <g id="patch_39">
    <path d="M 259.447917 112.267252 
Q 241.467499 145.127193 224.023762 177.006331 
" clip-path="url(#pb7059b08f7)" style="fill: none; stroke: #000000; stroke-linecap: round"/>
    <path d="M 227.698359 174.457343 
L 224.023762 177.006331 
L 224.18933 172.537261 
L 227.698359 174.457343 
z
" clip-path="url(#pb7059b08f7)" style="stroke: #000000; stroke-linecap: round"/>
   </g>
   <g id="patch_40">
    <path d="M 261.668533 109.121131 
Q 273.963814 95.342679 285.5147 82.398419 
" clip-path="url(#pb7059b08f7)" style="fill: none; stroke: #000000; stroke-linecap: round"/>
    <path d="M 281.359223 84.051298 
L 285.5147 82.398419 
L 284.343717 86.714528 
L 281.359223 84.051298 
z
" clip-path="url(#pb7059b08f7)" style="stroke: #000000; stroke-linecap: round"/>
   </g>
   <g id="patch_41">
    <path d="M 262.299132 110.785037 
Q 293.364864 114.309451 323.319688 117.707832 
" clip-path="url(#pb7059b08f7)" style="fill: none; stroke: #000000; stroke-linecap: round"/>
    <path d="M 319.570638 115.269671 
L 323.319688 117.707832 
L 319.11973 119.244175 
L 319.570638 115.269671 
z
" clip-path="url(#pb7059b08f7)" style="stroke: #000000; stroke-linecap: round"/>
   </g>
   <g id="patch_42">
    <path d="M 260.920558 108.71029 
Q 266.626425 89.175398 272.018828 70.713698 
" clip-path="url(#pb7059b08f7)" style="fill: none; stroke: #000000; stroke-linecap: round"/>
    <path d="M 268.977561 73.992523 
L 272.018828 70.713698 
L 272.817128 75.114007 
L 268.977561 73.992523 
z
" clip-path="url(#pb7059b08f7)" style="stroke: #000000; stroke-linecap: round"/>
   </g>
   <g id="patch_43">
    <path d="M 258.638026 109.720223 
Q 232.260403 96.883161 206.888086 84.535347 
" clip-path="url(#pb7059b08f7)" style="fill: none; stroke: #000000; stroke-linecap: round"/>
    <path d="M 209.609583 88.084072 
L 206.888086 84.535347 
L 211.359964 84.487384 
L 209.609583 88.084072 
z
" clip-path="url(#pb7059b08f7)" style="stroke: #000000; stroke-linecap: round"/>
   </g>
   <g id="patch_44">
    <path d="M 358.263002 100.02914 
Q 343.153766 108.564517 329.017976 116.549982 
" clip-path="url(#pb7059b08f7)" style="fill: none; stroke: #000000; stroke-linecap: round"/>
    <path d="M 333.484395 116.323915 
L 329.017976 116.549982 
L 331.516974 112.841207 
L 333.484395 116.323915 
z
" clip-path="url(#pb7059b08f7)" style="stroke: #000000; stroke-linecap: round"/>
   </g>
   <g id="patch_45">
    <path d="M 384.41287 98.603858 
Q 401.695484 92.686418 417.920348 87.131144 
" clip-path="url(#pb7059b08f7)" style="fill: none; stroke: #000000; stroke-linecap: round"/>
    <path d="M 413.488163 86.534707 
L 417.920348 87.131144 
L 414.783887 90.31903 
L 413.488163 86.534707 
z
" clip-path="url(#pb7059b08f7)" style="stroke: #000000; stroke-linecap: round"/>
   </g>
   <g id="patch_46">
    <path d="M 380.742805 99.846459 
Q 354.468286 108.642253 329.253972 117.083127 
" clip-path="url(#pb7059b08f7)" style="fill: none; stroke: #000000; stroke-linecap: round"/>
    <path d="M 333.681971 117.709879 
L 329.253972 117.083127 
L 332.412173 113.916778 
L 333.681971 117.709879 
z
" clip-path="url(#pb7059b08f7)" style="stroke: #000000; stroke-linecap: round"/>
   </g>
   <g id="patch_47">
    <path d="M 325.087781 119.510181 
Q 301.756738 146.280398 279.160267 172.207762 
" clip-path="url(#pb7059b08f7)" style="fill: none; stroke: #000000; stroke-linecap: round"/>
    <path d="M 283.296097 170.506318 
L 279.160267 172.207762 
L 280.28061 167.878232 
L 283.296097 170.506318 
z
" clip-path="url(#pb7059b08f7)" style="stroke: #000000; stroke-linecap: round"/>
   </g>
   <g id="patch_48">
    <path d="M 324.437228 117.834617 
Q 293.371496 114.310203 263.416672 110.911822 
" clip-path="url(#pb7059b08f7)" style="fill: none; stroke: #000000; stroke-linecap: round"/>
    <path d="M 267.165722 113.349983 
L 263.416672 110.911822 
L 267.61663 109.375479 
L 267.165722 113.349983 
z
" clip-path="url(#pb7059b08f7)" style="stroke: #000000; stroke-linecap: round"/>
   </g>
   <g id="patch_49">
    <path d="M 328.043398 117.100532 
Q 343.152634 108.565156 357.288424 100.57969 
" clip-path="url(#pb7059b08f7)" style="fill: none; stroke: #000000; stroke-linecap: round"/>
    <path d="M 352.822005 100.805757 
L 357.288424 100.57969 
L 354.789426 104.288465 
L 352.822005 100.805757 
z
" clip-path="url(#pb7059b08f7)" style="stroke: #000000; stroke-linecap: round"/>
   </g>
   <g id="patch_50">
    <path d="M 328.193965 117.43798 
Q 354.468484 108.642187 379.682798 100.201312 
" clip-path="url(#pb7059b08f7)" style="fill: none; stroke: #000000; stroke-linecap: round"/>
    <path d="M 375.254799 99.57456 
L 379.682798 100.201312 
L 376.524597 103.367661 
L 375.254799 99.57456 
z
" clip-path="url(#pb7059b08f7)" style="stroke: #000000; stroke-linecap: round"/>
   </g>
   <g id="patch_51">
    <path d="M 327.399093 116.421873 
Q 338.283604 99.370866 348.566538 83.262252 
" clip-path="url(#pb7059b08f7)" style="fill: none; stroke: #000000; stroke-linecap: round"/>
    <path d="M 344.728466 85.557728 
L 348.566538 83.262252 
L 348.100075 87.709995 
L 344.728466 85.557728 
z
" clip-path="url(#pb7059b08f7)" style="stroke: #000000; stroke-linecap: round"/>
   </g>
   <g id="patch_52">
    <path d="M 328.272131 118.346747 
Q 345.909866 121.057876 362.442546 123.599144 
" clip-path="url(#pb7059b08f7)" style="fill: none; stroke: #000000; stroke-linecap: round"/>
    <path d="M 358.792834 121.014651 
L 362.442546 123.599144 
L 358.185124 124.968218 
L 358.792834 121.014651 
z
" clip-path="url(#pb7059b08f7)" style="stroke: #000000; stroke-linecap: round"/>
   </g>
   <g id="patch_53">
    <path d="M 349.170027 82.316863 
Q 338.285516 99.36787 328.002582 115.476484 
" clip-path="url(#pb7059b08f7)" style="fill: none; stroke: #000000; stroke-linecap: round"/>
    <path d="M 331.840653 113.181008 
L 328.002582 115.476484 
L 328.469044 111.028742 
L 331.840653 113.181008 
z
" clip-path="url(#pb7059b08f7)" style="stroke: #000000; stroke-linecap: round"/>
   </g>
   <g id="patch_54">
    <path d="M 363.544699 123.768558 
Q 345.906964 121.05743 329.374284 118.516161 
" clip-path="url(#pb7059b08f7)" style="fill: none; stroke: #000000; stroke-linecap: round"/>
    <path d="M 333.023996 121.100654 
L 329.374284 118.516161 
L 333.631706 117.147088 
L 333.023996 121.100654 
z
" clip-path="url(#pb7059b08f7)" style="stroke: #000000; stroke-linecap: round"/>
   </g>
   <g id="patch_55">
    <path d="M 97.549092 237.278031 
Q 114.683202 223.806366 130.938409 211.025738 
" clip-path="url(#pb7059b08f7)" style="fill: none; stroke: #000000; stroke-linecap: round"/>
    <path d="M 126.557789 211.925833 
L 130.938409 211.025738 
L 129.030114 215.070291 
L 126.557789 211.925833 
z
" clip-path="url(#pb7059b08f7)" style="stroke: #000000; stroke-linecap: round"/>
   </g>
   <g id="patch_56">
    <path d="M 104.388093 252.077502 
Q 118.32239 231.410822 131.631662 211.671151 
" clip-path="url(#pb7059b08f7)" style="fill: none; stroke: #000000; stroke-linecap: round"/>
    <path d="M 127.737221 213.869635 
L 131.631662 211.671151 
L 131.053785 216.105793 
L 127.737221 213.869635 
z
" clip-path="url(#pb7059b08f7)" style="stroke: #000000; stroke-linecap: round"/>
   </g>
   <g id="patch_57">
    <path d="M 166.01429 245.515331 
Q 166.47335 268.604518 166.910186 290.575893 
" clip-path="url(#pb7059b08f7)" style="fill: none; stroke: #000000; stroke-linecap: round"/>
    <path d="M 168.830278 286.536927 
L 166.910186 290.575893 
L 164.831069 286.616439 
L 168.830278 286.536927 
z
" clip-path="url(#pb7059b08f7)" style="stroke: #000000; stroke-linecap: round"/>
   </g>
   <g id="patch_58">
    <path d="M 165.956352 241.640793 
Q 165.589172 205.080723 165.23322 169.63863 
" clip-path="url(#pb7059b08f7)" style="fill: none; stroke: #000000; stroke-linecap: round"/>
    <path d="M 163.273492 173.658514 
L 165.23322 169.63863 
L 167.27329 173.618343 
L 163.273492 173.658514 
z
" clip-path="url(#pb7059b08f7)" style="stroke: #000000; stroke-linecap: round"/>
   </g>
   <g id="patch_59">
    <path d="M 165.315386 245.400563 
Q 157.003738 268.289736 149.073697 290.128015 
" clip-path="url(#pb7059b08f7)" style="fill: none; stroke: #000000; stroke-linecap: round"/>
    <path d="M 152.318868 287.050863 
L 149.073697 290.128015 
L 148.559078 285.685586 
L 152.318868 287.050863 
z
" clip-path="url(#pb7059b08f7)" style="stroke: #000000; stroke-linecap: round"/>
   </g>
   <g id="patch_60">
    <path d="M 167.608703 242.540727 
Q 178.113741 235.843308 187.67604 229.746925 
" clip-path="url(#pb7059b08f7)" style="fill: none; stroke: #000000; stroke-linecap: round"/>
    <path d="M 183.228031 230.210838 
L 187.67604 229.746925 
L 185.378365 233.58368 
L 183.228031 230.210838 
z
" clip-path="url(#pb7059b08f7)" style="stroke: #000000; stroke-linecap: round"/>
   </g>
   <g id="patch_61">
    <path d="M 148.691078 291.181694 
Q 157.002726 268.292522 164.932768 246.454243 
" clip-path="url(#pb7059b08f7)" style="fill: none; stroke: #000000; stroke-linecap: round"/>
    <path d="M 161.687596 249.531394 
L 164.932768 246.454243 
L 165.447386 250.896671 
L 161.687596 249.531394 
z
" clip-path="url(#pb7059b08f7)" style="stroke: #000000; stroke-linecap: round"/>
   </g>
   <g id="patch_62">
    <path d="M 44.566415 201.931645 
Q 65.591425 192.53272 85.595747 183.590078 
" clip-path="url(#pb7059b08f7)" style="fill: none; stroke: #000000; stroke-linecap: round"/>
    <path d="M 81.127795 183.396666 
L 85.595747 183.590078 
L 82.760246 187.048393 
L 81.127795 183.396666 
z
" clip-path="url(#pb7059b08f7)" style="stroke: #000000; stroke-linecap: round"/>
   </g>
   <g id="patch_63">
    <path d="M 90.283122 181.953934 
Q 126.793987 174.463047 162.209632 167.196865 
" clip-path="url(#pb7059b08f7)" style="fill: none; stroke: #000000; stroke-linecap: round"/>
    <path d="M 157.889288 166.041604 
L 162.209632 167.196865 
L 158.693217 169.959983 
L 157.889288 166.041604 
z
" clip-path="url(#pb7059b08f7)" style="stroke: #000000; stroke-linecap: round"/>
   </g>
   <g id="patch_64">
    <path d="M 86.449397 182.333449 
Q 64.186531 182.217493 43.041683 182.10736 
" clip-path="url(#pb7059b08f7)" style="fill: none; stroke: #000000; stroke-linecap: round"/>
    <path d="M 47.031212 184.128167 
L 43.041683 182.10736 
L 47.052046 180.128221 
L 47.031212 184.128167 
z
" clip-path="url(#pb7059b08f7)" style="stroke: #000000; stroke-linecap: round"/>
   </g>
   <g id="patch_65">
    <path d="M 87.053938 183.745974 
Q 76.718765 194.641719 67.153019 204.726303 
" clip-path="url(#pb7059b08f7)" style="fill: none; stroke: #000000; stroke-linecap: round"/>
    <path d="M 71.356855 203.2006 
L 67.153019 204.726303 
L 68.454759 200.447813 
L 71.356855 203.2006 
z
" clip-path="url(#pb7059b08f7)" style="stroke: #000000; stroke-linecap: round"/>
   </g>
   <g id="patch_66">
    <path d="M 86.617497 183.13332 
Q 65.592486 192.532245 45.588164 201.474887 
" clip-path="url(#pb7059b08f7)" style="fill: none; stroke: #000000; stroke-linecap: round"/>
    <path d="M 50.056116 201.668299 
L 45.588164 201.474887 
L 48.423665 198.016573 
L 50.056116 201.668299 
z
" clip-path="url(#pb7059b08f7)" style="stroke: #000000; stroke-linecap: round"/>
   </g>
   <g id="patch_67">
    <path d="M 89.529811 180.784035 
Q 94.485142 174.03828 98.778576 168.193575 
" clip-path="url(#pb7059b08f7)" style="fill: none; stroke: #000000; stroke-linecap: round"/>
    <path d="M 94.79865 170.233231 
L 98.778576 168.193575 
L 98.022345 172.601309 
L 94.79865 170.233231 
z
" clip-path="url(#pb7059b08f7)" style="stroke: #000000; stroke-linecap: round"/>
   </g>
   <g id="patch_68">
    <path d="M 98.653346 165.612476 
Q 80.140103 164.4822 62.742815 163.420055 
" clip-path="url(#pb7059b08f7)" style="fill: none; stroke: #000000; stroke-linecap: round"/>
    <path d="M 66.613504 165.660093 
L 62.742815 163.420055 
L 66.857259 161.667527 
L 66.613504 165.660093 
z
" clip-path="url(#pb7059b08f7)" style="stroke: #000000; stroke-linecap: round"/>
   </g>
   <g id="patch_69">
    <path d="M 99.257697 164.320356 
Q 85.95936 150.221518 73.428166 136.936001 
" clip-path="url(#pb7059b08f7)" style="fill: none; stroke: #000000; stroke-linecap: round"/>
    <path d="M 74.717866 141.218136 
L 73.428166 136.936001 
L 77.627694 138.473522 
L 74.717866 141.218136 
z
" clip-path="url(#pb7059b08f7)" style="stroke: #000000; stroke-linecap: round"/>
   </g>
   <g id="patch_70">
    <path d="M 102.524243 165.756122 
Q 132.893602 166.156678 162.145025 166.542489 
" clip-path="url(#pb7059b08f7)" style="fill: none; stroke: #000000; stroke-linecap: round"/>
    <path d="M 158.171749 164.489909 
L 162.145025 166.542489 
L 158.118996 168.489561 
L 158.171749 164.489909 
z
" clip-path="url(#pb7059b08f7)" style="stroke: #000000; stroke-linecap: round"/>
   </g>
   <g id="patch_71">
    <path d="M 100.080247 163.861136 
Q 96.519057 150.74575 93.250837 138.709331 
" clip-path="url(#pb7059b08f7)" style="fill: none; stroke: #000000; stroke-linecap: round"/>
    <path d="M 92.368881 143.093639 
L 93.250837 138.709331 
L 96.22911 142.04548 
L 92.368881 143.093639 
z
" clip-path="url(#pb7059b08f7)" style="stroke: #000000; stroke-linecap: round"/>
   </g>
   <g id="patch_72">
    <path d="M 99.442274 167.290074 
Q 94.486943 174.035829 90.19351 179.880534 
" clip-path="url(#pb7059b08f7)" style="fill: none; stroke: #000000; stroke-linecap: round"/>
    <path d="M 94.173435 177.840879 
L 90.19351 179.880534 
L 90.94974 175.472801 
L 94.173435 177.840879 
z
" clip-path="url(#pb7059b08f7)" style="stroke: #000000; stroke-linecap: round"/>
   </g>
   <g id="patch_73">
    <path d="M 98.8227 164.936145 
Q 78.512241 155.795076 59.221315 147.112866 
" clip-path="url(#pb7059b08f7)" style="fill: none; stroke: #000000; stroke-linecap: round"/>
    <path d="M 62.048079 150.578325 
L 59.221315 147.112866 
L 63.689741 146.93073 
L 62.048079 150.578325 
z
" clip-path="url(#pb7059b08f7)" style="stroke: #000000; stroke-linecap: round"/>
   </g>
   <g id="patch_74">
    <path d="M 100.278137 167.644331 
Q 97.73721 183.344781 95.374899 197.941556 
" clip-path="url(#pb7059b08f7)" style="fill: none; stroke: #000000; stroke-linecap: round"/>
    <path d="M 97.988248 194.31245 
L 95.374899 197.941556 
L 94.039624 193.673413 
L 97.988248 194.31245 
z
" clip-path="url(#pb7059b08f7)" style="stroke: #000000; stroke-linecap: round"/>
   </g>
   <g id="patch_75">
    <path d="M 101.753286 167.275155 
Q 116.963408 187.433448 131.500123 206.699261 
" clip-path="url(#pb7059b08f7)" style="fill: none; stroke: #000000; stroke-linecap: round"/>
    <path d="M 130.687386 202.301596 
L 131.500123 206.699261 
L 127.494349 204.710851 
L 130.687386 202.301596 
z
" clip-path="url(#pb7059b08f7)" style="stroke: #000000; stroke-linecap: round"/>
   </g>
   <g id="patch_76">
    <path d="M 85.911837 92.021427 
Q 89.037979 112.934097 91.998828 132.741019 
" clip-path="url(#pb7059b08f7)" style="fill: none; stroke: #000000; stroke-linecap: round"/>
    <path d="M 93.385479 128.48929 
L 91.998828 132.741019 
L 89.429435 129.080661 
L 93.385479 128.48929 
z
" clip-path="url(#pb7059b08f7)" style="stroke: #000000; stroke-linecap: round"/>
   </g>
   <g id="patch_77">
    <path d="M 132.67032 210.956554 
Q 125.189058 231.280036 118.094019 250.554312 
" clip-path="url(#pb7059b08f7)" style="fill: none; stroke: #000000; stroke-linecap: round"/>
    <path d="M 121.352686 247.491456 
L 118.094019 250.554312 
L 117.598934 246.109665 
L 121.352686 247.491456 
z
" clip-path="url(#pb7059b08f7)" style="stroke: #000000; stroke-linecap: round"/>
   </g>
   <g id="patch_78">
    <path d="M 132.397777 207.44691 
Q 112.8952 172.449446 93.936857 138.428613 
" clip-path="url(#pb7059b08f7)" style="fill: none; stroke: #000000; stroke-linecap: round"/>
    <path d="M 94.136919 142.896272 
L 93.936857 138.428613 
L 97.631021 140.94916 
L 94.136919 142.896272 
z
" clip-path="url(#pb7059b08f7)" style="stroke: #000000; stroke-linecap: round"/>
   </g>
   <g id="patch_79">
    <path d="M 131.816263 210.335526 
Q 114.682154 223.807191 98.426946 236.587819 
" clip-path="url(#pb7059b08f7)" style="fill: none; stroke: #000000; stroke-linecap: round"/>
    <path d="M 102.807566 235.687724 
L 98.426946 236.587819 
L 100.335242 232.543266 
L 102.807566 235.687724 
z
" clip-path="url(#pb7059b08f7)" style="stroke: #000000; stroke-linecap: round"/>
   </g>
   <g id="patch_80">
    <path d="M 132.256482 210.744447 
Q 118.322185 231.411127 105.012913 251.150799 
" clip-path="url(#pb7059b08f7)" style="fill: none; stroke: #000000; stroke-linecap: round"/>
    <path d="M 108.907354 248.952315 
L 105.012913 251.150799 
L 105.59079 246.716156 
L 108.907354 248.952315 
z
" clip-path="url(#pb7059b08f7)" style="stroke: #000000; stroke-linecap: round"/>
   </g>
   <g id="patch_81">
    <path d="M 132.174474 207.592992 
Q 116.964352 187.434699 102.427637 168.168886 
" clip-path="url(#pb7059b08f7)" style="fill: none; stroke: #000000; stroke-linecap: round"/>
    <path d="M 103.240374 172.566551 
L 102.427637 168.168886 
L 106.433412 170.157295 
L 103.240374 172.566551 
z
" clip-path="url(#pb7059b08f7)" style="stroke: #000000; stroke-linecap: round"/>
   </g>
   <g id="patch_82">
    <path d="M 135.114595 209.903908 
Q 147.904566 215.426854 159.668113 220.506571 
" clip-path="url(#pb7059b08f7)" style="fill: none; stroke: #000000; stroke-linecap: round"/>
    <path d="M 156.788736 217.084702 
L 159.668113 220.506571 
L 155.202991 220.756951 
L 156.788736 217.084702 
z
" clip-path="url(#pb7059b08f7)" style="stroke: #000000; stroke-linecap: round"/>
   </g>
   <g id="patch_83">
    <path d="M 134.353815 210.788386 
Q 149.787366 235.916935 164.635788 260.09279 
" clip-path="url(#pb7059b08f7)" style="fill: none; stroke: #000000; stroke-linecap: round"/>
    <path d="M 164.246597 255.637621 
L 164.635788 260.09279 
L 160.838138 257.731041 
L 164.246597 255.637621 
z
" clip-path="url(#pb7059b08f7)" style="stroke: #000000; stroke-linecap: round"/>
   </g>
   <g id="patch_84">
    <path d="M 133.233899 211.073642 
Q 132.204694 229.870614 131.236614 247.551224 
" clip-path="url(#pb7059b08f7)" style="fill: none; stroke: #000000; stroke-linecap: round"/>
    <path d="M 133.452311 243.666551 
L 131.236614 247.551224 
L 129.458293 243.447863 
L 133.452311 243.666551 
z
" clip-path="url(#pb7059b08f7)" style="stroke: #000000; stroke-linecap: round"/>
   </g>
   <g id="patch_85">
    <path d="M 135.177725 208.530893 
Q 177.948795 194.412 219.65818 180.643572 
" clip-path="url(#pb7059b08f7)" style="fill: none; stroke: #000000; stroke-linecap: round"/>
    <path d="M 215.23285 179.998239 
L 219.65818 180.643572 
L 216.486715 183.796636 
L 215.23285 179.998239 
z
" clip-path="url(#pb7059b08f7)" style="stroke: #000000; stroke-linecap: round"/>
   </g>
   <g id="patch_86">
    <path d="M 131.448206 208.735312 
Q 114.115656 205.049708 97.876689 201.596645 
" clip-path="url(#pb7059b08f7)" style="fill: none; stroke: #000000; stroke-linecap: round"/>
    <path d="M 101.373232 204.384868 
L 97.876689 201.596645 
L 102.205193 200.472344 
L 101.373232 204.384868 
z
" clip-path="url(#pb7059b08f7)" style="stroke: #000000; stroke-linecap: round"/>
   </g>
   <g id="patch_87">
    <path d="M 131.511558 209.765842 
Q 118.394312 214.27334 106.334415 218.4175 
" clip-path="url(#pb7059b08f7)" style="fill: none; stroke: #000000; stroke-linecap: round"/>
    <path d="M 110.767258 219.009024 
L 106.334415 218.4175 
L 109.46734 215.22614 
L 110.767258 219.009024 
z
" clip-path="url(#pb7059b08f7)" style="stroke: #000000; stroke-linecap: round"/>
   </g>
   <g id="patch_88">
    <path d="M 105.272392 218.782445 
Q 118.389638 214.274947 130.449536 210.130787 
" clip-path="url(#pb7059b08f7)" style="fill: none; stroke: #000000; stroke-linecap: round"/>
    <path d="M 126.016692 209.539262 
L 130.449536 210.130787 
L 127.31661 213.322147 
L 126.016692 209.539262 
z
" clip-path="url(#pb7059b08f7)" style="stroke: #000000; stroke-linecap: round"/>
   </g>
   <g id="patch_89">
    <path d="M 102.627128 217.649508 
Q 99.163967 210.183168 96.171247 203.731069 
" clip-path="url(#pb7059b08f7)" style="fill: none; stroke: #000000; stroke-linecap: round"/>
    <path d="M 96.040022 208.20128 
L 96.171247 203.731069 
L 99.66868 206.518175 
L 96.040022 208.20128 
z
" clip-path="url(#pb7059b08f7)" style="stroke: #000000; stroke-linecap: round"/>
   </g>
   <g id="patch_90">
    <path d="M 160.699991 220.952155 
Q 147.91002 215.429209 136.146473 210.349492 
" clip-path="url(#pb7059b08f7)" style="fill: none; stroke: #000000; stroke-linecap: round"/>
    <path d="M 139.02585 213.771362 
L 136.146473 210.349492 
L 140.611595 210.099113 
L 139.02585 213.771362 
z
" clip-path="url(#pb7059b08f7)" style="stroke: #000000; stroke-linecap: round"/>
   </g>
   <g id="patch_91">
    <path d="M 164.363373 222.152697 
Q 176.36453 224.911681 187.276076 227.42017 
" clip-path="url(#pb7059b08f7)" style="fill: none; stroke: #000000; stroke-linecap: round"/>
    <path d="M 183.825861 224.574819 
L 187.276076 227.42017 
L 182.929666 228.473131 
L 183.825861 224.574819 
z
" clip-path="url(#pb7059b08f7)" style="stroke: #000000; stroke-linecap: round"/>
   </g>
   <g id="patch_92">
    <path d="M 165.220799 261.045291 
Q 149.787248 235.916743 134.938826 211.740888 
" clip-path="url(#pb7059b08f7)" style="fill: none; stroke: #000000; stroke-linecap: round"/>
    <path d="M 135.328017 216.196057 
L 134.938826 211.740888 
L 138.736476 214.102636 
L 135.328017 216.196057 
z
" clip-path="url(#pb7059b08f7)" style="stroke: #000000; stroke-linecap: round"/>
   </g>
   <g id="patch_93">
    <path d="M 167.338547 261.106296 
Q 178.243033 245.400987 188.509875 230.614053 
" clip-path="url(#pb7059b08f7)" style="fill: none; stroke: #000000; stroke-linecap: round"/>
    <path d="M 184.585734 232.759074 
L 188.509875 230.614053 
L 187.871408 235.040378 
L 184.585734 232.759074 
z
" clip-path="url(#pb7059b08f7)" style="stroke: #000000; stroke-linecap: round"/>
   </g>
   <g id="patch_94">
    <path d="M 166.623379 264.591889 
Q 171.658828 289.152723 176.469729 312.618304 
" clip-path="url(#pb7059b08f7)" style="fill: none; stroke: #000000; stroke-linecap: round"/>
    <path d="M 177.625608 308.298125 
L 176.469729 312.618304 
L 173.707114 309.101493 
L 177.625608 308.298125 
z
" clip-path="url(#pb7059b08f7)" style="stroke: #000000; stroke-linecap: round"/>
   </g>
   <g id="patch_95">
    <path d="M 286.261014 81.562077 
Q 273.965733 95.340529 262.414848 108.284789 
" clip-path="url(#pb7059b08f7)" style="fill: none; stroke: #000000; stroke-linecap: round"/>
    <path d="M 266.570325 106.631911 
L 262.414848 108.284789 
L 263.585831 103.96868 
L 266.570325 106.631911 
z
" clip-path="url(#pb7059b08f7)" style="stroke: #000000; stroke-linecap: round"/>
   </g>
   <g id="patch_96">
    <path d="M 209.005648 31.915937 
Q 206.665699 56.595223 204.431282 80.161468 
" clip-path="url(#pb7059b08f7)" style="fill: none; stroke: #000000; stroke-linecap: round"/>
    <path d="M 206.799917 76.368109 
L 204.431282 80.161468 
L 202.817776 75.990545 
L 206.799917 76.368109 
z
" clip-path="url(#pb7059b08f7)" style="stroke: #000000; stroke-linecap: round"/>
   </g>
   <g id="patch_97">
    <path d="M 272.333567 69.636145 
Q 266.627699 89.171037 261.235296 107.632737 
" clip-path="url(#pb7059b08f7)" style="fill: none; stroke: #000000; stroke-linecap: round"/>
    <path d="M 264.276563 104.353912 
L 261.235296 107.632737 
L 260.436996 103.232428 
L 264.276563 104.353912 
z
" clip-path="url(#pb7059b08f7)" style="stroke: #000000; stroke-linecap: round"/>
   </g>
   <g id="patch_98">
    <path d="M 257.311775 176.701244 
Q 266.270849 175.712221 274.118641 174.845876 
" clip-path="url(#pb7059b08f7)" style="fill: none; stroke: #000000; stroke-linecap: round"/>
    <path d="M 269.92334 173.29686 
L 274.118641 174.845876 
L 270.362247 177.272707 
L 269.92334 173.29686 
z
" clip-path="url(#pb7059b08f7)" style="stroke: #000000; stroke-linecap: round"/>
   </g>
   <g id="patch_99">
    <path d="M 253.45778 177.076714 
Q 238.971227 178.300261 225.598742 179.429714 
" clip-path="url(#pb7059b08f7)" style="fill: none; stroke: #000000; stroke-linecap: round"/>
    <path d="M 229.752873 181.085973 
L 225.598742 179.429714 
L 229.416228 177.100164 
L 229.752873 181.085973 
z
" clip-path="url(#pb7059b08f7)" style="stroke: #000000; stroke-linecap: round"/>
   </g>
   <g id="patch_100">
    <path d="M 284.85483 214.845392 
Q 272.590049 212.942196 261.430079 211.210441 
" clip-path="url(#pb7059b08f7)" style="fill: none; stroke: #000000; stroke-linecap: round"/>
    <path d="M 265.076092 213.800149 
L 261.430079 211.210441 
L 265.689454 209.847456 
L 265.076092 213.800149 
z
" clip-path="url(#pb7059b08f7)" style="stroke: #000000; stroke-linecap: round"/>
   </g>
   <g id="patch_101">
    <path d="M 286.323664 213.260162 
Q 281.961672 194.829193 277.857167 177.486205 
" clip-path="url(#pb7059b08f7)" style="fill: none; stroke: #000000; stroke-linecap: round"/>
    <path d="M 276.832148 181.839288 
L 277.857167 177.486205 
L 280.724623 180.91807 
L 276.832148 181.839288 
z
" clip-path="url(#pb7059b08f7)" style="stroke: #000000; stroke-linecap: round"/>
   </g>
   <g id="patch_102">
    <path d="M 226.43325 190.570509 
Q 250.869068 182.833295 274.239007 175.433575 
" clip-path="url(#pb7059b08f7)" style="fill: none; stroke: #000000; stroke-linecap: round"/>
    <path d="M 269.821876 174.734326 
L 274.239007 175.433575 
L 271.02933 178.547731 
L 269.821876 174.734326 
z
" clip-path="url(#pb7059b08f7)" style="stroke: #000000; stroke-linecap: round"/>
   </g>
   <g id="patch_103">
    <path d="M 222.801544 190.41525 
Q 194.896748 178.869233 168.025045 167.750672 
" clip-path="url(#pb7059b08f7)" style="fill: none; stroke: #000000; stroke-linecap: round"/>
    <path d="M 170.956491 171.128042 
L 168.025045 167.750672 
L 172.485808 167.431938 
L 170.956491 171.128042 
z
" clip-path="url(#pb7059b08f7)" style="stroke: #000000; stroke-linecap: round"/>
   </g>
   <g id="patch_104">
    <path d="M 225.268246 192.966947 
Q 231.964729 210.820615 238.268574 227.627462 
" clip-path="url(#pb7059b08f7)" style="fill: none; stroke: #000000; stroke-linecap: round"/>
    <path d="M 238.736442 223.179867 
L 238.268574 227.627462 
L 234.991219 224.584611 
L 238.736442 223.179867 
z
" clip-path="url(#pb7059b08f7)" style="stroke: #000000; stroke-linecap: round"/>
   </g>
   <g id="patch_105">
    <path d="M 221.361632 44.618747 
Q 213.147055 63.024914 205.388132 80.41011 
" clip-path="url(#pb7059b08f7)" style="fill: none; stroke: #000000; stroke-linecap: round"/>
    <path d="M 208.844694 77.572475 
L 205.388132 80.41011 
L 205.191961 75.942279 
L 208.844694 77.572475 
z
" clip-path="url(#pb7059b08f7)" style="stroke: #000000; stroke-linecap: round"/>
   </g>
   <g id="patch_106">
    <path d="M 197.011104 41.186702 
Q 200.415014 61.237926 203.631804 80.186886 
" clip-path="url(#pb7059b08f7)" style="fill: none; stroke: #000000; stroke-linecap: round"/>
    <path d="M 204.934128 75.908574 
L 203.631804 80.186886 
L 200.990549 76.578039 
L 204.934128 75.908574 
z
" clip-path="url(#pb7059b08f7)" style="stroke: #000000; stroke-linecap: round"/>
   </g>
   <g id="patch_107">
    <path d="M 203.32444 84.952791 
Q 184.67358 124.889672 166.495804 163.813543 
" clip-path="url(#pb7059b08f7)" style="fill: none; stroke: #000000; stroke-linecap: round"/>
    <path d="M 170.000491 161.035565 
L 166.495804 163.813543 
L 166.376234 159.343006 
L 170.000491 161.035565 
z
" clip-path="url(#pb7059b08f7)" style="stroke: #000000; stroke-linecap: round"/>
   </g>
   <g id="patch_108">
    <path d="M 205.883413 84.046408 
Q 232.261035 96.883469 257.633353 109.231284 
" clip-path="url(#pb7059b08f7)" style="fill: none; stroke: #000000; stroke-linecap: round"/>
    <path d="M 254.911856 105.682558 
L 257.633353 109.231284 
L 253.161474 109.279246 
L 254.911856 105.682558 
z
" clip-path="url(#pb7059b08f7)" style="stroke: #000000; stroke-linecap: round"/>
   </g>
   <g id="patch_109">
    <path d="M 204.32583 81.273668 
Q 206.665779 56.594382 208.900195 33.028137 
" clip-path="url(#pb7059b08f7)" style="fill: none; stroke: #000000; stroke-linecap: round"/>
    <path d="M 206.531561 36.821496 
L 208.900195 33.028137 
L 210.513702 37.19906 
L 206.531561 36.821496 
z
" clip-path="url(#pb7059b08f7)" style="stroke: #000000; stroke-linecap: round"/>
   </g>
   <g id="patch_110">
    <path d="M 204.93353 81.428723 
Q 213.148107 63.022556 220.907031 45.63736 
" clip-path="url(#pb7059b08f7)" style="fill: none; stroke: #000000; stroke-linecap: round"/>
    <path d="M 217.450468 48.474996 
L 220.907031 45.63736 
L 221.103201 50.105192 
L 217.450468 48.474996 
z
" clip-path="url(#pb7059b08f7)" style="stroke: #000000; stroke-linecap: round"/>
   </g>
   <g id="patch_111">
    <path d="M 203.818733 81.288021 
Q 200.414823 61.236797 197.198033 42.287838 
" clip-path="url(#pb7059b08f7)" style="fill: none; stroke: #000000; stroke-linecap: round"/>
    <path d="M 195.895708 46.566149 
L 197.198033 42.287838 
L 199.839288 45.896684 
L 195.895708 46.566149 
z
" clip-path="url(#pb7059b08f7)" style="stroke: #000000; stroke-linecap: round"/>
   </g>
   <g id="patch_112">
    <path d="M 203.184881 81.514324 
Q 193.006226 63.615815 183.380261 46.689176 
" clip-path="url(#pb7059b08f7)" style="fill: none; stroke: #000000; stroke-linecap: round"/>
    <path d="M 183.619092 51.15493 
L 183.380261 46.689176 
L 187.096163 49.177564 
L 183.619092 51.15493 
z
" clip-path="url(#pb7059b08f7)" style="stroke: #000000; stroke-linecap: round"/>
   </g>
   <g id="patch_113">
    <path d="M 182.829782 45.721194 
Q 193.008437 63.619704 202.634401 80.546342 
" clip-path="url(#pb7059b08f7)" style="fill: none; stroke: #000000; stroke-linecap: round"/>
    <path d="M 202.395571 76.080588 
L 202.634401 80.546342 
L 198.9185 78.057954 
L 202.395571 76.080588 
z
" clip-path="url(#pb7059b08f7)" style="stroke: #000000; stroke-linecap: round"/>
   </g>
   <g id="patch_114">
    <path d="M 131.175551 248.666455 
Q 132.204756 229.869483 133.172836 212.188873 
" clip-path="url(#pb7059b08f7)" style="fill: none; stroke: #000000; stroke-linecap: round"/>
    <path d="M 130.95714 216.073547 
L 133.172836 212.188873 
L 134.951157 216.292234 
L 130.95714 216.073547 
z
" clip-path="url(#pb7059b08f7)" style="stroke: #000000; stroke-linecap: round"/>
   </g>
   <g id="patch_115">
    <path d="M 58.199909 146.653164 
Q 78.510368 155.794233 97.801293 164.476443 
" clip-path="url(#pb7059b08f7)" style="fill: none; stroke: #000000; stroke-linecap: round"/>
    <path d="M 94.97453 161.010984 
L 97.801293 164.476443 
L 93.332868 164.658578 
L 94.97453 161.010984 
z
" clip-path="url(#pb7059b08f7)" style="stroke: #000000; stroke-linecap: round"/>
   </g>
   <g id="patch_116">
    <path d="M 69.130604 94.685012 
Q 80.312907 114.381834 90.94323 133.106382 
" clip-path="url(#pb7059b08f7)" style="fill: none; stroke: #000000; stroke-linecap: round"/>
    <path d="M 90.707661 128.640455 
L 90.94323 133.106382 
L 87.229146 130.615281 
L 90.707661 128.640455 
z
" clip-path="url(#pb7059b08f7)" style="stroke: #000000; stroke-linecap: round"/>
   </g>
   <g id="patch_117">
    <path d="M 176.694397 313.714141 
Q 171.658948 289.153307 166.848047 265.687726 
" clip-path="url(#pb7059b08f7)" style="fill: none; stroke: #000000; stroke-linecap: round"/>
    <path d="M 165.692167 270.007905 
L 166.848047 265.687726 
L 169.610662 269.204537 
L 165.692167 270.007905 
z
" clip-path="url(#pb7059b08f7)" style="stroke: #000000; stroke-linecap: round"/>
   </g>
   <g id="patch_118">
    <path d="M 224.476743 179.969254 
Q 256.378069 184.666493 287.173287 189.200867 
" clip-path="url(#pb7059b08f7)" style="fill: none; stroke: #000000; stroke-linecap: round"/>
    <path d="M 283.507299 186.639512 
L 287.173287 189.200867 
L 282.924611 190.596844 
L 283.507299 186.639512 
z
" clip-path="url(#pb7059b08f7)" style="stroke: #000000; stroke-linecap: round"/>
   </g>
   <g id="patch_119">
    <path d="M 223.196772 177.861445 
Q 227.828571 164.644443 232.09061 152.48256 
" clip-path="url(#pb7059b08f7)" style="fill: none; stroke: #000000; stroke-linecap: round"/>
    <path d="M 228.880264 155.596028 
L 232.09061 152.48256 
L 232.655177 156.918917 
L 228.880264 155.596028 
z
" clip-path="url(#pb7059b08f7)" style="stroke: #000000; stroke-linecap: round"/>
   </g>
   <g id="patch_120">
    <path d="M 224.021163 180.954677 
Q 240.484615 195.214722 256.10297 208.742775 
" clip-path="url(#pb7059b08f7)" style="fill: none; stroke: #000000; stroke-linecap: round"/>
    <path d="M 254.388888 204.612167 
L 256.10297 208.742775 
L 251.770034 207.635676 
L 254.388888 204.612167 
z
" clip-path="url(#pb7059b08f7)" style="stroke: #000000; stroke-linecap: round"/>
   </g>
   <g id="patch_121">
    <path d="M 224.48654 179.503703 
Q 249.857032 177.09857 274.114479 174.798955 
" clip-path="url(#pb7059b08f7)" style="fill: none; stroke: #000000; stroke-linecap: round"/>
    <path d="M 269.943579 173.185391 
L 274.114479 174.798955 
L 270.321088 177.167537 
L 269.943579 173.185391 
z
" clip-path="url(#pb7059b08f7)" style="stroke: #000000; stroke-linecap: round"/>
   </g>
   <g id="patch_122">
    <path d="M 220.670308 179.255521 
Q 193.879276 173.134582 168.178194 167.262665 
" clip-path="url(#pb7059b08f7)" style="fill: none; stroke: #000000; stroke-linecap: round"/>
    <path d="M 171.632253 170.103347 
L 168.178194 167.262665 
L 172.523175 166.203827 
L 171.632253 170.103347 
z
" clip-path="url(#pb7059b08f7)" style="stroke: #000000; stroke-linecap: round"/>
   </g>
   <g id="patch_123">
    <path d="M 223.487448 177.986465 
Q 241.467866 145.126524 258.911604 113.247386 
" clip-path="url(#pb7059b08f7)" style="fill: none; stroke: #000000; stroke-linecap: round"/>
    <path d="M 255.237007 115.796374 
L 258.911604 113.247386 
L 258.746035 117.716456 
L 255.237007 115.796374 
z
" clip-path="url(#pb7059b08f7)" style="stroke: #000000; stroke-linecap: round"/>
   </g>
   <g id="patch_124">
    <path d="M 220.719339 180.29328 
Q 177.948269 194.412173 136.238884 208.180601 
" clip-path="url(#pb7059b08f7)" style="fill: none; stroke: #000000; stroke-linecap: round"/>
    <path d="M 140.664214 208.825934 
L 136.238884 208.180601 
L 139.410349 205.027537 
L 140.664214 208.825934 
z
" clip-path="url(#pb7059b08f7)" style="stroke: #000000; stroke-linecap: round"/>
   </g>
   <g id="patch_125">
    <path d="M 224.48469 179.523808 
Q 238.971243 178.30026 252.343728 177.170808 
" clip-path="url(#pb7059b08f7)" style="fill: none; stroke: #000000; stroke-linecap: round"/>
    <path d="M 248.189597 175.514549 
L 252.343728 177.170808 
L 248.526242 179.500357 
L 248.189597 175.514549 
z
" clip-path="url(#pb7059b08f7)" style="stroke: #000000; stroke-linecap: round"/>
   </g>
   <g id="patch_126">
    <path d="M 221.482566 181.297186 
Q 206.404048 203.89658 191.946052 225.565947 
" clip-path="url(#pb7059b08f7)" style="fill: none; stroke: #000000; stroke-linecap: round"/>
    <path d="M 195.829786 223.348603 
L 191.946052 225.565947 
L 192.502418 221.128554 
L 195.829786 223.348603 
z
" clip-path="url(#pb7059b08f7)" style="stroke: #000000; stroke-linecap: round"/>
   </g>
   <g id="patch_127">
    <path d="M 92.988638 201.341346 
Q 79.968461 203.95263 68.044488 206.344063 
" clip-path="url(#pb7059b08f7)" style="fill: none; stroke: #000000; stroke-linecap: round"/>
    <path d="M 72.359673 207.51845 
L 68.044488 206.344063 
L 71.573109 203.596548 
L 72.359673 207.51845 
z
" clip-path="url(#pb7059b08f7)" style="stroke: #000000; stroke-linecap: round"/>
   </g>
   <g id="patch_128">
    <path d="M 95.195994 199.047013 
Q 97.736921 183.346564 100.099232 168.749789 
" clip-path="url(#pb7059b08f7)" style="fill: none; stroke: #000000; stroke-linecap: round"/>
    <path d="M 97.485883 172.378894 
L 100.099232 168.749789 
L 101.434507 173.017931 
L 97.485883 172.378894 
z
" clip-path="url(#pb7059b08f7)" style="stroke: #000000; stroke-linecap: round"/>
   </g>
   <g id="patch_129">
    <path d="M 96.777978 201.363014 
Q 114.110528 205.048618 130.349494 208.501681 
" clip-path="url(#pb7059b08f7)" style="fill: none; stroke: #000000; stroke-linecap: round"/>
    <path d="M 126.852951 205.713458 
L 130.349494 208.501681 
L 126.02099 209.625982 
L 126.852951 205.713458 
z
" clip-path="url(#pb7059b08f7)" style="stroke: #000000; stroke-linecap: round"/>
   </g>
   <g id="patch_130">
    <path d="M 95.703193 202.721976 
Q 99.166354 210.188316 102.159074 216.640415 
" clip-path="url(#pb7059b08f7)" style="fill: none; stroke: #000000; stroke-linecap: round"/>
    <path d="M 102.290298 212.170205 
L 102.159074 216.640415 
L 98.66164 213.853309 
L 102.290298 212.170205 
z
" clip-path="url(#pb7059b08f7)" style="stroke: #000000; stroke-linecap: round"/>
   </g>
   <g id="patch_131">
    <path d="M 159.599299 132.275886 
Q 162.244623 148.472426 164.709731 163.565551 
" clip-path="url(#pb7059b08f7)" style="fill: none; stroke: #000000; stroke-linecap: round"/>
    <path d="M 166.038814 159.295476 
L 164.709731 163.565551 
L 162.091121 159.940239 
L 166.038814 159.295476 
z
" clip-path="url(#pb7059b08f7)" style="stroke: #000000; stroke-linecap: round"/>
   </g>
   <g id="patch_132">
    <path d="M 55.603055 106.987154 
Q 73.263129 120.777795 90.042013 133.88032 
" clip-path="url(#pb7059b08f7)" style="fill: none; stroke: #000000; stroke-linecap: round"/>
    <path d="M 88.12031 129.84212 
L 90.042013 133.88032 
L 85.658431 132.994763 
L 88.12031 129.84212 
z
" clip-path="url(#pb7059b08f7)" style="stroke: #000000; stroke-linecap: round"/>
   </g>
   <g id="patch_133">
    <path d="M 188.619516 229.145419 
Q 178.114478 235.842838 168.552179 241.939221 
" clip-path="url(#pb7059b08f7)" style="fill: none; stroke: #000000; stroke-linecap: round"/>
    <path d="M 173.000188 241.475308 
L 168.552179 241.939221 
L 170.849854 238.102466 
L 173.000188 241.475308 
z
" clip-path="url(#pb7059b08f7)" style="stroke: #000000; stroke-linecap: round"/>
   </g>
   <g id="patch_134">
    <path d="M 188.36368 227.670203 
Q 176.362523 224.911219 165.450977 222.402729 
" clip-path="url(#pb7059b08f7)" style="fill: none; stroke: #000000; stroke-linecap: round"/>
    <path d="M 168.901191 225.24808 
L 165.450977 222.402729 
L 169.797386 221.349769 
L 168.901191 225.24808 
z
" clip-path="url(#pb7059b08f7)" style="stroke: #000000; stroke-linecap: round"/>
   </g>
   <g id="patch_135">
    <path d="M 189.148534 229.694218 
Q 178.244048 245.399526 167.977205 260.186461 
" clip-path="url(#pb7059b08f7)" style="fill: none; stroke: #000000; stroke-linecap: round"/>
    <path d="M 171.901346 258.04144 
L 167.977205 260.186461 
L 168.615672 255.760136 
L 171.901346 258.04144 
z
" clip-path="url(#pb7059b08f7)" style="stroke: #000000; stroke-linecap: round"/>
   </g>
   <g id="patch_136">
    <path d="M 191.326964 226.493824 
Q 206.405483 203.89443 220.863478 182.225063 
" clip-path="url(#pb7059b08f7)" style="fill: none; stroke: #000000; stroke-linecap: round"/>
    <path d="M 216.979744 184.442406 
L 220.863478 182.225063 
L 220.307112 186.662456 
L 216.979744 184.442406 
z
" clip-path="url(#pb7059b08f7)" style="stroke: #000000; stroke-linecap: round"/>
   </g>
   <g id="patch_137">
    <path d="M 238.659947 228.670913 
Q 231.963464 210.817244 225.659619 194.010398 
" clip-path="url(#pb7059b08f7)" style="fill: none; stroke: #000000; stroke-linecap: round"/>
    <path d="M 225.191751 198.457992 
L 225.659619 194.010398 
L 228.936974 197.053249 
L 225.191751 198.457992 
z
" clip-path="url(#pb7059b08f7)" style="stroke: #000000; stroke-linecap: round"/>
   </g>
   <g id="PathCollection_1">
    <defs>
     <path id="m77638b8797" d="M 0 1.936492 
C 0.513564 1.936492 1.006162 1.732451 1.369306 1.369306 
C 1.732451 1.006162 1.936492 0.513564 1.936492 0 
C 1.936492 -0.513564 1.732451 -1.006162 1.369306 -1.369306 
C 1.006162 -1.732451 0.513564 -1.936492 0 -1.936492 
C -0.513564 -1.936492 -1.006162 -1.732451 -1.369306 -1.369306 
C -1.732451 -1.006162 -1.936492 -0.513564 -1.936492 0 
C -1.936492 0.513564 -1.732451 1.006162 -1.369306 1.369306 
C -1.006162 1.732451 -0.513564 1.936492 0 1.936492 
z
" style="stroke: #1f78b4"/>
    </defs>
    <g clip-path="url(#pb7059b08f7)">
     <use xlink:href="#m77638b8797" x="59.691114" y="163.233741" style="fill: #1f78b4; stroke: #1f78b4"/>
     <use xlink:href="#m77638b8797" x="332.798373" y="207.8519" style="fill: #1f78b4; stroke: #1f78b4"/>
     <use xlink:href="#m77638b8797" x="71.335109" y="134.716952" style="fill: #1f78b4; stroke: #1f78b4"/>
     <use xlink:href="#m77638b8797" x="117.039" y="253.420359" style="fill: #1f78b4; stroke: #1f78b4"/>
     <use xlink:href="#m77638b8797" x="290.192632" y="189.645443" style="fill: #1f78b4; stroke: #1f78b4"/>
     <use xlink:href="#m77638b8797" x="233.099863" y="149.602621" style="fill: #1f78b4; stroke: #1f78b4"/>
     <use xlink:href="#m77638b8797" x="258.411065" y="210.741963" style="fill: #1f78b4; stroke: #1f78b4"/>
     <use xlink:href="#m77638b8797" x="332.060231" y="186.041285" style="fill: #1f78b4; stroke: #1f78b4"/>
     <use xlink:href="#m77638b8797" x="277.153012" y="174.510901" style="fill: #1f78b4; stroke: #1f78b4"/>
     <use xlink:href="#m77638b8797" x="311.300548" y="202.977455" style="fill: #1f78b4; stroke: #1f78b4"/>
     <use xlink:href="#m77638b8797" x="420.813223" y="86.140645" style="fill: #1f78b4; stroke: #1f78b4"/>
     <use xlink:href="#m77638b8797" x="166.970887" y="293.628939" style="fill: #1f78b4; stroke: #1f78b4"/>
     <use xlink:href="#m77638b8797" x="165.20253" y="166.582816" style="fill: #1f78b4; stroke: #1f78b4"/>
     <use xlink:href="#m77638b8797" x="92.450257" y="135.760903" style="fill: #1f78b4; stroke: #1f78b4"/>
     <use xlink:href="#m77638b8797" x="39.986777" y="182.091449" style="fill: #1f78b4; stroke: #1f78b4"/>
     <use xlink:href="#m77638b8797" x="65.048548" y="206.944919" style="fill: #1f78b4; stroke: #1f78b4"/>
     <use xlink:href="#m77638b8797" x="260.378207" y="110.567108" style="fill: #1f78b4; stroke: #1f78b4"/>
     <use xlink:href="#m77638b8797" x="359.948247" y="99.077126" style="fill: #1f78b4; stroke: #1f78b4"/>
     <use xlink:href="#m77638b8797" x="382.578617" y="99.231893" style="fill: #1f78b4; stroke: #1f78b4"/>
     <use xlink:href="#m77638b8797" x="326.358153" y="118.052546" style="fill: #1f78b4; stroke: #1f78b4"/>
     <use xlink:href="#m77638b8797" x="350.210967" y="80.68619" style="fill: #1f78b4; stroke: #1f78b4"/>
     <use xlink:href="#m77638b8797" x="365.458677" y="124.06276" style="fill: #1f78b4; stroke: #1f78b4"/>
     <use xlink:href="#m77638b8797" x="96.025449" y="238.475993" style="fill: #1f78b4; stroke: #1f78b4"/>
     <use xlink:href="#m77638b8797" x="103.304668" y="253.684385" style="fill: #1f78b4; stroke: #1f78b4"/>
     <use xlink:href="#m77638b8797" x="165.975846" y="243.581745" style="fill: #1f78b4; stroke: #1f78b4"/>
     <use xlink:href="#m77638b8797" x="148.030619" y="293.000512" style="fill: #1f78b4; stroke: #1f78b4"/>
     <use xlink:href="#m77638b8797" x="42.799679" y="202.721438" style="fill: #1f78b4; stroke: #1f78b4"/>
     <use xlink:href="#m77638b8797" x="88.384232" y="182.343527" style="fill: #1f78b4; stroke: #1f78b4"/>
     <use xlink:href="#m77638b8797" x="100.587854" y="165.730583" style="fill: #1f78b4; stroke: #1f78b4"/>
     <use xlink:href="#m77638b8797" x="85.625675" y="90.107111" style="fill: #1f78b4; stroke: #1f78b4"/>
     <use xlink:href="#m77638b8797" x="133.339907" y="209.137564" style="fill: #1f78b4; stroke: #1f78b4"/>
     <use xlink:href="#m77638b8797" x="103.444044" y="219.410722" style="fill: #1f78b4; stroke: #1f78b4"/>
     <use xlink:href="#m77638b8797" x="162.47468" y="221.718499" style="fill: #1f78b4; stroke: #1f78b4"/>
     <use xlink:href="#m77638b8797" x="166.234708" y="262.696113" style="fill: #1f78b4; stroke: #1f78b4"/>
     <use xlink:href="#m77638b8797" x="287.55134" y="80.1161" style="fill: #1f78b4; stroke: #1f78b4"/>
     <use xlink:href="#m77638b8797" x="209.188246" y="29.990083" style="fill: #1f78b4; stroke: #1f78b4"/>
     <use xlink:href="#m77638b8797" x="272.875917" y="67.779327" style="fill: #1f78b4; stroke: #1f78b4"/>
     <use xlink:href="#m77638b8797" x="255.385313" y="176.913913" style="fill: #1f78b4; stroke: #1f78b4"/>
     <use xlink:href="#m77638b8797" x="286.769138" y="215.142446" style="fill: #1f78b4; stroke: #1f78b4"/>
     <use xlink:href="#m77638b8797" x="224.588487" y="191.154624" style="fill: #1f78b4; stroke: #1f78b4"/>
     <use xlink:href="#m77638b8797" x="222.151931" y="42.847948" style="fill: #1f78b4; stroke: #1f78b4"/>
     <use xlink:href="#m77638b8797" x="196.686606" y="39.275201" style="fill: #1f78b4; stroke: #1f78b4"/>
     <use xlink:href="#m77638b8797" x="204.143231" y="83.199522" style="fill: #1f78b4; stroke: #1f78b4"/>
     <use xlink:href="#m77638b8797" x="181.871432" y="44.035996" style="fill: #1f78b4; stroke: #1f78b4"/>
     <use xlink:href="#m77638b8797" x="131.069544" y="250.602533" style="fill: #1f78b4; stroke: #1f78b4"/>
     <use xlink:href="#m77638b8797" x="56.434755" y="145.858726" style="fill: #1f78b4; stroke: #1f78b4"/>
     <use xlink:href="#m77638b8797" x="68.174942" y="93.00168" style="fill: #1f78b4; stroke: #1f78b4"/>
     <use xlink:href="#m77638b8797" x="177.083068" y="315.609917" style="fill: #1f78b4; stroke: #1f78b4"/>
     <use xlink:href="#m77638b8797" x="222.557158" y="179.686609" style="fill: #1f78b4; stroke: #1f78b4"/>
     <use xlink:href="#m77638b8797" x="94.886277" y="200.960762" style="fill: #1f78b4; stroke: #1f78b4"/>
     <use xlink:href="#m77638b8797" x="159.286604" y="130.361348" style="fill: #1f78b4; stroke: #1f78b4"/>
     <use xlink:href="#m77638b8797" x="54.078392" y="105.796554" style="fill: #1f78b4; stroke: #1f78b4"/>
     <use xlink:href="#m77638b8797" x="190.252373" y="228.104401" style="fill: #1f78b4; stroke: #1f78b4"/>
     <use xlink:href="#m77638b8797" x="239.339706" y="230.483236" style="fill: #1f78b4; stroke: #1f78b4"/>
    </g>
   </g>
   <g id="text_1">
    <g clip-path="url(#pb7059b08f7)">
     <!-- 0 -->
     <g transform="translate(56.509864 165.993116) scale(0.1 -0.1)">
      <defs>
       <path id="DejaVuSans-30" d="M 2034 4250 
Q 1547 4250 1301 3770 
Q 1056 3291 1056 2328 
Q 1056 1369 1301 889 
Q 1547 409 2034 409 
Q 2525 409 2770 889 
Q 3016 1369 3016 2328 
Q 3016 3291 2770 3770 
Q 2525 4250 2034 4250 
z
M 2034 4750 
Q 2819 4750 3233 4129 
Q 3647 3509 3647 2328 
Q 3647 1150 3233 529 
Q 2819 -91 2034 -91 
Q 1250 -91 836 529 
Q 422 1150 422 2328 
Q 422 3509 836 4129 
Q 1250 4750 2034 4750 
z
" transform="scale(0.015625)"/>
      </defs>
      <use xlink:href="#DejaVuSans-30"/>
     </g>
    </g>
   </g>
   <g id="text_2">
    <g clip-path="url(#pb7059b08f7)">
     <!-- 1 -->
     <g transform="translate(329.617123 210.611275) scale(0.1 -0.1)">
      <defs>
       <path id="DejaVuSans-31" d="M 794 531 
L 1825 531 
L 1825 4091 
L 703 3866 
L 703 4441 
L 1819 4666 
L 2450 4666 
L 2450 531 
L 3481 531 
L 3481 0 
L 794 0 
L 794 531 
z
" transform="scale(0.015625)"/>
      </defs>
      <use xlink:href="#DejaVuSans-31"/>
     </g>
    </g>
   </g>
   <g id="text_3">
    <g clip-path="url(#pb7059b08f7)">
     <!-- 2 -->
     <g transform="translate(68.153859 137.476327) scale(0.1 -0.1)">
      <defs>
       <path id="DejaVuSans-32" d="M 1228 531 
L 3431 531 
L 3431 0 
L 469 0 
L 469 531 
Q 828 903 1448 1529 
Q 2069 2156 2228 2338 
Q 2531 2678 2651 2914 
Q 2772 3150 2772 3378 
Q 2772 3750 2511 3984 
Q 2250 4219 1831 4219 
Q 1534 4219 1204 4116 
Q 875 4013 500 3803 
L 500 4441 
Q 881 4594 1212 4672 
Q 1544 4750 1819 4750 
Q 2544 4750 2975 4387 
Q 3406 4025 3406 3419 
Q 3406 3131 3298 2873 
Q 3191 2616 2906 2266 
Q 2828 2175 2409 1742 
Q 1991 1309 1228 531 
z
" transform="scale(0.015625)"/>
      </defs>
      <use xlink:href="#DejaVuSans-32"/>
     </g>
    </g>
   </g>
   <g id="text_4">
    <g clip-path="url(#pb7059b08f7)">
     <!-- 3 -->
     <g transform="translate(113.85775 256.179734) scale(0.1 -0.1)">
      <defs>
       <path id="DejaVuSans-33" d="M 2597 2516 
Q 3050 2419 3304 2112 
Q 3559 1806 3559 1356 
Q 3559 666 3084 287 
Q 2609 -91 1734 -91 
Q 1441 -91 1130 -33 
Q 819 25 488 141 
L 488 750 
Q 750 597 1062 519 
Q 1375 441 1716 441 
Q 2309 441 2620 675 
Q 2931 909 2931 1356 
Q 2931 1769 2642 2001 
Q 2353 2234 1838 2234 
L 1294 2234 
L 1294 2753 
L 1863 2753 
Q 2328 2753 2575 2939 
Q 2822 3125 2822 3475 
Q 2822 3834 2567 4026 
Q 2313 4219 1838 4219 
Q 1578 4219 1281 4162 
Q 984 4106 628 3988 
L 628 4550 
Q 988 4650 1302 4700 
Q 1616 4750 1894 4750 
Q 2613 4750 3031 4423 
Q 3450 4097 3450 3541 
Q 3450 3153 3228 2886 
Q 3006 2619 2597 2516 
z
" transform="scale(0.015625)"/>
      </defs>
      <use xlink:href="#DejaVuSans-33"/>
     </g>
    </g>
   </g>
   <g id="text_5">
    <g clip-path="url(#pb7059b08f7)">
     <!-- 4 -->
     <g transform="translate(287.011382 192.404818) scale(0.1 -0.1)">
      <defs>
       <path id="DejaVuSans-34" d="M 2419 4116 
L 825 1625 
L 2419 1625 
L 2419 4116 
z
M 2253 4666 
L 3047 4666 
L 3047 1625 
L 3713 1625 
L 3713 1100 
L 3047 1100 
L 3047 0 
L 2419 0 
L 2419 1100 
L 313 1100 
L 313 1709 
L 2253 4666 
z
" transform="scale(0.015625)"/>
      </defs>
      <use xlink:href="#DejaVuSans-34"/>
     </g>
    </g>
   </g>
   <g id="text_6">
    <g clip-path="url(#pb7059b08f7)">
     <!-- 5 -->
     <g transform="translate(229.918613 152.361996) scale(0.1 -0.1)">
      <defs>
       <path id="DejaVuSans-35" d="M 691 4666 
L 3169 4666 
L 3169 4134 
L 1269 4134 
L 1269 2991 
Q 1406 3038 1543 3061 
Q 1681 3084 1819 3084 
Q 2600 3084 3056 2656 
Q 3513 2228 3513 1497 
Q 3513 744 3044 326 
Q 2575 -91 1722 -91 
Q 1428 -91 1123 -41 
Q 819 9 494 109 
L 494 744 
Q 775 591 1075 516 
Q 1375 441 1709 441 
Q 2250 441 2565 725 
Q 2881 1009 2881 1497 
Q 2881 1984 2565 2268 
Q 2250 2553 1709 2553 
Q 1456 2553 1204 2497 
Q 953 2441 691 2322 
L 691 4666 
z
" transform="scale(0.015625)"/>
      </defs>
      <use xlink:href="#DejaVuSans-35"/>
     </g>
    </g>
   </g>
   <g id="text_7">
    <g clip-path="url(#pb7059b08f7)">
     <!-- 6 -->
     <g transform="translate(255.229815 213.501338) scale(0.1 -0.1)">
      <defs>
       <path id="DejaVuSans-36" d="M 2113 2584 
Q 1688 2584 1439 2293 
Q 1191 2003 1191 1497 
Q 1191 994 1439 701 
Q 1688 409 2113 409 
Q 2538 409 2786 701 
Q 3034 994 3034 1497 
Q 3034 2003 2786 2293 
Q 2538 2584 2113 2584 
z
M 3366 4563 
L 3366 3988 
Q 3128 4100 2886 4159 
Q 2644 4219 2406 4219 
Q 1781 4219 1451 3797 
Q 1122 3375 1075 2522 
Q 1259 2794 1537 2939 
Q 1816 3084 2150 3084 
Q 2853 3084 3261 2657 
Q 3669 2231 3669 1497 
Q 3669 778 3244 343 
Q 2819 -91 2113 -91 
Q 1303 -91 875 529 
Q 447 1150 447 2328 
Q 447 3434 972 4092 
Q 1497 4750 2381 4750 
Q 2619 4750 2861 4703 
Q 3103 4656 3366 4563 
z
" transform="scale(0.015625)"/>
      </defs>
      <use xlink:href="#DejaVuSans-36"/>
     </g>
    </g>
   </g>
   <g id="text_8">
    <g clip-path="url(#pb7059b08f7)">
     <!-- 7 -->
     <g transform="translate(328.878981 188.80066) scale(0.1 -0.1)">
      <defs>
       <path id="DejaVuSans-37" d="M 525 4666 
L 3525 4666 
L 3525 4397 
L 1831 0 
L 1172 0 
L 2766 4134 
L 525 4134 
L 525 4666 
z
" transform="scale(0.015625)"/>
      </defs>
      <use xlink:href="#DejaVuSans-37"/>
     </g>
    </g>
   </g>
   <g id="text_9">
    <g clip-path="url(#pb7059b08f7)">
     <!-- 8 -->
     <g transform="translate(273.971762 177.270276) scale(0.1 -0.1)">
      <defs>
       <path id="DejaVuSans-38" d="M 2034 2216 
Q 1584 2216 1326 1975 
Q 1069 1734 1069 1313 
Q 1069 891 1326 650 
Q 1584 409 2034 409 
Q 2484 409 2743 651 
Q 3003 894 3003 1313 
Q 3003 1734 2745 1975 
Q 2488 2216 2034 2216 
z
M 1403 2484 
Q 997 2584 770 2862 
Q 544 3141 544 3541 
Q 544 4100 942 4425 
Q 1341 4750 2034 4750 
Q 2731 4750 3128 4425 
Q 3525 4100 3525 3541 
Q 3525 3141 3298 2862 
Q 3072 2584 2669 2484 
Q 3125 2378 3379 2068 
Q 3634 1759 3634 1313 
Q 3634 634 3220 271 
Q 2806 -91 2034 -91 
Q 1263 -91 848 271 
Q 434 634 434 1313 
Q 434 1759 690 2068 
Q 947 2378 1403 2484 
z
M 1172 3481 
Q 1172 3119 1398 2916 
Q 1625 2713 2034 2713 
Q 2441 2713 2670 2916 
Q 2900 3119 2900 3481 
Q 2900 3844 2670 4047 
Q 2441 4250 2034 4250 
Q 1625 4250 1398 4047 
Q 1172 3844 1172 3481 
z
" transform="scale(0.015625)"/>
      </defs>
      <use xlink:href="#DejaVuSans-38"/>
     </g>
    </g>
   </g>
   <g id="text_10">
    <g clip-path="url(#pb7059b08f7)">
     <!-- 9 -->
     <g transform="translate(308.119298 205.73683) scale(0.1 -0.1)">
      <defs>
       <path id="DejaVuSans-39" d="M 703 97 
L 703 672 
Q 941 559 1184 500 
Q 1428 441 1663 441 
Q 2288 441 2617 861 
Q 2947 1281 2994 2138 
Q 2813 1869 2534 1725 
Q 2256 1581 1919 1581 
Q 1219 1581 811 2004 
Q 403 2428 403 3163 
Q 403 3881 828 4315 
Q 1253 4750 1959 4750 
Q 2769 4750 3195 4129 
Q 3622 3509 3622 2328 
Q 3622 1225 3098 567 
Q 2575 -91 1691 -91 
Q 1453 -91 1209 -44 
Q 966 3 703 97 
z
M 1959 2075 
Q 2384 2075 2632 2365 
Q 2881 2656 2881 3163 
Q 2881 3666 2632 3958 
Q 2384 4250 1959 4250 
Q 1534 4250 1286 3958 
Q 1038 3666 1038 3163 
Q 1038 2656 1286 2365 
Q 1534 2075 1959 2075 
z
" transform="scale(0.015625)"/>
      </defs>
      <use xlink:href="#DejaVuSans-39"/>
     </g>
    </g>
   </g>
   <g id="text_11">
    <g clip-path="url(#pb7059b08f7)">
     <!-- 10 -->
     <g transform="translate(414.450723 88.90002) scale(0.1 -0.1)">
      <use xlink:href="#DejaVuSans-31"/>
      <use xlink:href="#DejaVuSans-30" x="63.623047"/>
     </g>
    </g>
   </g>
   <g id="text_12">
    <g clip-path="url(#pb7059b08f7)">
     <!-- 11 -->
     <g transform="translate(160.608387 296.388314) scale(0.1 -0.1)">
      <use xlink:href="#DejaVuSans-31"/>
      <use xlink:href="#DejaVuSans-31" x="63.623047"/>
     </g>
    </g>
   </g>
   <g id="text_13">
    <g clip-path="url(#pb7059b08f7)">
     <!-- 12 -->
     <g transform="translate(158.84003 169.342191) scale(0.1 -0.1)">
      <use xlink:href="#DejaVuSans-31"/>
      <use xlink:href="#DejaVuSans-32" x="63.623047"/>
     </g>
    </g>
   </g>
   <g id="text_14">
    <g clip-path="url(#pb7059b08f7)">
     <!-- 13 -->
     <g transform="translate(86.087757 138.520278) scale(0.1 -0.1)">
      <use xlink:href="#DejaVuSans-31"/>
      <use xlink:href="#DejaVuSans-33" x="63.623047"/>
     </g>
    </g>
   </g>
   <g id="text_15">
    <g clip-path="url(#pb7059b08f7)">
     <!-- 14 -->
     <g transform="translate(33.624277 184.850824) scale(0.1 -0.1)">
      <use xlink:href="#DejaVuSans-31"/>
      <use xlink:href="#DejaVuSans-34" x="63.623047"/>
     </g>
    </g>
   </g>
   <g id="text_16">
    <g clip-path="url(#pb7059b08f7)">
     <!-- 15 -->
     <g transform="translate(58.686048 209.704294) scale(0.1 -0.1)">
      <use xlink:href="#DejaVuSans-31"/>
      <use xlink:href="#DejaVuSans-35" x="63.623047"/>
     </g>
    </g>
   </g>
   <g id="text_17">
    <g clip-path="url(#pb7059b08f7)">
     <!-- 16 -->
     <g transform="translate(254.015707 113.326483) scale(0.1 -0.1)">
      <use xlink:href="#DejaVuSans-31"/>
      <use xlink:href="#DejaVuSans-36" x="63.623047"/>
     </g>
    </g>
   </g>
   <g id="text_18">
    <g clip-path="url(#pb7059b08f7)">
     <!-- 17 -->
     <g transform="translate(353.585747 101.836501) scale(0.1 -0.1)">
      <use xlink:href="#DejaVuSans-31"/>
      <use xlink:href="#DejaVuSans-37" x="63.623047"/>
     </g>
    </g>
   </g>
   <g id="text_19">
    <g clip-path="url(#pb7059b08f7)">
     <!-- 18 -->
     <g transform="translate(376.216117 101.991268) scale(0.1 -0.1)">
      <use xlink:href="#DejaVuSans-31"/>
      <use xlink:href="#DejaVuSans-38" x="63.623047"/>
     </g>
    </g>
   </g>
   <g id="text_20">
    <g clip-path="url(#pb7059b08f7)">
     <!-- 19 -->
     <g transform="translate(319.995653 120.811921) scale(0.1 -0.1)">
      <use xlink:href="#DejaVuSans-31"/>
      <use xlink:href="#DejaVuSans-39" x="63.623047"/>
     </g>
    </g>
   </g>
   <g id="text_21">
    <g clip-path="url(#pb7059b08f7)">
     <!-- 20 -->
     <g transform="translate(343.848467 83.445565) scale(0.1 -0.1)">
      <use xlink:href="#DejaVuSans-32"/>
      <use xlink:href="#DejaVuSans-30" x="63.623047"/>
     </g>
    </g>
   </g>
   <g id="text_22">
    <g clip-path="url(#pb7059b08f7)">
     <!-- 21 -->
     <g transform="translate(359.096177 126.822135) scale(0.1 -0.1)">
      <use xlink:href="#DejaVuSans-32"/>
      <use xlink:href="#DejaVuSans-31" x="63.623047"/>
     </g>
    </g>
   </g>
   <g id="text_23">
    <g clip-path="url(#pb7059b08f7)">
     <!-- 22 -->
     <g transform="translate(89.662949 241.235368) scale(0.1 -0.1)">
      <use xlink:href="#DejaVuSans-32"/>
      <use xlink:href="#DejaVuSans-32" x="63.623047"/>
     </g>
    </g>
   </g>
   <g id="text_24">
    <g clip-path="url(#pb7059b08f7)">
     <!-- 23 -->
     <g transform="translate(96.942168 256.44376) scale(0.1 -0.1)">
      <use xlink:href="#DejaVuSans-32"/>
      <use xlink:href="#DejaVuSans-33" x="63.623047"/>
     </g>
    </g>
   </g>
   <g id="text_25">
    <g clip-path="url(#pb7059b08f7)">
     <!-- 24 -->
     <g transform="translate(159.613346 246.34112) scale(0.1 -0.1)">
      <use xlink:href="#DejaVuSans-32"/>
      <use xlink:href="#DejaVuSans-34" x="63.623047"/>
     </g>
    </g>
   </g>
   <g id="text_26">
    <g clip-path="url(#pb7059b08f7)">
     <!-- 25 -->
     <g transform="translate(141.668119 295.759887) scale(0.1 -0.1)">
      <use xlink:href="#DejaVuSans-32"/>
      <use xlink:href="#DejaVuSans-35" x="63.623047"/>
     </g>
    </g>
   </g>
   <g id="text_27">
    <g clip-path="url(#pb7059b08f7)">
     <!-- 26 -->
     <g transform="translate(36.437179 205.480813) scale(0.1 -0.1)">
      <use xlink:href="#DejaVuSans-32"/>
      <use xlink:href="#DejaVuSans-36" x="63.623047"/>
     </g>
    </g>
   </g>
   <g id="text_28">
    <g clip-path="url(#pb7059b08f7)">
     <!-- 27 -->
     <g transform="translate(82.021732 185.102902) scale(0.1 -0.1)">
      <use xlink:href="#DejaVuSans-32"/>
      <use xlink:href="#DejaVuSans-37" x="63.623047"/>
     </g>
    </g>
   </g>
   <g id="text_29">
    <g clip-path="url(#pb7059b08f7)">
     <!-- 28 -->
     <g transform="translate(94.225354 168.489958) scale(0.1 -0.1)">
      <use xlink:href="#DejaVuSans-32"/>
      <use xlink:href="#DejaVuSans-38" x="63.623047"/>
     </g>
    </g>
   </g>
   <g id="text_30">
    <g clip-path="url(#pb7059b08f7)">
     <!-- 29 -->
     <g transform="translate(79.263175 92.866486) scale(0.1 -0.1)">
      <use xlink:href="#DejaVuSans-32"/>
      <use xlink:href="#DejaVuSans-39" x="63.623047"/>
     </g>
    </g>
   </g>
   <g id="text_31">
    <g clip-path="url(#pb7059b08f7)">
     <!-- 30 -->
     <g transform="translate(126.977407 211.896939) scale(0.1 -0.1)">
      <use xlink:href="#DejaVuSans-33"/>
      <use xlink:href="#DejaVuSans-30" x="63.623047"/>
     </g>
    </g>
   </g>
   <g id="text_32">
    <g clip-path="url(#pb7059b08f7)">
     <!-- 31 -->
     <g transform="translate(97.081544 222.170097) scale(0.1 -0.1)">
      <use xlink:href="#DejaVuSans-33"/>
      <use xlink:href="#DejaVuSans-31" x="63.623047"/>
     </g>
    </g>
   </g>
   <g id="text_33">
    <g clip-path="url(#pb7059b08f7)">
     <!-- 32 -->
     <g transform="translate(156.11218 224.477874) scale(0.1 -0.1)">
      <use xlink:href="#DejaVuSans-33"/>
      <use xlink:href="#DejaVuSans-32" x="63.623047"/>
     </g>
    </g>
   </g>
   <g id="text_34">
    <g clip-path="url(#pb7059b08f7)">
     <!-- 33 -->
     <g transform="translate(159.872208 265.455488) scale(0.1 -0.1)">
      <use xlink:href="#DejaVuSans-33"/>
      <use xlink:href="#DejaVuSans-33" x="63.623047"/>
     </g>
    </g>
   </g>
   <g id="text_35">
    <g clip-path="url(#pb7059b08f7)">
     <!-- 34 -->
     <g transform="translate(281.18884 82.875475) scale(0.1 -0.1)">
      <use xlink:href="#DejaVuSans-33"/>
      <use xlink:href="#DejaVuSans-34" x="63.623047"/>
     </g>
    </g>
   </g>
   <g id="text_36">
    <g clip-path="url(#pb7059b08f7)">
     <!-- 35 -->
     <g transform="translate(202.825746 32.749458) scale(0.1 -0.1)">
      <use xlink:href="#DejaVuSans-33"/>
      <use xlink:href="#DejaVuSans-35" x="63.623047"/>
     </g>
    </g>
   </g>
   <g id="text_37">
    <g clip-path="url(#pb7059b08f7)">
     <!-- 36 -->
     <g transform="translate(266.513417 70.538702) scale(0.1 -0.1)">
      <use xlink:href="#DejaVuSans-33"/>
      <use xlink:href="#DejaVuSans-36" x="63.623047"/>
     </g>
    </g>
   </g>
   <g id="text_38">
    <g clip-path="url(#pb7059b08f7)">
     <!-- 37 -->
     <g transform="translate(249.022813 179.673288) scale(0.1 -0.1)">
      <use xlink:href="#DejaVuSans-33"/>
      <use xlink:href="#DejaVuSans-37" x="63.623047"/>
     </g>
    </g>
   </g>
   <g id="text_39">
    <g clip-path="url(#pb7059b08f7)">
     <!-- 38 -->
     <g transform="translate(280.406638 217.901821) scale(0.1 -0.1)">
      <use xlink:href="#DejaVuSans-33"/>
      <use xlink:href="#DejaVuSans-38" x="63.623047"/>
     </g>
    </g>
   </g>
   <g id="text_40">
    <g clip-path="url(#pb7059b08f7)">
     <!-- 39 -->
     <g transform="translate(218.225987 193.913999) scale(0.1 -0.1)">
      <use xlink:href="#DejaVuSans-33"/>
      <use xlink:href="#DejaVuSans-39" x="63.623047"/>
     </g>
    </g>
   </g>
   <g id="text_41">
    <g clip-path="url(#pb7059b08f7)">
     <!-- 40 -->
     <g transform="translate(215.789431 45.607323) scale(0.1 -0.1)">
      <use xlink:href="#DejaVuSans-34"/>
      <use xlink:href="#DejaVuSans-30" x="63.623047"/>
     </g>
    </g>
   </g>
   <g id="text_42">
    <g clip-path="url(#pb7059b08f7)">
     <!-- 41 -->
     <g transform="translate(190.324106 42.034576) scale(0.1 -0.1)">
      <use xlink:href="#DejaVuSans-34"/>
      <use xlink:href="#DejaVuSans-31" x="63.623047"/>
     </g>
    </g>
   </g>
   <g id="text_43">
    <g clip-path="url(#pb7059b08f7)">
     <!-- 42 -->
     <g transform="translate(197.780731 85.958897) scale(0.1 -0.1)">
      <use xlink:href="#DejaVuSans-34"/>
      <use xlink:href="#DejaVuSans-32" x="63.623047"/>
     </g>
    </g>
   </g>
   <g id="text_44">
    <g clip-path="url(#pb7059b08f7)">
     <!-- 43 -->
     <g transform="translate(175.508932 46.795371) scale(0.1 -0.1)">
      <use xlink:href="#DejaVuSans-34"/>
      <use xlink:href="#DejaVuSans-33" x="63.623047"/>
     </g>
    </g>
   </g>
   <g id="text_45">
    <g clip-path="url(#pb7059b08f7)">
     <!-- 44 -->
     <g transform="translate(124.707044 253.361908) scale(0.1 -0.1)">
      <use xlink:href="#DejaVuSans-34"/>
      <use xlink:href="#DejaVuSans-34" x="63.623047"/>
     </g>
    </g>
   </g>
   <g id="text_46">
    <g clip-path="url(#pb7059b08f7)">
     <!-- 45 -->
     <g transform="translate(50.072255 148.618101) scale(0.1 -0.1)">
      <use xlink:href="#DejaVuSans-34"/>
      <use xlink:href="#DejaVuSans-35" x="63.623047"/>
     </g>
    </g>
   </g>
   <g id="text_47">
    <g clip-path="url(#pb7059b08f7)">
     <!-- 46 -->
     <g transform="translate(61.812442 95.761055) scale(0.1 -0.1)">
      <use xlink:href="#DejaVuSans-34"/>
      <use xlink:href="#DejaVuSans-36" x="63.623047"/>
     </g>
    </g>
   </g>
   <g id="text_48">
    <g clip-path="url(#pb7059b08f7)">
     <!-- 47 -->
     <g transform="translate(170.720568 318.369292) scale(0.1 -0.1)">
      <use xlink:href="#DejaVuSans-34"/>
      <use xlink:href="#DejaVuSans-37" x="63.623047"/>
     </g>
    </g>
   </g>
   <g id="text_49">
    <g clip-path="url(#pb7059b08f7)">
     <!-- 48 -->
     <g transform="translate(216.194658 182.445984) scale(0.1 -0.1)">
      <use xlink:href="#DejaVuSans-34"/>
      <use xlink:href="#DejaVuSans-38" x="63.623047"/>
     </g>
    </g>
   </g>
   <g id="text_50">
    <g clip-path="url(#pb7059b08f7)">
     <!-- 49 -->
     <g transform="translate(88.523777 203.720137) scale(0.1 -0.1)">
      <use xlink:href="#DejaVuSans-34"/>
      <use xlink:href="#DejaVuSans-39" x="63.623047"/>
     </g>
    </g>
   </g>
   <g id="text_51">
    <g clip-path="url(#pb7059b08f7)">
     <!-- 50 -->
     <g transform="translate(152.924104 133.120723) scale(0.1 -0.1)">
      <use xlink:href="#DejaVuSans-35"/>
      <use xlink:href="#DejaVuSans-30" x="63.623047"/>
     </g>
    </g>
   </g>
   <g id="text_52">
    <g clip-path="url(#pb7059b08f7)">
     <!-- 51 -->
     <g transform="translate(47.715892 108.555929) scale(0.1 -0.1)">
      <use xlink:href="#DejaVuSans-35"/>
      <use xlink:href="#DejaVuSans-31" x="63.623047"/>
     </g>
    </g>
   </g>
   <g id="text_53">
    <g clip-path="url(#pb7059b08f7)">
     <!-- 52 -->
     <g transform="translate(183.889873 230.863776) scale(0.1 -0.1)">
      <use xlink:href="#DejaVuSans-35"/>
      <use xlink:href="#DejaVuSans-32" x="63.623047"/>
     </g>
    </g>
   </g>
   <g id="text_54">
    <g clip-path="url(#pb7059b08f7)">
     <!-- 53 -->
     <g transform="translate(232.977206 233.242611) scale(0.1 -0.1)">
      <use xlink:href="#DejaVuSans-35"/>
      <use xlink:href="#DejaVuSans-33" x="63.623047"/>
     </g>
    </g>
   </g>
  </g>
 </g>
 <defs>
  <clipPath id="pb7059b08f7">
   <rect x="0" y="0" width="460.8" height="345.6"/>
  </clipPath>
 </defs>
</svg>
