<?xml version="1.0" encoding="utf-8" standalone="no"?>
<!DOCTYPE svg PUBLIC "-//W3C//DTD SVG 1.1//EN"
  "http://www.w3.org/Graphics/SVG/1.1/DTD/svg11.dtd">
<svg xmlns:xlink="http://www.w3.org/1999/xlink" width="460.8pt" height="345.6pt" viewBox="0 0 460.8 345.6" xmlns="http://www.w3.org/2000/svg" version="1.1">
 <metadata>
  <rdf:RDF xmlns:dc="http://purl.org/dc/elements/1.1/" xmlns:cc="http://creativecommons.org/ns#" xmlns:rdf="http://www.w3.org/1999/02/22-rdf-syntax-ns#">
   <cc:Work>
    <dc:type rdf:resource="http://purl.org/dc/dcmitype/StillImage"/>
    <dc:date>2023-10-10T10:56:24.089236</dc:date>
    <dc:format>image/svg+xml</dc:format>
    <dc:creator>
     <cc:Agent>
      <dc:title>Matplotlib v3.6.1, https://matplotlib.org/</dc:title>
     </cc:Agent>
    </dc:creator>
   </cc:Work>
  </rdf:RDF>
 </metadata>
 <defs>
  <style type="text/css">*{stroke-linejoin: round; stroke-linecap: butt}</style>
 </defs>
 <g id="figure_1">
  <g id="patch_1">
   <path d="M 0 345.6 
L 460.8 345.6 
L 460.8 0 
L 0 0 
z
" style="fill: #ffffff"/>
  </g>
  <g id="axes_1">
   <g id="patch_2">
    <path d="M 257.826496 30.330749 
Q 187.253107 42.940037 117.780323 55.352681 
" clip-path="url(#p59e3310906)" style="fill: none; stroke: #000000; stroke-linecap: round"/>
    <path d="M 122.069735 56.617967 
L 117.780323 55.352681 
L 121.366199 52.680323 
L 122.069735 56.617967 
z
" clip-path="url(#p59e3310906)" style="stroke: #000000; stroke-linecap: round"/>
   </g>
   <g id="patch_3">
    <path d="M 261.077647 31.38815 
Q 340.273939 113.741992 418.695262 195.289966 
" clip-path="url(#p59e3310906)" style="fill: none; stroke: #000000; stroke-linecap: round"/>
    <path d="M 417.364226 191.0205 
L 418.695262 195.289966 
L 414.481067 193.793115 
L 417.364226 191.0205 
z
" clip-path="url(#p59e3310906)" style="stroke: #000000; stroke-linecap: round"/>
   </g>
   <g id="patch_4">
    <path d="M 258.513299 31.491075 
Q 164.78694 146.815683 71.765718 261.272661 
" clip-path="url(#p59e3310906)" style="fill: none; stroke: #000000; stroke-linecap: round"/>
    <path d="M 75.840558 259.429925 
L 71.765718 261.272661 
L 72.736433 256.907147 
L 75.840558 259.429925 
z
" clip-path="url(#p59e3310906)" style="stroke: #000000; stroke-linecap: round"/>
   </g>
   <g id="patch_5">
    <path d="M 260.334524 31.833306 
Q 303.232275 163.322973 345.783262 293.749741 
" clip-path="url(#p59e3310906)" style="fill: none; stroke: #000000; stroke-linecap: round"/>
    <path d="M 346.444011 289.326686 
L 345.783262 293.749741 
L 342.641268 290.567309 
L 346.444011 289.326686 
z
" clip-path="url(#p59e3310906)" style="stroke: #000000; stroke-linecap: round"/>
   </g>
   <g id="patch_6">
    <path d="M 259.343042 31.885905 
Q 230.344831 172.797633 201.571979 312.614275 
" clip-path="url(#p59e3310906)" style="fill: none; stroke: #000000; stroke-linecap: round"/>
    <path d="M 204.337193 309.099507 
L 201.571979 312.614275 
L 200.419293 308.293243 
L 204.337193 309.099507 
z
" clip-path="url(#p59e3310906)" style="stroke: #000000; stroke-linecap: round"/>
   </g>
   <g id="patch_7">
    <path d="M 258.039885 30.935878 
Q 149.86011 91.359938 42.656428 151.2388 
" clip-path="url(#p59e3310906)" style="fill: none; stroke: #000000; stroke-linecap: round"/>
    <path d="M 47.123887 151.034325 
L 42.656428 151.2388 
L 45.173324 147.542147 
L 47.123887 151.034325 
z
" clip-path="url(#p59e3310906)" style="stroke: #000000; stroke-linecap: round"/>
   </g>
   <g id="patch_8">
    <path d="M 261.480371 30.815889 
Q 322.369088 59.594851 382.24699 87.896053 
" clip-path="url(#p59e3310906)" style="fill: none; stroke: #000000; stroke-linecap: round"/>
    <path d="M 379.485234 84.378568 
L 382.24699 87.896053 
L 377.775948 87.994967 
L 379.485234 84.378568 
z
" clip-path="url(#p59e3310906)" style="stroke: #000000; stroke-linecap: round"/>
   </g>
   <g id="patch_9">
    <path d="M 259.342943 31.883413 
Q 244.759833 102.636407 230.40242 172.294384 
" clip-path="url(#p59e3310906)" style="fill: none; stroke: #000000; stroke-linecap: round"/>
    <path d="M 233.168723 168.780474 
L 230.40242 172.294384 
L 229.251073 167.972995 
L 233.168723 168.780474 
z
" clip-path="url(#p59e3310906)" style="stroke: #000000; stroke-linecap: round"/>
   </g>
   <g id="patch_10">
    <path d="M 116.678603 55.549524 
Q 187.251992 42.940236 256.724776 30.527592 
" clip-path="url(#p59e3310906)" style="fill: none; stroke: #000000; stroke-linecap: round"/>
    <path d="M 252.435365 29.262306 
L 256.724776 30.527592 
L 253.1389 33.199949 
L 252.435365 29.262306 
z
" clip-path="url(#p59e3310906)" style="stroke: #000000; stroke-linecap: round"/>
   </g>
   <g id="patch_11">
    <path d="M 116.530104 56.703685 
Q 267.792977 126.691469 418.041166 196.209768 
" clip-path="url(#p59e3310906)" style="fill: none; stroke: #000000; stroke-linecap: round"/>
    <path d="M 415.250759 192.714968 
L 418.041166 196.209768 
L 413.571082 196.345213 
L 415.250759 192.714968 
z
" clip-path="url(#p59e3310906)" style="stroke: #000000; stroke-linecap: round"/>
   </g>
   <g id="patch_12">
    <path d="M 114.362582 57.782739 
Q 92.304641 159.767197 70.483051 260.658888 
" clip-path="url(#p59e3310906)" style="fill: none; stroke: #000000; stroke-linecap: round"/>
    <path d="M 73.283447 257.172087 
L 70.483051 260.658888 
L 69.373848 256.32649 
L 73.283447 257.172087 
z
" clip-path="url(#p59e3310906)" style="stroke: #000000; stroke-linecap: round"/>
   </g>
   <g id="patch_13">
    <path d="M 116.115118 57.284368 
Q 230.751253 176.271081 344.611674 294.452643 
" clip-path="url(#p59e3310906)" style="fill: none; stroke: #000000; stroke-linecap: round"/>
    <path d="M 343.2767 290.184407 
L 344.611674 294.452643 
L 340.3961 292.959681 
L 343.2767 290.184407 
z
" clip-path="url(#p59e3310906)" style="stroke: #000000; stroke-linecap: round"/>
   </g>
   <g id="patch_14">
    <path d="M 115.380788 57.725063 
Q 157.863251 185.748665 199.993593 312.711131 
" clip-path="url(#p59e3310906)" style="fill: none; stroke: #000000; stroke-linecap: round"/>
    <path d="M 200.632028 308.2848 
L 199.993593 312.711131 
L 196.83559 309.544584 
L 200.632028 308.2848 
z
" clip-path="url(#p59e3310906)" style="stroke: #000000; stroke-linecap: round"/>
   </g>
   <g id="patch_15">
    <path d="M 113.587423 57.423999 
Q 77.378951 104.310578 41.853837 150.312272 
" clip-path="url(#p59e3310906)" style="fill: none; stroke: #000000; stroke-linecap: round"/>
    <path d="M 45.881624 148.368839 
L 41.853837 150.312272 
L 42.715764 145.923982 
L 45.881624 148.368839 
z
" clip-path="url(#p59e3310906)" style="stroke: #000000; stroke-linecap: round"/>
   </g>
   <g id="patch_16">
    <path d="M 116.6976 56.127568 
Q 249.894117 72.546614 381.981 88.828877 
" clip-path="url(#p59e3310906)" style="fill: none; stroke: #000000; stroke-linecap: round"/>
    <path d="M 378.255735 86.354528 
L 381.981 88.828877 
L 377.766362 90.324479 
L 378.255735 86.354528 
z
" clip-path="url(#p59e3310906)" style="stroke: #000000; stroke-linecap: round"/>
   </g>
   <g id="patch_17">
    <path d="M 116.114475 57.283875 
Q 172.2782 115.586385 227.666262 173.083694 
" clip-path="url(#p59e3310906)" style="fill: none; stroke: #000000; stroke-linecap: round"/>
    <path d="M 226.331555 168.815374 
L 227.666262 173.083694 
L 223.450782 171.590468 
L 226.331555 168.815374 
z
" clip-path="url(#p59e3310906)" style="stroke: #000000; stroke-linecap: round"/>
   </g>
   <g id="patch_18">
    <path d="M 419.468759 196.094303 
Q 340.272467 113.740461 261.851144 32.192487 
" clip-path="url(#p59e3310906)" style="fill: none; stroke: #000000; stroke-linecap: round"/>
    <path d="M 263.182179 36.461953 
L 261.851144 32.192487 
L 266.065338 33.689338 
L 263.182179 36.461953 
z
" clip-path="url(#p59e3310906)" style="stroke: #000000; stroke-linecap: round"/>
   </g>
   <g id="patch_19">
    <path d="M 419.055036 196.678875 
Q 267.792163 126.691092 117.543974 57.172793 
" clip-path="url(#p59e3310906)" style="fill: none; stroke: #000000; stroke-linecap: round"/>
    <path d="M 120.334381 60.667593 
L 117.543974 57.172793 
L 122.014058 57.037347 
L 120.334381 60.667593 
z
" clip-path="url(#p59e3310906)" style="stroke: #000000; stroke-linecap: round"/>
   </g>
   <g id="patch_20">
    <path d="M 418.909353 197.85122 
Q 245.325283 230.56906 72.839901 263.079815 
" clip-path="url(#p59e3310906)" style="fill: none; stroke: #000000; stroke-linecap: round"/>
    <path d="M 77.141133 264.304317 
L 72.839901 263.079815 
L 76.400242 260.373531 
L 77.141133 264.304317 
z
" clip-path="url(#p59e3310906)" style="stroke: #000000; stroke-linecap: round"/>
   </g>
   <g id="patch_21">
    <path d="M 419.65341 199.044753 
Q 383.771359 247.072024 348.558475 294.20363 
" clip-path="url(#p59e3310906)" style="fill: none; stroke: #000000; stroke-linecap: round"/>
    <path d="M 352.554775 292.196246 
L 348.558475 294.20363 
L 349.350348 289.80216 
L 352.554775 292.196246 
z
" clip-path="url(#p59e3310906)" style="stroke: #000000; stroke-linecap: round"/>
   </g>
   <g id="patch_22">
    <path d="M 419.105649 198.409757 
Q 310.884391 256.55113 203.648029 314.163372 
" clip-path="url(#p59e3310906)" style="fill: none; stroke: #000000; stroke-linecap: round"/>
    <path d="M 208.118239 314.032131 
L 203.648029 314.163372 
L 206.225162 310.50846 
L 208.118239 314.032131 
z
" clip-path="url(#p59e3310906)" style="stroke: #000000; stroke-linecap: round"/>
   </g>
   <g id="patch_23">
    <path d="M 418.892704 197.266632 
Q 230.400939 175.111265 43.019564 153.086414 
" clip-path="url(#p59e3310906)" style="fill: none; stroke: #000000; stroke-linecap: round"/>
    <path d="M 46.758742 155.539686 
L 43.019564 153.086414 
L 47.225689 151.567035 
L 46.758742 155.539686 
z
" clip-path="url(#p59e3310906)" style="stroke: #000000; stroke-linecap: round"/>
   </g>
   <g id="patch_24">
    <path d="M 420.204643 195.651625 
Q 402.911127 143.344713 385.968568 92.099323 
" clip-path="url(#p59e3310906)" style="fill: none; stroke: #000000; stroke-linecap: round"/>
    <path d="M 385.32528 96.52495 
L 385.968568 92.099323 
L 389.123097 95.26933 
L 385.32528 96.52495 
z
" clip-path="url(#p59e3310906)" style="stroke: #000000; stroke-linecap: round"/>
   </g>
   <g id="patch_25">
    <path d="M 418.892342 197.269057 
Q 325.301574 186.388562 232.82136 175.637177 
" clip-path="url(#p59e3310906)" style="fill: none; stroke: #000000; stroke-linecap: round"/>
    <path d="M 236.563643 178.08571 
L 232.82136 175.637177 
L 237.025556 174.11247 
L 236.563643 178.08571 
z
" clip-path="url(#p59e3310906)" style="stroke: #000000; stroke-linecap: round"/>
   </g>
   <g id="patch_26">
    <path d="M 71.056901 262.144818 
Q 164.78326 146.82021 257.804482 32.363232 
" clip-path="url(#p59e3310906)" style="fill: none; stroke: #000000; stroke-linecap: round"/>
    <path d="M 253.729642 34.205968 
L 257.804482 32.363232 
L 256.833767 36.728746 
L 253.729642 34.205968 
z
" clip-path="url(#p59e3310906)" style="stroke: #000000; stroke-linecap: round"/>
   </g>
   <g id="patch_27">
    <path d="M 70.246352 261.753261 
Q 92.304293 159.768804 114.125883 58.877113 
" clip-path="url(#p59e3310906)" style="fill: none; stroke: #000000; stroke-linecap: round"/>
    <path d="M 111.325487 62.363914 
L 114.125883 58.877113 
L 115.235086 63.20951 
L 111.325487 62.363914 
z
" clip-path="url(#p59e3310906)" style="stroke: #000000; stroke-linecap: round"/>
   </g>
   <g id="patch_28">
    <path d="M 71.740887 263.286961 
Q 245.324958 230.569121 417.810339 198.058366 
" clip-path="url(#p59e3310906)" style="fill: none; stroke: #000000; stroke-linecap: round"/>
    <path d="M 413.509108 196.833864 
L 417.810339 198.058366 
L 414.249999 200.76465 
L 413.509108 196.833864 
z
" clip-path="url(#p59e3310906)" style="stroke: #000000; stroke-linecap: round"/>
   </g>
   <g id="patch_29">
    <path d="M 71.759415 263.874959 
Q 208.281715 280.148302 343.69384 296.289314 
" clip-path="url(#p59e3310906)" style="fill: none; stroke: #000000; stroke-linecap: round"/>
    <path d="M 339.95868 293.829928 
L 343.69384 296.289314 
L 339.485235 297.80181 
L 339.95868 293.829928 
z
" clip-path="url(#p59e3310906)" style="stroke: #000000; stroke-linecap: round"/>
   </g>
   <g id="patch_30">
    <path d="M 71.633654 264.357843 
Q 135.392784 289.626486 198.11253 314.483206 
" clip-path="url(#p59e3310906)" style="fill: none; stroke: #000000; stroke-linecap: round"/>
    <path d="M 195.130786 311.150159 
L 198.11253 314.483206 
L 193.657046 314.868774 
L 195.130786 311.150159 
z
" clip-path="url(#p59e3310906)" style="stroke: #000000; stroke-linecap: round"/>
   </g>
   <g id="patch_31">
    <path d="M 69.333258 261.77397 
Q 54.911229 208.185391 40.779752 155.676433 
" clip-path="url(#p59e3310906)" style="fill: none; stroke: #000000; stroke-linecap: round"/>
    <path d="M 39.887982 160.058755 
L 40.779752 155.676433 
L 43.750548 159.019241 
L 39.887982 160.058755 
z
" clip-path="url(#p59e3310906)" style="stroke: #000000; stroke-linecap: round"/>
   </g>
   <g id="patch_32">
    <path d="M 71.53225 262.707527 
Q 227.423676 176.424207 382.336906 90.682303 
" clip-path="url(#p59e3310906)" style="fill: none; stroke: #000000; stroke-linecap: round"/>
    <path d="M 377.868689 90.869479 
L 382.336906 90.682303 
L 379.805717 94.369183 
L 377.868689 90.869479 
z
" clip-path="url(#p59e3310906)" style="stroke: #000000; stroke-linecap: round"/>
   </g>
   <g id="patch_33">
    <path d="M 71.533255 262.708749 
Q 149.813337 219.464097 227.114787 176.760074 
" clip-path="url(#p59e3310906)" style="fill: none; stroke: #000000; stroke-linecap: round"/>
    <path d="M 222.646421 176.943662 
L 227.114787 176.760074 
L 224.580638 180.44492 
L 222.646421 176.943662 
z
" clip-path="url(#p59e3310906)" style="stroke: #000000; stroke-linecap: round"/>
   </g>
   <g id="patch_34">
    <path d="M 346.128507 294.807981 
Q 303.230755 163.318314 260.679768 32.891546 
" clip-path="url(#p59e3310906)" style="fill: none; stroke: #000000; stroke-linecap: round"/>
    <path d="M 260.01902 37.3146 
L 260.679768 32.891546 
L 263.821763 36.073977 
L 260.01902 37.3146 
z
" clip-path="url(#p59e3310906)" style="stroke: #000000; stroke-linecap: round"/>
   </g>
   <g id="patch_35">
    <path d="M 345.386647 295.257027 
Q 230.750512 176.270313 116.89009 58.088751 
" clip-path="url(#p59e3310906)" style="fill: none; stroke: #000000; stroke-linecap: round"/>
    <path d="M 118.225065 62.356988 
L 116.89009 58.088751 
L 121.105664 59.581713 
L 118.225065 62.356988 
z
" clip-path="url(#p59e3310906)" style="stroke: #000000; stroke-linecap: round"/>
   </g>
   <g id="patch_36">
    <path d="M 347.889662 295.098821 
Q 383.771713 247.07155 418.984596 199.939944 
" clip-path="url(#p59e3310906)" style="fill: none; stroke: #000000; stroke-linecap: round"/>
    <path d="M 414.988297 201.947328 
L 418.984596 199.939944 
L 418.192724 204.341414 
L 414.988297 201.947328 
z
" clip-path="url(#p59e3310906)" style="stroke: #000000; stroke-linecap: round"/>
   </g>
   <g id="patch_37">
    <path d="M 344.807451 296.422056 
Q 208.285151 280.148712 72.873026 264.0077 
" clip-path="url(#p59e3310906)" style="fill: none; stroke: #000000; stroke-linecap: round"/>
    <path d="M 76.608186 266.467086 
L 72.873026 264.0077 
L 77.081631 262.495204 
L 76.608186 266.467086 
z
" clip-path="url(#p59e3310906)" style="stroke: #000000; stroke-linecap: round"/>
   </g>
   <g id="patch_38">
    <path d="M 344.812467 296.900569 
Q 273.843238 306.130488 203.982705 315.216214 
" clip-path="url(#p59e3310906)" style="fill: none; stroke: #000000; stroke-linecap: round"/>
    <path d="M 208.207238 316.683635 
L 203.982705 315.216214 
L 207.691362 312.717041 
L 208.207238 316.683635 
z
" clip-path="url(#p59e3310906)" style="stroke: #000000; stroke-linecap: round"/>
   </g>
   <g id="patch_39">
    <path d="M 344.97699 295.828778 
Q 193.357958 224.690405 42.751088 154.026931 
" clip-path="url(#p59e3310906)" style="fill: none; stroke: #000000; stroke-linecap: round"/>
    <path d="M 45.522785 157.536588 
L 42.751088 154.026931 
L 47.221832 153.915367 
L 45.522785 157.536588 
z
" clip-path="url(#p59e3310906)" style="stroke: #000000; stroke-linecap: round"/>
   </g>
   <g id="patch_40">
    <path d="M 347.080905 294.748788 
Q 365.870189 192.927466 384.456587 92.205616 
" clip-path="url(#p59e3310906)" style="fill: none; stroke: #000000; stroke-linecap: round"/>
    <path d="M 381.76392 95.776267 
L 384.456587 92.205616 
L 385.697508 96.502139 
L 381.76392 95.776267 
z
" clip-path="url(#p59e3310906)" style="stroke: #000000; stroke-linecap: round"/>
   </g>
   <g id="patch_41">
    <path d="M 345.38618 295.256714 
Q 288.257338 235.967071 231.904259 177.482532 
" clip-path="url(#p59e3310906)" style="fill: none; stroke: #000000; stroke-linecap: round"/>
    <path d="M 233.239496 181.750687 
L 231.904259 177.482532 
L 236.119925 178.975235 
L 233.239496 181.750687 
z
" clip-path="url(#p59e3310906)" style="stroke: #000000; stroke-linecap: round"/>
   </g>
   <g id="patch_42">
    <path d="M 201.345647 313.714095 
Q 230.343857 172.802367 259.11671 32.985725 
" clip-path="url(#p59e3310906)" style="fill: none; stroke: #000000; stroke-linecap: round"/>
    <path d="M 256.351496 36.500493 
L 259.11671 32.985725 
L 260.269395 37.306757 
L 256.351496 36.500493 
z
" clip-path="url(#p59e3310906)" style="stroke: #000000; stroke-linecap: round"/>
   </g>
   <g id="patch_43">
    <path d="M 200.346634 313.775044 
Q 157.864172 185.751442 115.73383 58.788977 
" clip-path="url(#p59e3310906)" style="fill: none; stroke: #000000; stroke-linecap: round"/>
    <path d="M 115.095394 63.215307 
L 115.73383 58.788977 
L 118.891833 61.955524 
L 115.095394 63.215307 
z
" clip-path="url(#p59e3310906)" style="stroke: #000000; stroke-linecap: round"/>
   </g>
   <g id="patch_44">
    <path d="M 202.66308 314.692531 
Q 310.884338 256.551158 418.1207 198.938916 
" clip-path="url(#p59e3310906)" style="fill: none; stroke: #000000; stroke-linecap: round"/>
    <path d="M 413.65049 199.070157 
L 418.1207 198.938916 
L 415.543567 202.593828 
L 413.65049 199.070157 
z
" clip-path="url(#p59e3310906)" style="stroke: #000000; stroke-linecap: round"/>
   </g>
   <g id="patch_45">
    <path d="M 199.158869 314.897885 
Q 135.399739 289.629242 72.679993 264.772522 
" clip-path="url(#p59e3310906)" style="fill: none; stroke: #000000; stroke-linecap: round"/>
    <path d="M 75.661738 268.105568 
L 72.679993 264.772522 
L 77.135477 264.386954 
L 75.661738 268.105568 
z
" clip-path="url(#p59e3310906)" style="stroke: #000000; stroke-linecap: round"/>
   </g>
   <g id="patch_46">
    <path d="M 202.872887 315.360552 
Q 273.842116 306.130634 343.702649 297.044907 
" clip-path="url(#p59e3310906)" style="fill: none; stroke: #000000; stroke-linecap: round"/>
    <path d="M 339.478116 295.577486 
L 343.702649 297.044907 
L 339.993992 299.544081 
L 339.478116 295.577486 
z
" clip-path="url(#p59e3310906)" style="stroke: #000000; stroke-linecap: round"/>
   </g>
   <g id="patch_47">
    <path d="M 199.592322 314.230547 
Q 120.47024 234.169016 42.134048 154.902706 
" clip-path="url(#p59e3310906)" style="fill: none; stroke: #000000; stroke-linecap: round"/>
    <path d="M 43.523199 159.153619 
L 42.134048 154.902706 
L 46.368269 156.341934 
L 43.523199 159.153619 
z
" clip-path="url(#p59e3310906)" style="stroke: #000000; stroke-linecap: round"/>
   </g>
   <g id="patch_48">
    <path d="M 202.177186 314.107121 
Q 292.98441 202.404581 383.08638 91.569578 
" clip-path="url(#p59e3310906)" style="fill: none; stroke: #000000; stroke-linecap: round"/>
    <path d="M 379.011296 93.411774 
L 383.08638 91.569578 
L 382.115086 95.934963 
L 379.011296 93.411774 
z
" clip-path="url(#p59e3310906)" style="stroke: #000000; stroke-linecap: round"/>
   </g>
   <g id="patch_49">
    <path d="M 201.345276 313.712815 
Q 215.370862 245.446967 229.171442 178.276276 
" clip-path="url(#p59e3310906)" style="fill: none; stroke: #000000; stroke-linecap: round"/>
    <path d="M 226.407356 181.791931 
L 229.171442 178.276276 
L 230.325514 182.596938 
L 226.407356 181.791931 
z
" clip-path="url(#p59e3310906)" style="stroke: #000000; stroke-linecap: round"/>
   </g>
   <g id="patch_50">
    <path d="M 41.680074 151.784144 
Q 149.859849 91.360084 257.063531 31.481223 
" clip-path="url(#p59e3310906)" style="fill: none; stroke: #000000; stroke-linecap: round"/>
    <path d="M 252.596072 31.685698 
L 257.063531 31.481223 
L 254.546636 35.177875 
L 252.596072 31.685698 
z
" clip-path="url(#p59e3310906)" style="stroke: #000000; stroke-linecap: round"/>
   </g>
   <g id="patch_51">
    <path d="M 41.17127 151.196131 
Q 77.379743 104.309552 112.904857 58.307858 
" clip-path="url(#p59e3310906)" style="fill: none; stroke: #000000; stroke-linecap: round"/>
    <path d="M 108.877069 60.25129 
L 112.904857 58.307858 
L 112.04293 62.696147 
L 108.877069 60.25129 
z
" clip-path="url(#p59e3310906)" style="stroke: #000000; stroke-linecap: round"/>
   </g>
   <g id="patch_52">
    <path d="M 41.907296 152.955678 
Q 230.399061 175.111045 417.780436 197.135896 
" clip-path="url(#p59e3310906)" style="fill: none; stroke: #000000; stroke-linecap: round"/>
    <path d="M 414.041258 194.682624 
L 417.780436 197.135896 
L 413.574311 198.655275 
L 414.041258 194.682624 
z
" clip-path="url(#p59e3310906)" style="stroke: #000000; stroke-linecap: round"/>
   </g>
   <g id="patch_53">
    <path d="M 40.490536 154.60178 
Q 54.912565 208.190359 69.044042 260.699317 
" clip-path="url(#p59e3310906)" style="fill: none; stroke: #000000; stroke-linecap: round"/>
    <path d="M 69.935812 256.316995 
L 69.044042 260.699317 
L 66.073246 257.356509 
L 69.935812 256.316995 
z
" clip-path="url(#p59e3310906)" style="stroke: #000000; stroke-linecap: round"/>
   </g>
   <g id="patch_54">
    <path d="M 41.739635 153.552366 
Q 193.358667 224.690738 343.965537 295.354213 
" clip-path="url(#p59e3310906)" style="fill: none; stroke: #000000; stroke-linecap: round"/>
    <path d="M 341.19384 291.844556 
L 343.965537 295.354213 
L 339.494793 295.465777 
L 341.19384 291.844556 
z
" clip-path="url(#p59e3310906)" style="stroke: #000000; stroke-linecap: round"/>
   </g>
   <g id="patch_55">
    <path d="M 41.349961 154.109309 
Q 120.472043 234.17084 198.808234 313.43715 
" clip-path="url(#p59e3310906)" style="fill: none; stroke: #000000; stroke-linecap: round"/>
    <path d="M 197.419084 309.186237 
L 198.808234 313.43715 
L 194.574014 311.997923 
L 197.419084 309.186237 
z
" clip-path="url(#p59e3310906)" style="stroke: #000000; stroke-linecap: round"/>
   </g>
   <g id="patch_56">
    <path d="M 41.889947 152.379518 
Q 212.498794 120.966145 382.008089 89.755228 
" clip-path="url(#p59e3310906)" style="fill: none; stroke: #000000; stroke-linecap: round"/>
    <path d="M 377.712054 88.512616 
L 382.008089 89.755228 
L 378.436379 92.446489 
L 377.712054 88.512616 
z
" clip-path="url(#p59e3310906)" style="stroke: #000000; stroke-linecap: round"/>
   </g>
   <g id="patch_57">
    <path d="M 41.906897 152.958113 
Q 134.884712 164.006919 226.752304 174.923795 
" clip-path="url(#p59e3310906)" style="fill: none; stroke: #000000; stroke-linecap: round"/>
    <path d="M 223.016256 172.465759 
L 226.752304 174.923795 
L 222.544246 176.437812 
L 223.016256 172.465759 
z
" clip-path="url(#p59e3310906)" style="stroke: #000000; stroke-linecap: round"/>
   </g>
   <g id="patch_58">
    <path d="M 383.263596 88.37655 
Q 322.374879 59.597588 262.496977 31.296386 
" clip-path="url(#p59e3310906)" style="fill: none; stroke: #000000; stroke-linecap: round"/>
    <path d="M 265.258733 34.813871 
L 262.496977 31.296386 
L 266.968019 31.197472 
L 265.258733 34.813871 
z
" clip-path="url(#p59e3310906)" style="stroke: #000000; stroke-linecap: round"/>
   </g>
   <g id="patch_59">
    <path d="M 383.085101 88.964979 
Q 249.888583 72.545932 117.801701 56.26367 
" clip-path="url(#p59e3310906)" style="fill: none; stroke: #000000; stroke-linecap: round"/>
    <path d="M 121.526966 58.738019 
L 117.801701 56.26367 
L 122.016339 54.768067 
L 121.526966 58.738019 
z
" clip-path="url(#p59e3310906)" style="stroke: #000000; stroke-linecap: round"/>
   </g>
   <g id="patch_60">
    <path d="M 385.619364 91.043101 
Q 402.91288 143.350014 419.855439 194.595404 
" clip-path="url(#p59e3310906)" style="fill: none; stroke: #000000; stroke-linecap: round"/>
    <path d="M 420.498727 190.169776 
L 419.855439 194.595404 
L 416.70091 191.425397 
L 420.498727 190.169776 
z
" clip-path="url(#p59e3310906)" style="stroke: #000000; stroke-linecap: round"/>
   </g>
   <g id="patch_61">
    <path d="M 383.315551 90.140639 
Q 227.424125 176.423959 72.510895 262.165864 
" clip-path="url(#p59e3310906)" style="fill: none; stroke: #000000; stroke-linecap: round"/>
    <path d="M 76.979112 261.978687 
L 72.510895 262.165864 
L 75.042084 258.478984 
L 76.979112 261.978687 
z
" clip-path="url(#p59e3310906)" style="stroke: #000000; stroke-linecap: round"/>
   </g>
   <g id="patch_62">
    <path d="M 384.659727 91.104773 
Q 365.870443 192.926094 347.284045 293.647944 
" clip-path="url(#p59e3310906)" style="fill: none; stroke: #000000; stroke-linecap: round"/>
    <path d="M 349.976711 290.077293 
L 347.284045 293.647944 
L 346.043124 289.351421 
L 349.976711 290.077293 
z
" clip-path="url(#p59e3310906)" style="stroke: #000000; stroke-linecap: round"/>
   </g>
   <g id="patch_63">
    <path d="M 383.789103 90.705153 
Q 292.98188 202.407692 202.87991 313.242696 
" clip-path="url(#p59e3310906)" style="fill: none; stroke: #000000; stroke-linecap: round"/>
    <path d="M 206.954994 311.4005 
L 202.87991 313.242696 
L 203.851203 308.877311 
L 206.954994 311.4005 
z
" clip-path="url(#p59e3310906)" style="stroke: #000000; stroke-linecap: round"/>
   </g>
   <g id="patch_64">
    <path d="M 383.107613 89.552778 
Q 212.498767 120.96615 42.989471 152.177068 
" clip-path="url(#p59e3310906)" style="fill: none; stroke: #000000; stroke-linecap: round"/>
    <path d="M 47.285506 153.41968 
L 42.989471 152.177068 
L 46.561182 149.485807 
L 47.285506 153.41968 
z
" clip-path="url(#p59e3310906)" style="stroke: #000000; stroke-linecap: round"/>
   </g>
   <g id="patch_65">
    <path d="M 383.317278 90.141513 
Q 307.398603 132.243263 232.457676 173.802788 
" clip-path="url(#p59e3310906)" style="fill: none; stroke: #000000; stroke-linecap: round"/>
    <path d="M 236.925737 173.611918 
L 232.457676 173.802788 
L 234.985817 170.113817 
L 236.925737 173.611918 
z
" clip-path="url(#p59e3310906)" style="stroke: #000000; stroke-linecap: round"/>
   </g>
   <g id="patch_66">
    <path d="M 230.176396 173.390986 
Q 244.759506 102.637992 259.116919 32.980015 
" clip-path="url(#p59e3310906)" style="fill: none; stroke: #000000; stroke-linecap: round"/>
    <path d="M 256.350616 36.493925 
L 259.116919 32.980015 
L 260.268265 37.301403 
L 256.350616 36.493925 
z
" clip-path="url(#p59e3310906)" style="stroke: #000000; stroke-linecap: round"/>
   </g>
   <g id="patch_67">
    <path d="M 228.443598 173.890632 
Q 172.279873 115.588122 116.891811 58.090812 
" clip-path="url(#p59e3310906)" style="fill: none; stroke: #000000; stroke-linecap: round"/>
    <path d="M 118.226518 62.359132 
L 116.891811 58.090812 
L 121.107291 59.584038 
L 118.226518 62.359132 
z
" clip-path="url(#p59e3310906)" style="stroke: #000000; stroke-linecap: round"/>
   </g>
   <g id="patch_68">
    <path d="M 231.707037 175.50763 
Q 325.297805 186.388124 417.778019 197.13951 
" clip-path="url(#p59e3310906)" style="fill: none; stroke: #000000; stroke-linecap: round"/>
    <path d="M 414.035736 194.690976 
L 417.778019 197.13951 
L 413.573823 198.664216 
L 414.035736 194.690976 
z
" clip-path="url(#p59e3310906)" style="stroke: #000000; stroke-linecap: round"/>
   </g>
   <g id="patch_69">
    <path d="M 228.089918 176.221377 
Q 149.809837 219.46603 72.508387 262.170053 
" clip-path="url(#p59e3310906)" style="fill: none; stroke: #000000; stroke-linecap: round"/>
    <path d="M 76.976753 261.986464 
L 72.508387 262.170053 
L 75.042536 258.485207 
L 76.976753 261.986464 
z
" clip-path="url(#p59e3310906)" style="stroke: #000000; stroke-linecap: round"/>
   </g>
   <g id="patch_70">
    <path d="M 231.129824 176.678806 
Q 288.258666 235.968449 344.611745 294.452988 
" clip-path="url(#p59e3310906)" style="fill: none; stroke: #000000; stroke-linecap: round"/>
    <path d="M 343.276508 290.184833 
L 344.611745 294.452988 
L 340.396079 292.960285 
L 343.276508 290.184833 
z
" clip-path="url(#p59e3310906)" style="stroke: #000000; stroke-linecap: round"/>
   </g>
   <g id="patch_71">
    <path d="M 229.396386 177.181418 
Q 215.3708 245.447267 201.57022 312.617957 
" clip-path="url(#p59e3310906)" style="fill: none; stroke: #000000; stroke-linecap: round"/>
    <path d="M 204.334306 309.102302 
L 201.57022 312.617957 
L 200.416148 308.297296 
L 204.334306 309.102302 
z
" clip-path="url(#p59e3310906)" style="stroke: #000000; stroke-linecap: round"/>
   </g>
   <g id="patch_72">
    <path d="M 227.866036 175.056143 
Q 134.888221 164.007336 43.020629 153.09046 
" clip-path="url(#p59e3310906)" style="fill: none; stroke: #000000; stroke-linecap: round"/>
    <path d="M 46.756677 155.548497 
L 43.020629 153.09046 
L 47.228687 151.576444 
L 46.756677 155.548497 
z
" clip-path="url(#p59e3310906)" style="stroke: #000000; stroke-linecap: round"/>
   </g>
   <g id="patch_73">
    <path d="M 231.479662 174.345159 
Q 307.398337 132.24341 382.339264 90.683885 
" clip-path="url(#p59e3310906)" style="fill: none; stroke: #000000; stroke-linecap: round"/>
    <path d="M 377.871203 90.874754 
L 382.339264 90.683885 
L 379.811123 94.372855 
L 377.871203 90.874754 
z
" clip-path="url(#p59e3310906)" style="stroke: #000000; stroke-linecap: round"/>
   </g>
   <g id="PathCollection_1">
    <defs>
     <path id="me532dc84da" d="M 0 1.936492 
C 0.513564 1.936492 1.006162 1.732451 1.369306 1.369306 
C 1.732451 1.006162 1.936492 0.513564 1.936492 0 
C 1.936492 -0.513564 1.732451 -1.006162 1.369306 -1.369306 
C 1.006162 -1.732451 0.513564 -1.936492 0 -1.936492 
C -0.513564 -1.936492 -1.006162 -1.732451 -1.369306 -1.369306 
C -1.732451 -1.006162 -1.936492 -0.513564 -1.936492 0 
C -1.936492 0.513564 -1.732451 1.006162 -1.369306 1.369306 
C -1.006162 1.732451 -0.513564 1.936492 0 1.936492 
z
" style="stroke: #1f78b4"/>
    </defs>
    <g clip-path="url(#p59e3310906)">
     <use xlink:href="#me532dc84da" x="259.733183" y="29.990083" style="fill: #1f78b4; stroke: #1f78b4"/>
     <use xlink:href="#me532dc84da" x="114.771917" y="55.89019" style="fill: #1f78b4; stroke: #1f78b4"/>
     <use xlink:href="#me532dc84da" x="420.813223" y="197.492371" style="fill: #1f78b4; stroke: #1f78b4"/>
     <use xlink:href="#me532dc84da" x="69.837017" y="263.645811" style="fill: #1f78b4; stroke: #1f78b4"/>
     <use xlink:href="#me532dc84da" x="346.729848" y="296.651204" style="fill: #1f78b4; stroke: #1f78b4"/>
     <use xlink:href="#me532dc84da" x="200.955506" y="315.609917" style="fill: #1f78b4; stroke: #1f78b4"/>
     <use xlink:href="#me532dc84da" x="39.986777" y="152.729939" style="fill: #1f78b4; stroke: #1f78b4"/>
     <use xlink:href="#me532dc84da" x="385.010784" y="89.202356" style="fill: #1f78b4; stroke: #1f78b4"/>
     <use xlink:href="#me532dc84da" x="229.786156" y="175.284316" style="fill: #1f78b4; stroke: #1f78b4"/>
    </g>
   </g>
   <g id="text_1">
    <g clip-path="url(#p59e3310906)">
     <!-- 0 -->
     <g transform="translate(256.551933 32.749458) scale(0.1 -0.1)">
      <defs>
       <path id="DejaVuSans-30" d="M 2034 4250 
Q 1547 4250 1301 3770 
Q 1056 3291 1056 2328 
Q 1056 1369 1301 889 
Q 1547 409 2034 409 
Q 2525 409 2770 889 
Q 3016 1369 3016 2328 
Q 3016 3291 2770 3770 
Q 2525 4250 2034 4250 
z
M 2034 4750 
Q 2819 4750 3233 4129 
Q 3647 3509 3647 2328 
Q 3647 1150 3233 529 
Q 2819 -91 2034 -91 
Q 1250 -91 836 529 
Q 422 1150 422 2328 
Q 422 3509 836 4129 
Q 1250 4750 2034 4750 
z
" transform="scale(0.015625)"/>
      </defs>
      <use xlink:href="#DejaVuSans-30"/>
     </g>
    </g>
   </g>
   <g id="text_2">
    <g clip-path="url(#p59e3310906)">
     <!-- 1 -->
     <g transform="translate(111.590667 58.649565) scale(0.1 -0.1)">
      <defs>
       <path id="DejaVuSans-31" d="M 794 531 
L 1825 531 
L 1825 4091 
L 703 3866 
L 703 4441 
L 1819 4666 
L 2450 4666 
L 2450 531 
L 3481 531 
L 3481 0 
L 794 0 
L 794 531 
z
" transform="scale(0.015625)"/>
      </defs>
      <use xlink:href="#DejaVuSans-31"/>
     </g>
    </g>
   </g>
   <g id="text_3">
    <g clip-path="url(#p59e3310906)">
     <!-- 2 -->
     <g transform="translate(417.631973 200.251746) scale(0.1 -0.1)">
      <defs>
       <path id="DejaVuSans-32" d="M 1228 531 
L 3431 531 
L 3431 0 
L 469 0 
L 469 531 
Q 828 903 1448 1529 
Q 2069 2156 2228 2338 
Q 2531 2678 2651 2914 
Q 2772 3150 2772 3378 
Q 2772 3750 2511 3984 
Q 2250 4219 1831 4219 
Q 1534 4219 1204 4116 
Q 875 4013 500 3803 
L 500 4441 
Q 881 4594 1212 4672 
Q 1544 4750 1819 4750 
Q 2544 4750 2975 4387 
Q 3406 4025 3406 3419 
Q 3406 3131 3298 2873 
Q 3191 2616 2906 2266 
Q 2828 2175 2409 1742 
Q 1991 1309 1228 531 
z
" transform="scale(0.015625)"/>
      </defs>
      <use xlink:href="#DejaVuSans-32"/>
     </g>
    </g>
   </g>
   <g id="text_4">
    <g clip-path="url(#p59e3310906)">
     <!-- 3 -->
     <g transform="translate(66.655767 266.405186) scale(0.1 -0.1)">
      <defs>
       <path id="DejaVuSans-33" d="M 2597 2516 
Q 3050 2419 3304 2112 
Q 3559 1806 3559 1356 
Q 3559 666 3084 287 
Q 2609 -91 1734 -91 
Q 1441 -91 1130 -33 
Q 819 25 488 141 
L 488 750 
Q 750 597 1062 519 
Q 1375 441 1716 441 
Q 2309 441 2620 675 
Q 2931 909 2931 1356 
Q 2931 1769 2642 2001 
Q 2353 2234 1838 2234 
L 1294 2234 
L 1294 2753 
L 1863 2753 
Q 2328 2753 2575 2939 
Q 2822 3125 2822 3475 
Q 2822 3834 2567 4026 
Q 2313 4219 1838 4219 
Q 1578 4219 1281 4162 
Q 984 4106 628 3988 
L 628 4550 
Q 988 4650 1302 4700 
Q 1616 4750 1894 4750 
Q 2613 4750 3031 4423 
Q 3450 4097 3450 3541 
Q 3450 3153 3228 2886 
Q 3006 2619 2597 2516 
z
" transform="scale(0.015625)"/>
      </defs>
      <use xlink:href="#DejaVuSans-33"/>
     </g>
    </g>
   </g>
   <g id="text_5">
    <g clip-path="url(#p59e3310906)">
     <!-- 4 -->
     <g transform="translate(343.548598 299.410579) scale(0.1 -0.1)">
      <defs>
       <path id="DejaVuSans-34" d="M 2419 4116 
L 825 1625 
L 2419 1625 
L 2419 4116 
z
M 2253 4666 
L 3047 4666 
L 3047 1625 
L 3713 1625 
L 3713 1100 
L 3047 1100 
L 3047 0 
L 2419 0 
L 2419 1100 
L 313 1100 
L 313 1709 
L 2253 4666 
z
" transform="scale(0.015625)"/>
      </defs>
      <use xlink:href="#DejaVuSans-34"/>
     </g>
    </g>
   </g>
   <g id="text_6">
    <g clip-path="url(#p59e3310906)">
     <!-- 5 -->
     <g transform="translate(197.774256 318.369292) scale(0.1 -0.1)">
      <defs>
       <path id="DejaVuSans-35" d="M 691 4666 
L 3169 4666 
L 3169 4134 
L 1269 4134 
L 1269 2991 
Q 1406 3038 1543 3061 
Q 1681 3084 1819 3084 
Q 2600 3084 3056 2656 
Q 3513 2228 3513 1497 
Q 3513 744 3044 326 
Q 2575 -91 1722 -91 
Q 1428 -91 1123 -41 
Q 819 9 494 109 
L 494 744 
Q 775 591 1075 516 
Q 1375 441 1709 441 
Q 2250 441 2565 725 
Q 2881 1009 2881 1497 
Q 2881 1984 2565 2268 
Q 2250 2553 1709 2553 
Q 1456 2553 1204 2497 
Q 953 2441 691 2322 
L 691 4666 
z
" transform="scale(0.015625)"/>
      </defs>
      <use xlink:href="#DejaVuSans-35"/>
     </g>
    </g>
   </g>
   <g id="text_7">
    <g clip-path="url(#p59e3310906)">
     <!-- 6 -->
     <g transform="translate(36.805527 155.489314) scale(0.1 -0.1)">
      <defs>
       <path id="DejaVuSans-36" d="M 2113 2584 
Q 1688 2584 1439 2293 
Q 1191 2003 1191 1497 
Q 1191 994 1439 701 
Q 1688 409 2113 409 
Q 2538 409 2786 701 
Q 3034 994 3034 1497 
Q 3034 2003 2786 2293 
Q 2538 2584 2113 2584 
z
M 3366 4563 
L 3366 3988 
Q 3128 4100 2886 4159 
Q 2644 4219 2406 4219 
Q 1781 4219 1451 3797 
Q 1122 3375 1075 2522 
Q 1259 2794 1537 2939 
Q 1816 3084 2150 3084 
Q 2853 3084 3261 2657 
Q 3669 2231 3669 1497 
Q 3669 778 3244 343 
Q 2819 -91 2113 -91 
Q 1303 -91 875 529 
Q 447 1150 447 2328 
Q 447 3434 972 4092 
Q 1497 4750 2381 4750 
Q 2619 4750 2861 4703 
Q 3103 4656 3366 4563 
z
" transform="scale(0.015625)"/>
      </defs>
      <use xlink:href="#DejaVuSans-36"/>
     </g>
    </g>
   </g>
   <g id="text_8">
    <g clip-path="url(#p59e3310906)">
     <!-- 7 -->
     <g transform="translate(381.829534 91.961731) scale(0.1 -0.1)">
      <defs>
       <path id="DejaVuSans-37" d="M 525 4666 
L 3525 4666 
L 3525 4397 
L 1831 0 
L 1172 0 
L 2766 4134 
L 525 4134 
L 525 4666 
z
" transform="scale(0.015625)"/>
      </defs>
      <use xlink:href="#DejaVuSans-37"/>
     </g>
    </g>
   </g>
   <g id="text_9">
    <g clip-path="url(#p59e3310906)">
     <!-- 8 -->
     <g transform="translate(226.604906 178.043691) scale(0.1 -0.1)">
      <defs>
       <path id="DejaVuSans-38" d="M 2034 2216 
Q 1584 2216 1326 1975 
Q 1069 1734 1069 1313 
Q 1069 891 1326 650 
Q 1584 409 2034 409 
Q 2484 409 2743 651 
Q 3003 894 3003 1313 
Q 3003 1734 2745 1975 
Q 2488 2216 2034 2216 
z
M 1403 2484 
Q 997 2584 770 2862 
Q 544 3141 544 3541 
Q 544 4100 942 4425 
Q 1341 4750 2034 4750 
Q 2731 4750 3128 4425 
Q 3525 4100 3525 3541 
Q 3525 3141 3298 2862 
Q 3072 2584 2669 2484 
Q 3125 2378 3379 2068 
Q 3634 1759 3634 1313 
Q 3634 634 3220 271 
Q 2806 -91 2034 -91 
Q 1263 -91 848 271 
Q 434 634 434 1313 
Q 434 1759 690 2068 
Q 947 2378 1403 2484 
z
M 1172 3481 
Q 1172 3119 1398 2916 
Q 1625 2713 2034 2713 
Q 2441 2713 2670 2916 
Q 2900 3119 2900 3481 
Q 2900 3844 2670 4047 
Q 2441 4250 2034 4250 
Q 1625 4250 1398 4047 
Q 1172 3844 1172 3481 
z
" transform="scale(0.015625)"/>
      </defs>
      <use xlink:href="#DejaVuSans-38"/>
     </g>
    </g>
   </g>
  </g>
 </g>
 <defs>
  <clipPath id="p59e3310906">
   <rect x="0" y="0" width="460.8" height="345.6"/>
  </clipPath>
 </defs>
</svg>
