<?xml version="1.0" encoding="utf-8" standalone="no"?>
<!DOCTYPE svg PUBLIC "-//W3C//DTD SVG 1.1//EN"
  "http://www.w3.org/Graphics/SVG/1.1/DTD/svg11.dtd">
<svg xmlns:xlink="http://www.w3.org/1999/xlink" width="460.8pt" height="345.6pt" viewBox="0 0 460.8 345.6" xmlns="http://www.w3.org/2000/svg" version="1.1">
 <metadata>
  <rdf:RDF xmlns:dc="http://purl.org/dc/elements/1.1/" xmlns:cc="http://creativecommons.org/ns#" xmlns:rdf="http://www.w3.org/1999/02/22-rdf-syntax-ns#">
   <cc:Work>
    <dc:type rdf:resource="http://purl.org/dc/dcmitype/StillImage"/>
    <dc:date>2023-10-10T10:56:28.305708</dc:date>
    <dc:format>image/svg+xml</dc:format>
    <dc:creator>
     <cc:Agent>
      <dc:title>Matplotlib v3.6.1, https://matplotlib.org/</dc:title>
     </cc:Agent>
    </dc:creator>
   </cc:Work>
  </rdf:RDF>
 </metadata>
 <defs>
  <style type="text/css">*{stroke-linejoin: round; stroke-linecap: butt}</style>
 </defs>
 <g id="figure_1">
  <g id="patch_1">
   <path d="M 0 345.6 
L 460.8 345.6 
L 460.8 0 
L 0 0 
z
" style="fill: #ffffff"/>
  </g>
  <g id="axes_1">
   <g id="patch_2">
    <path d="M 165.967198 170.100519 
Q 143.548525 178.754331 122.172876 187.005527 
" clip-path="url(#paa54a21377)" style="fill: none; stroke: #000000; stroke-linecap: round"/>
    <path d="M 126.624736 187.430899 
L 122.172876 187.005527 
L 125.18429 183.699262 
L 126.624736 187.430899 
z
" clip-path="url(#paa54a21377)" style="stroke: #000000; stroke-linecap: round"/>
   </g>
   <g id="patch_3">
    <path d="M 76.457243 82.1415 
Q 103.695522 75.543334 129.847194 69.208387 
" clip-path="url(#paa54a21377)" style="fill: none; stroke: #000000; stroke-linecap: round"/>
    <path d="M 125.488769 68.206323 
L 129.847194 69.208387 
L 126.430488 72.093889 
L 125.488769 68.206323 
z
" clip-path="url(#paa54a21377)" style="stroke: #000000; stroke-linecap: round"/>
   </g>
   <g id="patch_4">
    <path d="M 40.019606 274.244423 
Q 40.004015 292.533338 39.989377 309.704221 
" clip-path="url(#paa54a21377)" style="fill: none; stroke: #000000; stroke-linecap: round"/>
    <path d="M 41.992786 305.705927 
L 39.989377 309.704221 
L 37.992788 305.702517 
L 41.992786 305.705927 
z
" clip-path="url(#paa54a21377)" style="stroke: #000000; stroke-linecap: round"/>
   </g>
   <g id="patch_5">
    <path d="M 41.197762 270.7698 
Q 56.439985 250.895113 71.001822 231.907598 
" clip-path="url(#paa54a21377)" style="fill: none; stroke: #000000; stroke-linecap: round"/>
    <path d="M 66.980575 233.864528 
L 71.001822 231.907598 
L 70.154618 236.298754 
L 66.980575 233.864528 
z
" clip-path="url(#paa54a21377)" style="stroke: #000000; stroke-linecap: round"/>
   </g>
   <g id="patch_6">
    <path d="M 121.128907 187.408508 
Q 143.547581 178.754696 164.92323 170.5035 
" clip-path="url(#paa54a21377)" style="fill: none; stroke: #000000; stroke-linecap: round"/>
    <path d="M 160.47137 170.078128 
L 164.92323 170.5035 
L 161.911816 173.809765 
L 160.47137 170.078128 
z
" clip-path="url(#paa54a21377)" style="stroke: #000000; stroke-linecap: round"/>
   </g>
   <g id="patch_7">
    <path d="M 119.446514 186.175301 
Q 120.606607 168.18586 121.69475 151.312136 
" clip-path="url(#paa54a21377)" style="fill: none; stroke: #000000; stroke-linecap: round"/>
    <path d="M 119.441481 155.175137 
L 121.69475 151.312136 
L 123.433189 155.432552 
L 119.441481 155.175137 
z
" clip-path="url(#paa54a21377)" style="stroke: #000000; stroke-linecap: round"/>
   </g>
   <g id="patch_8">
    <path d="M 117.87855 189.391532 
Q 96.092849 208.793881 75.142067 227.452651 
" clip-path="url(#paa54a21377)" style="fill: none; stroke: #000000; stroke-linecap: round"/>
    <path d="M 79.459319 226.28589 
L 75.142067 227.452651 
L 76.79901 223.298793 
L 79.459319 226.28589 
z
" clip-path="url(#paa54a21377)" style="stroke: #000000; stroke-linecap: round"/>
   </g>
   <g id="patch_9">
    <path d="M 218.692637 59.350257 
Q 256.466114 56.950078 293.123807 54.620798 
" clip-path="url(#paa54a21377)" style="fill: none; stroke: #000000; stroke-linecap: round"/>
    <path d="M 289.005031 52.878477 
L 293.123807 54.620798 
L 289.258685 56.870427 
L 289.005031 52.878477 
z
" clip-path="url(#paa54a21377)" style="stroke: #000000; stroke-linecap: round"/>
   </g>
   <g id="patch_10">
    <path d="M 214.834768 59.679786 
Q 174.787494 63.981209 135.85186 68.163232 
" clip-path="url(#paa54a21377)" style="fill: none; stroke: #000000; stroke-linecap: round"/>
    <path d="M 140.042573 69.724617 
L 135.85186 68.163232 
L 139.615395 65.747493 
L 140.042573 69.724617 
z
" clip-path="url(#paa54a21377)" style="stroke: #000000; stroke-linecap: round"/>
   </g>
   <g id="patch_11">
    <path d="M 294.239783 54.549887 
Q 256.466306 56.950066 219.808613 59.279347 
" clip-path="url(#paa54a21377)" style="fill: none; stroke: #000000; stroke-linecap: round"/>
    <path d="M 223.927389 61.021667 
L 219.808613 59.279347 
L 223.673736 57.029718 
L 223.927389 61.021667 
z
" clip-path="url(#paa54a21377)" style="stroke: #000000; stroke-linecap: round"/>
   </g>
   <g id="patch_12">
    <path d="M 298.106498 54.422974 
Q 334.322375 54.347558 369.42022 54.27447 
" clip-path="url(#paa54a21377)" style="fill: none; stroke: #000000; stroke-linecap: round"/>
    <path d="M 365.416064 52.282804 
L 369.42022 54.27447 
L 365.424393 56.282795 
L 365.416064 52.282804 
z
" clip-path="url(#paa54a21377)" style="stroke: #000000; stroke-linecap: round"/>
   </g>
   <g id="patch_13">
    <path d="M 130.935005 68.944877 
Q 103.696726 75.543043 77.545054 81.87799 
" clip-path="url(#paa54a21377)" style="fill: none; stroke: #000000; stroke-linecap: round"/>
    <path d="M 81.903479 82.880054 
L 77.545054 81.87799 
L 80.96176 78.992488 
L 81.903479 82.880054 
z
" clip-path="url(#paa54a21377)" style="stroke: #000000; stroke-linecap: round"/>
   </g>
   <g id="patch_14">
    <path d="M 134.739257 68.282735 
Q 174.786532 63.981313 213.722166 59.799289 
" clip-path="url(#paa54a21377)" style="fill: none; stroke: #000000; stroke-linecap: round"/>
    <path d="M 209.531453 58.237905 
L 213.722166 59.799289 
L 209.95863 62.215029 
L 209.531453 58.237905 
z
" clip-path="url(#paa54a21377)" style="stroke: #000000; stroke-linecap: round"/>
   </g>
   <g id="patch_15">
    <path d="M 133.008916 70.417737 
Q 134.972449 89.982733 136.824336 108.435284 
" clip-path="url(#paa54a21377)" style="fill: none; stroke: #000000; stroke-linecap: round"/>
    <path d="M 138.414908 104.255561 
L 136.824336 108.435284 
L 134.434901 104.654993 
L 138.414908 104.255561 
z
" clip-path="url(#paa54a21377)" style="stroke: #000000; stroke-linecap: round"/>
   </g>
   <g id="patch_16">
    <path d="M 130.941851 67.988147 
Q 104.127415 60.814467 78.39303 53.929734 
" clip-path="url(#paa54a21377)" style="fill: none; stroke: #000000; stroke-linecap: round"/>
    <path d="M 81.740254 56.895554 
L 78.39303 53.929734 
L 82.774021 53.031447 
L 81.740254 56.895554 
z
" clip-path="url(#paa54a21377)" style="stroke: #000000; stroke-linecap: round"/>
   </g>
   <g id="patch_17">
    <path d="M 77.31318 53.640841 
Q 104.127616 60.814521 129.862001 67.699255 
" clip-path="url(#paa54a21377)" style="fill: none; stroke: #000000; stroke-linecap: round"/>
    <path d="M 126.514777 64.733434 
L 129.862001 67.699255 
L 125.481011 68.597542 
L 126.514777 64.733434 
z
" clip-path="url(#paa54a21377)" style="stroke: #000000; stroke-linecap: round"/>
   </g>
   <g id="patch_18">
    <path d="M 409.081812 31.028833 
Q 391.595752 42.13004 375.053576 52.632011 
" clip-path="url(#paa54a21377)" style="fill: none; stroke: #000000; stroke-linecap: round"/>
    <path d="M 379.502463 52.176595 
L 375.053576 52.632011 
L 377.358576 48.799652 
L 379.502463 52.176595 
z
" clip-path="url(#paa54a21377)" style="stroke: #000000; stroke-linecap: round"/>
   </g>
   <g id="patch_19">
    <path d="M 370.543767 54.27213 
Q 334.32789 54.347546 299.230045 54.420634 
" clip-path="url(#paa54a21377)" style="fill: none; stroke: #000000; stroke-linecap: round"/>
    <path d="M 303.234201 56.4123 
L 299.230045 54.420634 
L 303.225871 52.412309 
L 303.234201 56.4123 
z
" clip-path="url(#paa54a21377)" style="stroke: #000000; stroke-linecap: round"/>
   </g>
   <g id="patch_20">
    <path d="M 374.112671 53.229355 
Q 391.598731 42.128148 408.140906 31.626177 
" clip-path="url(#paa54a21377)" style="fill: none; stroke: #000000; stroke-linecap: round"/>
    <path d="M 403.692019 32.081593 
L 408.140906 31.626177 
L 405.835907 35.458536 
L 403.692019 32.081593 
z
" clip-path="url(#paa54a21377)" style="stroke: #000000; stroke-linecap: round"/>
   </g>
   <g id="patch_21">
    <path d="M 373.504339 55.907088 
Q 384.913402 74.099565 395.728457 91.344859 
" clip-path="url(#paa54a21377)" style="fill: none; stroke: #000000; stroke-linecap: round"/>
    <path d="M 395.297643 86.893522 
L 395.728457 91.344859 
L 391.908899 89.018708 
L 395.297643 86.893522 
z
" clip-path="url(#paa54a21377)" style="stroke: #000000; stroke-linecap: round"/>
   </g>
   <g id="patch_22">
    <path d="M 374.367587 54.686853 
Q 396.644994 59.619739 417.830807 64.310913 
" clip-path="url(#paa54a21377)" style="fill: none; stroke: #000000; stroke-linecap: round"/>
    <path d="M 414.357792 61.493439 
L 417.830807 64.310913 
L 413.493018 65.398841 
L 414.357792 61.493439 
z
" clip-path="url(#paa54a21377)" style="stroke: #000000; stroke-linecap: round"/>
   </g>
   <g id="patch_23">
    <path d="M 170.952848 246.635411 
Q 168.417585 227.692193 166.030632 209.857128 
" clip-path="url(#paa54a21377)" style="fill: none; stroke: #000000; stroke-linecap: round"/>
    <path d="M 164.578915 214.087083 
L 166.030632 209.857128 
L 168.543565 213.556474 
L 164.578915 214.087083 
z
" clip-path="url(#paa54a21377)" style="stroke: #000000; stroke-linecap: round"/>
   </g>
   <g id="patch_24">
    <path d="M 165.882086 208.747212 
Q 168.417349 227.69043 170.804303 245.525495 
" clip-path="url(#paa54a21377)" style="fill: none; stroke: #000000; stroke-linecap: round"/>
    <path d="M 172.25602 241.29554 
L 170.804303 245.525495 
L 168.291369 241.826148 
L 172.25602 241.29554 
z
" clip-path="url(#paa54a21377)" style="stroke: #000000; stroke-linecap: round"/>
   </g>
   <g id="patch_25">
    <path d="M 164.471697 208.380868 
Q 144.482957 235.256143 125.161449 261.234311 
" clip-path="url(#paa54a21377)" style="fill: none; stroke: #000000; stroke-linecap: round"/>
    <path d="M 129.153405 259.218304 
L 125.161449 261.234311 
L 125.943817 256.831142 
L 129.153405 259.218304 
z
" clip-path="url(#paa54a21377)" style="stroke: #000000; stroke-linecap: round"/>
   </g>
   <g id="patch_26">
    <path d="M 167.336712 207.740016 
Q 200.240033 225.244474 232.156307 242.223825 
" clip-path="url(#paa54a21377)" style="fill: none; stroke: #000000; stroke-linecap: round"/>
    <path d="M 229.564276 238.579463 
L 232.156307 242.223825 
L 227.685599 242.110833 
L 229.564276 238.579463 
z
" clip-path="url(#paa54a21377)" style="stroke: #000000; stroke-linecap: round"/>
   </g>
   <g id="patch_27">
    <path d="M 165.071492 204.975959 
Q 151.377997 159.154163 138.00463 114.40359 
" clip-path="url(#paa54a21377)" style="fill: none; stroke: #000000; stroke-linecap: round"/>
    <path d="M 137.233689 118.808775 
L 138.00463 114.40359 
L 141.066213 117.663454 
L 137.233689 118.808775 
z
" clip-path="url(#paa54a21377)" style="stroke: #000000; stroke-linecap: round"/>
   </g>
   <g id="patch_28">
    <path d="M 39.988431 310.813775 
Q 40.004022 292.524859 40.018661 275.353977 
" clip-path="url(#paa54a21377)" style="fill: none; stroke: #000000; stroke-linecap: round"/>
    <path d="M 38.015251 279.352271 
L 40.018661 275.353977 
L 42.01525 279.355681 
L 38.015251 279.352271 
z
" clip-path="url(#paa54a21377)" style="stroke: #000000; stroke-linecap: round"/>
   </g>
   <g id="patch_29">
    <path d="M 41.885738 312.366422 
Q 60.87073 308.488273 78.76031 304.833889 
" clip-path="url(#paa54a21377)" style="fill: none; stroke: #000000; stroke-linecap: round"/>
    <path d="M 74.440959 303.67492 
L 78.76031 304.833889 
L 75.241525 307.593988 
L 74.440959 303.67492 
z
" clip-path="url(#paa54a21377)" style="stroke: #000000; stroke-linecap: round"/>
   </g>
   <g id="patch_30">
    <path d="M 163.531713 77.096786 
Q 150.919539 93.518869 138.988356 109.054245 
" clip-path="url(#paa54a21377)" style="fill: none; stroke: #000000; stroke-linecap: round"/>
    <path d="M 143.010937 107.10006 
L 138.988356 109.054245 
L 139.838557 104.663668 
L 143.010937 107.10006 
z
" clip-path="url(#paa54a21377)" style="stroke: #000000; stroke-linecap: round"/>
   </g>
   <g id="patch_31">
    <path d="M 362.165563 247.32075 
Q 353.127615 250.70119 345.136849 253.689955 
" clip-path="url(#paa54a21377)" style="fill: none; stroke: #000000; stroke-linecap: round"/>
    <path d="M 349.584012 254.161914 
L 345.136849 253.689955 
L 348.182713 250.4154 
L 349.584012 254.161914 
z
" clip-path="url(#paa54a21377)" style="stroke: #000000; stroke-linecap: round"/>
   </g>
   <g id="patch_32">
    <path d="M 362.159083 247.311153 
Q 333.087655 257.992798 305.065665 268.28885 
" clip-path="url(#paa54a21377)" style="fill: none; stroke: #000000; stroke-linecap: round"/>
    <path d="M 309.510014 268.786604 
L 305.065665 268.28885 
L 308.130478 265.032023 
L 309.510014 268.786604 
z
" clip-path="url(#paa54a21377)" style="stroke: #000000; stroke-linecap: round"/>
   </g>
   <g id="patch_33">
    <path d="M 365.62287 247.66458 
Q 384.970765 259.711466 403.369566 271.167403 
" clip-path="url(#paa54a21377)" style="fill: none; stroke: #000000; stroke-linecap: round"/>
    <path d="M 401.031107 267.355369 
L 403.369566 271.167403 
L 398.916863 270.75095 
L 401.031107 267.355369 
z
" clip-path="url(#paa54a21377)" style="stroke: #000000; stroke-linecap: round"/>
   </g>
   <g id="patch_34">
    <path d="M 364.376803 244.743992 
Q 370.0495 217.580272 375.493645 191.510976 
" clip-path="url(#paa54a21377)" style="fill: none; stroke: #000000; stroke-linecap: round"/>
    <path d="M 372.718186 195.017659 
L 375.493645 191.510976 
L 376.633716 195.835353 
L 372.718186 195.017659 
z
" clip-path="url(#paa54a21377)" style="stroke: #000000; stroke-linecap: round"/>
   </g>
   <g id="patch_35">
    <path d="M 375.722155 190.416756 
Q 370.049457 217.580476 364.605312 243.649773 
" clip-path="url(#paa54a21377)" style="fill: none; stroke: #000000; stroke-linecap: round"/>
    <path d="M 367.380772 240.14309 
L 364.605312 243.649773 
L 363.465242 239.325395 
L 367.380772 240.14309 
z
" clip-path="url(#paa54a21377)" style="stroke: #000000; stroke-linecap: round"/>
   </g>
   <g id="patch_36">
    <path d="M 376.715263 186.675242 
Q 384.093321 163.881956 391.127067 142.152366 
" clip-path="url(#paa54a21377)" style="fill: none; stroke: #000000; stroke-linecap: round"/>
    <path d="M 387.992421 145.342035 
L 391.127067 142.152366 
L 391.798015 146.573885 
L 387.992421 145.342035 
z
" clip-path="url(#paa54a21377)" style="stroke: #000000; stroke-linecap: round"/>
   </g>
   <g id="patch_37">
    <path d="M 391.471542 141.088168 
Q 384.093484 163.881454 377.059738 185.611044 
" clip-path="url(#paa54a21377)" style="fill: none; stroke: #000000; stroke-linecap: round"/>
    <path d="M 380.194384 182.421375 
L 377.059738 185.611044 
L 376.38879 181.189526 
L 380.194384 182.421375 
z
" clip-path="url(#paa54a21377)" style="stroke: #000000; stroke-linecap: round"/>
   </g>
   <g id="patch_38">
    <path d="M 392.292407 137.3225 
Q 394.709718 116.590366 396.997546 96.968744 
" clip-path="url(#paa54a21377)" style="fill: none; stroke: #000000; stroke-linecap: round"/>
    <path d="M 394.547753 100.710203 
L 396.997546 96.968744 
L 398.520837 101.173454 
L 394.547753 100.710203 
z
" clip-path="url(#paa54a21377)" style="stroke: #000000; stroke-linecap: round"/>
   </g>
   <g id="patch_39">
    <path d="M 396.323658 92.293945 
Q 384.914595 74.101468 374.09954 56.856174 
" clip-path="url(#paa54a21377)" style="fill: none; stroke: #000000; stroke-linecap: round"/>
    <path d="M 374.530354 61.307511 
L 374.09954 56.856174 
L 377.919098 59.182325 
L 374.530354 61.307511 
z
" clip-path="url(#paa54a21377)" style="stroke: #000000; stroke-linecap: round"/>
   </g>
   <g id="patch_40">
    <path d="M 397.127403 95.855022 
Q 394.710092 116.587155 392.422264 136.208778 
" clip-path="url(#paa54a21377)" style="fill: none; stroke: #000000; stroke-linecap: round"/>
    <path d="M 394.872057 132.467319 
L 392.422264 136.208778 
L 390.898973 132.004068 
L 394.872057 132.467319 
z
" clip-path="url(#paa54a21377)" style="stroke: #000000; stroke-linecap: round"/>
   </g>
   <g id="patch_41">
    <path d="M 418.922119 64.552562 
Q 396.644712 59.619676 375.458899 54.928502 
" clip-path="url(#paa54a21377)" style="fill: none; stroke: #000000; stroke-linecap: round"/>
    <path d="M 378.931914 57.745976 
L 375.458899 54.928502 
L 379.796688 53.840574 
L 378.931914 57.745976 
z
" clip-path="url(#paa54a21377)" style="stroke: #000000; stroke-linecap: round"/>
   </g>
   <g id="patch_42">
    <path d="M 109.852961 65.266817 
Q 122.999216 87.537399 135.57713 108.845178 
" clip-path="url(#paa54a21377)" style="fill: none; stroke: #000000; stroke-linecap: round"/>
    <path d="M 135.266091 104.383872 
L 135.57713 108.845178 
L 131.821462 106.417225 
L 135.266091 104.383872 
z
" clip-path="url(#paa54a21377)" style="stroke: #000000; stroke-linecap: round"/>
   </g>
   <g id="patch_43">
    <path d="M 404.318416 271.758201 
Q 384.97052 259.711314 366.571719 248.255377 
" clip-path="url(#paa54a21377)" style="fill: none; stroke: #000000; stroke-linecap: round"/>
    <path d="M 368.910178 252.067412 
L 366.571719 248.255377 
L 371.024422 248.671831 
L 368.910178 252.067412 
z
" clip-path="url(#paa54a21377)" style="stroke: #000000; stroke-linecap: round"/>
   </g>
   <g id="patch_44">
    <path d="M 315.354027 313.7546 
Q 309.050708 292.477089 303.064957 272.271562 
" clip-path="url(#paa54a21377)" style="fill: none; stroke: #000000; stroke-linecap: round"/>
    <path d="M 302.283499 276.674893 
L 303.064957 272.271562 
L 306.118747 275.538727 
L 302.283499 276.674893 
z
" clip-path="url(#paa54a21377)" style="stroke: #000000; stroke-linecap: round"/>
   </g>
   <g id="patch_45">
    <path d="M 121.766634 150.197434 
Q 120.606541 168.186875 119.518398 185.0606 
" clip-path="url(#paa54a21377)" style="fill: none; stroke: #000000; stroke-linecap: round"/>
    <path d="M 121.771667 181.197598 
L 119.518398 185.0606 
L 117.779959 180.940183 
L 121.771667 181.197598 
z
" clip-path="url(#paa54a21377)" style="stroke: #000000; stroke-linecap: round"/>
   </g>
   <g id="patch_46">
    <path d="M 122.633334 146.474756 
Q 129.510638 129.86985 135.960126 114.297888 
" clip-path="url(#paa54a21377)" style="fill: none; stroke: #000000; stroke-linecap: round"/>
    <path d="M 132.581734 117.228156 
L 135.960126 114.297888 
L 136.277305 118.758762 
L 132.581734 117.228156 
z
" clip-path="url(#paa54a21377)" style="stroke: #000000; stroke-linecap: round"/>
   </g>
   <g id="patch_47">
    <path d="M 71.682571 231.019953 
Q 56.440348 250.89464 41.878511 269.882155 
" clip-path="url(#paa54a21377)" style="fill: none; stroke: #000000; stroke-linecap: round"/>
    <path d="M 45.899758 267.925225 
L 41.878511 269.882155 
L 42.725715 265.491 
L 45.899758 267.925225 
z
" clip-path="url(#paa54a21377)" style="stroke: #000000; stroke-linecap: round"/>
   </g>
   <g id="patch_48">
    <path d="M 74.302532 228.200341 
Q 96.088233 208.797992 117.039014 190.139222 
" clip-path="url(#paa54a21377)" style="fill: none; stroke: #000000; stroke-linecap: round"/>
    <path d="M 112.721762 191.305983 
L 117.039014 190.139222 
L 115.382072 194.293081 
L 112.721762 191.305983 
z
" clip-path="url(#paa54a21377)" style="stroke: #000000; stroke-linecap: round"/>
   </g>
   <g id="patch_49">
    <path d="M 344.090893 254.081172 
Q 353.128841 250.700732 361.119607 247.711967 
" clip-path="url(#paa54a21377)" style="fill: none; stroke: #000000; stroke-linecap: round"/>
    <path d="M 356.672444 247.240008 
L 361.119607 247.711967 
L 358.073743 250.986522 
L 356.672444 247.240008 
z
" clip-path="url(#paa54a21377)" style="stroke: #000000; stroke-linecap: round"/>
   </g>
   <g id="patch_50">
    <path d="M 304.018685 268.67354 
Q 333.090112 257.991895 361.112103 247.695843 
" clip-path="url(#paa54a21377)" style="fill: none; stroke: #000000; stroke-linecap: round"/>
    <path d="M 356.667753 247.198089 
L 361.112103 247.695843 
L 358.04729 250.95267 
L 356.667753 247.198089 
z
" clip-path="url(#paa54a21377)" style="stroke: #000000; stroke-linecap: round"/>
   </g>
   <g id="patch_51">
    <path d="M 302.746944 271.198077 
Q 309.050263 292.475588 315.036014 312.681115 
" clip-path="url(#paa54a21377)" style="fill: none; stroke: #000000; stroke-linecap: round"/>
    <path d="M 315.817472 308.277784 
L 315.036014 312.681115 
L 311.982224 309.41395 
L 315.817472 308.277784 
z
" clip-path="url(#paa54a21377)" style="stroke: #000000; stroke-linecap: round"/>
   </g>
   <g id="patch_52">
    <path d="M 300.38466 268.651436 
Q 268.525027 256.500597 237.710032 244.74817 
" clip-path="url(#paa54a21377)" style="fill: none; stroke: #000000; stroke-linecap: round"/>
    <path d="M 240.734743 248.042274 
L 237.710032 244.74817 
L 242.160142 244.304863 
L 240.734743 248.042274 
z
" clip-path="url(#paa54a21377)" style="stroke: #000000; stroke-linecap: round"/>
   </g>
   <g id="patch_53">
    <path d="M 233.142263 242.74835 
Q 200.238941 225.243893 168.322668 208.264541 
" clip-path="url(#paa54a21377)" style="fill: none; stroke: #000000; stroke-linecap: round"/>
    <path d="M 170.914699 211.908903 
L 168.322668 208.264541 
L 172.793376 208.377533 
L 170.914699 211.908903 
z
" clip-path="url(#paa54a21377)" style="stroke: #000000; stroke-linecap: round"/>
   </g>
   <g id="patch_54">
    <path d="M 236.666188 244.350062 
Q 268.525821 256.5009 299.340816 268.253328 
" clip-path="url(#paa54a21377)" style="fill: none; stroke: #000000; stroke-linecap: round"/>
    <path d="M 296.316104 264.959224 
L 299.340816 268.253328 
L 294.890706 268.696634 
L 296.316104 264.959224 
z
" clip-path="url(#paa54a21377)" style="stroke: #000000; stroke-linecap: round"/>
   </g>
   <g id="patch_55">
    <path d="M 79.849665 304.611362 
Q 60.864673 308.48951 42.975093 312.143894 
" clip-path="url(#paa54a21377)" style="fill: none; stroke: #000000; stroke-linecap: round"/>
    <path d="M 47.294444 313.302863 
L 42.975093 312.143894 
L 46.493878 309.383795 
L 47.294444 313.302863 
z
" clip-path="url(#paa54a21377)" style="stroke: #000000; stroke-linecap: round"/>
   </g>
   <g id="patch_56">
    <path d="M 83.137098 302.870113 
Q 102.543807 283.954456 121.149881 265.819174 
" clip-path="url(#paa54a21377)" style="fill: none; stroke: #000000; stroke-linecap: round"/>
    <path d="M 116.889469 267.178912 
L 121.149881 265.819174 
L 119.681424 270.043347 
L 116.889469 267.178912 
z
" clip-path="url(#paa54a21377)" style="stroke: #000000; stroke-linecap: round"/>
   </g>
   <g id="patch_57">
    <path d="M 124.490545 262.136356 
Q 144.479285 235.26108 163.800793 209.282912 
" clip-path="url(#paa54a21377)" style="fill: none; stroke: #000000; stroke-linecap: round"/>
    <path d="M 159.808837 211.29892 
L 163.800793 209.282912 
L 163.018426 213.686082 
L 159.808837 211.29892 
z
" clip-path="url(#paa54a21377)" style="stroke: #000000; stroke-linecap: round"/>
   </g>
   <g id="patch_58">
    <path d="M 121.948324 265.040935 
Q 102.541615 283.956592 83.935541 302.091873 
" clip-path="url(#paa54a21377)" style="fill: none; stroke: #000000; stroke-linecap: round"/>
    <path d="M 88.195953 300.732135 
L 83.935541 302.091873 
L 85.403998 297.867701 
L 88.195953 300.732135 
z
" clip-path="url(#paa54a21377)" style="stroke: #000000; stroke-linecap: round"/>
   </g>
   <g id="patch_59">
    <path d="M 99.652008 93.916456 
Q 117.513461 102.284633 134.362485 110.178482 
" clip-path="url(#paa54a21377)" style="fill: none; stroke: #000000; stroke-linecap: round"/>
    <path d="M 131.588812 106.670386 
L 134.362485 110.178482 
L 129.891805 110.292563 
L 131.588812 106.670386 
z
" clip-path="url(#paa54a21377)" style="stroke: #000000; stroke-linecap: round"/>
   </g>
   <g id="patch_60">
    <path d="M 136.935849 109.546423 
Q 134.972317 89.981427 133.12043 71.528876 
" clip-path="url(#paa54a21377)" style="fill: none; stroke: #000000; stroke-linecap: round"/>
    <path d="M 131.529858 75.708599 
L 133.12043 71.528876 
L 135.509864 75.309168 
L 131.529858 75.708599 
z
" clip-path="url(#paa54a21377)" style="stroke: #000000; stroke-linecap: round"/>
   </g>
   <g id="patch_61">
    <path d="M 137.683334 113.328454 
Q 151.376828 159.15025 164.750195 203.900823 
" clip-path="url(#paa54a21377)" style="fill: none; stroke: #000000; stroke-linecap: round"/>
    <path d="M 165.521137 199.495638 
L 164.750195 203.900823 
L 161.688613 200.640959 
L 165.521137 199.495638 
z
" clip-path="url(#paa54a21377)" style="stroke: #000000; stroke-linecap: round"/>
   </g>
   <g id="patch_62">
    <path d="M 138.309512 109.938154 
Q 150.921687 93.516071 162.85287 77.980696 
" clip-path="url(#paa54a21377)" style="fill: none; stroke: #000000; stroke-linecap: round"/>
    <path d="M 158.830289 79.934881 
L 162.85287 77.980696 
L 162.002669 82.371272 
L 158.830289 79.934881 
z
" clip-path="url(#paa54a21377)" style="stroke: #000000; stroke-linecap: round"/>
   </g>
   <g id="patch_63">
    <path d="M 136.14444 109.806237 
Q 122.998186 87.535655 110.420271 66.227876 
" clip-path="url(#paa54a21377)" style="fill: none; stroke: #000000; stroke-linecap: round"/>
    <path d="M 110.73131 70.689182 
L 110.420271 66.227876 
L 114.17594 68.655828 
L 110.73131 70.689182 
z
" clip-path="url(#paa54a21377)" style="stroke: #000000; stroke-linecap: round"/>
   </g>
   <g id="patch_64">
    <path d="M 136.387184 113.266776 
Q 129.50988 129.871682 123.060393 145.443645 
" clip-path="url(#paa54a21377)" style="fill: none; stroke: #000000; stroke-linecap: round"/>
    <path d="M 126.438784 142.513376 
L 123.060393 145.443645 
L 122.743213 140.982771 
L 126.438784 142.513376 
z
" clip-path="url(#paa54a21377)" style="stroke: #000000; stroke-linecap: round"/>
   </g>
   <g id="patch_65">
    <path d="M 135.374161 110.652457 
Q 117.512708 102.28428 100.663684 94.390431 
" clip-path="url(#paa54a21377)" style="fill: none; stroke: #000000; stroke-linecap: round"/>
    <path d="M 103.437357 97.898527 
L 100.663684 94.390431 
L 105.134365 94.27635 
L 103.437357 97.898527 
z
" clip-path="url(#paa54a21377)" style="stroke: #000000; stroke-linecap: round"/>
   </g>
   <g id="patch_66">
    <path d="M 137.295641 109.544881 
Q 139.684757 81.813067 141.977909 55.19516 
" clip-path="url(#paa54a21377)" style="fill: none; stroke: #000000; stroke-linecap: round"/>
    <path d="M 139.641958 59.008733 
L 141.977909 55.19516 
L 143.627197 59.352064 
L 139.641958 59.008733 
z
" clip-path="url(#paa54a21377)" style="stroke: #000000; stroke-linecap: round"/>
   </g>
   <g id="patch_67">
    <path d="M 142.073896 54.080981 
Q 139.68478 81.812795 137.391629 108.430702 
" clip-path="url(#paa54a21377)" style="fill: none; stroke: #000000; stroke-linecap: round"/>
    <path d="M 139.727579 104.617129 
L 137.391629 108.430702 
L 135.742341 104.273798 
L 139.727579 104.617129 
z
" clip-path="url(#paa54a21377)" style="stroke: #000000; stroke-linecap: round"/>
   </g>
   <g id="PathCollection_1">
    <defs>
     <path id="m49c63234c3" d="M 0 1.936492 
C 0.513564 1.936492 1.006162 1.732451 1.369306 1.369306 
C 1.732451 1.006162 1.936492 0.513564 1.936492 0 
C 1.936492 -0.513564 1.732451 -1.006162 1.369306 -1.369306 
C 1.006162 -1.732451 0.513564 -1.936492 0 -1.936492 
C -0.513564 -1.936492 -1.006162 -1.732451 -1.369306 -1.369306 
C -1.732451 -1.006162 -1.936492 -0.513564 -1.936492 0 
C -1.936492 0.513564 -1.732451 1.006162 -1.369306 1.369306 
C -1.006162 1.732451 -0.513564 1.936492 0 1.936492 
z
" style="stroke: #1f78b4"/>
    </defs>
    <g clip-path="url(#paa54a21377)">
     <use xlink:href="#m49c63234c3" x="167.774097" y="169.40304" style="fill: #1f78b4; stroke: #1f78b4"/>
     <use xlink:href="#m49c63234c3" x="74.57686" y="82.597001" style="fill: #1f78b4; stroke: #1f78b4"/>
     <use xlink:href="#m49c63234c3" x="40.021261" y="272.303867" style="fill: #1f78b4; stroke: #1f78b4"/>
     <use xlink:href="#m49c63234c3" x="119.322009" y="188.105987" style="fill: #1f78b4; stroke: #1f78b4"/>
     <use xlink:href="#m49c63234c3" x="216.758638" y="59.473146" style="fill: #1f78b4; stroke: #1f78b4"/>
     <use xlink:href="#m49c63234c3" x="296.173782" y="54.426998" style="fill: #1f78b4; stroke: #1f78b4"/>
     <use xlink:href="#m49c63234c3" x="132.815387" y="68.489376" style="fill: #1f78b4; stroke: #1f78b4"/>
     <use xlink:href="#m49c63234c3" x="75.439644" y="53.139613" style="fill: #1f78b4; stroke: #1f78b4"/>
     <use xlink:href="#m49c63234c3" x="410.717999" y="29.990083" style="fill: #1f78b4; stroke: #1f78b4"/>
     <use xlink:href="#m49c63234c3" x="372.476483" y="54.268105" style="fill: #1f78b4; stroke: #1f78b4"/>
     <use xlink:href="#m49c63234c3" x="171.209488" y="248.552994" style="fill: #1f78b4; stroke: #1f78b4"/>
     <use xlink:href="#m49c63234c3" x="165.625447" y="206.829628" style="fill: #1f78b4; stroke: #1f78b4"/>
     <use xlink:href="#m49c63234c3" x="39.986777" y="312.754331" style="fill: #1f78b4; stroke: #1f78b4"/>
     <use xlink:href="#m49c63234c3" x="164.711847" y="75.560156" style="fill: #1f78b4; stroke: #1f78b4"/>
     <use xlink:href="#m49c63234c3" x="363.980449" y="246.641934" style="fill: #1f78b4; stroke: #1f78b4"/>
     <use xlink:href="#m49c63234c3" x="376.118509" y="188.518815" style="fill: #1f78b4; stroke: #1f78b4"/>
     <use xlink:href="#m49c63234c3" x="392.068296" y="139.244595" style="fill: #1f78b4; stroke: #1f78b4"/>
     <use xlink:href="#m49c63234c3" x="397.351514" y="93.932927" style="fill: #1f78b4; stroke: #1f78b4"/>
     <use xlink:href="#m49c63234c3" x="420.813223" y="64.97131" style="fill: #1f78b4; stroke: #1f78b4"/>
     <use xlink:href="#m49c63234c3" x="108.868023" y="63.598269" style="fill: #1f78b4; stroke: #1f78b4"/>
     <use xlink:href="#m49c63234c3" x="405.960837" y="272.780847" style="fill: #1f78b4; stroke: #1f78b4"/>
     <use xlink:href="#m49c63234c3" x="315.903652" y="315.609917" style="fill: #1f78b4; stroke: #1f78b4"/>
     <use xlink:href="#m49c63234c3" x="121.891139" y="148.266748" style="fill: #1f78b4; stroke: #1f78b4"/>
     <use xlink:href="#m49c63234c3" x="72.859073" y="229.485886" style="fill: #1f78b4; stroke: #1f78b4"/>
     <use xlink:href="#m49c63234c3" x="342.276007" y="254.759988" style="fill: #1f78b4; stroke: #1f78b4"/>
     <use xlink:href="#m49c63234c3" x="302.197319" y="269.34276" style="fill: #1f78b4; stroke: #1f78b4"/>
     <use xlink:href="#m49c63234c3" x="234.853528" y="243.658738" style="fill: #1f78b4; stroke: #1f78b4"/>
     <use xlink:href="#m49c63234c3" x="81.748626" y="304.223452" style="fill: #1f78b4; stroke: #1f78b4"/>
     <use xlink:href="#m49c63234c3" x="123.336796" y="263.687595" style="fill: #1f78b4; stroke: #1f78b4"/>
     <use xlink:href="#m49c63234c3" x="97.896791" y="93.094128" style="fill: #1f78b4; stroke: #1f78b4"/>
     <use xlink:href="#m49c63234c3" x="137.129379" y="111.474785" style="fill: #1f78b4; stroke: #1f78b4"/>
     <use xlink:href="#m49c63234c3" x="142.240159" y="52.151078" style="fill: #1f78b4; stroke: #1f78b4"/>
    </g>
   </g>
   <g id="text_1">
    <g clip-path="url(#paa54a21377)">
     <!-- 0 -->
     <g transform="translate(164.592847 172.162415) scale(0.1 -0.1)">
      <defs>
       <path id="DejaVuSans-30" d="M 2034 4250 
Q 1547 4250 1301 3770 
Q 1056 3291 1056 2328 
Q 1056 1369 1301 889 
Q 1547 409 2034 409 
Q 2525 409 2770 889 
Q 3016 1369 3016 2328 
Q 3016 3291 2770 3770 
Q 2525 4250 2034 4250 
z
M 2034 4750 
Q 2819 4750 3233 4129 
Q 3647 3509 3647 2328 
Q 3647 1150 3233 529 
Q 2819 -91 2034 -91 
Q 1250 -91 836 529 
Q 422 1150 422 2328 
Q 422 3509 836 4129 
Q 1250 4750 2034 4750 
z
" transform="scale(0.015625)"/>
      </defs>
      <use xlink:href="#DejaVuSans-30"/>
     </g>
    </g>
   </g>
   <g id="text_2">
    <g clip-path="url(#paa54a21377)">
     <!-- 1 -->
     <g transform="translate(71.39561 85.356376) scale(0.1 -0.1)">
      <defs>
       <path id="DejaVuSans-31" d="M 794 531 
L 1825 531 
L 1825 4091 
L 703 3866 
L 703 4441 
L 1819 4666 
L 2450 4666 
L 2450 531 
L 3481 531 
L 3481 0 
L 794 0 
L 794 531 
z
" transform="scale(0.015625)"/>
      </defs>
      <use xlink:href="#DejaVuSans-31"/>
     </g>
    </g>
   </g>
   <g id="text_3">
    <g clip-path="url(#paa54a21377)">
     <!-- 2 -->
     <g transform="translate(36.840011 275.063242) scale(0.1 -0.1)">
      <defs>
       <path id="DejaVuSans-32" d="M 1228 531 
L 3431 531 
L 3431 0 
L 469 0 
L 469 531 
Q 828 903 1448 1529 
Q 2069 2156 2228 2338 
Q 2531 2678 2651 2914 
Q 2772 3150 2772 3378 
Q 2772 3750 2511 3984 
Q 2250 4219 1831 4219 
Q 1534 4219 1204 4116 
Q 875 4013 500 3803 
L 500 4441 
Q 881 4594 1212 4672 
Q 1544 4750 1819 4750 
Q 2544 4750 2975 4387 
Q 3406 4025 3406 3419 
Q 3406 3131 3298 2873 
Q 3191 2616 2906 2266 
Q 2828 2175 2409 1742 
Q 1991 1309 1228 531 
z
" transform="scale(0.015625)"/>
      </defs>
      <use xlink:href="#DejaVuSans-32"/>
     </g>
    </g>
   </g>
   <g id="text_4">
    <g clip-path="url(#paa54a21377)">
     <!-- 3 -->
     <g transform="translate(116.140759 190.865362) scale(0.1 -0.1)">
      <defs>
       <path id="DejaVuSans-33" d="M 2597 2516 
Q 3050 2419 3304 2112 
Q 3559 1806 3559 1356 
Q 3559 666 3084 287 
Q 2609 -91 1734 -91 
Q 1441 -91 1130 -33 
Q 819 25 488 141 
L 488 750 
Q 750 597 1062 519 
Q 1375 441 1716 441 
Q 2309 441 2620 675 
Q 2931 909 2931 1356 
Q 2931 1769 2642 2001 
Q 2353 2234 1838 2234 
L 1294 2234 
L 1294 2753 
L 1863 2753 
Q 2328 2753 2575 2939 
Q 2822 3125 2822 3475 
Q 2822 3834 2567 4026 
Q 2313 4219 1838 4219 
Q 1578 4219 1281 4162 
Q 984 4106 628 3988 
L 628 4550 
Q 988 4650 1302 4700 
Q 1616 4750 1894 4750 
Q 2613 4750 3031 4423 
Q 3450 4097 3450 3541 
Q 3450 3153 3228 2886 
Q 3006 2619 2597 2516 
z
" transform="scale(0.015625)"/>
      </defs>
      <use xlink:href="#DejaVuSans-33"/>
     </g>
    </g>
   </g>
   <g id="text_5">
    <g clip-path="url(#paa54a21377)">
     <!-- 4 -->
     <g transform="translate(213.577388 62.232521) scale(0.1 -0.1)">
      <defs>
       <path id="DejaVuSans-34" d="M 2419 4116 
L 825 1625 
L 2419 1625 
L 2419 4116 
z
M 2253 4666 
L 3047 4666 
L 3047 1625 
L 3713 1625 
L 3713 1100 
L 3047 1100 
L 3047 0 
L 2419 0 
L 2419 1100 
L 313 1100 
L 313 1709 
L 2253 4666 
z
" transform="scale(0.015625)"/>
      </defs>
      <use xlink:href="#DejaVuSans-34"/>
     </g>
    </g>
   </g>
   <g id="text_6">
    <g clip-path="url(#paa54a21377)">
     <!-- 5 -->
     <g transform="translate(292.992532 57.186373) scale(0.1 -0.1)">
      <defs>
       <path id="DejaVuSans-35" d="M 691 4666 
L 3169 4666 
L 3169 4134 
L 1269 4134 
L 1269 2991 
Q 1406 3038 1543 3061 
Q 1681 3084 1819 3084 
Q 2600 3084 3056 2656 
Q 3513 2228 3513 1497 
Q 3513 744 3044 326 
Q 2575 -91 1722 -91 
Q 1428 -91 1123 -41 
Q 819 9 494 109 
L 494 744 
Q 775 591 1075 516 
Q 1375 441 1709 441 
Q 2250 441 2565 725 
Q 2881 1009 2881 1497 
Q 2881 1984 2565 2268 
Q 2250 2553 1709 2553 
Q 1456 2553 1204 2497 
Q 953 2441 691 2322 
L 691 4666 
z
" transform="scale(0.015625)"/>
      </defs>
      <use xlink:href="#DejaVuSans-35"/>
     </g>
    </g>
   </g>
   <g id="text_7">
    <g clip-path="url(#paa54a21377)">
     <!-- 6 -->
     <g transform="translate(129.634137 71.248751) scale(0.1 -0.1)">
      <defs>
       <path id="DejaVuSans-36" d="M 2113 2584 
Q 1688 2584 1439 2293 
Q 1191 2003 1191 1497 
Q 1191 994 1439 701 
Q 1688 409 2113 409 
Q 2538 409 2786 701 
Q 3034 994 3034 1497 
Q 3034 2003 2786 2293 
Q 2538 2584 2113 2584 
z
M 3366 4563 
L 3366 3988 
Q 3128 4100 2886 4159 
Q 2644 4219 2406 4219 
Q 1781 4219 1451 3797 
Q 1122 3375 1075 2522 
Q 1259 2794 1537 2939 
Q 1816 3084 2150 3084 
Q 2853 3084 3261 2657 
Q 3669 2231 3669 1497 
Q 3669 778 3244 343 
Q 2819 -91 2113 -91 
Q 1303 -91 875 529 
Q 447 1150 447 2328 
Q 447 3434 972 4092 
Q 1497 4750 2381 4750 
Q 2619 4750 2861 4703 
Q 3103 4656 3366 4563 
z
" transform="scale(0.015625)"/>
      </defs>
      <use xlink:href="#DejaVuSans-36"/>
     </g>
    </g>
   </g>
   <g id="text_8">
    <g clip-path="url(#paa54a21377)">
     <!-- 7 -->
     <g transform="translate(72.258394 55.898988) scale(0.1 -0.1)">
      <defs>
       <path id="DejaVuSans-37" d="M 525 4666 
L 3525 4666 
L 3525 4397 
L 1831 0 
L 1172 0 
L 2766 4134 
L 525 4134 
L 525 4666 
z
" transform="scale(0.015625)"/>
      </defs>
      <use xlink:href="#DejaVuSans-37"/>
     </g>
    </g>
   </g>
   <g id="text_9">
    <g clip-path="url(#paa54a21377)">
     <!-- 8 -->
     <g transform="translate(407.536749 32.749458) scale(0.1 -0.1)">
      <defs>
       <path id="DejaVuSans-38" d="M 2034 2216 
Q 1584 2216 1326 1975 
Q 1069 1734 1069 1313 
Q 1069 891 1326 650 
Q 1584 409 2034 409 
Q 2484 409 2743 651 
Q 3003 894 3003 1313 
Q 3003 1734 2745 1975 
Q 2488 2216 2034 2216 
z
M 1403 2484 
Q 997 2584 770 2862 
Q 544 3141 544 3541 
Q 544 4100 942 4425 
Q 1341 4750 2034 4750 
Q 2731 4750 3128 4425 
Q 3525 4100 3525 3541 
Q 3525 3141 3298 2862 
Q 3072 2584 2669 2484 
Q 3125 2378 3379 2068 
Q 3634 1759 3634 1313 
Q 3634 634 3220 271 
Q 2806 -91 2034 -91 
Q 1263 -91 848 271 
Q 434 634 434 1313 
Q 434 1759 690 2068 
Q 947 2378 1403 2484 
z
M 1172 3481 
Q 1172 3119 1398 2916 
Q 1625 2713 2034 2713 
Q 2441 2713 2670 2916 
Q 2900 3119 2900 3481 
Q 2900 3844 2670 4047 
Q 2441 4250 2034 4250 
Q 1625 4250 1398 4047 
Q 1172 3844 1172 3481 
z
" transform="scale(0.015625)"/>
      </defs>
      <use xlink:href="#DejaVuSans-38"/>
     </g>
    </g>
   </g>
   <g id="text_10">
    <g clip-path="url(#paa54a21377)">
     <!-- 9 -->
     <g transform="translate(369.295233 57.02748) scale(0.1 -0.1)">
      <defs>
       <path id="DejaVuSans-39" d="M 703 97 
L 703 672 
Q 941 559 1184 500 
Q 1428 441 1663 441 
Q 2288 441 2617 861 
Q 2947 1281 2994 2138 
Q 2813 1869 2534 1725 
Q 2256 1581 1919 1581 
Q 1219 1581 811 2004 
Q 403 2428 403 3163 
Q 403 3881 828 4315 
Q 1253 4750 1959 4750 
Q 2769 4750 3195 4129 
Q 3622 3509 3622 2328 
Q 3622 1225 3098 567 
Q 2575 -91 1691 -91 
Q 1453 -91 1209 -44 
Q 966 3 703 97 
z
M 1959 2075 
Q 2384 2075 2632 2365 
Q 2881 2656 2881 3163 
Q 2881 3666 2632 3958 
Q 2384 4250 1959 4250 
Q 1534 4250 1286 3958 
Q 1038 3666 1038 3163 
Q 1038 2656 1286 2365 
Q 1534 2075 1959 2075 
z
" transform="scale(0.015625)"/>
      </defs>
      <use xlink:href="#DejaVuSans-39"/>
     </g>
    </g>
   </g>
   <g id="text_11">
    <g clip-path="url(#paa54a21377)">
     <!-- 10 -->
     <g transform="translate(164.846988 251.312369) scale(0.1 -0.1)">
      <use xlink:href="#DejaVuSans-31"/>
      <use xlink:href="#DejaVuSans-30" x="63.623047"/>
     </g>
    </g>
   </g>
   <g id="text_12">
    <g clip-path="url(#paa54a21377)">
     <!-- 11 -->
     <g transform="translate(159.262947 209.589003) scale(0.1 -0.1)">
      <use xlink:href="#DejaVuSans-31"/>
      <use xlink:href="#DejaVuSans-31" x="63.623047"/>
     </g>
    </g>
   </g>
   <g id="text_13">
    <g clip-path="url(#paa54a21377)">
     <!-- 12 -->
     <g transform="translate(33.624277 315.513706) scale(0.1 -0.1)">
      <use xlink:href="#DejaVuSans-31"/>
      <use xlink:href="#DejaVuSans-32" x="63.623047"/>
     </g>
    </g>
   </g>
   <g id="text_14">
    <g clip-path="url(#paa54a21377)">
     <!-- 13 -->
     <g transform="translate(158.349347 78.319531) scale(0.1 -0.1)">
      <use xlink:href="#DejaVuSans-31"/>
      <use xlink:href="#DejaVuSans-33" x="63.623047"/>
     </g>
    </g>
   </g>
   <g id="text_15">
    <g clip-path="url(#paa54a21377)">
     <!-- 14 -->
     <g transform="translate(357.617949 249.401309) scale(0.1 -0.1)">
      <use xlink:href="#DejaVuSans-31"/>
      <use xlink:href="#DejaVuSans-34" x="63.623047"/>
     </g>
    </g>
   </g>
   <g id="text_16">
    <g clip-path="url(#paa54a21377)">
     <!-- 15 -->
     <g transform="translate(369.756009 191.27819) scale(0.1 -0.1)">
      <use xlink:href="#DejaVuSans-31"/>
      <use xlink:href="#DejaVuSans-35" x="63.623047"/>
     </g>
    </g>
   </g>
   <g id="text_17">
    <g clip-path="url(#paa54a21377)">
     <!-- 16 -->
     <g transform="translate(385.705796 142.00397) scale(0.1 -0.1)">
      <use xlink:href="#DejaVuSans-31"/>
      <use xlink:href="#DejaVuSans-36" x="63.623047"/>
     </g>
    </g>
   </g>
   <g id="text_18">
    <g clip-path="url(#paa54a21377)">
     <!-- 17 -->
     <g transform="translate(390.989014 96.692302) scale(0.1 -0.1)">
      <use xlink:href="#DejaVuSans-31"/>
      <use xlink:href="#DejaVuSans-37" x="63.623047"/>
     </g>
    </g>
   </g>
   <g id="text_19">
    <g clip-path="url(#paa54a21377)">
     <!-- 18 -->
     <g transform="translate(414.450723 67.730685) scale(0.1 -0.1)">
      <use xlink:href="#DejaVuSans-31"/>
      <use xlink:href="#DejaVuSans-38" x="63.623047"/>
     </g>
    </g>
   </g>
   <g id="text_20">
    <g clip-path="url(#paa54a21377)">
     <!-- 19 -->
     <g transform="translate(102.505523 66.357644) scale(0.1 -0.1)">
      <use xlink:href="#DejaVuSans-31"/>
      <use xlink:href="#DejaVuSans-39" x="63.623047"/>
     </g>
    </g>
   </g>
   <g id="text_21">
    <g clip-path="url(#paa54a21377)">
     <!-- 20 -->
     <g transform="translate(399.598337 275.540222) scale(0.1 -0.1)">
      <use xlink:href="#DejaVuSans-32"/>
      <use xlink:href="#DejaVuSans-30" x="63.623047"/>
     </g>
    </g>
   </g>
   <g id="text_22">
    <g clip-path="url(#paa54a21377)">
     <!-- 21 -->
     <g transform="translate(309.541152 318.369292) scale(0.1 -0.1)">
      <use xlink:href="#DejaVuSans-32"/>
      <use xlink:href="#DejaVuSans-31" x="63.623047"/>
     </g>
    </g>
   </g>
   <g id="text_23">
    <g clip-path="url(#paa54a21377)">
     <!-- 22 -->
     <g transform="translate(115.528639 151.026123) scale(0.1 -0.1)">
      <use xlink:href="#DejaVuSans-32"/>
      <use xlink:href="#DejaVuSans-32" x="63.623047"/>
     </g>
    </g>
   </g>
   <g id="text_24">
    <g clip-path="url(#paa54a21377)">
     <!-- 23 -->
     <g transform="translate(66.496573 232.245261) scale(0.1 -0.1)">
      <use xlink:href="#DejaVuSans-32"/>
      <use xlink:href="#DejaVuSans-33" x="63.623047"/>
     </g>
    </g>
   </g>
   <g id="text_25">
    <g clip-path="url(#paa54a21377)">
     <!-- 24 -->
     <g transform="translate(335.913507 257.519363) scale(0.1 -0.1)">
      <use xlink:href="#DejaVuSans-32"/>
      <use xlink:href="#DejaVuSans-34" x="63.623047"/>
     </g>
    </g>
   </g>
   <g id="text_26">
    <g clip-path="url(#paa54a21377)">
     <!-- 25 -->
     <g transform="translate(295.834819 272.102135) scale(0.1 -0.1)">
      <use xlink:href="#DejaVuSans-32"/>
      <use xlink:href="#DejaVuSans-35" x="63.623047"/>
     </g>
    </g>
   </g>
   <g id="text_27">
    <g clip-path="url(#paa54a21377)">
     <!-- 26 -->
     <g transform="translate(228.491028 246.418113) scale(0.1 -0.1)">
      <use xlink:href="#DejaVuSans-32"/>
      <use xlink:href="#DejaVuSans-36" x="63.623047"/>
     </g>
    </g>
   </g>
   <g id="text_28">
    <g clip-path="url(#paa54a21377)">
     <!-- 27 -->
     <g transform="translate(75.386126 306.982827) scale(0.1 -0.1)">
      <use xlink:href="#DejaVuSans-32"/>
      <use xlink:href="#DejaVuSans-37" x="63.623047"/>
     </g>
    </g>
   </g>
   <g id="text_29">
    <g clip-path="url(#paa54a21377)">
     <!-- 28 -->
     <g transform="translate(116.974296 266.44697) scale(0.1 -0.1)">
      <use xlink:href="#DejaVuSans-32"/>
      <use xlink:href="#DejaVuSans-38" x="63.623047"/>
     </g>
    </g>
   </g>
   <g id="text_30">
    <g clip-path="url(#paa54a21377)">
     <!-- 29 -->
     <g transform="translate(91.534291 95.853503) scale(0.1 -0.1)">
      <use xlink:href="#DejaVuSans-32"/>
      <use xlink:href="#DejaVuSans-39" x="63.623047"/>
     </g>
    </g>
   </g>
   <g id="text_31">
    <g clip-path="url(#paa54a21377)">
     <!-- 30 -->
     <g transform="translate(130.766879 114.23416) scale(0.1 -0.1)">
      <use xlink:href="#DejaVuSans-33"/>
      <use xlink:href="#DejaVuSans-30" x="63.623047"/>
     </g>
    </g>
   </g>
   <g id="text_32">
    <g clip-path="url(#paa54a21377)">
     <!-- 31 -->
     <g transform="translate(135.877659 54.910453) scale(0.1 -0.1)">
      <use xlink:href="#DejaVuSans-33"/>
      <use xlink:href="#DejaVuSans-31" x="63.623047"/>
     </g>
    </g>
   </g>
  </g>
 </g>
 <defs>
  <clipPath id="paa54a21377">
   <rect x="0" y="0" width="460.8" height="345.6"/>
  </clipPath>
 </defs>
</svg>
