<?xml version="1.0" encoding="utf-8" standalone="no"?>
<!DOCTYPE svg PUBLIC "-//W3C//DTD SVG 1.1//EN"
  "http://www.w3.org/Graphics/SVG/1.1/DTD/svg11.dtd">
<svg xmlns:xlink="http://www.w3.org/1999/xlink" width="460.8pt" height="345.6pt" viewBox="0 0 460.8 345.6" xmlns="http://www.w3.org/2000/svg" version="1.1">
 <metadata>
  <rdf:RDF xmlns:dc="http://purl.org/dc/elements/1.1/" xmlns:cc="http://creativecommons.org/ns#" xmlns:rdf="http://www.w3.org/1999/02/22-rdf-syntax-ns#">
   <cc:Work>
    <dc:type rdf:resource="http://purl.org/dc/dcmitype/StillImage"/>
    <dc:date>2023-10-10T10:56:28.731986</dc:date>
    <dc:format>image/svg+xml</dc:format>
    <dc:creator>
     <cc:Agent>
      <dc:title>Matplotlib v3.6.1, https://matplotlib.org/</dc:title>
     </cc:Agent>
    </dc:creator>
   </cc:Work>
  </rdf:RDF>
 </metadata>
 <defs>
  <style type="text/css">*{stroke-linejoin: round; stroke-linecap: butt}</style>
 </defs>
 <g id="figure_1">
  <g id="patch_1">
   <path d="M 0 345.6 
L 460.8 345.6 
L 460.8 0 
L 0 0 
z
" style="fill: #ffffff"/>
  </g>
  <g id="axes_1">
   <g id="patch_2">
    <path d="M 258.880261 68.623137 
Q 232.223368 78.787718 206.611139 88.553956 
" clip-path="url(#p32b15c3313)" style="fill: none; stroke: #000000; stroke-linecap: round"/>
    <path d="M 211.06122 88.997555 
L 206.611139 88.553956 
L 209.636066 85.260051 
L 211.06122 88.997555 
z
" clip-path="url(#p32b15c3313)" style="stroke: #000000; stroke-linecap: round"/>
   </g>
   <g id="patch_3">
    <path d="M 154.003077 52.078575 
Q 178.108572 70.276403 201.321753 87.800601 
" clip-path="url(#p32b15c3313)" style="fill: none; stroke: #000000; stroke-linecap: round"/>
    <path d="M 199.334339 83.794332 
L 201.321753 87.800601 
L 196.92429 86.98677 
L 199.334339 83.794332 
z
" clip-path="url(#p32b15c3313)" style="stroke: #000000; stroke-linecap: round"/>
   </g>
   <g id="patch_4">
    <path d="M 223.741874 116.975083 
Q 214.322859 104.09058 205.563659 92.108653 
" clip-path="url(#p32b15c3313)" style="fill: none; stroke: #000000; stroke-linecap: round"/>
    <path d="M 206.309706 96.518122 
L 205.563659 92.108653 
L 209.538862 94.157498 
L 206.309706 96.518122 
z
" clip-path="url(#p32b15c3313)" style="stroke: #000000; stroke-linecap: round"/>
   </g>
   <g id="patch_5">
    <path d="M 178.105989 37.881238 
Q 190.503113 62.894017 202.403741 86.905052 
" clip-path="url(#p32b15c3313)" style="fill: none; stroke: #000000; stroke-linecap: round"/>
    <path d="M 202.419397 82.432943 
L 202.403741 86.905052 
L 198.835448 84.209262 
L 202.419397 82.432943 
z
" clip-path="url(#p32b15c3313)" style="stroke: #000000; stroke-linecap: round"/>
   </g>
   <g id="patch_6">
    <path d="M 281.506876 123.513872 
Q 243.521923 106.964653 206.56195 90.861996 
" clip-path="url(#p32b15c3313)" style="fill: none; stroke: #000000; stroke-linecap: round"/>
    <path d="M 209.430195 94.293201 
L 206.56195 90.861996 
L 211.027861 90.626123 
L 209.430195 94.293201 
z
" clip-path="url(#p32b15c3313)" style="stroke: #000000; stroke-linecap: round"/>
   </g>
   <g id="patch_7">
    <path d="M 284.883178 125.372007 
Q 312.383405 143.997864 338.957938 161.99675 
" clip-path="url(#p32b15c3313)" style="fill: none; stroke: #000000; stroke-linecap: round"/>
    <path d="M 336.767636 158.097702 
L 338.957938 161.99675 
L 334.524519 161.409563 
L 336.767636 158.097702 
z
" clip-path="url(#p32b15c3313)" style="stroke: #000000; stroke-linecap: round"/>
   </g>
   <g id="patch_8">
    <path d="M 265.656132 144.140053 
Q 292.007853 163.496491 317.458505 182.191056 
" clip-path="url(#p32b15c3313)" style="fill: none; stroke: #000000; stroke-linecap: round"/>
    <path d="M 315.418738 178.211189 
L 317.458505 182.191056 
L 313.050751 181.43495 
L 315.418738 178.211189 
z
" clip-path="url(#p32b15c3313)" style="stroke: #000000; stroke-linecap: round"/>
   </g>
   <g id="patch_9">
    <path d="M 262.644941 141.711524 
Q 233.926601 116.316745 206.045808 91.662585 
" clip-path="url(#p32b15c3313)" style="fill: none; stroke: #000000; stroke-linecap: round"/>
    <path d="M 207.71745 95.81055 
L 206.045808 91.662585 
L 210.367165 92.814051 
L 207.71745 95.81055 
z
" clip-path="url(#p32b15c3313)" style="stroke: #000000; stroke-linecap: round"/>
   </g>
   <g id="patch_10">
    <path d="M 176.426123 63.251083 
Q 189.3973 75.774462 201.564146 87.521276 
" clip-path="url(#p32b15c3313)" style="fill: none; stroke: #000000; stroke-linecap: round"/>
    <path d="M 200.075642 83.304126 
L 201.564146 87.521276 
L 197.297323 86.181789 
L 200.075642 83.304126 
z
" clip-path="url(#p32b15c3313)" style="stroke: #000000; stroke-linecap: round"/>
   </g>
   <g id="patch_11">
    <path d="M 339.887895 162.626608 
Q 312.387669 144.000751 285.813135 126.001865 
" clip-path="url(#p32b15c3313)" style="fill: none; stroke: #000000; stroke-linecap: round"/>
    <path d="M 288.003437 129.900913 
L 285.813135 126.001865 
L 290.246555 126.589052 
L 288.003437 129.900913 
z
" clip-path="url(#p32b15c3313)" style="stroke: #000000; stroke-linecap: round"/>
   </g>
   <g id="patch_12">
    <path d="M 342.586627 165.307381 
Q 356.895948 186.130644 370.572071 206.032463 
" clip-path="url(#p32b15c3313)" style="fill: none; stroke: #000000; stroke-linecap: round"/>
    <path d="M 369.955003 201.603103 
L 370.572071 206.032463 
L 366.658343 203.868501 
L 369.955003 201.603103 
z
" clip-path="url(#p32b15c3313)" style="stroke: #000000; stroke-linecap: round"/>
   </g>
   <g id="patch_13">
    <path d="M 318.355502 182.849938 
Q 292.003781 163.4935 266.553128 144.798934 
" clip-path="url(#p32b15c3313)" style="fill: none; stroke: #000000; stroke-linecap: round"/>
    <path d="M 268.592896 148.778802 
L 266.553128 144.798934 
L 270.960883 145.555041 
L 268.592896 148.778802 
z
" clip-path="url(#p32b15c3313)" style="stroke: #000000; stroke-linecap: round"/>
   </g>
   <g id="patch_14">
    <path d="M 321.674781 184.821464 
Q 346.112638 196.275495 369.538142 207.255036 
" clip-path="url(#p32b15c3313)" style="fill: none; stroke: #000000; stroke-linecap: round"/>
    <path d="M 366.765031 203.746495 
L 369.538142 207.255036 
L 365.067443 207.3684 
L 366.765031 203.746495 
z
" clip-path="url(#p32b15c3313)" style="stroke: #000000; stroke-linecap: round"/>
   </g>
   <g id="patch_15">
    <path d="M 243.227856 54.522692 
Q 224.217741 71.437828 206.042878 87.609758 
" clip-path="url(#p32b15c3313)" style="fill: none; stroke: #000000; stroke-linecap: round"/>
    <path d="M 210.360653 86.444933 
L 206.042878 87.609758 
L 207.701683 83.456643 
L 210.360653 86.444933 
z
" clip-path="url(#p32b15c3313)" style="stroke: #000000; stroke-linecap: round"/>
   </g>
   <g id="patch_16">
    <path d="M 231.177576 36.313556 
Q 217.911342 62.116459 205.156321 86.925049 
" clip-path="url(#p32b15c3313)" style="fill: none; stroke: #000000; stroke-linecap: round"/>
    <path d="M 208.763978 84.28217 
L 205.156321 86.925049 
L 205.206613 82.453196 
L 208.763978 84.28217 
z
" clip-path="url(#p32b15c3313)" style="stroke: #000000; stroke-linecap: round"/>
   </g>
   <g id="patch_17">
    <path d="M 396.716337 246.164178 
Q 385.036202 228.168995 373.96477 211.11162 
" clip-path="url(#p32b15c3313)" style="fill: none; stroke: #000000; stroke-linecap: round"/>
    <path d="M 374.46493 215.555699 
L 373.96477 211.11162 
L 377.820129 213.377939 
L 374.46493 215.555699 
z
" clip-path="url(#p32b15c3313)" style="stroke: #000000; stroke-linecap: round"/>
   </g>
   <g id="patch_18">
    <path d="M 371.206157 206.955199 
Q 356.896836 186.131936 343.220713 166.230117 
" clip-path="url(#p32b15c3313)" style="fill: none; stroke: #000000; stroke-linecap: round"/>
    <path d="M 343.83778 170.659477 
L 343.220713 166.230117 
L 347.134441 168.394079 
L 343.83778 170.659477 
z
" clip-path="url(#p32b15c3313)" style="stroke: #000000; stroke-linecap: round"/>
   </g>
   <g id="patch_19">
    <path d="M 370.547301 207.728028 
Q 346.109443 196.273997 322.68394 185.294457 
" clip-path="url(#p32b15c3313)" style="fill: none; stroke: #000000; stroke-linecap: round"/>
    <path d="M 325.45705 188.802997 
L 322.68394 185.294457 
L 327.154638 185.181092 
L 325.45705 188.802997 
z
" clip-path="url(#p32b15c3313)" style="stroke: #000000; stroke-linecap: round"/>
   </g>
   <g id="patch_20">
    <path d="M 373.358088 210.176927 
Q 385.038223 228.172109 396.109656 245.229485 
" clip-path="url(#p32b15c3313)" style="fill: none; stroke: #000000; stroke-linecap: round"/>
    <path d="M 395.609496 240.785405 
L 396.109656 245.229485 
L 392.254297 242.963165 
L 395.609496 240.785405 
z
" clip-path="url(#p32b15c3313)" style="stroke: #000000; stroke-linecap: round"/>
   </g>
   <g id="patch_21">
    <path d="M 374.153102 209.113034 
Q 396.556169 215.920526 417.889497 222.402963 
" clip-path="url(#p32b15c3313)" style="fill: none; stroke: #000000; stroke-linecap: round"/>
    <path d="M 414.643763 219.326405 
L 417.889497 222.402963 
L 413.48081 223.153616 
L 414.643763 219.326405 
z
" clip-path="url(#p32b15c3313)" style="stroke: #000000; stroke-linecap: round"/>
   </g>
   <g id="patch_22">
    <path d="M 147.245901 76.123811 
Q 174.559484 82.65685 200.785704 88.929807 
" clip-path="url(#p32b15c3313)" style="fill: none; stroke: #000000; stroke-linecap: round"/>
    <path d="M 197.360688 86.054175 
L 200.785704 88.929807 
L 196.430189 89.944441 
L 197.360688 86.054175 
z
" clip-path="url(#p32b15c3313)" style="stroke: #000000; stroke-linecap: round"/>
   </g>
   <g id="patch_23">
    <path d="M 202.519735 31.923355 
Q 203.119018 59.815256 203.694284 86.589382 
" clip-path="url(#p32b15c3313)" style="fill: none; stroke: #000000; stroke-linecap: round"/>
    <path d="M 205.607899 82.547343 
L 203.694284 86.589382 
L 201.608822 82.633266 
L 205.607899 82.547343 
z
" clip-path="url(#p32b15c3313)" style="stroke: #000000; stroke-linecap: round"/>
   </g>
   <g id="patch_24">
    <path d="M 185.36032 119.450234 
Q 194.05136 105.369897 202.155157 92.240952 
" clip-path="url(#p32b15c3313)" style="fill: none; stroke: #000000; stroke-linecap: round"/>
    <path d="M 198.352272 94.594261 
L 202.155157 92.240952 
L 201.756073 96.695245 
L 198.352272 94.594261 
z
" clip-path="url(#p32b15c3313)" style="stroke: #000000; stroke-linecap: round"/>
   </g>
   <g id="patch_25">
    <path d="M 158.233444 97.691879 
Q 180.042162 93.835319 200.749927 90.173447 
" clip-path="url(#p32b15c3313)" style="fill: none; stroke: #000000; stroke-linecap: round"/>
    <path d="M 196.462771 88.900539 
L 200.749927 90.173447 
L 197.159307 92.839427 
L 196.462771 88.900539 
z
" clip-path="url(#p32b15c3313)" style="stroke: #000000; stroke-linecap: round"/>
   </g>
   <g id="patch_26">
    <path d="M 118.414059 313.909229 
Q 108.744464 296.177972 99.610158 279.42828 
" clip-path="url(#p32b15c3313)" style="fill: none; stroke: #000000; stroke-linecap: round"/>
    <path d="M 99.769387 283.89758 
L 99.610158 279.42828 
L 103.281135 281.982477 
L 99.769387 283.89758 
z
" clip-path="url(#p32b15c3313)" style="stroke: #000000; stroke-linecap: round"/>
   </g>
   <g id="patch_27">
    <path d="M 146.914801 272.037168 
Q 143.307071 254.002911 139.918657 237.064967 
" clip-path="url(#p32b15c3313)" style="fill: none; stroke: #000000; stroke-linecap: round"/>
    <path d="M 138.742162 241.379577 
L 139.918657 237.064967 
L 142.664448 240.594928 
L 138.742162 241.379577 
z
" clip-path="url(#p32b15c3313)" style="stroke: #000000; stroke-linecap: round"/>
   </g>
   <g id="patch_28">
    <path d="M 418.962688 222.729068 
Q 396.559622 215.921576 375.226294 209.439139 
" clip-path="url(#p32b15c3313)" style="fill: none; stroke: #000000; stroke-linecap: round"/>
    <path d="M 378.472028 212.515697 
L 375.226294 209.439139 
L 379.634981 208.688486 
L 378.472028 212.515697 
z
" clip-path="url(#p32b15c3313)" style="stroke: #000000; stroke-linecap: round"/>
   </g>
   <g id="patch_29">
    <path d="M 205.570214 88.950873 
Q 232.227107 78.786292 257.839337 69.020054 
" clip-path="url(#p32b15c3313)" style="fill: none; stroke: #000000; stroke-linecap: round"/>
    <path d="M 253.389256 68.576455 
L 257.839337 69.020054 
L 254.814409 72.313959 
L 253.389256 68.576455 
z
" clip-path="url(#p32b15c3313)" style="stroke: #000000; stroke-linecap: round"/>
   </g>
   <g id="patch_30">
    <path d="M 202.216208 88.475847 
Q 178.110714 70.27802 154.897533 52.753821 
" clip-path="url(#p32b15c3313)" style="fill: none; stroke: #000000; stroke-linecap: round"/>
    <path d="M 156.884946 56.76009 
L 154.897533 52.753821 
L 159.294996 53.567652 
L 156.884946 56.76009 
z
" clip-path="url(#p32b15c3313)" style="stroke: #000000; stroke-linecap: round"/>
   </g>
   <g id="patch_31">
    <path d="M 204.9022 91.203827 
Q 214.321215 104.08833 223.080414 116.070257 
" clip-path="url(#p32b15c3313)" style="fill: none; stroke: #000000; stroke-linecap: round"/>
    <path d="M 222.334368 111.660788 
L 223.080414 116.070257 
L 219.105212 114.021412 
L 222.334368 111.660788 
z
" clip-path="url(#p32b15c3313)" style="stroke: #000000; stroke-linecap: round"/>
   </g>
   <g id="patch_32">
    <path d="M 202.900572 87.907472 
Q 190.503448 62.894693 178.60282 38.883658 
" clip-path="url(#p32b15c3313)" style="fill: none; stroke: #000000; stroke-linecap: round"/>
    <path d="M 178.587164 43.355767 
L 178.60282 38.883658 
L 182.171114 41.579448 
L 178.587164 43.355767 
z
" clip-path="url(#p32b15c3313)" style="stroke: #000000; stroke-linecap: round"/>
   </g>
   <g id="patch_33">
    <path d="M 205.533837 90.414069 
Q 243.51879 106.963288 280.478763 123.065946 
" clip-path="url(#p32b15c3313)" style="fill: none; stroke: #000000; stroke-linecap: round"/>
    <path d="M 277.610518 119.634741 
L 280.478763 123.065946 
L 276.012852 123.301819 
L 277.610518 119.634741 
z
" clip-path="url(#p32b15c3313)" style="stroke: #000000; stroke-linecap: round"/>
   </g>
   <g id="patch_34">
    <path d="M 205.207034 90.920881 
Q 233.925373 116.31566 261.806166 140.96982 
" clip-path="url(#p32b15c3313)" style="fill: none; stroke: #000000; stroke-linecap: round"/>
    <path d="M 260.134525 136.821855 
L 261.806166 140.96982 
L 257.484809 139.818354 
L 260.134525 136.821855 
z
" clip-path="url(#p32b15c3313)" style="stroke: #000000; stroke-linecap: round"/>
   </g>
   <g id="patch_35">
    <path d="M 202.367746 88.297134 
Q 189.396568 75.773755 177.229723 64.02694 
" clip-path="url(#p32b15c3313)" style="fill: none; stroke: #000000; stroke-linecap: round"/>
    <path d="M 178.718226 68.244091 
L 177.229723 64.02694 
L 181.496545 65.366427 
L 178.718226 68.244091 
z
" clip-path="url(#p32b15c3313)" style="stroke: #000000; stroke-linecap: round"/>
   </g>
   <g id="patch_36">
    <path d="M 205.205725 88.354654 
Q 224.21584 71.439519 242.390703 55.267588 
" clip-path="url(#p32b15c3313)" style="fill: none; stroke: #000000; stroke-linecap: round"/>
    <path d="M 238.072928 56.432413 
L 242.390703 55.267588 
L 240.731898 59.420703 
L 238.072928 56.432413 
z
" clip-path="url(#p32b15c3313)" style="stroke: #000000; stroke-linecap: round"/>
   </g>
   <g id="patch_37">
    <path d="M 204.646081 87.917469 
Q 217.912315 62.114566 230.667336 37.305976 
" clip-path="url(#p32b15c3313)" style="fill: none; stroke: #000000; stroke-linecap: round"/>
    <path d="M 227.059678 39.948855 
L 230.667336 37.305976 
L 230.617044 41.777829 
L 227.059678 39.948855 
z
" clip-path="url(#p32b15c3313)" style="stroke: #000000; stroke-linecap: round"/>
   </g>
   <g id="patch_38">
    <path d="M 201.874274 89.190179 
Q 174.560691 82.657139 148.334471 76.384182 
" clip-path="url(#p32b15c3313)" style="fill: none; stroke: #000000; stroke-linecap: round"/>
    <path d="M 151.759487 79.259814 
L 148.334471 76.384182 
L 152.689986 75.369548 
L 151.759487 79.259814 
z
" clip-path="url(#p32b15c3313)" style="stroke: #000000; stroke-linecap: round"/>
   </g>
   <g id="patch_39">
    <path d="M 203.718317 87.707912 
Q 203.119034 59.81601 202.543767 33.041885 
" clip-path="url(#p32b15c3313)" style="fill: none; stroke: #000000; stroke-linecap: round"/>
    <path d="M 200.630153 37.083924 
L 202.543767 33.041885 
L 204.62923 36.998 
L 200.630153 37.083924 
z
" clip-path="url(#p32b15c3313)" style="stroke: #000000; stroke-linecap: round"/>
   </g>
   <g id="patch_40">
    <path d="M 202.743057 91.288496 
Q 194.052017 105.368833 185.94822 118.497778 
" clip-path="url(#p32b15c3313)" style="fill: none; stroke: #000000; stroke-linecap: round"/>
    <path d="M 189.751105 116.144469 
L 185.94822 118.497778 
L 186.347304 114.043484 
L 189.751105 116.144469 
z
" clip-path="url(#p32b15c3313)" style="stroke: #000000; stroke-linecap: round"/>
   </g>
   <g id="patch_41">
    <path d="M 201.851944 89.978571 
Q 180.043225 93.835131 159.33546 97.497003 
" clip-path="url(#p32b15c3313)" style="fill: none; stroke: #000000; stroke-linecap: round"/>
    <path d="M 163.622616 98.769911 
L 159.33546 97.497003 
L 162.92608 94.831023 
L 163.622616 98.769911 
z
" clip-path="url(#p32b15c3313)" style="stroke: #000000; stroke-linecap: round"/>
   </g>
   <g id="patch_42">
    <path d="M 205.69813 89.660162 
Q 227.637261 89.874976 248.458411 90.078844 
" clip-path="url(#p32b15c3313)" style="fill: none; stroke: #000000; stroke-linecap: round"/>
    <path d="M 244.478184 88.039776 
L 248.458411 90.078844 
L 244.439021 92.039584 
L 244.478184 88.039776 
z
" clip-path="url(#p32b15c3313)" style="stroke: #000000; stroke-linecap: round"/>
   </g>
   <g id="patch_43">
    <path d="M 204.184917 87.753321 
Q 207.915394 71.184831 211.400289 55.707069 
" clip-path="url(#p32b15c3313)" style="fill: none; stroke: #000000; stroke-linecap: round"/>
    <path d="M 208.57051 59.170066 
L 211.400289 55.707069 
L 212.472819 60.048691 
L 208.57051 59.170066 
z
" clip-path="url(#p32b15c3313)" style="stroke: #000000; stroke-linecap: round"/>
   </g>
   <g id="patch_44">
    <path d="M 202.043704 90.538864 
Q 165.294763 109.761421 129.536509 128.46577 
" clip-path="url(#p32b15c3313)" style="fill: none; stroke: #000000; stroke-linecap: round"/>
    <path d="M 134.007897 128.383973 
L 129.536509 128.46577 
L 132.153904 124.839582 
L 134.007897 128.383973 
z
" clip-path="url(#p32b15c3313)" style="stroke: #000000; stroke-linecap: round"/>
   </g>
   <g id="patch_45">
    <path d="M 202.98805 91.419132 
Q 187.055487 128.121787 171.568123 163.798871 
" clip-path="url(#p32b15c3313)" style="fill: none; stroke: #000000; stroke-linecap: round"/>
    <path d="M 174.995514 160.92607 
L 171.568123 163.798871 
L 171.326317 159.333277 
L 174.995514 160.92607 
z
" clip-path="url(#p32b15c3313)" style="stroke: #000000; stroke-linecap: round"/>
   </g>
   <g id="patch_46">
    <path d="M 249.576019 90.089786 
Q 227.636888 89.874973 206.815738 89.671105 
" clip-path="url(#p32b15c3313)" style="fill: none; stroke: #000000; stroke-linecap: round"/>
    <path d="M 210.795965 91.710173 
L 206.815738 89.671105 
L 210.835128 87.710365 
L 210.795965 91.710173 
z
" clip-path="url(#p32b15c3313)" style="stroke: #000000; stroke-linecap: round"/>
   </g>
   <g id="patch_47">
    <path d="M 99.075876 278.448561 
Q 108.745471 296.179818 117.879777 312.92951 
" clip-path="url(#p32b15c3313)" style="fill: none; stroke: #000000; stroke-linecap: round"/>
    <path d="M 117.720549 308.46021 
L 117.879777 312.92951 
L 114.2088 310.375313 
L 117.720549 308.46021 
z
" clip-path="url(#p32b15c3313)" style="stroke: #000000; stroke-linecap: round"/>
   </g>
   <g id="patch_48">
    <path d="M 99.492834 275.354383 
Q 118.734365 255.410481 137.199622 236.271188 
" clip-path="url(#p32b15c3313)" style="fill: none; stroke: #000000; stroke-linecap: round"/>
    <path d="M 132.983007 237.761209 
L 137.199622 236.271188 
L 135.861669 240.538492 
L 132.983007 237.761209 
z
" clip-path="url(#p32b15c3313)" style="stroke: #000000; stroke-linecap: round"/>
   </g>
   <g id="patch_49">
    <path d="M 96.305212 276.16094 
Q 73.754508 268.980119 52.269132 262.138531 
" clip-path="url(#p32b15c3313)" style="fill: none; stroke: #000000; stroke-linecap: round"/>
    <path d="M 55.473725 265.257919 
L 52.269132 262.138531 
L 56.687399 261.446489 
L 55.473725 265.257919 
z
" clip-path="url(#p32b15c3313)" style="stroke: #000000; stroke-linecap: round"/>
   </g>
   <g id="patch_50">
    <path d="M 51.204678 261.799576 
Q 73.755381 268.980397 95.240757 275.821986 
" clip-path="url(#p32b15c3313)" style="fill: none; stroke: #000000; stroke-linecap: round"/>
    <path d="M 92.036164 272.702597 
L 95.240757 275.821986 
L 90.822491 276.514027 
L 92.036164 272.702597 
z
" clip-path="url(#p32b15c3313)" style="stroke: #000000; stroke-linecap: round"/>
   </g>
   <g id="patch_51">
    <path d="M 48.959223 259.320879 
Q 44.674256 239.168687 40.621818 220.110081 
" clip-path="url(#p32b15c3313)" style="fill: none; stroke: #000000; stroke-linecap: round"/>
    <path d="M 39.497475 224.438574 
L 40.621818 220.110081 
L 43.410007 223.606651 
L 39.497475 224.438574 
z
" clip-path="url(#p32b15c3313)" style="stroke: #000000; stroke-linecap: round"/>
   </g>
   <g id="patch_52">
    <path d="M 40.389024 219.01525 
Q 44.673991 239.167441 48.726429 258.226047 
" clip-path="url(#p32b15c3313)" style="fill: none; stroke: #000000; stroke-linecap: round"/>
    <path d="M 49.850772 253.897554 
L 48.726429 258.226047 
L 45.93824 254.729477 
L 49.850772 253.897554 
z
" clip-path="url(#p32b15c3313)" style="stroke: #000000; stroke-linecap: round"/>
   </g>
   <g id="patch_53">
    <path d="M 41.052052 215.509111 
Q 55.162738 194.12505 68.657649 173.674166 
" clip-path="url(#p32b15c3313)" style="fill: none; stroke: #000000; stroke-linecap: round"/>
    <path d="M 64.785265 175.911272 
L 68.657649 173.674166 
L 68.123903 178.114337 
L 64.785265 175.911272 
z
" clip-path="url(#p32b15c3313)" style="stroke: #000000; stroke-linecap: round"/>
   </g>
   <g id="patch_54">
    <path d="M 211.645308 54.618846 
Q 207.91483 71.187336 204.429935 86.665097 
" clip-path="url(#p32b15c3313)" style="fill: none; stroke: #000000; stroke-linecap: round"/>
    <path d="M 207.259715 83.2021 
L 204.429935 86.665097 
L 203.357405 82.323476 
L 207.259715 83.2021 
z
" clip-path="url(#p32b15c3313)" style="stroke: #000000; stroke-linecap: round"/>
   </g>
   <g id="patch_55">
    <path d="M 128.547381 128.983161 
Q 165.296322 109.760605 201.054576 91.056255 
" clip-path="url(#p32b15c3313)" style="fill: none; stroke: #000000; stroke-linecap: round"/>
    <path d="M 196.583188 91.138052 
L 201.054576 91.056255 
L 198.437181 94.682444 
L 196.583188 91.138052 
z
" clip-path="url(#p32b15c3313)" style="stroke: #000000; stroke-linecap: round"/>
   </g>
   <g id="patch_56">
    <path d="M 125.269326 131.021161 
Q 98.587812 150.500887 72.809283 169.321359 
" clip-path="url(#p32b15c3313)" style="fill: none; stroke: #000000; stroke-linecap: round"/>
    <path d="M 77.219213 168.578047 
L 72.809283 169.321359 
L 74.860592 165.347427 
L 77.219213 168.578047 
z
" clip-path="url(#p32b15c3313)" style="stroke: #000000; stroke-linecap: round"/>
   </g>
   <g id="patch_57">
    <path d="M 69.275366 172.738046 
Q 55.16468 194.122107 41.66977 214.572991 
" clip-path="url(#p32b15c3313)" style="fill: none; stroke: #000000; stroke-linecap: round"/>
    <path d="M 45.542154 212.335885 
L 41.66977 214.572991 
L 42.203515 210.13282 
L 45.542154 212.335885 
z
" clip-path="url(#p32b15c3313)" style="stroke: #000000; stroke-linecap: round"/>
   </g>
   <g id="patch_58">
    <path d="M 71.902546 169.983352 
Q 98.58406 150.503626 124.362589 131.683155 
" clip-path="url(#p32b15c3313)" style="fill: none; stroke: #000000; stroke-linecap: round"/>
    <path d="M 119.952659 132.426466 
L 124.362589 131.683155 
L 122.31128 135.657086 
L 119.952659 132.426466 
z
" clip-path="url(#p32b15c3313)" style="stroke: #000000; stroke-linecap: round"/>
   </g>
   <g id="patch_59">
    <path d="M 139.700822 235.976058 
Q 143.308552 254.010315 146.696966 270.94826 
" clip-path="url(#p32b15c3313)" style="fill: none; stroke: #000000; stroke-linecap: round"/>
    <path d="M 147.873461 266.63365 
L 146.696966 270.94826 
L 143.951175 267.418298 
L 147.873461 266.63365 
z
" clip-path="url(#p32b15c3313)" style="stroke: #000000; stroke-linecap: round"/>
   </g>
   <g id="patch_60">
    <path d="M 137.975751 235.466728 
Q 118.73422 255.41063 100.268964 274.549923 
" clip-path="url(#p32b15c3313)" style="fill: none; stroke: #000000; stroke-linecap: round"/>
    <path d="M 104.485578 273.059902 
L 100.268964 274.549923 
L 101.606916 270.282619 
L 104.485578 273.059902 
z
" clip-path="url(#p32b15c3313)" style="stroke: #000000; stroke-linecap: round"/>
   </g>
   <g id="patch_61">
    <path d="M 140.128892 232.314818 
Q 154.835064 200.339078 169.074074 169.379093 
" clip-path="url(#p32b15c3313)" style="fill: none; stroke: #000000; stroke-linecap: round"/>
    <path d="M 165.585663 172.177484 
L 169.074074 169.379093 
L 169.21974 173.848856 
L 165.585663 172.177484 
z
" clip-path="url(#p32b15c3313)" style="stroke: #000000; stroke-linecap: round"/>
   </g>
   <g id="patch_62">
    <path d="M 171.122826 164.824668 
Q 187.055389 128.122013 202.542753 92.44493 
" clip-path="url(#p32b15c3313)" style="fill: none; stroke: #000000; stroke-linecap: round"/>
    <path d="M 199.115362 95.317731 
L 202.542753 92.44493 
L 202.784559 96.910524 
L 199.115362 95.317731 
z
" clip-path="url(#p32b15c3313)" style="stroke: #000000; stroke-linecap: round"/>
   </g>
   <g id="patch_63">
    <path d="M 169.542295 168.361037 
Q 154.836123 200.336777 140.597113 231.296762 
" clip-path="url(#p32b15c3313)" style="fill: none; stroke: #000000; stroke-linecap: round"/>
    <path d="M 144.085524 228.498371 
L 140.597113 231.296762 
L 140.451447 226.826999 
L 144.085524 228.498371 
z
" clip-path="url(#p32b15c3313)" style="stroke: #000000; stroke-linecap: round"/>
   </g>
   <g id="PathCollection_1">
    <defs>
     <path id="mdcba5033f7" d="M 0 1.936492 
C 0.513564 1.936492 1.006162 1.732451 1.369306 1.369306 
C 1.732451 1.006162 1.936492 0.513564 1.936492 0 
C 1.936492 -0.513564 1.732451 -1.006162 1.369306 -1.369306 
C 1.006162 -1.732451 0.513564 -1.936492 0 -1.936492 
C -0.513564 -1.936492 -1.006162 -1.732451 -1.369306 -1.369306 
C -1.732451 -1.006162 -1.936492 -0.513564 -1.936492 0 
C -1.936492 0.513564 -1.732451 1.006162 -1.369306 1.369306 
C -1.006162 1.732451 -0.513564 1.936492 0 1.936492 
z
" style="stroke: #1f78b4"/>
    </defs>
    <g clip-path="url(#p32b15c3313)">
     <use xlink:href="#mdcba5033f7" x="260.69062" y="67.932826" style="fill: #1f78b4; stroke: #1f78b4"/>
     <use xlink:href="#mdcba5033f7" x="152.459431" y="50.913238" style="fill: #1f78b4; stroke: #1f78b4"/>
     <use xlink:href="#mdcba5033f7" x="224.884219" y="118.537726" style="fill: #1f78b4; stroke: #1f78b4"/>
     <use xlink:href="#mdcba5033f7" x="177.246707" y="36.147526" style="fill: #1f78b4; stroke: #1f78b4"/>
     <use xlink:href="#mdcba5033f7" x="283.280858" y="124.286758" style="fill: #1f78b4; stroke: #1f78b4"/>
     <use xlink:href="#mdcba5033f7" x="264.09212" y="142.991221" style="fill: #1f78b4; stroke: #1f78b4"/>
     <use xlink:href="#mdcba5033f7" x="175.034014" y="61.907033" style="fill: #1f78b4; stroke: #1f78b4"/>
     <use xlink:href="#mdcba5033f7" x="341.490216" y="163.711857" style="fill: #1f78b4; stroke: #1f78b4"/>
     <use xlink:href="#mdcba5033f7" x="319.919514" y="183.99877" style="fill: #1f78b4; stroke: #1f78b4"/>
     <use xlink:href="#mdcba5033f7" x="244.673726" y="53.236162" style="fill: #1f78b4; stroke: #1f78b4"/>
     <use xlink:href="#mdcba5033f7" x="232.063802" y="34.589841" style="fill: #1f78b4; stroke: #1f78b4"/>
     <use xlink:href="#mdcba5033f7" x="397.771858" y="247.790382" style="fill: #1f78b4; stroke: #1f78b4"/>
     <use xlink:href="#mdcba5033f7" x="372.302568" y="208.550723" style="fill: #1f78b4; stroke: #1f78b4"/>
     <use xlink:href="#mdcba5033f7" x="145.36032" y="75.672805" style="fill: #1f78b4; stroke: #1f78b4"/>
     <use xlink:href="#mdcba5033f7" x="202.478197" y="29.990083" style="fill: #1f78b4; stroke: #1f78b4"/>
     <use xlink:href="#mdcba5033f7" x="184.343522" y="121.097546" style="fill: #1f78b4; stroke: #1f78b4"/>
     <use xlink:href="#mdcba5033f7" x="156.325532" y="98.029266" style="fill: #1f78b4; stroke: #1f78b4"/>
     <use xlink:href="#mdcba5033f7" x="119.341515" y="315.609917" style="fill: #1f78b4; stroke: #1f78b4"/>
     <use xlink:href="#mdcba5033f7" x="147.295457" y="273.939988" style="fill: #1f78b4; stroke: #1f78b4"/>
     <use xlink:href="#mdcba5033f7" x="420.813223" y="223.291379" style="fill: #1f78b4; stroke: #1f78b4"/>
     <use xlink:href="#mdcba5033f7" x="203.759855" y="89.641184" style="fill: #1f78b4; stroke: #1f78b4"/>
     <use xlink:href="#mdcba5033f7" x="251.514294" y="90.108765" style="fill: #1f78b4; stroke: #1f78b4"/>
     <use xlink:href="#mdcba5033f7" x="98.14842" y="276.747873" style="fill: #1f78b4; stroke: #1f78b4"/>
     <use xlink:href="#mdcba5033f7" x="49.36147" y="261.212644" style="fill: #1f78b4; stroke: #1f78b4"/>
     <use xlink:href="#mdcba5033f7" x="39.986777" y="217.123484" style="fill: #1f78b4; stroke: #1f78b4"/>
     <use xlink:href="#mdcba5033f7" x="212.07037" y="52.730983" style="fill: #1f78b4; stroke: #1f78b4"/>
     <use xlink:href="#mdcba5033f7" x="126.83123" y="129.880841" style="fill: #1f78b4; stroke: #1f78b4"/>
     <use xlink:href="#mdcba5033f7" x="70.340642" y="171.123672" style="fill: #1f78b4; stroke: #1f78b4"/>
     <use xlink:href="#mdcba5033f7" x="139.320166" y="234.073238" style="fill: #1f78b4; stroke: #1f78b4"/>
     <use xlink:href="#mdcba5033f7" x="170.351021" y="166.602617" style="fill: #1f78b4; stroke: #1f78b4"/>
    </g>
   </g>
   <g id="text_1">
    <g clip-path="url(#p32b15c3313)">
     <!-- 0 -->
     <g transform="translate(257.50937 70.692201) scale(0.1 -0.1)">
      <defs>
       <path id="DejaVuSans-30" d="M 2034 4250 
Q 1547 4250 1301 3770 
Q 1056 3291 1056 2328 
Q 1056 1369 1301 889 
Q 1547 409 2034 409 
Q 2525 409 2770 889 
Q 3016 1369 3016 2328 
Q 3016 3291 2770 3770 
Q 2525 4250 2034 4250 
z
M 2034 4750 
Q 2819 4750 3233 4129 
Q 3647 3509 3647 2328 
Q 3647 1150 3233 529 
Q 2819 -91 2034 -91 
Q 1250 -91 836 529 
Q 422 1150 422 2328 
Q 422 3509 836 4129 
Q 1250 4750 2034 4750 
z
" transform="scale(0.015625)"/>
      </defs>
      <use xlink:href="#DejaVuSans-30"/>
     </g>
    </g>
   </g>
   <g id="text_2">
    <g clip-path="url(#p32b15c3313)">
     <!-- 1 -->
     <g transform="translate(149.278181 53.672613) scale(0.1 -0.1)">
      <defs>
       <path id="DejaVuSans-31" d="M 794 531 
L 1825 531 
L 1825 4091 
L 703 3866 
L 703 4441 
L 1819 4666 
L 2450 4666 
L 2450 531 
L 3481 531 
L 3481 0 
L 794 0 
L 794 531 
z
" transform="scale(0.015625)"/>
      </defs>
      <use xlink:href="#DejaVuSans-31"/>
     </g>
    </g>
   </g>
   <g id="text_3">
    <g clip-path="url(#p32b15c3313)">
     <!-- 2 -->
     <g transform="translate(221.702969 121.297101) scale(0.1 -0.1)">
      <defs>
       <path id="DejaVuSans-32" d="M 1228 531 
L 3431 531 
L 3431 0 
L 469 0 
L 469 531 
Q 828 903 1448 1529 
Q 2069 2156 2228 2338 
Q 2531 2678 2651 2914 
Q 2772 3150 2772 3378 
Q 2772 3750 2511 3984 
Q 2250 4219 1831 4219 
Q 1534 4219 1204 4116 
Q 875 4013 500 3803 
L 500 4441 
Q 881 4594 1212 4672 
Q 1544 4750 1819 4750 
Q 2544 4750 2975 4387 
Q 3406 4025 3406 3419 
Q 3406 3131 3298 2873 
Q 3191 2616 2906 2266 
Q 2828 2175 2409 1742 
Q 1991 1309 1228 531 
z
" transform="scale(0.015625)"/>
      </defs>
      <use xlink:href="#DejaVuSans-32"/>
     </g>
    </g>
   </g>
   <g id="text_4">
    <g clip-path="url(#p32b15c3313)">
     <!-- 3 -->
     <g transform="translate(174.065457 38.906901) scale(0.1 -0.1)">
      <defs>
       <path id="DejaVuSans-33" d="M 2597 2516 
Q 3050 2419 3304 2112 
Q 3559 1806 3559 1356 
Q 3559 666 3084 287 
Q 2609 -91 1734 -91 
Q 1441 -91 1130 -33 
Q 819 25 488 141 
L 488 750 
Q 750 597 1062 519 
Q 1375 441 1716 441 
Q 2309 441 2620 675 
Q 2931 909 2931 1356 
Q 2931 1769 2642 2001 
Q 2353 2234 1838 2234 
L 1294 2234 
L 1294 2753 
L 1863 2753 
Q 2328 2753 2575 2939 
Q 2822 3125 2822 3475 
Q 2822 3834 2567 4026 
Q 2313 4219 1838 4219 
Q 1578 4219 1281 4162 
Q 984 4106 628 3988 
L 628 4550 
Q 988 4650 1302 4700 
Q 1616 4750 1894 4750 
Q 2613 4750 3031 4423 
Q 3450 4097 3450 3541 
Q 3450 3153 3228 2886 
Q 3006 2619 2597 2516 
z
" transform="scale(0.015625)"/>
      </defs>
      <use xlink:href="#DejaVuSans-33"/>
     </g>
    </g>
   </g>
   <g id="text_5">
    <g clip-path="url(#p32b15c3313)">
     <!-- 4 -->
     <g transform="translate(280.099608 127.046133) scale(0.1 -0.1)">
      <defs>
       <path id="DejaVuSans-34" d="M 2419 4116 
L 825 1625 
L 2419 1625 
L 2419 4116 
z
M 2253 4666 
L 3047 4666 
L 3047 1625 
L 3713 1625 
L 3713 1100 
L 3047 1100 
L 3047 0 
L 2419 0 
L 2419 1100 
L 313 1100 
L 313 1709 
L 2253 4666 
z
" transform="scale(0.015625)"/>
      </defs>
      <use xlink:href="#DejaVuSans-34"/>
     </g>
    </g>
   </g>
   <g id="text_6">
    <g clip-path="url(#p32b15c3313)">
     <!-- 5 -->
     <g transform="translate(260.91087 145.750596) scale(0.1 -0.1)">
      <defs>
       <path id="DejaVuSans-35" d="M 691 4666 
L 3169 4666 
L 3169 4134 
L 1269 4134 
L 1269 2991 
Q 1406 3038 1543 3061 
Q 1681 3084 1819 3084 
Q 2600 3084 3056 2656 
Q 3513 2228 3513 1497 
Q 3513 744 3044 326 
Q 2575 -91 1722 -91 
Q 1428 -91 1123 -41 
Q 819 9 494 109 
L 494 744 
Q 775 591 1075 516 
Q 1375 441 1709 441 
Q 2250 441 2565 725 
Q 2881 1009 2881 1497 
Q 2881 1984 2565 2268 
Q 2250 2553 1709 2553 
Q 1456 2553 1204 2497 
Q 953 2441 691 2322 
L 691 4666 
z
" transform="scale(0.015625)"/>
      </defs>
      <use xlink:href="#DejaVuSans-35"/>
     </g>
    </g>
   </g>
   <g id="text_7">
    <g clip-path="url(#p32b15c3313)">
     <!-- 6 -->
     <g transform="translate(171.852764 64.666408) scale(0.1 -0.1)">
      <defs>
       <path id="DejaVuSans-36" d="M 2113 2584 
Q 1688 2584 1439 2293 
Q 1191 2003 1191 1497 
Q 1191 994 1439 701 
Q 1688 409 2113 409 
Q 2538 409 2786 701 
Q 3034 994 3034 1497 
Q 3034 2003 2786 2293 
Q 2538 2584 2113 2584 
z
M 3366 4563 
L 3366 3988 
Q 3128 4100 2886 4159 
Q 2644 4219 2406 4219 
Q 1781 4219 1451 3797 
Q 1122 3375 1075 2522 
Q 1259 2794 1537 2939 
Q 1816 3084 2150 3084 
Q 2853 3084 3261 2657 
Q 3669 2231 3669 1497 
Q 3669 778 3244 343 
Q 2819 -91 2113 -91 
Q 1303 -91 875 529 
Q 447 1150 447 2328 
Q 447 3434 972 4092 
Q 1497 4750 2381 4750 
Q 2619 4750 2861 4703 
Q 3103 4656 3366 4563 
z
" transform="scale(0.015625)"/>
      </defs>
      <use xlink:href="#DejaVuSans-36"/>
     </g>
    </g>
   </g>
   <g id="text_8">
    <g clip-path="url(#p32b15c3313)">
     <!-- 7 -->
     <g transform="translate(338.308966 166.471232) scale(0.1 -0.1)">
      <defs>
       <path id="DejaVuSans-37" d="M 525 4666 
L 3525 4666 
L 3525 4397 
L 1831 0 
L 1172 0 
L 2766 4134 
L 525 4134 
L 525 4666 
z
" transform="scale(0.015625)"/>
      </defs>
      <use xlink:href="#DejaVuSans-37"/>
     </g>
    </g>
   </g>
   <g id="text_9">
    <g clip-path="url(#p32b15c3313)">
     <!-- 8 -->
     <g transform="translate(316.738264 186.758145) scale(0.1 -0.1)">
      <defs>
       <path id="DejaVuSans-38" d="M 2034 2216 
Q 1584 2216 1326 1975 
Q 1069 1734 1069 1313 
Q 1069 891 1326 650 
Q 1584 409 2034 409 
Q 2484 409 2743 651 
Q 3003 894 3003 1313 
Q 3003 1734 2745 1975 
Q 2488 2216 2034 2216 
z
M 1403 2484 
Q 997 2584 770 2862 
Q 544 3141 544 3541 
Q 544 4100 942 4425 
Q 1341 4750 2034 4750 
Q 2731 4750 3128 4425 
Q 3525 4100 3525 3541 
Q 3525 3141 3298 2862 
Q 3072 2584 2669 2484 
Q 3125 2378 3379 2068 
Q 3634 1759 3634 1313 
Q 3634 634 3220 271 
Q 2806 -91 2034 -91 
Q 1263 -91 848 271 
Q 434 634 434 1313 
Q 434 1759 690 2068 
Q 947 2378 1403 2484 
z
M 1172 3481 
Q 1172 3119 1398 2916 
Q 1625 2713 2034 2713 
Q 2441 2713 2670 2916 
Q 2900 3119 2900 3481 
Q 2900 3844 2670 4047 
Q 2441 4250 2034 4250 
Q 1625 4250 1398 4047 
Q 1172 3844 1172 3481 
z
" transform="scale(0.015625)"/>
      </defs>
      <use xlink:href="#DejaVuSans-38"/>
     </g>
    </g>
   </g>
   <g id="text_10">
    <g clip-path="url(#p32b15c3313)">
     <!-- 9 -->
     <g transform="translate(241.492476 55.995537) scale(0.1 -0.1)">
      <defs>
       <path id="DejaVuSans-39" d="M 703 97 
L 703 672 
Q 941 559 1184 500 
Q 1428 441 1663 441 
Q 2288 441 2617 861 
Q 2947 1281 2994 2138 
Q 2813 1869 2534 1725 
Q 2256 1581 1919 1581 
Q 1219 1581 811 2004 
Q 403 2428 403 3163 
Q 403 3881 828 4315 
Q 1253 4750 1959 4750 
Q 2769 4750 3195 4129 
Q 3622 3509 3622 2328 
Q 3622 1225 3098 567 
Q 2575 -91 1691 -91 
Q 1453 -91 1209 -44 
Q 966 3 703 97 
z
M 1959 2075 
Q 2384 2075 2632 2365 
Q 2881 2656 2881 3163 
Q 2881 3666 2632 3958 
Q 2384 4250 1959 4250 
Q 1534 4250 1286 3958 
Q 1038 3666 1038 3163 
Q 1038 2656 1286 2365 
Q 1534 2075 1959 2075 
z
" transform="scale(0.015625)"/>
      </defs>
      <use xlink:href="#DejaVuSans-39"/>
     </g>
    </g>
   </g>
   <g id="text_11">
    <g clip-path="url(#p32b15c3313)">
     <!-- 10 -->
     <g transform="translate(225.701302 37.349216) scale(0.1 -0.1)">
      <use xlink:href="#DejaVuSans-31"/>
      <use xlink:href="#DejaVuSans-30" x="63.623047"/>
     </g>
    </g>
   </g>
   <g id="text_12">
    <g clip-path="url(#p32b15c3313)">
     <!-- 11 -->
     <g transform="translate(391.409358 250.549757) scale(0.1 -0.1)">
      <use xlink:href="#DejaVuSans-31"/>
      <use xlink:href="#DejaVuSans-31" x="63.623047"/>
     </g>
    </g>
   </g>
   <g id="text_13">
    <g clip-path="url(#p32b15c3313)">
     <!-- 12 -->
     <g transform="translate(365.940068 211.310098) scale(0.1 -0.1)">
      <use xlink:href="#DejaVuSans-31"/>
      <use xlink:href="#DejaVuSans-32" x="63.623047"/>
     </g>
    </g>
   </g>
   <g id="text_14">
    <g clip-path="url(#p32b15c3313)">
     <!-- 13 -->
     <g transform="translate(138.99782 78.43218) scale(0.1 -0.1)">
      <use xlink:href="#DejaVuSans-31"/>
      <use xlink:href="#DejaVuSans-33" x="63.623047"/>
     </g>
    </g>
   </g>
   <g id="text_15">
    <g clip-path="url(#p32b15c3313)">
     <!-- 14 -->
     <g transform="translate(196.115697 32.749458) scale(0.1 -0.1)">
      <use xlink:href="#DejaVuSans-31"/>
      <use xlink:href="#DejaVuSans-34" x="63.623047"/>
     </g>
    </g>
   </g>
   <g id="text_16">
    <g clip-path="url(#p32b15c3313)">
     <!-- 15 -->
     <g transform="translate(177.981022 123.856921) scale(0.1 -0.1)">
      <use xlink:href="#DejaVuSans-31"/>
      <use xlink:href="#DejaVuSans-35" x="63.623047"/>
     </g>
    </g>
   </g>
   <g id="text_17">
    <g clip-path="url(#p32b15c3313)">
     <!-- 16 -->
     <g transform="translate(149.963032 100.788641) scale(0.1 -0.1)">
      <use xlink:href="#DejaVuSans-31"/>
      <use xlink:href="#DejaVuSans-36" x="63.623047"/>
     </g>
    </g>
   </g>
   <g id="text_18">
    <g clip-path="url(#p32b15c3313)">
     <!-- 17 -->
     <g transform="translate(112.979015 318.369292) scale(0.1 -0.1)">
      <use xlink:href="#DejaVuSans-31"/>
      <use xlink:href="#DejaVuSans-37" x="63.623047"/>
     </g>
    </g>
   </g>
   <g id="text_19">
    <g clip-path="url(#p32b15c3313)">
     <!-- 18 -->
     <g transform="translate(140.932957 276.699363) scale(0.1 -0.1)">
      <use xlink:href="#DejaVuSans-31"/>
      <use xlink:href="#DejaVuSans-38" x="63.623047"/>
     </g>
    </g>
   </g>
   <g id="text_20">
    <g clip-path="url(#p32b15c3313)">
     <!-- 19 -->
     <g transform="translate(414.450723 226.050754) scale(0.1 -0.1)">
      <use xlink:href="#DejaVuSans-31"/>
      <use xlink:href="#DejaVuSans-39" x="63.623047"/>
     </g>
    </g>
   </g>
   <g id="text_21">
    <g clip-path="url(#p32b15c3313)">
     <!-- 20 -->
     <g transform="translate(197.397355 92.400559) scale(0.1 -0.1)">
      <use xlink:href="#DejaVuSans-32"/>
      <use xlink:href="#DejaVuSans-30" x="63.623047"/>
     </g>
    </g>
   </g>
   <g id="text_22">
    <g clip-path="url(#p32b15c3313)">
     <!-- 21 -->
     <g transform="translate(245.151794 92.86814) scale(0.1 -0.1)">
      <use xlink:href="#DejaVuSans-32"/>
      <use xlink:href="#DejaVuSans-31" x="63.623047"/>
     </g>
    </g>
   </g>
   <g id="text_23">
    <g clip-path="url(#p32b15c3313)">
     <!-- 22 -->
     <g transform="translate(91.78592 279.507248) scale(0.1 -0.1)">
      <use xlink:href="#DejaVuSans-32"/>
      <use xlink:href="#DejaVuSans-32" x="63.623047"/>
     </g>
    </g>
   </g>
   <g id="text_24">
    <g clip-path="url(#p32b15c3313)">
     <!-- 23 -->
     <g transform="translate(42.99897 263.972019) scale(0.1 -0.1)">
      <use xlink:href="#DejaVuSans-32"/>
      <use xlink:href="#DejaVuSans-33" x="63.623047"/>
     </g>
    </g>
   </g>
   <g id="text_25">
    <g clip-path="url(#p32b15c3313)">
     <!-- 24 -->
     <g transform="translate(33.624277 219.882859) scale(0.1 -0.1)">
      <use xlink:href="#DejaVuSans-32"/>
      <use xlink:href="#DejaVuSans-34" x="63.623047"/>
     </g>
    </g>
   </g>
   <g id="text_26">
    <g clip-path="url(#p32b15c3313)">
     <!-- 25 -->
     <g transform="translate(205.70787 55.490358) scale(0.1 -0.1)">
      <use xlink:href="#DejaVuSans-32"/>
      <use xlink:href="#DejaVuSans-35" x="63.623047"/>
     </g>
    </g>
   </g>
   <g id="text_27">
    <g clip-path="url(#p32b15c3313)">
     <!-- 26 -->
     <g transform="translate(120.46873 132.640216) scale(0.1 -0.1)">
      <use xlink:href="#DejaVuSans-32"/>
      <use xlink:href="#DejaVuSans-36" x="63.623047"/>
     </g>
    </g>
   </g>
   <g id="text_28">
    <g clip-path="url(#p32b15c3313)">
     <!-- 27 -->
     <g transform="translate(63.978142 173.883047) scale(0.1 -0.1)">
      <use xlink:href="#DejaVuSans-32"/>
      <use xlink:href="#DejaVuSans-37" x="63.623047"/>
     </g>
    </g>
   </g>
   <g id="text_29">
    <g clip-path="url(#p32b15c3313)">
     <!-- 28 -->
     <g transform="translate(132.957666 236.832613) scale(0.1 -0.1)">
      <use xlink:href="#DejaVuSans-32"/>
      <use xlink:href="#DejaVuSans-38" x="63.623047"/>
     </g>
    </g>
   </g>
   <g id="text_30">
    <g clip-path="url(#p32b15c3313)">
     <!-- 29 -->
     <g transform="translate(163.988521 169.361992) scale(0.1 -0.1)">
      <use xlink:href="#DejaVuSans-32"/>
      <use xlink:href="#DejaVuSans-39" x="63.623047"/>
     </g>
    </g>
   </g>
  </g>
 </g>
 <defs>
  <clipPath id="p32b15c3313">
   <rect x="0" y="0" width="460.8" height="345.6"/>
  </clipPath>
 </defs>
</svg>
