<?xml version="1.0" encoding="utf-8" standalone="no"?>
<!DOCTYPE svg PUBLIC "-//W3C//DTD SVG 1.1//EN"
  "http://www.w3.org/Graphics/SVG/1.1/DTD/svg11.dtd">
<svg xmlns:xlink="http://www.w3.org/1999/xlink" width="460.8pt" height="345.6pt" viewBox="0 0 460.8 345.6" xmlns="http://www.w3.org/2000/svg" version="1.1">
 <metadata>
  <rdf:RDF xmlns:dc="http://purl.org/dc/elements/1.1/" xmlns:cc="http://creativecommons.org/ns#" xmlns:rdf="http://www.w3.org/1999/02/22-rdf-syntax-ns#">
   <cc:Work>
    <dc:type rdf:resource="http://purl.org/dc/dcmitype/StillImage"/>
    <dc:date>2023-10-10T10:56:55.505315</dc:date>
    <dc:format>image/svg+xml</dc:format>
    <dc:creator>
     <cc:Agent>
      <dc:title>Matplotlib v3.6.1, https://matplotlib.org/</dc:title>
     </cc:Agent>
    </dc:creator>
   </cc:Work>
  </rdf:RDF>
 </metadata>
 <defs>
  <style type="text/css">*{stroke-linejoin: round; stroke-linecap: butt}</style>
 </defs>
 <g id="figure_1">
  <g id="patch_1">
   <path d="M 0 345.6 
L 460.8 345.6 
L 460.8 0 
L 0 0 
z
" style="fill: #ffffff"/>
  </g>
  <g id="axes_1">
   <g id="patch_2">
    <path d="M 152.606052 80.08962 
Q 159.97967 90.191867 166.694141 99.391048 
" clip-path="url(#p6d5685f78d)" style="fill: none; stroke: #000000; stroke-linecap: round"/>
    <path d="M 165.95136 94.981028 
L 166.694141 99.391048 
L 162.720457 97.339261 
L 165.95136 94.981028 
z
" clip-path="url(#p6d5685f78d)" style="stroke: #000000; stroke-linecap: round"/>
   </g>
   <g id="patch_3">
    <path d="M 113.244556 95.427482 
Q 139.90737 98.531334 165.459649 101.505908 
" clip-path="url(#p6d5685f78d)" style="fill: none; stroke: #000000; stroke-linecap: round"/>
    <path d="M 161.717741 99.056801 
L 165.459649 101.505908 
L 161.255219 103.02997 
L 161.717741 99.056801 
z
" clip-path="url(#p6d5685f78d)" style="stroke: #000000; stroke-linecap: round"/>
   </g>
   <g id="patch_4">
    <path d="M 187.638386 186.254266 
Q 178.988617 172.122155 170.922509 158.943637 
" clip-path="url(#p6d5685f78d)" style="fill: none; stroke: #000000; stroke-linecap: round"/>
    <path d="M 171.304838 163.3994 
L 170.922509 158.943637 
L 174.716517 161.311231 
L 171.304838 163.3994 
z
" clip-path="url(#p6d5685f78d)" style="stroke: #000000; stroke-linecap: round"/>
   </g>
   <g id="patch_5">
    <path d="M 129.964003 171.666533 
Q 148.742983 164.352434 166.480159 157.444101 
" clip-path="url(#p6d5685f78d)" style="fill: none; stroke: #000000; stroke-linecap: round"/>
    <path d="M 162.027035 157.032175 
L 166.480159 157.444101 
L 163.478744 160.759445 
L 162.027035 157.032175 
z
" clip-path="url(#p6d5685f78d)" style="stroke: #000000; stroke-linecap: round"/>
   </g>
   <g id="patch_6">
    <path d="M 277.066828 74.509503 
Q 260.733343 85.837701 245.318559 96.528727 
" clip-path="url(#p6d5685f78d)" style="fill: none; stroke: #000000; stroke-linecap: round"/>
    <path d="M 249.745212 95.892536 
L 245.318559 96.528727 
L 247.465598 92.60569 
L 249.745212 95.892536 
z
" clip-path="url(#p6d5685f78d)" style="stroke: #000000; stroke-linecap: round"/>
   </g>
   <g id="patch_7">
    <path d="M 308.346664 146.796714 
Q 286.905011 139.581311 266.523003 132.722494 
" clip-path="url(#p6d5685f78d)" style="fill: none; stroke: #000000; stroke-linecap: round"/>
    <path d="M 269.676226 135.8938 
L 266.523003 132.722494 
L 270.951982 132.102699 
L 269.676226 135.8938 
z
" clip-path="url(#p6d5685f78d)" style="stroke: #000000; stroke-linecap: round"/>
   </g>
   <g id="patch_8">
    <path d="M 92.73186 33.463067 
Q 112.392624 43.952405 131.066962 53.91547 
" clip-path="url(#p6d5685f78d)" style="fill: none; stroke: #000000; stroke-linecap: round"/>
    <path d="M 128.479247 50.268043 
L 131.066962 53.91547 
L 126.596391 53.797186 
L 128.479247 50.268043 
z
" clip-path="url(#p6d5685f78d)" style="stroke: #000000; stroke-linecap: round"/>
   </g>
   <g id="patch_9">
    <path d="M 135.214052 26.528079 
Q 134.537564 39.975284 133.917249 52.305866 
" clip-path="url(#p6d5685f78d)" style="fill: none; stroke: #000000; stroke-linecap: round"/>
    <path d="M 136.115697 48.411405 
L 133.917249 52.305866 
L 132.120749 48.210432 
L 136.115697 48.411405 
z
" clip-path="url(#p6d5685f78d)" style="stroke: #000000; stroke-linecap: round"/>
   </g>
   <g id="patch_10">
    <path d="M 154.143575 186.577681 
Q 161.300289 172.322337 167.955375 159.066179 
" clip-path="url(#p6d5685f78d)" style="fill: none; stroke: #000000; stroke-linecap: round"/>
    <path d="M 164.373302 161.74363 
L 167.955375 159.066179 
L 167.948092 163.538309 
L 164.373302 161.74363 
z
" clip-path="url(#p6d5685f78d)" style="stroke: #000000; stroke-linecap: round"/>
   </g>
   <g id="patch_11">
    <path d="M 418.894409 134.435589 
Q 390.986892 130.659798 364.187314 127.033908 
" clip-path="url(#p6d5685f78d)" style="fill: none; stroke: #000000; stroke-linecap: round"/>
    <path d="M 367.883049 129.55215 
L 364.187314 127.033908 
L 368.419349 125.588266 
L 367.883049 129.55215 
z
" clip-path="url(#p6d5685f78d)" style="stroke: #000000; stroke-linecap: round"/>
   </g>
   <g id="patch_12">
    <path d="M 220.458827 116.359543 
Q 241.129676 123.728205 260.747403 130.721454 
" clip-path="url(#p6d5685f78d)" style="fill: none; stroke: #000000; stroke-linecap: round"/>
    <path d="M 257.651199 127.494456 
L 260.747403 130.721454 
L 256.308082 131.262219 
L 257.651199 127.494456 
z
" clip-path="url(#p6d5685f78d)" style="stroke: #000000; stroke-linecap: round"/>
   </g>
   <g id="patch_13">
    <path d="M 216.768994 115.193757 
Q 193.564895 108.78414 171.438472 102.672206 
" clip-path="url(#p6d5685f78d)" style="fill: none; stroke: #000000; stroke-linecap: round"/>
    <path d="M 174.761567 105.665037 
L 171.438472 102.672206 
L 175.826594 101.809428 
L 174.761567 105.665037 
z
" clip-path="url(#p6d5685f78d)" style="stroke: #000000; stroke-linecap: round"/>
   </g>
   <g id="patch_14">
    <path d="M 167.354384 100.295615 
Q 159.980766 90.193368 153.266294 80.994187 
" clip-path="url(#p6d5685f78d)" style="fill: none; stroke: #000000; stroke-linecap: round"/>
    <path d="M 154.009075 85.404207 
L 153.266294 80.994187 
L 157.239978 83.045974 
L 154.009075 85.404207 
z
" clip-path="url(#p6d5685f78d)" style="stroke: #000000; stroke-linecap: round"/>
   </g>
   <g id="patch_15">
    <path d="M 166.572965 101.63551 
Q 139.910152 98.531658 114.357872 95.557084 
" clip-path="url(#p6d5685f78d)" style="fill: none; stroke: #000000; stroke-linecap: round"/>
    <path d="M 118.099781 98.006191 
L 114.357872 95.557084 
L 118.562302 94.033021 
L 118.099781 98.006191 
z
" clip-path="url(#p6d5685f78d)" style="stroke: #000000; stroke-linecap: round"/>
   </g>
   <g id="patch_16">
    <path d="M 170.359355 102.374124 
Q 193.563454 108.783741 215.689877 114.895675 
" clip-path="url(#p6d5685f78d)" style="fill: none; stroke: #000000; stroke-linecap: round"/>
    <path d="M 212.366781 111.902844 
L 215.689877 114.895675 
L 211.301755 115.758453 
L 212.366781 111.902844 
z
" clip-path="url(#p6d5685f78d)" style="stroke: #000000; stroke-linecap: round"/>
   </g>
   <g id="patch_17">
    <path d="M 168.525299 103.797799 
Q 168.911023 129.099897 169.279705 153.28409 
" clip-path="url(#p6d5685f78d)" style="fill: none; stroke: #000000; stroke-linecap: round"/>
    <path d="M 171.218501 149.254069 
L 169.279705 153.28409 
L 167.218965 149.31504 
L 171.218501 149.254069 
z
" clip-path="url(#p6d5685f78d)" style="stroke: #000000; stroke-linecap: round"/>
   </g>
   <g id="patch_18">
    <path d="M 170.432491 101.765785 
Q 205.655345 100.064268 239.761466 98.416698 
" clip-path="url(#p6d5685f78d)" style="fill: none; stroke: #000000; stroke-linecap: round"/>
    <path d="M 235.669624 96.612031 
L 239.761466 98.416698 
L 235.862627 100.607372 
L 235.669624 96.612031 
z
" clip-path="url(#p6d5685f78d)" style="stroke: #000000; stroke-linecap: round"/>
   </g>
   <g id="patch_19">
    <path d="M 167.336182 100.306716 
Q 151.128904 78.605609 135.590634 57.800286 
" clip-path="url(#p6d5685f78d)" style="fill: none; stroke: #000000; stroke-linecap: round"/>
    <path d="M 136.381724 62.201897 
L 135.590634 57.800286 
L 139.586577 59.808381 
L 136.381724 62.201897 
z
" clip-path="url(#p6d5685f78d)" style="stroke: #000000; stroke-linecap: round"/>
   </g>
   <g id="patch_20">
    <path d="M 414.350788 112.702999 
Q 388.691457 119.418451 364.11373 125.850829 
" clip-path="url(#p6d5685f78d)" style="fill: none; stroke: #000000; stroke-linecap: round"/>
    <path d="M 368.489775 126.77291 
L 364.11373 125.850829 
L 367.477022 122.903241 
L 368.489775 126.77291 
z
" clip-path="url(#p6d5685f78d)" style="stroke: #000000; stroke-linecap: round"/>
   </g>
   <g id="patch_21">
    <path d="M 41.81238 201.645215 
Q 66.456691 192.82283 90.048385 184.37727 
" clip-path="url(#p6d5685f78d)" style="fill: none; stroke: #000000; stroke-linecap: round"/>
    <path d="M 85.608342 183.842461 
L 90.048385 184.37727 
L 86.956513 187.608419 
L 85.608342 183.842461 
z
" clip-path="url(#p6d5685f78d)" style="stroke: #000000; stroke-linecap: round"/>
   </g>
   <g id="patch_22">
    <path d="M 114.669237 151.413326 
Q 141.03196 153.787491 166.281154 156.061374 
" clip-path="url(#p6d5685f78d)" style="fill: none; stroke: #000000; stroke-linecap: round"/>
    <path d="M 162.476666 153.710657 
L 166.281154 156.061374 
L 162.117888 157.694534 
L 162.476666 153.710657 
z
" clip-path="url(#p6d5685f78d)" style="stroke: #000000; stroke-linecap: round"/>
   </g>
   <g id="patch_23">
    <path d="M 91.100441 184.000646 
Q 66.45613 192.823031 42.864436 201.26859 
" clip-path="url(#p6d5685f78d)" style="fill: none; stroke: #000000; stroke-linecap: round"/>
    <path d="M 47.304479 201.803399 
L 42.864436 201.26859 
L 45.956309 198.037441 
L 47.304479 201.803399 
z
" clip-path="url(#p6d5685f78d)" style="stroke: #000000; stroke-linecap: round"/>
   </g>
   <g id="patch_24">
    <path d="M 94.749315 182.702478 
Q 131.125131 169.841708 166.446855 157.353615 
" clip-path="url(#p6d5685f78d)" style="fill: none; stroke: #000000; stroke-linecap: round"/>
    <path d="M 162.008952 156.801328 
L 166.446855 157.353615 
L 163.342283 160.572565 
L 162.008952 156.801328 
z
" clip-path="url(#p6d5685f78d)" style="stroke: #000000; stroke-linecap: round"/>
   </g>
   <g id="patch_25">
    <path d="M 170.338194 157.988975 
Q 178.987963 172.121087 187.054071 185.299605 
" clip-path="url(#p6d5685f78d)" style="fill: none; stroke: #000000; stroke-linecap: round"/>
    <path d="M 186.671742 180.843842 
L 187.054071 185.299605 
L 183.260063 182.93201 
L 186.671742 180.843842 
z
" clip-path="url(#p6d5685f78d)" style="stroke: #000000; stroke-linecap: round"/>
   </g>
   <g id="patch_26">
    <path d="M 167.519558 157.039272 
Q 148.740578 164.353371 131.003402 171.261704 
" clip-path="url(#p6d5685f78d)" style="fill: none; stroke: #000000; stroke-linecap: round"/>
    <path d="M 135.456526 171.67363 
L 131.003402 171.261704 
L 134.004817 167.94636 
L 135.456526 171.67363 
z
" clip-path="url(#p6d5685f78d)" style="stroke: #000000; stroke-linecap: round"/>
   </g>
   <g id="patch_27">
    <path d="M 168.458253 158.064505 
Q 161.301539 172.319848 154.646453 185.576007 
" clip-path="url(#p6d5685f78d)" style="fill: none; stroke: #000000; stroke-linecap: round"/>
    <path d="M 158.228527 182.898555 
L 154.646453 185.576007 
L 154.653736 181.103877 
L 158.228527 182.898555 
z
" clip-path="url(#p6d5685f78d)" style="stroke: #000000; stroke-linecap: round"/>
   </g>
   <g id="patch_28">
    <path d="M 169.296673 154.39715 
Q 168.910949 129.095053 168.542267 104.91086 
" clip-path="url(#p6d5685f78d)" style="fill: none; stroke: #000000; stroke-linecap: round"/>
    <path d="M 166.603471 108.940881 
L 168.542267 104.91086 
L 170.603007 108.879909 
L 166.603471 108.940881 
z
" clip-path="url(#p6d5685f78d)" style="stroke: #000000; stroke-linecap: round"/>
   </g>
   <g id="patch_29">
    <path d="M 167.395529 156.161732 
Q 141.032807 153.787567 115.783612 151.513684 
" clip-path="url(#p6d5685f78d)" style="fill: none; stroke: #000000; stroke-linecap: round"/>
    <path d="M 119.5881 153.864401 
L 115.783612 151.513684 
L 119.946879 149.880524 
L 119.5881 153.864401 
z
" clip-path="url(#p6d5685f78d)" style="stroke: #000000; stroke-linecap: round"/>
   </g>
   <g id="patch_30">
    <path d="M 167.502954 156.980228 
Q 131.127138 169.840998 95.805414 182.329091 
" clip-path="url(#p6d5685f78d)" style="fill: none; stroke: #000000; stroke-linecap: round"/>
    <path d="M 100.243317 182.881378 
L 95.805414 182.329091 
L 98.909986 179.110142 
L 100.243317 182.881378 
z
" clip-path="url(#p6d5685f78d)" style="stroke: #000000; stroke-linecap: round"/>
   </g>
   <g id="patch_31">
    <path d="M 171.199681 155.84712 
Q 216.475177 144.041972 260.668811 132.51891 
" clip-path="url(#p6d5685f78d)" style="fill: none; stroke: #000000; stroke-linecap: round"/>
    <path d="M 256.29361 131.592834 
L 260.668811 132.51891 
L 257.302829 135.463425 
L 256.29361 131.592834 
z
" clip-path="url(#p6d5685f78d)" style="stroke: #000000; stroke-linecap: round"/>
   </g>
   <g id="patch_32">
    <path d="M 171.116534 157.076446 
Q 190.799087 165.221205 209.448563 172.938469 
" clip-path="url(#p6d5685f78d)" style="fill: none; stroke: #000000; stroke-linecap: round"/>
    <path d="M 206.517236 169.560996 
L 209.448563 172.938469 
L 204.987788 173.257047 
L 206.517236 169.560996 
z
" clip-path="url(#p6d5685f78d)" style="stroke: #000000; stroke-linecap: round"/>
   </g>
   <g id="patch_33">
    <path d="M 244.399348 97.166252 
Q 260.732834 85.838054 276.147618 75.147028 
" clip-path="url(#p6d5685f78d)" style="fill: none; stroke: #000000; stroke-linecap: round"/>
    <path d="M 271.720965 75.783219 
L 276.147618 75.147028 
L 274.000579 79.070065 
L 271.720965 75.783219 
z
" clip-path="url(#p6d5685f78d)" style="stroke: #000000; stroke-linecap: round"/>
   </g>
   <g id="patch_34">
    <path d="M 240.871898 98.363056 
Q 205.649044 100.064573 171.542922 101.712143 
" clip-path="url(#p6d5685f78d)" style="fill: none; stroke: #000000; stroke-linecap: round"/>
    <path d="M 175.634765 103.51681 
L 171.542922 101.712143 
L 175.441761 99.521469 
L 175.634765 103.51681 
z
" clip-path="url(#p6d5685f78d)" style="stroke: #000000; stroke-linecap: round"/>
   </g>
   <g id="patch_35">
    <path d="M 243.832757 99.916437 
Q 253.218548 115.010276 262.013949 129.154673 
" clip-path="url(#p6d5685f78d)" style="fill: none; stroke: #000000; stroke-linecap: round"/>
    <path d="M 261.600116 124.701725 
L 262.013949 129.154673 
L 258.203291 126.813971 
L 261.600116 124.701725 
z
" clip-path="url(#p6d5685f78d)" style="stroke: #000000; stroke-linecap: round"/>
   </g>
   <g id="patch_36">
    <path d="M 265.45908 132.364469 
Q 286.900733 139.579872 307.282741 146.43869 
" clip-path="url(#p6d5685f78d)" style="fill: none; stroke: #000000; stroke-linecap: round"/>
    <path d="M 304.129518 143.267383 
L 307.282741 146.43869 
L 302.853762 147.058484 
L 304.129518 143.267383 
z
" clip-path="url(#p6d5685f78d)" style="stroke: #000000; stroke-linecap: round"/>
   </g>
   <g id="patch_37">
    <path d="M 261.800174 131.096742 
Q 241.129325 123.72808 221.511598 116.734831 
" clip-path="url(#p6d5685f78d)" style="fill: none; stroke: #000000; stroke-linecap: round"/>
    <path d="M 224.607802 119.961829 
L 221.511598 116.734831 
L 225.950919 116.194066 
L 224.607802 119.961829 
z
" clip-path="url(#p6d5685f78d)" style="stroke: #000000; stroke-linecap: round"/>
   </g>
   <g id="patch_38">
    <path d="M 261.752943 132.236233 
Q 216.477446 144.041381 172.283813 155.564443 
" clip-path="url(#p6d5685f78d)" style="fill: none; stroke: #000000; stroke-linecap: round"/>
    <path d="M 176.659014 156.49052 
L 172.283813 155.564443 
L 175.649795 152.619928 
L 176.659014 156.49052 
z
" clip-path="url(#p6d5685f78d)" style="stroke: #000000; stroke-linecap: round"/>
   </g>
   <g id="patch_39">
    <path d="M 262.602283 130.100807 
Q 253.216492 115.006969 244.421091 100.862572 
" clip-path="url(#p6d5685f78d)" style="fill: none; stroke: #000000; stroke-linecap: round"/>
    <path d="M 244.834924 105.315519 
L 244.421091 100.862572 
L 248.231749 103.203274 
L 244.834924 105.315519 
z
" clip-path="url(#p6d5685f78d)" style="stroke: #000000; stroke-linecap: round"/>
   </g>
   <g id="patch_40">
    <path d="M 265.558118 131.64627 
Q 312.391332 129.186025 358.108051 126.784432 
" clip-path="url(#p6d5685f78d)" style="fill: none; stroke: #000000; stroke-linecap: round"/>
    <path d="M 354.008639 124.997025 
L 358.108051 126.784432 
L 354.218478 128.991517 
L 354.008639 124.997025 
z
" clip-path="url(#p6d5685f78d)" style="stroke: #000000; stroke-linecap: round"/>
   </g>
   <g id="patch_41">
    <path d="M 363.077664 126.883776 
Q 390.985181 130.659567 417.784759 134.285457 
" clip-path="url(#p6d5685f78d)" style="fill: none; stroke: #000000; stroke-linecap: round"/>
    <path d="M 414.089024 131.767215 
L 417.784759 134.285457 
L 413.552724 135.731099 
L 414.089024 131.767215 
z
" clip-path="url(#p6d5685f78d)" style="stroke: #000000; stroke-linecap: round"/>
   </g>
   <g id="patch_42">
    <path d="M 363.030835 126.134239 
Q 388.690166 119.418788 413.267892 112.98641 
" clip-path="url(#p6d5685f78d)" style="fill: none; stroke: #000000; stroke-linecap: round"/>
    <path d="M 408.891848 112.064329 
L 413.267892 112.98641 
L 409.904601 115.933997 
L 408.891848 112.064329 
z
" clip-path="url(#p6d5685f78d)" style="stroke: #000000; stroke-linecap: round"/>
   </g>
   <g id="patch_43">
    <path d="M 359.227131 126.725645 
Q 312.393917 129.18589 266.677198 131.587483 
" clip-path="url(#p6d5685f78d)" style="fill: none; stroke: #000000; stroke-linecap: round"/>
    <path d="M 270.77661 133.37489 
L 266.677198 131.587483 
L 270.566771 129.380398 
L 270.77661 133.37489 
z
" clip-path="url(#p6d5685f78d)" style="stroke: #000000; stroke-linecap: round"/>
   </g>
   <g id="patch_44">
    <path d="M 132.055201 54.442712 
Q 112.394437 43.953373 93.720099 33.990308 
" clip-path="url(#p6d5685f78d)" style="fill: none; stroke: #000000; stroke-linecap: round"/>
    <path d="M 96.307815 37.637736 
L 93.720099 33.990308 
L 98.19067 34.108592 
L 96.307815 37.637736 
z
" clip-path="url(#p6d5685f78d)" style="stroke: #000000; stroke-linecap: round"/>
   </g>
   <g id="patch_45">
    <path d="M 133.861172 53.42056 
Q 134.537661 39.973355 135.157975 27.642772 
" clip-path="url(#p6d5685f78d)" style="fill: none; stroke: #000000; stroke-linecap: round"/>
    <path d="M 132.959527 31.537233 
L 135.157975 27.642772 
L 136.954475 31.738207 
L 132.959527 31.537233 
z
" clip-path="url(#p6d5685f78d)" style="stroke: #000000; stroke-linecap: round"/>
   </g>
   <g id="patch_46">
    <path d="M 134.923456 56.906953 
Q 151.130734 78.60806 166.669003 99.413383 
" clip-path="url(#p6d5685f78d)" style="fill: none; stroke: #000000; stroke-linecap: round"/>
    <path d="M 165.877914 95.011772 
L 166.669003 99.413383 
L 162.673061 97.405288 
L 165.877914 95.011772 
z
" clip-path="url(#p6d5685f78d)" style="stroke: #000000; stroke-linecap: round"/>
   </g>
   <g id="patch_47">
    <path d="M 210.482367 173.366263 
Q 190.799814 165.221505 172.150338 157.504241 
" clip-path="url(#p6d5685f78d)" style="fill: none; stroke: #000000; stroke-linecap: round"/>
    <path d="M 175.081665 160.881714 
L 172.150338 157.504241 
L 176.611112 157.185663 
L 175.081665 160.881714 
z
" clip-path="url(#p6d5685f78d)" style="stroke: #000000; stroke-linecap: round"/>
   </g>
   <g id="PathCollection_1">
    <defs>
     <path id="md1a0be1e78" d="M 0 1.936492 
C 0.513564 1.936492 1.006162 1.732451 1.369306 1.369306 
C 1.732451 1.006162 1.936492 0.513564 1.936492 0 
C 1.936492 -0.513564 1.732451 -1.006162 1.369306 -1.369306 
C 1.006162 -1.732451 0.513564 -1.936492 0 -1.936492 
C -0.513564 -1.936492 -1.006162 -1.732451 -1.369306 -1.369306 
C -1.732451 -1.006162 -1.936492 -0.513564 -1.936492 0 
C -1.936492 0.513564 -1.732451 1.006162 -1.369306 1.369306 
C -1.006162 1.732451 -0.513564 1.936492 0 1.936492 
z
" style="stroke: #1f78b4"/>
    </defs>
    <g clip-path="url(#p6d5685f78d)">
     <use xlink:href="#md1a0be1e78" x="151.464688" y="78.525892" style="fill: #1f78b4; stroke: #1f78b4"/>
     <use xlink:href="#md1a0be1e78" x="111.321774" y="95.203648" style="fill: #1f78b4; stroke: #1f78b4"/>
     <use xlink:href="#md1a0be1e78" x="188.650355" y="187.907636" style="fill: #1f78b4; stroke: #1f78b4"/>
     <use xlink:href="#md1a0be1e78" x="128.157336" y="172.370199" style="fill: #1f78b4; stroke: #1f78b4"/>
     <use xlink:href="#md1a0be1e78" x="278.657536" y="73.406258" style="fill: #1f78b4; stroke: #1f78b4"/>
     <use xlink:href="#md1a0be1e78" x="310.179345" y="147.413436" style="fill: #1f78b4; stroke: #1f78b4"/>
     <use xlink:href="#md1a0be1e78" x="91.023171" y="32.551453" style="fill: #1f78b4; stroke: #1f78b4"/>
     <use xlink:href="#md1a0be1e78" x="135.311334" y="24.594313" style="fill: #1f78b4; stroke: #1f78b4"/>
     <use xlink:href="#md1a0be1e78" x="153.275604" y="188.30658" style="fill: #1f78b4; stroke: #1f78b4"/>
     <use xlink:href="#md1a0be1e78" x="420.813223" y="134.695198" style="fill: #1f78b4; stroke: #1f78b4"/>
     <use xlink:href="#md1a0be1e78" x="218.632602" y="115.708538" style="fill: #1f78b4; stroke: #1f78b4"/>
     <use xlink:href="#md1a0be1e78" x="168.495747" y="101.859344" style="fill: #1f78b4; stroke: #1f78b4"/>
     <use xlink:href="#md1a0be1e78" x="416.222773" y="112.213071" style="fill: #1f78b4; stroke: #1f78b4"/>
     <use xlink:href="#md1a0be1e78" x="39.986777" y="202.29876" style="fill: #1f78b4; stroke: #1f78b4"/>
     <use xlink:href="#md1a0be1e78" x="112.738542" y="151.239452" style="fill: #1f78b4; stroke: #1f78b4"/>
     <use xlink:href="#md1a0be1e78" x="92.926045" y="183.3471" style="fill: #1f78b4; stroke: #1f78b4"/>
     <use xlink:href="#md1a0be1e78" x="169.326225" y="156.335606" style="fill: #1f78b4; stroke: #1f78b4"/>
     <use xlink:href="#md1a0be1e78" x="362.857561" y="329.890909" style="fill: #1f78b4; stroke: #1f78b4"/>
     <use xlink:href="#md1a0be1e78" x="242.808641" y="98.269497" style="fill: #1f78b4; stroke: #1f78b4"/>
     <use xlink:href="#md1a0be1e78" x="263.626399" y="131.747748" style="fill: #1f78b4; stroke: #1f78b4"/>
     <use xlink:href="#md1a0be1e78" x="361.15885" y="126.624167" style="fill: #1f78b4; stroke: #1f78b4"/>
     <use xlink:href="#md1a0be1e78" x="133.763891" y="55.354325" style="fill: #1f78b4; stroke: #1f78b4"/>
     <use xlink:href="#md1a0be1e78" x="212.272676" y="174.107104" style="fill: #1f78b4; stroke: #1f78b4"/>
    </g>
   </g>
   <g id="text_1">
    <g clip-path="url(#p6d5685f78d)">
     <!-- 0 -->
     <g transform="translate(148.283438 81.285267) scale(0.1 -0.1)">
      <defs>
       <path id="DejaVuSans-30" d="M 2034 4250 
Q 1547 4250 1301 3770 
Q 1056 3291 1056 2328 
Q 1056 1369 1301 889 
Q 1547 409 2034 409 
Q 2525 409 2770 889 
Q 3016 1369 3016 2328 
Q 3016 3291 2770 3770 
Q 2525 4250 2034 4250 
z
M 2034 4750 
Q 2819 4750 3233 4129 
Q 3647 3509 3647 2328 
Q 3647 1150 3233 529 
Q 2819 -91 2034 -91 
Q 1250 -91 836 529 
Q 422 1150 422 2328 
Q 422 3509 836 4129 
Q 1250 4750 2034 4750 
z
" transform="scale(0.015625)"/>
      </defs>
      <use xlink:href="#DejaVuSans-30"/>
     </g>
    </g>
   </g>
   <g id="text_2">
    <g clip-path="url(#p6d5685f78d)">
     <!-- 1 -->
     <g transform="translate(108.140524 97.963023) scale(0.1 -0.1)">
      <defs>
       <path id="DejaVuSans-31" d="M 794 531 
L 1825 531 
L 1825 4091 
L 703 3866 
L 703 4441 
L 1819 4666 
L 2450 4666 
L 2450 531 
L 3481 531 
L 3481 0 
L 794 0 
L 794 531 
z
" transform="scale(0.015625)"/>
      </defs>
      <use xlink:href="#DejaVuSans-31"/>
     </g>
    </g>
   </g>
   <g id="text_3">
    <g clip-path="url(#p6d5685f78d)">
     <!-- 2 -->
     <g transform="translate(185.469105 190.667011) scale(0.1 -0.1)">
      <defs>
       <path id="DejaVuSans-32" d="M 1228 531 
L 3431 531 
L 3431 0 
L 469 0 
L 469 531 
Q 828 903 1448 1529 
Q 2069 2156 2228 2338 
Q 2531 2678 2651 2914 
Q 2772 3150 2772 3378 
Q 2772 3750 2511 3984 
Q 2250 4219 1831 4219 
Q 1534 4219 1204 4116 
Q 875 4013 500 3803 
L 500 4441 
Q 881 4594 1212 4672 
Q 1544 4750 1819 4750 
Q 2544 4750 2975 4387 
Q 3406 4025 3406 3419 
Q 3406 3131 3298 2873 
Q 3191 2616 2906 2266 
Q 2828 2175 2409 1742 
Q 1991 1309 1228 531 
z
" transform="scale(0.015625)"/>
      </defs>
      <use xlink:href="#DejaVuSans-32"/>
     </g>
    </g>
   </g>
   <g id="text_4">
    <g clip-path="url(#p6d5685f78d)">
     <!-- 3 -->
     <g transform="translate(124.976086 175.129574) scale(0.1 -0.1)">
      <defs>
       <path id="DejaVuSans-33" d="M 2597 2516 
Q 3050 2419 3304 2112 
Q 3559 1806 3559 1356 
Q 3559 666 3084 287 
Q 2609 -91 1734 -91 
Q 1441 -91 1130 -33 
Q 819 25 488 141 
L 488 750 
Q 750 597 1062 519 
Q 1375 441 1716 441 
Q 2309 441 2620 675 
Q 2931 909 2931 1356 
Q 2931 1769 2642 2001 
Q 2353 2234 1838 2234 
L 1294 2234 
L 1294 2753 
L 1863 2753 
Q 2328 2753 2575 2939 
Q 2822 3125 2822 3475 
Q 2822 3834 2567 4026 
Q 2313 4219 1838 4219 
Q 1578 4219 1281 4162 
Q 984 4106 628 3988 
L 628 4550 
Q 988 4650 1302 4700 
Q 1616 4750 1894 4750 
Q 2613 4750 3031 4423 
Q 3450 4097 3450 3541 
Q 3450 3153 3228 2886 
Q 3006 2619 2597 2516 
z
" transform="scale(0.015625)"/>
      </defs>
      <use xlink:href="#DejaVuSans-33"/>
     </g>
    </g>
   </g>
   <g id="text_5">
    <g clip-path="url(#p6d5685f78d)">
     <!-- 4 -->
     <g transform="translate(275.476286 76.165633) scale(0.1 -0.1)">
      <defs>
       <path id="DejaVuSans-34" d="M 2419 4116 
L 825 1625 
L 2419 1625 
L 2419 4116 
z
M 2253 4666 
L 3047 4666 
L 3047 1625 
L 3713 1625 
L 3713 1100 
L 3047 1100 
L 3047 0 
L 2419 0 
L 2419 1100 
L 313 1100 
L 313 1709 
L 2253 4666 
z
" transform="scale(0.015625)"/>
      </defs>
      <use xlink:href="#DejaVuSans-34"/>
     </g>
    </g>
   </g>
   <g id="text_6">
    <g clip-path="url(#p6d5685f78d)">
     <!-- 5 -->
     <g transform="translate(306.998095 150.172811) scale(0.1 -0.1)">
      <defs>
       <path id="DejaVuSans-35" d="M 691 4666 
L 3169 4666 
L 3169 4134 
L 1269 4134 
L 1269 2991 
Q 1406 3038 1543 3061 
Q 1681 3084 1819 3084 
Q 2600 3084 3056 2656 
Q 3513 2228 3513 1497 
Q 3513 744 3044 326 
Q 2575 -91 1722 -91 
Q 1428 -91 1123 -41 
Q 819 9 494 109 
L 494 744 
Q 775 591 1075 516 
Q 1375 441 1709 441 
Q 2250 441 2565 725 
Q 2881 1009 2881 1497 
Q 2881 1984 2565 2268 
Q 2250 2553 1709 2553 
Q 1456 2553 1204 2497 
Q 953 2441 691 2322 
L 691 4666 
z
" transform="scale(0.015625)"/>
      </defs>
      <use xlink:href="#DejaVuSans-35"/>
     </g>
    </g>
   </g>
   <g id="text_7">
    <g clip-path="url(#p6d5685f78d)">
     <!-- 6 -->
     <g transform="translate(87.841921 35.310828) scale(0.1 -0.1)">
      <defs>
       <path id="DejaVuSans-36" d="M 2113 2584 
Q 1688 2584 1439 2293 
Q 1191 2003 1191 1497 
Q 1191 994 1439 701 
Q 1688 409 2113 409 
Q 2538 409 2786 701 
Q 3034 994 3034 1497 
Q 3034 2003 2786 2293 
Q 2538 2584 2113 2584 
z
M 3366 4563 
L 3366 3988 
Q 3128 4100 2886 4159 
Q 2644 4219 2406 4219 
Q 1781 4219 1451 3797 
Q 1122 3375 1075 2522 
Q 1259 2794 1537 2939 
Q 1816 3084 2150 3084 
Q 2853 3084 3261 2657 
Q 3669 2231 3669 1497 
Q 3669 778 3244 343 
Q 2819 -91 2113 -91 
Q 1303 -91 875 529 
Q 447 1150 447 2328 
Q 447 3434 972 4092 
Q 1497 4750 2381 4750 
Q 2619 4750 2861 4703 
Q 3103 4656 3366 4563 
z
" transform="scale(0.015625)"/>
      </defs>
      <use xlink:href="#DejaVuSans-36"/>
     </g>
    </g>
   </g>
   <g id="text_8">
    <g clip-path="url(#p6d5685f78d)">
     <!-- 7 -->
     <g transform="translate(132.130084 27.353688) scale(0.1 -0.1)">
      <defs>
       <path id="DejaVuSans-37" d="M 525 4666 
L 3525 4666 
L 3525 4397 
L 1831 0 
L 1172 0 
L 2766 4134 
L 525 4134 
L 525 4666 
z
" transform="scale(0.015625)"/>
      </defs>
      <use xlink:href="#DejaVuSans-37"/>
     </g>
    </g>
   </g>
   <g id="text_9">
    <g clip-path="url(#p6d5685f78d)">
     <!-- 8 -->
     <g transform="translate(150.094354 191.065955) scale(0.1 -0.1)">
      <defs>
       <path id="DejaVuSans-38" d="M 2034 2216 
Q 1584 2216 1326 1975 
Q 1069 1734 1069 1313 
Q 1069 891 1326 650 
Q 1584 409 2034 409 
Q 2484 409 2743 651 
Q 3003 894 3003 1313 
Q 3003 1734 2745 1975 
Q 2488 2216 2034 2216 
z
M 1403 2484 
Q 997 2584 770 2862 
Q 544 3141 544 3541 
Q 544 4100 942 4425 
Q 1341 4750 2034 4750 
Q 2731 4750 3128 4425 
Q 3525 4100 3525 3541 
Q 3525 3141 3298 2862 
Q 3072 2584 2669 2484 
Q 3125 2378 3379 2068 
Q 3634 1759 3634 1313 
Q 3634 634 3220 271 
Q 2806 -91 2034 -91 
Q 1263 -91 848 271 
Q 434 634 434 1313 
Q 434 1759 690 2068 
Q 947 2378 1403 2484 
z
M 1172 3481 
Q 1172 3119 1398 2916 
Q 1625 2713 2034 2713 
Q 2441 2713 2670 2916 
Q 2900 3119 2900 3481 
Q 2900 3844 2670 4047 
Q 2441 4250 2034 4250 
Q 1625 4250 1398 4047 
Q 1172 3844 1172 3481 
z
" transform="scale(0.015625)"/>
      </defs>
      <use xlink:href="#DejaVuSans-38"/>
     </g>
    </g>
   </g>
   <g id="text_10">
    <g clip-path="url(#p6d5685f78d)">
     <!-- 9 -->
     <g transform="translate(417.631973 137.454573) scale(0.1 -0.1)">
      <defs>
       <path id="DejaVuSans-39" d="M 703 97 
L 703 672 
Q 941 559 1184 500 
Q 1428 441 1663 441 
Q 2288 441 2617 861 
Q 2947 1281 2994 2138 
Q 2813 1869 2534 1725 
Q 2256 1581 1919 1581 
Q 1219 1581 811 2004 
Q 403 2428 403 3163 
Q 403 3881 828 4315 
Q 1253 4750 1959 4750 
Q 2769 4750 3195 4129 
Q 3622 3509 3622 2328 
Q 3622 1225 3098 567 
Q 2575 -91 1691 -91 
Q 1453 -91 1209 -44 
Q 966 3 703 97 
z
M 1959 2075 
Q 2384 2075 2632 2365 
Q 2881 2656 2881 3163 
Q 2881 3666 2632 3958 
Q 2384 4250 1959 4250 
Q 1534 4250 1286 3958 
Q 1038 3666 1038 3163 
Q 1038 2656 1286 2365 
Q 1534 2075 1959 2075 
z
" transform="scale(0.015625)"/>
      </defs>
      <use xlink:href="#DejaVuSans-39"/>
     </g>
    </g>
   </g>
   <g id="text_11">
    <g clip-path="url(#p6d5685f78d)">
     <!-- 10 -->
     <g transform="translate(212.270102 118.467913) scale(0.1 -0.1)">
      <use xlink:href="#DejaVuSans-31"/>
      <use xlink:href="#DejaVuSans-30" x="63.623047"/>
     </g>
    </g>
   </g>
   <g id="text_12">
    <g clip-path="url(#p6d5685f78d)">
     <!-- 11 -->
     <g transform="translate(162.133247 104.618719) scale(0.1 -0.1)">
      <use xlink:href="#DejaVuSans-31"/>
      <use xlink:href="#DejaVuSans-31" x="63.623047"/>
     </g>
    </g>
   </g>
   <g id="text_13">
    <g clip-path="url(#p6d5685f78d)">
     <!-- 12 -->
     <g transform="translate(409.860273 114.972446) scale(0.1 -0.1)">
      <use xlink:href="#DejaVuSans-31"/>
      <use xlink:href="#DejaVuSans-32" x="63.623047"/>
     </g>
    </g>
   </g>
   <g id="text_14">
    <g clip-path="url(#p6d5685f78d)">
     <!-- 13 -->
     <g transform="translate(33.624277 205.058135) scale(0.1 -0.1)">
      <use xlink:href="#DejaVuSans-31"/>
      <use xlink:href="#DejaVuSans-33" x="63.623047"/>
     </g>
    </g>
   </g>
   <g id="text_15">
    <g clip-path="url(#p6d5685f78d)">
     <!-- 14 -->
     <g transform="translate(106.376042 153.998827) scale(0.1 -0.1)">
      <use xlink:href="#DejaVuSans-31"/>
      <use xlink:href="#DejaVuSans-34" x="63.623047"/>
     </g>
    </g>
   </g>
   <g id="text_16">
    <g clip-path="url(#p6d5685f78d)">
     <!-- 15 -->
     <g transform="translate(86.563545 186.106475) scale(0.1 -0.1)">
      <use xlink:href="#DejaVuSans-31"/>
      <use xlink:href="#DejaVuSans-35" x="63.623047"/>
     </g>
    </g>
   </g>
   <g id="text_17">
    <g clip-path="url(#p6d5685f78d)">
     <!-- 16 -->
     <g transform="translate(162.963725 159.094981) scale(0.1 -0.1)">
      <use xlink:href="#DejaVuSans-31"/>
      <use xlink:href="#DejaVuSans-36" x="63.623047"/>
     </g>
    </g>
   </g>
   <g id="text_18">
    <g clip-path="url(#p6d5685f78d)">
     <!-- 17 -->
     <g transform="translate(356.495061 332.650284) scale(0.1 -0.1)">
      <use xlink:href="#DejaVuSans-31"/>
      <use xlink:href="#DejaVuSans-37" x="63.623047"/>
     </g>
    </g>
   </g>
   <g id="text_19">
    <g clip-path="url(#p6d5685f78d)">
     <!-- 18 -->
     <g transform="translate(236.446141 101.028872) scale(0.1 -0.1)">
      <use xlink:href="#DejaVuSans-31"/>
      <use xlink:href="#DejaVuSans-38" x="63.623047"/>
     </g>
    </g>
   </g>
   <g id="text_20">
    <g clip-path="url(#p6d5685f78d)">
     <!-- 19 -->
     <g transform="translate(257.263899 134.507123) scale(0.1 -0.1)">
      <use xlink:href="#DejaVuSans-31"/>
      <use xlink:href="#DejaVuSans-39" x="63.623047"/>
     </g>
    </g>
   </g>
   <g id="text_21">
    <g clip-path="url(#p6d5685f78d)">
     <!-- 20 -->
     <g transform="translate(354.79635 129.383542) scale(0.1 -0.1)">
      <use xlink:href="#DejaVuSans-32"/>
      <use xlink:href="#DejaVuSans-30" x="63.623047"/>
     </g>
    </g>
   </g>
   <g id="text_22">
    <g clip-path="url(#p6d5685f78d)">
     <!-- 21 -->
     <g transform="translate(127.401391 58.1137) scale(0.1 -0.1)">
      <use xlink:href="#DejaVuSans-32"/>
      <use xlink:href="#DejaVuSans-31" x="63.623047"/>
     </g>
    </g>
   </g>
   <g id="text_23">
    <g clip-path="url(#p6d5685f78d)">
     <!-- 22 -->
     <g transform="translate(205.910176 176.866479) scale(0.1 -0.1)">
      <use xlink:href="#DejaVuSans-32"/>
      <use xlink:href="#DejaVuSans-32" x="63.623047"/>
     </g>
    </g>
   </g>
  </g>
 </g>
 <defs>
  <clipPath id="p6d5685f78d">
   <rect x="0" y="0" width="460.8" height="345.6"/>
  </clipPath>
 </defs>
</svg>
