<?xml version="1.0" encoding="utf-8" standalone="no"?>
<!DOCTYPE svg PUBLIC "-//W3C//DTD SVG 1.1//EN"
  "http://www.w3.org/Graphics/SVG/1.1/DTD/svg11.dtd">
<svg xmlns:xlink="http://www.w3.org/1999/xlink" width="460.8pt" height="345.6pt" viewBox="0 0 460.8 345.6" xmlns="http://www.w3.org/2000/svg" version="1.1">
 <metadata>
  <rdf:RDF xmlns:dc="http://purl.org/dc/elements/1.1/" xmlns:cc="http://creativecommons.org/ns#" xmlns:rdf="http://www.w3.org/1999/02/22-rdf-syntax-ns#">
   <cc:Work>
    <dc:type rdf:resource="http://purl.org/dc/dcmitype/StillImage"/>
    <dc:date>2024-01-30T11:47:56.295211</dc:date>
    <dc:format>image/svg+xml</dc:format>
    <dc:creator>
     <cc:Agent>
      <dc:title>Matplotlib v3.6.1, https://matplotlib.org/</dc:title>
     </cc:Agent>
    </dc:creator>
   </cc:Work>
  </rdf:RDF>
 </metadata>
 <defs>
  <style type="text/css">*{stroke-linejoin: round; stroke-linecap: butt}</style>
 </defs>
 <g id="figure_1">
  <g id="patch_1">
   <path d="M 0 345.6 
L 460.8 345.6 
L 460.8 0 
L 0 0 
z
" style="fill: #ffffff"/>
  </g>
  <g id="axes_1">
   <g id="patch_2">
    <path d="M 170.062657 148.950265 
Q 173.720283 170.124525 177.187599 190.197068 
" clip-path="url(#p4c86feae32)" style="fill: none; stroke: #000000; stroke-linecap: round"/>
    <path d="M 178.477539 185.915006 
L 177.187599 190.197068 
L 174.535913 186.59588 
L 178.477539 185.915006 
z
" clip-path="url(#p4c86feae32)" style="stroke: #000000; stroke-linecap: round"/>
   </g>
   <g id="patch_3">
    <path d="M 169.855528 145.111226 
Q 170.989623 127.214311 172.053011 110.433193 
" clip-path="url(#p4c86feae32)" style="fill: none; stroke: #000000; stroke-linecap: round"/>
    <path d="M 169.804049 114.298703 
L 172.053011 110.433193 
L 173.796042 114.551669 
L 169.804049 114.298703 
z
" clip-path="url(#p4c86feae32)" style="stroke: #000000; stroke-linecap: round"/>
   </g>
   <g id="patch_4">
    <path d="M 127.81353 243.509613 
Q 152.080045 219.045288 175.559207 195.374736 
" clip-path="url(#p4c86feae32)" style="fill: none; stroke: #000000; stroke-linecap: round"/>
    <path d="M 171.322341 196.806159 
L 175.559207 195.374736 
L 174.162226 199.623082 
L 171.322341 196.806159 
z
" clip-path="url(#p4c86feae32)" style="stroke: #000000; stroke-linecap: round"/>
   </g>
   <g id="patch_5">
    <path d="M 126.227483 246.804133 
Q 124.695644 259.881312 123.29388 271.84805 
" clip-path="url(#p4c86feae32)" style="fill: none; stroke: #000000; stroke-linecap: round"/>
    <path d="M 125.74567 268.107899 
L 123.29388 271.84805 
L 121.772834 267.642528 
L 125.74567 268.107899 
z
" clip-path="url(#p4c86feae32)" style="stroke: #000000; stroke-linecap: round"/>
   </g>
   <g id="patch_6">
    <path d="M 124.612013 245.478796 
Q 101.197117 253.076318 78.845673 260.328777 
" clip-path="url(#p4c86feae32)" style="fill: none; stroke: #000000; stroke-linecap: round"/>
    <path d="M 83.267664 260.996605 
L 78.845673 260.328777 
L 82.033131 257.191881 
L 83.267664 260.996605 
z
" clip-path="url(#p4c86feae32)" style="stroke: #000000; stroke-linecap: round"/>
   </g>
   <g id="patch_7">
    <path d="M 125.00584 246.169305 
Q 110.629139 258.965189 97.087589 271.017754 
" clip-path="url(#p4c86feae32)" style="fill: none; stroke: #000000; stroke-linecap: round"/>
    <path d="M 101.405204 269.852334 
L 97.087589 271.017754 
L 98.745823 266.86441 
L 101.405204 269.852334 
z
" clip-path="url(#p4c86feae32)" style="stroke: #000000; stroke-linecap: round"/>
   </g>
   <g id="patch_8">
    <path d="M 228.455648 138.776567 
Q 249.507976 115.280178 269.814229 92.616479 
" clip-path="url(#p4c86feae32)" style="fill: none; stroke: #000000; stroke-linecap: round"/>
    <path d="M 265.655429 94.260982 
L 269.814229 92.616479 
L 268.634552 96.93022 
L 265.655429 94.260982 
z
" clip-path="url(#p4c86feae32)" style="stroke: #000000; stroke-linecap: round"/>
   </g>
   <g id="patch_9">
    <path d="M 225.846465 141.629787 
Q 202.436753 166.712448 179.789883 190.977752 
" clip-path="url(#p4c86feae32)" style="fill: none; stroke: #000000; stroke-linecap: round"/>
    <path d="M 183.981241 189.418099 
L 179.789883 190.977752 
L 181.056975 186.688874 
L 183.981241 189.418099 
z
" clip-path="url(#p4c86feae32)" style="stroke: #000000; stroke-linecap: round"/>
   </g>
   <g id="patch_10">
    <path d="M 177.378292 191.301001 
Q 173.720666 170.126741 170.25335 150.054198 
" clip-path="url(#p4c86feae32)" style="fill: none; stroke: #000000; stroke-linecap: round"/>
    <path d="M 168.963411 154.33626 
L 170.25335 150.054198 
L 172.905036 153.655386 
L 168.963411 154.33626 
z
" clip-path="url(#p4c86feae32)" style="stroke: #000000; stroke-linecap: round"/>
   </g>
   <g id="patch_11">
    <path d="M 176.346973 194.580547 
Q 152.080458 219.044872 128.601297 242.715425 
" clip-path="url(#p4c86feae32)" style="fill: none; stroke: #000000; stroke-linecap: round"/>
    <path d="M 132.838162 241.284001 
L 128.601297 242.715425 
L 129.998277 238.467078 
L 132.838162 241.284001 
z
" clip-path="url(#p4c86feae32)" style="stroke: #000000; stroke-linecap: round"/>
   </g>
   <g id="patch_12">
    <path d="M 179.026968 191.795187 
Q 202.43668 166.712526 225.083551 142.447222 
" clip-path="url(#p4c86feae32)" style="fill: none; stroke: #000000; stroke-linecap: round"/>
    <path d="M 220.892193 144.006876 
L 225.083551 142.447222 
L 223.816459 146.736101 
L 220.892193 144.006876 
z
" clip-path="url(#p4c86feae32)" style="stroke: #000000; stroke-linecap: round"/>
   </g>
   <g id="patch_13">
    <path d="M 175.778081 193.363542 
Q 155.783256 194.968805 136.902878 196.484596 
" clip-path="url(#p4c86feae32)" style="fill: none; stroke: #000000; stroke-linecap: round"/>
    <path d="M 141.050102 198.158076 
L 136.902878 196.484596 
L 140.729996 194.170905 
L 141.050102 198.158076 
z
" clip-path="url(#p4c86feae32)" style="stroke: #000000; stroke-linecap: round"/>
   </g>
   <g id="patch_14">
    <path d="M 175.789674 192.95297 
Q 137.521182 187.85262 100.360925 182.899972 
" clip-path="url(#p4c86feae32)" style="fill: none; stroke: #000000; stroke-linecap: round"/>
    <path d="M 104.061645 185.410882 
L 100.360925 182.899972 
L 104.590085 181.445942 
L 104.061645 185.410882 
z
" clip-path="url(#p4c86feae32)" style="stroke: #000000; stroke-linecap: round"/>
   </g>
   <g id="patch_15">
    <path d="M 179.502779 193.929755 
Q 220.513647 210.406126 260.487077 226.4657 
" clip-path="url(#p4c86feae32)" style="fill: none; stroke: #000000; stroke-linecap: round"/>
    <path d="M 257.521012 223.118692 
L 260.487077 226.4657 
L 256.029832 226.830347 
L 257.521012 223.118692 
z
" clip-path="url(#p4c86feae32)" style="stroke: #000000; stroke-linecap: round"/>
   </g>
   <g id="patch_16">
    <path d="M 178.829876 194.789293 
Q 191.326311 212.393306 203.175576 229.085633 
" clip-path="url(#p4c86feae32)" style="fill: none; stroke: #000000; stroke-linecap: round"/>
    <path d="M 202.491057 224.666195 
L 203.175576 229.085633 
L 199.229314 226.981586 
L 202.491057 224.666195 
z
" clip-path="url(#p4c86feae32)" style="stroke: #000000; stroke-linecap: round"/>
   </g>
   <g id="patch_17">
    <path d="M 175.9489 192.399953 
Q 158.673823 184.457707 142.414566 176.982485 
" clip-path="url(#p4c86feae32)" style="fill: none; stroke: #000000; stroke-linecap: round"/>
    <path d="M 145.213431 180.470515 
L 142.414566 176.982485 
L 146.884309 176.836211 
L 145.213431 180.470515 
z
" clip-path="url(#p4c86feae32)" style="stroke: #000000; stroke-linecap: round"/>
   </g>
   <g id="patch_18">
    <path d="M 177.717573 191.273398 
Q 177.759533 182.954732 177.795853 175.754087 
" clip-path="url(#p4c86feae32)" style="fill: none; stroke: #000000; stroke-linecap: round"/>
    <path d="M 175.775703 179.743948 
L 177.795853 175.754087 
L 179.775652 179.764124 
L 175.775703 179.743948 
z
" clip-path="url(#p4c86feae32)" style="stroke: #000000; stroke-linecap: round"/>
   </g>
   <g id="patch_19">
    <path d="M 123.163785 272.958664 
Q 124.695624 259.881485 126.097387 247.914748 
" clip-path="url(#p4c86feae32)" style="fill: none; stroke: #000000; stroke-linecap: round"/>
    <path d="M 123.645598 251.654898 
L 126.097387 247.914748 
L 127.618434 252.12027 
L 123.645598 251.654898 
z
" clip-path="url(#p4c86feae32)" style="stroke: #000000; stroke-linecap: round"/>
   </g>
   <g id="patch_20">
    <path d="M 41.908333 175.309304 
Q 68.661358 178.778462 94.305633 182.103845 
" clip-path="url(#p4c86feae32)" style="fill: none; stroke: #000000; stroke-linecap: round"/>
    <path d="M 90.596038 179.606064 
L 94.305633 182.103845 
L 90.081651 183.572852 
L 90.596038 179.606064 
z
" clip-path="url(#p4c86feae32)" style="stroke: #000000; stroke-linecap: round"/>
   </g>
   <g id="patch_21">
    <path d="M 77.77799 260.675212 
Q 101.192886 253.07769 123.54433 245.825232 
" clip-path="url(#p4c86feae32)" style="fill: none; stroke: #000000; stroke-linecap: round"/>
    <path d="M 119.122339 245.157403 
L 123.54433 245.825232 
L 120.356872 248.962127 
L 119.122339 245.157403 
z
" clip-path="url(#p4c86feae32)" style="stroke: #000000; stroke-linecap: round"/>
   </g>
   <g id="patch_22">
    <path d="M 96.250377 271.762909 
Q 110.627077 258.967025 124.168627 246.914461 
" clip-path="url(#p4c86feae32)" style="fill: none; stroke: #000000; stroke-linecap: round"/>
    <path d="M 119.851012 248.07988 
L 124.168627 246.914461 
L 122.510393 251.067804 
L 119.851012 248.07988 
z
" clip-path="url(#p4c86feae32)" style="stroke: #000000; stroke-linecap: round"/>
   </g>
   <g id="patch_23">
    <path d="M 135.786355 196.574235 
Q 155.781181 194.968972 174.661558 193.453181 
" clip-path="url(#p4c86feae32)" style="fill: none; stroke: #000000; stroke-linecap: round"/>
    <path d="M 170.514334 191.779701 
L 174.661558 193.453181 
L 170.83444 195.766872 
L 170.514334 191.779701 
z
" clip-path="url(#p4c86feae32)" style="stroke: #000000; stroke-linecap: round"/>
   </g>
   <g id="patch_24">
    <path d="M 61.529816 244.04487 
Q 91.092718 240.473691 119.545654 237.036595 
" clip-path="url(#p4c86feae32)" style="fill: none; stroke: #000000; stroke-linecap: round"/>
    <path d="M 115.334669 235.53074 
L 119.545654 237.036595 
L 115.814379 239.50187 
L 115.334669 235.53074 
z
" clip-path="url(#p4c86feae32)" style="stroke: #000000; stroke-linecap: round"/>
   </g>
   <g id="patch_25">
    <path d="M 379.221425 289.852547 
Q 393.398637 302.097674 406.72973 313.611991 
" clip-path="url(#p4c86feae32)" style="fill: none; stroke: #000000; stroke-linecap: round"/>
    <path d="M 405.009873 309.483785 
L 406.72973 313.611991 
L 402.39525 312.510953 
L 405.009873 309.483785 
z
" clip-path="url(#p4c86feae32)" style="stroke: #000000; stroke-linecap: round"/>
   </g>
   <g id="patch_26">
    <path d="M 375.837388 288.31546 
Q 355.001086 285.362073 335.271753 282.56559 
" clip-path="url(#p4c86feae32)" style="fill: none; stroke: #000000; stroke-linecap: round"/>
    <path d="M 338.951487 285.107155 
L 335.271753 282.56559 
L 339.512846 281.146742 
L 338.951487 285.107155 
z
" clip-path="url(#p4c86feae32)" style="stroke: #000000; stroke-linecap: round"/>
   </g>
   <g id="patch_27">
    <path d="M 376.937252 286.831834 
Q 368.768856 269.332949 361.073367 252.847157 
" clip-path="url(#p4c86feae32)" style="fill: none; stroke: #000000; stroke-linecap: round"/>
    <path d="M 360.953014 257.317673 
L 361.073367 252.847157 
L 364.577568 255.625749 
L 360.953014 257.317673 
z
" clip-path="url(#p4c86feae32)" style="stroke: #000000; stroke-linecap: round"/>
   </g>
   <g id="patch_28">
    <path d="M 360.601177 251.8356 
Q 368.769573 269.334486 376.465062 285.820278 
" clip-path="url(#p4c86feae32)" style="fill: none; stroke: #000000; stroke-linecap: round"/>
    <path d="M 376.585414 281.349762 
L 376.465062 285.820278 
L 372.96086 283.041686 
L 376.585414 281.349762 
z
" clip-path="url(#p4c86feae32)" style="stroke: #000000; stroke-linecap: round"/>
   </g>
   <g id="patch_29">
    <path d="M 361.711688 250.188421 
Q 389.221755 251.735042 415.61555 253.218905 
" clip-path="url(#p4c86feae32)" style="fill: none; stroke: #000000; stroke-linecap: round"/>
    <path d="M 411.73412 250.997532 
L 415.61555 253.218905 
L 411.509594 254.991226 
L 411.73412 250.997532 
z
" clip-path="url(#p4c86feae32)" style="stroke: #000000; stroke-linecap: round"/>
   </g>
   <g id="patch_30">
    <path d="M 361.655108 249.595427 
Q 385.927046 243.318638 409.116559 237.321767 
" clip-path="url(#p4c86feae32)" style="fill: none; stroke: #000000; stroke-linecap: round"/>
    <path d="M 404.743221 236.386931 
L 409.116559 237.321767 
L 405.744687 240.259535 
L 404.743221 236.386931 
z
" clip-path="url(#p4c86feae32)" style="stroke: #000000; stroke-linecap: round"/>
   </g>
   <g id="patch_31">
    <path d="M 357.894725 249.640263 
Q 311.551065 238.842171 266.296274 228.297786 
" clip-path="url(#p4c86feae32)" style="fill: none; stroke: #000000; stroke-linecap: round"/>
    <path d="M 269.738081 231.153301 
L 266.296274 228.297786 
L 270.645769 227.257649 
L 269.738081 231.153301 
z
" clip-path="url(#p4c86feae32)" style="stroke: #000000; stroke-linecap: round"/>
   </g>
   <g id="patch_32">
    <path d="M 416.738089 253.282014 
Q 389.228022 251.735394 362.834226 250.25153 
" clip-path="url(#p4c86feae32)" style="fill: none; stroke: #000000; stroke-linecap: round"/>
    <path d="M 366.715657 252.472903 
L 362.834226 250.25153 
L 366.940183 248.47921 
L 366.715657 252.472903 
z
" clip-path="url(#p4c86feae32)" style="stroke: #000000; stroke-linecap: round"/>
   </g>
   <g id="patch_33">
    <path d="M 410.199562 237.041699 
Q 385.927624 243.318488 362.738111 249.315359 
" clip-path="url(#p4c86feae32)" style="fill: none; stroke: #000000; stroke-linecap: round"/>
    <path d="M 367.111449 250.250195 
L 362.738111 249.315359 
L 366.109983 246.377591 
L 367.111449 250.250195 
z
" clip-path="url(#p4c86feae32)" style="stroke: #000000; stroke-linecap: round"/>
   </g>
   <g id="patch_34">
    <path d="M 99.25058 182.751988 
Q 137.519072 187.852338 174.679329 192.804986 
" clip-path="url(#p4c86feae32)" style="fill: none; stroke: #000000; stroke-linecap: round"/>
    <path d="M 170.978608 190.294076 
L 174.679329 192.804986 
L 170.450169 194.259016 
L 170.978608 190.294076 
z
" clip-path="url(#p4c86feae32)" style="stroke: #000000; stroke-linecap: round"/>
   </g>
   <g id="patch_35">
    <path d="M 95.410886 182.247167 
Q 68.657861 178.778009 43.013586 175.452626 
" clip-path="url(#p4c86feae32)" style="fill: none; stroke: #000000; stroke-linecap: round"/>
    <path d="M 46.72318 177.950407 
L 43.013586 175.452626 
L 47.237568 173.983619 
L 46.72318 177.950407 
z
" clip-path="url(#p4c86feae32)" style="stroke: #000000; stroke-linecap: round"/>
   </g>
   <g id="patch_36">
    <path d="M 120.648901 236.903324 
Q 91.085999 240.474502 62.633063 243.911598 
" clip-path="url(#p4c86feae32)" style="fill: none; stroke: #000000; stroke-linecap: round"/>
    <path d="M 66.844048 245.417454 
L 62.633063 243.911598 
L 66.364338 241.446323 
L 66.844048 245.417454 
z
" clip-path="url(#p4c86feae32)" style="stroke: #000000; stroke-linecap: round"/>
   </g>
   <g id="patch_37">
    <path d="M 124.507473 236.55115 
Q 163.760643 234.123118 201.897912 231.76411 
" clip-path="url(#p4c86feae32)" style="fill: none; stroke: #000000; stroke-linecap: round"/>
    <path d="M 197.782067 230.014876 
L 201.897912 231.76411 
L 198.029018 234.007246 
L 197.782067 230.014876 
z
" clip-path="url(#p4c86feae32)" style="stroke: #000000; stroke-linecap: round"/>
   </g>
   <g id="patch_38">
    <path d="M 407.57827 314.344892 
Q 393.401058 302.099765 380.069965 290.585448 
" clip-path="url(#p4c86feae32)" style="fill: none; stroke: #000000; stroke-linecap: round"/>
    <path d="M 381.789822 294.713655 
L 380.069965 290.585448 
L 384.404445 291.686486 
L 381.789822 294.713655 
z
" clip-path="url(#p4c86feae32)" style="stroke: #000000; stroke-linecap: round"/>
   </g>
   <g id="patch_39">
    <path d="M 334.165918 282.408846 
Q 355.00222 285.362234 374.731553 288.158717 
" clip-path="url(#p4c86feae32)" style="fill: none; stroke: #000000; stroke-linecap: round"/>
    <path d="M 371.051819 285.617151 
L 374.731553 288.158717 
L 370.490461 289.577565 
L 371.051819 285.617151 
z
" clip-path="url(#p4c86feae32)" style="stroke: #000000; stroke-linecap: round"/>
   </g>
   <g id="patch_40">
    <path d="M 330.802999 280.843983 
Q 316.244008 267.804995 302.517866 255.511903 
" clip-path="url(#p4c86feae32)" style="fill: none; stroke: #000000; stroke-linecap: round"/>
    <path d="M 304.163256 259.670352 
L 302.517866 255.511903 
L 306.831859 256.69066 
L 304.163256 259.670352 
z
" clip-path="url(#p4c86feae32)" style="stroke: #000000; stroke-linecap: round"/>
   </g>
   <g id="patch_41">
    <path d="M 418.936249 285.916187 
Q 393.598472 279.43788 369.343884 273.23652 
" clip-path="url(#p4c86feae32)" style="fill: none; stroke: #000000; stroke-linecap: round"/>
    <path d="M 372.723803 276.165027 
L 369.343884 273.23652 
L 373.71464 272.289689 
L 372.723803 276.165027 
z
" clip-path="url(#p4c86feae32)" style="stroke: #000000; stroke-linecap: round"/>
   </g>
   <g id="patch_42">
    <path d="M 241.618301 242.59652 
Q 251.674373 235.650663 260.81052 229.340209 
" clip-path="url(#p4c86feae32)" style="fill: none; stroke: #000000; stroke-linecap: round"/>
    <path d="M 256.382652 229.967887 
L 260.81052 229.340209 
L 258.655942 233.259111 
L 256.382652 229.967887 
z
" clip-path="url(#p4c86feae32)" style="stroke: #000000; stroke-linecap: round"/>
   </g>
   <g id="patch_43">
    <path d="M 260.209492 252.286748 
Q 261.645093 240.905467 262.940776 230.633431 
" clip-path="url(#p4c86feae32)" style="fill: none; stroke: #000000; stroke-linecap: round"/>
    <path d="M 260.455918 234.351694 
L 262.940776 230.633431 
L 264.424472 234.852275 
L 260.455918 234.351694 
z
" clip-path="url(#p4c86feae32)" style="stroke: #000000; stroke-linecap: round"/>
   </g>
   <g id="patch_44">
    <path d="M 261.527811 226.883821 
Q 220.516943 210.40745 180.543513 194.347877 
" clip-path="url(#p4c86feae32)" style="fill: none; stroke: #000000; stroke-linecap: round"/>
    <path d="M 183.509578 197.694884 
L 180.543513 194.347877 
L 185.000758 193.98323 
L 183.509578 197.694884 
z
" clip-path="url(#p4c86feae32)" style="stroke: #000000; stroke-linecap: round"/>
   </g>
   <g id="patch_45">
    <path d="M 265.209684 228.04461 
Q 311.553343 238.842702 356.808135 249.387087 
" clip-path="url(#p4c86feae32)" style="fill: none; stroke: #000000; stroke-linecap: round"/>
    <path d="M 353.366327 246.531573 
L 356.808135 249.387087 
L 352.458639 250.427225 
L 353.366327 246.531573 
z
" clip-path="url(#p4c86feae32)" style="stroke: #000000; stroke-linecap: round"/>
   </g>
   <g id="patch_46">
    <path d="M 261.727153 228.707079 
Q 251.671081 235.652936 242.534934 241.96339 
" clip-path="url(#p4c86feae32)" style="fill: none; stroke: #000000; stroke-linecap: round"/>
    <path d="M 246.962802 241.335711 
L 242.534934 241.96339 
L 244.689512 238.044488 
L 246.962802 241.335711 
z
" clip-path="url(#p4c86feae32)" style="stroke: #000000; stroke-linecap: round"/>
   </g>
   <g id="patch_47">
    <path d="M 263.080711 229.524042 
Q 261.645111 240.905323 260.349427 251.177359 
" clip-path="url(#p4c86feae32)" style="fill: none; stroke: #000000; stroke-linecap: round"/>
    <path d="M 262.834285 247.459096 
L 260.349427 251.177359 
L 258.865732 246.958515 
L 262.834285 247.459096 
z
" clip-path="url(#p4c86feae32)" style="stroke: #000000; stroke-linecap: round"/>
   </g>
   <g id="patch_48">
    <path d="M 203.821147 229.995064 
Q 191.324711 212.391051 179.475447 195.698723 
" clip-path="url(#p4c86feae32)" style="fill: none; stroke: #000000; stroke-linecap: round"/>
    <path d="M 180.159966 200.118162 
L 179.475447 195.698723 
L 183.421708 197.802771 
L 180.159966 200.118162 
z
" clip-path="url(#p4c86feae32)" style="stroke: #000000; stroke-linecap: round"/>
   </g>
   <g id="patch_49">
    <path d="M 203.010179 231.69531 
Q 163.757009 234.123343 125.61974 236.48235 
" clip-path="url(#p4c86feae32)" style="fill: none; stroke: #000000; stroke-linecap: round"/>
    <path d="M 129.735585 238.231584 
L 125.61974 236.48235 
L 129.488634 234.239215 
L 129.735585 238.231584 
z
" clip-path="url(#p4c86feae32)" style="stroke: #000000; stroke-linecap: round"/>
   </g>
   <g id="patch_50">
    <path d="M 206.830714 232.00947 
Q 252.591942 242.52494 297.263535 252.790023 
" clip-path="url(#p4c86feae32)" style="fill: none; stroke: #000000; stroke-linecap: round"/>
    <path d="M 293.813042 249.94501 
L 297.263535 252.790023 
L 292.917229 253.843409 
L 293.813042 249.94501 
z
" clip-path="url(#p4c86feae32)" style="stroke: #000000; stroke-linecap: round"/>
   </g>
   <g id="patch_51">
    <path d="M 368.261271 272.95972 
Q 393.599049 279.438027 417.853636 285.639387 
" clip-path="url(#p4c86feae32)" style="fill: none; stroke: #000000; stroke-linecap: round"/>
    <path d="M 414.473718 282.710881 
L 417.853636 285.639387 
L 413.48288 286.586218 
L 414.473718 282.710881 
z
" clip-path="url(#p4c86feae32)" style="stroke: #000000; stroke-linecap: round"/>
   </g>
   <g id="patch_52">
    <path d="M 364.523271 271.945069 
Q 333.31503 262.977638 303.181342 254.318971 
" clip-path="url(#p4c86feae32)" style="fill: none; stroke: #000000; stroke-linecap: round"/>
    <path d="M 306.473447 257.345858 
L 303.181342 254.318971 
L 307.578115 253.501419 
L 306.473447 257.345858 
z
" clip-path="url(#p4c86feae32)" style="stroke: #000000; stroke-linecap: round"/>
   </g>
   <g id="patch_53">
    <path d="M 336.805369 241.596839 
Q 319.445926 247.236367 303.149813 252.530454 
" clip-path="url(#p4c86feae32)" style="fill: none; stroke: #000000; stroke-linecap: round"/>
    <path d="M 307.572042 253.196706 
L 303.149813 252.530454 
L 306.336152 249.392422 
L 307.572042 253.196706 
z
" clip-path="url(#p4c86feae32)" style="stroke: #000000; stroke-linecap: round"/>
   </g>
   <g id="patch_54">
    <path d="M 301.686709 254.767522 
Q 316.2457 267.80651 329.971842 280.099601 
" clip-path="url(#p4c86feae32)" style="fill: none; stroke: #000000; stroke-linecap: round"/>
    <path d="M 328.326452 275.941153 
L 329.971842 280.099601 
L 325.65785 278.920844 
L 328.326452 275.941153 
z
" clip-path="url(#p4c86feae32)" style="stroke: #000000; stroke-linecap: round"/>
   </g>
   <g id="patch_55">
    <path d="M 298.355697 253.040991 
Q 252.594469 242.525521 207.922876 232.260438 
" clip-path="url(#p4c86feae32)" style="fill: none; stroke: #000000; stroke-linecap: round"/>
    <path d="M 211.373369 235.105451 
L 207.922876 232.260438 
L 212.269182 231.207051 
L 211.373369 235.105451 
z
" clip-path="url(#p4c86feae32)" style="stroke: #000000; stroke-linecap: round"/>
   </g>
   <g id="patch_56">
    <path d="M 302.104226 254.00947 
Q 333.312467 262.976901 363.446155 271.635569 
" clip-path="url(#p4c86feae32)" style="fill: none; stroke: #000000; stroke-linecap: round"/>
    <path d="M 360.15405 268.608681 
L 363.446155 271.635569 
L 359.049383 272.45312 
L 360.15405 268.608681 
z
" clip-path="url(#p4c86feae32)" style="stroke: #000000; stroke-linecap: round"/>
   </g>
   <g id="patch_57">
    <path d="M 302.085607 252.876181 
Q 319.44505 247.236652 335.741164 241.942565 
" clip-path="url(#p4c86feae32)" style="fill: none; stroke: #000000; stroke-linecap: round"/>
    <path d="M 331.318935 241.276314 
L 335.741164 241.942565 
L 332.554825 245.080597 
L 331.318935 241.276314 
z
" clip-path="url(#p4c86feae32)" style="stroke: #000000; stroke-linecap: round"/>
   </g>
   <g id="patch_58">
    <path d="M 301.54265 252.041589 
Q 310.154457 242.543837 318.015269 233.87434 
" clip-path="url(#p4c86feae32)" style="fill: none; stroke: #000000; stroke-linecap: round"/>
    <path d="M 313.846799 235.494172 
L 318.015269 233.87434 
L 316.810052 238.181015 
L 313.846799 235.494172 
z
" clip-path="url(#p4c86feae32)" style="stroke: #000000; stroke-linecap: round"/>
   </g>
   <g id="patch_59">
    <path d="M 318.767009 233.045264 
Q 310.155202 242.543016 302.29439 251.212513 
" clip-path="url(#p4c86feae32)" style="fill: none; stroke: #000000; stroke-linecap: round"/>
    <path d="M 306.46286 249.592681 
L 302.29439 251.212513 
L 303.499606 246.905837 
L 306.46286 249.592681 
z
" clip-path="url(#p4c86feae32)" style="stroke: #000000; stroke-linecap: round"/>
   </g>
   <g id="patch_60">
    <path d="M 194.688258 75.05944 
Q 214.850909 67.711013 233.963115 60.745428 
" clip-path="url(#p4c86feae32)" style="fill: none; stroke: #000000; stroke-linecap: round"/>
    <path d="M 229.520085 60.236034 
L 233.963115 60.745428 
L 230.889782 63.994216 
L 229.520085 60.236034 
z
" clip-path="url(#p4c86feae32)" style="stroke: #000000; stroke-linecap: round"/>
   </g>
   <g id="patch_61">
    <path d="M 191.811511 77.343064 
Q 182.557771 91.553135 173.914143 104.826315 
" clip-path="url(#p4c86feae32)" style="fill: none; stroke: #000000; stroke-linecap: round"/>
    <path d="M 177.772907 102.565797 
L 173.914143 104.826315 
L 174.420987 100.382994 
L 177.772907 102.565797 
z
" clip-path="url(#p4c86feae32)" style="stroke: #000000; stroke-linecap: round"/>
   </g>
   <g id="patch_62">
    <path d="M 172.123592 109.319371 
Q 170.989497 127.216286 169.926109 143.997404 
" clip-path="url(#p4c86feae32)" style="fill: none; stroke: #000000; stroke-linecap: round"/>
    <path d="M 172.175071 140.131893 
L 169.926109 143.997404 
L 168.183078 139.878928 
L 172.175071 140.131893 
z
" clip-path="url(#p4c86feae32)" style="stroke: #000000; stroke-linecap: round"/>
   </g>
   <g id="patch_63">
    <path d="M 173.300654 105.768391 
Q 182.554394 91.558321 191.198022 78.28514 
" clip-path="url(#p4c86feae32)" style="fill: none; stroke: #000000; stroke-linecap: round"/>
    <path d="M 187.339258 80.545658 
L 191.198022 78.28514 
L 190.691178 82.728462 
L 187.339258 80.545658 
z
" clip-path="url(#p4c86feae32)" style="stroke: #000000; stroke-linecap: round"/>
   </g>
   <g id="patch_64">
    <path d="M 141.398017 176.515125 
Q 158.673093 184.457371 174.932351 191.932593 
" clip-path="url(#p4c86feae32)" style="fill: none; stroke: #000000; stroke-linecap: round"/>
    <path d="M 172.133485 188.444563 
L 174.932351 191.932593 
L 170.462608 192.078867 
L 172.133485 188.444563 
z
" clip-path="url(#p4c86feae32)" style="stroke: #000000; stroke-linecap: round"/>
   </g>
   <g id="patch_65">
    <path d="M 177.801498 174.635025 
Q 177.759538 182.95369 177.723218 190.154336 
" clip-path="url(#p4c86feae32)" style="fill: none; stroke: #000000; stroke-linecap: round"/>
    <path d="M 179.743368 186.164475 
L 177.723218 190.154336 
L 175.743419 186.144299 
L 179.743368 186.164475 
z
" clip-path="url(#p4c86feae32)" style="stroke: #000000; stroke-linecap: round"/>
   </g>
   <g id="patch_66">
    <path d="M 319.492467 84.813408 
Q 296.632363 87.467226 274.882835 89.992118 
" clip-path="url(#p4c86feae32)" style="fill: none; stroke: #000000; stroke-linecap: round"/>
    <path d="M 279.086781 91.517515 
L 274.882835 89.992118 
L 278.625521 87.5442 
L 279.086781 91.517515 
z
" clip-path="url(#p4c86feae32)" style="stroke: #000000; stroke-linecap: round"/>
   </g>
   <g id="patch_67">
    <path d="M 286.429713 65.295969 
Q 279.626696 76.983808 273.386106 87.705379 
" clip-path="url(#p4c86feae32)" style="fill: none; stroke: #000000; stroke-linecap: round"/>
    <path d="M 277.126818 85.254446 
L 273.386106 87.705379 
L 273.669787 83.242249 
L 277.126818 85.254446 
z
" clip-path="url(#p4c86feae32)" style="stroke: #000000; stroke-linecap: round"/>
   </g>
   <g id="patch_68">
    <path d="M 313.236912 70.230159 
Q 293.413763 79.864239 274.59618 89.009612 
" clip-path="url(#p4c86feae32)" style="fill: none; stroke: #000000; stroke-linecap: round"/>
    <path d="M 279.068033 89.059974 
L 274.59618 89.009612 
L 277.319581 85.462347 
L 279.068033 89.059974 
z
" clip-path="url(#p4c86feae32)" style="stroke: #000000; stroke-linecap: round"/>
   </g>
   <g id="patch_69">
    <path d="M 270.560141 91.78397 
Q 249.507813 115.280359 229.20156 137.944058 
" clip-path="url(#p4c86feae32)" style="fill: none; stroke: #000000; stroke-linecap: round"/>
    <path d="M 233.360359 136.299555 
L 229.20156 137.944058 
L 230.381237 133.630317 
L 233.360359 136.299555 
z
" clip-path="url(#p4c86feae32)" style="stroke: #000000; stroke-linecap: round"/>
   </g>
   <g id="patch_70">
    <path d="M 273.771106 90.121178 
Q 296.631209 87.46736 318.380737 84.942468 
" clip-path="url(#p4c86feae32)" style="fill: none; stroke: #000000; stroke-linecap: round"/>
    <path d="M 314.176791 83.41707 
L 318.380737 84.942468 
L 314.638051 87.390386 
L 314.176791 83.41707 
z
" clip-path="url(#p4c86feae32)" style="stroke: #000000; stroke-linecap: round"/>
   </g>
   <g id="patch_71">
    <path d="M 272.824162 88.670819 
Q 279.627179 76.982979 285.86777 66.261409 
" clip-path="url(#p4c86feae32)" style="fill: none; stroke: #000000; stroke-linecap: round"/>
    <path d="M 282.127057 68.712341 
L 285.86777 66.261409 
L 285.584088 70.724538 
L 282.127057 68.712341 
z
" clip-path="url(#p4c86feae32)" style="stroke: #000000; stroke-linecap: round"/>
   </g>
   <g id="patch_72">
    <path d="M 273.590079 89.498579 
Q 293.413229 79.864499 312.230811 70.719126 
" clip-path="url(#p4c86feae32)" style="fill: none; stroke: #000000; stroke-linecap: round"/>
    <path d="M 307.758958 70.668764 
L 312.230811 70.719126 
L 309.50741 74.266391 
L 307.758958 70.668764 
z
" clip-path="url(#p4c86feae32)" style="stroke: #000000; stroke-linecap: round"/>
   </g>
   <g id="patch_73">
    <path d="M 270.394645 89.070446 
Q 254.341635 75.022402 239.129987 61.710637 
" clip-path="url(#p4c86feae32)" style="fill: none; stroke: #000000; stroke-linecap: round"/>
    <path d="M 240.823043 65.849908 
L 239.129987 61.710637 
L 243.457237 62.839756 
L 240.823043 65.849908 
z
" clip-path="url(#p4c86feae32)" style="stroke: #000000; stroke-linecap: round"/>
   </g>
   <g id="patch_74">
    <path d="M 235.01007 60.363857 
Q 214.84742 67.712284 195.735213 74.677869 
" clip-path="url(#p4c86feae32)" style="fill: none; stroke: #000000; stroke-linecap: round"/>
    <path d="M 200.178243 75.187263 
L 195.735213 74.677869 
L 198.808546 71.429081 
L 200.178243 75.187263 
z
" clip-path="url(#p4c86feae32)" style="stroke: #000000; stroke-linecap: round"/>
   </g>
   <g id="patch_75">
    <path d="M 238.287668 60.973521 
Q 254.340679 75.021565 269.552326 88.33333 
" clip-path="url(#p4c86feae32)" style="fill: none; stroke: #000000; stroke-linecap: round"/>
    <path d="M 267.859271 84.194059 
L 269.552326 88.33333 
L 265.225076 87.204211 
L 267.859271 84.194059 
z
" clip-path="url(#p4c86feae32)" style="stroke: #000000; stroke-linecap: round"/>
   </g>
   <g id="patch_76">
    <path d="M 236.873162 57.766771 
Q 237.147314 44.846475 237.397748 33.04396 
" clip-path="url(#p4c86feae32)" style="fill: none; stroke: #000000; stroke-linecap: round"/>
    <path d="M 235.313343 37.000632 
L 237.397748 33.04396 
L 239.312443 37.085488 
L 235.313343 37.000632 
z
" clip-path="url(#p4c86feae32)" style="stroke: #000000; stroke-linecap: round"/>
   </g>
   <g id="patch_77">
    <path d="M 237.421532 31.923099 
Q 237.14738 44.843396 236.896946 56.645911 
" clip-path="url(#p4c86feae32)" style="fill: none; stroke: #000000; stroke-linecap: round"/>
    <path d="M 238.981351 52.689239 
L 236.896946 56.645911 
L 234.982251 52.604383 
L 238.981351 52.689239 
z
" clip-path="url(#p4c86feae32)" style="stroke: #000000; stroke-linecap: round"/>
   </g>
   <g id="PathCollection_1">
    <defs>
     <path id="m80494ed68f" d="M 0 1.936492 
C 0.513564 1.936492 1.006162 1.732451 1.369306 1.369306 
C 1.732451 1.006162 1.936492 0.513564 1.936492 0 
C 1.936492 -0.513564 1.732451 -1.006162 1.369306 -1.369306 
C 1.006162 -1.732451 0.513564 -1.936492 0 -1.936492 
C -0.513564 -1.936492 -1.006162 -1.732451 -1.369306 -1.369306 
C -1.732451 -1.006162 -1.936492 -0.513564 -1.936492 0 
C -1.936492 0.513564 -1.732451 1.006162 -1.369306 1.369306 
C -1.006162 1.732451 -0.513564 1.936492 0 1.936492 
z
" style="stroke: #1f78b4"/>
    </defs>
    <g clip-path="url(#p4c86feae32)">
     <use xlink:href="#m80494ed68f" x="169.733137" y="147.04265" style="fill: #1f78b4; stroke: #1f78b4"/>
     <use xlink:href="#m80494ed68f" x="126.452692" y="244.881544" style="fill: #1f78b4; stroke: #1f78b4"/>
     <use xlink:href="#m80494ed68f" x="227.165622" y="140.216358" style="fill: #1f78b4; stroke: #1f78b4"/>
     <use xlink:href="#m80494ed68f" x="177.707812" y="193.208616" style="fill: #1f78b4; stroke: #1f78b4"/>
     <use xlink:href="#m80494ed68f" x="122.938576" y="274.881253" style="fill: #1f78b4; stroke: #1f78b4"/>
     <use xlink:href="#m80494ed68f" x="39.986777" y="175.060129" style="fill: #1f78b4; stroke: #1f78b4"/>
     <use xlink:href="#m80494ed68f" x="75.937311" y="261.272464" style="fill: #1f78b4; stroke: #1f78b4"/>
     <use xlink:href="#m80494ed68f" x="94.803524" y="273.05067" style="fill: #1f78b4; stroke: #1f78b4"/>
     <use xlink:href="#m80494ed68f" x="133.856624" y="196.729161" style="fill: #1f78b4; stroke: #1f78b4"/>
     <use xlink:href="#m80494ed68f" x="59.604276" y="244.277474" style="fill: #1f78b4; stroke: #1f78b4"/>
     <use xlink:href="#m80494ed68f" x="377.756798" y="288.587522" style="fill: #1f78b4; stroke: #1f78b4"/>
     <use xlink:href="#m80494ed68f" x="359.78163" y="250.079913" style="fill: #1f78b4; stroke: #1f78b4"/>
     <use xlink:href="#m80494ed68f" x="418.668147" y="253.390523" style="fill: #1f78b4; stroke: #1f78b4"/>
     <use xlink:href="#m80494ed68f" x="412.07304" y="236.557213" style="fill: #1f78b4; stroke: #1f78b4"/>
     <use xlink:href="#m80494ed68f" x="97.332442" y="182.496342" style="fill: #1f78b4; stroke: #1f78b4"/>
     <use xlink:href="#m80494ed68f" x="122.574441" y="236.67072" style="fill: #1f78b4; stroke: #1f78b4"/>
     <use xlink:href="#m80494ed68f" x="409.042897" y="315.609917" style="fill: #1f78b4; stroke: #1f78b4"/>
     <use xlink:href="#m80494ed68f" x="332.246508" y="282.136785" style="fill: #1f78b4; stroke: #1f78b4"/>
     <use xlink:href="#m80494ed68f" x="420.813223" y="286.396088" style="fill: #1f78b4; stroke: #1f78b4"/>
     <use xlink:href="#m80494ed68f" x="240.022676" y="243.698638" style="fill: #1f78b4; stroke: #1f78b4"/>
     <use xlink:href="#m80494ed68f" x="259.967425" y="254.20583" style="fill: #1f78b4; stroke: #1f78b4"/>
     <use xlink:href="#m80494ed68f" x="263.322778" y="227.604961" style="fill: #1f78b4; stroke: #1f78b4"/>
     <use xlink:href="#m80494ed68f" x="204.943211" y="231.575741" style="fill: #1f78b4; stroke: #1f78b4"/>
     <use xlink:href="#m80494ed68f" x="366.384297" y="272.479819" style="fill: #1f78b4; stroke: #1f78b4"/>
     <use xlink:href="#m80494ed68f" x="338.647776" y="240.9983" style="fill: #1f78b4; stroke: #1f78b4"/>
     <use xlink:href="#m80494ed68f" x="300.2432" y="253.47472" style="fill: #1f78b4; stroke: #1f78b4"/>
     <use xlink:href="#m80494ed68f" x="320.066458" y="231.612133" style="fill: #1f78b4; stroke: #1f78b4"/>
     <use xlink:href="#m80494ed68f" x="192.866182" y="75.723508" style="fill: #1f78b4; stroke: #1f78b4"/>
     <use xlink:href="#m80494ed68f" x="172.245983" y="107.387947" style="fill: #1f78b4; stroke: #1f78b4"/>
     <use xlink:href="#m80494ed68f" x="139.639105" y="175.706462" style="fill: #1f78b4; stroke: #1f78b4"/>
     <use xlink:href="#m80494ed68f" x="177.811259" y="172.699807" style="fill: #1f78b4; stroke: #1f78b4"/>
     <use xlink:href="#m80494ed68f" x="321.413405" y="84.590407" style="fill: #1f78b4; stroke: #1f78b4"/>
     <use xlink:href="#m80494ed68f" x="287.403708" y="63.622609" style="fill: #1f78b4; stroke: #1f78b4"/>
     <use xlink:href="#m80494ed68f" x="314.976824" y="69.384559" style="fill: #1f78b4; stroke: #1f78b4"/>
     <use xlink:href="#m80494ed68f" x="271.850167" y="90.344179" style="fill: #1f78b4; stroke: #1f78b4"/>
     <use xlink:href="#m80494ed68f" x="236.832146" y="59.699788" style="fill: #1f78b4; stroke: #1f78b4"/>
     <use xlink:href="#m80494ed68f" x="237.462548" y="29.990083" style="fill: #1f78b4; stroke: #1f78b4"/>
    </g>
   </g>
   <g id="text_1">
    <g clip-path="url(#p4c86feae32)">
     <!-- 0 -->
     <g transform="translate(166.551887 149.802025) scale(0.1 -0.1)">
      <defs>
       <path id="DejaVuSans-30" d="M 2034 4250 
Q 1547 4250 1301 3770 
Q 1056 3291 1056 2328 
Q 1056 1369 1301 889 
Q 1547 409 2034 409 
Q 2525 409 2770 889 
Q 3016 1369 3016 2328 
Q 3016 3291 2770 3770 
Q 2525 4250 2034 4250 
z
M 2034 4750 
Q 2819 4750 3233 4129 
Q 3647 3509 3647 2328 
Q 3647 1150 3233 529 
Q 2819 -91 2034 -91 
Q 1250 -91 836 529 
Q 422 1150 422 2328 
Q 422 3509 836 4129 
Q 1250 4750 2034 4750 
z
" transform="scale(0.015625)"/>
      </defs>
      <use xlink:href="#DejaVuSans-30"/>
     </g>
    </g>
   </g>
   <g id="text_2">
    <g clip-path="url(#p4c86feae32)">
     <!-- 1 -->
     <g transform="translate(123.271442 247.640919) scale(0.1 -0.1)">
      <defs>
       <path id="DejaVuSans-31" d="M 794 531 
L 1825 531 
L 1825 4091 
L 703 3866 
L 703 4441 
L 1819 4666 
L 2450 4666 
L 2450 531 
L 3481 531 
L 3481 0 
L 794 0 
L 794 531 
z
" transform="scale(0.015625)"/>
      </defs>
      <use xlink:href="#DejaVuSans-31"/>
     </g>
    </g>
   </g>
   <g id="text_3">
    <g clip-path="url(#p4c86feae32)">
     <!-- 2 -->
     <g transform="translate(223.984372 142.975733) scale(0.1 -0.1)">
      <defs>
       <path id="DejaVuSans-32" d="M 1228 531 
L 3431 531 
L 3431 0 
L 469 0 
L 469 531 
Q 828 903 1448 1529 
Q 2069 2156 2228 2338 
Q 2531 2678 2651 2914 
Q 2772 3150 2772 3378 
Q 2772 3750 2511 3984 
Q 2250 4219 1831 4219 
Q 1534 4219 1204 4116 
Q 875 4013 500 3803 
L 500 4441 
Q 881 4594 1212 4672 
Q 1544 4750 1819 4750 
Q 2544 4750 2975 4387 
Q 3406 4025 3406 3419 
Q 3406 3131 3298 2873 
Q 3191 2616 2906 2266 
Q 2828 2175 2409 1742 
Q 1991 1309 1228 531 
z
" transform="scale(0.015625)"/>
      </defs>
      <use xlink:href="#DejaVuSans-32"/>
     </g>
    </g>
   </g>
   <g id="text_4">
    <g clip-path="url(#p4c86feae32)">
     <!-- 3 -->
     <g transform="translate(174.526562 195.967991) scale(0.1 -0.1)">
      <defs>
       <path id="DejaVuSans-33" d="M 2597 2516 
Q 3050 2419 3304 2112 
Q 3559 1806 3559 1356 
Q 3559 666 3084 287 
Q 2609 -91 1734 -91 
Q 1441 -91 1130 -33 
Q 819 25 488 141 
L 488 750 
Q 750 597 1062 519 
Q 1375 441 1716 441 
Q 2309 441 2620 675 
Q 2931 909 2931 1356 
Q 2931 1769 2642 2001 
Q 2353 2234 1838 2234 
L 1294 2234 
L 1294 2753 
L 1863 2753 
Q 2328 2753 2575 2939 
Q 2822 3125 2822 3475 
Q 2822 3834 2567 4026 
Q 2313 4219 1838 4219 
Q 1578 4219 1281 4162 
Q 984 4106 628 3988 
L 628 4550 
Q 988 4650 1302 4700 
Q 1616 4750 1894 4750 
Q 2613 4750 3031 4423 
Q 3450 4097 3450 3541 
Q 3450 3153 3228 2886 
Q 3006 2619 2597 2516 
z
" transform="scale(0.015625)"/>
      </defs>
      <use xlink:href="#DejaVuSans-33"/>
     </g>
    </g>
   </g>
   <g id="text_5">
    <g clip-path="url(#p4c86feae32)">
     <!-- 4 -->
     <g transform="translate(119.757326 277.640628) scale(0.1 -0.1)">
      <defs>
       <path id="DejaVuSans-34" d="M 2419 4116 
L 825 1625 
L 2419 1625 
L 2419 4116 
z
M 2253 4666 
L 3047 4666 
L 3047 1625 
L 3713 1625 
L 3713 1100 
L 3047 1100 
L 3047 0 
L 2419 0 
L 2419 1100 
L 313 1100 
L 313 1709 
L 2253 4666 
z
" transform="scale(0.015625)"/>
      </defs>
      <use xlink:href="#DejaVuSans-34"/>
     </g>
    </g>
   </g>
   <g id="text_6">
    <g clip-path="url(#p4c86feae32)">
     <!-- 5 -->
     <g transform="translate(36.805527 177.819504) scale(0.1 -0.1)">
      <defs>
       <path id="DejaVuSans-35" d="M 691 4666 
L 3169 4666 
L 3169 4134 
L 1269 4134 
L 1269 2991 
Q 1406 3038 1543 3061 
Q 1681 3084 1819 3084 
Q 2600 3084 3056 2656 
Q 3513 2228 3513 1497 
Q 3513 744 3044 326 
Q 2575 -91 1722 -91 
Q 1428 -91 1123 -41 
Q 819 9 494 109 
L 494 744 
Q 775 591 1075 516 
Q 1375 441 1709 441 
Q 2250 441 2565 725 
Q 2881 1009 2881 1497 
Q 2881 1984 2565 2268 
Q 2250 2553 1709 2553 
Q 1456 2553 1204 2497 
Q 953 2441 691 2322 
L 691 4666 
z
" transform="scale(0.015625)"/>
      </defs>
      <use xlink:href="#DejaVuSans-35"/>
     </g>
    </g>
   </g>
   <g id="text_7">
    <g clip-path="url(#p4c86feae32)">
     <!-- 6 -->
     <g transform="translate(72.756061 264.031839) scale(0.1 -0.1)">
      <defs>
       <path id="DejaVuSans-36" d="M 2113 2584 
Q 1688 2584 1439 2293 
Q 1191 2003 1191 1497 
Q 1191 994 1439 701 
Q 1688 409 2113 409 
Q 2538 409 2786 701 
Q 3034 994 3034 1497 
Q 3034 2003 2786 2293 
Q 2538 2584 2113 2584 
z
M 3366 4563 
L 3366 3988 
Q 3128 4100 2886 4159 
Q 2644 4219 2406 4219 
Q 1781 4219 1451 3797 
Q 1122 3375 1075 2522 
Q 1259 2794 1537 2939 
Q 1816 3084 2150 3084 
Q 2853 3084 3261 2657 
Q 3669 2231 3669 1497 
Q 3669 778 3244 343 
Q 2819 -91 2113 -91 
Q 1303 -91 875 529 
Q 447 1150 447 2328 
Q 447 3434 972 4092 
Q 1497 4750 2381 4750 
Q 2619 4750 2861 4703 
Q 3103 4656 3366 4563 
z
" transform="scale(0.015625)"/>
      </defs>
      <use xlink:href="#DejaVuSans-36"/>
     </g>
    </g>
   </g>
   <g id="text_8">
    <g clip-path="url(#p4c86feae32)">
     <!-- 7 -->
     <g transform="translate(91.622274 275.810045) scale(0.1 -0.1)">
      <defs>
       <path id="DejaVuSans-37" d="M 525 4666 
L 3525 4666 
L 3525 4397 
L 1831 0 
L 1172 0 
L 2766 4134 
L 525 4134 
L 525 4666 
z
" transform="scale(0.015625)"/>
      </defs>
      <use xlink:href="#DejaVuSans-37"/>
     </g>
    </g>
   </g>
   <g id="text_9">
    <g clip-path="url(#p4c86feae32)">
     <!-- 8 -->
     <g transform="translate(130.675374 199.488536) scale(0.1 -0.1)">
      <defs>
       <path id="DejaVuSans-38" d="M 2034 2216 
Q 1584 2216 1326 1975 
Q 1069 1734 1069 1313 
Q 1069 891 1326 650 
Q 1584 409 2034 409 
Q 2484 409 2743 651 
Q 3003 894 3003 1313 
Q 3003 1734 2745 1975 
Q 2488 2216 2034 2216 
z
M 1403 2484 
Q 997 2584 770 2862 
Q 544 3141 544 3541 
Q 544 4100 942 4425 
Q 1341 4750 2034 4750 
Q 2731 4750 3128 4425 
Q 3525 4100 3525 3541 
Q 3525 3141 3298 2862 
Q 3072 2584 2669 2484 
Q 3125 2378 3379 2068 
Q 3634 1759 3634 1313 
Q 3634 634 3220 271 
Q 2806 -91 2034 -91 
Q 1263 -91 848 271 
Q 434 634 434 1313 
Q 434 1759 690 2068 
Q 947 2378 1403 2484 
z
M 1172 3481 
Q 1172 3119 1398 2916 
Q 1625 2713 2034 2713 
Q 2441 2713 2670 2916 
Q 2900 3119 2900 3481 
Q 2900 3844 2670 4047 
Q 2441 4250 2034 4250 
Q 1625 4250 1398 4047 
Q 1172 3844 1172 3481 
z
" transform="scale(0.015625)"/>
      </defs>
      <use xlink:href="#DejaVuSans-38"/>
     </g>
    </g>
   </g>
   <g id="text_10">
    <g clip-path="url(#p4c86feae32)">
     <!-- 9 -->
     <g transform="translate(56.423026 247.036849) scale(0.1 -0.1)">
      <defs>
       <path id="DejaVuSans-39" d="M 703 97 
L 703 672 
Q 941 559 1184 500 
Q 1428 441 1663 441 
Q 2288 441 2617 861 
Q 2947 1281 2994 2138 
Q 2813 1869 2534 1725 
Q 2256 1581 1919 1581 
Q 1219 1581 811 2004 
Q 403 2428 403 3163 
Q 403 3881 828 4315 
Q 1253 4750 1959 4750 
Q 2769 4750 3195 4129 
Q 3622 3509 3622 2328 
Q 3622 1225 3098 567 
Q 2575 -91 1691 -91 
Q 1453 -91 1209 -44 
Q 966 3 703 97 
z
M 1959 2075 
Q 2384 2075 2632 2365 
Q 2881 2656 2881 3163 
Q 2881 3666 2632 3958 
Q 2384 4250 1959 4250 
Q 1534 4250 1286 3958 
Q 1038 3666 1038 3163 
Q 1038 2656 1286 2365 
Q 1534 2075 1959 2075 
z
" transform="scale(0.015625)"/>
      </defs>
      <use xlink:href="#DejaVuSans-39"/>
     </g>
    </g>
   </g>
   <g id="text_11">
    <g clip-path="url(#p4c86feae32)">
     <!-- 10 -->
     <g transform="translate(371.394298 291.346897) scale(0.1 -0.1)">
      <use xlink:href="#DejaVuSans-31"/>
      <use xlink:href="#DejaVuSans-30" x="63.623047"/>
     </g>
    </g>
   </g>
   <g id="text_12">
    <g clip-path="url(#p4c86feae32)">
     <!-- 11 -->
     <g transform="translate(353.41913 252.839288) scale(0.1 -0.1)">
      <use xlink:href="#DejaVuSans-31"/>
      <use xlink:href="#DejaVuSans-31" x="63.623047"/>
     </g>
    </g>
   </g>
   <g id="text_13">
    <g clip-path="url(#p4c86feae32)">
     <!-- 12 -->
     <g transform="translate(412.305647 256.149898) scale(0.1 -0.1)">
      <use xlink:href="#DejaVuSans-31"/>
      <use xlink:href="#DejaVuSans-32" x="63.623047"/>
     </g>
    </g>
   </g>
   <g id="text_14">
    <g clip-path="url(#p4c86feae32)">
     <!-- 13 -->
     <g transform="translate(405.71054 239.316588) scale(0.1 -0.1)">
      <use xlink:href="#DejaVuSans-31"/>
      <use xlink:href="#DejaVuSans-33" x="63.623047"/>
     </g>
    </g>
   </g>
   <g id="text_15">
    <g clip-path="url(#p4c86feae32)">
     <!-- 14 -->
     <g transform="translate(90.969942 185.255717) scale(0.1 -0.1)">
      <use xlink:href="#DejaVuSans-31"/>
      <use xlink:href="#DejaVuSans-34" x="63.623047"/>
     </g>
    </g>
   </g>
   <g id="text_16">
    <g clip-path="url(#p4c86feae32)">
     <!-- 15 -->
     <g transform="translate(116.211941 239.430095) scale(0.1 -0.1)">
      <use xlink:href="#DejaVuSans-31"/>
      <use xlink:href="#DejaVuSans-35" x="63.623047"/>
     </g>
    </g>
   </g>
   <g id="text_17">
    <g clip-path="url(#p4c86feae32)">
     <!-- 16 -->
     <g transform="translate(402.680397 318.369292) scale(0.1 -0.1)">
      <use xlink:href="#DejaVuSans-31"/>
      <use xlink:href="#DejaVuSans-36" x="63.623047"/>
     </g>
    </g>
   </g>
   <g id="text_18">
    <g clip-path="url(#p4c86feae32)">
     <!-- 17 -->
     <g transform="translate(325.884008 284.89616) scale(0.1 -0.1)">
      <use xlink:href="#DejaVuSans-31"/>
      <use xlink:href="#DejaVuSans-37" x="63.623047"/>
     </g>
    </g>
   </g>
   <g id="text_19">
    <g clip-path="url(#p4c86feae32)">
     <!-- 18 -->
     <g transform="translate(414.450723 289.155463) scale(0.1 -0.1)">
      <use xlink:href="#DejaVuSans-31"/>
      <use xlink:href="#DejaVuSans-38" x="63.623047"/>
     </g>
    </g>
   </g>
   <g id="text_20">
    <g clip-path="url(#p4c86feae32)">
     <!-- 19 -->
     <g transform="translate(233.660176 246.458013) scale(0.1 -0.1)">
      <use xlink:href="#DejaVuSans-31"/>
      <use xlink:href="#DejaVuSans-39" x="63.623047"/>
     </g>
    </g>
   </g>
   <g id="text_21">
    <g clip-path="url(#p4c86feae32)">
     <!-- 20 -->
     <g transform="translate(253.604925 256.965205) scale(0.1 -0.1)">
      <use xlink:href="#DejaVuSans-32"/>
      <use xlink:href="#DejaVuSans-30" x="63.623047"/>
     </g>
    </g>
   </g>
   <g id="text_22">
    <g clip-path="url(#p4c86feae32)">
     <!-- 21 -->
     <g transform="translate(256.960278 230.364336) scale(0.1 -0.1)">
      <use xlink:href="#DejaVuSans-32"/>
      <use xlink:href="#DejaVuSans-31" x="63.623047"/>
     </g>
    </g>
   </g>
   <g id="text_23">
    <g clip-path="url(#p4c86feae32)">
     <!-- 22 -->
     <g transform="translate(198.580711 234.335116) scale(0.1 -0.1)">
      <use xlink:href="#DejaVuSans-32"/>
      <use xlink:href="#DejaVuSans-32" x="63.623047"/>
     </g>
    </g>
   </g>
   <g id="text_24">
    <g clip-path="url(#p4c86feae32)">
     <!-- 23 -->
     <g transform="translate(360.021797 275.239194) scale(0.1 -0.1)">
      <use xlink:href="#DejaVuSans-32"/>
      <use xlink:href="#DejaVuSans-33" x="63.623047"/>
     </g>
    </g>
   </g>
   <g id="text_25">
    <g clip-path="url(#p4c86feae32)">
     <!-- 24 -->
     <g transform="translate(332.285276 243.757675) scale(0.1 -0.1)">
      <use xlink:href="#DejaVuSans-32"/>
      <use xlink:href="#DejaVuSans-34" x="63.623047"/>
     </g>
    </g>
   </g>
   <g id="text_26">
    <g clip-path="url(#p4c86feae32)">
     <!-- 25 -->
     <g transform="translate(293.8807 256.234095) scale(0.1 -0.1)">
      <use xlink:href="#DejaVuSans-32"/>
      <use xlink:href="#DejaVuSans-35" x="63.623047"/>
     </g>
    </g>
   </g>
   <g id="text_27">
    <g clip-path="url(#p4c86feae32)">
     <!-- 26 -->
     <g transform="translate(313.703958 234.371508) scale(0.1 -0.1)">
      <use xlink:href="#DejaVuSans-32"/>
      <use xlink:href="#DejaVuSans-36" x="63.623047"/>
     </g>
    </g>
   </g>
   <g id="text_28">
    <g clip-path="url(#p4c86feae32)">
     <!-- 27 -->
     <g transform="translate(186.503682 78.482883) scale(0.1 -0.1)">
      <use xlink:href="#DejaVuSans-32"/>
      <use xlink:href="#DejaVuSans-37" x="63.623047"/>
     </g>
    </g>
   </g>
   <g id="text_29">
    <g clip-path="url(#p4c86feae32)">
     <!-- 28 -->
     <g transform="translate(165.883483 110.147322) scale(0.1 -0.1)">
      <use xlink:href="#DejaVuSans-32"/>
      <use xlink:href="#DejaVuSans-38" x="63.623047"/>
     </g>
    </g>
   </g>
   <g id="text_30">
    <g clip-path="url(#p4c86feae32)">
     <!-- 29 -->
     <g transform="translate(133.276605 178.465837) scale(0.1 -0.1)">
      <use xlink:href="#DejaVuSans-32"/>
      <use xlink:href="#DejaVuSans-39" x="63.623047"/>
     </g>
    </g>
   </g>
   <g id="text_31">
    <g clip-path="url(#p4c86feae32)">
     <!-- 30 -->
     <g transform="translate(171.448759 175.459182) scale(0.1 -0.1)">
      <use xlink:href="#DejaVuSans-33"/>
      <use xlink:href="#DejaVuSans-30" x="63.623047"/>
     </g>
    </g>
   </g>
   <g id="text_32">
    <g clip-path="url(#p4c86feae32)">
     <!-- 31 -->
     <g transform="translate(315.050905 87.349782) scale(0.1 -0.1)">
      <use xlink:href="#DejaVuSans-33"/>
      <use xlink:href="#DejaVuSans-31" x="63.623047"/>
     </g>
    </g>
   </g>
   <g id="text_33">
    <g clip-path="url(#p4c86feae32)">
     <!-- 32 -->
     <g transform="translate(281.041208 66.381984) scale(0.1 -0.1)">
      <use xlink:href="#DejaVuSans-33"/>
      <use xlink:href="#DejaVuSans-32" x="63.623047"/>
     </g>
    </g>
   </g>
   <g id="text_34">
    <g clip-path="url(#p4c86feae32)">
     <!-- 33 -->
     <g transform="translate(308.614324 72.143934) scale(0.1 -0.1)">
      <use xlink:href="#DejaVuSans-33"/>
      <use xlink:href="#DejaVuSans-33" x="63.623047"/>
     </g>
    </g>
   </g>
   <g id="text_35">
    <g clip-path="url(#p4c86feae32)">
     <!-- 34 -->
     <g transform="translate(265.487667 93.103554) scale(0.1 -0.1)">
      <use xlink:href="#DejaVuSans-33"/>
      <use xlink:href="#DejaVuSans-34" x="63.623047"/>
     </g>
    </g>
   </g>
   <g id="text_36">
    <g clip-path="url(#p4c86feae32)">
     <!-- 35 -->
     <g transform="translate(230.469646 62.459163) scale(0.1 -0.1)">
      <use xlink:href="#DejaVuSans-33"/>
      <use xlink:href="#DejaVuSans-35" x="63.623047"/>
     </g>
    </g>
   </g>
   <g id="text_37">
    <g clip-path="url(#p4c86feae32)">
     <!-- 36 -->
     <g transform="translate(231.100048 32.749458) scale(0.1 -0.1)">
      <use xlink:href="#DejaVuSans-33"/>
      <use xlink:href="#DejaVuSans-36" x="63.623047"/>
     </g>
    </g>
   </g>
  </g>
 </g>
 <defs>
  <clipPath id="p4c86feae32">
   <rect x="0" y="0" width="460.8" height="345.6"/>
  </clipPath>
 </defs>
</svg>
