<?xml version="1.0" encoding="utf-8" standalone="no"?>
<!DOCTYPE svg PUBLIC "-//W3C//DTD SVG 1.1//EN"
  "http://www.w3.org/Graphics/SVG/1.1/DTD/svg11.dtd">
<svg xmlns:xlink="http://www.w3.org/1999/xlink" width="460.8pt" height="345.6pt" viewBox="0 0 460.8 345.6" xmlns="http://www.w3.org/2000/svg" version="1.1">
 <metadata>
  <rdf:RDF xmlns:dc="http://purl.org/dc/elements/1.1/" xmlns:cc="http://creativecommons.org/ns#" xmlns:rdf="http://www.w3.org/1999/02/22-rdf-syntax-ns#">
   <cc:Work>
    <dc:type rdf:resource="http://purl.org/dc/dcmitype/StillImage"/>
    <dc:date>2023-10-10T10:57:02.886818</dc:date>
    <dc:format>image/svg+xml</dc:format>
    <dc:creator>
     <cc:Agent>
      <dc:title>Matplotlib v3.6.1, https://matplotlib.org/</dc:title>
     </cc:Agent>
    </dc:creator>
   </cc:Work>
  </rdf:RDF>
 </metadata>
 <defs>
  <style type="text/css">*{stroke-linejoin: round; stroke-linecap: butt}</style>
 </defs>
 <g id="figure_1">
  <g id="patch_1">
   <path d="M 0 345.6 
L 460.8 345.6 
L 460.8 0 
L 0 0 
z
" style="fill: #ffffff"/>
  </g>
  <g id="axes_1">
   <g id="patch_2">
    <path d="M 418.898582 121.841038 
Q 369.971526 114.279144 322.149385 106.888021 
" clip-path="url(#p53da8b21d0)" style="fill: none; stroke: #000000; stroke-linecap: round"/>
    <path d="M 325.796968 109.475517 
L 322.149385 106.888021 
L 326.407932 105.522452 
L 325.796968 109.475517 
z
" clip-path="url(#p53da8b21d0)" style="stroke: #000000; stroke-linecap: round"/>
   </g>
   <g id="patch_3">
    <path d="M 403.707306 60.410205 
Q 362.268802 82.953067 321.812412 104.96165 
" clip-path="url(#p53da8b21d0)" style="fill: none; stroke: #000000; stroke-linecap: round"/>
    <path d="M 326.281874 104.80702 
L 321.812412 104.96165 
L 324.370385 101.293303 
L 326.281874 104.80702 
z
" clip-path="url(#p53da8b21d0)" style="stroke: #000000; stroke-linecap: round"/>
   </g>
   <g id="patch_4">
    <path d="M 329.358623 31.907393 
Q 324.375408 68.20698 319.544251 103.398921 
" clip-path="url(#p53da8b21d0)" style="fill: none; stroke: #000000; stroke-linecap: round"/>
    <path d="M 322.069686 99.708097 
L 319.544251 103.398921 
L 318.106853 99.164079 
L 322.069686 99.708097 
z
" clip-path="url(#p53da8b21d0)" style="stroke: #000000; stroke-linecap: round"/>
   </g>
   <g id="patch_5">
    <path d="M 65.316691 285.863593 
Q 106.126923 260.757697 145.984888 236.237622 
" clip-path="url(#p53da8b21d0)" style="fill: none; stroke: #000000; stroke-linecap: round"/>
    <path d="M 141.530004 236.630054 
L 145.984888 236.237622 
L 143.625903 240.036989 
L 141.530004 236.630054 
z
" clip-path="url(#p53da8b21d0)" style="stroke: #000000; stroke-linecap: round"/>
   </g>
   <g id="patch_6">
    <path d="M 321.043984 106.717176 
Q 369.971041 114.279069 417.793182 121.670193 
" clip-path="url(#p53da8b21d0)" style="fill: none; stroke: #000000; stroke-linecap: round"/>
    <path d="M 414.145599 119.082697 
L 417.793182 121.670193 
L 413.534635 123.035762 
L 414.145599 119.082697 
z
" clip-path="url(#p53da8b21d0)" style="stroke: #000000; stroke-linecap: round"/>
   </g>
   <g id="patch_7">
    <path d="M 320.832962 105.494478 
Q 362.271466 82.951617 402.727857 60.943033 
" clip-path="url(#p53da8b21d0)" style="fill: none; stroke: #000000; stroke-linecap: round"/>
    <path d="M 398.258395 61.097664 
L 402.727857 60.943033 
L 400.169884 64.611381 
L 398.258395 61.097664 
z
" clip-path="url(#p53da8b21d0)" style="stroke: #000000; stroke-linecap: round"/>
   </g>
   <g id="patch_8">
    <path d="M 319.392552 104.503949 
Q 324.375767 68.204363 329.206924 33.012422 
" clip-path="url(#p53da8b21d0)" style="fill: none; stroke: #000000; stroke-linecap: round"/>
    <path d="M 326.681489 36.703245 
L 329.206924 33.012422 
L 330.644322 37.247264 
L 326.681489 36.703245 
z
" clip-path="url(#p53da8b21d0)" style="stroke: #000000; stroke-linecap: round"/>
   </g>
   <g id="patch_9">
    <path d="M 317.367965 107.219684 
Q 262.654771 132.020892 208.959877 156.360511 
" clip-path="url(#p53da8b21d0)" style="fill: none; stroke: #000000; stroke-linecap: round"/>
    <path d="M 213.428775 156.530667 
L 208.959877 156.360511 
L 211.77734 152.887486 
L 213.428775 156.530667 
z
" clip-path="url(#p53da8b21d0)" style="stroke: #000000; stroke-linecap: round"/>
   </g>
   <g id="patch_10">
    <path d="M 317.572344 107.574573 
Q 278.443438 136.558433 240.212943 164.876815 
" clip-path="url(#p53da8b21d0)" style="fill: none; stroke: #000000; stroke-linecap: round"/>
    <path d="M 244.617633 164.103057 
L 240.212943 164.876815 
L 242.23675 160.888808 
L 244.617633 164.103057 
z
" clip-path="url(#p53da8b21d0)" style="stroke: #000000; stroke-linecap: round"/>
   </g>
   <g id="patch_11">
    <path d="M 146.935558 235.652783 
Q 106.125326 260.758679 66.267361 285.278754 
" clip-path="url(#p53da8b21d0)" style="fill: none; stroke: #000000; stroke-linecap: round"/>
    <path d="M 70.722245 284.886322 
L 66.267361 285.278754 
L 68.626346 281.479387 
L 70.722245 284.886322 
z
" clip-path="url(#p53da8b21d0)" style="stroke: #000000; stroke-linecap: round"/>
   </g>
   <g id="patch_12">
    <path d="M 148.315301 236.549839 
Q 142.84826 275.122028 137.538115 312.587246 
" clip-path="url(#p53da8b21d0)" style="fill: none; stroke: #000000; stroke-linecap: round"/>
    <path d="M 140.079655 308.907494 
L 137.538115 312.587246 
L 136.119237 308.346163 
L 140.079655 308.907494 
z
" clip-path="url(#p53da8b21d0)" style="stroke: #000000; stroke-linecap: round"/>
   </g>
   <g id="patch_13">
    <path d="M 146.654211 234.515558 
Q 94.28567 231.218245 43.032954 227.991188 
" clip-path="url(#p53da8b21d0)" style="fill: none; stroke: #000000; stroke-linecap: round"/>
    <path d="M 46.89937 230.238592 
L 43.032954 227.991188 
L 47.150727 226.246498 
L 46.89937 230.238592 
z
" clip-path="url(#p53da8b21d0)" style="stroke: #000000; stroke-linecap: round"/>
   </g>
   <g id="patch_14">
    <path d="M 150.456756 234.13285 
Q 181.536229 225.751931 211.536228 217.662105 
" clip-path="url(#p53da8b21d0)" style="fill: none; stroke: #000000; stroke-linecap: round"/>
    <path d="M 207.153461 216.772524 
L 211.536228 217.662105 
L 208.194903 220.63457 
L 207.153461 216.772524 
z
" clip-path="url(#p53da8b21d0)" style="stroke: #000000; stroke-linecap: round"/>
   </g>
   <g id="patch_15">
    <path d="M 150.25613 235.608969 
Q 181.703723 253.910778 212.185012 271.65022 
" clip-path="url(#p53da8b21d0)" style="fill: none; stroke: #000000; stroke-linecap: round"/>
    <path d="M 209.733853 267.909656 
L 212.185012 271.65022 
L 207.721866 271.366809 
L 209.733853 267.909656 
z
" clip-path="url(#p53da8b21d0)" style="stroke: #000000; stroke-linecap: round"/>
   </g>
   <g id="patch_16">
    <path d="M 150.129367 233.461582 
Q 193.174895 200.66418 235.33111 168.544366 
" clip-path="url(#p53da8b21d0)" style="fill: none; stroke: #000000; stroke-linecap: round"/>
    <path d="M 230.937307 169.377727 
L 235.33111 168.544366 
L 233.361518 172.559425 
L 230.937307 169.377727 
z
" clip-path="url(#p53da8b21d0)" style="stroke: #000000; stroke-linecap: round"/>
   </g>
   <g id="patch_17">
    <path d="M 149.744668 233.088323 
Q 177.383045 196.129344 204.351857 160.065731 
" clip-path="url(#p53da8b21d0)" style="fill: none; stroke: #000000; stroke-linecap: round"/>
    <path d="M 200.354664 162.071336 
L 204.351857 160.065731 
L 203.558025 164.466848 
L 200.354664 162.071336 
z
" clip-path="url(#p53da8b21d0)" style="stroke: #000000; stroke-linecap: round"/>
   </g>
   <g id="patch_18">
    <path d="M 137.380782 313.697293 
Q 142.847823 275.125105 148.157968 237.659887 
" clip-path="url(#p53da8b21d0)" style="fill: none; stroke: #000000; stroke-linecap: round"/>
    <path d="M 145.616428 241.339639 
L 148.157968 237.659887 
L 149.576846 241.90097 
L 145.616428 241.339639 
z
" clip-path="url(#p53da8b21d0)" style="stroke: #000000; stroke-linecap: round"/>
   </g>
   <g id="patch_19">
    <path d="M 41.918954 227.921047 
Q 94.287494 231.21836 145.540211 234.445417 
" clip-path="url(#p53da8b21d0)" style="fill: none; stroke: #000000; stroke-linecap: round"/>
    <path d="M 141.673794 232.198013 
L 145.540211 234.445417 
L 141.422438 236.190107 
L 141.673794 232.198013 
z
" clip-path="url(#p53da8b21d0)" style="stroke: #000000; stroke-linecap: round"/>
   </g>
   <g id="patch_20">
    <path d="M 212.617333 217.370573 
Q 181.537859 225.751491 151.537861 233.841318 
" clip-path="url(#p53da8b21d0)" style="fill: none; stroke: #000000; stroke-linecap: round"/>
    <path d="M 155.920628 234.730898 
L 151.537861 233.841318 
L 154.879185 230.868852 
L 155.920628 234.730898 
z
" clip-path="url(#p53da8b21d0)" style="stroke: #000000; stroke-linecap: round"/>
   </g>
   <g id="patch_21">
    <path d="M 214.499335 218.80156 
Q 214.656981 245.026846 214.807908 270.134118 
" clip-path="url(#p53da8b21d0)" style="fill: none; stroke: #000000; stroke-linecap: round"/>
    <path d="M 216.783827 266.122168 
L 214.807908 270.134118 
L 212.783899 266.146212 
L 216.783827 266.122168 
z
" clip-path="url(#p53da8b21d0)" style="stroke: #000000; stroke-linecap: round"/>
   </g>
   <g id="patch_22">
    <path d="M 215.30154 215.111569 
Q 226.122053 191.782521 236.472137 169.46772 
" clip-path="url(#p53da8b21d0)" style="fill: none; stroke: #000000; stroke-linecap: round"/>
    <path d="M 232.974738 172.254869 
L 236.472137 169.46772 
L 236.603417 173.937928 
L 232.974738 172.254869 
z
" clip-path="url(#p53da8b21d0)" style="stroke: #000000; stroke-linecap: round"/>
   </g>
   <g id="patch_23">
    <path d="M 214.218468 214.94607 
Q 210.334163 187.243668 206.605106 160.648468 
" clip-path="url(#p53da8b21d0)" style="fill: none; stroke: #000000; stroke-linecap: round"/>
    <path d="M 205.179909 164.887432 
L 206.605106 160.648468 
L 209.141159 164.332004 
L 205.179909 164.887432 
z
" clip-path="url(#p53da8b21d0)" style="stroke: #000000; stroke-linecap: round"/>
   </g>
   <g id="patch_24">
    <path d="M 213.156519 272.215615 
Q 181.708926 253.913806 151.227637 236.174364 
" clip-path="url(#p53da8b21d0)" style="fill: none; stroke: #000000; stroke-linecap: round"/>
    <path d="M 153.678796 239.914928 
L 151.227637 236.174364 
L 155.690783 236.457775 
L 153.678796 239.914928 
z
" clip-path="url(#p53da8b21d0)" style="stroke: #000000; stroke-linecap: round"/>
   </g>
   <g id="patch_25">
    <path d="M 214.814628 271.252016 
Q 214.656981 245.026731 214.506055 219.919459 
" clip-path="url(#p53da8b21d0)" style="fill: none; stroke: #000000; stroke-linecap: round"/>
    <path d="M 212.530135 223.931409 
L 214.506055 219.919459 
L 216.530063 223.907364 
L 212.530135 223.931409 
z
" clip-path="url(#p53da8b21d0)" style="stroke: #000000; stroke-linecap: round"/>
   </g>
   <g id="patch_26">
    <path d="M 239.315096 165.541875 
Q 278.444002 136.558015 316.674497 108.239632 
" clip-path="url(#p53da8b21d0)" style="fill: none; stroke: #000000; stroke-linecap: round"/>
    <path d="M 312.269807 109.013391 
L 316.674497 108.239632 
L 314.65069 112.227639 
L 312.269807 109.013391 
z
" clip-path="url(#p53da8b21d0)" style="stroke: #000000; stroke-linecap: round"/>
   </g>
   <g id="patch_27">
    <path d="M 236.215117 167.87082 
Q 193.169589 200.668222 151.013374 232.788037 
" clip-path="url(#p53da8b21d0)" style="fill: none; stroke: #000000; stroke-linecap: round"/>
    <path d="M 155.407177 231.954675 
L 151.013374 232.788037 
L 152.982966 228.772977 
L 155.407177 231.954675 
z
" clip-path="url(#p53da8b21d0)" style="stroke: #000000; stroke-linecap: round"/>
   </g>
   <g id="patch_28">
    <path d="M 236.944257 168.449826 
Q 226.123744 191.778874 215.77366 214.093676 
" clip-path="url(#p53da8b21d0)" style="fill: none; stroke: #000000; stroke-linecap: round"/>
    <path d="M 219.271059 211.306526 
L 215.77366 214.093676 
L 215.64238 209.623467 
L 219.271059 211.306526 
z
" clip-path="url(#p53da8b21d0)" style="stroke: #000000; stroke-linecap: round"/>
   </g>
   <g id="patch_29">
    <path d="M 236.371994 165.348866 
Q 209.441407 139.191174 183.312813 113.812459 
" clip-path="url(#p53da8b21d0)" style="fill: none; stroke: #000000; stroke-linecap: round"/>
    <path d="M 184.788638 118.034063 
L 183.312813 113.812459 
L 187.575591 115.164762 
L 184.788638 118.034063 
z
" clip-path="url(#p53da8b21d0)" style="stroke: #000000; stroke-linecap: round"/>
   </g>
   <g id="patch_30">
    <path d="M 207.941899 156.821955 
Q 262.655094 132.020746 316.349988 107.681127 
" clip-path="url(#p53da8b21d0)" style="fill: none; stroke: #000000; stroke-linecap: round"/>
    <path d="M 311.88109 107.510972 
L 316.349988 107.681127 
L 313.532525 111.154153 
L 311.88109 107.510972 
z
" clip-path="url(#p53da8b21d0)" style="stroke: #000000; stroke-linecap: round"/>
   </g>
   <g id="patch_31">
    <path d="M 205.022241 159.169271 
Q 177.383863 196.12825 150.415052 232.191863 
" clip-path="url(#p53da8b21d0)" style="fill: none; stroke: #000000; stroke-linecap: round"/>
    <path d="M 154.412245 230.186258 
L 150.415052 232.191863 
L 151.208884 227.790746 
L 154.412245 230.186258 
z
" clip-path="url(#p53da8b21d0)" style="stroke: #000000; stroke-linecap: round"/>
   </g>
   <g id="patch_32">
    <path d="M 206.449754 159.540517 
Q 210.334058 187.242919 214.063116 213.838118 
" clip-path="url(#p53da8b21d0)" style="fill: none; stroke: #000000; stroke-linecap: round"/>
    <path d="M 215.488312 209.599154 
L 214.063116 213.838118 
L 211.527063 210.154583 
L 215.488312 209.599154 
z
" clip-path="url(#p53da8b21d0)" style="stroke: #000000; stroke-linecap: round"/>
   </g>
   <g id="patch_33">
    <path d="M 205.252253 155.918637 
Q 193.651725 134.652042 182.58659 114.366953 
" clip-path="url(#p53da8b21d0)" style="fill: none; stroke: #000000; stroke-linecap: round"/>
    <path d="M 182.746299 118.836236 
L 182.58659 114.366953 
L 186.257842 116.920755 
L 182.746299 118.836236 
z
" clip-path="url(#p53da8b21d0)" style="stroke: #000000; stroke-linecap: round"/>
   </g>
   <g id="patch_34">
    <path d="M 182.511024 113.03368 
Q 209.441611 139.191373 235.570205 164.570088 
" clip-path="url(#p53da8b21d0)" style="fill: none; stroke: #000000; stroke-linecap: round"/>
    <path d="M 234.09438 160.348483 
L 235.570205 164.570088 
L 231.307427 163.217785 
L 234.09438 160.348483 
z
" clip-path="url(#p53da8b21d0)" style="stroke: #000000; stroke-linecap: round"/>
   </g>
   <g id="patch_35">
    <path d="M 182.05319 113.389101 
Q 193.653718 134.655696 204.718853 154.940785 
" clip-path="url(#p53da8b21d0)" style="fill: none; stroke: #000000; stroke-linecap: round"/>
    <path d="M 204.559144 150.471502 
L 204.718853 154.940785 
L 201.047601 152.386982 
L 204.559144 150.471502 
z
" clip-path="url(#p53da8b21d0)" style="stroke: #000000; stroke-linecap: round"/>
   </g>
   <g id="PathCollection_1">
    <defs>
     <path id="mf314c81e9a" d="M 0 1.936492 
C 0.513564 1.936492 1.006162 1.732451 1.369306 1.369306 
C 1.732451 1.006162 1.936492 0.513564 1.936492 0 
C 1.936492 -0.513564 1.732451 -1.006162 1.369306 -1.369306 
C 1.006162 -1.732451 0.513564 -1.936492 0 -1.936492 
C -0.513564 -1.936492 -1.006162 -1.732451 -1.369306 -1.369306 
C -1.732451 -1.006162 -1.936492 -0.513564 -1.936492 0 
C -1.936492 0.513564 -1.732451 1.006162 -1.369306 1.369306 
C -1.006162 1.732451 -0.513564 1.936492 0 1.936492 
z
" style="stroke: #1f78b4"/>
    </defs>
    <g clip-path="url(#p53da8b21d0)">
     <use xlink:href="#mf314c81e9a" x="420.813223" y="122.136954" style="fill: #1f78b4; stroke: #1f78b4"/>
     <use xlink:href="#mf314c81e9a" x="405.410925" y="59.483424" style="fill: #1f78b4; stroke: #1f78b4"/>
     <use xlink:href="#mf314c81e9a" x="329.621831" y="29.990083" style="fill: #1f78b4; stroke: #1f78b4"/>
     <use xlink:href="#mf314c81e9a" x="63.665861" y="286.879161" style="fill: #1f78b4; stroke: #1f78b4"/>
     <use xlink:href="#mf314c81e9a" x="319.129344" y="106.42126" style="fill: #1f78b4; stroke: #1f78b4"/>
     <use xlink:href="#mf314c81e9a" x="148.586388" y="234.637215" style="fill: #1f78b4; stroke: #1f78b4"/>
     <use xlink:href="#mf314c81e9a" x="137.109696" y="315.609917" style="fill: #1f78b4; stroke: #1f78b4"/>
     <use xlink:href="#mf314c81e9a" x="39.986777" y="227.79939" style="fill: #1f78b4; stroke: #1f78b4"/>
     <use xlink:href="#mf314c81e9a" x="214.487701" y="216.866208" style="fill: #1f78b4; stroke: #1f78b4"/>
     <use xlink:href="#mf314c81e9a" x="214.826262" y="273.187369" style="fill: #1f78b4; stroke: #1f78b4"/>
     <use xlink:href="#mf314c81e9a" x="237.758096" y="166.695188" style="fill: #1f78b4; stroke: #1f78b4"/>
     <use xlink:href="#mf314c81e9a" x="206.180521" y="157.620379" style="fill: #1f78b4; stroke: #1f78b4"/>
     <use xlink:href="#mf314c81e9a" x="181.124922" y="111.687358" style="fill: #1f78b4; stroke: #1f78b4"/>
    </g>
   </g>
   <g id="text_1">
    <g clip-path="url(#p53da8b21d0)">
     <!-- 0 -->
     <g transform="translate(417.631973 124.896329) scale(0.1 -0.1)">
      <defs>
       <path id="DejaVuSans-30" d="M 2034 4250 
Q 1547 4250 1301 3770 
Q 1056 3291 1056 2328 
Q 1056 1369 1301 889 
Q 1547 409 2034 409 
Q 2525 409 2770 889 
Q 3016 1369 3016 2328 
Q 3016 3291 2770 3770 
Q 2525 4250 2034 4250 
z
M 2034 4750 
Q 2819 4750 3233 4129 
Q 3647 3509 3647 2328 
Q 3647 1150 3233 529 
Q 2819 -91 2034 -91 
Q 1250 -91 836 529 
Q 422 1150 422 2328 
Q 422 3509 836 4129 
Q 1250 4750 2034 4750 
z
" transform="scale(0.015625)"/>
      </defs>
      <use xlink:href="#DejaVuSans-30"/>
     </g>
    </g>
   </g>
   <g id="text_2">
    <g clip-path="url(#p53da8b21d0)">
     <!-- 1 -->
     <g transform="translate(402.229675 62.242799) scale(0.1 -0.1)">
      <defs>
       <path id="DejaVuSans-31" d="M 794 531 
L 1825 531 
L 1825 4091 
L 703 3866 
L 703 4441 
L 1819 4666 
L 2450 4666 
L 2450 531 
L 3481 531 
L 3481 0 
L 794 0 
L 794 531 
z
" transform="scale(0.015625)"/>
      </defs>
      <use xlink:href="#DejaVuSans-31"/>
     </g>
    </g>
   </g>
   <g id="text_3">
    <g clip-path="url(#p53da8b21d0)">
     <!-- 2 -->
     <g transform="translate(326.440581 32.749458) scale(0.1 -0.1)">
      <defs>
       <path id="DejaVuSans-32" d="M 1228 531 
L 3431 531 
L 3431 0 
L 469 0 
L 469 531 
Q 828 903 1448 1529 
Q 2069 2156 2228 2338 
Q 2531 2678 2651 2914 
Q 2772 3150 2772 3378 
Q 2772 3750 2511 3984 
Q 2250 4219 1831 4219 
Q 1534 4219 1204 4116 
Q 875 4013 500 3803 
L 500 4441 
Q 881 4594 1212 4672 
Q 1544 4750 1819 4750 
Q 2544 4750 2975 4387 
Q 3406 4025 3406 3419 
Q 3406 3131 3298 2873 
Q 3191 2616 2906 2266 
Q 2828 2175 2409 1742 
Q 1991 1309 1228 531 
z
" transform="scale(0.015625)"/>
      </defs>
      <use xlink:href="#DejaVuSans-32"/>
     </g>
    </g>
   </g>
   <g id="text_4">
    <g clip-path="url(#p53da8b21d0)">
     <!-- 3 -->
     <g transform="translate(60.484611 289.638536) scale(0.1 -0.1)">
      <defs>
       <path id="DejaVuSans-33" d="M 2597 2516 
Q 3050 2419 3304 2112 
Q 3559 1806 3559 1356 
Q 3559 666 3084 287 
Q 2609 -91 1734 -91 
Q 1441 -91 1130 -33 
Q 819 25 488 141 
L 488 750 
Q 750 597 1062 519 
Q 1375 441 1716 441 
Q 2309 441 2620 675 
Q 2931 909 2931 1356 
Q 2931 1769 2642 2001 
Q 2353 2234 1838 2234 
L 1294 2234 
L 1294 2753 
L 1863 2753 
Q 2328 2753 2575 2939 
Q 2822 3125 2822 3475 
Q 2822 3834 2567 4026 
Q 2313 4219 1838 4219 
Q 1578 4219 1281 4162 
Q 984 4106 628 3988 
L 628 4550 
Q 988 4650 1302 4700 
Q 1616 4750 1894 4750 
Q 2613 4750 3031 4423 
Q 3450 4097 3450 3541 
Q 3450 3153 3228 2886 
Q 3006 2619 2597 2516 
z
" transform="scale(0.015625)"/>
      </defs>
      <use xlink:href="#DejaVuSans-33"/>
     </g>
    </g>
   </g>
   <g id="text_5">
    <g clip-path="url(#p53da8b21d0)">
     <!-- 4 -->
     <g transform="translate(315.948094 109.180635) scale(0.1 -0.1)">
      <defs>
       <path id="DejaVuSans-34" d="M 2419 4116 
L 825 1625 
L 2419 1625 
L 2419 4116 
z
M 2253 4666 
L 3047 4666 
L 3047 1625 
L 3713 1625 
L 3713 1100 
L 3047 1100 
L 3047 0 
L 2419 0 
L 2419 1100 
L 313 1100 
L 313 1709 
L 2253 4666 
z
" transform="scale(0.015625)"/>
      </defs>
      <use xlink:href="#DejaVuSans-34"/>
     </g>
    </g>
   </g>
   <g id="text_6">
    <g clip-path="url(#p53da8b21d0)">
     <!-- 5 -->
     <g transform="translate(145.405138 237.39659) scale(0.1 -0.1)">
      <defs>
       <path id="DejaVuSans-35" d="M 691 4666 
L 3169 4666 
L 3169 4134 
L 1269 4134 
L 1269 2991 
Q 1406 3038 1543 3061 
Q 1681 3084 1819 3084 
Q 2600 3084 3056 2656 
Q 3513 2228 3513 1497 
Q 3513 744 3044 326 
Q 2575 -91 1722 -91 
Q 1428 -91 1123 -41 
Q 819 9 494 109 
L 494 744 
Q 775 591 1075 516 
Q 1375 441 1709 441 
Q 2250 441 2565 725 
Q 2881 1009 2881 1497 
Q 2881 1984 2565 2268 
Q 2250 2553 1709 2553 
Q 1456 2553 1204 2497 
Q 953 2441 691 2322 
L 691 4666 
z
" transform="scale(0.015625)"/>
      </defs>
      <use xlink:href="#DejaVuSans-35"/>
     </g>
    </g>
   </g>
   <g id="text_7">
    <g clip-path="url(#p53da8b21d0)">
     <!-- 6 -->
     <g transform="translate(133.928446 318.369292) scale(0.1 -0.1)">
      <defs>
       <path id="DejaVuSans-36" d="M 2113 2584 
Q 1688 2584 1439 2293 
Q 1191 2003 1191 1497 
Q 1191 994 1439 701 
Q 1688 409 2113 409 
Q 2538 409 2786 701 
Q 3034 994 3034 1497 
Q 3034 2003 2786 2293 
Q 2538 2584 2113 2584 
z
M 3366 4563 
L 3366 3988 
Q 3128 4100 2886 4159 
Q 2644 4219 2406 4219 
Q 1781 4219 1451 3797 
Q 1122 3375 1075 2522 
Q 1259 2794 1537 2939 
Q 1816 3084 2150 3084 
Q 2853 3084 3261 2657 
Q 3669 2231 3669 1497 
Q 3669 778 3244 343 
Q 2819 -91 2113 -91 
Q 1303 -91 875 529 
Q 447 1150 447 2328 
Q 447 3434 972 4092 
Q 1497 4750 2381 4750 
Q 2619 4750 2861 4703 
Q 3103 4656 3366 4563 
z
" transform="scale(0.015625)"/>
      </defs>
      <use xlink:href="#DejaVuSans-36"/>
     </g>
    </g>
   </g>
   <g id="text_8">
    <g clip-path="url(#p53da8b21d0)">
     <!-- 7 -->
     <g transform="translate(36.805527 230.558765) scale(0.1 -0.1)">
      <defs>
       <path id="DejaVuSans-37" d="M 525 4666 
L 3525 4666 
L 3525 4397 
L 1831 0 
L 1172 0 
L 2766 4134 
L 525 4134 
L 525 4666 
z
" transform="scale(0.015625)"/>
      </defs>
      <use xlink:href="#DejaVuSans-37"/>
     </g>
    </g>
   </g>
   <g id="text_9">
    <g clip-path="url(#p53da8b21d0)">
     <!-- 8 -->
     <g transform="translate(211.306451 219.625583) scale(0.1 -0.1)">
      <defs>
       <path id="DejaVuSans-38" d="M 2034 2216 
Q 1584 2216 1326 1975 
Q 1069 1734 1069 1313 
Q 1069 891 1326 650 
Q 1584 409 2034 409 
Q 2484 409 2743 651 
Q 3003 894 3003 1313 
Q 3003 1734 2745 1975 
Q 2488 2216 2034 2216 
z
M 1403 2484 
Q 997 2584 770 2862 
Q 544 3141 544 3541 
Q 544 4100 942 4425 
Q 1341 4750 2034 4750 
Q 2731 4750 3128 4425 
Q 3525 4100 3525 3541 
Q 3525 3141 3298 2862 
Q 3072 2584 2669 2484 
Q 3125 2378 3379 2068 
Q 3634 1759 3634 1313 
Q 3634 634 3220 271 
Q 2806 -91 2034 -91 
Q 1263 -91 848 271 
Q 434 634 434 1313 
Q 434 1759 690 2068 
Q 947 2378 1403 2484 
z
M 1172 3481 
Q 1172 3119 1398 2916 
Q 1625 2713 2034 2713 
Q 2441 2713 2670 2916 
Q 2900 3119 2900 3481 
Q 2900 3844 2670 4047 
Q 2441 4250 2034 4250 
Q 1625 4250 1398 4047 
Q 1172 3844 1172 3481 
z
" transform="scale(0.015625)"/>
      </defs>
      <use xlink:href="#DejaVuSans-38"/>
     </g>
    </g>
   </g>
   <g id="text_10">
    <g clip-path="url(#p53da8b21d0)">
     <!-- 9 -->
     <g transform="translate(211.645012 275.946744) scale(0.1 -0.1)">
      <defs>
       <path id="DejaVuSans-39" d="M 703 97 
L 703 672 
Q 941 559 1184 500 
Q 1428 441 1663 441 
Q 2288 441 2617 861 
Q 2947 1281 2994 2138 
Q 2813 1869 2534 1725 
Q 2256 1581 1919 1581 
Q 1219 1581 811 2004 
Q 403 2428 403 3163 
Q 403 3881 828 4315 
Q 1253 4750 1959 4750 
Q 2769 4750 3195 4129 
Q 3622 3509 3622 2328 
Q 3622 1225 3098 567 
Q 2575 -91 1691 -91 
Q 1453 -91 1209 -44 
Q 966 3 703 97 
z
M 1959 2075 
Q 2384 2075 2632 2365 
Q 2881 2656 2881 3163 
Q 2881 3666 2632 3958 
Q 2384 4250 1959 4250 
Q 1534 4250 1286 3958 
Q 1038 3666 1038 3163 
Q 1038 2656 1286 2365 
Q 1534 2075 1959 2075 
z
" transform="scale(0.015625)"/>
      </defs>
      <use xlink:href="#DejaVuSans-39"/>
     </g>
    </g>
   </g>
   <g id="text_11">
    <g clip-path="url(#p53da8b21d0)">
     <!-- 10 -->
     <g transform="translate(231.395596 169.454563) scale(0.1 -0.1)">
      <use xlink:href="#DejaVuSans-31"/>
      <use xlink:href="#DejaVuSans-30" x="63.623047"/>
     </g>
    </g>
   </g>
   <g id="text_12">
    <g clip-path="url(#p53da8b21d0)">
     <!-- 11 -->
     <g transform="translate(199.818021 160.379754) scale(0.1 -0.1)">
      <use xlink:href="#DejaVuSans-31"/>
      <use xlink:href="#DejaVuSans-31" x="63.623047"/>
     </g>
    </g>
   </g>
   <g id="text_13">
    <g clip-path="url(#p53da8b21d0)">
     <!-- 12 -->
     <g transform="translate(174.762422 114.446733) scale(0.1 -0.1)">
      <use xlink:href="#DejaVuSans-31"/>
      <use xlink:href="#DejaVuSans-32" x="63.623047"/>
     </g>
    </g>
   </g>
  </g>
 </g>
 <defs>
  <clipPath id="p53da8b21d0">
   <rect x="0" y="0" width="460.8" height="345.6"/>
  </clipPath>
 </defs>
</svg>
