<?xml version="1.0" encoding="utf-8" standalone="no"?>
<!DOCTYPE svg PUBLIC "-//W3C//DTD SVG 1.1//EN"
  "http://www.w3.org/Graphics/SVG/1.1/DTD/svg11.dtd">
<svg xmlns:xlink="http://www.w3.org/1999/xlink" width="460.8pt" height="345.6pt" viewBox="0 0 460.8 345.6" xmlns="http://www.w3.org/2000/svg" version="1.1">
 <metadata>
  <rdf:RDF xmlns:dc="http://purl.org/dc/elements/1.1/" xmlns:cc="http://creativecommons.org/ns#" xmlns:rdf="http://www.w3.org/1999/02/22-rdf-syntax-ns#">
   <cc:Work>
    <dc:type rdf:resource="http://purl.org/dc/dcmitype/StillImage"/>
    <dc:date>2023-10-10T10:57:03.161978</dc:date>
    <dc:format>image/svg+xml</dc:format>
    <dc:creator>
     <cc:Agent>
      <dc:title>Matplotlib v3.6.1, https://matplotlib.org/</dc:title>
     </cc:Agent>
    </dc:creator>
   </cc:Work>
  </rdf:RDF>
 </metadata>
 <defs>
  <style type="text/css">*{stroke-linejoin: round; stroke-linecap: butt}</style>
 </defs>
 <g id="figure_1">
  <g id="patch_1">
   <path d="M 0 345.6 
L 460.8 345.6 
L 460.8 0 
L 0 0 
z
" style="fill: #ffffff"/>
  </g>
  <g id="axes_1">
   <g id="patch_2">
    <path d="M 269.907671 198.193717 
Q 246.499956 163.996926 223.723759 130.722731 
" clip-path="url(#p955bf72627)" style="fill: none; stroke: #000000; stroke-linecap: round"/>
    <path d="M 224.332754 135.153208 
L 223.723759 130.722731 
L 227.633537 132.893821 
L 224.332754 135.153208 
z
" clip-path="url(#p955bf72627)" style="stroke: #000000; stroke-linecap: round"/>
   </g>
   <g id="patch_3">
    <path d="M 269.550028 201.074141 
Q 229.94597 236.106483 191.179336 270.398068 
" clip-path="url(#p955bf72627)" style="fill: none; stroke: #000000; stroke-linecap: round"/>
    <path d="M 195.500503 269.24589 
L 191.179336 270.398068 
L 192.850293 266.249828 
L 195.500503 269.24589 
z
" clip-path="url(#p955bf72627)" style="stroke: #000000; stroke-linecap: round"/>
   </g>
   <g id="patch_4">
    <path d="M 389.465771 313.712386 
Q 404.944819 238.463254 420.1986 164.309227 
" clip-path="url(#p955bf72627)" style="fill: none; stroke: #000000; stroke-linecap: round"/>
    <path d="M 417.433675 167.824222 
L 420.1986 164.309227 
L 421.351642 168.630164 
L 417.433675 167.824222 
z
" clip-path="url(#p955bf72627)" style="stroke: #000000; stroke-linecap: round"/>
   </g>
   <g id="patch_5">
    <path d="M 387.184671 315.201992 
Q 288.983917 294.01563 191.876051 273.065053 
" clip-path="url(#p955bf72627)" style="fill: none; stroke: #000000; stroke-linecap: round"/>
    <path d="M 195.364301 275.863644 
L 191.876051 273.065053 
L 196.207874 271.953608 
L 195.364301 275.863644 
z
" clip-path="url(#p955bf72627)" style="stroke: #000000; stroke-linecap: round"/>
   </g>
   <g id="patch_6">
    <path d="M 420.422893 163.218857 
Q 404.943845 238.467989 389.690064 312.622016 
" clip-path="url(#p955bf72627)" style="fill: none; stroke: #000000; stroke-linecap: round"/>
    <path d="M 392.454989 309.10702 
L 389.690064 312.622016 
L 388.537023 308.301079 
L 392.454989 309.10702 
z
" clip-path="url(#p955bf72627)" style="stroke: #000000; stroke-linecap: round"/>
   </g>
   <g id="patch_7">
    <path d="M 420.164353 159.497726 
Q 397.447918 95.6549 375.10628 32.865415 
" clip-path="url(#p955bf72627)" style="fill: none; stroke: #000000; stroke-linecap: round"/>
    <path d="M 374.562924 37.30442 
L 375.10628 32.865415 
L 378.33147 35.963503 
L 374.562924 37.30442 
z
" clip-path="url(#p955bf72627)" style="stroke: #000000; stroke-linecap: round"/>
   </g>
   <g id="patch_8">
    <path d="M 418.90503 161.003437 
Q 321.405027 144.760762 225.007859 128.701811 
" clip-path="url(#p955bf72627)" style="fill: none; stroke: #000000; stroke-linecap: round"/>
    <path d="M 228.624829 131.33193 
L 225.007859 128.701811 
L 229.282136 127.386307 
L 228.624829 131.33193 
z
" clip-path="url(#p955bf72627)" style="stroke: #000000; stroke-linecap: round"/>
   </g>
   <g id="patch_9">
    <path d="M 374.732054 31.813682 
Q 397.44849 95.656508 419.790128 158.445993 
" clip-path="url(#p955bf72627)" style="fill: none; stroke: #000000; stroke-linecap: round"/>
    <path d="M 420.333484 154.006988 
L 419.790128 158.445993 
L 416.564937 155.347905 
L 420.333484 154.006988 
z
" clip-path="url(#p955bf72627)" style="stroke: #000000; stroke-linecap: round"/>
   </g>
   <g id="patch_10">
    <path d="M 372.456409 31.040579 
Q 298.040634 79.094853 224.564085 126.542618 
" clip-path="url(#p955bf72627)" style="fill: none; stroke: #000000; stroke-linecap: round"/>
    <path d="M 229.009321 126.052844 
L 224.564085 126.542618 
L 226.839408 122.692565 
L 229.009321 126.052844 
z
" clip-path="url(#p955bf72627)" style="stroke: #000000; stroke-linecap: round"/>
   </g>
   <g id="patch_11">
    <path d="M 223.09031 129.797314 
Q 246.498025 163.994105 269.274222 197.268299 
" clip-path="url(#p955bf72627)" style="fill: none; stroke: #000000; stroke-linecap: round"/>
    <path d="M 268.665227 192.837823 
L 269.274222 197.268299 
L 265.364443 195.09721 
L 268.665227 192.837823 
z
" clip-path="url(#p955bf72627)" style="stroke: #000000; stroke-linecap: round"/>
   </g>
   <g id="patch_12">
    <path d="M 223.90531 128.518136 
Q 321.405314 144.76081 417.802482 160.819761 
" clip-path="url(#p955bf72627)" style="fill: none; stroke: #000000; stroke-linecap: round"/>
    <path d="M 414.185512 158.189642 
L 417.802482 160.819761 
L 413.528204 162.135266 
L 414.185512 158.189642 
z
" clip-path="url(#p955bf72627)" style="stroke: #000000; stroke-linecap: round"/>
   </g>
   <g id="patch_13">
    <path d="M 223.623892 127.149751 
Q 298.039668 79.095477 371.516217 31.647712 
" clip-path="url(#p955bf72627)" style="fill: none; stroke: #000000; stroke-linecap: round"/>
    <path d="M 367.070981 32.137486 
L 371.516217 31.647712 
L 369.240894 35.497765 
L 367.070981 32.137486 
z
" clip-path="url(#p955bf72627)" style="stroke: #000000; stroke-linecap: round"/>
   </g>
   <g id="patch_14">
    <path d="M 220.194677 128.909784 
Q 130.991272 164.025022 42.828196 198.73073 
" clip-path="url(#p955bf72627)" style="fill: none; stroke: #000000; stroke-linecap: round"/>
    <path d="M 47.28278 199.126551 
L 42.828196 198.73073 
L 45.817603 195.404555 
L 47.28278 199.126551 
z
" clip-path="url(#p955bf72627)" style="stroke: #000000; stroke-linecap: round"/>
   </g>
   <g id="patch_15">
    <path d="M 221.563705 130.088395 
Q 205.444761 200.310092 189.57595 269.442095 
" clip-path="url(#p955bf72627)" style="fill: none; stroke: #000000; stroke-linecap: round"/>
    <path d="M 192.420155 265.990936 
L 189.57595 269.442095 
L 188.521546 265.096035 
L 192.420155 265.990936 
z
" clip-path="url(#p955bf72627)" style="stroke: #000000; stroke-linecap: round"/>
   </g>
   <g id="patch_16">
    <path d="M 41.789217 199.139728 
Q 130.992623 164.02449 219.155699 129.318782 
" clip-path="url(#p955bf72627)" style="fill: none; stroke: #000000; stroke-linecap: round"/>
    <path d="M 214.701114 128.922961 
L 219.155699 129.318782 
L 216.166291 132.644957 
L 214.701114 128.922961 
z
" clip-path="url(#p955bf72627)" style="stroke: #000000; stroke-linecap: round"/>
   </g>
   <g id="patch_17">
    <path d="M 41.729489 200.698611 
Q 114.441776 236.136412 186.149036 271.084393 
" clip-path="url(#p955bf72627)" style="fill: none; stroke: #000000; stroke-linecap: round"/>
    <path d="M 183.429563 267.534116 
L 186.149036 271.084393 
L 181.677131 271.129806 
L 183.429563 267.534116 
z
" clip-path="url(#p955bf72627)" style="stroke: #000000; stroke-linecap: round"/>
   </g>
   <g id="patch_18">
    <path d="M 190.342933 271.137922 
Q 229.946991 236.10558 268.713624 201.813994 
" clip-path="url(#p955bf72627)" style="fill: none; stroke: #000000; stroke-linecap: round"/>
    <path d="M 264.392457 202.966173 
L 268.713624 201.813994 
L 267.042667 205.962235 
L 264.392457 202.966173 
z
" clip-path="url(#p955bf72627)" style="stroke: #000000; stroke-linecap: round"/>
   </g>
   <g id="patch_19">
    <path d="M 190.782867 272.829204 
Q 288.983621 294.015566 386.091487 314.966143 
" clip-path="url(#p955bf72627)" style="fill: none; stroke: #000000; stroke-linecap: round"/>
    <path d="M 382.603237 312.167552 
L 386.091487 314.966143 
L 381.759665 316.077589 
L 382.603237 312.167552 
z
" clip-path="url(#p955bf72627)" style="stroke: #000000; stroke-linecap: round"/>
   </g>
   <g id="patch_20">
    <path d="M 189.325509 270.533131 
Q 205.444453 200.311434 221.313265 131.179431 
" clip-path="url(#p955bf72627)" style="fill: none; stroke: #000000; stroke-linecap: round"/>
    <path d="M 218.469059 134.63059 
L 221.313265 131.179431 
L 222.367668 135.525491 
L 218.469059 134.63059 
z
" clip-path="url(#p955bf72627)" style="stroke: #000000; stroke-linecap: round"/>
   </g>
   <g id="patch_21">
    <path d="M 187.149385 271.571933 
Q 114.437098 236.134132 42.729838 201.186151 
" clip-path="url(#p955bf72627)" style="fill: none; stroke: #000000; stroke-linecap: round"/>
    <path d="M 45.449311 204.736427 
L 42.729838 201.186151 
L 47.201743 201.140738 
L 45.449311 204.736427 
z
" clip-path="url(#p955bf72627)" style="stroke: #000000; stroke-linecap: round"/>
   </g>
   <g id="PathCollection_1">
    <defs>
     <path id="m1058ee62cd" d="M 0 1.936492 
C 0.513564 1.936492 1.006162 1.732451 1.369306 1.369306 
C 1.732451 1.006162 1.936492 0.513564 1.936492 0 
C 1.936492 -0.513564 1.732451 -1.006162 1.369306 -1.369306 
C 1.006162 -1.732451 0.513564 -1.936492 0 -1.936492 
C -0.513564 -1.936492 -1.006162 -1.732451 -1.369306 -1.369306 
C -1.732451 -1.006162 -1.936492 -0.513564 -1.936492 0 
C -1.936492 0.513564 -1.732451 1.006162 -1.369306 1.369306 
C -1.006162 1.732451 -0.513564 1.936492 0 1.936492 
z
" style="stroke: #1f78b4"/>
    </defs>
    <g clip-path="url(#p955bf72627)">
     <use xlink:href="#m1058ee62cd" x="271.000864" y="199.790784" style="fill: #1f78b4; stroke: #1f78b4"/>
     <use xlink:href="#m1058ee62cd" x="389.075441" y="315.609917" style="fill: #1f78b4; stroke: #1f78b4"/>
     <use xlink:href="#m1058ee62cd" x="420.813223" y="161.321325" style="fill: #1f78b4; stroke: #1f78b4"/>
     <use xlink:href="#m1058ee62cd" x="374.083184" y="29.990083" style="fill: #1f78b4; stroke: #1f78b4"/>
     <use xlink:href="#m1058ee62cd" x="221.997117" y="128.200247" style="fill: #1f78b4; stroke: #1f78b4"/>
     <use xlink:href="#m1058ee62cd" x="39.986777" y="199.849265" style="fill: #1f78b4; stroke: #1f78b4"/>
     <use xlink:href="#m1058ee62cd" x="188.892097" y="272.421279" style="fill: #1f78b4; stroke: #1f78b4"/>
    </g>
   </g>
   <g id="text_1">
    <g clip-path="url(#p955bf72627)">
     <!-- 0 -->
     <g transform="translate(267.819614 202.550159) scale(0.1 -0.1)">
      <defs>
       <path id="DejaVuSans-30" d="M 2034 4250 
Q 1547 4250 1301 3770 
Q 1056 3291 1056 2328 
Q 1056 1369 1301 889 
Q 1547 409 2034 409 
Q 2525 409 2770 889 
Q 3016 1369 3016 2328 
Q 3016 3291 2770 3770 
Q 2525 4250 2034 4250 
z
M 2034 4750 
Q 2819 4750 3233 4129 
Q 3647 3509 3647 2328 
Q 3647 1150 3233 529 
Q 2819 -91 2034 -91 
Q 1250 -91 836 529 
Q 422 1150 422 2328 
Q 422 3509 836 4129 
Q 1250 4750 2034 4750 
z
" transform="scale(0.015625)"/>
      </defs>
      <use xlink:href="#DejaVuSans-30"/>
     </g>
    </g>
   </g>
   <g id="text_2">
    <g clip-path="url(#p955bf72627)">
     <!-- 1 -->
     <g transform="translate(385.894191 318.369292) scale(0.1 -0.1)">
      <defs>
       <path id="DejaVuSans-31" d="M 794 531 
L 1825 531 
L 1825 4091 
L 703 3866 
L 703 4441 
L 1819 4666 
L 2450 4666 
L 2450 531 
L 3481 531 
L 3481 0 
L 794 0 
L 794 531 
z
" transform="scale(0.015625)"/>
      </defs>
      <use xlink:href="#DejaVuSans-31"/>
     </g>
    </g>
   </g>
   <g id="text_3">
    <g clip-path="url(#p955bf72627)">
     <!-- 2 -->
     <g transform="translate(417.631973 164.0807) scale(0.1 -0.1)">
      <defs>
       <path id="DejaVuSans-32" d="M 1228 531 
L 3431 531 
L 3431 0 
L 469 0 
L 469 531 
Q 828 903 1448 1529 
Q 2069 2156 2228 2338 
Q 2531 2678 2651 2914 
Q 2772 3150 2772 3378 
Q 2772 3750 2511 3984 
Q 2250 4219 1831 4219 
Q 1534 4219 1204 4116 
Q 875 4013 500 3803 
L 500 4441 
Q 881 4594 1212 4672 
Q 1544 4750 1819 4750 
Q 2544 4750 2975 4387 
Q 3406 4025 3406 3419 
Q 3406 3131 3298 2873 
Q 3191 2616 2906 2266 
Q 2828 2175 2409 1742 
Q 1991 1309 1228 531 
z
" transform="scale(0.015625)"/>
      </defs>
      <use xlink:href="#DejaVuSans-32"/>
     </g>
    </g>
   </g>
   <g id="text_4">
    <g clip-path="url(#p955bf72627)">
     <!-- 3 -->
     <g transform="translate(370.901934 32.749458) scale(0.1 -0.1)">
      <defs>
       <path id="DejaVuSans-33" d="M 2597 2516 
Q 3050 2419 3304 2112 
Q 3559 1806 3559 1356 
Q 3559 666 3084 287 
Q 2609 -91 1734 -91 
Q 1441 -91 1130 -33 
Q 819 25 488 141 
L 488 750 
Q 750 597 1062 519 
Q 1375 441 1716 441 
Q 2309 441 2620 675 
Q 2931 909 2931 1356 
Q 2931 1769 2642 2001 
Q 2353 2234 1838 2234 
L 1294 2234 
L 1294 2753 
L 1863 2753 
Q 2328 2753 2575 2939 
Q 2822 3125 2822 3475 
Q 2822 3834 2567 4026 
Q 2313 4219 1838 4219 
Q 1578 4219 1281 4162 
Q 984 4106 628 3988 
L 628 4550 
Q 988 4650 1302 4700 
Q 1616 4750 1894 4750 
Q 2613 4750 3031 4423 
Q 3450 4097 3450 3541 
Q 3450 3153 3228 2886 
Q 3006 2619 2597 2516 
z
" transform="scale(0.015625)"/>
      </defs>
      <use xlink:href="#DejaVuSans-33"/>
     </g>
    </g>
   </g>
   <g id="text_5">
    <g clip-path="url(#p955bf72627)">
     <!-- 4 -->
     <g transform="translate(218.815867 130.959622) scale(0.1 -0.1)">
      <defs>
       <path id="DejaVuSans-34" d="M 2419 4116 
L 825 1625 
L 2419 1625 
L 2419 4116 
z
M 2253 4666 
L 3047 4666 
L 3047 1625 
L 3713 1625 
L 3713 1100 
L 3047 1100 
L 3047 0 
L 2419 0 
L 2419 1100 
L 313 1100 
L 313 1709 
L 2253 4666 
z
" transform="scale(0.015625)"/>
      </defs>
      <use xlink:href="#DejaVuSans-34"/>
     </g>
    </g>
   </g>
   <g id="text_6">
    <g clip-path="url(#p955bf72627)">
     <!-- 5 -->
     <g transform="translate(36.805527 202.60864) scale(0.1 -0.1)">
      <defs>
       <path id="DejaVuSans-35" d="M 691 4666 
L 3169 4666 
L 3169 4134 
L 1269 4134 
L 1269 2991 
Q 1406 3038 1543 3061 
Q 1681 3084 1819 3084 
Q 2600 3084 3056 2656 
Q 3513 2228 3513 1497 
Q 3513 744 3044 326 
Q 2575 -91 1722 -91 
Q 1428 -91 1123 -41 
Q 819 9 494 109 
L 494 744 
Q 775 591 1075 516 
Q 1375 441 1709 441 
Q 2250 441 2565 725 
Q 2881 1009 2881 1497 
Q 2881 1984 2565 2268 
Q 2250 2553 1709 2553 
Q 1456 2553 1204 2497 
Q 953 2441 691 2322 
L 691 4666 
z
" transform="scale(0.015625)"/>
      </defs>
      <use xlink:href="#DejaVuSans-35"/>
     </g>
    </g>
   </g>
   <g id="text_7">
    <g clip-path="url(#p955bf72627)">
     <!-- 6 -->
     <g transform="translate(185.710847 275.180654) scale(0.1 -0.1)">
      <defs>
       <path id="DejaVuSans-36" d="M 2113 2584 
Q 1688 2584 1439 2293 
Q 1191 2003 1191 1497 
Q 1191 994 1439 701 
Q 1688 409 2113 409 
Q 2538 409 2786 701 
Q 3034 994 3034 1497 
Q 3034 2003 2786 2293 
Q 2538 2584 2113 2584 
z
M 3366 4563 
L 3366 3988 
Q 3128 4100 2886 4159 
Q 2644 4219 2406 4219 
Q 1781 4219 1451 3797 
Q 1122 3375 1075 2522 
Q 1259 2794 1537 2939 
Q 1816 3084 2150 3084 
Q 2853 3084 3261 2657 
Q 3669 2231 3669 1497 
Q 3669 778 3244 343 
Q 2819 -91 2113 -91 
Q 1303 -91 875 529 
Q 447 1150 447 2328 
Q 447 3434 972 4092 
Q 1497 4750 2381 4750 
Q 2619 4750 2861 4703 
Q 3103 4656 3366 4563 
z
" transform="scale(0.015625)"/>
      </defs>
      <use xlink:href="#DejaVuSans-36"/>
     </g>
    </g>
   </g>
  </g>
 </g>
 <defs>
  <clipPath id="p955bf72627">
   <rect x="0" y="0" width="460.8" height="345.6"/>
  </clipPath>
 </defs>
</svg>
