<?xml version="1.0" encoding="utf-8" standalone="no"?>
<!DOCTYPE svg PUBLIC "-//W3C//DTD SVG 1.1//EN"
  "http://www.w3.org/Graphics/SVG/1.1/DTD/svg11.dtd">
<svg xmlns:xlink="http://www.w3.org/1999/xlink" width="460.8pt" height="345.6pt" viewBox="0 0 460.8 345.6" xmlns="http://www.w3.org/2000/svg" version="1.1">
 <metadata>
  <rdf:RDF xmlns:dc="http://purl.org/dc/elements/1.1/" xmlns:cc="http://creativecommons.org/ns#" xmlns:rdf="http://www.w3.org/1999/02/22-rdf-syntax-ns#">
   <cc:Work>
    <dc:type rdf:resource="http://purl.org/dc/dcmitype/StillImage"/>
    <dc:date>2023-10-10T10:57:06.892720</dc:date>
    <dc:format>image/svg+xml</dc:format>
    <dc:creator>
     <cc:Agent>
      <dc:title>Matplotlib v3.6.1, https://matplotlib.org/</dc:title>
     </cc:Agent>
    </dc:creator>
   </cc:Work>
  </rdf:RDF>
 </metadata>
 <defs>
  <style type="text/css">*{stroke-linejoin: round; stroke-linecap: butt}</style>
 </defs>
 <g id="figure_1">
  <g id="patch_1">
   <path d="M 0 345.6 
L 460.8 345.6 
L 460.8 0 
L 0 0 
z
" style="fill: #ffffff"/>
  </g>
  <g id="axes_1">
   <g id="patch_2">
    <path d="M 334.182828 313.801992 
Q 316.776871 267.910964 299.76741 223.065303 
" clip-path="url(#peb184e5ec5)" style="fill: none; stroke: #000000; stroke-linecap: round"/>
    <path d="M 299.315948 227.514594 
L 299.76741 223.065303 
L 303.055965 226.096047 
L 299.315948 227.514594 
z
" clip-path="url(#peb184e5ec5)" style="stroke: #000000; stroke-linecap: round"/>
   </g>
   <g id="patch_3">
    <path d="M 386.02483 283.22255 
Q 343.139966 252.283578 301.161803 221.99874 
" clip-path="url(#peb184e5ec5)" style="fill: none; stroke: #000000; stroke-linecap: round"/>
    <path d="M 303.23557 225.960998 
L 301.161803 221.99874 
L 305.57587 222.717081 
L 303.23557 225.960998 
z
" clip-path="url(#peb184e5ec5)" style="stroke: #000000; stroke-linecap: round"/>
   </g>
   <g id="patch_4">
    <path d="M 410.030617 185.93711 
Q 355.283854 202.789524 301.605643 219.31301 
" clip-path="url(#peb184e5ec5)" style="fill: none; stroke: #000000; stroke-linecap: round"/>
    <path d="M 306.01702 220.047691 
L 301.605643 219.31301 
L 304.840214 216.224717 
L 306.01702 220.047691 
z
" clip-path="url(#peb184e5ec5)" style="stroke: #000000; stroke-linecap: round"/>
   </g>
   <g id="patch_5">
    <path d="M 210.085631 282.524204 
Q 253.594533 251.924326 296.188927 221.967622 
" clip-path="url(#peb184e5ec5)" style="fill: none; stroke: #000000; stroke-linecap: round"/>
    <path d="M 291.766535 222.632793 
L 296.188927 221.967622 
L 294.067629 225.904638 
L 291.766535 222.632793 
z
" clip-path="url(#peb184e5ec5)" style="stroke: #000000; stroke-linecap: round"/>
   </g>
   <g id="patch_6">
    <path d="M 41.920957 125.416817 
Q 96.074423 122.627243 149.111335 119.895185 
" clip-path="url(#peb184e5ec5)" style="fill: none; stroke: #000000; stroke-linecap: round"/>
    <path d="M 145.013744 118.10361 
L 149.111335 119.895185 
L 145.21952 122.098314 
L 145.013744 118.10361 
z
" clip-path="url(#peb184e5ec5)" style="stroke: #000000; stroke-linecap: round"/>
   </g>
   <g id="patch_7">
    <path d="M 418.901245 238.612005 
Q 359.748912 229.55828 301.701742 220.673708 
" clip-path="url(#peb184e5ec5)" style="fill: none; stroke: #000000; stroke-linecap: round"/>
    <path d="M 305.353104 223.255869 
L 301.701742 220.673708 
L 305.958288 219.301915 
L 305.353104 223.255869 
z
" clip-path="url(#peb184e5ec5)" style="stroke: #000000; stroke-linecap: round"/>
   </g>
   <g id="patch_8">
    <path d="M 299.37091 222.019926 
Q 316.776867 267.910953 333.786328 312.756614 
" clip-path="url(#peb184e5ec5)" style="fill: none; stroke: #000000; stroke-linecap: round"/>
    <path d="M 334.237789 308.307324 
L 333.786328 312.756614 
L 330.497772 309.725871 
L 334.237789 308.307324 
z
" clip-path="url(#peb184e5ec5)" style="stroke: #000000; stroke-linecap: round"/>
   </g>
   <g id="patch_9">
    <path d="M 300.256207 221.345403 
Q 343.141071 252.284375 385.119234 282.569214 
" clip-path="url(#peb184e5ec5)" style="fill: none; stroke: #000000; stroke-linecap: round"/>
    <path d="M 383.045467 278.606955 
L 385.119234 282.569214 
L 380.705167 281.850872 
L 383.045467 278.606955 
z
" clip-path="url(#peb184e5ec5)" style="stroke: #000000; stroke-linecap: round"/>
   </g>
   <g id="patch_10">
    <path d="M 300.533284 219.643109 
Q 355.280047 202.790695 408.958258 186.267209 
" clip-path="url(#peb184e5ec5)" style="fill: none; stroke: #000000; stroke-linecap: round"/>
    <path d="M 404.546881 185.532528 
L 408.958258 186.267209 
L 405.723687 189.355502 
L 404.546881 185.532528 
z
" clip-path="url(#peb184e5ec5)" style="stroke: #000000; stroke-linecap: round"/>
   </g>
   <g id="patch_11">
    <path d="M 297.102705 221.32496 
Q 253.593803 251.924839 210.999409 281.881543 
" clip-path="url(#peb184e5ec5)" style="fill: none; stroke: #000000; stroke-linecap: round"/>
    <path d="M 215.421801 281.216372 
L 210.999409 281.881543 
L 213.120707 277.944527 
L 215.421801 281.216372 
z
" clip-path="url(#peb184e5ec5)" style="stroke: #000000; stroke-linecap: round"/>
   </g>
   <g id="patch_12">
    <path d="M 300.597161 220.504644 
Q 359.749495 229.558369 417.796665 238.442941 
" clip-path="url(#peb184e5ec5)" style="fill: none; stroke: #000000; stroke-linecap: round"/>
    <path d="M 414.145303 235.86078 
L 417.796665 238.442941 
L 413.540119 239.814734 
L 414.145303 235.86078 
z
" clip-path="url(#peb184e5ec5)" style="stroke: #000000; stroke-linecap: round"/>
   </g>
   <g id="patch_13">
    <path d="M 297.086615 219.115826 
Q 225.423898 169.975096 154.683253 121.466651 
" clip-path="url(#peb184e5ec5)" style="fill: none; stroke: #000000; stroke-linecap: round"/>
    <path d="M 156.85109 125.378234 
L 154.683253 121.466651 
L 159.113221 122.079331 
L 156.85109 125.378234 
z
" clip-path="url(#peb184e5ec5)" style="stroke: #000000; stroke-linecap: round"/>
   </g>
   <g id="patch_14">
    <path d="M 299.970982 218.761914 
Q 333.392668 181.069894 366.072594 144.21441 
" clip-path="url(#peb184e5ec5)" style="fill: none; stroke: #000000; stroke-linecap: round"/>
    <path d="M 361.922352 145.880391 
L 366.072594 144.21441 
L 364.915234 148.534192 
L 361.922352 145.880391 
z
" clip-path="url(#peb184e5ec5)" style="stroke: #000000; stroke-linecap: round"/>
   </g>
   <g id="patch_15">
    <path d="M 298.527081 218.285943 
Q 295.389635 180.064567 292.343656 142.957478 
" clip-path="url(#peb184e5ec5)" style="fill: none; stroke: #000000; stroke-linecap: round"/>
    <path d="M 290.677604 147.107691 
L 292.343656 142.957478 
L 294.664196 146.780447 
L 290.677604 147.107691 
z
" clip-path="url(#peb184e5ec5)" style="stroke: #000000; stroke-linecap: round"/>
   </g>
   <g id="patch_16">
    <path d="M 298.069776 222.050739 
Q 283.243793 266.348362 268.772658 309.585757 
" clip-path="url(#peb184e5ec5)" style="fill: none; stroke: #000000; stroke-linecap: round"/>
    <path d="M 271.938793 306.427342 
L 268.772658 309.585757 
L 268.145607 305.157799 
L 271.938793 306.427342 
z
" clip-path="url(#peb184e5ec5)" style="stroke: #000000; stroke-linecap: round"/>
   </g>
   <g id="patch_17">
    <path d="M 296.748919 220.258768 
Q 250.252891 221.38181 204.874571 222.477856 
" clip-path="url(#peb184e5ec5)" style="fill: none; stroke: #000000; stroke-linecap: round"/>
    <path d="M 208.921698 224.380687 
L 204.874571 222.477856 
L 208.825112 220.381853 
L 208.921698 224.380687 
z
" clip-path="url(#peb184e5ec5)" style="stroke: #000000; stroke-linecap: round"/>
   </g>
   <g id="patch_18">
    <path d="M 150.228182 119.837654 
Q 96.074716 122.627228 43.037803 125.359285 
" clip-path="url(#peb184e5ec5)" style="fill: none; stroke: #000000; stroke-linecap: round"/>
    <path d="M 47.135395 127.15086 
L 43.037803 125.359285 
L 46.929618 123.156157 
L 47.135395 127.15086 
z
" clip-path="url(#peb184e5ec5)" style="stroke: #000000; stroke-linecap: round"/>
   </g>
   <g id="patch_19">
    <path d="M 153.760931 120.834194 
Q 225.423647 169.974924 296.164293 218.483369 
" clip-path="url(#peb184e5ec5)" style="fill: none; stroke: #000000; stroke-linecap: round"/>
    <path d="M 293.996456 214.571786 
L 296.164293 218.483369 
L 291.734324 217.870689 
L 293.996456 214.571786 
z
" clip-path="url(#peb184e5ec5)" style="stroke: #000000; stroke-linecap: round"/>
   </g>
   <g id="patch_20">
    <path d="M 151.926259 117.818058 
Q 146.644191 74.864957 141.498584 33.021531 
" clip-path="url(#peb184e5ec5)" style="fill: none; stroke: #000000; stroke-linecap: round"/>
    <path d="M 140.001751 37.235732 
L 141.498584 33.021531 
L 143.971845 36.747518 
L 140.001751 37.235732 
z
" clip-path="url(#peb184e5ec5)" style="stroke: #000000; stroke-linecap: round"/>
   </g>
   <g id="patch_21">
    <path d="M 150.561621 118.652167 
Q 108.379593 90.038258 67.12281 62.051983 
" clip-path="url(#peb184e5ec5)" style="fill: none; stroke: #000000; stroke-linecap: round"/>
    <path d="M 69.310319 65.952599 
L 67.12281 62.051983 
L 71.555808 62.642346 
L 69.310319 65.952599 
z
" clip-path="url(#peb184e5ec5)" style="stroke: #000000; stroke-linecap: round"/>
   </g>
   <g id="patch_22">
    <path d="M 366.811327 143.381289 
Q 333.38964 181.073309 300.709714 217.928793 
" clip-path="url(#peb184e5ec5)" style="fill: none; stroke: #000000; stroke-linecap: round"/>
    <path d="M 304.859956 216.262812 
L 300.709714 217.928793 
L 301.867075 213.609011 
L 304.859956 216.262812 
z
" clip-path="url(#peb184e5ec5)" style="stroke: #000000; stroke-linecap: round"/>
   </g>
   <g id="patch_23">
    <path d="M 292.252054 141.841558 
Q 295.389501 180.062934 298.435479 217.170023 
" clip-path="url(#peb184e5ec5)" style="fill: none; stroke: #000000; stroke-linecap: round"/>
    <path d="M 300.101531 213.01981 
L 298.435479 217.170023 
L 296.11494 213.347054 
L 300.101531 213.01981 
z
" clip-path="url(#peb184e5ec5)" style="stroke: #000000; stroke-linecap: round"/>
   </g>
   <g id="patch_24">
    <path d="M 268.41899 310.642459 
Q 283.244973 266.344836 297.716108 223.107441 
" clip-path="url(#peb184e5ec5)" style="fill: none; stroke: #000000; stroke-linecap: round"/>
    <path d="M 294.549972 226.265856 
L 297.716108 223.107441 
L 298.343159 227.535399 
L 294.549972 226.265856 
z
" clip-path="url(#peb184e5ec5)" style="stroke: #000000; stroke-linecap: round"/>
   </g>
   <g id="patch_25">
    <path d="M 203.755008 222.504897 
Q 250.251037 221.381855 295.629357 220.285809 
" clip-path="url(#peb184e5ec5)" style="fill: none; stroke: #000000; stroke-linecap: round"/>
    <path d="M 291.58223 218.382978 
L 295.629357 220.285809 
L 291.678816 222.381812 
L 291.58223 218.382978 
z
" clip-path="url(#peb184e5ec5)" style="stroke: #000000; stroke-linecap: round"/>
   </g>
   <g id="patch_26">
    <path d="M 141.361902 31.910044 
Q 146.643969 74.863145 151.789576 116.706572 
" clip-path="url(#peb184e5ec5)" style="fill: none; stroke: #000000; stroke-linecap: round"/>
    <path d="M 153.286409 112.492371 
L 151.789576 116.706572 
L 149.316315 112.980584 
L 153.286409 112.492371 
z
" clip-path="url(#peb184e5ec5)" style="stroke: #000000; stroke-linecap: round"/>
   </g>
   <g id="patch_27">
    <path d="M 66.195345 61.422843 
Q 108.377373 90.036752 149.634156 118.023028 
" clip-path="url(#peb184e5ec5)" style="fill: none; stroke: #000000; stroke-linecap: round"/>
    <path d="M 147.446647 114.122412 
L 149.634156 118.023028 
L 145.201158 117.432665 
L 147.446647 114.122412 
z
" clip-path="url(#peb184e5ec5)" style="stroke: #000000; stroke-linecap: round"/>
   </g>
   <g id="PathCollection_1">
    <defs>
     <path id="m07111ff309" d="M 0 1.936492 
C 0.513564 1.936492 1.006162 1.732451 1.369306 1.369306 
C 1.732451 1.006162 1.936492 0.513564 1.936492 0 
C 1.936492 -0.513564 1.732451 -1.006162 1.369306 -1.369306 
C 1.006162 -1.732451 0.513564 -1.936492 0 -1.936492 
C -0.513564 -1.936492 -1.006162 -1.732451 -1.369306 -1.369306 
C -1.732451 -1.006162 -1.936492 -0.513564 -1.936492 0 
C -1.936492 0.513564 -1.732451 1.006162 -1.369306 1.369306 
C -1.006162 1.732451 -0.513564 1.936492 0 1.936492 
z
" style="stroke: #1f78b4"/>
    </defs>
    <g clip-path="url(#peb184e5ec5)">
     <use xlink:href="#m07111ff309" x="334.868554" y="315.609917" style="fill: #1f78b4; stroke: #1f78b4"/>
     <use xlink:href="#m07111ff309" x="387.595853" y="284.355953" style="fill: #1f78b4; stroke: #1f78b4"/>
     <use xlink:href="#m07111ff309" x="411.878717" y="185.368219" style="fill: #1f78b4; stroke: #1f78b4"/>
     <use xlink:href="#m07111ff309" x="208.503152" y="283.637164" style="fill: #1f78b4; stroke: #1f78b4"/>
     <use xlink:href="#m07111ff309" x="39.986777" y="125.516451" style="fill: #1f78b4; stroke: #1f78b4"/>
     <use xlink:href="#m07111ff309" x="420.813223" y="238.904649" style="fill: #1f78b4; stroke: #1f78b4"/>
     <use xlink:href="#m07111ff309" x="298.685184" y="220.212" style="fill: #1f78b4; stroke: #1f78b4"/>
     <use xlink:href="#m07111ff309" x="152.162362" y="119.73802" style="fill: #1f78b4; stroke: #1f78b4"/>
     <use xlink:href="#m07111ff309" x="368.097125" y="141.931203" style="fill: #1f78b4; stroke: #1f78b4"/>
     <use xlink:href="#m07111ff309" x="292.093952" y="139.915501" style="fill: #1f78b4; stroke: #1f78b4"/>
     <use xlink:href="#m07111ff309" x="267.803582" y="312.481197" style="fill: #1f78b4; stroke: #1f78b4"/>
     <use xlink:href="#m07111ff309" x="201.818744" y="222.551665" style="fill: #1f78b4; stroke: #1f78b4"/>
     <use xlink:href="#m07111ff309" x="141.125798" y="29.990083" style="fill: #1f78b4; stroke: #1f78b4"/>
     <use xlink:href="#m07111ff309" x="64.594604" y="60.336991" style="fill: #1f78b4; stroke: #1f78b4"/>
    </g>
   </g>
   <g id="text_1">
    <g clip-path="url(#peb184e5ec5)">
     <!-- 0 -->
     <g transform="translate(331.687304 318.369292) scale(0.1 -0.1)">
      <defs>
       <path id="DejaVuSans-30" d="M 2034 4250 
Q 1547 4250 1301 3770 
Q 1056 3291 1056 2328 
Q 1056 1369 1301 889 
Q 1547 409 2034 409 
Q 2525 409 2770 889 
Q 3016 1369 3016 2328 
Q 3016 3291 2770 3770 
Q 2525 4250 2034 4250 
z
M 2034 4750 
Q 2819 4750 3233 4129 
Q 3647 3509 3647 2328 
Q 3647 1150 3233 529 
Q 2819 -91 2034 -91 
Q 1250 -91 836 529 
Q 422 1150 422 2328 
Q 422 3509 836 4129 
Q 1250 4750 2034 4750 
z
" transform="scale(0.015625)"/>
      </defs>
      <use xlink:href="#DejaVuSans-30"/>
     </g>
    </g>
   </g>
   <g id="text_2">
    <g clip-path="url(#peb184e5ec5)">
     <!-- 1 -->
     <g transform="translate(384.414603 287.115328) scale(0.1 -0.1)">
      <defs>
       <path id="DejaVuSans-31" d="M 794 531 
L 1825 531 
L 1825 4091 
L 703 3866 
L 703 4441 
L 1819 4666 
L 2450 4666 
L 2450 531 
L 3481 531 
L 3481 0 
L 794 0 
L 794 531 
z
" transform="scale(0.015625)"/>
      </defs>
      <use xlink:href="#DejaVuSans-31"/>
     </g>
    </g>
   </g>
   <g id="text_3">
    <g clip-path="url(#peb184e5ec5)">
     <!-- 2 -->
     <g transform="translate(408.697467 188.127594) scale(0.1 -0.1)">
      <defs>
       <path id="DejaVuSans-32" d="M 1228 531 
L 3431 531 
L 3431 0 
L 469 0 
L 469 531 
Q 828 903 1448 1529 
Q 2069 2156 2228 2338 
Q 2531 2678 2651 2914 
Q 2772 3150 2772 3378 
Q 2772 3750 2511 3984 
Q 2250 4219 1831 4219 
Q 1534 4219 1204 4116 
Q 875 4013 500 3803 
L 500 4441 
Q 881 4594 1212 4672 
Q 1544 4750 1819 4750 
Q 2544 4750 2975 4387 
Q 3406 4025 3406 3419 
Q 3406 3131 3298 2873 
Q 3191 2616 2906 2266 
Q 2828 2175 2409 1742 
Q 1991 1309 1228 531 
z
" transform="scale(0.015625)"/>
      </defs>
      <use xlink:href="#DejaVuSans-32"/>
     </g>
    </g>
   </g>
   <g id="text_4">
    <g clip-path="url(#peb184e5ec5)">
     <!-- 3 -->
     <g transform="translate(205.321902 286.396539) scale(0.1 -0.1)">
      <defs>
       <path id="DejaVuSans-33" d="M 2597 2516 
Q 3050 2419 3304 2112 
Q 3559 1806 3559 1356 
Q 3559 666 3084 287 
Q 2609 -91 1734 -91 
Q 1441 -91 1130 -33 
Q 819 25 488 141 
L 488 750 
Q 750 597 1062 519 
Q 1375 441 1716 441 
Q 2309 441 2620 675 
Q 2931 909 2931 1356 
Q 2931 1769 2642 2001 
Q 2353 2234 1838 2234 
L 1294 2234 
L 1294 2753 
L 1863 2753 
Q 2328 2753 2575 2939 
Q 2822 3125 2822 3475 
Q 2822 3834 2567 4026 
Q 2313 4219 1838 4219 
Q 1578 4219 1281 4162 
Q 984 4106 628 3988 
L 628 4550 
Q 988 4650 1302 4700 
Q 1616 4750 1894 4750 
Q 2613 4750 3031 4423 
Q 3450 4097 3450 3541 
Q 3450 3153 3228 2886 
Q 3006 2619 2597 2516 
z
" transform="scale(0.015625)"/>
      </defs>
      <use xlink:href="#DejaVuSans-33"/>
     </g>
    </g>
   </g>
   <g id="text_5">
    <g clip-path="url(#peb184e5ec5)">
     <!-- 4 -->
     <g transform="translate(36.805527 128.275826) scale(0.1 -0.1)">
      <defs>
       <path id="DejaVuSans-34" d="M 2419 4116 
L 825 1625 
L 2419 1625 
L 2419 4116 
z
M 2253 4666 
L 3047 4666 
L 3047 1625 
L 3713 1625 
L 3713 1100 
L 3047 1100 
L 3047 0 
L 2419 0 
L 2419 1100 
L 313 1100 
L 313 1709 
L 2253 4666 
z
" transform="scale(0.015625)"/>
      </defs>
      <use xlink:href="#DejaVuSans-34"/>
     </g>
    </g>
   </g>
   <g id="text_6">
    <g clip-path="url(#peb184e5ec5)">
     <!-- 5 -->
     <g transform="translate(417.631973 241.664024) scale(0.1 -0.1)">
      <defs>
       <path id="DejaVuSans-35" d="M 691 4666 
L 3169 4666 
L 3169 4134 
L 1269 4134 
L 1269 2991 
Q 1406 3038 1543 3061 
Q 1681 3084 1819 3084 
Q 2600 3084 3056 2656 
Q 3513 2228 3513 1497 
Q 3513 744 3044 326 
Q 2575 -91 1722 -91 
Q 1428 -91 1123 -41 
Q 819 9 494 109 
L 494 744 
Q 775 591 1075 516 
Q 1375 441 1709 441 
Q 2250 441 2565 725 
Q 2881 1009 2881 1497 
Q 2881 1984 2565 2268 
Q 2250 2553 1709 2553 
Q 1456 2553 1204 2497 
Q 953 2441 691 2322 
L 691 4666 
z
" transform="scale(0.015625)"/>
      </defs>
      <use xlink:href="#DejaVuSans-35"/>
     </g>
    </g>
   </g>
   <g id="text_7">
    <g clip-path="url(#peb184e5ec5)">
     <!-- 6 -->
     <g transform="translate(295.503934 222.971375) scale(0.1 -0.1)">
      <defs>
       <path id="DejaVuSans-36" d="M 2113 2584 
Q 1688 2584 1439 2293 
Q 1191 2003 1191 1497 
Q 1191 994 1439 701 
Q 1688 409 2113 409 
Q 2538 409 2786 701 
Q 3034 994 3034 1497 
Q 3034 2003 2786 2293 
Q 2538 2584 2113 2584 
z
M 3366 4563 
L 3366 3988 
Q 3128 4100 2886 4159 
Q 2644 4219 2406 4219 
Q 1781 4219 1451 3797 
Q 1122 3375 1075 2522 
Q 1259 2794 1537 2939 
Q 1816 3084 2150 3084 
Q 2853 3084 3261 2657 
Q 3669 2231 3669 1497 
Q 3669 778 3244 343 
Q 2819 -91 2113 -91 
Q 1303 -91 875 529 
Q 447 1150 447 2328 
Q 447 3434 972 4092 
Q 1497 4750 2381 4750 
Q 2619 4750 2861 4703 
Q 3103 4656 3366 4563 
z
" transform="scale(0.015625)"/>
      </defs>
      <use xlink:href="#DejaVuSans-36"/>
     </g>
    </g>
   </g>
   <g id="text_8">
    <g clip-path="url(#peb184e5ec5)">
     <!-- 7 -->
     <g transform="translate(148.981112 122.497395) scale(0.1 -0.1)">
      <defs>
       <path id="DejaVuSans-37" d="M 525 4666 
L 3525 4666 
L 3525 4397 
L 1831 0 
L 1172 0 
L 2766 4134 
L 525 4134 
L 525 4666 
z
" transform="scale(0.015625)"/>
      </defs>
      <use xlink:href="#DejaVuSans-37"/>
     </g>
    </g>
   </g>
   <g id="text_9">
    <g clip-path="url(#peb184e5ec5)">
     <!-- 8 -->
     <g transform="translate(364.915875 144.690578) scale(0.1 -0.1)">
      <defs>
       <path id="DejaVuSans-38" d="M 2034 2216 
Q 1584 2216 1326 1975 
Q 1069 1734 1069 1313 
Q 1069 891 1326 650 
Q 1584 409 2034 409 
Q 2484 409 2743 651 
Q 3003 894 3003 1313 
Q 3003 1734 2745 1975 
Q 2488 2216 2034 2216 
z
M 1403 2484 
Q 997 2584 770 2862 
Q 544 3141 544 3541 
Q 544 4100 942 4425 
Q 1341 4750 2034 4750 
Q 2731 4750 3128 4425 
Q 3525 4100 3525 3541 
Q 3525 3141 3298 2862 
Q 3072 2584 2669 2484 
Q 3125 2378 3379 2068 
Q 3634 1759 3634 1313 
Q 3634 634 3220 271 
Q 2806 -91 2034 -91 
Q 1263 -91 848 271 
Q 434 634 434 1313 
Q 434 1759 690 2068 
Q 947 2378 1403 2484 
z
M 1172 3481 
Q 1172 3119 1398 2916 
Q 1625 2713 2034 2713 
Q 2441 2713 2670 2916 
Q 2900 3119 2900 3481 
Q 2900 3844 2670 4047 
Q 2441 4250 2034 4250 
Q 1625 4250 1398 4047 
Q 1172 3844 1172 3481 
z
" transform="scale(0.015625)"/>
      </defs>
      <use xlink:href="#DejaVuSans-38"/>
     </g>
    </g>
   </g>
   <g id="text_10">
    <g clip-path="url(#peb184e5ec5)">
     <!-- 9 -->
     <g transform="translate(288.912702 142.674876) scale(0.1 -0.1)">
      <defs>
       <path id="DejaVuSans-39" d="M 703 97 
L 703 672 
Q 941 559 1184 500 
Q 1428 441 1663 441 
Q 2288 441 2617 861 
Q 2947 1281 2994 2138 
Q 2813 1869 2534 1725 
Q 2256 1581 1919 1581 
Q 1219 1581 811 2004 
Q 403 2428 403 3163 
Q 403 3881 828 4315 
Q 1253 4750 1959 4750 
Q 2769 4750 3195 4129 
Q 3622 3509 3622 2328 
Q 3622 1225 3098 567 
Q 2575 -91 1691 -91 
Q 1453 -91 1209 -44 
Q 966 3 703 97 
z
M 1959 2075 
Q 2384 2075 2632 2365 
Q 2881 2656 2881 3163 
Q 2881 3666 2632 3958 
Q 2384 4250 1959 4250 
Q 1534 4250 1286 3958 
Q 1038 3666 1038 3163 
Q 1038 2656 1286 2365 
Q 1534 2075 1959 2075 
z
" transform="scale(0.015625)"/>
      </defs>
      <use xlink:href="#DejaVuSans-39"/>
     </g>
    </g>
   </g>
   <g id="text_11">
    <g clip-path="url(#peb184e5ec5)">
     <!-- 10 -->
     <g transform="translate(261.441082 315.240572) scale(0.1 -0.1)">
      <use xlink:href="#DejaVuSans-31"/>
      <use xlink:href="#DejaVuSans-30" x="63.623047"/>
     </g>
    </g>
   </g>
   <g id="text_12">
    <g clip-path="url(#peb184e5ec5)">
     <!-- 11 -->
     <g transform="translate(195.456244 225.31104) scale(0.1 -0.1)">
      <use xlink:href="#DejaVuSans-31"/>
      <use xlink:href="#DejaVuSans-31" x="63.623047"/>
     </g>
    </g>
   </g>
   <g id="text_13">
    <g clip-path="url(#peb184e5ec5)">
     <!-- 12 -->
     <g transform="translate(134.763298 32.749458) scale(0.1 -0.1)">
      <use xlink:href="#DejaVuSans-31"/>
      <use xlink:href="#DejaVuSans-32" x="63.623047"/>
     </g>
    </g>
   </g>
   <g id="text_14">
    <g clip-path="url(#peb184e5ec5)">
     <!-- 13 -->
     <g transform="translate(58.232104 63.096366) scale(0.1 -0.1)">
      <use xlink:href="#DejaVuSans-31"/>
      <use xlink:href="#DejaVuSans-33" x="63.623047"/>
     </g>
    </g>
   </g>
  </g>
 </g>
 <defs>
  <clipPath id="peb184e5ec5">
   <rect x="0" y="0" width="460.8" height="345.6"/>
  </clipPath>
 </defs>
</svg>
