<?xml version="1.0" encoding="utf-8" standalone="no"?>
<!DOCTYPE svg PUBLIC "-//W3C//DTD SVG 1.1//EN"
  "http://www.w3.org/Graphics/SVG/1.1/DTD/svg11.dtd">
<svg xmlns:xlink="http://www.w3.org/1999/xlink" width="460.8pt" height="345.6pt" viewBox="0 0 460.8 345.6" xmlns="http://www.w3.org/2000/svg" version="1.1">
 <metadata>
  <rdf:RDF xmlns:dc="http://purl.org/dc/elements/1.1/" xmlns:cc="http://creativecommons.org/ns#" xmlns:rdf="http://www.w3.org/1999/02/22-rdf-syntax-ns#">
   <cc:Work>
    <dc:type rdf:resource="http://purl.org/dc/dcmitype/StillImage"/>
    <dc:date>2023-11-09T10:06:54.213126</dc:date>
    <dc:format>image/svg+xml</dc:format>
    <dc:creator>
     <cc:Agent>
      <dc:title>Matplotlib v3.7.0, https://matplotlib.org/</dc:title>
     </cc:Agent>
    </dc:creator>
   </cc:Work>
  </rdf:RDF>
 </metadata>
 <defs>
  <style type="text/css">*{stroke-linejoin: round; stroke-linecap: butt}</style>
 </defs>
 <g id="figure_1">
  <g id="patch_1">
   <path d="M 0 345.6 
L 460.8 345.6 
L 460.8 0 
L 0 0 
z
" style="fill: #ffffff"/>
  </g>
  <g id="axes_1">
   <g id="patch_2">
    <path d="M 373.721014 88.624723 
Q 381.290275 94.622455 387.983249 99.925835 
" clip-path="url(#pa801057d7d)" style="fill: none; stroke: #000000; stroke-linecap: round"/>
    <path d="M 386.090248 95.874101 
L 387.983249 99.925835 
L 383.606062 99.009196 
z
" clip-path="url(#pa801057d7d)" style="stroke: #000000; stroke-linecap: round"/>
   </g>
   <g id="patch_3">
    <path d="M 373.721014 88.624723 
Q 381.290275 94.622455 387.983249 99.925835 
" clip-path="url(#pa801057d7d)" style="fill: none; stroke: #000000; stroke-linecap: round"/>
    <path d="M 386.090248 95.874101 
L 387.983249 99.925835 
L 383.606062 99.009196 
z
" clip-path="url(#pa801057d7d)" style="stroke: #000000; stroke-linecap: round"/>
   </g>
   <g id="patch_4">
    <path d="M 373.721014 88.624723 
Q 381.290275 94.622455 387.983249 99.925835 
" clip-path="url(#pa801057d7d)" style="fill: none; stroke: #000000; stroke-linecap: round"/>
    <path d="M 386.090248 95.874101 
L 387.983249 99.925835 
L 383.606062 99.009196 
z
" clip-path="url(#pa801057d7d)" style="stroke: #000000; stroke-linecap: round"/>
   </g>
   <g id="patch_5">
    <path d="M 373.721014 88.624723 
Q 381.290275 94.622455 387.983249 99.925835 
" clip-path="url(#pa801057d7d)" style="fill: none; stroke: #000000; stroke-linecap: round"/>
    <path d="M 386.090248 95.874101 
L 387.983249 99.925835 
L 383.606062 99.009196 
z
" clip-path="url(#pa801057d7d)" style="stroke: #000000; stroke-linecap: round"/>
   </g>
   <g id="patch_6">
    <path d="M 373.721014 88.624723 
Q 381.290275 94.622455 387.983249 99.925835 
" clip-path="url(#pa801057d7d)" style="fill: none; stroke: #000000; stroke-linecap: round"/>
    <path d="M 386.090248 95.874101 
L 387.983249 99.925835 
L 383.606062 99.009196 
z
" clip-path="url(#pa801057d7d)" style="stroke: #000000; stroke-linecap: round"/>
   </g>
   <g id="patch_7">
    <path d="M 373.721014 88.624723 
Q 381.290275 94.622455 387.983249 99.925835 
" clip-path="url(#pa801057d7d)" style="fill: none; stroke: #000000; stroke-linecap: round"/>
    <path d="M 386.090248 95.874101 
L 387.983249 99.925835 
L 383.606062 99.009196 
z
" clip-path="url(#pa801057d7d)" style="stroke: #000000; stroke-linecap: round"/>
   </g>
   <g id="patch_8">
    <path d="M 373.721014 88.624723 
Q 381.290275 94.622455 387.983249 99.925835 
" clip-path="url(#pa801057d7d)" style="fill: none; stroke: #000000; stroke-linecap: round"/>
    <path d="M 386.090248 95.874101 
L 387.983249 99.925835 
L 383.606062 99.009196 
z
" clip-path="url(#pa801057d7d)" style="stroke: #000000; stroke-linecap: round"/>
   </g>
   <g id="patch_9">
    <path d="M 373.721014 88.624723 
Q 381.290275 94.622455 387.983249 99.925835 
" clip-path="url(#pa801057d7d)" style="fill: none; stroke: #000000; stroke-linecap: round"/>
    <path d="M 386.090248 95.874101 
L 387.983249 99.925835 
L 383.606062 99.009196 
z
" clip-path="url(#pa801057d7d)" style="stroke: #000000; stroke-linecap: round"/>
   </g>
   <g id="patch_10">
    <path d="M 373.721014 88.624723 
Q 381.290275 94.622455 387.983249 99.925835 
" clip-path="url(#pa801057d7d)" style="fill: none; stroke: #000000; stroke-linecap: round"/>
    <path d="M 386.090248 95.874101 
L 387.983249 99.925835 
L 383.606062 99.009196 
z
" clip-path="url(#pa801057d7d)" style="stroke: #000000; stroke-linecap: round"/>
   </g>
   <g id="patch_11">
    <path d="M 373.721014 88.624723 
Q 381.290275 94.622455 387.983249 99.925835 
" clip-path="url(#pa801057d7d)" style="fill: none; stroke: #000000; stroke-linecap: round"/>
    <path d="M 386.090248 95.874101 
L 387.983249 99.925835 
L 383.606062 99.009196 
z
" clip-path="url(#pa801057d7d)" style="stroke: #000000; stroke-linecap: round"/>
   </g>
   <g id="patch_12">
    <path d="M 373.570224 86.046278 
Q 383.17586 76.406375 391.992334 67.558447 
" clip-path="url(#pa801057d7d)" style="fill: none; stroke: #000000; stroke-linecap: round"/>
    <path d="M 387.752219 68.980213 
L 391.992334 67.558447 
L 390.585677 71.803599 
z
" clip-path="url(#pa801057d7d)" style="stroke: #000000; stroke-linecap: round"/>
   </g>
   <g id="patch_13">
    <path d="M 373.570224 86.046278 
Q 383.17586 76.406375 391.992334 67.558447 
" clip-path="url(#pa801057d7d)" style="fill: none; stroke: #000000; stroke-linecap: round"/>
    <path d="M 387.752219 68.980213 
L 391.992334 67.558447 
L 390.585677 71.803599 
z
" clip-path="url(#pa801057d7d)" style="stroke: #000000; stroke-linecap: round"/>
   </g>
   <g id="patch_14">
    <path d="M 373.570224 86.046278 
Q 383.17586 76.406375 391.992334 67.558447 
" clip-path="url(#pa801057d7d)" style="fill: none; stroke: #000000; stroke-linecap: round"/>
    <path d="M 387.752219 68.980213 
L 391.992334 67.558447 
L 390.585677 71.803599 
z
" clip-path="url(#pa801057d7d)" style="stroke: #000000; stroke-linecap: round"/>
   </g>
   <g id="patch_15">
    <path d="M 373.570224 86.046278 
Q 383.17586 76.406375 391.992334 67.558447 
" clip-path="url(#pa801057d7d)" style="fill: none; stroke: #000000; stroke-linecap: round"/>
    <path d="M 387.752219 68.980213 
L 391.992334 67.558447 
L 390.585677 71.803599 
z
" clip-path="url(#pa801057d7d)" style="stroke: #000000; stroke-linecap: round"/>
   </g>
   <g id="patch_16">
    <path d="M 373.570224 86.046278 
Q 383.17586 76.406375 391.992334 67.558447 
" clip-path="url(#pa801057d7d)" style="fill: none; stroke: #000000; stroke-linecap: round"/>
    <path d="M 387.752219 68.980213 
L 391.992334 67.558447 
L 390.585677 71.803599 
z
" clip-path="url(#pa801057d7d)" style="stroke: #000000; stroke-linecap: round"/>
   </g>
   <g id="patch_17">
    <path d="M 373.570224 86.046278 
Q 383.17586 76.406375 391.992334 67.558447 
" clip-path="url(#pa801057d7d)" style="fill: none; stroke: #000000; stroke-linecap: round"/>
    <path d="M 387.752219 68.980213 
L 391.992334 67.558447 
L 390.585677 71.803599 
z
" clip-path="url(#pa801057d7d)" style="stroke: #000000; stroke-linecap: round"/>
   </g>
   <g id="patch_18">
    <path d="M 373.570224 86.046278 
Q 383.17586 76.406375 391.992334 67.558447 
" clip-path="url(#pa801057d7d)" style="fill: none; stroke: #000000; stroke-linecap: round"/>
    <path d="M 387.752219 68.980213 
L 391.992334 67.558447 
L 390.585677 71.803599 
z
" clip-path="url(#pa801057d7d)" style="stroke: #000000; stroke-linecap: round"/>
   </g>
   <g id="patch_19">
    <path d="M 373.570224 86.046278 
Q 383.17586 76.406375 391.992334 67.558447 
" clip-path="url(#pa801057d7d)" style="fill: none; stroke: #000000; stroke-linecap: round"/>
    <path d="M 387.752219 68.980213 
L 391.992334 67.558447 
L 390.585677 71.803599 
z
" clip-path="url(#pa801057d7d)" style="stroke: #000000; stroke-linecap: round"/>
   </g>
   <g id="patch_20">
    <path d="M 373.570224 86.046278 
Q 383.17586 76.406375 391.992334 67.558447 
" clip-path="url(#pa801057d7d)" style="fill: none; stroke: #000000; stroke-linecap: round"/>
    <path d="M 387.752219 68.980213 
L 391.992334 67.558447 
L 390.585677 71.803599 
z
" clip-path="url(#pa801057d7d)" style="stroke: #000000; stroke-linecap: round"/>
   </g>
   <g id="patch_21">
    <path d="M 373.570224 86.046278 
Q 383.17586 76.406375 391.992334 67.558447 
" clip-path="url(#pa801057d7d)" style="fill: none; stroke: #000000; stroke-linecap: round"/>
    <path d="M 387.752219 68.980213 
L 391.992334 67.558447 
L 390.585677 71.803599 
z
" clip-path="url(#pa801057d7d)" style="stroke: #000000; stroke-linecap: round"/>
   </g>
   <g id="patch_22">
    <path d="M 428.638174 48.024489 
Q 412.25956 56.272765 396.879504 64.018166 
" clip-path="url(#pa801057d7d)" style="fill: none; stroke: #000000; stroke-linecap: round"/>
    <path d="M 401.351622 64.005303 
L 396.879504 64.018166 
L 399.552485 60.432754 
z
" clip-path="url(#pa801057d7d)" style="stroke: #000000; stroke-linecap: round"/>
   </g>
   <g id="patch_23">
    <path d="M 428.638174 48.024489 
Q 412.25956 56.272765 396.879504 64.018166 
" clip-path="url(#pa801057d7d)" style="fill: none; stroke: #000000; stroke-linecap: round"/>
    <path d="M 401.351622 64.005303 
L 396.879504 64.018166 
L 399.552485 60.432754 
z
" clip-path="url(#pa801057d7d)" style="stroke: #000000; stroke-linecap: round"/>
   </g>
   <g id="patch_24">
    <path d="M 428.638174 48.024489 
Q 412.25956 56.272765 396.879504 64.018166 
" clip-path="url(#pa801057d7d)" style="fill: none; stroke: #000000; stroke-linecap: round"/>
    <path d="M 401.351622 64.005303 
L 396.879504 64.018166 
L 399.552485 60.432754 
z
" clip-path="url(#pa801057d7d)" style="stroke: #000000; stroke-linecap: round"/>
   </g>
   <g id="patch_25">
    <path d="M 428.638174 48.024489 
Q 412.25956 56.272765 396.879504 64.018166 
" clip-path="url(#pa801057d7d)" style="fill: none; stroke: #000000; stroke-linecap: round"/>
    <path d="M 401.351622 64.005303 
L 396.879504 64.018166 
L 399.552485 60.432754 
z
" clip-path="url(#pa801057d7d)" style="stroke: #000000; stroke-linecap: round"/>
   </g>
   <g id="patch_26">
    <path d="M 428.638174 48.024489 
Q 412.25956 56.272765 396.879504 64.018166 
" clip-path="url(#pa801057d7d)" style="fill: none; stroke: #000000; stroke-linecap: round"/>
    <path d="M 401.351622 64.005303 
L 396.879504 64.018166 
L 399.552485 60.432754 
z
" clip-path="url(#pa801057d7d)" style="stroke: #000000; stroke-linecap: round"/>
   </g>
   <g id="patch_27">
    <path d="M 428.638174 48.024489 
Q 412.25956 56.272765 396.879504 64.018166 
" clip-path="url(#pa801057d7d)" style="fill: none; stroke: #000000; stroke-linecap: round"/>
    <path d="M 401.351622 64.005303 
L 396.879504 64.018166 
L 399.552485 60.432754 
z
" clip-path="url(#pa801057d7d)" style="stroke: #000000; stroke-linecap: round"/>
   </g>
   <g id="patch_28">
    <path d="M 428.638174 48.024489 
Q 412.25956 56.272765 396.879504 64.018166 
" clip-path="url(#pa801057d7d)" style="fill: none; stroke: #000000; stroke-linecap: round"/>
    <path d="M 401.351622 64.005303 
L 396.879504 64.018166 
L 399.552485 60.432754 
z
" clip-path="url(#pa801057d7d)" style="stroke: #000000; stroke-linecap: round"/>
   </g>
   <g id="patch_29">
    <path d="M 428.638174 48.024489 
Q 412.25956 56.272765 396.879504 64.018166 
" clip-path="url(#pa801057d7d)" style="fill: none; stroke: #000000; stroke-linecap: round"/>
    <path d="M 401.351622 64.005303 
L 396.879504 64.018166 
L 399.552485 60.432754 
z
" clip-path="url(#pa801057d7d)" style="stroke: #000000; stroke-linecap: round"/>
   </g>
   <g id="patch_30">
    <path d="M 428.638174 48.024489 
Q 412.25956 56.272765 396.879504 64.018166 
" clip-path="url(#pa801057d7d)" style="fill: none; stroke: #000000; stroke-linecap: round"/>
    <path d="M 401.351622 64.005303 
L 396.879504 64.018166 
L 399.552485 60.432754 
z
" clip-path="url(#pa801057d7d)" style="stroke: #000000; stroke-linecap: round"/>
   </g>
   <g id="patch_31">
    <path d="M 428.638174 48.024489 
Q 412.25956 56.272765 396.879504 64.018166 
" clip-path="url(#pa801057d7d)" style="fill: none; stroke: #000000; stroke-linecap: round"/>
    <path d="M 401.351622 64.005303 
L 396.879504 64.018166 
L 399.552485 60.432754 
z
" clip-path="url(#pa801057d7d)" style="stroke: #000000; stroke-linecap: round"/>
   </g>
   <g id="patch_32">
    <path d="M 433.753678 73.990091 
Q 414.897294 69.896429 397.133492 66.039963 
" clip-path="url(#pa801057d7d)" style="fill: none; stroke: #000000; stroke-linecap: round"/>
    <path d="M 400.618127 68.843055 
L 397.133492 66.039963 
L 401.466746 64.934111 
z
" clip-path="url(#pa801057d7d)" style="stroke: #000000; stroke-linecap: round"/>
   </g>
   <g id="patch_33">
    <path d="M 433.753678 73.990091 
Q 414.897294 69.896429 397.133492 66.039963 
" clip-path="url(#pa801057d7d)" style="fill: none; stroke: #000000; stroke-linecap: round"/>
    <path d="M 400.618127 68.843055 
L 397.133492 66.039963 
L 401.466746 64.934111 
z
" clip-path="url(#pa801057d7d)" style="stroke: #000000; stroke-linecap: round"/>
   </g>
   <g id="patch_34">
    <path d="M 433.753678 73.990091 
Q 414.897294 69.896429 397.133492 66.039963 
" clip-path="url(#pa801057d7d)" style="fill: none; stroke: #000000; stroke-linecap: round"/>
    <path d="M 400.618127 68.843055 
L 397.133492 66.039963 
L 401.466746 64.934111 
z
" clip-path="url(#pa801057d7d)" style="stroke: #000000; stroke-linecap: round"/>
   </g>
   <g id="patch_35">
    <path d="M 433.753678 73.990091 
Q 414.897294 69.896429 397.133492 66.039963 
" clip-path="url(#pa801057d7d)" style="fill: none; stroke: #000000; stroke-linecap: round"/>
    <path d="M 400.618127 68.843055 
L 397.133492 66.039963 
L 401.466746 64.934111 
z
" clip-path="url(#pa801057d7d)" style="stroke: #000000; stroke-linecap: round"/>
   </g>
   <g id="patch_36">
    <path d="M 433.753678 73.990091 
Q 414.897294 69.896429 397.133492 66.039963 
" clip-path="url(#pa801057d7d)" style="fill: none; stroke: #000000; stroke-linecap: round"/>
    <path d="M 400.618127 68.843055 
L 397.133492 66.039963 
L 401.466746 64.934111 
z
" clip-path="url(#pa801057d7d)" style="stroke: #000000; stroke-linecap: round"/>
   </g>
   <g id="patch_37">
    <path d="M 433.753678 73.990091 
Q 414.897294 69.896429 397.133492 66.039963 
" clip-path="url(#pa801057d7d)" style="fill: none; stroke: #000000; stroke-linecap: round"/>
    <path d="M 400.618127 68.843055 
L 397.133492 66.039963 
L 401.466746 64.934111 
z
" clip-path="url(#pa801057d7d)" style="stroke: #000000; stroke-linecap: round"/>
   </g>
   <g id="patch_38">
    <path d="M 433.753678 73.990091 
Q 414.897294 69.896429 397.133492 66.039963 
" clip-path="url(#pa801057d7d)" style="fill: none; stroke: #000000; stroke-linecap: round"/>
    <path d="M 400.618127 68.843055 
L 397.133492 66.039963 
L 401.466746 64.934111 
z
" clip-path="url(#pa801057d7d)" style="stroke: #000000; stroke-linecap: round"/>
   </g>
   <g id="patch_39">
    <path d="M 433.753678 73.990091 
Q 414.897294 69.896429 397.133492 66.039963 
" clip-path="url(#pa801057d7d)" style="fill: none; stroke: #000000; stroke-linecap: round"/>
    <path d="M 400.618127 68.843055 
L 397.133492 66.039963 
L 401.466746 64.934111 
z
" clip-path="url(#pa801057d7d)" style="stroke: #000000; stroke-linecap: round"/>
   </g>
   <g id="patch_40">
    <path d="M 433.753678 73.990091 
Q 414.897294 69.896429 397.133492 66.039963 
" clip-path="url(#pa801057d7d)" style="fill: none; stroke: #000000; stroke-linecap: round"/>
    <path d="M 400.618127 68.843055 
L 397.133492 66.039963 
L 401.466746 64.934111 
z
" clip-path="url(#pa801057d7d)" style="stroke: #000000; stroke-linecap: round"/>
   </g>
   <g id="patch_41">
    <path d="M 433.753678 73.990091 
Q 414.897294 69.896429 397.133492 66.039963 
" clip-path="url(#pa801057d7d)" style="fill: none; stroke: #000000; stroke-linecap: round"/>
    <path d="M 400.618127 68.843055 
L 397.133492 66.039963 
L 401.466746 64.934111 
z
" clip-path="url(#pa801057d7d)" style="stroke: #000000; stroke-linecap: round"/>
   </g>
   <g id="patch_42">
    <path d="M 392.781506 66.76646 
Q 383.17587 76.406364 374.359395 85.254292 
" clip-path="url(#pa801057d7d)" style="fill: none; stroke: #000000; stroke-linecap: round"/>
    <path d="M 378.599511 83.832526 
L 374.359395 85.254292 
L 375.766052 81.009139 
z
" clip-path="url(#pa801057d7d)" style="stroke: #000000; stroke-linecap: round"/>
   </g>
   <g id="patch_43">
    <path d="M 392.781506 66.76646 
Q 383.17587 76.406364 374.359395 85.254292 
" clip-path="url(#pa801057d7d)" style="fill: none; stroke: #000000; stroke-linecap: round"/>
    <path d="M 378.599511 83.832526 
L 374.359395 85.254292 
L 375.766052 81.009139 
z
" clip-path="url(#pa801057d7d)" style="stroke: #000000; stroke-linecap: round"/>
   </g>
   <g id="patch_44">
    <path d="M 392.781506 66.76646 
Q 383.17587 76.406364 374.359395 85.254292 
" clip-path="url(#pa801057d7d)" style="fill: none; stroke: #000000; stroke-linecap: round"/>
    <path d="M 378.599511 83.832526 
L 374.359395 85.254292 
L 375.766052 81.009139 
z
" clip-path="url(#pa801057d7d)" style="stroke: #000000; stroke-linecap: round"/>
   </g>
   <g id="patch_45">
    <path d="M 392.781506 66.76646 
Q 383.17587 76.406364 374.359395 85.254292 
" clip-path="url(#pa801057d7d)" style="fill: none; stroke: #000000; stroke-linecap: round"/>
    <path d="M 378.599511 83.832526 
L 374.359395 85.254292 
L 375.766052 81.009139 
z
" clip-path="url(#pa801057d7d)" style="stroke: #000000; stroke-linecap: round"/>
   </g>
   <g id="patch_46">
    <path d="M 392.781506 66.76646 
Q 383.17587 76.406364 374.359395 85.254292 
" clip-path="url(#pa801057d7d)" style="fill: none; stroke: #000000; stroke-linecap: round"/>
    <path d="M 378.599511 83.832526 
L 374.359395 85.254292 
L 375.766052 81.009139 
z
" clip-path="url(#pa801057d7d)" style="stroke: #000000; stroke-linecap: round"/>
   </g>
   <g id="patch_47">
    <path d="M 392.781506 66.76646 
Q 383.17587 76.406364 374.359395 85.254292 
" clip-path="url(#pa801057d7d)" style="fill: none; stroke: #000000; stroke-linecap: round"/>
    <path d="M 378.599511 83.832526 
L 374.359395 85.254292 
L 375.766052 81.009139 
z
" clip-path="url(#pa801057d7d)" style="stroke: #000000; stroke-linecap: round"/>
   </g>
   <g id="patch_48">
    <path d="M 392.781506 66.76646 
Q 383.17587 76.406364 374.359395 85.254292 
" clip-path="url(#pa801057d7d)" style="fill: none; stroke: #000000; stroke-linecap: round"/>
    <path d="M 378.599511 83.832526 
L 374.359395 85.254292 
L 375.766052 81.009139 
z
" clip-path="url(#pa801057d7d)" style="stroke: #000000; stroke-linecap: round"/>
   </g>
   <g id="patch_49">
    <path d="M 392.781506 66.76646 
Q 383.17587 76.406364 374.359395 85.254292 
" clip-path="url(#pa801057d7d)" style="fill: none; stroke: #000000; stroke-linecap: round"/>
    <path d="M 378.599511 83.832526 
L 374.359395 85.254292 
L 375.766052 81.009139 
z
" clip-path="url(#pa801057d7d)" style="stroke: #000000; stroke-linecap: round"/>
   </g>
   <g id="patch_50">
    <path d="M 392.781506 66.76646 
Q 383.17587 76.406364 374.359395 85.254292 
" clip-path="url(#pa801057d7d)" style="fill: none; stroke: #000000; stroke-linecap: round"/>
    <path d="M 378.599511 83.832526 
L 374.359395 85.254292 
L 375.766052 81.009139 
z
" clip-path="url(#pa801057d7d)" style="stroke: #000000; stroke-linecap: round"/>
   </g>
   <g id="patch_51">
    <path d="M 392.781506 66.76646 
Q 383.17587 76.406364 374.359395 85.254292 
" clip-path="url(#pa801057d7d)" style="fill: none; stroke: #000000; stroke-linecap: round"/>
    <path d="M 378.599511 83.832526 
L 374.359395 85.254292 
L 375.766052 81.009139 
z
" clip-path="url(#pa801057d7d)" style="stroke: #000000; stroke-linecap: round"/>
   </g>
   <g id="patch_52">
    <path d="M 395.879253 64.521893 
Q 412.257866 56.273618 427.637922 48.528216 
" clip-path="url(#pa801057d7d)" style="fill: none; stroke: #000000; stroke-linecap: round"/>
    <path d="M 423.165804 48.541079 
L 427.637922 48.528216 
L 424.964941 52.113628 
z
" clip-path="url(#pa801057d7d)" style="stroke: #000000; stroke-linecap: round"/>
   </g>
   <g id="patch_53">
    <path d="M 395.879253 64.521893 
Q 412.257866 56.273618 427.637922 48.528216 
" clip-path="url(#pa801057d7d)" style="fill: none; stroke: #000000; stroke-linecap: round"/>
    <path d="M 423.165804 48.541079 
L 427.637922 48.528216 
L 424.964941 52.113628 
z
" clip-path="url(#pa801057d7d)" style="stroke: #000000; stroke-linecap: round"/>
   </g>
   <g id="patch_54">
    <path d="M 395.879253 64.521893 
Q 412.257866 56.273618 427.637922 48.528216 
" clip-path="url(#pa801057d7d)" style="fill: none; stroke: #000000; stroke-linecap: round"/>
    <path d="M 423.165804 48.541079 
L 427.637922 48.528216 
L 424.964941 52.113628 
z
" clip-path="url(#pa801057d7d)" style="stroke: #000000; stroke-linecap: round"/>
   </g>
   <g id="patch_55">
    <path d="M 395.879253 64.521893 
Q 412.257866 56.273618 427.637922 48.528216 
" clip-path="url(#pa801057d7d)" style="fill: none; stroke: #000000; stroke-linecap: round"/>
    <path d="M 423.165804 48.541079 
L 427.637922 48.528216 
L 424.964941 52.113628 
z
" clip-path="url(#pa801057d7d)" style="stroke: #000000; stroke-linecap: round"/>
   </g>
   <g id="patch_56">
    <path d="M 395.879253 64.521893 
Q 412.257866 56.273618 427.637922 48.528216 
" clip-path="url(#pa801057d7d)" style="fill: none; stroke: #000000; stroke-linecap: round"/>
    <path d="M 423.165804 48.541079 
L 427.637922 48.528216 
L 424.964941 52.113628 
z
" clip-path="url(#pa801057d7d)" style="stroke: #000000; stroke-linecap: round"/>
   </g>
   <g id="patch_57">
    <path d="M 395.879253 64.521893 
Q 412.257866 56.273618 427.637922 48.528216 
" clip-path="url(#pa801057d7d)" style="fill: none; stroke: #000000; stroke-linecap: round"/>
    <path d="M 423.165804 48.541079 
L 427.637922 48.528216 
L 424.964941 52.113628 
z
" clip-path="url(#pa801057d7d)" style="stroke: #000000; stroke-linecap: round"/>
   </g>
   <g id="patch_58">
    <path d="M 395.879253 64.521893 
Q 412.257866 56.273618 427.637922 48.528216 
" clip-path="url(#pa801057d7d)" style="fill: none; stroke: #000000; stroke-linecap: round"/>
    <path d="M 423.165804 48.541079 
L 427.637922 48.528216 
L 424.964941 52.113628 
z
" clip-path="url(#pa801057d7d)" style="stroke: #000000; stroke-linecap: round"/>
   </g>
   <g id="patch_59">
    <path d="M 395.879253 64.521893 
Q 412.257866 56.273618 427.637922 48.528216 
" clip-path="url(#pa801057d7d)" style="fill: none; stroke: #000000; stroke-linecap: round"/>
    <path d="M 423.165804 48.541079 
L 427.637922 48.528216 
L 424.964941 52.113628 
z
" clip-path="url(#pa801057d7d)" style="stroke: #000000; stroke-linecap: round"/>
   </g>
   <g id="patch_60">
    <path d="M 395.879253 64.521893 
Q 412.257866 56.273618 427.637922 48.528216 
" clip-path="url(#pa801057d7d)" style="fill: none; stroke: #000000; stroke-linecap: round"/>
    <path d="M 423.165804 48.541079 
L 427.637922 48.528216 
L 424.964941 52.113628 
z
" clip-path="url(#pa801057d7d)" style="stroke: #000000; stroke-linecap: round"/>
   </g>
   <g id="patch_61">
    <path d="M 395.879253 64.521893 
Q 412.257866 56.273618 427.637922 48.528216 
" clip-path="url(#pa801057d7d)" style="fill: none; stroke: #000000; stroke-linecap: round"/>
    <path d="M 423.165804 48.541079 
L 427.637922 48.528216 
L 424.964941 52.113628 
z
" clip-path="url(#pa801057d7d)" style="stroke: #000000; stroke-linecap: round"/>
   </g>
   <g id="patch_62">
    <path d="M 396.042565 65.803127 
Q 414.89895 69.896789 432.662751 73.753255 
" clip-path="url(#pa801057d7d)" style="fill: none; stroke: #000000; stroke-linecap: round"/>
    <path d="M 429.178117 70.950163 
L 432.662751 73.753255 
L 428.329497 74.859107 
z
" clip-path="url(#pa801057d7d)" style="stroke: #000000; stroke-linecap: round"/>
   </g>
   <g id="patch_63">
    <path d="M 396.042565 65.803127 
Q 414.89895 69.896789 432.662751 73.753255 
" clip-path="url(#pa801057d7d)" style="fill: none; stroke: #000000; stroke-linecap: round"/>
    <path d="M 429.178117 70.950163 
L 432.662751 73.753255 
L 428.329497 74.859107 
z
" clip-path="url(#pa801057d7d)" style="stroke: #000000; stroke-linecap: round"/>
   </g>
   <g id="patch_64">
    <path d="M 396.042565 65.803127 
Q 414.89895 69.896789 432.662751 73.753255 
" clip-path="url(#pa801057d7d)" style="fill: none; stroke: #000000; stroke-linecap: round"/>
    <path d="M 429.178117 70.950163 
L 432.662751 73.753255 
L 428.329497 74.859107 
z
" clip-path="url(#pa801057d7d)" style="stroke: #000000; stroke-linecap: round"/>
   </g>
   <g id="patch_65">
    <path d="M 396.042565 65.803127 
Q 414.89895 69.896789 432.662751 73.753255 
" clip-path="url(#pa801057d7d)" style="fill: none; stroke: #000000; stroke-linecap: round"/>
    <path d="M 429.178117 70.950163 
L 432.662751 73.753255 
L 428.329497 74.859107 
z
" clip-path="url(#pa801057d7d)" style="stroke: #000000; stroke-linecap: round"/>
   </g>
   <g id="patch_66">
    <path d="M 396.042565 65.803127 
Q 414.89895 69.896789 432.662751 73.753255 
" clip-path="url(#pa801057d7d)" style="fill: none; stroke: #000000; stroke-linecap: round"/>
    <path d="M 429.178117 70.950163 
L 432.662751 73.753255 
L 428.329497 74.859107 
z
" clip-path="url(#pa801057d7d)" style="stroke: #000000; stroke-linecap: round"/>
   </g>
   <g id="patch_67">
    <path d="M 396.042565 65.803127 
Q 414.89895 69.896789 432.662751 73.753255 
" clip-path="url(#pa801057d7d)" style="fill: none; stroke: #000000; stroke-linecap: round"/>
    <path d="M 429.178117 70.950163 
L 432.662751 73.753255 
L 428.329497 74.859107 
z
" clip-path="url(#pa801057d7d)" style="stroke: #000000; stroke-linecap: round"/>
   </g>
   <g id="patch_68">
    <path d="M 396.042565 65.803127 
Q 414.89895 69.896789 432.662751 73.753255 
" clip-path="url(#pa801057d7d)" style="fill: none; stroke: #000000; stroke-linecap: round"/>
    <path d="M 429.178117 70.950163 
L 432.662751 73.753255 
L 428.329497 74.859107 
z
" clip-path="url(#pa801057d7d)" style="stroke: #000000; stroke-linecap: round"/>
   </g>
   <g id="patch_69">
    <path d="M 396.042565 65.803127 
Q 414.89895 69.896789 432.662751 73.753255 
" clip-path="url(#pa801057d7d)" style="fill: none; stroke: #000000; stroke-linecap: round"/>
    <path d="M 429.178117 70.950163 
L 432.662751 73.753255 
L 428.329497 74.859107 
z
" clip-path="url(#pa801057d7d)" style="stroke: #000000; stroke-linecap: round"/>
   </g>
   <g id="patch_70">
    <path d="M 396.042565 65.803127 
Q 414.89895 69.896789 432.662751 73.753255 
" clip-path="url(#pa801057d7d)" style="fill: none; stroke: #000000; stroke-linecap: round"/>
    <path d="M 429.178117 70.950163 
L 432.662751 73.753255 
L 428.329497 74.859107 
z
" clip-path="url(#pa801057d7d)" style="stroke: #000000; stroke-linecap: round"/>
   </g>
   <g id="patch_71">
    <path d="M 396.042565 65.803127 
Q 414.89895 69.896789 432.662751 73.753255 
" clip-path="url(#pa801057d7d)" style="fill: none; stroke: #000000; stroke-linecap: round"/>
    <path d="M 429.178117 70.950163 
L 432.662751 73.753255 
L 428.329497 74.859107 
z
" clip-path="url(#pa801057d7d)" style="stroke: #000000; stroke-linecap: round"/>
   </g>
   <g id="patch_72">
    <path d="M 393.458139 63.587934 
Q 388.024209 49.429376 382.99088 36.314617 
" clip-path="url(#pa801057d7d)" style="fill: none; stroke: #000000; stroke-linecap: round"/>
    <path d="M 382.556909 40.765647 
L 382.99088 36.314617 
L 386.291321 39.332413 
z
" clip-path="url(#pa801057d7d)" style="stroke: #000000; stroke-linecap: round"/>
   </g>
   <g id="patch_73">
    <path d="M 393.458139 63.587934 
Q 388.024209 49.429376 382.99088 36.314617 
" clip-path="url(#pa801057d7d)" style="fill: none; stroke: #000000; stroke-linecap: round"/>
    <path d="M 382.556909 40.765647 
L 382.99088 36.314617 
L 386.291321 39.332413 
z
" clip-path="url(#pa801057d7d)" style="stroke: #000000; stroke-linecap: round"/>
   </g>
   <g id="patch_74">
    <path d="M 393.458139 63.587934 
Q 388.024209 49.429376 382.99088 36.314617 
" clip-path="url(#pa801057d7d)" style="fill: none; stroke: #000000; stroke-linecap: round"/>
    <path d="M 382.556909 40.765647 
L 382.99088 36.314617 
L 386.291321 39.332413 
z
" clip-path="url(#pa801057d7d)" style="stroke: #000000; stroke-linecap: round"/>
   </g>
   <g id="patch_75">
    <path d="M 393.458139 63.587934 
Q 388.024209 49.429376 382.99088 36.314617 
" clip-path="url(#pa801057d7d)" style="fill: none; stroke: #000000; stroke-linecap: round"/>
    <path d="M 382.556909 40.765647 
L 382.99088 36.314617 
L 386.291321 39.332413 
z
" clip-path="url(#pa801057d7d)" style="stroke: #000000; stroke-linecap: round"/>
   </g>
   <g id="patch_76">
    <path d="M 393.458139 63.587934 
Q 388.024209 49.429376 382.99088 36.314617 
" clip-path="url(#pa801057d7d)" style="fill: none; stroke: #000000; stroke-linecap: round"/>
    <path d="M 382.556909 40.765647 
L 382.99088 36.314617 
L 386.291321 39.332413 
z
" clip-path="url(#pa801057d7d)" style="stroke: #000000; stroke-linecap: round"/>
   </g>
   <g id="patch_77">
    <path d="M 393.458139 63.587934 
Q 388.024209 49.429376 382.99088 36.314617 
" clip-path="url(#pa801057d7d)" style="fill: none; stroke: #000000; stroke-linecap: round"/>
    <path d="M 382.556909 40.765647 
L 382.99088 36.314617 
L 386.291321 39.332413 
z
" clip-path="url(#pa801057d7d)" style="stroke: #000000; stroke-linecap: round"/>
   </g>
   <g id="patch_78">
    <path d="M 393.458139 63.587934 
Q 388.024209 49.429376 382.99088 36.314617 
" clip-path="url(#pa801057d7d)" style="fill: none; stroke: #000000; stroke-linecap: round"/>
    <path d="M 382.556909 40.765647 
L 382.99088 36.314617 
L 386.291321 39.332413 
z
" clip-path="url(#pa801057d7d)" style="stroke: #000000; stroke-linecap: round"/>
   </g>
   <g id="patch_79">
    <path d="M 393.458139 63.587934 
Q 388.024209 49.429376 382.99088 36.314617 
" clip-path="url(#pa801057d7d)" style="fill: none; stroke: #000000; stroke-linecap: round"/>
    <path d="M 382.556909 40.765647 
L 382.99088 36.314617 
L 386.291321 39.332413 
z
" clip-path="url(#pa801057d7d)" style="stroke: #000000; stroke-linecap: round"/>
   </g>
   <g id="patch_80">
    <path d="M 393.458139 63.587934 
Q 388.024209 49.429376 382.99088 36.314617 
" clip-path="url(#pa801057d7d)" style="fill: none; stroke: #000000; stroke-linecap: round"/>
    <path d="M 382.556909 40.765647 
L 382.99088 36.314617 
L 386.291321 39.332413 
z
" clip-path="url(#pa801057d7d)" style="stroke: #000000; stroke-linecap: round"/>
   </g>
   <g id="patch_81">
    <path d="M 393.458139 63.587934 
Q 388.024209 49.429376 382.99088 36.314617 
" clip-path="url(#pa801057d7d)" style="fill: none; stroke: #000000; stroke-linecap: round"/>
    <path d="M 382.556909 40.765647 
L 382.99088 36.314617 
L 386.291321 39.332413 
z
" clip-path="url(#pa801057d7d)" style="stroke: #000000; stroke-linecap: round"/>
   </g>
   <g id="patch_82">
    <path d="M 392.437042 64.488705 
Q 375.256536 55.428436 359.064973 46.889695 
" clip-path="url(#pa801057d7d)" style="fill: none; stroke: #000000; stroke-linecap: round"/>
    <path d="M 361.67019 50.524643 
L 359.064973 46.889695 
L 363.536062 46.98649 
z
" clip-path="url(#pa801057d7d)" style="stroke: #000000; stroke-linecap: round"/>
   </g>
   <g id="patch_83">
    <path d="M 392.437042 64.488705 
Q 375.256536 55.428436 359.064973 46.889695 
" clip-path="url(#pa801057d7d)" style="fill: none; stroke: #000000; stroke-linecap: round"/>
    <path d="M 361.67019 50.524643 
L 359.064973 46.889695 
L 363.536062 46.98649 
z
" clip-path="url(#pa801057d7d)" style="stroke: #000000; stroke-linecap: round"/>
   </g>
   <g id="patch_84">
    <path d="M 392.437042 64.488705 
Q 375.256536 55.428436 359.064973 46.889695 
" clip-path="url(#pa801057d7d)" style="fill: none; stroke: #000000; stroke-linecap: round"/>
    <path d="M 361.67019 50.524643 
L 359.064973 46.889695 
L 363.536062 46.98649 
z
" clip-path="url(#pa801057d7d)" style="stroke: #000000; stroke-linecap: round"/>
   </g>
   <g id="patch_85">
    <path d="M 392.437042 64.488705 
Q 375.256536 55.428436 359.064973 46.889695 
" clip-path="url(#pa801057d7d)" style="fill: none; stroke: #000000; stroke-linecap: round"/>
    <path d="M 361.67019 50.524643 
L 359.064973 46.889695 
L 363.536062 46.98649 
z
" clip-path="url(#pa801057d7d)" style="stroke: #000000; stroke-linecap: round"/>
   </g>
   <g id="patch_86">
    <path d="M 392.437042 64.488705 
Q 375.256536 55.428436 359.064973 46.889695 
" clip-path="url(#pa801057d7d)" style="fill: none; stroke: #000000; stroke-linecap: round"/>
    <path d="M 361.67019 50.524643 
L 359.064973 46.889695 
L 363.536062 46.98649 
z
" clip-path="url(#pa801057d7d)" style="stroke: #000000; stroke-linecap: round"/>
   </g>
   <g id="patch_87">
    <path d="M 392.437042 64.488705 
Q 375.256536 55.428436 359.064973 46.889695 
" clip-path="url(#pa801057d7d)" style="fill: none; stroke: #000000; stroke-linecap: round"/>
    <path d="M 361.67019 50.524643 
L 359.064973 46.889695 
L 363.536062 46.98649 
z
" clip-path="url(#pa801057d7d)" style="stroke: #000000; stroke-linecap: round"/>
   </g>
   <g id="patch_88">
    <path d="M 392.437042 64.488705 
Q 375.256536 55.428436 359.064973 46.889695 
" clip-path="url(#pa801057d7d)" style="fill: none; stroke: #000000; stroke-linecap: round"/>
    <path d="M 361.67019 50.524643 
L 359.064973 46.889695 
L 363.536062 46.98649 
z
" clip-path="url(#pa801057d7d)" style="stroke: #000000; stroke-linecap: round"/>
   </g>
   <g id="patch_89">
    <path d="M 392.437042 64.488705 
Q 375.256536 55.428436 359.064973 46.889695 
" clip-path="url(#pa801057d7d)" style="fill: none; stroke: #000000; stroke-linecap: round"/>
    <path d="M 361.67019 50.524643 
L 359.064973 46.889695 
L 363.536062 46.98649 
z
" clip-path="url(#pa801057d7d)" style="stroke: #000000; stroke-linecap: round"/>
   </g>
   <g id="patch_90">
    <path d="M 392.437042 64.488705 
Q 375.256536 55.428436 359.064973 46.889695 
" clip-path="url(#pa801057d7d)" style="fill: none; stroke: #000000; stroke-linecap: round"/>
    <path d="M 361.67019 50.524643 
L 359.064973 46.889695 
L 363.536062 46.98649 
z
" clip-path="url(#pa801057d7d)" style="stroke: #000000; stroke-linecap: round"/>
   </g>
   <g id="patch_91">
    <path d="M 392.437042 64.488705 
Q 375.256536 55.428436 359.064973 46.889695 
" clip-path="url(#pa801057d7d)" style="fill: none; stroke: #000000; stroke-linecap: round"/>
    <path d="M 361.67019 50.524643 
L 359.064973 46.889695 
L 363.536062 46.98649 
z
" clip-path="url(#pa801057d7d)" style="stroke: #000000; stroke-linecap: round"/>
   </g>
   <g id="patch_92">
    <path d="M 393.951292 67.318036 
Q 392.264538 83.608428 390.692933 98.786731 
" clip-path="url(#pa801057d7d)" style="fill: none; stroke: #000000; stroke-linecap: round"/>
    <path d="M 393.094267 95.013987 
L 390.692933 98.786731 
L 389.115538 94.602018 
z
" clip-path="url(#pa801057d7d)" style="stroke: #000000; stroke-linecap: round"/>
   </g>
   <g id="patch_93">
    <path d="M 393.951292 67.318036 
Q 392.264538 83.608428 390.692933 98.786731 
" clip-path="url(#pa801057d7d)" style="fill: none; stroke: #000000; stroke-linecap: round"/>
    <path d="M 393.094267 95.013987 
L 390.692933 98.786731 
L 389.115538 94.602018 
z
" clip-path="url(#pa801057d7d)" style="stroke: #000000; stroke-linecap: round"/>
   </g>
   <g id="patch_94">
    <path d="M 393.951292 67.318036 
Q 392.264538 83.608428 390.692933 98.786731 
" clip-path="url(#pa801057d7d)" style="fill: none; stroke: #000000; stroke-linecap: round"/>
    <path d="M 393.094267 95.013987 
L 390.692933 98.786731 
L 389.115538 94.602018 
z
" clip-path="url(#pa801057d7d)" style="stroke: #000000; stroke-linecap: round"/>
   </g>
   <g id="patch_95">
    <path d="M 393.951292 67.318036 
Q 392.264538 83.608428 390.692933 98.786731 
" clip-path="url(#pa801057d7d)" style="fill: none; stroke: #000000; stroke-linecap: round"/>
    <path d="M 393.094267 95.013987 
L 390.692933 98.786731 
L 389.115538 94.602018 
z
" clip-path="url(#pa801057d7d)" style="stroke: #000000; stroke-linecap: round"/>
   </g>
   <g id="patch_96">
    <path d="M 393.951292 67.318036 
Q 392.264538 83.608428 390.692933 98.786731 
" clip-path="url(#pa801057d7d)" style="fill: none; stroke: #000000; stroke-linecap: round"/>
    <path d="M 393.094267 95.013987 
L 390.692933 98.786731 
L 389.115538 94.602018 
z
" clip-path="url(#pa801057d7d)" style="stroke: #000000; stroke-linecap: round"/>
   </g>
   <g id="patch_97">
    <path d="M 393.951292 67.318036 
Q 392.264538 83.608428 390.692933 98.786731 
" clip-path="url(#pa801057d7d)" style="fill: none; stroke: #000000; stroke-linecap: round"/>
    <path d="M 393.094267 95.013987 
L 390.692933 98.786731 
L 389.115538 94.602018 
z
" clip-path="url(#pa801057d7d)" style="stroke: #000000; stroke-linecap: round"/>
   </g>
   <g id="patch_98">
    <path d="M 393.951292 67.318036 
Q 392.264538 83.608428 390.692933 98.786731 
" clip-path="url(#pa801057d7d)" style="fill: none; stroke: #000000; stroke-linecap: round"/>
    <path d="M 393.094267 95.013987 
L 390.692933 98.786731 
L 389.115538 94.602018 
z
" clip-path="url(#pa801057d7d)" style="stroke: #000000; stroke-linecap: round"/>
   </g>
   <g id="patch_99">
    <path d="M 393.951292 67.318036 
Q 392.264538 83.608428 390.692933 98.786731 
" clip-path="url(#pa801057d7d)" style="fill: none; stroke: #000000; stroke-linecap: round"/>
    <path d="M 393.094267 95.013987 
L 390.692933 98.786731 
L 389.115538 94.602018 
z
" clip-path="url(#pa801057d7d)" style="stroke: #000000; stroke-linecap: round"/>
   </g>
   <g id="patch_100">
    <path d="M 393.951292 67.318036 
Q 392.264538 83.608428 390.692933 98.786731 
" clip-path="url(#pa801057d7d)" style="fill: none; stroke: #000000; stroke-linecap: round"/>
    <path d="M 393.094267 95.013987 
L 390.692933 98.786731 
L 389.115538 94.602018 
z
" clip-path="url(#pa801057d7d)" style="stroke: #000000; stroke-linecap: round"/>
   </g>
   <g id="patch_101">
    <path d="M 393.951292 67.318036 
Q 392.264538 83.608428 390.692933 98.786731 
" clip-path="url(#pa801057d7d)" style="fill: none; stroke: #000000; stroke-linecap: round"/>
    <path d="M 393.094267 95.013987 
L 390.692933 98.786731 
L 389.115538 94.602018 
z
" clip-path="url(#pa801057d7d)" style="stroke: #000000; stroke-linecap: round"/>
   </g>
   <g id="patch_102">
    <path d="M 382.589906 35.269845 
Q 388.023836 49.428404 393.057164 62.543162 
" clip-path="url(#pa801057d7d)" style="fill: none; stroke: #000000; stroke-linecap: round"/>
    <path d="M 393.491136 58.092132 
L 393.057164 62.543162 
L 389.756723 59.525367 
z
" clip-path="url(#pa801057d7d)" style="stroke: #000000; stroke-linecap: round"/>
   </g>
   <g id="patch_103">
    <path d="M 382.589906 35.269845 
Q 388.023836 49.428404 393.057164 62.543162 
" clip-path="url(#pa801057d7d)" style="fill: none; stroke: #000000; stroke-linecap: round"/>
    <path d="M 393.491136 58.092132 
L 393.057164 62.543162 
L 389.756723 59.525367 
z
" clip-path="url(#pa801057d7d)" style="stroke: #000000; stroke-linecap: round"/>
   </g>
   <g id="patch_104">
    <path d="M 382.589906 35.269845 
Q 388.023836 49.428404 393.057164 62.543162 
" clip-path="url(#pa801057d7d)" style="fill: none; stroke: #000000; stroke-linecap: round"/>
    <path d="M 393.491136 58.092132 
L 393.057164 62.543162 
L 389.756723 59.525367 
z
" clip-path="url(#pa801057d7d)" style="stroke: #000000; stroke-linecap: round"/>
   </g>
   <g id="patch_105">
    <path d="M 382.589906 35.269845 
Q 388.023836 49.428404 393.057164 62.543162 
" clip-path="url(#pa801057d7d)" style="fill: none; stroke: #000000; stroke-linecap: round"/>
    <path d="M 393.491136 58.092132 
L 393.057164 62.543162 
L 389.756723 59.525367 
z
" clip-path="url(#pa801057d7d)" style="stroke: #000000; stroke-linecap: round"/>
   </g>
   <g id="patch_106">
    <path d="M 382.589906 35.269845 
Q 388.023836 49.428404 393.057164 62.543162 
" clip-path="url(#pa801057d7d)" style="fill: none; stroke: #000000; stroke-linecap: round"/>
    <path d="M 393.491136 58.092132 
L 393.057164 62.543162 
L 389.756723 59.525367 
z
" clip-path="url(#pa801057d7d)" style="stroke: #000000; stroke-linecap: round"/>
   </g>
   <g id="patch_107">
    <path d="M 382.589906 35.269845 
Q 388.023836 49.428404 393.057164 62.543162 
" clip-path="url(#pa801057d7d)" style="fill: none; stroke: #000000; stroke-linecap: round"/>
    <path d="M 393.491136 58.092132 
L 393.057164 62.543162 
L 389.756723 59.525367 
z
" clip-path="url(#pa801057d7d)" style="stroke: #000000; stroke-linecap: round"/>
   </g>
   <g id="patch_108">
    <path d="M 382.589906 35.269845 
Q 388.023836 49.428404 393.057164 62.543162 
" clip-path="url(#pa801057d7d)" style="fill: none; stroke: #000000; stroke-linecap: round"/>
    <path d="M 393.491136 58.092132 
L 393.057164 62.543162 
L 389.756723 59.525367 
z
" clip-path="url(#pa801057d7d)" style="stroke: #000000; stroke-linecap: round"/>
   </g>
   <g id="patch_109">
    <path d="M 382.589906 35.269845 
Q 388.023836 49.428404 393.057164 62.543162 
" clip-path="url(#pa801057d7d)" style="fill: none; stroke: #000000; stroke-linecap: round"/>
    <path d="M 393.491136 58.092132 
L 393.057164 62.543162 
L 389.756723 59.525367 
z
" clip-path="url(#pa801057d7d)" style="stroke: #000000; stroke-linecap: round"/>
   </g>
   <g id="patch_110">
    <path d="M 382.589906 35.269845 
Q 388.023836 49.428404 393.057164 62.543162 
" clip-path="url(#pa801057d7d)" style="fill: none; stroke: #000000; stroke-linecap: round"/>
    <path d="M 393.491136 58.092132 
L 393.057164 62.543162 
L 389.756723 59.525367 
z
" clip-path="url(#pa801057d7d)" style="stroke: #000000; stroke-linecap: round"/>
   </g>
   <g id="patch_111">
    <path d="M 382.589906 35.269845 
Q 388.023836 49.428404 393.057164 62.543162 
" clip-path="url(#pa801057d7d)" style="fill: none; stroke: #000000; stroke-linecap: round"/>
    <path d="M 393.491136 58.092132 
L 393.057164 62.543162 
L 389.756723 59.525367 
z
" clip-path="url(#pa801057d7d)" style="stroke: #000000; stroke-linecap: round"/>
   </g>
   <g id="patch_112">
    <path d="M 380.103132 32.744613 
Q 366.684703 27.354287 354.303729 22.380718 
" clip-path="url(#pa801057d7d)" style="fill: none; stroke: #000000; stroke-linecap: round"/>
    <path d="M 357.269925 25.727609 
L 354.303729 22.380718 
L 358.760959 22.015896 
z
" clip-path="url(#pa801057d7d)" style="stroke: #000000; stroke-linecap: round"/>
   </g>
   <g id="patch_113">
    <path d="M 380.103132 32.744613 
Q 366.684703 27.354287 354.303729 22.380718 
" clip-path="url(#pa801057d7d)" style="fill: none; stroke: #000000; stroke-linecap: round"/>
    <path d="M 357.269925 25.727609 
L 354.303729 22.380718 
L 358.760959 22.015896 
z
" clip-path="url(#pa801057d7d)" style="stroke: #000000; stroke-linecap: round"/>
   </g>
   <g id="patch_114">
    <path d="M 380.103132 32.744613 
Q 366.684703 27.354287 354.303729 22.380718 
" clip-path="url(#pa801057d7d)" style="fill: none; stroke: #000000; stroke-linecap: round"/>
    <path d="M 357.269925 25.727609 
L 354.303729 22.380718 
L 358.760959 22.015896 
z
" clip-path="url(#pa801057d7d)" style="stroke: #000000; stroke-linecap: round"/>
   </g>
   <g id="patch_115">
    <path d="M 380.103132 32.744613 
Q 366.684703 27.354287 354.303729 22.380718 
" clip-path="url(#pa801057d7d)" style="fill: none; stroke: #000000; stroke-linecap: round"/>
    <path d="M 357.269925 25.727609 
L 354.303729 22.380718 
L 358.760959 22.015896 
z
" clip-path="url(#pa801057d7d)" style="stroke: #000000; stroke-linecap: round"/>
   </g>
   <g id="patch_116">
    <path d="M 380.103132 32.744613 
Q 366.684703 27.354287 354.303729 22.380718 
" clip-path="url(#pa801057d7d)" style="fill: none; stroke: #000000; stroke-linecap: round"/>
    <path d="M 357.269925 25.727609 
L 354.303729 22.380718 
L 358.760959 22.015896 
z
" clip-path="url(#pa801057d7d)" style="stroke: #000000; stroke-linecap: round"/>
   </g>
   <g id="patch_117">
    <path d="M 380.103132 32.744613 
Q 366.684703 27.354287 354.303729 22.380718 
" clip-path="url(#pa801057d7d)" style="fill: none; stroke: #000000; stroke-linecap: round"/>
    <path d="M 357.269925 25.727609 
L 354.303729 22.380718 
L 358.760959 22.015896 
z
" clip-path="url(#pa801057d7d)" style="stroke: #000000; stroke-linecap: round"/>
   </g>
   <g id="patch_118">
    <path d="M 380.103132 32.744613 
Q 366.684703 27.354287 354.303729 22.380718 
" clip-path="url(#pa801057d7d)" style="fill: none; stroke: #000000; stroke-linecap: round"/>
    <path d="M 357.269925 25.727609 
L 354.303729 22.380718 
L 358.760959 22.015896 
z
" clip-path="url(#pa801057d7d)" style="stroke: #000000; stroke-linecap: round"/>
   </g>
   <g id="patch_119">
    <path d="M 380.103132 32.744613 
Q 366.684703 27.354287 354.303729 22.380718 
" clip-path="url(#pa801057d7d)" style="fill: none; stroke: #000000; stroke-linecap: round"/>
    <path d="M 357.269925 25.727609 
L 354.303729 22.380718 
L 358.760959 22.015896 
z
" clip-path="url(#pa801057d7d)" style="stroke: #000000; stroke-linecap: round"/>
   </g>
   <g id="patch_120">
    <path d="M 380.103132 32.744613 
Q 366.684703 27.354287 354.303729 22.380718 
" clip-path="url(#pa801057d7d)" style="fill: none; stroke: #000000; stroke-linecap: round"/>
    <path d="M 357.269925 25.727609 
L 354.303729 22.380718 
L 358.760959 22.015896 
z
" clip-path="url(#pa801057d7d)" style="stroke: #000000; stroke-linecap: round"/>
   </g>
   <g id="patch_121">
    <path d="M 380.103132 32.744613 
Q 366.684703 27.354287 354.303729 22.380718 
" clip-path="url(#pa801057d7d)" style="fill: none; stroke: #000000; stroke-linecap: round"/>
    <path d="M 357.269925 25.727609 
L 354.303729 22.380718 
L 358.760959 22.015896 
z
" clip-path="url(#pa801057d7d)" style="stroke: #000000; stroke-linecap: round"/>
   </g>
   <g id="patch_122">
    <path d="M 353.260197 21.96152 
Q 366.678627 27.351846 379.059601 32.325415 
" clip-path="url(#pa801057d7d)" style="fill: none; stroke: #000000; stroke-linecap: round"/>
    <path d="M 376.093405 28.978524 
L 379.059601 32.325415 
L 374.60237 32.690237 
z
" clip-path="url(#pa801057d7d)" style="stroke: #000000; stroke-linecap: round"/>
   </g>
   <g id="patch_123">
    <path d="M 353.260197 21.96152 
Q 366.678627 27.351846 379.059601 32.325415 
" clip-path="url(#pa801057d7d)" style="fill: none; stroke: #000000; stroke-linecap: round"/>
    <path d="M 376.093405 28.978524 
L 379.059601 32.325415 
L 374.60237 32.690237 
z
" clip-path="url(#pa801057d7d)" style="stroke: #000000; stroke-linecap: round"/>
   </g>
   <g id="patch_124">
    <path d="M 353.260197 21.96152 
Q 366.678627 27.351846 379.059601 32.325415 
" clip-path="url(#pa801057d7d)" style="fill: none; stroke: #000000; stroke-linecap: round"/>
    <path d="M 376.093405 28.978524 
L 379.059601 32.325415 
L 374.60237 32.690237 
z
" clip-path="url(#pa801057d7d)" style="stroke: #000000; stroke-linecap: round"/>
   </g>
   <g id="patch_125">
    <path d="M 353.260197 21.96152 
Q 366.678627 27.351846 379.059601 32.325415 
" clip-path="url(#pa801057d7d)" style="fill: none; stroke: #000000; stroke-linecap: round"/>
    <path d="M 376.093405 28.978524 
L 379.059601 32.325415 
L 374.60237 32.690237 
z
" clip-path="url(#pa801057d7d)" style="stroke: #000000; stroke-linecap: round"/>
   </g>
   <g id="patch_126">
    <path d="M 353.260197 21.96152 
Q 366.678627 27.351846 379.059601 32.325415 
" clip-path="url(#pa801057d7d)" style="fill: none; stroke: #000000; stroke-linecap: round"/>
    <path d="M 376.093405 28.978524 
L 379.059601 32.325415 
L 374.60237 32.690237 
z
" clip-path="url(#pa801057d7d)" style="stroke: #000000; stroke-linecap: round"/>
   </g>
   <g id="patch_127">
    <path d="M 353.260197 21.96152 
Q 366.678627 27.351846 379.059601 32.325415 
" clip-path="url(#pa801057d7d)" style="fill: none; stroke: #000000; stroke-linecap: round"/>
    <path d="M 376.093405 28.978524 
L 379.059601 32.325415 
L 374.60237 32.690237 
z
" clip-path="url(#pa801057d7d)" style="stroke: #000000; stroke-linecap: round"/>
   </g>
   <g id="patch_128">
    <path d="M 353.260197 21.96152 
Q 366.678627 27.351846 379.059601 32.325415 
" clip-path="url(#pa801057d7d)" style="fill: none; stroke: #000000; stroke-linecap: round"/>
    <path d="M 376.093405 28.978524 
L 379.059601 32.325415 
L 374.60237 32.690237 
z
" clip-path="url(#pa801057d7d)" style="stroke: #000000; stroke-linecap: round"/>
   </g>
   <g id="patch_129">
    <path d="M 353.260197 21.96152 
Q 366.678627 27.351846 379.059601 32.325415 
" clip-path="url(#pa801057d7d)" style="fill: none; stroke: #000000; stroke-linecap: round"/>
    <path d="M 376.093405 28.978524 
L 379.059601 32.325415 
L 374.60237 32.690237 
z
" clip-path="url(#pa801057d7d)" style="stroke: #000000; stroke-linecap: round"/>
   </g>
   <g id="patch_130">
    <path d="M 353.260197 21.96152 
Q 366.678627 27.351846 379.059601 32.325415 
" clip-path="url(#pa801057d7d)" style="fill: none; stroke: #000000; stroke-linecap: round"/>
    <path d="M 376.093405 28.978524 
L 379.059601 32.325415 
L 374.60237 32.690237 
z
" clip-path="url(#pa801057d7d)" style="stroke: #000000; stroke-linecap: round"/>
   </g>
   <g id="patch_131">
    <path d="M 353.260197 21.96152 
Q 366.678627 27.351846 379.059601 32.325415 
" clip-path="url(#pa801057d7d)" style="fill: none; stroke: #000000; stroke-linecap: round"/>
    <path d="M 376.093405 28.978524 
L 379.059601 32.325415 
L 374.60237 32.690237 
z
" clip-path="url(#pa801057d7d)" style="stroke: #000000; stroke-linecap: round"/>
   </g>
   <g id="patch_132">
    <path d="M 351.849145 23.136218 
Q 353.914066 33.350623 355.757449 42.469162 
" clip-path="url(#pa801057d7d)" style="fill: none; stroke: #000000; stroke-linecap: round"/>
    <path d="M 356.925196 38.152176 
L 355.757449 42.469162 
L 353.004508 38.944774 
z
" clip-path="url(#pa801057d7d)" style="stroke: #000000; stroke-linecap: round"/>
   </g>
   <g id="patch_133">
    <path d="M 351.849145 23.136218 
Q 353.914066 33.350623 355.757449 42.469162 
" clip-path="url(#pa801057d7d)" style="fill: none; stroke: #000000; stroke-linecap: round"/>
    <path d="M 356.925196 38.152176 
L 355.757449 42.469162 
L 353.004508 38.944774 
z
" clip-path="url(#pa801057d7d)" style="stroke: #000000; stroke-linecap: round"/>
   </g>
   <g id="patch_134">
    <path d="M 351.849145 23.136218 
Q 353.914066 33.350623 355.757449 42.469162 
" clip-path="url(#pa801057d7d)" style="fill: none; stroke: #000000; stroke-linecap: round"/>
    <path d="M 356.925196 38.152176 
L 355.757449 42.469162 
L 353.004508 38.944774 
z
" clip-path="url(#pa801057d7d)" style="stroke: #000000; stroke-linecap: round"/>
   </g>
   <g id="patch_135">
    <path d="M 351.849145 23.136218 
Q 353.914066 33.350623 355.757449 42.469162 
" clip-path="url(#pa801057d7d)" style="fill: none; stroke: #000000; stroke-linecap: round"/>
    <path d="M 356.925196 38.152176 
L 355.757449 42.469162 
L 353.004508 38.944774 
z
" clip-path="url(#pa801057d7d)" style="stroke: #000000; stroke-linecap: round"/>
   </g>
   <g id="patch_136">
    <path d="M 351.849145 23.136218 
Q 353.914066 33.350623 355.757449 42.469162 
" clip-path="url(#pa801057d7d)" style="fill: none; stroke: #000000; stroke-linecap: round"/>
    <path d="M 356.925196 38.152176 
L 355.757449 42.469162 
L 353.004508 38.944774 
z
" clip-path="url(#pa801057d7d)" style="stroke: #000000; stroke-linecap: round"/>
   </g>
   <g id="patch_137">
    <path d="M 351.849145 23.136218 
Q 353.914066 33.350623 355.757449 42.469162 
" clip-path="url(#pa801057d7d)" style="fill: none; stroke: #000000; stroke-linecap: round"/>
    <path d="M 356.925196 38.152176 
L 355.757449 42.469162 
L 353.004508 38.944774 
z
" clip-path="url(#pa801057d7d)" style="stroke: #000000; stroke-linecap: round"/>
   </g>
   <g id="patch_138">
    <path d="M 351.849145 23.136218 
Q 353.914066 33.350623 355.757449 42.469162 
" clip-path="url(#pa801057d7d)" style="fill: none; stroke: #000000; stroke-linecap: round"/>
    <path d="M 356.925196 38.152176 
L 355.757449 42.469162 
L 353.004508 38.944774 
z
" clip-path="url(#pa801057d7d)" style="stroke: #000000; stroke-linecap: round"/>
   </g>
   <g id="patch_139">
    <path d="M 351.849145 23.136218 
Q 353.914066 33.350623 355.757449 42.469162 
" clip-path="url(#pa801057d7d)" style="fill: none; stroke: #000000; stroke-linecap: round"/>
    <path d="M 356.925196 38.152176 
L 355.757449 42.469162 
L 353.004508 38.944774 
z
" clip-path="url(#pa801057d7d)" style="stroke: #000000; stroke-linecap: round"/>
   </g>
   <g id="patch_140">
    <path d="M 351.849145 23.136218 
Q 353.914066 33.350623 355.757449 42.469162 
" clip-path="url(#pa801057d7d)" style="fill: none; stroke: #000000; stroke-linecap: round"/>
    <path d="M 356.925196 38.152176 
L 355.757449 42.469162 
L 353.004508 38.944774 
z
" clip-path="url(#pa801057d7d)" style="stroke: #000000; stroke-linecap: round"/>
   </g>
   <g id="patch_141">
    <path d="M 351.849145 23.136218 
Q 353.914066 33.350623 355.757449 42.469162 
" clip-path="url(#pa801057d7d)" style="fill: none; stroke: #000000; stroke-linecap: round"/>
    <path d="M 356.925196 38.152176 
L 355.757449 42.469162 
L 353.004508 38.944774 
z
" clip-path="url(#pa801057d7d)" style="stroke: #000000; stroke-linecap: round"/>
   </g>
   <g id="patch_142">
    <path d="M 358.076679 46.368511 
Q 375.257185 55.428779 391.448748 63.967521 
" clip-path="url(#pa801057d7d)" style="fill: none; stroke: #000000; stroke-linecap: round"/>
    <path d="M 388.843531 60.332573 
L 391.448748 63.967521 
L 386.977659 63.870726 
z
" clip-path="url(#pa801057d7d)" style="stroke: #000000; stroke-linecap: round"/>
   </g>
   <g id="patch_143">
    <path d="M 358.076679 46.368511 
Q 375.257185 55.428779 391.448748 63.967521 
" clip-path="url(#pa801057d7d)" style="fill: none; stroke: #000000; stroke-linecap: round"/>
    <path d="M 388.843531 60.332573 
L 391.448748 63.967521 
L 386.977659 63.870726 
z
" clip-path="url(#pa801057d7d)" style="stroke: #000000; stroke-linecap: round"/>
   </g>
   <g id="patch_144">
    <path d="M 358.076679 46.368511 
Q 375.257185 55.428779 391.448748 63.967521 
" clip-path="url(#pa801057d7d)" style="fill: none; stroke: #000000; stroke-linecap: round"/>
    <path d="M 388.843531 60.332573 
L 391.448748 63.967521 
L 386.977659 63.870726 
z
" clip-path="url(#pa801057d7d)" style="stroke: #000000; stroke-linecap: round"/>
   </g>
   <g id="patch_145">
    <path d="M 358.076679 46.368511 
Q 375.257185 55.428779 391.448748 63.967521 
" clip-path="url(#pa801057d7d)" style="fill: none; stroke: #000000; stroke-linecap: round"/>
    <path d="M 388.843531 60.332573 
L 391.448748 63.967521 
L 386.977659 63.870726 
z
" clip-path="url(#pa801057d7d)" style="stroke: #000000; stroke-linecap: round"/>
   </g>
   <g id="patch_146">
    <path d="M 358.076679 46.368511 
Q 375.257185 55.428779 391.448748 63.967521 
" clip-path="url(#pa801057d7d)" style="fill: none; stroke: #000000; stroke-linecap: round"/>
    <path d="M 388.843531 60.332573 
L 391.448748 63.967521 
L 386.977659 63.870726 
z
" clip-path="url(#pa801057d7d)" style="stroke: #000000; stroke-linecap: round"/>
   </g>
   <g id="patch_147">
    <path d="M 358.076679 46.368511 
Q 375.257185 55.428779 391.448748 63.967521 
" clip-path="url(#pa801057d7d)" style="fill: none; stroke: #000000; stroke-linecap: round"/>
    <path d="M 388.843531 60.332573 
L 391.448748 63.967521 
L 386.977659 63.870726 
z
" clip-path="url(#pa801057d7d)" style="stroke: #000000; stroke-linecap: round"/>
   </g>
   <g id="patch_148">
    <path d="M 358.076679 46.368511 
Q 375.257185 55.428779 391.448748 63.967521 
" clip-path="url(#pa801057d7d)" style="fill: none; stroke: #000000; stroke-linecap: round"/>
    <path d="M 388.843531 60.332573 
L 391.448748 63.967521 
L 386.977659 63.870726 
z
" clip-path="url(#pa801057d7d)" style="stroke: #000000; stroke-linecap: round"/>
   </g>
   <g id="patch_149">
    <path d="M 358.076679 46.368511 
Q 375.257185 55.428779 391.448748 63.967521 
" clip-path="url(#pa801057d7d)" style="fill: none; stroke: #000000; stroke-linecap: round"/>
    <path d="M 388.843531 60.332573 
L 391.448748 63.967521 
L 386.977659 63.870726 
z
" clip-path="url(#pa801057d7d)" style="stroke: #000000; stroke-linecap: round"/>
   </g>
   <g id="patch_150">
    <path d="M 358.076679 46.368511 
Q 375.257185 55.428779 391.448748 63.967521 
" clip-path="url(#pa801057d7d)" style="fill: none; stroke: #000000; stroke-linecap: round"/>
    <path d="M 388.843531 60.332573 
L 391.448748 63.967521 
L 386.977659 63.870726 
z
" clip-path="url(#pa801057d7d)" style="stroke: #000000; stroke-linecap: round"/>
   </g>
   <g id="patch_151">
    <path d="M 358.076679 46.368511 
Q 375.257185 55.428779 391.448748 63.967521 
" clip-path="url(#pa801057d7d)" style="fill: none; stroke: #000000; stroke-linecap: round"/>
    <path d="M 388.843531 60.332573 
L 391.448748 63.967521 
L 386.977659 63.870726 
z
" clip-path="url(#pa801057d7d)" style="stroke: #000000; stroke-linecap: round"/>
   </g>
   <g id="patch_152">
    <path d="M 355.979861 43.56935 
Q 353.91494 33.354946 352.071557 24.236406 
" clip-path="url(#pa801057d7d)" style="fill: none; stroke: #000000; stroke-linecap: round"/>
    <path d="M 350.90381 28.553392 
L 352.071557 24.236406 
L 354.824498 27.760795 
z
" clip-path="url(#pa801057d7d)" style="stroke: #000000; stroke-linecap: round"/>
   </g>
   <g id="patch_153">
    <path d="M 355.979861 43.56935 
Q 353.91494 33.354946 352.071557 24.236406 
" clip-path="url(#pa801057d7d)" style="fill: none; stroke: #000000; stroke-linecap: round"/>
    <path d="M 350.90381 28.553392 
L 352.071557 24.236406 
L 354.824498 27.760795 
z
" clip-path="url(#pa801057d7d)" style="stroke: #000000; stroke-linecap: round"/>
   </g>
   <g id="patch_154">
    <path d="M 355.979861 43.56935 
Q 353.91494 33.354946 352.071557 24.236406 
" clip-path="url(#pa801057d7d)" style="fill: none; stroke: #000000; stroke-linecap: round"/>
    <path d="M 350.90381 28.553392 
L 352.071557 24.236406 
L 354.824498 27.760795 
z
" clip-path="url(#pa801057d7d)" style="stroke: #000000; stroke-linecap: round"/>
   </g>
   <g id="patch_155">
    <path d="M 355.979861 43.56935 
Q 353.91494 33.354946 352.071557 24.236406 
" clip-path="url(#pa801057d7d)" style="fill: none; stroke: #000000; stroke-linecap: round"/>
    <path d="M 350.90381 28.553392 
L 352.071557 24.236406 
L 354.824498 27.760795 
z
" clip-path="url(#pa801057d7d)" style="stroke: #000000; stroke-linecap: round"/>
   </g>
   <g id="patch_156">
    <path d="M 355.979861 43.56935 
Q 353.91494 33.354946 352.071557 24.236406 
" clip-path="url(#pa801057d7d)" style="fill: none; stroke: #000000; stroke-linecap: round"/>
    <path d="M 350.90381 28.553392 
L 352.071557 24.236406 
L 354.824498 27.760795 
z
" clip-path="url(#pa801057d7d)" style="stroke: #000000; stroke-linecap: round"/>
   </g>
   <g id="patch_157">
    <path d="M 355.979861 43.56935 
Q 353.91494 33.354946 352.071557 24.236406 
" clip-path="url(#pa801057d7d)" style="fill: none; stroke: #000000; stroke-linecap: round"/>
    <path d="M 350.90381 28.553392 
L 352.071557 24.236406 
L 354.824498 27.760795 
z
" clip-path="url(#pa801057d7d)" style="stroke: #000000; stroke-linecap: round"/>
   </g>
   <g id="patch_158">
    <path d="M 355.979861 43.56935 
Q 353.91494 33.354946 352.071557 24.236406 
" clip-path="url(#pa801057d7d)" style="fill: none; stroke: #000000; stroke-linecap: round"/>
    <path d="M 350.90381 28.553392 
L 352.071557 24.236406 
L 354.824498 27.760795 
z
" clip-path="url(#pa801057d7d)" style="stroke: #000000; stroke-linecap: round"/>
   </g>
   <g id="patch_159">
    <path d="M 355.979861 43.56935 
Q 353.91494 33.354946 352.071557 24.236406 
" clip-path="url(#pa801057d7d)" style="fill: none; stroke: #000000; stroke-linecap: round"/>
    <path d="M 350.90381 28.553392 
L 352.071557 24.236406 
L 354.824498 27.760795 
z
" clip-path="url(#pa801057d7d)" style="stroke: #000000; stroke-linecap: round"/>
   </g>
   <g id="patch_160">
    <path d="M 355.979861 43.56935 
Q 353.91494 33.354946 352.071557 24.236406 
" clip-path="url(#pa801057d7d)" style="fill: none; stroke: #000000; stroke-linecap: round"/>
    <path d="M 350.90381 28.553392 
L 352.071557 24.236406 
L 354.824498 27.760795 
z
" clip-path="url(#pa801057d7d)" style="stroke: #000000; stroke-linecap: round"/>
   </g>
   <g id="patch_161">
    <path d="M 355.979861 43.56935 
Q 353.91494 33.354946 352.071557 24.236406 
" clip-path="url(#pa801057d7d)" style="fill: none; stroke: #000000; stroke-linecap: round"/>
    <path d="M 350.90381 28.553392 
L 352.071557 24.236406 
L 354.824498 27.760795 
z
" clip-path="url(#pa801057d7d)" style="stroke: #000000; stroke-linecap: round"/>
   </g>
   <g id="patch_162">
    <path d="M 388.858508 100.619373 
Q 381.289248 94.621641 374.596273 89.318261 
" clip-path="url(#pa801057d7d)" style="fill: none; stroke: #000000; stroke-linecap: round"/>
    <path d="M 376.489274 93.369994 
L 374.596273 89.318261 
L 378.973461 90.2349 
z
" clip-path="url(#pa801057d7d)" style="stroke: #000000; stroke-linecap: round"/>
   </g>
   <g id="patch_163">
    <path d="M 388.858508 100.619373 
Q 381.289248 94.621641 374.596273 89.318261 
" clip-path="url(#pa801057d7d)" style="fill: none; stroke: #000000; stroke-linecap: round"/>
    <path d="M 376.489274 93.369994 
L 374.596273 89.318261 
L 378.973461 90.2349 
z
" clip-path="url(#pa801057d7d)" style="stroke: #000000; stroke-linecap: round"/>
   </g>
   <g id="patch_164">
    <path d="M 388.858508 100.619373 
Q 381.289248 94.621641 374.596273 89.318261 
" clip-path="url(#pa801057d7d)" style="fill: none; stroke: #000000; stroke-linecap: round"/>
    <path d="M 376.489274 93.369994 
L 374.596273 89.318261 
L 378.973461 90.2349 
z
" clip-path="url(#pa801057d7d)" style="stroke: #000000; stroke-linecap: round"/>
   </g>
   <g id="patch_165">
    <path d="M 388.858508 100.619373 
Q 381.289248 94.621641 374.596273 89.318261 
" clip-path="url(#pa801057d7d)" style="fill: none; stroke: #000000; stroke-linecap: round"/>
    <path d="M 376.489274 93.369994 
L 374.596273 89.318261 
L 378.973461 90.2349 
z
" clip-path="url(#pa801057d7d)" style="stroke: #000000; stroke-linecap: round"/>
   </g>
   <g id="patch_166">
    <path d="M 388.858508 100.619373 
Q 381.289248 94.621641 374.596273 89.318261 
" clip-path="url(#pa801057d7d)" style="fill: none; stroke: #000000; stroke-linecap: round"/>
    <path d="M 376.489274 93.369994 
L 374.596273 89.318261 
L 378.973461 90.2349 
z
" clip-path="url(#pa801057d7d)" style="stroke: #000000; stroke-linecap: round"/>
   </g>
   <g id="patch_167">
    <path d="M 388.858508 100.619373 
Q 381.289248 94.621641 374.596273 89.318261 
" clip-path="url(#pa801057d7d)" style="fill: none; stroke: #000000; stroke-linecap: round"/>
    <path d="M 376.489274 93.369994 
L 374.596273 89.318261 
L 378.973461 90.2349 
z
" clip-path="url(#pa801057d7d)" style="stroke: #000000; stroke-linecap: round"/>
   </g>
   <g id="patch_168">
    <path d="M 388.858508 100.619373 
Q 381.289248 94.621641 374.596273 89.318261 
" clip-path="url(#pa801057d7d)" style="fill: none; stroke: #000000; stroke-linecap: round"/>
    <path d="M 376.489274 93.369994 
L 374.596273 89.318261 
L 378.973461 90.2349 
z
" clip-path="url(#pa801057d7d)" style="stroke: #000000; stroke-linecap: round"/>
   </g>
   <g id="patch_169">
    <path d="M 388.858508 100.619373 
Q 381.289248 94.621641 374.596273 89.318261 
" clip-path="url(#pa801057d7d)" style="fill: none; stroke: #000000; stroke-linecap: round"/>
    <path d="M 376.489274 93.369994 
L 374.596273 89.318261 
L 378.973461 90.2349 
z
" clip-path="url(#pa801057d7d)" style="stroke: #000000; stroke-linecap: round"/>
   </g>
   <g id="patch_170">
    <path d="M 388.858508 100.619373 
Q 381.289248 94.621641 374.596273 89.318261 
" clip-path="url(#pa801057d7d)" style="fill: none; stroke: #000000; stroke-linecap: round"/>
    <path d="M 376.489274 93.369994 
L 374.596273 89.318261 
L 378.973461 90.2349 
z
" clip-path="url(#pa801057d7d)" style="stroke: #000000; stroke-linecap: round"/>
   </g>
   <g id="patch_171">
    <path d="M 388.858508 100.619373 
Q 381.289248 94.621641 374.596273 89.318261 
" clip-path="url(#pa801057d7d)" style="fill: none; stroke: #000000; stroke-linecap: round"/>
    <path d="M 376.489274 93.369994 
L 374.596273 89.318261 
L 378.973461 90.2349 
z
" clip-path="url(#pa801057d7d)" style="stroke: #000000; stroke-linecap: round"/>
   </g>
   <g id="patch_172">
    <path d="M 390.577856 99.898129 
Q 392.26461 83.607737 393.836215 68.429433 
" clip-path="url(#pa801057d7d)" style="fill: none; stroke: #000000; stroke-linecap: round"/>
    <path d="M 391.434882 72.202177 
L 393.836215 68.429433 
L 395.413611 72.614146 
z
" clip-path="url(#pa801057d7d)" style="stroke: #000000; stroke-linecap: round"/>
   </g>
   <g id="patch_173">
    <path d="M 390.577856 99.898129 
Q 392.26461 83.607737 393.836215 68.429433 
" clip-path="url(#pa801057d7d)" style="fill: none; stroke: #000000; stroke-linecap: round"/>
    <path d="M 391.434882 72.202177 
L 393.836215 68.429433 
L 395.413611 72.614146 
z
" clip-path="url(#pa801057d7d)" style="stroke: #000000; stroke-linecap: round"/>
   </g>
   <g id="patch_174">
    <path d="M 390.577856 99.898129 
Q 392.26461 83.607737 393.836215 68.429433 
" clip-path="url(#pa801057d7d)" style="fill: none; stroke: #000000; stroke-linecap: round"/>
    <path d="M 391.434882 72.202177 
L 393.836215 68.429433 
L 395.413611 72.614146 
z
" clip-path="url(#pa801057d7d)" style="stroke: #000000; stroke-linecap: round"/>
   </g>
   <g id="patch_175">
    <path d="M 390.577856 99.898129 
Q 392.26461 83.607737 393.836215 68.429433 
" clip-path="url(#pa801057d7d)" style="fill: none; stroke: #000000; stroke-linecap: round"/>
    <path d="M 391.434882 72.202177 
L 393.836215 68.429433 
L 395.413611 72.614146 
z
" clip-path="url(#pa801057d7d)" style="stroke: #000000; stroke-linecap: round"/>
   </g>
   <g id="patch_176">
    <path d="M 390.577856 99.898129 
Q 392.26461 83.607737 393.836215 68.429433 
" clip-path="url(#pa801057d7d)" style="fill: none; stroke: #000000; stroke-linecap: round"/>
    <path d="M 391.434882 72.202177 
L 393.836215 68.429433 
L 395.413611 72.614146 
z
" clip-path="url(#pa801057d7d)" style="stroke: #000000; stroke-linecap: round"/>
   </g>
   <g id="patch_177">
    <path d="M 390.577856 99.898129 
Q 392.26461 83.607737 393.836215 68.429433 
" clip-path="url(#pa801057d7d)" style="fill: none; stroke: #000000; stroke-linecap: round"/>
    <path d="M 391.434882 72.202177 
L 393.836215 68.429433 
L 395.413611 72.614146 
z
" clip-path="url(#pa801057d7d)" style="stroke: #000000; stroke-linecap: round"/>
   </g>
   <g id="patch_178">
    <path d="M 390.577856 99.898129 
Q 392.26461 83.607737 393.836215 68.429433 
" clip-path="url(#pa801057d7d)" style="fill: none; stroke: #000000; stroke-linecap: round"/>
    <path d="M 391.434882 72.202177 
L 393.836215 68.429433 
L 395.413611 72.614146 
z
" clip-path="url(#pa801057d7d)" style="stroke: #000000; stroke-linecap: round"/>
   </g>
   <g id="patch_179">
    <path d="M 390.577856 99.898129 
Q 392.26461 83.607737 393.836215 68.429433 
" clip-path="url(#pa801057d7d)" style="fill: none; stroke: #000000; stroke-linecap: round"/>
    <path d="M 391.434882 72.202177 
L 393.836215 68.429433 
L 395.413611 72.614146 
z
" clip-path="url(#pa801057d7d)" style="stroke: #000000; stroke-linecap: round"/>
   </g>
   <g id="patch_180">
    <path d="M 390.577856 99.898129 
Q 392.26461 83.607737 393.836215 68.429433 
" clip-path="url(#pa801057d7d)" style="fill: none; stroke: #000000; stroke-linecap: round"/>
    <path d="M 391.434882 72.202177 
L 393.836215 68.429433 
L 395.413611 72.614146 
z
" clip-path="url(#pa801057d7d)" style="stroke: #000000; stroke-linecap: round"/>
   </g>
   <g id="patch_181">
    <path d="M 390.577856 99.898129 
Q 392.26461 83.607737 393.836215 68.429433 
" clip-path="url(#pa801057d7d)" style="fill: none; stroke: #000000; stroke-linecap: round"/>
    <path d="M 391.434882 72.202177 
L 393.836215 68.429433 
L 395.413611 72.614146 
z
" clip-path="url(#pa801057d7d)" style="stroke: #000000; stroke-linecap: round"/>
   </g>
   <g id="patch_182">
    <path d="M 390.48779 103.75693 
Q 391.228158 116.849321 391.905403 128.825463 
" clip-path="url(#pa801057d7d)" style="fill: none; stroke: #000000; stroke-linecap: round"/>
    <path d="M 393.676376 124.718925 
L 391.905403 128.825463 
L 389.682756 124.944762 
z
" clip-path="url(#pa801057d7d)" style="stroke: #000000; stroke-linecap: round"/>
   </g>
   <g id="patch_183">
    <path d="M 390.48779 103.75693 
Q 391.228158 116.849321 391.905403 128.825463 
" clip-path="url(#pa801057d7d)" style="fill: none; stroke: #000000; stroke-linecap: round"/>
    <path d="M 393.676376 124.718925 
L 391.905403 128.825463 
L 389.682756 124.944762 
z
" clip-path="url(#pa801057d7d)" style="stroke: #000000; stroke-linecap: round"/>
   </g>
   <g id="patch_184">
    <path d="M 390.48779 103.75693 
Q 391.228158 116.849321 391.905403 128.825463 
" clip-path="url(#pa801057d7d)" style="fill: none; stroke: #000000; stroke-linecap: round"/>
    <path d="M 393.676376 124.718925 
L 391.905403 128.825463 
L 389.682756 124.944762 
z
" clip-path="url(#pa801057d7d)" style="stroke: #000000; stroke-linecap: round"/>
   </g>
   <g id="patch_185">
    <path d="M 390.48779 103.75693 
Q 391.228158 116.849321 391.905403 128.825463 
" clip-path="url(#pa801057d7d)" style="fill: none; stroke: #000000; stroke-linecap: round"/>
    <path d="M 393.676376 124.718925 
L 391.905403 128.825463 
L 389.682756 124.944762 
z
" clip-path="url(#pa801057d7d)" style="stroke: #000000; stroke-linecap: round"/>
   </g>
   <g id="patch_186">
    <path d="M 390.48779 103.75693 
Q 391.228158 116.849321 391.905403 128.825463 
" clip-path="url(#pa801057d7d)" style="fill: none; stroke: #000000; stroke-linecap: round"/>
    <path d="M 393.676376 124.718925 
L 391.905403 128.825463 
L 389.682756 124.944762 
z
" clip-path="url(#pa801057d7d)" style="stroke: #000000; stroke-linecap: round"/>
   </g>
   <g id="patch_187">
    <path d="M 390.48779 103.75693 
Q 391.228158 116.849321 391.905403 128.825463 
" clip-path="url(#pa801057d7d)" style="fill: none; stroke: #000000; stroke-linecap: round"/>
    <path d="M 393.676376 124.718925 
L 391.905403 128.825463 
L 389.682756 124.944762 
z
" clip-path="url(#pa801057d7d)" style="stroke: #000000; stroke-linecap: round"/>
   </g>
   <g id="patch_188">
    <path d="M 390.48779 103.75693 
Q 391.228158 116.849321 391.905403 128.825463 
" clip-path="url(#pa801057d7d)" style="fill: none; stroke: #000000; stroke-linecap: round"/>
    <path d="M 393.676376 124.718925 
L 391.905403 128.825463 
L 389.682756 124.944762 
z
" clip-path="url(#pa801057d7d)" style="stroke: #000000; stroke-linecap: round"/>
   </g>
   <g id="patch_189">
    <path d="M 390.48779 103.75693 
Q 391.228158 116.849321 391.905403 128.825463 
" clip-path="url(#pa801057d7d)" style="fill: none; stroke: #000000; stroke-linecap: round"/>
    <path d="M 393.676376 124.718925 
L 391.905403 128.825463 
L 389.682756 124.944762 
z
" clip-path="url(#pa801057d7d)" style="stroke: #000000; stroke-linecap: round"/>
   </g>
   <g id="patch_190">
    <path d="M 390.48779 103.75693 
Q 391.228158 116.849321 391.905403 128.825463 
" clip-path="url(#pa801057d7d)" style="fill: none; stroke: #000000; stroke-linecap: round"/>
    <path d="M 393.676376 124.718925 
L 391.905403 128.825463 
L 389.682756 124.944762 
z
" clip-path="url(#pa801057d7d)" style="stroke: #000000; stroke-linecap: round"/>
   </g>
   <g id="patch_191">
    <path d="M 390.48779 103.75693 
Q 391.228158 116.849321 391.905403 128.825463 
" clip-path="url(#pa801057d7d)" style="fill: none; stroke: #000000; stroke-linecap: round"/>
    <path d="M 393.676376 124.718925 
L 391.905403 128.825463 
L 389.682756 124.944762 
z
" clip-path="url(#pa801057d7d)" style="stroke: #000000; stroke-linecap: round"/>
   </g>
   <g id="patch_192">
    <path d="M 391.968481 129.940912 
Q 391.228113 116.84852 390.550868 104.872379 
" clip-path="url(#pa801057d7d)" style="fill: none; stroke: #000000; stroke-linecap: round"/>
    <path d="M 388.779896 108.978917 
L 390.550868 104.872379 
L 392.773515 108.75308 
z
" clip-path="url(#pa801057d7d)" style="stroke: #000000; stroke-linecap: round"/>
   </g>
   <g id="patch_193">
    <path d="M 391.968481 129.940912 
Q 391.228113 116.84852 390.550868 104.872379 
" clip-path="url(#pa801057d7d)" style="fill: none; stroke: #000000; stroke-linecap: round"/>
    <path d="M 388.779896 108.978917 
L 390.550868 104.872379 
L 392.773515 108.75308 
z
" clip-path="url(#pa801057d7d)" style="stroke: #000000; stroke-linecap: round"/>
   </g>
   <g id="patch_194">
    <path d="M 391.968481 129.940912 
Q 391.228113 116.84852 390.550868 104.872379 
" clip-path="url(#pa801057d7d)" style="fill: none; stroke: #000000; stroke-linecap: round"/>
    <path d="M 388.779896 108.978917 
L 390.550868 104.872379 
L 392.773515 108.75308 
z
" clip-path="url(#pa801057d7d)" style="stroke: #000000; stroke-linecap: round"/>
   </g>
   <g id="patch_195">
    <path d="M 391.968481 129.940912 
Q 391.228113 116.84852 390.550868 104.872379 
" clip-path="url(#pa801057d7d)" style="fill: none; stroke: #000000; stroke-linecap: round"/>
    <path d="M 388.779896 108.978917 
L 390.550868 104.872379 
L 392.773515 108.75308 
z
" clip-path="url(#pa801057d7d)" style="stroke: #000000; stroke-linecap: round"/>
   </g>
   <g id="patch_196">
    <path d="M 391.968481 129.940912 
Q 391.228113 116.84852 390.550868 104.872379 
" clip-path="url(#pa801057d7d)" style="fill: none; stroke: #000000; stroke-linecap: round"/>
    <path d="M 388.779896 108.978917 
L 390.550868 104.872379 
L 392.773515 108.75308 
z
" clip-path="url(#pa801057d7d)" style="stroke: #000000; stroke-linecap: round"/>
   </g>
   <g id="patch_197">
    <path d="M 391.968481 129.940912 
Q 391.228113 116.84852 390.550868 104.872379 
" clip-path="url(#pa801057d7d)" style="fill: none; stroke: #000000; stroke-linecap: round"/>
    <path d="M 388.779896 108.978917 
L 390.550868 104.872379 
L 392.773515 108.75308 
z
" clip-path="url(#pa801057d7d)" style="stroke: #000000; stroke-linecap: round"/>
   </g>
   <g id="patch_198">
    <path d="M 391.968481 129.940912 
Q 391.228113 116.84852 390.550868 104.872379 
" clip-path="url(#pa801057d7d)" style="fill: none; stroke: #000000; stroke-linecap: round"/>
    <path d="M 388.779896 108.978917 
L 390.550868 104.872379 
L 392.773515 108.75308 
z
" clip-path="url(#pa801057d7d)" style="stroke: #000000; stroke-linecap: round"/>
   </g>
   <g id="patch_199">
    <path d="M 391.968481 129.940912 
Q 391.228113 116.84852 390.550868 104.872379 
" clip-path="url(#pa801057d7d)" style="fill: none; stroke: #000000; stroke-linecap: round"/>
    <path d="M 388.779896 108.978917 
L 390.550868 104.872379 
L 392.773515 108.75308 
z
" clip-path="url(#pa801057d7d)" style="stroke: #000000; stroke-linecap: round"/>
   </g>
   <g id="patch_200">
    <path d="M 391.968481 129.940912 
Q 391.228113 116.84852 390.550868 104.872379 
" clip-path="url(#pa801057d7d)" style="fill: none; stroke: #000000; stroke-linecap: round"/>
    <path d="M 388.779896 108.978917 
L 390.550868 104.872379 
L 392.773515 108.75308 
z
" clip-path="url(#pa801057d7d)" style="stroke: #000000; stroke-linecap: round"/>
   </g>
   <g id="patch_201">
    <path d="M 391.968481 129.940912 
Q 391.228113 116.84852 390.550868 104.872379 
" clip-path="url(#pa801057d7d)" style="fill: none; stroke: #000000; stroke-linecap: round"/>
    <path d="M 388.779896 108.978917 
L 390.550868 104.872379 
L 392.773515 108.75308 
z
" clip-path="url(#pa801057d7d)" style="stroke: #000000; stroke-linecap: round"/>
   </g>
   <g id="PathCollection_1">
    <defs>
     <path id="mbbbbe22def" d="M 0 1.936492 
C 0.513564 1.936492 1.006162 1.732451 1.369306 1.369306 
C 1.732451 1.006162 1.936492 0.513564 1.936492 0 
C 1.936492 -0.513564 1.732451 -1.006162 1.369306 -1.369306 
C 1.006162 -1.732451 0.513564 -1.936492 0 -1.936492 
C -0.513564 -1.936492 -1.006162 -1.732451 -1.369306 -1.369306 
C -1.732451 -1.006162 -1.936492 -0.513564 -1.936492 0 
C -1.936492 0.513564 -1.732451 1.006162 -1.369306 1.369306 
C -1.006162 1.732451 -0.513564 1.936492 0 1.936492 
z
" style="stroke: #1f78b4"/>
    </defs>
    <g clip-path="url(#pa801057d7d)">
     <use xlink:href="#mbbbbe22def" x="372.201052" y="87.420335" style="fill: #1f78b4; stroke: #1f78b4"/>
     <use xlink:href="#mbbbbe22def" x="20.945455" y="329.890909" style="fill: #1f78b4; stroke: #1f78b4"/>
     <use xlink:href="#mbbbbe22def" x="430.366748" y="47.153979" style="fill: #1f78b4; stroke: #1f78b4"/>
     <use xlink:href="#mbbbbe22def" x="435.645565" y="74.400814" style="fill: #1f78b4; stroke: #1f78b4"/>
     <use xlink:href="#mbbbbe22def" x="394.150678" y="65.392404" style="fill: #1f78b4; stroke: #1f78b4"/>
     <use xlink:href="#mbbbbe22def" x="381.897367" y="33.465376" style="fill: #1f78b4; stroke: #1f78b4"/>
     <use xlink:href="#mbbbbe22def" x="351.465963" y="21.240757" style="fill: #1f78b4; stroke: #1f78b4"/>
     <use xlink:href="#mbbbbe22def" x="356.363043" y="45.464812" style="fill: #1f78b4; stroke: #1f78b4"/>
     <use xlink:href="#mbbbbe22def" x="390.37847" y="101.823761" style="fill: #1f78b4; stroke: #1f78b4"/>
     <use xlink:href="#mbbbbe22def" x="392.077801" y="131.874081" style="fill: #1f78b4; stroke: #1f78b4"/>
    </g>
   </g>
   <g id="text_1">
    <g clip-path="url(#pa801057d7d)">
     <!-- 0 -->
     <g transform="translate(369.019802 90.17971) scale(0.1 -0.1)">
      <defs>
       <path id="DejaVuSans-30" d="M 2034 4250 
Q 1547 4250 1301 3770 
Q 1056 3291 1056 2328 
Q 1056 1369 1301 889 
Q 1547 409 2034 409 
Q 2525 409 2770 889 
Q 3016 1369 3016 2328 
Q 3016 3291 2770 3770 
Q 2525 4250 2034 4250 
z
M 2034 4750 
Q 2819 4750 3233 4129 
Q 3647 3509 3647 2328 
Q 3647 1150 3233 529 
Q 2819 -91 2034 -91 
Q 1250 -91 836 529 
Q 422 1150 422 2328 
Q 422 3509 836 4129 
Q 1250 4750 2034 4750 
z
" transform="scale(0.015625)"/>
      </defs>
      <use xlink:href="#DejaVuSans-30"/>
     </g>
    </g>
   </g>
   <g id="text_2">
    <g clip-path="url(#pa801057d7d)">
     <!-- 1 -->
     <g transform="translate(17.764205 332.650284) scale(0.1 -0.1)">
      <defs>
       <path id="DejaVuSans-31" d="M 794 531 
L 1825 531 
L 1825 4091 
L 703 3866 
L 703 4441 
L 1819 4666 
L 2450 4666 
L 2450 531 
L 3481 531 
L 3481 0 
L 794 0 
L 794 531 
z
" transform="scale(0.015625)"/>
      </defs>
      <use xlink:href="#DejaVuSans-31"/>
     </g>
    </g>
   </g>
   <g id="text_3">
    <g clip-path="url(#pa801057d7d)">
     <!-- 2 -->
     <g transform="translate(427.185498 49.913354) scale(0.1 -0.1)">
      <defs>
       <path id="DejaVuSans-32" d="M 1228 531 
L 3431 531 
L 3431 0 
L 469 0 
L 469 531 
Q 828 903 1448 1529 
Q 2069 2156 2228 2338 
Q 2531 2678 2651 2914 
Q 2772 3150 2772 3378 
Q 2772 3750 2511 3984 
Q 2250 4219 1831 4219 
Q 1534 4219 1204 4116 
Q 875 4013 500 3803 
L 500 4441 
Q 881 4594 1212 4672 
Q 1544 4750 1819 4750 
Q 2544 4750 2975 4387 
Q 3406 4025 3406 3419 
Q 3406 3131 3298 2873 
Q 3191 2616 2906 2266 
Q 2828 2175 2409 1742 
Q 1991 1309 1228 531 
z
" transform="scale(0.015625)"/>
      </defs>
      <use xlink:href="#DejaVuSans-32"/>
     </g>
    </g>
   </g>
   <g id="text_4">
    <g clip-path="url(#pa801057d7d)">
     <!-- 3 -->
     <g transform="translate(432.464315 77.160189) scale(0.1 -0.1)">
      <defs>
       <path id="DejaVuSans-33" d="M 2597 2516 
Q 3050 2419 3304 2112 
Q 3559 1806 3559 1356 
Q 3559 666 3084 287 
Q 2609 -91 1734 -91 
Q 1441 -91 1130 -33 
Q 819 25 488 141 
L 488 750 
Q 750 597 1062 519 
Q 1375 441 1716 441 
Q 2309 441 2620 675 
Q 2931 909 2931 1356 
Q 2931 1769 2642 2001 
Q 2353 2234 1838 2234 
L 1294 2234 
L 1294 2753 
L 1863 2753 
Q 2328 2753 2575 2939 
Q 2822 3125 2822 3475 
Q 2822 3834 2567 4026 
Q 2313 4219 1838 4219 
Q 1578 4219 1281 4162 
Q 984 4106 628 3988 
L 628 4550 
Q 988 4650 1302 4700 
Q 1616 4750 1894 4750 
Q 2613 4750 3031 4423 
Q 3450 4097 3450 3541 
Q 3450 3153 3228 2886 
Q 3006 2619 2597 2516 
z
" transform="scale(0.015625)"/>
      </defs>
      <use xlink:href="#DejaVuSans-33"/>
     </g>
    </g>
   </g>
   <g id="text_5">
    <g clip-path="url(#pa801057d7d)">
     <!-- 4 -->
     <g transform="translate(390.969428 68.151779) scale(0.1 -0.1)">
      <defs>
       <path id="DejaVuSans-34" d="M 2419 4116 
L 825 1625 
L 2419 1625 
L 2419 4116 
z
M 2253 4666 
L 3047 4666 
L 3047 1625 
L 3713 1625 
L 3713 1100 
L 3047 1100 
L 3047 0 
L 2419 0 
L 2419 1100 
L 313 1100 
L 313 1709 
L 2253 4666 
z
" transform="scale(0.015625)"/>
      </defs>
      <use xlink:href="#DejaVuSans-34"/>
     </g>
    </g>
   </g>
   <g id="text_6">
    <g clip-path="url(#pa801057d7d)">
     <!-- 5 -->
     <g transform="translate(378.716117 36.224751) scale(0.1 -0.1)">
      <defs>
       <path id="DejaVuSans-35" d="M 691 4666 
L 3169 4666 
L 3169 4134 
L 1269 4134 
L 1269 2991 
Q 1406 3038 1543 3061 
Q 1681 3084 1819 3084 
Q 2600 3084 3056 2656 
Q 3513 2228 3513 1497 
Q 3513 744 3044 326 
Q 2575 -91 1722 -91 
Q 1428 -91 1123 -41 
Q 819 9 494 109 
L 494 744 
Q 775 591 1075 516 
Q 1375 441 1709 441 
Q 2250 441 2565 725 
Q 2881 1009 2881 1497 
Q 2881 1984 2565 2268 
Q 2250 2553 1709 2553 
Q 1456 2553 1204 2497 
Q 953 2441 691 2322 
L 691 4666 
z
" transform="scale(0.015625)"/>
      </defs>
      <use xlink:href="#DejaVuSans-35"/>
     </g>
    </g>
   </g>
   <g id="text_7">
    <g clip-path="url(#pa801057d7d)">
     <!-- 6 -->
     <g transform="translate(348.284713 24.000132) scale(0.1 -0.1)">
      <defs>
       <path id="DejaVuSans-36" d="M 2113 2584 
Q 1688 2584 1439 2293 
Q 1191 2003 1191 1497 
Q 1191 994 1439 701 
Q 1688 409 2113 409 
Q 2538 409 2786 701 
Q 3034 994 3034 1497 
Q 3034 2003 2786 2293 
Q 2538 2584 2113 2584 
z
M 3366 4563 
L 3366 3988 
Q 3128 4100 2886 4159 
Q 2644 4219 2406 4219 
Q 1781 4219 1451 3797 
Q 1122 3375 1075 2522 
Q 1259 2794 1537 2939 
Q 1816 3084 2150 3084 
Q 2853 3084 3261 2657 
Q 3669 2231 3669 1497 
Q 3669 778 3244 343 
Q 2819 -91 2113 -91 
Q 1303 -91 875 529 
Q 447 1150 447 2328 
Q 447 3434 972 4092 
Q 1497 4750 2381 4750 
Q 2619 4750 2861 4703 
Q 3103 4656 3366 4563 
z
" transform="scale(0.015625)"/>
      </defs>
      <use xlink:href="#DejaVuSans-36"/>
     </g>
    </g>
   </g>
   <g id="text_8">
    <g clip-path="url(#pa801057d7d)">
     <!-- 7 -->
     <g transform="translate(353.181793 48.224187) scale(0.1 -0.1)">
      <defs>
       <path id="DejaVuSans-37" d="M 525 4666 
L 3525 4666 
L 3525 4397 
L 1831 0 
L 1172 0 
L 2766 4134 
L 525 4134 
L 525 4666 
z
" transform="scale(0.015625)"/>
      </defs>
      <use xlink:href="#DejaVuSans-37"/>
     </g>
    </g>
   </g>
   <g id="text_9">
    <g clip-path="url(#pa801057d7d)">
     <!-- 8 -->
     <g transform="translate(387.19722 104.583136) scale(0.1 -0.1)">
      <defs>
       <path id="DejaVuSans-38" d="M 2034 2216 
Q 1584 2216 1326 1975 
Q 1069 1734 1069 1313 
Q 1069 891 1326 650 
Q 1584 409 2034 409 
Q 2484 409 2743 651 
Q 3003 894 3003 1313 
Q 3003 1734 2745 1975 
Q 2488 2216 2034 2216 
z
M 1403 2484 
Q 997 2584 770 2862 
Q 544 3141 544 3541 
Q 544 4100 942 4425 
Q 1341 4750 2034 4750 
Q 2731 4750 3128 4425 
Q 3525 4100 3525 3541 
Q 3525 3141 3298 2862 
Q 3072 2584 2669 2484 
Q 3125 2378 3379 2068 
Q 3634 1759 3634 1313 
Q 3634 634 3220 271 
Q 2806 -91 2034 -91 
Q 1263 -91 848 271 
Q 434 634 434 1313 
Q 434 1759 690 2068 
Q 947 2378 1403 2484 
z
M 1172 3481 
Q 1172 3119 1398 2916 
Q 1625 2713 2034 2713 
Q 2441 2713 2670 2916 
Q 2900 3119 2900 3481 
Q 2900 3844 2670 4047 
Q 2441 4250 2034 4250 
Q 1625 4250 1398 4047 
Q 1172 3844 1172 3481 
z
" transform="scale(0.015625)"/>
      </defs>
      <use xlink:href="#DejaVuSans-38"/>
     </g>
    </g>
   </g>
   <g id="text_10">
    <g clip-path="url(#pa801057d7d)">
     <!-- 9 -->
     <g transform="translate(388.896551 134.633456) scale(0.1 -0.1)">
      <defs>
       <path id="DejaVuSans-39" d="M 703 97 
L 703 672 
Q 941 559 1184 500 
Q 1428 441 1663 441 
Q 2288 441 2617 861 
Q 2947 1281 2994 2138 
Q 2813 1869 2534 1725 
Q 2256 1581 1919 1581 
Q 1219 1581 811 2004 
Q 403 2428 403 3163 
Q 403 3881 828 4315 
Q 1253 4750 1959 4750 
Q 2769 4750 3195 4129 
Q 3622 3509 3622 2328 
Q 3622 1225 3098 567 
Q 2575 -91 1691 -91 
Q 1453 -91 1209 -44 
Q 966 3 703 97 
z
M 1959 2075 
Q 2384 2075 2632 2365 
Q 2881 2656 2881 3163 
Q 2881 3666 2632 3958 
Q 2384 4250 1959 4250 
Q 1534 4250 1286 3958 
Q 1038 3666 1038 3163 
Q 1038 2656 1286 2365 
Q 1534 2075 1959 2075 
z
" transform="scale(0.015625)"/>
      </defs>
      <use xlink:href="#DejaVuSans-39"/>
     </g>
    </g>
   </g>
  </g>
 </g>
 <defs>
  <clipPath id="pa801057d7d">
   <rect x="0" y="0" width="460.8" height="345.6"/>
  </clipPath>
 </defs>
</svg>
