<?xml version="1.0" encoding="utf-8" standalone="no"?>
<!DOCTYPE svg PUBLIC "-//W3C//DTD SVG 1.1//EN"
  "http://www.w3.org/Graphics/SVG/1.1/DTD/svg11.dtd">
<svg xmlns:xlink="http://www.w3.org/1999/xlink" width="460.8pt" height="345.6pt" viewBox="0 0 460.8 345.6" xmlns="http://www.w3.org/2000/svg" version="1.1">
 <metadata>
  <rdf:RDF xmlns:dc="http://purl.org/dc/elements/1.1/" xmlns:cc="http://creativecommons.org/ns#" xmlns:rdf="http://www.w3.org/1999/02/22-rdf-syntax-ns#">
   <cc:Work>
    <dc:type rdf:resource="http://purl.org/dc/dcmitype/StillImage"/>
    <dc:date>2023-10-10T10:57:16.763867</dc:date>
    <dc:format>image/svg+xml</dc:format>
    <dc:creator>
     <cc:Agent>
      <dc:title>Matplotlib v3.6.1, https://matplotlib.org/</dc:title>
     </cc:Agent>
    </dc:creator>
   </cc:Work>
  </rdf:RDF>
 </metadata>
 <defs>
  <style type="text/css">*{stroke-linejoin: round; stroke-linecap: butt}</style>
 </defs>
 <g id="figure_1">
  <g id="patch_1">
   <path d="M 0 345.6 
L 460.8 345.6 
L 460.8 0 
L 0 0 
z
" style="fill: #ffffff"/>
  </g>
  <g id="axes_1">
   <g id="patch_2">
    <path d="M 200.262832 130.753219 
Q 228.474441 121.675781 255.621754 112.940793 
" clip-path="url(#p669f038f9f)" style="fill: none; stroke: #000000; stroke-linecap: round"/>
    <path d="M 251.201416 112.262111 
L 255.621754 112.940793 
L 252.426605 116.069854 
L 251.201416 112.262111 
z
" clip-path="url(#p669f038f9f)" style="stroke: #000000; stroke-linecap: round"/>
   </g>
   <g id="patch_3">
    <path d="M 197.140581 132.80397 
Q 185.632379 145.936754 174.861024 158.228673 
" clip-path="url(#p669f038f9f)" style="fill: none; stroke: #000000; stroke-linecap: round"/>
    <path d="M 179.001436 156.538411 
L 174.861024 158.228673 
L 175.993062 153.902186 
L 179.001436 156.538411 
z
" clip-path="url(#p669f038f9f)" style="stroke: #000000; stroke-linecap: round"/>
   </g>
   <g id="patch_4">
    <path d="M 196.488132 131.539147 
Q 170.544571 134.1225 145.713541 136.595071 
" clip-path="url(#p669f038f9f)" style="fill: none; stroke: #000000; stroke-linecap: round"/>
    <path d="M 149.892028 138.188886 
L 145.713541 136.595071 
L 149.495685 134.20857 
L 149.892028 138.188886 
z
" clip-path="url(#p669f038f9f)" style="stroke: #000000; stroke-linecap: round"/>
   </g>
   <g id="patch_5">
    <path d="M 256.686295 112.598264 
Q 228.474685 121.675703 201.327372 130.41069 
" clip-path="url(#p669f038f9f)" style="fill: none; stroke: #000000; stroke-linecap: round"/>
    <path d="M 205.74771 131.089373 
L 201.327372 130.41069 
L 204.522521 127.281629 
L 205.74771 131.089373 
z
" clip-path="url(#p669f038f9f)" style="stroke: #000000; stroke-linecap: round"/>
   </g>
   <g id="patch_6">
    <path d="M 258.227825 110.093386 
Q 254.999144 89.798732 251.946122 70.608227 
" clip-path="url(#p669f038f9f)" style="fill: none; stroke: #000000; stroke-linecap: round"/>
    <path d="M 250.599419 74.872777 
L 251.946122 70.608227 
L 254.549741 74.24432 
L 250.599419 74.872777 
z
" clip-path="url(#p669f038f9f)" style="stroke: #000000; stroke-linecap: round"/>
   </g>
   <g id="patch_7">
    <path d="M 260.296235 112.81015 
Q 286.382816 124.722772 311.452387 136.170968 
" clip-path="url(#p669f038f9f)" style="fill: none; stroke: #000000; stroke-linecap: round"/>
    <path d="M 308.644609 132.690108 
L 311.452387 136.170968 
L 306.983033 136.328674 
L 308.644609 132.690108 
z
" clip-path="url(#p669f038f9f)" style="stroke: #000000; stroke-linecap: round"/>
   </g>
   <g id="patch_8">
    <path d="M 160.877347 198.442715 
Q 166.570192 180.408778 171.926473 163.441014 
" clip-path="url(#p669f038f9f)" style="fill: none; stroke: #000000; stroke-linecap: round"/>
    <path d="M 168.81512 166.653409 
L 171.926473 163.441014 
L 172.629577 167.857533 
L 168.81512 166.653409 
z
" clip-path="url(#p669f038f9f)" style="stroke: #000000; stroke-linecap: round"/>
   </g>
   <g id="patch_9">
    <path d="M 160.522401 202.215658 
Q 162.441774 218.426859 164.229693 233.527781 
" clip-path="url(#p669f038f9f)" style="fill: none; stroke: #000000; stroke-linecap: round"/>
    <path d="M 165.745513 229.320372 
L 164.229693 233.527781 
L 161.773258 229.790679 
L 165.745513 229.320372 
z
" clip-path="url(#p669f038f9f)" style="stroke: #000000; stroke-linecap: round"/>
   </g>
   <g id="patch_10">
    <path d="M 158.512343 201.046369 
Q 144.664145 206.92776 131.845019 212.3721 
" clip-path="url(#p669f038f9f)" style="fill: none; stroke: #000000; stroke-linecap: round"/>
    <path d="M 136.308555 212.649317 
L 131.845019 212.3721 
L 134.744914 208.967602 
L 136.308555 212.649317 
z
" clip-path="url(#p669f038f9f)" style="stroke: #000000; stroke-linecap: round"/>
   </g>
   <g id="patch_11">
    <path d="M 174.122673 159.071254 
Q 185.630876 145.93847 196.402231 133.646551 
" clip-path="url(#p669f038f9f)" style="fill: none; stroke: #000000; stroke-linecap: round"/>
    <path d="M 192.261818 135.336813 
L 196.402231 133.646551 
L 195.270192 137.973038 
L 192.261818 135.336813 
z
" clip-path="url(#p669f038f9f)" style="stroke: #000000; stroke-linecap: round"/>
   </g>
   <g id="patch_12">
    <path d="M 172.262987 162.374999 
Q 166.570142 180.408936 161.213861 197.3767 
" clip-path="url(#p669f038f9f)" style="fill: none; stroke: #000000; stroke-linecap: round"/>
    <path d="M 164.325214 194.164306 
L 161.213861 197.3767 
L 160.510757 192.960181 
L 164.325214 194.164306 
z
" clip-path="url(#p669f038f9f)" style="stroke: #000000; stroke-linecap: round"/>
   </g>
   <g id="patch_13">
    <path d="M 389.25849 199.226951 
Q 370.739678 186.673837 353.146319 174.748049 
" clip-path="url(#p669f038f9f)" style="fill: none; stroke: #000000; stroke-linecap: round"/>
    <path d="M 355.335127 178.647936 
L 353.146319 174.748049 
L 357.579514 175.336935 
L 355.335127 178.647936 
z
" clip-path="url(#p669f038f9f)" style="stroke: #000000; stroke-linecap: round"/>
   </g>
   <g id="patch_14">
    <path d="M 391.815051 202.005225 
Q 400.451119 217.335195 408.538433 231.691065 
" clip-path="url(#p669f038f9f)" style="fill: none; stroke: #000000; stroke-linecap: round"/>
    <path d="M 408.317671 227.224381 
L 408.538433 231.691065 
L 404.832629 229.187664 
L 408.317671 227.224381 
z
" clip-path="url(#p669f038f9f)" style="stroke: #000000; stroke-linecap: round"/>
   </g>
   <g id="patch_15">
    <path d="M 390.684821 202.245033 
Q 390.115322 208.437072 389.648219 213.515776 
" clip-path="url(#p669f038f9f)" style="fill: none; stroke: #000000; stroke-linecap: round"/>
    <path d="M 392.006158 209.71576 
L 389.648219 213.515776 
L 388.02297 209.349415 
L 392.006158 209.71576 
z
" clip-path="url(#p669f038f9f)" style="stroke: #000000; stroke-linecap: round"/>
   </g>
   <g id="patch_16">
    <path d="M 352.223476 174.122492 
Q 370.742287 186.675606 388.335646 198.601395 
" clip-path="url(#p669f038f9f)" style="fill: none; stroke: #000000; stroke-linecap: round"/>
    <path d="M 386.146838 194.701507 
L 388.335646 198.601395 
L 383.902452 198.012509 
L 386.146838 194.701507 
z
" clip-path="url(#p669f038f9f)" style="stroke: #000000; stroke-linecap: round"/>
   </g>
   <g id="patch_17">
    <path d="M 349.775729 174.777961 
Q 342.250804 190.318614 335.213126 204.852993 
" clip-path="url(#p669f038f9f)" style="fill: none; stroke: #000000; stroke-linecap: round"/>
    <path d="M 338.756436 202.124448 
L 335.213126 204.852993 
L 335.156276 200.381218 
L 338.756436 202.124448 
z
" clip-path="url(#p669f038f9f)" style="stroke: #000000; stroke-linecap: round"/>
   </g>
   <g id="patch_18">
    <path d="M 351.181744 174.885275 
Q 353.518811 182.575966 355.530805 189.196924 
" clip-path="url(#p669f038f9f)" style="fill: none; stroke: #000000; stroke-linecap: round"/>
    <path d="M 356.281384 184.788225 
L 355.530805 189.196924 
L 352.454193 185.951241 
L 356.281384 184.788225 
z
" clip-path="url(#p669f038f9f)" style="stroke: #000000; stroke-linecap: round"/>
   </g>
   <g id="patch_19">
    <path d="M 349.23587 171.681745 
Q 332.42439 155.236798 316.412143 139.573661 
" clip-path="url(#p669f038f9f)" style="fill: none; stroke: #000000; stroke-linecap: round"/>
    <path d="M 317.873028 143.800458 
L 316.412143 139.573661 
L 320.670112 140.941031 
L 317.873028 143.800458 
z
" clip-path="url(#p669f038f9f)" style="stroke: #000000; stroke-linecap: round"/>
   </g>
   <g id="patch_20">
    <path d="M 350.378234 171.111855 
Q 348.857342 158.989993 347.475634 147.977467 
" clip-path="url(#p669f038f9f)" style="fill: none; stroke: #000000; stroke-linecap: round"/>
    <path d="M 345.989156 152.195332 
L 347.475634 147.977467 
L 349.958039 151.697368 
L 345.989156 152.195332 
z
" clip-path="url(#p669f038f9f)" style="stroke: #000000; stroke-linecap: round"/>
   </g>
   <g id="patch_21">
    <path d="M 312.466177 136.633923 
Q 286.379595 124.721301 261.310024 113.273104 
" clip-path="url(#p669f038f9f)" style="fill: none; stroke: #000000; stroke-linecap: round"/>
    <path d="M 264.117802 116.753964 
L 261.310024 113.273104 
L 265.779379 113.115398 
L 264.117802 116.753964 
z
" clip-path="url(#p669f038f9f)" style="stroke: #000000; stroke-linecap: round"/>
   </g>
   <g id="patch_22">
    <path d="M 315.614246 138.79316 
Q 332.425727 155.238106 348.437973 170.901244 
" clip-path="url(#p669f038f9f)" style="fill: none; stroke: #000000; stroke-linecap: round"/>
    <path d="M 346.977088 166.674447 
L 348.437973 170.901244 
L 344.180004 169.533874 
L 346.977088 166.674447 
z
" clip-path="url(#p669f038f9f)" style="stroke: #000000; stroke-linecap: round"/>
   </g>
   <g id="patch_23">
    <path d="M 316.120139 137.871374 
Q 330.664475 141.194481 344.118864 144.268556 
" clip-path="url(#p669f038f9f)" style="fill: none; stroke: #000000; stroke-linecap: round"/>
    <path d="M 340.664836 141.427836 
L 344.118864 144.268556 
L 339.773871 145.327346 
L 340.664836 141.427836 
z
" clip-path="url(#p669f038f9f)" style="stroke: #000000; stroke-linecap: round"/>
   </g>
   <g id="patch_24">
    <path d="M 347.336947 146.872099 
Q 348.857839 158.993961 350.239547 170.006487 
" clip-path="url(#p669f038f9f)" style="fill: none; stroke: #000000; stroke-linecap: round"/>
    <path d="M 351.726025 165.788622 
L 350.239547 170.006487 
L 347.757142 166.286586 
L 351.726025 165.788622 
z
" clip-path="url(#p669f038f9f)" style="stroke: #000000; stroke-linecap: round"/>
   </g>
   <g id="patch_25">
    <path d="M 345.206042 144.516956 
Q 330.661706 141.193848 317.207317 138.119773 
" clip-path="url(#p669f038f9f)" style="fill: none; stroke: #000000; stroke-linecap: round"/>
    <path d="M 320.661345 140.960493 
L 317.207317 138.119773 
L 321.55231 137.060983 
L 320.661345 140.960493 
z
" clip-path="url(#p669f038f9f)" style="stroke: #000000; stroke-linecap: round"/>
   </g>
   <g id="patch_26">
    <path d="M 334.725737 205.859561 
Q 342.250662 190.318908 349.288339 175.784529 
" clip-path="url(#p669f038f9f)" style="fill: none; stroke: #000000; stroke-linecap: round"/>
    <path d="M 345.74503 178.513074 
L 349.288339 175.784529 
L 349.345189 180.256304 
L 345.74503 178.513074 
z
" clip-path="url(#p669f038f9f)" style="stroke: #000000; stroke-linecap: round"/>
   </g>
   <g id="patch_27">
    <path d="M 332.494738 208.957172 
Q 317.290738 223.807636 302.886551 237.876885 
" clip-path="url(#p669f038f9f)" style="fill: none; stroke: #000000; stroke-linecap: round"/>
    <path d="M 307.145533 236.512673 
L 302.886551 237.876885 
L 304.35057 233.651173 
L 307.145533 236.512673 
z
" clip-path="url(#p669f038f9f)" style="stroke: #000000; stroke-linecap: round"/>
   </g>
   <g id="patch_28">
    <path d="M 335.480362 206.50439 
Q 345.151325 199.862081 353.900693 193.852751 
" clip-path="url(#p669f038f9f)" style="fill: none; stroke: #000000; stroke-linecap: round"/>
    <path d="M 349.471187 194.468767 
L 353.900693 193.852751 
L 351.735802 197.765966 
L 349.471187 194.468767 
z
" clip-path="url(#p669f038f9f)" style="stroke: #000000; stroke-linecap: round"/>
   </g>
   <g id="patch_29">
    <path d="M 355.857658 190.272512 
Q 353.520591 182.581821 351.508597 175.960863 
" clip-path="url(#p669f038f9f)" style="fill: none; stroke: #000000; stroke-linecap: round"/>
    <path d="M 350.758018 180.369562 
L 351.508597 175.960863 
L 354.585209 179.206546 
L 350.758018 180.369562 
z
" clip-path="url(#p669f038f9f)" style="stroke: #000000; stroke-linecap: round"/>
   </g>
   <g id="patch_30">
    <path d="M 354.821389 193.220389 
Q 345.150426 199.862699 336.401058 205.872029 
" clip-path="url(#p669f038f9f)" style="fill: none; stroke: #000000; stroke-linecap: round"/>
    <path d="M 340.830564 205.256012 
L 336.401058 205.872029 
L 338.565949 201.958814 
L 340.830564 205.256012 
z
" clip-path="url(#p669f038f9f)" style="stroke: #000000; stroke-linecap: round"/>
   </g>
   <g id="patch_31">
    <path d="M 64.24919 204.792437 
Q 58.233396 221.352155 52.599351 236.861031 
" clip-path="url(#p669f038f9f)" style="fill: none; stroke: #000000; stroke-linecap: round"/>
    <path d="M 55.844938 233.784318 
L 52.599351 236.861031 
L 52.085333 232.418533 
L 55.844938 233.784318 
z
" clip-path="url(#p669f038f9f)" style="stroke: #000000; stroke-linecap: round"/>
   </g>
   <g id="patch_32">
    <path d="M 66.560373 201.96092 
Q 85.814415 190.132662 104.115825 178.889631 
" clip-path="url(#p669f038f9f)" style="fill: none; stroke: #000000; stroke-linecap: round"/>
    <path d="M 99.660696 179.279281 
L 104.115825 178.889631 
L 101.754468 182.687524 
L 99.660696 179.279281 
z
" clip-path="url(#p669f038f9f)" style="stroke: #000000; stroke-linecap: round"/>
   </g>
   <g id="patch_33">
    <path d="M 101.868799 160.405029 
Q 112.252065 167.13026 121.696937 173.247694 
" clip-path="url(#p669f038f9f)" style="fill: none; stroke: #000000; stroke-linecap: round"/>
    <path d="M 119.426897 169.394524 
L 121.696937 173.247694 
L 117.252377 172.751824 
L 119.426897 169.394524 
z
" clip-path="url(#p669f038f9f)" style="stroke: #000000; stroke-linecap: round"/>
   </g>
   <g id="patch_34">
    <path d="M 100.897639 161.168651 
Q 103.47886 168.318635 105.680441 174.417013 
" clip-path="url(#p669f038f9f)" style="fill: none; stroke: #000000; stroke-linecap: round"/>
    <path d="M 106.203365 169.975555 
L 105.680441 174.417013 
L 102.441029 171.333799 
L 106.203365 169.975555 
z
" clip-path="url(#p669f038f9f)" style="stroke: #000000; stroke-linecap: round"/>
   </g>
   <g id="patch_35">
    <path d="M 144.602078 136.705746 
Q 170.54564 134.122393 195.37667 131.649822 
" clip-path="url(#p669f038f9f)" style="fill: none; stroke: #000000; stroke-linecap: round"/>
    <path d="M 191.198182 130.056007 
L 195.37667 131.649822 
L 191.594526 134.036323 
L 191.198182 130.056007 
z
" clip-path="url(#p669f038f9f)" style="stroke: #000000; stroke-linecap: round"/>
   </g>
   <g id="patch_36">
    <path d="M 142.102033 135.051501 
Q 137.196861 119.18787 132.621966 104.392375 
" clip-path="url(#p669f038f9f)" style="fill: none; stroke: #000000; stroke-linecap: round"/>
    <path d="M 131.89286 108.804677 
L 132.621966 104.392375 
L 135.714344 107.623041 
L 131.89286 108.804677 
z
" clip-path="url(#p669f038f9f)" style="stroke: #000000; stroke-linecap: round"/>
   </g>
   <g id="patch_37">
    <path d="M 141.384757 138.345035 
Q 124.695667 157.094222 108.749933 175.008291 
" clip-path="url(#p669f038f9f)" style="fill: none; stroke: #000000; stroke-linecap: round"/>
    <path d="M 112.903351 173.350244 
L 108.749933 175.008291 
L 109.915546 170.690729 
L 112.903351 173.350244 
z
" clip-path="url(#p669f038f9f)" style="stroke: #000000; stroke-linecap: round"/>
   </g>
   <g id="patch_38">
    <path d="M 105.066986 178.305307 
Q 85.812944 190.133566 67.511535 201.376597 
" clip-path="url(#p669f038f9f)" style="fill: none; stroke: #000000; stroke-linecap: round"/>
    <path d="M 71.966663 200.986947 
L 67.511535 201.376597 
L 69.872891 197.578704 
L 71.966663 200.986947 
z
" clip-path="url(#p669f038f9f)" style="stroke: #000000; stroke-linecap: round"/>
   </g>
   <g id="patch_39">
    <path d="M 106.061805 175.473391 
Q 103.480583 168.323407 101.279003 162.225028 
" clip-path="url(#p669f038f9f)" style="fill: none; stroke: #000000; stroke-linecap: round"/>
    <path d="M 100.756079 166.666486 
L 101.279003 162.225028 
L 104.518415 165.308242 
L 100.756079 166.666486 
z
" clip-path="url(#p669f038f9f)" style="stroke: #000000; stroke-linecap: round"/>
   </g>
   <g id="patch_40">
    <path d="M 108.006179 175.843854 
Q 124.69527 157.094668 140.641003 139.180598 
" clip-path="url(#p669f038f9f)" style="fill: none; stroke: #000000; stroke-linecap: round"/>
    <path d="M 136.487585 140.838646 
L 140.641003 139.180598 
L 139.47539 143.498161 
L 136.487585 140.838646 
z
" clip-path="url(#p669f038f9f)" style="stroke: #000000; stroke-linecap: round"/>
   </g>
   <g id="patch_41">
    <path d="M 108.641132 177.029922 
Q 115.492324 176.099661 121.235648 175.319826 
" clip-path="url(#p669f038f9f)" style="fill: none; stroke: #000000; stroke-linecap: round"/>
    <path d="M 117.002926 173.876197 
L 121.235648 175.319826 
L 117.541112 177.839826 
L 117.002926 173.876197 
z
" clip-path="url(#p669f038f9f)" style="stroke: #000000; stroke-linecap: round"/>
   </g>
   <g id="patch_42">
    <path d="M 107.732769 178.940496 
Q 117.875403 195.42674 127.432194 210.960731 
" clip-path="url(#p669f038f9f)" style="fill: none; stroke: #000000; stroke-linecap: round"/>
    <path d="M 127.03966 206.505855 
L 127.432194 210.960731 
L 123.632773 208.601833 
L 127.03966 206.505855 
z
" clip-path="url(#p669f038f9f)" style="stroke: #000000; stroke-linecap: round"/>
   </g>
   <g id="patch_43">
    <path d="M 130.816781 212.808797 
Q 144.664979 206.927406 157.484105 201.483066 
" clip-path="url(#p669f038f9f)" style="fill: none; stroke: #000000; stroke-linecap: round"/>
    <path d="M 153.02057 201.205849 
L 157.484105 201.483066 
L 154.58421 204.887564 
L 153.02057 201.205849 
z
" clip-path="url(#p669f038f9f)" style="stroke: #000000; stroke-linecap: round"/>
   </g>
   <g id="patch_44">
    <path d="M 128.020001 211.916176 
Q 117.877367 195.429932 108.320576 179.895941 
" clip-path="url(#p669f038f9f)" style="fill: none; stroke: #000000; stroke-linecap: round"/>
    <path d="M 108.713111 184.350817 
L 108.320576 179.895941 
L 112.119997 182.254839 
L 108.713111 184.350817 
z
" clip-path="url(#p669f038f9f)" style="stroke: #000000; stroke-linecap: round"/>
   </g>
   <g id="patch_45">
    <path d="M 127.182982 214.143352 
Q 111.597352 219.005804 97.079021 223.535277 
" clip-path="url(#p669f038f9f)" style="fill: none; stroke: #000000; stroke-linecap: round"/>
    <path d="M 101.493153 224.253217 
L 97.079021 223.535277 
L 100.301852 220.434735 
L 101.493153 224.253217 
z
" clip-path="url(#p669f038f9f)" style="stroke: #000000; stroke-linecap: round"/>
   </g>
   <g id="patch_46">
    <path d="M 130.660145 214.616935 
Q 146.810727 225.063325 162.022536 234.902505 
" clip-path="url(#p669f038f9f)" style="fill: none; stroke: #000000; stroke-linecap: round"/>
    <path d="M 159.750088 231.050755 
L 162.022536 234.902505 
L 157.577667 234.409414 
L 159.750088 231.050755 
z
" clip-path="url(#p669f038f9f)" style="stroke: #000000; stroke-linecap: round"/>
   </g>
   <g id="patch_47">
    <path d="M 129.125567 215.497113 
Q 129.679287 227.276416 130.180508 237.938918 
" clip-path="url(#p669f038f9f)" style="fill: none; stroke: #000000; stroke-linecap: round"/>
    <path d="M 131.990478 233.849418 
L 130.180508 237.938918 
L 127.99489 234.037242 
L 131.990478 233.849418 
z
" clip-path="url(#p669f038f9f)" style="stroke: #000000; stroke-linecap: round"/>
   </g>
   <g id="patch_48">
    <path d="M 130.233047 239.056589 
Q 129.679327 227.277287 129.178106 216.614785 
" clip-path="url(#p669f038f9f)" style="fill: none; stroke: #000000; stroke-linecap: round"/>
    <path d="M 127.368136 220.704285 
L 129.178106 216.614785 
L 131.363724 220.516461 
L 127.368136 220.704285 
z
" clip-path="url(#p669f038f9f)" style="stroke: #000000; stroke-linecap: round"/>
   </g>
   <g id="patch_49">
    <path d="M 131.066852 242.774582 
Q 134.06172 249.975494 136.627248 256.144095 
" clip-path="url(#p669f038f9f)" style="fill: none; stroke: #000000; stroke-linecap: round"/>
    <path d="M 136.937851 251.682758 
L 136.627248 256.144095 
L 133.244541 253.218811 
L 136.937851 251.682758 
z
" clip-path="url(#p669f038f9f)" style="stroke: #000000; stroke-linecap: round"/>
   </g>
   <g id="patch_50">
    <path d="M 96.013311 223.867761 
Q 111.598941 219.005308 126.117272 214.475835 
" clip-path="url(#p669f038f9f)" style="fill: none; stroke: #000000; stroke-linecap: round"/>
    <path d="M 121.70314 213.757896 
L 126.117272 214.475835 
L 122.894442 217.576377 
L 121.70314 213.757896 
z
" clip-path="url(#p669f038f9f)" style="stroke: #000000; stroke-linecap: round"/>
   </g>
   <g id="patch_51">
    <path d="M 93.849995 226.359037 
Q 92.151747 236.790519 90.633149 246.118495 
" clip-path="url(#p669f038f9f)" style="fill: none; stroke: #000000; stroke-linecap: round"/>
    <path d="M 93.2499 242.491841 
L 90.633149 246.118495 
L 89.301877 241.849102 
L 93.2499 242.491841 
z
" clip-path="url(#p669f038f9f)" style="stroke: #000000; stroke-linecap: round"/>
   </g>
   <g id="patch_52">
    <path d="M 90.454113 247.218226 
Q 92.152361 236.786744 93.670958 227.458768 
" clip-path="url(#p669f038f9f)" style="fill: none; stroke: #000000; stroke-linecap: round"/>
    <path d="M 91.054208 231.085422 
L 93.670958 227.458768 
L 95.002231 231.728161 
L 91.054208 231.085422 
z
" clip-path="url(#p669f038f9f)" style="stroke: #000000; stroke-linecap: round"/>
   </g>
   <g id="patch_53">
    <path d="M 91.182926 247.498072 
Q 94.095219 242.924737 96.406975 239.294457 
" clip-path="url(#p669f038f9f)" style="fill: none; stroke: #000000; stroke-linecap: round"/>
    <path d="M 92.571439 241.594166 
L 96.406975 239.294457 
L 95.94542 243.742712 
L 92.571439 241.594166 
z
" clip-path="url(#p669f038f9f)" style="stroke: #000000; stroke-linecap: round"/>
   </g>
   <g id="patch_54">
    <path d="M 88.263185 248.674004 
Q 70.848323 244.432214 54.519737 240.455012 
" clip-path="url(#p669f038f9f)" style="fill: none; stroke: #000000; stroke-linecap: round"/>
    <path d="M 57.932805 243.344816 
L 54.519737 240.455012 
L 58.879421 239.45844 
L 57.932805 243.344816 
z
" clip-path="url(#p669f038f9f)" style="stroke: #000000; stroke-linecap: round"/>
   </g>
   <g id="patch_55">
    <path d="M 92.036256 249.522577 
Q 113.970509 254.049204 134.809801 258.349862 
" clip-path="url(#p669f038f9f)" style="fill: none; stroke: #000000; stroke-linecap: round"/>
    <path d="M 131.29658 255.582684 
L 134.809801 258.349862 
L 130.488126 259.500132 
L 131.29658 255.582684 
z
" clip-path="url(#p669f038f9f)" style="stroke: #000000; stroke-linecap: round"/>
   </g>
   <g id="patch_56">
    <path d="M 52.216152 237.915865 
Q 58.231946 221.356147 63.865991 205.847271 
" clip-path="url(#p669f038f9f)" style="fill: none; stroke: #000000; stroke-linecap: round"/>
    <path d="M 60.620404 208.923984 
L 63.865991 205.847271 
L 64.380009 210.289769 
L 60.620404 208.923984 
z
" clip-path="url(#p669f038f9f)" style="stroke: #000000; stroke-linecap: round"/>
   </g>
   <g id="patch_57">
    <path d="M 53.435383 240.190893 
Q 70.850244 244.432682 87.178831 248.409884 
" clip-path="url(#p669f038f9f)" style="fill: none; stroke: #000000; stroke-linecap: round"/>
    <path d="M 83.765763 245.52008 
L 87.178831 248.409884 
L 82.819147 249.406456 
L 83.765763 245.52008 
z
" clip-path="url(#p669f038f9f)" style="stroke: #000000; stroke-linecap: round"/>
   </g>
   <g id="patch_58">
    <path d="M 50.868212 241.540296 
Q 45.772189 254.930556 41.073837 267.275897 
" clip-path="url(#p669f038f9f)" style="fill: none; stroke: #000000; stroke-linecap: round"/>
    <path d="M 44.365801 264.248857 
L 41.073837 267.275897 
L 40.627383 262.826102 
L 44.365801 264.248857 
z
" clip-path="url(#p669f038f9f)" style="stroke: #000000; stroke-linecap: round"/>
   </g>
   <g id="patch_59">
    <path d="M 40.674546 268.325071 
Q 45.77057 254.93481 50.468921 242.589469 
" clip-path="url(#p669f038f9f)" style="fill: none; stroke: #000000; stroke-linecap: round"/>
    <path d="M 47.176957 245.616509 
L 50.468921 242.589469 
L 50.915375 247.039265 
L 47.176957 245.616509 
z
" clip-path="url(#p669f038f9f)" style="stroke: #000000; stroke-linecap: round"/>
   </g>
   <g id="patch_60">
    <path d="M 41.840477 270.701852 
Q 55.707237 274.962847 68.505281 278.895446 
" clip-path="url(#p669f038f9f)" style="fill: none; stroke: #000000; stroke-linecap: round"/>
    <path d="M 65.269177 275.80876 
L 68.505281 278.895446 
L 64.094269 279.632317 
L 65.269177 275.80876 
z
" clip-path="url(#p669f038f9f)" style="stroke: #000000; stroke-linecap: round"/>
   </g>
   <g id="patch_61">
    <path d="M 69.573052 279.223552 
Q 55.706291 274.962557 42.908247 271.029958 
" clip-path="url(#p669f038f9f)" style="fill: none; stroke: #000000; stroke-linecap: round"/>
    <path d="M 46.144351 274.116645 
L 42.908247 271.029958 
L 47.319259 270.293087 
L 46.144351 274.116645 
z
" clip-path="url(#p669f038f9f)" style="stroke: #000000; stroke-linecap: round"/>
   </g>
   <g id="patch_62">
    <path d="M 72.445536 278.14467 
Q 84.738315 258.253801 96.443324 239.314 
" clip-path="url(#p669f038f9f)" style="fill: none; stroke: #000000; stroke-linecap: round"/>
    <path d="M 92.639137 241.665203 
L 96.443324 239.314 
L 96.041775 243.768072 
L 92.639137 241.665203 
z
" clip-path="url(#p669f038f9f)" style="stroke: #000000; stroke-linecap: round"/>
   </g>
   <g id="patch_63">
    <path d="M 73.138934 278.880045 
Q 79.527114 275.473202 84.928781 272.592471 
" clip-path="url(#p669f038f9f)" style="fill: none; stroke: #000000; stroke-linecap: round"/>
    <path d="M 80.45819 272.710016 
L 84.928781 272.592471 
L 82.340463 276.239471 
L 80.45819 272.710016 
z
" clip-path="url(#p669f038f9f)" style="stroke: #000000; stroke-linecap: round"/>
   </g>
   <g id="patch_64">
    <path d="M 71.250118 281.721283 
Q 69.78636 297.699658 68.424597 312.564662 
" clip-path="url(#p669f038f9f)" style="fill: none; stroke: #000000; stroke-linecap: round"/>
    <path d="M 70.781164 308.763794 
L 68.424597 312.564662 
L 66.797843 308.398888 
L 70.781164 308.763794 
z
" clip-path="url(#p669f038f9f)" style="stroke: #000000; stroke-linecap: round"/>
   </g>
   <g id="patch_65">
    <path d="M 122.63442 173.8549 
Q 112.251154 167.12967 102.806282 161.012236 
" clip-path="url(#p669f038f9f)" style="fill: none; stroke: #000000; stroke-linecap: round"/>
    <path d="M 105.076322 164.865406 
L 102.806282 161.012236 
L 107.250842 161.508106 
L 105.076322 164.865406 
z
" clip-path="url(#p669f038f9f)" style="stroke: #000000; stroke-linecap: round"/>
   </g>
   <g id="patch_66">
    <path d="M 122.33864 175.170061 
Q 115.487448 176.100323 109.744124 176.880157 
" clip-path="url(#p669f038f9f)" style="fill: none; stroke: #000000; stroke-linecap: round"/>
    <path d="M 113.976846 178.323786 
L 109.744124 176.880157 
L 113.43866 174.360157 
L 113.976846 178.323786 
z
" clip-path="url(#p669f038f9f)" style="stroke: #000000; stroke-linecap: round"/>
   </g>
   <g id="patch_67">
    <path d="M 123.505003 176.693307 
Q 111.155037 205.813003 99.241603 233.903407 
" clip-path="url(#p669f038f9f)" style="fill: none; stroke: #000000; stroke-linecap: round"/>
    <path d="M 102.644642 231.001799 
L 99.241603 233.903407 
L 98.96214 229.440012 
L 102.644642 231.001799 
z
" clip-path="url(#p669f038f9f)" style="stroke: #000000; stroke-linecap: round"/>
   </g>
   <g id="patch_68">
    <path d="M 125.246856 173.245108 
Q 141.177878 146.337215 156.539305 120.391382 
" clip-path="url(#p669f038f9f)" style="fill: none; stroke: #000000; stroke-linecap: round"/>
    <path d="M 152.780472 122.814433 
L 156.539305 120.391382 
L 156.222445 124.852279 
L 152.780472 122.814433 
z
" clip-path="url(#p669f038f9f)" style="stroke: #000000; stroke-linecap: round"/>
   </g>
   <g id="patch_69">
    <path d="M 85.911105 272.068593 
Q 79.522925 275.475436 74.121258 278.356168 
" clip-path="url(#p669f038f9f)" style="fill: none; stroke: #000000; stroke-linecap: round"/>
    <path d="M 78.591849 278.238622 
L 74.121258 278.356168 
L 76.709576 274.709168 
L 78.591849 278.238622 
z
" clip-path="url(#p669f038f9f)" style="stroke: #000000; stroke-linecap: round"/>
   </g>
   <g id="patch_70">
    <path d="M 88.184503 269.301544 
Q 92.836498 253.933992 97.164564 239.636519 
" clip-path="url(#p669f038f9f)" style="fill: none; stroke: #000000; stroke-linecap: round"/>
    <path d="M 94.091423 242.885489 
L 97.164564 239.636519 
L 97.919855 244.044414 
L 94.091423 242.885489 
z
" clip-path="url(#p669f038f9f)" style="stroke: #000000; stroke-linecap: round"/>
   </g>
   <g id="patch_71">
    <path d="M 68.322258 313.681794 
Q 69.786016 297.703418 71.147779 282.838415 
" clip-path="url(#p669f038f9f)" style="fill: none; stroke: #000000; stroke-linecap: round"/>
    <path d="M 68.791212 286.639282 
L 71.147779 282.838415 
L 72.774533 287.004189 
L 68.791212 286.639282 
z
" clip-path="url(#p669f038f9f)" style="stroke: #000000; stroke-linecap: round"/>
   </g>
   <g id="patch_72">
    <path d="M 97.008056 238.350548 
Q 94.095762 242.923883 91.784006 246.554162 
" clip-path="url(#p669f038f9f)" style="fill: none; stroke: #000000; stroke-linecap: round"/>
    <path d="M 95.619543 244.254454 
L 91.784006 246.554162 
L 92.245562 242.105908 
L 95.619543 244.254454 
z
" clip-path="url(#p669f038f9f)" style="stroke: #000000; stroke-linecap: round"/>
   </g>
   <g id="patch_73">
    <path d="M 97.02961 238.365334 
Q 84.736831 258.256202 73.031822 277.196004 
" clip-path="url(#p669f038f9f)" style="fill: none; stroke: #000000; stroke-linecap: round"/>
    <path d="M 76.836009 274.844801 
L 73.031822 277.196004 
L 73.433371 272.741932 
L 76.836009 274.844801 
z
" clip-path="url(#p669f038f9f)" style="stroke: #000000; stroke-linecap: round"/>
   </g>
   <g id="patch_74">
    <path d="M 98.805166 234.932473 
Q 111.155132 205.812778 123.068565 177.722373 
" clip-path="url(#p669f038f9f)" style="fill: none; stroke: #000000; stroke-linecap: round"/>
    <path d="M 119.665527 180.623981 
L 123.068565 177.722373 
L 123.348029 182.185769 
L 119.665527 180.623981 
z
" clip-path="url(#p669f038f9f)" style="stroke: #000000; stroke-linecap: round"/>
   </g>
   <g id="patch_75">
    <path d="M 97.48718 238.57078 
Q 92.835185 253.938332 88.507118 268.235805 
" clip-path="url(#p669f038f9f)" style="fill: none; stroke: #000000; stroke-linecap: round"/>
    <path d="M 91.58026 264.986836 
L 88.507118 268.235805 
L 87.751828 263.82791 
L 91.58026 264.986836 
z
" clip-path="url(#p669f038f9f)" style="stroke: #000000; stroke-linecap: round"/>
   </g>
   <g id="patch_76">
    <path d="M 118.107537 73.165474 
Q 124.494254 86.44802 130.396479 98.722962 
" clip-path="url(#p669f038f9f)" style="fill: none; stroke: #000000; stroke-linecap: round"/>
    <path d="M 130.465566 94.25136 
L 130.396479 98.722962 
L 126.86065 95.984731 
L 130.465566 94.25136 
z
" clip-path="url(#p669f038f9f)" style="stroke: #000000; stroke-linecap: round"/>
   </g>
   <g id="patch_77">
    <path d="M 132.291031 103.32211 
Q 137.196203 119.185742 141.771098 133.981236 
" clip-path="url(#p669f038f9f)" style="fill: none; stroke: #000000; stroke-linecap: round"/>
    <path d="M 142.500204 129.568935 
L 141.771098 133.981236 
L 138.67872 130.750571 
L 142.500204 129.568935 
z
" clip-path="url(#p669f038f9f)" style="stroke: #000000; stroke-linecap: round"/>
   </g>
   <g id="patch_78">
    <path d="M 130.882238 99.733202 
Q 124.495521 86.450656 118.593296 74.175714 
" clip-path="url(#p669f038f9f)" style="fill: none; stroke: #000000; stroke-linecap: round"/>
    <path d="M 118.524209 78.647316 
L 118.593296 74.175714 
L 122.129125 76.913945 
L 118.524209 78.647316 
z
" clip-path="url(#p669f038f9f)" style="stroke: #000000; stroke-linecap: round"/>
   </g>
   <g id="patch_79">
    <path d="M 133.365485 102.49153 
Q 144.908749 109.617755 155.500664 116.156666 
" clip-path="url(#p669f038f9f)" style="fill: none; stroke: #000000; stroke-linecap: round"/>
    <path d="M 153.147638 112.353606 
L 155.500664 116.156666 
L 151.0464 115.757251 
L 153.147638 112.353606 
z
" clip-path="url(#p669f038f9f)" style="stroke: #000000; stroke-linecap: round"/>
   </g>
   <g id="patch_80">
    <path d="M 251.770339 69.5033 
Q 254.99902 89.797954 258.052042 108.988459 
" clip-path="url(#p669f038f9f)" style="fill: none; stroke: #000000; stroke-linecap: round"/>
    <path d="M 259.398745 104.723909 
L 258.052042 108.988459 
L 255.448423 105.352367 
L 259.398745 104.723909 
z
" clip-path="url(#p669f038f9f)" style="stroke: #000000; stroke-linecap: round"/>
   </g>
   <g id="patch_81">
    <path d="M 249.574283 67.187751 
Q 233.233187 63.69413 217.985417 60.434256 
" clip-path="url(#p669f038f9f)" style="fill: none; stroke: #000000; stroke-linecap: round"/>
    <path d="M 221.478883 63.226333 
L 217.985417 60.434256 
L 222.315159 59.314729 
L 221.478883 63.226333 
z
" clip-path="url(#p669f038f9f)" style="stroke: #000000; stroke-linecap: round"/>
   </g>
   <g id="patch_82">
    <path d="M 251.813967 65.687701 
Q 254.451463 51.238807 256.88819 37.889773 
" clip-path="url(#p669f038f9f)" style="fill: none; stroke: #000000; stroke-linecap: round"/>
    <path d="M 254.202411 41.465607 
L 256.88819 37.889773 
L 258.13739 42.183897 
L 254.202411 41.465607 
z
" clip-path="url(#p669f038f9f)" style="stroke: #000000; stroke-linecap: round"/>
   </g>
   <g id="patch_83">
    <path d="M 232.040993 31.645526 
Q 224.021415 44.890574 216.580909 57.179235 
" clip-path="url(#p669f038f9f)" style="fill: none; stroke: #000000; stroke-linecap: round"/>
    <path d="M 220.363494 54.793433 
L 216.580909 57.179235 
L 216.941819 52.721686 
L 220.363494 54.793433 
z
" clip-path="url(#p669f038f9f)" style="stroke: #000000; stroke-linecap: round"/>
   </g>
   <g id="patch_84">
    <path d="M 234.940146 30.370585 
Q 245.239745 32.436685 254.443148 34.282889 
" clip-path="url(#p669f038f9f)" style="fill: none; stroke: #000000; stroke-linecap: round"/>
    <path d="M 250.914642 31.535227 
L 254.443148 34.282889 
L 250.127915 35.457096 
L 250.914642 31.535227 
z
" clip-path="url(#p669f038f9f)" style="stroke: #000000; stroke-linecap: round"/>
   </g>
   <g id="patch_85">
    <path d="M 420.112084 260.274891 
Q 415.425664 248.216497 411.144249 237.200203 
" clip-path="url(#p669f038f9f)" style="fill: none; stroke: #000000; stroke-linecap: round"/>
    <path d="M 410.729077 241.653026 
L 411.144249 237.200203 
L 414.457404 240.204035 
L 410.729077 241.653026 
z
" clip-path="url(#p669f038f9f)" style="stroke: #000000; stroke-linecap: round"/>
   </g>
   <g id="patch_86">
    <path d="M 257.089307 36.788002 
Q 254.451812 51.236896 252.015084 64.585929 
" clip-path="url(#p669f038f9f)" style="fill: none; stroke: #000000; stroke-linecap: round"/>
    <path d="M 254.700863 61.010095 
L 252.015084 64.585929 
L 250.765884 60.291806 
L 254.700863 61.010095 
z
" clip-path="url(#p669f038f9f)" style="stroke: #000000; stroke-linecap: round"/>
   </g>
   <g id="patch_87">
    <path d="M 255.540144 34.502946 
Q 245.240545 32.436846 236.037142 30.590642 
" clip-path="url(#p669f038f9f)" style="fill: none; stroke: #000000; stroke-linecap: round"/>
    <path d="M 239.565647 33.338304 
L 236.037142 30.590642 
L 240.352375 29.416435 
L 239.565647 33.338304 
z
" clip-path="url(#p669f038f9f)" style="stroke: #000000; stroke-linecap: round"/>
   </g>
   <g id="patch_88">
    <path d="M 157.112302 119.423577 
Q 141.181279 146.33147 125.819852 172.277302 
" clip-path="url(#p669f038f9f)" style="fill: none; stroke: #000000; stroke-linecap: round"/>
    <path d="M 129.578686 169.854252 
L 125.819852 172.277302 
L 126.136712 167.816405 
L 129.578686 169.854252 
z
" clip-path="url(#p669f038f9f)" style="stroke: #000000; stroke-linecap: round"/>
   </g>
   <g id="patch_89">
    <path d="M 156.452025 116.743988 
Q 144.908762 109.617763 134.316846 103.078852 
" clip-path="url(#p669f038f9f)" style="fill: none; stroke: #000000; stroke-linecap: round"/>
    <path d="M 136.669872 106.881912 
L 134.316846 103.078852 
L 138.77111 103.478267 
L 136.669872 106.881912 
z
" clip-path="url(#p669f038f9f)" style="stroke: #000000; stroke-linecap: round"/>
   </g>
   <g id="patch_90">
    <path d="M 159.511439 116.434958 
Q 174.623555 102.276818 188.919768 88.883076 
" clip-path="url(#p669f038f9f)" style="fill: none; stroke: #000000; stroke-linecap: round"/>
    <path d="M 184.633311 90.158337 
L 188.919768 88.883076 
L 187.368102 93.077398 
L 184.633311 90.158337 
z
" clip-path="url(#p669f038f9f)" style="stroke: #000000; stroke-linecap: round"/>
   </g>
   <g id="patch_91">
    <path d="M 159.138037 116.126623 
Q 170.020944 99.047781 180.303033 82.911818 
" clip-path="url(#p669f038f9f)" style="fill: none; stroke: #000000; stroke-linecap: round"/>
    <path d="M 176.466814 85.210388 
L 180.303033 82.911818 
L 179.840157 87.359935 
L 176.466814 85.210388 
z
" clip-path="url(#p669f038f9f)" style="stroke: #000000; stroke-linecap: round"/>
   </g>
   <g id="patch_92">
    <path d="M 189.733096 88.121091 
Q 174.62098 102.27923 160.324767 115.672972 
" clip-path="url(#p669f038f9f)" style="fill: none; stroke: #000000; stroke-linecap: round"/>
    <path d="M 164.611224 114.397712 
L 160.324767 115.672972 
L 161.876433 111.478651 
L 164.611224 114.397712 
z
" clip-path="url(#p669f038f9f)" style="stroke: #000000; stroke-linecap: round"/>
   </g>
   <g id="patch_93">
    <path d="M 189.563049 85.684562 
Q 186.54765 83.568326 184.447401 82.094352 
" clip-path="url(#p669f038f9f)" style="fill: none; stroke: #000000; stroke-linecap: round"/>
    <path d="M 186.572631 86.029246 
L 184.447401 82.094352 
L 188.870455 82.755104 
L 186.572631 86.029246 
z
" clip-path="url(#p669f038f9f)" style="stroke: #000000; stroke-linecap: round"/>
   </g>
   <g id="patch_94">
    <path d="M 192.431056 85.342757 
Q 203.073539 73.294116 212.975863 62.083428 
" clip-path="url(#p669f038f9f)" style="fill: none; stroke: #000000; stroke-linecap: round"/>
    <path d="M 208.828815 63.757345 
L 212.975863 62.083428 
L 211.826768 66.405416 
L 208.828815 63.757345 
z
" clip-path="url(#p669f038f9f)" style="stroke: #000000; stroke-linecap: round"/>
   </g>
   <g id="patch_95">
    <path d="M 180.902978 81.970309 
Q 170.020071 99.04915 159.737982 115.185113 
" clip-path="url(#p669f038f9f)" style="fill: none; stroke: #000000; stroke-linecap: round"/>
    <path d="M 163.574201 112.886543 
L 159.737982 115.185113 
L 160.200858 110.736996 
L 163.574201 112.886543 
z
" clip-path="url(#p669f038f9f)" style="stroke: #000000; stroke-linecap: round"/>
   </g>
   <g id="patch_96">
    <path d="M 183.527733 81.44892 
Q 186.543133 83.565156 188.643382 85.039131 
" clip-path="url(#p669f038f9f)" style="fill: none; stroke: #000000; stroke-linecap: round"/>
    <path d="M 186.518152 81.104236 
L 188.643382 85.039131 
L 184.220328 84.378378 
L 186.518152 81.104236 
z
" clip-path="url(#p669f038f9f)" style="stroke: #000000; stroke-linecap: round"/>
   </g>
   <g id="patch_97">
    <path d="M 183.585805 79.31661 
Q 198.468892 70.067119 212.402386 61.407777 
" clip-path="url(#p669f038f9f)" style="fill: none; stroke: #000000; stroke-linecap: round"/>
    <path d="M 207.949334 61.820477 
L 212.402386 61.407777 
L 210.060715 65.217839 
L 207.949334 61.820477 
z
" clip-path="url(#p669f038f9f)" style="stroke: #000000; stroke-linecap: round"/>
   </g>
   <g id="patch_98">
    <path d="M 216.888948 60.199838 
Q 233.230044 63.693458 248.477814 66.953333 
" clip-path="url(#p669f038f9f)" style="fill: none; stroke: #000000; stroke-linecap: round"/>
    <path d="M 244.984348 64.161255 
L 248.477814 66.953333 
L 244.148072 68.072859 
L 244.984348 64.161255 
z
" clip-path="url(#p669f038f9f)" style="stroke: #000000; stroke-linecap: round"/>
   </g>
   <g id="patch_99">
    <path d="M 215.999254 58.139891 
Q 224.018831 44.894843 231.459337 32.606182 
" clip-path="url(#p669f038f9f)" style="fill: none; stroke: #000000; stroke-linecap: round"/>
    <path d="M 227.676752 34.991984 
L 231.459337 32.606182 
L 231.098428 37.063731 
L 227.676752 34.991984 
z
" clip-path="url(#p669f038f9f)" style="stroke: #000000; stroke-linecap: round"/>
   </g>
   <g id="patch_100">
    <path d="M 213.713016 61.248877 
Q 203.070533 73.297518 193.168209 84.508206 
" clip-path="url(#p669f038f9f)" style="fill: none; stroke: #000000; stroke-linecap: round"/>
    <path d="M 197.315256 82.834289 
L 193.168209 84.508206 
L 194.317304 80.186218 
L 197.315256 82.834289 
z
" clip-path="url(#p669f038f9f)" style="stroke: #000000; stroke-linecap: round"/>
   </g>
   <g id="patch_101">
    <path d="M 213.354746 60.815907 
Q 198.47166 70.065398 184.538165 78.72474 
" clip-path="url(#p669f038f9f)" style="fill: none; stroke: #000000; stroke-linecap: round"/>
    <path d="M 188.991218 78.31204 
L 184.538165 78.72474 
L 186.879837 74.914678 
L 188.991218 78.31204 
z
" clip-path="url(#p669f038f9f)" style="stroke: #000000; stroke-linecap: round"/>
   </g>
   <g id="patch_102">
    <path d="M 137.058391 257.180742 
Q 134.063523 249.979829 131.497994 243.811229 
" clip-path="url(#p669f038f9f)" style="fill: none; stroke: #000000; stroke-linecap: round"/>
    <path d="M 131.187391 248.272565 
L 131.497994 243.811229 
L 134.880702 246.736513 
L 131.187391 248.272565 
z
" clip-path="url(#p669f038f9f)" style="stroke: #000000; stroke-linecap: round"/>
   </g>
   <g id="patch_103">
    <path d="M 135.90773 258.576444 
Q 113.973478 254.049817 93.134186 249.749159 
" clip-path="url(#p669f038f9f)" style="fill: none; stroke: #000000; stroke-linecap: round"/>
    <path d="M 96.647407 252.516337 
L 93.134186 249.749159 
L 97.455861 248.598889 
L 96.647407 252.516337 
z
" clip-path="url(#p669f038f9f)" style="stroke: #000000; stroke-linecap: round"/>
   </g>
   <g id="patch_104">
    <path d="M 139.289237 257.722843 
Q 151.19637 247.763906 162.245894 238.522261 
" clip-path="url(#p669f038f9f)" style="fill: none; stroke: #000000; stroke-linecap: round"/>
    <path d="M 157.894489 239.55438 
L 162.245894 238.522261 
L 160.460747 242.622657 
L 157.894489 239.55438 
z
" clip-path="url(#p669f038f9f)" style="stroke: #000000; stroke-linecap: round"/>
   </g>
   <g id="patch_105">
    <path d="M 139.580185 259.732843 
Q 155.882349 266.749366 171.15756 273.323884 
" clip-path="url(#p669f038f9f)" style="fill: none; stroke: #000000; stroke-linecap: round"/>
    <path d="M 168.274106 269.90545 
L 171.15756 273.323884 
L 166.692741 273.579588 
L 168.274106 269.90545 
z
" clip-path="url(#p669f038f9f)" style="stroke: #000000; stroke-linecap: round"/>
   </g>
   <g id="patch_106">
    <path d="M 164.360952 234.636408 
Q 162.441579 218.425207 160.65366 203.324285 
" clip-path="url(#p669f038f9f)" style="fill: none; stroke: #000000; stroke-linecap: round"/>
    <path d="M 159.137839 207.531693 
L 160.65366 203.324285 
L 163.110094 207.061386 
L 159.137839 207.531693 
z
" clip-path="url(#p669f038f9f)" style="stroke: #000000; stroke-linecap: round"/>
   </g>
   <g id="patch_107">
    <path d="M 162.963627 235.511214 
Q 146.813044 225.064824 131.601236 215.225644 
" clip-path="url(#p669f038f9f)" style="fill: none; stroke: #000000; stroke-linecap: round"/>
    <path d="M 133.873684 219.077394 
L 131.601236 215.225644 
L 136.046105 215.718735 
L 133.873684 219.077394 
z
" clip-path="url(#p669f038f9f)" style="stroke: #000000; stroke-linecap: round"/>
   </g>
   <g id="patch_108">
    <path d="M 163.101164 237.806927 
Q 151.19403 247.765864 140.144506 257.007509 
" clip-path="url(#p669f038f9f)" style="fill: none; stroke: #000000; stroke-linecap: round"/>
    <path d="M 144.495911 255.97539 
L 140.144506 257.007509 
L 141.929654 252.907114 
L 144.495911 255.97539 
z
" clip-path="url(#p669f038f9f)" style="stroke: #000000; stroke-linecap: round"/>
   </g>
   <g id="patch_109">
    <path d="M 166.246351 237.561409 
Q 186.594084 249.824973 205.984253 261.511414 
" clip-path="url(#p669f038f9f)" style="fill: none; stroke: #000000; stroke-linecap: round"/>
    <path d="M 203.590758 257.733693 
L 205.984253 261.511414 
L 201.525979 261.159578 
L 203.590758 257.733693 
z
" clip-path="url(#p669f038f9f)" style="stroke: #000000; stroke-linecap: round"/>
   </g>
   <g id="patch_110">
    <path d="M 409.084344 232.660118 
Q 400.448276 217.330149 392.360962 202.974278 
" clip-path="url(#p669f038f9f)" style="fill: none; stroke: #000000; stroke-linecap: round"/>
    <path d="M 392.581724 207.440962 
L 392.360962 202.974278 
L 396.066766 205.477679 
L 392.581724 207.440962 
z
" clip-path="url(#p669f038f9f)" style="stroke: #000000; stroke-linecap: round"/>
   </g>
   <g id="patch_111">
    <path d="M 410.738127 236.155231 
Q 415.424547 248.213624 419.705962 259.229919 
" clip-path="url(#p669f038f9f)" style="fill: none; stroke: #000000; stroke-linecap: round"/>
    <path d="M 420.121134 254.777096 
L 419.705962 259.229919 
L 416.392807 256.226087 
L 420.121134 254.777096 
z
" clip-path="url(#p669f038f9f)" style="stroke: #000000; stroke-linecap: round"/>
   </g>
   <g id="patch_112">
    <path d="M 408.104881 234.446238 
Q 400.90015 234.800762 394.812102 235.100337 
" clip-path="url(#p669f038f9f)" style="fill: none; stroke: #000000; stroke-linecap: round"/>
    <path d="M 398.905563 236.901329 
L 394.812102 235.100337 
L 398.708973 232.906163 
L 398.905563 236.901329 
z
" clip-path="url(#p669f038f9f)" style="stroke: #000000; stroke-linecap: round"/>
   </g>
   <g id="patch_113">
    <path d="M 393.692165 235.155446 
Q 400.896896 234.800922 406.984944 234.501347 
" clip-path="url(#p669f038f9f)" style="fill: none; stroke: #000000; stroke-linecap: round"/>
    <path d="M 402.891482 232.700354 
L 406.984944 234.501347 
L 403.088073 236.69552 
L 402.891482 232.700354 
z
" clip-path="url(#p669f038f9f)" style="stroke: #000000; stroke-linecap: round"/>
   </g>
   <g id="patch_114">
    <path d="M 391.514276 233.328828 
Q 390.564363 225.901776 389.75629 219.583725 
" clip-path="url(#p669f038f9f)" style="fill: none; stroke: #000000; stroke-linecap: round"/>
    <path d="M 388.279913 223.805136 
L 389.75629 219.583725 
L 392.247592 223.297674 
L 388.279913 223.805136 
z
" clip-path="url(#p669f038f9f)" style="stroke: #000000; stroke-linecap: round"/>
   </g>
   <g id="patch_115">
    <path d="M 389.546374 214.623117 
Q 390.115873 208.431077 390.582976 203.352373 
" clip-path="url(#p669f038f9f)" style="fill: none; stroke: #000000; stroke-linecap: round"/>
    <path d="M 388.225036 207.152389 
L 390.582976 203.352373 
L 392.208225 207.518734 
L 388.225036 207.152389 
z
" clip-path="url(#p669f038f9f)" style="stroke: #000000; stroke-linecap: round"/>
   </g>
   <g id="patch_116">
    <path d="M 389.61457 218.475662 
Q 390.564483 225.902714 391.372556 232.220765 
" clip-path="url(#p669f038f9f)" style="fill: none; stroke: #000000; stroke-linecap: round"/>
    <path d="M 392.848933 227.999354 
L 391.372556 232.220765 
L 388.881253 228.506816 
L 392.848933 227.999354 
z
" clip-path="url(#p669f038f9f)" style="stroke: #000000; stroke-linecap: round"/>
   </g>
   <g id="patch_117">
    <path d="M 302.090403 238.654521 
Q 317.294403 223.804057 331.698589 209.734808 
" clip-path="url(#p669f038f9f)" style="fill: none; stroke: #000000; stroke-linecap: round"/>
    <path d="M 327.439608 211.09902 
L 331.698589 209.734808 
L 330.23457 213.96052 
L 327.439608 211.09902 
z
" clip-path="url(#p669f038f9f)" style="stroke: #000000; stroke-linecap: round"/>
   </g>
   <g id="patch_118">
    <path d="M 298.968635 240.875073 
Q 278.807297 250.936432 259.646342 260.498557 
" clip-path="url(#p669f038f9f)" style="fill: none; stroke: #000000; stroke-linecap: round"/>
    <path d="M 264.118476 260.501985 
L 259.646342 260.498557 
L 262.332365 256.922906 
L 264.118476 260.501985 
z
" clip-path="url(#p669f038f9f)" style="stroke: #000000; stroke-linecap: round"/>
   </g>
   <g id="patch_119">
    <path d="M 258.647931 260.996806 
Q 278.809269 250.935447 297.970225 241.373322 
" clip-path="url(#p669f038f9f)" style="fill: none; stroke: #000000; stroke-linecap: round"/>
    <path d="M 293.49809 241.369894 
L 297.970225 241.373322 
L 295.284202 244.948973 
L 293.49809 241.369894 
z
" clip-path="url(#p669f038f9f)" style="stroke: #000000; stroke-linecap: round"/>
   </g>
   <g id="patch_120">
    <path d="M 255.467587 263.148807 
Q 247.28452 270.429752 239.936721 276.96751 
" clip-path="url(#p669f038f9f)" style="fill: none; stroke: #000000; stroke-linecap: round"/>
    <path d="M 244.254521 275.802779 
L 239.936721 276.96751 
L 241.595616 272.814431 
L 244.254521 275.802779 
z
" clip-path="url(#p669f038f9f)" style="stroke: #000000; stroke-linecap: round"/>
   </g>
   <g id="patch_121">
    <path d="M 254.975916 261.911556 
Q 232.754017 262.474872 211.649793 263.009855 
" clip-path="url(#p669f038f9f)" style="fill: none; stroke: #000000; stroke-linecap: round"/>
    <path d="M 215.699192 264.907847 
L 211.649793 263.009855 
L 215.597826 260.909132 
L 215.699192 264.907847 
z
" clip-path="url(#p669f038f9f)" style="stroke: #000000; stroke-linecap: round"/>
   </g>
   <g id="patch_122">
    <path d="M 239.101273 277.710856 
Q 247.28434 270.429911 254.632139 263.892153 
" clip-path="url(#p669f038f9f)" style="fill: none; stroke: #000000; stroke-linecap: round"/>
    <path d="M 250.314339 265.056883 
L 254.632139 263.892153 
L 252.973244 268.045232 
L 250.314339 265.056883 
z
" clip-path="url(#p669f038f9f)" style="stroke: #000000; stroke-linecap: round"/>
   </g>
   <g id="patch_123">
    <path d="M 235.956531 278.066934 
Q 223.127583 271.042439 211.279286 264.554901 
" clip-path="url(#p669f038f9f)" style="fill: none; stroke: #000000; stroke-linecap: round"/>
    <path d="M 213.827237 268.230217 
L 211.279286 264.554901 
L 215.74831 264.72173 
L 213.827237 268.230217 
z
" clip-path="url(#p669f038f9f)" style="stroke: #000000; stroke-linecap: round"/>
   </g>
   <g id="patch_124">
    <path d="M 206.941443 262.088312 
Q 186.59371 249.824748 167.203542 238.138307 
" clip-path="url(#p669f038f9f)" style="fill: none; stroke: #000000; stroke-linecap: round"/>
    <path d="M 169.597037 241.916028 
L 167.203542 238.138307 
L 171.661816 238.490143 
L 169.597037 241.916028 
z
" clip-path="url(#p669f038f9f)" style="stroke: #000000; stroke-linecap: round"/>
   </g>
   <g id="patch_125">
    <path d="M 210.536212 263.038084 
Q 232.758111 262.474768 253.862335 261.939785 
" clip-path="url(#p669f038f9f)" style="fill: none; stroke: #000000; stroke-linecap: round"/>
    <path d="M 249.812937 260.041793 
L 253.862335 261.939785 
L 249.914302 264.040508 
L 249.812937 260.041793 
z
" clip-path="url(#p669f038f9f)" style="stroke: #000000; stroke-linecap: round"/>
   </g>
   <g id="patch_126">
    <path d="M 210.297791 264.017482 
Q 223.126739 271.041977 234.975035 277.529515 
" clip-path="url(#p669f038f9f)" style="fill: none; stroke: #000000; stroke-linecap: round"/>
    <path d="M 232.427085 273.854199 
L 234.975035 277.529515 
L 230.506012 277.362686 
L 232.427085 273.854199 
z
" clip-path="url(#p669f038f9f)" style="stroke: #000000; stroke-linecap: round"/>
   </g>
   <g id="patch_127">
    <path d="M 206.75944 263.694813 
Q 191.278472 268.808833 176.859112 273.572158 
" clip-path="url(#p669f038f9f)" style="fill: none; stroke: #000000; stroke-linecap: round"/>
    <path d="M 181.284581 274.21654 
L 176.859112 273.572158 
L 180.029898 270.418412 
L 181.284581 274.21654 
z
" clip-path="url(#p669f038f9f)" style="stroke: #000000; stroke-linecap: round"/>
   </g>
   <g id="patch_128">
    <path d="M 172.180941 273.764351 
Q 155.878777 266.747828 140.603566 260.17331 
" clip-path="url(#p669f038f9f)" style="fill: none; stroke: #000000; stroke-linecap: round"/>
    <path d="M 143.487021 263.591744 
L 140.603566 260.17331 
L 145.068386 259.917606 
L 143.487021 263.591744 
z
" clip-path="url(#p669f038f9f)" style="stroke: #000000; stroke-linecap: round"/>
   </g>
   <g id="patch_129">
    <path d="M 175.799081 273.922331 
Q 191.280049 268.808312 205.699409 264.044986 
" clip-path="url(#p669f038f9f)" style="fill: none; stroke: #000000; stroke-linecap: round"/>
    <path d="M 201.27394 263.400605 
L 205.699409 264.044986 
L 202.528623 267.198733 
L 201.27394 263.400605 
z
" clip-path="url(#p669f038f9f)" style="stroke: #000000; stroke-linecap: round"/>
   </g>
   <g id="PathCollection_1">
    <defs>
     <path id="mac617e3fdc" d="M 0 1.936492 
C 0.513564 1.936492 1.006162 1.732451 1.369306 1.369306 
C 1.732451 1.006162 1.936492 0.513564 1.936492 0 
C 1.936492 -0.513564 1.732451 -1.006162 1.369306 -1.369306 
C 1.006162 -1.732451 0.513564 -1.936492 0 -1.936492 
C -0.513564 -1.936492 -1.006162 -1.732451 -1.369306 -1.369306 
C -1.732451 -1.006162 -1.936492 -0.513564 -1.936492 0 
C -1.936492 0.513564 -1.732451 1.006162 -1.369306 1.369306 
C -1.006162 1.732451 -0.513564 1.936492 0 1.936492 
z
" style="stroke: #1f78b4"/>
    </defs>
    <g clip-path="url(#p669f038f9f)">
     <use xlink:href="#mac617e3fdc" x="198.417273" y="131.347051" style="fill: #1f78b4; stroke: #1f78b4"/>
     <use xlink:href="#mac617e3fdc" x="258.531853" y="112.004433" style="fill: #1f78b4; stroke: #1f78b4"/>
     <use xlink:href="#mac617e3fdc" x="160.294352" y="200.289541" style="fill: #1f78b4; stroke: #1f78b4"/>
     <use xlink:href="#mac617e3fdc" x="172.845982" y="160.528173" style="fill: #1f78b4; stroke: #1f78b4"/>
     <use xlink:href="#mac617e3fdc" x="390.862407" y="200.314178" style="fill: #1f78b4; stroke: #1f78b4"/>
     <use xlink:href="#mac617e3fdc" x="350.619558" y="173.035265" style="fill: #1f78b4; stroke: #1f78b4"/>
     <use xlink:href="#mac617e3fdc" x="314.230558" y="137.43964" style="fill: #1f78b4; stroke: #1f78b4"/>
     <use xlink:href="#mac617e3fdc" x="347.095623" y="144.948689" style="fill: #1f78b4; stroke: #1f78b4"/>
     <use xlink:href="#mac617e3fdc" x="333.881908" y="207.602257" style="fill: #1f78b4; stroke: #1f78b4"/>
     <use xlink:href="#mac617e3fdc" x="356.419843" y="192.122522" style="fill: #1f78b4; stroke: #1f78b4"/>
     <use xlink:href="#mac617e3fdc" x="64.909361" y="202.97518" style="fill: #1f78b4; stroke: #1f78b4"/>
     <use xlink:href="#mac617e3fdc" x="100.241445" y="159.350994" style="fill: #1f78b4; stroke: #1f78b4"/>
     <use xlink:href="#mac617e3fdc" x="142.672938" y="136.897842" style="fill: #1f78b4; stroke: #1f78b4"/>
     <use xlink:href="#mac617e3fdc" x="106.717999" y="177.291047" style="fill: #1f78b4; stroke: #1f78b4"/>
     <use xlink:href="#mac617e3fdc" x="129.034772" y="213.565625" style="fill: #1f78b4; stroke: #1f78b4"/>
     <use xlink:href="#mac617e3fdc" x="130.323842" y="240.988078" style="fill: #1f78b4; stroke: #1f78b4"/>
     <use xlink:href="#mac617e3fdc" x="94.161521" y="224.445488" style="fill: #1f78b4; stroke: #1f78b4"/>
     <use xlink:href="#mac617e3fdc" x="90.142586" y="249.131775" style="fill: #1f78b4; stroke: #1f78b4"/>
     <use xlink:href="#mac617e3fdc" x="51.555981" y="239.733121" style="fill: #1f78b4; stroke: #1f78b4"/>
     <use xlink:href="#mac617e3fdc" x="39.986777" y="270.132245" style="fill: #1f78b4; stroke: #1f78b4"/>
     <use xlink:href="#mac617e3fdc" x="71.426751" y="279.793159" style="fill: #1f78b4; stroke: #1f78b4"/>
     <use xlink:href="#mac617e3fdc" x="124.261774" y="174.908936" style="fill: #1f78b4; stroke: #1f78b4"/>
     <use xlink:href="#mac617e3fdc" x="87.623288" y="271.155479" style="fill: #1f78b4; stroke: #1f78b4"/>
     <use xlink:href="#mac617e3fdc" x="68.145625" y="315.609917" style="fill: #1f78b4; stroke: #1f78b4"/>
     <use xlink:href="#mac617e3fdc" x="98.048395" y="236.716845" style="fill: #1f78b4; stroke: #1f78b4"/>
     <use xlink:href="#mac617e3fdc" x="117.269649" y="71.422906" style="fill: #1f78b4; stroke: #1f78b4"/>
     <use xlink:href="#mac617e3fdc" x="131.720126" y="101.475769" style="fill: #1f78b4; stroke: #1f78b4"/>
     <use xlink:href="#mac617e3fdc" x="251.466311" y="67.592254" style="fill: #1f78b4; stroke: #1f78b4"/>
     <use xlink:href="#mac617e3fdc" x="233.043326" y="29.990083" style="fill: #1f78b4; stroke: #1f78b4"/>
     <use xlink:href="#mac617e3fdc" x="420.813223" y="262.078957" style="fill: #1f78b4; stroke: #1f78b4"/>
     <use xlink:href="#mac617e3fdc" x="257.436964" y="34.883449" style="fill: #1f78b4; stroke: #1f78b4"/>
     <use xlink:href="#mac617e3fdc" x="158.097384" y="117.759749" style="fill: #1f78b4; stroke: #1f78b4"/>
     <use xlink:href="#mac617e3fdc" x="191.147151" y="86.7963" style="fill: #1f78b4; stroke: #1f78b4"/>
     <use xlink:href="#mac617e3fdc" x="181.943631" y="80.337183" style="fill: #1f78b4; stroke: #1f78b4"/>
     <use xlink:href="#mac617e3fdc" x="214.99692" y="59.795334" style="fill: #1f78b4; stroke: #1f78b4"/>
     <use xlink:href="#mac617e3fdc" x="137.8014" y="258.967246" style="fill: #1f78b4; stroke: #1f78b4"/>
     <use xlink:href="#mac617e3fdc" x="164.589" y="236.562525" style="fill: #1f78b4; stroke: #1f78b4"/>
     <use xlink:href="#mac617e3fdc" x="410.036988" y="234.351165" style="fill: #1f78b4; stroke: #1f78b4"/>
     <use xlink:href="#mac617e3fdc" x="391.760058" y="235.250519" style="fill: #1f78b4; stroke: #1f78b4"/>
     <use xlink:href="#mac617e3fdc" x="389.368787" y="216.553971" style="fill: #1f78b4; stroke: #1f78b4"/>
     <use xlink:href="#mac617e3fdc" x="300.703233" y="240.009436" style="fill: #1f78b4; stroke: #1f78b4"/>
     <use xlink:href="#mac617e3fdc" x="256.913333" y="261.862443" style="fill: #1f78b4; stroke: #1f78b4"/>
     <use xlink:href="#mac617e3fdc" x="237.655527" y="278.997219" style="fill: #1f78b4; stroke: #1f78b4"/>
     <use xlink:href="#mac617e3fdc" x="208.598795" y="263.087197" style="fill: #1f78b4; stroke: #1f78b4"/>
     <use xlink:href="#mac617e3fdc" x="173.959726" y="274.529948" style="fill: #1f78b4; stroke: #1f78b4"/>
    </g>
   </g>
   <g id="text_1">
    <g clip-path="url(#p669f038f9f)">
     <!-- 0 -->
     <g transform="translate(195.236023 134.106426) scale(0.1 -0.1)">
      <defs>
       <path id="DejaVuSans-30" d="M 2034 4250 
Q 1547 4250 1301 3770 
Q 1056 3291 1056 2328 
Q 1056 1369 1301 889 
Q 1547 409 2034 409 
Q 2525 409 2770 889 
Q 3016 1369 3016 2328 
Q 3016 3291 2770 3770 
Q 2525 4250 2034 4250 
z
M 2034 4750 
Q 2819 4750 3233 4129 
Q 3647 3509 3647 2328 
Q 3647 1150 3233 529 
Q 2819 -91 2034 -91 
Q 1250 -91 836 529 
Q 422 1150 422 2328 
Q 422 3509 836 4129 
Q 1250 4750 2034 4750 
z
" transform="scale(0.015625)"/>
      </defs>
      <use xlink:href="#DejaVuSans-30"/>
     </g>
    </g>
   </g>
   <g id="text_2">
    <g clip-path="url(#p669f038f9f)">
     <!-- 1 -->
     <g transform="translate(255.350603 114.763808) scale(0.1 -0.1)">
      <defs>
       <path id="DejaVuSans-31" d="M 794 531 
L 1825 531 
L 1825 4091 
L 703 3866 
L 703 4441 
L 1819 4666 
L 2450 4666 
L 2450 531 
L 3481 531 
L 3481 0 
L 794 0 
L 794 531 
z
" transform="scale(0.015625)"/>
      </defs>
      <use xlink:href="#DejaVuSans-31"/>
     </g>
    </g>
   </g>
   <g id="text_3">
    <g clip-path="url(#p669f038f9f)">
     <!-- 2 -->
     <g transform="translate(157.113102 203.048916) scale(0.1 -0.1)">
      <defs>
       <path id="DejaVuSans-32" d="M 1228 531 
L 3431 531 
L 3431 0 
L 469 0 
L 469 531 
Q 828 903 1448 1529 
Q 2069 2156 2228 2338 
Q 2531 2678 2651 2914 
Q 2772 3150 2772 3378 
Q 2772 3750 2511 3984 
Q 2250 4219 1831 4219 
Q 1534 4219 1204 4116 
Q 875 4013 500 3803 
L 500 4441 
Q 881 4594 1212 4672 
Q 1544 4750 1819 4750 
Q 2544 4750 2975 4387 
Q 3406 4025 3406 3419 
Q 3406 3131 3298 2873 
Q 3191 2616 2906 2266 
Q 2828 2175 2409 1742 
Q 1991 1309 1228 531 
z
" transform="scale(0.015625)"/>
      </defs>
      <use xlink:href="#DejaVuSans-32"/>
     </g>
    </g>
   </g>
   <g id="text_4">
    <g clip-path="url(#p669f038f9f)">
     <!-- 3 -->
     <g transform="translate(169.664732 163.287548) scale(0.1 -0.1)">
      <defs>
       <path id="DejaVuSans-33" d="M 2597 2516 
Q 3050 2419 3304 2112 
Q 3559 1806 3559 1356 
Q 3559 666 3084 287 
Q 2609 -91 1734 -91 
Q 1441 -91 1130 -33 
Q 819 25 488 141 
L 488 750 
Q 750 597 1062 519 
Q 1375 441 1716 441 
Q 2309 441 2620 675 
Q 2931 909 2931 1356 
Q 2931 1769 2642 2001 
Q 2353 2234 1838 2234 
L 1294 2234 
L 1294 2753 
L 1863 2753 
Q 2328 2753 2575 2939 
Q 2822 3125 2822 3475 
Q 2822 3834 2567 4026 
Q 2313 4219 1838 4219 
Q 1578 4219 1281 4162 
Q 984 4106 628 3988 
L 628 4550 
Q 988 4650 1302 4700 
Q 1616 4750 1894 4750 
Q 2613 4750 3031 4423 
Q 3450 4097 3450 3541 
Q 3450 3153 3228 2886 
Q 3006 2619 2597 2516 
z
" transform="scale(0.015625)"/>
      </defs>
      <use xlink:href="#DejaVuSans-33"/>
     </g>
    </g>
   </g>
   <g id="text_5">
    <g clip-path="url(#p669f038f9f)">
     <!-- 4 -->
     <g transform="translate(387.681157 203.073553) scale(0.1 -0.1)">
      <defs>
       <path id="DejaVuSans-34" d="M 2419 4116 
L 825 1625 
L 2419 1625 
L 2419 4116 
z
M 2253 4666 
L 3047 4666 
L 3047 1625 
L 3713 1625 
L 3713 1100 
L 3047 1100 
L 3047 0 
L 2419 0 
L 2419 1100 
L 313 1100 
L 313 1709 
L 2253 4666 
z
" transform="scale(0.015625)"/>
      </defs>
      <use xlink:href="#DejaVuSans-34"/>
     </g>
    </g>
   </g>
   <g id="text_6">
    <g clip-path="url(#p669f038f9f)">
     <!-- 5 -->
     <g transform="translate(347.438308 175.79464) scale(0.1 -0.1)">
      <defs>
       <path id="DejaVuSans-35" d="M 691 4666 
L 3169 4666 
L 3169 4134 
L 1269 4134 
L 1269 2991 
Q 1406 3038 1543 3061 
Q 1681 3084 1819 3084 
Q 2600 3084 3056 2656 
Q 3513 2228 3513 1497 
Q 3513 744 3044 326 
Q 2575 -91 1722 -91 
Q 1428 -91 1123 -41 
Q 819 9 494 109 
L 494 744 
Q 775 591 1075 516 
Q 1375 441 1709 441 
Q 2250 441 2565 725 
Q 2881 1009 2881 1497 
Q 2881 1984 2565 2268 
Q 2250 2553 1709 2553 
Q 1456 2553 1204 2497 
Q 953 2441 691 2322 
L 691 4666 
z
" transform="scale(0.015625)"/>
      </defs>
      <use xlink:href="#DejaVuSans-35"/>
     </g>
    </g>
   </g>
   <g id="text_7">
    <g clip-path="url(#p669f038f9f)">
     <!-- 6 -->
     <g transform="translate(311.049308 140.199015) scale(0.1 -0.1)">
      <defs>
       <path id="DejaVuSans-36" d="M 2113 2584 
Q 1688 2584 1439 2293 
Q 1191 2003 1191 1497 
Q 1191 994 1439 701 
Q 1688 409 2113 409 
Q 2538 409 2786 701 
Q 3034 994 3034 1497 
Q 3034 2003 2786 2293 
Q 2538 2584 2113 2584 
z
M 3366 4563 
L 3366 3988 
Q 3128 4100 2886 4159 
Q 2644 4219 2406 4219 
Q 1781 4219 1451 3797 
Q 1122 3375 1075 2522 
Q 1259 2794 1537 2939 
Q 1816 3084 2150 3084 
Q 2853 3084 3261 2657 
Q 3669 2231 3669 1497 
Q 3669 778 3244 343 
Q 2819 -91 2113 -91 
Q 1303 -91 875 529 
Q 447 1150 447 2328 
Q 447 3434 972 4092 
Q 1497 4750 2381 4750 
Q 2619 4750 2861 4703 
Q 3103 4656 3366 4563 
z
" transform="scale(0.015625)"/>
      </defs>
      <use xlink:href="#DejaVuSans-36"/>
     </g>
    </g>
   </g>
   <g id="text_8">
    <g clip-path="url(#p669f038f9f)">
     <!-- 7 -->
     <g transform="translate(343.914373 147.708064) scale(0.1 -0.1)">
      <defs>
       <path id="DejaVuSans-37" d="M 525 4666 
L 3525 4666 
L 3525 4397 
L 1831 0 
L 1172 0 
L 2766 4134 
L 525 4134 
L 525 4666 
z
" transform="scale(0.015625)"/>
      </defs>
      <use xlink:href="#DejaVuSans-37"/>
     </g>
    </g>
   </g>
   <g id="text_9">
    <g clip-path="url(#p669f038f9f)">
     <!-- 8 -->
     <g transform="translate(330.700658 210.361632) scale(0.1 -0.1)">
      <defs>
       <path id="DejaVuSans-38" d="M 2034 2216 
Q 1584 2216 1326 1975 
Q 1069 1734 1069 1313 
Q 1069 891 1326 650 
Q 1584 409 2034 409 
Q 2484 409 2743 651 
Q 3003 894 3003 1313 
Q 3003 1734 2745 1975 
Q 2488 2216 2034 2216 
z
M 1403 2484 
Q 997 2584 770 2862 
Q 544 3141 544 3541 
Q 544 4100 942 4425 
Q 1341 4750 2034 4750 
Q 2731 4750 3128 4425 
Q 3525 4100 3525 3541 
Q 3525 3141 3298 2862 
Q 3072 2584 2669 2484 
Q 3125 2378 3379 2068 
Q 3634 1759 3634 1313 
Q 3634 634 3220 271 
Q 2806 -91 2034 -91 
Q 1263 -91 848 271 
Q 434 634 434 1313 
Q 434 1759 690 2068 
Q 947 2378 1403 2484 
z
M 1172 3481 
Q 1172 3119 1398 2916 
Q 1625 2713 2034 2713 
Q 2441 2713 2670 2916 
Q 2900 3119 2900 3481 
Q 2900 3844 2670 4047 
Q 2441 4250 2034 4250 
Q 1625 4250 1398 4047 
Q 1172 3844 1172 3481 
z
" transform="scale(0.015625)"/>
      </defs>
      <use xlink:href="#DejaVuSans-38"/>
     </g>
    </g>
   </g>
   <g id="text_10">
    <g clip-path="url(#p669f038f9f)">
     <!-- 9 -->
     <g transform="translate(353.238593 194.881897) scale(0.1 -0.1)">
      <defs>
       <path id="DejaVuSans-39" d="M 703 97 
L 703 672 
Q 941 559 1184 500 
Q 1428 441 1663 441 
Q 2288 441 2617 861 
Q 2947 1281 2994 2138 
Q 2813 1869 2534 1725 
Q 2256 1581 1919 1581 
Q 1219 1581 811 2004 
Q 403 2428 403 3163 
Q 403 3881 828 4315 
Q 1253 4750 1959 4750 
Q 2769 4750 3195 4129 
Q 3622 3509 3622 2328 
Q 3622 1225 3098 567 
Q 2575 -91 1691 -91 
Q 1453 -91 1209 -44 
Q 966 3 703 97 
z
M 1959 2075 
Q 2384 2075 2632 2365 
Q 2881 2656 2881 3163 
Q 2881 3666 2632 3958 
Q 2384 4250 1959 4250 
Q 1534 4250 1286 3958 
Q 1038 3666 1038 3163 
Q 1038 2656 1286 2365 
Q 1534 2075 1959 2075 
z
" transform="scale(0.015625)"/>
      </defs>
      <use xlink:href="#DejaVuSans-39"/>
     </g>
    </g>
   </g>
   <g id="text_11">
    <g clip-path="url(#p669f038f9f)">
     <!-- 10 -->
     <g transform="translate(58.546861 205.734555) scale(0.1 -0.1)">
      <use xlink:href="#DejaVuSans-31"/>
      <use xlink:href="#DejaVuSans-30" x="63.623047"/>
     </g>
    </g>
   </g>
   <g id="text_12">
    <g clip-path="url(#p669f038f9f)">
     <!-- 11 -->
     <g transform="translate(93.878945 162.110369) scale(0.1 -0.1)">
      <use xlink:href="#DejaVuSans-31"/>
      <use xlink:href="#DejaVuSans-31" x="63.623047"/>
     </g>
    </g>
   </g>
   <g id="text_13">
    <g clip-path="url(#p669f038f9f)">
     <!-- 12 -->
     <g transform="translate(136.310438 139.657217) scale(0.1 -0.1)">
      <use xlink:href="#DejaVuSans-31"/>
      <use xlink:href="#DejaVuSans-32" x="63.623047"/>
     </g>
    </g>
   </g>
   <g id="text_14">
    <g clip-path="url(#p669f038f9f)">
     <!-- 13 -->
     <g transform="translate(100.355499 180.050422) scale(0.1 -0.1)">
      <use xlink:href="#DejaVuSans-31"/>
      <use xlink:href="#DejaVuSans-33" x="63.623047"/>
     </g>
    </g>
   </g>
   <g id="text_15">
    <g clip-path="url(#p669f038f9f)">
     <!-- 14 -->
     <g transform="translate(122.672272 216.325) scale(0.1 -0.1)">
      <use xlink:href="#DejaVuSans-31"/>
      <use xlink:href="#DejaVuSans-34" x="63.623047"/>
     </g>
    </g>
   </g>
   <g id="text_16">
    <g clip-path="url(#p669f038f9f)">
     <!-- 15 -->
     <g transform="translate(123.961342 243.747453) scale(0.1 -0.1)">
      <use xlink:href="#DejaVuSans-31"/>
      <use xlink:href="#DejaVuSans-35" x="63.623047"/>
     </g>
    </g>
   </g>
   <g id="text_17">
    <g clip-path="url(#p669f038f9f)">
     <!-- 16 -->
     <g transform="translate(87.799021 227.204863) scale(0.1 -0.1)">
      <use xlink:href="#DejaVuSans-31"/>
      <use xlink:href="#DejaVuSans-36" x="63.623047"/>
     </g>
    </g>
   </g>
   <g id="text_18">
    <g clip-path="url(#p669f038f9f)">
     <!-- 17 -->
     <g transform="translate(83.780086 251.89115) scale(0.1 -0.1)">
      <use xlink:href="#DejaVuSans-31"/>
      <use xlink:href="#DejaVuSans-37" x="63.623047"/>
     </g>
    </g>
   </g>
   <g id="text_19">
    <g clip-path="url(#p669f038f9f)">
     <!-- 18 -->
     <g transform="translate(45.193481 242.492496) scale(0.1 -0.1)">
      <use xlink:href="#DejaVuSans-31"/>
      <use xlink:href="#DejaVuSans-38" x="63.623047"/>
     </g>
    </g>
   </g>
   <g id="text_20">
    <g clip-path="url(#p669f038f9f)">
     <!-- 19 -->
     <g transform="translate(33.624277 272.89162) scale(0.1 -0.1)">
      <use xlink:href="#DejaVuSans-31"/>
      <use xlink:href="#DejaVuSans-39" x="63.623047"/>
     </g>
    </g>
   </g>
   <g id="text_21">
    <g clip-path="url(#p669f038f9f)">
     <!-- 20 -->
     <g transform="translate(65.064251 282.552534) scale(0.1 -0.1)">
      <use xlink:href="#DejaVuSans-32"/>
      <use xlink:href="#DejaVuSans-30" x="63.623047"/>
     </g>
    </g>
   </g>
   <g id="text_22">
    <g clip-path="url(#p669f038f9f)">
     <!-- 21 -->
     <g transform="translate(117.899274 177.668311) scale(0.1 -0.1)">
      <use xlink:href="#DejaVuSans-32"/>
      <use xlink:href="#DejaVuSans-31" x="63.623047"/>
     </g>
    </g>
   </g>
   <g id="text_23">
    <g clip-path="url(#p669f038f9f)">
     <!-- 22 -->
     <g transform="translate(81.260788 273.914854) scale(0.1 -0.1)">
      <use xlink:href="#DejaVuSans-32"/>
      <use xlink:href="#DejaVuSans-32" x="63.623047"/>
     </g>
    </g>
   </g>
   <g id="text_24">
    <g clip-path="url(#p669f038f9f)">
     <!-- 23 -->
     <g transform="translate(61.783125 318.369292) scale(0.1 -0.1)">
      <use xlink:href="#DejaVuSans-32"/>
      <use xlink:href="#DejaVuSans-33" x="63.623047"/>
     </g>
    </g>
   </g>
   <g id="text_25">
    <g clip-path="url(#p669f038f9f)">
     <!-- 24 -->
     <g transform="translate(91.685895 239.47622) scale(0.1 -0.1)">
      <use xlink:href="#DejaVuSans-32"/>
      <use xlink:href="#DejaVuSans-34" x="63.623047"/>
     </g>
    </g>
   </g>
   <g id="text_26">
    <g clip-path="url(#p669f038f9f)">
     <!-- 25 -->
     <g transform="translate(110.907149 74.182281) scale(0.1 -0.1)">
      <use xlink:href="#DejaVuSans-32"/>
      <use xlink:href="#DejaVuSans-35" x="63.623047"/>
     </g>
    </g>
   </g>
   <g id="text_27">
    <g clip-path="url(#p669f038f9f)">
     <!-- 26 -->
     <g transform="translate(125.357626 104.235144) scale(0.1 -0.1)">
      <use xlink:href="#DejaVuSans-32"/>
      <use xlink:href="#DejaVuSans-36" x="63.623047"/>
     </g>
    </g>
   </g>
   <g id="text_28">
    <g clip-path="url(#p669f038f9f)">
     <!-- 27 -->
     <g transform="translate(245.103811 70.351629) scale(0.1 -0.1)">
      <use xlink:href="#DejaVuSans-32"/>
      <use xlink:href="#DejaVuSans-37" x="63.623047"/>
     </g>
    </g>
   </g>
   <g id="text_29">
    <g clip-path="url(#p669f038f9f)">
     <!-- 28 -->
     <g transform="translate(226.680826 32.749458) scale(0.1 -0.1)">
      <use xlink:href="#DejaVuSans-32"/>
      <use xlink:href="#DejaVuSans-38" x="63.623047"/>
     </g>
    </g>
   </g>
   <g id="text_30">
    <g clip-path="url(#p669f038f9f)">
     <!-- 29 -->
     <g transform="translate(414.450723 264.838332) scale(0.1 -0.1)">
      <use xlink:href="#DejaVuSans-32"/>
      <use xlink:href="#DejaVuSans-39" x="63.623047"/>
     </g>
    </g>
   </g>
   <g id="text_31">
    <g clip-path="url(#p669f038f9f)">
     <!-- 30 -->
     <g transform="translate(251.074464 37.642824) scale(0.1 -0.1)">
      <use xlink:href="#DejaVuSans-33"/>
      <use xlink:href="#DejaVuSans-30" x="63.623047"/>
     </g>
    </g>
   </g>
   <g id="text_32">
    <g clip-path="url(#p669f038f9f)">
     <!-- 31 -->
     <g transform="translate(151.734884 120.519124) scale(0.1 -0.1)">
      <use xlink:href="#DejaVuSans-33"/>
      <use xlink:href="#DejaVuSans-31" x="63.623047"/>
     </g>
    </g>
   </g>
   <g id="text_33">
    <g clip-path="url(#p669f038f9f)">
     <!-- 32 -->
     <g transform="translate(184.784651 89.555675) scale(0.1 -0.1)">
      <use xlink:href="#DejaVuSans-33"/>
      <use xlink:href="#DejaVuSans-32" x="63.623047"/>
     </g>
    </g>
   </g>
   <g id="text_34">
    <g clip-path="url(#p669f038f9f)">
     <!-- 33 -->
     <g transform="translate(175.581131 83.096558) scale(0.1 -0.1)">
      <use xlink:href="#DejaVuSans-33"/>
      <use xlink:href="#DejaVuSans-33" x="63.623047"/>
     </g>
    </g>
   </g>
   <g id="text_35">
    <g clip-path="url(#p669f038f9f)">
     <!-- 34 -->
     <g transform="translate(208.63442 62.554709) scale(0.1 -0.1)">
      <use xlink:href="#DejaVuSans-33"/>
      <use xlink:href="#DejaVuSans-34" x="63.623047"/>
     </g>
    </g>
   </g>
   <g id="text_36">
    <g clip-path="url(#p669f038f9f)">
     <!-- 35 -->
     <g transform="translate(131.4389 261.726621) scale(0.1 -0.1)">
      <use xlink:href="#DejaVuSans-33"/>
      <use xlink:href="#DejaVuSans-35" x="63.623047"/>
     </g>
    </g>
   </g>
   <g id="text_37">
    <g clip-path="url(#p669f038f9f)">
     <!-- 36 -->
     <g transform="translate(158.2265 239.3219) scale(0.1 -0.1)">
      <use xlink:href="#DejaVuSans-33"/>
      <use xlink:href="#DejaVuSans-36" x="63.623047"/>
     </g>
    </g>
   </g>
   <g id="text_38">
    <g clip-path="url(#p669f038f9f)">
     <!-- 37 -->
     <g transform="translate(403.674488 237.11054) scale(0.1 -0.1)">
      <use xlink:href="#DejaVuSans-33"/>
      <use xlink:href="#DejaVuSans-37" x="63.623047"/>
     </g>
    </g>
   </g>
   <g id="text_39">
    <g clip-path="url(#p669f038f9f)">
     <!-- 38 -->
     <g transform="translate(385.397558 238.009894) scale(0.1 -0.1)">
      <use xlink:href="#DejaVuSans-33"/>
      <use xlink:href="#DejaVuSans-38" x="63.623047"/>
     </g>
    </g>
   </g>
   <g id="text_40">
    <g clip-path="url(#p669f038f9f)">
     <!-- 39 -->
     <g transform="translate(383.006287 219.313346) scale(0.1 -0.1)">
      <use xlink:href="#DejaVuSans-33"/>
      <use xlink:href="#DejaVuSans-39" x="63.623047"/>
     </g>
    </g>
   </g>
   <g id="text_41">
    <g clip-path="url(#p669f038f9f)">
     <!-- 40 -->
     <g transform="translate(294.340733 242.768811) scale(0.1 -0.1)">
      <use xlink:href="#DejaVuSans-34"/>
      <use xlink:href="#DejaVuSans-30" x="63.623047"/>
     </g>
    </g>
   </g>
   <g id="text_42">
    <g clip-path="url(#p669f038f9f)">
     <!-- 41 -->
     <g transform="translate(250.550833 264.621818) scale(0.1 -0.1)">
      <use xlink:href="#DejaVuSans-34"/>
      <use xlink:href="#DejaVuSans-31" x="63.623047"/>
     </g>
    </g>
   </g>
   <g id="text_43">
    <g clip-path="url(#p669f038f9f)">
     <!-- 42 -->
     <g transform="translate(231.293027 281.756594) scale(0.1 -0.1)">
      <use xlink:href="#DejaVuSans-34"/>
      <use xlink:href="#DejaVuSans-32" x="63.623047"/>
     </g>
    </g>
   </g>
   <g id="text_44">
    <g clip-path="url(#p669f038f9f)">
     <!-- 43 -->
     <g transform="translate(202.236295 265.846572) scale(0.1 -0.1)">
      <use xlink:href="#DejaVuSans-34"/>
      <use xlink:href="#DejaVuSans-33" x="63.623047"/>
     </g>
    </g>
   </g>
   <g id="text_45">
    <g clip-path="url(#p669f038f9f)">
     <!-- 44 -->
     <g transform="translate(167.597226 277.289323) scale(0.1 -0.1)">
      <use xlink:href="#DejaVuSans-34"/>
      <use xlink:href="#DejaVuSans-34" x="63.623047"/>
     </g>
    </g>
   </g>
  </g>
 </g>
 <defs>
  <clipPath id="p669f038f9f">
   <rect x="0" y="0" width="460.8" height="345.6"/>
  </clipPath>
 </defs>
</svg>
