<?xml version="1.0" encoding="utf-8" standalone="no"?>
<!DOCTYPE svg PUBLIC "-//W3C//DTD SVG 1.1//EN"
  "http://www.w3.org/Graphics/SVG/1.1/DTD/svg11.dtd">
<svg xmlns:xlink="http://www.w3.org/1999/xlink" width="460.8pt" height="345.6pt" viewBox="0 0 460.8 345.6" xmlns="http://www.w3.org/2000/svg" version="1.1">
 <metadata>
  <rdf:RDF xmlns:dc="http://purl.org/dc/elements/1.1/" xmlns:cc="http://creativecommons.org/ns#" xmlns:rdf="http://www.w3.org/1999/02/22-rdf-syntax-ns#">
   <cc:Work>
    <dc:type rdf:resource="http://purl.org/dc/dcmitype/StillImage"/>
    <dc:date>2023-10-10T10:57:23.471474</dc:date>
    <dc:format>image/svg+xml</dc:format>
    <dc:creator>
     <cc:Agent>
      <dc:title>Matplotlib v3.6.1, https://matplotlib.org/</dc:title>
     </cc:Agent>
    </dc:creator>
   </cc:Work>
  </rdf:RDF>
 </metadata>
 <defs>
  <style type="text/css">*{stroke-linejoin: round; stroke-linecap: butt}</style>
 </defs>
 <g id="figure_1">
  <g id="patch_1">
   <path d="M 0 345.6 
L 460.8 345.6 
L 460.8 0 
L 0 0 
z
" style="fill: #ffffff"/>
  </g>
  <g id="axes_1">
   <g id="patch_2">
    <path d="M 419.356512 272.120801 
Q 404.576837 259.16913 390.63802 246.954316 
" clip-path="url(#pf7c731a80e)" style="fill: none; stroke: #000000; stroke-linecap: round"/>
    <path d="M 392.328233 251.094748 
L 390.63802 246.954316 
L 394.964493 248.086405 
L 392.328233 251.094748 
z
" clip-path="url(#pf7c731a80e)" style="stroke: #000000; stroke-linecap: round"/>
   </g>
   <g id="patch_3">
    <path d="M 382.970777 221.947459 
Q 365.034699 215.171765 348.144514 208.791177 
" clip-path="url(#pf7c731a80e)" style="fill: none; stroke: #000000; stroke-linecap: round"/>
    <path d="M 351.179627 212.0757 
L 348.144514 208.791177 
L 352.5932 208.333801 
L 351.179627 212.0757 
z
" clip-path="url(#pf7c731a80e)" style="stroke: #000000; stroke-linecap: round"/>
   </g>
   <g id="patch_4">
    <path d="M 385.086441 224.545851 
Q 386.561163 233.786513 387.859686 241.923112 
" clip-path="url(#pf7c731a80e)" style="fill: none; stroke: #000000; stroke-linecap: round"/>
    <path d="M 389.204309 237.657905 
L 387.859686 241.923112 
L 385.254295 238.28829 
L 389.204309 237.657905 
z
" clip-path="url(#pf7c731a80e)" style="stroke: #000000; stroke-linecap: round"/>
   </g>
   <g id="patch_5">
    <path d="M 383.22614 221.473054 
Q 375.086551 215.409482 367.843559 210.013829 
" clip-path="url(#pf7c731a80e)" style="fill: none; stroke: #000000; stroke-linecap: round"/>
    <path d="M 369.856513 214.007325 
L 367.843559 210.013829 
L 372.246129 210.799564 
L 369.856513 214.007325 
z
" clip-path="url(#pf7c731a80e)" style="stroke: #000000; stroke-linecap: round"/>
   </g>
   <g id="patch_6">
    <path d="M 347.1011 208.397008 
Q 365.037178 215.172701 381.927363 221.553289 
" clip-path="url(#pf7c731a80e)" style="fill: none; stroke: #000000; stroke-linecap: round"/>
    <path d="M 378.89225 218.268766 
L 381.927363 221.553289 
L 377.478677 222.010665 
L 378.89225 218.268766 
z
" clip-path="url(#pf7c731a80e)" style="stroke: #000000; stroke-linecap: round"/>
   </g>
   <g id="patch_7">
    <path d="M 346.754553 208.978847 
Q 366.815707 226.327056 386.031179 242.94395 
" clip-path="url(#pf7c731a80e)" style="fill: none; stroke: #000000; stroke-linecap: round"/>
    <path d="M 384.313798 238.814712 
L 386.031179 242.94395 
L 381.697361 241.840313 
L 384.313798 238.814712 
z
" clip-path="url(#pf7c731a80e)" style="stroke: #000000; stroke-linecap: round"/>
   </g>
   <g id="patch_8">
    <path d="M 343.739261 206.554307 
Q 316.852224 186.473885 290.860968 167.062473 
" clip-path="url(#pf7c731a80e)" style="fill: none; stroke: #000000; stroke-linecap: round"/>
    <path d="M 292.869056 171.058419 
L 290.860968 167.062473 
L 295.262578 167.853571 
L 292.869056 171.058419 
z
" clip-path="url(#pf7c731a80e)" style="stroke: #000000; stroke-linecap: round"/>
   </g>
   <g id="patch_9">
    <path d="M 389.798149 246.218323 
Q 404.577824 259.169995 418.516641 271.384809 
" clip-path="url(#pf7c731a80e)" style="fill: none; stroke: #000000; stroke-linecap: round"/>
    <path d="M 416.826428 267.244377 
L 418.516641 271.384809 
L 414.190167 270.25272 
L 416.826428 267.244377 
z
" clip-path="url(#pf7c731a80e)" style="stroke: #000000; stroke-linecap: round"/>
   </g>
   <g id="patch_10">
    <path d="M 388.035888 243.027196 
Q 386.561166 233.786534 385.262643 225.649935 
" clip-path="url(#pf7c731a80e)" style="fill: none; stroke: #000000; stroke-linecap: round"/>
    <path d="M 383.91802 229.915142 
L 385.262643 225.649935 
L 387.868035 229.284757 
L 383.91802 229.915142 
z
" clip-path="url(#pf7c731a80e)" style="stroke: #000000; stroke-linecap: round"/>
   </g>
   <g id="patch_11">
    <path d="M 386.877869 243.676139 
Q 366.816716 226.327929 347.601243 209.711036 
" clip-path="url(#pf7c731a80e)" style="fill: none; stroke: #000000; stroke-linecap: round"/>
    <path d="M 349.318625 213.840273 
L 347.601243 209.711036 
L 351.935062 210.814673 
L 349.318625 213.840273 
z
" clip-path="url(#pf7c731a80e)" style="stroke: #000000; stroke-linecap: round"/>
   </g>
   <g id="patch_12">
    <path d="M 366.949761 209.347996 
Q 375.08935 215.411567 382.332342 220.807221 
" clip-path="url(#pf7c731a80e)" style="fill: none; stroke: #000000; stroke-linecap: round"/>
    <path d="M 380.319389 216.813724 
L 382.332342 220.807221 
L 377.929773 220.021486 
L 380.319389 216.813724 
z
" clip-path="url(#pf7c731a80e)" style="stroke: #000000; stroke-linecap: round"/>
   </g>
   <g id="patch_13">
    <path d="M 363.472986 208.419249 
Q 340.284566 211.187617 318.206297 213.823449 
" clip-path="url(#pf7c731a80e)" style="fill: none; stroke: #000000; stroke-linecap: round"/>
    <path d="M 322.41518 215.335171 
L 318.206297 213.823449 
L 321.941004 211.363375 
L 322.41518 215.335171 
z
" clip-path="url(#pf7c731a80e)" style="stroke: #000000; stroke-linecap: round"/>
   </g>
   <g id="patch_14">
    <path d="M 317.09305 213.956355 
Q 340.281469 211.187987 362.359738 208.552155 
" clip-path="url(#pf7c731a80e)" style="fill: none; stroke: #000000; stroke-linecap: round"/>
    <path d="M 358.150855 207.040433 
L 362.359738 208.552155 
L 358.625031 211.012228 
L 358.150855 207.040433 
z
" clip-path="url(#pf7c731a80e)" style="stroke: #000000; stroke-linecap: round"/>
   </g>
   <g id="patch_15">
    <path d="M 313.369983 214.905342 
Q 289.149108 224.581687 265.96648 233.843249 
" clip-path="url(#pf7c731a80e)" style="fill: none; stroke: #000000; stroke-linecap: round"/>
    <path d="M 270.423009 234.216544 
L 265.96648 233.843249 
L 268.939033 230.502003 
L 270.423009 234.216544 
z
" clip-path="url(#pf7c731a80e)" style="stroke: #000000; stroke-linecap: round"/>
   </g>
   <g id="patch_16">
    <path d="M 60.788375 239.219799 
Q 70.593476 259.085319 79.903739 277.948275 
" clip-path="url(#pf7c731a80e)" style="fill: none; stroke: #000000; stroke-linecap: round"/>
    <path d="M 79.926789 273.476198 
L 79.903739 277.948275 
L 76.339907 275.246589 
L 79.926789 273.476198 
z
" clip-path="url(#pf7c731a80e)" style="stroke: #000000; stroke-linecap: round"/>
   </g>
   <g id="patch_17">
    <path d="M 60.004291 235.546149 
Q 60.80693 214.466237 61.567029 194.503549 
" clip-path="url(#pf7c731a80e)" style="fill: none; stroke: #000000; stroke-linecap: round"/>
    <path d="M 59.416283 198.424556 
L 61.567029 194.503549 
L 63.413387 198.576749 
L 59.416283 198.424556 
z
" clip-path="url(#pf7c731a80e)" style="stroke: #000000; stroke-linecap: round"/>
   </g>
   <g id="patch_18">
    <path d="M 61.609543 193.386988 
Q 60.806905 214.466901 60.046806 234.429589 
" clip-path="url(#pf7c731a80e)" style="fill: none; stroke: #000000; stroke-linecap: round"/>
    <path d="M 62.197551 230.508582 
L 60.046806 234.429589 
L 58.200447 230.356388 
L 62.197551 230.508582 
z
" clip-path="url(#pf7c731a80e)" style="stroke: #000000; stroke-linecap: round"/>
   </g>
   <g id="patch_19">
    <path d="M 62.639032 189.767181 
Q 74.251581 169.306124 85.312279 149.817415 
" clip-path="url(#pf7c731a80e)" style="fill: none; stroke: #000000; stroke-linecap: round"/>
    <path d="M 81.598529 152.309014 
L 85.312279 149.817415 
L 85.077308 154.283374 
L 81.598529 152.309014 
z
" clip-path="url(#pf7c731a80e)" style="stroke: #000000; stroke-linecap: round"/>
   </g>
   <g id="patch_20">
    <path d="M 264.929232 234.257634 
Q 289.150107 224.581288 312.332735 215.319727 
" clip-path="url(#pf7c731a80e)" style="fill: none; stroke: #000000; stroke-linecap: round"/>
    <path d="M 307.876206 214.946432 
L 312.332735 215.319727 
L 309.360182 218.660973 
L 307.876206 214.946432 
z
" clip-path="url(#pf7c731a80e)" style="stroke: #000000; stroke-linecap: round"/>
   </g>
   <g id="patch_21">
    <path d="M 261.31765 235.660185 
Q 234.770101 245.675261 209.268624 255.295705 
" clip-path="url(#pf7c731a80e)" style="fill: none; stroke: #000000; stroke-linecap: round"/>
    <path d="M 213.717102 255.7551 
L 209.268624 255.295705 
L 212.305227 252.012559 
L 213.717102 255.7551 
z
" clip-path="url(#pf7c731a80e)" style="stroke: #000000; stroke-linecap: round"/>
   </g>
   <g id="patch_22">
    <path d="M 208.220024 255.69129 
Q 234.767572 245.676215 260.269049 236.055771 
" clip-path="url(#pf7c731a80e)" style="fill: none; stroke: #000000; stroke-linecap: round"/>
    <path d="M 255.820571 235.596376 
L 260.269049 236.055771 
L 257.232446 239.338916 
L 255.820571 235.596376 
z
" clip-path="url(#pf7c731a80e)" style="stroke: #000000; stroke-linecap: round"/>
   </g>
   <g id="patch_23">
    <path d="M 204.544011 256.907739 
Q 175.65827 265.167467 147.84748 273.119818 
" clip-path="url(#pf7c731a80e)" style="fill: none; stroke: #000000; stroke-linecap: round"/>
    <path d="M 152.243194 273.943045 
L 147.84748 273.119818 
L 151.14349 270.097183 
L 152.243194 273.943045 
z
" clip-path="url(#pf7c731a80e)" style="stroke: #000000; stroke-linecap: round"/>
   </g>
   <g id="patch_24">
    <path d="M 41.757581 298.03071 
Q 60.621228 289.749181 78.461152 281.917087 
" clip-path="url(#pf7c731a80e)" style="fill: none; stroke: #000000; stroke-linecap: round"/>
    <path d="M 73.994596 281.693745 
L 78.461152 281.917087 
L 75.602545 285.356326 
L 73.994596 281.693745 
z
" clip-path="url(#pf7c731a80e)" style="stroke: #000000; stroke-linecap: round"/>
   </g>
   <g id="patch_25">
    <path d="M 70.829376 313.76416 
Q 75.752256 298.149488 80.338962 283.601111 
" clip-path="url(#pf7c731a80e)" style="fill: none; stroke: #000000; stroke-linecap: round"/>
    <path d="M 77.228782 286.814641 
L 80.338962 283.601111 
L 81.043678 288.017374 
L 77.228782 286.814641 
z
" clip-path="url(#pf7c731a80e)" style="stroke: #000000; stroke-linecap: round"/>
   </g>
   <g id="patch_26">
    <path d="M 80.399056 278.951807 
Q 70.593955 259.086287 61.283692 240.223331 
" clip-path="url(#pf7c731a80e)" style="fill: none; stroke: #000000; stroke-linecap: round"/>
    <path d="M 61.260642 244.695408 
L 61.283692 240.223331 
L 64.847524 242.925017 
L 61.260642 244.695408 
z
" clip-path="url(#pf7c731a80e)" style="stroke: #000000; stroke-linecap: round"/>
   </g>
   <g id="patch_27">
    <path d="M 79.48604 281.46714 
Q 60.622394 289.748669 42.78247 297.580763 
" clip-path="url(#pf7c731a80e)" style="fill: none; stroke: #000000; stroke-linecap: round"/>
    <path d="M 47.249025 297.804105 
L 42.78247 297.580763 
L 45.641077 294.141524 
L 47.249025 297.804105 
z
" clip-path="url(#pf7c731a80e)" style="stroke: #000000; stroke-linecap: round"/>
   </g>
   <g id="patch_28">
    <path d="M 80.674928 282.535478 
Q 75.752047 298.15015 71.165341 312.698526 
" clip-path="url(#pf7c731a80e)" style="fill: none; stroke: #000000; stroke-linecap: round"/>
    <path d="M 74.275522 309.484996 
L 71.165341 312.698526 
L 70.460626 308.282264 
L 74.275522 309.484996 
z
" clip-path="url(#pf7c731a80e)" style="stroke: #000000; stroke-linecap: round"/>
   </g>
   <g id="patch_29">
    <path d="M 83.180041 280.486369 
Q 113.083677 277.324478 141.875477 274.280149 
" clip-path="url(#pf7c731a80e)" style="fill: none; stroke: #000000; stroke-linecap: round"/>
    <path d="M 137.687351 272.711835 
L 141.875477 274.280149 
L 138.107951 276.689661 
L 137.687351 272.711835 
z
" clip-path="url(#pf7c731a80e)" style="stroke: #000000; stroke-linecap: round"/>
   </g>
   <g id="patch_30">
    <path d="M 146.778163 273.425584 
Q 175.663904 265.165856 203.474694 257.213505 
" clip-path="url(#pf7c731a80e)" style="fill: none; stroke: #000000; stroke-linecap: round"/>
    <path d="M 199.07898 256.390278 
L 203.474694 257.213505 
L 200.178684 260.23614 
L 199.07898 256.390278 
z
" clip-path="url(#pf7c731a80e)" style="stroke: #000000; stroke-linecap: round"/>
   </g>
   <g id="patch_31">
    <path d="M 142.989494 274.162357 
Q 113.085858 277.324248 84.294058 280.368577 
" clip-path="url(#pf7c731a80e)" style="fill: none; stroke: #000000; stroke-linecap: round"/>
    <path d="M 88.482183 281.936891 
L 84.294058 280.368577 
L 88.061584 277.959065 
L 88.482183 281.936891 
z
" clip-path="url(#pf7c731a80e)" style="stroke: #000000; stroke-linecap: round"/>
   </g>
   <g id="patch_32">
    <path d="M 231.597698 123.416185 
Q 247.027365 103.430349 261.7738 84.329494 
" clip-path="url(#pf7c731a80e)" style="fill: none; stroke: #000000; stroke-linecap: round"/>
    <path d="M 257.746288 86.273498 
L 261.7738 84.329494 
L 260.912496 88.717906 
L 257.746288 86.273498 
z
" clip-path="url(#pf7c731a80e)" style="stroke: #000000; stroke-linecap: round"/>
   </g>
   <g id="patch_33">
    <path d="M 228.480809 124.931302 
Q 191.088694 124.617396 154.814574 124.312876 
" clip-path="url(#pf7c731a80e)" style="fill: none; stroke: #000000; stroke-linecap: round"/>
    <path d="M 158.797643 126.346384 
L 154.814574 124.312876 
L 158.831222 122.346525 
L 158.797643 126.346384 
z
" clip-path="url(#pf7c731a80e)" style="stroke: #000000; stroke-linecap: round"/>
   </g>
   <g id="patch_34">
    <path d="M 232.004916 126.051638 
Q 259.416482 145.092512 285.909807 163.495551 
" clip-path="url(#pf7c731a80e)" style="fill: none; stroke: #000000; stroke-linecap: round"/>
    <path d="M 283.765608 159.57096 
L 285.909807 163.495551 
L 281.483615 162.856156 
L 283.765608 159.57096 
z
" clip-path="url(#pf7c731a80e)" style="stroke: #000000; stroke-linecap: round"/>
   </g>
   <g id="patch_35">
    <path d="M 289.967001 166.394819 
Q 316.854038 186.475241 342.845294 205.886653 
" clip-path="url(#pf7c731a80e)" style="fill: none; stroke: #000000; stroke-linecap: round"/>
    <path d="M 340.837206 201.890707 
L 342.845294 205.886653 
L 338.443684 205.095555 
L 340.837206 201.890707 
z
" clip-path="url(#pf7c731a80e)" style="stroke: #000000; stroke-linecap: round"/>
   </g>
   <g id="patch_36">
    <path d="M 286.825804 164.131829 
Q 259.414239 145.090954 232.920913 126.687916 
" clip-path="url(#pf7c731a80e)" style="fill: none; stroke: #000000; stroke-linecap: round"/>
    <path d="M 235.065112 130.612506 
L 232.920913 126.687916 
L 237.347105 127.327311 
L 235.065112 130.612506 
z
" clip-path="url(#pf7c731a80e)" style="stroke: #000000; stroke-linecap: round"/>
   </g>
   <g id="patch_37">
    <path d="M 344.537644 30.094662 
Q 361.694659 31.022288 377.73527 31.889554 
" clip-path="url(#pf7c731a80e)" style="fill: none; stroke: #000000; stroke-linecap: round"/>
    <path d="M 373.84908 29.676519 
L 377.73527 31.889554 
L 373.633128 33.670685 
L 373.84908 29.676519 
z
" clip-path="url(#pf7c731a80e)" style="stroke: #000000; stroke-linecap: round"/>
   </g>
   <g id="patch_38">
    <path d="M 340.835514 30.775654 
Q 321.885722 39.196203 303.957635 47.162746 
" clip-path="url(#pf7c731a80e)" style="fill: none; stroke: #000000; stroke-linecap: round"/>
    <path d="M 308.425144 47.366126 
L 303.957635 47.162746 
L 306.800844 43.710767 
L 308.425144 47.366126 
z
" clip-path="url(#pf7c731a80e)" style="stroke: #000000; stroke-linecap: round"/>
   </g>
   <g id="patch_39">
    <path d="M 378.85103 31.94988 
Q 361.694015 31.022254 345.653404 30.154988 
" clip-path="url(#pf7c731a80e)" style="fill: none; stroke: #000000; stroke-linecap: round"/>
    <path d="M 349.539595 32.368023 
L 345.653404 30.154988 
L 349.755547 28.373857 
L 349.539595 32.368023 
z
" clip-path="url(#pf7c731a80e)" style="stroke: #000000; stroke-linecap: round"/>
   </g>
   <g id="patch_40">
    <path d="M 302.933875 47.617665 
Q 321.883666 39.197116 339.811754 31.230573 
" clip-path="url(#pf7c731a80e)" style="fill: none; stroke: #000000; stroke-linecap: round"/>
    <path d="M 335.344245 31.027192 
L 339.811754 31.230573 
L 336.968544 34.682552 
L 335.344245 31.027192 
z
" clip-path="url(#pf7c731a80e)" style="stroke: #000000; stroke-linecap: round"/>
   </g>
   <g id="patch_41">
    <path d="M 299.720772 49.693762 
Q 282.401722 65.158829 265.916617 79.879224 
" clip-path="url(#pf7c731a80e)" style="fill: none; stroke: #000000; stroke-linecap: round"/>
    <path d="M 270.232338 78.706811 
L 265.916617 79.879224 
L 267.568119 75.7232 
L 270.232338 78.706811 
z
" clip-path="url(#pf7c731a80e)" style="stroke: #000000; stroke-linecap: round"/>
   </g>
   <g id="patch_42">
    <path d="M 262.45799 83.443273 
Q 247.028322 103.429109 232.281888 122.529963 
" clip-path="url(#pf7c731a80e)" style="fill: none; stroke: #000000; stroke-linecap: round"/>
    <path d="M 236.309399 120.58596 
L 232.281888 122.529963 
L 233.143192 118.141552 
L 236.309399 120.58596 
z
" clip-path="url(#pf7c731a80e)" style="stroke: #000000; stroke-linecap: round"/>
   </g>
   <g id="patch_43">
    <path d="M 265.085481 80.621389 
Q 282.40453 65.156321 298.889635 50.435926 
" clip-path="url(#pf7c731a80e)" style="fill: none; stroke: #000000; stroke-linecap: round"/>
    <path d="M 294.573914 51.60834 
L 298.889635 50.435926 
L 297.238134 54.591951 
L 294.573914 51.60834 
z
" clip-path="url(#pf7c731a80e)" style="stroke: #000000; stroke-linecap: round"/>
   </g>
   <g id="patch_44">
    <path d="M 46.625487 131.640955 
Q 65.818228 139.052684 83.968002 146.061648 
" clip-path="url(#pf7c731a80e)" style="fill: none; stroke: #000000; stroke-linecap: round"/>
    <path d="M 80.957061 142.754952 
L 83.968002 146.061648 
L 79.516081 146.486383 
L 80.957061 142.754952 
z
" clip-path="url(#pf7c731a80e)" style="stroke: #000000; stroke-linecap: round"/>
   </g>
   <g id="patch_45">
    <path d="M 130.781624 95.999994 
Q 140.694622 109.364965 149.94157 121.831951 
" clip-path="url(#pf7c731a80e)" style="fill: none; stroke: #000000; stroke-linecap: round"/>
    <path d="M 149.165006 117.427755 
L 149.94157 121.831951 
L 145.952274 119.810685 
L 149.165006 117.427755 
z
" clip-path="url(#pf7c731a80e)" style="stroke: #000000; stroke-linecap: round"/>
   </g>
   <g id="patch_46">
    <path d="M 153.697341 124.303497 
Q 191.089455 124.617403 227.363576 124.921923 
" clip-path="url(#pf7c731a80e)" style="fill: none; stroke: #000000; stroke-linecap: round"/>
    <path d="M 223.380506 122.888415 
L 227.363576 124.921923 
L 223.346927 126.888274 
L 223.380506 122.888415 
z
" clip-path="url(#pf7c731a80e)" style="stroke: #000000; stroke-linecap: round"/>
   </g>
   <g id="patch_47">
    <path d="M 150.608949 122.73173 
Q 140.695951 109.366758 131.449003 96.899772 
" clip-path="url(#pf7c731a80e)" style="fill: none; stroke: #000000; stroke-linecap: round"/>
    <path d="M 132.225568 101.303969 
L 131.449003 96.899772 
L 135.438299 98.921038 
L 132.225568 101.303969 
z
" clip-path="url(#pf7c731a80e)" style="stroke: #000000; stroke-linecap: round"/>
   </g>
   <g id="patch_48">
    <path d="M 149.935371 124.930905 
Q 119.292106 135.724497 89.70337 146.146648 
" clip-path="url(#pf7c731a80e)" style="fill: none; stroke: #000000; stroke-linecap: round"/>
    <path d="M 94.140621 146.70414 
L 89.70337 146.146648 
L 92.811715 142.931342 
L 94.140621 146.70414 
z
" clip-path="url(#pf7c731a80e)" style="stroke: #000000; stroke-linecap: round"/>
   </g>
   <g id="patch_49">
    <path d="M 85.863205 148.846695 
Q 74.250657 169.307752 63.189959 188.79646 
" clip-path="url(#pf7c731a80e)" style="fill: none; stroke: #000000; stroke-linecap: round"/>
    <path d="M 66.903708 186.304861 
L 63.189959 188.79646 
L 63.424929 184.330501 
L 66.903708 186.304861 
z
" clip-path="url(#pf7c731a80e)" style="stroke: #000000; stroke-linecap: round"/>
   </g>
   <g id="patch_50">
    <path d="M 85.011704 146.464698 
Q 65.818964 139.052969 47.669189 132.044005 
" clip-path="url(#pf7c731a80e)" style="fill: none; stroke: #000000; stroke-linecap: round"/>
    <path d="M 50.68013 135.350701 
L 47.669189 132.044005 
L 52.12111 131.61927 
L 50.68013 135.350701 
z
" clip-path="url(#pf7c731a80e)" style="stroke: #000000; stroke-linecap: round"/>
   </g>
   <g id="patch_51">
    <path d="M 88.646324 146.518975 
Q 119.28959 135.725383 148.878326 125.303232 
" clip-path="url(#pf7c731a80e)" style="fill: none; stroke: #000000; stroke-linecap: round"/>
    <path d="M 144.441074 124.74574 
L 148.878326 125.303232 
L 145.769981 128.518538 
L 144.441074 124.74574 
z
" clip-path="url(#pf7c731a80e)" style="stroke: #000000; stroke-linecap: round"/>
   </g>
   <g id="PathCollection_1">
    <defs>
     <path id="mf5d3509cb7" d="M 0 1.936492 
C 0.513564 1.936492 1.006162 1.732451 1.369306 1.369306 
C 1.732451 1.006162 1.936492 0.513564 1.936492 0 
C 1.936492 -0.513564 1.732451 -1.006162 1.369306 -1.369306 
C 1.006162 -1.732451 0.513564 -1.936492 0 -1.936492 
C -0.513564 -1.936492 -1.006162 -1.732451 -1.369306 -1.369306 
C -1.732451 -1.006162 -1.936492 -0.513564 -1.936492 0 
C -1.936492 0.513564 -1.732451 1.006162 -1.369306 1.369306 
C -1.006162 1.732451 -0.513564 1.936492 0 1.936492 
z
" style="stroke: #1f78b4"/>
    </defs>
    <g clip-path="url(#pf7c731a80e)">
     <use xlink:href="#mf5d3509cb7" x="420.813223" y="273.397342" style="fill: #1f78b4; stroke: #1f78b4"/>
     <use xlink:href="#mf5d3509cb7" x="384.780892" y="222.631264" style="fill: #1f78b4; stroke: #1f78b4"/>
     <use xlink:href="#mf5d3509cb7" x="345.290985" y="207.713202" style="fill: #1f78b4; stroke: #1f78b4"/>
     <use xlink:href="#mf5d3509cb7" x="388.341437" y="244.941783" style="fill: #1f78b4; stroke: #1f78b4"/>
     <use xlink:href="#mf5d3509cb7" x="365.39501" y="208.189786" style="fill: #1f78b4; stroke: #1f78b4"/>
     <use xlink:href="#mf5d3509cb7" x="315.171026" y="214.185817" style="fill: #1f78b4; stroke: #1f78b4"/>
     <use xlink:href="#mf5d3509cb7" x="59.930586" y="237.481886" style="fill: #1f78b4; stroke: #1f78b4"/>
     <use xlink:href="#mf5d3509cb7" x="61.683248" y="191.451252" style="fill: #1f78b4; stroke: #1f78b4"/>
     <use xlink:href="#mf5d3509cb7" x="263.128189" y="234.977158" style="fill: #1f78b4; stroke: #1f78b4"/>
     <use xlink:href="#mf5d3509cb7" x="206.409484" y="256.374317" style="fill: #1f78b4; stroke: #1f78b4"/>
     <use xlink:href="#mf5d3509cb7" x="39.986777" y="298.80813" style="fill: #1f78b4; stroke: #1f78b4"/>
     <use xlink:href="#mf5d3509cb7" x="70.247459" y="315.609917" style="fill: #1f78b4; stroke: #1f78b4"/>
     <use xlink:href="#mf5d3509cb7" x="81.256845" y="280.68972" style="fill: #1f78b4; stroke: #1f78b4"/>
     <use xlink:href="#mf5d3509cb7" x="144.91269" y="273.959006" style="fill: #1f78b4; stroke: #1f78b4"/>
     <use xlink:href="#mf5d3509cb7" x="230.415443" y="124.947543" style="fill: #1f78b4; stroke: #1f78b4"/>
     <use xlink:href="#mf5d3509cb7" x="288.415277" y="165.235924" style="fill: #1f78b4; stroke: #1f78b4"/>
     <use xlink:href="#mf5d3509cb7" x="342.60338" y="29.990083" style="fill: #1f78b4; stroke: #1f78b4"/>
     <use xlink:href="#mf5d3509cb7" x="380.785294" y="32.054459" style="fill: #1f78b4; stroke: #1f78b4"/>
     <use xlink:href="#mf5d3509cb7" x="301.166008" y="48.403236" style="fill: #1f78b4; stroke: #1f78b4"/>
     <use xlink:href="#mf5d3509cb7" x="263.640244" y="81.911915" style="fill: #1f78b4; stroke: #1f78b4"/>
     <use xlink:href="#mf5d3509cb7" x="44.818202" y="130.943029" style="fill: #1f78b4; stroke: #1f78b4"/>
     <use xlink:href="#mf5d3509cb7" x="129.627867" y="94.444468" style="fill: #1f78b4; stroke: #1f78b4"/>
     <use xlink:href="#mf5d3509cb7" x="151.762706" y="124.287256" style="fill: #1f78b4; stroke: #1f78b4"/>
     <use xlink:href="#mf5d3509cb7" x="86.818989" y="147.162624" style="fill: #1f78b4; stroke: #1f78b4"/>
    </g>
   </g>
   <g id="text_1">
    <g clip-path="url(#pf7c731a80e)">
     <!-- 0 -->
     <g transform="translate(417.631973 276.156717) scale(0.1 -0.1)">
      <defs>
       <path id="DejaVuSans-30" d="M 2034 4250 
Q 1547 4250 1301 3770 
Q 1056 3291 1056 2328 
Q 1056 1369 1301 889 
Q 1547 409 2034 409 
Q 2525 409 2770 889 
Q 3016 1369 3016 2328 
Q 3016 3291 2770 3770 
Q 2525 4250 2034 4250 
z
M 2034 4750 
Q 2819 4750 3233 4129 
Q 3647 3509 3647 2328 
Q 3647 1150 3233 529 
Q 2819 -91 2034 -91 
Q 1250 -91 836 529 
Q 422 1150 422 2328 
Q 422 3509 836 4129 
Q 1250 4750 2034 4750 
z
" transform="scale(0.015625)"/>
      </defs>
      <use xlink:href="#DejaVuSans-30"/>
     </g>
    </g>
   </g>
   <g id="text_2">
    <g clip-path="url(#pf7c731a80e)">
     <!-- 1 -->
     <g transform="translate(381.599642 225.390639) scale(0.1 -0.1)">
      <defs>
       <path id="DejaVuSans-31" d="M 794 531 
L 1825 531 
L 1825 4091 
L 703 3866 
L 703 4441 
L 1819 4666 
L 2450 4666 
L 2450 531 
L 3481 531 
L 3481 0 
L 794 0 
L 794 531 
z
" transform="scale(0.015625)"/>
      </defs>
      <use xlink:href="#DejaVuSans-31"/>
     </g>
    </g>
   </g>
   <g id="text_3">
    <g clip-path="url(#pf7c731a80e)">
     <!-- 2 -->
     <g transform="translate(342.109735 210.472577) scale(0.1 -0.1)">
      <defs>
       <path id="DejaVuSans-32" d="M 1228 531 
L 3431 531 
L 3431 0 
L 469 0 
L 469 531 
Q 828 903 1448 1529 
Q 2069 2156 2228 2338 
Q 2531 2678 2651 2914 
Q 2772 3150 2772 3378 
Q 2772 3750 2511 3984 
Q 2250 4219 1831 4219 
Q 1534 4219 1204 4116 
Q 875 4013 500 3803 
L 500 4441 
Q 881 4594 1212 4672 
Q 1544 4750 1819 4750 
Q 2544 4750 2975 4387 
Q 3406 4025 3406 3419 
Q 3406 3131 3298 2873 
Q 3191 2616 2906 2266 
Q 2828 2175 2409 1742 
Q 1991 1309 1228 531 
z
" transform="scale(0.015625)"/>
      </defs>
      <use xlink:href="#DejaVuSans-32"/>
     </g>
    </g>
   </g>
   <g id="text_4">
    <g clip-path="url(#pf7c731a80e)">
     <!-- 3 -->
     <g transform="translate(385.160187 247.701158) scale(0.1 -0.1)">
      <defs>
       <path id="DejaVuSans-33" d="M 2597 2516 
Q 3050 2419 3304 2112 
Q 3559 1806 3559 1356 
Q 3559 666 3084 287 
Q 2609 -91 1734 -91 
Q 1441 -91 1130 -33 
Q 819 25 488 141 
L 488 750 
Q 750 597 1062 519 
Q 1375 441 1716 441 
Q 2309 441 2620 675 
Q 2931 909 2931 1356 
Q 2931 1769 2642 2001 
Q 2353 2234 1838 2234 
L 1294 2234 
L 1294 2753 
L 1863 2753 
Q 2328 2753 2575 2939 
Q 2822 3125 2822 3475 
Q 2822 3834 2567 4026 
Q 2313 4219 1838 4219 
Q 1578 4219 1281 4162 
Q 984 4106 628 3988 
L 628 4550 
Q 988 4650 1302 4700 
Q 1616 4750 1894 4750 
Q 2613 4750 3031 4423 
Q 3450 4097 3450 3541 
Q 3450 3153 3228 2886 
Q 3006 2619 2597 2516 
z
" transform="scale(0.015625)"/>
      </defs>
      <use xlink:href="#DejaVuSans-33"/>
     </g>
    </g>
   </g>
   <g id="text_5">
    <g clip-path="url(#pf7c731a80e)">
     <!-- 4 -->
     <g transform="translate(362.21376 210.949161) scale(0.1 -0.1)">
      <defs>
       <path id="DejaVuSans-34" d="M 2419 4116 
L 825 1625 
L 2419 1625 
L 2419 4116 
z
M 2253 4666 
L 3047 4666 
L 3047 1625 
L 3713 1625 
L 3713 1100 
L 3047 1100 
L 3047 0 
L 2419 0 
L 2419 1100 
L 313 1100 
L 313 1709 
L 2253 4666 
z
" transform="scale(0.015625)"/>
      </defs>
      <use xlink:href="#DejaVuSans-34"/>
     </g>
    </g>
   </g>
   <g id="text_6">
    <g clip-path="url(#pf7c731a80e)">
     <!-- 5 -->
     <g transform="translate(311.989776 216.945192) scale(0.1 -0.1)">
      <defs>
       <path id="DejaVuSans-35" d="M 691 4666 
L 3169 4666 
L 3169 4134 
L 1269 4134 
L 1269 2991 
Q 1406 3038 1543 3061 
Q 1681 3084 1819 3084 
Q 2600 3084 3056 2656 
Q 3513 2228 3513 1497 
Q 3513 744 3044 326 
Q 2575 -91 1722 -91 
Q 1428 -91 1123 -41 
Q 819 9 494 109 
L 494 744 
Q 775 591 1075 516 
Q 1375 441 1709 441 
Q 2250 441 2565 725 
Q 2881 1009 2881 1497 
Q 2881 1984 2565 2268 
Q 2250 2553 1709 2553 
Q 1456 2553 1204 2497 
Q 953 2441 691 2322 
L 691 4666 
z
" transform="scale(0.015625)"/>
      </defs>
      <use xlink:href="#DejaVuSans-35"/>
     </g>
    </g>
   </g>
   <g id="text_7">
    <g clip-path="url(#pf7c731a80e)">
     <!-- 6 -->
     <g transform="translate(56.749336 240.241261) scale(0.1 -0.1)">
      <defs>
       <path id="DejaVuSans-36" d="M 2113 2584 
Q 1688 2584 1439 2293 
Q 1191 2003 1191 1497 
Q 1191 994 1439 701 
Q 1688 409 2113 409 
Q 2538 409 2786 701 
Q 3034 994 3034 1497 
Q 3034 2003 2786 2293 
Q 2538 2584 2113 2584 
z
M 3366 4563 
L 3366 3988 
Q 3128 4100 2886 4159 
Q 2644 4219 2406 4219 
Q 1781 4219 1451 3797 
Q 1122 3375 1075 2522 
Q 1259 2794 1537 2939 
Q 1816 3084 2150 3084 
Q 2853 3084 3261 2657 
Q 3669 2231 3669 1497 
Q 3669 778 3244 343 
Q 2819 -91 2113 -91 
Q 1303 -91 875 529 
Q 447 1150 447 2328 
Q 447 3434 972 4092 
Q 1497 4750 2381 4750 
Q 2619 4750 2861 4703 
Q 3103 4656 3366 4563 
z
" transform="scale(0.015625)"/>
      </defs>
      <use xlink:href="#DejaVuSans-36"/>
     </g>
    </g>
   </g>
   <g id="text_8">
    <g clip-path="url(#pf7c731a80e)">
     <!-- 7 -->
     <g transform="translate(58.501998 194.210627) scale(0.1 -0.1)">
      <defs>
       <path id="DejaVuSans-37" d="M 525 4666 
L 3525 4666 
L 3525 4397 
L 1831 0 
L 1172 0 
L 2766 4134 
L 525 4134 
L 525 4666 
z
" transform="scale(0.015625)"/>
      </defs>
      <use xlink:href="#DejaVuSans-37"/>
     </g>
    </g>
   </g>
   <g id="text_9">
    <g clip-path="url(#pf7c731a80e)">
     <!-- 8 -->
     <g transform="translate(259.946939 237.736533) scale(0.1 -0.1)">
      <defs>
       <path id="DejaVuSans-38" d="M 2034 2216 
Q 1584 2216 1326 1975 
Q 1069 1734 1069 1313 
Q 1069 891 1326 650 
Q 1584 409 2034 409 
Q 2484 409 2743 651 
Q 3003 894 3003 1313 
Q 3003 1734 2745 1975 
Q 2488 2216 2034 2216 
z
M 1403 2484 
Q 997 2584 770 2862 
Q 544 3141 544 3541 
Q 544 4100 942 4425 
Q 1341 4750 2034 4750 
Q 2731 4750 3128 4425 
Q 3525 4100 3525 3541 
Q 3525 3141 3298 2862 
Q 3072 2584 2669 2484 
Q 3125 2378 3379 2068 
Q 3634 1759 3634 1313 
Q 3634 634 3220 271 
Q 2806 -91 2034 -91 
Q 1263 -91 848 271 
Q 434 634 434 1313 
Q 434 1759 690 2068 
Q 947 2378 1403 2484 
z
M 1172 3481 
Q 1172 3119 1398 2916 
Q 1625 2713 2034 2713 
Q 2441 2713 2670 2916 
Q 2900 3119 2900 3481 
Q 2900 3844 2670 4047 
Q 2441 4250 2034 4250 
Q 1625 4250 1398 4047 
Q 1172 3844 1172 3481 
z
" transform="scale(0.015625)"/>
      </defs>
      <use xlink:href="#DejaVuSans-38"/>
     </g>
    </g>
   </g>
   <g id="text_10">
    <g clip-path="url(#pf7c731a80e)">
     <!-- 9 -->
     <g transform="translate(203.228234 259.133692) scale(0.1 -0.1)">
      <defs>
       <path id="DejaVuSans-39" d="M 703 97 
L 703 672 
Q 941 559 1184 500 
Q 1428 441 1663 441 
Q 2288 441 2617 861 
Q 2947 1281 2994 2138 
Q 2813 1869 2534 1725 
Q 2256 1581 1919 1581 
Q 1219 1581 811 2004 
Q 403 2428 403 3163 
Q 403 3881 828 4315 
Q 1253 4750 1959 4750 
Q 2769 4750 3195 4129 
Q 3622 3509 3622 2328 
Q 3622 1225 3098 567 
Q 2575 -91 1691 -91 
Q 1453 -91 1209 -44 
Q 966 3 703 97 
z
M 1959 2075 
Q 2384 2075 2632 2365 
Q 2881 2656 2881 3163 
Q 2881 3666 2632 3958 
Q 2384 4250 1959 4250 
Q 1534 4250 1286 3958 
Q 1038 3666 1038 3163 
Q 1038 2656 1286 2365 
Q 1534 2075 1959 2075 
z
" transform="scale(0.015625)"/>
      </defs>
      <use xlink:href="#DejaVuSans-39"/>
     </g>
    </g>
   </g>
   <g id="text_11">
    <g clip-path="url(#pf7c731a80e)">
     <!-- 10 -->
     <g transform="translate(33.624277 301.567505) scale(0.1 -0.1)">
      <use xlink:href="#DejaVuSans-31"/>
      <use xlink:href="#DejaVuSans-30" x="63.623047"/>
     </g>
    </g>
   </g>
   <g id="text_12">
    <g clip-path="url(#pf7c731a80e)">
     <!-- 11 -->
     <g transform="translate(63.884959 318.369292) scale(0.1 -0.1)">
      <use xlink:href="#DejaVuSans-31"/>
      <use xlink:href="#DejaVuSans-31" x="63.623047"/>
     </g>
    </g>
   </g>
   <g id="text_13">
    <g clip-path="url(#pf7c731a80e)">
     <!-- 12 -->
     <g transform="translate(74.894345 283.449095) scale(0.1 -0.1)">
      <use xlink:href="#DejaVuSans-31"/>
      <use xlink:href="#DejaVuSans-32" x="63.623047"/>
     </g>
    </g>
   </g>
   <g id="text_14">
    <g clip-path="url(#pf7c731a80e)">
     <!-- 13 -->
     <g transform="translate(138.55019 276.718381) scale(0.1 -0.1)">
      <use xlink:href="#DejaVuSans-31"/>
      <use xlink:href="#DejaVuSans-33" x="63.623047"/>
     </g>
    </g>
   </g>
   <g id="text_15">
    <g clip-path="url(#pf7c731a80e)">
     <!-- 14 -->
     <g transform="translate(224.052943 127.706918) scale(0.1 -0.1)">
      <use xlink:href="#DejaVuSans-31"/>
      <use xlink:href="#DejaVuSans-34" x="63.623047"/>
     </g>
    </g>
   </g>
   <g id="text_16">
    <g clip-path="url(#pf7c731a80e)">
     <!-- 15 -->
     <g transform="translate(282.052777 167.995299) scale(0.1 -0.1)">
      <use xlink:href="#DejaVuSans-31"/>
      <use xlink:href="#DejaVuSans-35" x="63.623047"/>
     </g>
    </g>
   </g>
   <g id="text_17">
    <g clip-path="url(#pf7c731a80e)">
     <!-- 16 -->
     <g transform="translate(336.24088 32.749458) scale(0.1 -0.1)">
      <use xlink:href="#DejaVuSans-31"/>
      <use xlink:href="#DejaVuSans-36" x="63.623047"/>
     </g>
    </g>
   </g>
   <g id="text_18">
    <g clip-path="url(#pf7c731a80e)">
     <!-- 17 -->
     <g transform="translate(374.422794 34.813834) scale(0.1 -0.1)">
      <use xlink:href="#DejaVuSans-31"/>
      <use xlink:href="#DejaVuSans-37" x="63.623047"/>
     </g>
    </g>
   </g>
   <g id="text_19">
    <g clip-path="url(#pf7c731a80e)">
     <!-- 18 -->
     <g transform="translate(294.803508 51.162611) scale(0.1 -0.1)">
      <use xlink:href="#DejaVuSans-31"/>
      <use xlink:href="#DejaVuSans-38" x="63.623047"/>
     </g>
    </g>
   </g>
   <g id="text_20">
    <g clip-path="url(#pf7c731a80e)">
     <!-- 19 -->
     <g transform="translate(257.277744 84.67129) scale(0.1 -0.1)">
      <use xlink:href="#DejaVuSans-31"/>
      <use xlink:href="#DejaVuSans-39" x="63.623047"/>
     </g>
    </g>
   </g>
   <g id="text_21">
    <g clip-path="url(#pf7c731a80e)">
     <!-- 20 -->
     <g transform="translate(38.455702 133.702404) scale(0.1 -0.1)">
      <use xlink:href="#DejaVuSans-32"/>
      <use xlink:href="#DejaVuSans-30" x="63.623047"/>
     </g>
    </g>
   </g>
   <g id="text_22">
    <g clip-path="url(#pf7c731a80e)">
     <!-- 21 -->
     <g transform="translate(123.265367 97.203843) scale(0.1 -0.1)">
      <use xlink:href="#DejaVuSans-32"/>
      <use xlink:href="#DejaVuSans-31" x="63.623047"/>
     </g>
    </g>
   </g>
   <g id="text_23">
    <g clip-path="url(#pf7c731a80e)">
     <!-- 22 -->
     <g transform="translate(145.400206 127.046631) scale(0.1 -0.1)">
      <use xlink:href="#DejaVuSans-32"/>
      <use xlink:href="#DejaVuSans-32" x="63.623047"/>
     </g>
    </g>
   </g>
   <g id="text_24">
    <g clip-path="url(#pf7c731a80e)">
     <!-- 23 -->
     <g transform="translate(80.456489 149.921999) scale(0.1 -0.1)">
      <use xlink:href="#DejaVuSans-32"/>
      <use xlink:href="#DejaVuSans-33" x="63.623047"/>
     </g>
    </g>
   </g>
  </g>
 </g>
 <defs>
  <clipPath id="pf7c731a80e">
   <rect x="0" y="0" width="460.8" height="345.6"/>
  </clipPath>
 </defs>
</svg>
