<?xml version="1.0" encoding="utf-8" standalone="no"?>
<!DOCTYPE svg PUBLIC "-//W3C//DTD SVG 1.1//EN"
  "http://www.w3.org/Graphics/SVG/1.1/DTD/svg11.dtd">
<svg xmlns:xlink="http://www.w3.org/1999/xlink" width="460.8pt" height="345.6pt" viewBox="0 0 460.8 345.6" xmlns="http://www.w3.org/2000/svg" version="1.1">
 <metadata>
  <rdf:RDF xmlns:dc="http://purl.org/dc/elements/1.1/" xmlns:cc="http://creativecommons.org/ns#" xmlns:rdf="http://www.w3.org/1999/02/22-rdf-syntax-ns#">
   <cc:Work>
    <dc:type rdf:resource="http://purl.org/dc/dcmitype/StillImage"/>
    <dc:date>2023-10-10T10:57:26.784852</dc:date>
    <dc:format>image/svg+xml</dc:format>
    <dc:creator>
     <cc:Agent>
      <dc:title>Matplotlib v3.6.1, https://matplotlib.org/</dc:title>
     </cc:Agent>
    </dc:creator>
   </cc:Work>
  </rdf:RDF>
 </metadata>
 <defs>
  <style type="text/css">*{stroke-linejoin: round; stroke-linecap: butt}</style>
 </defs>
 <g id="figure_1">
  <g id="patch_1">
   <path d="M 0 345.6 
L 460.8 345.6 
L 460.8 0 
L 0 0 
z
" style="fill: #ffffff"/>
  </g>
  <g id="axes_1">
   <g id="patch_2">
    <path d="M 228.346725 172.849051 
Q 135.122404 157.091625 43.00048 141.520533 
" clip-path="url(#p5a1db9935d)" style="fill: none; stroke: #000000; stroke-linecap: round"/>
    <path d="M 46.61121 144.159212 
L 43.00048 141.520533 
L 47.277862 140.215157 
L 46.61121 144.159212 
z
" clip-path="url(#p5a1db9935d)" style="stroke: #000000; stroke-linecap: round"/>
   </g>
   <g id="patch_3">
    <path d="M 232.164519 173.485422 
Q 325.534631 188.830569 417.80151 203.994402 
" clip-path="url(#p5a1db9935d)" style="fill: none; stroke: #000000; stroke-linecap: round"/>
    <path d="M 414.178804 201.372189 
L 417.80151 203.994402 
L 413.530116 205.319239 
L 414.178804 201.372189 
z
" clip-path="url(#p5a1db9935d)" style="stroke: #000000; stroke-linecap: round"/>
   </g>
   <g id="patch_4">
    <path d="M 230.805492 171.314401 
Q 251.508077 101.581667 271.892461 32.920729 
" clip-path="url(#p5a1db9935d)" style="fill: none; stroke: #000000; stroke-linecap: round"/>
    <path d="M 268.836745 36.186093 
L 271.892461 32.920729 
L 272.671322 37.32452 
L 268.836745 36.186093 
z
" clip-path="url(#p5a1db9935d)" style="stroke: #000000; stroke-linecap: round"/>
   </g>
   <g id="patch_5">
    <path d="M 229.701006 175.027576 
Q 209.02988 244.389911 188.678068 312.680781 
" clip-path="url(#p5a1db9935d)" style="fill: none; stroke: #000000; stroke-linecap: round"/>
    <path d="M 191.737178 309.418597 
L 188.678068 312.680781 
L 187.903786 308.276183 
L 191.737178 309.418597 
z
" clip-path="url(#p5a1db9935d)" style="stroke: #000000; stroke-linecap: round"/>
   </g>
   <g id="patch_6">
    <path d="M 41.894212 141.333544 
Q 135.118533 157.09097 227.240456 172.662062 
" clip-path="url(#p5a1db9935d)" style="fill: none; stroke: #000000; stroke-linecap: round"/>
    <path d="M 223.629727 170.023382 
L 227.240456 172.662062 
L 222.963075 173.967438 
L 223.629727 170.023382 
z
" clip-path="url(#p5a1db9935d)" style="stroke: #000000; stroke-linecap: round"/>
   </g>
   <g id="patch_7">
    <path d="M 418.902864 204.175407 
Q 325.532751 188.83026 233.265873 173.666427 
" clip-path="url(#p5a1db9935d)" style="fill: none; stroke: #000000; stroke-linecap: round"/>
    <path d="M 236.888579 176.28864 
L 233.265873 173.666427 
L 237.537267 172.34159 
L 236.888579 176.28864 
z
" clip-path="url(#p5a1db9935d)" style="stroke: #000000; stroke-linecap: round"/>
   </g>
   <g id="patch_8">
    <path d="M 272.211193 31.847141 
Q 251.508608 101.579875 231.124224 170.240813 
" clip-path="url(#p5a1db9935d)" style="fill: none; stroke: #000000; stroke-linecap: round"/>
    <path d="M 234.17994 166.975449 
L 231.124224 170.240813 
L 230.345363 165.837022 
L 234.17994 166.975449 
z
" clip-path="url(#p5a1db9935d)" style="stroke: #000000; stroke-linecap: round"/>
   </g>
   <g id="patch_9">
    <path d="M 188.35829 313.753801 
Q 209.029417 244.391466 229.381229 176.100596 
" clip-path="url(#p5a1db9935d)" style="fill: none; stroke: #000000; stroke-linecap: round"/>
    <path d="M 226.322119 179.36278 
L 229.381229 176.100596 
L 230.15551 180.505194 
L 226.322119 179.36278 
z
" clip-path="url(#p5a1db9935d)" style="stroke: #000000; stroke-linecap: round"/>
   </g>
   <g id="PathCollection_1">
    <defs>
     <path id="m01c24438ee" d="M 0 1.936492 
C 0.513564 1.936492 1.006162 1.732451 1.369306 1.369306 
C 1.732451 1.006162 1.936492 0.513564 1.936492 0 
C 1.936492 -0.513564 1.732451 -1.006162 1.369306 -1.369306 
C 1.006162 -1.732451 0.513564 -1.936492 0 -1.936492 
C -0.513564 -1.936492 -1.006162 -1.732451 -1.369306 -1.369306 
C -1.732451 -1.006162 -1.936492 -0.513564 -1.936492 0 
C -1.936492 0.513564 -1.732451 1.006162 -1.369306 1.369306 
C -1.006162 1.732451 -0.513564 1.936492 0 1.936492 
z
" style="stroke: #1f78b4"/>
    </defs>
    <g clip-path="url(#p5a1db9935d)">
     <use xlink:href="#m01c24438ee" x="230.25416" y="173.171459" style="fill: #1f78b4; stroke: #1f78b4"/>
     <use xlink:href="#m01c24438ee" x="39.986777" y="141.011136" style="fill: #1f78b4; stroke: #1f78b4"/>
     <use xlink:href="#m01c24438ee" x="420.813223" y="204.48937" style="fill: #1f78b4; stroke: #1f78b4"/>
     <use xlink:href="#m01c24438ee" x="272.762525" y="29.990083" style="fill: #1f78b4; stroke: #1f78b4"/>
     <use xlink:href="#m01c24438ee" x="187.805137" y="315.609917" style="fill: #1f78b4; stroke: #1f78b4"/>
    </g>
   </g>
   <g id="text_1">
    <g clip-path="url(#p5a1db9935d)">
     <!-- 0 -->
     <g transform="translate(227.07291 175.930834) scale(0.1 -0.1)">
      <defs>
       <path id="DejaVuSans-30" d="M 2034 4250 
Q 1547 4250 1301 3770 
Q 1056 3291 1056 2328 
Q 1056 1369 1301 889 
Q 1547 409 2034 409 
Q 2525 409 2770 889 
Q 3016 1369 3016 2328 
Q 3016 3291 2770 3770 
Q 2525 4250 2034 4250 
z
M 2034 4750 
Q 2819 4750 3233 4129 
Q 3647 3509 3647 2328 
Q 3647 1150 3233 529 
Q 2819 -91 2034 -91 
Q 1250 -91 836 529 
Q 422 1150 422 2328 
Q 422 3509 836 4129 
Q 1250 4750 2034 4750 
z
" transform="scale(0.015625)"/>
      </defs>
      <use xlink:href="#DejaVuSans-30"/>
     </g>
    </g>
   </g>
   <g id="text_2">
    <g clip-path="url(#p5a1db9935d)">
     <!-- 1 -->
     <g transform="translate(36.805527 143.770511) scale(0.1 -0.1)">
      <defs>
       <path id="DejaVuSans-31" d="M 794 531 
L 1825 531 
L 1825 4091 
L 703 3866 
L 703 4441 
L 1819 4666 
L 2450 4666 
L 2450 531 
L 3481 531 
L 3481 0 
L 794 0 
L 794 531 
z
" transform="scale(0.015625)"/>
      </defs>
      <use xlink:href="#DejaVuSans-31"/>
     </g>
    </g>
   </g>
   <g id="text_3">
    <g clip-path="url(#p5a1db9935d)">
     <!-- 2 -->
     <g transform="translate(417.631973 207.248745) scale(0.1 -0.1)">
      <defs>
       <path id="DejaVuSans-32" d="M 1228 531 
L 3431 531 
L 3431 0 
L 469 0 
L 469 531 
Q 828 903 1448 1529 
Q 2069 2156 2228 2338 
Q 2531 2678 2651 2914 
Q 2772 3150 2772 3378 
Q 2772 3750 2511 3984 
Q 2250 4219 1831 4219 
Q 1534 4219 1204 4116 
Q 875 4013 500 3803 
L 500 4441 
Q 881 4594 1212 4672 
Q 1544 4750 1819 4750 
Q 2544 4750 2975 4387 
Q 3406 4025 3406 3419 
Q 3406 3131 3298 2873 
Q 3191 2616 2906 2266 
Q 2828 2175 2409 1742 
Q 1991 1309 1228 531 
z
" transform="scale(0.015625)"/>
      </defs>
      <use xlink:href="#DejaVuSans-32"/>
     </g>
    </g>
   </g>
   <g id="text_4">
    <g clip-path="url(#p5a1db9935d)">
     <!-- 3 -->
     <g transform="translate(269.581275 32.749458) scale(0.1 -0.1)">
      <defs>
       <path id="DejaVuSans-33" d="M 2597 2516 
Q 3050 2419 3304 2112 
Q 3559 1806 3559 1356 
Q 3559 666 3084 287 
Q 2609 -91 1734 -91 
Q 1441 -91 1130 -33 
Q 819 25 488 141 
L 488 750 
Q 750 597 1062 519 
Q 1375 441 1716 441 
Q 2309 441 2620 675 
Q 2931 909 2931 1356 
Q 2931 1769 2642 2001 
Q 2353 2234 1838 2234 
L 1294 2234 
L 1294 2753 
L 1863 2753 
Q 2328 2753 2575 2939 
Q 2822 3125 2822 3475 
Q 2822 3834 2567 4026 
Q 2313 4219 1838 4219 
Q 1578 4219 1281 4162 
Q 984 4106 628 3988 
L 628 4550 
Q 988 4650 1302 4700 
Q 1616 4750 1894 4750 
Q 2613 4750 3031 4423 
Q 3450 4097 3450 3541 
Q 3450 3153 3228 2886 
Q 3006 2619 2597 2516 
z
" transform="scale(0.015625)"/>
      </defs>
      <use xlink:href="#DejaVuSans-33"/>
     </g>
    </g>
   </g>
   <g id="text_5">
    <g clip-path="url(#p5a1db9935d)">
     <!-- 4 -->
     <g transform="translate(184.623887 318.369292) scale(0.1 -0.1)">
      <defs>
       <path id="DejaVuSans-34" d="M 2419 4116 
L 825 1625 
L 2419 1625 
L 2419 4116 
z
M 2253 4666 
L 3047 4666 
L 3047 1625 
L 3713 1625 
L 3713 1100 
L 3047 1100 
L 3047 0 
L 2419 0 
L 2419 1100 
L 313 1100 
L 313 1709 
L 2253 4666 
z
" transform="scale(0.015625)"/>
      </defs>
      <use xlink:href="#DejaVuSans-34"/>
     </g>
    </g>
   </g>
  </g>
 </g>
 <defs>
  <clipPath id="p5a1db9935d">
   <rect x="0" y="0" width="460.8" height="345.6"/>
  </clipPath>
 </defs>
</svg>
