<?xml version="1.0" encoding="utf-8" standalone="no"?>
<!DOCTYPE svg PUBLIC "-//W3C//DTD SVG 1.1//EN"
  "http://www.w3.org/Graphics/SVG/1.1/DTD/svg11.dtd">
<svg xmlns:xlink="http://www.w3.org/1999/xlink" width="460.8pt" height="345.6pt" viewBox="0 0 460.8 345.6" xmlns="http://www.w3.org/2000/svg" version="1.1">
 <metadata>
  <rdf:RDF xmlns:dc="http://purl.org/dc/elements/1.1/" xmlns:cc="http://creativecommons.org/ns#" xmlns:rdf="http://www.w3.org/1999/02/22-rdf-syntax-ns#">
   <cc:Work>
    <dc:type rdf:resource="http://purl.org/dc/dcmitype/StillImage"/>
    <dc:date>2023-10-10T10:57:36.133864</dc:date>
    <dc:format>image/svg+xml</dc:format>
    <dc:creator>
     <cc:Agent>
      <dc:title>Matplotlib v3.6.1, https://matplotlib.org/</dc:title>
     </cc:Agent>
    </dc:creator>
   </cc:Work>
  </rdf:RDF>
 </metadata>
 <defs>
  <style type="text/css">*{stroke-linejoin: round; stroke-linecap: butt}</style>
 </defs>
 <g id="figure_1">
  <g id="patch_1">
   <path d="M 0 345.6 
L 460.8 345.6 
L 460.8 0 
L 0 0 
z
" style="fill: #ffffff"/>
  </g>
  <g id="axes_1">
   <g id="patch_2">
    <path d="M 338.216737 211.089209 
Q 372.564072 225.944958 405.885242 240.356876 
" clip-path="url(#p3b917b1c1a)" style="fill: none; stroke: #000000; stroke-linecap: round"/>
    <path d="M 403.007875 236.933316 
L 405.885242 240.356876 
L 401.419974 240.604634 
L 403.007875 236.933316 
z
" clip-path="url(#p3b917b1c1a)" style="stroke: #000000; stroke-linecap: round"/>
   </g>
   <g id="patch_3">
    <path d="M 337.840288 211.658334 
Q 362.341097 235.058825 386.033391 257.687109 
" clip-path="url(#p3b917b1c1a)" style="fill: none; stroke: #000000; stroke-linecap: round"/>
    <path d="M 384.522121 253.478064 
L 386.033391 257.687109 
L 381.759393 256.370699 
L 384.522121 253.478064 
z
" clip-path="url(#p3b917b1c1a)" style="stroke: #000000; stroke-linecap: round"/>
   </g>
   <g id="patch_4">
    <path d="M 338.340754 209.968067 
Q 374.701163 203.225875 409.962277 196.687521 
" clip-path="url(#p3b917b1c1a)" style="fill: none; stroke: #000000; stroke-linecap: round"/>
    <path d="M 405.664681 195.450318 
L 409.962277 196.687521 
L 406.393957 199.383276 
L 405.664681 195.450318 
z
" clip-path="url(#p3b917b1c1a)" style="stroke: #000000; stroke-linecap: round"/>
   </g>
   <g id="patch_5">
    <path d="M 334.735045 209.405415 
Q 275.058604 177.366023 216.367207 145.855487 
" clip-path="url(#p3b917b1c1a)" style="fill: none; stroke: #000000; stroke-linecap: round"/>
    <path d="M 218.945362 149.509678 
L 216.367207 145.855487 
L 220.837453 145.985477 
L 218.945362 149.509678 
z
" clip-path="url(#p3b917b1c1a)" style="stroke: #000000; stroke-linecap: round"/>
   </g>
   <g id="patch_6">
    <path d="M 338.36307 210.546967 
Q 378.625708 215.285749 417.777976 219.893843 
" clip-path="url(#p3b917b1c1a)" style="fill: none; stroke: #000000; stroke-linecap: round"/>
    <path d="M 414.039177 217.439994 
L 417.777976 219.893843 
L 413.571617 221.412574 
L 414.039177 217.439994 
z
" clip-path="url(#p3b917b1c1a)" style="stroke: #000000; stroke-linecap: round"/>
   </g>
   <g id="patch_7">
    <path d="M 334.626928 210.994704 
Q 290.395484 227.443698 247.211957 243.502988 
" clip-path="url(#p3b917b1c1a)" style="fill: none; stroke: #000000; stroke-linecap: round"/>
    <path d="M 251.658224 243.983311 
L 247.211957 243.502988 
L 250.263976 240.234169 
L 251.658224 243.983311 
z
" clip-path="url(#p3b917b1c1a)" style="stroke: #000000; stroke-linecap: round"/>
   </g>
   <g id="patch_8">
    <path d="M 406.910707 240.800405 
Q 372.563372 225.944656 339.242202 211.532738 
" clip-path="url(#p3b917b1c1a)" style="fill: none; stroke: #000000; stroke-linecap: round"/>
    <path d="M 342.119568 214.956298 
L 339.242202 211.532738 
L 343.707469 211.28498 
L 342.119568 214.956298 
z
" clip-path="url(#p3b917b1c1a)" style="stroke: #000000; stroke-linecap: round"/>
   </g>
   <g id="patch_9">
    <path d="M 386.840951 258.458402 
Q 362.340141 235.057911 338.647847 212.429626 
" clip-path="url(#p3b917b1c1a)" style="fill: none; stroke: #000000; stroke-linecap: round"/>
    <path d="M 340.159118 216.638671 
L 338.647847 212.429626 
L 342.921846 213.746037 
L 340.159118 216.638671 
z
" clip-path="url(#p3b917b1c1a)" style="stroke: #000000; stroke-linecap: round"/>
   </g>
   <g id="patch_10">
    <path d="M 411.069006 196.482304 
Q 374.708597 203.224497 339.447483 209.76285 
" clip-path="url(#p3b917b1c1a)" style="fill: none; stroke: #000000; stroke-linecap: round"/>
    <path d="M 343.745078 211.000053 
L 339.447483 209.76285 
L 343.015803 207.067096 
L 343.745078 211.000053 
z
" clip-path="url(#p3b917b1c1a)" style="stroke: #000000; stroke-linecap: round"/>
   </g>
   <g id="patch_11">
    <path d="M 215.383666 145.327438 
Q 275.060107 177.36683 333.751504 208.877367 
" clip-path="url(#p3b917b1c1a)" style="fill: none; stroke: #000000; stroke-linecap: round"/>
    <path d="M 331.173348 205.223176 
L 333.751504 208.877367 
L 329.281257 208.747376 
L 331.173348 205.223176 
z
" clip-path="url(#p3b917b1c1a)" style="stroke: #000000; stroke-linecap: round"/>
   </g>
   <g id="patch_12">
    <path d="M 212.07664 145.500063 
Q 166.2037 176.640391 121.25579 207.152771 
" clip-path="url(#p3b917b1c1a)" style="fill: none; stroke: #000000; stroke-linecap: round"/>
    <path d="M 125.688588 206.560906 
L 121.25579 207.152771 
L 123.441977 203.251414 
L 125.688588 206.560906 
z
" clip-path="url(#p3b917b1c1a)" style="stroke: #000000; stroke-linecap: round"/>
   </g>
   <g id="patch_13">
    <path d="M 214.581423 142.700754 
Q 228.982298 115.386138 242.86175 89.060521 
" clip-path="url(#p3b917b1c1a)" style="fill: none; stroke: #000000; stroke-linecap: round"/>
    <path d="M 239.227078 91.666123 
L 242.86175 89.060521 
L 242.765428 93.53162 
L 239.227078 91.666123 
z
" clip-path="url(#p3b917b1c1a)" style="stroke: #000000; stroke-linecap: round"/>
   </g>
   <g id="patch_14">
    <path d="M 212.090477 143.304819 
Q 184.564529 124.11582 157.955747 105.566199 
" clip-path="url(#p3b917b1c1a)" style="fill: none; stroke: #000000; stroke-linecap: round"/>
    <path d="M 160.093346 109.494388 
L 157.955747 105.566199 
L 162.380858 106.213033 
L 160.093346 109.494388 
z
" clip-path="url(#p3b917b1c1a)" style="stroke: #000000; stroke-linecap: round"/>
   </g>
   <g id="patch_15">
    <path d="M 212.995564 142.597684 
Q 205.781559 123.445931 198.96166 105.340449 
" clip-path="url(#p3b917b1c1a)" style="fill: none; stroke: #000000; stroke-linecap: round"/>
    <path d="M 198.500027 109.788695 
L 198.96166 105.340449 
L 202.243277 108.378703 
L 198.500027 109.788695 
z
" clip-path="url(#p3b917b1c1a)" style="stroke: #000000; stroke-linecap: round"/>
   </g>
   <g id="patch_16">
    <path d="M 212.49908 142.876014 
Q 189.69246 113.18368 167.566886 84.378013 
" clip-path="url(#p3b917b1c1a)" style="fill: none; stroke: #000000; stroke-linecap: round"/>
    <path d="M 168.417355 88.768537 
L 167.566886 84.378013 
L 171.589587 86.331953 
L 168.417355 88.768537 
z
" clip-path="url(#p3b917b1c1a)" style="stroke: #000000; stroke-linecap: round"/>
   </g>
   <g id="patch_17">
    <path d="M 211.744957 144.279619 
Q 186.778804 142.567347 162.928065 140.931574 
" clip-path="url(#p3b917b1c1a)" style="fill: none; stroke: #000000; stroke-linecap: round"/>
    <path d="M 166.781844 143.200579 
L 162.928065 140.931574 
L 167.055536 139.209954 
L 166.781844 143.200579 
z
" clip-path="url(#p3b917b1c1a)" style="stroke: #000000; stroke-linecap: round"/>
   </g>
   <g id="patch_18">
    <path d="M 213.13098 142.558845 
Q 202.537562 106.736353 192.261196 71.985999 
" clip-path="url(#p3b917b1c1a)" style="fill: none; stroke: #000000; stroke-linecap: round"/>
    <path d="M 191.477619 76.388953 
L 192.261196 71.985999 
L 195.313413 75.254633 
L 191.477619 76.388953 
z
" clip-path="url(#p3b917b1c1a)" style="stroke: #000000; stroke-linecap: round"/>
   </g>
   <g id="patch_19">
    <path d="M 211.96535 145.310655 
Q 188.74327 157.48438 166.511408 169.139002 
" clip-path="url(#p3b917b1c1a)" style="fill: none; stroke: #000000; stroke-linecap: round"/>
    <path d="M 170.98272 169.05316 
L 166.511408 169.139002 
L 169.125522 165.510447 
L 170.98272 169.05316 
z
" clip-path="url(#p3b917b1c1a)" style="stroke: #000000; stroke-linecap: round"/>
   </g>
   <g id="patch_20">
    <path d="M 215.176588 143.184642 
Q 230.599519 130.541283 245.157815 118.606732 
" clip-path="url(#p3b917b1c1a)" style="fill: none; stroke: #000000; stroke-linecap: round"/>
    <path d="M 240.796452 119.595932 
L 245.157815 118.606732 
L 243.332358 122.689342 
L 240.796452 119.595932 
z
" clip-path="url(#p3b917b1c1a)" style="stroke: #000000; stroke-linecap: round"/>
   </g>
   <g id="patch_21">
    <path d="M 213.842899 142.487059 
Q 216.694639 108.974422 219.451584 76.575793 
" clip-path="url(#p3b917b1c1a)" style="fill: none; stroke: #000000; stroke-linecap: round"/>
    <path d="M 217.119634 80.391813 
L 219.451584 76.575793 
L 221.10523 80.730965 
L 217.119634 80.391813 
z
" clip-path="url(#p3b917b1c1a)" style="stroke: #000000; stroke-linecap: round"/>
   </g>
   <g id="patch_22">
    <path d="M 214.245327 146.261455 
Q 229.013473 194.489148 243.454263 241.647804 
" clip-path="url(#p3b917b1c1a)" style="fill: none; stroke: #000000; stroke-linecap: round"/>
    <path d="M 244.195424 237.237512 
L 243.454263 241.647804 
L 240.370725 238.4087 
L 244.195424 237.237512 
z
" clip-path="url(#p3b917b1c1a)" style="stroke: #000000; stroke-linecap: round"/>
   </g>
   <g id="patch_23">
    <path d="M 215.476887 145.126095 
Q 238.26435 154.173922 260.012693 162.809164 
" clip-path="url(#p3b917b1c1a)" style="fill: none; stroke: #000000; stroke-linecap: round"/>
    <path d="M 257.033076 159.474215 
L 260.012693 162.809164 
L 255.556964 163.191888 
L 257.033076 159.474215 
z
" clip-path="url(#p3b917b1c1a)" style="stroke: #000000; stroke-linecap: round"/>
   </g>
   <g id="patch_24">
    <path d="M 211.835397 143.805964 
Q 175.047843 131.708155 139.322368 119.959617 
" clip-path="url(#p3b917b1c1a)" style="fill: none; stroke: #000000; stroke-linecap: round"/>
    <path d="M 142.49738 123.109109 
L 139.322368 119.959617 
L 143.746969 119.309303 
L 142.49738 123.109109 
z
" clip-path="url(#p3b917b1c1a)" style="stroke: #000000; stroke-linecap: round"/>
   </g>
   <g id="patch_25">
    <path d="M 214.049152 146.313597 
Q 218.576857 169.575375 222.890955 191.739715 
" clip-path="url(#p3b917b1c1a)" style="fill: none; stroke: #000000; stroke-linecap: round"/>
    <path d="M 224.089889 187.431287 
L 222.890955 191.739715 
L 220.163573 188.19551 
L 224.089889 187.431287 
z
" clip-path="url(#p3b917b1c1a)" style="stroke: #000000; stroke-linecap: round"/>
   </g>
   <g id="patch_26">
    <path d="M 215.267542 143.312323 
Q 245.337525 122.490156 274.488334 102.304478 
" clip-path="url(#p3b917b1c1a)" style="fill: none; stroke: #000000; stroke-linecap: round"/>
    <path d="M 270.061209 102.93738 
L 274.488334 102.304478 
L 272.338381 106.225919 
L 270.061209 102.93738 
z
" clip-path="url(#p3b917b1c1a)" style="stroke: #000000; stroke-linecap: round"/>
   </g>
   <g id="patch_27">
    <path d="M 243.385582 88.066953 
Q 228.984707 115.381569 215.105254 141.707186 
" clip-path="url(#p3b917b1c1a)" style="fill: none; stroke: #000000; stroke-linecap: round"/>
    <path d="M 218.739926 139.101585 
L 215.105254 141.707186 
L 215.201576 137.236087 
L 218.739926 139.101585 
z
" clip-path="url(#p3b917b1c1a)" style="stroke: #000000; stroke-linecap: round"/>
   </g>
   <g id="patch_28">
    <path d="M 157.040438 104.928115 
Q 184.566387 124.117115 211.175169 142.666736 
" clip-path="url(#p3b917b1c1a)" style="fill: none; stroke: #000000; stroke-linecap: round"/>
    <path d="M 209.037569 138.738547 
L 211.175169 142.666736 
L 206.750058 142.019902 
L 209.037569 138.738547 
z
" clip-path="url(#p3b917b1c1a)" style="stroke: #000000; stroke-linecap: round"/>
   </g>
   <g id="patch_29">
    <path d="M 198.567618 104.294347 
Q 205.781623 123.4461 212.601523 141.551583 
" clip-path="url(#p3b917b1c1a)" style="fill: none; stroke: #000000; stroke-linecap: round"/>
    <path d="M 213.063156 137.103337 
L 212.601523 141.551583 
L 209.319906 138.513329 
L 213.063156 137.103337 
z
" clip-path="url(#p3b917b1c1a)" style="stroke: #000000; stroke-linecap: round"/>
   </g>
   <g id="patch_30">
    <path d="M 166.886305 83.491952 
Q 189.692925 113.184285 211.818499 141.989953 
" clip-path="url(#p3b917b1c1a)" style="fill: none; stroke: #000000; stroke-linecap: round"/>
    <path d="M 210.96803 137.599428 
L 211.818499 141.989953 
L 207.795798 140.036013 
L 210.96803 137.599428 
z
" clip-path="url(#p3b917b1c1a)" style="stroke: #000000; stroke-linecap: round"/>
   </g>
   <g id="patch_31">
    <path d="M 161.812537 140.855067 
Q 186.77869 142.567339 210.629429 144.203112 
" clip-path="url(#p3b917b1c1a)" style="fill: none; stroke: #000000; stroke-linecap: round"/>
    <path d="M 206.775649 141.934107 
L 210.629429 144.203112 
L 206.501957 145.924733 
L 206.775649 141.934107 
z
" clip-path="url(#p3b917b1c1a)" style="stroke: #000000; stroke-linecap: round"/>
   </g>
   <g id="patch_32">
    <path d="M 84.710695 64.277185 
Q 109.902837 90.938638 134.32712 116.787446 
" clip-path="url(#p3b917b1c1a)" style="fill: none; stroke: #000000; stroke-linecap: round"/>
    <path d="M 133.033644 112.506451 
L 134.32712 116.787446 
L 130.126238 115.25363 
L 133.033644 112.506451 
z
" clip-path="url(#p3b917b1c1a)" style="stroke: #000000; stroke-linecap: round"/>
   </g>
   <g id="patch_33">
    <path d="M 62.858517 84.804435 
Q 98.763345 101.497308 133.654351 117.718835 
" clip-path="url(#p3b917b1c1a)" style="fill: none; stroke: #000000; stroke-linecap: round"/>
    <path d="M 130.870364 114.218919 
L 133.654351 117.718835 
L 129.184026 117.846076 
L 130.870364 114.218919 
z
" clip-path="url(#p3b917b1c1a)" style="stroke: #000000; stroke-linecap: round"/>
   </g>
   <g id="patch_34">
    <path d="M 42.228501 220.201336 
Q 79.518192 214.677547 115.701918 209.317587 
" clip-path="url(#p3b917b1c1a)" style="fill: none; stroke: #000000; stroke-linecap: round"/>
    <path d="M 111.452029 207.925307 
L 115.701918 209.317587 
L 112.03816 211.88213 
L 111.452029 207.925307 
z
" clip-path="url(#p3b917b1c1a)" style="stroke: #000000; stroke-linecap: round"/>
   </g>
   <g id="patch_35">
    <path d="M 191.944359 70.914591 
Q 202.537778 106.737083 212.814144 141.487437 
" clip-path="url(#p3b917b1c1a)" style="fill: none; stroke: #000000; stroke-linecap: round"/>
    <path d="M 213.597721 137.084483 
L 212.814144 141.487437 
L 209.761927 138.218803 
L 213.597721 137.084483 
z
" clip-path="url(#p3b917b1c1a)" style="stroke: #000000; stroke-linecap: round"/>
   </g>
   <g id="patch_36">
    <path d="M 165.521292 169.658051 
Q 188.743372 157.484326 210.975234 145.829704 
" clip-path="url(#p3b917b1c1a)" style="fill: none; stroke: #000000; stroke-linecap: round"/>
    <path d="M 206.503922 145.915546 
L 210.975234 145.829704 
L 208.36112 149.458259 
L 206.503922 145.915546 
z
" clip-path="url(#p3b917b1c1a)" style="stroke: #000000; stroke-linecap: round"/>
   </g>
   <g id="patch_37">
    <path d="M 246.023304 117.897224 
Q 230.600373 130.540583 216.042077 142.475134 
" clip-path="url(#p3b917b1c1a)" style="fill: none; stroke: #000000; stroke-linecap: round"/>
    <path d="M 220.40344 141.485934 
L 216.042077 142.475134 
L 217.867535 138.392524 
L 220.40344 141.485934 
z
" clip-path="url(#p3b917b1c1a)" style="stroke: #000000; stroke-linecap: round"/>
   </g>
   <g id="patch_38">
    <path d="M 219.546944 75.455151 
Q 216.695204 108.967788 213.938259 141.366417 
" clip-path="url(#p3b917b1c1a)" style="fill: none; stroke: #000000; stroke-linecap: round"/>
    <path d="M 216.27021 137.550397 
L 213.938259 141.366417 
L 212.284614 137.211245 
L 216.27021 137.550397 
z
" clip-path="url(#p3b917b1c1a)" style="stroke: #000000; stroke-linecap: round"/>
   </g>
   <g id="patch_39">
    <path d="M 191.807759 255.378815 
Q 207.193673 225.915037 222.062064 197.442306 
" clip-path="url(#p3b917b1c1a)" style="fill: none; stroke: #000000; stroke-linecap: round"/>
    <path d="M 218.437686 200.062207 
L 222.062064 197.442306 
L 221.983359 201.913749 
L 218.437686 200.062207 
z
" clip-path="url(#p3b917b1c1a)" style="stroke: #000000; stroke-linecap: round"/>
   </g>
   <g id="patch_40">
    <path d="M 345.2844 55.531641 
Q 311.949316 77.516134 279.547567 98.885092 
" clip-path="url(#p3b917b1c1a)" style="fill: none; stroke: #000000; stroke-linecap: round"/>
    <path d="M 283.987875 98.352489 
L 279.547567 98.885092 
L 281.785669 95.013284 
L 283.987875 98.352489 
z
" clip-path="url(#p3b917b1c1a)" style="stroke: #000000; stroke-linecap: round"/>
   </g>
   <g id="patch_41">
    <path d="M 55.887785 110.6759 
Q 95.194801 114.741748 133.389717 118.692563 
" clip-path="url(#p3b917b1c1a)" style="fill: none; stroke: #000000; stroke-linecap: round"/>
    <path d="M 129.616725 116.29162 
L 133.389717 118.692563 
L 129.205168 120.270392 
L 129.616725 116.29162 
z
" clip-path="url(#p3b917b1c1a)" style="stroke: #000000; stroke-linecap: round"/>
   </g>
   <g id="patch_42">
    <path d="M 261.055485 163.223208 
Q 238.268021 154.17538 216.519679 145.540139 
" clip-path="url(#p3b917b1c1a)" style="fill: none; stroke: #000000; stroke-linecap: round"/>
    <path d="M 219.499295 148.875088 
L 216.519679 145.540139 
L 220.975408 145.157415 
L 219.499295 148.875088 
z
" clip-path="url(#p3b917b1c1a)" style="stroke: #000000; stroke-linecap: round"/>
   </g>
   <g id="patch_43">
    <path d="M 318.572854 40.514808 
Q 298.338967 69.742401 278.741463 98.050747 
" clip-path="url(#p3b917b1c1a)" style="fill: none; stroke: #000000; stroke-linecap: round"/>
    <path d="M 282.662658 95.900344 
L 278.741463 98.050747 
L 279.373857 93.623549 
L 282.662658 95.900344 
z
" clip-path="url(#p3b917b1c1a)" style="stroke: #000000; stroke-linecap: round"/>
   </g>
   <g id="patch_44">
    <path d="M 138.267467 119.612707 
Q 175.05502 131.710515 210.780495 143.459053 
" clip-path="url(#p3b917b1c1a)" style="fill: none; stroke: #000000; stroke-linecap: round"/>
    <path d="M 207.605484 140.309561 
L 210.780495 143.459053 
L 206.355894 144.109367 
L 207.605484 140.309561 
z
" clip-path="url(#p3b917b1c1a)" style="stroke: #000000; stroke-linecap: round"/>
   </g>
   <g id="patch_45">
    <path d="M 135.093163 117.598169 
Q 109.901021 90.936716 85.476739 65.087908 
" clip-path="url(#p3b917b1c1a)" style="fill: none; stroke: #000000; stroke-linecap: round"/>
    <path d="M 86.770215 69.368903 
L 85.476739 65.087908 
L 89.67762 66.621724 
L 86.770215 69.368903 
z
" clip-path="url(#p3b917b1c1a)" style="stroke: #000000; stroke-linecap: round"/>
   </g>
   <g id="patch_46">
    <path d="M 134.669991 118.191026 
Q 98.765163 101.498154 63.874157 85.276627 
" clip-path="url(#p3b917b1c1a)" style="fill: none; stroke: #000000; stroke-linecap: round"/>
    <path d="M 66.658144 88.776543 
L 63.874157 85.276627 
L 68.344482 85.149386 
L 66.658144 88.776543 
z
" clip-path="url(#p3b917b1c1a)" style="stroke: #000000; stroke-linecap: round"/>
   </g>
   <g id="patch_47">
    <path d="M 134.498656 118.80727 
Q 95.191639 114.741421 56.996723 110.790607 
" clip-path="url(#p3b917b1c1a)" style="fill: none; stroke: #000000; stroke-linecap: round"/>
    <path d="M 60.769716 113.19155 
L 56.996723 110.790607 
L 61.181273 109.212778 
L 60.769716 113.19155 
z
" clip-path="url(#p3b917b1c1a)" style="stroke: #000000; stroke-linecap: round"/>
   </g>
   <g id="patch_48">
    <path d="M 136.049523 120.906888 
Q 127.575077 163.939253 119.316659 205.874654 
" clip-path="url(#p3b917b1c1a)" style="fill: none; stroke: #000000; stroke-linecap: round"/>
    <path d="M 122.051853 202.336474 
L 119.316659 205.874654 
L 118.127232 201.563591 
L 122.051853 202.336474 
z
" clip-path="url(#p3b917b1c1a)" style="stroke: #000000; stroke-linecap: round"/>
   </g>
   <g id="patch_49">
    <path d="M 138.341458 118.754827 
Q 206.712952 109.785314 273.97591 100.961227 
" clip-path="url(#p3b917b1c1a)" style="fill: none; stroke: #000000; stroke-linecap: round"/>
    <path d="M 269.749746 99.498512 
L 273.97591 100.961227 
L 270.270039 103.46453 
L 269.749746 99.498512 
z
" clip-path="url(#p3b917b1c1a)" style="stroke: #000000; stroke-linecap: round"/>
   </g>
   <g id="patch_50">
    <path d="M 66.53697 252.843136 
Q 91.891315 231.48033 116.390659 210.837923 
" clip-path="url(#p3b917b1c1a)" style="fill: none; stroke: #000000; stroke-linecap: round"/>
    <path d="M 112.043027 211.885825 
L 116.390659 210.837923 
L 114.620401 214.94477 
L 112.043027 211.885825 
z
" clip-path="url(#p3b917b1c1a)" style="stroke: #000000; stroke-linecap: round"/>
   </g>
   <g id="patch_51">
    <path d="M 333.204257 79.651302 
Q 306.010129 89.770199 279.863845 99.499194 
" clip-path="url(#p3b917b1c1a)" style="fill: none; stroke: #000000; stroke-linecap: round"/>
    <path d="M 284.310202 99.978681 
L 279.863845 99.499194 
L 282.915249 96.229801 
L 284.310202 99.978681 
z
" clip-path="url(#p3b917b1c1a)" style="stroke: #000000; stroke-linecap: round"/>
   </g>
   <g id="patch_52">
    <path d="M 223.104387 192.836254 
Q 218.576682 169.574475 214.262583 147.410136 
" clip-path="url(#p3b917b1c1a)" style="fill: none; stroke: #000000; stroke-linecap: round"/>
    <path d="M 213.063649 151.718564 
L 214.262583 147.410136 
L 216.989966 150.954341 
L 213.063649 151.718564 
z
" clip-path="url(#p3b917b1c1a)" style="stroke: #000000; stroke-linecap: round"/>
   </g>
   <g id="patch_53">
    <path d="M 222.578105 196.454095 
Q 207.192192 225.917873 192.3238 254.390605 
" clip-path="url(#p3b917b1c1a)" style="fill: none; stroke: #000000; stroke-linecap: round"/>
    <path d="M 195.948178 251.770703 
L 192.3238 254.390605 
L 192.402506 249.919161 
L 195.948178 251.770703 
z
" clip-path="url(#p3b917b1c1a)" style="stroke: #000000; stroke-linecap: round"/>
   </g>
   <g id="patch_54">
    <path d="M 223.374869 196.672469 
Q 221.86521 226.00143 220.413025 254.213835 
" clip-path="url(#p3b917b1c1a)" style="fill: none; stroke: #000000; stroke-linecap: round"/>
    <path d="M 222.616001 250.321934 
L 220.413025 254.213835 
L 218.62129 250.116313 
L 222.616001 250.321934 
z
" clip-path="url(#p3b917b1c1a)" style="stroke: #000000; stroke-linecap: round"/>
   </g>
   <g id="patch_55">
    <path d="M 222.004484 196.002217 
Q 198.333795 216.366275 175.510653 236.001182 
" clip-path="url(#p3b917b1c1a)" style="fill: none; stroke: #000000; stroke-linecap: round"/>
    <path d="M 179.84728 234.90863 
L 175.510653 236.001182 
L 177.238588 231.87635 
L 179.84728 234.90863 
z
" clip-path="url(#p3b917b1c1a)" style="stroke: #000000; stroke-linecap: round"/>
   </g>
   <g id="patch_56">
    <path d="M 224.430068 193.056328 
Q 250.236808 147.652883 275.491078 103.221434 
" clip-path="url(#p3b917b1c1a)" style="fill: none; stroke: #000000; stroke-linecap: round"/>
    <path d="M 271.775741 105.710665 
L 275.491078 103.221434 
L 275.25326 107.687243 
L 271.775741 105.710665 
z
" clip-path="url(#p3b917b1c1a)" style="stroke: #000000; stroke-linecap: round"/>
   </g>
   <g id="patch_57">
    <path d="M 220.355588 255.329688 
Q 221.865247 226.000727 223.317432 197.788322 
" clip-path="url(#p3b917b1c1a)" style="fill: none; stroke: #000000; stroke-linecap: round"/>
    <path d="M 221.114456 201.680223 
L 223.317432 197.788322 
L 225.109167 201.885844 
L 221.114456 201.680223 
z
" clip-path="url(#p3b917b1c1a)" style="stroke: #000000; stroke-linecap: round"/>
   </g>
   <g id="patch_58">
    <path d="M 174.664374 236.729242 
Q 198.335063 216.365184 221.158204 196.730277 
" clip-path="url(#p3b917b1c1a)" style="fill: none; stroke: #000000; stroke-linecap: round"/>
    <path d="M 216.821577 197.822829 
L 221.158204 196.730277 
L 219.430269 200.855109 
L 216.821577 197.822829 
z
" clip-path="url(#p3b917b1c1a)" style="stroke: #000000; stroke-linecap: round"/>
   </g>
   <g id="patch_59">
    <path d="M 361.999674 86.967958 
Q 320.456377 93.613241 280.017079 100.081929 
" clip-path="url(#p3b917b1c1a)" style="fill: none; stroke: #000000; stroke-linecap: round"/>
    <path d="M 284.282771 101.425013 
L 280.017079 100.081929 
L 283.650961 97.475226 
L 284.282771 101.425013 
z
" clip-path="url(#p3b917b1c1a)" style="stroke: #000000; stroke-linecap: round"/>
   </g>
   <g id="patch_60">
    <path d="M 345.317194 116.995262 
Q 312.099529 109.00594 279.9689 101.278066 
" clip-path="url(#p3b917b1c1a)" style="fill: none; stroke: #000000; stroke-linecap: round"/>
    <path d="M 283.390303 104.157997 
L 279.9689 101.278066 
L 284.325686 100.268902 
L 283.390303 104.157997 
z
" clip-path="url(#p3b917b1c1a)" style="stroke: #000000; stroke-linecap: round"/>
   </g>
   <g id="patch_61">
    <path d="M 288.849415 31.89831 
Q 283.089896 65.277856 277.52048 97.55565 
" clip-path="url(#p3b917b1c1a)" style="fill: none; stroke: #000000; stroke-linecap: round"/>
    <path d="M 280.171492 93.953964 
L 277.52048 97.55565 
L 276.229739 93.273829 
L 280.171492 93.953964 
z
" clip-path="url(#p3b917b1c1a)" style="stroke: #000000; stroke-linecap: round"/>
   </g>
   <g id="patch_62">
    <path d="M 275.412876 101.664272 
Q 245.342893 122.486439 216.192084 142.672117 
" clip-path="url(#p3b917b1c1a)" style="fill: none; stroke: #000000; stroke-linecap: round"/>
    <path d="M 220.619209 142.039215 
L 216.192084 142.672117 
L 218.342038 138.750676 
L 220.619209 142.039215 
z
" clip-path="url(#p3b917b1c1a)" style="stroke: #000000; stroke-linecap: round"/>
   </g>
   <g id="patch_63">
    <path d="M 278.61611 99.499389 
Q 311.951194 77.514895 344.352943 56.145937 
" clip-path="url(#p3b917b1c1a)" style="fill: none; stroke: #000000; stroke-linecap: round"/>
    <path d="M 339.912635 56.67854 
L 344.352943 56.145937 
L 342.114841 60.017745 
L 339.912635 56.67854 
z
" clip-path="url(#p3b917b1c1a)" style="stroke: #000000; stroke-linecap: round"/>
   </g>
   <g id="patch_64">
    <path d="M 278.103076 98.972889 
Q 298.336964 69.745295 317.934467 41.436949 
" clip-path="url(#p3b917b1c1a)" style="fill: none; stroke: #000000; stroke-linecap: round"/>
    <path d="M 314.013273 43.587352 
L 317.934467 41.436949 
L 317.302073 45.864147 
L 314.013273 43.587352 
z
" clip-path="url(#p3b917b1c1a)" style="stroke: #000000; stroke-linecap: round"/>
   </g>
   <g id="patch_65">
    <path d="M 275.083675 100.815902 
Q 206.712181 109.785415 139.449223 118.609502 
" clip-path="url(#p3b917b1c1a)" style="fill: none; stroke: #000000; stroke-linecap: round"/>
    <path d="M 143.675387 120.072217 
L 139.449223 118.609502 
L 143.155094 116.106199 
L 143.675387 120.072217 
z
" clip-path="url(#p3b917b1c1a)" style="stroke: #000000; stroke-linecap: round"/>
   </g>
   <g id="patch_66">
    <path d="M 278.817997 99.888353 
Q 306.012125 89.769456 332.158409 80.040461 
" clip-path="url(#p3b917b1c1a)" style="fill: none; stroke: #000000; stroke-linecap: round"/>
    <path d="M 327.712051 79.560974 
L 332.158409 80.040461 
L 329.107005 83.309854 
L 327.712051 79.560974 
z
" clip-path="url(#p3b917b1c1a)" style="stroke: #000000; stroke-linecap: round"/>
   </g>
   <g id="patch_67">
    <path d="M 276.04574 102.245582 
Q 250.239 147.649027 224.98473 192.080475 
" clip-path="url(#p3b917b1c1a)" style="fill: none; stroke: #000000; stroke-linecap: round"/>
    <path d="M 228.700067 189.591245 
L 224.98473 192.080475 
L 225.222548 187.614667 
L 228.700067 189.591245 
z
" clip-path="url(#p3b917b1c1a)" style="stroke: #000000; stroke-linecap: round"/>
   </g>
   <g id="patch_68">
    <path d="M 278.913654 100.258433 
Q 320.456951 93.613149 360.896249 87.144462 
" clip-path="url(#p3b917b1c1a)" style="fill: none; stroke: #000000; stroke-linecap: round"/>
    <path d="M 356.630557 85.801378 
L 360.896249 87.144462 
L 357.262367 89.751165 
L 356.630557 85.801378 
z
" clip-path="url(#p3b917b1c1a)" style="stroke: #000000; stroke-linecap: round"/>
   </g>
   <g id="patch_69">
    <path d="M 278.882226 101.016706 
Q 312.09989 109.006027 344.23052 116.733901 
" clip-path="url(#p3b917b1c1a)" style="fill: none; stroke: #000000; stroke-linecap: round"/>
    <path d="M 340.809116 113.853971 
L 344.23052 116.733901 
L 339.873734 117.743066 
L 340.809116 113.853971 
z
" clip-path="url(#p3b917b1c1a)" style="stroke: #000000; stroke-linecap: round"/>
   </g>
   <g id="patch_70">
    <path d="M 277.330602 98.6561 
Q 283.090121 65.276553 288.659537 32.99876 
" clip-path="url(#p3b917b1c1a)" style="fill: none; stroke: #000000; stroke-linecap: round"/>
    <path d="M 286.008525 36.600445 
L 288.659537 32.99876 
L 289.950278 37.28058 
L 286.008525 36.600445 
z
" clip-path="url(#p3b917b1c1a)" style="stroke: #000000; stroke-linecap: round"/>
   </g>
   <g id="patch_71">
    <path d="M 259.028217 313.715058 
Q 251.889478 280.088954 244.982919 247.556509 
" clip-path="url(#p3b917b1c1a)" style="fill: none; stroke: #000000; stroke-linecap: round"/>
    <path d="M 243.857198 251.884644 
L 244.982919 247.556509 
L 247.769995 251.053967 
L 243.857198 251.884644 
z
" clip-path="url(#p3b917b1c1a)" style="stroke: #000000; stroke-linecap: round"/>
   </g>
   <g id="patch_72">
    <path d="M 418.88979 220.0247 
Q 378.627151 215.285919 339.474883 210.677824 
" clip-path="url(#p3b917b1c1a)" style="fill: none; stroke: #000000; stroke-linecap: round"/>
    <path d="M 343.213683 213.131673 
L 339.474883 210.677824 
L 343.681242 209.159094 
L 343.213683 213.131673 
z
" clip-path="url(#p3b917b1c1a)" style="stroke: #000000; stroke-linecap: round"/>
   </g>
   <g id="patch_73">
    <path d="M 41.757756 243.140954 
Q 79.357953 226.398998 115.936788 210.111817 
" clip-path="url(#p3b917b1c1a)" style="fill: none; stroke: #000000; stroke-linecap: round"/>
    <path d="M 111.469127 209.911799 
L 115.936788 210.111817 
L 113.096176 213.565935 
L 111.469127 209.911799 
z
" clip-path="url(#p3b917b1c1a)" style="stroke: #000000; stroke-linecap: round"/>
   </g>
   <g id="patch_74">
    <path d="M 86.29156 269.45841 
Q 102.0529 240.016353 117.286572 211.559977 
" clip-path="url(#p3b917b1c1a)" style="fill: none; stroke: #000000; stroke-linecap: round"/>
    <path d="M 113.635489 214.142533 
L 117.286572 211.559977 
L 117.161967 216.030377 
L 113.635489 214.142533 
z
" clip-path="url(#p3b917b1c1a)" style="stroke: #000000; stroke-linecap: round"/>
   </g>
   <g id="patch_75">
    <path d="M 120.329314 207.781699 
Q 166.202254 176.641372 211.150164 146.128991 
" clip-path="url(#p3b917b1c1a)" style="fill: none; stroke: #000000; stroke-linecap: round"/>
    <path d="M 206.717366 146.720856 
L 211.150164 146.128991 
L 208.963978 150.030348 
L 206.717366 146.720856 
z
" clip-path="url(#p3b917b1c1a)" style="stroke: #000000; stroke-linecap: round"/>
   </g>
   <g id="patch_76">
    <path d="M 116.8076 209.1538 
Q 79.517909 214.677589 43.334183 220.03755 
" clip-path="url(#p3b917b1c1a)" style="fill: none; stroke: #000000; stroke-linecap: round"/>
    <path d="M 47.584072 221.42983 
L 43.334183 220.03755 
L 46.997941 217.473007 
L 47.584072 221.42983 
z
" clip-path="url(#p3b917b1c1a)" style="stroke: #000000; stroke-linecap: round"/>
   </g>
   <g id="patch_77">
    <path d="M 119.101146 206.969008 
Q 127.575591 163.936642 135.83401 122.001242 
" clip-path="url(#p3b917b1c1a)" style="fill: none; stroke: #000000; stroke-linecap: round"/>
    <path d="M 133.098816 125.539422 
L 135.83401 122.001242 
L 137.023437 126.312305 
L 133.098816 125.539422 
z
" clip-path="url(#p3b917b1c1a)" style="stroke: #000000; stroke-linecap: round"/>
   </g>
   <g id="patch_78">
    <path d="M 117.242853 210.11989 
Q 91.888508 231.482695 67.389165 252.125103 
" clip-path="url(#p3b917b1c1a)" style="fill: none; stroke: #000000; stroke-linecap: round"/>
    <path d="M 71.736796 251.077201 
L 67.389165 252.125103 
L 69.159422 248.018256 
L 71.736796 251.077201 
z
" clip-path="url(#p3b917b1c1a)" style="stroke: #000000; stroke-linecap: round"/>
   </g>
   <g id="patch_79">
    <path d="M 116.9559 209.658044 
Q 79.355704 226.4 42.776869 242.687181 
" clip-path="url(#p3b917b1c1a)" style="fill: none; stroke: #000000; stroke-linecap: round"/>
    <path d="M 47.24453 242.8872 
L 42.776869 242.687181 
L 45.61748 239.233064 
L 47.24453 242.8872 
z
" clip-path="url(#p3b917b1c1a)" style="stroke: #000000; stroke-linecap: round"/>
   </g>
   <g id="patch_80">
    <path d="M 117.812951 210.576706 
Q 102.051611 240.018762 86.817939 268.475138 
" clip-path="url(#p3b917b1c1a)" style="fill: none; stroke: #000000; stroke-linecap: round"/>
    <path d="M 90.469022 265.892583 
L 86.817939 268.475138 
L 86.942544 264.004739 
L 90.469022 265.892583 
z
" clip-path="url(#p3b917b1c1a)" style="stroke: #000000; stroke-linecap: round"/>
   </g>
   <g id="patch_81">
    <path d="M 116.815939 208.570014 
Q 80.073372 202.811763 44.435357 197.226616 
" clip-path="url(#p3b917b1c1a)" style="fill: none; stroke: #000000; stroke-linecap: round"/>
    <path d="M 48.077464 199.821815 
L 44.435357 197.226616 
L 48.69678 195.87005 
L 48.077464 199.821815 
z
" clip-path="url(#p3b917b1c1a)" style="stroke: #000000; stroke-linecap: round"/>
   </g>
   <g id="patch_82">
    <path d="M 120.586208 209.397867 
Q 181.536313 226.718307 241.410966 243.733131 
" clip-path="url(#p3b917b1c1a)" style="fill: none; stroke: #000000; stroke-linecap: round"/>
    <path d="M 238.110011 240.715898 
L 241.410966 243.733131 
L 237.016606 244.563555 
L 238.110011 240.715898 
z
" clip-path="url(#p3b917b1c1a)" style="stroke: #000000; stroke-linecap: round"/>
   </g>
   <g id="patch_83">
    <path d="M 43.332025 197.053704 
Q 80.074592 202.811954 115.712607 208.397101 
" clip-path="url(#p3b917b1c1a)" style="fill: none; stroke: #000000; stroke-linecap: round"/>
    <path d="M 112.0705 205.801902 
L 115.712607 208.397101 
L 111.451184 209.753667 
L 112.0705 205.801902 
z
" clip-path="url(#p3b917b1c1a)" style="stroke: #000000; stroke-linecap: round"/>
   </g>
   <g id="patch_84">
    <path d="M 301.744487 281.822475 
Q 273.85745 263.721574 246.908215 246.229382 
" clip-path="url(#p3b917b1c1a)" style="fill: none; stroke: #000000; stroke-linecap: round"/>
    <path d="M 249.17451 250.084756 
L 246.908215 246.229382 
L 251.352291 246.729571 
L 249.17451 250.084756 
z
" clip-path="url(#p3b917b1c1a)" style="stroke: #000000; stroke-linecap: round"/>
   </g>
   <g id="patch_85">
    <path d="M 284.526798 301.434414 
Q 264.995517 273.79077 246.109386 247.060242 
" clip-path="url(#p3b917b1c1a)" style="fill: none; stroke: #000000; stroke-linecap: round"/>
    <path d="M 246.784117 251.481185 
L 246.109386 247.060242 
L 250.050979 249.173023 
L 246.784117 251.481185 
z
" clip-path="url(#p3b917b1c1a)" style="stroke: #000000; stroke-linecap: round"/>
   </g>
   <g id="patch_86">
    <path d="M 246.16115 243.893768 
Q 290.392594 227.444773 333.576121 211.385483 
" clip-path="url(#p3b917b1c1a)" style="fill: none; stroke: #000000; stroke-linecap: round"/>
    <path d="M 329.129854 210.90516 
L 333.576121 211.385483 
L 330.524103 214.654303 
L 329.129854 210.90516 
z
" clip-path="url(#p3b917b1c1a)" style="stroke: #000000; stroke-linecap: round"/>
   </g>
   <g id="patch_87">
    <path d="M 243.782189 242.718699 
Q 229.014043 194.491007 214.573253 147.33235 
" clip-path="url(#p3b917b1c1a)" style="fill: none; stroke: #000000; stroke-linecap: round"/>
    <path d="M 213.832092 151.742642 
L 214.573253 147.33235 
L 217.656791 150.571454 
L 213.832092 151.742642 
z
" clip-path="url(#p3b917b1c1a)" style="stroke: #000000; stroke-linecap: round"/>
   </g>
   <g id="patch_88">
    <path d="M 244.750716 246.462745 
Q 251.889455 280.088849 258.796014 312.621294 
" clip-path="url(#p3b917b1c1a)" style="fill: none; stroke: #000000; stroke-linecap: round"/>
    <path d="M 259.921735 308.293159 
L 258.796014 312.621294 
L 256.008938 309.123836 
L 259.921735 308.293159 
z
" clip-path="url(#p3b917b1c1a)" style="stroke: #000000; stroke-linecap: round"/>
   </g>
   <g id="patch_89">
    <path d="M 242.489114 244.039513 
Q 181.539009 226.719073 121.664356 209.704248 
" clip-path="url(#p3b917b1c1a)" style="fill: none; stroke: #000000; stroke-linecap: round"/>
    <path d="M 124.965311 212.721482 
L 121.664356 209.704248 
L 126.058716 208.873824 
L 124.965311 212.721482 
z
" clip-path="url(#p3b917b1c1a)" style="stroke: #000000; stroke-linecap: round"/>
   </g>
   <g id="patch_90">
    <path d="M 245.973096 245.622415 
Q 273.860134 263.723316 300.809368 281.215508 
" clip-path="url(#p3b917b1c1a)" style="fill: none; stroke: #000000; stroke-linecap: round"/>
    <path d="M 298.543074 277.360134 
L 300.809368 281.215508 
L 296.365292 280.715319 
L 298.543074 277.360134 
z
" clip-path="url(#p3b917b1c1a)" style="stroke: #000000; stroke-linecap: round"/>
   </g>
   <g id="patch_91">
    <path d="M 245.464997 246.148205 
Q 264.996279 273.791849 283.88241 300.522377 
" clip-path="url(#p3b917b1c1a)" style="fill: none; stroke: #000000; stroke-linecap: round"/>
    <path d="M 283.207679 296.101434 
L 283.88241 300.522377 
L 279.940817 298.409596 
L 283.207679 296.101434 
z
" clip-path="url(#p3b917b1c1a)" style="stroke: #000000; stroke-linecap: round"/>
   </g>
   <g id="patch_92">
    <path d="M 243.934047 246.456847 
Q 237.140981 277.422054 230.58749 307.295198 
" clip-path="url(#p3b917b1c1a)" style="fill: none; stroke: #000000; stroke-linecap: round"/>
    <path d="M 233.39816 303.816673 
L 230.58749 307.295198 
L 229.491073 302.959547 
L 233.39816 303.816673 
z
" clip-path="url(#p3b917b1c1a)" style="stroke: #000000; stroke-linecap: round"/>
   </g>
   <g id="patch_93">
    <path d="M 230.347865 308.387492 
Q 237.140931 277.422285 243.694422 247.549141 
" clip-path="url(#p3b917b1c1a)" style="fill: none; stroke: #000000; stroke-linecap: round"/>
    <path d="M 240.883752 251.027666 
L 243.694422 247.549141 
L 244.790839 251.884792 
L 240.883752 251.027666 
z
" clip-path="url(#p3b917b1c1a)" style="stroke: #000000; stroke-linecap: round"/>
   </g>
   <g id="PathCollection_1">
    <defs>
     <path id="md9a5a35a20" d="M 0 1.936492 
C 0.513564 1.936492 1.006162 1.732451 1.369306 1.369306 
C 1.732451 1.006162 1.936492 0.513564 1.936492 0 
C 1.936492 -0.513564 1.732451 -1.006162 1.369306 -1.369306 
C 1.006162 -1.732451 0.513564 -1.936492 0 -1.936492 
C -0.513564 -1.936492 -1.006162 -1.732451 -1.369306 -1.369306 
C -1.732451 -1.006162 -1.936492 -0.513564 -1.936492 0 
C -1.936492 0.513564 -1.732451 1.006162 -1.369306 1.369306 
C -1.006162 1.732451 -0.513564 1.936492 0 1.936492 
z
" style="stroke: #1f78b4"/>
    </defs>
    <g clip-path="url(#p3b917b1c1a)">
     <use xlink:href="#md9a5a35a20" x="336.439636" y="210.320585" style="fill: #1f78b4; stroke: #1f78b4"/>
     <use xlink:href="#md9a5a35a20" x="408.687807" y="241.569029" style="fill: #1f78b4; stroke: #1f78b4"/>
     <use xlink:href="#md9a5a35a20" x="388.241602" y="259.79615" style="fill: #1f78b4; stroke: #1f78b4"/>
     <use xlink:href="#md9a5a35a20" x="412.970124" y="196.129786" style="fill: #1f78b4; stroke: #1f78b4"/>
     <use xlink:href="#md9a5a35a20" x="213.679074" y="144.412268" style="fill: #1f78b4; stroke: #1f78b4"/>
     <use xlink:href="#md9a5a35a20" x="244.28793" y="86.355439" style="fill: #1f78b4; stroke: #1f78b4"/>
     <use xlink:href="#md9a5a35a20" x="155.451841" y="103.820666" style="fill: #1f78b4; stroke: #1f78b4"/>
     <use xlink:href="#md9a5a35a20" x="197.884108" y="102.479763" style="fill: #1f78b4; stroke: #1f78b4"/>
     <use xlink:href="#md9a5a35a20" x="165.70631" y="81.955697" style="fill: #1f78b4; stroke: #1f78b4"/>
     <use xlink:href="#md9a5a35a20" x="159.878419" y="140.722418" style="fill: #1f78b4; stroke: #1f78b4"/>
     <use xlink:href="#md9a5a35a20" x="83.380069" y="62.868952" style="fill: #1f78b4; stroke: #1f78b4"/>
     <use xlink:href="#md9a5a35a20" x="61.104719" y="83.98906" style="fill: #1f78b4; stroke: #1f78b4"/>
     <use xlink:href="#md9a5a35a20" x="40.309221" y="220.485643" style="fill: #1f78b4; stroke: #1f78b4"/>
     <use xlink:href="#md9a5a35a20" x="191.396265" y="69.061168" style="fill: #1f78b4; stroke: #1f78b4"/>
     <use xlink:href="#md9a5a35a20" x="163.807567" y="170.556438" style="fill: #1f78b4; stroke: #1f78b4"/>
     <use xlink:href="#md9a5a35a20" x="247.520818" y="116.669598" style="fill: #1f78b4; stroke: #1f78b4"/>
     <use xlink:href="#md9a5a35a20" x="219.710769" y="73.529942" style="fill: #1f78b4; stroke: #1f78b4"/>
     <use xlink:href="#md9a5a35a20" x="190.9114" y="257.095328" style="fill: #1f78b4; stroke: #1f78b4"/>
     <use xlink:href="#md9a5a35a20" x="346.899166" y="54.466702" style="fill: #1f78b4; stroke: #1f78b4"/>
     <use xlink:href="#md9a5a35a20" x="53.962651" y="110.476768" style="fill: #1f78b4; stroke: #1f78b4"/>
     <use xlink:href="#md9a5a35a20" x="262.853297" y="163.937034" style="fill: #1f78b4; stroke: #1f78b4"/>
     <use xlink:href="#md9a5a35a20" x="319.674587" y="38.923369" style="fill: #1f78b4; stroke: #1f78b4"/>
     <use xlink:href="#md9a5a35a20" x="136.423789" y="119.006402" style="fill: #1f78b4; stroke: #1f78b4"/>
     <use xlink:href="#md9a5a35a20" x="65.052944" y="254.093532" style="fill: #1f78b4; stroke: #1f78b4"/>
     <use xlink:href="#md9a5a35a20" x="335.02091" y="78.975328" style="fill: #1f78b4; stroke: #1f78b4"/>
     <use xlink:href="#md9a5a35a20" x="223.474464" y="194.737583" style="fill: #1f78b4; stroke: #1f78b4"/>
     <use xlink:href="#md9a5a35a20" x="220.255993" y="257.264575" style="fill: #1f78b4; stroke: #1f78b4"/>
     <use xlink:href="#md9a5a35a20" x="173.194393" y="237.993876" style="fill: #1f78b4; stroke: #1f78b4"/>
     <use xlink:href="#md9a5a35a20" x="363.911984" y="86.662064" style="fill: #1f78b4; stroke: #1f78b4"/>
     <use xlink:href="#md9a5a35a20" x="347.198076" y="117.447641" style="fill: #1f78b4; stroke: #1f78b4"/>
     <use xlink:href="#md9a5a35a20" x="289.178673" y="29.990083" style="fill: #1f78b4; stroke: #1f78b4"/>
     <use xlink:href="#md9a5a35a20" x="277.001344" y="100.564327" style="fill: #1f78b4; stroke: #1f78b4"/>
     <use xlink:href="#md9a5a35a20" x="259.430491" y="315.609917" style="fill: #1f78b4; stroke: #1f78b4"/>
     <use xlink:href="#md9a5a35a20" x="420.813223" y="220.251082" style="fill: #1f78b4; stroke: #1f78b4"/>
     <use xlink:href="#md9a5a35a20" x="39.986777" y="243.929504" style="fill: #1f78b4; stroke: #1f78b4"/>
     <use xlink:href="#md9a5a35a20" x="85.377631" y="271.165622" style="fill: #1f78b4; stroke: #1f78b4"/>
     <use xlink:href="#md9a5a35a20" x="118.72688" y="208.869494" style="fill: #1f78b4; stroke: #1f78b4"/>
     <use xlink:href="#md9a5a35a20" x="41.421084" y="196.754223" style="fill: #1f78b4; stroke: #1f78b4"/>
     <use xlink:href="#md9a5a35a20" x="303.369142" y="282.877004" style="fill: #1f78b4; stroke: #1f78b4"/>
     <use xlink:href="#md9a5a35a20" x="285.643354" y="303.014733" style="fill: #1f78b4; stroke: #1f78b4"/>
     <use xlink:href="#md9a5a35a20" x="244.348442" y="244.567886" style="fill: #1f78b4; stroke: #1f78b4"/>
     <use xlink:href="#md9a5a35a20" x="229.93347" y="310.276453" style="fill: #1f78b4; stroke: #1f78b4"/>
    </g>
   </g>
   <g id="text_1">
    <g clip-path="url(#p3b917b1c1a)">
     <!-- 0 -->
     <g transform="translate(333.258386 213.07996) scale(0.1 -0.1)">
      <defs>
       <path id="DejaVuSans-30" d="M 2034 4250 
Q 1547 4250 1301 3770 
Q 1056 3291 1056 2328 
Q 1056 1369 1301 889 
Q 1547 409 2034 409 
Q 2525 409 2770 889 
Q 3016 1369 3016 2328 
Q 3016 3291 2770 3770 
Q 2525 4250 2034 4250 
z
M 2034 4750 
Q 2819 4750 3233 4129 
Q 3647 3509 3647 2328 
Q 3647 1150 3233 529 
Q 2819 -91 2034 -91 
Q 1250 -91 836 529 
Q 422 1150 422 2328 
Q 422 3509 836 4129 
Q 1250 4750 2034 4750 
z
" transform="scale(0.015625)"/>
      </defs>
      <use xlink:href="#DejaVuSans-30"/>
     </g>
    </g>
   </g>
   <g id="text_2">
    <g clip-path="url(#p3b917b1c1a)">
     <!-- 1 -->
     <g transform="translate(405.506557 244.328404) scale(0.1 -0.1)">
      <defs>
       <path id="DejaVuSans-31" d="M 794 531 
L 1825 531 
L 1825 4091 
L 703 3866 
L 703 4441 
L 1819 4666 
L 2450 4666 
L 2450 531 
L 3481 531 
L 3481 0 
L 794 0 
L 794 531 
z
" transform="scale(0.015625)"/>
      </defs>
      <use xlink:href="#DejaVuSans-31"/>
     </g>
    </g>
   </g>
   <g id="text_3">
    <g clip-path="url(#p3b917b1c1a)">
     <!-- 2 -->
     <g transform="translate(385.060352 262.555525) scale(0.1 -0.1)">
      <defs>
       <path id="DejaVuSans-32" d="M 1228 531 
L 3431 531 
L 3431 0 
L 469 0 
L 469 531 
Q 828 903 1448 1529 
Q 2069 2156 2228 2338 
Q 2531 2678 2651 2914 
Q 2772 3150 2772 3378 
Q 2772 3750 2511 3984 
Q 2250 4219 1831 4219 
Q 1534 4219 1204 4116 
Q 875 4013 500 3803 
L 500 4441 
Q 881 4594 1212 4672 
Q 1544 4750 1819 4750 
Q 2544 4750 2975 4387 
Q 3406 4025 3406 3419 
Q 3406 3131 3298 2873 
Q 3191 2616 2906 2266 
Q 2828 2175 2409 1742 
Q 1991 1309 1228 531 
z
" transform="scale(0.015625)"/>
      </defs>
      <use xlink:href="#DejaVuSans-32"/>
     </g>
    </g>
   </g>
   <g id="text_4">
    <g clip-path="url(#p3b917b1c1a)">
     <!-- 3 -->
     <g transform="translate(409.788874 198.889161) scale(0.1 -0.1)">
      <defs>
       <path id="DejaVuSans-33" d="M 2597 2516 
Q 3050 2419 3304 2112 
Q 3559 1806 3559 1356 
Q 3559 666 3084 287 
Q 2609 -91 1734 -91 
Q 1441 -91 1130 -33 
Q 819 25 488 141 
L 488 750 
Q 750 597 1062 519 
Q 1375 441 1716 441 
Q 2309 441 2620 675 
Q 2931 909 2931 1356 
Q 2931 1769 2642 2001 
Q 2353 2234 1838 2234 
L 1294 2234 
L 1294 2753 
L 1863 2753 
Q 2328 2753 2575 2939 
Q 2822 3125 2822 3475 
Q 2822 3834 2567 4026 
Q 2313 4219 1838 4219 
Q 1578 4219 1281 4162 
Q 984 4106 628 3988 
L 628 4550 
Q 988 4650 1302 4700 
Q 1616 4750 1894 4750 
Q 2613 4750 3031 4423 
Q 3450 4097 3450 3541 
Q 3450 3153 3228 2886 
Q 3006 2619 2597 2516 
z
" transform="scale(0.015625)"/>
      </defs>
      <use xlink:href="#DejaVuSans-33"/>
     </g>
    </g>
   </g>
   <g id="text_5">
    <g clip-path="url(#p3b917b1c1a)">
     <!-- 4 -->
     <g transform="translate(210.497824 147.171643) scale(0.1 -0.1)">
      <defs>
       <path id="DejaVuSans-34" d="M 2419 4116 
L 825 1625 
L 2419 1625 
L 2419 4116 
z
M 2253 4666 
L 3047 4666 
L 3047 1625 
L 3713 1625 
L 3713 1100 
L 3047 1100 
L 3047 0 
L 2419 0 
L 2419 1100 
L 313 1100 
L 313 1709 
L 2253 4666 
z
" transform="scale(0.015625)"/>
      </defs>
      <use xlink:href="#DejaVuSans-34"/>
     </g>
    </g>
   </g>
   <g id="text_6">
    <g clip-path="url(#p3b917b1c1a)">
     <!-- 5 -->
     <g transform="translate(241.10668 89.114814) scale(0.1 -0.1)">
      <defs>
       <path id="DejaVuSans-35" d="M 691 4666 
L 3169 4666 
L 3169 4134 
L 1269 4134 
L 1269 2991 
Q 1406 3038 1543 3061 
Q 1681 3084 1819 3084 
Q 2600 3084 3056 2656 
Q 3513 2228 3513 1497 
Q 3513 744 3044 326 
Q 2575 -91 1722 -91 
Q 1428 -91 1123 -41 
Q 819 9 494 109 
L 494 744 
Q 775 591 1075 516 
Q 1375 441 1709 441 
Q 2250 441 2565 725 
Q 2881 1009 2881 1497 
Q 2881 1984 2565 2268 
Q 2250 2553 1709 2553 
Q 1456 2553 1204 2497 
Q 953 2441 691 2322 
L 691 4666 
z
" transform="scale(0.015625)"/>
      </defs>
      <use xlink:href="#DejaVuSans-35"/>
     </g>
    </g>
   </g>
   <g id="text_7">
    <g clip-path="url(#p3b917b1c1a)">
     <!-- 6 -->
     <g transform="translate(152.270591 106.580041) scale(0.1 -0.1)">
      <defs>
       <path id="DejaVuSans-36" d="M 2113 2584 
Q 1688 2584 1439 2293 
Q 1191 2003 1191 1497 
Q 1191 994 1439 701 
Q 1688 409 2113 409 
Q 2538 409 2786 701 
Q 3034 994 3034 1497 
Q 3034 2003 2786 2293 
Q 2538 2584 2113 2584 
z
M 3366 4563 
L 3366 3988 
Q 3128 4100 2886 4159 
Q 2644 4219 2406 4219 
Q 1781 4219 1451 3797 
Q 1122 3375 1075 2522 
Q 1259 2794 1537 2939 
Q 1816 3084 2150 3084 
Q 2853 3084 3261 2657 
Q 3669 2231 3669 1497 
Q 3669 778 3244 343 
Q 2819 -91 2113 -91 
Q 1303 -91 875 529 
Q 447 1150 447 2328 
Q 447 3434 972 4092 
Q 1497 4750 2381 4750 
Q 2619 4750 2861 4703 
Q 3103 4656 3366 4563 
z
" transform="scale(0.015625)"/>
      </defs>
      <use xlink:href="#DejaVuSans-36"/>
     </g>
    </g>
   </g>
   <g id="text_8">
    <g clip-path="url(#p3b917b1c1a)">
     <!-- 7 -->
     <g transform="translate(194.702858 105.239138) scale(0.1 -0.1)">
      <defs>
       <path id="DejaVuSans-37" d="M 525 4666 
L 3525 4666 
L 3525 4397 
L 1831 0 
L 1172 0 
L 2766 4134 
L 525 4134 
L 525 4666 
z
" transform="scale(0.015625)"/>
      </defs>
      <use xlink:href="#DejaVuSans-37"/>
     </g>
    </g>
   </g>
   <g id="text_9">
    <g clip-path="url(#p3b917b1c1a)">
     <!-- 8 -->
     <g transform="translate(162.52506 84.715072) scale(0.1 -0.1)">
      <defs>
       <path id="DejaVuSans-38" d="M 2034 2216 
Q 1584 2216 1326 1975 
Q 1069 1734 1069 1313 
Q 1069 891 1326 650 
Q 1584 409 2034 409 
Q 2484 409 2743 651 
Q 3003 894 3003 1313 
Q 3003 1734 2745 1975 
Q 2488 2216 2034 2216 
z
M 1403 2484 
Q 997 2584 770 2862 
Q 544 3141 544 3541 
Q 544 4100 942 4425 
Q 1341 4750 2034 4750 
Q 2731 4750 3128 4425 
Q 3525 4100 3525 3541 
Q 3525 3141 3298 2862 
Q 3072 2584 2669 2484 
Q 3125 2378 3379 2068 
Q 3634 1759 3634 1313 
Q 3634 634 3220 271 
Q 2806 -91 2034 -91 
Q 1263 -91 848 271 
Q 434 634 434 1313 
Q 434 1759 690 2068 
Q 947 2378 1403 2484 
z
M 1172 3481 
Q 1172 3119 1398 2916 
Q 1625 2713 2034 2713 
Q 2441 2713 2670 2916 
Q 2900 3119 2900 3481 
Q 2900 3844 2670 4047 
Q 2441 4250 2034 4250 
Q 1625 4250 1398 4047 
Q 1172 3844 1172 3481 
z
" transform="scale(0.015625)"/>
      </defs>
      <use xlink:href="#DejaVuSans-38"/>
     </g>
    </g>
   </g>
   <g id="text_10">
    <g clip-path="url(#p3b917b1c1a)">
     <!-- 9 -->
     <g transform="translate(156.697169 143.481793) scale(0.1 -0.1)">
      <defs>
       <path id="DejaVuSans-39" d="M 703 97 
L 703 672 
Q 941 559 1184 500 
Q 1428 441 1663 441 
Q 2288 441 2617 861 
Q 2947 1281 2994 2138 
Q 2813 1869 2534 1725 
Q 2256 1581 1919 1581 
Q 1219 1581 811 2004 
Q 403 2428 403 3163 
Q 403 3881 828 4315 
Q 1253 4750 1959 4750 
Q 2769 4750 3195 4129 
Q 3622 3509 3622 2328 
Q 3622 1225 3098 567 
Q 2575 -91 1691 -91 
Q 1453 -91 1209 -44 
Q 966 3 703 97 
z
M 1959 2075 
Q 2384 2075 2632 2365 
Q 2881 2656 2881 3163 
Q 2881 3666 2632 3958 
Q 2384 4250 1959 4250 
Q 1534 4250 1286 3958 
Q 1038 3666 1038 3163 
Q 1038 2656 1286 2365 
Q 1534 2075 1959 2075 
z
" transform="scale(0.015625)"/>
      </defs>
      <use xlink:href="#DejaVuSans-39"/>
     </g>
    </g>
   </g>
   <g id="text_11">
    <g clip-path="url(#p3b917b1c1a)">
     <!-- 10 -->
     <g transform="translate(77.017569 65.628327) scale(0.1 -0.1)">
      <use xlink:href="#DejaVuSans-31"/>
      <use xlink:href="#DejaVuSans-30" x="63.623047"/>
     </g>
    </g>
   </g>
   <g id="text_12">
    <g clip-path="url(#p3b917b1c1a)">
     <!-- 11 -->
     <g transform="translate(54.742219 86.748435) scale(0.1 -0.1)">
      <use xlink:href="#DejaVuSans-31"/>
      <use xlink:href="#DejaVuSans-31" x="63.623047"/>
     </g>
    </g>
   </g>
   <g id="text_13">
    <g clip-path="url(#p3b917b1c1a)">
     <!-- 12 -->
     <g transform="translate(33.946721 223.245018) scale(0.1 -0.1)">
      <use xlink:href="#DejaVuSans-31"/>
      <use xlink:href="#DejaVuSans-32" x="63.623047"/>
     </g>
    </g>
   </g>
   <g id="text_14">
    <g clip-path="url(#p3b917b1c1a)">
     <!-- 13 -->
     <g transform="translate(185.033765 71.820543) scale(0.1 -0.1)">
      <use xlink:href="#DejaVuSans-31"/>
      <use xlink:href="#DejaVuSans-33" x="63.623047"/>
     </g>
    </g>
   </g>
   <g id="text_15">
    <g clip-path="url(#p3b917b1c1a)">
     <!-- 14 -->
     <g transform="translate(157.445067 173.315813) scale(0.1 -0.1)">
      <use xlink:href="#DejaVuSans-31"/>
      <use xlink:href="#DejaVuSans-34" x="63.623047"/>
     </g>
    </g>
   </g>
   <g id="text_16">
    <g clip-path="url(#p3b917b1c1a)">
     <!-- 15 -->
     <g transform="translate(241.158318 119.428973) scale(0.1 -0.1)">
      <use xlink:href="#DejaVuSans-31"/>
      <use xlink:href="#DejaVuSans-35" x="63.623047"/>
     </g>
    </g>
   </g>
   <g id="text_17">
    <g clip-path="url(#p3b917b1c1a)">
     <!-- 16 -->
     <g transform="translate(213.348269 76.289317) scale(0.1 -0.1)">
      <use xlink:href="#DejaVuSans-31"/>
      <use xlink:href="#DejaVuSans-36" x="63.623047"/>
     </g>
    </g>
   </g>
   <g id="text_18">
    <g clip-path="url(#p3b917b1c1a)">
     <!-- 17 -->
     <g transform="translate(184.5489 259.854703) scale(0.1 -0.1)">
      <use xlink:href="#DejaVuSans-31"/>
      <use xlink:href="#DejaVuSans-37" x="63.623047"/>
     </g>
    </g>
   </g>
   <g id="text_19">
    <g clip-path="url(#p3b917b1c1a)">
     <!-- 18 -->
     <g transform="translate(340.536666 57.226077) scale(0.1 -0.1)">
      <use xlink:href="#DejaVuSans-31"/>
      <use xlink:href="#DejaVuSans-38" x="63.623047"/>
     </g>
    </g>
   </g>
   <g id="text_20">
    <g clip-path="url(#p3b917b1c1a)">
     <!-- 19 -->
     <g transform="translate(47.600151 113.236143) scale(0.1 -0.1)">
      <use xlink:href="#DejaVuSans-31"/>
      <use xlink:href="#DejaVuSans-39" x="63.623047"/>
     </g>
    </g>
   </g>
   <g id="text_21">
    <g clip-path="url(#p3b917b1c1a)">
     <!-- 20 -->
     <g transform="translate(256.490797 166.696409) scale(0.1 -0.1)">
      <use xlink:href="#DejaVuSans-32"/>
      <use xlink:href="#DejaVuSans-30" x="63.623047"/>
     </g>
    </g>
   </g>
   <g id="text_22">
    <g clip-path="url(#p3b917b1c1a)">
     <!-- 21 -->
     <g transform="translate(313.312087 41.682744) scale(0.1 -0.1)">
      <use xlink:href="#DejaVuSans-32"/>
      <use xlink:href="#DejaVuSans-31" x="63.623047"/>
     </g>
    </g>
   </g>
   <g id="text_23">
    <g clip-path="url(#p3b917b1c1a)">
     <!-- 22 -->
     <g transform="translate(130.061289 121.765777) scale(0.1 -0.1)">
      <use xlink:href="#DejaVuSans-32"/>
      <use xlink:href="#DejaVuSans-32" x="63.623047"/>
     </g>
    </g>
   </g>
   <g id="text_24">
    <g clip-path="url(#p3b917b1c1a)">
     <!-- 23 -->
     <g transform="translate(58.690444 256.852907) scale(0.1 -0.1)">
      <use xlink:href="#DejaVuSans-32"/>
      <use xlink:href="#DejaVuSans-33" x="63.623047"/>
     </g>
    </g>
   </g>
   <g id="text_25">
    <g clip-path="url(#p3b917b1c1a)">
     <!-- 24 -->
     <g transform="translate(328.65841 81.734703) scale(0.1 -0.1)">
      <use xlink:href="#DejaVuSans-32"/>
      <use xlink:href="#DejaVuSans-34" x="63.623047"/>
     </g>
    </g>
   </g>
   <g id="text_26">
    <g clip-path="url(#p3b917b1c1a)">
     <!-- 25 -->
     <g transform="translate(217.111964 197.496958) scale(0.1 -0.1)">
      <use xlink:href="#DejaVuSans-32"/>
      <use xlink:href="#DejaVuSans-35" x="63.623047"/>
     </g>
    </g>
   </g>
   <g id="text_27">
    <g clip-path="url(#p3b917b1c1a)">
     <!-- 26 -->
     <g transform="translate(213.893493 260.02395) scale(0.1 -0.1)">
      <use xlink:href="#DejaVuSans-32"/>
      <use xlink:href="#DejaVuSans-36" x="63.623047"/>
     </g>
    </g>
   </g>
   <g id="text_28">
    <g clip-path="url(#p3b917b1c1a)">
     <!-- 27 -->
     <g transform="translate(166.831893 240.753251) scale(0.1 -0.1)">
      <use xlink:href="#DejaVuSans-32"/>
      <use xlink:href="#DejaVuSans-37" x="63.623047"/>
     </g>
    </g>
   </g>
   <g id="text_29">
    <g clip-path="url(#p3b917b1c1a)">
     <!-- 28 -->
     <g transform="translate(357.549484 89.421439) scale(0.1 -0.1)">
      <use xlink:href="#DejaVuSans-32"/>
      <use xlink:href="#DejaVuSans-38" x="63.623047"/>
     </g>
    </g>
   </g>
   <g id="text_30">
    <g clip-path="url(#p3b917b1c1a)">
     <!-- 29 -->
     <g transform="translate(340.835576 120.207016) scale(0.1 -0.1)">
      <use xlink:href="#DejaVuSans-32"/>
      <use xlink:href="#DejaVuSans-39" x="63.623047"/>
     </g>
    </g>
   </g>
   <g id="text_31">
    <g clip-path="url(#p3b917b1c1a)">
     <!-- 30 -->
     <g transform="translate(282.816173 32.749458) scale(0.1 -0.1)">
      <use xlink:href="#DejaVuSans-33"/>
      <use xlink:href="#DejaVuSans-30" x="63.623047"/>
     </g>
    </g>
   </g>
   <g id="text_32">
    <g clip-path="url(#p3b917b1c1a)">
     <!-- 31 -->
     <g transform="translate(270.638844 103.323702) scale(0.1 -0.1)">
      <use xlink:href="#DejaVuSans-33"/>
      <use xlink:href="#DejaVuSans-31" x="63.623047"/>
     </g>
    </g>
   </g>
   <g id="text_33">
    <g clip-path="url(#p3b917b1c1a)">
     <!-- 32 -->
     <g transform="translate(253.067991 318.369292) scale(0.1 -0.1)">
      <use xlink:href="#DejaVuSans-33"/>
      <use xlink:href="#DejaVuSans-32" x="63.623047"/>
     </g>
    </g>
   </g>
   <g id="text_34">
    <g clip-path="url(#p3b917b1c1a)">
     <!-- 33 -->
     <g transform="translate(414.450723 223.010457) scale(0.1 -0.1)">
      <use xlink:href="#DejaVuSans-33"/>
      <use xlink:href="#DejaVuSans-33" x="63.623047"/>
     </g>
    </g>
   </g>
   <g id="text_35">
    <g clip-path="url(#p3b917b1c1a)">
     <!-- 34 -->
     <g transform="translate(33.624277 246.688879) scale(0.1 -0.1)">
      <use xlink:href="#DejaVuSans-33"/>
      <use xlink:href="#DejaVuSans-34" x="63.623047"/>
     </g>
    </g>
   </g>
   <g id="text_36">
    <g clip-path="url(#p3b917b1c1a)">
     <!-- 35 -->
     <g transform="translate(79.015131 273.924997) scale(0.1 -0.1)">
      <use xlink:href="#DejaVuSans-33"/>
      <use xlink:href="#DejaVuSans-35" x="63.623047"/>
     </g>
    </g>
   </g>
   <g id="text_37">
    <g clip-path="url(#p3b917b1c1a)">
     <!-- 36 -->
     <g transform="translate(112.36438 211.628869) scale(0.1 -0.1)">
      <use xlink:href="#DejaVuSans-33"/>
      <use xlink:href="#DejaVuSans-36" x="63.623047"/>
     </g>
    </g>
   </g>
   <g id="text_38">
    <g clip-path="url(#p3b917b1c1a)">
     <!-- 37 -->
     <g transform="translate(35.058584 199.513598) scale(0.1 -0.1)">
      <use xlink:href="#DejaVuSans-33"/>
      <use xlink:href="#DejaVuSans-37" x="63.623047"/>
     </g>
    </g>
   </g>
   <g id="text_39">
    <g clip-path="url(#p3b917b1c1a)">
     <!-- 38 -->
     <g transform="translate(297.006642 285.636379) scale(0.1 -0.1)">
      <use xlink:href="#DejaVuSans-33"/>
      <use xlink:href="#DejaVuSans-38" x="63.623047"/>
     </g>
    </g>
   </g>
   <g id="text_40">
    <g clip-path="url(#p3b917b1c1a)">
     <!-- 39 -->
     <g transform="translate(279.280854 305.774108) scale(0.1 -0.1)">
      <use xlink:href="#DejaVuSans-33"/>
      <use xlink:href="#DejaVuSans-39" x="63.623047"/>
     </g>
    </g>
   </g>
   <g id="text_41">
    <g clip-path="url(#p3b917b1c1a)">
     <!-- 40 -->
     <g transform="translate(237.985942 247.327261) scale(0.1 -0.1)">
      <use xlink:href="#DejaVuSans-34"/>
      <use xlink:href="#DejaVuSans-30" x="63.623047"/>
     </g>
    </g>
   </g>
   <g id="text_42">
    <g clip-path="url(#p3b917b1c1a)">
     <!-- 41 -->
     <g transform="translate(223.57097 313.035828) scale(0.1 -0.1)">
      <use xlink:href="#DejaVuSans-34"/>
      <use xlink:href="#DejaVuSans-31" x="63.623047"/>
     </g>
    </g>
   </g>
  </g>
 </g>
 <defs>
  <clipPath id="p3b917b1c1a">
   <rect x="0" y="0" width="460.8" height="345.6"/>
  </clipPath>
 </defs>
</svg>
