<?xml version="1.0" encoding="utf-8" standalone="no"?>
<!DOCTYPE svg PUBLIC "-//W3C//DTD SVG 1.1//EN"
  "http://www.w3.org/Graphics/SVG/1.1/DTD/svg11.dtd">
<svg xmlns:xlink="http://www.w3.org/1999/xlink" width="460.8pt" height="345.6pt" viewBox="0 0 460.8 345.6" xmlns="http://www.w3.org/2000/svg" version="1.1">
 <metadata>
  <rdf:RDF xmlns:dc="http://purl.org/dc/elements/1.1/" xmlns:cc="http://creativecommons.org/ns#" xmlns:rdf="http://www.w3.org/1999/02/22-rdf-syntax-ns#">
   <cc:Work>
    <dc:type rdf:resource="http://purl.org/dc/dcmitype/StillImage"/>
    <dc:date>2023-10-10T10:57:40.619768</dc:date>
    <dc:format>image/svg+xml</dc:format>
    <dc:creator>
     <cc:Agent>
      <dc:title>Matplotlib v3.6.1, https://matplotlib.org/</dc:title>
     </cc:Agent>
    </dc:creator>
   </cc:Work>
  </rdf:RDF>
 </metadata>
 <defs>
  <style type="text/css">*{stroke-linejoin: round; stroke-linecap: butt}</style>
 </defs>
 <g id="figure_1">
  <g id="patch_1">
   <path d="M 0 345.6 
L 460.8 345.6 
L 460.8 0 
L 0 0 
z
" style="fill: #ffffff"/>
  </g>
  <g id="axes_1">
   <g id="patch_2">
    <path d="M 142.807782 67.867341 
Q 140.525499 73.546883 138.66009 78.189016 
" clip-path="url(#p354900c6c4)" style="fill: none; stroke: #000000; stroke-linecap: round"/>
    <path d="M 142.007319 75.223201 
L 138.66009 78.189016 
L 138.295776 73.731744 
L 142.007319 75.223201 
z
" clip-path="url(#p354900c6c4)" style="stroke: #000000; stroke-linecap: round"/>
   </g>
   <g id="patch_3">
    <path d="M 143.139432 67.962401 
Q 139.665651 84.770874 136.418151 100.484452 
" clip-path="url(#p354900c6c4)" style="fill: none; stroke: #000000; stroke-linecap: round"/>
    <path d="M 139.186326 96.972015 
L 136.418151 100.484452 
L 135.269107 96.16245 
L 139.186326 96.972015 
z
" clip-path="url(#p354900c6c4)" style="stroke: #000000; stroke-linecap: round"/>
   </g>
   <g id="patch_4">
    <path d="M 138.245096 79.221743 
Q 140.527379 73.542202 142.392787 68.900069 
" clip-path="url(#p354900c6c4)" style="fill: none; stroke: #000000; stroke-linecap: round"/>
    <path d="M 139.045558 71.865884 
L 142.392787 68.900069 
L 142.757102 73.357341 
L 139.045558 71.865884 
z
" clip-path="url(#p354900c6c4)" style="stroke: #000000; stroke-linecap: round"/>
   </g>
   <g id="patch_5">
    <path d="M 135.724913 81.736709 
Q 124.164483 86.337038 113.642859 90.523988 
" clip-path="url(#p354900c6c4)" style="fill: none; stroke: #000000; stroke-linecap: round"/>
    <path d="M 118.09888 90.903308 
L 113.642859 90.523988 
L 116.619927 87.186764 
L 118.09888 90.903308 
z
" clip-path="url(#p354900c6c4)" style="stroke: #000000; stroke-linecap: round"/>
   </g>
   <g id="patch_6">
    <path d="M 137.373669 82.953866 
Q 136.661056 92.248153 136.033914 100.427677 
" clip-path="url(#p354900c6c4)" style="fill: none; stroke: #000000; stroke-linecap: round"/>
    <path d="M 138.333853 96.592278 
L 136.033914 100.427677 
L 134.345558 96.286487 
L 138.333853 96.592278 
z
" clip-path="url(#p354900c6c4)" style="stroke: #000000; stroke-linecap: round"/>
   </g>
   <g id="patch_7">
    <path d="M 115.745716 143.426627 
Q 113.368128 118.505075 111.096722 94.696503 
" clip-path="url(#p354900c6c4)" style="fill: none; stroke: #000000; stroke-linecap: round"/>
    <path d="M 109.485649 98.868366 
L 111.096722 94.696503 
L 113.467569 98.48848 
L 109.485649 98.868366 
z
" clip-path="url(#p354900c6c4)" style="stroke: #000000; stroke-linecap: round"/>
   </g>
   <g id="patch_8">
    <path d="M 116.023495 147.290443 
Q 117.460185 176.966487 118.842812 205.525804 
" clip-path="url(#p354900c6c4)" style="fill: none; stroke: #000000; stroke-linecap: round"/>
    <path d="M 120.647049 201.433772 
L 118.842812 205.525804 
L 116.651728 201.627195 
L 120.647049 201.433772 
z
" clip-path="url(#p354900c6c4)" style="stroke: #000000; stroke-linecap: round"/>
   </g>
   <g id="patch_9">
    <path d="M 116.760672 143.606175 
Q 125.865074 124.415625 134.490252 106.235196 
" clip-path="url(#p354900c6c4)" style="fill: none; stroke: #000000; stroke-linecap: round"/>
    <path d="M 130.968772 108.991856 
L 134.490252 106.235196 
L 134.582693 110.706377 
L 130.968772 108.991856 
z
" clip-path="url(#p354900c6c4)" style="stroke: #000000; stroke-linecap: round"/>
   </g>
   <g id="patch_10">
    <path d="M 114.62184 146.784491 
Q 103.668522 158.735413 93.470623 169.862114 
" clip-path="url(#p354900c6c4)" style="fill: none; stroke: #000000; stroke-linecap: round"/>
    <path d="M 97.647707 168.264625 
L 93.470623 169.862114 
L 94.698882 165.561953 
L 97.647707 168.264625 
z
" clip-path="url(#p354900c6c4)" style="stroke: #000000; stroke-linecap: round"/>
   </g>
   <g id="patch_11">
    <path d="M 112.603242 90.937691 
Q 124.163671 86.337361 134.685295 82.150412 
" clip-path="url(#p354900c6c4)" style="fill: none; stroke: #000000; stroke-linecap: round"/>
    <path d="M 130.229275 81.771092 
L 134.685295 82.150412 
L 131.708228 85.487636 
L 130.229275 81.771092 
z
" clip-path="url(#p354900c6c4)" style="stroke: #000000; stroke-linecap: round"/>
   </g>
   <g id="patch_12">
    <path d="M 110.99053 93.583409 
Q 113.368117 118.504961 115.639523 142.313533 
" clip-path="url(#p354900c6c4)" style="fill: none; stroke: #000000; stroke-linecap: round"/>
    <path d="M 117.250597 138.14167 
L 115.639523 142.313533 
L 113.268677 138.521556 
L 117.250597 138.14167 
z
" clip-path="url(#p354900c6c4)" style="stroke: #000000; stroke-linecap: round"/>
   </g>
   <g id="patch_13">
    <path d="M 110.02199 89.882677 
Q 101.534169 70.727898 93.499292 52.595294 
" clip-path="url(#p354900c6c4)" style="fill: none; stroke: #000000; stroke-linecap: round"/>
    <path d="M 93.291271 57.062589 
L 93.499292 52.595294 
L 96.948316 55.442088 
L 93.291271 57.062589 
z
" clip-path="url(#p354900c6c4)" style="stroke: #000000; stroke-linecap: round"/>
   </g>
   <g id="patch_14">
    <path d="M 107.094951 308.242907 
Q 112.601929 290.945196 117.769738 274.712832 
" clip-path="url(#p354900c6c4)" style="fill: none; stroke: #000000; stroke-linecap: round"/>
    <path d="M 114.65054 277.917611 
L 117.769738 274.712832 
L 118.462042 279.131058 
L 114.65054 277.917611 
z
" clip-path="url(#p354900c6c4)" style="stroke: #000000; stroke-linecap: round"/>
   </g>
   <g id="patch_15">
    <path d="M 90.225391 292.126833 
Q 103.673815 282.526087 116.21229 273.574949 
" clip-path="url(#p354900c6c4)" style="fill: none; stroke: #000000; stroke-linecap: round"/>
    <path d="M 111.794698 274.271288 
L 116.21229 273.574949 
L 114.118806 277.526826 
L 111.794698 274.271288 
z
" clip-path="url(#p354900c6c4)" style="stroke: #000000; stroke-linecap: round"/>
   </g>
   <g id="patch_16">
    <path d="M 136.192001 101.578717 
Q 139.665782 84.770244 142.913282 69.056667 
" clip-path="url(#p354900c6c4)" style="fill: none; stroke: #000000; stroke-linecap: round"/>
    <path d="M 140.145107 72.569103 
L 142.913282 69.056667 
L 144.062326 73.378669 
L 140.145107 72.569103 
z
" clip-path="url(#p354900c6c4)" style="stroke: #000000; stroke-linecap: round"/>
   </g>
   <g id="patch_17">
    <path d="M 135.948517 101.541475 
Q 136.66113 92.247188 137.288271 84.067664 
" clip-path="url(#p354900c6c4)" style="fill: none; stroke: #000000; stroke-linecap: round"/>
    <path d="M 134.988333 87.903062 
L 137.288271 84.067664 
L 138.976627 88.208853 
L 134.988333 87.903062 
z
" clip-path="url(#p354900c6c4)" style="stroke: #000000; stroke-linecap: round"/>
   </g>
   <g id="patch_18">
    <path d="M 134.969604 105.224802 
Q 125.865203 124.415352 117.240024 142.595781 
" clip-path="url(#p354900c6c4)" style="fill: none; stroke: #000000; stroke-linecap: round"/>
    <path d="M 120.761504 139.839121 
L 117.240024 142.595781 
L 117.147584 138.124601 
L 120.761504 139.839121 
z
" clip-path="url(#p354900c6c4)" style="stroke: #000000; stroke-linecap: round"/>
   </g>
   <g id="patch_19">
    <path d="M 121.873814 243.307187 
Q 136.45527 255.040301 150.165672 266.072512 
" clip-path="url(#p354900c6c4)" style="fill: none; stroke: #000000; stroke-linecap: round"/>
    <path d="M 148.303106 262.006698 
L 150.165672 266.072512 
L 145.795481 265.123076 
L 148.303106 262.006698 
z
" clip-path="url(#p354900c6c4)" style="stroke: #000000; stroke-linecap: round"/>
   </g>
   <g id="patch_20">
    <path d="M 119.140512 240.59231 
Q 107.68339 226.543199 96.932859 213.360534 
" clip-path="url(#p354900c6c4)" style="fill: none; stroke: #000000; stroke-linecap: round"/>
    <path d="M 97.910891 217.724415 
L 96.932859 213.360534 
L 101.010783 215.196437 
L 97.910891 217.724415 
z
" clip-path="url(#p354900c6c4)" style="stroke: #000000; stroke-linecap: round"/>
   </g>
   <g id="patch_21">
    <path d="M 206.256626 304.831393 
Q 185.743337 295.611802 166.249819 286.850543 
" clip-path="url(#p354900c6c4)" style="fill: none; stroke: #000000; stroke-linecap: round"/>
    <path d="M 169.078376 290.314538 
L 166.249819 286.850543 
L 170.71815 286.666095 
L 169.078376 290.314538 
z
" clip-path="url(#p354900c6c4)" style="stroke: #000000; stroke-linecap: round"/>
   </g>
   <g id="patch_22">
    <path d="M 209.919061 306.02146 
Q 231.898535 310.617587 252.783646 314.984872 
" clip-path="url(#p354900c6c4)" style="fill: none; stroke: #000000; stroke-linecap: round"/>
    <path d="M 249.277698 312.208484 
L 252.783646 314.984872 
L 248.458967 316.123798 
L 249.277698 312.208484 
z
" clip-path="url(#p354900c6c4)" style="stroke: #000000; stroke-linecap: round"/>
   </g>
   <g id="patch_23">
    <path d="M 206.208721 304.939255 
Q 194.394589 300.472622 183.626243 296.401376 
" clip-path="url(#p354900c6c4)" style="fill: none; stroke: #000000; stroke-linecap: round"/>
    <path d="M 186.660474 299.686712 
L 183.626243 296.401376 
L 188.075051 295.945192 
L 186.660474 299.686712 
z
" clip-path="url(#p354900c6c4)" style="stroke: #000000; stroke-linecap: round"/>
   </g>
   <g id="patch_24">
    <path d="M 253.875387 315.213166 
Q 231.895913 310.617039 211.010802 306.249754 
" clip-path="url(#p354900c6c4)" style="fill: none; stroke: #000000; stroke-linecap: round"/>
    <path d="M 214.51675 309.026142 
L 211.010802 306.249754 
L 215.335481 305.110828 
L 214.51675 309.026142 
z
" clip-path="url(#p354900c6c4)" style="stroke: #000000; stroke-linecap: round"/>
   </g>
   <g id="patch_25">
    <path d="M 257.707451 315.515807 
Q 278.064647 314.525586 297.305129 313.589684 
" clip-path="url(#p354900c6c4)" style="fill: none; stroke: #000000; stroke-linecap: round"/>
    <path d="M 293.212683 311.786386 
L 297.305129 313.589684 
L 293.407023 315.781662 
L 293.212683 311.786386 
z
" clip-path="url(#p354900c6c4)" style="stroke: #000000; stroke-linecap: round"/>
   </g>
   <g id="patch_26">
    <path d="M 398.233928 251.023599 
Q 408.717369 244.054972 418.269717 237.705268 
" clip-path="url(#p354900c6c4)" style="fill: none; stroke: #000000; stroke-linecap: round"/>
    <path d="M 413.831374 238.254003 
L 418.269717 237.705268 
L 416.0457 241.585183 
L 413.831374 238.254003 
z
" clip-path="url(#p354900c6c4)" style="stroke: #000000; stroke-linecap: round"/>
   </g>
   <g id="patch_27">
    <path d="M 395.248597 253.460599 
Q 383.839599 264.813951 373.2231 275.378669 
" clip-path="url(#p354900c6c4)" style="fill: none; stroke: #000000; stroke-linecap: round"/>
    <path d="M 377.469185 273.974832 
L 373.2231 275.378669 
L 374.647681 271.139499 
L 377.469185 273.974832 
z
" clip-path="url(#p354900c6c4)" style="stroke: #000000; stroke-linecap: round"/>
   </g>
   <g id="patch_28">
    <path d="M 372.427227 276.170661 
Q 383.836225 264.817309 394.452724 254.252591 
" clip-path="url(#p354900c6c4)" style="fill: none; stroke: #000000; stroke-linecap: round"/>
    <path d="M 390.206639 255.656428 
L 394.452724 254.252591 
L 393.028143 258.491761 
L 390.206639 255.656428 
z
" clip-path="url(#p354900c6c4)" style="stroke: #000000; stroke-linecap: round"/>
   </g>
   <g id="patch_29">
    <path d="M 369.459897 278.632455 
Q 354.977522 288.592528 341.416352 297.919054 
" clip-path="url(#p354900c6c4)" style="fill: none; stroke: #000000; stroke-linecap: round"/>
    <path d="M 345.845477 297.300308 
L 341.416352 297.919054 
L 343.578831 294.004506 
L 345.845477 297.300308 
z
" clip-path="url(#p354900c6c4)" style="stroke: #000000; stroke-linecap: round"/>
   </g>
   <g id="patch_30">
    <path d="M 340.499914 298.549322 
Q 354.982289 288.58925 368.543459 279.262724 
" clip-path="url(#p354900c6c4)" style="fill: none; stroke: #000000; stroke-linecap: round"/>
    <path d="M 364.114333 279.88147 
L 368.543459 279.262724 
L 366.38098 283.177272 
L 364.114333 279.88147 
z
" clip-path="url(#p354900c6c4)" style="stroke: #000000; stroke-linecap: round"/>
   </g>
   <g id="patch_31">
    <path d="M 337.081385 300.299627 
Q 319.630957 306.544001 303.233199 312.411693 
" clip-path="url(#p354900c6c4)" style="fill: none; stroke: #000000; stroke-linecap: round"/>
    <path d="M 307.673169 312.947107 
L 303.233199 312.411693 
L 306.325512 309.180965 
L 307.673169 312.947107 
z
" clip-path="url(#p354900c6c4)" style="stroke: #000000; stroke-linecap: round"/>
   </g>
   <g id="patch_32">
    <path d="M 298.421181 313.535397 
Q 278.063985 314.525618 258.823503 315.46152 
" clip-path="url(#p354900c6c4)" style="fill: none; stroke: #000000; stroke-linecap: round"/>
    <path d="M 262.915949 317.264819 
L 258.823503 315.46152 
L 262.72161 313.269542 
L 262.915949 317.264819 
z
" clip-path="url(#p354900c6c4)" style="stroke: #000000; stroke-linecap: round"/>
   </g>
   <g id="patch_33">
    <path d="M 302.176894 312.789676 
Q 319.627321 306.545302 336.02508 300.67761 
" clip-path="url(#p354900c6c4)" style="fill: none; stroke: #000000; stroke-linecap: round"/>
    <path d="M 331.58511 300.142197 
L 336.02508 300.67761 
L 332.932767 303.908338 
L 331.58511 300.142197 
z
" clip-path="url(#p354900c6c4)" style="stroke: #000000; stroke-linecap: round"/>
   </g>
   <g id="patch_34">
    <path d="M 118.108891 273.647534 
Q 112.601914 290.945244 107.434105 307.177608 
" clip-path="url(#p354900c6c4)" style="fill: none; stroke: #000000; stroke-linecap: round"/>
    <path d="M 110.553303 303.97283 
L 107.434105 307.177608 
L 106.741801 302.759382 
L 110.553303 303.97283 
z
" clip-path="url(#p354900c6c4)" style="stroke: #000000; stroke-linecap: round"/>
   </g>
   <g id="patch_35">
    <path d="M 117.123257 272.924615 
Q 103.674832 282.525361 91.136358 291.4765 
" clip-path="url(#p354900c6c4)" style="fill: none; stroke: #000000; stroke-linecap: round"/>
    <path d="M 95.553949 290.78016 
L 91.136358 291.4765 
L 93.229841 287.524623 
L 95.553949 290.78016 
z
" clip-path="url(#p354900c6c4)" style="stroke: #000000; stroke-linecap: round"/>
   </g>
   <g id="patch_36">
    <path d="M 120.546368 272.371452 
Q 141.07811 278.699088 160.541407 284.697442 
" clip-path="url(#p354900c6c4)" style="fill: none; stroke: #000000; stroke-linecap: round"/>
    <path d="M 157.307861 281.608076 
L 160.541407 284.697442 
L 156.129787 285.430659 
L 157.307861 281.608076 
z
" clip-path="url(#p354900c6c4)" style="stroke: #000000; stroke-linecap: round"/>
   </g>
   <g id="patch_37">
    <path d="M 118.705625 269.868056 
Q 118.843568 240.189272 118.976314 211.62851 
" clip-path="url(#p354900c6c4)" style="fill: none; stroke: #000000; stroke-linecap: round"/>
    <path d="M 116.957745 215.619172 
L 118.976314 211.62851 
L 120.957701 215.637763 
L 116.957745 215.619172 
z
" clip-path="url(#p354900c6c4)" style="stroke: #000000; stroke-linecap: round"/>
   </g>
   <g id="patch_38">
    <path d="M 92.716975 170.684402 
Q 103.670294 158.73348 113.868193 147.60678 
" clip-path="url(#p354900c6c4)" style="fill: none; stroke: #000000; stroke-linecap: round"/>
    <path d="M 109.691109 149.204269 
L 113.868193 147.60678 
L 112.639933 151.90694 
L 109.691109 149.204269 
z
" clip-path="url(#p354900c6c4)" style="stroke: #000000; stroke-linecap: round"/>
   </g>
   <g id="patch_39">
    <path d="M 90.157592 170.634831 
Q 74.954381 152.692398 60.473942 135.602961 
" clip-path="url(#p354900c6c4)" style="fill: none; stroke: #000000; stroke-linecap: round"/>
    <path d="M 61.533921 139.947664 
L 60.473942 135.602961 
L 64.585692 137.361799 
L 61.533921 139.947664 
z
" clip-path="url(#p354900c6c4)" style="stroke: #000000; stroke-linecap: round"/>
   </g>
   <g id="patch_40">
    <path d="M 92.575538 173.653969 
Q 105.198581 190.342527 117.147164 206.139399 
" clip-path="url(#p354900c6c4)" style="fill: none; stroke: #000000; stroke-linecap: round"/>
    <path d="M 116.329234 201.742697 
L 117.147164 206.139399 
L 113.139044 204.155722 
L 116.329234 201.742697 
z
" clip-path="url(#p354900c6c4)" style="stroke: #000000; stroke-linecap: round"/>
   </g>
   <g id="patch_41">
    <path d="M 91.587498 174.043418 
Q 93.206475 191.556033 94.722532 207.955361 
" clip-path="url(#p354900c6c4)" style="fill: none; stroke: #000000; stroke-linecap: round"/>
    <path d="M 96.345825 203.788237 
L 94.722532 207.955361 
L 92.362809 204.156452 
L 96.345825 203.788237 
z
" clip-path="url(#p354900c6c4)" style="stroke: #000000; stroke-linecap: round"/>
   </g>
   <g id="patch_42">
    <path d="M 151.035095 266.772102 
Q 136.453639 255.038988 122.743238 244.006777 
" clip-path="url(#p354900c6c4)" style="fill: none; stroke: #000000; stroke-linecap: round"/>
    <path d="M 124.605804 248.072591 
L 122.743238 244.006777 
L 127.113429 244.956213 
L 124.605804 248.072591 
z
" clip-path="url(#p354900c6c4)" style="stroke: #000000; stroke-linecap: round"/>
   </g>
   <g id="patch_43">
    <path d="M 151.997331 266.131977 
Q 149.422833 257.418872 147.165145 249.777975 
" clip-path="url(#p354900c6c4)" style="fill: none; stroke: #000000; stroke-linecap: round"/>
    <path d="M 146.380574 254.180752 
L 147.165145 249.777975 
L 150.216624 253.047298 
L 146.380574 254.180752 
z
" clip-path="url(#p354900c6c4)" style="stroke: #000000; stroke-linecap: round"/>
   </g>
   <g id="patch_44">
    <path d="M 153.934088 269.332226 
Q 166.655952 281.652714 178.574678 293.195404 
" clip-path="url(#p354900c6c4)" style="fill: none; stroke: #000000; stroke-linecap: round"/>
    <path d="M 177.092655 288.975972 
L 178.574678 293.195404 
L 174.309919 291.849364 
L 177.092655 288.975972 
z
" clip-path="url(#p354900c6c4)" style="stroke: #000000; stroke-linecap: round"/>
   </g>
   <g id="patch_45">
    <path d="M 419.197674 237.08843 
Q 408.714233 244.057057 399.161885 250.406761 
" clip-path="url(#p354900c6c4)" style="fill: none; stroke: #000000; stroke-linecap: round"/>
    <path d="M 403.600228 249.858026 
L 399.161885 250.406761 
L 401.385902 246.526845 
L 403.600228 249.858026 
z
" clip-path="url(#p354900c6c4)" style="stroke: #000000; stroke-linecap: round"/>
   </g>
   <g id="patch_46">
    <path d="M 40.763102 92.773086 
Q 49.243956 112.137635 57.276287 130.478061 
" clip-path="url(#p354900c6c4)" style="fill: none; stroke: #000000; stroke-linecap: round"/>
    <path d="M 57.503611 126.011706 
L 57.276287 130.478061 
L 53.839598 127.616389 
L 57.503611 126.011706 
z
" clip-path="url(#p354900c6c4)" style="stroke: #000000; stroke-linecap: round"/>
   </g>
   <g id="patch_47">
    <path d="M 39.993884 89.065593 
Q 40.060846 70.834757 40.123702 53.721949 
" clip-path="url(#p354900c6c4)" style="fill: none; stroke: #000000; stroke-linecap: round"/>
    <path d="M 38.109024 57.714576 
L 40.123702 53.721949 
L 42.108997 57.729268 
L 38.109024 57.714576 
z
" clip-path="url(#p354900c6c4)" style="stroke: #000000; stroke-linecap: round"/>
   </g>
   <g id="patch_48">
    <path d="M 59.75238 134.751393 
Q 74.95559 152.693826 89.43603 169.783263 
" clip-path="url(#p354900c6c4)" style="fill: none; stroke: #000000; stroke-linecap: round"/>
    <path d="M 88.37605 165.43856 
L 89.43603 169.783263 
L 85.32428 168.024425 
L 88.37605 165.43856 
z
" clip-path="url(#p354900c6c4)" style="stroke: #000000; stroke-linecap: round"/>
   </g>
   <g id="patch_49">
    <path d="M 57.724737 131.502017 
Q 49.243883 112.137468 41.211552 93.797042 
" clip-path="url(#p354900c6c4)" style="fill: none; stroke: #000000; stroke-linecap: round"/>
    <path d="M 40.984228 98.263397 
L 41.211552 93.797042 
L 44.648241 96.658714 
L 40.984228 98.263397 
z
" clip-path="url(#p354900c6c4)" style="stroke: #000000; stroke-linecap: round"/>
   </g>
   <g id="patch_50">
    <path d="M 118.896911 206.643267 
Q 117.460221 176.967223 116.077594 148.407906 
" clip-path="url(#p354900c6c4)" style="fill: none; stroke: #000000; stroke-linecap: round"/>
    <path d="M 114.273357 152.499938 
L 116.077594 148.407906 
L 118.268678 152.306515 
L 114.273357 152.499938 
z
" clip-path="url(#p354900c6c4)" style="stroke: #000000; stroke-linecap: round"/>
   </g>
   <g id="patch_51">
    <path d="M 118.981514 210.509752 
Q 118.843571 240.188536 118.710824 268.749298 
" clip-path="url(#p354900c6c4)" style="fill: none; stroke: #000000; stroke-linecap: round"/>
    <path d="M 120.729394 264.758636 
L 118.710824 268.749298 
L 116.729437 264.740045 
L 120.729394 264.758636 
z
" clip-path="url(#p354900c6c4)" style="stroke: #000000; stroke-linecap: round"/>
   </g>
   <g id="patch_52">
    <path d="M 117.823871 207.034055 
Q 105.200828 190.345497 93.252245 174.548624 
" clip-path="url(#p354900c6c4)" style="fill: none; stroke: #000000; stroke-linecap: round"/>
    <path d="M 94.070175 178.945327 
L 93.252245 174.548624 
L 97.260365 176.532302 
L 94.070175 178.945327 
z
" clip-path="url(#p354900c6c4)" style="stroke: #000000; stroke-linecap: round"/>
   </g>
   <g id="patch_53">
    <path d="M 120.115567 210.153074 
Q 132.645449 227.712286 144.525913 244.361412 
" clip-path="url(#p354900c6c4)" style="fill: none; stroke: #000000; stroke-linecap: round"/>
    <path d="M 143.830496 239.943675 
L 144.525913 244.361412 
L 140.574474 242.267104 
L 143.830496 239.943675 
z
" clip-path="url(#p354900c6c4)" style="stroke: #000000; stroke-linecap: round"/>
   </g>
   <g id="patch_54">
    <path d="M 96.2263 212.494127 
Q 107.683422 226.543238 118.433953 239.725903 
" clip-path="url(#p354900c6c4)" style="fill: none; stroke: #000000; stroke-linecap: round"/>
    <path d="M 117.455921 235.362023 
L 118.433953 239.725903 
L 114.356029 237.89 
L 117.455921 235.362023 
z
" clip-path="url(#p354900c6c4)" style="stroke: #000000; stroke-linecap: round"/>
   </g>
   <g id="patch_55">
    <path d="M 94.824918 209.062883 
Q 93.205942 191.550268 91.689885 175.15094 
" clip-path="url(#p354900c6c4)" style="fill: none; stroke: #000000; stroke-linecap: round"/>
    <path d="M 90.066592 179.318064 
L 91.689885 175.15094 
L 94.049608 178.949849 
L 90.066592 179.318064 
z
" clip-path="url(#p354900c6c4)" style="stroke: #000000; stroke-linecap: round"/>
   </g>
   <g id="patch_56">
    <path d="M 146.847067 248.701475 
Q 149.421565 257.41458 151.679253 265.055477 
" clip-path="url(#p354900c6c4)" style="fill: none; stroke: #000000; stroke-linecap: round"/>
    <path d="M 152.463824 260.6527 
L 151.679253 265.055477 
L 148.627774 261.786154 
L 152.463824 260.6527 
z
" clip-path="url(#p354900c6c4)" style="stroke: #000000; stroke-linecap: round"/>
   </g>
   <g id="patch_57">
    <path d="M 145.173727 245.269249 
Q 132.643844 227.710037 120.76338 211.060911 
" clip-path="url(#p354900c6c4)" style="fill: none; stroke: #000000; stroke-linecap: round"/>
    <path d="M 121.458798 215.478648 
L 120.76338 211.060911 
L 124.71482 213.155219 
L 121.458798 215.478648 
z
" clip-path="url(#p354900c6c4)" style="stroke: #000000; stroke-linecap: round"/>
   </g>
   <g id="patch_58">
    <path d="M 147.083403 248.617443 
Q 154.879702 266.220414 162.223246 282.801126 
" clip-path="url(#p354900c6c4)" style="fill: none; stroke: #000000; stroke-linecap: round"/>
    <path d="M 162.432092 278.333869 
L 162.223246 282.801126 
L 158.774748 279.953695 
L 162.432092 278.333869 
z
" clip-path="url(#p354900c6c4)" style="stroke: #000000; stroke-linecap: round"/>
   </g>
   <g id="patch_59">
    <path d="M 182.583071 296.006978 
Q 194.397203 300.473611 205.16555 304.544857 
" clip-path="url(#p354900c6c4)" style="fill: none; stroke: #000000; stroke-linecap: round"/>
    <path d="M 202.131318 301.259521 
L 205.16555 304.544857 
L 200.716741 305.001041 
L 202.131318 301.259521 
z
" clip-path="url(#p354900c6c4)" style="stroke: #000000; stroke-linecap: round"/>
   </g>
   <g id="patch_60">
    <path d="M 179.38158 293.976848 
Q 166.659716 281.656359 154.740989 270.113669 
" clip-path="url(#p354900c6c4)" style="fill: none; stroke: #000000; stroke-linecap: round"/>
    <path d="M 156.223013 274.333101 
L 154.740989 270.113669 
L 159.005749 271.459709 
L 156.223013 274.333101 
z
" clip-path="url(#p354900c6c4)" style="stroke: #000000; stroke-linecap: round"/>
   </g>
   <g id="patch_61">
    <path d="M 179.084022 294.374282 
Q 172.117684 290.460492 166.126083 287.094323 
" clip-path="url(#p354900c6c4)" style="fill: none; stroke: #000000; stroke-linecap: round"/>
    <path d="M 168.633792 290.797214 
L 166.126083 287.094323 
L 170.593021 287.309891 
L 168.633792 290.797214 
z
" clip-path="url(#p354900c6c4)" style="stroke: #000000; stroke-linecap: round"/>
   </g>
   <g id="patch_62">
    <path d="M 165.226831 286.390766 
Q 185.74012 295.610356 205.233639 304.371616 
" clip-path="url(#p354900c6c4)" style="fill: none; stroke: #000000; stroke-linecap: round"/>
    <path d="M 202.405082 300.90762 
L 205.233639 304.371616 
L 200.765308 304.556064 
L 202.405082 300.90762 
z
" clip-path="url(#p354900c6c4)" style="stroke: #000000; stroke-linecap: round"/>
   </g>
   <g id="patch_63">
    <path d="M 161.611999 285.027386 
Q 141.080258 278.69975 121.616961 272.701396 
" clip-path="url(#p354900c6c4)" style="fill: none; stroke: #000000; stroke-linecap: round"/>
    <path d="M 124.850507 275.790762 
L 121.616961 272.701396 
L 126.028581 271.968179 
L 124.850507 275.790762 
z
" clip-path="url(#p354900c6c4)" style="stroke: #000000; stroke-linecap: round"/>
   </g>
   <g id="patch_64">
    <path d="M 162.677119 283.82591 
Q 154.88082 266.222939 147.537277 249.642227 
" clip-path="url(#p354900c6c4)" style="fill: none; stroke: #000000; stroke-linecap: round"/>
    <path d="M 147.32843 254.109484 
L 147.537277 249.642227 
L 150.985774 252.489658 
L 147.32843 254.109484 
z
" clip-path="url(#p354900c6c4)" style="stroke: #000000; stroke-linecap: round"/>
   </g>
   <g id="patch_65">
    <path d="M 165.14777 286.544693 
Q 172.114108 290.458482 178.105709 293.824651 
" clip-path="url(#p354900c6c4)" style="fill: none; stroke: #000000; stroke-linecap: round"/>
    <path d="M 175.598 290.121761 
L 178.105709 293.824651 
L 173.638771 293.609084 
L 175.598 290.121761 
z
" clip-path="url(#p354900c6c4)" style="stroke: #000000; stroke-linecap: round"/>
   </g>
   <g id="patch_66">
    <path d="M 93.047006 51.574603 
Q 101.534827 70.729382 109.569704 88.861986 
" clip-path="url(#p354900c6c4)" style="fill: none; stroke: #000000; stroke-linecap: round"/>
    <path d="M 109.777725 84.394691 
L 109.569704 88.861986 
L 106.120681 86.015192 
L 109.777725 84.394691 
z
" clip-path="url(#p354900c6c4)" style="stroke: #000000; stroke-linecap: round"/>
   </g>
   <g id="patch_67">
    <path d="M 90.67234 48.694325 
Q 78.069032 39.895888 66.38247 31.737435 
" clip-path="url(#p354900c6c4)" style="fill: none; stroke: #000000; stroke-linecap: round"/>
    <path d="M 68.517475 35.667034 
L 66.38247 31.737435 
L 70.807152 32.38719 
L 68.517475 35.667034 
z
" clip-path="url(#p354900c6c4)" style="stroke: #000000; stroke-linecap: round"/>
   </g>
   <g id="patch_68">
    <path d="M 65.469795 31.100292 
Q 78.073102 39.898729 89.759665 48.057182 
" clip-path="url(#p354900c6c4)" style="fill: none; stroke: #000000; stroke-linecap: round"/>
    <path d="M 87.624659 44.127583 
L 89.759665 48.057182 
L 85.334982 47.407427 
L 87.624659 44.127583 
z
" clip-path="url(#p354900c6c4)" style="stroke: #000000; stroke-linecap: round"/>
   </g>
   <g id="patch_69">
    <path d="M 62.421529 31.259742 
Q 52.008688 40.3278 42.438982 48.661611 
" clip-path="url(#p354900c6c4)" style="fill: none; stroke: #000000; stroke-linecap: round"/>
    <path d="M 46.768943 47.542932 
L 42.438982 48.661611 
L 44.142016 44.526435 
L 46.768943 47.542932 
z
" clip-path="url(#p354900c6c4)" style="stroke: #000000; stroke-linecap: round"/>
   </g>
   <g id="patch_70">
    <path d="M 40.127812 52.603002 
Q 40.06085 70.833837 39.997994 87.946646 
" clip-path="url(#p354900c6c4)" style="fill: none; stroke: #000000; stroke-linecap: round"/>
    <path d="M 42.012672 83.954019 
L 39.997994 87.946646 
L 38.012699 83.939327 
L 42.012672 83.954019 
z
" clip-path="url(#p354900c6c4)" style="stroke: #000000; stroke-linecap: round"/>
   </g>
   <g id="patch_71">
    <path d="M 41.592867 49.398452 
Q 52.005709 40.330394 61.575415 31.996584 
" clip-path="url(#p354900c6c4)" style="fill: none; stroke: #000000; stroke-linecap: round"/>
    <path d="M 57.245454 33.115262 
L 61.575415 31.996584 
L 59.872381 36.131759 
L 57.245454 33.115262 
z
" clip-path="url(#p354900c6c4)" style="stroke: #000000; stroke-linecap: round"/>
   </g>
   <g id="PathCollection_1">
    <defs>
     <path id="m295b4dfc70" d="M 0 1.936492 
C 0.513564 1.936492 1.006162 1.732451 1.369306 1.369306 
C 1.732451 1.006162 1.936492 0.513564 1.936492 0 
C 1.936492 -0.513564 1.732451 -1.006162 1.369306 -1.369306 
C 1.006162 -1.732451 0.513564 -1.936492 0 -1.936492 
C -0.513564 -1.936492 -1.006162 -1.732451 -1.369306 -1.369306 
C -1.732451 -1.006162 -1.936492 -0.513564 -1.936492 0 
C -1.936492 0.513564 -1.732451 1.006162 -1.369306 1.369306 
C -1.006162 1.732451 -0.513564 1.936492 0 1.936492 
z
" style="stroke: #1f78b4"/>
    </defs>
    <g clip-path="url(#p354900c6c4)">
     <use xlink:href="#m295b4dfc70" x="143.531062" y="66.067431" style="fill: #1f78b4; stroke: #1f78b4"/>
     <use xlink:href="#m295b4dfc70" x="137.521815" y="81.021654" style="fill: #1f78b4; stroke: #1f78b4"/>
     <use xlink:href="#m295b4dfc70" x="115.929906" y="145.35729" style="fill: #1f78b4; stroke: #1f78b4"/>
     <use xlink:href="#m295b4dfc70" x="110.806339" y="91.652746" style="fill: #1f78b4; stroke: #1f78b4"/>
     <use xlink:href="#m295b4dfc70" x="106.507204" y="310.089052" style="fill: #1f78b4; stroke: #1f78b4"/>
     <use xlink:href="#m295b4dfc70" x="88.652009" y="293.250061" style="fill: #1f78b4; stroke: #1f78b4"/>
     <use xlink:href="#m295b4dfc70" x="135.80037" y="103.473687" style="fill: #1f78b4; stroke: #1f78b4"/>
     <use xlink:href="#m295b4dfc70" x="120.363305" y="242.09174" style="fill: #1f78b4; stroke: #1f78b4"/>
     <use xlink:href="#m295b4dfc70" x="208.021729" y="305.624709" style="fill: #1f78b4; stroke: #1f78b4"/>
     <use xlink:href="#m295b4dfc70" x="255.772719" y="315.609917" style="fill: #1f78b4; stroke: #1f78b4"/>
     <use xlink:href="#m295b4dfc70" x="396.618379" y="252.097499" style="fill: #1f78b4; stroke: #1f78b4"/>
     <use xlink:href="#m295b4dfc70" x="371.057445" y="277.533761" style="fill: #1f78b4; stroke: #1f78b4"/>
     <use xlink:href="#m295b4dfc70" x="338.902366" y="299.648016" style="fill: #1f78b4; stroke: #1f78b4"/>
     <use xlink:href="#m295b4dfc70" x="300.355913" y="313.441287" style="fill: #1f78b4; stroke: #1f78b4"/>
     <use xlink:href="#m295b4dfc70" x="118.696639" y="271.801388" style="fill: #1f78b4; stroke: #1f78b4"/>
     <use xlink:href="#m295b4dfc70" x="91.408909" y="172.111604" style="fill: #1f78b4; stroke: #1f78b4"/>
     <use xlink:href="#m295b4dfc70" x="152.545604" y="267.987549" style="fill: #1f78b4; stroke: #1f78b4"/>
     <use xlink:href="#m295b4dfc70" x="420.813223" y="236.01453" style="fill: #1f78b4; stroke: #1f78b4"/>
     <use xlink:href="#m295b4dfc70" x="39.986777" y="91.000483" style="fill: #1f78b4; stroke: #1f78b4"/>
     <use xlink:href="#m295b4dfc70" x="58.501062" y="133.27462" style="fill: #1f78b4; stroke: #1f78b4"/>
     <use xlink:href="#m295b4dfc70" x="118.9905" y="208.57642" style="fill: #1f78b4; stroke: #1f78b4"/>
     <use xlink:href="#m295b4dfc70" x="95.003507" y="210.994697" style="fill: #1f78b4; stroke: #1f78b4"/>
     <use xlink:href="#m295b4dfc70" x="146.298794" y="246.845903" style="fill: #1f78b4; stroke: #1f78b4"/>
     <use xlink:href="#m295b4dfc70" x="180.770063" y="295.321524" style="fill: #1f78b4; stroke: #1f78b4"/>
     <use xlink:href="#m295b4dfc70" x="163.461729" y="285.59745" style="fill: #1f78b4; stroke: #1f78b4"/>
     <use xlink:href="#m295b4dfc70" x="92.262657" y="49.804534" style="fill: #1f78b4; stroke: #1f78b4"/>
     <use xlink:href="#m295b4dfc70" x="63.879478" y="29.990083" style="fill: #1f78b4; stroke: #1f78b4"/>
     <use xlink:href="#m295b4dfc70" x="40.134919" y="50.668112" style="fill: #1f78b4; stroke: #1f78b4"/>
    </g>
   </g>
   <g id="text_1">
    <g clip-path="url(#p354900c6c4)">
     <!-- 0 -->
     <g transform="translate(140.349812 68.826806) scale(0.1 -0.1)">
      <defs>
       <path id="DejaVuSans-30" d="M 2034 4250 
Q 1547 4250 1301 3770 
Q 1056 3291 1056 2328 
Q 1056 1369 1301 889 
Q 1547 409 2034 409 
Q 2525 409 2770 889 
Q 3016 1369 3016 2328 
Q 3016 3291 2770 3770 
Q 2525 4250 2034 4250 
z
M 2034 4750 
Q 2819 4750 3233 4129 
Q 3647 3509 3647 2328 
Q 3647 1150 3233 529 
Q 2819 -91 2034 -91 
Q 1250 -91 836 529 
Q 422 1150 422 2328 
Q 422 3509 836 4129 
Q 1250 4750 2034 4750 
z
" transform="scale(0.015625)"/>
      </defs>
      <use xlink:href="#DejaVuSans-30"/>
     </g>
    </g>
   </g>
   <g id="text_2">
    <g clip-path="url(#p354900c6c4)">
     <!-- 1 -->
     <g transform="translate(134.340565 83.781029) scale(0.1 -0.1)">
      <defs>
       <path id="DejaVuSans-31" d="M 794 531 
L 1825 531 
L 1825 4091 
L 703 3866 
L 703 4441 
L 1819 4666 
L 2450 4666 
L 2450 531 
L 3481 531 
L 3481 0 
L 794 0 
L 794 531 
z
" transform="scale(0.015625)"/>
      </defs>
      <use xlink:href="#DejaVuSans-31"/>
     </g>
    </g>
   </g>
   <g id="text_3">
    <g clip-path="url(#p354900c6c4)">
     <!-- 2 -->
     <g transform="translate(112.748656 148.116665) scale(0.1 -0.1)">
      <defs>
       <path id="DejaVuSans-32" d="M 1228 531 
L 3431 531 
L 3431 0 
L 469 0 
L 469 531 
Q 828 903 1448 1529 
Q 2069 2156 2228 2338 
Q 2531 2678 2651 2914 
Q 2772 3150 2772 3378 
Q 2772 3750 2511 3984 
Q 2250 4219 1831 4219 
Q 1534 4219 1204 4116 
Q 875 4013 500 3803 
L 500 4441 
Q 881 4594 1212 4672 
Q 1544 4750 1819 4750 
Q 2544 4750 2975 4387 
Q 3406 4025 3406 3419 
Q 3406 3131 3298 2873 
Q 3191 2616 2906 2266 
Q 2828 2175 2409 1742 
Q 1991 1309 1228 531 
z
" transform="scale(0.015625)"/>
      </defs>
      <use xlink:href="#DejaVuSans-32"/>
     </g>
    </g>
   </g>
   <g id="text_4">
    <g clip-path="url(#p354900c6c4)">
     <!-- 3 -->
     <g transform="translate(107.625089 94.412121) scale(0.1 -0.1)">
      <defs>
       <path id="DejaVuSans-33" d="M 2597 2516 
Q 3050 2419 3304 2112 
Q 3559 1806 3559 1356 
Q 3559 666 3084 287 
Q 2609 -91 1734 -91 
Q 1441 -91 1130 -33 
Q 819 25 488 141 
L 488 750 
Q 750 597 1062 519 
Q 1375 441 1716 441 
Q 2309 441 2620 675 
Q 2931 909 2931 1356 
Q 2931 1769 2642 2001 
Q 2353 2234 1838 2234 
L 1294 2234 
L 1294 2753 
L 1863 2753 
Q 2328 2753 2575 2939 
Q 2822 3125 2822 3475 
Q 2822 3834 2567 4026 
Q 2313 4219 1838 4219 
Q 1578 4219 1281 4162 
Q 984 4106 628 3988 
L 628 4550 
Q 988 4650 1302 4700 
Q 1616 4750 1894 4750 
Q 2613 4750 3031 4423 
Q 3450 4097 3450 3541 
Q 3450 3153 3228 2886 
Q 3006 2619 2597 2516 
z
" transform="scale(0.015625)"/>
      </defs>
      <use xlink:href="#DejaVuSans-33"/>
     </g>
    </g>
   </g>
   <g id="text_5">
    <g clip-path="url(#p354900c6c4)">
     <!-- 4 -->
     <g transform="translate(103.325954 312.848427) scale(0.1 -0.1)">
      <defs>
       <path id="DejaVuSans-34" d="M 2419 4116 
L 825 1625 
L 2419 1625 
L 2419 4116 
z
M 2253 4666 
L 3047 4666 
L 3047 1625 
L 3713 1625 
L 3713 1100 
L 3047 1100 
L 3047 0 
L 2419 0 
L 2419 1100 
L 313 1100 
L 313 1709 
L 2253 4666 
z
" transform="scale(0.015625)"/>
      </defs>
      <use xlink:href="#DejaVuSans-34"/>
     </g>
    </g>
   </g>
   <g id="text_6">
    <g clip-path="url(#p354900c6c4)">
     <!-- 5 -->
     <g transform="translate(85.470759 296.009436) scale(0.1 -0.1)">
      <defs>
       <path id="DejaVuSans-35" d="M 691 4666 
L 3169 4666 
L 3169 4134 
L 1269 4134 
L 1269 2991 
Q 1406 3038 1543 3061 
Q 1681 3084 1819 3084 
Q 2600 3084 3056 2656 
Q 3513 2228 3513 1497 
Q 3513 744 3044 326 
Q 2575 -91 1722 -91 
Q 1428 -91 1123 -41 
Q 819 9 494 109 
L 494 744 
Q 775 591 1075 516 
Q 1375 441 1709 441 
Q 2250 441 2565 725 
Q 2881 1009 2881 1497 
Q 2881 1984 2565 2268 
Q 2250 2553 1709 2553 
Q 1456 2553 1204 2497 
Q 953 2441 691 2322 
L 691 4666 
z
" transform="scale(0.015625)"/>
      </defs>
      <use xlink:href="#DejaVuSans-35"/>
     </g>
    </g>
   </g>
   <g id="text_7">
    <g clip-path="url(#p354900c6c4)">
     <!-- 6 -->
     <g transform="translate(132.61912 106.233062) scale(0.1 -0.1)">
      <defs>
       <path id="DejaVuSans-36" d="M 2113 2584 
Q 1688 2584 1439 2293 
Q 1191 2003 1191 1497 
Q 1191 994 1439 701 
Q 1688 409 2113 409 
Q 2538 409 2786 701 
Q 3034 994 3034 1497 
Q 3034 2003 2786 2293 
Q 2538 2584 2113 2584 
z
M 3366 4563 
L 3366 3988 
Q 3128 4100 2886 4159 
Q 2644 4219 2406 4219 
Q 1781 4219 1451 3797 
Q 1122 3375 1075 2522 
Q 1259 2794 1537 2939 
Q 1816 3084 2150 3084 
Q 2853 3084 3261 2657 
Q 3669 2231 3669 1497 
Q 3669 778 3244 343 
Q 2819 -91 2113 -91 
Q 1303 -91 875 529 
Q 447 1150 447 2328 
Q 447 3434 972 4092 
Q 1497 4750 2381 4750 
Q 2619 4750 2861 4703 
Q 3103 4656 3366 4563 
z
" transform="scale(0.015625)"/>
      </defs>
      <use xlink:href="#DejaVuSans-36"/>
     </g>
    </g>
   </g>
   <g id="text_8">
    <g clip-path="url(#p354900c6c4)">
     <!-- 7 -->
     <g transform="translate(117.182055 244.851115) scale(0.1 -0.1)">
      <defs>
       <path id="DejaVuSans-37" d="M 525 4666 
L 3525 4666 
L 3525 4397 
L 1831 0 
L 1172 0 
L 2766 4134 
L 525 4134 
L 525 4666 
z
" transform="scale(0.015625)"/>
      </defs>
      <use xlink:href="#DejaVuSans-37"/>
     </g>
    </g>
   </g>
   <g id="text_9">
    <g clip-path="url(#p354900c6c4)">
     <!-- 8 -->
     <g transform="translate(204.840479 308.384084) scale(0.1 -0.1)">
      <defs>
       <path id="DejaVuSans-38" d="M 2034 2216 
Q 1584 2216 1326 1975 
Q 1069 1734 1069 1313 
Q 1069 891 1326 650 
Q 1584 409 2034 409 
Q 2484 409 2743 651 
Q 3003 894 3003 1313 
Q 3003 1734 2745 1975 
Q 2488 2216 2034 2216 
z
M 1403 2484 
Q 997 2584 770 2862 
Q 544 3141 544 3541 
Q 544 4100 942 4425 
Q 1341 4750 2034 4750 
Q 2731 4750 3128 4425 
Q 3525 4100 3525 3541 
Q 3525 3141 3298 2862 
Q 3072 2584 2669 2484 
Q 3125 2378 3379 2068 
Q 3634 1759 3634 1313 
Q 3634 634 3220 271 
Q 2806 -91 2034 -91 
Q 1263 -91 848 271 
Q 434 634 434 1313 
Q 434 1759 690 2068 
Q 947 2378 1403 2484 
z
M 1172 3481 
Q 1172 3119 1398 2916 
Q 1625 2713 2034 2713 
Q 2441 2713 2670 2916 
Q 2900 3119 2900 3481 
Q 2900 3844 2670 4047 
Q 2441 4250 2034 4250 
Q 1625 4250 1398 4047 
Q 1172 3844 1172 3481 
z
" transform="scale(0.015625)"/>
      </defs>
      <use xlink:href="#DejaVuSans-38"/>
     </g>
    </g>
   </g>
   <g id="text_10">
    <g clip-path="url(#p354900c6c4)">
     <!-- 9 -->
     <g transform="translate(252.591469 318.369292) scale(0.1 -0.1)">
      <defs>
       <path id="DejaVuSans-39" d="M 703 97 
L 703 672 
Q 941 559 1184 500 
Q 1428 441 1663 441 
Q 2288 441 2617 861 
Q 2947 1281 2994 2138 
Q 2813 1869 2534 1725 
Q 2256 1581 1919 1581 
Q 1219 1581 811 2004 
Q 403 2428 403 3163 
Q 403 3881 828 4315 
Q 1253 4750 1959 4750 
Q 2769 4750 3195 4129 
Q 3622 3509 3622 2328 
Q 3622 1225 3098 567 
Q 2575 -91 1691 -91 
Q 1453 -91 1209 -44 
Q 966 3 703 97 
z
M 1959 2075 
Q 2384 2075 2632 2365 
Q 2881 2656 2881 3163 
Q 2881 3666 2632 3958 
Q 2384 4250 1959 4250 
Q 1534 4250 1286 3958 
Q 1038 3666 1038 3163 
Q 1038 2656 1286 2365 
Q 1534 2075 1959 2075 
z
" transform="scale(0.015625)"/>
      </defs>
      <use xlink:href="#DejaVuSans-39"/>
     </g>
    </g>
   </g>
   <g id="text_11">
    <g clip-path="url(#p354900c6c4)">
     <!-- 10 -->
     <g transform="translate(390.255879 254.856874) scale(0.1 -0.1)">
      <use xlink:href="#DejaVuSans-31"/>
      <use xlink:href="#DejaVuSans-30" x="63.623047"/>
     </g>
    </g>
   </g>
   <g id="text_12">
    <g clip-path="url(#p354900c6c4)">
     <!-- 11 -->
     <g transform="translate(364.694945 280.293136) scale(0.1 -0.1)">
      <use xlink:href="#DejaVuSans-31"/>
      <use xlink:href="#DejaVuSans-31" x="63.623047"/>
     </g>
    </g>
   </g>
   <g id="text_13">
    <g clip-path="url(#p354900c6c4)">
     <!-- 12 -->
     <g transform="translate(332.539866 302.407391) scale(0.1 -0.1)">
      <use xlink:href="#DejaVuSans-31"/>
      <use xlink:href="#DejaVuSans-32" x="63.623047"/>
     </g>
    </g>
   </g>
   <g id="text_14">
    <g clip-path="url(#p354900c6c4)">
     <!-- 13 -->
     <g transform="translate(293.993413 316.200662) scale(0.1 -0.1)">
      <use xlink:href="#DejaVuSans-31"/>
      <use xlink:href="#DejaVuSans-33" x="63.623047"/>
     </g>
    </g>
   </g>
   <g id="text_15">
    <g clip-path="url(#p354900c6c4)">
     <!-- 14 -->
     <g transform="translate(112.334139 274.560763) scale(0.1 -0.1)">
      <use xlink:href="#DejaVuSans-31"/>
      <use xlink:href="#DejaVuSans-34" x="63.623047"/>
     </g>
    </g>
   </g>
   <g id="text_16">
    <g clip-path="url(#p354900c6c4)">
     <!-- 15 -->
     <g transform="translate(85.046409 174.870979) scale(0.1 -0.1)">
      <use xlink:href="#DejaVuSans-31"/>
      <use xlink:href="#DejaVuSans-35" x="63.623047"/>
     </g>
    </g>
   </g>
   <g id="text_17">
    <g clip-path="url(#p354900c6c4)">
     <!-- 16 -->
     <g transform="translate(146.183104 270.746924) scale(0.1 -0.1)">
      <use xlink:href="#DejaVuSans-31"/>
      <use xlink:href="#DejaVuSans-36" x="63.623047"/>
     </g>
    </g>
   </g>
   <g id="text_18">
    <g clip-path="url(#p354900c6c4)">
     <!-- 17 -->
     <g transform="translate(414.450723 238.773905) scale(0.1 -0.1)">
      <use xlink:href="#DejaVuSans-31"/>
      <use xlink:href="#DejaVuSans-37" x="63.623047"/>
     </g>
    </g>
   </g>
   <g id="text_19">
    <g clip-path="url(#p354900c6c4)">
     <!-- 18 -->
     <g transform="translate(33.624277 93.759858) scale(0.1 -0.1)">
      <use xlink:href="#DejaVuSans-31"/>
      <use xlink:href="#DejaVuSans-38" x="63.623047"/>
     </g>
    </g>
   </g>
   <g id="text_20">
    <g clip-path="url(#p354900c6c4)">
     <!-- 19 -->
     <g transform="translate(52.138562 136.033995) scale(0.1 -0.1)">
      <use xlink:href="#DejaVuSans-31"/>
      <use xlink:href="#DejaVuSans-39" x="63.623047"/>
     </g>
    </g>
   </g>
   <g id="text_21">
    <g clip-path="url(#p354900c6c4)">
     <!-- 20 -->
     <g transform="translate(112.628 211.335795) scale(0.1 -0.1)">
      <use xlink:href="#DejaVuSans-32"/>
      <use xlink:href="#DejaVuSans-30" x="63.623047"/>
     </g>
    </g>
   </g>
   <g id="text_22">
    <g clip-path="url(#p354900c6c4)">
     <!-- 21 -->
     <g transform="translate(88.641007 213.754072) scale(0.1 -0.1)">
      <use xlink:href="#DejaVuSans-32"/>
      <use xlink:href="#DejaVuSans-31" x="63.623047"/>
     </g>
    </g>
   </g>
   <g id="text_23">
    <g clip-path="url(#p354900c6c4)">
     <!-- 22 -->
     <g transform="translate(139.936294 249.605278) scale(0.1 -0.1)">
      <use xlink:href="#DejaVuSans-32"/>
      <use xlink:href="#DejaVuSans-32" x="63.623047"/>
     </g>
    </g>
   </g>
   <g id="text_24">
    <g clip-path="url(#p354900c6c4)">
     <!-- 23 -->
     <g transform="translate(174.407563 298.080899) scale(0.1 -0.1)">
      <use xlink:href="#DejaVuSans-32"/>
      <use xlink:href="#DejaVuSans-33" x="63.623047"/>
     </g>
    </g>
   </g>
   <g id="text_25">
    <g clip-path="url(#p354900c6c4)">
     <!-- 24 -->
     <g transform="translate(157.099229 288.356825) scale(0.1 -0.1)">
      <use xlink:href="#DejaVuSans-32"/>
      <use xlink:href="#DejaVuSans-34" x="63.623047"/>
     </g>
    </g>
   </g>
   <g id="text_26">
    <g clip-path="url(#p354900c6c4)">
     <!-- 25 -->
     <g transform="translate(85.900157 52.563909) scale(0.1 -0.1)">
      <use xlink:href="#DejaVuSans-32"/>
      <use xlink:href="#DejaVuSans-35" x="63.623047"/>
     </g>
    </g>
   </g>
   <g id="text_27">
    <g clip-path="url(#p354900c6c4)">
     <!-- 26 -->
     <g transform="translate(57.516978 32.749458) scale(0.1 -0.1)">
      <use xlink:href="#DejaVuSans-32"/>
      <use xlink:href="#DejaVuSans-36" x="63.623047"/>
     </g>
    </g>
   </g>
   <g id="text_28">
    <g clip-path="url(#p354900c6c4)">
     <!-- 27 -->
     <g transform="translate(33.772419 53.427487) scale(0.1 -0.1)">
      <use xlink:href="#DejaVuSans-32"/>
      <use xlink:href="#DejaVuSans-37" x="63.623047"/>
     </g>
    </g>
   </g>
  </g>
 </g>
 <defs>
  <clipPath id="p354900c6c4">
   <rect x="0" y="0" width="460.8" height="345.6"/>
  </clipPath>
 </defs>
</svg>
