<?xml version="1.0" encoding="utf-8" standalone="no"?>
<!DOCTYPE svg PUBLIC "-//W3C//DTD SVG 1.1//EN"
  "http://www.w3.org/Graphics/SVG/1.1/DTD/svg11.dtd">
<svg xmlns:xlink="http://www.w3.org/1999/xlink" width="590.007778pt" height="373.743859pt" viewBox="0 0 590.007778 373.743859" xmlns="http://www.w3.org/2000/svg" version="1.1">
 <metadata>
  <rdf:RDF xmlns:dc="http://purl.org/dc/elements/1.1/" xmlns:cc="http://creativecommons.org/ns#" xmlns:rdf="http://www.w3.org/1999/02/22-rdf-syntax-ns#">
   <cc:Work>
    <dc:type rdf:resource="http://purl.org/dc/dcmitype/StillImage"/>
    <dc:date>2023-12-12T12:26:54.826838</dc:date>
    <dc:format>image/svg+xml</dc:format>
    <dc:creator>
     <cc:Agent>
      <dc:title>Matplotlib v3.7.0, https://matplotlib.org/</dc:title>
     </cc:Agent>
    </dc:creator>
   </cc:Work>
  </rdf:RDF>
 </metadata>
 <defs>
  <style type="text/css">*{stroke-linejoin: round; stroke-linecap: butt}</style>
 </defs>
 <g id="figure_1">
  <g id="patch_1">
   <path d="M 0 373.743859 
L 590.007778 373.743859 
L 590.007778 0 
L 0 0 
z
" style="fill: #ffffff"/>
  </g>
  <g id="axes_1">
   <g id="patch_2">
    <path d="M 59.481875 323.020109 
L 573.807778 323.020109 
L 573.807778 7.2 
L 59.481875 7.2 
z
" style="fill: #ffffff"/>
   </g>
   <g id="matplotlib.axis_1">
    <g id="xtick_1">
     <g id="line2d_1">
      <path d="M 59.481875 323.020109 
L 59.481875 7.2 
" clip-path="url(#p36d0288e95)" style="fill: none; stroke-dasharray: 1,1.65; stroke-dashoffset: 0; stroke: #000000"/>
     </g>
     <g id="line2d_2">
      <defs>
       <path id="m4a0ca21a2a" d="M 0 0 
L 0 3.5 
" style="stroke: #000000; stroke-width: 0.8"/>
      </defs>
      <g>
       <use xlink:href="#m4a0ca21a2a" x="59.481875" y="323.020109" style="stroke: #000000; stroke-width: 0.8"/>
      </g>
     </g>
     <g id="text_1">
      <!-- 0 -->
      <g transform="translate(54.981875 342.361359) scale(0.18 -0.18)">
       <defs>
        <path id="Times-Roman-30" d="M 1531 116 
Q 1991 116 2162 619 
Q 2334 1122 2334 2075 
Q 2334 2834 2231 3288 
Q 2038 4131 1506 4131 
Q 975 4131 778 3263 
Q 675 2800 675 2044 
Q 675 1334 781 909 
Q 981 116 1531 116 
z
M 1522 4300 
Q 2241 4300 2638 3547 
Q 2953 2938 2953 2147 
Q 2953 1525 2759 975 
Q 2394 -59 1494 -59 
Q 878 -59 481 500 
Q 56 1097 56 2122 
Q 56 2928 341 3509 
Q 725 4300 1522 4300 
z
" transform="scale(0.015625)"/>
       </defs>
       <use xlink:href="#Times-Roman-30"/>
      </g>
     </g>
    </g>
    <g id="xtick_2">
     <g id="line2d_3">
      <path d="M 145.202859 323.020109 
L 145.202859 7.2 
" clip-path="url(#p36d0288e95)" style="fill: none; stroke-dasharray: 1,1.65; stroke-dashoffset: 0; stroke: #000000"/>
     </g>
     <g id="line2d_4">
      <g>
       <use xlink:href="#m4a0ca21a2a" x="145.202859" y="323.020109" style="stroke: #000000; stroke-width: 0.8"/>
      </g>
     </g>
     <g id="text_2">
      <!-- 10 -->
      <g transform="translate(136.202859 342.361359) scale(0.18 -0.18)">
       <defs>
        <path id="Times-Roman-31" d="M 1894 4294 
Q 1906 4278 1907 4270 
Q 1909 4263 1909 4234 
L 1909 472 
Q 1909 231 2037 165 
Q 2166 100 2516 88 
L 2516 0 
L 753 0 
L 753 94 
Q 1131 113 1247 197 
Q 1363 281 1363 563 
L 1363 3456 
Q 1363 3606 1325 3684 
Q 1288 3763 1163 3763 
Q 1081 3763 951 3717 
Q 822 3672 709 3622 
L 709 3709 
L 1856 4294 
L 1894 4294 
z
" transform="scale(0.015625)"/>
       </defs>
       <use xlink:href="#Times-Roman-31"/>
       <use xlink:href="#Times-Roman-30" x="50"/>
      </g>
     </g>
    </g>
    <g id="xtick_3">
     <g id="line2d_5">
      <path d="M 230.923843 323.020109 
L 230.923843 7.2 
" clip-path="url(#p36d0288e95)" style="fill: none; stroke-dasharray: 1,1.65; stroke-dashoffset: 0; stroke: #000000"/>
     </g>
     <g id="line2d_6">
      <g>
       <use xlink:href="#m4a0ca21a2a" x="230.923843" y="323.020109" style="stroke: #000000; stroke-width: 0.8"/>
      </g>
     </g>
     <g id="text_3">
      <!-- 20 -->
      <g transform="translate(221.923843 342.361359) scale(0.18 -0.18)">
       <defs>
        <path id="Times-Roman-32" d="M 191 72 
Q 1334 1259 1743 1815 
Q 2153 2372 2153 2900 
Q 2153 3363 1903 3605 
Q 1653 3847 1306 3847 
Q 878 3847 613 3534 
Q 466 3363 331 3006 
L 197 3034 
Q 353 3753 726 4033 
Q 1100 4313 1528 4313 
Q 2056 4313 2382 3980 
Q 2709 3647 2709 3166 
Q 2709 2653 2356 2178 
Q 2003 1703 822 488 
L 2256 488 
Q 2556 488 2678 559 
Q 2800 631 2953 909 
L 3034 872 
L 2688 0 
L 191 0 
L 191 72 
z
" transform="scale(0.015625)"/>
       </defs>
       <use xlink:href="#Times-Roman-32"/>
       <use xlink:href="#Times-Roman-30" x="50"/>
      </g>
     </g>
    </g>
    <g id="xtick_4">
     <g id="line2d_7">
      <path d="M 316.644826 323.020109 
L 316.644826 7.2 
" clip-path="url(#p36d0288e95)" style="fill: none; stroke-dasharray: 1,1.65; stroke-dashoffset: 0; stroke: #000000"/>
     </g>
     <g id="line2d_8">
      <g>
       <use xlink:href="#m4a0ca21a2a" x="316.644826" y="323.020109" style="stroke: #000000; stroke-width: 0.8"/>
      </g>
     </g>
     <g id="text_4">
      <!-- 30 -->
      <g transform="translate(307.644826 342.361359) scale(0.18 -0.18)">
       <defs>
        <path id="Times-Roman-33" d="M 497 544 
Q 669 544 951 366 
Q 1234 188 1431 188 
Q 1869 188 2081 483 
Q 2294 778 2294 1125 
Q 2294 1459 2122 1713 
Q 1831 2141 1141 2141 
Q 1100 2141 1062 2139 
Q 1025 2138 975 2131 
L 969 2213 
Q 1469 2394 1756 2628 
Q 2044 2863 2044 3247 
Q 2044 3588 1817 3766 
Q 1591 3944 1300 3944 
Q 956 3944 694 3691 
Q 550 3553 384 3266 
L 288 3288 
Q 413 3763 753 4047 
Q 1094 4331 1541 4331 
Q 2019 4331 2280 4068 
Q 2541 3806 2541 3463 
Q 2541 3159 2325 2906 
Q 2203 2763 1947 2584 
Q 2247 2456 2428 2284 
Q 2769 1956 2769 1453 
Q 2769 859 2301 406 
Q 1834 -47 972 -47 
Q 588 -47 433 67 
Q 278 181 278 313 
Q 278 394 329 469 
Q 381 544 497 544 
z
" transform="scale(0.015625)"/>
       </defs>
       <use xlink:href="#Times-Roman-33"/>
       <use xlink:href="#Times-Roman-30" x="50"/>
      </g>
     </g>
    </g>
    <g id="xtick_5">
     <g id="line2d_9">
      <path d="M 402.36581 323.020109 
L 402.36581 7.2 
" clip-path="url(#p36d0288e95)" style="fill: none; stroke-dasharray: 1,1.65; stroke-dashoffset: 0; stroke: #000000"/>
     </g>
     <g id="line2d_10">
      <g>
       <use xlink:href="#m4a0ca21a2a" x="402.36581" y="323.020109" style="stroke: #000000; stroke-width: 0.8"/>
      </g>
     </g>
     <g id="text_5">
      <!-- 40 -->
      <g transform="translate(393.36581 342.361359) scale(0.18 -0.18)">
       <defs>
        <path id="Times-Roman-34" d="M 1866 3650 
L 331 1481 
L 1866 1481 
L 1866 3650 
z
M 2072 4294 
L 2369 4294 
L 2369 1481 
L 3022 1481 
L 3022 1066 
L 2369 1066 
L 2369 0 
L 1872 0 
L 1872 1066 
L 72 1066 
L 72 1481 
L 2072 4294 
z
" transform="scale(0.015625)"/>
       </defs>
       <use xlink:href="#Times-Roman-34"/>
       <use xlink:href="#Times-Roman-30" x="50"/>
      </g>
     </g>
    </g>
    <g id="xtick_6">
     <g id="line2d_11">
      <path d="M 488.086794 323.020109 
L 488.086794 7.2 
" clip-path="url(#p36d0288e95)" style="fill: none; stroke-dasharray: 1,1.65; stroke-dashoffset: 0; stroke: #000000"/>
     </g>
     <g id="line2d_12">
      <g>
       <use xlink:href="#m4a0ca21a2a" x="488.086794" y="323.020109" style="stroke: #000000; stroke-width: 0.8"/>
      </g>
     </g>
     <g id="text_6">
      <!-- 50 -->
      <g transform="translate(479.086794 342.361359) scale(0.18 -0.18)">
       <defs>
        <path id="Times-Roman-35" d="M 478 572 
Q 656 572 945 370 
Q 1234 169 1391 169 
Q 1750 169 2019 486 
Q 2288 803 2288 1266 
Q 2288 2075 1425 2431 
Q 947 2628 534 2628 
Q 466 2628 448 2633 
Q 431 2638 406 2666 
Q 413 2691 417 2708 
Q 422 2725 428 2741 
L 1109 4234 
L 2450 4234 
Q 2550 4234 2604 4268 
Q 2659 4303 2747 4397 
L 2797 4353 
L 2553 3775 
Q 2541 3747 2484 3739 
Q 2428 3731 2363 3731 
L 1153 3731 
L 888 3184 
Q 1400 3097 1638 3019 
Q 2028 2888 2291 2631 
Q 2516 2409 2631 2132 
Q 2747 1856 2747 1547 
Q 2747 856 2255 393 
Q 1763 -69 1009 -69 
Q 703 -69 516 -9 
Q 203 88 203 338 
Q 203 431 270 501 
Q 338 572 478 572 
z
" transform="scale(0.015625)"/>
       </defs>
       <use xlink:href="#Times-Roman-35"/>
       <use xlink:href="#Times-Roman-30" x="50"/>
      </g>
     </g>
    </g>
    <g id="xtick_7">
     <g id="line2d_13">
      <path d="M 573.807778 323.020109 
L 573.807778 7.2 
" clip-path="url(#p36d0288e95)" style="fill: none; stroke-dasharray: 1,1.65; stroke-dashoffset: 0; stroke: #000000"/>
     </g>
     <g id="line2d_14">
      <g>
       <use xlink:href="#m4a0ca21a2a" x="573.807778" y="323.020109" style="stroke: #000000; stroke-width: 0.8"/>
      </g>
     </g>
     <g id="text_7">
      <!-- 60 -->
      <g transform="translate(564.807778 342.361359) scale(0.18 -0.18)">
       <defs>
        <path id="Times-Roman-36" d="M 2994 1422 
Q 2994 850 2626 390 
Q 2259 -69 1672 -69 
Q 1122 -69 670 447 
Q 219 963 219 1819 
Q 219 2922 1094 3713 
Q 1875 4375 2850 4375 
L 2866 4272 
Q 2475 4200 2192 4076 
Q 1909 3953 1688 3731 
Q 1459 3506 1259 3159 
Q 1059 2813 984 2472 
Q 1178 2591 1319 2647 
Q 1569 2747 1822 2747 
Q 2319 2747 2656 2403 
Q 2994 2059 2994 1422 
z
M 2422 1181 
Q 2422 1597 2291 1919 
Q 2072 2456 1547 2456 
Q 1063 2456 903 2169 
Q 809 2000 809 1606 
Q 809 1097 1026 609 
Q 1244 122 1713 122 
Q 2084 122 2253 439 
Q 2422 756 2422 1181 
z
" transform="scale(0.015625)"/>
       </defs>
       <use xlink:href="#Times-Roman-36"/>
       <use xlink:href="#Times-Roman-30" x="50"/>
      </g>
     </g>
    </g>
    <g id="text_8">
     <!-- instances -->
     <g transform="translate(283.652795 362.623234) scale(0.18 -0.18)">
      <defs>
       <path id="Times-Roman-69" d="M 525 4034 
Q 525 4169 619 4266 
Q 713 4363 850 4363 
Q 984 4363 1079 4267 
Q 1175 4172 1175 4034 
Q 1175 3900 1079 3804 
Q 984 3709 850 3709 
Q 713 3709 619 3804 
Q 525 3900 525 4034 
z
M 125 88 
Q 459 119 546 201 
Q 634 284 634 650 
L 634 2141 
Q 634 2344 606 2422 
Q 559 2550 409 2550 
Q 375 2550 342 2544 
Q 309 2538 153 2494 
L 153 2591 
L 288 2634 
Q 834 2813 1050 2903 
Q 1138 2941 1163 2941 
Q 1169 2919 1169 2894 
L 1169 650 
Q 1169 294 1255 203 
Q 1341 113 1644 88 
L 1644 0 
L 125 0 
L 125 88 
z
" transform="scale(0.015625)"/>
       <path id="Times-Roman-6e" d="M 116 88 
Q 338 116 427 198 
Q 516 281 516 569 
L 516 2153 
Q 516 2353 478 2434 
Q 419 2553 234 2553 
Q 206 2553 176 2550 
Q 147 2547 103 2541 
L 103 2650 
Q 231 2688 709 2844 
L 1003 2941 
Q 1025 2941 1029 2925 
Q 1034 2909 1034 2881 
L 1034 2422 
Q 1322 2691 1484 2791 
Q 1728 2944 1991 2944 
Q 2203 2944 2378 2822 
Q 2716 2584 2716 1975 
L 2716 516 
Q 2716 291 2806 191 
Q 2897 91 3109 88 
L 3109 0 
L 1775 0 
L 1775 88 
Q 2003 119 2093 214 
Q 2184 309 2184 628 
L 2184 1963 
Q 2184 2231 2084 2407 
Q 1984 2584 1716 2584 
Q 1531 2584 1341 2459 
Q 1234 2388 1066 2222 
L 1066 472 
Q 1066 247 1166 170 
Q 1266 94 1481 88 
L 1481 0 
L 116 0 
L 116 88 
z
M 1603 2944 
L 1603 2944 
z
" transform="scale(0.015625)"/>
       <path id="Times-Roman-73" d="M 331 984 
L 434 984 
Q 506 628 628 438 
Q 847 88 1269 88 
Q 1503 88 1639 217 
Q 1775 347 1775 553 
Q 1775 684 1697 806 
Q 1619 928 1422 1044 
L 1072 1244 
Q 688 1450 506 1659 
Q 325 1869 325 2153 
Q 325 2503 575 2728 
Q 825 2953 1203 2953 
Q 1369 2953 1567 2890 
Q 1766 2828 1791 2828 
Q 1847 2828 1872 2843 
Q 1897 2859 1916 2894 
L 1991 2894 
L 2013 2022 
L 1916 2022 
Q 1853 2325 1747 2494 
Q 1553 2806 1188 2806 
Q 969 2806 844 2672 
Q 719 2538 719 2356 
Q 719 2069 1150 1844 
L 1563 1622 
Q 2228 1259 2228 778 
Q 2228 409 1951 175 
Q 1675 -59 1228 -59 
Q 1041 -59 803 3 
Q 566 66 522 66 
Q 484 66 456 39 
Q 428 13 413 -25 
L 331 -25 
L 331 984 
z
M 1247 2953 
L 1247 2953 
z
" transform="scale(0.015625)"/>
       <path id="Times-Roman-74" d="M 1628 2881 
L 1628 2656 
L 991 2656 
L 984 856 
Q 984 619 1025 497 
Q 1100 281 1319 281 
Q 1431 281 1514 334 
Q 1597 388 1703 503 
L 1784 434 
L 1716 341 
Q 1553 122 1372 31 
Q 1191 -59 1022 -59 
Q 653 -59 522 269 
Q 450 447 450 763 
L 450 2656 
L 109 2656 
Q 94 2666 86 2675 
Q 78 2684 78 2700 
Q 78 2731 92 2748 
Q 106 2766 181 2828 
Q 397 3006 492 3117 
Q 588 3228 941 3703 
Q 981 3703 989 3697 
Q 997 3691 997 3650 
L 997 2881 
L 1628 2881 
z
" transform="scale(0.015625)"/>
       <path id="Times-Roman-61" d="M 1834 1731 
Q 1475 1613 1241 1469 
Q 791 1191 791 838 
Q 791 553 978 419 
Q 1100 331 1250 331 
Q 1456 331 1645 447 
Q 1834 563 1834 741 
L 1834 1731 
z
M 234 622 
Q 234 1075 688 1378 
Q 975 1566 1834 1888 
L 1834 2153 
Q 1834 2472 1772 2597 
Q 1666 2806 1331 2806 
Q 1172 2806 1028 2725 
Q 884 2641 884 2494 
Q 884 2456 900 2367 
Q 916 2278 916 2253 
Q 916 2078 800 2009 
Q 734 1969 644 1969 
Q 503 1969 428 2061 
Q 353 2153 353 2266 
Q 353 2484 623 2723 
Q 894 2963 1416 2963 
Q 2022 2963 2238 2569 
Q 2353 2353 2353 1941 
L 2353 688 
Q 2353 506 2378 438 
Q 2419 316 2547 316 
Q 2619 316 2666 337 
Q 2713 359 2828 444 
L 2828 281 
Q 2728 159 2613 81 
Q 2438 -38 2256 -38 
Q 2044 -38 1948 100 
Q 1853 238 1844 428 
Q 1606 222 1438 122 
Q 1153 -47 897 -47 
Q 628 -47 431 142 
Q 234 331 234 622 
z
M 1425 2963 
L 1425 2963 
z
" transform="scale(0.015625)"/>
       <path id="Times-Roman-63" d="M 1591 2947 
Q 1981 2947 2264 2745 
Q 2547 2544 2547 2303 
Q 2547 2200 2475 2111 
Q 2403 2022 2253 2022 
Q 2144 2022 2061 2097 
Q 1978 2172 1941 2316 
L 1903 2466 
Q 1863 2631 1763 2700 
Q 1659 2766 1491 2766 
Q 1134 2766 889 2455 
Q 644 2144 644 1628 
Q 644 1156 914 781 
Q 1184 406 1644 406 
Q 1969 406 2222 619 
Q 2366 741 2547 1006 
L 2634 953 
Q 2456 578 2259 359 
Q 1881 -59 1384 -59 
Q 897 -59 522 325 
Q 147 709 147 1369 
Q 147 2016 556 2481 
Q 966 2947 1591 2947 
z
M 1453 2947 
L 1453 2947 
z
" transform="scale(0.015625)"/>
       <path id="Times-Roman-65" d="M 1466 2931 
Q 1906 2931 2237 2626 
Q 2569 2322 2569 1763 
L 584 1763 
Q 616 1038 912 706 
Q 1209 375 1616 375 
Q 1944 375 2169 547 
Q 2394 719 2584 1034 
L 2694 997 
Q 2566 600 2214 262 
Q 1863 -75 1353 -75 
Q 766 -75 445 369 
Q 125 813 125 1391 
Q 125 2019 497 2475 
Q 869 2931 1466 2931 
z
M 1284 2703 
Q 928 2703 741 2388 
Q 641 2219 597 1963 
L 1916 1963 
Q 1881 2275 1797 2428 
Q 1644 2703 1284 2703 
z
M 1425 2931 
L 1425 2931 
z
" transform="scale(0.015625)"/>
      </defs>
      <use xlink:href="#Times-Roman-69"/>
      <use xlink:href="#Times-Roman-6e" x="27.783203"/>
      <use xlink:href="#Times-Roman-73" x="77.783203"/>
      <use xlink:href="#Times-Roman-74" x="116.699219"/>
      <use xlink:href="#Times-Roman-61" x="144.482422"/>
      <use xlink:href="#Times-Roman-6e" x="188.867188"/>
      <use xlink:href="#Times-Roman-63" x="238.867188"/>
      <use xlink:href="#Times-Roman-65" x="283.251953"/>
      <use xlink:href="#Times-Roman-73" x="327.636719"/>
     </g>
    </g>
   </g>
   <g id="matplotlib.axis_2">
    <g id="ytick_1">
     <g id="line2d_15">
      <path d="M 59.481875 288.400597 
L 573.807778 288.400597 
" clip-path="url(#p36d0288e95)" style="fill: none; stroke-dasharray: 1,1.65; stroke-dashoffset: 0; stroke: #000000"/>
     </g>
     <g id="line2d_16">
      <defs>
       <path id="m5402305710" d="M 0 0 
L -3.5 0 
" style="stroke: #000000; stroke-width: 0.8"/>
      </defs>
      <g>
       <use xlink:href="#m5402305710" x="59.481875" y="288.400597" style="stroke: #000000; stroke-width: 0.8"/>
      </g>
     </g>
     <g id="text_9">
      <!-- $\mathdefault{10^{0}}$ -->
      <g transform="translate(27.461875 294.571222) scale(0.18 -0.18)">
       <use xlink:href="#Times-Roman-31" transform="translate(0 0.55625)"/>
       <use xlink:href="#Times-Roman-30" transform="translate(50 0.55625)"/>
       <use xlink:href="#Times-Roman-30" transform="translate(100.785313 31.96875) scale(0.7)"/>
      </g>
     </g>
    </g>
    <g id="ytick_2">
     <g id="line2d_17">
      <path d="M 59.481875 209.191224 
L 573.807778 209.191224 
" clip-path="url(#p36d0288e95)" style="fill: none; stroke-dasharray: 1,1.65; stroke-dashoffset: 0; stroke: #000000"/>
     </g>
     <g id="line2d_18">
      <g>
       <use xlink:href="#m5402305710" x="59.481875" y="209.191224" style="stroke: #000000; stroke-width: 0.8"/>
      </g>
     </g>
     <g id="text_10">
      <!-- $\mathdefault{10^{1}}$ -->
      <g transform="translate(27.461875 215.361849) scale(0.18 -0.18)">
       <use xlink:href="#Times-Roman-31" transform="translate(0 0.621875)"/>
       <use xlink:href="#Times-Roman-30" transform="translate(50 0.621875)"/>
       <use xlink:href="#Times-Roman-31" transform="translate(100.785313 32.034375) scale(0.7)"/>
      </g>
     </g>
    </g>
    <g id="ytick_3">
     <g id="line2d_19">
      <path d="M 59.481875 129.981851 
L 573.807778 129.981851 
" clip-path="url(#p36d0288e95)" style="fill: none; stroke-dasharray: 1,1.65; stroke-dashoffset: 0; stroke: #000000"/>
     </g>
     <g id="line2d_20">
      <g>
       <use xlink:href="#m5402305710" x="59.481875" y="129.981851" style="stroke: #000000; stroke-width: 0.8"/>
      </g>
     </g>
     <g id="text_11">
      <!-- $\mathdefault{10^{2}}$ -->
      <g transform="translate(27.461875 136.152476) scale(0.18 -0.18)">
       <use xlink:href="#Times-Roman-31" transform="translate(0 0.414062)"/>
       <use xlink:href="#Times-Roman-30" transform="translate(50 0.414062)"/>
       <use xlink:href="#Times-Roman-32" transform="translate(100.785313 31.826562) scale(0.7)"/>
      </g>
     </g>
    </g>
    <g id="ytick_4">
     <g id="line2d_21">
      <path d="M 59.481875 50.772479 
L 573.807778 50.772479 
" clip-path="url(#p36d0288e95)" style="fill: none; stroke-dasharray: 1,1.65; stroke-dashoffset: 0; stroke: #000000"/>
     </g>
     <g id="line2d_22">
      <g>
       <use xlink:href="#m5402305710" x="59.481875" y="50.772479" style="stroke: #000000; stroke-width: 0.8"/>
      </g>
     </g>
     <g id="text_12">
      <!-- $\mathdefault{10^{3}}$ -->
      <g transform="translate(27.461875 56.943104) scale(0.18 -0.18)">
       <use xlink:href="#Times-Roman-31" transform="translate(0 0.217188)"/>
       <use xlink:href="#Times-Roman-30" transform="translate(50 0.217188)"/>
       <use xlink:href="#Times-Roman-33" transform="translate(100.785313 31.629688) scale(0.7)"/>
      </g>
     </g>
    </g>
    <g id="ytick_5">
     <g id="line2d_23">
      <defs>
       <path id="mea61ba7fd5" d="M 0 0 
L -2 0 
" style="stroke: #000000; stroke-width: 0.6"/>
      </defs>
      <g>
       <use xlink:href="#mea61ba7fd5" x="59.481875" y="319.921175" style="stroke: #000000; stroke-width: 0.6"/>
      </g>
     </g>
    </g>
    <g id="ytick_6">
     <g id="line2d_24">
      <g>
       <use xlink:href="#mea61ba7fd5" x="59.481875" y="312.244994" style="stroke: #000000; stroke-width: 0.6"/>
      </g>
     </g>
    </g>
    <g id="ytick_7">
     <g id="line2d_25">
      <g>
       <use xlink:href="#mea61ba7fd5" x="59.481875" y="305.973097" style="stroke: #000000; stroke-width: 0.6"/>
      </g>
     </g>
    </g>
    <g id="ytick_8">
     <g id="line2d_26">
      <g>
       <use xlink:href="#mea61ba7fd5" x="59.481875" y="300.670284" style="stroke: #000000; stroke-width: 0.6"/>
      </g>
     </g>
    </g>
    <g id="ytick_9">
     <g id="line2d_27">
      <g>
       <use xlink:href="#mea61ba7fd5" x="59.481875" y="296.076778" style="stroke: #000000; stroke-width: 0.6"/>
      </g>
     </g>
    </g>
    <g id="ytick_10">
     <g id="line2d_28">
      <g>
       <use xlink:href="#mea61ba7fd5" x="59.481875" y="292.025019" style="stroke: #000000; stroke-width: 0.6"/>
      </g>
     </g>
    </g>
    <g id="ytick_11">
     <g id="line2d_29">
      <g>
       <use xlink:href="#mea61ba7fd5" x="59.481875" y="264.5562" style="stroke: #000000; stroke-width: 0.6"/>
      </g>
     </g>
    </g>
    <g id="ytick_12">
     <g id="line2d_30">
      <g>
       <use xlink:href="#mea61ba7fd5" x="59.481875" y="250.608122" style="stroke: #000000; stroke-width: 0.6"/>
      </g>
     </g>
    </g>
    <g id="ytick_13">
     <g id="line2d_31">
      <g>
       <use xlink:href="#mea61ba7fd5" x="59.481875" y="240.711803" style="stroke: #000000; stroke-width: 0.6"/>
      </g>
     </g>
    </g>
    <g id="ytick_14">
     <g id="line2d_32">
      <g>
       <use xlink:href="#mea61ba7fd5" x="59.481875" y="233.035621" style="stroke: #000000; stroke-width: 0.6"/>
      </g>
     </g>
    </g>
    <g id="ytick_15">
     <g id="line2d_33">
      <g>
       <use xlink:href="#mea61ba7fd5" x="59.481875" y="226.763724" style="stroke: #000000; stroke-width: 0.6"/>
      </g>
     </g>
    </g>
    <g id="ytick_16">
     <g id="line2d_34">
      <g>
       <use xlink:href="#mea61ba7fd5" x="59.481875" y="221.460911" style="stroke: #000000; stroke-width: 0.6"/>
      </g>
     </g>
    </g>
    <g id="ytick_17">
     <g id="line2d_35">
      <g>
       <use xlink:href="#mea61ba7fd5" x="59.481875" y="216.867406" style="stroke: #000000; stroke-width: 0.6"/>
      </g>
     </g>
    </g>
    <g id="ytick_18">
     <g id="line2d_36">
      <g>
       <use xlink:href="#mea61ba7fd5" x="59.481875" y="212.815646" style="stroke: #000000; stroke-width: 0.6"/>
      </g>
     </g>
    </g>
    <g id="ytick_19">
     <g id="line2d_37">
      <g>
       <use xlink:href="#mea61ba7fd5" x="59.481875" y="185.346827" style="stroke: #000000; stroke-width: 0.6"/>
      </g>
     </g>
    </g>
    <g id="ytick_20">
     <g id="line2d_38">
      <g>
       <use xlink:href="#mea61ba7fd5" x="59.481875" y="171.398749" style="stroke: #000000; stroke-width: 0.6"/>
      </g>
     </g>
    </g>
    <g id="ytick_21">
     <g id="line2d_39">
      <g>
       <use xlink:href="#mea61ba7fd5" x="59.481875" y="161.50243" style="stroke: #000000; stroke-width: 0.6"/>
      </g>
     </g>
    </g>
    <g id="ytick_22">
     <g id="line2d_40">
      <g>
       <use xlink:href="#mea61ba7fd5" x="59.481875" y="153.826249" style="stroke: #000000; stroke-width: 0.6"/>
      </g>
     </g>
    </g>
    <g id="ytick_23">
     <g id="line2d_41">
      <g>
       <use xlink:href="#mea61ba7fd5" x="59.481875" y="147.554352" style="stroke: #000000; stroke-width: 0.6"/>
      </g>
     </g>
    </g>
    <g id="ytick_24">
     <g id="line2d_42">
      <g>
       <use xlink:href="#mea61ba7fd5" x="59.481875" y="142.251539" style="stroke: #000000; stroke-width: 0.6"/>
      </g>
     </g>
    </g>
    <g id="ytick_25">
     <g id="line2d_43">
      <g>
       <use xlink:href="#mea61ba7fd5" x="59.481875" y="137.658033" style="stroke: #000000; stroke-width: 0.6"/>
      </g>
     </g>
    </g>
    <g id="ytick_26">
     <g id="line2d_44">
      <g>
       <use xlink:href="#mea61ba7fd5" x="59.481875" y="133.606274" style="stroke: #000000; stroke-width: 0.6"/>
      </g>
     </g>
    </g>
    <g id="ytick_27">
     <g id="line2d_45">
      <g>
       <use xlink:href="#mea61ba7fd5" x="59.481875" y="106.137454" style="stroke: #000000; stroke-width: 0.6"/>
      </g>
     </g>
    </g>
    <g id="ytick_28">
     <g id="line2d_46">
      <g>
       <use xlink:href="#mea61ba7fd5" x="59.481875" y="92.189376" style="stroke: #000000; stroke-width: 0.6"/>
      </g>
     </g>
    </g>
    <g id="ytick_29">
     <g id="line2d_47">
      <g>
       <use xlink:href="#mea61ba7fd5" x="59.481875" y="82.293057" style="stroke: #000000; stroke-width: 0.6"/>
      </g>
     </g>
    </g>
    <g id="ytick_30">
     <g id="line2d_48">
      <g>
       <use xlink:href="#mea61ba7fd5" x="59.481875" y="74.616876" style="stroke: #000000; stroke-width: 0.6"/>
      </g>
     </g>
    </g>
    <g id="ytick_31">
     <g id="line2d_49">
      <g>
       <use xlink:href="#mea61ba7fd5" x="59.481875" y="68.344979" style="stroke: #000000; stroke-width: 0.6"/>
      </g>
     </g>
    </g>
    <g id="ytick_32">
     <g id="line2d_50">
      <g>
       <use xlink:href="#mea61ba7fd5" x="59.481875" y="63.042166" style="stroke: #000000; stroke-width: 0.6"/>
      </g>
     </g>
    </g>
    <g id="ytick_33">
     <g id="line2d_51">
      <g>
       <use xlink:href="#mea61ba7fd5" x="59.481875" y="58.44866" style="stroke: #000000; stroke-width: 0.6"/>
      </g>
     </g>
    </g>
    <g id="ytick_34">
     <g id="line2d_52">
      <g>
       <use xlink:href="#mea61ba7fd5" x="59.481875" y="54.396901" style="stroke: #000000; stroke-width: 0.6"/>
      </g>
     </g>
    </g>
    <g id="ytick_35">
     <g id="line2d_53">
      <g>
       <use xlink:href="#mea61ba7fd5" x="59.481875" y="26.928082" style="stroke: #000000; stroke-width: 0.6"/>
      </g>
     </g>
    </g>
    <g id="ytick_36">
     <g id="line2d_54">
      <g>
       <use xlink:href="#mea61ba7fd5" x="59.481875" y="12.980004" style="stroke: #000000; stroke-width: 0.6"/>
      </g>
     </g>
    </g>
    <g id="text_13">
     <!-- CPU time (s) -->
     <g transform="translate(19.54125 212.610367) rotate(-90) scale(0.18 -0.18)">
      <defs>
       <path id="Times-Roman-43" d="M 2369 4309 
Q 2716 4309 3081 4206 
Q 3447 4103 3491 4103 
Q 3581 4103 3662 4153 
Q 3744 4203 3775 4309 
L 3909 4309 
L 3969 2872 
L 3822 2872 
Q 3694 3300 3488 3563 
Q 3094 4056 2428 4056 
Q 1756 4056 1329 3525 
Q 903 2994 903 2063 
Q 903 1206 1351 695 
Q 1800 184 2488 184 
Q 2984 184 3403 422 
Q 3644 556 3931 828 
L 4050 709 
Q 3838 441 3522 238 
Q 2984 -106 2356 -106 
Q 1325 -106 719 553 
Q 159 1163 159 2075 
Q 159 3009 750 3644 
Q 1372 4309 2369 4309 
z
M 2347 4309 
Q 2347 4309 2347 4309 
z
" transform="scale(0.015625)"/>
       <path id="Times-Roman-50" d="M 2769 3072 
Q 2769 3659 2263 3878 
Q 1991 3997 1575 3997 
Q 1378 3997 1333 3958 
Q 1288 3919 1288 3784 
L 1288 2116 
Q 1459 2100 1512 2097 
Q 1566 2094 1616 2094 
Q 2056 2094 2309 2219 
Q 2769 2447 2769 3072 
z
M 103 116 
Q 469 150 559 261 
Q 650 372 650 769 
L 650 3541 
Q 650 3875 548 3981 
Q 447 4088 103 4116 
L 103 4234 
L 1791 4234 
Q 2603 4234 3034 3918 
Q 3466 3603 3466 3088 
Q 3466 2434 2987 2140 
Q 2509 1847 1791 1847 
Q 1688 1847 1527 1851 
Q 1366 1856 1288 1856 
L 1288 694 
Q 1288 331 1398 237 
Q 1509 144 1894 116 
L 1894 0 
L 103 0 
L 103 116 
z
" transform="scale(0.015625)"/>
       <path id="Times-Roman-55" d="M 1903 4234 
L 1903 4116 
Q 1534 4091 1425 3992 
Q 1316 3894 1316 3541 
L 1316 1494 
Q 1316 991 1453 709 
Q 1709 197 2425 197 
Q 3209 197 3478 722 
Q 3628 1016 3628 1628 
L 3628 3294 
Q 3628 3816 3503 3948 
Q 3378 4081 3028 4116 
L 3028 4234 
L 4509 4234 
L 4509 4116 
Q 4138 4075 4023 3936 
Q 3909 3797 3909 3294 
L 3909 1628 
Q 3909 966 3706 594 
Q 3331 -91 2281 -91 
Q 1244 -91 869 584 
Q 666 947 666 1541 
L 666 3541 
Q 666 3891 558 3989 
Q 450 4088 88 4116 
L 88 4234 
L 1903 4234 
z
M 2316 4234 
L 2316 4234 
z
" transform="scale(0.015625)"/>
       <path id="Times-Roman-20" transform="scale(0.015625)"/>
       <path id="Times-Roman-6d" d="M 103 81 
Q 347 103 428 163 
Q 553 253 553 525 
L 553 2141 
Q 553 2372 492 2444 
Q 431 2516 291 2516 
Q 225 2516 192 2509 
Q 159 2503 116 2488 
L 116 2597 
L 341 2672 
Q 463 2713 741 2819 
Q 1019 2925 1034 2925 
Q 1050 2925 1053 2909 
Q 1056 2894 1056 2850 
L 1056 2428 
Q 1366 2709 1591 2817 
Q 1816 2925 2053 2925 
Q 2375 2925 2566 2706 
Q 2666 2588 2731 2384 
Q 2963 2619 3134 2731 
Q 3431 2925 3741 2925 
Q 4244 2925 4413 2516 
Q 4509 2284 4509 1784 
L 4509 488 
Q 4509 266 4607 186 
Q 4706 106 4963 81 
L 4963 0 
L 3553 0 
L 3553 88 
Q 3825 113 3911 197 
Q 3997 281 3997 541 
L 3997 1888 
Q 3997 2191 3931 2334 
Q 3816 2591 3478 2591 
Q 3275 2591 3075 2456 
Q 2959 2378 2791 2206 
L 2791 606 
Q 2791 353 2880 222 
Q 2969 91 3256 81 
L 3256 0 
L 1822 0 
L 1822 81 
Q 2119 119 2200 225 
Q 2281 331 2281 747 
L 2281 1622 
Q 2281 2103 2219 2284 
Q 2116 2591 1781 2591 
Q 1591 2591 1406 2486 
Q 1222 2381 1081 2213 
L 1081 503 
Q 1081 266 1164 175 
Q 1247 84 1525 81 
L 1525 0 
L 103 0 
L 103 81 
z
" transform="scale(0.015625)"/>
       <path id="Times-Roman-28" d="M 294 1606 
Q 294 2694 944 3516 
Q 1344 4019 1888 4325 
L 1947 4222 
Q 1444 3822 1228 3444 
Q 850 2784 850 1688 
Q 850 875 994 347 
Q 1247 -578 1947 -1038 
L 1866 -1141 
Q 1481 -956 1034 -419 
Q 294 472 294 1606 
z
" transform="scale(0.015625)"/>
       <path id="Times-Roman-29" d="M 1822 1575 
Q 1822 1109 1700 693 
Q 1578 278 1344 -91 
Q 1097 -484 684 -825 
Q 413 -1050 228 -1141 
L 169 -1038 
Q 650 -672 872 -291 
Q 1266 384 1266 1494 
Q 1266 2391 1084 2959 
Q 831 3763 169 4222 
L 250 4325 
Q 744 4050 1169 3494 
Q 1822 2638 1822 1575 
z
" transform="scale(0.015625)"/>
      </defs>
      <use xlink:href="#Times-Roman-43"/>
      <use xlink:href="#Times-Roman-50" x="66.699219"/>
      <use xlink:href="#Times-Roman-55" x="122.314453"/>
      <use xlink:href="#Times-Roman-20" x="194.53125"/>
      <use xlink:href="#Times-Roman-74" x="219.53125"/>
      <use xlink:href="#Times-Roman-69" x="247.314453"/>
      <use xlink:href="#Times-Roman-6d" x="275.097656"/>
      <use xlink:href="#Times-Roman-65" x="352.880859"/>
      <use xlink:href="#Times-Roman-20" x="397.265625"/>
      <use xlink:href="#Times-Roman-28" x="422.265625"/>
      <use xlink:href="#Times-Roman-73" x="455.566406"/>
      <use xlink:href="#Times-Roman-29" x="494.482422"/>
     </g>
    </g>
   </g>
   <g id="patch_3">
    <path d="M 59.481875 323.020109 
L 59.481875 7.2 
" style="fill: none; stroke: #000000; stroke-linejoin: miter; stroke-linecap: square"/>
   </g>
   <g id="patch_4">
    <path d="M 573.807778 323.020109 
L 573.807778 7.2 
" style="fill: none; stroke: #000000; stroke-linejoin: miter; stroke-linecap: square"/>
   </g>
   <g id="patch_5">
    <path d="M 59.481875 323.020109 
L 573.807778 323.020109 
" style="fill: none; stroke: #000000; stroke-linejoin: miter; stroke-linecap: square"/>
   </g>
   <g id="patch_6">
    <path d="M 59.481875 7.2 
L 573.807778 7.2 
" style="fill: none; stroke: #000000; stroke-linejoin: miter; stroke-linecap: square"/>
   </g>
   <g id="line2d_55">
    <path d="M 68.053973 323.020109 
L 76.626072 290.244144 
L 85.19817 284.268852 
L 93.770269 279.351472 
L 102.342367 270.46475 
L 110.914465 270.422291 
L 119.486564 269.892692 
L 128.058662 267.054811 
L 136.63076 266.528189 
L 145.202859 255.745159 
L 153.774957 254.940696 
L 162.347056 249.778464 
L 170.919154 248.868144 
L 179.491252 242.176621 
L 188.063351 242.171164 
L 196.635449 241.160823 
L 205.207547 240.08365 
L 213.779646 239.358231 
L 222.351744 237.019487 
L 230.923843 234.646582 
L 239.495941 233.785713 
L 248.068039 227.539283 
L 256.640138 226.998357 
L 265.212236 226.572819 
L 273.784335 219.675032 
L 282.356433 216.568325 
L 290.928531 211.206226 
L 299.50063 208.752493 
L 308.072728 206.701237 
L 316.644826 191.791657 
L 325.216925 174.402468 
L 333.789023 170.156695 
L 342.361122 166.287623 
L 350.93322 160.017427 
L 359.505318 136.177692 
L 368.077417 131.579058 
L 376.649515 122.639635 
L 385.221613 114.407977 
L 393.793712 114.191304 
L 402.36581 100.124831 
L 410.937909 80.982402 
L 419.510007 46.882295 
L 428.082105 36.125701 
L 436.654204 23.693225 
" clip-path="url(#p36d0288e95)" style="fill: none; stroke: #008000; stroke-opacity: 0.7; stroke-width: 2; stroke-linecap: square"/>
   </g>
   <g id="line2d_56">
    <path d="M 68.053973 289.11651 
L 76.626072 287.795062 
L 85.19817 287.238459 
L 93.770269 284.997361 
L 102.342367 278.98777 
L 110.914465 271.517958 
L 119.486564 252.715432 
L 128.058662 250.304443 
L 136.63076 250.065657 
L 145.202859 249.733683 
L 153.774957 243.241017 
L 162.347056 221.700714 
L 170.919154 218.356933 
L 179.491252 213.898457 
L 188.063351 210.227748 
L 196.635449 202.604071 
L 205.207547 199.114014 
L 213.779646 192.342605 
L 222.351744 190.861005 
L 230.923843 190.648759 
L 239.495941 186.735354 
L 248.068039 186.288954 
L 256.640138 183.132737 
L 265.212236 183.1152 
L 273.784335 180.061076 
L 282.356433 177.170194 
L 290.928531 174.456654 
L 299.50063 173.00546 
L 308.072728 171.452243 
L 316.644826 167.164754 
L 325.216925 163.525667 
L 333.789023 154.17263 
L 342.361122 151.558696 
L 350.93322 144.542954 
L 359.505318 129.006649 
L 368.077417 128.839038 
L 376.649515 128.462423 
L 385.221613 127.365958 
L 393.793712 126.111015 
L 402.36581 108.879432 
L 410.937909 108.145097 
L 419.510007 105.212133 
L 428.082105 103.912052 
L 436.654204 96.407228 
L 445.226302 96.303911 
L 453.798401 88.464046 
L 462.370499 82.322229 
L 470.942597 77.105835 
L 479.514696 67.217288 
L 488.086794 66.59406 
L 496.658892 50.143974 
L 505.230991 19.027007 
" clip-path="url(#p36d0288e95)" style="fill: none; stroke-dasharray: 7.4,3.2; stroke-dashoffset: 0; stroke: #ff0000; stroke-opacity: 0.7; stroke-width: 2"/>
   </g>
   <g id="line2d_57">
    <path d="M 68.053973 320.57958 
L 76.626072 320.567943 
L 85.19817 316.304826 
L 93.770269 313.906952 
L 102.342367 313.661204 
L 110.914465 292.338455 
L 119.486564 282.04364 
L 128.058662 278.082054 
L 136.63076 274.887605 
L 145.202859 269.228119 
L 153.774957 265.750975 
L 162.347056 265.665677 
L 170.919154 264.034419 
L 179.491252 263.535984 
L 188.063351 260.48399 
L 196.635449 260.464952 
L 205.207547 259.115828 
L 213.779646 256.409521 
L 222.351744 240.446142 
L 230.923843 235.658045 
L 239.495941 229.328215 
L 248.068039 228.181281 
L 256.640138 224.844687 
L 265.212236 222.546878 
L 273.784335 218.689015 
L 282.356433 217.94852 
L 290.928531 216.08731 
L 299.50063 215.912027 
L 308.072728 212.926747 
L 316.644826 206.099701 
L 325.216925 196.004535 
L 333.789023 189.966911 
L 342.361122 182.595036 
L 350.93322 180.673753 
L 359.505318 180.073956 
L 368.077417 177.437269 
L 376.649515 164.01197 
L 385.221613 155.923022 
L 393.793712 154.749193 
L 402.36581 134.45656 
L 410.937909 127.316162 
L 419.510007 115.287926 
L 428.082105 112.273863 
L 436.654204 111.645584 
L 445.226302 106.933921 
L 453.798401 105.436322 
L 462.370499 95.41216 
L 470.942597 93.180143 
L 479.514696 79.245849 
L 488.086794 73.315998 
L 496.658892 46.909931 
L 505.230991 45.366129 
L 513.803089 35.532206 
L 522.375188 29.593245 
L 530.947286 7.688108 
" clip-path="url(#p36d0288e95)" style="fill: none; stroke: #0000ff; stroke-opacity: 0.7; stroke-linecap: square"/>
    <defs>
     <path id="m263b121439" d="M -2.5 2.5 
L 2.5 -2.5 
M -2.5 -2.5 
L 2.5 2.5 
" style="stroke: #0000ff; stroke-opacity: 0.7; stroke-width: 0.75"/>
    </defs>
    <g clip-path="url(#p36d0288e95)">
     <use xlink:href="#m263b121439" x="68.053973" y="320.57958" style="fill: #ffffff; fill-opacity: 0.7; stroke: #0000ff; stroke-opacity: 0.7; stroke-width: 0.75"/>
     <use xlink:href="#m263b121439" x="76.626072" y="320.567943" style="fill: #ffffff; fill-opacity: 0.7; stroke: #0000ff; stroke-opacity: 0.7; stroke-width: 0.75"/>
     <use xlink:href="#m263b121439" x="85.19817" y="316.304826" style="fill: #ffffff; fill-opacity: 0.7; stroke: #0000ff; stroke-opacity: 0.7; stroke-width: 0.75"/>
     <use xlink:href="#m263b121439" x="93.770269" y="313.906952" style="fill: #ffffff; fill-opacity: 0.7; stroke: #0000ff; stroke-opacity: 0.7; stroke-width: 0.75"/>
     <use xlink:href="#m263b121439" x="102.342367" y="313.661204" style="fill: #ffffff; fill-opacity: 0.7; stroke: #0000ff; stroke-opacity: 0.7; stroke-width: 0.75"/>
     <use xlink:href="#m263b121439" x="110.914465" y="292.338455" style="fill: #ffffff; fill-opacity: 0.7; stroke: #0000ff; stroke-opacity: 0.7; stroke-width: 0.75"/>
     <use xlink:href="#m263b121439" x="119.486564" y="282.04364" style="fill: #ffffff; fill-opacity: 0.7; stroke: #0000ff; stroke-opacity: 0.7; stroke-width: 0.75"/>
     <use xlink:href="#m263b121439" x="128.058662" y="278.082054" style="fill: #ffffff; fill-opacity: 0.7; stroke: #0000ff; stroke-opacity: 0.7; stroke-width: 0.75"/>
     <use xlink:href="#m263b121439" x="136.63076" y="274.887605" style="fill: #ffffff; fill-opacity: 0.7; stroke: #0000ff; stroke-opacity: 0.7; stroke-width: 0.75"/>
     <use xlink:href="#m263b121439" x="145.202859" y="269.228119" style="fill: #ffffff; fill-opacity: 0.7; stroke: #0000ff; stroke-opacity: 0.7; stroke-width: 0.75"/>
     <use xlink:href="#m263b121439" x="153.774957" y="265.750975" style="fill: #ffffff; fill-opacity: 0.7; stroke: #0000ff; stroke-opacity: 0.7; stroke-width: 0.75"/>
     <use xlink:href="#m263b121439" x="162.347056" y="265.665677" style="fill: #ffffff; fill-opacity: 0.7; stroke: #0000ff; stroke-opacity: 0.7; stroke-width: 0.75"/>
     <use xlink:href="#m263b121439" x="170.919154" y="264.034419" style="fill: #ffffff; fill-opacity: 0.7; stroke: #0000ff; stroke-opacity: 0.7; stroke-width: 0.75"/>
     <use xlink:href="#m263b121439" x="179.491252" y="263.535984" style="fill: #ffffff; fill-opacity: 0.7; stroke: #0000ff; stroke-opacity: 0.7; stroke-width: 0.75"/>
     <use xlink:href="#m263b121439" x="188.063351" y="260.48399" style="fill: #ffffff; fill-opacity: 0.7; stroke: #0000ff; stroke-opacity: 0.7; stroke-width: 0.75"/>
     <use xlink:href="#m263b121439" x="196.635449" y="260.464952" style="fill: #ffffff; fill-opacity: 0.7; stroke: #0000ff; stroke-opacity: 0.7; stroke-width: 0.75"/>
     <use xlink:href="#m263b121439" x="205.207547" y="259.115828" style="fill: #ffffff; fill-opacity: 0.7; stroke: #0000ff; stroke-opacity: 0.7; stroke-width: 0.75"/>
     <use xlink:href="#m263b121439" x="213.779646" y="256.409521" style="fill: #ffffff; fill-opacity: 0.7; stroke: #0000ff; stroke-opacity: 0.7; stroke-width: 0.75"/>
     <use xlink:href="#m263b121439" x="222.351744" y="240.446142" style="fill: #ffffff; fill-opacity: 0.7; stroke: #0000ff; stroke-opacity: 0.7; stroke-width: 0.75"/>
     <use xlink:href="#m263b121439" x="230.923843" y="235.658045" style="fill: #ffffff; fill-opacity: 0.7; stroke: #0000ff; stroke-opacity: 0.7; stroke-width: 0.75"/>
     <use xlink:href="#m263b121439" x="239.495941" y="229.328215" style="fill: #ffffff; fill-opacity: 0.7; stroke: #0000ff; stroke-opacity: 0.7; stroke-width: 0.75"/>
     <use xlink:href="#m263b121439" x="248.068039" y="228.181281" style="fill: #ffffff; fill-opacity: 0.7; stroke: #0000ff; stroke-opacity: 0.7; stroke-width: 0.75"/>
     <use xlink:href="#m263b121439" x="256.640138" y="224.844687" style="fill: #ffffff; fill-opacity: 0.7; stroke: #0000ff; stroke-opacity: 0.7; stroke-width: 0.75"/>
     <use xlink:href="#m263b121439" x="265.212236" y="222.546878" style="fill: #ffffff; fill-opacity: 0.7; stroke: #0000ff; stroke-opacity: 0.7; stroke-width: 0.75"/>
     <use xlink:href="#m263b121439" x="273.784335" y="218.689015" style="fill: #ffffff; fill-opacity: 0.7; stroke: #0000ff; stroke-opacity: 0.7; stroke-width: 0.75"/>
     <use xlink:href="#m263b121439" x="282.356433" y="217.94852" style="fill: #ffffff; fill-opacity: 0.7; stroke: #0000ff; stroke-opacity: 0.7; stroke-width: 0.75"/>
     <use xlink:href="#m263b121439" x="290.928531" y="216.08731" style="fill: #ffffff; fill-opacity: 0.7; stroke: #0000ff; stroke-opacity: 0.7; stroke-width: 0.75"/>
     <use xlink:href="#m263b121439" x="299.50063" y="215.912027" style="fill: #ffffff; fill-opacity: 0.7; stroke: #0000ff; stroke-opacity: 0.7; stroke-width: 0.75"/>
     <use xlink:href="#m263b121439" x="308.072728" y="212.926747" style="fill: #ffffff; fill-opacity: 0.7; stroke: #0000ff; stroke-opacity: 0.7; stroke-width: 0.75"/>
     <use xlink:href="#m263b121439" x="316.644826" y="206.099701" style="fill: #ffffff; fill-opacity: 0.7; stroke: #0000ff; stroke-opacity: 0.7; stroke-width: 0.75"/>
     <use xlink:href="#m263b121439" x="325.216925" y="196.004535" style="fill: #ffffff; fill-opacity: 0.7; stroke: #0000ff; stroke-opacity: 0.7; stroke-width: 0.75"/>
     <use xlink:href="#m263b121439" x="333.789023" y="189.966911" style="fill: #ffffff; fill-opacity: 0.7; stroke: #0000ff; stroke-opacity: 0.7; stroke-width: 0.75"/>
     <use xlink:href="#m263b121439" x="342.361122" y="182.595036" style="fill: #ffffff; fill-opacity: 0.7; stroke: #0000ff; stroke-opacity: 0.7; stroke-width: 0.75"/>
     <use xlink:href="#m263b121439" x="350.93322" y="180.673753" style="fill: #ffffff; fill-opacity: 0.7; stroke: #0000ff; stroke-opacity: 0.7; stroke-width: 0.75"/>
     <use xlink:href="#m263b121439" x="359.505318" y="180.073956" style="fill: #ffffff; fill-opacity: 0.7; stroke: #0000ff; stroke-opacity: 0.7; stroke-width: 0.75"/>
     <use xlink:href="#m263b121439" x="368.077417" y="177.437269" style="fill: #ffffff; fill-opacity: 0.7; stroke: #0000ff; stroke-opacity: 0.7; stroke-width: 0.75"/>
     <use xlink:href="#m263b121439" x="376.649515" y="164.01197" style="fill: #ffffff; fill-opacity: 0.7; stroke: #0000ff; stroke-opacity: 0.7; stroke-width: 0.75"/>
     <use xlink:href="#m263b121439" x="385.221613" y="155.923022" style="fill: #ffffff; fill-opacity: 0.7; stroke: #0000ff; stroke-opacity: 0.7; stroke-width: 0.75"/>
     <use xlink:href="#m263b121439" x="393.793712" y="154.749193" style="fill: #ffffff; fill-opacity: 0.7; stroke: #0000ff; stroke-opacity: 0.7; stroke-width: 0.75"/>
     <use xlink:href="#m263b121439" x="402.36581" y="134.45656" style="fill: #ffffff; fill-opacity: 0.7; stroke: #0000ff; stroke-opacity: 0.7; stroke-width: 0.75"/>
     <use xlink:href="#m263b121439" x="410.937909" y="127.316162" style="fill: #ffffff; fill-opacity: 0.7; stroke: #0000ff; stroke-opacity: 0.7; stroke-width: 0.75"/>
     <use xlink:href="#m263b121439" x="419.510007" y="115.287926" style="fill: #ffffff; fill-opacity: 0.7; stroke: #0000ff; stroke-opacity: 0.7; stroke-width: 0.75"/>
     <use xlink:href="#m263b121439" x="428.082105" y="112.273863" style="fill: #ffffff; fill-opacity: 0.7; stroke: #0000ff; stroke-opacity: 0.7; stroke-width: 0.75"/>
     <use xlink:href="#m263b121439" x="436.654204" y="111.645584" style="fill: #ffffff; fill-opacity: 0.7; stroke: #0000ff; stroke-opacity: 0.7; stroke-width: 0.75"/>
     <use xlink:href="#m263b121439" x="445.226302" y="106.933921" style="fill: #ffffff; fill-opacity: 0.7; stroke: #0000ff; stroke-opacity: 0.7; stroke-width: 0.75"/>
     <use xlink:href="#m263b121439" x="453.798401" y="105.436322" style="fill: #ffffff; fill-opacity: 0.7; stroke: #0000ff; stroke-opacity: 0.7; stroke-width: 0.75"/>
     <use xlink:href="#m263b121439" x="462.370499" y="95.41216" style="fill: #ffffff; fill-opacity: 0.7; stroke: #0000ff; stroke-opacity: 0.7; stroke-width: 0.75"/>
     <use xlink:href="#m263b121439" x="470.942597" y="93.180143" style="fill: #ffffff; fill-opacity: 0.7; stroke: #0000ff; stroke-opacity: 0.7; stroke-width: 0.75"/>
     <use xlink:href="#m263b121439" x="479.514696" y="79.245849" style="fill: #ffffff; fill-opacity: 0.7; stroke: #0000ff; stroke-opacity: 0.7; stroke-width: 0.75"/>
     <use xlink:href="#m263b121439" x="488.086794" y="73.315998" style="fill: #ffffff; fill-opacity: 0.7; stroke: #0000ff; stroke-opacity: 0.7; stroke-width: 0.75"/>
     <use xlink:href="#m263b121439" x="496.658892" y="46.909931" style="fill: #ffffff; fill-opacity: 0.7; stroke: #0000ff; stroke-opacity: 0.7; stroke-width: 0.75"/>
     <use xlink:href="#m263b121439" x="505.230991" y="45.366129" style="fill: #ffffff; fill-opacity: 0.7; stroke: #0000ff; stroke-opacity: 0.7; stroke-width: 0.75"/>
     <use xlink:href="#m263b121439" x="513.803089" y="35.532206" style="fill: #ffffff; fill-opacity: 0.7; stroke: #0000ff; stroke-opacity: 0.7; stroke-width: 0.75"/>
     <use xlink:href="#m263b121439" x="522.375188" y="29.593245" style="fill: #ffffff; fill-opacity: 0.7; stroke: #0000ff; stroke-opacity: 0.7; stroke-width: 0.75"/>
     <use xlink:href="#m263b121439" x="530.947286" y="7.688108" style="fill: #ffffff; fill-opacity: 0.7; stroke: #0000ff; stroke-opacity: 0.7; stroke-width: 0.75"/>
    </g>
   </g>
   <g id="line2d_58">
    <path d="M 68.053973 311.31135 
L 76.626072 275.947009 
L 85.19817 248.065918 
L 93.770269 245.832963 
L 102.342367 238.681898 
L 110.914465 215.070782 
L 119.486564 211.865244 
L 128.058662 211.562064 
L 136.63076 209.920111 
L 145.202859 208.189191 
L 153.774957 204.924552 
L 162.347056 192.903032 
L 170.919154 184.755634 
L 179.491252 181.32736 
L 188.063351 177.440503 
L 196.635449 176.87163 
L 205.207547 166.508131 
L 213.779646 164.217181 
L 222.351744 151.715436 
L 230.923843 150.5281 
L 239.495941 147.036377 
L 248.068039 141.905861 
L 256.640138 140.77942 
L 265.212236 139.033302 
L 273.784335 134.324024 
L 282.356433 133.949631 
L 290.928531 125.557098 
L 299.50063 119.132158 
L 308.072728 99.711332 
L 316.644826 93.776448 
L 325.216925 92.048517 
L 333.789023 88.630662 
L 342.361122 84.778505 
L 350.93322 84.458617 
L 359.505318 82.292279 
L 368.077417 76.682068 
L 376.649515 73.214458 
L 385.221613 45.971621 
L 393.793712 40.886548 
L 402.36581 39.676311 
L 410.937909 18.799697 
L 419.510007 9.774284 
" clip-path="url(#p36d0288e95)" style="fill: none; stroke: #a52a2a; stroke-opacity: 0.7; stroke-linecap: square"/>
    <defs>
     <path id="m53c31e9b79" d="M -2.5 0 
L 2.5 0 
M 0 2.5 
L 0 -2.5 
" style="stroke: #a52a2a; stroke-opacity: 0.7; stroke-width: 0.75"/>
    </defs>
    <g clip-path="url(#p36d0288e95)">
     <use xlink:href="#m53c31e9b79" x="68.053973" y="311.31135" style="fill: #ffffff; fill-opacity: 0.7; stroke: #a52a2a; stroke-opacity: 0.7; stroke-width: 0.75"/>
     <use xlink:href="#m53c31e9b79" x="76.626072" y="275.947009" style="fill: #ffffff; fill-opacity: 0.7; stroke: #a52a2a; stroke-opacity: 0.7; stroke-width: 0.75"/>
     <use xlink:href="#m53c31e9b79" x="85.19817" y="248.065918" style="fill: #ffffff; fill-opacity: 0.7; stroke: #a52a2a; stroke-opacity: 0.7; stroke-width: 0.75"/>
     <use xlink:href="#m53c31e9b79" x="93.770269" y="245.832963" style="fill: #ffffff; fill-opacity: 0.7; stroke: #a52a2a; stroke-opacity: 0.7; stroke-width: 0.75"/>
     <use xlink:href="#m53c31e9b79" x="102.342367" y="238.681898" style="fill: #ffffff; fill-opacity: 0.7; stroke: #a52a2a; stroke-opacity: 0.7; stroke-width: 0.75"/>
     <use xlink:href="#m53c31e9b79" x="110.914465" y="215.070782" style="fill: #ffffff; fill-opacity: 0.7; stroke: #a52a2a; stroke-opacity: 0.7; stroke-width: 0.75"/>
     <use xlink:href="#m53c31e9b79" x="119.486564" y="211.865244" style="fill: #ffffff; fill-opacity: 0.7; stroke: #a52a2a; stroke-opacity: 0.7; stroke-width: 0.75"/>
     <use xlink:href="#m53c31e9b79" x="128.058662" y="211.562064" style="fill: #ffffff; fill-opacity: 0.7; stroke: #a52a2a; stroke-opacity: 0.7; stroke-width: 0.75"/>
     <use xlink:href="#m53c31e9b79" x="136.63076" y="209.920111" style="fill: #ffffff; fill-opacity: 0.7; stroke: #a52a2a; stroke-opacity: 0.7; stroke-width: 0.75"/>
     <use xlink:href="#m53c31e9b79" x="145.202859" y="208.189191" style="fill: #ffffff; fill-opacity: 0.7; stroke: #a52a2a; stroke-opacity: 0.7; stroke-width: 0.75"/>
     <use xlink:href="#m53c31e9b79" x="153.774957" y="204.924552" style="fill: #ffffff; fill-opacity: 0.7; stroke: #a52a2a; stroke-opacity: 0.7; stroke-width: 0.75"/>
     <use xlink:href="#m53c31e9b79" x="162.347056" y="192.903032" style="fill: #ffffff; fill-opacity: 0.7; stroke: #a52a2a; stroke-opacity: 0.7; stroke-width: 0.75"/>
     <use xlink:href="#m53c31e9b79" x="170.919154" y="184.755634" style="fill: #ffffff; fill-opacity: 0.7; stroke: #a52a2a; stroke-opacity: 0.7; stroke-width: 0.75"/>
     <use xlink:href="#m53c31e9b79" x="179.491252" y="181.32736" style="fill: #ffffff; fill-opacity: 0.7; stroke: #a52a2a; stroke-opacity: 0.7; stroke-width: 0.75"/>
     <use xlink:href="#m53c31e9b79" x="188.063351" y="177.440503" style="fill: #ffffff; fill-opacity: 0.7; stroke: #a52a2a; stroke-opacity: 0.7; stroke-width: 0.75"/>
     <use xlink:href="#m53c31e9b79" x="196.635449" y="176.87163" style="fill: #ffffff; fill-opacity: 0.7; stroke: #a52a2a; stroke-opacity: 0.7; stroke-width: 0.75"/>
     <use xlink:href="#m53c31e9b79" x="205.207547" y="166.508131" style="fill: #ffffff; fill-opacity: 0.7; stroke: #a52a2a; stroke-opacity: 0.7; stroke-width: 0.75"/>
     <use xlink:href="#m53c31e9b79" x="213.779646" y="164.217181" style="fill: #ffffff; fill-opacity: 0.7; stroke: #a52a2a; stroke-opacity: 0.7; stroke-width: 0.75"/>
     <use xlink:href="#m53c31e9b79" x="222.351744" y="151.715436" style="fill: #ffffff; fill-opacity: 0.7; stroke: #a52a2a; stroke-opacity: 0.7; stroke-width: 0.75"/>
     <use xlink:href="#m53c31e9b79" x="230.923843" y="150.5281" style="fill: #ffffff; fill-opacity: 0.7; stroke: #a52a2a; stroke-opacity: 0.7; stroke-width: 0.75"/>
     <use xlink:href="#m53c31e9b79" x="239.495941" y="147.036377" style="fill: #ffffff; fill-opacity: 0.7; stroke: #a52a2a; stroke-opacity: 0.7; stroke-width: 0.75"/>
     <use xlink:href="#m53c31e9b79" x="248.068039" y="141.905861" style="fill: #ffffff; fill-opacity: 0.7; stroke: #a52a2a; stroke-opacity: 0.7; stroke-width: 0.75"/>
     <use xlink:href="#m53c31e9b79" x="256.640138" y="140.77942" style="fill: #ffffff; fill-opacity: 0.7; stroke: #a52a2a; stroke-opacity: 0.7; stroke-width: 0.75"/>
     <use xlink:href="#m53c31e9b79" x="265.212236" y="139.033302" style="fill: #ffffff; fill-opacity: 0.7; stroke: #a52a2a; stroke-opacity: 0.7; stroke-width: 0.75"/>
     <use xlink:href="#m53c31e9b79" x="273.784335" y="134.324024" style="fill: #ffffff; fill-opacity: 0.7; stroke: #a52a2a; stroke-opacity: 0.7; stroke-width: 0.75"/>
     <use xlink:href="#m53c31e9b79" x="282.356433" y="133.949631" style="fill: #ffffff; fill-opacity: 0.7; stroke: #a52a2a; stroke-opacity: 0.7; stroke-width: 0.75"/>
     <use xlink:href="#m53c31e9b79" x="290.928531" y="125.557098" style="fill: #ffffff; fill-opacity: 0.7; stroke: #a52a2a; stroke-opacity: 0.7; stroke-width: 0.75"/>
     <use xlink:href="#m53c31e9b79" x="299.50063" y="119.132158" style="fill: #ffffff; fill-opacity: 0.7; stroke: #a52a2a; stroke-opacity: 0.7; stroke-width: 0.75"/>
     <use xlink:href="#m53c31e9b79" x="308.072728" y="99.711332" style="fill: #ffffff; fill-opacity: 0.7; stroke: #a52a2a; stroke-opacity: 0.7; stroke-width: 0.75"/>
     <use xlink:href="#m53c31e9b79" x="316.644826" y="93.776448" style="fill: #ffffff; fill-opacity: 0.7; stroke: #a52a2a; stroke-opacity: 0.7; stroke-width: 0.75"/>
     <use xlink:href="#m53c31e9b79" x="325.216925" y="92.048517" style="fill: #ffffff; fill-opacity: 0.7; stroke: #a52a2a; stroke-opacity: 0.7; stroke-width: 0.75"/>
     <use xlink:href="#m53c31e9b79" x="333.789023" y="88.630662" style="fill: #ffffff; fill-opacity: 0.7; stroke: #a52a2a; stroke-opacity: 0.7; stroke-width: 0.75"/>
     <use xlink:href="#m53c31e9b79" x="342.361122" y="84.778505" style="fill: #ffffff; fill-opacity: 0.7; stroke: #a52a2a; stroke-opacity: 0.7; stroke-width: 0.75"/>
     <use xlink:href="#m53c31e9b79" x="350.93322" y="84.458617" style="fill: #ffffff; fill-opacity: 0.7; stroke: #a52a2a; stroke-opacity: 0.7; stroke-width: 0.75"/>
     <use xlink:href="#m53c31e9b79" x="359.505318" y="82.292279" style="fill: #ffffff; fill-opacity: 0.7; stroke: #a52a2a; stroke-opacity: 0.7; stroke-width: 0.75"/>
     <use xlink:href="#m53c31e9b79" x="368.077417" y="76.682068" style="fill: #ffffff; fill-opacity: 0.7; stroke: #a52a2a; stroke-opacity: 0.7; stroke-width: 0.75"/>
     <use xlink:href="#m53c31e9b79" x="376.649515" y="73.214458" style="fill: #ffffff; fill-opacity: 0.7; stroke: #a52a2a; stroke-opacity: 0.7; stroke-width: 0.75"/>
     <use xlink:href="#m53c31e9b79" x="385.221613" y="45.971621" style="fill: #ffffff; fill-opacity: 0.7; stroke: #a52a2a; stroke-opacity: 0.7; stroke-width: 0.75"/>
     <use xlink:href="#m53c31e9b79" x="393.793712" y="40.886548" style="fill: #ffffff; fill-opacity: 0.7; stroke: #a52a2a; stroke-opacity: 0.7; stroke-width: 0.75"/>
     <use xlink:href="#m53c31e9b79" x="402.36581" y="39.676311" style="fill: #ffffff; fill-opacity: 0.7; stroke: #a52a2a; stroke-opacity: 0.7; stroke-width: 0.75"/>
     <use xlink:href="#m53c31e9b79" x="410.937909" y="18.799697" style="fill: #ffffff; fill-opacity: 0.7; stroke: #a52a2a; stroke-opacity: 0.7; stroke-width: 0.75"/>
     <use xlink:href="#m53c31e9b79" x="419.510007" y="9.774284" style="fill: #ffffff; fill-opacity: 0.7; stroke: #a52a2a; stroke-opacity: 0.7; stroke-width: 0.75"/>
    </g>
   </g>
   <g id="legend_1">
    <g id="patch_7">
     <path d="M 430.609653 316.020109 
L 563.207778 316.020109 
Q 566.807778 316.020109 566.807778 312.420109 
L 566.807778 212.137609 
Q 566.807778 208.537609 563.207778 208.537609 
L 430.609653 208.537609 
Q 427.009653 208.537609 427.009653 212.137609 
L 427.009653 312.420109 
Q 427.009653 316.020109 430.609653 316.020109 
z
" style="fill: #4c4c4c; opacity: 0.5; stroke: #4c4c4c; stroke-linejoin: miter"/>
    </g>
    <g id="patch_8">
     <path d="M 428.609653 314.020109 
L 561.207778 314.020109 
Q 564.807778 314.020109 564.807778 310.420109 
L 564.807778 210.137609 
Q 564.807778 206.537609 561.207778 206.537609 
L 428.609653 206.537609 
Q 425.009653 206.537609 425.009653 210.137609 
L 425.009653 310.420109 
Q 425.009653 314.020109 428.609653 314.020109 
z
" style="fill: #ffffff; stroke: #000000; stroke-linejoin: miter"/>
    </g>
    <g id="line2d_59">
     <path d="M 432.209653 220.037609 
L 450.209653 220.037609 
L 468.209653 220.037609 
" style="fill: none; stroke: #008000; stroke-opacity: 0.7; stroke-width: 2; stroke-linecap: square"/>
    </g>
    <g id="text_14">
     <!-- WC -->
     <g transform="translate(482.609653 226.337609) scale(0.18 -0.18)">
      <defs>
       <path id="Times-Roman-57" d="M 1597 4234 
L 1597 4116 
Q 1406 4109 1325 4081 
Q 1181 4028 1181 3888 
Q 1181 3825 1198 3765 
Q 1216 3706 1250 3613 
L 2175 1206 
L 2856 3013 
L 2553 3784 
Q 2469 3997 2300 4069 
Q 2200 4113 1997 4116 
L 1997 4234 
L 3709 4234 
L 3709 4116 
Q 3469 4113 3378 4081 
Q 3234 4028 3234 3863 
Q 3234 3806 3246 3764 
Q 3259 3722 3309 3591 
L 4234 1191 
L 5034 3363 
Q 5103 3547 5128 3691 
Q 5144 3772 5144 3822 
Q 5144 4000 4975 4069 
Q 4881 4109 4694 4116 
L 4694 4234 
L 5963 4234 
L 5963 4116 
Q 5791 4091 5700 4038 
Q 5538 3947 5456 3725 
L 4775 1822 
L 4509 1088 
L 4125 -75 
L 4028 -75 
L 3769 666 
L 3006 2634 
L 2022 -75 
L 1925 -75 
L 1466 1256 
L 916 2753 
Q 575 3678 442 3889 
Q 309 4100 28 4116 
L 28 4234 
L 1597 4234 
z
" transform="scale(0.015625)"/>
      </defs>
      <use xlink:href="#Times-Roman-57"/>
      <use xlink:href="#Times-Roman-43" x="94.384766"/>
     </g>
    </g>
    <g id="line2d_60">
     <path d="M 432.209653 245.558234 
L 450.209653 245.558234 
L 468.209653 245.558234 
" style="fill: none; stroke-dasharray: 7.4,3.2; stroke-dashoffset: 0; stroke: #ff0000; stroke-opacity: 0.7; stroke-width: 2"/>
    </g>
    <g id="text_15">
     <!-- Increasing -->
     <g transform="translate(482.609653 251.858234) scale(0.18 -0.18)">
      <defs>
       <path id="Times-Roman-49" d="M 103 116 
Q 494 144 609 233 
Q 725 322 725 694 
L 725 3541 
Q 725 3894 609 3995 
Q 494 4097 103 4116 
L 103 4234 
L 1997 4234 
L 1997 4116 
Q 1606 4097 1490 3995 
Q 1375 3894 1375 3541 
L 1375 694 
Q 1375 322 1490 233 
Q 1606 144 1997 116 
L 1997 0 
L 103 0 
L 103 116 
z
M 1050 4234 
L 1050 4234 
z
" transform="scale(0.015625)"/>
       <path id="Times-Roman-72" d="M 28 103 
Q 316 128 409 204 
Q 503 281 503 531 
L 503 1941 
Q 503 2250 445 2383 
Q 388 2516 234 2516 
Q 203 2516 151 2508 
Q 100 2500 44 2488 
L 44 2591 
Q 222 2653 409 2718 
Q 597 2784 669 2813 
Q 825 2872 991 2947 
Q 1013 2947 1017 2931 
Q 1022 2916 1022 2866 
L 1022 2353 
Q 1222 2631 1408 2787 
Q 1594 2944 1794 2944 
Q 1953 2944 2053 2848 
Q 2153 2753 2153 2609 
Q 2153 2481 2076 2393 
Q 2000 2306 1884 2306 
Q 1766 2306 1645 2415 
Q 1525 2525 1456 2525 
Q 1347 2525 1187 2348 
Q 1028 2172 1028 1984 
L 1028 575 
Q 1028 306 1153 201 
Q 1278 97 1569 103 
L 1569 0 
L 28 0 
L 28 103 
z
" transform="scale(0.015625)"/>
       <path id="Times-Roman-67" d="M 628 -578 
Q 628 -841 923 -941 
Q 1219 -1041 1600 -1041 
Q 2119 -1041 2444 -861 
Q 2769 -681 2769 -419 
Q 2769 -209 2506 -141 
Q 2344 -100 1891 -94 
Q 1775 -91 1647 -86 
Q 1519 -81 1413 -75 
Q 1344 -72 1191 -50 
Q 1038 -28 963 -13 
Q 925 -13 778 -209 
Q 628 -409 628 -578 
z
M 1034 1050 
Q 750 1144 592 1384 
Q 434 1625 434 1925 
Q 434 2291 725 2619 
Q 1016 2947 1547 2947 
Q 1775 2947 2050 2839 
Q 2325 2731 2578 2731 
Q 2644 2731 2776 2736 
Q 2909 2741 2969 2741 
L 3006 2741 
L 3006 2488 
L 2466 2488 
Q 2522 2356 2553 2259 
Q 2606 2078 2606 1916 
Q 2606 1559 2311 1261 
Q 2016 963 1516 963 
Q 1438 963 1234 991 
Q 1144 991 995 837 
Q 847 684 847 588 
Q 847 488 1066 441 
Q 1209 409 1384 409 
Q 2188 409 2475 319 
Q 2947 172 2947 -313 
Q 2947 -806 2395 -1100 
Q 1844 -1394 1281 -1394 
Q 769 -1394 469 -1186 
Q 169 -978 169 -750 
Q 169 -638 248 -530 
Q 328 -422 563 -209 
L 769 -25 
L 806 13 
Q 663 69 591 122 
Q 466 219 466 344 
Q 466 459 573 598 
Q 681 738 1034 1050 
z
M 1628 1113 
Q 1800 1113 1916 1206 
Q 2103 1356 2103 1728 
Q 2103 2025 1951 2397 
Q 1800 2769 1447 2769 
Q 1141 2769 1025 2478 
Q 966 2325 966 2100 
Q 966 1719 1150 1416 
Q 1334 1113 1628 1113 
z
M 1603 2947 
L 1603 2947 
z
" transform="scale(0.015625)"/>
      </defs>
      <use xlink:href="#Times-Roman-49"/>
      <use xlink:href="#Times-Roman-6e" x="33.300781"/>
      <use xlink:href="#Times-Roman-63" x="83.300781"/>
      <use xlink:href="#Times-Roman-72" x="127.685547"/>
      <use xlink:href="#Times-Roman-65" x="160.986328"/>
      <use xlink:href="#Times-Roman-61" x="205.371094"/>
      <use xlink:href="#Times-Roman-73" x="249.755859"/>
      <use xlink:href="#Times-Roman-69" x="288.671875"/>
      <use xlink:href="#Times-Roman-6e" x="316.455078"/>
      <use xlink:href="#Times-Roman-67" x="366.455078"/>
     </g>
    </g>
    <g id="line2d_61">
     <path d="M 432.209653 271.078859 
L 450.209653 271.078859 
L 468.209653 271.078859 
" style="fill: none; stroke: #0000ff; stroke-opacity: 0.7; stroke-linecap: square"/>
     <g>
      <use xlink:href="#m263b121439" x="450.209653" y="271.078859" style="fill: #ffffff; fill-opacity: 0.7; stroke: #0000ff; stroke-opacity: 0.7; stroke-width: 0.75"/>
     </g>
    </g>
    <g id="text_16">
     <!-- Combined -->
     <g transform="translate(482.609653 277.378859) scale(0.18 -0.18)">
      <defs>
       <path id="Times-Roman-6f" d="M 163 1450 
Q 163 2072 558 2501 
Q 953 2931 1575 2931 
Q 2194 2931 2600 2525 
Q 3006 2119 3006 1444 
Q 3006 822 2612 362 
Q 2219 -97 1594 -97 
Q 994 -97 578 343 
Q 163 784 163 1450 
z
M 1488 2744 
Q 1241 2744 1059 2581 
Q 747 2297 747 1600 
Q 747 1044 998 562 
Q 1250 81 1697 81 
Q 2047 81 2236 403 
Q 2425 725 2425 1247 
Q 2425 1788 2184 2266 
Q 1944 2744 1488 2744 
z
M 1603 2931 
L 1603 2931 
z
" transform="scale(0.015625)"/>
       <path id="Times-Roman-62" d="M 22 3975 
L 22 4081 
Q 378 4163 662 4263 
Q 947 4363 969 4363 
Q 975 4344 975 4325 
L 975 2422 
Q 1056 2572 1219 2706 
Q 1506 2941 1881 2941 
Q 2341 2941 2666 2553 
Q 2991 2166 2991 1547 
Q 2991 884 2569 412 
Q 2147 -59 1459 -59 
Q 1113 -59 778 78 
Q 444 216 444 353 
L 444 3656 
Q 444 3838 394 3914 
Q 344 3991 163 3991 
L 22 3975 
z
M 963 456 
Q 991 294 1206 223 
Q 1422 153 1584 153 
Q 2022 153 2233 481 
Q 2444 809 2444 1275 
Q 2444 1741 2247 2136 
Q 2050 2531 1609 2531 
Q 1388 2531 1175 2395 
Q 963 2259 963 2050 
L 963 456 
z
" transform="scale(0.015625)"/>
       <path id="Times-Roman-64" d="M 1516 2953 
Q 1744 2953 1934 2853 
Q 2059 2788 2175 2672 
L 2175 3666 
Q 2175 3856 2133 3928 
Q 2091 4000 1931 4000 
Q 1894 4000 1866 3997 
Q 1838 3994 1741 3984 
L 1741 4088 
L 1997 4153 
Q 2138 4191 2278 4231 
Q 2419 4272 2525 4309 
Q 2575 4325 2691 4369 
L 2709 4363 
L 2703 4034 
Q 2700 3856 2697 3667 
Q 2694 3478 2694 3294 
L 2688 741 
Q 2688 538 2738 456 
Q 2788 375 3003 375 
Q 3038 375 3072 376 
Q 3106 378 3141 384 
L 3141 281 
Q 3122 275 2688 125 
L 2197 -59 
L 2175 -31 
L 2175 353 
Q 2000 163 1872 81 
Q 1644 -59 1344 -59 
Q 813 -59 483 352 
Q 153 763 153 1303 
Q 153 1981 548 2467 
Q 944 2953 1516 2953 
z
M 1631 278 
Q 1875 278 2025 422 
Q 2175 566 2175 694 
L 2175 2034 
Q 2175 2441 1958 2608 
Q 1741 2775 1534 2775 
Q 1141 2775 922 2426 
Q 703 2078 703 1569 
Q 703 1066 936 672 
Q 1169 278 1631 278 
z
" transform="scale(0.015625)"/>
      </defs>
      <use xlink:href="#Times-Roman-43"/>
      <use xlink:href="#Times-Roman-6f" x="66.699219"/>
      <use xlink:href="#Times-Roman-6d" x="116.699219"/>
      <use xlink:href="#Times-Roman-62" x="194.482422"/>
      <use xlink:href="#Times-Roman-69" x="244.482422"/>
      <use xlink:href="#Times-Roman-6e" x="272.265625"/>
      <use xlink:href="#Times-Roman-65" x="322.265625"/>
      <use xlink:href="#Times-Roman-64" x="366.650391"/>
     </g>
    </g>
    <g id="line2d_62">
     <path d="M 432.209653 296.599484 
L 450.209653 296.599484 
L 468.209653 296.599484 
" style="fill: none; stroke: #a52a2a; stroke-opacity: 0.7; stroke-linecap: square"/>
     <g>
      <use xlink:href="#m53c31e9b79" x="450.209653" y="296.599484" style="fill: #ffffff; fill-opacity: 0.7; stroke: #a52a2a; stroke-opacity: 0.7; stroke-width: 0.75"/>
     </g>
    </g>
    <g id="text_17">
     <!-- Baseline -->
     <g transform="translate(482.609653 302.899484) scale(0.18 -0.18)">
      <defs>
       <path id="Times-Roman-42" d="M 1903 231 
Q 2394 231 2725 422 
Q 3056 613 3056 1153 
Q 3056 1691 2668 1887 
Q 2281 2084 1681 2084 
Q 1534 2084 1495 2084 
Q 1456 2084 1375 2088 
L 1375 494 
Q 1375 328 1469 279 
Q 1563 231 1903 231 
z
M 109 116 
Q 497 138 611 236 
Q 725 334 725 694 
L 725 3541 
Q 725 3894 611 3995 
Q 497 4097 109 4116 
L 109 4234 
L 1903 4234 
Q 2672 4234 3123 3987 
Q 3575 3741 3575 3138 
Q 3575 2684 3259 2450 
Q 3081 2316 2725 2228 
Q 3166 2122 3478 1873 
Q 3791 1625 3791 1178 
Q 3791 428 3097 147 
Q 2731 0 2197 0 
L 109 0 
L 109 116 
z
M 1984 2341 
Q 2306 2347 2519 2444 
Q 2925 2631 2925 3116 
Q 2925 3688 2456 3888 
Q 2197 3997 1669 3997 
Q 1469 3997 1422 3962 
Q 1375 3928 1375 3775 
L 1375 2331 
L 1984 2341 
z
" transform="scale(0.015625)"/>
       <path id="Times-Roman-6c" d="M 131 88 
Q 422 116 525 205 
Q 628 294 628 553 
L 628 3606 
Q 628 3813 594 3891 
Q 531 4022 341 4022 
Q 297 4022 245 4012 
Q 194 4003 116 3984 
L 116 4088 
Q 538 4200 1131 4388 
Q 1153 4388 1158 4369 
Q 1163 4350 1163 4288 
L 1163 541 
Q 1163 269 1256 189 
Q 1350 109 1644 88 
L 1644 0 
L 131 0 
L 131 88 
z
" transform="scale(0.015625)"/>
      </defs>
      <use xlink:href="#Times-Roman-42"/>
      <use xlink:href="#Times-Roman-61" x="66.699219"/>
      <use xlink:href="#Times-Roman-73" x="111.083984"/>
      <use xlink:href="#Times-Roman-65" x="150"/>
      <use xlink:href="#Times-Roman-6c" x="194.384766"/>
      <use xlink:href="#Times-Roman-69" x="222.167969"/>
      <use xlink:href="#Times-Roman-6e" x="249.951172"/>
      <use xlink:href="#Times-Roman-65" x="299.951172"/>
     </g>
    </g>
   </g>
  </g>
 </g>
 <defs>
  <clipPath id="p36d0288e95">
   <rect x="59.481875" y="7.2" width="514.325903" height="315.820109"/>
  </clipPath>
 </defs>
</svg>
