<?xml version="1.0" encoding="utf-8" standalone="no"?>
<!DOCTYPE svg PUBLIC "-//W3C//DTD SVG 1.1//EN"
  "http://www.w3.org/Graphics/SVG/1.1/DTD/svg11.dtd">
<svg xmlns:xlink="http://www.w3.org/1999/xlink" width="460.8pt" height="345.6pt" viewBox="0 0 460.8 345.6" xmlns="http://www.w3.org/2000/svg" version="1.1">
 <metadata>
  <rdf:RDF xmlns:dc="http://purl.org/dc/elements/1.1/" xmlns:cc="http://creativecommons.org/ns#" xmlns:rdf="http://www.w3.org/1999/02/22-rdf-syntax-ns#">
   <cc:Work>
    <dc:type rdf:resource="http://purl.org/dc/dcmitype/StillImage"/>
    <dc:date>2024-02-07T13:48:18.062807</dc:date>
    <dc:format>image/svg+xml</dc:format>
    <dc:creator>
     <cc:Agent>
      <dc:title>Matplotlib v3.8.0, https://matplotlib.org/</dc:title>
     </cc:Agent>
    </dc:creator>
   </cc:Work>
  </rdf:RDF>
 </metadata>
 <defs>
  <style type="text/css">*{stroke-linejoin: round; stroke-linecap: butt}</style>
 </defs>
 <g id="figure_1">
  <g id="patch_1">
   <path d="M 0 345.6 
L 460.8 345.6 
L 460.8 0 
L 0 0 
z
" style="fill: #ffffff"/>
  </g>
  <g id="axes_1">
   <g id="patch_2">
    <path d="M 420.22096 302.409386 
Q 409.91128 270.383744 399.944202 239.422349 
" clip-path="url(#pc380092ef1)" style="fill: none; stroke: #000000; stroke-linecap: round"/>
    <path d="M 399.266148 243.842784 
L 399.944202 239.422349 
L 403.073717 242.617053 
z
" clip-path="url(#pc380092ef1)" style="stroke: #000000; stroke-linecap: round"/>
   </g>
   <g id="patch_3">
    <path d="M 418.893484 304.506772 
Q 378.481747 309.929416 339.178111 315.203369 
" clip-path="url(#pc380092ef1)" style="fill: none; stroke: #000000; stroke-linecap: round"/>
    <path d="M 343.408565 316.653631 
L 339.178111 315.203369 
L 342.876593 312.689163 
z
" clip-path="url(#pc380092ef1)" style="stroke: #000000; stroke-linecap: round"/>
   </g>
   <g id="patch_4">
    <path d="M 399.599559 238.351762 
Q 409.909239 270.377405 419.876317 301.338799 
" clip-path="url(#pc380092ef1)" style="fill: none; stroke: #000000; stroke-linecap: round"/>
    <path d="M 420.554371 296.918365 
L 419.876317 301.338799 
L 416.746802 298.144096 
z
" clip-path="url(#pc380092ef1)" style="stroke: #000000; stroke-linecap: round"/>
   </g>
   <g id="patch_5">
    <path d="M 397.208695 235.801797 
Q 349.976361 217.152073 303.783932 198.912956 
" clip-path="url(#pc380092ef1)" style="fill: none; stroke: #000000; stroke-linecap: round"/>
    <path d="M 306.769891 202.242227 
L 303.783932 198.912956 
L 308.238924 198.521751 
z
" clip-path="url(#pc380092ef1)" style="stroke: #000000; stroke-linecap: round"/>
   </g>
   <g id="patch_6">
    <path d="M 338.068085 315.352317 
Q 378.479823 309.929674 417.783458 304.655721 
" clip-path="url(#pc380092ef1)" style="fill: none; stroke: #000000; stroke-linecap: round"/>
    <path d="M 413.553004 303.205459 
L 417.783458 304.655721 
L 414.084976 307.169926 
z
" clip-path="url(#pc380092ef1)" style="stroke: #000000; stroke-linecap: round"/>
   </g>
   <g id="patch_7">
    <path d="M 334.584874 314.464607 
Q 296.432602 286.516443 259.182259 259.228979 
" clip-path="url(#pc380092ef1)" style="fill: none; stroke: #000000; stroke-linecap: round"/>
    <path d="M 261.227198 263.206193 
L 259.182259 259.228979 
L 263.590993 259.979356 
z
" clip-path="url(#pc380092ef1)" style="stroke: #000000; stroke-linecap: round"/>
   </g>
   <g id="patch_8">
    <path d="M 48.284451 31.910074 
Q 44.271089 60.297367 40.414237 87.577634 
" clip-path="url(#pc380092ef1)" style="fill: none; stroke: #000000; stroke-linecap: round"/>
    <path d="M 42.954491 83.896994 
L 40.414237 87.577634 
L 38.993878 83.337047 
z
" clip-path="url(#pc380092ef1)" style="stroke: #000000; stroke-linecap: round"/>
   </g>
   <g id="patch_9">
    <path d="M 50.166068 31.069722 
Q 82.595709 52.814197 114.096742 73.936028 
" clip-path="url(#pc380092ef1)" style="fill: none; stroke: #000000; stroke-linecap: round"/>
    <path d="M 111.888268 70.047243 
L 114.096742 73.936028 
L 109.66063 73.369536 
z
" clip-path="url(#pc380092ef1)" style="stroke: #000000; stroke-linecap: round"/>
   </g>
   <g id="patch_10">
    <path d="M 40.258223 88.681154 
Q 44.271585 60.293862 48.128437 33.013595 
" clip-path="url(#pc380092ef1)" style="fill: none; stroke: #000000; stroke-linecap: round"/>
    <path d="M 45.588183 36.694235 
L 48.128437 33.013595 
L 49.548797 37.254182 
z
" clip-path="url(#pc380092ef1)" style="stroke: #000000; stroke-linecap: round"/>
   </g>
   <g id="patch_11">
    <path d="M 40.624595 92.42504 
Q 53.081995 128.04803 65.170333 162.615655 
" clip-path="url(#pc380092ef1)" style="fill: none; stroke: #000000; stroke-linecap: round"/>
    <path d="M 65.737829 158.179672 
L 65.170333 162.615655 
L 61.962044 159.500068 
z
" clip-path="url(#pc380092ef1)" style="stroke: #000000; stroke-linecap: round"/>
   </g>
   <g id="patch_12">
    <path d="M 41.890843 90.229457 
Q 78.312218 83.119718 113.636271 76.224186 
" clip-path="url(#pc380092ef1)" style="fill: none; stroke: #000000; stroke-linecap: round"/>
    <path d="M 109.327188 75.027602 
L 113.636271 76.224186 
L 110.093555 78.953501 
z
" clip-path="url(#pc380092ef1)" style="stroke: #000000; stroke-linecap: round"/>
   </g>
   <g id="patch_13">
    <path d="M 65.539459 163.6712 
Q 53.082058 128.048211 40.99372 93.480585 
" clip-path="url(#pc380092ef1)" style="fill: none; stroke: #000000; stroke-linecap: round"/>
    <path d="M 40.426224 97.916569 
L 40.99372 93.480585 
L 44.202009 96.596172 
z
" clip-path="url(#pc380092ef1)" style="stroke: #000000; stroke-linecap: round"/>
   </g>
   <g id="patch_14">
    <path d="M 67.966127 166.241166 
Q 114.623117 185.700298 160.248223 204.729063 
" clip-path="url(#pc380092ef1)" style="fill: none; stroke: #000000; stroke-linecap: round"/>
    <path d="M 157.326303 201.343449 
L 160.248223 204.729063 
L 155.786579 205.035231 
z
" clip-path="url(#pc380092ef1)" style="stroke: #000000; stroke-linecap: round"/>
   </g>
   <g id="patch_15">
    <path d="M 115.02581 74.558979 
Q 82.596169 52.814505 51.095136 31.692673 
" clip-path="url(#pc380092ef1)" style="fill: none; stroke: #000000; stroke-linecap: round"/>
    <path d="M 53.303609 35.581458 
L 51.095136 31.692673 
L 55.531248 32.259165 
z
" clip-path="url(#pc380092ef1)" style="stroke: #000000; stroke-linecap: round"/>
   </g>
   <g id="patch_16">
    <path d="M 114.731914 76.010307 
Q 78.310539 83.120046 42.986487 90.015579 
" clip-path="url(#pc380092ef1)" style="fill: none; stroke: #000000; stroke-linecap: round"/>
    <path d="M 47.295569 91.212162 
L 42.986487 90.015579 
L 46.529203 87.286263 
z
" clip-path="url(#pc380092ef1)" style="stroke: #000000; stroke-linecap: round"/>
   </g>
   <g id="patch_17">
    <path d="M 118.168282 76.818916 
Q 160.297596 109.270194 201.541177 141.039211 
" clip-path="url(#pc380092ef1)" style="fill: none; stroke: #000000; stroke-linecap: round"/>
    <path d="M 199.592749 137.013838 
L 201.541177 141.039211 
L 197.151822 140.18273 
z
" clip-path="url(#pc380092ef1)" style="stroke: #000000; stroke-linecap: round"/>
   </g>
   <g id="patch_18">
    <path d="M 202.426202 141.720926 
Q 160.296888 109.269649 119.053307 77.500632 
" clip-path="url(#pc380092ef1)" style="fill: none; stroke: #000000; stroke-linecap: round"/>
    <path d="M 121.001735 81.526005 
L 119.053307 77.500632 
L 123.442662 78.357113 
z
" clip-path="url(#pc380092ef1)" style="stroke: #000000; stroke-linecap: round"/>
   </g>
   <g id="patch_19">
    <path d="M 202.902719 144.527817 
Q 183.510256 174.404794 164.7265 203.343968 
" clip-path="url(#pc380092ef1)" style="fill: none; stroke: #000000; stroke-linecap: round"/>
    <path d="M 168.58187 201.077667 
L 164.7265 203.343968 
L 165.226682 198.899891 
z
" clip-path="url(#pc380092ef1)" style="stroke: #000000; stroke-linecap: round"/>
   </g>
   <g id="patch_20">
    <path d="M 205.642594 143.854363 
Q 252.450912 170.346295 298.286224 196.287539 
" clip-path="url(#pc380092ef1)" style="fill: none; stroke: #000000; stroke-linecap: round"/>
    <path d="M 295.790193 192.576767 
L 298.286224 196.287539 
L 293.819988 196.057901 
z
" clip-path="url(#pc380092ef1)" style="stroke: #000000; stroke-linecap: round"/>
   </g>
   <g id="patch_21">
    <path d="M 161.276101 205.157758 
Q 114.619111 185.698627 68.994005 166.669861 
" clip-path="url(#pc380092ef1)" style="fill: none; stroke: #000000; stroke-linecap: round"/>
    <path d="M 71.915925 170.055476 
L 68.994005 166.669861 
L 73.455649 166.363694 
z
" clip-path="url(#pc380092ef1)" style="stroke: #000000; stroke-linecap: round"/>
   </g>
   <g id="patch_22">
    <path d="M 164.120736 204.277237 
Q 183.513199 174.40026 202.296955 145.461087 
" clip-path="url(#pc380092ef1)" style="fill: none; stroke: #000000; stroke-linecap: round"/>
    <path d="M 198.441585 147.727387 
L 202.296955 145.461087 
L 201.796773 149.905164 
z
" clip-path="url(#pc380092ef1)" style="stroke: #000000; stroke-linecap: round"/>
   </g>
   <g id="patch_23">
    <path d="M 164.759804 206.836198 
Q 209.890532 231.663401 254.041671 255.951713 
" clip-path="url(#pc380092ef1)" style="fill: none; stroke: #000000; stroke-linecap: round"/>
    <path d="M 251.500977 252.271377 
L 254.041671 255.951713 
L 249.572986 255.776067 
z
" clip-path="url(#pc380092ef1)" style="stroke: #000000; stroke-linecap: round"/>
   </g>
   <g id="patch_24">
    <path d="M 258.282591 258.569934 
Q 296.434862 286.518098 333.685206 313.805562 
" clip-path="url(#pc380092ef1)" style="fill: none; stroke: #000000; stroke-linecap: round"/>
    <path d="M 331.640267 309.828349 
L 333.685206 313.805562 
L 329.276472 313.055185 
z
" clip-path="url(#pc380092ef1)" style="stroke: #000000; stroke-linecap: round"/>
   </g>
   <g id="patch_25">
    <path d="M 255.024266 256.492256 
Q 209.893537 231.665054 165.742399 207.376741 
" clip-path="url(#pc380092ef1)" style="fill: none; stroke: #000000; stroke-linecap: round"/>
    <path d="M 168.283093 211.057077 
L 165.742399 207.376741 
L 170.211084 207.552387 
z
" clip-path="url(#pc380092ef1)" style="stroke: #000000; stroke-linecap: round"/>
   </g>
   <g id="patch_26">
    <path d="M 257.871686 255.870459 
Q 278.830386 227.608967 299.123103 200.24551 
" clip-path="url(#pc380092ef1)" style="fill: none; stroke: #000000; stroke-linecap: round"/>
    <path d="M 295.133958 202.267074 
L 299.123103 200.24551 
L 298.346867 204.649764 
z
" clip-path="url(#pc380092ef1)" style="stroke: #000000; stroke-linecap: round"/>
   </g>
   <g id="patch_27">
    <path d="M 302.741762 198.501454 
Q 349.974096 217.151179 396.166525 235.390296 
" clip-path="url(#pc380092ef1)" style="fill: none; stroke: #000000; stroke-linecap: round"/>
    <path d="M 393.180566 232.061025 
L 396.166525 235.390296 
L 391.711533 235.781501 
z
" clip-path="url(#pc380092ef1)" style="stroke: #000000; stroke-linecap: round"/>
   </g>
   <g id="patch_28">
    <path d="M 299.259071 196.838137 
Q 252.450752 170.346205 206.61544 144.404961 
" clip-path="url(#pc380092ef1)" style="fill: none; stroke: #000000; stroke-linecap: round"/>
    <path d="M 209.111472 148.115733 
L 206.61544 144.404961 
L 211.081677 144.634599 
z
" clip-path="url(#pc380092ef1)" style="stroke: #000000; stroke-linecap: round"/>
   </g>
   <g id="patch_29">
    <path d="M 299.790594 199.345441 
Q 278.831894 227.606933 258.539177 254.97039 
" clip-path="url(#pc380092ef1)" style="fill: none; stroke: #000000; stroke-linecap: round"/>
    <path d="M 262.528322 252.948826 
L 258.539177 254.97039 
L 259.315413 250.566135 
z
" clip-path="url(#pc380092ef1)" style="stroke: #000000; stroke-linecap: round"/>
   </g>
   <g id="PathCollection_1">
    <defs>
     <path id="m9b86623657" d="M 0 1.936492 
C 0.513564 1.936492 1.006162 1.732451 1.369306 1.369306 
C 1.732451 1.006162 1.936492 0.513564 1.936492 0 
C 1.936492 -0.513564 1.732451 -1.006162 1.369306 -1.369306 
C 1.006162 -1.732451 0.513564 -1.936492 0 -1.936492 
C -0.513564 -1.936492 -1.006162 -1.732451 -1.369306 -1.369306 
C -1.732451 -1.006162 -1.936492 -0.513564 -1.936492 0 
C -1.936492 0.513564 -1.732451 1.006162 -1.369306 1.369306 
C -1.006162 1.732451 -0.513564 1.936492 0 1.936492 
z
" style="stroke: #1f78b4"/>
    </defs>
    <g clip-path="url(#pc380092ef1)">
     <use xlink:href="#m9b86623657" x="420.813223" y="304.249172" style="fill: #1f78b4; stroke: #1f78b4"/>
     <use xlink:href="#m9b86623657" x="399.007296" y="236.511976" style="fill: #1f78b4; stroke: #1f78b4"/>
     <use xlink:href="#m9b86623657" x="336.148346" y="315.609917" style="fill: #1f78b4; stroke: #1f78b4"/>
     <use xlink:href="#m9b86623657" x="48.555897" y="29.990083" style="fill: #1f78b4; stroke: #1f78b4"/>
     <use xlink:href="#m9b86623657" x="39.986777" y="90.601146" style="fill: #1f78b4; stroke: #1f78b4"/>
     <use xlink:href="#m9b86623657" x="66.177277" y="165.495094" style="fill: #1f78b4; stroke: #1f78b4"/>
     <use xlink:href="#m9b86623657" x="116.635981" y="75.638619" style="fill: #1f78b4; stroke: #1f78b4"/>
     <use xlink:href="#m9b86623657" x="203.958503" y="142.901224" style="fill: #1f78b4; stroke: #1f78b4"/>
     <use xlink:href="#m9b86623657" x="163.064951" y="205.90383" style="fill: #1f78b4; stroke: #1f78b4"/>
     <use xlink:href="#m9b86623657" x="256.719119" y="257.424624" style="fill: #1f78b4; stroke: #1f78b4"/>
     <use xlink:href="#m9b86623657" x="300.943161" y="197.791276" style="fill: #1f78b4; stroke: #1f78b4"/>
    </g>
   </g>
   <g id="text_1">
    <g clip-path="url(#pc380092ef1)">
     <!-- 0 -->
     <g transform="translate(417.631973 307.008547) scale(0.1 -0.1)">
      <defs>
       <path id="DejaVuSans-30" d="M 2034 4250 
Q 1547 4250 1301 3770 
Q 1056 3291 1056 2328 
Q 1056 1369 1301 889 
Q 1547 409 2034 409 
Q 2525 409 2770 889 
Q 3016 1369 3016 2328 
Q 3016 3291 2770 3770 
Q 2525 4250 2034 4250 
z
M 2034 4750 
Q 2819 4750 3233 4129 
Q 3647 3509 3647 2328 
Q 3647 1150 3233 529 
Q 2819 -91 2034 -91 
Q 1250 -91 836 529 
Q 422 1150 422 2328 
Q 422 3509 836 4129 
Q 1250 4750 2034 4750 
z
" transform="scale(0.015625)"/>
      </defs>
      <use xlink:href="#DejaVuSans-30"/>
     </g>
    </g>
   </g>
   <g id="text_2">
    <g clip-path="url(#pc380092ef1)">
     <!-- 1 -->
     <g transform="translate(395.826046 239.271351) scale(0.1 -0.1)">
      <defs>
       <path id="DejaVuSans-31" d="M 794 531 
L 1825 531 
L 1825 4091 
L 703 3866 
L 703 4441 
L 1819 4666 
L 2450 4666 
L 2450 531 
L 3481 531 
L 3481 0 
L 794 0 
L 794 531 
z
" transform="scale(0.015625)"/>
      </defs>
      <use xlink:href="#DejaVuSans-31"/>
     </g>
    </g>
   </g>
   <g id="text_3">
    <g clip-path="url(#pc380092ef1)">
     <!-- 2 -->
     <g transform="translate(332.967096 318.369292) scale(0.1 -0.1)">
      <defs>
       <path id="DejaVuSans-32" d="M 1228 531 
L 3431 531 
L 3431 0 
L 469 0 
L 469 531 
Q 828 903 1448 1529 
Q 2069 2156 2228 2338 
Q 2531 2678 2651 2914 
Q 2772 3150 2772 3378 
Q 2772 3750 2511 3984 
Q 2250 4219 1831 4219 
Q 1534 4219 1204 4116 
Q 875 4013 500 3803 
L 500 4441 
Q 881 4594 1212 4672 
Q 1544 4750 1819 4750 
Q 2544 4750 2975 4387 
Q 3406 4025 3406 3419 
Q 3406 3131 3298 2873 
Q 3191 2616 2906 2266 
Q 2828 2175 2409 1742 
Q 1991 1309 1228 531 
z
" transform="scale(0.015625)"/>
      </defs>
      <use xlink:href="#DejaVuSans-32"/>
     </g>
    </g>
   </g>
   <g id="text_4">
    <g clip-path="url(#pc380092ef1)">
     <!-- 3 -->
     <g transform="translate(45.374647 32.749458) scale(0.1 -0.1)">
      <defs>
       <path id="DejaVuSans-33" d="M 2597 2516 
Q 3050 2419 3304 2112 
Q 3559 1806 3559 1356 
Q 3559 666 3084 287 
Q 2609 -91 1734 -91 
Q 1441 -91 1130 -33 
Q 819 25 488 141 
L 488 750 
Q 750 597 1062 519 
Q 1375 441 1716 441 
Q 2309 441 2620 675 
Q 2931 909 2931 1356 
Q 2931 1769 2642 2001 
Q 2353 2234 1838 2234 
L 1294 2234 
L 1294 2753 
L 1863 2753 
Q 2328 2753 2575 2939 
Q 2822 3125 2822 3475 
Q 2822 3834 2567 4026 
Q 2313 4219 1838 4219 
Q 1578 4219 1281 4162 
Q 984 4106 628 3988 
L 628 4550 
Q 988 4650 1302 4700 
Q 1616 4750 1894 4750 
Q 2613 4750 3031 4423 
Q 3450 4097 3450 3541 
Q 3450 3153 3228 2886 
Q 3006 2619 2597 2516 
z
" transform="scale(0.015625)"/>
      </defs>
      <use xlink:href="#DejaVuSans-33"/>
     </g>
    </g>
   </g>
   <g id="text_5">
    <g clip-path="url(#pc380092ef1)">
     <!-- 4 -->
     <g transform="translate(36.805527 93.360521) scale(0.1 -0.1)">
      <defs>
       <path id="DejaVuSans-34" d="M 2419 4116 
L 825 1625 
L 2419 1625 
L 2419 4116 
z
M 2253 4666 
L 3047 4666 
L 3047 1625 
L 3713 1625 
L 3713 1100 
L 3047 1100 
L 3047 0 
L 2419 0 
L 2419 1100 
L 313 1100 
L 313 1709 
L 2253 4666 
z
" transform="scale(0.015625)"/>
      </defs>
      <use xlink:href="#DejaVuSans-34"/>
     </g>
    </g>
   </g>
   <g id="text_6">
    <g clip-path="url(#pc380092ef1)">
     <!-- 5 -->
     <g transform="translate(62.996027 168.254469) scale(0.1 -0.1)">
      <defs>
       <path id="DejaVuSans-35" d="M 691 4666 
L 3169 4666 
L 3169 4134 
L 1269 4134 
L 1269 2991 
Q 1406 3038 1543 3061 
Q 1681 3084 1819 3084 
Q 2600 3084 3056 2656 
Q 3513 2228 3513 1497 
Q 3513 744 3044 326 
Q 2575 -91 1722 -91 
Q 1428 -91 1123 -41 
Q 819 9 494 109 
L 494 744 
Q 775 591 1075 516 
Q 1375 441 1709 441 
Q 2250 441 2565 725 
Q 2881 1009 2881 1497 
Q 2881 1984 2565 2268 
Q 2250 2553 1709 2553 
Q 1456 2553 1204 2497 
Q 953 2441 691 2322 
L 691 4666 
z
" transform="scale(0.015625)"/>
      </defs>
      <use xlink:href="#DejaVuSans-35"/>
     </g>
    </g>
   </g>
   <g id="text_7">
    <g clip-path="url(#pc380092ef1)">
     <!-- 6 -->
     <g transform="translate(113.454731 78.397994) scale(0.1 -0.1)">
      <defs>
       <path id="DejaVuSans-36" d="M 2113 2584 
Q 1688 2584 1439 2293 
Q 1191 2003 1191 1497 
Q 1191 994 1439 701 
Q 1688 409 2113 409 
Q 2538 409 2786 701 
Q 3034 994 3034 1497 
Q 3034 2003 2786 2293 
Q 2538 2584 2113 2584 
z
M 3366 4563 
L 3366 3988 
Q 3128 4100 2886 4159 
Q 2644 4219 2406 4219 
Q 1781 4219 1451 3797 
Q 1122 3375 1075 2522 
Q 1259 2794 1537 2939 
Q 1816 3084 2150 3084 
Q 2853 3084 3261 2657 
Q 3669 2231 3669 1497 
Q 3669 778 3244 343 
Q 2819 -91 2113 -91 
Q 1303 -91 875 529 
Q 447 1150 447 2328 
Q 447 3434 972 4092 
Q 1497 4750 2381 4750 
Q 2619 4750 2861 4703 
Q 3103 4656 3366 4563 
z
" transform="scale(0.015625)"/>
      </defs>
      <use xlink:href="#DejaVuSans-36"/>
     </g>
    </g>
   </g>
   <g id="text_8">
    <g clip-path="url(#pc380092ef1)">
     <!-- 7 -->
     <g transform="translate(200.777253 145.660599) scale(0.1 -0.1)">
      <defs>
       <path id="DejaVuSans-37" d="M 525 4666 
L 3525 4666 
L 3525 4397 
L 1831 0 
L 1172 0 
L 2766 4134 
L 525 4134 
L 525 4666 
z
" transform="scale(0.015625)"/>
      </defs>
      <use xlink:href="#DejaVuSans-37"/>
     </g>
    </g>
   </g>
   <g id="text_9">
    <g clip-path="url(#pc380092ef1)">
     <!-- 8 -->
     <g transform="translate(159.883701 208.663205) scale(0.1 -0.1)">
      <defs>
       <path id="DejaVuSans-38" d="M 2034 2216 
Q 1584 2216 1326 1975 
Q 1069 1734 1069 1313 
Q 1069 891 1326 650 
Q 1584 409 2034 409 
Q 2484 409 2743 651 
Q 3003 894 3003 1313 
Q 3003 1734 2745 1975 
Q 2488 2216 2034 2216 
z
M 1403 2484 
Q 997 2584 770 2862 
Q 544 3141 544 3541 
Q 544 4100 942 4425 
Q 1341 4750 2034 4750 
Q 2731 4750 3128 4425 
Q 3525 4100 3525 3541 
Q 3525 3141 3298 2862 
Q 3072 2584 2669 2484 
Q 3125 2378 3379 2068 
Q 3634 1759 3634 1313 
Q 3634 634 3220 271 
Q 2806 -91 2034 -91 
Q 1263 -91 848 271 
Q 434 634 434 1313 
Q 434 1759 690 2068 
Q 947 2378 1403 2484 
z
M 1172 3481 
Q 1172 3119 1398 2916 
Q 1625 2713 2034 2713 
Q 2441 2713 2670 2916 
Q 2900 3119 2900 3481 
Q 2900 3844 2670 4047 
Q 2441 4250 2034 4250 
Q 1625 4250 1398 4047 
Q 1172 3844 1172 3481 
z
" transform="scale(0.015625)"/>
      </defs>
      <use xlink:href="#DejaVuSans-38"/>
     </g>
    </g>
   </g>
   <g id="text_10">
    <g clip-path="url(#pc380092ef1)">
     <!-- 9 -->
     <g transform="translate(253.537869 260.183999) scale(0.1 -0.1)">
      <defs>
       <path id="DejaVuSans-39" d="M 703 97 
L 703 672 
Q 941 559 1184 500 
Q 1428 441 1663 441 
Q 2288 441 2617 861 
Q 2947 1281 2994 2138 
Q 2813 1869 2534 1725 
Q 2256 1581 1919 1581 
Q 1219 1581 811 2004 
Q 403 2428 403 3163 
Q 403 3881 828 4315 
Q 1253 4750 1959 4750 
Q 2769 4750 3195 4129 
Q 3622 3509 3622 2328 
Q 3622 1225 3098 567 
Q 2575 -91 1691 -91 
Q 1453 -91 1209 -44 
Q 966 3 703 97 
z
M 1959 2075 
Q 2384 2075 2632 2365 
Q 2881 2656 2881 3163 
Q 2881 3666 2632 3958 
Q 2384 4250 1959 4250 
Q 1534 4250 1286 3958 
Q 1038 3666 1038 3163 
Q 1038 2656 1286 2365 
Q 1534 2075 1959 2075 
z
" transform="scale(0.015625)"/>
      </defs>
      <use xlink:href="#DejaVuSans-39"/>
     </g>
    </g>
   </g>
   <g id="text_11">
    <g clip-path="url(#pc380092ef1)">
     <!-- 10 -->
     <g transform="translate(294.580661 200.550651) scale(0.1 -0.1)">
      <use xlink:href="#DejaVuSans-31"/>
      <use xlink:href="#DejaVuSans-30" x="63.623047"/>
     </g>
    </g>
   </g>
  </g>
 </g>
 <defs>
  <clipPath id="pc380092ef1">
   <rect x="0" y="0" width="460.8" height="345.6"/>
  </clipPath>
 </defs>
</svg>
