<?xml version="1.0" encoding="utf-8" standalone="no"?>
<!DOCTYPE svg PUBLIC "-//W3C//DTD SVG 1.1//EN"
  "http://www.w3.org/Graphics/SVG/1.1/DTD/svg11.dtd">
<svg xmlns:xlink="http://www.w3.org/1999/xlink" width="460.8pt" height="345.6pt" viewBox="0 0 460.8 345.6" xmlns="http://www.w3.org/2000/svg" version="1.1">
 <metadata>
  <rdf:RDF xmlns:dc="http://purl.org/dc/elements/1.1/" xmlns:cc="http://creativecommons.org/ns#" xmlns:rdf="http://www.w3.org/1999/02/22-rdf-syntax-ns#">
   <cc:Work>
    <dc:type rdf:resource="http://purl.org/dc/dcmitype/StillImage"/>
    <dc:date>2024-02-07T13:48:11.794534</dc:date>
    <dc:format>image/svg+xml</dc:format>
    <dc:creator>
     <cc:Agent>
      <dc:title>Matplotlib v3.8.0, https://matplotlib.org/</dc:title>
     </cc:Agent>
    </dc:creator>
   </cc:Work>
  </rdf:RDF>
 </metadata>
 <defs>
  <style type="text/css">*{stroke-linejoin: round; stroke-linecap: butt}</style>
 </defs>
 <g id="figure_1">
  <g id="patch_1">
   <path d="M 0 345.6 
L 460.8 345.6 
L 460.8 0 
L 0 0 
z
" style="fill: #ffffff"/>
  </g>
  <g id="axes_1">
   <g id="patch_2">
    <path d="M 418.91876 223.430109 
Q 364.070604 211.995114 310.316948 200.788306 
" clip-path="url(#p1f985c008c)" style="fill: none; stroke: #000000; stroke-linecap: round"/>
    <path d="M 313.824559 203.562592 
L 310.316948 200.788306 
L 314.640944 199.646789 
z
" clip-path="url(#p1f985c008c)" style="stroke: #000000; stroke-linecap: round"/>
   </g>
   <g id="patch_3">
    <path d="M 161.451699 167.889199 
Q 189.19685 104.538004 216.493477 42.210932 
" clip-path="url(#p1f985c008c)" style="fill: none; stroke: #000000; stroke-linecap: round"/>
    <path d="M 213.056788 45.072603 
L 216.493477 42.210932 
L 216.720801 46.677286 
z
" clip-path="url(#p1f985c008c)" style="stroke: #000000; stroke-linecap: round"/>
   </g>
   <g id="patch_4">
    <path d="M 159.500683 171.202944 
Q 118.069073 225.495346 77.315723 278.898949 
" clip-path="url(#p1f985c008c)" style="fill: none; stroke: #000000; stroke-linecap: round"/>
    <path d="M 81.332271 276.932394 
L 77.315723 278.898949 
L 78.152408 274.505777 
z
" clip-path="url(#p1f985c008c)" style="stroke: #000000; stroke-linecap: round"/>
   </g>
   <g id="patch_5">
    <path d="M 160.978587 171.576763 
Q 172.324666 242.63731 183.494464 312.593807 
" clip-path="url(#p1f985c008c)" style="fill: none; stroke: #000000; stroke-linecap: round"/>
    <path d="M 184.838765 308.328499 
L 183.494464 312.593807 
L 180.888798 308.959181 
z
" clip-path="url(#p1f985c008c)" style="stroke: #000000; stroke-linecap: round"/>
   </g>
   <g id="patch_6">
    <path d="M 162.566631 170.059764 
Q 233.998498 184.915138 304.33575 199.54287 
" clip-path="url(#p1f985c008c)" style="fill: none; stroke: #000000; stroke-linecap: round"/>
    <path d="M 300.82676 196.770329 
L 304.33575 199.54287 
L 300.012323 200.686538 
z
" clip-path="url(#p1f985c008c)" style="stroke: #000000; stroke-linecap: round"/>
   </g>
   <g id="patch_7">
    <path d="M 158.77673 169.287401 
Q 100.329738 157.619482 42.979147 146.17044 
" clip-path="url(#p1f985c008c)" style="fill: none; stroke: #000000; stroke-linecap: round"/>
    <path d="M 46.510207 148.914818 
L 42.979147 146.17044 
L 47.293286 144.992219 
z
" clip-path="url(#p1f985c008c)" style="stroke: #000000; stroke-linecap: round"/>
   </g>
   <g id="patch_8">
    <path d="M 159.965739 167.862992 
Q 133.259931 99.829056 106.962646 32.835846 
" clip-path="url(#p1f985c008c)" style="fill: none; stroke: #000000; stroke-linecap: round"/>
    <path d="M 106.562515 37.290045 
L 106.962646 32.835846 
L 110.285928 35.82847 
z
" clip-path="url(#p1f985c008c)" style="stroke: #000000; stroke-linecap: round"/>
   </g>
   <g id="patch_9">
    <path d="M 216.941687 41.187522 
Q 189.196537 104.538718 161.899909 166.86579 
" clip-path="url(#p1f985c008c)" style="fill: none; stroke: #000000; stroke-linecap: round"/>
    <path d="M 165.336599 164.004119 
L 161.899909 166.86579 
L 161.672586 162.399436 
z
" clip-path="url(#p1f985c008c)" style="stroke: #000000; stroke-linecap: round"/>
   </g>
   <g id="patch_10">
    <path d="M 76.633087 279.793482 
Q 118.064697 225.501079 158.818047 172.097476 
" clip-path="url(#p1f985c008c)" style="fill: none; stroke: #000000; stroke-linecap: round"/>
    <path d="M 154.801499 174.064031 
L 158.818047 172.097476 
L 157.981362 176.490648 
z
" clip-path="url(#p1f985c008c)" style="stroke: #000000; stroke-linecap: round"/>
   </g>
   <g id="patch_11">
    <path d="M 183.670962 313.699214 
Q 172.324883 242.638668 161.155085 172.68217 
" clip-path="url(#p1f985c008c)" style="fill: none; stroke: #000000; stroke-linecap: round"/>
    <path d="M 159.810784 176.947479 
L 161.155085 172.68217 
L 163.760751 176.316796 
z
" clip-path="url(#p1f985c008c)" style="stroke: #000000; stroke-linecap: round"/>
   </g>
   <g id="patch_12">
    <path d="M 309.220017 200.559613 
Q 364.068173 211.994607 417.821829 223.201415 
" clip-path="url(#p1f985c008c)" style="fill: none; stroke: #000000; stroke-linecap: round"/>
    <path d="M 414.314218 220.427129 
L 417.821829 223.201415 
L 413.497833 224.342933 
z
" clip-path="url(#p1f985c008c)" style="stroke: #000000; stroke-linecap: round"/>
   </g>
   <g id="patch_13">
    <path d="M 305.432432 199.770942 
Q 234.000566 184.915568 163.663313 170.287836 
" clip-path="url(#p1f985c008c)" style="fill: none; stroke: #000000; stroke-linecap: round"/>
    <path d="M 167.172303 173.060378 
L 163.663313 170.287836 
L 167.98674 169.144169 
z
" clip-path="url(#p1f985c008c)" style="stroke: #000000; stroke-linecap: round"/>
   </g>
   <g id="patch_14">
    <path d="M 41.883556 145.951725 
Q 100.330548 157.619644 157.681139 169.068686 
" clip-path="url(#p1f985c008c)" style="fill: none; stroke: #000000; stroke-linecap: round"/>
    <path d="M 154.150079 166.324307 
L 157.681139 169.068686 
L 153.367 170.246907 
z
" clip-path="url(#p1f985c008c)" style="stroke: #000000; stroke-linecap: round"/>
   </g>
   <g id="patch_15">
    <path d="M 106.55335 31.793151 
Q 133.259158 99.827086 159.556443 166.820297 
" clip-path="url(#p1f985c008c)" style="fill: none; stroke: #000000; stroke-linecap: round"/>
    <path d="M 159.956574 162.366097 
L 159.556443 166.820297 
L 156.233162 163.827672 
z
" clip-path="url(#p1f985c008c)" style="stroke: #000000; stroke-linecap: round"/>
   </g>
   <g id="PathCollection_1">
    <defs>
     <path id="mca8eb1ba44" d="M 0 1.936492 
C 0.513564 1.936492 1.006162 1.732451 1.369306 1.369306 
C 1.732451 1.006162 1.936492 0.513564 1.936492 0 
C 1.936492 -0.513564 1.732451 -1.006162 1.369306 -1.369306 
C 1.006162 -1.732451 0.513564 -1.936492 0 -1.936492 
C -0.513564 -1.936492 -1.006162 -1.732451 -1.369306 -1.369306 
C -1.732451 -1.006162 -1.936492 -0.513564 -1.936492 0 
C -1.936492 0.513564 -1.732451 1.006162 -1.369306 1.369306 
C -1.006162 1.732451 -0.513564 1.936492 0 1.936492 
z
" style="stroke: #1f78b4"/>
    </defs>
    <g clip-path="url(#p1f985c008c)">
     <use xlink:href="#mca8eb1ba44" x="420.813223" y="223.825075" style="fill: #1f78b4; stroke: #1f78b4"/>
     <use xlink:href="#mca8eb1ba44" x="160.673509" y="169.66606" style="fill: #1f78b4; stroke: #1f78b4"/>
     <use xlink:href="#mca8eb1ba44" x="217.719877" y="39.410662" style="fill: #1f78b4; stroke: #1f78b4"/>
     <use xlink:href="#mca8eb1ba44" x="75.460261" y="281.330365" style="fill: #1f78b4; stroke: #1f78b4"/>
     <use xlink:href="#mca8eb1ba44" x="183.976039" y="315.609917" style="fill: #1f78b4; stroke: #1f78b4"/>
     <use xlink:href="#mca8eb1ba44" x="307.325554" y="200.164647" style="fill: #1f78b4; stroke: #1f78b4"/>
     <use xlink:href="#mca8eb1ba44" x="39.986777" y="145.573066" style="fill: #1f78b4; stroke: #1f78b4"/>
     <use xlink:href="#mca8eb1ba44" x="105.84558" y="29.990083" style="fill: #1f78b4; stroke: #1f78b4"/>
    </g>
   </g>
   <g id="text_1">
    <g clip-path="url(#p1f985c008c)">
     <!-- 0 -->
     <g transform="translate(417.631973 226.58445) scale(0.1 -0.1)">
      <defs>
       <path id="DejaVuSans-30" d="M 2034 4250 
Q 1547 4250 1301 3770 
Q 1056 3291 1056 2328 
Q 1056 1369 1301 889 
Q 1547 409 2034 409 
Q 2525 409 2770 889 
Q 3016 1369 3016 2328 
Q 3016 3291 2770 3770 
Q 2525 4250 2034 4250 
z
M 2034 4750 
Q 2819 4750 3233 4129 
Q 3647 3509 3647 2328 
Q 3647 1150 3233 529 
Q 2819 -91 2034 -91 
Q 1250 -91 836 529 
Q 422 1150 422 2328 
Q 422 3509 836 4129 
Q 1250 4750 2034 4750 
z
" transform="scale(0.015625)"/>
      </defs>
      <use xlink:href="#DejaVuSans-30"/>
     </g>
    </g>
   </g>
   <g id="text_2">
    <g clip-path="url(#p1f985c008c)">
     <!-- 2 -->
     <g transform="translate(157.492259 172.425435) scale(0.1 -0.1)">
      <defs>
       <path id="DejaVuSans-32" d="M 1228 531 
L 3431 531 
L 3431 0 
L 469 0 
L 469 531 
Q 828 903 1448 1529 
Q 2069 2156 2228 2338 
Q 2531 2678 2651 2914 
Q 2772 3150 2772 3378 
Q 2772 3750 2511 3984 
Q 2250 4219 1831 4219 
Q 1534 4219 1204 4116 
Q 875 4013 500 3803 
L 500 4441 
Q 881 4594 1212 4672 
Q 1544 4750 1819 4750 
Q 2544 4750 2975 4387 
Q 3406 4025 3406 3419 
Q 3406 3131 3298 2873 
Q 3191 2616 2906 2266 
Q 2828 2175 2409 1742 
Q 1991 1309 1228 531 
z
" transform="scale(0.015625)"/>
      </defs>
      <use xlink:href="#DejaVuSans-32"/>
     </g>
    </g>
   </g>
   <g id="text_3">
    <g clip-path="url(#p1f985c008c)">
     <!-- 3 -->
     <g transform="translate(214.538627 42.170037) scale(0.1 -0.1)">
      <defs>
       <path id="DejaVuSans-33" d="M 2597 2516 
Q 3050 2419 3304 2112 
Q 3559 1806 3559 1356 
Q 3559 666 3084 287 
Q 2609 -91 1734 -91 
Q 1441 -91 1130 -33 
Q 819 25 488 141 
L 488 750 
Q 750 597 1062 519 
Q 1375 441 1716 441 
Q 2309 441 2620 675 
Q 2931 909 2931 1356 
Q 2931 1769 2642 2001 
Q 2353 2234 1838 2234 
L 1294 2234 
L 1294 2753 
L 1863 2753 
Q 2328 2753 2575 2939 
Q 2822 3125 2822 3475 
Q 2822 3834 2567 4026 
Q 2313 4219 1838 4219 
Q 1578 4219 1281 4162 
Q 984 4106 628 3988 
L 628 4550 
Q 988 4650 1302 4700 
Q 1616 4750 1894 4750 
Q 2613 4750 3031 4423 
Q 3450 4097 3450 3541 
Q 3450 3153 3228 2886 
Q 3006 2619 2597 2516 
z
" transform="scale(0.015625)"/>
      </defs>
      <use xlink:href="#DejaVuSans-33"/>
     </g>
    </g>
   </g>
   <g id="text_4">
    <g clip-path="url(#p1f985c008c)">
     <!-- 4 -->
     <g transform="translate(72.279011 284.08974) scale(0.1 -0.1)">
      <defs>
       <path id="DejaVuSans-34" d="M 2419 4116 
L 825 1625 
L 2419 1625 
L 2419 4116 
z
M 2253 4666 
L 3047 4666 
L 3047 1625 
L 3713 1625 
L 3713 1100 
L 3047 1100 
L 3047 0 
L 2419 0 
L 2419 1100 
L 313 1100 
L 313 1709 
L 2253 4666 
z
" transform="scale(0.015625)"/>
      </defs>
      <use xlink:href="#DejaVuSans-34"/>
     </g>
    </g>
   </g>
   <g id="text_5">
    <g clip-path="url(#p1f985c008c)">
     <!-- 6 -->
     <g transform="translate(180.794789 318.369292) scale(0.1 -0.1)">
      <defs>
       <path id="DejaVuSans-36" d="M 2113 2584 
Q 1688 2584 1439 2293 
Q 1191 2003 1191 1497 
Q 1191 994 1439 701 
Q 1688 409 2113 409 
Q 2538 409 2786 701 
Q 3034 994 3034 1497 
Q 3034 2003 2786 2293 
Q 2538 2584 2113 2584 
z
M 3366 4563 
L 3366 3988 
Q 3128 4100 2886 4159 
Q 2644 4219 2406 4219 
Q 1781 4219 1451 3797 
Q 1122 3375 1075 2522 
Q 1259 2794 1537 2939 
Q 1816 3084 2150 3084 
Q 2853 3084 3261 2657 
Q 3669 2231 3669 1497 
Q 3669 778 3244 343 
Q 2819 -91 2113 -91 
Q 1303 -91 875 529 
Q 447 1150 447 2328 
Q 447 3434 972 4092 
Q 1497 4750 2381 4750 
Q 2619 4750 2861 4703 
Q 3103 4656 3366 4563 
z
" transform="scale(0.015625)"/>
      </defs>
      <use xlink:href="#DejaVuSans-36"/>
     </g>
    </g>
   </g>
   <g id="text_6">
    <g clip-path="url(#p1f985c008c)">
     <!-- 7 -->
     <g transform="translate(304.144304 202.924022) scale(0.1 -0.1)">
      <defs>
       <path id="DejaVuSans-37" d="M 525 4666 
L 3525 4666 
L 3525 4397 
L 1831 0 
L 1172 0 
L 2766 4134 
L 525 4134 
L 525 4666 
z
" transform="scale(0.015625)"/>
      </defs>
      <use xlink:href="#DejaVuSans-37"/>
     </g>
    </g>
   </g>
   <g id="text_7">
    <g clip-path="url(#p1f985c008c)">
     <!-- 8 -->
     <g transform="translate(36.805527 148.332441) scale(0.1 -0.1)">
      <defs>
       <path id="DejaVuSans-38" d="M 2034 2216 
Q 1584 2216 1326 1975 
Q 1069 1734 1069 1313 
Q 1069 891 1326 650 
Q 1584 409 2034 409 
Q 2484 409 2743 651 
Q 3003 894 3003 1313 
Q 3003 1734 2745 1975 
Q 2488 2216 2034 2216 
z
M 1403 2484 
Q 997 2584 770 2862 
Q 544 3141 544 3541 
Q 544 4100 942 4425 
Q 1341 4750 2034 4750 
Q 2731 4750 3128 4425 
Q 3525 4100 3525 3541 
Q 3525 3141 3298 2862 
Q 3072 2584 2669 2484 
Q 3125 2378 3379 2068 
Q 3634 1759 3634 1313 
Q 3634 634 3220 271 
Q 2806 -91 2034 -91 
Q 1263 -91 848 271 
Q 434 634 434 1313 
Q 434 1759 690 2068 
Q 947 2378 1403 2484 
z
M 1172 3481 
Q 1172 3119 1398 2916 
Q 1625 2713 2034 2713 
Q 2441 2713 2670 2916 
Q 2900 3119 2900 3481 
Q 2900 3844 2670 4047 
Q 2441 4250 2034 4250 
Q 1625 4250 1398 4047 
Q 1172 3844 1172 3481 
z
" transform="scale(0.015625)"/>
      </defs>
      <use xlink:href="#DejaVuSans-38"/>
     </g>
    </g>
   </g>
   <g id="text_8">
    <g clip-path="url(#p1f985c008c)">
     <!-- 9 -->
     <g transform="translate(102.66433 32.749458) scale(0.1 -0.1)">
      <defs>
       <path id="DejaVuSans-39" d="M 703 97 
L 703 672 
Q 941 559 1184 500 
Q 1428 441 1663 441 
Q 2288 441 2617 861 
Q 2947 1281 2994 2138 
Q 2813 1869 2534 1725 
Q 2256 1581 1919 1581 
Q 1219 1581 811 2004 
Q 403 2428 403 3163 
Q 403 3881 828 4315 
Q 1253 4750 1959 4750 
Q 2769 4750 3195 4129 
Q 3622 3509 3622 2328 
Q 3622 1225 3098 567 
Q 2575 -91 1691 -91 
Q 1453 -91 1209 -44 
Q 966 3 703 97 
z
M 1959 2075 
Q 2384 2075 2632 2365 
Q 2881 2656 2881 3163 
Q 2881 3666 2632 3958 
Q 2384 4250 1959 4250 
Q 1534 4250 1286 3958 
Q 1038 3666 1038 3163 
Q 1038 2656 1286 2365 
Q 1534 2075 1959 2075 
z
" transform="scale(0.015625)"/>
      </defs>
      <use xlink:href="#DejaVuSans-39"/>
     </g>
    </g>
   </g>
  </g>
 </g>
 <defs>
  <clipPath id="p1f985c008c">
   <rect x="0" y="0" width="460.8" height="345.6"/>
  </clipPath>
 </defs>
</svg>
