<?xml version="1.0" encoding="utf-8" standalone="no"?>
<!DOCTYPE svg PUBLIC "-//W3C//DTD SVG 1.1//EN"
  "http://www.w3.org/Graphics/SVG/1.1/DTD/svg11.dtd">
<svg xmlns:xlink="http://www.w3.org/1999/xlink" width="460.8pt" height="345.6pt" viewBox="0 0 460.8 345.6" xmlns="http://www.w3.org/2000/svg" version="1.1">
 <metadata>
  <rdf:RDF xmlns:dc="http://purl.org/dc/elements/1.1/" xmlns:cc="http://creativecommons.org/ns#" xmlns:rdf="http://www.w3.org/1999/02/22-rdf-syntax-ns#">
   <cc:Work>
    <dc:type rdf:resource="http://purl.org/dc/dcmitype/StillImage"/>
    <dc:date>2024-02-07T13:46:46.687046</dc:date>
    <dc:format>image/svg+xml</dc:format>
    <dc:creator>
     <cc:Agent>
      <dc:title>Matplotlib v3.8.0, https://matplotlib.org/</dc:title>
     </cc:Agent>
    </dc:creator>
   </cc:Work>
  </rdf:RDF>
 </metadata>
 <defs>
  <style type="text/css">*{stroke-linejoin: round; stroke-linecap: butt}</style>
 </defs>
 <g id="figure_1">
  <g id="patch_1">
   <path d="M 0 345.6 
L 460.8 345.6 
L 460.8 0 
L 0 0 
z
" style="fill: #ffffff"/>
  </g>
  <g id="axes_1">
   <g id="patch_2">
    <path d="M 281.162752 220.008898 
Q 233.405603 222.203136 186.765308 224.346059 
" clip-path="url(#pe9cb16e9e8)" style="fill: none; stroke: #000000; stroke-linecap: round"/>
    <path d="M 190.852888 226.160362 
L 186.765308 224.346059 
L 190.669298 222.164577 
z
" clip-path="url(#pe9cb16e9e8)" style="stroke: #000000; stroke-linecap: round"/>
   </g>
   <g id="patch_3">
    <path d="M 281.162752 220.008898 
Q 233.405603 222.203136 186.765308 224.346059 
" clip-path="url(#pe9cb16e9e8)" style="fill: none; stroke: #000000; stroke-linecap: round"/>
    <path d="M 190.852888 226.160362 
L 186.765308 224.346059 
L 190.669298 222.164577 
z
" clip-path="url(#pe9cb16e9e8)" style="stroke: #000000; stroke-linecap: round"/>
   </g>
   <g id="patch_4">
    <path d="M 284.838891 220.765681 
Q 351.956714 253.303312 418.068489 285.353227 
" clip-path="url(#pe9cb16e9e8)" style="fill: none; stroke: #000000; stroke-linecap: round"/>
    <path d="M 415.341594 281.808648 
L 418.068489 285.353227 
L 413.596689 285.407996 
z
" clip-path="url(#pe9cb16e9e8)" style="stroke: #000000; stroke-linecap: round"/>
   </g>
   <g id="patch_5">
    <path d="M 284.464386 221.290112 
Q 301.280201 238.109714 317.305536 254.138657 
" clip-path="url(#pe9cb16e9e8)" style="fill: none; stroke: #000000; stroke-linecap: round"/>
    <path d="M 315.8918 249.895858 
L 317.305536 254.138657 
L 313.063054 252.723966 
z
" clip-path="url(#pe9cb16e9e8)" style="stroke: #000000; stroke-linecap: round"/>
   </g>
   <g id="patch_6">
    <path d="M 281.326247 220.708095 
Q 258.245879 230.991834 236.18676 240.820543 
" clip-path="url(#pe9cb16e9e8)" style="fill: none; stroke: #000000; stroke-linecap: round"/>
    <path d="M 240.65447 241.019444 
L 236.18676 240.820543 
L 239.026507 237.365715 
z
" clip-path="url(#pe9cb16e9e8)" style="stroke: #000000; stroke-linecap: round"/>
   </g>
   <g id="patch_7">
    <path d="M 281.326247 220.708095 
Q 258.245879 230.991834 236.18676 240.820543 
" clip-path="url(#pe9cb16e9e8)" style="fill: none; stroke: #000000; stroke-linecap: round"/>
    <path d="M 240.65447 241.019444 
L 236.18676 240.820543 
L 239.026507 237.365715 
z
" clip-path="url(#pe9cb16e9e8)" style="stroke: #000000; stroke-linecap: round"/>
   </g>
   <g id="patch_8">
    <path d="M 281.484099 218.842984 
Q 246.393148 195.374829 212.23155 172.528207 
" clip-path="url(#pe9cb16e9e8)" style="fill: none; stroke: #000000; stroke-linecap: round"/>
    <path d="M 214.44467 176.414349 
L 212.23155 172.528207 
L 216.668335 173.089396 
z
" clip-path="url(#pe9cb16e9e8)" style="stroke: #000000; stroke-linecap: round"/>
   </g>
   <g id="patch_9">
    <path d="M 281.484099 218.842984 
Q 246.393148 195.374829 212.23155 172.528207 
" clip-path="url(#pe9cb16e9e8)" style="fill: none; stroke: #000000; stroke-linecap: round"/>
    <path d="M 214.44467 176.414349 
L 212.23155 172.528207 
L 216.668335 173.089396 
z
" clip-path="url(#pe9cb16e9e8)" style="stroke: #000000; stroke-linecap: round"/>
   </g>
   <g id="patch_10">
    <path d="M 281.484099 218.842984 
Q 246.393148 195.374829 212.23155 172.528207 
" clip-path="url(#pe9cb16e9e8)" style="fill: none; stroke: #000000; stroke-linecap: round"/>
    <path d="M 214.44467 176.414349 
L 212.23155 172.528207 
L 216.668335 173.089396 
z
" clip-path="url(#pe9cb16e9e8)" style="stroke: #000000; stroke-linecap: round"/>
   </g>
   <g id="patch_11">
    <path d="M 185.644374 224.397561 
Q 233.401524 222.203323 280.041818 220.0604 
" clip-path="url(#pe9cb16e9e8)" style="fill: none; stroke: #000000; stroke-linecap: round"/>
    <path d="M 275.954239 218.246097 
L 280.041818 220.0604 
L 276.137828 222.241881 
z
" clip-path="url(#pe9cb16e9e8)" style="stroke: #000000; stroke-linecap: round"/>
   </g>
   <g id="patch_12">
    <path d="M 185.644374 224.397561 
Q 233.401524 222.203323 280.041818 220.0604 
" clip-path="url(#pe9cb16e9e8)" style="fill: none; stroke: #000000; stroke-linecap: round"/>
    <path d="M 275.954239 218.246097 
L 280.041818 220.0604 
L 276.137828 222.241881 
z
" clip-path="url(#pe9cb16e9e8)" style="stroke: #000000; stroke-linecap: round"/>
   </g>
   <g id="patch_13">
    <path d="M 184.557569 222.740784 
Q 196.70208 197.658144 208.359367 173.581792 
" clip-path="url(#pe9cb16e9e8)" style="fill: none; stroke: #000000; stroke-linecap: round"/>
    <path d="M 204.816122 176.31042 
L 208.359367 173.581792 
L 208.416323 178.053565 
z
" clip-path="url(#pe9cb16e9e8)" style="stroke: #000000; stroke-linecap: round"/>
   </g>
   <g id="patch_14">
    <path d="M 184.557569 222.740784 
Q 196.70208 197.658144 208.359367 173.581792 
" clip-path="url(#pe9cb16e9e8)" style="fill: none; stroke: #000000; stroke-linecap: round"/>
    <path d="M 204.816122 176.31042 
L 208.359367 173.581792 
L 208.416323 178.053565 
z
" clip-path="url(#pe9cb16e9e8)" style="stroke: #000000; stroke-linecap: round"/>
   </g>
   <g id="patch_15">
    <path d="M 184.557569 222.740784 
Q 196.70208 197.658144 208.359367 173.581792 
" clip-path="url(#pe9cb16e9e8)" style="fill: none; stroke: #000000; stroke-linecap: round"/>
    <path d="M 204.816122 176.31042 
L 208.359367 173.581792 
L 208.416323 178.053565 
z
" clip-path="url(#pe9cb16e9e8)" style="stroke: #000000; stroke-linecap: round"/>
   </g>
   <g id="patch_16">
    <path d="M 182.646864 222.865478 
Q 166.89261 198.901054 151.752524 175.870867 
" clip-path="url(#pe9cb16e9e8)" style="fill: none; stroke: #000000; stroke-linecap: round"/>
    <path d="M 152.278628 180.311949 
L 151.752524 175.870867 
L 155.621053 178.114633 
z
" clip-path="url(#pe9cb16e9e8)" style="stroke: #000000; stroke-linecap: round"/>
   </g>
   <g id="patch_17">
    <path d="M 182.81908 222.768904 
Q 156.955464 173.046378 131.607781 124.315726 
" clip-path="url(#pe9cb16e9e8)" style="fill: none; stroke: #000000; stroke-linecap: round"/>
    <path d="M 131.679318 128.787289 
L 131.607781 124.315726 
L 135.227954 126.941435 
z
" clip-path="url(#pe9cb16e9e8)" style="stroke: #000000; stroke-linecap: round"/>
   </g>
   <g id="patch_18">
    <path d="M 182.215197 225.718253 
Q 128.338974 270.048219 75.3261 313.667814 
" clip-path="url(#pe9cb16e9e8)" style="fill: none; stroke: #000000; stroke-linecap: round"/>
    <path d="M 79.685663 312.670711 
L 75.3261 313.667814 
L 77.144156 309.581902 
z
" clip-path="url(#pe9cb16e9e8)" style="stroke: #000000; stroke-linecap: round"/>
   </g>
   <g id="patch_19">
    <path d="M 181.815729 224.10975 
Q 135.535229 214.921002 90.351357 205.949984 
" clip-path="url(#pe9cb16e9e8)" style="fill: none; stroke: #000000; stroke-linecap: round"/>
    <path d="M 93.885287 208.690666 
L 90.351357 205.949984 
L 94.664261 204.76725 
z
" clip-path="url(#pe9cb16e9e8)" style="stroke: #000000; stroke-linecap: round"/>
   </g>
   <g id="patch_20">
    <path d="M 185.59741 224.928061 
Q 251.589727 240.392851 316.493499 255.60255 
" clip-path="url(#pe9cb16e9e8)" style="fill: none; stroke: #000000; stroke-linecap: round"/>
    <path d="M 313.055328 252.742659 
L 316.493499 255.60255 
L 312.142683 256.637152 
z
" clip-path="url(#pe9cb16e9e8)" style="stroke: #000000; stroke-linecap: round"/>
   </g>
   <g id="patch_21">
    <path d="M 185.540963 225.133265 
Q 208.555532 233.275788 230.51609 241.045402 
" clip-path="url(#pe9cb16e9e8)" style="fill: none; stroke: #000000; stroke-linecap: round"/>
    <path d="M 227.412223 237.825774 
L 230.51609 241.045402 
L 226.078067 241.59672 
z
" clip-path="url(#pe9cb16e9e8)" style="stroke: #000000; stroke-linecap: round"/>
   </g>
   <g id="patch_22">
    <path d="M 185.540963 225.133265 
Q 208.555532 233.275788 230.51609 241.045402 
" clip-path="url(#pe9cb16e9e8)" style="fill: none; stroke: #000000; stroke-linecap: round"/>
    <path d="M 227.412223 237.825774 
L 230.51609 241.045402 
L 226.078067 241.59672 
z
" clip-path="url(#pe9cb16e9e8)" style="stroke: #000000; stroke-linecap: round"/>
   </g>
   <g id="patch_23">
    <path d="M 294.460022 72.505697 
Q 252.708446 120.934057 211.686909 168.515633 
" clip-path="url(#pe9cb16e9e8)" style="fill: none; stroke: #000000; stroke-linecap: round"/>
    <path d="M 215.813548 166.792019 
L 211.686909 168.515633 
L 212.784001 164.180153 
z
" clip-path="url(#pe9cb16e9e8)" style="stroke: #000000; stroke-linecap: round"/>
   </g>
   <g id="patch_24">
    <path d="M 419.069046 285.838281 
Q 351.951223 253.30065 285.839448 221.250735 
" clip-path="url(#pe9cb16e9e8)" style="fill: none; stroke: #000000; stroke-linecap: round"/>
    <path d="M 288.566343 224.795314 
L 285.839448 221.250735 
L 290.311249 221.195966 
z
" clip-path="url(#pe9cb16e9e8)" style="stroke: #000000; stroke-linecap: round"/>
   </g>
   <g id="patch_25">
    <path d="M 41.34401 31.368433 
Q 85.091437 75.796507 128.05442 119.427934 
" clip-path="url(#pe9cb16e9e8)" style="fill: none; stroke: #000000; stroke-linecap: round"/>
    <path d="M 126.672998 115.174503 
L 128.05442 119.427934 
L 123.822822 117.981014 
z
" clip-path="url(#pe9cb16e9e8)" style="stroke: #000000; stroke-linecap: round"/>
   </g>
   <g id="patch_26">
    <path d="M 211.302483 171.906865 
Q 246.393433 195.37502 280.555032 218.221641 
" clip-path="url(#pe9cb16e9e8)" style="fill: none; stroke: #000000; stroke-linecap: round"/>
    <path d="M 278.341911 214.3355 
L 280.555032 218.221641 
L 276.118246 217.660453 
z
" clip-path="url(#pe9cb16e9e8)" style="stroke: #000000; stroke-linecap: round"/>
   </g>
   <g id="patch_27">
    <path d="M 211.302483 171.906865 
Q 246.393433 195.37502 280.555032 218.221641 
" clip-path="url(#pe9cb16e9e8)" style="fill: none; stroke: #000000; stroke-linecap: round"/>
    <path d="M 278.341911 214.3355 
L 280.555032 218.221641 
L 276.118246 217.660453 
z
" clip-path="url(#pe9cb16e9e8)" style="stroke: #000000; stroke-linecap: round"/>
   </g>
   <g id="patch_28">
    <path d="M 211.302483 171.906865 
Q 246.393433 195.37502 280.555032 218.221641 
" clip-path="url(#pe9cb16e9e8)" style="fill: none; stroke: #000000; stroke-linecap: round"/>
    <path d="M 278.341911 214.3355 
L 280.555032 218.221641 
L 276.118246 217.660453 
z
" clip-path="url(#pe9cb16e9e8)" style="stroke: #000000; stroke-linecap: round"/>
   </g>
   <g id="patch_29">
    <path d="M 208.84671 172.575259 
Q 196.702199 197.657899 185.044912 221.734251 
" clip-path="url(#pe9cb16e9e8)" style="fill: none; stroke: #000000; stroke-linecap: round"/>
    <path d="M 188.588157 219.005623 
L 185.044912 221.734251 
L 184.987957 217.262478 
z
" clip-path="url(#pe9cb16e9e8)" style="stroke: #000000; stroke-linecap: round"/>
   </g>
   <g id="patch_30">
    <path d="M 208.84671 172.575259 
Q 196.702199 197.657899 185.044912 221.734251 
" clip-path="url(#pe9cb16e9e8)" style="fill: none; stroke: #000000; stroke-linecap: round"/>
    <path d="M 188.588157 219.005623 
L 185.044912 221.734251 
L 184.987957 217.262478 
z
" clip-path="url(#pe9cb16e9e8)" style="stroke: #000000; stroke-linecap: round"/>
   </g>
   <g id="patch_31">
    <path d="M 208.84671 172.575259 
Q 196.702199 197.657899 185.044912 221.734251 
" clip-path="url(#pe9cb16e9e8)" style="fill: none; stroke: #000000; stroke-linecap: round"/>
    <path d="M 188.588157 219.005623 
L 185.044912 221.734251 
L 184.987957 217.262478 
z
" clip-path="url(#pe9cb16e9e8)" style="stroke: #000000; stroke-linecap: round"/>
   </g>
   <g id="patch_32">
    <path d="M 210.954712 169.364921 
Q 252.706288 120.936561 293.727825 73.354984 
" clip-path="url(#pe9cb16e9e8)" style="fill: none; stroke: #000000; stroke-linecap: round"/>
    <path d="M 289.601186 75.078599 
L 293.727825 73.354984 
L 292.630733 77.690465 
z
" clip-path="url(#pe9cb16e9e8)" style="stroke: #000000; stroke-linecap: round"/>
   </g>
   <g id="patch_33">
    <path d="M 207.759696 170.910385 
Q 179.883687 172.074213 153.124738 173.191403 
" clip-path="url(#pe9cb16e9e8)" style="fill: none; stroke: #000000; stroke-linecap: round"/>
    <path d="M 157.204684 175.022807 
L 153.124738 173.191403 
L 157.037829 171.026289 
z
" clip-path="url(#pe9cb16e9e8)" style="stroke: #000000; stroke-linecap: round"/>
   </g>
   <g id="patch_34">
    <path d="M 207.759696 170.910385 
Q 179.883687 172.074213 153.124738 173.191403 
" clip-path="url(#pe9cb16e9e8)" style="fill: none; stroke: #000000; stroke-linecap: round"/>
    <path d="M 157.204684 175.022807 
L 153.124738 173.191403 
L 157.037829 171.026289 
z
" clip-path="url(#pe9cb16e9e8)" style="stroke: #000000; stroke-linecap: round"/>
   </g>
   <g id="patch_35">
    <path d="M 207.759696 170.910385 
Q 179.883687 172.074213 153.124738 173.191403 
" clip-path="url(#pe9cb16e9e8)" style="fill: none; stroke: #000000; stroke-linecap: round"/>
    <path d="M 157.204684 175.022807 
L 153.124738 173.191403 
L 157.037829 171.026289 
z
" clip-path="url(#pe9cb16e9e8)" style="stroke: #000000; stroke-linecap: round"/>
   </g>
   <g id="patch_36">
    <path d="M 208.044627 169.809694 
Q 169.944182 146.2167 132.794284 123.212316 
" clip-path="url(#pe9cb16e9e8)" style="fill: none; stroke: #000000; stroke-linecap: round"/>
    <path d="M 135.142129 127.018577 
L 132.794284 123.212316 
L 137.248 123.617796 
z
" clip-path="url(#pe9cb16e9e8)" style="stroke: #000000; stroke-linecap: round"/>
   </g>
   <g id="patch_37">
    <path d="M 208.044627 169.809694 
Q 169.944182 146.2167 132.794284 123.212316 
" clip-path="url(#pe9cb16e9e8)" style="fill: none; stroke: #000000; stroke-linecap: round"/>
    <path d="M 135.142129 127.018577 
L 132.794284 123.212316 
L 137.248 123.617796 
z
" clip-path="url(#pe9cb16e9e8)" style="stroke: #000000; stroke-linecap: round"/>
   </g>
   <g id="patch_38">
    <path d="M 207.828888 171.355478 
Q 148.523966 188.09225 90.295048 204.525357 
" clip-path="url(#pe9cb16e9e8)" style="fill: none; stroke: #000000; stroke-linecap: round"/>
    <path d="M 94.687895 205.363747 
L 90.295048 204.525357 
L 93.601468 201.514113 
z
" clip-path="url(#pe9cb16e9e8)" style="stroke: #000000; stroke-linecap: round"/>
   </g>
   <g id="patch_39">
    <path d="M 210.303847 172.668838 
Q 221.544592 206.449508 232.432335 239.169334 
" clip-path="url(#pe9cb16e9e8)" style="fill: none; stroke: #000000; stroke-linecap: round"/>
    <path d="M 233.067088 234.742474 
L 232.432335 239.169334 
L 229.271699 236.005416 
z
" clip-path="url(#pe9cb16e9e8)" style="stroke: #000000; stroke-linecap: round"/>
   </g>
   <g id="patch_40">
    <path d="M 151.140301 174.939589 
Q 166.894555 198.904013 182.03464 221.934201 
" clip-path="url(#pe9cb16e9e8)" style="fill: none; stroke: #000000; stroke-linecap: round"/>
    <path d="M 181.508537 217.493118 
L 182.03464 221.934201 
L 178.166112 219.690434 
z
" clip-path="url(#pe9cb16e9e8)" style="stroke: #000000; stroke-linecap: round"/>
   </g>
   <g id="patch_41">
    <path d="M 152.006923 173.238072 
Q 179.882933 172.074244 206.641882 170.957054 
" clip-path="url(#pe9cb16e9e8)" style="fill: none; stroke: #000000; stroke-linecap: round"/>
    <path d="M 202.561936 169.12565 
L 206.641882 170.957054 
L 202.728791 173.122168 
z
" clip-path="url(#pe9cb16e9e8)" style="stroke: #000000; stroke-linecap: round"/>
   </g>
   <g id="patch_42">
    <path d="M 152.006923 173.238072 
Q 179.882933 172.074244 206.641882 170.957054 
" clip-path="url(#pe9cb16e9e8)" style="fill: none; stroke: #000000; stroke-linecap: round"/>
    <path d="M 202.561936 169.12565 
L 206.641882 170.957054 
L 202.728791 173.122168 
z
" clip-path="url(#pe9cb16e9e8)" style="stroke: #000000; stroke-linecap: round"/>
   </g>
   <g id="patch_43">
    <path d="M 152.006923 173.238072 
Q 179.882933 172.074244 206.641882 170.957054 
" clip-path="url(#pe9cb16e9e8)" style="fill: none; stroke: #000000; stroke-linecap: round"/>
    <path d="M 202.561936 169.12565 
L 206.641882 170.957054 
L 202.728791 173.122168 
z
" clip-path="url(#pe9cb16e9e8)" style="stroke: #000000; stroke-linecap: round"/>
   </g>
   <g id="patch_44">
    <path d="M 149.379578 171.510122 
Q 140.135613 147.460317 131.292773 124.45411 
" clip-path="url(#pe9cb16e9e8)" style="fill: none; stroke: #000000; stroke-linecap: round"/>
    <path d="M 130.861037 128.905358 
L 131.292773 124.45411 
L 134.59473 127.470247 
z
" clip-path="url(#pe9cb16e9e8)" style="stroke: #000000; stroke-linecap: round"/>
   </g>
   <g id="patch_45">
    <path d="M 149.379578 171.510122 
Q 140.135613 147.460317 131.292773 124.45411 
" clip-path="url(#pe9cb16e9e8)" style="fill: none; stroke: #000000; stroke-linecap: round"/>
    <path d="M 130.861037 128.905358 
L 131.292773 124.45411 
L 134.59473 127.470247 
z
" clip-path="url(#pe9cb16e9e8)" style="stroke: #000000; stroke-linecap: round"/>
   </g>
   <g id="patch_46">
    <path d="M 148.348276 174.2006 
Q 118.713461 189.337638 90.074314 203.966102 
" clip-path="url(#pe9cb16e9e8)" style="fill: none; stroke: #000000; stroke-linecap: round"/>
    <path d="M 94.546285 203.927682 
L 90.074314 203.966102 
L 92.72676 200.365473 
z
" clip-path="url(#pe9cb16e9e8)" style="stroke: #000000; stroke-linecap: round"/>
   </g>
   <g id="patch_47">
    <path d="M 151.567347 174.550234 
Q 191.733568 207.690125 231.037396 240.118483 
" clip-path="url(#pe9cb16e9e8)" style="fill: none; stroke: #000000; stroke-linecap: round"/>
    <path d="M 229.224836 236.030131 
L 231.037396 240.118483 
L 226.679178 239.11552 
z
" clip-path="url(#pe9cb16e9e8)" style="stroke: #000000; stroke-linecap: round"/>
   </g>
   <g id="patch_48">
    <path d="M 131.090702 123.321648 
Q 156.954318 173.044174 182.302001 221.774826 
" clip-path="url(#pe9cb16e9e8)" style="fill: none; stroke: #000000; stroke-linecap: round"/>
    <path d="M 182.230464 217.303262 
L 182.302001 221.774826 
L 178.681828 219.149117 
z
" clip-path="url(#pe9cb16e9e8)" style="stroke: #000000; stroke-linecap: round"/>
   </g>
   <g id="patch_49">
    <path d="M 128.840136 120.225875 
Q 85.09271 75.7978 42.129727 32.166374 
" clip-path="url(#pe9cb16e9e8)" style="fill: none; stroke: #000000; stroke-linecap: round"/>
    <path d="M 43.511149 36.419804 
L 42.129727 32.166374 
L 46.361325 33.613294 
z
" clip-path="url(#pe9cb16e9e8)" style="stroke: #000000; stroke-linecap: round"/>
   </g>
   <g id="patch_50">
    <path d="M 131.84461 122.624248 
Q 169.945055 146.217241 207.094953 169.221626 
" clip-path="url(#pe9cb16e9e8)" style="fill: none; stroke: #000000; stroke-linecap: round"/>
    <path d="M 204.747107 165.415365 
L 207.094953 169.221626 
L 202.641237 168.816146 
z
" clip-path="url(#pe9cb16e9e8)" style="stroke: #000000; stroke-linecap: round"/>
   </g>
   <g id="patch_51">
    <path d="M 131.84461 122.624248 
Q 169.945055 146.217241 207.094953 169.221626 
" clip-path="url(#pe9cb16e9e8)" style="fill: none; stroke: #000000; stroke-linecap: round"/>
    <path d="M 204.747107 165.415365 
L 207.094953 169.221626 
L 202.641237 168.816146 
z
" clip-path="url(#pe9cb16e9e8)" style="stroke: #000000; stroke-linecap: round"/>
   </g>
   <g id="patch_52">
    <path d="M 130.892544 123.412844 
Q 140.136509 147.462649 148.979349 170.468856 
" clip-path="url(#pe9cb16e9e8)" style="fill: none; stroke: #000000; stroke-linecap: round"/>
    <path d="M 149.411085 166.017608 
L 148.979349 170.468856 
L 145.677393 167.452718 
z
" clip-path="url(#pe9cb16e9e8)" style="stroke: #000000; stroke-linecap: round"/>
   </g>
   <g id="patch_53">
    <path d="M 130.892544 123.412844 
Q 140.136509 147.462649 148.979349 170.468856 
" clip-path="url(#pe9cb16e9e8)" style="fill: none; stroke: #000000; stroke-linecap: round"/>
    <path d="M 149.411085 166.017608 
L 148.979349 170.468856 
L 145.677393 167.452718 
z
" clip-path="url(#pe9cb16e9e8)" style="stroke: #000000; stroke-linecap: round"/>
   </g>
   <g id="patch_54">
    <path d="M 74.462989 314.377991 
Q 128.339212 270.048024 181.352085 226.42843 
" clip-path="url(#pe9cb16e9e8)" style="fill: none; stroke: #000000; stroke-linecap: round"/>
    <path d="M 176.992523 227.425533 
L 181.352085 226.42843 
L 179.53403 230.514342 
z
" clip-path="url(#pe9cb16e9e8)" style="stroke: #000000; stroke-linecap: round"/>
   </g>
   <g id="patch_55">
    <path d="M 89.251705 205.731654 
Q 135.532205 214.920402 180.716077 223.89142 
" clip-path="url(#pe9cb16e9e8)" style="fill: none; stroke: #000000; stroke-linecap: round"/>
    <path d="M 177.182147 221.150738 
L 180.716077 223.89142 
L 176.403173 225.074155 
z
" clip-path="url(#pe9cb16e9e8)" style="stroke: #000000; stroke-linecap: round"/>
   </g>
   <g id="patch_56">
    <path d="M 89.218 204.829316 
Q 148.522923 188.092544 206.751841 171.659438 
" clip-path="url(#pe9cb16e9e8)" style="fill: none; stroke: #000000; stroke-linecap: round"/>
    <path d="M 202.358994 170.821047 
L 206.751841 171.659438 
L 203.44542 174.670681 
z
" clip-path="url(#pe9cb16e9e8)" style="stroke: #000000; stroke-linecap: round"/>
   </g>
   <g id="patch_57">
    <path d="M 89.081498 204.473218 
Q 118.716313 189.336181 147.35546 174.707717 
" clip-path="url(#pe9cb16e9e8)" style="fill: none; stroke: #000000; stroke-linecap: round"/>
    <path d="M 142.883489 174.746137 
L 147.35546 174.707717 
L 144.703014 178.308346 
z
" clip-path="url(#pe9cb16e9e8)" style="stroke: #000000; stroke-linecap: round"/>
   </g>
   <g id="patch_58">
    <path d="M 318.095707 254.929007 
Q 301.279892 238.109405 285.254557 222.080462 
" clip-path="url(#pe9cb16e9e8)" style="fill: none; stroke: #000000; stroke-linecap: round"/>
    <path d="M 286.668293 226.323261 
L 285.254557 222.080462 
L 289.497039 223.495153 
z
" clip-path="url(#pe9cb16e9e8)" style="stroke: #000000; stroke-linecap: round"/>
   </g>
   <g id="patch_59">
    <path d="M 317.580381 255.857252 
Q 251.588064 240.392462 186.684292 225.182764 
" clip-path="url(#pe9cb16e9e8)" style="fill: none; stroke: #000000; stroke-linecap: round"/>
    <path d="M 190.122463 228.042655 
L 186.684292 225.182764 
L 191.035108 224.148161 
z
" clip-path="url(#pe9cb16e9e8)" style="stroke: #000000; stroke-linecap: round"/>
   </g>
   <g id="patch_60">
    <path d="M 317.555811 255.983169 
Q 276.429859 249.181475 236.406957 242.56221 
" clip-path="url(#pe9cb16e9e8)" style="fill: none; stroke: #000000; stroke-linecap: round"/>
    <path d="M 240.027008 245.188088 
L 236.406957 242.56221 
L 240.67969 241.241696 
z
" clip-path="url(#pe9cb16e9e8)" style="stroke: #000000; stroke-linecap: round"/>
   </g>
   <g id="patch_61">
    <path d="M 235.16408 241.276211 
Q 258.244447 230.992472 280.303567 221.163762 
" clip-path="url(#pe9cb16e9e8)" style="fill: none; stroke: #000000; stroke-linecap: round"/>
    <path d="M 275.835856 220.964861 
L 280.303567 221.163762 
L 277.463819 224.61859 
z
" clip-path="url(#pe9cb16e9e8)" style="stroke: #000000; stroke-linecap: round"/>
   </g>
   <g id="patch_62">
    <path d="M 235.16408 241.276211 
Q 258.244447 230.992472 280.303567 221.163762 
" clip-path="url(#pe9cb16e9e8)" style="fill: none; stroke: #000000; stroke-linecap: round"/>
    <path d="M 275.835856 220.964861 
L 280.303567 221.163762 
L 277.463819 224.61859 
z
" clip-path="url(#pe9cb16e9e8)" style="stroke: #000000; stroke-linecap: round"/>
   </g>
   <g id="patch_63">
    <path d="M 231.567061 241.417234 
Q 208.552492 233.274712 186.591934 225.505097 
" clip-path="url(#pe9cb16e9e8)" style="fill: none; stroke: #000000; stroke-linecap: round"/>
    <path d="M 189.695801 228.724725 
L 186.591934 225.505097 
L 191.029957 224.95378 
z
" clip-path="url(#pe9cb16e9e8)" style="stroke: #000000; stroke-linecap: round"/>
   </g>
   <g id="patch_64">
    <path d="M 231.567061 241.417234 
Q 208.552492 233.274712 186.591934 225.505097 
" clip-path="url(#pe9cb16e9e8)" style="fill: none; stroke: #000000; stroke-linecap: round"/>
    <path d="M 189.695801 228.724725 
L 186.591934 225.505097 
L 191.029957 224.95378 
z
" clip-path="url(#pe9cb16e9e8)" style="stroke: #000000; stroke-linecap: round"/>
   </g>
   <g id="patch_65">
    <path d="M 232.783632 240.225051 
Q 221.542886 206.444381 210.655144 173.724555 
" clip-path="url(#pe9cb16e9e8)" style="fill: none; stroke: #000000; stroke-linecap: round"/>
    <path d="M 210.020391 178.151415 
L 210.655144 173.724555 
L 213.81578 176.888474 
z
" clip-path="url(#pe9cb16e9e8)" style="stroke: #000000; stroke-linecap: round"/>
   </g>
   <g id="patch_66">
    <path d="M 231.903017 240.83268 
Q 191.736796 207.692789 152.432968 175.264431 
" clip-path="url(#pe9cb16e9e8)" style="fill: none; stroke: #000000; stroke-linecap: round"/>
    <path d="M 154.245528 179.352783 
L 152.432968 175.264431 
L 156.791186 176.267394 
z
" clip-path="url(#pe9cb16e9e8)" style="stroke: #000000; stroke-linecap: round"/>
   </g>
   <g id="patch_67">
    <path d="M 235.30518 242.379991 
Q 276.431131 249.181685 316.454033 255.80095 
" clip-path="url(#pe9cb16e9e8)" style="fill: none; stroke: #000000; stroke-linecap: round"/>
    <path d="M 312.833982 253.175072 
L 316.454033 255.80095 
L 312.181301 257.121464 
z
" clip-path="url(#pe9cb16e9e8)" style="stroke: #000000; stroke-linecap: round"/>
   </g>
   <g id="PathCollection_1">
    <defs>
     <path id="m2d9dc9f6a5" d="M 0 1.936492 
C 0.513564 1.936492 1.006162 1.732451 1.369306 1.369306 
C 1.732451 1.006162 1.936492 0.513564 1.936492 0 
C 1.936492 -0.513564 1.732451 -1.006162 1.369306 -1.369306 
C 1.006162 -1.732451 0.513564 -1.936492 0 -1.936492 
C -0.513564 -1.936492 -1.006162 -1.732451 -1.369306 -1.369306 
C -1.732451 -1.006162 -1.936492 -0.513564 -1.936492 0 
C -1.936492 0.513564 -1.732451 1.006162 -1.369306 1.369306 
C -1.006162 1.732451 -0.513564 1.936492 0 1.936492 
z
" style="stroke: #1f78b4"/>
    </defs>
    <g clip-path="url(#pe9cb16e9e8)">
     <use xlink:href="#m2d9dc9f6a5" x="283.094714" y="219.920132" style="fill: #1f78b4; stroke: #1f78b4"/>
     <use xlink:href="#m2d9dc9f6a5" x="183.712412" y="224.486327" style="fill: #1f78b4; stroke: #1f78b4"/>
     <use xlink:href="#m2d9dc9f6a5" x="295.722867" y="71.040902" style="fill: #1f78b4; stroke: #1f78b4"/>
     <use xlink:href="#m2d9dc9f6a5" x="420.813223" y="286.68383" style="fill: #1f78b4; stroke: #1f78b4"/>
     <use xlink:href="#m2d9dc9f6a5" x="39.986777" y="29.990083" style="fill: #1f78b4; stroke: #1f78b4"/>
     <use xlink:href="#m2d9dc9f6a5" x="209.691867" y="170.829716" style="fill: #1f78b4; stroke: #1f78b4"/>
     <use xlink:href="#m2d9dc9f6a5" x="150.074752" y="173.318741" style="fill: #1f78b4; stroke: #1f78b4"/>
     <use xlink:href="#m2d9dc9f6a5" x="130.19737" y="121.604225" style="fill: #1f78b4; stroke: #1f78b4"/>
     <use xlink:href="#m2d9dc9f6a5" x="72.965774" y="315.609917" style="fill: #1f78b4; stroke: #1f78b4"/>
     <use xlink:href="#m2d9dc9f6a5" x="87.355021" y="205.355078" style="fill: #1f78b4; stroke: #1f78b4"/>
     <use xlink:href="#m2d9dc9f6a5" x="319.465379" y="256.298987" style="fill: #1f78b4; stroke: #1f78b4"/>
     <use xlink:href="#m2d9dc9f6a5" x="233.395612" y="242.064173" style="fill: #1f78b4; stroke: #1f78b4"/>
    </g>
   </g>
   <g id="text_1">
    <g clip-path="url(#pe9cb16e9e8)">
     <!-- 0 -->
     <g transform="translate(279.913464 222.679507) scale(0.1 -0.1)">
      <defs>
       <path id="DejaVuSans-30" d="M 2034 4250 
Q 1547 4250 1301 3770 
Q 1056 3291 1056 2328 
Q 1056 1369 1301 889 
Q 1547 409 2034 409 
Q 2525 409 2770 889 
Q 3016 1369 3016 2328 
Q 3016 3291 2770 3770 
Q 2525 4250 2034 4250 
z
M 2034 4750 
Q 2819 4750 3233 4129 
Q 3647 3509 3647 2328 
Q 3647 1150 3233 529 
Q 2819 -91 2034 -91 
Q 1250 -91 836 529 
Q 422 1150 422 2328 
Q 422 3509 836 4129 
Q 1250 4750 2034 4750 
z
" transform="scale(0.015625)"/>
      </defs>
      <use xlink:href="#DejaVuSans-30"/>
     </g>
    </g>
   </g>
   <g id="text_2">
    <g clip-path="url(#pe9cb16e9e8)">
     <!-- 1 -->
     <g transform="translate(180.531162 227.245702) scale(0.1 -0.1)">
      <defs>
       <path id="DejaVuSans-31" d="M 794 531 
L 1825 531 
L 1825 4091 
L 703 3866 
L 703 4441 
L 1819 4666 
L 2450 4666 
L 2450 531 
L 3481 531 
L 3481 0 
L 794 0 
L 794 531 
z
" transform="scale(0.015625)"/>
      </defs>
      <use xlink:href="#DejaVuSans-31"/>
     </g>
    </g>
   </g>
   <g id="text_3">
    <g clip-path="url(#pe9cb16e9e8)">
     <!-- 2 -->
     <g transform="translate(292.541617 73.800277) scale(0.1 -0.1)">
      <defs>
       <path id="DejaVuSans-32" d="M 1228 531 
L 3431 531 
L 3431 0 
L 469 0 
L 469 531 
Q 828 903 1448 1529 
Q 2069 2156 2228 2338 
Q 2531 2678 2651 2914 
Q 2772 3150 2772 3378 
Q 2772 3750 2511 3984 
Q 2250 4219 1831 4219 
Q 1534 4219 1204 4116 
Q 875 4013 500 3803 
L 500 4441 
Q 881 4594 1212 4672 
Q 1544 4750 1819 4750 
Q 2544 4750 2975 4387 
Q 3406 4025 3406 3419 
Q 3406 3131 3298 2873 
Q 3191 2616 2906 2266 
Q 2828 2175 2409 1742 
Q 1991 1309 1228 531 
z
" transform="scale(0.015625)"/>
      </defs>
      <use xlink:href="#DejaVuSans-32"/>
     </g>
    </g>
   </g>
   <g id="text_4">
    <g clip-path="url(#pe9cb16e9e8)">
     <!-- 3 -->
     <g transform="translate(417.631973 289.443205) scale(0.1 -0.1)">
      <defs>
       <path id="DejaVuSans-33" d="M 2597 2516 
Q 3050 2419 3304 2112 
Q 3559 1806 3559 1356 
Q 3559 666 3084 287 
Q 2609 -91 1734 -91 
Q 1441 -91 1130 -33 
Q 819 25 488 141 
L 488 750 
Q 750 597 1062 519 
Q 1375 441 1716 441 
Q 2309 441 2620 675 
Q 2931 909 2931 1356 
Q 2931 1769 2642 2001 
Q 2353 2234 1838 2234 
L 1294 2234 
L 1294 2753 
L 1863 2753 
Q 2328 2753 2575 2939 
Q 2822 3125 2822 3475 
Q 2822 3834 2567 4026 
Q 2313 4219 1838 4219 
Q 1578 4219 1281 4162 
Q 984 4106 628 3988 
L 628 4550 
Q 988 4650 1302 4700 
Q 1616 4750 1894 4750 
Q 2613 4750 3031 4423 
Q 3450 4097 3450 3541 
Q 3450 3153 3228 2886 
Q 3006 2619 2597 2516 
z
" transform="scale(0.015625)"/>
      </defs>
      <use xlink:href="#DejaVuSans-33"/>
     </g>
    </g>
   </g>
   <g id="text_5">
    <g clip-path="url(#pe9cb16e9e8)">
     <!-- 4 -->
     <g transform="translate(36.805527 32.749458) scale(0.1 -0.1)">
      <defs>
       <path id="DejaVuSans-34" d="M 2419 4116 
L 825 1625 
L 2419 1625 
L 2419 4116 
z
M 2253 4666 
L 3047 4666 
L 3047 1625 
L 3713 1625 
L 3713 1100 
L 3047 1100 
L 3047 0 
L 2419 0 
L 2419 1100 
L 313 1100 
L 313 1709 
L 2253 4666 
z
" transform="scale(0.015625)"/>
      </defs>
      <use xlink:href="#DejaVuSans-34"/>
     </g>
    </g>
   </g>
   <g id="text_6">
    <g clip-path="url(#pe9cb16e9e8)">
     <!-- 7 -->
     <g transform="translate(206.510617 173.589091) scale(0.1 -0.1)">
      <defs>
       <path id="DejaVuSans-37" d="M 525 4666 
L 3525 4666 
L 3525 4397 
L 1831 0 
L 1172 0 
L 2766 4134 
L 525 4134 
L 525 4666 
z
" transform="scale(0.015625)"/>
      </defs>
      <use xlink:href="#DejaVuSans-37"/>
     </g>
    </g>
   </g>
   <g id="text_7">
    <g clip-path="url(#pe9cb16e9e8)">
     <!-- 8 -->
     <g transform="translate(146.893502 176.078116) scale(0.1 -0.1)">
      <defs>
       <path id="DejaVuSans-38" d="M 2034 2216 
Q 1584 2216 1326 1975 
Q 1069 1734 1069 1313 
Q 1069 891 1326 650 
Q 1584 409 2034 409 
Q 2484 409 2743 651 
Q 3003 894 3003 1313 
Q 3003 1734 2745 1975 
Q 2488 2216 2034 2216 
z
M 1403 2484 
Q 997 2584 770 2862 
Q 544 3141 544 3541 
Q 544 4100 942 4425 
Q 1341 4750 2034 4750 
Q 2731 4750 3128 4425 
Q 3525 4100 3525 3541 
Q 3525 3141 3298 2862 
Q 3072 2584 2669 2484 
Q 3125 2378 3379 2068 
Q 3634 1759 3634 1313 
Q 3634 634 3220 271 
Q 2806 -91 2034 -91 
Q 1263 -91 848 271 
Q 434 634 434 1313 
Q 434 1759 690 2068 
Q 947 2378 1403 2484 
z
M 1172 3481 
Q 1172 3119 1398 2916 
Q 1625 2713 2034 2713 
Q 2441 2713 2670 2916 
Q 2900 3119 2900 3481 
Q 2900 3844 2670 4047 
Q 2441 4250 2034 4250 
Q 1625 4250 1398 4047 
Q 1172 3844 1172 3481 
z
" transform="scale(0.015625)"/>
      </defs>
      <use xlink:href="#DejaVuSans-38"/>
     </g>
    </g>
   </g>
   <g id="text_8">
    <g clip-path="url(#pe9cb16e9e8)">
     <!-- 9 -->
     <g transform="translate(127.01612 124.3636) scale(0.1 -0.1)">
      <defs>
       <path id="DejaVuSans-39" d="M 703 97 
L 703 672 
Q 941 559 1184 500 
Q 1428 441 1663 441 
Q 2288 441 2617 861 
Q 2947 1281 2994 2138 
Q 2813 1869 2534 1725 
Q 2256 1581 1919 1581 
Q 1219 1581 811 2004 
Q 403 2428 403 3163 
Q 403 3881 828 4315 
Q 1253 4750 1959 4750 
Q 2769 4750 3195 4129 
Q 3622 3509 3622 2328 
Q 3622 1225 3098 567 
Q 2575 -91 1691 -91 
Q 1453 -91 1209 -44 
Q 966 3 703 97 
z
M 1959 2075 
Q 2384 2075 2632 2365 
Q 2881 2656 2881 3163 
Q 2881 3666 2632 3958 
Q 2384 4250 1959 4250 
Q 1534 4250 1286 3958 
Q 1038 3666 1038 3163 
Q 1038 2656 1286 2365 
Q 1534 2075 1959 2075 
z
" transform="scale(0.015625)"/>
      </defs>
      <use xlink:href="#DejaVuSans-39"/>
     </g>
    </g>
   </g>
   <g id="text_9">
    <g clip-path="url(#pe9cb16e9e8)">
     <!-- 10 -->
     <g transform="translate(66.603274 318.369292) scale(0.1 -0.1)">
      <use xlink:href="#DejaVuSans-31"/>
      <use xlink:href="#DejaVuSans-30" x="63.623047"/>
     </g>
    </g>
   </g>
   <g id="text_10">
    <g clip-path="url(#pe9cb16e9e8)">
     <!-- 11 -->
     <g transform="translate(80.992521 208.114453) scale(0.1 -0.1)">
      <use xlink:href="#DejaVuSans-31"/>
      <use xlink:href="#DejaVuSans-31" x="63.623047"/>
     </g>
    </g>
   </g>
   <g id="text_11">
    <g clip-path="url(#pe9cb16e9e8)">
     <!-- 13 -->
     <g transform="translate(313.102879 259.058362) scale(0.1 -0.1)">
      <use xlink:href="#DejaVuSans-31"/>
      <use xlink:href="#DejaVuSans-33" x="63.623047"/>
     </g>
    </g>
   </g>
   <g id="text_12">
    <g clip-path="url(#pe9cb16e9e8)">
     <!-- 14 -->
     <g transform="translate(227.033112 244.823548) scale(0.1 -0.1)">
      <use xlink:href="#DejaVuSans-31"/>
      <use xlink:href="#DejaVuSans-34" x="63.623047"/>
     </g>
    </g>
   </g>
  </g>
 </g>
 <defs>
  <clipPath id="pe9cb16e9e8">
   <rect x="0" y="0" width="460.8" height="345.6"/>
  </clipPath>
 </defs>
</svg>
