<?xml version="1.0" encoding="utf-8" standalone="no"?>
<!DOCTYPE svg PUBLIC "-//W3C//DTD SVG 1.1//EN"
  "http://www.w3.org/Graphics/SVG/1.1/DTD/svg11.dtd">
<svg xmlns:xlink="http://www.w3.org/1999/xlink" width="460.8pt" height="345.6pt" viewBox="0 0 460.8 345.6" xmlns="http://www.w3.org/2000/svg" version="1.1">
 <metadata>
  <rdf:RDF xmlns:dc="http://purl.org/dc/elements/1.1/" xmlns:cc="http://creativecommons.org/ns#" xmlns:rdf="http://www.w3.org/1999/02/22-rdf-syntax-ns#">
   <cc:Work>
    <dc:type rdf:resource="http://purl.org/dc/dcmitype/StillImage"/>
    <dc:date>2024-02-07T13:46:46.136798</dc:date>
    <dc:format>image/svg+xml</dc:format>
    <dc:creator>
     <cc:Agent>
      <dc:title>Matplotlib v3.8.0, https://matplotlib.org/</dc:title>
     </cc:Agent>
    </dc:creator>
   </cc:Work>
  </rdf:RDF>
 </metadata>
 <defs>
  <style type="text/css">*{stroke-linejoin: round; stroke-linecap: butt}</style>
 </defs>
 <g id="figure_1">
  <g id="patch_1">
   <path d="M 0 345.6 
L 460.8 345.6 
L 460.8 0 
L 0 0 
z
" style="fill: #ffffff"/>
  </g>
  <g id="axes_1">
   <g id="patch_2">
    <path d="M 264.818782 139.247571 
Q 255.638191 160.30421 246.904434 180.335989 
" clip-path="url(#pdb766eecad)" style="fill: none; stroke: #000000; stroke-linecap: round"/>
    <path d="M 250.336402 177.468658 
L 246.904434 180.335989 
L 246.66975 175.870016 
z
" clip-path="url(#pdb766eecad)" style="stroke: #000000; stroke-linecap: round"/>
   </g>
   <g id="patch_3">
    <path d="M 264.818782 139.247571 
Q 255.638191 160.30421 246.904434 180.335989 
" clip-path="url(#pdb766eecad)" style="fill: none; stroke: #000000; stroke-linecap: round"/>
    <path d="M 250.336402 177.468658 
L 246.904434 180.335989 
L 246.66975 175.870016 
z
" clip-path="url(#pdb766eecad)" style="stroke: #000000; stroke-linecap: round"/>
   </g>
   <g id="patch_4">
    <path d="M 266.664586 135.855068 
Q 301.2116 83.728646 335.140967 32.534163 
" clip-path="url(#pdb766eecad)" style="fill: none; stroke: #000000; stroke-linecap: round"/>
    <path d="M 331.2641 34.763492 
L 335.140967 32.534163 
L 334.59831 36.973254 
z
" clip-path="url(#pdb766eecad)" style="stroke: #000000; stroke-linecap: round"/>
   </g>
   <g id="patch_5">
    <path d="M 266.715346 139.049777 
Q 298.492201 183.711055 329.620888 227.461357 
" clip-path="url(#pdb766eecad)" style="fill: none; stroke: #000000; stroke-linecap: round"/>
    <path d="M 328.931539 223.042669 
L 329.620888 227.461357 
L 325.672329 225.361623 
z
" clip-path="url(#pdb766eecad)" style="stroke: #000000; stroke-linecap: round"/>
   </g>
   <g id="patch_6">
    <path d="M 267.05084 138.747651 
Q 277.279555 147.696098 286.666796 155.908393 
" clip-path="url(#pdb766eecad)" style="fill: none; stroke: #000000; stroke-linecap: round"/>
    <path d="M 284.973114 151.769379 
L 286.666796 155.908393 
L 282.339375 154.77993 
z
" clip-path="url(#pdb766eecad)" style="stroke: #000000; stroke-linecap: round"/>
   </g>
   <g id="patch_7">
    <path d="M 267.05084 138.747651 
Q 277.279555 147.696098 286.666796 155.908393 
" clip-path="url(#pdb766eecad)" style="fill: none; stroke: #000000; stroke-linecap: round"/>
    <path d="M 284.973114 151.769379 
L 286.666796 155.908393 
L 282.339375 154.77993 
z
" clip-path="url(#pdb766eecad)" style="stroke: #000000; stroke-linecap: round"/>
   </g>
   <g id="patch_8">
    <path d="M 264.026653 138.610029 
Q 233.596912 160.717813 204.071691 182.168448 
" clip-path="url(#pdb766eecad)" style="fill: none; stroke: #000000; stroke-linecap: round"/>
    <path d="M 208.48334 181.435409 
L 204.071691 182.168448 
L 206.132249 178.199304 
z
" clip-path="url(#pdb766eecad)" style="stroke: #000000; stroke-linecap: round"/>
   </g>
   <g id="patch_9">
    <path d="M 264.026653 138.610029 
Q 233.596912 160.717813 204.071691 182.168448 
" clip-path="url(#pdb766eecad)" style="fill: none; stroke: #000000; stroke-linecap: round"/>
    <path d="M 208.48334 181.435409 
L 204.071691 182.168448 
L 206.132249 178.199304 
z
" clip-path="url(#pdb766eecad)" style="stroke: #000000; stroke-linecap: round"/>
   </g>
   <g id="patch_10">
    <path d="M 264.026653 138.610029 
Q 233.596912 160.717813 204.071691 182.168448 
" clip-path="url(#pdb766eecad)" style="fill: none; stroke: #000000; stroke-linecap: round"/>
    <path d="M 208.48334 181.435409 
L 204.071691 182.168448 
L 206.132249 178.199304 
z
" clip-path="url(#pdb766eecad)" style="stroke: #000000; stroke-linecap: round"/>
   </g>
   <g id="patch_11">
    <path d="M 246.457328 181.361472 
Q 255.63792 160.304832 264.371677 140.273053 
" clip-path="url(#pdb766eecad)" style="fill: none; stroke: #000000; stroke-linecap: round"/>
    <path d="M 260.939708 143.140384 
L 264.371677 140.273053 
L 264.606361 144.739027 
z
" clip-path="url(#pdb766eecad)" style="stroke: #000000; stroke-linecap: round"/>
   </g>
   <g id="patch_12">
    <path d="M 246.457328 181.361472 
Q 255.63792 160.304832 264.371677 140.273053 
" clip-path="url(#pdb766eecad)" style="fill: none; stroke: #000000; stroke-linecap: round"/>
    <path d="M 260.939708 143.140384 
L 264.371677 140.273053 
L 264.606361 144.739027 
z
" clip-path="url(#pdb766eecad)" style="stroke: #000000; stroke-linecap: round"/>
   </g>
   <g id="patch_13">
    <path d="M 243.748746 183.173155 
Q 223.643513 183.550073 204.656118 183.906034 
" clip-path="url(#pdb766eecad)" style="fill: none; stroke: #000000; stroke-linecap: round"/>
    <path d="M 208.692903 185.830707 
L 204.656118 183.906034 
L 208.617927 181.831409 
z
" clip-path="url(#pdb766eecad)" style="stroke: #000000; stroke-linecap: round"/>
   </g>
   <g id="patch_14">
    <path d="M 243.748746 183.173155 
Q 223.643513 183.550073 204.656118 183.906034 
" clip-path="url(#pdb766eecad)" style="fill: none; stroke: #000000; stroke-linecap: round"/>
    <path d="M 208.692903 185.830707 
L 204.656118 183.906034 
L 208.617927 181.831409 
z
" clip-path="url(#pdb766eecad)" style="stroke: #000000; stroke-linecap: round"/>
   </g>
   <g id="patch_15">
    <path d="M 243.748746 183.173155 
Q 223.643513 183.550073 204.656118 183.906034 
" clip-path="url(#pdb766eecad)" style="fill: none; stroke: #000000; stroke-linecap: round"/>
    <path d="M 208.692903 185.830707 
L 204.656118 183.906034 
L 208.617927 181.831409 
z
" clip-path="url(#pdb766eecad)" style="stroke: #000000; stroke-linecap: round"/>
   </g>
   <g id="patch_16">
    <path d="M 243.758939 183.336077 
Q 203.477826 187.505633 164.308806 191.560074 
" clip-path="url(#pdb766eecad)" style="fill: none; stroke: #000000; stroke-linecap: round"/>
    <path d="M 168.49347 193.137599 
L 164.308806 191.560074 
L 168.081624 189.158858 
z
" clip-path="url(#pdb766eecad)" style="stroke: #000000; stroke-linecap: round"/>
   </g>
   <g id="patch_17">
    <path d="M 243.874454 182.446311 
Q 191.899432 162.602891 140.968909 143.158248 
" clip-path="url(#pdb766eecad)" style="fill: none; stroke: #000000; stroke-linecap: round"/>
    <path d="M 143.992467 146.45341 
L 140.968909 143.158248 
L 145.419174 142.716498 
z
" clip-path="url(#pdb766eecad)" style="stroke: #000000; stroke-linecap: round"/>
   </g>
   <g id="patch_18">
    <path d="M 247.49243 182.440795 
Q 301.089438 161.818934 353.642984 141.598554 
" clip-path="url(#pdb766eecad)" style="fill: none; stroke: #000000; stroke-linecap: round"/>
    <path d="M 349.19159 141.168331 
L 353.642984 141.598554 
L 350.627969 144.901535 
z
" clip-path="url(#pdb766eecad)" style="stroke: #000000; stroke-linecap: round"/>
   </g>
   <g id="patch_19">
    <path d="M 244.559521 184.71461 
Q 221.102478 217.648259 198.294052 249.671251 
" clip-path="url(#pdb766eecad)" style="fill: none; stroke: #000000; stroke-linecap: round"/>
    <path d="M 202.243647 247.573467 
L 198.294052 249.671251 
L 198.985582 245.252905 
z
" clip-path="url(#pdb766eecad)" style="stroke: #000000; stroke-linecap: round"/>
   </g>
   <g id="patch_20">
    <path d="M 247.380797 184.06408 
Q 288.536559 206.543216 328.711111 228.486418 
" clip-path="url(#pdb766eecad)" style="fill: none; stroke: #000000; stroke-linecap: round"/>
    <path d="M 326.159332 224.813758 
L 328.711111 228.486418 
L 324.241916 228.324245 
z
" clip-path="url(#pdb766eecad)" style="stroke: #000000; stroke-linecap: round"/>
   </g>
   <g id="patch_21">
    <path d="M 247.355505 182.16263 
Q 267.324049 170.528886 286.326551 159.457961 
" clip-path="url(#pdb766eecad)" style="fill: none; stroke: #000000; stroke-linecap: round"/>
    <path d="M 281.863538 159.743456 
L 286.326551 159.457961 
L 283.877139 163.199669 
z
" clip-path="url(#pdb766eecad)" style="stroke: #000000; stroke-linecap: round"/>
   </g>
   <g id="patch_22">
    <path d="M 247.355505 182.16263 
Q 267.324049 170.528886 286.326551 159.457961 
" clip-path="url(#pdb766eecad)" style="fill: none; stroke: #000000; stroke-linecap: round"/>
    <path d="M 281.863538 159.743456 
L 286.326551 159.457961 
L 283.877139 163.199669 
z
" clip-path="url(#pdb766eecad)" style="stroke: #000000; stroke-linecap: round"/>
   </g>
   <g id="patch_23">
    <path d="M 129.317912 286.425689 
Q 164.900358 235.987167 199.83831 186.462224 
" clip-path="url(#pdb766eecad)" style="fill: none; stroke: #000000; stroke-linecap: round"/>
    <path d="M 195.898235 188.577835 
L 199.83831 186.462224 
L 199.166754 190.883651 
z
" clip-path="url(#pdb766eecad)" style="stroke: #000000; stroke-linecap: round"/>
   </g>
   <g id="patch_24">
    <path d="M 335.755337 31.607168 
Q 301.208323 83.733591 267.278956 134.928073 
" clip-path="url(#pdb766eecad)" style="fill: none; stroke: #000000; stroke-linecap: round"/>
    <path d="M 271.155822 132.698744 
L 267.278956 134.928073 
L 267.821613 130.488983 
z
" clip-path="url(#pdb766eecad)" style="stroke: #000000; stroke-linecap: round"/>
   </g>
   <g id="patch_25">
    <path d="M 41.606854 78.65189 
Q 89.051856 109.828793 135.562499 140.391714 
" clip-path="url(#pdb766eecad)" style="fill: none; stroke: #000000; stroke-linecap: round"/>
    <path d="M 133.317963 136.523633 
L 135.562499 140.391714 
L 131.121312 139.866495 
z
" clip-path="url(#pdb766eecad)" style="stroke: #000000; stroke-linecap: round"/>
   </g>
   <g id="patch_26">
    <path d="M 41.920421 221.817814 
Q 100.657798 207.081473 158.310748 192.617198 
" clip-path="url(#pdb766eecad)" style="fill: none; stroke: #000000; stroke-linecap: round"/>
    <path d="M 153.944301 191.650692 
L 158.310748 192.617198 
L 154.917675 195.530453 
z
" clip-path="url(#pdb766eecad)" style="stroke: #000000; stroke-linecap: round"/>
   </g>
   <g id="patch_27">
    <path d="M 277.272968 42.359064 
Q 283.022019 99.175022 288.658514 154.878626 
" clip-path="url(#pdb766eecad)" style="fill: none; stroke: #000000; stroke-linecap: round"/>
    <path d="M 290.24566 150.697602 
L 288.658514 154.878626 
L 286.265982 151.100294 
z
" clip-path="url(#pdb766eecad)" style="stroke: #000000; stroke-linecap: round"/>
   </g>
   <g id="patch_28">
    <path d="M 203.167403 182.825429 
Q 233.597144 160.717645 263.122366 139.267011 
" clip-path="url(#pdb766eecad)" style="fill: none; stroke: #000000; stroke-linecap: round"/>
    <path d="M 258.710716 140.00005 
L 263.122366 139.267011 
L 261.061807 143.236154 
z
" clip-path="url(#pdb766eecad)" style="stroke: #000000; stroke-linecap: round"/>
   </g>
   <g id="patch_29">
    <path d="M 203.167403 182.825429 
Q 233.597144 160.717645 263.122366 139.267011 
" clip-path="url(#pdb766eecad)" style="fill: none; stroke: #000000; stroke-linecap: round"/>
    <path d="M 258.710716 140.00005 
L 263.122366 139.267011 
L 261.061807 143.236154 
z
" clip-path="url(#pdb766eecad)" style="stroke: #000000; stroke-linecap: round"/>
   </g>
   <g id="patch_30">
    <path d="M 203.167403 182.825429 
Q 233.597144 160.717645 263.122366 139.267011 
" clip-path="url(#pdb766eecad)" style="fill: none; stroke: #000000; stroke-linecap: round"/>
    <path d="M 258.710716 140.00005 
L 263.122366 139.267011 
L 261.061807 143.236154 
z
" clip-path="url(#pdb766eecad)" style="stroke: #000000; stroke-linecap: round"/>
   </g>
   <g id="patch_31">
    <path d="M 203.53571 183.927038 
Q 223.640943 183.550121 242.628339 183.19416 
" clip-path="url(#pdb766eecad)" style="fill: none; stroke: #000000; stroke-linecap: round"/>
    <path d="M 238.591554 181.269487 
L 242.628339 183.19416 
L 238.666529 185.268784 
z
" clip-path="url(#pdb766eecad)" style="stroke: #000000; stroke-linecap: round"/>
   </g>
   <g id="patch_32">
    <path d="M 203.53571 183.927038 
Q 223.640943 183.550121 242.628339 183.19416 
" clip-path="url(#pdb766eecad)" style="fill: none; stroke: #000000; stroke-linecap: round"/>
    <path d="M 238.591554 181.269487 
L 242.628339 183.19416 
L 238.666529 185.268784 
z
" clip-path="url(#pdb766eecad)" style="stroke: #000000; stroke-linecap: round"/>
   </g>
   <g id="patch_33">
    <path d="M 203.53571 183.927038 
Q 223.640943 183.550121 242.628339 183.19416 
" clip-path="url(#pdb766eecad)" style="fill: none; stroke: #000000; stroke-linecap: round"/>
    <path d="M 238.591554 181.269487 
L 242.628339 183.19416 
L 238.666529 185.268784 
z
" clip-path="url(#pdb766eecad)" style="stroke: #000000; stroke-linecap: round"/>
   </g>
   <g id="patch_34">
    <path d="M 200.48343 185.547758 
Q 164.900984 235.98628 129.963032 285.511224 
" clip-path="url(#pdb766eecad)" style="fill: none; stroke: #000000; stroke-linecap: round"/>
    <path d="M 133.903107 283.395612 
L 129.963032 285.511224 
L 130.634588 281.089797 
z
" clip-path="url(#pdb766eecad)" style="stroke: #000000; stroke-linecap: round"/>
   </g>
   <g id="patch_35">
    <path d="M 199.703336 184.335592 
Q 181.437164 187.918702 164.268117 191.2866 
" clip-path="url(#pdb766eecad)" style="fill: none; stroke: #000000; stroke-linecap: round"/>
    <path d="M 168.578296 192.479227 
L 164.268117 191.2866 
L 167.808326 188.554033 
z
" clip-path="url(#pdb766eecad)" style="stroke: #000000; stroke-linecap: round"/>
   </g>
   <g id="patch_36">
    <path d="M 199.703336 184.335592 
Q 181.437164 187.918702 164.268117 191.2866 
" clip-path="url(#pdb766eecad)" style="fill: none; stroke: #000000; stroke-linecap: round"/>
    <path d="M 168.578296 192.479227 
L 164.268117 191.2866 
L 167.808326 188.554033 
z
" clip-path="url(#pdb766eecad)" style="stroke: #000000; stroke-linecap: round"/>
   </g>
   <g id="patch_37">
    <path d="M 199.703336 184.335592 
Q 181.437164 187.918702 164.268117 191.2866 
" clip-path="url(#pdb766eecad)" style="fill: none; stroke: #000000; stroke-linecap: round"/>
    <path d="M 168.578296 192.479227 
L 164.268117 191.2866 
L 167.808326 188.554033 
z
" clip-path="url(#pdb766eecad)" style="stroke: #000000; stroke-linecap: round"/>
   </g>
   <g id="patch_38">
    <path d="M 199.98534 182.897004 
Q 169.85957 163.017126 140.666966 143.753041 
" clip-path="url(#pdb766eecad)" style="fill: none; stroke: #000000; stroke-linecap: round"/>
    <path d="M 142.903999 147.625467 
L 140.666966 143.753041 
L 145.107127 144.286869 
z
" clip-path="url(#pdb766eecad)" style="stroke: #000000; stroke-linecap: round"/>
   </g>
   <g id="patch_39">
    <path d="M 199.98534 182.897004 
Q 169.85957 163.017126 140.666966 143.753041 
" clip-path="url(#pdb766eecad)" style="fill: none; stroke: #000000; stroke-linecap: round"/>
    <path d="M 142.903999 147.625467 
L 140.666966 143.753041 
L 145.107127 144.286869 
z
" clip-path="url(#pdb766eecad)" style="stroke: #000000; stroke-linecap: round"/>
   </g>
   <g id="patch_40">
    <path d="M 201.457639 185.890512 
Q 199.061181 218.060877 196.747778 249.116299 
" clip-path="url(#pdb766eecad)" style="fill: none; stroke: #000000; stroke-linecap: round"/>
    <path d="M 199.039399 245.275925 
L 196.747778 249.116299 
L 195.050452 244.978777 
z
" clip-path="url(#pdb766eecad)" style="stroke: #000000; stroke-linecap: round"/>
   </g>
   <g id="patch_41">
    <path d="M 203.459522 183.409345 
Q 245.285232 170.941233 286.0395 158.792513 
" clip-path="url(#pdb766eecad)" style="fill: none; stroke: #000000; stroke-linecap: round"/>
    <path d="M 281.634845 158.018556 
L 286.0395 158.792513 
L 282.777541 161.851864 
z
" clip-path="url(#pdb766eecad)" style="stroke: #000000; stroke-linecap: round"/>
   </g>
   <g id="patch_42">
    <path d="M 163.195269 191.675337 
Q 203.476382 187.505782 242.645403 183.451341 
" clip-path="url(#pdb766eecad)" style="fill: none; stroke: #000000; stroke-linecap: round"/>
    <path d="M 238.460739 181.873816 
L 242.645403 183.451341 
L 238.872584 185.852557 
z
" clip-path="url(#pdb766eecad)" style="stroke: #000000; stroke-linecap: round"/>
   </g>
   <g id="patch_43">
    <path d="M 159.395292 192.345102 
Q 100.657915 207.081443 43.004965 221.545719 
" clip-path="url(#pdb766eecad)" style="fill: none; stroke: #000000; stroke-linecap: round"/>
    <path d="M 47.371412 222.512224 
L 43.004965 221.545719 
L 46.398038 218.632464 
z
" clip-path="url(#pdb766eecad)" style="stroke: #000000; stroke-linecap: round"/>
   </g>
   <g id="patch_44">
    <path d="M 163.168818 191.502239 
Q 181.434991 187.919129 198.604038 184.551231 
" clip-path="url(#pdb766eecad)" style="fill: none; stroke: #000000; stroke-linecap: round"/>
    <path d="M 194.293859 183.358604 
L 198.604038 184.551231 
L 195.063829 187.283798 
z
" clip-path="url(#pdb766eecad)" style="stroke: #000000; stroke-linecap: round"/>
   </g>
   <g id="patch_45">
    <path d="M 163.168818 191.502239 
Q 181.434991 187.919129 198.604038 184.551231 
" clip-path="url(#pdb766eecad)" style="fill: none; stroke: #000000; stroke-linecap: round"/>
    <path d="M 194.293859 183.358604 
L 198.604038 184.551231 
L 195.063829 187.283798 
z
" clip-path="url(#pdb766eecad)" style="stroke: #000000; stroke-linecap: round"/>
   </g>
   <g id="patch_46">
    <path d="M 163.168818 191.502239 
Q 181.434991 187.919129 198.604038 184.551231 
" clip-path="url(#pdb766eecad)" style="fill: none; stroke: #000000; stroke-linecap: round"/>
    <path d="M 194.293859 183.358604 
L 198.604038 184.551231 
L 195.063829 187.283798 
z
" clip-path="url(#pdb766eecad)" style="stroke: #000000; stroke-linecap: round"/>
   </g>
   <g id="patch_47">
    <path d="M 160.45542 190.120482 
Q 149.692991 166.97273 139.401928 144.838789 
" clip-path="url(#pdb766eecad)" style="fill: none; stroke: #000000; stroke-linecap: round"/>
    <path d="M 139.274779 149.309117 
L 139.401928 144.838789 
L 142.901901 147.622705 
z
" clip-path="url(#pdb766eecad)" style="stroke: #000000; stroke-linecap: round"/>
   </g>
   <g id="patch_48">
    <path d="M 160.45542 190.120482 
Q 149.692991 166.97273 139.401928 144.838789 
" clip-path="url(#pdb766eecad)" style="fill: none; stroke: #000000; stroke-linecap: round"/>
    <path d="M 139.274779 149.309117 
L 139.401928 144.838789 
L 142.901901 147.622705 
z
" clip-path="url(#pdb766eecad)" style="stroke: #000000; stroke-linecap: round"/>
   </g>
   <g id="patch_49">
    <path d="M 162.249882 193.548731 
Q 178.897018 222.019354 194.979817 249.524823 
" clip-path="url(#pdb766eecad)" style="fill: none; stroke: #000000; stroke-linecap: round"/>
    <path d="M 194.6873 245.062264 
L 194.979817 249.524823 
L 191.234259 247.0813 
z
" clip-path="url(#pdb766eecad)" style="stroke: #000000; stroke-linecap: round"/>
   </g>
   <g id="patch_50">
    <path d="M 163.145387 191.37611 
Q 225.120848 174.896694 286.015821 158.704583 
" clip-path="url(#pdb766eecad)" style="fill: none; stroke: #000000; stroke-linecap: round"/>
    <path d="M 281.636201 157.799638 
L 286.015821 158.704583 
L 282.664092 161.665312 
z
" clip-path="url(#pdb766eecad)" style="stroke: #000000; stroke-linecap: round"/>
   </g>
   <g id="patch_51">
    <path d="M 139.92255 142.758761 
Q 191.897572 162.602181 242.828095 182.046824 
" clip-path="url(#pdb766eecad)" style="fill: none; stroke: #000000; stroke-linecap: round"/>
    <path d="M 239.804537 178.751662 
L 242.828095 182.046824 
L 238.37783 182.488573 
z
" clip-path="url(#pdb766eecad)" style="stroke: #000000; stroke-linecap: round"/>
   </g>
   <g id="patch_52">
    <path d="M 136.493671 141.003603 
Q 89.04867 109.826699 42.538026 79.263778 
" clip-path="url(#pdb766eecad)" style="fill: none; stroke: #000000; stroke-linecap: round"/>
    <path d="M 44.782563 83.13186 
L 42.538026 79.263778 
L 46.979214 79.788998 
z
" clip-path="url(#pdb766eecad)" style="stroke: #000000; stroke-linecap: round"/>
   </g>
   <g id="patch_53">
    <path d="M 139.72961 143.134483 
Q 169.85538 163.014361 199.047984 182.278447 
" clip-path="url(#pdb766eecad)" style="fill: none; stroke: #000000; stroke-linecap: round"/>
    <path d="M 196.810951 178.406021 
L 199.047984 182.278447 
L 194.607824 181.744618 
z
" clip-path="url(#pdb766eecad)" style="stroke: #000000; stroke-linecap: round"/>
   </g>
   <g id="patch_54">
    <path d="M 139.72961 143.134483 
Q 169.85538 163.014361 199.047984 182.278447 
" clip-path="url(#pdb766eecad)" style="fill: none; stroke: #000000; stroke-linecap: round"/>
    <path d="M 196.810951 178.406021 
L 199.047984 182.278447 
L 194.607824 181.744618 
z
" clip-path="url(#pdb766eecad)" style="stroke: #000000; stroke-linecap: round"/>
   </g>
   <g id="patch_55">
    <path d="M 138.929283 143.822227 
Q 149.691712 166.969979 159.982774 189.10392 
" clip-path="url(#pdb766eecad)" style="fill: none; stroke: #000000; stroke-linecap: round"/>
    <path d="M 160.109923 184.633592 
L 159.982774 189.10392 
L 156.482801 186.320004 
z
" clip-path="url(#pdb766eecad)" style="stroke: #000000; stroke-linecap: round"/>
   </g>
   <g id="patch_56">
    <path d="M 138.929283 143.822227 
Q 149.691712 166.969979 159.982774 189.10392 
" clip-path="url(#pdb766eecad)" style="fill: none; stroke: #000000; stroke-linecap: round"/>
    <path d="M 160.109923 184.633592 
L 159.982774 189.10392 
L 156.482801 186.320004 
z
" clip-path="url(#pdb766eecad)" style="stroke: #000000; stroke-linecap: round"/>
   </g>
   <g id="patch_57">
    <path d="M 354.68352 141.1982 
Q 301.086512 161.82006 248.532966 182.040441 
" clip-path="url(#pdb766eecad)" style="fill: none; stroke: #000000; stroke-linecap: round"/>
    <path d="M 252.98436 182.470664 
L 248.532966 182.040441 
L 251.547981 178.737459 
z
" clip-path="url(#pdb766eecad)" style="stroke: #000000; stroke-linecap: round"/>
   </g>
   <g id="patch_58">
    <path d="M 197.644733 250.582895 
Q 221.101776 217.649245 243.910202 185.626253 
" clip-path="url(#pdb766eecad)" style="fill: none; stroke: #000000; stroke-linecap: round"/>
    <path d="M 239.960607 187.724038 
L 243.910202 185.626253 
L 243.218672 190.0446 
z
" clip-path="url(#pdb766eecad)" style="stroke: #000000; stroke-linecap: round"/>
   </g>
   <g id="patch_59">
    <path d="M 196.664561 250.233409 
Q 199.061019 218.063043 201.374422 187.007622 
" clip-path="url(#pdb766eecad)" style="fill: none; stroke: #000000; stroke-linecap: round"/>
    <path d="M 199.082801 190.847996 
L 201.374422 187.007622 
L 203.071748 191.145144 
z
" clip-path="url(#pdb766eecad)" style="stroke: #000000; stroke-linecap: round"/>
   </g>
   <g id="patch_60">
    <path d="M 195.54207 250.486411 
Q 178.894933 222.015788 162.812135 194.510319 
" clip-path="url(#pdb766eecad)" style="fill: none; stroke: #000000; stroke-linecap: round"/>
    <path d="M 163.104652 198.972879 
L 162.812135 194.510319 
L 166.557693 196.953842 
z
" clip-path="url(#pdb766eecad)" style="stroke: #000000; stroke-linecap: round"/>
   </g>
   <g id="patch_61">
    <path d="M 409.229164 314.185228 
Q 370.967447 272.778786 333.464503 232.193479 
" clip-path="url(#pdb766eecad)" style="fill: none; stroke: #000000; stroke-linecap: round"/>
    <path d="M 334.710278 236.488598 
L 333.464503 232.193479 
L 337.648063 233.773931 
z
" clip-path="url(#pdb766eecad)" style="stroke: #000000; stroke-linecap: round"/>
   </g>
   <g id="patch_62">
    <path d="M 330.269644 228.373161 
Q 298.49279 183.711883 267.364103 139.961581 
" clip-path="url(#pdb766eecad)" style="fill: none; stroke: #000000; stroke-linecap: round"/>
    <path d="M 268.053452 144.380269 
L 267.364103 139.961581 
L 271.312662 142.061315 
z
" clip-path="url(#pdb766eecad)" style="stroke: #000000; stroke-linecap: round"/>
   </g>
   <g id="patch_63">
    <path d="M 329.694594 229.023593 
Q 288.538832 206.544457 248.36428 184.601256 
" clip-path="url(#pdb766eecad)" style="fill: none; stroke: #000000; stroke-linecap: round"/>
    <path d="M 250.916059 188.273915 
L 248.36428 184.601256 
L 252.833475 184.763428 
z
" clip-path="url(#pdb766eecad)" style="stroke: #000000; stroke-linecap: round"/>
   </g>
   <g id="patch_64">
    <path d="M 332.708623 231.375474 
Q 370.97034 272.781916 408.473284 313.367222 
" clip-path="url(#pdb766eecad)" style="fill: none; stroke: #000000; stroke-linecap: round"/>
    <path d="M 407.227509 309.072103 
L 408.473284 313.367222 
L 404.289724 311.786771 
z
" clip-path="url(#pdb766eecad)" style="stroke: #000000; stroke-linecap: round"/>
   </g>
   <g id="patch_65">
    <path d="M 330.409432 228.282348 
Q 310.179836 193.936495 290.51765 160.553993 
" clip-path="url(#pdb766eecad)" style="fill: none; stroke: #000000; stroke-linecap: round"/>
    <path d="M 290.824385 165.015598 
L 290.51765 160.553993 
L 294.270974 162.985568 
z
" clip-path="url(#pdb766eecad)" style="stroke: #000000; stroke-linecap: round"/>
   </g>
   <g id="patch_66">
    <path d="M 287.508282 156.644555 
Q 277.279567 147.696108 267.892326 139.483814 
" clip-path="url(#pdb766eecad)" style="fill: none; stroke: #000000; stroke-linecap: round"/>
    <path d="M 269.586009 143.622828 
L 267.892326 139.483814 
L 272.219747 140.612276 
z
" clip-path="url(#pdb766eecad)" style="stroke: #000000; stroke-linecap: round"/>
   </g>
   <g id="patch_67">
    <path d="M 287.508282 156.644555 
Q 277.279567 147.696108 267.892326 139.483814 
" clip-path="url(#pdb766eecad)" style="fill: none; stroke: #000000; stroke-linecap: round"/>
    <path d="M 269.586009 143.622828 
L 267.892326 139.483814 
L 272.219747 140.612276 
z
" clip-path="url(#pdb766eecad)" style="stroke: #000000; stroke-linecap: round"/>
   </g>
   <g id="patch_68">
    <path d="M 287.294017 158.894312 
Q 267.325474 170.528056 248.322971 181.598981 
" clip-path="url(#pdb766eecad)" style="fill: none; stroke: #000000; stroke-linecap: round"/>
    <path d="M 252.785985 181.313486 
L 248.322971 181.598981 
L 250.772383 177.857273 
z
" clip-path="url(#pdb766eecad)" style="stroke: #000000; stroke-linecap: round"/>
   </g>
   <g id="patch_69">
    <path d="M 287.294017 158.894312 
Q 267.325474 170.528056 248.322971 181.598981 
" clip-path="url(#pdb766eecad)" style="fill: none; stroke: #000000; stroke-linecap: round"/>
    <path d="M 252.785985 181.313486 
L 248.322971 181.598981 
L 250.772383 177.857273 
z
" clip-path="url(#pdb766eecad)" style="stroke: #000000; stroke-linecap: round"/>
   </g>
   <g id="patch_70">
    <path d="M 288.771445 155.994694 
Q 283.022395 99.178736 277.3859 43.475131 
" clip-path="url(#pdb766eecad)" style="fill: none; stroke: #000000; stroke-linecap: round"/>
    <path d="M 275.798754 47.656156 
L 277.3859 43.475131 
L 279.778432 47.253463 
z
" clip-path="url(#pdb766eecad)" style="stroke: #000000; stroke-linecap: round"/>
   </g>
   <g id="patch_71">
    <path d="M 287.107947 158.474013 
Q 245.282237 170.942125 204.527969 183.090845 
" clip-path="url(#pdb766eecad)" style="fill: none; stroke: #000000; stroke-linecap: round"/>
    <path d="M 208.932624 183.864802 
L 204.527969 183.090845 
L 207.789927 180.031494 
z
" clip-path="url(#pdb766eecad)" style="stroke: #000000; stroke-linecap: round"/>
   </g>
   <g id="patch_72">
    <path d="M 287.091833 158.418469 
Q 225.116372 174.897885 164.2214 191.089996 
" clip-path="url(#pdb766eecad)" style="fill: none; stroke: #000000; stroke-linecap: round"/>
    <path d="M 168.60102 191.994941 
L 164.2214 191.089996 
L 167.573128 188.129267 
z
" clip-path="url(#pdb766eecad)" style="stroke: #000000; stroke-linecap: round"/>
   </g>
   <g id="patch_73">
    <path d="M 289.948971 159.588489 
Q 310.178568 193.934342 329.840754 227.316844 
" clip-path="url(#pdb766eecad)" style="fill: none; stroke: #000000; stroke-linecap: round"/>
    <path d="M 329.534018 222.85524 
L 329.840754 227.316844 
L 326.087429 224.88527 
z
" clip-path="url(#pdb766eecad)" style="stroke: #000000; stroke-linecap: round"/>
   </g>
   <g id="patch_74">
    <path d="M 290.901643 157.879285 
Q 354.888091 156.531435 417.756754 155.207131 
" clip-path="url(#pdb766eecad)" style="fill: none; stroke: #000000; stroke-linecap: round"/>
    <path d="M 413.715521 153.291815 
L 417.756754 155.207131 
L 413.799761 157.290928 
z
" clip-path="url(#pdb766eecad)" style="stroke: #000000; stroke-linecap: round"/>
   </g>
   <g id="patch_75">
    <path d="M 418.877848 155.183516 
Q 354.891399 156.531366 292.022736 157.85567 
" clip-path="url(#pdb766eecad)" style="fill: none; stroke: #000000; stroke-linecap: round"/>
    <path d="M 296.063969 159.770986 
L 292.022736 157.85567 
L 295.979729 155.771874 
z
" clip-path="url(#pdb766eecad)" style="stroke: #000000; stroke-linecap: round"/>
   </g>
   <g id="PathCollection_1">
    <defs>
     <path id="me6317b4659" d="M 0 1.936492 
C 0.513564 1.936492 1.006162 1.732451 1.369306 1.369306 
C 1.732451 1.006162 1.936492 0.513564 1.936492 0 
C 1.936492 -0.513564 1.732451 -1.006162 1.369306 -1.369306 
C 1.006162 -1.732451 0.513564 -1.936492 0 -1.936492 
C -0.513564 -1.936492 -1.006162 -1.732451 -1.369306 -1.369306 
C -1.732451 -1.006162 -1.936492 -0.513564 -1.936492 0 
C -1.936492 0.513564 -1.732451 1.006162 -1.369306 1.369306 
C -1.006162 1.732451 -0.513564 1.936492 0 1.936492 
z
" style="stroke: #1f78b4"/>
    </defs>
    <g clip-path="url(#pdb766eecad)">
     <use xlink:href="#me6317b4659" x="265.592855" y="137.472153" style="fill: #1f78b4; stroke: #1f78b4"/>
     <use xlink:href="#me6317b4659" x="245.683255" y="183.136889" style="fill: #1f78b4; stroke: #1f78b4"/>
     <use xlink:href="#me6317b4659" x="128.200141" y="288.010143" style="fill: #1f78b4; stroke: #1f78b4"/>
     <use xlink:href="#me6317b4659" x="336.827067" y="29.990083" style="fill: #1f78b4; stroke: #1f78b4"/>
     <use xlink:href="#me6317b4659" x="39.986777" y="77.58731" style="fill: #1f78b4; stroke: #1f78b4"/>
     <use xlink:href="#me6317b4659" x="40.04476" y="222.28839" style="fill: #1f78b4; stroke: #1f78b4"/>
     <use xlink:href="#me6317b4659" x="277.078147" y="40.433705" style="fill: #1f78b4; stroke: #1f78b4"/>
     <use xlink:href="#me6317b4659" x="201.601201" y="183.963305" style="fill: #1f78b4; stroke: #1f78b4"/>
     <use xlink:href="#me6317b4659" x="161.270953" y="191.874526" style="fill: #1f78b4; stroke: #1f78b4"/>
     <use xlink:href="#me6317b4659" x="138.113749" y="142.068183" style="fill: #1f78b4; stroke: #1f78b4"/>
     <use xlink:href="#me6317b4659" x="356.492695" y="140.502106" style="fill: #1f78b4; stroke: #1f78b4"/>
     <use xlink:href="#me6317b4659" x="196.520998" y="252.160616" style="fill: #1f78b4; stroke: #1f78b4"/>
     <use xlink:href="#me6317b4659" x="410.545651" y="315.609917" style="fill: #1f78b4; stroke: #1f78b4"/>
     <use xlink:href="#me6317b4659" x="331.392136" y="229.950784" style="fill: #1f78b4; stroke: #1f78b4"/>
     <use xlink:href="#me6317b4659" x="288.966267" y="157.920053" style="fill: #1f78b4; stroke: #1f78b4"/>
     <use xlink:href="#me6317b4659" x="420.813223" y="155.142748" style="fill: #1f78b4; stroke: #1f78b4"/>
    </g>
   </g>
   <g id="text_1">
    <g clip-path="url(#pdb766eecad)">
     <!-- 0 -->
     <g transform="translate(262.411605 140.231528) scale(0.1 -0.1)">
      <defs>
       <path id="DejaVuSans-30" d="M 2034 4250 
Q 1547 4250 1301 3770 
Q 1056 3291 1056 2328 
Q 1056 1369 1301 889 
Q 1547 409 2034 409 
Q 2525 409 2770 889 
Q 3016 1369 3016 2328 
Q 3016 3291 2770 3770 
Q 2525 4250 2034 4250 
z
M 2034 4750 
Q 2819 4750 3233 4129 
Q 3647 3509 3647 2328 
Q 3647 1150 3233 529 
Q 2819 -91 2034 -91 
Q 1250 -91 836 529 
Q 422 1150 422 2328 
Q 422 3509 836 4129 
Q 1250 4750 2034 4750 
z
" transform="scale(0.015625)"/>
      </defs>
      <use xlink:href="#DejaVuSans-30"/>
     </g>
    </g>
   </g>
   <g id="text_2">
    <g clip-path="url(#pdb766eecad)">
     <!-- 1 -->
     <g transform="translate(242.502005 185.896264) scale(0.1 -0.1)">
      <defs>
       <path id="DejaVuSans-31" d="M 794 531 
L 1825 531 
L 1825 4091 
L 703 3866 
L 703 4441 
L 1819 4666 
L 2450 4666 
L 2450 531 
L 3481 531 
L 3481 0 
L 794 0 
L 794 531 
z
" transform="scale(0.015625)"/>
      </defs>
      <use xlink:href="#DejaVuSans-31"/>
     </g>
    </g>
   </g>
   <g id="text_3">
    <g clip-path="url(#pdb766eecad)">
     <!-- 2 -->
     <g transform="translate(125.018891 290.769518) scale(0.1 -0.1)">
      <defs>
       <path id="DejaVuSans-32" d="M 1228 531 
L 3431 531 
L 3431 0 
L 469 0 
L 469 531 
Q 828 903 1448 1529 
Q 2069 2156 2228 2338 
Q 2531 2678 2651 2914 
Q 2772 3150 2772 3378 
Q 2772 3750 2511 3984 
Q 2250 4219 1831 4219 
Q 1534 4219 1204 4116 
Q 875 4013 500 3803 
L 500 4441 
Q 881 4594 1212 4672 
Q 1544 4750 1819 4750 
Q 2544 4750 2975 4387 
Q 3406 4025 3406 3419 
Q 3406 3131 3298 2873 
Q 3191 2616 2906 2266 
Q 2828 2175 2409 1742 
Q 1991 1309 1228 531 
z
" transform="scale(0.015625)"/>
      </defs>
      <use xlink:href="#DejaVuSans-32"/>
     </g>
    </g>
   </g>
   <g id="text_4">
    <g clip-path="url(#pdb766eecad)">
     <!-- 3 -->
     <g transform="translate(333.645817 32.749458) scale(0.1 -0.1)">
      <defs>
       <path id="DejaVuSans-33" d="M 2597 2516 
Q 3050 2419 3304 2112 
Q 3559 1806 3559 1356 
Q 3559 666 3084 287 
Q 2609 -91 1734 -91 
Q 1441 -91 1130 -33 
Q 819 25 488 141 
L 488 750 
Q 750 597 1062 519 
Q 1375 441 1716 441 
Q 2309 441 2620 675 
Q 2931 909 2931 1356 
Q 2931 1769 2642 2001 
Q 2353 2234 1838 2234 
L 1294 2234 
L 1294 2753 
L 1863 2753 
Q 2328 2753 2575 2939 
Q 2822 3125 2822 3475 
Q 2822 3834 2567 4026 
Q 2313 4219 1838 4219 
Q 1578 4219 1281 4162 
Q 984 4106 628 3988 
L 628 4550 
Q 988 4650 1302 4700 
Q 1616 4750 1894 4750 
Q 2613 4750 3031 4423 
Q 3450 4097 3450 3541 
Q 3450 3153 3228 2886 
Q 3006 2619 2597 2516 
z
" transform="scale(0.015625)"/>
      </defs>
      <use xlink:href="#DejaVuSans-33"/>
     </g>
    </g>
   </g>
   <g id="text_5">
    <g clip-path="url(#pdb766eecad)">
     <!-- 4 -->
     <g transform="translate(36.805527 80.346685) scale(0.1 -0.1)">
      <defs>
       <path id="DejaVuSans-34" d="M 2419 4116 
L 825 1625 
L 2419 1625 
L 2419 4116 
z
M 2253 4666 
L 3047 4666 
L 3047 1625 
L 3713 1625 
L 3713 1100 
L 3047 1100 
L 3047 0 
L 2419 0 
L 2419 1100 
L 313 1100 
L 313 1709 
L 2253 4666 
z
" transform="scale(0.015625)"/>
      </defs>
      <use xlink:href="#DejaVuSans-34"/>
     </g>
    </g>
   </g>
   <g id="text_6">
    <g clip-path="url(#pdb766eecad)">
     <!-- 5 -->
     <g transform="translate(36.86351 225.047765) scale(0.1 -0.1)">
      <defs>
       <path id="DejaVuSans-35" d="M 691 4666 
L 3169 4666 
L 3169 4134 
L 1269 4134 
L 1269 2991 
Q 1406 3038 1543 3061 
Q 1681 3084 1819 3084 
Q 2600 3084 3056 2656 
Q 3513 2228 3513 1497 
Q 3513 744 3044 326 
Q 2575 -91 1722 -91 
Q 1428 -91 1123 -41 
Q 819 9 494 109 
L 494 744 
Q 775 591 1075 516 
Q 1375 441 1709 441 
Q 2250 441 2565 725 
Q 2881 1009 2881 1497 
Q 2881 1984 2565 2268 
Q 2250 2553 1709 2553 
Q 1456 2553 1204 2497 
Q 953 2441 691 2322 
L 691 4666 
z
" transform="scale(0.015625)"/>
      </defs>
      <use xlink:href="#DejaVuSans-35"/>
     </g>
    </g>
   </g>
   <g id="text_7">
    <g clip-path="url(#pdb766eecad)">
     <!-- 6 -->
     <g transform="translate(273.896897 43.19308) scale(0.1 -0.1)">
      <defs>
       <path id="DejaVuSans-36" d="M 2113 2584 
Q 1688 2584 1439 2293 
Q 1191 2003 1191 1497 
Q 1191 994 1439 701 
Q 1688 409 2113 409 
Q 2538 409 2786 701 
Q 3034 994 3034 1497 
Q 3034 2003 2786 2293 
Q 2538 2584 2113 2584 
z
M 3366 4563 
L 3366 3988 
Q 3128 4100 2886 4159 
Q 2644 4219 2406 4219 
Q 1781 4219 1451 3797 
Q 1122 3375 1075 2522 
Q 1259 2794 1537 2939 
Q 1816 3084 2150 3084 
Q 2853 3084 3261 2657 
Q 3669 2231 3669 1497 
Q 3669 778 3244 343 
Q 2819 -91 2113 -91 
Q 1303 -91 875 529 
Q 447 1150 447 2328 
Q 447 3434 972 4092 
Q 1497 4750 2381 4750 
Q 2619 4750 2861 4703 
Q 3103 4656 3366 4563 
z
" transform="scale(0.015625)"/>
      </defs>
      <use xlink:href="#DejaVuSans-36"/>
     </g>
    </g>
   </g>
   <g id="text_8">
    <g clip-path="url(#pdb766eecad)">
     <!-- 7 -->
     <g transform="translate(198.419951 186.72268) scale(0.1 -0.1)">
      <defs>
       <path id="DejaVuSans-37" d="M 525 4666 
L 3525 4666 
L 3525 4397 
L 1831 0 
L 1172 0 
L 2766 4134 
L 525 4134 
L 525 4666 
z
" transform="scale(0.015625)"/>
      </defs>
      <use xlink:href="#DejaVuSans-37"/>
     </g>
    </g>
   </g>
   <g id="text_9">
    <g clip-path="url(#pdb766eecad)">
     <!-- 8 -->
     <g transform="translate(158.089703 194.633901) scale(0.1 -0.1)">
      <defs>
       <path id="DejaVuSans-38" d="M 2034 2216 
Q 1584 2216 1326 1975 
Q 1069 1734 1069 1313 
Q 1069 891 1326 650 
Q 1584 409 2034 409 
Q 2484 409 2743 651 
Q 3003 894 3003 1313 
Q 3003 1734 2745 1975 
Q 2488 2216 2034 2216 
z
M 1403 2484 
Q 997 2584 770 2862 
Q 544 3141 544 3541 
Q 544 4100 942 4425 
Q 1341 4750 2034 4750 
Q 2731 4750 3128 4425 
Q 3525 4100 3525 3541 
Q 3525 3141 3298 2862 
Q 3072 2584 2669 2484 
Q 3125 2378 3379 2068 
Q 3634 1759 3634 1313 
Q 3634 634 3220 271 
Q 2806 -91 2034 -91 
Q 1263 -91 848 271 
Q 434 634 434 1313 
Q 434 1759 690 2068 
Q 947 2378 1403 2484 
z
M 1172 3481 
Q 1172 3119 1398 2916 
Q 1625 2713 2034 2713 
Q 2441 2713 2670 2916 
Q 2900 3119 2900 3481 
Q 2900 3844 2670 4047 
Q 2441 4250 2034 4250 
Q 1625 4250 1398 4047 
Q 1172 3844 1172 3481 
z
" transform="scale(0.015625)"/>
      </defs>
      <use xlink:href="#DejaVuSans-38"/>
     </g>
    </g>
   </g>
   <g id="text_10">
    <g clip-path="url(#pdb766eecad)">
     <!-- 9 -->
     <g transform="translate(134.932499 144.827558) scale(0.1 -0.1)">
      <defs>
       <path id="DejaVuSans-39" d="M 703 97 
L 703 672 
Q 941 559 1184 500 
Q 1428 441 1663 441 
Q 2288 441 2617 861 
Q 2947 1281 2994 2138 
Q 2813 1869 2534 1725 
Q 2256 1581 1919 1581 
Q 1219 1581 811 2004 
Q 403 2428 403 3163 
Q 403 3881 828 4315 
Q 1253 4750 1959 4750 
Q 2769 4750 3195 4129 
Q 3622 3509 3622 2328 
Q 3622 1225 3098 567 
Q 2575 -91 1691 -91 
Q 1453 -91 1209 -44 
Q 966 3 703 97 
z
M 1959 2075 
Q 2384 2075 2632 2365 
Q 2881 2656 2881 3163 
Q 2881 3666 2632 3958 
Q 2384 4250 1959 4250 
Q 1534 4250 1286 3958 
Q 1038 3666 1038 3163 
Q 1038 2656 1286 2365 
Q 1534 2075 1959 2075 
z
" transform="scale(0.015625)"/>
      </defs>
      <use xlink:href="#DejaVuSans-39"/>
     </g>
    </g>
   </g>
   <g id="text_11">
    <g clip-path="url(#pdb766eecad)">
     <!-- 10 -->
     <g transform="translate(350.130195 143.261481) scale(0.1 -0.1)">
      <use xlink:href="#DejaVuSans-31"/>
      <use xlink:href="#DejaVuSans-30" x="63.623047"/>
     </g>
    </g>
   </g>
   <g id="text_12">
    <g clip-path="url(#pdb766eecad)">
     <!-- 11 -->
     <g transform="translate(190.158498 254.919991) scale(0.1 -0.1)">
      <use xlink:href="#DejaVuSans-31"/>
      <use xlink:href="#DejaVuSans-31" x="63.623047"/>
     </g>
    </g>
   </g>
   <g id="text_13">
    <g clip-path="url(#pdb766eecad)">
     <!-- 12 -->
     <g transform="translate(404.183151 318.369292) scale(0.1 -0.1)">
      <use xlink:href="#DejaVuSans-31"/>
      <use xlink:href="#DejaVuSans-32" x="63.623047"/>
     </g>
    </g>
   </g>
   <g id="text_14">
    <g clip-path="url(#pdb766eecad)">
     <!-- 13 -->
     <g transform="translate(325.029636 232.710159) scale(0.1 -0.1)">
      <use xlink:href="#DejaVuSans-31"/>
      <use xlink:href="#DejaVuSans-33" x="63.623047"/>
     </g>
    </g>
   </g>
   <g id="text_15">
    <g clip-path="url(#pdb766eecad)">
     <!-- 14 -->
     <g transform="translate(282.603767 160.679428) scale(0.1 -0.1)">
      <use xlink:href="#DejaVuSans-31"/>
      <use xlink:href="#DejaVuSans-34" x="63.623047"/>
     </g>
    </g>
   </g>
   <g id="text_16">
    <g clip-path="url(#pdb766eecad)">
     <!-- 15 -->
     <g transform="translate(414.450723 157.902123) scale(0.1 -0.1)">
      <use xlink:href="#DejaVuSans-31"/>
      <use xlink:href="#DejaVuSans-35" x="63.623047"/>
     </g>
    </g>
   </g>
  </g>
 </g>
 <defs>
  <clipPath id="pdb766eecad">
   <rect x="0" y="0" width="460.8" height="345.6"/>
  </clipPath>
 </defs>
</svg>
