<?xml version="1.0" encoding="utf-8" standalone="no"?>
<!DOCTYPE svg PUBLIC "-//W3C//DTD SVG 1.1//EN"
  "http://www.w3.org/Graphics/SVG/1.1/DTD/svg11.dtd">
<svg xmlns:xlink="http://www.w3.org/1999/xlink" width="460.8pt" height="345.6pt" viewBox="0 0 460.8 345.6" xmlns="http://www.w3.org/2000/svg" version="1.1">
 <metadata>
  <rdf:RDF xmlns:dc="http://purl.org/dc/elements/1.1/" xmlns:cc="http://creativecommons.org/ns#" xmlns:rdf="http://www.w3.org/1999/02/22-rdf-syntax-ns#">
   <cc:Work>
    <dc:type rdf:resource="http://purl.org/dc/dcmitype/StillImage"/>
    <dc:date>2024-02-07T14:35:35.072347</dc:date>
    <dc:format>image/svg+xml</dc:format>
    <dc:creator>
     <cc:Agent>
      <dc:title>Matplotlib v3.8.0, https://matplotlib.org/</dc:title>
     </cc:Agent>
    </dc:creator>
   </cc:Work>
  </rdf:RDF>
 </metadata>
 <defs>
  <style type="text/css">*{stroke-linejoin: round; stroke-linecap: butt}</style>
 </defs>
 <g id="figure_1">
  <g id="patch_1">
   <path d="M 0 345.6 
L 460.8 345.6 
L 460.8 0 
L 0 0 
z
" style="fill: #ffffff"/>
  </g>
  <g id="axes_1">
   <g id="patch_2">
    <path d="M 419.003854 30.686819 
Q 347.250902 58.316844 276.541302 85.545102 
" clip-path="url(#pd84a41bdac)" style="fill: none; stroke: #000000; stroke-linecap: round"/>
    <path d="M 280.992813 85.974108 
L 276.541302 85.545102 
L 279.555414 82.241297 
z
" clip-path="url(#pd84a41bdac)" style="stroke: #000000; stroke-linecap: round"/>
   </g>
   <g id="patch_3">
    <path d="M 265.813711 313.819483 
Q 255.278493 288.091774 245.166952 263.398713 
" clip-path="url(#pd84a41bdac)" style="fill: none; stroke: #000000; stroke-linecap: round"/>
    <path d="M 244.831911 267.858281 
L 245.166952 263.398713 
L 248.533582 266.342487 
z
" clip-path="url(#pd84a41bdac)" style="stroke: #000000; stroke-linecap: round"/>
   </g>
   <g id="patch_4">
    <path d="M 265.813711 313.819483 
Q 255.278493 288.091774 245.166952 263.398713 
" clip-path="url(#pd84a41bdac)" style="fill: none; stroke: #000000; stroke-linecap: round"/>
    <path d="M 244.831911 267.858281 
L 245.166952 263.398713 
L 248.533582 266.342487 
z
" clip-path="url(#pd84a41bdac)" style="stroke: #000000; stroke-linecap: round"/>
   </g>
   <g id="patch_5">
    <path d="M 244.743172 262.363812 
Q 255.27839 288.091522 265.38993 312.784583 
" clip-path="url(#pd84a41bdac)" style="fill: none; stroke: #000000; stroke-linecap: round"/>
    <path d="M 265.724971 308.325015 
L 265.38993 312.784583 
L 262.0233 309.840809 
z
" clip-path="url(#pd84a41bdac)" style="stroke: #000000; stroke-linecap: round"/>
   </g>
   <g id="patch_6">
    <path d="M 244.743172 262.363812 
Q 255.27839 288.091522 265.38993 312.784583 
" clip-path="url(#pd84a41bdac)" style="fill: none; stroke: #000000; stroke-linecap: round"/>
    <path d="M 265.724971 308.325015 
L 265.38993 312.784583 
L 262.0233 309.840809 
z
" clip-path="url(#pd84a41bdac)" style="stroke: #000000; stroke-linecap: round"/>
   </g>
   <g id="patch_7">
    <path d="M 243.247486 258.794202 
Q 224.819729 215.797165 206.832397 173.827758 
" clip-path="url(#pd84a41bdac)" style="fill: none; stroke: #000000; stroke-linecap: round"/>
    <path d="M 206.569824 178.292179 
L 206.832397 173.827758 
L 210.24639 176.716469 
z
" clip-path="url(#pd84a41bdac)" style="stroke: #000000; stroke-linecap: round"/>
   </g>
   <g id="patch_8">
    <path d="M 206.391049 172.797972 
Q 224.818806 215.79501 242.806138 257.764416 
" clip-path="url(#pd84a41bdac)" style="fill: none; stroke: #000000; stroke-linecap: round"/>
    <path d="M 243.068711 253.299995 
L 242.806138 257.764416 
L 239.392145 254.875705 
z
" clip-path="url(#pd84a41bdac)" style="stroke: #000000; stroke-linecap: round"/>
   </g>
   <g id="patch_9">
    <path d="M 206.843668 169.512433 
Q 239.661457 128.82953 271.77728 89.016825 
" clip-path="url(#pd84a41bdac)" style="fill: none; stroke: #000000; stroke-linecap: round"/>
    <path d="M 267.709196 90.874427 
L 271.77728 89.016825 
L 270.822511 93.385854 
z
" clip-path="url(#pd84a41bdac)" style="stroke: #000000; stroke-linecap: round"/>
   </g>
   <g id="patch_10">
    <path d="M 203.750599 170.543831 
Q 122.807002 150.071573 42.947307 129.873457 
" clip-path="url(#pd84a41bdac)" style="fill: none; stroke: #000000; stroke-linecap: round"/>
    <path d="M 46.3348 132.793199 
L 42.947307 129.873457 
L 47.315597 128.915308 
z
" clip-path="url(#pd84a41bdac)" style="stroke: #000000; stroke-linecap: round"/>
   </g>
   <g id="patch_11">
    <path d="M 41.161763 127.589558 
Q 63.404465 98.529431 84.967626 70.357125 
" clip-path="url(#pd84a41bdac)" style="fill: none; stroke: #000000; stroke-linecap: round"/>
    <path d="M 80.948248 72.31789 
L 84.967626 70.357125 
L 84.12461 74.749087 
z
" clip-path="url(#pd84a41bdac)" style="stroke: #000000; stroke-linecap: round"/>
   </g>
   <g id="patch_12">
    <path d="M 41.864704 129.599645 
Q 122.808302 150.071902 202.667996 170.270019 
" clip-path="url(#pd84a41bdac)" style="fill: none; stroke: #000000; stroke-linecap: round"/>
    <path d="M 199.280503 167.350277 
L 202.667996 170.270019 
L 198.299707 171.228168 
z
" clip-path="url(#pd84a41bdac)" style="stroke: #000000; stroke-linecap: round"/>
   </g>
   <g id="patch_13">
    <path d="M 85.651137 69.464117 
Q 63.408435 98.524244 41.845274 126.69655 
" clip-path="url(#pd84a41bdac)" style="fill: none; stroke: #000000; stroke-linecap: round"/>
    <path d="M 45.864652 124.735786 
L 41.845274 126.69655 
L 42.688289 122.304589 
z
" clip-path="url(#pd84a41bdac)" style="stroke: #000000; stroke-linecap: round"/>
   </g>
   <g id="patch_14">
    <path d="M 88.750793 68.121733 
Q 180.258232 77.285293 270.653202 86.337451 
" clip-path="url(#pd84a41bdac)" style="fill: none; stroke: #000000; stroke-linecap: round"/>
    <path d="M 266.872392 83.948837 
L 270.653202 86.337451 
L 266.473825 87.928931 
z
" clip-path="url(#pd84a41bdac)" style="stroke: #000000; stroke-linecap: round"/>
   </g>
   <g id="patch_15">
    <path d="M 275.502464 85.945129 
Q 347.255416 58.315105 417.965016 31.086846 
" clip-path="url(#pd84a41bdac)" style="fill: none; stroke: #000000; stroke-linecap: round"/>
    <path d="M 413.513504 30.65784 
L 417.965016 31.086846 
L 414.950904 34.390652 
z
" clip-path="url(#pd84a41bdac)" style="stroke: #000000; stroke-linecap: round"/>
   </g>
   <g id="patch_16">
    <path d="M 272.477953 88.148229 
Q 239.660164 128.831132 207.544341 168.643838 
" clip-path="url(#pd84a41bdac)" style="fill: none; stroke: #000000; stroke-linecap: round"/>
    <path d="M 211.612425 166.786235 
L 207.544341 168.643838 
L 208.49911 164.274808 
z
" clip-path="url(#pd84a41bdac)" style="stroke: #000000; stroke-linecap: round"/>
   </g>
   <g id="patch_17">
    <path d="M 271.768424 86.44913 
Q 180.260985 77.285569 89.866016 68.233411 
" clip-path="url(#pd84a41bdac)" style="fill: none; stroke: #000000; stroke-linecap: round"/>
    <path d="M 93.646826 70.622025 
L 89.866016 68.233411 
L 94.045393 66.641931 
z
" clip-path="url(#pd84a41bdac)" style="stroke: #000000; stroke-linecap: round"/>
   </g>
   <g id="PathCollection_1">
    <defs>
     <path id="C0_0_ddbb97b500" d="M 0 1.936492 
C 0.513564 1.936492 1.006162 1.732451 1.369306 1.369306 
C 1.732451 1.006162 1.936492 0.513564 1.936492 -0 
C 1.936492 -0.513564 1.732451 -1.006162 1.369306 -1.369306 
C 1.006162 -1.732451 0.513564 -1.936492 0 -1.936492 
C -0.513564 -1.936492 -1.006162 -1.732451 -1.369306 -1.369306 
C -1.732451 -1.006162 -1.936492 -0.513564 -1.936492 0 
C -1.936492 0.513564 -1.732451 1.006162 -1.369306 1.369306 
C -1.006162 1.732451 -0.513564 1.936492 0 1.936492 
z
"/>
    </defs>
    <g clip-path="url(#pd84a41bdac)">
     <use xlink:href="#C0_0_ddbb97b500" x="420.813223" y="29.990083" style="fill: #ff0000; stroke: #ff0000"/>
    </g>
    <g clip-path="url(#pd84a41bdac)">
     <use xlink:href="#C0_0_ddbb97b500" x="266.546874" y="315.609917" style="fill: #ff0000; stroke: #ff0000"/>
    </g>
    <g clip-path="url(#pd84a41bdac)">
     <use xlink:href="#C0_0_ddbb97b500" x="244.010008" y="260.573378" style="fill: #ff0000; stroke: #ff0000"/>
    </g>
    <g clip-path="url(#pd84a41bdac)">
     <use xlink:href="#C0_0_ddbb97b500" x="205.628526" y="171.018796" style="fill: #ff0000; stroke: #ff0000"/>
    </g>
    <g clip-path="url(#pd84a41bdac)">
     <use xlink:href="#C0_0_ddbb97b500" x="39.986777" y="129.124679" style="fill: #ff0000; stroke: #ff0000"/>
    </g>
    <g clip-path="url(#pd84a41bdac)">
     <use xlink:href="#C0_0_ddbb97b500" x="86.826123" y="67.928996" style="fill: #ff0000; stroke: #ff0000"/>
    </g>
    <g clip-path="url(#pd84a41bdac)">
     <use xlink:href="#C0_0_ddbb97b500" x="273.693095" y="86.641866" style="fill: #ff0000; stroke: #ff0000"/>
    </g>
   </g>
   <g id="text_1">
    <g clip-path="url(#pd84a41bdac)">
     <!-- 0 -->
     <g transform="translate(417.631973 32.749458) scale(0.1 -0.1)">
      <defs>
       <path id="DejaVuSans-30" d="M 2034 4250 
Q 1547 4250 1301 3770 
Q 1056 3291 1056 2328 
Q 1056 1369 1301 889 
Q 1547 409 2034 409 
Q 2525 409 2770 889 
Q 3016 1369 3016 2328 
Q 3016 3291 2770 3770 
Q 2525 4250 2034 4250 
z
M 2034 4750 
Q 2819 4750 3233 4129 
Q 3647 3509 3647 2328 
Q 3647 1150 3233 529 
Q 2819 -91 2034 -91 
Q 1250 -91 836 529 
Q 422 1150 422 2328 
Q 422 3509 836 4129 
Q 1250 4750 2034 4750 
z
" transform="scale(0.015625)"/>
      </defs>
      <use xlink:href="#DejaVuSans-30"/>
     </g>
    </g>
   </g>
   <g id="text_2">
    <g clip-path="url(#pd84a41bdac)">
     <!-- 2 -->
     <g transform="translate(263.365624 318.369292) scale(0.1 -0.1)">
      <defs>
       <path id="DejaVuSans-32" d="M 1228 531 
L 3431 531 
L 3431 0 
L 469 0 
L 469 531 
Q 828 903 1448 1529 
Q 2069 2156 2228 2338 
Q 2531 2678 2651 2914 
Q 2772 3150 2772 3378 
Q 2772 3750 2511 3984 
Q 2250 4219 1831 4219 
Q 1534 4219 1204 4116 
Q 875 4013 500 3803 
L 500 4441 
Q 881 4594 1212 4672 
Q 1544 4750 1819 4750 
Q 2544 4750 2975 4387 
Q 3406 4025 3406 3419 
Q 3406 3131 3298 2873 
Q 3191 2616 2906 2266 
Q 2828 2175 2409 1742 
Q 1991 1309 1228 531 
z
" transform="scale(0.015625)"/>
      </defs>
      <use xlink:href="#DejaVuSans-32"/>
     </g>
    </g>
   </g>
   <g id="text_3">
    <g clip-path="url(#pd84a41bdac)">
     <!-- 3 -->
     <g transform="translate(240.828758 263.332753) scale(0.1 -0.1)">
      <defs>
       <path id="DejaVuSans-33" d="M 2597 2516 
Q 3050 2419 3304 2112 
Q 3559 1806 3559 1356 
Q 3559 666 3084 287 
Q 2609 -91 1734 -91 
Q 1441 -91 1130 -33 
Q 819 25 488 141 
L 488 750 
Q 750 597 1062 519 
Q 1375 441 1716 441 
Q 2309 441 2620 675 
Q 2931 909 2931 1356 
Q 2931 1769 2642 2001 
Q 2353 2234 1838 2234 
L 1294 2234 
L 1294 2753 
L 1863 2753 
Q 2328 2753 2575 2939 
Q 2822 3125 2822 3475 
Q 2822 3834 2567 4026 
Q 2313 4219 1838 4219 
Q 1578 4219 1281 4162 
Q 984 4106 628 3988 
L 628 4550 
Q 988 4650 1302 4700 
Q 1616 4750 1894 4750 
Q 2613 4750 3031 4423 
Q 3450 4097 3450 3541 
Q 3450 3153 3228 2886 
Q 3006 2619 2597 2516 
z
" transform="scale(0.015625)"/>
      </defs>
      <use xlink:href="#DejaVuSans-33"/>
     </g>
    </g>
   </g>
   <g id="text_4">
    <g clip-path="url(#pd84a41bdac)">
     <!-- 4 -->
     <g transform="translate(202.447276 173.778171) scale(0.1 -0.1)">
      <defs>
       <path id="DejaVuSans-34" d="M 2419 4116 
L 825 1625 
L 2419 1625 
L 2419 4116 
z
M 2253 4666 
L 3047 4666 
L 3047 1625 
L 3713 1625 
L 3713 1100 
L 3047 1100 
L 3047 0 
L 2419 0 
L 2419 1100 
L 313 1100 
L 313 1709 
L 2253 4666 
z
" transform="scale(0.015625)"/>
      </defs>
      <use xlink:href="#DejaVuSans-34"/>
     </g>
    </g>
   </g>
   <g id="text_5">
    <g clip-path="url(#pd84a41bdac)">
     <!-- 6 -->
     <g transform="translate(36.805527 131.884054) scale(0.1 -0.1)">
      <defs>
       <path id="DejaVuSans-36" d="M 2113 2584 
Q 1688 2584 1439 2293 
Q 1191 2003 1191 1497 
Q 1191 994 1439 701 
Q 1688 409 2113 409 
Q 2538 409 2786 701 
Q 3034 994 3034 1497 
Q 3034 2003 2786 2293 
Q 2538 2584 2113 2584 
z
M 3366 4563 
L 3366 3988 
Q 3128 4100 2886 4159 
Q 2644 4219 2406 4219 
Q 1781 4219 1451 3797 
Q 1122 3375 1075 2522 
Q 1259 2794 1537 2939 
Q 1816 3084 2150 3084 
Q 2853 3084 3261 2657 
Q 3669 2231 3669 1497 
Q 3669 778 3244 343 
Q 2819 -91 2113 -91 
Q 1303 -91 875 529 
Q 447 1150 447 2328 
Q 447 3434 972 4092 
Q 1497 4750 2381 4750 
Q 2619 4750 2861 4703 
Q 3103 4656 3366 4563 
z
" transform="scale(0.015625)"/>
      </defs>
      <use xlink:href="#DejaVuSans-36"/>
     </g>
    </g>
   </g>
   <g id="text_6">
    <g clip-path="url(#pd84a41bdac)">
     <!-- 7 -->
     <g transform="translate(83.644873 70.688371) scale(0.1 -0.1)">
      <defs>
       <path id="DejaVuSans-37" d="M 525 4666 
L 3525 4666 
L 3525 4397 
L 1831 0 
L 1172 0 
L 2766 4134 
L 525 4134 
L 525 4666 
z
" transform="scale(0.015625)"/>
      </defs>
      <use xlink:href="#DejaVuSans-37"/>
     </g>
    </g>
   </g>
   <g id="text_7">
    <g clip-path="url(#pd84a41bdac)">
     <!-- 8 -->
     <g transform="translate(270.511845 89.401241) scale(0.1 -0.1)">
      <defs>
       <path id="DejaVuSans-38" d="M 2034 2216 
Q 1584 2216 1326 1975 
Q 1069 1734 1069 1313 
Q 1069 891 1326 650 
Q 1584 409 2034 409 
Q 2484 409 2743 651 
Q 3003 894 3003 1313 
Q 3003 1734 2745 1975 
Q 2488 2216 2034 2216 
z
M 1403 2484 
Q 997 2584 770 2862 
Q 544 3141 544 3541 
Q 544 4100 942 4425 
Q 1341 4750 2034 4750 
Q 2731 4750 3128 4425 
Q 3525 4100 3525 3541 
Q 3525 3141 3298 2862 
Q 3072 2584 2669 2484 
Q 3125 2378 3379 2068 
Q 3634 1759 3634 1313 
Q 3634 634 3220 271 
Q 2806 -91 2034 -91 
Q 1263 -91 848 271 
Q 434 634 434 1313 
Q 434 1759 690 2068 
Q 947 2378 1403 2484 
z
M 1172 3481 
Q 1172 3119 1398 2916 
Q 1625 2713 2034 2713 
Q 2441 2713 2670 2916 
Q 2900 3119 2900 3481 
Q 2900 3844 2670 4047 
Q 2441 4250 2034 4250 
Q 1625 4250 1398 4047 
Q 1172 3844 1172 3481 
z
" transform="scale(0.015625)"/>
      </defs>
      <use xlink:href="#DejaVuSans-38"/>
     </g>
    </g>
   </g>
  </g>
 </g>
 <defs>
  <clipPath id="pd84a41bdac">
   <rect x="0" y="0" width="460.8" height="345.6"/>
  </clipPath>
 </defs>
</svg>
