<?xml version="1.0" encoding="utf-8" standalone="no"?>
<!DOCTYPE svg PUBLIC "-//W3C//DTD SVG 1.1//EN"
  "http://www.w3.org/Graphics/SVG/1.1/DTD/svg11.dtd">
<svg xmlns:xlink="http://www.w3.org/1999/xlink" width="460.8pt" height="345.6pt" viewBox="0 0 460.8 345.6" xmlns="http://www.w3.org/2000/svg" version="1.1">
 <metadata>
  <rdf:RDF xmlns:dc="http://purl.org/dc/elements/1.1/" xmlns:cc="http://creativecommons.org/ns#" xmlns:rdf="http://www.w3.org/1999/02/22-rdf-syntax-ns#">
   <cc:Work>
    <dc:type rdf:resource="http://purl.org/dc/dcmitype/StillImage"/>
    <dc:date>2024-02-07T14:35:34.760057</dc:date>
    <dc:format>image/svg+xml</dc:format>
    <dc:creator>
     <cc:Agent>
      <dc:title>Matplotlib v3.8.0, https://matplotlib.org/</dc:title>
     </cc:Agent>
    </dc:creator>
   </cc:Work>
  </rdf:RDF>
 </metadata>
 <defs>
  <style type="text/css">*{stroke-linejoin: round; stroke-linecap: butt}</style>
 </defs>
 <g id="figure_1">
  <g id="patch_1">
   <path d="M 0 345.6 
L 460.8 345.6 
L 460.8 0 
L 0 0 
z
" style="fill: #ffffff"/>
  </g>
  <g id="axes_1">
   <g id="patch_2">
    <path d="M 318.554315 314.413688 
Q 283.487991 286.913966 249.301436 260.104176 
" clip-path="url(#p56fa90f76c)" style="fill: none; stroke: #000000; stroke-linecap: round"/>
    <path d="M 251.214803 264.146332 
L 249.301436 260.104176 
L 253.683181 260.998775 
z
" clip-path="url(#p56fa90f76c)" style="stroke: #000000; stroke-linecap: round"/>
   </g>
   <g id="patch_3">
    <path d="M 351.518118 30.49732 
Q 385.23308 39.632061 417.868914 48.474422 
" clip-path="url(#p56fa90f76c)" style="fill: none; stroke: #000000; stroke-linecap: round"/>
    <path d="M 414.531136 45.497975 
L 417.868914 48.474422 
L 413.48509 49.358777 
z
" clip-path="url(#p56fa90f76c)" style="stroke: #000000; stroke-linecap: round"/>
   </g>
   <g id="patch_4">
    <path d="M 349.112558 31.855336 
Q 340.598408 61.627269 332.391669 90.324262 
" clip-path="url(#p56fa90f76c)" style="fill: none; stroke: #000000; stroke-linecap: round"/>
    <path d="M 335.414408 87.028348 
L 332.391669 90.324262 
L 331.568582 85.928522 
z
" clip-path="url(#p56fa90f76c)" style="stroke: #000000; stroke-linecap: round"/>
   </g>
   <g id="patch_5">
    <path d="M 418.941087 48.764917 
Q 385.226125 39.630176 352.59029 30.787814 
" clip-path="url(#p56fa90f76c)" style="fill: none; stroke: #000000; stroke-linecap: round"/>
    <path d="M 355.928068 33.764262 
L 352.59029 30.787814 
L 356.974115 29.90346 
z
" clip-path="url(#p56fa90f76c)" style="stroke: #000000; stroke-linecap: round"/>
   </g>
   <g id="patch_6">
    <path d="M 419.078003 50.127302 
Q 376.18422 71.266144 334.293302 91.910757 
" clip-path="url(#p56fa90f76c)" style="fill: none; stroke: #000000; stroke-linecap: round"/>
    <path d="M 338.765364 91.936524 
L 334.293302 91.910757 
L 336.997153 88.348568 
z
" clip-path="url(#p56fa90f76c)" style="stroke: #000000; stroke-linecap: round"/>
   </g>
   <g id="patch_7">
    <path d="M 332.084978 91.396687 
Q 340.599128 61.624753 348.805867 32.927761 
" clip-path="url(#p56fa90f76c)" style="fill: none; stroke: #000000; stroke-linecap: round"/>
    <path d="M 345.783128 36.223675 
L 348.805867 32.927761 
L 349.628955 37.3235 
z
" clip-path="url(#p56fa90f76c)" style="stroke: #000000; stroke-linecap: round"/>
   </g>
   <g id="patch_8">
    <path d="M 333.286774 92.406792 
Q 376.180557 71.26795 418.071476 50.623338 
" clip-path="url(#p56fa90f76c)" style="fill: none; stroke: #000000; stroke-linecap: round"/>
    <path d="M 413.599414 50.59757 
L 418.071476 50.623338 
L 415.367625 54.185526 
z
" clip-path="url(#p56fa90f76c)" style="stroke: #000000; stroke-linecap: round"/>
   </g>
   <g id="patch_9">
    <path d="M 330.157973 94.605292 
Q 289.963218 133.35128 250.573405 171.321339 
" clip-path="url(#p56fa90f76c)" style="fill: none; stroke: #000000; stroke-linecap: round"/>
    <path d="M 254.841282 169.985214 
L 250.573405 171.321339 
L 252.065231 167.105363 
z
" clip-path="url(#p56fa90f76c)" style="stroke: #000000; stroke-linecap: round"/>
   </g>
   <g id="patch_10">
    <path d="M 249.766852 172.098822 
Q 289.961607 133.352833 329.35142 95.382774 
" clip-path="url(#p56fa90f76c)" style="fill: none; stroke: #000000; stroke-linecap: round"/>
    <path d="M 325.083543 96.718899 
L 329.35142 95.382774 
L 327.859594 99.59875 
z
" clip-path="url(#p56fa90f76c)" style="stroke: #000000; stroke-linecap: round"/>
   </g>
   <g id="patch_11">
    <path d="M 248.339537 175.379972 
Q 247.635338 215.832478 246.950598 255.16712 
" clip-path="url(#p56fa90f76c)" style="fill: none; stroke: #000000; stroke-linecap: round"/>
    <path d="M 249.019917 251.202537 
L 246.950598 255.16712 
L 245.020523 251.132915 
z
" clip-path="url(#p56fa90f76c)" style="stroke: #000000; stroke-linecap: round"/>
   </g>
   <g id="patch_12">
    <path d="M 246.448736 173.67361 
Q 180.852321 181.561973 116.365942 189.316847 
" clip-path="url(#p56fa90f76c)" style="fill: none; stroke: #000000; stroke-linecap: round"/>
    <path d="M 120.57612 190.824958 
L 116.365942 189.316847 
L 120.098537 186.853571 
z
" clip-path="url(#p56fa90f76c)" style="stroke: #000000; stroke-linecap: round"/>
   </g>
   <g id="patch_13">
    <path d="M 115.258959 189.449969 
Q 180.855375 181.561606 245.341754 173.806731 
" clip-path="url(#p56fa90f76c)" style="fill: none; stroke: #000000; stroke-linecap: round"/>
    <path d="M 241.131575 172.298621 
L 245.341754 173.806731 
L 241.609158 176.270008 
z
" clip-path="url(#p56fa90f76c)" style="stroke: #000000; stroke-linecap: round"/>
   </g>
   <g id="patch_14">
    <path d="M 111.742928 190.781533 
Q 76.660853 215.032135 42.498471 238.646996 
" clip-path="url(#p56fa90f76c)" style="fill: none; stroke: #000000; stroke-linecap: round"/>
    <path d="M 46.92611 238.017697 
L 42.498471 238.646996 
L 44.651616 234.727306 
z
" clip-path="url(#p56fa90f76c)" style="stroke: #000000; stroke-linecap: round"/>
   </g>
   <g id="patch_15">
    <path d="M 41.578274 239.283085 
Q 76.660348 215.032484 110.82273 191.417623 
" clip-path="url(#p56fa90f76c)" style="fill: none; stroke: #000000; stroke-linecap: round"/>
    <path d="M 106.395092 192.046921 
L 110.82273 191.417623 
L 108.669586 195.337312 
z
" clip-path="url(#p56fa90f76c)" style="stroke: #000000; stroke-linecap: round"/>
   </g>
   <g id="patch_16">
    <path d="M 41.724074 241.243015 
Q 81.180153 260.770155 119.634201 279.801381 
" clip-path="url(#p56fa90f76c)" style="fill: none; stroke: #000000; stroke-linecap: round"/>
    <path d="M 116.936339 276.234654 
L 119.634201 279.801381 
L 115.162102 279.819634 
z
" clip-path="url(#p56fa90f76c)" style="stroke: #000000; stroke-linecap: round"/>
   </g>
   <g id="patch_17">
    <path d="M 120.634054 280.296216 
Q 81.177974 260.769077 42.723927 241.737851 
" clip-path="url(#p56fa90f76c)" style="fill: none; stroke: #000000; stroke-linecap: round"/>
    <path d="M 45.421789 245.304578 
L 42.723927 241.737851 
L 47.196026 241.719597 
z
" clip-path="url(#p56fa90f76c)" style="stroke: #000000; stroke-linecap: round"/>
   </g>
   <g id="patch_18">
    <path d="M 124.275269 280.805327 
Q 184.633998 269.687555 243.893189 258.772312 
" clip-path="url(#p56fa90f76c)" style="fill: none; stroke: #000000; stroke-linecap: round"/>
    <path d="M 239.59707 257.529991 
L 243.893189 258.772312 
L 240.321661 261.463814 
z
" clip-path="url(#p56fa90f76c)" style="stroke: #000000; stroke-linecap: round"/>
   </g>
   <g id="patch_19">
    <path d="M 248.422846 259.415168 
Q 283.48917 286.91489 317.675725 313.72468 
" clip-path="url(#p56fa90f76c)" style="fill: none; stroke: #000000; stroke-linecap: round"/>
    <path d="M 315.762357 309.682524 
L 317.675725 313.72468 
L 313.29398 312.830081 
z
" clip-path="url(#p56fa90f76c)" style="stroke: #000000; stroke-linecap: round"/>
   </g>
   <g id="patch_20">
    <path d="M 246.931205 256.28114 
Q 247.635405 215.828633 248.320144 176.493992 
" clip-path="url(#p56fa90f76c)" style="fill: none; stroke: #000000; stroke-linecap: round"/>
    <path d="M 246.250825 180.458575 
L 248.320144 176.493992 
L 250.250219 180.528197 
z
" clip-path="url(#p56fa90f76c)" style="stroke: #000000; stroke-linecap: round"/>
   </g>
   <g id="patch_21">
    <path d="M 244.993554 258.569631 
Q 184.634825 269.687402 125.375634 280.602645 
" clip-path="url(#p56fa90f76c)" style="fill: none; stroke: #000000; stroke-linecap: round"/>
    <path d="M 129.671752 281.844967 
L 125.375634 280.602645 
L 128.947162 277.911143 
z
" clip-path="url(#p56fa90f76c)" style="stroke: #000000; stroke-linecap: round"/>
   </g>
   <g id="PathCollection_1">
    <defs>
     <path id="C0_0_4029534f90" d="M 0 1.936492 
C 0.513564 1.936492 1.006162 1.732451 1.369306 1.369306 
C 1.732451 1.006162 1.936492 0.513564 1.936492 -0 
C 1.936492 -0.513564 1.732451 -1.006162 1.369306 -1.369306 
C 1.006162 -1.732451 0.513564 -1.936492 0 -1.936492 
C -0.513564 -1.936492 -1.006162 -1.732451 -1.369306 -1.369306 
C -1.732451 -1.006162 -1.936492 -0.513564 -1.936492 0 
C -1.936492 0.513564 -1.732451 1.006162 -1.369306 1.369306 
C -1.006162 1.732451 -0.513564 1.936492 0 1.936492 
z
"/>
    </defs>
    <g clip-path="url(#p56fa90f76c)">
     <use xlink:href="#C0_0_4029534f90" x="320.079689" y="315.609917" style="fill: #ff0000; stroke: #ff0000"/>
    </g>
    <g clip-path="url(#p56fa90f76c)">
     <use xlink:href="#C0_0_4029534f90" x="349.645982" y="29.990083" style="stroke: #000000"/>
    </g>
    <g clip-path="url(#p56fa90f76c)">
     <use xlink:href="#C0_0_4029534f90" x="420.813223" y="49.272154" style="fill: #ff0000; stroke: #ff0000"/>
    </g>
    <g clip-path="url(#p56fa90f76c)">
     <use xlink:href="#C0_0_4029534f90" x="331.551555" y="93.26194" style="fill: #ff0000; stroke: #ff0000"/>
    </g>
    <g clip-path="url(#p56fa90f76c)">
     <use xlink:href="#C0_0_4029534f90" x="248.37327" y="173.442173" style="fill: #ff0000; stroke: #ff0000"/>
    </g>
    <g clip-path="url(#p56fa90f76c)">
     <use xlink:href="#C0_0_4029534f90" x="113.334425" y="189.681405" style="stroke: #000000"/>
    </g>
    <g clip-path="url(#p56fa90f76c)">
     <use xlink:href="#C0_0_4029534f90" x="39.986777" y="240.383213" style="fill: #ff0000; stroke: #ff0000"/>
    </g>
    <g clip-path="url(#p56fa90f76c)">
     <use xlink:href="#C0_0_4029534f90" x="122.371351" y="281.156019" style="fill: #ff0000; stroke: #ff0000"/>
    </g>
    <g clip-path="url(#p56fa90f76c)">
     <use xlink:href="#C0_0_4029534f90" x="246.897472" y="258.218939" style="fill: #ff0000; stroke: #ff0000"/>
    </g>
   </g>
   <g id="text_1">
    <g clip-path="url(#p56fa90f76c)">
     <!-- 0 -->
     <g transform="translate(316.898439 318.369292) scale(0.1 -0.1)">
      <defs>
       <path id="DejaVuSans-30" d="M 2034 4250 
Q 1547 4250 1301 3770 
Q 1056 3291 1056 2328 
Q 1056 1369 1301 889 
Q 1547 409 2034 409 
Q 2525 409 2770 889 
Q 3016 1369 3016 2328 
Q 3016 3291 2770 3770 
Q 2525 4250 2034 4250 
z
M 2034 4750 
Q 2819 4750 3233 4129 
Q 3647 3509 3647 2328 
Q 3647 1150 3233 529 
Q 2819 -91 2034 -91 
Q 1250 -91 836 529 
Q 422 1150 422 2328 
Q 422 3509 836 4129 
Q 1250 4750 2034 4750 
z
" transform="scale(0.015625)"/>
      </defs>
      <use xlink:href="#DejaVuSans-30"/>
     </g>
    </g>
   </g>
   <g id="text_2">
    <g clip-path="url(#p56fa90f76c)">
     <!-- 1 -->
     <g transform="translate(346.464732 32.749458) scale(0.1 -0.1)">
      <defs>
       <path id="DejaVuSans-31" d="M 794 531 
L 1825 531 
L 1825 4091 
L 703 3866 
L 703 4441 
L 1819 4666 
L 2450 4666 
L 2450 531 
L 3481 531 
L 3481 0 
L 794 0 
L 794 531 
z
" transform="scale(0.015625)"/>
      </defs>
      <use xlink:href="#DejaVuSans-31"/>
     </g>
    </g>
   </g>
   <g id="text_3">
    <g clip-path="url(#p56fa90f76c)">
     <!-- 2 -->
     <g transform="translate(417.631973 52.031529) scale(0.1 -0.1)">
      <defs>
       <path id="DejaVuSans-32" d="M 1228 531 
L 3431 531 
L 3431 0 
L 469 0 
L 469 531 
Q 828 903 1448 1529 
Q 2069 2156 2228 2338 
Q 2531 2678 2651 2914 
Q 2772 3150 2772 3378 
Q 2772 3750 2511 3984 
Q 2250 4219 1831 4219 
Q 1534 4219 1204 4116 
Q 875 4013 500 3803 
L 500 4441 
Q 881 4594 1212 4672 
Q 1544 4750 1819 4750 
Q 2544 4750 2975 4387 
Q 3406 4025 3406 3419 
Q 3406 3131 3298 2873 
Q 3191 2616 2906 2266 
Q 2828 2175 2409 1742 
Q 1991 1309 1228 531 
z
" transform="scale(0.015625)"/>
      </defs>
      <use xlink:href="#DejaVuSans-32"/>
     </g>
    </g>
   </g>
   <g id="text_4">
    <g clip-path="url(#p56fa90f76c)">
     <!-- 3 -->
     <g transform="translate(328.370305 96.021315) scale(0.1 -0.1)">
      <defs>
       <path id="DejaVuSans-33" d="M 2597 2516 
Q 3050 2419 3304 2112 
Q 3559 1806 3559 1356 
Q 3559 666 3084 287 
Q 2609 -91 1734 -91 
Q 1441 -91 1130 -33 
Q 819 25 488 141 
L 488 750 
Q 750 597 1062 519 
Q 1375 441 1716 441 
Q 2309 441 2620 675 
Q 2931 909 2931 1356 
Q 2931 1769 2642 2001 
Q 2353 2234 1838 2234 
L 1294 2234 
L 1294 2753 
L 1863 2753 
Q 2328 2753 2575 2939 
Q 2822 3125 2822 3475 
Q 2822 3834 2567 4026 
Q 2313 4219 1838 4219 
Q 1578 4219 1281 4162 
Q 984 4106 628 3988 
L 628 4550 
Q 988 4650 1302 4700 
Q 1616 4750 1894 4750 
Q 2613 4750 3031 4423 
Q 3450 4097 3450 3541 
Q 3450 3153 3228 2886 
Q 3006 2619 2597 2516 
z
" transform="scale(0.015625)"/>
      </defs>
      <use xlink:href="#DejaVuSans-33"/>
     </g>
    </g>
   </g>
   <g id="text_5">
    <g clip-path="url(#p56fa90f76c)">
     <!-- 4 -->
     <g transform="translate(245.19202 176.201548) scale(0.1 -0.1)">
      <defs>
       <path id="DejaVuSans-34" d="M 2419 4116 
L 825 1625 
L 2419 1625 
L 2419 4116 
z
M 2253 4666 
L 3047 4666 
L 3047 1625 
L 3713 1625 
L 3713 1100 
L 3047 1100 
L 3047 0 
L 2419 0 
L 2419 1100 
L 313 1100 
L 313 1709 
L 2253 4666 
z
" transform="scale(0.015625)"/>
      </defs>
      <use xlink:href="#DejaVuSans-34"/>
     </g>
    </g>
   </g>
   <g id="text_6">
    <g clip-path="url(#p56fa90f76c)">
     <!-- 5 -->
     <g transform="translate(110.153175 192.44078) scale(0.1 -0.1)">
      <defs>
       <path id="DejaVuSans-35" d="M 691 4666 
L 3169 4666 
L 3169 4134 
L 1269 4134 
L 1269 2991 
Q 1406 3038 1543 3061 
Q 1681 3084 1819 3084 
Q 2600 3084 3056 2656 
Q 3513 2228 3513 1497 
Q 3513 744 3044 326 
Q 2575 -91 1722 -91 
Q 1428 -91 1123 -41 
Q 819 9 494 109 
L 494 744 
Q 775 591 1075 516 
Q 1375 441 1709 441 
Q 2250 441 2565 725 
Q 2881 1009 2881 1497 
Q 2881 1984 2565 2268 
Q 2250 2553 1709 2553 
Q 1456 2553 1204 2497 
Q 953 2441 691 2322 
L 691 4666 
z
" transform="scale(0.015625)"/>
      </defs>
      <use xlink:href="#DejaVuSans-35"/>
     </g>
    </g>
   </g>
   <g id="text_7">
    <g clip-path="url(#p56fa90f76c)">
     <!-- 6 -->
     <g transform="translate(36.805527 243.142588) scale(0.1 -0.1)">
      <defs>
       <path id="DejaVuSans-36" d="M 2113 2584 
Q 1688 2584 1439 2293 
Q 1191 2003 1191 1497 
Q 1191 994 1439 701 
Q 1688 409 2113 409 
Q 2538 409 2786 701 
Q 3034 994 3034 1497 
Q 3034 2003 2786 2293 
Q 2538 2584 2113 2584 
z
M 3366 4563 
L 3366 3988 
Q 3128 4100 2886 4159 
Q 2644 4219 2406 4219 
Q 1781 4219 1451 3797 
Q 1122 3375 1075 2522 
Q 1259 2794 1537 2939 
Q 1816 3084 2150 3084 
Q 2853 3084 3261 2657 
Q 3669 2231 3669 1497 
Q 3669 778 3244 343 
Q 2819 -91 2113 -91 
Q 1303 -91 875 529 
Q 447 1150 447 2328 
Q 447 3434 972 4092 
Q 1497 4750 2381 4750 
Q 2619 4750 2861 4703 
Q 3103 4656 3366 4563 
z
" transform="scale(0.015625)"/>
      </defs>
      <use xlink:href="#DejaVuSans-36"/>
     </g>
    </g>
   </g>
   <g id="text_8">
    <g clip-path="url(#p56fa90f76c)">
     <!-- 7 -->
     <g transform="translate(119.190101 283.915394) scale(0.1 -0.1)">
      <defs>
       <path id="DejaVuSans-37" d="M 525 4666 
L 3525 4666 
L 3525 4397 
L 1831 0 
L 1172 0 
L 2766 4134 
L 525 4134 
L 525 4666 
z
" transform="scale(0.015625)"/>
      </defs>
      <use xlink:href="#DejaVuSans-37"/>
     </g>
    </g>
   </g>
   <g id="text_9">
    <g clip-path="url(#p56fa90f76c)">
     <!-- 8 -->
     <g transform="translate(243.716222 260.978314) scale(0.1 -0.1)">
      <defs>
       <path id="DejaVuSans-38" d="M 2034 2216 
Q 1584 2216 1326 1975 
Q 1069 1734 1069 1313 
Q 1069 891 1326 650 
Q 1584 409 2034 409 
Q 2484 409 2743 651 
Q 3003 894 3003 1313 
Q 3003 1734 2745 1975 
Q 2488 2216 2034 2216 
z
M 1403 2484 
Q 997 2584 770 2862 
Q 544 3141 544 3541 
Q 544 4100 942 4425 
Q 1341 4750 2034 4750 
Q 2731 4750 3128 4425 
Q 3525 4100 3525 3541 
Q 3525 3141 3298 2862 
Q 3072 2584 2669 2484 
Q 3125 2378 3379 2068 
Q 3634 1759 3634 1313 
Q 3634 634 3220 271 
Q 2806 -91 2034 -91 
Q 1263 -91 848 271 
Q 434 634 434 1313 
Q 434 1759 690 2068 
Q 947 2378 1403 2484 
z
M 1172 3481 
Q 1172 3119 1398 2916 
Q 1625 2713 2034 2713 
Q 2441 2713 2670 2916 
Q 2900 3119 2900 3481 
Q 2900 3844 2670 4047 
Q 2441 4250 2034 4250 
Q 1625 4250 1398 4047 
Q 1172 3844 1172 3481 
z
" transform="scale(0.015625)"/>
      </defs>
      <use xlink:href="#DejaVuSans-38"/>
     </g>
    </g>
   </g>
  </g>
 </g>
 <defs>
  <clipPath id="p56fa90f76c">
   <rect x="0" y="0" width="460.8" height="345.6"/>
  </clipPath>
 </defs>
</svg>
