<?xml version="1.0" encoding="utf-8" standalone="no"?>
<!DOCTYPE svg PUBLIC "-//W3C//DTD SVG 1.1//EN"
  "http://www.w3.org/Graphics/SVG/1.1/DTD/svg11.dtd">
<svg xmlns:xlink="http://www.w3.org/1999/xlink" width="460.8pt" height="345.6pt" viewBox="0 0 460.8 345.6" xmlns="http://www.w3.org/2000/svg" version="1.1">
 <metadata>
  <rdf:RDF xmlns:dc="http://purl.org/dc/elements/1.1/" xmlns:cc="http://creativecommons.org/ns#" xmlns:rdf="http://www.w3.org/1999/02/22-rdf-syntax-ns#">
   <cc:Work>
    <dc:type rdf:resource="http://purl.org/dc/dcmitype/StillImage"/>
    <dc:date>2024-02-07T14:34:31.546930</dc:date>
    <dc:format>image/svg+xml</dc:format>
    <dc:creator>
     <cc:Agent>
      <dc:title>Matplotlib v3.8.0, https://matplotlib.org/</dc:title>
     </cc:Agent>
    </dc:creator>
   </cc:Work>
  </rdf:RDF>
 </metadata>
 <defs>
  <style type="text/css">*{stroke-linejoin: round; stroke-linecap: butt}</style>
 </defs>
 <g id="figure_1">
  <g id="patch_1">
   <path d="M 0 345.6 
L 460.8 345.6 
L 460.8 0 
L 0 0 
z
" style="fill: #ffffff"/>
  </g>
  <g id="axes_1">
   <g id="patch_2">
    <path d="M 284.847896 40.235782 
Q 331.218404 35.217209 376.477368 30.318936 
" clip-path="url(#pb4f132b82a)" style="fill: none; stroke: #000000; stroke-linecap: round"/>
    <path d="M 372.285392 28.760945 
L 376.477368 30.318936 
L 372.715789 32.737722 
z
" clip-path="url(#pb4f132b82a)" style="stroke: #000000; stroke-linecap: round"/>
   </g>
   <g id="patch_3">
    <path d="M 281.904668 42.087399 
Q 268.711673 63.377124 256.107601 83.716497 
" clip-path="url(#pb4f132b82a)" style="fill: none; stroke: #000000; stroke-linecap: round"/>
    <path d="M 259.914637 81.369908 
L 256.107601 83.716497 
L 256.514551 79.262915 
z
" clip-path="url(#pb4f132b82a)" style="stroke: #000000; stroke-linecap: round"/>
   </g>
   <g id="patch_4">
    <path d="M 395.367894 69.306864 
Q 387.804236 50.547163 380.658653 32.824388 
" clip-path="url(#pb4f132b82a)" style="fill: none; stroke: #000000; stroke-linecap: round"/>
    <path d="M 380.299492 37.282078 
L 380.658653 32.824388 
L 384.009309 35.78633 
z
" clip-path="url(#pb4f132b82a)" style="stroke: #000000; stroke-linecap: round"/>
   </g>
   <g id="patch_5">
    <path d="M 394.589162 72.328893 
Q 365.857009 95.817287 337.990458 118.598055 
" clip-path="url(#pb4f132b82a)" style="fill: none; stroke: #000000; stroke-linecap: round"/>
    <path d="M 342.353168 117.614814 
L 337.990458 118.598055 
L 339.821491 114.517943 
z
" clip-path="url(#pb4f132b82a)" style="stroke: #000000; stroke-linecap: round"/>
   </g>
   <g id="patch_6">
    <path d="M 377.590998 30.19841 
Q 331.220491 35.216983 285.961526 40.115256 
" clip-path="url(#pb4f132b82a)" style="fill: none; stroke: #000000; stroke-linecap: round"/>
    <path d="M 290.153503 41.673248 
L 285.961526 40.115256 
L 289.723105 37.69647 
z
" clip-path="url(#pb4f132b82a)" style="stroke: #000000; stroke-linecap: round"/>
   </g>
   <g id="patch_7">
    <path d="M 380.23925 31.784166 
Q 387.802908 50.543867 394.948491 68.266643 
" clip-path="url(#pb4f132b82a)" style="fill: none; stroke: #000000; stroke-linecap: round"/>
    <path d="M 395.307652 63.808953 
L 394.948491 68.266643 
L 391.597835 65.3047 
z
" clip-path="url(#pb4f132b82a)" style="stroke: #000000; stroke-linecap: round"/>
   </g>
   <g id="patch_8">
    <path d="M 166.324258 257.633053 
Q 104.117468 264.357285 43.022237 270.961363 
" clip-path="url(#pb4f132b82a)" style="fill: none; stroke: #000000; stroke-linecap: round"/>
    <path d="M 47.214009 272.519905 
L 43.022237 270.961363 
L 46.784133 268.543071 
z
" clip-path="url(#pb4f132b82a)" style="stroke: #000000; stroke-linecap: round"/>
   </g>
   <g id="patch_9">
    <path d="M 170.162057 257.141916 
Q 239.10594 246.944161 306.943823 236.909998 
" clip-path="url(#pb4f132b82a)" style="fill: none; stroke: #000000; stroke-linecap: round"/>
    <path d="M 302.694231 235.516811 
L 306.943823 236.909998 
L 303.279519 239.473759 
z
" clip-path="url(#pb4f132b82a)" style="stroke: #000000; stroke-linecap: round"/>
   </g>
   <g id="patch_10">
    <path d="M 385.831118 212.255989 
Q 348.822071 224.064764 312.87815 235.533681 
" clip-path="url(#pb4f132b82a)" style="fill: none; stroke: #000000; stroke-linecap: round"/>
    <path d="M 317.296823 236.223123 
L 312.87815 235.533681 
L 316.080908 232.412408 
z
" clip-path="url(#pb4f132b82a)" style="stroke: #000000; stroke-linecap: round"/>
   </g>
   <g id="patch_11">
    <path d="M 385.801793 211.173491 
Q 343.740469 200.093037 302.760293 189.297397 
" clip-path="url(#pb4f132b82a)" style="fill: none; stroke: #000000; stroke-linecap: round"/>
    <path d="M 306.118838 192.250392 
L 302.760293 189.297397 
L 307.137816 188.382358 
z
" clip-path="url(#pb4f132b82a)" style="stroke: #000000; stroke-linecap: round"/>
   </g>
   <g id="patch_12">
    <path d="M 308.04952 236.74645 
Q 239.105637 246.944205 171.267754 256.978368 
" clip-path="url(#pb4f132b82a)" style="fill: none; stroke: #000000; stroke-linecap: round"/>
    <path d="M 175.517346 258.371555 
L 171.267754 256.978368 
L 174.932059 254.414607 
z
" clip-path="url(#pb4f132b82a)" style="stroke: #000000; stroke-linecap: round"/>
   </g>
   <g id="patch_13">
    <path d="M 311.810525 235.874337 
Q 348.819572 224.065562 384.763493 212.596645 
" clip-path="url(#pb4f132b82a)" style="fill: none; stroke: #000000; stroke-linecap: round"/>
    <path d="M 380.34482 211.907203 
L 384.763493 212.596645 
L 381.560735 215.717918 
z
" clip-path="url(#pb4f132b82a)" style="stroke: #000000; stroke-linecap: round"/>
   </g>
   <g id="patch_14">
    <path d="M 311.836156 236.967103 
Q 365.388501 251.396488 417.861312 265.535 
" clip-path="url(#pb4f132b82a)" style="fill: none; stroke: #000000; stroke-linecap: round"/>
    <path d="M 414.519388 262.563208 
L 417.861312 265.535 
L 413.478724 266.425464 
z
" clip-path="url(#pb4f132b82a)" style="stroke: #000000; stroke-linecap: round"/>
   </g>
   <g id="patch_15">
    <path d="M 309.564349 234.569783 
Q 304.887151 212.493324 300.44168 191.510621 
" clip-path="url(#pb4f132b82a)" style="fill: none; stroke: #000000; stroke-linecap: round"/>
    <path d="M 299.314161 195.838288 
L 300.44168 191.510621 
L 303.227302 195.009236 
z
" clip-path="url(#pb4f132b82a)" style="stroke: #000000; stroke-linecap: round"/>
   </g>
   <g id="patch_16">
    <path d="M 308.028908 236.39595 
Q 258.541796 234.681143 210.172047 233.005054 
" clip-path="url(#pb4f132b82a)" style="fill: none; stroke: #000000; stroke-linecap: round"/>
    <path d="M 214.100386 235.142377 
L 210.172047 233.005054 
L 214.23891 231.144777 
z
" clip-path="url(#pb4f132b82a)" style="stroke: #000000; stroke-linecap: round"/>
   </g>
   <g id="patch_17">
    <path d="M 41.908632 271.081738 
Q 104.115421 264.357506 165.210652 257.753428 
" clip-path="url(#pb4f132b82a)" style="fill: none; stroke: #000000; stroke-linecap: round"/>
    <path d="M 161.018881 256.194886 
L 165.210652 257.753428 
L 161.448756 260.17172 
z
" clip-path="url(#pb4f132b82a)" style="stroke: #000000; stroke-linecap: round"/>
   </g>
   <g id="patch_18">
    <path d="M 41.918819 271.450493 
Q 70.136449 273.802094 97.239907 276.060842 
" clip-path="url(#pb4f132b82a)" style="fill: none; stroke: #000000; stroke-linecap: round"/>
    <path d="M 93.419825 273.735551 
L 97.239907 276.060842 
L 93.087625 277.721732 
z
" clip-path="url(#pb4f132b82a)" style="stroke: #000000; stroke-linecap: round"/>
   </g>
   <g id="patch_19">
    <path d="M 41.918819 271.450493 
Q 70.136449 273.802094 97.239907 276.060842 
" clip-path="url(#pb4f132b82a)" style="fill: none; stroke: #000000; stroke-linecap: round"/>
    <path d="M 93.419825 273.735551 
L 97.239907 276.060842 
L 93.087625 277.721732 
z
" clip-path="url(#pb4f132b82a)" style="stroke: #000000; stroke-linecap: round"/>
   </g>
   <g id="patch_20">
    <path d="M 418.942532 265.826329 
Q 365.390187 251.396943 312.917376 237.258432 
" clip-path="url(#pb4f132b82a)" style="fill: none; stroke: #000000; stroke-linecap: round"/>
    <path d="M 316.2593 240.230223 
L 312.917376 237.258432 
L 317.299964 236.367967 
z
" clip-path="url(#pb4f132b82a)" style="stroke: #000000; stroke-linecap: round"/>
   </g>
   <g id="patch_21">
    <path d="M 255.518364 84.667356 
Q 268.711359 63.377631 281.315431 43.038258 
" clip-path="url(#pb4f132b82a)" style="fill: none; stroke: #000000; stroke-linecap: round"/>
    <path d="M 277.508395 45.384847 
L 281.315431 43.038258 
L 280.908481 47.49184 
z
" clip-path="url(#pb4f132b82a)" style="stroke: #000000; stroke-linecap: round"/>
   </g>
   <g id="patch_22">
    <path d="M 256.285024 87.063636 
Q 295.062335 103.421708 332.809519 119.345224 
" clip-path="url(#pb4f132b82a)" style="fill: none; stroke: #000000; stroke-linecap: round"/>
    <path d="M 329.901381 115.947764 
L 332.809519 119.345224 
L 328.346668 119.633258 
z
" clip-path="url(#pb4f132b82a)" style="stroke: #000000; stroke-linecap: round"/>
   </g>
   <g id="patch_23">
    <path d="M 252.851467 87.328135 
Q 222.112037 106.300372 192.324021 124.685401 
" clip-path="url(#pb4f132b82a)" style="fill: none; stroke: #000000; stroke-linecap: round"/>
    <path d="M 196.778329 124.286482 
L 192.324021 124.685401 
L 194.67747 120.882603 
z
" clip-path="url(#pb4f132b82a)" style="stroke: #000000; stroke-linecap: round"/>
   </g>
   <g id="patch_24">
    <path d="M 337.12618 119.304598 
Q 365.858333 95.816204 393.724884 73.035436 
" clip-path="url(#pb4f132b82a)" style="fill: none; stroke: #000000; stroke-linecap: round"/>
    <path d="M 389.362174 74.018677 
L 393.724884 73.035436 
L 391.893851 77.115549 
z
" clip-path="url(#pb4f132b82a)" style="stroke: #000000; stroke-linecap: round"/>
   </g>
   <g id="patch_25">
    <path d="M 333.839111 119.779553 
Q 295.061799 103.421482 257.314615 87.497966 
" clip-path="url(#pb4f132b82a)" style="fill: none; stroke: #000000; stroke-linecap: round"/>
    <path d="M 260.222753 90.895426 
L 257.314615 87.497966 
L 261.777466 87.209931 
z
" clip-path="url(#pb4f132b82a)" style="stroke: #000000; stroke-linecap: round"/>
   </g>
   <g id="patch_26">
    <path d="M 334.721262 122.24633 
Q 317.715326 154.527476 301.23049 185.819454 
" clip-path="url(#pb4f132b82a)" style="fill: none; stroke: #000000; stroke-linecap: round"/>
    <path d="M 304.864315 183.212671 
L 301.23049 185.819454 
L 301.325359 181.348324 
z
" clip-path="url(#pb4f132b82a)" style="stroke: #000000; stroke-linecap: round"/>
   </g>
   <g id="patch_27">
    <path d="M 98.349164 276.153285 
Q 70.131534 273.801684 43.028076 271.542936 
" clip-path="url(#pb4f132b82a)" style="fill: none; stroke: #000000; stroke-linecap: round"/>
    <path d="M 46.848157 273.868228 
L 43.028076 271.542936 
L 47.180357 269.882046 
z
" clip-path="url(#pb4f132b82a)" style="stroke: #000000; stroke-linecap: round"/>
   </g>
   <g id="patch_28">
    <path d="M 98.349164 276.153285 
Q 70.131534 273.801684 43.028076 271.542936 
" clip-path="url(#pb4f132b82a)" style="fill: none; stroke: #000000; stroke-linecap: round"/>
    <path d="M 46.848157 273.868228 
L 43.028076 271.542936 
L 47.180357 269.882046 
z
" clip-path="url(#pb4f132b82a)" style="stroke: #000000; stroke-linecap: round"/>
   </g>
   <g id="patch_29">
    <path d="M 102.07768 275.584265 
Q 153.701702 254.605828 204.289947 234.048301 
" clip-path="url(#pb4f132b82a)" style="fill: none; stroke: #000000; stroke-linecap: round"/>
    <path d="M 199.831291 233.701334 
L 204.289947 234.048301 
L 201.33718 237.407045 
z
" clip-path="url(#pb4f132b82a)" style="stroke: #000000; stroke-linecap: round"/>
   </g>
   <g id="patch_30">
    <path d="M 100.560666 278.228232 
Q 103.150196 295.963086 105.57819 312.591636 
" clip-path="url(#pb4f132b82a)" style="fill: none; stroke: #000000; stroke-linecap: round"/>
    <path d="M 106.979279 308.344643 
L 105.57819 312.591636 
L 103.021249 308.922569 
z
" clip-path="url(#pb4f132b82a)" style="stroke: #000000; stroke-linecap: round"/>
   </g>
   <g id="patch_31">
    <path d="M 105.739439 313.695983 
Q 103.14991 295.961129 100.721916 279.332579 
" clip-path="url(#pb4f132b82a)" style="fill: none; stroke: #000000; stroke-linecap: round"/>
    <path d="M 99.320827 283.579572 
L 100.721916 279.332579 
L 103.278857 283.001646 
z
" clip-path="url(#pb4f132b82a)" style="stroke: #000000; stroke-linecap: round"/>
   </g>
   <g id="patch_32">
    <path d="M 107.85823 314.996253 
Q 145.726766 302.361994 182.534738 290.081575 
" clip-path="url(#pb4f132b82a)" style="fill: none; stroke: #000000; stroke-linecap: round"/>
    <path d="M 178.107378 289.450321 
L 182.534738 290.081575 
L 179.373318 293.244711 
z
" clip-path="url(#pb4f132b82a)" style="stroke: #000000; stroke-linecap: round"/>
   </g>
   <g id="patch_33">
    <path d="M 183.588207 289.730102 
Q 145.71967 302.364361 108.911698 314.644779 
" clip-path="url(#pb4f132b82a)" style="fill: none; stroke: #000000; stroke-linecap: round"/>
    <path d="M 113.339058 315.276034 
L 108.911698 314.644779 
L 112.073118 311.481644 
z
" clip-path="url(#pb4f132b82a)" style="stroke: #000000; stroke-linecap: round"/>
   </g>
   <g id="patch_34">
    <path d="M 186.12521 287.308181 
Q 196.272275 261.008631 206.016889 235.75217 
" clip-path="url(#pb4f132b82a)" style="fill: none; stroke: #000000; stroke-linecap: round"/>
    <path d="M 202.711103 238.76411 
L 206.016889 235.75217 
L 206.442969 240.203963 
z
" clip-path="url(#pb4f132b82a)" style="stroke: #000000; stroke-linecap: round"/>
   </g>
   <g id="patch_35">
    <path d="M 209.054193 232.966318 
Q 258.541305 234.681126 306.911053 236.357215 
" clip-path="url(#pb4f132b82a)" style="fill: none; stroke: #000000; stroke-linecap: round"/>
    <path d="M 302.982714 234.219891 
L 306.911053 236.357215 
L 302.844191 238.217492 
z
" clip-path="url(#pb4f132b82a)" style="stroke: #000000; stroke-linecap: round"/>
   </g>
   <g id="patch_36">
    <path d="M 205.321161 233.629246 
Q 153.697139 254.607683 103.108894 275.165211 
" clip-path="url(#pb4f132b82a)" style="fill: none; stroke: #000000; stroke-linecap: round"/>
    <path d="M 107.56755 275.512178 
L 103.108894 275.165211 
L 106.061662 271.806466 
z
" clip-path="url(#pb4f132b82a)" style="stroke: #000000; stroke-linecap: round"/>
   </g>
   <g id="patch_37">
    <path d="M 206.419962 234.70747 
Q 196.272897 261.007019 186.528283 286.26348 
" clip-path="url(#pb4f132b82a)" style="fill: none; stroke: #000000; stroke-linecap: round"/>
    <path d="M 189.834069 283.251541 
L 186.528283 286.26348 
L 186.102203 281.811688 
z
" clip-path="url(#pb4f132b82a)" style="stroke: #000000; stroke-linecap: round"/>
   </g>
   <g id="patch_38">
    <path d="M 206.916862 230.975798 
Q 204.277113 205.686972 201.753437 181.510138 
" clip-path="url(#pb4f132b82a)" style="fill: none; stroke: #000000; stroke-linecap: round"/>
    <path d="M 200.179525 185.696163 
L 201.753437 181.510138 
L 204.157909 185.280883 
z
" clip-path="url(#pb4f132b82a)" style="stroke: #000000; stroke-linecap: round"/>
   </g>
   <g id="patch_39">
    <path d="M 208.862935 232.063576 
Q 253.462598 210.709542 297.053855 189.838327 
" clip-path="url(#pb4f132b82a)" style="fill: none; stroke: #000000; stroke-linecap: round"/>
    <path d="M 292.582373 189.761819 
L 297.053855 189.838327 
L 294.309759 193.369607 
z
" clip-path="url(#pb4f132b82a)" style="stroke: #000000; stroke-linecap: round"/>
   </g>
   <g id="patch_40">
    <path d="M 201.637099 180.395618 
Q 204.276849 205.684444 206.800524 229.861278 
" clip-path="url(#pb4f132b82a)" style="fill: none; stroke: #000000; stroke-linecap: round"/>
    <path d="M 208.374436 225.675253 
L 206.800524 229.861278 
L 204.396052 226.090533 
z
" clip-path="url(#pb4f132b82a)" style="stroke: #000000; stroke-linecap: round"/>
   </g>
   <g id="patch_41">
    <path d="M 203.360649 178.668748 
Q 250.620383 183.495748 296.767868 188.209146 
" clip-path="url(#pb4f132b82a)" style="fill: none; stroke: #000000; stroke-linecap: round"/>
    <path d="M 292.991789 185.813061 
L 296.767868 188.209146 
L 292.585353 189.792358 
z
" clip-path="url(#pb4f132b82a)" style="stroke: #000000; stroke-linecap: round"/>
   </g>
   <g id="patch_42">
    <path d="M 201.012537 176.583455 
Q 195.581805 152.379679 190.395846 129.266814 
" clip-path="url(#pb4f132b82a)" style="fill: none; stroke: #000000; stroke-linecap: round"/>
    <path d="M 189.320094 133.607638 
L 190.395846 129.266814 
L 193.223054 132.73191 
z
" clip-path="url(#pb4f132b82a)" style="stroke: #000000; stroke-linecap: round"/>
   </g>
   <g id="patch_43">
    <path d="M 300.209119 190.412931 
Q 304.886317 212.48939 309.331789 233.472092 
" clip-path="url(#pb4f132b82a)" style="fill: none; stroke: #000000; stroke-linecap: round"/>
    <path d="M 310.459307 229.144425 
L 309.331789 233.472092 
L 306.546166 229.973478 
z
" clip-path="url(#pb4f132b82a)" style="stroke: #000000; stroke-linecap: round"/>
   </g>
   <g id="patch_44">
    <path d="M 300.710838 186.805872 
Q 317.716775 154.524726 334.20161 123.232748 
" clip-path="url(#pb4f132b82a)" style="fill: none; stroke: #000000; stroke-linecap: round"/>
    <path d="M 330.567785 125.839531 
L 334.20161 123.232748 
L 334.106741 127.703878 
z
" clip-path="url(#pb4f132b82a)" style="stroke: #000000; stroke-linecap: round"/>
   </g>
   <g id="patch_45">
    <path d="M 298.062704 189.355296 
Q 253.463041 210.70933 209.871785 231.580545 
" clip-path="url(#pb4f132b82a)" style="fill: none; stroke: #000000; stroke-linecap: round"/>
    <path d="M 214.343266 231.657053 
L 209.871785 231.580545 
L 212.61588 228.049265 
z
" clip-path="url(#pb4f132b82a)" style="stroke: #000000; stroke-linecap: round"/>
   </g>
   <g id="patch_46">
    <path d="M 301.682389 189.013438 
Q 343.743712 200.093892 384.723888 210.889532 
" clip-path="url(#pb4f132b82a)" style="fill: none; stroke: #000000; stroke-linecap: round"/>
    <path d="M 381.365344 207.936537 
L 384.723888 210.889532 
L 380.346366 211.804571 
z
" clip-path="url(#pb4f132b82a)" style="stroke: #000000; stroke-linecap: round"/>
   </g>
   <g id="patch_47">
    <path d="M 297.883679 188.323112 
Q 250.623946 183.496112 204.476461 178.782715 
" clip-path="url(#pb4f132b82a)" style="fill: none; stroke: #000000; stroke-linecap: round"/>
    <path d="M 208.25254 181.1788 
L 204.476461 178.782715 
L 208.658976 177.199502 
z
" clip-path="url(#pb4f132b82a)" style="stroke: #000000; stroke-linecap: round"/>
   </g>
   <g id="patch_48">
    <path d="M 191.376038 125.270492 
Q 222.115468 106.298255 251.903485 87.913226 
" clip-path="url(#pb4f132b82a)" style="fill: none; stroke: #000000; stroke-linecap: round"/>
    <path d="M 247.449177 88.312145 
L 251.903485 87.913226 
L 249.550036 91.716024 
z
" clip-path="url(#pb4f132b82a)" style="stroke: #000000; stroke-linecap: round"/>
   </g>
   <g id="patch_49">
    <path d="M 190.151258 128.176729 
Q 195.58199 152.380505 200.767949 175.49337 
" clip-path="url(#pb4f132b82a)" style="fill: none; stroke: #000000; stroke-linecap: round"/>
    <path d="M 201.843701 171.152545 
L 200.767949 175.49337 
L 197.94074 172.028273 
z
" clip-path="url(#pb4f132b82a)" style="stroke: #000000; stroke-linecap: round"/>
   </g>
   <g id="PathCollection_1">
    <defs>
     <path id="C0_0_e6f4b7b7bf" d="M 0 1.936492 
C 0.513564 1.936492 1.006162 1.732451 1.369306 1.369306 
C 1.732451 1.006162 1.936492 0.513564 1.936492 -0 
C 1.936492 -0.513564 1.732451 -1.006162 1.369306 -1.369306 
C 1.006162 -1.732451 0.513564 -1.936492 0 -1.936492 
C -0.513564 -1.936492 -1.006162 -1.732451 -1.369306 -1.369306 
C -1.732451 -1.006162 -1.936492 -0.513564 -1.936492 0 
C -1.936492 0.513564 -1.732451 1.006162 -1.369306 1.369306 
C -1.006162 1.732451 -0.513564 1.936492 0 1.936492 
z
"/>
    </defs>
    <g clip-path="url(#pb4f132b82a)">
     <use xlink:href="#C0_0_e6f4b7b7bf" x="282.922995" y="40.44411" style="fill: #ff0000; stroke: #ff0000"/>
    </g>
    <g clip-path="url(#pb4f132b82a)">
     <use xlink:href="#C0_0_e6f4b7b7bf" x="396.091245" y="71.100948" style="fill: #ff0000; stroke: #ff0000"/>
    </g>
    <g clip-path="url(#pb4f132b82a)">
     <use xlink:href="#C0_0_e6f4b7b7bf" x="379.515899" y="29.990083" style="fill: #ff0000; stroke: #ff0000"/>
    </g>
    <g clip-path="url(#pb4f132b82a)">
     <use xlink:href="#C0_0_e6f4b7b7bf" x="168.246112" y="257.425311" style="fill: #ff0000; stroke: #ff0000"/>
    </g>
    <g clip-path="url(#pb4f132b82a)">
     <use xlink:href="#C0_0_e6f4b7b7bf" x="387.676178" y="211.667271" style="fill: #ff0000; stroke: #ff0000"/>
    </g>
    <g clip-path="url(#pb4f132b82a)">
     <use xlink:href="#C0_0_e6f4b7b7bf" x="309.965465" y="236.463055" style="fill: #ff0000; stroke: #ff0000"/>
    </g>
    <g clip-path="url(#pb4f132b82a)">
     <use xlink:href="#C0_0_e6f4b7b7bf" x="39.986777" y="271.289481" style="fill: #ff0000; stroke: #ff0000"/>
    </g>
    <g clip-path="url(#pb4f132b82a)">
     <use xlink:href="#C0_0_e6f4b7b7bf" x="420.813223" y="266.330376" style="fill: #ff0000; stroke: #ff0000"/>
    </g>
    <g clip-path="url(#pb4f132b82a)">
     <use xlink:href="#C0_0_e6f4b7b7bf" x="254.500037" y="86.310646" style="stroke: #000000"/>
    </g>
    <g clip-path="url(#pb4f132b82a)">
     <use xlink:href="#C0_0_e6f4b7b7bf" x="335.624097" y="120.532544" style="fill: #ff0000; stroke: #ff0000"/>
    </g>
    <g clip-path="url(#pb4f132b82a)">
     <use xlink:href="#C0_0_e6f4b7b7bf" x="100.281205" y="276.314298" style="fill: #ff0000; stroke: #ff0000"/>
    </g>
    <g clip-path="url(#pb4f132b82a)">
     <use xlink:href="#C0_0_e6f4b7b7bf" x="106.0189" y="315.609917" style="fill: #ff0000; stroke: #ff0000"/>
    </g>
    <g clip-path="url(#pb4f132b82a)">
     <use xlink:href="#C0_0_e6f4b7b7bf" x="185.427536" y="289.116437" style="fill: #ff0000; stroke: #ff0000"/>
    </g>
    <g clip-path="url(#pb4f132b82a)">
     <use xlink:href="#C0_0_e6f4b7b7bf" x="207.117636" y="232.899214" style="stroke: #000000"/>
    </g>
    <g clip-path="url(#pb4f132b82a)">
     <use xlink:href="#C0_0_e6f4b7b7bf" x="201.436326" y="178.472202" style="fill: #ff0000; stroke: #ff0000"/>
    </g>
    <g clip-path="url(#pb4f132b82a)">
     <use xlink:href="#C0_0_e6f4b7b7bf" x="299.808003" y="188.519658" style="fill: #ff0000; stroke: #ff0000"/>
    </g>
    <g clip-path="url(#pb4f132b82a)">
     <use xlink:href="#C0_0_e6f4b7b7bf" x="189.727469" y="126.287981" style="fill: #ff0000; stroke: #ff0000"/>
    </g>
   </g>
   <g id="text_1">
    <g clip-path="url(#pb4f132b82a)">
     <!-- 0 -->
     <g transform="translate(279.741745 43.203485) scale(0.1 -0.1)">
      <defs>
       <path id="DejaVuSans-30" d="M 2034 4250 
Q 1547 4250 1301 3770 
Q 1056 3291 1056 2328 
Q 1056 1369 1301 889 
Q 1547 409 2034 409 
Q 2525 409 2770 889 
Q 3016 1369 3016 2328 
Q 3016 3291 2770 3770 
Q 2525 4250 2034 4250 
z
M 2034 4750 
Q 2819 4750 3233 4129 
Q 3647 3509 3647 2328 
Q 3647 1150 3233 529 
Q 2819 -91 2034 -91 
Q 1250 -91 836 529 
Q 422 1150 422 2328 
Q 422 3509 836 4129 
Q 1250 4750 2034 4750 
z
" transform="scale(0.015625)"/>
      </defs>
      <use xlink:href="#DejaVuSans-30"/>
     </g>
    </g>
   </g>
   <g id="text_2">
    <g clip-path="url(#pb4f132b82a)">
     <!-- 2 -->
     <g transform="translate(392.909995 73.860323) scale(0.1 -0.1)">
      <defs>
       <path id="DejaVuSans-32" d="M 1228 531 
L 3431 531 
L 3431 0 
L 469 0 
L 469 531 
Q 828 903 1448 1529 
Q 2069 2156 2228 2338 
Q 2531 2678 2651 2914 
Q 2772 3150 2772 3378 
Q 2772 3750 2511 3984 
Q 2250 4219 1831 4219 
Q 1534 4219 1204 4116 
Q 875 4013 500 3803 
L 500 4441 
Q 881 4594 1212 4672 
Q 1544 4750 1819 4750 
Q 2544 4750 2975 4387 
Q 3406 4025 3406 3419 
Q 3406 3131 3298 2873 
Q 3191 2616 2906 2266 
Q 2828 2175 2409 1742 
Q 1991 1309 1228 531 
z
" transform="scale(0.015625)"/>
      </defs>
      <use xlink:href="#DejaVuSans-32"/>
     </g>
    </g>
   </g>
   <g id="text_3">
    <g clip-path="url(#pb4f132b82a)">
     <!-- 3 -->
     <g transform="translate(376.334649 32.749458) scale(0.1 -0.1)">
      <defs>
       <path id="DejaVuSans-33" d="M 2597 2516 
Q 3050 2419 3304 2112 
Q 3559 1806 3559 1356 
Q 3559 666 3084 287 
Q 2609 -91 1734 -91 
Q 1441 -91 1130 -33 
Q 819 25 488 141 
L 488 750 
Q 750 597 1062 519 
Q 1375 441 1716 441 
Q 2309 441 2620 675 
Q 2931 909 2931 1356 
Q 2931 1769 2642 2001 
Q 2353 2234 1838 2234 
L 1294 2234 
L 1294 2753 
L 1863 2753 
Q 2328 2753 2575 2939 
Q 2822 3125 2822 3475 
Q 2822 3834 2567 4026 
Q 2313 4219 1838 4219 
Q 1578 4219 1281 4162 
Q 984 4106 628 3988 
L 628 4550 
Q 988 4650 1302 4700 
Q 1616 4750 1894 4750 
Q 2613 4750 3031 4423 
Q 3450 4097 3450 3541 
Q 3450 3153 3228 2886 
Q 3006 2619 2597 2516 
z
" transform="scale(0.015625)"/>
      </defs>
      <use xlink:href="#DejaVuSans-33"/>
     </g>
    </g>
   </g>
   <g id="text_4">
    <g clip-path="url(#pb4f132b82a)">
     <!-- 4 -->
     <g transform="translate(165.064862 260.184686) scale(0.1 -0.1)">
      <defs>
       <path id="DejaVuSans-34" d="M 2419 4116 
L 825 1625 
L 2419 1625 
L 2419 4116 
z
M 2253 4666 
L 3047 4666 
L 3047 1625 
L 3713 1625 
L 3713 1100 
L 3047 1100 
L 3047 0 
L 2419 0 
L 2419 1100 
L 313 1100 
L 313 1709 
L 2253 4666 
z
" transform="scale(0.015625)"/>
      </defs>
      <use xlink:href="#DejaVuSans-34"/>
     </g>
    </g>
   </g>
   <g id="text_5">
    <g clip-path="url(#pb4f132b82a)">
     <!-- 6 -->
     <g transform="translate(384.494928 214.426646) scale(0.1 -0.1)">
      <defs>
       <path id="DejaVuSans-36" d="M 2113 2584 
Q 1688 2584 1439 2293 
Q 1191 2003 1191 1497 
Q 1191 994 1439 701 
Q 1688 409 2113 409 
Q 2538 409 2786 701 
Q 3034 994 3034 1497 
Q 3034 2003 2786 2293 
Q 2538 2584 2113 2584 
z
M 3366 4563 
L 3366 3988 
Q 3128 4100 2886 4159 
Q 2644 4219 2406 4219 
Q 1781 4219 1451 3797 
Q 1122 3375 1075 2522 
Q 1259 2794 1537 2939 
Q 1816 3084 2150 3084 
Q 2853 3084 3261 2657 
Q 3669 2231 3669 1497 
Q 3669 778 3244 343 
Q 2819 -91 2113 -91 
Q 1303 -91 875 529 
Q 447 1150 447 2328 
Q 447 3434 972 4092 
Q 1497 4750 2381 4750 
Q 2619 4750 2861 4703 
Q 3103 4656 3366 4563 
z
" transform="scale(0.015625)"/>
      </defs>
      <use xlink:href="#DejaVuSans-36"/>
     </g>
    </g>
   </g>
   <g id="text_6">
    <g clip-path="url(#pb4f132b82a)">
     <!-- 7 -->
     <g transform="translate(306.784215 239.22243) scale(0.1 -0.1)">
      <defs>
       <path id="DejaVuSans-37" d="M 525 4666 
L 3525 4666 
L 3525 4397 
L 1831 0 
L 1172 0 
L 2766 4134 
L 525 4134 
L 525 4666 
z
" transform="scale(0.015625)"/>
      </defs>
      <use xlink:href="#DejaVuSans-37"/>
     </g>
    </g>
   </g>
   <g id="text_7">
    <g clip-path="url(#pb4f132b82a)">
     <!-- 8 -->
     <g transform="translate(36.805527 274.048856) scale(0.1 -0.1)">
      <defs>
       <path id="DejaVuSans-38" d="M 2034 2216 
Q 1584 2216 1326 1975 
Q 1069 1734 1069 1313 
Q 1069 891 1326 650 
Q 1584 409 2034 409 
Q 2484 409 2743 651 
Q 3003 894 3003 1313 
Q 3003 1734 2745 1975 
Q 2488 2216 2034 2216 
z
M 1403 2484 
Q 997 2584 770 2862 
Q 544 3141 544 3541 
Q 544 4100 942 4425 
Q 1341 4750 2034 4750 
Q 2731 4750 3128 4425 
Q 3525 4100 3525 3541 
Q 3525 3141 3298 2862 
Q 3072 2584 2669 2484 
Q 3125 2378 3379 2068 
Q 3634 1759 3634 1313 
Q 3634 634 3220 271 
Q 2806 -91 2034 -91 
Q 1263 -91 848 271 
Q 434 634 434 1313 
Q 434 1759 690 2068 
Q 947 2378 1403 2484 
z
M 1172 3481 
Q 1172 3119 1398 2916 
Q 1625 2713 2034 2713 
Q 2441 2713 2670 2916 
Q 2900 3119 2900 3481 
Q 2900 3844 2670 4047 
Q 2441 4250 2034 4250 
Q 1625 4250 1398 4047 
Q 1172 3844 1172 3481 
z
" transform="scale(0.015625)"/>
      </defs>
      <use xlink:href="#DejaVuSans-38"/>
     </g>
    </g>
   </g>
   <g id="text_8">
    <g clip-path="url(#pb4f132b82a)">
     <!-- 9 -->
     <g transform="translate(417.631973 269.089751) scale(0.1 -0.1)">
      <defs>
       <path id="DejaVuSans-39" d="M 703 97 
L 703 672 
Q 941 559 1184 500 
Q 1428 441 1663 441 
Q 2288 441 2617 861 
Q 2947 1281 2994 2138 
Q 2813 1869 2534 1725 
Q 2256 1581 1919 1581 
Q 1219 1581 811 2004 
Q 403 2428 403 3163 
Q 403 3881 828 4315 
Q 1253 4750 1959 4750 
Q 2769 4750 3195 4129 
Q 3622 3509 3622 2328 
Q 3622 1225 3098 567 
Q 2575 -91 1691 -91 
Q 1453 -91 1209 -44 
Q 966 3 703 97 
z
M 1959 2075 
Q 2384 2075 2632 2365 
Q 2881 2656 2881 3163 
Q 2881 3666 2632 3958 
Q 2384 4250 1959 4250 
Q 1534 4250 1286 3958 
Q 1038 3666 1038 3163 
Q 1038 2656 1286 2365 
Q 1534 2075 1959 2075 
z
" transform="scale(0.015625)"/>
      </defs>
      <use xlink:href="#DejaVuSans-39"/>
     </g>
    </g>
   </g>
   <g id="text_9">
    <g clip-path="url(#pb4f132b82a)">
     <!-- 12 -->
     <g transform="translate(248.137537 89.070021) scale(0.1 -0.1)">
      <defs>
       <path id="DejaVuSans-31" d="M 794 531 
L 1825 531 
L 1825 4091 
L 703 3866 
L 703 4441 
L 1819 4666 
L 2450 4666 
L 2450 531 
L 3481 531 
L 3481 0 
L 794 0 
L 794 531 
z
" transform="scale(0.015625)"/>
      </defs>
      <use xlink:href="#DejaVuSans-31"/>
      <use xlink:href="#DejaVuSans-32" x="63.623047"/>
     </g>
    </g>
   </g>
   <g id="text_10">
    <g clip-path="url(#pb4f132b82a)">
     <!-- 13 -->
     <g transform="translate(329.261597 123.291919) scale(0.1 -0.1)">
      <use xlink:href="#DejaVuSans-31"/>
      <use xlink:href="#DejaVuSans-33" x="63.623047"/>
     </g>
    </g>
   </g>
   <g id="text_11">
    <g clip-path="url(#pb4f132b82a)">
     <!-- 14 -->
     <g transform="translate(93.918705 279.073673) scale(0.1 -0.1)">
      <use xlink:href="#DejaVuSans-31"/>
      <use xlink:href="#DejaVuSans-34" x="63.623047"/>
     </g>
    </g>
   </g>
   <g id="text_12">
    <g clip-path="url(#pb4f132b82a)">
     <!-- 15 -->
     <g transform="translate(99.6564 318.369292) scale(0.1 -0.1)">
      <defs>
       <path id="DejaVuSans-35" d="M 691 4666 
L 3169 4666 
L 3169 4134 
L 1269 4134 
L 1269 2991 
Q 1406 3038 1543 3061 
Q 1681 3084 1819 3084 
Q 2600 3084 3056 2656 
Q 3513 2228 3513 1497 
Q 3513 744 3044 326 
Q 2575 -91 1722 -91 
Q 1428 -91 1123 -41 
Q 819 9 494 109 
L 494 744 
Q 775 591 1075 516 
Q 1375 441 1709 441 
Q 2250 441 2565 725 
Q 2881 1009 2881 1497 
Q 2881 1984 2565 2268 
Q 2250 2553 1709 2553 
Q 1456 2553 1204 2497 
Q 953 2441 691 2322 
L 691 4666 
z
" transform="scale(0.015625)"/>
      </defs>
      <use xlink:href="#DejaVuSans-31"/>
      <use xlink:href="#DejaVuSans-35" x="63.623047"/>
     </g>
    </g>
   </g>
   <g id="text_13">
    <g clip-path="url(#pb4f132b82a)">
     <!-- 16 -->
     <g transform="translate(179.065036 291.875812) scale(0.1 -0.1)">
      <use xlink:href="#DejaVuSans-31"/>
      <use xlink:href="#DejaVuSans-36" x="63.623047"/>
     </g>
    </g>
   </g>
   <g id="text_14">
    <g clip-path="url(#pb4f132b82a)">
     <!-- 17 -->
     <g transform="translate(200.755136 235.658589) scale(0.1 -0.1)">
      <use xlink:href="#DejaVuSans-31"/>
      <use xlink:href="#DejaVuSans-37" x="63.623047"/>
     </g>
    </g>
   </g>
   <g id="text_15">
    <g clip-path="url(#pb4f132b82a)">
     <!-- 18 -->
     <g transform="translate(195.073826 181.231577) scale(0.1 -0.1)">
      <use xlink:href="#DejaVuSans-31"/>
      <use xlink:href="#DejaVuSans-38" x="63.623047"/>
     </g>
    </g>
   </g>
   <g id="text_16">
    <g clip-path="url(#pb4f132b82a)">
     <!-- 19 -->
     <g transform="translate(293.445503 191.279033) scale(0.1 -0.1)">
      <use xlink:href="#DejaVuSans-31"/>
      <use xlink:href="#DejaVuSans-39" x="63.623047"/>
     </g>
    </g>
   </g>
   <g id="text_17">
    <g clip-path="url(#pb4f132b82a)">
     <!-- 21 -->
     <g transform="translate(183.364969 129.047356) scale(0.1 -0.1)">
      <use xlink:href="#DejaVuSans-32"/>
      <use xlink:href="#DejaVuSans-31" x="63.623047"/>
     </g>
    </g>
   </g>
  </g>
 </g>
 <defs>
  <clipPath id="pb4f132b82a">
   <rect x="0" y="0" width="460.8" height="345.6"/>
  </clipPath>
 </defs>
</svg>
