<?xml version="1.0" encoding="utf-8" standalone="no"?>
<!DOCTYPE svg PUBLIC "-//W3C//DTD SVG 1.1//EN"
  "http://www.w3.org/Graphics/SVG/1.1/DTD/svg11.dtd">
<svg xmlns:xlink="http://www.w3.org/1999/xlink" width="460.8pt" height="345.6pt" viewBox="0 0 460.8 345.6" xmlns="http://www.w3.org/2000/svg" version="1.1">
 <metadata>
  <rdf:RDF xmlns:dc="http://purl.org/dc/elements/1.1/" xmlns:cc="http://creativecommons.org/ns#" xmlns:rdf="http://www.w3.org/1999/02/22-rdf-syntax-ns#">
   <cc:Work>
    <dc:type rdf:resource="http://purl.org/dc/dcmitype/StillImage"/>
    <dc:date>2024-02-07T13:47:46.470093</dc:date>
    <dc:format>image/svg+xml</dc:format>
    <dc:creator>
     <cc:Agent>
      <dc:title>Matplotlib v3.8.0, https://matplotlib.org/</dc:title>
     </cc:Agent>
    </dc:creator>
   </cc:Work>
  </rdf:RDF>
 </metadata>
 <defs>
  <style type="text/css">*{stroke-linejoin: round; stroke-linecap: butt}</style>
 </defs>
 <g id="figure_1">
  <g id="patch_1">
   <path d="M 0 345.6 
L 460.8 345.6 
L 460.8 0 
L 0 0 
z
" style="fill: #ffffff"/>
  </g>
  <g id="axes_1">
   <g id="patch_2">
    <path d="M 240.941405 193.862642 
Q 268.231935 201.880265 294.449766 209.582743 
" clip-path="url(#pb7a3f25ce2)" style="fill: none; stroke: #000000; stroke-linecap: round"/>
    <path d="M 291.175712 206.53634 
L 294.449766 209.582743 
L 290.048212 210.374145 
z
" clip-path="url(#pb7a3f25ce2)" style="stroke: #000000; stroke-linecap: round"/>
   </g>
   <g id="patch_3">
    <path d="M 240.941405 193.862642 
Q 268.231935 201.880265 294.449766 209.582743 
" clip-path="url(#pb7a3f25ce2)" style="fill: none; stroke: #000000; stroke-linecap: round"/>
    <path d="M 291.175712 206.53634 
L 294.449766 209.582743 
L 290.048212 210.374145 
z
" clip-path="url(#pb7a3f25ce2)" style="stroke: #000000; stroke-linecap: round"/>
   </g>
   <g id="patch_4">
    <path d="M 237.265834 192.634421 
Q 195.294491 176.871665 154.369804 161.50199 
" clip-path="url(#pb7a3f25ce2)" style="fill: none; stroke: #000000; stroke-linecap: round"/>
    <path d="M 157.411264 164.780636 
L 154.369804 161.50199 
L 158.817596 161.036009 
z
" clip-path="url(#pb7a3f25ce2)" style="stroke: #000000; stroke-linecap: round"/>
   </g>
   <g id="patch_5">
    <path d="M 91.929624 114.02423 
Q 66.926739 115.193072 43.040669 116.309705 
" clip-path="url(#pb7a3f25ce2)" style="fill: none; stroke: #000000; stroke-linecap: round"/>
    <path d="M 47.1297 118.120734 
L 43.040669 116.309705 
L 46.942911 114.125098 
z
" clip-path="url(#pb7a3f25ce2)" style="stroke: #000000; stroke-linecap: round"/>
   </g>
   <g id="patch_6">
    <path d="M 95.715696 114.513918 
Q 129.340542 125.065159 161.89864 135.281663 
" clip-path="url(#pb7a3f25ce2)" style="fill: none; stroke: #000000; stroke-linecap: round"/>
    <path d="M 158.680925 132.175812 
L 161.89864 135.281663 
L 157.48333 135.992324 
z
" clip-path="url(#pb7a3f25ce2)" style="stroke: #000000; stroke-linecap: round"/>
   </g>
   <g id="patch_7">
    <path d="M 367.406725 216.510289 
Q 333.356757 213.560326 300.420652 210.706864 
" clip-path="url(#pb7a3f25ce2)" style="fill: none; stroke: #000000; stroke-linecap: round"/>
    <path d="M 304.233098 213.044652 
L 300.420652 210.706864 
L 304.57835 209.05958 
z
" clip-path="url(#pb7a3f25ce2)" style="stroke: #000000; stroke-linecap: round"/>
   </g>
   <g id="patch_8">
    <path d="M 371.09111 215.862116 
Q 395.073593 204.730845 418.041953 194.070269 
" clip-path="url(#pb7a3f25ce2)" style="fill: none; stroke: #000000; stroke-linecap: round"/>
    <path d="M 413.57171 193.940167 
L 418.041953 194.070269 
L 415.255726 197.568403 
z
" clip-path="url(#pb7a3f25ce2)" style="stroke: #000000; stroke-linecap: round"/>
   </g>
   <g id="patch_9">
    <path d="M 295.518175 209.896628 
Q 268.227645 201.879005 242.009814 194.176527 
" clip-path="url(#pb7a3f25ce2)" style="fill: none; stroke: #000000; stroke-linecap: round"/>
    <path d="M 245.283869 197.22293 
L 242.009814 194.176527 
L 246.411369 193.385125 
z
" clip-path="url(#pb7a3f25ce2)" style="stroke: #000000; stroke-linecap: round"/>
   </g>
   <g id="patch_10">
    <path d="M 295.518175 209.896628 
Q 268.227645 201.879005 242.009814 194.176527 
" clip-path="url(#pb7a3f25ce2)" style="fill: none; stroke: #000000; stroke-linecap: round"/>
    <path d="M 245.283869 197.22293 
L 242.009814 194.176527 
L 246.411369 193.385125 
z
" clip-path="url(#pb7a3f25ce2)" style="stroke: #000000; stroke-linecap: round"/>
   </g>
   <g id="patch_11">
    <path d="M 299.307161 210.610396 
Q 333.357128 213.560358 366.293233 216.41382 
" clip-path="url(#pb7a3f25ce2)" style="fill: none; stroke: #000000; stroke-linecap: round"/>
    <path d="M 362.480787 214.076032 
L 366.293233 216.41382 
L 362.135535 218.061104 
z
" clip-path="url(#pb7a3f25ce2)" style="stroke: #000000; stroke-linecap: round"/>
   </g>
   <g id="patch_12">
    <path d="M 153.32411 161.10927 
Q 195.295453 176.872026 236.220141 192.2417 
" clip-path="url(#pb7a3f25ce2)" style="fill: none; stroke: #000000; stroke-linecap: round"/>
    <path d="M 233.17868 188.963055 
L 236.220141 192.2417 
L 231.772348 192.707682 
z
" clip-path="url(#pb7a3f25ce2)" style="stroke: #000000; stroke-linecap: round"/>
   </g>
   <g id="patch_13">
    <path d="M 149.609451 160.039596 
Q 114.534817 152.873831 80.55559 145.931858 
" clip-path="url(#pb7a3f25ce2)" style="fill: none; stroke: #000000; stroke-linecap: round"/>
    <path d="M 84.074306 148.692046 
L 80.55559 145.931858 
L 84.87497 144.772998 
z
" clip-path="url(#pb7a3f25ce2)" style="stroke: #000000; stroke-linecap: round"/>
   </g>
   <g id="patch_14">
    <path d="M 152.079786 158.579764 
Q 161.512881 128.010893 170.616307 98.510347 
" clip-path="url(#pb7a3f25ce2)" style="fill: none; stroke: #000000; stroke-linecap: round"/>
    <path d="M 167.52577 101.742772 
L 170.616307 98.510347 
L 171.347925 102.922232 
z
" clip-path="url(#pb7a3f25ce2)" style="stroke: #000000; stroke-linecap: round"/>
   </g>
   <g id="patch_15">
    <path d="M 150.164026 161.820347 
Q 122.234202 190.72739 95.08124 218.83039 
" clip-path="url(#pb7a3f25ce2)" style="fill: none; stroke: #000000; stroke-linecap: round"/>
    <path d="M 99.298942 217.34345 
L 95.08124 218.83039 
L 96.42231 214.564064 
z
" clip-path="url(#pb7a3f25ce2)" style="stroke: #000000; stroke-linecap: round"/>
   </g>
   <g id="patch_16">
    <path d="M 152.440319 158.732955 
Q 158.162531 148.313836 163.346541 138.874685 
" clip-path="url(#pb7a3f25ce2)" style="fill: none; stroke: #000000; stroke-linecap: round"/>
    <path d="M 159.66799 141.417964 
L 163.346541 138.874685 
L 163.174033 143.343493 
z
" clip-path="url(#pb7a3f25ce2)" style="stroke: #000000; stroke-linecap: round"/>
   </g>
   <g id="patch_17">
    <path d="M 152.440319 158.732955 
Q 158.162531 148.313836 163.346541 138.874685 
" clip-path="url(#pb7a3f25ce2)" style="fill: none; stroke: #000000; stroke-linecap: round"/>
    <path d="M 159.66799 141.417964 
L 163.346541 138.874685 
L 163.174033 143.343493 
z
" clip-path="url(#pb7a3f25ce2)" style="stroke: #000000; stroke-linecap: round"/>
   </g>
   <g id="patch_18">
    <path d="M 152.440319 158.732955 
Q 158.162531 148.313836 163.346541 138.874685 
" clip-path="url(#pb7a3f25ce2)" style="fill: none; stroke: #000000; stroke-linecap: round"/>
    <path d="M 159.66799 141.417964 
L 163.346541 138.874685 
L 163.174033 143.343493 
z
" clip-path="url(#pb7a3f25ce2)" style="stroke: #000000; stroke-linecap: round"/>
   </g>
   <g id="patch_19">
    <path d="M 152.440319 158.732955 
Q 158.162531 148.313836 163.346541 138.874685 
" clip-path="url(#pb7a3f25ce2)" style="fill: none; stroke: #000000; stroke-linecap: round"/>
    <path d="M 159.66799 141.417964 
L 163.346541 138.874685 
L 163.174033 143.343493 
z
" clip-path="url(#pb7a3f25ce2)" style="stroke: #000000; stroke-linecap: round"/>
   </g>
   <g id="patch_20">
    <path d="M 147.851861 66.006729 
Q 146.806261 48.963452 145.829124 33.03611 
" clip-path="url(#pb7a3f25ce2)" style="fill: none; stroke: #000000; stroke-linecap: round"/>
    <path d="M 144.077815 37.151073 
L 145.829124 33.03611 
L 148.070309 36.906134 
z
" clip-path="url(#pb7a3f25ce2)" style="stroke: #000000; stroke-linecap: round"/>
   </g>
   <g id="patch_21">
    <path d="M 147.851861 66.006729 
Q 146.806261 48.963452 145.829124 33.03611 
" clip-path="url(#pb7a3f25ce2)" style="fill: none; stroke: #000000; stroke-linecap: round"/>
    <path d="M 144.077815 37.151073 
L 145.829124 33.03611 
L 148.070309 36.906134 
z
" clip-path="url(#pb7a3f25ce2)" style="stroke: #000000; stroke-linecap: round"/>
   </g>
   <g id="patch_22">
    <path d="M 148.434102 69.817381 
Q 156.393026 102.065412 164.084053 133.227979 
" clip-path="url(#pb7a3f25ce2)" style="fill: none; stroke: #000000; stroke-linecap: round"/>
    <path d="M 165.067335 128.865279 
L 164.084053 133.227979 
L 161.183862 129.823733 
z
" clip-path="url(#pb7a3f25ce2)" style="stroke: #000000; stroke-linecap: round"/>
   </g>
   <g id="patch_23">
    <path d="M 41.92374 116.36192 
Q 66.926625 115.193078 90.812696 114.076445 
" clip-path="url(#pb7a3f25ce2)" style="fill: none; stroke: #000000; stroke-linecap: round"/>
    <path d="M 86.723665 112.265416 
L 90.812696 114.076445 
L 86.910454 116.261052 
z
" clip-path="url(#pb7a3f25ce2)" style="stroke: #000000; stroke-linecap: round"/>
   </g>
   <g id="patch_24">
    <path d="M 41.521189 117.631239 
Q 58.774201 130.885387 75.1406 143.458419 
" clip-path="url(#pb7a3f25ce2)" style="fill: none; stroke: #000000; stroke-linecap: round"/>
    <path d="M 73.186976 139.435565 
L 75.1406 143.458419 
L 70.750143 142.607607 
z
" clip-path="url(#pb7a3f25ce2)" style="stroke: #000000; stroke-linecap: round"/>
   </g>
   <g id="patch_25">
    <path d="M 162.967807 135.61716 
Q 129.342961 125.065919 96.784863 114.849415 
" clip-path="url(#pb7a3f25ce2)" style="fill: none; stroke: #000000; stroke-linecap: round"/>
    <path d="M 100.002578 117.955266 
L 96.784863 114.849415 
L 101.200173 114.138754 
z
" clip-path="url(#pb7a3f25ce2)" style="stroke: #000000; stroke-linecap: round"/>
   </g>
   <g id="patch_26">
    <path d="M 163.886112 137.892223 
Q 158.1639 148.311342 152.97989 157.750493 
" clip-path="url(#pb7a3f25ce2)" style="fill: none; stroke: #000000; stroke-linecap: round"/>
    <path d="M 156.658441 155.207214 
L 152.97989 157.750493 
L 153.152398 153.281685 
z
" clip-path="url(#pb7a3f25ce2)" style="stroke: #000000; stroke-linecap: round"/>
   </g>
   <g id="patch_27">
    <path d="M 163.886112 137.892223 
Q 158.1639 148.311342 152.97989 157.750493 
" clip-path="url(#pb7a3f25ce2)" style="fill: none; stroke: #000000; stroke-linecap: round"/>
    <path d="M 156.658441 155.207214 
L 152.97989 157.750493 
L 153.152398 153.281685 
z
" clip-path="url(#pb7a3f25ce2)" style="stroke: #000000; stroke-linecap: round"/>
   </g>
   <g id="patch_28">
    <path d="M 163.886112 137.892223 
Q 158.1639 148.311342 152.97989 157.750493 
" clip-path="url(#pb7a3f25ce2)" style="fill: none; stroke: #000000; stroke-linecap: round"/>
    <path d="M 156.658441 155.207214 
L 152.97989 157.750493 
L 153.152398 153.281685 
z
" clip-path="url(#pb7a3f25ce2)" style="stroke: #000000; stroke-linecap: round"/>
   </g>
   <g id="patch_29">
    <path d="M 163.886112 137.892223 
Q 158.1639 148.311342 152.97989 157.750493 
" clip-path="url(#pb7a3f25ce2)" style="fill: none; stroke: #000000; stroke-linecap: round"/>
    <path d="M 156.658441 155.207214 
L 152.97989 157.750493 
L 153.152398 153.281685 
z
" clip-path="url(#pb7a3f25ce2)" style="stroke: #000000; stroke-linecap: round"/>
   </g>
   <g id="patch_30">
    <path d="M 164.353183 134.318443 
Q 156.394259 102.070411 148.703232 70.907844 
" clip-path="url(#pb7a3f25ce2)" style="fill: none; stroke: #000000; stroke-linecap: round"/>
    <path d="M 147.71995 75.270545 
L 148.703232 70.907844 
L 151.603423 74.31209 
z
" clip-path="url(#pb7a3f25ce2)" style="stroke: #000000; stroke-linecap: round"/>
   </g>
   <g id="patch_31">
    <path d="M 164.471078 138.10679 
Q 158.273282 172.325285 152.274747 205.443647 
" clip-path="url(#pb7a3f25ce2)" style="fill: none; stroke: #000000; stroke-linecap: round"/>
    <path d="M 154.955624 201.864136 
L 152.274747 205.443647 
L 151.019664 201.151238 
z
" clip-path="url(#pb7a3f25ce2)" style="stroke: #000000; stroke-linecap: round"/>
   </g>
   <g id="patch_32">
    <path d="M 166.739454 135.974989 
Q 212.759618 130.651155 257.669155 125.455804 
" clip-path="url(#pb7a3f25ce2)" style="fill: none; stroke: #000000; stroke-linecap: round"/>
    <path d="M 253.465818 123.928727 
L 257.669155 125.455804 
L 253.925492 127.902227 
z
" clip-path="url(#pb7a3f25ce2)" style="stroke: #000000; stroke-linecap: round"/>
   </g>
   <g id="patch_33">
    <path d="M 145.76076 31.921779 
Q 146.80636 48.965057 147.783497 64.892399 
" clip-path="url(#pb7a3f25ce2)" style="fill: none; stroke: #000000; stroke-linecap: round"/>
    <path d="M 149.534806 60.777436 
L 147.783497 64.892399 
L 145.542312 61.022374 
z
" clip-path="url(#pb7a3f25ce2)" style="stroke: #000000; stroke-linecap: round"/>
   </g>
   <g id="patch_34">
    <path d="M 145.76076 31.921779 
Q 146.80636 48.965057 147.783497 64.892399 
" clip-path="url(#pb7a3f25ce2)" style="fill: none; stroke: #000000; stroke-linecap: round"/>
    <path d="M 149.534806 60.777436 
L 147.783497 64.892399 
L 145.542312 61.022374 
z
" clip-path="url(#pb7a3f25ce2)" style="stroke: #000000; stroke-linecap: round"/>
   </g>
   <g id="patch_35">
    <path d="M 147.49019 30.574741 
Q 163.45462 35.625629 178.353094 40.339267 
" clip-path="url(#pb7a3f25ce2)" style="fill: none; stroke: #000000; stroke-linecap: round"/>
    <path d="M 175.142708 37.225841 
L 178.353094 40.339267 
L 173.936121 41.03952 
z
" clip-path="url(#pb7a3f25ce2)" style="stroke: #000000; stroke-linecap: round"/>
   </g>
   <g id="patch_36">
    <path d="M 179.413874 40.674881 
Q 163.449444 35.623992 148.55097 30.910354 
" clip-path="url(#pb7a3f25ce2)" style="fill: none; stroke: #000000; stroke-linecap: round"/>
    <path d="M 151.761356 34.023781 
L 148.55097 30.910354 
L 152.967942 30.210102 
z
" clip-path="url(#pb7a3f25ce2)" style="stroke: #000000; stroke-linecap: round"/>
   </g>
   <g id="patch_37">
    <path d="M 180.919802 43.166378 
Q 176.388945 68.42766 172.055467 92.588469 
" clip-path="url(#pb7a3f25ce2)" style="fill: none; stroke: #000000; stroke-linecap: round"/>
    <path d="M 174.730224 89.004382 
L 172.055467 92.588469 
L 170.793052 88.298212 
z
" clip-path="url(#pb7a3f25ce2)" style="stroke: #000000; stroke-linecap: round"/>
   </g>
   <g id="patch_38">
    <path d="M 79.465034 145.709057 
Q 114.539668 152.874822 148.518895 159.816795 
" clip-path="url(#pb7a3f25ce2)" style="fill: none; stroke: #000000; stroke-linecap: round"/>
    <path d="M 145.000179 157.056608 
L 148.518895 159.816795 
L 144.199515 160.975656 
z
" clip-path="url(#pb7a3f25ce2)" style="stroke: #000000; stroke-linecap: round"/>
   </g>
   <g id="patch_39">
    <path d="M 76.030557 144.142103 
Q 58.777545 130.887956 42.411146 118.314924 
" clip-path="url(#pb7a3f25ce2)" style="fill: none; stroke: #000000; stroke-linecap: round"/>
    <path d="M 44.364771 122.337777 
L 42.411146 118.314924 
L 46.801604 119.165736 
z
" clip-path="url(#pb7a3f25ce2)" style="stroke: #000000; stroke-linecap: round"/>
   </g>
   <g id="patch_40">
    <path d="M 170.94633 97.440875 
Q 161.513235 128.009746 152.409809 157.510292 
" clip-path="url(#pb7a3f25ce2)" style="fill: none; stroke: #000000; stroke-linecap: round"/>
    <path d="M 155.500347 154.277866 
L 152.409809 157.510292 
L 151.678191 153.098406 
z
" clip-path="url(#pb7a3f25ce2)" style="stroke: #000000; stroke-linecap: round"/>
   </g>
   <g id="patch_41">
    <path d="M 171.858611 93.686018 
Q 176.389469 68.424736 180.722946 44.263928 
" clip-path="url(#pb7a3f25ce2)" style="fill: none; stroke: #000000; stroke-linecap: round"/>
    <path d="M 178.04819 47.848015 
L 180.722946 44.263928 
L 181.985362 48.554185 
z
" clip-path="url(#pb7a3f25ce2)" style="stroke: #000000; stroke-linecap: round"/>
   </g>
   <g id="patch_42">
    <path d="M 407.296033 152.186141 
Q 413.748957 171.567013 419.84869 189.887104 
" clip-path="url(#pb7a3f25ce2)" style="fill: none; stroke: #000000; stroke-linecap: round"/>
    <path d="M 420.48266 185.460132 
L 419.84869 189.887104 
L 416.687494 186.723745 
z
" clip-path="url(#pb7a3f25ce2)" style="stroke: #000000; stroke-linecap: round"/>
   </g>
   <g id="patch_43">
    <path d="M 404.864271 149.686983 
Q 375.289747 138.917744 346.765776 128.531051 
" clip-path="url(#pb7a3f25ce2)" style="fill: none; stroke: #000000; stroke-linecap: round"/>
    <path d="M 349.840022 131.778975 
L 346.765776 128.531051 
L 351.208663 128.020409 
z
" clip-path="url(#pb7a3f25ce2)" style="stroke: #000000; stroke-linecap: round"/>
   </g>
   <g id="patch_44">
    <path d="M 419.056846 193.599215 
Q 395.074364 204.730487 372.106004 215.391062 
" clip-path="url(#pb7a3f25ce2)" style="fill: none; stroke: #000000; stroke-linecap: round"/>
    <path d="M 376.576247 215.521164 
L 372.106004 215.391062 
L 374.892231 211.892929 
z
" clip-path="url(#pb7a3f25ce2)" style="stroke: #000000; stroke-linecap: round"/>
   </g>
   <g id="patch_45">
    <path d="M 420.201824 190.947715 
Q 413.7489 171.566842 407.649166 153.246751 
" clip-path="url(#pb7a3f25ce2)" style="fill: none; stroke: #000000; stroke-linecap: round"/>
    <path d="M 407.015196 157.673723 
L 407.649166 153.246751 
L 410.810362 156.41011 
z
" clip-path="url(#pb7a3f25ce2)" style="stroke: #000000; stroke-linecap: round"/>
   </g>
   <g id="patch_46">
    <path d="M 134.523375 269.165969 
Q 142.863051 239.737884 150.897889 211.385472 
" clip-path="url(#pb7a3f25ce2)" style="fill: none; stroke: #000000; stroke-linecap: round"/>
    <path d="M 147.883047 214.688611 
L 150.897889 211.385472 
L 151.731495 215.779229 
z
" clip-path="url(#pb7a3f25ce2)" style="stroke: #000000; stroke-linecap: round"/>
   </g>
   <g id="patch_47">
    <path d="M 132.814696 272.558143 
Q 116.80422 293.318064 101.476527 313.192656 
" clip-path="url(#pb7a3f25ce2)" style="fill: none; stroke: #000000; stroke-linecap: round"/>
    <path d="M 105.503051 311.246609 
L 101.476527 313.192656 
L 102.335603 308.803808 
z
" clip-path="url(#pb7a3f25ce2)" style="stroke: #000000; stroke-linecap: round"/>
   </g>
   <g id="patch_48">
    <path d="M 100.793813 314.077894 
Q 116.80429 293.317972 132.131983 273.44338 
" clip-path="url(#pb7a3f25ce2)" style="fill: none; stroke: #000000; stroke-linecap: round"/>
    <path d="M 128.105458 275.389427 
L 132.131983 273.44338 
L 131.272906 277.832228 
z
" clip-path="url(#pb7a3f25ce2)" style="stroke: #000000; stroke-linecap: round"/>
   </g>
   <g id="patch_49">
    <path d="M 97.687181 315.408589 
Q 81.232422 313.687738 65.889634 312.083179 
" clip-path="url(#pb7a3f25ce2)" style="fill: none; stroke: #000000; stroke-linecap: round"/>
    <path d="M 69.65991 314.488384 
L 65.889634 312.083179 
L 70.075964 310.510081 
z
" clip-path="url(#pb7a3f25ce2)" style="stroke: #000000; stroke-linecap: round"/>
   </g>
   <g id="patch_50">
    <path d="M 97.687181 315.408589 
Q 81.232422 313.687738 65.889634 312.083179 
" clip-path="url(#pb7a3f25ce2)" style="fill: none; stroke: #000000; stroke-linecap: round"/>
    <path d="M 69.65991 314.488384 
L 65.889634 312.083179 
L 70.075964 310.510081 
z
" clip-path="url(#pb7a3f25ce2)" style="stroke: #000000; stroke-linecap: round"/>
   </g>
   <g id="patch_51">
    <path d="M 64.77642 311.966758 
Q 81.231178 313.687608 96.573967 315.292168 
" clip-path="url(#pb7a3f25ce2)" style="fill: none; stroke: #000000; stroke-linecap: round"/>
    <path d="M 92.80369 312.886962 
L 96.573967 315.292168 
L 92.387637 316.865266 
z
" clip-path="url(#pb7a3f25ce2)" style="stroke: #000000; stroke-linecap: round"/>
   </g>
   <g id="patch_52">
    <path d="M 64.77642 311.966758 
Q 81.231178 313.687608 96.573967 315.292168 
" clip-path="url(#pb7a3f25ce2)" style="fill: none; stroke: #000000; stroke-linecap: round"/>
    <path d="M 92.80369 312.886962 
L 96.573967 315.292168 
L 92.387637 316.865266 
z
" clip-path="url(#pb7a3f25ce2)" style="stroke: #000000; stroke-linecap: round"/>
   </g>
   <g id="patch_53">
    <path d="M 62.961915 309.829255 
Q 64.269369 286.9408 65.513062 265.168559 
" clip-path="url(#pb7a3f25ce2)" style="fill: none; stroke: #000000; stroke-linecap: round"/>
    <path d="M 63.288197 269.047989 
L 65.513062 265.168559 
L 67.281687 269.276109 
z
" clip-path="url(#pb7a3f25ce2)" style="stroke: #000000; stroke-linecap: round"/>
   </g>
   <g id="patch_54">
    <path d="M 65.576501 264.057974 
Q 64.269048 286.946429 63.025355 308.71867 
" clip-path="url(#pb7a3f25ce2)" style="fill: none; stroke: #000000; stroke-linecap: round"/>
    <path d="M 65.25022 304.83924 
L 63.025355 308.71867 
L 61.25673 304.611121 
z
" clip-path="url(#pb7a3f25ce2)" style="stroke: #000000; stroke-linecap: round"/>
   </g>
   <g id="patch_55">
    <path d="M 66.757379 260.50903 
Q 79.322955 241.574341 91.270318 223.571216 
" clip-path="url(#pb7a3f25ce2)" style="fill: none; stroke: #000000; stroke-linecap: round"/>
    <path d="M 87.392101 225.798194 
L 91.270318 223.571216 
L 90.72497 228.009977 
z
" clip-path="url(#pb7a3f25ce2)" style="stroke: #000000; stroke-linecap: round"/>
   </g>
   <g id="patch_56">
    <path d="M 66.757379 260.50903 
Q 79.322955 241.574341 91.270318 223.571216 
" clip-path="url(#pb7a3f25ce2)" style="fill: none; stroke: #000000; stroke-linecap: round"/>
    <path d="M 87.392101 225.798194 
L 91.270318 223.571216 
L 90.72497 228.009977 
z
" clip-path="url(#pb7a3f25ce2)" style="stroke: #000000; stroke-linecap: round"/>
   </g>
   <g id="patch_57">
    <path d="M 94.303873 219.634955 
Q 122.233697 190.727912 149.386659 162.624912 
" clip-path="url(#pb7a3f25ce2)" style="fill: none; stroke: #000000; stroke-linecap: round"/>
    <path d="M 145.168957 164.111852 
L 149.386659 162.624912 
L 148.045589 166.891238 
z
" clip-path="url(#pb7a3f25ce2)" style="stroke: #000000; stroke-linecap: round"/>
   </g>
   <g id="patch_58">
    <path d="M 91.888105 222.640291 
Q 79.32253 241.574981 67.375166 259.578105 
" clip-path="url(#pb7a3f25ce2)" style="fill: none; stroke: #000000; stroke-linecap: round"/>
    <path d="M 71.253383 257.351127 
L 67.375166 259.578105 
L 67.920514 255.139345 
z
" clip-path="url(#pb7a3f25ce2)" style="stroke: #000000; stroke-linecap: round"/>
   </g>
   <g id="patch_59">
    <path d="M 91.888105 222.640291 
Q 79.32253 241.574981 67.375166 259.578105 
" clip-path="url(#pb7a3f25ce2)" style="fill: none; stroke: #000000; stroke-linecap: round"/>
    <path d="M 71.253383 257.351127 
L 67.375166 259.578105 
L 67.920514 255.139345 
z
" clip-path="url(#pb7a3f25ce2)" style="stroke: #000000; stroke-linecap: round"/>
   </g>
   <g id="patch_60">
    <path d="M 152.07685 206.53625 
Q 158.274646 172.317755 164.273181 139.199394 
" clip-path="url(#pb7a3f25ce2)" style="fill: none; stroke: #000000; stroke-linecap: round"/>
    <path d="M 161.592304 142.778905 
L 164.273181 139.199394 
L 165.528264 143.491802 
z
" clip-path="url(#pb7a3f25ce2)" style="stroke: #000000; stroke-linecap: round"/>
   </g>
   <g id="patch_61">
    <path d="M 151.203862 210.305793 
Q 142.864186 239.733878 134.829347 268.086289 
" clip-path="url(#pb7a3f25ce2)" style="fill: none; stroke: #000000; stroke-linecap: round"/>
    <path d="M 137.84419 264.78315 
L 134.829347 268.086289 
L 133.995742 263.692532 
z
" clip-path="url(#pb7a3f25ce2)" style="stroke: #000000; stroke-linecap: round"/>
   </g>
   <g id="patch_62">
    <path d="M 258.78138 125.327136 
Q 212.761217 130.65097 167.85168 135.846321 
" clip-path="url(#pb7a3f25ce2)" style="fill: none; stroke: #000000; stroke-linecap: round"/>
    <path d="M 172.055017 137.373398 
L 167.85168 135.846321 
L 171.595343 133.399898 
z
" clip-path="url(#pb7a3f25ce2)" style="stroke: #000000; stroke-linecap: round"/>
   </g>
   <g id="patch_63">
    <path d="M 262.641029 125.160172 
Q 302.298725 126.295278 340.838845 127.398396 
" clip-path="url(#pb7a3f25ce2)" style="fill: none; stroke: #000000; stroke-linecap: round"/>
    <path d="M 336.897705 125.284771 
L 340.838845 127.398396 
L 336.783261 129.283134 
z
" clip-path="url(#pb7a3f25ce2)" style="stroke: #000000; stroke-linecap: round"/>
   </g>
   <g id="patch_64">
    <path d="M 345.715902 128.148751 
Q 375.290426 138.917991 403.814397 149.304683 
" clip-path="url(#pb7a3f25ce2)" style="fill: none; stroke: #000000; stroke-linecap: round"/>
    <path d="M 400.740151 146.056759 
L 403.814397 149.304683 
L 399.37151 149.815325 
z
" clip-path="url(#pb7a3f25ce2)" style="stroke: #000000; stroke-linecap: round"/>
   </g>
   <g id="patch_65">
    <path d="M 341.95843 127.430441 
Q 302.300734 126.295336 263.760614 125.192218 
" clip-path="url(#pb7a3f25ce2)" style="fill: none; stroke: #000000; stroke-linecap: round"/>
    <path d="M 267.701755 127.305843 
L 263.760614 125.192218 
L 267.816198 123.30748 
z
" clip-path="url(#pb7a3f25ce2)" style="stroke: #000000; stroke-linecap: round"/>
   </g>
   <g id="PathCollection_1">
    <defs>
     <path id="m14d12c5d61" d="M 0 1.936492 
C 0.513564 1.936492 1.006162 1.732451 1.369306 1.369306 
C 1.732451 1.006162 1.936492 0.513564 1.936492 0 
C 1.936492 -0.513564 1.732451 -1.006162 1.369306 -1.369306 
C 1.006162 -1.732451 0.513564 -1.936492 0 -1.936492 
C -0.513564 -1.936492 -1.006162 -1.732451 -1.369306 -1.369306 
C -1.732451 -1.006162 -1.936492 -0.513564 -1.936492 0 
C -1.936492 0.513564 -1.732451 1.006162 -1.369306 1.369306 
C -1.006162 1.732451 -0.513564 1.936492 0 1.936492 
z
" style="stroke: #1f78b4"/>
    </defs>
    <g clip-path="url(#pb7a3f25ce2)">
     <use xlink:href="#m14d12c5d61" x="239.080429" y="193.31591" style="fill: #1f78b4; stroke: #1f78b4"/>
     <use xlink:href="#m14d12c5d61" x="93.866588" y="113.933681" style="fill: #1f78b4; stroke: #1f78b4"/>
     <use xlink:href="#m14d12c5d61" x="369.334734" y="216.677324" style="fill: #1f78b4; stroke: #1f78b4"/>
     <use xlink:href="#m14d12c5d61" x="297.379151" y="210.44336" style="fill: #1f78b4; stroke: #1f78b4"/>
     <use xlink:href="#m14d12c5d61" x="151.509515" y="160.427781" style="fill: #1f78b4; stroke: #1f78b4"/>
     <use xlink:href="#m14d12c5d61" x="147.97037" y="67.938426" style="fill: #1f78b4; stroke: #1f78b4"/>
     <use xlink:href="#m14d12c5d61" x="39.986777" y="116.45247" style="fill: #1f78b4; stroke: #1f78b4"/>
     <use xlink:href="#m14d12c5d61" x="164.816915" y="136.197397" style="fill: #1f78b4; stroke: #1f78b4"/>
     <use xlink:href="#m14d12c5d61" x="145.642251" y="29.990083" style="fill: #1f78b4; stroke: #1f78b4"/>
     <use xlink:href="#m14d12c5d61" x="181.261813" y="41.259539" style="fill: #1f78b4; stroke: #1f78b4"/>
     <use xlink:href="#m14d12c5d61" x="77.56497" y="145.320873" style="fill: #1f78b4; stroke: #1f78b4"/>
     <use xlink:href="#m14d12c5d61" x="171.516601" y="95.592858" style="fill: #1f78b4; stroke: #1f78b4"/>
     <use xlink:href="#m14d12c5d61" x="406.684633" y="150.349848" style="fill: #1f78b4; stroke: #1f78b4"/>
     <use xlink:href="#m14d12c5d61" x="420.813223" y="192.784007" style="fill: #1f78b4; stroke: #1f78b4"/>
     <use xlink:href="#m14d12c5d61" x="133.996224" y="271.026119" style="fill: #1f78b4; stroke: #1f78b4"/>
     <use xlink:href="#m14d12c5d61" x="99.612285" y="315.609917" style="fill: #1f78b4; stroke: #1f78b4"/>
     <use xlink:href="#m14d12c5d61" x="62.851316" y="311.765429" style="fill: #1f78b4; stroke: #1f78b4"/>
     <use xlink:href="#m14d12c5d61" x="65.687101" y="262.1218" style="fill: #1f78b4; stroke: #1f78b4"/>
     <use xlink:href="#m14d12c5d61" x="92.958383" y="221.027521" style="fill: #1f78b4; stroke: #1f78b4"/>
     <use xlink:href="#m14d12c5d61" x="151.731013" y="208.445643" style="fill: #1f78b4; stroke: #1f78b4"/>
     <use xlink:href="#m14d12c5d61" x="260.70392" y="125.104727" style="fill: #1f78b4; stroke: #1f78b4"/>
     <use xlink:href="#m14d12c5d61" x="343.89554" y="127.485886" style="fill: #1f78b4; stroke: #1f78b4"/>
    </g>
   </g>
   <g id="text_1">
    <g clip-path="url(#pb7a3f25ce2)">
     <!-- 0 -->
     <g transform="translate(235.899179 196.075285) scale(0.1 -0.1)">
      <defs>
       <path id="DejaVuSans-30" d="M 2034 4250 
Q 1547 4250 1301 3770 
Q 1056 3291 1056 2328 
Q 1056 1369 1301 889 
Q 1547 409 2034 409 
Q 2525 409 2770 889 
Q 3016 1369 3016 2328 
Q 3016 3291 2770 3770 
Q 2525 4250 2034 4250 
z
M 2034 4750 
Q 2819 4750 3233 4129 
Q 3647 3509 3647 2328 
Q 3647 1150 3233 529 
Q 2819 -91 2034 -91 
Q 1250 -91 836 529 
Q 422 1150 422 2328 
Q 422 3509 836 4129 
Q 1250 4750 2034 4750 
z
" transform="scale(0.015625)"/>
      </defs>
      <use xlink:href="#DejaVuSans-30"/>
     </g>
    </g>
   </g>
   <g id="text_2">
    <g clip-path="url(#pb7a3f25ce2)">
     <!-- 1 -->
     <g transform="translate(90.685338 116.693056) scale(0.1 -0.1)">
      <defs>
       <path id="DejaVuSans-31" d="M 794 531 
L 1825 531 
L 1825 4091 
L 703 3866 
L 703 4441 
L 1819 4666 
L 2450 4666 
L 2450 531 
L 3481 531 
L 3481 0 
L 794 0 
L 794 531 
z
" transform="scale(0.015625)"/>
      </defs>
      <use xlink:href="#DejaVuSans-31"/>
     </g>
    </g>
   </g>
   <g id="text_3">
    <g clip-path="url(#pb7a3f25ce2)">
     <!-- 2 -->
     <g transform="translate(366.153484 219.436699) scale(0.1 -0.1)">
      <defs>
       <path id="DejaVuSans-32" d="M 1228 531 
L 3431 531 
L 3431 0 
L 469 0 
L 469 531 
Q 828 903 1448 1529 
Q 2069 2156 2228 2338 
Q 2531 2678 2651 2914 
Q 2772 3150 2772 3378 
Q 2772 3750 2511 3984 
Q 2250 4219 1831 4219 
Q 1534 4219 1204 4116 
Q 875 4013 500 3803 
L 500 4441 
Q 881 4594 1212 4672 
Q 1544 4750 1819 4750 
Q 2544 4750 2975 4387 
Q 3406 4025 3406 3419 
Q 3406 3131 3298 2873 
Q 3191 2616 2906 2266 
Q 2828 2175 2409 1742 
Q 1991 1309 1228 531 
z
" transform="scale(0.015625)"/>
      </defs>
      <use xlink:href="#DejaVuSans-32"/>
     </g>
    </g>
   </g>
   <g id="text_4">
    <g clip-path="url(#pb7a3f25ce2)">
     <!-- 3 -->
     <g transform="translate(294.197901 213.202735) scale(0.1 -0.1)">
      <defs>
       <path id="DejaVuSans-33" d="M 2597 2516 
Q 3050 2419 3304 2112 
Q 3559 1806 3559 1356 
Q 3559 666 3084 287 
Q 2609 -91 1734 -91 
Q 1441 -91 1130 -33 
Q 819 25 488 141 
L 488 750 
Q 750 597 1062 519 
Q 1375 441 1716 441 
Q 2309 441 2620 675 
Q 2931 909 2931 1356 
Q 2931 1769 2642 2001 
Q 2353 2234 1838 2234 
L 1294 2234 
L 1294 2753 
L 1863 2753 
Q 2328 2753 2575 2939 
Q 2822 3125 2822 3475 
Q 2822 3834 2567 4026 
Q 2313 4219 1838 4219 
Q 1578 4219 1281 4162 
Q 984 4106 628 3988 
L 628 4550 
Q 988 4650 1302 4700 
Q 1616 4750 1894 4750 
Q 2613 4750 3031 4423 
Q 3450 4097 3450 3541 
Q 3450 3153 3228 2886 
Q 3006 2619 2597 2516 
z
" transform="scale(0.015625)"/>
      </defs>
      <use xlink:href="#DejaVuSans-33"/>
     </g>
    </g>
   </g>
   <g id="text_5">
    <g clip-path="url(#pb7a3f25ce2)">
     <!-- 4 -->
     <g transform="translate(148.328265 163.187156) scale(0.1 -0.1)">
      <defs>
       <path id="DejaVuSans-34" d="M 2419 4116 
L 825 1625 
L 2419 1625 
L 2419 4116 
z
M 2253 4666 
L 3047 4666 
L 3047 1625 
L 3713 1625 
L 3713 1100 
L 3047 1100 
L 3047 0 
L 2419 0 
L 2419 1100 
L 313 1100 
L 313 1709 
L 2253 4666 
z
" transform="scale(0.015625)"/>
      </defs>
      <use xlink:href="#DejaVuSans-34"/>
     </g>
    </g>
   </g>
   <g id="text_6">
    <g clip-path="url(#pb7a3f25ce2)">
     <!-- 5 -->
     <g transform="translate(144.78912 70.697801) scale(0.1 -0.1)">
      <defs>
       <path id="DejaVuSans-35" d="M 691 4666 
L 3169 4666 
L 3169 4134 
L 1269 4134 
L 1269 2991 
Q 1406 3038 1543 3061 
Q 1681 3084 1819 3084 
Q 2600 3084 3056 2656 
Q 3513 2228 3513 1497 
Q 3513 744 3044 326 
Q 2575 -91 1722 -91 
Q 1428 -91 1123 -41 
Q 819 9 494 109 
L 494 744 
Q 775 591 1075 516 
Q 1375 441 1709 441 
Q 2250 441 2565 725 
Q 2881 1009 2881 1497 
Q 2881 1984 2565 2268 
Q 2250 2553 1709 2553 
Q 1456 2553 1204 2497 
Q 953 2441 691 2322 
L 691 4666 
z
" transform="scale(0.015625)"/>
      </defs>
      <use xlink:href="#DejaVuSans-35"/>
     </g>
    </g>
   </g>
   <g id="text_7">
    <g clip-path="url(#pb7a3f25ce2)">
     <!-- 6 -->
     <g transform="translate(36.805527 119.211845) scale(0.1 -0.1)">
      <defs>
       <path id="DejaVuSans-36" d="M 2113 2584 
Q 1688 2584 1439 2293 
Q 1191 2003 1191 1497 
Q 1191 994 1439 701 
Q 1688 409 2113 409 
Q 2538 409 2786 701 
Q 3034 994 3034 1497 
Q 3034 2003 2786 2293 
Q 2538 2584 2113 2584 
z
M 3366 4563 
L 3366 3988 
Q 3128 4100 2886 4159 
Q 2644 4219 2406 4219 
Q 1781 4219 1451 3797 
Q 1122 3375 1075 2522 
Q 1259 2794 1537 2939 
Q 1816 3084 2150 3084 
Q 2853 3084 3261 2657 
Q 3669 2231 3669 1497 
Q 3669 778 3244 343 
Q 2819 -91 2113 -91 
Q 1303 -91 875 529 
Q 447 1150 447 2328 
Q 447 3434 972 4092 
Q 1497 4750 2381 4750 
Q 2619 4750 2861 4703 
Q 3103 4656 3366 4563 
z
" transform="scale(0.015625)"/>
      </defs>
      <use xlink:href="#DejaVuSans-36"/>
     </g>
    </g>
   </g>
   <g id="text_8">
    <g clip-path="url(#pb7a3f25ce2)">
     <!-- 7 -->
     <g transform="translate(161.635665 138.956772) scale(0.1 -0.1)">
      <defs>
       <path id="DejaVuSans-37" d="M 525 4666 
L 3525 4666 
L 3525 4397 
L 1831 0 
L 1172 0 
L 2766 4134 
L 525 4134 
L 525 4666 
z
" transform="scale(0.015625)"/>
      </defs>
      <use xlink:href="#DejaVuSans-37"/>
     </g>
    </g>
   </g>
   <g id="text_9">
    <g clip-path="url(#pb7a3f25ce2)">
     <!-- 8 -->
     <g transform="translate(142.461001 32.749458) scale(0.1 -0.1)">
      <defs>
       <path id="DejaVuSans-38" d="M 2034 2216 
Q 1584 2216 1326 1975 
Q 1069 1734 1069 1313 
Q 1069 891 1326 650 
Q 1584 409 2034 409 
Q 2484 409 2743 651 
Q 3003 894 3003 1313 
Q 3003 1734 2745 1975 
Q 2488 2216 2034 2216 
z
M 1403 2484 
Q 997 2584 770 2862 
Q 544 3141 544 3541 
Q 544 4100 942 4425 
Q 1341 4750 2034 4750 
Q 2731 4750 3128 4425 
Q 3525 4100 3525 3541 
Q 3525 3141 3298 2862 
Q 3072 2584 2669 2484 
Q 3125 2378 3379 2068 
Q 3634 1759 3634 1313 
Q 3634 634 3220 271 
Q 2806 -91 2034 -91 
Q 1263 -91 848 271 
Q 434 634 434 1313 
Q 434 1759 690 2068 
Q 947 2378 1403 2484 
z
M 1172 3481 
Q 1172 3119 1398 2916 
Q 1625 2713 2034 2713 
Q 2441 2713 2670 2916 
Q 2900 3119 2900 3481 
Q 2900 3844 2670 4047 
Q 2441 4250 2034 4250 
Q 1625 4250 1398 4047 
Q 1172 3844 1172 3481 
z
" transform="scale(0.015625)"/>
      </defs>
      <use xlink:href="#DejaVuSans-38"/>
     </g>
    </g>
   </g>
   <g id="text_10">
    <g clip-path="url(#pb7a3f25ce2)">
     <!-- 9 -->
     <g transform="translate(178.080563 44.018914) scale(0.1 -0.1)">
      <defs>
       <path id="DejaVuSans-39" d="M 703 97 
L 703 672 
Q 941 559 1184 500 
Q 1428 441 1663 441 
Q 2288 441 2617 861 
Q 2947 1281 2994 2138 
Q 2813 1869 2534 1725 
Q 2256 1581 1919 1581 
Q 1219 1581 811 2004 
Q 403 2428 403 3163 
Q 403 3881 828 4315 
Q 1253 4750 1959 4750 
Q 2769 4750 3195 4129 
Q 3622 3509 3622 2328 
Q 3622 1225 3098 567 
Q 2575 -91 1691 -91 
Q 1453 -91 1209 -44 
Q 966 3 703 97 
z
M 1959 2075 
Q 2384 2075 2632 2365 
Q 2881 2656 2881 3163 
Q 2881 3666 2632 3958 
Q 2384 4250 1959 4250 
Q 1534 4250 1286 3958 
Q 1038 3666 1038 3163 
Q 1038 2656 1286 2365 
Q 1534 2075 1959 2075 
z
" transform="scale(0.015625)"/>
      </defs>
      <use xlink:href="#DejaVuSans-39"/>
     </g>
    </g>
   </g>
   <g id="text_11">
    <g clip-path="url(#pb7a3f25ce2)">
     <!-- 10 -->
     <g transform="translate(71.20247 148.080248) scale(0.1 -0.1)">
      <use xlink:href="#DejaVuSans-31"/>
      <use xlink:href="#DejaVuSans-30" x="63.623047"/>
     </g>
    </g>
   </g>
   <g id="text_12">
    <g clip-path="url(#pb7a3f25ce2)">
     <!-- 11 -->
     <g transform="translate(165.154101 98.352233) scale(0.1 -0.1)">
      <use xlink:href="#DejaVuSans-31"/>
      <use xlink:href="#DejaVuSans-31" x="63.623047"/>
     </g>
    </g>
   </g>
   <g id="text_13">
    <g clip-path="url(#pb7a3f25ce2)">
     <!-- 12 -->
     <g transform="translate(400.322133 153.109223) scale(0.1 -0.1)">
      <use xlink:href="#DejaVuSans-31"/>
      <use xlink:href="#DejaVuSans-32" x="63.623047"/>
     </g>
    </g>
   </g>
   <g id="text_14">
    <g clip-path="url(#pb7a3f25ce2)">
     <!-- 13 -->
     <g transform="translate(414.450723 195.543382) scale(0.1 -0.1)">
      <use xlink:href="#DejaVuSans-31"/>
      <use xlink:href="#DejaVuSans-33" x="63.623047"/>
     </g>
    </g>
   </g>
   <g id="text_15">
    <g clip-path="url(#pb7a3f25ce2)">
     <!-- 14 -->
     <g transform="translate(127.633724 273.785494) scale(0.1 -0.1)">
      <use xlink:href="#DejaVuSans-31"/>
      <use xlink:href="#DejaVuSans-34" x="63.623047"/>
     </g>
    </g>
   </g>
   <g id="text_16">
    <g clip-path="url(#pb7a3f25ce2)">
     <!-- 15 -->
     <g transform="translate(93.249785 318.369292) scale(0.1 -0.1)">
      <use xlink:href="#DejaVuSans-31"/>
      <use xlink:href="#DejaVuSans-35" x="63.623047"/>
     </g>
    </g>
   </g>
   <g id="text_17">
    <g clip-path="url(#pb7a3f25ce2)">
     <!-- 16 -->
     <g transform="translate(56.488816 314.524804) scale(0.1 -0.1)">
      <use xlink:href="#DejaVuSans-31"/>
      <use xlink:href="#DejaVuSans-36" x="63.623047"/>
     </g>
    </g>
   </g>
   <g id="text_18">
    <g clip-path="url(#pb7a3f25ce2)">
     <!-- 17 -->
     <g transform="translate(59.324601 264.881175) scale(0.1 -0.1)">
      <use xlink:href="#DejaVuSans-31"/>
      <use xlink:href="#DejaVuSans-37" x="63.623047"/>
     </g>
    </g>
   </g>
   <g id="text_19">
    <g clip-path="url(#pb7a3f25ce2)">
     <!-- 18 -->
     <g transform="translate(86.595883 223.786896) scale(0.1 -0.1)">
      <use xlink:href="#DejaVuSans-31"/>
      <use xlink:href="#DejaVuSans-38" x="63.623047"/>
     </g>
    </g>
   </g>
   <g id="text_20">
    <g clip-path="url(#pb7a3f25ce2)">
     <!-- 19 -->
     <g transform="translate(145.368513 211.205018) scale(0.1 -0.1)">
      <use xlink:href="#DejaVuSans-31"/>
      <use xlink:href="#DejaVuSans-39" x="63.623047"/>
     </g>
    </g>
   </g>
   <g id="text_21">
    <g clip-path="url(#pb7a3f25ce2)">
     <!-- 20 -->
     <g transform="translate(254.34142 127.864102) scale(0.1 -0.1)">
      <use xlink:href="#DejaVuSans-32"/>
      <use xlink:href="#DejaVuSans-30" x="63.623047"/>
     </g>
    </g>
   </g>
   <g id="text_22">
    <g clip-path="url(#pb7a3f25ce2)">
     <!-- 21 -->
     <g transform="translate(337.53304 130.245261) scale(0.1 -0.1)">
      <use xlink:href="#DejaVuSans-32"/>
      <use xlink:href="#DejaVuSans-31" x="63.623047"/>
     </g>
    </g>
   </g>
  </g>
 </g>
 <defs>
  <clipPath id="pb7a3f25ce2">
   <rect x="0" y="0" width="460.8" height="345.6"/>
  </clipPath>
 </defs>
</svg>
