<?xml version="1.0" encoding="utf-8" standalone="no"?>
<!DOCTYPE svg PUBLIC "-//W3C//DTD SVG 1.1//EN"
  "http://www.w3.org/Graphics/SVG/1.1/DTD/svg11.dtd">
<svg xmlns:xlink="http://www.w3.org/1999/xlink" width="460.8pt" height="345.6pt" viewBox="0 0 460.8 345.6" xmlns="http://www.w3.org/2000/svg" version="1.1">
 <metadata>
  <rdf:RDF xmlns:dc="http://purl.org/dc/elements/1.1/" xmlns:cc="http://creativecommons.org/ns#" xmlns:rdf="http://www.w3.org/1999/02/22-rdf-syntax-ns#">
   <cc:Work>
    <dc:type rdf:resource="http://purl.org/dc/dcmitype/StillImage"/>
    <dc:date>2024-02-07T14:35:20.587231</dc:date>
    <dc:format>image/svg+xml</dc:format>
    <dc:creator>
     <cc:Agent>
      <dc:title>Matplotlib v3.8.0, https://matplotlib.org/</dc:title>
     </cc:Agent>
    </dc:creator>
   </cc:Work>
  </rdf:RDF>
 </metadata>
 <defs>
  <style type="text/css">*{stroke-linejoin: round; stroke-linecap: butt}</style>
 </defs>
 <g id="figure_1">
  <g id="patch_1">
   <path d="M 0 345.6 
L 460.8 345.6 
L 460.8 0 
L 0 0 
z
" style="fill: #ffffff"/>
  </g>
  <g id="axes_1">
   <g id="patch_2">
    <path d="M 142.186832 285.841397 
Q 188.579004 262.93169 233.968712 240.517026 
" clip-path="url(#p36bfbe5e7a)" style="fill: none; stroke: #000000; stroke-linecap: round"/>
    <path d="M 229.496631 240.494886 
L 233.968712 240.517026 
L 231.267752 244.081407 
z
" clip-path="url(#p36bfbe5e7a)" style="stroke: #000000; stroke-linecap: round"/>
   </g>
   <g id="patch_3">
    <path d="M 142.257917 286.005432 
Q 199.78434 263.936588 256.266908 242.268199 
" clip-path="url(#p36bfbe5e7a)" style="fill: none; stroke: #000000; stroke-linecap: round"/>
    <path d="M 251.815939 241.8336 
L 256.266908 242.268199 
L 253.248648 245.568215 
z
" clip-path="url(#p36bfbe5e7a)" style="stroke: #000000; stroke-linecap: round"/>
   </g>
   <g id="patch_4">
    <path d="M 169.785572 312.050878 
Q 202.590624 276.321271 234.639531 241.415219 
" clip-path="url(#p36bfbe5e7a)" style="fill: none; stroke: #000000; stroke-linecap: round"/>
    <path d="M 230.461042 243.009026 
L 234.639531 241.415219 
L 233.407484 245.714295 
z
" clip-path="url(#p36bfbe5e7a)" style="stroke: #000000; stroke-linecap: round"/>
   </g>
   <g id="patch_5">
    <path d="M 169.988995 312.270361 
Q 213.796412 277.326486 256.729799 243.079798 
" clip-path="url(#p36bfbe5e7a)" style="fill: none; stroke: #000000; stroke-linecap: round"/>
    <path d="M 252.355606 244.010621 
L 256.729799 243.079798 
L 254.849941 247.137647 
z
" clip-path="url(#p36bfbe5e7a)" style="stroke: #000000; stroke-linecap: round"/>
   </g>
   <g id="patch_6">
    <path d="M 306.824471 314.193855 
Q 272.424757 277.386243 238.788443 241.395467 
" clip-path="url(#p36bfbe5e7a)" style="fill: none; stroke: #000000; stroke-linecap: round"/>
    <path d="M 240.058464 245.683479 
L 238.788443 241.395467 
L 242.980865 242.952257 
z
" clip-path="url(#p36bfbe5e7a)" style="stroke: #000000; stroke-linecap: round"/>
   </g>
   <g id="patch_7">
    <path d="M 307.084065 313.994809 
Q 283.633559 278.392263 260.798052 243.723406 
" clip-path="url(#p36bfbe5e7a)" style="fill: none; stroke: #000000; stroke-linecap: round"/>
    <path d="M 261.328101 248.16402 
L 260.798052 243.723406 
L 264.668573 245.963735 
z
" clip-path="url(#p36bfbe5e7a)" style="stroke: #000000; stroke-linecap: round"/>
   </g>
   <g id="patch_8">
    <path d="M 322.430161 280.544076 
Q 280.439928 260.276121 239.456572 240.494168 
" clip-path="url(#p36bfbe5e7a)" style="fill: none; stroke: #000000; stroke-linecap: round"/>
    <path d="M 242.189498 244.034099 
L 239.456572 240.494168 
L 243.928273 240.431785 
z
" clip-path="url(#p36bfbe5e7a)" style="stroke: #000000; stroke-linecap: round"/>
   </g>
   <g id="patch_9">
    <path d="M 322.525431 280.366889 
Q 291.644539 261.278822 261.714668 242.778598 
" clip-path="url(#p36bfbe5e7a)" style="fill: none; stroke: #000000; stroke-linecap: round"/>
    <path d="M 264.065575 246.582969 
L 261.714668 242.778598 
L 266.168708 243.180495 
z
" clip-path="url(#p36bfbe5e7a)" style="stroke: #000000; stroke-linecap: round"/>
   </g>
   <g id="patch_10">
    <path d="M 234.968709 240.0232 
Q 188.576537 262.932907 143.186829 285.347571 
" clip-path="url(#p36bfbe5e7a)" style="fill: none; stroke: #000000; stroke-linecap: round"/>
    <path d="M 147.65891 285.369711 
L 143.186829 285.347571 
L 145.887789 281.78319 
z
" clip-path="url(#p36bfbe5e7a)" style="stroke: #000000; stroke-linecap: round"/>
   </g>
   <g id="patch_11">
    <path d="M 235.395043 240.592353 
Q 202.589991 276.321961 170.541084 311.228013 
" clip-path="url(#p36bfbe5e7a)" style="fill: none; stroke: #000000; stroke-linecap: round"/>
    <path d="M 174.719573 309.634205 
L 170.541084 311.228013 
L 171.773131 306.928936 
z
" clip-path="url(#p36bfbe5e7a)" style="stroke: #000000; stroke-linecap: round"/>
   </g>
   <g id="patch_12">
    <path d="M 238.028159 240.581966 
Q 272.427873 277.389578 306.064187 313.380354 
" clip-path="url(#p36bfbe5e7a)" style="fill: none; stroke: #000000; stroke-linecap: round"/>
    <path d="M 304.794166 309.092342 
L 306.064187 313.380354 
L 301.871765 311.823564 
z
" clip-path="url(#p36bfbe5e7a)" style="stroke: #000000; stroke-linecap: round"/>
   </g>
   <g id="patch_13">
    <path d="M 238.447804 240.007254 
Q 280.438038 260.275209 321.421394 280.057162 
" clip-path="url(#p36bfbe5e7a)" style="fill: none; stroke: #000000; stroke-linecap: round"/>
    <path d="M 318.688467 276.517231 
L 321.421394 280.057162 
L 316.949693 280.119544 
z
" clip-path="url(#p36bfbe5e7a)" style="stroke: #000000; stroke-linecap: round"/>
   </g>
   <g id="patch_14">
    <path d="M 238.633686 239.338728 
Q 247.912291 240.170043 256.077323 240.901587 
" clip-path="url(#p36bfbe5e7a)" style="fill: none; stroke: #000000; stroke-linecap: round"/>
    <path d="M 252.271756 238.552617 
L 256.077323 240.901587 
L 251.914806 242.536659 
z
" clip-path="url(#p36bfbe5e7a)" style="stroke: #000000; stroke-linecap: round"/>
   </g>
   <g id="patch_15">
    <path d="M 235.675758 237.525612 
Q 210.321171 197.107821 185.560714 157.637135 
" clip-path="url(#p36bfbe5e7a)" style="fill: none; stroke: #000000; stroke-linecap: round"/>
    <path d="M 185.992108 162.088416 
L 185.560714 157.637135 
L 189.380575 159.962788 
z
" clip-path="url(#p36bfbe5e7a)" style="stroke: #000000; stroke-linecap: round"/>
   </g>
   <g id="patch_16">
    <path d="M 236.721692 241.098616 
Q 236.998435 272.639134 237.265369 303.06166 
" clip-path="url(#p36bfbe5e7a)" style="fill: none; stroke: #000000; stroke-linecap: round"/>
    <path d="M 239.230196 299.044266 
L 237.265369 303.06166 
L 235.23035 299.079362 
z
" clip-path="url(#p36bfbe5e7a)" style="stroke: #000000; stroke-linecap: round"/>
   </g>
   <g id="patch_17">
    <path d="M 236.106363 237.321468 
Q 217.594102 180.258736 199.426851 124.259472 
" clip-path="url(#p36bfbe5e7a)" style="fill: none; stroke: #000000; stroke-linecap: round"/>
    <path d="M 198.758805 128.681431 
L 199.426851 124.259472 
L 202.56359 127.447084 
z
" clip-path="url(#p36bfbe5e7a)" style="stroke: #000000; stroke-linecap: round"/>
   </g>
   <g id="patch_18">
    <path d="M 238.640323 239.111772 
Q 328.758034 236.591496 417.758149 234.102475 
" clip-path="url(#p36bfbe5e7a)" style="fill: none; stroke: #000000; stroke-linecap: round"/>
    <path d="M 413.703801 232.215079 
L 417.758149 234.102475 
L 413.815623 236.213515 
z
" clip-path="url(#p36bfbe5e7a)" style="stroke: #000000; stroke-linecap: round"/>
   </g>
   <g id="patch_19">
    <path d="M 238.625748 239.414208 
Q 328.064853 250.974816 416.395149 262.392102 
" clip-path="url(#p36bfbe5e7a)" style="fill: none; stroke: #000000; stroke-linecap: round"/>
    <path d="M 412.684531 259.895842 
L 416.395149 262.392102 
L 412.17177 263.86284 
z
" clip-path="url(#p36bfbe5e7a)" style="stroke: #000000; stroke-linecap: round"/>
   </g>
   <g id="patch_20">
    <path d="M 234.810921 238.774711 
Q 177.380024 226.911573 121.044046 215.274605 
" clip-path="url(#p36bfbe5e7a)" style="fill: none; stroke: #000000; stroke-linecap: round"/>
    <path d="M 124.55676 218.042427 
L 121.044046 215.274605 
L 125.365932 214.125127 
z
" clip-path="url(#p36bfbe5e7a)" style="stroke: #000000; stroke-linecap: round"/>
   </g>
   <g id="patch_21">
    <path d="M 234.815889 239.58446 
Q 157.962517 256.614695 82.200699 273.403048 
" clip-path="url(#p36bfbe5e7a)" style="fill: none; stroke: #000000; stroke-linecap: round"/>
    <path d="M 86.538658 274.490299 
L 82.200699 273.403048 
L 85.673275 270.585031 
z
" clip-path="url(#p36bfbe5e7a)" style="stroke: #000000; stroke-linecap: round"/>
   </g>
   <g id="patch_22">
    <path d="M 238.371124 238.178752 
Q 274.467372 216.795722 309.6017 195.982524 
" clip-path="url(#p36bfbe5e7a)" style="fill: none; stroke: #000000; stroke-linecap: round"/>
    <path d="M 305.140881 196.300479 
L 309.6017 195.982524 
L 307.179572 199.741952 
z
" clip-path="url(#p36bfbe5e7a)" style="stroke: #000000; stroke-linecap: round"/>
   </g>
   <g id="patch_23">
    <path d="M 234.769863 239.215184 
Q 157.652523 241.179334 81.652854 243.115017 
" clip-path="url(#p36bfbe5e7a)" style="fill: none; stroke: #000000; stroke-linecap: round"/>
    <path d="M 85.70248 245.012523 
L 81.652854 243.115017 
L 85.600634 241.01382 
z
" clip-path="url(#p36bfbe5e7a)" style="stroke: #000000; stroke-linecap: round"/>
   </g>
   <g id="patch_24">
    <path d="M 238.531907 239.812207 
Q 313.663633 266.387623 387.741321 292.590207 
" clip-path="url(#p36bfbe5e7a)" style="fill: none; stroke: #000000; stroke-linecap: round"/>
    <path d="M 384.637222 289.370802 
L 387.741321 292.590207 
L 383.303338 293.141843 
z
" clip-path="url(#p36bfbe5e7a)" style="stroke: #000000; stroke-linecap: round"/>
   </g>
   <g id="patch_25">
    <path d="M 238.600069 238.765184 
Q 314.534382 222.710839 389.374841 206.88776 
" clip-path="url(#p36bfbe5e7a)" style="fill: none; stroke: #000000; stroke-linecap: round"/>
    <path d="M 385.047648 205.758421 
L 389.374841 206.88776 
L 385.875054 209.67191 
z
" clip-path="url(#p36bfbe5e7a)" style="stroke: #000000; stroke-linecap: round"/>
   </g>
   <g id="patch_26">
    <path d="M 182.181722 31.894388 
Q 190.15931 75.671842 197.936459 118.349376 
" clip-path="url(#p36bfbe5e7a)" style="fill: none; stroke: #000000; stroke-linecap: round"/>
    <path d="M 199.186944 114.055626 
L 197.936459 118.349376 
L 195.25175 114.772739 
z
" clip-path="url(#p36bfbe5e7a)" style="stroke: #000000; stroke-linecap: round"/>
   </g>
   <g id="patch_27">
    <path d="M 257.311776 241.867356 
Q 199.785352 263.9362 143.302785 285.60459 
" clip-path="url(#p36bfbe5e7a)" style="fill: none; stroke: #000000; stroke-linecap: round"/>
    <path d="M 147.753753 286.039188 
L 143.302785 285.60459 
L 146.321045 282.304574 
z
" clip-path="url(#p36bfbe5e7a)" style="stroke: #000000; stroke-linecap: round"/>
   </g>
   <g id="patch_28">
    <path d="M 257.605771 242.381062 
Q 213.798354 277.324937 170.864967 311.571624 
" clip-path="url(#p36bfbe5e7a)" style="fill: none; stroke: #000000; stroke-linecap: round"/>
    <path d="M 175.23916 310.640802 
L 170.864967 311.571624 
L 172.744825 307.513776 
z
" clip-path="url(#p36bfbe5e7a)" style="stroke: #000000; stroke-linecap: round"/>
   </g>
   <g id="patch_29">
    <path d="M 260.182717 242.789204 
Q 283.633222 278.39175 306.468729 313.060607 
" clip-path="url(#p36bfbe5e7a)" style="fill: none; stroke: #000000; stroke-linecap: round"/>
    <path d="M 305.93868 308.619993 
L 306.468729 313.060607 
L 302.598209 310.820278 
z
" clip-path="url(#p36bfbe5e7a)" style="stroke: #000000; stroke-linecap: round"/>
   </g>
   <g id="patch_30">
    <path d="M 260.766685 242.192632 
Q 291.647577 261.2807 321.577449 279.780923 
" clip-path="url(#p36bfbe5e7a)" style="fill: none; stroke: #000000; stroke-linecap: round"/>
    <path d="M 319.226542 275.976553 
L 321.577449 279.780923 
L 317.123408 279.379026 
z
" clip-path="url(#p36bfbe5e7a)" style="stroke: #000000; stroke-linecap: round"/>
   </g>
   <g id="patch_31">
    <path d="M 257.189933 241.001271 
Q 247.911328 240.169957 239.746297 239.438412 
" clip-path="url(#p36bfbe5e7a)" style="fill: none; stroke: #000000; stroke-linecap: round"/>
    <path d="M 243.551864 241.787382 
L 239.746297 239.438412 
L 243.908813 237.803341 
z
" clip-path="url(#p36bfbe5e7a)" style="stroke: #000000; stroke-linecap: round"/>
   </g>
   <g id="patch_32">
    <path d="M 257.84554 239.715415 
Q 221.529299 198.113374 185.948308 157.353597 
" clip-path="url(#p36bfbe5e7a)" style="fill: none; stroke: #000000; stroke-linecap: round"/>
    <path d="M 187.072128 161.682227 
L 185.948308 157.353597 
L 190.085503 159.051719 
z
" clip-path="url(#p36bfbe5e7a)" style="stroke: #000000; stroke-linecap: round"/>
   </g>
   <g id="patch_33">
    <path d="M 258.502077 243.009197 
Q 248.205856 273.642077 238.265842 303.215184 
" clip-path="url(#p36bfbe5e7a)" style="fill: none; stroke: #000000; stroke-linecap: round"/>
    <path d="M 241.436025 300.060831 
L 238.265842 303.215184 
L 237.64447 298.786427 
z
" clip-path="url(#p36bfbe5e7a)" style="stroke: #000000; stroke-linecap: round"/>
   </g>
   <g id="patch_34">
    <path d="M 258.243627 239.444488 
Q 228.800423 181.261441 199.862037 124.075971 
" clip-path="url(#p36bfbe5e7a)" style="fill: none; stroke: #000000; stroke-linecap: round"/>
    <path d="M 199.88361 128.548055 
L 199.862037 124.075971 
L 203.452648 126.741963 
z
" clip-path="url(#p36bfbe5e7a)" style="stroke: #000000; stroke-linecap: round"/>
   </g>
   <g id="patch_35">
    <path d="M 261.058151 241.088258 
Q 339.967933 237.595482 417.760774 234.152145 
" clip-path="url(#p36bfbe5e7a)" style="fill: none; stroke: #000000; stroke-linecap: round"/>
    <path d="M 413.676247 232.33098 
L 417.760774 234.152145 
L 413.853126 236.327067 
z
" clip-path="url(#p36bfbe5e7a)" style="stroke: #000000; stroke-linecap: round"/>
   </g>
   <g id="patch_36">
    <path d="M 261.041524 241.433272 
Q 339.274728 251.979283 416.39992 262.375933 
" clip-path="url(#p36bfbe5e7a)" style="fill: none; stroke: #000000; stroke-linecap: round"/>
    <path d="M 412.702963 259.859485 
L 416.39992 262.375933 
L 412.168588 263.82363 
z
" clip-path="url(#p36bfbe5e7a)" style="stroke: #000000; stroke-linecap: round"/>
   </g>
   <g id="patch_37">
    <path d="M 257.211733 240.815591 
Q 188.584245 227.915082 121.055547 215.221121 
" clip-path="url(#p36bfbe5e7a)" style="fill: none; stroke: #000000; stroke-linecap: round"/>
    <path d="M 124.617208 217.925667 
L 121.055547 215.221121 
L 125.35618 213.994519 
z
" clip-path="url(#p36bfbe5e7a)" style="stroke: #000000; stroke-linecap: round"/>
   </g>
   <g id="patch_38">
    <path d="M 257.216515 241.521893 
Q 169.167479 257.61929 82.218249 273.515618 
" clip-path="url(#p36bfbe5e7a)" style="fill: none; stroke: #000000; stroke-linecap: round"/>
    <path d="M 86.512716 274.76364 
L 82.218249 273.515618 
L 85.793347 270.828858 
z
" clip-path="url(#p36bfbe5e7a)" style="stroke: #000000; stroke-linecap: round"/>
   </g>
   <g id="patch_39">
    <path d="M 260.574365 239.892973 
Q 285.675123 217.799123 309.936643 196.443975 
" clip-path="url(#p36bfbe5e7a)" style="fill: none; stroke: #000000; stroke-linecap: round"/>
    <path d="M 305.612666 197.585562 
L 309.936643 196.443975 
L 308.255527 200.588109 
z
" clip-path="url(#p36bfbe5e7a)" style="stroke: #000000; stroke-linecap: round"/>
   </g>
   <g id="patch_40">
    <path d="M 257.182423 241.195751 
Q 168.857653 242.183487 81.650848 243.15872 
" clip-path="url(#p36bfbe5e7a)" style="fill: none; stroke: #000000; stroke-linecap: round"/>
    <path d="M 85.672962 245.113866 
L 81.650848 243.15872 
L 85.628233 241.114116 
z
" clip-path="url(#p36bfbe5e7a)" style="stroke: #000000; stroke-linecap: round"/>
   </g>
   <g id="patch_41">
    <path d="M 260.920757 241.892569 
Q 324.869617 267.391353 387.779956 292.476042 
" clip-path="url(#p36bfbe5e7a)" style="fill: none; stroke: #000000; stroke-linecap: round"/>
    <path d="M 384.805192 289.136764 
L 387.779956 292.476042 
L 383.323675 292.852286 
z
" clip-path="url(#p36bfbe5e7a)" style="stroke: #000000; stroke-linecap: round"/>
   </g>
   <g id="patch_42">
    <path d="M 260.993398 240.682856 
Q 325.740462 223.715086 389.406012 207.03074 
" clip-path="url(#p36bfbe5e7a)" style="fill: none; stroke: #000000; stroke-linecap: round"/>
    <path d="M 385.029669 206.110078 
L 389.406012 207.03074 
L 386.043677 209.979418 
z
" clip-path="url(#p36bfbe5e7a)" style="stroke: #000000; stroke-linecap: round"/>
   </g>
   <g id="patch_43">
    <path d="M 184.967702 156.691814 
Q 210.32229 197.109605 235.082746 236.580291 
" clip-path="url(#p36bfbe5e7a)" style="fill: none; stroke: #000000; stroke-linecap: round"/>
    <path d="M 234.651352 232.12901 
L 235.082746 236.580291 
L 231.262885 234.254638 
z
" clip-path="url(#p36bfbe5e7a)" style="stroke: #000000; stroke-linecap: round"/>
   </g>
   <g id="patch_44">
    <path d="M 185.212072 156.510202 
Q 221.528312 198.112243 257.109303 238.87202 
" clip-path="url(#p36bfbe5e7a)" style="fill: none; stroke: #000000; stroke-linecap: round"/>
    <path d="M 255.985484 234.543391 
L 257.109303 238.87202 
L 252.972108 237.173898 
z
" clip-path="url(#p36bfbe5e7a)" style="stroke: #000000; stroke-linecap: round"/>
   </g>
   <g id="patch_45">
    <path d="M 182.572918 153.675073 
Q 160.183615 131.111323 138.581807 109.341205 
" clip-path="url(#p36bfbe5e7a)" style="fill: none; stroke: #000000; stroke-linecap: round"/>
    <path d="M 139.979546 113.589302 
L 138.581807 109.341205 
L 142.818928 110.771872 
z
" clip-path="url(#p36bfbe5e7a)" style="stroke: #000000; stroke-linecap: round"/>
   </g>
   <g id="patch_46">
    <path d="M 182.572918 153.675073 
Q 160.183615 131.111323 138.581807 109.341205 
" clip-path="url(#p36bfbe5e7a)" style="fill: none; stroke: #000000; stroke-linecap: round"/>
    <path d="M 139.979546 113.589302 
L 138.581807 109.341205 
L 142.818928 110.771872 
z
" clip-path="url(#p36bfbe5e7a)" style="stroke: #000000; stroke-linecap: round"/>
   </g>
   <g id="patch_47">
    <path d="M 185.597658 154.057316 
Q 235.316559 124.260541 284.076458 95.038499 
" clip-path="url(#p36bfbe5e7a)" style="fill: none; stroke: #000000; stroke-linecap: round"/>
    <path d="M 279.61732 95.379216 
L 284.076458 95.038499 
L 281.673549 98.81024 
z
" clip-path="url(#p36bfbe5e7a)" style="stroke: #000000; stroke-linecap: round"/>
   </g>
   <g id="patch_48">
    <path d="M 182.08046 154.493382 
Q 111.95943 133.43216 42.909178 112.692552 
" clip-path="url(#p36bfbe5e7a)" style="fill: none; stroke: #000000; stroke-linecap: round"/>
    <path d="M 46.164788 115.758657 
L 42.909178 112.692552 
L 47.315428 111.927727 
z
" clip-path="url(#p36bfbe5e7a)" style="stroke: #000000; stroke-linecap: round"/>
   </g>
   <g id="patch_49">
    <path d="M 184.707519 153.270292 
Q 191.211327 138.201506 197.272088 124.159224 
" clip-path="url(#p36bfbe5e7a)" style="fill: none; stroke: #000000; stroke-linecap: round"/>
    <path d="M 193.85073 127.039208 
L 197.272088 124.159224 
L 197.52326 128.624301 
z
" clip-path="url(#p36bfbe5e7a)" style="stroke: #000000; stroke-linecap: round"/>
   </g>
   <g id="patch_50">
    <path d="M 63.797714 45.532696 
Q 130.296019 82.966922 195.820054 119.852697 
" clip-path="url(#p36bfbe5e7a)" style="fill: none; stroke: #000000; stroke-linecap: round"/>
    <path d="M 193.315498 116.147673 
L 195.820054 119.852697 
L 191.353302 119.633327 
z
" clip-path="url(#p36bfbe5e7a)" style="stroke: #000000; stroke-linecap: round"/>
   </g>
   <g id="patch_51">
    <path d="M 305.026259 39.985095 
Q 252.523917 80.081353 200.910124 119.499024 
" clip-path="url(#p36bfbe5e7a)" style="fill: none; stroke: #000000; stroke-linecap: round"/>
    <path d="M 205.302986 118.660717 
L 200.910124 119.499024 
L 202.875196 115.481749 
z
" clip-path="url(#p36bfbe5e7a)" style="stroke: #000000; stroke-linecap: round"/>
   </g>
   <g id="patch_52">
    <path d="M 137.794145 108.547406 
Q 160.183448 131.111155 181.785256 152.881273 
" clip-path="url(#p36bfbe5e7a)" style="fill: none; stroke: #000000; stroke-linecap: round"/>
    <path d="M 180.387517 148.633177 
L 181.785256 152.881273 
L 177.548135 151.450607 
z
" clip-path="url(#p36bfbe5e7a)" style="stroke: #000000; stroke-linecap: round"/>
   </g>
   <g id="patch_53">
    <path d="M 137.794145 108.547406 
Q 160.183448 131.111155 181.785256 152.881273 
" clip-path="url(#p36bfbe5e7a)" style="fill: none; stroke: #000000; stroke-linecap: round"/>
    <path d="M 180.387517 148.633177 
L 181.785256 152.881273 
L 177.548135 151.450607 
z
" clip-path="url(#p36bfbe5e7a)" style="stroke: #000000; stroke-linecap: round"/>
   </g>
   <g id="patch_54">
    <path d="M 138.318328 107.602866 
Q 167.455399 114.261407 195.502534 120.67087 
" clip-path="url(#p36bfbe5e7a)" style="fill: none; stroke: #000000; stroke-linecap: round"/>
    <path d="M 192.048623 117.830008 
L 195.502534 120.67087 
L 191.157497 121.729481 
z
" clip-path="url(#p36bfbe5e7a)" style="stroke: #000000; stroke-linecap: round"/>
   </g>
   <g id="patch_55">
    <path d="M 138.318328 107.602866 
Q 167.455399 114.261407 195.502534 120.67087 
" clip-path="url(#p36bfbe5e7a)" style="fill: none; stroke: #000000; stroke-linecap: round"/>
    <path d="M 192.048623 117.830008 
L 195.502534 120.67087 
L 191.157497 121.729481 
z
" clip-path="url(#p36bfbe5e7a)" style="stroke: #000000; stroke-linecap: round"/>
   </g>
   <g id="patch_56">
    <path d="M 138.318328 107.602866 
Q 167.455399 114.261407 195.502534 120.67087 
" clip-path="url(#p36bfbe5e7a)" style="fill: none; stroke: #000000; stroke-linecap: round"/>
    <path d="M 192.048623 117.830008 
L 195.502534 120.67087 
L 191.157497 121.729481 
z
" clip-path="url(#p36bfbe5e7a)" style="stroke: #000000; stroke-linecap: round"/>
   </g>
   <g id="patch_57">
    <path d="M 285.039531 94.461325 
Q 235.320631 124.2581 186.560731 153.480142 
" clip-path="url(#p36bfbe5e7a)" style="fill: none; stroke: #000000; stroke-linecap: round"/>
    <path d="M 191.019869 153.139425 
L 186.560731 153.480142 
L 188.96364 149.708401 
z
" clip-path="url(#p36bfbe5e7a)" style="stroke: #000000; stroke-linecap: round"/>
   </g>
   <g id="patch_58">
    <path d="M 284.854373 94.050042 
Q 242.59287 107.409052 201.397408 120.431082 
" clip-path="url(#p36bfbe5e7a)" style="fill: none; stroke: #000000; stroke-linecap: round"/>
    <path d="M 205.814202 121.13246 
L 201.397408 120.431082 
L 204.608587 117.318474 
z
" clip-path="url(#p36bfbe5e7a)" style="stroke: #000000; stroke-linecap: round"/>
   </g>
   <g id="patch_59">
    <path d="M 41.845043 112.372933 
Q 111.966073 133.434155 181.016325 154.173763 
" clip-path="url(#p36bfbe5e7a)" style="fill: none; stroke: #000000; stroke-linecap: round"/>
    <path d="M 177.760715 151.107658 
L 181.016325 154.173763 
L 176.610074 154.938588 
z
" clip-path="url(#p36bfbe5e7a)" style="stroke: #000000; stroke-linecap: round"/>
   </g>
   <g id="patch_60">
    <path d="M 41.916716 111.930924 
Q 119.232631 116.583306 195.43253 121.168533 
" clip-path="url(#p36bfbe5e7a)" style="fill: none; stroke: #000000; stroke-linecap: round"/>
    <path d="M 191.559882 118.931884 
L 195.43253 121.168533 
L 191.319622 122.924661 
z
" clip-path="url(#p36bfbe5e7a)" style="stroke: #000000; stroke-linecap: round"/>
   </g>
   <g id="patch_61">
    <path d="M 237.275176 304.179408 
Q 236.998433 272.638891 236.7315 242.216364 
" clip-path="url(#p36bfbe5e7a)" style="fill: none; stroke: #000000; stroke-linecap: round"/>
    <path d="M 234.766672 246.233758 
L 236.7315 242.216364 
L 238.766518 246.198663 
z
" clip-path="url(#p36bfbe5e7a)" style="stroke: #000000; stroke-linecap: round"/>
   </g>
   <g id="patch_62">
    <path d="M 237.908942 304.277019 
Q 248.205163 273.644139 258.145177 244.071031 
" clip-path="url(#p36bfbe5e7a)" style="fill: none; stroke: #000000; stroke-linecap: round"/>
    <path d="M 254.974994 247.225384 
L 258.145177 244.071031 
L 258.76655 248.499789 
z
" clip-path="url(#p36bfbe5e7a)" style="stroke: #000000; stroke-linecap: round"/>
   </g>
   <g id="patch_63">
    <path d="M 199.082023 123.196565 
Q 217.594285 180.259298 235.761536 236.258561 
" clip-path="url(#p36bfbe5e7a)" style="fill: none; stroke: #000000; stroke-linecap: round"/>
    <path d="M 236.429582 231.836603 
L 235.761536 236.258561 
L 232.624797 233.07095 
z
" clip-path="url(#p36bfbe5e7a)" style="stroke: #000000; stroke-linecap: round"/>
   </g>
   <g id="patch_64">
    <path d="M 198.13663 119.447824 
Q 190.159042 75.67037 182.381893 32.992836 
" clip-path="url(#p36bfbe5e7a)" style="fill: none; stroke: #000000; stroke-linecap: round"/>
    <path d="M 181.131408 37.286586 
L 182.381893 32.992836 
L 185.066602 36.569474 
z
" clip-path="url(#p36bfbe5e7a)" style="stroke: #000000; stroke-linecap: round"/>
   </g>
   <g id="patch_65">
    <path d="M 199.358911 123.081738 
Q 228.802115 181.264784 257.740501 238.450254 
" clip-path="url(#p36bfbe5e7a)" style="fill: none; stroke: #000000; stroke-linecap: round"/>
    <path d="M 257.718928 233.97817 
L 257.740501 238.450254 
L 254.14989 235.784262 
z
" clip-path="url(#p36bfbe5e7a)" style="stroke: #000000; stroke-linecap: round"/>
   </g>
   <g id="patch_66">
    <path d="M 197.714859 123.13336 
Q 191.211051 138.202146 185.15029 152.244428 
" clip-path="url(#p36bfbe5e7a)" style="fill: none; stroke: #000000; stroke-linecap: round"/>
    <path d="M 188.571649 149.364444 
L 185.15029 152.244428 
L 184.899118 147.779351 
z
" clip-path="url(#p36bfbe5e7a)" style="stroke: #000000; stroke-linecap: round"/>
   </g>
   <g id="patch_67">
    <path d="M 196.798154 120.403303 
Q 130.299848 82.969078 64.775813 46.083303 
" clip-path="url(#p36bfbe5e7a)" style="fill: none; stroke: #000000; stroke-linecap: round"/>
    <path d="M 67.280369 49.788327 
L 64.775813 46.083303 
L 69.242566 46.302673 
z
" clip-path="url(#p36bfbe5e7a)" style="stroke: #000000; stroke-linecap: round"/>
   </g>
   <g id="patch_68">
    <path d="M 200.02402 120.175745 
Q 252.526362 80.079486 304.140155 40.661816 
" clip-path="url(#p36bfbe5e7a)" style="fill: none; stroke: #000000; stroke-linecap: round"/>
    <path d="M 299.747292 41.500123 
L 304.140155 40.661816 
L 302.175083 44.67909 
z
" clip-path="url(#p36bfbe5e7a)" style="stroke: #000000; stroke-linecap: round"/>
   </g>
   <g id="patch_69">
    <path d="M 196.593662 120.92022 
Q 167.456591 114.261679 139.409456 107.852216 
" clip-path="url(#p36bfbe5e7a)" style="fill: none; stroke: #000000; stroke-linecap: round"/>
    <path d="M 142.863367 110.693079 
L 139.409456 107.852216 
L 143.754493 106.793605 
z
" clip-path="url(#p36bfbe5e7a)" style="stroke: #000000; stroke-linecap: round"/>
   </g>
   <g id="patch_70">
    <path d="M 196.593662 120.92022 
Q 167.456591 114.261679 139.409456 107.852216 
" clip-path="url(#p36bfbe5e7a)" style="fill: none; stroke: #000000; stroke-linecap: round"/>
    <path d="M 142.863367 110.693079 
L 139.409456 107.852216 
L 143.754493 106.793605 
z
" clip-path="url(#p36bfbe5e7a)" style="stroke: #000000; stroke-linecap: round"/>
   </g>
   <g id="patch_71">
    <path d="M 196.593662 120.92022 
Q 167.456591 114.261679 139.409456 107.852216 
" clip-path="url(#p36bfbe5e7a)" style="fill: none; stroke: #000000; stroke-linecap: round"/>
    <path d="M 142.863367 110.693079 
L 139.409456 107.852216 
L 143.754493 106.793605 
z
" clip-path="url(#p36bfbe5e7a)" style="stroke: #000000; stroke-linecap: round"/>
   </g>
   <g id="patch_72">
    <path d="M 200.327743 120.769206 
Q 242.589246 107.410197 283.784708 94.388167 
" clip-path="url(#p36bfbe5e7a)" style="fill: none; stroke: #000000; stroke-linecap: round"/>
    <path d="M 279.367914 93.686788 
L 283.784708 94.388167 
L 280.573529 97.500775 
z
" clip-path="url(#p36bfbe5e7a)" style="stroke: #000000; stroke-linecap: round"/>
   </g>
   <g id="patch_73">
    <path d="M 196.553713 121.235998 
Q 119.237799 116.583617 43.0379 111.99839 
" clip-path="url(#p36bfbe5e7a)" style="fill: none; stroke: #000000; stroke-linecap: round"/>
    <path d="M 46.910548 114.235039 
L 43.0379 111.99839 
L 47.150808 110.242261 
z
" clip-path="url(#p36bfbe5e7a)" style="stroke: #000000; stroke-linecap: round"/>
   </g>
   <g id="patch_74">
    <path d="M 418.877634 234.071167 
Q 328.759923 236.591443 239.759808 239.080464 
" clip-path="url(#p36bfbe5e7a)" style="fill: none; stroke: #000000; stroke-linecap: round"/>
    <path d="M 243.814156 240.96786 
L 239.759808 239.080464 
L 243.702334 236.969424 
z
" clip-path="url(#p36bfbe5e7a)" style="stroke: #000000; stroke-linecap: round"/>
   </g>
   <g id="patch_75">
    <path d="M 418.873957 234.102873 
Q 339.964176 237.595648 262.171335 241.038985 
" clip-path="url(#p36bfbe5e7a)" style="fill: none; stroke: #000000; stroke-linecap: round"/>
    <path d="M 266.255861 242.86015 
L 262.171335 241.038985 
L 266.078983 238.864063 
z
" clip-path="url(#p36bfbe5e7a)" style="stroke: #000000; stroke-linecap: round"/>
   </g>
   <g id="patch_76">
    <path d="M 417.505833 262.535665 
Q 328.066727 250.975058 239.736432 239.557771 
" clip-path="url(#p36bfbe5e7a)" style="fill: none; stroke: #000000; stroke-linecap: round"/>
    <path d="M 243.447049 242.054032 
L 239.736432 239.557771 
L 243.959811 238.087033 
z
" clip-path="url(#p36bfbe5e7a)" style="stroke: #000000; stroke-linecap: round"/>
   </g>
   <g id="patch_77">
    <path d="M 417.504207 262.524793 
Q 339.271003 251.978781 262.145811 241.582132 
" clip-path="url(#p36bfbe5e7a)" style="fill: none; stroke: #000000; stroke-linecap: round"/>
    <path d="M 265.842768 244.09858 
L 262.145811 241.582132 
L 266.377144 240.134435 
z
" clip-path="url(#p36bfbe5e7a)" style="stroke: #000000; stroke-linecap: round"/>
   </g>
   <g id="patch_78">
    <path d="M 119.943721 215.047317 
Q 177.374618 226.910456 233.710596 238.547424 
" clip-path="url(#p36bfbe5e7a)" style="fill: none; stroke: #000000; stroke-linecap: round"/>
    <path d="M 230.197882 235.779602 
L 233.710596 238.547424 
L 229.38871 239.696902 
z
" clip-path="url(#p36bfbe5e7a)" style="stroke: #000000; stroke-linecap: round"/>
   </g>
   <g id="patch_79">
    <path d="M 119.95706 215.014628 
Q 188.584548 227.915138 256.113246 240.609099 
" clip-path="url(#p36bfbe5e7a)" style="fill: none; stroke: #000000; stroke-linecap: round"/>
    <path d="M 252.551585 237.904553 
L 256.113246 240.609099 
L 251.812613 241.835701 
z
" clip-path="url(#p36bfbe5e7a)" style="stroke: #000000; stroke-linecap: round"/>
   </g>
   <g id="patch_80">
    <path d="M 81.103306 273.646224 
Q 157.956679 256.615989 233.718496 239.827636 
" clip-path="url(#p36bfbe5e7a)" style="fill: none; stroke: #000000; stroke-linecap: round"/>
    <path d="M 229.380537 238.740386 
L 233.718496 239.827636 
L 230.24592 242.645653 
z
" clip-path="url(#p36bfbe5e7a)" style="stroke: #000000; stroke-linecap: round"/>
   </g>
   <g id="patch_81">
    <path d="M 81.116832 273.716983 
Q 169.165867 257.619585 256.115097 241.723257 
" clip-path="url(#p36bfbe5e7a)" style="fill: none; stroke: #000000; stroke-linecap: round"/>
    <path d="M 251.820631 240.475235 
L 256.115097 241.723257 
L 252.54 244.410017 
z
" clip-path="url(#p36bfbe5e7a)" style="stroke: #000000; stroke-linecap: round"/>
   </g>
   <g id="patch_82">
    <path d="M 310.562917 195.413109 
Q 274.466668 216.796139 239.332341 237.609338 
" clip-path="url(#p36bfbe5e7a)" style="fill: none; stroke: #000000; stroke-linecap: round"/>
    <path d="M 243.79316 237.291383 
L 239.332341 237.609338 
L 241.754468 233.84991 
z
" clip-path="url(#p36bfbe5e7a)" style="stroke: #000000; stroke-linecap: round"/>
   </g>
   <g id="patch_83">
    <path d="M 310.773827 195.707081 
Q 285.673069 217.800931 261.411548 239.156079 
" clip-path="url(#p36bfbe5e7a)" style="fill: none; stroke: #000000; stroke-linecap: round"/>
    <path d="M 265.735525 238.014491 
L 261.411548 239.156079 
L 263.092664 235.011944 
z
" clip-path="url(#p36bfbe5e7a)" style="stroke: #000000; stroke-linecap: round"/>
   </g>
   <g id="patch_84">
    <path d="M 80.530264 243.143609 
Q 157.647604 241.179459 233.647274 239.243776 
" clip-path="url(#p36bfbe5e7a)" style="fill: none; stroke: #000000; stroke-linecap: round"/>
    <path d="M 229.597648 237.34627 
L 233.647274 239.243776 
L 229.699493 241.344973 
z
" clip-path="url(#p36bfbe5e7a)" style="stroke: #000000; stroke-linecap: round"/>
   </g>
   <g id="patch_85">
    <path d="M 80.531856 243.171234 
Q 168.856625 242.183498 256.063431 241.208265 
" clip-path="url(#p36bfbe5e7a)" style="fill: none; stroke: #000000; stroke-linecap: round"/>
    <path d="M 252.041316 239.253119 
L 256.063431 241.208265 
L 252.086045 243.252869 
z
" clip-path="url(#p36bfbe5e7a)" style="stroke: #000000; stroke-linecap: round"/>
   </g>
   <g id="patch_86">
    <path d="M 388.792234 292.961933 
Q 313.660508 266.386517 239.58282 240.183934 
" clip-path="url(#p36bfbe5e7a)" style="fill: none; stroke: #000000; stroke-linecap: round"/>
    <path d="M 242.686919 243.403338 
L 239.58282 240.183934 
L 244.020803 239.632297 
z
" clip-path="url(#p36bfbe5e7a)" style="stroke: #000000; stroke-linecap: round"/>
   </g>
   <g id="patch_87">
    <path d="M 388.817535 292.889763 
Q 324.868675 267.390978 261.958336 242.30629 
" clip-path="url(#p36bfbe5e7a)" style="fill: none; stroke: #000000; stroke-linecap: round"/>
    <path d="M 264.9331 245.645568 
L 261.958336 242.30629 
L 266.414617 241.930045 
z
" clip-path="url(#p36bfbe5e7a)" style="stroke: #000000; stroke-linecap: round"/>
   </g>
   <g id="patch_88">
    <path d="M 390.464385 206.657404 
Q 314.530073 222.71175 239.689614 238.534828 
" clip-path="url(#p36bfbe5e7a)" style="fill: none; stroke: #000000; stroke-linecap: round"/>
    <path d="M 244.016806 239.664167 
L 239.689614 238.534828 
L 243.1894 235.750678 
z
" clip-path="url(#p36bfbe5e7a)" style="stroke: #000000; stroke-linecap: round"/>
   </g>
   <g id="patch_89">
    <path d="M 390.485208 206.747923 
Q 325.738144 223.715694 262.072593 240.40004 
" clip-path="url(#p36bfbe5e7a)" style="fill: none; stroke: #000000; stroke-linecap: round"/>
    <path d="M 266.448937 241.320701 
L 262.072593 240.40004 
L 265.434928 237.451362 
z
" clip-path="url(#p36bfbe5e7a)" style="stroke: #000000; stroke-linecap: round"/>
   </g>
   <g id="PathCollection_1">
    <defs>
     <path id="C0_0_ca3a0961e7" d="M 0 1.936492 
C 0.513564 1.936492 1.006162 1.732451 1.369306 1.369306 
C 1.732451 1.006162 1.936492 0.513564 1.936492 -0 
C 1.936492 -0.513564 1.732451 -1.006162 1.369306 -1.369306 
C 1.006162 -1.732451 0.513564 -1.936492 0 -1.936492 
C -0.513564 -1.936492 -1.006162 -1.732451 -1.369306 -1.369306 
C -1.732451 -1.006162 -1.936492 -0.513564 -1.936492 0 
C -1.936492 0.513564 -1.732451 1.006162 -1.369306 1.369306 
C -1.006162 1.732451 -0.513564 1.936492 0 1.936492 
z
"/>
    </defs>
    <g clip-path="url(#p36bfbe5e7a)">
     <use xlink:href="#C0_0_ca3a0961e7" x="140.450807" y="286.698693" style="fill: #ff0000; stroke: #ff0000"/>
    </g>
    <g clip-path="url(#p36bfbe5e7a)">
     <use xlink:href="#C0_0_ca3a0961e7" x="168.475881" y="313.477327" style="stroke: #000000"/>
    </g>
    <g clip-path="url(#p36bfbe5e7a)">
     <use xlink:href="#C0_0_ca3a0961e7" x="308.147896" y="315.609917" style="stroke: #000000"/>
    </g>
    <g clip-path="url(#p36bfbe5e7a)">
     <use xlink:href="#C0_0_ca3a0961e7" x="324.173231" y="281.385426" style="fill: #ff0000; stroke: #ff0000"/>
    </g>
    <g clip-path="url(#p36bfbe5e7a)">
     <use xlink:href="#C0_0_ca3a0961e7" x="236.704734" y="239.165904" style="fill: #ff0000; stroke: #ff0000"/>
    </g>
    <g clip-path="url(#p36bfbe5e7a)">
     <use xlink:href="#C0_0_ca3a0961e7" x="181.834699" y="29.990083" style="stroke: #000000"/>
    </g>
    <g clip-path="url(#p36bfbe5e7a)">
     <use xlink:href="#C0_0_ca3a0961e7" x="259.118885" y="241.174095" style="fill: #ff0000; stroke: #ff0000"/>
    </g>
    <g clip-path="url(#p36bfbe5e7a)">
     <use xlink:href="#C0_0_ca3a0961e7" x="183.938726" y="155.051522" style="fill: #ff0000; stroke: #ff0000"/>
    </g>
    <g clip-path="url(#p36bfbe5e7a)">
     <use xlink:href="#C0_0_ca3a0961e7" x="62.112215" y="44.58387" style="fill: #ff0000; stroke: #ff0000"/>
    </g>
    <g clip-path="url(#p36bfbe5e7a)">
     <use xlink:href="#C0_0_ca3a0961e7" x="306.566626" y="38.80871" style="fill: #ff0000; stroke: #ff0000"/>
    </g>
    <g clip-path="url(#p36bfbe5e7a)">
     <use xlink:href="#C0_0_ca3a0961e7" x="136.428337" y="107.170957" style="fill: #ff0000; stroke: #ff0000"/>
    </g>
    <g clip-path="url(#p36bfbe5e7a)">
     <use xlink:href="#C0_0_ca3a0961e7" x="286.698463" y="93.467119" style="fill: #ff0000; stroke: #ff0000"/>
    </g>
    <g clip-path="url(#p36bfbe5e7a)">
     <use xlink:href="#C0_0_ca3a0961e7" x="39.986777" y="111.814793" style="stroke: #000000"/>
    </g>
    <g clip-path="url(#p36bfbe5e7a)">
     <use xlink:href="#C0_0_ca3a0961e7" x="237.292134" y="306.11212" style="fill: #ff0000; stroke: #ff0000"/>
    </g>
    <g clip-path="url(#p36bfbe5e7a)">
     <use xlink:href="#C0_0_ca3a0961e7" x="198.483653" y="121.35213" style="fill: #ff0000; stroke: #ff0000"/>
    </g>
    <g clip-path="url(#p36bfbe5e7a)">
     <use xlink:href="#C0_0_ca3a0961e7" x="420.813223" y="234.017035" style="fill: #ff0000; stroke: #ff0000"/>
    </g>
    <g clip-path="url(#p36bfbe5e7a)">
     <use xlink:href="#C0_0_ca3a0961e7" x="419.426846" y="262.783969" style="fill: #ff0000; stroke: #ff0000"/>
    </g>
    <g clip-path="url(#p36bfbe5e7a)">
     <use xlink:href="#C0_0_ca3a0961e7" x="118.049908" y="214.656124" style="fill: #ff0000; stroke: #ff0000"/>
    </g>
    <g clip-path="url(#p36bfbe5e7a)">
     <use xlink:href="#C0_0_ca3a0961e7" x="79.214461" y="274.06478" style="fill: #ff0000; stroke: #ff0000"/>
    </g>
    <g clip-path="url(#p36bfbe5e7a)">
     <use xlink:href="#C0_0_ca3a0961e7" x="312.229306" y="194.425958" style="fill: #ff0000; stroke: #ff0000"/>
    </g>
    <g clip-path="url(#p36bfbe5e7a)">
     <use xlink:href="#C0_0_ca3a0961e7" x="78.595393" y="243.19289" style="stroke: #000000"/>
    </g>
    <g clip-path="url(#p36bfbe5e7a)">
     <use xlink:href="#C0_0_ca3a0961e7" x="390.619407" y="293.608236" style="fill: #ff0000; stroke: #ff0000"/>
    </g>
    <g clip-path="url(#p36bfbe5e7a)">
     <use xlink:href="#C0_0_ca3a0961e7" x="392.35972" y="206.256684" style="stroke: #000000"/>
    </g>
   </g>
   <g id="text_1">
    <g clip-path="url(#p36bfbe5e7a)">
     <!-- 0 -->
     <g transform="translate(137.269557 289.458068) scale(0.1 -0.1)">
      <defs>
       <path id="DejaVuSans-30" d="M 2034 4250 
Q 1547 4250 1301 3770 
Q 1056 3291 1056 2328 
Q 1056 1369 1301 889 
Q 1547 409 2034 409 
Q 2525 409 2770 889 
Q 3016 1369 3016 2328 
Q 3016 3291 2770 3770 
Q 2525 4250 2034 4250 
z
M 2034 4750 
Q 2819 4750 3233 4129 
Q 3647 3509 3647 2328 
Q 3647 1150 3233 529 
Q 2819 -91 2034 -91 
Q 1250 -91 836 529 
Q 422 1150 422 2328 
Q 422 3509 836 4129 
Q 1250 4750 2034 4750 
z
" transform="scale(0.015625)"/>
      </defs>
      <use xlink:href="#DejaVuSans-30"/>
     </g>
    </g>
   </g>
   <g id="text_2">
    <g clip-path="url(#p36bfbe5e7a)">
     <!-- 1 -->
     <g transform="translate(165.294631 316.236702) scale(0.1 -0.1)">
      <defs>
       <path id="DejaVuSans-31" d="M 794 531 
L 1825 531 
L 1825 4091 
L 703 3866 
L 703 4441 
L 1819 4666 
L 2450 4666 
L 2450 531 
L 3481 531 
L 3481 0 
L 794 0 
L 794 531 
z
" transform="scale(0.015625)"/>
      </defs>
      <use xlink:href="#DejaVuSans-31"/>
     </g>
    </g>
   </g>
   <g id="text_3">
    <g clip-path="url(#p36bfbe5e7a)">
     <!-- 2 -->
     <g transform="translate(304.966646 318.369292) scale(0.1 -0.1)">
      <defs>
       <path id="DejaVuSans-32" d="M 1228 531 
L 3431 531 
L 3431 0 
L 469 0 
L 469 531 
Q 828 903 1448 1529 
Q 2069 2156 2228 2338 
Q 2531 2678 2651 2914 
Q 2772 3150 2772 3378 
Q 2772 3750 2511 3984 
Q 2250 4219 1831 4219 
Q 1534 4219 1204 4116 
Q 875 4013 500 3803 
L 500 4441 
Q 881 4594 1212 4672 
Q 1544 4750 1819 4750 
Q 2544 4750 2975 4387 
Q 3406 4025 3406 3419 
Q 3406 3131 3298 2873 
Q 3191 2616 2906 2266 
Q 2828 2175 2409 1742 
Q 1991 1309 1228 531 
z
" transform="scale(0.015625)"/>
      </defs>
      <use xlink:href="#DejaVuSans-32"/>
     </g>
    </g>
   </g>
   <g id="text_4">
    <g clip-path="url(#p36bfbe5e7a)">
     <!-- 3 -->
     <g transform="translate(320.991981 284.144801) scale(0.1 -0.1)">
      <defs>
       <path id="DejaVuSans-33" d="M 2597 2516 
Q 3050 2419 3304 2112 
Q 3559 1806 3559 1356 
Q 3559 666 3084 287 
Q 2609 -91 1734 -91 
Q 1441 -91 1130 -33 
Q 819 25 488 141 
L 488 750 
Q 750 597 1062 519 
Q 1375 441 1716 441 
Q 2309 441 2620 675 
Q 2931 909 2931 1356 
Q 2931 1769 2642 2001 
Q 2353 2234 1838 2234 
L 1294 2234 
L 1294 2753 
L 1863 2753 
Q 2328 2753 2575 2939 
Q 2822 3125 2822 3475 
Q 2822 3834 2567 4026 
Q 2313 4219 1838 4219 
Q 1578 4219 1281 4162 
Q 984 4106 628 3988 
L 628 4550 
Q 988 4650 1302 4700 
Q 1616 4750 1894 4750 
Q 2613 4750 3031 4423 
Q 3450 4097 3450 3541 
Q 3450 3153 3228 2886 
Q 3006 2619 2597 2516 
z
" transform="scale(0.015625)"/>
      </defs>
      <use xlink:href="#DejaVuSans-33"/>
     </g>
    </g>
   </g>
   <g id="text_5">
    <g clip-path="url(#p36bfbe5e7a)">
     <!-- 4 -->
     <g transform="translate(233.523484 241.925279) scale(0.1 -0.1)">
      <defs>
       <path id="DejaVuSans-34" d="M 2419 4116 
L 825 1625 
L 2419 1625 
L 2419 4116 
z
M 2253 4666 
L 3047 4666 
L 3047 1625 
L 3713 1625 
L 3713 1100 
L 3047 1100 
L 3047 0 
L 2419 0 
L 2419 1100 
L 313 1100 
L 313 1709 
L 2253 4666 
z
" transform="scale(0.015625)"/>
      </defs>
      <use xlink:href="#DejaVuSans-34"/>
     </g>
    </g>
   </g>
   <g id="text_6">
    <g clip-path="url(#p36bfbe5e7a)">
     <!-- 5 -->
     <g transform="translate(178.653449 32.749458) scale(0.1 -0.1)">
      <defs>
       <path id="DejaVuSans-35" d="M 691 4666 
L 3169 4666 
L 3169 4134 
L 1269 4134 
L 1269 2991 
Q 1406 3038 1543 3061 
Q 1681 3084 1819 3084 
Q 2600 3084 3056 2656 
Q 3513 2228 3513 1497 
Q 3513 744 3044 326 
Q 2575 -91 1722 -91 
Q 1428 -91 1123 -41 
Q 819 9 494 109 
L 494 744 
Q 775 591 1075 516 
Q 1375 441 1709 441 
Q 2250 441 2565 725 
Q 2881 1009 2881 1497 
Q 2881 1984 2565 2268 
Q 2250 2553 1709 2553 
Q 1456 2553 1204 2497 
Q 953 2441 691 2322 
L 691 4666 
z
" transform="scale(0.015625)"/>
      </defs>
      <use xlink:href="#DejaVuSans-35"/>
     </g>
    </g>
   </g>
   <g id="text_7">
    <g clip-path="url(#p36bfbe5e7a)">
     <!-- 6 -->
     <g transform="translate(255.937635 243.93347) scale(0.1 -0.1)">
      <defs>
       <path id="DejaVuSans-36" d="M 2113 2584 
Q 1688 2584 1439 2293 
Q 1191 2003 1191 1497 
Q 1191 994 1439 701 
Q 1688 409 2113 409 
Q 2538 409 2786 701 
Q 3034 994 3034 1497 
Q 3034 2003 2786 2293 
Q 2538 2584 2113 2584 
z
M 3366 4563 
L 3366 3988 
Q 3128 4100 2886 4159 
Q 2644 4219 2406 4219 
Q 1781 4219 1451 3797 
Q 1122 3375 1075 2522 
Q 1259 2794 1537 2939 
Q 1816 3084 2150 3084 
Q 2853 3084 3261 2657 
Q 3669 2231 3669 1497 
Q 3669 778 3244 343 
Q 2819 -91 2113 -91 
Q 1303 -91 875 529 
Q 447 1150 447 2328 
Q 447 3434 972 4092 
Q 1497 4750 2381 4750 
Q 2619 4750 2861 4703 
Q 3103 4656 3366 4563 
z
" transform="scale(0.015625)"/>
      </defs>
      <use xlink:href="#DejaVuSans-36"/>
     </g>
    </g>
   </g>
   <g id="text_8">
    <g clip-path="url(#p36bfbe5e7a)">
     <!-- 7 -->
     <g transform="translate(180.757476 157.810897) scale(0.1 -0.1)">
      <defs>
       <path id="DejaVuSans-37" d="M 525 4666 
L 3525 4666 
L 3525 4397 
L 1831 0 
L 1172 0 
L 2766 4134 
L 525 4134 
L 525 4666 
z
" transform="scale(0.015625)"/>
      </defs>
      <use xlink:href="#DejaVuSans-37"/>
     </g>
    </g>
   </g>
   <g id="text_9">
    <g clip-path="url(#p36bfbe5e7a)">
     <!-- 8 -->
     <g transform="translate(58.930965 47.343245) scale(0.1 -0.1)">
      <defs>
       <path id="DejaVuSans-38" d="M 2034 2216 
Q 1584 2216 1326 1975 
Q 1069 1734 1069 1313 
Q 1069 891 1326 650 
Q 1584 409 2034 409 
Q 2484 409 2743 651 
Q 3003 894 3003 1313 
Q 3003 1734 2745 1975 
Q 2488 2216 2034 2216 
z
M 1403 2484 
Q 997 2584 770 2862 
Q 544 3141 544 3541 
Q 544 4100 942 4425 
Q 1341 4750 2034 4750 
Q 2731 4750 3128 4425 
Q 3525 4100 3525 3541 
Q 3525 3141 3298 2862 
Q 3072 2584 2669 2484 
Q 3125 2378 3379 2068 
Q 3634 1759 3634 1313 
Q 3634 634 3220 271 
Q 2806 -91 2034 -91 
Q 1263 -91 848 271 
Q 434 634 434 1313 
Q 434 1759 690 2068 
Q 947 2378 1403 2484 
z
M 1172 3481 
Q 1172 3119 1398 2916 
Q 1625 2713 2034 2713 
Q 2441 2713 2670 2916 
Q 2900 3119 2900 3481 
Q 2900 3844 2670 4047 
Q 2441 4250 2034 4250 
Q 1625 4250 1398 4047 
Q 1172 3844 1172 3481 
z
" transform="scale(0.015625)"/>
      </defs>
      <use xlink:href="#DejaVuSans-38"/>
     </g>
    </g>
   </g>
   <g id="text_10">
    <g clip-path="url(#p36bfbe5e7a)">
     <!-- 9 -->
     <g transform="translate(303.385376 41.568085) scale(0.1 -0.1)">
      <defs>
       <path id="DejaVuSans-39" d="M 703 97 
L 703 672 
Q 941 559 1184 500 
Q 1428 441 1663 441 
Q 2288 441 2617 861 
Q 2947 1281 2994 2138 
Q 2813 1869 2534 1725 
Q 2256 1581 1919 1581 
Q 1219 1581 811 2004 
Q 403 2428 403 3163 
Q 403 3881 828 4315 
Q 1253 4750 1959 4750 
Q 2769 4750 3195 4129 
Q 3622 3509 3622 2328 
Q 3622 1225 3098 567 
Q 2575 -91 1691 -91 
Q 1453 -91 1209 -44 
Q 966 3 703 97 
z
M 1959 2075 
Q 2384 2075 2632 2365 
Q 2881 2656 2881 3163 
Q 2881 3666 2632 3958 
Q 2384 4250 1959 4250 
Q 1534 4250 1286 3958 
Q 1038 3666 1038 3163 
Q 1038 2656 1286 2365 
Q 1534 2075 1959 2075 
z
" transform="scale(0.015625)"/>
      </defs>
      <use xlink:href="#DejaVuSans-39"/>
     </g>
    </g>
   </g>
   <g id="text_11">
    <g clip-path="url(#p36bfbe5e7a)">
     <!-- 10 -->
     <g transform="translate(130.065837 109.930332) scale(0.1 -0.1)">
      <use xlink:href="#DejaVuSans-31"/>
      <use xlink:href="#DejaVuSans-30" x="63.623047"/>
     </g>
    </g>
   </g>
   <g id="text_12">
    <g clip-path="url(#p36bfbe5e7a)">
     <!-- 11 -->
     <g transform="translate(280.335963 96.226494) scale(0.1 -0.1)">
      <use xlink:href="#DejaVuSans-31"/>
      <use xlink:href="#DejaVuSans-31" x="63.623047"/>
     </g>
    </g>
   </g>
   <g id="text_13">
    <g clip-path="url(#p36bfbe5e7a)">
     <!-- 12 -->
     <g transform="translate(33.624277 114.574168) scale(0.1 -0.1)">
      <use xlink:href="#DejaVuSans-31"/>
      <use xlink:href="#DejaVuSans-32" x="63.623047"/>
     </g>
    </g>
   </g>
   <g id="text_14">
    <g clip-path="url(#p36bfbe5e7a)">
     <!-- 13 -->
     <g transform="translate(230.929634 308.871495) scale(0.1 -0.1)">
      <use xlink:href="#DejaVuSans-31"/>
      <use xlink:href="#DejaVuSans-33" x="63.623047"/>
     </g>
    </g>
   </g>
   <g id="text_15">
    <g clip-path="url(#p36bfbe5e7a)">
     <!-- 14 -->
     <g transform="translate(192.121153 124.111505) scale(0.1 -0.1)">
      <use xlink:href="#DejaVuSans-31"/>
      <use xlink:href="#DejaVuSans-34" x="63.623047"/>
     </g>
    </g>
   </g>
   <g id="text_16">
    <g clip-path="url(#p36bfbe5e7a)">
     <!-- 15 -->
     <g transform="translate(414.450723 236.77641) scale(0.1 -0.1)">
      <use xlink:href="#DejaVuSans-31"/>
      <use xlink:href="#DejaVuSans-35" x="63.623047"/>
     </g>
    </g>
   </g>
   <g id="text_17">
    <g clip-path="url(#p36bfbe5e7a)">
     <!-- 16 -->
     <g transform="translate(413.064346 265.543344) scale(0.1 -0.1)">
      <use xlink:href="#DejaVuSans-31"/>
      <use xlink:href="#DejaVuSans-36" x="63.623047"/>
     </g>
    </g>
   </g>
   <g id="text_18">
    <g clip-path="url(#p36bfbe5e7a)">
     <!-- 17 -->
     <g transform="translate(111.687408 217.415499) scale(0.1 -0.1)">
      <use xlink:href="#DejaVuSans-31"/>
      <use xlink:href="#DejaVuSans-37" x="63.623047"/>
     </g>
    </g>
   </g>
   <g id="text_19">
    <g clip-path="url(#p36bfbe5e7a)">
     <!-- 18 -->
     <g transform="translate(72.851961 276.824155) scale(0.1 -0.1)">
      <use xlink:href="#DejaVuSans-31"/>
      <use xlink:href="#DejaVuSans-38" x="63.623047"/>
     </g>
    </g>
   </g>
   <g id="text_20">
    <g clip-path="url(#p36bfbe5e7a)">
     <!-- 19 -->
     <g transform="translate(305.866806 197.185333) scale(0.1 -0.1)">
      <use xlink:href="#DejaVuSans-31"/>
      <use xlink:href="#DejaVuSans-39" x="63.623047"/>
     </g>
    </g>
   </g>
   <g id="text_21">
    <g clip-path="url(#p36bfbe5e7a)">
     <!-- 20 -->
     <g transform="translate(72.232893 245.952265) scale(0.1 -0.1)">
      <use xlink:href="#DejaVuSans-32"/>
      <use xlink:href="#DejaVuSans-30" x="63.623047"/>
     </g>
    </g>
   </g>
   <g id="text_22">
    <g clip-path="url(#p36bfbe5e7a)">
     <!-- 21 -->
     <g transform="translate(384.256907 296.367611) scale(0.1 -0.1)">
      <use xlink:href="#DejaVuSans-32"/>
      <use xlink:href="#DejaVuSans-31" x="63.623047"/>
     </g>
    </g>
   </g>
   <g id="text_23">
    <g clip-path="url(#p36bfbe5e7a)">
     <!-- 22 -->
     <g transform="translate(385.99722 209.016059) scale(0.1 -0.1)">
      <use xlink:href="#DejaVuSans-32"/>
      <use xlink:href="#DejaVuSans-32" x="63.623047"/>
     </g>
    </g>
   </g>
  </g>
 </g>
 <defs>
  <clipPath id="p36bfbe5e7a">
   <rect x="0" y="0" width="460.8" height="345.6"/>
  </clipPath>
 </defs>
</svg>
