<?xml version="1.0" encoding="utf-8" standalone="no"?>
<!DOCTYPE svg PUBLIC "-//W3C//DTD SVG 1.1//EN"
  "http://www.w3.org/Graphics/SVG/1.1/DTD/svg11.dtd">
<svg xmlns:xlink="http://www.w3.org/1999/xlink" width="460.8pt" height="345.6pt" viewBox="0 0 460.8 345.6" xmlns="http://www.w3.org/2000/svg" version="1.1">
 <metadata>
  <rdf:RDF xmlns:dc="http://purl.org/dc/elements/1.1/" xmlns:cc="http://creativecommons.org/ns#" xmlns:rdf="http://www.w3.org/1999/02/22-rdf-syntax-ns#">
   <cc:Work>
    <dc:type rdf:resource="http://purl.org/dc/dcmitype/StillImage"/>
    <dc:date>2024-02-07T13:47:21.896474</dc:date>
    <dc:format>image/svg+xml</dc:format>
    <dc:creator>
     <cc:Agent>
      <dc:title>Matplotlib v3.8.0, https://matplotlib.org/</dc:title>
     </cc:Agent>
    </dc:creator>
   </cc:Work>
  </rdf:RDF>
 </metadata>
 <defs>
  <style type="text/css">*{stroke-linejoin: round; stroke-linecap: butt}</style>
 </defs>
 <g id="figure_1">
  <g id="patch_1">
   <path d="M 0 345.6 
L 460.8 345.6 
L 460.8 0 
L 0 0 
z
" style="fill: #ffffff"/>
  </g>
  <g id="axes_1">
   <g id="patch_2">
    <path d="M 156.216627 222.693093 
Q 154.140193 183.431885 152.122807 145.287151 
" clip-path="url(#p4bb5002352)" style="fill: none; stroke: #000000; stroke-linecap: round"/>
    <path d="M 150.336854 149.387196 
L 152.122807 145.287151 
L 154.331271 149.17594 
z
" clip-path="url(#p4bb5002352)" style="stroke: #000000; stroke-linecap: round"/>
   </g>
   <g id="patch_3">
    <path d="M 156.247568 222.690919 
Q 154.545916 176.504449 152.885427 131.435255 
" clip-path="url(#p4bb5002352)" style="fill: none; stroke: #000000; stroke-linecap: round"/>
    <path d="M 151.034056 135.506179 
L 152.885427 131.435255 
L 155.031344 135.358907 
z
" clip-path="url(#p4bb5002352)" style="stroke: #000000; stroke-linecap: round"/>
   </g>
   <g id="patch_4">
    <path d="M 117.726855 236.624916 
Q 134.513608 190.344538 150.919133 145.115191 
" clip-path="url(#p4bb5002352)" style="fill: none; stroke: #000000; stroke-linecap: round"/>
    <path d="M 147.675069 148.19351 
L 150.919133 145.115191 
L 151.43535 149.557433 
z
" clip-path="url(#p4bb5002352)" style="stroke: #000000; stroke-linecap: round"/>
   </g>
   <g id="patch_5">
    <path d="M 117.66377 236.604099 
Q 134.919937 183.412359 151.831099 131.28409 
" clip-path="url(#p4bb5002352)" style="fill: none; stroke: #000000; stroke-linecap: round"/>
    <path d="M 148.694375 134.471716 
L 151.831099 131.28409 
L 152.499165 135.706045 
z
" clip-path="url(#p4bb5002352)" style="stroke: #000000; stroke-linecap: round"/>
   </g>
   <g id="patch_6">
    <path d="M 41.924331 142.580441 
Q 95.97421 142.413653 148.90606 142.250314 
" clip-path="url(#p4bb5002352)" style="fill: none; stroke: #000000; stroke-linecap: round"/>
    <path d="M 144.899907 140.262667 
L 148.90606 142.250314 
L 144.912251 144.262648 
z
" clip-path="url(#p4bb5002352)" style="stroke: #000000; stroke-linecap: round"/>
   </g>
   <g id="patch_7">
    <path d="M 41.910832 142.344086 
Q 96.382717 135.483353 149.745331 128.762333 
" clip-path="url(#p4bb5002352)" style="fill: none; stroke: #000000; stroke-linecap: round"/>
    <path d="M 145.52676 127.277861 
L 149.745331 128.762333 
L 146.026611 131.246507 
z
" clip-path="url(#p4bb5002352)" style="stroke: #000000; stroke-linecap: round"/>
   </g>
   <g id="patch_8">
    <path d="M 117.90158 31.843344 
Q 134.646314 86.117306 151.061441 139.322924 
" clip-path="url(#p4bb5002352)" style="fill: none; stroke: #000000; stroke-linecap: round"/>
    <path d="M 151.793311 134.91108 
L 151.061441 139.322924 
L 147.971088 136.090322 
z
" clip-path="url(#p4bb5002352)" style="stroke: #000000; stroke-linecap: round"/>
   </g>
   <g id="patch_9">
    <path d="M 117.986361 31.812693 
Q 135.051065 79.184746 151.736857 125.504931 
" clip-path="url(#p4bb5002352)" style="fill: none; stroke: #000000; stroke-linecap: round"/>
    <path d="M 152.262861 121.063836 
L 151.736857 125.504931 
L 148.499584 122.419471 
z
" clip-path="url(#p4bb5002352)" style="stroke: #000000; stroke-linecap: round"/>
   </g>
   <g id="patch_10">
    <path d="M 152.063952 144.174312 
Q 154.140386 183.43552 156.157772 221.580254 
" clip-path="url(#p4bb5002352)" style="fill: none; stroke: #000000; stroke-linecap: round"/>
    <path d="M 157.943725 217.480209 
L 156.157772 221.580254 
L 153.949308 217.691465 
z
" clip-path="url(#p4bb5002352)" style="stroke: #000000; stroke-linecap: round"/>
   </g>
   <g id="patch_11">
    <path d="M 151.300365 144.064149 
Q 134.513612 190.344527 118.108087 235.573875 
" clip-path="url(#p4bb5002352)" style="fill: none; stroke: #000000; stroke-linecap: round"/>
    <path d="M 121.352152 232.495556 
L 118.108087 235.573875 
L 117.591871 231.131632 
z
" clip-path="url(#p4bb5002352)" style="stroke: #000000; stroke-linecap: round"/>
   </g>
   <g id="patch_12">
    <path d="M 150.024143 142.246864 
Q 95.974264 142.413652 43.042414 142.576991 
" clip-path="url(#p4bb5002352)" style="fill: none; stroke: #000000; stroke-linecap: round"/>
    <path d="M 47.048567 144.564638 
L 43.042414 142.576991 
L 47.036224 140.564657 
z
" clip-path="url(#p4bb5002352)" style="stroke: #000000; stroke-linecap: round"/>
   </g>
   <g id="patch_13">
    <path d="M 151.389924 140.387623 
Q 134.64519 86.113661 118.230063 32.908043 
" clip-path="url(#p4bb5002352)" style="fill: none; stroke: #000000; stroke-linecap: round"/>
    <path d="M 117.498193 37.319887 
L 118.230063 32.908043 
L 121.320417 36.140646 
z
" clip-path="url(#p4bb5002352)" style="stroke: #000000; stroke-linecap: round"/>
   </g>
   <g id="patch_14">
    <path d="M 152.074782 140.308759 
Q 152.367341 135.310229 152.594573 131.427823 
" clip-path="url(#p4bb5002352)" style="fill: none; stroke: #000000; stroke-linecap: round"/>
    <path d="M 150.364275 135.304131 
L 152.594573 131.427823 
L 154.357441 135.537847 
z
" clip-path="url(#p4bb5002352)" style="stroke: #000000; stroke-linecap: round"/>
   </g>
   <g id="patch_15">
    <path d="M 153.897562 142.353383 
Q 219.880149 146.187799 284.746585 149.957353 
" clip-path="url(#p4bb5002352)" style="fill: none; stroke: #000000; stroke-linecap: round"/>
    <path d="M 280.869351 147.728663 
L 284.746585 149.957353 
L 280.637293 151.721926 
z
" clip-path="url(#p4bb5002352)" style="stroke: #000000; stroke-linecap: round"/>
   </g>
   <g id="patch_16">
    <path d="M 150.922984 140.603811 
Q 128.680395 105.548202 107.036795 71.436633 
" clip-path="url(#p4bb5002352)" style="fill: none; stroke: #000000; stroke-linecap: round"/>
    <path d="M 107.49105 75.885639 
L 107.036795 71.436633 
L 110.868553 73.742632 
z
" clip-path="url(#p4bb5002352)" style="stroke: #000000; stroke-linecap: round"/>
   </g>
   <g id="patch_17">
    <path d="M 153.780609 142.908282 
Q 227.793095 170.065039 300.755972 196.836673 
" clip-path="url(#p4bb5002352)" style="fill: none; stroke: #000000; stroke-linecap: round"/>
    <path d="M 297.689707 193.581213 
L 300.755972 196.836673 
L 296.311845 197.336409 
z
" clip-path="url(#p4bb5002352)" style="stroke: #000000; stroke-linecap: round"/>
   </g>
   <g id="patch_18">
    <path d="M 152.150413 140.312555 
Q 157.35774 87.103108 162.456172 35.006379 
" clip-path="url(#p4bb5002352)" style="fill: none; stroke: #000000; stroke-linecap: round"/>
    <path d="M 160.076084 38.792561 
L 162.456172 35.006379 
L 164.057065 39.182159 
z
" clip-path="url(#p4bb5002352)" style="stroke: #000000; stroke-linecap: round"/>
   </g>
   <g id="patch_19">
    <path d="M 150.125794 141.61943 
Q 110.009848 128.040152 70.952909 114.819349 
" clip-path="url(#p4bb5002352)" style="fill: none; stroke: #000000; stroke-linecap: round"/>
    <path d="M 74.100469 117.996276 
L 70.952909 114.819349 
L 75.382987 114.207457 
z
" clip-path="url(#p4bb5002352)" style="stroke: #000000; stroke-linecap: round"/>
   </g>
   <g id="patch_20">
    <path d="M 153.106078 143.807975 
Q 175.575528 174.577136 197.38562 204.443388 
" clip-path="url(#p4bb5002352)" style="fill: none; stroke: #000000; stroke-linecap: round"/>
    <path d="M 196.641803 200.033542 
L 197.38562 204.443388 
L 193.411454 202.392533 
z
" clip-path="url(#p4bb5002352)" style="stroke: #000000; stroke-linecap: round"/>
   </g>
   <g id="patch_21">
    <path d="M 152.883501 140.538284 
Q 177.51705 95.039326 201.618295 50.523553 
" clip-path="url(#p4bb5002352)" style="fill: none; stroke: #000000; stroke-linecap: round"/>
    <path d="M 197.955089 53.088884 
L 201.618295 50.523553 
L 201.472637 54.993316 
z
" clip-path="url(#p4bb5002352)" style="stroke: #000000; stroke-linecap: round"/>
   </g>
   <g id="patch_22">
    <path d="M 150.173064 142.981097 
Q 106.100048 161.220365 63.060096 179.032108 
" clip-path="url(#p4bb5002352)" style="fill: none; stroke: #000000; stroke-linecap: round"/>
    <path d="M 67.52088 179.350548 
L 63.060096 179.032108 
L 65.991318 175.654545 
z
" clip-path="url(#p4bb5002352)" style="stroke: #000000; stroke-linecap: round"/>
   </g>
   <g id="patch_23">
    <path d="M 153.538975 141.121026 
Q 186.83545 117.480693 219.220297 94.487612 
" clip-path="url(#p4bb5002352)" style="fill: none; stroke: #000000; stroke-linecap: round"/>
    <path d="M 214.800919 95.172519 
L 219.220297 94.487612 
L 217.116596 98.434058 
z
" clip-path="url(#p4bb5002352)" style="stroke: #000000; stroke-linecap: round"/>
   </g>
   <g id="patch_24">
    <path d="M 150.610725 143.631052 
Q 118.064042 177.12201 86.296543 209.811177 
" clip-path="url(#p4bb5002352)" style="fill: none; stroke: #000000; stroke-linecap: round"/>
    <path d="M 90.518531 208.336448 
L 86.296543 209.811177 
L 87.649953 205.54875 
z
" clip-path="url(#p4bb5002352)" style="stroke: #000000; stroke-linecap: round"/>
   </g>
   <g id="patch_25">
    <path d="M 150.444364 141.042078 
Q 105.668949 105.666155 61.770804 70.98334 
" clip-path="url(#p4bb5002352)" style="fill: none; stroke: #000000; stroke-linecap: round"/>
    <path d="M 63.669548 75.032386 
L 61.770804 70.98334 
L 66.149287 71.893772 
z
" clip-path="url(#p4bb5002352)" style="stroke: #000000; stroke-linecap: round"/>
   </g>
   <g id="patch_26">
    <path d="M 152.844213 130.316612 
Q 154.545866 176.503082 156.206354 221.572276 
" clip-path="url(#p4bb5002352)" style="fill: none; stroke: #000000; stroke-linecap: round"/>
    <path d="M 158.057726 217.501352 
L 156.206354 221.572276 
L 154.060438 217.648625 
z
" clip-path="url(#p4bb5002352)" style="stroke: #000000; stroke-linecap: round"/>
   </g>
   <g id="patch_27">
    <path d="M 152.174653 130.225093 
Q 134.918486 183.416833 118.007324 235.545102 
" clip-path="url(#p4bb5002352)" style="fill: none; stroke: #000000; stroke-linecap: round"/>
    <path d="M 121.144048 232.357476 
L 118.007324 235.545102 
L 117.339257 231.123147 
z
" clip-path="url(#p4bb5002352)" style="stroke: #000000; stroke-linecap: round"/>
   </g>
   <g id="patch_28">
    <path d="M 150.848844 128.623346 
Q 96.37696 135.484078 43.014345 142.205098 
" clip-path="url(#p4bb5002352)" style="fill: none; stroke: #000000; stroke-linecap: round"/>
    <path d="M 47.232916 143.68957 
L 43.014345 142.205098 
L 46.733066 139.720924 
z
" clip-path="url(#p4bb5002352)" style="stroke: #000000; stroke-linecap: round"/>
   </g>
   <g id="patch_29">
    <path d="M 152.116346 126.558401 
Q 135.051642 79.186348 118.365849 32.866163 
" clip-path="url(#p4bb5002352)" style="fill: none; stroke: #000000; stroke-linecap: round"/>
    <path d="M 117.839846 37.307257 
L 118.365849 32.866163 
L 121.603123 35.951622 
z
" clip-path="url(#p4bb5002352)" style="stroke: #000000; stroke-linecap: round"/>
   </g>
   <g id="patch_30">
    <path d="M 152.659815 130.313137 
Q 152.367256 135.311667 152.140024 139.194073 
" clip-path="url(#p4bb5002352)" style="fill: none; stroke: #000000; stroke-linecap: round"/>
    <path d="M 154.370322 135.317764 
L 152.140024 139.194073 
L 150.377156 135.084049 
z
" clip-path="url(#p4bb5002352)" style="stroke: #000000; stroke-linecap: round"/>
   </g>
   <g id="patch_31">
    <path d="M 154.680721 128.68838 
Q 220.281443 139.257327 284.778365 149.648439 
" clip-path="url(#p4bb5002352)" style="fill: none; stroke: #000000; stroke-linecap: round"/>
    <path d="M 281.147407 147.037665 
L 284.778365 149.648439 
L 280.511171 150.986741 
z
" clip-path="url(#p4bb5002352)" style="stroke: #000000; stroke-linecap: round"/>
   </g>
   <g id="patch_32">
    <path d="M 151.567182 126.866026 
Q 129.085214 98.617432 107.299466 71.24364 
" clip-path="url(#p4bb5002352)" style="fill: none; stroke: #000000; stroke-linecap: round"/>
    <path d="M 108.225448 75.618861 
L 107.299466 71.24364 
L 111.355232 73.127986 
z
" clip-path="url(#p4bb5002352)" style="stroke: #000000; stroke-linecap: round"/>
   </g>
   <g id="patch_33">
    <path d="M 154.533745 129.192363 
Q 228.198112 163.134999 300.847054 196.609753 
" clip-path="url(#p4bb5002352)" style="fill: none; stroke: #000000; stroke-linecap: round"/>
    <path d="M 298.051133 193.119363 
L 300.847054 196.609753 
L 296.377189 196.752256 
z
" clip-path="url(#p4bb5002352)" style="stroke: #000000; stroke-linecap: round"/>
   </g>
   <g id="patch_34">
    <path d="M 152.972406 126.45377 
Q 157.763512 80.171538 162.439495 35.001397 
" clip-path="url(#p4bb5002352)" style="fill: none; stroke: #000000; stroke-linecap: round"/>
    <path d="M 160.03825 38.774197 
L 162.439495 35.001397 
L 164.016988 39.186073 
z
" clip-path="url(#p4bb5002352)" style="stroke: #000000; stroke-linecap: round"/>
   </g>
   <g id="patch_35">
    <path d="M 150.86237 128.053063 
Q 110.414171 121.110004 71.06789 114.356093 
" clip-path="url(#p4bb5002352)" style="fill: none; stroke: #000000; stroke-linecap: round"/>
    <path d="M 74.671874 117.003979 
L 71.06789 114.356093 
L 75.348589 113.061638 
z
" clip-path="url(#p4bb5002352)" style="stroke: #000000; stroke-linecap: round"/>
   </g>
   <g id="patch_36">
    <path d="M 153.757388 130.046672 
Q 175.980677 167.646369 197.635088 204.283581 
" clip-path="url(#p4bb5002352)" style="fill: none; stroke: #000000; stroke-linecap: round"/>
    <path d="M 197.321559 199.822449 
L 197.635088 204.283581 
L 193.878065 201.857725 
z
" clip-path="url(#p4bb5002352)" style="stroke: #000000; stroke-linecap: round"/>
   </g>
   <g id="patch_37">
    <path d="M 153.799801 126.736669 
Q 177.921954 88.110667 201.451888 50.432967 
" clip-path="url(#p4bb5002352)" style="fill: none; stroke: #000000; stroke-linecap: round"/>
    <path d="M 197.636725 52.76632 
L 201.451888 50.432967 
L 201.029472 54.885109 
z
" clip-path="url(#p4bb5002352)" style="stroke: #000000; stroke-linecap: round"/>
   </g>
   <g id="patch_38">
    <path d="M 151.081402 129.328246 
Q 106.505022 154.290921 62.904135 178.707323 
" clip-path="url(#p4bb5002352)" style="fill: none; stroke: #000000; stroke-linecap: round"/>
    <path d="M 67.371366 178.497929 
L 62.904135 178.707323 
L 65.416958 175.007902 
z
" clip-path="url(#p4bb5002352)" style="stroke: #000000; stroke-linecap: round"/>
   </g>
   <g id="patch_39">
    <path d="M 154.493827 127.490773 
Q 187.242908 110.549624 218.998956 94.122173 
" clip-path="url(#p4bb5002352)" style="fill: none; stroke: #000000; stroke-linecap: round"/>
    <path d="M 214.527242 94.183641 
L 218.998956 94.122173 
L 216.365102 97.736425 
z
" clip-path="url(#p4bb5002352)" style="stroke: #000000; stroke-linecap: round"/>
   </g>
   <g id="patch_40">
    <path d="M 151.543941 129.878955 
Q 118.470211 170.191627 86.105626 209.639942 
" clip-path="url(#p4bb5002352)" style="fill: none; stroke: #000000; stroke-linecap: round"/>
    <path d="M 90.188949 207.816079 
L 86.105626 209.639942 
L 87.09653 205.278966 
z
" clip-path="url(#p4bb5002352)" style="stroke: #000000; stroke-linecap: round"/>
   </g>
   <g id="patch_41">
    <path d="M 151.13966 127.344199 
Q 106.07281 98.734886 61.949861 70.724779 
" clip-path="url(#p4bb5002352)" style="fill: none; stroke: #000000; stroke-linecap: round"/>
    <path d="M 64.254972 74.557071 
L 61.949861 70.724779 
L 66.398761 71.180066 
z
" clip-path="url(#p4bb5002352)" style="stroke: #000000; stroke-linecap: round"/>
   </g>
   <g id="patch_42">
    <path d="M 285.859664 150.022037 
Q 219.877077 146.187621 155.010641 142.418067 
" clip-path="url(#p4bb5002352)" style="fill: none; stroke: #000000; stroke-linecap: round"/>
    <path d="M 158.887874 144.646757 
L 155.010641 142.418067 
L 159.119933 140.653494 
z
" clip-path="url(#p4bb5002352)" style="stroke: #000000; stroke-linecap: round"/>
   </g>
   <g id="patch_43">
    <path d="M 285.887707 149.827165 
Q 220.286985 139.258219 155.790063 128.867107 
" clip-path="url(#p4bb5002352)" style="fill: none; stroke: #000000; stroke-linecap: round"/>
    <path d="M 159.421021 131.477881 
L 155.790063 128.867107 
L 160.057257 127.528805 
z
" clip-path="url(#p4bb5002352)" style="stroke: #000000; stroke-linecap: round"/>
   </g>
   <g id="patch_44">
    <path d="M 289.311173 151.34688 
Q 316.341592 172.968171 342.498926 193.891091 
" clip-path="url(#p4bb5002352)" style="fill: none; stroke: #000000; stroke-linecap: round"/>
    <path d="M 340.624561 189.830702 
L 342.498926 193.891091 
L 338.125996 192.954349 
z
" clip-path="url(#p4bb5002352)" style="stroke: #000000; stroke-linecap: round"/>
   </g>
   <g id="patch_45">
    <path d="M 289.311173 151.34688 
Q 316.341592 172.968171 342.498926 193.891091 
" clip-path="url(#p4bb5002352)" style="fill: none; stroke: #000000; stroke-linecap: round"/>
    <path d="M 340.624561 189.830702 
L 342.498926 193.891091 
L 338.125996 192.954349 
z
" clip-path="url(#p4bb5002352)" style="stroke: #000000; stroke-linecap: round"/>
   </g>
   <g id="patch_46">
    <path d="M 289.614354 149.472545 
Q 330.795122 134.484158 370.92528 119.878156 
" clip-path="url(#p4bb5002352)" style="fill: none; stroke: #000000; stroke-linecap: round"/>
    <path d="M 366.482472 119.366834 
L 370.92528 119.878156 
L 367.850537 123.12561 
z
" clip-path="url(#p4bb5002352)" style="stroke: #000000; stroke-linecap: round"/>
   </g>
   <g id="patch_47">
    <path d="M 289.691428 150.517027 
Q 340.352813 160.737819 389.918245 170.737505 
" clip-path="url(#p4bb5002352)" style="fill: none; stroke: #000000; stroke-linecap: round"/>
    <path d="M 386.39277 167.985954 
L 389.918245 170.737505 
L 385.60172 171.906954 
z
" clip-path="url(#p4bb5002352)" style="stroke: #000000; stroke-linecap: round"/>
   </g>
   <g id="patch_48">
    <path d="M 288.405016 151.973669 
Q 295.708841 174.013005 302.66096 194.991066 
" clip-path="url(#p4bb5002352)" style="fill: none; stroke: #000000; stroke-linecap: round"/>
    <path d="M 303.301124 190.564986 
L 302.66096 194.991066 
L 299.504194 191.823286 
z
" clip-path="url(#p4bb5002352)" style="stroke: #000000; stroke-linecap: round"/>
   </g>
   <g id="patch_49">
    <path d="M 359.15762 313.860326 
Q 331.807074 256.746525 304.939416 200.6411 
" clip-path="url(#p4bb5002352)" style="fill: none; stroke: #000000; stroke-linecap: round"/>
    <path d="M 304.863215 205.112586 
L 304.939416 200.6411 
L 308.470884 203.384953 
z
" clip-path="url(#p4bb5002352)" style="stroke: #000000; stroke-linecap: round"/>
   </g>
   <g id="patch_50">
    <path d="M 419.121575 261.927011 
Q 362.218986 230.377469 306.294194 199.370066 
" clip-path="url(#p4bb5002352)" style="fill: none; stroke: #000000; stroke-linecap: round"/>
    <path d="M 308.822661 203.058813 
L 306.294194 199.370066 
L 310.762272 199.560541 
z
" clip-path="url(#p4bb5002352)" style="stroke: #000000; stroke-linecap: round"/>
   </g>
   <g id="patch_51">
    <path d="M 343.365688 194.584403 
Q 316.335269 172.963113 290.177935 152.040192 
" clip-path="url(#p4bb5002352)" style="fill: none; stroke: #000000; stroke-linecap: round"/>
    <path d="M 292.052299 156.100581 
L 290.177935 152.040192 
L 294.550865 152.976935 
z
" clip-path="url(#p4bb5002352)" style="stroke: #000000; stroke-linecap: round"/>
   </g>
   <g id="patch_52">
    <path d="M 343.365688 194.584403 
Q 316.335269 172.963113 290.177935 152.040192 
" clip-path="url(#p4bb5002352)" style="fill: none; stroke: #000000; stroke-linecap: round"/>
    <path d="M 292.052299 156.100581 
L 290.177935 152.040192 
L 294.550865 152.976935 
z
" clip-path="url(#p4bb5002352)" style="stroke: #000000; stroke-linecap: round"/>
   </g>
   <g id="patch_53">
    <path d="M 342.949771 195.894644 
Q 324.252748 196.842244 306.672324 197.733253 
" clip-path="url(#p4bb5002352)" style="fill: none; stroke: #000000; stroke-linecap: round"/>
    <path d="M 310.768431 199.528221 
L 306.672324 197.733253 
L 310.565963 195.533349 
z
" clip-path="url(#p4bb5002352)" style="stroke: #000000; stroke-linecap: round"/>
   </g>
   <g id="patch_54">
    <path d="M 342.949771 195.894644 
Q 324.252748 196.842244 306.672324 197.733253 
" clip-path="url(#p4bb5002352)" style="fill: none; stroke: #000000; stroke-linecap: round"/>
    <path d="M 310.768431 199.528221 
L 306.672324 197.733253 
L 310.565963 195.533349 
z
" clip-path="url(#p4bb5002352)" style="stroke: #000000; stroke-linecap: round"/>
   </g>
   <g id="patch_55">
    <path d="M 342.949771 195.894644 
Q 324.252748 196.842244 306.672324 197.733253 
" clip-path="url(#p4bb5002352)" style="fill: none; stroke: #000000; stroke-linecap: round"/>
    <path d="M 310.768431 199.528221 
L 306.672324 197.733253 
L 310.565963 195.533349 
z
" clip-path="url(#p4bb5002352)" style="stroke: #000000; stroke-linecap: round"/>
   </g>
   <g id="patch_56">
    <path d="M 371.978529 119.49481 
Q 330.797761 134.483197 290.667603 149.089198 
" clip-path="url(#p4bb5002352)" style="fill: none; stroke: #000000; stroke-linecap: round"/>
    <path d="M 295.110411 149.600521 
L 290.667603 149.089198 
L 293.742346 145.841745 
z
" clip-path="url(#p4bb5002352)" style="stroke: #000000; stroke-linecap: round"/>
   </g>
   <g id="patch_57">
    <path d="M 372.510245 120.282774 
Q 338.70787 158.361816 305.647716 195.60473 
" clip-path="url(#p4bb5002352)" style="fill: none; stroke: #000000; stroke-linecap: round"/>
    <path d="M 309.798876 193.941038 
L 305.647716 195.60473 
L 306.807458 191.285587 
z
" clip-path="url(#p4bb5002352)" style="stroke: #000000; stroke-linecap: round"/>
   </g>
   <g id="patch_58">
    <path d="M 391.017804 170.959338 
Q 340.35642 160.738546 290.790988 150.73886 
" clip-path="url(#p4bb5002352)" style="fill: none; stroke: #000000; stroke-linecap: round"/>
    <path d="M 294.316462 153.490411 
L 290.790988 150.73886 
L 295.107513 149.569411 
z
" clip-path="url(#p4bb5002352)" style="stroke: #000000; stroke-linecap: round"/>
   </g>
   <g id="patch_59">
    <path d="M 391.05798 171.893523 
Q 348.266732 184.615045 306.547161 197.017966 
" clip-path="url(#p4bb5002352)" style="fill: none; stroke: #000000; stroke-linecap: round"/>
    <path d="M 310.951244 197.795176 
L 306.547161 197.017966 
L 309.811379 193.961026 
z
" clip-path="url(#p4bb5002352)" style="stroke: #000000; stroke-linecap: round"/>
   </g>
   <g id="patch_60">
    <path d="M 106.438751 70.49408 
Q 128.681339 105.54969 150.324939 139.661259 
" clip-path="url(#p4bb5002352)" style="fill: none; stroke: #000000; stroke-linecap: round"/>
    <path d="M 149.870684 135.212253 
L 150.324939 139.661259 
L 146.493181 137.355259 
z
" clip-path="url(#p4bb5002352)" style="stroke: #000000; stroke-linecap: round"/>
   </g>
   <g id="patch_61">
    <path d="M 106.605755 70.371992 
Q 129.087723 98.620585 150.87347 125.994378 
" clip-path="url(#p4bb5002352)" style="fill: none; stroke: #000000; stroke-linecap: round"/>
    <path d="M 149.947488 121.619157 
L 150.87347 125.994378 
L 146.817704 124.110032 
z
" clip-path="url(#p4bb5002352)" style="stroke: #000000; stroke-linecap: round"/>
   </g>
   <g id="patch_62">
    <path d="M 301.802058 197.220504 
Q 227.789571 170.063746 154.826694 143.292113 
" clip-path="url(#p4bb5002352)" style="fill: none; stroke: #000000; stroke-linecap: round"/>
    <path d="M 157.89296 146.547573 
L 154.826694 143.292113 
L 159.270821 142.792376 
z
" clip-path="url(#p4bb5002352)" style="stroke: #000000; stroke-linecap: round"/>
   </g>
   <g id="patch_63">
    <path d="M 301.860124 197.076549 
Q 228.195757 163.133913 155.546815 129.659159 
" clip-path="url(#p4bb5002352)" style="fill: none; stroke: #000000; stroke-linecap: round"/>
    <path d="M 158.342736 133.149549 
L 155.546815 129.659159 
L 160.01668 129.516656 
z
" clip-path="url(#p4bb5002352)" style="stroke: #000000; stroke-linecap: round"/>
   </g>
   <g id="patch_64">
    <path d="M 303.011481 196.048767 
Q 295.707657 174.009431 288.755538 153.03137 
" clip-path="url(#p4bb5002352)" style="fill: none; stroke: #000000; stroke-linecap: round"/>
    <path d="M 288.115373 157.45745 
L 288.755538 153.03137 
L 291.912304 156.199149 
z
" clip-path="url(#p4bb5002352)" style="stroke: #000000; stroke-linecap: round"/>
   </g>
   <g id="patch_65">
    <path d="M 304.45881 199.637493 
Q 331.809356 256.751293 358.677014 312.856719 
" clip-path="url(#p4bb5002352)" style="fill: none; stroke: #000000; stroke-linecap: round"/>
    <path d="M 358.753215 308.385232 
L 358.677014 312.856719 
L 355.145546 310.112866 
z
" clip-path="url(#p4bb5002352)" style="stroke: #000000; stroke-linecap: round"/>
   </g>
   <g id="patch_66">
    <path d="M 305.312618 198.825833 
Q 362.215206 230.375374 418.139998 261.382777 
" clip-path="url(#p4bb5002352)" style="fill: none; stroke: #000000; stroke-linecap: round"/>
    <path d="M 415.611531 257.69403 
L 418.139998 261.382777 
L 413.67192 261.192302 
z
" clip-path="url(#p4bb5002352)" style="stroke: #000000; stroke-linecap: round"/>
   </g>
   <g id="patch_67">
    <path d="M 305.55253 197.790006 
Q 324.249554 196.842406 341.829978 195.951397 
" clip-path="url(#p4bb5002352)" style="fill: none; stroke: #000000; stroke-linecap: round"/>
    <path d="M 337.733871 194.156428 
L 341.829978 195.951397 
L 337.936339 198.151301 
z
" clip-path="url(#p4bb5002352)" style="stroke: #000000; stroke-linecap: round"/>
   </g>
   <g id="patch_68">
    <path d="M 305.55253 197.790006 
Q 324.249554 196.842406 341.829978 195.951397 
" clip-path="url(#p4bb5002352)" style="fill: none; stroke: #000000; stroke-linecap: round"/>
    <path d="M 337.733871 194.156428 
L 341.829978 195.951397 
L 337.936339 198.151301 
z
" clip-path="url(#p4bb5002352)" style="stroke: #000000; stroke-linecap: round"/>
   </g>
   <g id="patch_69">
    <path d="M 305.55253 197.790006 
Q 324.249554 196.842406 341.829978 195.951397 
" clip-path="url(#p4bb5002352)" style="fill: none; stroke: #000000; stroke-linecap: round"/>
    <path d="M 337.733871 194.156428 
L 341.829978 195.951397 
L 337.936339 198.151301 
z
" clip-path="url(#p4bb5002352)" style="stroke: #000000; stroke-linecap: round"/>
   </g>
   <g id="patch_70">
    <path d="M 304.908079 196.437947 
Q 338.710454 158.358905 371.770608 121.11599 
" clip-path="url(#p4bb5002352)" style="fill: none; stroke: #000000; stroke-linecap: round"/>
    <path d="M 367.619448 122.779682 
L 371.770608 121.11599 
L 370.610866 125.435133 
z
" clip-path="url(#p4bb5002352)" style="stroke: #000000; stroke-linecap: round"/>
   </g>
   <g id="patch_71">
    <path d="M 305.476693 197.336208 
Q 348.267941 184.614686 389.987512 172.211765 
" clip-path="url(#p4bb5002352)" style="fill: none; stroke: #000000; stroke-linecap: round"/>
    <path d="M 385.583429 171.434555 
L 389.987512 172.211765 
L 386.723294 175.268705 
z
" clip-path="url(#p4bb5002352)" style="stroke: #000000; stroke-linecap: round"/>
   </g>
   <g id="patch_72">
    <path d="M 162.565004 33.894316 
Q 157.357676 87.103763 152.259245 139.200492 
" clip-path="url(#p4bb5002352)" style="fill: none; stroke: #000000; stroke-linecap: round"/>
    <path d="M 154.639333 135.414309 
L 152.259245 139.200492 
L 150.658351 135.024711 
z
" clip-path="url(#p4bb5002352)" style="stroke: #000000; stroke-linecap: round"/>
   </g>
   <g id="patch_73">
    <path d="M 162.554212 33.893227 
Q 157.763106 80.175459 153.087123 125.3456 
" clip-path="url(#p4bb5002352)" style="fill: none; stroke: #000000; stroke-linecap: round"/>
    <path d="M 155.488369 121.5728 
L 153.087123 125.3456 
L 151.509631 121.160923 
z
" clip-path="url(#p4bb5002352)" style="stroke: #000000; stroke-linecap: round"/>
   </g>
   <g id="patch_74">
    <path d="M 69.894001 114.460908 
Q 110.009947 128.040186 149.066886 141.260989 
" clip-path="url(#p4bb5002352)" style="fill: none; stroke: #000000; stroke-linecap: round"/>
    <path d="M 145.919327 138.084062 
L 149.066886 141.260989 
L 144.636809 141.87288 
z
" clip-path="url(#p4bb5002352)" style="stroke: #000000; stroke-linecap: round"/>
   </g>
   <g id="patch_75">
    <path d="M 69.968628 114.167402 
Q 110.416826 121.11046 149.763107 127.864371 
" clip-path="url(#p4bb5002352)" style="fill: none; stroke: #000000; stroke-linecap: round"/>
    <path d="M 146.159123 125.216485 
L 149.763107 127.864371 
L 145.482408 129.158826 
z
" clip-path="url(#p4bb5002352)" style="stroke: #000000; stroke-linecap: round"/>
   </g>
   <g id="patch_76">
    <path d="M 198.045376 205.346843 
Q 175.575926 174.577681 153.765834 144.711429 
" clip-path="url(#p4bb5002352)" style="fill: none; stroke: #000000; stroke-linecap: round"/>
    <path d="M 154.509651 149.121275 
L 153.765834 144.711429 
L 157.74 146.762284 
z
" clip-path="url(#p4bb5002352)" style="stroke: #000000; stroke-linecap: round"/>
   </g>
   <g id="patch_77">
    <path d="M 198.205268 205.248271 
Q 175.98198 167.648574 154.327568 131.011362 
" clip-path="url(#p4bb5002352)" style="fill: none; stroke: #000000; stroke-linecap: round"/>
    <path d="M 154.641097 135.472495 
L 154.327568 131.011362 
L 158.084591 133.437219 
z
" clip-path="url(#p4bb5002352)" style="stroke: #000000; stroke-linecap: round"/>
   </g>
   <g id="patch_78">
    <path d="M 202.14929 49.542787 
Q 177.515741 95.041745 153.414496 139.557519 
" clip-path="url(#p4bb5002352)" style="fill: none; stroke: #000000; stroke-linecap: round"/>
    <path d="M 157.077702 136.992187 
L 153.414496 139.557519 
L 153.560155 135.087755 
z
" clip-path="url(#p4bb5002352)" style="stroke: #000000; stroke-linecap: round"/>
   </g>
   <g id="patch_79">
    <path d="M 202.044193 49.484529 
Q 177.922039 88.11053 154.392106 125.78823 
" clip-path="url(#p4bb5002352)" style="fill: none; stroke: #000000; stroke-linecap: round"/>
    <path d="M 158.207269 123.454878 
L 154.392106 125.78823 
L 154.814522 121.336089 
z
" clip-path="url(#p4bb5002352)" style="stroke: #000000; stroke-linecap: round"/>
   </g>
   <g id="patch_80">
    <path d="M 62.028977 179.458829 
Q 106.101993 161.21956 149.141945 143.407817 
" clip-path="url(#p4bb5002352)" style="fill: none; stroke: #000000; stroke-linecap: round"/>
    <path d="M 144.68116 143.089377 
L 149.141945 143.407817 
L 146.210722 146.78538 
z
" clip-path="url(#p4bb5002352)" style="stroke: #000000; stroke-linecap: round"/>
   </g>
   <g id="patch_81">
    <path d="M 61.931841 179.251806 
Q 106.50822 154.28913 150.109108 129.872729 
" clip-path="url(#p4bb5002352)" style="fill: none; stroke: #000000; stroke-linecap: round"/>
    <path d="M 145.641877 130.082123 
L 150.109108 129.872729 
L 147.596284 133.57215 
z
" clip-path="url(#p4bb5002352)" style="stroke: #000000; stroke-linecap: round"/>
   </g>
   <g id="patch_82">
    <path d="M 220.133705 93.839096 
Q 186.83723 117.479429 154.452383 140.47251 
" clip-path="url(#p4bb5002352)" style="fill: none; stroke: #000000; stroke-linecap: round"/>
    <path d="M 158.871761 139.787603 
L 154.452383 140.47251 
L 156.556084 136.526064 
z
" clip-path="url(#p4bb5002352)" style="stroke: #000000; stroke-linecap: round"/>
   </g>
   <g id="patch_83">
    <path d="M 219.990055 93.609476 
Q 187.240974 110.550624 155.484926 126.978076 
" clip-path="url(#p4bb5002352)" style="fill: none; stroke: #000000; stroke-linecap: round"/>
    <path d="M 159.95664 126.916607 
L 155.484926 126.978076 
L 158.11878 123.363824 
z
" clip-path="url(#p4bb5002352)" style="stroke: #000000; stroke-linecap: round"/>
   </g>
   <g id="patch_84">
    <path d="M 85.519949 210.610303 
Q 118.066632 177.119345 149.83413 144.430178 
" clip-path="url(#p4bb5002352)" style="fill: none; stroke: #000000; stroke-linecap: round"/>
    <path d="M 145.612143 145.904907 
L 149.83413 144.430178 
L 148.480721 148.692605 
z
" clip-path="url(#p4bb5002352)" style="stroke: #000000; stroke-linecap: round"/>
   </g>
   <g id="patch_85">
    <path d="M 85.397935 210.502526 
Q 118.471665 170.189854 150.836251 130.74154 
" clip-path="url(#p4bb5002352)" style="fill: none; stroke: #000000; stroke-linecap: round"/>
    <path d="M 146.752928 132.565402 
L 150.836251 130.74154 
L 149.845347 135.102515 
z
" clip-path="url(#p4bb5002352)" style="stroke: #000000; stroke-linecap: round"/>
   </g>
   <g id="patch_86">
    <path d="M 60.890608 70.287919 
Q 105.666023 105.663842 149.564168 140.346657 
" clip-path="url(#p4bb5002352)" style="fill: none; stroke: #000000; stroke-linecap: round"/>
    <path d="M 147.665424 136.297612 
L 149.564168 140.346657 
L 145.185685 139.436225 
z
" clip-path="url(#p4bb5002352)" style="stroke: #000000; stroke-linecap: round"/>
   </g>
   <g id="patch_87">
    <path d="M 61.006514 70.125924 
Q 106.073365 98.735238 150.196313 126.745344 
" clip-path="url(#p4bb5002352)" style="fill: none; stroke: #000000; stroke-linecap: round"/>
    <path d="M 147.891202 122.913052 
L 150.196313 126.745344 
L 145.747413 126.290058 
z
" clip-path="url(#p4bb5002352)" style="stroke: #000000; stroke-linecap: round"/>
   </g>
   <g id="PathCollection_1">
    <defs>
     <path id="mb5c495f2ef" d="M 0 1.936492 
C 0.513564 1.936492 1.006162 1.732451 1.369306 1.369306 
C 1.732451 1.006162 1.936492 0.513564 1.936492 0 
C 1.936492 -0.513564 1.732451 -1.006162 1.369306 -1.369306 
C 1.006162 -1.732451 0.513564 -1.936492 0 -1.936492 
C -0.513564 -1.936492 -1.006162 -1.732451 -1.369306 -1.369306 
C -1.732451 -1.006162 -1.936492 -0.513564 -1.936492 0 
C -1.936492 0.513564 -1.732451 1.006162 -1.369306 1.369306 
C -1.006162 1.732451 -0.513564 1.936492 0 1.936492 
z
" style="stroke: #1f78b4"/>
    </defs>
    <g clip-path="url(#p4bb5002352)">
     <use xlink:href="#mb5c495f2ef" x="156.318882" y="224.62652" style="fill: #1f78b4; stroke: #1f78b4"/>
     <use xlink:href="#mb5c495f2ef" x="117.065523" y="238.448181" style="fill: #1f78b4; stroke: #1f78b4"/>
     <use xlink:href="#mb5c495f2ef" x="39.986777" y="142.58642" style="fill: #1f78b4; stroke: #1f78b4"/>
     <use xlink:href="#mb5c495f2ef" x="117.329807" y="29.990083" style="fill: #1f78b4; stroke: #1f78b4"/>
     <use xlink:href="#mb5c495f2ef" x="151.961697" y="142.240885" style="fill: #1f78b4; stroke: #1f78b4"/>
     <use xlink:href="#mb5c495f2ef" x="152.7729" y="128.381011" style="fill: #1f78b4; stroke: #1f78b4"/>
     <use xlink:href="#mb5c495f2ef" x="287.795528" y="150.134535" style="fill: #1f78b4; stroke: #1f78b4"/>
     <use xlink:href="#mb5c495f2ef" x="359.995461" y="315.609917" style="fill: #1f78b4; stroke: #1f78b4"/>
     <use xlink:href="#mb5c495f2ef" x="420.813223" y="262.864942" style="fill: #1f78b4; stroke: #1f78b4"/>
     <use xlink:href="#mb5c495f2ef" x="344.881333" y="195.796748" style="fill: #1f78b4; stroke: #1f78b4"/>
     <use xlink:href="#mb5c495f2ef" x="373.797355" y="118.83282" style="fill: #1f78b4; stroke: #1f78b4"/>
     <use xlink:href="#mb5c495f2ef" x="392.913704" y="171.34183" style="fill: #1f78b4; stroke: #1f78b4"/>
     <use xlink:href="#mb5c495f2ef" x="105.400037" y="68.857007" style="fill: #1f78b4; stroke: #1f78b4"/>
     <use xlink:href="#mb5c495f2ef" x="303.620969" y="197.887901" style="fill: #1f78b4; stroke: #1f78b4"/>
     <use xlink:href="#mb5c495f2ef" x="162.753719" y="31.965986" style="fill: #1f78b4; stroke: #1f78b4"/>
     <use xlink:href="#mb5c495f2ef" x="68.058098" y="113.839453" style="fill: #1f78b4; stroke: #1f78b4"/>
     <use xlink:href="#mb5c495f2ef" x="199.189757" y="206.913932" style="fill: #1f78b4; stroke: #1f78b4"/>
     <use xlink:href="#mb5c495f2ef" x="203.071094" y="47.840187" style="fill: #1f78b4; stroke: #1f78b4"/>
     <use xlink:href="#mb5c495f2ef" x="60.240343" y="180.199041" style="fill: #1f78b4; stroke: #1f78b4"/>
     <use xlink:href="#mb5c495f2ef" x="221.710982" y="92.719237" style="fill: #1f78b4; stroke: #1f78b4"/>
     <use xlink:href="#mb5c495f2ef" x="84.168977" y="212.00047" style="fill: #1f78b4; stroke: #1f78b4"/>
     <use xlink:href="#mb5c495f2ef" x="59.373275" y="69.089112" style="fill: #1f78b4; stroke: #1f78b4"/>
    </g>
   </g>
   <g id="text_1">
    <g clip-path="url(#p4bb5002352)">
     <!-- 0 -->
     <g transform="translate(153.137632 227.385895) scale(0.1 -0.1)">
      <defs>
       <path id="DejaVuSans-30" d="M 2034 4250 
Q 1547 4250 1301 3770 
Q 1056 3291 1056 2328 
Q 1056 1369 1301 889 
Q 1547 409 2034 409 
Q 2525 409 2770 889 
Q 3016 1369 3016 2328 
Q 3016 3291 2770 3770 
Q 2525 4250 2034 4250 
z
M 2034 4750 
Q 2819 4750 3233 4129 
Q 3647 3509 3647 2328 
Q 3647 1150 3233 529 
Q 2819 -91 2034 -91 
Q 1250 -91 836 529 
Q 422 1150 422 2328 
Q 422 3509 836 4129 
Q 1250 4750 2034 4750 
z
" transform="scale(0.015625)"/>
      </defs>
      <use xlink:href="#DejaVuSans-30"/>
     </g>
    </g>
   </g>
   <g id="text_2">
    <g clip-path="url(#p4bb5002352)">
     <!-- 1 -->
     <g transform="translate(113.884273 241.207556) scale(0.1 -0.1)">
      <defs>
       <path id="DejaVuSans-31" d="M 794 531 
L 1825 531 
L 1825 4091 
L 703 3866 
L 703 4441 
L 1819 4666 
L 2450 4666 
L 2450 531 
L 3481 531 
L 3481 0 
L 794 0 
L 794 531 
z
" transform="scale(0.015625)"/>
      </defs>
      <use xlink:href="#DejaVuSans-31"/>
     </g>
    </g>
   </g>
   <g id="text_3">
    <g clip-path="url(#p4bb5002352)">
     <!-- 2 -->
     <g transform="translate(36.805527 145.345795) scale(0.1 -0.1)">
      <defs>
       <path id="DejaVuSans-32" d="M 1228 531 
L 3431 531 
L 3431 0 
L 469 0 
L 469 531 
Q 828 903 1448 1529 
Q 2069 2156 2228 2338 
Q 2531 2678 2651 2914 
Q 2772 3150 2772 3378 
Q 2772 3750 2511 3984 
Q 2250 4219 1831 4219 
Q 1534 4219 1204 4116 
Q 875 4013 500 3803 
L 500 4441 
Q 881 4594 1212 4672 
Q 1544 4750 1819 4750 
Q 2544 4750 2975 4387 
Q 3406 4025 3406 3419 
Q 3406 3131 3298 2873 
Q 3191 2616 2906 2266 
Q 2828 2175 2409 1742 
Q 1991 1309 1228 531 
z
" transform="scale(0.015625)"/>
      </defs>
      <use xlink:href="#DejaVuSans-32"/>
     </g>
    </g>
   </g>
   <g id="text_4">
    <g clip-path="url(#p4bb5002352)">
     <!-- 3 -->
     <g transform="translate(114.148557 32.749458) scale(0.1 -0.1)">
      <defs>
       <path id="DejaVuSans-33" d="M 2597 2516 
Q 3050 2419 3304 2112 
Q 3559 1806 3559 1356 
Q 3559 666 3084 287 
Q 2609 -91 1734 -91 
Q 1441 -91 1130 -33 
Q 819 25 488 141 
L 488 750 
Q 750 597 1062 519 
Q 1375 441 1716 441 
Q 2309 441 2620 675 
Q 2931 909 2931 1356 
Q 2931 1769 2642 2001 
Q 2353 2234 1838 2234 
L 1294 2234 
L 1294 2753 
L 1863 2753 
Q 2328 2753 2575 2939 
Q 2822 3125 2822 3475 
Q 2822 3834 2567 4026 
Q 2313 4219 1838 4219 
Q 1578 4219 1281 4162 
Q 984 4106 628 3988 
L 628 4550 
Q 988 4650 1302 4700 
Q 1616 4750 1894 4750 
Q 2613 4750 3031 4423 
Q 3450 4097 3450 3541 
Q 3450 3153 3228 2886 
Q 3006 2619 2597 2516 
z
" transform="scale(0.015625)"/>
      </defs>
      <use xlink:href="#DejaVuSans-33"/>
     </g>
    </g>
   </g>
   <g id="text_5">
    <g clip-path="url(#p4bb5002352)">
     <!-- 4 -->
     <g transform="translate(148.780447 145.00026) scale(0.1 -0.1)">
      <defs>
       <path id="DejaVuSans-34" d="M 2419 4116 
L 825 1625 
L 2419 1625 
L 2419 4116 
z
M 2253 4666 
L 3047 4666 
L 3047 1625 
L 3713 1625 
L 3713 1100 
L 3047 1100 
L 3047 0 
L 2419 0 
L 2419 1100 
L 313 1100 
L 313 1709 
L 2253 4666 
z
" transform="scale(0.015625)"/>
      </defs>
      <use xlink:href="#DejaVuSans-34"/>
     </g>
    </g>
   </g>
   <g id="text_6">
    <g clip-path="url(#p4bb5002352)">
     <!-- 6 -->
     <g transform="translate(149.59165 131.140386) scale(0.1 -0.1)">
      <defs>
       <path id="DejaVuSans-36" d="M 2113 2584 
Q 1688 2584 1439 2293 
Q 1191 2003 1191 1497 
Q 1191 994 1439 701 
Q 1688 409 2113 409 
Q 2538 409 2786 701 
Q 3034 994 3034 1497 
Q 3034 2003 2786 2293 
Q 2538 2584 2113 2584 
z
M 3366 4563 
L 3366 3988 
Q 3128 4100 2886 4159 
Q 2644 4219 2406 4219 
Q 1781 4219 1451 3797 
Q 1122 3375 1075 2522 
Q 1259 2794 1537 2939 
Q 1816 3084 2150 3084 
Q 2853 3084 3261 2657 
Q 3669 2231 3669 1497 
Q 3669 778 3244 343 
Q 2819 -91 2113 -91 
Q 1303 -91 875 529 
Q 447 1150 447 2328 
Q 447 3434 972 4092 
Q 1497 4750 2381 4750 
Q 2619 4750 2861 4703 
Q 3103 4656 3366 4563 
z
" transform="scale(0.015625)"/>
      </defs>
      <use xlink:href="#DejaVuSans-36"/>
     </g>
    </g>
   </g>
   <g id="text_7">
    <g clip-path="url(#p4bb5002352)">
     <!-- 7 -->
     <g transform="translate(284.614278 152.89391) scale(0.1 -0.1)">
      <defs>
       <path id="DejaVuSans-37" d="M 525 4666 
L 3525 4666 
L 3525 4397 
L 1831 0 
L 1172 0 
L 2766 4134 
L 525 4134 
L 525 4666 
z
" transform="scale(0.015625)"/>
      </defs>
      <use xlink:href="#DejaVuSans-37"/>
     </g>
    </g>
   </g>
   <g id="text_8">
    <g clip-path="url(#p4bb5002352)">
     <!-- 8 -->
     <g transform="translate(356.814211 318.369292) scale(0.1 -0.1)">
      <defs>
       <path id="DejaVuSans-38" d="M 2034 2216 
Q 1584 2216 1326 1975 
Q 1069 1734 1069 1313 
Q 1069 891 1326 650 
Q 1584 409 2034 409 
Q 2484 409 2743 651 
Q 3003 894 3003 1313 
Q 3003 1734 2745 1975 
Q 2488 2216 2034 2216 
z
M 1403 2484 
Q 997 2584 770 2862 
Q 544 3141 544 3541 
Q 544 4100 942 4425 
Q 1341 4750 2034 4750 
Q 2731 4750 3128 4425 
Q 3525 4100 3525 3541 
Q 3525 3141 3298 2862 
Q 3072 2584 2669 2484 
Q 3125 2378 3379 2068 
Q 3634 1759 3634 1313 
Q 3634 634 3220 271 
Q 2806 -91 2034 -91 
Q 1263 -91 848 271 
Q 434 634 434 1313 
Q 434 1759 690 2068 
Q 947 2378 1403 2484 
z
M 1172 3481 
Q 1172 3119 1398 2916 
Q 1625 2713 2034 2713 
Q 2441 2713 2670 2916 
Q 2900 3119 2900 3481 
Q 2900 3844 2670 4047 
Q 2441 4250 2034 4250 
Q 1625 4250 1398 4047 
Q 1172 3844 1172 3481 
z
" transform="scale(0.015625)"/>
      </defs>
      <use xlink:href="#DejaVuSans-38"/>
     </g>
    </g>
   </g>
   <g id="text_9">
    <g clip-path="url(#p4bb5002352)">
     <!-- 9 -->
     <g transform="translate(417.631973 265.624317) scale(0.1 -0.1)">
      <defs>
       <path id="DejaVuSans-39" d="M 703 97 
L 703 672 
Q 941 559 1184 500 
Q 1428 441 1663 441 
Q 2288 441 2617 861 
Q 2947 1281 2994 2138 
Q 2813 1869 2534 1725 
Q 2256 1581 1919 1581 
Q 1219 1581 811 2004 
Q 403 2428 403 3163 
Q 403 3881 828 4315 
Q 1253 4750 1959 4750 
Q 2769 4750 3195 4129 
Q 3622 3509 3622 2328 
Q 3622 1225 3098 567 
Q 2575 -91 1691 -91 
Q 1453 -91 1209 -44 
Q 966 3 703 97 
z
M 1959 2075 
Q 2384 2075 2632 2365 
Q 2881 2656 2881 3163 
Q 2881 3666 2632 3958 
Q 2384 4250 1959 4250 
Q 1534 4250 1286 3958 
Q 1038 3666 1038 3163 
Q 1038 2656 1286 2365 
Q 1534 2075 1959 2075 
z
" transform="scale(0.015625)"/>
      </defs>
      <use xlink:href="#DejaVuSans-39"/>
     </g>
    </g>
   </g>
   <g id="text_10">
    <g clip-path="url(#p4bb5002352)">
     <!-- 10 -->
     <g transform="translate(338.518833 198.556123) scale(0.1 -0.1)">
      <use xlink:href="#DejaVuSans-31"/>
      <use xlink:href="#DejaVuSans-30" x="63.623047"/>
     </g>
    </g>
   </g>
   <g id="text_11">
    <g clip-path="url(#p4bb5002352)">
     <!-- 11 -->
     <g transform="translate(367.434855 121.592195) scale(0.1 -0.1)">
      <use xlink:href="#DejaVuSans-31"/>
      <use xlink:href="#DejaVuSans-31" x="63.623047"/>
     </g>
    </g>
   </g>
   <g id="text_12">
    <g clip-path="url(#p4bb5002352)">
     <!-- 12 -->
     <g transform="translate(386.551204 174.101205) scale(0.1 -0.1)">
      <use xlink:href="#DejaVuSans-31"/>
      <use xlink:href="#DejaVuSans-32" x="63.623047"/>
     </g>
    </g>
   </g>
   <g id="text_13">
    <g clip-path="url(#p4bb5002352)">
     <!-- 13 -->
     <g transform="translate(99.037537 71.616382) scale(0.1 -0.1)">
      <use xlink:href="#DejaVuSans-31"/>
      <use xlink:href="#DejaVuSans-33" x="63.623047"/>
     </g>
    </g>
   </g>
   <g id="text_14">
    <g clip-path="url(#p4bb5002352)">
     <!-- 14 -->
     <g transform="translate(297.258469 200.647276) scale(0.1 -0.1)">
      <use xlink:href="#DejaVuSans-31"/>
      <use xlink:href="#DejaVuSans-34" x="63.623047"/>
     </g>
    </g>
   </g>
   <g id="text_15">
    <g clip-path="url(#p4bb5002352)">
     <!-- 15 -->
     <g transform="translate(156.391219 34.725361) scale(0.1 -0.1)">
      <defs>
       <path id="DejaVuSans-35" d="M 691 4666 
L 3169 4666 
L 3169 4134 
L 1269 4134 
L 1269 2991 
Q 1406 3038 1543 3061 
Q 1681 3084 1819 3084 
Q 2600 3084 3056 2656 
Q 3513 2228 3513 1497 
Q 3513 744 3044 326 
Q 2575 -91 1722 -91 
Q 1428 -91 1123 -41 
Q 819 9 494 109 
L 494 744 
Q 775 591 1075 516 
Q 1375 441 1709 441 
Q 2250 441 2565 725 
Q 2881 1009 2881 1497 
Q 2881 1984 2565 2268 
Q 2250 2553 1709 2553 
Q 1456 2553 1204 2497 
Q 953 2441 691 2322 
L 691 4666 
z
" transform="scale(0.015625)"/>
      </defs>
      <use xlink:href="#DejaVuSans-31"/>
      <use xlink:href="#DejaVuSans-35" x="63.623047"/>
     </g>
    </g>
   </g>
   <g id="text_16">
    <g clip-path="url(#p4bb5002352)">
     <!-- 16 -->
     <g transform="translate(61.695598 116.598828) scale(0.1 -0.1)">
      <use xlink:href="#DejaVuSans-31"/>
      <use xlink:href="#DejaVuSans-36" x="63.623047"/>
     </g>
    </g>
   </g>
   <g id="text_17">
    <g clip-path="url(#p4bb5002352)">
     <!-- 17 -->
     <g transform="translate(192.827257 209.673307) scale(0.1 -0.1)">
      <use xlink:href="#DejaVuSans-31"/>
      <use xlink:href="#DejaVuSans-37" x="63.623047"/>
     </g>
    </g>
   </g>
   <g id="text_18">
    <g clip-path="url(#p4bb5002352)">
     <!-- 18 -->
     <g transform="translate(196.708594 50.599562) scale(0.1 -0.1)">
      <use xlink:href="#DejaVuSans-31"/>
      <use xlink:href="#DejaVuSans-38" x="63.623047"/>
     </g>
    </g>
   </g>
   <g id="text_19">
    <g clip-path="url(#p4bb5002352)">
     <!-- 19 -->
     <g transform="translate(53.877843 182.958416) scale(0.1 -0.1)">
      <use xlink:href="#DejaVuSans-31"/>
      <use xlink:href="#DejaVuSans-39" x="63.623047"/>
     </g>
    </g>
   </g>
   <g id="text_20">
    <g clip-path="url(#p4bb5002352)">
     <!-- 20 -->
     <g transform="translate(215.348482 95.478612) scale(0.1 -0.1)">
      <use xlink:href="#DejaVuSans-32"/>
      <use xlink:href="#DejaVuSans-30" x="63.623047"/>
     </g>
    </g>
   </g>
   <g id="text_21">
    <g clip-path="url(#p4bb5002352)">
     <!-- 21 -->
     <g transform="translate(77.806477 214.759845) scale(0.1 -0.1)">
      <use xlink:href="#DejaVuSans-32"/>
      <use xlink:href="#DejaVuSans-31" x="63.623047"/>
     </g>
    </g>
   </g>
   <g id="text_22">
    <g clip-path="url(#p4bb5002352)">
     <!-- 22 -->
     <g transform="translate(53.010775 71.848487) scale(0.1 -0.1)">
      <use xlink:href="#DejaVuSans-32"/>
      <use xlink:href="#DejaVuSans-32" x="63.623047"/>
     </g>
    </g>
   </g>
  </g>
 </g>
 <defs>
  <clipPath id="p4bb5002352">
   <rect x="0" y="0" width="460.8" height="345.6"/>
  </clipPath>
 </defs>
</svg>
