<?xml version="1.0" encoding="utf-8" standalone="no"?>
<!DOCTYPE svg PUBLIC "-//W3C//DTD SVG 1.1//EN"
  "http://www.w3.org/Graphics/SVG/1.1/DTD/svg11.dtd">
<svg xmlns:xlink="http://www.w3.org/1999/xlink" width="460.8pt" height="345.6pt" viewBox="0 0 460.8 345.6" xmlns="http://www.w3.org/2000/svg" version="1.1">
 <metadata>
  <rdf:RDF xmlns:dc="http://purl.org/dc/elements/1.1/" xmlns:cc="http://creativecommons.org/ns#" xmlns:rdf="http://www.w3.org/1999/02/22-rdf-syntax-ns#">
   <cc:Work>
    <dc:type rdf:resource="http://purl.org/dc/dcmitype/StillImage"/>
    <dc:date>2024-02-07T13:48:03.167366</dc:date>
    <dc:format>image/svg+xml</dc:format>
    <dc:creator>
     <cc:Agent>
      <dc:title>Matplotlib v3.8.0, https://matplotlib.org/</dc:title>
     </cc:Agent>
    </dc:creator>
   </cc:Work>
  </rdf:RDF>
 </metadata>
 <defs>
  <style type="text/css">*{stroke-linejoin: round; stroke-linecap: butt}</style>
 </defs>
 <g id="figure_1">
  <g id="patch_1">
   <path d="M 0 345.6 
L 460.8 345.6 
L 460.8 0 
L 0 0 
z
" style="fill: #ffffff"/>
  </g>
  <g id="axes_1">
   <g id="patch_2">
    <path d="M 404.237459 87.19342 
Q 358.838778 118.086191 314.364424 148.349978 
" clip-path="url(#pc7451dda31)" style="fill: none; stroke: #000000; stroke-linecap: round"/>
    <path d="M 318.796556 147.753145 
L 314.364424 148.349978 
L 316.546236 144.446173 
z
" clip-path="url(#pc7451dda31)" style="stroke: #000000; stroke-linecap: round"/>
   </g>
   <g id="patch_3">
    <path d="M 404.127425 87.00213 
Q 358.656369 110.881351 314.175157 134.240754 
" clip-path="url(#pc7451dda31)" style="fill: none; stroke: #000000; stroke-linecap: round"/>
    <path d="M 318.646405 134.151681 
L 314.175157 134.240754 
L 316.786647 130.610311 
z
" clip-path="url(#pc7451dda31)" style="stroke: #000000; stroke-linecap: round"/>
   </g>
   <g id="patch_4">
    <path d="M 237.329955 126.89149 
Q 273.660159 138.191336 308.922778 149.15913 
" clip-path="url(#pc7451dda31)" style="fill: none; stroke: #000000; stroke-linecap: round"/>
    <path d="M 305.697259 146.061383 
L 308.922778 149.15913 
L 304.50927 149.880897 
z
" clip-path="url(#pc7451dda31)" style="stroke: #000000; stroke-linecap: round"/>
   </g>
   <g id="patch_5">
    <path d="M 237.404415 126.552712 
Q 273.476039 130.989187 308.43799 135.289182 
" clip-path="url(#pc7451dda31)" style="fill: none; stroke: #000000; stroke-linecap: round"/>
    <path d="M 304.712047 132.815856 
L 308.43799 135.289182 
L 304.223763 136.785942 
z
" clip-path="url(#pc7451dda31)" style="stroke: #000000; stroke-linecap: round"/>
   </g>
   <g id="patch_6">
    <path d="M 336.284079 244.795906 
Q 324.304757 198.369495 312.60477 153.025661 
" clip-path="url(#pc7451dda31)" style="fill: none; stroke: #000000; stroke-linecap: round"/>
    <path d="M 311.667579 157.398494 
L 312.60477 153.025661 
L 315.540722 156.399114 
z
" clip-path="url(#pc7451dda31)" style="stroke: #000000; stroke-linecap: round"/>
   </g>
   <g id="patch_7">
    <path d="M 336.338606 244.786904 
Q 324.118915 191.168549 312.147655 138.640278 
" clip-path="url(#pc7451dda31)" style="fill: none; stroke: #000000; stroke-linecap: round"/>
    <path d="M 311.08647 142.984687 
L 312.147655 138.640278 
L 314.986471 142.095872 
z
" clip-path="url(#pc7451dda31)" style="stroke: #000000; stroke-linecap: round"/>
   </g>
   <g id="patch_8">
    <path d="M 407.111966 194.114576 
Q 360.356142 172.497362 314.615137 151.349343 
" clip-path="url(#pc7451dda31)" style="fill: none; stroke: #000000; stroke-linecap: round"/>
    <path d="M 317.406543 154.843345 
L 314.615137 151.349343 
L 319.085183 151.212619 
z
" clip-path="url(#pc7451dda31)" style="stroke: #000000; stroke-linecap: round"/>
   </g>
   <g id="patch_9">
    <path d="M 407.212232 193.919 
Q 360.168908 165.294502 314.080701 137.251166 
" clip-path="url(#pc7451dda31)" style="fill: none; stroke: #000000; stroke-linecap: round"/>
    <path d="M 316.458223 141.038961 
L 314.080701 137.251166 
L 318.53745 137.621826 
z
" clip-path="url(#pc7451dda31)" style="stroke: #000000; stroke-linecap: round"/>
   </g>
   <g id="patch_10">
    <path d="M 313.444896 148.975696 
Q 358.843576 118.082926 403.317931 87.819139 
" clip-path="url(#pc7451dda31)" style="fill: none; stroke: #000000; stroke-linecap: round"/>
    <path d="M 398.885799 88.415972 
L 403.317931 87.819139 
L 401.136118 91.722944 
z
" clip-path="url(#pc7451dda31)" style="stroke: #000000; stroke-linecap: round"/>
   </g>
   <g id="patch_11">
    <path d="M 309.991007 149.491383 
Q 273.660803 138.191536 238.398184 127.223743 
" clip-path="url(#pc7451dda31)" style="fill: none; stroke: #000000; stroke-linecap: round"/>
    <path d="M 241.623702 130.321489 
L 238.398184 127.223743 
L 242.811692 126.501976 
z
" clip-path="url(#pc7451dda31)" style="stroke: #000000; stroke-linecap: round"/>
   </g>
   <g id="patch_12">
    <path d="M 312.325904 151.944902 
Q 324.305226 198.371312 336.005213 243.715147 
" clip-path="url(#pc7451dda31)" style="fill: none; stroke: #000000; stroke-linecap: round"/>
    <path d="M 336.942404 239.342313 
L 336.005213 243.715147 
L 333.069261 240.341693 
z
" clip-path="url(#pc7451dda31)" style="stroke: #000000; stroke-linecap: round"/>
   </g>
   <g id="patch_13">
    <path d="M 313.597206 150.878709 
Q 360.353029 172.495923 406.094035 193.643942 
" clip-path="url(#pc7451dda31)" style="fill: none; stroke: #000000; stroke-linecap: round"/>
    <path d="M 403.302629 190.14994 
L 406.094035 193.643942 
L 401.623989 193.780666 
z
" clip-path="url(#pc7451dda31)" style="stroke: #000000; stroke-linecap: round"/>
   </g>
   <g id="patch_14">
    <path d="M 311.791224 148.129117 
Q 311.655122 142.864967 311.547916 138.718478 
" clip-path="url(#pc7451dda31)" style="fill: none; stroke: #000000; stroke-linecap: round"/>
    <path d="M 309.651968 142.768834 
L 311.547916 138.718478 
L 313.650632 142.66545 
z
" clip-path="url(#pc7451dda31)" style="stroke: #000000; stroke-linecap: round"/>
   </g>
   <g id="patch_15">
    <path d="M 310.310043 151.246135 
Q 259.899448 190.067509 210.37466 228.20672 
" clip-path="url(#pc7451dda31)" style="fill: none; stroke: #000000; stroke-linecap: round"/>
    <path d="M 214.764109 227.350719 
L 210.37466 228.20672 
L 212.323529 224.18156 
z
" clip-path="url(#pc7451dda31)" style="stroke: #000000; stroke-linecap: round"/>
   </g>
   <g id="patch_16">
    <path d="M 312.451893 148.230805 
Q 330.331695 94.463207 347.858702 41.756523 
" clip-path="url(#pc7451dda31)" style="fill: none; stroke: #000000; stroke-linecap: round"/>
    <path d="M 344.698687 44.921062 
L 347.858702 41.756523 
L 348.494324 46.183258 
z
" clip-path="url(#pc7451dda31)" style="stroke: #000000; stroke-linecap: round"/>
   </g>
   <g id="patch_17">
    <path d="M 310.038692 150.780032 
Q 238.914721 178.917475 168.830384 206.643626 
" clip-path="url(#pc7451dda31)" style="fill: none; stroke: #000000; stroke-linecap: round"/>
    <path d="M 173.285633 207.031901 
L 168.830384 206.643626 
L 171.814154 203.312392 
z
" clip-path="url(#pc7451dda31)" style="stroke: #000000; stroke-linecap: round"/>
   </g>
   <g id="patch_18">
    <path d="M 310.486406 148.68462 
Q 274.782204 112.259632 239.860632 76.633074 
" clip-path="url(#pc7451dda31)" style="fill: none; stroke: #000000; stroke-linecap: round"/>
    <path d="M 241.232381 80.889634 
L 239.860632 76.633074 
L 244.08893 78.089611 
z
" clip-path="url(#pc7451dda31)" style="stroke: #000000; stroke-linecap: round"/>
   </g>
   <g id="patch_19">
    <path d="M 311.143339 148.262867 
Q 292.557305 100.225121 274.3747 53.230085 
" clip-path="url(#pc7451dda31)" style="fill: none; stroke: #000000; stroke-linecap: round"/>
    <path d="M 273.952797 57.682275 
L 274.3747 53.230085 
L 277.68331 56.238922 
z
" clip-path="url(#pc7451dda31)" style="stroke: #000000; stroke-linecap: round"/>
   </g>
   <g id="patch_20">
    <path d="M 312.995956 148.515292 
Q 340.288484 111.839506 366.913551 76.060656 
" clip-path="url(#pc7451dda31)" style="fill: none; stroke: #000000; stroke-linecap: round"/>
    <path d="M 362.921079 78.075643 
L 366.913551 76.060656 
L 366.130057 80.463625 
z
" clip-path="url(#pc7451dda31)" style="stroke: #000000; stroke-linecap: round"/>
   </g>
   <g id="patch_21">
    <path d="M 313.777437 150.16564 
Q 348.135629 151.918049 381.377239 153.613508 
" clip-path="url(#pc7451dda31)" style="fill: none; stroke: #000000; stroke-linecap: round"/>
    <path d="M 377.484307 151.412352 
L 381.377239 153.613508 
L 377.280556 155.40716 
z
" clip-path="url(#pc7451dda31)" style="stroke: #000000; stroke-linecap: round"/>
   </g>
   <g id="patch_22">
    <path d="M 313.095206 151.542042 
Q 343.014786 186.74146 372.210271 221.089005 
" clip-path="url(#pc7451dda31)" style="fill: none; stroke: #000000; stroke-linecap: round"/>
    <path d="M 371.143551 216.745953 
L 372.210271 221.089005 
L 368.095797 219.33655 
z
" clip-path="url(#pc7451dda31)" style="stroke: #000000; stroke-linecap: round"/>
   </g>
   <g id="patch_23">
    <path d="M 311.387937 151.950846 
Q 302.760021 187.802347 294.3937 222.566847 
" clip-path="url(#pc7451dda31)" style="fill: none; stroke: #000000; stroke-linecap: round"/>
    <path d="M 297.274092 219.145833 
L 294.3937 222.566847 
L 293.385124 218.209925 
z
" clip-path="url(#pc7451dda31)" style="stroke: #000000; stroke-linecap: round"/>
   </g>
   <g id="patch_24">
    <path d="M 311.788678 148.128394 
Q 310.210772 90.02726 308.663217 33.043748 
" clip-path="url(#pc7451dda31)" style="fill: none; stroke: #000000; stroke-linecap: round"/>
    <path d="M 306.772546 37.09657 
L 308.663217 33.043748 
L 310.771072 36.987978 
z
" clip-path="url(#pc7451dda31)" style="stroke: #000000; stroke-linecap: round"/>
   </g>
   <g id="patch_25">
    <path d="M 313.75352 149.77727 
Q 366.324448 141.814915 417.789948 134.019987 
" clip-path="url(#pc7451dda31)" style="fill: none; stroke: #000000; stroke-linecap: round"/>
    <path d="M 413.535551 132.641545 
L 417.789948 134.019987 
L 414.134556 136.59644 
z
" clip-path="url(#pc7451dda31)" style="stroke: #000000; stroke-linecap: round"/>
   </g>
   <g id="patch_26">
    <path d="M 313.182497 134.762052 
Q 358.653552 110.88283 403.134765 87.523427 
" clip-path="url(#pc7451dda31)" style="fill: none; stroke: #000000; stroke-linecap: round"/>
    <path d="M 398.663517 87.6125 
L 403.134765 87.523427 
L 400.523274 91.15387 
z
" clip-path="url(#pc7451dda31)" style="stroke: #000000; stroke-linecap: round"/>
   </g>
   <g id="patch_27">
    <path d="M 309.544115 135.425225 
Q 273.47249 130.98875 238.510539 126.688755 
" clip-path="url(#pc7451dda31)" style="fill: none; stroke: #000000; stroke-linecap: round"/>
    <path d="M 242.236482 129.162081 
L 238.510539 126.688755 
L 242.724766 125.191996 
z
" clip-path="url(#pc7451dda31)" style="stroke: #000000; stroke-linecap: round"/>
   </g>
   <g id="patch_28">
    <path d="M 311.898944 137.548969 
Q 324.118635 191.167323 336.089895 243.695594 
" clip-path="url(#pc7451dda31)" style="fill: none; stroke: #000000; stroke-linecap: round"/>
    <path d="M 337.15108 239.351185 
L 336.089895 243.695594 
L 333.25108 240.240001 
z
" clip-path="url(#pc7451dda31)" style="stroke: #000000; stroke-linecap: round"/>
   </g>
   <g id="patch_29">
    <path d="M 313.124507 136.669349 
Q 360.167832 165.293847 406.256038 193.337184 
" clip-path="url(#pc7451dda31)" style="fill: none; stroke: #000000; stroke-linecap: round"/>
    <path d="M 403.878517 189.549389 
L 406.256038 193.337184 
L 401.799289 192.966524 
z
" clip-path="url(#pc7451dda31)" style="stroke: #000000; stroke-linecap: round"/>
   </g>
   <g id="patch_30">
    <path d="M 311.518991 137.599728 
Q 311.655093 142.863878 311.762299 147.010367 
" clip-path="url(#pc7451dda31)" style="fill: none; stroke: #000000; stroke-linecap: round"/>
    <path d="M 313.658247 142.960011 
L 311.762299 147.010367 
L 309.659584 143.063395 
z
" clip-path="url(#pc7451dda31)" style="stroke: #000000; stroke-linecap: round"/>
   </g>
   <g id="patch_31">
    <path d="M 310.037869 136.967095 
Q 259.711477 182.86647 210.211152 228.012443 
" clip-path="url(#pc7451dda31)" style="fill: none; stroke: #000000; stroke-linecap: round"/>
    <path d="M 214.514304 226.794707 
L 210.211152 228.012443 
L 211.818854 223.83928 
z
" clip-path="url(#pc7451dda31)" style="stroke: #000000; stroke-linecap: round"/>
   </g>
   <g id="patch_32">
    <path d="M 312.165406 133.856897 
Q 330.145769 87.259774 347.723643 41.705725 
" clip-path="url(#pc7451dda31)" style="fill: none; stroke: #000000; stroke-linecap: round"/>
    <path d="M 344.417747 44.717543 
L 347.723643 41.705725 
L 348.14956 46.157533 
z
" clip-path="url(#pc7451dda31)" style="stroke: #000000; stroke-linecap: round"/>
   </g>
   <g id="patch_33">
    <path d="M 309.733016 136.52233 
Q 238.729269 171.714863 168.727262 206.41089 
" clip-path="url(#pc7451dda31)" style="fill: none; stroke: #000000; stroke-linecap: round"/>
    <path d="M 173.199371 206.426504 
L 168.727262 206.41089 
L 171.423018 202.842572 
z
" clip-path="url(#pc7451dda31)" style="stroke: #000000; stroke-linecap: round"/>
   </g>
   <g id="patch_34">
    <path d="M 309.976743 134.423453 
Q 274.593183 105.054658 240.069924 76.399922 
" clip-path="url(#pc7451dda31)" style="fill: none; stroke: #000000; stroke-linecap: round"/>
    <path d="M 241.87048 80.493576 
L 240.069924 76.399922 
L 244.42518 77.41567 
z
" clip-path="url(#pc7451dda31)" style="stroke: #000000; stroke-linecap: round"/>
   </g>
   <g id="patch_35">
    <path d="M 310.677398 133.894794 
Q 292.37026 93.020586 274.520132 53.166741 
" clip-path="url(#pc7451dda31)" style="fill: none; stroke: #000000; stroke-linecap: round"/>
    <path d="M 274.3299 57.634829 
L 274.520132 53.166741 
L 277.980463 55.99978 
z
" clip-path="url(#pc7451dda31)" style="stroke: #000000; stroke-linecap: round"/>
   </g>
   <g id="patch_36">
    <path d="M 312.781379 134.239842 
Q 340.10213 104.637137 366.664614 75.856034 
" clip-path="url(#pc7451dda31)" style="fill: none; stroke: #000000; stroke-linecap: round"/>
    <path d="M 362.482026 77.439055 
L 366.664614 75.856034 
L 365.421478 80.151917 
z
" clip-path="url(#pc7451dda31)" style="stroke: #000000; stroke-linecap: round"/>
   </g>
   <g id="patch_37">
    <path d="M 313.352593 136.129446 
Q 347.952091 144.716236 381.466474 153.033725 
" clip-path="url(#pc7451dda31)" style="fill: none; stroke: #000000; stroke-linecap: round"/>
    <path d="M 378.065984 150.129131 
L 381.466474 153.033725 
L 377.102505 154.011361 
z
" clip-path="url(#pc7451dda31)" style="stroke: #000000; stroke-linecap: round"/>
   </g>
   <g id="patch_38">
    <path d="M 312.596278 137.23934 
Q 342.829746 179.54054 372.413108 220.932145 
" clip-path="url(#pc7451dda31)" style="fill: none; stroke: #000000; stroke-linecap: round"/>
    <path d="M 371.714356 216.514935 
L 372.413108 220.932145 
L 368.460089 218.840821 
z
" clip-path="url(#pc7451dda31)" style="stroke: #000000; stroke-linecap: round"/>
   </g>
   <g id="patch_39">
    <path d="M 311.092663 137.562666 
Q 302.573801 180.600126 294.272032 222.540832 
" clip-path="url(#pc7451dda31)" style="fill: none; stroke: #000000; stroke-linecap: round"/>
    <path d="M 297.010659 219.005309 
L 294.272032 222.540832 
L 293.08679 218.228616 
z
" clip-path="url(#pc7451dda31)" style="stroke: #000000; stroke-linecap: round"/>
   </g>
   <g id="patch_40">
    <path d="M 311.415911 133.72382 
Q 310.024535 82.824074 308.66371 33.041943 
" clip-path="url(#pc7451dda31)" style="fill: none; stroke: #000000; stroke-linecap: round"/>
    <path d="M 306.773759 37.095101 
L 308.66371 33.041943 
L 310.772265 36.985799 
z
" clip-path="url(#pc7451dda31)" style="stroke: #000000; stroke-linecap: round"/>
   </g>
   <g id="patch_41">
    <path d="M 313.407644 135.624723 
Q 366.141856 134.612004 417.75824 133.620752 
" clip-path="url(#pc7451dda31)" style="fill: none; stroke: #000000; stroke-linecap: round"/>
    <path d="M 413.720576 131.697924 
L 417.75824 133.620752 
L 413.797379 135.697186 
z
" clip-path="url(#pc7451dda31)" style="stroke: #000000; stroke-linecap: round"/>
   </g>
   <g id="patch_42">
    <path d="M 209.486435 228.890745 
Q 259.89703 190.069371 309.421818 151.93016 
" clip-path="url(#pc7451dda31)" style="fill: none; stroke: #000000; stroke-linecap: round"/>
    <path d="M 305.032369 152.786161 
L 309.421818 151.93016 
L 307.472949 155.95532 
z
" clip-path="url(#pc7451dda31)" style="stroke: #000000; stroke-linecap: round"/>
   </g>
   <g id="patch_43">
    <path d="M 209.386176 228.764849 
Q 259.712568 182.865475 309.212893 137.719501 
" clip-path="url(#pc7451dda31)" style="fill: none; stroke: #000000; stroke-linecap: round"/>
    <path d="M 304.909741 138.937238 
L 309.212893 137.719501 
L 307.605191 141.892665 
z
" clip-path="url(#pc7451dda31)" style="stroke: #000000; stroke-linecap: round"/>
   </g>
   <g id="patch_44">
    <path d="M 206.02349 230.228442 
Q 171.908979 233.026818 138.908759 235.73379 
" clip-path="url(#pc7451dda31)" style="fill: none; stroke: #000000; stroke-linecap: round"/>
    <path d="M 143.058877 237.400077 
L 138.908759 235.73379 
L 142.73186 233.413467 
z
" clip-path="url(#pc7451dda31)" style="stroke: #000000; stroke-linecap: round"/>
   </g>
   <g id="patch_45">
    <path d="M 206.02349 230.228442 
Q 171.908979 233.026818 138.908759 235.73379 
" clip-path="url(#pc7451dda31)" style="fill: none; stroke: #000000; stroke-linecap: round"/>
    <path d="M 143.058877 237.400077 
L 138.908759 235.73379 
L 142.73186 233.413467 
z
" clip-path="url(#pc7451dda31)" style="stroke: #000000; stroke-linecap: round"/>
   </g>
   <g id="patch_46">
    <path d="M 206.388818 231.210267 
Q 164.677627 261.575597 123.870323 291.282907 
" clip-path="url(#pc7451dda31)" style="fill: none; stroke: #000000; stroke-linecap: round"/>
    <path d="M 128.281265 290.545624 
L 123.870323 291.282907 
L 125.927062 287.311783 
z
" clip-path="url(#pc7451dda31)" style="stroke: #000000; stroke-linecap: round"/>
   </g>
   <g id="patch_47">
    <path d="M 207.185505 231.847721 
Q 189.438112 272.840533 172.134918 312.807339 
" clip-path="url(#pc7451dda31)" style="fill: none; stroke: #000000; stroke-linecap: round"/>
    <path d="M 175.559505 309.931194 
L 172.134918 312.807339 
L 171.888754 308.341983 
z
" clip-path="url(#pc7451dda31)" style="stroke: #000000; stroke-linecap: round"/>
   </g>
   <g id="patch_48">
    <path d="M 206.246848 229.161992 
Q 186.973608 218.917895 168.687611 209.198537 
" clip-path="url(#pc7451dda31)" style="fill: none; stroke: #000000; stroke-linecap: round"/>
    <path d="M 171.280998 212.841934 
L 168.687611 209.198537 
L 173.158361 209.309865 
z
" clip-path="url(#pc7451dda31)" style="stroke: #000000; stroke-linecap: round"/>
   </g>
   <g id="patch_49">
    <path d="M 47.75456 166.193434 
Q 105.958972 186.658202 163.108645 206.752123 
" clip-path="url(#pc7451dda31)" style="fill: none; stroke: #000000; stroke-linecap: round"/>
    <path d="M 159.998493 203.538565 
L 163.108645 206.752123 
L 158.671708 207.31211 
z
" clip-path="url(#pc7451dda31)" style="stroke: #000000; stroke-linecap: round"/>
   </g>
   <g id="patch_50">
    <path d="M 41.821032 249.511626 
Q 102.987988 228.947851 163.095196 208.740354 
" clip-path="url(#pc7451dda31)" style="fill: none; stroke: #000000; stroke-linecap: round"/>
    <path d="M 158.666397 208.119277 
L 163.095196 208.740354 
L 159.941055 211.910747 
z
" clip-path="url(#pc7451dda31)" style="stroke: #000000; stroke-linecap: round"/>
   </g>
   <g id="patch_51">
    <path d="M 137.794838 235.825163 
Q 171.90935 233.026787 204.90957 230.319816 
" clip-path="url(#pc7451dda31)" style="fill: none; stroke: #000000; stroke-linecap: round"/>
    <path d="M 200.759451 228.653528 
L 204.90957 230.319816 
L 201.086469 232.640138 
z
" clip-path="url(#pc7451dda31)" style="stroke: #000000; stroke-linecap: round"/>
   </g>
   <g id="patch_52">
    <path d="M 137.794838 235.825163 
Q 171.90935 233.026787 204.90957 230.319816 
" clip-path="url(#pc7451dda31)" style="fill: none; stroke: #000000; stroke-linecap: round"/>
    <path d="M 200.759451 228.653528 
L 204.90957 230.319816 
L 201.086469 232.640138 
z
" clip-path="url(#pc7451dda31)" style="stroke: #000000; stroke-linecap: round"/>
   </g>
   <g id="patch_53">
    <path d="M 137.27734 234.659202 
Q 150.928758 221.874193 163.764135 209.853434 
" clip-path="url(#pc7451dda31)" style="fill: none; stroke: #000000; stroke-linecap: round"/>
    <path d="M 159.477447 211.127918 
L 163.764135 209.853434 
L 162.211709 214.047474 
z
" clip-path="url(#pc7451dda31)" style="stroke: #000000; stroke-linecap: round"/>
   </g>
   <g id="patch_54">
    <path d="M 137.27734 234.659202 
Q 150.928758 221.874193 163.764135 209.853434 
" clip-path="url(#pc7451dda31)" style="fill: none; stroke: #000000; stroke-linecap: round"/>
    <path d="M 159.477447 211.127918 
L 163.764135 209.853434 
L 162.211709 214.047474 
z
" clip-path="url(#pc7451dda31)" style="stroke: #000000; stroke-linecap: round"/>
   </g>
   <g id="patch_55">
    <path d="M 137.27734 234.659202 
Q 150.928758 221.874193 163.764135 209.853434 
" clip-path="url(#pc7451dda31)" style="fill: none; stroke: #000000; stroke-linecap: round"/>
    <path d="M 159.477447 211.127918 
L 163.764135 209.853434 
L 162.211709 214.047474 
z
" clip-path="url(#pc7451dda31)" style="stroke: #000000; stroke-linecap: round"/>
   </g>
   <g id="patch_56">
    <path d="M 122.968847 291.939172 
Q 164.680037 261.573842 205.487342 231.866532 
" clip-path="url(#pc7451dda31)" style="fill: none; stroke: #000000; stroke-linecap: round"/>
    <path d="M 201.076399 232.603816 
L 205.487342 231.866532 
L 203.430603 235.837656 
z
" clip-path="url(#pc7451dda31)" style="stroke: #000000; stroke-linecap: round"/>
   </g>
   <g id="patch_57">
    <path d="M 122.29927 291.363708 
Q 143.697346 250.423431 164.577536 210.47401 
" clip-path="url(#pc7451dda31)" style="fill: none; stroke: #000000; stroke-linecap: round"/>
    <path d="M 160.952195 213.092578 
L 164.577536 210.47401 
L 164.497186 214.945424 
z
" clip-path="url(#pc7451dda31)" style="stroke: #000000; stroke-linecap: round"/>
   </g>
   <g id="patch_58">
    <path d="M 171.691222 313.832186 
Q 189.438614 272.839374 206.741808 232.872568 
" clip-path="url(#pc7451dda31)" style="fill: none; stroke: #000000; stroke-linecap: round"/>
    <path d="M 203.317222 235.748712 
L 206.741808 232.872568 
L 206.987972 237.337924 
z
" clip-path="url(#pc7451dda31)" style="stroke: #000000; stroke-linecap: round"/>
   </g>
   <g id="patch_59">
    <path d="M 170.833279 313.678025 
Q 168.457289 261.690148 166.132342 210.81914 
" clip-path="url(#pc7451dda31)" style="fill: none; stroke: #000000; stroke-linecap: round"/>
    <path d="M 164.317048 214.90628 
L 166.132342 210.81914 
L 168.312877 214.723659 
z
" clip-path="url(#pc7451dda31)" style="stroke: #000000; stroke-linecap: round"/>
   </g>
   <g id="patch_60">
    <path d="M 348.212515 40.692545 
Q 330.332714 94.460143 312.805707 147.166828 
" clip-path="url(#pc7451dda31)" style="fill: none; stroke: #000000; stroke-linecap: round"/>
    <path d="M 315.965721 144.002288 
L 312.805707 147.166828 
L 312.170084 142.740092 
z
" clip-path="url(#pc7451dda31)" style="stroke: #000000; stroke-linecap: round"/>
   </g>
   <g id="patch_61">
    <path d="M 348.126569 40.661519 
Q 330.146206 87.258641 312.568333 132.81269 
" clip-path="url(#pc7451dda31)" style="fill: none; stroke: #000000; stroke-linecap: round"/>
    <path d="M 315.874229 129.800872 
L 312.568333 132.81269 
L 312.142415 128.360882 
z
" clip-path="url(#pc7451dda31)" style="stroke: #000000; stroke-linecap: round"/>
   </g>
   <g id="patch_62">
    <path d="M 167.795446 207.05306 
Q 238.919417 178.915617 309.003754 151.189465 
" clip-path="url(#pc7451dda31)" style="fill: none; stroke: #000000; stroke-linecap: round"/>
    <path d="M 304.548505 150.80119 
L 309.003754 151.189465 
L 306.019984 154.520699 
z
" clip-path="url(#pc7451dda31)" style="stroke: #000000; stroke-linecap: round"/>
   </g>
   <g id="patch_63">
    <path d="M 167.728689 206.905826 
Q 238.732436 171.713293 308.734443 137.017266 
" clip-path="url(#pc7451dda31)" style="fill: none; stroke: #000000; stroke-linecap: round"/>
    <path d="M 304.262335 137.001652 
L 308.734443 137.017266 
L 306.038687 140.585584 
z
" clip-path="url(#pc7451dda31)" style="stroke: #000000; stroke-linecap: round"/>
   </g>
   <g id="patch_64">
    <path d="M 167.70112 208.674198 
Q 186.97436 218.918295 205.260358 228.637654 
" clip-path="url(#pc7451dda31)" style="fill: none; stroke: #000000; stroke-linecap: round"/>
    <path d="M 202.66697 224.994257 
L 205.260358 228.637654 
L 200.789608 228.526326 
z
" clip-path="url(#pc7451dda31)" style="stroke: #000000; stroke-linecap: round"/>
   </g>
   <g id="patch_65">
    <path d="M 164.164406 207.12333 
Q 105.959995 186.658562 48.810321 166.564642 
" clip-path="url(#pc7451dda31)" style="fill: none; stroke: #000000; stroke-linecap: round"/>
    <path d="M 51.920474 169.778199 
L 48.810321 166.564642 
L 53.247259 166.004654 
z
" clip-path="url(#pc7451dda31)" style="stroke: #000000; stroke-linecap: round"/>
   </g>
   <g id="patch_66">
    <path d="M 164.158559 208.382861 
Q 102.991603 228.946636 42.884395 249.154133 
" clip-path="url(#pc7451dda31)" style="fill: none; stroke: #000000; stroke-linecap: round"/>
    <path d="M 47.313194 249.775211 
L 42.884395 249.154133 
L 46.038536 245.98374 
z
" clip-path="url(#pc7451dda31)" style="stroke: #000000; stroke-linecap: round"/>
   </g>
   <g id="patch_67">
    <path d="M 164.578648 209.090615 
Q 150.927231 221.875623 138.091854 233.896383 
" clip-path="url(#pc7451dda31)" style="fill: none; stroke: #000000; stroke-linecap: round"/>
    <path d="M 142.378541 232.621899 
L 138.091854 233.896383 
L 139.644279 229.702342 
z
" clip-path="url(#pc7451dda31)" style="stroke: #000000; stroke-linecap: round"/>
   </g>
   <g id="patch_68">
    <path d="M 164.578648 209.090615 
Q 150.927231 221.875623 138.091854 233.896383 
" clip-path="url(#pc7451dda31)" style="fill: none; stroke: #000000; stroke-linecap: round"/>
    <path d="M 142.378541 232.621899 
L 138.091854 233.896383 
L 139.644279 229.702342 
z
" clip-path="url(#pc7451dda31)" style="stroke: #000000; stroke-linecap: round"/>
   </g>
   <g id="patch_69">
    <path d="M 164.578648 209.090615 
Q 150.927231 221.875623 138.091854 233.896383 
" clip-path="url(#pc7451dda31)" style="fill: none; stroke: #000000; stroke-linecap: round"/>
    <path d="M 142.378541 232.621899 
L 138.091854 233.896383 
L 139.644279 229.702342 
z
" clip-path="url(#pc7451dda31)" style="stroke: #000000; stroke-linecap: round"/>
   </g>
   <g id="patch_70">
    <path d="M 165.096055 209.481943 
Q 143.697979 250.42222 122.817789 290.371641 
" clip-path="url(#pc7451dda31)" style="fill: none; stroke: #000000; stroke-linecap: round"/>
    <path d="M 126.44313 287.753072 
L 122.817789 290.371641 
L 122.898138 285.900227 
z
" clip-path="url(#pc7451dda31)" style="stroke: #000000; stroke-linecap: round"/>
   </g>
   <g id="patch_71">
    <path d="M 166.081107 209.698094 
Q 168.457098 261.68597 170.782045 312.556978 
" clip-path="url(#pc7451dda31)" style="fill: none; stroke: #000000; stroke-linecap: round"/>
    <path d="M 172.597339 308.469839 
L 170.782045 312.556978 
L 168.601509 308.652459 
z
" clip-path="url(#pc7451dda31)" style="stroke: #000000; stroke-linecap: round"/>
   </g>
   <g id="patch_72">
    <path d="M 239.076123 75.832727 
Q 274.780325 112.257714 309.701896 147.884273 
" clip-path="url(#pc7451dda31)" style="fill: none; stroke: #000000; stroke-linecap: round"/>
    <path d="M 308.330148 143.627712 
L 309.701896 147.884273 
L 305.473599 146.427735 
z
" clip-path="url(#pc7451dda31)" style="stroke: #000000; stroke-linecap: round"/>
   </g>
   <g id="patch_73">
    <path d="M 239.213353 75.688958 
Q 274.596913 105.057754 309.120172 133.712489 
" clip-path="url(#pc7451dda31)" style="fill: none; stroke: #000000; stroke-linecap: round"/>
    <path d="M 307.319616 129.618835 
L 309.120172 133.712489 
L 304.764916 132.696742 
z
" clip-path="url(#pc7451dda31)" style="stroke: #000000; stroke-linecap: round"/>
   </g>
   <g id="patch_74">
    <path d="M 273.970033 52.184176 
Q 292.556067 100.221923 310.738672 147.216958 
" clip-path="url(#pc7451dda31)" style="fill: none; stroke: #000000; stroke-linecap: round"/>
    <path d="M 311.160575 142.764768 
L 310.738672 147.216958 
L 307.430061 144.208122 
z
" clip-path="url(#pc7451dda31)" style="stroke: #000000; stroke-linecap: round"/>
   </g>
   <g id="patch_75">
    <path d="M 274.063541 52.147315 
Q 292.370679 93.021523 310.220807 132.875367 
" clip-path="url(#pc7451dda31)" style="fill: none; stroke: #000000; stroke-linecap: round"/>
    <path d="M 310.411039 128.407279 
L 310.220807 132.875367 
L 306.760476 130.042329 
z
" clip-path="url(#pc7451dda31)" style="stroke: #000000; stroke-linecap: round"/>
   </g>
   <g id="patch_76">
    <path d="M 367.581394 75.163205 
Q 340.288866 111.838992 313.6638 147.617842 
" clip-path="url(#pc7451dda31)" style="fill: none; stroke: #000000; stroke-linecap: round"/>
    <path d="M 317.656271 145.602855 
L 313.6638 147.617842 
L 314.447293 143.214872 
z
" clip-path="url(#pc7451dda31)" style="stroke: #000000; stroke-linecap: round"/>
   </g>
   <g id="patch_77">
    <path d="M 367.423538 75.03372 
Q 340.102787 104.636426 313.540304 133.417529 
" clip-path="url(#pc7451dda31)" style="fill: none; stroke: #000000; stroke-linecap: round"/>
    <path d="M 317.722892 131.834507 
L 313.540304 133.417529 
L 314.783439 129.121645 
z
" clip-path="url(#pc7451dda31)" style="stroke: #000000; stroke-linecap: round"/>
   </g>
   <g id="patch_78">
    <path d="M 382.493928 153.670463 
Q 348.135736 151.918054 314.894126 150.222596 
" clip-path="url(#pc7451dda31)" style="fill: none; stroke: #000000; stroke-linecap: round"/>
    <path d="M 318.787057 152.423751 
L 314.894126 150.222596 
L 318.990809 148.428944 
z
" clip-path="url(#pc7451dda31)" style="stroke: #000000; stroke-linecap: round"/>
   </g>
   <g id="patch_79">
    <path d="M 382.546339 153.301722 
Q 347.946841 144.714932 314.432458 136.397443 
" clip-path="url(#pc7451dda31)" style="fill: none; stroke: #000000; stroke-linecap: round"/>
    <path d="M 317.832948 139.302037 
L 314.432458 136.397443 
L 318.796427 135.419807 
z
" clip-path="url(#pc7451dda31)" style="stroke: #000000; stroke-linecap: round"/>
   </g>
   <g id="patch_80">
    <path d="M 372.93525 221.94192 
Q 343.015671 186.742502 313.820185 152.394957 
" clip-path="url(#pc7451dda31)" style="fill: none; stroke: #000000; stroke-linecap: round"/>
    <path d="M 314.886905 156.738009 
L 313.820185 152.394957 
L 317.93466 154.147412 
z
" clip-path="url(#pc7451dda31)" style="stroke: #000000; stroke-linecap: round"/>
   </g>
   <g id="patch_81">
    <path d="M 373.061745 221.839686 
Q 342.828278 179.538486 313.244915 138.146882 
" clip-path="url(#pc7451dda31)" style="fill: none; stroke: #000000; stroke-linecap: round"/>
    <path d="M 313.943668 142.564092 
L 313.244915 138.146882 
L 317.197935 140.238206 
z
" clip-path="url(#pc7451dda31)" style="stroke: #000000; stroke-linecap: round"/>
   </g>
   <g id="patch_82">
    <path d="M 294.132616 223.65173 
Q 302.760531 187.80023 311.126852 153.035729 
" clip-path="url(#pc7451dda31)" style="fill: none; stroke: #000000; stroke-linecap: round"/>
    <path d="M 308.24646 156.456744 
L 311.126852 153.035729 
L 312.135429 157.392651 
z
" clip-path="url(#pc7451dda31)" style="stroke: #000000; stroke-linecap: round"/>
   </g>
   <g id="patch_83">
    <path d="M 294.055456 223.634975 
Q 302.574318 180.597515 310.876088 138.656809 
" clip-path="url(#pc7451dda31)" style="fill: none; stroke: #000000; stroke-linecap: round"/>
    <path d="M 308.13746 142.192332 
L 310.876088 138.656809 
L 312.061329 142.969025 
z
" clip-path="url(#pc7451dda31)" style="stroke: #000000; stroke-linecap: round"/>
   </g>
   <g id="patch_84">
    <path d="M 308.632932 31.928578 
Q 310.210838 90.029713 311.758393 147.013225 
" clip-path="url(#pc7451dda31)" style="fill: none; stroke: #000000; stroke-linecap: round"/>
    <path d="M 313.649064 142.960403 
L 311.758393 147.013225 
L 309.650538 143.068995 
z
" clip-path="url(#pc7451dda31)" style="stroke: #000000; stroke-linecap: round"/>
   </g>
   <g id="patch_85">
    <path d="M 308.633266 31.928217 
Q 310.024642 82.827964 311.385467 132.610094 
" clip-path="url(#pc7451dda31)" style="fill: none; stroke: #000000; stroke-linecap: round"/>
    <path d="M 313.275418 128.556937 
L 311.385467 132.610094 
L 309.276912 128.666239 
z
" clip-path="url(#pc7451dda31)" style="stroke: #000000; stroke-linecap: round"/>
   </g>
   <g id="patch_86">
    <path d="M 418.901027 133.851704 
Q 366.3301 141.814059 314.864599 149.608987 
" clip-path="url(#pc7451dda31)" style="fill: none; stroke: #000000; stroke-linecap: round"/>
    <path d="M 319.118996 150.987429 
L 314.864599 149.608987 
L 318.519991 147.032534 
z
" clip-path="url(#pc7451dda31)" style="stroke: #000000; stroke-linecap: round"/>
   </g>
   <g id="patch_87">
    <path d="M 418.87447 133.599316 
Q 366.140258 134.612035 314.523874 135.603287 
" clip-path="url(#pc7451dda31)" style="fill: none; stroke: #000000; stroke-linecap: round"/>
    <path d="M 318.561538 137.526115 
L 314.523874 135.603287 
L 318.484735 133.526853 
z
" clip-path="url(#pc7451dda31)" style="stroke: #000000; stroke-linecap: round"/>
   </g>
   <g id="PathCollection_1">
    <defs>
     <path id="mb507ea7f5d" d="M 0 1.936492 
C 0.513564 1.936492 1.006162 1.732451 1.369306 1.369306 
C 1.732451 1.006162 1.936492 0.513564 1.936492 0 
C 1.936492 -0.513564 1.732451 -1.006162 1.369306 -1.369306 
C 1.006162 -1.732451 0.513564 -1.936492 0 -1.936492 
C -0.513564 -1.936492 -1.006162 -1.732451 -1.369306 -1.369306 
C -1.732451 -1.006162 -1.936492 -0.513564 -1.936492 0 
C -1.936492 0.513564 -1.732451 1.006162 -1.369306 1.369306 
C -1.006162 1.732451 -0.513564 1.936492 0 1.936492 
z
" style="stroke: #1f78b4"/>
    </defs>
    <g clip-path="url(#pc7451dda31)">
     <use xlink:href="#mb507ea7f5d" x="405.841031" y="86.102226" style="fill: #1f78b4; stroke: #1f78b4"/>
     <use xlink:href="#mb507ea7f5d" x="235.479638" y="126.315982" style="fill: #1f78b4; stroke: #1f78b4"/>
     <use xlink:href="#mb507ea7f5d" x="336.768659" y="246.673917" style="fill: #1f78b4; stroke: #1f78b4"/>
     <use xlink:href="#mb507ea7f5d" x="408.867848" y="194.926395" style="fill: #1f78b4; stroke: #1f78b4"/>
     <use xlink:href="#mb507ea7f5d" x="311.841324" y="150.06689" style="fill: #1f78b4; stroke: #1f78b4"/>
     <use xlink:href="#mb507ea7f5d" x="311.468891" y="135.661955" style="fill: #1f78b4; stroke: #1f78b4"/>
     <use xlink:href="#mb507ea7f5d" x="207.955154" y="230.06999" style="fill: #1f78b4; stroke: #1f78b4"/>
     <use xlink:href="#mb507ea7f5d" x="45.926152" y="165.550563" style="fill: #1f78b4; stroke: #1f78b4"/>
     <use xlink:href="#mb507ea7f5d" x="39.986777" y="250.128286" style="fill: #1f78b4; stroke: #1f78b4"/>
     <use xlink:href="#mb507ea7f5d" x="135.863174" y="235.983615" style="fill: #1f78b4; stroke: #1f78b4"/>
     <use xlink:href="#mb507ea7f5d" x="121.40251" y="293.07945" style="fill: #1f78b4; stroke: #1f78b4"/>
     <use xlink:href="#mb507ea7f5d" x="170.921572" y="315.609917" style="fill: #1f78b4; stroke: #1f78b4"/>
     <use xlink:href="#mb507ea7f5d" x="348.823085" y="38.85646" style="fill: #1f78b4; stroke: #1f78b4"/>
     <use xlink:href="#mb507ea7f5d" x="165.992814" y="207.766201" style="fill: #1f78b4; stroke: #1f78b4"/>
     <use xlink:href="#mb507ea7f5d" x="237.721205" y="74.450456" style="fill: #1f78b4; stroke: #1f78b4"/>
     <use xlink:href="#mb507ea7f5d" x="273.272048" y="50.380153" style="fill: #1f78b4; stroke: #1f78b4"/>
     <use xlink:href="#mb507ea7f5d" x="368.736026" y="73.611607" style="fill: #1f78b4; stroke: #1f78b4"/>
     <use xlink:href="#mb507ea7f5d" x="384.430041" y="153.769213" style="fill: #1f78b4; stroke: #1f78b4"/>
     <use xlink:href="#mb507ea7f5d" x="374.189132" y="223.417072" style="fill: #1f78b4; stroke: #1f78b4"/>
     <use xlink:href="#mb507ea7f5d" x="293.679228" y="225.535686" style="fill: #1f78b4; stroke: #1f78b4"/>
     <use xlink:href="#mb507ea7f5d" x="308.580286" y="29.990083" style="fill: #1f78b4; stroke: #1f78b4"/>
     <use xlink:href="#mb507ea7f5d" x="420.813223" y="133.562084" style="fill: #1f78b4; stroke: #1f78b4"/>
    </g>
   </g>
   <g id="text_1">
    <g clip-path="url(#pc7451dda31)">
     <!-- 0 -->
     <g transform="translate(402.659781 88.861601) scale(0.1 -0.1)">
      <defs>
       <path id="DejaVuSans-30" d="M 2034 4250 
Q 1547 4250 1301 3770 
Q 1056 3291 1056 2328 
Q 1056 1369 1301 889 
Q 1547 409 2034 409 
Q 2525 409 2770 889 
Q 3016 1369 3016 2328 
Q 3016 3291 2770 3770 
Q 2525 4250 2034 4250 
z
M 2034 4750 
Q 2819 4750 3233 4129 
Q 3647 3509 3647 2328 
Q 3647 1150 3233 529 
Q 2819 -91 2034 -91 
Q 1250 -91 836 529 
Q 422 1150 422 2328 
Q 422 3509 836 4129 
Q 1250 4750 2034 4750 
z
" transform="scale(0.015625)"/>
      </defs>
      <use xlink:href="#DejaVuSans-30"/>
     </g>
    </g>
   </g>
   <g id="text_2">
    <g clip-path="url(#pc7451dda31)">
     <!-- 1 -->
     <g transform="translate(232.298388 129.075357) scale(0.1 -0.1)">
      <defs>
       <path id="DejaVuSans-31" d="M 794 531 
L 1825 531 
L 1825 4091 
L 703 3866 
L 703 4441 
L 1819 4666 
L 2450 4666 
L 2450 531 
L 3481 531 
L 3481 0 
L 794 0 
L 794 531 
z
" transform="scale(0.015625)"/>
      </defs>
      <use xlink:href="#DejaVuSans-31"/>
     </g>
    </g>
   </g>
   <g id="text_3">
    <g clip-path="url(#pc7451dda31)">
     <!-- 2 -->
     <g transform="translate(333.587409 249.433292) scale(0.1 -0.1)">
      <defs>
       <path id="DejaVuSans-32" d="M 1228 531 
L 3431 531 
L 3431 0 
L 469 0 
L 469 531 
Q 828 903 1448 1529 
Q 2069 2156 2228 2338 
Q 2531 2678 2651 2914 
Q 2772 3150 2772 3378 
Q 2772 3750 2511 3984 
Q 2250 4219 1831 4219 
Q 1534 4219 1204 4116 
Q 875 4013 500 3803 
L 500 4441 
Q 881 4594 1212 4672 
Q 1544 4750 1819 4750 
Q 2544 4750 2975 4387 
Q 3406 4025 3406 3419 
Q 3406 3131 3298 2873 
Q 3191 2616 2906 2266 
Q 2828 2175 2409 1742 
Q 1991 1309 1228 531 
z
" transform="scale(0.015625)"/>
      </defs>
      <use xlink:href="#DejaVuSans-32"/>
     </g>
    </g>
   </g>
   <g id="text_4">
    <g clip-path="url(#pc7451dda31)">
     <!-- 3 -->
     <g transform="translate(405.686598 197.68577) scale(0.1 -0.1)">
      <defs>
       <path id="DejaVuSans-33" d="M 2597 2516 
Q 3050 2419 3304 2112 
Q 3559 1806 3559 1356 
Q 3559 666 3084 287 
Q 2609 -91 1734 -91 
Q 1441 -91 1130 -33 
Q 819 25 488 141 
L 488 750 
Q 750 597 1062 519 
Q 1375 441 1716 441 
Q 2309 441 2620 675 
Q 2931 909 2931 1356 
Q 2931 1769 2642 2001 
Q 2353 2234 1838 2234 
L 1294 2234 
L 1294 2753 
L 1863 2753 
Q 2328 2753 2575 2939 
Q 2822 3125 2822 3475 
Q 2822 3834 2567 4026 
Q 2313 4219 1838 4219 
Q 1578 4219 1281 4162 
Q 984 4106 628 3988 
L 628 4550 
Q 988 4650 1302 4700 
Q 1616 4750 1894 4750 
Q 2613 4750 3031 4423 
Q 3450 4097 3450 3541 
Q 3450 3153 3228 2886 
Q 3006 2619 2597 2516 
z
" transform="scale(0.015625)"/>
      </defs>
      <use xlink:href="#DejaVuSans-33"/>
     </g>
    </g>
   </g>
   <g id="text_5">
    <g clip-path="url(#pc7451dda31)">
     <!-- 4 -->
     <g transform="translate(308.660074 152.826265) scale(0.1 -0.1)">
      <defs>
       <path id="DejaVuSans-34" d="M 2419 4116 
L 825 1625 
L 2419 1625 
L 2419 4116 
z
M 2253 4666 
L 3047 4666 
L 3047 1625 
L 3713 1625 
L 3713 1100 
L 3047 1100 
L 3047 0 
L 2419 0 
L 2419 1100 
L 313 1100 
L 313 1709 
L 2253 4666 
z
" transform="scale(0.015625)"/>
      </defs>
      <use xlink:href="#DejaVuSans-34"/>
     </g>
    </g>
   </g>
   <g id="text_6">
    <g clip-path="url(#pc7451dda31)">
     <!-- 6 -->
     <g transform="translate(308.287641 138.42133) scale(0.1 -0.1)">
      <defs>
       <path id="DejaVuSans-36" d="M 2113 2584 
Q 1688 2584 1439 2293 
Q 1191 2003 1191 1497 
Q 1191 994 1439 701 
Q 1688 409 2113 409 
Q 2538 409 2786 701 
Q 3034 994 3034 1497 
Q 3034 2003 2786 2293 
Q 2538 2584 2113 2584 
z
M 3366 4563 
L 3366 3988 
Q 3128 4100 2886 4159 
Q 2644 4219 2406 4219 
Q 1781 4219 1451 3797 
Q 1122 3375 1075 2522 
Q 1259 2794 1537 2939 
Q 1816 3084 2150 3084 
Q 2853 3084 3261 2657 
Q 3669 2231 3669 1497 
Q 3669 778 3244 343 
Q 2819 -91 2113 -91 
Q 1303 -91 875 529 
Q 447 1150 447 2328 
Q 447 3434 972 4092 
Q 1497 4750 2381 4750 
Q 2619 4750 2861 4703 
Q 3103 4656 3366 4563 
z
" transform="scale(0.015625)"/>
      </defs>
      <use xlink:href="#DejaVuSans-36"/>
     </g>
    </g>
   </g>
   <g id="text_7">
    <g clip-path="url(#pc7451dda31)">
     <!-- 7 -->
     <g transform="translate(204.773904 232.829365) scale(0.1 -0.1)">
      <defs>
       <path id="DejaVuSans-37" d="M 525 4666 
L 3525 4666 
L 3525 4397 
L 1831 0 
L 1172 0 
L 2766 4134 
L 525 4134 
L 525 4666 
z
" transform="scale(0.015625)"/>
      </defs>
      <use xlink:href="#DejaVuSans-37"/>
     </g>
    </g>
   </g>
   <g id="text_8">
    <g clip-path="url(#pc7451dda31)">
     <!-- 8 -->
     <g transform="translate(42.744902 168.309938) scale(0.1 -0.1)">
      <defs>
       <path id="DejaVuSans-38" d="M 2034 2216 
Q 1584 2216 1326 1975 
Q 1069 1734 1069 1313 
Q 1069 891 1326 650 
Q 1584 409 2034 409 
Q 2484 409 2743 651 
Q 3003 894 3003 1313 
Q 3003 1734 2745 1975 
Q 2488 2216 2034 2216 
z
M 1403 2484 
Q 997 2584 770 2862 
Q 544 3141 544 3541 
Q 544 4100 942 4425 
Q 1341 4750 2034 4750 
Q 2731 4750 3128 4425 
Q 3525 4100 3525 3541 
Q 3525 3141 3298 2862 
Q 3072 2584 2669 2484 
Q 3125 2378 3379 2068 
Q 3634 1759 3634 1313 
Q 3634 634 3220 271 
Q 2806 -91 2034 -91 
Q 1263 -91 848 271 
Q 434 634 434 1313 
Q 434 1759 690 2068 
Q 947 2378 1403 2484 
z
M 1172 3481 
Q 1172 3119 1398 2916 
Q 1625 2713 2034 2713 
Q 2441 2713 2670 2916 
Q 2900 3119 2900 3481 
Q 2900 3844 2670 4047 
Q 2441 4250 2034 4250 
Q 1625 4250 1398 4047 
Q 1172 3844 1172 3481 
z
" transform="scale(0.015625)"/>
      </defs>
      <use xlink:href="#DejaVuSans-38"/>
     </g>
    </g>
   </g>
   <g id="text_9">
    <g clip-path="url(#pc7451dda31)">
     <!-- 9 -->
     <g transform="translate(36.805527 252.887661) scale(0.1 -0.1)">
      <defs>
       <path id="DejaVuSans-39" d="M 703 97 
L 703 672 
Q 941 559 1184 500 
Q 1428 441 1663 441 
Q 2288 441 2617 861 
Q 2947 1281 2994 2138 
Q 2813 1869 2534 1725 
Q 2256 1581 1919 1581 
Q 1219 1581 811 2004 
Q 403 2428 403 3163 
Q 403 3881 828 4315 
Q 1253 4750 1959 4750 
Q 2769 4750 3195 4129 
Q 3622 3509 3622 2328 
Q 3622 1225 3098 567 
Q 2575 -91 1691 -91 
Q 1453 -91 1209 -44 
Q 966 3 703 97 
z
M 1959 2075 
Q 2384 2075 2632 2365 
Q 2881 2656 2881 3163 
Q 2881 3666 2632 3958 
Q 2384 4250 1959 4250 
Q 1534 4250 1286 3958 
Q 1038 3666 1038 3163 
Q 1038 2656 1286 2365 
Q 1534 2075 1959 2075 
z
" transform="scale(0.015625)"/>
      </defs>
      <use xlink:href="#DejaVuSans-39"/>
     </g>
    </g>
   </g>
   <g id="text_10">
    <g clip-path="url(#pc7451dda31)">
     <!-- 10 -->
     <g transform="translate(129.500674 238.74299) scale(0.1 -0.1)">
      <use xlink:href="#DejaVuSans-31"/>
      <use xlink:href="#DejaVuSans-30" x="63.623047"/>
     </g>
    </g>
   </g>
   <g id="text_11">
    <g clip-path="url(#pc7451dda31)">
     <!-- 11 -->
     <g transform="translate(115.04001 295.838825) scale(0.1 -0.1)">
      <use xlink:href="#DejaVuSans-31"/>
      <use xlink:href="#DejaVuSans-31" x="63.623047"/>
     </g>
    </g>
   </g>
   <g id="text_12">
    <g clip-path="url(#pc7451dda31)">
     <!-- 12 -->
     <g transform="translate(164.559072 318.369292) scale(0.1 -0.1)">
      <use xlink:href="#DejaVuSans-31"/>
      <use xlink:href="#DejaVuSans-32" x="63.623047"/>
     </g>
    </g>
   </g>
   <g id="text_13">
    <g clip-path="url(#pc7451dda31)">
     <!-- 13 -->
     <g transform="translate(342.460585 41.615835) scale(0.1 -0.1)">
      <use xlink:href="#DejaVuSans-31"/>
      <use xlink:href="#DejaVuSans-33" x="63.623047"/>
     </g>
    </g>
   </g>
   <g id="text_14">
    <g clip-path="url(#pc7451dda31)">
     <!-- 14 -->
     <g transform="translate(159.630314 210.525576) scale(0.1 -0.1)">
      <use xlink:href="#DejaVuSans-31"/>
      <use xlink:href="#DejaVuSans-34" x="63.623047"/>
     </g>
    </g>
   </g>
   <g id="text_15">
    <g clip-path="url(#pc7451dda31)">
     <!-- 15 -->
     <g transform="translate(231.358705 77.209831) scale(0.1 -0.1)">
      <defs>
       <path id="DejaVuSans-35" d="M 691 4666 
L 3169 4666 
L 3169 4134 
L 1269 4134 
L 1269 2991 
Q 1406 3038 1543 3061 
Q 1681 3084 1819 3084 
Q 2600 3084 3056 2656 
Q 3513 2228 3513 1497 
Q 3513 744 3044 326 
Q 2575 -91 1722 -91 
Q 1428 -91 1123 -41 
Q 819 9 494 109 
L 494 744 
Q 775 591 1075 516 
Q 1375 441 1709 441 
Q 2250 441 2565 725 
Q 2881 1009 2881 1497 
Q 2881 1984 2565 2268 
Q 2250 2553 1709 2553 
Q 1456 2553 1204 2497 
Q 953 2441 691 2322 
L 691 4666 
z
" transform="scale(0.015625)"/>
      </defs>
      <use xlink:href="#DejaVuSans-31"/>
      <use xlink:href="#DejaVuSans-35" x="63.623047"/>
     </g>
    </g>
   </g>
   <g id="text_16">
    <g clip-path="url(#pc7451dda31)">
     <!-- 16 -->
     <g transform="translate(266.909548 53.139528) scale(0.1 -0.1)">
      <use xlink:href="#DejaVuSans-31"/>
      <use xlink:href="#DejaVuSans-36" x="63.623047"/>
     </g>
    </g>
   </g>
   <g id="text_17">
    <g clip-path="url(#pc7451dda31)">
     <!-- 17 -->
     <g transform="translate(362.373526 76.370982) scale(0.1 -0.1)">
      <use xlink:href="#DejaVuSans-31"/>
      <use xlink:href="#DejaVuSans-37" x="63.623047"/>
     </g>
    </g>
   </g>
   <g id="text_18">
    <g clip-path="url(#pc7451dda31)">
     <!-- 18 -->
     <g transform="translate(378.067541 156.528588) scale(0.1 -0.1)">
      <use xlink:href="#DejaVuSans-31"/>
      <use xlink:href="#DejaVuSans-38" x="63.623047"/>
     </g>
    </g>
   </g>
   <g id="text_19">
    <g clip-path="url(#pc7451dda31)">
     <!-- 19 -->
     <g transform="translate(367.826632 226.176447) scale(0.1 -0.1)">
      <use xlink:href="#DejaVuSans-31"/>
      <use xlink:href="#DejaVuSans-39" x="63.623047"/>
     </g>
    </g>
   </g>
   <g id="text_20">
    <g clip-path="url(#pc7451dda31)">
     <!-- 20 -->
     <g transform="translate(287.316728 228.295061) scale(0.1 -0.1)">
      <use xlink:href="#DejaVuSans-32"/>
      <use xlink:href="#DejaVuSans-30" x="63.623047"/>
     </g>
    </g>
   </g>
   <g id="text_21">
    <g clip-path="url(#pc7451dda31)">
     <!-- 21 -->
     <g transform="translate(302.217786 32.749458) scale(0.1 -0.1)">
      <use xlink:href="#DejaVuSans-32"/>
      <use xlink:href="#DejaVuSans-31" x="63.623047"/>
     </g>
    </g>
   </g>
   <g id="text_22">
    <g clip-path="url(#pc7451dda31)">
     <!-- 22 -->
     <g transform="translate(414.450723 136.321459) scale(0.1 -0.1)">
      <use xlink:href="#DejaVuSans-32"/>
      <use xlink:href="#DejaVuSans-32" x="63.623047"/>
     </g>
    </g>
   </g>
  </g>
 </g>
 <defs>
  <clipPath id="pc7451dda31">
   <rect x="0" y="0" width="460.8" height="345.6"/>
  </clipPath>
 </defs>
</svg>
