<?xml version="1.0" encoding="utf-8" standalone="no"?>
<!DOCTYPE svg PUBLIC "-//W3C//DTD SVG 1.1//EN"
  "http://www.w3.org/Graphics/SVG/1.1/DTD/svg11.dtd">
<svg xmlns:xlink="http://www.w3.org/1999/xlink" width="460.8pt" height="345.6pt" viewBox="0 0 460.8 345.6" xmlns="http://www.w3.org/2000/svg" version="1.1">
 <metadata>
  <rdf:RDF xmlns:dc="http://purl.org/dc/elements/1.1/" xmlns:cc="http://creativecommons.org/ns#" xmlns:rdf="http://www.w3.org/1999/02/22-rdf-syntax-ns#">
   <cc:Work>
    <dc:type rdf:resource="http://purl.org/dc/dcmitype/StillImage"/>
    <dc:date>2024-02-07T14:35:33.878594</dc:date>
    <dc:format>image/svg+xml</dc:format>
    <dc:creator>
     <cc:Agent>
      <dc:title>Matplotlib v3.8.0, https://matplotlib.org/</dc:title>
     </cc:Agent>
    </dc:creator>
   </cc:Work>
  </rdf:RDF>
 </metadata>
 <defs>
  <style type="text/css">*{stroke-linejoin: round; stroke-linecap: butt}</style>
 </defs>
 <g id="figure_1">
  <g id="patch_1">
   <path d="M 0 345.6 
L 460.8 345.6 
L 460.8 0 
L 0 0 
z
" style="fill: #ffffff"/>
  </g>
  <g id="axes_1">
   <g id="patch_2">
    <path d="M 340.488268 217.738213 
Q 345.72711 206.459473 350.494965 196.194722 
" clip-path="url(#pe320698600)" style="fill: none; stroke: #000000; stroke-linecap: round"/>
    <path d="M 346.996038 198.979953 
L 350.494965 196.194722 
L 350.623794 200.665002 
z
" clip-path="url(#pe320698600)" style="stroke: #000000; stroke-linecap: round"/>
   </g>
   <g id="patch_3">
    <path d="M 337.925982 220.331131 
Q 318.521138 229.653977 300.124054 238.492656 
" clip-path="url(#pe320698600)" style="fill: none; stroke: #000000; stroke-linecap: round"/>
    <path d="M 304.595633 238.563182 
L 300.124054 238.492656 
L 302.863423 234.957708 
z
" clip-path="url(#pe320698600)" style="stroke: #000000; stroke-linecap: round"/>
   </g>
   <g id="patch_4">
    <path d="M 350.966319 195.179942 
Q 345.727477 206.458682 340.959621 216.723433 
" clip-path="url(#pe320698600)" style="fill: none; stroke: #000000; stroke-linecap: round"/>
    <path d="M 344.458549 213.938202 
L 340.959621 216.723433 
L 340.830793 212.253153 
z
" clip-path="url(#pe320698600)" style="stroke: #000000; stroke-linecap: round"/>
   </g>
   <g id="patch_5">
    <path d="M 350.358122 192.109103 
Q 339.25041 181.81957 328.962898 172.289821 
" clip-path="url(#pe320698600)" style="fill: none; stroke: #000000; stroke-linecap: round"/>
    <path d="M 330.538188 176.475327 
L 328.962898 172.289821 
L 333.256477 173.540892 
z
" clip-path="url(#pe320698600)" style="stroke: #000000; stroke-linecap: round"/>
   </g>
   <g id="patch_6">
    <path d="M 214.345223 271.982329 
Q 193.67957 279.888268 174.058145 287.394722 
" clip-path="url(#pe320698600)" style="fill: none; stroke: #000000; stroke-linecap: round"/>
    <path d="M 178.508709 287.833456 
L 174.058145 287.394722 
L 177.07947 284.097512 
z
" clip-path="url(#pe320698600)" style="stroke: #000000; stroke-linecap: round"/>
   </g>
   <g id="patch_7">
    <path d="M 217.646554 270.054505 
Q 226.979587 262.329064 235.451363 255.31653 
" clip-path="url(#pe320698600)" style="fill: none; stroke: #000000; stroke-linecap: round"/>
    <path d="M 231.09475 256.326442 
L 235.451363 255.31653 
L 233.645325 259.407768 
z
" clip-path="url(#pe320698600)" style="stroke: #000000; stroke-linecap: round"/>
   </g>
   <g id="patch_8">
    <path d="M 299.119214 238.975421 
Q 318.524058 229.652574 336.921142 220.813895 
" clip-path="url(#pe320698600)" style="fill: none; stroke: #000000; stroke-linecap: round"/>
    <path d="M 332.449562 220.743369 
L 336.921142 220.813895 
L 334.181773 224.348843 
z
" clip-path="url(#pe320698600)" style="stroke: #000000; stroke-linecap: round"/>
   </g>
   <g id="patch_9">
    <path d="M 295.484381 240.244508 
Q 267.590612 246.590773 240.787018 252.689007 
" clip-path="url(#pe320698600)" style="fill: none; stroke: #000000; stroke-linecap: round"/>
    <path d="M 245.131038 253.751786 
L 240.787018 252.689007 
L 244.243653 249.851459 
z
" clip-path="url(#pe320698600)" style="stroke: #000000; stroke-linecap: round"/>
   </g>
   <g id="patch_10">
    <path d="M 155.608974 174.802454 
Q 161.659473 187.353491 167.224469 198.89741 
" clip-path="url(#pe320698600)" style="fill: none; stroke: #000000; stroke-linecap: round"/>
    <path d="M 167.289068 194.425741 
L 167.224469 198.89741 
L 163.685893 196.16273 
z
" clip-path="url(#pe320698600)" style="stroke: #000000; stroke-linecap: round"/>
   </g>
   <g id="patch_11">
    <path d="M 155.68713 171.353224 
Q 162.332706 158.986877 168.449038 147.605366 
" clip-path="url(#pe320698600)" style="fill: none; stroke: #000000; stroke-linecap: round"/>
    <path d="M 164.793833 150.182083 
L 168.449038 147.605366 
L 168.31729 152.07556 
z
" clip-path="url(#pe320698600)" style="stroke: #000000; stroke-linecap: round"/>
   </g>
   <g id="patch_12">
    <path d="M 168.978108 146.620852 
Q 162.332533 158.987199 156.2162 170.36871 
" clip-path="url(#pe320698600)" style="fill: none; stroke: #000000; stroke-linecap: round"/>
    <path d="M 159.871405 167.791993 
L 156.2162 170.36871 
L 156.347949 165.898516 
z
" clip-path="url(#pe320698600)" style="stroke: #000000; stroke-linecap: round"/>
   </g>
   <g id="patch_13">
    <path d="M 168.674204 143.409319 
Q 161.25381 134.274562 154.538349 126.007601 
" clip-path="url(#pe320698600)" style="fill: none; stroke: #000000; stroke-linecap: round"/>
    <path d="M 155.508032 130.373344 
L 154.538349 126.007601 
L 158.612753 127.851301 
z
" clip-path="url(#pe320698600)" style="stroke: #000000; stroke-linecap: round"/>
   </g>
   <g id="patch_14">
    <path d="M 171.804761 144.573529 
Q 198.176717 139.881596 223.447924 135.385501 
" clip-path="url(#pe320698600)" style="fill: none; stroke: #000000; stroke-linecap: round"/>
    <path d="M 219.15944 134.117075 
L 223.447924 135.385501 
L 219.860092 138.055232 
z
" clip-path="url(#pe320698600)" style="stroke: #000000; stroke-linecap: round"/>
   </g>
   <g id="patch_15">
    <path d="M 328.142649 171.529991 
Q 339.250361 181.819524 349.537873 191.349273 
" clip-path="url(#pe320698600)" style="fill: none; stroke: #000000; stroke-linecap: round"/>
    <path d="M 347.962583 187.163767 
L 349.537873 191.349273 
L 345.244294 190.098202 
z
" clip-path="url(#pe320698600)" style="stroke: #000000; stroke-linecap: round"/>
   </g>
   <g id="patch_16">
    <path d="M 324.926754 169.488611 
Q 303.800369 160.96383 283.710792 152.857415 
" clip-path="url(#pe320698600)" style="fill: none; stroke: #000000; stroke-linecap: round"/>
    <path d="M 286.671792 156.208904 
L 283.710792 152.857415 
L 288.168583 152.499508 
z
" clip-path="url(#pe320698600)" style="stroke: #000000; stroke-linecap: round"/>
   </g>
   <g id="patch_17">
    <path d="M 282.674252 152.439157 
Q 303.800636 160.963938 323.890213 169.070353 
" clip-path="url(#pe320698600)" style="fill: none; stroke: #000000; stroke-linecap: round"/>
    <path d="M 320.929213 165.718864 
L 323.890213 169.070353 
L 319.432422 169.42826 
z
" clip-path="url(#pe320698600)" style="stroke: #000000; stroke-linecap: round"/>
   </g>
   <g id="patch_18">
    <path d="M 279.030503 151.142156 
Q 253.667681 143.283355 229.372801 135.75546 
" clip-path="url(#pe320698600)" style="fill: none; stroke: #000000; stroke-linecap: round"/>
    <path d="M 232.601642 138.849743 
L 229.372801 135.75546 
L 233.785532 135.028958 
z
" clip-path="url(#pe320698600)" style="stroke: #000000; stroke-linecap: round"/>
   </g>
   <g id="patch_19">
    <path d="M 153.833486 125.13989 
Q 161.253879 134.274647 167.96934 142.541608 
" clip-path="url(#pe320698600)" style="fill: none; stroke: #000000; stroke-linecap: round"/>
    <path d="M 166.999658 138.175865 
L 167.96934 142.541608 
L 163.894936 140.697908 
z
" clip-path="url(#pe320698600)" style="stroke: #000000; stroke-linecap: round"/>
   </g>
   <g id="patch_20">
    <path d="M 154.48516 123.153895 
Q 171.843299 118.686148 188.118694 114.497085 
" clip-path="url(#pe320698600)" style="fill: none; stroke: #000000; stroke-linecap: round"/>
    <path d="M 183.746426 113.557261 
L 188.118694 114.497085 
L 184.743474 117.431006 
z
" clip-path="url(#pe320698600)" style="stroke: #000000; stroke-linecap: round"/>
   </g>
   <g id="patch_21">
    <path d="M 224.544279 135.190445 
Q 198.172323 139.882377 172.901116 144.378472 
" clip-path="url(#pe320698600)" style="fill: none; stroke: #000000; stroke-linecap: round"/>
    <path d="M 177.1896 145.646898 
L 172.901116 144.378472 
L 176.488948 141.708741 
z
" clip-path="url(#pe320698600)" style="stroke: #000000; stroke-linecap: round"/>
   </g>
   <g id="patch_22">
    <path d="M 228.303584 135.424158 
Q 253.666406 143.282959 277.961285 150.810854 
" clip-path="url(#pe320698600)" style="fill: none; stroke: #000000; stroke-linecap: round"/>
    <path d="M 274.732445 147.71657 
L 277.961285 150.810854 
L 273.548555 151.537356 
z
" clip-path="url(#pe320698600)" style="stroke: #000000; stroke-linecap: round"/>
   </g>
   <g id="patch_23">
    <path d="M 226.775853 132.943862 
Q 228.868828 120.57272 230.775301 109.303947 
" clip-path="url(#pe320698600)" style="fill: none; stroke: #000000; stroke-linecap: round"/>
    <path d="M 228.136077 112.914279 
L 230.775301 109.303947 
L 232.080033 113.581526 
z
" clip-path="url(#pe320698600)" style="stroke: #000000; stroke-linecap: round"/>
   </g>
   <g id="patch_24">
    <path d="M 419.126624 30.935278 
Q 405.358747 38.650999 392.566188 45.820136 
" clip-path="url(#pe320698600)" style="fill: none; stroke: #000000; stroke-linecap: round"/>
    <path d="M 397.033353 45.609325 
L 392.566188 45.820136 
L 395.077838 42.119918 
z
" clip-path="url(#pe320698600)" style="stroke: #000000; stroke-linecap: round"/>
   </g>
   <g id="patch_25">
    <path d="M 254.698203 105.91898 
Q 280.981653 99.789873 306.176281 93.91467 
" clip-path="url(#pe320698600)" style="fill: none; stroke: #000000; stroke-linecap: round"/>
    <path d="M 301.826595 92.875326 
L 306.176281 93.91467 
L 302.734994 96.770812 
z
" clip-path="url(#pe320698600)" style="stroke: #000000; stroke-linecap: round"/>
   </g>
   <g id="patch_26">
    <path d="M 253.762593 104.670047 
Q 258.102402 96.971561 261.893179 90.247018 
" clip-path="url(#pe320698600)" style="fill: none; stroke: #000000; stroke-linecap: round"/>
    <path d="M 258.186659 92.749358 
L 261.893179 90.247018 
L 261.671139 94.713638 
z
" clip-path="url(#pe320698600)" style="stroke: #000000; stroke-linecap: round"/>
   </g>
   <g id="patch_27">
    <path d="M 250.884844 106.589305 
Q 221.940767 110.048071 194.106825 113.374177 
" clip-path="url(#pe320698600)" style="fill: none; stroke: #000000; stroke-linecap: round"/>
    <path d="M 198.315876 114.885433 
L 194.106825 113.374177 
L 197.84126 110.91369 
z
" clip-path="url(#pe320698600)" style="stroke: #000000; stroke-linecap: round"/>
   </g>
   <g id="patch_28">
    <path d="M 262.442377 89.272783 
Q 258.102567 96.971269 254.311791 103.695812 
" clip-path="url(#pe320698600)" style="fill: none; stroke: #000000; stroke-linecap: round"/>
    <path d="M 258.018311 101.193472 
L 254.311791 103.695812 
L 254.533831 99.229192 
z
" clip-path="url(#pe320698600)" style="stroke: #000000; stroke-linecap: round"/>
   </g>
   <g id="patch_29">
    <path d="M 265.229741 86.957198 
Q 284.720857 80.303941 303.153885 74.01186 
" clip-path="url(#pe320698600)" style="fill: none; stroke: #000000; stroke-linecap: round"/>
    <path d="M 298.72226 73.411278 
L 303.153885 74.01186 
L 300.014444 77.196811 
z
" clip-path="url(#pe320698600)" style="stroke: #000000; stroke-linecap: round"/>
   </g>
   <g id="patch_30">
    <path d="M 261.720908 88.558769 
Q 247.340711 96.937159 233.926543 104.752708 
" clip-path="url(#pe320698600)" style="fill: none; stroke: #000000; stroke-linecap: round"/>
    <path d="M 238.38955 104.467111 
L 233.926543 104.752708 
L 236.37587 101.010944 
z
" clip-path="url(#pe320698600)" style="stroke: #000000; stroke-linecap: round"/>
   </g>
   <g id="patch_31">
    <path d="M 230.962277 108.198773 
Q 228.869302 120.569915 226.962828 131.838688 
" clip-path="url(#pe320698600)" style="fill: none; stroke: #000000; stroke-linecap: round"/>
    <path d="M 229.602052 128.228356 
L 226.962828 131.838688 
L 225.658097 127.561109 
z
" clip-path="url(#pe320698600)" style="stroke: #000000; stroke-linecap: round"/>
   </g>
   <g id="patch_32">
    <path d="M 232.958586 105.316672 
Q 247.338783 96.938282 260.752951 89.122733 
" clip-path="url(#pe320698600)" style="fill: none; stroke: #000000; stroke-linecap: round"/>
    <path d="M 256.289944 89.40833 
L 260.752951 89.122733 
L 258.303624 92.864497 
z
" clip-path="url(#pe320698600)" style="stroke: #000000; stroke-linecap: round"/>
   </g>
   <g id="patch_33">
    <path d="M 189.199524 114.218894 
Q 171.841384 118.686641 155.565989 122.875704 
" clip-path="url(#pe320698600)" style="fill: none; stroke: #000000; stroke-linecap: round"/>
    <path d="M 159.938258 123.815528 
L 155.565989 122.875704 
L 158.941209 119.941784 
z
" clip-path="url(#pe320698600)" style="stroke: #000000; stroke-linecap: round"/>
   </g>
   <g id="patch_34">
    <path d="M 192.998335 113.50664 
Q 221.942412 110.047874 249.776353 106.721768 
" clip-path="url(#pe320698600)" style="fill: none; stroke: #000000; stroke-linecap: round"/>
    <path d="M 245.567303 105.210513 
L 249.776353 106.721768 
L 246.041919 109.182255 
z
" clip-path="url(#pe320698600)" style="stroke: #000000; stroke-linecap: round"/>
   </g>
   <g id="patch_35">
    <path d="M 391.590151 46.367122 
Q 405.358028 38.651402 418.150586 31.482264 
" clip-path="url(#pe320698600)" style="fill: none; stroke: #000000; stroke-linecap: round"/>
    <path d="M 413.683421 31.693075 
L 418.150586 31.482264 
L 415.638936 35.182482 
z
" clip-path="url(#pe320698600)" style="stroke: #000000; stroke-linecap: round"/>
   </g>
   <g id="patch_36">
    <path d="M 388.176468 48.186042 
Q 368.56384 58.107995 349.948849 67.525249 
" clip-path="url(#pe320698600)" style="fill: none; stroke: #000000; stroke-linecap: round"/>
    <path d="M 354.420935 67.504204 
L 349.948849 67.525249 
L 352.615265 63.934953 
z
" clip-path="url(#pe320698600)" style="stroke: #000000; stroke-linecap: round"/>
   </g>
   <g id="patch_37">
    <path d="M 348.951114 68.029999 
Q 368.563742 58.108045 387.178734 48.690792 
" clip-path="url(#pe320698600)" style="fill: none; stroke: #000000; stroke-linecap: round"/>
    <path d="M 382.706648 48.711837 
L 387.178734 48.690792 
L 384.512318 52.281088 
z
" clip-path="url(#pe320698600)" style="stroke: #000000; stroke-linecap: round"/>
   </g>
   <g id="patch_38">
    <path d="M 345.59034 69.947136 
Q 328.185077 81.063608 311.722063 91.578279 
" clip-path="url(#pe320698600)" style="fill: none; stroke: #000000; stroke-linecap: round"/>
    <path d="M 316.169695 91.11076 
L 311.722063 91.578279 
L 314.016627 87.739662 
z
" clip-path="url(#pe320698600)" style="stroke: #000000; stroke-linecap: round"/>
   </g>
   <g id="patch_39">
    <path d="M 345.296179 69.096689 
Q 326.635052 70.964554 309.0864 72.721067 
" clip-path="url(#pe320698600)" style="fill: none; stroke: #000000; stroke-linecap: round"/>
    <path d="M 313.265704 74.312738 
L 309.0864 72.721067 
L 312.867319 70.332626 
z
" clip-path="url(#pe320698600)" style="stroke: #000000; stroke-linecap: round"/>
   </g>
   <g id="patch_40">
    <path d="M 307.261666 93.661566 
Q 280.978217 99.790674 255.783589 105.665876 
" clip-path="url(#pe320698600)" style="fill: none; stroke: #000000; stroke-linecap: round"/>
    <path d="M 260.133274 106.70522 
L 255.783589 105.665876 
L 259.224875 102.809734 
z
" clip-path="url(#pe320698600)" style="stroke: #000000; stroke-linecap: round"/>
   </g>
   <g id="patch_41">
    <path d="M 310.783186 92.177925 
Q 328.188449 81.061454 344.651462 70.546783 
" clip-path="url(#pe320698600)" style="fill: none; stroke: #000000; stroke-linecap: round"/>
    <path d="M 340.203831 71.014302 
L 344.651462 70.546783 
L 342.356899 74.3854 
z
" clip-path="url(#pe320698600)" style="stroke: #000000; stroke-linecap: round"/>
   </g>
   <g id="patch_42">
    <path d="M 304.207738 73.652129 
Q 284.716622 80.305386 266.283595 86.597467 
" clip-path="url(#pe320698600)" style="fill: none; stroke: #000000; stroke-linecap: round"/>
    <path d="M 270.71522 87.198049 
L 266.283595 86.597467 
L 269.423035 83.412516 
z
" clip-path="url(#pe320698600)" style="stroke: #000000; stroke-linecap: round"/>
   </g>
   <g id="patch_43">
    <path d="M 307.970738 72.832738 
Q 326.631865 70.964873 344.180517 69.20836 
" clip-path="url(#pe320698600)" style="fill: none; stroke: #000000; stroke-linecap: round"/>
    <path d="M 340.001213 67.616689 
L 344.180517 69.20836 
L 340.399597 71.596801 
z
" clip-path="url(#pe320698600)" style="stroke: #000000; stroke-linecap: round"/>
   </g>
   <g id="patch_44">
    <path d="M 41.921106 309.806634 
Q 62.463013 308.987841 81.887773 308.213578 
" clip-path="url(#pe320698600)" style="fill: none; stroke: #000000; stroke-linecap: round"/>
    <path d="M 77.811291 306.374477 
L 81.887773 308.213578 
L 77.970603 310.371303 
z
" clip-path="url(#pe320698600)" style="stroke: #000000; stroke-linecap: round"/>
   </g>
   <g id="patch_45">
    <path d="M 123.820923 296.953374 
Q 146.560015 292.890088 168.198507 289.023469 
" clip-path="url(#pe320698600)" style="fill: none; stroke: #000000; stroke-linecap: round"/>
    <path d="M 163.909068 287.758277 
L 168.198507 289.023469 
L 164.612689 291.695905 
z
" clip-path="url(#pe320698600)" style="stroke: #000000; stroke-linecap: round"/>
   </g>
   <g id="patch_46">
    <path d="M 120.061505 297.835409 
Q 103.428969 302.692601 87.869641 307.236385 
" clip-path="url(#pe320698600)" style="fill: none; stroke: #000000; stroke-linecap: round"/>
    <path d="M 92.269908 308.034913 
L 87.869641 307.236385 
L 91.148624 304.195288 
z
" clip-path="url(#pe320698600)" style="stroke: #000000; stroke-linecap: round"/>
   </g>
   <g id="patch_47">
    <path d="M 167.712552 199.90988 
Q 161.662053 187.358843 156.097056 175.814924 
" clip-path="url(#pe320698600)" style="fill: none; stroke: #000000; stroke-linecap: round"/>
    <path d="M 156.032457 180.286593 
L 156.097056 175.814924 
L 159.635633 178.549605 
z
" clip-path="url(#pe320698600)" style="stroke: #000000; stroke-linecap: round"/>
   </g>
   <g id="patch_48">
    <path d="M 170.044402 202.883559 
Q 184.368231 214.710235 197.82992 225.825073 
" clip-path="url(#pe320698600)" style="fill: none; stroke: #000000; stroke-linecap: round"/>
    <path d="M 196.018809 221.736079 
L 197.82992 225.825073 
L 193.472058 224.820566 
z
" clip-path="url(#pe320698600)" style="stroke: #000000; stroke-linecap: round"/>
   </g>
   <g id="patch_49">
    <path d="M 198.689713 226.534974 
Q 184.365884 214.708297 170.904195 203.593459 
" clip-path="url(#pe320698600)" style="fill: none; stroke: #000000; stroke-linecap: round"/>
    <path d="M 172.715306 207.682453 
L 170.904195 203.593459 
L 175.262057 204.597967 
z
" clip-path="url(#pe320698600)" style="stroke: #000000; stroke-linecap: round"/>
   </g>
   <g id="patch_50">
    <path d="M 201.782616 228.856181 
Q 218.993074 240.56636 235.279177 251.647597 
" clip-path="url(#pe320698600)" style="fill: none; stroke: #000000; stroke-linecap: round"/>
    <path d="M 233.097187 247.743892 
L 235.279177 251.647597 
L 230.847018 251.050966 
z
" clip-path="url(#pe320698600)" style="stroke: #000000; stroke-linecap: round"/>
   </g>
   <g id="patch_51">
    <path d="M 236.312978 254.603327 
Q 226.979945 262.328768 218.508168 269.341301 
" clip-path="url(#pe320698600)" style="fill: none; stroke: #000000; stroke-linecap: round"/>
    <path d="M 222.864781 268.331389 
L 218.508168 269.341301 
L 220.314207 265.250064 
z
" clip-path="url(#pe320698600)" style="stroke: #000000; stroke-linecap: round"/>
   </g>
   <g id="patch_52">
    <path d="M 239.693247 252.937857 
Q 267.587016 246.591592 294.39061 240.493358 
" clip-path="url(#pe320698600)" style="fill: none; stroke: #000000; stroke-linecap: round"/>
    <path d="M 290.046591 239.430579 
L 294.39061 240.493358 
L 290.933975 243.330906 
z
" clip-path="url(#pe320698600)" style="stroke: #000000; stroke-linecap: round"/>
   </g>
   <g id="patch_53">
    <path d="M 236.2058 252.278081 
Q 218.995341 240.567902 202.709239 229.486665 
" clip-path="url(#pe320698600)" style="fill: none; stroke: #000000; stroke-linecap: round"/>
    <path d="M 204.891229 233.390371 
L 202.709239 229.486665 
L 207.141397 230.083296 
z
" clip-path="url(#pe320698600)" style="stroke: #000000; stroke-linecap: round"/>
   </g>
   <g id="patch_54">
    <path d="M 236.561824 254.850814 
Q 225.756277 267.732223 215.669262 279.757063 
" clip-path="url(#pe320698600)" style="fill: none; stroke: #000000; stroke-linecap: round"/>
    <path d="M 219.772239 277.977855 
L 215.669262 279.757063 
L 216.707682 275.407156 
z
" clip-path="url(#pe320698600)" style="stroke: #000000; stroke-linecap: round"/>
   </g>
   <g id="patch_55">
    <path d="M 214.948027 280.616855 
Q 225.753574 267.735446 235.840589 255.710607 
" clip-path="url(#pe320698600)" style="fill: none; stroke: #000000; stroke-linecap: round"/>
    <path d="M 231.737612 257.489815 
L 235.840589 255.710607 
L 234.802169 260.060513 
z
" clip-path="url(#pe320698600)" style="stroke: #000000; stroke-linecap: round"/>
   </g>
   <g id="patch_56">
    <path d="M 212.022601 283.059402 
Q 194.553605 293.02496 178.055734 302.436518 
" clip-path="url(#pe320698600)" style="fill: none; stroke: #000000; stroke-linecap: round"/>
    <path d="M 182.521162 302.191673 
L 178.055734 302.436518 
L 180.539115 298.717268 
z
" clip-path="url(#pe320698600)" style="stroke: #000000; stroke-linecap: round"/>
   </g>
   <g id="patch_57">
    <path d="M 177.082375 302.991791 
Q 194.551372 293.026234 211.049243 283.614675 
" clip-path="url(#pe320698600)" style="fill: none; stroke: #000000; stroke-linecap: round"/>
    <path d="M 206.583814 283.85952 
L 211.049243 283.614675 
L 208.565862 287.333925 
z
" clip-path="url(#pe320698600)" style="stroke: #000000; stroke-linecap: round"/>
   </g>
   <g id="patch_58">
    <path d="M 174.894374 302.081798 
Q 173.303241 296.218379 172.004914 291.433971 
" clip-path="url(#pe320698600)" style="fill: none; stroke: #000000; stroke-linecap: round"/>
    <path d="M 171.122299 295.818146 
L 172.004914 291.433971 
L 174.982685 294.770568 
z
" clip-path="url(#pe320698600)" style="stroke: #000000; stroke-linecap: round"/>
   </g>
   <g id="patch_59">
    <path d="M 173.522178 304.413936 
Q 151.753849 309.77993 131.07106 314.878333 
" clip-path="url(#pe320698600)" style="fill: none; stroke: #000000; stroke-linecap: round"/>
    <path d="M 135.433484 315.862844 
L 131.07106 314.878333 
L 134.476123 311.979101 
z
" clip-path="url(#pe320698600)" style="stroke: #000000; stroke-linecap: round"/>
   </g>
   <g id="patch_60">
    <path d="M 173.012909 287.794592 
Q 193.678562 279.888653 213.299987 272.382199 
" clip-path="url(#pe320698600)" style="fill: none; stroke: #000000; stroke-linecap: round"/>
    <path d="M 208.849423 271.943465 
L 213.299987 272.382199 
L 210.278662 275.679409 
z
" clip-path="url(#pe320698600)" style="stroke: #000000; stroke-linecap: round"/>
   </g>
   <g id="patch_61">
    <path d="M 169.30073 288.826511 
Q 146.561638 292.889798 124.923146 296.756416 
" clip-path="url(#pe320698600)" style="fill: none; stroke: #000000; stroke-linecap: round"/>
    <path d="M 129.212585 298.021609 
L 124.923146 296.756416 
L 128.508964 294.08398 
z
" clip-path="url(#pe320698600)" style="stroke: #000000; stroke-linecap: round"/>
   </g>
   <g id="patch_62">
    <path d="M 171.712146 290.355105 
Q 173.30328 296.218524 174.601607 301.002932 
" clip-path="url(#pe320698600)" style="fill: none; stroke: #000000; stroke-linecap: round"/>
    <path d="M 175.484221 296.618757 
L 174.601607 301.002932 
L 171.623835 297.666335 
z
" clip-path="url(#pe320698600)" style="stroke: #000000; stroke-linecap: round"/>
   </g>
   <g id="patch_63">
    <path d="M 129.982574 315.14665 
Q 151.750903 309.780656 172.433692 304.682253 
" clip-path="url(#pe320698600)" style="fill: none; stroke: #000000; stroke-linecap: round"/>
    <path d="M 168.071269 303.697742 
L 172.433692 304.682253 
L 169.028629 307.581485 
z
" clip-path="url(#pe320698600)" style="stroke: #000000; stroke-linecap: round"/>
   </g>
   <g id="patch_64">
    <path d="M 126.193237 315.277242 
Q 106.51966 311.850573 87.947535 308.61575 
" clip-path="url(#pe320698600)" style="fill: none; stroke: #000000; stroke-linecap: round"/>
    <path d="M 91.545021 311.272457 
L 87.947535 308.61575 
L 92.231393 307.331786 
z
" clip-path="url(#pe320698600)" style="stroke: #000000; stroke-linecap: round"/>
   </g>
   <g id="patch_65">
    <path d="M 83.005708 308.169017 
Q 62.463801 308.98781 43.03904 309.762073 
" clip-path="url(#pe320698600)" style="fill: none; stroke: #000000; stroke-linecap: round"/>
    <path d="M 47.115523 311.601175 
L 43.03904 309.762073 
L 46.956211 307.604348 
z
" clip-path="url(#pe320698600)" style="stroke: #000000; stroke-linecap: round"/>
   </g>
   <g id="patch_66">
    <path d="M 86.795187 307.550157 
Q 103.427723 302.692965 118.987051 298.149182 
" clip-path="url(#pe320698600)" style="fill: none; stroke: #000000; stroke-linecap: round"/>
    <path d="M 114.586784 297.350653 
L 118.987051 298.149182 
L 115.708068 301.190278 
z
" clip-path="url(#pe320698600)" style="stroke: #000000; stroke-linecap: round"/>
   </g>
   <g id="patch_67">
    <path d="M 86.850029 308.424591 
Q 106.523606 311.85126 125.095731 315.086083 
" clip-path="url(#pe320698600)" style="fill: none; stroke: #000000; stroke-linecap: round"/>
    <path d="M 121.498245 312.429375 
L 125.095731 315.086083 
L 120.811874 316.370047 
z
" clip-path="url(#pe320698600)" style="stroke: #000000; stroke-linecap: round"/>
   </g>
   <g id="PathCollection_1">
    <defs>
     <path id="C0_0_7dd25d2a99" d="M 0 1.936492 
C 0.513564 1.936492 1.006162 1.732451 1.369306 1.369306 
C 1.732451 1.006162 1.936492 0.513564 1.936492 -0 
C 1.936492 -0.513564 1.732451 -1.006162 1.369306 -1.369306 
C 1.006162 -1.732451 0.513564 -1.936492 0 -1.936492 
C -0.513564 -1.936492 -1.006162 -1.732451 -1.369306 -1.369306 
C -1.732451 -1.006162 -1.936492 -0.513564 -1.936492 0 
C -1.936492 0.513564 -1.732451 1.006162 -1.369306 1.369306 
C -1.006162 1.732451 -0.513564 1.936492 0 1.936492 
z
"/>
    </defs>
    <g clip-path="url(#pe320698600)">
     <use xlink:href="#C0_0_7dd25d2a99" x="339.673965" y="219.491331" style="fill: #ff0000; stroke: #ff0000"/>
    </g>
    <g clip-path="url(#pe320698600)">
     <use xlink:href="#C0_0_7dd25d2a99" x="351.780622" y="193.426824" style="stroke: #000000"/>
    </g>
    <g clip-path="url(#pe320698600)">
     <use xlink:href="#C0_0_7dd25d2a99" x="216.153134" y="271.290687" style="fill: #ff0000; stroke: #ff0000"/>
    </g>
    <g clip-path="url(#pe320698600)">
     <use xlink:href="#C0_0_7dd25d2a99" x="297.371231" y="239.81522" style="fill: #ff0000; stroke: #ff0000"/>
    </g>
    <g clip-path="url(#pe320698600)">
     <use xlink:href="#C0_0_7dd25d2a99" x="154.769429" y="173.060919" style="fill: #ff0000; stroke: #ff0000"/>
    </g>
    <g clip-path="url(#pe320698600)">
     <use xlink:href="#C0_0_7dd25d2a99" x="169.89581" y="144.913157" style="stroke: #000000"/>
    </g>
    <g clip-path="url(#pe320698600)">
     <use xlink:href="#C0_0_7dd25d2a99" x="326.720149" y="170.21227" style="stroke: #000000"/>
    </g>
    <g clip-path="url(#pe320698600)">
     <use xlink:href="#C0_0_7dd25d2a99" x="280.880856" y="151.715498" style="fill: #ff0000; stroke: #ff0000"/>
    </g>
    <g clip-path="url(#pe320698600)">
     <use xlink:href="#C0_0_7dd25d2a99" x="152.61188" y="123.636052" style="fill: #ff0000; stroke: #ff0000"/>
    </g>
    <g clip-path="url(#pe320698600)">
     <use xlink:href="#C0_0_7dd25d2a99" x="226.45323" y="134.850816" style="fill: #ff0000; stroke: #ff0000"/>
    </g>
    <g clip-path="url(#pe320698600)">
     <use xlink:href="#C0_0_7dd25d2a99" x="420.813223" y="29.990083" style="fill: #ff0000; stroke: #ff0000"/>
    </g>
    <g clip-path="url(#pe320698600)">
     <use xlink:href="#C0_0_7dd25d2a99" x="252.810375" y="106.359208" style="stroke: #000000"/>
    </g>
    <g clip-path="url(#pe320698600)">
     <use xlink:href="#C0_0_7dd25d2a99" x="263.394595" y="87.583622" style="stroke: #000000"/>
    </g>
    <g clip-path="url(#pe320698600)">
     <use xlink:href="#C0_0_7dd25d2a99" x="231.284899" y="106.291819" style="fill: #ff0000; stroke: #ff0000"/>
    </g>
    <g clip-path="url(#pe320698600)">
     <use xlink:href="#C0_0_7dd25d2a99" x="191.072804" y="113.736738" style="fill: #ff0000; stroke: #ff0000"/>
    </g>
    <g clip-path="url(#pe320698600)">
     <use xlink:href="#C0_0_7dd25d2a99" x="389.903551" y="47.312318" style="fill: #ff0000; stroke: #ff0000"/>
    </g>
    <g clip-path="url(#pe320698600)">
     <use xlink:href="#C0_0_7dd25d2a99" x="347.224032" y="68.903723" style="fill: #ff0000; stroke: #ff0000"/>
    </g>
    <g clip-path="url(#pe320698600)">
     <use xlink:href="#C0_0_7dd25d2a99" x="309.149494" y="93.221339" style="stroke: #000000"/>
    </g>
    <g clip-path="url(#pe320698600)">
     <use xlink:href="#C0_0_7dd25d2a99" x="306.042885" y="73.025704" style="fill: #ff0000; stroke: #ff0000"/>
    </g>
    <g clip-path="url(#pe320698600)">
     <use xlink:href="#C0_0_7dd25d2a99" x="39.986777" y="309.883735" style="fill: #ff0000; stroke: #ff0000"/>
    </g>
    <g clip-path="url(#pe320698600)">
     <use xlink:href="#C0_0_7dd25d2a99" x="121.916655" y="297.293651" style="stroke: #000000"/>
    </g>
    <g clip-path="url(#pe320698600)">
     <use xlink:href="#C0_0_7dd25d2a99" x="168.552096" y="201.651415" style="fill: #ff0000; stroke: #ff0000"/>
    </g>
    <g clip-path="url(#pe320698600)">
     <use xlink:href="#C0_0_7dd25d2a99" x="200.182018" y="227.767117" style="stroke: #000000"/>
    </g>
    <g clip-path="url(#pe320698600)">
     <use xlink:href="#C0_0_7dd25d2a99" x="237.806397" y="253.367145" style="fill: #ff0000; stroke: #ff0000"/>
    </g>
    <g clip-path="url(#pe320698600)">
     <use xlink:href="#C0_0_7dd25d2a99" x="213.703454" y="282.100525" style="stroke: #000000"/>
    </g>
    <g clip-path="url(#pe320698600)">
     <use xlink:href="#C0_0_7dd25d2a99" x="175.401523" y="303.950669" style="fill: #ff0000; stroke: #ff0000"/>
    </g>
    <g clip-path="url(#pe320698600)">
     <use xlink:href="#C0_0_7dd25d2a99" x="171.204998" y="288.486235" style="stroke: #000000"/>
    </g>
    <g clip-path="url(#pe320698600)">
     <use xlink:href="#C0_0_7dd25d2a99" x="128.103229" y="315.609917" style="fill: #ff0000; stroke: #ff0000"/>
    </g>
    <g clip-path="url(#pe320698600)">
     <use xlink:href="#C0_0_7dd25d2a99" x="84.940037" y="308.091916" style="stroke: #000000"/>
    </g>
   </g>
   <g id="text_1">
    <g clip-path="url(#pe320698600)">
     <!-- 0 -->
     <g transform="translate(336.492715 222.250706) scale(0.1 -0.1)">
      <defs>
       <path id="DejaVuSans-30" d="M 2034 4250 
Q 1547 4250 1301 3770 
Q 1056 3291 1056 2328 
Q 1056 1369 1301 889 
Q 1547 409 2034 409 
Q 2525 409 2770 889 
Q 3016 1369 3016 2328 
Q 3016 3291 2770 3770 
Q 2525 4250 2034 4250 
z
M 2034 4750 
Q 2819 4750 3233 4129 
Q 3647 3509 3647 2328 
Q 3647 1150 3233 529 
Q 2819 -91 2034 -91 
Q 1250 -91 836 529 
Q 422 1150 422 2328 
Q 422 3509 836 4129 
Q 1250 4750 2034 4750 
z
" transform="scale(0.015625)"/>
      </defs>
      <use xlink:href="#DejaVuSans-30"/>
     </g>
    </g>
   </g>
   <g id="text_2">
    <g clip-path="url(#pe320698600)">
     <!-- 1 -->
     <g transform="translate(348.599372 196.186199) scale(0.1 -0.1)">
      <defs>
       <path id="DejaVuSans-31" d="M 794 531 
L 1825 531 
L 1825 4091 
L 703 3866 
L 703 4441 
L 1819 4666 
L 2450 4666 
L 2450 531 
L 3481 531 
L 3481 0 
L 794 0 
L 794 531 
z
" transform="scale(0.015625)"/>
      </defs>
      <use xlink:href="#DejaVuSans-31"/>
     </g>
    </g>
   </g>
   <g id="text_3">
    <g clip-path="url(#pe320698600)">
     <!-- 2 -->
     <g transform="translate(212.971884 274.050062) scale(0.1 -0.1)">
      <defs>
       <path id="DejaVuSans-32" d="M 1228 531 
L 3431 531 
L 3431 0 
L 469 0 
L 469 531 
Q 828 903 1448 1529 
Q 2069 2156 2228 2338 
Q 2531 2678 2651 2914 
Q 2772 3150 2772 3378 
Q 2772 3750 2511 3984 
Q 2250 4219 1831 4219 
Q 1534 4219 1204 4116 
Q 875 4013 500 3803 
L 500 4441 
Q 881 4594 1212 4672 
Q 1544 4750 1819 4750 
Q 2544 4750 2975 4387 
Q 3406 4025 3406 3419 
Q 3406 3131 3298 2873 
Q 3191 2616 2906 2266 
Q 2828 2175 2409 1742 
Q 1991 1309 1228 531 
z
" transform="scale(0.015625)"/>
      </defs>
      <use xlink:href="#DejaVuSans-32"/>
     </g>
    </g>
   </g>
   <g id="text_4">
    <g clip-path="url(#pe320698600)">
     <!-- 3 -->
     <g transform="translate(294.189981 242.574595) scale(0.1 -0.1)">
      <defs>
       <path id="DejaVuSans-33" d="M 2597 2516 
Q 3050 2419 3304 2112 
Q 3559 1806 3559 1356 
Q 3559 666 3084 287 
Q 2609 -91 1734 -91 
Q 1441 -91 1130 -33 
Q 819 25 488 141 
L 488 750 
Q 750 597 1062 519 
Q 1375 441 1716 441 
Q 2309 441 2620 675 
Q 2931 909 2931 1356 
Q 2931 1769 2642 2001 
Q 2353 2234 1838 2234 
L 1294 2234 
L 1294 2753 
L 1863 2753 
Q 2328 2753 2575 2939 
Q 2822 3125 2822 3475 
Q 2822 3834 2567 4026 
Q 2313 4219 1838 4219 
Q 1578 4219 1281 4162 
Q 984 4106 628 3988 
L 628 4550 
Q 988 4650 1302 4700 
Q 1616 4750 1894 4750 
Q 2613 4750 3031 4423 
Q 3450 4097 3450 3541 
Q 3450 3153 3228 2886 
Q 3006 2619 2597 2516 
z
" transform="scale(0.015625)"/>
      </defs>
      <use xlink:href="#DejaVuSans-33"/>
     </g>
    </g>
   </g>
   <g id="text_5">
    <g clip-path="url(#pe320698600)">
     <!-- 4 -->
     <g transform="translate(151.588179 175.820294) scale(0.1 -0.1)">
      <defs>
       <path id="DejaVuSans-34" d="M 2419 4116 
L 825 1625 
L 2419 1625 
L 2419 4116 
z
M 2253 4666 
L 3047 4666 
L 3047 1625 
L 3713 1625 
L 3713 1100 
L 3047 1100 
L 3047 0 
L 2419 0 
L 2419 1100 
L 313 1100 
L 313 1709 
L 2253 4666 
z
" transform="scale(0.015625)"/>
      </defs>
      <use xlink:href="#DejaVuSans-34"/>
     </g>
    </g>
   </g>
   <g id="text_6">
    <g clip-path="url(#pe320698600)">
     <!-- 5 -->
     <g transform="translate(166.71456 147.672532) scale(0.1 -0.1)">
      <defs>
       <path id="DejaVuSans-35" d="M 691 4666 
L 3169 4666 
L 3169 4134 
L 1269 4134 
L 1269 2991 
Q 1406 3038 1543 3061 
Q 1681 3084 1819 3084 
Q 2600 3084 3056 2656 
Q 3513 2228 3513 1497 
Q 3513 744 3044 326 
Q 2575 -91 1722 -91 
Q 1428 -91 1123 -41 
Q 819 9 494 109 
L 494 744 
Q 775 591 1075 516 
Q 1375 441 1709 441 
Q 2250 441 2565 725 
Q 2881 1009 2881 1497 
Q 2881 1984 2565 2268 
Q 2250 2553 1709 2553 
Q 1456 2553 1204 2497 
Q 953 2441 691 2322 
L 691 4666 
z
" transform="scale(0.015625)"/>
      </defs>
      <use xlink:href="#DejaVuSans-35"/>
     </g>
    </g>
   </g>
   <g id="text_7">
    <g clip-path="url(#pe320698600)">
     <!-- 6 -->
     <g transform="translate(323.538899 172.971645) scale(0.1 -0.1)">
      <defs>
       <path id="DejaVuSans-36" d="M 2113 2584 
Q 1688 2584 1439 2293 
Q 1191 2003 1191 1497 
Q 1191 994 1439 701 
Q 1688 409 2113 409 
Q 2538 409 2786 701 
Q 3034 994 3034 1497 
Q 3034 2003 2786 2293 
Q 2538 2584 2113 2584 
z
M 3366 4563 
L 3366 3988 
Q 3128 4100 2886 4159 
Q 2644 4219 2406 4219 
Q 1781 4219 1451 3797 
Q 1122 3375 1075 2522 
Q 1259 2794 1537 2939 
Q 1816 3084 2150 3084 
Q 2853 3084 3261 2657 
Q 3669 2231 3669 1497 
Q 3669 778 3244 343 
Q 2819 -91 2113 -91 
Q 1303 -91 875 529 
Q 447 1150 447 2328 
Q 447 3434 972 4092 
Q 1497 4750 2381 4750 
Q 2619 4750 2861 4703 
Q 3103 4656 3366 4563 
z
" transform="scale(0.015625)"/>
      </defs>
      <use xlink:href="#DejaVuSans-36"/>
     </g>
    </g>
   </g>
   <g id="text_8">
    <g clip-path="url(#pe320698600)">
     <!-- 7 -->
     <g transform="translate(277.699606 154.474873) scale(0.1 -0.1)">
      <defs>
       <path id="DejaVuSans-37" d="M 525 4666 
L 3525 4666 
L 3525 4397 
L 1831 0 
L 1172 0 
L 2766 4134 
L 525 4134 
L 525 4666 
z
" transform="scale(0.015625)"/>
      </defs>
      <use xlink:href="#DejaVuSans-37"/>
     </g>
    </g>
   </g>
   <g id="text_9">
    <g clip-path="url(#pe320698600)">
     <!-- 8 -->
     <g transform="translate(149.43063 126.395427) scale(0.1 -0.1)">
      <defs>
       <path id="DejaVuSans-38" d="M 2034 2216 
Q 1584 2216 1326 1975 
Q 1069 1734 1069 1313 
Q 1069 891 1326 650 
Q 1584 409 2034 409 
Q 2484 409 2743 651 
Q 3003 894 3003 1313 
Q 3003 1734 2745 1975 
Q 2488 2216 2034 2216 
z
M 1403 2484 
Q 997 2584 770 2862 
Q 544 3141 544 3541 
Q 544 4100 942 4425 
Q 1341 4750 2034 4750 
Q 2731 4750 3128 4425 
Q 3525 4100 3525 3541 
Q 3525 3141 3298 2862 
Q 3072 2584 2669 2484 
Q 3125 2378 3379 2068 
Q 3634 1759 3634 1313 
Q 3634 634 3220 271 
Q 2806 -91 2034 -91 
Q 1263 -91 848 271 
Q 434 634 434 1313 
Q 434 1759 690 2068 
Q 947 2378 1403 2484 
z
M 1172 3481 
Q 1172 3119 1398 2916 
Q 1625 2713 2034 2713 
Q 2441 2713 2670 2916 
Q 2900 3119 2900 3481 
Q 2900 3844 2670 4047 
Q 2441 4250 2034 4250 
Q 1625 4250 1398 4047 
Q 1172 3844 1172 3481 
z
" transform="scale(0.015625)"/>
      </defs>
      <use xlink:href="#DejaVuSans-38"/>
     </g>
    </g>
   </g>
   <g id="text_10">
    <g clip-path="url(#pe320698600)">
     <!-- 9 -->
     <g transform="translate(223.27198 137.610191) scale(0.1 -0.1)">
      <defs>
       <path id="DejaVuSans-39" d="M 703 97 
L 703 672 
Q 941 559 1184 500 
Q 1428 441 1663 441 
Q 2288 441 2617 861 
Q 2947 1281 2994 2138 
Q 2813 1869 2534 1725 
Q 2256 1581 1919 1581 
Q 1219 1581 811 2004 
Q 403 2428 403 3163 
Q 403 3881 828 4315 
Q 1253 4750 1959 4750 
Q 2769 4750 3195 4129 
Q 3622 3509 3622 2328 
Q 3622 1225 3098 567 
Q 2575 -91 1691 -91 
Q 1453 -91 1209 -44 
Q 966 3 703 97 
z
M 1959 2075 
Q 2384 2075 2632 2365 
Q 2881 2656 2881 3163 
Q 2881 3666 2632 3958 
Q 2384 4250 1959 4250 
Q 1534 4250 1286 3958 
Q 1038 3666 1038 3163 
Q 1038 2656 1286 2365 
Q 1534 2075 1959 2075 
z
" transform="scale(0.015625)"/>
      </defs>
      <use xlink:href="#DejaVuSans-39"/>
     </g>
    </g>
   </g>
   <g id="text_11">
    <g clip-path="url(#pe320698600)">
     <!-- 10 -->
     <g transform="translate(414.450723 32.749458) scale(0.1 -0.1)">
      <use xlink:href="#DejaVuSans-31"/>
      <use xlink:href="#DejaVuSans-30" x="63.623047"/>
     </g>
    </g>
   </g>
   <g id="text_12">
    <g clip-path="url(#pe320698600)">
     <!-- 11 -->
     <g transform="translate(246.447875 109.118583) scale(0.1 -0.1)">
      <use xlink:href="#DejaVuSans-31"/>
      <use xlink:href="#DejaVuSans-31" x="63.623047"/>
     </g>
    </g>
   </g>
   <g id="text_13">
    <g clip-path="url(#pe320698600)">
     <!-- 12 -->
     <g transform="translate(257.032095 90.342997) scale(0.1 -0.1)">
      <use xlink:href="#DejaVuSans-31"/>
      <use xlink:href="#DejaVuSans-32" x="63.623047"/>
     </g>
    </g>
   </g>
   <g id="text_14">
    <g clip-path="url(#pe320698600)">
     <!-- 13 -->
     <g transform="translate(224.922399 109.051194) scale(0.1 -0.1)">
      <use xlink:href="#DejaVuSans-31"/>
      <use xlink:href="#DejaVuSans-33" x="63.623047"/>
     </g>
    </g>
   </g>
   <g id="text_15">
    <g clip-path="url(#pe320698600)">
     <!-- 14 -->
     <g transform="translate(184.710304 116.496113) scale(0.1 -0.1)">
      <use xlink:href="#DejaVuSans-31"/>
      <use xlink:href="#DejaVuSans-34" x="63.623047"/>
     </g>
    </g>
   </g>
   <g id="text_16">
    <g clip-path="url(#pe320698600)">
     <!-- 15 -->
     <g transform="translate(383.541051 50.071693) scale(0.1 -0.1)">
      <use xlink:href="#DejaVuSans-31"/>
      <use xlink:href="#DejaVuSans-35" x="63.623047"/>
     </g>
    </g>
   </g>
   <g id="text_17">
    <g clip-path="url(#pe320698600)">
     <!-- 16 -->
     <g transform="translate(340.861532 71.663098) scale(0.1 -0.1)">
      <use xlink:href="#DejaVuSans-31"/>
      <use xlink:href="#DejaVuSans-36" x="63.623047"/>
     </g>
    </g>
   </g>
   <g id="text_18">
    <g clip-path="url(#pe320698600)">
     <!-- 17 -->
     <g transform="translate(302.786994 95.980714) scale(0.1 -0.1)">
      <use xlink:href="#DejaVuSans-31"/>
      <use xlink:href="#DejaVuSans-37" x="63.623047"/>
     </g>
    </g>
   </g>
   <g id="text_19">
    <g clip-path="url(#pe320698600)">
     <!-- 18 -->
     <g transform="translate(299.680385 75.785079) scale(0.1 -0.1)">
      <use xlink:href="#DejaVuSans-31"/>
      <use xlink:href="#DejaVuSans-38" x="63.623047"/>
     </g>
    </g>
   </g>
   <g id="text_20">
    <g clip-path="url(#pe320698600)">
     <!-- 19 -->
     <g transform="translate(33.624277 312.64311) scale(0.1 -0.1)">
      <use xlink:href="#DejaVuSans-31"/>
      <use xlink:href="#DejaVuSans-39" x="63.623047"/>
     </g>
    </g>
   </g>
   <g id="text_21">
    <g clip-path="url(#pe320698600)">
     <!-- 20 -->
     <g transform="translate(115.554155 300.053026) scale(0.1 -0.1)">
      <use xlink:href="#DejaVuSans-32"/>
      <use xlink:href="#DejaVuSans-30" x="63.623047"/>
     </g>
    </g>
   </g>
   <g id="text_22">
    <g clip-path="url(#pe320698600)">
     <!-- 21 -->
     <g transform="translate(162.189596 204.41079) scale(0.1 -0.1)">
      <use xlink:href="#DejaVuSans-32"/>
      <use xlink:href="#DejaVuSans-31" x="63.623047"/>
     </g>
    </g>
   </g>
   <g id="text_23">
    <g clip-path="url(#pe320698600)">
     <!-- 22 -->
     <g transform="translate(193.819518 230.526492) scale(0.1 -0.1)">
      <use xlink:href="#DejaVuSans-32"/>
      <use xlink:href="#DejaVuSans-32" x="63.623047"/>
     </g>
    </g>
   </g>
   <g id="text_24">
    <g clip-path="url(#pe320698600)">
     <!-- 23 -->
     <g transform="translate(231.443897 256.12652) scale(0.1 -0.1)">
      <use xlink:href="#DejaVuSans-32"/>
      <use xlink:href="#DejaVuSans-33" x="63.623047"/>
     </g>
    </g>
   </g>
   <g id="text_25">
    <g clip-path="url(#pe320698600)">
     <!-- 24 -->
     <g transform="translate(207.340954 284.8599) scale(0.1 -0.1)">
      <use xlink:href="#DejaVuSans-32"/>
      <use xlink:href="#DejaVuSans-34" x="63.623047"/>
     </g>
    </g>
   </g>
   <g id="text_26">
    <g clip-path="url(#pe320698600)">
     <!-- 25 -->
     <g transform="translate(169.039023 306.710044) scale(0.1 -0.1)">
      <use xlink:href="#DejaVuSans-32"/>
      <use xlink:href="#DejaVuSans-35" x="63.623047"/>
     </g>
    </g>
   </g>
   <g id="text_27">
    <g clip-path="url(#pe320698600)">
     <!-- 26 -->
     <g transform="translate(164.842498 291.24561) scale(0.1 -0.1)">
      <use xlink:href="#DejaVuSans-32"/>
      <use xlink:href="#DejaVuSans-36" x="63.623047"/>
     </g>
    </g>
   </g>
   <g id="text_28">
    <g clip-path="url(#pe320698600)">
     <!-- 27 -->
     <g transform="translate(121.740729 318.369292) scale(0.1 -0.1)">
      <use xlink:href="#DejaVuSans-32"/>
      <use xlink:href="#DejaVuSans-37" x="63.623047"/>
     </g>
    </g>
   </g>
   <g id="text_29">
    <g clip-path="url(#pe320698600)">
     <!-- 28 -->
     <g transform="translate(78.577537 310.851291) scale(0.1 -0.1)">
      <use xlink:href="#DejaVuSans-32"/>
      <use xlink:href="#DejaVuSans-38" x="63.623047"/>
     </g>
    </g>
   </g>
  </g>
 </g>
 <defs>
  <clipPath id="pe320698600">
   <rect x="0" y="0" width="460.8" height="345.6"/>
  </clipPath>
 </defs>
</svg>
