<?xml version="1.0" encoding="utf-8" standalone="no"?>
<!DOCTYPE svg PUBLIC "-//W3C//DTD SVG 1.1//EN"
  "http://www.w3.org/Graphics/SVG/1.1/DTD/svg11.dtd">
<svg xmlns:xlink="http://www.w3.org/1999/xlink" width="460.8pt" height="345.6pt" viewBox="0 0 460.8 345.6" xmlns="http://www.w3.org/2000/svg" version="1.1">
 <metadata>
  <rdf:RDF xmlns:dc="http://purl.org/dc/elements/1.1/" xmlns:cc="http://creativecommons.org/ns#" xmlns:rdf="http://www.w3.org/1999/02/22-rdf-syntax-ns#">
   <cc:Work>
    <dc:type rdf:resource="http://purl.org/dc/dcmitype/StillImage"/>
    <dc:date>2024-02-07T13:47:03.382662</dc:date>
    <dc:format>image/svg+xml</dc:format>
    <dc:creator>
     <cc:Agent>
      <dc:title>Matplotlib v3.8.0, https://matplotlib.org/</dc:title>
     </cc:Agent>
    </dc:creator>
   </cc:Work>
  </rdf:RDF>
 </metadata>
 <defs>
  <style type="text/css">*{stroke-linejoin: round; stroke-linecap: butt}</style>
 </defs>
 <g id="figure_1">
  <g id="patch_1">
   <path d="M 0 345.6 
L 460.8 345.6 
L 460.8 0 
L 0 0 
z
" style="fill: #ffffff"/>
  </g>
  <g id="axes_1">
   <g id="patch_2">
    <path d="M 113.773125 148.08101 
Q 143.035339 142.862194 171.196886 137.839679 
" clip-path="url(#p108fef66e6)" style="fill: none; stroke: #000000; stroke-linecap: round"/>
    <path d="M 166.90787 136.573052 
L 171.196886 137.839679 
L 167.610175 140.510915 
z
" clip-path="url(#p108fef66e6)" style="stroke: #000000; stroke-linecap: round"/>
   </g>
   <g id="patch_3">
    <path d="M 110.109196 149.229656 
Q 86.651197 160.022012 64.208894 170.347075 
" clip-path="url(#p108fef66e6)" style="fill: none; stroke: #000000; stroke-linecap: round"/>
    <path d="M 68.678676 170.49217 
L 64.208894 170.347075 
L 67.006839 166.858307 
z
" clip-path="url(#p108fef66e6)" style="stroke: #000000; stroke-linecap: round"/>
   </g>
   <g id="patch_4">
    <path d="M 119.727797 77.484108 
Q 146.312774 106.676261 172.144958 135.041794 
" clip-path="url(#p108fef66e6)" style="fill: none; stroke: #000000; stroke-linecap: round"/>
    <path d="M 170.930383 130.737748 
L 172.144958 135.041794 
L 167.972977 133.431026 
z
" clip-path="url(#p108fef66e6)" style="stroke: #000000; stroke-linecap: round"/>
   </g>
   <g id="patch_5">
    <path d="M 117.578173 74.313852 
Q 107.210516 53.021724 97.332317 32.734798 
" clip-path="url(#p108fef66e6)" style="fill: none; stroke: #000000; stroke-linecap: round"/>
    <path d="M 97.285293 37.206687 
L 97.332317 32.734798 
L 100.881614 35.455551 
z
" clip-path="url(#p108fef66e6)" style="stroke: #000000; stroke-linecap: round"/>
   </g>
   <g id="patch_6">
    <path d="M 116.646928 75.285082 
Q 95.111282 65.972883 74.601841 57.104424 
" clip-path="url(#p108fef66e6)" style="fill: none; stroke: #000000; stroke-linecap: round"/>
    <path d="M 77.479516 60.527725 
L 74.601841 57.104424 
L 79.067087 56.856265 
z
" clip-path="url(#p108fef66e6)" style="stroke: #000000; stroke-linecap: round"/>
   </g>
   <g id="patch_7">
    <path d="M 141.10255 205.668016 
Q 127.748803 236.658328 114.83749 266.621873 
" clip-path="url(#p108fef66e6)" style="fill: none; stroke: #000000; stroke-linecap: round"/>
    <path d="M 118.25713 263.739849 
L 114.83749 266.621873 
L 114.583656 262.156946 
z
" clip-path="url(#p108fef66e6)" style="stroke: #000000; stroke-linecap: round"/>
   </g>
   <g id="patch_8">
    <path d="M 142.716249 202.144473 
Q 158.036585 170.596528 172.868524 140.054302 
" clip-path="url(#p108fef66e6)" style="fill: none; stroke: #000000; stroke-linecap: round"/>
    <path d="M 169.322098 142.778795 
L 172.868524 140.054302 
L 172.920263 144.526138 
z
" clip-path="url(#p108fef66e6)" style="stroke: #000000; stroke-linecap: round"/>
   </g>
   <g id="patch_9">
    <path d="M 172.298278 137.643249 
Q 143.036065 142.862065 114.874518 147.88458 
" clip-path="url(#p108fef66e6)" style="fill: none; stroke: #000000; stroke-linecap: round"/>
    <path d="M 119.163534 149.151208 
L 114.874518 147.88458 
L 118.461229 145.213344 
z
" clip-path="url(#p108fef66e6)" style="stroke: #000000; stroke-linecap: round"/>
   </g>
   <g id="patch_10">
    <path d="M 172.902263 135.873368 
Q 146.317285 106.681214 120.485102 78.315681 
" clip-path="url(#p108fef66e6)" style="fill: none; stroke: #000000; stroke-linecap: round"/>
    <path d="M 121.699677 82.619727 
L 120.485102 78.315681 
L 124.657083 79.926449 
z
" clip-path="url(#p108fef66e6)" style="stroke: #000000; stroke-linecap: round"/>
   </g>
   <g id="patch_11">
    <path d="M 173.357815 139.046744 
Q 158.037479 170.594688 143.205541 201.136915 
" clip-path="url(#p108fef66e6)" style="fill: none; stroke: #000000; stroke-linecap: round"/>
    <path d="M 146.751966 198.412422 
L 143.205541 201.136915 
L 143.153802 196.665078 
z
" clip-path="url(#p108fef66e6)" style="stroke: #000000; stroke-linecap: round"/>
   </g>
   <g id="patch_12">
    <path d="M 174.716758 135.432654 
Q 180.919396 112.783405 186.826726 91.212485 
" clip-path="url(#p108fef66e6)" style="fill: none; stroke: #000000; stroke-linecap: round"/>
    <path d="M 183.841229 94.542171 
L 186.826726 91.212485 
L 187.699177 95.598694 
z
" clip-path="url(#p108fef66e6)" style="stroke: #000000; stroke-linecap: round"/>
   </g>
   <g id="patch_13">
    <path d="M 173.541179 135.483732 
Q 166.968714 117.454123 160.779166 100.474931 
" clip-path="url(#p108fef66e6)" style="fill: none; stroke: #000000; stroke-linecap: round"/>
    <path d="M 160.270085 104.917997 
L 160.779166 100.474931 
L 164.02817 103.548035 
z
" clip-path="url(#p108fef66e6)" style="stroke: #000000; stroke-linecap: round"/>
   </g>
   <g id="patch_14">
    <path d="M 175.213855 138.954467 
Q 192.218565 166.771384 208.64014 193.634387 
" clip-path="url(#p108fef66e6)" style="fill: none; stroke: #000000; stroke-linecap: round"/>
    <path d="M 208.260265 189.178414 
L 208.64014 193.634387 
L 204.847437 191.264704 
z
" clip-path="url(#p108fef66e6)" style="stroke: #000000; stroke-linecap: round"/>
   </g>
   <g id="patch_15">
    <path d="M 176.110001 137.650224 
Q 215.665133 144.852015 254.120314 151.853537 
" clip-path="url(#p108fef66e6)" style="fill: none; stroke: #000000; stroke-linecap: round"/>
    <path d="M 250.543258 149.169385 
L 254.120314 151.853537 
L 249.826758 153.10469 
z
" clip-path="url(#p108fef66e6)" style="stroke: #000000; stroke-linecap: round"/>
   </g>
   <g id="patch_16">
    <path d="M 175.667542 136.031124 
Q 191.061905 122.645477 205.612573 109.993436 
" clip-path="url(#p108fef66e6)" style="fill: none; stroke: #000000; stroke-linecap: round"/>
    <path d="M 201.281762 111.108819 
L 205.612573 109.993436 
L 203.906393 114.127314 
z
" clip-path="url(#p108fef66e6)" style="stroke: #000000; stroke-linecap: round"/>
   </g>
   <g id="patch_17">
    <path d="M 96.843261 31.73042 
Q 107.210918 53.022548 117.089117 73.309474 
" clip-path="url(#p108fef66e6)" style="fill: none; stroke: #000000; stroke-linecap: round"/>
    <path d="M 117.136141 68.837585 
L 117.089117 73.309474 
L 113.53982 70.588722 
z
" clip-path="url(#p108fef66e6)" style="stroke: #000000; stroke-linecap: round"/>
   </g>
   <g id="patch_18">
    <path d="M 73.577793 56.661617 
Q 95.113438 65.973815 115.622879 74.842275 
" clip-path="url(#p108fef66e6)" style="fill: none; stroke: #000000; stroke-linecap: round"/>
    <path d="M 112.745204 71.418974 
L 115.622879 74.842275 
L 111.157633 75.090434 
z
" clip-path="url(#p108fef66e6)" style="stroke: #000000; stroke-linecap: round"/>
   </g>
   <g id="patch_19">
    <path d="M 187.121412 90.136423 
Q 180.918775 112.785672 175.011445 134.356592 
" clip-path="url(#p108fef66e6)" style="fill: none; stroke: #000000; stroke-linecap: round"/>
    <path d="M 177.996941 131.026905 
L 175.011445 134.356592 
L 174.138994 129.970383 
z
" clip-path="url(#p108fef66e6)" style="stroke: #000000; stroke-linecap: round"/>
   </g>
   <g id="patch_20">
    <path d="M 292.74306 253.97338 
Q 308.214385 240.211259 322.850344 227.192215 
" clip-path="url(#p108fef66e6)" style="fill: none; stroke: #000000; stroke-linecap: round"/>
    <path d="M 318.532392 228.356385 
L 322.850344 227.192215 
L 321.190908 231.345079 
z
" clip-path="url(#p108fef66e6)" style="stroke: #000000; stroke-linecap: round"/>
   </g>
   <g id="patch_21">
    <path d="M 289.361354 255.216562 
Q 266.266761 254.684545 244.289905 254.178276 
" clip-path="url(#p108fef66e6)" style="fill: none; stroke: #000000; stroke-linecap: round"/>
    <path d="M 248.242784 256.269867 
L 244.289905 254.178276 
L 248.334905 252.270928 
z
" clip-path="url(#p108fef66e6)" style="stroke: #000000; stroke-linecap: round"/>
   </g>
   <g id="patch_22">
    <path d="M 243.17052 254.15249 
Q 266.265113 254.684507 288.241969 255.190775 
" clip-path="url(#p108fef66e6)" style="fill: none; stroke: #000000; stroke-linecap: round"/>
    <path d="M 284.28909 253.099185 
L 288.241969 255.190775 
L 284.196969 257.098124 
z
" clip-path="url(#p108fef66e6)" style="stroke: #000000; stroke-linecap: round"/>
   </g>
   <g id="patch_23">
    <path d="M 240.71365 255.973166 
Q 234.085875 279.618152 227.759857 302.186597 
" clip-path="url(#p108fef66e6)" style="fill: none; stroke: #000000; stroke-linecap: round"/>
    <path d="M 230.765237 298.874847 
L 227.759857 302.186597 
L 226.913685 297.795243 
z
" clip-path="url(#p108fef66e6)" style="stroke: #000000; stroke-linecap: round"/>
   </g>
   <g id="patch_24">
    <path d="M 240.322538 252.402055 
Q 225.734776 225.173906 211.675009 198.931263 
" clip-path="url(#p108fef66e6)" style="fill: none; stroke: #000000; stroke-linecap: round"/>
    <path d="M 211.801095 203.401621 
L 211.675009 198.931263 
L 215.326947 201.512609 
z
" clip-path="url(#p108fef66e6)" style="stroke: #000000; stroke-linecap: round"/>
   </g>
   <g id="patch_25">
    <path d="M 227.458713 303.260947 
Q 234.086489 279.615961 240.412506 257.047516 
" clip-path="url(#p108fef66e6)" style="fill: none; stroke: #000000; stroke-linecap: round"/>
    <path d="M 237.407126 260.359266 
L 240.412506 257.047516 
L 241.258678 261.438871 
z
" clip-path="url(#p108fef66e6)" style="stroke: #000000; stroke-linecap: round"/>
   </g>
   <g id="patch_26">
    <path d="M 160.397158 99.427005 
Q 166.969622 117.456614 173.159171 134.435806 
" clip-path="url(#p108fef66e6)" style="fill: none; stroke: #000000; stroke-linecap: round"/>
    <path d="M 173.668251 129.99274 
L 173.159171 134.435806 
L 169.910166 131.362702 
z
" clip-path="url(#p108fef66e6)" style="stroke: #000000; stroke-linecap: round"/>
   </g>
   <g id="patch_27">
    <path d="M 323.683073 226.451482 
Q 308.211749 240.213603 293.57579 253.232647 
" clip-path="url(#p108fef66e6)" style="fill: none; stroke: #000000; stroke-linecap: round"/>
    <path d="M 297.893742 252.068477 
L 293.57579 253.232647 
L 295.235225 249.079784 
z
" clip-path="url(#p108fef66e6)" style="stroke: #000000; stroke-linecap: round"/>
   </g>
   <g id="patch_28">
    <path d="M 325.377404 223.242348 
Q 328.106579 201.98333 330.693391 181.833245 
" clip-path="url(#p108fef66e6)" style="fill: none; stroke: #000000; stroke-linecap: round"/>
    <path d="M 328.200342 185.546021 
L 330.693391 181.833245 
L 332.167782 186.05535 
z
" clip-path="url(#p108fef66e6)" style="stroke: #000000; stroke-linecap: round"/>
   </g>
   <g id="patch_29">
    <path d="M 419.268233 230.87411 
Q 402.911567 218.534691 387.447441 206.868601 
" clip-path="url(#p108fef66e6)" style="fill: none; stroke: #000000; stroke-linecap: round"/>
    <path d="M 389.436201 210.874202 
L 387.447441 206.868601 
L 391.845177 207.680954 
z
" clip-path="url(#p108fef66e6)" style="stroke: #000000; stroke-linecap: round"/>
   </g>
   <g id="patch_30">
    <path d="M 209.224923 194.590996 
Q 192.220212 166.774078 175.798637 139.911075 
" clip-path="url(#p108fef66e6)" style="fill: none; stroke: #000000; stroke-linecap: round"/>
    <path d="M 176.178513 144.367048 
L 175.798637 139.911075 
L 179.591341 142.280758 
z
" clip-path="url(#p108fef66e6)" style="stroke: #000000; stroke-linecap: round"/>
   </g>
   <g id="patch_31">
    <path d="M 211.148247 197.948058 
Q 225.736009 225.176207 239.795776 251.41885 
" clip-path="url(#p108fef66e6)" style="fill: none; stroke: #000000; stroke-linecap: round"/>
    <path d="M 239.66969 246.948492 
L 239.795776 251.41885 
L 236.143838 248.837504 
z
" clip-path="url(#p108fef66e6)" style="stroke: #000000; stroke-linecap: round"/>
   </g>
   <g id="patch_32">
    <path d="M 255.22098 152.053935 
Q 215.665848 144.852145 177.210667 137.850622 
" clip-path="url(#p108fef66e6)" style="fill: none; stroke: #000000; stroke-linecap: round"/>
    <path d="M 180.787722 140.534775 
L 177.210667 137.850622 
L 181.504222 136.59947 
z
" clip-path="url(#p108fef66e6)" style="stroke: #000000; stroke-linecap: round"/>
   </g>
   <g id="patch_33">
    <path d="M 258.954646 153.053469 
Q 294.105157 165.601229 328.202712 177.773112 
" clip-path="url(#p108fef66e6)" style="fill: none; stroke: #000000; stroke-linecap: round"/>
    <path d="M 325.107929 174.544751 
L 328.202712 177.773112 
L 323.763153 178.311922 
z
" clip-path="url(#p108fef66e6)" style="stroke: #000000; stroke-linecap: round"/>
   </g>
   <g id="patch_34">
    <path d="M 386.554659 206.195089 
Q 402.911325 218.534508 418.375451 230.200598 
" clip-path="url(#p108fef66e6)" style="fill: none; stroke: #000000; stroke-linecap: round"/>
    <path d="M 416.386692 226.194997 
L 418.375451 230.200598 
L 413.977715 229.388245 
z
" clip-path="url(#p108fef66e6)" style="stroke: #000000; stroke-linecap: round"/>
   </g>
   <g id="patch_35">
    <path d="M 383.268495 204.182702 
Q 358.046712 191.915632 333.830352 180.137566 
" clip-path="url(#p108fef66e6)" style="fill: none; stroke: #000000; stroke-linecap: round"/>
    <path d="M 336.552701 183.685639 
L 333.830352 180.137566 
L 338.302219 180.088531 
z
" clip-path="url(#p108fef66e6)" style="stroke: #000000; stroke-linecap: round"/>
   </g>
   <g id="patch_36">
    <path d="M 330.835977 180.722566 
Q 328.106803 201.981584 325.51999 222.131669 
" clip-path="url(#p108fef66e6)" style="fill: none; stroke: #000000; stroke-linecap: round"/>
    <path d="M 328.01304 218.418893 
L 325.51999 222.131669 
L 324.045599 217.909564 
z
" clip-path="url(#p108fef66e6)" style="stroke: #000000; stroke-linecap: round"/>
   </g>
   <g id="patch_37">
    <path d="M 329.254502 178.148572 
Q 294.10399 165.600812 260.006435 153.428929 
" clip-path="url(#p108fef66e6)" style="fill: none; stroke: #000000; stroke-linecap: round"/>
    <path d="M 263.101218 156.65729 
L 260.006435 153.428929 
L 264.445994 152.890119 
z
" clip-path="url(#p108fef66e6)" style="stroke: #000000; stroke-linecap: round"/>
   </g>
   <g id="patch_38">
    <path d="M 332.823815 179.648019 
Q 358.045598 191.915089 382.261958 203.693155 
" clip-path="url(#p108fef66e6)" style="fill: none; stroke: #000000; stroke-linecap: round"/>
    <path d="M 379.53961 200.145082 
L 382.261958 203.693155 
L 377.790091 203.74219 
z
" clip-path="url(#p108fef66e6)" style="stroke: #000000; stroke-linecap: round"/>
   </g>
   <g id="patch_39">
    <path d="M 332.713355 177.755857 
Q 350.698567 166.227083 367.742525 155.301667 
" clip-path="url(#p108fef66e6)" style="fill: none; stroke: #000000; stroke-linecap: round"/>
    <path d="M 363.295672 155.776537 
L 367.742525 155.301667 
L 365.454309 159.144071 
z
" clip-path="url(#p108fef66e6)" style="stroke: #000000; stroke-linecap: round"/>
   </g>
   <g id="patch_40">
    <path d="M 368.684851 154.697623 
Q 350.699638 166.226397 333.655681 177.151813 
" clip-path="url(#p108fef66e6)" style="fill: none; stroke: #000000; stroke-linecap: round"/>
    <path d="M 338.102533 176.676943 
L 333.655681 177.151813 
L 335.943897 173.309409 
z
" clip-path="url(#p108fef66e6)" style="stroke: #000000; stroke-linecap: round"/>
   </g>
   <g id="patch_41">
    <path d="M 41.068144 213.764874 
Q 52.660823 231.020675 63.630024 247.348426 
" clip-path="url(#p108fef66e6)" style="fill: none; stroke: #000000; stroke-linecap: round"/>
    <path d="M 63.059554 242.912824 
L 63.630024 247.348426 
L 59.739261 245.143442 
z
" clip-path="url(#p108fef66e6)" style="stroke: #000000; stroke-linecap: round"/>
   </g>
   <g id="patch_42">
    <path d="M 40.891208 210.445871 
Q 50.708082 191.891959 60.002082 174.326278 
" clip-path="url(#p108fef66e6)" style="fill: none; stroke: #000000; stroke-linecap: round"/>
    <path d="M 56.363589 176.926541 
L 60.002082 174.326278 
L 59.899196 178.79723 
z
" clip-path="url(#p108fef66e6)" style="stroke: #000000; stroke-linecap: round"/>
   </g>
   <g id="patch_43">
    <path d="M 63.189094 170.816256 
Q 86.647093 160.023901 109.089396 149.698837 
" clip-path="url(#p108fef66e6)" style="fill: none; stroke: #000000; stroke-linecap: round"/>
    <path d="M 104.619614 149.553742 
L 109.089396 149.698837 
L 106.291451 153.187606 
z
" clip-path="url(#p108fef66e6)" style="stroke: #000000; stroke-linecap: round"/>
   </g>
   <g id="patch_44">
    <path d="M 60.526929 173.334317 
Q 50.710055 191.88823 41.416055 209.45391 
" clip-path="url(#p108fef66e6)" style="fill: none; stroke: #000000; stroke-linecap: round"/>
    <path d="M 45.054548 206.853648 
L 41.416055 209.45391 
L 41.518941 204.982958 
z
" clip-path="url(#p108fef66e6)" style="stroke: #000000; stroke-linecap: round"/>
   </g>
   <g id="patch_45">
    <path d="M 206.455768 109.260264 
Q 191.061405 122.645912 176.510737 135.297953 
" clip-path="url(#p108fef66e6)" style="fill: none; stroke: #000000; stroke-linecap: round"/>
    <path d="M 180.841548 134.18257 
L 176.510737 135.297953 
L 178.216917 131.164075 
z
" clip-path="url(#p108fef66e6)" style="stroke: #000000; stroke-linecap: round"/>
   </g>
   <g id="patch_46">
    <path d="M 144.565807 298.072828 
Q 129.808193 284.408224 115.870943 271.503225 
" clip-path="url(#p108fef66e6)" style="fill: none; stroke: #000000; stroke-linecap: round"/>
    <path d="M 117.447148 275.688387 
L 115.870943 271.503225 
L 120.164795 272.753359 
z
" clip-path="url(#p108fef66e6)" style="stroke: #000000; stroke-linecap: round"/>
   </g>
   <g id="patch_47">
    <path d="M 83.132447 305.19005 
Q 97.752383 288.045258 111.646876 271.75119 
" clip-path="url(#p108fef66e6)" style="fill: none; stroke: #000000; stroke-linecap: round"/>
    <path d="M 107.529632 273.497128 
L 111.646876 271.75119 
L 110.57328 276.092549 
z
" clip-path="url(#p108fef66e6)" style="stroke: #000000; stroke-linecap: round"/>
   </g>
   <g id="patch_48">
    <path d="M 121.333183 313.701605 
Q 117.646715 292.516902 114.151922 272.43368 
" clip-path="url(#p108fef66e6)" style="fill: none; stroke: #000000; stroke-linecap: round"/>
    <path d="M 112.867289 276.717338 
L 114.151922 272.43368 
L 116.808068 276.031581 
z
" clip-path="url(#p108fef66e6)" style="stroke: #000000; stroke-linecap: round"/>
   </g>
   <g id="patch_49">
    <path d="M 114.395766 267.64699 
Q 127.749514 236.656678 140.660826 206.693134 
" clip-path="url(#p108fef66e6)" style="fill: none; stroke: #000000; stroke-linecap: round"/>
    <path d="M 137.241186 209.575157 
L 140.660826 206.693134 
L 140.914661 211.15806 
z
" clip-path="url(#p108fef66e6)" style="stroke: #000000; stroke-linecap: round"/>
   </g>
   <g id="patch_50">
    <path d="M 115.048692 270.741873 
Q 129.806306 284.406477 143.743556 297.311476 
" clip-path="url(#p108fef66e6)" style="fill: none; stroke: #000000; stroke-linecap: round"/>
    <path d="M 142.167351 293.126314 
L 143.743556 297.311476 
L 139.449703 296.061342 
z
" clip-path="url(#p108fef66e6)" style="stroke: #000000; stroke-linecap: round"/>
   </g>
   <g id="patch_51">
    <path d="M 112.370888 270.902142 
Q 97.750952 288.046935 83.856459 304.341002 
" clip-path="url(#p108fef66e6)" style="fill: none; stroke: #000000; stroke-linecap: round"/>
    <path d="M 87.973703 302.595064 
L 83.856459 304.341002 
L 84.930055 299.999644 
z
" clip-path="url(#p108fef66e6)" style="stroke: #000000; stroke-linecap: round"/>
   </g>
   <g id="patch_52">
    <path d="M 113.960802 271.335388 
Q 117.64727 292.520091 121.142063 312.603313 
" clip-path="url(#p108fef66e6)" style="fill: none; stroke: #000000; stroke-linecap: round"/>
    <path d="M 122.426695 308.319655 
L 121.142063 312.603313 
L 118.485916 309.005412 
z
" clip-path="url(#p108fef66e6)" style="stroke: #000000; stroke-linecap: round"/>
   </g>
   <g id="patch_53">
    <path d="M 111.83356 268.700635 
Q 89.481639 259.655601 68.166112 251.029958 
" clip-path="url(#p108fef66e6)" style="fill: none; stroke: #000000; stroke-linecap: round"/>
    <path d="M 71.123793 254.384376 
L 68.166112 251.029958 
L 72.624255 250.676463 
z
" clip-path="url(#p108fef66e6)" style="stroke: #000000; stroke-linecap: round"/>
   </g>
   <g id="patch_54">
    <path d="M 64.251797 248.273939 
Q 52.659118 231.018138 41.689916 214.690387 
" clip-path="url(#p108fef66e6)" style="fill: none; stroke: #000000; stroke-linecap: round"/>
    <path d="M 42.260387 219.125989 
L 41.689916 214.690387 
L 45.58068 216.895371 
z
" clip-path="url(#p108fef66e6)" style="stroke: #000000; stroke-linecap: round"/>
   </g>
   <g id="patch_55">
    <path d="M 67.12833 250.610004 
Q 89.480251 259.655039 110.795778 268.280682 
" clip-path="url(#p108fef66e6)" style="fill: none; stroke: #000000; stroke-linecap: round"/>
    <path d="M 107.838097 264.926264 
L 110.795778 268.280682 
L 106.337635 268.634176 
z
" clip-path="url(#p108fef66e6)" style="stroke: #000000; stroke-linecap: round"/>
   </g>
   <g id="PathCollection_1">
    <defs>
     <path id="mb86bbe9f6d" d="M 0 1.936492 
C 0.513564 1.936492 1.006162 1.732451 1.369306 1.369306 
C 1.732451 1.006162 1.936492 0.513564 1.936492 0 
C 1.936492 -0.513564 1.732451 -1.006162 1.369306 -1.369306 
C 1.006162 -1.732451 0.513564 -1.936492 0 -1.936492 
C -0.513564 -1.936492 -1.006162 -1.732451 -1.369306 -1.369306 
C -1.732451 -1.006162 -1.936492 -0.513564 -1.936492 0 
C -1.936492 0.513564 -1.732451 1.006162 -1.369306 1.369306 
C -1.006162 1.732451 -0.513564 1.936492 0 1.936492 
z
" style="stroke: #1f78b4"/>
    </defs>
    <g clip-path="url(#p108fef66e6)">
     <use xlink:href="#mb86bbe9f6d" x="111.86693" y="148.420973" style="fill: #1f78b4; stroke: #1f78b4"/>
     <use xlink:href="#mb86bbe9f6d" x="118.425586" y="76.05419" style="fill: #1f78b4; stroke: #1f78b4"/>
     <use xlink:href="#mb86bbe9f6d" x="141.86959" y="203.887931" style="fill: #1f78b4; stroke: #1f78b4"/>
     <use xlink:href="#mb86bbe9f6d" x="174.204474" y="137.303286" style="fill: #1f78b4; stroke: #1f78b4"/>
     <use xlink:href="#mb86bbe9f6d" x="95.995848" y="29.990083" style="fill: #1f78b4; stroke: #1f78b4"/>
     <use xlink:href="#mb86bbe9f6d" x="71.799135" y="55.892509" style="fill: #1f78b4; stroke: #1f78b4"/>
     <use xlink:href="#mb86bbe9f6d" x="187.633696" y="88.265791" style="fill: #1f78b4; stroke: #1f78b4"/>
     <use xlink:href="#mb86bbe9f6d" x="291.295393" y="255.261115" style="fill: #1f78b4; stroke: #1f78b4"/>
     <use xlink:href="#mb86bbe9f6d" x="241.236481" y="254.107936" style="fill: #1f78b4; stroke: #1f78b4"/>
     <use xlink:href="#mb86bbe9f6d" x="226.935882" y="305.126177" style="fill: #1f78b4; stroke: #1f78b4"/>
     <use xlink:href="#mb86bbe9f6d" x="159.733862" y="97.607451" style="fill: #1f78b4; stroke: #1f78b4"/>
     <use xlink:href="#mb86bbe9f6d" x="325.130741" y="225.163747" style="fill: #1f78b4; stroke: #1f78b4"/>
     <use xlink:href="#mb86bbe9f6d" x="420.813223" y="232.039645" style="fill: #1f78b4; stroke: #1f78b4"/>
     <use xlink:href="#mb86bbe9f6d" x="210.234303" y="196.242177" style="fill: #1f78b4; stroke: #1f78b4"/>
     <use xlink:href="#mb86bbe9f6d" x="257.126506" y="152.400874" style="fill: #1f78b4; stroke: #1f78b4"/>
     <use xlink:href="#mb86bbe9f6d" x="385.009669" y="205.029554" style="fill: #1f78b4; stroke: #1f78b4"/>
     <use xlink:href="#mb86bbe9f6d" x="331.082641" y="178.801167" style="fill: #1f78b4; stroke: #1f78b4"/>
     <use xlink:href="#mb86bbe9f6d" x="370.315565" y="153.652312" style="fill: #1f78b4; stroke: #1f78b4"/>
     <use xlink:href="#mb86bbe9f6d" x="39.986777" y="212.155249" style="fill: #1f78b4; stroke: #1f78b4"/>
     <use xlink:href="#mb86bbe9f6d" x="61.43136" y="171.624939" style="fill: #1f78b4; stroke: #1f78b4"/>
     <use xlink:href="#mb86bbe9f6d" x="207.918836" y="107.988103" style="fill: #1f78b4; stroke: #1f78b4"/>
     <use xlink:href="#mb86bbe9f6d" x="145.985773" y="299.387626" style="fill: #1f78b4; stroke: #1f78b4"/>
     <use xlink:href="#mb86bbe9f6d" x="81.874609" y="306.665117" style="fill: #1f78b4; stroke: #1f78b4"/>
     <use xlink:href="#mb86bbe9f6d" x="121.665259" y="315.609917" style="fill: #1f78b4; stroke: #1f78b4"/>
     <use xlink:href="#mb86bbe9f6d" x="113.628726" y="269.427076" style="fill: #1f78b4; stroke: #1f78b4"/>
     <use xlink:href="#mb86bbe9f6d" x="65.333164" y="249.883564" style="fill: #1f78b4; stroke: #1f78b4"/>
    </g>
   </g>
   <g id="text_1">
    <g clip-path="url(#p108fef66e6)">
     <!-- 0 -->
     <g transform="translate(108.68568 151.180348) scale(0.1 -0.1)">
      <defs>
       <path id="DejaVuSans-30" d="M 2034 4250 
Q 1547 4250 1301 3770 
Q 1056 3291 1056 2328 
Q 1056 1369 1301 889 
Q 1547 409 2034 409 
Q 2525 409 2770 889 
Q 3016 1369 3016 2328 
Q 3016 3291 2770 3770 
Q 2525 4250 2034 4250 
z
M 2034 4750 
Q 2819 4750 3233 4129 
Q 3647 3509 3647 2328 
Q 3647 1150 3233 529 
Q 2819 -91 2034 -91 
Q 1250 -91 836 529 
Q 422 1150 422 2328 
Q 422 3509 836 4129 
Q 1250 4750 2034 4750 
z
" transform="scale(0.015625)"/>
      </defs>
      <use xlink:href="#DejaVuSans-30"/>
     </g>
    </g>
   </g>
   <g id="text_2">
    <g clip-path="url(#p108fef66e6)">
     <!-- 1 -->
     <g transform="translate(115.244336 78.813565) scale(0.1 -0.1)">
      <defs>
       <path id="DejaVuSans-31" d="M 794 531 
L 1825 531 
L 1825 4091 
L 703 3866 
L 703 4441 
L 1819 4666 
L 2450 4666 
L 2450 531 
L 3481 531 
L 3481 0 
L 794 0 
L 794 531 
z
" transform="scale(0.015625)"/>
      </defs>
      <use xlink:href="#DejaVuSans-31"/>
     </g>
    </g>
   </g>
   <g id="text_3">
    <g clip-path="url(#p108fef66e6)">
     <!-- 2 -->
     <g transform="translate(138.68834 206.647306) scale(0.1 -0.1)">
      <defs>
       <path id="DejaVuSans-32" d="M 1228 531 
L 3431 531 
L 3431 0 
L 469 0 
L 469 531 
Q 828 903 1448 1529 
Q 2069 2156 2228 2338 
Q 2531 2678 2651 2914 
Q 2772 3150 2772 3378 
Q 2772 3750 2511 3984 
Q 2250 4219 1831 4219 
Q 1534 4219 1204 4116 
Q 875 4013 500 3803 
L 500 4441 
Q 881 4594 1212 4672 
Q 1544 4750 1819 4750 
Q 2544 4750 2975 4387 
Q 3406 4025 3406 3419 
Q 3406 3131 3298 2873 
Q 3191 2616 2906 2266 
Q 2828 2175 2409 1742 
Q 1991 1309 1228 531 
z
" transform="scale(0.015625)"/>
      </defs>
      <use xlink:href="#DejaVuSans-32"/>
     </g>
    </g>
   </g>
   <g id="text_4">
    <g clip-path="url(#p108fef66e6)">
     <!-- 3 -->
     <g transform="translate(171.023224 140.062661) scale(0.1 -0.1)">
      <defs>
       <path id="DejaVuSans-33" d="M 2597 2516 
Q 3050 2419 3304 2112 
Q 3559 1806 3559 1356 
Q 3559 666 3084 287 
Q 2609 -91 1734 -91 
Q 1441 -91 1130 -33 
Q 819 25 488 141 
L 488 750 
Q 750 597 1062 519 
Q 1375 441 1716 441 
Q 2309 441 2620 675 
Q 2931 909 2931 1356 
Q 2931 1769 2642 2001 
Q 2353 2234 1838 2234 
L 1294 2234 
L 1294 2753 
L 1863 2753 
Q 2328 2753 2575 2939 
Q 2822 3125 2822 3475 
Q 2822 3834 2567 4026 
Q 2313 4219 1838 4219 
Q 1578 4219 1281 4162 
Q 984 4106 628 3988 
L 628 4550 
Q 988 4650 1302 4700 
Q 1616 4750 1894 4750 
Q 2613 4750 3031 4423 
Q 3450 4097 3450 3541 
Q 3450 3153 3228 2886 
Q 3006 2619 2597 2516 
z
" transform="scale(0.015625)"/>
      </defs>
      <use xlink:href="#DejaVuSans-33"/>
     </g>
    </g>
   </g>
   <g id="text_5">
    <g clip-path="url(#p108fef66e6)">
     <!-- 4 -->
     <g transform="translate(92.814598 32.749458) scale(0.1 -0.1)">
      <defs>
       <path id="DejaVuSans-34" d="M 2419 4116 
L 825 1625 
L 2419 1625 
L 2419 4116 
z
M 2253 4666 
L 3047 4666 
L 3047 1625 
L 3713 1625 
L 3713 1100 
L 3047 1100 
L 3047 0 
L 2419 0 
L 2419 1100 
L 313 1100 
L 313 1709 
L 2253 4666 
z
" transform="scale(0.015625)"/>
      </defs>
      <use xlink:href="#DejaVuSans-34"/>
     </g>
    </g>
   </g>
   <g id="text_6">
    <g clip-path="url(#p108fef66e6)">
     <!-- 7 -->
     <g transform="translate(68.617885 58.651884) scale(0.1 -0.1)">
      <defs>
       <path id="DejaVuSans-37" d="M 525 4666 
L 3525 4666 
L 3525 4397 
L 1831 0 
L 1172 0 
L 2766 4134 
L 525 4134 
L 525 4666 
z
" transform="scale(0.015625)"/>
      </defs>
      <use xlink:href="#DejaVuSans-37"/>
     </g>
    </g>
   </g>
   <g id="text_7">
    <g clip-path="url(#p108fef66e6)">
     <!-- 8 -->
     <g transform="translate(184.452446 91.025166) scale(0.1 -0.1)">
      <defs>
       <path id="DejaVuSans-38" d="M 2034 2216 
Q 1584 2216 1326 1975 
Q 1069 1734 1069 1313 
Q 1069 891 1326 650 
Q 1584 409 2034 409 
Q 2484 409 2743 651 
Q 3003 894 3003 1313 
Q 3003 1734 2745 1975 
Q 2488 2216 2034 2216 
z
M 1403 2484 
Q 997 2584 770 2862 
Q 544 3141 544 3541 
Q 544 4100 942 4425 
Q 1341 4750 2034 4750 
Q 2731 4750 3128 4425 
Q 3525 4100 3525 3541 
Q 3525 3141 3298 2862 
Q 3072 2584 2669 2484 
Q 3125 2378 3379 2068 
Q 3634 1759 3634 1313 
Q 3634 634 3220 271 
Q 2806 -91 2034 -91 
Q 1263 -91 848 271 
Q 434 634 434 1313 
Q 434 1759 690 2068 
Q 947 2378 1403 2484 
z
M 1172 3481 
Q 1172 3119 1398 2916 
Q 1625 2713 2034 2713 
Q 2441 2713 2670 2916 
Q 2900 3119 2900 3481 
Q 2900 3844 2670 4047 
Q 2441 4250 2034 4250 
Q 1625 4250 1398 4047 
Q 1172 3844 1172 3481 
z
" transform="scale(0.015625)"/>
      </defs>
      <use xlink:href="#DejaVuSans-38"/>
     </g>
    </g>
   </g>
   <g id="text_8">
    <g clip-path="url(#p108fef66e6)">
     <!-- 10 -->
     <g transform="translate(284.932893 258.02049) scale(0.1 -0.1)">
      <use xlink:href="#DejaVuSans-31"/>
      <use xlink:href="#DejaVuSans-30" x="63.623047"/>
     </g>
    </g>
   </g>
   <g id="text_9">
    <g clip-path="url(#p108fef66e6)">
     <!-- 11 -->
     <g transform="translate(234.873981 256.867311) scale(0.1 -0.1)">
      <use xlink:href="#DejaVuSans-31"/>
      <use xlink:href="#DejaVuSans-31" x="63.623047"/>
     </g>
    </g>
   </g>
   <g id="text_10">
    <g clip-path="url(#p108fef66e6)">
     <!-- 12 -->
     <g transform="translate(220.573382 307.885552) scale(0.1 -0.1)">
      <use xlink:href="#DejaVuSans-31"/>
      <use xlink:href="#DejaVuSans-32" x="63.623047"/>
     </g>
    </g>
   </g>
   <g id="text_11">
    <g clip-path="url(#p108fef66e6)">
     <!-- 14 -->
     <g transform="translate(153.371362 100.366826) scale(0.1 -0.1)">
      <use xlink:href="#DejaVuSans-31"/>
      <use xlink:href="#DejaVuSans-34" x="63.623047"/>
     </g>
    </g>
   </g>
   <g id="text_12">
    <g clip-path="url(#p108fef66e6)">
     <!-- 17 -->
     <g transform="translate(318.768241 227.923122) scale(0.1 -0.1)">
      <use xlink:href="#DejaVuSans-31"/>
      <use xlink:href="#DejaVuSans-37" x="63.623047"/>
     </g>
    </g>
   </g>
   <g id="text_13">
    <g clip-path="url(#p108fef66e6)">
     <!-- 18 -->
     <g transform="translate(414.450723 234.79902) scale(0.1 -0.1)">
      <use xlink:href="#DejaVuSans-31"/>
      <use xlink:href="#DejaVuSans-38" x="63.623047"/>
     </g>
    </g>
   </g>
   <g id="text_14">
    <g clip-path="url(#p108fef66e6)">
     <!-- 21 -->
     <g transform="translate(203.871803 199.001552) scale(0.1 -0.1)">
      <use xlink:href="#DejaVuSans-32"/>
      <use xlink:href="#DejaVuSans-31" x="63.623047"/>
     </g>
    </g>
   </g>
   <g id="text_15">
    <g clip-path="url(#p108fef66e6)">
     <!-- 22 -->
     <g transform="translate(250.764006 155.160249) scale(0.1 -0.1)">
      <use xlink:href="#DejaVuSans-32"/>
      <use xlink:href="#DejaVuSans-32" x="63.623047"/>
     </g>
    </g>
   </g>
   <g id="text_16">
    <g clip-path="url(#p108fef66e6)">
     <!-- 23 -->
     <g transform="translate(378.647169 207.788929) scale(0.1 -0.1)">
      <use xlink:href="#DejaVuSans-32"/>
      <use xlink:href="#DejaVuSans-33" x="63.623047"/>
     </g>
    </g>
   </g>
   <g id="text_17">
    <g clip-path="url(#p108fef66e6)">
     <!-- 25 -->
     <g transform="translate(324.720141 181.560542) scale(0.1 -0.1)">
      <defs>
       <path id="DejaVuSans-35" d="M 691 4666 
L 3169 4666 
L 3169 4134 
L 1269 4134 
L 1269 2991 
Q 1406 3038 1543 3061 
Q 1681 3084 1819 3084 
Q 2600 3084 3056 2656 
Q 3513 2228 3513 1497 
Q 3513 744 3044 326 
Q 2575 -91 1722 -91 
Q 1428 -91 1123 -41 
Q 819 9 494 109 
L 494 744 
Q 775 591 1075 516 
Q 1375 441 1709 441 
Q 2250 441 2565 725 
Q 2881 1009 2881 1497 
Q 2881 1984 2565 2268 
Q 2250 2553 1709 2553 
Q 1456 2553 1204 2497 
Q 953 2441 691 2322 
L 691 4666 
z
" transform="scale(0.015625)"/>
      </defs>
      <use xlink:href="#DejaVuSans-32"/>
      <use xlink:href="#DejaVuSans-35" x="63.623047"/>
     </g>
    </g>
   </g>
   <g id="text_18">
    <g clip-path="url(#p108fef66e6)">
     <!-- 26 -->
     <g transform="translate(363.953065 156.411687) scale(0.1 -0.1)">
      <defs>
       <path id="DejaVuSans-36" d="M 2113 2584 
Q 1688 2584 1439 2293 
Q 1191 2003 1191 1497 
Q 1191 994 1439 701 
Q 1688 409 2113 409 
Q 2538 409 2786 701 
Q 3034 994 3034 1497 
Q 3034 2003 2786 2293 
Q 2538 2584 2113 2584 
z
M 3366 4563 
L 3366 3988 
Q 3128 4100 2886 4159 
Q 2644 4219 2406 4219 
Q 1781 4219 1451 3797 
Q 1122 3375 1075 2522 
Q 1259 2794 1537 2939 
Q 1816 3084 2150 3084 
Q 2853 3084 3261 2657 
Q 3669 2231 3669 1497 
Q 3669 778 3244 343 
Q 2819 -91 2113 -91 
Q 1303 -91 875 529 
Q 447 1150 447 2328 
Q 447 3434 972 4092 
Q 1497 4750 2381 4750 
Q 2619 4750 2861 4703 
Q 3103 4656 3366 4563 
z
" transform="scale(0.015625)"/>
      </defs>
      <use xlink:href="#DejaVuSans-32"/>
      <use xlink:href="#DejaVuSans-36" x="63.623047"/>
     </g>
    </g>
   </g>
   <g id="text_19">
    <g clip-path="url(#p108fef66e6)">
     <!-- 27 -->
     <g transform="translate(33.624277 214.914624) scale(0.1 -0.1)">
      <use xlink:href="#DejaVuSans-32"/>
      <use xlink:href="#DejaVuSans-37" x="63.623047"/>
     </g>
    </g>
   </g>
   <g id="text_20">
    <g clip-path="url(#p108fef66e6)">
     <!-- 28 -->
     <g transform="translate(55.06886 174.384314) scale(0.1 -0.1)">
      <use xlink:href="#DejaVuSans-32"/>
      <use xlink:href="#DejaVuSans-38" x="63.623047"/>
     </g>
    </g>
   </g>
   <g id="text_21">
    <g clip-path="url(#p108fef66e6)">
     <!-- 30 -->
     <g transform="translate(201.556336 110.747478) scale(0.1 -0.1)">
      <use xlink:href="#DejaVuSans-33"/>
      <use xlink:href="#DejaVuSans-30" x="63.623047"/>
     </g>
    </g>
   </g>
   <g id="text_22">
    <g clip-path="url(#p108fef66e6)">
     <!-- 31 -->
     <g transform="translate(139.623273 302.147001) scale(0.1 -0.1)">
      <use xlink:href="#DejaVuSans-33"/>
      <use xlink:href="#DejaVuSans-31" x="63.623047"/>
     </g>
    </g>
   </g>
   <g id="text_23">
    <g clip-path="url(#p108fef66e6)">
     <!-- 32 -->
     <g transform="translate(75.512109 309.424492) scale(0.1 -0.1)">
      <use xlink:href="#DejaVuSans-33"/>
      <use xlink:href="#DejaVuSans-32" x="63.623047"/>
     </g>
    </g>
   </g>
   <g id="text_24">
    <g clip-path="url(#p108fef66e6)">
     <!-- 33 -->
     <g transform="translate(115.302759 318.369292) scale(0.1 -0.1)">
      <use xlink:href="#DejaVuSans-33"/>
      <use xlink:href="#DejaVuSans-33" x="63.623047"/>
     </g>
    </g>
   </g>
   <g id="text_25">
    <g clip-path="url(#p108fef66e6)">
     <!-- 34 -->
     <g transform="translate(107.266226 272.186451) scale(0.1 -0.1)">
      <use xlink:href="#DejaVuSans-33"/>
      <use xlink:href="#DejaVuSans-34" x="63.623047"/>
     </g>
    </g>
   </g>
   <g id="text_26">
    <g clip-path="url(#p108fef66e6)">
     <!-- 35 -->
     <g transform="translate(58.970664 252.642939) scale(0.1 -0.1)">
      <use xlink:href="#DejaVuSans-33"/>
      <use xlink:href="#DejaVuSans-35" x="63.623047"/>
     </g>
    </g>
   </g>
  </g>
 </g>
 <defs>
  <clipPath id="p108fef66e6">
   <rect x="0" y="0" width="460.8" height="345.6"/>
  </clipPath>
 </defs>
</svg>
