<?xml version="1.0" encoding="utf-8" standalone="no"?>
<!DOCTYPE svg PUBLIC "-//W3C//DTD SVG 1.1//EN"
  "http://www.w3.org/Graphics/SVG/1.1/DTD/svg11.dtd">
<svg xmlns:xlink="http://www.w3.org/1999/xlink" width="460.8pt" height="345.6pt" viewBox="0 0 460.8 345.6" xmlns="http://www.w3.org/2000/svg" version="1.1">
 <metadata>
  <rdf:RDF xmlns:dc="http://purl.org/dc/elements/1.1/" xmlns:cc="http://creativecommons.org/ns#" xmlns:rdf="http://www.w3.org/1999/02/22-rdf-syntax-ns#">
   <cc:Work>
    <dc:type rdf:resource="http://purl.org/dc/dcmitype/StillImage"/>
    <dc:date>2024-02-07T14:35:12.116464</dc:date>
    <dc:format>image/svg+xml</dc:format>
    <dc:creator>
     <cc:Agent>
      <dc:title>Matplotlib v3.8.0, https://matplotlib.org/</dc:title>
     </cc:Agent>
    </dc:creator>
   </cc:Work>
  </rdf:RDF>
 </metadata>
 <defs>
  <style type="text/css">*{stroke-linejoin: round; stroke-linecap: butt}</style>
 </defs>
 <g id="figure_1">
  <g id="patch_1">
   <path d="M 0 345.6 
L 460.8 345.6 
L 460.8 0 
L 0 0 
z
" style="fill: #ffffff"/>
  </g>
  <g id="axes_1">
   <g id="patch_2">
    <path d="M 352.647433 75.172445 
Q 345.147243 108.876616 337.88991 141.489448 
" clip-path="url(#p72783cb6aa)" style="fill: none; stroke: #000000; stroke-linecap: round"/>
    <path d="M 340.711023 138.019387 
L 337.88991 141.489448 
L 336.80653 137.15052 
z
" clip-path="url(#p72783cb6aa)" style="stroke: #000000; stroke-linecap: round"/>
   </g>
   <g id="patch_3">
    <path d="M 352.334084 71.488198 
Q 344.212368 51.634501 336.513965 32.815601 
" clip-path="url(#p72783cb6aa)" style="fill: none; stroke: #000000; stroke-linecap: round"/>
    <path d="M 336.177354 37.275051 
L 336.513965 32.815601 
L 339.879558 35.760559 
z
" clip-path="url(#p72783cb6aa)" style="stroke: #000000; stroke-linecap: round"/>
   </g>
   <g id="patch_4">
    <path d="M 354.444777 71.918964 
Q 372.615659 53.924307 389.99213 36.716357 
" clip-path="url(#p72783cb6aa)" style="fill: none; stroke: #000000; stroke-linecap: round"/>
    <path d="M 385.742648 38.109881 
L 389.99213 36.716357 
L 388.55726 40.952057 
z
" clip-path="url(#p72783cb6aa)" style="stroke: #000000; stroke-linecap: round"/>
   </g>
   <g id="patch_5">
    <path d="M 245.585843 121.355179 
Q 202.286576 123.383523 160.104119 125.359551 
" clip-path="url(#p72783cb6aa)" style="fill: none; stroke: #000000; stroke-linecap: round"/>
    <path d="M 164.193324 127.170186 
L 160.104119 125.359551 
L 164.00615 123.174568 
z
" clip-path="url(#p72783cb6aa)" style="stroke: #000000; stroke-linecap: round"/>
   </g>
   <g id="patch_6">
    <path d="M 249.396402 121.74965 
Q 292.374579 132.868203 334.270355 143.706736 
" clip-path="url(#p72783cb6aa)" style="fill: none; stroke: #000000; stroke-linecap: round"/>
    <path d="M 330.898758 140.768653 
L 334.270355 143.706736 
L 329.896931 144.641164 
z
" clip-path="url(#p72783cb6aa)" style="stroke: #000000; stroke-linecap: round"/>
   </g>
   <g id="patch_7">
    <path d="M 337.646926 142.58136 
Q 345.147116 108.87719 352.404449 76.264358 
" clip-path="url(#p72783cb6aa)" style="fill: none; stroke: #000000; stroke-linecap: round"/>
    <path d="M 349.583335 79.734418 
L 352.404449 76.264358 
L 353.487829 80.603285 
z
" clip-path="url(#p72783cb6aa)" style="stroke: #000000; stroke-linecap: round"/>
   </g>
   <g id="patch_8">
    <path d="M 335.351079 143.986321 
Q 292.372902 132.867769 250.477126 122.029236 
" clip-path="url(#p72783cb6aa)" style="fill: none; stroke: #000000; stroke-linecap: round"/>
    <path d="M 253.848723 124.967319 
L 250.477126 122.029236 
L 254.85055 121.094808 
z
" clip-path="url(#p72783cb6aa)" style="stroke: #000000; stroke-linecap: round"/>
   </g>
   <g id="patch_9">
    <path d="M 338.862612 143.433099 
Q 361.555545 129.032657 383.304474 115.231259 
" clip-path="url(#p72783cb6aa)" style="fill: none; stroke: #000000; stroke-linecap: round"/>
    <path d="M 378.855495 115.68578 
L 383.304474 115.231259 
L 380.998703 119.063155 
z
" clip-path="url(#p72783cb6aa)" style="stroke: #000000; stroke-linecap: round"/>
   </g>
   <g id="patch_10">
    <path d="M 339.12793 144.835259 
Q 376.268723 151.94088 412.311399 158.836413 
" clip-path="url(#p72783cb6aa)" style="fill: none; stroke: #000000; stroke-linecap: round"/>
    <path d="M 408.758468 156.120409 
L 412.311399 158.836413 
L 408.006836 160.049155 
z
" clip-path="url(#p72783cb6aa)" style="stroke: #000000; stroke-linecap: round"/>
   </g>
   <g id="patch_11">
    <path d="M 335.582987 145.494392 
Q 294.42077 171.116948 254.207719 196.14867 
" clip-path="url(#p72783cb6aa)" style="fill: none; stroke: #000000; stroke-linecap: round"/>
    <path d="M 258.660473 195.732756 
L 254.207719 196.14867 
L 256.54664 192.336918 
z
" clip-path="url(#p72783cb6aa)" style="stroke: #000000; stroke-linecap: round"/>
   </g>
   <g id="patch_12">
    <path d="M 339.142027 144.198602 
Q 379.019295 138.518958 417.789699 132.996962 
" clip-path="url(#p72783cb6aa)" style="fill: none; stroke: #000000; stroke-linecap: round"/>
    <path d="M 413.547653 131.580965 
L 417.789699 132.996962 
L 414.111673 135.541 
z
" clip-path="url(#p72783cb6aa)" style="stroke: #000000; stroke-linecap: round"/>
   </g>
   <g id="patch_13">
    <path d="M 335.417759 145.161825 
Q 319.797516 151.124456 305.221793 156.688368 
" clip-path="url(#p72783cb6aa)" style="fill: none; stroke: #000000; stroke-linecap: round"/>
    <path d="M 309.672034 157.130362 
L 305.221793 156.688368 
L 308.245533 153.393372 
z
" clip-path="url(#p72783cb6aa)" style="stroke: #000000; stroke-linecap: round"/>
   </g>
   <g id="patch_14">
    <path d="M 337.148047 146.407415 
Q 335.946398 176.126597 334.789919 204.728658 
" clip-path="url(#p72783cb6aa)" style="fill: none; stroke: #000000; stroke-linecap: round"/>
    <path d="M 336.949887 200.812724 
L 334.789919 204.728658 
L 332.953153 200.651123 
z
" clip-path="url(#p72783cb6aa)" style="stroke: #000000; stroke-linecap: round"/>
   </g>
   <g id="patch_15">
    <path d="M 336.092057 31.784239 
Q 344.213773 51.637936 351.912176 70.456836 
" clip-path="url(#p72783cb6aa)" style="fill: none; stroke: #000000; stroke-linecap: round"/>
    <path d="M 352.248787 65.997386 
L 351.912176 70.456836 
L 348.546583 67.511877 
z
" clip-path="url(#p72783cb6aa)" style="stroke: #000000; stroke-linecap: round"/>
   </g>
   <g id="patch_16">
    <path d="M 390.784097 35.932071 
Q 372.613214 53.926728 355.236744 71.134677 
" clip-path="url(#p72783cb6aa)" style="fill: none; stroke: #000000; stroke-linecap: round"/>
    <path d="M 359.486226 69.741153 
L 355.236744 71.134677 
L 356.671614 66.898978 
z
" clip-path="url(#p72783cb6aa)" style="stroke: #000000; stroke-linecap: round"/>
   </g>
   <g id="patch_17">
    <path d="M 384.245106 114.634354 
Q 361.552173 129.034797 339.803245 142.836194 
" clip-path="url(#p72783cb6aa)" style="fill: none; stroke: #000000; stroke-linecap: round"/>
    <path d="M 344.252223 142.381673 
L 339.803245 142.836194 
L 342.109015 139.004298 
z
" clip-path="url(#p72783cb6aa)" style="stroke: #000000; stroke-linecap: round"/>
   </g>
   <g id="patch_18">
    <path d="M 260.916859 240.229576 
Q 296.907142 224.39518 331.874057 209.011026 
" clip-path="url(#p72783cb6aa)" style="fill: none; stroke: #000000; stroke-linecap: round"/>
    <path d="M 327.407327 208.791213 
L 331.874057 209.011026 
L 329.018168 212.452523 
z
" clip-path="url(#p72783cb6aa)" style="stroke: #000000; stroke-linecap: round"/>
   </g>
   <g id="patch_19">
    <path d="M 257.209786 241.121808 
Q 215.542061 243.543905 174.990487 245.901121 
" clip-path="url(#p72783cb6aa)" style="fill: none; stroke: #000000; stroke-linecap: round"/>
    <path d="M 179.099808 247.665627 
L 174.990487 245.901121 
L 178.867684 243.672368 
z
" clip-path="url(#p72783cb6aa)" style="stroke: #000000; stroke-linecap: round"/>
   </g>
   <g id="patch_20">
    <path d="M 332.894092 208.562249 
Q 296.90381 224.396646 261.936894 239.780799 
" clip-path="url(#p72783cb6aa)" style="fill: none; stroke: #000000; stroke-linecap: round"/>
    <path d="M 266.403625 240.000612 
L 261.936894 239.780799 
L 264.792784 236.339302 
z
" clip-path="url(#p72783cb6aa)" style="stroke: #000000; stroke-linecap: round"/>
   </g>
   <g id="patch_21">
    <path d="M 336.336816 208.761045 
Q 362.088163 223.847115 386.874828 238.368039 
" clip-path="url(#p72783cb6aa)" style="fill: none; stroke: #000000; stroke-linecap: round"/>
    <path d="M 384.434441 234.620439 
L 386.874828 238.368039 
L 382.412515 238.071789 
z
" clip-path="url(#p72783cb6aa)" style="stroke: #000000; stroke-linecap: round"/>
   </g>
   <g id="patch_22">
    <path d="M 334.74472 205.846517 
Q 335.946368 176.127335 337.102848 147.525274 
" clip-path="url(#p72783cb6aa)" style="fill: none; stroke: #000000; stroke-linecap: round"/>
    <path d="M 334.942879 151.441207 
L 337.102848 147.525274 
L 338.939613 151.602809 
z
" clip-path="url(#p72783cb6aa)" style="stroke: #000000; stroke-linecap: round"/>
   </g>
   <g id="patch_23">
    <path d="M 387.840564 238.933802 
Q 362.089217 223.847732 337.302551 209.326808 
" clip-path="url(#p72783cb6aa)" style="fill: none; stroke: #000000; stroke-linecap: round"/>
    <path d="M 339.742939 213.074409 
L 337.302551 209.326808 
L 341.764864 209.623059 
z
" clip-path="url(#p72783cb6aa)" style="stroke: #000000; stroke-linecap: round"/>
   </g>
   <g id="patch_24">
    <path d="M 413.409706 159.046537 
Q 376.268912 151.940916 340.226237 145.045382 
" clip-path="url(#p72783cb6aa)" style="fill: none; stroke: #000000; stroke-linecap: round"/>
    <path d="M 343.779168 147.761387 
L 340.226237 145.045382 
L 344.530799 143.83264 
z
" clip-path="url(#p72783cb6aa)" style="stroke: #000000; stroke-linecap: round"/>
   </g>
   <g id="patch_25">
    <path d="M 41.701156 314.717055 
Q 67.907534 301.068566 93.122301 287.936515 
" clip-path="url(#p72783cb6aa)" style="fill: none; stroke: #000000; stroke-linecap: round"/>
    <path d="M 88.650774 288.010335 
L 93.122301 287.936515 
L 90.498441 291.558028 
z
" clip-path="url(#p72783cb6aa)" style="stroke: #000000; stroke-linecap: round"/>
   </g>
   <g id="patch_26">
    <path d="M 253.259349 196.739009 
Q 294.421565 171.116453 334.634616 146.084732 
" clip-path="url(#p72783cb6aa)" style="fill: none; stroke: #000000; stroke-linecap: round"/>
    <path d="M 330.181863 146.500645 
L 334.634616 146.084732 
L 332.295695 149.896483 
z
" clip-path="url(#p72783cb6aa)" style="stroke: #000000; stroke-linecap: round"/>
   </g>
   <g id="patch_27">
    <path d="M 249.960166 198.766084 
Q 211.777917 221.920497 174.551658 244.49518 
" clip-path="url(#p72783cb6aa)" style="fill: none; stroke: #000000; stroke-linecap: round"/>
    <path d="M 179.008957 244.131203 
L 174.551658 244.49518 
L 176.934856 240.710954 
z
" clip-path="url(#p72783cb6aa)" style="stroke: #000000; stroke-linecap: round"/>
   </g>
   <g id="patch_28">
    <path d="M 94.114137 287.419959 
Q 67.90776 301.068448 42.692993 314.200499 
" clip-path="url(#p72783cb6aa)" style="fill: none; stroke: #000000; stroke-linecap: round"/>
    <path d="M 47.16452 314.126678 
L 42.692993 314.200499 
L 45.316853 310.578985 
z
" clip-path="url(#p72783cb6aa)" style="stroke: #000000; stroke-linecap: round"/>
   </g>
   <g id="patch_29">
    <path d="M 97.540395 285.617346 
Q 133.885797 266.302165 169.24392 247.511658 
" clip-path="url(#p72783cb6aa)" style="fill: none; stroke: #000000; stroke-linecap: round"/>
    <path d="M 164.773163 247.622689 
L 169.24392 247.511658 
L 166.650291 251.154882 
z
" clip-path="url(#p72783cb6aa)" style="stroke: #000000; stroke-linecap: round"/>
   </g>
   <g id="patch_30">
    <path d="M 173.596748 245.074255 
Q 211.778996 221.919842 249.005256 199.345159 
" clip-path="url(#p72783cb6aa)" style="fill: none; stroke: #000000; stroke-linecap: round"/>
    <path d="M 244.547956 199.709136 
L 249.005256 199.345159 
L 246.622058 203.129385 
z
" clip-path="url(#p72783cb6aa)" style="stroke: #000000; stroke-linecap: round"/>
   </g>
   <g id="patch_31">
    <path d="M 170.229024 246.98814 
Q 133.883623 266.303321 98.525499 285.093828 
" clip-path="url(#p72783cb6aa)" style="fill: none; stroke: #000000; stroke-linecap: round"/>
    <path d="M 102.996256 284.982797 
L 98.525499 285.093828 
L 101.119129 281.450604 
z
" clip-path="url(#p72783cb6aa)" style="stroke: #000000; stroke-linecap: round"/>
   </g>
   <g id="patch_32">
    <path d="M 170.015499 246.276435 
Q 134.654463 249.913646 100.405592 253.43646 
" clip-path="url(#p72783cb6aa)" style="fill: none; stroke: #000000; stroke-linecap: round"/>
    <path d="M 104.589237 255.016685 
L 100.405592 253.43646 
L 104.17996 251.037679 
z
" clip-path="url(#p72783cb6aa)" style="stroke: #000000; stroke-linecap: round"/>
   </g>
   <g id="patch_33">
    <path d="M 173.875626 245.965927 
Q 215.543351 243.54383 256.094925 241.186614 
" clip-path="url(#p72783cb6aa)" style="fill: none; stroke: #000000; stroke-linecap: round"/>
    <path d="M 251.985604 239.422108 
L 256.094925 241.186614 
L 252.217728 243.415367 
z
" clip-path="url(#p72783cb6aa)" style="stroke: #000000; stroke-linecap: round"/>
   </g>
   <g id="patch_34">
    <path d="M 99.289925 253.551216 
Q 134.650961 249.914006 168.899832 246.391192 
" clip-path="url(#p72783cb6aa)" style="fill: none; stroke: #000000; stroke-linecap: round"/>
    <path d="M 164.716187 244.810967 
L 168.899832 246.391192 
L 165.125464 248.789973 
z
" clip-path="url(#p72783cb6aa)" style="stroke: #000000; stroke-linecap: round"/>
   </g>
   <g id="patch_35">
    <path d="M 233.904634 145.548247 
Q 267.180374 151.492856 299.355505 157.240845 
" clip-path="url(#p72783cb6aa)" style="fill: none; stroke: #000000; stroke-linecap: round"/>
    <path d="M 295.769572 154.568565 
L 299.355505 157.240845 
L 295.066121 158.506223 
z
" clip-path="url(#p72783cb6aa)" style="stroke: #000000; stroke-linecap: round"/>
   </g>
   <g id="patch_36">
    <path d="M 230.131184 144.716438 
Q 194.527786 135.355086 160.005671 126.278041 
" clip-path="url(#p72783cb6aa)" style="fill: none; stroke: #000000; stroke-linecap: round"/>
    <path d="M 163.3656 129.22946 
L 160.005671 126.278041 
L 164.382764 125.360949 
z
" clip-path="url(#p72783cb6aa)" style="stroke: #000000; stroke-linecap: round"/>
   </g>
   <g id="patch_37">
    <path d="M 300.463172 157.438726 
Q 267.187432 151.494117 235.012301 145.746129 
" clip-path="url(#p72783cb6aa)" style="fill: none; stroke: #000000; stroke-linecap: round"/>
    <path d="M 238.598234 148.418409 
L 235.012301 145.746129 
L 239.301685 144.48075 
z
" clip-path="url(#p72783cb6aa)" style="stroke: #000000; stroke-linecap: round"/>
   </g>
   <g id="patch_38">
    <path d="M 304.174269 157.088234 
Q 319.794512 151.125603 334.370235 145.561691 
" clip-path="url(#p72783cb6aa)" style="fill: none; stroke: #000000; stroke-linecap: round"/>
    <path d="M 329.919994 145.119697 
L 334.370235 145.561691 
L 331.346495 148.856687 
z
" clip-path="url(#p72783cb6aa)" style="stroke: #000000; stroke-linecap: round"/>
   </g>
   <g id="patch_39">
    <path d="M 418.89752 132.839177 
Q 379.020253 138.518821 340.249849 144.040817 
" clip-path="url(#p72783cb6aa)" style="fill: none; stroke: #000000; stroke-linecap: round"/>
    <path d="M 344.491895 145.456814 
L 340.249849 144.040817 
L 343.927874 141.496779 
z
" clip-path="url(#p72783cb6aa)" style="stroke: #000000; stroke-linecap: round"/>
   </g>
   <g id="patch_40">
    <path d="M 107.906256 92.329595 
Q 131.678458 108.374368 154.523953 123.793672 
" clip-path="url(#p72783cb6aa)" style="fill: none; stroke: #000000; stroke-linecap: round"/>
    <path d="M 152.327339 119.898176 
L 154.523953 123.793672 
L 150.089588 123.213665 
z
" clip-path="url(#p72783cb6aa)" style="stroke: #000000; stroke-linecap: round"/>
   </g>
   <g id="patch_41">
    <path d="M 78.984088 118.515862 
Q 117.054897 121.92276 154.012121 125.230006 
" clip-path="url(#p72783cb6aa)" style="fill: none; stroke: #000000; stroke-linecap: round"/>
    <path d="M 150.206307 122.881437 
L 154.012121 125.230006 
L 149.849778 126.865516 
z
" clip-path="url(#p72783cb6aa)" style="stroke: #000000; stroke-linecap: round"/>
   </g>
   <g id="patch_42">
    <path d="M 154.052763 164.991724 
Q 155.480674 146.213548 156.823813 128.550187 
" clip-path="url(#p72783cb6aa)" style="fill: none; stroke: #000000; stroke-linecap: round"/>
    <path d="M 154.526282 132.387028 
L 156.823813 128.550187 
L 158.514768 132.690317 
z
" clip-path="url(#p72783cb6aa)" style="stroke: #000000; stroke-linecap: round"/>
   </g>
   <g id="patch_43">
    <path d="M 158.990887 125.4117 
Q 202.290154 123.383356 244.472611 121.407328 
" clip-path="url(#p72783cb6aa)" style="fill: none; stroke: #000000; stroke-linecap: round"/>
    <path d="M 240.383406 119.596693 
L 244.472611 121.407328 
L 240.570579 123.592311 
z
" clip-path="url(#p72783cb6aa)" style="stroke: #000000; stroke-linecap: round"/>
   </g>
   <g id="patch_44">
    <path d="M 155.447726 124.417161 
Q 131.675524 108.372388 108.830029 92.953084 
" clip-path="url(#p72783cb6aa)" style="fill: none; stroke: #000000; stroke-linecap: round"/>
    <path d="M 111.026643 96.84858 
L 108.830029 92.953084 
L 113.264394 93.533091 
z
" clip-path="url(#p72783cb6aa)" style="stroke: #000000; stroke-linecap: round"/>
   </g>
   <g id="patch_45">
    <path d="M 155.126857 125.329762 
Q 117.056048 121.922863 80.098824 118.615618 
" clip-path="url(#p72783cb6aa)" style="fill: none; stroke: #000000; stroke-linecap: round"/>
    <path d="M 83.904638 120.964187 
L 80.098824 118.615618 
L 84.261167 116.980108 
z
" clip-path="url(#p72783cb6aa)" style="stroke: #000000; stroke-linecap: round"/>
   </g>
   <g id="patch_46">
    <path d="M 156.908902 127.431198 
Q 155.480991 146.209374 154.137852 163.872734 
" clip-path="url(#p72783cb6aa)" style="fill: none; stroke: #000000; stroke-linecap: round"/>
    <path d="M 156.435383 160.035893 
L 154.137852 163.872734 
L 152.446898 159.732605 
z
" clip-path="url(#p72783cb6aa)" style="stroke: #000000; stroke-linecap: round"/>
   </g>
   <g id="patch_47">
    <path d="M 158.926492 125.994288 
Q 194.529889 135.355639 229.052005 144.432684 
" clip-path="url(#p72783cb6aa)" style="fill: none; stroke: #000000; stroke-linecap: round"/>
    <path d="M 225.692076 141.481265 
L 229.052005 144.432684 
L 224.674912 145.349776 
z
" clip-path="url(#p72783cb6aa)" style="stroke: #000000; stroke-linecap: round"/>
   </g>
   <g id="PathCollection_1">
    <defs>
     <path id="C0_0_0bbb4b62d3" d="M 0 1.936492 
C 0.513564 1.936492 1.006162 1.732451 1.369306 1.369306 
C 1.732451 1.006162 1.936492 0.513564 1.936492 -0 
C 1.936492 -0.513564 1.732451 -1.006162 1.369306 -1.369306 
C 1.006162 -1.732451 0.513564 -1.936492 0 -1.936492 
C -0.513564 -1.936492 -1.006162 -1.732451 -1.369306 -1.369306 
C -1.732451 -1.006162 -1.936492 -0.513564 -1.936492 0 
C -1.936492 0.513564 -1.732451 1.006162 -1.369306 1.369306 
C -1.006162 1.732451 -0.513564 1.936492 0 1.936492 
z
"/>
    </defs>
    <g clip-path="url(#p72783cb6aa)">
     <use xlink:href="#C0_0_0bbb4b62d3" x="353.068035" y="73.282354" style="stroke: #000000"/>
    </g>
    <g clip-path="url(#p72783cb6aa)">
     <use xlink:href="#C0_0_0bbb4b62d3" x="247.521157" y="121.26452" style="fill: #ff0000; stroke: #ff0000"/>
    </g>
    <g clip-path="url(#p72783cb6aa)">
     <use xlink:href="#C0_0_0bbb4b62d3" x="337.226324" y="144.471452" style="fill: #ff0000; stroke: #ff0000"/>
    </g>
    <g clip-path="url(#p72783cb6aa)">
     <use xlink:href="#C0_0_0bbb4b62d3" x="335.358107" y="29.990083" style="fill: #ff0000; stroke: #ff0000"/>
    </g>
    <g clip-path="url(#p72783cb6aa)">
     <use xlink:href="#C0_0_0bbb4b62d3" x="392.160839" y="34.56868" style="fill: #ff0000; stroke: #ff0000"/>
    </g>
    <g clip-path="url(#p72783cb6aa)">
     <use xlink:href="#C0_0_0bbb4b62d3" x="385.881394" y="113.596002" style="fill: #ff0000; stroke: #ff0000"/>
    </g>
    <g clip-path="url(#p72783cb6aa)">
     <use xlink:href="#C0_0_0bbb4b62d3" x="259.144509" y="241.009345" style="fill: #ff0000; stroke: #ff0000"/>
    </g>
    <g clip-path="url(#p72783cb6aa)">
     <use xlink:href="#C0_0_0bbb4b62d3" x="334.666442" y="207.78248" style="stroke: #000000"/>
    </g>
    <g clip-path="url(#p72783cb6aa)">
     <use xlink:href="#C0_0_0bbb4b62d3" x="389.510938" y="239.912367" style="fill: #ff0000; stroke: #ff0000"/>
    </g>
    <g clip-path="url(#p72783cb6aa)">
     <use xlink:href="#C0_0_0bbb4b62d3" x="415.311311" y="159.410344" style="fill: #ff0000; stroke: #ff0000"/>
    </g>
    <g clip-path="url(#p72783cb6aa)">
     <use xlink:href="#C0_0_0bbb4b62d3" x="39.986777" y="315.609917" style="fill: #ff0000; stroke: #ff0000"/>
    </g>
    <g clip-path="url(#p72783cb6aa)">
     <use xlink:href="#C0_0_0bbb4b62d3" x="251.616011" y="197.761949" style="fill: #ff0000; stroke: #ff0000"/>
    </g>
    <g clip-path="url(#p72783cb6aa)">
     <use xlink:href="#C0_0_0bbb4b62d3" x="95.828517" y="286.527096" style="fill: #ff0000; stroke: #ff0000"/>
    </g>
    <g clip-path="url(#p72783cb6aa)">
     <use xlink:href="#C0_0_0bbb4b62d3" x="171.940903" y="246.07839" style="fill: #ff0000; stroke: #ff0000"/>
    </g>
    <g clip-path="url(#p72783cb6aa)">
     <use xlink:href="#C0_0_0bbb4b62d3" x="97.364521" y="253.749262" style="fill: #ff0000; stroke: #ff0000"/>
    </g>
    <g clip-path="url(#p72783cb6aa)">
     <use xlink:href="#C0_0_0bbb4b62d3" x="232.002102" y="145.208366" style="fill: #ff0000; stroke: #ff0000"/>
    </g>
    <g clip-path="url(#p72783cb6aa)">
     <use xlink:href="#C0_0_0bbb4b62d3" x="302.365704" y="157.778607" style="fill: #ff0000; stroke: #ff0000"/>
    </g>
    <g clip-path="url(#p72783cb6aa)">
     <use xlink:href="#C0_0_0bbb4b62d3" x="420.813223" y="132.566327" style="fill: #ff0000; stroke: #ff0000"/>
    </g>
    <g clip-path="url(#p72783cb6aa)">
     <use xlink:href="#C0_0_0bbb4b62d3" x="106.298409" y="91.244397" style="fill: #ff0000; stroke: #ff0000"/>
    </g>
    <g clip-path="url(#p72783cb6aa)">
     <use xlink:href="#C0_0_0bbb4b62d3" x="77.055372" y="118.343264" style="fill: #ff0000; stroke: #ff0000"/>
    </g>
    <g clip-path="url(#p72783cb6aa)">
     <use xlink:href="#C0_0_0bbb4b62d3" x="153.906092" y="166.920562" style="fill: #ff0000; stroke: #ff0000"/>
    </g>
    <g clip-path="url(#p72783cb6aa)">
     <use xlink:href="#C0_0_0bbb4b62d3" x="157.055573" y="125.502359" style="fill: #ff0000; stroke: #ff0000"/>
    </g>
   </g>
   <g id="text_1">
    <g clip-path="url(#p72783cb6aa)">
     <!-- 1 -->
     <g transform="translate(349.886785 76.041729) scale(0.1 -0.1)">
      <defs>
       <path id="DejaVuSans-31" d="M 794 531 
L 1825 531 
L 1825 4091 
L 703 3866 
L 703 4441 
L 1819 4666 
L 2450 4666 
L 2450 531 
L 3481 531 
L 3481 0 
L 794 0 
L 794 531 
z
" transform="scale(0.015625)"/>
      </defs>
      <use xlink:href="#DejaVuSans-31"/>
     </g>
    </g>
   </g>
   <g id="text_2">
    <g clip-path="url(#p72783cb6aa)">
     <!-- 2 -->
     <g transform="translate(244.339907 124.023895) scale(0.1 -0.1)">
      <defs>
       <path id="DejaVuSans-32" d="M 1228 531 
L 3431 531 
L 3431 0 
L 469 0 
L 469 531 
Q 828 903 1448 1529 
Q 2069 2156 2228 2338 
Q 2531 2678 2651 2914 
Q 2772 3150 2772 3378 
Q 2772 3750 2511 3984 
Q 2250 4219 1831 4219 
Q 1534 4219 1204 4116 
Q 875 4013 500 3803 
L 500 4441 
Q 881 4594 1212 4672 
Q 1544 4750 1819 4750 
Q 2544 4750 2975 4387 
Q 3406 4025 3406 3419 
Q 3406 3131 3298 2873 
Q 3191 2616 2906 2266 
Q 2828 2175 2409 1742 
Q 1991 1309 1228 531 
z
" transform="scale(0.015625)"/>
      </defs>
      <use xlink:href="#DejaVuSans-32"/>
     </g>
    </g>
   </g>
   <g id="text_3">
    <g clip-path="url(#p72783cb6aa)">
     <!-- 3 -->
     <g transform="translate(334.045074 147.230827) scale(0.1 -0.1)">
      <defs>
       <path id="DejaVuSans-33" d="M 2597 2516 
Q 3050 2419 3304 2112 
Q 3559 1806 3559 1356 
Q 3559 666 3084 287 
Q 2609 -91 1734 -91 
Q 1441 -91 1130 -33 
Q 819 25 488 141 
L 488 750 
Q 750 597 1062 519 
Q 1375 441 1716 441 
Q 2309 441 2620 675 
Q 2931 909 2931 1356 
Q 2931 1769 2642 2001 
Q 2353 2234 1838 2234 
L 1294 2234 
L 1294 2753 
L 1863 2753 
Q 2328 2753 2575 2939 
Q 2822 3125 2822 3475 
Q 2822 3834 2567 4026 
Q 2313 4219 1838 4219 
Q 1578 4219 1281 4162 
Q 984 4106 628 3988 
L 628 4550 
Q 988 4650 1302 4700 
Q 1616 4750 1894 4750 
Q 2613 4750 3031 4423 
Q 3450 4097 3450 3541 
Q 3450 3153 3228 2886 
Q 3006 2619 2597 2516 
z
" transform="scale(0.015625)"/>
      </defs>
      <use xlink:href="#DejaVuSans-33"/>
     </g>
    </g>
   </g>
   <g id="text_4">
    <g clip-path="url(#p72783cb6aa)">
     <!-- 4 -->
     <g transform="translate(332.176857 32.749458) scale(0.1 -0.1)">
      <defs>
       <path id="DejaVuSans-34" d="M 2419 4116 
L 825 1625 
L 2419 1625 
L 2419 4116 
z
M 2253 4666 
L 3047 4666 
L 3047 1625 
L 3713 1625 
L 3713 1100 
L 3047 1100 
L 3047 0 
L 2419 0 
L 2419 1100 
L 313 1100 
L 313 1709 
L 2253 4666 
z
" transform="scale(0.015625)"/>
      </defs>
      <use xlink:href="#DejaVuSans-34"/>
     </g>
    </g>
   </g>
   <g id="text_5">
    <g clip-path="url(#p72783cb6aa)">
     <!-- 7 -->
     <g transform="translate(388.979589 37.328055) scale(0.1 -0.1)">
      <defs>
       <path id="DejaVuSans-37" d="M 525 4666 
L 3525 4666 
L 3525 4397 
L 1831 0 
L 1172 0 
L 2766 4134 
L 525 4134 
L 525 4666 
z
" transform="scale(0.015625)"/>
      </defs>
      <use xlink:href="#DejaVuSans-37"/>
     </g>
    </g>
   </g>
   <g id="text_6">
    <g clip-path="url(#p72783cb6aa)">
     <!-- 8 -->
     <g transform="translate(382.700144 116.355377) scale(0.1 -0.1)">
      <defs>
       <path id="DejaVuSans-38" d="M 2034 2216 
Q 1584 2216 1326 1975 
Q 1069 1734 1069 1313 
Q 1069 891 1326 650 
Q 1584 409 2034 409 
Q 2484 409 2743 651 
Q 3003 894 3003 1313 
Q 3003 1734 2745 1975 
Q 2488 2216 2034 2216 
z
M 1403 2484 
Q 997 2584 770 2862 
Q 544 3141 544 3541 
Q 544 4100 942 4425 
Q 1341 4750 2034 4750 
Q 2731 4750 3128 4425 
Q 3525 4100 3525 3541 
Q 3525 3141 3298 2862 
Q 3072 2584 2669 2484 
Q 3125 2378 3379 2068 
Q 3634 1759 3634 1313 
Q 3634 634 3220 271 
Q 2806 -91 2034 -91 
Q 1263 -91 848 271 
Q 434 634 434 1313 
Q 434 1759 690 2068 
Q 947 2378 1403 2484 
z
M 1172 3481 
Q 1172 3119 1398 2916 
Q 1625 2713 2034 2713 
Q 2441 2713 2670 2916 
Q 2900 3119 2900 3481 
Q 2900 3844 2670 4047 
Q 2441 4250 2034 4250 
Q 1625 4250 1398 4047 
Q 1172 3844 1172 3481 
z
" transform="scale(0.015625)"/>
      </defs>
      <use xlink:href="#DejaVuSans-38"/>
     </g>
    </g>
   </g>
   <g id="text_7">
    <g clip-path="url(#p72783cb6aa)">
     <!-- 10 -->
     <g transform="translate(252.782009 243.76872) scale(0.1 -0.1)">
      <defs>
       <path id="DejaVuSans-30" d="M 2034 4250 
Q 1547 4250 1301 3770 
Q 1056 3291 1056 2328 
Q 1056 1369 1301 889 
Q 1547 409 2034 409 
Q 2525 409 2770 889 
Q 3016 1369 3016 2328 
Q 3016 3291 2770 3770 
Q 2525 4250 2034 4250 
z
M 2034 4750 
Q 2819 4750 3233 4129 
Q 3647 3509 3647 2328 
Q 3647 1150 3233 529 
Q 2819 -91 2034 -91 
Q 1250 -91 836 529 
Q 422 1150 422 2328 
Q 422 3509 836 4129 
Q 1250 4750 2034 4750 
z
" transform="scale(0.015625)"/>
      </defs>
      <use xlink:href="#DejaVuSans-31"/>
      <use xlink:href="#DejaVuSans-30" x="63.623047"/>
     </g>
    </g>
   </g>
   <g id="text_8">
    <g clip-path="url(#p72783cb6aa)">
     <!-- 11 -->
     <g transform="translate(328.303942 210.541855) scale(0.1 -0.1)">
      <use xlink:href="#DejaVuSans-31"/>
      <use xlink:href="#DejaVuSans-31" x="63.623047"/>
     </g>
    </g>
   </g>
   <g id="text_9">
    <g clip-path="url(#p72783cb6aa)">
     <!-- 12 -->
     <g transform="translate(383.148438 242.671742) scale(0.1 -0.1)">
      <use xlink:href="#DejaVuSans-31"/>
      <use xlink:href="#DejaVuSans-32" x="63.623047"/>
     </g>
    </g>
   </g>
   <g id="text_10">
    <g clip-path="url(#p72783cb6aa)">
     <!-- 14 -->
     <g transform="translate(408.948811 162.169719) scale(0.1 -0.1)">
      <use xlink:href="#DejaVuSans-31"/>
      <use xlink:href="#DejaVuSans-34" x="63.623047"/>
     </g>
    </g>
   </g>
   <g id="text_11">
    <g clip-path="url(#p72783cb6aa)">
     <!-- 18 -->
     <g transform="translate(33.624277 318.369292) scale(0.1 -0.1)">
      <use xlink:href="#DejaVuSans-31"/>
      <use xlink:href="#DejaVuSans-38" x="63.623047"/>
     </g>
    </g>
   </g>
   <g id="text_12">
    <g clip-path="url(#p72783cb6aa)">
     <!-- 22 -->
     <g transform="translate(245.253511 200.521324) scale(0.1 -0.1)">
      <use xlink:href="#DejaVuSans-32"/>
      <use xlink:href="#DejaVuSans-32" x="63.623047"/>
     </g>
    </g>
   </g>
   <g id="text_13">
    <g clip-path="url(#p72783cb6aa)">
     <!-- 23 -->
     <g transform="translate(89.466017 289.286471) scale(0.1 -0.1)">
      <use xlink:href="#DejaVuSans-32"/>
      <use xlink:href="#DejaVuSans-33" x="63.623047"/>
     </g>
    </g>
   </g>
   <g id="text_14">
    <g clip-path="url(#p72783cb6aa)">
     <!-- 25 -->
     <g transform="translate(165.578403 248.837765) scale(0.1 -0.1)">
      <defs>
       <path id="DejaVuSans-35" d="M 691 4666 
L 3169 4666 
L 3169 4134 
L 1269 4134 
L 1269 2991 
Q 1406 3038 1543 3061 
Q 1681 3084 1819 3084 
Q 2600 3084 3056 2656 
Q 3513 2228 3513 1497 
Q 3513 744 3044 326 
Q 2575 -91 1722 -91 
Q 1428 -91 1123 -41 
Q 819 9 494 109 
L 494 744 
Q 775 591 1075 516 
Q 1375 441 1709 441 
Q 2250 441 2565 725 
Q 2881 1009 2881 1497 
Q 2881 1984 2565 2268 
Q 2250 2553 1709 2553 
Q 1456 2553 1204 2497 
Q 953 2441 691 2322 
L 691 4666 
z
" transform="scale(0.015625)"/>
      </defs>
      <use xlink:href="#DejaVuSans-32"/>
      <use xlink:href="#DejaVuSans-35" x="63.623047"/>
     </g>
    </g>
   </g>
   <g id="text_15">
    <g clip-path="url(#p72783cb6aa)">
     <!-- 26 -->
     <g transform="translate(91.002021 256.508637) scale(0.1 -0.1)">
      <defs>
       <path id="DejaVuSans-36" d="M 2113 2584 
Q 1688 2584 1439 2293 
Q 1191 2003 1191 1497 
Q 1191 994 1439 701 
Q 1688 409 2113 409 
Q 2538 409 2786 701 
Q 3034 994 3034 1497 
Q 3034 2003 2786 2293 
Q 2538 2584 2113 2584 
z
M 3366 4563 
L 3366 3988 
Q 3128 4100 2886 4159 
Q 2644 4219 2406 4219 
Q 1781 4219 1451 3797 
Q 1122 3375 1075 2522 
Q 1259 2794 1537 2939 
Q 1816 3084 2150 3084 
Q 2853 3084 3261 2657 
Q 3669 2231 3669 1497 
Q 3669 778 3244 343 
Q 2819 -91 2113 -91 
Q 1303 -91 875 529 
Q 447 1150 447 2328 
Q 447 3434 972 4092 
Q 1497 4750 2381 4750 
Q 2619 4750 2861 4703 
Q 3103 4656 3366 4563 
z
" transform="scale(0.015625)"/>
      </defs>
      <use xlink:href="#DejaVuSans-32"/>
      <use xlink:href="#DejaVuSans-36" x="63.623047"/>
     </g>
    </g>
   </g>
   <g id="text_16">
    <g clip-path="url(#p72783cb6aa)">
     <!-- 27 -->
     <g transform="translate(225.639602 147.967741) scale(0.1 -0.1)">
      <use xlink:href="#DejaVuSans-32"/>
      <use xlink:href="#DejaVuSans-37" x="63.623047"/>
     </g>
    </g>
   </g>
   <g id="text_17">
    <g clip-path="url(#p72783cb6aa)">
     <!-- 28 -->
     <g transform="translate(296.003204 160.537982) scale(0.1 -0.1)">
      <use xlink:href="#DejaVuSans-32"/>
      <use xlink:href="#DejaVuSans-38" x="63.623047"/>
     </g>
    </g>
   </g>
   <g id="text_18">
    <g clip-path="url(#p72783cb6aa)">
     <!-- 30 -->
     <g transform="translate(414.450723 135.325702) scale(0.1 -0.1)">
      <use xlink:href="#DejaVuSans-33"/>
      <use xlink:href="#DejaVuSans-30" x="63.623047"/>
     </g>
    </g>
   </g>
   <g id="text_19">
    <g clip-path="url(#p72783cb6aa)">
     <!-- 31 -->
     <g transform="translate(99.935909 94.003772) scale(0.1 -0.1)">
      <use xlink:href="#DejaVuSans-33"/>
      <use xlink:href="#DejaVuSans-31" x="63.623047"/>
     </g>
    </g>
   </g>
   <g id="text_20">
    <g clip-path="url(#p72783cb6aa)">
     <!-- 32 -->
     <g transform="translate(70.692872 121.102639) scale(0.1 -0.1)">
      <use xlink:href="#DejaVuSans-33"/>
      <use xlink:href="#DejaVuSans-32" x="63.623047"/>
     </g>
    </g>
   </g>
   <g id="text_21">
    <g clip-path="url(#p72783cb6aa)">
     <!-- 33 -->
     <g transform="translate(147.543592 169.679937) scale(0.1 -0.1)">
      <use xlink:href="#DejaVuSans-33"/>
      <use xlink:href="#DejaVuSans-33" x="63.623047"/>
     </g>
    </g>
   </g>
   <g id="text_22">
    <g clip-path="url(#p72783cb6aa)">
     <!-- 34 -->
     <g transform="translate(150.693073 128.261734) scale(0.1 -0.1)">
      <use xlink:href="#DejaVuSans-33"/>
      <use xlink:href="#DejaVuSans-34" x="63.623047"/>
     </g>
    </g>
   </g>
  </g>
 </g>
 <defs>
  <clipPath id="p72783cb6aa">
   <rect x="0" y="0" width="460.8" height="345.6"/>
  </clipPath>
 </defs>
</svg>
