<?xml version="1.0" encoding="utf-8" standalone="no"?>
<!DOCTYPE svg PUBLIC "-//W3C//DTD SVG 1.1//EN"
  "http://www.w3.org/Graphics/SVG/1.1/DTD/svg11.dtd">
<svg xmlns:xlink="http://www.w3.org/1999/xlink" width="460.8pt" height="345.6pt" viewBox="0 0 460.8 345.6" xmlns="http://www.w3.org/2000/svg" version="1.1">
 <metadata>
  <rdf:RDF xmlns:dc="http://purl.org/dc/elements/1.1/" xmlns:cc="http://creativecommons.org/ns#" xmlns:rdf="http://www.w3.org/1999/02/22-rdf-syntax-ns#">
   <cc:Work>
    <dc:type rdf:resource="http://purl.org/dc/dcmitype/StillImage"/>
    <dc:date>2024-02-07T13:45:36.313339</dc:date>
    <dc:format>image/svg+xml</dc:format>
    <dc:creator>
     <cc:Agent>
      <dc:title>Matplotlib v3.8.0, https://matplotlib.org/</dc:title>
     </cc:Agent>
    </dc:creator>
   </cc:Work>
  </rdf:RDF>
 </metadata>
 <defs>
  <style type="text/css">*{stroke-linejoin: round; stroke-linecap: butt}</style>
 </defs>
 <g id="figure_1">
  <g id="patch_1">
   <path d="M 0 345.6 
L 460.8 345.6 
L 460.8 0 
L 0 0 
z
" style="fill: #ffffff"/>
  </g>
  <g id="axes_1">
   <g id="patch_2">
    <path d="M 72.752366 214.398059 
Q 105.382635 203.660929 136.950888 193.27326 
" clip-path="url(#p5c58150729)" style="fill: none; stroke: #000000; stroke-linecap: round"/>
    <path d="M 132.526171 192.623737 
L 136.950888 193.27326 
L 133.77644 196.42332 
z
" clip-path="url(#p5c58150729)" style="stroke: #000000; stroke-linecap: round"/>
   </g>
   <g id="patch_3">
    <path d="M 378.025035 233.320534 
Q 338.190919 228.610938 299.467103 224.032614 
" clip-path="url(#p5c58150729)" style="fill: none; stroke: #000000; stroke-linecap: round"/>
    <path d="M 303.204611 226.48843 
L 299.467103 224.032614 
L 303.674261 222.516097 
z
" clip-path="url(#p5c58150729)" style="stroke: #000000; stroke-linecap: round"/>
   </g>
   <g id="patch_4">
    <path d="M 379.896069 212.019598 
Q 339.123033 217.712782 299.45729 223.251353 
" clip-path="url(#p5c58150729)" style="fill: none; stroke: #000000; stroke-linecap: round"/>
    <path d="M 303.695436 224.678979 
L 299.45729 223.251353 
L 303.142278 220.717411 
z
" clip-path="url(#p5c58150729)" style="stroke: #000000; stroke-linecap: round"/>
   </g>
   <g id="patch_5">
    <path d="M 121.631563 166.839293 
Q 130.177835 178.79055 138.073777 189.832373 
" clip-path="url(#p5c58150729)" style="fill: none; stroke: #000000; stroke-linecap: round"/>
    <path d="M 137.373928 185.415336 
L 138.073777 189.832373 
L 134.120238 187.74203 
z
" clip-path="url(#p5c58150729)" style="stroke: #000000; stroke-linecap: round"/>
   </g>
   <g id="patch_6">
    <path d="M 68.025349 168.541233 
Q 103.020114 180.125937 136.953491 191.359277 
" clip-path="url(#p5c58150729)" style="fill: none; stroke: #000000; stroke-linecap: round"/>
    <path d="M 133.784692 188.203535 
L 136.953491 191.359277 
L 132.527618 192.000871 
z
" clip-path="url(#p5c58150729)" style="stroke: #000000; stroke-linecap: round"/>
   </g>
   <g id="patch_7">
    <path d="M 66.359968 91.481042 
Q 101.586611 102.350504 135.744921 112.890324 
" clip-path="url(#p5c58150729)" style="fill: none; stroke: #000000; stroke-linecap: round"/>
    <path d="M 132.512419 109.799866 
L 135.744921 112.890324 
L 131.333054 113.622051 
z
" clip-path="url(#p5c58150729)" style="stroke: #000000; stroke-linecap: round"/>
   </g>
   <g id="patch_8">
    <path d="M 298.533755 315.246033 
Q 257.668824 307.431604 217.902029 299.827168 
" clip-path="url(#p5c58150729)" style="fill: none; stroke: #000000; stroke-linecap: round"/>
    <path d="M 221.455196 302.542864 
L 217.902029 299.827168 
L 222.206486 298.614052 
z
" clip-path="url(#p5c58150729)" style="stroke: #000000; stroke-linecap: round"/>
   </g>
   <g id="patch_9">
    <path d="M 45.488375 283.798394 
Q 84.992233 275.260394 123.40329 266.958582 
" clip-path="url(#p5c58150729)" style="fill: none; stroke: #000000; stroke-linecap: round"/>
    <path d="M 119.071058 265.848731 
L 123.40329 266.958582 
L 119.916071 269.758457 
z
" clip-path="url(#p5c58150729)" style="stroke: #000000; stroke-linecap: round"/>
   </g>
   <g id="patch_10">
    <path d="M 184.447595 62.953292 
Q 200.225716 47.156744 215.213729 32.151227 
" clip-path="url(#p5c58150729)" style="fill: none; stroke: #000000; stroke-linecap: round"/>
    <path d="M 210.971914 33.567917 
L 215.213729 32.151227 
L 213.801991 36.394692 
z
" clip-path="url(#p5c58150729)" style="stroke: #000000; stroke-linecap: round"/>
   </g>
   <g id="patch_11">
    <path d="M 181.787684 65.761834 
Q 160.871186 89.056501 140.701652 111.519275 
" clip-path="url(#p5c58150729)" style="fill: none; stroke: #000000; stroke-linecap: round"/>
    <path d="M 144.862205 109.879216 
L 140.701652 111.519275 
L 141.885937 107.206797 
z
" clip-path="url(#p5c58150729)" style="stroke: #000000; stroke-linecap: round"/>
   </g>
   <g id="patch_12">
    <path d="M 216.005633 31.358398 
Q 200.227512 47.154946 185.239499 62.160463 
" clip-path="url(#p5c58150729)" style="fill: none; stroke: #000000; stroke-linecap: round"/>
    <path d="M 189.481314 60.743774 
L 185.239499 62.160463 
L 186.651237 57.916998 
z
" clip-path="url(#p5c58150729)" style="stroke: #000000; stroke-linecap: round"/>
   </g>
   <g id="patch_13">
    <path d="M 112.654698 80.521184 
Q 125.062436 96.393354 136.781601 111.384691 
" clip-path="url(#p5c58150729)" style="fill: none; stroke: #000000; stroke-linecap: round"/>
    <path d="M 135.89377 107.001569 
L 136.781601 111.384691 
L 132.742405 109.465083 
z
" clip-path="url(#p5c58150729)" style="stroke: #000000; stroke-linecap: round"/>
   </g>
   <g id="patch_14">
    <path d="M 190.326868 89.866772 
Q 165.372791 101.421975 141.433255 112.507386 
" clip-path="url(#p5c58150729)" style="fill: none; stroke: #000000; stroke-linecap: round"/>
    <path d="M 145.903381 112.641473 
L 141.433255 112.507386 
L 144.2226 109.011738 
z
" clip-path="url(#p5c58150729)" style="stroke: #000000; stroke-linecap: round"/>
   </g>
   <g id="patch_15">
    <path d="M 216.805392 299.617463 
Q 257.670323 307.431891 297.437118 315.036327 
" clip-path="url(#p5c58150729)" style="fill: none; stroke: #000000; stroke-linecap: round"/>
    <path d="M 293.883951 312.320631 
L 297.437118 315.036327 
L 293.132661 316.249443 
z
" clip-path="url(#p5c58150729)" style="stroke: #000000; stroke-linecap: round"/>
   </g>
   <g id="patch_16">
    <path d="M 213.089985 298.579046 
Q 170.646081 282.783334 129.250002 267.377574 
" clip-path="url(#p5c58150729)" style="fill: none; stroke: #000000; stroke-linecap: round"/>
    <path d="M 132.301244 270.647119 
L 129.250002 267.377574 
L 133.696383 266.898308 
z
" clip-path="url(#p5c58150729)" style="stroke: #000000; stroke-linecap: round"/>
   </g>
   <g id="patch_17">
    <path d="M 129.100097 300.312962 
Q 127.821846 284.278001 126.632439 269.357538 
" clip-path="url(#p5c58150729)" style="fill: none; stroke: #000000; stroke-linecap: round"/>
    <path d="M 124.956622 273.503818 
L 126.632439 269.357538 
L 128.943972 273.18596 
z
" clip-path="url(#p5c58150729)" style="stroke: #000000; stroke-linecap: round"/>
   </g>
   <g id="patch_18">
    <path d="M 124.497275 266.722138 
Q 84.993416 275.260139 46.58236 283.561951 
" clip-path="url(#p5c58150729)" style="fill: none; stroke: #000000; stroke-linecap: round"/>
    <path d="M 50.914591 284.671801 
L 46.58236 283.561951 
L 50.069579 280.762076 
z
" clip-path="url(#p5c58150729)" style="stroke: #000000; stroke-linecap: round"/>
   </g>
   <g id="patch_19">
    <path d="M 128.20225 266.987648 
Q 170.646154 282.783361 212.042233 298.18912 
" clip-path="url(#p5c58150729)" style="fill: none; stroke: #000000; stroke-linecap: round"/>
    <path d="M 208.990991 294.919575 
L 212.042233 298.18912 
L 207.595852 298.668387 
z
" clip-path="url(#p5c58150729)" style="stroke: #000000; stroke-linecap: round"/>
   </g>
   <g id="patch_20">
    <path d="M 126.543956 268.247568 
Q 127.822207 284.282529 129.011614 299.202992 
" clip-path="url(#p5c58150729)" style="fill: none; stroke: #000000; stroke-linecap: round"/>
    <path d="M 130.687432 295.056713 
L 129.011614 299.202992 
L 126.700081 295.37457 
z
" clip-path="url(#p5c58150729)" style="stroke: #000000; stroke-linecap: round"/>
   </g>
   <g id="patch_21">
    <path d="M 126.735666 264.411771 
Q 133.120389 229.317891 139.304992 195.323988 
" clip-path="url(#p5c58150729)" style="fill: none; stroke: #000000; stroke-linecap: round"/>
    <path d="M 136.621313 198.9014 
L 139.304992 195.323988 
L 140.556714 199.617378 
z
" clip-path="url(#p5c58150729)" style="stroke: #000000; stroke-linecap: round"/>
   </g>
   <g id="patch_22">
    <path d="M 124.802015 267.421291 
Q 101.987024 283.345246 80.08884 298.629306 
" clip-path="url(#p5c58150729)" style="fill: none; stroke: #000000; stroke-linecap: round"/>
    <path d="M 84.513586 297.979984 
L 80.08884 298.629306 
L 82.22423 294.699916 
z
" clip-path="url(#p5c58150729)" style="stroke: #000000; stroke-linecap: round"/>
   </g>
   <g id="patch_23">
    <path d="M 136.811174 113.219325 
Q 101.584531 102.349862 67.426221 91.810042 
" clip-path="url(#p5c58150729)" style="fill: none; stroke: #000000; stroke-linecap: round"/>
    <path d="M 70.658723 94.900501 
L 67.426221 91.810042 
L 71.838089 91.078316 
z
" clip-path="url(#p5c58150729)" style="stroke: #000000; stroke-linecap: round"/>
   </g>
   <g id="patch_24">
    <path d="M 139.955487 112.350277 
Q 160.871985 89.05561 181.041519 66.592836 
" clip-path="url(#p5c58150729)" style="fill: none; stroke: #000000; stroke-linecap: round"/>
    <path d="M 176.880965 68.232895 
L 181.041519 66.592836 
L 179.857234 70.905314 
z
" clip-path="url(#p5c58150729)" style="stroke: #000000; stroke-linecap: round"/>
   </g>
   <g id="patch_25">
    <path d="M 137.468585 112.263491 
Q 125.060847 96.391321 113.341682 81.399985 
" clip-path="url(#p5c58150729)" style="fill: none; stroke: #000000; stroke-linecap: round"/>
    <path d="M 114.229513 85.783106 
L 113.341682 81.399985 
L 117.380878 83.319593 
z
" clip-path="url(#p5c58150729)" style="stroke: #000000; stroke-linecap: round"/>
   </g>
   <g id="patch_26">
    <path d="M 140.419771 112.976689 
Q 165.373848 101.421486 189.313384 90.336075 
" clip-path="url(#p5c58150729)" style="fill: none; stroke: #000000; stroke-linecap: round"/>
    <path d="M 184.843258 90.201988 
L 189.313384 90.336075 
L 186.524039 93.831723 
z
" clip-path="url(#p5c58150729)" style="stroke: #000000; stroke-linecap: round"/>
   </g>
   <g id="patch_27">
    <path d="M 138.691552 115.722075 
Q 139.256956 153.050316 139.805428 189.260652 
" clip-path="url(#p5c58150729)" style="fill: none; stroke: #000000; stroke-linecap: round"/>
    <path d="M 141.744618 185.230821 
L 139.805428 189.260652 
L 137.745077 185.291401 
z
" clip-path="url(#p5c58150729)" style="stroke: #000000; stroke-linecap: round"/>
   </g>
   <g id="patch_28">
    <path d="M 252.591009 136.251576 
Q 230.319625 147.751799 209.041652 158.739055 
" clip-path="url(#p5c58150729)" style="fill: none; stroke: #000000; stroke-linecap: round"/>
    <path d="M 213.513409 158.680883 
L 209.041652 158.739055 
L 211.678168 155.126746 
z
" clip-path="url(#p5c58150729)" style="stroke: #000000; stroke-linecap: round"/>
   </g>
   <g id="patch_29">
    <path d="M 79.17181 299.269357 
Q 101.986801 283.345402 123.884985 268.061342 
" clip-path="url(#p5c58150729)" style="fill: none; stroke: #000000; stroke-linecap: round"/>
    <path d="M 119.460239 268.710665 
L 123.884985 268.061342 
L 121.749595 271.990733 
z
" clip-path="url(#p5c58150729)" style="stroke: #000000; stroke-linecap: round"/>
   </g>
   <g id="patch_30">
    <path d="M 419.222169 295.357611 
Q 397.070584 279.983569 375.837493 265.246997 
" clip-path="url(#p5c58150729)" style="fill: none; stroke: #000000; stroke-linecap: round"/>
    <path d="M 377.983258 269.170732 
L 375.837493 265.246997 
L 380.26394 265.884626 
z
" clip-path="url(#p5c58150729)" style="stroke: #000000; stroke-linecap: round"/>
   </g>
   <g id="patch_31">
    <path d="M 374.921895 264.611537 
Q 397.07348 279.985579 418.306571 294.722151 
" clip-path="url(#p5c58150729)" style="fill: none; stroke: #000000; stroke-linecap: round"/>
    <path d="M 416.160806 290.798416 
L 418.306571 294.722151 
L 413.880124 294.084522 
z
" clip-path="url(#p5c58150729)" style="stroke: #000000; stroke-linecap: round"/>
   </g>
   <g id="patch_32">
    <path d="M 371.610661 262.616234 
Q 334.880543 243.590071 299.143175 225.078152 
" clip-path="url(#p5c58150729)" style="fill: none; stroke: #000000; stroke-linecap: round"/>
    <path d="M 301.77504 228.693853 
L 299.143175 225.078152 
L 303.614854 225.142081 
z
" clip-path="url(#p5c58150729)" style="stroke: #000000; stroke-linecap: round"/>
   </g>
   <g id="patch_33">
    <path d="M 138.013005 192.923766 
Q 105.382736 203.660895 73.814483 214.048565 
" clip-path="url(#p5c58150729)" style="fill: none; stroke: #000000; stroke-linecap: round"/>
    <path d="M 78.2392 214.698087 
L 73.814483 214.048565 
L 76.988931 210.898504 
z
" clip-path="url(#p5c58150729)" style="stroke: #000000; stroke-linecap: round"/>
   </g>
   <g id="patch_34">
    <path d="M 138.725238 190.743387 
Q 130.178966 178.792131 122.283024 167.750308 
" clip-path="url(#p5c58150729)" style="fill: none; stroke: #000000; stroke-linecap: round"/>
    <path d="M 122.982874 172.167344 
L 122.283024 167.750308 
L 126.236563 169.84065 
z
" clip-path="url(#p5c58150729)" style="stroke: #000000; stroke-linecap: round"/>
   </g>
   <g id="patch_35">
    <path d="M 138.012813 191.709956 
Q 103.018048 180.125253 69.08467 168.891912 
" clip-path="url(#p5c58150729)" style="fill: none; stroke: #000000; stroke-linecap: round"/>
    <path d="M 72.25347 172.047654 
L 69.08467 168.891912 
L 73.510544 168.250318 
z
" clip-path="url(#p5c58150729)" style="stroke: #000000; stroke-linecap: round"/>
   </g>
   <g id="patch_36">
    <path d="M 139.505831 194.220065 
Q 133.121107 229.313945 126.936505 263.307847 
" clip-path="url(#p5c58150729)" style="fill: none; stroke: #000000; stroke-linecap: round"/>
    <path d="M 129.620183 259.730436 
L 126.936505 263.307847 
L 125.684783 259.014458 
z
" clip-path="url(#p5c58150729)" style="stroke: #000000; stroke-linecap: round"/>
   </g>
   <g id="patch_37">
    <path d="M 139.822491 190.387148 
Q 139.257086 153.058906 138.708615 116.84857 
" clip-path="url(#p5c58150729)" style="fill: none; stroke: #000000; stroke-linecap: round"/>
    <path d="M 136.769424 120.878402 
L 138.708615 116.84857 
L 140.768966 120.817822 
z
" clip-path="url(#p5c58150729)" style="stroke: #000000; stroke-linecap: round"/>
   </g>
   <g id="patch_38">
    <path d="M 141.791021 192.377712 
Q 173.728594 193.349246 204.548649 194.286785 
" clip-path="url(#p5c58150729)" style="fill: none; stroke: #000000; stroke-linecap: round"/>
    <path d="M 200.61131 192.166087 
L 204.548649 194.286785 
L 200.489687 196.164238 
z
" clip-path="url(#p5c58150729)" style="stroke: #000000; stroke-linecap: round"/>
   </g>
   <g id="patch_39">
    <path d="M 141.748793 192.698601 
Q 218.139212 207.995713 293.433361 223.073297 
" clip-path="url(#p5c58150729)" style="fill: none; stroke: #000000; stroke-linecap: round"/>
    <path d="M 289.903928 220.326826 
L 293.433361 223.073297 
L 289.118525 224.248961 
z
" clip-path="url(#p5c58150729)" style="stroke: #000000; stroke-linecap: round"/>
   </g>
   <g id="patch_40">
    <path d="M 137.925154 192.143439 
Q 90.144747 187.796403 43.477776 183.550666 
" clip-path="url(#p5c58150729)" style="fill: none; stroke: #000000; stroke-linecap: round"/>
    <path d="M 47.280113 185.904861 
L 43.477776 183.550666 
L 47.642534 181.921313 
z
" clip-path="url(#p5c58150729)" style="stroke: #000000; stroke-linecap: round"/>
   </g>
   <g id="patch_41">
    <path d="M 137.922594 192.486486 
Q 89.918562 196.661111 43.02836 200.738872 
" clip-path="url(#p5c58150729)" style="fill: none; stroke: #000000; stroke-linecap: round"/>
    <path d="M 47.186594 202.384804 
L 43.02836 200.738872 
L 46.840045 198.399844 
z
" clip-path="url(#p5c58150729)" style="stroke: #000000; stroke-linecap: round"/>
   </g>
   <g id="patch_42">
    <path d="M 141.592385 191.476148 
Q 173.08928 176.229785 203.579841 161.470548 
" clip-path="url(#p5c58150729)" style="fill: none; stroke: #000000; stroke-linecap: round"/>
    <path d="M 199.108073 161.413155 
L 203.579841 161.470548 
L 200.850866 165.013527 
z
" clip-path="url(#p5c58150729)" style="stroke: #000000; stroke-linecap: round"/>
   </g>
   <g id="patch_43">
    <path d="M 139.136203 194.122 
Q 134.412919 206.025377 130.101995 216.889543 
" clip-path="url(#p5c58150729)" style="fill: none; stroke: #000000; stroke-linecap: round"/>
    <path d="M 133.436299 213.909204 
L 130.101995 216.889543 
L 129.718306 212.433897 
z
" clip-path="url(#p5c58150729)" style="stroke: #000000; stroke-linecap: round"/>
   </g>
   <g id="patch_44">
    <path d="M 129.692067 217.922622 
Q 134.415352 206.019245 138.726275 195.155079 
" clip-path="url(#p5c58150729)" style="fill: none; stroke: #000000; stroke-linecap: round"/>
    <path d="M 135.391972 198.135418 
L 138.726275 195.155079 
L 139.109964 199.610725 
z
" clip-path="url(#p5c58150729)" style="stroke: #000000; stroke-linecap: round"/>
   </g>
   <g id="patch_45">
    <path d="M 208.04771 159.252295 
Q 230.319095 147.752072 251.597067 136.764815 
" clip-path="url(#p5c58150729)" style="fill: none; stroke: #000000; stroke-linecap: round"/>
    <path d="M 247.12531 136.822988 
L 251.597067 136.764815 
L 248.960551 140.377125 
z
" clip-path="url(#p5c58150729)" style="stroke: #000000; stroke-linecap: round"/>
   </g>
   <g id="patch_46">
    <path d="M 204.588013 160.982533 
Q 173.091117 176.228896 142.600556 190.988133 
" clip-path="url(#p5c58150729)" style="fill: none; stroke: #000000; stroke-linecap: round"/>
    <path d="M 147.072324 191.045526 
L 142.600556 190.988133 
L 145.329531 187.445155 
z
" clip-path="url(#p5c58150729)" style="stroke: #000000; stroke-linecap: round"/>
   </g>
   <g id="patch_47">
    <path d="M 42.360022 183.448974 
Q 90.140429 187.79601 136.807401 192.041746 
" clip-path="url(#p5c58150729)" style="fill: none; stroke: #000000; stroke-linecap: round"/>
    <path d="M 133.005064 189.687551 
L 136.807401 192.041746 
L 132.642643 193.671099 
z
" clip-path="url(#p5c58150729)" style="stroke: #000000; stroke-linecap: round"/>
   </g>
   <g id="patch_48">
    <path d="M 41.915931 200.835613 
Q 89.919963 196.660989 136.810165 192.583228 
" clip-path="url(#p5c58150729)" style="fill: none; stroke: #000000; stroke-linecap: round"/>
    <path d="M 132.651931 190.937296 
L 136.810165 192.583228 
L 132.99848 194.922256 
z
" clip-path="url(#p5c58150729)" style="stroke: #000000; stroke-linecap: round"/>
   </g>
   <g id="patch_49">
    <path d="M 205.658852 194.320557 
Q 173.72128 193.349023 142.901224 192.411484 
" clip-path="url(#p5c58150729)" style="fill: none; stroke: #000000; stroke-linecap: round"/>
    <path d="M 146.838563 194.532182 
L 142.901224 192.411484 
L 146.960186 190.534031 
z
" clip-path="url(#p5c58150729)" style="stroke: #000000; stroke-linecap: round"/>
   </g>
   <g id="patch_50">
    <path d="M 298.356319 223.901286 
Q 338.190436 228.610881 376.914251 233.189206 
" clip-path="url(#p5c58150729)" style="fill: none; stroke: #000000; stroke-linecap: round"/>
    <path d="M 373.176743 230.73339 
L 376.914251 233.189206 
L 372.707094 234.705723 
z
" clip-path="url(#p5c58150729)" style="stroke: #000000; stroke-linecap: round"/>
   </g>
   <g id="patch_51">
    <path d="M 298.352437 223.405625 
Q 339.125473 217.712441 378.791216 212.17387 
" clip-path="url(#p5c58150729)" style="fill: none; stroke: #000000; stroke-linecap: round"/>
    <path d="M 374.55307 210.746244 
L 378.791216 212.17387 
L 375.106228 214.707812 
z
" clip-path="url(#p5c58150729)" style="stroke: #000000; stroke-linecap: round"/>
   </g>
   <g id="patch_52">
    <path d="M 298.152195 224.564826 
Q 334.882314 243.590989 370.619682 262.102907 
" clip-path="url(#p5c58150729)" style="fill: none; stroke: #000000; stroke-linecap: round"/>
    <path d="M 367.987817 258.487207 
L 370.619682 262.102907 
L 366.148003 262.038979 
z
" clip-path="url(#p5c58150729)" style="stroke: #000000; stroke-linecap: round"/>
   </g>
   <g id="patch_53">
    <path d="M 294.534971 223.293894 
Q 218.144552 207.996782 142.850403 192.919197 
" clip-path="url(#p5c58150729)" style="fill: none; stroke: #000000; stroke-linecap: round"/>
    <path d="M 146.379836 195.665668 
L 142.850403 192.919197 
L 147.165239 191.743534 
z
" clip-path="url(#p5c58150729)" style="stroke: #000000; stroke-linecap: round"/>
   </g>
   <g id="PathCollection_1">
    <defs>
     <path id="me78edfe529" d="M 0 1.936492 
C 0.513564 1.936492 1.006162 1.732451 1.369306 1.369306 
C 1.732451 1.006162 1.936492 0.513564 1.936492 0 
C 1.936492 -0.513564 1.732451 -1.006162 1.369306 -1.369306 
C 1.006162 -1.732451 0.513564 -1.936492 0 -1.936492 
C -0.513564 -1.936492 -1.006162 -1.732451 -1.369306 -1.369306 
C -1.732451 -1.006162 -1.936492 -0.513564 -1.936492 0 
C -1.936492 0.513564 -1.732451 1.006162 -1.369306 1.369306 
C -1.006162 1.732451 -0.513564 1.936492 0 1.936492 
z
" style="stroke: #1f78b4"/>
    </defs>
    <g clip-path="url(#p5c58150729)">
     <use xlink:href="#me78edfe529" x="70.913623" y="215.003105" style="fill: #1f78b4; stroke: #1f78b4"/>
     <use xlink:href="#me78edfe529" x="379.949339" y="233.548045" style="fill: #1f78b4; stroke: #1f78b4"/>
     <use xlink:href="#me78edfe529" x="381.81649" y="211.751448" style="fill: #1f78b4; stroke: #1f78b4"/>
     <use xlink:href="#me78edfe529" x="120.505053" y="165.263961" style="fill: #1f78b4; stroke: #1f78b4"/>
     <use xlink:href="#me78edfe529" x="66.186414" y="167.93247" style="fill: #1f78b4; stroke: #1f78b4"/>
     <use xlink:href="#me78edfe529" x="64.508848" y="90.909864" style="fill: #1f78b4; stroke: #1f78b4"/>
     <use xlink:href="#me78edfe529" x="300.436661" y="315.609917" style="fill: #1f78b4; stroke: #1f78b4"/>
     <use xlink:href="#me78edfe529" x="43.595901" y="284.207416" style="fill: #1f78b4; stroke: #1f78b4"/>
     <use xlink:href="#me78edfe529" x="183.080876" y="64.321608" style="fill: #1f78b4; stroke: #1f78b4"/>
     <use xlink:href="#me78edfe529" x="217.372352" y="29.990083" style="fill: #1f78b4; stroke: #1f78b4"/>
     <use xlink:href="#me78edfe529" x="111.460988" y="78.994172" style="fill: #1f78b4; stroke: #1f78b4"/>
     <use xlink:href="#me78edfe529" x="192.084344" y="89.052958" style="fill: #1f78b4; stroke: #1f78b4"/>
     <use xlink:href="#me78edfe529" x="214.902486" y="299.253578" style="fill: #1f78b4; stroke: #1f78b4"/>
     <use xlink:href="#me78edfe529" x="129.254305" y="302.247414" style="fill: #1f78b4; stroke: #1f78b4"/>
     <use xlink:href="#me78edfe529" x="126.389749" y="266.313117" style="fill: #1f78b4; stroke: #1f78b4"/>
     <use xlink:href="#me78edfe529" x="138.662295" y="113.790503" style="fill: #1f78b4; stroke: #1f78b4"/>
     <use xlink:href="#me78edfe529" x="254.31007" y="135.363909" style="fill: #1f78b4; stroke: #1f78b4"/>
     <use xlink:href="#me78edfe529" x="77.584076" y="300.377532" style="fill: #1f78b4; stroke: #1f78b4"/>
     <use xlink:href="#me78edfe529" x="420.813223" y="296.461863" style="fill: #1f78b4; stroke: #1f78b4"/>
     <use xlink:href="#me78edfe529" x="373.330841" y="263.507285" style="fill: #1f78b4; stroke: #1f78b4"/>
     <use xlink:href="#me78edfe529" x="139.851748" y="192.318719" style="fill: #1f78b4; stroke: #1f78b4"/>
     <use xlink:href="#me78edfe529" x="128.976522" y="219.725903" style="fill: #1f78b4; stroke: #1f78b4"/>
     <use xlink:href="#me78edfe529" x="206.328649" y="160.139962" style="fill: #1f78b4; stroke: #1f78b4"/>
     <use xlink:href="#me78edfe529" x="40.433428" y="183.273693" style="fill: #1f78b4; stroke: #1f78b4"/>
     <use xlink:href="#me78edfe529" x="39.986777" y="201.00338" style="fill: #1f78b4; stroke: #1f78b4"/>
     <use xlink:href="#me78edfe529" x="207.598125" y="194.37955" style="fill: #1f78b4; stroke: #1f78b4"/>
     <use xlink:href="#me78edfe529" x="296.432016" y="223.673775" style="fill: #1f78b4; stroke: #1f78b4"/>
    </g>
   </g>
   <g id="text_1">
    <g clip-path="url(#p5c58150729)">
     <!-- 0 -->
     <g transform="translate(67.732373 217.76248) scale(0.1 -0.1)">
      <defs>
       <path id="DejaVuSans-30" d="M 2034 4250 
Q 1547 4250 1301 3770 
Q 1056 3291 1056 2328 
Q 1056 1369 1301 889 
Q 1547 409 2034 409 
Q 2525 409 2770 889 
Q 3016 1369 3016 2328 
Q 3016 3291 2770 3770 
Q 2525 4250 2034 4250 
z
M 2034 4750 
Q 2819 4750 3233 4129 
Q 3647 3509 3647 2328 
Q 3647 1150 3233 529 
Q 2819 -91 2034 -91 
Q 1250 -91 836 529 
Q 422 1150 422 2328 
Q 422 3509 836 4129 
Q 1250 4750 2034 4750 
z
" transform="scale(0.015625)"/>
      </defs>
      <use xlink:href="#DejaVuSans-30"/>
     </g>
    </g>
   </g>
   <g id="text_2">
    <g clip-path="url(#p5c58150729)">
     <!-- 2 -->
     <g transform="translate(376.768089 236.30742) scale(0.1 -0.1)">
      <defs>
       <path id="DejaVuSans-32" d="M 1228 531 
L 3431 531 
L 3431 0 
L 469 0 
L 469 531 
Q 828 903 1448 1529 
Q 2069 2156 2228 2338 
Q 2531 2678 2651 2914 
Q 2772 3150 2772 3378 
Q 2772 3750 2511 3984 
Q 2250 4219 1831 4219 
Q 1534 4219 1204 4116 
Q 875 4013 500 3803 
L 500 4441 
Q 881 4594 1212 4672 
Q 1544 4750 1819 4750 
Q 2544 4750 2975 4387 
Q 3406 4025 3406 3419 
Q 3406 3131 3298 2873 
Q 3191 2616 2906 2266 
Q 2828 2175 2409 1742 
Q 1991 1309 1228 531 
z
" transform="scale(0.015625)"/>
      </defs>
      <use xlink:href="#DejaVuSans-32"/>
     </g>
    </g>
   </g>
   <g id="text_3">
    <g clip-path="url(#p5c58150729)">
     <!-- 3 -->
     <g transform="translate(378.63524 214.510823) scale(0.1 -0.1)">
      <defs>
       <path id="DejaVuSans-33" d="M 2597 2516 
Q 3050 2419 3304 2112 
Q 3559 1806 3559 1356 
Q 3559 666 3084 287 
Q 2609 -91 1734 -91 
Q 1441 -91 1130 -33 
Q 819 25 488 141 
L 488 750 
Q 750 597 1062 519 
Q 1375 441 1716 441 
Q 2309 441 2620 675 
Q 2931 909 2931 1356 
Q 2931 1769 2642 2001 
Q 2353 2234 1838 2234 
L 1294 2234 
L 1294 2753 
L 1863 2753 
Q 2328 2753 2575 2939 
Q 2822 3125 2822 3475 
Q 2822 3834 2567 4026 
Q 2313 4219 1838 4219 
Q 1578 4219 1281 4162 
Q 984 4106 628 3988 
L 628 4550 
Q 988 4650 1302 4700 
Q 1616 4750 1894 4750 
Q 2613 4750 3031 4423 
Q 3450 4097 3450 3541 
Q 3450 3153 3228 2886 
Q 3006 2619 2597 2516 
z
" transform="scale(0.015625)"/>
      </defs>
      <use xlink:href="#DejaVuSans-33"/>
     </g>
    </g>
   </g>
   <g id="text_4">
    <g clip-path="url(#p5c58150729)">
     <!-- 4 -->
     <g transform="translate(117.323803 168.023336) scale(0.1 -0.1)">
      <defs>
       <path id="DejaVuSans-34" d="M 2419 4116 
L 825 1625 
L 2419 1625 
L 2419 4116 
z
M 2253 4666 
L 3047 4666 
L 3047 1625 
L 3713 1625 
L 3713 1100 
L 3047 1100 
L 3047 0 
L 2419 0 
L 2419 1100 
L 313 1100 
L 313 1709 
L 2253 4666 
z
" transform="scale(0.015625)"/>
      </defs>
      <use xlink:href="#DejaVuSans-34"/>
     </g>
    </g>
   </g>
   <g id="text_5">
    <g clip-path="url(#p5c58150729)">
     <!-- 8 -->
     <g transform="translate(63.005164 170.691845) scale(0.1 -0.1)">
      <defs>
       <path id="DejaVuSans-38" d="M 2034 2216 
Q 1584 2216 1326 1975 
Q 1069 1734 1069 1313 
Q 1069 891 1326 650 
Q 1584 409 2034 409 
Q 2484 409 2743 651 
Q 3003 894 3003 1313 
Q 3003 1734 2745 1975 
Q 2488 2216 2034 2216 
z
M 1403 2484 
Q 997 2584 770 2862 
Q 544 3141 544 3541 
Q 544 4100 942 4425 
Q 1341 4750 2034 4750 
Q 2731 4750 3128 4425 
Q 3525 4100 3525 3541 
Q 3525 3141 3298 2862 
Q 3072 2584 2669 2484 
Q 3125 2378 3379 2068 
Q 3634 1759 3634 1313 
Q 3634 634 3220 271 
Q 2806 -91 2034 -91 
Q 1263 -91 848 271 
Q 434 634 434 1313 
Q 434 1759 690 2068 
Q 947 2378 1403 2484 
z
M 1172 3481 
Q 1172 3119 1398 2916 
Q 1625 2713 2034 2713 
Q 2441 2713 2670 2916 
Q 2900 3119 2900 3481 
Q 2900 3844 2670 4047 
Q 2441 4250 2034 4250 
Q 1625 4250 1398 4047 
Q 1172 3844 1172 3481 
z
" transform="scale(0.015625)"/>
      </defs>
      <use xlink:href="#DejaVuSans-38"/>
     </g>
    </g>
   </g>
   <g id="text_6">
    <g clip-path="url(#p5c58150729)">
     <!-- 10 -->
     <g transform="translate(58.146348 93.669239) scale(0.1 -0.1)">
      <defs>
       <path id="DejaVuSans-31" d="M 794 531 
L 1825 531 
L 1825 4091 
L 703 3866 
L 703 4441 
L 1819 4666 
L 2450 4666 
L 2450 531 
L 3481 531 
L 3481 0 
L 794 0 
L 794 531 
z
" transform="scale(0.015625)"/>
      </defs>
      <use xlink:href="#DejaVuSans-31"/>
      <use xlink:href="#DejaVuSans-30" x="63.623047"/>
     </g>
    </g>
   </g>
   <g id="text_7">
    <g clip-path="url(#p5c58150729)">
     <!-- 12 -->
     <g transform="translate(294.074161 318.369292) scale(0.1 -0.1)">
      <use xlink:href="#DejaVuSans-31"/>
      <use xlink:href="#DejaVuSans-32" x="63.623047"/>
     </g>
    </g>
   </g>
   <g id="text_8">
    <g clip-path="url(#p5c58150729)">
     <!-- 14 -->
     <g transform="translate(37.233401 286.966791) scale(0.1 -0.1)">
      <use xlink:href="#DejaVuSans-31"/>
      <use xlink:href="#DejaVuSans-34" x="63.623047"/>
     </g>
    </g>
   </g>
   <g id="text_9">
    <g clip-path="url(#p5c58150729)">
     <!-- 17 -->
     <g transform="translate(176.718376 67.080983) scale(0.1 -0.1)">
      <defs>
       <path id="DejaVuSans-37" d="M 525 4666 
L 3525 4666 
L 3525 4397 
L 1831 0 
L 1172 0 
L 2766 4134 
L 525 4134 
L 525 4666 
z
" transform="scale(0.015625)"/>
      </defs>
      <use xlink:href="#DejaVuSans-31"/>
      <use xlink:href="#DejaVuSans-37" x="63.623047"/>
     </g>
    </g>
   </g>
   <g id="text_10">
    <g clip-path="url(#p5c58150729)">
     <!-- 18 -->
     <g transform="translate(211.009852 32.749458) scale(0.1 -0.1)">
      <use xlink:href="#DejaVuSans-31"/>
      <use xlink:href="#DejaVuSans-38" x="63.623047"/>
     </g>
    </g>
   </g>
   <g id="text_11">
    <g clip-path="url(#p5c58150729)">
     <!-- 21 -->
     <g transform="translate(105.098488 81.753547) scale(0.1 -0.1)">
      <use xlink:href="#DejaVuSans-32"/>
      <use xlink:href="#DejaVuSans-31" x="63.623047"/>
     </g>
    </g>
   </g>
   <g id="text_12">
    <g clip-path="url(#p5c58150729)">
     <!-- 23 -->
     <g transform="translate(185.721844 91.812333) scale(0.1 -0.1)">
      <use xlink:href="#DejaVuSans-32"/>
      <use xlink:href="#DejaVuSans-33" x="63.623047"/>
     </g>
    </g>
   </g>
   <g id="text_13">
    <g clip-path="url(#p5c58150729)">
     <!-- 24 -->
     <g transform="translate(208.539986 302.012953) scale(0.1 -0.1)">
      <use xlink:href="#DejaVuSans-32"/>
      <use xlink:href="#DejaVuSans-34" x="63.623047"/>
     </g>
    </g>
   </g>
   <g id="text_14">
    <g clip-path="url(#p5c58150729)">
     <!-- 25 -->
     <g transform="translate(122.891805 305.006789) scale(0.1 -0.1)">
      <defs>
       <path id="DejaVuSans-35" d="M 691 4666 
L 3169 4666 
L 3169 4134 
L 1269 4134 
L 1269 2991 
Q 1406 3038 1543 3061 
Q 1681 3084 1819 3084 
Q 2600 3084 3056 2656 
Q 3513 2228 3513 1497 
Q 3513 744 3044 326 
Q 2575 -91 1722 -91 
Q 1428 -91 1123 -41 
Q 819 9 494 109 
L 494 744 
Q 775 591 1075 516 
Q 1375 441 1709 441 
Q 2250 441 2565 725 
Q 2881 1009 2881 1497 
Q 2881 1984 2565 2268 
Q 2250 2553 1709 2553 
Q 1456 2553 1204 2497 
Q 953 2441 691 2322 
L 691 4666 
z
" transform="scale(0.015625)"/>
      </defs>
      <use xlink:href="#DejaVuSans-32"/>
      <use xlink:href="#DejaVuSans-35" x="63.623047"/>
     </g>
    </g>
   </g>
   <g id="text_15">
    <g clip-path="url(#p5c58150729)">
     <!-- 26 -->
     <g transform="translate(120.027249 269.072492) scale(0.1 -0.1)">
      <defs>
       <path id="DejaVuSans-36" d="M 2113 2584 
Q 1688 2584 1439 2293 
Q 1191 2003 1191 1497 
Q 1191 994 1439 701 
Q 1688 409 2113 409 
Q 2538 409 2786 701 
Q 3034 994 3034 1497 
Q 3034 2003 2786 2293 
Q 2538 2584 2113 2584 
z
M 3366 4563 
L 3366 3988 
Q 3128 4100 2886 4159 
Q 2644 4219 2406 4219 
Q 1781 4219 1451 3797 
Q 1122 3375 1075 2522 
Q 1259 2794 1537 2939 
Q 1816 3084 2150 3084 
Q 2853 3084 3261 2657 
Q 3669 2231 3669 1497 
Q 3669 778 3244 343 
Q 2819 -91 2113 -91 
Q 1303 -91 875 529 
Q 447 1150 447 2328 
Q 447 3434 972 4092 
Q 1497 4750 2381 4750 
Q 2619 4750 2861 4703 
Q 3103 4656 3366 4563 
z
" transform="scale(0.015625)"/>
      </defs>
      <use xlink:href="#DejaVuSans-32"/>
      <use xlink:href="#DejaVuSans-36" x="63.623047"/>
     </g>
    </g>
   </g>
   <g id="text_16">
    <g clip-path="url(#p5c58150729)">
     <!-- 27 -->
     <g transform="translate(132.299795 116.549878) scale(0.1 -0.1)">
      <use xlink:href="#DejaVuSans-32"/>
      <use xlink:href="#DejaVuSans-37" x="63.623047"/>
     </g>
    </g>
   </g>
   <g id="text_17">
    <g clip-path="url(#p5c58150729)">
     <!-- 28 -->
     <g transform="translate(247.94757 138.123284) scale(0.1 -0.1)">
      <use xlink:href="#DejaVuSans-32"/>
      <use xlink:href="#DejaVuSans-38" x="63.623047"/>
     </g>
    </g>
   </g>
   <g id="text_18">
    <g clip-path="url(#p5c58150729)">
     <!-- 30 -->
     <g transform="translate(71.221576 303.136907) scale(0.1 -0.1)">
      <use xlink:href="#DejaVuSans-33"/>
      <use xlink:href="#DejaVuSans-30" x="63.623047"/>
     </g>
    </g>
   </g>
   <g id="text_19">
    <g clip-path="url(#p5c58150729)">
     <!-- 32 -->
     <g transform="translate(414.450723 299.221238) scale(0.1 -0.1)">
      <use xlink:href="#DejaVuSans-33"/>
      <use xlink:href="#DejaVuSans-32" x="63.623047"/>
     </g>
    </g>
   </g>
   <g id="text_20">
    <g clip-path="url(#p5c58150729)">
     <!-- 34 -->
     <g transform="translate(366.968341 266.26666) scale(0.1 -0.1)">
      <use xlink:href="#DejaVuSans-33"/>
      <use xlink:href="#DejaVuSans-34" x="63.623047"/>
     </g>
    </g>
   </g>
   <g id="text_21">
    <g clip-path="url(#p5c58150729)">
     <!-- 36 -->
     <g transform="translate(133.489248 195.078094) scale(0.1 -0.1)">
      <use xlink:href="#DejaVuSans-33"/>
      <use xlink:href="#DejaVuSans-36" x="63.623047"/>
     </g>
    </g>
   </g>
   <g id="text_22">
    <g clip-path="url(#p5c58150729)">
     <!-- 38 -->
     <g transform="translate(122.614022 222.485278) scale(0.1 -0.1)">
      <use xlink:href="#DejaVuSans-33"/>
      <use xlink:href="#DejaVuSans-38" x="63.623047"/>
     </g>
    </g>
   </g>
   <g id="text_23">
    <g clip-path="url(#p5c58150729)">
     <!-- 39 -->
     <g transform="translate(199.966149 162.899337) scale(0.1 -0.1)">
      <defs>
       <path id="DejaVuSans-39" d="M 703 97 
L 703 672 
Q 941 559 1184 500 
Q 1428 441 1663 441 
Q 2288 441 2617 861 
Q 2947 1281 2994 2138 
Q 2813 1869 2534 1725 
Q 2256 1581 1919 1581 
Q 1219 1581 811 2004 
Q 403 2428 403 3163 
Q 403 3881 828 4315 
Q 1253 4750 1959 4750 
Q 2769 4750 3195 4129 
Q 3622 3509 3622 2328 
Q 3622 1225 3098 567 
Q 2575 -91 1691 -91 
Q 1453 -91 1209 -44 
Q 966 3 703 97 
z
M 1959 2075 
Q 2384 2075 2632 2365 
Q 2881 2656 2881 3163 
Q 2881 3666 2632 3958 
Q 2384 4250 1959 4250 
Q 1534 4250 1286 3958 
Q 1038 3666 1038 3163 
Q 1038 2656 1286 2365 
Q 1534 2075 1959 2075 
z
" transform="scale(0.015625)"/>
      </defs>
      <use xlink:href="#DejaVuSans-33"/>
      <use xlink:href="#DejaVuSans-39" x="63.623047"/>
     </g>
    </g>
   </g>
   <g id="text_24">
    <g clip-path="url(#p5c58150729)">
     <!-- 40 -->
     <g transform="translate(34.070928 186.033068) scale(0.1 -0.1)">
      <use xlink:href="#DejaVuSans-34"/>
      <use xlink:href="#DejaVuSans-30" x="63.623047"/>
     </g>
    </g>
   </g>
   <g id="text_25">
    <g clip-path="url(#p5c58150729)">
     <!-- 41 -->
     <g transform="translate(33.624277 203.762755) scale(0.1 -0.1)">
      <use xlink:href="#DejaVuSans-34"/>
      <use xlink:href="#DejaVuSans-31" x="63.623047"/>
     </g>
    </g>
   </g>
   <g id="text_26">
    <g clip-path="url(#p5c58150729)">
     <!-- 42 -->
     <g transform="translate(201.235625 197.138925) scale(0.1 -0.1)">
      <use xlink:href="#DejaVuSans-34"/>
      <use xlink:href="#DejaVuSans-32" x="63.623047"/>
     </g>
    </g>
   </g>
   <g id="text_27">
    <g clip-path="url(#p5c58150729)">
     <!-- 43 -->
     <g transform="translate(290.069516 226.43315) scale(0.1 -0.1)">
      <use xlink:href="#DejaVuSans-34"/>
      <use xlink:href="#DejaVuSans-33" x="63.623047"/>
     </g>
    </g>
   </g>
  </g>
 </g>
 <defs>
  <clipPath id="p5c58150729">
   <rect x="0" y="0" width="460.8" height="345.6"/>
  </clipPath>
 </defs>
</svg>
