<?xml version="1.0" encoding="utf-8" standalone="no"?>
<!DOCTYPE svg PUBLIC "-//W3C//DTD SVG 1.1//EN"
  "http://www.w3.org/Graphics/SVG/1.1/DTD/svg11.dtd">
<svg xmlns:xlink="http://www.w3.org/1999/xlink" width="460.8pt" height="345.6pt" viewBox="0 0 460.8 345.6" xmlns="http://www.w3.org/2000/svg" version="1.1">
 <metadata>
  <rdf:RDF xmlns:dc="http://purl.org/dc/elements/1.1/" xmlns:cc="http://creativecommons.org/ns#" xmlns:rdf="http://www.w3.org/1999/02/22-rdf-syntax-ns#">
   <cc:Work>
    <dc:type rdf:resource="http://purl.org/dc/dcmitype/StillImage"/>
    <dc:date>2024-02-07T13:46:27.961170</dc:date>
    <dc:format>image/svg+xml</dc:format>
    <dc:creator>
     <cc:Agent>
      <dc:title>Matplotlib v3.8.0, https://matplotlib.org/</dc:title>
     </cc:Agent>
    </dc:creator>
   </cc:Work>
  </rdf:RDF>
 </metadata>
 <defs>
  <style type="text/css">*{stroke-linejoin: round; stroke-linecap: butt}</style>
 </defs>
 <g id="figure_1">
  <g id="patch_1">
   <path d="M 0 345.6 
L 460.8 345.6 
L 460.8 0 
L 0 0 
z
" style="fill: #ffffff"/>
  </g>
  <g id="axes_1">
   <g id="patch_2">
    <path d="M 97.010434 314.040002 
Q 117.680432 285.492091 137.694746 257.849763 
" clip-path="url(#pc02d6a298b)" style="fill: none; stroke: #000000; stroke-linecap: round"/>
    <path d="M 133.728948 259.916752 
L 137.694746 257.849763 
L 136.968858 262.262595 
z
" clip-path="url(#pc02d6a298b)" style="stroke: #000000; stroke-linecap: round"/>
   </g>
   <g id="patch_3">
    <path d="M 220.82277 288.07317 
Q 181.052976 272.083451 142.320513 256.510798 
" clip-path="url(#pc02d6a298b)" style="fill: none; stroke: #000000; stroke-linecap: round"/>
    <path d="M 145.285711 259.858573 
L 142.320513 256.510798 
L 146.777852 256.147304 
z
" clip-path="url(#pc02d6a298b)" style="stroke: #000000; stroke-linecap: round"/>
   </g>
   <g id="patch_4">
    <path d="M 224.450071 288.154569 
Q 262.513301 274.794906 299.521591 261.805513 
" clip-path="url(#pc02d6a298b)" style="fill: none; stroke: #000000; stroke-linecap: round"/>
    <path d="M 295.084961 261.243093 
L 299.521591 261.805513 
L 296.409678 265.017365 
z
" clip-path="url(#pc02d6a298b)" style="stroke: #000000; stroke-linecap: round"/>
   </g>
   <g id="patch_5">
    <path d="M 41.878551 276.803228 
Q 89.737803 266.295371 136.505033 256.027277 
" clip-path="url(#pc02d6a298b)" style="fill: none; stroke: #000000; stroke-linecap: round"/>
    <path d="M 132.169194 254.931605 
L 136.505033 256.027277 
L 133.026991 258.838545 
z
" clip-path="url(#pc02d6a298b)" style="stroke: #000000; stroke-linecap: round"/>
   </g>
   <g id="patch_6">
    <path d="M 138.351917 256.942127 
Q 117.681919 285.490037 97.667605 313.132365 
" clip-path="url(#pc02d6a298b)" style="fill: none; stroke: #000000; stroke-linecap: round"/>
    <path d="M 101.633403 311.065376 
L 97.667605 313.132365 
L 98.393493 308.719533 
z
" clip-path="url(#pc02d6a298b)" style="stroke: #000000; stroke-linecap: round"/>
   </g>
   <g id="patch_7">
    <path d="M 141.287352 256.095408 
Q 181.057146 272.085127 219.789609 287.65778 
" clip-path="url(#pc02d6a298b)" style="fill: none; stroke: #000000; stroke-linecap: round"/>
    <path d="M 216.824411 284.310005 
L 219.789609 287.65778 
L 215.33227 288.021274 
z
" clip-path="url(#pc02d6a298b)" style="stroke: #000000; stroke-linecap: round"/>
   </g>
   <g id="patch_8">
    <path d="M 137.596834 255.787564 
Q 89.737582 266.29542 42.970352 276.563514 
" clip-path="url(#pc02d6a298b)" style="fill: none; stroke: #000000; stroke-linecap: round"/>
    <path d="M 47.306191 277.659187 
L 42.970352 276.563514 
L 46.448394 273.752246 
z
" clip-path="url(#pc02d6a298b)" style="stroke: #000000; stroke-linecap: round"/>
   </g>
   <g id="patch_9">
    <path d="M 140.691992 253.858154 
Q 175.141291 210.51519 208.894935 168.047476 
" clip-path="url(#pc02d6a298b)" style="fill: none; stroke: #000000; stroke-linecap: round"/>
    <path d="M 204.840387 169.934442 
L 208.894935 168.047476 
L 207.971778 172.423294 
z
" clip-path="url(#pc02d6a298b)" style="stroke: #000000; stroke-linecap: round"/>
   </g>
   <g id="patch_10">
    <path d="M 300.577446 261.434922 
Q 262.514216 274.794585 225.505926 287.783979 
" clip-path="url(#pc02d6a298b)" style="fill: none; stroke: #000000; stroke-linecap: round"/>
    <path d="M 229.942556 288.346398 
L 225.505926 287.783979 
L 228.617839 284.572126 
z
" clip-path="url(#pc02d6a298b)" style="stroke: #000000; stroke-linecap: round"/>
   </g>
   <g id="patch_11">
    <path d="M 302.94449 258.931822 
Q 312.017353 227.571115 320.779503 197.284399 
" clip-path="url(#pc02d6a298b)" style="fill: none; stroke: #000000; stroke-linecap: round"/>
    <path d="M 317.746649 200.571007 
L 320.779503 197.284399 
L 321.589077 201.682647 
z
" clip-path="url(#pc02d6a298b)" style="stroke: #000000; stroke-linecap: round"/>
   </g>
   <g id="patch_12">
    <path d="M 134.82028 124.666789 
Q 171.955596 144.702085 208.106952 164.206512 
" clip-path="url(#pc02d6a298b)" style="fill: none; stroke: #000000; stroke-linecap: round"/>
    <path d="M 205.536271 160.547058 
L 208.106952 164.206512 
L 203.63698 164.067384 
z
" clip-path="url(#pc02d6a298b)" style="stroke: #000000; stroke-linecap: round"/>
   </g>
   <g id="patch_13">
    <path d="M 114.471425 167.69173 
Q 161.664656 166.694729 207.740102 165.721342 
" clip-path="url(#pc02d6a298b)" style="fill: none; stroke: #000000; stroke-linecap: round"/>
    <path d="M 203.698752 163.806273 
L 207.740102 165.721342 
L 203.783236 167.805381 
z
" clip-path="url(#pc02d6a298b)" style="stroke: #000000; stroke-linecap: round"/>
   </g>
   <g id="patch_14">
    <path d="M 239.001482 92.553202 
Q 227.857944 62.182367 217.099526 32.861142 
" clip-path="url(#pc02d6a298b)" style="fill: none; stroke: #000000; stroke-linecap: round"/>
    <path d="M 216.599768 37.305266 
L 217.099526 32.861142 
L 220.35497 35.927423 
z
" clip-path="url(#pc02d6a298b)" style="stroke: #000000; stroke-linecap: round"/>
   </g>
   <g id="patch_15">
    <path d="M 241.47465 95.075866 
Q 279.379295 109.839274 316.242139 124.196913 
" clip-path="url(#pc02d6a298b)" style="fill: none; stroke: #000000; stroke-linecap: round"/>
    <path d="M 313.240737 120.881556 
L 316.242139 124.196913 
L 311.789012 124.60882 
z
" clip-path="url(#pc02d6a298b)" style="stroke: #000000; stroke-linecap: round"/>
   </g>
   <g id="patch_16">
    <path d="M 238.941208 96.169504 
Q 225.23147 130.016146 211.941471 162.826537 
" clip-path="url(#pc02d6a298b)" style="fill: none; stroke: #000000; stroke-linecap: round"/>
    <path d="M 215.29688 159.869979 
L 211.941471 162.826537 
L 211.58947 158.368275 
z
" clip-path="url(#pc02d6a298b)" style="stroke: #000000; stroke-linecap: round"/>
   </g>
   <g id="patch_17">
    <path d="M 216.713657 31.809486 
Q 227.857194 62.180322 238.615613 91.501546 
" clip-path="url(#pc02d6a298b)" style="fill: none; stroke: #000000; stroke-linecap: round"/>
    <path d="M 239.115371 87.057422 
L 238.615613 91.501546 
L 235.360168 88.435265 
z
" clip-path="url(#pc02d6a298b)" style="stroke: #000000; stroke-linecap: round"/>
   </g>
   <g id="patch_18">
    <path d="M 381.741797 74.09188 
Q 351.165544 99.08408 321.454943 123.368719 
" clip-path="url(#pc02d6a298b)" style="fill: none; stroke: #000000; stroke-linecap: round"/>
    <path d="M 325.817725 122.385797 
L 321.454943 123.368719 
L 323.286275 119.28874 
z
" clip-path="url(#pc02d6a298b)" style="stroke: #000000; stroke-linecap: round"/>
   </g>
   <g id="patch_19">
    <path d="M 384.738024 74.098381 
Q 398.857229 85.694169 412.112436 96.580374 
" clip-path="url(#pc02d6a298b)" style="fill: none; stroke: #000000; stroke-linecap: round"/>
    <path d="M 410.290642 92.496128 
L 412.112436 96.580374 
L 407.751963 95.587262 
z
" clip-path="url(#pc02d6a298b)" style="stroke: #000000; stroke-linecap: round"/>
   </g>
   <g id="patch_20">
    <path d="M 317.280785 124.601454 
Q 279.37614 109.838045 242.513297 95.480406 
" clip-path="url(#pc02d6a298b)" style="fill: none; stroke: #000000; stroke-linecap: round"/>
    <path d="M 245.514698 98.795763 
L 242.513297 95.480406 
L 246.966423 95.068499 
z
" clip-path="url(#pc02d6a298b)" style="stroke: #000000; stroke-linecap: round"/>
   </g>
   <g id="patch_21">
    <path d="M 320.584101 124.080522 
Q 351.160355 99.088321 380.870955 74.803682 
" clip-path="url(#pc02d6a298b)" style="fill: none; stroke: #000000; stroke-linecap: round"/>
    <path d="M 376.508174 75.786604 
L 380.870955 74.803682 
L 379.039624 78.883661 
z
" clip-path="url(#pc02d6a298b)" style="stroke: #000000; stroke-linecap: round"/>
   </g>
   <g id="patch_22">
    <path d="M 320.952369 124.780781 
Q 366.782148 111.912658 411.53552 99.34677 
" clip-path="url(#pc02d6a298b)" style="fill: none; stroke: #000000; stroke-linecap: round"/>
    <path d="M 407.143792 98.50254 
L 411.53552 99.34677 
L 408.2251 102.353615 
z
" clip-path="url(#pc02d6a298b)" style="stroke: #000000; stroke-linecap: round"/>
   </g>
   <g id="patch_23">
    <path d="M 319.15757 127.239137 
Q 320.356785 159.827755 321.514887 191.299094 
" clip-path="url(#pc02d6a298b)" style="fill: none; stroke: #000000; stroke-linecap: round"/>
    <path d="M 323.366439 187.228252 
L 321.514887 191.299094 
L 319.369145 187.375347 
z
" clip-path="url(#pc02d6a298b)" style="stroke: #000000; stroke-linecap: round"/>
   </g>
   <g id="patch_24">
    <path d="M 317.272057 125.980779 
Q 264.941771 145.480368 213.659148 164.589571 
" clip-path="url(#pc02d6a298b)" style="fill: none; stroke: #000000; stroke-linecap: round"/>
    <path d="M 218.105727 165.067001 
L 213.659148 164.589571 
L 216.70904 161.318766 
z
" clip-path="url(#pc02d6a298b)" style="stroke: #000000; stroke-linecap: round"/>
   </g>
   <g id="patch_25">
    <path d="M 412.977147 97.290541 
Q 398.857942 85.694754 385.602735 74.808549 
" clip-path="url(#pc02d6a298b)" style="fill: none; stroke: #000000; stroke-linecap: round"/>
    <path d="M 387.424529 78.892795 
L 385.602735 74.808549 
L 389.963209 75.801661 
z
" clip-path="url(#pc02d6a298b)" style="stroke: #000000; stroke-linecap: round"/>
   </g>
   <g id="patch_26">
    <path d="M 412.609675 99.045168 
Q 366.779896 111.913291 322.026524 124.479179 
" clip-path="url(#pc02d6a298b)" style="fill: none; stroke: #000000; stroke-linecap: round"/>
    <path d="M 326.418252 125.323409 
L 322.026524 124.479179 
L 325.336944 121.472334 
z
" clip-path="url(#pc02d6a298b)" style="stroke: #000000; stroke-linecap: round"/>
   </g>
   <g id="patch_27">
    <path d="M 321.088814 196.215254 
Q 312.015951 227.575961 303.253801 257.862677 
" clip-path="url(#pc02d6a298b)" style="fill: none; stroke: #000000; stroke-linecap: round"/>
    <path d="M 306.286656 254.576068 
L 303.253801 257.862677 
L 302.444227 253.464428 
z
" clip-path="url(#pc02d6a298b)" style="stroke: #000000; stroke-linecap: round"/>
   </g>
   <g id="patch_28">
    <path d="M 321.556117 192.419528 
Q 320.356902 159.830911 319.1988 128.359571 
" clip-path="url(#pc02d6a298b)" style="fill: none; stroke: #000000; stroke-linecap: round"/>
    <path d="M 317.347248 132.430413 
L 319.1988 128.359571 
L 321.344542 132.283318 
z
" clip-path="url(#pc02d6a298b)" style="stroke: #000000; stroke-linecap: round"/>
   </g>
   <g id="patch_29">
    <path d="M 323.513069 194.805416 
Q 371.220373 206.226833 417.840368 217.387942 
" clip-path="url(#pc02d6a298b)" style="fill: none; stroke: #000000; stroke-linecap: round"/>
    <path d="M 414.415948 214.511599 
L 417.840368 217.387942 
L 413.484641 218.401671 
z
" clip-path="url(#pc02d6a298b)" style="stroke: #000000; stroke-linecap: round"/>
   </g>
   <g id="patch_30">
    <path d="M 319.750107 193.867901 
Q 266.208583 180.004705 213.7494 166.421754 
" clip-path="url(#pc02d6a298b)" style="fill: none; stroke: #000000; stroke-linecap: round"/>
    <path d="M 217.120386 169.360538 
L 213.7494 166.421754 
L 218.123019 165.488235 
z
" clip-path="url(#pc02d6a298b)" style="stroke: #000000; stroke-linecap: round"/>
   </g>
   <g id="patch_31">
    <path d="M 418.927456 217.648197 
Q 371.220152 206.22678 324.600157 195.065671 
" clip-path="url(#pc02d6a298b)" style="fill: none; stroke: #000000; stroke-linecap: round"/>
    <path d="M 328.024576 197.942014 
L 324.600157 195.065671 
L 328.955883 194.051942 
z
" clip-path="url(#pc02d6a298b)" style="stroke: #000000; stroke-linecap: round"/>
   </g>
   <g id="patch_32">
    <path d="M 209.591676 167.17086 
Q 175.142376 210.513824 141.388732 252.981538 
" clip-path="url(#pc02d6a298b)" style="fill: none; stroke: #000000; stroke-linecap: round"/>
    <path d="M 145.443281 251.094573 
L 141.388732 252.981538 
L 142.311889 248.60572 
z
" clip-path="url(#pc02d6a298b)" style="stroke: #000000; stroke-linecap: round"/>
   </g>
   <g id="patch_33">
    <path d="M 209.090611 164.737217 
Q 171.955294 144.701922 135.803939 125.197494 
" clip-path="url(#pc02d6a298b)" style="fill: none; stroke: #000000; stroke-linecap: round"/>
    <path d="M 138.374619 128.856948 
L 135.803939 125.197494 
L 140.27391 125.336622 
z
" clip-path="url(#pc02d6a298b)" style="stroke: #000000; stroke-linecap: round"/>
   </g>
   <g id="patch_34">
    <path d="M 208.86097 165.697663 
Q 161.667739 166.694664 115.592293 167.66805 
" clip-path="url(#pc02d6a298b)" style="fill: none; stroke: #000000; stroke-linecap: round"/>
    <path d="M 119.633643 169.583119 
L 115.592293 167.66805 
L 119.549158 165.584012 
z
" clip-path="url(#pc02d6a298b)" style="stroke: #000000; stroke-linecap: round"/>
   </g>
   <g id="patch_35">
    <path d="M 211.522901 163.859906 
Q 225.232638 130.013263 238.522637 97.202873 
" clip-path="url(#pc02d6a298b)" style="fill: none; stroke: #000000; stroke-linecap: round"/>
    <path d="M 235.167229 100.159431 
L 238.522637 97.202873 
L 238.874639 101.661134 
z
" clip-path="url(#pc02d6a298b)" style="stroke: #000000; stroke-linecap: round"/>
   </g>
   <g id="patch_36">
    <path d="M 212.609388 164.980738 
Q 264.939674 145.481149 316.222296 126.371946 
" clip-path="url(#pc02d6a298b)" style="fill: none; stroke: #000000; stroke-linecap: round"/>
    <path d="M 311.775718 125.894516 
L 316.222296 126.371946 
L 313.172405 129.64275 
z
" clip-path="url(#pc02d6a298b)" style="stroke: #000000; stroke-linecap: round"/>
   </g>
   <g id="patch_37">
    <path d="M 212.672253 166.142854 
Q 266.213777 180.00605 318.67296 193.589001 
" clip-path="url(#pc02d6a298b)" style="fill: none; stroke: #000000; stroke-linecap: round"/>
    <path d="M 315.301974 190.650217 
L 318.67296 193.589001 
L 314.299341 194.52252 
z
" clip-path="url(#pc02d6a298b)" style="stroke: #000000; stroke-linecap: round"/>
   </g>
   <g id="PathCollection_1">
    <defs>
     <path id="m649b512773" d="M 0 1.936492 
C 0.513564 1.936492 1.006162 1.732451 1.369306 1.369306 
C 1.732451 1.006162 1.936492 0.513564 1.936492 0 
C 1.936492 -0.513564 1.732451 -1.006162 1.369306 -1.369306 
C 1.006162 -1.732451 0.513564 -1.936492 0 -1.936492 
C -0.513564 -1.936492 -1.006162 -1.732451 -1.369306 -1.369306 
C -1.732451 -1.006162 -1.936492 -0.513564 -1.936492 0 
C -1.936492 0.513564 -1.732451 1.006162 -1.369306 1.369306 
C -1.006162 1.732451 -0.513564 1.936492 0 1.936492 
z
" style="stroke: #1f78b4"/>
    </defs>
    <g clip-path="url(#pc02d6a298b)">
     <use xlink:href="#m649b512773" x="95.873743" y="315.609917" style="fill: #1f78b4; stroke: #1f78b4"/>
     <use xlink:href="#m649b512773" x="222.621514" y="288.796367" style="fill: #1f78b4; stroke: #1f78b4"/>
     <use xlink:href="#m649b512773" x="39.986777" y="277.218581" style="fill: #1f78b4; stroke: #1f78b4"/>
     <use xlink:href="#m649b512773" x="139.488608" y="255.372211" style="fill: #1f78b4; stroke: #1f78b4"/>
     <use xlink:href="#m649b512773" x="302.406003" y="260.793124" style="fill: #1f78b4; stroke: #1f78b4"/>
     <use xlink:href="#m649b512773" x="133.115832" y="123.747203" style="fill: #1f78b4; stroke: #1f78b4"/>
     <use xlink:href="#m649b512773" x="112.537336" y="167.732589" style="fill: #1f78b4; stroke: #1f78b4"/>
     <use xlink:href="#m649b512773" x="239.669049" y="94.372606" style="fill: #1f78b4; stroke: #1f78b4"/>
     <use xlink:href="#m649b512773" x="216.046089" y="29.990083" style="fill: #1f78b4; stroke: #1f78b4"/>
     <use xlink:href="#m649b512773" x="383.239513" y="72.867688" style="fill: #1f78b4; stroke: #1f78b4"/>
     <use xlink:href="#m649b512773" x="319.086386" y="125.304714" style="fill: #1f78b4; stroke: #1f78b4"/>
     <use xlink:href="#m649b512773" x="414.475658" y="98.521235" style="fill: #1f78b4; stroke: #1f78b4"/>
     <use xlink:href="#m649b512773" x="321.627301" y="194.353951" style="fill: #1f78b4; stroke: #1f78b4"/>
     <use xlink:href="#m649b512773" x="420.813223" y="218.099662" style="fill: #1f78b4; stroke: #1f78b4"/>
     <use xlink:href="#m649b512773" x="210.795059" y="165.656803" style="fill: #1f78b4; stroke: #1f78b4"/>
    </g>
   </g>
   <g id="text_1">
    <g clip-path="url(#pc02d6a298b)">
     <!-- 0 -->
     <g transform="translate(92.692493 318.369292) scale(0.1 -0.1)">
      <defs>
       <path id="DejaVuSans-30" d="M 2034 4250 
Q 1547 4250 1301 3770 
Q 1056 3291 1056 2328 
Q 1056 1369 1301 889 
Q 1547 409 2034 409 
Q 2525 409 2770 889 
Q 3016 1369 3016 2328 
Q 3016 3291 2770 3770 
Q 2525 4250 2034 4250 
z
M 2034 4750 
Q 2819 4750 3233 4129 
Q 3647 3509 3647 2328 
Q 3647 1150 3233 529 
Q 2819 -91 2034 -91 
Q 1250 -91 836 529 
Q 422 1150 422 2328 
Q 422 3509 836 4129 
Q 1250 4750 2034 4750 
z
" transform="scale(0.015625)"/>
      </defs>
      <use xlink:href="#DejaVuSans-30"/>
     </g>
    </g>
   </g>
   <g id="text_2">
    <g clip-path="url(#pc02d6a298b)">
     <!-- 1 -->
     <g transform="translate(219.440264 291.555742) scale(0.1 -0.1)">
      <defs>
       <path id="DejaVuSans-31" d="M 794 531 
L 1825 531 
L 1825 4091 
L 703 3866 
L 703 4441 
L 1819 4666 
L 2450 4666 
L 2450 531 
L 3481 531 
L 3481 0 
L 794 0 
L 794 531 
z
" transform="scale(0.015625)"/>
      </defs>
      <use xlink:href="#DejaVuSans-31"/>
     </g>
    </g>
   </g>
   <g id="text_3">
    <g clip-path="url(#pc02d6a298b)">
     <!-- 2 -->
     <g transform="translate(36.805527 279.977956) scale(0.1 -0.1)">
      <defs>
       <path id="DejaVuSans-32" d="M 1228 531 
L 3431 531 
L 3431 0 
L 469 0 
L 469 531 
Q 828 903 1448 1529 
Q 2069 2156 2228 2338 
Q 2531 2678 2651 2914 
Q 2772 3150 2772 3378 
Q 2772 3750 2511 3984 
Q 2250 4219 1831 4219 
Q 1534 4219 1204 4116 
Q 875 4013 500 3803 
L 500 4441 
Q 881 4594 1212 4672 
Q 1544 4750 1819 4750 
Q 2544 4750 2975 4387 
Q 3406 4025 3406 3419 
Q 3406 3131 3298 2873 
Q 3191 2616 2906 2266 
Q 2828 2175 2409 1742 
Q 1991 1309 1228 531 
z
" transform="scale(0.015625)"/>
      </defs>
      <use xlink:href="#DejaVuSans-32"/>
     </g>
    </g>
   </g>
   <g id="text_4">
    <g clip-path="url(#pc02d6a298b)">
     <!-- 3 -->
     <g transform="translate(136.307358 258.131586) scale(0.1 -0.1)">
      <defs>
       <path id="DejaVuSans-33" d="M 2597 2516 
Q 3050 2419 3304 2112 
Q 3559 1806 3559 1356 
Q 3559 666 3084 287 
Q 2609 -91 1734 -91 
Q 1441 -91 1130 -33 
Q 819 25 488 141 
L 488 750 
Q 750 597 1062 519 
Q 1375 441 1716 441 
Q 2309 441 2620 675 
Q 2931 909 2931 1356 
Q 2931 1769 2642 2001 
Q 2353 2234 1838 2234 
L 1294 2234 
L 1294 2753 
L 1863 2753 
Q 2328 2753 2575 2939 
Q 2822 3125 2822 3475 
Q 2822 3834 2567 4026 
Q 2313 4219 1838 4219 
Q 1578 4219 1281 4162 
Q 984 4106 628 3988 
L 628 4550 
Q 988 4650 1302 4700 
Q 1616 4750 1894 4750 
Q 2613 4750 3031 4423 
Q 3450 4097 3450 3541 
Q 3450 3153 3228 2886 
Q 3006 2619 2597 2516 
z
" transform="scale(0.015625)"/>
      </defs>
      <use xlink:href="#DejaVuSans-33"/>
     </g>
    </g>
   </g>
   <g id="text_5">
    <g clip-path="url(#pc02d6a298b)">
     <!-- 4 -->
     <g transform="translate(299.224753 263.552499) scale(0.1 -0.1)">
      <defs>
       <path id="DejaVuSans-34" d="M 2419 4116 
L 825 1625 
L 2419 1625 
L 2419 4116 
z
M 2253 4666 
L 3047 4666 
L 3047 1625 
L 3713 1625 
L 3713 1100 
L 3047 1100 
L 3047 0 
L 2419 0 
L 2419 1100 
L 313 1100 
L 313 1709 
L 2253 4666 
z
" transform="scale(0.015625)"/>
      </defs>
      <use xlink:href="#DejaVuSans-34"/>
     </g>
    </g>
   </g>
   <g id="text_6">
    <g clip-path="url(#pc02d6a298b)">
     <!-- 5 -->
     <g transform="translate(129.934582 126.506578) scale(0.1 -0.1)">
      <defs>
       <path id="DejaVuSans-35" d="M 691 4666 
L 3169 4666 
L 3169 4134 
L 1269 4134 
L 1269 2991 
Q 1406 3038 1543 3061 
Q 1681 3084 1819 3084 
Q 2600 3084 3056 2656 
Q 3513 2228 3513 1497 
Q 3513 744 3044 326 
Q 2575 -91 1722 -91 
Q 1428 -91 1123 -41 
Q 819 9 494 109 
L 494 744 
Q 775 591 1075 516 
Q 1375 441 1709 441 
Q 2250 441 2565 725 
Q 2881 1009 2881 1497 
Q 2881 1984 2565 2268 
Q 2250 2553 1709 2553 
Q 1456 2553 1204 2497 
Q 953 2441 691 2322 
L 691 4666 
z
" transform="scale(0.015625)"/>
      </defs>
      <use xlink:href="#DejaVuSans-35"/>
     </g>
    </g>
   </g>
   <g id="text_7">
    <g clip-path="url(#pc02d6a298b)">
     <!-- 6 -->
     <g transform="translate(109.356086 170.491964) scale(0.1 -0.1)">
      <defs>
       <path id="DejaVuSans-36" d="M 2113 2584 
Q 1688 2584 1439 2293 
Q 1191 2003 1191 1497 
Q 1191 994 1439 701 
Q 1688 409 2113 409 
Q 2538 409 2786 701 
Q 3034 994 3034 1497 
Q 3034 2003 2786 2293 
Q 2538 2584 2113 2584 
z
M 3366 4563 
L 3366 3988 
Q 3128 4100 2886 4159 
Q 2644 4219 2406 4219 
Q 1781 4219 1451 3797 
Q 1122 3375 1075 2522 
Q 1259 2794 1537 2939 
Q 1816 3084 2150 3084 
Q 2853 3084 3261 2657 
Q 3669 2231 3669 1497 
Q 3669 778 3244 343 
Q 2819 -91 2113 -91 
Q 1303 -91 875 529 
Q 447 1150 447 2328 
Q 447 3434 972 4092 
Q 1497 4750 2381 4750 
Q 2619 4750 2861 4703 
Q 3103 4656 3366 4563 
z
" transform="scale(0.015625)"/>
      </defs>
      <use xlink:href="#DejaVuSans-36"/>
     </g>
    </g>
   </g>
   <g id="text_8">
    <g clip-path="url(#pc02d6a298b)">
     <!-- 7 -->
     <g transform="translate(236.487799 97.131981) scale(0.1 -0.1)">
      <defs>
       <path id="DejaVuSans-37" d="M 525 4666 
L 3525 4666 
L 3525 4397 
L 1831 0 
L 1172 0 
L 2766 4134 
L 525 4134 
L 525 4666 
z
" transform="scale(0.015625)"/>
      </defs>
      <use xlink:href="#DejaVuSans-37"/>
     </g>
    </g>
   </g>
   <g id="text_9">
    <g clip-path="url(#pc02d6a298b)">
     <!-- 8 -->
     <g transform="translate(212.864839 32.749458) scale(0.1 -0.1)">
      <defs>
       <path id="DejaVuSans-38" d="M 2034 2216 
Q 1584 2216 1326 1975 
Q 1069 1734 1069 1313 
Q 1069 891 1326 650 
Q 1584 409 2034 409 
Q 2484 409 2743 651 
Q 3003 894 3003 1313 
Q 3003 1734 2745 1975 
Q 2488 2216 2034 2216 
z
M 1403 2484 
Q 997 2584 770 2862 
Q 544 3141 544 3541 
Q 544 4100 942 4425 
Q 1341 4750 2034 4750 
Q 2731 4750 3128 4425 
Q 3525 4100 3525 3541 
Q 3525 3141 3298 2862 
Q 3072 2584 2669 2484 
Q 3125 2378 3379 2068 
Q 3634 1759 3634 1313 
Q 3634 634 3220 271 
Q 2806 -91 2034 -91 
Q 1263 -91 848 271 
Q 434 634 434 1313 
Q 434 1759 690 2068 
Q 947 2378 1403 2484 
z
M 1172 3481 
Q 1172 3119 1398 2916 
Q 1625 2713 2034 2713 
Q 2441 2713 2670 2916 
Q 2900 3119 2900 3481 
Q 2900 3844 2670 4047 
Q 2441 4250 2034 4250 
Q 1625 4250 1398 4047 
Q 1172 3844 1172 3481 
z
" transform="scale(0.015625)"/>
      </defs>
      <use xlink:href="#DejaVuSans-38"/>
     </g>
    </g>
   </g>
   <g id="text_10">
    <g clip-path="url(#pc02d6a298b)">
     <!-- 9 -->
     <g transform="translate(380.058263 75.627063) scale(0.1 -0.1)">
      <defs>
       <path id="DejaVuSans-39" d="M 703 97 
L 703 672 
Q 941 559 1184 500 
Q 1428 441 1663 441 
Q 2288 441 2617 861 
Q 2947 1281 2994 2138 
Q 2813 1869 2534 1725 
Q 2256 1581 1919 1581 
Q 1219 1581 811 2004 
Q 403 2428 403 3163 
Q 403 3881 828 4315 
Q 1253 4750 1959 4750 
Q 2769 4750 3195 4129 
Q 3622 3509 3622 2328 
Q 3622 1225 3098 567 
Q 2575 -91 1691 -91 
Q 1453 -91 1209 -44 
Q 966 3 703 97 
z
M 1959 2075 
Q 2384 2075 2632 2365 
Q 2881 2656 2881 3163 
Q 2881 3666 2632 3958 
Q 2384 4250 1959 4250 
Q 1534 4250 1286 3958 
Q 1038 3666 1038 3163 
Q 1038 2656 1286 2365 
Q 1534 2075 1959 2075 
z
" transform="scale(0.015625)"/>
      </defs>
      <use xlink:href="#DejaVuSans-39"/>
     </g>
    </g>
   </g>
   <g id="text_11">
    <g clip-path="url(#pc02d6a298b)">
     <!-- 10 -->
     <g transform="translate(312.723886 128.064089) scale(0.1 -0.1)">
      <use xlink:href="#DejaVuSans-31"/>
      <use xlink:href="#DejaVuSans-30" x="63.623047"/>
     </g>
    </g>
   </g>
   <g id="text_12">
    <g clip-path="url(#pc02d6a298b)">
     <!-- 11 -->
     <g transform="translate(408.113158 101.28061) scale(0.1 -0.1)">
      <use xlink:href="#DejaVuSans-31"/>
      <use xlink:href="#DejaVuSans-31" x="63.623047"/>
     </g>
    </g>
   </g>
   <g id="text_13">
    <g clip-path="url(#pc02d6a298b)">
     <!-- 12 -->
     <g transform="translate(315.264801 197.113326) scale(0.1 -0.1)">
      <use xlink:href="#DejaVuSans-31"/>
      <use xlink:href="#DejaVuSans-32" x="63.623047"/>
     </g>
    </g>
   </g>
   <g id="text_14">
    <g clip-path="url(#pc02d6a298b)">
     <!-- 13 -->
     <g transform="translate(414.450723 220.859037) scale(0.1 -0.1)">
      <use xlink:href="#DejaVuSans-31"/>
      <use xlink:href="#DejaVuSans-33" x="63.623047"/>
     </g>
    </g>
   </g>
   <g id="text_15">
    <g clip-path="url(#pc02d6a298b)">
     <!-- 14 -->
     <g transform="translate(204.432559 168.416178) scale(0.1 -0.1)">
      <use xlink:href="#DejaVuSans-31"/>
      <use xlink:href="#DejaVuSans-34" x="63.623047"/>
     </g>
    </g>
   </g>
  </g>
 </g>
 <defs>
  <clipPath id="pc02d6a298b">
   <rect x="0" y="0" width="460.8" height="345.6"/>
  </clipPath>
 </defs>
</svg>
