<?xml version="1.0" encoding="utf-8" standalone="no"?>
<!DOCTYPE svg PUBLIC "-//W3C//DTD SVG 1.1//EN"
  "http://www.w3.org/Graphics/SVG/1.1/DTD/svg11.dtd">
<svg xmlns:xlink="http://www.w3.org/1999/xlink" width="460.8pt" height="345.6pt" viewBox="0 0 460.8 345.6" xmlns="http://www.w3.org/2000/svg" version="1.1">
 <metadata>
  <rdf:RDF xmlns:dc="http://purl.org/dc/elements/1.1/" xmlns:cc="http://creativecommons.org/ns#" xmlns:rdf="http://www.w3.org/1999/02/22-rdf-syntax-ns#">
   <cc:Work>
    <dc:type rdf:resource="http://purl.org/dc/dcmitype/StillImage"/>
    <dc:date>2024-02-07T14:34:10.391711</dc:date>
    <dc:format>image/svg+xml</dc:format>
    <dc:creator>
     <cc:Agent>
      <dc:title>Matplotlib v3.8.0, https://matplotlib.org/</dc:title>
     </cc:Agent>
    </dc:creator>
   </cc:Work>
  </rdf:RDF>
 </metadata>
 <defs>
  <style type="text/css">*{stroke-linejoin: round; stroke-linecap: butt}</style>
 </defs>
 <g id="figure_1">
  <g id="patch_1">
   <path d="M 0 345.6 
L 460.8 345.6 
L 460.8 0 
L 0 0 
z
" style="fill: #ffffff"/>
  </g>
  <g id="axes_1">
   <g id="patch_2">
    <path d="M 362.087559 207.607512 
Q 340.711913 180.540143 320.029185 154.350193 
" clip-path="url(#pbcbec97e29)" style="fill: none; stroke: #000000; stroke-linecap: round"/>
    <path d="M 320.938661 158.728875 
L 320.029185 154.350193 
L 324.077816 156.249822 
z
" clip-path="url(#pbcbec97e29)" style="stroke: #000000; stroke-linecap: round"/>
   </g>
   <g id="patch_3">
    <path d="M 365.024308 209.982904 
Q 392.048766 223.315877 418.070579 236.154178 
" clip-path="url(#pbcbec97e29)" style="fill: none; stroke: #000000; stroke-linecap: round"/>
    <path d="M 415.3683 232.590796 
L 418.070579 236.154178 
L 413.598506 236.177972 
z
" clip-path="url(#pbcbec97e29)" style="stroke: #000000; stroke-linecap: round"/>
   </g>
   <g id="patch_4">
    <path d="M 362.474678 210.886177 
Q 352.296007 232.968633 342.585356 254.035727 
" clip-path="url(#pbcbec97e29)" style="fill: none; stroke: #000000; stroke-linecap: round"/>
    <path d="M 346.076126 251.240281 
L 342.585356 254.035727 
L 342.443461 249.565843 
z
" clip-path="url(#pbcbec97e29)" style="stroke: #000000; stroke-linecap: round"/>
   </g>
   <g id="patch_5">
    <path d="M 259.463092 94.215185 
Q 288.109864 122.405521 315.959744 149.811661 
" clip-path="url(#pbcbec97e29)" style="fill: none; stroke: #000000; stroke-linecap: round"/>
    <path d="M 314.511506 145.580513 
L 315.959744 149.811661 
L 311.705884 148.431563 
z
" clip-path="url(#pbcbec97e29)" style="stroke: #000000; stroke-linecap: round"/>
   </g>
   <g id="patch_6">
    <path d="M 256.211021 92.373712 
Q 207.554133 79.808623 159.979767 67.523083 
" clip-path="url(#pbcbec97e29)" style="fill: none; stroke: #000000; stroke-linecap: round"/>
    <path d="M 163.352641 70.459701 
L 159.979767 67.523083 
L 164.352785 66.586754 
z
" clip-path="url(#pbcbec97e29)" style="stroke: #000000; stroke-linecap: round"/>
   </g>
   <g id="patch_7">
    <path d="M 259.723337 91.824608 
Q 285.563524 75.558422 310.457535 59.887847 
" clip-path="url(#pbcbec97e29)" style="fill: none; stroke: #000000; stroke-linecap: round"/>
    <path d="M 306.006934 60.326195 
L 310.457535 59.887847 
L 308.137853 63.711336 
z
" clip-path="url(#pbcbec97e29)" style="stroke: #000000; stroke-linecap: round"/>
   </g>
   <g id="patch_8">
    <path d="M 319.335904 153.472312 
Q 340.71155 180.539682 361.394278 206.729631 
" clip-path="url(#pbcbec97e29)" style="fill: none; stroke: #000000; stroke-linecap: round"/>
    <path d="M 360.484802 202.350949 
L 361.394278 206.729631 
L 357.345647 204.830003 
z
" clip-path="url(#pbcbec97e29)" style="stroke: #000000; stroke-linecap: round"/>
   </g>
   <g id="patch_9">
    <path d="M 316.757155 150.596366 
Q 288.110382 122.40603 260.260502 94.99989 
" clip-path="url(#pbcbec97e29)" style="fill: none; stroke: #000000; stroke-linecap: round"/>
    <path d="M 261.70874 99.231038 
L 260.260502 94.99989 
L 264.514363 96.379988 
z
" clip-path="url(#pbcbec97e29)" style="stroke: #000000; stroke-linecap: round"/>
   </g>
   <g id="patch_10">
    <path d="M 254.991388 178.574552 
Q 262.896244 206.047868 270.491952 232.446741 
" clip-path="url(#pbcbec97e29)" style="fill: none; stroke: #000000; stroke-linecap: round"/>
    <path d="M 271.307933 228.049677 
L 270.491952 232.446741 
L 267.46389 229.155718 
z
" clip-path="url(#pbcbec97e29)" style="stroke: #000000; stroke-linecap: round"/>
   </g>
   <g id="patch_11">
    <path d="M 252.574697 176.266381 
Q 212.277409 166.635953 173.067532 157.265401 
" clip-path="url(#pbcbec97e29)" style="fill: none; stroke: #000000; stroke-linecap: round"/>
    <path d="M 176.493099 160.140379 
L 173.067532 157.265401 
L 177.422854 156.249935 
z
" clip-path="url(#pbcbec97e29)" style="stroke: #000000; stroke-linecap: round"/>
   </g>
   <g id="patch_12">
    <path d="M 256.036284 175.591065 
Q 287.216176 153.383216 317.48541 131.823982 
" clip-path="url(#pbcbec97e29)" style="fill: none; stroke: #000000; stroke-linecap: round"/>
    <path d="M 313.067062 132.515504 
L 317.48541 131.823982 
L 315.387619 135.773574 
z
" clip-path="url(#pbcbec97e29)" style="stroke: #000000; stroke-linecap: round"/>
   </g>
   <g id="patch_13">
    <path d="M 406.764941 267.027573 
Q 374.992965 262.067414 344.325643 257.27971 
" clip-path="url(#pbcbec97e29)" style="fill: none; stroke: #000000; stroke-linecap: round"/>
    <path d="M 347.969273 259.87277 
L 344.325643 257.27971 
L 348.586269 255.920642 
z
" clip-path="url(#pbcbec97e29)" style="stroke: #000000; stroke-linecap: round"/>
   </g>
   <g id="patch_14">
    <path d="M 409.407351 265.531563 
Q 414.744803 252.41743 419.660787 240.338846 
" clip-path="url(#pbcbec97e29)" style="fill: none; stroke: #000000; stroke-linecap: round"/>
    <path d="M 416.300446 243.289796 
L 419.660787 240.338846 
L 420.005342 244.797689 
z
" clip-path="url(#pbcbec97e29)" style="stroke: #000000; stroke-linecap: round"/>
   </g>
   <g id="patch_15">
    <path d="M 419.075196 236.649823 
Q 392.050738 223.31685 366.028925 210.478549 
" clip-path="url(#pbcbec97e29)" style="fill: none; stroke: #000000; stroke-linecap: round"/>
    <path d="M 368.731204 214.041931 
L 366.028925 210.478549 
L 370.500998 210.454755 
z
" clip-path="url(#pbcbec97e29)" style="stroke: #000000; stroke-linecap: round"/>
   </g>
   <g id="patch_16">
    <path d="M 420.082856 239.301821 
Q 414.745404 252.415955 409.82942 264.494539 
" clip-path="url(#pbcbec97e29)" style="fill: none; stroke: #000000; stroke-linecap: round"/>
    <path d="M 413.189761 261.543588 
L 409.82942 264.494539 
L 409.484865 260.035696 
z
" clip-path="url(#pbcbec97e29)" style="stroke: #000000; stroke-linecap: round"/>
   </g>
   <g id="patch_17">
    <path d="M 321.479691 128.823423 
Q 345.158387 109.506468 367.970759 90.896254 
" clip-path="url(#pbcbec97e29)" style="fill: none; stroke: #000000; stroke-linecap: round"/>
    <path d="M 363.607049 91.875045 
L 367.970759 90.896254 
L 366.135566 94.974497 
z
" clip-path="url(#pbcbec97e29)" style="stroke: #000000; stroke-linecap: round"/>
   </g>
   <g id="patch_18">
    <path d="M 318.397011 131.174695 
Q 287.217119 153.382544 256.947885 174.941778 
" clip-path="url(#pbcbec97e29)" style="fill: none; stroke: #000000; stroke-linecap: round"/>
    <path d="M 261.366233 174.250256 
L 256.947885 174.941778 
L 259.045676 170.992186 
z
" clip-path="url(#pbcbec97e29)" style="stroke: #000000; stroke-linecap: round"/>
   </g>
   <g id="patch_19">
    <path d="M 41.744264 63.736174 
Q 61.702159 72.98917 80.645732 81.771901 
" clip-path="url(#pbcbec97e29)" style="fill: none; stroke: #000000; stroke-linecap: round"/>
    <path d="M 77.858019 78.274951 
L 80.645732 81.771901 
L 76.175544 81.903901 
z
" clip-path="url(#pbcbec97e29)" style="stroke: #000000; stroke-linecap: round"/>
   </g>
   <g id="patch_20">
    <path d="M 41.744264 63.736174 
Q 61.702159 72.98917 80.645732 81.771901 
" clip-path="url(#pbcbec97e29)" style="fill: none; stroke: #000000; stroke-linecap: round"/>
    <path d="M 77.858019 78.274951 
L 80.645732 81.771901 
L 76.175544 81.903901 
z
" clip-path="url(#pbcbec97e29)" style="stroke: #000000; stroke-linecap: round"/>
   </g>
   <g id="patch_21">
    <path d="M 40.2319 61.00385 
Q 42.091523 46.456682 43.809378 33.018523 
" clip-path="url(#pbcbec97e29)" style="fill: none; stroke: #000000; stroke-linecap: round"/>
    <path d="M 41.318313 36.732631 
L 43.809378 33.018523 
L 45.286025 37.23984 
z
" clip-path="url(#pbcbec97e29)" style="stroke: #000000; stroke-linecap: round"/>
   </g>
   <g id="patch_22">
    <path d="M 158.8956 67.243109 
Q 207.552488 79.808198 255.126854 92.093738 
" clip-path="url(#pbcbec97e29)" style="fill: none; stroke: #000000; stroke-linecap: round"/>
    <path d="M 251.75398 89.157121 
L 255.126854 92.093738 
L 250.753836 93.030067 
z
" clip-path="url(#pbcbec97e29)" style="stroke: #000000; stroke-linecap: round"/>
   </g>
   <g id="patch_23">
    <path d="M 155.132194 67.178449 
Q 120.218184 74.908887 86.395772 82.397631 
" clip-path="url(#pbcbec97e29)" style="fill: none; stroke: #000000; stroke-linecap: round"/>
    <path d="M 90.733544 83.485626 
L 86.395772 82.397631 
L 89.868831 79.580211 
z
" clip-path="url(#pbcbec97e29)" style="stroke: #000000; stroke-linecap: round"/>
   </g>
   <g id="patch_24">
    <path d="M 155.291254 65.895534 
Q 124.697588 50.634208 95.104387 35.871952 
" clip-path="url(#pbcbec97e29)" style="fill: none; stroke: #000000; stroke-linecap: round"/>
    <path d="M 97.79099 39.447167 
L 95.104387 35.871952 
L 99.576521 35.867798 
z
" clip-path="url(#pbcbec97e29)" style="stroke: #000000; stroke-linecap: round"/>
   </g>
   <g id="patch_25">
    <path d="M 106.968356 123.614089 
Q 95.679566 104.173485 84.952206 85.699728 
" clip-path="url(#pbcbec97e29)" style="fill: none; stroke: #000000; stroke-linecap: round"/>
    <path d="M 85.23129 90.163147 
L 84.952206 85.699728 
L 88.690392 88.154513 
z
" clip-path="url(#pbcbec97e29)" style="stroke: #000000; stroke-linecap: round"/>
   </g>
   <g id="patch_26">
    <path d="M 109.673417 126.159053 
Q 139.019324 140.921962 167.366458 155.182424 
" clip-path="url(#pbcbec97e29)" style="fill: none; stroke: #000000; stroke-linecap: round"/>
    <path d="M 164.691948 151.598154 
L 167.366458 155.182424 
L 162.894336 155.17147 
z
" clip-path="url(#pbcbec97e29)" style="stroke: #000000; stroke-linecap: round"/>
   </g>
   <g id="patch_27">
    <path d="M 171.976797 157.004732 
Q 212.274085 166.635159 251.483961 176.005712 
" clip-path="url(#pbcbec97e29)" style="fill: none; stroke: #000000; stroke-linecap: round"/>
    <path d="M 248.058395 173.130734 
L 251.483961 176.005712 
L 247.128639 177.021178 
z
" clip-path="url(#pbcbec97e29)" style="stroke: #000000; stroke-linecap: round"/>
   </g>
   <g id="patch_28">
    <path d="M 168.361127 155.682807 
Q 139.01522 140.919898 110.668085 126.659437 
" clip-path="url(#pbcbec97e29)" style="fill: none; stroke: #000000; stroke-linecap: round"/>
    <path d="M 113.342596 130.243707 
L 110.668085 126.659437 
L 115.140208 126.67039 
z
" clip-path="url(#pbcbec97e29)" style="stroke: #000000; stroke-linecap: round"/>
   </g>
   <g id="patch_29">
    <path d="M 46.122475 30.170736 
Q 68.283212 32.249398 89.330802 34.223648 
" clip-path="url(#pbcbec97e29)" style="fill: none; stroke: #000000; stroke-linecap: round"/>
    <path d="M 85.535062 31.858831 
L 89.330802 34.223648 
L 85.161504 35.84135 
z
" clip-path="url(#pbcbec97e29)" style="stroke: #000000; stroke-linecap: round"/>
   </g>
   <g id="patch_30">
    <path d="M 46.122475 30.170736 
Q 68.283212 32.249398 89.330802 34.223648 
" clip-path="url(#pbcbec97e29)" style="fill: none; stroke: #000000; stroke-linecap: round"/>
    <path d="M 85.535062 31.858831 
L 89.330802 34.223648 
L 85.161504 35.84135 
z
" clip-path="url(#pbcbec97e29)" style="stroke: #000000; stroke-linecap: round"/>
   </g>
   <g id="patch_31">
    <path d="M 43.951393 31.90759 
Q 42.091769 46.454758 40.373915 59.892917 
" clip-path="url(#pbcbec97e29)" style="fill: none; stroke: #000000; stroke-linecap: round"/>
    <path d="M 42.86498 56.178809 
L 40.373915 59.892917 
L 38.897267 55.671601 
z
" clip-path="url(#pbcbec97e29)" style="stroke: #000000; stroke-linecap: round"/>
   </g>
   <g id="patch_32">
    <path d="M 90.445993 34.328252 
Q 68.285256 32.24959 47.237666 30.27534 
" clip-path="url(#pbcbec97e29)" style="fill: none; stroke: #000000; stroke-linecap: round"/>
    <path d="M 51.033406 32.640157 
L 47.237666 30.27534 
L 51.406963 28.657639 
z
" clip-path="url(#pbcbec97e29)" style="stroke: #000000; stroke-linecap: round"/>
   </g>
   <g id="patch_33">
    <path d="M 90.445993 34.328252 
Q 68.285256 32.24959 47.237666 30.27534 
" clip-path="url(#pbcbec97e29)" style="fill: none; stroke: #000000; stroke-linecap: round"/>
    <path d="M 51.033406 32.640157 
L 47.237666 30.27534 
L 51.406963 28.657639 
z
" clip-path="url(#pbcbec97e29)" style="stroke: #000000; stroke-linecap: round"/>
   </g>
   <g id="patch_34">
    <path d="M 94.104255 35.373047 
Q 124.697921 50.634373 154.291122 65.396629 
" clip-path="url(#pbcbec97e29)" style="fill: none; stroke: #000000; stroke-linecap: round"/>
    <path d="M 151.604519 61.821415 
L 154.291122 65.396629 
L 149.818988 65.400783 
z
" clip-path="url(#pbcbec97e29)" style="stroke: #000000; stroke-linecap: round"/>
   </g>
   <g id="patch_35">
    <path d="M 81.660154 82.242213 
Q 61.702259 72.989217 42.758686 64.206486 
" clip-path="url(#pbcbec97e29)" style="fill: none; stroke: #000000; stroke-linecap: round"/>
    <path d="M 45.546399 67.703436 
L 42.758686 64.206486 
L 47.228874 64.074486 
z
" clip-path="url(#pbcbec97e29)" style="stroke: #000000; stroke-linecap: round"/>
   </g>
   <g id="patch_36">
    <path d="M 81.660154 82.242213 
Q 61.702259 72.989217 42.758686 64.206486 
" clip-path="url(#pbcbec97e29)" style="fill: none; stroke: #000000; stroke-linecap: round"/>
    <path d="M 45.546399 67.703436 
L 42.758686 64.206486 
L 47.228874 64.074486 
z
" clip-path="url(#pbcbec97e29)" style="stroke: #000000; stroke-linecap: round"/>
   </g>
   <g id="patch_37">
    <path d="M 85.309004 82.638256 
Q 120.223013 74.907818 154.045426 67.419074 
" clip-path="url(#pbcbec97e29)" style="fill: none; stroke: #000000; stroke-linecap: round"/>
    <path d="M 149.707654 66.331079 
L 154.045426 67.419074 
L 150.572366 70.236494 
z
" clip-path="url(#pbcbec97e29)" style="stroke: #000000; stroke-linecap: round"/>
   </g>
   <g id="patch_38">
    <path d="M 84.389005 84.729831 
Q 95.677795 104.170436 106.405155 122.644192 
" clip-path="url(#pbcbec97e29)" style="fill: none; stroke: #000000; stroke-linecap: round"/>
    <path d="M 106.126072 118.180773 
L 106.405155 122.644192 
L 102.66697 120.189408 
z
" clip-path="url(#pbcbec97e29)" style="stroke: #000000; stroke-linecap: round"/>
   </g>
   <g id="patch_39">
    <path d="M 373.242555 54.119837 
Q 371.87013 70.579392 370.590607 85.92478 
" clip-path="url(#pbcbec97e29)" style="fill: none; stroke: #000000; stroke-linecap: round"/>
    <path d="M 372.916063 82.1048 
L 370.590607 85.92478 
L 368.929896 81.772427 
z
" clip-path="url(#pbcbec97e29)" style="stroke: #000000; stroke-linecap: round"/>
   </g>
   <g id="patch_40">
    <path d="M 371.476264 52.38786 
Q 343.223199 55.227869 316.082562 57.956056 
" clip-path="url(#pbcbec97e29)" style="fill: none; stroke: #000000; stroke-linecap: round"/>
    <path d="M 320.262538 59.545962 
L 316.082562 57.956056 
L 319.862473 55.566019 
z
" clip-path="url(#pbcbec97e29)" style="stroke: #000000; stroke-linecap: round"/>
   </g>
   <g id="patch_41">
    <path d="M 311.400315 59.294375 
Q 285.560127 75.56056 260.666116 91.231136 
" clip-path="url(#pbcbec97e29)" style="fill: none; stroke: #000000; stroke-linecap: round"/>
    <path d="M 265.116717 90.792788 
L 260.666116 91.231136 
L 262.985798 87.407646 
z
" clip-path="url(#pbcbec97e29)" style="stroke: #000000; stroke-linecap: round"/>
   </g>
   <g id="patch_42">
    <path d="M 314.967443 58.068148 
Q 343.220508 55.228139 370.361145 52.499952 
" clip-path="url(#pbcbec97e29)" style="fill: none; stroke: #000000; stroke-linecap: round"/>
    <path d="M 366.181169 50.910046 
L 370.361145 52.499952 
L 366.581234 54.889989 
z
" clip-path="url(#pbcbec97e29)" style="stroke: #000000; stroke-linecap: round"/>
   </g>
   <g id="patch_43">
    <path d="M 343.219323 257.106994 
Q 374.991299 262.067154 405.658621 266.854858 
" clip-path="url(#pbcbec97e29)" style="fill: none; stroke: #000000; stroke-linecap: round"/>
    <path d="M 402.014991 264.261798 
L 405.658621 266.854858 
L 401.397995 268.213926 
z
" clip-path="url(#pbcbec97e29)" style="stroke: #000000; stroke-linecap: round"/>
   </g>
   <g id="patch_44">
    <path d="M 340.361555 258.499271 
Q 328.989506 278.830382 318.163243 298.18573 
" clip-path="url(#pbcbec97e29)" style="fill: none; stroke: #000000; stroke-linecap: round"/>
    <path d="M 321.861409 295.67106 
L 318.163243 298.18573 
L 318.370407 293.718394 
z
" clip-path="url(#pbcbec97e29)" style="stroke: #000000; stroke-linecap: round"/>
   </g>
   <g id="patch_45">
    <path d="M 339.458085 256.242257 
Q 306.32257 246.09597 274.256093 236.277029 
" clip-path="url(#pbcbec97e29)" style="fill: none; stroke: #000000; stroke-linecap: round"/>
    <path d="M 277.495229 239.360533 
L 274.256093 236.277029 
L 278.666378 235.535822 
z
" clip-path="url(#pbcbec97e29)" style="stroke: #000000; stroke-linecap: round"/>
   </g>
   <g id="patch_46">
    <path d="M 342.118882 255.047733 
Q 352.297553 232.965278 362.008205 211.898183 
" clip-path="url(#pbcbec97e29)" style="fill: none; stroke: #000000; stroke-linecap: round"/>
    <path d="M 358.517434 214.693629 
L 362.008205 211.898183 
L 362.150099 216.368068 
z
" clip-path="url(#pbcbec97e29)" style="stroke: #000000; stroke-linecap: round"/>
   </g>
   <g id="patch_47">
    <path d="M 317.619064 299.15862 
Q 328.991114 278.827508 339.817377 259.472161 
" clip-path="url(#pbcbec97e29)" style="fill: none; stroke: #000000; stroke-linecap: round"/>
    <path d="M 336.11921 261.986831 
L 339.817377 259.472161 
L 339.610213 263.939496 
z
" clip-path="url(#pbcbec97e29)" style="stroke: #000000; stroke-linecap: round"/>
   </g>
   <g id="patch_48">
    <path d="M 314.805559 301.363819 
Q 289.875766 308.229927 266.023872 314.799163 
" clip-path="url(#pbcbec97e29)" style="fill: none; stroke: #000000; stroke-linecap: round"/>
    <path d="M 270.411344 315.665244 
L 266.023872 314.799163 
L 269.34922 311.808834 
z
" clip-path="url(#pbcbec97e29)" style="stroke: #000000; stroke-linecap: round"/>
   </g>
   <g id="patch_49">
    <path d="M 264.947926 315.095497 
Q 289.877719 308.229389 313.729613 301.660154 
" clip-path="url(#pbcbec97e29)" style="fill: none; stroke: #000000; stroke-linecap: round"/>
    <path d="M 309.342142 300.794073 
L 313.729613 301.660154 
L 310.404265 304.650482 
z
" clip-path="url(#pbcbec97e29)" style="stroke: #000000; stroke-linecap: round"/>
   </g>
   <g id="patch_50">
    <path d="M 262.273887 313.850316 
Q 255.045299 298.074427 248.282436 283.314954 
" clip-path="url(#pbcbec97e29)" style="fill: none; stroke: #000000; stroke-linecap: round"/>
    <path d="M 248.130451 287.784507 
L 248.282436 283.314954 
L 251.766887 286.118274 
z
" clip-path="url(#pbcbec97e29)" style="stroke: #000000; stroke-linecap: round"/>
   </g>
   <g id="patch_51">
    <path d="M 247.816168 282.297358 
Q 255.044757 298.073246 261.80762 312.832719 
" clip-path="url(#pbcbec97e29)" style="fill: none; stroke: #000000; stroke-linecap: round"/>
    <path d="M 261.959605 308.363166 
L 261.80762 312.832719 
L 258.323169 310.029399 
z
" clip-path="url(#pbcbec97e29)" style="stroke: #000000; stroke-linecap: round"/>
   </g>
   <g id="patch_52">
    <path d="M 247.929 278.83178 
Q 259.173591 257.960042 269.887904 238.072583 
" clip-path="url(#pbcbec97e29)" style="fill: none; stroke: #000000; stroke-linecap: round"/>
    <path d="M 266.229993 240.645458 
L 269.887904 238.072583 
L 269.751457 242.542637 
z
" clip-path="url(#pbcbec97e29)" style="stroke: #000000; stroke-linecap: round"/>
   </g>
   <g id="patch_53">
    <path d="M 270.80212 233.524727 
Q 262.897263 206.051411 255.301555 179.652537 
" clip-path="url(#pbcbec97e29)" style="fill: none; stroke: #000000; stroke-linecap: round"/>
    <path d="M 254.485574 184.049602 
L 255.301555 179.652537 
L 258.329618 182.943561 
z
" clip-path="url(#pbcbec97e29)" style="stroke: #000000; stroke-linecap: round"/>
   </g>
   <g id="patch_54">
    <path d="M 273.186031 235.94937 
Q 306.321547 246.095657 338.388024 255.914598 
" clip-path="url(#pbcbec97e29)" style="fill: none; stroke: #000000; stroke-linecap: round"/>
    <path d="M 335.148887 252.831094 
L 338.388024 255.914598 
L 333.977739 256.655805 
z
" clip-path="url(#pbcbec97e29)" style="stroke: #000000; stroke-linecap: round"/>
   </g>
   <g id="patch_55">
    <path d="M 270.417747 237.089112 
Q 259.173156 257.96085 248.458843 277.848308 
" clip-path="url(#pbcbec97e29)" style="fill: none; stroke: #000000; stroke-linecap: round"/>
    <path d="M 252.116754 275.275434 
L 248.458843 277.848308 
L 248.59529 273.378254 
z
" clip-path="url(#pbcbec97e29)" style="stroke: #000000; stroke-linecap: round"/>
   </g>
   <g id="patch_56">
    <path d="M 368.83397 90.192052 
Q 345.155274 109.509007 322.342902 128.119221 
" clip-path="url(#pbcbec97e29)" style="fill: none; stroke: #000000; stroke-linecap: round"/>
    <path d="M 326.706612 127.14043 
L 322.342902 128.119221 
L 324.178095 124.040978 
z
" clip-path="url(#pbcbec97e29)" style="stroke: #000000; stroke-linecap: round"/>
   </g>
   <g id="patch_57">
    <path d="M 370.497602 87.040192 
Q 371.870026 70.580637 373.14955 55.235249 
" clip-path="url(#pbcbec97e29)" style="fill: none; stroke: #000000; stroke-linecap: round"/>
    <path d="M 370.824093 59.055229 
L 373.14955 55.235249 
L 374.81026 59.387603 
z
" clip-path="url(#pbcbec97e29)" style="stroke: #000000; stroke-linecap: round"/>
   </g>
   <g id="PathCollection_1">
    <defs>
     <path id="C0_0_e41496a8c9" d="M 0 1.936492 
C 0.513564 1.936492 1.006162 1.732451 1.369306 1.369306 
C 1.732451 1.006162 1.936492 0.513564 1.936492 -0 
C 1.936492 -0.513564 1.732451 -1.006162 1.369306 -1.369306 
C 1.006162 -1.732451 0.513564 -1.936492 0 -1.936492 
C -0.513564 -1.936492 -1.006162 -1.732451 -1.369306 -1.369306 
C -1.732451 -1.006162 -1.936492 -0.513564 -1.936492 0 
C -1.936492 0.513564 -1.732451 1.006162 -1.369306 1.369306 
C -1.006162 1.732451 -0.513564 1.936492 0 1.936492 
z
"/>
    </defs>
    <g clip-path="url(#pbcbec97e29)">
     <use xlink:href="#C0_0_e41496a8c9" x="363.286281" y="209.125419" style="fill: #ff0000; stroke: #ff0000"/>
    </g>
    <g clip-path="url(#pbcbec97e29)">
     <use xlink:href="#C0_0_e41496a8c9" x="258.083064" y="92.857146" style="stroke: #000000"/>
    </g>
    <g clip-path="url(#pbcbec97e29)">
     <use xlink:href="#C0_0_e41496a8c9" x="318.137183" y="151.954405" style="fill: #ff0000; stroke: #ff0000"/>
    </g>
    <g clip-path="url(#pbcbec97e29)">
     <use xlink:href="#C0_0_e41496a8c9" x="254.456671" y="176.716143" style="fill: #ff0000; stroke: #ff0000"/>
    </g>
    <g clip-path="url(#pbcbec97e29)">
     <use xlink:href="#C0_0_e41496a8c9" x="408.676984" y="267.326077" style="fill: #ff0000; stroke: #ff0000"/>
    </g>
    <g clip-path="url(#pbcbec97e29)">
     <use xlink:href="#C0_0_e41496a8c9" x="420.813223" y="237.507308" style="fill: #ff0000; stroke: #ff0000"/>
    </g>
    <g clip-path="url(#pbcbec97e29)">
     <use xlink:href="#C0_0_e41496a8c9" x="319.976624" y="130.049617" style="fill: #ff0000; stroke: #ff0000"/>
    </g>
    <g clip-path="url(#pbcbec97e29)">
     <use xlink:href="#C0_0_e41496a8c9" x="39.986777" y="62.921358" style="fill: #ff0000; stroke: #ff0000"/>
    </g>
    <g clip-path="url(#pbcbec97e29)">
     <use xlink:href="#C0_0_e41496a8c9" x="157.023557" y="66.759675" style="fill: #ff0000; stroke: #ff0000"/>
    </g>
    <g clip-path="url(#pbcbec97e29)">
     <use xlink:href="#C0_0_e41496a8c9" x="107.93972" y="125.286891" style="fill: #ff0000; stroke: #ff0000"/>
    </g>
    <g clip-path="url(#pbcbec97e29)">
     <use xlink:href="#C0_0_e41496a8c9" x="170.094823" y="156.554969" style="fill: #ff0000; stroke: #ff0000"/>
    </g>
    <g clip-path="url(#pbcbec97e29)">
     <use xlink:href="#C0_0_e41496a8c9" x="44.196516" y="29.990083" style="fill: #ff0000; stroke: #ff0000"/>
    </g>
    <g clip-path="url(#pbcbec97e29)">
     <use xlink:href="#C0_0_e41496a8c9" x="92.371952" y="34.508906" style="fill: #ff0000; stroke: #ff0000"/>
    </g>
    <g clip-path="url(#pbcbec97e29)">
     <use xlink:href="#C0_0_e41496a8c9" x="83.417641" y="83.05703" style="fill: #ff0000; stroke: #ff0000"/>
    </g>
    <g clip-path="url(#pbcbec97e29)">
     <use xlink:href="#C0_0_e41496a8c9" x="373.40312" y="52.194171" style="fill: #ff0000; stroke: #ff0000"/>
    </g>
    <g clip-path="url(#pbcbec97e29)">
     <use xlink:href="#C0_0_e41496a8c9" x="313.040587" y="58.261837" style="fill: #ff0000; stroke: #ff0000"/>
    </g>
    <g clip-path="url(#pbcbec97e29)">
     <use xlink:href="#C0_0_e41496a8c9" x="341.30728" y="256.808491" style="fill: #ff0000; stroke: #ff0000"/>
    </g>
    <g clip-path="url(#pbcbec97e29)">
     <use xlink:href="#C0_0_e41496a8c9" x="316.67334" y="300.849399" style="fill: #ff0000; stroke: #ff0000"/>
    </g>
    <g clip-path="url(#pbcbec97e29)">
     <use xlink:href="#C0_0_e41496a8c9" x="263.080146" y="315.609917" style="fill: #ff0000; stroke: #ff0000"/>
    </g>
    <g clip-path="url(#pbcbec97e29)">
     <use xlink:href="#C0_0_e41496a8c9" x="247.00991" y="280.537756" style="fill: #ff0000; stroke: #ff0000"/>
    </g>
    <g clip-path="url(#pbcbec97e29)">
     <use xlink:href="#C0_0_e41496a8c9" x="271.336837" y="235.383136" style="stroke: #000000"/>
    </g>
    <g clip-path="url(#pbcbec97e29)">
     <use xlink:href="#C0_0_e41496a8c9" x="370.337036" y="88.965858" style="fill: #ff0000; stroke: #ff0000"/>
    </g>
   </g>
   <g id="text_1">
    <g clip-path="url(#pbcbec97e29)">
     <!-- 0 -->
     <g transform="translate(360.105031 211.884794) scale(0.1 -0.1)">
      <defs>
       <path id="DejaVuSans-30" d="M 2034 4250 
Q 1547 4250 1301 3770 
Q 1056 3291 1056 2328 
Q 1056 1369 1301 889 
Q 1547 409 2034 409 
Q 2525 409 2770 889 
Q 3016 1369 3016 2328 
Q 3016 3291 2770 3770 
Q 2525 4250 2034 4250 
z
M 2034 4750 
Q 2819 4750 3233 4129 
Q 3647 3509 3647 2328 
Q 3647 1150 3233 529 
Q 2819 -91 2034 -91 
Q 1250 -91 836 529 
Q 422 1150 422 2328 
Q 422 3509 836 4129 
Q 1250 4750 2034 4750 
z
" transform="scale(0.015625)"/>
      </defs>
      <use xlink:href="#DejaVuSans-30"/>
     </g>
    </g>
   </g>
   <g id="text_2">
    <g clip-path="url(#pbcbec97e29)">
     <!-- 2 -->
     <g transform="translate(254.901814 95.616521) scale(0.1 -0.1)">
      <defs>
       <path id="DejaVuSans-32" d="M 1228 531 
L 3431 531 
L 3431 0 
L 469 0 
L 469 531 
Q 828 903 1448 1529 
Q 2069 2156 2228 2338 
Q 2531 2678 2651 2914 
Q 2772 3150 2772 3378 
Q 2772 3750 2511 3984 
Q 2250 4219 1831 4219 
Q 1534 4219 1204 4116 
Q 875 4013 500 3803 
L 500 4441 
Q 881 4594 1212 4672 
Q 1544 4750 1819 4750 
Q 2544 4750 2975 4387 
Q 3406 4025 3406 3419 
Q 3406 3131 3298 2873 
Q 3191 2616 2906 2266 
Q 2828 2175 2409 1742 
Q 1991 1309 1228 531 
z
" transform="scale(0.015625)"/>
      </defs>
      <use xlink:href="#DejaVuSans-32"/>
     </g>
    </g>
   </g>
   <g id="text_3">
    <g clip-path="url(#pbcbec97e29)">
     <!-- 3 -->
     <g transform="translate(314.955933 154.71378) scale(0.1 -0.1)">
      <defs>
       <path id="DejaVuSans-33" d="M 2597 2516 
Q 3050 2419 3304 2112 
Q 3559 1806 3559 1356 
Q 3559 666 3084 287 
Q 2609 -91 1734 -91 
Q 1441 -91 1130 -33 
Q 819 25 488 141 
L 488 750 
Q 750 597 1062 519 
Q 1375 441 1716 441 
Q 2309 441 2620 675 
Q 2931 909 2931 1356 
Q 2931 1769 2642 2001 
Q 2353 2234 1838 2234 
L 1294 2234 
L 1294 2753 
L 1863 2753 
Q 2328 2753 2575 2939 
Q 2822 3125 2822 3475 
Q 2822 3834 2567 4026 
Q 2313 4219 1838 4219 
Q 1578 4219 1281 4162 
Q 984 4106 628 3988 
L 628 4550 
Q 988 4650 1302 4700 
Q 1616 4750 1894 4750 
Q 2613 4750 3031 4423 
Q 3450 4097 3450 3541 
Q 3450 3153 3228 2886 
Q 3006 2619 2597 2516 
z
" transform="scale(0.015625)"/>
      </defs>
      <use xlink:href="#DejaVuSans-33"/>
     </g>
    </g>
   </g>
   <g id="text_4">
    <g clip-path="url(#pbcbec97e29)">
     <!-- 4 -->
     <g transform="translate(251.275421 179.475518) scale(0.1 -0.1)">
      <defs>
       <path id="DejaVuSans-34" d="M 2419 4116 
L 825 1625 
L 2419 1625 
L 2419 4116 
z
M 2253 4666 
L 3047 4666 
L 3047 1625 
L 3713 1625 
L 3713 1100 
L 3047 1100 
L 3047 0 
L 2419 0 
L 2419 1100 
L 313 1100 
L 313 1709 
L 2253 4666 
z
" transform="scale(0.015625)"/>
      </defs>
      <use xlink:href="#DejaVuSans-34"/>
     </g>
    </g>
   </g>
   <g id="text_5">
    <g clip-path="url(#pbcbec97e29)">
     <!-- 6 -->
     <g transform="translate(405.495734 270.085452) scale(0.1 -0.1)">
      <defs>
       <path id="DejaVuSans-36" d="M 2113 2584 
Q 1688 2584 1439 2293 
Q 1191 2003 1191 1497 
Q 1191 994 1439 701 
Q 1688 409 2113 409 
Q 2538 409 2786 701 
Q 3034 994 3034 1497 
Q 3034 2003 2786 2293 
Q 2538 2584 2113 2584 
z
M 3366 4563 
L 3366 3988 
Q 3128 4100 2886 4159 
Q 2644 4219 2406 4219 
Q 1781 4219 1451 3797 
Q 1122 3375 1075 2522 
Q 1259 2794 1537 2939 
Q 1816 3084 2150 3084 
Q 2853 3084 3261 2657 
Q 3669 2231 3669 1497 
Q 3669 778 3244 343 
Q 2819 -91 2113 -91 
Q 1303 -91 875 529 
Q 447 1150 447 2328 
Q 447 3434 972 4092 
Q 1497 4750 2381 4750 
Q 2619 4750 2861 4703 
Q 3103 4656 3366 4563 
z
" transform="scale(0.015625)"/>
      </defs>
      <use xlink:href="#DejaVuSans-36"/>
     </g>
    </g>
   </g>
   <g id="text_6">
    <g clip-path="url(#pbcbec97e29)">
     <!-- 7 -->
     <g transform="translate(417.631973 240.266683) scale(0.1 -0.1)">
      <defs>
       <path id="DejaVuSans-37" d="M 525 4666 
L 3525 4666 
L 3525 4397 
L 1831 0 
L 1172 0 
L 2766 4134 
L 525 4134 
L 525 4666 
z
" transform="scale(0.015625)"/>
      </defs>
      <use xlink:href="#DejaVuSans-37"/>
     </g>
    </g>
   </g>
   <g id="text_7">
    <g clip-path="url(#pbcbec97e29)">
     <!-- 8 -->
     <g transform="translate(316.795374 132.808992) scale(0.1 -0.1)">
      <defs>
       <path id="DejaVuSans-38" d="M 2034 2216 
Q 1584 2216 1326 1975 
Q 1069 1734 1069 1313 
Q 1069 891 1326 650 
Q 1584 409 2034 409 
Q 2484 409 2743 651 
Q 3003 894 3003 1313 
Q 3003 1734 2745 1975 
Q 2488 2216 2034 2216 
z
M 1403 2484 
Q 997 2584 770 2862 
Q 544 3141 544 3541 
Q 544 4100 942 4425 
Q 1341 4750 2034 4750 
Q 2731 4750 3128 4425 
Q 3525 4100 3525 3541 
Q 3525 3141 3298 2862 
Q 3072 2584 2669 2484 
Q 3125 2378 3379 2068 
Q 3634 1759 3634 1313 
Q 3634 634 3220 271 
Q 2806 -91 2034 -91 
Q 1263 -91 848 271 
Q 434 634 434 1313 
Q 434 1759 690 2068 
Q 947 2378 1403 2484 
z
M 1172 3481 
Q 1172 3119 1398 2916 
Q 1625 2713 2034 2713 
Q 2441 2713 2670 2916 
Q 2900 3119 2900 3481 
Q 2900 3844 2670 4047 
Q 2441 4250 2034 4250 
Q 1625 4250 1398 4047 
Q 1172 3844 1172 3481 
z
" transform="scale(0.015625)"/>
      </defs>
      <use xlink:href="#DejaVuSans-38"/>
     </g>
    </g>
   </g>
   <g id="text_8">
    <g clip-path="url(#pbcbec97e29)">
     <!-- 10 -->
     <g transform="translate(33.624277 65.680733) scale(0.1 -0.1)">
      <defs>
       <path id="DejaVuSans-31" d="M 794 531 
L 1825 531 
L 1825 4091 
L 703 3866 
L 703 4441 
L 1819 4666 
L 2450 4666 
L 2450 531 
L 3481 531 
L 3481 0 
L 794 0 
L 794 531 
z
" transform="scale(0.015625)"/>
      </defs>
      <use xlink:href="#DejaVuSans-31"/>
      <use xlink:href="#DejaVuSans-30" x="63.623047"/>
     </g>
    </g>
   </g>
   <g id="text_9">
    <g clip-path="url(#pbcbec97e29)">
     <!-- 13 -->
     <g transform="translate(150.661057 69.51905) scale(0.1 -0.1)">
      <use xlink:href="#DejaVuSans-31"/>
      <use xlink:href="#DejaVuSans-33" x="63.623047"/>
     </g>
    </g>
   </g>
   <g id="text_10">
    <g clip-path="url(#pbcbec97e29)">
     <!-- 14 -->
     <g transform="translate(101.57722 128.046266) scale(0.1 -0.1)">
      <use xlink:href="#DejaVuSans-31"/>
      <use xlink:href="#DejaVuSans-34" x="63.623047"/>
     </g>
    </g>
   </g>
   <g id="text_11">
    <g clip-path="url(#pbcbec97e29)">
     <!-- 15 -->
     <g transform="translate(163.732323 159.314344) scale(0.1 -0.1)">
      <defs>
       <path id="DejaVuSans-35" d="M 691 4666 
L 3169 4666 
L 3169 4134 
L 1269 4134 
L 1269 2991 
Q 1406 3038 1543 3061 
Q 1681 3084 1819 3084 
Q 2600 3084 3056 2656 
Q 3513 2228 3513 1497 
Q 3513 744 3044 326 
Q 2575 -91 1722 -91 
Q 1428 -91 1123 -41 
Q 819 9 494 109 
L 494 744 
Q 775 591 1075 516 
Q 1375 441 1709 441 
Q 2250 441 2565 725 
Q 2881 1009 2881 1497 
Q 2881 1984 2565 2268 
Q 2250 2553 1709 2553 
Q 1456 2553 1204 2497 
Q 953 2441 691 2322 
L 691 4666 
z
" transform="scale(0.015625)"/>
      </defs>
      <use xlink:href="#DejaVuSans-31"/>
      <use xlink:href="#DejaVuSans-35" x="63.623047"/>
     </g>
    </g>
   </g>
   <g id="text_12">
    <g clip-path="url(#pbcbec97e29)">
     <!-- 17 -->
     <g transform="translate(37.834016 32.749458) scale(0.1 -0.1)">
      <use xlink:href="#DejaVuSans-31"/>
      <use xlink:href="#DejaVuSans-37" x="63.623047"/>
     </g>
    </g>
   </g>
   <g id="text_13">
    <g clip-path="url(#pbcbec97e29)">
     <!-- 18 -->
     <g transform="translate(86.009452 37.268281) scale(0.1 -0.1)">
      <use xlink:href="#DejaVuSans-31"/>
      <use xlink:href="#DejaVuSans-38" x="63.623047"/>
     </g>
    </g>
   </g>
   <g id="text_14">
    <g clip-path="url(#pbcbec97e29)">
     <!-- 19 -->
     <g transform="translate(77.055141 85.816405) scale(0.1 -0.1)">
      <defs>
       <path id="DejaVuSans-39" d="M 703 97 
L 703 672 
Q 941 559 1184 500 
Q 1428 441 1663 441 
Q 2288 441 2617 861 
Q 2947 1281 2994 2138 
Q 2813 1869 2534 1725 
Q 2256 1581 1919 1581 
Q 1219 1581 811 2004 
Q 403 2428 403 3163 
Q 403 3881 828 4315 
Q 1253 4750 1959 4750 
Q 2769 4750 3195 4129 
Q 3622 3509 3622 2328 
Q 3622 1225 3098 567 
Q 2575 -91 1691 -91 
Q 1453 -91 1209 -44 
Q 966 3 703 97 
z
M 1959 2075 
Q 2384 2075 2632 2365 
Q 2881 2656 2881 3163 
Q 2881 3666 2632 3958 
Q 2384 4250 1959 4250 
Q 1534 4250 1286 3958 
Q 1038 3666 1038 3163 
Q 1038 2656 1286 2365 
Q 1534 2075 1959 2075 
z
" transform="scale(0.015625)"/>
      </defs>
      <use xlink:href="#DejaVuSans-31"/>
      <use xlink:href="#DejaVuSans-39" x="63.623047"/>
     </g>
    </g>
   </g>
   <g id="text_15">
    <g clip-path="url(#pbcbec97e29)">
     <!-- 21 -->
     <g transform="translate(367.04062 54.953546) scale(0.1 -0.1)">
      <use xlink:href="#DejaVuSans-32"/>
      <use xlink:href="#DejaVuSans-31" x="63.623047"/>
     </g>
    </g>
   </g>
   <g id="text_16">
    <g clip-path="url(#pbcbec97e29)">
     <!-- 22 -->
     <g transform="translate(306.678087 61.021212) scale(0.1 -0.1)">
      <use xlink:href="#DejaVuSans-32"/>
      <use xlink:href="#DejaVuSans-32" x="63.623047"/>
     </g>
    </g>
   </g>
   <g id="text_17">
    <g clip-path="url(#pbcbec97e29)">
     <!-- 25 -->
     <g transform="translate(334.94478 259.567866) scale(0.1 -0.1)">
      <use xlink:href="#DejaVuSans-32"/>
      <use xlink:href="#DejaVuSans-35" x="63.623047"/>
     </g>
    </g>
   </g>
   <g id="text_18">
    <g clip-path="url(#pbcbec97e29)">
     <!-- 26 -->
     <g transform="translate(310.31084 303.608774) scale(0.1 -0.1)">
      <use xlink:href="#DejaVuSans-32"/>
      <use xlink:href="#DejaVuSans-36" x="63.623047"/>
     </g>
    </g>
   </g>
   <g id="text_19">
    <g clip-path="url(#pbcbec97e29)">
     <!-- 27 -->
     <g transform="translate(256.717646 318.369292) scale(0.1 -0.1)">
      <use xlink:href="#DejaVuSans-32"/>
      <use xlink:href="#DejaVuSans-37" x="63.623047"/>
     </g>
    </g>
   </g>
   <g id="text_20">
    <g clip-path="url(#pbcbec97e29)">
     <!-- 28 -->
     <g transform="translate(240.64741 283.297131) scale(0.1 -0.1)">
      <use xlink:href="#DejaVuSans-32"/>
      <use xlink:href="#DejaVuSans-38" x="63.623047"/>
     </g>
    </g>
   </g>
   <g id="text_21">
    <g clip-path="url(#pbcbec97e29)">
     <!-- 29 -->
     <g transform="translate(264.974337 238.142511) scale(0.1 -0.1)">
      <use xlink:href="#DejaVuSans-32"/>
      <use xlink:href="#DejaVuSans-39" x="63.623047"/>
     </g>
    </g>
   </g>
   <g id="text_22">
    <g clip-path="url(#pbcbec97e29)">
     <!-- 30 -->
     <g transform="translate(363.974536 91.725233) scale(0.1 -0.1)">
      <use xlink:href="#DejaVuSans-33"/>
      <use xlink:href="#DejaVuSans-30" x="63.623047"/>
     </g>
    </g>
   </g>
  </g>
 </g>
 <defs>
  <clipPath id="pbcbec97e29">
   <rect x="0" y="0" width="460.8" height="345.6"/>
  </clipPath>
 </defs>
</svg>
