<?xml version="1.0" encoding="utf-8" standalone="no"?>
<!DOCTYPE svg PUBLIC "-//W3C//DTD SVG 1.1//EN"
  "http://www.w3.org/Graphics/SVG/1.1/DTD/svg11.dtd">
<svg xmlns:xlink="http://www.w3.org/1999/xlink" width="460.8pt" height="345.6pt" viewBox="0 0 460.8 345.6" xmlns="http://www.w3.org/2000/svg" version="1.1">
 <metadata>
  <rdf:RDF xmlns:dc="http://purl.org/dc/elements/1.1/" xmlns:cc="http://creativecommons.org/ns#" xmlns:rdf="http://www.w3.org/1999/02/22-rdf-syntax-ns#">
   <cc:Work>
    <dc:type rdf:resource="http://purl.org/dc/dcmitype/StillImage"/>
    <dc:date>2024-02-07T13:48:00.115497</dc:date>
    <dc:format>image/svg+xml</dc:format>
    <dc:creator>
     <cc:Agent>
      <dc:title>Matplotlib v3.8.0, https://matplotlib.org/</dc:title>
     </cc:Agent>
    </dc:creator>
   </cc:Work>
  </rdf:RDF>
 </metadata>
 <defs>
  <style type="text/css">*{stroke-linejoin: round; stroke-linecap: butt}</style>
 </defs>
 <g id="figure_1">
  <g id="patch_1">
   <path d="M 0 345.6 
L 460.8 345.6 
L 460.8 0 
L 0 0 
z
" style="fill: #ffffff"/>
  </g>
  <g id="axes_1">
   <g id="patch_2">
    <path d="M 246.329387 168.011834 
Q 268.548649 154.76911 289.807515 142.098783 
" clip-path="url(#p34f269ea05)" style="fill: none; stroke: #000000; stroke-linecap: round"/>
    <path d="M 285.347561 142.428648 
L 289.807515 142.098783 
L 287.395435 145.864665 
z
" clip-path="url(#p34f269ea05)" style="stroke: #000000; stroke-linecap: round"/>
   </g>
   <g id="patch_3">
    <path d="M 243.284375 167.641864 
Q 225.20101 149.796566 207.913435 132.736582 
" clip-path="url(#p34f269ea05)" style="fill: none; stroke: #000000; stroke-linecap: round"/>
    <path d="M 209.355729 136.969759 
L 207.913435 132.736582 
L 212.165353 134.122653 
z
" clip-path="url(#p34f269ea05)" style="stroke: #000000; stroke-linecap: round"/>
   </g>
   <g id="patch_4">
    <path d="M 246.216872 170.165424 
Q 270.251577 188.149379 293.391103 205.463516 
" clip-path="url(#p34f269ea05)" style="fill: none; stroke: #000000; stroke-linecap: round"/>
    <path d="M 291.386619 201.465761 
L 293.391103 205.463516 
L 288.990209 204.668451 
z
" clip-path="url(#p34f269ea05)" style="stroke: #000000; stroke-linecap: round"/>
   </g>
   <g id="patch_5">
    <path d="M 290.766171 141.527423 
Q 268.546909 154.770147 247.288043 167.440474 
" clip-path="url(#p34f269ea05)" style="fill: none; stroke: #000000; stroke-linecap: round"/>
    <path d="M 251.747997 167.110609 
L 247.288043 167.440474 
L 249.700123 163.674592 
z
" clip-path="url(#p34f269ea05)" style="stroke: #000000; stroke-linecap: round"/>
   </g>
   <g id="patch_6">
    <path d="M 290.507536 140.314657 
Q 249.085023 135.563659 208.773262 130.940059 
" clip-path="url(#p34f269ea05)" style="fill: none; stroke: #000000; stroke-linecap: round"/>
    <path d="M 212.51931 133.382828 
L 208.773262 130.940059 
L 212.975106 129.408882 
z
" clip-path="url(#p34f269ea05)" style="stroke: #000000; stroke-linecap: round"/>
   </g>
   <g id="patch_7">
    <path d="M 294.310625 141.010207 
Q 333.117246 150.815343 370.839897 160.346596 
" clip-path="url(#p34f269ea05)" style="fill: none; stroke: #000000; stroke-linecap: round"/>
    <path d="M 367.451709 157.427662 
L 370.839897 160.346596 
L 366.471837 161.305786 
z
" clip-path="url(#p34f269ea05)" style="stroke: #000000; stroke-linecap: round"/>
   </g>
   <g id="patch_8">
    <path d="M 149.102741 97.164524 
Q 192.970852 116.617481 235.81691 135.617217 
" clip-path="url(#p34f269ea05)" style="fill: none; stroke: #000000; stroke-linecap: round"/>
    <path d="M 232.971051 132.167422 
L 235.81691 135.617217 
L 231.349559 135.824028 
z
" clip-path="url(#p34f269ea05)" style="stroke: #000000; stroke-linecap: round"/>
   </g>
   <g id="patch_9">
    <path d="M 145.469767 95.860113 
Q 105.781686 84.788414 67.170519 74.01714 
" clip-path="url(#p34f269ea05)" style="fill: none; stroke: #000000; stroke-linecap: round"/>
    <path d="M 70.48599 77.018415 
L 67.170519 74.01714 
L 71.560822 73.165528 
z
" clip-path="url(#p34f269ea05)" style="stroke: #000000; stroke-linecap: round"/>
   </g>
   <g id="patch_10">
    <path d="M 149.005814 97.359482 
Q 176.536866 113.485995 203.103203 129.047419 
" clip-path="url(#p34f269ea05)" style="fill: none; stroke: #000000; stroke-linecap: round"/>
    <path d="M 200.662596 125.299962 
L 203.103203 129.047419 
L 198.640873 128.751431 
z
" clip-path="url(#p34f269ea05)" style="stroke: #000000; stroke-linecap: round"/>
   </g>
   <g id="patch_11">
    <path d="M 146.160373 94.835378 
Q 127.989038 70.915581 110.494025 47.886059 
" clip-path="url(#p34f269ea05)" style="fill: none; stroke: #000000; stroke-linecap: round"/>
    <path d="M 111.321135 52.281043 
L 110.494025 47.886059 
L 114.506279 49.861361 
z
" clip-path="url(#p34f269ea05)" style="stroke: #000000; stroke-linecap: round"/>
   </g>
   <g id="patch_12">
    <path d="M 207.120763 131.954345 
Q 225.204128 149.799643 242.491703 166.859627 
" clip-path="url(#p34f269ea05)" style="fill: none; stroke: #000000; stroke-linecap: round"/>
    <path d="M 241.049409 162.62645 
L 242.491703 166.859627 
L 238.239785 165.473556 
z
" clip-path="url(#p34f269ea05)" style="stroke: #000000; stroke-linecap: round"/>
   </g>
   <g id="patch_13">
    <path d="M 207.663792 130.812807 
Q 249.086305 135.563806 289.398066 140.187405 
" clip-path="url(#p34f269ea05)" style="fill: none; stroke: #000000; stroke-linecap: round"/>
    <path d="M 285.652018 137.744636 
L 289.398066 140.187405 
L 285.196222 141.718582 
z
" clip-path="url(#p34f269ea05)" style="stroke: #000000; stroke-linecap: round"/>
   </g>
   <g id="patch_14">
    <path d="M 204.068538 129.612871 
Q 176.537486 113.486358 149.971149 97.924934 
" clip-path="url(#p34f269ea05)" style="fill: none; stroke: #000000; stroke-linecap: round"/>
    <path d="M 152.411756 101.672391 
L 149.971149 97.924934 
L 154.433479 98.220922 
z
" clip-path="url(#p34f269ea05)" style="stroke: #000000; stroke-linecap: round"/>
   </g>
   <g id="patch_15">
    <path d="M 371.919253 160.619313 
Q 333.112633 150.814177 295.389981 141.282924 
" clip-path="url(#p34f269ea05)" style="fill: none; stroke: #000000; stroke-linecap: round"/>
    <path d="M 298.778169 144.201858 
L 295.389981 141.282924 
L 299.758041 140.323734 
z
" clip-path="url(#p34f269ea05)" style="stroke: #000000; stroke-linecap: round"/>
   </g>
   <g id="patch_16">
    <path d="M 374.058503 163.01019 
Q 377.289572 186.865719 380.370581 209.613331 
" clip-path="url(#p34f269ea05)" style="fill: none; stroke: #000000; stroke-linecap: round"/>
    <path d="M 381.815614 205.381088 
L 380.370581 209.613331 
L 377.851806 205.917959 
z
" clip-path="url(#p34f269ea05)" style="stroke: #000000; stroke-linecap: round"/>
   </g>
   <g id="patch_17">
    <path d="M 327.844108 314.023323 
Q 336.155859 302.209754 343.824267 291.310574 
" clip-path="url(#p34f269ea05)" style="fill: none; stroke: #000000; stroke-linecap: round"/>
    <path d="M 339.88686 293.431148 
L 343.824267 291.310574 
L 343.158282 295.732843 
z
" clip-path="url(#p34f269ea05)" style="stroke: #000000; stroke-linecap: round"/>
   </g>
   <g id="patch_18">
    <path d="M 326.771213 313.672635 
Q 327.327328 288.846907 327.858405 265.138933 
" clip-path="url(#p34f269ea05)" style="fill: none; stroke: #000000; stroke-linecap: round"/>
    <path d="M 325.769326 269.093139 
L 327.858405 265.138933 
L 329.768323 269.18272 
z
" clip-path="url(#p34f269ea05)" style="stroke: #000000; stroke-linecap: round"/>
   </g>
   <g id="patch_19">
    <path d="M 327.883424 264.022026 
Q 327.327309 288.847754 326.796233 312.555729 
" clip-path="url(#p34f269ea05)" style="fill: none; stroke: #000000; stroke-linecap: round"/>
    <path d="M 328.885312 308.601522 
L 326.796233 312.555729 
L 324.886315 308.511942 
z
" clip-path="url(#p34f269ea05)" style="stroke: #000000; stroke-linecap: round"/>
   </g>
   <g id="patch_20">
    <path d="M 328.993678 263.699685 
Q 336.754629 275.447714 343.899317 286.262886 
" clip-path="url(#p34f269ea05)" style="fill: none; stroke: #000000; stroke-linecap: round"/>
    <path d="M 343.363259 281.822994 
L 343.899317 286.262886 
L 340.025769 284.027798 
z
" clip-path="url(#p34f269ea05)" style="stroke: #000000; stroke-linecap: round"/>
   </g>
   <g id="patch_21">
    <path d="M 326.949378 260.415924 
Q 311.88061 234.688523 297.376896 209.925858 
" clip-path="url(#p34f269ea05)" style="fill: none; stroke: #000000; stroke-linecap: round"/>
    <path d="M 297.672724 214.388199 
L 297.376896 209.925858 
L 301.124265 212.3666 
z
" clip-path="url(#p34f269ea05)" style="stroke: #000000; stroke-linecap: round"/>
   </g>
   <g id="patch_22">
    <path d="M 329.343001 260.759864 
Q 354.353717 237.361574 378.547983 214.727096 
" clip-path="url(#p34f269ea05)" style="fill: none; stroke: #000000; stroke-linecap: round"/>
    <path d="M 374.260615 215.999289 
L 378.547983 214.727096 
L 376.993316 218.920306 
z
" clip-path="url(#p34f269ea05)" style="stroke: #000000; stroke-linecap: round"/>
   </g>
   <g id="patch_23">
    <path d="M 380.520841 210.722731 
Q 377.289773 186.867202 374.208764 164.11959 
" clip-path="url(#p34f269ea05)" style="fill: none; stroke: #000000; stroke-linecap: round"/>
    <path d="M 372.763731 168.351833 
L 374.208764 164.11959 
L 376.727538 167.814962 
z
" clip-path="url(#p34f269ea05)" style="stroke: #000000; stroke-linecap: round"/>
   </g>
   <g id="patch_24">
    <path d="M 379.36416 213.963537 
Q 354.353445 237.361828 330.159178 259.996305 
" clip-path="url(#p34f269ea05)" style="fill: none; stroke: #000000; stroke-linecap: round"/>
    <path d="M 334.446547 258.724113 
L 330.159178 259.996305 
L 331.713845 255.803095 
z
" clip-path="url(#p34f269ea05)" style="stroke: #000000; stroke-linecap: round"/>
   </g>
   <g id="patch_25">
    <path d="M 379.136026 213.662249 
Q 363.555791 223.361003 348.924712 232.468904 
" clip-path="url(#p34f269ea05)" style="fill: none; stroke: #000000; stroke-linecap: round"/>
    <path d="M 353.377457 232.052907 
L 348.924712 232.468904 
L 351.263561 228.657109 
z
" clip-path="url(#p34f269ea05)" style="stroke: #000000; stroke-linecap: round"/>
   </g>
   <g id="patch_26">
    <path d="M 344.466482 290.397787 
Q 336.154731 302.211357 328.486323 313.110536 
" clip-path="url(#p34f269ea05)" style="fill: none; stroke: #000000; stroke-linecap: round"/>
    <path d="M 332.423729 310.989963 
L 328.486323 313.110536 
L 329.152308 308.688267 
z
" clip-path="url(#p34f269ea05)" style="stroke: #000000; stroke-linecap: round"/>
   </g>
   <g id="patch_27">
    <path d="M 344.515915 287.196253 
Q 336.754965 275.448223 329.610276 264.633051 
" clip-path="url(#p34f269ea05)" style="fill: none; stroke: #000000; stroke-linecap: round"/>
    <path d="M 330.146335 269.072943 
L 329.610276 264.633051 
L 333.483825 266.86814 
z
" clip-path="url(#p34f269ea05)" style="stroke: #000000; stroke-linecap: round"/>
   </g>
   <g id="patch_28">
    <path d="M 345.609166 286.877182 
Q 345.956184 261.449043 346.287946 237.138835 
" clip-path="url(#p34f269ea05)" style="fill: none; stroke: #000000; stroke-linecap: round"/>
    <path d="M 344.23355 241.111171 
L 346.287946 237.138835 
L 348.233177 241.165754 
z
" clip-path="url(#p34f269ea05)" style="stroke: #000000; stroke-linecap: round"/>
   </g>
   <g id="patch_29">
    <path d="M 347.973946 233.06076 
Q 363.55418 223.362006 378.18526 214.254104 
" clip-path="url(#p34f269ea05)" style="fill: none; stroke: #000000; stroke-linecap: round"/>
    <path d="M 373.732514 214.670102 
L 378.18526 214.254104 
L 375.846411 218.0659 
z
" clip-path="url(#p34f269ea05)" style="stroke: #000000; stroke-linecap: round"/>
   </g>
   <g id="patch_30">
    <path d="M 346.303238 236.018363 
Q 345.956219 261.446501 345.624457 285.75671 
" clip-path="url(#p34f269ea05)" style="fill: none; stroke: #000000; stroke-linecap: round"/>
    <path d="M 347.678854 281.784374 
L 345.624457 285.75671 
L 343.679226 281.729791 
z
" clip-path="url(#p34f269ea05)" style="stroke: #000000; stroke-linecap: round"/>
   </g>
   <g id="patch_31">
    <path d="M 348.170809 234.681559 
Q 383.572015 246.164347 417.909733 257.30218 
" clip-path="url(#p34f269ea05)" style="fill: none; stroke: #000000; stroke-linecap: round"/>
    <path d="M 414.721956 254.165608 
L 417.909733 257.30218 
L 413.48781 257.970458 
z
" clip-path="url(#p34f269ea05)" style="stroke: #000000; stroke-linecap: round"/>
   </g>
   <g id="patch_32">
    <path d="M 348.209537 234.533308 
Q 361.516239 237.711196 373.735487 240.62938 
" clip-path="url(#p34f269ea05)" style="fill: none; stroke: #000000; stroke-linecap: round"/>
    <path d="M 370.30947 237.75494 
L 373.735487 240.62938 
L 369.380325 241.64553 
z
" clip-path="url(#p34f269ea05)" style="stroke: #000000; stroke-linecap: round"/>
   </g>
   <g id="patch_33">
    <path d="M 344.619109 233.176749 
Q 321.082511 220.688228 298.533533 208.723737 
" clip-path="url(#p34f269ea05)" style="fill: none; stroke: #000000; stroke-linecap: round"/>
    <path d="M 301.129532 212.365274 
L 298.533533 208.723737 
L 303.004362 208.83186 
z
" clip-path="url(#p34f269ea05)" style="stroke: #000000; stroke-linecap: round"/>
   </g>
   <g id="patch_34">
    <path d="M 345.020583 232.653661 
Q 322.445144 207.980411 300.62443 184.132018 
" clip-path="url(#p34f269ea05)" style="fill: none; stroke: #000000; stroke-linecap: round"/>
    <path d="M 301.849066 188.433212 
L 300.62443 184.132018 
L 304.800166 185.733025 
z
" clip-path="url(#p34f269ea05)" style="stroke: #000000; stroke-linecap: round"/>
   </g>
   <g id="patch_35">
    <path d="M 41.06828 38.804113 
Q 52.106816 55.197096 62.52088 70.662698 
" clip-path="url(#p34f269ea05)" style="fill: none; stroke: #000000; stroke-linecap: round"/>
    <path d="M 61.945658 66.22771 
L 62.52088 70.662698 
L 58.627756 68.461884 
z
" clip-path="url(#p34f269ea05)" style="stroke: #000000; stroke-linecap: round"/>
   </g>
   <g id="patch_36">
    <path d="M 41.910323 37.429346 
Q 74.315681 41.326656 105.611004 45.090464 
" clip-path="url(#p34f269ea05)" style="fill: none; stroke: #000000; stroke-linecap: round"/>
    <path d="M 101.878436 42.627146 
L 105.611004 45.090464 
L 101.400808 46.598527 
z
" clip-path="url(#p34f269ea05)" style="stroke: #000000; stroke-linecap: round"/>
   </g>
   <g id="patch_37">
    <path d="M 66.09079 73.71593 
Q 105.778871 84.787629 144.390038 95.558903 
" clip-path="url(#p34f269ea05)" style="fill: none; stroke: #000000; stroke-linecap: round"/>
    <path d="M 141.074567 92.557628 
L 144.390038 95.558903 
L 139.999735 96.410515 
z
" clip-path="url(#p34f269ea05)" style="stroke: #000000; stroke-linecap: round"/>
   </g>
   <g id="patch_38">
    <path d="M 63.145156 71.58979 
Q 52.106621 55.196807 41.692556 39.731205 
" clip-path="url(#p34f269ea05)" style="fill: none; stroke: #000000; stroke-linecap: round"/>
    <path d="M 42.267779 44.166193 
L 41.692556 39.731205 
L 45.58568 41.932019 
z
" clip-path="url(#p34f269ea05)" style="stroke: #000000; stroke-linecap: round"/>
   </g>
   <g id="patch_39">
    <path d="M 418.972045 257.646753 
Q 383.57084 246.163965 349.233121 235.026132 
" clip-path="url(#p34f269ea05)" style="fill: none; stroke: #000000; stroke-linecap: round"/>
    <path d="M 352.420898 238.162704 
L 349.233121 235.026132 
L 353.655045 234.357854 
z
" clip-path="url(#p34f269ea05)" style="stroke: #000000; stroke-linecap: round"/>
   </g>
   <g id="patch_40">
    <path d="M 419.006779 257.551604 
Q 398.760732 249.791896 379.558667 242.432315 
" clip-path="url(#p34f269ea05)" style="fill: none; stroke: #000000; stroke-linecap: round"/>
    <path d="M 382.577961 245.731385 
L 379.558667 242.432315 
L 384.009499 241.996322 
z
" clip-path="url(#p34f269ea05)" style="stroke: #000000; stroke-linecap: round"/>
   </g>
   <g id="patch_41">
    <path d="M 374.82486 240.889543 
Q 361.518158 237.711655 349.29891 234.793471 
" clip-path="url(#p34f269ea05)" style="fill: none; stroke: #000000; stroke-linecap: round"/>
    <path d="M 352.724927 237.667911 
L 349.29891 234.793471 
L 353.654072 233.777321 
z
" clip-path="url(#p34f269ea05)" style="stroke: #000000; stroke-linecap: round"/>
   </g>
   <g id="patch_42">
    <path d="M 378.51121 242.030856 
Q 398.757257 249.790564 417.959322 257.150145 
" clip-path="url(#p34f269ea05)" style="fill: none; stroke: #000000; stroke-linecap: round"/>
    <path d="M 414.940029 253.851074 
L 417.959322 257.150145 
L 413.50849 257.586138 
z
" clip-path="url(#p34f269ea05)" style="stroke: #000000; stroke-linecap: round"/>
   </g>
   <g id="patch_43">
    <path d="M 374.920412 240.587274 
Q 336.268897 224.314716 298.647819 208.475979 
" clip-path="url(#p34f269ea05)" style="fill: none; stroke: #000000; stroke-linecap: round"/>
    <path d="M 301.558378 211.871365 
L 298.647819 208.475979 
L 303.110463 208.184763 
z
" clip-path="url(#p34f269ea05)" style="stroke: #000000; stroke-linecap: round"/>
   </g>
   <g id="patch_44">
    <path d="M 294.281595 206.129826 
Q 270.246889 188.145871 247.107363 170.831734 
" clip-path="url(#p34f269ea05)" style="fill: none; stroke: #000000; stroke-linecap: round"/>
    <path d="M 249.111847 174.829489 
L 247.107363 170.831734 
L 251.508257 171.626799 
z
" clip-path="url(#p34f269ea05)" style="stroke: #000000; stroke-linecap: round"/>
   </g>
   <g id="patch_45">
    <path d="M 296.811225 208.96007 
Q 311.879993 234.68747 326.383707 259.450136 
" clip-path="url(#p34f269ea05)" style="fill: none; stroke: #000000; stroke-linecap: round"/>
    <path d="M 326.087879 254.987795 
L 326.383707 259.450136 
L 322.636338 257.009393 
z
" clip-path="url(#p34f269ea05)" style="stroke: #000000; stroke-linecap: round"/>
   </g>
   <g id="patch_46">
    <path d="M 297.544304 208.198853 
Q 321.080902 220.687374 343.62988 232.651864 
" clip-path="url(#p34f269ea05)" style="fill: none; stroke: #000000; stroke-linecap: round"/>
    <path d="M 341.033881 229.010327 
L 343.62988 232.651864 
L 339.159052 232.543741 
z
" clip-path="url(#p34f269ea05)" style="stroke: #000000; stroke-linecap: round"/>
   </g>
   <g id="patch_47">
    <path d="M 297.618136 208.042475 
Q 336.269651 224.315033 373.890729 240.15377 
" clip-path="url(#p34f269ea05)" style="fill: none; stroke: #000000; stroke-linecap: round"/>
    <path d="M 370.98017 236.758384 
L 373.890729 240.15377 
L 369.428085 240.444986 
z
" clip-path="url(#p34f269ea05)" style="stroke: #000000; stroke-linecap: round"/>
   </g>
   <g id="patch_48">
    <path d="M 294.613134 205.788752 
Q 267.223429 172.074716 240.538702 139.228439 
" clip-path="url(#p34f269ea05)" style="fill: none; stroke: #000000; stroke-linecap: round"/>
    <path d="M 241.508615 143.594131 
L 240.538702 139.228439 
L 244.613204 141.071924 
z
" clip-path="url(#p34f269ea05)" style="stroke: #000000; stroke-linecap: round"/>
   </g>
   <g id="patch_49">
    <path d="M 299.871552 183.30918 
Q 322.446991 207.98243 344.267705 231.830823 
" clip-path="url(#p34f269ea05)" style="fill: none; stroke: #000000; stroke-linecap: round"/>
    <path d="M 343.043069 227.529629 
L 344.267705 231.830823 
L 340.091969 230.229816 
z
" clip-path="url(#p34f269ea05)" style="stroke: #000000; stroke-linecap: round"/>
   </g>
   <g id="patch_50">
    <path d="M 297.014704 180.716119 
Q 268.588544 159.368589 241.056391 138.692441 
" clip-path="url(#p34f269ea05)" style="fill: none; stroke: #000000; stroke-linecap: round"/>
    <path d="M 243.053878 142.693696 
L 241.056391 138.692441 
L 245.455888 139.495204 
z
" clip-path="url(#p34f269ea05)" style="stroke: #000000; stroke-linecap: round"/>
   </g>
   <g id="patch_51">
    <path d="M 236.842927 136.072196 
Q 192.974816 116.619239 150.128758 97.619503 
" clip-path="url(#p34f269ea05)" style="fill: none; stroke: #000000; stroke-linecap: round"/>
    <path d="M 152.974617 101.069298 
L 150.128758 97.619503 
L 154.596109 97.412692 
z
" clip-path="url(#p34f269ea05)" style="stroke: #000000; stroke-linecap: round"/>
   </g>
   <g id="patch_52">
    <path d="M 239.832418 138.359072 
Q 267.222123 172.073108 293.90685 204.919386 
" clip-path="url(#p34f269ea05)" style="fill: none; stroke: #000000; stroke-linecap: round"/>
    <path d="M 292.936938 200.553693 
L 293.90685 204.919386 
L 289.832349 203.0759 
z
" clip-path="url(#p34f269ea05)" style="stroke: #000000; stroke-linecap: round"/>
   </g>
   <g id="patch_53">
    <path d="M 240.159571 138.018945 
Q 268.58573 159.366475 296.117883 180.042623 
" clip-path="url(#p34f269ea05)" style="fill: none; stroke: #000000; stroke-linecap: round"/>
    <path d="M 294.120396 176.041368 
L 296.117883 180.042623 
L 291.718387 179.23986 
z
" clip-path="url(#p34f269ea05)" style="stroke: #000000; stroke-linecap: round"/>
   </g>
   <g id="patch_54">
    <path d="M 238.007192 135.01293 
Q 228.005342 104.512548 218.351869 75.074536 
" clip-path="url(#p34f269ea05)" style="fill: none; stroke: #000000; stroke-linecap: round"/>
    <path d="M 217.697839 79.498589 
L 218.351869 75.074536 
L 221.498694 78.252193 
z
" clip-path="url(#p34f269ea05)" style="stroke: #000000; stroke-linecap: round"/>
   </g>
   <g id="patch_55">
    <path d="M 218.005631 74.018692 
Q 228.007482 104.519074 237.660954 133.957085 
" clip-path="url(#p34f269ea05)" style="fill: none; stroke: #000000; stroke-linecap: round"/>
    <path d="M 238.314984 129.533033 
L 237.660954 133.957085 
L 234.51413 130.779429 
z
" clip-path="url(#p34f269ea05)" style="stroke: #000000; stroke-linecap: round"/>
   </g>
   <g id="patch_56">
    <path d="M 215.961623 70.885089 
Q 193.864772 51.082811 172.600537 32.026688 
" clip-path="url(#p34f269ea05)" style="fill: none; stroke: #000000; stroke-linecap: round"/>
    <path d="M 174.244632 36.185649 
L 172.600537 32.026688 
L 176.914162 33.206789 
z
" clip-path="url(#p34f269ea05)" style="stroke: #000000; stroke-linecap: round"/>
   </g>
   <g id="patch_57">
    <path d="M 171.767372 31.28004 
Q 193.864223 51.082319 215.128458 70.138441 
" clip-path="url(#p34f269ea05)" style="fill: none; stroke: #000000; stroke-linecap: round"/>
    <path d="M 213.484363 65.979481 
L 215.128458 70.138441 
L 210.814832 68.958341 
z
" clip-path="url(#p34f269ea05)" style="stroke: #000000; stroke-linecap: round"/>
   </g>
   <g id="patch_58">
    <path d="M 168.449375 30.461111 
Q 139.488425 37.722734 111.611938 44.71244 
" clip-path="url(#p34f269ea05)" style="fill: none; stroke: #000000; stroke-linecap: round"/>
    <path d="M 115.978252 45.679549 
L 111.611938 44.71244 
L 115.005413 41.799654 
z
" clip-path="url(#p34f269ea05)" style="stroke: #000000; stroke-linecap: round"/>
   </g>
   <g id="patch_59">
    <path d="M 109.821247 47.00045 
Q 127.992582 70.920246 145.487595 93.949769 
" clip-path="url(#p34f269ea05)" style="fill: none; stroke: #000000; stroke-linecap: round"/>
    <path d="M 144.660485 89.554784 
L 145.487595 93.949769 
L 141.475341 91.974467 
z
" clip-path="url(#p34f269ea05)" style="stroke: #000000; stroke-linecap: round"/>
   </g>
   <g id="patch_60">
    <path d="M 106.724177 45.224343 
Q 74.318819 41.327033 43.023496 37.563224 
" clip-path="url(#p34f269ea05)" style="fill: none; stroke: #000000; stroke-linecap: round"/>
    <path d="M 46.756063 40.026543 
L 43.023496 37.563224 
L 47.233691 36.055161 
z
" clip-path="url(#p34f269ea05)" style="stroke: #000000; stroke-linecap: round"/>
   </g>
   <g id="patch_61">
    <path d="M 110.526289 44.984654 
Q 139.487239 37.723031 167.363726 30.733325 
" clip-path="url(#p34f269ea05)" style="fill: none; stroke: #000000; stroke-linecap: round"/>
    <path d="M 162.997412 29.766216 
L 167.363726 30.733325 
L 163.970251 33.646111 
z
" clip-path="url(#p34f269ea05)" style="stroke: #000000; stroke-linecap: round"/>
   </g>
   <g id="PathCollection_1">
    <defs>
     <path id="mfe28d739e6" d="M 0 1.936492 
C 0.513564 1.936492 1.006162 1.732451 1.369306 1.369306 
C 1.732451 1.006162 1.936492 0.513564 1.936492 0 
C 1.936492 -0.513564 1.732451 -1.006162 1.369306 -1.369306 
C 1.006162 -1.732451 0.513564 -1.936492 0 -1.936492 
C -0.513564 -1.936492 -1.006162 -1.732451 -1.369306 -1.369306 
C -1.732451 -1.006162 -1.936492 -0.513564 -1.936492 0 
C -1.936492 0.513564 -1.732451 1.006162 -1.369306 1.369306 
C -1.006162 1.732451 -0.513564 1.936492 0 1.936492 
z
" style="stroke: #1f78b4"/>
    </defs>
    <g clip-path="url(#p34f269ea05)">
     <use xlink:href="#mfe28d739e6" x="244.664684" y="169.004001" style="fill: #1f78b4; stroke: #1f78b4"/>
     <use xlink:href="#mfe28d739e6" x="292.430874" y="140.535256" style="fill: #1f78b4; stroke: #1f78b4"/>
     <use xlink:href="#mfe28d739e6" x="147.333898" y="96.380145" style="fill: #1f78b4; stroke: #1f78b4"/>
     <use xlink:href="#mfe28d739e6" x="205.740454" y="130.592208" style="fill: #1f78b4; stroke: #1f78b4"/>
     <use xlink:href="#mfe28d739e6" x="373.799004" y="161.094264" style="fill: #1f78b4; stroke: #1f78b4"/>
     <use xlink:href="#mfe28d739e6" x="326.727817" y="315.609917" style="fill: #1f78b4; stroke: #1f78b4"/>
     <use xlink:href="#mfe28d739e6" x="327.926821" y="262.084744" style="fill: #1f78b4; stroke: #1f78b4"/>
     <use xlink:href="#mfe28d739e6" x="380.78034" y="212.638657" style="fill: #1f78b4; stroke: #1f78b4"/>
     <use xlink:href="#mfe28d739e6" x="345.582773" y="288.811193" style="fill: #1f78b4; stroke: #1f78b4"/>
     <use xlink:href="#mfe28d739e6" x="346.329631" y="234.084352" style="fill: #1f78b4; stroke: #1f78b4"/>
     <use xlink:href="#mfe28d739e6" x="39.986777" y="37.198006" style="fill: #1f78b4; stroke: #1f78b4"/>
     <use xlink:href="#mfe28d739e6" x="64.22666" y="73.195897" style="fill: #1f78b4; stroke: #1f78b4"/>
     <use xlink:href="#mfe28d739e6" x="420.813223" y="258.24396" style="fill: #1f78b4; stroke: #1f78b4"/>
     <use xlink:href="#mfe28d739e6" x="376.704766" y="241.338499" style="fill: #1f78b4; stroke: #1f78b4"/>
     <use xlink:href="#mfe28d739e6" x="295.833782" y="207.291249" style="fill: #1f78b4; stroke: #1f78b4"/>
     <use xlink:href="#mfe28d739e6" x="298.562504" y="181.878489" style="fill: #1f78b4; stroke: #1f78b4"/>
     <use xlink:href="#mfe28d739e6" x="238.61177" y="136.856575" style="fill: #1f78b4; stroke: #1f78b4"/>
     <use xlink:href="#mfe28d739e6" x="217.401053" y="72.175047" style="fill: #1f78b4; stroke: #1f78b4"/>
     <use xlink:href="#mfe28d739e6" x="170.327942" y="29.990083" style="fill: #1f78b4; stroke: #1f78b4"/>
     <use xlink:href="#mfe28d739e6" x="108.647723" y="45.455683" style="fill: #1f78b4; stroke: #1f78b4"/>
    </g>
   </g>
   <g id="text_1">
    <g clip-path="url(#p34f269ea05)">
     <!-- 0 -->
     <g transform="translate(241.483434 171.763376) scale(0.1 -0.1)">
      <defs>
       <path id="DejaVuSans-30" d="M 2034 4250 
Q 1547 4250 1301 3770 
Q 1056 3291 1056 2328 
Q 1056 1369 1301 889 
Q 1547 409 2034 409 
Q 2525 409 2770 889 
Q 3016 1369 3016 2328 
Q 3016 3291 2770 3770 
Q 2525 4250 2034 4250 
z
M 2034 4750 
Q 2819 4750 3233 4129 
Q 3647 3509 3647 2328 
Q 3647 1150 3233 529 
Q 2819 -91 2034 -91 
Q 1250 -91 836 529 
Q 422 1150 422 2328 
Q 422 3509 836 4129 
Q 1250 4750 2034 4750 
z
" transform="scale(0.015625)"/>
      </defs>
      <use xlink:href="#DejaVuSans-30"/>
     </g>
    </g>
   </g>
   <g id="text_2">
    <g clip-path="url(#p34f269ea05)">
     <!-- 1 -->
     <g transform="translate(289.249624 143.294631) scale(0.1 -0.1)">
      <defs>
       <path id="DejaVuSans-31" d="M 794 531 
L 1825 531 
L 1825 4091 
L 703 3866 
L 703 4441 
L 1819 4666 
L 2450 4666 
L 2450 531 
L 3481 531 
L 3481 0 
L 794 0 
L 794 531 
z
" transform="scale(0.015625)"/>
      </defs>
      <use xlink:href="#DejaVuSans-31"/>
     </g>
    </g>
   </g>
   <g id="text_3">
    <g clip-path="url(#p34f269ea05)">
     <!-- 2 -->
     <g transform="translate(144.152648 99.13952) scale(0.1 -0.1)">
      <defs>
       <path id="DejaVuSans-32" d="M 1228 531 
L 3431 531 
L 3431 0 
L 469 0 
L 469 531 
Q 828 903 1448 1529 
Q 2069 2156 2228 2338 
Q 2531 2678 2651 2914 
Q 2772 3150 2772 3378 
Q 2772 3750 2511 3984 
Q 2250 4219 1831 4219 
Q 1534 4219 1204 4116 
Q 875 4013 500 3803 
L 500 4441 
Q 881 4594 1212 4672 
Q 1544 4750 1819 4750 
Q 2544 4750 2975 4387 
Q 3406 4025 3406 3419 
Q 3406 3131 3298 2873 
Q 3191 2616 2906 2266 
Q 2828 2175 2409 1742 
Q 1991 1309 1228 531 
z
" transform="scale(0.015625)"/>
      </defs>
      <use xlink:href="#DejaVuSans-32"/>
     </g>
    </g>
   </g>
   <g id="text_4">
    <g clip-path="url(#p34f269ea05)">
     <!-- 3 -->
     <g transform="translate(202.559204 133.351583) scale(0.1 -0.1)">
      <defs>
       <path id="DejaVuSans-33" d="M 2597 2516 
Q 3050 2419 3304 2112 
Q 3559 1806 3559 1356 
Q 3559 666 3084 287 
Q 2609 -91 1734 -91 
Q 1441 -91 1130 -33 
Q 819 25 488 141 
L 488 750 
Q 750 597 1062 519 
Q 1375 441 1716 441 
Q 2309 441 2620 675 
Q 2931 909 2931 1356 
Q 2931 1769 2642 2001 
Q 2353 2234 1838 2234 
L 1294 2234 
L 1294 2753 
L 1863 2753 
Q 2328 2753 2575 2939 
Q 2822 3125 2822 3475 
Q 2822 3834 2567 4026 
Q 2313 4219 1838 4219 
Q 1578 4219 1281 4162 
Q 984 4106 628 3988 
L 628 4550 
Q 988 4650 1302 4700 
Q 1616 4750 1894 4750 
Q 2613 4750 3031 4423 
Q 3450 4097 3450 3541 
Q 3450 3153 3228 2886 
Q 3006 2619 2597 2516 
z
" transform="scale(0.015625)"/>
      </defs>
      <use xlink:href="#DejaVuSans-33"/>
     </g>
    </g>
   </g>
   <g id="text_5">
    <g clip-path="url(#p34f269ea05)">
     <!-- 4 -->
     <g transform="translate(370.617754 163.853639) scale(0.1 -0.1)">
      <defs>
       <path id="DejaVuSans-34" d="M 2419 4116 
L 825 1625 
L 2419 1625 
L 2419 4116 
z
M 2253 4666 
L 3047 4666 
L 3047 1625 
L 3713 1625 
L 3713 1100 
L 3047 1100 
L 3047 0 
L 2419 0 
L 2419 1100 
L 313 1100 
L 313 1709 
L 2253 4666 
z
" transform="scale(0.015625)"/>
      </defs>
      <use xlink:href="#DejaVuSans-34"/>
     </g>
    </g>
   </g>
   <g id="text_6">
    <g clip-path="url(#p34f269ea05)">
     <!-- 5 -->
     <g transform="translate(323.546567 318.369292) scale(0.1 -0.1)">
      <defs>
       <path id="DejaVuSans-35" d="M 691 4666 
L 3169 4666 
L 3169 4134 
L 1269 4134 
L 1269 2991 
Q 1406 3038 1543 3061 
Q 1681 3084 1819 3084 
Q 2600 3084 3056 2656 
Q 3513 2228 3513 1497 
Q 3513 744 3044 326 
Q 2575 -91 1722 -91 
Q 1428 -91 1123 -41 
Q 819 9 494 109 
L 494 744 
Q 775 591 1075 516 
Q 1375 441 1709 441 
Q 2250 441 2565 725 
Q 2881 1009 2881 1497 
Q 2881 1984 2565 2268 
Q 2250 2553 1709 2553 
Q 1456 2553 1204 2497 
Q 953 2441 691 2322 
L 691 4666 
z
" transform="scale(0.015625)"/>
      </defs>
      <use xlink:href="#DejaVuSans-35"/>
     </g>
    </g>
   </g>
   <g id="text_7">
    <g clip-path="url(#p34f269ea05)">
     <!-- 6 -->
     <g transform="translate(324.745571 264.844119) scale(0.1 -0.1)">
      <defs>
       <path id="DejaVuSans-36" d="M 2113 2584 
Q 1688 2584 1439 2293 
Q 1191 2003 1191 1497 
Q 1191 994 1439 701 
Q 1688 409 2113 409 
Q 2538 409 2786 701 
Q 3034 994 3034 1497 
Q 3034 2003 2786 2293 
Q 2538 2584 2113 2584 
z
M 3366 4563 
L 3366 3988 
Q 3128 4100 2886 4159 
Q 2644 4219 2406 4219 
Q 1781 4219 1451 3797 
Q 1122 3375 1075 2522 
Q 1259 2794 1537 2939 
Q 1816 3084 2150 3084 
Q 2853 3084 3261 2657 
Q 3669 2231 3669 1497 
Q 3669 778 3244 343 
Q 2819 -91 2113 -91 
Q 1303 -91 875 529 
Q 447 1150 447 2328 
Q 447 3434 972 4092 
Q 1497 4750 2381 4750 
Q 2619 4750 2861 4703 
Q 3103 4656 3366 4563 
z
" transform="scale(0.015625)"/>
      </defs>
      <use xlink:href="#DejaVuSans-36"/>
     </g>
    </g>
   </g>
   <g id="text_8">
    <g clip-path="url(#p34f269ea05)">
     <!-- 7 -->
     <g transform="translate(377.59909 215.398032) scale(0.1 -0.1)">
      <defs>
       <path id="DejaVuSans-37" d="M 525 4666 
L 3525 4666 
L 3525 4397 
L 1831 0 
L 1172 0 
L 2766 4134 
L 525 4134 
L 525 4666 
z
" transform="scale(0.015625)"/>
      </defs>
      <use xlink:href="#DejaVuSans-37"/>
     </g>
    </g>
   </g>
   <g id="text_9">
    <g clip-path="url(#p34f269ea05)">
     <!-- 8 -->
     <g transform="translate(342.401523 291.570568) scale(0.1 -0.1)">
      <defs>
       <path id="DejaVuSans-38" d="M 2034 2216 
Q 1584 2216 1326 1975 
Q 1069 1734 1069 1313 
Q 1069 891 1326 650 
Q 1584 409 2034 409 
Q 2484 409 2743 651 
Q 3003 894 3003 1313 
Q 3003 1734 2745 1975 
Q 2488 2216 2034 2216 
z
M 1403 2484 
Q 997 2584 770 2862 
Q 544 3141 544 3541 
Q 544 4100 942 4425 
Q 1341 4750 2034 4750 
Q 2731 4750 3128 4425 
Q 3525 4100 3525 3541 
Q 3525 3141 3298 2862 
Q 3072 2584 2669 2484 
Q 3125 2378 3379 2068 
Q 3634 1759 3634 1313 
Q 3634 634 3220 271 
Q 2806 -91 2034 -91 
Q 1263 -91 848 271 
Q 434 634 434 1313 
Q 434 1759 690 2068 
Q 947 2378 1403 2484 
z
M 1172 3481 
Q 1172 3119 1398 2916 
Q 1625 2713 2034 2713 
Q 2441 2713 2670 2916 
Q 2900 3119 2900 3481 
Q 2900 3844 2670 4047 
Q 2441 4250 2034 4250 
Q 1625 4250 1398 4047 
Q 1172 3844 1172 3481 
z
" transform="scale(0.015625)"/>
      </defs>
      <use xlink:href="#DejaVuSans-38"/>
     </g>
    </g>
   </g>
   <g id="text_10">
    <g clip-path="url(#p34f269ea05)">
     <!-- 9 -->
     <g transform="translate(343.148381 236.843727) scale(0.1 -0.1)">
      <defs>
       <path id="DejaVuSans-39" d="M 703 97 
L 703 672 
Q 941 559 1184 500 
Q 1428 441 1663 441 
Q 2288 441 2617 861 
Q 2947 1281 2994 2138 
Q 2813 1869 2534 1725 
Q 2256 1581 1919 1581 
Q 1219 1581 811 2004 
Q 403 2428 403 3163 
Q 403 3881 828 4315 
Q 1253 4750 1959 4750 
Q 2769 4750 3195 4129 
Q 3622 3509 3622 2328 
Q 3622 1225 3098 567 
Q 2575 -91 1691 -91 
Q 1453 -91 1209 -44 
Q 966 3 703 97 
z
M 1959 2075 
Q 2384 2075 2632 2365 
Q 2881 2656 2881 3163 
Q 2881 3666 2632 3958 
Q 2384 4250 1959 4250 
Q 1534 4250 1286 3958 
Q 1038 3666 1038 3163 
Q 1038 2656 1286 2365 
Q 1534 2075 1959 2075 
z
" transform="scale(0.015625)"/>
      </defs>
      <use xlink:href="#DejaVuSans-39"/>
     </g>
    </g>
   </g>
   <g id="text_11">
    <g clip-path="url(#p34f269ea05)">
     <!-- 10 -->
     <g transform="translate(33.624277 39.957381) scale(0.1 -0.1)">
      <use xlink:href="#DejaVuSans-31"/>
      <use xlink:href="#DejaVuSans-30" x="63.623047"/>
     </g>
    </g>
   </g>
   <g id="text_12">
    <g clip-path="url(#p34f269ea05)">
     <!-- 11 -->
     <g transform="translate(57.86416 75.955272) scale(0.1 -0.1)">
      <use xlink:href="#DejaVuSans-31"/>
      <use xlink:href="#DejaVuSans-31" x="63.623047"/>
     </g>
    </g>
   </g>
   <g id="text_13">
    <g clip-path="url(#p34f269ea05)">
     <!-- 12 -->
     <g transform="translate(414.450723 261.003335) scale(0.1 -0.1)">
      <use xlink:href="#DejaVuSans-31"/>
      <use xlink:href="#DejaVuSans-32" x="63.623047"/>
     </g>
    </g>
   </g>
   <g id="text_14">
    <g clip-path="url(#p34f269ea05)">
     <!-- 13 -->
     <g transform="translate(370.342266 244.097874) scale(0.1 -0.1)">
      <use xlink:href="#DejaVuSans-31"/>
      <use xlink:href="#DejaVuSans-33" x="63.623047"/>
     </g>
    </g>
   </g>
   <g id="text_15">
    <g clip-path="url(#p34f269ea05)">
     <!-- 14 -->
     <g transform="translate(289.471282 210.050624) scale(0.1 -0.1)">
      <use xlink:href="#DejaVuSans-31"/>
      <use xlink:href="#DejaVuSans-34" x="63.623047"/>
     </g>
    </g>
   </g>
   <g id="text_16">
    <g clip-path="url(#p34f269ea05)">
     <!-- 15 -->
     <g transform="translate(292.200004 184.637864) scale(0.1 -0.1)">
      <use xlink:href="#DejaVuSans-31"/>
      <use xlink:href="#DejaVuSans-35" x="63.623047"/>
     </g>
    </g>
   </g>
   <g id="text_17">
    <g clip-path="url(#p34f269ea05)">
     <!-- 16 -->
     <g transform="translate(232.24927 139.61595) scale(0.1 -0.1)">
      <use xlink:href="#DejaVuSans-31"/>
      <use xlink:href="#DejaVuSans-36" x="63.623047"/>
     </g>
    </g>
   </g>
   <g id="text_18">
    <g clip-path="url(#p34f269ea05)">
     <!-- 17 -->
     <g transform="translate(211.038553 74.934422) scale(0.1 -0.1)">
      <use xlink:href="#DejaVuSans-31"/>
      <use xlink:href="#DejaVuSans-37" x="63.623047"/>
     </g>
    </g>
   </g>
   <g id="text_19">
    <g clip-path="url(#p34f269ea05)">
     <!-- 18 -->
     <g transform="translate(163.965442 32.749458) scale(0.1 -0.1)">
      <use xlink:href="#DejaVuSans-31"/>
      <use xlink:href="#DejaVuSans-38" x="63.623047"/>
     </g>
    </g>
   </g>
   <g id="text_20">
    <g clip-path="url(#p34f269ea05)">
     <!-- 19 -->
     <g transform="translate(102.285223 48.215058) scale(0.1 -0.1)">
      <use xlink:href="#DejaVuSans-31"/>
      <use xlink:href="#DejaVuSans-39" x="63.623047"/>
     </g>
    </g>
   </g>
  </g>
 </g>
 <defs>
  <clipPath id="p34f269ea05">
   <rect x="0" y="0" width="460.8" height="345.6"/>
  </clipPath>
 </defs>
</svg>
