<?xml version="1.0" encoding="utf-8" standalone="no"?>
<!DOCTYPE svg PUBLIC "-//W3C//DTD SVG 1.1//EN"
  "http://www.w3.org/Graphics/SVG/1.1/DTD/svg11.dtd">
<svg xmlns:xlink="http://www.w3.org/1999/xlink" width="460.8pt" height="345.6pt" viewBox="0 0 460.8 345.6" xmlns="http://www.w3.org/2000/svg" version="1.1">
 <metadata>
  <rdf:RDF xmlns:dc="http://purl.org/dc/elements/1.1/" xmlns:cc="http://creativecommons.org/ns#" xmlns:rdf="http://www.w3.org/1999/02/22-rdf-syntax-ns#">
   <cc:Work>
    <dc:type rdf:resource="http://purl.org/dc/dcmitype/StillImage"/>
    <dc:date>2024-02-07T14:34:45.193507</dc:date>
    <dc:format>image/svg+xml</dc:format>
    <dc:creator>
     <cc:Agent>
      <dc:title>Matplotlib v3.8.0, https://matplotlib.org/</dc:title>
     </cc:Agent>
    </dc:creator>
   </cc:Work>
  </rdf:RDF>
 </metadata>
 <defs>
  <style type="text/css">*{stroke-linejoin: round; stroke-linecap: butt}</style>
 </defs>
 <g id="figure_1">
  <g id="patch_1">
   <path d="M 0 345.6 
L 460.8 345.6 
L 460.8 0 
L 0 0 
z
" style="fill: #ffffff"/>
  </g>
  <g id="axes_1">
   <g id="patch_2">
    <path d="M 129.473554 193.858928 
Q 85.307755 134.564116 41.809818 76.165942 
" clip-path="url(#p004460ad65)" style="fill: none; stroke: #000000; stroke-linecap: round"/>
    <path d="M 42.595278 80.568561 
L 41.809818 76.165942 
L 45.803189 78.179145 
z
" clip-path="url(#p004460ad65)" style="stroke: #000000; stroke-linecap: round"/>
   </g>
   <g id="patch_3">
    <path d="M 131.863869 196.907945 
Q 180.195486 255.510886 227.815743 313.25129 
" clip-path="url(#p004460ad65)" style="fill: none; stroke: #000000; stroke-linecap: round"/>
    <path d="M 226.813657 308.89287 
L 227.815743 313.25129 
L 223.727756 311.437907 
z
" clip-path="url(#p004460ad65)" style="stroke: #000000; stroke-linecap: round"/>
   </g>
   <g id="patch_4">
    <path d="M 132.522259 194.986522 
Q 230.663737 172.730299 327.714866 150.721342 
" clip-path="url(#p004460ad65)" style="fill: none; stroke: #000000; stroke-linecap: round"/>
    <path d="M 323.371595 149.655513 
L 327.714866 150.721342 
L 324.25624 153.556462 
z
" clip-path="url(#p004460ad65)" style="stroke: #000000; stroke-linecap: round"/>
   </g>
   <g id="patch_5">
    <path d="M 41.145853 75.274536 
Q 85.311652 134.569348 128.809589 192.967521 
" clip-path="url(#p004460ad65)" style="fill: none; stroke: #000000; stroke-linecap: round"/>
    <path d="M 128.024129 188.564903 
L 128.809589 192.967521 
L 124.816218 190.954318 
z
" clip-path="url(#p004460ad65)" style="stroke: #000000; stroke-linecap: round"/>
   </g>
   <g id="patch_6">
    <path d="M 41.873233 73.285378 
Q 135.234611 51.854088 227.506297 30.672939 
" clip-path="url(#p004460ad65)" style="fill: none; stroke: #000000; stroke-linecap: round"/>
    <path d="M 223.160229 29.61857 
L 227.506297 30.672939 
L 224.055161 33.517172 
z
" clip-path="url(#p004460ad65)" style="stroke: #000000; stroke-linecap: round"/>
   </g>
   <g id="patch_7">
    <path d="M 228.529735 314.117018 
Q 180.198118 255.514078 132.577861 197.773673 
" clip-path="url(#p004460ad65)" style="fill: none; stroke: #000000; stroke-linecap: round"/>
    <path d="M 133.579947 202.132093 
L 132.577861 197.773673 
L 136.665848 199.587056 
z
" clip-path="url(#p004460ad65)" style="stroke: #000000; stroke-linecap: round"/>
   </g>
   <g id="patch_8">
    <path d="M 231.647125 315.180188 
Q 325.284863 293.846339 417.832502 272.760851 
" clip-path="url(#p004460ad65)" style="fill: none; stroke: #000000; stroke-linecap: round"/>
    <path d="M 413.488161 271.699387 
L 417.832502 272.760851 
L 414.376727 275.599445 
z
" clip-path="url(#p004460ad65)" style="stroke: #000000; stroke-linecap: round"/>
   </g>
   <g id="patch_9">
    <path d="M 418.927072 272.511471 
Q 325.289334 293.84532 232.741695 314.930808 
" clip-path="url(#p004460ad65)" style="fill: none; stroke: #000000; stroke-linecap: round"/>
    <path d="M 237.086036 315.992272 
L 232.741695 314.930808 
L 236.19747 312.092214 
z
" clip-path="url(#p004460ad65)" style="stroke: #000000; stroke-linecap: round"/>
   </g>
   <g id="patch_10">
    <path d="M 419.660895 270.521281 
Q 375.752244 211.06099 332.507747 152.500087 
" clip-path="url(#p004460ad65)" style="fill: none; stroke: #000000; stroke-linecap: round"/>
    <path d="M 333.27503 156.90591 
L 332.507747 152.500087 
L 336.492775 154.529755 
z
" clip-path="url(#p004460ad65)" style="stroke: #000000; stroke-linecap: round"/>
   </g>
   <g id="patch_11">
    <path d="M 328.80551 150.474009 
Q 230.664032 172.730232 133.612903 194.739189 
" clip-path="url(#p004460ad65)" style="fill: none; stroke: #000000; stroke-linecap: round"/>
    <path d="M 137.956174 195.805018 
L 133.612903 194.739189 
L 137.071529 191.904069 
z
" clip-path="url(#p004460ad65)" style="stroke: #000000; stroke-linecap: round"/>
   </g>
   <g id="patch_12">
    <path d="M 331.847466 151.605946 
Q 375.756118 211.066237 419.000614 269.62714 
" clip-path="url(#p004460ad65)" style="fill: none; stroke: #000000; stroke-linecap: round"/>
    <path d="M 418.233332 265.221317 
L 419.000614 269.62714 
L 415.015586 267.597472 
z
" clip-path="url(#p004460ad65)" style="stroke: #000000; stroke-linecap: round"/>
   </g>
   <g id="patch_13">
    <path d="M 329.45653 148.561646 
Q 280.589492 90.01947 232.43891 32.3356 
" clip-path="url(#p004460ad65)" style="fill: none; stroke: #000000; stroke-linecap: round"/>
    <path d="M 233.466796 36.688007 
L 232.43891 32.3356 
L 236.537567 34.124735 
z
" clip-path="url(#p004460ad65)" style="stroke: #000000; stroke-linecap: round"/>
   </g>
   <g id="patch_14">
    <path d="M 228.594575 30.423122 
Q 135.233197 51.854413 42.961511 73.035562 
" clip-path="url(#p004460ad65)" style="fill: none; stroke: #000000; stroke-linecap: round"/>
    <path d="M 47.307579 74.089931 
L 42.961511 73.035562 
L 46.412647 70.191329 
z
" clip-path="url(#p004460ad65)" style="stroke: #000000; stroke-linecap: round"/>
   </g>
   <g id="patch_15">
    <path d="M 231.719639 31.473922 
Q 280.586678 90.016098 328.73726 147.699968 
" clip-path="url(#p004460ad65)" style="fill: none; stroke: #000000; stroke-linecap: round"/>
    <path d="M 327.709374 143.347561 
L 328.73726 147.699968 
L 324.638602 145.910832 
z
" clip-path="url(#p004460ad65)" style="stroke: #000000; stroke-linecap: round"/>
   </g>
   <g id="PathCollection_1">
    <defs>
     <path id="C0_0_d9794a757f" d="M 0 1.936492 
C 0.513564 1.936492 1.006162 1.732451 1.369306 1.369306 
C 1.732451 1.006162 1.936492 0.513564 1.936492 -0 
C 1.936492 -0.513564 1.732451 -1.006162 1.369306 -1.369306 
C 1.006162 -1.732451 0.513564 -1.936492 0 -1.936492 
C -0.513564 -1.936492 -1.006162 -1.732451 -1.369306 -1.369306 
C -1.732451 -1.006162 -1.936492 -0.513564 -1.936492 0 
C -1.936492 0.513564 -1.732451 1.006162 -1.369306 1.369306 
C -1.006162 1.732451 -0.513564 1.936492 0 1.936492 
z
"/>
    </defs>
    <g clip-path="url(#p004460ad65)">
     <use xlink:href="#C0_0_d9794a757f" x="130.63263" y="195.415046" style="fill: #ff0000; stroke: #ff0000"/>
    </g>
    <g clip-path="url(#p004460ad65)">
     <use xlink:href="#C0_0_d9794a757f" x="39.986777" y="73.718418" style="fill: #ff0000; stroke: #ff0000"/>
    </g>
    <g clip-path="url(#p004460ad65)">
     <use xlink:href="#C0_0_d9794a757f" x="229.760974" y="315.609917" style="fill: #ff0000; stroke: #ff0000"/>
    </g>
    <g clip-path="url(#p004460ad65)">
     <use xlink:href="#C0_0_d9794a757f" x="420.813223" y="272.081742" style="fill: #ff0000; stroke: #ff0000"/>
    </g>
    <g clip-path="url(#p004460ad65)">
     <use xlink:href="#C0_0_d9794a757f" x="330.695139" y="150.045485" style="fill: #ff0000; stroke: #ff0000"/>
    </g>
    <g clip-path="url(#p004460ad65)">
     <use xlink:href="#C0_0_d9794a757f" x="230.481031" y="29.990083" style="stroke: #000000"/>
    </g>
   </g>
   <g id="text_1">
    <g clip-path="url(#p004460ad65)">
     <!-- 0 -->
     <g transform="translate(127.45138 198.174421) scale(0.1 -0.1)">
      <defs>
       <path id="DejaVuSans-30" d="M 2034 4250 
Q 1547 4250 1301 3770 
Q 1056 3291 1056 2328 
Q 1056 1369 1301 889 
Q 1547 409 2034 409 
Q 2525 409 2770 889 
Q 3016 1369 3016 2328 
Q 3016 3291 2770 3770 
Q 2525 4250 2034 4250 
z
M 2034 4750 
Q 2819 4750 3233 4129 
Q 3647 3509 3647 2328 
Q 3647 1150 3233 529 
Q 2819 -91 2034 -91 
Q 1250 -91 836 529 
Q 422 1150 422 2328 
Q 422 3509 836 4129 
Q 1250 4750 2034 4750 
z
" transform="scale(0.015625)"/>
      </defs>
      <use xlink:href="#DejaVuSans-30"/>
     </g>
    </g>
   </g>
   <g id="text_2">
    <g clip-path="url(#p004460ad65)">
     <!-- 1 -->
     <g transform="translate(36.805527 76.477793) scale(0.1 -0.1)">
      <defs>
       <path id="DejaVuSans-31" d="M 794 531 
L 1825 531 
L 1825 4091 
L 703 3866 
L 703 4441 
L 1819 4666 
L 2450 4666 
L 2450 531 
L 3481 531 
L 3481 0 
L 794 0 
L 794 531 
z
" transform="scale(0.015625)"/>
      </defs>
      <use xlink:href="#DejaVuSans-31"/>
     </g>
    </g>
   </g>
   <g id="text_3">
    <g clip-path="url(#p004460ad65)">
     <!-- 2 -->
     <g transform="translate(226.579724 318.369292) scale(0.1 -0.1)">
      <defs>
       <path id="DejaVuSans-32" d="M 1228 531 
L 3431 531 
L 3431 0 
L 469 0 
L 469 531 
Q 828 903 1448 1529 
Q 2069 2156 2228 2338 
Q 2531 2678 2651 2914 
Q 2772 3150 2772 3378 
Q 2772 3750 2511 3984 
Q 2250 4219 1831 4219 
Q 1534 4219 1204 4116 
Q 875 4013 500 3803 
L 500 4441 
Q 881 4594 1212 4672 
Q 1544 4750 1819 4750 
Q 2544 4750 2975 4387 
Q 3406 4025 3406 3419 
Q 3406 3131 3298 2873 
Q 3191 2616 2906 2266 
Q 2828 2175 2409 1742 
Q 1991 1309 1228 531 
z
" transform="scale(0.015625)"/>
      </defs>
      <use xlink:href="#DejaVuSans-32"/>
     </g>
    </g>
   </g>
   <g id="text_4">
    <g clip-path="url(#p004460ad65)">
     <!-- 3 -->
     <g transform="translate(417.631973 274.841117) scale(0.1 -0.1)">
      <defs>
       <path id="DejaVuSans-33" d="M 2597 2516 
Q 3050 2419 3304 2112 
Q 3559 1806 3559 1356 
Q 3559 666 3084 287 
Q 2609 -91 1734 -91 
Q 1441 -91 1130 -33 
Q 819 25 488 141 
L 488 750 
Q 750 597 1062 519 
Q 1375 441 1716 441 
Q 2309 441 2620 675 
Q 2931 909 2931 1356 
Q 2931 1769 2642 2001 
Q 2353 2234 1838 2234 
L 1294 2234 
L 1294 2753 
L 1863 2753 
Q 2328 2753 2575 2939 
Q 2822 3125 2822 3475 
Q 2822 3834 2567 4026 
Q 2313 4219 1838 4219 
Q 1578 4219 1281 4162 
Q 984 4106 628 3988 
L 628 4550 
Q 988 4650 1302 4700 
Q 1616 4750 1894 4750 
Q 2613 4750 3031 4423 
Q 3450 4097 3450 3541 
Q 3450 3153 3228 2886 
Q 3006 2619 2597 2516 
z
" transform="scale(0.015625)"/>
      </defs>
      <use xlink:href="#DejaVuSans-33"/>
     </g>
    </g>
   </g>
   <g id="text_5">
    <g clip-path="url(#p004460ad65)">
     <!-- 4 -->
     <g transform="translate(327.513889 152.80486) scale(0.1 -0.1)">
      <defs>
       <path id="DejaVuSans-34" d="M 2419 4116 
L 825 1625 
L 2419 1625 
L 2419 4116 
z
M 2253 4666 
L 3047 4666 
L 3047 1625 
L 3713 1625 
L 3713 1100 
L 3047 1100 
L 3047 0 
L 2419 0 
L 2419 1100 
L 313 1100 
L 313 1709 
L 2253 4666 
z
" transform="scale(0.015625)"/>
      </defs>
      <use xlink:href="#DejaVuSans-34"/>
     </g>
    </g>
   </g>
   <g id="text_6">
    <g clip-path="url(#p004460ad65)">
     <!-- 5 -->
     <g transform="translate(227.299781 32.749458) scale(0.1 -0.1)">
      <defs>
       <path id="DejaVuSans-35" d="M 691 4666 
L 3169 4666 
L 3169 4134 
L 1269 4134 
L 1269 2991 
Q 1406 3038 1543 3061 
Q 1681 3084 1819 3084 
Q 2600 3084 3056 2656 
Q 3513 2228 3513 1497 
Q 3513 744 3044 326 
Q 2575 -91 1722 -91 
Q 1428 -91 1123 -41 
Q 819 9 494 109 
L 494 744 
Q 775 591 1075 516 
Q 1375 441 1709 441 
Q 2250 441 2565 725 
Q 2881 1009 2881 1497 
Q 2881 1984 2565 2268 
Q 2250 2553 1709 2553 
Q 1456 2553 1204 2497 
Q 953 2441 691 2322 
L 691 4666 
z
" transform="scale(0.015625)"/>
      </defs>
      <use xlink:href="#DejaVuSans-35"/>
     </g>
    </g>
   </g>
  </g>
 </g>
 <defs>
  <clipPath id="p004460ad65">
   <rect x="0" y="0" width="460.8" height="345.6"/>
  </clipPath>
 </defs>
</svg>
