<?xml version="1.0" encoding="utf-8" standalone="no"?>
<!DOCTYPE svg PUBLIC "-//W3C//DTD SVG 1.1//EN"
  "http://www.w3.org/Graphics/SVG/1.1/DTD/svg11.dtd">
<svg xmlns:xlink="http://www.w3.org/1999/xlink" width="460.8pt" height="345.6pt" viewBox="0 0 460.8 345.6" xmlns="http://www.w3.org/2000/svg" version="1.1">
 <metadata>
  <rdf:RDF xmlns:dc="http://purl.org/dc/elements/1.1/" xmlns:cc="http://creativecommons.org/ns#" xmlns:rdf="http://www.w3.org/1999/02/22-rdf-syntax-ns#">
   <cc:Work>
    <dc:type rdf:resource="http://purl.org/dc/dcmitype/StillImage"/>
    <dc:date>2024-02-07T14:34:45.486973</dc:date>
    <dc:format>image/svg+xml</dc:format>
    <dc:creator>
     <cc:Agent>
      <dc:title>Matplotlib v3.8.0, https://matplotlib.org/</dc:title>
     </cc:Agent>
    </dc:creator>
   </cc:Work>
  </rdf:RDF>
 </metadata>
 <defs>
  <style type="text/css">*{stroke-linejoin: round; stroke-linecap: butt}</style>
 </defs>
 <g id="figure_1">
  <g id="patch_1">
   <path d="M 0 345.6 
L 460.8 345.6 
L 460.8 0 
L 0 0 
z
" style="fill: #ffffff"/>
  </g>
  <g id="axes_1">
   <g id="patch_2">
    <path d="M 228.24066 297.376666 
Q 323.561669 306.401897 417.769623 315.321742 
" clip-path="url(#p12d81c1bf9)" style="fill: none; stroke: #000000; stroke-linecap: round"/>
    <path d="M 413.975954 312.953603 
L 417.769623 315.321742 
L 413.598911 316.935793 
z
" clip-path="url(#p12d81c1bf9)" style="stroke: #000000; stroke-linecap: round"/>
   </g>
   <g id="patch_3">
    <path d="M 224.639941 296.217329 
Q 133.148773 242.841267 42.62331 190.028599 
" clip-path="url(#p12d81c1bf9)" style="fill: none; stroke: #000000; stroke-linecap: round"/>
    <path d="M 45.070493 193.771765 
L 42.62331 190.028599 
L 47.086153 190.316751 
z
" clip-path="url(#p12d81c1bf9)" style="stroke: #000000; stroke-linecap: round"/>
   </g>
   <g id="patch_4">
    <path d="M 227.399524 295.591572 
Q 275.761655 224.151081 323.497033 153.636429 
" clip-path="url(#p12d81c1bf9)" style="fill: none; stroke: #000000; stroke-linecap: round"/>
    <path d="M 319.598498 155.827644 
L 323.497033 153.636429 
L 322.910883 158.069987 
z
" clip-path="url(#p12d81c1bf9)" style="stroke: #000000; stroke-linecap: round"/>
   </g>
   <g id="patch_5">
    <path d="M 418.887112 315.427548 
Q 323.566102 306.402317 229.358149 297.482473 
" clip-path="url(#p12d81c1bf9)" style="fill: none; stroke: #000000; stroke-linecap: round"/>
    <path d="M 233.151817 299.850612 
L 229.358149 297.482473 
L 233.528861 295.868422 
z
" clip-path="url(#p12d81c1bf9)" style="stroke: #000000; stroke-linecap: round"/>
   </g>
   <g id="patch_6">
    <path d="M 419.840198 313.935679 
Q 373.010391 233.357798 326.742371 153.746558 
" clip-path="url(#p12d81c1bf9)" style="fill: none; stroke: #000000; stroke-linecap: round"/>
    <path d="M 327.023102 158.209874 
L 326.742371 153.746558 
L 330.481462 156.199964 
z
" clip-path="url(#p12d81c1bf9)" style="stroke: #000000; stroke-linecap: round"/>
   </g>
   <g id="patch_7">
    <path d="M 41.661384 189.46741 
Q 133.152553 242.843473 223.678016 295.656141 
" clip-path="url(#p12d81c1bf9)" style="fill: none; stroke: #000000; stroke-linecap: round"/>
    <path d="M 221.230832 291.912975 
L 223.678016 295.656141 
L 219.215173 295.367988 
z
" clip-path="url(#p12d81c1bf9)" style="stroke: #000000; stroke-linecap: round"/>
   </g>
   <g id="patch_8">
    <path d="M 41.072113 186.886961 
Q 93.628855 109.239334 145.558903 32.517587 
" clip-path="url(#p12d81c1bf9)" style="fill: none; stroke: #000000; stroke-linecap: round"/>
    <path d="M 141.66051 34.709055 
L 145.558903 32.517587 
L 144.973041 36.951182 
z
" clip-path="url(#p12d81c1bf9)" style="stroke: #000000; stroke-linecap: round"/>
   </g>
   <g id="patch_9">
    <path d="M 146.184339 31.593564 
Q 93.627597 109.241191 41.697549 185.962938 
" clip-path="url(#p12d81c1bf9)" style="fill: none; stroke: #000000; stroke-linecap: round"/>
    <path d="M 45.595942 183.77147 
L 41.697549 185.962938 
L 42.283411 181.529343 
z
" clip-path="url(#p12d81c1bf9)" style="stroke: #000000; stroke-linecap: round"/>
   </g>
   <g id="patch_10">
    <path d="M 148.86889 31.078619 
Q 236.238351 90.548344 322.683568 149.388964 
" clip-path="url(#p12d81c1bf9)" style="fill: none; stroke: #000000; stroke-linecap: round"/>
    <path d="M 320.502269 145.484872 
L 322.683568 149.388964 
L 318.251515 148.791548 
z
" clip-path="url(#p12d81c1bf9)" style="stroke: #000000; stroke-linecap: round"/>
   </g>
   <g id="patch_11">
    <path d="M 324.123823 152.710536 
Q 275.761692 224.151027 228.026314 294.665679 
" clip-path="url(#p12d81c1bf9)" style="fill: none; stroke: #000000; stroke-linecap: round"/>
    <path d="M 231.92485 292.474464 
L 228.026314 294.665679 
L 228.612464 290.232122 
z
" clip-path="url(#p12d81c1bf9)" style="stroke: #000000; stroke-linecap: round"/>
   </g>
   <g id="patch_12">
    <path d="M 323.609584 150.019274 
Q 236.240123 90.54955 149.794906 31.70893 
" clip-path="url(#p12d81c1bf9)" style="fill: none; stroke: #000000; stroke-linecap: round"/>
    <path d="M 151.976205 35.613022 
L 149.794906 31.70893 
L 154.226959 32.306345 
z
" clip-path="url(#p12d81c1bf9)" style="stroke: #000000; stroke-linecap: round"/>
   </g>
   <g id="patch_13">
    <path d="M 326.181823 152.78205 
Q 373.011631 233.35993 419.279651 312.97117 
" clip-path="url(#p12d81c1bf9)" style="fill: none; stroke: #000000; stroke-linecap: round"/>
    <path d="M 418.99892 308.507854 
L 419.279651 312.97117 
L 415.540559 310.517765 
z
" clip-path="url(#p12d81c1bf9)" style="stroke: #000000; stroke-linecap: round"/>
   </g>
   <g id="PathCollection_1">
    <defs>
     <path id="C0_0_16aaedc119" d="M 0 1.936492 
C 0.513564 1.936492 1.006162 1.732451 1.369306 1.369306 
C 1.732451 1.006162 1.936492 0.513564 1.936492 -0 
C 1.936492 -0.513564 1.732451 -1.006162 1.369306 -1.369306 
C 1.006162 -1.732451 0.513564 -1.936492 0 -1.936492 
C -0.513564 -1.936492 -1.006162 -1.732451 -1.369306 -1.369306 
C -1.732451 -1.006162 -1.936492 -0.513564 -1.936492 0 
C -1.936492 0.513564 -1.732451 1.006162 -1.369306 1.369306 
C -1.006162 1.732451 -0.513564 1.936492 0 1.936492 
z
"/>
    </defs>
    <g clip-path="url(#p12d81c1bf9)">
     <use xlink:href="#C0_0_16aaedc119" x="226.314549" y="297.194297" style="fill: #ff0000; stroke: #ff0000"/>
    </g>
    <g clip-path="url(#p12d81c1bf9)">
     <use xlink:href="#C0_0_16aaedc119" x="420.813223" y="315.609917" style="fill: #ff0000; stroke: #ff0000"/>
    </g>
    <g clip-path="url(#p12d81c1bf9)">
     <use xlink:href="#C0_0_16aaedc119" x="39.986777" y="188.490442" style="fill: #ff0000; stroke: #ff0000"/>
    </g>
    <g clip-path="url(#p12d81c1bf9)">
     <use xlink:href="#C0_0_16aaedc119" x="147.269675" y="29.990083" style="fill: #ff0000; stroke: #ff0000"/>
    </g>
    <g clip-path="url(#p12d81c1bf9)">
     <use xlink:href="#C0_0_16aaedc119" x="325.208799" y="151.107811" style="fill: #ff0000; stroke: #ff0000"/>
    </g>
   </g>
   <g id="text_1">
    <g clip-path="url(#p12d81c1bf9)">
     <!-- 0 -->
     <g transform="translate(223.133299 299.953672) scale(0.1 -0.1)">
      <defs>
       <path id="DejaVuSans-30" d="M 2034 4250 
Q 1547 4250 1301 3770 
Q 1056 3291 1056 2328 
Q 1056 1369 1301 889 
Q 1547 409 2034 409 
Q 2525 409 2770 889 
Q 3016 1369 3016 2328 
Q 3016 3291 2770 3770 
Q 2525 4250 2034 4250 
z
M 2034 4750 
Q 2819 4750 3233 4129 
Q 3647 3509 3647 2328 
Q 3647 1150 3233 529 
Q 2819 -91 2034 -91 
Q 1250 -91 836 529 
Q 422 1150 422 2328 
Q 422 3509 836 4129 
Q 1250 4750 2034 4750 
z
" transform="scale(0.015625)"/>
      </defs>
      <use xlink:href="#DejaVuSans-30"/>
     </g>
    </g>
   </g>
   <g id="text_2">
    <g clip-path="url(#p12d81c1bf9)">
     <!-- 1 -->
     <g transform="translate(417.631973 318.369292) scale(0.1 -0.1)">
      <defs>
       <path id="DejaVuSans-31" d="M 794 531 
L 1825 531 
L 1825 4091 
L 703 3866 
L 703 4441 
L 1819 4666 
L 2450 4666 
L 2450 531 
L 3481 531 
L 3481 0 
L 794 0 
L 794 531 
z
" transform="scale(0.015625)"/>
      </defs>
      <use xlink:href="#DejaVuSans-31"/>
     </g>
    </g>
   </g>
   <g id="text_3">
    <g clip-path="url(#p12d81c1bf9)">
     <!-- 2 -->
     <g transform="translate(36.805527 191.249817) scale(0.1 -0.1)">
      <defs>
       <path id="DejaVuSans-32" d="M 1228 531 
L 3431 531 
L 3431 0 
L 469 0 
L 469 531 
Q 828 903 1448 1529 
Q 2069 2156 2228 2338 
Q 2531 2678 2651 2914 
Q 2772 3150 2772 3378 
Q 2772 3750 2511 3984 
Q 2250 4219 1831 4219 
Q 1534 4219 1204 4116 
Q 875 4013 500 3803 
L 500 4441 
Q 881 4594 1212 4672 
Q 1544 4750 1819 4750 
Q 2544 4750 2975 4387 
Q 3406 4025 3406 3419 
Q 3406 3131 3298 2873 
Q 3191 2616 2906 2266 
Q 2828 2175 2409 1742 
Q 1991 1309 1228 531 
z
" transform="scale(0.015625)"/>
      </defs>
      <use xlink:href="#DejaVuSans-32"/>
     </g>
    </g>
   </g>
   <g id="text_4">
    <g clip-path="url(#p12d81c1bf9)">
     <!-- 3 -->
     <g transform="translate(144.088425 32.749458) scale(0.1 -0.1)">
      <defs>
       <path id="DejaVuSans-33" d="M 2597 2516 
Q 3050 2419 3304 2112 
Q 3559 1806 3559 1356 
Q 3559 666 3084 287 
Q 2609 -91 1734 -91 
Q 1441 -91 1130 -33 
Q 819 25 488 141 
L 488 750 
Q 750 597 1062 519 
Q 1375 441 1716 441 
Q 2309 441 2620 675 
Q 2931 909 2931 1356 
Q 2931 1769 2642 2001 
Q 2353 2234 1838 2234 
L 1294 2234 
L 1294 2753 
L 1863 2753 
Q 2328 2753 2575 2939 
Q 2822 3125 2822 3475 
Q 2822 3834 2567 4026 
Q 2313 4219 1838 4219 
Q 1578 4219 1281 4162 
Q 984 4106 628 3988 
L 628 4550 
Q 988 4650 1302 4700 
Q 1616 4750 1894 4750 
Q 2613 4750 3031 4423 
Q 3450 4097 3450 3541 
Q 3450 3153 3228 2886 
Q 3006 2619 2597 2516 
z
" transform="scale(0.015625)"/>
      </defs>
      <use xlink:href="#DejaVuSans-33"/>
     </g>
    </g>
   </g>
   <g id="text_5">
    <g clip-path="url(#p12d81c1bf9)">
     <!-- 4 -->
     <g transform="translate(322.027549 153.867186) scale(0.1 -0.1)">
      <defs>
       <path id="DejaVuSans-34" d="M 2419 4116 
L 825 1625 
L 2419 1625 
L 2419 4116 
z
M 2253 4666 
L 3047 4666 
L 3047 1625 
L 3713 1625 
L 3713 1100 
L 3047 1100 
L 3047 0 
L 2419 0 
L 2419 1100 
L 313 1100 
L 313 1709 
L 2253 4666 
z
" transform="scale(0.015625)"/>
      </defs>
      <use xlink:href="#DejaVuSans-34"/>
     </g>
    </g>
   </g>
  </g>
 </g>
 <defs>
  <clipPath id="p12d81c1bf9">
   <rect x="0" y="0" width="460.8" height="345.6"/>
  </clipPath>
 </defs>
</svg>
