<?xml version="1.0" encoding="utf-8" standalone="no"?>
<!DOCTYPE svg PUBLIC "-//W3C//DTD SVG 1.1//EN"
  "http://www.w3.org/Graphics/SVG/1.1/DTD/svg11.dtd">
<svg xmlns:xlink="http://www.w3.org/1999/xlink" width="460.8pt" height="345.6pt" viewBox="0 0 460.8 345.6" xmlns="http://www.w3.org/2000/svg" version="1.1">
 <metadata>
  <rdf:RDF xmlns:dc="http://purl.org/dc/elements/1.1/" xmlns:cc="http://creativecommons.org/ns#" xmlns:rdf="http://www.w3.org/1999/02/22-rdf-syntax-ns#">
   <cc:Work>
    <dc:type rdf:resource="http://purl.org/dc/dcmitype/StillImage"/>
    <dc:date>2024-02-07T13:48:24.089145</dc:date>
    <dc:format>image/svg+xml</dc:format>
    <dc:creator>
     <cc:Agent>
      <dc:title>Matplotlib v3.8.0, https://matplotlib.org/</dc:title>
     </cc:Agent>
    </dc:creator>
   </cc:Work>
  </rdf:RDF>
 </metadata>
 <defs>
  <style type="text/css">*{stroke-linejoin: round; stroke-linecap: butt}</style>
 </defs>
 <g id="figure_1">
  <g id="patch_1">
   <path d="M 0 345.6 
L 460.8 345.6 
L 460.8 0 
L 0 0 
z
" style="fill: #ffffff"/>
  </g>
  <g id="axes_1">
   <g id="patch_2">
    <path d="M 246.555419 160.742865 
Q 244.817679 141.340057 243.179673 123.050826 
" clip-path="url(#p317515533e)" style="fill: none; stroke: #000000; stroke-linecap: round"/>
    <path d="M 241.544463 127.213288 
L 243.179673 123.050826 
L 245.528516 126.856471 
z
" clip-path="url(#p317515533e)" style="stroke: #000000; stroke-linecap: round"/>
   </g>
   <g id="patch_3">
    <path d="M 248.662516 162.78725 
Q 271.448801 164.142437 293.119024 165.431247 
" clip-path="url(#p317515533e)" style="fill: none; stroke: #000000; stroke-linecap: round"/>
    <path d="M 289.244818 163.1973 
L 293.119024 165.431247 
L 289.007342 167.190244 
z
" clip-path="url(#p317515533e)" style="stroke: #000000; stroke-linecap: round"/>
   </g>
   <g id="patch_4">
    <path d="M 244.891774 163.276637 
Q 220.104314 171.434924 196.378846 179.243679 
" clip-path="url(#p317515533e)" style="fill: none; stroke: #000000; stroke-linecap: round"/>
    <path d="M 200.803608 179.892901 
L 196.378846 179.243679 
L 199.55308 176.093403 
z
" clip-path="url(#p317515533e)" style="stroke: #000000; stroke-linecap: round"/>
   </g>
   <g id="patch_5">
    <path d="M 246.636491 164.604789 
Q 245.947135 179.129271 245.310784 192.536977 
" clip-path="url(#p317515533e)" style="fill: none; stroke: #000000; stroke-linecap: round"/>
    <path d="M 247.498168 188.636291 
L 245.310784 192.536977 
L 243.502665 188.446658 
z
" clip-path="url(#p317515533e)" style="stroke: #000000; stroke-linecap: round"/>
   </g>
   <g id="patch_6">
    <path d="M 243.080407 121.942471 
Q 244.818147 141.34528 246.456154 159.634511 
" clip-path="url(#p317515533e)" style="fill: none; stroke: #000000; stroke-linecap: round"/>
    <path d="M 248.091364 155.472049 
L 246.456154 159.634511 
L 244.10731 155.828866 
z
" clip-path="url(#p317515533e)" style="stroke: #000000; stroke-linecap: round"/>
   </g>
   <g id="patch_7">
    <path d="M 242.632394 118.096785 
Q 239.848337 98.711457 237.223218 80.432809 
" clip-path="url(#p317515533e)" style="fill: none; stroke: #000000; stroke-linecap: round"/>
    <path d="M 235.812163 84.676501 
L 237.223218 80.432809 
L 239.771539 84.107868 
z
" clip-path="url(#p317515533e)" style="stroke: #000000; stroke-linecap: round"/>
   </g>
   <g id="patch_8">
    <path d="M 195.311143 179.595092 
Q 220.098602 171.436804 243.82407 163.62805 
" clip-path="url(#p317515533e)" style="fill: none; stroke: #000000; stroke-linecap: round"/>
    <path d="M 239.399309 162.978828 
L 243.82407 163.62805 
L 240.649836 166.778326 
z
" clip-path="url(#p317515533e)" style="stroke: #000000; stroke-linecap: round"/>
   </g>
   <g id="patch_9">
    <path d="M 192.538304 181.895408 
Q 180.538614 203.627755 169.079346 224.381356 
" clip-path="url(#p317515533e)" style="fill: none; stroke: #000000; stroke-linecap: round"/>
    <path d="M 172.763654 221.846425 
L 169.079346 224.381356 
L 169.261986 219.912951 
z
" clip-path="url(#p317515533e)" style="stroke: #000000; stroke-linecap: round"/>
   </g>
   <g id="patch_10">
    <path d="M 193.766187 178.284548 
Q 196.563991 159.903773 199.193553 142.628302 
" clip-path="url(#p317515533e)" style="fill: none; stroke: #000000; stroke-linecap: round"/>
    <path d="M 196.614405 146.281794 
L 199.193553 142.628302 
L 200.568857 146.883715 
z
" clip-path="url(#p317515533e)" style="stroke: #000000; stroke-linecap: round"/>
   </g>
   <g id="patch_11">
    <path d="M 199.361336 141.526012 
Q 196.563532 159.906786 193.933971 177.182257 
" clip-path="url(#p317515533e)" style="fill: none; stroke: #000000; stroke-linecap: round"/>
    <path d="M 196.513118 173.528766 
L 193.933971 177.182257 
L 192.558666 172.926844 
z
" clip-path="url(#p317515533e)" style="stroke: #000000; stroke-linecap: round"/>
   </g>
   <g id="patch_12">
    <path d="M 200.910129 138.137847 
Q 215.095177 121.517168 228.554427 105.746911 
" clip-path="url(#p317515533e)" style="fill: none; stroke: #000000; stroke-linecap: round"/>
    <path d="M 224.436451 107.491122 
L 228.554427 105.746911 
L 227.479011 110.087818 
z
" clip-path="url(#p317515533e)" style="stroke: #000000; stroke-linecap: round"/>
   </g>
   <g id="patch_13">
    <path d="M 384.318335 250.142709 
Q 359.600323 265.465591 335.83257 280.199401 
" clip-path="url(#p317515533e)" style="fill: none; stroke: #000000; stroke-linecap: round"/>
    <path d="M 340.286087 279.791745 
L 335.83257 280.199401 
L 338.178556 276.391993 
z
" clip-path="url(#p317515533e)" style="stroke: #000000; stroke-linecap: round"/>
   </g>
   <g id="patch_14">
    <path d="M 387.098209 247.558343 
Q 401.136953 228.209259 414.519121 209.765111 
" clip-path="url(#p317515533e)" style="fill: none; stroke: #000000; stroke-linecap: round"/>
    <path d="M 410.551285 211.828186 
L 414.519121 209.765111 
L 413.788879 214.177225 
z
" clip-path="url(#p317515533e)" style="stroke: #000000; stroke-linecap: round"/>
   </g>
   <g id="patch_15">
    <path d="M 415.176007 208.85975 
Q 401.137263 228.208833 387.755095 246.652981 
" clip-path="url(#p317515533e)" style="fill: none; stroke: #000000; stroke-linecap: round"/>
    <path d="M 391.722931 244.589907 
L 387.755095 246.652981 
L 388.485337 242.240868 
z
" clip-path="url(#p317515533e)" style="stroke: #000000; stroke-linecap: round"/>
   </g>
   <g id="patch_16">
    <path d="M 416.500805 205.366928 
Q 418.56239 184.37318 420.51471 164.492114 
" clip-path="url(#p317515533e)" style="fill: none; stroke: #000000; stroke-linecap: round"/>
    <path d="M 418.133365 168.277506 
L 420.51471 164.492114 
L 422.114217 168.668426 
z
" clip-path="url(#p317515533e)" style="stroke: #000000; stroke-linecap: round"/>
   </g>
   <g id="patch_17">
    <path d="M 229.279672 104.897138 
Q 215.094624 121.517817 201.635374 137.288075 
" clip-path="url(#p317515533e)" style="fill: none; stroke: #000000; stroke-linecap: round"/>
    <path d="M 205.75335 135.543863 
L 201.635374 137.288075 
L 202.71079 132.947167 
z
" clip-path="url(#p317515533e)" style="stroke: #000000; stroke-linecap: round"/>
   </g>
   <g id="patch_18">
    <path d="M 232.103975 102.288101 
Q 249.6097 89.598984 266.210192 77.566031 
" clip-path="url(#p317515533e)" style="fill: none; stroke: #000000; stroke-linecap: round"/>
    <path d="M 261.797746 78.294261 
L 266.210192 77.566031 
L 264.145309 81.532926 
z
" clip-path="url(#p317515533e)" style="stroke: #000000; stroke-linecap: round"/>
   </g>
   <g id="patch_19">
    <path d="M 267.118041 76.907971 
Q 249.612315 89.597088 233.011824 101.630042 
" clip-path="url(#p317515533e)" style="fill: none; stroke: #000000; stroke-linecap: round"/>
    <path d="M 237.42427 100.901811 
L 233.011824 101.630042 
L 235.076707 97.663146 
z
" clip-path="url(#p317515533e)" style="stroke: #000000; stroke-linecap: round"/>
   </g>
   <g id="patch_20">
    <path d="M 268.134336 73.912857 
Q 266.216384 67.437476 264.615949 62.034095 
" clip-path="url(#p317515533e)" style="fill: none; stroke: #000000; stroke-linecap: round"/>
    <path d="M 263.834281 66.437389 
L 264.615949 62.034095 
L 267.669583 65.301405 
z
" clip-path="url(#p317515533e)" style="stroke: #000000; stroke-linecap: round"/>
   </g>
   <g id="patch_21">
    <path d="M 420.623911 163.380093 
Q 418.562325 184.373841 416.610005 204.254907 
" clip-path="url(#p317515533e)" style="fill: none; stroke: #000000; stroke-linecap: round"/>
    <path d="M 418.991351 200.469515 
L 416.610005 204.254907 
L 415.010499 200.078596 
z
" clip-path="url(#p317515533e)" style="stroke: #000000; stroke-linecap: round"/>
   </g>
   <g id="patch_22">
    <path d="M 419.849069 159.770991 
Q 408.175277 139.414408 397.057674 120.027698 
" clip-path="url(#p317515533e)" style="fill: none; stroke: #000000; stroke-linecap: round"/>
    <path d="M 397.312593 124.492563 
L 397.057674 120.027698 
L 400.782517 122.502682 
z
" clip-path="url(#p317515533e)" style="stroke: #000000; stroke-linecap: round"/>
   </g>
   <g id="patch_23">
    <path d="M 396.502654 119.059862 
Q 408.176446 139.416445 419.294049 158.803156 
" clip-path="url(#p317515533e)" style="fill: none; stroke: #000000; stroke-linecap: round"/>
    <path d="M 419.03913 154.338291 
L 419.294049 158.803156 
L 415.569206 156.328172 
z
" clip-path="url(#p317515533e)" style="stroke: #000000; stroke-linecap: round"/>
   </g>
   <g id="patch_24">
    <path d="M 393.927953 116.297352 
Q 368.665761 99.337715 344.33182 83.001254 
" clip-path="url(#p317515533e)" style="fill: none; stroke: #000000; stroke-linecap: round"/>
    <path d="M 346.538061 86.891306 
L 344.33182 83.001254 
L 348.767606 83.570292 
z
" clip-path="url(#p317515533e)" style="stroke: #000000; stroke-linecap: round"/>
   </g>
   <g id="patch_25">
    <path d="M 294.234799 165.497607 
Q 271.448513 164.14242 249.77829 162.853609 
" clip-path="url(#p317515533e)" style="fill: none; stroke: #000000; stroke-linecap: round"/>
    <path d="M 253.652497 165.087557 
L 249.77829 162.853609 
L 253.889972 161.094613 
z
" clip-path="url(#p317515533e)" style="stroke: #000000; stroke-linecap: round"/>
   </g>
   <g id="patch_26">
    <path d="M 237.064535 79.327903 
Q 239.848592 98.71323 242.473711 116.991878 
" clip-path="url(#p317515533e)" style="fill: none; stroke: #000000; stroke-linecap: round"/>
    <path d="M 243.884766 112.748186 
L 242.473711 116.991878 
L 239.925391 113.316819 
z
" clip-path="url(#p317515533e)" style="stroke: #000000; stroke-linecap: round"/>
   </g>
   <g id="patch_27">
    <path d="M 238.392035 76.323437 
Q 250.270478 68.258887 261.223926 60.822338 
" clip-path="url(#p317515533e)" style="fill: none; stroke: #000000; stroke-linecap: round"/>
    <path d="M 256.791163 61.414459 
L 261.223926 60.822338 
L 259.037965 64.723821 
z
" clip-path="url(#p317515533e)" style="stroke: #000000; stroke-linecap: round"/>
   </g>
   <g id="patch_28">
    <path d="M 238.392035 76.323437 
Q 250.270478 68.258887 261.223926 60.822338 
" clip-path="url(#p317515533e)" style="fill: none; stroke: #000000; stroke-linecap: round"/>
    <path d="M 256.791163 61.414459 
L 261.223926 60.822338 
L 259.037965 64.723821 
z
" clip-path="url(#p317515533e)" style="stroke: #000000; stroke-linecap: round"/>
   </g>
   <g id="patch_29">
    <path d="M 235.293683 76.178948 
Q 224.560655 67.333425 214.690413 59.198958 
" clip-path="url(#p317515533e)" style="fill: none; stroke: #000000; stroke-linecap: round"/>
    <path d="M 216.505231 63.286308 
L 214.690413 59.198958 
L 219.049184 60.199513 
z
" clip-path="url(#p317515533e)" style="stroke: #000000; stroke-linecap: round"/>
   </g>
   <g id="patch_30">
    <path d="M 264.299922 60.967126 
Q 266.217874 67.442507 267.818309 72.845888 
" clip-path="url(#p317515533e)" style="fill: none; stroke: #000000; stroke-linecap: round"/>
    <path d="M 268.599976 68.442594 
L 267.818309 72.845888 
L 264.764674 69.578578 
z
" clip-path="url(#p317515533e)" style="stroke: #000000; stroke-linecap: round"/>
   </g>
   <g id="patch_31">
    <path d="M 262.146503 60.195979 
Q 250.26806 68.260529 239.314612 75.697078 
" clip-path="url(#p317515533e)" style="fill: none; stroke: #000000; stroke-linecap: round"/>
    <path d="M 243.747376 75.104957 
L 239.314612 75.697078 
L 241.500573 71.795595 
z
" clip-path="url(#p317515533e)" style="stroke: #000000; stroke-linecap: round"/>
   </g>
   <g id="patch_32">
    <path d="M 262.146503 60.195979 
Q 250.26806 68.260529 239.314612 75.697078 
" clip-path="url(#p317515533e)" style="fill: none; stroke: #000000; stroke-linecap: round"/>
    <path d="M 243.747376 75.104957 
L 239.314612 75.697078 
L 241.500573 71.795595 
z
" clip-path="url(#p317515533e)" style="stroke: #000000; stroke-linecap: round"/>
   </g>
   <g id="patch_33">
    <path d="M 265.611806 59.63745 
Q 302.771957 70.203308 338.856699 80.463392 
" clip-path="url(#p317515533e)" style="fill: none; stroke: #000000; stroke-linecap: round"/>
    <path d="M 335.556188 77.445673 
L 338.856699 80.463392 
L 334.462218 81.29317 
z
" clip-path="url(#p317515533e)" style="stroke: #000000; stroke-linecap: round"/>
   </g>
   <g id="patch_34">
    <path d="M 262.268322 57.858479 
Q 246.492902 44.54938 231.572025 31.961225 
" clip-path="url(#p317515533e)" style="fill: none; stroke: #000000; stroke-linecap: round"/>
    <path d="M 233.339664 36.0692 
L 231.572025 31.961225 
L 235.918987 33.011899 
z
" clip-path="url(#p317515533e)" style="stroke: #000000; stroke-linecap: round"/>
   </g>
   <g id="patch_35">
    <path d="M 261.812983 59.038146 
Q 238.04128 58.182299 215.386887 57.366678 
" clip-path="url(#p317515533e)" style="fill: none; stroke: #000000; stroke-linecap: round"/>
    <path d="M 219.312339 59.509301 
L 215.386887 57.366678 
L 219.456256 55.511891 
z
" clip-path="url(#p317515533e)" style="stroke: #000000; stroke-linecap: round"/>
   </g>
   <g id="patch_36">
    <path d="M 343.407288 82.380575 
Q 368.66948 99.340212 393.003421 115.676673 
" clip-path="url(#p317515533e)" style="fill: none; stroke: #000000; stroke-linecap: round"/>
    <path d="M 390.79718 111.786621 
L 393.003421 115.676673 
L 388.567635 115.107635 
z
" clip-path="url(#p317515533e)" style="stroke: #000000; stroke-linecap: round"/>
   </g>
   <g id="patch_37">
    <path d="M 339.934157 80.769749 
Q 302.774006 70.203891 266.689264 59.943807 
" clip-path="url(#p317515533e)" style="fill: none; stroke: #000000; stroke-linecap: round"/>
    <path d="M 269.989775 62.961525 
L 266.689264 59.943807 
L 271.083745 59.114029 
z
" clip-path="url(#p317515533e)" style="stroke: #000000; stroke-linecap: round"/>
   </g>
   <g id="patch_38">
    <path d="M 230.716508 31.23946 
Q 246.491927 44.548558 261.412805 57.136713 
" clip-path="url(#p317515533e)" style="fill: none; stroke: #000000; stroke-linecap: round"/>
    <path d="M 259.645166 53.028739 
L 261.412805 57.136713 
L 257.065842 56.08604 
z
" clip-path="url(#p317515533e)" style="stroke: #000000; stroke-linecap: round"/>
   </g>
   <g id="patch_39">
    <path d="M 213.829409 58.48937 
Q 224.562437 67.334893 234.432679 75.46936 
" clip-path="url(#p317515533e)" style="fill: none; stroke: #000000; stroke-linecap: round"/>
    <path d="M 232.617861 71.38201 
L 234.432679 75.46936 
L 230.073908 74.468805 
z
" clip-path="url(#p317515533e)" style="stroke: #000000; stroke-linecap: round"/>
   </g>
   <g id="patch_40">
    <path d="M 214.270014 57.326468 
Q 238.041717 58.182315 260.69611 58.997935 
" clip-path="url(#p317515533e)" style="fill: none; stroke: #000000; stroke-linecap: round"/>
    <path d="M 256.770659 56.855312 
L 260.69611 58.997935 
L 256.626741 60.852723 
z
" clip-path="url(#p317515533e)" style="stroke: #000000; stroke-linecap: round"/>
   </g>
   <g id="patch_41">
    <path d="M 210.014881 216.412245 
Q 226.755886 206.493744 242.535003 197.145131 
" clip-path="url(#p317515533e)" style="fill: none; stroke: #000000; stroke-linecap: round"/>
    <path d="M 238.074203 197.463345 
L 242.535003 197.145131 
L 240.113093 200.9047 
z
" clip-path="url(#p317515533e)" style="stroke: #000000; stroke-linecap: round"/>
   </g>
   <g id="patch_42">
    <path d="M 206.467138 217.844922 
Q 187.976753 222.226911 170.574269 226.35108 
" clip-path="url(#p317515533e)" style="fill: none; stroke: #000000; stroke-linecap: round"/>
    <path d="M 174.927664 227.374776 
L 170.574269 226.35108 
L 174.005263 223.482582 
z
" clip-path="url(#p317515533e)" style="stroke: #000000; stroke-linecap: round"/>
   </g>
   <g id="patch_43">
    <path d="M 245.25778 193.653739 
Q 245.947136 179.129256 246.583487 165.72155 
" clip-path="url(#p317515533e)" style="fill: none; stroke: #000000; stroke-linecap: round"/>
    <path d="M 244.396103 169.622236 
L 246.583487 165.72155 
L 248.391605 169.811869 
z
" clip-path="url(#p317515533e)" style="stroke: #000000; stroke-linecap: round"/>
   </g>
   <g id="patch_44">
    <path d="M 243.500966 196.57283 
Q 226.759961 206.49133 210.980843 215.839943 
" clip-path="url(#p317515533e)" style="fill: none; stroke: #000000; stroke-linecap: round"/>
    <path d="M 215.441644 215.52173 
L 210.980843 215.839943 
L 213.402753 212.080375 
z
" clip-path="url(#p317515533e)" style="stroke: #000000; stroke-linecap: round"/>
   </g>
   <g id="patch_45">
    <path d="M 184.763463 302.360096 
Q 160.250894 308.741182 136.8203 314.84061 
" clip-path="url(#p317515533e)" style="fill: none; stroke: #000000; stroke-linecap: round"/>
    <path d="M 141.195135 315.768413 
L 136.8203 314.84061 
L 140.187443 311.897423 
z
" clip-path="url(#p317515533e)" style="stroke: #000000; stroke-linecap: round"/>
   </g>
   <g id="patch_46">
    <path d="M 185.020294 300.800378 
Q 165.336841 287.723423 146.584637 275.265155 
" clip-path="url(#p317515533e)" style="fill: none; stroke: #000000; stroke-linecap: round"/>
    <path d="M 148.809635 279.144509 
L 146.584637 275.265155 
L 151.023119 275.812769 
z
" clip-path="url(#p317515533e)" style="stroke: #000000; stroke-linecap: round"/>
   </g>
   <g id="patch_47">
    <path d="M 188.571821 301.83708 
Q 225.245476 301.157697 260.801289 300.499023 
" clip-path="url(#p317515533e)" style="fill: none; stroke: #000000; stroke-linecap: round"/>
    <path d="M 256.764931 298.573454 
L 260.801289 300.499023 
L 256.839019 302.572767 
z
" clip-path="url(#p317515533e)" style="stroke: #000000; stroke-linecap: round"/>
   </g>
   <g id="patch_48">
    <path d="M 135.736339 315.122785 
Q 160.248908 308.741699 183.679503 302.642272 
" clip-path="url(#p317515533e)" style="fill: none; stroke: #000000; stroke-linecap: round"/>
    <path d="M 179.304668 301.714469 
L 183.679503 302.642272 
L 180.312359 305.585458 
z
" clip-path="url(#p317515533e)" style="stroke: #000000; stroke-linecap: round"/>
   </g>
   <g id="patch_49">
    <path d="M 132.060694 314.913274 
Q 113.701555 307.824998 96.385411 301.139412 
" clip-path="url(#p317515533e)" style="fill: none; stroke: #000000; stroke-linecap: round"/>
    <path d="M 99.396593 304.445888 
L 96.385411 301.139412 
L 100.837301 300.714352 
z
" clip-path="url(#p317515533e)" style="stroke: #000000; stroke-linecap: round"/>
   </g>
   <g id="patch_50">
    <path d="M 95.338487 300.735205 
Q 113.697626 307.823481 131.01377 314.509067 
" clip-path="url(#p317515533e)" style="fill: none; stroke: #000000; stroke-linecap: round"/>
    <path d="M 128.002588 311.202591 
L 131.01377 314.509067 
L 126.56188 314.934127 
z
" clip-path="url(#p317515533e)" style="stroke: #000000; stroke-linecap: round"/>
   </g>
   <g id="patch_51">
    <path d="M 91.635265 300.422764 
Q 66.761462 305.455543 42.983486 310.2666 
" clip-path="url(#p317515533e)" style="fill: none; stroke: #000000; stroke-linecap: round"/>
    <path d="M 47.300668 311.433622 
L 42.983486 310.2666 
L 46.507413 307.513068 
z
" clip-path="url(#p317515533e)" style="stroke: #000000; stroke-linecap: round"/>
   </g>
   <g id="patch_52">
    <path d="M 95.251161 299.13888 
Q 118.78652 286.806918 141.331557 274.993861 
" clip-path="url(#p317515533e)" style="fill: none; stroke: #000000; stroke-linecap: round"/>
    <path d="M 136.860228 275.07881 
L 141.331557 274.993861 
L 138.716718 278.621894 
z
" clip-path="url(#p317515533e)" style="stroke: #000000; stroke-linecap: round"/>
   </g>
   <g id="patch_53">
    <path d="M 41.885642 310.48873 
Q 66.759446 305.455951 90.537421 300.644894 
" clip-path="url(#p317515533e)" style="fill: none; stroke: #000000; stroke-linecap: round"/>
    <path d="M 86.220239 299.477872 
L 90.537421 300.644894 
L 87.013495 303.398426 
z
" clip-path="url(#p317515533e)" style="stroke: #000000; stroke-linecap: round"/>
   </g>
   <g id="patch_54">
    <path d="M 145.654551 274.64724 
Q 165.338004 287.724195 184.090208 300.182463 
" clip-path="url(#p317515533e)" style="fill: none; stroke: #000000; stroke-linecap: round"/>
    <path d="M 181.86521 296.303109 
L 184.090208 300.182463 
L 179.651726 299.634849 
z
" clip-path="url(#p317515533e)" style="stroke: #000000; stroke-linecap: round"/>
   </g>
   <g id="patch_55">
    <path d="M 142.323062 274.474336 
Q 118.787704 286.806298 96.242667 298.619354 
" clip-path="url(#p317515533e)" style="fill: none; stroke: #000000; stroke-linecap: round"/>
    <path d="M 100.713996 298.534406 
L 96.242667 298.619354 
L 98.857505 294.991322 
z
" clip-path="url(#p317515533e)" style="stroke: #000000; stroke-linecap: round"/>
   </g>
   <g id="patch_56">
    <path d="M 144.915933 271.845509 
Q 155.822559 250.312887 166.223993 229.777652 
" clip-path="url(#p317515533e)" style="fill: none; stroke: #000000; stroke-linecap: round"/>
    <path d="M 162.632381 232.442295 
L 166.223993 229.777652 
L 166.20074 234.249727 
z
" clip-path="url(#p317515533e)" style="stroke: #000000; stroke-linecap: round"/>
   </g>
   <g id="patch_57">
    <path d="M 261.916487 300.478364 
Q 225.242832 301.157746 189.687019 301.816421 
" clip-path="url(#p317515533e)" style="fill: none; stroke: #000000; stroke-linecap: round"/>
    <path d="M 193.723377 303.74199 
L 189.687019 301.816421 
L 193.649289 299.742676 
z
" clip-path="url(#p317515533e)" style="stroke: #000000; stroke-linecap: round"/>
   </g>
   <g id="patch_58">
    <path d="M 265.721178 299.940877 
Q 298.546851 291.124616 330.292755 282.598357 
" clip-path="url(#p317515533e)" style="fill: none; stroke: #000000; stroke-linecap: round"/>
    <path d="M 325.910888 281.704352 
L 330.292755 282.598357 
L 326.948432 285.567447 
z
" clip-path="url(#p317515533e)" style="stroke: #000000; stroke-linecap: round"/>
   </g>
   <g id="patch_59">
    <path d="M 334.883716 280.787603 
Q 359.601728 265.46472 383.369481 250.730911 
" clip-path="url(#p317515533e)" style="fill: none; stroke: #000000; stroke-linecap: round"/>
    <path d="M 378.915963 251.138567 
L 383.369481 250.730911 
L 381.023495 254.538318 
z
" clip-path="url(#p317515533e)" style="stroke: #000000; stroke-linecap: round"/>
   </g>
   <g id="patch_60">
    <path d="M 331.371705 282.308574 
Q 298.546033 291.124835 266.800128 299.651094 
" clip-path="url(#p317515533e)" style="fill: none; stroke: #000000; stroke-linecap: round"/>
    <path d="M 271.181995 300.545098 
L 266.800128 299.651094 
L 270.144451 296.682003 
z
" clip-path="url(#p317515533e)" style="stroke: #000000; stroke-linecap: round"/>
   </g>
   <g id="patch_61">
    <path d="M 168.539333 225.35936 
Q 180.539023 203.627014 191.998291 182.873413 
" clip-path="url(#p317515533e)" style="fill: none; stroke: #000000; stroke-linecap: round"/>
    <path d="M 188.313983 185.408344 
L 191.998291 182.873413 
L 191.81565 187.341818 
z
" clip-path="url(#p317515533e)" style="stroke: #000000; stroke-linecap: round"/>
   </g>
   <g id="patch_62">
    <path d="M 169.485586 226.609085 
Q 187.975971 222.227096 205.378454 218.102926 
" clip-path="url(#p317515533e)" style="fill: none; stroke: #000000; stroke-linecap: round"/>
    <path d="M 201.02506 217.07923 
L 205.378454 218.102926 
L 201.947461 220.971424 
z
" clip-path="url(#p317515533e)" style="stroke: #000000; stroke-linecap: round"/>
   </g>
   <g id="patch_63">
    <path d="M 166.727094 228.784395 
Q 155.820467 250.317017 145.419034 270.852252 
" clip-path="url(#p317515533e)" style="fill: none; stroke: #000000; stroke-linecap: round"/>
    <path d="M 149.010646 268.187609 
L 145.419034 270.852252 
L 145.442287 266.380176 
z
" clip-path="url(#p317515533e)" style="stroke: #000000; stroke-linecap: round"/>
   </g>
   <g id="PathCollection_1">
    <defs>
     <path id="ma38649aa57" d="M 0 1.936492 
C 0.513564 1.936492 1.006162 1.732451 1.369306 1.369306 
C 1.732451 1.006162 1.936492 0.513564 1.936492 0 
C 1.936492 -0.513564 1.732451 -1.006162 1.369306 -1.369306 
C 1.006162 -1.732451 0.513564 -1.936492 0 -1.936492 
C -0.513564 -1.936492 -1.006162 -1.732451 -1.369306 -1.369306 
C -1.732451 -1.006162 -1.936492 -0.513564 -1.936492 0 
C -1.936492 0.513564 -1.732451 1.006162 -1.369306 1.369306 
C -1.006162 1.732451 -0.513564 1.936492 0 1.936492 
z
" style="stroke: #1f78b4"/>
    </defs>
    <g clip-path="url(#p317515533e)">
     <use xlink:href="#ma38649aa57" x="246.728214" y="162.67221" style="fill: #1f78b4; stroke: #1f78b4"/>
     <use xlink:href="#ma38649aa57" x="242.907613" y="120.013127" style="fill: #1f78b4; stroke: #1f78b4"/>
     <use xlink:href="#ma38649aa57" x="193.474702" y="180.199519" style="fill: #1f78b4; stroke: #1f78b4"/>
     <use xlink:href="#ma38649aa57" x="199.652821" y="139.61104" style="fill: #1f78b4; stroke: #1f78b4"/>
     <use xlink:href="#ma38649aa57" x="385.962723" y="249.12334" style="fill: #1f78b4; stroke: #1f78b4"/>
     <use xlink:href="#ma38649aa57" x="416.311493" y="207.294752" style="fill: #1f78b4; stroke: #1f78b4"/>
     <use xlink:href="#ma38649aa57" x="230.53698" y="103.423945" style="fill: #1f78b4; stroke: #1f78b4"/>
     <use xlink:href="#ma38649aa57" x="268.685036" y="75.772127" style="fill: #1f78b4; stroke: #1f78b4"/>
     <use xlink:href="#ma38649aa57" x="420.813223" y="161.452269" style="fill: #1f78b4; stroke: #1f78b4"/>
     <use xlink:href="#ma38649aa57" x="395.5385" y="117.378584" style="fill: #1f78b4; stroke: #1f78b4"/>
     <use xlink:href="#ma38649aa57" x="296.169101" y="165.612647" style="fill: #1f78b4; stroke: #1f78b4"/>
     <use xlink:href="#ma38649aa57" x="236.789316" y="77.41156" style="fill: #1f78b4; stroke: #1f78b4"/>
     <use xlink:href="#ma38649aa57" x="263.749222" y="59.107856" style="fill: #1f78b4; stroke: #1f78b4"/>
     <use xlink:href="#ma38649aa57" x="341.796741" y="81.299343" style="fill: #1f78b4; stroke: #1f78b4"/>
     <use xlink:href="#ma38649aa57" x="229.235608" y="29.990083" style="fill: #1f78b4; stroke: #1f78b4"/>
     <use xlink:href="#ma38649aa57" x="212.333776" y="57.256758" style="fill: #1f78b4; stroke: #1f78b4"/>
     <use xlink:href="#ma38649aa57" x="208.34979" y="217.398757" style="fill: #1f78b4; stroke: #1f78b4"/>
     <use xlink:href="#ma38649aa57" x="245.166057" y="195.586318" style="fill: #1f78b4; stroke: #1f78b4"/>
     <use xlink:href="#ma38649aa57" x="186.634752" y="301.872964" style="fill: #1f78b4; stroke: #1f78b4"/>
     <use xlink:href="#ma38649aa57" x="133.86505" y="315.609917" style="fill: #1f78b4; stroke: #1f78b4"/>
     <use xlink:href="#ma38649aa57" x="93.534131" y="300.038562" style="fill: #1f78b4; stroke: #1f78b4"/>
     <use xlink:href="#ma38649aa57" x="39.986777" y="310.872932" style="fill: #1f78b4; stroke: #1f78b4"/>
     <use xlink:href="#ma38649aa57" x="144.040093" y="273.574654" style="fill: #1f78b4; stroke: #1f78b4"/>
     <use xlink:href="#ma38649aa57" x="263.853556" y="300.442479" style="fill: #1f78b4; stroke: #1f78b4"/>
     <use xlink:href="#ma38649aa57" x="333.239327" y="281.806972" style="fill: #1f78b4; stroke: #1f78b4"/>
     <use xlink:href="#ma38649aa57" x="167.602934" y="227.05525" style="fill: #1f78b4; stroke: #1f78b4"/>
    </g>
   </g>
   <g id="text_1">
    <g clip-path="url(#p317515533e)">
     <!-- 0 -->
     <g transform="translate(243.546964 165.431585) scale(0.1 -0.1)">
      <defs>
       <path id="DejaVuSans-30" d="M 2034 4250 
Q 1547 4250 1301 3770 
Q 1056 3291 1056 2328 
Q 1056 1369 1301 889 
Q 1547 409 2034 409 
Q 2525 409 2770 889 
Q 3016 1369 3016 2328 
Q 3016 3291 2770 3770 
Q 2525 4250 2034 4250 
z
M 2034 4750 
Q 2819 4750 3233 4129 
Q 3647 3509 3647 2328 
Q 3647 1150 3233 529 
Q 2819 -91 2034 -91 
Q 1250 -91 836 529 
Q 422 1150 422 2328 
Q 422 3509 836 4129 
Q 1250 4750 2034 4750 
z
" transform="scale(0.015625)"/>
      </defs>
      <use xlink:href="#DejaVuSans-30"/>
     </g>
    </g>
   </g>
   <g id="text_2">
    <g clip-path="url(#p317515533e)">
     <!-- 1 -->
     <g transform="translate(239.726363 122.772502) scale(0.1 -0.1)">
      <defs>
       <path id="DejaVuSans-31" d="M 794 531 
L 1825 531 
L 1825 4091 
L 703 3866 
L 703 4441 
L 1819 4666 
L 2450 4666 
L 2450 531 
L 3481 531 
L 3481 0 
L 794 0 
L 794 531 
z
" transform="scale(0.015625)"/>
      </defs>
      <use xlink:href="#DejaVuSans-31"/>
     </g>
    </g>
   </g>
   <g id="text_3">
    <g clip-path="url(#p317515533e)">
     <!-- 2 -->
     <g transform="translate(190.293452 182.958894) scale(0.1 -0.1)">
      <defs>
       <path id="DejaVuSans-32" d="M 1228 531 
L 3431 531 
L 3431 0 
L 469 0 
L 469 531 
Q 828 903 1448 1529 
Q 2069 2156 2228 2338 
Q 2531 2678 2651 2914 
Q 2772 3150 2772 3378 
Q 2772 3750 2511 3984 
Q 2250 4219 1831 4219 
Q 1534 4219 1204 4116 
Q 875 4013 500 3803 
L 500 4441 
Q 881 4594 1212 4672 
Q 1544 4750 1819 4750 
Q 2544 4750 2975 4387 
Q 3406 4025 3406 3419 
Q 3406 3131 3298 2873 
Q 3191 2616 2906 2266 
Q 2828 2175 2409 1742 
Q 1991 1309 1228 531 
z
" transform="scale(0.015625)"/>
      </defs>
      <use xlink:href="#DejaVuSans-32"/>
     </g>
    </g>
   </g>
   <g id="text_4">
    <g clip-path="url(#p317515533e)">
     <!-- 3 -->
     <g transform="translate(196.471571 142.370415) scale(0.1 -0.1)">
      <defs>
       <path id="DejaVuSans-33" d="M 2597 2516 
Q 3050 2419 3304 2112 
Q 3559 1806 3559 1356 
Q 3559 666 3084 287 
Q 2609 -91 1734 -91 
Q 1441 -91 1130 -33 
Q 819 25 488 141 
L 488 750 
Q 750 597 1062 519 
Q 1375 441 1716 441 
Q 2309 441 2620 675 
Q 2931 909 2931 1356 
Q 2931 1769 2642 2001 
Q 2353 2234 1838 2234 
L 1294 2234 
L 1294 2753 
L 1863 2753 
Q 2328 2753 2575 2939 
Q 2822 3125 2822 3475 
Q 2822 3834 2567 4026 
Q 2313 4219 1838 4219 
Q 1578 4219 1281 4162 
Q 984 4106 628 3988 
L 628 4550 
Q 988 4650 1302 4700 
Q 1616 4750 1894 4750 
Q 2613 4750 3031 4423 
Q 3450 4097 3450 3541 
Q 3450 3153 3228 2886 
Q 3006 2619 2597 2516 
z
" transform="scale(0.015625)"/>
      </defs>
      <use xlink:href="#DejaVuSans-33"/>
     </g>
    </g>
   </g>
   <g id="text_5">
    <g clip-path="url(#p317515533e)">
     <!-- 4 -->
     <g transform="translate(382.781473 251.882715) scale(0.1 -0.1)">
      <defs>
       <path id="DejaVuSans-34" d="M 2419 4116 
L 825 1625 
L 2419 1625 
L 2419 4116 
z
M 2253 4666 
L 3047 4666 
L 3047 1625 
L 3713 1625 
L 3713 1100 
L 3047 1100 
L 3047 0 
L 2419 0 
L 2419 1100 
L 313 1100 
L 313 1709 
L 2253 4666 
z
" transform="scale(0.015625)"/>
      </defs>
      <use xlink:href="#DejaVuSans-34"/>
     </g>
    </g>
   </g>
   <g id="text_6">
    <g clip-path="url(#p317515533e)">
     <!-- 5 -->
     <g transform="translate(413.130243 210.054127) scale(0.1 -0.1)">
      <defs>
       <path id="DejaVuSans-35" d="M 691 4666 
L 3169 4666 
L 3169 4134 
L 1269 4134 
L 1269 2991 
Q 1406 3038 1543 3061 
Q 1681 3084 1819 3084 
Q 2600 3084 3056 2656 
Q 3513 2228 3513 1497 
Q 3513 744 3044 326 
Q 2575 -91 1722 -91 
Q 1428 -91 1123 -41 
Q 819 9 494 109 
L 494 744 
Q 775 591 1075 516 
Q 1375 441 1709 441 
Q 2250 441 2565 725 
Q 2881 1009 2881 1497 
Q 2881 1984 2565 2268 
Q 2250 2553 1709 2553 
Q 1456 2553 1204 2497 
Q 953 2441 691 2322 
L 691 4666 
z
" transform="scale(0.015625)"/>
      </defs>
      <use xlink:href="#DejaVuSans-35"/>
     </g>
    </g>
   </g>
   <g id="text_7">
    <g clip-path="url(#p317515533e)">
     <!-- 6 -->
     <g transform="translate(227.35573 106.18332) scale(0.1 -0.1)">
      <defs>
       <path id="DejaVuSans-36" d="M 2113 2584 
Q 1688 2584 1439 2293 
Q 1191 2003 1191 1497 
Q 1191 994 1439 701 
Q 1688 409 2113 409 
Q 2538 409 2786 701 
Q 3034 994 3034 1497 
Q 3034 2003 2786 2293 
Q 2538 2584 2113 2584 
z
M 3366 4563 
L 3366 3988 
Q 3128 4100 2886 4159 
Q 2644 4219 2406 4219 
Q 1781 4219 1451 3797 
Q 1122 3375 1075 2522 
Q 1259 2794 1537 2939 
Q 1816 3084 2150 3084 
Q 2853 3084 3261 2657 
Q 3669 2231 3669 1497 
Q 3669 778 3244 343 
Q 2819 -91 2113 -91 
Q 1303 -91 875 529 
Q 447 1150 447 2328 
Q 447 3434 972 4092 
Q 1497 4750 2381 4750 
Q 2619 4750 2861 4703 
Q 3103 4656 3366 4563 
z
" transform="scale(0.015625)"/>
      </defs>
      <use xlink:href="#DejaVuSans-36"/>
     </g>
    </g>
   </g>
   <g id="text_8">
    <g clip-path="url(#p317515533e)">
     <!-- 7 -->
     <g transform="translate(265.503786 78.531502) scale(0.1 -0.1)">
      <defs>
       <path id="DejaVuSans-37" d="M 525 4666 
L 3525 4666 
L 3525 4397 
L 1831 0 
L 1172 0 
L 2766 4134 
L 525 4134 
L 525 4666 
z
" transform="scale(0.015625)"/>
      </defs>
      <use xlink:href="#DejaVuSans-37"/>
     </g>
    </g>
   </g>
   <g id="text_9">
    <g clip-path="url(#p317515533e)">
     <!-- 8 -->
     <g transform="translate(417.631973 164.211644) scale(0.1 -0.1)">
      <defs>
       <path id="DejaVuSans-38" d="M 2034 2216 
Q 1584 2216 1326 1975 
Q 1069 1734 1069 1313 
Q 1069 891 1326 650 
Q 1584 409 2034 409 
Q 2484 409 2743 651 
Q 3003 894 3003 1313 
Q 3003 1734 2745 1975 
Q 2488 2216 2034 2216 
z
M 1403 2484 
Q 997 2584 770 2862 
Q 544 3141 544 3541 
Q 544 4100 942 4425 
Q 1341 4750 2034 4750 
Q 2731 4750 3128 4425 
Q 3525 4100 3525 3541 
Q 3525 3141 3298 2862 
Q 3072 2584 2669 2484 
Q 3125 2378 3379 2068 
Q 3634 1759 3634 1313 
Q 3634 634 3220 271 
Q 2806 -91 2034 -91 
Q 1263 -91 848 271 
Q 434 634 434 1313 
Q 434 1759 690 2068 
Q 947 2378 1403 2484 
z
M 1172 3481 
Q 1172 3119 1398 2916 
Q 1625 2713 2034 2713 
Q 2441 2713 2670 2916 
Q 2900 3119 2900 3481 
Q 2900 3844 2670 4047 
Q 2441 4250 2034 4250 
Q 1625 4250 1398 4047 
Q 1172 3844 1172 3481 
z
" transform="scale(0.015625)"/>
      </defs>
      <use xlink:href="#DejaVuSans-38"/>
     </g>
    </g>
   </g>
   <g id="text_10">
    <g clip-path="url(#p317515533e)">
     <!-- 9 -->
     <g transform="translate(392.35725 120.137959) scale(0.1 -0.1)">
      <defs>
       <path id="DejaVuSans-39" d="M 703 97 
L 703 672 
Q 941 559 1184 500 
Q 1428 441 1663 441 
Q 2288 441 2617 861 
Q 2947 1281 2994 2138 
Q 2813 1869 2534 1725 
Q 2256 1581 1919 1581 
Q 1219 1581 811 2004 
Q 403 2428 403 3163 
Q 403 3881 828 4315 
Q 1253 4750 1959 4750 
Q 2769 4750 3195 4129 
Q 3622 3509 3622 2328 
Q 3622 1225 3098 567 
Q 2575 -91 1691 -91 
Q 1453 -91 1209 -44 
Q 966 3 703 97 
z
M 1959 2075 
Q 2384 2075 2632 2365 
Q 2881 2656 2881 3163 
Q 2881 3666 2632 3958 
Q 2384 4250 1959 4250 
Q 1534 4250 1286 3958 
Q 1038 3666 1038 3163 
Q 1038 2656 1286 2365 
Q 1534 2075 1959 2075 
z
" transform="scale(0.015625)"/>
      </defs>
      <use xlink:href="#DejaVuSans-39"/>
     </g>
    </g>
   </g>
   <g id="text_11">
    <g clip-path="url(#p317515533e)">
     <!-- 10 -->
     <g transform="translate(289.806601 168.372022) scale(0.1 -0.1)">
      <use xlink:href="#DejaVuSans-31"/>
      <use xlink:href="#DejaVuSans-30" x="63.623047"/>
     </g>
    </g>
   </g>
   <g id="text_12">
    <g clip-path="url(#p317515533e)">
     <!-- 11 -->
     <g transform="translate(230.426816 80.170935) scale(0.1 -0.1)">
      <use xlink:href="#DejaVuSans-31"/>
      <use xlink:href="#DejaVuSans-31" x="63.623047"/>
     </g>
    </g>
   </g>
   <g id="text_13">
    <g clip-path="url(#p317515533e)">
     <!-- 12 -->
     <g transform="translate(257.386722 61.867231) scale(0.1 -0.1)">
      <use xlink:href="#DejaVuSans-31"/>
      <use xlink:href="#DejaVuSans-32" x="63.623047"/>
     </g>
    </g>
   </g>
   <g id="text_14">
    <g clip-path="url(#p317515533e)">
     <!-- 13 -->
     <g transform="translate(335.434241 84.058718) scale(0.1 -0.1)">
      <use xlink:href="#DejaVuSans-31"/>
      <use xlink:href="#DejaVuSans-33" x="63.623047"/>
     </g>
    </g>
   </g>
   <g id="text_15">
    <g clip-path="url(#p317515533e)">
     <!-- 14 -->
     <g transform="translate(222.873108 32.749458) scale(0.1 -0.1)">
      <use xlink:href="#DejaVuSans-31"/>
      <use xlink:href="#DejaVuSans-34" x="63.623047"/>
     </g>
    </g>
   </g>
   <g id="text_16">
    <g clip-path="url(#p317515533e)">
     <!-- 15 -->
     <g transform="translate(205.971276 60.016133) scale(0.1 -0.1)">
      <use xlink:href="#DejaVuSans-31"/>
      <use xlink:href="#DejaVuSans-35" x="63.623047"/>
     </g>
    </g>
   </g>
   <g id="text_17">
    <g clip-path="url(#p317515533e)">
     <!-- 16 -->
     <g transform="translate(201.98729 220.158132) scale(0.1 -0.1)">
      <use xlink:href="#DejaVuSans-31"/>
      <use xlink:href="#DejaVuSans-36" x="63.623047"/>
     </g>
    </g>
   </g>
   <g id="text_18">
    <g clip-path="url(#p317515533e)">
     <!-- 17 -->
     <g transform="translate(238.803557 198.345693) scale(0.1 -0.1)">
      <use xlink:href="#DejaVuSans-31"/>
      <use xlink:href="#DejaVuSans-37" x="63.623047"/>
     </g>
    </g>
   </g>
   <g id="text_19">
    <g clip-path="url(#p317515533e)">
     <!-- 18 -->
     <g transform="translate(180.272252 304.632339) scale(0.1 -0.1)">
      <use xlink:href="#DejaVuSans-31"/>
      <use xlink:href="#DejaVuSans-38" x="63.623047"/>
     </g>
    </g>
   </g>
   <g id="text_20">
    <g clip-path="url(#p317515533e)">
     <!-- 19 -->
     <g transform="translate(127.50255 318.369292) scale(0.1 -0.1)">
      <use xlink:href="#DejaVuSans-31"/>
      <use xlink:href="#DejaVuSans-39" x="63.623047"/>
     </g>
    </g>
   </g>
   <g id="text_21">
    <g clip-path="url(#p317515533e)">
     <!-- 20 -->
     <g transform="translate(87.171631 302.797937) scale(0.1 -0.1)">
      <use xlink:href="#DejaVuSans-32"/>
      <use xlink:href="#DejaVuSans-30" x="63.623047"/>
     </g>
    </g>
   </g>
   <g id="text_22">
    <g clip-path="url(#p317515533e)">
     <!-- 21 -->
     <g transform="translate(33.624277 313.632307) scale(0.1 -0.1)">
      <use xlink:href="#DejaVuSans-32"/>
      <use xlink:href="#DejaVuSans-31" x="63.623047"/>
     </g>
    </g>
   </g>
   <g id="text_23">
    <g clip-path="url(#p317515533e)">
     <!-- 22 -->
     <g transform="translate(137.677593 276.334029) scale(0.1 -0.1)">
      <use xlink:href="#DejaVuSans-32"/>
      <use xlink:href="#DejaVuSans-32" x="63.623047"/>
     </g>
    </g>
   </g>
   <g id="text_24">
    <g clip-path="url(#p317515533e)">
     <!-- 23 -->
     <g transform="translate(257.491056 303.201854) scale(0.1 -0.1)">
      <use xlink:href="#DejaVuSans-32"/>
      <use xlink:href="#DejaVuSans-33" x="63.623047"/>
     </g>
    </g>
   </g>
   <g id="text_25">
    <g clip-path="url(#p317515533e)">
     <!-- 24 -->
     <g transform="translate(326.876827 284.566347) scale(0.1 -0.1)">
      <use xlink:href="#DejaVuSans-32"/>
      <use xlink:href="#DejaVuSans-34" x="63.623047"/>
     </g>
    </g>
   </g>
   <g id="text_26">
    <g clip-path="url(#p317515533e)">
     <!-- 25 -->
     <g transform="translate(161.240434 229.814625) scale(0.1 -0.1)">
      <use xlink:href="#DejaVuSans-32"/>
      <use xlink:href="#DejaVuSans-35" x="63.623047"/>
     </g>
    </g>
   </g>
  </g>
 </g>
 <defs>
  <clipPath id="p317515533e">
   <rect x="0" y="0" width="460.8" height="345.6"/>
  </clipPath>
 </defs>
</svg>
