<?xml version="1.0" encoding="utf-8" standalone="no"?>
<!DOCTYPE svg PUBLIC "-//W3C//DTD SVG 1.1//EN"
  "http://www.w3.org/Graphics/SVG/1.1/DTD/svg11.dtd">
<svg xmlns:xlink="http://www.w3.org/1999/xlink" width="460.8pt" height="345.6pt" viewBox="0 0 460.8 345.6" xmlns="http://www.w3.org/2000/svg" version="1.1">
 <metadata>
  <rdf:RDF xmlns:dc="http://purl.org/dc/elements/1.1/" xmlns:cc="http://creativecommons.org/ns#" xmlns:rdf="http://www.w3.org/1999/02/22-rdf-syntax-ns#">
   <cc:Work>
    <dc:type rdf:resource="http://purl.org/dc/dcmitype/StillImage"/>
    <dc:date>2024-02-07T14:35:33.330390</dc:date>
    <dc:format>image/svg+xml</dc:format>
    <dc:creator>
     <cc:Agent>
      <dc:title>Matplotlib v3.8.0, https://matplotlib.org/</dc:title>
     </cc:Agent>
    </dc:creator>
   </cc:Work>
  </rdf:RDF>
 </metadata>
 <defs>
  <style type="text/css">*{stroke-linejoin: round; stroke-linecap: butt}</style>
 </defs>
 <g id="figure_1">
  <g id="patch_1">
   <path d="M 0 345.6 
L 460.8 345.6 
L 460.8 0 
L 0 0 
z
" style="fill: #ffffff"/>
  </g>
  <g id="axes_1">
   <g id="patch_2">
    <path d="M 174.559595 313.741055 
Q 180.841706 290.388937 186.833373 268.116468 
" clip-path="url(#p563dad8d68)" style="fill: none; stroke: #000000; stroke-linecap: round"/>
    <path d="M 183.862915 271.459577 
L 186.833373 268.116468 
L 187.725586 272.4987 
z
" clip-path="url(#p563dad8d68)" style="stroke: #000000; stroke-linecap: round"/>
   </g>
   <g id="patch_3">
    <path d="M 200.507188 172.941519 
Q 219.907565 177.153714 238.215364 181.12869 
" clip-path="url(#p563dad8d68)" style="fill: none; stroke: #000000; stroke-linecap: round"/>
    <path d="M 234.730789 178.325524 
L 238.215364 181.12869 
L 233.882086 182.23445 
z
" clip-path="url(#p563dad8d68)" style="stroke: #000000; stroke-linecap: round"/>
   </g>
   <g id="patch_4">
    <path d="M 199.957993 173.922355 
Q 216.653641 191.196252 232.572289 207.666239 
" clip-path="url(#p563dad8d68)" style="fill: none; stroke: #000000; stroke-linecap: round"/>
    <path d="M 231.230491 203.400143 
L 232.572289 207.666239 
L 228.354333 206.18002 
z
" clip-path="url(#p563dad8d68)" style="stroke: #000000; stroke-linecap: round"/>
   </g>
   <g id="patch_5">
    <path d="M 239.303106 181.36486 
Q 219.902729 177.152664 201.59493 173.177689 
" clip-path="url(#p563dad8d68)" style="fill: none; stroke: #000000; stroke-linecap: round"/>
    <path d="M 205.079504 175.980855 
L 201.59493 173.177689 
L 205.928208 172.071929 
z
" clip-path="url(#p563dad8d68)" style="stroke: #000000; stroke-linecap: round"/>
   </g>
   <g id="patch_6">
    <path d="M 240.760586 183.665407 
Q 237.94614 195.822462 235.383857 206.890291 
" clip-path="url(#p563dad8d68)" style="fill: none; stroke: #000000; stroke-linecap: round"/>
    <path d="M 238.234492 203.444442 
L 235.383857 206.890291 
L 234.337559 202.542273 
z
" clip-path="url(#p563dad8d68)" style="stroke: #000000; stroke-linecap: round"/>
   </g>
   <g id="patch_7">
    <path d="M 240.760586 183.665407 
Q 237.94614 195.822462 235.383857 206.890291 
" clip-path="url(#p563dad8d68)" style="fill: none; stroke: #000000; stroke-linecap: round"/>
    <path d="M 238.234492 203.444442 
L 235.383857 206.890291 
L 234.337559 202.542273 
z
" clip-path="url(#p563dad8d68)" style="stroke: #000000; stroke-linecap: round"/>
   </g>
   <g id="patch_8">
    <path d="M 240.760586 183.665407 
Q 237.94614 195.822462 235.383857 206.890291 
" clip-path="url(#p563dad8d68)" style="fill: none; stroke: #000000; stroke-linecap: round"/>
    <path d="M 238.234492 203.444442 
L 235.383857 206.890291 
L 234.337559 202.542273 
z
" clip-path="url(#p563dad8d68)" style="stroke: #000000; stroke-linecap: round"/>
   </g>
   <g id="patch_9">
    <path d="M 241.554514 179.871563 
Q 245.978673 156.239426 250.1971 133.70623 
" clip-path="url(#p563dad8d68)" style="fill: none; stroke: #000000; stroke-linecap: round"/>
    <path d="M 247.495202 137.269901 
L 250.1971 133.70623 
L 251.426898 138.005951 
z
" clip-path="url(#p563dad8d68)" style="stroke: #000000; stroke-linecap: round"/>
   </g>
   <g id="patch_10">
    <path d="M 242.375924 183.31434 
Q 259.792611 206.054965 276.529489 227.907976 
" clip-path="url(#p563dad8d68)" style="fill: none; stroke: #000000; stroke-linecap: round"/>
    <path d="M 275.68514 223.516271 
L 276.529489 227.907976 
L 272.509516 225.948432 
z
" clip-path="url(#p563dad8d68)" style="stroke: #000000; stroke-linecap: round"/>
   </g>
   <g id="patch_11">
    <path d="M 185.427259 31.598676 
Q 198.427018 51.072739 210.806039 69.616917 
" clip-path="url(#p563dad8d68)" style="fill: none; stroke: #000000; stroke-linecap: round"/>
    <path d="M 210.24865 65.179653 
L 210.806039 69.616917 
L 206.921794 67.40047 
z
" clip-path="url(#p563dad8d68)" style="stroke: #000000; stroke-linecap: round"/>
   </g>
   <g id="patch_12">
    <path d="M 280.198776 231.01942 
Q 315.435972 244.397473 349.62793 257.378693 
" clip-path="url(#p563dad8d68)" style="fill: none; stroke: #000000; stroke-linecap: round"/>
    <path d="M 346.598246 254.089162 
L 349.62793 257.378693 
L 345.178495 257.828722 
z
" clip-path="url(#p563dad8d68)" style="stroke: #000000; stroke-linecap: round"/>
   </g>
   <g id="patch_13">
    <path d="M 276.633183 229.5101 
Q 256.54109 220.09732 237.461435 211.158848 
" clip-path="url(#p563dad8d68)" style="fill: none; stroke: #000000; stroke-linecap: round"/>
    <path d="M 240.235175 214.666892 
L 237.461435 211.158848 
L 241.932114 211.044683 
z
" clip-path="url(#p563dad8d68)" style="stroke: #000000; stroke-linecap: round"/>
   </g>
   <g id="patch_14">
    <path d="M 280.259233 230.830048 
Q 304.275261 237.227019 327.210923 243.336221 
" clip-path="url(#p563dad8d68)" style="fill: none; stroke: #000000; stroke-linecap: round"/>
    <path d="M 323.860467 240.374051 
L 327.210923 243.336221 
L 322.830914 244.239284 
z
" clip-path="url(#p563dad8d68)" style="stroke: #000000; stroke-linecap: round"/>
   </g>
   <g id="patch_15">
    <path d="M 276.893982 229.099737 
Q 271.430653 224.589119 266.829485 220.790317 
" clip-path="url(#p563dad8d68)" style="fill: none; stroke: #000000; stroke-linecap: round"/>
    <path d="M 268.640712 224.87926 
L 266.829485 220.790317 
L 271.187376 221.794701 
z
" clip-path="url(#p563dad8d68)" style="stroke: #000000; stroke-linecap: round"/>
   </g>
   <g id="patch_16">
    <path d="M 276.457189 230.528221 
Q 237.202721 234.546653 199.060474 238.451228 
" clip-path="url(#p563dad8d68)" style="fill: none; stroke: #000000; stroke-linecap: round"/>
    <path d="M 203.243352 240.033484 
L 199.060474 238.451228 
L 202.836006 236.05428 
z
" clip-path="url(#p563dad8d68)" style="stroke: #000000; stroke-linecap: round"/>
   </g>
   <g id="patch_17">
    <path d="M 277.207149 228.792783 
Q 259.790461 206.052158 243.053583 184.199147 
" clip-path="url(#p563dad8d68)" style="fill: none; stroke: #000000; stroke-linecap: round"/>
    <path d="M 243.897932 188.590852 
L 243.053583 184.199147 
L 247.073557 186.158691 
z
" clip-path="url(#p563dad8d68)" style="stroke: #000000; stroke-linecap: round"/>
   </g>
   <g id="patch_18">
    <path d="M 108.191525 256.033381 
Q 75.048696 251.049465 43.011471 246.231806 
" clip-path="url(#p563dad8d68)" style="fill: none; stroke: #000000; stroke-linecap: round"/>
    <path d="M 46.669588 248.804389 
L 43.011471 246.231806 
L 47.264408 244.848862 
z
" clip-path="url(#p563dad8d68)" style="stroke: #000000; stroke-linecap: round"/>
   </g>
   <g id="patch_19">
    <path d="M 112.000158 255.933639 
Q 153.06206 247.541745 193.02857 239.373719 
" clip-path="url(#p563dad8d68)" style="fill: none; stroke: #000000; stroke-linecap: round"/>
    <path d="M 188.709111 238.215154 
L 193.02857 239.373719 
L 189.510043 242.134147 
z
" clip-path="url(#p563dad8d68)" style="stroke: #000000; stroke-linecap: round"/>
   </g>
   <g id="patch_20">
    <path d="M 108.260971 256.913153 
Q 77.486955 266.796928 47.777418 276.338822 
" clip-path="url(#p563dad8d68)" style="fill: none; stroke: #000000; stroke-linecap: round"/>
    <path d="M 52.197393 277.019867 
L 47.777418 276.338822 
L 50.974239 273.21147 
z
" clip-path="url(#p563dad8d68)" style="stroke: #000000; stroke-linecap: round"/>
   </g>
   <g id="patch_21">
    <path d="M 112.030289 256.540774 
Q 148.866657 260.743643 184.592197 264.819772 
" clip-path="url(#p563dad8d68)" style="fill: none; stroke: #000000; stroke-linecap: round"/>
    <path d="M 180.844701 262.379224 
L 184.592197 264.819772 
L 180.39126 266.35344 
z
" clip-path="url(#p563dad8d68)" style="stroke: #000000; stroke-linecap: round"/>
   </g>
   <g id="patch_22">
    <path d="M 335.230829 195.444948 
Q 300.769264 206.841049 267.369198 217.886123 
" clip-path="url(#p563dad8d68)" style="fill: none; stroke: #000000; stroke-linecap: round"/>
    <path d="M 271.794869 218.529116 
L 267.369198 217.886123 
L 270.538995 214.731382 
z
" clip-path="url(#p563dad8d68)" style="stroke: #000000; stroke-linecap: round"/>
   </g>
   <g id="patch_23">
    <path d="M 303.412088 184.409399 
Q 269.961884 196.79991 237.5601 208.802069 
" clip-path="url(#p563dad8d68)" style="fill: none; stroke: #000000; stroke-linecap: round"/>
    <path d="M 242.005743 209.288128 
L 237.5601 208.802069 
L 240.616333 205.53719 
z
" clip-path="url(#p563dad8d68)" style="stroke: #000000; stroke-linecap: round"/>
   </g>
   <g id="patch_24">
    <path d="M 303.838161 182.388229 
Q 277.993786 157.221594 252.950413 132.834956 
" clip-path="url(#p563dad8d68)" style="fill: none; stroke: #000000; stroke-linecap: round"/>
    <path d="M 254.420865 137.058434 
L 252.950413 132.834956 
L 257.211467 134.192681 
z
" clip-path="url(#p563dad8d68)" style="stroke: #000000; stroke-linecap: round"/>
   </g>
   <g id="patch_25">
    <path d="M 306.597855 182.372235 
Q 326.413379 162.666544 345.43614 143.749223 
" clip-path="url(#p563dad8d68)" style="fill: none; stroke: #000000; stroke-linecap: round"/>
    <path d="M 341.189586 145.15164 
L 345.43614 143.749223 
L 344.010141 147.987917 
z
" clip-path="url(#p563dad8d68)" style="stroke: #000000; stroke-linecap: round"/>
   </g>
   <g id="patch_26">
    <path d="M 306.258529 185.373181 
Q 328.855488 221.101085 350.854821 255.884085 
" clip-path="url(#p563dad8d68)" style="fill: none; stroke: #000000; stroke-linecap: round"/>
    <path d="M 350.406982 251.434429 
L 350.854821 255.884085 
L 347.026393 253.572562 
z
" clip-path="url(#p563dad8d68)" style="stroke: #000000; stroke-linecap: round"/>
   </g>
   <g id="patch_27">
    <path d="M 211.42878 70.549804 
Q 198.429021 51.075741 186.05 32.531563 
" clip-path="url(#p563dad8d68)" style="fill: none; stroke: #000000; stroke-linecap: round"/>
    <path d="M 186.607389 36.968827 
L 186.05 32.531563 
L 189.934245 34.74801 
z
" clip-path="url(#p563dad8d68)" style="stroke: #000000; stroke-linecap: round"/>
   </g>
   <g id="patch_28">
    <path d="M 213.560349 73.777054 
Q 231.62982 101.428051 249.087686 128.143132 
" clip-path="url(#p563dad8d68)" style="fill: none; stroke: #000000; stroke-linecap: round"/>
    <path d="M 248.573756 123.700624 
L 249.087686 128.143132 
L 245.225322 125.888771 
z
" clip-path="url(#p563dad8d68)" style="stroke: #000000; stroke-linecap: round"/>
   </g>
   <g id="patch_29">
    <path d="M 250.403019 132.606293 
Q 245.97886 156.23843 241.760433 178.771625 
" clip-path="url(#p563dad8d68)" style="fill: none; stroke: #000000; stroke-linecap: round"/>
    <path d="M 244.462331 175.207955 
L 241.760433 178.771625 
L 240.530635 174.471905 
z
" clip-path="url(#p563dad8d68)" style="stroke: #000000; stroke-linecap: round"/>
   </g>
   <g id="patch_30">
    <path d="M 252.145816 132.051459 
Q 277.990192 157.218094 303.033565 181.604732 
" clip-path="url(#p563dad8d68)" style="fill: none; stroke: #000000; stroke-linecap: round"/>
    <path d="M 301.563113 177.381253 
L 303.033565 181.604732 
L 298.772511 180.247006 
z
" clip-path="url(#p563dad8d68)" style="stroke: #000000; stroke-linecap: round"/>
   </g>
   <g id="patch_31">
    <path d="M 249.701832 129.082935 
Q 231.632361 101.431938 214.174495 74.716857 
" clip-path="url(#p563dad8d68)" style="fill: none; stroke: #000000; stroke-linecap: round"/>
    <path d="M 214.688425 79.159365 
L 214.174495 74.716857 
L 218.036859 76.971218 
z
" clip-path="url(#p563dad8d68)" style="stroke: #000000; stroke-linecap: round"/>
   </g>
   <g id="patch_32">
    <path d="M 137.608669 300.446674 
Q 161.825655 283.365154 185.129016 266.928062 
" clip-path="url(#p563dad8d68)" style="fill: none; stroke: #000000; stroke-linecap: round"/>
    <path d="M 180.707541 267.599296 
L 185.129016 266.928062 
L 183.013118 270.867983 
z
" clip-path="url(#p563dad8d68)" style="stroke: #000000; stroke-linecap: round"/>
   </g>
   <g id="patch_33">
    <path d="M 328.290469 243.623771 
Q 304.274441 237.226801 281.338779 231.117599 
" clip-path="url(#p563dad8d68)" style="fill: none; stroke: #000000; stroke-linecap: round"/>
    <path d="M 284.689235 234.079768 
L 281.338779 231.117599 
L 285.718788 230.214536 
z
" clip-path="url(#p563dad8d68)" style="stroke: #000000; stroke-linecap: round"/>
   </g>
   <g id="patch_34">
    <path d="M 332.099474 243.989815 
Q 370.292519 241.361664 407.370168 238.810267 
" clip-path="url(#p563dad8d68)" style="fill: none; stroke: #000000; stroke-linecap: round"/>
    <path d="M 403.242305 237.089585 
L 407.370168 238.810267 
L 403.516905 241.080148 
z
" clip-path="url(#p563dad8d68)" style="stroke: #000000; stroke-linecap: round"/>
   </g>
   <g id="patch_35">
    <path d="M 328.24589 244.382077 
Q 288.965583 249.686862 250.793253 254.842015 
" clip-path="url(#p563dad8d68)" style="fill: none; stroke: #000000; stroke-linecap: round"/>
    <path d="M 255.024937 256.288684 
L 250.793253 254.842015 
L 254.489598 252.32467 
z
" clip-path="url(#p563dad8d68)" style="stroke: #000000; stroke-linecap: round"/>
   </g>
   <g id="patch_36">
    <path d="M 408.48672 238.733434 
Q 370.293675 241.361585 333.216026 243.912983 
" clip-path="url(#p563dad8d68)" style="fill: none; stroke: #000000; stroke-linecap: round"/>
    <path d="M 337.343889 245.633664 
L 333.216026 243.912983 
L 337.069289 241.643101 
z
" clip-path="url(#p563dad8d68)" style="stroke: #000000; stroke-linecap: round"/>
   </g>
   <g id="patch_37">
    <path d="M 265.96338 220.075245 
Q 271.426709 224.585863 276.027877 228.384665 
" clip-path="url(#p563dad8d68)" style="fill: none; stroke: #000000; stroke-linecap: round"/>
    <path d="M 274.21665 224.295722 
L 276.027877 228.384665 
L 271.669986 227.380281 
z
" clip-path="url(#p563dad8d68)" style="stroke: #000000; stroke-linecap: round"/>
   </g>
   <g id="patch_38">
    <path d="M 266.311089 218.236029 
Q 300.772654 206.839928 334.17272 195.794854 
" clip-path="url(#p563dad8d68)" style="fill: none; stroke: #000000; stroke-linecap: round"/>
    <path d="M 329.74705 195.151861 
L 334.17272 195.794854 
L 331.002923 198.949594 
z
" clip-path="url(#p563dad8d68)" style="stroke: #000000; stroke-linecap: round"/>
   </g>
   <g id="patch_39">
    <path d="M 262.612986 219.385122 
Q 230.244647 228.803613 198.949819 237.909736 
" clip-path="url(#p563dad8d68)" style="fill: none; stroke: #000000; stroke-linecap: round"/>
    <path d="M 203.349311 238.712527 
L 198.949819 237.909736 
L 202.231747 234.871817 
z
" clip-path="url(#p563dad8d68)" style="stroke: #000000; stroke-linecap: round"/>
   </g>
   <g id="patch_40">
    <path d="M 262.87493 219.93722 
Q 240.105003 235.519639 218.257741 250.470639 
" clip-path="url(#p563dad8d68)" style="fill: none; stroke: #000000; stroke-linecap: round"/>
    <path d="M 222.688283 249.862121 
L 218.257741 250.470639 
L 220.429252 246.561095 
z
" clip-path="url(#p563dad8d68)" style="stroke: #000000; stroke-linecap: round"/>
   </g>
   <g id="patch_41">
    <path d="M 197.946739 238.56524 
Q 237.201207 234.546808 275.343454 230.642232 
" clip-path="url(#p563dad8d68)" style="fill: none; stroke: #000000; stroke-linecap: round"/>
    <path d="M 271.160576 229.059976 
L 275.343454 230.642232 
L 271.567923 233.039181 
z
" clip-path="url(#p563dad8d68)" style="stroke: #000000; stroke-linecap: round"/>
   </g>
   <g id="patch_42">
    <path d="M 194.123161 239.150015 
Q 153.061259 247.541909 113.094749 255.709936 
" clip-path="url(#p563dad8d68)" style="fill: none; stroke: #000000; stroke-linecap: round"/>
    <path d="M 117.414208 256.868501 
L 113.094749 255.709936 
L 116.613276 252.949508 
z
" clip-path="url(#p563dad8d68)" style="stroke: #000000; stroke-linecap: round"/>
   </g>
   <g id="patch_43">
    <path d="M 197.878031 238.221603 
Q 230.24637 228.803112 261.541198 219.696989 
" clip-path="url(#p563dad8d68)" style="fill: none; stroke: #000000; stroke-linecap: round"/>
    <path d="M 257.141706 218.894198 
L 261.541198 219.696989 
L 258.25927 222.734908 
z
" clip-path="url(#p563dad8d68)" style="stroke: #000000; stroke-linecap: round"/>
   </g>
   <g id="patch_44">
    <path d="M 197.619561 239.852981 
Q 205.879401 245.47925 213.215207 250.476105 
" clip-path="url(#p563dad8d68)" style="fill: none; stroke: #000000; stroke-linecap: round"/>
    <path d="M 211.035215 246.571283 
L 213.215207 250.476105 
L 208.783354 249.877206 
z
" clip-path="url(#p563dad8d68)" style="stroke: #000000; stroke-linecap: round"/>
   </g>
   <g id="patch_45">
    <path d="M 195.431823 240.609424 
Q 191.822419 251.96596 188.551662 262.256983 
" clip-path="url(#p563dad8d68)" style="fill: none; stroke: #000000; stroke-linecap: round"/>
    <path d="M 191.669293 259.05068 
L 188.551662 262.256983 
L 187.857199 257.839096 
z
" clip-path="url(#p563dad8d68)" style="stroke: #000000; stroke-linecap: round"/>
   </g>
   <g id="patch_46">
    <path d="M 46.710866 276.681369 
Q 77.484883 266.797594 107.194419 257.2557 
" clip-path="url(#p563dad8d68)" style="fill: none; stroke: #000000; stroke-linecap: round"/>
    <path d="M 102.774445 256.574655 
L 107.194419 257.2557 
L 103.997598 260.383053 
z
" clip-path="url(#p563dad8d68)" style="stroke: #000000; stroke-linecap: round"/>
   </g>
   <g id="patch_47">
    <path d="M 187.124333 267.034902 
Q 180.842222 290.387021 174.850554 312.65949 
" clip-path="url(#p563dad8d68)" style="fill: none; stroke: #000000; stroke-linecap: round"/>
    <path d="M 177.821013 309.316381 
L 174.850554 312.65949 
L 173.958342 308.277258 
z
" clip-path="url(#p563dad8d68)" style="stroke: #000000; stroke-linecap: round"/>
   </g>
   <g id="patch_48">
    <path d="M 185.701326 264.946319 
Q 148.864959 260.74345 113.139418 256.667321 
" clip-path="url(#p563dad8d68)" style="fill: none; stroke: #000000; stroke-linecap: round"/>
    <path d="M 116.886914 259.107869 
L 113.139418 256.667321 
L 117.340355 255.133653 
z
" clip-path="url(#p563dad8d68)" style="stroke: #000000; stroke-linecap: round"/>
   </g>
   <g id="patch_49">
    <path d="M 186.042851 266.283486 
Q 161.825864 283.365007 138.522503 299.802098 
" clip-path="url(#p563dad8d68)" style="fill: none; stroke: #000000; stroke-linecap: round"/>
    <path d="M 142.943979 299.130864 
L 138.522503 299.802098 
L 140.638401 295.862178 
z
" clip-path="url(#p563dad8d68)" style="stroke: #000000; stroke-linecap: round"/>
   </g>
   <g id="patch_50">
    <path d="M 188.214056 263.319218 
Q 191.823461 251.962682 195.094217 241.671659 
" clip-path="url(#p563dad8d68)" style="fill: none; stroke: #000000; stroke-linecap: round"/>
    <path d="M 191.976586 244.877962 
L 195.094217 241.671659 
L 195.788681 246.089546 
z
" clip-path="url(#p563dad8d68)" style="stroke: #000000; stroke-linecap: round"/>
   </g>
   <g id="patch_51">
    <path d="M 188.882517 263.690981 
Q 211.161322 237.514619 232.715489 212.189668 
" clip-path="url(#p563dad8d68)" style="fill: none; stroke: #000000; stroke-linecap: round"/>
    <path d="M 228.599895 213.939493 
L 232.715489 212.189668 
L 231.645993 216.532038 
z
" clip-path="url(#p563dad8d68)" style="stroke: #000000; stroke-linecap: round"/>
   </g>
   <g id="patch_52">
    <path d="M 189.387473 264.353752 
Q 201.683154 258.680202 212.963662 253.475079 
" clip-path="url(#p563dad8d68)" style="fill: none; stroke: #000000; stroke-linecap: round"/>
    <path d="M 208.493721 253.33498 
L 212.963662 253.475079 
L 210.169618 256.966972 
z
" clip-path="url(#p563dad8d68)" style="stroke: #000000; stroke-linecap: round"/>
   </g>
   <g id="patch_53">
    <path d="M 189.387473 264.353752 
Q 201.683154 258.680202 212.963662 253.475079 
" clip-path="url(#p563dad8d68)" style="fill: none; stroke: #000000; stroke-linecap: round"/>
    <path d="M 208.493721 253.33498 
L 212.963662 253.475079 
L 210.169618 256.966972 
z
" clip-path="url(#p563dad8d68)" style="stroke: #000000; stroke-linecap: round"/>
   </g>
   <g id="patch_54">
    <path d="M 189.53942 264.85075 
Q 217.697825 260.20821 244.753089 255.747548 
" clip-path="url(#p563dad8d68)" style="fill: none; stroke: #000000; stroke-linecap: round"/>
    <path d="M 240.481018 254.424893 
L 244.753089 255.747548 
L 241.131723 258.371612 
z
" clip-path="url(#p563dad8d68)" style="stroke: #000000; stroke-linecap: round"/>
   </g>
   <g id="patch_55">
    <path d="M 189.53942 264.85075 
Q 217.697825 260.20821 244.753089 255.747548 
" clip-path="url(#p563dad8d68)" style="fill: none; stroke: #000000; stroke-linecap: round"/>
    <path d="M 240.481018 254.424893 
L 244.753089 255.747548 
L 241.131723 258.371612 
z
" clip-path="url(#p563dad8d68)" style="stroke: #000000; stroke-linecap: round"/>
   </g>
   <g id="patch_56">
    <path d="M 418.974108 280.280491 
Q 386.649479 269.673839 355.387157 259.415761 
" clip-path="url(#p563dad8d68)" style="fill: none; stroke: #000000; stroke-linecap: round"/>
    <path d="M 358.564234 262.56317 
L 355.387157 259.415761 
L 359.81133 258.762545 
z
" clip-path="url(#p563dad8d68)" style="stroke: #000000; stroke-linecap: round"/>
   </g>
   <g id="patch_57">
    <path d="M 346.229439 142.960321 
Q 326.413915 162.666012 307.391154 181.583333 
" clip-path="url(#p563dad8d68)" style="fill: none; stroke: #000000; stroke-linecap: round"/>
    <path d="M 311.637708 180.180915 
L 307.391154 181.583333 
L 308.817153 177.344639 
z
" clip-path="url(#p563dad8d68)" style="stroke: #000000; stroke-linecap: round"/>
   </g>
   <g id="patch_58">
    <path d="M 392.419129 301.544649 
Q 373.112122 280.715579 354.565158 260.706469 
" clip-path="url(#p563dad8d68)" style="fill: none; stroke: #000000; stroke-linecap: round"/>
    <path d="M 355.817579 264.999655 
L 354.565158 260.706469 
L 358.751159 262.280443 
z
" clip-path="url(#p563dad8d68)" style="stroke: #000000; stroke-linecap: round"/>
   </g>
   <g id="patch_59">
    <path d="M 350.672901 257.775424 
Q 315.435704 244.397371 281.243747 231.41615 
" clip-path="url(#p563dad8d68)" style="fill: none; stroke: #000000; stroke-linecap: round"/>
    <path d="M 284.273431 234.705681 
L 281.243747 231.41615 
L 285.693182 230.966121 
z
" clip-path="url(#p563dad8d68)" style="stroke: #000000; stroke-linecap: round"/>
   </g>
   <g id="patch_60">
    <path d="M 351.452392 256.8289 
Q 328.855432 221.100996 306.856099 186.317996 
" clip-path="url(#p563dad8d68)" style="fill: none; stroke: #000000; stroke-linecap: round"/>
    <path d="M 307.303939 190.767652 
L 306.856099 186.317996 
L 310.684528 188.629518 
z
" clip-path="url(#p563dad8d68)" style="stroke: #000000; stroke-linecap: round"/>
   </g>
   <g id="patch_61">
    <path d="M 354.325655 259.067452 
Q 386.650284 269.674104 417.912606 279.932182 
" clip-path="url(#p563dad8d68)" style="fill: none; stroke: #000000; stroke-linecap: round"/>
    <path d="M 414.735529 276.784773 
L 417.912606 279.932182 
L 413.488433 280.585399 
z
" clip-path="url(#p563dad8d68)" style="stroke: #000000; stroke-linecap: round"/>
   </g>
   <g id="patch_62">
    <path d="M 353.803276 259.884525 
Q 373.110283 280.713595 391.657247 300.722704 
" clip-path="url(#p563dad8d68)" style="fill: none; stroke: #000000; stroke-linecap: round"/>
    <path d="M 390.404826 296.429519 
L 391.657247 300.722704 
L 387.471246 299.14873 
z
" clip-path="url(#p563dad8d68)" style="stroke: #000000; stroke-linecap: round"/>
   </g>
   <g id="patch_63">
    <path d="M 352.625989 260.397308 
Q 354.350087 284.300242 355.993751 307.088039 
" clip-path="url(#p563dad8d68)" style="fill: none; stroke: #000000; stroke-linecap: round"/>
    <path d="M 357.7008 302.954519 
L 355.993751 307.088039 
L 353.711165 303.242288 
z
" clip-path="url(#p563dad8d68)" style="stroke: #000000; stroke-linecap: round"/>
   </g>
   <g id="patch_64">
    <path d="M 356.074223 308.203702 
Q 354.350125 284.300768 352.706461 261.512972 
" clip-path="url(#p563dad8d68)" style="fill: none; stroke: #000000; stroke-linecap: round"/>
    <path d="M 350.999412 265.646491 
L 352.706461 261.512972 
L 354.989047 265.358722 
z
" clip-path="url(#p563dad8d68)" style="stroke: #000000; stroke-linecap: round"/>
   </g>
   <g id="patch_65">
    <path d="M 233.349992 208.470877 
Q 216.654344 191.19698 200.735695 174.726993 
" clip-path="url(#p563dad8d68)" style="fill: none; stroke: #000000; stroke-linecap: round"/>
    <path d="M 202.077494 178.993089 
L 200.735695 174.726993 
L 204.953651 176.213212 
z
" clip-path="url(#p563dad8d68)" style="stroke: #000000; stroke-linecap: round"/>
   </g>
   <g id="patch_66">
    <path d="M 235.132977 207.973975 
Q 237.947423 195.816919 240.509705 184.74909 
" clip-path="url(#p563dad8d68)" style="fill: none; stroke: #000000; stroke-linecap: round"/>
    <path d="M 237.65907 188.19494 
L 240.509705 184.74909 
L 241.556004 189.097108 
z
" clip-path="url(#p563dad8d68)" style="stroke: #000000; stroke-linecap: round"/>
   </g>
   <g id="patch_67">
    <path d="M 235.132977 207.973975 
Q 237.947423 195.816919 240.509705 184.74909 
" clip-path="url(#p563dad8d68)" style="fill: none; stroke: #000000; stroke-linecap: round"/>
    <path d="M 237.65907 188.19494 
L 240.509705 184.74909 
L 241.556004 189.097108 
z
" clip-path="url(#p563dad8d68)" style="stroke: #000000; stroke-linecap: round"/>
   </g>
   <g id="patch_68">
    <path d="M 235.132977 207.973975 
Q 237.947423 195.816919 240.509705 184.74909 
" clip-path="url(#p563dad8d68)" style="fill: none; stroke: #000000; stroke-linecap: round"/>
    <path d="M 237.65907 188.19494 
L 240.509705 184.74909 
L 241.556004 189.097108 
z
" clip-path="url(#p563dad8d68)" style="stroke: #000000; stroke-linecap: round"/>
   </g>
   <g id="patch_69">
    <path d="M 236.44758 210.683876 
Q 256.539673 220.096656 275.619328 229.035128 
" clip-path="url(#p563dad8d68)" style="fill: none; stroke: #000000; stroke-linecap: round"/>
    <path d="M 272.845588 225.527084 
L 275.619328 229.035128 
L 271.148649 229.149293 
z
" clip-path="url(#p563dad8d68)" style="stroke: #000000; stroke-linecap: round"/>
   </g>
   <g id="patch_70">
    <path d="M 236.507919 209.191814 
Q 269.958123 196.801303 302.359907 184.799144 
" clip-path="url(#p563dad8d68)" style="fill: none; stroke: #000000; stroke-linecap: round"/>
    <path d="M 297.914264 184.313085 
L 302.359907 184.799144 
L 299.303674 188.064023 
z
" clip-path="url(#p563dad8d68)" style="stroke: #000000; stroke-linecap: round"/>
   </g>
   <g id="patch_71">
    <path d="M 233.440197 211.338177 
Q 211.161392 237.514538 189.607225 262.839489 
" clip-path="url(#p563dad8d68)" style="fill: none; stroke: #000000; stroke-linecap: round"/>
    <path d="M 193.722819 261.089665 
L 189.607225 262.839489 
L 190.676722 258.497119 
z
" clip-path="url(#p563dad8d68)" style="stroke: #000000; stroke-linecap: round"/>
   </g>
   <g id="patch_72">
    <path d="M 235.230861 211.721961 
Q 241.229604 232.555286 246.91899 252.31423 
" clip-path="url(#p563dad8d68)" style="fill: none; stroke: #000000; stroke-linecap: round"/>
    <path d="M 247.734113 247.917006 
L 246.91899 252.31423 
L 243.890285 249.023797 
z
" clip-path="url(#p563dad8d68)" style="stroke: #000000; stroke-linecap: round"/>
   </g>
   <g id="patch_73">
    <path d="M 214.137578 251.104387 
Q 205.877738 245.478118 198.541932 240.481263 
" clip-path="url(#p563dad8d68)" style="fill: none; stroke: #000000; stroke-linecap: round"/>
    <path d="M 200.721924 244.386085 
L 198.541932 240.481263 
L 202.973785 241.080163 
z
" clip-path="url(#p563dad8d68)" style="stroke: #000000; stroke-linecap: round"/>
   </g>
   <g id="patch_74">
    <path d="M 213.977962 253.007054 
Q 201.682281 258.680605 190.401773 263.885727 
" clip-path="url(#p563dad8d68)" style="fill: none; stroke: #000000; stroke-linecap: round"/>
    <path d="M 194.871714 264.025827 
L 190.401773 263.885727 
L 193.195817 260.393834 
z
" clip-path="url(#p563dad8d68)" style="stroke: #000000; stroke-linecap: round"/>
   </g>
   <g id="patch_75">
    <path d="M 213.977962 253.007054 
Q 201.682281 258.680605 190.401773 263.885727 
" clip-path="url(#p563dad8d68)" style="fill: none; stroke: #000000; stroke-linecap: round"/>
    <path d="M 194.871714 264.025827 
L 190.401773 263.885727 
L 193.195817 260.393834 
z
" clip-path="url(#p563dad8d68)" style="stroke: #000000; stroke-linecap: round"/>
   </g>
   <g id="patch_76">
    <path d="M 217.335643 251.10167 
Q 240.10557 235.519251 261.952832 220.56825 
" clip-path="url(#p563dad8d68)" style="fill: none; stroke: #000000; stroke-linecap: round"/>
    <path d="M 257.522289 221.176768 
L 261.952832 220.56825 
L 259.781321 224.477795 
z
" clip-path="url(#p563dad8d68)" style="stroke: #000000; stroke-linecap: round"/>
   </g>
   <g id="patch_77">
    <path d="M 41.899779 246.064633 
Q 75.042608 251.048549 107.079833 255.866208 
" clip-path="url(#p563dad8d68)" style="fill: none; stroke: #000000; stroke-linecap: round"/>
    <path d="M 103.421717 253.293625 
L 107.079833 255.866208 
L 102.826897 257.249152 
z
" clip-path="url(#p563dad8d68)" style="stroke: #000000; stroke-linecap: round"/>
   </g>
   <g id="patch_78">
    <path d="M 249.683287 254.991915 
Q 288.963594 249.68713 327.135924 244.531977 
" clip-path="url(#p563dad8d68)" style="fill: none; stroke: #000000; stroke-linecap: round"/>
    <path d="M 322.904241 243.085308 
L 327.135924 244.531977 
L 323.439579 247.049322 
z
" clip-path="url(#p563dad8d68)" style="stroke: #000000; stroke-linecap: round"/>
   </g>
   <g id="patch_79">
    <path d="M 247.229377 253.392188 
Q 241.230634 232.558862 235.541248 212.799919 
" clip-path="url(#p563dad8d68)" style="fill: none; stroke: #000000; stroke-linecap: round"/>
    <path d="M 234.726125 217.197143 
L 235.541248 212.799919 
L 238.569953 216.090352 
z
" clip-path="url(#p563dad8d68)" style="stroke: #000000; stroke-linecap: round"/>
   </g>
   <g id="patch_80">
    <path d="M 245.852279 255.566322 
Q 217.693875 260.208862 190.638611 264.669524 
" clip-path="url(#p563dad8d68)" style="fill: none; stroke: #000000; stroke-linecap: round"/>
    <path d="M 194.910681 265.992178 
L 190.638611 264.669524 
L 194.259977 262.04546 
z
" clip-path="url(#p563dad8d68)" style="stroke: #000000; stroke-linecap: round"/>
   </g>
   <g id="patch_81">
    <path d="M 245.852279 255.566322 
Q 217.693875 260.208862 190.638611 264.669524 
" clip-path="url(#p563dad8d68)" style="fill: none; stroke: #000000; stroke-linecap: round"/>
    <path d="M 194.910681 265.992178 
L 190.638611 264.669524 
L 194.259977 262.04546 
z
" clip-path="url(#p563dad8d68)" style="stroke: #000000; stroke-linecap: round"/>
   </g>
   <g id="PathCollection_1">
    <defs>
     <path id="C0_0_0f9ce028cf" d="M 0 1.936492 
C 0.513564 1.936492 1.006162 1.732451 1.369306 1.369306 
C 1.732451 1.006162 1.936492 0.513564 1.936492 -0 
C 1.936492 -0.513564 1.732451 -1.006162 1.369306 -1.369306 
C 1.006162 -1.732451 0.513564 -1.936492 0 -1.936492 
C -0.513564 -1.936492 -1.006162 -1.732451 -1.369306 -1.369306 
C -1.732451 -1.006162 -1.936492 -0.513564 -1.936492 0 
C -1.936492 0.513564 -1.732451 1.006162 -1.369306 1.369306 
C -1.006162 1.732451 -0.513564 1.936492 0 1.936492 
z
"/>
    </defs>
    <g clip-path="url(#p563dad8d68)">
     <use xlink:href="#C0_0_0f9ce028cf" x="174.05684" y="315.609917" style="fill: #ff0000; stroke: #ff0000"/>
    </g>
    <g clip-path="url(#p563dad8d68)">
     <use xlink:href="#C0_0_0f9ce028cf" x="198.612358" y="172.530115" style="fill: #ff0000; stroke: #ff0000"/>
    </g>
    <g clip-path="url(#p563dad8d68)">
     <use xlink:href="#C0_0_0f9ce028cf" x="241.197936" y="181.776264" style="fill: #ff0000; stroke: #ff0000"/>
    </g>
    <g clip-path="url(#p563dad8d68)">
     <use xlink:href="#C0_0_0f9ce028cf" x="184.353455" y="29.990083" style="fill: #ff0000; stroke: #ff0000"/>
    </g>
    <g clip-path="url(#p563dad8d68)">
     <use xlink:href="#C0_0_0f9ce028cf" x="278.385137" y="230.330859" style="stroke: #000000"/>
    </g>
    <g clip-path="url(#p563dad8d68)">
     <use xlink:href="#C0_0_0f9ce028cf" x="110.104527" y="256.321053" style="fill: #ff0000; stroke: #ff0000"/>
    </g>
    <g clip-path="url(#p563dad8d68)">
     <use xlink:href="#C0_0_0f9ce028cf" x="337.069693" y="194.836854" style="fill: #ff0000; stroke: #ff0000"/>
    </g>
    <g clip-path="url(#p563dad8d68)">
     <use xlink:href="#C0_0_0f9ce028cf" x="305.224381" y="183.738096" style="stroke: #000000"/>
    </g>
    <g clip-path="url(#p563dad8d68)">
     <use xlink:href="#C0_0_0f9ce028cf" x="212.502584" y="72.158397" style="fill: #ff0000; stroke: #ff0000"/>
    </g>
    <g clip-path="url(#p563dad8d68)">
     <use xlink:href="#C0_0_0f9ce028cf" x="250.759597" y="130.701592" style="fill: #ff0000; stroke: #ff0000"/>
    </g>
    <g clip-path="url(#p563dad8d68)">
     <use xlink:href="#C0_0_0f9ce028cf" x="136.024432" y="301.56412" style="fill: #ff0000; stroke: #ff0000"/>
    </g>
    <g clip-path="url(#p563dad8d68)">
     <use xlink:href="#C0_0_0f9ce028cf" x="330.164565" y="244.122961" style="fill: #ff0000; stroke: #ff0000"/>
    </g>
    <g clip-path="url(#p563dad8d68)">
     <use xlink:href="#C0_0_0f9ce028cf" x="410.421629" y="238.600289" style="fill: #ff0000; stroke: #ff0000"/>
    </g>
    <g clip-path="url(#p563dad8d68)">
     <use xlink:href="#C0_0_0f9ce028cf" x="264.472225" y="218.844123" style="fill: #ff0000; stroke: #ff0000"/>
    </g>
    <g clip-path="url(#p563dad8d68)">
     <use xlink:href="#C0_0_0f9ce028cf" x="196.018792" y="238.762602" style="stroke: #000000"/>
    </g>
    <g clip-path="url(#p563dad8d68)">
     <use xlink:href="#C0_0_0f9ce028cf" x="44.86731" y="277.27347" style="fill: #ff0000; stroke: #ff0000"/>
    </g>
    <g clip-path="url(#p563dad8d68)">
     <use xlink:href="#C0_0_0f9ce028cf" x="187.627088" y="265.16604" style="stroke: #000000"/>
    </g>
    <g clip-path="url(#p563dad8d68)">
     <use xlink:href="#C0_0_0f9ce028cf" x="420.813223" y="280.883959" style="fill: #ff0000; stroke: #ff0000"/>
    </g>
    <g clip-path="url(#p563dad8d68)">
     <use xlink:href="#C0_0_0f9ce028cf" x="347.602913" y="141.59446" style="fill: #ff0000; stroke: #ff0000"/>
    </g>
    <g clip-path="url(#p563dad8d68)">
     <use xlink:href="#C0_0_0f9ce028cf" x="393.735865" y="302.965189" style="fill: #ff0000; stroke: #ff0000"/>
    </g>
    <g clip-path="url(#p563dad8d68)">
     <use xlink:href="#C0_0_0f9ce028cf" x="352.48654" y="258.463985" style="stroke: #000000"/>
    </g>
    <g clip-path="url(#p563dad8d68)">
     <use xlink:href="#C0_0_0f9ce028cf" x="356.213672" y="310.137026" style="fill: #ff0000; stroke: #ff0000"/>
    </g>
    <g clip-path="url(#p563dad8d68)">
     <use xlink:href="#C0_0_0f9ce028cf" x="234.695626" y="209.863117" style="stroke: #000000"/>
    </g>
    <g clip-path="url(#p563dad8d68)">
     <use xlink:href="#C0_0_0f9ce028cf" x="215.738347" y="252.194766" style="stroke: #000000"/>
    </g>
    <g clip-path="url(#p563dad8d68)">
     <use xlink:href="#C0_0_0f9ce028cf" x="39.986777" y="245.776961" style="fill: #ff0000; stroke: #ff0000"/>
    </g>
    <g clip-path="url(#p563dad8d68)">
     <use xlink:href="#C0_0_0f9ce028cf" x="247.764612" y="255.251032" style="fill: #ff0000; stroke: #ff0000"/>
    </g>
   </g>
   <g id="text_1">
    <g clip-path="url(#p563dad8d68)">
     <!-- 3 -->
     <g transform="translate(170.87559 318.369292) scale(0.1 -0.1)">
      <defs>
       <path id="DejaVuSans-33" d="M 2597 2516 
Q 3050 2419 3304 2112 
Q 3559 1806 3559 1356 
Q 3559 666 3084 287 
Q 2609 -91 1734 -91 
Q 1441 -91 1130 -33 
Q 819 25 488 141 
L 488 750 
Q 750 597 1062 519 
Q 1375 441 1716 441 
Q 2309 441 2620 675 
Q 2931 909 2931 1356 
Q 2931 1769 2642 2001 
Q 2353 2234 1838 2234 
L 1294 2234 
L 1294 2753 
L 1863 2753 
Q 2328 2753 2575 2939 
Q 2822 3125 2822 3475 
Q 2822 3834 2567 4026 
Q 2313 4219 1838 4219 
Q 1578 4219 1281 4162 
Q 984 4106 628 3988 
L 628 4550 
Q 988 4650 1302 4700 
Q 1616 4750 1894 4750 
Q 2613 4750 3031 4423 
Q 3450 4097 3450 3541 
Q 3450 3153 3228 2886 
Q 3006 2619 2597 2516 
z
" transform="scale(0.015625)"/>
      </defs>
      <use xlink:href="#DejaVuSans-33"/>
     </g>
    </g>
   </g>
   <g id="text_2">
    <g clip-path="url(#p563dad8d68)">
     <!-- 4 -->
     <g transform="translate(195.431108 175.28949) scale(0.1 -0.1)">
      <defs>
       <path id="DejaVuSans-34" d="M 2419 4116 
L 825 1625 
L 2419 1625 
L 2419 4116 
z
M 2253 4666 
L 3047 4666 
L 3047 1625 
L 3713 1625 
L 3713 1100 
L 3047 1100 
L 3047 0 
L 2419 0 
L 2419 1100 
L 313 1100 
L 313 1709 
L 2253 4666 
z
" transform="scale(0.015625)"/>
      </defs>
      <use xlink:href="#DejaVuSans-34"/>
     </g>
    </g>
   </g>
   <g id="text_3">
    <g clip-path="url(#p563dad8d68)">
     <!-- 8 -->
     <g transform="translate(238.016686 184.535639) scale(0.1 -0.1)">
      <defs>
       <path id="DejaVuSans-38" d="M 2034 2216 
Q 1584 2216 1326 1975 
Q 1069 1734 1069 1313 
Q 1069 891 1326 650 
Q 1584 409 2034 409 
Q 2484 409 2743 651 
Q 3003 894 3003 1313 
Q 3003 1734 2745 1975 
Q 2488 2216 2034 2216 
z
M 1403 2484 
Q 997 2584 770 2862 
Q 544 3141 544 3541 
Q 544 4100 942 4425 
Q 1341 4750 2034 4750 
Q 2731 4750 3128 4425 
Q 3525 4100 3525 3541 
Q 3525 3141 3298 2862 
Q 3072 2584 2669 2484 
Q 3125 2378 3379 2068 
Q 3634 1759 3634 1313 
Q 3634 634 3220 271 
Q 2806 -91 2034 -91 
Q 1263 -91 848 271 
Q 434 634 434 1313 
Q 434 1759 690 2068 
Q 947 2378 1403 2484 
z
M 1172 3481 
Q 1172 3119 1398 2916 
Q 1625 2713 2034 2713 
Q 2441 2713 2670 2916 
Q 2900 3119 2900 3481 
Q 2900 3844 2670 4047 
Q 2441 4250 2034 4250 
Q 1625 4250 1398 4047 
Q 1172 3844 1172 3481 
z
" transform="scale(0.015625)"/>
      </defs>
      <use xlink:href="#DejaVuSans-38"/>
     </g>
    </g>
   </g>
   <g id="text_4">
    <g clip-path="url(#p563dad8d68)">
     <!-- 10 -->
     <g transform="translate(177.990955 32.749458) scale(0.1 -0.1)">
      <defs>
       <path id="DejaVuSans-31" d="M 794 531 
L 1825 531 
L 1825 4091 
L 703 3866 
L 703 4441 
L 1819 4666 
L 2450 4666 
L 2450 531 
L 3481 531 
L 3481 0 
L 794 0 
L 794 531 
z
" transform="scale(0.015625)"/>
       <path id="DejaVuSans-30" d="M 2034 4250 
Q 1547 4250 1301 3770 
Q 1056 3291 1056 2328 
Q 1056 1369 1301 889 
Q 1547 409 2034 409 
Q 2525 409 2770 889 
Q 3016 1369 3016 2328 
Q 3016 3291 2770 3770 
Q 2525 4250 2034 4250 
z
M 2034 4750 
Q 2819 4750 3233 4129 
Q 3647 3509 3647 2328 
Q 3647 1150 3233 529 
Q 2819 -91 2034 -91 
Q 1250 -91 836 529 
Q 422 1150 422 2328 
Q 422 3509 836 4129 
Q 1250 4750 2034 4750 
z
" transform="scale(0.015625)"/>
      </defs>
      <use xlink:href="#DejaVuSans-31"/>
      <use xlink:href="#DejaVuSans-30" x="63.623047"/>
     </g>
    </g>
   </g>
   <g id="text_5">
    <g clip-path="url(#p563dad8d68)">
     <!-- 12 -->
     <g transform="translate(272.022637 233.090234) scale(0.1 -0.1)">
      <defs>
       <path id="DejaVuSans-32" d="M 1228 531 
L 3431 531 
L 3431 0 
L 469 0 
L 469 531 
Q 828 903 1448 1529 
Q 2069 2156 2228 2338 
Q 2531 2678 2651 2914 
Q 2772 3150 2772 3378 
Q 2772 3750 2511 3984 
Q 2250 4219 1831 4219 
Q 1534 4219 1204 4116 
Q 875 4013 500 3803 
L 500 4441 
Q 881 4594 1212 4672 
Q 1544 4750 1819 4750 
Q 2544 4750 2975 4387 
Q 3406 4025 3406 3419 
Q 3406 3131 3298 2873 
Q 3191 2616 2906 2266 
Q 2828 2175 2409 1742 
Q 1991 1309 1228 531 
z
" transform="scale(0.015625)"/>
      </defs>
      <use xlink:href="#DejaVuSans-31"/>
      <use xlink:href="#DejaVuSans-32" x="63.623047"/>
     </g>
    </g>
   </g>
   <g id="text_6">
    <g clip-path="url(#p563dad8d68)">
     <!-- 13 -->
     <g transform="translate(103.742027 259.080428) scale(0.1 -0.1)">
      <use xlink:href="#DejaVuSans-31"/>
      <use xlink:href="#DejaVuSans-33" x="63.623047"/>
     </g>
    </g>
   </g>
   <g id="text_7">
    <g clip-path="url(#p563dad8d68)">
     <!-- 14 -->
     <g transform="translate(330.707193 197.596229) scale(0.1 -0.1)">
      <use xlink:href="#DejaVuSans-31"/>
      <use xlink:href="#DejaVuSans-34" x="63.623047"/>
     </g>
    </g>
   </g>
   <g id="text_8">
    <g clip-path="url(#p563dad8d68)">
     <!-- 16 -->
     <g transform="translate(298.861881 186.497471) scale(0.1 -0.1)">
      <defs>
       <path id="DejaVuSans-36" d="M 2113 2584 
Q 1688 2584 1439 2293 
Q 1191 2003 1191 1497 
Q 1191 994 1439 701 
Q 1688 409 2113 409 
Q 2538 409 2786 701 
Q 3034 994 3034 1497 
Q 3034 2003 2786 2293 
Q 2538 2584 2113 2584 
z
M 3366 4563 
L 3366 3988 
Q 3128 4100 2886 4159 
Q 2644 4219 2406 4219 
Q 1781 4219 1451 3797 
Q 1122 3375 1075 2522 
Q 1259 2794 1537 2939 
Q 1816 3084 2150 3084 
Q 2853 3084 3261 2657 
Q 3669 2231 3669 1497 
Q 3669 778 3244 343 
Q 2819 -91 2113 -91 
Q 1303 -91 875 529 
Q 447 1150 447 2328 
Q 447 3434 972 4092 
Q 1497 4750 2381 4750 
Q 2619 4750 2861 4703 
Q 3103 4656 3366 4563 
z
" transform="scale(0.015625)"/>
      </defs>
      <use xlink:href="#DejaVuSans-31"/>
      <use xlink:href="#DejaVuSans-36" x="63.623047"/>
     </g>
    </g>
   </g>
   <g id="text_9">
    <g clip-path="url(#p563dad8d68)">
     <!-- 18 -->
     <g transform="translate(206.140084 74.917772) scale(0.1 -0.1)">
      <use xlink:href="#DejaVuSans-31"/>
      <use xlink:href="#DejaVuSans-38" x="63.623047"/>
     </g>
    </g>
   </g>
   <g id="text_10">
    <g clip-path="url(#p563dad8d68)">
     <!-- 19 -->
     <g transform="translate(244.397097 133.460967) scale(0.1 -0.1)">
      <defs>
       <path id="DejaVuSans-39" d="M 703 97 
L 703 672 
Q 941 559 1184 500 
Q 1428 441 1663 441 
Q 2288 441 2617 861 
Q 2947 1281 2994 2138 
Q 2813 1869 2534 1725 
Q 2256 1581 1919 1581 
Q 1219 1581 811 2004 
Q 403 2428 403 3163 
Q 403 3881 828 4315 
Q 1253 4750 1959 4750 
Q 2769 4750 3195 4129 
Q 3622 3509 3622 2328 
Q 3622 1225 3098 567 
Q 2575 -91 1691 -91 
Q 1453 -91 1209 -44 
Q 966 3 703 97 
z
M 1959 2075 
Q 2384 2075 2632 2365 
Q 2881 2656 2881 3163 
Q 2881 3666 2632 3958 
Q 2384 4250 1959 4250 
Q 1534 4250 1286 3958 
Q 1038 3666 1038 3163 
Q 1038 2656 1286 2365 
Q 1534 2075 1959 2075 
z
" transform="scale(0.015625)"/>
      </defs>
      <use xlink:href="#DejaVuSans-31"/>
      <use xlink:href="#DejaVuSans-39" x="63.623047"/>
     </g>
    </g>
   </g>
   <g id="text_11">
    <g clip-path="url(#p563dad8d68)">
     <!-- 23 -->
     <g transform="translate(129.661932 304.323495) scale(0.1 -0.1)">
      <use xlink:href="#DejaVuSans-32"/>
      <use xlink:href="#DejaVuSans-33" x="63.623047"/>
     </g>
    </g>
   </g>
   <g id="text_12">
    <g clip-path="url(#p563dad8d68)">
     <!-- 25 -->
     <g transform="translate(323.802065 246.882336) scale(0.1 -0.1)">
      <defs>
       <path id="DejaVuSans-35" d="M 691 4666 
L 3169 4666 
L 3169 4134 
L 1269 4134 
L 1269 2991 
Q 1406 3038 1543 3061 
Q 1681 3084 1819 3084 
Q 2600 3084 3056 2656 
Q 3513 2228 3513 1497 
Q 3513 744 3044 326 
Q 2575 -91 1722 -91 
Q 1428 -91 1123 -41 
Q 819 9 494 109 
L 494 744 
Q 775 591 1075 516 
Q 1375 441 1709 441 
Q 2250 441 2565 725 
Q 2881 1009 2881 1497 
Q 2881 1984 2565 2268 
Q 2250 2553 1709 2553 
Q 1456 2553 1204 2497 
Q 953 2441 691 2322 
L 691 4666 
z
" transform="scale(0.015625)"/>
      </defs>
      <use xlink:href="#DejaVuSans-32"/>
      <use xlink:href="#DejaVuSans-35" x="63.623047"/>
     </g>
    </g>
   </g>
   <g id="text_13">
    <g clip-path="url(#p563dad8d68)">
     <!-- 26 -->
     <g transform="translate(404.059129 241.359664) scale(0.1 -0.1)">
      <use xlink:href="#DejaVuSans-32"/>
      <use xlink:href="#DejaVuSans-36" x="63.623047"/>
     </g>
    </g>
   </g>
   <g id="text_14">
    <g clip-path="url(#p563dad8d68)">
     <!-- 28 -->
     <g transform="translate(258.109725 221.603498) scale(0.1 -0.1)">
      <use xlink:href="#DejaVuSans-32"/>
      <use xlink:href="#DejaVuSans-38" x="63.623047"/>
     </g>
    </g>
   </g>
   <g id="text_15">
    <g clip-path="url(#p563dad8d68)">
     <!-- 29 -->
     <g transform="translate(189.656292 241.521977) scale(0.1 -0.1)">
      <use xlink:href="#DejaVuSans-32"/>
      <use xlink:href="#DejaVuSans-39" x="63.623047"/>
     </g>
    </g>
   </g>
   <g id="text_16">
    <g clip-path="url(#p563dad8d68)">
     <!-- 30 -->
     <g transform="translate(38.50481 280.032845) scale(0.1 -0.1)">
      <use xlink:href="#DejaVuSans-33"/>
      <use xlink:href="#DejaVuSans-30" x="63.623047"/>
     </g>
    </g>
   </g>
   <g id="text_17">
    <g clip-path="url(#p563dad8d68)">
     <!-- 31 -->
     <g transform="translate(181.264588 267.925415) scale(0.1 -0.1)">
      <use xlink:href="#DejaVuSans-33"/>
      <use xlink:href="#DejaVuSans-31" x="63.623047"/>
     </g>
    </g>
   </g>
   <g id="text_18">
    <g clip-path="url(#p563dad8d68)">
     <!-- 36 -->
     <g transform="translate(414.450723 283.643334) scale(0.1 -0.1)">
      <use xlink:href="#DejaVuSans-33"/>
      <use xlink:href="#DejaVuSans-36" x="63.623047"/>
     </g>
    </g>
   </g>
   <g id="text_19">
    <g clip-path="url(#p563dad8d68)">
     <!-- 37 -->
     <g transform="translate(341.240413 144.353835) scale(0.1 -0.1)">
      <defs>
       <path id="DejaVuSans-37" d="M 525 4666 
L 3525 4666 
L 3525 4397 
L 1831 0 
L 1172 0 
L 2766 4134 
L 525 4134 
L 525 4666 
z
" transform="scale(0.015625)"/>
      </defs>
      <use xlink:href="#DejaVuSans-33"/>
      <use xlink:href="#DejaVuSans-37" x="63.623047"/>
     </g>
    </g>
   </g>
   <g id="text_20">
    <g clip-path="url(#p563dad8d68)">
     <!-- 41 -->
     <g transform="translate(387.373365 305.724564) scale(0.1 -0.1)">
      <use xlink:href="#DejaVuSans-34"/>
      <use xlink:href="#DejaVuSans-31" x="63.623047"/>
     </g>
    </g>
   </g>
   <g id="text_21">
    <g clip-path="url(#p563dad8d68)">
     <!-- 43 -->
     <g transform="translate(346.12404 261.22336) scale(0.1 -0.1)">
      <use xlink:href="#DejaVuSans-34"/>
      <use xlink:href="#DejaVuSans-33" x="63.623047"/>
     </g>
    </g>
   </g>
   <g id="text_22">
    <g clip-path="url(#p563dad8d68)">
     <!-- 44 -->
     <g transform="translate(349.851172 312.896401) scale(0.1 -0.1)">
      <use xlink:href="#DejaVuSans-34"/>
      <use xlink:href="#DejaVuSans-34" x="63.623047"/>
     </g>
    </g>
   </g>
   <g id="text_23">
    <g clip-path="url(#p563dad8d68)">
     <!-- 49 -->
     <g transform="translate(228.333126 212.622492) scale(0.1 -0.1)">
      <use xlink:href="#DejaVuSans-34"/>
      <use xlink:href="#DejaVuSans-39" x="63.623047"/>
     </g>
    </g>
   </g>
   <g id="text_24">
    <g clip-path="url(#p563dad8d68)">
     <!-- 50 -->
     <g transform="translate(209.375847 254.954141) scale(0.1 -0.1)">
      <use xlink:href="#DejaVuSans-35"/>
      <use xlink:href="#DejaVuSans-30" x="63.623047"/>
     </g>
    </g>
   </g>
   <g id="text_25">
    <g clip-path="url(#p563dad8d68)">
     <!-- 52 -->
     <g transform="translate(33.624277 248.536336) scale(0.1 -0.1)">
      <use xlink:href="#DejaVuSans-35"/>
      <use xlink:href="#DejaVuSans-32" x="63.623047"/>
     </g>
    </g>
   </g>
   <g id="text_26">
    <g clip-path="url(#p563dad8d68)">
     <!-- 53 -->
     <g transform="translate(241.402112 258.010407) scale(0.1 -0.1)">
      <use xlink:href="#DejaVuSans-35"/>
      <use xlink:href="#DejaVuSans-33" x="63.623047"/>
     </g>
    </g>
   </g>
  </g>
 </g>
 <defs>
  <clipPath id="p563dad8d68">
   <rect x="0" y="0" width="460.8" height="345.6"/>
  </clipPath>
 </defs>
</svg>
