<?xml version="1.0" encoding="utf-8" standalone="no"?>
<!DOCTYPE svg PUBLIC "-//W3C//DTD SVG 1.1//EN"
  "http://www.w3.org/Graphics/SVG/1.1/DTD/svg11.dtd">
<svg xmlns:xlink="http://www.w3.org/1999/xlink" width="460.8pt" height="345.6pt" viewBox="0 0 460.8 345.6" xmlns="http://www.w3.org/2000/svg" version="1.1">
 <metadata>
  <rdf:RDF xmlns:dc="http://purl.org/dc/elements/1.1/" xmlns:cc="http://creativecommons.org/ns#" xmlns:rdf="http://www.w3.org/1999/02/22-rdf-syntax-ns#">
   <cc:Work>
    <dc:type rdf:resource="http://purl.org/dc/dcmitype/StillImage"/>
    <dc:date>2024-02-07T13:46:34.381419</dc:date>
    <dc:format>image/svg+xml</dc:format>
    <dc:creator>
     <cc:Agent>
      <dc:title>Matplotlib v3.8.0, https://matplotlib.org/</dc:title>
     </cc:Agent>
    </dc:creator>
   </cc:Work>
  </rdf:RDF>
 </metadata>
 <defs>
  <style type="text/css">*{stroke-linejoin: round; stroke-linecap: butt}</style>
 </defs>
 <g id="figure_1">
  <g id="patch_1">
   <path d="M 0 345.6 
L 460.8 345.6 
L 460.8 0 
L 0 0 
z
" style="fill: #ffffff"/>
  </g>
  <g id="axes_1">
   <g id="patch_2">
    <path d="M 418.894145 178.436387 
Q 364.161384 171.549665 310.537911 164.802519 
" clip-path="url(#pb83e318164)" style="fill: none; stroke: #000000; stroke-linecap: round"/>
    <path d="M 314.256939 167.286233 
L 310.537911 164.802519 
L 314.756299 163.317525 
z
" clip-path="url(#pb83e318164)" style="stroke: #000000; stroke-linecap: round"/>
   </g>
   <g id="patch_3">
    <path d="M 223.559741 234.727795 
Q 208.75446 271.69697 194.364833 307.628247 
" clip-path="url(#pb83e318164)" style="fill: none; stroke: #000000; stroke-linecap: round"/>
    <path d="M 197.708568 304.658495 
L 194.364833 307.628247 
L 193.995272 303.171407 
z
" clip-path="url(#pb83e318164)" style="stroke: #000000; stroke-linecap: round"/>
   </g>
   <g id="patch_4">
    <path d="M 225.774976 231.700456 
Q 265.894475 198.675805 305.150772 166.361705 
" clip-path="url(#pb83e318164)" style="fill: none; stroke: #000000; stroke-linecap: round"/>
    <path d="M 300.791415 167.359706 
L 305.150772 166.361705 
L 303.333559 170.447991 
z
" clip-path="url(#pb83e318164)" style="stroke: #000000; stroke-linecap: round"/>
   </g>
   <g id="patch_5">
    <path d="M 224.636538 234.836889 
Q 232.038912 274.270682 239.235015 312.605633 
" clip-path="url(#pb83e318164)" style="fill: none; stroke: #000000; stroke-linecap: round"/>
    <path d="M 240.462706 308.30531 
L 239.235015 312.605633 
L 236.531372 309.043287 
z
" clip-path="url(#pb83e318164)" style="stroke: #000000; stroke-linecap: round"/>
   </g>
   <g id="patch_6">
    <path d="M 222.786554 234.169753 
Q 186.368826 264.375594 150.811646 293.867673 
" clip-path="url(#pb83e318164)" style="fill: none; stroke: #000000; stroke-linecap: round"/>
    <path d="M 155.167254 292.853436 
L 150.811646 293.867673 
L 152.613621 289.774644 
z
" clip-path="url(#pb83e318164)" style="stroke: #000000; stroke-linecap: round"/>
   </g>
   <g id="patch_7">
    <path d="M 226.056744 233.699911 
Q 264.677902 250.383756 302.272698 266.624226 
" clip-path="url(#pb83e318164)" style="fill: none; stroke: #000000; stroke-linecap: round"/>
    <path d="M 299.393808 263.201948 
L 302.272698 266.624226 
L 297.807541 266.873971 
z
" clip-path="url(#pb83e318164)" style="stroke: #000000; stroke-linecap: round"/>
   </g>
   <g id="patch_8">
    <path d="M 224.474085 231.005283 
Q 230.560246 170.915978 236.533743 111.939016 
" clip-path="url(#pb83e318164)" style="fill: none; stroke: #000000; stroke-linecap: round"/>
    <path d="M 234.140844 115.717115 
L 236.533743 111.939016 
L 238.120484 116.120194 
z
" clip-path="url(#pb83e318164)" style="stroke: #000000; stroke-linecap: round"/>
   </g>
   <g id="patch_9">
    <path d="M 222.423021 233.492354 
Q 181.145865 245.956738 140.93901 258.097924 
" clip-path="url(#pb83e318164)" style="fill: none; stroke: #000000; stroke-linecap: round"/>
    <path d="M 145.346386 258.856233 
L 140.93901 258.097924 
L 144.190083 255.027009 
z
" clip-path="url(#pb83e318164)" style="stroke: #000000; stroke-linecap: round"/>
   </g>
   <g id="patch_10">
    <path d="M 225.562769 234.382222 
Q 255.166545 267.824731 284.02926 300.430085 
" clip-path="url(#pb83e318164)" style="fill: none; stroke: #000000; stroke-linecap: round"/>
    <path d="M 282.875507 296.109338 
L 284.02926 300.430085 
L 279.88041 298.760639 
z
" clip-path="url(#pb83e318164)" style="stroke: #000000; stroke-linecap: round"/>
   </g>
   <g id="patch_11">
    <path d="M 222.962629 231.508297 
Q 188.864302 194.630162 155.525 158.57293 
" clip-path="url(#pb83e318164)" style="fill: none; stroke: #000000; stroke-linecap: round"/>
    <path d="M 156.772094 162.867666 
L 155.525 158.57293 
L 159.709045 160.152097 
z
" clip-path="url(#pb83e318164)" style="stroke: #000000; stroke-linecap: round"/>
   </g>
   <g id="patch_12">
    <path d="M 220.551101 32.69989 
Q 228.49398 69.853562 236.203123 105.913906 
" clip-path="url(#pb83e318164)" style="fill: none; stroke: #000000; stroke-linecap: round"/>
    <path d="M 237.322687 101.584174 
L 236.203123 105.913906 
L 233.411076 102.420416 
z
" clip-path="url(#pb83e318164)" style="stroke: #000000; stroke-linecap: round"/>
   </g>
   <g id="patch_13">
    <path d="M 193.948251 308.668462 
Q 208.753532 271.699287 223.14316 235.76801 
" clip-path="url(#pb83e318164)" style="fill: none; stroke: #000000; stroke-linecap: round"/>
    <path d="M 219.799424 238.737763 
L 223.14316 235.76801 
L 223.51272 240.224851 
z
" clip-path="url(#pb83e318164)" style="stroke: #000000; stroke-linecap: round"/>
   </g>
   <g id="patch_14">
    <path d="M 386.575605 208.256294 
Q 347.88757 186.807669 310.177352 165.901144 
" clip-path="url(#pb83e318164)" style="fill: none; stroke: #000000; stroke-linecap: round"/>
    <path d="M 312.705957 169.589797 
L 310.177352 165.901144 
L 314.645437 166.091452 
z
" clip-path="url(#pb83e318164)" style="stroke: #000000; stroke-linecap: round"/>
   </g>
   <g id="patch_15">
    <path d="M 309.427136 164.662756 
Q 364.159896 171.549478 417.783369 178.296624 
" clip-path="url(#pb83e318164)" style="fill: none; stroke: #000000; stroke-linecap: round"/>
    <path d="M 414.064342 175.81291 
L 417.783369 178.296624 
L 413.564981 179.781617 
z
" clip-path="url(#pb83e318164)" style="stroke: #000000; stroke-linecap: round"/>
   </g>
   <g id="patch_16">
    <path d="M 306.012026 165.652757 
Q 265.892527 198.677408 226.63623 230.991508 
" clip-path="url(#pb83e318164)" style="fill: none; stroke: #000000; stroke-linecap: round"/>
    <path d="M 230.995587 229.993507 
L 226.63623 230.991508 
L 228.453443 226.905222 
z
" clip-path="url(#pb83e318164)" style="stroke: #000000; stroke-linecap: round"/>
   </g>
   <g id="patch_17">
    <path d="M 309.201253 165.359995 
Q 347.889287 186.808621 385.599505 207.715145 
" clip-path="url(#pb83e318164)" style="fill: none; stroke: #000000; stroke-linecap: round"/>
    <path d="M 383.070901 204.026492 
L 385.599505 207.715145 
L 381.13142 207.524837 
z
" clip-path="url(#pb83e318164)" style="stroke: #000000; stroke-linecap: round"/>
   </g>
   <g id="patch_18">
    <path d="M 309.399016 164.012824 
Q 360.285357 153.0209 410.078868 142.265037 
" clip-path="url(#pb83e318164)" style="fill: none; stroke: #000000; stroke-linecap: round"/>
    <path d="M 405.746765 141.154684 
L 410.078868 142.265037 
L 406.591323 145.064508 
z
" clip-path="url(#pb83e318164)" style="stroke: #000000; stroke-linecap: round"/>
   </g>
   <g id="patch_19">
    <path d="M 305.983361 163.223369 
Q 272.173118 136.6594 239.242021 110.786157 
" clip-path="url(#pb83e318164)" style="fill: none; stroke: #000000; stroke-linecap: round"/>
    <path d="M 241.151742 114.830038 
L 239.242021 110.786157 
L 243.622957 111.684709 
z
" clip-path="url(#pb83e318164)" style="stroke: #000000; stroke-linecap: round"/>
   </g>
   <g id="patch_20">
    <path d="M 309.085199 163.294555 
Q 343.647726 138.602584 377.300527 114.560535 
" clip-path="url(#pb83e318164)" style="fill: none; stroke: #000000; stroke-linecap: round"/>
    <path d="M 372.883176 115.258397 
L 377.300527 114.560535 
L 375.208407 118.513133 
z
" clip-path="url(#pb83e318164)" style="stroke: #000000; stroke-linecap: round"/>
   </g>
   <g id="patch_21">
    <path d="M 305.575786 164.319826 
Q 230.482293 160.376698 156.505296 156.492196 
" clip-path="url(#pb83e318164)" style="fill: none; stroke: #000000; stroke-linecap: round"/>
    <path d="M 160.394918 158.699194 
L 156.505296 156.492196 
L 160.604668 154.704697 
z
" clip-path="url(#pb83e318164)" style="stroke: #000000; stroke-linecap: round"/>
   </g>
   <g id="patch_22">
    <path d="M 239.441376 313.704953 
Q 232.039002 274.27116 224.842899 235.936209 
" clip-path="url(#pb83e318164)" style="fill: none; stroke: #000000; stroke-linecap: round"/>
    <path d="M 223.615208 240.236531 
L 224.842899 235.936209 
L 227.546542 239.498555 
z
" clip-path="url(#pb83e318164)" style="stroke: #000000; stroke-linecap: round"/>
   </g>
   <g id="patch_23">
    <path d="M 149.953254 294.579646 
Q 186.370983 264.373805 221.928163 234.881726 
" clip-path="url(#pb83e318164)" style="fill: none; stroke: #000000; stroke-linecap: round"/>
    <path d="M 217.572554 235.895963 
L 221.928163 234.881726 
L 220.126187 238.974755 
z
" clip-path="url(#pb83e318164)" style="stroke: #000000; stroke-linecap: round"/>
   </g>
   <g id="patch_24">
    <path d="M 411.175787 142.028093 
Q 360.289446 153.020017 310.495935 163.775879 
" clip-path="url(#pb83e318164)" style="fill: none; stroke: #000000; stroke-linecap: round"/>
    <path d="M 314.828038 164.886233 
L 310.495935 163.775879 
L 313.98348 160.976409 
z
" clip-path="url(#pb83e318164)" style="stroke: #000000; stroke-linecap: round"/>
   </g>
   <g id="patch_25">
    <path d="M 308.407495 56.21526 
Q 273.405302 81.98291 239.303477 107.087735 
" clip-path="url(#pb83e318164)" style="fill: none; stroke: #000000; stroke-linecap: round"/>
    <path d="M 243.710429 106.326963 
L 239.303477 107.087735 
L 241.339031 103.10571 
z
" clip-path="url(#pb83e318164)" style="stroke: #000000; stroke-linecap: round"/>
   </g>
   <g id="patch_26">
    <path d="M 303.298526 267.067371 
Q 264.677368 250.383526 227.082572 234.143055 
" clip-path="url(#pb83e318164)" style="fill: none; stroke: #000000; stroke-linecap: round"/>
    <path d="M 229.961462 237.565334 
L 227.082572 234.143055 
L 231.547729 233.893311 
z
" clip-path="url(#pb83e318164)" style="stroke: #000000; stroke-linecap: round"/>
   </g>
   <g id="patch_27">
    <path d="M 53.632855 122.451936 
Q 102.62748 139.081229 150.56339 155.351183 
" clip-path="url(#pb83e318164)" style="fill: none; stroke: #000000; stroke-linecap: round"/>
    <path d="M 147.418424 152.171688 
L 150.56339 155.351183 
L 146.132815 155.959459 
z
" clip-path="url(#pb83e318164)" style="stroke: #000000; stroke-linecap: round"/>
   </g>
   <g id="patch_28">
    <path d="M 236.646395 110.826789 
Q 230.560234 170.916095 224.586738 229.893057 
" clip-path="url(#pb83e318164)" style="fill: none; stroke: #000000; stroke-linecap: round"/>
    <path d="M 226.979636 226.114957 
L 224.586738 229.893057 
L 222.999997 225.711878 
z
" clip-path="url(#pb83e318164)" style="stroke: #000000; stroke-linecap: round"/>
   </g>
   <g id="patch_29">
    <path d="M 236.437 107.007892 
Q 228.494121 69.85422 220.784979 33.793876 
" clip-path="url(#pb83e318164)" style="fill: none; stroke: #000000; stroke-linecap: round"/>
    <path d="M 219.665415 38.123608 
L 220.784979 33.793876 
L 223.577026 37.287366 
z
" clip-path="url(#pb83e318164)" style="stroke: #000000; stroke-linecap: round"/>
   </g>
   <g id="patch_30">
    <path d="M 238.366231 110.098068 
Q 272.176474 136.662037 305.107571 162.53528 
" clip-path="url(#pb83e318164)" style="fill: none; stroke: #000000; stroke-linecap: round"/>
    <path d="M 303.197851 158.491399 
L 305.107571 162.53528 
L 300.726635 161.636728 
z
" clip-path="url(#pb83e318164)" style="stroke: #000000; stroke-linecap: round"/>
   </g>
   <g id="patch_31">
    <path d="M 238.401441 107.751789 
Q 273.403633 81.984139 307.505458 56.879314 
" clip-path="url(#pb83e318164)" style="fill: none; stroke: #000000; stroke-linecap: round"/>
    <path d="M 303.098506 57.640086 
L 307.505458 56.879314 
L 305.469904 60.861339 
z
" clip-path="url(#pb83e318164)" style="stroke: #000000; stroke-linecap: round"/>
   </g>
   <g id="patch_32">
    <path d="M 235.459047 107.542669 
Q 205.684702 78.306928 176.708108 49.854509 
" clip-path="url(#pb83e318164)" style="fill: none; stroke: #000000; stroke-linecap: round"/>
    <path d="M 178.160985 54.084065 
L 176.708108 49.854509 
L 180.96348 51.229941 
z
" clip-path="url(#pb83e318164)" style="stroke: #000000; stroke-linecap: round"/>
   </g>
   <g id="patch_33">
    <path d="M 235.15941 109.856948 
Q 195.147711 132.615755 156.107835 154.821786 
" clip-path="url(#pb83e318164)" style="fill: none; stroke: #000000; stroke-linecap: round"/>
    <path d="M 160.573568 154.582562 
L 156.107835 154.821786 
L 158.595896 151.105665 
z
" clip-path="url(#pb83e318164)" style="stroke: #000000; stroke-linecap: round"/>
   </g>
   <g id="patch_34">
    <path d="M 237.600054 107.12053 
Q 253.6578 69.446233 269.277171 32.800442 
" clip-path="url(#pb83e318164)" style="fill: none; stroke: #000000; stroke-linecap: round"/>
    <path d="M 265.86894 35.69595 
L 269.277171 32.800442 
L 269.548639 37.264331 
z
" clip-path="url(#pb83e318164)" style="stroke: #000000; stroke-linecap: round"/>
   </g>
   <g id="patch_35">
    <path d="M 175.911278 49.072092 
Q 205.685623 78.307833 234.662216 106.760252 
" clip-path="url(#pb83e318164)" style="fill: none; stroke: #000000; stroke-linecap: round"/>
    <path d="M 233.209339 102.530696 
L 234.662216 106.760252 
L 230.406845 105.38482 
z
" clip-path="url(#pb83e318164)" style="stroke: #000000; stroke-linecap: round"/>
   </g>
   <g id="patch_36">
    <path d="M 378.210363 113.910535 
Q 343.647836 138.602506 309.995035 162.644555 
" clip-path="url(#pb83e318164)" style="fill: none; stroke: #000000; stroke-linecap: round"/>
    <path d="M 314.412386 161.946693 
L 309.995035 162.644555 
L 312.087155 158.691957 
z
" clip-path="url(#pb83e318164)" style="stroke: #000000; stroke-linecap: round"/>
   </g>
   <g id="patch_37">
    <path d="M 139.872577 258.419953 
Q 181.149733 245.95557 221.356588 233.814383 
" clip-path="url(#pb83e318164)" style="fill: none; stroke: #000000; stroke-linecap: round"/>
    <path d="M 216.949211 233.056074 
L 221.356588 233.814383 
L 218.105515 236.885299 
z
" clip-path="url(#pb83e318164)" style="stroke: #000000; stroke-linecap: round"/>
   </g>
   <g id="patch_38">
    <path d="M 284.769484 301.266295 
Q 255.165708 267.823786 226.302993 235.218432 
" clip-path="url(#pb83e318164)" style="fill: none; stroke: #000000; stroke-linecap: round"/>
    <path d="M 227.456746 239.539179 
L 226.302993 235.218432 
L 230.451843 236.887878 
z
" clip-path="url(#pb83e318164)" style="stroke: #000000; stroke-linecap: round"/>
   </g>
   <g id="patch_39">
    <path d="M 66.597178 191.687611 
Q 109.127807 174.374995 150.622909 157.483904 
" clip-path="url(#pb83e318164)" style="fill: none; stroke: #000000; stroke-linecap: round"/>
    <path d="M 146.164047 157.139587 
L 150.622909 157.483904 
L 147.672138 160.844403 
z
" clip-path="url(#pb83e318164)" style="stroke: #000000; stroke-linecap: round"/>
   </g>
   <g id="patch_40">
    <path d="M 154.769227 157.755544 
Q 188.867554 194.633679 222.206855 230.690911 
" clip-path="url(#pb83e318164)" style="fill: none; stroke: #000000; stroke-linecap: round"/>
    <path d="M 220.959762 226.396175 
L 222.206855 230.690911 
L 218.02281 229.111744 
z
" clip-path="url(#pb83e318164)" style="stroke: #000000; stroke-linecap: round"/>
   </g>
   <g id="patch_41">
    <path d="M 155.385182 156.43338 
Q 230.478675 160.376508 304.455671 164.261009 
" clip-path="url(#pb83e318164)" style="fill: none; stroke: #000000; stroke-linecap: round"/>
    <path d="M 300.566049 162.054011 
L 304.455671 164.261009 
L 300.3563 166.048508 
z
" clip-path="url(#pb83e318164)" style="stroke: #000000; stroke-linecap: round"/>
   </g>
   <g id="patch_42">
    <path d="M 151.6195 155.709638 
Q 102.624875 139.080345 54.688965 122.810391 
" clip-path="url(#pb83e318164)" style="fill: none; stroke: #000000; stroke-linecap: round"/>
    <path d="M 57.833931 125.989886 
L 54.688965 122.810391 
L 59.119541 122.202115 
z
" clip-path="url(#pb83e318164)" style="stroke: #000000; stroke-linecap: round"/>
   </g>
   <g id="patch_43">
    <path d="M 155.135036 155.375118 
Q 195.146735 132.61631 234.186611 110.410279 
" clip-path="url(#pb83e318164)" style="fill: none; stroke: #000000; stroke-linecap: round"/>
    <path d="M 229.720878 110.649503 
L 234.186611 110.410279 
L 231.69855 114.1264 
z
" clip-path="url(#pb83e318164)" style="stroke: #000000; stroke-linecap: round"/>
   </g>
   <g id="patch_44">
    <path d="M 151.659254 157.062047 
Q 109.128625 174.374663 67.633523 191.265754 
" clip-path="url(#pb83e318164)" style="fill: none; stroke: #000000; stroke-linecap: round"/>
    <path d="M 72.092385 191.610071 
L 67.633523 191.265754 
L 70.584294 187.905255 
z
" clip-path="url(#pb83e318164)" style="stroke: #000000; stroke-linecap: round"/>
   </g>
   <g id="patch_45">
    <path d="M 151.517255 156.371888 
Q 96.720351 157.503451 43.041244 158.611931 
" clip-path="url(#pb83e318164)" style="fill: none; stroke: #000000; stroke-linecap: round"/>
    <path d="M 47.081683 160.528921 
L 43.041244 158.611931 
L 46.9991 156.529774 
z
" clip-path="url(#pb83e318164)" style="stroke: #000000; stroke-linecap: round"/>
   </g>
   <g id="patch_46">
    <path d="M 152.054883 154.992025 
Q 123.03447 127.178395 94.821232 100.138374 
" clip-path="url(#pb83e318164)" style="fill: none; stroke: #000000; stroke-linecap: round"/>
    <path d="M 96.325192 104.350037 
L 94.821232 100.138374 
L 99.092938 101.462204 
z
" clip-path="url(#pb83e318164)" style="stroke: #000000; stroke-linecap: round"/>
   </g>
   <g id="patch_47">
    <path d="M 41.922433 158.635034 
Q 96.719336 157.503472 150.398444 156.394992 
" clip-path="url(#pb83e318164)" style="fill: none; stroke: #000000; stroke-linecap: round"/>
    <path d="M 146.358005 154.478001 
L 150.398444 156.394992 
L 146.440588 158.477149 
z
" clip-path="url(#pb83e318164)" style="stroke: #000000; stroke-linecap: round"/>
   </g>
   <g id="patch_48">
    <path d="M 94.013533 99.364263 
Q 123.033946 127.177892 151.247184 154.217914 
" clip-path="url(#pb83e318164)" style="fill: none; stroke: #000000; stroke-linecap: round"/>
    <path d="M 149.743224 150.006251 
L 151.247184 154.217914 
L 146.975478 152.894084 
z
" clip-path="url(#pb83e318164)" style="stroke: #000000; stroke-linecap: round"/>
   </g>
   <g id="patch_49">
    <path d="M 269.716499 31.769701 
Q 253.658753 69.443998 238.039382 106.089789 
" clip-path="url(#pb83e318164)" style="fill: none; stroke: #000000; stroke-linecap: round"/>
    <path d="M 241.447613 103.194281 
L 238.039382 106.089789 
L 237.767914 101.6259 
z
" clip-path="url(#pb83e318164)" style="stroke: #000000; stroke-linecap: round"/>
   </g>
   <g id="PathCollection_1">
    <defs>
     <path id="ma6cd9a2690" d="M 0 1.936492 
C 0.513564 1.936492 1.006162 1.732451 1.369306 1.369306 
C 1.732451 1.006162 1.936492 0.513564 1.936492 0 
C 1.936492 -0.513564 1.732451 -1.006162 1.369306 -1.369306 
C 1.006162 -1.732451 0.513564 -1.936492 0 -1.936492 
C -0.513564 -1.936492 -1.006162 -1.732451 -1.369306 -1.369306 
C -1.732451 -1.006162 -1.936492 -0.513564 -1.936492 0 
C -1.936492 0.513564 -1.732451 1.006162 -1.369306 1.369306 
C -1.006162 1.732451 -0.513564 1.936492 0 1.936492 
z
" style="stroke: #1f78b4"/>
    </defs>
    <g clip-path="url(#pb83e318164)">
     <use xlink:href="#ma6cd9a2690" x="420.813223" y="178.677854" style="fill: #1f78b4; stroke: #1f78b4"/>
     <use xlink:href="#ma6cd9a2690" x="224.278945" y="232.931924" style="fill: #1f78b4; stroke: #1f78b4"/>
     <use xlink:href="#ma6cd9a2690" x="220.146566" y="30.807633" style="fill: #1f78b4; stroke: #1f78b4"/>
     <use xlink:href="#ma6cd9a2690" x="193.229047" y="310.464333" style="fill: #1f78b4; stroke: #1f78b4"/>
     <use xlink:href="#ma6cd9a2690" x="388.2688" y="209.195001" style="fill: #1f78b4; stroke: #1f78b4"/>
     <use xlink:href="#ma6cd9a2690" x="307.508057" y="164.421289" style="fill: #1f78b4; stroke: #1f78b4"/>
     <use xlink:href="#ma6cd9a2690" x="239.798969" y="315.609917" style="fill: #1f78b4; stroke: #1f78b4"/>
     <use xlink:href="#ma6cd9a2690" x="148.460863" y="295.817475" style="fill: #1f78b4; stroke: #1f78b4"/>
     <use xlink:href="#ma6cd9a2690" x="413.066746" y="141.619628" style="fill: #1f78b4; stroke: #1f78b4"/>
     <use xlink:href="#ma6cd9a2690" x="309.9674" y="55.066901" style="fill: #1f78b4; stroke: #1f78b4"/>
     <use xlink:href="#ma6cd9a2690" x="305.076325" y="267.835358" style="fill: #1f78b4; stroke: #1f78b4"/>
     <use xlink:href="#ma6cd9a2690" x="51.799445" y="121.829657" style="fill: #1f78b4; stroke: #1f78b4"/>
     <use xlink:href="#ma6cd9a2690" x="236.841535" y="108.900148" style="fill: #1f78b4; stroke: #1f78b4"/>
     <use xlink:href="#ma6cd9a2690" x="174.52879" y="47.714613" style="fill: #1f78b4; stroke: #1f78b4"/>
     <use xlink:href="#ma6cd9a2690" x="379.787505" y="112.783802" style="fill: #1f78b4; stroke: #1f78b4"/>
     <use xlink:href="#ma6cd9a2690" x="138.016653" y="258.980383" style="fill: #1f78b4; stroke: #1f78b4"/>
     <use xlink:href="#ma6cd9a2690" x="286.053308" y="302.716593" style="fill: #1f78b4; stroke: #1f78b4"/>
     <use xlink:href="#ma6cd9a2690" x="64.803521" y="192.417741" style="fill: #1f78b4; stroke: #1f78b4"/>
     <use xlink:href="#ma6cd9a2690" x="153.452911" y="156.331917" style="fill: #1f78b4; stroke: #1f78b4"/>
     <use xlink:href="#ma6cd9a2690" x="39.986777" y="158.675006" style="fill: #1f78b4; stroke: #1f78b4"/>
     <use xlink:href="#ma6cd9a2690" x="92.615505" y="98.024371" style="fill: #1f78b4; stroke: #1f78b4"/>
     <use xlink:href="#ma6cd9a2690" x="270.475018" y="29.990083" style="fill: #1f78b4; stroke: #1f78b4"/>
    </g>
   </g>
   <g id="text_1">
    <g clip-path="url(#pb83e318164)">
     <!-- 0 -->
     <g transform="translate(417.631973 181.437229) scale(0.1 -0.1)">
      <defs>
       <path id="DejaVuSans-30" d="M 2034 4250 
Q 1547 4250 1301 3770 
Q 1056 3291 1056 2328 
Q 1056 1369 1301 889 
Q 1547 409 2034 409 
Q 2525 409 2770 889 
Q 3016 1369 3016 2328 
Q 3016 3291 2770 3770 
Q 2525 4250 2034 4250 
z
M 2034 4750 
Q 2819 4750 3233 4129 
Q 3647 3509 3647 2328 
Q 3647 1150 3233 529 
Q 2819 -91 2034 -91 
Q 1250 -91 836 529 
Q 422 1150 422 2328 
Q 422 3509 836 4129 
Q 1250 4750 2034 4750 
z
" transform="scale(0.015625)"/>
      </defs>
      <use xlink:href="#DejaVuSans-30"/>
     </g>
    </g>
   </g>
   <g id="text_2">
    <g clip-path="url(#pb83e318164)">
     <!-- 1 -->
     <g transform="translate(221.097695 235.691299) scale(0.1 -0.1)">
      <defs>
       <path id="DejaVuSans-31" d="M 794 531 
L 1825 531 
L 1825 4091 
L 703 3866 
L 703 4441 
L 1819 4666 
L 2450 4666 
L 2450 531 
L 3481 531 
L 3481 0 
L 794 0 
L 794 531 
z
" transform="scale(0.015625)"/>
      </defs>
      <use xlink:href="#DejaVuSans-31"/>
     </g>
    </g>
   </g>
   <g id="text_3">
    <g clip-path="url(#pb83e318164)">
     <!-- 2 -->
     <g transform="translate(216.965316 33.567008) scale(0.1 -0.1)">
      <defs>
       <path id="DejaVuSans-32" d="M 1228 531 
L 3431 531 
L 3431 0 
L 469 0 
L 469 531 
Q 828 903 1448 1529 
Q 2069 2156 2228 2338 
Q 2531 2678 2651 2914 
Q 2772 3150 2772 3378 
Q 2772 3750 2511 3984 
Q 2250 4219 1831 4219 
Q 1534 4219 1204 4116 
Q 875 4013 500 3803 
L 500 4441 
Q 881 4594 1212 4672 
Q 1544 4750 1819 4750 
Q 2544 4750 2975 4387 
Q 3406 4025 3406 3419 
Q 3406 3131 3298 2873 
Q 3191 2616 2906 2266 
Q 2828 2175 2409 1742 
Q 1991 1309 1228 531 
z
" transform="scale(0.015625)"/>
      </defs>
      <use xlink:href="#DejaVuSans-32"/>
     </g>
    </g>
   </g>
   <g id="text_4">
    <g clip-path="url(#pb83e318164)">
     <!-- 3 -->
     <g transform="translate(190.047797 313.223708) scale(0.1 -0.1)">
      <defs>
       <path id="DejaVuSans-33" d="M 2597 2516 
Q 3050 2419 3304 2112 
Q 3559 1806 3559 1356 
Q 3559 666 3084 287 
Q 2609 -91 1734 -91 
Q 1441 -91 1130 -33 
Q 819 25 488 141 
L 488 750 
Q 750 597 1062 519 
Q 1375 441 1716 441 
Q 2309 441 2620 675 
Q 2931 909 2931 1356 
Q 2931 1769 2642 2001 
Q 2353 2234 1838 2234 
L 1294 2234 
L 1294 2753 
L 1863 2753 
Q 2328 2753 2575 2939 
Q 2822 3125 2822 3475 
Q 2822 3834 2567 4026 
Q 2313 4219 1838 4219 
Q 1578 4219 1281 4162 
Q 984 4106 628 3988 
L 628 4550 
Q 988 4650 1302 4700 
Q 1616 4750 1894 4750 
Q 2613 4750 3031 4423 
Q 3450 4097 3450 3541 
Q 3450 3153 3228 2886 
Q 3006 2619 2597 2516 
z
" transform="scale(0.015625)"/>
      </defs>
      <use xlink:href="#DejaVuSans-33"/>
     </g>
    </g>
   </g>
   <g id="text_5">
    <g clip-path="url(#pb83e318164)">
     <!-- 4 -->
     <g transform="translate(385.08755 211.954376) scale(0.1 -0.1)">
      <defs>
       <path id="DejaVuSans-34" d="M 2419 4116 
L 825 1625 
L 2419 1625 
L 2419 4116 
z
M 2253 4666 
L 3047 4666 
L 3047 1625 
L 3713 1625 
L 3713 1100 
L 3047 1100 
L 3047 0 
L 2419 0 
L 2419 1100 
L 313 1100 
L 313 1709 
L 2253 4666 
z
" transform="scale(0.015625)"/>
      </defs>
      <use xlink:href="#DejaVuSans-34"/>
     </g>
    </g>
   </g>
   <g id="text_6">
    <g clip-path="url(#pb83e318164)">
     <!-- 5 -->
     <g transform="translate(304.326807 167.180664) scale(0.1 -0.1)">
      <defs>
       <path id="DejaVuSans-35" d="M 691 4666 
L 3169 4666 
L 3169 4134 
L 1269 4134 
L 1269 2991 
Q 1406 3038 1543 3061 
Q 1681 3084 1819 3084 
Q 2600 3084 3056 2656 
Q 3513 2228 3513 1497 
Q 3513 744 3044 326 
Q 2575 -91 1722 -91 
Q 1428 -91 1123 -41 
Q 819 9 494 109 
L 494 744 
Q 775 591 1075 516 
Q 1375 441 1709 441 
Q 2250 441 2565 725 
Q 2881 1009 2881 1497 
Q 2881 1984 2565 2268 
Q 2250 2553 1709 2553 
Q 1456 2553 1204 2497 
Q 953 2441 691 2322 
L 691 4666 
z
" transform="scale(0.015625)"/>
      </defs>
      <use xlink:href="#DejaVuSans-35"/>
     </g>
    </g>
   </g>
   <g id="text_7">
    <g clip-path="url(#pb83e318164)">
     <!-- 6 -->
     <g transform="translate(236.617719 318.369292) scale(0.1 -0.1)">
      <defs>
       <path id="DejaVuSans-36" d="M 2113 2584 
Q 1688 2584 1439 2293 
Q 1191 2003 1191 1497 
Q 1191 994 1439 701 
Q 1688 409 2113 409 
Q 2538 409 2786 701 
Q 3034 994 3034 1497 
Q 3034 2003 2786 2293 
Q 2538 2584 2113 2584 
z
M 3366 4563 
L 3366 3988 
Q 3128 4100 2886 4159 
Q 2644 4219 2406 4219 
Q 1781 4219 1451 3797 
Q 1122 3375 1075 2522 
Q 1259 2794 1537 2939 
Q 1816 3084 2150 3084 
Q 2853 3084 3261 2657 
Q 3669 2231 3669 1497 
Q 3669 778 3244 343 
Q 2819 -91 2113 -91 
Q 1303 -91 875 529 
Q 447 1150 447 2328 
Q 447 3434 972 4092 
Q 1497 4750 2381 4750 
Q 2619 4750 2861 4703 
Q 3103 4656 3366 4563 
z
" transform="scale(0.015625)"/>
      </defs>
      <use xlink:href="#DejaVuSans-36"/>
     </g>
    </g>
   </g>
   <g id="text_8">
    <g clip-path="url(#pb83e318164)">
     <!-- 7 -->
     <g transform="translate(145.279613 298.57685) scale(0.1 -0.1)">
      <defs>
       <path id="DejaVuSans-37" d="M 525 4666 
L 3525 4666 
L 3525 4397 
L 1831 0 
L 1172 0 
L 2766 4134 
L 525 4134 
L 525 4666 
z
" transform="scale(0.015625)"/>
      </defs>
      <use xlink:href="#DejaVuSans-37"/>
     </g>
    </g>
   </g>
   <g id="text_9">
    <g clip-path="url(#pb83e318164)">
     <!-- 8 -->
     <g transform="translate(409.885496 144.379003) scale(0.1 -0.1)">
      <defs>
       <path id="DejaVuSans-38" d="M 2034 2216 
Q 1584 2216 1326 1975 
Q 1069 1734 1069 1313 
Q 1069 891 1326 650 
Q 1584 409 2034 409 
Q 2484 409 2743 651 
Q 3003 894 3003 1313 
Q 3003 1734 2745 1975 
Q 2488 2216 2034 2216 
z
M 1403 2484 
Q 997 2584 770 2862 
Q 544 3141 544 3541 
Q 544 4100 942 4425 
Q 1341 4750 2034 4750 
Q 2731 4750 3128 4425 
Q 3525 4100 3525 3541 
Q 3525 3141 3298 2862 
Q 3072 2584 2669 2484 
Q 3125 2378 3379 2068 
Q 3634 1759 3634 1313 
Q 3634 634 3220 271 
Q 2806 -91 2034 -91 
Q 1263 -91 848 271 
Q 434 634 434 1313 
Q 434 1759 690 2068 
Q 947 2378 1403 2484 
z
M 1172 3481 
Q 1172 3119 1398 2916 
Q 1625 2713 2034 2713 
Q 2441 2713 2670 2916 
Q 2900 3119 2900 3481 
Q 2900 3844 2670 4047 
Q 2441 4250 2034 4250 
Q 1625 4250 1398 4047 
Q 1172 3844 1172 3481 
z
" transform="scale(0.015625)"/>
      </defs>
      <use xlink:href="#DejaVuSans-38"/>
     </g>
    </g>
   </g>
   <g id="text_10">
    <g clip-path="url(#pb83e318164)">
     <!-- 9 -->
     <g transform="translate(306.78615 57.826276) scale(0.1 -0.1)">
      <defs>
       <path id="DejaVuSans-39" d="M 703 97 
L 703 672 
Q 941 559 1184 500 
Q 1428 441 1663 441 
Q 2288 441 2617 861 
Q 2947 1281 2994 2138 
Q 2813 1869 2534 1725 
Q 2256 1581 1919 1581 
Q 1219 1581 811 2004 
Q 403 2428 403 3163 
Q 403 3881 828 4315 
Q 1253 4750 1959 4750 
Q 2769 4750 3195 4129 
Q 3622 3509 3622 2328 
Q 3622 1225 3098 567 
Q 2575 -91 1691 -91 
Q 1453 -91 1209 -44 
Q 966 3 703 97 
z
M 1959 2075 
Q 2384 2075 2632 2365 
Q 2881 2656 2881 3163 
Q 2881 3666 2632 3958 
Q 2384 4250 1959 4250 
Q 1534 4250 1286 3958 
Q 1038 3666 1038 3163 
Q 1038 2656 1286 2365 
Q 1534 2075 1959 2075 
z
" transform="scale(0.015625)"/>
      </defs>
      <use xlink:href="#DejaVuSans-39"/>
     </g>
    </g>
   </g>
   <g id="text_11">
    <g clip-path="url(#pb83e318164)">
     <!-- 10 -->
     <g transform="translate(298.713825 270.594733) scale(0.1 -0.1)">
      <use xlink:href="#DejaVuSans-31"/>
      <use xlink:href="#DejaVuSans-30" x="63.623047"/>
     </g>
    </g>
   </g>
   <g id="text_12">
    <g clip-path="url(#pb83e318164)">
     <!-- 11 -->
     <g transform="translate(45.436945 124.589032) scale(0.1 -0.1)">
      <use xlink:href="#DejaVuSans-31"/>
      <use xlink:href="#DejaVuSans-31" x="63.623047"/>
     </g>
    </g>
   </g>
   <g id="text_13">
    <g clip-path="url(#pb83e318164)">
     <!-- 12 -->
     <g transform="translate(230.479035 111.659523) scale(0.1 -0.1)">
      <use xlink:href="#DejaVuSans-31"/>
      <use xlink:href="#DejaVuSans-32" x="63.623047"/>
     </g>
    </g>
   </g>
   <g id="text_14">
    <g clip-path="url(#pb83e318164)">
     <!-- 13 -->
     <g transform="translate(168.16629 50.473988) scale(0.1 -0.1)">
      <use xlink:href="#DejaVuSans-31"/>
      <use xlink:href="#DejaVuSans-33" x="63.623047"/>
     </g>
    </g>
   </g>
   <g id="text_15">
    <g clip-path="url(#pb83e318164)">
     <!-- 14 -->
     <g transform="translate(373.425005 115.543177) scale(0.1 -0.1)">
      <use xlink:href="#DejaVuSans-31"/>
      <use xlink:href="#DejaVuSans-34" x="63.623047"/>
     </g>
    </g>
   </g>
   <g id="text_16">
    <g clip-path="url(#pb83e318164)">
     <!-- 15 -->
     <g transform="translate(131.654153 261.739758) scale(0.1 -0.1)">
      <use xlink:href="#DejaVuSans-31"/>
      <use xlink:href="#DejaVuSans-35" x="63.623047"/>
     </g>
    </g>
   </g>
   <g id="text_17">
    <g clip-path="url(#pb83e318164)">
     <!-- 16 -->
     <g transform="translate(279.690808 305.475968) scale(0.1 -0.1)">
      <use xlink:href="#DejaVuSans-31"/>
      <use xlink:href="#DejaVuSans-36" x="63.623047"/>
     </g>
    </g>
   </g>
   <g id="text_18">
    <g clip-path="url(#pb83e318164)">
     <!-- 17 -->
     <g transform="translate(58.441021 195.177116) scale(0.1 -0.1)">
      <use xlink:href="#DejaVuSans-31"/>
      <use xlink:href="#DejaVuSans-37" x="63.623047"/>
     </g>
    </g>
   </g>
   <g id="text_19">
    <g clip-path="url(#pb83e318164)">
     <!-- 18 -->
     <g transform="translate(147.090411 159.091292) scale(0.1 -0.1)">
      <use xlink:href="#DejaVuSans-31"/>
      <use xlink:href="#DejaVuSans-38" x="63.623047"/>
     </g>
    </g>
   </g>
   <g id="text_20">
    <g clip-path="url(#pb83e318164)">
     <!-- 19 -->
     <g transform="translate(33.624277 161.434381) scale(0.1 -0.1)">
      <use xlink:href="#DejaVuSans-31"/>
      <use xlink:href="#DejaVuSans-39" x="63.623047"/>
     </g>
    </g>
   </g>
   <g id="text_21">
    <g clip-path="url(#pb83e318164)">
     <!-- 20 -->
     <g transform="translate(86.253005 100.783746) scale(0.1 -0.1)">
      <use xlink:href="#DejaVuSans-32"/>
      <use xlink:href="#DejaVuSans-30" x="63.623047"/>
     </g>
    </g>
   </g>
   <g id="text_22">
    <g clip-path="url(#pb83e318164)">
     <!-- 21 -->
     <g transform="translate(264.112518 32.749458) scale(0.1 -0.1)">
      <use xlink:href="#DejaVuSans-32"/>
      <use xlink:href="#DejaVuSans-31" x="63.623047"/>
     </g>
    </g>
   </g>
  </g>
 </g>
 <defs>
  <clipPath id="pb83e318164">
   <rect x="0" y="0" width="460.8" height="345.6"/>
  </clipPath>
 </defs>
</svg>
