<?xml version="1.0" encoding="utf-8" standalone="no"?>
<!DOCTYPE svg PUBLIC "-//W3C//DTD SVG 1.1//EN"
  "http://www.w3.org/Graphics/SVG/1.1/DTD/svg11.dtd">
<svg xmlns:xlink="http://www.w3.org/1999/xlink" width="460.8pt" height="345.6pt" viewBox="0 0 460.8 345.6" xmlns="http://www.w3.org/2000/svg" version="1.1">
 <metadata>
  <rdf:RDF xmlns:dc="http://purl.org/dc/elements/1.1/" xmlns:cc="http://creativecommons.org/ns#" xmlns:rdf="http://www.w3.org/1999/02/22-rdf-syntax-ns#">
   <cc:Work>
    <dc:type rdf:resource="http://purl.org/dc/dcmitype/StillImage"/>
    <dc:date>2024-02-07T13:46:17.077927</dc:date>
    <dc:format>image/svg+xml</dc:format>
    <dc:creator>
     <cc:Agent>
      <dc:title>Matplotlib v3.8.0, https://matplotlib.org/</dc:title>
     </cc:Agent>
    </dc:creator>
   </cc:Work>
  </rdf:RDF>
 </metadata>
 <defs>
  <style type="text/css">*{stroke-linejoin: round; stroke-linecap: butt}</style>
 </defs>
 <g id="figure_1">
  <g id="patch_1">
   <path d="M 0 345.6 
L 460.8 345.6 
L 460.8 0 
L 0 0 
z
" style="fill: #ffffff"/>
  </g>
  <g id="axes_1">
   <g id="patch_2">
    <path d="M 234.102747 267.071985 
Q 218.537973 233.968057 203.448915 201.875907 
" clip-path="url(#p86ef31c04b)" style="fill: none; stroke: #000000; stroke-linecap: round"/>
    <path d="M 203.340968 206.34674 
L 203.448915 201.875907 
L 206.960813 204.644765 
z
" clip-path="url(#p86ef31c04b)" style="stroke: #000000; stroke-linecap: round"/>
   </g>
   <g id="patch_3">
    <path d="M 235.973851 267.192676 
Q 252.353169 241.769194 268.126969 217.285579 
" clip-path="url(#p86ef31c04b)" style="fill: none; stroke: #000000; stroke-linecap: round"/>
    <path d="M 264.279319 219.564963 
L 268.126969 217.285579 
L 267.641887 221.731329 
z
" clip-path="url(#p86ef31c04b)" style="stroke: #000000; stroke-linecap: round"/>
   </g>
   <g id="patch_4">
    <path d="M 156.706565 150.855378 
Q 185.274489 127.480108 212.977126 104.812847 
" clip-path="url(#p86ef31c04b)" style="fill: none; stroke: #000000; stroke-linecap: round"/>
    <path d="M 208.614852 105.798022 
L 212.977126 104.812847 
L 211.147902 108.89377 
z
" clip-path="url(#p86ef31c04b)" style="stroke: #000000; stroke-linecap: round"/>
   </g>
   <g id="patch_5">
    <path d="M 157.138862 152.039317 
Q 201.995588 151.009137 245.734575 150.004626 
" clip-path="url(#p86ef31c04b)" style="fill: none; stroke: #000000; stroke-linecap: round"/>
    <path d="M 241.689709 148.096993 
L 245.734575 150.004626 
L 241.781549 152.095939 
z
" clip-path="url(#p86ef31c04b)" style="stroke: #000000; stroke-linecap: round"/>
   </g>
   <g id="patch_6">
    <path d="M 327.246156 151.097382 
Q 289.46847 129.696841 252.663573 108.847371 
" clip-path="url(#p86ef31c04b)" style="fill: none; stroke: #000000; stroke-linecap: round"/>
    <path d="M 255.158144 112.559125 
L 252.663573 108.847371 
L 257.129719 109.078767 
z
" clip-path="url(#p86ef31c04b)" style="stroke: #000000; stroke-linecap: round"/>
   </g>
   <g id="patch_7">
    <path d="M 328.853579 150.114848 
Q 327.731927 121.603976 326.654225 94.210274 
" clip-path="url(#p86ef31c04b)" style="fill: none; stroke: #000000; stroke-linecap: round"/>
    <path d="M 324.813014 98.285804 
L 326.654225 94.210274 
L 328.809923 98.128561 
z
" clip-path="url(#p86ef31c04b)" style="stroke: #000000; stroke-linecap: round"/>
   </g>
   <g id="patch_8">
    <path d="M 327.599454 153.460529 
Q 299.355445 183.384157 271.878859 212.494727 
" clip-path="url(#p86ef31c04b)" style="fill: none; stroke: #000000; stroke-linecap: round"/>
    <path d="M 276.078913 210.958645 
L 271.878859 212.494727 
L 273.170026 208.213035 
z
" clip-path="url(#p86ef31c04b)" style="stroke: #000000; stroke-linecap: round"/>
   </g>
   <g id="patch_9">
    <path d="M 202.97042 200.85822 
Q 218.535194 233.962148 233.624252 266.054298 
" clip-path="url(#p86ef31c04b)" style="fill: none; stroke: #000000; stroke-linecap: round"/>
    <path d="M 233.732199 261.583465 
L 233.624252 266.054298 
L 230.112354 263.285441 
z
" clip-path="url(#p86ef31c04b)" style="stroke: #000000; stroke-linecap: round"/>
   </g>
   <g id="patch_10">
    <path d="M 202.411125 197.191781 
Q 208.744927 150.994718 214.926863 105.905326 
" clip-path="url(#p86ef31c04b)" style="fill: none; stroke: #000000; stroke-linecap: round"/>
    <path d="M 212.402067 109.596587 
L 214.926863 105.905326 
L 216.364993 110.13992 
z
" clip-path="url(#p86ef31c04b)" style="stroke: #000000; stroke-linecap: round"/>
   </g>
   <g id="patch_11">
    <path d="M 203.483363 197.701823 
Q 225.471932 174.519307 246.691097 152.147974 
" clip-path="url(#p86ef31c04b)" style="fill: none; stroke: #000000; stroke-linecap: round"/>
    <path d="M 242.487304 153.673794 
L 246.691097 152.147974 
L 245.389478 156.4265 
z
" clip-path="url(#p86ef31c04b)" style="stroke: #000000; stroke-linecap: round"/>
   </g>
   <g id="patch_12">
    <path d="M 280.402409 89.823672 
Q 248.823223 96.159948 218.340222 102.276277 
" clip-path="url(#p86ef31c04b)" style="fill: none; stroke: #000000; stroke-linecap: round"/>
    <path d="M 222.655509 103.450289 
L 218.340222 102.276277 
L 221.868604 99.528455 
z
" clip-path="url(#p86ef31c04b)" style="stroke: #000000; stroke-linecap: round"/>
   </g>
   <g id="patch_13">
    <path d="M 280.611491 90.379702 
Q 266.154664 98.391646 252.675737 105.86164 
" clip-path="url(#p86ef31c04b)" style="fill: none; stroke: #000000; stroke-linecap: round"/>
    <path d="M 257.143851 105.67202 
L 252.675737 105.86164 
L 255.20491 102.173377 
z
" clip-path="url(#p86ef31c04b)" style="stroke: #000000; stroke-linecap: round"/>
   </g>
   <g id="patch_14">
    <path d="M 281.364 91.137048 
Q 265.547505 119.687015 250.272807 147.258997 
" clip-path="url(#p86ef31c04b)" style="fill: none; stroke: #000000; stroke-linecap: round"/>
    <path d="M 253.960674 144.729247 
L 250.272807 147.258997 
L 250.461727 142.790853 
z
" clip-path="url(#p86ef31c04b)" style="stroke: #000000; stroke-linecap: round"/>
   </g>
   <g id="patch_15">
    <path d="M 326.610432 93.097104 
Q 327.732084 121.607976 328.809785 149.001678 
" clip-path="url(#p86ef31c04b)" style="fill: none; stroke: #000000; stroke-linecap: round"/>
    <path d="M 330.650996 144.926148 
L 328.809785 149.001678 
L 326.654088 145.083392 
z
" clip-path="url(#p86ef31c04b)" style="stroke: #000000; stroke-linecap: round"/>
   </g>
   <g id="patch_16">
    <path d="M 324.610244 91.36358 
Q 270.938125 97.019352 218.377883 102.557957 
" clip-path="url(#p86ef31c04b)" style="fill: none; stroke: #000000; stroke-linecap: round"/>
    <path d="M 222.56545 104.12776 
L 218.377883 102.557957 
L 222.146266 100.149785 
z
" clip-path="url(#p86ef31c04b)" style="stroke: #000000; stroke-linecap: round"/>
   </g>
   <g id="patch_17">
    <path d="M 324.642521 91.56081 
Q 288.269217 99.251317 252.989764 106.710548 
" clip-path="url(#p86ef31c04b)" style="fill: none; stroke: #000000; stroke-linecap: round"/>
    <path d="M 257.316966 107.839851 
L 252.989764 106.710548 
L 256.489528 103.926369 
z
" clip-path="url(#p86ef31c04b)" style="stroke: #000000; stroke-linecap: round"/>
   </g>
   <g id="patch_18">
    <path d="M 328.194381 90.157906 
Q 373.674224 62.682215 418.197107 35.78465 
" clip-path="url(#p86ef31c04b)" style="fill: none; stroke: #000000; stroke-linecap: round"/>
    <path d="M 413.739204 36.141159 
L 418.197107 35.78465 
L 415.807572 39.564878 
z
" clip-path="url(#p86ef31c04b)" style="stroke: #000000; stroke-linecap: round"/>
   </g>
   <g id="patch_19">
    <path d="M 324.989728 92.328487 
Q 287.663378 120.546931 251.228882 148.091139 
" clip-path="url(#p86ef31c04b)" style="fill: none; stroke: #000000; stroke-linecap: round"/>
    <path d="M 255.625791 147.274318 
L 251.228882 148.091139 
L 253.213571 144.08352 
z
" clip-path="url(#p86ef31c04b)" style="stroke: #000000; stroke-linecap: round"/>
   </g>
   <g id="patch_20">
    <path d="M 419.153099 35.207108 
Q 373.673256 62.682799 329.150372 89.580364 
" clip-path="url(#p86ef31c04b)" style="fill: none; stroke: #000000; stroke-linecap: round"/>
    <path d="M 333.608276 89.223855 
L 329.150372 89.580364 
L 331.539908 85.800136 
z
" clip-path="url(#p86ef31c04b)" style="stroke: #000000; stroke-linecap: round"/>
   </g>
   <g id="patch_21">
    <path d="M 268.733942 216.343454 
Q 252.354624 241.766935 236.580824 266.250551 
" clip-path="url(#p86ef31c04b)" style="fill: none; stroke: #000000; stroke-linecap: round"/>
    <path d="M 240.428474 263.971166 
L 236.580824 266.250551 
L 237.065906 261.804801 
z
" clip-path="url(#p86ef31c04b)" style="stroke: #000000; stroke-linecap: round"/>
   </g>
   <g id="patch_22">
    <path d="M 271.113127 213.305996 
Q 299.357135 183.382367 326.833722 154.271797 
" clip-path="url(#p86ef31c04b)" style="fill: none; stroke: #000000; stroke-linecap: round"/>
    <path d="M 322.633668 155.807879 
L 326.833722 154.271797 
L 325.542555 158.553489 
z
" clip-path="url(#p86ef31c04b)" style="stroke: #000000; stroke-linecap: round"/>
   </g>
   <g id="patch_23">
    <path d="M 269.350906 216.602868 
Q 258.238741 265.162188 247.375976 312.631646 
" clip-path="url(#p86ef31c04b)" style="fill: none; stroke: #000000; stroke-linecap: round"/>
    <path d="M 250.217864 309.178578 
L 247.375976 312.631646 
L 246.318655 308.286295 
z
" clip-path="url(#p86ef31c04b)" style="stroke: #000000; stroke-linecap: round"/>
   </g>
   <g id="patch_24">
    <path d="M 269.432158 212.811592 
Q 259.893961 161.027691 250.55829 110.343327 
" clip-path="url(#p86ef31c04b)" style="fill: none; stroke: #000000; stroke-linecap: round"/>
    <path d="M 249.315958 114.639443 
L 250.55829 110.343327 
L 253.249783 113.914863 
z
" clip-path="url(#p86ef31c04b)" style="stroke: #000000; stroke-linecap: round"/>
   </g>
   <g id="patch_25">
    <path d="M 269.18704 212.876836 
Q 259.286987 182.325725 249.731588 152.8382 
" clip-path="url(#p86ef31c04b)" style="fill: none; stroke: #000000; stroke-linecap: round"/>
    <path d="M 249.062059 157.259934 
L 249.731588 152.8382 
L 252.867258 156.026864 
z
" clip-path="url(#p86ef31c04b)" style="stroke: #000000; stroke-linecap: round"/>
   </g>
   <g id="patch_26">
    <path d="M 247.126359 313.722456 
Q 258.238524 265.163136 269.101288 217.693678 
" clip-path="url(#p86ef31c04b)" style="fill: none; stroke: #000000; stroke-linecap: round"/>
    <path d="M 266.2594 221.146746 
L 269.101288 217.693678 
L 270.158609 222.039029 
z
" clip-path="url(#p86ef31c04b)" style="stroke: #000000; stroke-linecap: round"/>
   </g>
   <g id="patch_27">
    <path d="M 213.840727 104.106218 
Q 185.272802 127.481488 157.570166 150.14875 
" clip-path="url(#p86ef31c04b)" style="fill: none; stroke: #000000; stroke-linecap: round"/>
    <path d="M 161.932439 149.163575 
L 157.570166 150.14875 
L 159.39939 146.067826 
z
" clip-path="url(#p86ef31c04b)" style="stroke: #000000; stroke-linecap: round"/>
   </g>
   <g id="patch_28">
    <path d="M 215.079014 104.795575 
Q 208.745212 150.992639 202.563276 196.08203 
" clip-path="url(#p86ef31c04b)" style="fill: none; stroke: #000000; stroke-linecap: round"/>
    <path d="M 205.088073 192.39077 
L 202.563276 196.08203 
L 201.125146 191.847437 
z
" clip-path="url(#p86ef31c04b)" style="stroke: #000000; stroke-linecap: round"/>
   </g>
   <g id="patch_29">
    <path d="M 217.24238 102.496556 
Q 248.821566 96.16028 279.304567 90.043951 
" clip-path="url(#p86ef31c04b)" style="fill: none; stroke: #000000; stroke-linecap: round"/>
    <path d="M 274.98928 88.86994 
L 279.304567 90.043951 
L 275.776185 92.791773 
z
" clip-path="url(#p86ef31c04b)" style="stroke: #000000; stroke-linecap: round"/>
   </g>
   <g id="patch_30">
    <path d="M 217.265952 102.675129 
Q 270.938071 97.019357 323.498312 91.480752 
" clip-path="url(#p86ef31c04b)" style="fill: none; stroke: #000000; stroke-linecap: round"/>
    <path d="M 319.310745 89.910949 
L 323.498312 91.480752 
L 319.72993 93.888924 
z
" clip-path="url(#p86ef31c04b)" style="stroke: #000000; stroke-linecap: round"/>
   </g>
   <g id="patch_31">
    <path d="M 214.541488 101.11445 
Q 201.179767 71.678072 188.280162 43.259755 
" clip-path="url(#p86ef31c04b)" style="fill: none; stroke: #000000; stroke-linecap: round"/>
    <path d="M 188.112319 47.72874 
L 188.280162 43.259755 
L 191.754645 46.07542 
z
" clip-path="url(#p86ef31c04b)" style="stroke: #000000; stroke-linecap: round"/>
   </g>
   <g id="patch_32">
    <path d="M 216.044246 101.076143 
Q 229.547841 66.433403 242.645388 32.832357 
" clip-path="url(#p86ef31c04b)" style="fill: none; stroke: #000000; stroke-linecap: round"/>
    <path d="M 239.32923 35.832872 
L 242.645388 32.832357 
L 243.056106 37.285593 
z
" clip-path="url(#p86ef31c04b)" style="stroke: #000000; stroke-linecap: round"/>
   </g>
   <g id="patch_33">
    <path d="M 217.258753 103.124705 
Q 232.670696 105.109327 246.973761 106.951157 
" clip-path="url(#p86ef31c04b)" style="fill: none; stroke: #000000; stroke-linecap: round"/>
    <path d="M 243.261953 104.456667 
L 246.973761 106.951157 
L 242.751085 108.423909 
z
" clip-path="url(#p86ef31c04b)" style="stroke: #000000; stroke-linecap: round"/>
   </g>
   <g id="patch_34">
    <path d="M 213.414983 102.705965 
Q 182.247788 99.925455 152.194204 97.244293 
" clip-path="url(#p86ef31c04b)" style="fill: none; stroke: #000000; stroke-linecap: round"/>
    <path d="M 156.000661 99.591821 
L 152.194204 97.244293 
L 156.3561 95.607644 
z
" clip-path="url(#p86ef31c04b)" style="stroke: #000000; stroke-linecap: round"/>
   </g>
   <g id="patch_35">
    <path d="M 216.462748 104.45466 
Q 232.06533 126.404816 247.020163 147.4437 
" clip-path="url(#p86ef31c04b)" style="fill: none; stroke: #000000; stroke-linecap: round"/>
    <path d="M 246.332836 143.024697 
L 247.020163 147.4437 
L 243.072565 145.342159 
z
" clip-path="url(#p86ef31c04b)" style="stroke: #000000; stroke-linecap: round"/>
   </g>
   <g id="patch_36">
    <path d="M 187.817146 42.239712 
Q 201.178867 71.67609 214.078472 100.094408 
" clip-path="url(#p86ef31c04b)" style="fill: none; stroke: #000000; stroke-linecap: round"/>
    <path d="M 214.246315 95.625422 
L 214.078472 100.094408 
L 210.60399 97.278742 
z
" clip-path="url(#p86ef31c04b)" style="stroke: #000000; stroke-linecap: round"/>
   </g>
   <g id="patch_37">
    <path d="M 188.344978 41.886319 
Q 218.511873 73.9098 247.912141 105.119474 
" clip-path="url(#p86ef31c04b)" style="fill: none; stroke: #000000; stroke-linecap: round"/>
    <path d="M 246.625157 100.836522 
L 247.912141 105.119474 
L 243.71359 103.57929 
z
" clip-path="url(#p86ef31c04b)" style="stroke: #000000; stroke-linecap: round"/>
   </g>
   <g id="patch_38">
    <path d="M 243.050988 31.791813 
Q 229.547393 66.434553 216.449846 100.0356 
" clip-path="url(#p86ef31c04b)" style="fill: none; stroke: #000000; stroke-linecap: round"/>
    <path d="M 219.766004 97.035084 
L 216.449846 100.0356 
L 216.039128 95.582364 
z
" clip-path="url(#p86ef31c04b)" style="stroke: #000000; stroke-linecap: round"/>
   </g>
   <g id="patch_39">
    <path d="M 243.909368 31.921036 
Q 246.879428 68.666898 249.759413 104.29836 
" clip-path="url(#p86ef31c04b)" style="fill: none; stroke: #000000; stroke-linecap: round"/>
    <path d="M 251.430655 100.150234 
L 249.759413 104.29836 
L 247.443657 100.472491 
z
" clip-path="url(#p86ef31c04b)" style="stroke: #000000; stroke-linecap: round"/>
   </g>
   <g id="patch_40">
    <path d="M 251.688982 108.295279 
Q 289.466669 129.695821 326.271566 150.54529 
" clip-path="url(#p86ef31c04b)" style="fill: none; stroke: #000000; stroke-linecap: round"/>
    <path d="M 323.776995 146.833536 
L 326.271566 150.54529 
L 321.80542 150.313894 
z
" clip-path="url(#p86ef31c04b)" style="stroke: #000000; stroke-linecap: round"/>
   </g>
   <g id="patch_41">
    <path d="M 251.696744 106.404196 
Q 266.153571 98.392252 279.632497 90.922258 
" clip-path="url(#p86ef31c04b)" style="fill: none; stroke: #000000; stroke-linecap: round"/>
    <path d="M 275.164383 91.111878 
L 279.632497 90.922258 
L 277.103324 94.610521 
z
" clip-path="url(#p86ef31c04b)" style="stroke: #000000; stroke-linecap: round"/>
   </g>
   <g id="patch_42">
    <path d="M 251.89712 106.941569 
Q 288.270424 99.251062 323.549877 91.791831 
" clip-path="url(#p86ef31c04b)" style="fill: none; stroke: #000000; stroke-linecap: round"/>
    <path d="M 319.222675 90.662528 
L 323.549877 91.791831 
L 320.050114 94.57601 
z
" clip-path="url(#p86ef31c04b)" style="stroke: #000000; stroke-linecap: round"/>
   </g>
   <g id="patch_43">
    <path d="M 250.356053 109.245359 
Q 259.89425 161.02926 269.229921 211.713623 
" clip-path="url(#p86ef31c04b)" style="fill: none; stroke: #000000; stroke-linecap: round"/>
    <path d="M 270.472253 207.417507 
L 269.229921 211.713623 
L 266.538428 208.142088 
z
" clip-path="url(#p86ef31c04b)" style="stroke: #000000; stroke-linecap: round"/>
   </g>
   <g id="patch_44">
    <path d="M 248.088571 107.094712 
Q 232.676627 105.110091 218.373562 103.268261 
" clip-path="url(#p86ef31c04b)" style="fill: none; stroke: #000000; stroke-linecap: round"/>
    <path d="M 222.085371 105.762751 
L 218.373562 103.268261 
L 222.596239 101.795508 
z
" clip-path="url(#p86ef31c04b)" style="stroke: #000000; stroke-linecap: round"/>
   </g>
   <g id="patch_45">
    <path d="M 248.677101 105.931513 
Q 218.510207 73.908032 189.109939 42.698358 
" clip-path="url(#p86ef31c04b)" style="fill: none; stroke: #000000; stroke-linecap: round"/>
    <path d="M 190.396922 46.98131 
L 189.109939 42.698358 
L 193.30849 44.238542 
z
" clip-path="url(#p86ef31c04b)" style="stroke: #000000; stroke-linecap: round"/>
   </g>
   <g id="patch_46">
    <path d="M 249.849311 105.41059 
Q 246.879252 68.664728 243.999267 33.033266 
" clip-path="url(#p86ef31c04b)" style="fill: none; stroke: #000000; stroke-linecap: round"/>
    <path d="M 242.328025 37.181392 
L 243.999267 33.033266 
L 246.315023 36.859135 
z
" clip-path="url(#p86ef31c04b)" style="stroke: #000000; stroke-linecap: round"/>
   </g>
   <g id="patch_47">
    <path d="M 248.081813 107.143782 
Q 199.582895 102.15763 152.196148 97.285819 
" clip-path="url(#p86ef31c04b)" style="fill: none; stroke: #000000; stroke-linecap: round"/>
    <path d="M 155.970634 99.684414 
L 152.196148 97.285819 
L 156.379716 95.705388 
z
" clip-path="url(#p86ef31c04b)" style="stroke: #000000; stroke-linecap: round"/>
   </g>
   <g id="patch_48">
    <path d="M 249.950148 109.278294 
Q 249.39806 128.636119 248.877845 146.876364 
" clip-path="url(#p86ef31c04b)" style="fill: none; stroke: #000000; stroke-linecap: round"/>
    <path d="M 250.991066 142.935007 
L 248.877845 146.876364 
L 246.992692 142.820973 
z
" clip-path="url(#p86ef31c04b)" style="stroke: #000000; stroke-linecap: round"/>
   </g>
   <g id="patch_49">
    <path d="M 41.842447 64.267523 
Q 94.573474 80.338371 146.235033 96.083276 
" clip-path="url(#p86ef31c04b)" style="fill: none; stroke: #000000; stroke-linecap: round"/>
    <path d="M 142.991851 93.004028 
L 146.235033 96.083276 
L 141.825726 96.830273 
z
" clip-path="url(#p86ef31c04b)" style="stroke: #000000; stroke-linecap: round"/>
   </g>
   <g id="patch_50">
    <path d="M 151.081784 97.145051 
Q 182.248979 99.925561 212.302563 102.606723 
" clip-path="url(#p86ef31c04b)" style="fill: none; stroke: #000000; stroke-linecap: round"/>
    <path d="M 208.496106 100.259195 
L 212.302563 102.606723 
L 208.140667 104.243372 
z
" clip-path="url(#p86ef31c04b)" style="stroke: #000000; stroke-linecap: round"/>
   </g>
   <g id="patch_51">
    <path d="M 151.078399 97.170904 
Q 199.577318 102.157056 246.964064 107.028867 
" clip-path="url(#p86ef31c04b)" style="fill: none; stroke: #000000; stroke-linecap: round"/>
    <path d="M 243.189579 104.630272 
L 246.964064 107.028867 
L 242.780497 108.609298 
z
" clip-path="url(#p86ef31c04b)" style="stroke: #000000; stroke-linecap: round"/>
   </g>
   <g id="patch_52">
    <path d="M 147.299157 96.407589 
Q 94.56813 80.336742 42.906571 64.591837 
" clip-path="url(#p86ef31c04b)" style="fill: none; stroke: #000000; stroke-linecap: round"/>
    <path d="M 46.149753 67.671085 
L 42.906571 64.591837 
L 47.315879 63.84484 
z
" clip-path="url(#p86ef31c04b)" style="stroke: #000000; stroke-linecap: round"/>
   </g>
   <g id="patch_53">
    <path d="M 150.86671 97.883091 
Q 198.972492 123.453666 246.091043 148.49948 
" clip-path="url(#p86ef31c04b)" style="fill: none; stroke: #000000; stroke-linecap: round"/>
    <path d="M 243.49774 144.856023 
L 246.091043 148.49948 
L 241.620296 148.388048 
z
" clip-path="url(#p86ef31c04b)" style="stroke: #000000; stroke-linecap: round"/>
   </g>
   <g id="patch_54">
    <path d="M 246.857119 149.978846 
Q 202.000393 151.009027 158.261406 152.013537 
" clip-path="url(#p86ef31c04b)" style="fill: none; stroke: #000000; stroke-linecap: round"/>
    <path d="M 162.306271 153.92117 
L 158.261406 152.013537 
L 162.214432 149.922224 
z
" clip-path="url(#p86ef31c04b)" style="stroke: #000000; stroke-linecap: round"/>
   </g>
   <g id="patch_55">
    <path d="M 247.455466 151.342101 
Q 225.466896 174.524616 204.247732 196.89595 
" clip-path="url(#p86ef31c04b)" style="fill: none; stroke: #000000; stroke-linecap: round"/>
    <path d="M 208.451524 195.370129 
L 204.247732 196.89595 
L 205.549351 192.617423 
z
" clip-path="url(#p86ef31c04b)" style="stroke: #000000; stroke-linecap: round"/>
   </g>
   <g id="patch_56">
    <path d="M 249.729478 148.239747 
Q 265.545973 119.68978 280.820671 92.117799 
" clip-path="url(#p86ef31c04b)" style="fill: none; stroke: #000000; stroke-linecap: round"/>
    <path d="M 277.132804 94.647549 
L 280.820671 92.117799 
L 280.631751 96.585942 
z
" clip-path="url(#p86ef31c04b)" style="stroke: #000000; stroke-linecap: round"/>
   </g>
   <g id="patch_57">
    <path d="M 250.335156 148.766789 
Q 287.661507 120.548345 324.096002 93.004137 
" clip-path="url(#p86ef31c04b)" style="fill: none; stroke: #000000; stroke-linecap: round"/>
    <path d="M 319.699094 93.820958 
L 324.096002 93.004137 
L 322.111314 97.011756 
z
" clip-path="url(#p86ef31c04b)" style="stroke: #000000; stroke-linecap: round"/>
   </g>
   <g id="patch_58">
    <path d="M 249.386415 151.773012 
Q 259.286468 182.324123 268.841867 211.811648 
" clip-path="url(#p86ef31c04b)" style="fill: none; stroke: #000000; stroke-linecap: round"/>
    <path d="M 269.511396 207.389914 
L 268.841867 211.811648 
L 265.706197 208.622984 
z
" clip-path="url(#p86ef31c04b)" style="stroke: #000000; stroke-linecap: round"/>
   </g>
   <g id="patch_59">
    <path d="M 247.669819 148.357655 
Q 232.067237 126.407498 217.112404 105.368615 
" clip-path="url(#p86ef31c04b)" style="fill: none; stroke: #000000; stroke-linecap: round"/>
    <path d="M 217.799731 109.787617 
L 217.112404 105.368615 
L 221.060002 107.470155 
z
" clip-path="url(#p86ef31c04b)" style="stroke: #000000; stroke-linecap: round"/>
   </g>
   <g id="patch_60">
    <path d="M 248.845865 147.997691 
Q 249.397953 128.639866 249.918168 110.399621 
" clip-path="url(#p86ef31c04b)" style="fill: none; stroke: #000000; stroke-linecap: round"/>
    <path d="M 247.804946 114.340978 
L 249.918168 110.399621 
L 251.803321 114.455012 
z
" clip-path="url(#p86ef31c04b)" style="stroke: #000000; stroke-linecap: round"/>
   </g>
   <g id="patch_61">
    <path d="M 247.078746 149.024492 
Q 198.972964 123.453917 151.854413 98.408104 
" clip-path="url(#p86ef31c04b)" style="fill: none; stroke: #000000; stroke-linecap: round"/>
    <path d="M 154.447716 102.05156 
L 151.854413 98.408104 
L 156.32516 98.519535 
z
" clip-path="url(#p86ef31c04b)" style="stroke: #000000; stroke-linecap: round"/>
   </g>
   <g id="patch_62">
    <path d="M 250.471992 150.900368 
Q 300.670246 179.738771 349.899057 208.020238 
" clip-path="url(#p86ef31c04b)" style="fill: none; stroke: #000000; stroke-linecap: round"/>
    <path d="M 347.426945 204.293488 
L 349.899057 208.020238 
L 345.43439 207.761877 
z
" clip-path="url(#p86ef31c04b)" style="stroke: #000000; stroke-linecap: round"/>
   </g>
   <g id="patch_63">
    <path d="M 350.866176 208.575838 
Q 300.667921 179.737435 251.43911 151.455968 
" clip-path="url(#p86ef31c04b)" style="fill: none; stroke: #000000; stroke-linecap: round"/>
    <path d="M 253.911222 155.182718 
L 251.43911 151.455968 
L 255.903777 151.714329 
z
" clip-path="url(#p86ef31c04b)" style="stroke: #000000; stroke-linecap: round"/>
   </g>
   <g id="PathCollection_1">
    <defs>
     <path id="m33c62a90e4" d="M 0 1.936492 
C 0.513564 1.936492 1.006162 1.732451 1.369306 1.369306 
C 1.732451 1.006162 1.936492 0.513564 1.936492 0 
C 1.936492 -0.513564 1.732451 -1.006162 1.369306 -1.369306 
C 1.006162 -1.732451 0.513564 -1.936492 0 -1.936492 
C -0.513564 -1.936492 -1.006162 -1.732451 -1.369306 -1.369306 
C -1.732451 -1.006162 -1.936492 -0.513564 -1.936492 0 
C -1.936492 0.513564 -1.732451 1.006162 -1.369306 1.369306 
C -1.006162 1.732451 -0.513564 1.936492 0 1.936492 
z
" style="stroke: #1f78b4"/>
    </defs>
    <g clip-path="url(#p86ef31c04b)">
     <use xlink:href="#m33c62a90e4" x="234.924967" y="268.820723" style="fill: #1f78b4; stroke: #1f78b4"/>
     <use xlink:href="#m33c62a90e4" x="155.205353" y="152.083722" style="fill: #1f78b4; stroke: #1f78b4"/>
     <use xlink:href="#m33c62a90e4" x="328.929754" y="152.051118" style="fill: #1f78b4; stroke: #1f78b4"/>
     <use xlink:href="#m33c62a90e4" x="202.1482" y="199.109482" style="fill: #1f78b4; stroke: #1f78b4"/>
     <use xlink:href="#m33c62a90e4" x="282.30285" y="89.442354" style="fill: #1f78b4; stroke: #1f78b4"/>
     <use xlink:href="#m33c62a90e4" x="326.534257" y="91.160835" style="fill: #1f78b4; stroke: #1f78b4"/>
     <use xlink:href="#m33c62a90e4" x="420.813223" y="34.204179" style="fill: #1f78b4; stroke: #1f78b4"/>
     <use xlink:href="#m33c62a90e4" x="269.782826" y="214.715407" style="fill: #1f78b4; stroke: #1f78b4"/>
     <use xlink:href="#m33c62a90e4" x="246.694438" y="315.609917" style="fill: #1f78b4; stroke: #1f78b4"/>
     <use xlink:href="#m33c62a90e4" x="215.341939" y="102.877874" style="fill: #1f78b4; stroke: #1f78b4"/>
     <use xlink:href="#m33c62a90e4" x="187.016695" y="40.476288" style="fill: #1f78b4; stroke: #1f78b4"/>
     <use xlink:href="#m33c62a90e4" x="243.753295" y="29.990083" style="fill: #1f78b4; stroke: #1f78b4"/>
     <use xlink:href="#m33c62a90e4" x="250.005385" y="107.341544" style="fill: #1f78b4; stroke: #1f78b4"/>
     <use xlink:href="#m33c62a90e4" x="39.986777" y="63.70197" style="fill: #1f78b4; stroke: #1f78b4"/>
     <use xlink:href="#m33c62a90e4" x="149.154828" y="96.973142" style="fill: #1f78b4; stroke: #1f78b4"/>
     <use xlink:href="#m33c62a90e4" x="248.790628" y="149.934441" style="fill: #1f78b4; stroke: #1f78b4"/>
     <use xlink:href="#m33c62a90e4" x="352.547539" y="209.541765" style="fill: #1f78b4; stroke: #1f78b4"/>
    </g>
   </g>
   <g id="text_1">
    <g clip-path="url(#p86ef31c04b)">
     <!-- 0 -->
     <g transform="translate(231.743717 271.580098) scale(0.1 -0.1)">
      <defs>
       <path id="DejaVuSans-30" d="M 2034 4250 
Q 1547 4250 1301 3770 
Q 1056 3291 1056 2328 
Q 1056 1369 1301 889 
Q 1547 409 2034 409 
Q 2525 409 2770 889 
Q 3016 1369 3016 2328 
Q 3016 3291 2770 3770 
Q 2525 4250 2034 4250 
z
M 2034 4750 
Q 2819 4750 3233 4129 
Q 3647 3509 3647 2328 
Q 3647 1150 3233 529 
Q 2819 -91 2034 -91 
Q 1250 -91 836 529 
Q 422 1150 422 2328 
Q 422 3509 836 4129 
Q 1250 4750 2034 4750 
z
" transform="scale(0.015625)"/>
      </defs>
      <use xlink:href="#DejaVuSans-30"/>
     </g>
    </g>
   </g>
   <g id="text_2">
    <g clip-path="url(#p86ef31c04b)">
     <!-- 1 -->
     <g transform="translate(152.024103 154.843097) scale(0.1 -0.1)">
      <defs>
       <path id="DejaVuSans-31" d="M 794 531 
L 1825 531 
L 1825 4091 
L 703 3866 
L 703 4441 
L 1819 4666 
L 2450 4666 
L 2450 531 
L 3481 531 
L 3481 0 
L 794 0 
L 794 531 
z
" transform="scale(0.015625)"/>
      </defs>
      <use xlink:href="#DejaVuSans-31"/>
     </g>
    </g>
   </g>
   <g id="text_3">
    <g clip-path="url(#p86ef31c04b)">
     <!-- 2 -->
     <g transform="translate(325.748504 154.810493) scale(0.1 -0.1)">
      <defs>
       <path id="DejaVuSans-32" d="M 1228 531 
L 3431 531 
L 3431 0 
L 469 0 
L 469 531 
Q 828 903 1448 1529 
Q 2069 2156 2228 2338 
Q 2531 2678 2651 2914 
Q 2772 3150 2772 3378 
Q 2772 3750 2511 3984 
Q 2250 4219 1831 4219 
Q 1534 4219 1204 4116 
Q 875 4013 500 3803 
L 500 4441 
Q 881 4594 1212 4672 
Q 1544 4750 1819 4750 
Q 2544 4750 2975 4387 
Q 3406 4025 3406 3419 
Q 3406 3131 3298 2873 
Q 3191 2616 2906 2266 
Q 2828 2175 2409 1742 
Q 1991 1309 1228 531 
z
" transform="scale(0.015625)"/>
      </defs>
      <use xlink:href="#DejaVuSans-32"/>
     </g>
    </g>
   </g>
   <g id="text_4">
    <g clip-path="url(#p86ef31c04b)">
     <!-- 3 -->
     <g transform="translate(198.96695 201.868857) scale(0.1 -0.1)">
      <defs>
       <path id="DejaVuSans-33" d="M 2597 2516 
Q 3050 2419 3304 2112 
Q 3559 1806 3559 1356 
Q 3559 666 3084 287 
Q 2609 -91 1734 -91 
Q 1441 -91 1130 -33 
Q 819 25 488 141 
L 488 750 
Q 750 597 1062 519 
Q 1375 441 1716 441 
Q 2309 441 2620 675 
Q 2931 909 2931 1356 
Q 2931 1769 2642 2001 
Q 2353 2234 1838 2234 
L 1294 2234 
L 1294 2753 
L 1863 2753 
Q 2328 2753 2575 2939 
Q 2822 3125 2822 3475 
Q 2822 3834 2567 4026 
Q 2313 4219 1838 4219 
Q 1578 4219 1281 4162 
Q 984 4106 628 3988 
L 628 4550 
Q 988 4650 1302 4700 
Q 1616 4750 1894 4750 
Q 2613 4750 3031 4423 
Q 3450 4097 3450 3541 
Q 3450 3153 3228 2886 
Q 3006 2619 2597 2516 
z
" transform="scale(0.015625)"/>
      </defs>
      <use xlink:href="#DejaVuSans-33"/>
     </g>
    </g>
   </g>
   <g id="text_5">
    <g clip-path="url(#p86ef31c04b)">
     <!-- 4 -->
     <g transform="translate(279.1216 92.201729) scale(0.1 -0.1)">
      <defs>
       <path id="DejaVuSans-34" d="M 2419 4116 
L 825 1625 
L 2419 1625 
L 2419 4116 
z
M 2253 4666 
L 3047 4666 
L 3047 1625 
L 3713 1625 
L 3713 1100 
L 3047 1100 
L 3047 0 
L 2419 0 
L 2419 1100 
L 313 1100 
L 313 1709 
L 2253 4666 
z
" transform="scale(0.015625)"/>
      </defs>
      <use xlink:href="#DejaVuSans-34"/>
     </g>
    </g>
   </g>
   <g id="text_6">
    <g clip-path="url(#p86ef31c04b)">
     <!-- 5 -->
     <g transform="translate(323.353007 93.92021) scale(0.1 -0.1)">
      <defs>
       <path id="DejaVuSans-35" d="M 691 4666 
L 3169 4666 
L 3169 4134 
L 1269 4134 
L 1269 2991 
Q 1406 3038 1543 3061 
Q 1681 3084 1819 3084 
Q 2600 3084 3056 2656 
Q 3513 2228 3513 1497 
Q 3513 744 3044 326 
Q 2575 -91 1722 -91 
Q 1428 -91 1123 -41 
Q 819 9 494 109 
L 494 744 
Q 775 591 1075 516 
Q 1375 441 1709 441 
Q 2250 441 2565 725 
Q 2881 1009 2881 1497 
Q 2881 1984 2565 2268 
Q 2250 2553 1709 2553 
Q 1456 2553 1204 2497 
Q 953 2441 691 2322 
L 691 4666 
z
" transform="scale(0.015625)"/>
      </defs>
      <use xlink:href="#DejaVuSans-35"/>
     </g>
    </g>
   </g>
   <g id="text_7">
    <g clip-path="url(#p86ef31c04b)">
     <!-- 6 -->
     <g transform="translate(417.631973 36.963554) scale(0.1 -0.1)">
      <defs>
       <path id="DejaVuSans-36" d="M 2113 2584 
Q 1688 2584 1439 2293 
Q 1191 2003 1191 1497 
Q 1191 994 1439 701 
Q 1688 409 2113 409 
Q 2538 409 2786 701 
Q 3034 994 3034 1497 
Q 3034 2003 2786 2293 
Q 2538 2584 2113 2584 
z
M 3366 4563 
L 3366 3988 
Q 3128 4100 2886 4159 
Q 2644 4219 2406 4219 
Q 1781 4219 1451 3797 
Q 1122 3375 1075 2522 
Q 1259 2794 1537 2939 
Q 1816 3084 2150 3084 
Q 2853 3084 3261 2657 
Q 3669 2231 3669 1497 
Q 3669 778 3244 343 
Q 2819 -91 2113 -91 
Q 1303 -91 875 529 
Q 447 1150 447 2328 
Q 447 3434 972 4092 
Q 1497 4750 2381 4750 
Q 2619 4750 2861 4703 
Q 3103 4656 3366 4563 
z
" transform="scale(0.015625)"/>
      </defs>
      <use xlink:href="#DejaVuSans-36"/>
     </g>
    </g>
   </g>
   <g id="text_8">
    <g clip-path="url(#p86ef31c04b)">
     <!-- 7 -->
     <g transform="translate(266.601576 217.474782) scale(0.1 -0.1)">
      <defs>
       <path id="DejaVuSans-37" d="M 525 4666 
L 3525 4666 
L 3525 4397 
L 1831 0 
L 1172 0 
L 2766 4134 
L 525 4134 
L 525 4666 
z
" transform="scale(0.015625)"/>
      </defs>
      <use xlink:href="#DejaVuSans-37"/>
     </g>
    </g>
   </g>
   <g id="text_9">
    <g clip-path="url(#p86ef31c04b)">
     <!-- 8 -->
     <g transform="translate(243.513188 318.369292) scale(0.1 -0.1)">
      <defs>
       <path id="DejaVuSans-38" d="M 2034 2216 
Q 1584 2216 1326 1975 
Q 1069 1734 1069 1313 
Q 1069 891 1326 650 
Q 1584 409 2034 409 
Q 2484 409 2743 651 
Q 3003 894 3003 1313 
Q 3003 1734 2745 1975 
Q 2488 2216 2034 2216 
z
M 1403 2484 
Q 997 2584 770 2862 
Q 544 3141 544 3541 
Q 544 4100 942 4425 
Q 1341 4750 2034 4750 
Q 2731 4750 3128 4425 
Q 3525 4100 3525 3541 
Q 3525 3141 3298 2862 
Q 3072 2584 2669 2484 
Q 3125 2378 3379 2068 
Q 3634 1759 3634 1313 
Q 3634 634 3220 271 
Q 2806 -91 2034 -91 
Q 1263 -91 848 271 
Q 434 634 434 1313 
Q 434 1759 690 2068 
Q 947 2378 1403 2484 
z
M 1172 3481 
Q 1172 3119 1398 2916 
Q 1625 2713 2034 2713 
Q 2441 2713 2670 2916 
Q 2900 3119 2900 3481 
Q 2900 3844 2670 4047 
Q 2441 4250 2034 4250 
Q 1625 4250 1398 4047 
Q 1172 3844 1172 3481 
z
" transform="scale(0.015625)"/>
      </defs>
      <use xlink:href="#DejaVuSans-38"/>
     </g>
    </g>
   </g>
   <g id="text_10">
    <g clip-path="url(#p86ef31c04b)">
     <!-- 9 -->
     <g transform="translate(212.160689 105.637249) scale(0.1 -0.1)">
      <defs>
       <path id="DejaVuSans-39" d="M 703 97 
L 703 672 
Q 941 559 1184 500 
Q 1428 441 1663 441 
Q 2288 441 2617 861 
Q 2947 1281 2994 2138 
Q 2813 1869 2534 1725 
Q 2256 1581 1919 1581 
Q 1219 1581 811 2004 
Q 403 2428 403 3163 
Q 403 3881 828 4315 
Q 1253 4750 1959 4750 
Q 2769 4750 3195 4129 
Q 3622 3509 3622 2328 
Q 3622 1225 3098 567 
Q 2575 -91 1691 -91 
Q 1453 -91 1209 -44 
Q 966 3 703 97 
z
M 1959 2075 
Q 2384 2075 2632 2365 
Q 2881 2656 2881 3163 
Q 2881 3666 2632 3958 
Q 2384 4250 1959 4250 
Q 1534 4250 1286 3958 
Q 1038 3666 1038 3163 
Q 1038 2656 1286 2365 
Q 1534 2075 1959 2075 
z
" transform="scale(0.015625)"/>
      </defs>
      <use xlink:href="#DejaVuSans-39"/>
     </g>
    </g>
   </g>
   <g id="text_11">
    <g clip-path="url(#p86ef31c04b)">
     <!-- 10 -->
     <g transform="translate(180.654195 43.235663) scale(0.1 -0.1)">
      <use xlink:href="#DejaVuSans-31"/>
      <use xlink:href="#DejaVuSans-30" x="63.623047"/>
     </g>
    </g>
   </g>
   <g id="text_12">
    <g clip-path="url(#p86ef31c04b)">
     <!-- 11 -->
     <g transform="translate(237.390795 32.749458) scale(0.1 -0.1)">
      <use xlink:href="#DejaVuSans-31"/>
      <use xlink:href="#DejaVuSans-31" x="63.623047"/>
     </g>
    </g>
   </g>
   <g id="text_13">
    <g clip-path="url(#p86ef31c04b)">
     <!-- 12 -->
     <g transform="translate(243.642885 110.100919) scale(0.1 -0.1)">
      <use xlink:href="#DejaVuSans-31"/>
      <use xlink:href="#DejaVuSans-32" x="63.623047"/>
     </g>
    </g>
   </g>
   <g id="text_14">
    <g clip-path="url(#p86ef31c04b)">
     <!-- 13 -->
     <g transform="translate(33.624277 66.461345) scale(0.1 -0.1)">
      <use xlink:href="#DejaVuSans-31"/>
      <use xlink:href="#DejaVuSans-33" x="63.623047"/>
     </g>
    </g>
   </g>
   <g id="text_15">
    <g clip-path="url(#p86ef31c04b)">
     <!-- 14 -->
     <g transform="translate(142.792328 99.732517) scale(0.1 -0.1)">
      <use xlink:href="#DejaVuSans-31"/>
      <use xlink:href="#DejaVuSans-34" x="63.623047"/>
     </g>
    </g>
   </g>
   <g id="text_16">
    <g clip-path="url(#p86ef31c04b)">
     <!-- 15 -->
     <g transform="translate(242.428128 152.693816) scale(0.1 -0.1)">
      <use xlink:href="#DejaVuSans-31"/>
      <use xlink:href="#DejaVuSans-35" x="63.623047"/>
     </g>
    </g>
   </g>
   <g id="text_17">
    <g clip-path="url(#p86ef31c04b)">
     <!-- 16 -->
     <g transform="translate(346.185039 212.30114) scale(0.1 -0.1)">
      <use xlink:href="#DejaVuSans-31"/>
      <use xlink:href="#DejaVuSans-36" x="63.623047"/>
     </g>
    </g>
   </g>
  </g>
 </g>
 <defs>
  <clipPath id="p86ef31c04b">
   <rect x="0" y="0" width="460.8" height="345.6"/>
  </clipPath>
 </defs>
</svg>
