<?xml version="1.0" encoding="utf-8" standalone="no"?>
<!DOCTYPE svg PUBLIC "-//W3C//DTD SVG 1.1//EN"
  "http://www.w3.org/Graphics/SVG/1.1/DTD/svg11.dtd">
<svg xmlns:xlink="http://www.w3.org/1999/xlink" width="460.8pt" height="345.6pt" viewBox="0 0 460.8 345.6" xmlns="http://www.w3.org/2000/svg" version="1.1">
 <metadata>
  <rdf:RDF xmlns:dc="http://purl.org/dc/elements/1.1/" xmlns:cc="http://creativecommons.org/ns#" xmlns:rdf="http://www.w3.org/1999/02/22-rdf-syntax-ns#">
   <cc:Work>
    <dc:type rdf:resource="http://purl.org/dc/dcmitype/StillImage"/>
    <dc:date>2024-02-07T13:46:16.607433</dc:date>
    <dc:format>image/svg+xml</dc:format>
    <dc:creator>
     <cc:Agent>
      <dc:title>Matplotlib v3.8.0, https://matplotlib.org/</dc:title>
     </cc:Agent>
    </dc:creator>
   </cc:Work>
  </rdf:RDF>
 </metadata>
 <defs>
  <style type="text/css">*{stroke-linejoin: round; stroke-linecap: butt}</style>
 </defs>
 <g id="figure_1">
  <g id="patch_1">
   <path d="M 0 345.6 
L 460.8 345.6 
L 460.8 0 
L 0 0 
z
" style="fill: #ffffff"/>
  </g>
  <g id="axes_1">
   <g id="patch_2">
    <path d="M 398.003041 251.638558 
Q 377.594146 224.177713 357.85216 197.614216 
" clip-path="url(#peaca690067)" style="fill: none; stroke: #000000; stroke-linecap: round"/>
    <path d="M 358.63294 202.017667 
L 357.85216 197.614216 
L 361.843389 199.631663 
z
" clip-path="url(#peaca690067)" style="stroke: #000000; stroke-linecap: round"/>
   </g>
   <g id="patch_3">
    <path d="M 397.245073 252.898799 
Q 347.678116 245.265992 299.216169 237.803344 
" clip-path="url(#peaca690067)" style="fill: none; stroke: #000000; stroke-linecap: round"/>
    <path d="M 302.865179 240.388828 
L 299.216169 237.803344 
L 303.473962 236.435427 
z
" clip-path="url(#peaca690067)" style="stroke: #000000; stroke-linecap: round"/>
   </g>
   <g id="patch_4">
    <path d="M 170.68144 134.916346 
Q 212.020594 136.379165 252.242414 137.802447 
" clip-path="url(#peaca690067)" style="fill: none; stroke: #000000; stroke-linecap: round"/>
    <path d="M 248.315643 135.662243 
L 252.242414 137.802447 
L 248.174188 139.659741 
z
" clip-path="url(#peaca690067)" style="stroke: #000000; stroke-linecap: round"/>
   </g>
   <g id="patch_5">
    <path d="M 170.651443 135.206771 
Q 227.118005 145.84021 282.485844 156.266744 
" clip-path="url(#peaca690067)" style="fill: none; stroke: #000000; stroke-linecap: round"/>
    <path d="M 278.925058 153.561045 
L 282.485844 156.266744 
L 278.184814 157.491953 
z
" clip-path="url(#peaca690067)" style="stroke: #000000; stroke-linecap: round"/>
   </g>
   <g id="patch_6">
    <path d="M 209.445026 226.553639 
Q 228.23968 195.689567 246.45284 165.78041 
" clip-path="url(#peaca690067)" style="fill: none; stroke: #000000; stroke-linecap: round"/>
    <path d="M 242.664215 168.156609 
L 246.45284 165.78041 
L 246.080625 170.237029 
z
" clip-path="url(#peaca690067)" style="stroke: #000000; stroke-linecap: round"/>
   </g>
   <g id="patch_7">
    <path d="M 207.063248 226.846496 
Q 188.232387 208.172098 170.195387 190.284964 
" clip-path="url(#peaca690067)" style="fill: none; stroke: #000000; stroke-linecap: round"/>
    <path d="M 171.627287 194.521668 
L 170.195387 190.284964 
L 174.44389 191.681466 
z
" clip-path="url(#peaca690067)" style="stroke: #000000; stroke-linecap: round"/>
   </g>
   <g id="patch_8">
    <path d="M 210.362682 228.409212 
Q 252.316771 232.77361 293.158826 237.022325 
" clip-path="url(#peaca690067)" style="fill: none; stroke: #000000; stroke-linecap: round"/>
    <path d="M 289.387235 234.619181 
L 293.158826 237.022325 
L 288.973356 238.597712 
z
" clip-path="url(#peaca690067)" style="stroke: #000000; stroke-linecap: round"/>
   </g>
   <g id="patch_9">
    <path d="M 357.185473 196.717167 
Q 377.594368 224.178012 397.336354 250.741509 
" clip-path="url(#peaca690067)" style="fill: none; stroke: #000000; stroke-linecap: round"/>
    <path d="M 396.555573 246.338057 
L 397.336354 250.741509 
L 393.345125 248.724062 
z
" clip-path="url(#peaca690067)" style="stroke: #000000; stroke-linecap: round"/>
   </g>
   <g id="patch_10">
    <path d="M 354.348263 194.206542 
Q 305.662904 166.536951 257.949564 139.419792 
" clip-path="url(#peaca690067)" style="fill: none; stroke: #000000; stroke-linecap: round"/>
    <path d="M 260.438941 143.135031 
L 257.949564 139.419792 
L 262.415381 139.657433 
z
" clip-path="url(#peaca690067)" style="stroke: #000000; stroke-linecap: round"/>
   </g>
   <g id="patch_11">
    <path d="M 354.329164 194.238154 
Q 320.759199 175.997403 288.171612 158.290443 
" clip-path="url(#peaca690067)" style="fill: none; stroke: #000000; stroke-linecap: round"/>
    <path d="M 290.731403 161.957522 
L 288.171612 158.290443 
L 292.64115 158.442857 
z
" clip-path="url(#peaca690067)" style="stroke: #000000; stroke-linecap: round"/>
   </g>
   <g id="patch_12">
    <path d="M 309.761803 114.68176 
Q 283.41709 125.916839 258.100796 136.713334 
" clip-path="url(#peaca690067)" style="fill: none; stroke: #000000; stroke-linecap: round"/>
    <path d="M 262.564739 136.9839 
L 258.100796 136.713334 
L 260.995615 133.304519 
z
" clip-path="url(#peaca690067)" style="stroke: #000000; stroke-linecap: round"/>
   </g>
   <g id="patch_13">
    <path d="M 310.012647 115.109276 
Q 279.792381 138.547423 250.455579 161.300376 
" clip-path="url(#peaca690067)" style="fill: none; stroke: #000000; stroke-linecap: round"/>
    <path d="M 254.842068 160.429338 
L 250.455579 161.300376 
L 252.390642 157.268561 
z
" clip-path="url(#peaca690067)" style="stroke: #000000; stroke-linecap: round"/>
   </g>
   <g id="patch_14">
    <path d="M 310.536959 115.579713 
Q 298.514482 135.378747 287.072298 154.222134 
" clip-path="url(#peaca690067)" style="fill: none; stroke: #000000; stroke-linecap: round"/>
    <path d="M 290.857929 151.841169 
L 287.072298 154.222134 
L 287.438904 149.76505 
z
" clip-path="url(#peaca690067)" style="stroke: #000000; stroke-linecap: round"/>
   </g>
   <g id="patch_15">
    <path d="M 169.400579 189.49676 
Q 188.23144 208.171159 206.268441 226.058293 
" clip-path="url(#peaca690067)" style="fill: none; stroke: #000000; stroke-linecap: round"/>
    <path d="M 204.83654 221.821589 
L 206.268441 226.058293 
L 202.019937 224.66179 
z
" clip-path="url(#peaca690067)" style="stroke: #000000; stroke-linecap: round"/>
   </g>
   <g id="patch_16">
    <path d="M 169.707233 187.167221 
Q 211.660787 163.0221 252.645328 139.434665 
" clip-path="url(#peaca690067)" style="fill: none; stroke: #000000; stroke-linecap: round"/>
    <path d="M 248.180863 139.696482 
L 252.645328 139.434665 
L 250.176103 143.163328 
z
" clip-path="url(#peaca690067)" style="stroke: #000000; stroke-linecap: round"/>
   </g>
   <g id="patch_17">
    <path d="M 169.875223 187.557726 
Q 208.034561 175.653689 245.126593 164.082604 
" clip-path="url(#peaca690067)" style="fill: none; stroke: #000000; stroke-linecap: round"/>
    <path d="M 240.712478 163.364556 
L 245.126593 164.082604 
L 241.903686 167.183067 
z
" clip-path="url(#peaca690067)" style="stroke: #000000; stroke-linecap: round"/>
   </g>
   <g id="patch_18">
    <path d="M 166.139459 188.575618 
Q 104.004412 203.10287 42.95804 217.375588 
" clip-path="url(#peaca690067)" style="fill: none; stroke: #000000; stroke-linecap: round"/>
    <path d="M 47.308325 218.412422 
L 42.95804 217.375588 
L 46.397678 214.51746 
z
" clip-path="url(#peaca690067)" style="stroke: #000000; stroke-linecap: round"/>
   </g>
   <g id="patch_19">
    <path d="M 169.901523 187.634756 
Q 226.757995 172.482955 282.534138 157.619054 
" clip-path="url(#peaca690067)" style="fill: none; stroke: #000000; stroke-linecap: round"/>
    <path d="M 278.15402 156.716521 
L 282.534138 157.619054 
L 279.18404 160.581629 
z
" clip-path="url(#peaca690067)" style="stroke: #000000; stroke-linecap: round"/>
   </g>
   <g id="patch_20">
    <path d="M 41.874085 217.629018 
Q 104.009132 203.101766 165.055504 188.829048 
" clip-path="url(#peaca690067)" style="fill: none; stroke: #000000; stroke-linecap: round"/>
    <path d="M 160.70522 187.792214 
L 165.055504 188.829048 
L 161.615867 191.687175 
z
" clip-path="url(#peaca690067)" style="stroke: #000000; stroke-linecap: round"/>
   </g>
   <g id="patch_21">
    <path d="M 298.109719 237.632962 
Q 347.676675 245.26577 396.138622 252.728417 
" clip-path="url(#peaca690067)" style="fill: none; stroke: #000000; stroke-linecap: round"/>
    <path d="M 392.489613 250.142933 
L 396.138622 252.728417 
L 391.880829 254.096334 
z
" clip-path="url(#peaca690067)" style="stroke: #000000; stroke-linecap: round"/>
   </g>
   <g id="patch_22">
    <path d="M 294.270518 237.137972 
Q 252.316429 232.773574 211.474374 228.524859 
" clip-path="url(#peaca690067)" style="fill: none; stroke: #000000; stroke-linecap: round"/>
    <path d="M 215.245965 230.928002 
L 211.474374 228.524859 
L 215.659843 226.949472 
z
" clip-path="url(#peaca690067)" style="stroke: #000000; stroke-linecap: round"/>
   </g>
   <g id="patch_23">
    <path d="M 296.620265 239.225332 
Q 304.99206 276.47354 313.118685 312.630927 
" clip-path="url(#peaca690067)" style="fill: none; stroke: #000000; stroke-linecap: round"/>
    <path d="M 314.19286 308.289712 
L 313.118685 312.630927 
L 310.290218 309.166858 
z
" clip-path="url(#peaca690067)" style="stroke: #000000; stroke-linecap: round"/>
   </g>
   <g id="patch_24">
    <path d="M 295.142435 235.715487 
Q 272.118143 200.255944 249.702713 165.734104 
" clip-path="url(#peaca690067)" style="fill: none; stroke: #000000; stroke-linecap: round"/>
    <path d="M 250.203627 170.178099 
L 249.702713 165.734104 
L 253.558457 167.999769 
z
" clip-path="url(#peaca690067)" style="stroke: #000000; stroke-linecap: round"/>
   </g>
   <g id="patch_25">
    <path d="M 295.940581 235.417028 
Q 290.84197 197.086203 285.890778 159.86365 
" clip-path="url(#peaca690067)" style="fill: none; stroke: #000000; stroke-linecap: round"/>
    <path d="M 284.435658 164.092435 
L 285.890778 159.86365 
L 288.400734 163.565017 
z
" clip-path="url(#peaca690067)" style="stroke: #000000; stroke-linecap: round"/>
   </g>
   <g id="patch_26">
    <path d="M 313.364108 313.722876 
Q 304.992313 276.474667 296.865688 240.317281 
" clip-path="url(#peaca690067)" style="fill: none; stroke: #000000; stroke-linecap: round"/>
    <path d="M 295.791513 244.658496 
L 296.865688 240.317281 
L 299.694155 243.78135 
z
" clip-path="url(#peaca690067)" style="stroke: #000000; stroke-linecap: round"/>
   </g>
   <g id="patch_27">
    <path d="M 253.357755 137.841914 
Q 212.018601 136.379095 171.796781 134.955813 
" clip-path="url(#peaca690067)" style="fill: none; stroke: #000000; stroke-linecap: round"/>
    <path d="M 175.723552 137.096017 
L 171.796781 134.955813 
L 175.865007 133.098519 
z
" clip-path="url(#peaca690067)" style="stroke: #000000; stroke-linecap: round"/>
   </g>
   <g id="patch_28">
    <path d="M 256.975388 138.866133 
Q 305.660746 166.535725 353.374087 193.652884 
" clip-path="url(#peaca690067)" style="fill: none; stroke: #000000; stroke-linecap: round"/>
    <path d="M 350.884709 189.937645 
L 353.374087 193.652884 
L 348.908269 193.415242 
z
" clip-path="url(#peaca690067)" style="stroke: #000000; stroke-linecap: round"/>
   </g>
   <g id="patch_29">
    <path d="M 257.07563 137.150531 
Q 283.420343 125.915452 308.736637 115.118957 
" clip-path="url(#peaca690067)" style="fill: none; stroke: #000000; stroke-linecap: round"/>
    <path d="M 304.272694 114.848391 
L 308.736637 115.118957 
L 305.841818 118.527772 
z
" clip-path="url(#peaca690067)" style="stroke: #000000; stroke-linecap: round"/>
   </g>
   <g id="patch_30">
    <path d="M 253.613324 138.877564 
Q 211.65977 163.022685 170.675228 186.61012 
" clip-path="url(#peaca690067)" style="fill: none; stroke: #000000; stroke-linecap: round"/>
    <path d="M 175.139694 186.348303 
L 170.675228 186.61012 
L 173.144454 182.881457 
z
" clip-path="url(#peaca690067)" style="stroke: #000000; stroke-linecap: round"/>
   </g>
   <g id="patch_31">
    <path d="M 257.226007 138.043462 
Q 304.07133 141.268917 349.801259 144.417573 
" clip-path="url(#peaca690067)" style="fill: none; stroke: #000000; stroke-linecap: round"/>
    <path d="M 345.948088 142.147535 
L 349.801259 144.417573 
L 345.673326 146.138087 
z
" clip-path="url(#peaca690067)" style="stroke: #000000; stroke-linecap: round"/>
   </g>
   <g id="patch_32">
    <path d="M 255.370357 135.977544 
Q 256.281558 112.97535 257.148504 91.090313 
" clip-path="url(#peaca690067)" style="fill: none; stroke: #000000; stroke-linecap: round"/>
    <path d="M 254.991741 95.008013 
L 257.148504 91.090313 
L 258.988606 95.166344 
z
" clip-path="url(#peaca690067)" style="stroke: #000000; stroke-linecap: round"/>
   </g>
   <g id="patch_33">
    <path d="M 254.759864 139.77001 
Q 251.667032 150.541929 248.882743 160.239231 
" clip-path="url(#peaca690067)" style="fill: none; stroke: #000000; stroke-linecap: round"/>
    <path d="M 251.908956 156.946506 
L 248.882743 160.239231 
L 248.064291 155.842626 
z
" clip-path="url(#peaca690067)" style="stroke: #000000; stroke-linecap: round"/>
   </g>
   <g id="patch_34">
    <path d="M 253.696868 136.820813 
Q 225.629095 117.66964 198.484856 99.148613 
" clip-path="url(#peaca690067)" style="fill: none; stroke: #000000; stroke-linecap: round"/>
    <path d="M 200.661757 103.055159 
L 198.484856 99.148613 
L 202.916234 99.75102 
z
" clip-path="url(#peaca690067)" style="stroke: #000000; stroke-linecap: round"/>
   </g>
   <g id="patch_35">
    <path d="M 256.933951 138.938266 
Q 270.38989 147.370733 282.898451 155.209503 
" clip-path="url(#peaca690067)" style="fill: none; stroke: #000000; stroke-linecap: round"/>
    <path d="M 280.571043 151.390711 
L 282.898451 155.209503 
L 278.446973 154.780154 
z
" clip-path="url(#peaca690067)" style="stroke: #000000; stroke-linecap: round"/>
   </g>
   <g id="patch_36">
    <path d="M 350.919239 144.49455 
Q 304.073916 141.269095 258.343987 138.120438 
" clip-path="url(#peaca690067)" style="fill: none; stroke: #000000; stroke-linecap: round"/>
    <path d="M 262.197157 140.390477 
L 258.343987 138.120438 
L 262.47192 136.399925 
z
" clip-path="url(#peaca690067)" style="stroke: #000000; stroke-linecap: round"/>
   </g>
   <g id="patch_37">
    <path d="M 350.941901 144.965481 
Q 300.444136 153.900937 251.047303 162.641587 
" clip-path="url(#peaca690067)" style="fill: none; stroke: #000000; stroke-linecap: round"/>
    <path d="M 255.334597 163.914029 
L 251.047303 162.641587 
L 254.637634 159.975217 
z
" clip-path="url(#peaca690067)" style="stroke: #000000; stroke-linecap: round"/>
   </g>
   <g id="patch_38">
    <path d="M 257.192804 89.971995 
Q 256.281604 112.974189 255.414658 134.859225 
" clip-path="url(#peaca690067)" style="fill: none; stroke: #000000; stroke-linecap: round"/>
    <path d="M 257.571421 130.941525 
L 255.414658 134.859225 
L 253.574556 130.783194 
z
" clip-path="url(#peaca690067)" style="stroke: #000000; stroke-linecap: round"/>
   </g>
   <g id="patch_39">
    <path d="M 257.033348 89.960587 
Q 252.655063 125.604159 248.413087 160.138037 
" clip-path="url(#peaca690067)" style="fill: none; stroke: #000000; stroke-linecap: round"/>
    <path d="M 250.885843 156.411715 
L 248.413087 160.138037 
L 246.915683 155.924039 
z
" clip-path="url(#peaca690067)" style="stroke: #000000; stroke-linecap: round"/>
   </g>
   <g id="patch_40">
    <path d="M 247.032237 164.82894 
Q 228.237583 195.693012 210.024423 225.602169 
" clip-path="url(#peaca690067)" style="fill: none; stroke: #000000; stroke-linecap: round"/>
    <path d="M 213.813048 223.225969 
L 210.024423 225.602169 
L 210.396638 221.145549 
z
" clip-path="url(#peaca690067)" style="stroke: #000000; stroke-linecap: round"/>
   </g>
   <g id="patch_41">
    <path d="M 249.5712 161.986279 
Q 279.791466 138.548132 309.128268 115.795179 
" clip-path="url(#peaca690067)" style="fill: none; stroke: #000000; stroke-linecap: round"/>
    <path d="M 304.741779 116.666217 
L 309.128268 115.795179 
L 307.193205 119.826994 
z
" clip-path="url(#peaca690067)" style="stroke: #000000; stroke-linecap: round"/>
   </g>
   <g id="patch_42">
    <path d="M 246.191748 163.750322 
Q 208.03241 175.65436 170.940378 187.225445 
" clip-path="url(#peaca690067)" style="fill: none; stroke: #000000; stroke-linecap: round"/>
    <path d="M 175.354493 187.943492 
L 170.940378 187.225445 
L 174.163285 184.124982 
z
" clip-path="url(#peaca690067)" style="stroke: #000000; stroke-linecap: round"/>
   </g>
   <g id="patch_43">
    <path d="M 249.093908 164.796489 
Q 272.1182 200.256032 294.53363 234.777871 
" clip-path="url(#peaca690067)" style="fill: none; stroke: #000000; stroke-linecap: round"/>
    <path d="M 294.032715 230.333877 
L 294.53363 234.777871 
L 290.677886 232.512207 
z
" clip-path="url(#peaca690067)" style="stroke: #000000; stroke-linecap: round"/>
   </g>
   <g id="patch_44">
    <path d="M 248.574128 161.314097 
Q 251.66696 150.542179 254.451249 140.844876 
" clip-path="url(#peaca690067)" style="fill: none; stroke: #000000; stroke-linecap: round"/>
    <path d="M 251.425036 144.137601 
L 254.451249 140.844876 
L 255.269701 145.241481 
z
" clip-path="url(#peaca690067)" style="stroke: #000000; stroke-linecap: round"/>
   </g>
   <g id="patch_45">
    <path d="M 249.949759 162.835794 
Q 300.447523 153.900338 349.844357 145.159689 
" clip-path="url(#peaca690067)" style="fill: none; stroke: #000000; stroke-linecap: round"/>
    <path d="M 345.557063 143.887246 
L 349.844357 145.159689 
L 346.254026 147.826058 
z
" clip-path="url(#peaca690067)" style="stroke: #000000; stroke-linecap: round"/>
   </g>
   <g id="patch_46">
    <path d="M 248.276227 161.252214 
Q 252.654512 125.608643 256.896488 91.074765 
" clip-path="url(#peaca690067)" style="fill: none; stroke: #000000; stroke-linecap: round"/>
    <path d="M 254.423733 94.801087 
L 256.896488 91.074765 
L 258.393893 95.288763 
z
" clip-path="url(#peaca690067)" style="stroke: #000000; stroke-linecap: round"/>
   </g>
   <g id="patch_47">
    <path d="M 246.837174 161.654872 
Q 222.002728 130.301607 197.862474 99.824753 
" clip-path="url(#peaca690067)" style="fill: none; stroke: #000000; stroke-linecap: round"/>
    <path d="M 198.778319 104.202107 
L 197.862474 99.824753 
L 201.913864 101.718489 
z
" clip-path="url(#peaca690067)" style="stroke: #000000; stroke-linecap: round"/>
   </g>
   <g id="patch_48">
    <path d="M 249.946396 162.850873 
Q 266.760315 160.003444 282.471896 157.342696 
" clip-path="url(#peaca690067)" style="fill: none; stroke: #000000; stroke-linecap: round"/>
    <path d="M 278.194105 156.038661 
L 282.471896 157.342696 
L 278.861994 159.982507 
z
" clip-path="url(#peaca690067)" style="stroke: #000000; stroke-linecap: round"/>
   </g>
   <g id="patch_49">
    <path d="M 125.693617 31.317546 
Q 160.124885 63.710668 193.74185 95.33769 
" clip-path="url(#peaca690067)" style="fill: none; stroke: #000000; stroke-linecap: round"/>
    <path d="M 192.198953 91.140135 
L 193.74185 95.33769 
L 189.458068 94.053474 
z
" clip-path="url(#peaca690067)" style="stroke: #000000; stroke-linecap: round"/>
   </g>
   <g id="patch_50">
    <path d="M 197.562021 98.518945 
Q 225.629794 117.670117 252.774033 136.191145 
" clip-path="url(#peaca690067)" style="fill: none; stroke: #000000; stroke-linecap: round"/>
    <path d="M 250.597132 132.284598 
L 252.774033 136.191145 
L 248.342655 135.588737 
z
" clip-path="url(#peaca690067)" style="stroke: #000000; stroke-linecap: round"/>
   </g>
   <g id="patch_51">
    <path d="M 197.168129 98.948149 
Q 222.002575 130.301414 246.142829 160.778268 
" clip-path="url(#peaca690067)" style="fill: none; stroke: #000000; stroke-linecap: round"/>
    <path d="M 245.226984 156.400914 
L 246.142829 160.778268 
L 242.091439 158.884532 
z
" clip-path="url(#peaca690067)" style="stroke: #000000; stroke-linecap: round"/>
   </g>
   <g id="patch_52">
    <path d="M 194.554114 96.101872 
Q 160.122845 63.70875 126.50588 32.081728 
" clip-path="url(#peaca690067)" style="fill: none; stroke: #000000; stroke-linecap: round"/>
    <path d="M 128.048777 36.279283 
L 126.50588 32.081728 
L 130.789663 33.365944 
z
" clip-path="url(#peaca690067)" style="stroke: #000000; stroke-linecap: round"/>
   </g>
   <g id="patch_53">
    <path d="M 197.579716 98.500715 
Q 240.727457 127.131429 282.943599 155.143981 
" clip-path="url(#peaca690067)" style="fill: none; stroke: #000000; stroke-linecap: round"/>
    <path d="M 280.716416 151.265882 
L 282.943599 155.143981 
L 278.50481 154.598869 
z
" clip-path="url(#peaca690067)" style="stroke: #000000; stroke-linecap: round"/>
   </g>
   <g id="patch_54">
    <path d="M 283.581483 156.473068 
Q 227.114921 145.839629 171.747082 135.413095 
" clip-path="url(#peaca690067)" style="fill: none; stroke: #000000; stroke-linecap: round"/>
    <path d="M 175.307868 138.118794 
L 171.747082 135.413095 
L 176.048112 134.187886 
z
" clip-path="url(#peaca690067)" style="stroke: #000000; stroke-linecap: round"/>
   </g>
   <g id="patch_55">
    <path d="M 287.188217 157.756101 
Q 320.758183 175.996851 353.34577 193.703812 
" clip-path="url(#peaca690067)" style="fill: none; stroke: #000000; stroke-linecap: round"/>
    <path d="M 350.785978 190.036733 
L 353.34577 193.703812 
L 348.876232 193.551398 
z
" clip-path="url(#peaca690067)" style="stroke: #000000; stroke-linecap: round"/>
   </g>
   <g id="patch_56">
    <path d="M 286.494205 155.174157 
Q 298.516682 135.375124 309.958866 116.531736 
" clip-path="url(#peaca690067)" style="fill: none; stroke: #000000; stroke-linecap: round"/>
    <path d="M 306.173235 118.912702 
L 309.958866 116.531736 
L 309.59226 120.988821 
z
" clip-path="url(#peaca690067)" style="stroke: #000000; stroke-linecap: round"/>
   </g>
   <g id="patch_57">
    <path d="M 283.612765 157.331609 
Q 226.756292 172.483409 170.98015 187.34731 
" clip-path="url(#peaca690067)" style="fill: none; stroke: #000000; stroke-linecap: round"/>
    <path d="M 175.360268 188.249843 
L 170.98015 187.34731 
L 174.330247 184.384735 
z
" clip-path="url(#peaca690067)" style="stroke: #000000; stroke-linecap: round"/>
   </g>
   <g id="patch_58">
    <path d="M 285.743079 158.753263 
Q 290.841689 197.084089 295.792882 234.306641 
" clip-path="url(#peaca690067)" style="fill: none; stroke: #000000; stroke-linecap: round"/>
    <path d="M 297.248002 230.077856 
L 295.792882 234.306641 
L 293.282926 230.605274 
z
" clip-path="url(#peaca690067)" style="stroke: #000000; stroke-linecap: round"/>
   </g>
   <g id="patch_59">
    <path d="M 283.847358 155.804157 
Q 270.391419 147.37169 257.882858 139.53292 
" clip-path="url(#peaca690067)" style="fill: none; stroke: #000000; stroke-linecap: round"/>
    <path d="M 260.210266 143.351712 
L 257.882858 139.53292 
L 262.334336 139.962269 
z
" clip-path="url(#peaca690067)" style="stroke: #000000; stroke-linecap: round"/>
   </g>
   <g id="patch_60">
    <path d="M 283.581327 157.154814 
Q 266.767408 160.002243 251.055827 162.662991 
" clip-path="url(#peaca690067)" style="fill: none; stroke: #000000; stroke-linecap: round"/>
    <path d="M 255.333618 163.967026 
L 251.055827 162.662991 
L 254.66573 160.023179 
z
" clip-path="url(#peaca690067)" style="stroke: #000000; stroke-linecap: round"/>
   </g>
   <g id="patch_61">
    <path d="M 283.872904 155.760621 
Q 240.725163 127.129907 198.509021 99.117356 
" clip-path="url(#peaca690067)" style="fill: none; stroke: #000000; stroke-linecap: round"/>
    <path d="M 200.736204 102.995455 
L 198.509021 99.117356 
L 202.94781 99.662468 
z
" clip-path="url(#peaca690067)" style="stroke: #000000; stroke-linecap: round"/>
   </g>
   <g id="patch_62">
    <path d="M 287.325287 156.222087 
Q 353.150629 134.376108 417.914849 112.882291 
" clip-path="url(#peaca690067)" style="fill: none; stroke: #000000; stroke-linecap: round"/>
    <path d="M 413.488493 112.244035 
L 417.914849 112.882291 
L 414.74843 116.040422 
z
" clip-path="url(#peaca690067)" style="stroke: #000000; stroke-linecap: round"/>
   </g>
   <g id="patch_63">
    <path d="M 418.975456 112.530299 
Q 353.150114 134.376279 288.385894 155.870095 
" clip-path="url(#peaca690067)" style="fill: none; stroke: #000000; stroke-linecap: round"/>
    <path d="M 292.81225 156.508351 
L 288.385894 155.870095 
L 291.552313 152.711964 
z
" clip-path="url(#peaca690067)" style="stroke: #000000; stroke-linecap: round"/>
   </g>
   <g id="PathCollection_1">
    <defs>
     <path id="me6579e9fb2" d="M 0 1.936492 
C 0.513564 1.936492 1.006162 1.732451 1.369306 1.369306 
C 1.732451 1.006162 1.936492 0.513564 1.936492 0 
C 1.936492 -0.513564 1.732451 -1.006162 1.369306 -1.369306 
C 1.006162 -1.732451 0.513564 -1.936492 0 -1.936492 
C -0.513564 -1.936492 -1.006162 -1.732451 -1.369306 -1.369306 
C -1.732451 -1.006162 -1.936492 -0.513564 -1.936492 0 
C -1.936492 0.513564 -1.732451 1.006162 -1.369306 1.369306 
C -1.006162 1.732451 -0.513564 1.936492 0 1.936492 
z
" style="stroke: #1f78b4"/>
    </defs>
    <g clip-path="url(#peaca690067)">
     <use xlink:href="#me6579e9fb2" x="399.158652" y="253.193471" style="fill: #1f78b4; stroke: #1f78b4"/>
     <use xlink:href="#me6579e9fb2" x="168.745406" y="134.847838" style="fill: #1f78b4; stroke: #1f78b4"/>
     <use xlink:href="#me6579e9fb2" x="208.43706" y="228.208893" style="fill: #1f78b4; stroke: #1f78b4"/>
     <use xlink:href="#me6579e9fb2" x="356.029862" y="195.162254" style="fill: #1f78b4; stroke: #1f78b4"/>
     <use xlink:href="#me6579e9fb2" x="311.543644" y="113.921869" style="fill: #1f78b4; stroke: #1f78b4"/>
     <use xlink:href="#me6579e9fb2" x="168.026768" y="188.134363" style="fill: #1f78b4; stroke: #1f78b4"/>
     <use xlink:href="#me6579e9fb2" x="39.986777" y="218.070273" style="fill: #1f78b4; stroke: #1f78b4"/>
     <use xlink:href="#me6579e9fb2" x="296.19614" y="237.33829" style="fill: #1f78b4; stroke: #1f78b4"/>
     <use xlink:href="#me6579e9fb2" x="313.788234" y="315.609917" style="fill: #1f78b4; stroke: #1f78b4"/>
     <use xlink:href="#me6579e9fb2" x="255.293789" y="137.910422" style="fill: #1f78b4; stroke: #1f78b4"/>
     <use xlink:href="#me6579e9fb2" x="352.851457" y="144.62759" style="fill: #1f78b4; stroke: #1f78b4"/>
     <use xlink:href="#me6579e9fb2" x="257.269373" y="88.039116" style="fill: #1f78b4; stroke: #1f78b4"/>
     <use xlink:href="#me6579e9fb2" x="248.040203" y="163.173686" style="fill: #1f78b4; stroke: #1f78b4"/>
     <use xlink:href="#me6579e9fb2" x="124.282631" y="29.990083" style="fill: #1f78b4; stroke: #1f78b4"/>
     <use xlink:href="#me6579e9fb2" x="195.9651" y="97.429336" style="fill: #1f78b4; stroke: #1f78b4"/>
     <use xlink:href="#me6579e9fb2" x="285.48752" y="156.832001" style="fill: #1f78b4; stroke: #1f78b4"/>
     <use xlink:href="#me6579e9fb2" x="420.813223" y="111.920385" style="fill: #1f78b4; stroke: #1f78b4"/>
    </g>
   </g>
   <g id="text_1">
    <g clip-path="url(#peaca690067)">
     <!-- 0 -->
     <g transform="translate(395.977402 255.952846) scale(0.1 -0.1)">
      <defs>
       <path id="DejaVuSans-30" d="M 2034 4250 
Q 1547 4250 1301 3770 
Q 1056 3291 1056 2328 
Q 1056 1369 1301 889 
Q 1547 409 2034 409 
Q 2525 409 2770 889 
Q 3016 1369 3016 2328 
Q 3016 3291 2770 3770 
Q 2525 4250 2034 4250 
z
M 2034 4750 
Q 2819 4750 3233 4129 
Q 3647 3509 3647 2328 
Q 3647 1150 3233 529 
Q 2819 -91 2034 -91 
Q 1250 -91 836 529 
Q 422 1150 422 2328 
Q 422 3509 836 4129 
Q 1250 4750 2034 4750 
z
" transform="scale(0.015625)"/>
      </defs>
      <use xlink:href="#DejaVuSans-30"/>
     </g>
    </g>
   </g>
   <g id="text_2">
    <g clip-path="url(#peaca690067)">
     <!-- 1 -->
     <g transform="translate(165.564156 137.607213) scale(0.1 -0.1)">
      <defs>
       <path id="DejaVuSans-31" d="M 794 531 
L 1825 531 
L 1825 4091 
L 703 3866 
L 703 4441 
L 1819 4666 
L 2450 4666 
L 2450 531 
L 3481 531 
L 3481 0 
L 794 0 
L 794 531 
z
" transform="scale(0.015625)"/>
      </defs>
      <use xlink:href="#DejaVuSans-31"/>
     </g>
    </g>
   </g>
   <g id="text_3">
    <g clip-path="url(#peaca690067)">
     <!-- 2 -->
     <g transform="translate(205.25581 230.968268) scale(0.1 -0.1)">
      <defs>
       <path id="DejaVuSans-32" d="M 1228 531 
L 3431 531 
L 3431 0 
L 469 0 
L 469 531 
Q 828 903 1448 1529 
Q 2069 2156 2228 2338 
Q 2531 2678 2651 2914 
Q 2772 3150 2772 3378 
Q 2772 3750 2511 3984 
Q 2250 4219 1831 4219 
Q 1534 4219 1204 4116 
Q 875 4013 500 3803 
L 500 4441 
Q 881 4594 1212 4672 
Q 1544 4750 1819 4750 
Q 2544 4750 2975 4387 
Q 3406 4025 3406 3419 
Q 3406 3131 3298 2873 
Q 3191 2616 2906 2266 
Q 2828 2175 2409 1742 
Q 1991 1309 1228 531 
z
" transform="scale(0.015625)"/>
      </defs>
      <use xlink:href="#DejaVuSans-32"/>
     </g>
    </g>
   </g>
   <g id="text_4">
    <g clip-path="url(#peaca690067)">
     <!-- 3 -->
     <g transform="translate(352.848612 197.921629) scale(0.1 -0.1)">
      <defs>
       <path id="DejaVuSans-33" d="M 2597 2516 
Q 3050 2419 3304 2112 
Q 3559 1806 3559 1356 
Q 3559 666 3084 287 
Q 2609 -91 1734 -91 
Q 1441 -91 1130 -33 
Q 819 25 488 141 
L 488 750 
Q 750 597 1062 519 
Q 1375 441 1716 441 
Q 2309 441 2620 675 
Q 2931 909 2931 1356 
Q 2931 1769 2642 2001 
Q 2353 2234 1838 2234 
L 1294 2234 
L 1294 2753 
L 1863 2753 
Q 2328 2753 2575 2939 
Q 2822 3125 2822 3475 
Q 2822 3834 2567 4026 
Q 2313 4219 1838 4219 
Q 1578 4219 1281 4162 
Q 984 4106 628 3988 
L 628 4550 
Q 988 4650 1302 4700 
Q 1616 4750 1894 4750 
Q 2613 4750 3031 4423 
Q 3450 4097 3450 3541 
Q 3450 3153 3228 2886 
Q 3006 2619 2597 2516 
z
" transform="scale(0.015625)"/>
      </defs>
      <use xlink:href="#DejaVuSans-33"/>
     </g>
    </g>
   </g>
   <g id="text_5">
    <g clip-path="url(#peaca690067)">
     <!-- 4 -->
     <g transform="translate(308.362394 116.681244) scale(0.1 -0.1)">
      <defs>
       <path id="DejaVuSans-34" d="M 2419 4116 
L 825 1625 
L 2419 1625 
L 2419 4116 
z
M 2253 4666 
L 3047 4666 
L 3047 1625 
L 3713 1625 
L 3713 1100 
L 3047 1100 
L 3047 0 
L 2419 0 
L 2419 1100 
L 313 1100 
L 313 1709 
L 2253 4666 
z
" transform="scale(0.015625)"/>
      </defs>
      <use xlink:href="#DejaVuSans-34"/>
     </g>
    </g>
   </g>
   <g id="text_6">
    <g clip-path="url(#peaca690067)">
     <!-- 5 -->
     <g transform="translate(164.845518 190.893738) scale(0.1 -0.1)">
      <defs>
       <path id="DejaVuSans-35" d="M 691 4666 
L 3169 4666 
L 3169 4134 
L 1269 4134 
L 1269 2991 
Q 1406 3038 1543 3061 
Q 1681 3084 1819 3084 
Q 2600 3084 3056 2656 
Q 3513 2228 3513 1497 
Q 3513 744 3044 326 
Q 2575 -91 1722 -91 
Q 1428 -91 1123 -41 
Q 819 9 494 109 
L 494 744 
Q 775 591 1075 516 
Q 1375 441 1709 441 
Q 2250 441 2565 725 
Q 2881 1009 2881 1497 
Q 2881 1984 2565 2268 
Q 2250 2553 1709 2553 
Q 1456 2553 1204 2497 
Q 953 2441 691 2322 
L 691 4666 
z
" transform="scale(0.015625)"/>
      </defs>
      <use xlink:href="#DejaVuSans-35"/>
     </g>
    </g>
   </g>
   <g id="text_7">
    <g clip-path="url(#peaca690067)">
     <!-- 6 -->
     <g transform="translate(36.805527 220.829648) scale(0.1 -0.1)">
      <defs>
       <path id="DejaVuSans-36" d="M 2113 2584 
Q 1688 2584 1439 2293 
Q 1191 2003 1191 1497 
Q 1191 994 1439 701 
Q 1688 409 2113 409 
Q 2538 409 2786 701 
Q 3034 994 3034 1497 
Q 3034 2003 2786 2293 
Q 2538 2584 2113 2584 
z
M 3366 4563 
L 3366 3988 
Q 3128 4100 2886 4159 
Q 2644 4219 2406 4219 
Q 1781 4219 1451 3797 
Q 1122 3375 1075 2522 
Q 1259 2794 1537 2939 
Q 1816 3084 2150 3084 
Q 2853 3084 3261 2657 
Q 3669 2231 3669 1497 
Q 3669 778 3244 343 
Q 2819 -91 2113 -91 
Q 1303 -91 875 529 
Q 447 1150 447 2328 
Q 447 3434 972 4092 
Q 1497 4750 2381 4750 
Q 2619 4750 2861 4703 
Q 3103 4656 3366 4563 
z
" transform="scale(0.015625)"/>
      </defs>
      <use xlink:href="#DejaVuSans-36"/>
     </g>
    </g>
   </g>
   <g id="text_8">
    <g clip-path="url(#peaca690067)">
     <!-- 7 -->
     <g transform="translate(293.01489 240.097665) scale(0.1 -0.1)">
      <defs>
       <path id="DejaVuSans-37" d="M 525 4666 
L 3525 4666 
L 3525 4397 
L 1831 0 
L 1172 0 
L 2766 4134 
L 525 4134 
L 525 4666 
z
" transform="scale(0.015625)"/>
      </defs>
      <use xlink:href="#DejaVuSans-37"/>
     </g>
    </g>
   </g>
   <g id="text_9">
    <g clip-path="url(#peaca690067)">
     <!-- 8 -->
     <g transform="translate(310.606984 318.369292) scale(0.1 -0.1)">
      <defs>
       <path id="DejaVuSans-38" d="M 2034 2216 
Q 1584 2216 1326 1975 
Q 1069 1734 1069 1313 
Q 1069 891 1326 650 
Q 1584 409 2034 409 
Q 2484 409 2743 651 
Q 3003 894 3003 1313 
Q 3003 1734 2745 1975 
Q 2488 2216 2034 2216 
z
M 1403 2484 
Q 997 2584 770 2862 
Q 544 3141 544 3541 
Q 544 4100 942 4425 
Q 1341 4750 2034 4750 
Q 2731 4750 3128 4425 
Q 3525 4100 3525 3541 
Q 3525 3141 3298 2862 
Q 3072 2584 2669 2484 
Q 3125 2378 3379 2068 
Q 3634 1759 3634 1313 
Q 3634 634 3220 271 
Q 2806 -91 2034 -91 
Q 1263 -91 848 271 
Q 434 634 434 1313 
Q 434 1759 690 2068 
Q 947 2378 1403 2484 
z
M 1172 3481 
Q 1172 3119 1398 2916 
Q 1625 2713 2034 2713 
Q 2441 2713 2670 2916 
Q 2900 3119 2900 3481 
Q 2900 3844 2670 4047 
Q 2441 4250 2034 4250 
Q 1625 4250 1398 4047 
Q 1172 3844 1172 3481 
z
" transform="scale(0.015625)"/>
      </defs>
      <use xlink:href="#DejaVuSans-38"/>
     </g>
    </g>
   </g>
   <g id="text_10">
    <g clip-path="url(#peaca690067)">
     <!-- 9 -->
     <g transform="translate(252.112539 140.669797) scale(0.1 -0.1)">
      <defs>
       <path id="DejaVuSans-39" d="M 703 97 
L 703 672 
Q 941 559 1184 500 
Q 1428 441 1663 441 
Q 2288 441 2617 861 
Q 2947 1281 2994 2138 
Q 2813 1869 2534 1725 
Q 2256 1581 1919 1581 
Q 1219 1581 811 2004 
Q 403 2428 403 3163 
Q 403 3881 828 4315 
Q 1253 4750 1959 4750 
Q 2769 4750 3195 4129 
Q 3622 3509 3622 2328 
Q 3622 1225 3098 567 
Q 2575 -91 1691 -91 
Q 1453 -91 1209 -44 
Q 966 3 703 97 
z
M 1959 2075 
Q 2384 2075 2632 2365 
Q 2881 2656 2881 3163 
Q 2881 3666 2632 3958 
Q 2384 4250 1959 4250 
Q 1534 4250 1286 3958 
Q 1038 3666 1038 3163 
Q 1038 2656 1286 2365 
Q 1534 2075 1959 2075 
z
" transform="scale(0.015625)"/>
      </defs>
      <use xlink:href="#DejaVuSans-39"/>
     </g>
    </g>
   </g>
   <g id="text_11">
    <g clip-path="url(#peaca690067)">
     <!-- 10 -->
     <g transform="translate(346.488957 147.386965) scale(0.1 -0.1)">
      <use xlink:href="#DejaVuSans-31"/>
      <use xlink:href="#DejaVuSans-30" x="63.623047"/>
     </g>
    </g>
   </g>
   <g id="text_12">
    <g clip-path="url(#peaca690067)">
     <!-- 11 -->
     <g transform="translate(250.906873 90.798491) scale(0.1 -0.1)">
      <use xlink:href="#DejaVuSans-31"/>
      <use xlink:href="#DejaVuSans-31" x="63.623047"/>
     </g>
    </g>
   </g>
   <g id="text_13">
    <g clip-path="url(#peaca690067)">
     <!-- 12 -->
     <g transform="translate(241.677703 165.933061) scale(0.1 -0.1)">
      <use xlink:href="#DejaVuSans-31"/>
      <use xlink:href="#DejaVuSans-32" x="63.623047"/>
     </g>
    </g>
   </g>
   <g id="text_14">
    <g clip-path="url(#peaca690067)">
     <!-- 13 -->
     <g transform="translate(117.920131 32.749458) scale(0.1 -0.1)">
      <use xlink:href="#DejaVuSans-31"/>
      <use xlink:href="#DejaVuSans-33" x="63.623047"/>
     </g>
    </g>
   </g>
   <g id="text_15">
    <g clip-path="url(#peaca690067)">
     <!-- 14 -->
     <g transform="translate(189.6026 100.188711) scale(0.1 -0.1)">
      <use xlink:href="#DejaVuSans-31"/>
      <use xlink:href="#DejaVuSans-34" x="63.623047"/>
     </g>
    </g>
   </g>
   <g id="text_16">
    <g clip-path="url(#peaca690067)">
     <!-- 15 -->
     <g transform="translate(279.12502 159.591376) scale(0.1 -0.1)">
      <use xlink:href="#DejaVuSans-31"/>
      <use xlink:href="#DejaVuSans-35" x="63.623047"/>
     </g>
    </g>
   </g>
   <g id="text_17">
    <g clip-path="url(#peaca690067)">
     <!-- 16 -->
     <g transform="translate(414.450723 114.67976) scale(0.1 -0.1)">
      <use xlink:href="#DejaVuSans-31"/>
      <use xlink:href="#DejaVuSans-36" x="63.623047"/>
     </g>
    </g>
   </g>
  </g>
 </g>
 <defs>
  <clipPath id="peaca690067">
   <rect x="0" y="0" width="460.8" height="345.6"/>
  </clipPath>
 </defs>
</svg>
