<?xml version="1.0" encoding="utf-8" standalone="no"?>
<!DOCTYPE svg PUBLIC "-//W3C//DTD SVG 1.1//EN"
  "http://www.w3.org/Graphics/SVG/1.1/DTD/svg11.dtd">
<svg xmlns:xlink="http://www.w3.org/1999/xlink" width="460.8pt" height="345.6pt" viewBox="0 0 460.8 345.6" xmlns="http://www.w3.org/2000/svg" version="1.1">
 <metadata>
  <rdf:RDF xmlns:dc="http://purl.org/dc/elements/1.1/" xmlns:cc="http://creativecommons.org/ns#" xmlns:rdf="http://www.w3.org/1999/02/22-rdf-syntax-ns#">
   <cc:Work>
    <dc:type rdf:resource="http://purl.org/dc/dcmitype/StillImage"/>
    <dc:date>2024-02-07T14:34:38.295350</dc:date>
    <dc:format>image/svg+xml</dc:format>
    <dc:creator>
     <cc:Agent>
      <dc:title>Matplotlib v3.8.0, https://matplotlib.org/</dc:title>
     </cc:Agent>
    </dc:creator>
   </cc:Work>
  </rdf:RDF>
 </metadata>
 <defs>
  <style type="text/css">*{stroke-linejoin: round; stroke-linecap: butt}</style>
 </defs>
 <g id="figure_1">
  <g id="patch_1">
   <path d="M 0 345.6 
L 460.8 345.6 
L 460.8 0 
L 0 0 
z
" style="fill: #ffffff"/>
  </g>
  <g id="axes_1">
   <g id="patch_2">
    <path d="M 417.047941 177.29716 
Q 390.992042 163.166174 365.918948 149.568196 
" clip-path="url(#p647757e0b3)" style="fill: none; stroke: #000000; stroke-linecap: round"/>
    <path d="M 368.481661 153.233233 
L 365.918948 149.568196 
L 370.388606 149.717048 
z
" clip-path="url(#p647757e0b3)" style="stroke: #000000; stroke-linecap: round"/>
   </g>
   <g id="patch_3">
    <path d="M 364.935919 149.035066 
Q 390.991818 163.166052 416.064912 176.764031 
" clip-path="url(#p647757e0b3)" style="fill: none; stroke: #000000; stroke-linecap: round"/>
    <path d="M 413.502199 173.098993 
L 416.064912 176.764031 
L 411.595254 176.615179 
z
" clip-path="url(#p647757e0b3)" style="stroke: #000000; stroke-linecap: round"/>
   </g>
   <g id="patch_4">
    <path d="M 364.985128 147.286845 
Q 392.02175 134.586808 418.046422 122.362118 
" clip-path="url(#p647757e0b3)" style="fill: none; stroke: #000000; stroke-linecap: round"/>
    <path d="M 413.575629 122.252543 
L 418.046422 122.362118 
L 415.276286 125.873008 
z
" clip-path="url(#p647757e0b3)" style="stroke: #000000; stroke-linecap: round"/>
   </g>
   <g id="patch_5">
    <path d="M 361.314231 147.819994 
Q 313.293511 140.53991 266.378194 133.427409 
" clip-path="url(#p647757e0b3)" style="fill: none; stroke: #000000; stroke-linecap: round"/>
    <path d="M 270.033224 136.004375 
L 266.378194 133.427409 
L 270.632785 132.049564 
z
" clip-path="url(#p647757e0b3)" style="stroke: #000000; stroke-linecap: round"/>
   </g>
   <g id="patch_6">
    <path d="M 172.285202 251.292833 
Q 202.187504 230.869377 231.166566 211.076499 
" clip-path="url(#p647757e0b3)" style="fill: none; stroke: #000000; stroke-linecap: round"/>
    <path d="M 226.735472 211.680983 
L 231.166566 211.076499 
L 228.991497 214.984065 
z
" clip-path="url(#p647757e0b3)" style="stroke: #000000; stroke-linecap: round"/>
   </g>
   <g id="patch_7">
    <path d="M 168.815929 252.870999 
Q 136.960369 261.172651 106.186708 269.192356 
" clip-path="url(#p647757e0b3)" style="fill: none; stroke: #000000; stroke-linecap: round"/>
    <path d="M 110.561789 270.118996 
L 106.186708 269.192356 
L 109.553068 266.248275 
z
" clip-path="url(#p647757e0b3)" style="stroke: #000000; stroke-linecap: round"/>
   </g>
   <g id="patch_8">
    <path d="M 232.09436 210.442811 
Q 202.192058 230.866266 173.212995 250.659144 
" clip-path="url(#p647757e0b3)" style="fill: none; stroke: #000000; stroke-linecap: round"/>
    <path d="M 177.64409 250.05466 
L 173.212995 250.659144 
L 175.388064 246.751578 
z
" clip-path="url(#p647757e0b3)" style="stroke: #000000; stroke-linecap: round"/>
   </g>
   <g id="patch_9">
    <path d="M 234.391786 207.546324 
Q 248.523254 171.161359 262.249948 135.818582 
" clip-path="url(#p647757e0b3)" style="fill: none; stroke: #000000; stroke-linecap: round"/>
    <path d="M 258.937462 138.823152 
L 262.249948 135.818582 
L 262.666112 140.271313 
z
" clip-path="url(#p647757e0b3)" style="stroke: #000000; stroke-linecap: round"/>
   </g>
   <g id="patch_10">
    <path d="M 234.699396 211.008818 
Q 247.179038 231.48484 259.076818 251.00617 
" clip-path="url(#p647757e0b3)" style="fill: none; stroke: #000000; stroke-linecap: round"/>
    <path d="M 258.702891 246.549694 
L 259.076818 251.00617 
L 255.287281 248.631426 
z
" clip-path="url(#p647757e0b3)" style="stroke: #000000; stroke-linecap: round"/>
   </g>
   <g id="patch_11">
    <path d="M 259.655785 251.956113 
Q 247.176143 231.480091 235.278363 211.958761 
" clip-path="url(#p647757e0b3)" style="fill: none; stroke: #000000; stroke-linecap: round"/>
    <path d="M 235.65229 216.415237 
L 235.278363 211.958761 
L 239.0679 214.333505 
z
" clip-path="url(#p647757e0b3)" style="stroke: #000000; stroke-linecap: round"/>
   </g>
   <g id="patch_12">
    <path d="M 79.45506 313.907652 
Q 90.880506 292.787197 101.773985 272.650107 
" clip-path="url(#p647757e0b3)" style="fill: none; stroke: #000000; stroke-linecap: round"/>
    <path d="M 98.111659 275.216694 
L 101.773985 272.650107 
L 101.629859 277.11992 
z
" clip-path="url(#p647757e0b3)" style="stroke: #000000; stroke-linecap: round"/>
   </g>
   <g id="patch_13">
    <path d="M 102.306434 271.665851 
Q 90.880988 292.786307 79.987509 312.923396 
" clip-path="url(#p647757e0b3)" style="fill: none; stroke: #000000; stroke-linecap: round"/>
    <path d="M 83.649835 310.356809 
L 79.987509 312.923396 
L 80.131635 308.453583 
z
" clip-path="url(#p647757e0b3)" style="stroke: #000000; stroke-linecap: round"/>
   </g>
   <g id="patch_14">
    <path d="M 101.370692 270.506288 
Q 71.609759 279.20564 42.921953 287.591309 
" clip-path="url(#p647757e0b3)" style="fill: none; stroke: #000000; stroke-linecap: round"/>
    <path d="M 47.322425 288.38871 
L 42.921953 287.591309 
L 46.200157 284.549372 
z
" clip-path="url(#p647757e0b3)" style="stroke: #000000; stroke-linecap: round"/>
   </g>
   <g id="patch_15">
    <path d="M 105.100792 269.475349 
Q 136.956352 261.173697 167.730013 253.153992 
" clip-path="url(#p647757e0b3)" style="fill: none; stroke: #000000; stroke-linecap: round"/>
    <path d="M 163.354932 252.227352 
L 167.730013 253.153992 
L 164.363653 256.098073 
z
" clip-path="url(#p647757e0b3)" style="stroke: #000000; stroke-linecap: round"/>
   </g>
   <g id="patch_16">
    <path d="M 104.396709 268.41684 
Q 123.39549 243.287625 141.720005 219.050243 
" clip-path="url(#p647757e0b3)" style="fill: none; stroke: #000000; stroke-linecap: round"/>
    <path d="M 137.712322 221.034801 
L 141.720005 219.050243 
L 140.903042 223.447125 
z
" clip-path="url(#p647757e0b3)" style="stroke: #000000; stroke-linecap: round"/>
   </g>
   <g id="patch_17">
    <path d="M 337.611334 31.874067 
Q 331.452136 58.100678 325.548549 83.238866 
" clip-path="url(#p647757e0b3)" style="fill: none; stroke: #000000; stroke-linecap: round"/>
    <path d="M 328.410079 79.802059 
L 325.548549 83.238866 
L 324.516022 78.887558 
z
" clip-path="url(#p647757e0b3)" style="stroke: #000000; stroke-linecap: round"/>
   </g>
   <g id="patch_18">
    <path d="M 325.292186 84.330493 
Q 331.451383 58.103882 337.35497 32.965693 
" clip-path="url(#p647757e0b3)" style="fill: none; stroke: #000000; stroke-linecap: round"/>
    <path d="M 334.49344 36.4025 
L 337.35497 32.965693 
L 338.387498 37.317002 
z
" clip-path="url(#p647757e0b3)" style="stroke: #000000; stroke-linecap: round"/>
   </g>
   <g id="patch_19">
    <path d="M 323.307157 87.387343 
Q 294.102101 109.592699 265.787041 131.121368 
" clip-path="url(#p647757e0b3)" style="fill: none; stroke: #000000; stroke-linecap: round"/>
    <path d="M 270.181685 130.292452 
L 265.787041 131.121368 
L 267.760695 127.108303 
z
" clip-path="url(#p647757e0b3)" style="stroke: #000000; stroke-linecap: round"/>
   </g>
   <g id="patch_20">
    <path d="M 323.14659 87.138033 
Q 302.525165 98.320273 282.886573 108.969559 
" clip-path="url(#p647757e0b3)" style="fill: none; stroke: #000000; stroke-linecap: round"/>
    <path d="M 287.356239 108.820949 
L 282.886573 108.969559 
L 285.449485 105.30466 
z
" clip-path="url(#p647757e0b3)" style="stroke: #000000; stroke-linecap: round"/>
   </g>
   <g id="patch_21">
    <path d="M 326.789503 86.193666 
Q 362.596946 85.809501 397.28642 85.437331 
" clip-path="url(#p647757e0b3)" style="fill: none; stroke: #000000; stroke-linecap: round"/>
    <path d="M 393.265194 83.480358 
L 397.28642 85.437331 
L 393.308106 87.480128 
z
" clip-path="url(#p647757e0b3)" style="stroke: #000000; stroke-linecap: round"/>
   </g>
   <g id="patch_22">
    <path d="M 196.73901 127.540208 
Q 229.08211 130.176065 260.31087 132.721107 
" clip-path="url(#p647757e0b3)" style="fill: none; stroke: #000000; stroke-linecap: round"/>
    <path d="M 256.486543 130.402806 
L 260.31087 132.721107 
L 256.161633 134.389588 
z
" clip-path="url(#p647757e0b3)" style="stroke: #000000; stroke-linecap: round"/>
   </g>
   <g id="patch_23">
    <path d="M 211.037843 164.994127 
Q 244.859326 138.309886 277.803069 112.318157 
" clip-path="url(#p647757e0b3)" style="fill: none; stroke: #000000; stroke-linecap: round"/>
    <path d="M 273.423969 113.225618 
L 277.803069 112.318157 
L 275.901578 116.365914 
z
" clip-path="url(#p647757e0b3)" style="stroke: #000000; stroke-linecap: round"/>
   </g>
   <g id="patch_24">
    <path d="M 207.977296 167.371054 
Q 176.538882 191.404082 145.988697 214.758106 
" clip-path="url(#p647757e0b3)" style="fill: none; stroke: #000000; stroke-linecap: round"/>
    <path d="M 150.381165 213.917736 
L 145.988697 214.758106 
L 147.951882 210.739909 
z
" clip-path="url(#p647757e0b3)" style="stroke: #000000; stroke-linecap: round"/>
   </g>
   <g id="patch_25">
    <path d="M 145.102996 215.435177 
Q 176.541411 191.402149 207.091595 168.048126 
" clip-path="url(#p647757e0b3)" style="fill: none; stroke: #000000; stroke-linecap: round"/>
    <path d="M 202.699127 168.888495 
L 207.091595 168.048126 
L 205.12841 172.066322 
z
" clip-path="url(#p647757e0b3)" style="stroke: #000000; stroke-linecap: round"/>
   </g>
   <g id="patch_26">
    <path d="M 142.393835 218.158985 
Q 123.395054 243.288201 105.070538 267.525583 
" clip-path="url(#p647757e0b3)" style="fill: none; stroke: #000000; stroke-linecap: round"/>
    <path d="M 109.078222 265.541024 
L 105.070538 267.525583 
L 105.887502 263.128701 
z
" clip-path="url(#p647757e0b3)" style="stroke: #000000; stroke-linecap: round"/>
   </g>
   <g id="patch_27">
    <path d="M 41.843387 287.906583 
Q 71.60432 279.20723 100.292125 270.821561 
" clip-path="url(#p647757e0b3)" style="fill: none; stroke: #000000; stroke-linecap: round"/>
    <path d="M 95.891654 270.024161 
L 100.292125 270.821561 
L 97.013922 273.863498 
z
" clip-path="url(#p647757e0b3)" style="stroke: #000000; stroke-linecap: round"/>
   </g>
   <g id="patch_28">
    <path d="M 239.211922 85.272522 
Q 250.8473 108.257756 261.977728 130.245481 
" clip-path="url(#p647757e0b3)" style="fill: none; stroke: #000000; stroke-linecap: round"/>
    <path d="M 261.955562 125.7734 
L 261.977728 130.245481 
L 258.386764 127.579965 
z
" clip-path="url(#p647757e0b3)" style="stroke: #000000; stroke-linecap: round"/>
   </g>
   <g id="patch_29">
    <path d="M 326.578601 67.391285 
Q 304.099683 88.250162 282.440315 108.348554 
" clip-path="url(#p647757e0b3)" style="fill: none; stroke: #000000; stroke-linecap: round"/>
    <path d="M 286.732824 107.093814 
L 282.440315 108.348554 
L 284.012028 104.161704 
z
" clip-path="url(#p647757e0b3)" style="stroke: #000000; stroke-linecap: round"/>
   </g>
   <g id="patch_30">
    <path d="M 419.059479 121.88625 
Q 392.022857 134.586288 365.998185 146.810977 
" clip-path="url(#p647757e0b3)" style="fill: none; stroke: #000000; stroke-linecap: round"/>
    <path d="M 370.468978 146.920552 
L 365.998185 146.810977 
L 368.768321 143.300087 
z
" clip-path="url(#p647757e0b3)" style="stroke: #000000; stroke-linecap: round"/>
   </g>
   <g id="patch_31">
    <path d="M 419.849754 119.384464 
Q 410.576763 103.234478 401.860481 88.054067 
" clip-path="url(#p647757e0b3)" style="fill: none; stroke: #000000; stroke-linecap: round"/>
    <path d="M 402.117799 92.518794 
L 401.860481 88.054067 
L 405.586654 90.527049 
z
" clip-path="url(#p647757e0b3)" style="stroke: #000000; stroke-linecap: round"/>
   </g>
   <g id="patch_32">
    <path d="M 278.68186 111.624815 
Q 244.860378 138.309056 211.916635 164.300784 
" clip-path="url(#p647757e0b3)" style="fill: none; stroke: #000000; stroke-linecap: round"/>
    <path d="M 216.295734 163.393323 
L 211.916635 164.300784 
L 213.818126 160.253028 
z
" clip-path="url(#p647757e0b3)" style="stroke: #000000; stroke-linecap: round"/>
   </g>
   <g id="patch_33">
    <path d="M 281.623367 109.106626 
Q 304.102285 88.247748 325.761652 68.149356 
" clip-path="url(#p647757e0b3)" style="fill: none; stroke: #000000; stroke-linecap: round"/>
    <path d="M 321.469144 69.404097 
L 325.761652 68.149356 
L 324.18994 72.336207 
z
" clip-path="url(#p647757e0b3)" style="stroke: #000000; stroke-linecap: round"/>
   </g>
   <g id="patch_34">
    <path d="M 281.905805 109.501393 
Q 302.527229 98.319154 322.165821 87.669868 
" clip-path="url(#p647757e0b3)" style="fill: none; stroke: #000000; stroke-linecap: round"/>
    <path d="M 317.696155 87.818478 
L 322.165821 87.669868 
L 319.602909 91.334767 
z
" clip-path="url(#p647757e0b3)" style="stroke: #000000; stroke-linecap: round"/>
   </g>
   <g id="patch_35">
    <path d="M 398.399437 85.42539 
Q 362.591994 85.809554 327.90252 86.181725 
" clip-path="url(#p647757e0b3)" style="fill: none; stroke: #000000; stroke-linecap: round"/>
    <path d="M 331.923746 88.138698 
L 327.90252 86.181725 
L 331.880834 84.138928 
z
" clip-path="url(#p647757e0b3)" style="stroke: #000000; stroke-linecap: round"/>
   </g>
   <g id="patch_36">
    <path d="M 401.302668 87.082571 
Q 410.57566 103.232557 419.291941 118.412968 
" clip-path="url(#p647757e0b3)" style="fill: none; stroke: #000000; stroke-linecap: round"/>
    <path d="M 419.034623 113.948241 
L 419.291941 118.412968 
L 415.565769 115.939986 
z
" clip-path="url(#p647757e0b3)" style="stroke: #000000; stroke-linecap: round"/>
   </g>
   <g id="patch_37">
    <path d="M 204.648982 99.793497 
Q 233.158924 115.904547 260.6955 131.465545 
" clip-path="url(#p647757e0b3)" style="fill: none; stroke: #000000; stroke-linecap: round"/>
    <path d="M 258.197041 127.756407 
L 260.6955 131.465545 
L 256.229114 131.238829 
z
" clip-path="url(#p647757e0b3)" style="stroke: #000000; stroke-linecap: round"/>
   </g>
   <g id="patch_38">
    <path d="M 262.654922 134.775878 
Q 248.523454 171.160844 234.79676 206.50362 
" clip-path="url(#p647757e0b3)" style="fill: none; stroke: #000000; stroke-linecap: round"/>
    <path d="M 238.109246 203.499051 
L 234.79676 206.50362 
L 234.380596 202.05089 
z
" clip-path="url(#p647757e0b3)" style="stroke: #000000; stroke-linecap: round"/>
   </g>
   <g id="patch_39">
    <path d="M 264.89915 131.796455 
Q 294.104206 109.591099 322.419266 88.06243 
" clip-path="url(#p647757e0b3)" style="fill: none; stroke: #000000; stroke-linecap: round"/>
    <path d="M 318.024621 88.891346 
L 322.419266 88.06243 
L 320.445612 92.075495 
z
" clip-path="url(#p647757e0b3)" style="stroke: #000000; stroke-linecap: round"/>
   </g>
   <g id="patch_40">
    <path d="M 261.427866 132.812138 
Q 229.084766 130.176281 197.856005 127.631239 
" clip-path="url(#p647757e0b3)" style="fill: none; stroke: #000000; stroke-linecap: round"/>
    <path d="M 201.680333 129.94954 
L 197.856005 127.631239 
L 202.005242 125.962758 
z
" clip-path="url(#p647757e0b3)" style="stroke: #000000; stroke-linecap: round"/>
   </g>
   <g id="patch_41">
    <path d="M 262.48155 131.240761 
Q 250.846172 108.255527 239.715744 86.267802 
" clip-path="url(#p647757e0b3)" style="fill: none; stroke: #000000; stroke-linecap: round"/>
    <path d="M 239.73791 90.739883 
L 239.715744 86.267802 
L 243.306708 88.933318 
z
" clip-path="url(#p647757e0b3)" style="stroke: #000000; stroke-linecap: round"/>
   </g>
   <g id="patch_42">
    <path d="M 261.672045 132.017393 
Q 233.162103 115.906343 205.625528 100.345345 
" clip-path="url(#p647757e0b3)" style="fill: none; stroke: #000000; stroke-linecap: round"/>
    <path d="M 208.123986 104.054483 
L 205.625528 100.345345 
L 210.091913 100.572061 
z
" clip-path="url(#p647757e0b3)" style="stroke: #000000; stroke-linecap: round"/>
   </g>
   <g id="patch_43">
    <path d="M 265.273719 133.259967 
Q 313.294439 140.540051 360.209756 147.652552 
" clip-path="url(#p647757e0b3)" style="fill: none; stroke: #000000; stroke-linecap: round"/>
    <path d="M 356.554726 145.075586 
L 360.209756 147.652552 
L 355.955165 149.030396 
z
" clip-path="url(#p647757e0b3)" style="stroke: #000000; stroke-linecap: round"/>
   </g>
   <g id="PathCollection_1">
    <defs>
     <path id="C0_0_e29a60da27" d="M 0 1.936492 
C 0.513564 1.936492 1.006162 1.732451 1.369306 1.369306 
C 1.732451 1.006162 1.936492 0.513564 1.936492 -0 
C 1.936492 -0.513564 1.732451 -1.006162 1.369306 -1.369306 
C 1.006162 -1.732451 0.513564 -1.936492 0 -1.936492 
C -0.513564 -1.936492 -1.006162 -1.732451 -1.369306 -1.369306 
C -1.732451 -1.006162 -1.936492 -0.513564 -1.936492 0 
C -1.936492 0.513564 -1.732451 1.006162 -1.369306 1.369306 
C -1.006162 1.732451 -0.513564 1.936492 0 1.936492 
z
"/>
    </defs>
    <g clip-path="url(#p647757e0b3)">
     <use xlink:href="#C0_0_e29a60da27" x="418.752476" y="178.221587" style="fill: #ff0000; stroke: #ff0000"/>
    </g>
    <g clip-path="url(#p647757e0b3)">
     <use xlink:href="#C0_0_e29a60da27" x="363.231384" y="148.11064" style="fill: #ff0000; stroke: #ff0000"/>
    </g>
    <g clip-path="url(#p647757e0b3)">
     <use xlink:href="#C0_0_e29a60da27" x="170.689419" y="252.382762" style="fill: #ff0000; stroke: #ff0000"/>
    </g>
    <g clip-path="url(#p647757e0b3)">
     <use xlink:href="#C0_0_e29a60da27" x="233.690142" y="209.352881" style="fill: #ff0000; stroke: #ff0000"/>
    </g>
    <g clip-path="url(#p647757e0b3)">
     <use xlink:href="#C0_0_e29a60da27" x="260.665039" y="253.61205" style="fill: #ff0000; stroke: #ff0000"/>
    </g>
    <g clip-path="url(#p647757e0b3)">
     <use xlink:href="#C0_0_e29a60da27" x="78.534192" y="315.609917" style="fill: #ff0000; stroke: #ff0000"/>
    </g>
    <g clip-path="url(#p647757e0b3)">
     <use xlink:href="#C0_0_e29a60da27" x="103.227302" y="269.963586" style="stroke: #000000"/>
    </g>
    <g clip-path="url(#p647757e0b3)">
     <use xlink:href="#C0_0_e29a60da27" x="338.053779" y="29.990083" style="fill: #ff0000; stroke: #ff0000"/>
    </g>
    <g clip-path="url(#p647757e0b3)">
     <use xlink:href="#C0_0_e29a60da27" x="324.849741" y="86.214477" style="stroke: #000000"/>
    </g>
    <g clip-path="url(#p647757e0b3)">
     <use xlink:href="#C0_0_e29a60da27" x="194.81031" y="127.383025" style="fill: #ff0000; stroke: #ff0000"/>
    </g>
    <g clip-path="url(#p647757e0b3)">
     <use xlink:href="#C0_0_e29a60da27" x="209.51705" y="166.193992" style="fill: #ff0000; stroke: #ff0000"/>
    </g>
    <g clip-path="url(#p647757e0b3)">
     <use xlink:href="#C0_0_e29a60da27" x="143.563242" y="216.612239" style="fill: #ff0000; stroke: #ff0000"/>
    </g>
    <g clip-path="url(#p647757e0b3)">
     <use xlink:href="#C0_0_e29a60da27" x="39.986777" y="288.449284" style="fill: #ff0000; stroke: #ff0000"/>
    </g>
    <g clip-path="url(#p647757e0b3)">
     <use xlink:href="#C0_0_e29a60da27" x="238.336906" y="83.543962" style="fill: #ff0000; stroke: #ff0000"/>
    </g>
    <g clip-path="url(#p647757e0b3)">
     <use xlink:href="#C0_0_e29a60da27" x="327.999314" y="66.072961" style="fill: #ff0000; stroke: #ff0000"/>
    </g>
    <g clip-path="url(#p647757e0b3)">
     <use xlink:href="#C0_0_e29a60da27" x="420.813223" y="121.062456" style="fill: #ff0000; stroke: #ff0000"/>
    </g>
    <g clip-path="url(#p647757e0b3)">
     <use xlink:href="#C0_0_e29a60da27" x="280.202653" y="110.42495" style="fill: #ff0000; stroke: #ff0000"/>
    </g>
    <g clip-path="url(#p647757e0b3)">
     <use xlink:href="#C0_0_e29a60da27" x="400.339199" y="85.404579" style="fill: #ff0000; stroke: #ff0000"/>
    </g>
    <g clip-path="url(#p647757e0b3)">
     <use xlink:href="#C0_0_e29a60da27" x="202.964461" y="98.841569" style="fill: #ff0000; stroke: #ff0000"/>
    </g>
    <g clip-path="url(#p647757e0b3)">
     <use xlink:href="#C0_0_e29a60da27" x="263.356566" y="132.969321" style="fill: #ff0000; stroke: #ff0000"/>
    </g>
   </g>
   <g id="text_1">
    <g clip-path="url(#p647757e0b3)">
     <!-- 0 -->
     <g transform="translate(415.571226 180.980962) scale(0.1 -0.1)">
      <defs>
       <path id="DejaVuSans-30" d="M 2034 4250 
Q 1547 4250 1301 3770 
Q 1056 3291 1056 2328 
Q 1056 1369 1301 889 
Q 1547 409 2034 409 
Q 2525 409 2770 889 
Q 3016 1369 3016 2328 
Q 3016 3291 2770 3770 
Q 2525 4250 2034 4250 
z
M 2034 4750 
Q 2819 4750 3233 4129 
Q 3647 3509 3647 2328 
Q 3647 1150 3233 529 
Q 2819 -91 2034 -91 
Q 1250 -91 836 529 
Q 422 1150 422 2328 
Q 422 3509 836 4129 
Q 1250 4750 2034 4750 
z
" transform="scale(0.015625)"/>
      </defs>
      <use xlink:href="#DejaVuSans-30"/>
     </g>
    </g>
   </g>
   <g id="text_2">
    <g clip-path="url(#p647757e0b3)">
     <!-- 3 -->
     <g transform="translate(360.050134 150.870015) scale(0.1 -0.1)">
      <defs>
       <path id="DejaVuSans-33" d="M 2597 2516 
Q 3050 2419 3304 2112 
Q 3559 1806 3559 1356 
Q 3559 666 3084 287 
Q 2609 -91 1734 -91 
Q 1441 -91 1130 -33 
Q 819 25 488 141 
L 488 750 
Q 750 597 1062 519 
Q 1375 441 1716 441 
Q 2309 441 2620 675 
Q 2931 909 2931 1356 
Q 2931 1769 2642 2001 
Q 2353 2234 1838 2234 
L 1294 2234 
L 1294 2753 
L 1863 2753 
Q 2328 2753 2575 2939 
Q 2822 3125 2822 3475 
Q 2822 3834 2567 4026 
Q 2313 4219 1838 4219 
Q 1578 4219 1281 4162 
Q 984 4106 628 3988 
L 628 4550 
Q 988 4650 1302 4700 
Q 1616 4750 1894 4750 
Q 2613 4750 3031 4423 
Q 3450 4097 3450 3541 
Q 3450 3153 3228 2886 
Q 3006 2619 2597 2516 
z
" transform="scale(0.015625)"/>
      </defs>
      <use xlink:href="#DejaVuSans-33"/>
     </g>
    </g>
   </g>
   <g id="text_3">
    <g clip-path="url(#p647757e0b3)">
     <!-- 4 -->
     <g transform="translate(167.508169 255.142137) scale(0.1 -0.1)">
      <defs>
       <path id="DejaVuSans-34" d="M 2419 4116 
L 825 1625 
L 2419 1625 
L 2419 4116 
z
M 2253 4666 
L 3047 4666 
L 3047 1625 
L 3713 1625 
L 3713 1100 
L 3047 1100 
L 3047 0 
L 2419 0 
L 2419 1100 
L 313 1100 
L 313 1709 
L 2253 4666 
z
" transform="scale(0.015625)"/>
      </defs>
      <use xlink:href="#DejaVuSans-34"/>
     </g>
    </g>
   </g>
   <g id="text_4">
    <g clip-path="url(#p647757e0b3)">
     <!-- 6 -->
     <g transform="translate(230.508892 212.112256) scale(0.1 -0.1)">
      <defs>
       <path id="DejaVuSans-36" d="M 2113 2584 
Q 1688 2584 1439 2293 
Q 1191 2003 1191 1497 
Q 1191 994 1439 701 
Q 1688 409 2113 409 
Q 2538 409 2786 701 
Q 3034 994 3034 1497 
Q 3034 2003 2786 2293 
Q 2538 2584 2113 2584 
z
M 3366 4563 
L 3366 3988 
Q 3128 4100 2886 4159 
Q 2644 4219 2406 4219 
Q 1781 4219 1451 3797 
Q 1122 3375 1075 2522 
Q 1259 2794 1537 2939 
Q 1816 3084 2150 3084 
Q 2853 3084 3261 2657 
Q 3669 2231 3669 1497 
Q 3669 778 3244 343 
Q 2819 -91 2113 -91 
Q 1303 -91 875 529 
Q 447 1150 447 2328 
Q 447 3434 972 4092 
Q 1497 4750 2381 4750 
Q 2619 4750 2861 4703 
Q 3103 4656 3366 4563 
z
" transform="scale(0.015625)"/>
      </defs>
      <use xlink:href="#DejaVuSans-36"/>
     </g>
    </g>
   </g>
   <g id="text_5">
    <g clip-path="url(#p647757e0b3)">
     <!-- 7 -->
     <g transform="translate(257.483789 256.371425) scale(0.1 -0.1)">
      <defs>
       <path id="DejaVuSans-37" d="M 525 4666 
L 3525 4666 
L 3525 4397 
L 1831 0 
L 1172 0 
L 2766 4134 
L 525 4134 
L 525 4666 
z
" transform="scale(0.015625)"/>
      </defs>
      <use xlink:href="#DejaVuSans-37"/>
     </g>
    </g>
   </g>
   <g id="text_6">
    <g clip-path="url(#p647757e0b3)">
     <!-- 8 -->
     <g transform="translate(75.352942 318.369292) scale(0.1 -0.1)">
      <defs>
       <path id="DejaVuSans-38" d="M 2034 2216 
Q 1584 2216 1326 1975 
Q 1069 1734 1069 1313 
Q 1069 891 1326 650 
Q 1584 409 2034 409 
Q 2484 409 2743 651 
Q 3003 894 3003 1313 
Q 3003 1734 2745 1975 
Q 2488 2216 2034 2216 
z
M 1403 2484 
Q 997 2584 770 2862 
Q 544 3141 544 3541 
Q 544 4100 942 4425 
Q 1341 4750 2034 4750 
Q 2731 4750 3128 4425 
Q 3525 4100 3525 3541 
Q 3525 3141 3298 2862 
Q 3072 2584 2669 2484 
Q 3125 2378 3379 2068 
Q 3634 1759 3634 1313 
Q 3634 634 3220 271 
Q 2806 -91 2034 -91 
Q 1263 -91 848 271 
Q 434 634 434 1313 
Q 434 1759 690 2068 
Q 947 2378 1403 2484 
z
M 1172 3481 
Q 1172 3119 1398 2916 
Q 1625 2713 2034 2713 
Q 2441 2713 2670 2916 
Q 2900 3119 2900 3481 
Q 2900 3844 2670 4047 
Q 2441 4250 2034 4250 
Q 1625 4250 1398 4047 
Q 1172 3844 1172 3481 
z
" transform="scale(0.015625)"/>
      </defs>
      <use xlink:href="#DejaVuSans-38"/>
     </g>
    </g>
   </g>
   <g id="text_7">
    <g clip-path="url(#p647757e0b3)">
     <!-- 9 -->
     <g transform="translate(100.046052 272.722961) scale(0.1 -0.1)">
      <defs>
       <path id="DejaVuSans-39" d="M 703 97 
L 703 672 
Q 941 559 1184 500 
Q 1428 441 1663 441 
Q 2288 441 2617 861 
Q 2947 1281 2994 2138 
Q 2813 1869 2534 1725 
Q 2256 1581 1919 1581 
Q 1219 1581 811 2004 
Q 403 2428 403 3163 
Q 403 3881 828 4315 
Q 1253 4750 1959 4750 
Q 2769 4750 3195 4129 
Q 3622 3509 3622 2328 
Q 3622 1225 3098 567 
Q 2575 -91 1691 -91 
Q 1453 -91 1209 -44 
Q 966 3 703 97 
z
M 1959 2075 
Q 2384 2075 2632 2365 
Q 2881 2656 2881 3163 
Q 2881 3666 2632 3958 
Q 2384 4250 1959 4250 
Q 1534 4250 1286 3958 
Q 1038 3666 1038 3163 
Q 1038 2656 1286 2365 
Q 1534 2075 1959 2075 
z
" transform="scale(0.015625)"/>
      </defs>
      <use xlink:href="#DejaVuSans-39"/>
     </g>
    </g>
   </g>
   <g id="text_8">
    <g clip-path="url(#p647757e0b3)">
     <!-- 10 -->
     <g transform="translate(331.691279 32.749458) scale(0.1 -0.1)">
      <defs>
       <path id="DejaVuSans-31" d="M 794 531 
L 1825 531 
L 1825 4091 
L 703 3866 
L 703 4441 
L 1819 4666 
L 2450 4666 
L 2450 531 
L 3481 531 
L 3481 0 
L 794 0 
L 794 531 
z
" transform="scale(0.015625)"/>
      </defs>
      <use xlink:href="#DejaVuSans-31"/>
      <use xlink:href="#DejaVuSans-30" x="63.623047"/>
     </g>
    </g>
   </g>
   <g id="text_9">
    <g clip-path="url(#p647757e0b3)">
     <!-- 11 -->
     <g transform="translate(318.487241 88.973852) scale(0.1 -0.1)">
      <use xlink:href="#DejaVuSans-31"/>
      <use xlink:href="#DejaVuSans-31" x="63.623047"/>
     </g>
    </g>
   </g>
   <g id="text_10">
    <g clip-path="url(#p647757e0b3)">
     <!-- 13 -->
     <g transform="translate(188.44781 130.1424) scale(0.1 -0.1)">
      <use xlink:href="#DejaVuSans-31"/>
      <use xlink:href="#DejaVuSans-33" x="63.623047"/>
     </g>
    </g>
   </g>
   <g id="text_11">
    <g clip-path="url(#p647757e0b3)">
     <!-- 14 -->
     <g transform="translate(203.15455 168.953367) scale(0.1 -0.1)">
      <use xlink:href="#DejaVuSans-31"/>
      <use xlink:href="#DejaVuSans-34" x="63.623047"/>
     </g>
    </g>
   </g>
   <g id="text_12">
    <g clip-path="url(#p647757e0b3)">
     <!-- 15 -->
     <g transform="translate(137.200742 219.371614) scale(0.1 -0.1)">
      <defs>
       <path id="DejaVuSans-35" d="M 691 4666 
L 3169 4666 
L 3169 4134 
L 1269 4134 
L 1269 2991 
Q 1406 3038 1543 3061 
Q 1681 3084 1819 3084 
Q 2600 3084 3056 2656 
Q 3513 2228 3513 1497 
Q 3513 744 3044 326 
Q 2575 -91 1722 -91 
Q 1428 -91 1123 -41 
Q 819 9 494 109 
L 494 744 
Q 775 591 1075 516 
Q 1375 441 1709 441 
Q 2250 441 2565 725 
Q 2881 1009 2881 1497 
Q 2881 1984 2565 2268 
Q 2250 2553 1709 2553 
Q 1456 2553 1204 2497 
Q 953 2441 691 2322 
L 691 4666 
z
" transform="scale(0.015625)"/>
      </defs>
      <use xlink:href="#DejaVuSans-31"/>
      <use xlink:href="#DejaVuSans-35" x="63.623047"/>
     </g>
    </g>
   </g>
   <g id="text_13">
    <g clip-path="url(#p647757e0b3)">
     <!-- 18 -->
     <g transform="translate(33.624277 291.208659) scale(0.1 -0.1)">
      <use xlink:href="#DejaVuSans-31"/>
      <use xlink:href="#DejaVuSans-38" x="63.623047"/>
     </g>
    </g>
   </g>
   <g id="text_14">
    <g clip-path="url(#p647757e0b3)">
     <!-- 19 -->
     <g transform="translate(231.974406 86.303337) scale(0.1 -0.1)">
      <use xlink:href="#DejaVuSans-31"/>
      <use xlink:href="#DejaVuSans-39" x="63.623047"/>
     </g>
    </g>
   </g>
   <g id="text_15">
    <g clip-path="url(#p647757e0b3)">
     <!-- 21 -->
     <g transform="translate(321.636814 68.832336) scale(0.1 -0.1)">
      <defs>
       <path id="DejaVuSans-32" d="M 1228 531 
L 3431 531 
L 3431 0 
L 469 0 
L 469 531 
Q 828 903 1448 1529 
Q 2069 2156 2228 2338 
Q 2531 2678 2651 2914 
Q 2772 3150 2772 3378 
Q 2772 3750 2511 3984 
Q 2250 4219 1831 4219 
Q 1534 4219 1204 4116 
Q 875 4013 500 3803 
L 500 4441 
Q 881 4594 1212 4672 
Q 1544 4750 1819 4750 
Q 2544 4750 2975 4387 
Q 3406 4025 3406 3419 
Q 3406 3131 3298 2873 
Q 3191 2616 2906 2266 
Q 2828 2175 2409 1742 
Q 1991 1309 1228 531 
z
" transform="scale(0.015625)"/>
      </defs>
      <use xlink:href="#DejaVuSans-32"/>
      <use xlink:href="#DejaVuSans-31" x="63.623047"/>
     </g>
    </g>
   </g>
   <g id="text_16">
    <g clip-path="url(#p647757e0b3)">
     <!-- 23 -->
     <g transform="translate(414.450723 123.821831) scale(0.1 -0.1)">
      <use xlink:href="#DejaVuSans-32"/>
      <use xlink:href="#DejaVuSans-33" x="63.623047"/>
     </g>
    </g>
   </g>
   <g id="text_17">
    <g clip-path="url(#p647757e0b3)">
     <!-- 25 -->
     <g transform="translate(273.840153 113.184325) scale(0.1 -0.1)">
      <use xlink:href="#DejaVuSans-32"/>
      <use xlink:href="#DejaVuSans-35" x="63.623047"/>
     </g>
    </g>
   </g>
   <g id="text_18">
    <g clip-path="url(#p647757e0b3)">
     <!-- 27 -->
     <g transform="translate(393.976699 88.163954) scale(0.1 -0.1)">
      <use xlink:href="#DejaVuSans-32"/>
      <use xlink:href="#DejaVuSans-37" x="63.623047"/>
     </g>
    </g>
   </g>
   <g id="text_19">
    <g clip-path="url(#p647757e0b3)">
     <!-- 29 -->
     <g transform="translate(196.601961 101.600944) scale(0.1 -0.1)">
      <use xlink:href="#DejaVuSans-32"/>
      <use xlink:href="#DejaVuSans-39" x="63.623047"/>
     </g>
    </g>
   </g>
   <g id="text_20">
    <g clip-path="url(#p647757e0b3)">
     <!-- 30 -->
     <g transform="translate(256.994066 135.728696) scale(0.1 -0.1)">
      <use xlink:href="#DejaVuSans-33"/>
      <use xlink:href="#DejaVuSans-30" x="63.623047"/>
     </g>
    </g>
   </g>
  </g>
 </g>
 <defs>
  <clipPath id="p647757e0b3">
   <rect x="0" y="0" width="460.8" height="345.6"/>
  </clipPath>
 </defs>
</svg>
