<?xml version="1.0" encoding="utf-8" standalone="no"?>
<!DOCTYPE svg PUBLIC "-//W3C//DTD SVG 1.1//EN"
  "http://www.w3.org/Graphics/SVG/1.1/DTD/svg11.dtd">
<svg xmlns:xlink="http://www.w3.org/1999/xlink" width="460.8pt" height="345.6pt" viewBox="0 0 460.8 345.6" xmlns="http://www.w3.org/2000/svg" version="1.1">
 <metadata>
  <rdf:RDF xmlns:dc="http://purl.org/dc/elements/1.1/" xmlns:cc="http://creativecommons.org/ns#" xmlns:rdf="http://www.w3.org/1999/02/22-rdf-syntax-ns#">
   <cc:Work>
    <dc:type rdf:resource="http://purl.org/dc/dcmitype/StillImage"/>
    <dc:date>2024-02-07T13:46:19.325007</dc:date>
    <dc:format>image/svg+xml</dc:format>
    <dc:creator>
     <cc:Agent>
      <dc:title>Matplotlib v3.8.0, https://matplotlib.org/</dc:title>
     </cc:Agent>
    </dc:creator>
   </cc:Work>
  </rdf:RDF>
 </metadata>
 <defs>
  <style type="text/css">*{stroke-linejoin: round; stroke-linecap: butt}</style>
 </defs>
 <g id="figure_1">
  <g id="patch_1">
   <path d="M 0 345.6 
L 460.8 345.6 
L 460.8 0 
L 0 0 
z
" style="fill: #ffffff"/>
  </g>
  <g id="axes_1">
   <g id="patch_2">
    <path d="M 57.770656 301.389345 
Q 68.757096 289.044601 79.000251 277.535038 
" clip-path="url(#p6467e2f8e6)" style="fill: none; stroke: #000000; stroke-linecap: round"/>
    <path d="M 74.846976 279.193443 
L 79.000251 277.535038 
L 77.83501 281.852701 
z
" clip-path="url(#p6467e2f8e6)" style="stroke: #000000; stroke-linecap: round"/>
   </g>
   <g id="patch_3">
    <path d="M 40.880799 194.020346 
Q 49.354027 177.705975 57.311937 162.383798 
" clip-path="url(#p6467e2f8e6)" style="fill: none; stroke: #000000; stroke-linecap: round"/>
    <path d="M 53.693392 165.011749 
L 57.311937 162.383798 
L 57.243171 166.855405 
z
" clip-path="url(#p6467e2f8e6)" style="stroke: #000000; stroke-linecap: round"/>
   </g>
   <g id="patch_4">
    <path d="M 40.484764 197.612592 
Q 45.806113 217.604423 50.839881 236.515839 
" clip-path="url(#p6467e2f8e6)" style="fill: none; stroke: #000000; stroke-linecap: round"/>
    <path d="M 51.743707 232.135987 
L 50.839881 236.515839 
L 47.878295 233.164868 
z
" clip-path="url(#p6467e2f8e6)" style="stroke: #000000; stroke-linecap: round"/>
   </g>
   <g id="patch_5">
    <path d="M 79.744367 276.698924 
Q 68.757927 289.043668 58.514772 300.553231 
" clip-path="url(#p6467e2f8e6)" style="fill: none; stroke: #000000; stroke-linecap: round"/>
    <path d="M 62.668047 298.894826 
L 58.514772 300.553231 
L 59.680013 296.235568 
z
" clip-path="url(#p6467e2f8e6)" style="stroke: #000000; stroke-linecap: round"/>
   </g>
   <g id="patch_6">
    <path d="M 82.963274 275.264855 
Q 105.817948 275.385291 127.554604 275.499835 
" clip-path="url(#p6467e2f8e6)" style="fill: none; stroke: #000000; stroke-linecap: round"/>
    <path d="M 123.565198 273.478785 
L 127.554604 275.499835 
L 123.54412 277.478729 
z
" clip-path="url(#p6467e2f8e6)" style="stroke: #000000; stroke-linecap: round"/>
   </g>
   <g id="patch_7">
    <path d="M 79.800366 273.758493 
Q 66.327903 257.361875 53.565221 241.829092 
" clip-path="url(#p6467e2f8e6)" style="fill: none; stroke: #000000; stroke-linecap: round"/>
    <path d="M 54.559331 246.189338 
L 53.565221 241.829092 
L 57.649884 243.649951 
z
" clip-path="url(#p6467e2f8e6)" style="stroke: #000000; stroke-linecap: round"/>
   </g>
   <g id="patch_8">
    <path d="M 299.123609 258.487257 
Q 321.027808 247.141071 341.939253 236.309122 
" clip-path="url(#p6467e2f8e6)" style="fill: none; stroke: #000000; stroke-linecap: round"/>
    <path d="M 337.467573 236.373024 
L 341.939253 236.309122 
L 339.307366 239.924807 
z
" clip-path="url(#p6467e2f8e6)" style="stroke: #000000; stroke-linecap: round"/>
   </g>
   <g id="patch_9">
    <path d="M 295.516233 259.810348 
Q 270.723627 265.48055 247.020915 270.901487 
" clip-path="url(#p6467e2f8e6)" style="fill: none; stroke: #000000; stroke-linecap: round"/>
    <path d="M 251.366133 271.959352 
L 247.020915 270.901487 
L 250.474338 268.060032 
z
" clip-path="url(#p6467e2f8e6)" style="stroke: #000000; stroke-linecap: round"/>
   </g>
   <g id="patch_10">
    <path d="M 342.930405 235.795714 
Q 321.026207 247.1419 300.114761 257.973849 
" clip-path="url(#p6467e2f8e6)" style="fill: none; stroke: #000000; stroke-linecap: round"/>
    <path d="M 304.586441 257.909947 
L 300.114761 257.973849 
L 302.746648 254.358164 
z
" clip-path="url(#p6467e2f8e6)" style="stroke: #000000; stroke-linecap: round"/>
   </g>
   <g id="patch_11">
    <path d="M 346.103642 233.626106 
Q 365.047693 216.949721 383.152545 201.012081 
" clip-path="url(#p6467e2f8e6)" style="fill: none; stroke: #000000; stroke-linecap: round"/>
    <path d="M 378.828626 202.153888 
L 383.152545 201.012081 
L 381.47164 205.1563 
z
" clip-path="url(#p6467e2f8e6)" style="stroke: #000000; stroke-linecap: round"/>
   </g>
   <g id="patch_12">
    <path d="M 245.928543 271.151319 
Q 270.721149 265.481117 294.423861 260.060179 
" clip-path="url(#p6467e2f8e6)" style="fill: none; stroke: #000000; stroke-linecap: round"/>
    <path d="M 290.078642 259.002314 
L 294.423861 260.060179 
L 290.970438 262.901635 
z
" clip-path="url(#p6467e2f8e6)" style="stroke: #000000; stroke-linecap: round"/>
   </g>
   <g id="patch_13">
    <path d="M 242.113237 271.403078 
Q 214.822924 268.86439 188.645838 266.429261 
" clip-path="url(#p6467e2f8e6)" style="fill: none; stroke: #000000; stroke-linecap: round"/>
    <path d="M 192.443391 268.791164 
L 188.645838 266.429261 
L 192.813892 264.80836 
z
" clip-path="url(#p6467e2f8e6)" style="stroke: #000000; stroke-linecap: round"/>
   </g>
   <g id="patch_14">
    <path d="M 244.268121 273.506575 
Q 245.914238 287.566933 247.430349 300.516841 
" clip-path="url(#p6467e2f8e6)" style="fill: none; stroke: #000000; stroke-linecap: round"/>
    <path d="M 248.951658 296.311414 
L 247.430349 300.516841 
L 244.978793 296.776538 
z
" clip-path="url(#p6467e2f8e6)" style="stroke: #000000; stroke-linecap: round"/>
   </g>
   <g id="patch_15">
    <path d="M 247.56054 301.628872 
Q 245.914423 287.568514 244.398312 274.618606 
" clip-path="url(#p6467e2f8e6)" style="fill: none; stroke: #000000; stroke-linecap: round"/>
    <path d="M 242.877003 278.824033 
L 244.398312 274.618606 
L 246.849868 278.35891 
z
" clip-path="url(#p6467e2f8e6)" style="stroke: #000000; stroke-linecap: round"/>
   </g>
   <g id="patch_16">
    <path d="M 388.390653 225.571239 
Q 387.024188 213.244793 385.78091 202.029575 
" clip-path="url(#p6467e2f8e6)" style="fill: none; stroke: #000000; stroke-linecap: round"/>
    <path d="M 384.233812 206.225584 
L 385.78091 202.029575 
L 388.209458 205.784858 
z
" clip-path="url(#p6467e2f8e6)" style="stroke: #000000; stroke-linecap: round"/>
   </g>
   <g id="patch_17">
    <path d="M 383.99292 200.272301 
Q 365.048869 216.948686 346.944017 232.886327 
" clip-path="url(#p6467e2f8e6)" style="fill: none; stroke: #000000; stroke-linecap: round"/>
    <path d="M 351.267936 231.744519 
L 346.944017 232.886327 
L 348.624922 228.742107 
z
" clip-path="url(#p6467e2f8e6)" style="stroke: #000000; stroke-linecap: round"/>
   </g>
   <g id="patch_18">
    <path d="M 385.657735 200.918454 
Q 387.0242 213.244899 388.267478 224.460118 
" clip-path="url(#p6467e2f8e6)" style="fill: none; stroke: #000000; stroke-linecap: round"/>
    <path d="M 389.814575 220.264109 
L 388.267478 224.460118 
L 385.838929 220.704835 
z
" clip-path="url(#p6467e2f8e6)" style="stroke: #000000; stroke-linecap: round"/>
   </g>
   <g id="patch_19">
    <path d="M 385.56808 197.064296 
Q 387.243281 170.908497 388.847021 145.868446 
" clip-path="url(#p6467e2f8e6)" style="fill: none; stroke: #000000; stroke-linecap: round"/>
    <path d="M 386.595446 149.732435 
L 388.847021 145.868446 
L 390.587267 149.988099 
z
" clip-path="url(#p6467e2f8e6)" style="stroke: #000000; stroke-linecap: round"/>
   </g>
   <g id="patch_20">
    <path d="M 387.365732 199.23164 
Q 403.127944 201.176973 417.780541 202.985359 
" clip-path="url(#p6467e2f8e6)" style="fill: none; stroke: #000000; stroke-linecap: round"/>
    <path d="M 414.055637 200.510467 
L 417.780541 202.985359 
L 413.565684 204.480347 
z
" clip-path="url(#p6467e2f8e6)" style="stroke: #000000; stroke-linecap: round"/>
   </g>
   <g id="patch_21">
    <path d="M 193.625711 163.192384 
Q 188.963529 173.512559 184.761634 182.813844 
" clip-path="url(#p6467e2f8e6)" style="fill: none; stroke: #000000; stroke-linecap: round"/>
    <path d="M 188.231053 179.991942 
L 184.761634 182.813844 
L 184.585764 178.345168 
z
" clip-path="url(#p6467e2f8e6)" style="stroke: #000000; stroke-linecap: round"/>
   </g>
   <g id="patch_22">
    <path d="M 184.302896 183.829304 
Q 188.965078 173.509129 193.166973 164.207843 
" clip-path="url(#p6467e2f8e6)" style="fill: none; stroke: #000000; stroke-linecap: round"/>
    <path d="M 189.697554 167.029745 
L 193.166973 164.207843 
L 193.342843 168.67652 
z
" clip-path="url(#p6467e2f8e6)" style="stroke: #000000; stroke-linecap: round"/>
   </g>
   <g id="patch_23">
    <path d="M 181.781568 184.707045 
Q 160.776271 173.859782 140.764369 163.525514 
" clip-path="url(#p6467e2f8e6)" style="fill: none; stroke: #000000; stroke-linecap: round"/>
    <path d="M 143.400776 167.137904 
L 140.764369 163.525514 
L 145.236125 163.583823 
z
" clip-path="url(#p6467e2f8e6)" style="stroke: #000000; stroke-linecap: round"/>
   </g>
   <g id="patch_24">
    <path d="M 184.471504 183.915758 
Q 200.916779 155.329719 216.804535 127.71279 
" clip-path="url(#p6467e2f8e6)" style="fill: none; stroke: #000000; stroke-linecap: round"/>
    <path d="M 213.076299 130.182659 
L 216.804535 127.71279 
L 216.543489 132.1773 
z
" clip-path="url(#p6467e2f8e6)" style="stroke: #000000; stroke-linecap: round"/>
   </g>
   <g id="patch_25">
    <path d="M 183.554821 187.528878 
Q 184.554507 225.87073 185.525052 263.094929 
" clip-path="url(#p6467e2f8e6)" style="fill: none; stroke: #000000; stroke-linecap: round"/>
    <path d="M 187.420117 259.04416 
L 185.525052 263.094929 
L 183.421475 259.148416 
z
" clip-path="url(#p6467e2f8e6)" style="stroke: #000000; stroke-linecap: round"/>
   </g>
   <g id="patch_26">
    <path d="M 57.823776 161.398302 
Q 49.350548 177.712673 41.392638 193.03485 
" clip-path="url(#p6467e2f8e6)" style="fill: none; stroke: #000000; stroke-linecap: round"/>
    <path d="M 45.011184 190.406899 
L 41.392638 193.03485 
L 41.461404 188.563243 
z
" clip-path="url(#p6467e2f8e6)" style="stroke: #000000; stroke-linecap: round"/>
   </g>
   <g id="patch_27">
    <path d="M 60.59867 159.21495 
Q 77.461817 155.072843 93.239205 151.197431 
" clip-path="url(#p6467e2f8e6)" style="fill: none; stroke: #000000; stroke-linecap: round"/>
    <path d="M 88.877594 150.209326 
L 93.239205 151.197431 
L 89.831755 154.093857 
z
" clip-path="url(#p6467e2f8e6)" style="stroke: #000000; stroke-linecap: round"/>
   </g>
   <g id="patch_28">
    <path d="M 166.40105 295.363143 
Q 175.471873 281.56256 183.928608 268.696265 
" clip-path="url(#p6467e2f8e6)" style="fill: none; stroke: #000000; stroke-linecap: round"/>
    <path d="M 180.060274 270.940366 
L 183.928608 268.696265 
L 183.402888 273.137393 
z
" clip-path="url(#p6467e2f8e6)" style="stroke: #000000; stroke-linecap: round"/>
   </g>
   <g id="patch_29">
    <path d="M 297.33016 58.677272 
Q 276.84627 65.645389 257.420848 72.253441 
" clip-path="url(#p6467e2f8e6)" style="fill: none; stroke: #000000; stroke-linecap: round"/>
    <path d="M 261.851839 72.858679 
L 257.420848 72.253441 
L 260.563633 69.07179 
z
" clip-path="url(#p6467e2f8e6)" style="stroke: #000000; stroke-linecap: round"/>
   </g>
   <g id="patch_30">
    <path d="M 301.08464 58.305504 
Q 320.120785 60.801455 338.048385 63.152058 
" clip-path="url(#p6467e2f8e6)" style="fill: none; stroke: #000000; stroke-linecap: round"/>
    <path d="M 334.342338 60.649016 
L 338.048385 63.152058 
L 333.822323 64.61507 
z
" clip-path="url(#p6467e2f8e6)" style="stroke: #000000; stroke-linecap: round"/>
   </g>
   <g id="patch_31">
    <path d="M 339.1543 63.297061 
Q 320.118155 60.80111 302.190556 58.450508 
" clip-path="url(#p6467e2f8e6)" style="fill: none; stroke: #000000; stroke-linecap: round"/>
    <path d="M 305.896602 60.95355 
L 302.190556 58.450508 
L 306.416617 56.987496 
z
" clip-path="url(#p6467e2f8e6)" style="stroke: #000000; stroke-linecap: round"/>
   </g>
   <g id="patch_32">
    <path d="M 342.507222 64.850807 
Q 357.478601 78.463537 371.622768 91.324124 
" clip-path="url(#p6467e2f8e6)" style="fill: none; stroke: #000000; stroke-linecap: round"/>
    <path d="M 370.008717 87.153412 
L 371.622768 91.324124 
L 367.317768 90.112937 
z
" clip-path="url(#p6467e2f8e6)" style="stroke: #000000; stroke-linecap: round"/>
   </g>
   <g id="patch_33">
    <path d="M 372.452611 92.078659 
Q 357.481232 78.465928 343.337065 65.605342 
" clip-path="url(#p6467e2f8e6)" style="fill: none; stroke: #000000; stroke-linecap: round"/>
    <path d="M 344.951116 69.776054 
L 343.337065 65.605342 
L 347.642065 66.816528 
z
" clip-path="url(#p6467e2f8e6)" style="stroke: #000000; stroke-linecap: round"/>
   </g>
   <g id="patch_34">
    <path d="M 374.451517 95.230365 
Q 381.463172 118.101298 388.14712 139.903303 
" clip-path="url(#p6467e2f8e6)" style="fill: none; stroke: #000000; stroke-linecap: round"/>
    <path d="M 388.886838 135.492768 
L 388.14712 139.903303 
L 385.062523 136.665208 
z
" clip-path="url(#p6467e2f8e6)" style="stroke: #000000; stroke-linecap: round"/>
   </g>
   <g id="patch_35">
    <path d="M 388.918474 144.752813 
Q 387.243273 170.908612 385.639533 195.948663 
" clip-path="url(#p6467e2f8e6)" style="fill: none; stroke: #000000; stroke-linecap: round"/>
    <path d="M 387.891107 192.084674 
L 385.639533 195.948663 
L 383.899286 191.82901 
z
" clip-path="url(#p6467e2f8e6)" style="stroke: #000000; stroke-linecap: round"/>
   </g>
   <g id="patch_36">
    <path d="M 388.474981 140.972735 
Q 381.463326 118.101802 374.779378 96.299797 
" clip-path="url(#p6467e2f8e6)" style="fill: none; stroke: #000000; stroke-linecap: round"/>
    <path d="M 374.03966 100.710332 
L 374.779378 96.299797 
L 377.863975 99.537893 
z
" clip-path="url(#p6467e2f8e6)" style="stroke: #000000; stroke-linecap: round"/>
   </g>
   <g id="patch_37">
    <path d="M 418.891946 203.122526 
Q 403.129734 201.177194 388.477137 199.368807 
" clip-path="url(#p6467e2f8e6)" style="fill: none; stroke: #000000; stroke-linecap: round"/>
    <path d="M 392.202041 201.843699 
L 388.477137 199.368807 
L 392.691993 197.873819 
z
" clip-path="url(#p6467e2f8e6)" style="stroke: #000000; stroke-linecap: round"/>
   </g>
   <g id="patch_38">
    <path d="M 181.441996 313.680766 
Q 183.438827 290.878231 185.338125 269.189467 
" clip-path="url(#p6467e2f8e6)" style="fill: none; stroke: #000000; stroke-linecap: round"/>
    <path d="M 182.996802 272.999744 
L 185.338125 269.189467 
L 186.981553 273.348691 
z
" clip-path="url(#p6467e2f8e6)" style="stroke: #000000; stroke-linecap: round"/>
   </g>
   <g id="patch_39">
    <path d="M 251.529621 31.919592 
Q 252.960335 51.61343 254.31004 70.192172 
" clip-path="url(#p6467e2f8e6)" style="fill: none; stroke: #000000; stroke-linecap: round"/>
    <path d="M 256.014956 66.057772 
L 254.31004 70.192172 
L 252.02547 66.347599 
z
" clip-path="url(#p6467e2f8e6)" style="stroke: #000000; stroke-linecap: round"/>
   </g>
   <g id="patch_40">
    <path d="M 128.672816 275.505728 
Q 105.818142 275.385292 84.081487 275.270747 
" clip-path="url(#p6467e2f8e6)" style="fill: none; stroke: #000000; stroke-linecap: round"/>
    <path d="M 88.070892 277.291798 
L 84.081487 275.270747 
L 88.09197 273.291853 
z
" clip-path="url(#p6467e2f8e6)" style="stroke: #000000; stroke-linecap: round"/>
   </g>
   <g id="patch_41">
    <path d="M 132.516412 275.190521 
Q 158.10626 270.831004 182.593952 266.65925 
" clip-path="url(#p6467e2f8e6)" style="fill: none; stroke: #000000; stroke-linecap: round"/>
    <path d="M 178.314881 265.359423 
L 182.593952 266.65925 
L 178.986648 269.30261 
z
" clip-path="url(#p6467e2f8e6)" style="stroke: #000000; stroke-linecap: round"/>
   </g>
   <g id="patch_42">
    <path d="M 51.127916 237.597957 
Q 45.806567 217.606126 40.772799 198.694711 
" clip-path="url(#p6467e2f8e6)" style="fill: none; stroke: #000000; stroke-linecap: round"/>
    <path d="M 39.868973 203.074562 
L 40.772799 198.694711 
L 43.734385 202.045682 
z
" clip-path="url(#p6467e2f8e6)" style="stroke: #000000; stroke-linecap: round"/>
   </g>
   <g id="patch_43">
    <path d="M 52.855249 240.965024 
Q 66.327712 257.361642 79.090394 272.894425 
" clip-path="url(#p6467e2f8e6)" style="fill: none; stroke: #000000; stroke-linecap: round"/>
    <path d="M 78.096284 268.534179 
L 79.090394 272.894425 
L 75.005731 271.073566 
z
" clip-path="url(#p6467e2f8e6)" style="stroke: #000000; stroke-linecap: round"/>
   </g>
   <g id="patch_44">
    <path d="M 256.364545 72.612769 
Q 276.848435 65.644652 296.273858 59.0366 
" clip-path="url(#p6467e2f8e6)" style="fill: none; stroke: #000000; stroke-linecap: round"/>
    <path d="M 291.842866 58.431362 
L 296.273858 59.0366 
L 293.131073 62.218251 
z
" clip-path="url(#p6467e2f8e6)" style="stroke: #000000; stroke-linecap: round"/>
   </g>
   <g id="patch_45">
    <path d="M 254.391024 71.306919 
Q 252.96031 51.613082 251.610605 33.034339 
" clip-path="url(#p6467e2f8e6)" style="fill: none; stroke: #000000; stroke-linecap: round"/>
    <path d="M 249.90569 37.168739 
L 251.610605 33.034339 
L 253.895176 36.878912 
z
" clip-path="url(#p6467e2f8e6)" style="stroke: #000000; stroke-linecap: round"/>
   </g>
   <g id="patch_46">
    <path d="M 253.424126 74.821313 
Q 236.429337 99.151047 220.074787 122.564215 
" clip-path="url(#p6467e2f8e6)" style="fill: none; stroke: #000000; stroke-linecap: round"/>
    <path d="M 224.00498 120.430302 
L 220.074787 122.564215 
L 220.725773 118.139713 
z
" clip-path="url(#p6467e2f8e6)" style="stroke: #000000; stroke-linecap: round"/>
   </g>
   <g id="patch_47">
    <path d="M 217.359994 126.747261 
Q 200.914719 155.333299 185.026963 182.950229 
" clip-path="url(#p6467e2f8e6)" style="fill: none; stroke: #000000; stroke-linecap: round"/>
    <path d="M 188.755199 180.480359 
L 185.026963 182.950229 
L 185.28801 178.485718 
z
" clip-path="url(#p6467e2f8e6)" style="stroke: #000000; stroke-linecap: round"/>
   </g>
   <g id="patch_48">
    <path d="M 219.434126 123.481385 
Q 236.428915 99.151651 252.783465 75.738483 
" clip-path="url(#p6467e2f8e6)" style="fill: none; stroke: #000000; stroke-linecap: round"/>
    <path d="M 248.853272 77.872396 
L 252.783465 75.738483 
L 252.132479 80.162985 
z
" clip-path="url(#p6467e2f8e6)" style="stroke: #000000; stroke-linecap: round"/>
   </g>
   <g id="patch_49">
    <path d="M 94.326227 150.930425 
Q 77.46308 155.072532 61.685693 158.947944 
" clip-path="url(#p6467e2f8e6)" style="fill: none; stroke: #000000; stroke-linecap: round"/>
    <path d="M 66.047304 159.936049 
L 61.685693 158.947944 
L 65.093143 156.051518 
z
" clip-path="url(#p6467e2f8e6)" style="stroke: #000000; stroke-linecap: round"/>
   </g>
   <g id="patch_50">
    <path d="M 98.073962 150.988434 
Q 117.128387 156.295987 135.105779 161.303536 
" clip-path="url(#p6467e2f8e6)" style="fill: none; stroke: #000000; stroke-linecap: round"/>
    <path d="M 131.789136 158.303556 
L 135.105779 161.303536 
L 130.71581 162.156862 
z
" clip-path="url(#p6467e2f8e6)" style="stroke: #000000; stroke-linecap: round"/>
   </g>
   <g id="patch_51">
    <path d="M 139.772214 163.013159 
Q 160.777512 173.860423 180.789413 184.19469 
" clip-path="url(#p6467e2f8e6)" style="fill: none; stroke: #000000; stroke-linecap: round"/>
    <path d="M 178.153006 180.5823 
L 180.789413 184.19469 
L 176.317657 184.136382 
z
" clip-path="url(#p6467e2f8e6)" style="stroke: #000000; stroke-linecap: round"/>
   </g>
   <g id="patch_52">
    <path d="M 136.182475 161.603446 
Q 117.12805 156.295893 99.150657 151.288344 
" clip-path="url(#p6467e2f8e6)" style="fill: none; stroke: #000000; stroke-linecap: round"/>
    <path d="M 102.4673 154.288324 
L 99.150657 151.288344 
L 103.540627 150.435018 
z
" clip-path="url(#p6467e2f8e6)" style="stroke: #000000; stroke-linecap: round"/>
   </g>
   <g id="patch_53">
    <path d="M 199.433158 300.218872 
Q 192.882661 284.078928 186.752616 268.974948 
" clip-path="url(#p6467e2f8e6)" style="fill: none; stroke: #000000; stroke-linecap: round"/>
    <path d="M 186.403684 273.43345 
L 186.752616 268.974948 
L 190.110059 271.929195 
z
" clip-path="url(#p6467e2f8e6)" style="stroke: #000000; stroke-linecap: round"/>
   </g>
   <g id="patch_54">
    <path d="M 187.534244 266.325855 
Q 214.824558 268.864542 241.001644 271.299672 
" clip-path="url(#p6467e2f8e6)" style="fill: none; stroke: #000000; stroke-linecap: round"/>
    <path d="M 237.20409 268.937768 
L 241.001644 271.299672 
L 236.833589 272.920573 
z
" clip-path="url(#p6467e2f8e6)" style="stroke: #000000; stroke-linecap: round"/>
   </g>
   <g id="patch_55">
    <path d="M 185.554236 264.214222 
Q 184.55455 225.872369 183.584005 188.648171 
" clip-path="url(#p6467e2f8e6)" style="fill: none; stroke: #000000; stroke-linecap: round"/>
    <path d="M 181.688941 192.69894 
L 183.584005 188.648171 
L 185.687582 192.594683 
z
" clip-path="url(#p6467e2f8e6)" style="stroke: #000000; stroke-linecap: round"/>
   </g>
   <g id="patch_56">
    <path d="M 184.543382 267.760933 
Q 175.472559 281.561516 167.015823 294.427811 
" clip-path="url(#p6467e2f8e6)" style="fill: none; stroke: #000000; stroke-linecap: round"/>
    <path d="M 170.884158 292.18371 
L 167.015823 294.427811 
L 167.541544 289.986683 
z
" clip-path="url(#p6467e2f8e6)" style="stroke: #000000; stroke-linecap: round"/>
   </g>
   <g id="patch_57">
    <path d="M 185.435675 268.075502 
Q 183.438844 290.878037 181.539546 312.566801 
" clip-path="url(#p6467e2f8e6)" style="fill: none; stroke: #000000; stroke-linecap: round"/>
    <path d="M 183.880868 308.756524 
L 181.539546 312.566801 
L 179.896118 308.407577 
z
" clip-path="url(#p6467e2f8e6)" style="stroke: #000000; stroke-linecap: round"/>
   </g>
   <g id="patch_58">
    <path d="M 183.694578 266.471746 
Q 158.104731 270.831264 133.617038 275.003017 
" clip-path="url(#p6467e2f8e6)" style="fill: none; stroke: #000000; stroke-linecap: round"/>
    <path d="M 137.896109 276.302845 
L 133.617038 275.003017 
L 137.224343 272.359657 
z
" clip-path="url(#p6467e2f8e6)" style="stroke: #000000; stroke-linecap: round"/>
   </g>
   <g id="patch_59">
    <path d="M 186.331308 267.936876 
Q 192.881805 284.07682 199.011851 299.1808 
" clip-path="url(#p6467e2f8e6)" style="fill: none; stroke: #000000; stroke-linecap: round"/>
    <path d="M 199.360783 294.722298 
L 199.011851 299.1808 
L 195.654408 296.226553 
z
" clip-path="url(#p6467e2f8e6)" style="stroke: #000000; stroke-linecap: round"/>
   </g>
   <g id="PathCollection_1">
    <defs>
     <path id="md261ade093" d="M 0 1.936492 
C 0.513564 1.936492 1.006162 1.732451 1.369306 1.369306 
C 1.732451 1.006162 1.936492 0.513564 1.936492 0 
C 1.936492 -0.513564 1.732451 -1.006162 1.369306 -1.369306 
C 1.006162 -1.732451 0.513564 -1.936492 0 -1.936492 
C -0.513564 -1.936492 -1.006162 -1.732451 -1.369306 -1.369306 
C -1.732451 -1.006162 -1.936492 -0.513564 -1.936492 0 
C -1.936492 0.513564 -1.732451 1.006162 -1.369306 1.369306 
C -1.006162 1.732451 -0.513564 1.936492 0 1.936492 
z
" style="stroke: #1f78b4"/>
    </defs>
    <g clip-path="url(#p6467e2f8e6)">
     <use xlink:href="#md261ade093" x="56.485311" y="302.833604" style="fill: #1f78b4; stroke: #1f78b4"/>
     <use xlink:href="#md261ade093" x="39.986777" y="195.741698" style="fill: #1f78b4; stroke: #1f78b4"/>
     <use xlink:href="#md261ade093" x="81.029712" y="275.254665" style="fill: #1f78b4; stroke: #1f78b4"/>
     <use xlink:href="#md261ade093" x="297.401907" y="259.379084" style="fill: #1f78b4; stroke: #1f78b4"/>
     <use xlink:href="#md261ade093" x="344.652108" y="234.903887" style="fill: #1f78b4; stroke: #1f78b4"/>
     <use xlink:href="#md261ade093" x="244.042869" y="271.582582" style="fill: #1f78b4; stroke: #1f78b4"/>
     <use xlink:href="#md261ade093" x="247.785791" y="303.552865" style="fill: #1f78b4; stroke: #1f78b4"/>
     <use xlink:href="#md261ade093" x="388.603933" y="227.495172" style="fill: #1f78b4; stroke: #1f78b4"/>
     <use xlink:href="#md261ade093" x="385.444454" y="198.994521" style="fill: #1f78b4; stroke: #1f78b4"/>
     <use xlink:href="#md261ade093" x="194.424162" y="161.424938" style="fill: #1f78b4; stroke: #1f78b4"/>
     <use xlink:href="#md261ade093" x="183.504445" y="185.596749" style="fill: #1f78b4; stroke: #1f78b4"/>
     <use xlink:href="#md261ade093" x="58.717799" y="159.67695" style="fill: #1f78b4; stroke: #1f78b4"/>
     <use xlink:href="#md261ade093" x="165.33982" y="296.977726" style="fill: #1f78b4; stroke: #1f78b4"/>
     <use xlink:href="#md261ade093" x="299.163506" y="58.053612" style="fill: #1f78b4; stroke: #1f78b4"/>
     <use xlink:href="#md261ade093" x="341.075434" y="63.548953" style="fill: #1f78b4; stroke: #1f78b4"/>
     <use xlink:href="#md261ade093" x="373.884399" y="93.380512" style="fill: #1f78b4; stroke: #1f78b4"/>
     <use xlink:href="#md261ade093" x="389.042099" y="142.822589" style="fill: #1f78b4; stroke: #1f78b4"/>
     <use xlink:href="#md261ade093" x="420.813223" y="203.359645" style="fill: #1f78b4; stroke: #1f78b4"/>
     <use xlink:href="#md261ade093" x="181.273059" y="315.609917" style="fill: #1f78b4; stroke: #1f78b4"/>
     <use xlink:href="#md261ade093" x="251.389447" y="29.990083" style="fill: #1f78b4; stroke: #1f78b4"/>
     <use xlink:href="#md261ade093" x="130.606379" y="275.515917" style="fill: #1f78b4; stroke: #1f78b4"/>
     <use xlink:href="#md261ade093" x="51.625903" y="239.468852" style="fill: #1f78b4; stroke: #1f78b4"/>
     <use xlink:href="#md261ade093" x="254.531199" y="73.236429" style="fill: #1f78b4; stroke: #1f78b4"/>
     <use xlink:href="#md261ade093" x="218.327053" y="125.066269" style="fill: #1f78b4; stroke: #1f78b4"/>
     <use xlink:href="#md261ade093" x="96.207099" y="150.468425" style="fill: #1f78b4; stroke: #1f78b4"/>
     <use xlink:href="#md261ade093" x="138.049337" y="162.123455" style="fill: #1f78b4; stroke: #1f78b4"/>
     <use xlink:href="#md261ade093" x="200.159854" y="302.009398" style="fill: #1f78b4; stroke: #1f78b4"/>
     <use xlink:href="#md261ade093" x="185.604612" y="266.14635" style="fill: #1f78b4; stroke: #1f78b4"/>
    </g>
   </g>
   <g id="text_1">
    <g clip-path="url(#p6467e2f8e6)">
     <!-- 0 -->
     <g transform="translate(53.304061 305.592979) scale(0.1 -0.1)">
      <defs>
       <path id="DejaVuSans-30" d="M 2034 4250 
Q 1547 4250 1301 3770 
Q 1056 3291 1056 2328 
Q 1056 1369 1301 889 
Q 1547 409 2034 409 
Q 2525 409 2770 889 
Q 3016 1369 3016 2328 
Q 3016 3291 2770 3770 
Q 2525 4250 2034 4250 
z
M 2034 4750 
Q 2819 4750 3233 4129 
Q 3647 3509 3647 2328 
Q 3647 1150 3233 529 
Q 2819 -91 2034 -91 
Q 1250 -91 836 529 
Q 422 1150 422 2328 
Q 422 3509 836 4129 
Q 1250 4750 2034 4750 
z
" transform="scale(0.015625)"/>
      </defs>
      <use xlink:href="#DejaVuSans-30"/>
     </g>
    </g>
   </g>
   <g id="text_2">
    <g clip-path="url(#p6467e2f8e6)">
     <!-- 2 -->
     <g transform="translate(36.805527 198.501073) scale(0.1 -0.1)">
      <defs>
       <path id="DejaVuSans-32" d="M 1228 531 
L 3431 531 
L 3431 0 
L 469 0 
L 469 531 
Q 828 903 1448 1529 
Q 2069 2156 2228 2338 
Q 2531 2678 2651 2914 
Q 2772 3150 2772 3378 
Q 2772 3750 2511 3984 
Q 2250 4219 1831 4219 
Q 1534 4219 1204 4116 
Q 875 4013 500 3803 
L 500 4441 
Q 881 4594 1212 4672 
Q 1544 4750 1819 4750 
Q 2544 4750 2975 4387 
Q 3406 4025 3406 3419 
Q 3406 3131 3298 2873 
Q 3191 2616 2906 2266 
Q 2828 2175 2409 1742 
Q 1991 1309 1228 531 
z
" transform="scale(0.015625)"/>
      </defs>
      <use xlink:href="#DejaVuSans-32"/>
     </g>
    </g>
   </g>
   <g id="text_3">
    <g clip-path="url(#p6467e2f8e6)">
     <!-- 3 -->
     <g transform="translate(77.848462 278.01404) scale(0.1 -0.1)">
      <defs>
       <path id="DejaVuSans-33" d="M 2597 2516 
Q 3050 2419 3304 2112 
Q 3559 1806 3559 1356 
Q 3559 666 3084 287 
Q 2609 -91 1734 -91 
Q 1441 -91 1130 -33 
Q 819 25 488 141 
L 488 750 
Q 750 597 1062 519 
Q 1375 441 1716 441 
Q 2309 441 2620 675 
Q 2931 909 2931 1356 
Q 2931 1769 2642 2001 
Q 2353 2234 1838 2234 
L 1294 2234 
L 1294 2753 
L 1863 2753 
Q 2328 2753 2575 2939 
Q 2822 3125 2822 3475 
Q 2822 3834 2567 4026 
Q 2313 4219 1838 4219 
Q 1578 4219 1281 4162 
Q 984 4106 628 3988 
L 628 4550 
Q 988 4650 1302 4700 
Q 1616 4750 1894 4750 
Q 2613 4750 3031 4423 
Q 3450 4097 3450 3541 
Q 3450 3153 3228 2886 
Q 3006 2619 2597 2516 
z
" transform="scale(0.015625)"/>
      </defs>
      <use xlink:href="#DejaVuSans-33"/>
     </g>
    </g>
   </g>
   <g id="text_4">
    <g clip-path="url(#p6467e2f8e6)">
     <!-- 4 -->
     <g transform="translate(294.220657 262.138459) scale(0.1 -0.1)">
      <defs>
       <path id="DejaVuSans-34" d="M 2419 4116 
L 825 1625 
L 2419 1625 
L 2419 4116 
z
M 2253 4666 
L 3047 4666 
L 3047 1625 
L 3713 1625 
L 3713 1100 
L 3047 1100 
L 3047 0 
L 2419 0 
L 2419 1100 
L 313 1100 
L 313 1709 
L 2253 4666 
z
" transform="scale(0.015625)"/>
      </defs>
      <use xlink:href="#DejaVuSans-34"/>
     </g>
    </g>
   </g>
   <g id="text_5">
    <g clip-path="url(#p6467e2f8e6)">
     <!-- 5 -->
     <g transform="translate(341.470858 237.663262) scale(0.1 -0.1)">
      <defs>
       <path id="DejaVuSans-35" d="M 691 4666 
L 3169 4666 
L 3169 4134 
L 1269 4134 
L 1269 2991 
Q 1406 3038 1543 3061 
Q 1681 3084 1819 3084 
Q 2600 3084 3056 2656 
Q 3513 2228 3513 1497 
Q 3513 744 3044 326 
Q 2575 -91 1722 -91 
Q 1428 -91 1123 -41 
Q 819 9 494 109 
L 494 744 
Q 775 591 1075 516 
Q 1375 441 1709 441 
Q 2250 441 2565 725 
Q 2881 1009 2881 1497 
Q 2881 1984 2565 2268 
Q 2250 2553 1709 2553 
Q 1456 2553 1204 2497 
Q 953 2441 691 2322 
L 691 4666 
z
" transform="scale(0.015625)"/>
      </defs>
      <use xlink:href="#DejaVuSans-35"/>
     </g>
    </g>
   </g>
   <g id="text_6">
    <g clip-path="url(#p6467e2f8e6)">
     <!-- 6 -->
     <g transform="translate(240.861619 274.341957) scale(0.1 -0.1)">
      <defs>
       <path id="DejaVuSans-36" d="M 2113 2584 
Q 1688 2584 1439 2293 
Q 1191 2003 1191 1497 
Q 1191 994 1439 701 
Q 1688 409 2113 409 
Q 2538 409 2786 701 
Q 3034 994 3034 1497 
Q 3034 2003 2786 2293 
Q 2538 2584 2113 2584 
z
M 3366 4563 
L 3366 3988 
Q 3128 4100 2886 4159 
Q 2644 4219 2406 4219 
Q 1781 4219 1451 3797 
Q 1122 3375 1075 2522 
Q 1259 2794 1537 2939 
Q 1816 3084 2150 3084 
Q 2853 3084 3261 2657 
Q 3669 2231 3669 1497 
Q 3669 778 3244 343 
Q 2819 -91 2113 -91 
Q 1303 -91 875 529 
Q 447 1150 447 2328 
Q 447 3434 972 4092 
Q 1497 4750 2381 4750 
Q 2619 4750 2861 4703 
Q 3103 4656 3366 4563 
z
" transform="scale(0.015625)"/>
      </defs>
      <use xlink:href="#DejaVuSans-36"/>
     </g>
    </g>
   </g>
   <g id="text_7">
    <g clip-path="url(#p6467e2f8e6)">
     <!-- 7 -->
     <g transform="translate(244.604541 306.31224) scale(0.1 -0.1)">
      <defs>
       <path id="DejaVuSans-37" d="M 525 4666 
L 3525 4666 
L 3525 4397 
L 1831 0 
L 1172 0 
L 2766 4134 
L 525 4134 
L 525 4666 
z
" transform="scale(0.015625)"/>
      </defs>
      <use xlink:href="#DejaVuSans-37"/>
     </g>
    </g>
   </g>
   <g id="text_8">
    <g clip-path="url(#p6467e2f8e6)">
     <!-- 8 -->
     <g transform="translate(385.422683 230.254547) scale(0.1 -0.1)">
      <defs>
       <path id="DejaVuSans-38" d="M 2034 2216 
Q 1584 2216 1326 1975 
Q 1069 1734 1069 1313 
Q 1069 891 1326 650 
Q 1584 409 2034 409 
Q 2484 409 2743 651 
Q 3003 894 3003 1313 
Q 3003 1734 2745 1975 
Q 2488 2216 2034 2216 
z
M 1403 2484 
Q 997 2584 770 2862 
Q 544 3141 544 3541 
Q 544 4100 942 4425 
Q 1341 4750 2034 4750 
Q 2731 4750 3128 4425 
Q 3525 4100 3525 3541 
Q 3525 3141 3298 2862 
Q 3072 2584 2669 2484 
Q 3125 2378 3379 2068 
Q 3634 1759 3634 1313 
Q 3634 634 3220 271 
Q 2806 -91 2034 -91 
Q 1263 -91 848 271 
Q 434 634 434 1313 
Q 434 1759 690 2068 
Q 947 2378 1403 2484 
z
M 1172 3481 
Q 1172 3119 1398 2916 
Q 1625 2713 2034 2713 
Q 2441 2713 2670 2916 
Q 2900 3119 2900 3481 
Q 2900 3844 2670 4047 
Q 2441 4250 2034 4250 
Q 1625 4250 1398 4047 
Q 1172 3844 1172 3481 
z
" transform="scale(0.015625)"/>
      </defs>
      <use xlink:href="#DejaVuSans-38"/>
     </g>
    </g>
   </g>
   <g id="text_9">
    <g clip-path="url(#p6467e2f8e6)">
     <!-- 9 -->
     <g transform="translate(382.263204 201.753896) scale(0.1 -0.1)">
      <defs>
       <path id="DejaVuSans-39" d="M 703 97 
L 703 672 
Q 941 559 1184 500 
Q 1428 441 1663 441 
Q 2288 441 2617 861 
Q 2947 1281 2994 2138 
Q 2813 1869 2534 1725 
Q 2256 1581 1919 1581 
Q 1219 1581 811 2004 
Q 403 2428 403 3163 
Q 403 3881 828 4315 
Q 1253 4750 1959 4750 
Q 2769 4750 3195 4129 
Q 3622 3509 3622 2328 
Q 3622 1225 3098 567 
Q 2575 -91 1691 -91 
Q 1453 -91 1209 -44 
Q 966 3 703 97 
z
M 1959 2075 
Q 2384 2075 2632 2365 
Q 2881 2656 2881 3163 
Q 2881 3666 2632 3958 
Q 2384 4250 1959 4250 
Q 1534 4250 1286 3958 
Q 1038 3666 1038 3163 
Q 1038 2656 1286 2365 
Q 1534 2075 1959 2075 
z
" transform="scale(0.015625)"/>
      </defs>
      <use xlink:href="#DejaVuSans-39"/>
     </g>
    </g>
   </g>
   <g id="text_10">
    <g clip-path="url(#p6467e2f8e6)">
     <!-- 10 -->
     <g transform="translate(188.061662 164.184313) scale(0.1 -0.1)">
      <defs>
       <path id="DejaVuSans-31" d="M 794 531 
L 1825 531 
L 1825 4091 
L 703 3866 
L 703 4441 
L 1819 4666 
L 2450 4666 
L 2450 531 
L 3481 531 
L 3481 0 
L 794 0 
L 794 531 
z
" transform="scale(0.015625)"/>
      </defs>
      <use xlink:href="#DejaVuSans-31"/>
      <use xlink:href="#DejaVuSans-30" x="63.623047"/>
     </g>
    </g>
   </g>
   <g id="text_11">
    <g clip-path="url(#p6467e2f8e6)">
     <!-- 11 -->
     <g transform="translate(177.141945 188.356124) scale(0.1 -0.1)">
      <use xlink:href="#DejaVuSans-31"/>
      <use xlink:href="#DejaVuSans-31" x="63.623047"/>
     </g>
    </g>
   </g>
   <g id="text_12">
    <g clip-path="url(#p6467e2f8e6)">
     <!-- 12 -->
     <g transform="translate(52.355299 162.436325) scale(0.1 -0.1)">
      <use xlink:href="#DejaVuSans-31"/>
      <use xlink:href="#DejaVuSans-32" x="63.623047"/>
     </g>
    </g>
   </g>
   <g id="text_13">
    <g clip-path="url(#p6467e2f8e6)">
     <!-- 13 -->
     <g transform="translate(158.97732 299.737101) scale(0.1 -0.1)">
      <use xlink:href="#DejaVuSans-31"/>
      <use xlink:href="#DejaVuSans-33" x="63.623047"/>
     </g>
    </g>
   </g>
   <g id="text_14">
    <g clip-path="url(#p6467e2f8e6)">
     <!-- 14 -->
     <g transform="translate(292.801006 60.812987) scale(0.1 -0.1)">
      <use xlink:href="#DejaVuSans-31"/>
      <use xlink:href="#DejaVuSans-34" x="63.623047"/>
     </g>
    </g>
   </g>
   <g id="text_15">
    <g clip-path="url(#p6467e2f8e6)">
     <!-- 15 -->
     <g transform="translate(334.712934 66.308328) scale(0.1 -0.1)">
      <use xlink:href="#DejaVuSans-31"/>
      <use xlink:href="#DejaVuSans-35" x="63.623047"/>
     </g>
    </g>
   </g>
   <g id="text_16">
    <g clip-path="url(#p6467e2f8e6)">
     <!-- 16 -->
     <g transform="translate(367.521899 96.139887) scale(0.1 -0.1)">
      <use xlink:href="#DejaVuSans-31"/>
      <use xlink:href="#DejaVuSans-36" x="63.623047"/>
     </g>
    </g>
   </g>
   <g id="text_17">
    <g clip-path="url(#p6467e2f8e6)">
     <!-- 17 -->
     <g transform="translate(382.679599 145.581964) scale(0.1 -0.1)">
      <use xlink:href="#DejaVuSans-31"/>
      <use xlink:href="#DejaVuSans-37" x="63.623047"/>
     </g>
    </g>
   </g>
   <g id="text_18">
    <g clip-path="url(#p6467e2f8e6)">
     <!-- 18 -->
     <g transform="translate(414.450723 206.11902) scale(0.1 -0.1)">
      <use xlink:href="#DejaVuSans-31"/>
      <use xlink:href="#DejaVuSans-38" x="63.623047"/>
     </g>
    </g>
   </g>
   <g id="text_19">
    <g clip-path="url(#p6467e2f8e6)">
     <!-- 19 -->
     <g transform="translate(174.910559 318.369292) scale(0.1 -0.1)">
      <use xlink:href="#DejaVuSans-31"/>
      <use xlink:href="#DejaVuSans-39" x="63.623047"/>
     </g>
    </g>
   </g>
   <g id="text_20">
    <g clip-path="url(#p6467e2f8e6)">
     <!-- 21 -->
     <g transform="translate(245.026947 32.749458) scale(0.1 -0.1)">
      <use xlink:href="#DejaVuSans-32"/>
      <use xlink:href="#DejaVuSans-31" x="63.623047"/>
     </g>
    </g>
   </g>
   <g id="text_21">
    <g clip-path="url(#p6467e2f8e6)">
     <!-- 22 -->
     <g transform="translate(124.243879 278.275292) scale(0.1 -0.1)">
      <use xlink:href="#DejaVuSans-32"/>
      <use xlink:href="#DejaVuSans-32" x="63.623047"/>
     </g>
    </g>
   </g>
   <g id="text_22">
    <g clip-path="url(#p6467e2f8e6)">
     <!-- 23 -->
     <g transform="translate(45.263403 242.228227) scale(0.1 -0.1)">
      <use xlink:href="#DejaVuSans-32"/>
      <use xlink:href="#DejaVuSans-33" x="63.623047"/>
     </g>
    </g>
   </g>
   <g id="text_23">
    <g clip-path="url(#p6467e2f8e6)">
     <!-- 25 -->
     <g transform="translate(248.168699 75.995804) scale(0.1 -0.1)">
      <use xlink:href="#DejaVuSans-32"/>
      <use xlink:href="#DejaVuSans-35" x="63.623047"/>
     </g>
    </g>
   </g>
   <g id="text_24">
    <g clip-path="url(#p6467e2f8e6)">
     <!-- 26 -->
     <g transform="translate(211.964553 127.825644) scale(0.1 -0.1)">
      <use xlink:href="#DejaVuSans-32"/>
      <use xlink:href="#DejaVuSans-36" x="63.623047"/>
     </g>
    </g>
   </g>
   <g id="text_25">
    <g clip-path="url(#p6467e2f8e6)">
     <!-- 27 -->
     <g transform="translate(89.844599 153.2278) scale(0.1 -0.1)">
      <use xlink:href="#DejaVuSans-32"/>
      <use xlink:href="#DejaVuSans-37" x="63.623047"/>
     </g>
    </g>
   </g>
   <g id="text_26">
    <g clip-path="url(#p6467e2f8e6)">
     <!-- 28 -->
     <g transform="translate(131.686837 164.88283) scale(0.1 -0.1)">
      <use xlink:href="#DejaVuSans-32"/>
      <use xlink:href="#DejaVuSans-38" x="63.623047"/>
     </g>
    </g>
   </g>
   <g id="text_27">
    <g clip-path="url(#p6467e2f8e6)">
     <!-- 29 -->
     <g transform="translate(193.797354 304.768773) scale(0.1 -0.1)">
      <use xlink:href="#DejaVuSans-32"/>
      <use xlink:href="#DejaVuSans-39" x="63.623047"/>
     </g>
    </g>
   </g>
   <g id="text_28">
    <g clip-path="url(#p6467e2f8e6)">
     <!-- 30 -->
     <g transform="translate(179.242112 268.905725) scale(0.1 -0.1)">
      <use xlink:href="#DejaVuSans-33"/>
      <use xlink:href="#DejaVuSans-30" x="63.623047"/>
     </g>
    </g>
   </g>
  </g>
 </g>
 <defs>
  <clipPath id="p6467e2f8e6">
   <rect x="0" y="0" width="460.8" height="345.6"/>
  </clipPath>
 </defs>
</svg>
