<?xml version="1.0" encoding="utf-8" standalone="no"?>
<!DOCTYPE svg PUBLIC "-//W3C//DTD SVG 1.1//EN"
  "http://www.w3.org/Graphics/SVG/1.1/DTD/svg11.dtd">
<svg xmlns:xlink="http://www.w3.org/1999/xlink" width="460.8pt" height="345.6pt" viewBox="0 0 460.8 345.6" xmlns="http://www.w3.org/2000/svg" version="1.1">
 <metadata>
  <rdf:RDF xmlns:dc="http://purl.org/dc/elements/1.1/" xmlns:cc="http://creativecommons.org/ns#" xmlns:rdf="http://www.w3.org/1999/02/22-rdf-syntax-ns#">
   <cc:Work>
    <dc:type rdf:resource="http://purl.org/dc/dcmitype/StillImage"/>
    <dc:date>2024-02-07T13:48:05.212662</dc:date>
    <dc:format>image/svg+xml</dc:format>
    <dc:creator>
     <cc:Agent>
      <dc:title>Matplotlib v3.8.0, https://matplotlib.org/</dc:title>
     </cc:Agent>
    </dc:creator>
   </cc:Work>
  </rdf:RDF>
 </metadata>
 <defs>
  <style type="text/css">*{stroke-linejoin: round; stroke-linecap: butt}</style>
 </defs>
 <g id="figure_1">
  <g id="patch_1">
   <path d="M 0 345.6 
L 460.8 345.6 
L 460.8 0 
L 0 0 
z
" style="fill: #ffffff"/>
  </g>
  <g id="axes_1">
   <g id="patch_2">
    <path d="M 390.166501 86.70873 
Q 367.327323 89.411086 345.598434 91.982071 
" clip-path="url(#p339e8b4031)" style="fill: none; stroke: #000000; stroke-linecap: round"/>
    <path d="M 349.805728 93.498211 
L 345.598434 91.982071 
L 349.335722 89.52592 
z
" clip-path="url(#p339e8b4031)" style="stroke: #000000; stroke-linecap: round"/>
   </g>
   <g id="patch_3">
    <path d="M 309.331047 58.373794 
Q 325.272888 74.665823 340.432794 90.158741 
" clip-path="url(#p339e8b4031)" style="fill: none; stroke: #000000; stroke-linecap: round"/>
    <path d="M 339.064753 85.900987 
L 340.432794 90.158741 
L 336.205767 88.698521 
z
" clip-path="url(#p339e8b4031)" style="stroke: #000000; stroke-linecap: round"/>
   </g>
   <g id="patch_4">
    <path d="M 333.137422 122.854662 
Q 337.566551 108.523286 341.665557 95.260095 
" clip-path="url(#p339e8b4031)" style="fill: none; stroke: #000000; stroke-linecap: round"/>
    <path d="M 338.573643 98.491205 
L 341.665557 95.260095 
L 342.395297 99.672292 
z
" clip-path="url(#p339e8b4031)" style="stroke: #000000; stroke-linecap: round"/>
   </g>
   <g id="patch_5">
    <path d="M 359.933182 64.684355 
Q 351.764548 77.693823 344.190443 89.756436 
" clip-path="url(#p339e8b4031)" style="fill: none; stroke: #000000; stroke-linecap: round"/>
    <path d="M 348.011283 87.432391 
L 344.190443 89.756436 
L 344.623711 85.305338 
z
" clip-path="url(#p339e8b4031)" style="stroke: #000000; stroke-linecap: round"/>
   </g>
   <g id="patch_6">
    <path d="M 243.362746 85.277629 
Q 291.997994 88.740276 339.51803 92.123525 
" clip-path="url(#p339e8b4031)" style="fill: none; stroke: #000000; stroke-linecap: round"/>
    <path d="M 335.670162 89.844508 
L 339.51803 92.123525 
L 335.386096 93.834409 
z
" clip-path="url(#p339e8b4031)" style="stroke: #000000; stroke-linecap: round"/>
   </g>
   <g id="patch_7">
    <path d="M 239.518953 84.852394 
Q 200.422629 78.974142 162.431912 73.262121 
" clip-path="url(#p339e8b4031)" style="fill: none; stroke: #000000; stroke-linecap: round"/>
    <path d="M 166.090089 75.834619 
L 162.431912 73.262121 
L 166.684816 71.879079 
z
" clip-path="url(#p339e8b4031)" style="stroke: #000000; stroke-linecap: round"/>
   </g>
   <g id="patch_8">
    <path d="M 247.676837 62.473681 
Q 208.894289 55.553639 171.212391 48.829987 
" clip-path="url(#p339e8b4031)" style="fill: none; stroke: #000000; stroke-linecap: round"/>
    <path d="M 174.798881 51.50152 
L 171.212391 48.829987 
L 175.501511 47.563714 
z
" clip-path="url(#p339e8b4031)" style="stroke: #000000; stroke-linecap: round"/>
   </g>
   <g id="patch_9">
    <path d="M 251.428959 63.400166 
Q 296.076372 77.577633 339.658186 91.416727 
" clip-path="url(#p339e8b4031)" style="fill: none; stroke: #000000; stroke-linecap: round"/>
    <path d="M 336.451081 88.299921 
L 339.658186 91.416727 
L 335.240479 92.112328 
z
" clip-path="url(#p339e8b4031)" style="stroke: #000000; stroke-linecap: round"/>
   </g>
   <g id="patch_10">
    <path d="M 297.975942 111.511789 
Q 319.383251 102.308265 339.763429 93.54633 
" clip-path="url(#p339e8b4031)" style="fill: none; stroke: #000000; stroke-linecap: round"/>
    <path d="M 335.298713 93.288818 
L 339.763429 93.54633 
L 336.87859 96.963596 
z
" clip-path="url(#p339e8b4031)" style="stroke: #000000; stroke-linecap: round"/>
   </g>
   <g id="patch_11">
    <path d="M 161.32945 73.096363 
Q 200.425774 78.974615 238.416491 84.686636 
" clip-path="url(#p339e8b4031)" style="fill: none; stroke: #000000; stroke-linecap: round"/>
    <path d="M 234.758315 82.114138 
L 238.416491 84.686636 
L 234.163587 86.069678 
z
" clip-path="url(#p339e8b4031)" style="stroke: #000000; stroke-linecap: round"/>
   </g>
   <g id="patch_12">
    <path d="M 157.586316 72.171334 
Q 129.279436 62.306989 102.028322 52.810557 
" clip-path="url(#p339e8b4031)" style="fill: none; stroke: #000000; stroke-linecap: round"/>
    <path d="M 105.147403 56.015449 
L 102.028322 52.810557 
L 106.463684 52.238227 
z
" clip-path="url(#p339e8b4031)" style="stroke: #000000; stroke-linecap: round"/>
   </g>
   <g id="patch_13">
    <path d="M 170.110245 48.633329 
Q 208.892794 55.553372 246.574692 62.277023 
" clip-path="url(#p339e8b4031)" style="fill: none; stroke: #000000; stroke-linecap: round"/>
    <path d="M 242.988202 59.60549 
L 246.574692 62.277023 
L 242.285572 63.543296 
z
" clip-path="url(#p339e8b4031)" style="stroke: #000000; stroke-linecap: round"/>
   </g>
   <g id="patch_14">
    <path d="M 166.27067 48.391833 
Q 133.675628 50.049125 102.197177 51.649644 
" clip-path="url(#p339e8b4031)" style="fill: none; stroke: #000000; stroke-linecap: round"/>
    <path d="M 106.293575 53.443946 
L 102.197177 51.649644 
L 106.090458 49.449107 
z
" clip-path="url(#p339e8b4031)" style="stroke: #000000; stroke-linecap: round"/>
   </g>
   <g id="patch_15">
    <path d="M 418.879056 90.89889 
Q 381.689901 91.601514 345.618579 92.283019 
" clip-path="url(#p339e8b4031)" style="fill: none; stroke: #000000; stroke-linecap: round"/>
    <path d="M 349.655646 94.207103 
L 345.618579 92.283019 
L 349.580086 90.207816 
z
" clip-path="url(#p339e8b4031)" style="stroke: #000000; stroke-linecap: round"/>
   </g>
   <g id="patch_16">
    <path d="M 363.422388 44.242708 
Q 353.380141 67.403644 343.782651 89.538816 
" clip-path="url(#p339e8b4031)" style="fill: none; stroke: #000000; stroke-linecap: round"/>
    <path d="M 347.208802 86.664536 
L 343.782651 89.538816 
L 343.538917 85.073327 
z
" clip-path="url(#p339e8b4031)" style="stroke: #000000; stroke-linecap: round"/>
   </g>
   <g id="patch_17">
    <path d="M 51.331379 30.768995 
Q 74.351337 40.8973 96.347935 50.575347 
" clip-path="url(#p339e8b4031)" style="fill: none; stroke: #000000; stroke-linecap: round"/>
    <path d="M 93.492093 47.133812 
L 96.347935 50.575347 
L 91.881202 50.7951 
z
" clip-path="url(#p339e8b4031)" style="stroke: #000000; stroke-linecap: round"/>
   </g>
   <g id="patch_18">
    <path d="M 100.970943 52.442083 
Q 129.277823 62.306427 156.528938 71.80286 
" clip-path="url(#p339e8b4031)" style="fill: none; stroke: #000000; stroke-linecap: round"/>
    <path d="M 153.409857 68.597968 
L 156.528938 71.80286 
L 152.093575 72.37519 
z
" clip-path="url(#p339e8b4031)" style="stroke: #000000; stroke-linecap: round"/>
   </g>
   <g id="patch_19">
    <path d="M 101.077429 51.706577 
Q 133.672471 50.049285 165.150922 48.448766 
" clip-path="url(#p339e8b4031)" style="fill: none; stroke: #000000; stroke-linecap: round"/>
    <path d="M 161.054524 46.654464 
L 165.150922 48.448766 
L 161.257641 50.649303 
z
" clip-path="url(#p339e8b4031)" style="stroke: #000000; stroke-linecap: round"/>
   </g>
   <g id="patch_20">
    <path d="M 97.372285 51.02604 
Q 74.352326 40.897735 52.355728 31.219688 
" clip-path="url(#p339e8b4031)" style="fill: none; stroke: #000000; stroke-linecap: round"/>
    <path d="M 55.211571 34.661223 
L 52.355728 31.219688 
L 56.822462 30.999935 
z
" clip-path="url(#p339e8b4031)" style="stroke: #000000; stroke-linecap: round"/>
   </g>
   <g id="patch_21">
    <path d="M 97.21096 51.979995 
Q 69.564596 54.485236 43.031704 56.889577 
" clip-path="url(#p339e8b4031)" style="fill: none; stroke: #000000; stroke-linecap: round"/>
    <path d="M 47.195877 58.520425 
L 43.031704 56.889577 
L 46.834887 54.536748 
z
" clip-path="url(#p339e8b4031)" style="stroke: #000000; stroke-linecap: round"/>
   </g>
   <g id="patch_22">
    <path d="M 390.820524 55.284224 
Q 367.46137 73.223256 344.988938 90.481316 
" clip-path="url(#p339e8b4031)" style="fill: none; stroke: #000000; stroke-linecap: round"/>
    <path d="M 349.379533 89.631212 
L 344.988938 90.481316 
L 346.943212 86.458778 
z
" clip-path="url(#p339e8b4031)" style="stroke: #000000; stroke-linecap: round"/>
   </g>
   <g id="patch_23">
    <path d="M 404.617325 110.327346 
Q 374.522327 101.603517 345.501156 93.190965 
" clip-path="url(#p339e8b4031)" style="fill: none; stroke: #000000; stroke-linecap: round"/>
    <path d="M 348.78617 96.225546 
L 345.501156 93.190965 
L 349.89983 92.383703 
z
" clip-path="url(#p339e8b4031)" style="stroke: #000000; stroke-linecap: round"/>
   </g>
   <g id="patch_24">
    <path d="M 333.359968 48.497832 
Q 337.764661 69.47062 341.939557 89.349243 
" clip-path="url(#p339e8b4031)" style="fill: none; stroke: #000000; stroke-linecap: round"/>
    <path d="M 343.074715 85.023573 
L 341.939557 89.349243 
L 339.160116 85.845715 
z
" clip-path="url(#p339e8b4031)" style="stroke: #000000; stroke-linecap: round"/>
   </g>
   <g id="patch_25">
    <path d="M 300.147733 83.099918 
Q 320.411451 87.514142 339.582754 91.690396 
" clip-path="url(#p339e8b4031)" style="fill: none; stroke: #000000; stroke-linecap: round"/>
    <path d="M 336.100106 88.884837 
L 339.582754 91.690396 
L 335.248717 92.793179 
z
" clip-path="url(#p339e8b4031)" style="stroke: #000000; stroke-linecap: round"/>
   </g>
   <g id="patch_26">
    <path d="M 293.257263 313.823595 
Q 300.251644 296.897807 306.819032 281.005304 
" clip-path="url(#p339e8b4031)" style="fill: none; stroke: #000000; stroke-linecap: round"/>
    <path d="M 303.442981 283.938269 
L 306.819032 281.005304 
L 307.139773 285.465924 
z
" clip-path="url(#p339e8b4031)" style="stroke: #000000; stroke-linecap: round"/>
   </g>
   <g id="patch_27">
    <path d="M 247.837703 251.732699 
Q 267.407643 240.110917 286.016282 229.060013 
" clip-path="url(#p339e8b4031)" style="fill: none; stroke: #000000; stroke-linecap: round"/>
    <path d="M 281.555811 229.382817 
L 286.016282 229.060013 
L 283.598243 232.822072 
z
" clip-path="url(#p339e8b4031)" style="stroke: #000000; stroke-linecap: round"/>
   </g>
   <g id="patch_28">
    <path d="M 41.918441 56.990458 
Q 69.564804 54.485217 96.097696 52.080876 
" clip-path="url(#p339e8b4031)" style="fill: none; stroke: #000000; stroke-linecap: round"/>
    <path d="M 91.933523 50.450027 
L 96.097696 52.080876 
L 92.294514 54.433705 
z
" clip-path="url(#p339e8b4031)" style="stroke: #000000; stroke-linecap: round"/>
   </g>
   <g id="patch_29">
    <path d="M 344.493282 92.112834 
Q 367.33246 89.410478 389.061348 86.839492 
" clip-path="url(#p339e8b4031)" style="fill: none; stroke: #000000; stroke-linecap: round"/>
    <path d="M 384.854055 85.323353 
L 389.061348 86.839492 
L 385.32406 89.295644 
z
" clip-path="url(#p339e8b4031)" style="stroke: #000000; stroke-linecap: round"/>
   </g>
   <g id="patch_30">
    <path d="M 341.214527 90.957646 
Q 325.272686 74.665617 310.11278 59.172699 
" clip-path="url(#p339e8b4031)" style="fill: none; stroke: #000000; stroke-linecap: round"/>
    <path d="M 311.480821 63.430453 
L 310.11278 59.172699 
L 314.339807 60.632919 
z
" clip-path="url(#p339e8b4031)" style="stroke: #000000; stroke-linecap: round"/>
   </g>
   <g id="patch_31">
    <path d="M 341.995127 94.193703 
Q 337.565997 108.525079 333.466992 121.78827 
" clip-path="url(#p339e8b4031)" style="fill: none; stroke: #000000; stroke-linecap: round"/>
    <path d="M 336.558905 118.55716 
L 333.466992 121.78827 
L 332.737252 117.376073 
z
" clip-path="url(#p339e8b4031)" style="stroke: #000000; stroke-linecap: round"/>
   </g>
   <g id="patch_32">
    <path d="M 343.598551 90.69909 
Q 351.767186 77.689622 359.341291 65.627009 
" clip-path="url(#p339e8b4031)" style="fill: none; stroke: #000000; stroke-linecap: round"/>
    <path d="M 355.520451 67.951054 
L 359.341291 65.627009 
L 358.908023 70.078108 
z
" clip-path="url(#p339e8b4031)" style="stroke: #000000; stroke-linecap: round"/>
   </g>
   <g id="patch_33">
    <path d="M 340.638834 92.203322 
Q 292.003586 88.740674 244.48355 85.357426 
" clip-path="url(#p339e8b4031)" style="fill: none; stroke: #000000; stroke-linecap: round"/>
    <path d="M 248.331418 87.636442 
L 244.48355 85.357426 
L 248.615483 83.646541 
z
" clip-path="url(#p339e8b4031)" style="stroke: #000000; stroke-linecap: round"/>
   </g>
   <g id="patch_34">
    <path d="M 340.720461 91.754045 
Q 296.073047 77.576577 252.491234 63.737484 
" clip-path="url(#p339e8b4031)" style="fill: none; stroke: #000000; stroke-linecap: round"/>
    <path d="M 255.698339 66.854289 
L 252.491234 63.737484 
L 256.908941 63.041883 
z
" clip-path="url(#p339e8b4031)" style="stroke: #000000; stroke-linecap: round"/>
   </g>
   <g id="patch_35">
    <path d="M 340.787534 93.106043 
Q 319.380225 102.309566 299.000047 111.071501 
" clip-path="url(#p339e8b4031)" style="fill: none; stroke: #000000; stroke-linecap: round"/>
    <path d="M 303.464763 111.329014 
L 299.000047 111.071501 
L 301.884886 107.654236 
z
" clip-path="url(#p339e8b4031)" style="stroke: #000000; stroke-linecap: round"/>
   </g>
   <g id="patch_36">
    <path d="M 344.501979 92.304115 
Q 381.691135 91.601491 417.762456 90.919986 
" clip-path="url(#p339e8b4031)" style="fill: none; stroke: #000000; stroke-linecap: round"/>
    <path d="M 413.72539 88.995903 
L 417.762456 90.919986 
L 413.80095 92.995189 
z
" clip-path="url(#p339e8b4031)" style="stroke: #000000; stroke-linecap: round"/>
   </g>
   <g id="patch_37">
    <path d="M 343.337271 90.566017 
Q 353.379518 67.405081 362.977009 45.269909 
" clip-path="url(#p339e8b4031)" style="fill: none; stroke: #000000; stroke-linecap: round"/>
    <path d="M 359.550857 48.144189 
L 362.977009 45.269909 
L 363.220742 49.735398 
z
" clip-path="url(#p339e8b4031)" style="stroke: #000000; stroke-linecap: round"/>
   </g>
   <g id="patch_38">
    <path d="M 344.102394 91.162152 
Q 367.461548 73.223119 389.93398 55.96506 
" clip-path="url(#p339e8b4031)" style="fill: none; stroke: #000000; stroke-linecap: round"/>
    <path d="M 385.543385 56.815164 
L 389.93398 55.96506 
L 387.979706 59.987598 
z
" clip-path="url(#p339e8b4031)" style="stroke: #000000; stroke-linecap: round"/>
   </g>
   <g id="patch_39">
    <path d="M 344.428479 92.880021 
Q 374.523477 101.60385 403.544647 110.016402 
" clip-path="url(#p339e8b4031)" style="fill: none; stroke: #000000; stroke-linecap: round"/>
    <path d="M 400.259633 106.98182 
L 403.544647 110.016402 
L 399.145974 110.823664 
z
" clip-path="url(#p339e8b4031)" style="stroke: #000000; stroke-linecap: round"/>
   </g>
   <g id="patch_40">
    <path d="M 342.169715 90.445129 
Q 337.765022 69.472342 333.590125 49.593718 
" clip-path="url(#p339e8b4031)" style="fill: none; stroke: #000000; stroke-linecap: round"/>
    <path d="M 332.454968 53.919388 
L 333.590125 49.593718 
L 336.369567 53.097246 
z
" clip-path="url(#p339e8b4031)" style="stroke: #000000; stroke-linecap: round"/>
   </g>
   <g id="patch_41">
    <path d="M 340.677367 91.928845 
Q 320.413649 87.514621 301.242346 83.338367 
" clip-path="url(#p339e8b4031)" style="fill: none; stroke: #000000; stroke-linecap: round"/>
    <path d="M 304.724994 86.143927 
L 301.242346 83.338367 
L 305.576382 82.235585 
z
" clip-path="url(#p339e8b4031)" style="stroke: #000000; stroke-linecap: round"/>
   </g>
   <g id="patch_42">
    <path d="M 344.065153 93.571312 
Q 359.211945 106.020357 373.495 117.759502 
" clip-path="url(#p339e8b4031)" style="fill: none; stroke: #000000; stroke-linecap: round"/>
    <path d="M 371.674707 113.674587 
L 373.495 117.759502 
L 369.134892 116.764788 
z
" clip-path="url(#p339e8b4031)" style="stroke: #000000; stroke-linecap: round"/>
   </g>
   <g id="patch_43">
    <path d="M 344.4044 91.714611 
Q 377.479175 80.440244 409.495708 69.526606 
" clip-path="url(#p339e8b4031)" style="fill: none; stroke: #000000; stroke-linecap: round"/>
    <path d="M 405.064338 68.924146 
L 409.495708 69.526606 
L 406.354918 72.710226 
z
" clip-path="url(#p339e8b4031)" style="stroke: #000000; stroke-linecap: round"/>
   </g>
   <g id="patch_44">
    <path d="M 343.646831 93.952869 
Q 363.078676 122.986883 381.888668 151.091759 
" clip-path="url(#p339e8b4031)" style="fill: none; stroke: #000000; stroke-linecap: round"/>
    <path d="M 381.325954 146.655166 
L 381.888668 151.091759 
L 378.001766 148.879975 
z
" clip-path="url(#p339e8b4031)" style="stroke: #000000; stroke-linecap: round"/>
   </g>
   <g id="patch_45">
    <path d="M 341.803455 94.116429 
Q 327.259632 127.90495 313.157841 160.666531 
" clip-path="url(#p339e8b4031)" style="fill: none; stroke: #000000; stroke-linecap: round"/>
    <path d="M 316.576353 157.783169 
L 313.157841 160.666531 
L 312.902259 156.201704 
z
" clip-path="url(#p339e8b4031)" style="stroke: #000000; stroke-linecap: round"/>
   </g>
   <g id="patch_46">
    <path d="M 374.357352 118.468263 
Q 359.21056 106.019218 344.927505 94.280073 
" clip-path="url(#p339e8b4031)" style="fill: none; stroke: #000000; stroke-linecap: round"/>
    <path d="M 346.747799 98.364989 
L 344.927505 94.280073 
L 349.287613 95.274788 
z
" clip-path="url(#p339e8b4031)" style="stroke: #000000; stroke-linecap: round"/>
   </g>
   <g id="patch_47">
    <path d="M 307.246748 279.970269 
Q 300.252367 296.896057 293.684979 312.788559 
" clip-path="url(#p339e8b4031)" style="fill: none; stroke: #000000; stroke-linecap: round"/>
    <path d="M 297.061031 309.855595 
L 293.684979 312.788559 
L 293.364239 308.32794 
z
" clip-path="url(#p339e8b4031)" style="stroke: #000000; stroke-linecap: round"/>
   </g>
   <g id="patch_48">
    <path d="M 307.294339 276.374235 
Q 298.314554 252.842298 289.733376 230.354925 
" clip-path="url(#p339e8b4031)" style="fill: none; stroke: #000000; stroke-linecap: round"/>
    <path d="M 289.290897 234.805118 
L 289.733376 230.354925 
L 293.028042 233.379023 
z
" clip-path="url(#p339e8b4031)" style="stroke: #000000; stroke-linecap: round"/>
   </g>
   <g id="patch_49">
    <path d="M 309.91459 278.327272 
Q 336.777127 280.322482 362.5247 282.234879 
" clip-path="url(#p339e8b4031)" style="fill: none; stroke: #000000; stroke-linecap: round"/>
    <path d="M 358.68383 279.94409 
L 362.5247 282.234879 
L 358.387547 283.933101 
z
" clip-path="url(#p339e8b4031)" style="stroke: #000000; stroke-linecap: round"/>
   </g>
   <g id="patch_50">
    <path d="M 363.642945 282.317936 
Q 336.780409 280.322726 311.032835 278.41033 
" clip-path="url(#p339e8b4031)" style="fill: none; stroke: #000000; stroke-linecap: round"/>
    <path d="M 314.873705 280.701119 
L 311.032835 278.41033 
L 315.169988 276.712107 
z
" clip-path="url(#p339e8b4031)" style="stroke: #000000; stroke-linecap: round"/>
   </g>
   <g id="patch_51">
    <path d="M 367.108133 281.279328 
Q 384.837264 267.632734 401.680426 254.668094 
" clip-path="url(#p339e8b4031)" style="fill: none; stroke: #000000; stroke-linecap: round"/>
    <path d="M 397.290775 255.523057 
L 401.680426 254.668094 
L 399.730606 258.692793 
z
" clip-path="url(#p339e8b4031)" style="stroke: #000000; stroke-linecap: round"/>
   </g>
   <g id="patch_52">
    <path d="M 402.563896 253.988063 
Q 384.834766 267.634657 367.991604 280.599297 
" clip-path="url(#p339e8b4031)" style="fill: none; stroke: #000000; stroke-linecap: round"/>
    <path d="M 372.381255 279.744333 
L 367.991604 280.599297 
L 369.941423 276.574598 
z
" clip-path="url(#p339e8b4031)" style="stroke: #000000; stroke-linecap: round"/>
   </g>
   <g id="patch_53">
    <path d="M 404.21835 250.87421 
Q 405.513495 229.835872 406.739942 209.913456 
" clip-path="url(#p339e8b4031)" style="fill: none; stroke: #000000; stroke-linecap: round"/>
    <path d="M 404.497942 213.783008 
L 406.739942 209.913456 
L 408.490384 214.028788 
z
" clip-path="url(#p339e8b4031)" style="stroke: #000000; stroke-linecap: round"/>
   </g>
   <g id="patch_54">
    <path d="M 410.547127 69.168203 
Q 377.472353 80.44257 345.45582 91.356208 
" clip-path="url(#p339e8b4031)" style="fill: none; stroke: #000000; stroke-linecap: round"/>
    <path d="M 349.88719 91.958668 
L 345.45582 91.356208 
L 348.596609 88.172588 
z
" clip-path="url(#p339e8b4031)" style="stroke: #000000; stroke-linecap: round"/>
   </g>
   <g id="patch_55">
    <path d="M 382.506513 152.014909 
Q 363.074668 122.980894 344.264675 94.876019 
" clip-path="url(#p339e8b4031)" style="fill: none; stroke: #000000; stroke-linecap: round"/>
    <path d="M 344.827389 99.312611 
L 344.264675 94.876019 
L 348.151578 97.087803 
z
" clip-path="url(#p339e8b4031)" style="stroke: #000000; stroke-linecap: round"/>
   </g>
   <g id="patch_56">
    <path d="M 384.361983 155.398076 
Q 395.255672 180.24474 405.700426 204.067462 
" clip-path="url(#p339e8b4031)" style="fill: none; stroke: #000000; stroke-linecap: round"/>
    <path d="M 405.925955 199.601016 
L 405.700426 204.067462 
L 402.262587 201.207171 
z
" clip-path="url(#p339e8b4031)" style="stroke: #000000; stroke-linecap: round"/>
   </g>
   <g id="patch_57">
    <path d="M 406.808599 208.798197 
Q 405.513454 229.836535 404.287006 249.758951 
" clip-path="url(#p339e8b4031)" style="fill: none; stroke: #000000; stroke-linecap: round"/>
    <path d="M 406.529007 245.889399 
L 404.287006 249.758951 
L 402.536565 245.643619 
z
" clip-path="url(#p339e8b4031)" style="stroke: #000000; stroke-linecap: round"/>
   </g>
   <g id="patch_58">
    <path d="M 406.151078 205.095322 
Q 395.257389 180.248658 384.812635 156.425936 
" clip-path="url(#p339e8b4031)" style="fill: none; stroke: #000000; stroke-linecap: round"/>
    <path d="M 384.587106 160.892382 
L 384.812635 156.425936 
L 388.250474 159.286227 
z
" clip-path="url(#p339e8b4031)" style="stroke: #000000; stroke-linecap: round"/>
   </g>
   <g id="patch_59">
    <path d="M 286.976921 228.489529 
Q 267.406981 240.11131 248.798342 251.162215 
" clip-path="url(#p339e8b4031)" style="fill: none; stroke: #000000; stroke-linecap: round"/>
    <path d="M 253.258813 250.83941 
L 248.798342 251.162215 
L 251.216381 247.400155 
z
" clip-path="url(#p339e8b4031)" style="stroke: #000000; stroke-linecap: round"/>
   </g>
   <g id="patch_60">
    <path d="M 289.334384 229.309351 
Q 298.314169 252.841287 306.895348 275.32866 
" clip-path="url(#p339e8b4031)" style="fill: none; stroke: #000000; stroke-linecap: round"/>
    <path d="M 307.337826 270.878468 
L 306.895348 275.32866 
L 303.600681 272.304562 
z
" clip-path="url(#p339e8b4031)" style="stroke: #000000; stroke-linecap: round"/>
   </g>
   <g id="patch_61">
    <path d="M 289.305222 225.682553 
Q 300.295944 195.488468 310.904245 166.34498 
" clip-path="url(#p339e8b4031)" style="fill: none; stroke: #000000; stroke-linecap: round"/>
    <path d="M 307.656692 169.419618 
L 310.904245 166.34498 
L 311.415423 170.787806 
z
" clip-path="url(#p339e8b4031)" style="stroke: #000000; stroke-linecap: round"/>
   </g>
   <g id="patch_62">
    <path d="M 312.713023 161.699942 
Q 327.256846 127.911421 341.358637 95.149841 
" clip-path="url(#p339e8b4031)" style="fill: none; stroke: #000000; stroke-linecap: round"/>
    <path d="M 337.940124 98.033202 
L 341.358637 95.149841 
L 341.614218 99.614667 
z
" clip-path="url(#p339e8b4031)" style="stroke: #000000; stroke-linecap: round"/>
   </g>
   <g id="patch_63">
    <path d="M 311.287242 165.292799 
Q 300.29652 195.486884 289.688219 224.630372 
" clip-path="url(#p339e8b4031)" style="fill: none; stroke: #000000; stroke-linecap: round"/>
    <path d="M 292.935772 221.555734 
L 289.688219 224.630372 
L 289.17704 220.187547 
z
" clip-path="url(#p339e8b4031)" style="stroke: #000000; stroke-linecap: round"/>
   </g>
   <g id="PathCollection_1">
    <defs>
     <path id="m2a4034d4bb" d="M 0 1.936492 
C 0.513564 1.936492 1.006162 1.732451 1.369306 1.369306 
C 1.732451 1.006162 1.936492 0.513564 1.936492 0 
C 1.936492 -0.513564 1.732451 -1.006162 1.369306 -1.369306 
C 1.006162 -1.732451 0.513564 -1.936492 0 -1.936492 
C -0.513564 -1.936492 -1.006162 -1.732451 -1.369306 -1.369306 
C -1.732451 -1.006162 -1.936492 -0.513564 -1.936492 0 
C -1.936492 0.513564 -1.732451 1.006162 -1.369306 1.369306 
C -1.006162 1.732451 -0.513564 1.936492 0 1.936492 
z
" style="stroke: #1f78b4"/>
    </defs>
    <g clip-path="url(#p339e8b4031)">
     <use xlink:href="#m2a4034d4bb" x="392.09197" y="86.480906" style="fill: #1f78b4; stroke: #1f78b4"/>
     <use xlink:href="#m2a4034d4bb" x="307.977762" y="56.990782" style="fill: #1f78b4; stroke: #1f78b4"/>
     <use xlink:href="#m2a4034d4bb" x="332.564736" y="124.707707" style="fill: #1f78b4; stroke: #1f78b4"/>
     <use xlink:href="#m2a4034d4bb" x="360.963921" y="63.042788" style="fill: #1f78b4; stroke: #1f78b4"/>
     <use xlink:href="#m2a4034d4bb" x="241.433767" y="85.140293" style="fill: #1f78b4; stroke: #1f78b4"/>
     <use xlink:href="#m2a4034d4bb" x="249.581607" y="62.813553" style="fill: #1f78b4; stroke: #1f78b4"/>
     <use xlink:href="#m2a4034d4bb" x="296.195664" y="112.277174" style="fill: #1f78b4; stroke: #1f78b4"/>
     <use xlink:href="#m2a4034d4bb" x="159.414636" y="72.808465" style="fill: #1f78b4; stroke: #1f78b4"/>
     <use xlink:href="#m2a4034d4bb" x="168.205475" y="48.293458" style="fill: #1f78b4; stroke: #1f78b4"/>
     <use xlink:href="#m2a4034d4bb" x="420.813223" y="90.862347" style="fill: #1f78b4; stroke: #1f78b4"/>
     <use xlink:href="#m2a4034d4bb" x="364.191847" y="42.468067" style="fill: #1f78b4; stroke: #1f78b4"/>
     <use xlink:href="#m2a4034d4bb" x="49.56104" y="29.990083" style="fill: #1f78b4; stroke: #1f78b4"/>
     <use xlink:href="#m2a4034d4bb" x="99.142624" y="51.804952" style="fill: #1f78b4; stroke: #1f78b4"/>
     <use xlink:href="#m2a4034d4bb" x="392.355105" y="54.105718" style="fill: #1f78b4; stroke: #1f78b4"/>
     <use xlink:href="#m2a4034d4bb" x="406.477991" y="110.866709" style="fill: #1f78b4; stroke: #1f78b4"/>
     <use xlink:href="#m2a4034d4bb" x="332.96187" y="46.602304" style="fill: #1f78b4; stroke: #1f78b4"/>
     <use xlink:href="#m2a4034d4bb" x="298.257287" y="82.688105" style="fill: #1f78b4; stroke: #1f78b4"/>
     <use xlink:href="#m2a4034d4bb" x="292.519087" y="315.609917" style="fill: #1f78b4; stroke: #1f78b4"/>
     <use xlink:href="#m2a4034d4bb" x="246.170826" y="252.722588" style="fill: #1f78b4; stroke: #1f78b4"/>
     <use xlink:href="#m2a4034d4bb" x="39.986777" y="57.1655" style="fill: #1f78b4; stroke: #1f78b4"/>
     <use xlink:href="#m2a4034d4bb" x="342.567812" y="92.340658" style="fill: #1f78b4; stroke: #1f78b4"/>
     <use xlink:href="#m2a4034d4bb" x="375.854693" y="119.698918" style="fill: #1f78b4; stroke: #1f78b4"/>
     <use xlink:href="#m2a4034d4bb" x="307.984925" y="278.183947" style="fill: #1f78b4; stroke: #1f78b4"/>
     <use xlink:href="#m2a4034d4bb" x="365.572611" y="282.461262" style="fill: #1f78b4; stroke: #1f78b4"/>
     <use xlink:href="#m2a4034d4bb" x="404.099419" y="252.806129" style="fill: #1f78b4; stroke: #1f78b4"/>
     <use xlink:href="#m2a4034d4bb" x="412.383715" y="68.542156" style="fill: #1f78b4; stroke: #1f78b4"/>
     <use xlink:href="#m2a4034d4bb" x="383.585531" y="153.62712" style="fill: #1f78b4; stroke: #1f78b4"/>
     <use xlink:href="#m2a4034d4bb" x="406.92753" y="206.866278" style="fill: #1f78b4; stroke: #1f78b4"/>
     <use xlink:href="#m2a4034d4bb" x="288.643799" y="227.499639" style="fill: #1f78b4; stroke: #1f78b4"/>
     <use xlink:href="#m2a4034d4bb" x="311.948665" y="163.475714" style="fill: #1f78b4; stroke: #1f78b4"/>
    </g>
   </g>
   <g id="text_1">
    <g clip-path="url(#p339e8b4031)">
     <!-- 0 -->
     <g transform="translate(388.91072 89.240281) scale(0.1 -0.1)">
      <defs>
       <path id="DejaVuSans-30" d="M 2034 4250 
Q 1547 4250 1301 3770 
Q 1056 3291 1056 2328 
Q 1056 1369 1301 889 
Q 1547 409 2034 409 
Q 2525 409 2770 889 
Q 3016 1369 3016 2328 
Q 3016 3291 2770 3770 
Q 2525 4250 2034 4250 
z
M 2034 4750 
Q 2819 4750 3233 4129 
Q 3647 3509 3647 2328 
Q 3647 1150 3233 529 
Q 2819 -91 2034 -91 
Q 1250 -91 836 529 
Q 422 1150 422 2328 
Q 422 3509 836 4129 
Q 1250 4750 2034 4750 
z
" transform="scale(0.015625)"/>
      </defs>
      <use xlink:href="#DejaVuSans-30"/>
     </g>
    </g>
   </g>
   <g id="text_2">
    <g clip-path="url(#p339e8b4031)">
     <!-- 1 -->
     <g transform="translate(304.796512 59.750157) scale(0.1 -0.1)">
      <defs>
       <path id="DejaVuSans-31" d="M 794 531 
L 1825 531 
L 1825 4091 
L 703 3866 
L 703 4441 
L 1819 4666 
L 2450 4666 
L 2450 531 
L 3481 531 
L 3481 0 
L 794 0 
L 794 531 
z
" transform="scale(0.015625)"/>
      </defs>
      <use xlink:href="#DejaVuSans-31"/>
     </g>
    </g>
   </g>
   <g id="text_3">
    <g clip-path="url(#p339e8b4031)">
     <!-- 2 -->
     <g transform="translate(329.383486 127.467082) scale(0.1 -0.1)">
      <defs>
       <path id="DejaVuSans-32" d="M 1228 531 
L 3431 531 
L 3431 0 
L 469 0 
L 469 531 
Q 828 903 1448 1529 
Q 2069 2156 2228 2338 
Q 2531 2678 2651 2914 
Q 2772 3150 2772 3378 
Q 2772 3750 2511 3984 
Q 2250 4219 1831 4219 
Q 1534 4219 1204 4116 
Q 875 4013 500 3803 
L 500 4441 
Q 881 4594 1212 4672 
Q 1544 4750 1819 4750 
Q 2544 4750 2975 4387 
Q 3406 4025 3406 3419 
Q 3406 3131 3298 2873 
Q 3191 2616 2906 2266 
Q 2828 2175 2409 1742 
Q 1991 1309 1228 531 
z
" transform="scale(0.015625)"/>
      </defs>
      <use xlink:href="#DejaVuSans-32"/>
     </g>
    </g>
   </g>
   <g id="text_4">
    <g clip-path="url(#p339e8b4031)">
     <!-- 3 -->
     <g transform="translate(357.782671 65.802163) scale(0.1 -0.1)">
      <defs>
       <path id="DejaVuSans-33" d="M 2597 2516 
Q 3050 2419 3304 2112 
Q 3559 1806 3559 1356 
Q 3559 666 3084 287 
Q 2609 -91 1734 -91 
Q 1441 -91 1130 -33 
Q 819 25 488 141 
L 488 750 
Q 750 597 1062 519 
Q 1375 441 1716 441 
Q 2309 441 2620 675 
Q 2931 909 2931 1356 
Q 2931 1769 2642 2001 
Q 2353 2234 1838 2234 
L 1294 2234 
L 1294 2753 
L 1863 2753 
Q 2328 2753 2575 2939 
Q 2822 3125 2822 3475 
Q 2822 3834 2567 4026 
Q 2313 4219 1838 4219 
Q 1578 4219 1281 4162 
Q 984 4106 628 3988 
L 628 4550 
Q 988 4650 1302 4700 
Q 1616 4750 1894 4750 
Q 2613 4750 3031 4423 
Q 3450 4097 3450 3541 
Q 3450 3153 3228 2886 
Q 3006 2619 2597 2516 
z
" transform="scale(0.015625)"/>
      </defs>
      <use xlink:href="#DejaVuSans-33"/>
     </g>
    </g>
   </g>
   <g id="text_5">
    <g clip-path="url(#p339e8b4031)">
     <!-- 4 -->
     <g transform="translate(238.252517 87.899668) scale(0.1 -0.1)">
      <defs>
       <path id="DejaVuSans-34" d="M 2419 4116 
L 825 1625 
L 2419 1625 
L 2419 4116 
z
M 2253 4666 
L 3047 4666 
L 3047 1625 
L 3713 1625 
L 3713 1100 
L 3047 1100 
L 3047 0 
L 2419 0 
L 2419 1100 
L 313 1100 
L 313 1709 
L 2253 4666 
z
" transform="scale(0.015625)"/>
      </defs>
      <use xlink:href="#DejaVuSans-34"/>
     </g>
    </g>
   </g>
   <g id="text_6">
    <g clip-path="url(#p339e8b4031)">
     <!-- 5 -->
     <g transform="translate(246.400357 65.572928) scale(0.1 -0.1)">
      <defs>
       <path id="DejaVuSans-35" d="M 691 4666 
L 3169 4666 
L 3169 4134 
L 1269 4134 
L 1269 2991 
Q 1406 3038 1543 3061 
Q 1681 3084 1819 3084 
Q 2600 3084 3056 2656 
Q 3513 2228 3513 1497 
Q 3513 744 3044 326 
Q 2575 -91 1722 -91 
Q 1428 -91 1123 -41 
Q 819 9 494 109 
L 494 744 
Q 775 591 1075 516 
Q 1375 441 1709 441 
Q 2250 441 2565 725 
Q 2881 1009 2881 1497 
Q 2881 1984 2565 2268 
Q 2250 2553 1709 2553 
Q 1456 2553 1204 2497 
Q 953 2441 691 2322 
L 691 4666 
z
" transform="scale(0.015625)"/>
      </defs>
      <use xlink:href="#DejaVuSans-35"/>
     </g>
    </g>
   </g>
   <g id="text_7">
    <g clip-path="url(#p339e8b4031)">
     <!-- 6 -->
     <g transform="translate(293.014414 115.036549) scale(0.1 -0.1)">
      <defs>
       <path id="DejaVuSans-36" d="M 2113 2584 
Q 1688 2584 1439 2293 
Q 1191 2003 1191 1497 
Q 1191 994 1439 701 
Q 1688 409 2113 409 
Q 2538 409 2786 701 
Q 3034 994 3034 1497 
Q 3034 2003 2786 2293 
Q 2538 2584 2113 2584 
z
M 3366 4563 
L 3366 3988 
Q 3128 4100 2886 4159 
Q 2644 4219 2406 4219 
Q 1781 4219 1451 3797 
Q 1122 3375 1075 2522 
Q 1259 2794 1537 2939 
Q 1816 3084 2150 3084 
Q 2853 3084 3261 2657 
Q 3669 2231 3669 1497 
Q 3669 778 3244 343 
Q 2819 -91 2113 -91 
Q 1303 -91 875 529 
Q 447 1150 447 2328 
Q 447 3434 972 4092 
Q 1497 4750 2381 4750 
Q 2619 4750 2861 4703 
Q 3103 4656 3366 4563 
z
" transform="scale(0.015625)"/>
      </defs>
      <use xlink:href="#DejaVuSans-36"/>
     </g>
    </g>
   </g>
   <g id="text_8">
    <g clip-path="url(#p339e8b4031)">
     <!-- 7 -->
     <g transform="translate(156.233386 75.56784) scale(0.1 -0.1)">
      <defs>
       <path id="DejaVuSans-37" d="M 525 4666 
L 3525 4666 
L 3525 4397 
L 1831 0 
L 1172 0 
L 2766 4134 
L 525 4134 
L 525 4666 
z
" transform="scale(0.015625)"/>
      </defs>
      <use xlink:href="#DejaVuSans-37"/>
     </g>
    </g>
   </g>
   <g id="text_9">
    <g clip-path="url(#p339e8b4031)">
     <!-- 8 -->
     <g transform="translate(165.024225 51.052833) scale(0.1 -0.1)">
      <defs>
       <path id="DejaVuSans-38" d="M 2034 2216 
Q 1584 2216 1326 1975 
Q 1069 1734 1069 1313 
Q 1069 891 1326 650 
Q 1584 409 2034 409 
Q 2484 409 2743 651 
Q 3003 894 3003 1313 
Q 3003 1734 2745 1975 
Q 2488 2216 2034 2216 
z
M 1403 2484 
Q 997 2584 770 2862 
Q 544 3141 544 3541 
Q 544 4100 942 4425 
Q 1341 4750 2034 4750 
Q 2731 4750 3128 4425 
Q 3525 4100 3525 3541 
Q 3525 3141 3298 2862 
Q 3072 2584 2669 2484 
Q 3125 2378 3379 2068 
Q 3634 1759 3634 1313 
Q 3634 634 3220 271 
Q 2806 -91 2034 -91 
Q 1263 -91 848 271 
Q 434 634 434 1313 
Q 434 1759 690 2068 
Q 947 2378 1403 2484 
z
M 1172 3481 
Q 1172 3119 1398 2916 
Q 1625 2713 2034 2713 
Q 2441 2713 2670 2916 
Q 2900 3119 2900 3481 
Q 2900 3844 2670 4047 
Q 2441 4250 2034 4250 
Q 1625 4250 1398 4047 
Q 1172 3844 1172 3481 
z
" transform="scale(0.015625)"/>
      </defs>
      <use xlink:href="#DejaVuSans-38"/>
     </g>
    </g>
   </g>
   <g id="text_10">
    <g clip-path="url(#p339e8b4031)">
     <!-- 9 -->
     <g transform="translate(417.631973 93.621722) scale(0.1 -0.1)">
      <defs>
       <path id="DejaVuSans-39" d="M 703 97 
L 703 672 
Q 941 559 1184 500 
Q 1428 441 1663 441 
Q 2288 441 2617 861 
Q 2947 1281 2994 2138 
Q 2813 1869 2534 1725 
Q 2256 1581 1919 1581 
Q 1219 1581 811 2004 
Q 403 2428 403 3163 
Q 403 3881 828 4315 
Q 1253 4750 1959 4750 
Q 2769 4750 3195 4129 
Q 3622 3509 3622 2328 
Q 3622 1225 3098 567 
Q 2575 -91 1691 -91 
Q 1453 -91 1209 -44 
Q 966 3 703 97 
z
M 1959 2075 
Q 2384 2075 2632 2365 
Q 2881 2656 2881 3163 
Q 2881 3666 2632 3958 
Q 2384 4250 1959 4250 
Q 1534 4250 1286 3958 
Q 1038 3666 1038 3163 
Q 1038 2656 1286 2365 
Q 1534 2075 1959 2075 
z
" transform="scale(0.015625)"/>
      </defs>
      <use xlink:href="#DejaVuSans-39"/>
     </g>
    </g>
   </g>
   <g id="text_11">
    <g clip-path="url(#p339e8b4031)">
     <!-- 10 -->
     <g transform="translate(357.829347 45.227442) scale(0.1 -0.1)">
      <use xlink:href="#DejaVuSans-31"/>
      <use xlink:href="#DejaVuSans-30" x="63.623047"/>
     </g>
    </g>
   </g>
   <g id="text_12">
    <g clip-path="url(#p339e8b4031)">
     <!-- 11 -->
     <g transform="translate(43.19854 32.749458) scale(0.1 -0.1)">
      <use xlink:href="#DejaVuSans-31"/>
      <use xlink:href="#DejaVuSans-31" x="63.623047"/>
     </g>
    </g>
   </g>
   <g id="text_13">
    <g clip-path="url(#p339e8b4031)">
     <!-- 12 -->
     <g transform="translate(92.780124 54.564327) scale(0.1 -0.1)">
      <use xlink:href="#DejaVuSans-31"/>
      <use xlink:href="#DejaVuSans-32" x="63.623047"/>
     </g>
    </g>
   </g>
   <g id="text_14">
    <g clip-path="url(#p339e8b4031)">
     <!-- 13 -->
     <g transform="translate(385.992605 56.865093) scale(0.1 -0.1)">
      <use xlink:href="#DejaVuSans-31"/>
      <use xlink:href="#DejaVuSans-33" x="63.623047"/>
     </g>
    </g>
   </g>
   <g id="text_15">
    <g clip-path="url(#p339e8b4031)">
     <!-- 14 -->
     <g transform="translate(400.115491 113.626084) scale(0.1 -0.1)">
      <use xlink:href="#DejaVuSans-31"/>
      <use xlink:href="#DejaVuSans-34" x="63.623047"/>
     </g>
    </g>
   </g>
   <g id="text_16">
    <g clip-path="url(#p339e8b4031)">
     <!-- 15 -->
     <g transform="translate(326.59937 49.361679) scale(0.1 -0.1)">
      <use xlink:href="#DejaVuSans-31"/>
      <use xlink:href="#DejaVuSans-35" x="63.623047"/>
     </g>
    </g>
   </g>
   <g id="text_17">
    <g clip-path="url(#p339e8b4031)">
     <!-- 16 -->
     <g transform="translate(291.894787 85.44748) scale(0.1 -0.1)">
      <use xlink:href="#DejaVuSans-31"/>
      <use xlink:href="#DejaVuSans-36" x="63.623047"/>
     </g>
    </g>
   </g>
   <g id="text_18">
    <g clip-path="url(#p339e8b4031)">
     <!-- 17 -->
     <g transform="translate(286.156587 318.369292) scale(0.1 -0.1)">
      <use xlink:href="#DejaVuSans-31"/>
      <use xlink:href="#DejaVuSans-37" x="63.623047"/>
     </g>
    </g>
   </g>
   <g id="text_19">
    <g clip-path="url(#p339e8b4031)">
     <!-- 18 -->
     <g transform="translate(239.808326 255.481963) scale(0.1 -0.1)">
      <use xlink:href="#DejaVuSans-31"/>
      <use xlink:href="#DejaVuSans-38" x="63.623047"/>
     </g>
    </g>
   </g>
   <g id="text_20">
    <g clip-path="url(#p339e8b4031)">
     <!-- 19 -->
     <g transform="translate(33.624277 59.924875) scale(0.1 -0.1)">
      <use xlink:href="#DejaVuSans-31"/>
      <use xlink:href="#DejaVuSans-39" x="63.623047"/>
     </g>
    </g>
   </g>
   <g id="text_21">
    <g clip-path="url(#p339e8b4031)">
     <!-- 20 -->
     <g transform="translate(336.205312 95.100033) scale(0.1 -0.1)">
      <use xlink:href="#DejaVuSans-32"/>
      <use xlink:href="#DejaVuSans-30" x="63.623047"/>
     </g>
    </g>
   </g>
   <g id="text_22">
    <g clip-path="url(#p339e8b4031)">
     <!-- 21 -->
     <g transform="translate(369.492193 122.458293) scale(0.1 -0.1)">
      <use xlink:href="#DejaVuSans-32"/>
      <use xlink:href="#DejaVuSans-31" x="63.623047"/>
     </g>
    </g>
   </g>
   <g id="text_23">
    <g clip-path="url(#p339e8b4031)">
     <!-- 22 -->
     <g transform="translate(301.622425 280.943322) scale(0.1 -0.1)">
      <use xlink:href="#DejaVuSans-32"/>
      <use xlink:href="#DejaVuSans-32" x="63.623047"/>
     </g>
    </g>
   </g>
   <g id="text_24">
    <g clip-path="url(#p339e8b4031)">
     <!-- 23 -->
     <g transform="translate(359.210111 285.220637) scale(0.1 -0.1)">
      <use xlink:href="#DejaVuSans-32"/>
      <use xlink:href="#DejaVuSans-33" x="63.623047"/>
     </g>
    </g>
   </g>
   <g id="text_25">
    <g clip-path="url(#p339e8b4031)">
     <!-- 24 -->
     <g transform="translate(397.736919 255.565504) scale(0.1 -0.1)">
      <use xlink:href="#DejaVuSans-32"/>
      <use xlink:href="#DejaVuSans-34" x="63.623047"/>
     </g>
    </g>
   </g>
   <g id="text_26">
    <g clip-path="url(#p339e8b4031)">
     <!-- 25 -->
     <g transform="translate(406.021215 71.301531) scale(0.1 -0.1)">
      <use xlink:href="#DejaVuSans-32"/>
      <use xlink:href="#DejaVuSans-35" x="63.623047"/>
     </g>
    </g>
   </g>
   <g id="text_27">
    <g clip-path="url(#p339e8b4031)">
     <!-- 26 -->
     <g transform="translate(377.223031 156.386495) scale(0.1 -0.1)">
      <use xlink:href="#DejaVuSans-32"/>
      <use xlink:href="#DejaVuSans-36" x="63.623047"/>
     </g>
    </g>
   </g>
   <g id="text_28">
    <g clip-path="url(#p339e8b4031)">
     <!-- 27 -->
     <g transform="translate(400.56503 209.625653) scale(0.1 -0.1)">
      <use xlink:href="#DejaVuSans-32"/>
      <use xlink:href="#DejaVuSans-37" x="63.623047"/>
     </g>
    </g>
   </g>
   <g id="text_29">
    <g clip-path="url(#p339e8b4031)">
     <!-- 28 -->
     <g transform="translate(282.281299 230.259014) scale(0.1 -0.1)">
      <use xlink:href="#DejaVuSans-32"/>
      <use xlink:href="#DejaVuSans-38" x="63.623047"/>
     </g>
    </g>
   </g>
   <g id="text_30">
    <g clip-path="url(#p339e8b4031)">
     <!-- 29 -->
     <g transform="translate(305.586165 166.235089) scale(0.1 -0.1)">
      <use xlink:href="#DejaVuSans-32"/>
      <use xlink:href="#DejaVuSans-39" x="63.623047"/>
     </g>
    </g>
   </g>
  </g>
 </g>
 <defs>
  <clipPath id="p339e8b4031">
   <rect x="0" y="0" width="460.8" height="345.6"/>
  </clipPath>
 </defs>
</svg>
