<?xml version="1.0" encoding="utf-8" standalone="no"?>
<!DOCTYPE svg PUBLIC "-//W3C//DTD SVG 1.1//EN"
  "http://www.w3.org/Graphics/SVG/1.1/DTD/svg11.dtd">
<svg xmlns:xlink="http://www.w3.org/1999/xlink" width="460.8pt" height="345.6pt" viewBox="0 0 460.8 345.6" xmlns="http://www.w3.org/2000/svg" version="1.1">
 <metadata>
  <rdf:RDF xmlns:dc="http://purl.org/dc/elements/1.1/" xmlns:cc="http://creativecommons.org/ns#" xmlns:rdf="http://www.w3.org/1999/02/22-rdf-syntax-ns#">
   <cc:Work>
    <dc:type rdf:resource="http://purl.org/dc/dcmitype/StillImage"/>
    <dc:date>2024-02-07T14:35:35.940604</dc:date>
    <dc:format>image/svg+xml</dc:format>
    <dc:creator>
     <cc:Agent>
      <dc:title>Matplotlib v3.8.0, https://matplotlib.org/</dc:title>
     </cc:Agent>
    </dc:creator>
   </cc:Work>
  </rdf:RDF>
 </metadata>
 <defs>
  <style type="text/css">*{stroke-linejoin: round; stroke-linecap: butt}</style>
 </defs>
 <g id="figure_1">
  <g id="patch_1">
   <path d="M 0 345.6 
L 460.8 345.6 
L 460.8 0 
L 0 0 
z
" style="fill: #ffffff"/>
  </g>
  <g id="axes_1">
   <g id="patch_2">
    <path d="M 136.768695 154.24406 
Q 114.091574 170.544138 92.322297 186.191668 
" clip-path="url(#p0e06da4388)" style="fill: none; stroke: #000000; stroke-linecap: round"/>
    <path d="M 96.737612 185.481039 
L 92.322297 186.191668 
L 94.402983 182.233039 
z
" clip-path="url(#p0e06da4388)" style="stroke: #000000; stroke-linecap: round"/>
   </g>
   <g id="patch_3">
    <path d="M 136.413319 152.944087 
Q 95.029336 149.290012 54.759054 145.734274 
" clip-path="url(#p0e06da4388)" style="fill: none; stroke: #000000; stroke-linecap: round"/>
    <path d="M 58.567643 148.078342 
L 54.759054 145.734274 
L 58.919461 144.093844 
z
" clip-path="url(#p0e06da4388)" style="stroke: #000000; stroke-linecap: round"/>
   </g>
   <g id="patch_4">
    <path d="M 137.387523 151.427685 
Q 123.527071 126.898 110.216631 103.341705 
" clip-path="url(#p0e06da4388)" style="fill: none; stroke: #000000; stroke-linecap: round"/>
    <path d="M 110.443162 107.8081 
L 110.216631 103.341705 
L 113.925665 105.840317 
z
" clip-path="url(#p0e06da4388)" style="stroke: #000000; stroke-linecap: round"/>
   </g>
   <g id="patch_5">
    <path d="M 140.244229 153.469382 
Q 191.476977 163.026632 241.610652 172.378856 
" clip-path="url(#p0e06da4388)" style="fill: none; stroke: #000000; stroke-linecap: round"/>
    <path d="M 238.04525 169.679243 
L 241.610652 172.378856 
L 237.311721 173.61141 
z
" clip-path="url(#p0e06da4388)" style="stroke: #000000; stroke-linecap: round"/>
   </g>
   <g id="patch_6">
    <path d="M 137.5196 154.866461 
Q 122.665109 186.572761 108.284945 217.26663 
" clip-path="url(#p0e06da4388)" style="fill: none; stroke: #000000; stroke-linecap: round"/>
    <path d="M 111.793036 214.492951 
L 108.284945 217.26663 
L 108.170856 212.79595 
z
" clip-path="url(#p0e06da4388)" style="stroke: #000000; stroke-linecap: round"/>
   </g>
   <g id="patch_7">
    <path d="M 139.652433 151.687811 
Q 166.734699 122.241407 193.060121 93.617916 
" clip-path="url(#p0e06da4388)" style="fill: none; stroke: #000000; stroke-linecap: round"/>
    <path d="M 188.88028 95.208174 
L 193.060121 93.617916 
L 191.824423 97.915944 
z
" clip-path="url(#p0e06da4388)" style="stroke: #000000; stroke-linecap: round"/>
   </g>
   <g id="patch_8">
    <path d="M 109.876007 99.134443 
Q 124.726705 79.399531 138.90515 60.557969 
" clip-path="url(#p0e06da4388)" style="fill: none; stroke: #000000; stroke-linecap: round"/>
    <path d="M 134.901947 62.551552 
L 138.90515 60.557969 
L 138.098094 64.956681 
z
" clip-path="url(#p0e06da4388)" style="stroke: #000000; stroke-linecap: round"/>
   </g>
   <g id="patch_9">
    <path d="M 109.66577 102.366812 
Q 123.526222 126.896496 136.836662 150.452792 
" clip-path="url(#p0e06da4388)" style="fill: none; stroke: #000000; stroke-linecap: round"/>
    <path d="M 136.610132 145.986397 
L 136.836662 150.452792 
L 133.127628 147.954179 
z
" clip-path="url(#p0e06da4388)" style="stroke: #000000; stroke-linecap: round"/>
   </g>
   <g id="patch_10">
    <path d="M 226.446376 228.113535 
Q 235.225554 201.447105 243.655111 175.842639 
" clip-path="url(#p0e06da4388)" style="fill: none; stroke: #000000; stroke-linecap: round"/>
    <path d="M 240.50457 179.01661 
L 243.655111 175.842639 
L 244.303963 180.267454 
z
" clip-path="url(#p0e06da4388)" style="stroke: #000000; stroke-linecap: round"/>
   </g>
   <g id="patch_11">
    <path d="M 224.165882 230.928582 
Q 195.01501 247.887869 166.830527 264.284934 
" clip-path="url(#p0e06da4388)" style="fill: none; stroke: #000000; stroke-linecap: round"/>
    <path d="M 171.293716 264.002196 
L 166.830527 264.284934 
L 169.28225 260.544739 
z
" clip-path="url(#p0e06da4388)" style="stroke: #000000; stroke-linecap: round"/>
   </g>
   <g id="patch_12">
    <path d="M 246.376735 172.144114 
Q 289.880891 152.567671 332.365485 133.450022 
" clip-path="url(#p0e06da4388)" style="fill: none; stroke: #000000; stroke-linecap: round"/>
    <path d="M 327.897071 133.267601 
L 332.365485 133.450022 
L 329.5385 136.915301 
z
" clip-path="url(#p0e06da4388)" style="stroke: #000000; stroke-linecap: round"/>
   </g>
   <g id="patch_13">
    <path d="M 244.005121 174.779497 
Q 235.225942 201.445927 226.796386 227.050394 
" clip-path="url(#p0e06da4388)" style="fill: none; stroke: #000000; stroke-linecap: round"/>
    <path d="M 229.946926 223.876423 
L 226.796386 227.050394 
L 226.147533 222.625578 
z
" clip-path="url(#p0e06da4388)" style="stroke: #000000; stroke-linecap: round"/>
   </g>
   <g id="patch_14">
    <path d="M 242.707474 172.583463 
Q 191.474725 163.026212 141.34105 153.673989 
" clip-path="url(#p0e06da4388)" style="fill: none; stroke: #000000; stroke-linecap: round"/>
    <path d="M 144.906452 156.373601 
L 141.34105 153.673989 
L 145.639981 152.441435 
z
" clip-path="url(#p0e06da4388)" style="stroke: #000000; stroke-linecap: round"/>
   </g>
   <g id="patch_15">
    <path d="M 162.679504 264.610319 
Q 135.590468 242.927092 109.374281 221.94253 
" clip-path="url(#p0e06da4388)" style="fill: none; stroke: #000000; stroke-linecap: round"/>
    <path d="M 111.247269 226.003554 
L 109.374281 221.94253 
L 113.746893 222.880754 
z
" clip-path="url(#p0e06da4388)" style="stroke: #000000; stroke-linecap: round"/>
   </g>
   <g id="patch_16">
    <path d="M 164.167939 267.756182 
Q 163.891326 290.714818 163.628182 312.5555 
" clip-path="url(#p0e06da4388)" style="fill: none; stroke: #000000; stroke-linecap: round"/>
    <path d="M 165.676227 308.579886 
L 163.628182 312.5555 
L 161.676517 308.531696 
z
" clip-path="url(#p0e06da4388)" style="stroke: #000000; stroke-linecap: round"/>
   </g>
   <g id="patch_17">
    <path d="M 165.86569 264.846253 
Q 195.016562 247.886966 223.201045 231.489901 
" clip-path="url(#p0e06da4388)" style="fill: none; stroke: #000000; stroke-linecap: round"/>
    <path d="M 218.737856 231.772639 
L 223.201045 231.489901 
L 220.749322 235.230096 
z
" clip-path="url(#p0e06da4388)" style="stroke: #000000; stroke-linecap: round"/>
   </g>
   <g id="patch_18">
    <path d="M 108.500595 221.243195 
Q 135.589632 242.926423 161.805819 263.910984 
" clip-path="url(#p0e06da4388)" style="fill: none; stroke: #000000; stroke-linecap: round"/>
    <path d="M 159.93283 259.84996 
L 161.805819 263.910984 
L 157.433207 262.972761 
z
" clip-path="url(#p0e06da4388)" style="stroke: #000000; stroke-linecap: round"/>
   </g>
   <g id="patch_19">
    <path d="M 105.250808 220.888919 
Q 73.489165 236.528249 42.730555 251.673689 
" clip-path="url(#p0e06da4388)" style="fill: none; stroke: #000000; stroke-linecap: round"/>
    <path d="M 47.202607 251.700973 
L 42.730555 251.673689 
L 45.435614 248.112417 
z
" clip-path="url(#p0e06da4388)" style="stroke: #000000; stroke-linecap: round"/>
   </g>
   <g id="patch_20">
    <path d="M 106.074145 218.322959 
Q 98.414809 204.002634 91.282776 190.668185 
" clip-path="url(#p0e06da4388)" style="fill: none; stroke: #000000; stroke-linecap: round"/>
    <path d="M 91.405726 195.13863 
L 91.282776 190.668185 
L 94.932902 193.252093 
z
" clip-path="url(#p0e06da4388)" style="stroke: #000000; stroke-linecap: round"/>
   </g>
   <g id="patch_21">
    <path d="M 107.809752 218.28091 
Q 122.664243 186.57461 137.044407 155.880741 
" clip-path="url(#p0e06da4388)" style="fill: none; stroke: #000000; stroke-linecap: round"/>
    <path d="M 133.536316 158.65442 
L 137.044407 155.880741 
L 137.158496 160.351421 
z
" clip-path="url(#p0e06da4388)" style="stroke: #000000; stroke-linecap: round"/>
   </g>
   <g id="patch_22">
    <path d="M 196.523808 90.031796 
Q 209.814203 77.295727 222.297374 65.333213 
" clip-path="url(#p0e06da4388)" style="fill: none; stroke: #000000; stroke-linecap: round"/>
    <path d="M 218.025581 66.656765 
L 222.297374 65.333213 
L 220.79314 69.544778 
z
" clip-path="url(#p0e06da4388)" style="stroke: #000000; stroke-linecap: round"/>
   </g>
   <g id="patch_23">
    <path d="M 196.538169 90.040316 
Q 222.677524 65.404536 248.003255 41.535578 
" clip-path="url(#p0e06da4388)" style="fill: none; stroke: #000000; stroke-linecap: round"/>
    <path d="M 243.720613 42.823592 
L 248.003255 41.535578 
L 246.464081 45.734499 
z
" clip-path="url(#p0e06da4388)" style="stroke: #000000; stroke-linecap: round"/>
   </g>
   <g id="patch_24">
    <path d="M 193.817133 92.794821 
Q 166.734866 122.241226 140.409444 150.864717 
" clip-path="url(#p0e06da4388)" style="fill: none; stroke: #000000; stroke-linecap: round"/>
    <path d="M 144.589286 149.274458 
L 140.409444 150.864717 
L 141.645142 146.566688 
z
" clip-path="url(#p0e06da4388)" style="stroke: #000000; stroke-linecap: round"/>
   </g>
   <g id="patch_25">
    <path d="M 41.724806 252.168916 
Q 73.486449 236.529586 104.245059 221.384146 
" clip-path="url(#p0e06da4388)" style="fill: none; stroke: #000000; stroke-linecap: round"/>
    <path d="M 99.773006 221.356862 
L 104.245059 221.384146 
L 101.54 224.945418 
z
" clip-path="url(#p0e06da4388)" style="stroke: #000000; stroke-linecap: round"/>
   </g>
   <g id="patch_26">
    <path d="M 91.41384 186.844657 
Q 114.090961 170.544579 135.860238 154.897049 
" clip-path="url(#p0e06da4388)" style="fill: none; stroke: #000000; stroke-linecap: round"/>
    <path d="M 131.444923 155.607678 
L 135.860238 154.897049 
L 133.779552 158.855678 
z
" clip-path="url(#p0e06da4388)" style="stroke: #000000; stroke-linecap: round"/>
   </g>
   <g id="patch_27">
    <path d="M 90.756712 189.684625 
Q 98.416048 204.00495 105.54808 217.339399 
" clip-path="url(#p0e06da4388)" style="fill: none; stroke: #000000; stroke-linecap: round"/>
    <path d="M 105.425131 212.868954 
L 105.54808 217.339399 
L 101.897954 214.755491 
z
" clip-path="url(#p0e06da4388)" style="stroke: #000000; stroke-linecap: round"/>
   </g>
   <g id="patch_28">
    <path d="M 163.614704 313.674131 
Q 163.891318 290.715495 164.154462 268.874812 
" clip-path="url(#p0e06da4388)" style="fill: none; stroke: #000000; stroke-linecap: round"/>
    <path d="M 162.106417 272.850427 
L 164.154462 268.874812 
L 166.106127 272.898617 
z
" clip-path="url(#p0e06da4388)" style="stroke: #000000; stroke-linecap: round"/>
   </g>
   <g id="patch_29">
    <path d="M 53.641701 145.635616 
Q 95.025684 149.28969 135.295966 152.845428 
" clip-path="url(#p0e06da4388)" style="fill: none; stroke: #000000; stroke-linecap: round"/>
    <path d="M 131.487378 150.501361 
L 135.295966 152.845428 
L 131.135559 154.485858 
z
" clip-path="url(#p0e06da4388)" style="stroke: #000000; stroke-linecap: round"/>
   </g>
   <g id="patch_30">
    <path d="M 223.106673 64.55767 
Q 209.816277 77.293739 197.333107 89.256252 
" clip-path="url(#p0e06da4388)" style="fill: none; stroke: #000000; stroke-linecap: round"/>
    <path d="M 201.604899 87.932701 
L 197.333107 89.256252 
L 198.837341 85.044687 
z
" clip-path="url(#p0e06da4388)" style="stroke: #000000; stroke-linecap: round"/>
   </g>
   <g id="patch_31">
    <path d="M 222.566473 63.103123 
Q 182.622641 60.667984 143.79477 58.30088 
" clip-path="url(#p0e06da4388)" style="fill: none; stroke: #000000; stroke-linecap: round"/>
    <path d="M 147.665655 60.540578 
L 143.79477 58.30088 
L 147.90906 56.54799 
z
" clip-path="url(#p0e06da4388)" style="stroke: #000000; stroke-linecap: round"/>
   </g>
   <g id="patch_32">
    <path d="M 226.423757 63.465813 
Q 269.560901 68.957507 311.588963 74.308006 
" clip-path="url(#p0e06da4388)" style="fill: none; stroke: #000000; stroke-linecap: round"/>
    <path d="M 307.873566 71.818865 
L 311.588963 74.308006 
L 307.368412 75.786839 
z
" clip-path="url(#p0e06da4388)" style="stroke: #000000; stroke-linecap: round"/>
   </g>
   <g id="patch_33">
    <path d="M 139.580376 59.660669 
Q 124.729678 79.395581 110.551233 98.237143 
" clip-path="url(#p0e06da4388)" style="fill: none; stroke: #000000; stroke-linecap: round"/>
    <path d="M 114.554436 96.243561 
L 110.551233 98.237143 
L 111.358289 93.838432 
z
" clip-path="url(#p0e06da4388)" style="stroke: #000000; stroke-linecap: round"/>
   </g>
   <g id="patch_34">
    <path d="M 142.678562 58.232831 
Q 182.622395 60.667969 221.450265 63.035074 
" clip-path="url(#p0e06da4388)" style="fill: none; stroke: #000000; stroke-linecap: round"/>
    <path d="M 217.57938 60.795376 
L 221.450265 63.035074 
L 217.335976 64.787963 
z
" clip-path="url(#p0e06da4388)" style="stroke: #000000; stroke-linecap: round"/>
   </g>
   <g id="patch_35">
    <path d="M 248.820166 40.765656 
Q 222.680812 65.401437 197.355081 89.270395 
" clip-path="url(#p0e06da4388)" style="fill: none; stroke: #000000; stroke-linecap: round"/>
    <path d="M 201.637722 87.98238 
L 197.355081 89.270395 
L 198.894254 85.071473 
z
" clip-path="url(#p0e06da4388)" style="stroke: #000000; stroke-linecap: round"/>
   </g>
   <g id="patch_36">
    <path d="M 252.147333 39.175225 
Q 284.760525 34.714119 316.265999 30.404535 
" clip-path="url(#p0e06da4388)" style="fill: none; stroke: #000000; stroke-linecap: round"/>
    <path d="M 312.031851 28.965093 
L 316.265999 30.404535 
L 312.573957 32.928188 
z
" clip-path="url(#p0e06da4388)" style="stroke: #000000; stroke-linecap: round"/>
   </g>
   <g id="patch_37">
    <path d="M 317.37783 30.252449 
Q 284.764637 34.713556 253.259163 39.02314 
" clip-path="url(#p0e06da4388)" style="fill: none; stroke: #000000; stroke-linecap: round"/>
    <path d="M 257.493311 40.462582 
L 253.259163 39.02314 
L 256.951206 36.499487 
z
" clip-path="url(#p0e06da4388)" style="stroke: #000000; stroke-linecap: round"/>
   </g>
   <g id="patch_38">
    <path d="M 319.094549 31.913661 
Q 316.956503 52.341402 314.934839 71.657183 
" clip-path="url(#p0e06da4388)" style="fill: none; stroke: #000000; stroke-linecap: round"/>
    <path d="M 317.340355 67.887104 
L 314.934839 71.657183 
L 313.362085 67.470723 
z
" clip-path="url(#p0e06da4388)" style="stroke: #000000; stroke-linecap: round"/>
   </g>
   <g id="patch_39">
    <path d="M 418.881274 137.306182 
Q 377.982162 134.810906 338.199009 132.383716 
" clip-path="url(#p0e06da4388)" style="fill: none; stroke: #000000; stroke-linecap: round"/>
    <path d="M 342.06979 134.623593 
L 338.199009 132.383716 
L 342.313379 130.631017 
z
" clip-path="url(#p0e06da4388)" style="stroke: #000000; stroke-linecap: round"/>
   </g>
   <g id="patch_40">
    <path d="M 333.383128 132.992093 
Q 289.878971 152.568535 247.394377 171.686184 
" clip-path="url(#p0e06da4388)" style="fill: none; stroke: #000000; stroke-linecap: round"/>
    <path d="M 251.862791 171.868605 
L 247.394377 171.686184 
L 250.221362 168.220906 
z
" clip-path="url(#p0e06da4388)" style="stroke: #000000; stroke-linecap: round"/>
   </g>
   <g id="patch_41">
    <path d="M 337.080624 132.315483 
Q 377.979736 134.810758 417.76289 137.237949 
" clip-path="url(#p0e06da4388)" style="fill: none; stroke: #000000; stroke-linecap: round"/>
    <path d="M 413.892108 134.998071 
L 417.76289 137.237949 
L 413.648519 138.990648 
z
" clip-path="url(#p0e06da4388)" style="stroke: #000000; stroke-linecap: round"/>
   </g>
   <g id="patch_42">
    <path d="M 334.49829 130.376042 
Q 324.88348 103.447295 315.644617 77.571481 
" clip-path="url(#p0e06da4388)" style="fill: none; stroke: #000000; stroke-linecap: round"/>
    <path d="M 315.106098 82.011075 
L 315.644617 77.571481 
L 318.873181 80.666052 
z
" clip-path="url(#p0e06da4388)" style="stroke: #000000; stroke-linecap: round"/>
   </g>
   <g id="patch_43">
    <path d="M 312.694719 74.448778 
Q 269.557575 68.957083 227.529514 63.606584 
" clip-path="url(#p0e06da4388)" style="fill: none; stroke: #000000; stroke-linecap: round"/>
    <path d="M 231.244911 66.095725 
L 227.529514 63.606584 
L 231.750065 62.127751 
z
" clip-path="url(#p0e06da4388)" style="stroke: #000000; stroke-linecap: round"/>
   </g>
   <g id="patch_44">
    <path d="M 315.267431 76.515077 
Q 324.882241 103.443823 334.121105 129.319638 
" clip-path="url(#p0e06da4388)" style="fill: none; stroke: #000000; stroke-linecap: round"/>
    <path d="M 334.659623 124.880044 
L 334.121105 129.319638 
L 330.89254 126.225067 
z
" clip-path="url(#p0e06da4388)" style="stroke: #000000; stroke-linecap: round"/>
   </g>
   <g id="patch_45">
    <path d="M 314.818375 72.769926 
Q 316.956421 52.342185 318.978085 33.026405 
" clip-path="url(#p0e06da4388)" style="fill: none; stroke: #000000; stroke-linecap: round"/>
    <path d="M 316.572569 36.796483 
L 318.978085 33.026405 
L 320.550838 37.212864 
z
" clip-path="url(#p0e06da4388)" style="stroke: #000000; stroke-linecap: round"/>
   </g>
   <g id="PathCollection_1">
    <defs>
     <path id="C0_0_1ee7b8fe49" d="M 0 1.936492 
C 0.513564 1.936492 1.006162 1.732451 1.369306 1.369306 
C 1.732451 1.006162 1.936492 0.513564 1.936492 -0 
C 1.936492 -0.513564 1.732451 -1.006162 1.369306 -1.369306 
C 1.006162 -1.732451 0.513564 -1.936492 0 -1.936492 
C -0.513564 -1.936492 -1.006162 -1.732451 -1.369306 -1.369306 
C -1.732451 -1.006162 -1.936492 -0.513564 -1.936492 0 
C -1.936492 0.513564 -1.732451 1.006162 -1.369306 1.369306 
C -1.006162 1.732451 -0.513564 1.936492 0 1.936492 
z
"/>
    </defs>
    <g clip-path="url(#p0e06da4388)">
     <use xlink:href="#C0_0_1ee7b8fe49" x="138.340515" y="153.114252" style="fill: #ff0000; stroke: #ff0000"/>
    </g>
    <g clip-path="url(#p0e06da4388)">
     <use xlink:href="#C0_0_1ee7b8fe49" x="108.712778" y="100.680244" style="fill: #ff0000; stroke: #ff0000"/>
    </g>
    <g clip-path="url(#p0e06da4388)">
     <use xlink:href="#C0_0_1ee7b8fe49" x="225.840309" y="229.95444" style="fill: #ff0000; stroke: #ff0000"/>
    </g>
    <g clip-path="url(#p0e06da4388)">
     <use xlink:href="#C0_0_1ee7b8fe49" x="244.611187" y="172.938593" style="fill: #ff0000; stroke: #ff0000"/>
    </g>
    <g clip-path="url(#p0e06da4388)">
     <use xlink:href="#C0_0_1ee7b8fe49" x="164.191263" y="265.820395" style="fill: #ff0000; stroke: #ff0000"/>
    </g>
    <g clip-path="url(#p0e06da4388)">
     <use xlink:href="#C0_0_1ee7b8fe49" x="106.988837" y="220.033119" style="stroke: #000000"/>
    </g>
    <g clip-path="url(#p0e06da4388)">
     <use xlink:href="#C0_0_1ee7b8fe49" x="195.12905" y="91.36838" style="fill: #ff0000; stroke: #ff0000"/>
    </g>
    <g clip-path="url(#p0e06da4388)">
     <use xlink:href="#C0_0_1ee7b8fe49" x="39.986777" y="253.024716" style="fill: #ff0000; stroke: #ff0000"/>
    </g>
    <g clip-path="url(#p0e06da4388)">
     <use xlink:href="#C0_0_1ee7b8fe49" x="89.84202" y="187.974465" style="fill: #ff0000; stroke: #ff0000"/>
    </g>
    <g clip-path="url(#p0e06da4388)">
     <use xlink:href="#C0_0_1ee7b8fe49" x="163.591381" y="315.609917" style="fill: #ff0000; stroke: #ff0000"/>
    </g>
    <g clip-path="url(#p0e06da4388)">
     <use xlink:href="#C0_0_1ee7b8fe49" x="51.714505" y="145.46545" style="fill: #ff0000; stroke: #ff0000"/>
    </g>
    <g clip-path="url(#p0e06da4388)">
     <use xlink:href="#C0_0_1ee7b8fe49" x="224.50143" y="63.221085" style="fill: #ff0000; stroke: #ff0000"/>
    </g>
    <g clip-path="url(#p0e06da4388)">
     <use xlink:href="#C0_0_1ee7b8fe49" x="140.743605" y="58.114868" style="fill: #ff0000; stroke: #ff0000"/>
    </g>
    <g clip-path="url(#p0e06da4388)">
     <use xlink:href="#C0_0_1ee7b8fe49" x="250.229285" y="39.437592" style="fill: #ff0000; stroke: #ff0000"/>
    </g>
    <g clip-path="url(#p0e06da4388)">
     <use xlink:href="#C0_0_1ee7b8fe49" x="319.295878" y="29.990083" style="fill: #ff0000; stroke: #ff0000"/>
    </g>
    <g clip-path="url(#p0e06da4388)">
     <use xlink:href="#C0_0_1ee7b8fe49" x="420.813223" y="137.424051" style="fill: #ff0000; stroke: #ff0000"/>
    </g>
    <g clip-path="url(#p0e06da4388)">
     <use xlink:href="#C0_0_1ee7b8fe49" x="335.148675" y="132.197614" style="fill: #ff0000; stroke: #ff0000"/>
    </g>
    <g clip-path="url(#p0e06da4388)">
     <use xlink:href="#C0_0_1ee7b8fe49" x="314.617046" y="74.693505" style="fill: #ff0000; stroke: #ff0000"/>
    </g>
   </g>
   <g id="text_1">
    <g clip-path="url(#p0e06da4388)">
     <!-- 0 -->
     <g transform="translate(135.159265 155.873627) scale(0.1 -0.1)">
      <defs>
       <path id="DejaVuSans-30" d="M 2034 4250 
Q 1547 4250 1301 3770 
Q 1056 3291 1056 2328 
Q 1056 1369 1301 889 
Q 1547 409 2034 409 
Q 2525 409 2770 889 
Q 3016 1369 3016 2328 
Q 3016 3291 2770 3770 
Q 2525 4250 2034 4250 
z
M 2034 4750 
Q 2819 4750 3233 4129 
Q 3647 3509 3647 2328 
Q 3647 1150 3233 529 
Q 2819 -91 2034 -91 
Q 1250 -91 836 529 
Q 422 1150 422 2328 
Q 422 3509 836 4129 
Q 1250 4750 2034 4750 
z
" transform="scale(0.015625)"/>
      </defs>
      <use xlink:href="#DejaVuSans-30"/>
     </g>
    </g>
   </g>
   <g id="text_2">
    <g clip-path="url(#p0e06da4388)">
     <!-- 2 -->
     <g transform="translate(105.531528 103.439619) scale(0.1 -0.1)">
      <defs>
       <path id="DejaVuSans-32" d="M 1228 531 
L 3431 531 
L 3431 0 
L 469 0 
L 469 531 
Q 828 903 1448 1529 
Q 2069 2156 2228 2338 
Q 2531 2678 2651 2914 
Q 2772 3150 2772 3378 
Q 2772 3750 2511 3984 
Q 2250 4219 1831 4219 
Q 1534 4219 1204 4116 
Q 875 4013 500 3803 
L 500 4441 
Q 881 4594 1212 4672 
Q 1544 4750 1819 4750 
Q 2544 4750 2975 4387 
Q 3406 4025 3406 3419 
Q 3406 3131 3298 2873 
Q 3191 2616 2906 2266 
Q 2828 2175 2409 1742 
Q 1991 1309 1228 531 
z
" transform="scale(0.015625)"/>
      </defs>
      <use xlink:href="#DejaVuSans-32"/>
     </g>
    </g>
   </g>
   <g id="text_3">
    <g clip-path="url(#p0e06da4388)">
     <!-- 4 -->
     <g transform="translate(222.659059 232.713815) scale(0.1 -0.1)">
      <defs>
       <path id="DejaVuSans-34" d="M 2419 4116 
L 825 1625 
L 2419 1625 
L 2419 4116 
z
M 2253 4666 
L 3047 4666 
L 3047 1625 
L 3713 1625 
L 3713 1100 
L 3047 1100 
L 3047 0 
L 2419 0 
L 2419 1100 
L 313 1100 
L 313 1709 
L 2253 4666 
z
" transform="scale(0.015625)"/>
      </defs>
      <use xlink:href="#DejaVuSans-34"/>
     </g>
    </g>
   </g>
   <g id="text_4">
    <g clip-path="url(#p0e06da4388)">
     <!-- 8 -->
     <g transform="translate(241.429937 175.697968) scale(0.1 -0.1)">
      <defs>
       <path id="DejaVuSans-38" d="M 2034 2216 
Q 1584 2216 1326 1975 
Q 1069 1734 1069 1313 
Q 1069 891 1326 650 
Q 1584 409 2034 409 
Q 2484 409 2743 651 
Q 3003 894 3003 1313 
Q 3003 1734 2745 1975 
Q 2488 2216 2034 2216 
z
M 1403 2484 
Q 997 2584 770 2862 
Q 544 3141 544 3541 
Q 544 4100 942 4425 
Q 1341 4750 2034 4750 
Q 2731 4750 3128 4425 
Q 3525 4100 3525 3541 
Q 3525 3141 3298 2862 
Q 3072 2584 2669 2484 
Q 3125 2378 3379 2068 
Q 3634 1759 3634 1313 
Q 3634 634 3220 271 
Q 2806 -91 2034 -91 
Q 1263 -91 848 271 
Q 434 634 434 1313 
Q 434 1759 690 2068 
Q 947 2378 1403 2484 
z
M 1172 3481 
Q 1172 3119 1398 2916 
Q 1625 2713 2034 2713 
Q 2441 2713 2670 2916 
Q 2900 3119 2900 3481 
Q 2900 3844 2670 4047 
Q 2441 4250 2034 4250 
Q 1625 4250 1398 4047 
Q 1172 3844 1172 3481 
z
" transform="scale(0.015625)"/>
      </defs>
      <use xlink:href="#DejaVuSans-38"/>
     </g>
    </g>
   </g>
   <g id="text_5">
    <g clip-path="url(#p0e06da4388)">
     <!-- 10 -->
     <g transform="translate(157.828763 268.57977) scale(0.1 -0.1)">
      <defs>
       <path id="DejaVuSans-31" d="M 794 531 
L 1825 531 
L 1825 4091 
L 703 3866 
L 703 4441 
L 1819 4666 
L 2450 4666 
L 2450 531 
L 3481 531 
L 3481 0 
L 794 0 
L 794 531 
z
" transform="scale(0.015625)"/>
      </defs>
      <use xlink:href="#DejaVuSans-31"/>
      <use xlink:href="#DejaVuSans-30" x="63.623047"/>
     </g>
    </g>
   </g>
   <g id="text_6">
    <g clip-path="url(#p0e06da4388)">
     <!-- 11 -->
     <g transform="translate(100.626337 222.792494) scale(0.1 -0.1)">
      <use xlink:href="#DejaVuSans-31"/>
      <use xlink:href="#DejaVuSans-31" x="63.623047"/>
     </g>
    </g>
   </g>
   <g id="text_7">
    <g clip-path="url(#p0e06da4388)">
     <!-- 13 -->
     <g transform="translate(188.76655 94.127755) scale(0.1 -0.1)">
      <defs>
       <path id="DejaVuSans-33" d="M 2597 2516 
Q 3050 2419 3304 2112 
Q 3559 1806 3559 1356 
Q 3559 666 3084 287 
Q 2609 -91 1734 -91 
Q 1441 -91 1130 -33 
Q 819 25 488 141 
L 488 750 
Q 750 597 1062 519 
Q 1375 441 1716 441 
Q 2309 441 2620 675 
Q 2931 909 2931 1356 
Q 2931 1769 2642 2001 
Q 2353 2234 1838 2234 
L 1294 2234 
L 1294 2753 
L 1863 2753 
Q 2328 2753 2575 2939 
Q 2822 3125 2822 3475 
Q 2822 3834 2567 4026 
Q 2313 4219 1838 4219 
Q 1578 4219 1281 4162 
Q 984 4106 628 3988 
L 628 4550 
Q 988 4650 1302 4700 
Q 1616 4750 1894 4750 
Q 2613 4750 3031 4423 
Q 3450 4097 3450 3541 
Q 3450 3153 3228 2886 
Q 3006 2619 2597 2516 
z
" transform="scale(0.015625)"/>
      </defs>
      <use xlink:href="#DejaVuSans-31"/>
      <use xlink:href="#DejaVuSans-33" x="63.623047"/>
     </g>
    </g>
   </g>
   <g id="text_8">
    <g clip-path="url(#p0e06da4388)">
     <!-- 15 -->
     <g transform="translate(33.624277 255.784091) scale(0.1 -0.1)">
      <defs>
       <path id="DejaVuSans-35" d="M 691 4666 
L 3169 4666 
L 3169 4134 
L 1269 4134 
L 1269 2991 
Q 1406 3038 1543 3061 
Q 1681 3084 1819 3084 
Q 2600 3084 3056 2656 
Q 3513 2228 3513 1497 
Q 3513 744 3044 326 
Q 2575 -91 1722 -91 
Q 1428 -91 1123 -41 
Q 819 9 494 109 
L 494 744 
Q 775 591 1075 516 
Q 1375 441 1709 441 
Q 2250 441 2565 725 
Q 2881 1009 2881 1497 
Q 2881 1984 2565 2268 
Q 2250 2553 1709 2553 
Q 1456 2553 1204 2497 
Q 953 2441 691 2322 
L 691 4666 
z
" transform="scale(0.015625)"/>
      </defs>
      <use xlink:href="#DejaVuSans-31"/>
      <use xlink:href="#DejaVuSans-35" x="63.623047"/>
     </g>
    </g>
   </g>
   <g id="text_9">
    <g clip-path="url(#p0e06da4388)">
     <!-- 18 -->
     <g transform="translate(83.47952 190.73384) scale(0.1 -0.1)">
      <use xlink:href="#DejaVuSans-31"/>
      <use xlink:href="#DejaVuSans-38" x="63.623047"/>
     </g>
    </g>
   </g>
   <g id="text_10">
    <g clip-path="url(#p0e06da4388)">
     <!-- 20 -->
     <g transform="translate(157.228881 318.369292) scale(0.1 -0.1)">
      <use xlink:href="#DejaVuSans-32"/>
      <use xlink:href="#DejaVuSans-30" x="63.623047"/>
     </g>
    </g>
   </g>
   <g id="text_11">
    <g clip-path="url(#p0e06da4388)">
     <!-- 22 -->
     <g transform="translate(45.352005 148.224825) scale(0.1 -0.1)">
      <use xlink:href="#DejaVuSans-32"/>
      <use xlink:href="#DejaVuSans-32" x="63.623047"/>
     </g>
    </g>
   </g>
   <g id="text_12">
    <g clip-path="url(#p0e06da4388)">
     <!-- 23 -->
     <g transform="translate(218.13893 65.98046) scale(0.1 -0.1)">
      <use xlink:href="#DejaVuSans-32"/>
      <use xlink:href="#DejaVuSans-33" x="63.623047"/>
     </g>
    </g>
   </g>
   <g id="text_13">
    <g clip-path="url(#p0e06da4388)">
     <!-- 24 -->
     <g transform="translate(134.381105 60.874243) scale(0.1 -0.1)">
      <use xlink:href="#DejaVuSans-32"/>
      <use xlink:href="#DejaVuSans-34" x="63.623047"/>
     </g>
    </g>
   </g>
   <g id="text_14">
    <g clip-path="url(#p0e06da4388)">
     <!-- 26 -->
     <g transform="translate(243.866785 42.196967) scale(0.1 -0.1)">
      <defs>
       <path id="DejaVuSans-36" d="M 2113 2584 
Q 1688 2584 1439 2293 
Q 1191 2003 1191 1497 
Q 1191 994 1439 701 
Q 1688 409 2113 409 
Q 2538 409 2786 701 
Q 3034 994 3034 1497 
Q 3034 2003 2786 2293 
Q 2538 2584 2113 2584 
z
M 3366 4563 
L 3366 3988 
Q 3128 4100 2886 4159 
Q 2644 4219 2406 4219 
Q 1781 4219 1451 3797 
Q 1122 3375 1075 2522 
Q 1259 2794 1537 2939 
Q 1816 3084 2150 3084 
Q 2853 3084 3261 2657 
Q 3669 2231 3669 1497 
Q 3669 778 3244 343 
Q 2819 -91 2113 -91 
Q 1303 -91 875 529 
Q 447 1150 447 2328 
Q 447 3434 972 4092 
Q 1497 4750 2381 4750 
Q 2619 4750 2861 4703 
Q 3103 4656 3366 4563 
z
" transform="scale(0.015625)"/>
      </defs>
      <use xlink:href="#DejaVuSans-32"/>
      <use xlink:href="#DejaVuSans-36" x="63.623047"/>
     </g>
    </g>
   </g>
   <g id="text_15">
    <g clip-path="url(#p0e06da4388)">
     <!-- 28 -->
     <g transform="translate(312.933378 32.749458) scale(0.1 -0.1)">
      <use xlink:href="#DejaVuSans-32"/>
      <use xlink:href="#DejaVuSans-38" x="63.623047"/>
     </g>
    </g>
   </g>
   <g id="text_16">
    <g clip-path="url(#p0e06da4388)">
     <!-- 30 -->
     <g transform="translate(414.450723 140.183426) scale(0.1 -0.1)">
      <use xlink:href="#DejaVuSans-33"/>
      <use xlink:href="#DejaVuSans-30" x="63.623047"/>
     </g>
    </g>
   </g>
   <g id="text_17">
    <g clip-path="url(#p0e06da4388)">
     <!-- 31 -->
     <g transform="translate(328.786175 134.956989) scale(0.1 -0.1)">
      <use xlink:href="#DejaVuSans-33"/>
      <use xlink:href="#DejaVuSans-31" x="63.623047"/>
     </g>
    </g>
   </g>
   <g id="text_18">
    <g clip-path="url(#p0e06da4388)">
     <!-- 32 -->
     <g transform="translate(308.254546 77.45288) scale(0.1 -0.1)">
      <use xlink:href="#DejaVuSans-33"/>
      <use xlink:href="#DejaVuSans-32" x="63.623047"/>
     </g>
    </g>
   </g>
  </g>
 </g>
 <defs>
  <clipPath id="p0e06da4388">
   <rect x="0" y="0" width="460.8" height="345.6"/>
  </clipPath>
 </defs>
</svg>
