<?xml version="1.0" encoding="utf-8" standalone="no"?>
<!DOCTYPE svg PUBLIC "-//W3C//DTD SVG 1.1//EN"
  "http://www.w3.org/Graphics/SVG/1.1/DTD/svg11.dtd">
<svg xmlns:xlink="http://www.w3.org/1999/xlink" width="460.8pt" height="345.6pt" viewBox="0 0 460.8 345.6" xmlns="http://www.w3.org/2000/svg" version="1.1">
 <metadata>
  <rdf:RDF xmlns:dc="http://purl.org/dc/elements/1.1/" xmlns:cc="http://creativecommons.org/ns#" xmlns:rdf="http://www.w3.org/1999/02/22-rdf-syntax-ns#">
   <cc:Work>
    <dc:type rdf:resource="http://purl.org/dc/dcmitype/StillImage"/>
    <dc:date>2024-02-07T13:46:13.268068</dc:date>
    <dc:format>image/svg+xml</dc:format>
    <dc:creator>
     <cc:Agent>
      <dc:title>Matplotlib v3.8.0, https://matplotlib.org/</dc:title>
     </cc:Agent>
    </dc:creator>
   </cc:Work>
  </rdf:RDF>
 </metadata>
 <defs>
  <style type="text/css">*{stroke-linejoin: round; stroke-linecap: butt}</style>
 </defs>
 <g id="figure_1">
  <g id="patch_1">
   <path d="M 0 345.6 
L 460.8 345.6 
L 460.8 0 
L 0 0 
z
" style="fill: #ffffff"/>
  </g>
  <g id="axes_1">
   <g id="patch_2">
    <path d="M 394.63761 282.969104 
Q 339.903376 275.950711 286.278095 269.074516 
" clip-path="url(#pbd1a21f1f7)" style="fill: none; stroke: #000000; stroke-linecap: round"/>
    <path d="M 289.99124 271.567015 
L 286.278095 269.074516 
L 290.499982 267.5995 
z
" clip-path="url(#pbd1a21f1f7)" style="stroke: #000000; stroke-linecap: round"/>
   </g>
   <g id="patch_3">
    <path d="M 220.032804 309.338785 
Q 250.824616 289.537198 280.676056 270.340344 
" clip-path="url(#pbd1a21f1f7)" style="fill: none; stroke: #000000; stroke-linecap: round"/>
    <path d="M 276.229903 270.821718 
L 280.676056 270.340344 
L 278.393463 274.186091 
z
" clip-path="url(#pbd1a21f1f7)" style="stroke: #000000; stroke-linecap: round"/>
   </g>
   <g id="patch_4">
    <path d="M 285.167653 268.932127 
Q 339.901887 275.95052 393.527167 282.826715 
" clip-path="url(#pbd1a21f1f7)" style="fill: none; stroke: #000000; stroke-linecap: round"/>
    <path d="M 389.814022 280.334216 
L 393.527167 282.826715 
L 389.305281 284.301732 
z
" clip-path="url(#pbd1a21f1f7)" style="stroke: #000000; stroke-linecap: round"/>
   </g>
   <g id="patch_5">
    <path d="M 281.621924 269.732076 
Q 250.830112 289.533663 220.978672 308.730516 
" clip-path="url(#pbd1a21f1f7)" style="fill: none; stroke: #000000; stroke-linecap: round"/>
    <path d="M 225.424825 308.249143 
L 220.978672 308.730516 
L 223.261265 304.88477 
z
" clip-path="url(#pbd1a21f1f7)" style="stroke: #000000; stroke-linecap: round"/>
   </g>
   <g id="patch_6">
    <path d="M 281.336528 269.007655 
Q 229.880916 277.66287 179.527849 286.132629 
" clip-path="url(#pbd1a21f1f7)" style="fill: none; stroke: #000000; stroke-linecap: round"/>
    <path d="M 183.804189 287.441413 
L 179.527849 286.132629 
L 183.140681 283.496827 
z
" clip-path="url(#pbd1a21f1f7)" style="stroke: #000000; stroke-linecap: round"/>
   </g>
   <g id="patch_7">
    <path d="M 284.969606 269.568144 
Q 320.696063 287.878891 355.427554 305.679692 
" clip-path="url(#pbd1a21f1f7)" style="fill: none; stroke: #000000; stroke-linecap: round"/>
    <path d="M 352.780077 302.075407 
L 355.427554 305.679692 
L 350.95564 305.635102 
z
" clip-path="url(#pbd1a21f1f7)" style="stroke: #000000; stroke-linecap: round"/>
   </g>
   <g id="patch_8">
    <path d="M 283.521978 270.602064 
Q 286.597118 292.14864 289.514292 312.588397 
" clip-path="url(#pbd1a21f1f7)" style="fill: none; stroke: #000000; stroke-linecap: round"/>
    <path d="M 290.929073 308.345946 
L 289.514292 312.588397 
L 286.9692 308.911101 
z
" clip-path="url(#pbd1a21f1f7)" style="stroke: #000000; stroke-linecap: round"/>
   </g>
   <g id="patch_9">
    <path d="M 283.039775 266.758401 
Q 278.544039 225.243172 274.168673 184.83948 
" clip-path="url(#pbd1a21f1f7)" style="fill: none; stroke: #000000; stroke-linecap: round"/>
    <path d="M 272.610945 189.031554 
L 274.168673 184.83948 
L 276.587695 188.600906 
z
" clip-path="url(#pbd1a21f1f7)" style="stroke: #000000; stroke-linecap: round"/>
   </g>
   <g id="patch_10">
    <path d="M 178.427567 286.317704 
Q 229.883178 277.662489 280.236245 269.192731 
" clip-path="url(#pbd1a21f1f7)" style="fill: none; stroke: #000000; stroke-linecap: round"/>
    <path d="M 275.959905 267.883947 
L 280.236245 269.192731 
L 276.623413 271.828532 
z
" clip-path="url(#pbd1a21f1f7)" style="stroke: #000000; stroke-linecap: round"/>
   </g>
   <g id="patch_11">
    <path d="M 232.463511 31.695476 
Q 245.829484 56.402078 258.663471 80.125322 
" clip-path="url(#pbd1a21f1f7)" style="fill: none; stroke: #000000; stroke-linecap: round"/>
    <path d="M 258.519269 75.655511 
L 258.663471 80.125322 
L 255.001101 77.558797 
z
" clip-path="url(#pbd1a21f1f7)" style="stroke: #000000; stroke-linecap: round"/>
   </g>
   <g id="patch_12">
    <path d="M 391.82633 133.482087 
Q 326.215162 130.227847 261.720656 127.028992 
" clip-path="url(#pbd1a21f1f7)" style="fill: none; stroke: #000000; stroke-linecap: round"/>
    <path d="M 265.616669 129.224688 
L 261.720656 127.028992 
L 265.81482 125.229599 
z
" clip-path="url(#pbd1a21f1f7)" style="stroke: #000000; stroke-linecap: round"/>
   </g>
   <g id="patch_13">
    <path d="M 356.423165 306.189968 
Q 320.696709 287.879222 285.965217 270.078421 
" clip-path="url(#pbd1a21f1f7)" style="fill: none; stroke: #000000; stroke-linecap: round"/>
    <path d="M 288.612694 273.682706 
L 285.965217 270.078421 
L 290.437131 270.123011 
z
" clip-path="url(#pbd1a21f1f7)" style="stroke: #000000; stroke-linecap: round"/>
   </g>
   <g id="patch_14">
    <path d="M 289.67207 313.693897 
Q 286.59693 292.147321 283.679755 271.707564 
" clip-path="url(#pbd1a21f1f7)" style="fill: none; stroke: #000000; stroke-linecap: round"/>
    <path d="M 282.264974 275.950015 
L 283.679755 271.707564 
L 286.224848 275.38486 
z
" clip-path="url(#pbd1a21f1f7)" style="stroke: #000000; stroke-linecap: round"/>
   </g>
   <g id="patch_15">
    <path d="M 50.634402 78.828948 
Q 106.316989 92.067851 160.911862 105.048143 
" clip-path="url(#pbd1a21f1f7)" style="fill: none; stroke: #000000; stroke-linecap: round"/>
    <path d="M 157.482957 102.177148 
L 160.911862 105.048143 
L 156.557723 106.068669 
z
" clip-path="url(#pbd1a21f1f7)" style="stroke: #000000; stroke-linecap: round"/>
   </g>
   <g id="patch_16">
    <path d="M 277.752298 73.923954 
Q 221.750758 89.57845 166.825974 104.931952 
" clip-path="url(#pbd1a21f1f7)" style="fill: none; stroke: #000000; stroke-linecap: round"/>
    <path d="M 171.216725 105.781247 
L 166.825974 104.931952 
L 170.13986 101.928928 
z
" clip-path="url(#pbd1a21f1f7)" style="stroke: #000000; stroke-linecap: round"/>
   </g>
   <g id="patch_17">
    <path d="M 419.071988 78.296771 
Q 378.920748 97.910787 339.774084 117.034065 
" clip-path="url(#pbd1a21f1f7)" style="fill: none; stroke: #000000; stroke-linecap: round"/>
    <path d="M 344.246029 117.075385 
L 339.774084 117.034065 
L 342.490307 113.481301 
z
" clip-path="url(#pbd1a21f1f7)" style="stroke: #000000; stroke-linecap: round"/>
   </g>
   <g id="patch_18">
    <path d="M 366.26044 201.647982 
Q 320.996331 191.927984 276.825337 182.442721 
" clip-path="url(#pbd1a21f1f7)" style="fill: none; stroke: #000000; stroke-linecap: round"/>
    <path d="M 280.316275 185.237958 
L 276.825337 182.442721 
L 281.156089 181.327112 
z
" clip-path="url(#pbd1a21f1f7)" style="stroke: #000000; stroke-linecap: round"/>
   </g>
   <g id="patch_19">
    <path d="M 171.556352 64.979943 
Q 167.898883 84.415341 164.448183 102.751991 
" clip-path="url(#pbd1a21f1f7)" style="fill: none; stroke: #000000; stroke-linecap: round"/>
    <path d="M 167.153441 99.190871 
L 164.448183 102.751991 
L 163.222442 98.451112 
z
" clip-path="url(#pbd1a21f1f7)" style="stroke: #000000; stroke-linecap: round"/>
   </g>
   <g id="patch_20">
    <path d="M 338.770642 117.52425 
Q 378.921882 97.910233 418.068546 78.786956 
" clip-path="url(#pbd1a21f1f7)" style="fill: none; stroke: #000000; stroke-linecap: round"/>
    <path d="M 413.596601 78.745636 
L 418.068546 78.786956 
L 415.352323 82.33972 
z
" clip-path="url(#pbd1a21f1f7)" style="stroke: #000000; stroke-linecap: round"/>
   </g>
   <g id="patch_21">
    <path d="M 335.271329 117.561895 
Q 298.572887 100.592141 262.889237 84.091638 
" clip-path="url(#pbd1a21f1f7)" style="fill: none; stroke: #000000; stroke-linecap: round"/>
    <path d="M 265.680447 87.585797 
L 262.889237 84.091638 
L 267.35929 83.955166 
z
" clip-path="url(#pbd1a21f1f7)" style="stroke: #000000; stroke-linecap: round"/>
   </g>
   <g id="patch_22">
    <path d="M 335.662173 119.747211 
Q 305.434853 150.087914 275.996621 179.63657 
" clip-path="url(#pbd1a21f1f7)" style="fill: none; stroke: #000000; stroke-linecap: round"/>
    <path d="M 280.236607 178.214416 
L 275.996621 179.63657 
L 277.40289 175.391289 
z
" clip-path="url(#pbd1a21f1f7)" style="stroke: #000000; stroke-linecap: round"/>
   </g>
   <g id="patch_23">
    <path d="M 259.192671 81.103532 
Q 245.826699 56.39693 232.992711 32.673686 
" clip-path="url(#pbd1a21f1f7)" style="fill: none; stroke: #000000; stroke-linecap: round"/>
    <path d="M 233.136914 37.143497 
L 232.992711 32.673686 
L 236.655081 35.240211 
z
" clip-path="url(#pbd1a21f1f7)" style="stroke: #000000; stroke-linecap: round"/>
   </g>
   <g id="patch_24">
    <path d="M 261.873346 83.621879 
Q 298.571788 100.591633 334.255438 117.092136 
" clip-path="url(#pbd1a21f1f7)" style="fill: none; stroke: #000000; stroke-linecap: round"/>
    <path d="M 331.464228 113.597977 
L 334.255438 117.092136 
L 329.785385 117.228609 
z
" clip-path="url(#pbd1a21f1f7)" style="stroke: #000000; stroke-linecap: round"/>
   </g>
   <g id="patch_25">
    <path d="M 260.052012 84.742859 
Q 259.394594 104.842115 258.773726 123.823934 
" clip-path="url(#pbd1a21f1f7)" style="fill: none; stroke: #000000; stroke-linecap: round"/>
    <path d="M 260.903421 119.891454 
L 258.773726 123.823934 
L 256.905559 119.760689 
z
" clip-path="url(#pbd1a21f1f7)" style="stroke: #000000; stroke-linecap: round"/>
   </g>
   <g id="patch_26">
    <path d="M 274.048442 183.729229 
Q 278.544178 225.244457 282.919545 265.64815 
" clip-path="url(#pbd1a21f1f7)" style="fill: none; stroke: #000000; stroke-linecap: round"/>
    <path d="M 284.477273 261.456076 
L 282.919545 265.64815 
L 280.500523 261.886723 
z
" clip-path="url(#pbd1a21f1f7)" style="stroke: #000000; stroke-linecap: round"/>
   </g>
   <g id="patch_27">
    <path d="M 275.730649 182.207649 
Q 320.994758 191.927647 365.165753 201.41291 
" clip-path="url(#pbd1a21f1f7)" style="fill: none; stroke: #000000; stroke-linecap: round"/>
    <path d="M 361.674814 198.617673 
L 365.165753 201.41291 
L 360.835001 202.528519 
z
" clip-path="url(#pbd1a21f1f7)" style="stroke: #000000; stroke-linecap: round"/>
   </g>
   <g id="patch_28">
    <path d="M 275.206929 180.429224 
Q 305.434249 150.08852 334.872481 120.539865 
" clip-path="url(#pbd1a21f1f7)" style="fill: none; stroke: #000000; stroke-linecap: round"/>
    <path d="M 330.632495 121.962018 
L 334.872481 120.539865 
L 333.466212 124.785146 
z
" clip-path="url(#pbd1a21f1f7)" style="stroke: #000000; stroke-linecap: round"/>
   </g>
   <g id="patch_29">
    <path d="M 273.324108 179.934367 
Q 266.256943 154.340373 259.48736 129.824082 
" clip-path="url(#pbd1a21f1f7)" style="fill: none; stroke: #000000; stroke-linecap: round"/>
    <path d="M 258.624167 134.212122 
L 259.48736 129.824082 
L 262.479876 133.147461 
z
" clip-path="url(#pbd1a21f1f7)" style="stroke: #000000; stroke-linecap: round"/>
   </g>
   <g id="patch_30">
    <path d="M 271.954646 181.364622 
Q 223.29259 170.084521 175.719689 159.056892 
" clip-path="url(#pbd1a21f1f7)" style="fill: none; stroke: #000000; stroke-linecap: round"/>
    <path d="M 179.164733 161.9085 
L 175.719689 159.056892 
L 180.068002 158.011821 
z
" clip-path="url(#pbd1a21f1f7)" style="stroke: #000000; stroke-linecap: round"/>
   </g>
   <g id="patch_31">
    <path d="M 271.954646 181.364622 
Q 223.29259 170.084521 175.719689 159.056892 
" clip-path="url(#pbd1a21f1f7)" style="fill: none; stroke: #000000; stroke-linecap: round"/>
    <path d="M 179.164733 161.9085 
L 175.719689 159.056892 
L 180.068002 158.011821 
z
" clip-path="url(#pbd1a21f1f7)" style="stroke: #000000; stroke-linecap: round"/>
   </g>
   <g id="patch_32">
    <path d="M 260.607286 126.97377 
Q 326.218454 130.22801 390.712961 133.426865 
" clip-path="url(#pbd1a21f1f7)" style="fill: none; stroke: #000000; stroke-linecap: round"/>
    <path d="M 386.816948 131.231169 
L 390.712961 133.426865 
L 386.618796 135.226258 
z
" clip-path="url(#pbd1a21f1f7)" style="stroke: #000000; stroke-linecap: round"/>
   </g>
   <g id="patch_33">
    <path d="M 258.737092 124.943939 
Q 259.39451 104.844684 260.015378 85.862865 
" clip-path="url(#pbd1a21f1f7)" style="fill: none; stroke: #000000; stroke-linecap: round"/>
    <path d="M 257.885683 89.795345 
L 260.015378 85.862865 
L 261.883545 89.926109 
z
" clip-path="url(#pbd1a21f1f7)" style="stroke: #000000; stroke-linecap: round"/>
   </g>
   <g id="patch_34">
    <path d="M 259.189423 128.745092 
Q 266.256588 154.339086 273.02617 178.855377 
" clip-path="url(#pbd1a21f1f7)" style="fill: none; stroke: #000000; stroke-linecap: round"/>
    <path d="M 273.889364 174.467336 
L 273.02617 178.855377 
L 270.033654 175.531998 
z
" clip-path="url(#pbd1a21f1f7)" style="stroke: #000000; stroke-linecap: round"/>
   </g>
   <g id="patch_35">
    <path d="M 256.784849 126.456929 
Q 211.27951 116.316457 166.865439 106.419164 
" clip-path="url(#pbd1a21f1f7)" style="fill: none; stroke: #000000; stroke-linecap: round"/>
    <path d="M 170.334662 109.241307 
L 166.865439 106.419164 
L 171.204687 105.337071 
z
" clip-path="url(#pbd1a21f1f7)" style="stroke: #000000; stroke-linecap: round"/>
   </g>
   <g id="patch_36">
    <path d="M 256.784849 126.456929 
Q 211.27951 116.316457 166.865439 106.419164 
" clip-path="url(#pbd1a21f1f7)" style="fill: none; stroke: #000000; stroke-linecap: round"/>
    <path d="M 170.334662 109.241307 
L 166.865439 106.419164 
L 171.204687 105.337071 
z
" clip-path="url(#pbd1a21f1f7)" style="stroke: #000000; stroke-linecap: round"/>
   </g>
   <g id="patch_37">
    <path d="M 174.629351 158.804146 
Q 223.291407 170.084247 270.864309 181.111877 
" clip-path="url(#pbd1a21f1f7)" style="fill: none; stroke: #000000; stroke-linecap: round"/>
    <path d="M 267.419264 178.260268 
L 270.864309 181.111877 
L 266.515995 182.156947 
z
" clip-path="url(#pbd1a21f1f7)" style="stroke: #000000; stroke-linecap: round"/>
   </g>
   <g id="patch_38">
    <path d="M 174.629351 158.804146 
Q 223.291407 170.084247 270.864309 181.111877 
" clip-path="url(#pbd1a21f1f7)" style="fill: none; stroke: #000000; stroke-linecap: round"/>
    <path d="M 267.419264 178.260268 
L 270.864309 181.111877 
L 266.515995 182.156947 
z
" clip-path="url(#pbd1a21f1f7)" style="stroke: #000000; stroke-linecap: round"/>
   </g>
   <g id="patch_39">
    <path d="M 172.422501 156.456508 
Q 168.313609 132.06023 164.390405 108.766458 
" clip-path="url(#pbd1a21f1f7)" style="fill: none; stroke: #000000; stroke-linecap: round"/>
    <path d="M 163.082517 113.043072 
L 164.390405 108.766458 
L 167.026964 112.378737 
z
" clip-path="url(#pbd1a21f1f7)" style="stroke: #000000; stroke-linecap: round"/>
   </g>
   <g id="patch_40">
    <path d="M 170.807272 158.3301 
Q 109.650585 157.159309 49.611727 156.009917 
" clip-path="url(#pbd1a21f1f7)" style="fill: none; stroke: #000000; stroke-linecap: round"/>
    <path d="M 53.572713 158.086113 
L 49.611727 156.009917 
L 53.649276 154.086846 
z
" clip-path="url(#pbd1a21f1f7)" style="stroke: #000000; stroke-linecap: round"/>
   </g>
   <g id="patch_41">
    <path d="M 161.996302 105.305976 
Q 106.313716 92.067073 51.718843 79.086781 
" clip-path="url(#pbd1a21f1f7)" style="fill: none; stroke: #000000; stroke-linecap: round"/>
    <path d="M 55.147747 81.957777 
L 51.718843 79.086781 
L 56.072982 78.066255 
z
" clip-path="url(#pbd1a21f1f7)" style="stroke: #000000; stroke-linecap: round"/>
   </g>
   <g id="patch_42">
    <path d="M 165.751582 105.232285 
Q 221.753122 89.577789 276.677906 74.224286 
" clip-path="url(#pbd1a21f1f7)" style="fill: none; stroke: #000000; stroke-linecap: round"/>
    <path d="M 272.287154 73.374992 
L 276.677906 74.224286 
L 273.364019 77.227311 
z
" clip-path="url(#pbd1a21f1f7)" style="stroke: #000000; stroke-linecap: round"/>
   </g>
   <g id="patch_43">
    <path d="M 164.241478 103.850395 
Q 167.898947 84.414997 171.349647 66.078347 
" clip-path="url(#pbd1a21f1f7)" style="fill: none; stroke: #000000; stroke-linecap: round"/>
    <path d="M 168.644389 69.639467 
L 171.349647 66.078347 
L 172.575388 70.379226 
z
" clip-path="url(#pbd1a21f1f7)" style="stroke: #000000; stroke-linecap: round"/>
   </g>
   <g id="patch_44">
    <path d="M 165.772124 106.175528 
Q 211.277462 116.316 255.691533 126.213293 
" clip-path="url(#pbd1a21f1f7)" style="fill: none; stroke: #000000; stroke-linecap: round"/>
    <path d="M 252.22231 123.39115 
L 255.691533 126.213293 
L 251.352285 127.295385 
z
" clip-path="url(#pbd1a21f1f7)" style="stroke: #000000; stroke-linecap: round"/>
   </g>
   <g id="patch_45">
    <path d="M 165.772124 106.175528 
Q 211.277462 116.316 255.691533 126.213293 
" clip-path="url(#pbd1a21f1f7)" style="fill: none; stroke: #000000; stroke-linecap: round"/>
    <path d="M 252.22231 123.39115 
L 255.691533 126.213293 
L 251.352285 127.295385 
z
" clip-path="url(#pbd1a21f1f7)" style="stroke: #000000; stroke-linecap: round"/>
   </g>
   <g id="patch_46">
    <path d="M 164.204938 107.665259 
Q 168.313829 132.061537 172.237033 155.355308 
" clip-path="url(#pbd1a21f1f7)" style="fill: none; stroke: #000000; stroke-linecap: round"/>
    <path d="M 173.544922 151.078694 
L 172.237033 155.355308 
L 169.600475 151.743029 
z
" clip-path="url(#pbd1a21f1f7)" style="stroke: #000000; stroke-linecap: round"/>
   </g>
   <g id="patch_47">
    <path d="M 161.966161 106.025668 
Q 101.935017 114.514817 43.010892 122.84742 
" clip-path="url(#pbd1a21f1f7)" style="fill: none; stroke: #000000; stroke-linecap: round"/>
    <path d="M 47.251526 124.26764 
L 43.010892 122.84742 
L 46.691449 120.307045 
z
" clip-path="url(#pbd1a21f1f7)" style="stroke: #000000; stroke-linecap: round"/>
   </g>
   <g id="patch_48">
    <path d="M 48.493297 155.988506 
Q 109.649985 157.159297 169.688843 158.308689 
" clip-path="url(#pbd1a21f1f7)" style="fill: none; stroke: #000000; stroke-linecap: round"/>
    <path d="M 165.727857 156.232492 
L 169.688843 158.308689 
L 165.651294 160.23176 
z
" clip-path="url(#pbd1a21f1f7)" style="stroke: #000000; stroke-linecap: round"/>
   </g>
   <g id="patch_49">
    <path d="M 46.175346 154.056737 
Q 43.27181 139.614678 40.588642 126.26872 
" clip-path="url(#pbd1a21f1f7)" style="fill: none; stroke: #000000; stroke-linecap: round"/>
    <path d="M 39.41629 130.584457 
L 40.588642 126.26872 
L 43.337821 129.796044 
z
" clip-path="url(#pbd1a21f1f7)" style="stroke: #000000; stroke-linecap: round"/>
   </g>
   <g id="patch_50">
    <path d="M 41.903752 123.003983 
Q 101.934897 114.514834 160.859022 106.182231 
" clip-path="url(#pbd1a21f1f7)" style="fill: none; stroke: #000000; stroke-linecap: round"/>
    <path d="M 156.618388 104.762011 
L 160.859022 106.182231 
L 157.178465 108.722606 
z
" clip-path="url(#pbd1a21f1f7)" style="stroke: #000000; stroke-linecap: round"/>
   </g>
   <g id="patch_51">
    <path d="M 40.367698 125.169753 
Q 43.271234 139.611812 45.954402 152.95777 
" clip-path="url(#pbd1a21f1f7)" style="fill: none; stroke: #000000; stroke-linecap: round"/>
    <path d="M 47.126755 148.642033 
L 45.954402 152.95777 
L 43.205224 149.430445 
z
" clip-path="url(#pbd1a21f1f7)" style="stroke: #000000; stroke-linecap: round"/>
   </g>
   <g id="PathCollection_1">
    <defs>
     <path id="m60a6082d20" d="M 0 1.936492 
C 0.513564 1.936492 1.006162 1.732451 1.369306 1.369306 
C 1.732451 1.006162 1.936492 0.513564 1.936492 0 
C 1.936492 -0.513564 1.732451 -1.006162 1.369306 -1.369306 
C 1.006162 -1.732451 0.513564 -1.936492 0 -1.936492 
C -0.513564 -1.936492 -1.006162 -1.732451 -1.369306 -1.369306 
C -1.732451 -1.006162 -1.936492 -0.513564 -1.936492 0 
C -1.936492 0.513564 -1.732451 1.006162 -1.369306 1.369306 
C -1.006162 1.732451 -0.513564 1.936492 0 1.936492 
z
" style="stroke: #1f78b4"/>
    </defs>
    <g clip-path="url(#pbd1a21f1f7)">
     <use xlink:href="#m60a6082d20" x="396.55674" y="283.215188" style="fill: #1f78b4; stroke: #1f78b4"/>
     <use xlink:href="#m60a6082d20" x="218.406206" y="310.384817" style="fill: #1f78b4; stroke: #1f78b4"/>
     <use xlink:href="#m60a6082d20" x="283.248522" y="268.686044" style="fill: #1f78b4; stroke: #1f78b4"/>
     <use xlink:href="#m60a6082d20" x="176.515572" y="286.639316" style="fill: #1f78b4; stroke: #1f78b4"/>
     <use xlink:href="#m60a6082d20" x="231.540914" y="29.990083" style="fill: #1f78b4; stroke: #1f78b4"/>
     <use xlink:href="#m60a6082d20" x="393.759781" y="133.577984" style="fill: #1f78b4; stroke: #1f78b4"/>
     <use xlink:href="#m60a6082d20" x="358.144249" y="307.072069" style="fill: #1f78b4; stroke: #1f78b4"/>
     <use xlink:href="#m60a6082d20" x="289.945525" y="315.609917" style="fill: #1f78b4; stroke: #1f78b4"/>
     <use xlink:href="#m60a6082d20" x="48.747568" y="78.380341" style="fill: #1f78b4; stroke: #1f78b4"/>
     <use xlink:href="#m60a6082d20" x="279.620743" y="73.401655" style="fill: #1f78b4; stroke: #1f78b4"/>
     <use xlink:href="#m60a6082d20" x="420.813223" y="77.446172" style="fill: #1f78b4; stroke: #1f78b4"/>
     <use xlink:href="#m60a6082d20" x="368.151394" y="202.054045" style="fill: #1f78b4; stroke: #1f78b4"/>
     <use xlink:href="#m60a6082d20" x="171.914693" y="63.075754" style="fill: #1f78b4; stroke: #1f78b4"/>
     <use xlink:href="#m60a6082d20" x="337.029407" y="118.374849" style="fill: #1f78b4; stroke: #1f78b4"/>
     <use xlink:href="#m60a6082d20" x="260.115268" y="82.808925" style="fill: #1f78b4; stroke: #1f78b4"/>
     <use xlink:href="#m60a6082d20" x="273.839695" y="181.801586" style="fill: #1f78b4; stroke: #1f78b4"/>
     <use xlink:href="#m60a6082d20" x="258.673836" y="126.877873" style="fill: #1f78b4; stroke: #1f78b4"/>
     <use xlink:href="#m60a6082d20" x="172.744302" y="158.367183" style="fill: #1f78b4; stroke: #1f78b4"/>
     <use xlink:href="#m60a6082d20" x="163.883137" y="105.754584" style="fill: #1f78b4; stroke: #1f78b4"/>
     <use xlink:href="#m60a6082d20" x="46.556268" y="155.951423" style="fill: #1f78b4; stroke: #1f78b4"/>
     <use xlink:href="#m60a6082d20" x="39.986777" y="123.275067" style="fill: #1f78b4; stroke: #1f78b4"/>
    </g>
   </g>
   <g id="text_1">
    <g clip-path="url(#pbd1a21f1f7)">
     <!-- 0 -->
     <g transform="translate(393.37549 285.974563) scale(0.1 -0.1)">
      <defs>
       <path id="DejaVuSans-30" d="M 2034 4250 
Q 1547 4250 1301 3770 
Q 1056 3291 1056 2328 
Q 1056 1369 1301 889 
Q 1547 409 2034 409 
Q 2525 409 2770 889 
Q 3016 1369 3016 2328 
Q 3016 3291 2770 3770 
Q 2525 4250 2034 4250 
z
M 2034 4750 
Q 2819 4750 3233 4129 
Q 3647 3509 3647 2328 
Q 3647 1150 3233 529 
Q 2819 -91 2034 -91 
Q 1250 -91 836 529 
Q 422 1150 422 2328 
Q 422 3509 836 4129 
Q 1250 4750 2034 4750 
z
" transform="scale(0.015625)"/>
      </defs>
      <use xlink:href="#DejaVuSans-30"/>
     </g>
    </g>
   </g>
   <g id="text_2">
    <g clip-path="url(#pbd1a21f1f7)">
     <!-- 1 -->
     <g transform="translate(215.224956 313.144192) scale(0.1 -0.1)">
      <defs>
       <path id="DejaVuSans-31" d="M 794 531 
L 1825 531 
L 1825 4091 
L 703 3866 
L 703 4441 
L 1819 4666 
L 2450 4666 
L 2450 531 
L 3481 531 
L 3481 0 
L 794 0 
L 794 531 
z
" transform="scale(0.015625)"/>
      </defs>
      <use xlink:href="#DejaVuSans-31"/>
     </g>
    </g>
   </g>
   <g id="text_3">
    <g clip-path="url(#pbd1a21f1f7)">
     <!-- 2 -->
     <g transform="translate(280.067272 271.445419) scale(0.1 -0.1)">
      <defs>
       <path id="DejaVuSans-32" d="M 1228 531 
L 3431 531 
L 3431 0 
L 469 0 
L 469 531 
Q 828 903 1448 1529 
Q 2069 2156 2228 2338 
Q 2531 2678 2651 2914 
Q 2772 3150 2772 3378 
Q 2772 3750 2511 3984 
Q 2250 4219 1831 4219 
Q 1534 4219 1204 4116 
Q 875 4013 500 3803 
L 500 4441 
Q 881 4594 1212 4672 
Q 1544 4750 1819 4750 
Q 2544 4750 2975 4387 
Q 3406 4025 3406 3419 
Q 3406 3131 3298 2873 
Q 3191 2616 2906 2266 
Q 2828 2175 2409 1742 
Q 1991 1309 1228 531 
z
" transform="scale(0.015625)"/>
      </defs>
      <use xlink:href="#DejaVuSans-32"/>
     </g>
    </g>
   </g>
   <g id="text_4">
    <g clip-path="url(#pbd1a21f1f7)">
     <!-- 3 -->
     <g transform="translate(173.334322 289.398691) scale(0.1 -0.1)">
      <defs>
       <path id="DejaVuSans-33" d="M 2597 2516 
Q 3050 2419 3304 2112 
Q 3559 1806 3559 1356 
Q 3559 666 3084 287 
Q 2609 -91 1734 -91 
Q 1441 -91 1130 -33 
Q 819 25 488 141 
L 488 750 
Q 750 597 1062 519 
Q 1375 441 1716 441 
Q 2309 441 2620 675 
Q 2931 909 2931 1356 
Q 2931 1769 2642 2001 
Q 2353 2234 1838 2234 
L 1294 2234 
L 1294 2753 
L 1863 2753 
Q 2328 2753 2575 2939 
Q 2822 3125 2822 3475 
Q 2822 3834 2567 4026 
Q 2313 4219 1838 4219 
Q 1578 4219 1281 4162 
Q 984 4106 628 3988 
L 628 4550 
Q 988 4650 1302 4700 
Q 1616 4750 1894 4750 
Q 2613 4750 3031 4423 
Q 3450 4097 3450 3541 
Q 3450 3153 3228 2886 
Q 3006 2619 2597 2516 
z
" transform="scale(0.015625)"/>
      </defs>
      <use xlink:href="#DejaVuSans-33"/>
     </g>
    </g>
   </g>
   <g id="text_5">
    <g clip-path="url(#pbd1a21f1f7)">
     <!-- 4 -->
     <g transform="translate(228.359664 32.749458) scale(0.1 -0.1)">
      <defs>
       <path id="DejaVuSans-34" d="M 2419 4116 
L 825 1625 
L 2419 1625 
L 2419 4116 
z
M 2253 4666 
L 3047 4666 
L 3047 1625 
L 3713 1625 
L 3713 1100 
L 3047 1100 
L 3047 0 
L 2419 0 
L 2419 1100 
L 313 1100 
L 313 1709 
L 2253 4666 
z
" transform="scale(0.015625)"/>
      </defs>
      <use xlink:href="#DejaVuSans-34"/>
     </g>
    </g>
   </g>
   <g id="text_6">
    <g clip-path="url(#pbd1a21f1f7)">
     <!-- 5 -->
     <g transform="translate(390.578531 136.337359) scale(0.1 -0.1)">
      <defs>
       <path id="DejaVuSans-35" d="M 691 4666 
L 3169 4666 
L 3169 4134 
L 1269 4134 
L 1269 2991 
Q 1406 3038 1543 3061 
Q 1681 3084 1819 3084 
Q 2600 3084 3056 2656 
Q 3513 2228 3513 1497 
Q 3513 744 3044 326 
Q 2575 -91 1722 -91 
Q 1428 -91 1123 -41 
Q 819 9 494 109 
L 494 744 
Q 775 591 1075 516 
Q 1375 441 1709 441 
Q 2250 441 2565 725 
Q 2881 1009 2881 1497 
Q 2881 1984 2565 2268 
Q 2250 2553 1709 2553 
Q 1456 2553 1204 2497 
Q 953 2441 691 2322 
L 691 4666 
z
" transform="scale(0.015625)"/>
      </defs>
      <use xlink:href="#DejaVuSans-35"/>
     </g>
    </g>
   </g>
   <g id="text_7">
    <g clip-path="url(#pbd1a21f1f7)">
     <!-- 6 -->
     <g transform="translate(354.962999 309.831444) scale(0.1 -0.1)">
      <defs>
       <path id="DejaVuSans-36" d="M 2113 2584 
Q 1688 2584 1439 2293 
Q 1191 2003 1191 1497 
Q 1191 994 1439 701 
Q 1688 409 2113 409 
Q 2538 409 2786 701 
Q 3034 994 3034 1497 
Q 3034 2003 2786 2293 
Q 2538 2584 2113 2584 
z
M 3366 4563 
L 3366 3988 
Q 3128 4100 2886 4159 
Q 2644 4219 2406 4219 
Q 1781 4219 1451 3797 
Q 1122 3375 1075 2522 
Q 1259 2794 1537 2939 
Q 1816 3084 2150 3084 
Q 2853 3084 3261 2657 
Q 3669 2231 3669 1497 
Q 3669 778 3244 343 
Q 2819 -91 2113 -91 
Q 1303 -91 875 529 
Q 447 1150 447 2328 
Q 447 3434 972 4092 
Q 1497 4750 2381 4750 
Q 2619 4750 2861 4703 
Q 3103 4656 3366 4563 
z
" transform="scale(0.015625)"/>
      </defs>
      <use xlink:href="#DejaVuSans-36"/>
     </g>
    </g>
   </g>
   <g id="text_8">
    <g clip-path="url(#pbd1a21f1f7)">
     <!-- 7 -->
     <g transform="translate(286.764275 318.369292) scale(0.1 -0.1)">
      <defs>
       <path id="DejaVuSans-37" d="M 525 4666 
L 3525 4666 
L 3525 4397 
L 1831 0 
L 1172 0 
L 2766 4134 
L 525 4134 
L 525 4666 
z
" transform="scale(0.015625)"/>
      </defs>
      <use xlink:href="#DejaVuSans-37"/>
     </g>
    </g>
   </g>
   <g id="text_9">
    <g clip-path="url(#pbd1a21f1f7)">
     <!-- 8 -->
     <g transform="translate(45.566318 81.139716) scale(0.1 -0.1)">
      <defs>
       <path id="DejaVuSans-38" d="M 2034 2216 
Q 1584 2216 1326 1975 
Q 1069 1734 1069 1313 
Q 1069 891 1326 650 
Q 1584 409 2034 409 
Q 2484 409 2743 651 
Q 3003 894 3003 1313 
Q 3003 1734 2745 1975 
Q 2488 2216 2034 2216 
z
M 1403 2484 
Q 997 2584 770 2862 
Q 544 3141 544 3541 
Q 544 4100 942 4425 
Q 1341 4750 2034 4750 
Q 2731 4750 3128 4425 
Q 3525 4100 3525 3541 
Q 3525 3141 3298 2862 
Q 3072 2584 2669 2484 
Q 3125 2378 3379 2068 
Q 3634 1759 3634 1313 
Q 3634 634 3220 271 
Q 2806 -91 2034 -91 
Q 1263 -91 848 271 
Q 434 634 434 1313 
Q 434 1759 690 2068 
Q 947 2378 1403 2484 
z
M 1172 3481 
Q 1172 3119 1398 2916 
Q 1625 2713 2034 2713 
Q 2441 2713 2670 2916 
Q 2900 3119 2900 3481 
Q 2900 3844 2670 4047 
Q 2441 4250 2034 4250 
Q 1625 4250 1398 4047 
Q 1172 3844 1172 3481 
z
" transform="scale(0.015625)"/>
      </defs>
      <use xlink:href="#DejaVuSans-38"/>
     </g>
    </g>
   </g>
   <g id="text_10">
    <g clip-path="url(#pbd1a21f1f7)">
     <!-- 9 -->
     <g transform="translate(276.439493 76.16103) scale(0.1 -0.1)">
      <defs>
       <path id="DejaVuSans-39" d="M 703 97 
L 703 672 
Q 941 559 1184 500 
Q 1428 441 1663 441 
Q 2288 441 2617 861 
Q 2947 1281 2994 2138 
Q 2813 1869 2534 1725 
Q 2256 1581 1919 1581 
Q 1219 1581 811 2004 
Q 403 2428 403 3163 
Q 403 3881 828 4315 
Q 1253 4750 1959 4750 
Q 2769 4750 3195 4129 
Q 3622 3509 3622 2328 
Q 3622 1225 3098 567 
Q 2575 -91 1691 -91 
Q 1453 -91 1209 -44 
Q 966 3 703 97 
z
M 1959 2075 
Q 2384 2075 2632 2365 
Q 2881 2656 2881 3163 
Q 2881 3666 2632 3958 
Q 2384 4250 1959 4250 
Q 1534 4250 1286 3958 
Q 1038 3666 1038 3163 
Q 1038 2656 1286 2365 
Q 1534 2075 1959 2075 
z
" transform="scale(0.015625)"/>
      </defs>
      <use xlink:href="#DejaVuSans-39"/>
     </g>
    </g>
   </g>
   <g id="text_11">
    <g clip-path="url(#pbd1a21f1f7)">
     <!-- 10 -->
     <g transform="translate(414.450723 80.205547) scale(0.1 -0.1)">
      <use xlink:href="#DejaVuSans-31"/>
      <use xlink:href="#DejaVuSans-30" x="63.623047"/>
     </g>
    </g>
   </g>
   <g id="text_12">
    <g clip-path="url(#pbd1a21f1f7)">
     <!-- 11 -->
     <g transform="translate(361.788894 204.81342) scale(0.1 -0.1)">
      <use xlink:href="#DejaVuSans-31"/>
      <use xlink:href="#DejaVuSans-31" x="63.623047"/>
     </g>
    </g>
   </g>
   <g id="text_13">
    <g clip-path="url(#pbd1a21f1f7)">
     <!-- 12 -->
     <g transform="translate(165.552193 65.835129) scale(0.1 -0.1)">
      <use xlink:href="#DejaVuSans-31"/>
      <use xlink:href="#DejaVuSans-32" x="63.623047"/>
     </g>
    </g>
   </g>
   <g id="text_14">
    <g clip-path="url(#pbd1a21f1f7)">
     <!-- 13 -->
     <g transform="translate(330.666907 121.134224) scale(0.1 -0.1)">
      <use xlink:href="#DejaVuSans-31"/>
      <use xlink:href="#DejaVuSans-33" x="63.623047"/>
     </g>
    </g>
   </g>
   <g id="text_15">
    <g clip-path="url(#pbd1a21f1f7)">
     <!-- 14 -->
     <g transform="translate(253.752768 85.5683) scale(0.1 -0.1)">
      <use xlink:href="#DejaVuSans-31"/>
      <use xlink:href="#DejaVuSans-34" x="63.623047"/>
     </g>
    </g>
   </g>
   <g id="text_16">
    <g clip-path="url(#pbd1a21f1f7)">
     <!-- 15 -->
     <g transform="translate(267.477195 184.560961) scale(0.1 -0.1)">
      <use xlink:href="#DejaVuSans-31"/>
      <use xlink:href="#DejaVuSans-35" x="63.623047"/>
     </g>
    </g>
   </g>
   <g id="text_17">
    <g clip-path="url(#pbd1a21f1f7)">
     <!-- 16 -->
     <g transform="translate(252.311336 129.637248) scale(0.1 -0.1)">
      <use xlink:href="#DejaVuSans-31"/>
      <use xlink:href="#DejaVuSans-36" x="63.623047"/>
     </g>
    </g>
   </g>
   <g id="text_18">
    <g clip-path="url(#pbd1a21f1f7)">
     <!-- 17 -->
     <g transform="translate(166.381802 161.126558) scale(0.1 -0.1)">
      <use xlink:href="#DejaVuSans-31"/>
      <use xlink:href="#DejaVuSans-37" x="63.623047"/>
     </g>
    </g>
   </g>
   <g id="text_19">
    <g clip-path="url(#pbd1a21f1f7)">
     <!-- 18 -->
     <g transform="translate(157.520637 108.513959) scale(0.1 -0.1)">
      <use xlink:href="#DejaVuSans-31"/>
      <use xlink:href="#DejaVuSans-38" x="63.623047"/>
     </g>
    </g>
   </g>
   <g id="text_20">
    <g clip-path="url(#pbd1a21f1f7)">
     <!-- 19 -->
     <g transform="translate(40.193768 158.710798) scale(0.1 -0.1)">
      <use xlink:href="#DejaVuSans-31"/>
      <use xlink:href="#DejaVuSans-39" x="63.623047"/>
     </g>
    </g>
   </g>
   <g id="text_21">
    <g clip-path="url(#pbd1a21f1f7)">
     <!-- 20 -->
     <g transform="translate(33.624277 126.034442) scale(0.1 -0.1)">
      <use xlink:href="#DejaVuSans-32"/>
      <use xlink:href="#DejaVuSans-30" x="63.623047"/>
     </g>
    </g>
   </g>
  </g>
 </g>
 <defs>
  <clipPath id="pbd1a21f1f7">
   <rect x="0" y="0" width="460.8" height="345.6"/>
  </clipPath>
 </defs>
</svg>
