<?xml version="1.0" encoding="utf-8" standalone="no"?>
<!DOCTYPE svg PUBLIC "-//W3C//DTD SVG 1.1//EN"
  "http://www.w3.org/Graphics/SVG/1.1/DTD/svg11.dtd">
<svg xmlns:xlink="http://www.w3.org/1999/xlink" width="460.8pt" height="345.6pt" viewBox="0 0 460.8 345.6" xmlns="http://www.w3.org/2000/svg" version="1.1">
 <metadata>
  <rdf:RDF xmlns:dc="http://purl.org/dc/elements/1.1/" xmlns:cc="http://creativecommons.org/ns#" xmlns:rdf="http://www.w3.org/1999/02/22-rdf-syntax-ns#">
   <cc:Work>
    <dc:type rdf:resource="http://purl.org/dc/dcmitype/StillImage"/>
    <dc:date>2024-02-07T13:47:43.117820</dc:date>
    <dc:format>image/svg+xml</dc:format>
    <dc:creator>
     <cc:Agent>
      <dc:title>Matplotlib v3.8.0, https://matplotlib.org/</dc:title>
     </cc:Agent>
    </dc:creator>
   </cc:Work>
  </rdf:RDF>
 </metadata>
 <defs>
  <style type="text/css">*{stroke-linejoin: round; stroke-linecap: butt}</style>
 </defs>
 <g id="figure_1">
  <g id="patch_1">
   <path d="M 0 345.6 
L 460.8 345.6 
L 460.8 0 
L 0 0 
z
" style="fill: #ffffff"/>
  </g>
  <g id="axes_1">
   <g id="patch_2">
    <path d="M 175.916042 81.986284 
Q 169.432214 66.267674 163.374722 51.582621 
" clip-path="url(#p94854a80b9)" style="fill: none; stroke: #000000; stroke-linecap: round"/>
    <path d="M 163.051144 56.043036 
L 163.374722 51.582621 
L 166.748907 54.517732 
z
" clip-path="url(#p94854a80b9)" style="stroke: #000000; stroke-linecap: round"/>
   </g>
   <g id="patch_3">
    <path d="M 178.581179 83.578741 
Q 228.478926 78.435293 277.264532 73.406485 
" clip-path="url(#p94854a80b9)" style="fill: none; stroke: #000000; stroke-linecap: round"/>
    <path d="M 273.080542 71.827172 
L 277.264532 73.406485 
L 273.490688 75.806089 
z
" clip-path="url(#p94854a80b9)" style="stroke: #000000; stroke-linecap: round"/>
   </g>
   <g id="patch_4">
    <path d="M 174.902302 84.602657 
Q 136.608204 102.637171 99.325584 120.195331 
" clip-path="url(#p94854a80b9)" style="fill: none; stroke: #000000; stroke-linecap: round"/>
    <path d="M 103.796484 120.300465 
L 99.325584 120.195331 
L 102.092231 116.681692 
z
" clip-path="url(#p94854a80b9)" style="stroke: #000000; stroke-linecap: round"/>
   </g>
   <g id="patch_5">
    <path d="M 326.601096 300.376861 
Q 284.268976 307.825802 243.037973 315.080985 
" clip-path="url(#p94854a80b9)" style="fill: none; stroke: #000000; stroke-linecap: round"/>
    <path d="M 247.324051 316.357515 
L 243.037973 315.080985 
L 246.630845 312.41804 
z
" clip-path="url(#p94854a80b9)" style="stroke: #000000; stroke-linecap: round"/>
   </g>
   <g id="patch_6">
    <path d="M 330.178576 299.058296 
Q 360.669315 281.100849 390.196683 263.710777 
" clip-path="url(#p94854a80b9)" style="fill: none; stroke: #000000; stroke-linecap: round"/>
    <path d="M 385.735067 264.01735 
L 390.196683 263.710777 
L 387.764971 267.464013 
z
" clip-path="url(#p94854a80b9)" style="stroke: #000000; stroke-linecap: round"/>
   </g>
   <g id="patch_7">
    <path d="M 302.025476 31.702734 
Q 291.615065 51.540263 281.724186 70.387799 
" clip-path="url(#p94854a80b9)" style="fill: none; stroke: #000000; stroke-linecap: round"/>
    <path d="M 285.353875 67.775259 
L 281.724186 70.387799 
L 281.811968 65.916524 
z
" clip-path="url(#p94854a80b9)" style="stroke: #000000; stroke-linecap: round"/>
   </g>
   <g id="patch_8">
    <path d="M 162.949367 50.551442 
Q 169.433195 66.270051 175.490687 80.955105 
" clip-path="url(#p94854a80b9)" style="fill: none; stroke: #000000; stroke-linecap: round"/>
    <path d="M 175.814264 76.49469 
L 175.490687 80.955105 
L 172.116502 78.019994 
z
" clip-path="url(#p94854a80b9)" style="stroke: #000000; stroke-linecap: round"/>
   </g>
   <g id="patch_9">
    <path d="M 420.38267 209.009262 
Q 414.678817 183.953095 409.223127 159.987072 
" clip-path="url(#p94854a80b9)" style="fill: none; stroke: #000000; stroke-linecap: round"/>
    <path d="M 408.160874 164.331219 
L 409.223127 159.987072 
L 412.061093 163.443363 
z
" clip-path="url(#p94854a80b9)" style="stroke: #000000; stroke-linecap: round"/>
   </g>
   <g id="patch_10">
    <path d="M 419.885839 212.599436 
Q 406.821679 236.530844 394.293229 259.48092 
" clip-path="url(#p94854a80b9)" style="fill: none; stroke: #000000; stroke-linecap: round"/>
    <path d="M 397.965305 256.928303 
L 394.293229 259.48092 
L 394.454381 255.011689 
z
" clip-path="url(#p94854a80b9)" style="stroke: #000000; stroke-linecap: round"/>
   </g>
   <g id="patch_11">
    <path d="M 46.845443 171.520888 
Q 43.543998 196.304216 40.390185 219.979299 
" clip-path="url(#p94854a80b9)" style="fill: none; stroke: #000000; stroke-linecap: round"/>
    <path d="M 42.900856 216.278416 
L 40.390185 219.979299 
L 38.935882 215.750233 
z
" clip-path="url(#p94854a80b9)" style="stroke: #000000; stroke-linecap: round"/>
   </g>
   <g id="patch_12">
    <path d="M 48.486846 168.253295 
Q 71.830309 145.55006 94.372288 123.626327 
" clip-path="url(#p94854a80b9)" style="fill: none; stroke: #000000; stroke-linecap: round"/>
    <path d="M 90.110396 124.981421 
L 94.372288 123.626327 
L 92.899228 127.848897 
z
" clip-path="url(#p94854a80b9)" style="stroke: #000000; stroke-linecap: round"/>
   </g>
   <g id="patch_13">
    <path d="M 98.314201 120.67164 
Q 136.608299 102.637126 173.890919 85.078966 
" clip-path="url(#p94854a80b9)" style="fill: none; stroke: #000000; stroke-linecap: round"/>
    <path d="M 169.420019 84.973832 
L 173.890919 85.078966 
L 171.124272 88.592605 
z
" clip-path="url(#p94854a80b9)" style="stroke: #000000; stroke-linecap: round"/>
   </g>
   <g id="patch_14">
    <path d="M 95.176033 122.844626 
Q 71.83257 145.547861 49.290591 167.471594 
" clip-path="url(#p94854a80b9)" style="fill: none; stroke: #000000; stroke-linecap: round"/>
    <path d="M 53.552483 166.116501 
L 49.290591 167.471594 
L 50.763651 163.249025 
z
" clip-path="url(#p94854a80b9)" style="stroke: #000000; stroke-linecap: round"/>
   </g>
   <g id="patch_15">
    <path d="M 75.441915 269.913078 
Q 58.297546 247.231891 41.827353 225.442606 
" clip-path="url(#p94854a80b9)" style="fill: none; stroke: #000000; stroke-linecap: round"/>
    <path d="M 42.643873 229.83957 
L 41.827353 225.442606 
L 45.834836 227.427569 
z
" clip-path="url(#p94854a80b9)" style="stroke: #000000; stroke-linecap: round"/>
   </g>
   <g id="patch_16">
    <path d="M 78.367766 272.27578 
Q 112.67945 288.214135 145.977156 303.68148 
" clip-path="url(#p94854a80b9)" style="fill: none; stroke: #000000; stroke-linecap: round"/>
    <path d="M 143.192007 300.182487 
L 145.977156 303.68148 
L 141.506872 303.810202 
z
" clip-path="url(#p94854a80b9)" style="stroke: #000000; stroke-linecap: round"/>
   </g>
   <g id="patch_17">
    <path d="M 40.242538 221.087656 
Q 43.543983 196.304329 46.697796 172.629245 
" clip-path="url(#p94854a80b9)" style="fill: none; stroke: #000000; stroke-linecap: round"/>
    <path d="M 44.187125 176.330128 
L 46.697796 172.629245 
L 48.1521 176.858312 
z
" clip-path="url(#p94854a80b9)" style="stroke: #000000; stroke-linecap: round"/>
   </g>
   <g id="patch_18">
    <path d="M 41.155873 224.55427 
Q 58.300241 247.235457 74.770435 269.024742 
" clip-path="url(#p94854a80b9)" style="fill: none; stroke: #000000; stroke-linecap: round"/>
    <path d="M 73.953915 264.627778 
L 74.770435 269.024742 
L 70.762951 267.039779 
z
" clip-path="url(#p94854a80b9)" style="stroke: #000000; stroke-linecap: round"/>
   </g>
   <g id="patch_19">
    <path d="M 241.941058 315.274002 
Q 284.273178 307.825062 325.504181 300.569879 
" clip-path="url(#p94854a80b9)" style="fill: none; stroke: #000000; stroke-linecap: round"/>
    <path d="M 321.218102 299.293348 
L 325.504181 300.569879 
L 321.911309 303.232824 
z
" clip-path="url(#p94854a80b9)" style="stroke: #000000; stroke-linecap: round"/>
   </g>
   <g id="patch_20">
    <path d="M 238.107098 315.385517 
Q 194.388855 310.289124 151.781127 305.322188 
" clip-path="url(#p94854a80b9)" style="fill: none; stroke: #000000; stroke-linecap: round"/>
    <path d="M 155.522643 307.771893 
L 151.781127 305.322188 
L 155.985801 303.798798 
z
" clip-path="url(#p94854a80b9)" style="stroke: #000000; stroke-linecap: round"/>
   </g>
   <g id="patch_21">
    <path d="M 146.991307 304.15257 
Q 112.679624 288.214216 79.381918 272.746871 
" clip-path="url(#p94854a80b9)" style="fill: none; stroke: #000000; stroke-linecap: round"/>
    <path d="M 82.167066 276.245863 
L 79.381918 272.746871 
L 83.852201 272.618148 
z
" clip-path="url(#p94854a80b9)" style="stroke: #000000; stroke-linecap: round"/>
   </g>
   <g id="patch_22">
    <path d="M 150.673028 305.193013 
Q 194.39127 310.289406 236.998999 315.256342 
" clip-path="url(#p94854a80b9)" style="fill: none; stroke: #000000; stroke-linecap: round"/>
    <path d="M 233.257483 312.806637 
L 236.998999 315.256342 
L 232.794325 316.779732 
z
" clip-path="url(#p94854a80b9)" style="stroke: #000000; stroke-linecap: round"/>
   </g>
   <g id="patch_23">
    <path d="M 408.975624 158.899827 
Q 414.679477 183.955995 420.135166 207.922018 
" clip-path="url(#p94854a80b9)" style="fill: none; stroke: #000000; stroke-linecap: round"/>
    <path d="M 421.19742 203.57787 
L 420.135166 207.922018 
L 417.2972 204.465727 
z
" clip-path="url(#p94854a80b9)" style="stroke: #000000; stroke-linecap: round"/>
   </g>
   <g id="patch_24">
    <path d="M 407.14868 155.666511 
Q 383.624137 133.05894 360.905719 111.226071 
" clip-path="url(#p94854a80b9)" style="fill: none; stroke: #000000; stroke-linecap: round"/>
    <path d="M 362.403968 115.439769 
L 360.905719 111.226071 
L 365.175627 112.555691 
z
" clip-path="url(#p94854a80b9)" style="stroke: #000000; stroke-linecap: round"/>
   </g>
   <g id="patch_25">
    <path d="M 391.162662 263.141866 
Q 360.671923 281.099313 331.144555 298.489385 
" clip-path="url(#p94854a80b9)" style="fill: none; stroke: #000000; stroke-linecap: round"/>
    <path d="M 335.606171 298.182813 
L 331.144555 298.489385 
L 333.576266 294.736149 
z
" clip-path="url(#p94854a80b9)" style="stroke: #000000; stroke-linecap: round"/>
   </g>
   <g id="patch_26">
    <path d="M 393.758531 260.460399 
Q 406.822691 236.52899 419.351141 213.578915 
" clip-path="url(#p94854a80b9)" style="fill: none; stroke: #000000; stroke-linecap: round"/>
    <path d="M 415.679065 216.131532 
L 419.351141 213.578915 
L 419.189989 218.048146 
z
" clip-path="url(#p94854a80b9)" style="stroke: #000000; stroke-linecap: round"/>
   </g>
   <g id="patch_27">
    <path d="M 278.378123 73.291696 
Q 228.480376 78.435144 179.69477 83.463953 
" clip-path="url(#p94854a80b9)" style="fill: none; stroke: #000000; stroke-linecap: round"/>
    <path d="M 183.87876 85.043265 
L 179.69477 83.463953 
L 183.468614 81.064348 
z
" clip-path="url(#p94854a80b9)" style="stroke: #000000; stroke-linecap: round"/>
   </g>
   <g id="patch_28">
    <path d="M 281.203245 71.380477 
Q 291.613656 51.542948 301.504535 32.695412 
" clip-path="url(#p94854a80b9)" style="fill: none; stroke: #000000; stroke-linecap: round"/>
    <path d="M 297.874846 35.307952 
L 301.504535 32.695412 
L 301.416753 37.166687 
z
" clip-path="url(#p94854a80b9)" style="stroke: #000000; stroke-linecap: round"/>
   </g>
   <g id="patch_29">
    <path d="M 282.062939 73.90094 
Q 319.501372 91.099564 355.923845 107.831472 
" clip-path="url(#p94854a80b9)" style="fill: none; stroke: #000000; stroke-linecap: round"/>
    <path d="M 353.123921 104.344292 
L 355.923845 107.831472 
L 351.454146 107.979103 
z
" clip-path="url(#p94854a80b9)" style="stroke: #000000; stroke-linecap: round"/>
   </g>
   <g id="patch_30">
    <path d="M 360.097317 110.44918 
Q 383.621859 133.05675 406.340277 154.889619 
" clip-path="url(#p94854a80b9)" style="fill: none; stroke: #000000; stroke-linecap: round"/>
    <path d="M 404.842028 150.675921 
L 406.340277 154.889619 
L 402.07037 153.559999 
z
" clip-path="url(#p94854a80b9)" style="stroke: #000000; stroke-linecap: round"/>
   </g>
   <g id="patch_31">
    <path d="M 356.942461 108.299408 
Q 319.504027 91.100784 283.081555 74.368876 
" clip-path="url(#p94854a80b9)" style="fill: none; stroke: #000000; stroke-linecap: round"/>
    <path d="M 285.881478 77.856056 
L 283.081555 74.368876 
L 287.551253 74.221245 
z
" clip-path="url(#p94854a80b9)" style="stroke: #000000; stroke-linecap: round"/>
   </g>
   <g id="PathCollection_1">
    <defs>
     <path id="m0d0d08ae03" d="M 0 1.936492 
C 0.513564 1.936492 1.006162 1.732451 1.369306 1.369306 
C 1.732451 1.006162 1.936492 0.513564 1.936492 0 
C 1.936492 -0.513564 1.732451 -1.006162 1.369306 -1.369306 
C 1.006162 -1.732451 0.513564 -1.936492 0 -1.936492 
C -0.513564 -1.936492 -1.006162 -1.732451 -1.369306 -1.369306 
C -1.732451 -1.006162 -1.936492 -0.513564 -1.936492 0 
C -1.936492 0.513564 -1.732451 1.006162 -1.369306 1.369306 
C -1.006162 1.732451 -0.513564 1.936492 0 1.936492 
z
" style="stroke: #1f78b4"/>
    </defs>
    <g clip-path="url(#p94854a80b9)">
     <use xlink:href="#m0d0d08ae03" x="176.654829" y="83.777309" style="fill: #1f78b4; stroke: #1f78b4"/>
     <use xlink:href="#m0d0d08ae03" x="328.510091" y="300.040946" style="fill: #1f78b4; stroke: #1f78b4"/>
     <use xlink:href="#m0d0d08ae03" x="302.924247" y="29.990083" style="fill: #1f78b4; stroke: #1f78b4"/>
     <use xlink:href="#m0d0d08ae03" x="162.21058" y="48.760417" style="fill: #1f78b4; stroke: #1f78b4"/>
     <use xlink:href="#m0d0d08ae03" x="420.813223" y="210.900619" style="fill: #1f78b4; stroke: #1f78b4"/>
     <use xlink:href="#m0d0d08ae03" x="47.101205" y="169.600934" style="fill: #1f78b4; stroke: #1f78b4"/>
     <use xlink:href="#m0d0d08ae03" x="96.561675" y="121.496988" style="fill: #1f78b4; stroke: #1f78b4"/>
     <use xlink:href="#m0d0d08ae03" x="76.611011" y="271.459737" style="fill: #1f78b4; stroke: #1f78b4"/>
     <use xlink:href="#m0d0d08ae03" x="39.986777" y="223.007611" style="fill: #1f78b4; stroke: #1f78b4"/>
     <use xlink:href="#m0d0d08ae03" x="240.032063" y="315.609917" style="fill: #1f78b4; stroke: #1f78b4"/>
     <use xlink:href="#m0d0d08ae03" x="148.748063" y="304.968613" style="fill: #1f78b4; stroke: #1f78b4"/>
     <use xlink:href="#m0d0d08ae03" x="408.54507" y="157.008471" style="fill: #1f78b4; stroke: #1f78b4"/>
     <use xlink:href="#m0d0d08ae03" x="392.831147" y="262.159216" style="fill: #1f78b4; stroke: #1f78b4"/>
     <use xlink:href="#m0d0d08ae03" x="280.304473" y="73.093128" style="fill: #1f78b4; stroke: #1f78b4"/>
     <use xlink:href="#m0d0d08ae03" x="358.700926" y="109.107219" style="fill: #1f78b4; stroke: #1f78b4"/>
    </g>
   </g>
   <g id="text_1">
    <g clip-path="url(#p94854a80b9)">
     <!-- 0 -->
     <g transform="translate(173.473579 86.536684) scale(0.1 -0.1)">
      <defs>
       <path id="DejaVuSans-30" d="M 2034 4250 
Q 1547 4250 1301 3770 
Q 1056 3291 1056 2328 
Q 1056 1369 1301 889 
Q 1547 409 2034 409 
Q 2525 409 2770 889 
Q 3016 1369 3016 2328 
Q 3016 3291 2770 3770 
Q 2525 4250 2034 4250 
z
M 2034 4750 
Q 2819 4750 3233 4129 
Q 3647 3509 3647 2328 
Q 3647 1150 3233 529 
Q 2819 -91 2034 -91 
Q 1250 -91 836 529 
Q 422 1150 422 2328 
Q 422 3509 836 4129 
Q 1250 4750 2034 4750 
z
" transform="scale(0.015625)"/>
      </defs>
      <use xlink:href="#DejaVuSans-30"/>
     </g>
    </g>
   </g>
   <g id="text_2">
    <g clip-path="url(#p94854a80b9)">
     <!-- 1 -->
     <g transform="translate(325.328841 302.800321) scale(0.1 -0.1)">
      <defs>
       <path id="DejaVuSans-31" d="M 794 531 
L 1825 531 
L 1825 4091 
L 703 3866 
L 703 4441 
L 1819 4666 
L 2450 4666 
L 2450 531 
L 3481 531 
L 3481 0 
L 794 0 
L 794 531 
z
" transform="scale(0.015625)"/>
      </defs>
      <use xlink:href="#DejaVuSans-31"/>
     </g>
    </g>
   </g>
   <g id="text_3">
    <g clip-path="url(#p94854a80b9)">
     <!-- 2 -->
     <g transform="translate(299.742997 32.749458) scale(0.1 -0.1)">
      <defs>
       <path id="DejaVuSans-32" d="M 1228 531 
L 3431 531 
L 3431 0 
L 469 0 
L 469 531 
Q 828 903 1448 1529 
Q 2069 2156 2228 2338 
Q 2531 2678 2651 2914 
Q 2772 3150 2772 3378 
Q 2772 3750 2511 3984 
Q 2250 4219 1831 4219 
Q 1534 4219 1204 4116 
Q 875 4013 500 3803 
L 500 4441 
Q 881 4594 1212 4672 
Q 1544 4750 1819 4750 
Q 2544 4750 2975 4387 
Q 3406 4025 3406 3419 
Q 3406 3131 3298 2873 
Q 3191 2616 2906 2266 
Q 2828 2175 2409 1742 
Q 1991 1309 1228 531 
z
" transform="scale(0.015625)"/>
      </defs>
      <use xlink:href="#DejaVuSans-32"/>
     </g>
    </g>
   </g>
   <g id="text_4">
    <g clip-path="url(#p94854a80b9)">
     <!-- 3 -->
     <g transform="translate(159.02933 51.519792) scale(0.1 -0.1)">
      <defs>
       <path id="DejaVuSans-33" d="M 2597 2516 
Q 3050 2419 3304 2112 
Q 3559 1806 3559 1356 
Q 3559 666 3084 287 
Q 2609 -91 1734 -91 
Q 1441 -91 1130 -33 
Q 819 25 488 141 
L 488 750 
Q 750 597 1062 519 
Q 1375 441 1716 441 
Q 2309 441 2620 675 
Q 2931 909 2931 1356 
Q 2931 1769 2642 2001 
Q 2353 2234 1838 2234 
L 1294 2234 
L 1294 2753 
L 1863 2753 
Q 2328 2753 2575 2939 
Q 2822 3125 2822 3475 
Q 2822 3834 2567 4026 
Q 2313 4219 1838 4219 
Q 1578 4219 1281 4162 
Q 984 4106 628 3988 
L 628 4550 
Q 988 4650 1302 4700 
Q 1616 4750 1894 4750 
Q 2613 4750 3031 4423 
Q 3450 4097 3450 3541 
Q 3450 3153 3228 2886 
Q 3006 2619 2597 2516 
z
" transform="scale(0.015625)"/>
      </defs>
      <use xlink:href="#DejaVuSans-33"/>
     </g>
    </g>
   </g>
   <g id="text_5">
    <g clip-path="url(#p94854a80b9)">
     <!-- 4 -->
     <g transform="translate(417.631973 213.659994) scale(0.1 -0.1)">
      <defs>
       <path id="DejaVuSans-34" d="M 2419 4116 
L 825 1625 
L 2419 1625 
L 2419 4116 
z
M 2253 4666 
L 3047 4666 
L 3047 1625 
L 3713 1625 
L 3713 1100 
L 3047 1100 
L 3047 0 
L 2419 0 
L 2419 1100 
L 313 1100 
L 313 1709 
L 2253 4666 
z
" transform="scale(0.015625)"/>
      </defs>
      <use xlink:href="#DejaVuSans-34"/>
     </g>
    </g>
   </g>
   <g id="text_6">
    <g clip-path="url(#p94854a80b9)">
     <!-- 5 -->
     <g transform="translate(43.919955 172.360309) scale(0.1 -0.1)">
      <defs>
       <path id="DejaVuSans-35" d="M 691 4666 
L 3169 4666 
L 3169 4134 
L 1269 4134 
L 1269 2991 
Q 1406 3038 1543 3061 
Q 1681 3084 1819 3084 
Q 2600 3084 3056 2656 
Q 3513 2228 3513 1497 
Q 3513 744 3044 326 
Q 2575 -91 1722 -91 
Q 1428 -91 1123 -41 
Q 819 9 494 109 
L 494 744 
Q 775 591 1075 516 
Q 1375 441 1709 441 
Q 2250 441 2565 725 
Q 2881 1009 2881 1497 
Q 2881 1984 2565 2268 
Q 2250 2553 1709 2553 
Q 1456 2553 1204 2497 
Q 953 2441 691 2322 
L 691 4666 
z
" transform="scale(0.015625)"/>
      </defs>
      <use xlink:href="#DejaVuSans-35"/>
     </g>
    </g>
   </g>
   <g id="text_7">
    <g clip-path="url(#p94854a80b9)">
     <!-- 6 -->
     <g transform="translate(93.380425 124.256363) scale(0.1 -0.1)">
      <defs>
       <path id="DejaVuSans-36" d="M 2113 2584 
Q 1688 2584 1439 2293 
Q 1191 2003 1191 1497 
Q 1191 994 1439 701 
Q 1688 409 2113 409 
Q 2538 409 2786 701 
Q 3034 994 3034 1497 
Q 3034 2003 2786 2293 
Q 2538 2584 2113 2584 
z
M 3366 4563 
L 3366 3988 
Q 3128 4100 2886 4159 
Q 2644 4219 2406 4219 
Q 1781 4219 1451 3797 
Q 1122 3375 1075 2522 
Q 1259 2794 1537 2939 
Q 1816 3084 2150 3084 
Q 2853 3084 3261 2657 
Q 3669 2231 3669 1497 
Q 3669 778 3244 343 
Q 2819 -91 2113 -91 
Q 1303 -91 875 529 
Q 447 1150 447 2328 
Q 447 3434 972 4092 
Q 1497 4750 2381 4750 
Q 2619 4750 2861 4703 
Q 3103 4656 3366 4563 
z
" transform="scale(0.015625)"/>
      </defs>
      <use xlink:href="#DejaVuSans-36"/>
     </g>
    </g>
   </g>
   <g id="text_8">
    <g clip-path="url(#p94854a80b9)">
     <!-- 7 -->
     <g transform="translate(73.429761 274.219112) scale(0.1 -0.1)">
      <defs>
       <path id="DejaVuSans-37" d="M 525 4666 
L 3525 4666 
L 3525 4397 
L 1831 0 
L 1172 0 
L 2766 4134 
L 525 4134 
L 525 4666 
z
" transform="scale(0.015625)"/>
      </defs>
      <use xlink:href="#DejaVuSans-37"/>
     </g>
    </g>
   </g>
   <g id="text_9">
    <g clip-path="url(#p94854a80b9)">
     <!-- 8 -->
     <g transform="translate(36.805527 225.766986) scale(0.1 -0.1)">
      <defs>
       <path id="DejaVuSans-38" d="M 2034 2216 
Q 1584 2216 1326 1975 
Q 1069 1734 1069 1313 
Q 1069 891 1326 650 
Q 1584 409 2034 409 
Q 2484 409 2743 651 
Q 3003 894 3003 1313 
Q 3003 1734 2745 1975 
Q 2488 2216 2034 2216 
z
M 1403 2484 
Q 997 2584 770 2862 
Q 544 3141 544 3541 
Q 544 4100 942 4425 
Q 1341 4750 2034 4750 
Q 2731 4750 3128 4425 
Q 3525 4100 3525 3541 
Q 3525 3141 3298 2862 
Q 3072 2584 2669 2484 
Q 3125 2378 3379 2068 
Q 3634 1759 3634 1313 
Q 3634 634 3220 271 
Q 2806 -91 2034 -91 
Q 1263 -91 848 271 
Q 434 634 434 1313 
Q 434 1759 690 2068 
Q 947 2378 1403 2484 
z
M 1172 3481 
Q 1172 3119 1398 2916 
Q 1625 2713 2034 2713 
Q 2441 2713 2670 2916 
Q 2900 3119 2900 3481 
Q 2900 3844 2670 4047 
Q 2441 4250 2034 4250 
Q 1625 4250 1398 4047 
Q 1172 3844 1172 3481 
z
" transform="scale(0.015625)"/>
      </defs>
      <use xlink:href="#DejaVuSans-38"/>
     </g>
    </g>
   </g>
   <g id="text_10">
    <g clip-path="url(#p94854a80b9)">
     <!-- 9 -->
     <g transform="translate(236.850813 318.369292) scale(0.1 -0.1)">
      <defs>
       <path id="DejaVuSans-39" d="M 703 97 
L 703 672 
Q 941 559 1184 500 
Q 1428 441 1663 441 
Q 2288 441 2617 861 
Q 2947 1281 2994 2138 
Q 2813 1869 2534 1725 
Q 2256 1581 1919 1581 
Q 1219 1581 811 2004 
Q 403 2428 403 3163 
Q 403 3881 828 4315 
Q 1253 4750 1959 4750 
Q 2769 4750 3195 4129 
Q 3622 3509 3622 2328 
Q 3622 1225 3098 567 
Q 2575 -91 1691 -91 
Q 1453 -91 1209 -44 
Q 966 3 703 97 
z
M 1959 2075 
Q 2384 2075 2632 2365 
Q 2881 2656 2881 3163 
Q 2881 3666 2632 3958 
Q 2384 4250 1959 4250 
Q 1534 4250 1286 3958 
Q 1038 3666 1038 3163 
Q 1038 2656 1286 2365 
Q 1534 2075 1959 2075 
z
" transform="scale(0.015625)"/>
      </defs>
      <use xlink:href="#DejaVuSans-39"/>
     </g>
    </g>
   </g>
   <g id="text_11">
    <g clip-path="url(#p94854a80b9)">
     <!-- 10 -->
     <g transform="translate(142.385563 307.727988) scale(0.1 -0.1)">
      <use xlink:href="#DejaVuSans-31"/>
      <use xlink:href="#DejaVuSans-30" x="63.623047"/>
     </g>
    </g>
   </g>
   <g id="text_12">
    <g clip-path="url(#p94854a80b9)">
     <!-- 11 -->
     <g transform="translate(402.18257 159.767846) scale(0.1 -0.1)">
      <use xlink:href="#DejaVuSans-31"/>
      <use xlink:href="#DejaVuSans-31" x="63.623047"/>
     </g>
    </g>
   </g>
   <g id="text_13">
    <g clip-path="url(#p94854a80b9)">
     <!-- 12 -->
     <g transform="translate(386.468647 264.918591) scale(0.1 -0.1)">
      <use xlink:href="#DejaVuSans-31"/>
      <use xlink:href="#DejaVuSans-32" x="63.623047"/>
     </g>
    </g>
   </g>
   <g id="text_14">
    <g clip-path="url(#p94854a80b9)">
     <!-- 13 -->
     <g transform="translate(273.941973 75.852503) scale(0.1 -0.1)">
      <use xlink:href="#DejaVuSans-31"/>
      <use xlink:href="#DejaVuSans-33" x="63.623047"/>
     </g>
    </g>
   </g>
   <g id="text_15">
    <g clip-path="url(#p94854a80b9)">
     <!-- 14 -->
     <g transform="translate(352.338426 111.866594) scale(0.1 -0.1)">
      <use xlink:href="#DejaVuSans-31"/>
      <use xlink:href="#DejaVuSans-34" x="63.623047"/>
     </g>
    </g>
   </g>
  </g>
 </g>
 <defs>
  <clipPath id="p94854a80b9">
   <rect x="0" y="0" width="460.8" height="345.6"/>
  </clipPath>
 </defs>
</svg>
