<?xml version="1.0" encoding="utf-8" standalone="no"?>
<!DOCTYPE svg PUBLIC "-//W3C//DTD SVG 1.1//EN"
  "http://www.w3.org/Graphics/SVG/1.1/DTD/svg11.dtd">
<svg xmlns:xlink="http://www.w3.org/1999/xlink" width="460.8pt" height="345.6pt" viewBox="0 0 460.8 345.6" xmlns="http://www.w3.org/2000/svg" version="1.1">
 <metadata>
  <rdf:RDF xmlns:dc="http://purl.org/dc/elements/1.1/" xmlns:cc="http://creativecommons.org/ns#" xmlns:rdf="http://www.w3.org/1999/02/22-rdf-syntax-ns#">
   <cc:Work>
    <dc:type rdf:resource="http://purl.org/dc/dcmitype/StillImage"/>
    <dc:date>2024-02-07T13:48:27.865556</dc:date>
    <dc:format>image/svg+xml</dc:format>
    <dc:creator>
     <cc:Agent>
      <dc:title>Matplotlib v3.8.0, https://matplotlib.org/</dc:title>
     </cc:Agent>
    </dc:creator>
   </cc:Work>
  </rdf:RDF>
 </metadata>
 <defs>
  <style type="text/css">*{stroke-linejoin: round; stroke-linecap: butt}</style>
 </defs>
 <g id="figure_1">
  <g id="patch_1">
   <path d="M 0 345.6 
L 460.8 345.6 
L 460.8 0 
L 0 0 
z
" style="fill: #ffffff"/>
  </g>
  <g id="axes_1">
   <g id="patch_2">
    <path d="M 194.779073 195.35407 
Q 200.132461 216.292577 205.208907 236.147893 
" clip-path="url(#pb5b0200fb0)" style="fill: none; stroke: #000000; stroke-linecap: round"/>
    <path d="M 206.155762 231.777142 
L 205.208907 236.147893 
L 202.280419 232.767958 
z
" clip-path="url(#pb5b0200fb0)" style="stroke: #000000; stroke-linecap: round"/>
   </g>
   <g id="patch_3">
    <path d="M 192.945279 194.86379 
Q 165.774201 222.624578 139.38516 249.586356 
" clip-path="url(#pb5b0200fb0)" style="fill: none; stroke: #000000; stroke-linecap: round"/>
    <path d="M 143.612375 248.126681 
L 139.38516 249.586356 
L 140.753749 245.328779 
z
" clip-path="url(#pb5b0200fb0)" style="stroke: #000000; stroke-linecap: round"/>
   </g>
   <g id="patch_4">
    <path d="M 194.425529 191.54505 
Q 196.699254 156.535749 198.900521 122.642131 
" clip-path="url(#pb5b0200fb0)" style="fill: none; stroke: #000000; stroke-linecap: round"/>
    <path d="M 196.645486 126.504102 
L 198.900521 122.642131 
L 200.637077 126.763341 
z
" clip-path="url(#pb5b0200fb0)" style="stroke: #000000; stroke-linecap: round"/>
   </g>
   <g id="patch_5">
    <path d="M 192.805981 194.715568 
Q 180.966833 204.509102 169.989169 213.590002 
" clip-path="url(#pb5b0200fb0)" style="fill: none; stroke: #000000; stroke-linecap: round"/>
    <path d="M 174.346103 212.581477 
L 169.989169 213.590002 
L 171.796509 209.49934 
z
" clip-path="url(#pb5b0200fb0)" style="stroke: #000000; stroke-linecap: round"/>
   </g>
   <g id="patch_6">
    <path d="M 195.934344 192.439378 
Q 224.939594 173.97617 253.001681 156.113331 
" clip-path="url(#pb5b0200fb0)" style="fill: none; stroke: #000000; stroke-linecap: round"/>
    <path d="M 248.553344 156.574091 
L 253.001681 156.113331 
L 250.701286 159.948456 
z
" clip-path="url(#pb5b0200fb0)" style="stroke: #000000; stroke-linecap: round"/>
   </g>
   <g id="patch_7">
    <path d="M 205.486648 237.234212 
Q 200.133261 216.295705 195.056815 196.440389 
" clip-path="url(#pb5b0200fb0)" style="fill: none; stroke: #000000; stroke-linecap: round"/>
    <path d="M 194.109959 200.81114 
L 195.056815 196.440389 
L 197.985302 199.820324 
z
" clip-path="url(#pb5b0200fb0)" style="stroke: #000000; stroke-linecap: round"/>
   </g>
   <g id="patch_8">
    <path d="M 162.316726 124.024161 
Q 179.744643 121.923024 196.062563 119.95571 
" clip-path="url(#pb5b0200fb0)" style="fill: none; stroke: #000000; stroke-linecap: round"/>
    <path d="M 191.851931 118.448867 
L 196.062563 119.95571 
L 192.33071 122.42011 
z
" clip-path="url(#pb5b0200fb0)" style="stroke: #000000; stroke-linecap: round"/>
   </g>
   <g id="patch_9">
    <path d="M 222.30239 87.99386 
Q 211.274155 103.010736 200.907703 117.126478 
" clip-path="url(#pb5b0200fb0)" style="fill: none; stroke: #000000; stroke-linecap: round"/>
    <path d="M 204.887369 115.086316 
L 200.907703 117.126478 
L 201.663373 112.718648 
z
" clip-path="url(#pb5b0200fb0)" style="stroke: #000000; stroke-linecap: round"/>
   </g>
   <g id="patch_10">
    <path d="M 138.601288 250.38724 
Q 165.772367 222.626452 192.161408 195.664674 
" clip-path="url(#pb5b0200fb0)" style="fill: none; stroke: #000000; stroke-linecap: round"/>
    <path d="M 187.934193 197.12435 
L 192.161408 195.664674 
L 190.792819 199.922252 
z
" clip-path="url(#pb5b0200fb0)" style="stroke: #000000; stroke-linecap: round"/>
   </g>
   <g id="patch_11">
    <path d="M 135.5095 252.619739 
Q 108.613476 265.756664 82.722058 278.402905 
" clip-path="url(#pb5b0200fb0)" style="fill: none; stroke: #000000; stroke-linecap: round"/>
    <path d="M 87.194 278.444477 
L 82.722058 278.402905 
L 85.43848 274.850294 
z
" clip-path="url(#pb5b0200fb0)" style="stroke: #000000; stroke-linecap: round"/>
   </g>
   <g id="patch_12">
    <path d="M 137.319689 253.708519 
Q 138.130036 275.214851 138.898285 295.603942 
" clip-path="url(#pb5b0200fb0)" style="fill: none; stroke: #000000; stroke-linecap: round"/>
    <path d="M 140.746256 291.531473 
L 138.898285 295.603942 
L 136.749092 291.682084 
z
" clip-path="url(#pb5b0200fb0)" style="stroke: #000000; stroke-linecap: round"/>
   </g>
   <g id="patch_13">
    <path d="M 81.715921 278.894337 
Q 108.611944 265.757412 134.503363 253.11117 
" clip-path="url(#pb5b0200fb0)" style="fill: none; stroke: #000000; stroke-linecap: round"/>
    <path d="M 130.03142 253.069599 
L 134.503363 253.11117 
L 131.78694 256.663782 
z
" clip-path="url(#pb5b0200fb0)" style="stroke: #000000; stroke-linecap: round"/>
   </g>
   <g id="patch_14">
    <path d="M 78.060168 279.470771 
Q 59.983208 276.907291 43.013207 274.500787 
" clip-path="url(#pb5b0200fb0)" style="fill: none; stroke: #000000; stroke-linecap: round"/>
    <path d="M 46.692775 277.042594 
L 43.013207 274.500787 
L 47.254393 273.082217 
z
" clip-path="url(#pb5b0200fb0)" style="stroke: #000000; stroke-linecap: round"/>
   </g>
   <g id="patch_15">
    <path d="M 78.76791 281.255545 
Q 65.623797 297.676826 53.178344 313.225253 
" clip-path="url(#pb5b0200fb0)" style="fill: none; stroke: #000000; stroke-linecap: round"/>
    <path d="M 57.239354 311.352236 
L 53.178344 313.225253 
L 54.116537 308.852634 
z
" clip-path="url(#pb5b0200fb0)" style="stroke: #000000; stroke-linecap: round"/>
   </g>
   <g id="patch_16">
    <path d="M 169.131508 214.299473 
Q 180.970656 204.505939 191.94832 195.425039 
" clip-path="url(#pb5b0200fb0)" style="fill: none; stroke: #000000; stroke-linecap: round"/>
    <path d="M 187.591386 196.433564 
L 191.94832 195.425039 
L 190.14098 199.515701 
z
" clip-path="url(#pb5b0200fb0)" style="stroke: #000000; stroke-linecap: round"/>
   </g>
   <g id="patch_17">
    <path d="M 138.94026 296.717947 
Q 138.129914 275.211615 137.361664 254.822524 
" clip-path="url(#pb5b0200fb0)" style="fill: none; stroke: #000000; stroke-linecap: round"/>
    <path d="M 135.513693 258.894993 
L 137.361664 254.822524 
L 139.510857 258.744382 
z
" clip-path="url(#pb5b0200fb0)" style="stroke: #000000; stroke-linecap: round"/>
   </g>
   <g id="patch_18">
    <path d="M 41.905336 274.343681 
Q 59.982296 276.907161 76.952297 279.313665 
" clip-path="url(#pb5b0200fb0)" style="fill: none; stroke: #000000; stroke-linecap: round"/>
    <path d="M 73.272729 276.771858 
L 76.952297 279.313665 
L 72.711111 280.732235 
z
" clip-path="url(#pb5b0200fb0)" style="stroke: #000000; stroke-linecap: round"/>
   </g>
   <g id="patch_19">
    <path d="M 52.480399 314.097213 
Q 65.624513 297.675932 78.069966 282.127505 
" clip-path="url(#pb5b0200fb0)" style="fill: none; stroke: #000000; stroke-linecap: round"/>
    <path d="M 74.008955 284.000521 
L 78.069966 282.127505 
L 77.131773 286.500124 
z
" clip-path="url(#pb5b0200fb0)" style="stroke: #000000; stroke-linecap: round"/>
   </g>
   <g id="patch_20">
    <path d="M 160.855744 93.17728 
Q 179.180137 105.832943 196.584576 117.853245 
" clip-path="url(#pb5b0200fb0)" style="fill: none; stroke: #000000; stroke-linecap: round"/>
    <path d="M 194.42982 113.934441 
L 196.584576 117.853245 
L 192.156679 117.225767 
z
" clip-path="url(#pb5b0200fb0)" style="stroke: #000000; stroke-linecap: round"/>
   </g>
   <g id="patch_21">
    <path d="M 375.576834 149.986889 
Q 356.835294 141.718492 339.116661 133.901382 
" clip-path="url(#pb5b0200fb0)" style="fill: none; stroke: #000000; stroke-linecap: round"/>
    <path d="M 341.969041 137.345787 
L 339.116661 133.901382 
L 343.583614 133.686121 
z
" clip-path="url(#pb5b0200fb0)" style="stroke: #000000; stroke-linecap: round"/>
   </g>
   <g id="patch_22">
    <path d="M 356.041557 172.762015 
Q 346.610237 153.585432 337.672336 135.412111 
" clip-path="url(#pb5b0200fb0)" style="fill: none; stroke: #000000; stroke-linecap: round"/>
    <path d="M 337.642955 139.884151 
L 337.672336 135.412111 
L 341.232339 138.11884 
z
" clip-path="url(#pb5b0200fb0)" style="stroke: #000000; stroke-linecap: round"/>
   </g>
   <g id="patch_23">
    <path d="M 198.973113 121.524405 
Q 196.699387 156.533707 194.498121 190.427324 
" clip-path="url(#pb5b0200fb0)" style="fill: none; stroke: #000000; stroke-linecap: round"/>
    <path d="M 196.753155 186.565353 
L 194.498121 190.427324 
L 192.761565 186.306114 
z
" clip-path="url(#pb5b0200fb0)" style="stroke: #000000; stroke-linecap: round"/>
   </g>
   <g id="patch_24">
    <path d="M 197.175801 119.821496 
Q 179.747885 121.922633 163.429964 123.889947 
" clip-path="url(#pb5b0200fb0)" style="fill: none; stroke: #000000; stroke-linecap: round"/>
    <path d="M 167.640597 125.396789 
L 163.429964 123.889947 
L 167.161818 121.425546 
z
" clip-path="url(#pb5b0200fb0)" style="stroke: #000000; stroke-linecap: round"/>
   </g>
   <g id="patch_25">
    <path d="M 200.244607 118.029399 
Q 211.272842 103.012523 221.639295 88.896781 
" clip-path="url(#pb5b0200fb0)" style="fill: none; stroke: #000000; stroke-linecap: round"/>
    <path d="M 217.659629 90.936942 
L 221.639295 88.896781 
L 220.883624 93.30461 
z
" clip-path="url(#pb5b0200fb0)" style="stroke: #000000; stroke-linecap: round"/>
   </g>
   <g id="patch_26">
    <path d="M 197.50622 118.489774 
Q 179.181827 105.83411 161.777388 93.813809 
" clip-path="url(#pb5b0200fb0)" style="fill: none; stroke: #000000; stroke-linecap: round"/>
    <path d="M 163.932144 97.732613 
L 161.777388 93.813809 
L 166.205285 94.441286 
z
" clip-path="url(#pb5b0200fb0)" style="stroke: #000000; stroke-linecap: round"/>
   </g>
   <g id="patch_27">
    <path d="M 198.293112 117.825219 
Q 188.152938 95.61755 178.477146 74.42691 
" clip-path="url(#pb5b0200fb0)" style="fill: none; stroke: #000000; stroke-linecap: round"/>
    <path d="M 178.319254 78.896258 
L 178.477146 74.42691 
L 181.957889 77.234832 
z
" clip-path="url(#pb5b0200fb0)" style="stroke: #000000; stroke-linecap: round"/>
   </g>
   <g id="patch_28">
    <path d="M 200.743132 120.605231 
Q 227.336247 137.029321 252.978125 152.86592 
" clip-path="url(#pb5b0200fb0)" style="fill: none; stroke: #000000; stroke-linecap: round"/>
    <path d="M 250.625808 149.062421 
L 252.978125 152.86592 
L 248.523935 152.465674 
z
" clip-path="url(#pb5b0200fb0)" style="stroke: #000000; stroke-linecap: round"/>
   </g>
   <g id="patch_29">
    <path d="M 199.193044 117.658183 
Q 200.405574 92.816788 201.563597 69.092097 
" clip-path="url(#pb5b0200fb0)" style="fill: none; stroke: #000000; stroke-linecap: round"/>
    <path d="M 199.370964 72.989835 
L 201.563597 69.092097 
L 203.366208 73.184847 
z
" clip-path="url(#pb5b0200fb0)" style="stroke: #000000; stroke-linecap: round"/>
   </g>
   <g id="patch_30">
    <path d="M 178.014103 73.412815 
Q 188.154277 95.620484 197.830069 116.811124 
" clip-path="url(#pb5b0200fb0)" style="fill: none; stroke: #000000; stroke-linecap: round"/>
    <path d="M 197.98796 112.341776 
L 197.830069 116.811124 
L 194.349325 114.003202 
z
" clip-path="url(#pb5b0200fb0)" style="stroke: #000000; stroke-linecap: round"/>
   </g>
   <g id="patch_31">
    <path d="M 338.093476 133.449972 
Q 356.835017 141.71837 374.553649 149.53548 
" clip-path="url(#pb5b0200fb0)" style="fill: none; stroke: #000000; stroke-linecap: round"/>
    <path d="M 371.701269 146.091075 
L 374.553649 149.53548 
L 370.086697 149.750741 
z
" clip-path="url(#pb5b0200fb0)" style="stroke: #000000; stroke-linecap: round"/>
   </g>
   <g id="patch_32">
    <path d="M 337.178355 134.407706 
Q 346.609675 153.58429 355.547576 171.75761 
" clip-path="url(#pb5b0200fb0)" style="fill: none; stroke: #000000; stroke-linecap: round"/>
    <path d="M 355.576957 167.28557 
L 355.547576 171.75761 
L 351.987573 169.050881 
z
" clip-path="url(#pb5b0200fb0)" style="stroke: #000000; stroke-linecap: round"/>
   </g>
   <g id="patch_33">
    <path d="M 338.020751 131.744771 
Q 351.536102 124.386505 364.069515 117.562843 
" clip-path="url(#pb5b0200fb0)" style="fill: none; stroke: #000000; stroke-linecap: round"/>
    <path d="M 359.600105 117.718956 
L 364.069515 117.562843 
L 361.51276 121.232039 
z
" clip-path="url(#pb5b0200fb0)" style="stroke: #000000; stroke-linecap: round"/>
   </g>
   <g id="patch_34">
    <path d="M 337.542965 131.164055 
Q 359.084497 104.586209 379.922048 78.876931 
" clip-path="url(#pb5b0200fb0)" style="fill: none; stroke: #000000; stroke-linecap: round"/>
    <path d="M 375.849667 80.725096 
L 379.922048 78.876931 
L 378.957152 83.243734 
z
" clip-path="url(#pb5b0200fb0)" style="stroke: #000000; stroke-linecap: round"/>
   </g>
   <g id="patch_35">
    <path d="M 334.452964 133.174002 
Q 295.952519 143.570403 258.531447 153.675338 
" clip-path="url(#pb5b0200fb0)" style="fill: none; stroke: #000000; stroke-linecap: round"/>
    <path d="M 262.914523 154.563397 
L 258.531447 153.675338 
L 261.87174 150.701713 
z
" clip-path="url(#pb5b0200fb0)" style="stroke: #000000; stroke-linecap: round"/>
   </g>
   <g id="patch_36">
    <path d="M 365.054957 117.026331 
Q 351.539607 124.384597 339.006193 131.208259 
" clip-path="url(#pb5b0200fb0)" style="fill: none; stroke: #000000; stroke-linecap: round"/>
    <path d="M 343.475604 131.052146 
L 339.006193 131.208259 
L 341.562949 127.539063 
z
" clip-path="url(#pb5b0200fb0)" style="stroke: #000000; stroke-linecap: round"/>
   </g>
   <g id="patch_37">
    <path d="M 380.625794 78.008651 
Q 359.084262 104.586497 338.246711 130.295775 
" clip-path="url(#pb5b0200fb0)" style="fill: none; stroke: #000000; stroke-linecap: round"/>
    <path d="M 342.319092 128.44761 
L 338.246711 130.295775 
L 339.211607 125.928971 
z
" clip-path="url(#pb5b0200fb0)" style="stroke: #000000; stroke-linecap: round"/>
   </g>
   <g id="patch_38">
    <path d="M 382.374484 74.638534 
Q 388.441404 53.244938 394.203293 32.926962 
" clip-path="url(#pb5b0200fb0)" style="fill: none; stroke: #000000; stroke-linecap: round"/>
    <path d="M 391.187857 36.229559 
L 394.203293 32.926962 
L 395.036109 37.320869 
z
" clip-path="url(#pb5b0200fb0)" style="stroke: #000000; stroke-linecap: round"/>
   </g>
   <g id="patch_39">
    <path d="M 383.588905 75.665768 
Q 401.327483 67.139537 418.058388 59.097654 
" clip-path="url(#pb5b0200fb0)" style="fill: none; stroke: #000000; stroke-linecap: round"/>
    <path d="M 413.586795 59.027931 
L 418.058388 59.097654 
L 415.319654 62.633094 
z
" clip-path="url(#pb5b0200fb0)" style="stroke: #000000; stroke-linecap: round"/>
   </g>
   <g id="patch_40">
    <path d="M 394.507205 31.855285 
Q 388.440286 53.24888 382.678396 73.566856 
" clip-path="url(#pb5b0200fb0)" style="fill: none; stroke: #000000; stroke-linecap: round"/>
    <path d="M 385.693832 70.264259 
L 382.678396 73.566856 
L 381.84558 69.172949 
z
" clip-path="url(#pb5b0200fb0)" style="stroke: #000000; stroke-linecap: round"/>
   </g>
   <g id="patch_41">
    <path d="M 419.069857 58.61148 
Q 401.331279 67.137712 384.600375 75.179595 
" clip-path="url(#pb5b0200fb0)" style="fill: none; stroke: #000000; stroke-linecap: round"/>
    <path d="M 389.071967 75.249318 
L 384.600375 75.179595 
L 387.339108 71.644155 
z
" clip-path="url(#pb5b0200fb0)" style="stroke: #000000; stroke-linecap: round"/>
   </g>
   <g id="patch_42">
    <path d="M 276.844516 186.89306 
Q 266.74281 171.492101 257.2543 157.026016 
" clip-path="url(#pb5b0200fb0)" style="fill: none; stroke: #000000; stroke-linecap: round"/>
    <path d="M 257.775787 161.467643 
L 257.2543 157.026016 
L 261.120494 159.273803 
z
" clip-path="url(#pb5b0200fb0)" style="stroke: #000000; stroke-linecap: round"/>
   </g>
   <g id="patch_43">
    <path d="M 253.944935 155.512905 
Q 224.939685 173.976113 196.877598 191.838953 
" clip-path="url(#pb5b0200fb0)" style="fill: none; stroke: #000000; stroke-linecap: round"/>
    <path d="M 201.325935 191.378193 
L 196.877598 191.838953 
L 199.177992 188.003827 
z
" clip-path="url(#pb5b0200fb0)" style="stroke: #000000; stroke-linecap: round"/>
   </g>
   <g id="patch_44">
    <path d="M 253.93504 153.456917 
Q 227.341925 137.032827 201.700047 121.196228 
" clip-path="url(#pb5b0200fb0)" style="fill: none; stroke: #000000; stroke-linecap: round"/>
    <path d="M 204.052364 124.999727 
L 201.700047 121.196228 
L 206.154237 121.596474 
z
" clip-path="url(#pb5b0200fb0)" style="stroke: #000000; stroke-linecap: round"/>
   </g>
   <g id="patch_45">
    <path d="M 257.449661 153.967457 
Q 295.950106 143.571055 333.371177 133.46612 
" clip-path="url(#pb5b0200fb0)" style="fill: none; stroke: #000000; stroke-linecap: round"/>
    <path d="M 328.988102 132.578061 
L 333.371177 133.46612 
L 330.030885 136.439745 
z
" clip-path="url(#pb5b0200fb0)" style="stroke: #000000; stroke-linecap: round"/>
   </g>
   <g id="patch_46">
    <path d="M 256.639526 156.088739 
Q 266.741233 171.489698 276.229743 185.955783 
" clip-path="url(#pb5b0200fb0)" style="fill: none; stroke: #000000; stroke-linecap: round"/>
    <path d="M 275.708256 181.514156 
L 276.229743 185.955783 
L 272.363549 183.707996 
z
" clip-path="url(#pb5b0200fb0)" style="stroke: #000000; stroke-linecap: round"/>
   </g>
   <g id="patch_47">
    <path d="M 201.618087 67.975759 
Q 200.405557 92.817154 199.247534 116.541845 
" clip-path="url(#pb5b0200fb0)" style="fill: none; stroke: #000000; stroke-linecap: round"/>
    <path d="M 201.440167 112.644107 
L 199.247534 116.541845 
L 197.444923 112.449095 
z
" clip-path="url(#pb5b0200fb0)" style="stroke: #000000; stroke-linecap: round"/>
   </g>
   <g id="PathCollection_1">
    <defs>
     <path id="mb75f0adbcb" d="M 0 1.936492 
C 0.513564 1.936492 1.006162 1.732451 1.369306 1.369306 
C 1.732451 1.006162 1.936492 0.513564 1.936492 0 
C 1.936492 -0.513564 1.732451 -1.006162 1.369306 -1.369306 
C 1.006162 -1.732451 0.513564 -1.936492 0 -1.936492 
C -0.513564 -1.936492 -1.006162 -1.732451 -1.369306 -1.369306 
C -1.732451 -1.006162 -1.936492 -0.513564 -1.936492 0 
C -1.936492 0.513564 -1.732451 1.006162 -1.369306 1.369306 
C -1.006162 1.732451 -0.513564 1.936492 0 1.936492 
z
" style="stroke: #1f78b4"/>
    </defs>
    <g clip-path="url(#pb5b0200fb0)">
     <use xlink:href="#mb75f0adbcb" x="194.299874" y="193.479795" style="fill: #1f78b4; stroke: #1f78b4"/>
     <use xlink:href="#mb75f0adbcb" x="205.965847" y="239.108486" style="fill: #1f78b4; stroke: #1f78b4"/>
     <use xlink:href="#mb75f0adbcb" x="160.39376" y="124.255997" style="fill: #1f78b4; stroke: #1f78b4"/>
     <use xlink:href="#mb75f0adbcb" x="223.44823" y="86.433598" style="fill: #1f78b4; stroke: #1f78b4"/>
     <use xlink:href="#mb75f0adbcb" x="137.246693" y="251.771235" style="fill: #1f78b4; stroke: #1f78b4"/>
     <use xlink:href="#mb75f0adbcb" x="79.978727" y="279.74284" style="fill: #1f78b4; stroke: #1f78b4"/>
     <use xlink:href="#mb75f0adbcb" x="167.637615" y="215.535246" style="fill: #1f78b4; stroke: #1f78b4"/>
     <use xlink:href="#mb75f0adbcb" x="139.013256" y="298.655231" style="fill: #1f78b4; stroke: #1f78b4"/>
     <use xlink:href="#mb75f0adbcb" x="39.986777" y="274.071611" style="fill: #1f78b4; stroke: #1f78b4"/>
     <use xlink:href="#mb75f0adbcb" x="51.269583" y="315.609917" style="fill: #1f78b4; stroke: #1f78b4"/>
     <use xlink:href="#mb75f0adbcb" x="159.263196" y="92.077394" style="fill: #1f78b4; stroke: #1f78b4"/>
     <use xlink:href="#mb75f0adbcb" x="377.347091" y="150.767891" style="fill: #1f78b4; stroke: #1f78b4"/>
     <use xlink:href="#mb75f0adbcb" x="356.896692" y="174.500751" style="fill: #1f78b4; stroke: #1f78b4"/>
     <use xlink:href="#mb75f0adbcb" x="199.098767" y="119.58966" style="fill: #1f78b4; stroke: #1f78b4"/>
     <use xlink:href="#mb75f0adbcb" x="177.208448" y="71.648374" style="fill: #1f78b4; stroke: #1f78b4"/>
     <use xlink:href="#mb75f0adbcb" x="336.32322" y="132.66897" style="fill: #1f78b4; stroke: #1f78b4"/>
     <use xlink:href="#mb75f0adbcb" x="366.752488" y="116.102131" style="fill: #1f78b4; stroke: #1f78b4"/>
     <use xlink:href="#mb75f0adbcb" x="381.845539" y="76.503736" style="fill: #1f78b4; stroke: #1f78b4"/>
     <use xlink:href="#mb75f0adbcb" x="395.03615" y="29.990083" style="fill: #1f78b4; stroke: #1f78b4"/>
     <use xlink:href="#mb75f0adbcb" x="420.813223" y="57.773513" style="fill: #1f78b4; stroke: #1f78b4"/>
     <use xlink:href="#mb75f0adbcb" x="277.904638" y="188.509311" style="fill: #1f78b4; stroke: #1f78b4"/>
     <use xlink:href="#mb75f0adbcb" x="255.579405" y="154.472488" style="fill: #1f78b4; stroke: #1f78b4"/>
     <use xlink:href="#mb75f0adbcb" x="201.712364" y="66.044282" style="fill: #1f78b4; stroke: #1f78b4"/>
    </g>
   </g>
   <g id="text_1">
    <g clip-path="url(#pb5b0200fb0)">
     <!-- 0 -->
     <g transform="translate(191.118624 196.23917) scale(0.1 -0.1)">
      <defs>
       <path id="DejaVuSans-30" d="M 2034 4250 
Q 1547 4250 1301 3770 
Q 1056 3291 1056 2328 
Q 1056 1369 1301 889 
Q 1547 409 2034 409 
Q 2525 409 2770 889 
Q 3016 1369 3016 2328 
Q 3016 3291 2770 3770 
Q 2525 4250 2034 4250 
z
M 2034 4750 
Q 2819 4750 3233 4129 
Q 3647 3509 3647 2328 
Q 3647 1150 3233 529 
Q 2819 -91 2034 -91 
Q 1250 -91 836 529 
Q 422 1150 422 2328 
Q 422 3509 836 4129 
Q 1250 4750 2034 4750 
z
" transform="scale(0.015625)"/>
      </defs>
      <use xlink:href="#DejaVuSans-30"/>
     </g>
    </g>
   </g>
   <g id="text_2">
    <g clip-path="url(#pb5b0200fb0)">
     <!-- 1 -->
     <g transform="translate(202.784597 241.867861) scale(0.1 -0.1)">
      <defs>
       <path id="DejaVuSans-31" d="M 794 531 
L 1825 531 
L 1825 4091 
L 703 3866 
L 703 4441 
L 1819 4666 
L 2450 4666 
L 2450 531 
L 3481 531 
L 3481 0 
L 794 0 
L 794 531 
z
" transform="scale(0.015625)"/>
      </defs>
      <use xlink:href="#DejaVuSans-31"/>
     </g>
    </g>
   </g>
   <g id="text_3">
    <g clip-path="url(#pb5b0200fb0)">
     <!-- 2 -->
     <g transform="translate(157.21251 127.015372) scale(0.1 -0.1)">
      <defs>
       <path id="DejaVuSans-32" d="M 1228 531 
L 3431 531 
L 3431 0 
L 469 0 
L 469 531 
Q 828 903 1448 1529 
Q 2069 2156 2228 2338 
Q 2531 2678 2651 2914 
Q 2772 3150 2772 3378 
Q 2772 3750 2511 3984 
Q 2250 4219 1831 4219 
Q 1534 4219 1204 4116 
Q 875 4013 500 3803 
L 500 4441 
Q 881 4594 1212 4672 
Q 1544 4750 1819 4750 
Q 2544 4750 2975 4387 
Q 3406 4025 3406 3419 
Q 3406 3131 3298 2873 
Q 3191 2616 2906 2266 
Q 2828 2175 2409 1742 
Q 1991 1309 1228 531 
z
" transform="scale(0.015625)"/>
      </defs>
      <use xlink:href="#DejaVuSans-32"/>
     </g>
    </g>
   </g>
   <g id="text_4">
    <g clip-path="url(#pb5b0200fb0)">
     <!-- 3 -->
     <g transform="translate(220.26698 89.192973) scale(0.1 -0.1)">
      <defs>
       <path id="DejaVuSans-33" d="M 2597 2516 
Q 3050 2419 3304 2112 
Q 3559 1806 3559 1356 
Q 3559 666 3084 287 
Q 2609 -91 1734 -91 
Q 1441 -91 1130 -33 
Q 819 25 488 141 
L 488 750 
Q 750 597 1062 519 
Q 1375 441 1716 441 
Q 2309 441 2620 675 
Q 2931 909 2931 1356 
Q 2931 1769 2642 2001 
Q 2353 2234 1838 2234 
L 1294 2234 
L 1294 2753 
L 1863 2753 
Q 2328 2753 2575 2939 
Q 2822 3125 2822 3475 
Q 2822 3834 2567 4026 
Q 2313 4219 1838 4219 
Q 1578 4219 1281 4162 
Q 984 4106 628 3988 
L 628 4550 
Q 988 4650 1302 4700 
Q 1616 4750 1894 4750 
Q 2613 4750 3031 4423 
Q 3450 4097 3450 3541 
Q 3450 3153 3228 2886 
Q 3006 2619 2597 2516 
z
" transform="scale(0.015625)"/>
      </defs>
      <use xlink:href="#DejaVuSans-33"/>
     </g>
    </g>
   </g>
   <g id="text_5">
    <g clip-path="url(#pb5b0200fb0)">
     <!-- 4 -->
     <g transform="translate(134.065443 254.53061) scale(0.1 -0.1)">
      <defs>
       <path id="DejaVuSans-34" d="M 2419 4116 
L 825 1625 
L 2419 1625 
L 2419 4116 
z
M 2253 4666 
L 3047 4666 
L 3047 1625 
L 3713 1625 
L 3713 1100 
L 3047 1100 
L 3047 0 
L 2419 0 
L 2419 1100 
L 313 1100 
L 313 1709 
L 2253 4666 
z
" transform="scale(0.015625)"/>
      </defs>
      <use xlink:href="#DejaVuSans-34"/>
     </g>
    </g>
   </g>
   <g id="text_6">
    <g clip-path="url(#pb5b0200fb0)">
     <!-- 5 -->
     <g transform="translate(76.797477 282.502215) scale(0.1 -0.1)">
      <defs>
       <path id="DejaVuSans-35" d="M 691 4666 
L 3169 4666 
L 3169 4134 
L 1269 4134 
L 1269 2991 
Q 1406 3038 1543 3061 
Q 1681 3084 1819 3084 
Q 2600 3084 3056 2656 
Q 3513 2228 3513 1497 
Q 3513 744 3044 326 
Q 2575 -91 1722 -91 
Q 1428 -91 1123 -41 
Q 819 9 494 109 
L 494 744 
Q 775 591 1075 516 
Q 1375 441 1709 441 
Q 2250 441 2565 725 
Q 2881 1009 2881 1497 
Q 2881 1984 2565 2268 
Q 2250 2553 1709 2553 
Q 1456 2553 1204 2497 
Q 953 2441 691 2322 
L 691 4666 
z
" transform="scale(0.015625)"/>
      </defs>
      <use xlink:href="#DejaVuSans-35"/>
     </g>
    </g>
   </g>
   <g id="text_7">
    <g clip-path="url(#pb5b0200fb0)">
     <!-- 6 -->
     <g transform="translate(164.456365 218.294621) scale(0.1 -0.1)">
      <defs>
       <path id="DejaVuSans-36" d="M 2113 2584 
Q 1688 2584 1439 2293 
Q 1191 2003 1191 1497 
Q 1191 994 1439 701 
Q 1688 409 2113 409 
Q 2538 409 2786 701 
Q 3034 994 3034 1497 
Q 3034 2003 2786 2293 
Q 2538 2584 2113 2584 
z
M 3366 4563 
L 3366 3988 
Q 3128 4100 2886 4159 
Q 2644 4219 2406 4219 
Q 1781 4219 1451 3797 
Q 1122 3375 1075 2522 
Q 1259 2794 1537 2939 
Q 1816 3084 2150 3084 
Q 2853 3084 3261 2657 
Q 3669 2231 3669 1497 
Q 3669 778 3244 343 
Q 2819 -91 2113 -91 
Q 1303 -91 875 529 
Q 447 1150 447 2328 
Q 447 3434 972 4092 
Q 1497 4750 2381 4750 
Q 2619 4750 2861 4703 
Q 3103 4656 3366 4563 
z
" transform="scale(0.015625)"/>
      </defs>
      <use xlink:href="#DejaVuSans-36"/>
     </g>
    </g>
   </g>
   <g id="text_8">
    <g clip-path="url(#pb5b0200fb0)">
     <!-- 7 -->
     <g transform="translate(135.832006 301.414606) scale(0.1 -0.1)">
      <defs>
       <path id="DejaVuSans-37" d="M 525 4666 
L 3525 4666 
L 3525 4397 
L 1831 0 
L 1172 0 
L 2766 4134 
L 525 4134 
L 525 4666 
z
" transform="scale(0.015625)"/>
      </defs>
      <use xlink:href="#DejaVuSans-37"/>
     </g>
    </g>
   </g>
   <g id="text_9">
    <g clip-path="url(#pb5b0200fb0)">
     <!-- 8 -->
     <g transform="translate(36.805527 276.830986) scale(0.1 -0.1)">
      <defs>
       <path id="DejaVuSans-38" d="M 2034 2216 
Q 1584 2216 1326 1975 
Q 1069 1734 1069 1313 
Q 1069 891 1326 650 
Q 1584 409 2034 409 
Q 2484 409 2743 651 
Q 3003 894 3003 1313 
Q 3003 1734 2745 1975 
Q 2488 2216 2034 2216 
z
M 1403 2484 
Q 997 2584 770 2862 
Q 544 3141 544 3541 
Q 544 4100 942 4425 
Q 1341 4750 2034 4750 
Q 2731 4750 3128 4425 
Q 3525 4100 3525 3541 
Q 3525 3141 3298 2862 
Q 3072 2584 2669 2484 
Q 3125 2378 3379 2068 
Q 3634 1759 3634 1313 
Q 3634 634 3220 271 
Q 2806 -91 2034 -91 
Q 1263 -91 848 271 
Q 434 634 434 1313 
Q 434 1759 690 2068 
Q 947 2378 1403 2484 
z
M 1172 3481 
Q 1172 3119 1398 2916 
Q 1625 2713 2034 2713 
Q 2441 2713 2670 2916 
Q 2900 3119 2900 3481 
Q 2900 3844 2670 4047 
Q 2441 4250 2034 4250 
Q 1625 4250 1398 4047 
Q 1172 3844 1172 3481 
z
" transform="scale(0.015625)"/>
      </defs>
      <use xlink:href="#DejaVuSans-38"/>
     </g>
    </g>
   </g>
   <g id="text_10">
    <g clip-path="url(#pb5b0200fb0)">
     <!-- 9 -->
     <g transform="translate(48.088333 318.369292) scale(0.1 -0.1)">
      <defs>
       <path id="DejaVuSans-39" d="M 703 97 
L 703 672 
Q 941 559 1184 500 
Q 1428 441 1663 441 
Q 2288 441 2617 861 
Q 2947 1281 2994 2138 
Q 2813 1869 2534 1725 
Q 2256 1581 1919 1581 
Q 1219 1581 811 2004 
Q 403 2428 403 3163 
Q 403 3881 828 4315 
Q 1253 4750 1959 4750 
Q 2769 4750 3195 4129 
Q 3622 3509 3622 2328 
Q 3622 1225 3098 567 
Q 2575 -91 1691 -91 
Q 1453 -91 1209 -44 
Q 966 3 703 97 
z
M 1959 2075 
Q 2384 2075 2632 2365 
Q 2881 2656 2881 3163 
Q 2881 3666 2632 3958 
Q 2384 4250 1959 4250 
Q 1534 4250 1286 3958 
Q 1038 3666 1038 3163 
Q 1038 2656 1286 2365 
Q 1534 2075 1959 2075 
z
" transform="scale(0.015625)"/>
      </defs>
      <use xlink:href="#DejaVuSans-39"/>
     </g>
    </g>
   </g>
   <g id="text_11">
    <g clip-path="url(#pb5b0200fb0)">
     <!-- 10 -->
     <g transform="translate(152.900696 94.836769) scale(0.1 -0.1)">
      <use xlink:href="#DejaVuSans-31"/>
      <use xlink:href="#DejaVuSans-30" x="63.623047"/>
     </g>
    </g>
   </g>
   <g id="text_12">
    <g clip-path="url(#pb5b0200fb0)">
     <!-- 11 -->
     <g transform="translate(370.984591 153.527266) scale(0.1 -0.1)">
      <use xlink:href="#DejaVuSans-31"/>
      <use xlink:href="#DejaVuSans-31" x="63.623047"/>
     </g>
    </g>
   </g>
   <g id="text_13">
    <g clip-path="url(#pb5b0200fb0)">
     <!-- 12 -->
     <g transform="translate(350.534192 177.260126) scale(0.1 -0.1)">
      <use xlink:href="#DejaVuSans-31"/>
      <use xlink:href="#DejaVuSans-32" x="63.623047"/>
     </g>
    </g>
   </g>
   <g id="text_14">
    <g clip-path="url(#pb5b0200fb0)">
     <!-- 13 -->
     <g transform="translate(192.736267 122.349035) scale(0.1 -0.1)">
      <use xlink:href="#DejaVuSans-31"/>
      <use xlink:href="#DejaVuSans-33" x="63.623047"/>
     </g>
    </g>
   </g>
   <g id="text_15">
    <g clip-path="url(#pb5b0200fb0)">
     <!-- 14 -->
     <g transform="translate(170.845948 74.407749) scale(0.1 -0.1)">
      <use xlink:href="#DejaVuSans-31"/>
      <use xlink:href="#DejaVuSans-34" x="63.623047"/>
     </g>
    </g>
   </g>
   <g id="text_16">
    <g clip-path="url(#pb5b0200fb0)">
     <!-- 15 -->
     <g transform="translate(329.96072 135.428345) scale(0.1 -0.1)">
      <use xlink:href="#DejaVuSans-31"/>
      <use xlink:href="#DejaVuSans-35" x="63.623047"/>
     </g>
    </g>
   </g>
   <g id="text_17">
    <g clip-path="url(#pb5b0200fb0)">
     <!-- 16 -->
     <g transform="translate(360.389988 118.861506) scale(0.1 -0.1)">
      <use xlink:href="#DejaVuSans-31"/>
      <use xlink:href="#DejaVuSans-36" x="63.623047"/>
     </g>
    </g>
   </g>
   <g id="text_18">
    <g clip-path="url(#pb5b0200fb0)">
     <!-- 17 -->
     <g transform="translate(375.483039 79.263111) scale(0.1 -0.1)">
      <use xlink:href="#DejaVuSans-31"/>
      <use xlink:href="#DejaVuSans-37" x="63.623047"/>
     </g>
    </g>
   </g>
   <g id="text_19">
    <g clip-path="url(#pb5b0200fb0)">
     <!-- 18 -->
     <g transform="translate(388.67365 32.749458) scale(0.1 -0.1)">
      <use xlink:href="#DejaVuSans-31"/>
      <use xlink:href="#DejaVuSans-38" x="63.623047"/>
     </g>
    </g>
   </g>
   <g id="text_20">
    <g clip-path="url(#pb5b0200fb0)">
     <!-- 19 -->
     <g transform="translate(414.450723 60.532888) scale(0.1 -0.1)">
      <use xlink:href="#DejaVuSans-31"/>
      <use xlink:href="#DejaVuSans-39" x="63.623047"/>
     </g>
    </g>
   </g>
   <g id="text_21">
    <g clip-path="url(#pb5b0200fb0)">
     <!-- 20 -->
     <g transform="translate(271.542138 191.268686) scale(0.1 -0.1)">
      <use xlink:href="#DejaVuSans-32"/>
      <use xlink:href="#DejaVuSans-30" x="63.623047"/>
     </g>
    </g>
   </g>
   <g id="text_22">
    <g clip-path="url(#pb5b0200fb0)">
     <!-- 21 -->
     <g transform="translate(249.216905 157.231863) scale(0.1 -0.1)">
      <use xlink:href="#DejaVuSans-32"/>
      <use xlink:href="#DejaVuSans-31" x="63.623047"/>
     </g>
    </g>
   </g>
   <g id="text_23">
    <g clip-path="url(#pb5b0200fb0)">
     <!-- 22 -->
     <g transform="translate(195.349864 68.803657) scale(0.1 -0.1)">
      <use xlink:href="#DejaVuSans-32"/>
      <use xlink:href="#DejaVuSans-32" x="63.623047"/>
     </g>
    </g>
   </g>
  </g>
 </g>
 <defs>
  <clipPath id="pb5b0200fb0">
   <rect x="0" y="0" width="460.8" height="345.6"/>
  </clipPath>
 </defs>
</svg>
