<?xml version="1.0" encoding="utf-8" standalone="no"?>
<!DOCTYPE svg PUBLIC "-//W3C//DTD SVG 1.1//EN"
  "http://www.w3.org/Graphics/SVG/1.1/DTD/svg11.dtd">
<svg xmlns:xlink="http://www.w3.org/1999/xlink" width="460.8pt" height="345.6pt" viewBox="0 0 460.8 345.6" xmlns="http://www.w3.org/2000/svg" version="1.1">
 <metadata>
  <rdf:RDF xmlns:dc="http://purl.org/dc/elements/1.1/" xmlns:cc="http://creativecommons.org/ns#" xmlns:rdf="http://www.w3.org/1999/02/22-rdf-syntax-ns#">
   <cc:Work>
    <dc:type rdf:resource="http://purl.org/dc/dcmitype/StillImage"/>
    <dc:date>2024-02-07T13:47:22.599919</dc:date>
    <dc:format>image/svg+xml</dc:format>
    <dc:creator>
     <cc:Agent>
      <dc:title>Matplotlib v3.8.0, https://matplotlib.org/</dc:title>
     </cc:Agent>
    </dc:creator>
   </cc:Work>
  </rdf:RDF>
 </metadata>
 <defs>
  <style type="text/css">*{stroke-linejoin: round; stroke-linecap: butt}</style>
 </defs>
 <g id="figure_1">
  <g id="patch_1">
   <path d="M 0 345.6 
L 460.8 345.6 
L 460.8 0 
L 0 0 
z
" style="fill: #ffffff"/>
  </g>
  <g id="axes_1">
   <g id="patch_2">
    <path d="M 418.929018 128.689082 
Q 326.550331 150.718592 235.259183 172.488757 
" clip-path="url(#pd36d5ab987)" style="fill: none; stroke: #000000; stroke-linecap: round"/>
    <path d="M 239.614009 173.506345 
L 235.259183 172.488757 
L 238.686149 169.615449 
z
" clip-path="url(#pd36d5ab987)" style="stroke: #000000; stroke-linecap: round"/>
   </g>
   <g id="patch_3">
    <path d="M 41.873533 217.90679 
Q 136.13852 195.77328 229.315073 173.895336 
" clip-path="url(#pd36d5ab987)" style="fill: none; stroke: #000000; stroke-linecap: round"/>
    <path d="M 224.963808 172.862625 
L 229.315073 173.895336 
L 225.878145 176.756722 
z
" clip-path="url(#pd36d5ab987)" style="stroke: #000000; stroke-linecap: round"/>
   </g>
   <g id="patch_4">
    <path d="M 56.532866 104.442488 
Q 143.508589 138.466724 229.443112 172.083651 
" clip-path="url(#pd36d5ab987)" style="fill: none; stroke: #000000; stroke-linecap: round"/>
    <path d="M 226.446617 168.763859 
L 229.443112 172.083651 
L 224.989382 172.488971 
z
" clip-path="url(#pd36d5ab987)" style="stroke: #000000; stroke-linecap: round"/>
   </g>
   <g id="patch_5">
    <path d="M 323.524859 41.21406 
Q 278.456919 106.410045 234.024729 170.686345 
" clip-path="url(#pd36d5ab987)" style="fill: none; stroke: #000000; stroke-linecap: round"/>
    <path d="M 237.944441 168.533241 
L 234.024729 170.686345 
L 234.654073 166.258713 
z
" clip-path="url(#pd36d5ab987)" style="stroke: #000000; stroke-linecap: round"/>
   </g>
   <g id="patch_6">
    <path d="M 408.532497 241.97498 
Q 321.313087 207.938093 235.135212 174.307659 
" clip-path="url(#pd36d5ab987)" style="fill: none; stroke: #000000; stroke-linecap: round"/>
    <path d="M 238.134436 177.624985 
L 235.135212 174.307659 
L 239.588608 173.898675 
z
" clip-path="url(#pd36d5ab987)" style="stroke: #000000; stroke-linecap: round"/>
   </g>
   <g id="patch_7">
    <path d="M 290.820367 313.823672 
Q 261.927204 244.405137 233.463659 176.018799 
" clip-path="url(#pd36d5ab987)" style="fill: none; stroke: #000000; stroke-linecap: round"/>
    <path d="M 233.154256 180.480219 
L 233.463659 176.018799 
L 236.847153 178.943173 
z
" clip-path="url(#pd36d5ab987)" style="stroke: #000000; stroke-linecap: round"/>
   </g>
   <g id="patch_8">
    <path d="M 234.173388 172.747686 
Q 326.552075 150.718176 417.843224 128.948011 
" clip-path="url(#pd36d5ab987)" style="fill: none; stroke: #000000; stroke-linecap: round"/>
    <path d="M 413.488397 127.930424 
L 417.843224 128.948011 
L 414.416258 131.82132 
z
" clip-path="url(#pd36d5ab987)" style="stroke: #000000; stroke-linecap: round"/>
   </g>
   <g id="patch_9">
    <path d="M 230.402427 173.640024 
Q 136.137441 195.773534 42.960887 217.651478 
" clip-path="url(#pd36d5ab987)" style="fill: none; stroke: #000000; stroke-linecap: round"/>
    <path d="M 47.312153 218.684189 
L 42.960887 217.651478 
L 46.397815 214.790092 
z
" clip-path="url(#pd36d5ab987)" style="stroke: #000000; stroke-linecap: round"/>
   </g>
   <g id="patch_10">
    <path d="M 230.487486 172.492201 
Q 143.511762 138.467965 57.577239 104.851039 
" clip-path="url(#pd36d5ab987)" style="fill: none; stroke: #000000; stroke-linecap: round"/>
    <path d="M 60.573734 108.17083 
L 57.577239 104.851039 
L 62.03097 104.445718 
z
" clip-path="url(#pd36d5ab987)" style="stroke: #000000; stroke-linecap: round"/>
   </g>
   <g id="patch_11">
    <path d="M 233.390989 171.603123 
Q 278.458929 106.407138 322.891119 42.130838 
" clip-path="url(#pd36d5ab987)" style="fill: none; stroke: #000000; stroke-linecap: round"/>
    <path d="M 318.971407 44.283942 
L 322.891119 42.130838 
L 322.261775 46.55847 
z
" clip-path="url(#pd36d5ab987)" style="stroke: #000000; stroke-linecap: round"/>
   </g>
   <g id="patch_12">
    <path d="M 234.095874 173.902063 
Q 321.315284 207.93895 407.493159 241.569384 
" clip-path="url(#pd36d5ab987)" style="fill: none; stroke: #000000; stroke-linecap: round"/>
    <path d="M 404.493935 238.252058 
L 407.493159 241.569384 
L 403.039763 241.978368 
z
" clip-path="url(#pd36d5ab987)" style="stroke: #000000; stroke-linecap: round"/>
   </g>
   <g id="patch_13">
    <path d="M 233.032649 174.983258 
Q 261.925812 244.401792 290.389357 312.78813 
" clip-path="url(#pd36d5ab987)" style="fill: none; stroke: #000000; stroke-linecap: round"/>
    <path d="M 290.69876 308.32671 
L 290.389357 312.78813 
L 287.005863 309.863756 
z
" clip-path="url(#pd36d5ab987)" style="stroke: #000000; stroke-linecap: round"/>
   </g>
   <g id="patch_14">
    <path d="M 231.179744 174.788333 
Q 186.036072 239.540029 141.531814 303.374584 
" clip-path="url(#pd36d5ab987)" style="fill: none; stroke: #000000; stroke-linecap: round"/>
    <path d="M 145.460085 301.237136 
L 141.531814 303.374584 
L 142.178818 298.949498 
z
" clip-path="url(#pd36d5ab987)" style="stroke: #000000; stroke-linecap: round"/>
   </g>
   <g id="patch_15">
    <path d="M 231.537758 171.409547 
Q 202.187021 101.591024 173.269561 32.803165 
" clip-path="url(#pd36d5ab987)" style="fill: none; stroke: #000000; stroke-linecap: round"/>
    <path d="M 172.975991 37.265655 
L 173.269561 32.803165 
L 176.663411 35.715515 
z
" clip-path="url(#pd36d5ab987)" style="stroke: #000000; stroke-linecap: round"/>
   </g>
   <g id="patch_16">
    <path d="M 140.894549 304.288643 
Q 186.038221 239.536946 230.54248 175.702392 
" clip-path="url(#pd36d5ab987)" style="fill: none; stroke: #000000; stroke-linecap: round"/>
    <path d="M 226.614208 177.83984 
L 230.54248 175.702392 
L 229.895475 180.127478 
z
" clip-path="url(#pd36d5ab987)" style="stroke: #000000; stroke-linecap: round"/>
   </g>
   <g id="patch_17">
    <path d="M 172.838405 31.777547 
Q 202.189143 101.596071 231.106603 170.38393 
" clip-path="url(#pd36d5ab987)" style="fill: none; stroke: #000000; stroke-linecap: round"/>
    <path d="M 231.400173 165.92144 
L 231.106603 170.38393 
L 227.712753 167.47158 
z
" clip-path="url(#pd36d5ab987)" style="stroke: #000000; stroke-linecap: round"/>
   </g>
   <g id="PathCollection_1">
    <defs>
     <path id="m31ea0ca457" d="M 0 1.936492 
C 0.513564 1.936492 1.006162 1.732451 1.369306 1.369306 
C 1.732451 1.006162 1.936492 0.513564 1.936492 0 
C 1.936492 -0.513564 1.732451 -1.006162 1.369306 -1.369306 
C 1.006162 -1.732451 0.513564 -1.936492 0 -1.936492 
C -0.513564 -1.936492 -1.006162 -1.732451 -1.369306 -1.369306 
C -1.732451 -1.006162 -1.936492 -0.513564 -1.936492 0 
C -1.936492 0.513564 -1.732451 1.006162 -1.369306 1.369306 
C -1.006162 1.732451 -0.513564 1.936492 0 1.936492 
z
" style="stroke: #1f78b4"/>
    </defs>
    <g clip-path="url(#pd36d5ab987)">
     <use xlink:href="#m31ea0ca457" x="420.813223" y="128.239757" style="fill: #1f78b4; stroke: #1f78b4"/>
     <use xlink:href="#m31ea0ca457" x="39.986777" y="218.349802" style="fill: #1f78b4; stroke: #1f78b4"/>
     <use xlink:href="#m31ea0ca457" x="54.731168" y="103.737677" style="fill: #1f78b4; stroke: #1f78b4"/>
     <use xlink:href="#m31ea0ca457" x="324.626664" y="39.620171" style="fill: #1f78b4; stroke: #1f78b4"/>
     <use xlink:href="#m31ea0ca457" x="410.339187" y="242.680031" style="fill: #1f78b4; stroke: #1f78b4"/>
     <use xlink:href="#m31ea0ca457" x="291.563833" y="315.609917" style="fill: #1f78b4; stroke: #1f78b4"/>
     <use xlink:href="#m31ea0ca457" x="232.289184" y="173.197012" style="fill: #1f78b4; stroke: #1f78b4"/>
     <use xlink:href="#m31ea0ca457" x="139.78511" y="305.879963" style="fill: #1f78b4; stroke: #1f78b4"/>
     <use xlink:href="#m31ea0ca457" x="172.08698" y="29.990083" style="fill: #1f78b4; stroke: #1f78b4"/>
    </g>
   </g>
   <g id="text_1">
    <g clip-path="url(#pd36d5ab987)">
     <!-- 0 -->
     <g transform="translate(417.631973 130.999132) scale(0.1 -0.1)">
      <defs>
       <path id="DejaVuSans-30" d="M 2034 4250 
Q 1547 4250 1301 3770 
Q 1056 3291 1056 2328 
Q 1056 1369 1301 889 
Q 1547 409 2034 409 
Q 2525 409 2770 889 
Q 3016 1369 3016 2328 
Q 3016 3291 2770 3770 
Q 2525 4250 2034 4250 
z
M 2034 4750 
Q 2819 4750 3233 4129 
Q 3647 3509 3647 2328 
Q 3647 1150 3233 529 
Q 2819 -91 2034 -91 
Q 1250 -91 836 529 
Q 422 1150 422 2328 
Q 422 3509 836 4129 
Q 1250 4750 2034 4750 
z
" transform="scale(0.015625)"/>
      </defs>
      <use xlink:href="#DejaVuSans-30"/>
     </g>
    </g>
   </g>
   <g id="text_2">
    <g clip-path="url(#pd36d5ab987)">
     <!-- 1 -->
     <g transform="translate(36.805527 221.109177) scale(0.1 -0.1)">
      <defs>
       <path id="DejaVuSans-31" d="M 794 531 
L 1825 531 
L 1825 4091 
L 703 3866 
L 703 4441 
L 1819 4666 
L 2450 4666 
L 2450 531 
L 3481 531 
L 3481 0 
L 794 0 
L 794 531 
z
" transform="scale(0.015625)"/>
      </defs>
      <use xlink:href="#DejaVuSans-31"/>
     </g>
    </g>
   </g>
   <g id="text_3">
    <g clip-path="url(#pd36d5ab987)">
     <!-- 2 -->
     <g transform="translate(51.549918 106.497052) scale(0.1 -0.1)">
      <defs>
       <path id="DejaVuSans-32" d="M 1228 531 
L 3431 531 
L 3431 0 
L 469 0 
L 469 531 
Q 828 903 1448 1529 
Q 2069 2156 2228 2338 
Q 2531 2678 2651 2914 
Q 2772 3150 2772 3378 
Q 2772 3750 2511 3984 
Q 2250 4219 1831 4219 
Q 1534 4219 1204 4116 
Q 875 4013 500 3803 
L 500 4441 
Q 881 4594 1212 4672 
Q 1544 4750 1819 4750 
Q 2544 4750 2975 4387 
Q 3406 4025 3406 3419 
Q 3406 3131 3298 2873 
Q 3191 2616 2906 2266 
Q 2828 2175 2409 1742 
Q 1991 1309 1228 531 
z
" transform="scale(0.015625)"/>
      </defs>
      <use xlink:href="#DejaVuSans-32"/>
     </g>
    </g>
   </g>
   <g id="text_4">
    <g clip-path="url(#pd36d5ab987)">
     <!-- 3 -->
     <g transform="translate(321.445414 42.379546) scale(0.1 -0.1)">
      <defs>
       <path id="DejaVuSans-33" d="M 2597 2516 
Q 3050 2419 3304 2112 
Q 3559 1806 3559 1356 
Q 3559 666 3084 287 
Q 2609 -91 1734 -91 
Q 1441 -91 1130 -33 
Q 819 25 488 141 
L 488 750 
Q 750 597 1062 519 
Q 1375 441 1716 441 
Q 2309 441 2620 675 
Q 2931 909 2931 1356 
Q 2931 1769 2642 2001 
Q 2353 2234 1838 2234 
L 1294 2234 
L 1294 2753 
L 1863 2753 
Q 2328 2753 2575 2939 
Q 2822 3125 2822 3475 
Q 2822 3834 2567 4026 
Q 2313 4219 1838 4219 
Q 1578 4219 1281 4162 
Q 984 4106 628 3988 
L 628 4550 
Q 988 4650 1302 4700 
Q 1616 4750 1894 4750 
Q 2613 4750 3031 4423 
Q 3450 4097 3450 3541 
Q 3450 3153 3228 2886 
Q 3006 2619 2597 2516 
z
" transform="scale(0.015625)"/>
      </defs>
      <use xlink:href="#DejaVuSans-33"/>
     </g>
    </g>
   </g>
   <g id="text_5">
    <g clip-path="url(#pd36d5ab987)">
     <!-- 4 -->
     <g transform="translate(407.157937 245.439406) scale(0.1 -0.1)">
      <defs>
       <path id="DejaVuSans-34" d="M 2419 4116 
L 825 1625 
L 2419 1625 
L 2419 4116 
z
M 2253 4666 
L 3047 4666 
L 3047 1625 
L 3713 1625 
L 3713 1100 
L 3047 1100 
L 3047 0 
L 2419 0 
L 2419 1100 
L 313 1100 
L 313 1709 
L 2253 4666 
z
" transform="scale(0.015625)"/>
      </defs>
      <use xlink:href="#DejaVuSans-34"/>
     </g>
    </g>
   </g>
   <g id="text_6">
    <g clip-path="url(#pd36d5ab987)">
     <!-- 6 -->
     <g transform="translate(288.382583 318.369292) scale(0.1 -0.1)">
      <defs>
       <path id="DejaVuSans-36" d="M 2113 2584 
Q 1688 2584 1439 2293 
Q 1191 2003 1191 1497 
Q 1191 994 1439 701 
Q 1688 409 2113 409 
Q 2538 409 2786 701 
Q 3034 994 3034 1497 
Q 3034 2003 2786 2293 
Q 2538 2584 2113 2584 
z
M 3366 4563 
L 3366 3988 
Q 3128 4100 2886 4159 
Q 2644 4219 2406 4219 
Q 1781 4219 1451 3797 
Q 1122 3375 1075 2522 
Q 1259 2794 1537 2939 
Q 1816 3084 2150 3084 
Q 2853 3084 3261 2657 
Q 3669 2231 3669 1497 
Q 3669 778 3244 343 
Q 2819 -91 2113 -91 
Q 1303 -91 875 529 
Q 447 1150 447 2328 
Q 447 3434 972 4092 
Q 1497 4750 2381 4750 
Q 2619 4750 2861 4703 
Q 3103 4656 3366 4563 
z
" transform="scale(0.015625)"/>
      </defs>
      <use xlink:href="#DejaVuSans-36"/>
     </g>
    </g>
   </g>
   <g id="text_7">
    <g clip-path="url(#pd36d5ab987)">
     <!-- 8 -->
     <g transform="translate(229.107934 175.956387) scale(0.1 -0.1)">
      <defs>
       <path id="DejaVuSans-38" d="M 2034 2216 
Q 1584 2216 1326 1975 
Q 1069 1734 1069 1313 
Q 1069 891 1326 650 
Q 1584 409 2034 409 
Q 2484 409 2743 651 
Q 3003 894 3003 1313 
Q 3003 1734 2745 1975 
Q 2488 2216 2034 2216 
z
M 1403 2484 
Q 997 2584 770 2862 
Q 544 3141 544 3541 
Q 544 4100 942 4425 
Q 1341 4750 2034 4750 
Q 2731 4750 3128 4425 
Q 3525 4100 3525 3541 
Q 3525 3141 3298 2862 
Q 3072 2584 2669 2484 
Q 3125 2378 3379 2068 
Q 3634 1759 3634 1313 
Q 3634 634 3220 271 
Q 2806 -91 2034 -91 
Q 1263 -91 848 271 
Q 434 634 434 1313 
Q 434 1759 690 2068 
Q 947 2378 1403 2484 
z
M 1172 3481 
Q 1172 3119 1398 2916 
Q 1625 2713 2034 2713 
Q 2441 2713 2670 2916 
Q 2900 3119 2900 3481 
Q 2900 3844 2670 4047 
Q 2441 4250 2034 4250 
Q 1625 4250 1398 4047 
Q 1172 3844 1172 3481 
z
" transform="scale(0.015625)"/>
      </defs>
      <use xlink:href="#DejaVuSans-38"/>
     </g>
    </g>
   </g>
   <g id="text_8">
    <g clip-path="url(#pd36d5ab987)">
     <!-- 9 -->
     <g transform="translate(136.60386 308.639338) scale(0.1 -0.1)">
      <defs>
       <path id="DejaVuSans-39" d="M 703 97 
L 703 672 
Q 941 559 1184 500 
Q 1428 441 1663 441 
Q 2288 441 2617 861 
Q 2947 1281 2994 2138 
Q 2813 1869 2534 1725 
Q 2256 1581 1919 1581 
Q 1219 1581 811 2004 
Q 403 2428 403 3163 
Q 403 3881 828 4315 
Q 1253 4750 1959 4750 
Q 2769 4750 3195 4129 
Q 3622 3509 3622 2328 
Q 3622 1225 3098 567 
Q 2575 -91 1691 -91 
Q 1453 -91 1209 -44 
Q 966 3 703 97 
z
M 1959 2075 
Q 2384 2075 2632 2365 
Q 2881 2656 2881 3163 
Q 2881 3666 2632 3958 
Q 2384 4250 1959 4250 
Q 1534 4250 1286 3958 
Q 1038 3666 1038 3163 
Q 1038 2656 1286 2365 
Q 1534 2075 1959 2075 
z
" transform="scale(0.015625)"/>
      </defs>
      <use xlink:href="#DejaVuSans-39"/>
     </g>
    </g>
   </g>
   <g id="text_9">
    <g clip-path="url(#pd36d5ab987)">
     <!-- 10 -->
     <g transform="translate(165.72448 32.749458) scale(0.1 -0.1)">
      <use xlink:href="#DejaVuSans-31"/>
      <use xlink:href="#DejaVuSans-30" x="63.623047"/>
     </g>
    </g>
   </g>
  </g>
 </g>
 <defs>
  <clipPath id="pd36d5ab987">
   <rect x="0" y="0" width="460.8" height="345.6"/>
  </clipPath>
 </defs>
</svg>
