<?xml version="1.0" encoding="utf-8" standalone="no"?>
<!DOCTYPE svg PUBLIC "-//W3C//DTD SVG 1.1//EN"
  "http://www.w3.org/Graphics/SVG/1.1/DTD/svg11.dtd">
<svg xmlns:xlink="http://www.w3.org/1999/xlink" width="460.8pt" height="345.6pt" viewBox="0 0 460.8 345.6" xmlns="http://www.w3.org/2000/svg" version="1.1">
 <metadata>
  <rdf:RDF xmlns:dc="http://purl.org/dc/elements/1.1/" xmlns:cc="http://creativecommons.org/ns#" xmlns:rdf="http://www.w3.org/1999/02/22-rdf-syntax-ns#">
   <cc:Work>
    <dc:type rdf:resource="http://purl.org/dc/dcmitype/StillImage"/>
    <dc:date>2024-02-07T14:35:16.686944</dc:date>
    <dc:format>image/svg+xml</dc:format>
    <dc:creator>
     <cc:Agent>
      <dc:title>Matplotlib v3.8.0, https://matplotlib.org/</dc:title>
     </cc:Agent>
    </dc:creator>
   </cc:Work>
  </rdf:RDF>
 </metadata>
 <defs>
  <style type="text/css">*{stroke-linejoin: round; stroke-linecap: butt}</style>
 </defs>
 <g id="figure_1">
  <g id="patch_1">
   <path d="M 0 345.6 
L 460.8 345.6 
L 460.8 0 
L 0 0 
z
" style="fill: #ffffff"/>
  </g>
  <g id="axes_1">
   <g id="patch_2">
    <path d="M 212.057291 214.900393 
Q 217.571715 244.32771 222.880213 272.65612 
" clip-path="url(#pb361dfef82)" style="fill: none; stroke: #000000; stroke-linecap: round"/>
    <path d="M 224.109254 268.356184 
L 222.880213 272.65612 
L 220.177688 269.092925 
z
" clip-path="url(#pb361dfef82)" style="stroke: #000000; stroke-linecap: round"/>
   </g>
   <g id="patch_3">
    <path d="M 213.572969 212.520667 
Q 248.648322 203.54428 282.640548 194.845084 
" clip-path="url(#pb361dfef82)" style="fill: none; stroke: #000000; stroke-linecap: round"/>
    <path d="M 278.269579 193.899235 
L 282.640548 194.845084 
L 279.261287 197.77435 
z
" clip-path="url(#pb361dfef82)" style="stroke: #000000; stroke-linecap: round"/>
   </g>
   <g id="patch_4">
    <path d="M 212.653437 211.311259 
Q 231.351811 178.159303 249.500933 145.981165 
" clip-path="url(#pb361dfef82)" style="fill: none; stroke: #000000; stroke-linecap: round"/>
    <path d="M 245.793847 148.482668 
L 249.500933 145.981165 
L 249.277884 150.447735 
z
" clip-path="url(#pb361dfef82)" style="stroke: #000000; stroke-linecap: round"/>
   </g>
   <g id="patch_5">
    <path d="M 209.873826 213.636213 
Q 168.749036 227.961353 128.680058 241.918718 
" clip-path="url(#pb361dfef82)" style="fill: none; stroke: #000000; stroke-linecap: round"/>
    <path d="M 133.115346 242.491622 
L 128.680058 241.918718 
L 131.799554 238.71423 
z
" clip-path="url(#pb361dfef82)" style="stroke: #000000; stroke-linecap: round"/>
   </g>
   <g id="patch_6">
    <path d="M 209.775841 213.163197 
Q 173.515559 216.24236 138.3693 219.226921 
" clip-path="url(#pb361dfef82)" style="fill: none; stroke: #000000; stroke-linecap: round"/>
    <path d="M 142.524183 220.881294 
L 138.3693 219.226921 
L 142.185728 216.895638 
z
" clip-path="url(#pb361dfef82)" style="stroke: #000000; stroke-linecap: round"/>
   </g>
   <g id="patch_7">
    <path d="M 223.086452 273.756703 
Q 217.572029 244.329386 212.263531 216.000976 
" clip-path="url(#pb361dfef82)" style="fill: none; stroke: #000000; stroke-linecap: round"/>
    <path d="M 211.034489 220.300913 
L 212.263531 216.000976 
L 214.966055 219.564171 
z
" clip-path="url(#pb361dfef82)" style="stroke: #000000; stroke-linecap: round"/>
   </g>
   <g id="patch_8">
    <path d="M 221.580478 275.123269 
Q 201.492399 269.36138 182.479019 263.907748 
" clip-path="url(#pb361dfef82)" style="fill: none; stroke: #000000; stroke-linecap: round"/>
    <path d="M 185.772551 266.933082 
L 182.479019 263.907748 
L 186.875405 263.088123 
z
" clip-path="url(#pb361dfef82)" style="stroke: #000000; stroke-linecap: round"/>
   </g>
   <g id="patch_9">
    <path d="M 224.921562 276.905253 
Q 238.85634 288.662805 251.936617 299.699367 
" clip-path="url(#pb361dfef82)" style="fill: none; stroke: #000000; stroke-linecap: round"/>
    <path d="M 250.169207 295.591294 
L 251.936617 299.699367 
L 247.589713 298.648451 
z
" clip-path="url(#pb361dfef82)" style="stroke: #000000; stroke-linecap: round"/>
   </g>
   <g id="patch_10">
    <path d="M 224.921562 276.905253 
Q 238.85634 288.662805 251.936617 299.699367 
" clip-path="url(#pb361dfef82)" style="fill: none; stroke: #000000; stroke-linecap: round"/>
    <path d="M 250.169207 295.591294 
L 251.936617 299.699367 
L 247.589713 298.648451 
z
" clip-path="url(#pb361dfef82)" style="stroke: #000000; stroke-linecap: round"/>
   </g>
   <g id="patch_11">
    <path d="M 222.160649 277.108304 
Q 205.791854 295.63415 190.163346 313.322157 
" clip-path="url(#pb361dfef82)" style="fill: none; stroke: #000000; stroke-linecap: round"/>
    <path d="M 194.310649 311.648874 
L 190.163346 313.322157 
L 191.313102 309.000344 
z
" clip-path="url(#pb361dfef82)" style="stroke: #000000; stroke-linecap: round"/>
   </g>
   <g id="patch_12">
    <path d="M 283.729017 194.566526 
Q 248.653664 203.542913 214.661438 212.242109 
" clip-path="url(#pb361dfef82)" style="fill: none; stroke: #000000; stroke-linecap: round"/>
    <path d="M 219.032407 213.187957 
L 214.661438 212.242109 
L 218.040699 209.312843 
z
" clip-path="url(#pb361dfef82)" style="stroke: #000000; stroke-linecap: round"/>
   </g>
   <g id="patch_13">
    <path d="M 286.726952 192.513039 
Q 298.048729 176.683374 308.720097 161.763085 
" clip-path="url(#pb361dfef82)" style="fill: none; stroke: #000000; stroke-linecap: round"/>
    <path d="M 304.766376 163.853084 
L 308.720097 161.763085 
L 308.019864 166.180061 
z
" clip-path="url(#pb361dfef82)" style="stroke: #000000; stroke-linecap: round"/>
   </g>
   <g id="patch_14">
    <path d="M 250.050517 145.00676 
Q 231.352142 178.158716 213.203021 210.336854 
" clip-path="url(#pb361dfef82)" style="fill: none; stroke: #000000; stroke-linecap: round"/>
    <path d="M 216.910107 207.835351 
L 213.203021 210.336854 
L 213.42607 205.870284 
z
" clip-path="url(#pb361dfef82)" style="stroke: #000000; stroke-linecap: round"/>
   </g>
   <g id="patch_15">
    <path d="M 251.745885 141.530265 
Q 266.032876 107.150605 279.890823 73.803378 
" clip-path="url(#pb361dfef82)" style="fill: none; stroke: #000000; stroke-linecap: round"/>
    <path d="M 276.508954 76.729632 
L 279.890823 73.803378 
L 280.202704 78.264626 
z
" clip-path="url(#pb361dfef82)" style="stroke: #000000; stroke-linecap: round"/>
   </g>
   <g id="patch_16">
    <path d="M 252.872995 143.819894 
Q 280.752345 151.297197 307.551826 158.484876 
" clip-path="url(#pb361dfef82)" style="fill: none; stroke: #000000; stroke-linecap: round"/>
    <path d="M 304.206462 155.516958 
L 307.551826 158.484876 
L 303.170273 159.380417 
z
" clip-path="url(#pb361dfef82)" style="stroke: #000000; stroke-linecap: round"/>
   </g>
   <g id="patch_17">
    <path d="M 181.406341 263.60007 
Q 201.49442 269.361959 220.5078 274.815591 
" clip-path="url(#pb361dfef82)" style="fill: none; stroke: #000000; stroke-linecap: round"/>
    <path d="M 217.214268 271.790257 
L 220.5078 274.815591 
L 216.111413 275.635217 
z
" clip-path="url(#pb361dfef82)" style="stroke: #000000; stroke-linecap: round"/>
   </g>
   <g id="patch_18">
    <path d="M 177.73002 262.3861 
Q 152.670562 252.995261 128.658041 243.996752 
" clip-path="url(#pb361dfef82)" style="fill: none; stroke: #000000; stroke-linecap: round"/>
    <path d="M 131.701852 247.273217 
L 128.658041 243.996752 
L 133.105499 243.527583 
z
" clip-path="url(#pb361dfef82)" style="stroke: #000000; stroke-linecap: round"/>
   </g>
   <g id="patch_19">
    <path d="M 127.622059 242.287254 
Q 168.746849 227.962114 208.815827 214.004749 
" clip-path="url(#pb361dfef82)" style="fill: none; stroke: #000000; stroke-linecap: round"/>
    <path d="M 204.380539 213.431845 
L 208.815827 214.004749 
L 205.696331 217.209237 
z
" clip-path="url(#pb361dfef82)" style="stroke: #000000; stroke-linecap: round"/>
   </g>
   <g id="patch_20">
    <path d="M 127.60894 243.60361 
Q 152.668398 252.994449 176.680918 261.992958 
" clip-path="url(#pb361dfef82)" style="fill: none; stroke: #000000; stroke-linecap: round"/>
    <path d="M 173.637108 258.716493 
L 176.680918 261.992958 
L 172.233461 262.462127 
z
" clip-path="url(#pb361dfef82)" style="stroke: #000000; stroke-linecap: round"/>
   </g>
   <g id="patch_21">
    <path d="M 123.90148 243.329839 
Q 82.890371 252.126022 42.972435 260.687737 
" clip-path="url(#pb361dfef82)" style="fill: none; stroke: #000000; stroke-linecap: round"/>
    <path d="M 47.302913 261.804409 
L 42.972435 260.687737 
L 46.464059 257.893358 
z
" clip-path="url(#pb361dfef82)" style="stroke: #000000; stroke-linecap: round"/>
   </g>
   <g id="patch_22">
    <path d="M 126.524115 241.129844 
Q 130.559365 231.204686 134.17353 222.315235 
" clip-path="url(#pb361dfef82)" style="fill: none; stroke: #000000; stroke-linecap: round"/>
    <path d="M 130.814283 225.267431 
L 134.17353 222.315235 
L 134.519738 226.77395 
z
" clip-path="url(#pb361dfef82)" style="stroke: #000000; stroke-linecap: round"/>
   </g>
   <g id="patch_23">
    <path d="M 252.791821 300.420951 
Q 238.857043 288.663399 225.776767 277.626837 
" clip-path="url(#pb361dfef82)" style="fill: none; stroke: #000000; stroke-linecap: round"/>
    <path d="M 227.544177 281.73491 
L 225.776767 277.626837 
L 230.123671 278.677753 
z
" clip-path="url(#pb361dfef82)" style="stroke: #000000; stroke-linecap: round"/>
   </g>
   <g id="patch_24">
    <path d="M 252.791821 300.420951 
Q 238.857043 288.663399 225.776767 277.626837 
" clip-path="url(#pb361dfef82)" style="fill: none; stroke: #000000; stroke-linecap: round"/>
    <path d="M 227.544177 281.73491 
L 225.776767 277.626837 
L 230.123671 278.677753 
z
" clip-path="url(#pb361dfef82)" style="stroke: #000000; stroke-linecap: round"/>
   </g>
   <g id="patch_25">
    <path d="M 189.423937 314.159005 
Q 205.792731 295.633158 221.421239 277.945152 
" clip-path="url(#pb361dfef82)" style="fill: none; stroke: #000000; stroke-linecap: round"/>
    <path d="M 217.273936 279.618435 
L 221.421239 277.945152 
L 220.271484 282.266964 
z
" clip-path="url(#pb361dfef82)" style="stroke: #000000; stroke-linecap: round"/>
   </g>
   <g id="patch_26">
    <path d="M 41.880062 260.922033 
Q 82.891171 252.12585 122.809108 243.564134 
" clip-path="url(#pb361dfef82)" style="fill: none; stroke: #000000; stroke-linecap: round"/>
    <path d="M 118.47863 242.447462 
L 122.809108 243.564134 
L 119.317483 246.358514 
z
" clip-path="url(#pb361dfef82)" style="stroke: #000000; stroke-linecap: round"/>
   </g>
   <g id="patch_27">
    <path d="M 137.249277 219.322032 
Q 173.50956 216.242869 208.655818 213.258307 
" clip-path="url(#pb361dfef82)" style="fill: none; stroke: #000000; stroke-linecap: round"/>
    <path d="M 204.500935 211.603935 
L 208.655818 213.258307 
L 204.83939 215.58959 
z
" clip-path="url(#pb361dfef82)" style="stroke: #000000; stroke-linecap: round"/>
   </g>
   <g id="patch_28">
    <path d="M 134.59465 221.279441 
Q 130.559401 231.204599 126.945236 240.09405 
" clip-path="url(#pb361dfef82)" style="fill: none; stroke: #000000; stroke-linecap: round"/>
    <path d="M 130.304482 237.141854 
L 126.945236 240.09405 
L 126.599027 235.635335 
z
" clip-path="url(#pb361dfef82)" style="stroke: #000000; stroke-linecap: round"/>
   </g>
   <g id="patch_29">
    <path d="M 358.192207 48.154777 
Q 320.557082 59.294213 283.994016 70.116335 
" clip-path="url(#pb361dfef82)" style="fill: none; stroke: #000000; stroke-linecap: round"/>
    <path d="M 288.397161 70.898838 
L 283.994016 70.116335 
L 287.261905 67.06332 
z
" clip-path="url(#pb361dfef82)" style="stroke: #000000; stroke-linecap: round"/>
   </g>
   <g id="patch_30">
    <path d="M 308.434502 31.578899 
Q 295.300625 50.486583 282.804586 68.476028 
" clip-path="url(#pb361dfef82)" style="fill: none; stroke: #000000; stroke-linecap: round"/>
    <path d="M 286.72918 66.331835 
L 282.804586 68.476028 
L 283.443989 64.049837 
z
" clip-path="url(#pb361dfef82)" style="stroke: #000000; stroke-linecap: round"/>
   </g>
   <g id="patch_31">
    <path d="M 309.373262 160.849855 
Q 298.051485 176.679521 287.380117 191.599809 
" clip-path="url(#pb361dfef82)" style="fill: none; stroke: #000000; stroke-linecap: round"/>
    <path d="M 291.333837 189.50981 
L 287.380117 191.599809 
L 288.08035 187.182833 
z
" clip-path="url(#pb361dfef82)" style="stroke: #000000; stroke-linecap: round"/>
   </g>
   <g id="patch_32">
    <path d="M 308.629187 158.773826 
Q 280.749836 151.296524 253.950355 144.108845 
" clip-path="url(#pb361dfef82)" style="fill: none; stroke: #000000; stroke-linecap: round"/>
    <path d="M 257.29572 147.076762 
L 253.950355 144.108845 
L 258.331908 143.213303 
z
" clip-path="url(#pb361dfef82)" style="stroke: #000000; stroke-linecap: round"/>
   </g>
   <g id="patch_33">
    <path d="M 311.355387 157.535133 
Q 319.200799 141.585909 326.552723 126.639915 
" clip-path="url(#pb361dfef82)" style="fill: none; stroke: #000000; stroke-linecap: round"/>
    <path d="M 322.992535 129.3464 
L 326.552723 126.639915 
L 326.581799 131.111957 
z
" clip-path="url(#pb361dfef82)" style="stroke: #000000; stroke-linecap: round"/>
   </g>
   <g id="patch_34">
    <path d="M 246.362612 32.247487 
Q 263.065506 50.893471 279.022414 68.706686 
" clip-path="url(#pb361dfef82)" style="fill: none; stroke: #000000; stroke-linecap: round"/>
    <path d="M 277.843194 64.39282 
L 279.022414 68.706686 
L 274.863789 67.061742 
z
" clip-path="url(#pb361dfef82)" style="stroke: #000000; stroke-linecap: round"/>
   </g>
   <g id="patch_35">
    <path d="M 136.501785 86.649717 
Q 180.240718 91.798701 222.869283 96.816972 
" clip-path="url(#pb361dfef82)" style="fill: none; stroke: #000000; stroke-linecap: round"/>
    <path d="M 219.130542 94.363034 
L 222.869283 96.816972 
L 218.662888 98.335602 
z
" clip-path="url(#pb361dfef82)" style="stroke: #000000; stroke-linecap: round"/>
   </g>
   <g id="patch_36">
    <path d="M 418.882268 131.954508 
Q 374.356248 128.012625 330.943907 124.169335 
" clip-path="url(#pb361dfef82)" style="fill: none; stroke: #000000; stroke-linecap: round"/>
    <path d="M 334.751953 126.514283 
L 330.943907 124.169335 
L 335.104693 122.529867 
z
" clip-path="url(#pb361dfef82)" style="stroke: #000000; stroke-linecap: round"/>
   </g>
   <g id="patch_37">
    <path d="M 327.044492 125.64018 
Q 319.19908 141.589403 311.847156 156.535398 
" clip-path="url(#pb361dfef82)" style="fill: none; stroke: #000000; stroke-linecap: round"/>
    <path d="M 315.407344 153.828912 
L 311.847156 156.535398 
L 311.81808 152.063356 
z
" clip-path="url(#pb361dfef82)" style="stroke: #000000; stroke-linecap: round"/>
   </g>
   <g id="patch_38">
    <path d="M 329.831487 124.070853 
Q 374.357507 128.012736 417.769848 131.856026 
" clip-path="url(#pb361dfef82)" style="fill: none; stroke: #000000; stroke-linecap: round"/>
    <path d="M 413.961802 129.511077 
L 417.769848 131.856026 
L 413.609062 133.495494 
z
" clip-path="url(#pb361dfef82)" style="stroke: #000000; stroke-linecap: round"/>
   </g>
   <g id="patch_39">
    <path d="M 326.029791 123.409726 
Q 276.902999 110.53732 228.857731 97.948299 
" clip-path="url(#pb361dfef82)" style="fill: none; stroke: #000000; stroke-linecap: round"/>
    <path d="M 232.220171 100.896856 
L 228.857731 97.948299 
L 233.234041 97.027481 
z
" clip-path="url(#pb361dfef82)" style="stroke: #000000; stroke-linecap: round"/>
   </g>
   <g id="patch_40">
    <path d="M 223.977234 96.947401 
Q 180.238302 91.798417 137.609736 86.780146 
" clip-path="url(#pb361dfef82)" style="fill: none; stroke: #000000; stroke-linecap: round"/>
    <path d="M 141.348477 89.234084 
L 137.609736 86.780146 
L 141.816132 85.261516 
z
" clip-path="url(#pb361dfef82)" style="stroke: #000000; stroke-linecap: round"/>
   </g>
   <g id="patch_41">
    <path d="M 227.773851 97.664296 
Q 276.900643 110.536702 324.945911 123.125724 
" clip-path="url(#pb361dfef82)" style="fill: none; stroke: #000000; stroke-linecap: round"/>
    <path d="M 321.58347 120.177166 
L 324.945911 123.125724 
L 320.569601 124.046541 
z
" clip-path="url(#pb361dfef82)" style="stroke: #000000; stroke-linecap: round"/>
   </g>
   <g id="patch_42">
    <path d="M 225.27843 95.338204 
Q 220.754784 82.043361 216.591279 69.806959 
" clip-path="url(#pb361dfef82)" style="fill: none; stroke: #000000; stroke-linecap: round"/>
    <path d="M 215.98636 74.237995 
L 216.591279 69.806959 
L 219.773156 72.949516 
z
" clip-path="url(#pb361dfef82)" style="stroke: #000000; stroke-linecap: round"/>
   </g>
   <g id="patch_43">
    <path d="M 216.231257 68.748865 
Q 220.754902 82.043707 224.918407 94.280109 
" clip-path="url(#pb361dfef82)" style="fill: none; stroke: #000000; stroke-linecap: round"/>
    <path d="M 225.523326 89.849074 
L 224.918407 94.280109 
L 221.736531 91.137552 
z
" clip-path="url(#pb361dfef82)" style="stroke: #000000; stroke-linecap: round"/>
   </g>
   <g id="patch_44">
    <path d="M 217.536214 67.032967 
Q 248.331934 68.948334 278.011776 70.794298 
" clip-path="url(#pb361dfef82)" style="fill: none; stroke: #000000; stroke-linecap: round"/>
    <path d="M 274.143642 68.549851 
L 278.011776 70.794298 
L 273.895339 72.542137 
z
" clip-path="url(#pb361dfef82)" style="stroke: #000000; stroke-linecap: round"/>
   </g>
   <g id="patch_45">
    <path d="M 280.319393 72.772085 
Q 266.032402 107.151746 252.174455 140.498972 
" clip-path="url(#pb361dfef82)" style="fill: none; stroke: #000000; stroke-linecap: round"/>
    <path d="M 255.556325 137.572718 
L 252.174455 140.498972 
L 251.862574 136.037724 
z
" clip-path="url(#pb361dfef82)" style="stroke: #000000; stroke-linecap: round"/>
   </g>
   <g id="patch_46">
    <path d="M 282.920963 70.433943 
Q 320.556088 59.294507 357.119154 48.472384 
" clip-path="url(#pb361dfef82)" style="fill: none; stroke: #000000; stroke-linecap: round"/>
    <path d="M 352.716009 47.689881 
L 357.119154 48.472384 
L 353.851265 51.525399 
z
" clip-path="url(#pb361dfef82)" style="stroke: #000000; stroke-linecap: round"/>
   </g>
   <g id="patch_47">
    <path d="M 282.166085 69.395221 
Q 295.299962 50.487537 307.796002 32.498092 
" clip-path="url(#pb361dfef82)" style="fill: none; stroke: #000000; stroke-linecap: round"/>
    <path d="M 303.871407 34.642284 
L 307.796002 32.498092 
L 307.156599 36.924283 
z
" clip-path="url(#pb361dfef82)" style="stroke: #000000; stroke-linecap: round"/>
   </g>
   <g id="patch_48">
    <path d="M 279.768477 69.53954 
Q 263.065583 50.893556 247.108675 33.080341 
" clip-path="url(#pb361dfef82)" style="fill: none; stroke: #000000; stroke-linecap: round"/>
    <path d="M 248.287895 37.394208 
L 247.108675 33.080341 
L 251.2673 34.725285 
z
" clip-path="url(#pb361dfef82)" style="stroke: #000000; stroke-linecap: round"/>
   </g>
   <g id="patch_49">
    <path d="M 279.132806 70.864021 
Q 248.337086 68.948654 218.657244 67.10269 
" clip-path="url(#pb361dfef82)" style="fill: none; stroke: #000000; stroke-linecap: round"/>
    <path d="M 222.525378 69.347137 
L 218.657244 67.10269 
L 222.773681 65.354851 
z
" clip-path="url(#pb361dfef82)" style="stroke: #000000; stroke-linecap: round"/>
   </g>
   <g id="PathCollection_1">
    <defs>
     <path id="C0_0_ea61dcb124" d="M 0 1.936492 
C 0.513564 1.936492 1.006162 1.732451 1.369306 1.369306 
C 1.732451 1.006162 1.936492 0.513564 1.936492 -0 
C 1.936492 -0.513564 1.732451 -1.006162 1.369306 -1.369306 
C 1.006162 -1.732451 0.513564 -1.936492 0 -1.936492 
C -0.513564 -1.936492 -1.006162 -1.732451 -1.369306 -1.369306 
C -1.732451 -1.006162 -1.936492 -0.513564 -1.936492 0 
C -1.936492 0.513564 -1.732451 1.006162 -1.369306 1.369306 
C -1.006162 1.732451 -0.513564 1.936492 0 1.936492 
z
"/>
    </defs>
    <g clip-path="url(#pb361dfef82)">
     <use xlink:href="#C0_0_ea61dcb124" x="211.701119" y="212.999705" style="fill: #ff0000; stroke: #ff0000"/>
    </g>
    <g clip-path="url(#pb361dfef82)">
     <use xlink:href="#C0_0_ea61dcb124" x="223.442625" y="275.657391" style="stroke: #000000"/>
    </g>
    <g clip-path="url(#pb361dfef82)">
     <use xlink:href="#C0_0_ea61dcb124" x="285.600867" y="194.087487" style="fill: #ff0000; stroke: #ff0000"/>
    </g>
    <g clip-path="url(#pb361dfef82)">
     <use xlink:href="#C0_0_ea61dcb124" x="251.002835" y="143.318313" style="fill: #ff0000; stroke: #ff0000"/>
    </g>
    <g clip-path="url(#pb361dfef82)">
     <use xlink:href="#C0_0_ea61dcb124" x="179.544194" y="263.065948" style="fill: #ff0000; stroke: #ff0000"/>
    </g>
    <g clip-path="url(#pb361dfef82)">
     <use xlink:href="#C0_0_ea61dcb124" x="125.794766" y="242.923762" style="stroke: #000000"/>
    </g>
    <g clip-path="url(#pb361dfef82)">
     <use xlink:href="#C0_0_ea61dcb124" x="254.270759" y="301.668813" style="fill: #ff0000; stroke: #ff0000"/>
    </g>
    <g clip-path="url(#pb361dfef82)">
     <use xlink:href="#C0_0_ea61dcb124" x="188.141961" y="315.609917" style="fill: #ff0000; stroke: #ff0000"/>
    </g>
    <g clip-path="url(#pb361dfef82)">
     <use xlink:href="#C0_0_ea61dcb124" x="39.986777" y="261.32811" style="fill: #ff0000; stroke: #ff0000"/>
    </g>
    <g clip-path="url(#pb361dfef82)">
     <use xlink:href="#C0_0_ea61dcb124" x="135.324" y="219.485523" style="fill: #ff0000; stroke: #ff0000"/>
    </g>
    <g clip-path="url(#pb361dfef82)">
     <use xlink:href="#C0_0_ea61dcb124" x="360.050727" y="47.604682" style="fill: #ff0000; stroke: #ff0000"/>
    </g>
    <g clip-path="url(#pb361dfef82)">
     <use xlink:href="#C0_0_ea61dcb124" x="309.538144" y="29.990083" style="fill: #ff0000; stroke: #ff0000"/>
    </g>
    <g clip-path="url(#pb361dfef82)">
     <use xlink:href="#C0_0_ea61dcb124" x="310.499347" y="159.275407" style="fill: #ff0000; stroke: #ff0000"/>
    </g>
    <g clip-path="url(#pb361dfef82)">
     <use xlink:href="#C0_0_ea61dcb124" x="245.068646" y="30.802991" style="fill: #ff0000; stroke: #ff0000"/>
    </g>
    <g clip-path="url(#pb361dfef82)">
     <use xlink:href="#C0_0_ea61dcb124" x="134.57591" y="86.423001" style="fill: #ff0000; stroke: #ff0000"/>
    </g>
    <g clip-path="url(#pb361dfef82)">
     <use xlink:href="#C0_0_ea61dcb124" x="420.813223" y="132.125455" style="fill: #ff0000; stroke: #ff0000"/>
    </g>
    <g clip-path="url(#pb361dfef82)">
     <use xlink:href="#C0_0_ea61dcb124" x="327.900532" y="123.899906" style="fill: #ff0000; stroke: #ff0000"/>
    </g>
    <g clip-path="url(#pb361dfef82)">
     <use xlink:href="#C0_0_ea61dcb124" x="225.90311" y="97.174117" style="fill: #ff0000; stroke: #ff0000"/>
    </g>
    <g clip-path="url(#pb361dfef82)">
     <use xlink:href="#C0_0_ea61dcb124" x="215.606577" y="66.912952" style="fill: #ff0000; stroke: #ff0000"/>
    </g>
    <g clip-path="url(#pb361dfef82)">
     <use xlink:href="#C0_0_ea61dcb124" x="281.062443" y="70.984037" style="fill: #ff0000; stroke: #ff0000"/>
    </g>
   </g>
   <g id="text_1">
    <g clip-path="url(#pb361dfef82)">
     <!-- 0 -->
     <g transform="translate(208.519869 215.75908) scale(0.1 -0.1)">
      <defs>
       <path id="DejaVuSans-30" d="M 2034 4250 
Q 1547 4250 1301 3770 
Q 1056 3291 1056 2328 
Q 1056 1369 1301 889 
Q 1547 409 2034 409 
Q 2525 409 2770 889 
Q 3016 1369 3016 2328 
Q 3016 3291 2770 3770 
Q 2525 4250 2034 4250 
z
M 2034 4750 
Q 2819 4750 3233 4129 
Q 3647 3509 3647 2328 
Q 3647 1150 3233 529 
Q 2819 -91 2034 -91 
Q 1250 -91 836 529 
Q 422 1150 422 2328 
Q 422 3509 836 4129 
Q 1250 4750 2034 4750 
z
" transform="scale(0.015625)"/>
      </defs>
      <use xlink:href="#DejaVuSans-30"/>
     </g>
    </g>
   </g>
   <g id="text_2">
    <g clip-path="url(#pb361dfef82)">
     <!-- 1 -->
     <g transform="translate(220.261375 278.416766) scale(0.1 -0.1)">
      <defs>
       <path id="DejaVuSans-31" d="M 794 531 
L 1825 531 
L 1825 4091 
L 703 3866 
L 703 4441 
L 1819 4666 
L 2450 4666 
L 2450 531 
L 3481 531 
L 3481 0 
L 794 0 
L 794 531 
z
" transform="scale(0.015625)"/>
      </defs>
      <use xlink:href="#DejaVuSans-31"/>
     </g>
    </g>
   </g>
   <g id="text_3">
    <g clip-path="url(#pb361dfef82)">
     <!-- 2 -->
     <g transform="translate(282.419617 196.846862) scale(0.1 -0.1)">
      <defs>
       <path id="DejaVuSans-32" d="M 1228 531 
L 3431 531 
L 3431 0 
L 469 0 
L 469 531 
Q 828 903 1448 1529 
Q 2069 2156 2228 2338 
Q 2531 2678 2651 2914 
Q 2772 3150 2772 3378 
Q 2772 3750 2511 3984 
Q 2250 4219 1831 4219 
Q 1534 4219 1204 4116 
Q 875 4013 500 3803 
L 500 4441 
Q 881 4594 1212 4672 
Q 1544 4750 1819 4750 
Q 2544 4750 2975 4387 
Q 3406 4025 3406 3419 
Q 3406 3131 3298 2873 
Q 3191 2616 2906 2266 
Q 2828 2175 2409 1742 
Q 1991 1309 1228 531 
z
" transform="scale(0.015625)"/>
      </defs>
      <use xlink:href="#DejaVuSans-32"/>
     </g>
    </g>
   </g>
   <g id="text_4">
    <g clip-path="url(#pb361dfef82)">
     <!-- 3 -->
     <g transform="translate(247.821585 146.077688) scale(0.1 -0.1)">
      <defs>
       <path id="DejaVuSans-33" d="M 2597 2516 
Q 3050 2419 3304 2112 
Q 3559 1806 3559 1356 
Q 3559 666 3084 287 
Q 2609 -91 1734 -91 
Q 1441 -91 1130 -33 
Q 819 25 488 141 
L 488 750 
Q 750 597 1062 519 
Q 1375 441 1716 441 
Q 2309 441 2620 675 
Q 2931 909 2931 1356 
Q 2931 1769 2642 2001 
Q 2353 2234 1838 2234 
L 1294 2234 
L 1294 2753 
L 1863 2753 
Q 2328 2753 2575 2939 
Q 2822 3125 2822 3475 
Q 2822 3834 2567 4026 
Q 2313 4219 1838 4219 
Q 1578 4219 1281 4162 
Q 984 4106 628 3988 
L 628 4550 
Q 988 4650 1302 4700 
Q 1616 4750 1894 4750 
Q 2613 4750 3031 4423 
Q 3450 4097 3450 3541 
Q 3450 3153 3228 2886 
Q 3006 2619 2597 2516 
z
" transform="scale(0.015625)"/>
      </defs>
      <use xlink:href="#DejaVuSans-33"/>
     </g>
    </g>
   </g>
   <g id="text_5">
    <g clip-path="url(#pb361dfef82)">
     <!-- 4 -->
     <g transform="translate(176.362944 265.825323) scale(0.1 -0.1)">
      <defs>
       <path id="DejaVuSans-34" d="M 2419 4116 
L 825 1625 
L 2419 1625 
L 2419 4116 
z
M 2253 4666 
L 3047 4666 
L 3047 1625 
L 3713 1625 
L 3713 1100 
L 3047 1100 
L 3047 0 
L 2419 0 
L 2419 1100 
L 313 1100 
L 313 1709 
L 2253 4666 
z
" transform="scale(0.015625)"/>
      </defs>
      <use xlink:href="#DejaVuSans-34"/>
     </g>
    </g>
   </g>
   <g id="text_6">
    <g clip-path="url(#pb361dfef82)">
     <!-- 5 -->
     <g transform="translate(122.613516 245.683137) scale(0.1 -0.1)">
      <defs>
       <path id="DejaVuSans-35" d="M 691 4666 
L 3169 4666 
L 3169 4134 
L 1269 4134 
L 1269 2991 
Q 1406 3038 1543 3061 
Q 1681 3084 1819 3084 
Q 2600 3084 3056 2656 
Q 3513 2228 3513 1497 
Q 3513 744 3044 326 
Q 2575 -91 1722 -91 
Q 1428 -91 1123 -41 
Q 819 9 494 109 
L 494 744 
Q 775 591 1075 516 
Q 1375 441 1709 441 
Q 2250 441 2565 725 
Q 2881 1009 2881 1497 
Q 2881 1984 2565 2268 
Q 2250 2553 1709 2553 
Q 1456 2553 1204 2497 
Q 953 2441 691 2322 
L 691 4666 
z
" transform="scale(0.015625)"/>
      </defs>
      <use xlink:href="#DejaVuSans-35"/>
     </g>
    </g>
   </g>
   <g id="text_7">
    <g clip-path="url(#pb361dfef82)">
     <!-- 6 -->
     <g transform="translate(251.089509 304.428188) scale(0.1 -0.1)">
      <defs>
       <path id="DejaVuSans-36" d="M 2113 2584 
Q 1688 2584 1439 2293 
Q 1191 2003 1191 1497 
Q 1191 994 1439 701 
Q 1688 409 2113 409 
Q 2538 409 2786 701 
Q 3034 994 3034 1497 
Q 3034 2003 2786 2293 
Q 2538 2584 2113 2584 
z
M 3366 4563 
L 3366 3988 
Q 3128 4100 2886 4159 
Q 2644 4219 2406 4219 
Q 1781 4219 1451 3797 
Q 1122 3375 1075 2522 
Q 1259 2794 1537 2939 
Q 1816 3084 2150 3084 
Q 2853 3084 3261 2657 
Q 3669 2231 3669 1497 
Q 3669 778 3244 343 
Q 2819 -91 2113 -91 
Q 1303 -91 875 529 
Q 447 1150 447 2328 
Q 447 3434 972 4092 
Q 1497 4750 2381 4750 
Q 2619 4750 2861 4703 
Q 3103 4656 3366 4563 
z
" transform="scale(0.015625)"/>
      </defs>
      <use xlink:href="#DejaVuSans-36"/>
     </g>
    </g>
   </g>
   <g id="text_8">
    <g clip-path="url(#pb361dfef82)">
     <!-- 7 -->
     <g transform="translate(184.960711 318.369292) scale(0.1 -0.1)">
      <defs>
       <path id="DejaVuSans-37" d="M 525 4666 
L 3525 4666 
L 3525 4397 
L 1831 0 
L 1172 0 
L 2766 4134 
L 525 4134 
L 525 4666 
z
" transform="scale(0.015625)"/>
      </defs>
      <use xlink:href="#DejaVuSans-37"/>
     </g>
    </g>
   </g>
   <g id="text_9">
    <g clip-path="url(#pb361dfef82)">
     <!-- 8 -->
     <g transform="translate(36.805527 264.087485) scale(0.1 -0.1)">
      <defs>
       <path id="DejaVuSans-38" d="M 2034 2216 
Q 1584 2216 1326 1975 
Q 1069 1734 1069 1313 
Q 1069 891 1326 650 
Q 1584 409 2034 409 
Q 2484 409 2743 651 
Q 3003 894 3003 1313 
Q 3003 1734 2745 1975 
Q 2488 2216 2034 2216 
z
M 1403 2484 
Q 997 2584 770 2862 
Q 544 3141 544 3541 
Q 544 4100 942 4425 
Q 1341 4750 2034 4750 
Q 2731 4750 3128 4425 
Q 3525 4100 3525 3541 
Q 3525 3141 3298 2862 
Q 3072 2584 2669 2484 
Q 3125 2378 3379 2068 
Q 3634 1759 3634 1313 
Q 3634 634 3220 271 
Q 2806 -91 2034 -91 
Q 1263 -91 848 271 
Q 434 634 434 1313 
Q 434 1759 690 2068 
Q 947 2378 1403 2484 
z
M 1172 3481 
Q 1172 3119 1398 2916 
Q 1625 2713 2034 2713 
Q 2441 2713 2670 2916 
Q 2900 3119 2900 3481 
Q 2900 3844 2670 4047 
Q 2441 4250 2034 4250 
Q 1625 4250 1398 4047 
Q 1172 3844 1172 3481 
z
" transform="scale(0.015625)"/>
      </defs>
      <use xlink:href="#DejaVuSans-38"/>
     </g>
    </g>
   </g>
   <g id="text_10">
    <g clip-path="url(#pb361dfef82)">
     <!-- 9 -->
     <g transform="translate(132.14275 222.244898) scale(0.1 -0.1)">
      <defs>
       <path id="DejaVuSans-39" d="M 703 97 
L 703 672 
Q 941 559 1184 500 
Q 1428 441 1663 441 
Q 2288 441 2617 861 
Q 2947 1281 2994 2138 
Q 2813 1869 2534 1725 
Q 2256 1581 1919 1581 
Q 1219 1581 811 2004 
Q 403 2428 403 3163 
Q 403 3881 828 4315 
Q 1253 4750 1959 4750 
Q 2769 4750 3195 4129 
Q 3622 3509 3622 2328 
Q 3622 1225 3098 567 
Q 2575 -91 1691 -91 
Q 1453 -91 1209 -44 
Q 966 3 703 97 
z
M 1959 2075 
Q 2384 2075 2632 2365 
Q 2881 2656 2881 3163 
Q 2881 3666 2632 3958 
Q 2384 4250 1959 4250 
Q 1534 4250 1286 3958 
Q 1038 3666 1038 3163 
Q 1038 2656 1286 2365 
Q 1534 2075 1959 2075 
z
" transform="scale(0.015625)"/>
      </defs>
      <use xlink:href="#DejaVuSans-39"/>
     </g>
    </g>
   </g>
   <g id="text_11">
    <g clip-path="url(#pb361dfef82)">
     <!-- 10 -->
     <g transform="translate(353.688227 50.364057) scale(0.1 -0.1)">
      <use xlink:href="#DejaVuSans-31"/>
      <use xlink:href="#DejaVuSans-30" x="63.623047"/>
     </g>
    </g>
   </g>
   <g id="text_12">
    <g clip-path="url(#pb361dfef82)">
     <!-- 11 -->
     <g transform="translate(303.175644 32.749458) scale(0.1 -0.1)">
      <use xlink:href="#DejaVuSans-31"/>
      <use xlink:href="#DejaVuSans-31" x="63.623047"/>
     </g>
    </g>
   </g>
   <g id="text_13">
    <g clip-path="url(#pb361dfef82)">
     <!-- 14 -->
     <g transform="translate(304.136847 162.034782) scale(0.1 -0.1)">
      <use xlink:href="#DejaVuSans-31"/>
      <use xlink:href="#DejaVuSans-34" x="63.623047"/>
     </g>
    </g>
   </g>
   <g id="text_14">
    <g clip-path="url(#pb361dfef82)">
     <!-- 17 -->
     <g transform="translate(238.706146 33.562366) scale(0.1 -0.1)">
      <use xlink:href="#DejaVuSans-31"/>
      <use xlink:href="#DejaVuSans-37" x="63.623047"/>
     </g>
    </g>
   </g>
   <g id="text_15">
    <g clip-path="url(#pb361dfef82)">
     <!-- 18 -->
     <g transform="translate(128.21341 89.182376) scale(0.1 -0.1)">
      <use xlink:href="#DejaVuSans-31"/>
      <use xlink:href="#DejaVuSans-38" x="63.623047"/>
     </g>
    </g>
   </g>
   <g id="text_16">
    <g clip-path="url(#pb361dfef82)">
     <!-- 19 -->
     <g transform="translate(414.450723 134.88483) scale(0.1 -0.1)">
      <use xlink:href="#DejaVuSans-31"/>
      <use xlink:href="#DejaVuSans-39" x="63.623047"/>
     </g>
    </g>
   </g>
   <g id="text_17">
    <g clip-path="url(#pb361dfef82)">
     <!-- 21 -->
     <g transform="translate(321.538032 126.659281) scale(0.1 -0.1)">
      <use xlink:href="#DejaVuSans-32"/>
      <use xlink:href="#DejaVuSans-31" x="63.623047"/>
     </g>
    </g>
   </g>
   <g id="text_18">
    <g clip-path="url(#pb361dfef82)">
     <!-- 22 -->
     <g transform="translate(219.54061 99.933492) scale(0.1 -0.1)">
      <use xlink:href="#DejaVuSans-32"/>
      <use xlink:href="#DejaVuSans-32" x="63.623047"/>
     </g>
    </g>
   </g>
   <g id="text_19">
    <g clip-path="url(#pb361dfef82)">
     <!-- 23 -->
     <g transform="translate(209.244077 69.672327) scale(0.1 -0.1)">
      <use xlink:href="#DejaVuSans-32"/>
      <use xlink:href="#DejaVuSans-33" x="63.623047"/>
     </g>
    </g>
   </g>
   <g id="text_20">
    <g clip-path="url(#pb361dfef82)">
     <!-- 24 -->
     <g transform="translate(274.699943 73.743412) scale(0.1 -0.1)">
      <use xlink:href="#DejaVuSans-32"/>
      <use xlink:href="#DejaVuSans-34" x="63.623047"/>
     </g>
    </g>
   </g>
  </g>
 </g>
 <defs>
  <clipPath id="pb361dfef82">
   <rect x="0" y="0" width="460.8" height="345.6"/>
  </clipPath>
 </defs>
</svg>
