<?xml version="1.0" encoding="utf-8" standalone="no"?>
<!DOCTYPE svg PUBLIC "-//W3C//DTD SVG 1.1//EN"
  "http://www.w3.org/Graphics/SVG/1.1/DTD/svg11.dtd">
<svg xmlns:xlink="http://www.w3.org/1999/xlink" width="460.8pt" height="345.6pt" viewBox="0 0 460.8 345.6" xmlns="http://www.w3.org/2000/svg" version="1.1">
 <metadata>
  <rdf:RDF xmlns:dc="http://purl.org/dc/elements/1.1/" xmlns:cc="http://creativecommons.org/ns#" xmlns:rdf="http://www.w3.org/1999/02/22-rdf-syntax-ns#">
   <cc:Work>
    <dc:type rdf:resource="http://purl.org/dc/dcmitype/StillImage"/>
    <dc:date>2024-02-07T13:46:57.297348</dc:date>
    <dc:format>image/svg+xml</dc:format>
    <dc:creator>
     <cc:Agent>
      <dc:title>Matplotlib v3.8.0, https://matplotlib.org/</dc:title>
     </cc:Agent>
    </dc:creator>
   </cc:Work>
  </rdf:RDF>
 </metadata>
 <defs>
  <style type="text/css">*{stroke-linejoin: round; stroke-linecap: butt}</style>
 </defs>
 <g id="figure_1">
  <g id="patch_1">
   <path d="M 0 345.6 
L 460.8 345.6 
L 460.8 0 
L 0 0 
z
" style="fill: #ffffff"/>
  </g>
  <g id="axes_1">
   <g id="patch_2">
    <path d="M 354.690616 242.764443 
Q 321.368671 242.686407 289.164756 242.610989 
" clip-path="url(#peb2a1d362f)" style="fill: none; stroke: #000000; stroke-linecap: round"/>
    <path d="M 293.160062 244.620351 
L 289.164756 242.610989 
L 293.169429 240.620362 
z
" clip-path="url(#peb2a1d362f)" style="stroke: #000000; stroke-linecap: round"/>
   </g>
   <g id="patch_3">
    <path d="M 224.722343 31.911616 
Q 220.395547 65.684845 216.210825 98.349103 
" clip-path="url(#peb2a1d362f)" style="fill: none; stroke: #000000; stroke-linecap: round"/>
    <path d="M 218.70291 94.635679 
L 216.210825 98.349103 
L 214.735337 94.127381 
z
" clip-path="url(#peb2a1d362f)" style="stroke: #000000; stroke-linecap: round"/>
   </g>
   <g id="patch_4">
    <path d="M 41.814776 171.810276 
Q 73.944015 182.874012 105.016139 193.573731 
" clip-path="url(#peb2a1d362f)" style="fill: none; stroke: #000000; stroke-linecap: round"/>
    <path d="M 101.885268 190.380355 
L 105.016139 193.573731 
L 100.582916 194.162402 
z
" clip-path="url(#peb2a1d362f)" style="stroke: #000000; stroke-linecap: round"/>
   </g>
   <g id="patch_5">
    <path d="M 44.683006 226.719895 
Q 75.429357 211.082031 105.179163 195.951018 
" clip-path="url(#peb2a1d362f)" style="fill: none; stroke: #000000; stroke-linecap: round"/>
    <path d="M 100.707133 195.981711 
L 105.179163 195.951018 
L 102.5205 199.547058 
z
" clip-path="url(#peb2a1d362f)" style="stroke: #000000; stroke-linecap: round"/>
   </g>
   <g id="patch_6">
    <path d="M 346.053946 287.568219 
Q 316.855127 265.666468 288.550697 244.435589 
" clip-path="url(#peb2a1d362f)" style="fill: none; stroke: #000000; stroke-linecap: round"/>
    <path d="M 290.550466 248.435705 
L 288.550697 244.435589 
L 292.950651 245.235843 
z
" clip-path="url(#peb2a1d362f)" style="stroke: #000000; stroke-linecap: round"/>
   </g>
   <g id="patch_7">
    <path d="M 419.211277 56.565694 
Q 392.344256 74.917776 366.400448 92.639238 
" clip-path="url(#peb2a1d362f)" style="fill: none; stroke: #000000; stroke-linecap: round"/>
    <path d="M 370.831516 92.034558 
L 366.400448 92.639238 
L 368.575344 88.731576 
z
" clip-path="url(#peb2a1d362f)" style="stroke: #000000; stroke-linecap: round"/>
   </g>
   <g id="patch_8">
    <path d="M 172.959416 45.110128 
Q 193.803722 72.473431 213.970531 98.947354 
" clip-path="url(#peb2a1d362f)" style="fill: none; stroke: #000000; stroke-linecap: round"/>
    <path d="M 213.13762 94.553465 
L 213.970531 98.947354 
L 209.955673 96.977349 
z
" clip-path="url(#peb2a1d362f)" style="stroke: #000000; stroke-linecap: round"/>
   </g>
   <g id="patch_9">
    <path d="M 235.706013 165.088781 
Q 212.305187 177.80054 189.8868 189.97862 
" clip-path="url(#peb2a1d362f)" style="fill: none; stroke: #000000; stroke-linecap: round"/>
    <path d="M 194.356355 189.826713 
L 189.8868 189.97862 
L 192.447007 186.311831 
z
" clip-path="url(#peb2a1d362f)" style="stroke: #000000; stroke-linecap: round"/>
   </g>
   <g id="patch_10">
    <path d="M 239.240794 163.541051 
Q 263.358716 155.337019 286.418166 147.49304 
" clip-path="url(#peb2a1d362f)" style="fill: none; stroke: #000000; stroke-linecap: round"/>
    <path d="M 281.987181 146.887754 
L 286.418166 147.49304 
L 283.275346 150.674656 
z
" clip-path="url(#peb2a1d362f)" style="stroke: #000000; stroke-linecap: round"/>
   </g>
   <g id="patch_11">
    <path d="M 188.902761 190.513168 
Q 212.303587 177.801409 234.721974 165.623329 
" clip-path="url(#peb2a1d362f)" style="fill: none; stroke: #000000; stroke-linecap: round"/>
    <path d="M 230.252418 165.775237 
L 234.721974 165.623329 
L 232.161767 169.290118 
z
" clip-path="url(#peb2a1d362f)" style="stroke: #000000; stroke-linecap: round"/>
   </g>
   <g id="patch_12">
    <path d="M 186.13064 193.050049 
Q 169.253329 218.458238 152.99463 242.935129 
" clip-path="url(#peb2a1d362f)" style="fill: none; stroke: #000000; stroke-linecap: round"/>
    <path d="M 156.873805 240.709819 
L 152.99463 242.935129 
L 153.541887 238.496603 
z
" clip-path="url(#peb2a1d362f)" style="stroke: #000000; stroke-linecap: round"/>
   </g>
   <g id="patch_13">
    <path d="M 188.919569 192.325482 
Q 236.655459 217.020456 283.398325 241.201714 
" clip-path="url(#peb2a1d362f)" style="fill: none; stroke: #000000; stroke-linecap: round"/>
    <path d="M 280.764539 237.587413 
L 283.398325 241.201714 
L 278.926613 241.140162 
z
" clip-path="url(#peb2a1d362f)" style="stroke: #000000; stroke-linecap: round"/>
   </g>
   <g id="patch_14">
    <path d="M 187.788178 189.592846 
Q 201.512408 146.407843 214.898014 104.288361 
" clip-path="url(#peb2a1d362f)" style="fill: none; stroke: #000000; stroke-linecap: round"/>
    <path d="M 211.780457 107.494735 
L 214.898014 104.288361 
L 215.59258 108.706231 
z
" clip-path="url(#peb2a1d362f)" style="stroke: #000000; stroke-linecap: round"/>
   </g>
   <g id="patch_15">
    <path d="M 185.270871 191.513219 
Q 147.551375 193.001967 110.949043 194.446622 
" clip-path="url(#peb2a1d362f)" style="fill: none; stroke: #000000; stroke-linecap: round"/>
    <path d="M 115.024807 196.287313 
L 110.949043 194.446622 
L 114.867054 192.290425 
z
" clip-path="url(#peb2a1d362f)" style="stroke: #000000; stroke-linecap: round"/>
   </g>
   <g id="patch_16">
    <path d="M 185.270871 191.513219 
Q 147.551375 193.001967 110.949043 194.446622 
" clip-path="url(#peb2a1d362f)" style="fill: none; stroke: #000000; stroke-linecap: round"/>
    <path d="M 115.024807 196.287313 
L 110.949043 194.446622 
L 114.867054 192.290425 
z
" clip-path="url(#peb2a1d362f)" style="stroke: #000000; stroke-linecap: round"/>
   </g>
   <g id="patch_17">
    <path d="M 152.373985 243.869488 
Q 169.251296 218.461299 185.509995 193.984408 
" clip-path="url(#peb2a1d362f)" style="fill: none; stroke: #000000; stroke-linecap: round"/>
    <path d="M 181.63082 196.209718 
L 185.509995 193.984408 
L 184.962738 198.422934 
z
" clip-path="url(#peb2a1d362f)" style="stroke: #000000; stroke-linecap: round"/>
   </g>
   <g id="patch_18">
    <path d="M 309.520508 313.769615 
Q 298.1168 279.105398 287.062479 245.503221 
" clip-path="url(#peb2a1d362f)" style="fill: none; stroke: #000000; stroke-linecap: round"/>
    <path d="M 286.412645 249.927893 
L 287.062479 245.503221 
L 290.212316 248.677891 
z
" clip-path="url(#peb2a1d362f)" style="stroke: #000000; stroke-linecap: round"/>
   </g>
   <g id="patch_19">
    <path d="M 288.041081 242.608358 
Q 321.363026 242.686394 353.56694 242.761811 
" clip-path="url(#peb2a1d362f)" style="fill: none; stroke: #000000; stroke-linecap: round"/>
    <path d="M 349.571635 240.752449 
L 353.56694 242.761811 
L 349.562268 244.752438 
z
" clip-path="url(#peb2a1d362f)" style="stroke: #000000; stroke-linecap: round"/>
   </g>
   <g id="patch_20">
    <path d="M 287.658796 243.766583 
Q 316.857615 265.668334 345.162045 286.899213 
" clip-path="url(#peb2a1d362f)" style="fill: none; stroke: #000000; stroke-linecap: round"/>
    <path d="M 343.162276 282.899097 
L 345.162045 286.899213 
L 340.762091 286.098958 
z
" clip-path="url(#peb2a1d362f)" style="stroke: #000000; stroke-linecap: round"/>
   </g>
   <g id="patch_21">
    <path d="M 284.391186 241.715346 
Q 236.655296 217.020372 189.912429 192.839114 
" clip-path="url(#peb2a1d362f)" style="fill: none; stroke: #000000; stroke-linecap: round"/>
    <path d="M 192.546215 196.453415 
L 189.912429 192.839114 
L 194.384142 192.900665 
z
" clip-path="url(#peb2a1d362f)" style="stroke: #000000; stroke-linecap: round"/>
   </g>
   <g id="patch_22">
    <path d="M 286.714065 244.444135 
Q 298.117772 279.108351 309.172093 312.710528 
" clip-path="url(#peb2a1d362f)" style="fill: none; stroke: #000000; stroke-linecap: round"/>
    <path d="M 309.821927 308.285857 
L 309.172093 312.710528 
L 306.022256 309.535859 
z
" clip-path="url(#peb2a1d362f)" style="stroke: #000000; stroke-linecap: round"/>
   </g>
   <g id="patch_23">
    <path d="M 286.172972 240.671288 
Q 287.707833 194.55777 289.205502 149.561667 
" clip-path="url(#peb2a1d362f)" style="fill: none; stroke: #000000; stroke-linecap: round"/>
    <path d="M 287.073545 153.492921 
L 289.205502 149.561667 
L 291.071331 153.625985 
z
" clip-path="url(#peb2a1d362f)" style="stroke: #000000; stroke-linecap: round"/>
   </g>
   <g id="patch_24">
    <path d="M 285.465622 244.429053 
Q 274.532034 275.463871 263.969949 305.444183 
" clip-path="url(#peb2a1d362f)" style="fill: none; stroke: #000000; stroke-linecap: round"/>
    <path d="M 267.18544 302.33603 
L 263.969949 305.444183 
L 263.412721 301.006898 
z
" clip-path="url(#peb2a1d362f)" style="stroke: #000000; stroke-linecap: round"/>
   </g>
   <g id="patch_25">
    <path d="M 216.06886 99.457231 
Q 220.395655 65.684003 224.580377 33.019745 
" clip-path="url(#peb2a1d362f)" style="fill: none; stroke: #000000; stroke-linecap: round"/>
    <path d="M 222.088292 36.733168 
L 224.580377 33.019745 
L 226.055865 37.241467 
z
" clip-path="url(#peb2a1d362f)" style="stroke: #000000; stroke-linecap: round"/>
   </g>
   <g id="patch_26">
    <path d="M 214.648092 99.83682 
Q 193.803786 72.473517 173.636977 45.999594 
" clip-path="url(#peb2a1d362f)" style="fill: none; stroke: #000000; stroke-linecap: round"/>
    <path d="M 174.469888 50.393483 
L 173.636977 45.999594 
L 177.651835 47.969599 
z
" clip-path="url(#peb2a1d362f)" style="stroke: #000000; stroke-linecap: round"/>
   </g>
   <g id="patch_27">
    <path d="M 215.236614 103.222914 
Q 201.512384 146.407917 188.126778 188.5274 
" clip-path="url(#peb2a1d362f)" style="fill: none; stroke: #000000; stroke-linecap: round"/>
    <path d="M 191.244335 185.321025 
L 188.126778 188.5274 
L 187.432212 184.109529 
z
" clip-path="url(#peb2a1d362f)" style="stroke: #000000; stroke-linecap: round"/>
   </g>
   <g id="patch_28">
    <path d="M 217.470971 102.391085 
Q 252.56363 123.94379 286.703588 144.911378 
" clip-path="url(#peb2a1d362f)" style="fill: none; stroke: #000000; stroke-linecap: round"/>
    <path d="M 284.341789 141.113759 
L 286.703588 144.911378 
L 282.248414 144.522246 
z
" clip-path="url(#peb2a1d362f)" style="stroke: #000000; stroke-linecap: round"/>
   </g>
   <g id="patch_29">
    <path d="M 287.472937 147.134245 
Q 263.355015 155.338278 240.295565 163.182257 
" clip-path="url(#peb2a1d362f)" style="fill: none; stroke: #000000; stroke-linecap: round"/>
    <path d="M 244.72655 163.787543 
L 240.295565 163.182257 
L 243.438385 160.00064 
z
" clip-path="url(#peb2a1d362f)" style="stroke: #000000; stroke-linecap: round"/>
   </g>
   <g id="patch_30">
    <path d="M 289.242739 148.442887 
Q 287.707879 194.556405 286.21021 239.552508 
" clip-path="url(#peb2a1d362f)" style="fill: none; stroke: #000000; stroke-linecap: round"/>
    <path d="M 288.342167 235.621254 
L 286.21021 239.552508 
L 284.344381 235.48819 
z
" clip-path="url(#peb2a1d362f)" style="stroke: #000000; stroke-linecap: round"/>
   </g>
   <g id="patch_31">
    <path d="M 287.658778 145.498023 
Q 252.566119 123.945318 218.426161 102.97773 
" clip-path="url(#peb2a1d362f)" style="fill: none; stroke: #000000; stroke-linecap: round"/>
    <path d="M 220.78796 106.775349 
L 218.426161 102.97773 
L 222.881335 103.366862 
z
" clip-path="url(#peb2a1d362f)" style="stroke: #000000; stroke-linecap: round"/>
   </g>
   <g id="patch_32">
    <path d="M 290.893282 145.401087 
Q 326.592502 120.436332 361.375494 96.112302 
" clip-path="url(#peb2a1d362f)" style="fill: none; stroke: #000000; stroke-linecap: round"/>
    <path d="M 356.951338 96.765632 
L 361.375494 96.112302 
L 359.243665 100.043625 
z
" clip-path="url(#peb2a1d362f)" style="stroke: #000000; stroke-linecap: round"/>
   </g>
   <g id="patch_33">
    <path d="M 365.481784 93.266751 
Q 392.348805 74.914669 418.292613 57.193206 
" clip-path="url(#peb2a1d362f)" style="fill: none; stroke: #000000; stroke-linecap: round"/>
    <path d="M 413.861546 57.797887 
L 418.292613 57.193206 
L 416.117717 61.100869 
z
" clip-path="url(#peb2a1d362f)" style="stroke: #000000; stroke-linecap: round"/>
   </g>
   <g id="patch_34">
    <path d="M 362.293619 95.47025 
Q 326.594399 120.435005 291.811407 144.759035 
" clip-path="url(#peb2a1d362f)" style="fill: none; stroke: #000000; stroke-linecap: round"/>
    <path d="M 296.235563 144.105704 
L 291.811407 144.759035 
L 293.943236 140.827711 
z
" clip-path="url(#peb2a1d362f)" style="stroke: #000000; stroke-linecap: round"/>
   </g>
   <g id="patch_35">
    <path d="M 106.072453 193.937473 
Q 73.943214 182.873737 42.871089 172.174019 
" clip-path="url(#peb2a1d362f)" style="fill: none; stroke: #000000; stroke-linecap: round"/>
    <path d="M 46.00196 175.367394 
L 42.871089 172.174019 
L 47.304312 171.585347 
z
" clip-path="url(#peb2a1d362f)" style="stroke: #000000; stroke-linecap: round"/>
   </g>
   <g id="patch_36">
    <path d="M 106.176231 195.4439 
Q 75.42988 211.081764 45.680074 226.212777 
" clip-path="url(#peb2a1d362f)" style="fill: none; stroke: #000000; stroke-linecap: round"/>
    <path d="M 50.152105 226.182084 
L 45.680074 226.212777 
L 48.338738 222.616737 
z
" clip-path="url(#peb2a1d362f)" style="stroke: #000000; stroke-linecap: round"/>
   </g>
   <g id="patch_37">
    <path d="M 109.831687 194.490723 
Q 147.551183 193.001975 184.153515 191.55732 
" clip-path="url(#peb2a1d362f)" style="fill: none; stroke: #000000; stroke-linecap: round"/>
    <path d="M 180.07775 189.716629 
L 184.153515 191.55732 
L 180.235503 193.713517 
z
" clip-path="url(#peb2a1d362f)" style="stroke: #000000; stroke-linecap: round"/>
   </g>
   <g id="patch_38">
    <path d="M 109.831687 194.490723 
Q 147.551183 193.001975 184.153515 191.55732 
" clip-path="url(#peb2a1d362f)" style="fill: none; stroke: #000000; stroke-linecap: round"/>
    <path d="M 180.07775 189.716629 
L 184.153515 191.55732 
L 180.235503 193.713517 
z
" clip-path="url(#peb2a1d362f)" style="stroke: #000000; stroke-linecap: round"/>
   </g>
   <g id="patch_39">
    <path d="M 263.597067 306.502603 
Q 274.530655 275.467784 285.09274 245.487473 
" clip-path="url(#peb2a1d362f)" style="fill: none; stroke: #000000; stroke-linecap: round"/>
    <path d="M 281.877249 248.595626 
L 285.09274 245.487473 
L 285.649968 249.924758 
z
" clip-path="url(#peb2a1d362f)" style="stroke: #000000; stroke-linecap: round"/>
   </g>
   <g id="PathCollection_1">
    <defs>
     <path id="m291c7d632c" d="M 0 1.936492 
C 0.513564 1.936492 1.006162 1.732451 1.369306 1.369306 
C 1.732451 1.006162 1.936492 0.513564 1.936492 0 
C 1.936492 -0.513564 1.732451 -1.006162 1.369306 -1.369306 
C 1.006162 -1.732451 0.513564 -1.936492 0 -1.936492 
C -0.513564 -1.936492 -1.006162 -1.732451 -1.369306 -1.369306 
C -1.732451 -1.006162 -1.936492 -0.513564 -1.936492 0 
C -1.936492 0.513564 -1.732451 1.006162 -1.369306 1.369306 
C -1.006162 1.732451 -0.513564 1.936492 0 1.936492 
z
" style="stroke: #1f78b4"/>
    </defs>
    <g clip-path="url(#peb2a1d362f)">
     <use xlink:href="#m291c7d632c" x="356.623048" y="242.768968" style="fill: #1f78b4; stroke: #1f78b4"/>
     <use xlink:href="#m291c7d632c" x="224.968517" y="29.990083" style="fill: #1f78b4; stroke: #1f78b4"/>
     <use xlink:href="#m291c7d632c" x="39.986777" y="171.180803" style="fill: #1f78b4; stroke: #1f78b4"/>
     <use xlink:href="#m291c7d632c" x="42.958786" y="227.596849" style="fill: #1f78b4; stroke: #1f78b4"/>
     <use xlink:href="#m291c7d632c" x="347.604093" y="288.730969" style="fill: #1f78b4; stroke: #1f78b4"/>
     <use xlink:href="#m291c7d632c" x="420.813223" y="55.471451" style="fill: #1f78b4; stroke: #1f78b4"/>
     <use xlink:href="#m291c7d632c" x="171.784822" y="43.568183" style="fill: #1f78b4; stroke: #1f78b4"/>
     <use xlink:href="#m291c7d632c" x="237.406668" y="164.164954" style="fill: #1f78b4; stroke: #1f78b4"/>
     <use xlink:href="#m291c7d632c" x="187.202106" y="191.436995" style="fill: #1f78b4; stroke: #1f78b4"/>
     <use xlink:href="#m291c7d632c" x="151.302519" y="245.482542" style="fill: #1f78b4; stroke: #1f78b4"/>
     <use xlink:href="#m291c7d632c" x="310.125924" y="315.609917" style="fill: #1f78b4; stroke: #1f78b4"/>
     <use xlink:href="#m291c7d632c" x="286.108649" y="242.603832" style="fill: #1f78b4; stroke: #1f78b4"/>
     <use xlink:href="#m291c7d632c" x="215.822686" y="101.378765" style="fill: #1f78b4; stroke: #1f78b4"/>
     <use xlink:href="#m291c7d632c" x="289.307063" y="146.510343" style="fill: #1f78b4; stroke: #1f78b4"/>
     <use xlink:href="#m291c7d632c" x="363.879838" y="94.360994" style="fill: #1f78b4; stroke: #1f78b4"/>
     <use xlink:href="#m291c7d632c" x="107.900452" y="194.566946" style="fill: #1f78b4; stroke: #1f78b4"/>
     <use xlink:href="#m291c7d632c" x="262.95404" y="308.327823" style="fill: #1f78b4; stroke: #1f78b4"/>
    </g>
   </g>
   <g id="text_1">
    <g clip-path="url(#peb2a1d362f)">
     <!-- 3 -->
     <g transform="translate(353.441798 245.528343) scale(0.1 -0.1)">
      <defs>
       <path id="DejaVuSans-33" d="M 2597 2516 
Q 3050 2419 3304 2112 
Q 3559 1806 3559 1356 
Q 3559 666 3084 287 
Q 2609 -91 1734 -91 
Q 1441 -91 1130 -33 
Q 819 25 488 141 
L 488 750 
Q 750 597 1062 519 
Q 1375 441 1716 441 
Q 2309 441 2620 675 
Q 2931 909 2931 1356 
Q 2931 1769 2642 2001 
Q 2353 2234 1838 2234 
L 1294 2234 
L 1294 2753 
L 1863 2753 
Q 2328 2753 2575 2939 
Q 2822 3125 2822 3475 
Q 2822 3834 2567 4026 
Q 2313 4219 1838 4219 
Q 1578 4219 1281 4162 
Q 984 4106 628 3988 
L 628 4550 
Q 988 4650 1302 4700 
Q 1616 4750 1894 4750 
Q 2613 4750 3031 4423 
Q 3450 4097 3450 3541 
Q 3450 3153 3228 2886 
Q 3006 2619 2597 2516 
z
" transform="scale(0.015625)"/>
      </defs>
      <use xlink:href="#DejaVuSans-33"/>
     </g>
    </g>
   </g>
   <g id="text_2">
    <g clip-path="url(#peb2a1d362f)">
     <!-- 4 -->
     <g transform="translate(221.787267 32.749458) scale(0.1 -0.1)">
      <defs>
       <path id="DejaVuSans-34" d="M 2419 4116 
L 825 1625 
L 2419 1625 
L 2419 4116 
z
M 2253 4666 
L 3047 4666 
L 3047 1625 
L 3713 1625 
L 3713 1100 
L 3047 1100 
L 3047 0 
L 2419 0 
L 2419 1100 
L 313 1100 
L 313 1709 
L 2253 4666 
z
" transform="scale(0.015625)"/>
      </defs>
      <use xlink:href="#DejaVuSans-34"/>
     </g>
    </g>
   </g>
   <g id="text_3">
    <g clip-path="url(#peb2a1d362f)">
     <!-- 6 -->
     <g transform="translate(36.805527 173.940178) scale(0.1 -0.1)">
      <defs>
       <path id="DejaVuSans-36" d="M 2113 2584 
Q 1688 2584 1439 2293 
Q 1191 2003 1191 1497 
Q 1191 994 1439 701 
Q 1688 409 2113 409 
Q 2538 409 2786 701 
Q 3034 994 3034 1497 
Q 3034 2003 2786 2293 
Q 2538 2584 2113 2584 
z
M 3366 4563 
L 3366 3988 
Q 3128 4100 2886 4159 
Q 2644 4219 2406 4219 
Q 1781 4219 1451 3797 
Q 1122 3375 1075 2522 
Q 1259 2794 1537 2939 
Q 1816 3084 2150 3084 
Q 2853 3084 3261 2657 
Q 3669 2231 3669 1497 
Q 3669 778 3244 343 
Q 2819 -91 2113 -91 
Q 1303 -91 875 529 
Q 447 1150 447 2328 
Q 447 3434 972 4092 
Q 1497 4750 2381 4750 
Q 2619 4750 2861 4703 
Q 3103 4656 3366 4563 
z
" transform="scale(0.015625)"/>
      </defs>
      <use xlink:href="#DejaVuSans-36"/>
     </g>
    </g>
   </g>
   <g id="text_4">
    <g clip-path="url(#peb2a1d362f)">
     <!-- 7 -->
     <g transform="translate(39.777536 230.356224) scale(0.1 -0.1)">
      <defs>
       <path id="DejaVuSans-37" d="M 525 4666 
L 3525 4666 
L 3525 4397 
L 1831 0 
L 1172 0 
L 2766 4134 
L 525 4134 
L 525 4666 
z
" transform="scale(0.015625)"/>
      </defs>
      <use xlink:href="#DejaVuSans-37"/>
     </g>
    </g>
   </g>
   <g id="text_5">
    <g clip-path="url(#peb2a1d362f)">
     <!-- 8 -->
     <g transform="translate(344.422843 291.490344) scale(0.1 -0.1)">
      <defs>
       <path id="DejaVuSans-38" d="M 2034 2216 
Q 1584 2216 1326 1975 
Q 1069 1734 1069 1313 
Q 1069 891 1326 650 
Q 1584 409 2034 409 
Q 2484 409 2743 651 
Q 3003 894 3003 1313 
Q 3003 1734 2745 1975 
Q 2488 2216 2034 2216 
z
M 1403 2484 
Q 997 2584 770 2862 
Q 544 3141 544 3541 
Q 544 4100 942 4425 
Q 1341 4750 2034 4750 
Q 2731 4750 3128 4425 
Q 3525 4100 3525 3541 
Q 3525 3141 3298 2862 
Q 3072 2584 2669 2484 
Q 3125 2378 3379 2068 
Q 3634 1759 3634 1313 
Q 3634 634 3220 271 
Q 2806 -91 2034 -91 
Q 1263 -91 848 271 
Q 434 634 434 1313 
Q 434 1759 690 2068 
Q 947 2378 1403 2484 
z
M 1172 3481 
Q 1172 3119 1398 2916 
Q 1625 2713 2034 2713 
Q 2441 2713 2670 2916 
Q 2900 3119 2900 3481 
Q 2900 3844 2670 4047 
Q 2441 4250 2034 4250 
Q 1625 4250 1398 4047 
Q 1172 3844 1172 3481 
z
" transform="scale(0.015625)"/>
      </defs>
      <use xlink:href="#DejaVuSans-38"/>
     </g>
    </g>
   </g>
   <g id="text_6">
    <g clip-path="url(#peb2a1d362f)">
     <!-- 9 -->
     <g transform="translate(417.631973 58.230826) scale(0.1 -0.1)">
      <defs>
       <path id="DejaVuSans-39" d="M 703 97 
L 703 672 
Q 941 559 1184 500 
Q 1428 441 1663 441 
Q 2288 441 2617 861 
Q 2947 1281 2994 2138 
Q 2813 1869 2534 1725 
Q 2256 1581 1919 1581 
Q 1219 1581 811 2004 
Q 403 2428 403 3163 
Q 403 3881 828 4315 
Q 1253 4750 1959 4750 
Q 2769 4750 3195 4129 
Q 3622 3509 3622 2328 
Q 3622 1225 3098 567 
Q 2575 -91 1691 -91 
Q 1453 -91 1209 -44 
Q 966 3 703 97 
z
M 1959 2075 
Q 2384 2075 2632 2365 
Q 2881 2656 2881 3163 
Q 2881 3666 2632 3958 
Q 2384 4250 1959 4250 
Q 1534 4250 1286 3958 
Q 1038 3666 1038 3163 
Q 1038 2656 1286 2365 
Q 1534 2075 1959 2075 
z
" transform="scale(0.015625)"/>
      </defs>
      <use xlink:href="#DejaVuSans-39"/>
     </g>
    </g>
   </g>
   <g id="text_7">
    <g clip-path="url(#peb2a1d362f)">
     <!-- 10 -->
     <g transform="translate(165.422322 46.327558) scale(0.1 -0.1)">
      <defs>
       <path id="DejaVuSans-31" d="M 794 531 
L 1825 531 
L 1825 4091 
L 703 3866 
L 703 4441 
L 1819 4666 
L 2450 4666 
L 2450 531 
L 3481 531 
L 3481 0 
L 794 0 
L 794 531 
z
" transform="scale(0.015625)"/>
       <path id="DejaVuSans-30" d="M 2034 4250 
Q 1547 4250 1301 3770 
Q 1056 3291 1056 2328 
Q 1056 1369 1301 889 
Q 1547 409 2034 409 
Q 2525 409 2770 889 
Q 3016 1369 3016 2328 
Q 3016 3291 2770 3770 
Q 2525 4250 2034 4250 
z
M 2034 4750 
Q 2819 4750 3233 4129 
Q 3647 3509 3647 2328 
Q 3647 1150 3233 529 
Q 2819 -91 2034 -91 
Q 1250 -91 836 529 
Q 422 1150 422 2328 
Q 422 3509 836 4129 
Q 1250 4750 2034 4750 
z
" transform="scale(0.015625)"/>
      </defs>
      <use xlink:href="#DejaVuSans-31"/>
      <use xlink:href="#DejaVuSans-30" x="63.623047"/>
     </g>
    </g>
   </g>
   <g id="text_8">
    <g clip-path="url(#peb2a1d362f)">
     <!-- 11 -->
     <g transform="translate(231.044168 166.924329) scale(0.1 -0.1)">
      <use xlink:href="#DejaVuSans-31"/>
      <use xlink:href="#DejaVuSans-31" x="63.623047"/>
     </g>
    </g>
   </g>
   <g id="text_9">
    <g clip-path="url(#peb2a1d362f)">
     <!-- 12 -->
     <g transform="translate(180.839606 194.19637) scale(0.1 -0.1)">
      <defs>
       <path id="DejaVuSans-32" d="M 1228 531 
L 3431 531 
L 3431 0 
L 469 0 
L 469 531 
Q 828 903 1448 1529 
Q 2069 2156 2228 2338 
Q 2531 2678 2651 2914 
Q 2772 3150 2772 3378 
Q 2772 3750 2511 3984 
Q 2250 4219 1831 4219 
Q 1534 4219 1204 4116 
Q 875 4013 500 3803 
L 500 4441 
Q 881 4594 1212 4672 
Q 1544 4750 1819 4750 
Q 2544 4750 2975 4387 
Q 3406 4025 3406 3419 
Q 3406 3131 3298 2873 
Q 3191 2616 2906 2266 
Q 2828 2175 2409 1742 
Q 1991 1309 1228 531 
z
" transform="scale(0.015625)"/>
      </defs>
      <use xlink:href="#DejaVuSans-31"/>
      <use xlink:href="#DejaVuSans-32" x="63.623047"/>
     </g>
    </g>
   </g>
   <g id="text_10">
    <g clip-path="url(#peb2a1d362f)">
     <!-- 15 -->
     <g transform="translate(144.940019 248.241917) scale(0.1 -0.1)">
      <defs>
       <path id="DejaVuSans-35" d="M 691 4666 
L 3169 4666 
L 3169 4134 
L 1269 4134 
L 1269 2991 
Q 1406 3038 1543 3061 
Q 1681 3084 1819 3084 
Q 2600 3084 3056 2656 
Q 3513 2228 3513 1497 
Q 3513 744 3044 326 
Q 2575 -91 1722 -91 
Q 1428 -91 1123 -41 
Q 819 9 494 109 
L 494 744 
Q 775 591 1075 516 
Q 1375 441 1709 441 
Q 2250 441 2565 725 
Q 2881 1009 2881 1497 
Q 2881 1984 2565 2268 
Q 2250 2553 1709 2553 
Q 1456 2553 1204 2497 
Q 953 2441 691 2322 
L 691 4666 
z
" transform="scale(0.015625)"/>
      </defs>
      <use xlink:href="#DejaVuSans-31"/>
      <use xlink:href="#DejaVuSans-35" x="63.623047"/>
     </g>
    </g>
   </g>
   <g id="text_11">
    <g clip-path="url(#peb2a1d362f)">
     <!-- 18 -->
     <g transform="translate(303.763424 318.369292) scale(0.1 -0.1)">
      <use xlink:href="#DejaVuSans-31"/>
      <use xlink:href="#DejaVuSans-38" x="63.623047"/>
     </g>
    </g>
   </g>
   <g id="text_12">
    <g clip-path="url(#peb2a1d362f)">
     <!-- 19 -->
     <g transform="translate(279.746149 245.363207) scale(0.1 -0.1)">
      <use xlink:href="#DejaVuSans-31"/>
      <use xlink:href="#DejaVuSans-39" x="63.623047"/>
     </g>
    </g>
   </g>
   <g id="text_13">
    <g clip-path="url(#peb2a1d362f)">
     <!-- 21 -->
     <g transform="translate(209.460186 104.13814) scale(0.1 -0.1)">
      <use xlink:href="#DejaVuSans-32"/>
      <use xlink:href="#DejaVuSans-31" x="63.623047"/>
     </g>
    </g>
   </g>
   <g id="text_14">
    <g clip-path="url(#peb2a1d362f)">
     <!-- 22 -->
     <g transform="translate(282.944563 149.269718) scale(0.1 -0.1)">
      <use xlink:href="#DejaVuSans-32"/>
      <use xlink:href="#DejaVuSans-32" x="63.623047"/>
     </g>
    </g>
   </g>
   <g id="text_15">
    <g clip-path="url(#peb2a1d362f)">
     <!-- 23 -->
     <g transform="translate(357.517338 97.120369) scale(0.1 -0.1)">
      <use xlink:href="#DejaVuSans-32"/>
      <use xlink:href="#DejaVuSans-33" x="63.623047"/>
     </g>
    </g>
   </g>
   <g id="text_16">
    <g clip-path="url(#peb2a1d362f)">
     <!-- 24 -->
     <g transform="translate(101.537952 197.326321) scale(0.1 -0.1)">
      <use xlink:href="#DejaVuSans-32"/>
      <use xlink:href="#DejaVuSans-34" x="63.623047"/>
     </g>
    </g>
   </g>
   <g id="text_17">
    <g clip-path="url(#peb2a1d362f)">
     <!-- 25 -->
     <g transform="translate(256.59154 311.087198) scale(0.1 -0.1)">
      <use xlink:href="#DejaVuSans-32"/>
      <use xlink:href="#DejaVuSans-35" x="63.623047"/>
     </g>
    </g>
   </g>
  </g>
 </g>
 <defs>
  <clipPath id="peb2a1d362f">
   <rect x="0" y="0" width="460.8" height="345.6"/>
  </clipPath>
 </defs>
</svg>
