<?xml version="1.0" encoding="utf-8" standalone="no"?>
<!DOCTYPE svg PUBLIC "-//W3C//DTD SVG 1.1//EN"
  "http://www.w3.org/Graphics/SVG/1.1/DTD/svg11.dtd">
<svg xmlns:xlink="http://www.w3.org/1999/xlink" width="460.8pt" height="345.6pt" viewBox="0 0 460.8 345.6" xmlns="http://www.w3.org/2000/svg" version="1.1">
 <metadata>
  <rdf:RDF xmlns:dc="http://purl.org/dc/elements/1.1/" xmlns:cc="http://creativecommons.org/ns#" xmlns:rdf="http://www.w3.org/1999/02/22-rdf-syntax-ns#">
   <cc:Work>
    <dc:type rdf:resource="http://purl.org/dc/dcmitype/StillImage"/>
    <dc:date>2024-02-07T14:35:07.672717</dc:date>
    <dc:format>image/svg+xml</dc:format>
    <dc:creator>
     <cc:Agent>
      <dc:title>Matplotlib v3.8.0, https://matplotlib.org/</dc:title>
     </cc:Agent>
    </dc:creator>
   </cc:Work>
  </rdf:RDF>
 </metadata>
 <defs>
  <style type="text/css">*{stroke-linejoin: round; stroke-linecap: butt}</style>
 </defs>
 <g id="figure_1">
  <g id="patch_1">
   <path d="M 0 345.6 
L 460.8 345.6 
L 460.8 0 
L 0 0 
z
" style="fill: #ffffff"/>
  </g>
  <g id="axes_1">
   <g id="patch_2">
    <path d="M 177.74041 228.900753 
Q 212.159026 226.466637 245.462394 224.111393 
" clip-path="url(#p007a96ceb6)" style="fill: none; stroke: #000000; stroke-linecap: round"/>
    <path d="M 241.33127 222.398555 
L 245.462394 224.111393 
L 241.613449 226.388589 
z
" clip-path="url(#p007a96ceb6)" style="stroke: #000000; stroke-linecap: round"/>
   </g>
   <g id="patch_3">
    <path d="M 216.250993 260.360116 
Q 231.738833 242.852478 246.485885 226.182236 
" clip-path="url(#p007a96ceb6)" style="fill: none; stroke: #000000; stroke-linecap: round"/>
    <path d="M 242.337579 227.853033 
L 246.485885 226.182236 
L 245.333539 230.503358 
z
" clip-path="url(#p007a96ceb6)" style="stroke: #000000; stroke-linecap: round"/>
   </g>
   <g id="patch_4">
    <path d="M 317.819523 105.948375 
Q 287.218555 119.679978 257.63763 132.953857 
" clip-path="url(#p007a96ceb6)" style="fill: none; stroke: #000000; stroke-linecap: round"/>
    <path d="M 262.105851 133.140959 
L 257.63763 132.953857 
L 260.468244 129.491542 
z
" clip-path="url(#p007a96ceb6)" style="stroke: #000000; stroke-linecap: round"/>
   </g>
   <g id="patch_5">
    <path d="M 330.534137 124.954435 
Q 293.65696 129.461092 257.889561 133.832125 
" clip-path="url(#p007a96ceb6)" style="fill: none; stroke: #000000; stroke-linecap: round"/>
    <path d="M 262.102632 135.332137 
L 257.889561 133.832125 
L 261.617413 131.361676 
z
" clip-path="url(#p007a96ceb6)" style="stroke: #000000; stroke-linecap: round"/>
   </g>
   <g id="patch_6">
    <path d="M 418.874643 210.639148 
Q 378.178383 210.62804 338.600156 210.617237 
" clip-path="url(#p007a96ceb6)" style="fill: none; stroke: #000000; stroke-linecap: round"/>
    <path d="M 342.59961 212.618329 
L 338.600156 210.617237 
L 342.600702 208.618329 
z
" clip-path="url(#p007a96ceb6)" style="stroke: #000000; stroke-linecap: round"/>
   </g>
   <g id="patch_7">
    <path d="M 310.820774 168.321422 
Q 278.554262 171.895294 247.398989 175.346084 
" clip-path="url(#p007a96ceb6)" style="fill: none; stroke: #000000; stroke-linecap: round"/>
    <path d="M 251.594852 176.893576 
L 247.398989 175.346084 
L 251.154501 172.917889 
z
" clip-path="url(#p007a96ceb6)" style="stroke: #000000; stroke-linecap: round"/>
   </g>
   <g id="patch_8">
    <path d="M 307.262145 309.603506 
Q 288.866297 292.252654 271.283782 275.668932 
" clip-path="url(#p007a96ceb6)" style="fill: none; stroke: #000000; stroke-linecap: round"/>
    <path d="M 272.821365 279.868437 
L 271.283782 275.668932 
L 275.565935 276.958568 
z
" clip-path="url(#p007a96ceb6)" style="stroke: #000000; stroke-linecap: round"/>
   </g>
   <g id="patch_9">
    <path d="M 255.979761 313.770213 
Q 262.219992 294.592047 268.114288 276.47705 
" clip-path="url(#p007a96ceb6)" style="fill: none; stroke: #000000; stroke-linecap: round"/>
    <path d="M 264.974775 279.661929 
L 268.114288 276.47705 
L 268.778484 280.899588 
z
" clip-path="url(#p007a96ceb6)" style="stroke: #000000; stroke-linecap: round"/>
   </g>
   <g id="patch_10">
    <path d="M 241.269796 101.648641 
Q 247.689431 117.033743 253.678529 131.387032 
" clip-path="url(#p007a96ceb6)" style="fill: none; stroke: #000000; stroke-linecap: round"/>
    <path d="M 253.983954 126.925338 
L 253.678529 131.387032 
L 250.292429 128.465675 
z
" clip-path="url(#p007a96ceb6)" style="stroke: #000000; stroke-linecap: round"/>
   </g>
   <g id="patch_11">
    <path d="M 45.399627 155.357339 
Q 80.68721 162.754287 114.880541 169.92186 
" clip-path="url(#p007a96ceb6)" style="fill: none; stroke: #000000; stroke-linecap: round"/>
    <path d="M 111.375947 167.143763 
L 114.880541 169.92186 
L 110.555307 171.058676 
z
" clip-path="url(#p007a96ceb6)" style="stroke: #000000; stroke-linecap: round"/>
   </g>
   <g id="patch_12">
    <path d="M 404.487625 234.093884 
Q 370.932475 222.666811 338.435673 211.600154 
" clip-path="url(#p007a96ceb6)" style="fill: none; stroke: #000000; stroke-linecap: round"/>
    <path d="M 341.577401 214.782848 
L 338.435673 211.600154 
L 342.866865 210.996388 
z
" clip-path="url(#p007a96ceb6)" style="stroke: #000000; stroke-linecap: round"/>
   </g>
   <g id="patch_13">
    <path d="M 254.365116 202.250173 
Q 251.689479 212.139019 249.30585 220.948637 
" clip-path="url(#p007a96ceb6)" style="fill: none; stroke: #000000; stroke-linecap: round"/>
    <path d="M 252.281149 217.609836 
L 249.30585 220.948637 
L 248.419989 216.565117 
z
" clip-path="url(#p007a96ceb6)" style="stroke: #000000; stroke-linecap: round"/>
   </g>
   <g id="patch_14">
    <path d="M 254.112506 198.599662 
Q 249.615871 188.032122 245.556992 178.493354 
" clip-path="url(#p007a96ceb6)" style="fill: none; stroke: #000000; stroke-linecap: round"/>
    <path d="M 245.282835 182.957078 
L 245.556992 178.493354 
L 248.963478 181.390914 
z
" clip-path="url(#p007a96ceb6)" style="stroke: #000000; stroke-linecap: round"/>
   </g>
   <g id="patch_15">
    <path d="M 246.578228 224.03248 
Q 212.159612 226.466596 178.856244 228.82184 
" clip-path="url(#p007a96ceb6)" style="fill: none; stroke: #000000; stroke-linecap: round"/>
    <path d="M 182.987368 230.534679 
L 178.856244 228.82184 
L 182.705189 226.544644 
z
" clip-path="url(#p007a96ceb6)" style="stroke: #000000; stroke-linecap: round"/>
   </g>
   <g id="patch_16">
    <path d="M 247.224804 225.346953 
Q 231.736964 242.854591 216.989913 259.524833 
" clip-path="url(#p007a96ceb6)" style="fill: none; stroke: #000000; stroke-linecap: round"/>
    <path d="M 221.138218 257.854037 
L 216.989913 259.524833 
L 218.142258 255.203711 
z
" clip-path="url(#p007a96ceb6)" style="stroke: #000000; stroke-linecap: round"/>
   </g>
   <g id="patch_17">
    <path d="M 249.013985 222.027337 
Q 251.689622 212.138491 254.073251 203.328873 
" clip-path="url(#p007a96ceb6)" style="fill: none; stroke: #000000; stroke-linecap: round"/>
    <path d="M 251.097952 206.667674 
L 254.073251 203.328873 
L 254.959112 207.712393 
z
" clip-path="url(#p007a96ceb6)" style="stroke: #000000; stroke-linecap: round"/>
   </g>
   <g id="patch_18">
    <path d="M 246.696403 224.589496 
Q 213.904412 237.140316 182.156587 249.291491 
" clip-path="url(#p007a96ceb6)" style="fill: none; stroke: #000000; stroke-linecap: round"/>
    <path d="M 186.607217 249.729541 
L 182.156587 249.291491 
L 185.177405 245.993817 
z
" clip-path="url(#p007a96ceb6)" style="stroke: #000000; stroke-linecap: round"/>
   </g>
   <g id="patch_19">
    <path d="M 248.644901 221.966246 
Q 251.680939 179.050228 254.63808 137.249457 
" clip-path="url(#p007a96ceb6)" style="fill: none; stroke: #000000; stroke-linecap: round"/>
    <path d="M 252.360797 141.09835 
L 254.63808 137.249457 
L 256.350825 141.380619 
z
" clip-path="url(#p007a96ceb6)" style="stroke: #000000; stroke-linecap: round"/>
   </g>
   <g id="patch_20">
    <path d="M 249.636396 225.473282 
Q 258.753353 238.221574 267.219946 250.060457 
" clip-path="url(#p007a96ceb6)" style="fill: none; stroke: #000000; stroke-linecap: round"/>
    <path d="M 266.519929 245.643447 
L 267.219946 250.060457 
L 263.266328 247.970264 
z
" clip-path="url(#p007a96ceb6)" style="stroke: #000000; stroke-linecap: round"/>
   </g>
   <g id="patch_21">
    <path d="M 250.423509 223.603785 
Q 292.027944 217.256147 332.527136 211.077137 
" clip-path="url(#p007a96ceb6)" style="fill: none; stroke: #000000; stroke-linecap: round"/>
    <path d="M 328.271243 209.70332 
L 332.527136 211.077137 
L 328.874546 213.657561 
z
" clip-path="url(#p007a96ceb6)" style="stroke: #000000; stroke-linecap: round"/>
   </g>
   <g id="patch_22">
    <path d="M 249.24971 225.687854 
Q 258.784152 248.733791 267.89118 270.746618 
" clip-path="url(#p007a96ceb6)" style="fill: none; stroke: #000000; stroke-linecap: round"/>
    <path d="M 268.210105 266.285869 
L 267.89118 270.746618 
L 264.513936 267.815028 
z
" clip-path="url(#p007a96ceb6)" style="stroke: #000000; stroke-linecap: round"/>
   </g>
   <g id="patch_23">
    <path d="M 249.24971 225.687854 
Q 258.784152 248.733791 267.89118 270.746618 
" clip-path="url(#p007a96ceb6)" style="fill: none; stroke: #000000; stroke-linecap: round"/>
    <path d="M 268.210105 266.285869 
L 267.89118 270.746618 
L 264.513936 267.815028 
z
" clip-path="url(#p007a96ceb6)" style="stroke: #000000; stroke-linecap: round"/>
   </g>
   <g id="patch_24">
    <path d="M 41.902543 180.399328 
Q 78.925342 175.598924 114.839388 170.942282 
" clip-path="url(#p007a96ceb6)" style="fill: none; stroke: #000000; stroke-linecap: round"/>
    <path d="M 110.615425 169.473222 
L 114.839388 170.942282 
L 111.129762 173.440017 
z
" clip-path="url(#p007a96ceb6)" style="stroke: #000000; stroke-linecap: round"/>
   </g>
   <g id="patch_25">
    <path d="M 147.810287 41.948939 
Q 173.960585 56.233992 199.129702 69.983058 
" clip-path="url(#p007a96ceb6)" style="fill: none; stroke: #000000; stroke-linecap: round"/>
    <path d="M 196.578123 66.31026 
L 199.129702 69.983058 
L 194.660516 69.820642 
z
" clip-path="url(#p007a96ceb6)" style="stroke: #000000; stroke-linecap: round"/>
   </g>
   <g id="patch_26">
    <path d="M 181.118734 249.68872 
Q 213.910725 237.1379 245.65855 224.986725 
" clip-path="url(#p007a96ceb6)" style="fill: none; stroke: #000000; stroke-linecap: round"/>
    <path d="M 241.20792 224.548675 
L 245.65855 224.986725 
L 242.637732 228.284399 
z
" clip-path="url(#p007a96ceb6)" style="stroke: #000000; stroke-linecap: round"/>
   </g>
   <g id="patch_27">
    <path d="M 198.021281 31.915628 
Q 199.82252 50.718243 201.517143 68.407919 
" clip-path="url(#p007a96ceb6)" style="fill: none; stroke: #000000; stroke-linecap: round"/>
    <path d="M 203.126586 64.235426 
L 201.517143 68.407919 
L 199.144814 64.616869 
z
" clip-path="url(#p007a96ceb6)" style="stroke: #000000; stroke-linecap: round"/>
   </g>
   <g id="patch_28">
    <path d="M 284.165756 95.808102 
Q 270.097382 114.2358 256.707446 131.774835 
" clip-path="url(#p007a96ceb6)" style="fill: none; stroke: #000000; stroke-linecap: round"/>
    <path d="M 260.724388 129.809083 
L 256.707446 131.774835 
L 257.54501 127.381831 
z
" clip-path="url(#p007a96ceb6)" style="stroke: #000000; stroke-linecap: round"/>
   </g>
   <g id="patch_29">
    <path d="M 200.111954 70.51963 
Q 173.961656 56.234577 148.792539 42.485511 
" clip-path="url(#p007a96ceb6)" style="fill: none; stroke: #000000; stroke-linecap: round"/>
    <path d="M 151.344118 46.15831 
L 148.792539 42.485511 
L 153.261725 42.647927 
z
" clip-path="url(#p007a96ceb6)" style="stroke: #000000; stroke-linecap: round"/>
   </g>
   <g id="patch_30">
    <path d="M 201.623743 69.520692 
Q 199.822505 50.718077 198.127882 33.028402 
" clip-path="url(#p007a96ceb6)" style="fill: none; stroke: #000000; stroke-linecap: round"/>
    <path d="M 196.518439 37.200894 
L 198.127882 33.028402 
L 200.50021 36.819451 
z
" clip-path="url(#p007a96ceb6)" style="stroke: #000000; stroke-linecap: round"/>
   </g>
   <g id="patch_31">
    <path d="M 203.059551 72.926678 
Q 228.332221 102.826257 252.883155 131.871964 
" clip-path="url(#p007a96ceb6)" style="fill: none; stroke: #000000; stroke-linecap: round"/>
    <path d="M 251.828444 127.525979 
L 252.883155 131.871964 
L 248.77354 130.108142 
z
" clip-path="url(#p007a96ceb6)" style="stroke: #000000; stroke-linecap: round"/>
   </g>
   <g id="patch_32">
    <path d="M 256.619653 133.410655 
Q 287.220621 119.679052 316.801546 106.405173 
" clip-path="url(#p007a96ceb6)" style="fill: none; stroke: #000000; stroke-linecap: round"/>
    <path d="M 312.333325 106.218071 
L 316.801546 106.405173 
L 313.970932 109.867488 
z
" clip-path="url(#p007a96ceb6)" style="stroke: #000000; stroke-linecap: round"/>
   </g>
   <g id="patch_33">
    <path d="M 256.771769 133.968727 
Q 293.648946 129.462071 329.416345 125.091037 
" clip-path="url(#p007a96ceb6)" style="fill: none; stroke: #000000; stroke-linecap: round"/>
    <path d="M 325.203274 123.591026 
L 329.416345 125.091037 
L 325.688493 127.561487 
z
" clip-path="url(#p007a96ceb6)" style="stroke: #000000; stroke-linecap: round"/>
   </g>
   <g id="patch_34">
    <path d="M 254.106611 132.41296 
Q 247.686976 117.027858 241.697878 102.674569 
" clip-path="url(#p007a96ceb6)" style="fill: none; stroke: #000000; stroke-linecap: round"/>
    <path d="M 241.392453 107.136263 
L 241.697878 102.674569 
L 245.083978 105.595926 
z
" clip-path="url(#p007a96ceb6)" style="stroke: #000000; stroke-linecap: round"/>
   </g>
   <g id="patch_35">
    <path d="M 254.717071 136.132875 
Q 251.681033 179.048893 248.723892 220.849664 
" clip-path="url(#p007a96ceb6)" style="fill: none; stroke: #000000; stroke-linecap: round"/>
    <path d="M 251.001176 217.000771 
L 248.723892 220.849664 
L 247.011148 216.718502 
z
" clip-path="url(#p007a96ceb6)" style="stroke: #000000; stroke-linecap: round"/>
   </g>
   <g id="patch_36">
    <path d="M 256.027712 132.665197 
Q 270.096086 114.237499 283.486022 96.698464 
" clip-path="url(#p007a96ceb6)" style="fill: none; stroke: #000000; stroke-linecap: round"/>
    <path d="M 279.46908 98.664216 
L 283.486022 96.698464 
L 282.648458 101.091468 
z
" clip-path="url(#p007a96ceb6)" style="stroke: #000000; stroke-linecap: round"/>
   </g>
   <g id="patch_37">
    <path d="M 253.602243 132.722702 
Q 228.329572 102.823123 203.778638 73.777416 
" clip-path="url(#p007a96ceb6)" style="fill: none; stroke: #000000; stroke-linecap: round"/>
    <path d="M 204.833349 78.123401 
L 203.778638 73.777416 
L 207.888253 75.541239 
z
" clip-path="url(#p007a96ceb6)" style="stroke: #000000; stroke-linecap: round"/>
   </g>
   <g id="patch_38">
    <path d="M 254.379038 136.079136 
Q 249.607859 154.940565 245.110861 172.718101 
" clip-path="url(#p007a96ceb6)" style="fill: none; stroke: #000000; stroke-linecap: round"/>
    <path d="M 248.030729 169.330717 
L 245.110861 172.718101 
L 244.152874 168.349777 
z
" clip-path="url(#p007a96ceb6)" style="stroke: #000000; stroke-linecap: round"/>
   </g>
   <g id="patch_39">
    <path d="M 252.991972 133.65971 
Q 224.165958 125.244965 196.413185 117.143516 
" clip-path="url(#p007a96ceb6)" style="fill: none; stroke: #000000; stroke-linecap: round"/>
    <path d="M 199.692489 120.184267 
L 196.413185 117.143516 
L 200.813368 116.344523 
z
" clip-path="url(#p007a96ceb6)" style="stroke: #000000; stroke-linecap: round"/>
   </g>
   <g id="patch_40">
    <path d="M 267.869659 250.968954 
Q 258.752701 238.220662 250.286109 226.38178 
" clip-path="url(#p007a96ceb6)" style="fill: none; stroke: #000000; stroke-linecap: round"/>
    <path d="M 250.986126 230.79879 
L 250.286109 226.38178 
L 254.239727 228.471973 
z
" clip-path="url(#p007a96ceb6)" style="stroke: #000000; stroke-linecap: round"/>
   </g>
   <g id="patch_41">
    <path d="M 337.485509 210.616933 
Q 378.18177 210.628041 417.759997 210.638844 
" clip-path="url(#p007a96ceb6)" style="fill: none; stroke: #000000; stroke-linecap: round"/>
    <path d="M 413.760543 208.637752 
L 417.759997 210.638844 
L 413.759451 212.637752 
z
" clip-path="url(#p007a96ceb6)" style="stroke: #000000; stroke-linecap: round"/>
   </g>
   <g id="patch_42">
    <path d="M 337.382871 211.241627 
Q 370.938021 222.6687 403.434823 233.735357 
" clip-path="url(#p007a96ceb6)" style="fill: none; stroke: #000000; stroke-linecap: round"/>
    <path d="M 400.293095 230.552662 
L 403.434823 233.735357 
L 399.003631 234.339123 
z
" clip-path="url(#p007a96ceb6)" style="stroke: #000000; stroke-linecap: round"/>
   </g>
   <g id="patch_43">
    <path d="M 333.631805 210.908597 
Q 292.02737 217.256235 251.528178 223.435244 
" clip-path="url(#p007a96ceb6)" style="fill: none; stroke: #000000; stroke-linecap: round"/>
    <path d="M 255.784071 224.809062 
L 251.528178 223.435244 
L 255.180768 220.85482 
z
" clip-path="url(#p007a96ceb6)" style="stroke: #000000; stroke-linecap: round"/>
   </g>
   <g id="patch_44">
    <path d="M 333.740909 209.924508 
Q 289.955157 193.149954 247.213446 176.775377 
" clip-path="url(#p007a96ceb6)" style="fill: none; stroke: #000000; stroke-linecap: round"/>
    <path d="M 250.233214 180.074013 
L 247.213446 176.775377 
L 251.664215 176.338744 
z
" clip-path="url(#p007a96ceb6)" style="stroke: #000000; stroke-linecap: round"/>
   </g>
   <g id="patch_45">
    <path d="M 246.285101 175.469459 
Q 278.551613 171.895587 309.706886 168.444797 
" clip-path="url(#p007a96ceb6)" style="fill: none; stroke: #000000; stroke-linecap: round"/>
    <path d="M 305.511023 166.897305 
L 309.706886 168.444797 
L 305.951374 170.872992 
z
" clip-path="url(#p007a96ceb6)" style="stroke: #000000; stroke-linecap: round"/>
   </g>
   <g id="patch_46">
    <path d="M 245.119179 177.464448 
Q 249.615814 188.031988 253.674692 197.570757 
" clip-path="url(#p007a96ceb6)" style="fill: none; stroke: #000000; stroke-linecap: round"/>
    <path d="M 253.948849 193.107032 
L 253.674692 197.570757 
L 250.268207 194.673197 
z
" clip-path="url(#p007a96ceb6)" style="stroke: #000000; stroke-linecap: round"/>
   </g>
   <g id="patch_47">
    <path d="M 244.835518 173.806586 
Q 249.606697 154.945156 254.103695 137.16762 
" clip-path="url(#p007a96ceb6)" style="fill: none; stroke: #000000; stroke-linecap: round"/>
    <path d="M 251.183827 140.555004 
L 254.103695 137.16762 
L 255.061682 141.535945 
z
" clip-path="url(#p007a96ceb6)" style="stroke: #000000; stroke-linecap: round"/>
   </g>
   <g id="patch_48">
    <path d="M 246.166989 176.374474 
Q 289.95274 193.149028 332.694452 209.523605 
" clip-path="url(#p007a96ceb6)" style="fill: none; stroke: #000000; stroke-linecap: round"/>
    <path d="M 329.674684 206.224969 
L 332.694452 209.523605 
L 328.243682 209.960238 
z
" clip-path="url(#p007a96ceb6)" style="stroke: #000000; stroke-linecap: round"/>
   </g>
   <g id="patch_49">
    <path d="M 242.427046 175.604089 
Q 181.117117 173.115814 120.924303 170.672877 
" clip-path="url(#p007a96ceb6)" style="fill: none; stroke: #000000; stroke-linecap: round"/>
    <path d="M 124.839909 172.833439 
L 120.924303 170.672877 
L 125.002117 168.836729 
z
" clip-path="url(#p007a96ceb6)" style="stroke: #000000; stroke-linecap: round"/>
   </g>
   <g id="patch_50">
    <path d="M 115.9797 170.152265 
Q 80.692117 162.755316 46.498786 155.587743 
" clip-path="url(#p007a96ceb6)" style="fill: none; stroke: #000000; stroke-linecap: round"/>
    <path d="M 50.003379 158.365841 
L 46.498786 155.587743 
L 50.82402 154.450927 
z
" clip-path="url(#p007a96ceb6)" style="stroke: #000000; stroke-linecap: round"/>
   </g>
   <g id="patch_51">
    <path d="M 115.95666 170.797416 
Q 78.933861 175.597819 43.019816 180.254462 
" clip-path="url(#p007a96ceb6)" style="fill: none; stroke: #000000; stroke-linecap: round"/>
    <path d="M 47.243779 181.723521 
L 43.019816 180.254462 
L 46.729441 177.756727 
z
" clip-path="url(#p007a96ceb6)" style="stroke: #000000; stroke-linecap: round"/>
   </g>
   <g id="patch_52">
    <path d="M 119.806348 170.627505 
Q 181.116277 173.11578 241.309091 175.558717 
" clip-path="url(#p007a96ceb6)" style="fill: none; stroke: #000000; stroke-linecap: round"/>
    <path d="M 237.393485 173.398155 
L 241.309091 175.558717 
L 237.231278 177.394865 
z
" clip-path="url(#p007a96ceb6)" style="stroke: #000000; stroke-linecap: round"/>
   </g>
   <g id="patch_53">
    <path d="M 270.469308 274.900725 
Q 288.865156 292.251577 306.447671 308.835299 
" clip-path="url(#p007a96ceb6)" style="fill: none; stroke: #000000; stroke-linecap: round"/>
    <path d="M 304.910088 304.635794 
L 306.447671 308.835299 
L 302.165517 307.545663 
z
" clip-path="url(#p007a96ceb6)" style="stroke: #000000; stroke-linecap: round"/>
   </g>
   <g id="patch_54">
    <path d="M 268.461171 275.41097 
Q 262.22094 294.589136 256.326644 312.704133 
" clip-path="url(#p007a96ceb6)" style="fill: none; stroke: #000000; stroke-linecap: round"/>
    <path d="M 259.466157 309.519254 
L 256.326644 312.704133 
L 255.662449 308.281595 
z
" clip-path="url(#p007a96ceb6)" style="stroke: #000000; stroke-linecap: round"/>
   </g>
   <g id="patch_55">
    <path d="M 268.318453 271.77939 
Q 258.784011 248.733452 249.676983 226.720625 
" clip-path="url(#p007a96ceb6)" style="fill: none; stroke: #000000; stroke-linecap: round"/>
    <path d="M 249.358057 231.181375 
L 249.676983 226.720625 
L 253.054227 229.652215 
z
" clip-path="url(#p007a96ceb6)" style="stroke: #000000; stroke-linecap: round"/>
   </g>
   <g id="patch_56">
    <path d="M 268.318453 271.77939 
Q 258.784011 248.733452 249.676983 226.720625 
" clip-path="url(#p007a96ceb6)" style="fill: none; stroke: #000000; stroke-linecap: round"/>
    <path d="M 249.358057 231.181375 
L 249.676983 226.720625 
L 253.054227 229.652215 
z
" clip-path="url(#p007a96ceb6)" style="stroke: #000000; stroke-linecap: round"/>
   </g>
   <g id="patch_57">
    <path d="M 195.345566 116.831862 
Q 224.17158 125.246607 251.924353 133.348056 
" clip-path="url(#p007a96ceb6)" style="fill: none; stroke: #000000; stroke-linecap: round"/>
    <path d="M 248.645049 130.307305 
L 251.924353 133.348056 
L 247.52417 134.147049 
z
" clip-path="url(#p007a96ceb6)" style="stroke: #000000; stroke-linecap: round"/>
   </g>
   <g id="PathCollection_1">
    <defs>
     <path id="C0_0_dc973878f8" d="M 0 1.936492 
C 0.513564 1.936492 1.006162 1.732451 1.369306 1.369306 
C 1.732451 1.006162 1.936492 0.513564 1.936492 -0 
C 1.936492 -0.513564 1.732451 -1.006162 1.369306 -1.369306 
C 1.006162 -1.732451 0.513564 -1.936492 0 -1.936492 
C -0.513564 -1.936492 -1.006162 -1.732451 -1.369306 -1.369306 
C -1.732451 -1.006162 -1.936492 -0.513564 -1.936492 0 
C -1.936492 0.513564 -1.732451 1.006162 -1.369306 1.369306 
C -1.006162 1.732451 -0.513564 1.936492 0 1.936492 
z
"/>
    </defs>
    <g clip-path="url(#p007a96ceb6)">
     <use xlink:href="#C0_0_dc973878f8" x="175.810253" y="229.037256" style="stroke: #000000"/>
    </g>
    <g clip-path="url(#p007a96ceb6)">
     <use xlink:href="#C0_0_dc973878f8" x="214.967412" y="261.811091" style="stroke: #000000"/>
    </g>
    <g clip-path="url(#p007a96ceb6)">
     <use xlink:href="#C0_0_dc973878f8" x="319.585588" y="105.155887" style="stroke: #000000"/>
    </g>
    <g clip-path="url(#p007a96ceb6)">
     <use xlink:href="#C0_0_dc973878f8" x="332.452318" y="124.720019" style="fill: #ff0000; stroke: #ff0000"/>
    </g>
    <g clip-path="url(#p007a96ceb6)">
     <use xlink:href="#C0_0_dc973878f8" x="420.813223" y="210.639677" style="fill: #ff0000; stroke: #ff0000"/>
    </g>
    <g clip-path="url(#p007a96ceb6)">
     <use xlink:href="#C0_0_dc973878f8" x="312.744907" y="168.108303" style="stroke: #000000"/>
    </g>
    <g clip-path="url(#p007a96ceb6)">
     <use xlink:href="#C0_0_dc973878f8" x="308.671675" y="310.932965" style="fill: #ff0000; stroke: #ff0000"/>
    </g>
    <g clip-path="url(#p007a96ceb6)">
     <use xlink:href="#C0_0_dc973878f8" x="255.381154" y="315.609917" style="fill: #ff0000; stroke: #ff0000"/>
    </g>
    <g clip-path="url(#p007a96ceb6)">
     <use xlink:href="#C0_0_dc973878f8" x="240.522819" y="99.858458" style="fill: #ff0000; stroke: #ff0000"/>
    </g>
    <g clip-path="url(#p007a96ceb6)">
     <use xlink:href="#C0_0_dc973878f8" x="43.506901" y="154.960587" style="fill: #ff0000; stroke: #ff0000"/>
    </g>
    <g clip-path="url(#p007a96ceb6)">
     <use xlink:href="#C0_0_dc973878f8" x="406.323567" y="234.719107" style="fill: #ff0000; stroke: #ff0000"/>
    </g>
    <g clip-path="url(#p007a96ceb6)">
     <use xlink:href="#C0_0_dc973878f8" x="254.870716" y="200.381532" style="fill: #ff0000; stroke: #ff0000"/>
    </g>
    <g clip-path="url(#p007a96ceb6)">
     <use xlink:href="#C0_0_dc973878f8" x="248.508385" y="223.895978" style="stroke: #000000"/>
    </g>
    <g clip-path="url(#p007a96ceb6)">
     <use xlink:href="#C0_0_dc973878f8" x="39.986777" y="180.647728" style="stroke: #000000"/>
    </g>
    <g clip-path="url(#p007a96ceb6)">
     <use xlink:href="#C0_0_dc973878f8" x="146.114036" y="41.022332" style="stroke: #000000"/>
    </g>
    <g clip-path="url(#p007a96ceb6)">
     <use xlink:href="#C0_0_dc973878f8" x="179.306752" y="250.382238" style="fill: #ff0000; stroke: #ff0000"/>
    </g>
    <g clip-path="url(#p007a96ceb6)">
     <use xlink:href="#C0_0_dc973878f8" x="197.836819" y="29.990083" style="stroke: #000000"/>
    </g>
    <g clip-path="url(#p007a96ceb6)">
     <use xlink:href="#C0_0_dc973878f8" x="285.33988" y="94.270156" style="stroke: #000000"/>
    </g>
    <g clip-path="url(#p007a96ceb6)">
     <use xlink:href="#C0_0_dc973878f8" x="201.808205" y="71.446237" style="fill: #ff0000; stroke: #ff0000"/>
    </g>
    <g clip-path="url(#p007a96ceb6)">
     <use xlink:href="#C0_0_dc973878f8" x="254.853588" y="134.203143" style="fill: #ff0000; stroke: #ff0000"/>
    </g>
    <g clip-path="url(#p007a96ceb6)">
     <use xlink:href="#C0_0_dc973878f8" x="268.99767" y="252.546259" style="stroke: #000000"/>
    </g>
    <g clip-path="url(#p007a96ceb6)">
     <use xlink:href="#C0_0_dc973878f8" x="335.546929" y="210.616404" style="fill: #ff0000; stroke: #ff0000"/>
    </g>
    <g clip-path="url(#p007a96ceb6)">
     <use xlink:href="#C0_0_dc973878f8" x="244.360968" y="175.682578" style="fill: #ff0000; stroke: #ff0000"/>
    </g>
    <g clip-path="url(#p007a96ceb6)">
     <use xlink:href="#C0_0_dc973878f8" x="117.872426" y="170.549016" style="fill: #ff0000; stroke: #ff0000"/>
    </g>
    <g clip-path="url(#p007a96ceb6)">
     <use xlink:href="#C0_0_dc973878f8" x="269.059778" y="273.571265" style="fill: #ff0000; stroke: #ff0000"/>
    </g>
    <g clip-path="url(#p007a96ceb6)">
     <use xlink:href="#C0_0_dc973878f8" x="193.48395" y="116.288429" style="fill: #ff0000; stroke: #ff0000"/>
    </g>
   </g>
   <g id="text_1">
    <g clip-path="url(#p007a96ceb6)">
     <!-- 0 -->
     <g transform="translate(172.629003 231.796631) scale(0.1 -0.1)">
      <defs>
       <path id="DejaVuSans-30" d="M 2034 4250 
Q 1547 4250 1301 3770 
Q 1056 3291 1056 2328 
Q 1056 1369 1301 889 
Q 1547 409 2034 409 
Q 2525 409 2770 889 
Q 3016 1369 3016 2328 
Q 3016 3291 2770 3770 
Q 2525 4250 2034 4250 
z
M 2034 4750 
Q 2819 4750 3233 4129 
Q 3647 3509 3647 2328 
Q 3647 1150 3233 529 
Q 2819 -91 2034 -91 
Q 1250 -91 836 529 
Q 422 1150 422 2328 
Q 422 3509 836 4129 
Q 1250 4750 2034 4750 
z
" transform="scale(0.015625)"/>
      </defs>
      <use xlink:href="#DejaVuSans-30"/>
     </g>
    </g>
   </g>
   <g id="text_2">
    <g clip-path="url(#p007a96ceb6)">
     <!-- 1 -->
     <g transform="translate(211.786162 264.570466) scale(0.1 -0.1)">
      <defs>
       <path id="DejaVuSans-31" d="M 794 531 
L 1825 531 
L 1825 4091 
L 703 3866 
L 703 4441 
L 1819 4666 
L 2450 4666 
L 2450 531 
L 3481 531 
L 3481 0 
L 794 0 
L 794 531 
z
" transform="scale(0.015625)"/>
      </defs>
      <use xlink:href="#DejaVuSans-31"/>
     </g>
    </g>
   </g>
   <g id="text_3">
    <g clip-path="url(#p007a96ceb6)">
     <!-- 2 -->
     <g transform="translate(316.404338 107.915262) scale(0.1 -0.1)">
      <defs>
       <path id="DejaVuSans-32" d="M 1228 531 
L 3431 531 
L 3431 0 
L 469 0 
L 469 531 
Q 828 903 1448 1529 
Q 2069 2156 2228 2338 
Q 2531 2678 2651 2914 
Q 2772 3150 2772 3378 
Q 2772 3750 2511 3984 
Q 2250 4219 1831 4219 
Q 1534 4219 1204 4116 
Q 875 4013 500 3803 
L 500 4441 
Q 881 4594 1212 4672 
Q 1544 4750 1819 4750 
Q 2544 4750 2975 4387 
Q 3406 4025 3406 3419 
Q 3406 3131 3298 2873 
Q 3191 2616 2906 2266 
Q 2828 2175 2409 1742 
Q 1991 1309 1228 531 
z
" transform="scale(0.015625)"/>
      </defs>
      <use xlink:href="#DejaVuSans-32"/>
     </g>
    </g>
   </g>
   <g id="text_4">
    <g clip-path="url(#p007a96ceb6)">
     <!-- 3 -->
     <g transform="translate(329.271068 127.479394) scale(0.1 -0.1)">
      <defs>
       <path id="DejaVuSans-33" d="M 2597 2516 
Q 3050 2419 3304 2112 
Q 3559 1806 3559 1356 
Q 3559 666 3084 287 
Q 2609 -91 1734 -91 
Q 1441 -91 1130 -33 
Q 819 25 488 141 
L 488 750 
Q 750 597 1062 519 
Q 1375 441 1716 441 
Q 2309 441 2620 675 
Q 2931 909 2931 1356 
Q 2931 1769 2642 2001 
Q 2353 2234 1838 2234 
L 1294 2234 
L 1294 2753 
L 1863 2753 
Q 2328 2753 2575 2939 
Q 2822 3125 2822 3475 
Q 2822 3834 2567 4026 
Q 2313 4219 1838 4219 
Q 1578 4219 1281 4162 
Q 984 4106 628 3988 
L 628 4550 
Q 988 4650 1302 4700 
Q 1616 4750 1894 4750 
Q 2613 4750 3031 4423 
Q 3450 4097 3450 3541 
Q 3450 3153 3228 2886 
Q 3006 2619 2597 2516 
z
" transform="scale(0.015625)"/>
      </defs>
      <use xlink:href="#DejaVuSans-33"/>
     </g>
    </g>
   </g>
   <g id="text_5">
    <g clip-path="url(#p007a96ceb6)">
     <!-- 4 -->
     <g transform="translate(417.631973 213.399052) scale(0.1 -0.1)">
      <defs>
       <path id="DejaVuSans-34" d="M 2419 4116 
L 825 1625 
L 2419 1625 
L 2419 4116 
z
M 2253 4666 
L 3047 4666 
L 3047 1625 
L 3713 1625 
L 3713 1100 
L 3047 1100 
L 3047 0 
L 2419 0 
L 2419 1100 
L 313 1100 
L 313 1709 
L 2253 4666 
z
" transform="scale(0.015625)"/>
      </defs>
      <use xlink:href="#DejaVuSans-34"/>
     </g>
    </g>
   </g>
   <g id="text_6">
    <g clip-path="url(#p007a96ceb6)">
     <!-- 5 -->
     <g transform="translate(309.563657 170.867678) scale(0.1 -0.1)">
      <defs>
       <path id="DejaVuSans-35" d="M 691 4666 
L 3169 4666 
L 3169 4134 
L 1269 4134 
L 1269 2991 
Q 1406 3038 1543 3061 
Q 1681 3084 1819 3084 
Q 2600 3084 3056 2656 
Q 3513 2228 3513 1497 
Q 3513 744 3044 326 
Q 2575 -91 1722 -91 
Q 1428 -91 1123 -41 
Q 819 9 494 109 
L 494 744 
Q 775 591 1075 516 
Q 1375 441 1709 441 
Q 2250 441 2565 725 
Q 2881 1009 2881 1497 
Q 2881 1984 2565 2268 
Q 2250 2553 1709 2553 
Q 1456 2553 1204 2497 
Q 953 2441 691 2322 
L 691 4666 
z
" transform="scale(0.015625)"/>
      </defs>
      <use xlink:href="#DejaVuSans-35"/>
     </g>
    </g>
   </g>
   <g id="text_7">
    <g clip-path="url(#p007a96ceb6)">
     <!-- 6 -->
     <g transform="translate(305.490425 313.69234) scale(0.1 -0.1)">
      <defs>
       <path id="DejaVuSans-36" d="M 2113 2584 
Q 1688 2584 1439 2293 
Q 1191 2003 1191 1497 
Q 1191 994 1439 701 
Q 1688 409 2113 409 
Q 2538 409 2786 701 
Q 3034 994 3034 1497 
Q 3034 2003 2786 2293 
Q 2538 2584 2113 2584 
z
M 3366 4563 
L 3366 3988 
Q 3128 4100 2886 4159 
Q 2644 4219 2406 4219 
Q 1781 4219 1451 3797 
Q 1122 3375 1075 2522 
Q 1259 2794 1537 2939 
Q 1816 3084 2150 3084 
Q 2853 3084 3261 2657 
Q 3669 2231 3669 1497 
Q 3669 778 3244 343 
Q 2819 -91 2113 -91 
Q 1303 -91 875 529 
Q 447 1150 447 2328 
Q 447 3434 972 4092 
Q 1497 4750 2381 4750 
Q 2619 4750 2861 4703 
Q 3103 4656 3366 4563 
z
" transform="scale(0.015625)"/>
      </defs>
      <use xlink:href="#DejaVuSans-36"/>
     </g>
    </g>
   </g>
   <g id="text_8">
    <g clip-path="url(#p007a96ceb6)">
     <!-- 7 -->
     <g transform="translate(252.199904 318.369292) scale(0.1 -0.1)">
      <defs>
       <path id="DejaVuSans-37" d="M 525 4666 
L 3525 4666 
L 3525 4397 
L 1831 0 
L 1172 0 
L 2766 4134 
L 525 4134 
L 525 4666 
z
" transform="scale(0.015625)"/>
      </defs>
      <use xlink:href="#DejaVuSans-37"/>
     </g>
    </g>
   </g>
   <g id="text_9">
    <g clip-path="url(#p007a96ceb6)">
     <!-- 8 -->
     <g transform="translate(237.341569 102.617833) scale(0.1 -0.1)">
      <defs>
       <path id="DejaVuSans-38" d="M 2034 2216 
Q 1584 2216 1326 1975 
Q 1069 1734 1069 1313 
Q 1069 891 1326 650 
Q 1584 409 2034 409 
Q 2484 409 2743 651 
Q 3003 894 3003 1313 
Q 3003 1734 2745 1975 
Q 2488 2216 2034 2216 
z
M 1403 2484 
Q 997 2584 770 2862 
Q 544 3141 544 3541 
Q 544 4100 942 4425 
Q 1341 4750 2034 4750 
Q 2731 4750 3128 4425 
Q 3525 4100 3525 3541 
Q 3525 3141 3298 2862 
Q 3072 2584 2669 2484 
Q 3125 2378 3379 2068 
Q 3634 1759 3634 1313 
Q 3634 634 3220 271 
Q 2806 -91 2034 -91 
Q 1263 -91 848 271 
Q 434 634 434 1313 
Q 434 1759 690 2068 
Q 947 2378 1403 2484 
z
M 1172 3481 
Q 1172 3119 1398 2916 
Q 1625 2713 2034 2713 
Q 2441 2713 2670 2916 
Q 2900 3119 2900 3481 
Q 2900 3844 2670 4047 
Q 2441 4250 2034 4250 
Q 1625 4250 1398 4047 
Q 1172 3844 1172 3481 
z
" transform="scale(0.015625)"/>
      </defs>
      <use xlink:href="#DejaVuSans-38"/>
     </g>
    </g>
   </g>
   <g id="text_10">
    <g clip-path="url(#p007a96ceb6)">
     <!-- 9 -->
     <g transform="translate(40.325651 157.719962) scale(0.1 -0.1)">
      <defs>
       <path id="DejaVuSans-39" d="M 703 97 
L 703 672 
Q 941 559 1184 500 
Q 1428 441 1663 441 
Q 2288 441 2617 861 
Q 2947 1281 2994 2138 
Q 2813 1869 2534 1725 
Q 2256 1581 1919 1581 
Q 1219 1581 811 2004 
Q 403 2428 403 3163 
Q 403 3881 828 4315 
Q 1253 4750 1959 4750 
Q 2769 4750 3195 4129 
Q 3622 3509 3622 2328 
Q 3622 1225 3098 567 
Q 2575 -91 1691 -91 
Q 1453 -91 1209 -44 
Q 966 3 703 97 
z
M 1959 2075 
Q 2384 2075 2632 2365 
Q 2881 2656 2881 3163 
Q 2881 3666 2632 3958 
Q 2384 4250 1959 4250 
Q 1534 4250 1286 3958 
Q 1038 3666 1038 3163 
Q 1038 2656 1286 2365 
Q 1534 2075 1959 2075 
z
" transform="scale(0.015625)"/>
      </defs>
      <use xlink:href="#DejaVuSans-39"/>
     </g>
    </g>
   </g>
   <g id="text_11">
    <g clip-path="url(#p007a96ceb6)">
     <!-- 10 -->
     <g transform="translate(399.961067 237.478482) scale(0.1 -0.1)">
      <use xlink:href="#DejaVuSans-31"/>
      <use xlink:href="#DejaVuSans-30" x="63.623047"/>
     </g>
    </g>
   </g>
   <g id="text_12">
    <g clip-path="url(#p007a96ceb6)">
     <!-- 11 -->
     <g transform="translate(248.508216 203.140907) scale(0.1 -0.1)">
      <use xlink:href="#DejaVuSans-31"/>
      <use xlink:href="#DejaVuSans-31" x="63.623047"/>
     </g>
    </g>
   </g>
   <g id="text_13">
    <g clip-path="url(#p007a96ceb6)">
     <!-- 12 -->
     <g transform="translate(242.145885 226.655353) scale(0.1 -0.1)">
      <use xlink:href="#DejaVuSans-31"/>
      <use xlink:href="#DejaVuSans-32" x="63.623047"/>
     </g>
    </g>
   </g>
   <g id="text_14">
    <g clip-path="url(#p007a96ceb6)">
     <!-- 13 -->
     <g transform="translate(33.624277 183.407103) scale(0.1 -0.1)">
      <use xlink:href="#DejaVuSans-31"/>
      <use xlink:href="#DejaVuSans-33" x="63.623047"/>
     </g>
    </g>
   </g>
   <g id="text_15">
    <g clip-path="url(#p007a96ceb6)">
     <!-- 14 -->
     <g transform="translate(139.751536 43.781707) scale(0.1 -0.1)">
      <use xlink:href="#DejaVuSans-31"/>
      <use xlink:href="#DejaVuSans-34" x="63.623047"/>
     </g>
    </g>
   </g>
   <g id="text_16">
    <g clip-path="url(#p007a96ceb6)">
     <!-- 15 -->
     <g transform="translate(172.944252 253.141613) scale(0.1 -0.1)">
      <use xlink:href="#DejaVuSans-31"/>
      <use xlink:href="#DejaVuSans-35" x="63.623047"/>
     </g>
    </g>
   </g>
   <g id="text_17">
    <g clip-path="url(#p007a96ceb6)">
     <!-- 16 -->
     <g transform="translate(191.474319 32.749458) scale(0.1 -0.1)">
      <use xlink:href="#DejaVuSans-31"/>
      <use xlink:href="#DejaVuSans-36" x="63.623047"/>
     </g>
    </g>
   </g>
   <g id="text_18">
    <g clip-path="url(#p007a96ceb6)">
     <!-- 17 -->
     <g transform="translate(278.97738 97.029531) scale(0.1 -0.1)">
      <use xlink:href="#DejaVuSans-31"/>
      <use xlink:href="#DejaVuSans-37" x="63.623047"/>
     </g>
    </g>
   </g>
   <g id="text_19">
    <g clip-path="url(#p007a96ceb6)">
     <!-- 18 -->
     <g transform="translate(195.445705 74.205612) scale(0.1 -0.1)">
      <use xlink:href="#DejaVuSans-31"/>
      <use xlink:href="#DejaVuSans-38" x="63.623047"/>
     </g>
    </g>
   </g>
   <g id="text_20">
    <g clip-path="url(#p007a96ceb6)">
     <!-- 19 -->
     <g transform="translate(248.491088 136.962518) scale(0.1 -0.1)">
      <use xlink:href="#DejaVuSans-31"/>
      <use xlink:href="#DejaVuSans-39" x="63.623047"/>
     </g>
    </g>
   </g>
   <g id="text_21">
    <g clip-path="url(#p007a96ceb6)">
     <!-- 20 -->
     <g transform="translate(262.63517 255.305634) scale(0.1 -0.1)">
      <use xlink:href="#DejaVuSans-32"/>
      <use xlink:href="#DejaVuSans-30" x="63.623047"/>
     </g>
    </g>
   </g>
   <g id="text_22">
    <g clip-path="url(#p007a96ceb6)">
     <!-- 21 -->
     <g transform="translate(329.184429 213.375779) scale(0.1 -0.1)">
      <use xlink:href="#DejaVuSans-32"/>
      <use xlink:href="#DejaVuSans-31" x="63.623047"/>
     </g>
    </g>
   </g>
   <g id="text_23">
    <g clip-path="url(#p007a96ceb6)">
     <!-- 22 -->
     <g transform="translate(237.998468 178.441953) scale(0.1 -0.1)">
      <use xlink:href="#DejaVuSans-32"/>
      <use xlink:href="#DejaVuSans-32" x="63.623047"/>
     </g>
    </g>
   </g>
   <g id="text_24">
    <g clip-path="url(#p007a96ceb6)">
     <!-- 23 -->
     <g transform="translate(111.509926 173.308391) scale(0.1 -0.1)">
      <use xlink:href="#DejaVuSans-32"/>
      <use xlink:href="#DejaVuSans-33" x="63.623047"/>
     </g>
    </g>
   </g>
   <g id="text_25">
    <g clip-path="url(#p007a96ceb6)">
     <!-- 24 -->
     <g transform="translate(262.697278 276.33064) scale(0.1 -0.1)">
      <use xlink:href="#DejaVuSans-32"/>
      <use xlink:href="#DejaVuSans-34" x="63.623047"/>
     </g>
    </g>
   </g>
   <g id="text_26">
    <g clip-path="url(#p007a96ceb6)">
     <!-- 25 -->
     <g transform="translate(187.12145 119.047804) scale(0.1 -0.1)">
      <use xlink:href="#DejaVuSans-32"/>
      <use xlink:href="#DejaVuSans-35" x="63.623047"/>
     </g>
    </g>
   </g>
  </g>
 </g>
 <defs>
  <clipPath id="p007a96ceb6">
   <rect x="0" y="0" width="460.8" height="345.6"/>
  </clipPath>
 </defs>
</svg>
