<?xml version="1.0" encoding="utf-8" standalone="no"?>
<!DOCTYPE svg PUBLIC "-//W3C//DTD SVG 1.1//EN"
  "http://www.w3.org/Graphics/SVG/1.1/DTD/svg11.dtd">
<svg xmlns:xlink="http://www.w3.org/1999/xlink" width="460.8pt" height="345.6pt" viewBox="0 0 460.8 345.6" xmlns="http://www.w3.org/2000/svg" version="1.1">
 <metadata>
  <rdf:RDF xmlns:dc="http://purl.org/dc/elements/1.1/" xmlns:cc="http://creativecommons.org/ns#" xmlns:rdf="http://www.w3.org/1999/02/22-rdf-syntax-ns#">
   <cc:Work>
    <dc:type rdf:resource="http://purl.org/dc/dcmitype/StillImage"/>
    <dc:date>2024-02-07T14:35:38.612205</dc:date>
    <dc:format>image/svg+xml</dc:format>
    <dc:creator>
     <cc:Agent>
      <dc:title>Matplotlib v3.8.0, https://matplotlib.org/</dc:title>
     </cc:Agent>
    </dc:creator>
   </cc:Work>
  </rdf:RDF>
 </metadata>
 <defs>
  <style type="text/css">*{stroke-linejoin: round; stroke-linecap: butt}</style>
 </defs>
 <g id="figure_1">
  <g id="patch_1">
   <path d="M 0 345.6 
L 460.8 345.6 
L 460.8 0 
L 0 0 
z
" style="fill: #ffffff"/>
  </g>
  <g id="axes_1">
   <g id="patch_2">
    <path d="M 230.147578 277.740709 
Q 263.069323 252.508634 295.103685 227.956672 
" clip-path="url(#pc156e80832)" style="fill: none; stroke: #000000; stroke-linecap: round"/>
    <path d="M 290.712269 228.802519 
L 295.103685 227.956672 
L 293.145513 231.977314 
z
" clip-path="url(#pc156e80832)" style="stroke: #000000; stroke-linecap: round"/>
   </g>
   <g id="patch_3">
    <path d="M 41.85088 288.921811 
Q 93.474647 274.274327 144.022838 259.932022 
" clip-path="url(#pc156e80832)" style="fill: none; stroke: #000000; stroke-linecap: round"/>
    <path d="M 139.628816 259.099814 
L 144.022838 259.932022 
L 140.720658 262.947915 
z
" clip-path="url(#pc156e80832)" style="stroke: #000000; stroke-linecap: round"/>
   </g>
   <g id="patch_4">
    <path d="M 145.098009 259.626958 
Q 93.474241 274.274442 42.926051 288.616747 
" clip-path="url(#pc156e80832)" style="fill: none; stroke: #000000; stroke-linecap: round"/>
    <path d="M 47.320073 289.448956 
L 42.926051 288.616747 
L 46.228231 285.600855 
z
" clip-path="url(#pc156e80832)" style="stroke: #000000; stroke-linecap: round"/>
   </g>
   <g id="patch_5">
    <path d="M 148.850607 258.684152 
Q 222.242834 242.599066 294.542949 226.753333 
" clip-path="url(#pc156e80832)" style="fill: none; stroke: #000000; stroke-linecap: round"/>
    <path d="M 290.207519 225.656042 
L 294.542949 226.753333 
L 291.063858 229.563302 
z
" clip-path="url(#pc156e80832)" style="stroke: #000000; stroke-linecap: round"/>
   </g>
   <g id="patch_6">
    <path d="M 299.059365 159.881424 
Q 298.315628 192.022399 297.597755 223.045639 
" clip-path="url(#pc156e80832)" style="fill: none; stroke: #000000; stroke-linecap: round"/>
    <path d="M 299.689754 219.092977 
L 297.597755 223.045639 
L 295.690825 219.000443 
z
" clip-path="url(#pc156e80832)" style="stroke: #000000; stroke-linecap: round"/>
   </g>
   <g id="patch_7">
    <path d="M 360.043682 302.364208 
Q 329.398763 264.980024 299.462627 228.460495 
" clip-path="url(#pc156e80832)" style="fill: none; stroke: #000000; stroke-linecap: round"/>
    <path d="M 300.451704 232.821885 
L 299.462627 228.460495 
L 303.545186 230.286067 
z
" clip-path="url(#pc156e80832)" style="stroke: #000000; stroke-linecap: round"/>
   </g>
   <g id="patch_8">
    <path d="M 212.095911 115.532832 
Q 254.218375 170.048436 295.657253 223.67933 
" clip-path="url(#pc156e80832)" style="fill: none; stroke: #000000; stroke-linecap: round"/>
    <path d="M 294.794195 219.291263 
L 295.657253 223.67933 
L 291.628965 221.736936 
z
" clip-path="url(#pc156e80832)" style="stroke: #000000; stroke-linecap: round"/>
   </g>
   <g id="patch_9">
    <path d="M 210.815562 112.067957 
Q 208.769647 71.997132 206.780742 33.042886 
" clip-path="url(#pc156e80832)" style="fill: none; stroke: #000000; stroke-linecap: round"/>
    <path d="M 204.987308 37.139665 
L 206.780742 33.042886 
L 208.982104 36.935701 
z
" clip-path="url(#pc156e80832)" style="stroke: #000000; stroke-linecap: round"/>
   </g>
   <g id="patch_10">
    <path d="M 209.205737 113.087043 
Q 164.48694 89.096537 120.753355 65.634571 
" clip-path="url(#pc156e80832)" style="fill: none; stroke: #000000; stroke-linecap: round"/>
    <path d="M 123.332674 69.287941 
L 120.753355 65.634571 
L 125.223643 65.763138 
z
" clip-path="url(#pc156e80832)" style="stroke: #000000; stroke-linecap: round"/>
   </g>
   <g id="patch_11">
    <path d="M 206.723707 31.925821 
Q 208.769622 71.996646 210.758527 110.950892 
" clip-path="url(#pc156e80832)" style="fill: none; stroke: #000000; stroke-linecap: round"/>
    <path d="M 212.551961 106.854113 
L 210.758527 110.950892 
L 208.557165 107.058077 
z
" clip-path="url(#pc156e80832)" style="stroke: #000000; stroke-linecap: round"/>
   </g>
   <g id="patch_12">
    <path d="M 119.771771 65.107976 
Q 164.490568 89.098483 208.224153 112.560448 
" clip-path="url(#pc156e80832)" style="fill: none; stroke: #000000; stroke-linecap: round"/>
    <path d="M 205.644834 108.907078 
L 208.224153 112.560448 
L 203.753866 112.431882 
z
" clip-path="url(#pc156e80832)" style="stroke: #000000; stroke-linecap: round"/>
   </g>
   <g id="patch_13">
    <path d="M 408.769451 264.159663 
Q 354.063184 245.442513 300.414749 227.087289 
" clip-path="url(#pc156e80832)" style="fill: none; stroke: #000000; stroke-linecap: round"/>
    <path d="M 303.551933 230.274463 
L 300.414749 227.087289 
L 304.846798 226.489846 
z
" clip-path="url(#pc156e80832)" style="stroke: #000000; stroke-linecap: round"/>
   </g>
   <g id="patch_14">
    <path d="M 288.270911 313.684106 
Q 292.797169 270.85528 297.205926 229.138295 
" clip-path="url(#pc156e80832)" style="fill: none; stroke: #000000; stroke-linecap: round"/>
    <path d="M 294.796613 232.905949 
L 297.205926 229.138295 
L 298.774461 233.326338 
z
" clip-path="url(#pc156e80832)" style="stroke: #000000; stroke-linecap: round"/>
   </g>
   <g id="patch_15">
    <path d="M 295.98967 227.277631 
Q 263.067925 252.509705 231.033563 277.061667 
" clip-path="url(#pc156e80832)" style="fill: none; stroke: #000000; stroke-linecap: round"/>
    <path d="M 235.42498 276.21582 
L 231.033563 277.061667 
L 232.991735 273.041026 
z
" clip-path="url(#pc156e80832)" style="stroke: #000000; stroke-linecap: round"/>
   </g>
   <g id="patch_16">
    <path d="M 295.638598 226.513204 
Q 222.246371 242.598291 149.946256 258.444023 
" clip-path="url(#pc156e80832)" style="fill: none; stroke: #000000; stroke-linecap: round"/>
    <path d="M 154.281686 259.541315 
L 149.946256 258.444023 
L 153.425347 255.634054 
z
" clip-path="url(#pc156e80832)" style="stroke: #000000; stroke-linecap: round"/>
   </g>
   <g id="patch_17">
    <path d="M 297.571852 224.16506 
Q 298.315589 192.024085 299.033462 161.000844 
" clip-path="url(#pc156e80832)" style="fill: none; stroke: #000000; stroke-linecap: round"/>
    <path d="M 296.941463 164.953507 
L 299.033462 161.000844 
L 300.940392 165.046041 
z
" clip-path="url(#pc156e80832)" style="stroke: #000000; stroke-linecap: round"/>
   </g>
   <g id="patch_18">
    <path d="M 298.754587 227.596747 
Q 329.399506 264.980931 359.335642 301.50046 
" clip-path="url(#pc156e80832)" style="fill: none; stroke: #000000; stroke-linecap: round"/>
    <path d="M 358.346565 297.13907 
L 359.335642 301.50046 
L 355.253083 299.674888 
z
" clip-path="url(#pc156e80832)" style="stroke: #000000; stroke-linecap: round"/>
   </g>
   <g id="patch_19">
    <path d="M 296.345579 224.570173 
Q 254.223114 170.05457 212.784237 116.423675 
" clip-path="url(#pc156e80832)" style="fill: none; stroke: #000000; stroke-linecap: round"/>
    <path d="M 213.647294 120.811742 
L 212.784237 116.423675 
L 216.812524 118.366069 
z
" clip-path="url(#pc156e80832)" style="stroke: #000000; stroke-linecap: round"/>
   </g>
   <g id="patch_20">
    <path d="M 299.35945 226.726231 
Q 354.065718 245.44338 407.714153 263.798604 
" clip-path="url(#pc156e80832)" style="fill: none; stroke: #000000; stroke-linecap: round"/>
    <path d="M 404.576969 260.611431 
L 407.714153 263.798604 
L 403.282104 264.396048 
z
" clip-path="url(#pc156e80832)" style="stroke: #000000; stroke-linecap: round"/>
   </g>
   <g id="patch_21">
    <path d="M 297.323569 228.025121 
Q 292.79731 270.853947 288.388554 312.570932 
" clip-path="url(#pc156e80832)" style="fill: none; stroke: #000000; stroke-linecap: round"/>
    <path d="M 290.797867 308.803278 
L 288.388554 312.570932 
L 286.820019 308.382889 
z
" clip-path="url(#pc156e80832)" style="stroke: #000000; stroke-linecap: round"/>
   </g>
   <g id="patch_22">
    <path d="M 299.1033 224.973185 
Q 340.495444 195.400459 380.977878 166.477678 
" clip-path="url(#pc156e80832)" style="fill: none; stroke: #000000; stroke-linecap: round"/>
    <path d="M 376.560545 167.175652 
L 380.977878 166.477678 
L 378.885858 170.430329 
z
" clip-path="url(#pc156e80832)" style="stroke: #000000; stroke-linecap: round"/>
   </g>
   <g id="patch_23">
    <path d="M 299.449677 225.885462 
Q 359.170334 219.242767 417.77981 212.723669 
" clip-path="url(#pc156e80832)" style="fill: none; stroke: #000000; stroke-linecap: round"/>
    <path d="M 413.583232 211.178118 
L 417.77981 212.723669 
L 414.025422 215.153601 
z
" clip-path="url(#pc156e80832)" style="stroke: #000000; stroke-linecap: round"/>
   </g>
   <g id="patch_24">
    <path d="M 381.889574 165.826315 
Q 340.49743 195.399041 300.014995 224.321822 
" clip-path="url(#pc156e80832)" style="fill: none; stroke: #000000; stroke-linecap: round"/>
    <path d="M 304.432329 223.623848 
L 300.014995 224.321822 
L 302.107016 220.369171 
z
" clip-path="url(#pc156e80832)" style="stroke: #000000; stroke-linecap: round"/>
   </g>
   <g id="patch_25">
    <path d="M 418.89064 212.600112 
Q 359.169982 219.242806 300.560506 225.761905 
" clip-path="url(#pc156e80832)" style="fill: none; stroke: #000000; stroke-linecap: round"/>
    <path d="M 304.757085 227.307456 
L 300.560506 225.761905 
L 304.314894 223.331973 
z
" clip-path="url(#pc156e80832)" style="stroke: #000000; stroke-linecap: round"/>
   </g>
   <g id="PathCollection_1">
    <defs>
     <path id="C0_0_ab86c9e4fb" d="M 0 1.936492 
C 0.513564 1.936492 1.006162 1.732451 1.369306 1.369306 
C 1.732451 1.006162 1.936492 0.513564 1.936492 -0 
C 1.936492 -0.513564 1.732451 -1.006162 1.369306 -1.369306 
C 1.006162 -1.732451 0.513564 -1.936492 0 -1.936492 
C -0.513564 -1.936492 -1.006162 -1.732451 -1.369306 -1.369306 
C -1.732451 -1.006162 -1.936492 -0.513564 -1.936492 0 
C -1.936492 0.513564 -1.732451 1.006162 -1.369306 1.369306 
C -1.006162 1.732451 -0.513564 1.936492 0 1.936492 
z
"/>
    </defs>
    <g clip-path="url(#pc156e80832)">
     <use xlink:href="#C0_0_ab86c9e4fb" x="228.610155" y="278.91903" style="fill: #ff0000; stroke: #ff0000"/>
    </g>
    <g clip-path="url(#pc156e80832)">
     <use xlink:href="#C0_0_ab86c9e4fb" x="39.986777" y="289.450723" style="fill: #ff0000; stroke: #ff0000"/>
    </g>
    <g clip-path="url(#pc156e80832)">
     <use xlink:href="#C0_0_ab86c9e4fb" x="146.962112" y="259.098046" style="stroke: #000000"/>
    </g>
    <g clip-path="url(#pc156e80832)">
     <use xlink:href="#C0_0_ab86c9e4fb" x="299.104124" y="157.947174" style="fill: #ff0000; stroke: #ff0000"/>
    </g>
    <g clip-path="url(#pc156e80832)">
     <use xlink:href="#C0_0_ab86c9e4fb" x="361.271175" y="303.861646" style="fill: #ff0000; stroke: #ff0000"/>
    </g>
    <g clip-path="url(#pc156e80832)">
     <use xlink:href="#C0_0_ab86c9e4fb" x="210.914396" y="114.003696" style="stroke: #000000"/>
    </g>
    <g clip-path="url(#pc156e80832)">
     <use xlink:href="#C0_0_ab86c9e4fb" x="206.624873" y="29.990083" style="fill: #ff0000; stroke: #ff0000"/>
    </g>
    <g clip-path="url(#pc156e80832)">
     <use xlink:href="#C0_0_ab86c9e4fb" x="118.063112" y="64.191324" style="fill: #ff0000; stroke: #ff0000"/>
    </g>
    <g clip-path="url(#pc156e80832)">
     <use xlink:href="#C0_0_ab86c9e4fb" x="410.601808" y="264.786584" style="fill: #ff0000; stroke: #ff0000"/>
    </g>
    <g clip-path="url(#pc156e80832)">
     <use xlink:href="#C0_0_ab86c9e4fb" x="288.067386" y="315.609917" style="fill: #ff0000; stroke: #ff0000"/>
    </g>
    <g clip-path="url(#pc156e80832)">
     <use xlink:href="#C0_0_ab86c9e4fb" x="297.527093" y="226.09931" style="fill: #ff0000; stroke: #ff0000"/>
    </g>
    <g clip-path="url(#pc156e80832)">
     <use xlink:href="#C0_0_ab86c9e4fb" x="383.465781" y="164.70019" style="fill: #ff0000; stroke: #ff0000"/>
    </g>
    <g clip-path="url(#pc156e80832)">
     <use xlink:href="#C0_0_ab86c9e4fb" x="420.813223" y="212.386264" style="fill: #ff0000; stroke: #ff0000"/>
    </g>
   </g>
   <g id="text_1">
    <g clip-path="url(#pc156e80832)">
     <!-- 0 -->
     <g transform="translate(225.428905 281.678405) scale(0.1 -0.1)">
      <defs>
       <path id="DejaVuSans-30" d="M 2034 4250 
Q 1547 4250 1301 3770 
Q 1056 3291 1056 2328 
Q 1056 1369 1301 889 
Q 1547 409 2034 409 
Q 2525 409 2770 889 
Q 3016 1369 3016 2328 
Q 3016 3291 2770 3770 
Q 2525 4250 2034 4250 
z
M 2034 4750 
Q 2819 4750 3233 4129 
Q 3647 3509 3647 2328 
Q 3647 1150 3233 529 
Q 2819 -91 2034 -91 
Q 1250 -91 836 529 
Q 422 1150 422 2328 
Q 422 3509 836 4129 
Q 1250 4750 2034 4750 
z
" transform="scale(0.015625)"/>
      </defs>
      <use xlink:href="#DejaVuSans-30"/>
     </g>
    </g>
   </g>
   <g id="text_2">
    <g clip-path="url(#pc156e80832)">
     <!-- 1 -->
     <g transform="translate(36.805527 292.210098) scale(0.1 -0.1)">
      <defs>
       <path id="DejaVuSans-31" d="M 794 531 
L 1825 531 
L 1825 4091 
L 703 3866 
L 703 4441 
L 1819 4666 
L 2450 4666 
L 2450 531 
L 3481 531 
L 3481 0 
L 794 0 
L 794 531 
z
" transform="scale(0.015625)"/>
      </defs>
      <use xlink:href="#DejaVuSans-31"/>
     </g>
    </g>
   </g>
   <g id="text_3">
    <g clip-path="url(#pc156e80832)">
     <!-- 2 -->
     <g transform="translate(143.780862 261.857421) scale(0.1 -0.1)">
      <defs>
       <path id="DejaVuSans-32" d="M 1228 531 
L 3431 531 
L 3431 0 
L 469 0 
L 469 531 
Q 828 903 1448 1529 
Q 2069 2156 2228 2338 
Q 2531 2678 2651 2914 
Q 2772 3150 2772 3378 
Q 2772 3750 2511 3984 
Q 2250 4219 1831 4219 
Q 1534 4219 1204 4116 
Q 875 4013 500 3803 
L 500 4441 
Q 881 4594 1212 4672 
Q 1544 4750 1819 4750 
Q 2544 4750 2975 4387 
Q 3406 4025 3406 3419 
Q 3406 3131 3298 2873 
Q 3191 2616 2906 2266 
Q 2828 2175 2409 1742 
Q 1991 1309 1228 531 
z
" transform="scale(0.015625)"/>
      </defs>
      <use xlink:href="#DejaVuSans-32"/>
     </g>
    </g>
   </g>
   <g id="text_4">
    <g clip-path="url(#pc156e80832)">
     <!-- 3 -->
     <g transform="translate(295.922874 160.706549) scale(0.1 -0.1)">
      <defs>
       <path id="DejaVuSans-33" d="M 2597 2516 
Q 3050 2419 3304 2112 
Q 3559 1806 3559 1356 
Q 3559 666 3084 287 
Q 2609 -91 1734 -91 
Q 1441 -91 1130 -33 
Q 819 25 488 141 
L 488 750 
Q 750 597 1062 519 
Q 1375 441 1716 441 
Q 2309 441 2620 675 
Q 2931 909 2931 1356 
Q 2931 1769 2642 2001 
Q 2353 2234 1838 2234 
L 1294 2234 
L 1294 2753 
L 1863 2753 
Q 2328 2753 2575 2939 
Q 2822 3125 2822 3475 
Q 2822 3834 2567 4026 
Q 2313 4219 1838 4219 
Q 1578 4219 1281 4162 
Q 984 4106 628 3988 
L 628 4550 
Q 988 4650 1302 4700 
Q 1616 4750 1894 4750 
Q 2613 4750 3031 4423 
Q 3450 4097 3450 3541 
Q 3450 3153 3228 2886 
Q 3006 2619 2597 2516 
z
" transform="scale(0.015625)"/>
      </defs>
      <use xlink:href="#DejaVuSans-33"/>
     </g>
    </g>
   </g>
   <g id="text_5">
    <g clip-path="url(#pc156e80832)">
     <!-- 4 -->
     <g transform="translate(358.089925 306.621021) scale(0.1 -0.1)">
      <defs>
       <path id="DejaVuSans-34" d="M 2419 4116 
L 825 1625 
L 2419 1625 
L 2419 4116 
z
M 2253 4666 
L 3047 4666 
L 3047 1625 
L 3713 1625 
L 3713 1100 
L 3047 1100 
L 3047 0 
L 2419 0 
L 2419 1100 
L 313 1100 
L 313 1709 
L 2253 4666 
z
" transform="scale(0.015625)"/>
      </defs>
      <use xlink:href="#DejaVuSans-34"/>
     </g>
    </g>
   </g>
   <g id="text_6">
    <g clip-path="url(#pc156e80832)">
     <!-- 5 -->
     <g transform="translate(207.733146 116.763071) scale(0.1 -0.1)">
      <defs>
       <path id="DejaVuSans-35" d="M 691 4666 
L 3169 4666 
L 3169 4134 
L 1269 4134 
L 1269 2991 
Q 1406 3038 1543 3061 
Q 1681 3084 1819 3084 
Q 2600 3084 3056 2656 
Q 3513 2228 3513 1497 
Q 3513 744 3044 326 
Q 2575 -91 1722 -91 
Q 1428 -91 1123 -41 
Q 819 9 494 109 
L 494 744 
Q 775 591 1075 516 
Q 1375 441 1709 441 
Q 2250 441 2565 725 
Q 2881 1009 2881 1497 
Q 2881 1984 2565 2268 
Q 2250 2553 1709 2553 
Q 1456 2553 1204 2497 
Q 953 2441 691 2322 
L 691 4666 
z
" transform="scale(0.015625)"/>
      </defs>
      <use xlink:href="#DejaVuSans-35"/>
     </g>
    </g>
   </g>
   <g id="text_7">
    <g clip-path="url(#pc156e80832)">
     <!-- 6 -->
     <g transform="translate(203.443623 32.749458) scale(0.1 -0.1)">
      <defs>
       <path id="DejaVuSans-36" d="M 2113 2584 
Q 1688 2584 1439 2293 
Q 1191 2003 1191 1497 
Q 1191 994 1439 701 
Q 1688 409 2113 409 
Q 2538 409 2786 701 
Q 3034 994 3034 1497 
Q 3034 2003 2786 2293 
Q 2538 2584 2113 2584 
z
M 3366 4563 
L 3366 3988 
Q 3128 4100 2886 4159 
Q 2644 4219 2406 4219 
Q 1781 4219 1451 3797 
Q 1122 3375 1075 2522 
Q 1259 2794 1537 2939 
Q 1816 3084 2150 3084 
Q 2853 3084 3261 2657 
Q 3669 2231 3669 1497 
Q 3669 778 3244 343 
Q 2819 -91 2113 -91 
Q 1303 -91 875 529 
Q 447 1150 447 2328 
Q 447 3434 972 4092 
Q 1497 4750 2381 4750 
Q 2619 4750 2861 4703 
Q 3103 4656 3366 4563 
z
" transform="scale(0.015625)"/>
      </defs>
      <use xlink:href="#DejaVuSans-36"/>
     </g>
    </g>
   </g>
   <g id="text_8">
    <g clip-path="url(#pc156e80832)">
     <!-- 7 -->
     <g transform="translate(114.881862 66.950699) scale(0.1 -0.1)">
      <defs>
       <path id="DejaVuSans-37" d="M 525 4666 
L 3525 4666 
L 3525 4397 
L 1831 0 
L 1172 0 
L 2766 4134 
L 525 4134 
L 525 4666 
z
" transform="scale(0.015625)"/>
      </defs>
      <use xlink:href="#DejaVuSans-37"/>
     </g>
    </g>
   </g>
   <g id="text_9">
    <g clip-path="url(#pc156e80832)">
     <!-- 8 -->
     <g transform="translate(407.420558 267.545959) scale(0.1 -0.1)">
      <defs>
       <path id="DejaVuSans-38" d="M 2034 2216 
Q 1584 2216 1326 1975 
Q 1069 1734 1069 1313 
Q 1069 891 1326 650 
Q 1584 409 2034 409 
Q 2484 409 2743 651 
Q 3003 894 3003 1313 
Q 3003 1734 2745 1975 
Q 2488 2216 2034 2216 
z
M 1403 2484 
Q 997 2584 770 2862 
Q 544 3141 544 3541 
Q 544 4100 942 4425 
Q 1341 4750 2034 4750 
Q 2731 4750 3128 4425 
Q 3525 4100 3525 3541 
Q 3525 3141 3298 2862 
Q 3072 2584 2669 2484 
Q 3125 2378 3379 2068 
Q 3634 1759 3634 1313 
Q 3634 634 3220 271 
Q 2806 -91 2034 -91 
Q 1263 -91 848 271 
Q 434 634 434 1313 
Q 434 1759 690 2068 
Q 947 2378 1403 2484 
z
M 1172 3481 
Q 1172 3119 1398 2916 
Q 1625 2713 2034 2713 
Q 2441 2713 2670 2916 
Q 2900 3119 2900 3481 
Q 2900 3844 2670 4047 
Q 2441 4250 2034 4250 
Q 1625 4250 1398 4047 
Q 1172 3844 1172 3481 
z
" transform="scale(0.015625)"/>
      </defs>
      <use xlink:href="#DejaVuSans-38"/>
     </g>
    </g>
   </g>
   <g id="text_10">
    <g clip-path="url(#pc156e80832)">
     <!-- 9 -->
     <g transform="translate(284.886136 318.369292) scale(0.1 -0.1)">
      <defs>
       <path id="DejaVuSans-39" d="M 703 97 
L 703 672 
Q 941 559 1184 500 
Q 1428 441 1663 441 
Q 2288 441 2617 861 
Q 2947 1281 2994 2138 
Q 2813 1869 2534 1725 
Q 2256 1581 1919 1581 
Q 1219 1581 811 2004 
Q 403 2428 403 3163 
Q 403 3881 828 4315 
Q 1253 4750 1959 4750 
Q 2769 4750 3195 4129 
Q 3622 3509 3622 2328 
Q 3622 1225 3098 567 
Q 2575 -91 1691 -91 
Q 1453 -91 1209 -44 
Q 966 3 703 97 
z
M 1959 2075 
Q 2384 2075 2632 2365 
Q 2881 2656 2881 3163 
Q 2881 3666 2632 3958 
Q 2384 4250 1959 4250 
Q 1534 4250 1286 3958 
Q 1038 3666 1038 3163 
Q 1038 2656 1286 2365 
Q 1534 2075 1959 2075 
z
" transform="scale(0.015625)"/>
      </defs>
      <use xlink:href="#DejaVuSans-39"/>
     </g>
    </g>
   </g>
   <g id="text_11">
    <g clip-path="url(#pc156e80832)">
     <!-- 10 -->
     <g transform="translate(291.164593 228.858685) scale(0.1 -0.1)">
      <use xlink:href="#DejaVuSans-31"/>
      <use xlink:href="#DejaVuSans-30" x="63.623047"/>
     </g>
    </g>
   </g>
   <g id="text_12">
    <g clip-path="url(#pc156e80832)">
     <!-- 11 -->
     <g transform="translate(377.103281 167.459565) scale(0.1 -0.1)">
      <use xlink:href="#DejaVuSans-31"/>
      <use xlink:href="#DejaVuSans-31" x="63.623047"/>
     </g>
    </g>
   </g>
   <g id="text_13">
    <g clip-path="url(#pc156e80832)">
     <!-- 12 -->
     <g transform="translate(414.450723 215.145639) scale(0.1 -0.1)">
      <use xlink:href="#DejaVuSans-31"/>
      <use xlink:href="#DejaVuSans-32" x="63.623047"/>
     </g>
    </g>
   </g>
  </g>
 </g>
 <defs>
  <clipPath id="pc156e80832">
   <rect x="0" y="0" width="460.8" height="345.6"/>
  </clipPath>
 </defs>
</svg>
