<?xml version="1.0" encoding="utf-8" standalone="no"?>
<!DOCTYPE svg PUBLIC "-//W3C//DTD SVG 1.1//EN"
  "http://www.w3.org/Graphics/SVG/1.1/DTD/svg11.dtd">
<svg xmlns:xlink="http://www.w3.org/1999/xlink" width="460.8pt" height="345.6pt" viewBox="0 0 460.8 345.6" xmlns="http://www.w3.org/2000/svg" version="1.1">
 <metadata>
  <rdf:RDF xmlns:dc="http://purl.org/dc/elements/1.1/" xmlns:cc="http://creativecommons.org/ns#" xmlns:rdf="http://www.w3.org/1999/02/22-rdf-syntax-ns#">
   <cc:Work>
    <dc:type rdf:resource="http://purl.org/dc/dcmitype/StillImage"/>
    <dc:date>2024-02-07T14:35:29.339442</dc:date>
    <dc:format>image/svg+xml</dc:format>
    <dc:creator>
     <cc:Agent>
      <dc:title>Matplotlib v3.8.0, https://matplotlib.org/</dc:title>
     </cc:Agent>
    </dc:creator>
   </cc:Work>
  </rdf:RDF>
 </metadata>
 <defs>
  <style type="text/css">*{stroke-linejoin: round; stroke-linecap: butt}</style>
 </defs>
 <g id="figure_1">
  <g id="patch_1">
   <path d="M 0 345.6 
L 460.8 345.6 
L 460.8 0 
L 0 0 
z
" style="fill: #ffffff"/>
  </g>
  <g id="axes_1">
   <g id="patch_2">
    <path d="M 180.214307 313.914553 
Q 209.25355 261.038461 237.754599 209.142341 
" clip-path="url(#p66da9a29fc)" style="fill: none; stroke: #000000; stroke-linecap: round"/>
    <path d="M 234.076065 211.685644 
L 237.754599 209.142341 
L 237.582121 213.61115 
z
" clip-path="url(#p66da9a29fc)" style="stroke: #000000; stroke-linecap: round"/>
   </g>
   <g id="patch_3">
    <path d="M 178.369011 313.897831 
Q 142.659825 247.023576 107.477266 181.135559 
" clip-path="url(#p66da9a29fc)" style="fill: none; stroke: #000000; stroke-linecap: round"/>
    <path d="M 107.597146 185.606088 
L 107.477266 181.135559 
L 111.125617 183.721973 
z
" clip-path="url(#p66da9a29fc)" style="stroke: #000000; stroke-linecap: round"/>
   </g>
   <g id="patch_4">
    <path d="M 148.466198 30.485428 
Q 227.948337 51.545414 306.349736 72.319041 
" clip-path="url(#p66da9a29fc)" style="fill: none; stroke: #000000; stroke-linecap: round"/>
    <path d="M 302.995417 69.361248 
L 306.349736 72.319041 
L 301.97091 73.227821 
z
" clip-path="url(#p66da9a29fc)" style="stroke: #000000; stroke-linecap: round"/>
   </g>
   <g id="patch_5">
    <path d="M 146.085544 31.861136 
Q 126.31709 104.218921 106.843288 175.498198 
" clip-path="url(#p66da9a29fc)" style="fill: none; stroke: #000000; stroke-linecap: round"/>
    <path d="M 109.826764 172.166701 
L 106.843288 175.498198 
L 105.968177 171.112519 
z
" clip-path="url(#p66da9a29fc)" style="stroke: #000000; stroke-linecap: round"/>
   </g>
   <g id="patch_6">
    <path d="M 307.433538 72.606211 
Q 227.951399 51.546225 149.549999 30.772597 
" clip-path="url(#p66da9a29fc)" style="fill: none; stroke: #000000; stroke-linecap: round"/>
    <path d="M 152.904319 33.73039 
L 149.549999 30.772597 
L 153.928826 29.863817 
z
" clip-path="url(#p66da9a29fc)" style="stroke: #000000; stroke-linecap: round"/>
   </g>
   <g id="patch_7">
    <path d="M 310.871805 74.243215 
Q 365.059087 113.676962 418.342373 152.452842 
" clip-path="url(#p66da9a29fc)" style="fill: none; stroke: #000000; stroke-linecap: round"/>
    <path d="M 416.284961 148.482067 
L 418.342373 152.452842 
L 413.931305 151.716306 
z
" clip-path="url(#p66da9a29fc)" style="stroke: #000000; stroke-linecap: round"/>
   </g>
   <g id="patch_8">
    <path d="M 308.402641 74.815023 
Q 274.263967 139.783286 240.645354 203.761834 
" clip-path="url(#p66da9a29fc)" style="fill: none; stroke: #000000; stroke-linecap: round"/>
    <path d="M 244.276441 201.151238 
L 240.645354 203.761834 
L 240.73553 199.290607 
z
" clip-path="url(#p66da9a29fc)" style="stroke: #000000; stroke-linecap: round"/>
   </g>
   <g id="patch_9">
    <path d="M 419.24443 153.109297 
Q 365.057148 113.67555 311.773862 74.89967 
" clip-path="url(#p66da9a29fc)" style="fill: none; stroke: #000000; stroke-linecap: round"/>
    <path d="M 313.831274 78.870445 
L 311.773862 74.89967 
L 316.18493 75.636205 
z
" clip-path="url(#p66da9a29fc)" style="stroke: #000000; stroke-linecap: round"/>
   </g>
   <g id="patch_10">
    <path d="M 418.953993 154.785578 
Q 330.019974 180.358614 242.160449 205.622678 
" clip-path="url(#p66da9a29fc)" style="fill: none; stroke: #000000; stroke-linecap: round"/>
    <path d="M 246.55738 206.439381 
L 242.160449 205.622678 
L 245.45197 202.595156 
z
" clip-path="url(#p66da9a29fc)" style="stroke: #000000; stroke-linecap: round"/>
   </g>
   <g id="patch_11">
    <path d="M 238.292738 208.162471 
Q 209.253494 261.038564 180.752445 312.934683 
" clip-path="url(#p66da9a29fc)" style="fill: none; stroke: #000000; stroke-linecap: round"/>
    <path d="M 184.430979 310.39138 
L 180.752445 312.934683 
L 180.924923 308.465875 
z
" clip-path="url(#p66da9a29fc)" style="stroke: #000000; stroke-linecap: round"/>
   </g>
   <g id="patch_12">
    <path d="M 240.124192 204.75364 
Q 274.262867 139.785377 307.88148 75.80683 
" clip-path="url(#p66da9a29fc)" style="fill: none; stroke: #000000; stroke-linecap: round"/>
    <path d="M 304.250393 78.417425 
L 307.88148 75.80683 
L 307.791304 80.278056 
z
" clip-path="url(#p66da9a29fc)" style="stroke: #000000; stroke-linecap: round"/>
   </g>
   <g id="patch_13">
    <path d="M 241.083052 205.932485 
Q 330.017071 180.359449 417.876596 155.095385 
" clip-path="url(#p66da9a29fc)" style="fill: none; stroke: #000000; stroke-linecap: round"/>
    <path d="M 413.479666 154.278681 
L 417.876596 155.095385 
L 414.585075 158.122907 
z
" clip-path="url(#p66da9a29fc)" style="stroke: #000000; stroke-linecap: round"/>
   </g>
   <g id="patch_14">
    <path d="M 237.360231 206.989545 
Q 139.605619 234.393993 42.927538 261.496647 
" clip-path="url(#p66da9a29fc)" style="fill: none; stroke: #000000; stroke-linecap: round"/>
    <path d="M 47.318921 262.342674 
L 42.927538 261.496647 
L 46.23919 258.491157 
z
" clip-path="url(#p66da9a29fc)" style="stroke: #000000; stroke-linecap: round"/>
   </g>
   <g id="patch_15">
    <path d="M 237.325711 206.067703 
Q 172.62991 192.454272 109.028184 179.071058 
" clip-path="url(#p66da9a29fc)" style="fill: none; stroke: #000000; stroke-linecap: round"/>
    <path d="M 112.530639 181.851851 
L 109.028184 179.071058 
L 113.354291 177.937569 
z
" clip-path="url(#p66da9a29fc)" style="stroke: #000000; stroke-linecap: round"/>
   </g>
   <g id="patch_16">
    <path d="M 41.850368 261.79862 
Q 139.60498 234.394172 236.28306 207.291518 
" clip-path="url(#p66da9a29fc)" style="fill: none; stroke: #000000; stroke-linecap: round"/>
    <path d="M 231.891678 206.445491 
L 236.28306 207.291518 
L 232.971409 210.297007 
z
" clip-path="url(#p66da9a29fc)" style="stroke: #000000; stroke-linecap: round"/>
   </g>
   <g id="patch_17">
    <path d="M 41.186151 260.797986 
Q 73.013887 220.380302 104.149924 180.840999 
" clip-path="url(#p66da9a29fc)" style="fill: none; stroke: #000000; stroke-linecap: round"/>
    <path d="M 100.103931 182.74624 
L 104.149924 180.840999 
L 103.246521 185.220938 
z
" clip-path="url(#p66da9a29fc)" style="stroke: #000000; stroke-linecap: round"/>
   </g>
   <g id="patch_18">
    <path d="M 106.953221 180.154156 
Q 142.662407 247.028411 177.844966 312.916428 
" clip-path="url(#p66da9a29fc)" style="fill: none; stroke: #000000; stroke-linecap: round"/>
    <path d="M 177.725086 308.445899 
L 177.844966 312.916428 
L 174.196615 310.330015 
z
" clip-path="url(#p66da9a29fc)" style="stroke: #000000; stroke-linecap: round"/>
   </g>
   <g id="patch_19">
    <path d="M 106.550189 176.571017 
Q 126.318644 104.213232 145.792445 32.933955 
" clip-path="url(#p66da9a29fc)" style="fill: none; stroke: #000000; stroke-linecap: round"/>
    <path d="M 142.808969 36.265451 
L 145.792445 32.933955 
L 146.667557 37.319634 
z
" clip-path="url(#p66da9a29fc)" style="stroke: #000000; stroke-linecap: round"/>
   </g>
   <g id="patch_20">
    <path d="M 107.937121 178.841475 
Q 172.632922 192.454905 236.234648 205.838119 
" clip-path="url(#p66da9a29fc)" style="fill: none; stroke: #000000; stroke-linecap: round"/>
    <path d="M 232.732192 203.057327 
L 236.234648 205.838119 
L 231.908541 206.971608 
z
" clip-path="url(#p66da9a29fc)" style="stroke: #000000; stroke-linecap: round"/>
   </g>
   <g id="patch_21">
    <path d="M 104.839636 179.965141 
Q 73.0119 220.382825 41.875863 259.922128 
" clip-path="url(#p66da9a29fc)" style="fill: none; stroke: #000000; stroke-linecap: round"/>
    <path d="M 45.921855 258.016887 
L 41.875863 259.922128 
L 42.779265 255.542189 
z
" clip-path="url(#p66da9a29fc)" style="stroke: #000000; stroke-linecap: round"/>
   </g>
   <g id="PathCollection_1">
    <defs>
     <path id="C0_0_985a196be2" d="M 0 1.936492 
C 0.513564 1.936492 1.006162 1.732451 1.369306 1.369306 
C 1.732451 1.006162 1.936492 0.513564 1.936492 -0 
C 1.936492 -0.513564 1.732451 -1.006162 1.369306 -1.369306 
C 1.006162 -1.732451 0.513564 -1.936492 0 -1.936492 
C -0.513564 -1.936492 -1.006162 -1.732451 -1.369306 -1.369306 
C -1.732451 -1.006162 -1.936492 -0.513564 -1.936492 0 
C -1.936492 0.513564 -1.732451 1.006162 -1.369306 1.369306 
C -1.006162 1.732451 -0.513564 1.936492 0 1.936492 
z
"/>
    </defs>
    <g clip-path="url(#p66da9a29fc)">
     <use xlink:href="#C0_0_985a196be2" x="179.283222" y="315.609917" style="fill: #ff0000; stroke: #ff0000"/>
    </g>
    <g clip-path="url(#p66da9a29fc)">
     <use xlink:href="#C0_0_985a196be2" x="146.596724" y="29.990083" style="stroke: #000000"/>
    </g>
    <g clip-path="url(#p66da9a29fc)">
     <use xlink:href="#C0_0_985a196be2" x="309.303012" y="73.101556" style="fill: #ff0000; stroke: #ff0000"/>
    </g>
    <g clip-path="url(#p66da9a29fc)">
     <use xlink:href="#C0_0_985a196be2" x="420.813223" y="154.250956" style="fill: #ff0000; stroke: #ff0000"/>
    </g>
    <g clip-path="url(#p66da9a29fc)">
     <use xlink:href="#C0_0_985a196be2" x="239.223822" y="206.467107" style="fill: #ff0000; stroke: #ff0000"/>
    </g>
    <g clip-path="url(#p66da9a29fc)">
     <use xlink:href="#C0_0_985a196be2" x="39.986777" y="262.321057" style="stroke: #000000"/>
    </g>
    <g clip-path="url(#p66da9a29fc)">
     <use xlink:href="#C0_0_985a196be2" x="106.03901" y="178.44207" style="stroke: #000000"/>
    </g>
   </g>
   <g id="text_1">
    <g clip-path="url(#p66da9a29fc)">
     <!-- 0 -->
     <g transform="translate(176.101972 318.369292) scale(0.1 -0.1)">
      <defs>
       <path id="DejaVuSans-30" d="M 2034 4250 
Q 1547 4250 1301 3770 
Q 1056 3291 1056 2328 
Q 1056 1369 1301 889 
Q 1547 409 2034 409 
Q 2525 409 2770 889 
Q 3016 1369 3016 2328 
Q 3016 3291 2770 3770 
Q 2525 4250 2034 4250 
z
M 2034 4750 
Q 2819 4750 3233 4129 
Q 3647 3509 3647 2328 
Q 3647 1150 3233 529 
Q 2819 -91 2034 -91 
Q 1250 -91 836 529 
Q 422 1150 422 2328 
Q 422 3509 836 4129 
Q 1250 4750 2034 4750 
z
" transform="scale(0.015625)"/>
      </defs>
      <use xlink:href="#DejaVuSans-30"/>
     </g>
    </g>
   </g>
   <g id="text_2">
    <g clip-path="url(#p66da9a29fc)">
     <!-- 1 -->
     <g transform="translate(143.415474 32.749458) scale(0.1 -0.1)">
      <defs>
       <path id="DejaVuSans-31" d="M 794 531 
L 1825 531 
L 1825 4091 
L 703 3866 
L 703 4441 
L 1819 4666 
L 2450 4666 
L 2450 531 
L 3481 531 
L 3481 0 
L 794 0 
L 794 531 
z
" transform="scale(0.015625)"/>
      </defs>
      <use xlink:href="#DejaVuSans-31"/>
     </g>
    </g>
   </g>
   <g id="text_3">
    <g clip-path="url(#p66da9a29fc)">
     <!-- 2 -->
     <g transform="translate(306.121762 75.860931) scale(0.1 -0.1)">
      <defs>
       <path id="DejaVuSans-32" d="M 1228 531 
L 3431 531 
L 3431 0 
L 469 0 
L 469 531 
Q 828 903 1448 1529 
Q 2069 2156 2228 2338 
Q 2531 2678 2651 2914 
Q 2772 3150 2772 3378 
Q 2772 3750 2511 3984 
Q 2250 4219 1831 4219 
Q 1534 4219 1204 4116 
Q 875 4013 500 3803 
L 500 4441 
Q 881 4594 1212 4672 
Q 1544 4750 1819 4750 
Q 2544 4750 2975 4387 
Q 3406 4025 3406 3419 
Q 3406 3131 3298 2873 
Q 3191 2616 2906 2266 
Q 2828 2175 2409 1742 
Q 1991 1309 1228 531 
z
" transform="scale(0.015625)"/>
      </defs>
      <use xlink:href="#DejaVuSans-32"/>
     </g>
    </g>
   </g>
   <g id="text_4">
    <g clip-path="url(#p66da9a29fc)">
     <!-- 3 -->
     <g transform="translate(417.631973 157.010331) scale(0.1 -0.1)">
      <defs>
       <path id="DejaVuSans-33" d="M 2597 2516 
Q 3050 2419 3304 2112 
Q 3559 1806 3559 1356 
Q 3559 666 3084 287 
Q 2609 -91 1734 -91 
Q 1441 -91 1130 -33 
Q 819 25 488 141 
L 488 750 
Q 750 597 1062 519 
Q 1375 441 1716 441 
Q 2309 441 2620 675 
Q 2931 909 2931 1356 
Q 2931 1769 2642 2001 
Q 2353 2234 1838 2234 
L 1294 2234 
L 1294 2753 
L 1863 2753 
Q 2328 2753 2575 2939 
Q 2822 3125 2822 3475 
Q 2822 3834 2567 4026 
Q 2313 4219 1838 4219 
Q 1578 4219 1281 4162 
Q 984 4106 628 3988 
L 628 4550 
Q 988 4650 1302 4700 
Q 1616 4750 1894 4750 
Q 2613 4750 3031 4423 
Q 3450 4097 3450 3541 
Q 3450 3153 3228 2886 
Q 3006 2619 2597 2516 
z
" transform="scale(0.015625)"/>
      </defs>
      <use xlink:href="#DejaVuSans-33"/>
     </g>
    </g>
   </g>
   <g id="text_5">
    <g clip-path="url(#p66da9a29fc)">
     <!-- 4 -->
     <g transform="translate(236.042572 209.226482) scale(0.1 -0.1)">
      <defs>
       <path id="DejaVuSans-34" d="M 2419 4116 
L 825 1625 
L 2419 1625 
L 2419 4116 
z
M 2253 4666 
L 3047 4666 
L 3047 1625 
L 3713 1625 
L 3713 1100 
L 3047 1100 
L 3047 0 
L 2419 0 
L 2419 1100 
L 313 1100 
L 313 1709 
L 2253 4666 
z
" transform="scale(0.015625)"/>
      </defs>
      <use xlink:href="#DejaVuSans-34"/>
     </g>
    </g>
   </g>
   <g id="text_6">
    <g clip-path="url(#p66da9a29fc)">
     <!-- 5 -->
     <g transform="translate(36.805527 265.080432) scale(0.1 -0.1)">
      <defs>
       <path id="DejaVuSans-35" d="M 691 4666 
L 3169 4666 
L 3169 4134 
L 1269 4134 
L 1269 2991 
Q 1406 3038 1543 3061 
Q 1681 3084 1819 3084 
Q 2600 3084 3056 2656 
Q 3513 2228 3513 1497 
Q 3513 744 3044 326 
Q 2575 -91 1722 -91 
Q 1428 -91 1123 -41 
Q 819 9 494 109 
L 494 744 
Q 775 591 1075 516 
Q 1375 441 1709 441 
Q 2250 441 2565 725 
Q 2881 1009 2881 1497 
Q 2881 1984 2565 2268 
Q 2250 2553 1709 2553 
Q 1456 2553 1204 2497 
Q 953 2441 691 2322 
L 691 4666 
z
" transform="scale(0.015625)"/>
      </defs>
      <use xlink:href="#DejaVuSans-35"/>
     </g>
    </g>
   </g>
   <g id="text_7">
    <g clip-path="url(#p66da9a29fc)">
     <!-- 6 -->
     <g transform="translate(102.85776 181.201445) scale(0.1 -0.1)">
      <defs>
       <path id="DejaVuSans-36" d="M 2113 2584 
Q 1688 2584 1439 2293 
Q 1191 2003 1191 1497 
Q 1191 994 1439 701 
Q 1688 409 2113 409 
Q 2538 409 2786 701 
Q 3034 994 3034 1497 
Q 3034 2003 2786 2293 
Q 2538 2584 2113 2584 
z
M 3366 4563 
L 3366 3988 
Q 3128 4100 2886 4159 
Q 2644 4219 2406 4219 
Q 1781 4219 1451 3797 
Q 1122 3375 1075 2522 
Q 1259 2794 1537 2939 
Q 1816 3084 2150 3084 
Q 2853 3084 3261 2657 
Q 3669 2231 3669 1497 
Q 3669 778 3244 343 
Q 2819 -91 2113 -91 
Q 1303 -91 875 529 
Q 447 1150 447 2328 
Q 447 3434 972 4092 
Q 1497 4750 2381 4750 
Q 2619 4750 2861 4703 
Q 3103 4656 3366 4563 
z
" transform="scale(0.015625)"/>
      </defs>
      <use xlink:href="#DejaVuSans-36"/>
     </g>
    </g>
   </g>
  </g>
 </g>
 <defs>
  <clipPath id="p66da9a29fc">
   <rect x="0" y="0" width="460.8" height="345.6"/>
  </clipPath>
 </defs>
</svg>
