<?xml version="1.0" encoding="utf-8" standalone="no"?>
<!DOCTYPE svg PUBLIC "-//W3C//DTD SVG 1.1//EN"
  "http://www.w3.org/Graphics/SVG/1.1/DTD/svg11.dtd">
<svg xmlns:xlink="http://www.w3.org/1999/xlink" width="460.8pt" height="345.6pt" viewBox="0 0 460.8 345.6" xmlns="http://www.w3.org/2000/svg" version="1.1">
 <metadata>
  <rdf:RDF xmlns:dc="http://purl.org/dc/elements/1.1/" xmlns:cc="http://creativecommons.org/ns#" xmlns:rdf="http://www.w3.org/1999/02/22-rdf-syntax-ns#">
   <cc:Work>
    <dc:type rdf:resource="http://purl.org/dc/dcmitype/StillImage"/>
    <dc:date>2024-02-07T14:34:22.237664</dc:date>
    <dc:format>image/svg+xml</dc:format>
    <dc:creator>
     <cc:Agent>
      <dc:title>Matplotlib v3.8.0, https://matplotlib.org/</dc:title>
     </cc:Agent>
    </dc:creator>
   </cc:Work>
  </rdf:RDF>
 </metadata>
 <defs>
  <style type="text/css">*{stroke-linejoin: round; stroke-linecap: butt}</style>
 </defs>
 <g id="figure_1">
  <g id="patch_1">
   <path d="M 0 345.6 
L 460.8 345.6 
L 460.8 0 
L 0 0 
z
" style="fill: #ffffff"/>
  </g>
  <g id="axes_1">
   <g id="patch_2">
    <path d="M 295.816721 205.640125 
Q 316.586751 193.292509 336.395746 181.51622 
" clip-path="url(#p4817e15c2e)" style="fill: none; stroke: #000000; stroke-linecap: round"/>
    <path d="M 331.935427 181.841112 
L 336.395746 181.51622 
L 333.979468 185.279411 
z
" clip-path="url(#p4817e15c2e)" style="stroke: #000000; stroke-linecap: round"/>
   </g>
   <g id="patch_3">
    <path d="M 292.316561 206.013316 
Q 256.03753 193.874166 220.818754 182.089782 
" clip-path="url(#p4817e15c2e)" style="fill: none; stroke: #000000; stroke-linecap: round"/>
    <path d="M 223.977411 185.255676 
L 220.818754 182.089782 
L 225.246663 181.462393 
z
" clip-path="url(#p4817e15c2e)" style="stroke: #000000; stroke-linecap: round"/>
   </g>
   <g id="patch_4">
    <path d="M 292.451047 207.545705 
Q 265.964132 221.810357 240.461576 235.544879 
" clip-path="url(#p4817e15c2e)" style="fill: none; stroke: #000000; stroke-linecap: round"/>
    <path d="M 244.93165 235.409099 
L 240.461576 235.544879 
L 243.034997 231.887352 
z
" clip-path="url(#p4817e15c2e)" style="stroke: #000000; stroke-linecap: round"/>
   </g>
   <g id="patch_5">
    <path d="M 296.041885 207.079716 
Q 330.19842 215.249128 363.26759 223.158468 
" clip-path="url(#p4817e15c2e)" style="fill: none; stroke: #000000; stroke-linecap: round"/>
    <path d="M 359.842544 220.282871 
L 363.26759 223.158468 
L 358.912085 224.173147 
z
" clip-path="url(#p4817e15c2e)" style="stroke: #000000; stroke-linecap: round"/>
   </g>
   <g id="patch_6">
    <path d="M 337.358484 180.94388 
Q 316.588455 193.291496 296.77946 205.067785 
" clip-path="url(#p4817e15c2e)" style="fill: none; stroke: #000000; stroke-linecap: round"/>
    <path d="M 301.239779 204.742893 
L 296.77946 205.067785 
L 299.195738 201.304595 
z
" clip-path="url(#p4817e15c2e)" style="stroke: #000000; stroke-linecap: round"/>
   </g>
   <g id="patch_7">
    <path d="M 219.757401 181.734648 
Q 256.036432 193.873798 291.255209 205.658182 
" clip-path="url(#p4817e15c2e)" style="fill: none; stroke: #000000; stroke-linecap: round"/>
    <path d="M 288.096551 202.492288 
L 291.255209 205.658182 
L 286.827299 206.285571 
z
" clip-path="url(#p4817e15c2e)" style="stroke: #000000; stroke-linecap: round"/>
   </g>
   <g id="patch_8">
    <path d="M 217.07318 182.859114 
Q 208.963304 199.528235 201.342558 215.191994 
" clip-path="url(#p4817e15c2e)" style="fill: none; stroke: #000000; stroke-linecap: round"/>
    <path d="M 204.890967 212.470084 
L 201.342558 215.191994 
L 201.294075 210.720121 
z
" clip-path="url(#p4817e15c2e)" style="stroke: #000000; stroke-linecap: round"/>
   </g>
   <g id="patch_9">
    <path d="M 216.046674 180.624338 
Q 176.734078 170.226709 138.50235 160.114955 
" clip-path="url(#p4817e15c2e)" style="fill: none; stroke: #000000; stroke-linecap: round"/>
    <path d="M 141.857993 163.071246 
L 138.50235 160.114955 
L 142.880769 159.204215 
z
" clip-path="url(#p4817e15c2e)" style="stroke: #000000; stroke-linecap: round"/>
   </g>
   <g id="patch_10">
    <path d="M 239.475286 236.07605 
Q 265.9622 221.811398 291.464757 208.076876 
" clip-path="url(#p4817e15c2e)" style="fill: none; stroke: #000000; stroke-linecap: round"/>
    <path d="M 286.994682 208.212656 
L 291.464757 208.076876 
L 288.891336 211.734404 
z
" clip-path="url(#p4817e15c2e)" style="stroke: #000000; stroke-linecap: round"/>
   </g>
   <g id="patch_11">
    <path d="M 235.834492 236.944856 
Q 200.071799 236.047732 165.426789 235.178647 
" clip-path="url(#p4817e15c2e)" style="fill: none; stroke: #000000; stroke-linecap: round"/>
    <path d="M 169.375376 237.278328 
L 165.426789 235.178647 
L 169.475686 233.279586 
z
" clip-path="url(#p4817e15c2e)" style="stroke: #000000; stroke-linecap: round"/>
   </g>
   <g id="patch_12">
    <path d="M 100.213577 313.712385 
Q 104.879216 289.917603 109.32973 267.219964 
" clip-path="url(#p4817e15c2e)" style="fill: none; stroke: #000000; stroke-linecap: round"/>
    <path d="M 106.597446 270.76039 
L 109.32973 267.219964 
L 110.522701 271.530048 
z
" clip-path="url(#p4817e15c2e)" style="stroke: #000000; stroke-linecap: round"/>
   </g>
   <g id="patch_13">
    <path d="M 101.384187 314.437789 
Q 116.49365 302.957589 130.712891 292.153781 
" clip-path="url(#p4817e15c2e)" style="fill: none; stroke: #000000; stroke-linecap: round"/>
    <path d="M 126.317972 292.981238 
L 130.712891 292.153781 
L 128.737906 296.166191 
z
" clip-path="url(#p4817e15c2e)" style="stroke: #000000; stroke-linecap: round"/>
   </g>
   <g id="patch_14">
    <path d="M 131.59949 291.480142 
Q 116.490027 302.960342 102.270785 313.76415 
" clip-path="url(#p4817e15c2e)" style="fill: none; stroke: #000000; stroke-linecap: round"/>
    <path d="M 106.665705 312.936693 
L 102.270785 313.76415 
L 104.245771 309.751741 
z
" clip-path="url(#p4817e15c2e)" style="stroke: #000000; stroke-linecap: round"/>
   </g>
   <g id="patch_15">
    <path d="M 131.852215 288.859193 
Q 121.528766 277.2643 111.948778 266.504431 
" clip-path="url(#p4817e15c2e)" style="fill: none; stroke: #000000; stroke-linecap: round"/>
    <path d="M 113.114923 270.82185 
L 111.948778 266.504431 
L 116.1024 268.161967 
z
" clip-path="url(#p4817e15c2e)" style="stroke: #000000; stroke-linecap: round"/>
   </g>
   <g id="patch_16">
    <path d="M 134.046823 288.599678 
Q 147.757875 262.708029 160.945702 237.804427 
" clip-path="url(#p4817e15c2e)" style="fill: none; stroke: #000000; stroke-linecap: round"/>
    <path d="M 157.306285 240.403396 
L 160.945702 237.804427 
L 160.841227 242.275342 
z
" clip-path="url(#p4817e15c2e)" style="stroke: #000000; stroke-linecap: round"/>
   </g>
   <g id="patch_17">
    <path d="M 364.348379 223.416967 
Q 330.191844 215.247555 297.122674 207.338215 
" clip-path="url(#p4817e15c2e)" style="fill: none; stroke: #000000; stroke-linecap: round"/>
    <path d="M 300.54772 210.213812 
L 297.122674 207.338215 
L 301.478179 206.323536 
z
" clip-path="url(#p4817e15c2e)" style="stroke: #000000; stroke-linecap: round"/>
   </g>
   <g id="patch_18">
    <path d="M 368.144506 224.186364 
Q 393.522508 228.414131 417.797675 232.458175 
" clip-path="url(#p4817e15c2e)" style="fill: none; stroke: #000000; stroke-linecap: round"/>
    <path d="M 414.180706 229.828054 
L 417.797675 232.458175 
L 413.523397 233.773678 
z
" clip-path="url(#p4817e15c2e)" style="stroke: #000000; stroke-linecap: round"/>
   </g>
   <g id="patch_19">
    <path d="M 418.904478 232.642559 
Q 393.526476 228.414792 369.251309 224.370748 
" clip-path="url(#p4817e15c2e)" style="fill: none; stroke: #000000; stroke-linecap: round"/>
    <path d="M 372.868278 227.000868 
L 369.251309 224.370748 
L 373.525587 223.055245 
z
" clip-path="url(#p4817e15c2e)" style="stroke: #000000; stroke-linecap: round"/>
   </g>
   <g id="patch_20">
    <path d="M 109.545332 266.120396 
Q 104.879692 289.915178 100.429178 312.612817 
" clip-path="url(#p4817e15c2e)" style="fill: none; stroke: #000000; stroke-linecap: round"/>
    <path d="M 103.161463 309.072391 
L 100.429178 312.612817 
L 99.236208 308.302734 
z
" clip-path="url(#p4817e15c2e)" style="stroke: #000000; stroke-linecap: round"/>
   </g>
   <g id="patch_21">
    <path d="M 111.207347 265.671685 
Q 121.530795 277.266579 131.110784 288.026447 
" clip-path="url(#p4817e15c2e)" style="fill: none; stroke: #000000; stroke-linecap: round"/>
    <path d="M 129.944639 283.709028 
L 131.110784 288.026447 
L 126.957162 286.368911 
z
" clip-path="url(#p4817e15c2e)" style="stroke: #000000; stroke-linecap: round"/>
   </g>
   <g id="patch_22">
    <path d="M 111.611182 263.282625 
Q 136.146514 249.6628 159.704323 236.585607 
" clip-path="url(#p4817e15c2e)" style="fill: none; stroke: #000000; stroke-linecap: round"/>
    <path d="M 155.236342 236.778346 
L 159.704323 236.585607 
L 157.177725 240.275635 
z
" clip-path="url(#p4817e15c2e)" style="stroke: #000000; stroke-linecap: round"/>
   </g>
   <g id="patch_23">
    <path d="M 109.229525 262.415906 
Q 99.143407 235.920874 89.455056 210.470726 
" clip-path="url(#p4817e15c2e)" style="fill: none; stroke: #000000; stroke-linecap: round"/>
    <path d="M 89.009002 214.920561 
L 89.455056 210.470726 
L 92.747292 213.497471 
z
" clip-path="url(#p4817e15c2e)" style="stroke: #000000; stroke-linecap: round"/>
   </g>
   <g id="patch_24">
    <path d="M 164.314053 235.150733 
Q 200.076745 236.047856 234.721756 236.916942 
" clip-path="url(#p4817e15c2e)" style="fill: none; stroke: #000000; stroke-linecap: round"/>
    <path d="M 230.773169 234.817261 
L 234.721756 236.916942 
L 230.672858 238.816003 
z
" clip-path="url(#p4817e15c2e)" style="stroke: #000000; stroke-linecap: round"/>
   </g>
   <g id="patch_25">
    <path d="M 161.472057 236.81047 
Q 147.761005 262.702119 134.573178 287.605722 
" clip-path="url(#p4817e15c2e)" style="fill: none; stroke: #000000; stroke-linecap: round"/>
    <path d="M 138.212595 285.006752 
L 134.573178 287.605722 
L 134.677653 283.134806 
z
" clip-path="url(#p4817e15c2e)" style="stroke: #000000; stroke-linecap: round"/>
   </g>
   <g id="patch_26">
    <path d="M 160.68293 236.042372 
Q 136.147598 249.662198 112.589788 262.739391 
" clip-path="url(#p4817e15c2e)" style="fill: none; stroke: #000000; stroke-linecap: round"/>
    <path d="M 117.057769 262.546652 
L 112.589788 262.739391 
L 115.116386 259.049363 
z
" clip-path="url(#p4817e15c2e)" style="stroke: #000000; stroke-linecap: round"/>
   </g>
   <g id="patch_27">
    <path d="M 164.138266 234.29872 
Q 181.189631 226.521871 197.223767 219.208964 
" clip-path="url(#p4817e15c2e)" style="fill: none; stroke: #000000; stroke-linecap: round"/>
    <path d="M 192.754488 219.049137 
L 197.223767 219.208964 
L 194.414337 222.688491 
z
" clip-path="url(#p4817e15c2e)" style="stroke: #000000; stroke-linecap: round"/>
   </g>
   <g id="patch_28">
    <path d="M 161.729882 233.275432 
Q 148.962078 197.218273 136.567464 162.215026 
" clip-path="url(#p4817e15c2e)" style="fill: none; stroke: #000000; stroke-linecap: round"/>
    <path d="M 136.017331 166.653196 
L 136.567464 162.215026 
L 139.78792 165.318034 
z
" clip-path="url(#p4817e15c2e)" style="stroke: #000000; stroke-linecap: round"/>
   </g>
   <g id="patch_29">
    <path d="M 200.851739 216.200829 
Q 208.961615 199.531708 216.582361 183.867949 
" clip-path="url(#p4817e15c2e)" style="fill: none; stroke: #000000; stroke-linecap: round"/>
    <path d="M 213.033952 186.58986 
L 216.582361 183.867949 
L 216.630844 188.339823 
z
" clip-path="url(#p4817e15c2e)" style="stroke: #000000; stroke-linecap: round"/>
   </g>
   <g id="patch_30">
    <path d="M 198.243909 218.743694 
Q 181.192543 226.520543 165.158408 233.833449 
" clip-path="url(#p4817e15c2e)" style="fill: none; stroke: #000000; stroke-linecap: round"/>
    <path d="M 169.627687 233.993277 
L 165.158408 233.833449 
L 167.967837 230.353922 
z
" clip-path="url(#p4817e15c2e)" style="stroke: #000000; stroke-linecap: round"/>
   </g>
   <g id="patch_31">
    <path d="M 102.195876 89.724416 
Q 96.970254 63.249759 91.961135 37.871973 
" clip-path="url(#p4817e15c2e)" style="fill: none; stroke: #000000; stroke-linecap: round"/>
    <path d="M 90.773575 42.183551 
L 91.961135 37.871973 
L 94.697861 41.408968 
z
" clip-path="url(#p4817e15c2e)" style="stroke: #000000; stroke-linecap: round"/>
   </g>
   <g id="patch_32">
    <path d="M 103.41855 93.365773 
Q 119.058253 125.477844 134.208408 156.584758 
" clip-path="url(#p4817e15c2e)" style="fill: none; stroke: #000000; stroke-linecap: round"/>
    <path d="M 134.255033 152.112865 
L 134.208408 156.584758 
L 130.658869 153.864323 
z
" clip-path="url(#p4817e15c2e)" style="stroke: #000000; stroke-linecap: round"/>
   </g>
   <g id="patch_33">
    <path d="M 91.745315 36.778563 
Q 96.970937 63.25322 101.980056 88.631006 
" clip-path="url(#p4817e15c2e)" style="fill: none; stroke: #000000; stroke-linecap: round"/>
    <path d="M 103.167615 84.319428 
L 101.980056 88.631006 
L 99.243329 85.094012 
z
" clip-path="url(#p4817e15c2e)" style="stroke: #000000; stroke-linecap: round"/>
   </g>
   <g id="patch_34">
    <path d="M 93.294327 34.629434 
Q 110.363364 32.433501 126.323506 30.380227 
" clip-path="url(#p4817e15c2e)" style="fill: none; stroke: #000000; stroke-linecap: round"/>
    <path d="M 122.101006 28.906969 
L 126.323506 30.380227 
L 122.6114 32.874273 
z
" clip-path="url(#p4817e15c2e)" style="stroke: #000000; stroke-linecap: round"/>
   </g>
   <g id="patch_35">
    <path d="M 127.431761 30.23765 
Q 110.362724 32.433583 94.402582 34.486857 
" clip-path="url(#p4817e15c2e)" style="fill: none; stroke: #000000; stroke-linecap: round"/>
    <path d="M 98.625083 35.960115 
L 94.402582 34.486857 
L 98.114689 31.992811 
z
" clip-path="url(#p4817e15c2e)" style="stroke: #000000; stroke-linecap: round"/>
   </g>
   <g id="patch_36">
    <path d="M 129.772287 31.881055 
Q 135.589246 58.311219 141.16589 83.649481 
" clip-path="url(#p4817e15c2e)" style="fill: none; stroke: #000000; stroke-linecap: round"/>
    <path d="M 142.259369 79.313088 
L 141.16589 83.649481 
L 138.352863 80.172863 
z
" clip-path="url(#p4817e15c2e)" style="stroke: #000000; stroke-linecap: round"/>
   </g>
   <g id="patch_37">
    <path d="M 141.405548 84.738399 
Q 135.588589 58.308235 130.011945 32.969972 
" clip-path="url(#p4817e15c2e)" style="fill: none; stroke: #000000; stroke-linecap: round"/>
    <path d="M 128.918466 37.306366 
L 130.011945 32.969972 
L 132.824972 36.446591 
z
" clip-path="url(#p4817e15c2e)" style="stroke: #000000; stroke-linecap: round"/>
   </g>
   <g id="patch_38">
    <path d="M 141.655134 88.559682 
Q 138.684417 122.981053 135.809834 156.288531 
" clip-path="url(#p4817e15c2e)" style="fill: none; stroke: #000000; stroke-linecap: round"/>
    <path d="M 138.146366 152.475315 
L 135.809834 156.288531 
L 134.16118 152.131376 
z
" clip-path="url(#p4817e15c2e)" style="stroke: #000000; stroke-linecap: round"/>
   </g>
   <g id="patch_39">
    <path d="M 137.419841 159.828647 
Q 176.732437 170.226275 214.964165 180.33803 
" clip-path="url(#p4817e15c2e)" style="fill: none; stroke: #000000; stroke-linecap: round"/>
    <path d="M 211.608521 177.381739 
L 214.964165 180.33803 
L 210.585746 181.24877 
z
" clip-path="url(#p4817e15c2e)" style="stroke: #000000; stroke-linecap: round"/>
   </g>
   <g id="patch_40">
    <path d="M 136.193888 161.160023 
Q 148.961692 197.217182 161.356306 232.22043 
" clip-path="url(#p4817e15c2e)" style="fill: none; stroke: #000000; stroke-linecap: round"/>
    <path d="M 161.906439 227.78226 
L 161.356306 232.22043 
L 158.13585 229.117421 
z
" clip-path="url(#p4817e15c2e)" style="stroke: #000000; stroke-linecap: round"/>
   </g>
   <g id="patch_41">
    <path d="M 134.699714 157.593527 
Q 119.060012 125.481455 103.909856 94.374542 
" clip-path="url(#p4817e15c2e)" style="fill: none; stroke: #000000; stroke-linecap: round"/>
    <path d="M 103.863232 98.846435 
L 103.909856 94.374542 
L 107.459396 97.094977 
z
" clip-path="url(#p4817e15c2e)" style="stroke: #000000; stroke-linecap: round"/>
   </g>
   <g id="patch_42">
    <path d="M 135.713649 157.40301 
Q 138.684366 122.981639 141.558949 89.674162 
" clip-path="url(#p4817e15c2e)" style="fill: none; stroke: #000000; stroke-linecap: round"/>
    <path d="M 139.222417 93.487378 
L 141.558949 89.674162 
L 143.207603 93.831317 
z
" clip-path="url(#p4817e15c2e)" style="stroke: #000000; stroke-linecap: round"/>
   </g>
   <g id="patch_43">
    <path d="M 133.612996 159.308779 
Q 104.419129 158.938325 76.343207 158.582056 
" clip-path="url(#p4817e15c2e)" style="fill: none; stroke: #000000; stroke-linecap: round"/>
    <path d="M 80.317508 160.632649 
L 76.343207 158.582056 
L 80.368262 156.632971 
z
" clip-path="url(#p4817e15c2e)" style="stroke: #000000; stroke-linecap: round"/>
   </g>
   <g id="patch_44">
    <path d="M 134.196545 160.715447 
Q 111.958007 183.474584 90.500839 205.43406 
" clip-path="url(#p4817e15c2e)" style="fill: none; stroke: #000000; stroke-linecap: round"/>
    <path d="M 94.726835 203.970859 
L 90.500839 205.43406 
L 91.865876 201.175342 
z
" clip-path="url(#p4817e15c2e)" style="stroke: #000000; stroke-linecap: round"/>
   </g>
   <g id="patch_45">
    <path d="M 75.226441 158.567885 
Q 104.420308 158.93834 132.49623 159.294608 
" clip-path="url(#p4817e15c2e)" style="fill: none; stroke: #000000; stroke-linecap: round"/>
    <path d="M 128.521929 157.244015 
L 132.49623 159.294608 
L 128.471175 161.243693 
z
" clip-path="url(#p4817e15c2e)" style="stroke: #000000; stroke-linecap: round"/>
   </g>
   <g id="patch_46">
    <path d="M 71.838921 159.820737 
Q 56.640914 173.177714 42.282704 185.796624 
" clip-path="url(#p4817e15c2e)" style="fill: none; stroke: #000000; stroke-linecap: round"/>
    <path d="M 46.607545 184.65831 
L 42.282704 185.796624 
L 43.966958 181.653763 
z
" clip-path="url(#p4817e15c2e)" style="stroke: #000000; stroke-linecap: round"/>
   </g>
   <g id="patch_47">
    <path d="M 41.440238 186.537037 
Q 56.638244 173.18006 70.996454 160.56115 
" clip-path="url(#p4817e15c2e)" style="fill: none; stroke: #000000; stroke-linecap: round"/>
    <path d="M 66.671614 161.699464 
L 70.996454 160.56115 
L 69.312201 164.704011 
z
" clip-path="url(#p4817e15c2e)" style="stroke: #000000; stroke-linecap: round"/>
   </g>
   <g id="patch_48">
    <path d="M 41.779238 188.54806 
Q 64.176698 197.715019 85.539436 206.458482 
" clip-path="url(#p4817e15c2e)" style="fill: none; stroke: #000000; stroke-linecap: round"/>
    <path d="M 82.595075 203.092365 
L 85.539436 206.458482 
L 81.079926 206.794301 
z
" clip-path="url(#p4817e15c2e)" style="stroke: #000000; stroke-linecap: round"/>
   </g>
   <g id="patch_49">
    <path d="M 89.056329 209.423318 
Q 99.142447 235.91835 108.830798 261.368498 
" clip-path="url(#p4817e15c2e)" style="fill: none; stroke: #000000; stroke-linecap: round"/>
    <path d="M 109.276852 256.918663 
L 108.830798 261.368498 
L 105.538562 258.341753 
z
" clip-path="url(#p4817e15c2e)" style="stroke: #000000; stroke-linecap: round"/>
   </g>
   <g id="patch_50">
    <path d="M 89.718968 206.234234 
Q 111.957506 183.475097 133.414673 161.515622 
" clip-path="url(#p4817e15c2e)" style="fill: none; stroke: #000000; stroke-linecap: round"/>
    <path d="M 129.188677 162.978823 
L 133.414673 161.515622 
L 132.049636 165.774339 
z
" clip-path="url(#p4817e15c2e)" style="stroke: #000000; stroke-linecap: round"/>
   </g>
   <g id="patch_51">
    <path d="M 86.575996 206.882731 
Q 64.178536 197.715772 42.815798 188.972309 
" clip-path="url(#p4817e15c2e)" style="fill: none; stroke: #000000; stroke-linecap: round"/>
    <path d="M 45.760159 192.338426 
L 42.815798 188.972309 
L 47.275308 188.636491 
z
" clip-path="url(#p4817e15c2e)" style="stroke: #000000; stroke-linecap: round"/>
   </g>
   <g id="PathCollection_1">
    <defs>
     <path id="C0_0_ba3db0f8e6" d="M 0 1.936492 
C 0.513564 1.936492 1.006162 1.732451 1.369306 1.369306 
C 1.732451 1.006162 1.936492 0.513564 1.936492 -0 
C 1.936492 -0.513564 1.732451 -1.006162 1.369306 -1.369306 
C 1.006162 -1.732451 0.513564 -1.936492 0 -1.936492 
C -0.513564 -1.936492 -1.006162 -1.732451 -1.369306 -1.369306 
C -1.732451 -1.006162 -1.936492 -0.513564 -1.936492 0 
C -1.936492 0.513564 -1.732451 1.006162 -1.369306 1.369306 
C -1.006162 1.732451 -0.513564 1.936492 0 1.936492 
z
"/>
    </defs>
    <g clip-path="url(#p4817e15c2e)">
     <use xlink:href="#C0_0_ba3db0f8e6" x="294.154503" y="206.628301" style="fill: #ff0000; stroke: #ff0000"/>
    </g>
    <g clip-path="url(#p4817e15c2e)">
     <use xlink:href="#C0_0_ba3db0f8e6" x="339.020703" y="179.955705" style="stroke: #000000"/>
    </g>
    <g clip-path="url(#p4817e15c2e)">
     <use xlink:href="#C0_0_ba3db0f8e6" x="217.919459" y="181.119664" style="fill: #ff0000; stroke: #ff0000"/>
    </g>
    <g clip-path="url(#p4817e15c2e)">
     <use xlink:href="#C0_0_ba3db0f8e6" x="237.771829" y="236.993455" style="fill: #ff0000; stroke: #ff0000"/>
    </g>
    <g clip-path="url(#p4817e15c2e)">
     <use xlink:href="#C0_0_ba3db0f8e6" x="99.841512" y="315.609917" style="fill: #ff0000; stroke: #ff0000"/>
    </g>
    <g clip-path="url(#p4817e15c2e)">
     <use xlink:href="#C0_0_ba3db0f8e6" x="133.142165" y="290.308014" style="stroke: #000000"/>
    </g>
    <g clip-path="url(#p4817e15c2e)">
     <use xlink:href="#C0_0_ba3db0f8e6" x="366.235761" y="223.868382" style="fill: #ff0000; stroke: #ff0000"/>
    </g>
    <g clip-path="url(#p4817e15c2e)">
     <use xlink:href="#C0_0_ba3db0f8e6" x="420.813223" y="232.96054" style="fill: #ff0000; stroke: #ff0000"/>
    </g>
    <g clip-path="url(#p4817e15c2e)">
     <use xlink:href="#C0_0_ba3db0f8e6" x="109.917397" y="264.222864" style="fill: #ff0000; stroke: #ff0000"/>
    </g>
    <g clip-path="url(#p4817e15c2e)">
     <use xlink:href="#C0_0_ba3db0f8e6" x="162.376715" y="235.102134" style="fill: #ff0000; stroke: #ff0000"/>
    </g>
    <g clip-path="url(#p4817e15c2e)">
     <use xlink:href="#C0_0_ba3db0f8e6" x="200.00546" y="217.94028" style="fill: #ff0000; stroke: #ff0000"/>
    </g>
    <g clip-path="url(#p4817e15c2e)">
     <use xlink:href="#C0_0_ba3db0f8e6" x="102.57121" y="91.625978" style="stroke: #000000"/>
    </g>
    <g clip-path="url(#p4817e15c2e)">
     <use xlink:href="#C0_0_ba3db0f8e6" x="91.369981" y="34.877001" style="stroke: #000000"/>
    </g>
    <g clip-path="url(#p4817e15c2e)">
     <use xlink:href="#C0_0_ba3db0f8e6" x="129.356107" y="29.990083" style="fill: #ff0000; stroke: #ff0000"/>
    </g>
    <g clip-path="url(#p4817e15c2e)">
     <use xlink:href="#C0_0_ba3db0f8e6" x="141.821728" y="86.629371" style="fill: #ff0000; stroke: #ff0000"/>
    </g>
    <g clip-path="url(#p4817e15c2e)">
     <use xlink:href="#C0_0_ba3db0f8e6" x="135.547055" y="159.333321" style="stroke: #000000"/>
    </g>
    <g clip-path="url(#p4817e15c2e)">
     <use xlink:href="#C0_0_ba3db0f8e6" x="73.292382" y="158.543343" style="stroke: #000000"/>
    </g>
    <g clip-path="url(#p4817e15c2e)">
     <use xlink:href="#C0_0_ba3db0f8e6" x="39.986777" y="187.814431" style="fill: #ff0000; stroke: #ff0000"/>
    </g>
    <g clip-path="url(#p4817e15c2e)">
     <use xlink:href="#C0_0_ba3db0f8e6" x="88.368457" y="207.61636" style="fill: #ff0000; stroke: #ff0000"/>
    </g>
   </g>
   <g id="text_1">
    <g clip-path="url(#p4817e15c2e)">
     <!-- 0 -->
     <g transform="translate(290.973253 209.387676) scale(0.1 -0.1)">
      <defs>
       <path id="DejaVuSans-30" d="M 2034 4250 
Q 1547 4250 1301 3770 
Q 1056 3291 1056 2328 
Q 1056 1369 1301 889 
Q 1547 409 2034 409 
Q 2525 409 2770 889 
Q 3016 1369 3016 2328 
Q 3016 3291 2770 3770 
Q 2525 4250 2034 4250 
z
M 2034 4750 
Q 2819 4750 3233 4129 
Q 3647 3509 3647 2328 
Q 3647 1150 3233 529 
Q 2819 -91 2034 -91 
Q 1250 -91 836 529 
Q 422 1150 422 2328 
Q 422 3509 836 4129 
Q 1250 4750 2034 4750 
z
" transform="scale(0.015625)"/>
      </defs>
      <use xlink:href="#DejaVuSans-30"/>
     </g>
    </g>
   </g>
   <g id="text_2">
    <g clip-path="url(#p4817e15c2e)">
     <!-- 1 -->
     <g transform="translate(335.839453 182.71508) scale(0.1 -0.1)">
      <defs>
       <path id="DejaVuSans-31" d="M 794 531 
L 1825 531 
L 1825 4091 
L 703 3866 
L 703 4441 
L 1819 4666 
L 2450 4666 
L 2450 531 
L 3481 531 
L 3481 0 
L 794 0 
L 794 531 
z
" transform="scale(0.015625)"/>
      </defs>
      <use xlink:href="#DejaVuSans-31"/>
     </g>
    </g>
   </g>
   <g id="text_3">
    <g clip-path="url(#p4817e15c2e)">
     <!-- 2 -->
     <g transform="translate(214.738209 183.879039) scale(0.1 -0.1)">
      <defs>
       <path id="DejaVuSans-32" d="M 1228 531 
L 3431 531 
L 3431 0 
L 469 0 
L 469 531 
Q 828 903 1448 1529 
Q 2069 2156 2228 2338 
Q 2531 2678 2651 2914 
Q 2772 3150 2772 3378 
Q 2772 3750 2511 3984 
Q 2250 4219 1831 4219 
Q 1534 4219 1204 4116 
Q 875 4013 500 3803 
L 500 4441 
Q 881 4594 1212 4672 
Q 1544 4750 1819 4750 
Q 2544 4750 2975 4387 
Q 3406 4025 3406 3419 
Q 3406 3131 3298 2873 
Q 3191 2616 2906 2266 
Q 2828 2175 2409 1742 
Q 1991 1309 1228 531 
z
" transform="scale(0.015625)"/>
      </defs>
      <use xlink:href="#DejaVuSans-32"/>
     </g>
    </g>
   </g>
   <g id="text_4">
    <g clip-path="url(#p4817e15c2e)">
     <!-- 3 -->
     <g transform="translate(234.590579 239.75283) scale(0.1 -0.1)">
      <defs>
       <path id="DejaVuSans-33" d="M 2597 2516 
Q 3050 2419 3304 2112 
Q 3559 1806 3559 1356 
Q 3559 666 3084 287 
Q 2609 -91 1734 -91 
Q 1441 -91 1130 -33 
Q 819 25 488 141 
L 488 750 
Q 750 597 1062 519 
Q 1375 441 1716 441 
Q 2309 441 2620 675 
Q 2931 909 2931 1356 
Q 2931 1769 2642 2001 
Q 2353 2234 1838 2234 
L 1294 2234 
L 1294 2753 
L 1863 2753 
Q 2328 2753 2575 2939 
Q 2822 3125 2822 3475 
Q 2822 3834 2567 4026 
Q 2313 4219 1838 4219 
Q 1578 4219 1281 4162 
Q 984 4106 628 3988 
L 628 4550 
Q 988 4650 1302 4700 
Q 1616 4750 1894 4750 
Q 2613 4750 3031 4423 
Q 3450 4097 3450 3541 
Q 3450 3153 3228 2886 
Q 3006 2619 2597 2516 
z
" transform="scale(0.015625)"/>
      </defs>
      <use xlink:href="#DejaVuSans-33"/>
     </g>
    </g>
   </g>
   <g id="text_5">
    <g clip-path="url(#p4817e15c2e)">
     <!-- 4 -->
     <g transform="translate(96.660262 318.369292) scale(0.1 -0.1)">
      <defs>
       <path id="DejaVuSans-34" d="M 2419 4116 
L 825 1625 
L 2419 1625 
L 2419 4116 
z
M 2253 4666 
L 3047 4666 
L 3047 1625 
L 3713 1625 
L 3713 1100 
L 3047 1100 
L 3047 0 
L 2419 0 
L 2419 1100 
L 313 1100 
L 313 1709 
L 2253 4666 
z
" transform="scale(0.015625)"/>
      </defs>
      <use xlink:href="#DejaVuSans-34"/>
     </g>
    </g>
   </g>
   <g id="text_6">
    <g clip-path="url(#p4817e15c2e)">
     <!-- 5 -->
     <g transform="translate(129.960915 293.067389) scale(0.1 -0.1)">
      <defs>
       <path id="DejaVuSans-35" d="M 691 4666 
L 3169 4666 
L 3169 4134 
L 1269 4134 
L 1269 2991 
Q 1406 3038 1543 3061 
Q 1681 3084 1819 3084 
Q 2600 3084 3056 2656 
Q 3513 2228 3513 1497 
Q 3513 744 3044 326 
Q 2575 -91 1722 -91 
Q 1428 -91 1123 -41 
Q 819 9 494 109 
L 494 744 
Q 775 591 1075 516 
Q 1375 441 1709 441 
Q 2250 441 2565 725 
Q 2881 1009 2881 1497 
Q 2881 1984 2565 2268 
Q 2250 2553 1709 2553 
Q 1456 2553 1204 2497 
Q 953 2441 691 2322 
L 691 4666 
z
" transform="scale(0.015625)"/>
      </defs>
      <use xlink:href="#DejaVuSans-35"/>
     </g>
    </g>
   </g>
   <g id="text_7">
    <g clip-path="url(#p4817e15c2e)">
     <!-- 6 -->
     <g transform="translate(363.054511 226.627757) scale(0.1 -0.1)">
      <defs>
       <path id="DejaVuSans-36" d="M 2113 2584 
Q 1688 2584 1439 2293 
Q 1191 2003 1191 1497 
Q 1191 994 1439 701 
Q 1688 409 2113 409 
Q 2538 409 2786 701 
Q 3034 994 3034 1497 
Q 3034 2003 2786 2293 
Q 2538 2584 2113 2584 
z
M 3366 4563 
L 3366 3988 
Q 3128 4100 2886 4159 
Q 2644 4219 2406 4219 
Q 1781 4219 1451 3797 
Q 1122 3375 1075 2522 
Q 1259 2794 1537 2939 
Q 1816 3084 2150 3084 
Q 2853 3084 3261 2657 
Q 3669 2231 3669 1497 
Q 3669 778 3244 343 
Q 2819 -91 2113 -91 
Q 1303 -91 875 529 
Q 447 1150 447 2328 
Q 447 3434 972 4092 
Q 1497 4750 2381 4750 
Q 2619 4750 2861 4703 
Q 3103 4656 3366 4563 
z
" transform="scale(0.015625)"/>
      </defs>
      <use xlink:href="#DejaVuSans-36"/>
     </g>
    </g>
   </g>
   <g id="text_8">
    <g clip-path="url(#p4817e15c2e)">
     <!-- 7 -->
     <g transform="translate(417.631973 235.719915) scale(0.1 -0.1)">
      <defs>
       <path id="DejaVuSans-37" d="M 525 4666 
L 3525 4666 
L 3525 4397 
L 1831 0 
L 1172 0 
L 2766 4134 
L 525 4134 
L 525 4666 
z
" transform="scale(0.015625)"/>
      </defs>
      <use xlink:href="#DejaVuSans-37"/>
     </g>
    </g>
   </g>
   <g id="text_9">
    <g clip-path="url(#p4817e15c2e)">
     <!-- 8 -->
     <g transform="translate(106.736147 266.982239) scale(0.1 -0.1)">
      <defs>
       <path id="DejaVuSans-38" d="M 2034 2216 
Q 1584 2216 1326 1975 
Q 1069 1734 1069 1313 
Q 1069 891 1326 650 
Q 1584 409 2034 409 
Q 2484 409 2743 651 
Q 3003 894 3003 1313 
Q 3003 1734 2745 1975 
Q 2488 2216 2034 2216 
z
M 1403 2484 
Q 997 2584 770 2862 
Q 544 3141 544 3541 
Q 544 4100 942 4425 
Q 1341 4750 2034 4750 
Q 2731 4750 3128 4425 
Q 3525 4100 3525 3541 
Q 3525 3141 3298 2862 
Q 3072 2584 2669 2484 
Q 3125 2378 3379 2068 
Q 3634 1759 3634 1313 
Q 3634 634 3220 271 
Q 2806 -91 2034 -91 
Q 1263 -91 848 271 
Q 434 634 434 1313 
Q 434 1759 690 2068 
Q 947 2378 1403 2484 
z
M 1172 3481 
Q 1172 3119 1398 2916 
Q 1625 2713 2034 2713 
Q 2441 2713 2670 2916 
Q 2900 3119 2900 3481 
Q 2900 3844 2670 4047 
Q 2441 4250 2034 4250 
Q 1625 4250 1398 4047 
Q 1172 3844 1172 3481 
z
" transform="scale(0.015625)"/>
      </defs>
      <use xlink:href="#DejaVuSans-38"/>
     </g>
    </g>
   </g>
   <g id="text_10">
    <g clip-path="url(#p4817e15c2e)">
     <!-- 9 -->
     <g transform="translate(159.195465 237.861509) scale(0.1 -0.1)">
      <defs>
       <path id="DejaVuSans-39" d="M 703 97 
L 703 672 
Q 941 559 1184 500 
Q 1428 441 1663 441 
Q 2288 441 2617 861 
Q 2947 1281 2994 2138 
Q 2813 1869 2534 1725 
Q 2256 1581 1919 1581 
Q 1219 1581 811 2004 
Q 403 2428 403 3163 
Q 403 3881 828 4315 
Q 1253 4750 1959 4750 
Q 2769 4750 3195 4129 
Q 3622 3509 3622 2328 
Q 3622 1225 3098 567 
Q 2575 -91 1691 -91 
Q 1453 -91 1209 -44 
Q 966 3 703 97 
z
M 1959 2075 
Q 2384 2075 2632 2365 
Q 2881 2656 2881 3163 
Q 2881 3666 2632 3958 
Q 2384 4250 1959 4250 
Q 1534 4250 1286 3958 
Q 1038 3666 1038 3163 
Q 1038 2656 1286 2365 
Q 1534 2075 1959 2075 
z
" transform="scale(0.015625)"/>
      </defs>
      <use xlink:href="#DejaVuSans-39"/>
     </g>
    </g>
   </g>
   <g id="text_11">
    <g clip-path="url(#p4817e15c2e)">
     <!-- 10 -->
     <g transform="translate(193.64296 220.699655) scale(0.1 -0.1)">
      <use xlink:href="#DejaVuSans-31"/>
      <use xlink:href="#DejaVuSans-30" x="63.623047"/>
     </g>
    </g>
   </g>
   <g id="text_12">
    <g clip-path="url(#p4817e15c2e)">
     <!-- 11 -->
     <g transform="translate(96.20871 94.385353) scale(0.1 -0.1)">
      <use xlink:href="#DejaVuSans-31"/>
      <use xlink:href="#DejaVuSans-31" x="63.623047"/>
     </g>
    </g>
   </g>
   <g id="text_13">
    <g clip-path="url(#p4817e15c2e)">
     <!-- 12 -->
     <g transform="translate(85.007481 37.636376) scale(0.1 -0.1)">
      <use xlink:href="#DejaVuSans-31"/>
      <use xlink:href="#DejaVuSans-32" x="63.623047"/>
     </g>
    </g>
   </g>
   <g id="text_14">
    <g clip-path="url(#p4817e15c2e)">
     <!-- 13 -->
     <g transform="translate(122.993607 32.749458) scale(0.1 -0.1)">
      <use xlink:href="#DejaVuSans-31"/>
      <use xlink:href="#DejaVuSans-33" x="63.623047"/>
     </g>
    </g>
   </g>
   <g id="text_15">
    <g clip-path="url(#p4817e15c2e)">
     <!-- 14 -->
     <g transform="translate(135.459228 89.388746) scale(0.1 -0.1)">
      <use xlink:href="#DejaVuSans-31"/>
      <use xlink:href="#DejaVuSans-34" x="63.623047"/>
     </g>
    </g>
   </g>
   <g id="text_16">
    <g clip-path="url(#p4817e15c2e)">
     <!-- 15 -->
     <g transform="translate(129.184555 162.092696) scale(0.1 -0.1)">
      <use xlink:href="#DejaVuSans-31"/>
      <use xlink:href="#DejaVuSans-35" x="63.623047"/>
     </g>
    </g>
   </g>
   <g id="text_17">
    <g clip-path="url(#p4817e15c2e)">
     <!-- 16 -->
     <g transform="translate(66.929882 161.302718) scale(0.1 -0.1)">
      <use xlink:href="#DejaVuSans-31"/>
      <use xlink:href="#DejaVuSans-36" x="63.623047"/>
     </g>
    </g>
   </g>
   <g id="text_18">
    <g clip-path="url(#p4817e15c2e)">
     <!-- 17 -->
     <g transform="translate(33.624277 190.573806) scale(0.1 -0.1)">
      <use xlink:href="#DejaVuSans-31"/>
      <use xlink:href="#DejaVuSans-37" x="63.623047"/>
     </g>
    </g>
   </g>
   <g id="text_19">
    <g clip-path="url(#p4817e15c2e)">
     <!-- 18 -->
     <g transform="translate(82.005957 210.375735) scale(0.1 -0.1)">
      <use xlink:href="#DejaVuSans-31"/>
      <use xlink:href="#DejaVuSans-38" x="63.623047"/>
     </g>
    </g>
   </g>
  </g>
 </g>
 <defs>
  <clipPath id="p4817e15c2e">
   <rect x="0" y="0" width="460.8" height="345.6"/>
  </clipPath>
 </defs>
</svg>
