<?xml version="1.0" encoding="utf-8" standalone="no"?>
<!DOCTYPE svg PUBLIC "-//W3C//DTD SVG 1.1//EN"
  "http://www.w3.org/Graphics/SVG/1.1/DTD/svg11.dtd">
<svg xmlns:xlink="http://www.w3.org/1999/xlink" width="460.8pt" height="345.6pt" viewBox="0 0 460.8 345.6" xmlns="http://www.w3.org/2000/svg" version="1.1">
 <metadata>
  <rdf:RDF xmlns:dc="http://purl.org/dc/elements/1.1/" xmlns:cc="http://creativecommons.org/ns#" xmlns:rdf="http://www.w3.org/1999/02/22-rdf-syntax-ns#">
   <cc:Work>
    <dc:type rdf:resource="http://purl.org/dc/dcmitype/StillImage"/>
    <dc:date>2024-02-07T13:46:47.817317</dc:date>
    <dc:format>image/svg+xml</dc:format>
    <dc:creator>
     <cc:Agent>
      <dc:title>Matplotlib v3.8.0, https://matplotlib.org/</dc:title>
     </cc:Agent>
    </dc:creator>
   </cc:Work>
  </rdf:RDF>
 </metadata>
 <defs>
  <style type="text/css">*{stroke-linejoin: round; stroke-linecap: butt}</style>
 </defs>
 <g id="figure_1">
  <g id="patch_1">
   <path d="M 0 345.6 
L 460.8 345.6 
L 460.8 0 
L 0 0 
z
" style="fill: #ffffff"/>
  </g>
  <g id="axes_1">
   <g id="patch_2">
    <path d="M 251.650649 122.479412 
Q 234.061495 157.052481 216.979307 190.629064 
" clip-path="url(#p08f6da9280)" style="fill: none; stroke: #000000; stroke-linecap: round"/>
    <path d="M 220.575652 187.970812 
L 216.979307 190.629064 
L 217.010512 186.157037 
z
" clip-path="url(#p08f6da9280)" style="stroke: #000000; stroke-linecap: round"/>
   </g>
   <g id="patch_3">
    <path d="M 253.409415 122.48152 
Q 259.253812 133.918367 264.589455 144.359639 
" clip-path="url(#p08f6da9280)" style="fill: none; stroke: #000000; stroke-linecap: round"/>
    <path d="M 264.550222 139.887675 
L 264.589455 144.359639 
L 260.988344 141.707847 
z
" clip-path="url(#p08f6da9280)" style="stroke: #000000; stroke-linecap: round"/>
   </g>
   <g id="patch_4">
    <path d="M 253.693919 119.214862 
Q 274.094088 92.263543 293.819491 66.20368 
" clip-path="url(#p08f6da9280)" style="fill: none; stroke: #000000; stroke-linecap: round"/>
    <path d="M 289.810694 68.185987 
L 293.819491 66.20368 
L 293.000058 70.600102 
z
" clip-path="url(#p08f6da9280)" style="stroke: #000000; stroke-linecap: round"/>
   </g>
   <g id="patch_5">
    <path d="M 290.944707 193.896692 
Q 254.237578 193.631101 218.648454 193.373599 
" clip-path="url(#p08f6da9280)" style="fill: none; stroke: #000000; stroke-linecap: round"/>
    <path d="M 222.633878 195.402487 
L 218.648454 193.373599 
L 222.662819 191.402592 
z
" clip-path="url(#p08f6da9280)" style="stroke: #000000; stroke-linecap: round"/>
   </g>
   <g id="patch_6">
    <path d="M 294.709533 193.263624 
Q 325.051576 182.510978 354.3398 172.131786 
" clip-path="url(#p08f6da9280)" style="fill: none; stroke: #000000; stroke-linecap: round"/>
    <path d="M 349.901493 171.582766 
L 354.3398 172.131786 
L 351.237599 175.35302 
z
" clip-path="url(#p08f6da9280)" style="stroke: #000000; stroke-linecap: round"/>
   </g>
   <g id="patch_7">
    <path d="M 245.681132 182.021094 
Q 231.54302 187.345361 218.451207 192.275603 
" clip-path="url(#p08f6da9280)" style="fill: none; stroke: #000000; stroke-linecap: round"/>
    <path d="M 222.899418 192.737572 
L 218.451207 192.275603 
L 221.489709 188.994215 
z
" clip-path="url(#p08f6da9280)" style="stroke: #000000; stroke-linecap: round"/>
   </g>
   <g id="patch_8">
    <path d="M 248.410293 179.637252 
Q 256.735377 164.212021 264.529452 149.770675 
" clip-path="url(#p08f6da9280)" style="fill: none; stroke: #000000; stroke-linecap: round"/>
    <path d="M 260.869631 152.340833 
L 264.529452 149.770675 
L 264.389686 154.240627 
z
" clip-path="url(#p08f6da9280)" style="stroke: #000000; stroke-linecap: round"/>
   </g>
   <g id="patch_9">
    <path d="M 265.098714 145.356203 
Q 259.254317 133.919356 253.918674 123.478084 
" clip-path="url(#p08f6da9280)" style="fill: none; stroke: #000000; stroke-linecap: round"/>
    <path d="M 253.957907 127.950048 
L 253.918674 123.478084 
L 257.519785 126.129876 
z
" clip-path="url(#p08f6da9280)" style="stroke: #000000; stroke-linecap: round"/>
   </g>
   <g id="patch_10">
    <path d="M 265.062009 148.783921 
Q 256.736925 164.209152 248.94285 178.650498 
" clip-path="url(#p08f6da9280)" style="fill: none; stroke: #000000; stroke-linecap: round"/>
    <path d="M 252.602671 176.08034 
L 248.94285 178.650498 
L 249.082616 174.180546 
z
" clip-path="url(#p08f6da9280)" style="stroke: #000000; stroke-linecap: round"/>
   </g>
   <g id="patch_11">
    <path d="M 346.458427 30.041647 
Q 369.703069 30.661608 391.830074 31.25176 
" clip-path="url(#p08f6da9280)" style="fill: none; stroke: #000000; stroke-linecap: round"/>
    <path d="M 387.884819 29.145824 
L 391.830074 31.25176 
L 387.778173 33.144402 
z
" clip-path="url(#p08f6da9280)" style="stroke: #000000; stroke-linecap: round"/>
   </g>
   <g id="patch_12">
    <path d="M 342.929636 31.092981 
Q 320.094946 46.877888 298.179942 62.027045 
" clip-path="url(#p08f6da9280)" style="fill: none; stroke: #000000; stroke-linecap: round"/>
    <path d="M 302.607574 61.3977 
L 298.179942 62.027045 
L 300.333046 58.107332 
z
" clip-path="url(#p08f6da9280)" style="stroke: #000000; stroke-linecap: round"/>
   </g>
   <g id="patch_13">
    <path d="M 392.950335 31.281639 
Q 369.705693 30.661678 347.578688 30.071525 
" clip-path="url(#p08f6da9280)" style="fill: none; stroke: #000000; stroke-linecap: round"/>
    <path d="M 351.523942 32.177461 
L 347.578688 30.071525 
L 351.630589 28.178883 
z
" clip-path="url(#p08f6da9280)" style="stroke: #000000; stroke-linecap: round"/>
   </g>
   <g id="patch_14">
    <path d="M 395.869625 33.000775 
Q 407.848916 53.261379 419.25918 72.559586 
" clip-path="url(#p08f6da9280)" style="fill: none; stroke: #000000; stroke-linecap: round"/>
    <path d="M 418.944954 68.098502 
L 419.25918 72.559586 
L 415.501778 70.134316 
z
" clip-path="url(#p08f6da9280)" style="stroke: #000000; stroke-linecap: round"/>
   </g>
   <g id="patch_15">
    <path d="M 294.498584 65.306509 
Q 274.098415 92.257827 254.373011 118.317691 
" clip-path="url(#p08f6da9280)" style="fill: none; stroke: #000000; stroke-linecap: round"/>
    <path d="M 258.381809 116.335383 
L 254.373011 118.317691 
L 255.192444 113.921268 
z
" clip-path="url(#p08f6da9280)" style="stroke: #000000; stroke-linecap: round"/>
   </g>
   <g id="patch_16">
    <path d="M 297.260428 62.662676 
Q 320.095118 46.877769 342.010122 31.728612 
" clip-path="url(#p08f6da9280)" style="fill: none; stroke: #000000; stroke-linecap: round"/>
    <path d="M 337.58249 32.357957 
L 342.010122 31.728612 
L 339.857018 35.648325 
z
" clip-path="url(#p08f6da9280)" style="stroke: #000000; stroke-linecap: round"/>
   </g>
   <g id="patch_17">
    <path d="M 355.39521 171.757769 
Q 325.053167 182.510414 295.764943 192.889607 
" clip-path="url(#p08f6da9280)" style="fill: none; stroke: #000000; stroke-linecap: round"/>
    <path d="M 300.20325 193.438627 
L 295.764943 192.889607 
L 298.867144 189.668373 
z
" clip-path="url(#p08f6da9280)" style="stroke: #000000; stroke-linecap: round"/>
   </g>
   <g id="patch_18">
    <path d="M 358.673818 169.829866 
Q 380.509198 150.57712 401.505972 132.063791 
" clip-path="url(#p08f6da9280)" style="fill: none; stroke: #000000; stroke-linecap: round"/>
    <path d="M 397.182971 133.209069 
L 401.505972 132.063791 
L 399.828394 136.209359 
z
" clip-path="url(#p08f6da9280)" style="stroke: #000000; stroke-linecap: round"/>
   </g>
   <g id="patch_19">
    <path d="M 419.827254 73.520371 
Q 407.847963 53.259767 396.437699 33.96156 
" clip-path="url(#p08f6da9280)" style="fill: none; stroke: #000000; stroke-linecap: round"/>
    <path d="M 396.751925 38.422643 
L 396.437699 33.96156 
L 400.195101 36.38683 
z
" clip-path="url(#p08f6da9280)" style="stroke: #000000; stroke-linecap: round"/>
   </g>
   <g id="patch_20">
    <path d="M 420.238849 77.039491 
Q 412.303929 102.618433 404.700265 127.12954 
" clip-path="url(#p08f6da9280)" style="fill: none; stroke: #000000; stroke-linecap: round"/>
    <path d="M 407.795602 123.90171 
L 404.700265 127.12954 
L 403.975203 122.716572 
z
" clip-path="url(#p08f6da9280)" style="stroke: #000000; stroke-linecap: round"/>
   </g>
   <g id="patch_21">
    <path d="M 402.343338 131.325467 
Q 380.507957 150.578214 359.511184 169.091542 
" clip-path="url(#p08f6da9280)" style="fill: none; stroke: #000000; stroke-linecap: round"/>
    <path d="M 363.834185 167.946264 
L 359.511184 169.091542 
L 361.188762 164.945975 
z
" clip-path="url(#p08f6da9280)" style="stroke: #000000; stroke-linecap: round"/>
   </g>
   <g id="patch_22">
    <path d="M 404.370331 128.193113 
Q 412.305251 102.614172 419.908915 78.103064 
" clip-path="url(#p08f6da9280)" style="fill: none; stroke: #000000; stroke-linecap: round"/>
    <path d="M 416.813578 81.330895 
L 419.908915 78.103064 
L 420.633977 82.516032 
z
" clip-path="url(#p08f6da9280)" style="stroke: #000000; stroke-linecap: round"/>
   </g>
   <g id="patch_23">
    <path d="M 158.972636 313.678568 
Q 160.786353 288.190952 162.520711 263.81855 
" clip-path="url(#p08f6da9280)" style="fill: none; stroke: #000000; stroke-linecap: round"/>
    <path d="M 160.241831 267.666498 
L 162.520711 263.81855 
L 164.231741 267.950423 
z
" clip-path="url(#p08f6da9280)" style="stroke: #000000; stroke-linecap: round"/>
   </g>
   <g id="patch_24">
    <path d="M 157.23975 314.516062 
Q 145.738532 306.630719 135.159434 299.37759 
" clip-path="url(#p08f6da9280)" style="fill: none; stroke: #000000; stroke-linecap: round"/>
    <path d="M 137.327572 303.289006 
L 135.159434 299.37759 
L 139.58945 299.989929 
z
" clip-path="url(#p08f6da9280)" style="stroke: #000000; stroke-linecap: round"/>
   </g>
   <g id="patch_25">
    <path d="M 216.471154 191.627884 
Q 234.060308 157.054815 251.142497 123.478233 
" clip-path="url(#p08f6da9280)" style="fill: none; stroke: #000000; stroke-linecap: round"/>
    <path d="M 247.546151 126.136484 
L 251.142497 123.478233 
L 251.111291 127.95026 
z
" clip-path="url(#p08f6da9280)" style="stroke: #000000; stroke-linecap: round"/>
   </g>
   <g id="patch_26">
    <path d="M 217.533095 193.365529 
Q 254.240224 193.63112 289.829349 193.888622 
" clip-path="url(#p08f6da9280)" style="fill: none; stroke: #000000; stroke-linecap: round"/>
    <path d="M 285.843924 191.859733 
L 289.829349 193.888622 
L 285.814983 195.859628 
z
" clip-path="url(#p08f6da9280)" style="stroke: #000000; stroke-linecap: round"/>
   </g>
   <g id="patch_27">
    <path d="M 217.404844 192.669652 
Q 231.542957 187.345385 244.63477 182.415143 
" clip-path="url(#p08f6da9280)" style="fill: none; stroke: #000000; stroke-linecap: round"/>
    <path d="M 240.186559 181.953174 
L 244.63477 182.415143 
L 241.596268 185.696531 
z
" clip-path="url(#p08f6da9280)" style="stroke: #000000; stroke-linecap: round"/>
   </g>
   <g id="patch_28">
    <path d="M 214.398986 194.876047 
Q 189.165088 227.06138 164.621013 258.366857 
" clip-path="url(#p08f6da9280)" style="fill: none; stroke: #000000; stroke-linecap: round"/>
    <path d="M 168.66293 256.452985 
L 164.621013 258.366857 
L 165.515065 253.985 
z
" clip-path="url(#p08f6da9280)" style="stroke: #000000; stroke-linecap: round"/>
   </g>
   <g id="patch_29">
    <path d="M 213.660524 193.210483 
Q 179.834777 190.743741 147.124103 188.358315 
" clip-path="url(#p08f6da9280)" style="fill: none; stroke: #000000; stroke-linecap: round"/>
    <path d="M 150.968045 190.643945 
L 147.124103 188.358315 
L 151.258973 186.654539 
z
" clip-path="url(#p08f6da9280)" style="stroke: #000000; stroke-linecap: round"/>
   </g>
   <g id="patch_30">
    <path d="M 53.127252 252.125543 
Q 78.139298 257.234166 102.055925 262.119055 
" clip-path="url(#p08f6da9280)" style="fill: none; stroke: #000000; stroke-linecap: round"/>
    <path d="M 98.537066 259.359049 
L 102.055925 262.119055 
L 97.736606 263.278139 
z
" clip-path="url(#p08f6da9280)" style="stroke: #000000; stroke-linecap: round"/>
   </g>
   <g id="patch_31">
    <path d="M 50.771398 249.85841 
Q 45.609143 228.785034 40.712902 208.797585 
" clip-path="url(#p08f6da9280)" style="fill: none; stroke: #000000; stroke-linecap: round"/>
    <path d="M 39.722061 213.158575 
L 40.712902 208.797585 
L 43.60719 212.206852 
z
" clip-path="url(#p08f6da9280)" style="stroke: #000000; stroke-linecap: round"/>
   </g>
   <g id="patch_32">
    <path d="M 40.447318 207.713416 
Q 45.609573 228.786791 50.505814 248.774241 
" clip-path="url(#p08f6da9280)" style="fill: none; stroke: #000000; stroke-linecap: round"/>
    <path d="M 51.496655 244.41325 
L 50.505814 248.774241 
L 47.611526 245.364974 
z
" clip-path="url(#p08f6da9280)" style="stroke: #000000; stroke-linecap: round"/>
   </g>
   <g id="patch_33">
    <path d="M 41.755562 205.04026 
Q 62.951861 195.535715 83.127994 186.488619 
" clip-path="url(#p08f6da9280)" style="fill: none; stroke: #000000; stroke-linecap: round"/>
    <path d="M 78.659825 186.300307 
L 83.127994 186.488619 
L 80.296443 189.950167 
z
" clip-path="url(#p08f6da9280)" style="stroke: #000000; stroke-linecap: round"/>
   </g>
   <g id="patch_34">
    <path d="M 84.144724 186.032711 
Q 62.948424 195.537256 42.772291 204.584353 
" clip-path="url(#p08f6da9280)" style="fill: none; stroke: #000000; stroke-linecap: round"/>
    <path d="M 47.240461 204.772664 
L 42.772291 204.584353 
L 45.603842 201.122804 
z
" clip-path="url(#p08f6da9280)" style="stroke: #000000; stroke-linecap: round"/>
   </g>
   <g id="patch_35">
    <path d="M 87.055116 186.804649 
Q 96.012606 199.084804 104.311227 210.46169 
" clip-path="url(#p08f6da9280)" style="fill: none; stroke: #000000; stroke-linecap: round"/>
    <path d="M 103.569801 206.051442 
L 104.311227 210.46169 
L 100.338173 208.408682 
z
" clip-path="url(#p08f6da9280)" style="stroke: #000000; stroke-linecap: round"/>
   </g>
   <g id="patch_36">
    <path d="M 87.848256 185.335927 
Q 114.996354 186.687892 141.027802 187.984247 
" clip-path="url(#p08f6da9280)" style="fill: none; stroke: #000000; stroke-linecap: round"/>
    <path d="M 137.132229 185.787771 
L 141.027802 187.984247 
L 136.933277 189.78282 
z
" clip-path="url(#p08f6da9280)" style="stroke: #000000; stroke-linecap: round"/>
   </g>
   <g id="patch_37">
    <path d="M 146.010351 188.277095 
Q 179.836097 190.743837 212.546771 193.129262 
" clip-path="url(#p08f6da9280)" style="fill: none; stroke: #000000; stroke-linecap: round"/>
    <path d="M 208.702829 190.843632 
L 212.546771 193.129262 
L 208.411901 194.833038 
z
" clip-path="url(#p08f6da9280)" style="stroke: #000000; stroke-linecap: round"/>
   </g>
   <g id="patch_38">
    <path d="M 142.141869 188.039727 
Q 114.99377 186.687763 88.962322 185.391407 
" clip-path="url(#p08f6da9280)" style="fill: none; stroke: #000000; stroke-linecap: round"/>
    <path d="M 92.857896 187.587884 
L 88.962322 185.391407 
L 93.056848 183.592834 
z
" clip-path="url(#p08f6da9280)" style="stroke: #000000; stroke-linecap: round"/>
   </g>
   <g id="patch_39">
    <path d="M 142.456923 189.193912 
Q 125.095409 200.53286 108.669971 211.260448 
" clip-path="url(#p08f6da9280)" style="fill: none; stroke: #000000; stroke-linecap: round"/>
    <path d="M 113.112614 210.747687 
L 108.669971 211.260448 
L 110.925348 207.398677 
z
" clip-path="url(#p08f6da9280)" style="stroke: #000000; stroke-linecap: round"/>
   </g>
   <g id="patch_40">
    <path d="M 104.970711 211.365801 
Q 96.013221 199.085647 87.7146 187.70876 
" clip-path="url(#p08f6da9280)" style="fill: none; stroke: #000000; stroke-linecap: round"/>
    <path d="M 88.456026 192.119008 
L 87.7146 187.70876 
L 91.687654 189.761768 
z
" clip-path="url(#p08f6da9280)" style="stroke: #000000; stroke-linecap: round"/>
   </g>
   <g id="patch_41">
    <path d="M 107.732011 211.873038 
Q 125.093525 200.53409 141.518963 189.806501 
" clip-path="url(#p08f6da9280)" style="fill: none; stroke: #000000; stroke-linecap: round"/>
    <path d="M 137.07632 190.319262 
L 141.518963 189.806501 
L 139.263586 193.668272 
z
" clip-path="url(#p08f6da9280)" style="stroke: #000000; stroke-linecap: round"/>
   </g>
   <g id="patch_42">
    <path d="M 106.071002 214.867052 
Q 105.580981 237.830352 105.114813 259.675871 
" clip-path="url(#p08f6da9280)" style="fill: none; stroke: #000000; stroke-linecap: round"/>
    <path d="M 107.199696 255.719451 
L 105.114813 259.675871 
L 103.200606 255.634113 
z
" clip-path="url(#p08f6da9280)" style="stroke: #000000; stroke-linecap: round"/>
   </g>
   <g id="patch_43">
    <path d="M 103.154317 262.343397 
Q 78.14227 257.234773 54.225643 252.349885 
" clip-path="url(#p08f6da9280)" style="fill: none; stroke: #000000; stroke-linecap: round"/>
    <path d="M 57.744502 255.10989 
L 54.225643 252.349885 
L 58.544963 251.190801 
z
" clip-path="url(#p08f6da9280)" style="stroke: #000000; stroke-linecap: round"/>
   </g>
   <g id="patch_44">
    <path d="M 105.090946 260.794329 
Q 105.580967 237.831029 106.047135 215.985509 
" clip-path="url(#p08f6da9280)" style="fill: none; stroke: #000000; stroke-linecap: round"/>
    <path d="M 103.962252 219.94193 
L 106.047135 215.985509 
L 107.961342 220.027268 
z
" clip-path="url(#p08f6da9280)" style="stroke: #000000; stroke-linecap: round"/>
   </g>
   <g id="patch_45">
    <path d="M 106.982659 262.66478 
Q 133.892032 261.749789 159.684016 260.872792 
" clip-path="url(#p08f6da9280)" style="fill: none; stroke: #000000; stroke-linecap: round"/>
    <path d="M 155.61836 259.009879 
L 159.684016 260.872792 
L 155.754293 263.007569 
z
" clip-path="url(#p08f6da9280)" style="stroke: #000000; stroke-linecap: round"/>
   </g>
   <g id="patch_46">
    <path d="M 106.250438 264.250236 
Q 118.846653 280.191841 130.74972 295.256207 
" clip-path="url(#p08f6da9280)" style="fill: none; stroke: #000000; stroke-linecap: round"/>
    <path d="M 129.839092 290.877765 
L 130.74972 295.256207 
L 126.70059 293.357644 
z
" clip-path="url(#p08f6da9280)" style="stroke: #000000; stroke-linecap: round"/>
   </g>
   <g id="patch_47">
    <path d="M 162.600286 262.700307 
Q 160.786569 288.187923 159.052211 312.560325 
" clip-path="url(#p08f6da9280)" style="fill: none; stroke: #000000; stroke-linecap: round"/>
    <path d="M 161.331091 308.712377 
L 159.052211 312.560325 
L 157.341181 308.428452 
z
" clip-path="url(#p08f6da9280)" style="stroke: #000000; stroke-linecap: round"/>
   </g>
   <g id="patch_48">
    <path d="M 163.932995 259.244411 
Q 189.166892 227.059079 213.710968 195.753601 
" clip-path="url(#p08f6da9280)" style="fill: none; stroke: #000000; stroke-linecap: round"/>
    <path d="M 209.669051 197.667473 
L 213.710968 195.753601 
L 212.816916 200.135458 
z
" clip-path="url(#p08f6da9280)" style="stroke: #000000; stroke-linecap: round"/>
   </g>
   <g id="patch_49">
    <path d="M 160.804692 260.834686 
Q 133.89532 261.749677 108.103336 262.626674 
" clip-path="url(#p08f6da9280)" style="fill: none; stroke: #000000; stroke-linecap: round"/>
    <path d="M 112.168991 264.489587 
L 108.103336 262.626674 
L 112.033059 260.491897 
z
" clip-path="url(#p08f6da9280)" style="stroke: #000000; stroke-linecap: round"/>
   </g>
   <g id="patch_50">
    <path d="M 161.512551 262.270494 
Q 147.690075 279.210948 134.574418 295.285142 
" clip-path="url(#p08f6da9280)" style="fill: none; stroke: #000000; stroke-linecap: round"/>
    <path d="M 138.652827 293.450315 
L 134.574418 295.285142 
L 135.553603 290.921519 
z
" clip-path="url(#p08f6da9280)" style="stroke: #000000; stroke-linecap: round"/>
   </g>
   <g id="patch_51">
    <path d="M 134.238417 298.746131 
Q 145.739635 306.631475 156.318733 313.884604 
" clip-path="url(#p08f6da9280)" style="fill: none; stroke: #000000; stroke-linecap: round"/>
    <path d="M 154.150595 309.973187 
L 156.318733 313.884604 
L 151.888717 313.272264 
z
" clip-path="url(#p08f6da9280)" style="stroke: #000000; stroke-linecap: round"/>
   </g>
   <g id="patch_52">
    <path d="M 131.442158 296.132548 
Q 118.845944 280.190944 106.942877 265.126577 
" clip-path="url(#p08f6da9280)" style="fill: none; stroke: #000000; stroke-linecap: round"/>
    <path d="M 107.853504 269.505019 
L 106.942877 265.126577 
L 110.992007 267.02514 
z
" clip-path="url(#p08f6da9280)" style="stroke: #000000; stroke-linecap: round"/>
   </g>
   <g id="patch_53">
    <path d="M 133.868138 296.15074 
Q 147.690614 279.210286 160.806271 263.136092 
" clip-path="url(#p08f6da9280)" style="fill: none; stroke: #000000; stroke-linecap: round"/>
    <path d="M 156.727863 264.970918 
L 160.806271 263.136092 
L 159.827087 267.499715 
z
" clip-path="url(#p08f6da9280)" style="stroke: #000000; stroke-linecap: round"/>
   </g>
   <g id="PathCollection_1">
    <defs>
     <path id="mb85505df1b" d="M 0 1.936492 
C 0.513564 1.936492 1.006162 1.732451 1.369306 1.369306 
C 1.732451 1.006162 1.936492 0.513564 1.936492 0 
C 1.936492 -0.513564 1.732451 -1.006162 1.369306 -1.369306 
C 1.006162 -1.732451 0.513564 -1.936492 0 -1.936492 
C -0.513564 -1.936492 -1.006162 -1.732451 -1.369306 -1.369306 
C -1.732451 -1.006162 -1.936492 -0.513564 -1.936492 0 
C -1.936492 0.513564 -1.732451 1.006162 -1.369306 1.369306 
C -1.006162 1.732451 -0.513564 1.936492 0 1.936492 
z
" style="stroke: #1f78b4"/>
    </defs>
    <g clip-path="url(#p08f6da9280)">
     <use xlink:href="#mb85505df1b" x="252.527544" y="120.755796" style="fill: #1f78b4; stroke: #1f78b4"/>
     <use xlink:href="#mb85505df1b" x="292.883543" y="193.91072" style="fill: #1f78b4; stroke: #1f78b4"/>
     <use xlink:href="#mb85505df1b" x="247.491718" y="181.339246" style="fill: #1f78b4; stroke: #1f78b4"/>
     <use xlink:href="#mb85505df1b" x="265.980584" y="147.081928" style="fill: #1f78b4; stroke: #1f78b4"/>
     <use xlink:href="#mb85505df1b" x="344.525106" y="29.990083" style="fill: #1f78b4; stroke: #1f78b4"/>
     <use xlink:href="#mb85505df1b" x="394.883656" y="31.333203" style="fill: #1f78b4; stroke: #1f78b4"/>
     <use xlink:href="#mb85505df1b" x="295.664958" y="63.765574" style="fill: #1f78b4; stroke: #1f78b4"/>
     <use xlink:href="#mb85505df1b" x="357.2212" y="171.110673" style="fill: #1f78b4; stroke: #1f78b4"/>
     <use xlink:href="#mb85505df1b" x="420.813223" y="75.187943" style="fill: #1f78b4; stroke: #1f78b4"/>
     <use xlink:href="#mb85505df1b" x="403.795956" y="130.044661" style="fill: #1f78b4; stroke: #1f78b4"/>
     <use xlink:href="#mb85505df1b" x="158.8352" y="315.609917" style="fill: #1f78b4; stroke: #1f78b4"/>
     <use xlink:href="#mb85505df1b" x="215.594259" y="193.3515" style="fill: #1f78b4; stroke: #1f78b4"/>
     <use xlink:href="#mb85505df1b" x="51.231939" y="251.738431" style="fill: #1f78b4; stroke: #1f78b4"/>
     <use xlink:href="#mb85505df1b" x="39.986777" y="205.833394" style="fill: #1f78b4; stroke: #1f78b4"/>
     <use xlink:href="#mb85505df1b" x="85.913509" y="185.239578" style="fill: #1f78b4; stroke: #1f78b4"/>
     <use xlink:href="#mb85505df1b" x="144.076616" y="188.136077" style="fill: #1f78b4; stroke: #1f78b4"/>
     <use xlink:href="#mb85505df1b" x="106.112318" y="212.930873" style="fill: #1f78b4; stroke: #1f78b4"/>
     <use xlink:href="#mb85505df1b" x="105.049629" y="262.730508" style="fill: #1f78b4; stroke: #1f78b4"/>
     <use xlink:href="#mb85505df1b" x="162.737722" y="260.768958" style="fill: #1f78b4; stroke: #1f78b4"/>
     <use xlink:href="#mb85505df1b" x="132.642967" y="297.652276" style="fill: #1f78b4; stroke: #1f78b4"/>
    </g>
   </g>
   <g id="text_1">
    <g clip-path="url(#p08f6da9280)">
     <!-- 0 -->
     <g transform="translate(249.346294 123.515171) scale(0.1 -0.1)">
      <defs>
       <path id="DejaVuSans-30" d="M 2034 4250 
Q 1547 4250 1301 3770 
Q 1056 3291 1056 2328 
Q 1056 1369 1301 889 
Q 1547 409 2034 409 
Q 2525 409 2770 889 
Q 3016 1369 3016 2328 
Q 3016 3291 2770 3770 
Q 2525 4250 2034 4250 
z
M 2034 4750 
Q 2819 4750 3233 4129 
Q 3647 3509 3647 2328 
Q 3647 1150 3233 529 
Q 2819 -91 2034 -91 
Q 1250 -91 836 529 
Q 422 1150 422 2328 
Q 422 3509 836 4129 
Q 1250 4750 2034 4750 
z
" transform="scale(0.015625)"/>
      </defs>
      <use xlink:href="#DejaVuSans-30"/>
     </g>
    </g>
   </g>
   <g id="text_2">
    <g clip-path="url(#p08f6da9280)">
     <!-- 1 -->
     <g transform="translate(289.702293 196.670095) scale(0.1 -0.1)">
      <defs>
       <path id="DejaVuSans-31" d="M 794 531 
L 1825 531 
L 1825 4091 
L 703 3866 
L 703 4441 
L 1819 4666 
L 2450 4666 
L 2450 531 
L 3481 531 
L 3481 0 
L 794 0 
L 794 531 
z
" transform="scale(0.015625)"/>
      </defs>
      <use xlink:href="#DejaVuSans-31"/>
     </g>
    </g>
   </g>
   <g id="text_3">
    <g clip-path="url(#p08f6da9280)">
     <!-- 2 -->
     <g transform="translate(244.310468 184.098621) scale(0.1 -0.1)">
      <defs>
       <path id="DejaVuSans-32" d="M 1228 531 
L 3431 531 
L 3431 0 
L 469 0 
L 469 531 
Q 828 903 1448 1529 
Q 2069 2156 2228 2338 
Q 2531 2678 2651 2914 
Q 2772 3150 2772 3378 
Q 2772 3750 2511 3984 
Q 2250 4219 1831 4219 
Q 1534 4219 1204 4116 
Q 875 4013 500 3803 
L 500 4441 
Q 881 4594 1212 4672 
Q 1544 4750 1819 4750 
Q 2544 4750 2975 4387 
Q 3406 4025 3406 3419 
Q 3406 3131 3298 2873 
Q 3191 2616 2906 2266 
Q 2828 2175 2409 1742 
Q 1991 1309 1228 531 
z
" transform="scale(0.015625)"/>
      </defs>
      <use xlink:href="#DejaVuSans-32"/>
     </g>
    </g>
   </g>
   <g id="text_4">
    <g clip-path="url(#p08f6da9280)">
     <!-- 3 -->
     <g transform="translate(262.799334 149.841303) scale(0.1 -0.1)">
      <defs>
       <path id="DejaVuSans-33" d="M 2597 2516 
Q 3050 2419 3304 2112 
Q 3559 1806 3559 1356 
Q 3559 666 3084 287 
Q 2609 -91 1734 -91 
Q 1441 -91 1130 -33 
Q 819 25 488 141 
L 488 750 
Q 750 597 1062 519 
Q 1375 441 1716 441 
Q 2309 441 2620 675 
Q 2931 909 2931 1356 
Q 2931 1769 2642 2001 
Q 2353 2234 1838 2234 
L 1294 2234 
L 1294 2753 
L 1863 2753 
Q 2328 2753 2575 2939 
Q 2822 3125 2822 3475 
Q 2822 3834 2567 4026 
Q 2313 4219 1838 4219 
Q 1578 4219 1281 4162 
Q 984 4106 628 3988 
L 628 4550 
Q 988 4650 1302 4700 
Q 1616 4750 1894 4750 
Q 2613 4750 3031 4423 
Q 3450 4097 3450 3541 
Q 3450 3153 3228 2886 
Q 3006 2619 2597 2516 
z
" transform="scale(0.015625)"/>
      </defs>
      <use xlink:href="#DejaVuSans-33"/>
     </g>
    </g>
   </g>
   <g id="text_5">
    <g clip-path="url(#p08f6da9280)">
     <!-- 4 -->
     <g transform="translate(341.343856 32.749458) scale(0.1 -0.1)">
      <defs>
       <path id="DejaVuSans-34" d="M 2419 4116 
L 825 1625 
L 2419 1625 
L 2419 4116 
z
M 2253 4666 
L 3047 4666 
L 3047 1625 
L 3713 1625 
L 3713 1100 
L 3047 1100 
L 3047 0 
L 2419 0 
L 2419 1100 
L 313 1100 
L 313 1709 
L 2253 4666 
z
" transform="scale(0.015625)"/>
      </defs>
      <use xlink:href="#DejaVuSans-34"/>
     </g>
    </g>
   </g>
   <g id="text_6">
    <g clip-path="url(#p08f6da9280)">
     <!-- 5 -->
     <g transform="translate(391.702406 34.092578) scale(0.1 -0.1)">
      <defs>
       <path id="DejaVuSans-35" d="M 691 4666 
L 3169 4666 
L 3169 4134 
L 1269 4134 
L 1269 2991 
Q 1406 3038 1543 3061 
Q 1681 3084 1819 3084 
Q 2600 3084 3056 2656 
Q 3513 2228 3513 1497 
Q 3513 744 3044 326 
Q 2575 -91 1722 -91 
Q 1428 -91 1123 -41 
Q 819 9 494 109 
L 494 744 
Q 775 591 1075 516 
Q 1375 441 1709 441 
Q 2250 441 2565 725 
Q 2881 1009 2881 1497 
Q 2881 1984 2565 2268 
Q 2250 2553 1709 2553 
Q 1456 2553 1204 2497 
Q 953 2441 691 2322 
L 691 4666 
z
" transform="scale(0.015625)"/>
      </defs>
      <use xlink:href="#DejaVuSans-35"/>
     </g>
    </g>
   </g>
   <g id="text_7">
    <g clip-path="url(#p08f6da9280)">
     <!-- 6 -->
     <g transform="translate(292.483708 66.524949) scale(0.1 -0.1)">
      <defs>
       <path id="DejaVuSans-36" d="M 2113 2584 
Q 1688 2584 1439 2293 
Q 1191 2003 1191 1497 
Q 1191 994 1439 701 
Q 1688 409 2113 409 
Q 2538 409 2786 701 
Q 3034 994 3034 1497 
Q 3034 2003 2786 2293 
Q 2538 2584 2113 2584 
z
M 3366 4563 
L 3366 3988 
Q 3128 4100 2886 4159 
Q 2644 4219 2406 4219 
Q 1781 4219 1451 3797 
Q 1122 3375 1075 2522 
Q 1259 2794 1537 2939 
Q 1816 3084 2150 3084 
Q 2853 3084 3261 2657 
Q 3669 2231 3669 1497 
Q 3669 778 3244 343 
Q 2819 -91 2113 -91 
Q 1303 -91 875 529 
Q 447 1150 447 2328 
Q 447 3434 972 4092 
Q 1497 4750 2381 4750 
Q 2619 4750 2861 4703 
Q 3103 4656 3366 4563 
z
" transform="scale(0.015625)"/>
      </defs>
      <use xlink:href="#DejaVuSans-36"/>
     </g>
    </g>
   </g>
   <g id="text_8">
    <g clip-path="url(#p08f6da9280)">
     <!-- 7 -->
     <g transform="translate(354.03995 173.870048) scale(0.1 -0.1)">
      <defs>
       <path id="DejaVuSans-37" d="M 525 4666 
L 3525 4666 
L 3525 4397 
L 1831 0 
L 1172 0 
L 2766 4134 
L 525 4134 
L 525 4666 
z
" transform="scale(0.015625)"/>
      </defs>
      <use xlink:href="#DejaVuSans-37"/>
     </g>
    </g>
   </g>
   <g id="text_9">
    <g clip-path="url(#p08f6da9280)">
     <!-- 8 -->
     <g transform="translate(417.631973 77.947318) scale(0.1 -0.1)">
      <defs>
       <path id="DejaVuSans-38" d="M 2034 2216 
Q 1584 2216 1326 1975 
Q 1069 1734 1069 1313 
Q 1069 891 1326 650 
Q 1584 409 2034 409 
Q 2484 409 2743 651 
Q 3003 894 3003 1313 
Q 3003 1734 2745 1975 
Q 2488 2216 2034 2216 
z
M 1403 2484 
Q 997 2584 770 2862 
Q 544 3141 544 3541 
Q 544 4100 942 4425 
Q 1341 4750 2034 4750 
Q 2731 4750 3128 4425 
Q 3525 4100 3525 3541 
Q 3525 3141 3298 2862 
Q 3072 2584 2669 2484 
Q 3125 2378 3379 2068 
Q 3634 1759 3634 1313 
Q 3634 634 3220 271 
Q 2806 -91 2034 -91 
Q 1263 -91 848 271 
Q 434 634 434 1313 
Q 434 1759 690 2068 
Q 947 2378 1403 2484 
z
M 1172 3481 
Q 1172 3119 1398 2916 
Q 1625 2713 2034 2713 
Q 2441 2713 2670 2916 
Q 2900 3119 2900 3481 
Q 2900 3844 2670 4047 
Q 2441 4250 2034 4250 
Q 1625 4250 1398 4047 
Q 1172 3844 1172 3481 
z
" transform="scale(0.015625)"/>
      </defs>
      <use xlink:href="#DejaVuSans-38"/>
     </g>
    </g>
   </g>
   <g id="text_10">
    <g clip-path="url(#p08f6da9280)">
     <!-- 9 -->
     <g transform="translate(400.614706 132.804036) scale(0.1 -0.1)">
      <defs>
       <path id="DejaVuSans-39" d="M 703 97 
L 703 672 
Q 941 559 1184 500 
Q 1428 441 1663 441 
Q 2288 441 2617 861 
Q 2947 1281 2994 2138 
Q 2813 1869 2534 1725 
Q 2256 1581 1919 1581 
Q 1219 1581 811 2004 
Q 403 2428 403 3163 
Q 403 3881 828 4315 
Q 1253 4750 1959 4750 
Q 2769 4750 3195 4129 
Q 3622 3509 3622 2328 
Q 3622 1225 3098 567 
Q 2575 -91 1691 -91 
Q 1453 -91 1209 -44 
Q 966 3 703 97 
z
M 1959 2075 
Q 2384 2075 2632 2365 
Q 2881 2656 2881 3163 
Q 2881 3666 2632 3958 
Q 2384 4250 1959 4250 
Q 1534 4250 1286 3958 
Q 1038 3666 1038 3163 
Q 1038 2656 1286 2365 
Q 1534 2075 1959 2075 
z
" transform="scale(0.015625)"/>
      </defs>
      <use xlink:href="#DejaVuSans-39"/>
     </g>
    </g>
   </g>
   <g id="text_11">
    <g clip-path="url(#p08f6da9280)">
     <!-- 10 -->
     <g transform="translate(152.4727 318.369292) scale(0.1 -0.1)">
      <use xlink:href="#DejaVuSans-31"/>
      <use xlink:href="#DejaVuSans-30" x="63.623047"/>
     </g>
    </g>
   </g>
   <g id="text_12">
    <g clip-path="url(#p08f6da9280)">
     <!-- 11 -->
     <g transform="translate(209.231759 196.110875) scale(0.1 -0.1)">
      <use xlink:href="#DejaVuSans-31"/>
      <use xlink:href="#DejaVuSans-31" x="63.623047"/>
     </g>
    </g>
   </g>
   <g id="text_13">
    <g clip-path="url(#p08f6da9280)">
     <!-- 12 -->
     <g transform="translate(44.869439 254.497806) scale(0.1 -0.1)">
      <use xlink:href="#DejaVuSans-31"/>
      <use xlink:href="#DejaVuSans-32" x="63.623047"/>
     </g>
    </g>
   </g>
   <g id="text_14">
    <g clip-path="url(#p08f6da9280)">
     <!-- 13 -->
     <g transform="translate(33.624277 208.592769) scale(0.1 -0.1)">
      <use xlink:href="#DejaVuSans-31"/>
      <use xlink:href="#DejaVuSans-33" x="63.623047"/>
     </g>
    </g>
   </g>
   <g id="text_15">
    <g clip-path="url(#p08f6da9280)">
     <!-- 14 -->
     <g transform="translate(79.551009 187.998953) scale(0.1 -0.1)">
      <use xlink:href="#DejaVuSans-31"/>
      <use xlink:href="#DejaVuSans-34" x="63.623047"/>
     </g>
    </g>
   </g>
   <g id="text_16">
    <g clip-path="url(#p08f6da9280)">
     <!-- 15 -->
     <g transform="translate(137.714116 190.895452) scale(0.1 -0.1)">
      <use xlink:href="#DejaVuSans-31"/>
      <use xlink:href="#DejaVuSans-35" x="63.623047"/>
     </g>
    </g>
   </g>
   <g id="text_17">
    <g clip-path="url(#p08f6da9280)">
     <!-- 16 -->
     <g transform="translate(99.749818 215.690248) scale(0.1 -0.1)">
      <use xlink:href="#DejaVuSans-31"/>
      <use xlink:href="#DejaVuSans-36" x="63.623047"/>
     </g>
    </g>
   </g>
   <g id="text_18">
    <g clip-path="url(#p08f6da9280)">
     <!-- 17 -->
     <g transform="translate(98.687129 265.489883) scale(0.1 -0.1)">
      <use xlink:href="#DejaVuSans-31"/>
      <use xlink:href="#DejaVuSans-37" x="63.623047"/>
     </g>
    </g>
   </g>
   <g id="text_19">
    <g clip-path="url(#p08f6da9280)">
     <!-- 18 -->
     <g transform="translate(156.375222 263.528333) scale(0.1 -0.1)">
      <use xlink:href="#DejaVuSans-31"/>
      <use xlink:href="#DejaVuSans-38" x="63.623047"/>
     </g>
    </g>
   </g>
   <g id="text_20">
    <g clip-path="url(#p08f6da9280)">
     <!-- 19 -->
     <g transform="translate(126.280467 300.411651) scale(0.1 -0.1)">
      <use xlink:href="#DejaVuSans-31"/>
      <use xlink:href="#DejaVuSans-39" x="63.623047"/>
     </g>
    </g>
   </g>
  </g>
 </g>
 <defs>
  <clipPath id="p08f6da9280">
   <rect x="0" y="0" width="460.8" height="345.6"/>
  </clipPath>
 </defs>
</svg>
