<?xml version="1.0" encoding="utf-8" standalone="no"?>
<!DOCTYPE svg PUBLIC "-//W3C//DTD SVG 1.1//EN"
  "http://www.w3.org/Graphics/SVG/1.1/DTD/svg11.dtd">
<svg xmlns:xlink="http://www.w3.org/1999/xlink" width="460.8pt" height="345.6pt" viewBox="0 0 460.8 345.6" xmlns="http://www.w3.org/2000/svg" version="1.1">
 <metadata>
  <rdf:RDF xmlns:dc="http://purl.org/dc/elements/1.1/" xmlns:cc="http://creativecommons.org/ns#" xmlns:rdf="http://www.w3.org/1999/02/22-rdf-syntax-ns#">
   <cc:Work>
    <dc:type rdf:resource="http://purl.org/dc/dcmitype/StillImage"/>
    <dc:date>2024-02-07T13:46:45.597801</dc:date>
    <dc:format>image/svg+xml</dc:format>
    <dc:creator>
     <cc:Agent>
      <dc:title>Matplotlib v3.8.0, https://matplotlib.org/</dc:title>
     </cc:Agent>
    </dc:creator>
   </cc:Work>
  </rdf:RDF>
 </metadata>
 <defs>
  <style type="text/css">*{stroke-linejoin: round; stroke-linecap: butt}</style>
 </defs>
 <g id="figure_1">
  <g id="patch_1">
   <path d="M 0 345.6 
L 460.8 345.6 
L 460.8 0 
L 0 0 
z
" style="fill: #ffffff"/>
  </g>
  <g id="axes_1">
   <g id="patch_2">
    <path d="M 268.02772 307.208581 
Q 306.740462 280.009392 344.538389 253.452943 
" clip-path="url(#p2b258da881)" style="fill: none; stroke: #000000; stroke-linecap: round"/>
    <path d="M 340.115681 254.116009 
L 344.538389 253.452943 
L 342.415216 257.388949 
z
" clip-path="url(#p2b258da881)" style="stroke: #000000; stroke-linecap: round"/>
   </g>
   <g id="patch_3">
    <path d="M 264.543885 307.936591 
Q 220.657369 298.99442 177.866378 290.275469 
" clip-path="url(#p2b258da881)" style="fill: none; stroke: #000000; stroke-linecap: round"/>
    <path d="M 181.386534 293.033819 
L 177.866378 290.275469 
L 182.185152 289.114354 
z
" clip-path="url(#p2b258da881)" style="stroke: #000000; stroke-linecap: round"/>
   </g>
   <g id="patch_4">
    <path d="M 419.043575 219.323303 
Q 383.921642 235.114073 349.819422 250.446382 
" clip-path="url(#p2b258da881)" style="fill: none; stroke: #000000; stroke-linecap: round"/>
    <path d="M 354.287776 250.630259 
L 349.819422 250.446382 
L 352.647536 246.982025 
z
" clip-path="url(#p2b258da881)" style="stroke: #000000; stroke-linecap: round"/>
   </g>
   <g id="patch_5">
    <path d="M 419.172027 217.505789 
Q 388.57392 198.454022 358.924907 179.993205 
" clip-path="url(#p2b258da881)" style="fill: none; stroke: #000000; stroke-linecap: round"/>
    <path d="M 361.263368 183.805239 
L 358.924907 179.993205 
L 363.377611 180.409657 
z
" clip-path="url(#p2b258da881)" style="stroke: #000000; stroke-linecap: round"/>
   </g>
   <g id="patch_6">
    <path d="M 345.45091 252.811815 
Q 306.738169 280.011003 268.940242 306.567452 
" clip-path="url(#p2b258da881)" style="fill: none; stroke: #000000; stroke-linecap: round"/>
    <path d="M 273.36295 305.904387 
L 268.940242 306.567452 
L 271.063414 302.631447 
z
" clip-path="url(#p2b258da881)" style="stroke: #000000; stroke-linecap: round"/>
   </g>
   <g id="patch_7">
    <path d="M 348.806999 250.901566 
Q 383.928931 235.110796 418.031151 219.778487 
" clip-path="url(#p2b258da881)" style="fill: none; stroke: #000000; stroke-linecap: round"/>
    <path d="M 413.562797 219.594611 
L 418.031151 219.778487 
L 415.203038 223.242845 
z
" clip-path="url(#p2b258da881)" style="stroke: #000000; stroke-linecap: round"/>
   </g>
   <g id="patch_8">
    <path d="M 348.48625 252.982552 
Q 383.059247 283.653104 416.795883 313.581699 
" clip-path="url(#p2b258da881)" style="fill: none; stroke: #000000; stroke-linecap: round"/>
    <path d="M 415.130878 309.431066 
L 416.795883 313.581699 
L 412.476373 312.423323 
z
" clip-path="url(#p2b258da881)" style="stroke: #000000; stroke-linecap: round"/>
   </g>
   <g id="patch_9">
    <path d="M 345.526216 250.484912 
Q 304.276149 217.392656 263.898169 185.000017 
" clip-path="url(#p2b258da881)" style="fill: none; stroke: #000000; stroke-linecap: round"/>
    <path d="M 265.766724 189.063083 
L 263.898169 185.000017 
L 268.269755 185.943013 
z
" clip-path="url(#p2b258da881)" style="stroke: #000000; stroke-linecap: round"/>
   </g>
   <g id="patch_10">
    <path d="M 347.280679 249.777395 
Q 351.683728 215.038474 355.946193 181.408714 
" clip-path="url(#p2b258da881)" style="fill: none; stroke: #000000; stroke-linecap: round"/>
    <path d="M 353.459104 185.125484 
L 355.946193 181.408714 
L 357.427356 185.628448 
z
" clip-path="url(#p2b258da881)" style="stroke: #000000; stroke-linecap: round"/>
   </g>
   <g id="patch_11">
    <path d="M 417.633268 314.324563 
Q 383.06027 283.654011 349.323634 253.725416 
" clip-path="url(#p2b258da881)" style="fill: none; stroke: #000000; stroke-linecap: round"/>
    <path d="M 350.988639 257.876049 
L 349.323634 253.725416 
L 353.643144 254.883792 
z
" clip-path="url(#p2b258da881)" style="stroke: #000000; stroke-linecap: round"/>
   </g>
   <g id="patch_12">
    <path d="M 263.027146 184.301252 
Q 304.277213 217.393509 344.655193 249.786147 
" clip-path="url(#p2b258da881)" style="fill: none; stroke: #000000; stroke-linecap: round"/>
    <path d="M 342.786638 245.723082 
L 344.655193 249.786147 
L 340.283607 248.843152 
z
" clip-path="url(#p2b258da881)" style="stroke: #000000; stroke-linecap: round"/>
   </g>
   <g id="patch_13">
    <path d="M 261.403425 181.155929 
Q 258.708408 134.884448 256.078399 89.729109 
" clip-path="url(#p2b258da881)" style="fill: none; stroke: #000000; stroke-linecap: round"/>
    <path d="M 254.314363 93.838632 
L 256.078399 89.729109 
L 258.307596 93.606052 
z
" clip-path="url(#p2b258da881)" style="stroke: #000000; stroke-linecap: round"/>
   </g>
   <g id="patch_14">
    <path d="M 259.623888 183.488418 
Q 197.067413 196.69488 135.604859 209.670402 
" clip-path="url(#p2b258da881)" style="fill: none; stroke: #000000; stroke-linecap: round"/>
    <path d="M 139.931715 210.801031 
L 135.604859 209.670402 
L 139.105476 206.887295 
z
" clip-path="url(#p2b258da881)" style="stroke: #000000; stroke-linecap: round"/>
   </g>
   <g id="patch_15">
    <path d="M 263.451766 182.992781 
Q 308.923106 180.733349 353.27779 178.529403 
" clip-path="url(#p2b258da881)" style="fill: none; stroke: #000000; stroke-linecap: round"/>
    <path d="M 349.183463 176.730379 
L 353.27779 178.529403 
L 349.381975 180.725451 
z
" clip-path="url(#p2b258da881)" style="stroke: #000000; stroke-linecap: round"/>
   </g>
   <g id="patch_16">
    <path d="M 357.971558 179.399607 
Q 388.569665 198.451373 418.218678 216.91219 
" clip-path="url(#p2b258da881)" style="fill: none; stroke: #000000; stroke-linecap: round"/>
    <path d="M 415.880217 213.100156 
L 418.218678 216.91219 
L 413.765974 216.495738 
z
" clip-path="url(#p2b258da881)" style="stroke: #000000; stroke-linecap: round"/>
   </g>
   <g id="patch_17">
    <path d="M 356.087033 180.297527 
Q 351.683984 215.036448 347.421519 248.666208 
" clip-path="url(#p2b258da881)" style="fill: none; stroke: #000000; stroke-linecap: round"/>
    <path d="M 349.908608 244.949437 
L 347.421519 248.666208 
L 345.940356 244.446474 
z
" clip-path="url(#p2b258da881)" style="stroke: #000000; stroke-linecap: round"/>
   </g>
   <g id="patch_18">
    <path d="M 354.394607 178.47391 
Q 308.923267 180.733341 264.568584 182.937287 
" clip-path="url(#p2b258da881)" style="fill: none; stroke: #000000; stroke-linecap: round"/>
    <path d="M 268.662911 184.736311 
L 264.568584 182.937287 
L 268.464399 180.74124 
z
" clip-path="url(#p2b258da881)" style="stroke: #000000; stroke-linecap: round"/>
   </g>
   <g id="patch_19">
    <path d="M 356.042142 176.462481 
Q 350.291919 138.251759 344.708073 101.146622 
" clip-path="url(#p2b258da881)" style="fill: none; stroke: #000000; stroke-linecap: round"/>
    <path d="M 343.325588 105.399708 
L 344.708073 101.146622 
L 347.28105 104.804461 
z
" clip-path="url(#p2b258da881)" style="stroke: #000000; stroke-linecap: round"/>
   </g>
   <g id="patch_20">
    <path d="M 344.541379 100.03893 
Q 350.291602 138.249652 355.875449 175.354789 
" clip-path="url(#p2b258da881)" style="fill: none; stroke: #000000; stroke-linecap: round"/>
    <path d="M 357.257934 171.101703 
L 355.875449 175.354789 
L 353.302471 171.69695 
z
" clip-path="url(#p2b258da881)" style="stroke: #000000; stroke-linecap: round"/>
   </g>
   <g id="patch_21">
    <path d="M 342.330696 97.874647 
Q 300.077121 92.401028 258.932315 87.071042 
" clip-path="url(#p2b258da881)" style="fill: none; stroke: #000000; stroke-linecap: round"/>
    <path d="M 262.642232 89.568343 
L 258.932315 87.071042 
L 263.156106 85.601489 
z
" clip-path="url(#p2b258da881)" style="stroke: #000000; stroke-linecap: round"/>
   </g>
   <g id="patch_22">
    <path d="M 256.013297 88.611359 
Q 258.708314 134.88284 261.338323 180.038179 
" clip-path="url(#p2b258da881)" style="fill: none; stroke: #000000; stroke-linecap: round"/>
    <path d="M 263.102359 175.928656 
L 261.338323 180.038179 
L 259.109127 176.161236 
z
" clip-path="url(#p2b258da881)" style="stroke: #000000; stroke-linecap: round"/>
   </g>
   <g id="patch_23">
    <path d="M 257.823174 86.927361 
Q 300.07675 92.40098 341.221555 97.730967 
" clip-path="url(#p2b258da881)" style="fill: none; stroke: #000000; stroke-linecap: round"/>
    <path d="M 337.511639 95.233665 
L 341.221555 97.730967 
L 336.997764 99.200519 
z
" clip-path="url(#p2b258da881)" style="stroke: #000000; stroke-linecap: round"/>
   </g>
   <g id="patch_24">
    <path d="M 254.297839 85.593619 
Q 214.016134 58.334005 174.660369 31.700998 
" clip-path="url(#p2b258da881)" style="fill: none; stroke: #000000; stroke-linecap: round"/>
    <path d="M 176.852205 35.599184 
L 174.660369 31.700998 
L 179.094019 32.286441 
z
" clip-path="url(#p2b258da881)" style="stroke: #000000; stroke-linecap: round"/>
   </g>
   <g id="patch_25">
    <path d="M 173.735009 31.074785 
Q 214.016714 58.334398 253.372479 84.967405 
" clip-path="url(#p2b258da881)" style="fill: none; stroke: #000000; stroke-linecap: round"/>
    <path d="M 251.180643 81.069219 
L 253.372479 84.967405 
L 248.938828 84.381962 
z
" clip-path="url(#p2b258da881)" style="stroke: #000000; stroke-linecap: round"/>
   </g>
   <g id="patch_26">
    <path d="M 170.232664 30.365632 
Q 127.989577 38.717612 86.843293 46.852741 
" clip-path="url(#p2b258da881)" style="fill: none; stroke: #000000; stroke-linecap: round"/>
    <path d="M 91.155248 48.038929 
L 86.843293 46.852741 
L 90.379417 44.11489 
z
" clip-path="url(#p2b258da881)" style="stroke: #000000; stroke-linecap: round"/>
   </g>
   <g id="patch_27">
    <path d="M 85.745177 47.069852 
Q 127.988263 38.717872 169.134548 30.582743 
" clip-path="url(#p2b258da881)" style="fill: none; stroke: #000000; stroke-linecap: round"/>
    <path d="M 164.822592 29.396554 
L 169.134548 30.582743 
L 165.598424 33.320594 
z
" clip-path="url(#p2b258da881)" style="stroke: #000000; stroke-linecap: round"/>
   </g>
   <g id="patch_28">
    <path d="M 83.581509 49.360625 
Q 78.338745 87.367005 73.24876 124.265838 
" clip-path="url(#p2b258da881)" style="fill: none; stroke: #000000; stroke-linecap: round"/>
    <path d="M 75.7766 120.576662 
L 73.24876 124.265838 
L 71.814122 120.03006 
z
" clip-path="url(#p2b258da881)" style="stroke: #000000; stroke-linecap: round"/>
   </g>
   <g id="patch_29">
    <path d="M 73.095756 125.375009 
Q 78.33852 87.368629 83.428505 50.469795 
" clip-path="url(#p2b258da881)" style="fill: none; stroke: #000000; stroke-linecap: round"/>
    <path d="M 80.900665 54.158972 
L 83.428505 50.469795 
L 84.863143 54.705573 
z
" clip-path="url(#p2b258da881)" style="stroke: #000000; stroke-linecap: round"/>
   </g>
   <g id="patch_30">
    <path d="M 73.964553 128.863413 
Q 102.723567 168.79585 130.829194 207.821046 
" clip-path="url(#p2b258da881)" style="fill: none; stroke: #000000; stroke-linecap: round"/>
    <path d="M 130.114486 203.406389 
L 130.829194 207.821046 
L 126.868644 205.744018 
z
" clip-path="url(#p2b258da881)" style="stroke: #000000; stroke-linecap: round"/>
   </g>
   <g id="patch_31">
    <path d="M 134.507703 209.902025 
Q 197.064179 196.695563 258.526732 183.720042 
" clip-path="url(#p2b258da881)" style="fill: none; stroke: #000000; stroke-linecap: round"/>
    <path d="M 254.199877 182.589413 
L 258.526732 183.720042 
L 255.026116 186.503149 
z
" clip-path="url(#p2b258da881)" style="stroke: #000000; stroke-linecap: round"/>
   </g>
   <g id="patch_32">
    <path d="M 131.482588 208.728296 
Q 102.723574 168.795859 74.617947 129.770663 
" clip-path="url(#p2b258da881)" style="fill: none; stroke: #000000; stroke-linecap: round"/>
    <path d="M 75.332655 134.185319 
L 74.617947 129.770663 
L 78.578497 131.84769 
z
" clip-path="url(#p2b258da881)" style="stroke: #000000; stroke-linecap: round"/>
   </g>
   <g id="patch_33">
    <path d="M 130.797943 210.973428 
Q 86.299973 227.423628 42.850672 243.486151 
" clip-path="url(#p2b258da881)" style="fill: none; stroke: #000000; stroke-linecap: round"/>
    <path d="M 47.296001 243.975074 
L 42.850672 243.486151 
L 45.909008 240.223241 
z
" clip-path="url(#p2b258da881)" style="stroke: #000000; stroke-linecap: round"/>
   </g>
   <g id="patch_34">
    <path d="M 133.524775 212.008992 
Q 153.744707 249.983071 173.439172 286.970294 
" clip-path="url(#p2b258da881)" style="fill: none; stroke: #000000; stroke-linecap: round"/>
    <path d="M 173.324542 282.499627 
L 173.439172 286.970294 
L 169.79386 284.379597 
z
" clip-path="url(#p2b258da881)" style="stroke: #000000; stroke-linecap: round"/>
   </g>
   <g id="patch_35">
    <path d="M 41.804414 243.872936 
Q 86.302384 227.422736 129.751685 211.360213 
" clip-path="url(#p2b258da881)" style="fill: none; stroke: #000000; stroke-linecap: round"/>
    <path d="M 125.306355 210.87129 
L 129.751685 211.360213 
L 126.693349 214.623123 
z
" clip-path="url(#p2b258da881)" style="stroke: #000000; stroke-linecap: round"/>
   </g>
   <g id="patch_36">
    <path d="M 176.771859 290.052454 
Q 220.658375 298.994625 263.449366 307.713575 
" clip-path="url(#p2b258da881)" style="fill: none; stroke: #000000; stroke-linecap: round"/>
    <path d="M 259.92921 304.955225 
L 263.449366 307.713575 
L 259.130592 308.874691 
z
" clip-path="url(#p2b258da881)" style="stroke: #000000; stroke-linecap: round"/>
   </g>
   <g id="patch_37">
    <path d="M 173.965268 287.958331 
Q 153.745336 249.984252 134.050872 212.997029 
" clip-path="url(#p2b258da881)" style="fill: none; stroke: #000000; stroke-linecap: round"/>
    <path d="M 134.165501 217.467696 
L 134.050872 212.997029 
L 137.696183 215.587725 
z
" clip-path="url(#p2b258da881)" style="stroke: #000000; stroke-linecap: round"/>
   </g>
   <g id="PathCollection_1">
    <defs>
     <path id="m08e42598bd" d="M 0 1.936492 
C 0.513564 1.936492 1.006162 1.732451 1.369306 1.369306 
C 1.732451 1.006162 1.936492 0.513564 1.936492 0 
C 1.936492 -0.513564 1.732451 -1.006162 1.369306 -1.369306 
C 1.006162 -1.732451 0.513564 -1.936492 0 -1.936492 
C -0.513564 -1.936492 -1.006162 -1.732451 -1.369306 -1.369306 
C -1.732451 -1.006162 -1.936492 -0.513564 -1.936492 0 
C -1.936492 0.513564 -1.732451 1.006162 -1.369306 1.369306 
C -1.006162 1.732451 -0.513564 1.936492 0 1.936492 
z
" style="stroke: #1f78b4"/>
    </defs>
    <g clip-path="url(#p2b258da881)">
     <use xlink:href="#m08e42598bd" x="266.44128" y="308.323198" style="fill: #1f78b4; stroke: #1f78b4"/>
     <use xlink:href="#m08e42598bd" x="420.813223" y="218.527671" style="fill: #1f78b4; stroke: #1f78b4"/>
     <use xlink:href="#m08e42598bd" x="347.03735" y="251.697198" style="fill: #1f78b4; stroke: #1f78b4"/>
     <use xlink:href="#m08e42598bd" x="419.082167" y="315.609917" style="fill: #1f78b4; stroke: #1f78b4"/>
     <use xlink:href="#m08e42598bd" x="261.516012" y="183.088967" style="fill: #1f78b4; stroke: #1f78b4"/>
     <use xlink:href="#m08e42598bd" x="356.330362" y="178.377724" style="fill: #1f78b4; stroke: #1f78b4"/>
     <use xlink:href="#m08e42598bd" x="344.25316" y="98.123687" style="fill: #1f78b4; stroke: #1f78b4"/>
     <use xlink:href="#m08e42598bd" x="255.90071" y="86.678321" style="fill: #1f78b4; stroke: #1f78b4"/>
     <use xlink:href="#m08e42598bd" x="172.132137" y="29.990083" style="fill: #1f78b4; stroke: #1f78b4"/>
     <use xlink:href="#m08e42598bd" x="83.845703" y="47.445401" style="fill: #1f78b4; stroke: #1f78b4"/>
     <use xlink:href="#m08e42598bd" x="72.831562" y="127.290232" style="fill: #1f78b4; stroke: #1f78b4"/>
     <use xlink:href="#m08e42598bd" x="132.61558" y="210.301476" style="fill: #1f78b4; stroke: #1f78b4"/>
     <use xlink:href="#m08e42598bd" x="39.986777" y="244.544888" style="fill: #1f78b4; stroke: #1f78b4"/>
     <use xlink:href="#m08e42598bd" x="174.874464" y="289.665847" style="fill: #1f78b4; stroke: #1f78b4"/>
    </g>
   </g>
   <g id="text_1">
    <g clip-path="url(#p2b258da881)">
     <!-- 0 -->
     <g transform="translate(263.26003 311.082573) scale(0.1 -0.1)">
      <defs>
       <path id="DejaVuSans-30" d="M 2034 4250 
Q 1547 4250 1301 3770 
Q 1056 3291 1056 2328 
Q 1056 1369 1301 889 
Q 1547 409 2034 409 
Q 2525 409 2770 889 
Q 3016 1369 3016 2328 
Q 3016 3291 2770 3770 
Q 2525 4250 2034 4250 
z
M 2034 4750 
Q 2819 4750 3233 4129 
Q 3647 3509 3647 2328 
Q 3647 1150 3233 529 
Q 2819 -91 2034 -91 
Q 1250 -91 836 529 
Q 422 1150 422 2328 
Q 422 3509 836 4129 
Q 1250 4750 2034 4750 
z
" transform="scale(0.015625)"/>
      </defs>
      <use xlink:href="#DejaVuSans-30"/>
     </g>
    </g>
   </g>
   <g id="text_2">
    <g clip-path="url(#p2b258da881)">
     <!-- 2 -->
     <g transform="translate(417.631973 221.287046) scale(0.1 -0.1)">
      <defs>
       <path id="DejaVuSans-32" d="M 1228 531 
L 3431 531 
L 3431 0 
L 469 0 
L 469 531 
Q 828 903 1448 1529 
Q 2069 2156 2228 2338 
Q 2531 2678 2651 2914 
Q 2772 3150 2772 3378 
Q 2772 3750 2511 3984 
Q 2250 4219 1831 4219 
Q 1534 4219 1204 4116 
Q 875 4013 500 3803 
L 500 4441 
Q 881 4594 1212 4672 
Q 1544 4750 1819 4750 
Q 2544 4750 2975 4387 
Q 3406 4025 3406 3419 
Q 3406 3131 3298 2873 
Q 3191 2616 2906 2266 
Q 2828 2175 2409 1742 
Q 1991 1309 1228 531 
z
" transform="scale(0.015625)"/>
      </defs>
      <use xlink:href="#DejaVuSans-32"/>
     </g>
    </g>
   </g>
   <g id="text_3">
    <g clip-path="url(#p2b258da881)">
     <!-- 3 -->
     <g transform="translate(343.8561 254.456573) scale(0.1 -0.1)">
      <defs>
       <path id="DejaVuSans-33" d="M 2597 2516 
Q 3050 2419 3304 2112 
Q 3559 1806 3559 1356 
Q 3559 666 3084 287 
Q 2609 -91 1734 -91 
Q 1441 -91 1130 -33 
Q 819 25 488 141 
L 488 750 
Q 750 597 1062 519 
Q 1375 441 1716 441 
Q 2309 441 2620 675 
Q 2931 909 2931 1356 
Q 2931 1769 2642 2001 
Q 2353 2234 1838 2234 
L 1294 2234 
L 1294 2753 
L 1863 2753 
Q 2328 2753 2575 2939 
Q 2822 3125 2822 3475 
Q 2822 3834 2567 4026 
Q 2313 4219 1838 4219 
Q 1578 4219 1281 4162 
Q 984 4106 628 3988 
L 628 4550 
Q 988 4650 1302 4700 
Q 1616 4750 1894 4750 
Q 2613 4750 3031 4423 
Q 3450 4097 3450 3541 
Q 3450 3153 3228 2886 
Q 3006 2619 2597 2516 
z
" transform="scale(0.015625)"/>
      </defs>
      <use xlink:href="#DejaVuSans-33"/>
     </g>
    </g>
   </g>
   <g id="text_4">
    <g clip-path="url(#p2b258da881)">
     <!-- 4 -->
     <g transform="translate(415.900917 318.369292) scale(0.1 -0.1)">
      <defs>
       <path id="DejaVuSans-34" d="M 2419 4116 
L 825 1625 
L 2419 1625 
L 2419 4116 
z
M 2253 4666 
L 3047 4666 
L 3047 1625 
L 3713 1625 
L 3713 1100 
L 3047 1100 
L 3047 0 
L 2419 0 
L 2419 1100 
L 313 1100 
L 313 1709 
L 2253 4666 
z
" transform="scale(0.015625)"/>
      </defs>
      <use xlink:href="#DejaVuSans-34"/>
     </g>
    </g>
   </g>
   <g id="text_5">
    <g clip-path="url(#p2b258da881)">
     <!-- 6 -->
     <g transform="translate(258.334762 185.848342) scale(0.1 -0.1)">
      <defs>
       <path id="DejaVuSans-36" d="M 2113 2584 
Q 1688 2584 1439 2293 
Q 1191 2003 1191 1497 
Q 1191 994 1439 701 
Q 1688 409 2113 409 
Q 2538 409 2786 701 
Q 3034 994 3034 1497 
Q 3034 2003 2786 2293 
Q 2538 2584 2113 2584 
z
M 3366 4563 
L 3366 3988 
Q 3128 4100 2886 4159 
Q 2644 4219 2406 4219 
Q 1781 4219 1451 3797 
Q 1122 3375 1075 2522 
Q 1259 2794 1537 2939 
Q 1816 3084 2150 3084 
Q 2853 3084 3261 2657 
Q 3669 2231 3669 1497 
Q 3669 778 3244 343 
Q 2819 -91 2113 -91 
Q 1303 -91 875 529 
Q 447 1150 447 2328 
Q 447 3434 972 4092 
Q 1497 4750 2381 4750 
Q 2619 4750 2861 4703 
Q 3103 4656 3366 4563 
z
" transform="scale(0.015625)"/>
      </defs>
      <use xlink:href="#DejaVuSans-36"/>
     </g>
    </g>
   </g>
   <g id="text_6">
    <g clip-path="url(#p2b258da881)">
     <!-- 7 -->
     <g transform="translate(353.149112 181.137099) scale(0.1 -0.1)">
      <defs>
       <path id="DejaVuSans-37" d="M 525 4666 
L 3525 4666 
L 3525 4397 
L 1831 0 
L 1172 0 
L 2766 4134 
L 525 4134 
L 525 4666 
z
" transform="scale(0.015625)"/>
      </defs>
      <use xlink:href="#DejaVuSans-37"/>
     </g>
    </g>
   </g>
   <g id="text_7">
    <g clip-path="url(#p2b258da881)">
     <!-- 8 -->
     <g transform="translate(341.07191 100.883062) scale(0.1 -0.1)">
      <defs>
       <path id="DejaVuSans-38" d="M 2034 2216 
Q 1584 2216 1326 1975 
Q 1069 1734 1069 1313 
Q 1069 891 1326 650 
Q 1584 409 2034 409 
Q 2484 409 2743 651 
Q 3003 894 3003 1313 
Q 3003 1734 2745 1975 
Q 2488 2216 2034 2216 
z
M 1403 2484 
Q 997 2584 770 2862 
Q 544 3141 544 3541 
Q 544 4100 942 4425 
Q 1341 4750 2034 4750 
Q 2731 4750 3128 4425 
Q 3525 4100 3525 3541 
Q 3525 3141 3298 2862 
Q 3072 2584 2669 2484 
Q 3125 2378 3379 2068 
Q 3634 1759 3634 1313 
Q 3634 634 3220 271 
Q 2806 -91 2034 -91 
Q 1263 -91 848 271 
Q 434 634 434 1313 
Q 434 1759 690 2068 
Q 947 2378 1403 2484 
z
M 1172 3481 
Q 1172 3119 1398 2916 
Q 1625 2713 2034 2713 
Q 2441 2713 2670 2916 
Q 2900 3119 2900 3481 
Q 2900 3844 2670 4047 
Q 2441 4250 2034 4250 
Q 1625 4250 1398 4047 
Q 1172 3844 1172 3481 
z
" transform="scale(0.015625)"/>
      </defs>
      <use xlink:href="#DejaVuSans-38"/>
     </g>
    </g>
   </g>
   <g id="text_8">
    <g clip-path="url(#p2b258da881)">
     <!-- 9 -->
     <g transform="translate(252.71946 89.437696) scale(0.1 -0.1)">
      <defs>
       <path id="DejaVuSans-39" d="M 703 97 
L 703 672 
Q 941 559 1184 500 
Q 1428 441 1663 441 
Q 2288 441 2617 861 
Q 2947 1281 2994 2138 
Q 2813 1869 2534 1725 
Q 2256 1581 1919 1581 
Q 1219 1581 811 2004 
Q 403 2428 403 3163 
Q 403 3881 828 4315 
Q 1253 4750 1959 4750 
Q 2769 4750 3195 4129 
Q 3622 3509 3622 2328 
Q 3622 1225 3098 567 
Q 2575 -91 1691 -91 
Q 1453 -91 1209 -44 
Q 966 3 703 97 
z
M 1959 2075 
Q 2384 2075 2632 2365 
Q 2881 2656 2881 3163 
Q 2881 3666 2632 3958 
Q 2384 4250 1959 4250 
Q 1534 4250 1286 3958 
Q 1038 3666 1038 3163 
Q 1038 2656 1286 2365 
Q 1534 2075 1959 2075 
z
" transform="scale(0.015625)"/>
      </defs>
      <use xlink:href="#DejaVuSans-39"/>
     </g>
    </g>
   </g>
   <g id="text_9">
    <g clip-path="url(#p2b258da881)">
     <!-- 10 -->
     <g transform="translate(165.769637 32.749458) scale(0.1 -0.1)">
      <defs>
       <path id="DejaVuSans-31" d="M 794 531 
L 1825 531 
L 1825 4091 
L 703 3866 
L 703 4441 
L 1819 4666 
L 2450 4666 
L 2450 531 
L 3481 531 
L 3481 0 
L 794 0 
L 794 531 
z
" transform="scale(0.015625)"/>
      </defs>
      <use xlink:href="#DejaVuSans-31"/>
      <use xlink:href="#DejaVuSans-30" x="63.623047"/>
     </g>
    </g>
   </g>
   <g id="text_10">
    <g clip-path="url(#p2b258da881)">
     <!-- 11 -->
     <g transform="translate(77.483203 50.204776) scale(0.1 -0.1)">
      <use xlink:href="#DejaVuSans-31"/>
      <use xlink:href="#DejaVuSans-31" x="63.623047"/>
     </g>
    </g>
   </g>
   <g id="text_11">
    <g clip-path="url(#p2b258da881)">
     <!-- 12 -->
     <g transform="translate(66.469062 130.049607) scale(0.1 -0.1)">
      <use xlink:href="#DejaVuSans-31"/>
      <use xlink:href="#DejaVuSans-32" x="63.623047"/>
     </g>
    </g>
   </g>
   <g id="text_12">
    <g clip-path="url(#p2b258da881)">
     <!-- 13 -->
     <g transform="translate(126.25308 213.060851) scale(0.1 -0.1)">
      <use xlink:href="#DejaVuSans-31"/>
      <use xlink:href="#DejaVuSans-33" x="63.623047"/>
     </g>
    </g>
   </g>
   <g id="text_13">
    <g clip-path="url(#p2b258da881)">
     <!-- 14 -->
     <g transform="translate(33.624277 247.304263) scale(0.1 -0.1)">
      <use xlink:href="#DejaVuSans-31"/>
      <use xlink:href="#DejaVuSans-34" x="63.623047"/>
     </g>
    </g>
   </g>
   <g id="text_14">
    <g clip-path="url(#p2b258da881)">
     <!-- 15 -->
     <g transform="translate(168.511964 292.425222) scale(0.1 -0.1)">
      <defs>
       <path id="DejaVuSans-35" d="M 691 4666 
L 3169 4666 
L 3169 4134 
L 1269 4134 
L 1269 2991 
Q 1406 3038 1543 3061 
Q 1681 3084 1819 3084 
Q 2600 3084 3056 2656 
Q 3513 2228 3513 1497 
Q 3513 744 3044 326 
Q 2575 -91 1722 -91 
Q 1428 -91 1123 -41 
Q 819 9 494 109 
L 494 744 
Q 775 591 1075 516 
Q 1375 441 1709 441 
Q 2250 441 2565 725 
Q 2881 1009 2881 1497 
Q 2881 1984 2565 2268 
Q 2250 2553 1709 2553 
Q 1456 2553 1204 2497 
Q 953 2441 691 2322 
L 691 4666 
z
" transform="scale(0.015625)"/>
      </defs>
      <use xlink:href="#DejaVuSans-31"/>
      <use xlink:href="#DejaVuSans-35" x="63.623047"/>
     </g>
    </g>
   </g>
  </g>
 </g>
 <defs>
  <clipPath id="p2b258da881">
   <rect x="0" y="0" width="460.8" height="345.6"/>
  </clipPath>
 </defs>
</svg>
