<?xml version="1.0" encoding="utf-8" standalone="no"?>
<!DOCTYPE svg PUBLIC "-//W3C//DTD SVG 1.1//EN"
  "http://www.w3.org/Graphics/SVG/1.1/DTD/svg11.dtd">
<svg xmlns:xlink="http://www.w3.org/1999/xlink" width="460.8pt" height="345.6pt" viewBox="0 0 460.8 345.6" xmlns="http://www.w3.org/2000/svg" version="1.1">
 <metadata>
  <rdf:RDF xmlns:dc="http://purl.org/dc/elements/1.1/" xmlns:cc="http://creativecommons.org/ns#" xmlns:rdf="http://www.w3.org/1999/02/22-rdf-syntax-ns#">
   <cc:Work>
    <dc:type rdf:resource="http://purl.org/dc/dcmitype/StillImage"/>
    <dc:date>2024-02-07T13:47:22.870271</dc:date>
    <dc:format>image/svg+xml</dc:format>
    <dc:creator>
     <cc:Agent>
      <dc:title>Matplotlib v3.8.0, https://matplotlib.org/</dc:title>
     </cc:Agent>
    </dc:creator>
   </cc:Work>
  </rdf:RDF>
 </metadata>
 <defs>
  <style type="text/css">*{stroke-linejoin: round; stroke-linecap: butt}</style>
 </defs>
 <g id="figure_1">
  <g id="patch_1">
   <path d="M 0 345.6 
L 460.8 345.6 
L 460.8 0 
L 0 0 
z
" style="fill: #ffffff"/>
  </g>
  <g id="axes_1">
   <g id="patch_2">
    <path d="M 229.960533 174.594804 
Q 235.776024 244.136239 241.498343 312.563528 
" clip-path="url(#pe2c9f6677d)" style="fill: none; stroke: #000000; stroke-linecap: round"/>
    <path d="M 243.158045 308.410771 
L 241.498343 312.563528 
L 239.171958 308.744112 
z
" clip-path="url(#pe2c9f6677d)" style="stroke: #000000; stroke-linecap: round"/>
   </g>
   <g id="patch_3">
    <path d="M 231.731332 172.579749 
Q 325.304306 168.584634 417.760264 164.63721 
" clip-path="url(#pe2c9f6677d)" style="fill: none; stroke: #000000; stroke-linecap: round"/>
    <path d="M 413.678592 162.809656 
L 417.760264 164.63721 
L 413.849217 166.806015 
z
" clip-path="url(#pe2c9f6677d)" style="stroke: #000000; stroke-linecap: round"/>
   </g>
   <g id="patch_4">
    <path d="M 227.867087 172.749846 
Q 134.894486 176.965382 43.038771 181.130276 
" clip-path="url(#pe2c9f6677d)" style="fill: none; stroke: #000000; stroke-linecap: round"/>
    <path d="M 47.125256 182.947043 
L 43.038771 181.130276 
L 46.944075 178.951149 
z
" clip-path="url(#pe2c9f6677d)" style="stroke: #000000; stroke-linecap: round"/>
   </g>
   <g id="patch_5">
    <path d="M 229.655997 170.733428 
Q 224.512973 101.326015 219.452567 33.03358 
" clip-path="url(#pe2c9f6677d)" style="fill: none; stroke: #000000; stroke-linecap: round"/>
    <path d="M 217.753621 37.170437 
L 219.452567 33.03358 
L 221.742685 36.874851 
z
" clip-path="url(#pe2c9f6677d)" style="stroke: #000000; stroke-linecap: round"/>
   </g>
   <g id="patch_6">
    <path d="M 241.591489 313.677367 
Q 235.775998 244.135933 230.053679 175.708643 
" clip-path="url(#pe2c9f6677d)" style="fill: none; stroke: #000000; stroke-linecap: round"/>
    <path d="M 228.393978 179.8614 
L 230.053679 175.708643 
L 232.380064 179.528059 
z
" clip-path="url(#pe2c9f6677d)" style="stroke: #000000; stroke-linecap: round"/>
   </g>
   <g id="patch_7">
    <path d="M 418.880812 164.589368 
Q 325.307838 168.584483 232.85188 172.531907 
" clip-path="url(#pe2c9f6677d)" style="fill: none; stroke: #000000; stroke-linecap: round"/>
    <path d="M 236.933552 174.359461 
L 232.85188 172.531907 
L 236.762927 170.363102 
z
" clip-path="url(#pe2c9f6677d)" style="stroke: #000000; stroke-linecap: round"/>
   </g>
   <g id="patch_8">
    <path d="M 41.918611 181.181066 
Q 134.891213 176.965531 226.746927 172.800636 
" clip-path="url(#pe2c9f6677d)" style="fill: none; stroke: #000000; stroke-linecap: round"/>
    <path d="M 222.660442 170.98387 
L 226.746927 172.800636 
L 222.841623 174.979764 
z
" clip-path="url(#pe2c9f6677d)" style="stroke: #000000; stroke-linecap: round"/>
   </g>
   <g id="patch_9">
    <path d="M 219.369971 31.918909 
Q 224.512996 101.326321 229.573401 169.618756 
" clip-path="url(#pe2c9f6677d)" style="fill: none; stroke: #000000; stroke-linecap: round"/>
    <path d="M 231.272347 165.481899 
L 229.573401 169.618756 
L 227.283283 165.777485 
z
" clip-path="url(#pe2c9f6677d)" style="stroke: #000000; stroke-linecap: round"/>
   </g>
   <g id="PathCollection_1">
    <defs>
     <path id="m309d9e25f4" d="M 0 1.936492 
C 0.513564 1.936492 1.006162 1.732451 1.369306 1.369306 
C 1.732451 1.006162 1.936492 0.513564 1.936492 0 
C 1.936492 -0.513564 1.732451 -1.006162 1.369306 -1.369306 
C 1.006162 -1.732451 0.513564 -1.936492 0 -1.936492 
C -0.513564 -1.936492 -1.006162 -1.732451 -1.369306 -1.369306 
C -1.732451 -1.006162 -1.936492 -0.513564 -1.936492 0 
C -1.936492 0.513564 -1.732451 1.006162 -1.369306 1.369306 
C -1.006162 1.732451 -0.513564 1.936492 0 1.936492 
z
" style="stroke: #1f78b4"/>
    </defs>
    <g clip-path="url(#pe2c9f6677d)">
     <use xlink:href="#m309d9e25f4" x="229.798921" y="172.662254" style="fill: #1f78b4; stroke: #1f78b4"/>
     <use xlink:href="#m309d9e25f4" x="241.753101" y="315.609917" style="fill: #1f78b4; stroke: #1f78b4"/>
     <use xlink:href="#m309d9e25f4" x="420.813223" y="164.506864" style="fill: #1f78b4; stroke: #1f78b4"/>
     <use xlink:href="#m309d9e25f4" x="39.986777" y="181.268659" style="fill: #1f78b4; stroke: #1f78b4"/>
     <use xlink:href="#m309d9e25f4" x="219.227047" y="29.990083" style="fill: #1f78b4; stroke: #1f78b4"/>
    </g>
   </g>
   <g id="text_1">
    <g clip-path="url(#pe2c9f6677d)">
     <!-- 0 -->
     <g transform="translate(226.617671 175.421629) scale(0.1 -0.1)">
      <defs>
       <path id="DejaVuSans-30" d="M 2034 4250 
Q 1547 4250 1301 3770 
Q 1056 3291 1056 2328 
Q 1056 1369 1301 889 
Q 1547 409 2034 409 
Q 2525 409 2770 889 
Q 3016 1369 3016 2328 
Q 3016 3291 2770 3770 
Q 2525 4250 2034 4250 
z
M 2034 4750 
Q 2819 4750 3233 4129 
Q 3647 3509 3647 2328 
Q 3647 1150 3233 529 
Q 2819 -91 2034 -91 
Q 1250 -91 836 529 
Q 422 1150 422 2328 
Q 422 3509 836 4129 
Q 1250 4750 2034 4750 
z
" transform="scale(0.015625)"/>
      </defs>
      <use xlink:href="#DejaVuSans-30"/>
     </g>
    </g>
   </g>
   <g id="text_2">
    <g clip-path="url(#pe2c9f6677d)">
     <!-- 1 -->
     <g transform="translate(238.571851 318.369292) scale(0.1 -0.1)">
      <defs>
       <path id="DejaVuSans-31" d="M 794 531 
L 1825 531 
L 1825 4091 
L 703 3866 
L 703 4441 
L 1819 4666 
L 2450 4666 
L 2450 531 
L 3481 531 
L 3481 0 
L 794 0 
L 794 531 
z
" transform="scale(0.015625)"/>
      </defs>
      <use xlink:href="#DejaVuSans-31"/>
     </g>
    </g>
   </g>
   <g id="text_3">
    <g clip-path="url(#pe2c9f6677d)">
     <!-- 2 -->
     <g transform="translate(417.631973 167.266239) scale(0.1 -0.1)">
      <defs>
       <path id="DejaVuSans-32" d="M 1228 531 
L 3431 531 
L 3431 0 
L 469 0 
L 469 531 
Q 828 903 1448 1529 
Q 2069 2156 2228 2338 
Q 2531 2678 2651 2914 
Q 2772 3150 2772 3378 
Q 2772 3750 2511 3984 
Q 2250 4219 1831 4219 
Q 1534 4219 1204 4116 
Q 875 4013 500 3803 
L 500 4441 
Q 881 4594 1212 4672 
Q 1544 4750 1819 4750 
Q 2544 4750 2975 4387 
Q 3406 4025 3406 3419 
Q 3406 3131 3298 2873 
Q 3191 2616 2906 2266 
Q 2828 2175 2409 1742 
Q 1991 1309 1228 531 
z
" transform="scale(0.015625)"/>
      </defs>
      <use xlink:href="#DejaVuSans-32"/>
     </g>
    </g>
   </g>
   <g id="text_4">
    <g clip-path="url(#pe2c9f6677d)">
     <!-- 3 -->
     <g transform="translate(36.805527 184.028034) scale(0.1 -0.1)">
      <defs>
       <path id="DejaVuSans-33" d="M 2597 2516 
Q 3050 2419 3304 2112 
Q 3559 1806 3559 1356 
Q 3559 666 3084 287 
Q 2609 -91 1734 -91 
Q 1441 -91 1130 -33 
Q 819 25 488 141 
L 488 750 
Q 750 597 1062 519 
Q 1375 441 1716 441 
Q 2309 441 2620 675 
Q 2931 909 2931 1356 
Q 2931 1769 2642 2001 
Q 2353 2234 1838 2234 
L 1294 2234 
L 1294 2753 
L 1863 2753 
Q 2328 2753 2575 2939 
Q 2822 3125 2822 3475 
Q 2822 3834 2567 4026 
Q 2313 4219 1838 4219 
Q 1578 4219 1281 4162 
Q 984 4106 628 3988 
L 628 4550 
Q 988 4650 1302 4700 
Q 1616 4750 1894 4750 
Q 2613 4750 3031 4423 
Q 3450 4097 3450 3541 
Q 3450 3153 3228 2886 
Q 3006 2619 2597 2516 
z
" transform="scale(0.015625)"/>
      </defs>
      <use xlink:href="#DejaVuSans-33"/>
     </g>
    </g>
   </g>
   <g id="text_5">
    <g clip-path="url(#pe2c9f6677d)">
     <!-- 4 -->
     <g transform="translate(216.045797 32.749458) scale(0.1 -0.1)">
      <defs>
       <path id="DejaVuSans-34" d="M 2419 4116 
L 825 1625 
L 2419 1625 
L 2419 4116 
z
M 2253 4666 
L 3047 4666 
L 3047 1625 
L 3713 1625 
L 3713 1100 
L 3047 1100 
L 3047 0 
L 2419 0 
L 2419 1100 
L 313 1100 
L 313 1709 
L 2253 4666 
z
" transform="scale(0.015625)"/>
      </defs>
      <use xlink:href="#DejaVuSans-34"/>
     </g>
    </g>
   </g>
  </g>
 </g>
 <defs>
  <clipPath id="pe2c9f6677d">
   <rect x="0" y="0" width="460.8" height="345.6"/>
  </clipPath>
 </defs>
</svg>
