<?xml version="1.0" encoding="utf-8" standalone="no"?>
<!DOCTYPE svg PUBLIC "-//W3C//DTD SVG 1.1//EN"
  "http://www.w3.org/Graphics/SVG/1.1/DTD/svg11.dtd">
<svg xmlns:xlink="http://www.w3.org/1999/xlink" width="460.8pt" height="345.6pt" viewBox="0 0 460.8 345.6" xmlns="http://www.w3.org/2000/svg" version="1.1">
 <metadata>
  <rdf:RDF xmlns:dc="http://purl.org/dc/elements/1.1/" xmlns:cc="http://creativecommons.org/ns#" xmlns:rdf="http://www.w3.org/1999/02/22-rdf-syntax-ns#">
   <cc:Work>
    <dc:type rdf:resource="http://purl.org/dc/dcmitype/StillImage"/>
    <dc:date>2024-02-07T14:34:46.006539</dc:date>
    <dc:format>image/svg+xml</dc:format>
    <dc:creator>
     <cc:Agent>
      <dc:title>Matplotlib v3.8.0, https://matplotlib.org/</dc:title>
     </cc:Agent>
    </dc:creator>
   </cc:Work>
  </rdf:RDF>
 </metadata>
 <defs>
  <style type="text/css">*{stroke-linejoin: round; stroke-linecap: butt}</style>
 </defs>
 <g id="figure_1">
  <g id="patch_1">
   <path d="M 0 345.6 
L 460.8 345.6 
L 460.8 0 
L 0 0 
z
" style="fill: #ffffff"/>
  </g>
  <g id="axes_1">
   <g id="patch_2">
    <path d="M 229.611026 176.465545 
Q 252.449759 193.622395 274.394587 210.107729 
" clip-path="url(#pfbc3185b4d)" style="fill: none; stroke: #000000; stroke-linecap: round"/>
    <path d="M 272.397702 206.106173 
L 274.394587 210.107729 
L 269.995211 209.304304 
z
" clip-path="url(#pfbc3185b4d)" style="stroke: #000000; stroke-linecap: round"/>
   </g>
   <g id="patch_3">
    <path d="M 226.470485 174.194837 
Q 193.19827 151.053149 160.84391 128.549853 
" clip-path="url(#pfbc3185b4d)" style="fill: none; stroke: #000000; stroke-linecap: round"/>
    <path d="M 162.985736 132.475739 
L 160.84391 128.549853 
L 165.269714 129.191924 
z
" clip-path="url(#pfbc3185b4d)" style="stroke: #000000; stroke-linecap: round"/>
   </g>
   <g id="patch_4">
    <path d="M 275.285287 210.776839 
Q 252.446555 193.619988 230.501727 177.134655 
" clip-path="url(#pfbc3185b4d)" style="fill: none; stroke: #000000; stroke-linecap: round"/>
    <path d="M 232.498612 181.136211 
L 230.501727 177.134655 
L 234.901103 177.93808 
z
" clip-path="url(#pfbc3185b4d)" style="stroke: #000000; stroke-linecap: round"/>
   </g>
   <g id="patch_5">
    <path d="M 274.973338 212.460573 
Q 247.767448 220.033145 221.638647 227.305916 
" clip-path="url(#pfbc3185b4d)" style="fill: none; stroke: #000000; stroke-linecap: round"/>
    <path d="M 226.028455 228.160073 
L 221.638647 227.305916 
L 224.955857 224.306564 
z
" clip-path="url(#pfbc3185b4d)" style="stroke: #000000; stroke-linecap: round"/>
   </g>
   <g id="patch_6">
    <path d="M 391.407973 144.756173 
Q 336.469883 136.231437 282.636605 127.878136 
" clip-path="url(#pfbc3185b4d)" style="fill: none; stroke: #000000; stroke-linecap: round"/>
    <path d="M 286.282633 130.467824 
L 282.636605 127.878136 
L 286.895972 126.515127 
z
" clip-path="url(#pfbc3185b4d)" style="stroke: #000000; stroke-linecap: round"/>
   </g>
   <g id="patch_7">
    <path d="M 41.91182 140.899534 
Q 99.162521 133.968669 155.303293 127.172173 
" clip-path="url(#pfbc3185b4d)" style="fill: none; stroke: #000000; stroke-linecap: round"/>
    <path d="M 151.091918 125.667406 
L 155.303293 127.172173 
L 151.572655 129.638413 
z
" clip-path="url(#pfbc3185b4d)" style="stroke: #000000; stroke-linecap: round"/>
   </g>
   <g id="patch_8">
    <path d="M 40.505632 142.996601 
Q 44.332373 156.744395 47.859304 169.415104 
" clip-path="url(#pfbc3185b4d)" style="fill: none; stroke: #000000; stroke-linecap: round"/>
    <path d="M 48.71342 165.025288 
L 47.859304 169.415104 
L 44.85992 166.097921 
z
" clip-path="url(#pfbc3185b4d)" style="stroke: #000000; stroke-linecap: round"/>
   </g>
   <g id="patch_9">
    <path d="M 167.767844 106.807607 
Q 222.742245 116.933565 276.617109 126.856996 
" clip-path="url(#pfbc3185b4d)" style="fill: none; stroke: #000000; stroke-linecap: round"/>
    <path d="M 273.045579 124.165496 
L 276.617109 126.856996 
L 272.320992 128.099321 
z
" clip-path="url(#pfbc3185b4d)" style="stroke: #000000; stroke-linecap: round"/>
   </g>
   <g id="patch_10">
    <path d="M 65.138458 208.821271 
Q 115.553126 202.170618 164.859363 195.666187 
" clip-path="url(#pfbc3185b4d)" style="fill: none; stroke: #000000; stroke-linecap: round"/>
    <path d="M 160.632149 194.20651 
L 164.859363 195.666187 
L 161.155292 198.172152 
z
" clip-path="url(#pfbc3185b4d)" style="stroke: #000000; stroke-linecap: round"/>
   </g>
   <g id="patch_11">
    <path d="M 63.22639 207.140557 
Q 63.265482 197.34073 63.300115 188.658928 
" clip-path="url(#pfbc3185b4d)" style="fill: none; stroke: #000000; stroke-linecap: round"/>
    <path d="M 61.284175 192.650918 
L 63.300115 188.658928 
L 65.284143 192.666875 
z
" clip-path="url(#pfbc3185b4d)" style="stroke: #000000; stroke-linecap: round"/>
   </g>
   <g id="patch_12">
    <path d="M 220.559428 227.606309 
Q 247.765318 220.033738 273.894119 212.760966 
" clip-path="url(#pfbc3185b4d)" style="fill: none; stroke: #000000; stroke-linecap: round"/>
    <path d="M 269.504311 211.906809 
L 273.894119 212.760966 
L 270.576909 215.760318 
z
" clip-path="url(#pfbc3185b4d)" style="stroke: #000000; stroke-linecap: round"/>
   </g>
   <g id="patch_13">
    <path d="M 217.06841 227.071965 
Q 193.291139 211.694287 170.452672 196.923771 
" clip-path="url(#pfbc3185b4d)" style="fill: none; stroke: #000000; stroke-linecap: round"/>
    <path d="M 172.72532 200.775404 
L 170.452672 196.923771 
L 174.897567 197.416633 
z
" clip-path="url(#pfbc3185b4d)" style="stroke: #000000; stroke-linecap: round"/>
   </g>
   <g id="patch_14">
    <path d="M 216.847536 228.708881 
Q 193.240177 236.165855 170.69893 243.28607 
" clip-path="url(#pfbc3185b4d)" style="fill: none; stroke: #000000; stroke-linecap: round"/>
    <path d="M 175.115578 243.988367 
L 170.69893 243.28607 
L 173.910756 240.17413 
z
" clip-path="url(#pfbc3185b4d)" style="stroke: #000000; stroke-linecap: round"/>
   </g>
   <g id="patch_15">
    <path d="M 48.160069 170.495621 
Q 44.333328 156.747827 40.806397 144.077118 
" clip-path="url(#pfbc3185b4d)" style="fill: none; stroke: #000000; stroke-linecap: round"/>
    <path d="M 39.952281 148.466934 
L 40.806397 144.077118 
L 43.80578 147.394301 
z
" clip-path="url(#pfbc3185b4d)" style="stroke: #000000; stroke-linecap: round"/>
   </g>
   <g id="patch_16">
    <path d="M 50.581615 172.725246 
Q 108.285324 183.81318 164.891084 194.69014 
" clip-path="url(#pfbc3185b4d)" style="fill: none; stroke: #000000; stroke-linecap: round"/>
    <path d="M 161.340347 191.971268 
L 164.891084 194.69014 
L 160.585544 195.899406 
z
" clip-path="url(#pfbc3185b4d)" style="stroke: #000000; stroke-linecap: round"/>
   </g>
   <g id="patch_17">
    <path d="M 116.979629 246.401484 
Q 118.962844 262.033373 120.805343 276.556118 
" clip-path="url(#pfbc3185b4d)" style="fill: none; stroke: #000000; stroke-linecap: round"/>
    <path d="M 122.285995 272.336205 
L 120.805343 276.556118 
L 118.317803 272.839649 
z
" clip-path="url(#pfbc3185b4d)" style="stroke: #000000; stroke-linecap: round"/>
   </g>
   <g id="patch_18">
    <path d="M 118.131101 243.134376 
Q 142.313547 219.870897 165.690262 197.382529 
" clip-path="url(#pfbc3185b4d)" style="fill: none; stroke: #000000; stroke-linecap: round"/>
    <path d="M 161.421031 198.714318 
L 165.690262 197.382529 
L 164.194155 201.596988 
z
" clip-path="url(#pfbc3185b4d)" style="stroke: #000000; stroke-linecap: round"/>
   </g>
   <g id="patch_19">
    <path d="M 120.946041 277.665114 
Q 118.962825 262.033225 117.120327 247.510479 
" clip-path="url(#pfbc3185b4d)" style="fill: none; stroke: #000000; stroke-linecap: round"/>
    <path d="M 115.639675 251.730392 
L 117.120327 247.510479 
L 119.607867 251.226949 
z
" clip-path="url(#pfbc3185b4d)" style="stroke: #000000; stroke-linecap: round"/>
   </g>
   <g id="patch_20">
    <path d="M 120.164941 281.231905 
Q 109.946185 297.600489 100.319501 313.020679 
" clip-path="url(#pfbc3185b4d)" style="fill: none; stroke: #000000; stroke-linecap: round"/>
    <path d="M 104.134304 310.686738 
L 100.319501 313.020679 
L 100.741229 308.568472 
z
" clip-path="url(#pfbc3185b4d)" style="stroke: #000000; stroke-linecap: round"/>
   </g>
   <g id="patch_21">
    <path d="M 122.734458 278.41695 
Q 144.488542 261.897394 165.352222 246.053991 
" clip-path="url(#pfbc3185b4d)" style="fill: none; stroke: #000000; stroke-linecap: round"/>
    <path d="M 160.95708 246.880264 
L 165.352222 246.053991 
L 163.376155 250.065868 
z
" clip-path="url(#pfbc3185b4d)" style="stroke: #000000; stroke-linecap: round"/>
   </g>
   <g id="patch_22">
    <path d="M 396.102716 99.853472 
Q 338.80412 113.408326 282.593528 126.705796 
" clip-path="url(#pfbc3185b4d)" style="fill: none; stroke: #000000; stroke-linecap: round"/>
    <path d="M 286.946513 127.731233 
L 282.593528 126.705796 
L 286.025668 123.83867 
z
" clip-path="url(#pfbc3185b4d)" style="stroke: #000000; stroke-linecap: round"/>
   </g>
   <g id="patch_23">
    <path d="M 228.454046 107.833335 
Q 253.131928 117.275622 276.765601 126.318371 
" clip-path="url(#pfbc3185b4d)" style="fill: none; stroke: #000000; stroke-linecap: round"/>
    <path d="M 273.74444 123.02101 
L 276.765601 126.318371 
L 272.315016 126.756883 
z
" clip-path="url(#pfbc3185b4d)" style="stroke: #000000; stroke-linecap: round"/>
   </g>
   <g id="patch_24">
    <path d="M 165.970212 195.519645 
Q 115.555544 202.170299 66.249307 208.674729 
" clip-path="url(#pfbc3185b4d)" style="fill: none; stroke: #000000; stroke-linecap: round"/>
    <path d="M 70.476521 210.134407 
L 66.249307 208.674729 
L 69.953378 206.168764 
z
" clip-path="url(#pfbc3185b4d)" style="stroke: #000000; stroke-linecap: round"/>
   </g>
   <g id="patch_25">
    <path d="M 169.518009 196.319288 
Q 193.29528 211.696966 216.133747 226.467482 
" clip-path="url(#pfbc3185b4d)" style="fill: none; stroke: #000000; stroke-linecap: round"/>
    <path d="M 213.861099 222.615849 
L 216.133747 226.467482 
L 211.688852 225.974621 
z
" clip-path="url(#pfbc3185b4d)" style="stroke: #000000; stroke-linecap: round"/>
   </g>
   <g id="patch_26">
    <path d="M 165.987304 194.900782 
Q 108.283595 183.812848 51.677835 172.935888 
" clip-path="url(#pfbc3185b4d)" style="fill: none; stroke: #000000; stroke-linecap: round"/>
    <path d="M 55.228572 175.65476 
L 51.677835 172.935888 
L 55.983375 171.726622 
z
" clip-path="url(#pfbc3185b4d)" style="stroke: #000000; stroke-linecap: round"/>
   </g>
   <g id="patch_27">
    <path d="M 166.494361 196.608988 
Q 142.311915 219.872467 118.9352 242.360835 
" clip-path="url(#pfbc3185b4d)" style="fill: none; stroke: #000000; stroke-linecap: round"/>
    <path d="M 123.204431 241.029045 
L 118.9352 242.360835 
L 120.431307 238.146376 
z
" clip-path="url(#pfbc3185b4d)" style="stroke: #000000; stroke-linecap: round"/>
   </g>
   <g id="patch_28">
    <path d="M 169.543683 194.262041 
Q 223.752752 161.338785 277.006223 128.995901 
" clip-path="url(#pfbc3185b4d)" style="fill: none; stroke: #000000; stroke-linecap: round"/>
    <path d="M 272.549169 129.362875 
L 277.006223 128.995901 
L 274.625571 132.781729 
z
" clip-path="url(#pfbc3185b4d)" style="stroke: #000000; stroke-linecap: round"/>
   </g>
   <g id="patch_29">
    <path d="M 167.885844 197.204994 
Q 167.837593 219.73752 167.791736 241.152014 
" clip-path="url(#pfbc3185b4d)" style="fill: none; stroke: #000000; stroke-linecap: round"/>
    <path d="M 169.800297 237.156306 
L 167.791736 241.152014 
L 165.800306 237.147741 
z
" clip-path="url(#pfbc3185b4d)" style="stroke: #000000; stroke-linecap: round"/>
   </g>
   <g id="patch_30">
    <path d="M 169.613375 194.380043 
Q 199.61647 178.949231 228.625319 164.029767 
" clip-path="url(#pfbc3185b4d)" style="fill: none; stroke: #000000; stroke-linecap: round"/>
    <path d="M 224.153473 164.08066 
L 228.625319 164.029767 
L 225.982926 167.63778 
z
" clip-path="url(#pfbc3185b4d)" style="stroke: #000000; stroke-linecap: round"/>
   </g>
   <g id="patch_31">
    <path d="M 281.529827 127.706397 
Q 336.467916 136.231132 390.301194 144.584434 
" clip-path="url(#pfbc3185b4d)" style="fill: none; stroke: #000000; stroke-linecap: round"/>
    <path d="M 386.655166 141.994746 
L 390.301194 144.584434 
L 386.041827 145.947443 
z
" clip-path="url(#pfbc3185b4d)" style="stroke: #000000; stroke-linecap: round"/>
   </g>
   <g id="patch_32">
    <path d="M 277.712022 127.058672 
Q 222.737621 116.932714 168.862757 107.009283 
" clip-path="url(#pfbc3185b4d)" style="fill: none; stroke: #000000; stroke-linecap: round"/>
    <path d="M 172.434288 109.700783 
L 168.862757 107.009283 
L 173.158875 105.766958 
z
" clip-path="url(#pfbc3185b4d)" style="stroke: #000000; stroke-linecap: round"/>
   </g>
   <g id="patch_33">
    <path d="M 281.499898 126.964511 
Q 338.798495 113.409657 395.009087 100.112187 
" clip-path="url(#pfbc3185b4d)" style="fill: none; stroke: #000000; stroke-linecap: round"/>
    <path d="M 390.656101 99.08675 
L 395.009087 100.112187 
L 391.576946 102.979313 
z
" clip-path="url(#pfbc3185b4d)" style="stroke: #000000; stroke-linecap: round"/>
   </g>
   <g id="patch_34">
    <path d="M 277.810602 126.718211 
Q 253.132721 117.275925 229.499047 108.233175 
" clip-path="url(#pfbc3185b4d)" style="fill: none; stroke: #000000; stroke-linecap: round"/>
    <path d="M 232.520208 111.530537 
L 229.499047 108.233175 
L 233.949633 107.794664 
z
" clip-path="url(#pfbc3185b4d)" style="stroke: #000000; stroke-linecap: round"/>
   </g>
   <g id="patch_35">
    <path d="M 277.964219 128.414073 
Q 223.755149 161.337329 170.501678 193.680213 
" clip-path="url(#pfbc3185b4d)" style="fill: none; stroke: #000000; stroke-linecap: round"/>
    <path d="M 174.958732 193.313239 
L 170.501678 193.680213 
L 172.882331 189.894385 
z
" clip-path="url(#pfbc3185b4d)" style="stroke: #000000; stroke-linecap: round"/>
   </g>
   <g id="patch_36">
    <path d="M 281.474862 126.850276 
Q 315.414066 116.625346 348.282763 106.72293 
" clip-path="url(#pfbc3185b4d)" style="fill: none; stroke: #000000; stroke-linecap: round"/>
    <path d="M 343.875871 105.961809 
L 348.282763 106.72293 
L 345.029731 109.791771 
z
" clip-path="url(#pfbc3185b4d)" style="stroke: #000000; stroke-linecap: round"/>
   </g>
   <g id="patch_37">
    <path d="M 280.926636 125.979331 
Q 295.362509 110.201444 309.043672 95.248429 
" clip-path="url(#pfbc3185b4d)" style="fill: none; stroke: #000000; stroke-linecap: round"/>
    <path d="M 304.867964 96.84951 
L 309.043672 95.248429 
L 307.819113 99.549644 
z
" clip-path="url(#pfbc3185b4d)" style="stroke: #000000; stroke-linecap: round"/>
   </g>
   <g id="patch_38">
    <path d="M 281.55262 127.476229 
Q 350.21607 129.83649 417.762146 132.158342 
" clip-path="url(#pfbc3185b4d)" style="fill: none; stroke: #000000; stroke-linecap: round"/>
    <path d="M 413.833215 130.022106 
L 417.762146 132.158342 
L 413.695799 134.019745 
z
" clip-path="url(#pfbc3185b4d)" style="stroke: #000000; stroke-linecap: round"/>
   </g>
   <g id="patch_39">
    <path d="M 278.053279 128.551296 
Q 255.479932 145.021087 233.809773 160.8319 
" clip-path="url(#pfbc3185b4d)" style="fill: none; stroke: #000000; stroke-linecap: round"/>
    <path d="M 238.219932 160.089944 
L 233.809773 160.8319 
L 235.862303 156.8586 
z
" clip-path="url(#pfbc3185b4d)" style="stroke: #000000; stroke-linecap: round"/>
   </g>
   <g id="patch_40">
    <path d="M 277.682153 127.400075 
Q 218.975763 127.10741 161.387392 126.820319 
" clip-path="url(#pfbc3185b4d)" style="fill: none; stroke: #000000; stroke-linecap: round"/>
    <path d="M 165.377372 128.840234 
L 161.387392 126.820319 
L 165.397312 124.840284 
z
" clip-path="url(#pfbc3185b4d)" style="stroke: #000000; stroke-linecap: round"/>
   </g>
   <g id="patch_41">
    <path d="M 277.727219 127.819588 
Q 215.484771 141.312522 154.334977 154.56859 
" clip-path="url(#pfbc3185b4d)" style="fill: none; stroke: #000000; stroke-linecap: round"/>
    <path d="M 158.667897 155.675753 
L 154.334977 154.56859 
L 157.820459 151.766552 
z
" clip-path="url(#pfbc3185b4d)" style="stroke: #000000; stroke-linecap: round"/>
   </g>
   <g id="patch_42">
    <path d="M 278.259419 126.026292 
Q 261.522425 108.981967 245.568776 92.735371 
" clip-path="url(#pfbc3185b4d)" style="fill: none; stroke: #000000; stroke-linecap: round"/>
    <path d="M 246.944334 96.990702 
L 245.568776 92.735371 
L 249.798376 94.188123 
z
" clip-path="url(#pfbc3185b4d)" style="stroke: #000000; stroke-linecap: round"/>
   </g>
   <g id="patch_43">
    <path d="M 281.5474 127.262033 
Q 342.969724 122.560503 403.277274 117.944302 
" clip-path="url(#pfbc3185b4d)" style="fill: none; stroke: #000000; stroke-linecap: round"/>
    <path d="M 399.136298 116.25542 
L 403.277274 117.944302 
L 399.441583 120.243753 
z
" clip-path="url(#pfbc3185b4d)" style="stroke: #000000; stroke-linecap: round"/>
   </g>
   <g id="patch_44">
    <path d="M 281.42959 128.085282 
Q 316.0795 141.00586 349.681837 153.535809 
" clip-path="url(#pfbc3185b4d)" style="fill: none; stroke: #000000; stroke-linecap: round"/>
    <path d="M 346.632704 150.264298 
L 349.681837 153.535809 
L 345.235148 154.012209 
z
" clip-path="url(#pfbc3185b4d)" style="stroke: #000000; stroke-linecap: round"/>
   </g>
   <g id="patch_45">
    <path d="M 280.104804 125.538368 
Q 287.129421 98.539736 293.872517 72.623115 
" clip-path="url(#pfbc3185b4d)" style="fill: none; stroke: #000000; stroke-linecap: round"/>
    <path d="M 290.929755 75.990629 
L 293.872517 72.623115 
L 294.800872 76.997833 
z
" clip-path="url(#pfbc3185b4d)" style="stroke: #000000; stroke-linecap: round"/>
   </g>
   <g id="patch_46">
    <path d="M 99.728326 313.967635 
Q 109.947082 297.599051 119.573765 282.178861 
" clip-path="url(#pfbc3185b4d)" style="fill: none; stroke: #000000; stroke-linecap: round"/>
    <path d="M 115.758963 284.512803 
L 119.573765 282.178861 
L 119.152037 286.631068 
z
" clip-path="url(#pfbc3185b4d)" style="stroke: #000000; stroke-linecap: round"/>
   </g>
   <g id="patch_47">
    <path d="M 169.634083 243.622429 
Q 193.241442 236.165455 215.782689 229.04524 
" clip-path="url(#pfbc3185b4d)" style="fill: none; stroke: #000000; stroke-linecap: round"/>
    <path d="M 211.366041 228.342943 
L 215.782689 229.04524 
L 212.570863 232.15718 
z
" clip-path="url(#pfbc3185b4d)" style="stroke: #000000; stroke-linecap: round"/>
   </g>
   <g id="patch_48">
    <path d="M 166.240939 245.379118 
Q 144.486856 261.898674 123.623176 277.742078 
" clip-path="url(#pfbc3185b4d)" style="fill: none; stroke: #000000; stroke-linecap: round"/>
    <path d="M 128.018318 276.915805 
L 123.623176 277.742078 
L 125.599243 273.730201 
z
" clip-path="url(#pfbc3185b4d)" style="stroke: #000000; stroke-linecap: round"/>
   </g>
   <g id="patch_49">
    <path d="M 167.789346 242.267842 
Q 167.837597 219.735315 167.883454 198.320821 
" clip-path="url(#pfbc3185b4d)" style="fill: none; stroke: #000000; stroke-linecap: round"/>
    <path d="M 165.874893 202.316529 
L 167.883454 198.320821 
L 169.874884 202.325094 
z
" clip-path="url(#pfbc3185b4d)" style="stroke: #000000; stroke-linecap: round"/>
   </g>
   <g id="patch_50">
    <path d="M 349.34766 106.402106 
Q 315.408456 116.627036 282.539759 126.529453 
" clip-path="url(#pfbc3185b4d)" style="fill: none; stroke: #000000; stroke-linecap: round"/>
    <path d="M 286.946651 127.290573 
L 282.539759 126.529453 
L 285.792791 123.460612 
z
" clip-path="url(#pfbc3185b4d)" style="stroke: #000000; stroke-linecap: round"/>
   </g>
   <g id="patch_51">
    <path d="M 309.795558 94.426644 
Q 295.359685 110.204531 281.678522 125.157546 
" clip-path="url(#pfbc3185b4d)" style="fill: none; stroke: #000000; stroke-linecap: round"/>
    <path d="M 285.854231 123.556465 
L 281.678522 125.157546 
L 282.903082 120.856331 
z
" clip-path="url(#pfbc3185b4d)" style="stroke: #000000; stroke-linecap: round"/>
   </g>
   <g id="patch_52">
    <path d="M 418.878509 132.196716 
Q 350.215059 129.836455 282.668984 127.514603 
" clip-path="url(#pfbc3185b4d)" style="fill: none; stroke: #000000; stroke-linecap: round"/>
    <path d="M 286.597914 129.650839 
L 282.668984 127.514603 
L 286.735331 125.6532 
z
" clip-path="url(#pfbc3185b4d)" style="stroke: #000000; stroke-linecap: round"/>
   </g>
   <g id="patch_53">
    <path d="M 229.617967 163.519241 
Q 199.614872 178.950052 170.606023 193.869516 
" clip-path="url(#pfbc3185b4d)" style="fill: none; stroke: #000000; stroke-linecap: round"/>
    <path d="M 175.077869 193.818623 
L 170.606023 193.869516 
L 173.248416 190.261504 
z
" clip-path="url(#pfbc3185b4d)" style="stroke: #000000; stroke-linecap: round"/>
   </g>
   <g id="patch_54">
    <path d="M 232.905974 161.491323 
Q 255.479322 145.021532 277.149481 129.210718 
" clip-path="url(#pfbc3185b4d)" style="fill: none; stroke: #000000; stroke-linecap: round"/>
    <path d="M 272.739322 129.952675 
L 277.149481 129.210718 
L 275.096951 133.184019 
z
" clip-path="url(#pfbc3185b4d)" style="stroke: #000000; stroke-linecap: round"/>
   </g>
   <g id="patch_55">
    <path d="M 149.331146 73.776367 
Q 153.671412 99.337552 157.824515 123.796479 
" clip-path="url(#pfbc3185b4d)" style="fill: none; stroke: #000000; stroke-linecap: round"/>
    <path d="M 159.12668 119.518119 
L 157.824515 123.796479 
L 155.183126 120.187731 
z
" clip-path="url(#pfbc3185b4d)" style="stroke: #000000; stroke-linecap: round"/>
   </g>
   <g id="patch_56">
    <path d="M 150.380576 70.503315 
Q 168.920326 52.074679 186.667134 34.434232 
" clip-path="url(#pfbc3185b4d)" style="fill: none; stroke: #000000; stroke-linecap: round"/>
    <path d="M 182.420262 35.835687 
L 186.667134 34.434232 
L 185.240175 38.672603 
z
" clip-path="url(#pfbc3185b4d)" style="stroke: #000000; stroke-linecap: round"/>
   </g>
   <g id="patch_57">
    <path d="M 159.924863 127.910632 
Q 193.197078 151.05232 225.551438 173.555616 
" clip-path="url(#pfbc3185b4d)" style="fill: none; stroke: #000000; stroke-linecap: round"/>
    <path d="M 223.409612 169.62973 
L 225.551438 173.555616 
L 221.125634 172.913545 
z
" clip-path="url(#pfbc3185b4d)" style="stroke: #000000; stroke-linecap: round"/>
   </g>
   <g id="patch_58">
    <path d="M 156.410334 127.038153 
Q 99.159633 133.969018 43.018861 140.765514 
" clip-path="url(#pfbc3185b4d)" style="fill: none; stroke: #000000; stroke-linecap: round"/>
    <path d="M 47.230236 142.270281 
L 43.018861 140.765514 
L 46.749499 138.299274 
z
" clip-path="url(#pfbc3185b4d)" style="stroke: #000000; stroke-linecap: round"/>
   </g>
   <g id="patch_59">
    <path d="M 160.27113 126.814754 
Q 218.977521 127.107419 276.565892 127.39451 
" clip-path="url(#pfbc3185b4d)" style="fill: none; stroke: #000000; stroke-linecap: round"/>
    <path d="M 272.575912 125.374594 
L 276.565892 127.39451 
L 272.555971 129.374544 
z
" clip-path="url(#pfbc3185b4d)" style="stroke: #000000; stroke-linecap: round"/>
   </g>
   <g id="patch_60">
    <path d="M 158.011418 124.897209 
Q 153.671152 99.336025 149.518049 74.877097 
" clip-path="url(#pfbc3185b4d)" style="fill: none; stroke: #000000; stroke-linecap: round"/>
    <path d="M 148.215883 79.155458 
L 149.518049 74.877097 
L 152.159438 78.485846 
z
" clip-path="url(#pfbc3185b4d)" style="stroke: #000000; stroke-linecap: round"/>
   </g>
   <g id="patch_61">
    <path d="M 63.30459 187.537256 
Q 63.265497 197.337082 63.230864 206.018884 
" clip-path="url(#pfbc3185b4d)" style="fill: none; stroke: #000000; stroke-linecap: round"/>
    <path d="M 65.246805 202.026894 
L 63.230864 206.018884 
L 61.246836 202.010938 
z
" clip-path="url(#pfbc3185b4d)" style="stroke: #000000; stroke-linecap: round"/>
   </g>
   <g id="patch_62">
    <path d="M 65.141917 184.971761 
Q 107.331073 170.40942 148.463381 156.211869 
" clip-path="url(#pfbc3185b4d)" style="fill: none; stroke: #000000; stroke-linecap: round"/>
    <path d="M 144.029729 155.626434 
L 148.463381 156.211869 
L 145.334842 159.407529 
z
" clip-path="url(#pfbc3185b4d)" style="stroke: #000000; stroke-linecap: round"/>
   </g>
   <g id="patch_63">
    <path d="M 153.239337 154.806103 
Q 215.481785 141.313169 276.631579 128.057102 
" clip-path="url(#pfbc3185b4d)" style="fill: none; stroke: #000000; stroke-linecap: round"/>
    <path d="M 272.298659 126.949939 
L 276.631579 128.057102 
L 273.146097 130.859139 
z
" clip-path="url(#pfbc3185b4d)" style="stroke: #000000; stroke-linecap: round"/>
   </g>
   <g id="patch_64">
    <path d="M 149.519037 155.847491 
Q 107.329881 170.409832 66.197573 184.607383 
" clip-path="url(#pfbc3185b4d)" style="fill: none; stroke: #000000; stroke-linecap: round"/>
    <path d="M 70.631225 185.192818 
L 66.197573 184.607383 
L 69.326112 181.411723 
z
" clip-path="url(#pfbc3185b4d)" style="stroke: #000000; stroke-linecap: round"/>
   </g>
   <g id="patch_65">
    <path d="M 244.7854 91.937611 
Q 261.522394 108.981936 277.476043 125.228532 
" clip-path="url(#pfbc3185b4d)" style="fill: none; stroke: #000000; stroke-linecap: round"/>
    <path d="M 276.100485 120.973201 
L 277.476043 125.228532 
L 273.246444 123.77578 
z
" clip-path="url(#pfbc3185b4d)" style="stroke: #000000; stroke-linecap: round"/>
   </g>
   <g id="patch_66">
    <path d="M 404.393127 117.85889 
Q 342.970803 122.56042 282.663253 127.176621 
" clip-path="url(#pfbc3185b4d)" style="fill: none; stroke: #000000; stroke-linecap: round"/>
    <path d="M 286.804229 128.865503 
L 282.663253 127.176621 
L 286.498944 124.87717 
z
" clip-path="url(#pfbc3185b4d)" style="stroke: #000000; stroke-linecap: round"/>
   </g>
   <g id="patch_67">
    <path d="M 350.736494 153.929079 
Q 316.086584 141.008501 282.484247 128.478552 
" clip-path="url(#pfbc3185b4d)" style="fill: none; stroke: #000000; stroke-linecap: round"/>
    <path d="M 285.533381 131.750063 
L 282.484247 128.478552 
L 286.930936 128.002152 
z
" clip-path="url(#pfbc3185b4d)" style="stroke: #000000; stroke-linecap: round"/>
   </g>
   <g id="patch_68">
    <path d="M 294.154229 71.540375 
Q 287.129611 98.539006 280.386516 124.455628 
" clip-path="url(#pfbc3185b4d)" style="fill: none; stroke: #000000; stroke-linecap: round"/>
    <path d="M 283.329277 121.088113 
L 280.386516 124.455628 
L 279.458161 120.08091 
z
" clip-path="url(#pfbc3185b4d)" style="stroke: #000000; stroke-linecap: round"/>
   </g>
   <g id="patch_69">
    <path d="M 293.851866 67.898675 
Q 285.796156 49.829391 278.195698 32.781256 
" clip-path="url(#pfbc3185b4d)" style="fill: none; stroke: #000000; stroke-linecap: round"/>
    <path d="M 277.99777 37.24901 
L 278.195698 32.781256 
L 281.651145 35.62025 
z
" clip-path="url(#pfbc3185b4d)" style="stroke: #000000; stroke-linecap: round"/>
   </g>
   <g id="patch_70">
    <path d="M 277.740588 31.760426 
Q 285.796298 49.82971 293.396756 66.877845 
" clip-path="url(#pfbc3185b4d)" style="fill: none; stroke: #000000; stroke-linecap: round"/>
    <path d="M 293.594683 62.410091 
L 293.396756 66.877845 
L 289.941309 64.038851 
z
" clip-path="url(#pfbc3185b4d)" style="stroke: #000000; stroke-linecap: round"/>
   </g>
   <g id="patch_71">
    <path d="M 275.017824 30.040357 
Q 232.894644 31.135629 191.88912 32.201841 
" clip-path="url(#pfbc3185b4d)" style="fill: none; stroke: #000000; stroke-linecap: round"/>
    <path d="M 195.939755 34.097193 
L 191.88912 32.201841 
L 195.835783 30.098545 
z
" clip-path="url(#pfbc3185b4d)" style="stroke: #000000; stroke-linecap: round"/>
   </g>
   <g id="patch_72">
    <path d="M 187.459654 33.646462 
Q 168.919904 52.075098 151.173096 69.715545 
" clip-path="url(#pfbc3185b4d)" style="fill: none; stroke: #000000; stroke-linecap: round"/>
    <path d="M 155.419968 68.314089 
L 151.173096 69.715545 
L 152.600055 65.477174 
z
" clip-path="url(#pfbc3185b4d)" style="stroke: #000000; stroke-linecap: round"/>
   </g>
   <g id="patch_73">
    <path d="M 190.766547 32.231029 
Q 232.889726 31.135757 273.89525 30.069546 
" clip-path="url(#pfbc3185b4d)" style="fill: none; stroke: #000000; stroke-linecap: round"/>
    <path d="M 269.844616 28.174193 
L 273.89525 30.069546 
L 269.948587 32.172841 
z
" clip-path="url(#pfbc3185b4d)" style="stroke: #000000; stroke-linecap: round"/>
   </g>
   <g id="PathCollection_1">
    <defs>
     <path id="C0_0_13380baa7b" d="M 0 1.936492 
C 0.513564 1.936492 1.006162 1.732451 1.369306 1.369306 
C 1.732451 1.006162 1.936492 0.513564 1.936492 -0 
C 1.936492 -0.513564 1.732451 -1.006162 1.369306 -1.369306 
C 1.006162 -1.732451 0.513564 -1.936492 0 -1.936492 
C -0.513564 -1.936492 -1.006162 -1.732451 -1.369306 -1.369306 
C -1.732451 -1.006162 -1.936492 -0.513564 -1.936492 0 
C -1.936492 0.513564 -1.732451 1.006162 -1.369306 1.369306 
C -1.006162 1.732451 -0.513564 1.936492 0 1.936492 
z
"/>
    </defs>
    <g clip-path="url(#pfbc3185b4d)">
     <use xlink:href="#C0_0_13380baa7b" x="228.059971" y="175.300365" style="fill: #ff0000; stroke: #ff0000"/>
    </g>
    <g clip-path="url(#pfbc3185b4d)">
     <use xlink:href="#C0_0_13380baa7b" x="276.836342" y="211.942018" style="stroke: #000000"/>
    </g>
    <g clip-path="url(#pfbc3185b4d)">
     <use xlink:href="#C0_0_13380baa7b" x="393.319893" y="145.052845" style="fill: #ff0000; stroke: #ff0000"/>
    </g>
    <g clip-path="url(#pfbc3185b4d)">
     <use xlink:href="#C0_0_13380baa7b" x="39.986777" y="141.132583" style="fill: #ff0000; stroke: #ff0000"/>
    </g>
    <g clip-path="url(#pfbc3185b4d)">
     <use xlink:href="#C0_0_13380baa7b" x="165.86196" y="106.456554" style="stroke: #000000"/>
    </g>
    <g clip-path="url(#pfbc3185b4d)">
     <use xlink:href="#C0_0_13380baa7b" x="63.218675" y="209.074527" style="stroke: #000000"/>
    </g>
    <g clip-path="url(#pfbc3185b4d)">
     <use xlink:href="#C0_0_13380baa7b" x="218.696424" y="228.124864" style="fill: #ff0000; stroke: #ff0000"/>
    </g>
    <g clip-path="url(#pfbc3185b4d)">
     <use xlink:href="#C0_0_13380baa7b" x="48.678924" y="172.359639" style="fill: #ff0000; stroke: #ff0000"/>
    </g>
    <g clip-path="url(#pfbc3185b4d)">
     <use xlink:href="#C0_0_13380baa7b" x="116.735467" y="244.476975" style="fill: #ff0000; stroke: #ff0000"/>
    </g>
    <g clip-path="url(#pfbc3185b4d)">
     <use xlink:href="#C0_0_13380baa7b" x="121.190203" y="279.589623" style="fill: #ff0000; stroke: #ff0000"/>
    </g>
    <g clip-path="url(#pfbc3185b4d)">
     <use xlink:href="#C0_0_13380baa7b" x="397.984708" y="99.408258" style="fill: #ff0000; stroke: #ff0000"/>
    </g>
    <g clip-path="url(#pfbc3185b4d)">
     <use xlink:href="#C0_0_13380baa7b" x="226.646741" y="107.141822" style="stroke: #000000"/>
    </g>
    <g clip-path="url(#pfbc3185b4d)">
     <use xlink:href="#C0_0_13380baa7b" x="167.889995" y="195.266389" style="stroke: #000000"/>
    </g>
    <g clip-path="url(#pfbc3185b4d)">
     <use xlink:href="#C0_0_13380baa7b" x="279.617907" y="127.409725" style="fill: #ff0000; stroke: #ff0000"/>
    </g>
    <g clip-path="url(#pfbc3185b4d)">
     <use xlink:href="#C0_0_13380baa7b" x="98.703064" y="315.609917" style="fill: #ff0000; stroke: #ff0000"/>
    </g>
    <g clip-path="url(#pfbc3185b4d)">
     <use xlink:href="#C0_0_13380baa7b" x="167.785195" y="244.206446" style="fill: #ff0000; stroke: #ff0000"/>
    </g>
    <g clip-path="url(#pfbc3185b4d)">
     <use xlink:href="#C0_0_13380baa7b" x="351.204615" y="105.842658" style="fill: #ff0000; stroke: #ff0000"/>
    </g>
    <g clip-path="url(#pfbc3185b4d)">
     <use xlink:href="#C0_0_13380baa7b" x="311.104288" y="92.99625" style="fill: #ff0000; stroke: #ff0000"/>
    </g>
    <g clip-path="url(#pfbc3185b4d)">
     <use xlink:href="#C0_0_13380baa7b" x="420.813223" y="132.263221" style="fill: #ff0000; stroke: #ff0000"/>
    </g>
    <g clip-path="url(#pfbc3185b4d)">
     <use xlink:href="#C0_0_13380baa7b" x="231.341347" y="162.632894" style="fill: #ff0000; stroke: #ff0000"/>
    </g>
    <g clip-path="url(#pfbc3185b4d)">
     <use xlink:href="#C0_0_13380baa7b" x="149.007187" y="71.868473" style="stroke: #000000"/>
    </g>
    <g clip-path="url(#pfbc3185b4d)">
     <use xlink:href="#C0_0_13380baa7b" x="158.335377" y="126.805104" style="fill: #ff0000; stroke: #ff0000"/>
    </g>
    <g clip-path="url(#pfbc3185b4d)">
     <use xlink:href="#C0_0_13380baa7b" x="63.312305" y="185.603285" style="stroke: #000000"/>
    </g>
    <g clip-path="url(#pfbc3185b4d)">
     <use xlink:href="#C0_0_13380baa7b" x="151.348649" y="155.215967" style="fill: #ff0000; stroke: #ff0000"/>
    </g>
    <g clip-path="url(#pfbc3185b4d)">
     <use xlink:href="#C0_0_13380baa7b" x="243.426912" y="90.554178" style="fill: #ff0000; stroke: #ff0000"/>
    </g>
    <g clip-path="url(#pfbc3185b4d)">
     <use xlink:href="#C0_0_13380baa7b" x="406.32262" y="117.711198" style="fill: #ff0000; stroke: #ff0000"/>
    </g>
    <g clip-path="url(#pfbc3185b4d)">
     <use xlink:href="#C0_0_13380baa7b" x="352.548178" y="154.604637" style="fill: #ff0000; stroke: #ff0000"/>
    </g>
    <g clip-path="url(#pfbc3185b4d)">
     <use xlink:href="#C0_0_13380baa7b" x="294.641126" y="69.669018" style="fill: #ff0000; stroke: #ff0000"/>
    </g>
    <g clip-path="url(#pfbc3185b4d)">
     <use xlink:href="#C0_0_13380baa7b" x="276.951327" y="29.990083" style="fill: #ff0000; stroke: #ff0000"/>
    </g>
    <g clip-path="url(#pfbc3185b4d)">
     <use xlink:href="#C0_0_13380baa7b" x="188.833043" y="32.281304" style="stroke: #000000"/>
    </g>
   </g>
   <g id="text_1">
    <g clip-path="url(#pfbc3185b4d)">
     <!-- 0 -->
     <g transform="translate(224.878721 178.05974) scale(0.1 -0.1)">
      <defs>
       <path id="DejaVuSans-30" d="M 2034 4250 
Q 1547 4250 1301 3770 
Q 1056 3291 1056 2328 
Q 1056 1369 1301 889 
Q 1547 409 2034 409 
Q 2525 409 2770 889 
Q 3016 1369 3016 2328 
Q 3016 3291 2770 3770 
Q 2525 4250 2034 4250 
z
M 2034 4750 
Q 2819 4750 3233 4129 
Q 3647 3509 3647 2328 
Q 3647 1150 3233 529 
Q 2819 -91 2034 -91 
Q 1250 -91 836 529 
Q 422 1150 422 2328 
Q 422 3509 836 4129 
Q 1250 4750 2034 4750 
z
" transform="scale(0.015625)"/>
      </defs>
      <use xlink:href="#DejaVuSans-30"/>
     </g>
    </g>
   </g>
   <g id="text_2">
    <g clip-path="url(#pfbc3185b4d)">
     <!-- 1 -->
     <g transform="translate(273.655092 214.701393) scale(0.1 -0.1)">
      <defs>
       <path id="DejaVuSans-31" d="M 794 531 
L 1825 531 
L 1825 4091 
L 703 3866 
L 703 4441 
L 1819 4666 
L 2450 4666 
L 2450 531 
L 3481 531 
L 3481 0 
L 794 0 
L 794 531 
z
" transform="scale(0.015625)"/>
      </defs>
      <use xlink:href="#DejaVuSans-31"/>
     </g>
    </g>
   </g>
   <g id="text_3">
    <g clip-path="url(#pfbc3185b4d)">
     <!-- 2 -->
     <g transform="translate(390.138643 147.81222) scale(0.1 -0.1)">
      <defs>
       <path id="DejaVuSans-32" d="M 1228 531 
L 3431 531 
L 3431 0 
L 469 0 
L 469 531 
Q 828 903 1448 1529 
Q 2069 2156 2228 2338 
Q 2531 2678 2651 2914 
Q 2772 3150 2772 3378 
Q 2772 3750 2511 3984 
Q 2250 4219 1831 4219 
Q 1534 4219 1204 4116 
Q 875 4013 500 3803 
L 500 4441 
Q 881 4594 1212 4672 
Q 1544 4750 1819 4750 
Q 2544 4750 2975 4387 
Q 3406 4025 3406 3419 
Q 3406 3131 3298 2873 
Q 3191 2616 2906 2266 
Q 2828 2175 2409 1742 
Q 1991 1309 1228 531 
z
" transform="scale(0.015625)"/>
      </defs>
      <use xlink:href="#DejaVuSans-32"/>
     </g>
    </g>
   </g>
   <g id="text_4">
    <g clip-path="url(#pfbc3185b4d)">
     <!-- 3 -->
     <g transform="translate(36.805527 143.891958) scale(0.1 -0.1)">
      <defs>
       <path id="DejaVuSans-33" d="M 2597 2516 
Q 3050 2419 3304 2112 
Q 3559 1806 3559 1356 
Q 3559 666 3084 287 
Q 2609 -91 1734 -91 
Q 1441 -91 1130 -33 
Q 819 25 488 141 
L 488 750 
Q 750 597 1062 519 
Q 1375 441 1716 441 
Q 2309 441 2620 675 
Q 2931 909 2931 1356 
Q 2931 1769 2642 2001 
Q 2353 2234 1838 2234 
L 1294 2234 
L 1294 2753 
L 1863 2753 
Q 2328 2753 2575 2939 
Q 2822 3125 2822 3475 
Q 2822 3834 2567 4026 
Q 2313 4219 1838 4219 
Q 1578 4219 1281 4162 
Q 984 4106 628 3988 
L 628 4550 
Q 988 4650 1302 4700 
Q 1616 4750 1894 4750 
Q 2613 4750 3031 4423 
Q 3450 4097 3450 3541 
Q 3450 3153 3228 2886 
Q 3006 2619 2597 2516 
z
" transform="scale(0.015625)"/>
      </defs>
      <use xlink:href="#DejaVuSans-33"/>
     </g>
    </g>
   </g>
   <g id="text_5">
    <g clip-path="url(#pfbc3185b4d)">
     <!-- 4 -->
     <g transform="translate(162.68071 109.215929) scale(0.1 -0.1)">
      <defs>
       <path id="DejaVuSans-34" d="M 2419 4116 
L 825 1625 
L 2419 1625 
L 2419 4116 
z
M 2253 4666 
L 3047 4666 
L 3047 1625 
L 3713 1625 
L 3713 1100 
L 3047 1100 
L 3047 0 
L 2419 0 
L 2419 1100 
L 313 1100 
L 313 1709 
L 2253 4666 
z
" transform="scale(0.015625)"/>
      </defs>
      <use xlink:href="#DejaVuSans-34"/>
     </g>
    </g>
   </g>
   <g id="text_6">
    <g clip-path="url(#pfbc3185b4d)">
     <!-- 5 -->
     <g transform="translate(60.037425 211.833902) scale(0.1 -0.1)">
      <defs>
       <path id="DejaVuSans-35" d="M 691 4666 
L 3169 4666 
L 3169 4134 
L 1269 4134 
L 1269 2991 
Q 1406 3038 1543 3061 
Q 1681 3084 1819 3084 
Q 2600 3084 3056 2656 
Q 3513 2228 3513 1497 
Q 3513 744 3044 326 
Q 2575 -91 1722 -91 
Q 1428 -91 1123 -41 
Q 819 9 494 109 
L 494 744 
Q 775 591 1075 516 
Q 1375 441 1709 441 
Q 2250 441 2565 725 
Q 2881 1009 2881 1497 
Q 2881 1984 2565 2268 
Q 2250 2553 1709 2553 
Q 1456 2553 1204 2497 
Q 953 2441 691 2322 
L 691 4666 
z
" transform="scale(0.015625)"/>
      </defs>
      <use xlink:href="#DejaVuSans-35"/>
     </g>
    </g>
   </g>
   <g id="text_7">
    <g clip-path="url(#pfbc3185b4d)">
     <!-- 6 -->
     <g transform="translate(215.515174 230.884239) scale(0.1 -0.1)">
      <defs>
       <path id="DejaVuSans-36" d="M 2113 2584 
Q 1688 2584 1439 2293 
Q 1191 2003 1191 1497 
Q 1191 994 1439 701 
Q 1688 409 2113 409 
Q 2538 409 2786 701 
Q 3034 994 3034 1497 
Q 3034 2003 2786 2293 
Q 2538 2584 2113 2584 
z
M 3366 4563 
L 3366 3988 
Q 3128 4100 2886 4159 
Q 2644 4219 2406 4219 
Q 1781 4219 1451 3797 
Q 1122 3375 1075 2522 
Q 1259 2794 1537 2939 
Q 1816 3084 2150 3084 
Q 2853 3084 3261 2657 
Q 3669 2231 3669 1497 
Q 3669 778 3244 343 
Q 2819 -91 2113 -91 
Q 1303 -91 875 529 
Q 447 1150 447 2328 
Q 447 3434 972 4092 
Q 1497 4750 2381 4750 
Q 2619 4750 2861 4703 
Q 3103 4656 3366 4563 
z
" transform="scale(0.015625)"/>
      </defs>
      <use xlink:href="#DejaVuSans-36"/>
     </g>
    </g>
   </g>
   <g id="text_8">
    <g clip-path="url(#pfbc3185b4d)">
     <!-- 7 -->
     <g transform="translate(45.497674 175.119014) scale(0.1 -0.1)">
      <defs>
       <path id="DejaVuSans-37" d="M 525 4666 
L 3525 4666 
L 3525 4397 
L 1831 0 
L 1172 0 
L 2766 4134 
L 525 4134 
L 525 4666 
z
" transform="scale(0.015625)"/>
      </defs>
      <use xlink:href="#DejaVuSans-37"/>
     </g>
    </g>
   </g>
   <g id="text_9">
    <g clip-path="url(#pfbc3185b4d)">
     <!-- 8 -->
     <g transform="translate(113.554217 247.23635) scale(0.1 -0.1)">
      <defs>
       <path id="DejaVuSans-38" d="M 2034 2216 
Q 1584 2216 1326 1975 
Q 1069 1734 1069 1313 
Q 1069 891 1326 650 
Q 1584 409 2034 409 
Q 2484 409 2743 651 
Q 3003 894 3003 1313 
Q 3003 1734 2745 1975 
Q 2488 2216 2034 2216 
z
M 1403 2484 
Q 997 2584 770 2862 
Q 544 3141 544 3541 
Q 544 4100 942 4425 
Q 1341 4750 2034 4750 
Q 2731 4750 3128 4425 
Q 3525 4100 3525 3541 
Q 3525 3141 3298 2862 
Q 3072 2584 2669 2484 
Q 3125 2378 3379 2068 
Q 3634 1759 3634 1313 
Q 3634 634 3220 271 
Q 2806 -91 2034 -91 
Q 1263 -91 848 271 
Q 434 634 434 1313 
Q 434 1759 690 2068 
Q 947 2378 1403 2484 
z
M 1172 3481 
Q 1172 3119 1398 2916 
Q 1625 2713 2034 2713 
Q 2441 2713 2670 2916 
Q 2900 3119 2900 3481 
Q 2900 3844 2670 4047 
Q 2441 4250 2034 4250 
Q 1625 4250 1398 4047 
Q 1172 3844 1172 3481 
z
" transform="scale(0.015625)"/>
      </defs>
      <use xlink:href="#DejaVuSans-38"/>
     </g>
    </g>
   </g>
   <g id="text_10">
    <g clip-path="url(#pfbc3185b4d)">
     <!-- 9 -->
     <g transform="translate(118.008953 282.348998) scale(0.1 -0.1)">
      <defs>
       <path id="DejaVuSans-39" d="M 703 97 
L 703 672 
Q 941 559 1184 500 
Q 1428 441 1663 441 
Q 2288 441 2617 861 
Q 2947 1281 2994 2138 
Q 2813 1869 2534 1725 
Q 2256 1581 1919 1581 
Q 1219 1581 811 2004 
Q 403 2428 403 3163 
Q 403 3881 828 4315 
Q 1253 4750 1959 4750 
Q 2769 4750 3195 4129 
Q 3622 3509 3622 2328 
Q 3622 1225 3098 567 
Q 2575 -91 1691 -91 
Q 1453 -91 1209 -44 
Q 966 3 703 97 
z
M 1959 2075 
Q 2384 2075 2632 2365 
Q 2881 2656 2881 3163 
Q 2881 3666 2632 3958 
Q 2384 4250 1959 4250 
Q 1534 4250 1286 3958 
Q 1038 3666 1038 3163 
Q 1038 2656 1286 2365 
Q 1534 2075 1959 2075 
z
" transform="scale(0.015625)"/>
      </defs>
      <use xlink:href="#DejaVuSans-39"/>
     </g>
    </g>
   </g>
   <g id="text_11">
    <g clip-path="url(#pfbc3185b4d)">
     <!-- 10 -->
     <g transform="translate(391.622208 102.167633) scale(0.1 -0.1)">
      <use xlink:href="#DejaVuSans-31"/>
      <use xlink:href="#DejaVuSans-30" x="63.623047"/>
     </g>
    </g>
   </g>
   <g id="text_12">
    <g clip-path="url(#pfbc3185b4d)">
     <!-- 11 -->
     <g transform="translate(220.284241 109.901197) scale(0.1 -0.1)">
      <use xlink:href="#DejaVuSans-31"/>
      <use xlink:href="#DejaVuSans-31" x="63.623047"/>
     </g>
    </g>
   </g>
   <g id="text_13">
    <g clip-path="url(#pfbc3185b4d)">
     <!-- 12 -->
     <g transform="translate(161.527495 198.025764) scale(0.1 -0.1)">
      <use xlink:href="#DejaVuSans-31"/>
      <use xlink:href="#DejaVuSans-32" x="63.623047"/>
     </g>
    </g>
   </g>
   <g id="text_14">
    <g clip-path="url(#pfbc3185b4d)">
     <!-- 13 -->
     <g transform="translate(273.255407 130.1691) scale(0.1 -0.1)">
      <use xlink:href="#DejaVuSans-31"/>
      <use xlink:href="#DejaVuSans-33" x="63.623047"/>
     </g>
    </g>
   </g>
   <g id="text_15">
    <g clip-path="url(#pfbc3185b4d)">
     <!-- 14 -->
     <g transform="translate(92.340564 318.369292) scale(0.1 -0.1)">
      <use xlink:href="#DejaVuSans-31"/>
      <use xlink:href="#DejaVuSans-34" x="63.623047"/>
     </g>
    </g>
   </g>
   <g id="text_16">
    <g clip-path="url(#pfbc3185b4d)">
     <!-- 15 -->
     <g transform="translate(161.422695 246.965821) scale(0.1 -0.1)">
      <use xlink:href="#DejaVuSans-31"/>
      <use xlink:href="#DejaVuSans-35" x="63.623047"/>
     </g>
    </g>
   </g>
   <g id="text_17">
    <g clip-path="url(#pfbc3185b4d)">
     <!-- 16 -->
     <g transform="translate(344.842115 108.602033) scale(0.1 -0.1)">
      <use xlink:href="#DejaVuSans-31"/>
      <use xlink:href="#DejaVuSans-36" x="63.623047"/>
     </g>
    </g>
   </g>
   <g id="text_18">
    <g clip-path="url(#pfbc3185b4d)">
     <!-- 17 -->
     <g transform="translate(304.741788 95.755625) scale(0.1 -0.1)">
      <use xlink:href="#DejaVuSans-31"/>
      <use xlink:href="#DejaVuSans-37" x="63.623047"/>
     </g>
    </g>
   </g>
   <g id="text_19">
    <g clip-path="url(#pfbc3185b4d)">
     <!-- 18 -->
     <g transform="translate(414.450723 135.022596) scale(0.1 -0.1)">
      <use xlink:href="#DejaVuSans-31"/>
      <use xlink:href="#DejaVuSans-38" x="63.623047"/>
     </g>
    </g>
   </g>
   <g id="text_20">
    <g clip-path="url(#pfbc3185b4d)">
     <!-- 19 -->
     <g transform="translate(224.978847 165.392269) scale(0.1 -0.1)">
      <use xlink:href="#DejaVuSans-31"/>
      <use xlink:href="#DejaVuSans-39" x="63.623047"/>
     </g>
    </g>
   </g>
   <g id="text_21">
    <g clip-path="url(#pfbc3185b4d)">
     <!-- 20 -->
     <g transform="translate(142.644687 74.627848) scale(0.1 -0.1)">
      <use xlink:href="#DejaVuSans-32"/>
      <use xlink:href="#DejaVuSans-30" x="63.623047"/>
     </g>
    </g>
   </g>
   <g id="text_22">
    <g clip-path="url(#pfbc3185b4d)">
     <!-- 21 -->
     <g transform="translate(151.972877 129.564479) scale(0.1 -0.1)">
      <use xlink:href="#DejaVuSans-32"/>
      <use xlink:href="#DejaVuSans-31" x="63.623047"/>
     </g>
    </g>
   </g>
   <g id="text_23">
    <g clip-path="url(#pfbc3185b4d)">
     <!-- 22 -->
     <g transform="translate(56.949805 188.36266) scale(0.1 -0.1)">
      <use xlink:href="#DejaVuSans-32"/>
      <use xlink:href="#DejaVuSans-32" x="63.623047"/>
     </g>
    </g>
   </g>
   <g id="text_24">
    <g clip-path="url(#pfbc3185b4d)">
     <!-- 23 -->
     <g transform="translate(144.986149 157.975342) scale(0.1 -0.1)">
      <use xlink:href="#DejaVuSans-32"/>
      <use xlink:href="#DejaVuSans-33" x="63.623047"/>
     </g>
    </g>
   </g>
   <g id="text_25">
    <g clip-path="url(#pfbc3185b4d)">
     <!-- 24 -->
     <g transform="translate(237.064412 93.313553) scale(0.1 -0.1)">
      <use xlink:href="#DejaVuSans-32"/>
      <use xlink:href="#DejaVuSans-34" x="63.623047"/>
     </g>
    </g>
   </g>
   <g id="text_26">
    <g clip-path="url(#pfbc3185b4d)">
     <!-- 25 -->
     <g transform="translate(399.96012 120.470573) scale(0.1 -0.1)">
      <use xlink:href="#DejaVuSans-32"/>
      <use xlink:href="#DejaVuSans-35" x="63.623047"/>
     </g>
    </g>
   </g>
   <g id="text_27">
    <g clip-path="url(#pfbc3185b4d)">
     <!-- 26 -->
     <g transform="translate(346.185678 157.364012) scale(0.1 -0.1)">
      <use xlink:href="#DejaVuSans-32"/>
      <use xlink:href="#DejaVuSans-36" x="63.623047"/>
     </g>
    </g>
   </g>
   <g id="text_28">
    <g clip-path="url(#pfbc3185b4d)">
     <!-- 27 -->
     <g transform="translate(288.278626 72.428393) scale(0.1 -0.1)">
      <use xlink:href="#DejaVuSans-32"/>
      <use xlink:href="#DejaVuSans-37" x="63.623047"/>
     </g>
    </g>
   </g>
   <g id="text_29">
    <g clip-path="url(#pfbc3185b4d)">
     <!-- 28 -->
     <g transform="translate(270.588827 32.749458) scale(0.1 -0.1)">
      <use xlink:href="#DejaVuSans-32"/>
      <use xlink:href="#DejaVuSans-38" x="63.623047"/>
     </g>
    </g>
   </g>
   <g id="text_30">
    <g clip-path="url(#pfbc3185b4d)">
     <!-- 29 -->
     <g transform="translate(182.470543 35.040679) scale(0.1 -0.1)">
      <use xlink:href="#DejaVuSans-32"/>
      <use xlink:href="#DejaVuSans-39" x="63.623047"/>
     </g>
    </g>
   </g>
  </g>
 </g>
 <defs>
  <clipPath id="pfbc3185b4d">
   <rect x="0" y="0" width="460.8" height="345.6"/>
  </clipPath>
 </defs>
</svg>
