<?xml version="1.0" encoding="utf-8" standalone="no"?>
<!DOCTYPE svg PUBLIC "-//W3C//DTD SVG 1.1//EN"
  "http://www.w3.org/Graphics/SVG/1.1/DTD/svg11.dtd">
<svg xmlns:xlink="http://www.w3.org/1999/xlink" width="460.8pt" height="345.6pt" viewBox="0 0 460.8 345.6" xmlns="http://www.w3.org/2000/svg" version="1.1">
 <metadata>
  <rdf:RDF xmlns:dc="http://purl.org/dc/elements/1.1/" xmlns:cc="http://creativecommons.org/ns#" xmlns:rdf="http://www.w3.org/1999/02/22-rdf-syntax-ns#">
   <cc:Work>
    <dc:type rdf:resource="http://purl.org/dc/dcmitype/StillImage"/>
    <dc:date>2024-02-07T14:35:06.703515</dc:date>
    <dc:format>image/svg+xml</dc:format>
    <dc:creator>
     <cc:Agent>
      <dc:title>Matplotlib v3.8.0, https://matplotlib.org/</dc:title>
     </cc:Agent>
    </dc:creator>
   </cc:Work>
  </rdf:RDF>
 </metadata>
 <defs>
  <style type="text/css">*{stroke-linejoin: round; stroke-linecap: butt}</style>
 </defs>
 <g id="figure_1">
  <g id="patch_1">
   <path d="M 0 345.6 
L 460.8 345.6 
L 460.8 0 
L 0 0 
z
" style="fill: #ffffff"/>
  </g>
  <g id="axes_1">
   <g id="patch_2">
    <path d="M 163.87069 203.496931 
Q 174.1775 174.433217 184.110626 146.42324 
" clip-path="url(#p9f55f28f2a)" style="fill: none; stroke: #000000; stroke-linecap: round"/>
    <path d="M 180.888711 149.524734 
L 184.110626 146.42324 
L 184.658672 150.861669 
z
" clip-path="url(#p9f55f28f2a)" style="stroke: #000000; stroke-linecap: round"/>
   </g>
   <g id="patch_3">
    <path d="M 164.047799 207.076333 
Q 176.776951 234.06326 189.029144 260.038993 
" clip-path="url(#p9f55f28f2a)" style="fill: none; stroke: #000000; stroke-linecap: round"/>
    <path d="M 189.131605 255.568031 
L 189.029144 260.038993 
L 185.513851 257.274447 
z
" clip-path="url(#p9f55f28f2a)" style="stroke: #000000; stroke-linecap: round"/>
   </g>
   <g id="patch_4">
    <path d="M 184.483279 145.372413 
Q 174.176468 174.436126 164.243343 202.446103 
" clip-path="url(#p9f55f28f2a)" style="fill: none; stroke: #000000; stroke-linecap: round"/>
    <path d="M 167.465257 199.344609 
L 164.243343 202.446103 
L 163.695296 198.007675 
z
" clip-path="url(#p9f55f28f2a)" style="stroke: #000000; stroke-linecap: round"/>
   </g>
   <g id="patch_5">
    <path d="M 186.99739 143.015292 
Q 223.821139 132.58841 259.569147 122.466131 
" clip-path="url(#p9f55f28f2a)" style="fill: none; stroke: #000000; stroke-linecap: round"/>
    <path d="M 255.175572 121.631568 
L 259.569147 122.466131 
L 256.265352 125.480254 
z
" clip-path="url(#p9f55f28f2a)" style="stroke: #000000; stroke-linecap: round"/>
   </g>
   <g id="patch_6">
    <path d="M 183.706948 142.233313 
Q 164.250568 124.342919 145.617184 107.20928 
" clip-path="url(#p9f55f28f2a)" style="fill: none; stroke: #000000; stroke-linecap: round"/>
    <path d="M 147.207898 111.388948 
L 145.617184 107.20928 
L 149.915347 108.44451 
z
" clip-path="url(#p9f55f28f2a)" style="stroke: #000000; stroke-linecap: round"/>
   </g>
   <g id="patch_7">
    <path d="M 325.47629 275.777609 
Q 302.236173 252.6359 279.7883 230.283081 
" clip-path="url(#p9f55f28f2a)" style="fill: none; stroke: #000000; stroke-linecap: round"/>
    <path d="M 281.211512 234.522712 
L 279.7883 230.283081 
L 284.033932 231.68829 
z
" clip-path="url(#p9f55f28f2a)" style="stroke: #000000; stroke-linecap: round"/>
   </g>
   <g id="patch_8">
    <path d="M 136.616317 299.010006 
Q 162.672702 281.446247 187.802007 264.507403 
" clip-path="url(#p9f55f28f2a)" style="fill: none; stroke: #000000; stroke-linecap: round"/>
    <path d="M 183.367295 265.084755 
L 187.802007 264.507403 
L 185.603061 268.401583 
z
" clip-path="url(#p9f55f28f2a)" style="stroke: #000000; stroke-linecap: round"/>
   </g>
   <g id="patch_9">
    <path d="M 418.991569 90.183624 
Q 389.129698 101.034172 360.318642 111.502897 
" clip-path="url(#p9f55f28f2a)" style="fill: none; stroke: #000000; stroke-linecap: round"/>
    <path d="M 364.761175 112.016604 
L 360.318642 111.502897 
L 363.395128 108.257095 
z
" clip-path="url(#p9f55f28f2a)" style="stroke: #000000; stroke-linecap: round"/>
   </g>
   <g id="patch_10">
    <path d="M 359.267605 111.8848 
Q 389.129476 101.034252 417.940532 90.565527 
" clip-path="url(#p9f55f28f2a)" style="fill: none; stroke: #000000; stroke-linecap: round"/>
    <path d="M 413.497998 90.05182 
L 417.940532 90.565527 
L 414.864046 93.81133 
z
" clip-path="url(#p9f55f28f2a)" style="stroke: #000000; stroke-linecap: round"/>
   </g>
   <g id="patch_11">
    <path d="M 358.575147 114.118065 
Q 373.532534 134.932269 387.837478 154.838554 
" clip-path="url(#p9f55f28f2a)" style="fill: none; stroke: #000000; stroke-linecap: round"/>
    <path d="M 387.127359 150.423157 
L 387.837478 154.838554 
L 383.879089 152.757411 
z
" clip-path="url(#p9f55f28f2a)" style="stroke: #000000; stroke-linecap: round"/>
   </g>
   <g id="patch_12">
    <path d="M 355.519333 112.731111 
Q 309.979064 117.089812 265.551743 121.341993 
" clip-path="url(#p9f55f28f2a)" style="fill: none; stroke: #000000; stroke-linecap: round"/>
    <path d="M 269.724097 122.951792 
L 265.551743 121.341993 
L 269.342995 118.969989 
z
" clip-path="url(#p9f55f28f2a)" style="stroke: #000000; stroke-linecap: round"/>
   </g>
   <g id="patch_13">
    <path d="M 144.793563 106.45195 
Q 164.249943 124.342344 182.883327 141.475983 
" clip-path="url(#p9f55f28f2a)" style="fill: none; stroke: #000000; stroke-linecap: round"/>
    <path d="M 181.292614 137.296315 
L 182.883327 141.475983 
L 178.585164 140.240753 
z
" clip-path="url(#p9f55f28f2a)" style="stroke: #000000; stroke-linecap: round"/>
   </g>
   <g id="patch_14">
    <path d="M 144.775342 103.805899 
Q 158.182816 91.073714 170.779567 79.111419 
" clip-path="url(#p9f55f28f2a)" style="fill: none; stroke: #000000; stroke-linecap: round"/>
    <path d="M 166.501819 80.415594 
L 170.779567 79.111419 
L 169.256257 83.316122 
z
" clip-path="url(#p9f55f28f2a)" style="stroke: #000000; stroke-linecap: round"/>
   </g>
   <g id="patch_15">
    <path d="M 268.376898 58.476924 
Q 265.533896 89.089337 262.794282 118.588505 
" clip-path="url(#p9f55f28f2a)" style="fill: none; stroke: #000000; stroke-linecap: round"/>
    <path d="M 265.155604 114.790591 
L 262.794282 118.588505 
L 261.172743 114.420699 
z
" clip-path="url(#p9f55f28f2a)" style="stroke: #000000; stroke-linecap: round"/>
   </g>
   <g id="patch_16">
    <path d="M 301.692392 74.579295 
Q 282.722537 97.360869 264.4681 119.283271 
" clip-path="url(#p9f55f28f2a)" style="fill: none; stroke: #000000; stroke-linecap: round"/>
    <path d="M 268.564593 117.489184 
L 264.4681 119.283271 
L 265.490726 114.929624 
z
" clip-path="url(#p9f55f28f2a)" style="stroke: #000000; stroke-linecap: round"/>
   </g>
   <g id="patch_17">
    <path d="M 96.069578 45.470067 
Q 68.960951 37.987539 42.930057 30.802487 
" clip-path="url(#p9f55f28f2a)" style="fill: none; stroke: #000000; stroke-linecap: round"/>
    <path d="M 46.25373 33.794677 
L 42.930057 30.802487 
L 47.318012 29.938863 
z
" clip-path="url(#p9f55f28f2a)" style="stroke: #000000; stroke-linecap: round"/>
   </g>
   <g id="patch_18">
    <path d="M 99.724721 46.724957 
Q 135.461834 61.496987 170.165704 75.841923 
" clip-path="url(#p9f55f28f2a)" style="fill: none; stroke: #000000; stroke-linecap: round"/>
    <path d="M 167.23307 72.465585 
L 170.165704 75.841923 
L 165.705053 76.162227 
z
" clip-path="url(#p9f55f28f2a)" style="stroke: #000000; stroke-linecap: round"/>
   </g>
   <g id="patch_19">
    <path d="M 260.646001 122.161212 
Q 223.822253 132.588094 188.074244 142.710373 
" clip-path="url(#p9f55f28f2a)" style="fill: none; stroke: #000000; stroke-linecap: round"/>
    <path d="M 192.46782 143.544936 
L 188.074244 142.710373 
L 191.37804 139.696251 
z
" clip-path="url(#p9f55f28f2a)" style="stroke: #000000; stroke-linecap: round"/>
   </g>
   <g id="patch_20">
    <path d="M 264.438156 121.448575 
Q 309.978426 117.089873 354.405747 112.837693 
" clip-path="url(#p9f55f28f2a)" style="fill: none; stroke: #000000; stroke-linecap: round"/>
    <path d="M 350.233392 111.227893 
L 354.405747 112.837693 
L 350.614494 115.209697 
z
" clip-path="url(#p9f55f28f2a)" style="stroke: #000000; stroke-linecap: round"/>
   </g>
   <g id="patch_21">
    <path d="M 262.690463 119.706394 
Q 265.533465 89.093982 268.273079 59.594813 
" clip-path="url(#p9f55f28f2a)" style="fill: none; stroke: #000000; stroke-linecap: round"/>
    <path d="M 265.911756 63.392728 
L 268.273079 59.594813 
L 269.894617 63.76262 
z
" clip-path="url(#p9f55f28f2a)" style="stroke: #000000; stroke-linecap: round"/>
   </g>
   <g id="patch_22">
    <path d="M 263.752517 120.142639 
Q 282.722373 97.361065 300.97681 75.438663 
" clip-path="url(#p9f55f28f2a)" style="fill: none; stroke: #000000; stroke-linecap: round"/>
    <path d="M 296.880317 77.23275 
L 300.97681 75.438663 
L 299.954183 79.792309 
z
" clip-path="url(#p9f55f28f2a)" style="stroke: #000000; stroke-linecap: round"/>
   </g>
   <g id="patch_23">
    <path d="M 262.783226 123.547246 
Q 270.068657 174.879673 277.196984 225.105158 
" clip-path="url(#p9f55f28f2a)" style="fill: none; stroke: #000000; stroke-linecap: round"/>
    <path d="M 278.615067 220.863809 
L 277.196984 225.105158 
L 274.654755 221.425882 
z
" clip-path="url(#p9f55f28f2a)" style="stroke: #000000; stroke-linecap: round"/>
   </g>
   <g id="patch_24">
    <path d="M 260.776774 120.768245 
Q 217.751122 99.321246 175.726083 78.373023 
" clip-path="url(#p9f55f28f2a)" style="fill: none; stroke: #000000; stroke-linecap: round"/>
    <path d="M 178.413744 81.947443 
L 175.726083 78.373023 
L 180.198215 78.367546 
z
" clip-path="url(#p9f55f28f2a)" style="stroke: #000000; stroke-linecap: round"/>
   </g>
   <g id="patch_25">
    <path d="M 278.999305 229.497428 
Q 302.239423 252.639137 324.687296 274.991956 
" clip-path="url(#p9f55f28f2a)" style="fill: none; stroke: #000000; stroke-linecap: round"/>
    <path d="M 323.264084 270.752325 
L 324.687296 274.991956 
L 320.441664 273.586747 
z
" clip-path="url(#p9f55f28f2a)" style="stroke: #000000; stroke-linecap: round"/>
   </g>
   <g id="patch_26">
    <path d="M 277.354641 226.215989 
Q 270.069209 174.883563 262.940882 124.658078 
" clip-path="url(#p9f55f28f2a)" style="fill: none; stroke: #000000; stroke-linecap: round"/>
    <path d="M 261.522799 128.899427 
L 262.940882 124.658078 
L 265.483111 128.337354 
z
" clip-path="url(#p9f55f28f2a)" style="stroke: #000000; stroke-linecap: round"/>
   </g>
   <g id="patch_27">
    <path d="M 275.828125 228.844474 
Q 233.979059 245.466139 193.169069 261.675102 
" clip-path="url(#p9f55f28f2a)" style="fill: none; stroke: #000000; stroke-linecap: round"/>
    <path d="M 197.62484 262.057331 
L 193.169069 261.675102 
L 196.148315 258.339822 
z
" clip-path="url(#p9f55f28f2a)" style="stroke: #000000; stroke-linecap: round"/>
   </g>
   <g id="patch_28">
    <path d="M 279.429438 227.419178 
Q 313.742479 213.887317 347.015442 200.765625 
" clip-path="url(#p9f55f28f2a)" style="fill: none; stroke: #000000; stroke-linecap: round"/>
    <path d="M 342.560614 200.372547 
L 347.015442 200.765625 
L 344.028083 204.09364 
z
" clip-path="url(#p9f55f28f2a)" style="stroke: #000000; stroke-linecap: round"/>
   </g>
   <g id="patch_29">
    <path d="M 278.175443 229.990344 
Q 286.863704 259.421051 295.235414 287.779474 
" clip-path="url(#p9f55f28f2a)" style="fill: none; stroke: #000000; stroke-linecap: round"/>
    <path d="M 296.021052 283.376886 
L 295.235414 287.779474 
L 292.184728 284.509411 
z
" clip-path="url(#p9f55f28f2a)" style="stroke: #000000; stroke-linecap: round"/>
   </g>
   <g id="patch_30">
    <path d="M 276.78074 229.872003 
Q 268.945388 246.011275 261.598321 261.144774 
" clip-path="url(#p9f55f28f2a)" style="fill: none; stroke: #000000; stroke-linecap: round"/>
    <path d="M 265.144445 258.419888 
L 261.598321 261.144774 
L 261.546086 256.672944 
z
" clip-path="url(#p9f55f28f2a)" style="stroke: #000000; stroke-linecap: round"/>
   </g>
   <g id="patch_31">
    <path d="M 279.468248 228.718637 
Q 307.505679 237.674777 334.478094 246.290713 
" clip-path="url(#p9f55f28f2a)" style="fill: none; stroke: #000000; stroke-linecap: round"/>
    <path d="M 331.276348 243.168402 
L 334.478094 246.290713 
L 330.059198 246.978723 
z
" clip-path="url(#p9f55f28f2a)" style="stroke: #000000; stroke-linecap: round"/>
   </g>
   <g id="patch_32">
    <path d="M 277.103651 226.265001 
Q 268.941583 197.137186 261.081185 169.085937 
" clip-path="url(#p9f55f28f2a)" style="fill: none; stroke: #000000; stroke-linecap: round"/>
    <path d="M 260.234654 173.477223 
L 261.081185 169.085937 
L 264.086295 172.397933 
z
" clip-path="url(#p9f55f28f2a)" style="stroke: #000000; stroke-linecap: round"/>
   </g>
   <g id="patch_33">
    <path d="M 276.61202 229.780315 
Q 257.794134 260.392858 239.561741 290.052933 
" clip-path="url(#p9f55f28f2a)" style="fill: none; stroke: #000000; stroke-linecap: round"/>
    <path d="M 243.360295 287.69264 
L 239.561741 290.052933 
L 239.952639 285.597914 
z
" clip-path="url(#p9f55f28f2a)" style="stroke: #000000; stroke-linecap: round"/>
   </g>
   <g id="patch_34">
    <path d="M 41.850663 30.504553 
Q 68.959289 37.98708 94.990183 45.172132 
" clip-path="url(#p9f55f28f2a)" style="fill: none; stroke: #000000; stroke-linecap: round"/>
    <path d="M 91.66651 42.179942 
L 94.990183 45.172132 
L 90.602228 46.035757 
z
" clip-path="url(#p9f55f28f2a)" style="stroke: #000000; stroke-linecap: round"/>
   </g>
   <g id="patch_35">
    <path d="M 171.585492 78.346085 
Q 158.178019 91.07827 145.581268 103.040565 
" clip-path="url(#p9f55f28f2a)" style="fill: none; stroke: #000000; stroke-linecap: round"/>
    <path d="M 149.859016 101.736391 
L 145.581268 103.040565 
L 147.104577 98.835862 
z
" clip-path="url(#p9f55f28f2a)" style="stroke: #000000; stroke-linecap: round"/>
   </g>
   <g id="patch_36">
    <path d="M 171.200918 76.269831 
Q 135.463805 61.497802 100.759935 47.152866 
" clip-path="url(#p9f55f28f2a)" style="fill: none; stroke: #000000; stroke-linecap: round"/>
    <path d="M 103.692568 50.529204 
L 100.759935 47.152866 
L 105.220585 46.832562 
z
" clip-path="url(#p9f55f28f2a)" style="stroke: #000000; stroke-linecap: round"/>
   </g>
   <g id="patch_37">
    <path d="M 174.726941 77.874981 
Q 217.752592 99.321979 259.777632 120.270202 
" clip-path="url(#p9f55f28f2a)" style="fill: none; stroke: #000000; stroke-linecap: round"/>
    <path d="M 257.089971 116.695783 
L 259.777632 120.270202 
L 255.3055 120.275679 
z
" clip-path="url(#p9f55f28f2a)" style="stroke: #000000; stroke-linecap: round"/>
   </g>
   <g id="patch_38">
    <path d="M 194.121545 313.67925 
Q 192.298737 289.20473 190.558968 265.845156 
" clip-path="url(#p9f55f28f2a)" style="fill: none; stroke: #000000; stroke-linecap: round"/>
    <path d="M 188.86158 269.982652 
L 190.558968 265.845156 
L 192.850532 269.685564 
z
" clip-path="url(#p9f55f28f2a)" style="stroke: #000000; stroke-linecap: round"/>
   </g>
   <g id="patch_39">
    <path d="M 195.980329 314.708905 
Q 216.115155 304.130595 235.260228 294.072274 
" clip-path="url(#p9f55f28f2a)" style="fill: none; stroke: #000000; stroke-linecap: round"/>
    <path d="M 230.788995 294.162124 
L 235.260228 294.072274 
L 232.649368 297.703171 
z
" clip-path="url(#p9f55f28f2a)" style="stroke: #000000; stroke-linecap: round"/>
   </g>
   <g id="patch_40">
    <path d="M 189.506623 261.051291 
Q 176.777472 234.064364 164.525278 208.088631 
" clip-path="url(#p9f55f28f2a)" style="fill: none; stroke: #000000; stroke-linecap: round"/>
    <path d="M 164.422818 212.559593 
L 164.525278 208.088631 
L 168.040572 210.853176 
z
" clip-path="url(#p9f55f28f2a)" style="stroke: #000000; stroke-linecap: round"/>
   </g>
   <g id="patch_41">
    <path d="M 188.728491 263.88289 
Q 162.672105 281.446649 137.542801 298.385493 
" clip-path="url(#p9f55f28f2a)" style="fill: none; stroke: #000000; stroke-linecap: round"/>
    <path d="M 141.977512 297.808141 
L 137.542801 298.385493 
L 139.741747 294.491313 
z
" clip-path="url(#p9f55f28f2a)" style="stroke: #000000; stroke-linecap: round"/>
   </g>
   <g id="patch_42">
    <path d="M 192.130507 262.087599 
Q 233.979573 245.465935 274.789564 229.256971 
" clip-path="url(#p9f55f28f2a)" style="fill: none; stroke: #000000; stroke-linecap: round"/>
    <path d="M 270.333792 228.874742 
L 274.789564 229.256971 
L 271.810317 232.592251 
z
" clip-path="url(#p9f55f28f2a)" style="stroke: #000000; stroke-linecap: round"/>
   </g>
   <g id="patch_43">
    <path d="M 190.476098 264.732478 
Q 192.298906 289.206998 194.038675 312.566572 
" clip-path="url(#p9f55f28f2a)" style="fill: none; stroke: #000000; stroke-linecap: round"/>
    <path d="M 195.736063 308.429076 
L 194.038675 312.566572 
L 191.747111 308.726164 
z
" clip-path="url(#p9f55f28f2a)" style="stroke: #000000; stroke-linecap: round"/>
   </g>
   <g id="patch_44">
    <path d="M 388.49198 155.749337 
Q 373.534593 134.935133 359.229649 115.028848 
" clip-path="url(#p9f55f28f2a)" style="fill: none; stroke: #000000; stroke-linecap: round"/>
    <path d="M 359.939768 119.444245 
L 359.229649 115.028848 
L 363.188038 117.109991 
z
" clip-path="url(#p9f55f28f2a)" style="stroke: #000000; stroke-linecap: round"/>
   </g>
   <g id="patch_45">
    <path d="M 388.293587 158.733745 
Q 369.737843 178.484045 351.947643 197.419518 
" clip-path="url(#p9f55f28f2a)" style="fill: none; stroke: #000000; stroke-linecap: round"/>
    <path d="M 356.144142 195.873751 
L 351.947643 197.419518 
L 353.228929 193.134859 
z
" clip-path="url(#p9f55f28f2a)" style="stroke: #000000; stroke-linecap: round"/>
   </g>
   <g id="patch_46">
    <path d="M 348.053493 200.356254 
Q 313.740452 213.888116 280.467489 227.009807 
" clip-path="url(#p9f55f28f2a)" style="fill: none; stroke: #000000; stroke-linecap: round"/>
    <path d="M 284.922317 227.402885 
L 280.467489 227.009807 
L 283.454848 223.681792 
z
" clip-path="url(#p9f55f28f2a)" style="stroke: #000000; stroke-linecap: round"/>
   </g>
   <g id="patch_47">
    <path d="M 351.184194 198.232115 
Q 369.739938 178.481815 387.530139 159.546341 
" clip-path="url(#p9f55f28f2a)" style="fill: none; stroke: #000000; stroke-linecap: round"/>
    <path d="M 383.33364 161.092108 
L 387.530139 159.546341 
L 386.248853 163.831001 
z
" clip-path="url(#p9f55f28f2a)" style="stroke: #000000; stroke-linecap: round"/>
   </g>
   <g id="patch_48">
    <path d="M 295.550959 288.848353 
Q 286.862698 259.417645 278.490987 231.059223 
" clip-path="url(#p9f55f28f2a)" style="fill: none; stroke: #000000; stroke-linecap: round"/>
    <path d="M 277.705349 235.46181 
L 278.490987 231.059223 
L 281.541674 234.329286 
z
" clip-path="url(#p9f55f28f2a)" style="stroke: #000000; stroke-linecap: round"/>
   </g>
   <g id="patch_49">
    <path d="M 261.1109 262.148766 
Q 268.946252 246.009494 276.293319 230.875994 
" clip-path="url(#p9f55f28f2a)" style="fill: none; stroke: #000000; stroke-linecap: round"/>
    <path d="M 272.747195 233.600881 
L 276.293319 230.875994 
L 276.345554 235.347825 
z
" clip-path="url(#p9f55f28f2a)" style="stroke: #000000; stroke-linecap: round"/>
   </g>
   <g id="patch_50">
    <path d="M 335.542897 246.630848 
Q 307.505466 237.674708 280.533051 229.058772 
" clip-path="url(#p9f55f28f2a)" style="fill: none; stroke: #000000; stroke-linecap: round"/>
    <path d="M 283.734797 232.181083 
L 280.533051 229.058772 
L 284.951947 228.370762 
z
" clip-path="url(#p9f55f28f2a)" style="stroke: #000000; stroke-linecap: round"/>
   </g>
   <g id="patch_51">
    <path d="M 260.778789 168.006783 
Q 268.940857 197.134598 276.801255 225.185846 
" clip-path="url(#p9f55f28f2a)" style="fill: none; stroke: #000000; stroke-linecap: round"/>
    <path d="M 277.647786 220.794561 
L 276.801255 225.185846 
L 273.796145 221.873851 
z
" clip-path="url(#p9f55f28f2a)" style="stroke: #000000; stroke-linecap: round"/>
   </g>
   <g id="patch_52">
    <path d="M 259.657653 164.301922 
Q 250.39201 135.8204 241.472244 108.402066 
" clip-path="url(#p9f55f28f2a)" style="fill: none; stroke: #000000; stroke-linecap: round"/>
    <path d="M 240.807805 112.824568 
L 241.472244 108.402066 
L 244.611582 111.587118 
z
" clip-path="url(#p9f55f28f2a)" style="stroke: #000000; stroke-linecap: round"/>
   </g>
   <g id="patch_53">
    <path d="M 241.125839 107.337255 
Q 250.391482 135.818777 259.311247 163.237111 
" clip-path="url(#p9f55f28f2a)" style="fill: none; stroke: #000000; stroke-linecap: round"/>
    <path d="M 259.975686 158.814609 
L 259.311247 163.237111 
L 256.171909 160.052058 
z
" clip-path="url(#p9f55f28f2a)" style="stroke: #000000; stroke-linecap: round"/>
   </g>
   <g id="patch_54">
    <path d="M 238.978598 291.001578 
Q 257.796485 260.389034 276.028878 230.728959 
" clip-path="url(#p9f55f28f2a)" style="fill: none; stroke: #000000; stroke-linecap: round"/>
    <path d="M 272.230323 233.089253 
L 276.028878 230.728959 
L 275.63798 235.183979 
z
" clip-path="url(#p9f55f28f2a)" style="stroke: #000000; stroke-linecap: round"/>
   </g>
   <g id="patch_55">
    <path d="M 236.2493 293.552642 
Q 216.114474 304.130952 196.9694 314.189273 
" clip-path="url(#p9f55f28f2a)" style="fill: none; stroke: #000000; stroke-linecap: round"/>
    <path d="M 201.440634 314.099423 
L 196.9694 314.189273 
L 199.58026 310.558377 
z
" clip-path="url(#p9f55f28f2a)" style="stroke: #000000; stroke-linecap: round"/>
   </g>
   <g id="PathCollection_1">
    <defs>
     <path id="C0_0_cef93c9b45" d="M 0 1.936492 
C 0.513564 1.936492 1.006162 1.732451 1.369306 1.369306 
C 1.732451 1.006162 1.936492 0.513564 1.936492 -0 
C 1.936492 -0.513564 1.732451 -1.006162 1.369306 -1.369306 
C 1.006162 -1.732451 0.513564 -1.936492 0 -1.936492 
C -0.513564 -1.936492 -1.006162 -1.732451 -1.369306 -1.369306 
C -1.732451 -1.006162 -1.936492 -0.513564 -1.936492 0 
C -1.936492 0.513564 -1.732451 1.006162 -1.369306 1.369306 
C -1.006162 1.732451 -0.513564 1.936492 0 1.936492 
z
"/>
    </defs>
    <g clip-path="url(#p9f55f28f2a)">
     <use xlink:href="#C0_0_cef93c9b45" x="163.222117" y="205.325813" style="fill: #ff0000; stroke: #ff0000"/>
    </g>
    <g clip-path="url(#p9f55f28f2a)">
     <use xlink:href="#C0_0_cef93c9b45" x="185.131852" y="143.543531" style="stroke: #000000"/>
    </g>
    <g clip-path="url(#p9f55f28f2a)">
     <use xlink:href="#C0_0_cef93c9b45" x="326.849269" y="277.144775" style="fill: #ff0000; stroke: #ff0000"/>
    </g>
    <g clip-path="url(#p9f55f28f2a)">
     <use xlink:href="#C0_0_cef93c9b45" x="135.012502" y="300.091085" style="fill: #ff0000; stroke: #ff0000"/>
    </g>
    <g clip-path="url(#p9f55f28f2a)">
     <use xlink:href="#C0_0_cef93c9b45" x="420.813223" y="89.521712" style="fill: #ff0000; stroke: #ff0000"/>
    </g>
    <g clip-path="url(#p9f55f28f2a)">
     <use xlink:href="#C0_0_cef93c9b45" x="357.44595" y="112.546712" style="stroke: #000000"/>
    </g>
    <g clip-path="url(#p9f55f28f2a)">
     <use xlink:href="#C0_0_cef93c9b45" x="143.368659" y="105.141732" style="stroke: #000000"/>
    </g>
    <g clip-path="url(#p9f55f28f2a)">
     <use xlink:href="#C0_0_cef93c9b45" x="268.555821" y="56.550345" style="stroke: #000000"/>
    </g>
    <g clip-path="url(#p9f55f28f2a)">
     <use xlink:href="#C0_0_cef93c9b45" x="302.93337" y="73.08896" style="fill: #ff0000; stroke: #ff0000"/>
    </g>
    <g clip-path="url(#p9f55f28f2a)">
     <use xlink:href="#C0_0_cef93c9b45" x="97.933463" y="45.984537" style="stroke: #000000"/>
    </g>
    <g clip-path="url(#p9f55f28f2a)">
     <use xlink:href="#C0_0_cef93c9b45" x="262.51154" y="121.632973" style="fill: #ff0000; stroke: #ff0000"/>
    </g>
    <g clip-path="url(#p9f55f28f2a)">
     <use xlink:href="#C0_0_cef93c9b45" x="277.626327" y="228.130262" style="fill: #ff0000; stroke: #ff0000"/>
    </g>
    <g clip-path="url(#p9f55f28f2a)">
     <use xlink:href="#C0_0_cef93c9b45" x="39.986777" y="29.990083" style="stroke: #000000"/>
    </g>
    <g clip-path="url(#p9f55f28f2a)">
     <use xlink:href="#C0_0_cef93c9b45" x="172.992175" y="77.010252" style="fill: #ff0000; stroke: #ff0000"/>
    </g>
    <g clip-path="url(#p9f55f28f2a)">
     <use xlink:href="#C0_0_cef93c9b45" x="194.265337" y="315.609917" style="fill: #ff0000; stroke: #ff0000"/>
    </g>
    <g clip-path="url(#p9f55f28f2a)">
     <use xlink:href="#C0_0_cef93c9b45" x="190.332306" y="262.801811" style="fill: #ff0000; stroke: #ff0000"/>
    </g>
    <g clip-path="url(#p9f55f28f2a)">
     <use xlink:href="#C0_0_cef93c9b45" x="389.621177" y="157.32069" style="fill: #ff0000; stroke: #ff0000"/>
    </g>
    <g clip-path="url(#p9f55f28f2a)">
     <use xlink:href="#C0_0_cef93c9b45" x="349.856605" y="199.64517" style="stroke: #000000"/>
    </g>
    <g clip-path="url(#p9f55f28f2a)">
     <use xlink:href="#C0_0_cef93c9b45" x="296.100075" y="290.708434" style="fill: #ff0000; stroke: #ff0000"/>
    </g>
    <g clip-path="url(#p9f55f28f2a)">
     <use xlink:href="#C0_0_cef93c9b45" x="260.265313" y="263.890506" style="fill: #ff0000; stroke: #ff0000"/>
    </g>
    <g clip-path="url(#p9f55f28f2a)">
     <use xlink:href="#C0_0_cef93c9b45" x="337.384818" y="247.219222" style="fill: #ff0000; stroke: #ff0000"/>
    </g>
    <g clip-path="url(#p9f55f28f2a)">
     <use xlink:href="#C0_0_cef93c9b45" x="260.256113" y="166.141521" style="fill: #ff0000; stroke: #ff0000"/>
    </g>
    <g clip-path="url(#p9f55f28f2a)">
     <use xlink:href="#C0_0_cef93c9b45" x="240.527378" y="105.497656" style="stroke: #000000"/>
    </g>
    <g clip-path="url(#p9f55f28f2a)">
     <use xlink:href="#C0_0_cef93c9b45" x="237.964292" y="292.65163" style="fill: #ff0000; stroke: #ff0000"/>
    </g>
   </g>
   <g id="text_1">
    <g clip-path="url(#p9f55f28f2a)">
     <!-- 0 -->
     <g transform="translate(160.040867 208.085188) scale(0.1 -0.1)">
      <defs>
       <path id="DejaVuSans-30" d="M 2034 4250 
Q 1547 4250 1301 3770 
Q 1056 3291 1056 2328 
Q 1056 1369 1301 889 
Q 1547 409 2034 409 
Q 2525 409 2770 889 
Q 3016 1369 3016 2328 
Q 3016 3291 2770 3770 
Q 2525 4250 2034 4250 
z
M 2034 4750 
Q 2819 4750 3233 4129 
Q 3647 3509 3647 2328 
Q 3647 1150 3233 529 
Q 2819 -91 2034 -91 
Q 1250 -91 836 529 
Q 422 1150 422 2328 
Q 422 3509 836 4129 
Q 1250 4750 2034 4750 
z
" transform="scale(0.015625)"/>
      </defs>
      <use xlink:href="#DejaVuSans-30"/>
     </g>
    </g>
   </g>
   <g id="text_2">
    <g clip-path="url(#p9f55f28f2a)">
     <!-- 1 -->
     <g transform="translate(181.950602 146.302906) scale(0.1 -0.1)">
      <defs>
       <path id="DejaVuSans-31" d="M 794 531 
L 1825 531 
L 1825 4091 
L 703 3866 
L 703 4441 
L 1819 4666 
L 2450 4666 
L 2450 531 
L 3481 531 
L 3481 0 
L 794 0 
L 794 531 
z
" transform="scale(0.015625)"/>
      </defs>
      <use xlink:href="#DejaVuSans-31"/>
     </g>
    </g>
   </g>
   <g id="text_3">
    <g clip-path="url(#p9f55f28f2a)">
     <!-- 2 -->
     <g transform="translate(323.668019 279.90415) scale(0.1 -0.1)">
      <defs>
       <path id="DejaVuSans-32" d="M 1228 531 
L 3431 531 
L 3431 0 
L 469 0 
L 469 531 
Q 828 903 1448 1529 
Q 2069 2156 2228 2338 
Q 2531 2678 2651 2914 
Q 2772 3150 2772 3378 
Q 2772 3750 2511 3984 
Q 2250 4219 1831 4219 
Q 1534 4219 1204 4116 
Q 875 4013 500 3803 
L 500 4441 
Q 881 4594 1212 4672 
Q 1544 4750 1819 4750 
Q 2544 4750 2975 4387 
Q 3406 4025 3406 3419 
Q 3406 3131 3298 2873 
Q 3191 2616 2906 2266 
Q 2828 2175 2409 1742 
Q 1991 1309 1228 531 
z
" transform="scale(0.015625)"/>
      </defs>
      <use xlink:href="#DejaVuSans-32"/>
     </g>
    </g>
   </g>
   <g id="text_4">
    <g clip-path="url(#p9f55f28f2a)">
     <!-- 3 -->
     <g transform="translate(131.831252 302.85046) scale(0.1 -0.1)">
      <defs>
       <path id="DejaVuSans-33" d="M 2597 2516 
Q 3050 2419 3304 2112 
Q 3559 1806 3559 1356 
Q 3559 666 3084 287 
Q 2609 -91 1734 -91 
Q 1441 -91 1130 -33 
Q 819 25 488 141 
L 488 750 
Q 750 597 1062 519 
Q 1375 441 1716 441 
Q 2309 441 2620 675 
Q 2931 909 2931 1356 
Q 2931 1769 2642 2001 
Q 2353 2234 1838 2234 
L 1294 2234 
L 1294 2753 
L 1863 2753 
Q 2328 2753 2575 2939 
Q 2822 3125 2822 3475 
Q 2822 3834 2567 4026 
Q 2313 4219 1838 4219 
Q 1578 4219 1281 4162 
Q 984 4106 628 3988 
L 628 4550 
Q 988 4650 1302 4700 
Q 1616 4750 1894 4750 
Q 2613 4750 3031 4423 
Q 3450 4097 3450 3541 
Q 3450 3153 3228 2886 
Q 3006 2619 2597 2516 
z
" transform="scale(0.015625)"/>
      </defs>
      <use xlink:href="#DejaVuSans-33"/>
     </g>
    </g>
   </g>
   <g id="text_5">
    <g clip-path="url(#p9f55f28f2a)">
     <!-- 4 -->
     <g transform="translate(417.631973 92.281087) scale(0.1 -0.1)">
      <defs>
       <path id="DejaVuSans-34" d="M 2419 4116 
L 825 1625 
L 2419 1625 
L 2419 4116 
z
M 2253 4666 
L 3047 4666 
L 3047 1625 
L 3713 1625 
L 3713 1100 
L 3047 1100 
L 3047 0 
L 2419 0 
L 2419 1100 
L 313 1100 
L 313 1709 
L 2253 4666 
z
" transform="scale(0.015625)"/>
      </defs>
      <use xlink:href="#DejaVuSans-34"/>
     </g>
    </g>
   </g>
   <g id="text_6">
    <g clip-path="url(#p9f55f28f2a)">
     <!-- 5 -->
     <g transform="translate(354.2647 115.306087) scale(0.1 -0.1)">
      <defs>
       <path id="DejaVuSans-35" d="M 691 4666 
L 3169 4666 
L 3169 4134 
L 1269 4134 
L 1269 2991 
Q 1406 3038 1543 3061 
Q 1681 3084 1819 3084 
Q 2600 3084 3056 2656 
Q 3513 2228 3513 1497 
Q 3513 744 3044 326 
Q 2575 -91 1722 -91 
Q 1428 -91 1123 -41 
Q 819 9 494 109 
L 494 744 
Q 775 591 1075 516 
Q 1375 441 1709 441 
Q 2250 441 2565 725 
Q 2881 1009 2881 1497 
Q 2881 1984 2565 2268 
Q 2250 2553 1709 2553 
Q 1456 2553 1204 2497 
Q 953 2441 691 2322 
L 691 4666 
z
" transform="scale(0.015625)"/>
      </defs>
      <use xlink:href="#DejaVuSans-35"/>
     </g>
    </g>
   </g>
   <g id="text_7">
    <g clip-path="url(#p9f55f28f2a)">
     <!-- 6 -->
     <g transform="translate(140.187409 107.901107) scale(0.1 -0.1)">
      <defs>
       <path id="DejaVuSans-36" d="M 2113 2584 
Q 1688 2584 1439 2293 
Q 1191 2003 1191 1497 
Q 1191 994 1439 701 
Q 1688 409 2113 409 
Q 2538 409 2786 701 
Q 3034 994 3034 1497 
Q 3034 2003 2786 2293 
Q 2538 2584 2113 2584 
z
M 3366 4563 
L 3366 3988 
Q 3128 4100 2886 4159 
Q 2644 4219 2406 4219 
Q 1781 4219 1451 3797 
Q 1122 3375 1075 2522 
Q 1259 2794 1537 2939 
Q 1816 3084 2150 3084 
Q 2853 3084 3261 2657 
Q 3669 2231 3669 1497 
Q 3669 778 3244 343 
Q 2819 -91 2113 -91 
Q 1303 -91 875 529 
Q 447 1150 447 2328 
Q 447 3434 972 4092 
Q 1497 4750 2381 4750 
Q 2619 4750 2861 4703 
Q 3103 4656 3366 4563 
z
" transform="scale(0.015625)"/>
      </defs>
      <use xlink:href="#DejaVuSans-36"/>
     </g>
    </g>
   </g>
   <g id="text_8">
    <g clip-path="url(#p9f55f28f2a)">
     <!-- 7 -->
     <g transform="translate(265.374571 59.30972) scale(0.1 -0.1)">
      <defs>
       <path id="DejaVuSans-37" d="M 525 4666 
L 3525 4666 
L 3525 4397 
L 1831 0 
L 1172 0 
L 2766 4134 
L 525 4134 
L 525 4666 
z
" transform="scale(0.015625)"/>
      </defs>
      <use xlink:href="#DejaVuSans-37"/>
     </g>
    </g>
   </g>
   <g id="text_9">
    <g clip-path="url(#p9f55f28f2a)">
     <!-- 8 -->
     <g transform="translate(299.75212 75.848335) scale(0.1 -0.1)">
      <defs>
       <path id="DejaVuSans-38" d="M 2034 2216 
Q 1584 2216 1326 1975 
Q 1069 1734 1069 1313 
Q 1069 891 1326 650 
Q 1584 409 2034 409 
Q 2484 409 2743 651 
Q 3003 894 3003 1313 
Q 3003 1734 2745 1975 
Q 2488 2216 2034 2216 
z
M 1403 2484 
Q 997 2584 770 2862 
Q 544 3141 544 3541 
Q 544 4100 942 4425 
Q 1341 4750 2034 4750 
Q 2731 4750 3128 4425 
Q 3525 4100 3525 3541 
Q 3525 3141 3298 2862 
Q 3072 2584 2669 2484 
Q 3125 2378 3379 2068 
Q 3634 1759 3634 1313 
Q 3634 634 3220 271 
Q 2806 -91 2034 -91 
Q 1263 -91 848 271 
Q 434 634 434 1313 
Q 434 1759 690 2068 
Q 947 2378 1403 2484 
z
M 1172 3481 
Q 1172 3119 1398 2916 
Q 1625 2713 2034 2713 
Q 2441 2713 2670 2916 
Q 2900 3119 2900 3481 
Q 2900 3844 2670 4047 
Q 2441 4250 2034 4250 
Q 1625 4250 1398 4047 
Q 1172 3844 1172 3481 
z
" transform="scale(0.015625)"/>
      </defs>
      <use xlink:href="#DejaVuSans-38"/>
     </g>
    </g>
   </g>
   <g id="text_10">
    <g clip-path="url(#p9f55f28f2a)">
     <!-- 9 -->
     <g transform="translate(94.752213 48.743912) scale(0.1 -0.1)">
      <defs>
       <path id="DejaVuSans-39" d="M 703 97 
L 703 672 
Q 941 559 1184 500 
Q 1428 441 1663 441 
Q 2288 441 2617 861 
Q 2947 1281 2994 2138 
Q 2813 1869 2534 1725 
Q 2256 1581 1919 1581 
Q 1219 1581 811 2004 
Q 403 2428 403 3163 
Q 403 3881 828 4315 
Q 1253 4750 1959 4750 
Q 2769 4750 3195 4129 
Q 3622 3509 3622 2328 
Q 3622 1225 3098 567 
Q 2575 -91 1691 -91 
Q 1453 -91 1209 -44 
Q 966 3 703 97 
z
M 1959 2075 
Q 2384 2075 2632 2365 
Q 2881 2656 2881 3163 
Q 2881 3666 2632 3958 
Q 2384 4250 1959 4250 
Q 1534 4250 1286 3958 
Q 1038 3666 1038 3163 
Q 1038 2656 1286 2365 
Q 1534 2075 1959 2075 
z
" transform="scale(0.015625)"/>
      </defs>
      <use xlink:href="#DejaVuSans-39"/>
     </g>
    </g>
   </g>
   <g id="text_11">
    <g clip-path="url(#p9f55f28f2a)">
     <!-- 10 -->
     <g transform="translate(256.14904 124.392348) scale(0.1 -0.1)">
      <use xlink:href="#DejaVuSans-31"/>
      <use xlink:href="#DejaVuSans-30" x="63.623047"/>
     </g>
    </g>
   </g>
   <g id="text_12">
    <g clip-path="url(#p9f55f28f2a)">
     <!-- 11 -->
     <g transform="translate(271.263827 230.889637) scale(0.1 -0.1)">
      <use xlink:href="#DejaVuSans-31"/>
      <use xlink:href="#DejaVuSans-31" x="63.623047"/>
     </g>
    </g>
   </g>
   <g id="text_13">
    <g clip-path="url(#p9f55f28f2a)">
     <!-- 12 -->
     <g transform="translate(33.624277 32.749458) scale(0.1 -0.1)">
      <use xlink:href="#DejaVuSans-31"/>
      <use xlink:href="#DejaVuSans-32" x="63.623047"/>
     </g>
    </g>
   </g>
   <g id="text_14">
    <g clip-path="url(#p9f55f28f2a)">
     <!-- 13 -->
     <g transform="translate(166.629675 79.769627) scale(0.1 -0.1)">
      <use xlink:href="#DejaVuSans-31"/>
      <use xlink:href="#DejaVuSans-33" x="63.623047"/>
     </g>
    </g>
   </g>
   <g id="text_15">
    <g clip-path="url(#p9f55f28f2a)">
     <!-- 14 -->
     <g transform="translate(187.902837 318.369292) scale(0.1 -0.1)">
      <use xlink:href="#DejaVuSans-31"/>
      <use xlink:href="#DejaVuSans-34" x="63.623047"/>
     </g>
    </g>
   </g>
   <g id="text_16">
    <g clip-path="url(#p9f55f28f2a)">
     <!-- 15 -->
     <g transform="translate(183.969806 265.561186) scale(0.1 -0.1)">
      <use xlink:href="#DejaVuSans-31"/>
      <use xlink:href="#DejaVuSans-35" x="63.623047"/>
     </g>
    </g>
   </g>
   <g id="text_17">
    <g clip-path="url(#p9f55f28f2a)">
     <!-- 16 -->
     <g transform="translate(383.258677 160.080065) scale(0.1 -0.1)">
      <use xlink:href="#DejaVuSans-31"/>
      <use xlink:href="#DejaVuSans-36" x="63.623047"/>
     </g>
    </g>
   </g>
   <g id="text_18">
    <g clip-path="url(#p9f55f28f2a)">
     <!-- 17 -->
     <g transform="translate(343.494105 202.404545) scale(0.1 -0.1)">
      <use xlink:href="#DejaVuSans-31"/>
      <use xlink:href="#DejaVuSans-37" x="63.623047"/>
     </g>
    </g>
   </g>
   <g id="text_19">
    <g clip-path="url(#p9f55f28f2a)">
     <!-- 18 -->
     <g transform="translate(289.737575 293.467809) scale(0.1 -0.1)">
      <use xlink:href="#DejaVuSans-31"/>
      <use xlink:href="#DejaVuSans-38" x="63.623047"/>
     </g>
    </g>
   </g>
   <g id="text_20">
    <g clip-path="url(#p9f55f28f2a)">
     <!-- 19 -->
     <g transform="translate(253.902813 266.649881) scale(0.1 -0.1)">
      <use xlink:href="#DejaVuSans-31"/>
      <use xlink:href="#DejaVuSans-39" x="63.623047"/>
     </g>
    </g>
   </g>
   <g id="text_21">
    <g clip-path="url(#p9f55f28f2a)">
     <!-- 20 -->
     <g transform="translate(331.022318 249.978597) scale(0.1 -0.1)">
      <use xlink:href="#DejaVuSans-32"/>
      <use xlink:href="#DejaVuSans-30" x="63.623047"/>
     </g>
    </g>
   </g>
   <g id="text_22">
    <g clip-path="url(#p9f55f28f2a)">
     <!-- 21 -->
     <g transform="translate(253.893613 168.900896) scale(0.1 -0.1)">
      <use xlink:href="#DejaVuSans-32"/>
      <use xlink:href="#DejaVuSans-31" x="63.623047"/>
     </g>
    </g>
   </g>
   <g id="text_23">
    <g clip-path="url(#p9f55f28f2a)">
     <!-- 22 -->
     <g transform="translate(234.164878 108.257031) scale(0.1 -0.1)">
      <use xlink:href="#DejaVuSans-32"/>
      <use xlink:href="#DejaVuSans-32" x="63.623047"/>
     </g>
    </g>
   </g>
   <g id="text_24">
    <g clip-path="url(#p9f55f28f2a)">
     <!-- 23 -->
     <g transform="translate(231.601792 295.411005) scale(0.1 -0.1)">
      <use xlink:href="#DejaVuSans-32"/>
      <use xlink:href="#DejaVuSans-33" x="63.623047"/>
     </g>
    </g>
   </g>
  </g>
 </g>
 <defs>
  <clipPath id="p9f55f28f2a">
   <rect x="0" y="0" width="460.8" height="345.6"/>
  </clipPath>
 </defs>
</svg>
