<?xml version="1.0" encoding="utf-8" standalone="no"?>
<!DOCTYPE svg PUBLIC "-//W3C//DTD SVG 1.1//EN"
  "http://www.w3.org/Graphics/SVG/1.1/DTD/svg11.dtd">
<svg xmlns:xlink="http://www.w3.org/1999/xlink" width="460.8pt" height="345.6pt" viewBox="0 0 460.8 345.6" xmlns="http://www.w3.org/2000/svg" version="1.1">
 <metadata>
  <rdf:RDF xmlns:dc="http://purl.org/dc/elements/1.1/" xmlns:cc="http://creativecommons.org/ns#" xmlns:rdf="http://www.w3.org/1999/02/22-rdf-syntax-ns#">
   <cc:Work>
    <dc:type rdf:resource="http://purl.org/dc/dcmitype/StillImage"/>
    <dc:date>2024-02-07T14:35:22.132635</dc:date>
    <dc:format>image/svg+xml</dc:format>
    <dc:creator>
     <cc:Agent>
      <dc:title>Matplotlib v3.8.0, https://matplotlib.org/</dc:title>
     </cc:Agent>
    </dc:creator>
   </cc:Work>
  </rdf:RDF>
 </metadata>
 <defs>
  <style type="text/css">*{stroke-linejoin: round; stroke-linecap: butt}</style>
 </defs>
 <g id="figure_1">
  <g id="patch_1">
   <path d="M 0 345.6 
L 460.8 345.6 
L 460.8 0 
L 0 0 
z
" style="fill: #ffffff"/>
  </g>
  <g id="axes_1">
   <g id="patch_2">
    <path d="M 232.183071 173.770485 
Q 325.61308 215.53473 418.022391 256.842711 
" clip-path="url(#p35290ead98)" style="fill: none; stroke: #000000; stroke-linecap: round"/>
    <path d="M 415.18682 253.384455 
L 418.022391 256.842711 
L 413.554443 257.036214 
z
" clip-path="url(#p35290ead98)" style="stroke: #000000; stroke-linecap: round"/>
   </g>
   <g id="patch_3">
    <path d="M 228.644202 172.190482 
Q 135.200685 130.521104 42.778276 89.307071 
" clip-path="url(#p35290ead98)" style="fill: none; stroke: #000000; stroke-linecap: round"/>
    <path d="M 45.616959 92.762772 
L 42.778276 89.307071 
L 47.246047 89.109545 
z
" clip-path="url(#p35290ead98)" style="stroke: #000000; stroke-linecap: round"/>
   </g>
   <g id="patch_4">
    <path d="M 231.614896 171.458838 
Q 286.883737 101.483223 341.459601 32.384981 
" clip-path="url(#p35290ead98)" style="fill: none; stroke: #000000; stroke-linecap: round"/>
    <path d="M 337.410842 34.284335 
L 341.459601 32.384981 
L 340.549829 36.763602 
z
" clip-path="url(#p35290ead98)" style="stroke: #000000; stroke-linecap: round"/>
   </g>
   <g id="patch_5">
    <path d="M 229.206155 174.49216 
Q 173.477639 244.294158 118.446689 313.222429 
" clip-path="url(#p35290ead98)" style="fill: none; stroke: #000000; stroke-linecap: round"/>
    <path d="M 122.505352 311.344331 
L 118.446689 313.222429 
L 119.379408 308.84864 
z
" clip-path="url(#p35290ead98)" style="stroke: #000000; stroke-linecap: round"/>
   </g>
   <g id="patch_6">
    <path d="M 419.043917 257.299345 
Q 325.613908 215.5351 233.204596 174.227118 
" clip-path="url(#p35290ead98)" style="fill: none; stroke: #000000; stroke-linecap: round"/>
    <path d="M 236.040167 177.685374 
L 233.204596 174.227118 
L 237.672544 174.033615 
z
" clip-path="url(#p35290ead98)" style="stroke: #000000; stroke-linecap: round"/>
   </g>
   <g id="patch_7">
    <path d="M 41.756339 88.851357 
Q 135.199856 130.520735 227.622265 171.734769 
" clip-path="url(#p35290ead98)" style="fill: none; stroke: #000000; stroke-linecap: round"/>
    <path d="M 224.783582 168.279067 
L 227.622265 171.734769 
L 223.154494 171.932295 
z
" clip-path="url(#p35290ead98)" style="stroke: #000000; stroke-linecap: round"/>
   </g>
   <g id="patch_8">
    <path d="M 342.150033 31.51083 
Q 286.881192 101.486445 232.305327 170.584686 
" clip-path="url(#p35290ead98)" style="fill: none; stroke: #000000; stroke-linecap: round"/>
    <path d="M 236.354087 168.685332 
L 232.305327 170.584686 
L 233.2151 166.206066 
z
" clip-path="url(#p35290ead98)" style="stroke: #000000; stroke-linecap: round"/>
   </g>
   <g id="patch_9">
    <path d="M 117.748176 314.097343 
Q 173.476692 244.295344 228.507641 175.367073 
" clip-path="url(#p35290ead98)" style="fill: none; stroke: #000000; stroke-linecap: round"/>
    <path d="M 224.448978 177.245172 
L 228.507641 175.367073 
L 227.574922 179.740863 
z
" clip-path="url(#p35290ead98)" style="stroke: #000000; stroke-linecap: round"/>
   </g>
   <g id="PathCollection_1">
    <defs>
     <path id="C0_0_0c2af539f3" d="M 0 1.936492 
C 0.513564 1.936492 1.006162 1.732451 1.369306 1.369306 
C 1.732451 1.006162 1.936492 0.513564 1.936492 -0 
C 1.936492 -0.513564 1.732451 -1.006162 1.369306 -1.369306 
C 1.006162 -1.732451 0.513564 -1.936492 0 -1.936492 
C -0.513564 -1.936492 -1.006162 -1.732451 -1.369306 -1.369306 
C -1.732451 -1.006162 -1.936492 -0.513564 -1.936492 0 
C -1.936492 0.513564 -1.732451 1.006162 -1.369306 1.369306 
C -1.006162 1.732451 -0.513564 1.936492 0 1.936492 
z
"/>
    </defs>
    <g clip-path="url(#p35290ead98)">
     <use xlink:href="#C0_0_0c2af539f3" x="230.413764" y="172.979585" style="fill: #ff0000; stroke: #ff0000"/>
    </g>
    <g clip-path="url(#p35290ead98)">
     <use xlink:href="#C0_0_0c2af539f3" x="420.813223" y="258.090244" style="fill: #ff0000; stroke: #ff0000"/>
    </g>
    <g clip-path="url(#p35290ead98)">
     <use xlink:href="#C0_0_0c2af539f3" x="39.986777" y="88.062254" style="fill: #ff0000; stroke: #ff0000"/>
    </g>
    <g clip-path="url(#p35290ead98)">
     <use xlink:href="#C0_0_0c2af539f3" x="343.351164" y="29.990083" style="fill: #ff0000; stroke: #ff0000"/>
    </g>
    <g clip-path="url(#p35290ead98)">
     <use xlink:href="#C0_0_0c2af539f3" x="116.540566" y="315.609917" style="fill: #ff0000; stroke: #ff0000"/>
    </g>
   </g>
   <g id="text_1">
    <g clip-path="url(#p35290ead98)">
     <!-- 0 -->
     <g transform="translate(227.232514 175.73896) scale(0.1 -0.1)">
      <defs>
       <path id="DejaVuSans-30" d="M 2034 4250 
Q 1547 4250 1301 3770 
Q 1056 3291 1056 2328 
Q 1056 1369 1301 889 
Q 1547 409 2034 409 
Q 2525 409 2770 889 
Q 3016 1369 3016 2328 
Q 3016 3291 2770 3770 
Q 2525 4250 2034 4250 
z
M 2034 4750 
Q 2819 4750 3233 4129 
Q 3647 3509 3647 2328 
Q 3647 1150 3233 529 
Q 2819 -91 2034 -91 
Q 1250 -91 836 529 
Q 422 1150 422 2328 
Q 422 3509 836 4129 
Q 1250 4750 2034 4750 
z
" transform="scale(0.015625)"/>
      </defs>
      <use xlink:href="#DejaVuSans-30"/>
     </g>
    </g>
   </g>
   <g id="text_2">
    <g clip-path="url(#p35290ead98)">
     <!-- 1 -->
     <g transform="translate(417.631973 260.849619) scale(0.1 -0.1)">
      <defs>
       <path id="DejaVuSans-31" d="M 794 531 
L 1825 531 
L 1825 4091 
L 703 3866 
L 703 4441 
L 1819 4666 
L 2450 4666 
L 2450 531 
L 3481 531 
L 3481 0 
L 794 0 
L 794 531 
z
" transform="scale(0.015625)"/>
      </defs>
      <use xlink:href="#DejaVuSans-31"/>
     </g>
    </g>
   </g>
   <g id="text_3">
    <g clip-path="url(#p35290ead98)">
     <!-- 2 -->
     <g transform="translate(36.805527 90.821629) scale(0.1 -0.1)">
      <defs>
       <path id="DejaVuSans-32" d="M 1228 531 
L 3431 531 
L 3431 0 
L 469 0 
L 469 531 
Q 828 903 1448 1529 
Q 2069 2156 2228 2338 
Q 2531 2678 2651 2914 
Q 2772 3150 2772 3378 
Q 2772 3750 2511 3984 
Q 2250 4219 1831 4219 
Q 1534 4219 1204 4116 
Q 875 4013 500 3803 
L 500 4441 
Q 881 4594 1212 4672 
Q 1544 4750 1819 4750 
Q 2544 4750 2975 4387 
Q 3406 4025 3406 3419 
Q 3406 3131 3298 2873 
Q 3191 2616 2906 2266 
Q 2828 2175 2409 1742 
Q 1991 1309 1228 531 
z
" transform="scale(0.015625)"/>
      </defs>
      <use xlink:href="#DejaVuSans-32"/>
     </g>
    </g>
   </g>
   <g id="text_4">
    <g clip-path="url(#p35290ead98)">
     <!-- 3 -->
     <g transform="translate(340.169914 32.749458) scale(0.1 -0.1)">
      <defs>
       <path id="DejaVuSans-33" d="M 2597 2516 
Q 3050 2419 3304 2112 
Q 3559 1806 3559 1356 
Q 3559 666 3084 287 
Q 2609 -91 1734 -91 
Q 1441 -91 1130 -33 
Q 819 25 488 141 
L 488 750 
Q 750 597 1062 519 
Q 1375 441 1716 441 
Q 2309 441 2620 675 
Q 2931 909 2931 1356 
Q 2931 1769 2642 2001 
Q 2353 2234 1838 2234 
L 1294 2234 
L 1294 2753 
L 1863 2753 
Q 2328 2753 2575 2939 
Q 2822 3125 2822 3475 
Q 2822 3834 2567 4026 
Q 2313 4219 1838 4219 
Q 1578 4219 1281 4162 
Q 984 4106 628 3988 
L 628 4550 
Q 988 4650 1302 4700 
Q 1616 4750 1894 4750 
Q 2613 4750 3031 4423 
Q 3450 4097 3450 3541 
Q 3450 3153 3228 2886 
Q 3006 2619 2597 2516 
z
" transform="scale(0.015625)"/>
      </defs>
      <use xlink:href="#DejaVuSans-33"/>
     </g>
    </g>
   </g>
   <g id="text_5">
    <g clip-path="url(#p35290ead98)">
     <!-- 4 -->
     <g transform="translate(113.359316 318.369292) scale(0.1 -0.1)">
      <defs>
       <path id="DejaVuSans-34" d="M 2419 4116 
L 825 1625 
L 2419 1625 
L 2419 4116 
z
M 2253 4666 
L 3047 4666 
L 3047 1625 
L 3713 1625 
L 3713 1100 
L 3047 1100 
L 3047 0 
L 2419 0 
L 2419 1100 
L 313 1100 
L 313 1709 
L 2253 4666 
z
" transform="scale(0.015625)"/>
      </defs>
      <use xlink:href="#DejaVuSans-34"/>
     </g>
    </g>
   </g>
  </g>
 </g>
 <defs>
  <clipPath id="p35290ead98">
   <rect x="0" y="0" width="460.8" height="345.6"/>
  </clipPath>
 </defs>
</svg>
