<?xml version="1.0" encoding="utf-8" standalone="no"?>
<!DOCTYPE svg PUBLIC "-//W3C//DTD SVG 1.1//EN"
  "http://www.w3.org/Graphics/SVG/1.1/DTD/svg11.dtd">
<svg xmlns:xlink="http://www.w3.org/1999/xlink" width="460.8pt" height="345.6pt" viewBox="0 0 460.8 345.6" xmlns="http://www.w3.org/2000/svg" version="1.1">
 <metadata>
  <rdf:RDF xmlns:dc="http://purl.org/dc/elements/1.1/" xmlns:cc="http://creativecommons.org/ns#" xmlns:rdf="http://www.w3.org/1999/02/22-rdf-syntax-ns#">
   <cc:Work>
    <dc:type rdf:resource="http://purl.org/dc/dcmitype/StillImage"/>
    <dc:date>2024-02-07T14:34:25.739053</dc:date>
    <dc:format>image/svg+xml</dc:format>
    <dc:creator>
     <cc:Agent>
      <dc:title>Matplotlib v3.8.0, https://matplotlib.org/</dc:title>
     </cc:Agent>
    </dc:creator>
   </cc:Work>
  </rdf:RDF>
 </metadata>
 <defs>
  <style type="text/css">*{stroke-linejoin: round; stroke-linecap: butt}</style>
 </defs>
 <g id="figure_1">
  <g id="patch_1">
   <path d="M 0 345.6 
L 460.8 345.6 
L 460.8 0 
L 0 0 
z
" style="fill: #ffffff"/>
  </g>
  <g id="axes_1">
   <g id="patch_2">
    <path d="M 135.573361 110.321015 
Q 103.721858 82.266803 72.709354 54.951566 
" clip-path="url(#pa278bf37cd)" style="fill: none; stroke: #000000; stroke-linecap: round"/>
    <path d="M 74.389128 59.096245 
L 72.709354 54.951566 
L 77.032961 56.094554 
z
" clip-path="url(#pa278bf37cd)" style="stroke: #000000; stroke-linecap: round"/>
   </g>
   <g id="patch_3">
    <path d="M 135.116675 111.298819 
Q 88.508309 103.921162 43.004227 96.718302 
" clip-path="url(#pa278bf37cd)" style="fill: none; stroke: #000000; stroke-linecap: round"/>
    <path d="M 46.64235 99.319083 
L 43.004227 96.718302 
L 47.267726 95.368272 
z
" clip-path="url(#pa278bf37cd)" style="stroke: #000000; stroke-linecap: round"/>
   </g>
   <g id="patch_4">
    <path d="M 138.474157 112.889816 
Q 172.158224 142.880072 205.007263 172.126869 
" clip-path="url(#pa278bf37cd)" style="fill: none; stroke: #000000; stroke-linecap: round"/>
    <path d="M 203.349716 167.973252 
L 205.007263 172.126869 
L 200.689841 170.960736 
z
" clip-path="url(#pa278bf37cd)" style="stroke: #000000; stroke-linecap: round"/>
   </g>
   <g id="patch_5">
    <path d="M 138.474157 112.889816 
Q 172.158224 142.880072 205.007263 172.126869 
" clip-path="url(#pa278bf37cd)" style="fill: none; stroke: #000000; stroke-linecap: round"/>
    <path d="M 203.349716 167.973252 
L 205.007263 172.126869 
L 200.689841 170.960736 
z
" clip-path="url(#pa278bf37cd)" style="stroke: #000000; stroke-linecap: round"/>
   </g>
   <g id="patch_6">
    <path d="M 138.945559 111.354024 
Q 186.845367 105.184251 233.636302 99.157307 
" clip-path="url(#pa278bf37cd)" style="fill: none; stroke: #000000; stroke-linecap: round"/>
    <path d="M 229.413576 97.684696 
L 233.636302 99.157307 
L 229.924577 101.651922 
z
" clip-path="url(#pa278bf37cd)" style="stroke: #000000; stroke-linecap: round"/>
   </g>
   <g id="patch_7">
    <path d="M 71.870255 54.212504 
Q 103.721758 82.266715 134.734262 109.581952 
" clip-path="url(#pa278bf37cd)" style="fill: none; stroke: #000000; stroke-linecap: round"/>
    <path d="M 133.054488 105.437274 
L 134.734262 109.581952 
L 130.410655 108.438964 
z
" clip-path="url(#pa278bf37cd)" style="stroke: #000000; stroke-linecap: round"/>
   </g>
   <g id="patch_8">
    <path d="M 41.896897 96.543022 
Q 88.505263 103.92068 134.009344 111.123539 
" clip-path="url(#pa278bf37cd)" style="fill: none; stroke: #000000; stroke-linecap: round"/>
    <path d="M 130.371221 108.522758 
L 134.009344 111.123539 
L 129.745846 112.473569 
z
" clip-path="url(#pa278bf37cd)" style="stroke: #000000; stroke-linecap: round"/>
   </g>
   <g id="patch_9">
    <path d="M 205.841877 172.869959 
Q 172.15781 142.879703 139.30877 113.632905 
" clip-path="url(#pa278bf37cd)" style="fill: none; stroke: #000000; stroke-linecap: round"/>
    <path d="M 140.966317 117.786523 
L 139.30877 113.632905 
L 143.626192 114.799038 
z
" clip-path="url(#pa278bf37cd)" style="stroke: #000000; stroke-linecap: round"/>
   </g>
   <g id="patch_10">
    <path d="M 205.841877 172.869959 
Q 172.15781 142.879703 139.30877 113.632905 
" clip-path="url(#pa278bf37cd)" style="fill: none; stroke: #000000; stroke-linecap: round"/>
    <path d="M 140.966317 117.786523 
L 139.30877 113.632905 
L 143.626192 114.799038 
z
" clip-path="url(#pa278bf37cd)" style="stroke: #000000; stroke-linecap: round"/>
   </g>
   <g id="patch_11">
    <path d="M 209.031378 173.321865 
Q 266.13995 145.893024 322.240705 118.948231 
" clip-path="url(#pa278bf37cd)" style="fill: none; stroke: #000000; stroke-linecap: round"/>
    <path d="M 317.769134 118.877173 
L 322.240705 118.948231 
L 319.500916 122.482853 
z
" clip-path="url(#pa278bf37cd)" style="stroke: #000000; stroke-linecap: round"/>
   </g>
   <g id="patch_12">
    <path d="M 205.990958 172.724621 
Q 187.108575 151.868596 168.976573 131.841382 
" clip-path="url(#pa278bf37cd)" style="fill: none; stroke: #000000; stroke-linecap: round"/>
    <path d="M 170.17859 136.148952 
L 168.976573 131.841382 
L 173.143839 133.46431 
z
" clip-path="url(#pa278bf37cd)" style="stroke: #000000; stroke-linecap: round"/>
   </g>
   <g id="patch_13">
    <path d="M 206.753961 176.023976 
Q 197.300598 208.967754 188.155614 240.836868 
" clip-path="url(#pa278bf37cd)" style="fill: none; stroke: #000000; stroke-linecap: round"/>
    <path d="M 191.181323 237.543681 
L 188.155614 240.836868 
L 187.336489 236.440388 
z
" clip-path="url(#pa278bf37cd)" style="stroke: #000000; stroke-linecap: round"/>
   </g>
   <g id="patch_14">
    <path d="M 205.354983 174.157718 
Q 159.054358 174.136562 113.871766 174.115916 
" clip-path="url(#pa278bf37cd)" style="fill: none; stroke: #000000; stroke-linecap: round"/>
    <path d="M 117.870852 176.117744 
L 113.871766 174.115916 
L 117.87268 172.117744 
z
" clip-path="url(#pa278bf37cd)" style="stroke: #000000; stroke-linecap: round"/>
   </g>
   <g id="patch_15">
    <path d="M 205.921839 175.532697 
Q 174.487143 207.121313 143.841083 237.917432 
" clip-path="url(#pa278bf37cd)" style="fill: none; stroke: #000000; stroke-linecap: round"/>
    <path d="M 148.080257 236.492861 
L 143.841083 237.917432 
L 145.24493 233.67135 
z
" clip-path="url(#pa278bf37cd)" style="stroke: #000000; stroke-linecap: round"/>
   </g>
   <g id="patch_16">
    <path d="M 205.490743 174.881934 
Q 162.573164 192.142824 120.692869 208.986533 
" clip-path="url(#pa278bf37cd)" style="fill: none; stroke: #000000; stroke-linecap: round"/>
    <path d="M 125.150249 209.349527 
L 120.692869 208.986533 
L 123.657692 205.638425 
z
" clip-path="url(#pa278bf37cd)" style="stroke: #000000; stroke-linecap: round"/>
   </g>
   <g id="patch_17">
    <path d="M 207.993959 172.350191 
Q 221.980442 136.458933 235.560972 101.609405 
" clip-path="url(#pa278bf37cd)" style="fill: none; stroke: #000000; stroke-linecap: round"/>
    <path d="M 232.245088 104.610224 
L 235.560972 101.609405 
L 235.972096 106.062603 
z
" clip-path="url(#pa278bf37cd)" style="stroke: #000000; stroke-linecap: round"/>
   </g>
   <g id="patch_18">
    <path d="M 209.206904 174.410915 
Q 249.689001 179.737273 289.062618 184.917785 
" clip-path="url(#pa278bf37cd)" style="fill: none; stroke: #000000; stroke-linecap: round"/>
    <path d="M 285.357695 182.413079 
L 289.062618 184.917785 
L 284.8359 186.378899 
z
" clip-path="url(#pa278bf37cd)" style="stroke: #000000; stroke-linecap: round"/>
   </g>
   <g id="patch_19">
    <path d="M 209.206904 174.410915 
Q 249.689001 179.737273 289.062618 184.917785 
" clip-path="url(#pa278bf37cd)" style="fill: none; stroke: #000000; stroke-linecap: round"/>
    <path d="M 285.357695 182.413079 
L 289.062618 184.917785 
L 284.8359 186.378899 
z
" clip-path="url(#pa278bf37cd)" style="stroke: #000000; stroke-linecap: round"/>
   </g>
   <g id="patch_20">
    <path d="M 208.916292 173.111744 
Q 224.848089 162.861102 239.839656 153.215413 
" clip-path="url(#pa278bf37cd)" style="fill: none; stroke: #000000; stroke-linecap: round"/>
    <path d="M 235.393614 153.697818 
L 239.839656 153.215413 
L 237.557955 157.061689 
z
" clip-path="url(#pa278bf37cd)" style="stroke: #000000; stroke-linecap: round"/>
   </g>
   <g id="patch_21">
    <path d="M 208.557277 175.621411 
Q 234.660671 205.734276 260.031742 235.002332 
" clip-path="url(#pa278bf37cd)" style="fill: none; stroke: #000000; stroke-linecap: round"/>
    <path d="M 258.92294 230.669832 
L 260.031742 235.002332 
L 255.900461 233.289874 
z
" clip-path="url(#pa278bf37cd)" style="stroke: #000000; stroke-linecap: round"/>
   </g>
   <g id="patch_22">
    <path d="M 208.557277 175.621411 
Q 234.660671 205.734276 260.031742 235.002332 
" clip-path="url(#pa278bf37cd)" style="fill: none; stroke: #000000; stroke-linecap: round"/>
    <path d="M 258.92294 230.669832 
L 260.031742 235.002332 
L 255.900461 233.289874 
z
" clip-path="url(#pa278bf37cd)" style="stroke: #000000; stroke-linecap: round"/>
   </g>
   <g id="patch_23">
    <path d="M 168.225035 131.011292 
Q 187.107418 151.867317 205.23942 171.894531 
" clip-path="url(#pa278bf37cd)" style="fill: none; stroke: #000000; stroke-linecap: round"/>
    <path d="M 204.037403 167.586962 
L 205.23942 171.894531 
L 201.072154 170.271603 
z
" clip-path="url(#pa278bf37cd)" style="stroke: #000000; stroke-linecap: round"/>
   </g>
   <g id="patch_24">
    <path d="M 187.847337 241.911174 
Q 197.3007 208.967396 206.445684 177.098281 
" clip-path="url(#pa278bf37cd)" style="fill: none; stroke: #000000; stroke-linecap: round"/>
    <path d="M 203.419975 180.391469 
L 206.445684 177.098281 
L 207.264809 181.494761 
z
" clip-path="url(#pa278bf37cd)" style="stroke: #000000; stroke-linecap: round"/>
   </g>
   <g id="patch_25">
    <path d="M 378.708853 212.526609 
Q 336.323748 199.211642 295.005284 186.231753 
" clip-path="url(#pa278bf37cd)" style="fill: none; stroke: #000000; stroke-linecap: round"/>
    <path d="M 298.22201 189.338627 
L 295.005284 186.231753 
L 299.420819 185.522496 
z
" clip-path="url(#pa278bf37cd)" style="stroke: #000000; stroke-linecap: round"/>
   </g>
   <g id="patch_26">
    <path d="M 112.752124 174.115405 
Q 159.052749 174.136561 204.23534 174.157207 
" clip-path="url(#pa278bf37cd)" style="fill: none; stroke: #000000; stroke-linecap: round"/>
    <path d="M 200.236254 172.155379 
L 204.23534 174.157207 
L 200.234427 176.155379 
z
" clip-path="url(#pa278bf37cd)" style="stroke: #000000; stroke-linecap: round"/>
   </g>
   <g id="patch_27">
    <path d="M 143.053503 238.708868 
Q 174.4882 207.120251 205.13426 176.324133 
" clip-path="url(#pa278bf37cd)" style="fill: none; stroke: #000000; stroke-linecap: round"/>
    <path d="M 200.895086 177.748704 
L 205.13426 176.324133 
L 203.730412 180.570215 
z
" clip-path="url(#pa278bf37cd)" style="stroke: #000000; stroke-linecap: round"/>
   </g>
   <g id="patch_28">
    <path d="M 119.659664 209.402074 
Q 162.577243 192.141184 204.457537 175.297475 
" clip-path="url(#pa278bf37cd)" style="fill: none; stroke: #000000; stroke-linecap: round"/>
    <path d="M 200.000158 174.934481 
L 204.457537 175.297475 
L 201.492714 178.645583 
z
" clip-path="url(#pa278bf37cd)" style="stroke: #000000; stroke-linecap: round"/>
   </g>
   <g id="patch_29">
    <path d="M 217.712195 70.463564 
Q 229.779464 110.085335 241.520995 148.637576 
" clip-path="url(#pa278bf37cd)" style="fill: none; stroke: #000000; stroke-linecap: round"/>
    <path d="M 242.268833 144.228411 
L 241.520995 148.637576 
L 238.442366 145.393806 
z
" clip-path="url(#pa278bf37cd)" style="stroke: #000000; stroke-linecap: round"/>
   </g>
   <g id="patch_30">
    <path d="M 242.420723 313.731796 
Q 251.986019 276.461673 261.273382 240.274488 
" clip-path="url(#pa278bf37cd)" style="fill: none; stroke: #000000; stroke-linecap: round"/>
    <path d="M 258.3418 243.65174 
L 261.273382 240.274488 
L 262.216234 244.646105 
z
" clip-path="url(#pa278bf37cd)" style="stroke: #000000; stroke-linecap: round"/>
   </g>
   <g id="patch_31">
    <path d="M 290.173262 185.063916 
Q 249.691165 179.737558 210.317548 174.557047 
" clip-path="url(#pa278bf37cd)" style="fill: none; stroke: #000000; stroke-linecap: round"/>
    <path d="M 214.022471 177.061752 
L 210.317548 174.557047 
L 214.544266 173.095932 
z
" clip-path="url(#pa278bf37cd)" style="stroke: #000000; stroke-linecap: round"/>
   </g>
   <g id="patch_32">
    <path d="M 290.173262 185.063916 
Q 249.691165 179.737558 210.317548 174.557047 
" clip-path="url(#pa278bf37cd)" style="fill: none; stroke: #000000; stroke-linecap: round"/>
    <path d="M 214.022471 177.061752 
L 210.317548 174.557047 
L 214.544266 173.095932 
z
" clip-path="url(#pa278bf37cd)" style="stroke: #000000; stroke-linecap: round"/>
   </g>
   <g id="patch_33">
    <path d="M 293.940296 185.897194 
Q 336.325401 199.212161 377.643865 212.19205 
" clip-path="url(#pa278bf37cd)" style="fill: none; stroke: #000000; stroke-linecap: round"/>
    <path d="M 374.427139 209.085176 
L 377.643865 212.19205 
L 373.228329 212.901307 
z
" clip-path="url(#pa278bf37cd)" style="stroke: #000000; stroke-linecap: round"/>
   </g>
   <g id="patch_34">
    <path d="M 292.936377 183.576881 
Q 308.54118 151.473036 323.657218 120.37473 
" clip-path="url(#pa278bf37cd)" style="fill: none; stroke: #000000; stroke-linecap: round"/>
    <path d="M 320.109796 123.097926 
L 323.657218 120.37473 
L 323.707322 124.846585 
z
" clip-path="url(#pa278bf37cd)" style="stroke: #000000; stroke-linecap: round"/>
   </g>
   <g id="patch_35">
    <path d="M 291.120453 186.995042 
Q 277.060869 211.316567 263.560826 234.670147 
" clip-path="url(#pa278bf37cd)" style="fill: none; stroke: #000000; stroke-linecap: round"/>
    <path d="M 267.294209 232.208065 
L 263.560826 234.670147 
L 263.83119 230.206191 
z
" clip-path="url(#pa278bf37cd)" style="stroke: #000000; stroke-linecap: round"/>
   </g>
   <g id="patch_36">
    <path d="M 374.213786 50.454029 
Q 350.175034 83.260131 326.797105 115.164396 
" clip-path="url(#pa278bf37cd)" style="fill: none; stroke: #000000; stroke-linecap: round"/>
    <path d="M 330.774598 113.12 
L 326.797105 115.164396 
L 327.548084 110.755764 
z
" clip-path="url(#pa278bf37cd)" style="stroke: #000000; stroke-linecap: round"/>
   </g>
   <g id="patch_37">
    <path d="M 240.784243 152.607658 
Q 224.852445 162.858299 209.860879 172.503989 
" clip-path="url(#pa278bf37cd)" style="fill: none; stroke: #000000; stroke-linecap: round"/>
    <path d="M 214.30692 172.021584 
L 209.860879 172.503989 
L 212.142579 168.657713 
z
" clip-path="url(#pa278bf37cd)" style="stroke: #000000; stroke-linecap: round"/>
   </g>
   <g id="patch_38">
    <path d="M 241.847728 149.710374 
Q 229.780459 110.088603 218.038929 71.536363 
" clip-path="url(#pa278bf37cd)" style="fill: none; stroke: #000000; stroke-linecap: round"/>
    <path d="M 217.29109 75.945528 
L 218.038929 71.536363 
L 221.117557 74.780133 
z
" clip-path="url(#pa278bf37cd)" style="stroke: #000000; stroke-linecap: round"/>
   </g>
   <g id="patch_39">
    <path d="M 242.843052 153.447594 
Q 252.222583 194.436601 261.35272 234.335744 
" clip-path="url(#pa278bf37cd)" style="fill: none; stroke: #000000; stroke-linecap: round"/>
    <path d="M 262.410068 229.9904 
L 261.35272 234.335744 
L 258.510854 230.882659 
z
" clip-path="url(#pa278bf37cd)" style="stroke: #000000; stroke-linecap: round"/>
   </g>
   <g id="patch_40">
    <path d="M 292.605472 312.931748 
Q 277.682533 276.019502 263.178646 240.143787 
" clip-path="url(#pa278bf37cd)" style="fill: none; stroke: #000000; stroke-linecap: round"/>
    <path d="M 262.823682 244.601813 
L 263.178646 240.143787 
L 266.532089 243.102573 
z
" clip-path="url(#pa278bf37cd)" style="stroke: #000000; stroke-linecap: round"/>
   </g>
   <g id="patch_41">
    <path d="M 332.001047 288.58663 
Q 297.797821 263.521161 264.496396 239.116568 
" clip-path="url(#pa278bf37cd)" style="fill: none; stroke: #000000; stroke-linecap: round"/>
    <path d="M 266.540567 243.094176 
L 264.496396 239.116568 
L 268.904985 239.867796 
z
" clip-path="url(#pa278bf37cd)" style="stroke: #000000; stroke-linecap: round"/>
   </g>
   <g id="patch_42">
    <path d="M 260.765702 235.849028 
Q 234.662308 205.736163 209.291237 176.468107 
" clip-path="url(#pa278bf37cd)" style="fill: none; stroke: #000000; stroke-linecap: round"/>
    <path d="M 210.400039 180.800607 
L 209.291237 176.468107 
L 213.422518 178.180565 
z
" clip-path="url(#pa278bf37cd)" style="stroke: #000000; stroke-linecap: round"/>
   </g>
   <g id="patch_43">
    <path d="M 260.765702 235.849028 
Q 234.662308 205.736163 209.291237 176.468107 
" clip-path="url(#pa278bf37cd)" style="fill: none; stroke: #000000; stroke-linecap: round"/>
    <path d="M 210.400039 180.800607 
L 209.291237 176.468107 
L 213.422518 178.180565 
z
" clip-path="url(#pa278bf37cd)" style="stroke: #000000; stroke-linecap: round"/>
   </g>
   <g id="patch_44">
    <path d="M 261.551725 239.189958 
Q 251.986428 276.460081 242.699065 312.647266 
" clip-path="url(#pa278bf37cd)" style="fill: none; stroke: #000000; stroke-linecap: round"/>
    <path d="M 245.630647 309.270014 
L 242.699065 312.647266 
L 241.756213 308.275649 
z
" clip-path="url(#pa278bf37cd)" style="stroke: #000000; stroke-linecap: round"/>
   </g>
   <g id="patch_45">
    <path d="M 263.004215 235.633023 
Q 277.063799 211.311499 290.563842 187.957918 
" clip-path="url(#pa278bf37cd)" style="fill: none; stroke: #000000; stroke-linecap: round"/>
    <path d="M 286.830459 190.420001 
L 290.563842 187.957918 
L 290.293478 192.421874 
z
" clip-path="url(#pa278bf37cd)" style="stroke: #000000; stroke-linecap: round"/>
   </g>
   <g id="patch_46">
    <path d="M 261.601984 235.425042 
Q 252.222454 194.436035 243.092317 154.536892 
" clip-path="url(#pa278bf37cd)" style="fill: none; stroke: #000000; stroke-linecap: round"/>
    <path d="M 242.034968 158.882236 
L 243.092317 154.536892 
L 245.934183 157.989977 
z
" clip-path="url(#pa278bf37cd)" style="stroke: #000000; stroke-linecap: round"/>
   </g>
   <g id="patch_47">
    <path d="M 262.75866 239.104942 
Q 277.681598 276.017188 292.185486 311.892903 
" clip-path="url(#pa278bf37cd)" style="fill: none; stroke: #000000; stroke-linecap: round"/>
    <path d="M 292.540449 307.434877 
L 292.185486 311.892903 
L 288.832043 308.934117 
z
" clip-path="url(#pa278bf37cd)" style="stroke: #000000; stroke-linecap: round"/>
   </g>
   <g id="patch_48">
    <path d="M 263.594487 238.455613 
Q 297.797713 263.521082 331.099138 287.925676 
" clip-path="url(#pa278bf37cd)" style="fill: none; stroke: #000000; stroke-linecap: round"/>
    <path d="M 329.054967 283.948068 
L 331.099138 287.925676 
L 326.690549 287.174447 
z
" clip-path="url(#pa278bf37cd)" style="stroke: #000000; stroke-linecap: round"/>
   </g>
   <g id="patch_49">
    <path d="M 418.874482 119.519994 
Q 372.900782 118.592619 328.04489 117.687791 
" clip-path="url(#pa278bf37cd)" style="fill: none; stroke: #000000; stroke-linecap: round"/>
    <path d="M 332.00374 119.768055 
L 328.04489 117.687791 
L 332.084412 115.768869 
z
" clip-path="url(#pa278bf37cd)" style="stroke: #000000; stroke-linecap: round"/>
   </g>
   <g id="patch_50">
    <path d="M 323.251049 118.46297 
Q 266.142476 145.891811 210.041721 172.836604 
" clip-path="url(#pa278bf37cd)" style="fill: none; stroke: #000000; stroke-linecap: round"/>
    <path d="M 214.513293 172.907662 
L 210.041721 172.836604 
L 212.78151 169.301982 
z
" clip-path="url(#pa278bf37cd)" style="stroke: #000000; stroke-linecap: round"/>
   </g>
   <g id="patch_51">
    <path d="M 324.147738 119.365581 
Q 308.542935 151.469426 293.426897 182.567732 
" clip-path="url(#pa278bf37cd)" style="fill: none; stroke: #000000; stroke-linecap: round"/>
    <path d="M 296.974319 179.844536 
L 293.426897 182.567732 
L 293.376793 178.095876 
z
" clip-path="url(#pa278bf37cd)" style="stroke: #000000; stroke-linecap: round"/>
   </g>
   <g id="patch_52">
    <path d="M 326.138282 116.063503 
Q 350.177034 83.257401 373.554963 51.353136 
" clip-path="url(#pa278bf37cd)" style="fill: none; stroke: #000000; stroke-linecap: round"/>
    <path d="M 369.57747 53.397532 
L 373.554963 51.353136 
L 372.803984 55.761768 
z
" clip-path="url(#pa278bf37cd)" style="stroke: #000000; stroke-linecap: round"/>
   </g>
   <g id="patch_53">
    <path d="M 326.931929 117.665341 
Q 372.905629 118.592716 417.761521 119.497544 
" clip-path="url(#pa278bf37cd)" style="fill: none; stroke: #000000; stroke-linecap: round"/>
    <path d="M 413.802671 117.41728 
L 417.761521 119.497544 
L 413.722 121.416466 
z
" clip-path="url(#pa278bf37cd)" style="stroke: #000000; stroke-linecap: round"/>
   </g>
   <g id="patch_54">
    <path d="M 326.756826 116.822219 
Q 367.675147 98.168237 407.576161 79.978027 
" clip-path="url(#pa278bf37cd)" style="fill: none; stroke: #000000; stroke-linecap: round"/>
    <path d="M 403.106909 79.817459 
L 407.576161 79.978027 
L 404.766155 83.457088 
z
" clip-path="url(#pa278bf37cd)" style="stroke: #000000; stroke-linecap: round"/>
   </g>
   <g id="patch_55">
    <path d="M 323.098288 117.221623 
Q 280.829102 108.196074 239.653303 99.403991 
" clip-path="url(#pa278bf37cd)" style="fill: none; stroke: #000000; stroke-linecap: round"/>
    <path d="M 243.147484 102.195173 
L 239.653303 99.403991 
L 243.982757 98.283355 
z
" clip-path="url(#pa278bf37cd)" style="stroke: #000000; stroke-linecap: round"/>
   </g>
   <g id="patch_56">
    <path d="M 408.592749 79.514582 
Q 367.674427 98.168565 327.773413 116.358774 
" clip-path="url(#pa278bf37cd)" style="fill: none; stroke: #000000; stroke-linecap: round"/>
    <path d="M 332.242666 116.519342 
L 327.773413 116.358774 
L 330.583419 112.879713 
z
" clip-path="url(#pa278bf37cd)" style="stroke: #000000; stroke-linecap: round"/>
   </g>
   <g id="patch_57">
    <path d="M 273.334732 31.690189 
Q 255.466105 64.37894 238.133738 96.086658 
" clip-path="url(#pa278bf37cd)" style="fill: none; stroke: #000000; stroke-linecap: round"/>
    <path d="M 241.807247 93.536104 
L 238.133738 96.086658 
L 238.297399 91.617518 
z
" clip-path="url(#pa278bf37cd)" style="stroke: #000000; stroke-linecap: round"/>
   </g>
   <g id="patch_58">
    <path d="M 234.749978 99.013859 
Q 186.85017 105.183633 140.059235 111.210577 
" clip-path="url(#pa278bf37cd)" style="fill: none; stroke: #000000; stroke-linecap: round"/>
    <path d="M 144.281962 112.683188 
L 140.059235 111.210577 
L 143.77096 108.715962 
z
" clip-path="url(#pa278bf37cd)" style="stroke: #000000; stroke-linecap: round"/>
   </g>
   <g id="patch_59">
    <path d="M 235.964022 100.575123 
Q 221.977539 136.466381 208.397009 171.315909 
" clip-path="url(#pa278bf37cd)" style="fill: none; stroke: #000000; stroke-linecap: round"/>
    <path d="M 211.712893 168.31509 
L 208.397009 171.315909 
L 207.985885 166.86271 
z
" clip-path="url(#pa278bf37cd)" style="stroke: #000000; stroke-linecap: round"/>
   </g>
   <g id="patch_60">
    <path d="M 238.563642 99.171321 
Q 280.832828 108.19687 322.008628 116.988953 
" clip-path="url(#pa278bf37cd)" style="fill: none; stroke: #000000; stroke-linecap: round"/>
    <path d="M 318.514446 114.197771 
L 322.008628 116.988953 
L 317.679173 118.109589 
z
" clip-path="url(#pa278bf37cd)" style="stroke: #000000; stroke-linecap: round"/>
   </g>
   <g id="patch_61">
    <path d="M 237.59807 97.066606 
Q 255.466698 64.377855 272.799065 32.670136 
" clip-path="url(#pa278bf37cd)" style="fill: none; stroke: #000000; stroke-linecap: round"/>
    <path d="M 269.125555 35.220691 
L 272.799065 32.670136 
L 272.635403 37.139276 
z
" clip-path="url(#pa278bf37cd)" style="stroke: #000000; stroke-linecap: round"/>
   </g>
   <g id="PathCollection_1">
    <defs>
     <path id="C0_0_fb20628984" d="M 0 1.936492 
C 0.513564 1.936492 1.006162 1.732451 1.369306 1.369306 
C 1.732451 1.006162 1.936492 0.513564 1.936492 -0 
C 1.936492 -0.513564 1.732451 -1.006162 1.369306 -1.369306 
C 1.006162 -1.732451 0.513564 -1.936492 0 -1.936492 
C -0.513564 -1.936492 -1.006162 -1.732451 -1.369306 -1.369306 
C -1.732451 -1.006162 -1.936492 -0.513564 -1.936492 0 
C -1.936492 0.513564 -1.732451 1.006162 -1.369306 1.369306 
C -1.006162 1.732451 -0.513564 1.936492 0 1.936492 
z
"/>
    </defs>
    <g clip-path="url(#pa278bf37cd)">
     <use xlink:href="#C0_0_fb20628984" x="137.026795" y="111.601172" style="stroke: #000000"/>
    </g>
    <g clip-path="url(#pa278bf37cd)">
     <use xlink:href="#C0_0_fb20628984" x="70.416821" y="52.932346" style="fill: #ff0000; stroke: #ff0000"/>
    </g>
    <g clip-path="url(#pa278bf37cd)">
     <use xlink:href="#C0_0_fb20628984" x="39.986777" y="96.240669" style="fill: #ff0000; stroke: #ff0000"/>
    </g>
    <g clip-path="url(#pa278bf37cd)">
     <use xlink:href="#C0_0_fb20628984" x="207.289238" y="174.158602" style="fill: #ff0000; stroke: #ff0000"/>
    </g>
    <g clip-path="url(#pa278bf37cd)">
     <use xlink:href="#C0_0_fb20628984" x="166.926755" y="129.577311" style="fill: #ff0000; stroke: #ff0000"/>
    </g>
    <g clip-path="url(#pa278bf37cd)">
     <use xlink:href="#C0_0_fb20628984" x="187.31206" y="243.776547" style="fill: #ff0000; stroke: #ff0000"/>
    </g>
    <g clip-path="url(#pa278bf37cd)">
     <use xlink:href="#C0_0_fb20628984" x="380.558221" y="213.107574" style="fill: #ff0000; stroke: #ff0000"/>
    </g>
    <g clip-path="url(#pa278bf37cd)">
     <use xlink:href="#C0_0_fb20628984" x="110.817868" y="174.114521" style="fill: #ff0000; stroke: #ff0000"/>
    </g>
    <g clip-path="url(#pa278bf37cd)">
     <use xlink:href="#C0_0_fb20628984" x="141.686104" y="240.082962" style="fill: #ff0000; stroke: #ff0000"/>
    </g>
    <g clip-path="url(#pa278bf37cd)">
     <use xlink:href="#C0_0_fb20628984" x="117.861168" y="210.125406" style="fill: #ff0000; stroke: #ff0000"/>
    </g>
    <g clip-path="url(#pa278bf37cd)">
     <use xlink:href="#C0_0_fb20628984" x="217.148627" y="68.613139" style="fill: #ff0000; stroke: #ff0000"/>
    </g>
    <g clip-path="url(#pa278bf37cd)">
     <use xlink:href="#C0_0_fb20628984" x="241.938707" y="315.609917" style="fill: #ff0000; stroke: #ff0000"/>
    </g>
    <g clip-path="url(#pa278bf37cd)">
     <use xlink:href="#C0_0_fb20628984" x="292.090927" y="185.316229" style="stroke: #000000"/>
    </g>
    <g clip-path="url(#pa278bf37cd)">
     <use xlink:href="#C0_0_fb20628984" x="375.35888" y="48.891299" style="fill: #ff0000; stroke: #ff0000"/>
    </g>
    <g clip-path="url(#pa278bf37cd)">
     <use xlink:href="#C0_0_fb20628984" x="242.411296" y="151.560799" style="stroke: #000000"/>
    </g>
    <g clip-path="url(#pa278bf37cd)">
     <use xlink:href="#C0_0_fb20628984" x="293.330391" y="314.724853" style="fill: #ff0000; stroke: #ff0000"/>
    </g>
    <g clip-path="url(#pa278bf37cd)">
     <use xlink:href="#C0_0_fb20628984" x="333.561794" y="289.730406" style="fill: #ff0000; stroke: #ff0000"/>
    </g>
    <g clip-path="url(#pa278bf37cd)">
     <use xlink:href="#C0_0_fb20628984" x="262.03374" y="237.311837" style="fill: #ff0000; stroke: #ff0000"/>
    </g>
    <g clip-path="url(#pa278bf37cd)">
     <use xlink:href="#C0_0_fb20628984" x="420.813223" y="119.559102" style="fill: #ff0000; stroke: #ff0000"/>
    </g>
    <g clip-path="url(#pa278bf37cd)">
     <use xlink:href="#C0_0_fb20628984" x="324.993188" y="117.626233" style="fill: #ff0000; stroke: #ff0000"/>
    </g>
    <g clip-path="url(#pa278bf37cd)">
     <use xlink:href="#C0_0_fb20628984" x="410.356387" y="78.710569" style="fill: #ff0000; stroke: #ff0000"/>
    </g>
    <g clip-path="url(#pa278bf37cd)">
     <use xlink:href="#C0_0_fb20628984" x="274.26406" y="29.990083" style="fill: #ff0000; stroke: #ff0000"/>
    </g>
    <g clip-path="url(#pa278bf37cd)">
     <use xlink:href="#C0_0_fb20628984" x="236.668742" y="98.766712" style="fill: #ff0000; stroke: #ff0000"/>
    </g>
   </g>
   <g id="text_1">
    <g clip-path="url(#pa278bf37cd)">
     <!-- 0 -->
     <g transform="translate(133.845545 114.360547) scale(0.1 -0.1)">
      <defs>
       <path id="DejaVuSans-30" d="M 2034 4250 
Q 1547 4250 1301 3770 
Q 1056 3291 1056 2328 
Q 1056 1369 1301 889 
Q 1547 409 2034 409 
Q 2525 409 2770 889 
Q 3016 1369 3016 2328 
Q 3016 3291 2770 3770 
Q 2525 4250 2034 4250 
z
M 2034 4750 
Q 2819 4750 3233 4129 
Q 3647 3509 3647 2328 
Q 3647 1150 3233 529 
Q 2819 -91 2034 -91 
Q 1250 -91 836 529 
Q 422 1150 422 2328 
Q 422 3509 836 4129 
Q 1250 4750 2034 4750 
z
" transform="scale(0.015625)"/>
      </defs>
      <use xlink:href="#DejaVuSans-30"/>
     </g>
    </g>
   </g>
   <g id="text_2">
    <g clip-path="url(#pa278bf37cd)">
     <!-- 2 -->
     <g transform="translate(67.235571 55.691721) scale(0.1 -0.1)">
      <defs>
       <path id="DejaVuSans-32" d="M 1228 531 
L 3431 531 
L 3431 0 
L 469 0 
L 469 531 
Q 828 903 1448 1529 
Q 2069 2156 2228 2338 
Q 2531 2678 2651 2914 
Q 2772 3150 2772 3378 
Q 2772 3750 2511 3984 
Q 2250 4219 1831 4219 
Q 1534 4219 1204 4116 
Q 875 4013 500 3803 
L 500 4441 
Q 881 4594 1212 4672 
Q 1544 4750 1819 4750 
Q 2544 4750 2975 4387 
Q 3406 4025 3406 3419 
Q 3406 3131 3298 2873 
Q 3191 2616 2906 2266 
Q 2828 2175 2409 1742 
Q 1991 1309 1228 531 
z
" transform="scale(0.015625)"/>
      </defs>
      <use xlink:href="#DejaVuSans-32"/>
     </g>
    </g>
   </g>
   <g id="text_3">
    <g clip-path="url(#pa278bf37cd)">
     <!-- 3 -->
     <g transform="translate(36.805527 99.000044) scale(0.1 -0.1)">
      <defs>
       <path id="DejaVuSans-33" d="M 2597 2516 
Q 3050 2419 3304 2112 
Q 3559 1806 3559 1356 
Q 3559 666 3084 287 
Q 2609 -91 1734 -91 
Q 1441 -91 1130 -33 
Q 819 25 488 141 
L 488 750 
Q 750 597 1062 519 
Q 1375 441 1716 441 
Q 2309 441 2620 675 
Q 2931 909 2931 1356 
Q 2931 1769 2642 2001 
Q 2353 2234 1838 2234 
L 1294 2234 
L 1294 2753 
L 1863 2753 
Q 2328 2753 2575 2939 
Q 2822 3125 2822 3475 
Q 2822 3834 2567 4026 
Q 2313 4219 1838 4219 
Q 1578 4219 1281 4162 
Q 984 4106 628 3988 
L 628 4550 
Q 988 4650 1302 4700 
Q 1616 4750 1894 4750 
Q 2613 4750 3031 4423 
Q 3450 4097 3450 3541 
Q 3450 3153 3228 2886 
Q 3006 2619 2597 2516 
z
" transform="scale(0.015625)"/>
      </defs>
      <use xlink:href="#DejaVuSans-33"/>
     </g>
    </g>
   </g>
   <g id="text_4">
    <g clip-path="url(#pa278bf37cd)">
     <!-- 4 -->
     <g transform="translate(204.107988 176.917977) scale(0.1 -0.1)">
      <defs>
       <path id="DejaVuSans-34" d="M 2419 4116 
L 825 1625 
L 2419 1625 
L 2419 4116 
z
M 2253 4666 
L 3047 4666 
L 3047 1625 
L 3713 1625 
L 3713 1100 
L 3047 1100 
L 3047 0 
L 2419 0 
L 2419 1100 
L 313 1100 
L 313 1709 
L 2253 4666 
z
" transform="scale(0.015625)"/>
      </defs>
      <use xlink:href="#DejaVuSans-34"/>
     </g>
    </g>
   </g>
   <g id="text_5">
    <g clip-path="url(#pa278bf37cd)">
     <!-- 7 -->
     <g transform="translate(163.745505 132.336686) scale(0.1 -0.1)">
      <defs>
       <path id="DejaVuSans-37" d="M 525 4666 
L 3525 4666 
L 3525 4397 
L 1831 0 
L 1172 0 
L 2766 4134 
L 525 4134 
L 525 4666 
z
" transform="scale(0.015625)"/>
      </defs>
      <use xlink:href="#DejaVuSans-37"/>
     </g>
    </g>
   </g>
   <g id="text_6">
    <g clip-path="url(#pa278bf37cd)">
     <!-- 8 -->
     <g transform="translate(184.13081 246.535922) scale(0.1 -0.1)">
      <defs>
       <path id="DejaVuSans-38" d="M 2034 2216 
Q 1584 2216 1326 1975 
Q 1069 1734 1069 1313 
Q 1069 891 1326 650 
Q 1584 409 2034 409 
Q 2484 409 2743 651 
Q 3003 894 3003 1313 
Q 3003 1734 2745 1975 
Q 2488 2216 2034 2216 
z
M 1403 2484 
Q 997 2584 770 2862 
Q 544 3141 544 3541 
Q 544 4100 942 4425 
Q 1341 4750 2034 4750 
Q 2731 4750 3128 4425 
Q 3525 4100 3525 3541 
Q 3525 3141 3298 2862 
Q 3072 2584 2669 2484 
Q 3125 2378 3379 2068 
Q 3634 1759 3634 1313 
Q 3634 634 3220 271 
Q 2806 -91 2034 -91 
Q 1263 -91 848 271 
Q 434 634 434 1313 
Q 434 1759 690 2068 
Q 947 2378 1403 2484 
z
M 1172 3481 
Q 1172 3119 1398 2916 
Q 1625 2713 2034 2713 
Q 2441 2713 2670 2916 
Q 2900 3119 2900 3481 
Q 2900 3844 2670 4047 
Q 2441 4250 2034 4250 
Q 1625 4250 1398 4047 
Q 1172 3844 1172 3481 
z
" transform="scale(0.015625)"/>
      </defs>
      <use xlink:href="#DejaVuSans-38"/>
     </g>
    </g>
   </g>
   <g id="text_7">
    <g clip-path="url(#pa278bf37cd)">
     <!-- 10 -->
     <g transform="translate(374.195721 215.866949) scale(0.1 -0.1)">
      <defs>
       <path id="DejaVuSans-31" d="M 794 531 
L 1825 531 
L 1825 4091 
L 703 3866 
L 703 4441 
L 1819 4666 
L 2450 4666 
L 2450 531 
L 3481 531 
L 3481 0 
L 794 0 
L 794 531 
z
" transform="scale(0.015625)"/>
      </defs>
      <use xlink:href="#DejaVuSans-31"/>
      <use xlink:href="#DejaVuSans-30" x="63.623047"/>
     </g>
    </g>
   </g>
   <g id="text_8">
    <g clip-path="url(#pa278bf37cd)">
     <!-- 13 -->
     <g transform="translate(104.455368 176.873896) scale(0.1 -0.1)">
      <use xlink:href="#DejaVuSans-31"/>
      <use xlink:href="#DejaVuSans-33" x="63.623047"/>
     </g>
    </g>
   </g>
   <g id="text_9">
    <g clip-path="url(#pa278bf37cd)">
     <!-- 14 -->
     <g transform="translate(135.323604 242.842337) scale(0.1 -0.1)">
      <use xlink:href="#DejaVuSans-31"/>
      <use xlink:href="#DejaVuSans-34" x="63.623047"/>
     </g>
    </g>
   </g>
   <g id="text_10">
    <g clip-path="url(#pa278bf37cd)">
     <!-- 15 -->
     <g transform="translate(111.498668 212.884781) scale(0.1 -0.1)">
      <defs>
       <path id="DejaVuSans-35" d="M 691 4666 
L 3169 4666 
L 3169 4134 
L 1269 4134 
L 1269 2991 
Q 1406 3038 1543 3061 
Q 1681 3084 1819 3084 
Q 2600 3084 3056 2656 
Q 3513 2228 3513 1497 
Q 3513 744 3044 326 
Q 2575 -91 1722 -91 
Q 1428 -91 1123 -41 
Q 819 9 494 109 
L 494 744 
Q 775 591 1075 516 
Q 1375 441 1709 441 
Q 2250 441 2565 725 
Q 2881 1009 2881 1497 
Q 2881 1984 2565 2268 
Q 2250 2553 1709 2553 
Q 1456 2553 1204 2497 
Q 953 2441 691 2322 
L 691 4666 
z
" transform="scale(0.015625)"/>
      </defs>
      <use xlink:href="#DejaVuSans-31"/>
      <use xlink:href="#DejaVuSans-35" x="63.623047"/>
     </g>
    </g>
   </g>
   <g id="text_11">
    <g clip-path="url(#pa278bf37cd)">
     <!-- 17 -->
     <g transform="translate(210.786127 71.372514) scale(0.1 -0.1)">
      <use xlink:href="#DejaVuSans-31"/>
      <use xlink:href="#DejaVuSans-37" x="63.623047"/>
     </g>
    </g>
   </g>
   <g id="text_12">
    <g clip-path="url(#pa278bf37cd)">
     <!-- 21 -->
     <g transform="translate(235.576207 318.369292) scale(0.1 -0.1)">
      <use xlink:href="#DejaVuSans-32"/>
      <use xlink:href="#DejaVuSans-31" x="63.623047"/>
     </g>
    </g>
   </g>
   <g id="text_13">
    <g clip-path="url(#pa278bf37cd)">
     <!-- 22 -->
     <g transform="translate(285.728427 188.075604) scale(0.1 -0.1)">
      <use xlink:href="#DejaVuSans-32"/>
      <use xlink:href="#DejaVuSans-32" x="63.623047"/>
     </g>
    </g>
   </g>
   <g id="text_14">
    <g clip-path="url(#pa278bf37cd)">
     <!-- 23 -->
     <g transform="translate(368.99638 51.650674) scale(0.1 -0.1)">
      <use xlink:href="#DejaVuSans-32"/>
      <use xlink:href="#DejaVuSans-33" x="63.623047"/>
     </g>
    </g>
   </g>
   <g id="text_15">
    <g clip-path="url(#pa278bf37cd)">
     <!-- 25 -->
     <g transform="translate(236.048796 154.320174) scale(0.1 -0.1)">
      <use xlink:href="#DejaVuSans-32"/>
      <use xlink:href="#DejaVuSans-35" x="63.623047"/>
     </g>
    </g>
   </g>
   <g id="text_16">
    <g clip-path="url(#pa278bf37cd)">
     <!-- 28 -->
     <g transform="translate(286.967891 317.484228) scale(0.1 -0.1)">
      <use xlink:href="#DejaVuSans-32"/>
      <use xlink:href="#DejaVuSans-38" x="63.623047"/>
     </g>
    </g>
   </g>
   <g id="text_17">
    <g clip-path="url(#pa278bf37cd)">
     <!-- 29 -->
     <g transform="translate(327.199294 292.489781) scale(0.1 -0.1)">
      <defs>
       <path id="DejaVuSans-39" d="M 703 97 
L 703 672 
Q 941 559 1184 500 
Q 1428 441 1663 441 
Q 2288 441 2617 861 
Q 2947 1281 2994 2138 
Q 2813 1869 2534 1725 
Q 2256 1581 1919 1581 
Q 1219 1581 811 2004 
Q 403 2428 403 3163 
Q 403 3881 828 4315 
Q 1253 4750 1959 4750 
Q 2769 4750 3195 4129 
Q 3622 3509 3622 2328 
Q 3622 1225 3098 567 
Q 2575 -91 1691 -91 
Q 1453 -91 1209 -44 
Q 966 3 703 97 
z
M 1959 2075 
Q 2384 2075 2632 2365 
Q 2881 2656 2881 3163 
Q 2881 3666 2632 3958 
Q 2384 4250 1959 4250 
Q 1534 4250 1286 3958 
Q 1038 3666 1038 3163 
Q 1038 2656 1286 2365 
Q 1534 2075 1959 2075 
z
" transform="scale(0.015625)"/>
      </defs>
      <use xlink:href="#DejaVuSans-32"/>
      <use xlink:href="#DejaVuSans-39" x="63.623047"/>
     </g>
    </g>
   </g>
   <g id="text_18">
    <g clip-path="url(#pa278bf37cd)">
     <!-- 31 -->
     <g transform="translate(255.67124 240.071212) scale(0.1 -0.1)">
      <use xlink:href="#DejaVuSans-33"/>
      <use xlink:href="#DejaVuSans-31" x="63.623047"/>
     </g>
    </g>
   </g>
   <g id="text_19">
    <g clip-path="url(#pa278bf37cd)">
     <!-- 34 -->
     <g transform="translate(414.450723 122.318477) scale(0.1 -0.1)">
      <use xlink:href="#DejaVuSans-33"/>
      <use xlink:href="#DejaVuSans-34" x="63.623047"/>
     </g>
    </g>
   </g>
   <g id="text_20">
    <g clip-path="url(#pa278bf37cd)">
     <!-- 36 -->
     <g transform="translate(318.630688 120.385608) scale(0.1 -0.1)">
      <defs>
       <path id="DejaVuSans-36" d="M 2113 2584 
Q 1688 2584 1439 2293 
Q 1191 2003 1191 1497 
Q 1191 994 1439 701 
Q 1688 409 2113 409 
Q 2538 409 2786 701 
Q 3034 994 3034 1497 
Q 3034 2003 2786 2293 
Q 2538 2584 2113 2584 
z
M 3366 4563 
L 3366 3988 
Q 3128 4100 2886 4159 
Q 2644 4219 2406 4219 
Q 1781 4219 1451 3797 
Q 1122 3375 1075 2522 
Q 1259 2794 1537 2939 
Q 1816 3084 2150 3084 
Q 2853 3084 3261 2657 
Q 3669 2231 3669 1497 
Q 3669 778 3244 343 
Q 2819 -91 2113 -91 
Q 1303 -91 875 529 
Q 447 1150 447 2328 
Q 447 3434 972 4092 
Q 1497 4750 2381 4750 
Q 2619 4750 2861 4703 
Q 3103 4656 3366 4563 
z
" transform="scale(0.015625)"/>
      </defs>
      <use xlink:href="#DejaVuSans-33"/>
      <use xlink:href="#DejaVuSans-36" x="63.623047"/>
     </g>
    </g>
   </g>
   <g id="text_21">
    <g clip-path="url(#pa278bf37cd)">
     <!-- 37 -->
     <g transform="translate(403.993887 81.469944) scale(0.1 -0.1)">
      <use xlink:href="#DejaVuSans-33"/>
      <use xlink:href="#DejaVuSans-37" x="63.623047"/>
     </g>
    </g>
   </g>
   <g id="text_22">
    <g clip-path="url(#pa278bf37cd)">
     <!-- 38 -->
     <g transform="translate(267.90156 32.749458) scale(0.1 -0.1)">
      <use xlink:href="#DejaVuSans-33"/>
      <use xlink:href="#DejaVuSans-38" x="63.623047"/>
     </g>
    </g>
   </g>
   <g id="text_23">
    <g clip-path="url(#pa278bf37cd)">
     <!-- 40 -->
     <g transform="translate(230.306242 101.526087) scale(0.1 -0.1)">
      <use xlink:href="#DejaVuSans-34"/>
      <use xlink:href="#DejaVuSans-30" x="63.623047"/>
     </g>
    </g>
   </g>
  </g>
 </g>
 <defs>
  <clipPath id="pa278bf37cd">
   <rect x="0" y="0" width="460.8" height="345.6"/>
  </clipPath>
 </defs>
</svg>
