<?xml version="1.0" encoding="utf-8" standalone="no"?>
<!DOCTYPE svg PUBLIC "-//W3C//DTD SVG 1.1//EN"
  "http://www.w3.org/Graphics/SVG/1.1/DTD/svg11.dtd">
<svg xmlns:xlink="http://www.w3.org/1999/xlink" width="460.8pt" height="345.6pt" viewBox="0 0 460.8 345.6" xmlns="http://www.w3.org/2000/svg" version="1.1">
 <metadata>
  <rdf:RDF xmlns:dc="http://purl.org/dc/elements/1.1/" xmlns:cc="http://creativecommons.org/ns#" xmlns:rdf="http://www.w3.org/1999/02/22-rdf-syntax-ns#">
   <cc:Work>
    <dc:type rdf:resource="http://purl.org/dc/dcmitype/StillImage"/>
    <dc:date>2024-02-07T14:34:38.787940</dc:date>
    <dc:format>image/svg+xml</dc:format>
    <dc:creator>
     <cc:Agent>
      <dc:title>Matplotlib v3.8.0, https://matplotlib.org/</dc:title>
     </cc:Agent>
    </dc:creator>
   </cc:Work>
  </rdf:RDF>
 </metadata>
 <defs>
  <style type="text/css">*{stroke-linejoin: round; stroke-linecap: butt}</style>
 </defs>
 <g id="figure_1">
  <g id="patch_1">
   <path d="M 0 345.6 
L 460.8 345.6 
L 460.8 0 
L 0 0 
z
" style="fill: #ffffff"/>
  </g>
  <g id="axes_1">
   <g id="patch_2">
    <path d="M 420.253712 131.173911 
Q 399.140765 201.245343 378.350365 270.246278 
" clip-path="url(#p51074a5c3c)" style="fill: none; stroke: #000000; stroke-linecap: round"/>
    <path d="M 381.419308 266.993342 
L 378.350365 270.246278 
L 377.589382 265.839362 
z
" clip-path="url(#p51074a5c3c)" style="stroke: #000000; stroke-linecap: round"/>
   </g>
   <g id="patch_3">
    <path d="M 419.208338 128.230268 
Q 347.467596 79.653572 276.652627 31.70373 
" clip-path="url(#p51074a5c3c)" style="fill: none; stroke: #000000; stroke-linecap: round"/>
    <path d="M 278.84342 35.602503 
L 276.652627 31.70373 
L 281.086121 32.290359 
z
" clip-path="url(#p51074a5c3c)" style="stroke: #000000; stroke-linecap: round"/>
   </g>
   <g id="patch_4">
    <path d="M 378.029818 271.310137 
Q 399.142765 201.238705 419.933165 132.237769 
" clip-path="url(#p51074a5c3c)" style="fill: none; stroke: #000000; stroke-linecap: round"/>
    <path d="M 416.864223 135.490705 
L 419.933165 132.237769 
L 420.694148 136.644685 
z
" clip-path="url(#p51074a5c3c)" style="stroke: #000000; stroke-linecap: round"/>
   </g>
   <g id="patch_5">
    <path d="M 375.581471 273.589989 
Q 282.686368 294.388686 190.882286 314.94311 
" clip-path="url(#p51074a5c3c)" style="fill: none; stroke: #000000; stroke-linecap: round"/>
    <path d="M 195.222618 316.02085 
L 190.882286 314.94311 
L 194.348677 312.117489 
z
" clip-path="url(#p51074a5c3c)" style="stroke: #000000; stroke-linecap: round"/>
   </g>
   <g id="patch_6">
    <path d="M 189.792902 315.187017 
Q 282.688006 294.38832 374.492087 273.833896 
" clip-path="url(#p51074a5c3c)" style="fill: none; stroke: #000000; stroke-linecap: round"/>
    <path d="M 370.151755 272.756156 
L 374.492087 273.833896 
L 371.025696 276.659517 
z
" clip-path="url(#p51074a5c3c)" style="stroke: #000000; stroke-linecap: round"/>
   </g>
   <g id="patch_7">
    <path d="M 186.299311 314.528386 
Q 113.945647 265.765298 42.519112 217.627053 
" clip-path="url(#p51074a5c3c)" style="fill: none; stroke: #000000; stroke-linecap: round"/>
    <path d="M 44.718359 221.521063 
L 42.519112 217.627053 
L 46.953868 218.204061 
z
" clip-path="url(#p51074a5c3c)" style="stroke: #000000; stroke-linecap: round"/>
   </g>
   <g id="patch_8">
    <path d="M 275.726702 31.076773 
Q 347.467444 79.653469 418.282414 127.603311 
" clip-path="url(#p51074a5c3c)" style="fill: none; stroke: #000000; stroke-linecap: round"/>
    <path d="M 416.09162 123.704539 
L 418.282414 127.603311 
L 413.84892 127.016682 
z
" clip-path="url(#p51074a5c3c)" style="stroke: #000000; stroke-linecap: round"/>
   </g>
   <g id="patch_9">
    <path d="M 272.230989 30.408725 
Q 178.653235 51.127495 86.167078 71.604578 
" clip-path="url(#p51074a5c3c)" style="fill: none; stroke: #000000; stroke-linecap: round"/>
    <path d="M 90.504843 72.692601 
L 86.167078 71.604578 
L 89.640156 68.78718 
z
" clip-path="url(#p51074a5c3c)" style="stroke: #000000; stroke-linecap: round"/>
   </g>
   <g id="patch_10">
    <path d="M 41.591531 217.001906 
Q 113.945196 265.764994 185.371731 313.903238 
" clip-path="url(#p51074a5c3c)" style="fill: none; stroke: #000000; stroke-linecap: round"/>
    <path d="M 183.172483 310.009229 
L 185.371731 313.903238 
L 180.936974 313.32623 
z
" clip-path="url(#p51074a5c3c)" style="stroke: #000000; stroke-linecap: round"/>
   </g>
   <g id="patch_11">
    <path d="M 40.544434 214.065931 
Q 61.586118 144.093497 82.305837 75.191735 
" clip-path="url(#p51074a5c3c)" style="fill: none; stroke: #000000; stroke-linecap: round"/>
    <path d="M 79.238661 78.446336 
L 82.305837 75.191735 
L 83.069213 79.598237 
z
" clip-path="url(#p51074a5c3c)" style="stroke: #000000; stroke-linecap: round"/>
   </g>
   <g id="patch_12">
    <path d="M 85.076897 71.845952 
Q 178.654652 51.127182 271.140808 30.650099 
" clip-path="url(#p51074a5c3c)" style="fill: none; stroke: #000000; stroke-linecap: round"/>
    <path d="M 266.803043 29.562076 
L 271.140808 30.650099 
L 267.667731 33.467497 
z
" clip-path="url(#p51074a5c3c)" style="stroke: #000000; stroke-linecap: round"/>
   </g>
   <g id="patch_13">
    <path d="M 82.628412 74.119037 
Q 61.586728 144.091471 40.867009 212.993234 
" clip-path="url(#p51074a5c3c)" style="fill: none; stroke: #000000; stroke-linecap: round"/>
    <path d="M 43.934185 209.738632 
L 40.867009 212.993234 
L 40.103633 208.586732 
z
" clip-path="url(#p51074a5c3c)" style="stroke: #000000; stroke-linecap: round"/>
   </g>
   <g id="PathCollection_1">
    <defs>
     <path id="C0_0_e4729139ba" d="M 0 1.936492 
C 0.513564 1.936492 1.006162 1.732451 1.369306 1.369306 
C 1.732451 1.006162 1.936492 0.513564 1.936492 -0 
C 1.936492 -0.513564 1.732451 -1.006162 1.369306 -1.369306 
C 1.006162 -1.732451 0.513564 -1.936492 0 -1.936492 
C -0.513564 -1.936492 -1.006162 -1.732451 -1.369306 -1.369306 
C -1.732451 -1.006162 -1.936492 -0.513564 -1.936492 0 
C -1.936492 0.513564 -1.732451 1.006162 -1.369306 1.369306 
C -1.006162 1.732451 -0.513564 1.936492 0 1.936492 
z
"/>
    </defs>
    <g clip-path="url(#p51074a5c3c)">
     <use xlink:href="#C0_0_e4729139ba" x="420.813223" y="129.316959" style="fill: #ff0000; stroke: #ff0000"/>
    </g>
    <g clip-path="url(#p51074a5c3c)">
     <use xlink:href="#C0_0_e4729139ba" x="377.470307" y="273.167089" style="fill: #ff0000; stroke: #ff0000"/>
    </g>
    <g clip-path="url(#p51074a5c3c)">
     <use xlink:href="#C0_0_e4729139ba" x="187.904066" y="315.609917" style="fill: #ff0000; stroke: #ff0000"/>
    </g>
    <g clip-path="url(#p51074a5c3c)">
     <use xlink:href="#C0_0_e4729139ba" x="274.121817" y="29.990083" style="fill: #ff0000; stroke: #ff0000"/>
    </g>
    <g clip-path="url(#p51074a5c3c)">
     <use xlink:href="#C0_0_e4729139ba" x="39.986777" y="215.920374" style="fill: #ff0000; stroke: #ff0000"/>
    </g>
    <g clip-path="url(#p51074a5c3c)">
     <use xlink:href="#C0_0_e4729139ba" x="83.186069" y="72.264594" style="fill: #ff0000; stroke: #ff0000"/>
    </g>
   </g>
   <g id="text_1">
    <g clip-path="url(#p51074a5c3c)">
     <!-- 0 -->
     <g transform="translate(417.631973 132.076334) scale(0.1 -0.1)">
      <defs>
       <path id="DejaVuSans-30" d="M 2034 4250 
Q 1547 4250 1301 3770 
Q 1056 3291 1056 2328 
Q 1056 1369 1301 889 
Q 1547 409 2034 409 
Q 2525 409 2770 889 
Q 3016 1369 3016 2328 
Q 3016 3291 2770 3770 
Q 2525 4250 2034 4250 
z
M 2034 4750 
Q 2819 4750 3233 4129 
Q 3647 3509 3647 2328 
Q 3647 1150 3233 529 
Q 2819 -91 2034 -91 
Q 1250 -91 836 529 
Q 422 1150 422 2328 
Q 422 3509 836 4129 
Q 1250 4750 2034 4750 
z
" transform="scale(0.015625)"/>
      </defs>
      <use xlink:href="#DejaVuSans-30"/>
     </g>
    </g>
   </g>
   <g id="text_2">
    <g clip-path="url(#p51074a5c3c)">
     <!-- 1 -->
     <g transform="translate(374.289057 275.926464) scale(0.1 -0.1)">
      <defs>
       <path id="DejaVuSans-31" d="M 794 531 
L 1825 531 
L 1825 4091 
L 703 3866 
L 703 4441 
L 1819 4666 
L 2450 4666 
L 2450 531 
L 3481 531 
L 3481 0 
L 794 0 
L 794 531 
z
" transform="scale(0.015625)"/>
      </defs>
      <use xlink:href="#DejaVuSans-31"/>
     </g>
    </g>
   </g>
   <g id="text_3">
    <g clip-path="url(#p51074a5c3c)">
     <!-- 2 -->
     <g transform="translate(184.722816 318.369292) scale(0.1 -0.1)">
      <defs>
       <path id="DejaVuSans-32" d="M 1228 531 
L 3431 531 
L 3431 0 
L 469 0 
L 469 531 
Q 828 903 1448 1529 
Q 2069 2156 2228 2338 
Q 2531 2678 2651 2914 
Q 2772 3150 2772 3378 
Q 2772 3750 2511 3984 
Q 2250 4219 1831 4219 
Q 1534 4219 1204 4116 
Q 875 4013 500 3803 
L 500 4441 
Q 881 4594 1212 4672 
Q 1544 4750 1819 4750 
Q 2544 4750 2975 4387 
Q 3406 4025 3406 3419 
Q 3406 3131 3298 2873 
Q 3191 2616 2906 2266 
Q 2828 2175 2409 1742 
Q 1991 1309 1228 531 
z
" transform="scale(0.015625)"/>
      </defs>
      <use xlink:href="#DejaVuSans-32"/>
     </g>
    </g>
   </g>
   <g id="text_4">
    <g clip-path="url(#p51074a5c3c)">
     <!-- 3 -->
     <g transform="translate(270.940567 32.749458) scale(0.1 -0.1)">
      <defs>
       <path id="DejaVuSans-33" d="M 2597 2516 
Q 3050 2419 3304 2112 
Q 3559 1806 3559 1356 
Q 3559 666 3084 287 
Q 2609 -91 1734 -91 
Q 1441 -91 1130 -33 
Q 819 25 488 141 
L 488 750 
Q 750 597 1062 519 
Q 1375 441 1716 441 
Q 2309 441 2620 675 
Q 2931 909 2931 1356 
Q 2931 1769 2642 2001 
Q 2353 2234 1838 2234 
L 1294 2234 
L 1294 2753 
L 1863 2753 
Q 2328 2753 2575 2939 
Q 2822 3125 2822 3475 
Q 2822 3834 2567 4026 
Q 2313 4219 1838 4219 
Q 1578 4219 1281 4162 
Q 984 4106 628 3988 
L 628 4550 
Q 988 4650 1302 4700 
Q 1616 4750 1894 4750 
Q 2613 4750 3031 4423 
Q 3450 4097 3450 3541 
Q 3450 3153 3228 2886 
Q 3006 2619 2597 2516 
z
" transform="scale(0.015625)"/>
      </defs>
      <use xlink:href="#DejaVuSans-33"/>
     </g>
    </g>
   </g>
   <g id="text_5">
    <g clip-path="url(#p51074a5c3c)">
     <!-- 4 -->
     <g transform="translate(36.805527 218.679749) scale(0.1 -0.1)">
      <defs>
       <path id="DejaVuSans-34" d="M 2419 4116 
L 825 1625 
L 2419 1625 
L 2419 4116 
z
M 2253 4666 
L 3047 4666 
L 3047 1625 
L 3713 1625 
L 3713 1100 
L 3047 1100 
L 3047 0 
L 2419 0 
L 2419 1100 
L 313 1100 
L 313 1709 
L 2253 4666 
z
" transform="scale(0.015625)"/>
      </defs>
      <use xlink:href="#DejaVuSans-34"/>
     </g>
    </g>
   </g>
   <g id="text_6">
    <g clip-path="url(#p51074a5c3c)">
     <!-- 6 -->
     <g transform="translate(80.004819 75.023969) scale(0.1 -0.1)">
      <defs>
       <path id="DejaVuSans-36" d="M 2113 2584 
Q 1688 2584 1439 2293 
Q 1191 2003 1191 1497 
Q 1191 994 1439 701 
Q 1688 409 2113 409 
Q 2538 409 2786 701 
Q 3034 994 3034 1497 
Q 3034 2003 2786 2293 
Q 2538 2584 2113 2584 
z
M 3366 4563 
L 3366 3988 
Q 3128 4100 2886 4159 
Q 2644 4219 2406 4219 
Q 1781 4219 1451 3797 
Q 1122 3375 1075 2522 
Q 1259 2794 1537 2939 
Q 1816 3084 2150 3084 
Q 2853 3084 3261 2657 
Q 3669 2231 3669 1497 
Q 3669 778 3244 343 
Q 2819 -91 2113 -91 
Q 1303 -91 875 529 
Q 447 1150 447 2328 
Q 447 3434 972 4092 
Q 1497 4750 2381 4750 
Q 2619 4750 2861 4703 
Q 3103 4656 3366 4563 
z
" transform="scale(0.015625)"/>
      </defs>
      <use xlink:href="#DejaVuSans-36"/>
     </g>
    </g>
   </g>
  </g>
 </g>
 <defs>
  <clipPath id="p51074a5c3c">
   <rect x="0" y="0" width="460.8" height="345.6"/>
  </clipPath>
 </defs>
</svg>
