<?xml version="1.0" encoding="utf-8" standalone="no"?>
<!DOCTYPE svg PUBLIC "-//W3C//DTD SVG 1.1//EN"
  "http://www.w3.org/Graphics/SVG/1.1/DTD/svg11.dtd">
<svg xmlns:xlink="http://www.w3.org/1999/xlink" width="460.8pt" height="345.6pt" viewBox="0 0 460.8 345.6" xmlns="http://www.w3.org/2000/svg" version="1.1">
 <metadata>
  <rdf:RDF xmlns:dc="http://purl.org/dc/elements/1.1/" xmlns:cc="http://creativecommons.org/ns#" xmlns:rdf="http://www.w3.org/1999/02/22-rdf-syntax-ns#">
   <cc:Work>
    <dc:type rdf:resource="http://purl.org/dc/dcmitype/StillImage"/>
    <dc:date>2024-02-07T14:34:38.605302</dc:date>
    <dc:format>image/svg+xml</dc:format>
    <dc:creator>
     <cc:Agent>
      <dc:title>Matplotlib v3.8.0, https://matplotlib.org/</dc:title>
     </cc:Agent>
    </dc:creator>
   </cc:Work>
  </rdf:RDF>
 </metadata>
 <defs>
  <style type="text/css">*{stroke-linejoin: round; stroke-linecap: butt}</style>
 </defs>
 <g id="figure_1">
  <g id="patch_1">
   <path d="M 0 345.6 
L 460.8 345.6 
L 460.8 0 
L 0 0 
z
" style="fill: #ffffff"/>
  </g>
  <g id="axes_1">
   <g id="patch_2">
    <path d="M 202.158852 314.803054 
Q 131.409084 282.312208 61.675333 250.287953 
" clip-path="url(#pb21b7119ca)" style="fill: none; stroke: #000000; stroke-linecap: round"/>
    <path d="M 64.475684 253.774791 
L 61.675333 250.287953 
L 66.145014 250.139776 
z
" clip-path="url(#pb21b7119ca)" style="stroke: #000000; stroke-linecap: round"/>
   </g>
   <g id="patch_3">
    <path d="M 205.784495 315.097148 
Q 284.169645 293.58804 361.476615 272.374787 
" clip-path="url(#pb21b7119ca)" style="fill: none; stroke: #000000; stroke-linecap: round"/>
    <path d="M 357.089963 271.504566 
L 361.476615 272.374787 
L 358.148448 275.361976 
z
" clip-path="url(#pb21b7119ca)" style="stroke: #000000; stroke-linecap: round"/>
   </g>
   <g id="patch_4">
    <path d="M 60.65437 249.81909 
Q 131.404138 282.309937 201.137889 314.334191 
" clip-path="url(#pb21b7119ca)" style="fill: none; stroke: #000000; stroke-linecap: round"/>
    <path d="M 198.337539 310.847353 
L 201.137889 314.334191 
L 196.668208 314.482369 
z
" clip-path="url(#pb21b7119ca)" style="stroke: #000000; stroke-linecap: round"/>
   </g>
   <g id="patch_5">
    <path d="M 58.614043 247.099658 
Q 49.442241 185.193403 40.434293 124.39311 
" clip-path="url(#pb21b7119ca)" style="fill: none; stroke: #000000; stroke-linecap: round"/>
    <path d="M 39.042115 128.643032 
L 40.434293 124.39311 
L 42.998924 128.056806 
z
" clip-path="url(#pb21b7119ca)" style="stroke: #000000; stroke-linecap: round"/>
   </g>
   <g id="patch_6">
    <path d="M 40.270136 123.285111 
Q 49.441939 185.191366 58.449886 245.991659 
" clip-path="url(#pb21b7119ca)" style="fill: none; stroke: #000000; stroke-linecap: round"/>
    <path d="M 59.842065 241.741737 
L 58.449886 245.991659 
L 55.885255 242.327963 
z
" clip-path="url(#pb21b7119ca)" style="stroke: #000000; stroke-linecap: round"/>
   </g>
   <g id="patch_7">
    <path d="M 41.531266 120.198469 
Q 100.096143 75.679276 157.770956 31.836682 
" clip-path="url(#pb21b7119ca)" style="fill: none; stroke: #000000; stroke-linecap: round"/>
    <path d="M 153.37623 32.665161 
L 157.770956 31.836682 
L 155.796904 35.84955 
z
" clip-path="url(#pb21b7119ca)" style="stroke: #000000; stroke-linecap: round"/>
   </g>
   <g id="patch_8">
    <path d="M 362.552403 272.079588 
Q 284.167253 293.588696 206.860283 314.801948 
" clip-path="url(#pb21b7119ca)" style="fill: none; stroke: #000000; stroke-linecap: round"/>
    <path d="M 211.246935 315.672169 
L 206.860283 314.801948 
L 210.18845 311.814759 
z
" clip-path="url(#pb21b7119ca)" style="stroke: #000000; stroke-linecap: round"/>
   </g>
   <g id="patch_9">
    <path d="M 365.238531 269.808406 
Q 392.617988 210.912762 419.526132 153.030954 
" clip-path="url(#pb21b7119ca)" style="fill: none; stroke: #000000; stroke-linecap: round"/>
    <path d="M 416.026305 155.815055 
L 419.526132 153.030954 
L 419.653516 157.501276 
z
" clip-path="url(#pb21b7119ca)" style="stroke: #000000; stroke-linecap: round"/>
   </g>
   <g id="patch_10">
    <path d="M 158.655663 31.164155 
Q 100.090786 75.683348 42.415973 119.525942 
" clip-path="url(#pb21b7119ca)" style="fill: none; stroke: #000000; stroke-linecap: round"/>
    <path d="M 46.8107 118.697463 
L 42.415973 119.525942 
L 44.390026 115.513074 
z
" clip-path="url(#pb21b7119ca)" style="stroke: #000000; stroke-linecap: round"/>
   </g>
   <g id="patch_11">
    <path d="M 162.131998 30.133843 
Q 245.399611 36.330306 327.552274 42.443798 
" clip-path="url(#pb21b7119ca)" style="fill: none; stroke: #000000; stroke-linecap: round"/>
    <path d="M 323.711725 40.152469 
L 327.552274 42.443798 
L 323.414881 44.141439 
z
" clip-path="url(#pb21b7119ca)" style="stroke: #000000; stroke-linecap: round"/>
   </g>
   <g id="patch_12">
    <path d="M 328.665887 42.526669 
Q 245.398274 36.330206 163.245611 30.216714 
" clip-path="url(#pb21b7119ca)" style="fill: none; stroke: #000000; stroke-linecap: round"/>
    <path d="M 167.08616 32.508044 
L 163.245611 30.216714 
L 167.383004 28.519073 
z
" clip-path="url(#pb21b7119ca)" style="stroke: #000000; stroke-linecap: round"/>
   </g>
   <g id="patch_13">
    <path d="M 331.839407 44.151262 
Q 375.703162 96.463605 418.848561 147.919231 
" clip-path="url(#pb21b7119ca)" style="fill: none; stroke: #000000; stroke-linecap: round"/>
    <path d="M 417.811037 143.569111 
L 418.848561 147.919231 
L 414.745951 146.139177 
z
" clip-path="url(#pb21b7119ca)" style="stroke: #000000; stroke-linecap: round"/>
   </g>
   <g id="patch_14">
    <path d="M 419.995771 152.020718 
Q 392.616314 210.916362 365.70817 268.79817 
" clip-path="url(#pb21b7119ca)" style="fill: none; stroke: #000000; stroke-linecap: round"/>
    <path d="M 369.207996 266.014069 
L 365.70817 268.79817 
L 365.580785 264.327848 
z
" clip-path="url(#pb21b7119ca)" style="stroke: #000000; stroke-linecap: round"/>
   </g>
   <g id="patch_15">
    <path d="M 419.571549 148.781473 
Q 375.707794 96.46913 332.562395 45.013505 
" clip-path="url(#pb21b7119ca)" style="fill: none; stroke: #000000; stroke-linecap: round"/>
    <path d="M 333.599918 49.363625 
L 332.562395 45.013505 
L 336.665005 46.793558 
z
" clip-path="url(#pb21b7119ca)" style="stroke: #000000; stroke-linecap: round"/>
   </g>
   <g id="PathCollection_1">
    <defs>
     <path id="C0_0_8ba9712f1e" d="M 0 1.936492 
C 0.513564 1.936492 1.006162 1.732451 1.369306 1.369306 
C 1.732451 1.006162 1.936492 0.513564 1.936492 -0 
C 1.936492 -0.513564 1.732451 -1.006162 1.369306 -1.369306 
C 1.006162 -1.732451 0.513564 -1.936492 0 -1.936492 
C -0.513564 -1.936492 -1.006162 -1.732451 -1.369306 -1.369306 
C -1.732451 -1.006162 -1.936492 -0.513564 -1.936492 0 
C -1.936492 0.513564 -1.732451 1.006162 -1.369306 1.369306 
C -1.006162 1.732451 -0.513564 1.936492 0 1.936492 
z
"/>
    </defs>
    <g clip-path="url(#pb21b7119ca)">
     <use xlink:href="#C0_0_8ba9712f1e" x="203.915819" y="315.609917" style="fill: #ff0000; stroke: #ff0000"/>
    </g>
    <g clip-path="url(#pb21b7119ca)">
     <use xlink:href="#C0_0_8ba9712f1e" x="58.897403" y="249.012227" style="fill: #ff0000; stroke: #ff0000"/>
    </g>
    <g clip-path="url(#pb21b7119ca)">
     <use xlink:href="#C0_0_8ba9712f1e" x="39.986777" y="121.372541" style="fill: #ff0000; stroke: #ff0000"/>
    </g>
    <g clip-path="url(#pb21b7119ca)">
     <use xlink:href="#C0_0_8ba9712f1e" x="364.421079" y="271.566818" style="fill: #ff0000; stroke: #ff0000"/>
    </g>
    <g clip-path="url(#pb21b7119ca)">
     <use xlink:href="#C0_0_8ba9712f1e" x="160.200152" y="29.990083" style="fill: #ff0000; stroke: #ff0000"/>
    </g>
    <g clip-path="url(#pb21b7119ca)">
     <use xlink:href="#C0_0_8ba9712f1e" x="330.597733" y="42.670429" style="stroke: #000000"/>
    </g>
    <g clip-path="url(#pb21b7119ca)">
     <use xlink:href="#C0_0_8ba9712f1e" x="420.813223" y="150.262306" style="fill: #ff0000; stroke: #ff0000"/>
    </g>
   </g>
   <g id="text_1">
    <g clip-path="url(#pb21b7119ca)">
     <!-- 0 -->
     <g transform="translate(200.734569 318.369292) scale(0.1 -0.1)">
      <defs>
       <path id="DejaVuSans-30" d="M 2034 4250 
Q 1547 4250 1301 3770 
Q 1056 3291 1056 2328 
Q 1056 1369 1301 889 
Q 1547 409 2034 409 
Q 2525 409 2770 889 
Q 3016 1369 3016 2328 
Q 3016 3291 2770 3770 
Q 2525 4250 2034 4250 
z
M 2034 4750 
Q 2819 4750 3233 4129 
Q 3647 3509 3647 2328 
Q 3647 1150 3233 529 
Q 2819 -91 2034 -91 
Q 1250 -91 836 529 
Q 422 1150 422 2328 
Q 422 3509 836 4129 
Q 1250 4750 2034 4750 
z
" transform="scale(0.015625)"/>
      </defs>
      <use xlink:href="#DejaVuSans-30"/>
     </g>
    </g>
   </g>
   <g id="text_2">
    <g clip-path="url(#pb21b7119ca)">
     <!-- 1 -->
     <g transform="translate(55.716153 251.771602) scale(0.1 -0.1)">
      <defs>
       <path id="DejaVuSans-31" d="M 794 531 
L 1825 531 
L 1825 4091 
L 703 3866 
L 703 4441 
L 1819 4666 
L 2450 4666 
L 2450 531 
L 3481 531 
L 3481 0 
L 794 0 
L 794 531 
z
" transform="scale(0.015625)"/>
      </defs>
      <use xlink:href="#DejaVuSans-31"/>
     </g>
    </g>
   </g>
   <g id="text_3">
    <g clip-path="url(#pb21b7119ca)">
     <!-- 2 -->
     <g transform="translate(36.805527 124.131916) scale(0.1 -0.1)">
      <defs>
       <path id="DejaVuSans-32" d="M 1228 531 
L 3431 531 
L 3431 0 
L 469 0 
L 469 531 
Q 828 903 1448 1529 
Q 2069 2156 2228 2338 
Q 2531 2678 2651 2914 
Q 2772 3150 2772 3378 
Q 2772 3750 2511 3984 
Q 2250 4219 1831 4219 
Q 1534 4219 1204 4116 
Q 875 4013 500 3803 
L 500 4441 
Q 881 4594 1212 4672 
Q 1544 4750 1819 4750 
Q 2544 4750 2975 4387 
Q 3406 4025 3406 3419 
Q 3406 3131 3298 2873 
Q 3191 2616 2906 2266 
Q 2828 2175 2409 1742 
Q 1991 1309 1228 531 
z
" transform="scale(0.015625)"/>
      </defs>
      <use xlink:href="#DejaVuSans-32"/>
     </g>
    </g>
   </g>
   <g id="text_4">
    <g clip-path="url(#pb21b7119ca)">
     <!-- 3 -->
     <g transform="translate(361.239829 274.326193) scale(0.1 -0.1)">
      <defs>
       <path id="DejaVuSans-33" d="M 2597 2516 
Q 3050 2419 3304 2112 
Q 3559 1806 3559 1356 
Q 3559 666 3084 287 
Q 2609 -91 1734 -91 
Q 1441 -91 1130 -33 
Q 819 25 488 141 
L 488 750 
Q 750 597 1062 519 
Q 1375 441 1716 441 
Q 2309 441 2620 675 
Q 2931 909 2931 1356 
Q 2931 1769 2642 2001 
Q 2353 2234 1838 2234 
L 1294 2234 
L 1294 2753 
L 1863 2753 
Q 2328 2753 2575 2939 
Q 2822 3125 2822 3475 
Q 2822 3834 2567 4026 
Q 2313 4219 1838 4219 
Q 1578 4219 1281 4162 
Q 984 4106 628 3988 
L 628 4550 
Q 988 4650 1302 4700 
Q 1616 4750 1894 4750 
Q 2613 4750 3031 4423 
Q 3450 4097 3450 3541 
Q 3450 3153 3228 2886 
Q 3006 2619 2597 2516 
z
" transform="scale(0.015625)"/>
      </defs>
      <use xlink:href="#DejaVuSans-33"/>
     </g>
    </g>
   </g>
   <g id="text_5">
    <g clip-path="url(#pb21b7119ca)">
     <!-- 4 -->
     <g transform="translate(157.018902 32.749458) scale(0.1 -0.1)">
      <defs>
       <path id="DejaVuSans-34" d="M 2419 4116 
L 825 1625 
L 2419 1625 
L 2419 4116 
z
M 2253 4666 
L 3047 4666 
L 3047 1625 
L 3713 1625 
L 3713 1100 
L 3047 1100 
L 3047 0 
L 2419 0 
L 2419 1100 
L 313 1100 
L 313 1709 
L 2253 4666 
z
" transform="scale(0.015625)"/>
      </defs>
      <use xlink:href="#DejaVuSans-34"/>
     </g>
    </g>
   </g>
   <g id="text_6">
    <g clip-path="url(#pb21b7119ca)">
     <!-- 5 -->
     <g transform="translate(327.416483 45.429804) scale(0.1 -0.1)">
      <defs>
       <path id="DejaVuSans-35" d="M 691 4666 
L 3169 4666 
L 3169 4134 
L 1269 4134 
L 1269 2991 
Q 1406 3038 1543 3061 
Q 1681 3084 1819 3084 
Q 2600 3084 3056 2656 
Q 3513 2228 3513 1497 
Q 3513 744 3044 326 
Q 2575 -91 1722 -91 
Q 1428 -91 1123 -41 
Q 819 9 494 109 
L 494 744 
Q 775 591 1075 516 
Q 1375 441 1709 441 
Q 2250 441 2565 725 
Q 2881 1009 2881 1497 
Q 2881 1984 2565 2268 
Q 2250 2553 1709 2553 
Q 1456 2553 1204 2497 
Q 953 2441 691 2322 
L 691 4666 
z
" transform="scale(0.015625)"/>
      </defs>
      <use xlink:href="#DejaVuSans-35"/>
     </g>
    </g>
   </g>
   <g id="text_7">
    <g clip-path="url(#pb21b7119ca)">
     <!-- 6 -->
     <g transform="translate(417.631973 153.021681) scale(0.1 -0.1)">
      <defs>
       <path id="DejaVuSans-36" d="M 2113 2584 
Q 1688 2584 1439 2293 
Q 1191 2003 1191 1497 
Q 1191 994 1439 701 
Q 1688 409 2113 409 
Q 2538 409 2786 701 
Q 3034 994 3034 1497 
Q 3034 2003 2786 2293 
Q 2538 2584 2113 2584 
z
M 3366 4563 
L 3366 3988 
Q 3128 4100 2886 4159 
Q 2644 4219 2406 4219 
Q 1781 4219 1451 3797 
Q 1122 3375 1075 2522 
Q 1259 2794 1537 2939 
Q 1816 3084 2150 3084 
Q 2853 3084 3261 2657 
Q 3669 2231 3669 1497 
Q 3669 778 3244 343 
Q 2819 -91 2113 -91 
Q 1303 -91 875 529 
Q 447 1150 447 2328 
Q 447 3434 972 4092 
Q 1497 4750 2381 4750 
Q 2619 4750 2861 4703 
Q 3103 4656 3366 4563 
z
" transform="scale(0.015625)"/>
      </defs>
      <use xlink:href="#DejaVuSans-36"/>
     </g>
    </g>
   </g>
  </g>
 </g>
 <defs>
  <clipPath id="pb21b7119ca">
   <rect x="0" y="0" width="460.8" height="345.6"/>
  </clipPath>
 </defs>
</svg>
