<?xml version="1.0" encoding="utf-8" standalone="no"?>
<!DOCTYPE svg PUBLIC "-//W3C//DTD SVG 1.1//EN"
  "http://www.w3.org/Graphics/SVG/1.1/DTD/svg11.dtd">
<svg xmlns:xlink="http://www.w3.org/1999/xlink" width="460.8pt" height="345.6pt" viewBox="0 0 460.8 345.6" xmlns="http://www.w3.org/2000/svg" version="1.1">
 <metadata>
  <rdf:RDF xmlns:dc="http://purl.org/dc/elements/1.1/" xmlns:cc="http://creativecommons.org/ns#" xmlns:rdf="http://www.w3.org/1999/02/22-rdf-syntax-ns#">
   <cc:Work>
    <dc:type rdf:resource="http://purl.org/dc/dcmitype/StillImage"/>
    <dc:date>2024-02-07T13:46:20.204781</dc:date>
    <dc:format>image/svg+xml</dc:format>
    <dc:creator>
     <cc:Agent>
      <dc:title>Matplotlib v3.8.0, https://matplotlib.org/</dc:title>
     </cc:Agent>
    </dc:creator>
   </cc:Work>
  </rdf:RDF>
 </metadata>
 <defs>
  <style type="text/css">*{stroke-linejoin: round; stroke-linecap: butt}</style>
 </defs>
 <g id="figure_1">
  <g id="patch_1">
   <path d="M 0 345.6 
L 460.8 345.6 
L 460.8 0 
L 0 0 
z
" style="fill: #ffffff"/>
  </g>
  <g id="axes_1">
   <g id="patch_2">
    <path d="M 173.317187 315.346584 
Q 255.571503 304.058399 336.718168 292.922222 
" clip-path="url(#pb4f853aa22)" style="fill: none; stroke: #000000; stroke-linecap: round"/>
    <path d="M 332.483389 291.484637 
L 336.718168 292.922222 
L 333.027232 295.447494 
z
" clip-path="url(#pb4f853aa22)" style="stroke: #000000; stroke-linecap: round"/>
   </g>
   <g id="patch_3">
    <path d="M 169.758102 314.577677 
Q 105.690243 274.258268 42.568631 234.534355 
" clip-path="url(#pb4f853aa22)" style="fill: none; stroke: #000000; stroke-linecap: round"/>
    <path d="M 44.888774 238.357565 
L 42.568631 234.534355 
L 47.019285 234.972166 
z
" clip-path="url(#pb4f853aa22)" style="stroke: #000000; stroke-linecap: round"/>
   </g>
   <g id="patch_4">
    <path d="M 337.824264 292.770426 
Q 255.569947 304.058612 174.423283 315.194789 
" clip-path="url(#pb4f853aa22)" style="fill: none; stroke: #000000; stroke-linecap: round"/>
    <path d="M 178.658062 316.632374 
L 174.423283 315.194789 
L 178.114218 312.669517 
z
" clip-path="url(#pb4f853aa22)" style="stroke: #000000; stroke-linecap: round"/>
   </g>
   <g id="patch_5">
    <path d="M 340.873758 290.934838 
Q 380.278733 236.139049 419.030959 182.25096 
" clip-path="url(#pb4f853aa22)" style="fill: none; stroke: #000000; stroke-linecap: round"/>
    <path d="M 415.07187 184.330773 
L 419.030959 182.25096 
L 418.319356 186.666118 
z
" clip-path="url(#pb4f853aa22)" style="stroke: #000000; stroke-linecap: round"/>
   </g>
   <g id="patch_6">
    <path d="M 419.682576 181.344833 
Q 380.277601 236.140622 341.525375 290.028711 
" clip-path="url(#pb4f853aa22)" style="fill: none; stroke: #000000; stroke-linecap: round"/>
    <path d="M 345.484463 287.948898 
L 341.525375 290.028711 
L 342.236978 285.613553 
z
" clip-path="url(#pb4f853aa22)" style="stroke: #000000; stroke-linecap: round"/>
   </g>
   <g id="patch_7">
    <path d="M 419.824039 178.110699 
Q 385.81077 120.966755 352.369345 64.783537 
" clip-path="url(#pb4f853aa22)" style="fill: none; stroke: #000000; stroke-linecap: round"/>
    <path d="M 352.696638 69.24368 
L 352.369345 64.783537 
L 356.133836 67.197789 
z
" clip-path="url(#pb4f853aa22)" style="stroke: #000000; stroke-linecap: round"/>
   </g>
   <g id="patch_8">
    <path d="M 41.627015 233.941774 
Q 105.694874 274.261183 168.816486 313.985096 
" clip-path="url(#pb4f853aa22)" style="fill: none; stroke: #000000; stroke-linecap: round"/>
    <path d="M 166.496343 310.161886 
L 168.816486 313.985096 
L 164.365832 313.547284 
z
" clip-path="url(#pb4f853aa22)" style="stroke: #000000; stroke-linecap: round"/>
   </g>
   <g id="patch_9">
    <path d="M 40.085499 230.973312 
Q 43.254352 168.823353 46.366273 107.789978 
" clip-path="url(#pb4f853aa22)" style="fill: none; stroke: #000000; stroke-linecap: round"/>
    <path d="M 44.165183 111.682947 
L 46.366273 107.789978 
L 48.159994 111.886631 
z
" clip-path="url(#pb4f853aa22)" style="stroke: #000000; stroke-linecap: round"/>
   </g>
   <g id="patch_10">
    <path d="M 351.794628 63.817984 
Q 385.807896 120.961928 419.249321 177.145146 
" clip-path="url(#pb4f853aa22)" style="fill: none; stroke: #000000; stroke-linecap: round"/>
    <path d="M 418.922028 172.685002 
L 419.249321 177.145146 
L 415.48483 174.730894 
z
" clip-path="url(#pb4f853aa22)" style="stroke: #000000; stroke-linecap: round"/>
   </g>
   <g id="patch_11">
    <path d="M 348.906028 61.788485 
Q 267.709608 46.073419 187.610852 30.570799 
" clip-path="url(#pb4f853aa22)" style="fill: none; stroke: #000000; stroke-linecap: round"/>
    <path d="M 191.15794 33.294431 
L 187.610852 30.570799 
L 191.91801 29.367308 
z
" clip-path="url(#pb4f853aa22)" style="stroke: #000000; stroke-linecap: round"/>
   </g>
   <g id="patch_12">
    <path d="M 186.509827 30.357703 
Q 267.706247 46.072769 347.805002 61.575388 
" clip-path="url(#pb4f853aa22)" style="fill: none; stroke: #000000; stroke-linecap: round"/>
    <path d="M 344.257915 58.851757 
L 347.805002 61.575388 
L 343.497844 62.778879 
z
" clip-path="url(#pb4f853aa22)" style="stroke: #000000; stroke-linecap: round"/>
   </g>
   <g id="patch_13">
    <path d="M 182.903691 30.913909 
Q 115.563986 67.364046 49.207515 103.281971 
" clip-path="url(#pb4f853aa22)" style="fill: none; stroke: #000000; stroke-linecap: round"/>
    <path d="M 53.677292 103.136733 
L 49.207515 103.281971 
L 51.773191 99.619007 
z
" clip-path="url(#pb4f853aa22)" style="stroke: #000000; stroke-linecap: round"/>
   </g>
   <g id="patch_14">
    <path d="M 46.423284 106.671824 
Q 43.254432 168.821782 40.142511 229.855157 
" clip-path="url(#pb4f853aa22)" style="fill: none; stroke: #000000; stroke-linecap: round"/>
    <path d="M 42.343601 225.962189 
L 40.142511 229.855157 
L 38.34879 225.758505 
z
" clip-path="url(#pb4f853aa22)" style="stroke: #000000; stroke-linecap: round"/>
   </g>
   <g id="patch_15">
    <path d="M 48.228727 103.811777 
Q 115.568432 67.361639 181.924903 31.443715 
" clip-path="url(#pb4f853aa22)" style="fill: none; stroke: #000000; stroke-linecap: round"/>
    <path d="M 177.455126 31.588952 
L 181.924903 31.443715 
L 179.359228 35.106679 
z
" clip-path="url(#pb4f853aa22)" style="stroke: #000000; stroke-linecap: round"/>
   </g>
   <g id="PathCollection_1">
    <defs>
     <path id="m904bc8c1cd" d="M 0 1.936492 
C 0.513564 1.936492 1.006162 1.732451 1.369306 1.369306 
C 1.732451 1.006162 1.936492 0.513564 1.936492 0 
C 1.936492 -0.513564 1.732451 -1.006162 1.369306 -1.369306 
C 1.006162 -1.732451 0.513564 -1.936492 0 -1.936492 
C -0.513564 -1.936492 -1.006162 -1.732451 -1.369306 -1.369306 
C -1.732451 -1.006162 -1.936492 -0.513564 -1.936492 0 
C -1.936492 0.513564 -1.732451 1.006162 -1.369306 1.369306 
C -1.006162 1.732451 -0.513564 1.936492 0 1.936492 
z
" style="stroke: #1f78b4"/>
    </defs>
    <g clip-path="url(#pb4f853aa22)">
     <use xlink:href="#m904bc8c1cd" x="171.39834" y="315.609917" style="fill: #1f78b4; stroke: #1f78b4"/>
     <use xlink:href="#m904bc8c1cd" x="339.743111" y="292.507093" style="fill: #1f78b4; stroke: #1f78b4"/>
     <use xlink:href="#m904bc8c1cd" x="420.813223" y="179.772577" style="fill: #1f78b4; stroke: #1f78b4"/>
     <use xlink:href="#m904bc8c1cd" x="39.986777" y="232.909533" style="fill: #1f78b4; stroke: #1f78b4"/>
     <use xlink:href="#m904bc8c1cd" x="350.805443" y="62.156105" style="fill: #1f78b4; stroke: #1f78b4"/>
     <use xlink:href="#m904bc8c1cd" x="184.610412" y="29.990083" style="fill: #1f78b4; stroke: #1f78b4"/>
     <use xlink:href="#m904bc8c1cd" x="46.522007" y="104.735603" style="fill: #1f78b4; stroke: #1f78b4"/>
    </g>
   </g>
   <g id="text_1">
    <g clip-path="url(#pb4f853aa22)">
     <!-- 0 -->
     <g transform="translate(168.21709 318.369292) scale(0.1 -0.1)">
      <defs>
       <path id="DejaVuSans-30" d="M 2034 4250 
Q 1547 4250 1301 3770 
Q 1056 3291 1056 2328 
Q 1056 1369 1301 889 
Q 1547 409 2034 409 
Q 2525 409 2770 889 
Q 3016 1369 3016 2328 
Q 3016 3291 2770 3770 
Q 2525 4250 2034 4250 
z
M 2034 4750 
Q 2819 4750 3233 4129 
Q 3647 3509 3647 2328 
Q 3647 1150 3233 529 
Q 2819 -91 2034 -91 
Q 1250 -91 836 529 
Q 422 1150 422 2328 
Q 422 3509 836 4129 
Q 1250 4750 2034 4750 
z
" transform="scale(0.015625)"/>
      </defs>
      <use xlink:href="#DejaVuSans-30"/>
     </g>
    </g>
   </g>
   <g id="text_2">
    <g clip-path="url(#pb4f853aa22)">
     <!-- 1 -->
     <g transform="translate(336.561861 295.266468) scale(0.1 -0.1)">
      <defs>
       <path id="DejaVuSans-31" d="M 794 531 
L 1825 531 
L 1825 4091 
L 703 3866 
L 703 4441 
L 1819 4666 
L 2450 4666 
L 2450 531 
L 3481 531 
L 3481 0 
L 794 0 
L 794 531 
z
" transform="scale(0.015625)"/>
      </defs>
      <use xlink:href="#DejaVuSans-31"/>
     </g>
    </g>
   </g>
   <g id="text_3">
    <g clip-path="url(#pb4f853aa22)">
     <!-- 2 -->
     <g transform="translate(417.631973 182.531952) scale(0.1 -0.1)">
      <defs>
       <path id="DejaVuSans-32" d="M 1228 531 
L 3431 531 
L 3431 0 
L 469 0 
L 469 531 
Q 828 903 1448 1529 
Q 2069 2156 2228 2338 
Q 2531 2678 2651 2914 
Q 2772 3150 2772 3378 
Q 2772 3750 2511 3984 
Q 2250 4219 1831 4219 
Q 1534 4219 1204 4116 
Q 875 4013 500 3803 
L 500 4441 
Q 881 4594 1212 4672 
Q 1544 4750 1819 4750 
Q 2544 4750 2975 4387 
Q 3406 4025 3406 3419 
Q 3406 3131 3298 2873 
Q 3191 2616 2906 2266 
Q 2828 2175 2409 1742 
Q 1991 1309 1228 531 
z
" transform="scale(0.015625)"/>
      </defs>
      <use xlink:href="#DejaVuSans-32"/>
     </g>
    </g>
   </g>
   <g id="text_4">
    <g clip-path="url(#pb4f853aa22)">
     <!-- 3 -->
     <g transform="translate(36.805527 235.668908) scale(0.1 -0.1)">
      <defs>
       <path id="DejaVuSans-33" d="M 2597 2516 
Q 3050 2419 3304 2112 
Q 3559 1806 3559 1356 
Q 3559 666 3084 287 
Q 2609 -91 1734 -91 
Q 1441 -91 1130 -33 
Q 819 25 488 141 
L 488 750 
Q 750 597 1062 519 
Q 1375 441 1716 441 
Q 2309 441 2620 675 
Q 2931 909 2931 1356 
Q 2931 1769 2642 2001 
Q 2353 2234 1838 2234 
L 1294 2234 
L 1294 2753 
L 1863 2753 
Q 2328 2753 2575 2939 
Q 2822 3125 2822 3475 
Q 2822 3834 2567 4026 
Q 2313 4219 1838 4219 
Q 1578 4219 1281 4162 
Q 984 4106 628 3988 
L 628 4550 
Q 988 4650 1302 4700 
Q 1616 4750 1894 4750 
Q 2613 4750 3031 4423 
Q 3450 4097 3450 3541 
Q 3450 3153 3228 2886 
Q 3006 2619 2597 2516 
z
" transform="scale(0.015625)"/>
      </defs>
      <use xlink:href="#DejaVuSans-33"/>
     </g>
    </g>
   </g>
   <g id="text_5">
    <g clip-path="url(#pb4f853aa22)">
     <!-- 4 -->
     <g transform="translate(347.624193 64.91548) scale(0.1 -0.1)">
      <defs>
       <path id="DejaVuSans-34" d="M 2419 4116 
L 825 1625 
L 2419 1625 
L 2419 4116 
z
M 2253 4666 
L 3047 4666 
L 3047 1625 
L 3713 1625 
L 3713 1100 
L 3047 1100 
L 3047 0 
L 2419 0 
L 2419 1100 
L 313 1100 
L 313 1709 
L 2253 4666 
z
" transform="scale(0.015625)"/>
      </defs>
      <use xlink:href="#DejaVuSans-34"/>
     </g>
    </g>
   </g>
   <g id="text_6">
    <g clip-path="url(#pb4f853aa22)">
     <!-- 5 -->
     <g transform="translate(181.429162 32.749458) scale(0.1 -0.1)">
      <defs>
       <path id="DejaVuSans-35" d="M 691 4666 
L 3169 4666 
L 3169 4134 
L 1269 4134 
L 1269 2991 
Q 1406 3038 1543 3061 
Q 1681 3084 1819 3084 
Q 2600 3084 3056 2656 
Q 3513 2228 3513 1497 
Q 3513 744 3044 326 
Q 2575 -91 1722 -91 
Q 1428 -91 1123 -41 
Q 819 9 494 109 
L 494 744 
Q 775 591 1075 516 
Q 1375 441 1709 441 
Q 2250 441 2565 725 
Q 2881 1009 2881 1497 
Q 2881 1984 2565 2268 
Q 2250 2553 1709 2553 
Q 1456 2553 1204 2497 
Q 953 2441 691 2322 
L 691 4666 
z
" transform="scale(0.015625)"/>
      </defs>
      <use xlink:href="#DejaVuSans-35"/>
     </g>
    </g>
   </g>
   <g id="text_7">
    <g clip-path="url(#pb4f853aa22)">
     <!-- 6 -->
     <g transform="translate(43.340757 107.494978) scale(0.1 -0.1)">
      <defs>
       <path id="DejaVuSans-36" d="M 2113 2584 
Q 1688 2584 1439 2293 
Q 1191 2003 1191 1497 
Q 1191 994 1439 701 
Q 1688 409 2113 409 
Q 2538 409 2786 701 
Q 3034 994 3034 1497 
Q 3034 2003 2786 2293 
Q 2538 2584 2113 2584 
z
M 3366 4563 
L 3366 3988 
Q 3128 4100 2886 4159 
Q 2644 4219 2406 4219 
Q 1781 4219 1451 3797 
Q 1122 3375 1075 2522 
Q 1259 2794 1537 2939 
Q 1816 3084 2150 3084 
Q 2853 3084 3261 2657 
Q 3669 2231 3669 1497 
Q 3669 778 3244 343 
Q 2819 -91 2113 -91 
Q 1303 -91 875 529 
Q 447 1150 447 2328 
Q 447 3434 972 4092 
Q 1497 4750 2381 4750 
Q 2619 4750 2861 4703 
Q 3103 4656 3366 4563 
z
" transform="scale(0.015625)"/>
      </defs>
      <use xlink:href="#DejaVuSans-36"/>
     </g>
    </g>
   </g>
  </g>
 </g>
 <defs>
  <clipPath id="pb4f853aa22">
   <rect x="0" y="0" width="460.8" height="345.6"/>
  </clipPath>
 </defs>
</svg>
