<?xml version="1.0" encoding="utf-8" standalone="no"?>
<!DOCTYPE svg PUBLIC "-//W3C//DTD SVG 1.1//EN"
  "http://www.w3.org/Graphics/SVG/1.1/DTD/svg11.dtd">
<svg xmlns:xlink="http://www.w3.org/1999/xlink" width="460.8pt" height="345.6pt" viewBox="0 0 460.8 345.6" xmlns="http://www.w3.org/2000/svg" version="1.1">
 <metadata>
  <rdf:RDF xmlns:dc="http://purl.org/dc/elements/1.1/" xmlns:cc="http://creativecommons.org/ns#" xmlns:rdf="http://www.w3.org/1999/02/22-rdf-syntax-ns#">
   <cc:Work>
    <dc:type rdf:resource="http://purl.org/dc/dcmitype/StillImage"/>
    <dc:date>2024-02-07T14:34:12.855547</dc:date>
    <dc:format>image/svg+xml</dc:format>
    <dc:creator>
     <cc:Agent>
      <dc:title>Matplotlib v3.8.0, https://matplotlib.org/</dc:title>
     </cc:Agent>
    </dc:creator>
   </cc:Work>
  </rdf:RDF>
 </metadata>
 <defs>
  <style type="text/css">*{stroke-linejoin: round; stroke-linecap: butt}</style>
 </defs>
 <g id="figure_1">
  <g id="patch_1">
   <path d="M 0 345.6 
L 460.8 345.6 
L 460.8 0 
L 0 0 
z
" style="fill: #ffffff"/>
  </g>
  <g id="axes_1">
   <g id="patch_2">
    <path d="M 121.607052 45.149739 
Q 147.090368 39.051475 171.48635 33.213415 
" clip-path="url(#pec2c75f3ab)" style="fill: none; stroke: #000000; stroke-linecap: round"/>
    <path d="M 167.130721 32.199266 
L 171.48635 33.213415 
L 168.061654 36.089428 
z
" clip-path="url(#pec2c75f3ab)" style="stroke: #000000; stroke-linecap: round"/>
   </g>
   <g id="patch_3">
    <path d="M 120.233018 47.470381 
Q 126.869479 71.977123 133.2137 95.4047 
" clip-path="url(#pec2c75f3ab)" style="fill: none; stroke: #000000; stroke-linecap: round"/>
    <path d="M 134.098621 91.02099 
L 133.2137 95.4047 
L 130.237684 92.066537 
z
" clip-path="url(#pec2c75f3ab)" style="stroke: #000000; stroke-linecap: round"/>
   </g>
   <g id="patch_4">
    <path d="M 271.62058 291.015592 
Q 271.380931 267.422593 271.152639 244.94757 
" clip-path="url(#pec2c75f3ab)" style="fill: none; stroke: #000000; stroke-linecap: round"/>
    <path d="M 269.19337 248.967678 
L 271.152639 244.94757 
L 273.193164 248.92705 
z
" clip-path="url(#pec2c75f3ab)" style="stroke: #000000; stroke-linecap: round"/>
   </g>
   <g id="patch_5">
    <path d="M 172.573572 32.953238 
Q 147.090256 39.051502 122.694274 44.889562 
" clip-path="url(#pec2c75f3ab)" style="fill: none; stroke: #000000; stroke-linecap: round"/>
    <path d="M 127.049903 45.903712 
L 122.694274 44.889562 
L 126.11897 42.013549 
z
" clip-path="url(#pec2c75f3ab)" style="stroke: #000000; stroke-linecap: round"/>
   </g>
   <g id="patch_6">
    <path d="M 176.014764 33.653102 
Q 203.055527 53.577641 229.196206 72.838967 
" clip-path="url(#pec2c75f3ab)" style="fill: none; stroke: #000000; stroke-linecap: round"/>
    <path d="M 227.162358 68.856071 
L 229.196206 72.838967 
L 224.78958 72.076308 
z
" clip-path="url(#pec2c75f3ab)" style="stroke: #000000; stroke-linecap: round"/>
   </g>
   <g id="patch_7">
    <path d="M 62.293891 300.300376 
Q 94.25336 281.592447 125.247948 263.449324 
" clip-path="url(#pec2c75f3ab)" style="fill: none; stroke: #000000; stroke-linecap: round"/>
    <path d="M 120.785531 263.744007 
L 125.247948 263.449324 
L 122.806244 267.196067 
z
" clip-path="url(#pec2c75f3ab)" style="stroke: #000000; stroke-linecap: round"/>
   </g>
   <g id="patch_8">
    <path d="M 300.789466 149.952695 
Q 286.252974 195.002547 272.059813 238.988386 
" clip-path="url(#pec2c75f3ab)" style="fill: none; stroke: #000000; stroke-linecap: round"/>
    <path d="M 275.191516 235.795827 
L 272.059813 238.988386 
L 271.384788 234.567488 
z
" clip-path="url(#pec2c75f3ab)" style="stroke: #000000; stroke-linecap: round"/>
   </g>
   <g id="patch_9">
    <path d="M 303.045592 147.126482 
Q 331.179579 130.440149 358.351946 114.324155 
" clip-path="url(#pec2c75f3ab)" style="fill: none; stroke: #000000; stroke-linecap: round"/>
    <path d="M 353.891296 114.644464 
L 358.351946 114.324155 
L 355.931803 118.08486 
z
" clip-path="url(#pec2c75f3ab)" style="stroke: #000000; stroke-linecap: round"/>
   </g>
   <g id="patch_10">
    <path d="M 303.313751 147.952463 
Q 343.498317 144.62319 382.568667 141.386229 
" clip-path="url(#pec2c75f3ab)" style="fill: none; stroke: #000000; stroke-linecap: round"/>
    <path d="M 378.417191 139.723325 
L 382.568667 141.386229 
L 378.747458 143.709667 
z
" clip-path="url(#pec2c75f3ab)" style="stroke: #000000; stroke-linecap: round"/>
   </g>
   <g id="patch_11">
    <path d="M 300.049069 146.706747 
Q 266.518931 111.381313 233.758488 76.866785 
" clip-path="url(#pec2c75f3ab)" style="fill: none; stroke: #000000; stroke-linecap: round"/>
    <path d="M 235.061639 81.144845 
L 233.758488 76.866785 
L 237.962827 78.3911 
z
" clip-path="url(#pec2c75f3ab)" style="stroke: #000000; stroke-linecap: round"/>
   </g>
   <g id="patch_12">
    <path d="M 359.316703 113.751955 
Q 331.182716 130.438288 304.010349 146.554283 
" clip-path="url(#pec2c75f3ab)" style="fill: none; stroke: #000000; stroke-linecap: round"/>
    <path d="M 308.471 146.233974 
L 304.010349 146.554283 
L 306.430492 142.793577 
z
" clip-path="url(#pec2c75f3ab)" style="stroke: #000000; stroke-linecap: round"/>
   </g>
   <g id="patch_13">
    <path d="M 383.683848 141.293837 
Q 343.499282 144.62311 304.428932 147.86007 
" clip-path="url(#pec2c75f3ab)" style="fill: none; stroke: #000000; stroke-linecap: round"/>
    <path d="M 308.580408 149.522975 
L 304.428932 147.86007 
L 308.250141 145.536633 
z
" clip-path="url(#pec2c75f3ab)" style="stroke: #000000; stroke-linecap: round"/>
   </g>
   <g id="patch_14">
    <path d="M 137.916303 182.24974 
Q 133.020187 221.118318 128.263801 258.877627 
" clip-path="url(#pec2c75f3ab)" style="fill: none; stroke: #000000; stroke-linecap: round"/>
    <path d="M 130.748033 255.158946 
L 128.263801 258.877627 
L 126.779395 254.659033 
z
" clip-path="url(#pec2c75f3ab)" style="stroke: #000000; stroke-linecap: round"/>
   </g>
   <g id="patch_15">
    <path d="M 136.256257 179.99014 
Q 100.437599 173.583458 65.719509 167.373627 
" clip-path="url(#pec2c75f3ab)" style="fill: none; stroke: #000000; stroke-linecap: round"/>
    <path d="M 69.304879 170.046663 
L 65.719509 167.373627 
L 70.00916 166.109152 
z
" clip-path="url(#pec2c75f3ab)" style="stroke: #000000; stroke-linecap: round"/>
   </g>
   <g id="patch_16">
    <path d="M 138.060264 178.396393 
Q 136.084618 139.338231 134.165453 101.396676 
" clip-path="url(#pec2c75f3ab)" style="fill: none; stroke: #000000; stroke-linecap: round"/>
    <path d="M 132.370077 105.492604 
L 134.165453 101.396676 
L 136.364969 105.290534 
z
" clip-path="url(#pec2c75f3ab)" style="stroke: #000000; stroke-linecap: round"/>
   </g>
   <g id="patch_17">
    <path d="M 140.059932 180.70519 
Q 186.922568 189.942453 232.688277 198.963498 
" clip-path="url(#pec2c75f3ab)" style="fill: none; stroke: #000000; stroke-linecap: round"/>
    <path d="M 229.150576 196.227685 
L 232.688277 198.963498 
L 228.377006 200.152171 
z
" clip-path="url(#pec2c75f3ab)" style="stroke: #000000; stroke-linecap: round"/>
   </g>
   <g id="patch_18">
    <path d="M 98.661056 313.921879 
Q 112.798084 288.757502 126.387511 264.567873 
" clip-path="url(#pec2c75f3ab)" style="fill: none; stroke: #000000; stroke-linecap: round"/>
    <path d="M 122.684673 267.075658 
L 126.387511 264.567873 
L 126.172037 269.034815 
z
" clip-path="url(#pec2c75f3ab)" style="stroke: #000000; stroke-linecap: round"/>
   </g>
   <g id="patch_19">
    <path d="M 41.899295 276.278639 
Q 83.936907 269.252418 124.871782 262.41051 
" clip-path="url(#pec2c75f3ab)" style="fill: none; stroke: #000000; stroke-linecap: round"/>
    <path d="M 120.596801 261.097292 
L 124.871782 262.41051 
L 121.256219 265.042564 
z
" clip-path="url(#pec2c75f3ab)" style="stroke: #000000; stroke-linecap: round"/>
   </g>
   <g id="patch_20">
    <path d="M 317.759842 291.247667 
Q 295.105415 267.275113 273.218902 244.115153 
" clip-path="url(#pec2c75f3ab)" style="fill: none; stroke: #000000; stroke-linecap: round"/>
    <path d="M 274.512661 248.396063 
L 273.218902 244.115153 
L 277.419885 245.648692 
z
" clip-path="url(#pec2c75f3ab)" style="stroke: #000000; stroke-linecap: round"/>
   </g>
   <g id="patch_21">
    <path d="M 345.97218 268.804348 
Q 309.458329 255.677758 273.996591 242.929398 
" clip-path="url(#pec2c75f3ab)" style="fill: none; stroke: #000000; stroke-linecap: round"/>
    <path d="M 277.084145 246.164674 
L 273.996591 242.929398 
L 278.437344 242.40052 
z
" clip-path="url(#pec2c75f3ab)" style="stroke: #000000; stroke-linecap: round"/>
   </g>
   <g id="patch_22">
    <path d="M 271.141297 243.830988 
Q 271.380946 267.423987 271.609238 289.899009 
" clip-path="url(#pec2c75f3ab)" style="fill: none; stroke: #000000; stroke-linecap: round"/>
    <path d="M 273.568507 285.878902 
L 271.609238 289.899009 
L 269.568713 285.91953 
z
" clip-path="url(#pec2c75f3ab)" style="stroke: #000000; stroke-linecap: round"/>
   </g>
   <g id="patch_23">
    <path d="M 271.715459 240.05557 
Q 286.251951 195.005718 300.445112 151.019879 
" clip-path="url(#pec2c75f3ab)" style="fill: none; stroke: #000000; stroke-linecap: round"/>
    <path d="M 297.313409 154.212438 
L 300.445112 151.019879 
L 301.120138 155.440777 
z
" clip-path="url(#pec2c75f3ab)" style="stroke: #000000; stroke-linecap: round"/>
   </g>
   <g id="patch_24">
    <path d="M 272.453826 243.305562 
Q 295.108252 267.278116 316.994765 290.438076 
" clip-path="url(#pec2c75f3ab)" style="fill: none; stroke: #000000; stroke-linecap: round"/>
    <path d="M 315.701006 286.157166 
L 316.994765 290.438076 
L 312.793782 288.904537 
z
" clip-path="url(#pec2c75f3ab)" style="stroke: #000000; stroke-linecap: round"/>
   </g>
   <g id="patch_25">
    <path d="M 272.942013 242.550282 
Q 309.455864 255.676872 344.917603 268.425231 
" clip-path="url(#pec2c75f3ab)" style="fill: none; stroke: #000000; stroke-linecap: round"/>
    <path d="M 341.830049 265.189956 
L 344.917603 268.425231 
L 340.47685 268.954109 
z
" clip-path="url(#pec2c75f3ab)" style="stroke: #000000; stroke-linecap: round"/>
   </g>
   <g id="patch_26">
    <path d="M 269.20263 242.163963 
Q 199.501983 251.901596 130.908616 261.484536 
" clip-path="url(#pec2c75f3ab)" style="fill: none; stroke: #000000; stroke-linecap: round"/>
    <path d="M 135.146868 262.911848 
L 130.908616 261.484536 
L 134.593417 258.950322 
z
" clip-path="url(#pec2c75f3ab)" style="stroke: #000000; stroke-linecap: round"/>
   </g>
   <g id="patch_27">
    <path d="M 272.965902 241.311111 
Q 300.921173 232.447433 327.810698 223.921667 
" clip-path="url(#pec2c75f3ab)" style="fill: none; stroke: #000000; stroke-linecap: round"/>
    <path d="M 323.393292 223.224155 
L 327.810698 223.921667 
L 324.602244 227.037084 
z
" clip-path="url(#pec2c75f3ab)" style="stroke: #000000; stroke-linecap: round"/>
   </g>
   <g id="patch_28">
    <path d="M 126.211355 262.88538 
Q 94.251887 281.593309 63.257299 299.736432 
" clip-path="url(#pec2c75f3ab)" style="fill: none; stroke: #000000; stroke-linecap: round"/>
    <path d="M 67.719715 299.44175 
L 63.257299 299.736432 
L 65.699003 295.989689 
z
" clip-path="url(#pec2c75f3ab)" style="stroke: #000000; stroke-linecap: round"/>
   </g>
   <g id="patch_29">
    <path d="M 128.123941 259.987921 
Q 133.020058 221.119344 137.776444 183.360034 
" clip-path="url(#pec2c75f3ab)" style="fill: none; stroke: #000000; stroke-linecap: round"/>
    <path d="M 135.292212 187.078716 
L 137.776444 183.360034 
L 139.26085 187.578629 
z
" clip-path="url(#pec2c75f3ab)" style="stroke: #000000; stroke-linecap: round"/>
   </g>
   <g id="patch_30">
    <path d="M 126.93384 263.59539 
Q 112.796812 288.759767 99.207385 312.949396 
" clip-path="url(#pec2c75f3ab)" style="fill: none; stroke: #000000; stroke-linecap: round"/>
    <path d="M 102.910224 310.441611 
L 99.207385 312.949396 
L 99.42286 308.482454 
z
" clip-path="url(#pec2c75f3ab)" style="stroke: #000000; stroke-linecap: round"/>
   </g>
   <g id="patch_31">
    <path d="M 125.96964 262.227012 
Q 83.932028 269.253234 42.997154 276.095142 
" clip-path="url(#pec2c75f3ab)" style="fill: none; stroke: #000000; stroke-linecap: round"/>
    <path d="M 47.272134 277.40836 
L 42.997154 276.095142 
L 46.612716 273.463088 
z
" clip-path="url(#pec2c75f3ab)" style="stroke: #000000; stroke-linecap: round"/>
   </g>
   <g id="patch_32">
    <path d="M 129.801169 261.639253 
Q 199.501816 251.90162 268.095183 242.31868 
" clip-path="url(#pec2c75f3ab)" style="fill: none; stroke: #000000; stroke-linecap: round"/>
    <path d="M 263.856931 240.891368 
L 268.095183 242.31868 
L 264.410382 244.852895 
z
" clip-path="url(#pec2c75f3ab)" style="stroke: #000000; stroke-linecap: round"/>
   </g>
   <g id="patch_33">
    <path d="M 128.455373 263.757599 
Q 135.66999 287.045255 142.553749 309.264953 
" clip-path="url(#pec2c75f3ab)" style="fill: none; stroke: #000000; stroke-linecap: round"/>
    <path d="M 143.280457 304.852256 
L 142.553749 309.264953 
L 139.459616 306.035969 
z
" clip-path="url(#pec2c75f3ab)" style="stroke: #000000; stroke-linecap: round"/>
   </g>
   <g id="patch_34">
    <path d="M 125.971914 261.586919 
Q 90.353253 255.612095 55.837222 249.82223 
" clip-path="url(#pec2c75f3ab)" style="fill: none; stroke: #000000; stroke-linecap: round"/>
    <path d="M 59.45124 252.456403 
L 55.837222 249.82223 
L 60.112972 248.511519 
z
" clip-path="url(#pec2c75f3ab)" style="stroke: #000000; stroke-linecap: round"/>
   </g>
   <g id="patch_35">
    <path d="M 64.613016 167.175715 
Q 100.431673 173.582398 135.149763 179.792228 
" clip-path="url(#pec2c75f3ab)" style="fill: none; stroke: #000000; stroke-linecap: round"/>
    <path d="M 131.564393 177.119192 
L 135.149763 179.792228 
L 130.860112 181.056703 
z
" clip-path="url(#pec2c75f3ab)" style="stroke: #000000; stroke-linecap: round"/>
   </g>
   <g id="patch_36">
    <path d="M 418.891374 234.88518 
Q 375.764967 229.07151 333.746571 223.407207 
" clip-path="url(#pec2c75f3ab)" style="fill: none; stroke: #000000; stroke-linecap: round"/>
    <path d="M 337.44352 225.923666 
L 333.746571 223.407207 
L 337.977908 221.959523 
z
" clip-path="url(#pec2c75f3ab)" style="stroke: #000000; stroke-linecap: round"/>
   </g>
   <g id="patch_37">
    <path d="M 328.875774 223.583967 
Q 300.920503 232.447645 274.030979 240.973411 
" clip-path="url(#pec2c75f3ab)" style="fill: none; stroke: #000000; stroke-linecap: round"/>
    <path d="M 278.448385 241.670924 
L 274.030979 240.973411 
L 277.239433 237.857994 
z
" clip-path="url(#pec2c75f3ab)" style="stroke: #000000; stroke-linecap: round"/>
   </g>
   <g id="patch_38">
    <path d="M 332.641885 223.258289 
Q 375.768292 229.071959 417.786688 234.736262 
" clip-path="url(#pec2c75f3ab)" style="fill: none; stroke: #000000; stroke-linecap: round"/>
    <path d="M 414.089739 232.219803 
L 417.786688 234.736262 
L 413.555352 236.183946 
z
" clip-path="url(#pec2c75f3ab)" style="stroke: #000000; stroke-linecap: round"/>
   </g>
   <g id="patch_39">
    <path d="M 328.837781 222.534864 
Q 283.200926 211.276311 238.649561 200.285547 
" clip-path="url(#pec2c75f3ab)" style="fill: none; stroke: #000000; stroke-linecap: round"/>
    <path d="M 242.054094 203.185402 
L 238.649561 200.285547 
L 243.012165 199.301834 
z
" clip-path="url(#pec2c75f3ab)" style="stroke: #000000; stroke-linecap: round"/>
   </g>
   <g id="patch_40">
    <path d="M 134.10918 100.284163 
Q 136.084825 139.342325 138.003991 177.28388 
" clip-path="url(#pec2c75f3ab)" style="fill: none; stroke: #000000; stroke-linecap: round"/>
    <path d="M 139.799367 173.187952 
L 138.003991 177.28388 
L 135.804474 173.390022 
z
" clip-path="url(#pec2c75f3ab)" style="stroke: #000000; stroke-linecap: round"/>
   </g>
   <g id="patch_41">
    <path d="M 132.202423 97.670342 
Q 96.11263 84.105679 61.069389 70.934371 
" clip-path="url(#pec2c75f3ab)" style="fill: none; stroke: #000000; stroke-linecap: round"/>
    <path d="M 64.109991 74.213813 
L 61.069389 70.934371 
L 65.517303 70.469554 
z
" clip-path="url(#pec2c75f3ab)" style="stroke: #000000; stroke-linecap: round"/>
   </g>
   <g id="patch_42">
    <path d="M 135.891643 97.893874 
Q 182.833778 86.500352 228.689424 75.370535 
" clip-path="url(#pec2c75f3ab)" style="fill: none; stroke: #000000; stroke-linecap: round"/>
    <path d="M 224.33055 74.370429 
L 228.689424 75.370535 
L 225.274014 78.257571 
z
" clip-path="url(#pec2c75f3ab)" style="stroke: #000000; stroke-linecap: round"/>
   </g>
   <g id="patch_43">
    <path d="M 133.504795 96.479639 
Q 126.868334 71.972897 120.524113 48.54532 
" clip-path="url(#pec2c75f3ab)" style="fill: none; stroke: #000000; stroke-linecap: round"/>
    <path d="M 119.639192 52.92903 
L 120.524113 48.54532 
L 123.500129 51.883483 
z
" clip-path="url(#pec2c75f3ab)" style="stroke: #000000; stroke-linecap: round"/>
   </g>
   <g id="patch_44">
    <path d="M 60.020846 70.540267 
Q 96.110639 84.104931 131.153881 97.276238 
" clip-path="url(#pec2c75f3ab)" style="fill: none; stroke: #000000; stroke-linecap: round"/>
    <path d="M 128.113278 93.996797 
L 131.153881 97.276238 
L 126.705966 97.741056 
z
" clip-path="url(#pec2c75f3ab)" style="stroke: #000000; stroke-linecap: round"/>
   </g>
   <g id="patch_45">
    <path d="M 283.767429 31.230353 
Q 258.453935 52.321729 233.999392 72.69742 
" clip-path="url(#pec2c75f3ab)" style="fill: none; stroke: #000000; stroke-linecap: round"/>
    <path d="M 238.352722 71.67345 
L 233.999392 72.69742 
L 235.792214 68.600374 
z
" clip-path="url(#pec2c75f3ab)" style="stroke: #000000; stroke-linecap: round"/>
   </g>
   <g id="patch_46">
    <path d="M 142.883654 310.329834 
Q 135.669037 287.042178 128.785278 264.82248 
" clip-path="url(#pec2c75f3ab)" style="fill: none; stroke: #000000; stroke-linecap: round"/>
    <path d="M 128.058571 269.235177 
L 128.785278 264.82248 
L 131.879411 268.051464 
z
" clip-path="url(#pec2c75f3ab)" style="stroke: #000000; stroke-linecap: round"/>
   </g>
   <g id="patch_47">
    <path d="M 227.743039 32.202986 
Q 229.610107 52.461785 231.374572 71.607268 
" clip-path="url(#pec2c75f3ab)" style="fill: none; stroke: #000000; stroke-linecap: round"/>
    <path d="M 232.999044 67.440604 
L 231.374572 71.607268 
L 229.015924 67.807691 
z
" clip-path="url(#pec2c75f3ab)" style="stroke: #000000; stroke-linecap: round"/>
   </g>
   <g id="patch_48">
    <path d="M 230.094464 73.500834 
Q 203.053702 53.576296 176.913023 34.314969 
" clip-path="url(#pec2c75f3ab)" style="fill: none; stroke: #000000; stroke-linecap: round"/>
    <path d="M 178.94687 38.297866 
L 176.913023 34.314969 
L 181.319649 35.077629 
z
" clip-path="url(#pec2c75f3ab)" style="stroke: #000000; stroke-linecap: round"/>
   </g>
   <g id="patch_49">
    <path d="M 232.989276 76.056387 
Q 266.519414 111.381821 299.279856 145.896349 
" clip-path="url(#pec2c75f3ab)" style="fill: none; stroke: #000000; stroke-linecap: round"/>
    <path d="M 297.976706 141.618289 
L 299.279856 145.896349 
L 295.075518 144.372034 
z
" clip-path="url(#pec2c75f3ab)" style="stroke: #000000; stroke-linecap: round"/>
   </g>
   <g id="patch_50">
    <path d="M 229.774775 75.107105 
Q 182.83264 86.500628 136.976994 97.630444 
" clip-path="url(#pec2c75f3ab)" style="fill: none; stroke: #000000; stroke-linecap: round"/>
    <path d="M 141.335868 98.630551 
L 136.976994 97.630444 
L 140.392404 94.743409 
z
" clip-path="url(#pec2c75f3ab)" style="stroke: #000000; stroke-linecap: round"/>
   </g>
   <g id="patch_51">
    <path d="M 233.143611 73.410463 
Q 258.457105 52.319087 282.911648 31.943396 
" clip-path="url(#pec2c75f3ab)" style="fill: none; stroke: #000000; stroke-linecap: round"/>
    <path d="M 278.558318 32.967366 
L 282.911648 31.943396 
L 281.118826 36.040442 
z
" clip-path="url(#pec2c75f3ab)" style="stroke: #000000; stroke-linecap: round"/>
   </g>
   <g id="patch_52">
    <path d="M 231.477593 72.725106 
Q 229.610524 52.466308 227.84606 33.320825 
" clip-path="url(#pec2c75f3ab)" style="fill: none; stroke: #000000; stroke-linecap: round"/>
    <path d="M 226.221587 37.487489 
L 227.84606 33.320825 
L 230.204708 37.120401 
z
" clip-path="url(#pec2c75f3ab)" style="stroke: #000000; stroke-linecap: round"/>
   </g>
   <g id="patch_53">
    <path d="M 54.738569 249.637937 
Q 90.357229 255.612762 124.873261 261.402626 
" clip-path="url(#pec2c75f3ab)" style="fill: none; stroke: #000000; stroke-linecap: round"/>
    <path d="M 121.259242 258.768453 
L 124.873261 261.402626 
L 120.597511 262.713337 
z
" clip-path="url(#pec2c75f3ab)" style="stroke: #000000; stroke-linecap: round"/>
   </g>
   <g id="patch_54">
    <path d="M 237.567237 200.018539 
Q 283.204092 211.277092 327.755457 222.267856 
" clip-path="url(#pec2c75f3ab)" style="fill: none; stroke: #000000; stroke-linecap: round"/>
    <path d="M 324.350924 219.368001 
L 327.755457 222.267856 
L 323.392853 223.251569 
z
" clip-path="url(#pec2c75f3ab)" style="stroke: #000000; stroke-linecap: round"/>
   </g>
   <g id="patch_55">
    <path d="M 233.783136 199.17931 
Q 186.920499 189.942046 141.15479 180.921001 
" clip-path="url(#pec2c75f3ab)" style="fill: none; stroke: #000000; stroke-linecap: round"/>
    <path d="M 144.692491 183.656814 
L 141.15479 180.921001 
L 145.466061 179.732328 
z
" clip-path="url(#pec2c75f3ab)" style="stroke: #000000; stroke-linecap: round"/>
   </g>
   <g id="PathCollection_1">
    <defs>
     <path id="C0_0_82d64e8646" d="M 0 1.936492 
C 0.513564 1.936492 1.006162 1.732451 1.369306 1.369306 
C 1.732451 1.006162 1.936492 0.513564 1.936492 -0 
C 1.936492 -0.513564 1.732451 -1.006162 1.369306 -1.369306 
C 1.006162 -1.732451 0.513564 -1.936492 0 -1.936492 
C -0.513564 -1.936492 -1.006162 -1.732451 -1.369306 -1.369306 
C -1.732451 -1.006162 -1.936492 -0.513564 -1.936492 0 
C -1.936492 0.513564 -1.732451 1.006162 -1.369306 1.369306 
C -1.006162 1.732451 -0.513564 1.936492 0 1.936492 
z
"/>
    </defs>
    <g clip-path="url(#pec2c75f3ab)">
     <use xlink:href="#C0_0_82d64e8646" x="119.726455" y="45.599774" style="fill: #ff0000; stroke: #ff0000"/>
    </g>
    <g clip-path="url(#pec2c75f3ab)">
     <use xlink:href="#C0_0_82d64e8646" x="271.640236" y="292.950715" style="fill: #ff0000; stroke: #ff0000"/>
    </g>
    <g clip-path="url(#pec2c75f3ab)">
     <use xlink:href="#C0_0_82d64e8646" x="174.454169" y="32.503203" style="fill: #ff0000; stroke: #ff0000"/>
    </g>
    <g clip-path="url(#pec2c75f3ab)">
     <use xlink:href="#C0_0_82d64e8646" x="60.623088" y="301.278405" style="fill: #ff0000; stroke: #ff0000"/>
    </g>
    <g clip-path="url(#pec2c75f3ab)">
     <use xlink:href="#C0_0_82d64e8646" x="301.383285" y="148.112401" style="stroke: #000000"/>
    </g>
    <g clip-path="url(#pec2c75f3ab)">
     <use xlink:href="#C0_0_82d64e8646" x="360.979011" y="112.766037" style="fill: #ff0000; stroke: #ff0000"/>
    </g>
    <g clip-path="url(#pec2c75f3ab)">
     <use xlink:href="#C0_0_82d64e8646" x="385.614314" y="141.133899" style="fill: #ff0000; stroke: #ff0000"/>
    </g>
    <g clip-path="url(#pec2c75f3ab)">
     <use xlink:href="#C0_0_82d64e8646" x="138.158086" y="180.33031" style="stroke: #000000"/>
    </g>
    <g clip-path="url(#pec2c75f3ab)">
     <use xlink:href="#C0_0_82d64e8646" x="97.712738" y="315.609917" style="fill: #ff0000; stroke: #ff0000"/>
    </g>
    <g clip-path="url(#pec2c75f3ab)">
     <use xlink:href="#C0_0_82d64e8646" x="39.986777" y="276.5983" style="fill: #ff0000; stroke: #ff0000"/>
    </g>
    <g clip-path="url(#pec2c75f3ab)">
     <use xlink:href="#C0_0_82d64e8646" x="319.092027" y="292.657365" style="fill: #ff0000; stroke: #ff0000"/>
    </g>
    <g clip-path="url(#pec2c75f3ab)">
     <use xlink:href="#C0_0_82d64e8646" x="347.792553" y="269.458765" style="fill: #ff0000; stroke: #ff0000"/>
    </g>
    <g clip-path="url(#pec2c75f3ab)">
     <use xlink:href="#C0_0_82d64e8646" x="271.121641" y="241.895865" style="fill: #ff0000; stroke: #ff0000"/>
    </g>
    <g clip-path="url(#pec2c75f3ab)">
     <use xlink:href="#C0_0_82d64e8646" x="127.882159" y="261.907352" style="fill: #ff0000; stroke: #ff0000"/>
    </g>
    <g clip-path="url(#pec2c75f3ab)">
     <use xlink:href="#C0_0_82d64e8646" x="62.711186" y="166.835545" style="fill: #ff0000; stroke: #ff0000"/>
    </g>
    <g clip-path="url(#pec2c75f3ab)">
     <use xlink:href="#C0_0_82d64e8646" x="420.813223" y="235.144255" style="fill: #ff0000; stroke: #ff0000"/>
    </g>
    <g clip-path="url(#pec2c75f3ab)">
     <use xlink:href="#C0_0_82d64e8646" x="330.720036" y="222.999214" style="fill: #ff0000; stroke: #ff0000"/>
    </g>
    <g clip-path="url(#pec2c75f3ab)">
     <use xlink:href="#C0_0_82d64e8646" x="134.011358" y="98.350246" style="fill: #ff0000; stroke: #ff0000"/>
    </g>
    <g clip-path="url(#pec2c75f3ab)">
     <use xlink:href="#C0_0_82d64e8646" x="58.211911" y="69.860363" style="fill: #ff0000; stroke: #ff0000"/>
    </g>
    <g clip-path="url(#pec2c75f3ab)">
     <use xlink:href="#C0_0_82d64e8646" x="285.25598" y="29.990083" style="fill: #ff0000; stroke: #ff0000"/>
    </g>
    <g clip-path="url(#pec2c75f3ab)">
     <use xlink:href="#C0_0_82d64e8646" x="143.456869" y="312.180082" style="fill: #ff0000; stroke: #ff0000"/>
    </g>
    <g clip-path="url(#pec2c75f3ab)">
     <use xlink:href="#C0_0_82d64e8646" x="227.565571" y="30.277359" style="fill: #ff0000; stroke: #ff0000"/>
    </g>
    <g clip-path="url(#pec2c75f3ab)">
     <use xlink:href="#C0_0_82d64e8646" x="231.65506" y="74.650733" style="fill: #ff0000; stroke: #ff0000"/>
    </g>
    <g clip-path="url(#pec2c75f3ab)">
     <use xlink:href="#C0_0_82d64e8646" x="52.828324" y="249.317505" style="fill: #ff0000; stroke: #ff0000"/>
    </g>
    <g clip-path="url(#pec2c75f3ab)">
     <use xlink:href="#C0_0_82d64e8646" x="235.684982" y="199.554189" style="fill: #ff0000; stroke: #ff0000"/>
    </g>
   </g>
   <g id="text_1">
    <g clip-path="url(#pec2c75f3ab)">
     <!-- 0 -->
     <g transform="translate(116.545205 48.359149) scale(0.1 -0.1)">
      <defs>
       <path id="DejaVuSans-30" d="M 2034 4250 
Q 1547 4250 1301 3770 
Q 1056 3291 1056 2328 
Q 1056 1369 1301 889 
Q 1547 409 2034 409 
Q 2525 409 2770 889 
Q 3016 1369 3016 2328 
Q 3016 3291 2770 3770 
Q 2525 4250 2034 4250 
z
M 2034 4750 
Q 2819 4750 3233 4129 
Q 3647 3509 3647 2328 
Q 3647 1150 3233 529 
Q 2819 -91 2034 -91 
Q 1250 -91 836 529 
Q 422 1150 422 2328 
Q 422 3509 836 4129 
Q 1250 4750 2034 4750 
z
" transform="scale(0.015625)"/>
      </defs>
      <use xlink:href="#DejaVuSans-30"/>
     </g>
    </g>
   </g>
   <g id="text_2">
    <g clip-path="url(#pec2c75f3ab)">
     <!-- 8 -->
     <g transform="translate(268.458986 295.71009) scale(0.1 -0.1)">
      <defs>
       <path id="DejaVuSans-38" d="M 2034 2216 
Q 1584 2216 1326 1975 
Q 1069 1734 1069 1313 
Q 1069 891 1326 650 
Q 1584 409 2034 409 
Q 2484 409 2743 651 
Q 3003 894 3003 1313 
Q 3003 1734 2745 1975 
Q 2488 2216 2034 2216 
z
M 1403 2484 
Q 997 2584 770 2862 
Q 544 3141 544 3541 
Q 544 4100 942 4425 
Q 1341 4750 2034 4750 
Q 2731 4750 3128 4425 
Q 3525 4100 3525 3541 
Q 3525 3141 3298 2862 
Q 3072 2584 2669 2484 
Q 3125 2378 3379 2068 
Q 3634 1759 3634 1313 
Q 3634 634 3220 271 
Q 2806 -91 2034 -91 
Q 1263 -91 848 271 
Q 434 634 434 1313 
Q 434 1759 690 2068 
Q 947 2378 1403 2484 
z
M 1172 3481 
Q 1172 3119 1398 2916 
Q 1625 2713 2034 2713 
Q 2441 2713 2670 2916 
Q 2900 3119 2900 3481 
Q 2900 3844 2670 4047 
Q 2441 4250 2034 4250 
Q 1625 4250 1398 4047 
Q 1172 3844 1172 3481 
z
" transform="scale(0.015625)"/>
      </defs>
      <use xlink:href="#DejaVuSans-38"/>
     </g>
    </g>
   </g>
   <g id="text_3">
    <g clip-path="url(#pec2c75f3ab)">
     <!-- 10 -->
     <g transform="translate(168.091669 35.262578) scale(0.1 -0.1)">
      <defs>
       <path id="DejaVuSans-31" d="M 794 531 
L 1825 531 
L 1825 4091 
L 703 3866 
L 703 4441 
L 1819 4666 
L 2450 4666 
L 2450 531 
L 3481 531 
L 3481 0 
L 794 0 
L 794 531 
z
" transform="scale(0.015625)"/>
      </defs>
      <use xlink:href="#DejaVuSans-31"/>
      <use xlink:href="#DejaVuSans-30" x="63.623047"/>
     </g>
    </g>
   </g>
   <g id="text_4">
    <g clip-path="url(#pec2c75f3ab)">
     <!-- 13 -->
     <g transform="translate(54.260588 304.03778) scale(0.1 -0.1)">
      <defs>
       <path id="DejaVuSans-33" d="M 2597 2516 
Q 3050 2419 3304 2112 
Q 3559 1806 3559 1356 
Q 3559 666 3084 287 
Q 2609 -91 1734 -91 
Q 1441 -91 1130 -33 
Q 819 25 488 141 
L 488 750 
Q 750 597 1062 519 
Q 1375 441 1716 441 
Q 2309 441 2620 675 
Q 2931 909 2931 1356 
Q 2931 1769 2642 2001 
Q 2353 2234 1838 2234 
L 1294 2234 
L 1294 2753 
L 1863 2753 
Q 2328 2753 2575 2939 
Q 2822 3125 2822 3475 
Q 2822 3834 2567 4026 
Q 2313 4219 1838 4219 
Q 1578 4219 1281 4162 
Q 984 4106 628 3988 
L 628 4550 
Q 988 4650 1302 4700 
Q 1616 4750 1894 4750 
Q 2613 4750 3031 4423 
Q 3450 4097 3450 3541 
Q 3450 3153 3228 2886 
Q 3006 2619 2597 2516 
z
" transform="scale(0.015625)"/>
      </defs>
      <use xlink:href="#DejaVuSans-31"/>
      <use xlink:href="#DejaVuSans-33" x="63.623047"/>
     </g>
    </g>
   </g>
   <g id="text_5">
    <g clip-path="url(#pec2c75f3ab)">
     <!-- 20 -->
     <g transform="translate(295.020785 150.871776) scale(0.1 -0.1)">
      <defs>
       <path id="DejaVuSans-32" d="M 1228 531 
L 3431 531 
L 3431 0 
L 469 0 
L 469 531 
Q 828 903 1448 1529 
Q 2069 2156 2228 2338 
Q 2531 2678 2651 2914 
Q 2772 3150 2772 3378 
Q 2772 3750 2511 3984 
Q 2250 4219 1831 4219 
Q 1534 4219 1204 4116 
Q 875 4013 500 3803 
L 500 4441 
Q 881 4594 1212 4672 
Q 1544 4750 1819 4750 
Q 2544 4750 2975 4387 
Q 3406 4025 3406 3419 
Q 3406 3131 3298 2873 
Q 3191 2616 2906 2266 
Q 2828 2175 2409 1742 
Q 1991 1309 1228 531 
z
" transform="scale(0.015625)"/>
      </defs>
      <use xlink:href="#DejaVuSans-32"/>
      <use xlink:href="#DejaVuSans-30" x="63.623047"/>
     </g>
    </g>
   </g>
   <g id="text_6">
    <g clip-path="url(#pec2c75f3ab)">
     <!-- 21 -->
     <g transform="translate(354.616511 115.525412) scale(0.1 -0.1)">
      <use xlink:href="#DejaVuSans-32"/>
      <use xlink:href="#DejaVuSans-31" x="63.623047"/>
     </g>
    </g>
   </g>
   <g id="text_7">
    <g clip-path="url(#pec2c75f3ab)">
     <!-- 23 -->
     <g transform="translate(379.251814 143.893274) scale(0.1 -0.1)">
      <use xlink:href="#DejaVuSans-32"/>
      <use xlink:href="#DejaVuSans-33" x="63.623047"/>
     </g>
    </g>
   </g>
   <g id="text_8">
    <g clip-path="url(#pec2c75f3ab)">
     <!-- 24 -->
     <g transform="translate(131.795586 183.089685) scale(0.1 -0.1)">
      <defs>
       <path id="DejaVuSans-34" d="M 2419 4116 
L 825 1625 
L 2419 1625 
L 2419 4116 
z
M 2253 4666 
L 3047 4666 
L 3047 1625 
L 3713 1625 
L 3713 1100 
L 3047 1100 
L 3047 0 
L 2419 0 
L 2419 1100 
L 313 1100 
L 313 1709 
L 2253 4666 
z
" transform="scale(0.015625)"/>
      </defs>
      <use xlink:href="#DejaVuSans-32"/>
      <use xlink:href="#DejaVuSans-34" x="63.623047"/>
     </g>
    </g>
   </g>
   <g id="text_9">
    <g clip-path="url(#pec2c75f3ab)">
     <!-- 26 -->
     <g transform="translate(91.350238 318.369292) scale(0.1 -0.1)">
      <defs>
       <path id="DejaVuSans-36" d="M 2113 2584 
Q 1688 2584 1439 2293 
Q 1191 2003 1191 1497 
Q 1191 994 1439 701 
Q 1688 409 2113 409 
Q 2538 409 2786 701 
Q 3034 994 3034 1497 
Q 3034 2003 2786 2293 
Q 2538 2584 2113 2584 
z
M 3366 4563 
L 3366 3988 
Q 3128 4100 2886 4159 
Q 2644 4219 2406 4219 
Q 1781 4219 1451 3797 
Q 1122 3375 1075 2522 
Q 1259 2794 1537 2939 
Q 1816 3084 2150 3084 
Q 2853 3084 3261 2657 
Q 3669 2231 3669 1497 
Q 3669 778 3244 343 
Q 2819 -91 2113 -91 
Q 1303 -91 875 529 
Q 447 1150 447 2328 
Q 447 3434 972 4092 
Q 1497 4750 2381 4750 
Q 2619 4750 2861 4703 
Q 3103 4656 3366 4563 
z
" transform="scale(0.015625)"/>
      </defs>
      <use xlink:href="#DejaVuSans-32"/>
      <use xlink:href="#DejaVuSans-36" x="63.623047"/>
     </g>
    </g>
   </g>
   <g id="text_10">
    <g clip-path="url(#pec2c75f3ab)">
     <!-- 28 -->
     <g transform="translate(33.624277 279.357675) scale(0.1 -0.1)">
      <use xlink:href="#DejaVuSans-32"/>
      <use xlink:href="#DejaVuSans-38" x="63.623047"/>
     </g>
    </g>
   </g>
   <g id="text_11">
    <g clip-path="url(#pec2c75f3ab)">
     <!-- 30 -->
     <g transform="translate(312.729527 295.41674) scale(0.1 -0.1)">
      <use xlink:href="#DejaVuSans-33"/>
      <use xlink:href="#DejaVuSans-30" x="63.623047"/>
     </g>
    </g>
   </g>
   <g id="text_12">
    <g clip-path="url(#pec2c75f3ab)">
     <!-- 31 -->
     <g transform="translate(341.430053 272.21814) scale(0.1 -0.1)">
      <use xlink:href="#DejaVuSans-33"/>
      <use xlink:href="#DejaVuSans-31" x="63.623047"/>
     </g>
    </g>
   </g>
   <g id="text_13">
    <g clip-path="url(#pec2c75f3ab)">
     <!-- 34 -->
     <g transform="translate(264.759141 244.65524) scale(0.1 -0.1)">
      <use xlink:href="#DejaVuSans-33"/>
      <use xlink:href="#DejaVuSans-34" x="63.623047"/>
     </g>
    </g>
   </g>
   <g id="text_14">
    <g clip-path="url(#pec2c75f3ab)">
     <!-- 35 -->
     <g transform="translate(121.519659 264.666727) scale(0.1 -0.1)">
      <defs>
       <path id="DejaVuSans-35" d="M 691 4666 
L 3169 4666 
L 3169 4134 
L 1269 4134 
L 1269 2991 
Q 1406 3038 1543 3061 
Q 1681 3084 1819 3084 
Q 2600 3084 3056 2656 
Q 3513 2228 3513 1497 
Q 3513 744 3044 326 
Q 2575 -91 1722 -91 
Q 1428 -91 1123 -41 
Q 819 9 494 109 
L 494 744 
Q 775 591 1075 516 
Q 1375 441 1709 441 
Q 2250 441 2565 725 
Q 2881 1009 2881 1497 
Q 2881 1984 2565 2268 
Q 2250 2553 1709 2553 
Q 1456 2553 1204 2497 
Q 953 2441 691 2322 
L 691 4666 
z
" transform="scale(0.015625)"/>
      </defs>
      <use xlink:href="#DejaVuSans-33"/>
      <use xlink:href="#DejaVuSans-35" x="63.623047"/>
     </g>
    </g>
   </g>
   <g id="text_15">
    <g clip-path="url(#pec2c75f3ab)">
     <!-- 41 -->
     <g transform="translate(56.348686 169.59492) scale(0.1 -0.1)">
      <use xlink:href="#DejaVuSans-34"/>
      <use xlink:href="#DejaVuSans-31" x="63.623047"/>
     </g>
    </g>
   </g>
   <g id="text_16">
    <g clip-path="url(#pec2c75f3ab)">
     <!-- 43 -->
     <g transform="translate(414.450723 237.90363) scale(0.1 -0.1)">
      <use xlink:href="#DejaVuSans-34"/>
      <use xlink:href="#DejaVuSans-33" x="63.623047"/>
     </g>
    </g>
   </g>
   <g id="text_17">
    <g clip-path="url(#pec2c75f3ab)">
     <!-- 44 -->
     <g transform="translate(324.357536 225.758589) scale(0.1 -0.1)">
      <use xlink:href="#DejaVuSans-34"/>
      <use xlink:href="#DejaVuSans-34" x="63.623047"/>
     </g>
    </g>
   </g>
   <g id="text_18">
    <g clip-path="url(#pec2c75f3ab)">
     <!-- 49 -->
     <g transform="translate(127.648858 101.109621) scale(0.1 -0.1)">
      <defs>
       <path id="DejaVuSans-39" d="M 703 97 
L 703 672 
Q 941 559 1184 500 
Q 1428 441 1663 441 
Q 2288 441 2617 861 
Q 2947 1281 2994 2138 
Q 2813 1869 2534 1725 
Q 2256 1581 1919 1581 
Q 1219 1581 811 2004 
Q 403 2428 403 3163 
Q 403 3881 828 4315 
Q 1253 4750 1959 4750 
Q 2769 4750 3195 4129 
Q 3622 3509 3622 2328 
Q 3622 1225 3098 567 
Q 2575 -91 1691 -91 
Q 1453 -91 1209 -44 
Q 966 3 703 97 
z
M 1959 2075 
Q 2384 2075 2632 2365 
Q 2881 2656 2881 3163 
Q 2881 3666 2632 3958 
Q 2384 4250 1959 4250 
Q 1534 4250 1286 3958 
Q 1038 3666 1038 3163 
Q 1038 2656 1286 2365 
Q 1534 2075 1959 2075 
z
" transform="scale(0.015625)"/>
      </defs>
      <use xlink:href="#DejaVuSans-34"/>
      <use xlink:href="#DejaVuSans-39" x="63.623047"/>
     </g>
    </g>
   </g>
   <g id="text_19">
    <g clip-path="url(#pec2c75f3ab)">
     <!-- 50 -->
     <g transform="translate(51.849411 72.619738) scale(0.1 -0.1)">
      <use xlink:href="#DejaVuSans-35"/>
      <use xlink:href="#DejaVuSans-30" x="63.623047"/>
     </g>
    </g>
   </g>
   <g id="text_20">
    <g clip-path="url(#pec2c75f3ab)">
     <!-- 54 -->
     <g transform="translate(278.89348 32.749458) scale(0.1 -0.1)">
      <use xlink:href="#DejaVuSans-35"/>
      <use xlink:href="#DejaVuSans-34" x="63.623047"/>
     </g>
    </g>
   </g>
   <g id="text_21">
    <g clip-path="url(#pec2c75f3ab)">
     <!-- 55 -->
     <g transform="translate(137.094369 314.939457) scale(0.1 -0.1)">
      <use xlink:href="#DejaVuSans-35"/>
      <use xlink:href="#DejaVuSans-35" x="63.623047"/>
     </g>
    </g>
   </g>
   <g id="text_22">
    <g clip-path="url(#pec2c75f3ab)">
     <!-- 56 -->
     <g transform="translate(221.203071 33.036734) scale(0.1 -0.1)">
      <use xlink:href="#DejaVuSans-35"/>
      <use xlink:href="#DejaVuSans-36" x="63.623047"/>
     </g>
    </g>
   </g>
   <g id="text_23">
    <g clip-path="url(#pec2c75f3ab)">
     <!-- 59 -->
     <g transform="translate(225.29256 77.410108) scale(0.1 -0.1)">
      <use xlink:href="#DejaVuSans-35"/>
      <use xlink:href="#DejaVuSans-39" x="63.623047"/>
     </g>
    </g>
   </g>
   <g id="text_24">
    <g clip-path="url(#pec2c75f3ab)">
     <!-- 61 -->
     <g transform="translate(46.465824 252.07688) scale(0.1 -0.1)">
      <use xlink:href="#DejaVuSans-36"/>
      <use xlink:href="#DejaVuSans-31" x="63.623047"/>
     </g>
    </g>
   </g>
   <g id="text_25">
    <g clip-path="url(#pec2c75f3ab)">
     <!-- 70 -->
     <g transform="translate(229.322482 202.313564) scale(0.1 -0.1)">
      <defs>
       <path id="DejaVuSans-37" d="M 525 4666 
L 3525 4666 
L 3525 4397 
L 1831 0 
L 1172 0 
L 2766 4134 
L 525 4134 
L 525 4666 
z
" transform="scale(0.015625)"/>
      </defs>
      <use xlink:href="#DejaVuSans-37"/>
      <use xlink:href="#DejaVuSans-30" x="63.623047"/>
     </g>
    </g>
   </g>
  </g>
 </g>
 <defs>
  <clipPath id="pec2c75f3ab">
   <rect x="0" y="0" width="460.8" height="345.6"/>
  </clipPath>
 </defs>
</svg>
