<?xml version="1.0" encoding="utf-8" standalone="no"?>
<!DOCTYPE svg PUBLIC "-//W3C//DTD SVG 1.1//EN"
  "http://www.w3.org/Graphics/SVG/1.1/DTD/svg11.dtd">
<svg xmlns:xlink="http://www.w3.org/1999/xlink" width="460.8pt" height="345.6pt" viewBox="0 0 460.8 345.6" xmlns="http://www.w3.org/2000/svg" version="1.1">
 <metadata>
  <rdf:RDF xmlns:dc="http://purl.org/dc/elements/1.1/" xmlns:cc="http://creativecommons.org/ns#" xmlns:rdf="http://www.w3.org/1999/02/22-rdf-syntax-ns#">
   <cc:Work>
    <dc:type rdf:resource="http://purl.org/dc/dcmitype/StillImage"/>
    <dc:date>2024-02-07T13:47:12.096554</dc:date>
    <dc:format>image/svg+xml</dc:format>
    <dc:creator>
     <cc:Agent>
      <dc:title>Matplotlib v3.8.0, https://matplotlib.org/</dc:title>
     </cc:Agent>
    </dc:creator>
   </cc:Work>
  </rdf:RDF>
 </metadata>
 <defs>
  <style type="text/css">*{stroke-linejoin: round; stroke-linecap: butt}</style>
 </defs>
 <g id="figure_1">
  <g id="patch_1">
   <path d="M 0 345.6 
L 460.8 345.6 
L 460.8 0 
L 0 0 
z
" style="fill: #ffffff"/>
  </g>
  <g id="axes_1">
   <g id="patch_2">
    <path d="M 293.554413 251.501924 
Q 356.273107 274.369399 417.941406 296.853896 
" clip-path="url(#p5ea5bb0b70)" style="fill: none; stroke: #000000; stroke-linecap: round"/>
    <path d="M 414.868493 293.604711 
L 417.941406 296.853896 
L 413.49831 297.362715 
z
" clip-path="url(#p5ea5bb0b70)" style="stroke: #000000; stroke-linecap: round"/>
   </g>
   <g id="patch_3">
    <path d="M 289.838264 250.459853 
Q 209.698739 234.434595 130.655544 218.628567 
" clip-path="url(#p5ea5bb0b70)" style="fill: none; stroke: #000000; stroke-linecap: round"/>
    <path d="M 134.185722 221.374081 
L 130.655544 218.628567 
L 134.970062 217.451733 
z
" clip-path="url(#p5ea5bb0b70)" style="stroke: #000000; stroke-linecap: round"/>
   </g>
   <g id="patch_4">
    <path d="M 290.263609 249.584372 
Q 252.059558 217.064321 214.706869 185.268966 
" clip-path="url(#p5ea5bb0b70)" style="fill: none; stroke: #000000; stroke-linecap: round"/>
    <path d="M 216.456416 189.384677 
L 214.706869 185.268966 
L 219.049167 186.338754 
z
" clip-path="url(#p5ea5bb0b70)" style="stroke: #000000; stroke-linecap: round"/>
   </g>
   <g id="patch_5">
    <path d="M 141.903826 31.915955 
Q 136.337281 82.319656 130.893465 131.612079 
" clip-path="url(#p5ea5bb0b70)" style="fill: none; stroke: #000000; stroke-linecap: round"/>
    <path d="M 133.320466 127.855795 
L 130.893465 131.612079 
L 129.344639 127.416708 
z
" clip-path="url(#p5ea5bb0b70)" style="stroke: #000000; stroke-linecap: round"/>
   </g>
   <g id="patch_6">
    <path d="M 142.835228 31.790182 
Q 153.915238 59.54145 164.580681 86.254385 
" clip-path="url(#p5ea5bb0b70)" style="fill: none; stroke: #000000; stroke-linecap: round"/>
    <path d="M 164.95491 81.797934 
L 164.580681 86.254385 
L 161.240058 83.281131 
z
" clip-path="url(#p5ea5bb0b70)" style="stroke: #000000; stroke-linecap: round"/>
   </g>
   <g id="patch_7">
    <path d="M 418.997322 297.238887 
Q 356.278629 274.371412 294.610329 251.886915 
" clip-path="url(#p5ea5bb0b70)" style="fill: none; stroke: #000000; stroke-linecap: round"/>
    <path d="M 297.683243 255.1361 
L 294.610329 251.886915 
L 299.053425 251.378096 
z
" clip-path="url(#p5ea5bb0b70)" style="stroke: #000000; stroke-linecap: round"/>
   </g>
   <g id="patch_8">
    <path d="M 70.661357 314.133227 
Q 91.685843 289.255892 111.988655 265.232482 
" clip-path="url(#p5ea5bb0b70)" style="fill: none; stroke: #000000; stroke-linecap: round"/>
    <path d="M 107.87917 266.996606 
L 111.988655 265.232482 
L 110.934262 269.578544 
z
" clip-path="url(#p5ea5bb0b70)" style="stroke: #000000; stroke-linecap: round"/>
   </g>
   <g id="patch_9">
    <path d="M 70.407035 313.945266 
Q 98.537011 266.820292 126.093937 220.655324 
" clip-path="url(#p5ea5bb0b70)" style="fill: none; stroke: #000000; stroke-linecap: round"/>
    <path d="M 122.326417 223.064846 
L 126.093937 220.655324 
L 125.761043 225.115053 
z
" clip-path="url(#p5ea5bb0b70)" style="stroke: #000000; stroke-linecap: round"/>
   </g>
   <g id="patch_10">
    <path d="M 129.561425 218.40978 
Q 209.70095 234.435037 288.744145 250.241065 
" clip-path="url(#p5ea5bb0b70)" style="fill: none; stroke: #000000; stroke-linecap: round"/>
    <path d="M 285.213967 247.495552 
L 288.744145 250.241065 
L 284.429627 251.417899 
z
" clip-path="url(#p5ea5bb0b70)" style="stroke: #000000; stroke-linecap: round"/>
   </g>
   <g id="patch_11">
    <path d="M 126.667508 219.694444 
Q 98.537532 266.819418 70.980607 312.984386 
" clip-path="url(#p5ea5bb0b70)" style="fill: none; stroke: #000000; stroke-linecap: round"/>
    <path d="M 74.748126 310.574864 
L 70.980607 312.984386 
L 71.313501 308.524657 
z
" clip-path="url(#p5ea5bb0b70)" style="stroke: #000000; stroke-linecap: round"/>
   </g>
   <g id="patch_12">
    <path d="M 126.475832 216.493851 
Q 90.527377 169.912709 55.261994 124.216674 
" clip-path="url(#p5ea5bb0b70)" style="fill: none; stroke: #000000; stroke-linecap: round"/>
    <path d="M 56.122495 128.605243 
L 55.261994 124.216674 
L 59.28915 126.161414 
z
" clip-path="url(#p5ea5bb0b70)" style="stroke: #000000; stroke-linecap: round"/>
   </g>
   <g id="patch_13">
    <path d="M 127.095048 219.883843 
Q 120.810293 240.466174 114.852044 259.979209 
" clip-path="url(#p5ea5bb0b70)" style="fill: none; stroke: #000000; stroke-linecap: round"/>
    <path d="M 117.933003 256.737653 
L 114.852044 259.979209 
L 114.107374 255.569508 
z
" clip-path="url(#p5ea5bb0b70)" style="stroke: #000000; stroke-linecap: round"/>
   </g>
   <g id="patch_14">
    <path d="M 125.742764 217.77018 
Q 83.823925 212.097432 43.013021 206.574618 
" clip-path="url(#p5ea5bb0b70)" style="fill: none; stroke: #000000; stroke-linecap: round"/>
    <path d="M 46.70868 209.092971 
L 43.013021 206.574618 
L 47.245098 205.129102 
z
" clip-path="url(#p5ea5bb0b70)" style="stroke: #000000; stroke-linecap: round"/>
   </g>
   <g id="patch_15">
    <path d="M 127.728464 216.093278 
Q 129.109884 176.336107 130.45248 137.696296 
" clip-path="url(#p5ea5bb0b70)" style="fill: none; stroke: #000000; stroke-linecap: round"/>
    <path d="M 128.314784 141.624433 
L 130.45248 137.696296 
L 132.312372 141.763335 
z
" clip-path="url(#p5ea5bb0b70)" style="stroke: #000000; stroke-linecap: round"/>
   </g>
   <g id="patch_16">
    <path d="M 54.58 123.332962 
Q 90.528454 169.914104 125.793837 215.610139 
" clip-path="url(#p5ea5bb0b70)" style="fill: none; stroke: #000000; stroke-linecap: round"/>
    <path d="M 124.933336 211.22157 
L 125.793837 215.610139 
L 121.766681 213.665399 
z
" clip-path="url(#p5ea5bb0b70)" style="stroke: #000000; stroke-linecap: round"/>
   </g>
   <g id="patch_17">
    <path d="M 55.25591 121.255096 
Q 109.556471 105.444922 162.783572 89.947297 
" clip-path="url(#p5ea5bb0b70)" style="fill: none; stroke: #000000; stroke-linecap: round"/>
    <path d="M 158.383946 89.145244 
L 162.783572 89.947297 
L 159.502154 92.985766 
z
" clip-path="url(#p5ea5bb0b70)" style="stroke: #000000; stroke-linecap: round"/>
   </g>
   <g id="patch_18">
    <path d="M 164.995701 87.293853 
Q 153.915691 59.542586 143.250248 32.829651 
" clip-path="url(#p5ea5bb0b70)" style="fill: none; stroke: #000000; stroke-linecap: round"/>
    <path d="M 142.876019 37.286102 
L 143.250248 32.829651 
L 146.590871 35.802904 
z
" clip-path="url(#p5ea5bb0b70)" style="stroke: #000000; stroke-linecap: round"/>
   </g>
   <g id="patch_19">
    <path d="M 163.853155 89.635877 
Q 109.552595 105.446051 56.325493 120.943676 
" clip-path="url(#p5ea5bb0b70)" style="fill: none; stroke: #000000; stroke-linecap: round"/>
    <path d="M 60.72512 121.745729 
L 56.325493 120.943676 
L 59.606911 117.905207 
z
" clip-path="url(#p5ea5bb0b70)" style="stroke: #000000; stroke-linecap: round"/>
   </g>
   <g id="patch_20">
    <path d="M 164.532105 90.625856 
Q 148.137309 111.868438 132.425612 132.225935 
" clip-path="url(#p5ea5bb0b70)" style="fill: none; stroke: #000000; stroke-linecap: round"/>
    <path d="M 136.45283 130.281324 
L 132.425612 132.225935 
L 133.286254 127.837394 
z
" clip-path="url(#p5ea5bb0b70)" style="stroke: #000000; stroke-linecap: round"/>
   </g>
   <g id="patch_21">
    <path d="M 166.573146 90.827318 
Q 189.046466 136.189924 211.023464 180.550698 
" clip-path="url(#p5ea5bb0b70)" style="fill: none; stroke: #000000; stroke-linecap: round"/>
    <path d="M 211.039897 176.078592 
L 211.023464 180.550698 
L 207.455639 177.854288 
z
" clip-path="url(#p5ea5bb0b70)" style="stroke: #000000; stroke-linecap: round"/>
   </g>
   <g id="patch_22">
    <path d="M 213.854397 184.543324 
Q 252.058447 217.063376 289.411137 248.858731 
" clip-path="url(#p5ea5bb0b70)" style="fill: none; stroke: #000000; stroke-linecap: round"/>
    <path d="M 287.661589 244.74302 
L 289.411137 248.858731 
L 285.068839 247.788942 
z
" clip-path="url(#p5ea5bb0b70)" style="stroke: #000000; stroke-linecap: round"/>
   </g>
   <g id="patch_23">
    <path d="M 211.520758 181.554491 
Q 189.047438 136.191886 167.070441 91.831111 
" clip-path="url(#p5ea5bb0b70)" style="fill: none; stroke: #000000; stroke-linecap: round"/>
    <path d="M 167.054007 96.303217 
L 167.070441 91.831111 
L 170.638265 94.527522 
z
" clip-path="url(#p5ea5bb0b70)" style="stroke: #000000; stroke-linecap: round"/>
   </g>
   <g id="patch_24">
    <path d="M 210.874733 184.505063 
Q 163.170251 223.093393 116.335019 260.978583 
" clip-path="url(#p5ea5bb0b70)" style="fill: none; stroke: #000000; stroke-linecap: round"/>
    <path d="M 120.702755 260.017917 
L 116.335019 260.978583 
L 118.187127 256.907995 
z
" clip-path="url(#p5ea5bb0b70)" style="stroke: #000000; stroke-linecap: round"/>
   </g>
   <g id="patch_25">
    <path d="M 210.714008 182.297723 
Q 171.469167 158.966601 133.185356 136.206812 
" clip-path="url(#p5ea5bb0b70)" style="fill: none; stroke: #000000; stroke-linecap: round"/>
    <path d="M 135.601607 139.970019 
L 133.185356 136.206812 
L 137.645672 136.531735 
z
" clip-path="url(#p5ea5bb0b70)" style="stroke: #000000; stroke-linecap: round"/>
   </g>
   <g id="patch_26">
    <path d="M 112.712365 264.376149 
Q 91.687879 289.253483 71.385067 313.276893 
" clip-path="url(#p5ea5bb0b70)" style="fill: none; stroke: #000000; stroke-linecap: round"/>
    <path d="M 75.494552 311.51277 
L 71.385067 313.276893 
L 72.439459 308.930831 
z
" clip-path="url(#p5ea5bb0b70)" style="stroke: #000000; stroke-linecap: round"/>
   </g>
   <g id="patch_27">
    <path d="M 114.526483 261.045407 
Q 120.811239 240.463076 126.769487 220.950041 
" clip-path="url(#p5ea5bb0b70)" style="fill: none; stroke: #000000; stroke-linecap: round"/>
    <path d="M 123.688528 224.191598 
L 126.769487 220.950041 
L 127.514157 225.359743 
z
" clip-path="url(#p5ea5bb0b70)" style="stroke: #000000; stroke-linecap: round"/>
   </g>
   <g id="patch_28">
    <path d="M 115.465115 261.682252 
Q 163.169597 223.093922 210.004829 185.208731 
" clip-path="url(#p5ea5bb0b70)" style="fill: none; stroke: #000000; stroke-linecap: round"/>
    <path d="M 205.637093 186.169398 
L 210.004829 185.208731 
L 208.15272 189.27932 
z
" clip-path="url(#p5ea5bb0b70)" style="stroke: #000000; stroke-linecap: round"/>
   </g>
   <g id="patch_29">
    <path d="M 112.423001 261.720378 
Q 76.973065 234.531888 42.410284 208.023806 
" clip-path="url(#p5ea5bb0b70)" style="fill: none; stroke: #000000; stroke-linecap: round"/>
    <path d="M 44.367118 212.0451 
L 42.410284 208.023806 
L 46.801419 208.871116 
z
" clip-path="url(#p5ea5bb0b70)" style="stroke: #000000; stroke-linecap: round"/>
   </g>
   <g id="patch_30">
    <path d="M 41.905189 206.424699 
Q 83.824029 212.097446 124.634933 217.62026 
" clip-path="url(#p5ea5bb0b70)" style="fill: none; stroke: #000000; stroke-linecap: round"/>
    <path d="M 120.939273 215.101908 
L 124.634933 217.62026 
L 120.402855 219.065777 
z
" clip-path="url(#p5ea5bb0b70)" style="stroke: #000000; stroke-linecap: round"/>
   </g>
   <g id="patch_31">
    <path d="M 41.524131 207.344166 
Q 76.974067 234.532656 111.536847 261.040738 
" clip-path="url(#p5ea5bb0b70)" style="fill: none; stroke: #000000; stroke-linecap: round"/>
    <path d="M 109.580014 257.019444 
L 111.536847 261.040738 
L 107.145712 260.193428 
z
" clip-path="url(#p5ea5bb0b70)" style="stroke: #000000; stroke-linecap: round"/>
   </g>
   <g id="patch_32">
    <path d="M 41.504229 204.96683 
Q 85.27176 170.405805 128.16184 136.537659 
" clip-path="url(#p5ea5bb0b70)" style="fill: none; stroke: #000000; stroke-linecap: round"/>
    <path d="M 123.783119 137.446946 
L 128.16184 136.537659 
L 126.262037 140.586208 
z
" clip-path="url(#p5ea5bb0b70)" style="stroke: #000000; stroke-linecap: round"/>
   </g>
   <g id="patch_33">
    <path d="M 130.771188 132.719267 
Q 136.337733 82.315566 141.781549 33.023143 
" clip-path="url(#p5ea5bb0b70)" style="fill: none; stroke: #000000; stroke-linecap: round"/>
    <path d="M 139.354548 36.779427 
L 141.781549 33.023143 
L 143.330375 37.218514 
z
" clip-path="url(#p5ea5bb0b70)" style="stroke: #000000; stroke-linecap: round"/>
   </g>
   <g id="patch_34">
    <path d="M 130.49121 136.581655 
Q 129.109789 176.338825 127.767194 214.978636 
" clip-path="url(#p5ea5bb0b70)" style="fill: none; stroke: #000000; stroke-linecap: round"/>
    <path d="M 129.904889 211.0505 
L 127.767194 214.978636 
L 125.907302 210.911598 
z
" clip-path="url(#p5ea5bb0b70)" style="stroke: #000000; stroke-linecap: round"/>
   </g>
   <g id="patch_35">
    <path d="M 131.740803 133.113236 
Q 148.135599 111.870654 163.847295 91.513157 
" clip-path="url(#p5ea5bb0b70)" style="fill: none; stroke: #000000; stroke-linecap: round"/>
    <path d="M 159.820077 93.457769 
L 163.847295 91.513157 
L 162.986654 95.901699 
z
" clip-path="url(#p5ea5bb0b70)" style="stroke: #000000; stroke-linecap: round"/>
   </g>
   <g id="patch_36">
    <path d="M 132.223981 135.635273 
Q 171.468822 158.966396 209.752634 181.726185 
" clip-path="url(#p5ea5bb0b70)" style="fill: none; stroke: #000000; stroke-linecap: round"/>
    <path d="M 207.336383 177.962977 
L 209.752634 181.726185 
L 205.292317 181.401261 
z
" clip-path="url(#p5ea5bb0b70)" style="stroke: #000000; stroke-linecap: round"/>
   </g>
   <g id="patch_37">
    <path d="M 129.041044 135.843396 
Q 85.273513 170.404421 42.383433 204.272567 
" clip-path="url(#p5ea5bb0b70)" style="fill: none; stroke: #000000; stroke-linecap: round"/>
    <path d="M 46.762154 203.36328 
L 42.383433 204.272567 
L 44.283236 200.224018 
z
" clip-path="url(#p5ea5bb0b70)" style="stroke: #000000; stroke-linecap: round"/>
   </g>
   <g id="PathCollection_1">
    <defs>
     <path id="m93f7badb0f" d="M 0 1.936492 
C 0.513564 1.936492 1.006162 1.732451 1.369306 1.369306 
C 1.732451 1.006162 1.936492 0.513564 1.936492 0 
C 1.936492 -0.513564 1.732451 -1.006162 1.369306 -1.369306 
C 1.006162 -1.732451 0.513564 -1.936492 0 -1.936492 
C -0.513564 -1.936492 -1.006162 -1.732451 -1.369306 -1.369306 
C -1.732451 -1.006162 -1.936492 -0.513564 -1.936492 0 
C -1.936492 0.513564 -1.732451 1.006162 -1.369306 1.369306 
C -1.006162 1.732451 -0.513564 1.936492 0 1.936492 
z
" style="stroke: #1f78b4"/>
    </defs>
    <g clip-path="url(#p5ea5bb0b70)">
     <use xlink:href="#m93f7badb0f" x="291.738512" y="250.83984" style="fill: #1f78b4; stroke: #1f78b4"/>
     <use xlink:href="#m93f7badb0f" x="142.116518" y="29.990083" style="fill: #1f78b4; stroke: #1f78b4"/>
     <use xlink:href="#m93f7badb0f" x="420.813223" y="297.900971" style="fill: #1f78b4; stroke: #1f78b4"/>
     <use xlink:href="#m93f7badb0f" x="69.413367" y="315.609917" style="fill: #1f78b4; stroke: #1f78b4"/>
     <use xlink:href="#m93f7badb0f" x="127.661177" y="218.029793" style="fill: #1f78b4; stroke: #1f78b4"/>
     <use xlink:href="#m93f7badb0f" x="53.394655" y="121.79702" style="fill: #1f78b4; stroke: #1f78b4"/>
     <use xlink:href="#m93f7badb0f" x="165.714411" y="89.093953" style="fill: #1f78b4; stroke: #1f78b4"/>
     <use xlink:href="#m93f7badb0f" x="212.379493" y="183.287857" style="fill: #1f78b4; stroke: #1f78b4"/>
     <use xlink:href="#m93f7badb0f" x="113.960355" y="262.899458" style="fill: #1f78b4; stroke: #1f78b4"/>
     <use xlink:href="#m93f7badb0f" x="39.986777" y="206.165086" style="fill: #1f78b4; stroke: #1f78b4"/>
     <use xlink:href="#m93f7badb0f" x="130.558497" y="134.64514" style="fill: #1f78b4; stroke: #1f78b4"/>
    </g>
   </g>
   <g id="text_1">
    <g clip-path="url(#p5ea5bb0b70)">
     <!-- 0 -->
     <g transform="translate(288.557262 253.599215) scale(0.1 -0.1)">
      <defs>
       <path id="DejaVuSans-30" d="M 2034 4250 
Q 1547 4250 1301 3770 
Q 1056 3291 1056 2328 
Q 1056 1369 1301 889 
Q 1547 409 2034 409 
Q 2525 409 2770 889 
Q 3016 1369 3016 2328 
Q 3016 3291 2770 3770 
Q 2525 4250 2034 4250 
z
M 2034 4750 
Q 2819 4750 3233 4129 
Q 3647 3509 3647 2328 
Q 3647 1150 3233 529 
Q 2819 -91 2034 -91 
Q 1250 -91 836 529 
Q 422 1150 422 2328 
Q 422 3509 836 4129 
Q 1250 4750 2034 4750 
z
" transform="scale(0.015625)"/>
      </defs>
      <use xlink:href="#DejaVuSans-30"/>
     </g>
    </g>
   </g>
   <g id="text_2">
    <g clip-path="url(#p5ea5bb0b70)">
     <!-- 1 -->
     <g transform="translate(138.935268 32.749458) scale(0.1 -0.1)">
      <defs>
       <path id="DejaVuSans-31" d="M 794 531 
L 1825 531 
L 1825 4091 
L 703 3866 
L 703 4441 
L 1819 4666 
L 2450 4666 
L 2450 531 
L 3481 531 
L 3481 0 
L 794 0 
L 794 531 
z
" transform="scale(0.015625)"/>
      </defs>
      <use xlink:href="#DejaVuSans-31"/>
     </g>
    </g>
   </g>
   <g id="text_3">
    <g clip-path="url(#p5ea5bb0b70)">
     <!-- 2 -->
     <g transform="translate(417.631973 300.660346) scale(0.1 -0.1)">
      <defs>
       <path id="DejaVuSans-32" d="M 1228 531 
L 3431 531 
L 3431 0 
L 469 0 
L 469 531 
Q 828 903 1448 1529 
Q 2069 2156 2228 2338 
Q 2531 2678 2651 2914 
Q 2772 3150 2772 3378 
Q 2772 3750 2511 3984 
Q 2250 4219 1831 4219 
Q 1534 4219 1204 4116 
Q 875 4013 500 3803 
L 500 4441 
Q 881 4594 1212 4672 
Q 1544 4750 1819 4750 
Q 2544 4750 2975 4387 
Q 3406 4025 3406 3419 
Q 3406 3131 3298 2873 
Q 3191 2616 2906 2266 
Q 2828 2175 2409 1742 
Q 1991 1309 1228 531 
z
" transform="scale(0.015625)"/>
      </defs>
      <use xlink:href="#DejaVuSans-32"/>
     </g>
    </g>
   </g>
   <g id="text_4">
    <g clip-path="url(#p5ea5bb0b70)">
     <!-- 3 -->
     <g transform="translate(66.232117 318.369292) scale(0.1 -0.1)">
      <defs>
       <path id="DejaVuSans-33" d="M 2597 2516 
Q 3050 2419 3304 2112 
Q 3559 1806 3559 1356 
Q 3559 666 3084 287 
Q 2609 -91 1734 -91 
Q 1441 -91 1130 -33 
Q 819 25 488 141 
L 488 750 
Q 750 597 1062 519 
Q 1375 441 1716 441 
Q 2309 441 2620 675 
Q 2931 909 2931 1356 
Q 2931 1769 2642 2001 
Q 2353 2234 1838 2234 
L 1294 2234 
L 1294 2753 
L 1863 2753 
Q 2328 2753 2575 2939 
Q 2822 3125 2822 3475 
Q 2822 3834 2567 4026 
Q 2313 4219 1838 4219 
Q 1578 4219 1281 4162 
Q 984 4106 628 3988 
L 628 4550 
Q 988 4650 1302 4700 
Q 1616 4750 1894 4750 
Q 2613 4750 3031 4423 
Q 3450 4097 3450 3541 
Q 3450 3153 3228 2886 
Q 3006 2619 2597 2516 
z
" transform="scale(0.015625)"/>
      </defs>
      <use xlink:href="#DejaVuSans-33"/>
     </g>
    </g>
   </g>
   <g id="text_5">
    <g clip-path="url(#p5ea5bb0b70)">
     <!-- 4 -->
     <g transform="translate(124.479927 220.789168) scale(0.1 -0.1)">
      <defs>
       <path id="DejaVuSans-34" d="M 2419 4116 
L 825 1625 
L 2419 1625 
L 2419 4116 
z
M 2253 4666 
L 3047 4666 
L 3047 1625 
L 3713 1625 
L 3713 1100 
L 3047 1100 
L 3047 0 
L 2419 0 
L 2419 1100 
L 313 1100 
L 313 1709 
L 2253 4666 
z
" transform="scale(0.015625)"/>
      </defs>
      <use xlink:href="#DejaVuSans-34"/>
     </g>
    </g>
   </g>
   <g id="text_6">
    <g clip-path="url(#p5ea5bb0b70)">
     <!-- 5 -->
     <g transform="translate(50.213405 124.556395) scale(0.1 -0.1)">
      <defs>
       <path id="DejaVuSans-35" d="M 691 4666 
L 3169 4666 
L 3169 4134 
L 1269 4134 
L 1269 2991 
Q 1406 3038 1543 3061 
Q 1681 3084 1819 3084 
Q 2600 3084 3056 2656 
Q 3513 2228 3513 1497 
Q 3513 744 3044 326 
Q 2575 -91 1722 -91 
Q 1428 -91 1123 -41 
Q 819 9 494 109 
L 494 744 
Q 775 591 1075 516 
Q 1375 441 1709 441 
Q 2250 441 2565 725 
Q 2881 1009 2881 1497 
Q 2881 1984 2565 2268 
Q 2250 2553 1709 2553 
Q 1456 2553 1204 2497 
Q 953 2441 691 2322 
L 691 4666 
z
" transform="scale(0.015625)"/>
      </defs>
      <use xlink:href="#DejaVuSans-35"/>
     </g>
    </g>
   </g>
   <g id="text_7">
    <g clip-path="url(#p5ea5bb0b70)">
     <!-- 6 -->
     <g transform="translate(162.533161 91.853328) scale(0.1 -0.1)">
      <defs>
       <path id="DejaVuSans-36" d="M 2113 2584 
Q 1688 2584 1439 2293 
Q 1191 2003 1191 1497 
Q 1191 994 1439 701 
Q 1688 409 2113 409 
Q 2538 409 2786 701 
Q 3034 994 3034 1497 
Q 3034 2003 2786 2293 
Q 2538 2584 2113 2584 
z
M 3366 4563 
L 3366 3988 
Q 3128 4100 2886 4159 
Q 2644 4219 2406 4219 
Q 1781 4219 1451 3797 
Q 1122 3375 1075 2522 
Q 1259 2794 1537 2939 
Q 1816 3084 2150 3084 
Q 2853 3084 3261 2657 
Q 3669 2231 3669 1497 
Q 3669 778 3244 343 
Q 2819 -91 2113 -91 
Q 1303 -91 875 529 
Q 447 1150 447 2328 
Q 447 3434 972 4092 
Q 1497 4750 2381 4750 
Q 2619 4750 2861 4703 
Q 3103 4656 3366 4563 
z
" transform="scale(0.015625)"/>
      </defs>
      <use xlink:href="#DejaVuSans-36"/>
     </g>
    </g>
   </g>
   <g id="text_8">
    <g clip-path="url(#p5ea5bb0b70)">
     <!-- 7 -->
     <g transform="translate(209.198243 186.047232) scale(0.1 -0.1)">
      <defs>
       <path id="DejaVuSans-37" d="M 525 4666 
L 3525 4666 
L 3525 4397 
L 1831 0 
L 1172 0 
L 2766 4134 
L 525 4134 
L 525 4666 
z
" transform="scale(0.015625)"/>
      </defs>
      <use xlink:href="#DejaVuSans-37"/>
     </g>
    </g>
   </g>
   <g id="text_9">
    <g clip-path="url(#p5ea5bb0b70)">
     <!-- 8 -->
     <g transform="translate(110.779105 265.658833) scale(0.1 -0.1)">
      <defs>
       <path id="DejaVuSans-38" d="M 2034 2216 
Q 1584 2216 1326 1975 
Q 1069 1734 1069 1313 
Q 1069 891 1326 650 
Q 1584 409 2034 409 
Q 2484 409 2743 651 
Q 3003 894 3003 1313 
Q 3003 1734 2745 1975 
Q 2488 2216 2034 2216 
z
M 1403 2484 
Q 997 2584 770 2862 
Q 544 3141 544 3541 
Q 544 4100 942 4425 
Q 1341 4750 2034 4750 
Q 2731 4750 3128 4425 
Q 3525 4100 3525 3541 
Q 3525 3141 3298 2862 
Q 3072 2584 2669 2484 
Q 3125 2378 3379 2068 
Q 3634 1759 3634 1313 
Q 3634 634 3220 271 
Q 2806 -91 2034 -91 
Q 1263 -91 848 271 
Q 434 634 434 1313 
Q 434 1759 690 2068 
Q 947 2378 1403 2484 
z
M 1172 3481 
Q 1172 3119 1398 2916 
Q 1625 2713 2034 2713 
Q 2441 2713 2670 2916 
Q 2900 3119 2900 3481 
Q 2900 3844 2670 4047 
Q 2441 4250 2034 4250 
Q 1625 4250 1398 4047 
Q 1172 3844 1172 3481 
z
" transform="scale(0.015625)"/>
      </defs>
      <use xlink:href="#DejaVuSans-38"/>
     </g>
    </g>
   </g>
   <g id="text_10">
    <g clip-path="url(#p5ea5bb0b70)">
     <!-- 9 -->
     <g transform="translate(36.805527 208.924461) scale(0.1 -0.1)">
      <defs>
       <path id="DejaVuSans-39" d="M 703 97 
L 703 672 
Q 941 559 1184 500 
Q 1428 441 1663 441 
Q 2288 441 2617 861 
Q 2947 1281 2994 2138 
Q 2813 1869 2534 1725 
Q 2256 1581 1919 1581 
Q 1219 1581 811 2004 
Q 403 2428 403 3163 
Q 403 3881 828 4315 
Q 1253 4750 1959 4750 
Q 2769 4750 3195 4129 
Q 3622 3509 3622 2328 
Q 3622 1225 3098 567 
Q 2575 -91 1691 -91 
Q 1453 -91 1209 -44 
Q 966 3 703 97 
z
M 1959 2075 
Q 2384 2075 2632 2365 
Q 2881 2656 2881 3163 
Q 2881 3666 2632 3958 
Q 2384 4250 1959 4250 
Q 1534 4250 1286 3958 
Q 1038 3666 1038 3163 
Q 1038 2656 1286 2365 
Q 1534 2075 1959 2075 
z
" transform="scale(0.015625)"/>
      </defs>
      <use xlink:href="#DejaVuSans-39"/>
     </g>
    </g>
   </g>
   <g id="text_11">
    <g clip-path="url(#p5ea5bb0b70)">
     <!-- 10 -->
     <g transform="translate(124.195997 137.404515) scale(0.1 -0.1)">
      <use xlink:href="#DejaVuSans-31"/>
      <use xlink:href="#DejaVuSans-30" x="63.623047"/>
     </g>
    </g>
   </g>
  </g>
 </g>
 <defs>
  <clipPath id="p5ea5bb0b70">
   <rect x="0" y="0" width="460.8" height="345.6"/>
  </clipPath>
 </defs>
</svg>
