<?xml version="1.0" encoding="utf-8" standalone="no"?>
<!DOCTYPE svg PUBLIC "-//W3C//DTD SVG 1.1//EN"
  "http://www.w3.org/Graphics/SVG/1.1/DTD/svg11.dtd">
<svg xmlns:xlink="http://www.w3.org/1999/xlink" width="460.8pt" height="345.6pt" viewBox="0 0 460.8 345.6" xmlns="http://www.w3.org/2000/svg" version="1.1">
 <metadata>
  <rdf:RDF xmlns:dc="http://purl.org/dc/elements/1.1/" xmlns:cc="http://creativecommons.org/ns#" xmlns:rdf="http://www.w3.org/1999/02/22-rdf-syntax-ns#">
   <cc:Work>
    <dc:type rdf:resource="http://purl.org/dc/dcmitype/StillImage"/>
    <dc:date>2024-02-07T13:48:26.685075</dc:date>
    <dc:format>image/svg+xml</dc:format>
    <dc:creator>
     <cc:Agent>
      <dc:title>Matplotlib v3.8.0, https://matplotlib.org/</dc:title>
     </cc:Agent>
    </dc:creator>
   </cc:Work>
  </rdf:RDF>
 </metadata>
 <defs>
  <style type="text/css">*{stroke-linejoin: round; stroke-linecap: butt}</style>
 </defs>
 <g id="figure_1">
  <g id="patch_1">
   <path d="M 0 345.6 
L 460.8 345.6 
L 460.8 0 
L 0 0 
z
" style="fill: #ffffff"/>
  </g>
  <g id="axes_1">
   <g id="patch_2">
    <path d="M 171.443448 271.62951 
Q 151.013358 234.23072 131.119263 197.813108 
" clip-path="url(#pd3fa84ff5d)" style="fill: none; stroke: #000000; stroke-linecap: round"/>
    <path d="M 131.281711 202.282293 
L 131.119263 197.813108 
L 134.792079 200.36466 
z
" clip-path="url(#pd3fa84ff5d)" style="stroke: #000000; stroke-linecap: round"/>
   </g>
   <g id="patch_3">
    <path d="M 173.398923 274.972513 
Q 183.246937 290.728671 192.502376 305.53675 
" clip-path="url(#pd3fa84ff5d)" style="fill: none; stroke: #000000; stroke-linecap: round"/>
    <path d="M 192.078293 301.084766 
L 192.502376 305.53675 
L 188.68634 303.204827 
z
" clip-path="url(#pd3fa84ff5d)" style="stroke: #000000; stroke-linecap: round"/>
   </g>
   <g id="patch_4">
    <path d="M 173.398923 274.972513 
Q 183.246937 290.728671 192.502376 305.53675 
" clip-path="url(#pd3fa84ff5d)" style="fill: none; stroke: #000000; stroke-linecap: round"/>
    <path d="M 192.078293 301.084766 
L 192.502376 305.53675 
L 188.68634 303.204827 
z
" clip-path="url(#pd3fa84ff5d)" style="stroke: #000000; stroke-linecap: round"/>
   </g>
   <g id="patch_5">
    <path d="M 174.033077 274.328379 
Q 204.988511 292.925937 234.98557 310.947719 
" clip-path="url(#pd3fa84ff5d)" style="fill: none; stroke: #000000; stroke-linecap: round"/>
    <path d="M 232.586767 307.173366 
L 234.98557 310.947719 
L 230.526805 310.60215 
z
" clip-path="url(#pd3fa84ff5d)" style="stroke: #000000; stroke-linecap: round"/>
   </g>
   <g id="patch_6">
    <path d="M 269.154782 314.530536 
Q 303.095012 299.607301 336.011773 285.134077 
" clip-path="url(#pd3fa84ff5d)" style="fill: none; stroke: #000000; stroke-linecap: round"/>
    <path d="M 331.545093 284.913247 
L 336.011773 285.134077 
L 333.155101 288.574923 
z
" clip-path="url(#pd3fa84ff5d)" style="stroke: #000000; stroke-linecap: round"/>
   </g>
   <g id="patch_7">
    <path d="M 265.453209 315.121645 
Q 230.750656 311.717317 197.160796 308.422145 
" clip-path="url(#pd3fa84ff5d)" style="fill: none; stroke: #000000; stroke-linecap: round"/>
    <path d="M 200.946423 310.803116 
L 197.160796 308.422145 
L 201.336949 306.822226 
z
" clip-path="url(#pd3fa84ff5d)" style="stroke: #000000; stroke-linecap: round"/>
   </g>
   <g id="patch_8">
    <path d="M 265.450121 315.129737 
Q 252.489167 313.914632 240.641366 312.803887 
" clip-path="url(#pd3fa84ff5d)" style="fill: none; stroke: #000000; stroke-linecap: round"/>
    <path d="M 244.437218 315.168523 
L 240.641366 312.803887 
L 244.810586 311.185986 
z
" clip-path="url(#pd3fa84ff5d)" style="stroke: #000000; stroke-linecap: round"/>
   </g>
   <g id="patch_9">
    <path d="M 265.450121 315.129737 
Q 252.489167 313.914632 240.641366 312.803887 
" clip-path="url(#pd3fa84ff5d)" style="fill: none; stroke: #000000; stroke-linecap: round"/>
    <path d="M 244.437218 315.168523 
L 240.641366 312.803887 
L 244.810586 311.185986 
z
" clip-path="url(#pd3fa84ff5d)" style="stroke: #000000; stroke-linecap: round"/>
   </g>
   <g id="patch_10">
    <path d="M 337.033678 284.684754 
Q 303.093448 299.607989 270.176687 314.081213 
" clip-path="url(#pd3fa84ff5d)" style="fill: none; stroke: #000000; stroke-linecap: round"/>
    <path d="M 274.643368 314.302042 
L 270.176687 314.081213 
L 273.033359 310.640366 
z
" clip-path="url(#pd3fa84ff5d)" style="stroke: #000000; stroke-linecap: round"/>
   </g>
   <g id="patch_11">
    <path d="M 339.61501 282.14123 
Q 344.420914 271.639672 348.761569 262.154747 
" clip-path="url(#pd3fa84ff5d)" style="fill: none; stroke: #000000; stroke-linecap: round"/>
    <path d="M 345.278434 264.959701 
L 348.761569 262.154747 
L 348.915652 266.624228 
z
" clip-path="url(#pd3fa84ff5d)" style="stroke: #000000; stroke-linecap: round"/>
   </g>
   <g id="patch_12">
    <path d="M 337.565005 285.392707 
Q 325.565632 299.758054 314.283003 313.265335 
" clip-path="url(#pd3fa84ff5d)" style="fill: none; stroke: #000000; stroke-linecap: round"/>
    <path d="M 318.382259 311.47757 
L 314.283003 313.265335 
L 315.312345 308.913271 
z
" clip-path="url(#pd3fa84ff5d)" style="stroke: #000000; stroke-linecap: round"/>
   </g>
   <g id="patch_13">
    <path d="M 337.565005 285.392707 
Q 325.565632 299.758054 314.283003 313.265335 
" clip-path="url(#pd3fa84ff5d)" style="fill: none; stroke: #000000; stroke-linecap: round"/>
    <path d="M 318.382259 311.47757 
L 314.283003 313.265335 
L 315.312345 308.913271 
z
" clip-path="url(#pd3fa84ff5d)" style="stroke: #000000; stroke-linecap: round"/>
   </g>
   <g id="patch_14">
    <path d="M 339.87397 282.291613 
Q 355.190978 259.113954 369.891572 236.869052 
" clip-path="url(#pd3fa84ff5d)" style="fill: none; stroke: #000000; stroke-linecap: round"/>
    <path d="M 366.017658 239.103506 
L 369.891572 236.869052 
L 369.354787 241.308856 
z
" clip-path="url(#pd3fa84ff5d)" style="stroke: #000000; stroke-linecap: round"/>
   </g>
   <g id="patch_15">
    <path d="M 339.87397 282.291613 
Q 355.190978 259.113954 369.891572 236.869052 
" clip-path="url(#pd3fa84ff5d)" style="fill: none; stroke: #000000; stroke-linecap: round"/>
    <path d="M 366.017658 239.103506 
L 369.891572 236.869052 
L 369.354787 241.308856 
z
" clip-path="url(#pd3fa84ff5d)" style="stroke: #000000; stroke-linecap: round"/>
   </g>
   <g id="patch_16">
    <path d="M 313.567602 314.121795 
Q 325.566975 299.756447 336.849604 286.249167 
" clip-path="url(#pd3fa84ff5d)" style="fill: none; stroke: #000000; stroke-linecap: round"/>
    <path d="M 332.750348 288.036932 
L 336.849604 286.249167 
L 335.820262 290.601231 
z
" clip-path="url(#pd3fa84ff5d)" style="stroke: #000000; stroke-linecap: round"/>
   </g>
   <g id="patch_17">
    <path d="M 313.567602 314.121795 
Q 325.566975 299.756447 336.849604 286.249167 
" clip-path="url(#pd3fa84ff5d)" style="fill: none; stroke: #000000; stroke-linecap: round"/>
    <path d="M 332.750348 288.036932 
L 336.849604 286.249167 
L 335.820262 290.601231 
z
" clip-path="url(#pd3fa84ff5d)" style="stroke: #000000; stroke-linecap: round"/>
   </g>
   <g id="patch_18">
    <path d="M 310.386239 315.529734 
Q 274.95968 314.064245 240.6502 312.644967 
" clip-path="url(#pd3fa84ff5d)" style="fill: none; stroke: #000000; stroke-linecap: round"/>
    <path d="M 244.564119 314.808584 
L 240.6502 312.644967 
L 244.729445 310.812002 
z
" clip-path="url(#pd3fa84ff5d)" style="stroke: #000000; stroke-linecap: round"/>
   </g>
   <g id="patch_19">
    <path d="M 130.585639 196.836271 
Q 151.015729 234.235061 170.909824 270.652672 
" clip-path="url(#pd3fa84ff5d)" style="fill: none; stroke: #000000; stroke-linecap: round"/>
    <path d="M 170.747376 266.183488 
L 170.909824 270.652672 
L 167.237008 268.10112 
z
" clip-path="url(#pd3fa84ff5d)" style="stroke: #000000; stroke-linecap: round"/>
   </g>
   <g id="patch_20">
    <path d="M 129.226863 193.246806 
Q 121.263274 158.224284 113.547581 124.291968 
" clip-path="url(#pd3fa84ff5d)" style="fill: none; stroke: #000000; stroke-linecap: round"/>
    <path d="M 112.484263 128.635855 
L 113.547581 124.291968 
L 116.3847 127.748955 
z
" clip-path="url(#pd3fa84ff5d)" style="stroke: #000000; stroke-linecap: round"/>
   </g>
   <g id="patch_21">
    <path d="M 322.379081 138.359718 
Q 345.289752 159.06265 367.370897 179.015991 
" clip-path="url(#pd3fa84ff5d)" style="fill: none; stroke: #000000; stroke-linecap: round"/>
    <path d="M 365.744002 174.850272 
L 367.370897 179.015991 
L 363.062185 177.818076 
z
" clip-path="url(#pd3fa84ff5d)" style="stroke: #000000; stroke-linecap: round"/>
   </g>
   <g id="patch_22">
    <path d="M 322.379081 138.359718 
Q 345.289752 159.06265 367.370897 179.015991 
" clip-path="url(#pd3fa84ff5d)" style="fill: none; stroke: #000000; stroke-linecap: round"/>
    <path d="M 365.744002 174.850272 
L 367.370897 179.015991 
L 363.062185 177.818076 
z
" clip-path="url(#pd3fa84ff5d)" style="stroke: #000000; stroke-linecap: round"/>
   </g>
   <g id="patch_23">
    <path d="M 319.20606 136.206371 
Q 288.373257 121.013755 258.543349 106.315307 
" clip-path="url(#pd3fa84ff5d)" style="fill: none; stroke: #000000; stroke-linecap: round"/>
    <path d="M 261.247419 109.87733 
L 258.543349 106.315307 
L 263.015409 106.289265 
z
" clip-path="url(#pd3fa84ff5d)" style="stroke: #000000; stroke-linecap: round"/>
   </g>
   <g id="patch_24">
    <path d="M 319.20606 136.206371 
Q 288.373257 121.013755 258.543349 106.315307 
" clip-path="url(#pd3fa84ff5d)" style="fill: none; stroke: #000000; stroke-linecap: round"/>
    <path d="M 261.247419 109.87733 
L 258.543349 106.315307 
L 263.015409 106.289265 
z
" clip-path="url(#pd3fa84ff5d)" style="stroke: #000000; stroke-linecap: round"/>
   </g>
   <g id="patch_25">
    <path d="M 193.093337 306.482247 
Q 183.245323 290.726089 173.989884 275.918011 
" clip-path="url(#pd3fa84ff5d)" style="fill: none; stroke: #000000; stroke-linecap: round"/>
    <path d="M 174.413967 280.369994 
L 173.989884 275.918011 
L 177.80592 278.249934 
z
" clip-path="url(#pd3fa84ff5d)" style="stroke: #000000; stroke-linecap: round"/>
   </g>
   <g id="patch_26">
    <path d="M 193.093337 306.482247 
Q 183.245323 290.726089 173.989884 275.918011 
" clip-path="url(#pd3fa84ff5d)" style="fill: none; stroke: #000000; stroke-linecap: round"/>
    <path d="M 174.413967 280.369994 
L 173.989884 275.918011 
L 177.80592 278.249934 
z
" clip-path="url(#pd3fa84ff5d)" style="stroke: #000000; stroke-linecap: round"/>
   </g>
   <g id="patch_27">
    <path d="M 196.046554 308.312838 
Q 230.749107 311.717165 264.338968 315.012337 
" clip-path="url(#pd3fa84ff5d)" style="fill: none; stroke: #000000; stroke-linecap: round"/>
    <path d="M 260.55334 312.631366 
L 264.338968 315.012337 
L 260.162814 316.612256 
z
" clip-path="url(#pd3fa84ff5d)" style="stroke: #000000; stroke-linecap: round"/>
   </g>
   <g id="patch_28">
    <path d="M 235.940489 311.52142 
Q 204.985055 292.923862 174.987996 274.90208 
" clip-path="url(#pd3fa84ff5d)" style="fill: none; stroke: #000000; stroke-linecap: round"/>
    <path d="M 177.386799 278.676433 
L 174.987996 274.90208 
L 179.446761 275.247649 
z
" clip-path="url(#pd3fa84ff5d)" style="stroke: #000000; stroke-linecap: round"/>
   </g>
   <g id="patch_29">
    <path d="M 239.530948 312.699784 
Q 252.491903 313.914889 264.339704 315.025634 
" clip-path="url(#pd3fa84ff5d)" style="fill: none; stroke: #000000; stroke-linecap: round"/>
    <path d="M 260.543851 312.660998 
L 264.339704 315.025634 
L 260.170484 316.643535 
z
" clip-path="url(#pd3fa84ff5d)" style="stroke: #000000; stroke-linecap: round"/>
   </g>
   <g id="patch_30">
    <path d="M 239.530948 312.699784 
Q 252.491903 313.914889 264.339704 315.025634 
" clip-path="url(#pd3fa84ff5d)" style="fill: none; stroke: #000000; stroke-linecap: round"/>
    <path d="M 260.543851 312.660998 
L 264.339704 315.025634 
L 260.170484 316.643535 
z
" clip-path="url(#pd3fa84ff5d)" style="stroke: #000000; stroke-linecap: round"/>
   </g>
   <g id="patch_31">
    <path d="M 239.538977 312.598999 
Q 274.965536 314.064488 309.275016 315.483766 
" clip-path="url(#pd3fa84ff5d)" style="fill: none; stroke: #000000; stroke-linecap: round"/>
    <path d="M 305.361097 313.320149 
L 309.275016 315.483766 
L 305.195771 317.316731 
z
" clip-path="url(#pd3fa84ff5d)" style="stroke: #000000; stroke-linecap: round"/>
   </g>
   <g id="patch_32">
    <path d="M 257.540358 105.821092 
Q 288.373162 121.013708 318.20307 135.712155 
" clip-path="url(#pd3fa84ff5d)" style="fill: none; stroke: #000000; stroke-linecap: round"/>
    <path d="M 315.499 132.150133 
L 318.20307 135.712155 
L 313.73101 135.738198 
z
" clip-path="url(#pd3fa84ff5d)" style="stroke: #000000; stroke-linecap: round"/>
   </g>
   <g id="patch_33">
    <path d="M 257.540358 105.821092 
Q 288.373162 121.013708 318.20307 135.712155 
" clip-path="url(#pd3fa84ff5d)" style="fill: none; stroke: #000000; stroke-linecap: round"/>
    <path d="M 315.499 132.150133 
L 318.20307 135.712155 
L 313.73101 135.738198 
z
" clip-path="url(#pd3fa84ff5d)" style="stroke: #000000; stroke-linecap: round"/>
   </g>
   <g id="patch_34">
    <path d="M 253.923287 104.493919 
Q 219.226099 95.79836 185.613407 87.37459 
" clip-path="url(#pd3fa84ff5d)" style="fill: none; stroke: #000000; stroke-linecap: round"/>
    <path d="M 189.007227 90.286975 
L 185.613407 87.37459 
L 189.979607 86.406965 
z
" clip-path="url(#pd3fa84ff5d)" style="stroke: #000000; stroke-linecap: round"/>
   </g>
   <g id="patch_35">
    <path d="M 253.923287 104.493919 
Q 219.226099 95.79836 185.613407 87.37459 
" clip-path="url(#pd3fa84ff5d)" style="fill: none; stroke: #000000; stroke-linecap: round"/>
    <path d="M 189.007227 90.286975 
L 185.613407 87.37459 
L 189.979607 86.406965 
z
" clip-path="url(#pd3fa84ff5d)" style="stroke: #000000; stroke-linecap: round"/>
   </g>
   <g id="patch_36">
    <path d="M 184.53371 87.104004 
Q 219.230898 95.799563 252.84359 104.223333 
" clip-path="url(#pd3fa84ff5d)" style="fill: none; stroke: #000000; stroke-linecap: round"/>
    <path d="M 249.449771 101.310948 
L 252.84359 104.223333 
L 248.477391 105.190958 
z
" clip-path="url(#pd3fa84ff5d)" style="stroke: #000000; stroke-linecap: round"/>
   </g>
   <g id="patch_37">
    <path d="M 184.53371 87.104004 
Q 219.230898 95.799563 252.84359 104.223333 
" clip-path="url(#pd3fa84ff5d)" style="fill: none; stroke: #000000; stroke-linecap: round"/>
    <path d="M 249.449771 101.310948 
L 252.84359 104.223333 
L 248.477391 105.190958 
z
" clip-path="url(#pd3fa84ff5d)" style="stroke: #000000; stroke-linecap: round"/>
   </g>
   <g id="patch_38">
    <path d="M 180.92055 87.494356 
Q 147.760974 103.971537 115.602634 119.951198 
" clip-path="url(#pd3fa84ff5d)" style="fill: none; stroke: #000000; stroke-linecap: round"/>
    <path d="M 120.074757 119.962282 
L 115.602634 119.951198 
L 118.294775 116.38015 
z
" clip-path="url(#pd3fa84ff5d)" style="stroke: #000000; stroke-linecap: round"/>
   </g>
   <g id="patch_39">
    <path d="M 181.054704 85.547004 
Q 151.534155 65.503301 122.938578 46.087631 
" clip-path="url(#pd3fa84ff5d)" style="fill: none; stroke: #000000; stroke-linecap: round"/>
    <path d="M 125.124402 49.989191 
L 122.938578 46.087631 
L 127.371321 46.679908 
z
" clip-path="url(#pd3fa84ff5d)" style="stroke: #000000; stroke-linecap: round"/>
   </g>
   <g id="patch_40">
    <path d="M 113.298684 123.197357 
Q 121.262272 158.219879 128.977965 192.152195 
" clip-path="url(#pd3fa84ff5d)" style="fill: none; stroke: #000000; stroke-linecap: round"/>
    <path d="M 130.041284 187.808308 
L 128.977965 192.152195 
L 126.140847 188.695208 
z
" clip-path="url(#pd3fa84ff5d)" style="stroke: #000000; stroke-linecap: round"/>
   </g>
   <g id="patch_41">
    <path d="M 114.602927 120.447958 
Q 147.762502 103.970777 179.920842 87.991116 
" clip-path="url(#pd3fa84ff5d)" style="fill: none; stroke: #000000; stroke-linecap: round"/>
    <path d="M 175.44872 87.980032 
L 179.920842 87.991116 
L 177.228701 91.562163 
z
" clip-path="url(#pd3fa84ff5d)" style="stroke: #000000; stroke-linecap: round"/>
   </g>
   <g id="patch_42">
    <path d="M 111.343943 120.116415 
Q 91.287652 104.431647 72.112062 89.43562 
" clip-path="url(#pd3fa84ff5d)" style="fill: none; stroke: #000000; stroke-linecap: round"/>
    <path d="M 74.030897 93.475183 
L 72.112062 89.43562 
L 76.495014 90.32429 
z
" clip-path="url(#pd3fa84ff5d)" style="stroke: #000000; stroke-linecap: round"/>
   </g>
   <g id="patch_43">
    <path d="M 111.343943 120.116415 
Q 91.287652 104.431647 72.112062 89.43562 
" clip-path="url(#pd3fa84ff5d)" style="fill: none; stroke: #000000; stroke-linecap: round"/>
    <path d="M 74.030897 93.475183 
L 72.112062 89.43562 
L 76.495014 90.32429 
z
" clip-path="url(#pd3fa84ff5d)" style="stroke: #000000; stroke-linecap: round"/>
   </g>
   <g id="patch_44">
    <path d="M 50.246137 52.121001 
Q 61.697506 41.707961 72.321695 32.047099 
" clip-path="url(#pd3fa84ff5d)" style="fill: none; stroke: #000000; stroke-linecap: round"/>
    <path d="M 68.016745 33.258466 
L 72.321695 32.047099 
L 70.707819 36.217879 
z
" clip-path="url(#pd3fa84ff5d)" style="stroke: #000000; stroke-linecap: round"/>
   </g>
   <g id="patch_45">
    <path d="M 50.246137 52.121001 
Q 61.697506 41.707961 72.321695 32.047099 
" clip-path="url(#pd3fa84ff5d)" style="fill: none; stroke: #000000; stroke-linecap: round"/>
    <path d="M 68.016745 33.258466 
L 72.321695 32.047099 
L 70.707819 36.217879 
z
" clip-path="url(#pd3fa84ff5d)" style="stroke: #000000; stroke-linecap: round"/>
   </g>
   <g id="patch_46">
    <path d="M 49.827201 55.076482 
Q 59.259663 70.487856 68.108477 84.945628 
" clip-path="url(#pd3fa84ff5d)" style="fill: none; stroke: #000000; stroke-linecap: round"/>
    <path d="M 67.726211 80.48986 
L 68.108477 84.945628 
L 64.314503 82.57798 
z
" clip-path="url(#pd3fa84ff5d)" style="stroke: #000000; stroke-linecap: round"/>
   </g>
   <g id="patch_47">
    <path d="M 49.827201 55.076482 
Q 59.259663 70.487856 68.108477 84.945628 
" clip-path="url(#pd3fa84ff5d)" style="fill: none; stroke: #000000; stroke-linecap: round"/>
    <path d="M 67.726211 80.48986 
L 68.108477 84.945628 
L 64.314503 82.57798 
z
" clip-path="url(#pd3fa84ff5d)" style="stroke: #000000; stroke-linecap: round"/>
   </g>
   <g id="patch_48">
    <path d="M 73.152566 31.291565 
Q 61.701197 41.704605 51.077008 51.365467 
" clip-path="url(#pd3fa84ff5d)" style="fill: none; stroke: #000000; stroke-linecap: round"/>
    <path d="M 55.381958 50.154099 
L 51.077008 51.365467 
L 52.690884 47.194687 
z
" clip-path="url(#pd3fa84ff5d)" style="stroke: #000000; stroke-linecap: round"/>
   </g>
   <g id="patch_49">
    <path d="M 73.152566 31.291565 
Q 61.701197 41.704605 51.077008 51.365467 
" clip-path="url(#pd3fa84ff5d)" style="fill: none; stroke: #000000; stroke-linecap: round"/>
    <path d="M 55.381958 50.154099 
L 51.077008 51.365467 
L 52.690884 47.194687 
z
" clip-path="url(#pd3fa84ff5d)" style="stroke: #000000; stroke-linecap: round"/>
   </g>
   <g id="patch_50">
    <path d="M 76.432683 30.570286 
Q 97.497077 37.180652 117.494732 43.456257 
" clip-path="url(#pd3fa84ff5d)" style="fill: none; stroke: #000000; stroke-linecap: round"/>
    <path d="M 114.277085 40.350335 
L 117.494732 43.456257 
L 113.079406 44.166822 
z
" clip-path="url(#pd3fa84ff5d)" style="stroke: #000000; stroke-linecap: round"/>
   </g>
   <g id="patch_51">
    <path d="M 76.432683 30.570286 
Q 97.497077 37.180652 117.494732 43.456257 
" clip-path="url(#pd3fa84ff5d)" style="fill: none; stroke: #000000; stroke-linecap: round"/>
    <path d="M 114.277085 40.350335 
L 117.494732 43.456257 
L 113.079406 44.166822 
z
" clip-path="url(#pd3fa84ff5d)" style="stroke: #000000; stroke-linecap: round"/>
   </g>
   <g id="patch_52">
    <path d="M 122.010286 45.457344 
Q 151.530836 65.501047 180.126412 84.916717 
" clip-path="url(#pd3fa84ff5d)" style="fill: none; stroke: #000000; stroke-linecap: round"/>
    <path d="M 177.940589 81.015156 
L 180.126412 84.916717 
L 175.69367 84.324439 
z
" clip-path="url(#pd3fa84ff5d)" style="stroke: #000000; stroke-linecap: round"/>
   </g>
   <g id="patch_53">
    <path d="M 118.562039 43.791196 
Q 97.497645 37.18083 77.49999 30.905225 
" clip-path="url(#pd3fa84ff5d)" style="fill: none; stroke: #000000; stroke-linecap: round"/>
    <path d="M 80.717637 34.011147 
L 77.49999 30.905225 
L 81.915316 30.194661 
z
" clip-path="url(#pd3fa84ff5d)" style="stroke: #000000; stroke-linecap: round"/>
   </g>
   <g id="patch_54">
    <path d="M 118.562039 43.791196 
Q 97.497645 37.18083 77.49999 30.905225 
" clip-path="url(#pd3fa84ff5d)" style="fill: none; stroke: #000000; stroke-linecap: round"/>
    <path d="M 80.717637 34.011147 
L 77.49999 30.905225 
L 81.915316 30.194661 
z
" clip-path="url(#pd3fa84ff5d)" style="stroke: #000000; stroke-linecap: round"/>
   </g>
   <g id="patch_55">
    <path d="M 418.942321 167.826495 
Q 395.225423 174.195473 372.588304 180.274485 
" clip-path="url(#pd3fa84ff5d)" style="fill: none; stroke: #000000; stroke-linecap: round"/>
    <path d="M 376.97014 181.168638 
L 372.588304 180.274485 
L 375.932728 177.305508 
z
" clip-path="url(#pd3fa84ff5d)" style="stroke: #000000; stroke-linecap: round"/>
   </g>
   <g id="patch_56">
    <path d="M 418.942321 167.826495 
Q 395.225423 174.195473 372.588304 180.274485 
" clip-path="url(#pd3fa84ff5d)" style="fill: none; stroke: #000000; stroke-linecap: round"/>
    <path d="M 376.97014 181.168638 
L 372.588304 180.274485 
L 375.932728 177.305508 
z
" clip-path="url(#pd3fa84ff5d)" style="stroke: #000000; stroke-linecap: round"/>
   </g>
   <g id="patch_57">
    <path d="M 71.229355 88.74531 
Q 91.285647 104.430079 110.461237 119.426105 
" clip-path="url(#pd3fa84ff5d)" style="fill: none; stroke: #000000; stroke-linecap: round"/>
    <path d="M 108.542401 115.386542 
L 110.461237 119.426105 
L 106.078285 118.537436 
z
" clip-path="url(#pd3fa84ff5d)" style="stroke: #000000; stroke-linecap: round"/>
   </g>
   <g id="patch_58">
    <path d="M 71.229355 88.74531 
Q 91.285647 104.430079 110.461237 119.426105 
" clip-path="url(#pd3fa84ff5d)" style="fill: none; stroke: #000000; stroke-linecap: round"/>
    <path d="M 108.542401 115.386542 
L 110.461237 119.426105 
L 106.078285 118.537436 
z
" clip-path="url(#pd3fa84ff5d)" style="stroke: #000000; stroke-linecap: round"/>
   </g>
   <g id="patch_59">
    <path d="M 68.691593 85.89836 
Q 59.259131 70.486987 50.410317 56.029214 
" clip-path="url(#pd3fa84ff5d)" style="fill: none; stroke: #000000; stroke-linecap: round"/>
    <path d="M 50.792583 60.484983 
L 50.410317 56.029214 
L 54.204291 58.396862 
z
" clip-path="url(#pd3fa84ff5d)" style="stroke: #000000; stroke-linecap: round"/>
   </g>
   <g id="patch_60">
    <path d="M 68.691593 85.89836 
Q 59.259131 70.486987 50.410317 56.029214 
" clip-path="url(#pd3fa84ff5d)" style="fill: none; stroke: #000000; stroke-linecap: round"/>
    <path d="M 50.792583 60.484983 
L 50.410317 56.029214 
L 54.204291 58.396862 
z
" clip-path="url(#pd3fa84ff5d)" style="stroke: #000000; stroke-linecap: round"/>
   </g>
   <g id="patch_61">
    <path d="M 368.204255 179.769045 
Q 345.293584 159.066113 323.21244 139.112772 
" clip-path="url(#pd3fa84ff5d)" style="fill: none; stroke: #000000; stroke-linecap: round"/>
    <path d="M 324.839334 143.278491 
L 323.21244 139.112772 
L 327.521151 140.310688 
z
" clip-path="url(#pd3fa84ff5d)" style="stroke: #000000; stroke-linecap: round"/>
   </g>
   <g id="patch_62">
    <path d="M 368.204255 179.769045 
Q 345.293584 159.066113 323.21244 139.112772 
" clip-path="url(#pd3fa84ff5d)" style="fill: none; stroke: #000000; stroke-linecap: round"/>
    <path d="M 324.839334 143.278491 
L 323.21244 139.112772 
L 327.521151 140.310688 
z
" clip-path="url(#pd3fa84ff5d)" style="stroke: #000000; stroke-linecap: round"/>
   </g>
   <g id="patch_63">
    <path d="M 371.510724 180.56386 
Q 395.227622 174.194883 417.864741 168.11587 
" clip-path="url(#pd3fa84ff5d)" style="fill: none; stroke: #000000; stroke-linecap: round"/>
    <path d="M 413.482905 167.221717 
L 417.864741 168.11587 
L 414.520317 171.084848 
z
" clip-path="url(#pd3fa84ff5d)" style="stroke: #000000; stroke-linecap: round"/>
   </g>
   <g id="patch_64">
    <path d="M 371.510724 180.56386 
Q 395.227622 174.194883 417.864741 168.11587 
" clip-path="url(#pd3fa84ff5d)" style="fill: none; stroke: #000000; stroke-linecap: round"/>
    <path d="M 413.482905 167.221717 
L 417.864741 168.11587 
L 414.520317 171.084848 
z
" clip-path="url(#pd3fa84ff5d)" style="stroke: #000000; stroke-linecap: round"/>
   </g>
   <g id="patch_65">
    <path d="M 369.710066 183.000346 
Q 370.606971 207.695347 371.463297 231.273052 
" clip-path="url(#pd3fa84ff5d)" style="fill: none; stroke: #000000; stroke-linecap: round"/>
    <path d="M 373.316797 227.203096 
L 371.463297 231.273052 
L 369.319433 227.348278 
z
" clip-path="url(#pd3fa84ff5d)" style="stroke: #000000; stroke-linecap: round"/>
   </g>
   <g id="patch_66">
    <path d="M 369.710066 183.000346 
Q 370.606971 207.695347 371.463297 231.273052 
" clip-path="url(#pd3fa84ff5d)" style="fill: none; stroke: #000000; stroke-linecap: round"/>
    <path d="M 373.316797 227.203096 
L 371.463297 231.273052 
L 369.319433 227.348278 
z
" clip-path="url(#pd3fa84ff5d)" style="stroke: #000000; stroke-linecap: round"/>
   </g>
   <g id="patch_67">
    <path d="M 368.1034 182.24231 
Q 355.561435 191.842396 343.907277 200.762923 
" clip-path="url(#pd3fa84ff5d)" style="fill: none; stroke: #000000; stroke-linecap: round"/>
    <path d="M 348.29922 199.919812 
L 343.907277 200.762923 
L 345.867954 196.743502 
z
" clip-path="url(#pd3fa84ff5d)" style="stroke: #000000; stroke-linecap: round"/>
   </g>
   <g id="patch_68">
    <path d="M 368.1034 182.24231 
Q 355.561435 191.842396 343.907277 200.762923 
" clip-path="url(#pd3fa84ff5d)" style="fill: none; stroke: #000000; stroke-linecap: round"/>
    <path d="M 348.29922 199.919812 
L 343.907277 200.762923 
L 345.867954 196.743502 
z
" clip-path="url(#pd3fa84ff5d)" style="stroke: #000000; stroke-linecap: round"/>
   </g>
   <g id="patch_69">
    <path d="M 370.508136 235.936069 
Q 355.191128 259.113727 340.490534 281.35863 
" clip-path="url(#pd3fa84ff5d)" style="fill: none; stroke: #000000; stroke-linecap: round"/>
    <path d="M 344.364448 279.124175 
L 340.490534 281.35863 
L 341.027319 276.918825 
z
" clip-path="url(#pd3fa84ff5d)" style="stroke: #000000; stroke-linecap: round"/>
   </g>
   <g id="patch_70">
    <path d="M 370.508136 235.936069 
Q 355.191128 259.113727 340.490534 281.35863 
" clip-path="url(#pd3fa84ff5d)" style="fill: none; stroke: #000000; stroke-linecap: round"/>
    <path d="M 344.364448 279.124175 
L 340.490534 281.35863 
L 341.027319 276.918825 
z
" clip-path="url(#pd3fa84ff5d)" style="stroke: #000000; stroke-linecap: round"/>
   </g>
   <g id="patch_71">
    <path d="M 371.503828 232.389026 
Q 370.606923 207.694025 369.750597 184.116321 
" clip-path="url(#pd3fa84ff5d)" style="fill: none; stroke: #000000; stroke-linecap: round"/>
    <path d="M 367.897096 188.186276 
L 369.750597 184.116321 
L 371.894461 188.041094 
z
" clip-path="url(#pd3fa84ff5d)" style="stroke: #000000; stroke-linecap: round"/>
   </g>
   <g id="patch_72">
    <path d="M 371.503828 232.389026 
Q 370.606923 207.694025 369.750597 184.116321 
" clip-path="url(#pd3fa84ff5d)" style="fill: none; stroke: #000000; stroke-linecap: round"/>
    <path d="M 367.897096 188.186276 
L 369.750597 184.116321 
L 371.894461 188.041094 
z
" clip-path="url(#pd3fa84ff5d)" style="stroke: #000000; stroke-linecap: round"/>
   </g>
   <g id="patch_73">
    <path d="M 41.85542 269.041257 
Q 63.865431 263.189722 84.794941 257.625447 
" clip-path="url(#pd3fa84ff5d)" style="fill: none; stroke: #000000; stroke-linecap: round"/>
    <path d="M 80.415359 256.720319 
L 84.794941 257.625447 
L 81.44309 260.586036 
z
" clip-path="url(#pd3fa84ff5d)" style="stroke: #000000; stroke-linecap: round"/>
   </g>
   <g id="patch_74">
    <path d="M 41.85542 269.041257 
Q 63.865431 263.189722 84.794941 257.625447 
" clip-path="url(#pd3fa84ff5d)" style="fill: none; stroke: #000000; stroke-linecap: round"/>
    <path d="M 80.415359 256.720319 
L 84.794941 257.625447 
L 81.44309 260.586036 
z
" clip-path="url(#pd3fa84ff5d)" style="stroke: #000000; stroke-linecap: round"/>
   </g>
   <g id="patch_75">
    <path d="M 85.880766 257.336771 
Q 63.870755 263.188307 42.941245 268.752582 
" clip-path="url(#pd3fa84ff5d)" style="fill: none; stroke: #000000; stroke-linecap: round"/>
    <path d="M 47.320828 269.657709 
L 42.941245 268.752582 
L 46.293096 265.791992 
z
" clip-path="url(#pd3fa84ff5d)" style="stroke: #000000; stroke-linecap: round"/>
   </g>
   <g id="patch_76">
    <path d="M 85.880766 257.336771 
Q 63.870755 263.188307 42.941245 268.752582 
" clip-path="url(#pd3fa84ff5d)" style="fill: none; stroke: #000000; stroke-linecap: round"/>
    <path d="M 47.320828 269.657709 
L 42.941245 268.752582 
L 46.293096 265.791992 
z
" clip-path="url(#pd3fa84ff5d)" style="stroke: #000000; stroke-linecap: round"/>
   </g>
   <g id="patch_77">
    <path d="M 89.556793 256.143939 
Q 118.405047 245.03422 146.209961 234.3263 
" clip-path="url(#pd3fa84ff5d)" style="fill: none; stroke: #000000; stroke-linecap: round"/>
    <path d="M 141.758436 233.897439 
L 146.209961 234.3263 
L 143.195957 237.630204 
z
" clip-path="url(#pd3fa84ff5d)" style="stroke: #000000; stroke-linecap: round"/>
   </g>
   <g id="patch_78">
    <path d="M 89.666843 256.59416 
Q 121.674067 252.490781 152.572334 248.529572 
" clip-path="url(#pd3fa84ff5d)" style="fill: none; stroke: #000000; stroke-linecap: round"/>
    <path d="M 148.350483 247.054451 
L 152.572334 248.529572 
L 148.859127 251.02198 
z
" clip-path="url(#pd3fa84ff5d)" style="stroke: #000000; stroke-linecap: round"/>
   </g>
   <g id="patch_79">
    <path d="M 147.250862 233.92544 
Q 118.402609 245.035159 90.597694 255.743078 
" clip-path="url(#pd3fa84ff5d)" style="fill: none; stroke: #000000; stroke-linecap: round"/>
    <path d="M 95.049219 256.17194 
L 90.597694 255.743078 
L 93.611699 252.439175 
z
" clip-path="url(#pd3fa84ff5d)" style="stroke: #000000; stroke-linecap: round"/>
   </g>
   <g id="patch_80">
    <path d="M 149.836142 235.002374 
Q 152.329363 240.684898 154.373379 245.343599 
" clip-path="url(#pd3fa84ff5d)" style="fill: none; stroke: #000000; stroke-linecap: round"/>
    <path d="M 154.597726 240.877094 
L 154.373379 245.343599 
L 150.934783 242.484219 
z
" clip-path="url(#pd3fa84ff5d)" style="stroke: #000000; stroke-linecap: round"/>
   </g>
   <g id="patch_81">
    <path d="M 150.990653 233.185561 
Q 188.141319 232.342738 224.174239 231.525273 
" clip-path="url(#pd3fa84ff5d)" style="fill: none; stroke: #000000; stroke-linecap: round"/>
    <path d="M 220.129906 229.616511 
L 224.174239 231.525273 
L 220.220629 233.615482 
z
" clip-path="url(#pd3fa84ff5d)" style="stroke: #000000; stroke-linecap: round"/>
   </g>
   <g id="patch_82">
    <path d="M 153.683446 248.387125 
Q 121.676222 252.490504 90.777956 256.451713 
" clip-path="url(#pd3fa84ff5d)" style="fill: none; stroke: #000000; stroke-linecap: round"/>
    <path d="M 94.999806 257.926834 
L 90.777956 256.451713 
L 94.491162 253.959305 
z
" clip-path="url(#pd3fa84ff5d)" style="stroke: #000000; stroke-linecap: round"/>
   </g>
   <g id="patch_83">
    <path d="M 154.822984 246.368334 
Q 152.329763 240.685809 150.285747 236.027108 
" clip-path="url(#pd3fa84ff5d)" style="fill: none; stroke: #000000; stroke-linecap: round"/>
    <path d="M 150.0614 240.493614 
L 150.285747 236.027108 
L 153.724343 238.886489 
z
" clip-path="url(#pd3fa84ff5d)" style="stroke: #000000; stroke-linecap: round"/>
   </g>
   <g id="patch_84">
    <path d="M 157.485231 247.702378 
Q 191.415916 239.798776 224.257716 232.148812 
" clip-path="url(#pd3fa84ff5d)" style="fill: none; stroke: #000000; stroke-linecap: round"/>
    <path d="M 219.908286 231.1084 
L 224.257716 232.148812 
L 220.815728 235.004109 
z
" clip-path="url(#pd3fa84ff5d)" style="stroke: #000000; stroke-linecap: round"/>
   </g>
   <g id="patch_85">
    <path d="M 225.300059 231.499732 
Q 188.149393 232.342555 152.116473 233.16002 
" clip-path="url(#pd3fa84ff5d)" style="fill: none; stroke: #000000; stroke-linecap: round"/>
    <path d="M 156.160805 235.068782 
L 152.116473 233.16002 
L 156.070082 231.069811 
z
" clip-path="url(#pd3fa84ff5d)" style="stroke: #000000; stroke-linecap: round"/>
   </g>
   <g id="patch_86">
    <path d="M 225.348114 231.894822 
Q 191.41743 239.798424 158.575629 247.448388 
" clip-path="url(#pd3fa84ff5d)" style="fill: none; stroke: #000000; stroke-linecap: round"/>
    <path d="M 162.925059 248.4888 
L 158.575629 247.448388 
L 162.017617 244.593091 
z
" clip-path="url(#pd3fa84ff5d)" style="stroke: #000000; stroke-linecap: round"/>
   </g>
   <g id="patch_87">
    <path d="M 229.168905 231.328819 
Q 262.407701 229.147618 294.530863 227.039626 
" clip-path="url(#pd3fa84ff5d)" style="fill: none; stroke: #000000; stroke-linecap: round"/>
    <path d="M 290.408485 225.305844 
L 294.530863 227.039626 
L 290.670411 229.297259 
z
" clip-path="url(#pd3fa84ff5d)" style="stroke: #000000; stroke-linecap: round"/>
   </g>
   <g id="patch_88">
    <path d="M 229.168905 231.328819 
Q 262.407701 229.147618 294.530863 227.039626 
" clip-path="url(#pd3fa84ff5d)" style="fill: none; stroke: #000000; stroke-linecap: round"/>
    <path d="M 290.408485 225.305844 
L 294.530863 227.039626 
L 290.670411 229.297259 
z
" clip-path="url(#pd3fa84ff5d)" style="stroke: #000000; stroke-linecap: round"/>
   </g>
   <g id="patch_89">
    <path d="M 295.643299 226.966626 
Q 262.404503 229.147828 230.281341 231.255819 
" clip-path="url(#pd3fa84ff5d)" style="fill: none; stroke: #000000; stroke-linecap: round"/>
    <path d="M 234.403719 232.989601 
L 230.281341 231.255819 
L 234.141794 228.998186 
z
" clip-path="url(#pd3fa84ff5d)" style="stroke: #000000; stroke-linecap: round"/>
   </g>
   <g id="patch_90">
    <path d="M 295.643299 226.966626 
Q 262.404503 229.147828 230.281341 231.255819 
" clip-path="url(#pd3fa84ff5d)" style="fill: none; stroke: #000000; stroke-linecap: round"/>
    <path d="M 234.403719 232.989601 
L 230.281341 231.255819 
L 234.141794 228.998186 
z
" clip-path="url(#pd3fa84ff5d)" style="stroke: #000000; stroke-linecap: round"/>
   </g>
   <g id="patch_91">
    <path d="M 299.228467 227.862378 
Q 323.806837 243.110106 347.435145 257.768443 
" clip-path="url(#pd3fa84ff5d)" style="fill: none; stroke: #000000; stroke-linecap: round"/>
    <path d="M 345.090436 253.960249 
L 347.435145 257.768443 
L 342.981764 257.359293 
z
" clip-path="url(#pd3fa84ff5d)" style="stroke: #000000; stroke-linecap: round"/>
   </g>
   <g id="patch_92">
    <path d="M 299.275929 225.903786 
Q 319.530344 214.729684 338.805818 204.095651 
" clip-path="url(#pd3fa84ff5d)" style="fill: none; stroke: #000000; stroke-linecap: round"/>
    <path d="M 334.337347 204.276679 
L 338.805818 204.095651 
L 336.269557 207.779044 
z
" clip-path="url(#pd3fa84ff5d)" style="stroke: #000000; stroke-linecap: round"/>
   </g>
   <g id="patch_93">
    <path d="M 299.275929 225.903786 
Q 319.530344 214.729684 338.805818 204.095651 
" clip-path="url(#pd3fa84ff5d)" style="fill: none; stroke: #000000; stroke-linecap: round"/>
    <path d="M 334.337347 204.276679 
L 338.805818 204.095651 
L 336.269557 207.779044 
z
" clip-path="url(#pd3fa84ff5d)" style="stroke: #000000; stroke-linecap: round"/>
   </g>
   <g id="patch_94">
    <path d="M 349.224747 261.142641 
Q 344.418842 271.6442 340.078188 281.129124 
" clip-path="url(#pd3fa84ff5d)" style="fill: none; stroke: #000000; stroke-linecap: round"/>
    <path d="M 343.561323 278.32417 
L 340.078188 281.129124 
L 339.924105 276.659644 
z
" clip-path="url(#pd3fa84ff5d)" style="stroke: #000000; stroke-linecap: round"/>
   </g>
   <g id="patch_95">
    <path d="M 348.382995 258.356462 
Q 323.804625 243.108734 300.176317 228.450397 
" clip-path="url(#pd3fa84ff5d)" style="fill: none; stroke: #000000; stroke-linecap: round"/>
    <path d="M 302.521026 232.258591 
L 300.176317 228.450397 
L 304.629697 228.859546 
z
" clip-path="url(#pd3fa84ff5d)" style="stroke: #000000; stroke-linecap: round"/>
   </g>
   <g id="patch_96">
    <path d="M 343.018816 201.442984 
Q 355.56078 191.842898 367.214939 182.922371 
" clip-path="url(#pd3fa84ff5d)" style="fill: none; stroke: #000000; stroke-linecap: round"/>
    <path d="M 362.822996 183.765482 
L 367.214939 182.922371 
L 365.254262 186.941792 
z
" clip-path="url(#pd3fa84ff5d)" style="stroke: #000000; stroke-linecap: round"/>
   </g>
   <g id="patch_97">
    <path d="M 343.018816 201.442984 
Q 355.56078 191.842898 367.214939 182.922371 
" clip-path="url(#pd3fa84ff5d)" style="fill: none; stroke: #000000; stroke-linecap: round"/>
    <path d="M 362.822996 183.765482 
L 367.214939 182.922371 
L 365.254262 186.941792 
z
" clip-path="url(#pd3fa84ff5d)" style="stroke: #000000; stroke-linecap: round"/>
   </g>
   <g id="patch_98">
    <path d="M 339.786204 203.554785 
Q 319.531789 214.728887 300.256315 225.36292 
" clip-path="url(#pd3fa84ff5d)" style="fill: none; stroke: #000000; stroke-linecap: round"/>
    <path d="M 304.724785 225.181892 
L 300.256315 225.36292 
L 302.792575 221.679527 
z
" clip-path="url(#pd3fa84ff5d)" style="stroke: #000000; stroke-linecap: round"/>
   </g>
   <g id="patch_99">
    <path d="M 339.786204 203.554785 
Q 319.531789 214.728887 300.256315 225.36292 
" clip-path="url(#pd3fa84ff5d)" style="fill: none; stroke: #000000; stroke-linecap: round"/>
    <path d="M 304.724785 225.181892 
L 300.256315 225.36292 
L 302.792575 221.679527 
z
" clip-path="url(#pd3fa84ff5d)" style="stroke: #000000; stroke-linecap: round"/>
   </g>
   <g id="PathCollection_1">
    <defs>
     <path id="m174b9c057e" d="M 0 1.936492 
C 0.513564 1.936492 1.006162 1.732451 1.369306 1.369306 
C 1.732451 1.006162 1.936492 0.513564 1.936492 0 
C 1.936492 -0.513564 1.732451 -1.006162 1.369306 -1.369306 
C 1.006162 -1.732451 0.513564 -1.936492 0 -1.936492 
C -0.513564 -1.936492 -1.006162 -1.732451 -1.369306 -1.369306 
C -1.732451 -1.006162 -1.936492 -0.513564 -1.936492 0 
C -1.936492 0.513564 -1.732451 1.006162 -1.369306 1.369306 
C -1.006162 1.732451 -0.513564 1.936492 0 1.936492 
z
" style="stroke: #1f78b4"/>
    </defs>
    <g clip-path="url(#pd3fa84ff5d)">
     <use xlink:href="#m174b9c057e" x="172.372923" y="273.330983" style="fill: #1f78b4; stroke: #1f78b4"/>
     <use xlink:href="#m174b9c057e" x="267.380427" y="315.310705" style="fill: #1f78b4; stroke: #1f78b4"/>
     <use xlink:href="#m174b9c057e" x="338.808034" y="283.904585" style="fill: #1f78b4; stroke: #1f78b4"/>
     <use xlink:href="#m174b9c057e" x="312.324573" y="315.609917" style="fill: #1f78b4; stroke: #1f78b4"/>
     <use xlink:href="#m174b9c057e" x="129.656164" y="195.134798" style="fill: #1f78b4; stroke: #1f78b4"/>
     <use xlink:href="#m174b9c057e" x="320.943515" y="137.062487" style="fill: #1f78b4; stroke: #1f78b4"/>
     <use xlink:href="#m174b9c057e" x="194.119337" y="308.123777" style="fill: #1f78b4; stroke: #1f78b4"/>
     <use xlink:href="#m174b9c057e" x="237.600643" y="312.518816" style="fill: #1f78b4; stroke: #1f78b4"/>
     <use xlink:href="#m174b9c057e" x="255.802904" y="104.964975" style="fill: #1f78b4; stroke: #1f78b4"/>
     <use xlink:href="#m174b9c057e" x="182.654093" y="86.632948" style="fill: #1f78b4; stroke: #1f78b4"/>
     <use xlink:href="#m174b9c057e" x="112.869383" y="121.309366" style="fill: #1f78b4; stroke: #1f78b4"/>
     <use xlink:href="#m174b9c057e" x="48.814878" y="53.422483" style="fill: #1f78b4; stroke: #1f78b4"/>
     <use xlink:href="#m174b9c057e" x="74.583825" y="29.990083" style="fill: #1f78b4; stroke: #1f78b4"/>
     <use xlink:href="#m174b9c057e" x="120.410898" y="44.3714" style="fill: #1f78b4; stroke: #1f78b4"/>
     <use xlink:href="#m174b9c057e" x="420.813223" y="167.32408" style="fill: #1f78b4; stroke: #1f78b4"/>
     <use xlink:href="#m174b9c057e" x="69.703916" y="87.55236" style="fill: #1f78b4; stroke: #1f78b4"/>
     <use xlink:href="#m174b9c057e" x="369.639822" y="181.066276" style="fill: #1f78b4; stroke: #1f78b4"/>
     <use xlink:href="#m174b9c057e" x="371.574072" y="234.323097" style="fill: #1f78b4; stroke: #1f78b4"/>
     <use xlink:href="#m174b9c057e" x="39.986777" y="269.538051" style="fill: #1f78b4; stroke: #1f78b4"/>
     <use xlink:href="#m174b9c057e" x="87.749409" y="256.839978" style="fill: #1f78b4; stroke: #1f78b4"/>
     <use xlink:href="#m174b9c057e" x="149.058246" y="233.2294" style="fill: #1f78b4; stroke: #1f78b4"/>
     <use xlink:href="#m174b9c057e" x="155.60088" y="248.141307" style="fill: #1f78b4; stroke: #1f78b4"/>
     <use xlink:href="#m174b9c057e" x="227.232466" y="231.455892" style="fill: #1f78b4; stroke: #1f78b4"/>
     <use xlink:href="#m174b9c057e" x="297.579738" y="226.839553" style="fill: #1f78b4; stroke: #1f78b4"/>
     <use xlink:href="#m174b9c057e" x="350.031723" y="259.379287" style="fill: #1f78b4; stroke: #1f78b4"/>
     <use xlink:href="#m174b9c057e" x="341.482394" y="202.619018" style="fill: #1f78b4; stroke: #1f78b4"/>
    </g>
   </g>
   <g id="text_1">
    <g clip-path="url(#pd3fa84ff5d)">
     <!-- 0 -->
     <g transform="translate(169.191673 276.090358) scale(0.1 -0.1)">
      <defs>
       <path id="DejaVuSans-30" d="M 2034 4250 
Q 1547 4250 1301 3770 
Q 1056 3291 1056 2328 
Q 1056 1369 1301 889 
Q 1547 409 2034 409 
Q 2525 409 2770 889 
Q 3016 1369 3016 2328 
Q 3016 3291 2770 3770 
Q 2525 4250 2034 4250 
z
M 2034 4750 
Q 2819 4750 3233 4129 
Q 3647 3509 3647 2328 
Q 3647 1150 3233 529 
Q 2819 -91 2034 -91 
Q 1250 -91 836 529 
Q 422 1150 422 2328 
Q 422 3509 836 4129 
Q 1250 4750 2034 4750 
z
" transform="scale(0.015625)"/>
      </defs>
      <use xlink:href="#DejaVuSans-30"/>
     </g>
    </g>
   </g>
   <g id="text_2">
    <g clip-path="url(#pd3fa84ff5d)">
     <!-- 1 -->
     <g transform="translate(264.199177 318.07008) scale(0.1 -0.1)">
      <defs>
       <path id="DejaVuSans-31" d="M 794 531 
L 1825 531 
L 1825 4091 
L 703 3866 
L 703 4441 
L 1819 4666 
L 2450 4666 
L 2450 531 
L 3481 531 
L 3481 0 
L 794 0 
L 794 531 
z
" transform="scale(0.015625)"/>
      </defs>
      <use xlink:href="#DejaVuSans-31"/>
     </g>
    </g>
   </g>
   <g id="text_3">
    <g clip-path="url(#pd3fa84ff5d)">
     <!-- 2 -->
     <g transform="translate(335.626784 286.66396) scale(0.1 -0.1)">
      <defs>
       <path id="DejaVuSans-32" d="M 1228 531 
L 3431 531 
L 3431 0 
L 469 0 
L 469 531 
Q 828 903 1448 1529 
Q 2069 2156 2228 2338 
Q 2531 2678 2651 2914 
Q 2772 3150 2772 3378 
Q 2772 3750 2511 3984 
Q 2250 4219 1831 4219 
Q 1534 4219 1204 4116 
Q 875 4013 500 3803 
L 500 4441 
Q 881 4594 1212 4672 
Q 1544 4750 1819 4750 
Q 2544 4750 2975 4387 
Q 3406 4025 3406 3419 
Q 3406 3131 3298 2873 
Q 3191 2616 2906 2266 
Q 2828 2175 2409 1742 
Q 1991 1309 1228 531 
z
" transform="scale(0.015625)"/>
      </defs>
      <use xlink:href="#DejaVuSans-32"/>
     </g>
    </g>
   </g>
   <g id="text_4">
    <g clip-path="url(#pd3fa84ff5d)">
     <!-- 3 -->
     <g transform="translate(309.143323 318.369292) scale(0.1 -0.1)">
      <defs>
       <path id="DejaVuSans-33" d="M 2597 2516 
Q 3050 2419 3304 2112 
Q 3559 1806 3559 1356 
Q 3559 666 3084 287 
Q 2609 -91 1734 -91 
Q 1441 -91 1130 -33 
Q 819 25 488 141 
L 488 750 
Q 750 597 1062 519 
Q 1375 441 1716 441 
Q 2309 441 2620 675 
Q 2931 909 2931 1356 
Q 2931 1769 2642 2001 
Q 2353 2234 1838 2234 
L 1294 2234 
L 1294 2753 
L 1863 2753 
Q 2328 2753 2575 2939 
Q 2822 3125 2822 3475 
Q 2822 3834 2567 4026 
Q 2313 4219 1838 4219 
Q 1578 4219 1281 4162 
Q 984 4106 628 3988 
L 628 4550 
Q 988 4650 1302 4700 
Q 1616 4750 1894 4750 
Q 2613 4750 3031 4423 
Q 3450 4097 3450 3541 
Q 3450 3153 3228 2886 
Q 3006 2619 2597 2516 
z
" transform="scale(0.015625)"/>
      </defs>
      <use xlink:href="#DejaVuSans-33"/>
     </g>
    </g>
   </g>
   <g id="text_5">
    <g clip-path="url(#pd3fa84ff5d)">
     <!-- 4 -->
     <g transform="translate(126.474914 197.894173) scale(0.1 -0.1)">
      <defs>
       <path id="DejaVuSans-34" d="M 2419 4116 
L 825 1625 
L 2419 1625 
L 2419 4116 
z
M 2253 4666 
L 3047 4666 
L 3047 1625 
L 3713 1625 
L 3713 1100 
L 3047 1100 
L 3047 0 
L 2419 0 
L 2419 1100 
L 313 1100 
L 313 1709 
L 2253 4666 
z
" transform="scale(0.015625)"/>
      </defs>
      <use xlink:href="#DejaVuSans-34"/>
     </g>
    </g>
   </g>
   <g id="text_6">
    <g clip-path="url(#pd3fa84ff5d)">
     <!-- 5 -->
     <g transform="translate(317.762265 139.821862) scale(0.1 -0.1)">
      <defs>
       <path id="DejaVuSans-35" d="M 691 4666 
L 3169 4666 
L 3169 4134 
L 1269 4134 
L 1269 2991 
Q 1406 3038 1543 3061 
Q 1681 3084 1819 3084 
Q 2600 3084 3056 2656 
Q 3513 2228 3513 1497 
Q 3513 744 3044 326 
Q 2575 -91 1722 -91 
Q 1428 -91 1123 -41 
Q 819 9 494 109 
L 494 744 
Q 775 591 1075 516 
Q 1375 441 1709 441 
Q 2250 441 2565 725 
Q 2881 1009 2881 1497 
Q 2881 1984 2565 2268 
Q 2250 2553 1709 2553 
Q 1456 2553 1204 2497 
Q 953 2441 691 2322 
L 691 4666 
z
" transform="scale(0.015625)"/>
      </defs>
      <use xlink:href="#DejaVuSans-35"/>
     </g>
    </g>
   </g>
   <g id="text_7">
    <g clip-path="url(#pd3fa84ff5d)">
     <!-- 6 -->
     <g transform="translate(190.938087 310.883152) scale(0.1 -0.1)">
      <defs>
       <path id="DejaVuSans-36" d="M 2113 2584 
Q 1688 2584 1439 2293 
Q 1191 2003 1191 1497 
Q 1191 994 1439 701 
Q 1688 409 2113 409 
Q 2538 409 2786 701 
Q 3034 994 3034 1497 
Q 3034 2003 2786 2293 
Q 2538 2584 2113 2584 
z
M 3366 4563 
L 3366 3988 
Q 3128 4100 2886 4159 
Q 2644 4219 2406 4219 
Q 1781 4219 1451 3797 
Q 1122 3375 1075 2522 
Q 1259 2794 1537 2939 
Q 1816 3084 2150 3084 
Q 2853 3084 3261 2657 
Q 3669 2231 3669 1497 
Q 3669 778 3244 343 
Q 2819 -91 2113 -91 
Q 1303 -91 875 529 
Q 447 1150 447 2328 
Q 447 3434 972 4092 
Q 1497 4750 2381 4750 
Q 2619 4750 2861 4703 
Q 3103 4656 3366 4563 
z
" transform="scale(0.015625)"/>
      </defs>
      <use xlink:href="#DejaVuSans-36"/>
     </g>
    </g>
   </g>
   <g id="text_8">
    <g clip-path="url(#pd3fa84ff5d)">
     <!-- 7 -->
     <g transform="translate(234.419393 315.278191) scale(0.1 -0.1)">
      <defs>
       <path id="DejaVuSans-37" d="M 525 4666 
L 3525 4666 
L 3525 4397 
L 1831 0 
L 1172 0 
L 2766 4134 
L 525 4134 
L 525 4666 
z
" transform="scale(0.015625)"/>
      </defs>
      <use xlink:href="#DejaVuSans-37"/>
     </g>
    </g>
   </g>
   <g id="text_9">
    <g clip-path="url(#pd3fa84ff5d)">
     <!-- 8 -->
     <g transform="translate(252.621654 107.72435) scale(0.1 -0.1)">
      <defs>
       <path id="DejaVuSans-38" d="M 2034 2216 
Q 1584 2216 1326 1975 
Q 1069 1734 1069 1313 
Q 1069 891 1326 650 
Q 1584 409 2034 409 
Q 2484 409 2743 651 
Q 3003 894 3003 1313 
Q 3003 1734 2745 1975 
Q 2488 2216 2034 2216 
z
M 1403 2484 
Q 997 2584 770 2862 
Q 544 3141 544 3541 
Q 544 4100 942 4425 
Q 1341 4750 2034 4750 
Q 2731 4750 3128 4425 
Q 3525 4100 3525 3541 
Q 3525 3141 3298 2862 
Q 3072 2584 2669 2484 
Q 3125 2378 3379 2068 
Q 3634 1759 3634 1313 
Q 3634 634 3220 271 
Q 2806 -91 2034 -91 
Q 1263 -91 848 271 
Q 434 634 434 1313 
Q 434 1759 690 2068 
Q 947 2378 1403 2484 
z
M 1172 3481 
Q 1172 3119 1398 2916 
Q 1625 2713 2034 2713 
Q 2441 2713 2670 2916 
Q 2900 3119 2900 3481 
Q 2900 3844 2670 4047 
Q 2441 4250 2034 4250 
Q 1625 4250 1398 4047 
Q 1172 3844 1172 3481 
z
" transform="scale(0.015625)"/>
      </defs>
      <use xlink:href="#DejaVuSans-38"/>
     </g>
    </g>
   </g>
   <g id="text_10">
    <g clip-path="url(#pd3fa84ff5d)">
     <!-- 9 -->
     <g transform="translate(179.472843 89.392323) scale(0.1 -0.1)">
      <defs>
       <path id="DejaVuSans-39" d="M 703 97 
L 703 672 
Q 941 559 1184 500 
Q 1428 441 1663 441 
Q 2288 441 2617 861 
Q 2947 1281 2994 2138 
Q 2813 1869 2534 1725 
Q 2256 1581 1919 1581 
Q 1219 1581 811 2004 
Q 403 2428 403 3163 
Q 403 3881 828 4315 
Q 1253 4750 1959 4750 
Q 2769 4750 3195 4129 
Q 3622 3509 3622 2328 
Q 3622 1225 3098 567 
Q 2575 -91 1691 -91 
Q 1453 -91 1209 -44 
Q 966 3 703 97 
z
M 1959 2075 
Q 2384 2075 2632 2365 
Q 2881 2656 2881 3163 
Q 2881 3666 2632 3958 
Q 2384 4250 1959 4250 
Q 1534 4250 1286 3958 
Q 1038 3666 1038 3163 
Q 1038 2656 1286 2365 
Q 1534 2075 1959 2075 
z
" transform="scale(0.015625)"/>
      </defs>
      <use xlink:href="#DejaVuSans-39"/>
     </g>
    </g>
   </g>
   <g id="text_11">
    <g clip-path="url(#pd3fa84ff5d)">
     <!-- 10 -->
     <g transform="translate(106.506883 124.068741) scale(0.1 -0.1)">
      <use xlink:href="#DejaVuSans-31"/>
      <use xlink:href="#DejaVuSans-30" x="63.623047"/>
     </g>
    </g>
   </g>
   <g id="text_12">
    <g clip-path="url(#pd3fa84ff5d)">
     <!-- 11 -->
     <g transform="translate(42.452378 56.181858) scale(0.1 -0.1)">
      <use xlink:href="#DejaVuSans-31"/>
      <use xlink:href="#DejaVuSans-31" x="63.623047"/>
     </g>
    </g>
   </g>
   <g id="text_13">
    <g clip-path="url(#pd3fa84ff5d)">
     <!-- 12 -->
     <g transform="translate(68.221325 32.749458) scale(0.1 -0.1)">
      <use xlink:href="#DejaVuSans-31"/>
      <use xlink:href="#DejaVuSans-32" x="63.623047"/>
     </g>
    </g>
   </g>
   <g id="text_14">
    <g clip-path="url(#pd3fa84ff5d)">
     <!-- 13 -->
     <g transform="translate(114.048398 47.130775) scale(0.1 -0.1)">
      <use xlink:href="#DejaVuSans-31"/>
      <use xlink:href="#DejaVuSans-33" x="63.623047"/>
     </g>
    </g>
   </g>
   <g id="text_15">
    <g clip-path="url(#pd3fa84ff5d)">
     <!-- 14 -->
     <g transform="translate(414.450723 170.083455) scale(0.1 -0.1)">
      <use xlink:href="#DejaVuSans-31"/>
      <use xlink:href="#DejaVuSans-34" x="63.623047"/>
     </g>
    </g>
   </g>
   <g id="text_16">
    <g clip-path="url(#pd3fa84ff5d)">
     <!-- 15 -->
     <g transform="translate(63.341416 90.311735) scale(0.1 -0.1)">
      <use xlink:href="#DejaVuSans-31"/>
      <use xlink:href="#DejaVuSans-35" x="63.623047"/>
     </g>
    </g>
   </g>
   <g id="text_17">
    <g clip-path="url(#pd3fa84ff5d)">
     <!-- 16 -->
     <g transform="translate(363.277322 183.825651) scale(0.1 -0.1)">
      <use xlink:href="#DejaVuSans-31"/>
      <use xlink:href="#DejaVuSans-36" x="63.623047"/>
     </g>
    </g>
   </g>
   <g id="text_18">
    <g clip-path="url(#pd3fa84ff5d)">
     <!-- 17 -->
     <g transform="translate(365.211572 237.082472) scale(0.1 -0.1)">
      <use xlink:href="#DejaVuSans-31"/>
      <use xlink:href="#DejaVuSans-37" x="63.623047"/>
     </g>
    </g>
   </g>
   <g id="text_19">
    <g clip-path="url(#pd3fa84ff5d)">
     <!-- 18 -->
     <g transform="translate(33.624277 272.297426) scale(0.1 -0.1)">
      <use xlink:href="#DejaVuSans-31"/>
      <use xlink:href="#DejaVuSans-38" x="63.623047"/>
     </g>
    </g>
   </g>
   <g id="text_20">
    <g clip-path="url(#pd3fa84ff5d)">
     <!-- 19 -->
     <g transform="translate(81.386909 259.599353) scale(0.1 -0.1)">
      <use xlink:href="#DejaVuSans-31"/>
      <use xlink:href="#DejaVuSans-39" x="63.623047"/>
     </g>
    </g>
   </g>
   <g id="text_21">
    <g clip-path="url(#pd3fa84ff5d)">
     <!-- 20 -->
     <g transform="translate(142.695746 235.988775) scale(0.1 -0.1)">
      <use xlink:href="#DejaVuSans-32"/>
      <use xlink:href="#DejaVuSans-30" x="63.623047"/>
     </g>
    </g>
   </g>
   <g id="text_22">
    <g clip-path="url(#pd3fa84ff5d)">
     <!-- 21 -->
     <g transform="translate(149.23838 250.900682) scale(0.1 -0.1)">
      <use xlink:href="#DejaVuSans-32"/>
      <use xlink:href="#DejaVuSans-31" x="63.623047"/>
     </g>
    </g>
   </g>
   <g id="text_23">
    <g clip-path="url(#pd3fa84ff5d)">
     <!-- 22 -->
     <g transform="translate(220.869966 234.215267) scale(0.1 -0.1)">
      <use xlink:href="#DejaVuSans-32"/>
      <use xlink:href="#DejaVuSans-32" x="63.623047"/>
     </g>
    </g>
   </g>
   <g id="text_24">
    <g clip-path="url(#pd3fa84ff5d)">
     <!-- 23 -->
     <g transform="translate(291.217238 229.598928) scale(0.1 -0.1)">
      <use xlink:href="#DejaVuSans-32"/>
      <use xlink:href="#DejaVuSans-33" x="63.623047"/>
     </g>
    </g>
   </g>
   <g id="text_25">
    <g clip-path="url(#pd3fa84ff5d)">
     <!-- 24 -->
     <g transform="translate(343.669223 262.138662) scale(0.1 -0.1)">
      <use xlink:href="#DejaVuSans-32"/>
      <use xlink:href="#DejaVuSans-34" x="63.623047"/>
     </g>
    </g>
   </g>
   <g id="text_26">
    <g clip-path="url(#pd3fa84ff5d)">
     <!-- 25 -->
     <g transform="translate(335.119894 205.378393) scale(0.1 -0.1)">
      <use xlink:href="#DejaVuSans-32"/>
      <use xlink:href="#DejaVuSans-35" x="63.623047"/>
     </g>
    </g>
   </g>
  </g>
 </g>
 <defs>
  <clipPath id="pd3fa84ff5d">
   <rect x="0" y="0" width="460.8" height="345.6"/>
  </clipPath>
 </defs>
</svg>
