<?xml version="1.0" encoding="utf-8" standalone="no"?>
<!DOCTYPE svg PUBLIC "-//W3C//DTD SVG 1.1//EN"
  "http://www.w3.org/Graphics/SVG/1.1/DTD/svg11.dtd">
<svg xmlns:xlink="http://www.w3.org/1999/xlink" width="460.8pt" height="345.6pt" viewBox="0 0 460.8 345.6" xmlns="http://www.w3.org/2000/svg" version="1.1">
 <metadata>
  <rdf:RDF xmlns:dc="http://purl.org/dc/elements/1.1/" xmlns:cc="http://creativecommons.org/ns#" xmlns:rdf="http://www.w3.org/1999/02/22-rdf-syntax-ns#">
   <cc:Work>
    <dc:type rdf:resource="http://purl.org/dc/dcmitype/StillImage"/>
    <dc:date>2024-02-07T13:48:27.362076</dc:date>
    <dc:format>image/svg+xml</dc:format>
    <dc:creator>
     <cc:Agent>
      <dc:title>Matplotlib v3.8.0, https://matplotlib.org/</dc:title>
     </cc:Agent>
    </dc:creator>
   </cc:Work>
  </rdf:RDF>
 </metadata>
 <defs>
  <style type="text/css">*{stroke-linejoin: round; stroke-linecap: butt}</style>
 </defs>
 <g id="figure_1">
  <g id="patch_1">
   <path d="M 0 345.6 
L 460.8 345.6 
L 460.8 0 
L 0 0 
z
" style="fill: #ffffff"/>
  </g>
  <g id="axes_1">
   <g id="patch_2">
    <path d="M 392.826365 109.983583 
Q 365.262514 96.995024 338.710036 84.483042 
" clip-path="url(#pc607973049)" style="fill: none; stroke: #000000; stroke-linecap: round"/>
    <path d="M 341.475908 87.997291 
L 338.710036 84.483042 
L 343.180959 84.378894 
z
" clip-path="url(#pc607973049)" style="stroke: #000000; stroke-linecap: round"/>
   </g>
   <g id="patch_3">
    <path d="M 396.251312 111.774187 
Q 407.694248 118.373477 418.168672 124.414213 
" clip-path="url(#pc607973049)" style="fill: none; stroke: #000000; stroke-linecap: round"/>
    <path d="M 415.702786 120.68334 
L 418.168672 124.414213 
L 413.704442 124.148398 
z
" clip-path="url(#pc607973049)" style="stroke: #000000; stroke-linecap: round"/>
   </g>
   <g id="patch_4">
    <path d="M 396.251312 111.774187 
Q 407.694248 118.373477 418.168672 124.414213 
" clip-path="url(#pc607973049)" style="fill: none; stroke: #000000; stroke-linecap: round"/>
    <path d="M 415.702786 120.68334 
L 418.168672 124.414213 
L 413.704442 124.148398 
z
" clip-path="url(#pc607973049)" style="stroke: #000000; stroke-linecap: round"/>
   </g>
   <g id="patch_5">
    <path d="M 394.79136 112.734502 
Q 396.267514 125.955015 397.619604 138.0644 
" clip-path="url(#pc607973049)" style="fill: none; stroke: #000000; stroke-linecap: round"/>
    <path d="M 399.163385 133.86717 
L 397.619604 138.0644 
L 395.188089 134.311037 
z
" clip-path="url(#pc607973049)" style="stroke: #000000; stroke-linecap: round"/>
   </g>
   <g id="patch_6">
    <path d="M 380.832517 152.451896 
Q 344.963426 163.900265 310.159434 175.008685 
" clip-path="url(#pc607973049)" style="fill: none; stroke: #000000; stroke-linecap: round"/>
    <path d="M 314.578165 175.697755 
L 310.159434 175.008685 
L 313.361929 171.887142 
z
" clip-path="url(#pc607973049)" style="stroke: #000000; stroke-linecap: round"/>
   </g>
   <g id="patch_7">
    <path d="M 384.28236 150.772497 
Q 401.746226 138.900821 418.285468 127.65769 
" clip-path="url(#pc607973049)" style="fill: none; stroke: #000000; stroke-linecap: round"/>
    <path d="M 413.853055 128.252426 
L 418.285468 127.65769 
L 416.101809 131.560462 
z
" clip-path="url(#pc607973049)" style="stroke: #000000; stroke-linecap: round"/>
   </g>
   <g id="patch_8">
    <path d="M 384.264081 150.74562 
Q 390.320461 146.478443 395.462881 142.85522 
" clip-path="url(#pc607973049)" style="fill: none; stroke: #000000; stroke-linecap: round"/>
    <path d="M 391.041058 143.524158 
L 395.462881 142.85522 
L 393.344937 146.794041 
z
" clip-path="url(#pc607973049)" style="stroke: #000000; stroke-linecap: round"/>
   </g>
   <g id="patch_9">
    <path d="M 384.264081 150.74562 
Q 390.320461 146.478443 395.462881 142.85522 
" clip-path="url(#pc607973049)" style="fill: none; stroke: #000000; stroke-linecap: round"/>
    <path d="M 391.041058 143.524158 
L 395.462881 142.85522 
L 393.344937 146.794041 
z
" clip-path="url(#pc607973049)" style="stroke: #000000; stroke-linecap: round"/>
   </g>
   <g id="patch_10">
    <path d="M 309.094609 175.348546 
Q 344.963699 163.900178 379.767691 152.791758 
" clip-path="url(#pc607973049)" style="fill: none; stroke: #000000; stroke-linecap: round"/>
    <path d="M 375.34896 152.102688 
L 379.767691 152.791758 
L 376.565197 155.9133 
z
" clip-path="url(#pc607973049)" style="stroke: #000000; stroke-linecap: round"/>
   </g>
   <g id="patch_11">
    <path d="M 305.551935 176.868636 
Q 279.059321 191.404705 253.546891 205.402964 
" clip-path="url(#pc607973049)" style="fill: none; stroke: #000000; stroke-linecap: round"/>
    <path d="M 258.015767 205.232239 
L 253.546891 205.402964 
L 256.091637 201.725428 
z
" clip-path="url(#pc607973049)" style="stroke: #000000; stroke-linecap: round"/>
   </g>
   <g id="patch_12">
    <path d="M 309.156676 175.601419 
Q 333.96965 171.227573 357.681566 167.047813 
" clip-path="url(#pc607973049)" style="fill: none; stroke: #000000; stroke-linecap: round"/>
    <path d="M 353.395106 165.772564 
L 357.681566 167.047813 
L 354.089491 169.711832 
z
" clip-path="url(#pc607973049)" style="stroke: #000000; stroke-linecap: round"/>
   </g>
   <g id="patch_13">
    <path d="M 309.156676 175.601419 
Q 333.96965 171.227573 357.681566 167.047813 
" clip-path="url(#pc607973049)" style="fill: none; stroke: #000000; stroke-linecap: round"/>
    <path d="M 353.395106 165.772564 
L 357.681566 167.047813 
L 354.089491 169.711832 
z
" clip-path="url(#pc607973049)" style="stroke: #000000; stroke-linecap: round"/>
   </g>
   <g id="patch_14">
    <path d="M 305.316116 175.881307 
Q 271.519185 174.89344 238.839811 173.938239 
" clip-path="url(#pc607973049)" style="fill: none; stroke: #000000; stroke-linecap: round"/>
    <path d="M 242.77967 176.054253 
L 238.839811 173.938239 
L 242.896538 172.055961 
z
" clip-path="url(#pc607973049)" style="stroke: #000000; stroke-linecap: round"/>
   </g>
   <g id="patch_15">
    <path d="M 305.316116 175.881307 
Q 271.519185 174.89344 238.839811 173.938239 
" clip-path="url(#pc607973049)" style="fill: none; stroke: #000000; stroke-linecap: round"/>
    <path d="M 242.77967 176.054253 
L 238.839811 173.938239 
L 242.896538 172.055961 
z
" clip-path="url(#pc607973049)" style="stroke: #000000; stroke-linecap: round"/>
   </g>
   <g id="patch_16">
    <path d="M 358.783691 166.853539 
Q 333.970716 171.227385 310.2588 175.407145 
" clip-path="url(#pc607973049)" style="fill: none; stroke: #000000; stroke-linecap: round"/>
    <path d="M 314.54526 176.682394 
L 310.2588 175.407145 
L 313.850876 172.743126 
z
" clip-path="url(#pc607973049)" style="stroke: #000000; stroke-linecap: round"/>
   </g>
   <g id="patch_17">
    <path d="M 358.783691 166.853539 
Q 333.970716 171.227385 310.2588 175.407145 
" clip-path="url(#pc607973049)" style="fill: none; stroke: #000000; stroke-linecap: round"/>
    <path d="M 314.54526 176.682394 
L 310.2588 175.407145 
L 313.850876 172.743126 
z
" clip-path="url(#pc607973049)" style="stroke: #000000; stroke-linecap: round"/>
   </g>
   <g id="patch_18">
    <path d="M 362.290932 165.426452 
Q 379.324544 153.807477 395.434535 142.818522 
" clip-path="url(#pc607973049)" style="fill: none; stroke: #000000; stroke-linecap: round"/>
    <path d="M 391.003076 143.420329 
L 395.434535 142.818522 
L 393.257106 146.724773 
z
" clip-path="url(#pc607973049)" style="stroke: #000000; stroke-linecap: round"/>
   </g>
   <g id="patch_19">
    <path d="M 337.695343 84.004901 
Q 365.259194 96.99346 391.811673 109.505443 
" clip-path="url(#pc607973049)" style="fill: none; stroke: #000000; stroke-linecap: round"/>
    <path d="M 389.045801 105.991193 
L 391.811673 109.505443 
L 387.34075 109.609591 
z
" clip-path="url(#pc607973049)" style="stroke: #000000; stroke-linecap: round"/>
   </g>
   <g id="patch_20">
    <path d="M 334.04998 82.793522 
Q 293.112785 74.439757 253.271047 66.309534 
" clip-path="url(#pc607973049)" style="fill: none; stroke: #000000; stroke-linecap: round"/>
    <path d="M 256.790393 69.068919 
L 253.271047 66.309534 
L 257.590163 65.149689 
z
" clip-path="url(#pc607973049)" style="stroke: #000000; stroke-linecap: round"/>
   </g>
   <g id="patch_21">
    <path d="M 150.308163 142.092474 
Q 156.933612 155.491904 163.063509 167.889123 
" clip-path="url(#pc607973049)" style="fill: none; stroke: #000000; stroke-linecap: round"/>
    <path d="M 163.083382 163.417031 
L 163.063509 167.889123 
L 159.497759 165.189969 
z
" clip-path="url(#pc607973049)" style="stroke: #000000; stroke-linecap: round"/>
   </g>
   <g id="patch_22">
    <path d="M 150.308163 142.092474 
Q 156.933612 155.491904 163.063509 167.889123 
" clip-path="url(#pc607973049)" style="fill: none; stroke: #000000; stroke-linecap: round"/>
    <path d="M 163.083382 163.417031 
L 163.063509 167.889123 
L 159.497759 165.189969 
z
" clip-path="url(#pc607973049)" style="stroke: #000000; stroke-linecap: round"/>
   </g>
   <g id="patch_23">
    <path d="M 149.521883 138.42584 
Q 149.995883 125.445913 150.429081 113.583275 
" clip-path="url(#pc607973049)" style="fill: none; stroke: #000000; stroke-linecap: round"/>
    <path d="M 148.284439 117.507623 
L 150.429081 113.583275 
L 152.281774 117.653597 
z
" clip-path="url(#pc607973049)" style="stroke: #000000; stroke-linecap: round"/>
   </g>
   <g id="patch_24">
    <path d="M 149.521883 138.42584 
Q 149.995883 125.445913 150.429081 113.583275 
" clip-path="url(#pc607973049)" style="fill: none; stroke: #000000; stroke-linecap: round"/>
    <path d="M 148.284439 117.507623 
L 150.429081 113.583275 
L 152.281774 117.653597 
z
" clip-path="url(#pc607973049)" style="stroke: #000000; stroke-linecap: round"/>
   </g>
   <g id="patch_25">
    <path d="M 419.138183 124.973343 
Q 407.695247 118.374053 397.220824 112.333317 
" clip-path="url(#pc607973049)" style="fill: none; stroke: #000000; stroke-linecap: round"/>
    <path d="M 399.68671 116.064189 
L 397.220824 112.333317 
L 401.685053 112.599132 
z
" clip-path="url(#pc607973049)" style="stroke: #000000; stroke-linecap: round"/>
   </g>
   <g id="patch_26">
    <path d="M 419.138183 124.973343 
Q 407.695247 118.374053 397.220824 112.333317 
" clip-path="url(#pc607973049)" style="fill: none; stroke: #000000; stroke-linecap: round"/>
    <path d="M 399.68671 116.064189 
L 397.220824 112.333317 
L 401.685053 112.599132 
z
" clip-path="url(#pc607973049)" style="stroke: #000000; stroke-linecap: round"/>
   </g>
   <g id="patch_27">
    <path d="M 419.209543 127.029518 
Q 401.745676 138.901194 385.206434 150.144325 
" clip-path="url(#pc607973049)" style="fill: none; stroke: #000000; stroke-linecap: round"/>
    <path d="M 389.638848 149.549589 
L 385.206434 150.144325 
L 387.390094 146.241553 
z
" clip-path="url(#pc607973049)" style="stroke: #000000; stroke-linecap: round"/>
   </g>
   <g id="patch_28">
    <path d="M 397.743133 139.170733 
Q 396.266979 125.950219 394.914889 113.840835 
" clip-path="url(#pc607973049)" style="fill: none; stroke: #000000; stroke-linecap: round"/>
    <path d="M 393.371108 118.038065 
L 394.914889 113.840835 
L 397.346404 117.594197 
z
" clip-path="url(#pc607973049)" style="stroke: #000000; stroke-linecap: round"/>
   </g>
   <g id="patch_29">
    <path d="M 396.372819 142.2141 
Q 390.316438 146.481277 385.174018 150.1045 
" clip-path="url(#pc607973049)" style="fill: none; stroke: #000000; stroke-linecap: round"/>
    <path d="M 389.595842 149.435562 
L 385.174018 150.1045 
L 387.291962 146.165679 
z
" clip-path="url(#pc607973049)" style="stroke: #000000; stroke-linecap: round"/>
   </g>
   <g id="patch_30">
    <path d="M 396.372819 142.2141 
Q 390.316438 146.481277 385.174018 150.1045 
" clip-path="url(#pc607973049)" style="fill: none; stroke: #000000; stroke-linecap: round"/>
    <path d="M 389.595842 149.435562 
L 385.174018 150.1045 
L 387.291962 146.165679 
z
" clip-path="url(#pc607973049)" style="stroke: #000000; stroke-linecap: round"/>
   </g>
   <g id="patch_31">
    <path d="M 396.359208 142.187784 
Q 379.325596 153.806759 363.215605 164.795713 
" clip-path="url(#pc607973049)" style="fill: none; stroke: #000000; stroke-linecap: round"/>
    <path d="M 367.647064 164.193906 
L 363.215605 164.795713 
L 365.393035 160.889462 
z
" clip-path="url(#pc607973049)" style="stroke: #000000; stroke-linecap: round"/>
   </g>
   <g id="patch_32">
    <path d="M 150.470031 112.461915 
Q 149.996031 125.441842 149.562833 137.304481 
" clip-path="url(#pc607973049)" style="fill: none; stroke: #000000; stroke-linecap: round"/>
    <path d="M 151.707475 133.380132 
L 149.562833 137.304481 
L 147.710139 133.234158 
z
" clip-path="url(#pc607973049)" style="stroke: #000000; stroke-linecap: round"/>
   </g>
   <g id="patch_33">
    <path d="M 150.470031 112.461915 
Q 149.996031 125.441842 149.562833 137.304481 
" clip-path="url(#pc607973049)" style="fill: none; stroke: #000000; stroke-linecap: round"/>
    <path d="M 151.707475 133.380132 
L 149.562833 137.304481 
L 147.710139 133.234158 
z
" clip-path="url(#pc607973049)" style="stroke: #000000; stroke-linecap: round"/>
   </g>
   <g id="patch_34">
    <path d="M 151.607493 108.912396 
Q 159.858464 96.415246 167.493426 84.85112 
" clip-path="url(#pc607973049)" style="fill: none; stroke: #000000; stroke-linecap: round"/>
    <path d="M 163.620483 87.087257 
L 167.493426 84.85112 
L 166.958571 89.291157 
z
" clip-path="url(#pc607973049)" style="stroke: #000000; stroke-linecap: round"/>
   </g>
   <g id="patch_35">
    <path d="M 151.607493 108.912396 
Q 159.858464 96.415246 167.493426 84.85112 
" clip-path="url(#pc607973049)" style="fill: none; stroke: #000000; stroke-linecap: round"/>
    <path d="M 163.620483 87.087257 
L 167.493426 84.85112 
L 166.958571 89.291157 
z
" clip-path="url(#pc607973049)" style="stroke: #000000; stroke-linecap: round"/>
   </g>
   <g id="patch_36">
    <path d="M 168.108403 83.919659 
Q 159.857432 96.416809 152.222469 107.980936 
" clip-path="url(#pc607973049)" style="fill: none; stroke: #000000; stroke-linecap: round"/>
    <path d="M 156.095412 105.744798 
L 152.222469 107.980936 
L 152.757325 103.540899 
z
" clip-path="url(#pc607973049)" style="stroke: #000000; stroke-linecap: round"/>
   </g>
   <g id="patch_37">
    <path d="M 168.108403 83.919659 
Q 159.857432 96.416809 152.222469 107.980936 
" clip-path="url(#pc607973049)" style="fill: none; stroke: #000000; stroke-linecap: round"/>
    <path d="M 156.095412 105.744798 
L 152.222469 107.980936 
L 152.757325 103.540899 
z
" clip-path="url(#pc607973049)" style="stroke: #000000; stroke-linecap: round"/>
   </g>
   <g id="patch_38">
    <path d="M 171.073578 81.915097 
Q 209.724907 74.001225 247.280926 66.311619 
" clip-path="url(#pc607973049)" style="fill: none; stroke: #000000; stroke-linecap: round"/>
    <path d="M 242.961047 65.154624 
L 247.280926 66.311619 
L 243.763402 69.073326 
z
" clip-path="url(#pc607973049)" style="stroke: #000000; stroke-linecap: round"/>
   </g>
   <g id="patch_39">
    <path d="M 167.808276 80.935137 
Q 154.382575 67.493073 141.746961 54.84206 
" clip-path="url(#pc607973049)" style="fill: none; stroke: #000000; stroke-linecap: round"/>
    <path d="M 143.158591 59.085561 
L 141.746961 54.84206 
L 145.98874 56.258857 
z
" clip-path="url(#pc607973049)" style="stroke: #000000; stroke-linecap: round"/>
   </g>
   <g id="patch_40">
    <path d="M 252.171508 66.085159 
Q 293.108704 74.438924 332.950441 82.569147 
" clip-path="url(#pc607973049)" style="fill: none; stroke: #000000; stroke-linecap: round"/>
    <path d="M 329.431095 79.809762 
L 332.950441 82.569147 
L 328.631325 83.728993 
z
" clip-path="url(#pc607973049)" style="stroke: #000000; stroke-linecap: round"/>
   </g>
   <g id="patch_41">
    <path d="M 248.377727 66.087049 
Q 209.726398 74.00092 172.170378 81.690526 
" clip-path="url(#pc607973049)" style="fill: none; stroke: #000000; stroke-linecap: round"/>
    <path d="M 176.490258 82.847522 
L 172.170378 81.690526 
L 175.687903 78.92882 
z
" clip-path="url(#pc607973049)" style="stroke: #000000; stroke-linecap: round"/>
   </g>
   <g id="patch_42">
    <path d="M 249.054456 64.197702 
Q 241.389019 54.781124 234.429408 46.231617 
" clip-path="url(#pc607973049)" style="fill: none; stroke: #000000; stroke-linecap: round"/>
    <path d="M 235.403588 50.596359 
L 234.429408 46.231617 
L 238.50571 48.071118 
z
" clip-path="url(#pc607973049)" style="stroke: #000000; stroke-linecap: round"/>
   </g>
   <g id="patch_43">
    <path d="M 249.054456 64.197702 
Q 241.389019 54.781124 234.429408 46.231617 
" clip-path="url(#pc607973049)" style="fill: none; stroke: #000000; stroke-linecap: round"/>
    <path d="M 235.403588 50.596359 
L 234.429408 46.231617 
L 238.50571 48.071118 
z
" clip-path="url(#pc607973049)" style="stroke: #000000; stroke-linecap: round"/>
   </g>
   <g id="patch_44">
    <path d="M 192.841235 30.166606 
Q 171.954841 32.076856 152.181835 33.885277 
" clip-path="url(#pc607973049)" style="fill: none; stroke: #000000; stroke-linecap: round"/>
    <path d="M 156.347368 35.512648 
L 152.181835 33.885277 
L 155.983052 31.529274 
z
" clip-path="url(#pc607973049)" style="stroke: #000000; stroke-linecap: round"/>
   </g>
   <g id="patch_45">
    <path d="M 192.841235 30.166606 
Q 171.954841 32.076856 152.181835 33.885277 
" clip-path="url(#pc607973049)" style="fill: none; stroke: #000000; stroke-linecap: round"/>
    <path d="M 156.347368 35.512648 
L 152.181835 33.885277 
L 155.983052 31.529274 
z
" clip-path="url(#pc607973049)" style="stroke: #000000; stroke-linecap: round"/>
   </g>
   <g id="patch_46">
    <path d="M 196.590565 30.658992 
Q 213.63622 36.92643 229.632526 42.808038 
" clip-path="url(#pc607973049)" style="fill: none; stroke: #000000; stroke-linecap: round"/>
    <path d="M 226.568453 39.550515 
L 229.632526 42.808038 
L 225.188064 43.304782 
z
" clip-path="url(#pc607973049)" style="stroke: #000000; stroke-linecap: round"/>
   </g>
   <g id="patch_47">
    <path d="M 196.590565 30.658992 
Q 213.63622 36.92643 229.632526 42.808038 
" clip-path="url(#pc607973049)" style="fill: none; stroke: #000000; stroke-linecap: round"/>
    <path d="M 226.568453 39.550515 
L 229.632526 42.808038 
L 225.188064 43.304782 
z
" clip-path="url(#pc607973049)" style="stroke: #000000; stroke-linecap: round"/>
   </g>
   <g id="patch_48">
    <path d="M 151.070066 33.986958 
Q 171.95646 32.076708 191.729466 30.268288 
" clip-path="url(#pc607973049)" style="fill: none; stroke: #000000; stroke-linecap: round"/>
    <path d="M 187.563933 28.640916 
L 191.729466 30.268288 
L 187.928249 32.624291 
z
" clip-path="url(#pc607973049)" style="stroke: #000000; stroke-linecap: round"/>
   </g>
   <g id="patch_49">
    <path d="M 151.070066 33.986958 
Q 171.95646 32.076708 191.729466 30.268288 
" clip-path="url(#pc607973049)" style="fill: none; stroke: #000000; stroke-linecap: round"/>
    <path d="M 187.563933 28.640916 
L 191.729466 30.268288 
L 187.928249 32.624291 
z
" clip-path="url(#pc607973049)" style="stroke: #000000; stroke-linecap: round"/>
   </g>
   <g id="patch_50">
    <path d="M 148.252768 35.88375 
Q 144.364162 43.423597 140.988029 49.969778 
" clip-path="url(#pc607973049)" style="fill: none; stroke: #000000; stroke-linecap: round"/>
    <path d="M 144.599033 47.331474 
L 140.988029 49.969778 
L 141.043988 45.497992 
z
" clip-path="url(#pc607973049)" style="stroke: #000000; stroke-linecap: round"/>
   </g>
   <g id="patch_51">
    <path d="M 148.252768 35.88375 
Q 144.364162 43.423597 140.988029 49.969778 
" clip-path="url(#pc607973049)" style="fill: none; stroke: #000000; stroke-linecap: round"/>
    <path d="M 144.599033 47.331474 
L 140.988029 49.969778 
L 141.043988 45.497992 
z
" clip-path="url(#pc607973049)" style="stroke: #000000; stroke-linecap: round"/>
   </g>
   <g id="patch_52">
    <path d="M 140.956306 54.050441 
Q 154.382007 67.492505 167.017621 80.143518 
" clip-path="url(#pc607973049)" style="fill: none; stroke: #000000; stroke-linecap: round"/>
    <path d="M 165.605991 75.900016 
L 167.017621 80.143518 
L 162.775842 78.726721 
z
" clip-path="url(#pc607973049)" style="stroke: #000000; stroke-linecap: round"/>
   </g>
   <g id="patch_53">
    <path d="M 140.476542 50.96153 
Q 144.365148 43.421683 147.741281 36.875502 
" clip-path="url(#pc607973049)" style="fill: none; stroke: #000000; stroke-linecap: round"/>
    <path d="M 144.130277 39.513806 
L 147.741281 36.875502 
L 147.685322 41.347288 
z
" clip-path="url(#pc607973049)" style="stroke: #000000; stroke-linecap: round"/>
   </g>
   <g id="patch_54">
    <path d="M 140.476542 50.96153 
Q 144.365148 43.421683 147.741281 36.875502 
" clip-path="url(#pc607973049)" style="fill: none; stroke: #000000; stroke-linecap: round"/>
    <path d="M 144.130277 39.513806 
L 147.741281 36.875502 
L 147.685322 41.347288 
z
" clip-path="url(#pc607973049)" style="stroke: #000000; stroke-linecap: round"/>
   </g>
   <g id="patch_55">
    <path d="M 115.985347 172.365954 
Q 139.233825 171.532495 161.364987 170.739091 
" clip-path="url(#pc607973049)" style="fill: none; stroke: #000000; stroke-linecap: round"/>
    <path d="M 157.295901 168.883684 
L 161.364987 170.739091 
L 157.439209 172.881116 
z
" clip-path="url(#pc607973049)" style="stroke: #000000; stroke-linecap: round"/>
   </g>
   <g id="patch_56">
    <path d="M 115.985347 172.365954 
Q 139.233825 171.532495 161.364987 170.739091 
" clip-path="url(#pc607973049)" style="fill: none; stroke: #000000; stroke-linecap: round"/>
    <path d="M 157.295901 168.883684 
L 161.364987 170.739091 
L 157.439209 172.881116 
z
" clip-path="url(#pc607973049)" style="stroke: #000000; stroke-linecap: round"/>
   </g>
   <g id="patch_57">
    <path d="M 233.722669 45.363425 
Q 241.388106 54.780002 248.347717 63.32951 
" clip-path="url(#pc607973049)" style="fill: none; stroke: #000000; stroke-linecap: round"/>
    <path d="M 247.373537 58.964768 
L 248.347717 63.32951 
L 244.271415 61.490008 
z
" clip-path="url(#pc607973049)" style="stroke: #000000; stroke-linecap: round"/>
   </g>
   <g id="patch_58">
    <path d="M 233.722669 45.363425 
Q 241.388106 54.780002 248.347717 63.32951 
" clip-path="url(#pc607973049)" style="fill: none; stroke: #000000; stroke-linecap: round"/>
    <path d="M 247.373537 58.964768 
L 248.347717 63.32951 
L 244.271415 61.490008 
z
" clip-path="url(#pc607973049)" style="stroke: #000000; stroke-linecap: round"/>
   </g>
   <g id="patch_59">
    <path d="M 230.681828 43.193851 
Q 213.636172 36.926413 197.639866 31.044805 
" clip-path="url(#pc607973049)" style="fill: none; stroke: #000000; stroke-linecap: round"/>
    <path d="M 200.70394 34.302328 
L 197.639866 31.044805 
L 202.084329 30.548061 
z
" clip-path="url(#pc607973049)" style="stroke: #000000; stroke-linecap: round"/>
   </g>
   <g id="patch_60">
    <path d="M 230.681828 43.193851 
Q 213.636172 36.926413 197.639866 31.044805 
" clip-path="url(#pc607973049)" style="fill: none; stroke: #000000; stroke-linecap: round"/>
    <path d="M 200.70394 34.302328 
L 197.639866 31.044805 
L 202.084329 30.548061 
z
" clip-path="url(#pc607973049)" style="stroke: #000000; stroke-linecap: round"/>
   </g>
   <g id="patch_61">
    <path d="M 163.561676 168.896625 
Q 156.936227 155.497195 150.80633 143.099977 
" clip-path="url(#pc607973049)" style="fill: none; stroke: #000000; stroke-linecap: round"/>
    <path d="M 150.786457 147.572069 
L 150.80633 143.099977 
L 154.37208 145.799131 
z
" clip-path="url(#pc607973049)" style="stroke: #000000; stroke-linecap: round"/>
   </g>
   <g id="patch_62">
    <path d="M 163.561676 168.896625 
Q 156.936227 155.497195 150.80633 143.099977 
" clip-path="url(#pc607973049)" style="fill: none; stroke: #000000; stroke-linecap: round"/>
    <path d="M 150.786457 147.572069 
L 150.80633 143.099977 
L 154.37208 145.799131 
z
" clip-path="url(#pc607973049)" style="stroke: #000000; stroke-linecap: round"/>
   </g>
   <g id="patch_63">
    <path d="M 162.484928 170.698941 
Q 139.23645 171.532401 117.105288 172.325804 
" clip-path="url(#pc607973049)" style="fill: none; stroke: #000000; stroke-linecap: round"/>
    <path d="M 121.174374 174.181212 
L 117.105288 172.325804 
L 121.031065 170.18378 
z
" clip-path="url(#pc607973049)" style="stroke: #000000; stroke-linecap: round"/>
   </g>
   <g id="patch_64">
    <path d="M 162.484928 170.698941 
Q 139.23645 171.532401 117.105288 172.325804 
" clip-path="url(#pc607973049)" style="fill: none; stroke: #000000; stroke-linecap: round"/>
    <path d="M 121.174374 174.181212 
L 117.105288 172.325804 
L 121.031065 170.18378 
z
" clip-path="url(#pc607973049)" style="stroke: #000000; stroke-linecap: round"/>
   </g>
   <g id="patch_65">
    <path d="M 166.356865 170.717058 
Q 200.10156 172.239292 232.729357 173.711143 
" clip-path="url(#pc607973049)" style="fill: none; stroke: #000000; stroke-linecap: round"/>
    <path d="M 228.82355 171.532917 
L 232.729357 173.711143 
L 228.643292 175.528853 
z
" clip-path="url(#pc607973049)" style="stroke: #000000; stroke-linecap: round"/>
   </g>
   <g id="patch_66">
    <path d="M 166.356865 170.717058 
Q 200.10156 172.239292 232.729357 173.711143 
" clip-path="url(#pc607973049)" style="fill: none; stroke: #000000; stroke-linecap: round"/>
    <path d="M 228.82355 171.532917 
L 232.729357 173.711143 
L 228.643292 175.528853 
z
" clip-path="url(#pc607973049)" style="stroke: #000000; stroke-linecap: round"/>
   </g>
   <g id="patch_67">
    <path d="M 164.127817 172.543217 
Q 162.192716 185.279221 160.425561 196.909877 
" clip-path="url(#pc607973049)" style="fill: none; stroke: #000000; stroke-linecap: round"/>
    <path d="M 163.003729 193.255694 
L 160.425561 196.909877 
L 159.049116 192.654833 
z
" clip-path="url(#pc607973049)" style="stroke: #000000; stroke-linecap: round"/>
   </g>
   <g id="patch_68">
    <path d="M 164.127817 172.543217 
Q 162.192716 185.279221 160.425561 196.909877 
" clip-path="url(#pc607973049)" style="fill: none; stroke: #000000; stroke-linecap: round"/>
    <path d="M 163.003729 193.255694 
L 160.425561 196.909877 
L 159.049116 192.654833 
z
" clip-path="url(#pc607973049)" style="stroke: #000000; stroke-linecap: round"/>
   </g>
   <g id="patch_69">
    <path d="M 237.715086 173.905364 
Q 271.512017 174.89323 304.191391 175.848431 
" clip-path="url(#pc607973049)" style="fill: none; stroke: #000000; stroke-linecap: round"/>
    <path d="M 300.251533 173.732417 
L 304.191391 175.848431 
L 300.134665 177.73071 
z
" clip-path="url(#pc607973049)" style="stroke: #000000; stroke-linecap: round"/>
   </g>
   <g id="patch_70">
    <path d="M 237.715086 173.905364 
Q 271.512017 174.89323 304.191391 175.848431 
" clip-path="url(#pc607973049)" style="fill: none; stroke: #000000; stroke-linecap: round"/>
    <path d="M 300.251533 173.732417 
L 304.191391 175.848431 
L 300.134665 177.73071 
z
" clip-path="url(#pc607973049)" style="stroke: #000000; stroke-linecap: round"/>
   </g>
   <g id="patch_71">
    <path d="M 233.844459 173.761445 
Q 200.099764 172.239211 167.471967 170.76736 
" clip-path="url(#pc607973049)" style="fill: none; stroke: #000000; stroke-linecap: round"/>
    <path d="M 171.377775 172.945586 
L 167.471967 170.76736 
L 171.558033 168.94965 
z
" clip-path="url(#pc607973049)" style="stroke: #000000; stroke-linecap: round"/>
   </g>
   <g id="patch_72">
    <path d="M 233.844459 173.761445 
Q 200.099764 172.239211 167.471967 170.76736 
" clip-path="url(#pc607973049)" style="fill: none; stroke: #000000; stroke-linecap: round"/>
    <path d="M 171.377775 172.945586 
L 167.471967 170.76736 
L 171.558033 168.94965 
z
" clip-path="url(#pc607973049)" style="stroke: #000000; stroke-linecap: round"/>
   </g>
   <g id="patch_73">
    <path d="M 41.703001 314.721231 
Q 53.960481 308.374123 65.225136 302.541115 
" clip-path="url(#pc607973049)" style="fill: none; stroke: #000000; stroke-linecap: round"/>
    <path d="M 60.753448 302.604395 
L 65.225136 302.541115 
L 62.592747 306.156433 
z
" clip-path="url(#pc607973049)" style="stroke: #000000; stroke-linecap: round"/>
   </g>
   <g id="patch_74">
    <path d="M 41.703001 314.721231 
Q 53.960481 308.374123 65.225136 302.541115 
" clip-path="url(#pc607973049)" style="fill: none; stroke: #000000; stroke-linecap: round"/>
    <path d="M 60.753448 302.604395 
L 65.225136 302.541115 
L 62.592747 306.156433 
z
" clip-path="url(#pc607973049)" style="stroke: #000000; stroke-linecap: round"/>
   </g>
   <g id="patch_75">
    <path d="M 66.221466 302.0252 
Q 53.963987 308.372308 42.699332 314.205316 
" clip-path="url(#pc607973049)" style="fill: none; stroke: #000000; stroke-linecap: round"/>
    <path d="M 47.17102 314.142036 
L 42.699332 314.205316 
L 45.331721 310.589997 
z
" clip-path="url(#pc607973049)" style="stroke: #000000; stroke-linecap: round"/>
   </g>
   <g id="patch_76">
    <path d="M 66.221466 302.0252 
Q 53.963987 308.372308 42.699332 314.205316 
" clip-path="url(#pc607973049)" style="fill: none; stroke: #000000; stroke-linecap: round"/>
    <path d="M 47.17102 314.142036 
L 42.699332 314.205316 
L 45.331721 310.589997 
z
" clip-path="url(#pc607973049)" style="stroke: #000000; stroke-linecap: round"/>
   </g>
   <g id="patch_77">
    <path d="M 69.213889 299.679669 
Q 78.008547 289.640127 86.066497 280.441575 
" clip-path="url(#pc607973049)" style="fill: none; stroke: #000000; stroke-linecap: round"/>
    <path d="M 81.926366 282.132524 
L 86.066497 280.441575 
L 84.935178 284.76825 
z
" clip-path="url(#pc607973049)" style="stroke: #000000; stroke-linecap: round"/>
   </g>
   <g id="patch_78">
    <path d="M 69.743098 300.443389 
Q 90.380127 292.520507 109.9734 284.99834 
" clip-path="url(#pc607973049)" style="fill: none; stroke: #000000; stroke-linecap: round"/>
    <path d="M 105.522323 284.564852 
L 109.9734 284.99834 
L 106.955963 288.299109 
z
" clip-path="url(#pc607973049)" style="stroke: #000000; stroke-linecap: round"/>
   </g>
   <g id="patch_79">
    <path d="M 86.805266 279.598233 
Q 78.010608 289.637774 69.952658 298.836327 
" clip-path="url(#pc607973049)" style="fill: none; stroke: #000000; stroke-linecap: round"/>
    <path d="M 74.09279 297.145378 
L 69.952658 298.836327 
L 71.083978 294.509652 
z
" clip-path="url(#pc607973049)" style="stroke: #000000; stroke-linecap: round"/>
   </g>
   <g id="patch_80">
    <path d="M 89.969138 278.58105 
Q 100.45199 281.022629 109.845954 283.210593 
" clip-path="url(#pc607973049)" style="fill: none; stroke: #000000; stroke-linecap: round"/>
    <path d="M 106.403907 280.355368 
L 109.845954 283.210593 
L 105.496546 284.251096 
z
" clip-path="url(#pc607973049)" style="stroke: #000000; stroke-linecap: round"/>
   </g>
   <g id="patch_81">
    <path d="M 89.823407 277.300513 
Q 111.82366 266.680493 132.817051 256.546507 
" clip-path="url(#pc607973049)" style="fill: none; stroke: #000000; stroke-linecap: round"/>
    <path d="M 128.345348 256.484269 
L 132.817051 256.546507 
L 130.084239 260.086526 
z
" clip-path="url(#pc607973049)" style="stroke: #000000; stroke-linecap: round"/>
   </g>
   <g id="patch_82">
    <path d="M 111.018163 284.597239 
Q 90.381134 292.520121 70.787861 300.042288 
" clip-path="url(#pc607973049)" style="fill: none; stroke: #000000; stroke-linecap: round"/>
    <path d="M 75.238938 300.475776 
L 70.787861 300.042288 
L 73.805298 296.741519 
z
" clip-path="url(#pc607973049)" style="stroke: #000000; stroke-linecap: round"/>
   </g>
   <g id="patch_83">
    <path d="M 110.935897 283.464454 
Q 100.453045 281.022874 91.059081 278.83491 
" clip-path="url(#pc607973049)" style="fill: none; stroke: #000000; stroke-linecap: round"/>
    <path d="M 94.501128 281.690135 
L 91.059081 278.83491 
L 95.408489 277.794407 
z
" clip-path="url(#pc607973049)" style="stroke: #000000; stroke-linecap: round"/>
   </g>
   <g id="patch_84">
    <path d="M 114.025811 282.387874 
Q 124.196484 269.560832 133.672522 257.609851 
" clip-path="url(#pc607973049)" style="fill: none; stroke: #000000; stroke-linecap: round"/>
    <path d="M 129.620174 259.501537 
L 133.672522 257.609851 
L 132.754461 261.986741 
z
" clip-path="url(#pc607973049)" style="stroke: #000000; stroke-linecap: round"/>
   </g>
   <g id="patch_85">
    <path d="M 133.827024 256.058969 
Q 111.826772 266.67899 90.833381 276.812976 
" clip-path="url(#pc607973049)" style="fill: none; stroke: #000000; stroke-linecap: round"/>
    <path d="M 95.305084 276.875214 
L 90.833381 276.812976 
L 93.566192 273.272956 
z
" clip-path="url(#pc607973049)" style="stroke: #000000; stroke-linecap: round"/>
   </g>
   <g id="patch_86">
    <path d="M 134.366726 256.734335 
Q 124.196053 269.561377 114.720015 281.512358 
" clip-path="url(#pc607973049)" style="fill: none; stroke: #000000; stroke-linecap: round"/>
    <path d="M 118.772363 279.620672 
L 114.720015 281.512358 
L 115.638076 277.135468 
z
" clip-path="url(#pc607973049)" style="stroke: #000000; stroke-linecap: round"/>
   </g>
   <g id="patch_87">
    <path d="M 137.057442 253.982449 
Q 152.815792 240.90079 167.713896 228.533257 
" clip-path="url(#pc607973049)" style="fill: none; stroke: #000000; stroke-linecap: round"/>
    <path d="M 163.358718 229.549337 
L 167.713896 228.533257 
L 165.913653 232.627048 
z
" clip-path="url(#pc607973049)" style="stroke: #000000; stroke-linecap: round"/>
   </g>
   <g id="patch_88">
    <path d="M 137.057442 253.982449 
Q 152.815792 240.90079 167.713896 228.533257 
" clip-path="url(#pc607973049)" style="fill: none; stroke: #000000; stroke-linecap: round"/>
    <path d="M 163.358718 229.549337 
L 167.713896 228.533257 
L 165.913653 232.627048 
z
" clip-path="url(#pc607973049)" style="stroke: #000000; stroke-linecap: round"/>
   </g>
   <g id="patch_89">
    <path d="M 168.574376 227.818937 
Q 152.816025 240.900596 137.917921 253.26813 
" clip-path="url(#pc607973049)" style="fill: none; stroke: #000000; stroke-linecap: round"/>
    <path d="M 142.2731 252.25205 
L 137.917921 253.26813 
L 139.718165 249.174339 
z
" clip-path="url(#pc607973049)" style="stroke: #000000; stroke-linecap: round"/>
   </g>
   <g id="patch_90">
    <path d="M 168.574376 227.818937 
Q 152.816025 240.900596 137.917921 253.26813 
" clip-path="url(#pc607973049)" style="fill: none; stroke: #000000; stroke-linecap: round"/>
    <path d="M 142.2731 252.25205 
L 137.917921 253.26813 
L 139.718165 249.174339 
z
" clip-path="url(#pc607973049)" style="stroke: #000000; stroke-linecap: round"/>
   </g>
   <g id="patch_91">
    <path d="M 171.944388 226.124338 
Q 210.464371 216.728341 247.898167 207.597293 
" clip-path="url(#pc607973049)" style="fill: none; stroke: #000000; stroke-linecap: round"/>
    <path d="M 243.538152 206.602171 
L 247.898167 207.597293 
L 244.486061 210.488232 
z
" clip-path="url(#pc607973049)" style="stroke: #000000; stroke-linecap: round"/>
   </g>
   <g id="patch_92">
    <path d="M 169.376372 224.771111 
Q 165.014336 213.256129 161.048362 202.786677 
" clip-path="url(#pc607973049)" style="fill: none; stroke: #000000; stroke-linecap: round"/>
    <path d="M 160.595052 207.235779 
L 161.048362 202.786677 
L 164.335658 205.818786 
z
" clip-path="url(#pc607973049)" style="stroke: #000000; stroke-linecap: round"/>
   </g>
   <g id="patch_93">
    <path d="M 169.376372 224.771111 
Q 165.014336 213.256129 161.048362 202.786677 
" clip-path="url(#pc607973049)" style="fill: none; stroke: #000000; stroke-linecap: round"/>
    <path d="M 160.595052 207.235779 
L 161.048362 202.786677 
L 164.335658 205.818786 
z
" clip-path="url(#pc607973049)" style="stroke: #000000; stroke-linecap: round"/>
   </g>
   <g id="patch_94">
    <path d="M 252.564354 205.942066 
Q 279.056968 191.405997 304.569398 177.407738 
" clip-path="url(#pc607973049)" style="fill: none; stroke: #000000; stroke-linecap: round"/>
    <path d="M 300.100522 177.578463 
L 304.569398 177.407738 
L 302.024652 181.085274 
z
" clip-path="url(#pc607973049)" style="stroke: #000000; stroke-linecap: round"/>
   </g>
   <g id="patch_95">
    <path d="M 248.986306 207.331869 
Q 210.466322 216.727865 173.032526 225.858914 
" clip-path="url(#pc607973049)" style="fill: none; stroke: #000000; stroke-linecap: round"/>
    <path d="M 177.392541 226.854036 
L 173.032526 225.858914 
L 176.444633 222.967975 
z
" clip-path="url(#pc607973049)" style="stroke: #000000; stroke-linecap: round"/>
   </g>
   <g id="patch_96">
    <path d="M 160.257301 198.017295 
Q 162.192402 185.281291 163.959557 173.650635 
" clip-path="url(#pc607973049)" style="fill: none; stroke: #000000; stroke-linecap: round"/>
    <path d="M 161.381389 177.304817 
L 163.959557 173.650635 
L 165.336002 177.905679 
z
" clip-path="url(#pc607973049)" style="stroke: #000000; stroke-linecap: round"/>
   </g>
   <g id="patch_97">
    <path d="M 160.257301 198.017295 
Q 162.192402 185.281291 163.959557 173.650635 
" clip-path="url(#pc607973049)" style="fill: none; stroke: #000000; stroke-linecap: round"/>
    <path d="M 161.381389 177.304817 
L 163.959557 173.650635 
L 165.336002 177.905679 
z
" clip-path="url(#pc607973049)" style="stroke: #000000; stroke-linecap: round"/>
   </g>
   <g id="patch_98">
    <path d="M 160.653029 201.743072 
Q 165.015065 213.258054 168.981039 223.727506 
" clip-path="url(#pc607973049)" style="fill: none; stroke: #000000; stroke-linecap: round"/>
    <path d="M 169.434349 219.278404 
L 168.981039 223.727506 
L 165.693743 220.695397 
z
" clip-path="url(#pc607973049)" style="stroke: #000000; stroke-linecap: round"/>
   </g>
   <g id="patch_99">
    <path d="M 160.653029 201.743072 
Q 165.015065 213.258054 168.981039 223.727506 
" clip-path="url(#pc607973049)" style="fill: none; stroke: #000000; stroke-linecap: round"/>
    <path d="M 169.434349 219.278404 
L 168.981039 223.727506 
L 165.693743 220.695397 
z
" clip-path="url(#pc607973049)" style="stroke: #000000; stroke-linecap: round"/>
   </g>
   <g id="PathCollection_1">
    <defs>
     <path id="m70664f6c6a" d="M 0 1.936492 
C 0.513564 1.936492 1.006162 1.732451 1.369306 1.369306 
C 1.732451 1.006162 1.936492 0.513564 1.936492 0 
C 1.936492 -0.513564 1.732451 -1.006162 1.369306 -1.369306 
C 1.006162 -1.732451 0.513564 -1.936492 0 -1.936492 
C -0.513564 -1.936492 -1.006162 -1.732451 -1.369306 -1.369306 
C -1.732451 -1.006162 -1.936492 -0.513564 -1.936492 0 
C -1.936492 0.513564 -1.732451 1.006162 -1.369306 1.369306 
C -1.006162 1.732451 -0.513564 1.936492 0 1.936492 
z
" style="stroke: #1f78b4"/>
    </defs>
    <g clip-path="url(#pc607973049)">
     <use xlink:href="#m70664f6c6a" x="394.576272" y="110.808169" style="fill: #1f78b4; stroke: #1f78b4"/>
     <use xlink:href="#m70664f6c6a" x="382.678679" y="151.862655" style="fill: #1f78b4; stroke: #1f78b4"/>
     <use xlink:href="#m70664f6c6a" x="307.248446" y="175.937788" style="fill: #1f78b4; stroke: #1f78b4"/>
     <use xlink:href="#m70664f6c6a" x="360.69192" y="166.51717" style="fill: #1f78b4; stroke: #1f78b4"/>
     <use xlink:href="#m70664f6c6a" x="335.945436" y="83.180315" style="fill: #1f78b4; stroke: #1f78b4"/>
     <use xlink:href="#m70664f6c6a" x="149.451271" y="140.359479" style="fill: #1f78b4; stroke: #1f78b4"/>
     <use xlink:href="#m70664f6c6a" x="420.813223" y="125.93936" style="fill: #1f78b4; stroke: #1f78b4"/>
     <use xlink:href="#m70664f6c6a" x="397.95822" y="141.097065" style="fill: #1f78b4; stroke: #1f78b4"/>
     <use xlink:href="#m70664f6c6a" x="150.540643" y="110.528276" style="fill: #1f78b4; stroke: #1f78b4"/>
     <use xlink:href="#m70664f6c6a" x="169.175253" y="82.303779" style="fill: #1f78b4; stroke: #1f78b4"/>
     <use xlink:href="#m70664f6c6a" x="250.276052" y="65.698366" style="fill: #1f78b4; stroke: #1f78b4"/>
     <use xlink:href="#m70664f6c6a" x="194.77132" y="29.990083" style="fill: #1f78b4; stroke: #1f78b4"/>
     <use xlink:href="#m70664f6c6a" x="149.139981" y="34.163482" style="fill: #1f78b4; stroke: #1f78b4"/>
     <use xlink:href="#m70664f6c6a" x="139.589329" y="52.681798" style="fill: #1f78b4; stroke: #1f78b4"/>
     <use xlink:href="#m70664f6c6a" x="114.051707" y="172.435275" style="fill: #1f78b4; stroke: #1f78b4"/>
     <use xlink:href="#m70664f6c6a" x="232.501073" y="43.86276" style="fill: #1f78b4; stroke: #1f78b4"/>
     <use xlink:href="#m70664f6c6a" x="164.418568" y="170.62962" style="fill: #1f78b4; stroke: #1f78b4"/>
     <use xlink:href="#m70664f6c6a" x="235.782756" y="173.848883" style="fill: #1f78b4; stroke: #1f78b4"/>
     <use xlink:href="#m70664f6c6a" x="39.986777" y="315.609917" style="fill: #1f78b4; stroke: #1f78b4"/>
     <use xlink:href="#m70664f6c6a" x="67.937691" y="301.136513" style="fill: #1f78b4; stroke: #1f78b4"/>
     <use xlink:href="#m70664f6c6a" x="88.081465" y="278.141389" style="fill: #1f78b4; stroke: #1f78b4"/>
     <use xlink:href="#m70664f6c6a" x="112.82357" y="283.904115" style="fill: #1f78b4; stroke: #1f78b4"/>
     <use xlink:href="#m70664f6c6a" x="135.568967" y="255.218094" style="fill: #1f78b4; stroke: #1f78b4"/>
     <use xlink:href="#m70664f6c6a" x="170.062851" y="226.583292" style="fill: #1f78b4; stroke: #1f78b4"/>
     <use xlink:href="#m70664f6c6a" x="250.867843" y="206.872914" style="fill: #1f78b4; stroke: #1f78b4"/>
     <use xlink:href="#m70664f6c6a" x="159.96655" y="199.930891" style="fill: #1f78b4; stroke: #1f78b4"/>
    </g>
   </g>
   <g id="text_1">
    <g clip-path="url(#pc607973049)">
     <!-- 0 -->
     <g transform="translate(391.395022 113.567544) scale(0.1 -0.1)">
      <defs>
       <path id="DejaVuSans-30" d="M 2034 4250 
Q 1547 4250 1301 3770 
Q 1056 3291 1056 2328 
Q 1056 1369 1301 889 
Q 1547 409 2034 409 
Q 2525 409 2770 889 
Q 3016 1369 3016 2328 
Q 3016 3291 2770 3770 
Q 2525 4250 2034 4250 
z
M 2034 4750 
Q 2819 4750 3233 4129 
Q 3647 3509 3647 2328 
Q 3647 1150 3233 529 
Q 2819 -91 2034 -91 
Q 1250 -91 836 529 
Q 422 1150 422 2328 
Q 422 3509 836 4129 
Q 1250 4750 2034 4750 
z
" transform="scale(0.015625)"/>
      </defs>
      <use xlink:href="#DejaVuSans-30"/>
     </g>
    </g>
   </g>
   <g id="text_2">
    <g clip-path="url(#pc607973049)">
     <!-- 1 -->
     <g transform="translate(379.497429 154.62203) scale(0.1 -0.1)">
      <defs>
       <path id="DejaVuSans-31" d="M 794 531 
L 1825 531 
L 1825 4091 
L 703 3866 
L 703 4441 
L 1819 4666 
L 2450 4666 
L 2450 531 
L 3481 531 
L 3481 0 
L 794 0 
L 794 531 
z
" transform="scale(0.015625)"/>
      </defs>
      <use xlink:href="#DejaVuSans-31"/>
     </g>
    </g>
   </g>
   <g id="text_3">
    <g clip-path="url(#pc607973049)">
     <!-- 2 -->
     <g transform="translate(304.067196 178.697163) scale(0.1 -0.1)">
      <defs>
       <path id="DejaVuSans-32" d="M 1228 531 
L 3431 531 
L 3431 0 
L 469 0 
L 469 531 
Q 828 903 1448 1529 
Q 2069 2156 2228 2338 
Q 2531 2678 2651 2914 
Q 2772 3150 2772 3378 
Q 2772 3750 2511 3984 
Q 2250 4219 1831 4219 
Q 1534 4219 1204 4116 
Q 875 4013 500 3803 
L 500 4441 
Q 881 4594 1212 4672 
Q 1544 4750 1819 4750 
Q 2544 4750 2975 4387 
Q 3406 4025 3406 3419 
Q 3406 3131 3298 2873 
Q 3191 2616 2906 2266 
Q 2828 2175 2409 1742 
Q 1991 1309 1228 531 
z
" transform="scale(0.015625)"/>
      </defs>
      <use xlink:href="#DejaVuSans-32"/>
     </g>
    </g>
   </g>
   <g id="text_4">
    <g clip-path="url(#pc607973049)">
     <!-- 3 -->
     <g transform="translate(357.51067 169.276545) scale(0.1 -0.1)">
      <defs>
       <path id="DejaVuSans-33" d="M 2597 2516 
Q 3050 2419 3304 2112 
Q 3559 1806 3559 1356 
Q 3559 666 3084 287 
Q 2609 -91 1734 -91 
Q 1441 -91 1130 -33 
Q 819 25 488 141 
L 488 750 
Q 750 597 1062 519 
Q 1375 441 1716 441 
Q 2309 441 2620 675 
Q 2931 909 2931 1356 
Q 2931 1769 2642 2001 
Q 2353 2234 1838 2234 
L 1294 2234 
L 1294 2753 
L 1863 2753 
Q 2328 2753 2575 2939 
Q 2822 3125 2822 3475 
Q 2822 3834 2567 4026 
Q 2313 4219 1838 4219 
Q 1578 4219 1281 4162 
Q 984 4106 628 3988 
L 628 4550 
Q 988 4650 1302 4700 
Q 1616 4750 1894 4750 
Q 2613 4750 3031 4423 
Q 3450 4097 3450 3541 
Q 3450 3153 3228 2886 
Q 3006 2619 2597 2516 
z
" transform="scale(0.015625)"/>
      </defs>
      <use xlink:href="#DejaVuSans-33"/>
     </g>
    </g>
   </g>
   <g id="text_5">
    <g clip-path="url(#pc607973049)">
     <!-- 4 -->
     <g transform="translate(332.764186 85.93969) scale(0.1 -0.1)">
      <defs>
       <path id="DejaVuSans-34" d="M 2419 4116 
L 825 1625 
L 2419 1625 
L 2419 4116 
z
M 2253 4666 
L 3047 4666 
L 3047 1625 
L 3713 1625 
L 3713 1100 
L 3047 1100 
L 3047 0 
L 2419 0 
L 2419 1100 
L 313 1100 
L 313 1709 
L 2253 4666 
z
" transform="scale(0.015625)"/>
      </defs>
      <use xlink:href="#DejaVuSans-34"/>
     </g>
    </g>
   </g>
   <g id="text_6">
    <g clip-path="url(#pc607973049)">
     <!-- 5 -->
     <g transform="translate(146.270021 143.118854) scale(0.1 -0.1)">
      <defs>
       <path id="DejaVuSans-35" d="M 691 4666 
L 3169 4666 
L 3169 4134 
L 1269 4134 
L 1269 2991 
Q 1406 3038 1543 3061 
Q 1681 3084 1819 3084 
Q 2600 3084 3056 2656 
Q 3513 2228 3513 1497 
Q 3513 744 3044 326 
Q 2575 -91 1722 -91 
Q 1428 -91 1123 -41 
Q 819 9 494 109 
L 494 744 
Q 775 591 1075 516 
Q 1375 441 1709 441 
Q 2250 441 2565 725 
Q 2881 1009 2881 1497 
Q 2881 1984 2565 2268 
Q 2250 2553 1709 2553 
Q 1456 2553 1204 2497 
Q 953 2441 691 2322 
L 691 4666 
z
" transform="scale(0.015625)"/>
      </defs>
      <use xlink:href="#DejaVuSans-35"/>
     </g>
    </g>
   </g>
   <g id="text_7">
    <g clip-path="url(#pc607973049)">
     <!-- 6 -->
     <g transform="translate(417.631973 128.698735) scale(0.1 -0.1)">
      <defs>
       <path id="DejaVuSans-36" d="M 2113 2584 
Q 1688 2584 1439 2293 
Q 1191 2003 1191 1497 
Q 1191 994 1439 701 
Q 1688 409 2113 409 
Q 2538 409 2786 701 
Q 3034 994 3034 1497 
Q 3034 2003 2786 2293 
Q 2538 2584 2113 2584 
z
M 3366 4563 
L 3366 3988 
Q 3128 4100 2886 4159 
Q 2644 4219 2406 4219 
Q 1781 4219 1451 3797 
Q 1122 3375 1075 2522 
Q 1259 2794 1537 2939 
Q 1816 3084 2150 3084 
Q 2853 3084 3261 2657 
Q 3669 2231 3669 1497 
Q 3669 778 3244 343 
Q 2819 -91 2113 -91 
Q 1303 -91 875 529 
Q 447 1150 447 2328 
Q 447 3434 972 4092 
Q 1497 4750 2381 4750 
Q 2619 4750 2861 4703 
Q 3103 4656 3366 4563 
z
" transform="scale(0.015625)"/>
      </defs>
      <use xlink:href="#DejaVuSans-36"/>
     </g>
    </g>
   </g>
   <g id="text_8">
    <g clip-path="url(#pc607973049)">
     <!-- 7 -->
     <g transform="translate(394.77697 143.85644) scale(0.1 -0.1)">
      <defs>
       <path id="DejaVuSans-37" d="M 525 4666 
L 3525 4666 
L 3525 4397 
L 1831 0 
L 1172 0 
L 2766 4134 
L 525 4134 
L 525 4666 
z
" transform="scale(0.015625)"/>
      </defs>
      <use xlink:href="#DejaVuSans-37"/>
     </g>
    </g>
   </g>
   <g id="text_9">
    <g clip-path="url(#pc607973049)">
     <!-- 8 -->
     <g transform="translate(147.359393 113.287651) scale(0.1 -0.1)">
      <defs>
       <path id="DejaVuSans-38" d="M 2034 2216 
Q 1584 2216 1326 1975 
Q 1069 1734 1069 1313 
Q 1069 891 1326 650 
Q 1584 409 2034 409 
Q 2484 409 2743 651 
Q 3003 894 3003 1313 
Q 3003 1734 2745 1975 
Q 2488 2216 2034 2216 
z
M 1403 2484 
Q 997 2584 770 2862 
Q 544 3141 544 3541 
Q 544 4100 942 4425 
Q 1341 4750 2034 4750 
Q 2731 4750 3128 4425 
Q 3525 4100 3525 3541 
Q 3525 3141 3298 2862 
Q 3072 2584 2669 2484 
Q 3125 2378 3379 2068 
Q 3634 1759 3634 1313 
Q 3634 634 3220 271 
Q 2806 -91 2034 -91 
Q 1263 -91 848 271 
Q 434 634 434 1313 
Q 434 1759 690 2068 
Q 947 2378 1403 2484 
z
M 1172 3481 
Q 1172 3119 1398 2916 
Q 1625 2713 2034 2713 
Q 2441 2713 2670 2916 
Q 2900 3119 2900 3481 
Q 2900 3844 2670 4047 
Q 2441 4250 2034 4250 
Q 1625 4250 1398 4047 
Q 1172 3844 1172 3481 
z
" transform="scale(0.015625)"/>
      </defs>
      <use xlink:href="#DejaVuSans-38"/>
     </g>
    </g>
   </g>
   <g id="text_10">
    <g clip-path="url(#pc607973049)">
     <!-- 9 -->
     <g transform="translate(165.994003 85.063154) scale(0.1 -0.1)">
      <defs>
       <path id="DejaVuSans-39" d="M 703 97 
L 703 672 
Q 941 559 1184 500 
Q 1428 441 1663 441 
Q 2288 441 2617 861 
Q 2947 1281 2994 2138 
Q 2813 1869 2534 1725 
Q 2256 1581 1919 1581 
Q 1219 1581 811 2004 
Q 403 2428 403 3163 
Q 403 3881 828 4315 
Q 1253 4750 1959 4750 
Q 2769 4750 3195 4129 
Q 3622 3509 3622 2328 
Q 3622 1225 3098 567 
Q 2575 -91 1691 -91 
Q 1453 -91 1209 -44 
Q 966 3 703 97 
z
M 1959 2075 
Q 2384 2075 2632 2365 
Q 2881 2656 2881 3163 
Q 2881 3666 2632 3958 
Q 2384 4250 1959 4250 
Q 1534 4250 1286 3958 
Q 1038 3666 1038 3163 
Q 1038 2656 1286 2365 
Q 1534 2075 1959 2075 
z
" transform="scale(0.015625)"/>
      </defs>
      <use xlink:href="#DejaVuSans-39"/>
     </g>
    </g>
   </g>
   <g id="text_11">
    <g clip-path="url(#pc607973049)">
     <!-- 10 -->
     <g transform="translate(243.913552 68.457741) scale(0.1 -0.1)">
      <use xlink:href="#DejaVuSans-31"/>
      <use xlink:href="#DejaVuSans-30" x="63.623047"/>
     </g>
    </g>
   </g>
   <g id="text_12">
    <g clip-path="url(#pc607973049)">
     <!-- 11 -->
     <g transform="translate(188.40882 32.749458) scale(0.1 -0.1)">
      <use xlink:href="#DejaVuSans-31"/>
      <use xlink:href="#DejaVuSans-31" x="63.623047"/>
     </g>
    </g>
   </g>
   <g id="text_13">
    <g clip-path="url(#pc607973049)">
     <!-- 12 -->
     <g transform="translate(142.777481 36.922857) scale(0.1 -0.1)">
      <use xlink:href="#DejaVuSans-31"/>
      <use xlink:href="#DejaVuSans-32" x="63.623047"/>
     </g>
    </g>
   </g>
   <g id="text_14">
    <g clip-path="url(#pc607973049)">
     <!-- 13 -->
     <g transform="translate(133.226829 55.441173) scale(0.1 -0.1)">
      <use xlink:href="#DejaVuSans-31"/>
      <use xlink:href="#DejaVuSans-33" x="63.623047"/>
     </g>
    </g>
   </g>
   <g id="text_15">
    <g clip-path="url(#pc607973049)">
     <!-- 14 -->
     <g transform="translate(107.689207 175.19465) scale(0.1 -0.1)">
      <use xlink:href="#DejaVuSans-31"/>
      <use xlink:href="#DejaVuSans-34" x="63.623047"/>
     </g>
    </g>
   </g>
   <g id="text_16">
    <g clip-path="url(#pc607973049)">
     <!-- 15 -->
     <g transform="translate(226.138573 46.622135) scale(0.1 -0.1)">
      <use xlink:href="#DejaVuSans-31"/>
      <use xlink:href="#DejaVuSans-35" x="63.623047"/>
     </g>
    </g>
   </g>
   <g id="text_17">
    <g clip-path="url(#pc607973049)">
     <!-- 16 -->
     <g transform="translate(158.056068 173.388995) scale(0.1 -0.1)">
      <use xlink:href="#DejaVuSans-31"/>
      <use xlink:href="#DejaVuSans-36" x="63.623047"/>
     </g>
    </g>
   </g>
   <g id="text_18">
    <g clip-path="url(#pc607973049)">
     <!-- 17 -->
     <g transform="translate(229.420256 176.608258) scale(0.1 -0.1)">
      <use xlink:href="#DejaVuSans-31"/>
      <use xlink:href="#DejaVuSans-37" x="63.623047"/>
     </g>
    </g>
   </g>
   <g id="text_19">
    <g clip-path="url(#pc607973049)">
     <!-- 18 -->
     <g transform="translate(33.624277 318.369292) scale(0.1 -0.1)">
      <use xlink:href="#DejaVuSans-31"/>
      <use xlink:href="#DejaVuSans-38" x="63.623047"/>
     </g>
    </g>
   </g>
   <g id="text_20">
    <g clip-path="url(#pc607973049)">
     <!-- 19 -->
     <g transform="translate(61.575191 303.895888) scale(0.1 -0.1)">
      <use xlink:href="#DejaVuSans-31"/>
      <use xlink:href="#DejaVuSans-39" x="63.623047"/>
     </g>
    </g>
   </g>
   <g id="text_21">
    <g clip-path="url(#pc607973049)">
     <!-- 20 -->
     <g transform="translate(81.718965 280.900764) scale(0.1 -0.1)">
      <use xlink:href="#DejaVuSans-32"/>
      <use xlink:href="#DejaVuSans-30" x="63.623047"/>
     </g>
    </g>
   </g>
   <g id="text_22">
    <g clip-path="url(#pc607973049)">
     <!-- 21 -->
     <g transform="translate(106.46107 286.66349) scale(0.1 -0.1)">
      <use xlink:href="#DejaVuSans-32"/>
      <use xlink:href="#DejaVuSans-31" x="63.623047"/>
     </g>
    </g>
   </g>
   <g id="text_23">
    <g clip-path="url(#pc607973049)">
     <!-- 22 -->
     <g transform="translate(129.206467 257.977469) scale(0.1 -0.1)">
      <use xlink:href="#DejaVuSans-32"/>
      <use xlink:href="#DejaVuSans-32" x="63.623047"/>
     </g>
    </g>
   </g>
   <g id="text_24">
    <g clip-path="url(#pc607973049)">
     <!-- 23 -->
     <g transform="translate(163.700351 229.342667) scale(0.1 -0.1)">
      <use xlink:href="#DejaVuSans-32"/>
      <use xlink:href="#DejaVuSans-33" x="63.623047"/>
     </g>
    </g>
   </g>
   <g id="text_25">
    <g clip-path="url(#pc607973049)">
     <!-- 24 -->
     <g transform="translate(244.505343 209.632289) scale(0.1 -0.1)">
      <use xlink:href="#DejaVuSans-32"/>
      <use xlink:href="#DejaVuSans-34" x="63.623047"/>
     </g>
    </g>
   </g>
   <g id="text_26">
    <g clip-path="url(#pc607973049)">
     <!-- 25 -->
     <g transform="translate(153.60405 202.690266) scale(0.1 -0.1)">
      <use xlink:href="#DejaVuSans-32"/>
      <use xlink:href="#DejaVuSans-35" x="63.623047"/>
     </g>
    </g>
   </g>
  </g>
 </g>
 <defs>
  <clipPath id="pc607973049">
   <rect x="0" y="0" width="460.8" height="345.6"/>
  </clipPath>
 </defs>
</svg>
