<?xml version="1.0" encoding="utf-8" standalone="no"?>
<!DOCTYPE svg PUBLIC "-//W3C//DTD SVG 1.1//EN"
  "http://www.w3.org/Graphics/SVG/1.1/DTD/svg11.dtd">
<svg xmlns:xlink="http://www.w3.org/1999/xlink" width="460.8pt" height="345.6pt" viewBox="0 0 460.8 345.6" xmlns="http://www.w3.org/2000/svg" version="1.1">
 <metadata>
  <rdf:RDF xmlns:dc="http://purl.org/dc/elements/1.1/" xmlns:cc="http://creativecommons.org/ns#" xmlns:rdf="http://www.w3.org/1999/02/22-rdf-syntax-ns#">
   <cc:Work>
    <dc:type rdf:resource="http://purl.org/dc/dcmitype/StillImage"/>
    <dc:date>2024-02-07T14:34:19.550580</dc:date>
    <dc:format>image/svg+xml</dc:format>
    <dc:creator>
     <cc:Agent>
      <dc:title>Matplotlib v3.8.0, https://matplotlib.org/</dc:title>
     </cc:Agent>
    </dc:creator>
   </cc:Work>
  </rdf:RDF>
 </metadata>
 <defs>
  <style type="text/css">*{stroke-linejoin: round; stroke-linecap: butt}</style>
 </defs>
 <g id="figure_1">
  <g id="patch_1">
   <path d="M 0 345.6 
L 460.8 345.6 
L 460.8 0 
L 0 0 
z
" style="fill: #ffffff"/>
  </g>
  <g id="axes_1">
   <g id="patch_2">
    <path d="M 316.228351 187.480063 
Q 328.413207 170.285373 339.951634 154.002893 
" clip-path="url(#pccf411e513)" style="fill: none; stroke: #000000; stroke-linecap: round"/>
    <path d="M 336.007084 156.11015 
L 339.951634 154.002893 
L 339.270709 158.422887 
z
" clip-path="url(#pccf411e513)" style="stroke: #000000; stroke-linecap: round"/>
   </g>
   <g id="patch_3">
    <path d="M 316.228351 187.480063 
Q 328.413207 170.285373 339.951634 154.002893 
" clip-path="url(#pccf411e513)" style="fill: none; stroke: #000000; stroke-linecap: round"/>
    <path d="M 336.007084 156.11015 
L 339.951634 154.002893 
L 339.270709 158.422887 
z
" clip-path="url(#pccf411e513)" style="stroke: #000000; stroke-linecap: round"/>
   </g>
   <g id="patch_4">
    <path d="M 313.660319 190.343248 
Q 289.905378 211.395134 266.987179 231.705492 
" clip-path="url(#pccf411e513)" style="fill: none; stroke: #000000; stroke-linecap: round"/>
    <path d="M 271.30728 230.549326 
L 266.987179 231.705492 
L 268.654306 227.555711 
z
" clip-path="url(#pccf411e513)" style="stroke: #000000; stroke-linecap: round"/>
   </g>
   <g id="patch_5">
    <path d="M 314.57599 190.923795 
Q 311.241386 202.580628 308.214278 213.162544 
" clip-path="url(#pccf411e513)" style="fill: none; stroke: #000000; stroke-linecap: round"/>
    <path d="M 311.237277 209.866868 
L 308.214278 213.162544 
L 307.391537 208.76674 
z
" clip-path="url(#pccf411e513)" style="stroke: #000000; stroke-linecap: round"/>
   </g>
   <g id="patch_6">
    <path d="M 340.59768 153.091224 
Q 328.412823 170.285914 316.874397 186.568394 
" clip-path="url(#pccf411e513)" style="fill: none; stroke: #000000; stroke-linecap: round"/>
    <path d="M 320.818946 184.461138 
L 316.874397 186.568394 
L 317.555322 182.148401 
z
" clip-path="url(#pccf411e513)" style="stroke: #000000; stroke-linecap: round"/>
   </g>
   <g id="patch_7">
    <path d="M 340.59768 153.091224 
Q 328.412823 170.285914 316.874397 186.568394 
" clip-path="url(#pccf411e513)" style="fill: none; stroke: #000000; stroke-linecap: round"/>
    <path d="M 320.818946 184.461138 
L 316.874397 186.568394 
L 317.555322 182.148401 
z
" clip-path="url(#pccf411e513)" style="stroke: #000000; stroke-linecap: round"/>
   </g>
   <g id="patch_8">
    <path d="M 341.51501 149.590195 
Q 339.933288 134.508922 338.468185 120.539584 
" clip-path="url(#pccf411e513)" style="fill: none; stroke: #000000; stroke-linecap: round"/>
    <path d="M 336.896326 124.72638 
L 338.468185 120.539584 
L 340.874507 124.309148 
z
" clip-path="url(#pccf411e513)" style="stroke: #000000; stroke-linecap: round"/>
   </g>
   <g id="patch_9">
    <path d="M 342.796704 149.904995 
Q 356.688344 129.233378 369.956378 109.489725 
" clip-path="url(#pccf411e513)" style="fill: none; stroke: #000000; stroke-linecap: round"/>
    <path d="M 366.065307 111.694169 
L 369.956378 109.489725 
L 369.38529 113.925248 
z
" clip-path="url(#pccf411e513)" style="stroke: #000000; stroke-linecap: round"/>
   </g>
   <g id="patch_10">
    <path d="M 266.150261 232.447178 
Q 289.905202 211.395291 312.823401 191.084933 
" clip-path="url(#pccf411e513)" style="fill: none; stroke: #000000; stroke-linecap: round"/>
    <path d="M 308.5033 192.2411 
L 312.823401 191.084933 
L 311.156274 195.234714 
z
" clip-path="url(#pccf411e513)" style="stroke: #000000; stroke-linecap: round"/>
   </g>
   <g id="patch_11">
    <path d="M 262.910527 234.460022 
Q 230.349272 247.709559 198.8236 260.537705 
" clip-path="url(#pccf411e513)" style="fill: none; stroke: #000000; stroke-linecap: round"/>
    <path d="M 203.282417 260.882601 
L 198.8236 260.537705 
L 201.774806 257.177589 
z
" clip-path="url(#pccf411e513)" style="stroke: #000000; stroke-linecap: round"/>
   </g>
   <g id="patch_12">
    <path d="M 266.490508 232.991949 
Q 286.038142 224.913931 304.552494 217.262914 
" clip-path="url(#pccf411e513)" style="fill: none; stroke: #000000; stroke-linecap: round"/>
    <path d="M 300.091872 216.94221 
L 304.552494 217.262914 
L 301.619558 220.638989 
z
" clip-path="url(#pccf411e513)" style="stroke: #000000; stroke-linecap: round"/>
   </g>
   <g id="patch_13">
    <path d="M 263.604536 235.327005 
Q 251.624785 252.757973 240.278288 269.267533 
" clip-path="url(#pccf411e513)" style="fill: none; stroke: #000000; stroke-linecap: round"/>
    <path d="M 244.192147 267.103807 
L 240.278288 269.267533 
L 240.895622 264.838211 
z
" clip-path="url(#pccf411e513)" style="stroke: #000000; stroke-linecap: round"/>
   </g>
   <g id="patch_14">
    <path d="M 307.908413 214.231762 
Q 311.243017 202.574929 314.270125 191.993013 
" clip-path="url(#pccf411e513)" style="fill: none; stroke: #000000; stroke-linecap: round"/>
    <path d="M 311.247126 195.288689 
L 314.270125 191.993013 
L 315.092866 196.388818 
z
" clip-path="url(#pccf411e513)" style="stroke: #000000; stroke-linecap: round"/>
   </g>
   <g id="patch_15">
    <path d="M 305.585606 216.835982 
Q 286.037973 224.914 267.523621 232.565017 
" clip-path="url(#pccf411e513)" style="fill: none; stroke: #000000; stroke-linecap: round"/>
    <path d="M 271.984243 232.885721 
L 267.523621 232.565017 
L 270.456557 229.188942 
z
" clip-path="url(#pccf411e513)" style="stroke: #000000; stroke-linecap: round"/>
   </g>
   <g id="patch_16">
    <path d="M 324.95789 80.74283 
Q 311.161382 70.812958 298.272311 61.536203 
" clip-path="url(#pccf411e513)" style="fill: none; stroke: #000000; stroke-linecap: round"/>
    <path d="M 300.350522 65.496132 
L 298.272311 61.536203 
L 302.687181 62.249592 
z
" clip-path="url(#pccf411e513)" style="stroke: #000000; stroke-linecap: round"/>
   </g>
   <g id="patch_17">
    <path d="M 327.12991 83.714064 
Q 332.339236 99.687409 337.201911 114.597818 
" clip-path="url(#pccf411e513)" style="fill: none; stroke: #000000; stroke-linecap: round"/>
    <path d="M 337.863131 110.174834 
L 337.201911 114.597818 
L 334.060256 111.415051 
z
" clip-path="url(#pccf411e513)" style="stroke: #000000; stroke-linecap: round"/>
   </g>
   <g id="patch_18">
    <path d="M 297.366961 60.884589 
Q 311.163469 70.81446 324.05254 80.091215 
" clip-path="url(#pccf411e513)" style="fill: none; stroke: #000000; stroke-linecap: round"/>
    <path d="M 321.974329 76.131286 
L 324.05254 80.091215 
L 319.63767 79.377827 
z
" clip-path="url(#pccf411e513)" style="stroke: #000000; stroke-linecap: round"/>
   </g>
   <g id="patch_19">
    <path d="M 297.72934 59.801739 
Q 328.199149 60.5671 357.551276 61.304387 
" clip-path="url(#pccf411e513)" style="fill: none; stroke: #000000; stroke-linecap: round"/>
    <path d="M 353.602759 59.204575 
L 357.551276 61.304387 
L 353.502316 63.203313 
z
" clip-path="url(#pccf411e513)" style="stroke: #000000; stroke-linecap: round"/>
   </g>
   <g id="patch_20">
    <path d="M 297.72934 59.801739 
Q 328.199149 60.5671 357.551276 61.304387 
" clip-path="url(#pccf411e513)" style="fill: none; stroke: #000000; stroke-linecap: round"/>
    <path d="M 353.602759 59.204575 
L 357.551276 61.304387 
L 353.502316 63.203313 
z
" clip-path="url(#pccf411e513)" style="stroke: #000000; stroke-linecap: round"/>
   </g>
   <g id="patch_21">
    <path d="M 294.763885 61.387957 
Q 287.124233 73.501066 280.081005 84.668511 
" clip-path="url(#pccf411e513)" style="fill: none; stroke: #000000; stroke-linecap: round"/>
    <path d="M 283.906488 82.352117 
L 280.081005 84.668511 
L 280.523179 80.218288 
z
" clip-path="url(#pccf411e513)" style="stroke: #000000; stroke-linecap: round"/>
   </g>
   <g id="patch_22">
    <path d="M 293.864102 59.859639 
Q 269.907599 61.180878 247.067433 62.440549 
" clip-path="url(#pccf411e513)" style="fill: none; stroke: #000000; stroke-linecap: round"/>
    <path d="M 251.1715 64.217242 
L 247.067433 62.440549 
L 250.951228 60.223312 
z
" clip-path="url(#pccf411e513)" style="stroke: #000000; stroke-linecap: round"/>
   </g>
   <g id="patch_23">
    <path d="M 293.900493 59.359406 
Q 257.849244 51.866493 222.892635 44.601092 
" clip-path="url(#pccf411e513)" style="fill: none; stroke: #000000; stroke-linecap: round"/>
    <path d="M 226.401957 47.373212 
L 222.892635 44.601092 
L 227.215925 43.456906 
z
" clip-path="url(#pccf411e513)" style="stroke: #000000; stroke-linecap: round"/>
   </g>
   <g id="patch_24">
    <path d="M 338.351457 119.426613 
Q 339.933179 134.507886 341.398282 148.477224 
" clip-path="url(#pccf411e513)" style="fill: none; stroke: #000000; stroke-linecap: round"/>
    <path d="M 342.970141 144.290428 
L 341.398282 148.477224 
L 338.991961 144.707659 
z
" clip-path="url(#pccf411e513)" style="stroke: #000000; stroke-linecap: round"/>
   </g>
   <g id="patch_25">
    <path d="M 337.549865 115.664751 
Q 332.340539 99.691406 327.477865 84.780997 
" clip-path="url(#pccf411e513)" style="fill: none; stroke: #000000; stroke-linecap: round"/>
    <path d="M 326.816644 89.203981 
L 327.477865 84.780997 
L 330.61952 87.963764 
z
" clip-path="url(#pccf411e513)" style="stroke: #000000; stroke-linecap: round"/>
   </g>
   <g id="patch_26">
    <path d="M 370.579778 108.562066 
Q 356.688139 129.233683 343.420105 148.977336 
" clip-path="url(#pccf411e513)" style="fill: none; stroke: #000000; stroke-linecap: round"/>
    <path d="M 347.311175 146.772892 
L 343.420105 148.977336 
L 343.991192 144.541813 
z
" clip-path="url(#pccf411e513)" style="stroke: #000000; stroke-linecap: round"/>
   </g>
   <g id="patch_27">
    <path d="M 371.203173 105.071659 
Q 366.133072 84.166398 361.326486 64.347672 
" clip-path="url(#pccf411e513)" style="fill: none; stroke: #000000; stroke-linecap: round"/>
    <path d="M 360.325611 68.706371 
L 361.326486 64.347672 
L 364.212919 67.763591 
z
" clip-path="url(#pccf411e513)" style="stroke: #000000; stroke-linecap: round"/>
   </g>
   <g id="patch_28">
    <path d="M 358.672627 61.332554 
Q 328.202818 60.567193 298.850691 59.829906 
" clip-path="url(#pccf411e513)" style="fill: none; stroke: #000000; stroke-linecap: round"/>
    <path d="M 302.799208 61.929718 
L 298.850691 59.829906 
L 302.899651 57.93098 
z
" clip-path="url(#pccf411e513)" style="stroke: #000000; stroke-linecap: round"/>
   </g>
   <g id="patch_29">
    <path d="M 358.672627 61.332554 
Q 328.202818 60.567193 298.850691 59.829906 
" clip-path="url(#pccf411e513)" style="fill: none; stroke: #000000; stroke-linecap: round"/>
    <path d="M 302.799208 61.929718 
L 298.850691 59.829906 
L 302.899651 57.93098 
z
" clip-path="url(#pccf411e513)" style="stroke: #000000; stroke-linecap: round"/>
   </g>
   <g id="patch_30">
    <path d="M 361.063734 63.264283 
Q 366.133835 84.169544 370.940421 103.98827 
" clip-path="url(#pccf411e513)" style="fill: none; stroke: #000000; stroke-linecap: round"/>
    <path d="M 371.941296 99.629572 
L 370.940421 103.98827 
L 368.053988 100.572351 
z
" clip-path="url(#pccf411e513)" style="stroke: #000000; stroke-linecap: round"/>
   </g>
   <g id="patch_31">
    <path d="M 361.961736 59.995905 
Q 375.957946 45.684351 389.172442 32.172124 
" clip-path="url(#pccf411e513)" style="fill: none; stroke: #000000; stroke-linecap: round"/>
    <path d="M 384.945818 33.633509 
L 389.172442 32.172124 
L 387.805576 36.430254 
z
" clip-path="url(#pccf411e513)" style="stroke: #000000; stroke-linecap: round"/>
   </g>
   <g id="patch_32">
    <path d="M 362.536236 61.221009 
Q 390.709019 58.882535 417.7676 56.636546 
" clip-path="url(#pccf411e513)" style="fill: none; stroke: #000000; stroke-linecap: round"/>
    <path d="M 413.615868 54.974281 
L 417.7676 56.636546 
L 413.946749 58.960572 
z
" clip-path="url(#pccf411e513)" style="stroke: #000000; stroke-linecap: round"/>
   </g>
   <g id="patch_33">
    <path d="M 168.055122 31.274078 
Q 193.038896 37.39646 216.936766 43.252736 
" clip-path="url(#pccf411e513)" style="fill: none; stroke: #000000; stroke-linecap: round"/>
    <path d="M 213.527741 40.358164 
L 216.936766 43.252736 
L 212.575693 44.243213 
z
" clip-path="url(#pccf411e513)" style="stroke: #000000; stroke-linecap: round"/>
   </g>
   <g id="patch_34">
    <path d="M 389.951689 31.37532 
Q 375.955479 45.686875 362.740983 59.199102 
" clip-path="url(#pccf411e513)" style="fill: none; stroke: #000000; stroke-linecap: round"/>
    <path d="M 366.967607 57.737717 
L 362.740983 59.199102 
L 364.107849 54.940971 
z
" clip-path="url(#pccf411e513)" style="stroke: #000000; stroke-linecap: round"/>
   </g>
   <g id="patch_35">
    <path d="M 279.482155 85.618023 
Q 287.121806 73.504914 294.165034 62.337469 
" clip-path="url(#pccf411e513)" style="fill: none; stroke: #000000; stroke-linecap: round"/>
    <path d="M 290.339552 64.653863 
L 294.165034 62.337469 
L 293.72286 66.787692 
z
" clip-path="url(#pccf411e513)" style="stroke: #000000; stroke-linecap: round"/>
   </g>
   <g id="patch_36">
    <path d="M 245.950087 62.502172 
Q 269.90659 61.180933 292.746755 59.921262 
" clip-path="url(#pccf411e513)" style="fill: none; stroke: #000000; stroke-linecap: round"/>
    <path d="M 288.642689 58.144569 
L 292.746755 59.921262 
L 288.862961 62.138499 
z
" clip-path="url(#pccf411e513)" style="stroke: #000000; stroke-linecap: round"/>
   </g>
   <g id="patch_37">
    <path d="M 221.800123 44.374023 
Q 257.851373 51.866936 292.807982 59.132337 
" clip-path="url(#pccf411e513)" style="fill: none; stroke: #000000; stroke-linecap: round"/>
    <path d="M 289.298659 56.360217 
L 292.807982 59.132337 
L 288.484691 60.276523 
z
" clip-path="url(#pccf411e513)" style="stroke: #000000; stroke-linecap: round"/>
   </g>
   <g id="patch_38">
    <path d="M 218.026575 43.519799 
Q 193.042801 37.397417 169.144931 31.54114 
" clip-path="url(#pccf411e513)" style="fill: none; stroke: #000000; stroke-linecap: round"/>
    <path d="M 172.553956 34.435713 
L 169.144931 31.54114 
L 173.506004 30.550664 
z
" clip-path="url(#pccf411e513)" style="stroke: #000000; stroke-linecap: round"/>
   </g>
   <g id="patch_39">
    <path d="M 418.884008 56.543878 
Q 390.711225 58.882352 363.652644 61.128342 
" clip-path="url(#pccf411e513)" style="fill: none; stroke: #000000; stroke-linecap: round"/>
    <path d="M 367.804376 62.790607 
L 363.652644 61.128342 
L 367.473495 58.804316 
z
" clip-path="url(#pccf411e513)" style="stroke: #000000; stroke-linecap: round"/>
   </g>
   <g id="patch_40">
    <path d="M 283.8156 292.024491 
Q 262.064805 282.29914 241.334664 273.03015 
" clip-path="url(#pccf411e513)" style="fill: none; stroke: #000000; stroke-linecap: round"/>
    <path d="M 244.169903 276.488679 
L 241.334664 273.03015 
L 245.802631 272.837076 
z
" clip-path="url(#pccf411e513)" style="stroke: #000000; stroke-linecap: round"/>
   </g>
   <g id="patch_41">
    <path d="M 197.785674 260.960049 
Q 230.346929 247.710512 261.872602 234.882365 
" clip-path="url(#pccf411e513)" style="fill: none; stroke: #000000; stroke-linecap: round"/>
    <path d="M 257.413785 234.53747 
L 261.872602 234.882365 
L 258.921395 238.242482 
z
" clip-path="url(#pccf411e513)" style="stroke: #000000; stroke-linecap: round"/>
   </g>
   <g id="patch_42">
    <path d="M 194.174465 262.352251 
Q 160.904064 274.478836 128.684097 286.222554 
" clip-path="url(#pccf411e513)" style="fill: none; stroke: #000000; stroke-linecap: round"/>
    <path d="M 133.127141 286.731836 
L 128.684097 286.222554 
L 131.757349 282.973689 
z
" clip-path="url(#pccf411e513)" style="stroke: #000000; stroke-linecap: round"/>
   </g>
   <g id="patch_43">
    <path d="M 41.772363 229.470334 
Q 63.542205 238.689616 84.282527 247.472909 
" clip-path="url(#pccf411e513)" style="fill: none; stroke: #000000; stroke-linecap: round"/>
    <path d="M 81.379126 244.0714 
L 84.282527 247.472909 
L 79.81928 247.754724 
z
" clip-path="url(#pccf411e513)" style="stroke: #000000; stroke-linecap: round"/>
   </g>
   <g id="patch_44">
    <path d="M 85.310762 247.908354 
Q 63.540919 238.689072 42.800597 229.90578 
" clip-path="url(#pccf411e513)" style="fill: none; stroke: #000000; stroke-linecap: round"/>
    <path d="M 45.703999 233.307288 
L 42.800597 229.90578 
L 47.263845 229.623964 
z
" clip-path="url(#pccf411e513)" style="stroke: #000000; stroke-linecap: round"/>
   </g>
   <g id="patch_45">
    <path d="M 86.340207 250.446811 
Q 81.45527 261.960986 77.006991 272.445923 
" clip-path="url(#pccf411e513)" style="fill: none; stroke: #000000; stroke-linecap: round"/>
    <path d="M 80.410383 269.54473 
L 77.006991 272.445923 
L 76.728071 267.982494 
z
" clip-path="url(#pccf411e513)" style="stroke: #000000; stroke-linecap: round"/>
   </g>
   <g id="patch_46">
    <path d="M 89.01546 248.901013 
Q 123.237136 253.117994 156.34917 257.198238 
" clip-path="url(#pccf411e513)" style="fill: none; stroke: #000000; stroke-linecap: round"/>
    <path d="M 152.623798 254.724051 
L 156.34917 257.198238 
L 152.134597 258.694023 
z
" clip-path="url(#pccf411e513)" style="stroke: #000000; stroke-linecap: round"/>
   </g>
   <g id="patch_47">
    <path d="M 76.569606 273.476872 
Q 81.454544 261.962697 85.902823 251.47776 
" clip-path="url(#pccf411e513)" style="fill: none; stroke: #000000; stroke-linecap: round"/>
    <path d="M 82.499431 254.378953 
L 85.902823 251.47776 
L 86.181742 255.94119 
z
" clip-path="url(#pccf411e513)" style="stroke: #000000; stroke-linecap: round"/>
   </g>
   <g id="patch_48">
    <path d="M 77.696279 275.711468 
Q 100.812059 281.264647 122.840735 286.556667 
" clip-path="url(#pccf411e513)" style="fill: none; stroke: #000000; stroke-linecap: round"/>
    <path d="M 119.418567 283.677646 
L 122.840735 286.556667 
L 118.484217 287.56699 
z
" clip-path="url(#pccf411e513)" style="stroke: #000000; stroke-linecap: round"/>
   </g>
   <g id="patch_49">
    <path d="M 157.459394 257.335046 
Q 123.237718 253.118066 90.125684 249.037821 
" clip-path="url(#pccf411e513)" style="fill: none; stroke: #000000; stroke-linecap: round"/>
    <path d="M 93.851055 251.512009 
L 90.125684 249.037821 
L 94.340257 247.542036 
z
" clip-path="url(#pccf411e513)" style="stroke: #000000; stroke-linecap: round"/>
   </g>
   <g id="patch_50">
    <path d="M 161.287207 257.914186 
Q 198.962947 264.67786 235.538245 271.24398 
" clip-path="url(#pccf411e513)" style="fill: none; stroke: #000000; stroke-linecap: round"/>
    <path d="M 231.954582 268.568656 
L 235.538245 271.24398 
L 231.247788 272.505716 
z
" clip-path="url(#pccf411e513)" style="stroke: #000000; stroke-linecap: round"/>
   </g>
   <g id="patch_51">
    <path d="M 127.630818 286.606459 
Q 160.901219 274.479873 193.121186 262.736156 
" clip-path="url(#pccf411e513)" style="fill: none; stroke: #000000; stroke-linecap: round"/>
    <path d="M 188.678143 262.226873 
L 193.121186 262.736156 
L 190.047934 265.985021 
z
" clip-path="url(#pccf411e513)" style="stroke: #000000; stroke-linecap: round"/>
   </g>
   <g id="patch_52">
    <path d="M 123.927415 286.817724 
Q 100.811634 281.264545 78.782958 275.972524 
" clip-path="url(#pccf411e513)" style="fill: none; stroke: #000000; stroke-linecap: round"/>
    <path d="M 82.205127 278.851545 
L 78.782958 275.972524 
L 83.139476 274.962202 
z
" clip-path="url(#pccf411e513)" style="stroke: #000000; stroke-linecap: round"/>
   </g>
   <g id="patch_53">
    <path d="M 124.326434 288.513713 
Q 108.905458 301.439152 94.341337 313.646398 
" clip-path="url(#pccf411e513)" style="fill: none; stroke: #000000; stroke-linecap: round"/>
    <path d="M 98.691655 312.609704 
L 94.341337 313.646398 
L 96.122173 309.544127 
z
" clip-path="url(#pccf411e513)" style="stroke: #000000; stroke-linecap: round"/>
   </g>
   <g id="patch_54">
    <path d="M 239.645138 270.18879 
Q 251.624889 252.757822 262.971386 236.248262 
" clip-path="url(#pccf411e513)" style="fill: none; stroke: #000000; stroke-linecap: round"/>
    <path d="M 259.057527 238.411988 
L 262.971386 236.248262 
L 262.354052 240.677584 
z
" clip-path="url(#pccf411e513)" style="stroke: #000000; stroke-linecap: round"/>
   </g>
   <g id="patch_55">
    <path d="M 240.31397 272.573771 
Q 262.064765 282.299122 282.794905 291.568111 
" clip-path="url(#pccf411e513)" style="fill: none; stroke: #000000; stroke-linecap: round"/>
    <path d="M 279.959666 288.109583 
L 282.794905 291.568111 
L 278.326939 291.761185 
z
" clip-path="url(#pccf411e513)" style="stroke: #000000; stroke-linecap: round"/>
   </g>
   <g id="patch_56">
    <path d="M 236.639827 271.441739 
Q 198.964087 264.678065 162.388789 258.111946 
" clip-path="url(#pccf411e513)" style="fill: none; stroke: #000000; stroke-linecap: round"/>
    <path d="M 165.972452 260.78727 
L 162.388789 258.111946 
L 166.679246 256.85021 
z
" clip-path="url(#pccf411e513)" style="stroke: #000000; stroke-linecap: round"/>
   </g>
   <g id="patch_57">
    <path d="M 239.038037 273.654959 
Q 243.014087 288.848669 246.70709 302.960768 
" clip-path="url(#pccf411e513)" style="fill: none; stroke: #000000; stroke-linecap: round"/>
    <path d="M 247.629274 298.584745 
L 246.70709 302.960768 
L 243.759582 299.597407 
z
" clip-path="url(#pccf411e513)" style="stroke: #000000; stroke-linecap: round"/>
   </g>
   <g id="patch_58">
    <path d="M 93.482511 314.366242 
Q 108.903487 301.440804 123.467608 289.233558 
" clip-path="url(#pccf411e513)" style="fill: none; stroke: #000000; stroke-linecap: round"/>
    <path d="M 119.11729 290.270252 
L 123.467608 289.233558 
L 121.686772 293.335828 
z
" clip-path="url(#pccf411e513)" style="stroke: #000000; stroke-linecap: round"/>
   </g>
   <g id="patch_59">
    <path d="M 246.9901 304.042236 
Q 243.01405 288.848525 239.321047 274.736427 
" clip-path="url(#pccf411e513)" style="fill: none; stroke: #000000; stroke-linecap: round"/>
    <path d="M 238.398863 279.11245 
L 239.321047 274.736427 
L 242.268555 278.099788 
z
" clip-path="url(#pccf411e513)" style="stroke: #000000; stroke-linecap: round"/>
   </g>
   <g id="PathCollection_1">
    <defs>
     <path id="C0_0_77ad63eaa9" d="M 0 1.936492 
C 0.513564 1.936492 1.006162 1.732451 1.369306 1.369306 
C 1.732451 1.006162 1.936492 0.513564 1.936492 -0 
C 1.936492 -0.513564 1.732451 -1.006162 1.369306 -1.369306 
C 1.006162 -1.732451 0.513564 -1.936492 0 -1.936492 
C -0.513564 -1.936492 -1.006162 -1.732451 -1.369306 -1.369306 
C -1.732451 -1.006162 -1.936492 -0.513564 -1.936492 0 
C -1.936492 0.513564 -1.732451 1.006162 -1.369306 1.369306 
C -1.006162 1.732451 -0.513564 1.936492 0 1.936492 
z
"/>
    </defs>
    <g clip-path="url(#pccf411e513)">
     <use xlink:href="#C0_0_77ad63eaa9" x="315.109434" y="189.059026" style="fill: #ff0000; stroke: #ff0000"/>
    </g>
    <g clip-path="url(#pccf411e513)">
     <use xlink:href="#C0_0_77ad63eaa9" x="341.716597" y="151.512262" style="stroke: #000000"/>
    </g>
    <g clip-path="url(#pccf411e513)">
     <use xlink:href="#C0_0_77ad63eaa9" x="264.701146" y="233.731399" style="stroke: #000000"/>
    </g>
    <g clip-path="url(#pccf411e513)">
     <use xlink:href="#C0_0_77ad63eaa9" x="307.374969" y="216.096532" style="fill: #ff0000; stroke: #ff0000"/>
    </g>
    <g clip-path="url(#pccf411e513)">
     <use xlink:href="#C0_0_77ad63eaa9" x="326.529905" y="81.874269" style="fill: #ff0000; stroke: #ff0000"/>
    </g>
    <g clip-path="url(#pccf411e513)">
     <use xlink:href="#C0_0_77ad63eaa9" x="295.794946" y="59.75315" style="stroke: #000000"/>
    </g>
    <g clip-path="url(#pccf411e513)">
     <use xlink:href="#C0_0_77ad63eaa9" x="338.149871" y="117.504546" style="fill: #ff0000; stroke: #ff0000"/>
    </g>
    <g clip-path="url(#pccf411e513)">
     <use xlink:href="#C0_0_77ad63eaa9" x="371.659886" y="106.954799" style="fill: #ff0000; stroke: #ff0000"/>
    </g>
    <g clip-path="url(#pccf411e513)">
     <use xlink:href="#C0_0_77ad63eaa9" x="360.607021" y="61.381143" style="fill: #ff0000; stroke: #ff0000"/>
    </g>
    <g clip-path="url(#pccf411e513)">
     <use xlink:href="#C0_0_77ad63eaa9" x="166.176027" y="30.813597" style="fill: #ff0000; stroke: #ff0000"/>
    </g>
    <g clip-path="url(#pccf411e513)">
     <use xlink:href="#C0_0_77ad63eaa9" x="391.306404" y="29.990083" style="fill: #ff0000; stroke: #ff0000"/>
    </g>
    <g clip-path="url(#pccf411e513)">
     <use xlink:href="#C0_0_77ad63eaa9" x="278.451093" y="87.25283" style="fill: #ff0000; stroke: #ff0000"/>
    </g>
    <g clip-path="url(#pccf411e513)">
     <use xlink:href="#C0_0_77ad63eaa9" x="244.019243" y="62.608661" style="stroke: #000000"/>
    </g>
    <g clip-path="url(#pccf411e513)">
     <use xlink:href="#C0_0_77ad63eaa9" x="219.90567" y="43.980279" style="fill: #ff0000; stroke: #ff0000"/>
    </g>
    <g clip-path="url(#pccf411e513)">
     <use xlink:href="#C0_0_77ad63eaa9" x="420.813223" y="56.383745" style="fill: #ff0000; stroke: #ff0000"/>
    </g>
    <g clip-path="url(#pccf411e513)">
     <use xlink:href="#C0_0_77ad63eaa9" x="285.581041" y="292.813866" style="stroke: #000000"/>
    </g>
    <g clip-path="url(#pccf411e513)">
     <use xlink:href="#C0_0_77ad63eaa9" x="195.995055" y="261.688671" style="stroke: #000000"/>
    </g>
    <g clip-path="url(#pccf411e513)">
     <use xlink:href="#C0_0_77ad63eaa9" x="39.986777" y="228.714158" style="fill: #ff0000; stroke: #ff0000"/>
    </g>
    <g clip-path="url(#pccf411e513)">
     <use xlink:href="#C0_0_77ad63eaa9" x="87.096348" y="248.66453" style="fill: #ff0000; stroke: #ff0000"/>
    </g>
    <g clip-path="url(#pccf411e513)">
     <use xlink:href="#C0_0_77ad63eaa9" x="75.813466" y="275.259153" style="stroke: #000000"/>
    </g>
    <g clip-path="url(#pccf411e513)">
     <use xlink:href="#C0_0_77ad63eaa9" x="159.378506" y="257.57153" style="stroke: #000000"/>
    </g>
    <g clip-path="url(#pccf411e513)">
     <use xlink:href="#C0_0_77ad63eaa9" x="125.810228" y="287.270038" style="stroke: #000000"/>
    </g>
    <g clip-path="url(#pccf411e513)">
     <use xlink:href="#C0_0_77ad63eaa9" x="238.548528" y="271.784396" style="stroke: #000000"/>
    </g>
    <g clip-path="url(#pccf411e513)">
     <use xlink:href="#C0_0_77ad63eaa9" x="91.998718" y="315.609917" style="fill: #ff0000; stroke: #ff0000"/>
    </g>
    <g clip-path="url(#pccf411e513)">
     <use xlink:href="#C0_0_77ad63eaa9" x="247.479609" y="305.912799" style="fill: #ff0000; stroke: #ff0000"/>
    </g>
   </g>
   <g id="text_1">
    <g clip-path="url(#pccf411e513)">
     <!-- 0 -->
     <g transform="translate(311.928184 191.818401) scale(0.1 -0.1)">
      <defs>
       <path id="DejaVuSans-30" d="M 2034 4250 
Q 1547 4250 1301 3770 
Q 1056 3291 1056 2328 
Q 1056 1369 1301 889 
Q 1547 409 2034 409 
Q 2525 409 2770 889 
Q 3016 1369 3016 2328 
Q 3016 3291 2770 3770 
Q 2525 4250 2034 4250 
z
M 2034 4750 
Q 2819 4750 3233 4129 
Q 3647 3509 3647 2328 
Q 3647 1150 3233 529 
Q 2819 -91 2034 -91 
Q 1250 -91 836 529 
Q 422 1150 422 2328 
Q 422 3509 836 4129 
Q 1250 4750 2034 4750 
z
" transform="scale(0.015625)"/>
      </defs>
      <use xlink:href="#DejaVuSans-30"/>
     </g>
    </g>
   </g>
   <g id="text_2">
    <g clip-path="url(#pccf411e513)">
     <!-- 1 -->
     <g transform="translate(338.535347 154.271637) scale(0.1 -0.1)">
      <defs>
       <path id="DejaVuSans-31" d="M 794 531 
L 1825 531 
L 1825 4091 
L 703 3866 
L 703 4441 
L 1819 4666 
L 2450 4666 
L 2450 531 
L 3481 531 
L 3481 0 
L 794 0 
L 794 531 
z
" transform="scale(0.015625)"/>
      </defs>
      <use xlink:href="#DejaVuSans-31"/>
     </g>
    </g>
   </g>
   <g id="text_3">
    <g clip-path="url(#pccf411e513)">
     <!-- 2 -->
     <g transform="translate(261.519896 236.490774) scale(0.1 -0.1)">
      <defs>
       <path id="DejaVuSans-32" d="M 1228 531 
L 3431 531 
L 3431 0 
L 469 0 
L 469 531 
Q 828 903 1448 1529 
Q 2069 2156 2228 2338 
Q 2531 2678 2651 2914 
Q 2772 3150 2772 3378 
Q 2772 3750 2511 3984 
Q 2250 4219 1831 4219 
Q 1534 4219 1204 4116 
Q 875 4013 500 3803 
L 500 4441 
Q 881 4594 1212 4672 
Q 1544 4750 1819 4750 
Q 2544 4750 2975 4387 
Q 3406 4025 3406 3419 
Q 3406 3131 3298 2873 
Q 3191 2616 2906 2266 
Q 2828 2175 2409 1742 
Q 1991 1309 1228 531 
z
" transform="scale(0.015625)"/>
      </defs>
      <use xlink:href="#DejaVuSans-32"/>
     </g>
    </g>
   </g>
   <g id="text_4">
    <g clip-path="url(#pccf411e513)">
     <!-- 3 -->
     <g transform="translate(304.193719 218.855907) scale(0.1 -0.1)">
      <defs>
       <path id="DejaVuSans-33" d="M 2597 2516 
Q 3050 2419 3304 2112 
Q 3559 1806 3559 1356 
Q 3559 666 3084 287 
Q 2609 -91 1734 -91 
Q 1441 -91 1130 -33 
Q 819 25 488 141 
L 488 750 
Q 750 597 1062 519 
Q 1375 441 1716 441 
Q 2309 441 2620 675 
Q 2931 909 2931 1356 
Q 2931 1769 2642 2001 
Q 2353 2234 1838 2234 
L 1294 2234 
L 1294 2753 
L 1863 2753 
Q 2328 2753 2575 2939 
Q 2822 3125 2822 3475 
Q 2822 3834 2567 4026 
Q 2313 4219 1838 4219 
Q 1578 4219 1281 4162 
Q 984 4106 628 3988 
L 628 4550 
Q 988 4650 1302 4700 
Q 1616 4750 1894 4750 
Q 2613 4750 3031 4423 
Q 3450 4097 3450 3541 
Q 3450 3153 3228 2886 
Q 3006 2619 2597 2516 
z
" transform="scale(0.015625)"/>
      </defs>
      <use xlink:href="#DejaVuSans-33"/>
     </g>
    </g>
   </g>
   <g id="text_5">
    <g clip-path="url(#pccf411e513)">
     <!-- 4 -->
     <g transform="translate(323.348655 84.633644) scale(0.1 -0.1)">
      <defs>
       <path id="DejaVuSans-34" d="M 2419 4116 
L 825 1625 
L 2419 1625 
L 2419 4116 
z
M 2253 4666 
L 3047 4666 
L 3047 1625 
L 3713 1625 
L 3713 1100 
L 3047 1100 
L 3047 0 
L 2419 0 
L 2419 1100 
L 313 1100 
L 313 1709 
L 2253 4666 
z
" transform="scale(0.015625)"/>
      </defs>
      <use xlink:href="#DejaVuSans-34"/>
     </g>
    </g>
   </g>
   <g id="text_6">
    <g clip-path="url(#pccf411e513)">
     <!-- 5 -->
     <g transform="translate(292.613696 62.512525) scale(0.1 -0.1)">
      <defs>
       <path id="DejaVuSans-35" d="M 691 4666 
L 3169 4666 
L 3169 4134 
L 1269 4134 
L 1269 2991 
Q 1406 3038 1543 3061 
Q 1681 3084 1819 3084 
Q 2600 3084 3056 2656 
Q 3513 2228 3513 1497 
Q 3513 744 3044 326 
Q 2575 -91 1722 -91 
Q 1428 -91 1123 -41 
Q 819 9 494 109 
L 494 744 
Q 775 591 1075 516 
Q 1375 441 1709 441 
Q 2250 441 2565 725 
Q 2881 1009 2881 1497 
Q 2881 1984 2565 2268 
Q 2250 2553 1709 2553 
Q 1456 2553 1204 2497 
Q 953 2441 691 2322 
L 691 4666 
z
" transform="scale(0.015625)"/>
      </defs>
      <use xlink:href="#DejaVuSans-35"/>
     </g>
    </g>
   </g>
   <g id="text_7">
    <g clip-path="url(#pccf411e513)">
     <!-- 6 -->
     <g transform="translate(334.968621 120.263921) scale(0.1 -0.1)">
      <defs>
       <path id="DejaVuSans-36" d="M 2113 2584 
Q 1688 2584 1439 2293 
Q 1191 2003 1191 1497 
Q 1191 994 1439 701 
Q 1688 409 2113 409 
Q 2538 409 2786 701 
Q 3034 994 3034 1497 
Q 3034 2003 2786 2293 
Q 2538 2584 2113 2584 
z
M 3366 4563 
L 3366 3988 
Q 3128 4100 2886 4159 
Q 2644 4219 2406 4219 
Q 1781 4219 1451 3797 
Q 1122 3375 1075 2522 
Q 1259 2794 1537 2939 
Q 1816 3084 2150 3084 
Q 2853 3084 3261 2657 
Q 3669 2231 3669 1497 
Q 3669 778 3244 343 
Q 2819 -91 2113 -91 
Q 1303 -91 875 529 
Q 447 1150 447 2328 
Q 447 3434 972 4092 
Q 1497 4750 2381 4750 
Q 2619 4750 2861 4703 
Q 3103 4656 3366 4563 
z
" transform="scale(0.015625)"/>
      </defs>
      <use xlink:href="#DejaVuSans-36"/>
     </g>
    </g>
   </g>
   <g id="text_8">
    <g clip-path="url(#pccf411e513)">
     <!-- 7 -->
     <g transform="translate(368.478636 109.714174) scale(0.1 -0.1)">
      <defs>
       <path id="DejaVuSans-37" d="M 525 4666 
L 3525 4666 
L 3525 4397 
L 1831 0 
L 1172 0 
L 2766 4134 
L 525 4134 
L 525 4666 
z
" transform="scale(0.015625)"/>
      </defs>
      <use xlink:href="#DejaVuSans-37"/>
     </g>
    </g>
   </g>
   <g id="text_9">
    <g clip-path="url(#pccf411e513)">
     <!-- 8 -->
     <g transform="translate(357.425771 64.140518) scale(0.1 -0.1)">
      <defs>
       <path id="DejaVuSans-38" d="M 2034 2216 
Q 1584 2216 1326 1975 
Q 1069 1734 1069 1313 
Q 1069 891 1326 650 
Q 1584 409 2034 409 
Q 2484 409 2743 651 
Q 3003 894 3003 1313 
Q 3003 1734 2745 1975 
Q 2488 2216 2034 2216 
z
M 1403 2484 
Q 997 2584 770 2862 
Q 544 3141 544 3541 
Q 544 4100 942 4425 
Q 1341 4750 2034 4750 
Q 2731 4750 3128 4425 
Q 3525 4100 3525 3541 
Q 3525 3141 3298 2862 
Q 3072 2584 2669 2484 
Q 3125 2378 3379 2068 
Q 3634 1759 3634 1313 
Q 3634 634 3220 271 
Q 2806 -91 2034 -91 
Q 1263 -91 848 271 
Q 434 634 434 1313 
Q 434 1759 690 2068 
Q 947 2378 1403 2484 
z
M 1172 3481 
Q 1172 3119 1398 2916 
Q 1625 2713 2034 2713 
Q 2441 2713 2670 2916 
Q 2900 3119 2900 3481 
Q 2900 3844 2670 4047 
Q 2441 4250 2034 4250 
Q 1625 4250 1398 4047 
Q 1172 3844 1172 3481 
z
" transform="scale(0.015625)"/>
      </defs>
      <use xlink:href="#DejaVuSans-38"/>
     </g>
    </g>
   </g>
   <g id="text_10">
    <g clip-path="url(#pccf411e513)">
     <!-- 9 -->
     <g transform="translate(162.994777 33.572972) scale(0.1 -0.1)">
      <defs>
       <path id="DejaVuSans-39" d="M 703 97 
L 703 672 
Q 941 559 1184 500 
Q 1428 441 1663 441 
Q 2288 441 2617 861 
Q 2947 1281 2994 2138 
Q 2813 1869 2534 1725 
Q 2256 1581 1919 1581 
Q 1219 1581 811 2004 
Q 403 2428 403 3163 
Q 403 3881 828 4315 
Q 1253 4750 1959 4750 
Q 2769 4750 3195 4129 
Q 3622 3509 3622 2328 
Q 3622 1225 3098 567 
Q 2575 -91 1691 -91 
Q 1453 -91 1209 -44 
Q 966 3 703 97 
z
M 1959 2075 
Q 2384 2075 2632 2365 
Q 2881 2656 2881 3163 
Q 2881 3666 2632 3958 
Q 2384 4250 1959 4250 
Q 1534 4250 1286 3958 
Q 1038 3666 1038 3163 
Q 1038 2656 1286 2365 
Q 1534 2075 1959 2075 
z
" transform="scale(0.015625)"/>
      </defs>
      <use xlink:href="#DejaVuSans-39"/>
     </g>
    </g>
   </g>
   <g id="text_11">
    <g clip-path="url(#pccf411e513)">
     <!-- 10 -->
     <g transform="translate(384.943904 32.749458) scale(0.1 -0.1)">
      <use xlink:href="#DejaVuSans-31"/>
      <use xlink:href="#DejaVuSans-30" x="63.623047"/>
     </g>
    </g>
   </g>
   <g id="text_12">
    <g clip-path="url(#pccf411e513)">
     <!-- 11 -->
     <g transform="translate(272.088593 90.012205) scale(0.1 -0.1)">
      <use xlink:href="#DejaVuSans-31"/>
      <use xlink:href="#DejaVuSans-31" x="63.623047"/>
     </g>
    </g>
   </g>
   <g id="text_13">
    <g clip-path="url(#pccf411e513)">
     <!-- 12 -->
     <g transform="translate(237.656743 65.368036) scale(0.1 -0.1)">
      <use xlink:href="#DejaVuSans-31"/>
      <use xlink:href="#DejaVuSans-32" x="63.623047"/>
     </g>
    </g>
   </g>
   <g id="text_14">
    <g clip-path="url(#pccf411e513)">
     <!-- 13 -->
     <g transform="translate(213.54317 46.739654) scale(0.1 -0.1)">
      <use xlink:href="#DejaVuSans-31"/>
      <use xlink:href="#DejaVuSans-33" x="63.623047"/>
     </g>
    </g>
   </g>
   <g id="text_15">
    <g clip-path="url(#pccf411e513)">
     <!-- 14 -->
     <g transform="translate(414.450723 59.14312) scale(0.1 -0.1)">
      <use xlink:href="#DejaVuSans-31"/>
      <use xlink:href="#DejaVuSans-34" x="63.623047"/>
     </g>
    </g>
   </g>
   <g id="text_16">
    <g clip-path="url(#pccf411e513)">
     <!-- 15 -->
     <g transform="translate(279.218541 295.573241) scale(0.1 -0.1)">
      <use xlink:href="#DejaVuSans-31"/>
      <use xlink:href="#DejaVuSans-35" x="63.623047"/>
     </g>
    </g>
   </g>
   <g id="text_17">
    <g clip-path="url(#pccf411e513)">
     <!-- 16 -->
     <g transform="translate(189.632555 264.448046) scale(0.1 -0.1)">
      <use xlink:href="#DejaVuSans-31"/>
      <use xlink:href="#DejaVuSans-36" x="63.623047"/>
     </g>
    </g>
   </g>
   <g id="text_18">
    <g clip-path="url(#pccf411e513)">
     <!-- 17 -->
     <g transform="translate(33.624277 231.473533) scale(0.1 -0.1)">
      <use xlink:href="#DejaVuSans-31"/>
      <use xlink:href="#DejaVuSans-37" x="63.623047"/>
     </g>
    </g>
   </g>
   <g id="text_19">
    <g clip-path="url(#pccf411e513)">
     <!-- 18 -->
     <g transform="translate(80.733848 251.423905) scale(0.1 -0.1)">
      <use xlink:href="#DejaVuSans-31"/>
      <use xlink:href="#DejaVuSans-38" x="63.623047"/>
     </g>
    </g>
   </g>
   <g id="text_20">
    <g clip-path="url(#pccf411e513)">
     <!-- 19 -->
     <g transform="translate(69.450966 278.018528) scale(0.1 -0.1)">
      <use xlink:href="#DejaVuSans-31"/>
      <use xlink:href="#DejaVuSans-39" x="63.623047"/>
     </g>
    </g>
   </g>
   <g id="text_21">
    <g clip-path="url(#pccf411e513)">
     <!-- 20 -->
     <g transform="translate(153.016006 260.330905) scale(0.1 -0.1)">
      <use xlink:href="#DejaVuSans-32"/>
      <use xlink:href="#DejaVuSans-30" x="63.623047"/>
     </g>
    </g>
   </g>
   <g id="text_22">
    <g clip-path="url(#pccf411e513)">
     <!-- 21 -->
     <g transform="translate(119.447728 290.029413) scale(0.1 -0.1)">
      <use xlink:href="#DejaVuSans-32"/>
      <use xlink:href="#DejaVuSans-31" x="63.623047"/>
     </g>
    </g>
   </g>
   <g id="text_23">
    <g clip-path="url(#pccf411e513)">
     <!-- 22 -->
     <g transform="translate(232.186028 274.543771) scale(0.1 -0.1)">
      <use xlink:href="#DejaVuSans-32"/>
      <use xlink:href="#DejaVuSans-32" x="63.623047"/>
     </g>
    </g>
   </g>
   <g id="text_24">
    <g clip-path="url(#pccf411e513)">
     <!-- 23 -->
     <g transform="translate(85.636218 318.369292) scale(0.1 -0.1)">
      <use xlink:href="#DejaVuSans-32"/>
      <use xlink:href="#DejaVuSans-33" x="63.623047"/>
     </g>
    </g>
   </g>
   <g id="text_25">
    <g clip-path="url(#pccf411e513)">
     <!-- 24 -->
     <g transform="translate(241.117109 308.672174) scale(0.1 -0.1)">
      <use xlink:href="#DejaVuSans-32"/>
      <use xlink:href="#DejaVuSans-34" x="63.623047"/>
     </g>
    </g>
   </g>
  </g>
 </g>
 <defs>
  <clipPath id="pccf411e513">
   <rect x="0" y="0" width="460.8" height="345.6"/>
  </clipPath>
 </defs>
</svg>
