<?xml version="1.0" encoding="utf-8" standalone="no"?>
<!DOCTYPE svg PUBLIC "-//W3C//DTD SVG 1.1//EN"
  "http://www.w3.org/Graphics/SVG/1.1/DTD/svg11.dtd">
<svg xmlns:xlink="http://www.w3.org/1999/xlink" width="460.8pt" height="345.6pt" viewBox="0 0 460.8 345.6" xmlns="http://www.w3.org/2000/svg" version="1.1">
 <metadata>
  <rdf:RDF xmlns:dc="http://purl.org/dc/elements/1.1/" xmlns:cc="http://creativecommons.org/ns#" xmlns:rdf="http://www.w3.org/1999/02/22-rdf-syntax-ns#">
   <cc:Work>
    <dc:type rdf:resource="http://purl.org/dc/dcmitype/StillImage"/>
    <dc:date>2024-02-07T14:34:13.434731</dc:date>
    <dc:format>image/svg+xml</dc:format>
    <dc:creator>
     <cc:Agent>
      <dc:title>Matplotlib v3.8.0, https://matplotlib.org/</dc:title>
     </cc:Agent>
    </dc:creator>
   </cc:Work>
  </rdf:RDF>
 </metadata>
 <defs>
  <style type="text/css">*{stroke-linejoin: round; stroke-linecap: butt}</style>
 </defs>
 <g id="figure_1">
  <g id="patch_1">
   <path d="M 0 345.6 
L 460.8 345.6 
L 460.8 0 
L 0 0 
z
" style="fill: #ffffff"/>
  </g>
  <g id="axes_1">
   <g id="patch_2">
    <path d="M 133.670343 89.012844 
Q 141.814732 105.89558 149.473341 121.77133 
" clip-path="url(#pd3a6efbc3f)" style="fill: none; stroke: #000000; stroke-linecap: round"/>
    <path d="M 149.536715 117.299643 
L 149.473341 121.77133 
L 145.934016 119.037619 
z
" clip-path="url(#pd3a6efbc3f)" style="stroke: #000000; stroke-linecap: round"/>
   </g>
   <g id="patch_3">
    <path d="M 132.213498 85.436969 
Q 127.40887 71.13735 122.960334 57.897542 
" clip-path="url(#pd3a6efbc3f)" style="fill: none; stroke: #000000; stroke-linecap: round"/>
    <path d="M 122.338485 62.326233 
L 122.960334 57.897542 
L 126.130178 61.052236 
z
" clip-path="url(#pd3a6efbc3f)" style="stroke: #000000; stroke-linecap: round"/>
   </g>
   <g id="patch_4">
    <path d="M 149.960511 122.781199 
Q 141.816122 105.898463 134.157513 90.022712 
" clip-path="url(#pd3a6efbc3f)" style="fill: none; stroke: #000000; stroke-linecap: round"/>
    <path d="M 134.094139 94.494399 
L 134.157513 90.022712 
L 137.696838 92.756423 
z
" clip-path="url(#pd3a6efbc3f)" style="stroke: #000000; stroke-linecap: round"/>
   </g>
   <g id="patch_5">
    <path d="M 152.516339 125.431991 
Q 183.237281 141.678378 212.969883 157.402094 
" clip-path="url(#pd3a6efbc3f)" style="fill: none; stroke: #000000; stroke-linecap: round"/>
    <path d="M 210.368875 153.764134 
L 212.969883 157.402094 
L 208.49891 157.300125 
z
" clip-path="url(#pd3a6efbc3f)" style="stroke: #000000; stroke-linecap: round"/>
   </g>
   <g id="patch_6">
    <path d="M 148.868617 124.439853 
Q 119.686543 123.149628 91.621413 121.908787 
" clip-path="url(#pd3a6efbc3f)" style="fill: none; stroke: #000000; stroke-linecap: round"/>
    <path d="M 95.529169 124.083514 
L 91.621413 121.908787 
L 95.705848 120.087418 
z
" clip-path="url(#pd3a6efbc3f)" style="stroke: #000000; stroke-linecap: round"/>
   </g>
   <g id="patch_7">
    <path d="M 119.266195 31.910284 
Q 120.512837 42.49191 121.628667 51.963181 
" clip-path="url(#pd3a6efbc3f)" style="fill: none; stroke: #000000; stroke-linecap: round"/>
    <path d="M 123.146918 47.756649 
L 121.628667 51.963181 
L 119.174392 48.22466 
z
" clip-path="url(#pd3a6efbc3f)" style="stroke: #000000; stroke-linecap: round"/>
   </g>
   <g id="patch_8">
    <path d="M 122.601723 56.830237 
Q 127.406352 71.129856 131.854887 84.369665 
" clip-path="url(#pd3a6efbc3f)" style="fill: none; stroke: #000000; stroke-linecap: round"/>
    <path d="M 132.476736 79.940974 
L 131.854887 84.369665 
L 128.685044 81.214971 
z
" clip-path="url(#pd3a6efbc3f)" style="stroke: #000000; stroke-linecap: round"/>
   </g>
   <g id="patch_9">
    <path d="M 121.76004 53.078291 
Q 120.513397 42.496665 119.397568 33.025394 
" clip-path="url(#pd3a6efbc3f)" style="fill: none; stroke: #000000; stroke-linecap: round"/>
    <path d="M 117.879316 37.231926 
L 119.397568 33.025394 
L 121.851843 36.763915 
z
" clip-path="url(#pd3a6efbc3f)" style="stroke: #000000; stroke-linecap: round"/>
   </g>
   <g id="patch_10">
    <path d="M 347.755954 188.379873 
Q 320.61781 191.332176 294.591142 194.163563 
" clip-path="url(#pd3a6efbc3f)" style="fill: none; stroke: #000000; stroke-linecap: round"/>
    <path d="M 298.78398 195.719233 
L 294.591142 194.163563 
L 298.351381 191.742695 
z
" clip-path="url(#pd3a6efbc3f)" style="stroke: #000000; stroke-linecap: round"/>
   </g>
   <g id="patch_11">
    <path d="M 351.619272 188.130794 
Q 371.93655 187.716399 391.136027 187.324803 
" clip-path="url(#pd3a6efbc3f)" style="fill: none; stroke: #000000; stroke-linecap: round"/>
    <path d="M 387.096075 185.406787 
L 391.136027 187.324803 
L 387.177643 189.405955 
z
" clip-path="url(#pd3a6efbc3f)" style="stroke: #000000; stroke-linecap: round"/>
   </g>
   <g id="patch_12">
    <path d="M 392.252685 187.302028 
Q 371.935407 187.716422 352.73593 188.108018 
" clip-path="url(#pd3a6efbc3f)" style="fill: none; stroke: #000000; stroke-linecap: round"/>
    <path d="M 356.775882 190.026035 
L 352.73593 188.108018 
L 356.694314 186.026866 
z
" clip-path="url(#pd3a6efbc3f)" style="stroke: #000000; stroke-linecap: round"/>
   </g>
   <g id="patch_13">
    <path d="M 392.484628 188.182123 
Q 380.576339 194.605207 369.652071 200.497531 
" clip-path="url(#pd3a6efbc3f)" style="fill: none; stroke: #000000; stroke-linecap: round"/>
    <path d="M 374.122057 200.358895 
L 369.652071 200.497531 
L 372.223154 196.83836 
z
" clip-path="url(#pd3a6efbc3f)" style="stroke: #000000; stroke-linecap: round"/>
   </g>
   <g id="patch_14">
    <path d="M 90.505648 121.859455 
Q 119.687721 123.14968 147.752852 124.390521 
" clip-path="url(#pd3a6efbc3f)" style="fill: none; stroke: #000000; stroke-linecap: round"/>
    <path d="M 143.845095 122.215794 
L 147.752852 124.390521 
L 143.668416 126.21189 
z
" clip-path="url(#pd3a6efbc3f)" style="stroke: #000000; stroke-linecap: round"/>
   </g>
   <g id="patch_15">
    <path d="M 86.635944 121.671189 
Q 64.277998 120.484373 43.036514 119.356822 
" clip-path="url(#pd3a6efbc3f)" style="fill: none; stroke: #000000; stroke-linecap: round"/>
    <path d="M 46.924875 121.566041 
L 43.036514 119.356822 
L 47.136907 117.571665 
z
" clip-path="url(#pd3a6efbc3f)" style="stroke: #000000; stroke-linecap: round"/>
   </g>
   <g id="patch_16">
    <path d="M 273.980245 215.254616 
Q 282.142398 205.612962 289.582168 196.824632 
" clip-path="url(#pd3a6efbc3f)" style="fill: none; stroke: #000000; stroke-linecap: round"/>
    <path d="M 285.471219 198.585341 
L 289.582168 196.824632 
L 288.524166 201.169817 
z
" clip-path="url(#pd3a6efbc3f)" style="stroke: #000000; stroke-linecap: round"/>
   </g>
   <g id="patch_17">
    <path d="M 318.325019 176.820126 
Q 305.748944 185.12301 294.1059 192.809896 
" clip-path="url(#pd3a6efbc3f)" style="fill: none; stroke: #000000; stroke-linecap: round"/>
    <path d="M 298.545943 192.275088 
L 294.1059 192.809896 
L 296.342079 188.936977 
z
" clip-path="url(#pd3a6efbc3f)" style="stroke: #000000; stroke-linecap: round"/>
   </g>
   <g id="patch_18">
    <path d="M 418.897079 208.986446 
Q 393.889374 205.596902 369.989574 202.357524 
" clip-path="url(#pd3a6efbc3f)" style="fill: none; stroke: #000000; stroke-linecap: round"/>
    <path d="M 373.684707 204.87665 
L 369.989574 202.357524 
L 374.221954 200.912894 
z
" clip-path="url(#pd3a6efbc3f)" style="stroke: #000000; stroke-linecap: round"/>
   </g>
   <g id="patch_19">
    <path d="M 213.959171 157.925267 
Q 183.238229 141.678879 153.505627 125.955163 
" clip-path="url(#pd3a6efbc3f)" style="fill: none; stroke: #000000; stroke-linecap: round"/>
    <path d="M 156.106635 129.593124 
L 153.505627 125.955163 
L 157.9766 126.057133 
z
" clip-path="url(#pd3a6efbc3f)" style="stroke: #000000; stroke-linecap: round"/>
   </g>
   <g id="patch_20">
    <path d="M 217.42662 159.655783 
Q 253.615485 176.663356 288.792491 193.195388 
" clip-path="url(#pd3a6efbc3f)" style="fill: none; stroke: #000000; stroke-linecap: round"/>
    <path d="M 286.023023 189.683971 
L 288.792491 193.195388 
L 284.321677 193.304112 
z
" clip-path="url(#pd3a6efbc3f)" style="stroke: #000000; stroke-linecap: round"/>
   </g>
   <g id="patch_21">
    <path d="M 41.923202 119.297724 
Q 64.281148 120.48454 85.522632 121.612092 
" clip-path="url(#pd3a6efbc3f)" style="fill: none; stroke: #000000; stroke-linecap: round"/>
    <path d="M 81.634272 119.402872 
L 85.522632 121.612092 
L 81.42224 123.397248 
z
" clip-path="url(#pd3a6efbc3f)" style="stroke: #000000; stroke-linecap: round"/>
   </g>
   <g id="patch_22">
    <path d="M 252.041836 304.247429 
Q 262.195747 293.474064 271.582826 283.514313 
" clip-path="url(#pd3a6efbc3f)" style="fill: none; stroke: #000000; stroke-linecap: round"/>
    <path d="M 267.383886 285.053436 
L 271.582826 283.514313 
L 270.29476 287.796939 
z
" clip-path="url(#pd3a6efbc3f)" style="stroke: #000000; stroke-linecap: round"/>
   </g>
   <g id="patch_23">
    <path d="M 245.234968 201.834331 
Q 267.438145 198.315735 288.537068 194.972134 
" clip-path="url(#pd3a6efbc3f)" style="fill: none; stroke: #000000; stroke-linecap: round"/>
    <path d="M 284.273329 193.622862 
L 288.537068 194.972134 
L 284.899407 197.573561 
z
" clip-path="url(#pd3a6efbc3f)" style="stroke: #000000; stroke-linecap: round"/>
   </g>
   <g id="patch_24">
    <path d="M 350.229973 313.728114 
Q 347.299549 301.520135 344.630086 290.399308 
" clip-path="url(#pd3a6efbc3f)" style="fill: none; stroke: #000000; stroke-linecap: round"/>
    <path d="M 343.618975 294.755643 
L 344.630086 290.399308 
L 347.508487 293.821998 
z
" clip-path="url(#pd3a6efbc3f)" style="stroke: #000000; stroke-linecap: round"/>
   </g>
   <g id="patch_25">
    <path d="M 344.36846 289.309388 
Q 347.298884 301.517367 349.968347 312.638194 
" clip-path="url(#pd3a6efbc3f)" style="fill: none; stroke: #000000; stroke-linecap: round"/>
    <path d="M 350.979458 308.281859 
L 349.968347 312.638194 
L 347.089945 309.215504 
z
" clip-path="url(#pd3a6efbc3f)" style="stroke: #000000; stroke-linecap: round"/>
   </g>
   <g id="patch_26">
    <path d="M 342.506669 286.100465 
Q 324.035627 268.716129 306.378741 252.098049 
" clip-path="url(#pd3a6efbc3f)" style="fill: none; stroke: #000000; stroke-linecap: round"/>
    <path d="M 307.920832 256.2959 
L 306.378741 252.098049 
L 310.662277 253.383087 
z
" clip-path="url(#pd3a6efbc3f)" style="stroke: #000000; stroke-linecap: round"/>
   </g>
   <g id="patch_27">
    <path d="M 345.690063 288.200928 
Q 364.008685 296.189684 381.302486 303.731515 
" clip-path="url(#pd3a6efbc3f)" style="fill: none; stroke: #000000; stroke-linecap: round"/>
    <path d="M 378.435458 300.299292 
L 381.302486 303.731515 
L 376.836492 303.965804 
z
" clip-path="url(#pd3a6efbc3f)" style="stroke: #000000; stroke-linecap: round"/>
   </g>
   <g id="patch_28">
    <path d="M 368.668896 201.027835 
Q 380.577185 194.604751 391.501453 188.712426 
" clip-path="url(#pd3a6efbc3f)" style="fill: none; stroke: #000000; stroke-linecap: round"/>
    <path d="M 387.031467 188.851063 
L 391.501453 188.712426 
L 388.93037 192.371597 
z
" clip-path="url(#pd3a6efbc3f)" style="stroke: #000000; stroke-linecap: round"/>
   </g>
   <g id="patch_29">
    <path d="M 368.880119 202.207149 
Q 393.887823 205.596692 417.787624 208.83607 
" clip-path="url(#pd3a6efbc3f)" style="fill: none; stroke: #000000; stroke-linecap: round"/>
    <path d="M 414.092491 206.316945 
L 417.787624 208.83607 
L 413.555244 210.280701 
z
" clip-path="url(#pd3a6efbc3f)" style="stroke: #000000; stroke-linecap: round"/>
   </g>
   <g id="patch_30">
    <path d="M 365.035494 201.756818 
Q 329.25741 198.220409 294.591939 194.793973 
" clip-path="url(#pd3a6efbc3f)" style="fill: none; stroke: #000000; stroke-linecap: round"/>
    <path d="M 298.375814 197.177728 
L 294.591939 194.793973 
L 298.769268 193.197126 
z
" clip-path="url(#pd3a6efbc3f)" style="stroke: #000000; stroke-linecap: round"/>
   </g>
   <g id="patch_31">
    <path d="M 286.115714 131.17398 
Q 287.08493 143.006122 287.96287 153.723962 
" clip-path="url(#pd3a6efbc3f)" style="fill: none; stroke: #000000; stroke-linecap: round"/>
    <path d="M 289.629632 149.574034 
L 287.96287 153.723962 
L 285.642984 149.900595 
z
" clip-path="url(#pd3a6efbc3f)" style="stroke: #000000; stroke-linecap: round"/>
   </g>
   <g id="patch_32">
    <path d="M 288.053786 154.833871 
Q 287.08457 143.001729 286.206631 132.283889 
" clip-path="url(#pd3a6efbc3f)" style="fill: none; stroke: #000000; stroke-linecap: round"/>
    <path d="M 284.539869 136.433817 
L 286.206631 132.283889 
L 288.526516 136.107255 
z
" clip-path="url(#pd3a6efbc3f)" style="stroke: #000000; stroke-linecap: round"/>
   </g>
   <g id="patch_33">
    <path d="M 288.383036 158.695465 
Q 289.883789 175.631078 291.285854 191.453021 
" clip-path="url(#pd3a6efbc3f)" style="fill: none; stroke: #000000; stroke-linecap: round"/>
    <path d="M 292.92497 187.292096 
L 291.285854 191.453021 
L 288.940584 187.645173 
z
" clip-path="url(#pd3a6efbc3f)" style="stroke: #000000; stroke-linecap: round"/>
   </g>
   <g id="patch_34">
    <path d="M 293.481769 194.28425 
Q 320.619913 191.331947 346.64658 188.50056 
" clip-path="url(#pd3a6efbc3f)" style="fill: none; stroke: #000000; stroke-linecap: round"/>
    <path d="M 342.453742 186.94489 
L 346.64658 188.50056 
L 342.886341 190.921428 
z
" clip-path="url(#pd3a6efbc3f)" style="stroke: #000000; stroke-linecap: round"/>
   </g>
   <g id="patch_35">
    <path d="M 290.302744 195.973441 
Q 282.140591 205.615096 274.700821 214.403426 
" clip-path="url(#pd3a6efbc3f)" style="fill: none; stroke: #000000; stroke-linecap: round"/>
    <path d="M 278.81177 212.642716 
L 274.700821 214.403426 
L 275.758823 210.058241 
z
" clip-path="url(#pd3a6efbc3f)" style="stroke: #000000; stroke-linecap: round"/>
   </g>
   <g id="patch_36">
    <path d="M 293.173626 193.425395 
Q 305.749701 185.12251 317.392745 177.435624 
" clip-path="url(#pd3a6efbc3f)" style="fill: none; stroke: #000000; stroke-linecap: round"/>
    <path d="M 312.952702 177.970432 
L 317.392745 177.435624 
L 315.156566 181.308543 
z
" clip-path="url(#pd3a6efbc3f)" style="stroke: #000000; stroke-linecap: round"/>
   </g>
   <g id="patch_37">
    <path d="M 289.802311 193.66997 
Q 253.613446 176.662397 218.43644 160.130366 
" clip-path="url(#pd3a6efbc3f)" style="fill: none; stroke: #000000; stroke-linecap: round"/>
    <path d="M 221.205907 163.641783 
L 218.43644 160.130366 
L 222.907254 160.021642 
z
" clip-path="url(#pd3a6efbc3f)" style="stroke: #000000; stroke-linecap: round"/>
   </g>
   <g id="patch_38">
    <path d="M 289.644804 194.796588 
Q 267.441627 198.315184 246.342704 201.658785 
" clip-path="url(#pd3a6efbc3f)" style="fill: none; stroke: #000000; stroke-linecap: round"/>
    <path d="M 250.606442 203.008057 
L 246.342704 201.658785 
L 249.980364 199.057358 
z
" clip-path="url(#pd3a6efbc3f)" style="stroke: #000000; stroke-linecap: round"/>
   </g>
   <g id="patch_39">
    <path d="M 293.483796 194.684441 
Q 329.26188 198.22085 363.927351 201.647286 
" clip-path="url(#pd3a6efbc3f)" style="fill: none; stroke: #000000; stroke-linecap: round"/>
    <path d="M 360.143476 199.263531 
L 363.927351 201.647286 
L 359.750022 203.244133 
z
" clip-path="url(#pd3a6efbc3f)" style="stroke: #000000; stroke-linecap: round"/>
   </g>
   <g id="patch_40">
    <path d="M 291.384315 192.56413 
Q 289.883562 175.628517 288.481497 159.806574 
" clip-path="url(#pd3a6efbc3f)" style="fill: none; stroke: #000000; stroke-linecap: round"/>
    <path d="M 286.842381 163.967499 
L 288.481497 159.806574 
L 290.826768 163.614422 
z
" clip-path="url(#pd3a6efbc3f)" style="stroke: #000000; stroke-linecap: round"/>
   </g>
   <g id="patch_41">
    <path d="M 290.237972 193.070977 
Q 283.901315 186.226825 278.324225 180.203074 
" clip-path="url(#pd3a6efbc3f)" style="fill: none; stroke: #000000; stroke-linecap: round"/>
    <path d="M 279.57416 184.496984 
L 278.324225 180.203074 
L 282.509314 181.779472 
z
" clip-path="url(#pd3a6efbc3f)" style="stroke: #000000; stroke-linecap: round"/>
   </g>
   <g id="patch_42">
    <path d="M 291.983594 196.380956 
Q 297.854015 222.247894 303.476993 247.024523 
" clip-path="url(#pd3a6efbc3f)" style="fill: none; stroke: #000000; stroke-linecap: round"/>
    <path d="M 304.54212 242.68108 
L 303.476993 247.024523 
L 300.641314 243.566355 
z
" clip-path="url(#pd3a6efbc3f)" style="stroke: #000000; stroke-linecap: round"/>
   </g>
   <g id="patch_43">
    <path d="M 277.565315 179.383384 
Q 283.901972 186.227536 289.479062 192.251287 
" clip-path="url(#pd3a6efbc3f)" style="fill: none; stroke: #000000; stroke-linecap: round"/>
    <path d="M 288.229127 187.957377 
L 289.479062 192.251287 
L 285.293973 190.674889 
z
" clip-path="url(#pd3a6efbc3f)" style="stroke: #000000; stroke-linecap: round"/>
   </g>
   <g id="patch_44">
    <path d="M 305.563088 251.330384 
Q 324.03413 268.71472 341.691016 285.332799 
" clip-path="url(#pd3a6efbc3f)" style="fill: none; stroke: #000000; stroke-linecap: round"/>
    <path d="M 340.148925 281.134948 
L 341.691016 285.332799 
L 337.407481 284.047762 
z
" clip-path="url(#pd3a6efbc3f)" style="stroke: #000000; stroke-linecap: round"/>
   </g>
   <g id="patch_45">
    <path d="M 303.72473 248.116133 
Q 297.85431 222.249195 292.231331 197.472565 
" clip-path="url(#pd3a6efbc3f)" style="fill: none; stroke: #000000; stroke-linecap: round"/>
    <path d="M 291.166204 201.816009 
L 292.231331 197.472565 
L 295.06701 200.930733 
z
" clip-path="url(#pd3a6efbc3f)" style="stroke: #000000; stroke-linecap: round"/>
   </g>
   <g id="patch_46">
    <path d="M 302.800762 251.391588 
Q 288.9158 265.646986 275.810933 279.101477 
" clip-path="url(#pd3a6efbc3f)" style="fill: none; stroke: #000000; stroke-linecap: round"/>
    <path d="M 280.034591 277.631542 
L 275.810933 279.101477 
L 277.169179 274.840589 
z
" clip-path="url(#pd3a6efbc3f)" style="stroke: #000000; stroke-linecap: round"/>
   </g>
   <g id="patch_47">
    <path d="M 272.352341 282.697852 
Q 262.19843 293.471217 252.811352 303.430969 
" clip-path="url(#pd3a6efbc3f)" style="fill: none; stroke: #000000; stroke-linecap: round"/>
    <path d="M 257.010292 301.891846 
L 252.811352 303.430969 
L 254.099417 299.148342 
z
" clip-path="url(#pd3a6efbc3f)" style="stroke: #000000; stroke-linecap: round"/>
   </g>
   <g id="patch_48">
    <path d="M 275.030405 279.902828 
Q 288.915367 265.64743 302.020235 252.192938 
" clip-path="url(#pd3a6efbc3f)" style="fill: none; stroke: #000000; stroke-linecap: round"/>
    <path d="M 297.796576 253.662874 
L 302.020235 252.192938 
L 300.661988 256.453827 
z
" clip-path="url(#pd3a6efbc3f)" style="stroke: #000000; stroke-linecap: round"/>
   </g>
   <g id="patch_49">
    <path d="M 382.328766 304.179076 
Q 364.010144 296.19032 346.716343 288.648489 
" clip-path="url(#pd3a6efbc3f)" style="fill: none; stroke: #000000; stroke-linecap: round"/>
    <path d="M 349.583371 292.080711 
L 346.716343 288.648489 
L 351.182338 288.4142 
z
" clip-path="url(#pd3a6efbc3f)" style="stroke: #000000; stroke-linecap: round"/>
   </g>
   <g id="PathCollection_1">
    <defs>
     <path id="C0_0_8d2453d671" d="M 0 1.936492 
C 0.513564 1.936492 1.006162 1.732451 1.369306 1.369306 
C 1.732451 1.006162 1.936492 0.513564 1.936492 -0 
C 1.936492 -0.513564 1.732451 -1.006162 1.369306 -1.369306 
C 1.006162 -1.732451 0.513564 -1.936492 0 -1.936492 
C -0.513564 -1.936492 -1.006162 -1.732451 -1.369306 -1.369306 
C -1.732451 -1.006162 -1.936492 -0.513564 -1.936492 0 
C -1.936492 0.513564 -1.732451 1.006162 -1.369306 1.369306 
C -1.006162 1.732451 -0.513564 1.936492 0 1.936492 
z
"/>
    </defs>
    <g clip-path="url(#pd3a6efbc3f)">
     <use xlink:href="#C0_0_8d2453d671" x="132.828959" y="87.268714" style="fill: #ff0000; stroke: #ff0000"/>
    </g>
    <g clip-path="url(#pd3a6efbc3f)">
     <use xlink:href="#C0_0_8d2453d671" x="150.801895" y="124.525328" style="stroke: #000000"/>
    </g>
    <g clip-path="url(#pd3a6efbc3f)">
     <use xlink:href="#C0_0_8d2453d671" x="119.039972" y="29.990083" style="stroke: #000000"/>
    </g>
    <g clip-path="url(#pd3a6efbc3f)">
     <use xlink:href="#C0_0_8d2453d671" x="121.986263" y="54.998493" style="fill: #ff0000; stroke: #ff0000"/>
    </g>
    <g clip-path="url(#pd3a6efbc3f)">
     <use xlink:href="#C0_0_8d2453d671" x="349.682407" y="188.170298" style="fill: #ff0000; stroke: #ff0000"/>
    </g>
    <g clip-path="url(#pd3a6efbc3f)">
     <use xlink:href="#C0_0_8d2453d671" x="394.18955" y="187.262523" style="stroke: #000000"/>
    </g>
    <g clip-path="url(#pd3a6efbc3f)">
     <use xlink:href="#C0_0_8d2453d671" x="88.57237" y="121.77398" style="stroke: #000000"/>
    </g>
    <g clip-path="url(#pd3a6efbc3f)">
     <use xlink:href="#C0_0_8d2453d671" x="272.727673" y="216.734233" style="fill: #ff0000; stroke: #ff0000"/>
    </g>
    <g clip-path="url(#pd3a6efbc3f)">
     <use xlink:href="#C0_0_8d2453d671" x="319.943329" y="175.751696" style="fill: #ff0000; stroke: #ff0000"/>
    </g>
    <g clip-path="url(#pd3a6efbc3f)">
     <use xlink:href="#C0_0_8d2453d671" x="420.813223" y="209.24616" style="stroke: #000000"/>
    </g>
    <g clip-path="url(#pd3a6efbc3f)">
     <use xlink:href="#C0_0_8d2453d671" x="215.673615" y="158.831929" style="fill: #ff0000; stroke: #ff0000"/>
    </g>
    <g clip-path="url(#pd3a6efbc3f)">
     <use xlink:href="#C0_0_8d2453d671" x="39.986777" y="119.194934" style="fill: #ff0000; stroke: #ff0000"/>
    </g>
    <g clip-path="url(#pd3a6efbc3f)">
     <use xlink:href="#C0_0_8d2453d671" x="250.716019" y="305.65413" style="stroke: #000000"/>
    </g>
    <g clip-path="url(#pd3a6efbc3f)">
     <use xlink:href="#C0_0_8d2453d671" x="243.324456" y="202.137095" style="fill: #ff0000; stroke: #ff0000"/>
    </g>
    <g clip-path="url(#pd3a6efbc3f)">
     <use xlink:href="#C0_0_8d2453d671" x="350.681685" y="315.609917" style="fill: #ff0000; stroke: #ff0000"/>
    </g>
    <g clip-path="url(#pd3a6efbc3f)">
     <use xlink:href="#C0_0_8d2453d671" x="343.916748" y="287.427585" style="fill: #ff0000; stroke: #ff0000"/>
    </g>
    <g clip-path="url(#pd3a6efbc3f)">
     <use xlink:href="#C0_0_8d2453d671" x="366.963974" y="201.947435" style="stroke: #000000"/>
    </g>
    <g clip-path="url(#pd3a6efbc3f)">
     <use xlink:href="#C0_0_8d2453d671" x="285.957464" y="129.24208" style="stroke: #000000"/>
    </g>
    <g clip-path="url(#pd3a6efbc3f)">
     <use xlink:href="#C0_0_8d2453d671" x="288.212036" y="156.765771" style="fill: #ff0000; stroke: #ff0000"/>
    </g>
    <g clip-path="url(#pd3a6efbc3f)">
     <use xlink:href="#C0_0_8d2453d671" x="291.555316" y="194.493824" style="fill: #ff0000; stroke: #ff0000"/>
    </g>
    <g clip-path="url(#pd3a6efbc3f)">
     <use xlink:href="#C0_0_8d2453d671" x="276.247971" y="177.960536" style="fill: #ff0000; stroke: #ff0000"/>
    </g>
    <g clip-path="url(#pd3a6efbc3f)">
     <use xlink:href="#C0_0_8d2453d671" x="304.153009" y="250.003264" style="fill: #ff0000; stroke: #ff0000"/>
    </g>
    <g clip-path="url(#pd3a6efbc3f)">
     <use xlink:href="#C0_0_8d2453d671" x="273.678158" y="281.291152" style="stroke: #000000"/>
    </g>
    <g clip-path="url(#pd3a6efbc3f)">
     <use xlink:href="#C0_0_8d2453d671" x="384.102082" y="304.952419" style="fill: #ff0000; stroke: #ff0000"/>
    </g>
   </g>
   <g id="text_1">
    <g clip-path="url(#pd3a6efbc3f)">
     <!-- 0 -->
     <g transform="translate(129.647709 90.028089) scale(0.1 -0.1)">
      <defs>
       <path id="DejaVuSans-30" d="M 2034 4250 
Q 1547 4250 1301 3770 
Q 1056 3291 1056 2328 
Q 1056 1369 1301 889 
Q 1547 409 2034 409 
Q 2525 409 2770 889 
Q 3016 1369 3016 2328 
Q 3016 3291 2770 3770 
Q 2525 4250 2034 4250 
z
M 2034 4750 
Q 2819 4750 3233 4129 
Q 3647 3509 3647 2328 
Q 3647 1150 3233 529 
Q 2819 -91 2034 -91 
Q 1250 -91 836 529 
Q 422 1150 422 2328 
Q 422 3509 836 4129 
Q 1250 4750 2034 4750 
z
" transform="scale(0.015625)"/>
      </defs>
      <use xlink:href="#DejaVuSans-30"/>
     </g>
    </g>
   </g>
   <g id="text_2">
    <g clip-path="url(#pd3a6efbc3f)">
     <!-- 1 -->
     <g transform="translate(147.620645 127.284703) scale(0.1 -0.1)">
      <defs>
       <path id="DejaVuSans-31" d="M 794 531 
L 1825 531 
L 1825 4091 
L 703 3866 
L 703 4441 
L 1819 4666 
L 2450 4666 
L 2450 531 
L 3481 531 
L 3481 0 
L 794 0 
L 794 531 
z
" transform="scale(0.015625)"/>
      </defs>
      <use xlink:href="#DejaVuSans-31"/>
     </g>
    </g>
   </g>
   <g id="text_3">
    <g clip-path="url(#pd3a6efbc3f)">
     <!-- 2 -->
     <g transform="translate(115.858722 32.749458) scale(0.1 -0.1)">
      <defs>
       <path id="DejaVuSans-32" d="M 1228 531 
L 3431 531 
L 3431 0 
L 469 0 
L 469 531 
Q 828 903 1448 1529 
Q 2069 2156 2228 2338 
Q 2531 2678 2651 2914 
Q 2772 3150 2772 3378 
Q 2772 3750 2511 3984 
Q 2250 4219 1831 4219 
Q 1534 4219 1204 4116 
Q 875 4013 500 3803 
L 500 4441 
Q 881 4594 1212 4672 
Q 1544 4750 1819 4750 
Q 2544 4750 2975 4387 
Q 3406 4025 3406 3419 
Q 3406 3131 3298 2873 
Q 3191 2616 2906 2266 
Q 2828 2175 2409 1742 
Q 1991 1309 1228 531 
z
" transform="scale(0.015625)"/>
      </defs>
      <use xlink:href="#DejaVuSans-32"/>
     </g>
    </g>
   </g>
   <g id="text_4">
    <g clip-path="url(#pd3a6efbc3f)">
     <!-- 3 -->
     <g transform="translate(118.805013 57.757868) scale(0.1 -0.1)">
      <defs>
       <path id="DejaVuSans-33" d="M 2597 2516 
Q 3050 2419 3304 2112 
Q 3559 1806 3559 1356 
Q 3559 666 3084 287 
Q 2609 -91 1734 -91 
Q 1441 -91 1130 -33 
Q 819 25 488 141 
L 488 750 
Q 750 597 1062 519 
Q 1375 441 1716 441 
Q 2309 441 2620 675 
Q 2931 909 2931 1356 
Q 2931 1769 2642 2001 
Q 2353 2234 1838 2234 
L 1294 2234 
L 1294 2753 
L 1863 2753 
Q 2328 2753 2575 2939 
Q 2822 3125 2822 3475 
Q 2822 3834 2567 4026 
Q 2313 4219 1838 4219 
Q 1578 4219 1281 4162 
Q 984 4106 628 3988 
L 628 4550 
Q 988 4650 1302 4700 
Q 1616 4750 1894 4750 
Q 2613 4750 3031 4423 
Q 3450 4097 3450 3541 
Q 3450 3153 3228 2886 
Q 3006 2619 2597 2516 
z
" transform="scale(0.015625)"/>
      </defs>
      <use xlink:href="#DejaVuSans-33"/>
     </g>
    </g>
   </g>
   <g id="text_5">
    <g clip-path="url(#pd3a6efbc3f)">
     <!-- 4 -->
     <g transform="translate(346.501157 190.929673) scale(0.1 -0.1)">
      <defs>
       <path id="DejaVuSans-34" d="M 2419 4116 
L 825 1625 
L 2419 1625 
L 2419 4116 
z
M 2253 4666 
L 3047 4666 
L 3047 1625 
L 3713 1625 
L 3713 1100 
L 3047 1100 
L 3047 0 
L 2419 0 
L 2419 1100 
L 313 1100 
L 313 1709 
L 2253 4666 
z
" transform="scale(0.015625)"/>
      </defs>
      <use xlink:href="#DejaVuSans-34"/>
     </g>
    </g>
   </g>
   <g id="text_6">
    <g clip-path="url(#pd3a6efbc3f)">
     <!-- 5 -->
     <g transform="translate(391.0083 190.021898) scale(0.1 -0.1)">
      <defs>
       <path id="DejaVuSans-35" d="M 691 4666 
L 3169 4666 
L 3169 4134 
L 1269 4134 
L 1269 2991 
Q 1406 3038 1543 3061 
Q 1681 3084 1819 3084 
Q 2600 3084 3056 2656 
Q 3513 2228 3513 1497 
Q 3513 744 3044 326 
Q 2575 -91 1722 -91 
Q 1428 -91 1123 -41 
Q 819 9 494 109 
L 494 744 
Q 775 591 1075 516 
Q 1375 441 1709 441 
Q 2250 441 2565 725 
Q 2881 1009 2881 1497 
Q 2881 1984 2565 2268 
Q 2250 2553 1709 2553 
Q 1456 2553 1204 2497 
Q 953 2441 691 2322 
L 691 4666 
z
" transform="scale(0.015625)"/>
      </defs>
      <use xlink:href="#DejaVuSans-35"/>
     </g>
    </g>
   </g>
   <g id="text_7">
    <g clip-path="url(#pd3a6efbc3f)">
     <!-- 6 -->
     <g transform="translate(85.39112 124.533355) scale(0.1 -0.1)">
      <defs>
       <path id="DejaVuSans-36" d="M 2113 2584 
Q 1688 2584 1439 2293 
Q 1191 2003 1191 1497 
Q 1191 994 1439 701 
Q 1688 409 2113 409 
Q 2538 409 2786 701 
Q 3034 994 3034 1497 
Q 3034 2003 2786 2293 
Q 2538 2584 2113 2584 
z
M 3366 4563 
L 3366 3988 
Q 3128 4100 2886 4159 
Q 2644 4219 2406 4219 
Q 1781 4219 1451 3797 
Q 1122 3375 1075 2522 
Q 1259 2794 1537 2939 
Q 1816 3084 2150 3084 
Q 2853 3084 3261 2657 
Q 3669 2231 3669 1497 
Q 3669 778 3244 343 
Q 2819 -91 2113 -91 
Q 1303 -91 875 529 
Q 447 1150 447 2328 
Q 447 3434 972 4092 
Q 1497 4750 2381 4750 
Q 2619 4750 2861 4703 
Q 3103 4656 3366 4563 
z
" transform="scale(0.015625)"/>
      </defs>
      <use xlink:href="#DejaVuSans-36"/>
     </g>
    </g>
   </g>
   <g id="text_8">
    <g clip-path="url(#pd3a6efbc3f)">
     <!-- 7 -->
     <g transform="translate(269.546423 219.493608) scale(0.1 -0.1)">
      <defs>
       <path id="DejaVuSans-37" d="M 525 4666 
L 3525 4666 
L 3525 4397 
L 1831 0 
L 1172 0 
L 2766 4134 
L 525 4134 
L 525 4666 
z
" transform="scale(0.015625)"/>
      </defs>
      <use xlink:href="#DejaVuSans-37"/>
     </g>
    </g>
   </g>
   <g id="text_9">
    <g clip-path="url(#pd3a6efbc3f)">
     <!-- 8 -->
     <g transform="translate(316.762079 178.511071) scale(0.1 -0.1)">
      <defs>
       <path id="DejaVuSans-38" d="M 2034 2216 
Q 1584 2216 1326 1975 
Q 1069 1734 1069 1313 
Q 1069 891 1326 650 
Q 1584 409 2034 409 
Q 2484 409 2743 651 
Q 3003 894 3003 1313 
Q 3003 1734 2745 1975 
Q 2488 2216 2034 2216 
z
M 1403 2484 
Q 997 2584 770 2862 
Q 544 3141 544 3541 
Q 544 4100 942 4425 
Q 1341 4750 2034 4750 
Q 2731 4750 3128 4425 
Q 3525 4100 3525 3541 
Q 3525 3141 3298 2862 
Q 3072 2584 2669 2484 
Q 3125 2378 3379 2068 
Q 3634 1759 3634 1313 
Q 3634 634 3220 271 
Q 2806 -91 2034 -91 
Q 1263 -91 848 271 
Q 434 634 434 1313 
Q 434 1759 690 2068 
Q 947 2378 1403 2484 
z
M 1172 3481 
Q 1172 3119 1398 2916 
Q 1625 2713 2034 2713 
Q 2441 2713 2670 2916 
Q 2900 3119 2900 3481 
Q 2900 3844 2670 4047 
Q 2441 4250 2034 4250 
Q 1625 4250 1398 4047 
Q 1172 3844 1172 3481 
z
" transform="scale(0.015625)"/>
      </defs>
      <use xlink:href="#DejaVuSans-38"/>
     </g>
    </g>
   </g>
   <g id="text_10">
    <g clip-path="url(#pd3a6efbc3f)">
     <!-- 9 -->
     <g transform="translate(417.631973 212.005535) scale(0.1 -0.1)">
      <defs>
       <path id="DejaVuSans-39" d="M 703 97 
L 703 672 
Q 941 559 1184 500 
Q 1428 441 1663 441 
Q 2288 441 2617 861 
Q 2947 1281 2994 2138 
Q 2813 1869 2534 1725 
Q 2256 1581 1919 1581 
Q 1219 1581 811 2004 
Q 403 2428 403 3163 
Q 403 3881 828 4315 
Q 1253 4750 1959 4750 
Q 2769 4750 3195 4129 
Q 3622 3509 3622 2328 
Q 3622 1225 3098 567 
Q 2575 -91 1691 -91 
Q 1453 -91 1209 -44 
Q 966 3 703 97 
z
M 1959 2075 
Q 2384 2075 2632 2365 
Q 2881 2656 2881 3163 
Q 2881 3666 2632 3958 
Q 2384 4250 1959 4250 
Q 1534 4250 1286 3958 
Q 1038 3666 1038 3163 
Q 1038 2656 1286 2365 
Q 1534 2075 1959 2075 
z
" transform="scale(0.015625)"/>
      </defs>
      <use xlink:href="#DejaVuSans-39"/>
     </g>
    </g>
   </g>
   <g id="text_11">
    <g clip-path="url(#pd3a6efbc3f)">
     <!-- 10 -->
     <g transform="translate(209.311115 161.591304) scale(0.1 -0.1)">
      <use xlink:href="#DejaVuSans-31"/>
      <use xlink:href="#DejaVuSans-30" x="63.623047"/>
     </g>
    </g>
   </g>
   <g id="text_12">
    <g clip-path="url(#pd3a6efbc3f)">
     <!-- 11 -->
     <g transform="translate(33.624277 121.954309) scale(0.1 -0.1)">
      <use xlink:href="#DejaVuSans-31"/>
      <use xlink:href="#DejaVuSans-31" x="63.623047"/>
     </g>
    </g>
   </g>
   <g id="text_13">
    <g clip-path="url(#pd3a6efbc3f)">
     <!-- 12 -->
     <g transform="translate(244.353519 308.413505) scale(0.1 -0.1)">
      <use xlink:href="#DejaVuSans-31"/>
      <use xlink:href="#DejaVuSans-32" x="63.623047"/>
     </g>
    </g>
   </g>
   <g id="text_14">
    <g clip-path="url(#pd3a6efbc3f)">
     <!-- 13 -->
     <g transform="translate(236.961956 204.89647) scale(0.1 -0.1)">
      <use xlink:href="#DejaVuSans-31"/>
      <use xlink:href="#DejaVuSans-33" x="63.623047"/>
     </g>
    </g>
   </g>
   <g id="text_15">
    <g clip-path="url(#pd3a6efbc3f)">
     <!-- 14 -->
     <g transform="translate(344.319185 318.369292) scale(0.1 -0.1)">
      <use xlink:href="#DejaVuSans-31"/>
      <use xlink:href="#DejaVuSans-34" x="63.623047"/>
     </g>
    </g>
   </g>
   <g id="text_16">
    <g clip-path="url(#pd3a6efbc3f)">
     <!-- 15 -->
     <g transform="translate(337.554248 290.18696) scale(0.1 -0.1)">
      <use xlink:href="#DejaVuSans-31"/>
      <use xlink:href="#DejaVuSans-35" x="63.623047"/>
     </g>
    </g>
   </g>
   <g id="text_17">
    <g clip-path="url(#pd3a6efbc3f)">
     <!-- 16 -->
     <g transform="translate(360.601474 204.70681) scale(0.1 -0.1)">
      <use xlink:href="#DejaVuSans-31"/>
      <use xlink:href="#DejaVuSans-36" x="63.623047"/>
     </g>
    </g>
   </g>
   <g id="text_18">
    <g clip-path="url(#pd3a6efbc3f)">
     <!-- 17 -->
     <g transform="translate(279.594964 132.001455) scale(0.1 -0.1)">
      <use xlink:href="#DejaVuSans-31"/>
      <use xlink:href="#DejaVuSans-37" x="63.623047"/>
     </g>
    </g>
   </g>
   <g id="text_19">
    <g clip-path="url(#pd3a6efbc3f)">
     <!-- 18 -->
     <g transform="translate(281.849536 159.525146) scale(0.1 -0.1)">
      <use xlink:href="#DejaVuSans-31"/>
      <use xlink:href="#DejaVuSans-38" x="63.623047"/>
     </g>
    </g>
   </g>
   <g id="text_20">
    <g clip-path="url(#pd3a6efbc3f)">
     <!-- 19 -->
     <g transform="translate(285.192816 197.253199) scale(0.1 -0.1)">
      <use xlink:href="#DejaVuSans-31"/>
      <use xlink:href="#DejaVuSans-39" x="63.623047"/>
     </g>
    </g>
   </g>
   <g id="text_21">
    <g clip-path="url(#pd3a6efbc3f)">
     <!-- 20 -->
     <g transform="translate(269.885471 180.719911) scale(0.1 -0.1)">
      <use xlink:href="#DejaVuSans-32"/>
      <use xlink:href="#DejaVuSans-30" x="63.623047"/>
     </g>
    </g>
   </g>
   <g id="text_22">
    <g clip-path="url(#pd3a6efbc3f)">
     <!-- 21 -->
     <g transform="translate(297.790509 252.762639) scale(0.1 -0.1)">
      <use xlink:href="#DejaVuSans-32"/>
      <use xlink:href="#DejaVuSans-31" x="63.623047"/>
     </g>
    </g>
   </g>
   <g id="text_23">
    <g clip-path="url(#pd3a6efbc3f)">
     <!-- 22 -->
     <g transform="translate(267.315658 284.050527) scale(0.1 -0.1)">
      <use xlink:href="#DejaVuSans-32"/>
      <use xlink:href="#DejaVuSans-32" x="63.623047"/>
     </g>
    </g>
   </g>
   <g id="text_24">
    <g clip-path="url(#pd3a6efbc3f)">
     <!-- 23 -->
     <g transform="translate(377.739582 307.711794) scale(0.1 -0.1)">
      <use xlink:href="#DejaVuSans-32"/>
      <use xlink:href="#DejaVuSans-33" x="63.623047"/>
     </g>
    </g>
   </g>
  </g>
 </g>
 <defs>
  <clipPath id="pd3a6efbc3f">
   <rect x="0" y="0" width="460.8" height="345.6"/>
  </clipPath>
 </defs>
</svg>
