<?xml version="1.0" encoding="utf-8" standalone="no"?>
<!DOCTYPE svg PUBLIC "-//W3C//DTD SVG 1.1//EN"
  "http://www.w3.org/Graphics/SVG/1.1/DTD/svg11.dtd">
<svg xmlns:xlink="http://www.w3.org/1999/xlink" width="460.8pt" height="345.6pt" viewBox="0 0 460.8 345.6" xmlns="http://www.w3.org/2000/svg" version="1.1">
 <metadata>
  <rdf:RDF xmlns:dc="http://purl.org/dc/elements/1.1/" xmlns:cc="http://creativecommons.org/ns#" xmlns:rdf="http://www.w3.org/1999/02/22-rdf-syntax-ns#">
   <cc:Work>
    <dc:type rdf:resource="http://purl.org/dc/dcmitype/StillImage"/>
    <dc:date>2024-02-07T14:34:13.856360</dc:date>
    <dc:format>image/svg+xml</dc:format>
    <dc:creator>
     <cc:Agent>
      <dc:title>Matplotlib v3.8.0, https://matplotlib.org/</dc:title>
     </cc:Agent>
    </dc:creator>
   </cc:Work>
  </rdf:RDF>
 </metadata>
 <defs>
  <style type="text/css">*{stroke-linejoin: round; stroke-linecap: butt}</style>
 </defs>
 <g id="figure_1">
  <g id="patch_1">
   <path d="M 0 345.6 
L 460.8 345.6 
L 460.8 0 
L 0 0 
z
" style="fill: #ffffff"/>
  </g>
  <g id="axes_1">
   <g id="patch_2">
    <path d="M 366.090147 172.307397 
Q 332.70451 165.479169 300.414232 158.874971 
" clip-path="url(#p577b9eb71c)" style="fill: none; stroke: #000000; stroke-linecap: round"/>
    <path d="M 303.932351 161.63592 
L 300.414232 158.874971 
L 304.733863 157.717045 
z
" clip-path="url(#p577b9eb71c)" style="stroke: #000000; stroke-linecap: round"/>
   </g>
   <g id="patch_3">
    <path d="M 369.830587 173.294377 
Q 394.402388 181.282549 417.91093 188.925062 
" clip-path="url(#p577b9eb71c)" style="fill: none; stroke: #000000; stroke-linecap: round"/>
    <path d="M 414.725236 185.786375 
L 417.91093 188.925062 
L 413.488564 189.590405 
z
" clip-path="url(#p577b9eb71c)" style="stroke: #000000; stroke-linecap: round"/>
   </g>
   <g id="patch_4">
    <path d="M 299.319706 158.651112 
Q 332.705342 165.479339 364.99562 172.083538 
" clip-path="url(#p577b9eb71c)" style="fill: none; stroke: #000000; stroke-linecap: round"/>
    <path d="M 361.477501 169.322589 
L 364.99562 172.083538 
L 360.675989 173.241464 
z
" clip-path="url(#p577b9eb71c)" style="stroke: #000000; stroke-linecap: round"/>
   </g>
   <g id="patch_5">
    <path d="M 295.629776 157.531454 
Q 256.848695 141.694421 219.102667 126.280073 
" clip-path="url(#p577b9eb71c)" style="fill: none; stroke: #000000; stroke-linecap: round"/>
    <path d="M 222.049667 129.643878 
L 219.102667 126.280073 
L 223.561912 125.940756 
z
" clip-path="url(#p577b9eb71c)" style="stroke: #000000; stroke-linecap: round"/>
   </g>
   <g id="patch_6">
    <path d="M 298.326417 159.976434 
Q 308.92987 180.029958 319.010714 199.09511 
" clip-path="url(#p577b9eb71c)" style="fill: none; stroke: #000000; stroke-linecap: round"/>
    <path d="M 318.909024 194.62413 
L 319.010714 199.09511 
L 315.372916 196.493874 
z
" clip-path="url(#p577b9eb71c)" style="stroke: #000000; stroke-linecap: round"/>
   </g>
   <g id="patch_7">
    <path d="M 418.972264 189.270096 
Q 394.400463 181.281924 370.891921 173.639411 
" clip-path="url(#p577b9eb71c)" style="fill: none; stroke: #000000; stroke-linecap: round"/>
    <path d="M 374.077615 176.778098 
L 370.891921 173.639411 
L 375.314287 172.974068 
z
" clip-path="url(#p577b9eb71c)" style="stroke: #000000; stroke-linecap: round"/>
   </g>
   <g id="patch_8">
    <path d="M 103.997539 115.239268 
Q 113.915163 104.797937 123.062808 95.167244 
" clip-path="url(#p577b9eb71c)" style="fill: none; stroke: #000000; stroke-linecap: round"/>
    <path d="M 118.857937 96.69009 
L 123.062808 95.167244 
L 121.758162 99.444848 
z
" clip-path="url(#p577b9eb71c)" style="stroke: #000000; stroke-linecap: round"/>
   </g>
   <g id="patch_9">
    <path d="M 103.997539 115.239268 
Q 113.915163 104.797937 123.062808 95.167244 
" clip-path="url(#p577b9eb71c)" style="fill: none; stroke: #000000; stroke-linecap: round"/>
    <path d="M 118.857937 96.69009 
L 123.062808 95.167244 
L 121.758162 99.444848 
z
" clip-path="url(#p577b9eb71c)" style="stroke: #000000; stroke-linecap: round"/>
   </g>
   <g id="patch_10">
    <path d="M 143.114966 34.363358 
Q 134.425088 62.732283 126.062665 90.032202 
" clip-path="url(#p577b9eb71c)" style="fill: none; stroke: #000000; stroke-linecap: round"/>
    <path d="M 129.146497 86.793379 
L 126.062665 90.032202 
L 125.321905 85.621842 
z
" clip-path="url(#p577b9eb71c)" style="stroke: #000000; stroke-linecap: round"/>
   </g>
   <g id="patch_11">
    <path d="M 74.253178 55.224208 
Q 98.932583 73.510263 122.71367 91.130715 
" clip-path="url(#p577b9eb71c)" style="fill: none; stroke: #000000; stroke-linecap: round"/>
    <path d="M 120.690419 87.142425 
L 122.71367 91.130715 
L 118.309088 90.356341 
z
" clip-path="url(#p577b9eb71c)" style="stroke: #000000; stroke-linecap: round"/>
   </g>
   <g id="patch_12">
    <path d="M 218.063526 125.855718 
Q 256.844607 141.692751 294.590635 157.107099 
" clip-path="url(#p577b9eb71c)" style="fill: none; stroke: #000000; stroke-linecap: round"/>
    <path d="M 291.643635 153.743294 
L 294.590635 157.107099 
L 290.13139 157.446416 
z
" clip-path="url(#p577b9eb71c)" style="stroke: #000000; stroke-linecap: round"/>
   </g>
   <g id="patch_13">
    <path d="M 214.446435 124.47945 
Q 170.721758 109.037504 128.051303 93.967869 
" clip-path="url(#p577b9eb71c)" style="fill: none; stroke: #000000; stroke-linecap: round"/>
    <path d="M 131.156989 97.185743 
L 128.051303 93.967869 
L 132.489014 93.414045 
z
" clip-path="url(#p577b9eb71c)" style="stroke: #000000; stroke-linecap: round"/>
   </g>
   <g id="patch_14">
    <path d="M 319.532739 200.082378 
Q 308.929286 180.028854 298.848442 160.963702 
" clip-path="url(#p577b9eb71c)" style="fill: none; stroke: #000000; stroke-linecap: round"/>
    <path d="M 298.950132 165.434682 
L 298.848442 160.963702 
L 302.48624 163.564938 
z
" clip-path="url(#p577b9eb71c)" style="stroke: #000000; stroke-linecap: round"/>
   </g>
   <g id="patch_15">
    <path d="M 62.569041 93.490895 
Q 92.900409 93.228776 122.113785 92.976319 
" clip-path="url(#p577b9eb71c)" style="fill: none; stroke: #000000; stroke-linecap: round"/>
    <path d="M 118.096652 91.01096 
L 122.113785 92.976319 
L 118.131218 95.010811 
z
" clip-path="url(#p577b9eb71c)" style="stroke: #000000; stroke-linecap: round"/>
   </g>
   <g id="patch_16">
    <path d="M 41.317022 300.226858 
Q 59.342705 281.140617 76.600725 262.867206 
" clip-path="url(#p577b9eb71c)" style="fill: none; stroke: #000000; stroke-linecap: round"/>
    <path d="M 72.400213 264.402036 
L 76.600725 262.867206 
L 75.308282 267.148513 
z
" clip-path="url(#p577b9eb71c)" style="stroke: #000000; stroke-linecap: round"/>
   </g>
   <g id="patch_17">
    <path d="M 77.368309 262.05446 
Q 59.342626 281.140701 42.084606 299.414112 
" clip-path="url(#p577b9eb71c)" style="fill: none; stroke: #000000; stroke-linecap: round"/>
    <path d="M 46.285118 297.879282 
L 42.084606 299.414112 
L 43.377049 295.132804 
z
" clip-path="url(#p577b9eb71c)" style="stroke: #000000; stroke-linecap: round"/>
   </g>
   <g id="patch_18">
    <path d="M 79.165422 258.764786 
Q 88.530076 221.03159 97.625425 184.383508 
" clip-path="url(#p577b9eb71c)" style="fill: none; stroke: #000000; stroke-linecap: round"/>
    <path d="M 94.720819 187.783987 
L 97.625425 184.383508 
L 98.603045 188.747481 
z
" clip-path="url(#p577b9eb71c)" style="stroke: #000000; stroke-linecap: round"/>
   </g>
   <g id="patch_19">
    <path d="M 79.120913 262.534664 
Q 84.844151 288.127989 90.323398 312.630228 
" clip-path="url(#p577b9eb71c)" style="fill: none; stroke: #000000; stroke-linecap: round"/>
    <path d="M 91.402262 308.290176 
L 90.323398 312.630228 
L 87.498675 309.163106 
z
" clip-path="url(#p577b9eb71c)" style="stroke: #000000; stroke-linecap: round"/>
   </g>
   <g id="patch_20">
    <path d="M 170.663137 64.288951 
Q 148.736557 78.102508 127.75594 91.320117 
" clip-path="url(#p577b9eb71c)" style="fill: none; stroke: #000000; stroke-linecap: round"/>
    <path d="M 132.206384 90.880177 
L 127.75594 91.320117 
L 130.074254 87.495797 
z
" clip-path="url(#p577b9eb71c)" style="stroke: #000000; stroke-linecap: round"/>
   </g>
   <g id="patch_21">
    <path d="M 123.836609 94.352582 
Q 113.918985 104.793913 104.77134 114.424606 
" clip-path="url(#p577b9eb71c)" style="fill: none; stroke: #000000; stroke-linecap: round"/>
    <path d="M 108.976211 112.90176 
L 104.77134 114.424606 
L 106.075985 110.147002 
z
" clip-path="url(#p577b9eb71c)" style="stroke: #000000; stroke-linecap: round"/>
   </g>
   <g id="patch_22">
    <path d="M 123.836609 94.352582 
Q 113.918985 104.793913 104.77134 114.424606 
" clip-path="url(#p577b9eb71c)" style="fill: none; stroke: #000000; stroke-linecap: round"/>
    <path d="M 108.976211 112.90176 
L 104.77134 114.424606 
L 106.075985 110.147002 
z
" clip-path="url(#p577b9eb71c)" style="stroke: #000000; stroke-linecap: round"/>
   </g>
   <g id="patch_23">
    <path d="M 125.734995 91.101912 
Q 134.424872 62.732987 142.787296 35.433068 
" clip-path="url(#p577b9eb71c)" style="fill: none; stroke: #000000; stroke-linecap: round"/>
    <path d="M 139.703463 38.671891 
L 142.787296 35.433068 
L 143.528055 39.843428 
z
" clip-path="url(#p577b9eb71c)" style="stroke: #000000; stroke-linecap: round"/>
   </g>
   <g id="patch_24">
    <path d="M 123.615732 91.799092 
Q 98.936328 73.513038 75.15524 55.892586 
" clip-path="url(#p577b9eb71c)" style="fill: none; stroke: #000000; stroke-linecap: round"/>
    <path d="M 77.178491 59.880876 
L 75.15524 55.892586 
L 79.559823 56.666959 
z
" clip-path="url(#p577b9eb71c)" style="stroke: #000000; stroke-linecap: round"/>
   </g>
   <g id="patch_25">
    <path d="M 126.995562 93.59502 
Q 170.720239 109.036967 213.390694 124.106601 
" clip-path="url(#p577b9eb71c)" style="fill: none; stroke: #000000; stroke-linecap: round"/>
    <path d="M 210.285008 120.888727 
L 213.390694 124.106601 
L 208.952983 124.660426 
z
" clip-path="url(#p577b9eb71c)" style="stroke: #000000; stroke-linecap: round"/>
   </g>
   <g id="patch_26">
    <path d="M 123.234952 92.96663 
Q 92.903584 93.228749 63.690208 93.481206 
" clip-path="url(#p577b9eb71c)" style="fill: none; stroke: #000000; stroke-linecap: round"/>
    <path d="M 67.707342 95.446565 
L 63.690208 93.481206 
L 67.672776 91.446714 
z
" clip-path="url(#p577b9eb71c)" style="stroke: #000000; stroke-linecap: round"/>
   </g>
   <g id="patch_27">
    <path d="M 126.805733 91.918739 
Q 148.732314 78.105182 169.712931 64.887573 
" clip-path="url(#p577b9eb71c)" style="fill: none; stroke: #000000; stroke-linecap: round"/>
    <path d="M 165.262487 65.327513 
L 169.712931 64.887573 
L 167.394617 68.711892 
z
" clip-path="url(#p577b9eb71c)" style="stroke: #000000; stroke-linecap: round"/>
   </g>
   <g id="patch_28">
    <path d="M 124.536769 91.116919 
Q 114.312166 61.469433 104.452074 32.878892 
" clip-path="url(#p577b9eb71c)" style="fill: none; stroke: #000000; stroke-linecap: round"/>
    <path d="M 103.865469 37.312389 
L 104.452074 32.878892 
L 107.646909 36.008274 
z
" clip-path="url(#p577b9eb71c)" style="stroke: #000000; stroke-linecap: round"/>
   </g>
   <g id="patch_29">
    <path d="M 124.606902 94.804632 
Q 111.76529 137.183241 99.247907 178.491862 
" clip-path="url(#p577b9eb71c)" style="fill: none; stroke: #000000; stroke-linecap: round"/>
    <path d="M 102.321958 175.243753 
L 99.247907 178.491862 
L 98.493851 174.083756 
z
" clip-path="url(#p577b9eb71c)" style="stroke: #000000; stroke-linecap: round"/>
   </g>
   <g id="patch_30">
    <path d="M 104.087954 31.823081 
Q 114.312557 61.470566 124.172649 90.061108 
" clip-path="url(#p577b9eb71c)" style="fill: none; stroke: #000000; stroke-linecap: round"/>
    <path d="M 124.759254 85.627611 
L 124.172649 90.061108 
L 120.977814 86.931725 
z
" clip-path="url(#p577b9eb71c)" style="stroke: #000000; stroke-linecap: round"/>
   </g>
   <g id="patch_31">
    <path d="M 97.895362 183.295846 
Q 88.530708 221.029043 79.435359 257.677124 
" clip-path="url(#p577b9eb71c)" style="fill: none; stroke: #000000; stroke-linecap: round"/>
    <path d="M 82.339966 254.276645 
L 79.435359 257.677124 
L 78.45774 253.313151 
z
" clip-path="url(#p577b9eb71c)" style="stroke: #000000; stroke-linecap: round"/>
   </g>
   <g id="patch_32">
    <path d="M 98.924248 179.559969 
Q 111.76586 137.18136 124.283243 95.872739 
" clip-path="url(#p577b9eb71c)" style="fill: none; stroke: #000000; stroke-linecap: round"/>
    <path d="M 121.209192 99.120848 
L 124.283243 95.872739 
L 125.037299 100.280845 
z
" clip-path="url(#p577b9eb71c)" style="stroke: #000000; stroke-linecap: round"/>
   </g>
   <g id="patch_33">
    <path d="M 90.567364 313.721202 
Q 84.844126 288.127877 79.364879 263.625638 
" clip-path="url(#p577b9eb71c)" style="fill: none; stroke: #000000; stroke-linecap: round"/>
    <path d="M 78.286014 267.96569 
L 79.364879 263.625638 
L 82.189602 267.09276 
z
" clip-path="url(#p577b9eb71c)" style="stroke: #000000; stroke-linecap: round"/>
   </g>
   <g id="PathCollection_1">
    <defs>
     <path id="C0_0_0712370889" d="M 0 1.936492 
C 0.513564 1.936492 1.006162 1.732451 1.369306 1.369306 
C 1.732451 1.006162 1.936492 0.513564 1.936492 -0 
C 1.936492 -0.513564 1.732451 -1.006162 1.369306 -1.369306 
C 1.006162 -1.732451 0.513564 -1.936492 0 -1.936492 
C -0.513564 -1.936492 -1.006162 -1.732451 -1.369306 -1.369306 
C -1.732451 -1.006162 -1.936492 -0.513564 -1.936492 0 
C -1.936492 0.513564 -1.732451 1.006162 -1.369306 1.369306 
C -1.006162 1.732451 -0.513564 1.936492 0 1.936492 
z
"/>
    </defs>
    <g clip-path="url(#p577b9eb71c)">
     <use xlink:href="#C0_0_0712370889" x="367.989628" y="172.69589" style="fill: #ff0000; stroke: #ff0000"/>
    </g>
    <g clip-path="url(#p577b9eb71c)">
     <use xlink:href="#C0_0_0712370889" x="297.420224" y="158.262619" style="stroke: #000000"/>
    </g>
    <g clip-path="url(#p577b9eb71c)">
     <use xlink:href="#C0_0_0712370889" x="420.813223" y="189.868583" style="fill: #ff0000; stroke: #ff0000"/>
    </g>
    <g clip-path="url(#p577b9eb71c)">
     <use xlink:href="#C0_0_0712370889" x="102.665228" y="116.641933" style="fill: #ff0000; stroke: #ff0000"/>
    </g>
    <g clip-path="url(#p577b9eb71c)">
     <use xlink:href="#C0_0_0712370889" x="143.681041" y="32.515353" style="fill: #ff0000; stroke: #ff0000"/>
    </g>
    <g clip-path="url(#p577b9eb71c)">
     <use xlink:href="#C0_0_0712370889" x="72.699991" y="54.073383" style="fill: #ff0000; stroke: #ff0000"/>
    </g>
    <g clip-path="url(#p577b9eb71c)">
     <use xlink:href="#C0_0_0712370889" x="216.273078" y="125.124553" style="fill: #ff0000; stroke: #ff0000"/>
    </g>
    <g clip-path="url(#p577b9eb71c)">
     <use xlink:href="#C0_0_0712370889" x="320.438932" y="201.796193" style="fill: #ff0000; stroke: #ff0000"/>
    </g>
    <g clip-path="url(#p577b9eb71c)">
     <use xlink:href="#C0_0_0712370889" x="60.635074" y="93.507608" style="fill: #ff0000; stroke: #ff0000"/>
    </g>
    <g clip-path="url(#p577b9eb71c)">
     <use xlink:href="#C0_0_0712370889" x="39.986777" y="301.635369" style="fill: #ff0000; stroke: #ff0000"/>
    </g>
    <g clip-path="url(#p577b9eb71c)">
     <use xlink:href="#C0_0_0712370889" x="78.698554" y="260.645949" style="fill: #ff0000; stroke: #ff0000"/>
    </g>
    <g clip-path="url(#p577b9eb71c)">
     <use xlink:href="#C0_0_0712370889" x="172.299951" y="63.257773" style="fill: #ff0000; stroke: #ff0000"/>
    </g>
    <g clip-path="url(#p577b9eb71c)">
     <use xlink:href="#C0_0_0712370889" x="125.16892" y="92.949917" style="fill: #ff0000; stroke: #ff0000"/>
    </g>
    <g clip-path="url(#p577b9eb71c)">
     <use xlink:href="#C0_0_0712370889" x="103.455803" y="29.990083" style="fill: #ff0000; stroke: #ff0000"/>
    </g>
    <g clip-path="url(#p577b9eb71c)">
     <use xlink:href="#C0_0_0712370889" x="98.362231" y="181.414684" style="fill: #ff0000; stroke: #ff0000"/>
    </g>
    <g clip-path="url(#p577b9eb71c)">
     <use xlink:href="#C0_0_0712370889" x="90.989723" y="315.609917" style="fill: #ff0000; stroke: #ff0000"/>
    </g>
   </g>
   <g id="text_1">
    <g clip-path="url(#p577b9eb71c)">
     <!-- 0 -->
     <g transform="translate(364.808378 175.455265) scale(0.1 -0.1)">
      <defs>
       <path id="DejaVuSans-30" d="M 2034 4250 
Q 1547 4250 1301 3770 
Q 1056 3291 1056 2328 
Q 1056 1369 1301 889 
Q 1547 409 2034 409 
Q 2525 409 2770 889 
Q 3016 1369 3016 2328 
Q 3016 3291 2770 3770 
Q 2525 4250 2034 4250 
z
M 2034 4750 
Q 2819 4750 3233 4129 
Q 3647 3509 3647 2328 
Q 3647 1150 3233 529 
Q 2819 -91 2034 -91 
Q 1250 -91 836 529 
Q 422 1150 422 2328 
Q 422 3509 836 4129 
Q 1250 4750 2034 4750 
z
" transform="scale(0.015625)"/>
      </defs>
      <use xlink:href="#DejaVuSans-30"/>
     </g>
    </g>
   </g>
   <g id="text_2">
    <g clip-path="url(#p577b9eb71c)">
     <!-- 1 -->
     <g transform="translate(294.238974 161.021994) scale(0.1 -0.1)">
      <defs>
       <path id="DejaVuSans-31" d="M 794 531 
L 1825 531 
L 1825 4091 
L 703 3866 
L 703 4441 
L 1819 4666 
L 2450 4666 
L 2450 531 
L 3481 531 
L 3481 0 
L 794 0 
L 794 531 
z
" transform="scale(0.015625)"/>
      </defs>
      <use xlink:href="#DejaVuSans-31"/>
     </g>
    </g>
   </g>
   <g id="text_3">
    <g clip-path="url(#p577b9eb71c)">
     <!-- 3 -->
     <g transform="translate(417.631973 192.627958) scale(0.1 -0.1)">
      <defs>
       <path id="DejaVuSans-33" d="M 2597 2516 
Q 3050 2419 3304 2112 
Q 3559 1806 3559 1356 
Q 3559 666 3084 287 
Q 2609 -91 1734 -91 
Q 1441 -91 1130 -33 
Q 819 25 488 141 
L 488 750 
Q 750 597 1062 519 
Q 1375 441 1716 441 
Q 2309 441 2620 675 
Q 2931 909 2931 1356 
Q 2931 1769 2642 2001 
Q 2353 2234 1838 2234 
L 1294 2234 
L 1294 2753 
L 1863 2753 
Q 2328 2753 2575 2939 
Q 2822 3125 2822 3475 
Q 2822 3834 2567 4026 
Q 2313 4219 1838 4219 
Q 1578 4219 1281 4162 
Q 984 4106 628 3988 
L 628 4550 
Q 988 4650 1302 4700 
Q 1616 4750 1894 4750 
Q 2613 4750 3031 4423 
Q 3450 4097 3450 3541 
Q 3450 3153 3228 2886 
Q 3006 2619 2597 2516 
z
" transform="scale(0.015625)"/>
      </defs>
      <use xlink:href="#DejaVuSans-33"/>
     </g>
    </g>
   </g>
   <g id="text_4">
    <g clip-path="url(#p577b9eb71c)">
     <!-- 4 -->
     <g transform="translate(99.483978 119.401308) scale(0.1 -0.1)">
      <defs>
       <path id="DejaVuSans-34" d="M 2419 4116 
L 825 1625 
L 2419 1625 
L 2419 4116 
z
M 2253 4666 
L 3047 4666 
L 3047 1625 
L 3713 1625 
L 3713 1100 
L 3047 1100 
L 3047 0 
L 2419 0 
L 2419 1100 
L 313 1100 
L 313 1709 
L 2253 4666 
z
" transform="scale(0.015625)"/>
      </defs>
      <use xlink:href="#DejaVuSans-34"/>
     </g>
    </g>
   </g>
   <g id="text_5">
    <g clip-path="url(#p577b9eb71c)">
     <!-- 7 -->
     <g transform="translate(140.499791 35.274728) scale(0.1 -0.1)">
      <defs>
       <path id="DejaVuSans-37" d="M 525 4666 
L 3525 4666 
L 3525 4397 
L 1831 0 
L 1172 0 
L 2766 4134 
L 525 4134 
L 525 4666 
z
" transform="scale(0.015625)"/>
      </defs>
      <use xlink:href="#DejaVuSans-37"/>
     </g>
    </g>
   </g>
   <g id="text_6">
    <g clip-path="url(#p577b9eb71c)">
     <!-- 8 -->
     <g transform="translate(69.518741 56.832758) scale(0.1 -0.1)">
      <defs>
       <path id="DejaVuSans-38" d="M 2034 2216 
Q 1584 2216 1326 1975 
Q 1069 1734 1069 1313 
Q 1069 891 1326 650 
Q 1584 409 2034 409 
Q 2484 409 2743 651 
Q 3003 894 3003 1313 
Q 3003 1734 2745 1975 
Q 2488 2216 2034 2216 
z
M 1403 2484 
Q 997 2584 770 2862 
Q 544 3141 544 3541 
Q 544 4100 942 4425 
Q 1341 4750 2034 4750 
Q 2731 4750 3128 4425 
Q 3525 4100 3525 3541 
Q 3525 3141 3298 2862 
Q 3072 2584 2669 2484 
Q 3125 2378 3379 2068 
Q 3634 1759 3634 1313 
Q 3634 634 3220 271 
Q 2806 -91 2034 -91 
Q 1263 -91 848 271 
Q 434 634 434 1313 
Q 434 1759 690 2068 
Q 947 2378 1403 2484 
z
M 1172 3481 
Q 1172 3119 1398 2916 
Q 1625 2713 2034 2713 
Q 2441 2713 2670 2916 
Q 2900 3119 2900 3481 
Q 2900 3844 2670 4047 
Q 2441 4250 2034 4250 
Q 1625 4250 1398 4047 
Q 1172 3844 1172 3481 
z
" transform="scale(0.015625)"/>
      </defs>
      <use xlink:href="#DejaVuSans-38"/>
     </g>
    </g>
   </g>
   <g id="text_7">
    <g clip-path="url(#p577b9eb71c)">
     <!-- 10 -->
     <g transform="translate(209.910578 127.883928) scale(0.1 -0.1)">
      <use xlink:href="#DejaVuSans-31"/>
      <use xlink:href="#DejaVuSans-30" x="63.623047"/>
     </g>
    </g>
   </g>
   <g id="text_8">
    <g clip-path="url(#p577b9eb71c)">
     <!-- 11 -->
     <g transform="translate(314.076432 204.555568) scale(0.1 -0.1)">
      <use xlink:href="#DejaVuSans-31"/>
      <use xlink:href="#DejaVuSans-31" x="63.623047"/>
     </g>
    </g>
   </g>
   <g id="text_9">
    <g clip-path="url(#p577b9eb71c)">
     <!-- 13 -->
     <g transform="translate(54.272574 96.266983) scale(0.1 -0.1)">
      <use xlink:href="#DejaVuSans-31"/>
      <use xlink:href="#DejaVuSans-33" x="63.623047"/>
     </g>
    </g>
   </g>
   <g id="text_10">
    <g clip-path="url(#p577b9eb71c)">
     <!-- 14 -->
     <g transform="translate(33.624277 304.394744) scale(0.1 -0.1)">
      <use xlink:href="#DejaVuSans-31"/>
      <use xlink:href="#DejaVuSans-34" x="63.623047"/>
     </g>
    </g>
   </g>
   <g id="text_11">
    <g clip-path="url(#p577b9eb71c)">
     <!-- 15 -->
     <g transform="translate(72.336054 263.405324) scale(0.1 -0.1)">
      <defs>
       <path id="DejaVuSans-35" d="M 691 4666 
L 3169 4666 
L 3169 4134 
L 1269 4134 
L 1269 2991 
Q 1406 3038 1543 3061 
Q 1681 3084 1819 3084 
Q 2600 3084 3056 2656 
Q 3513 2228 3513 1497 
Q 3513 744 3044 326 
Q 2575 -91 1722 -91 
Q 1428 -91 1123 -41 
Q 819 9 494 109 
L 494 744 
Q 775 591 1075 516 
Q 1375 441 1709 441 
Q 2250 441 2565 725 
Q 2881 1009 2881 1497 
Q 2881 1984 2565 2268 
Q 2250 2553 1709 2553 
Q 1456 2553 1204 2497 
Q 953 2441 691 2322 
L 691 4666 
z
" transform="scale(0.015625)"/>
      </defs>
      <use xlink:href="#DejaVuSans-31"/>
      <use xlink:href="#DejaVuSans-35" x="63.623047"/>
     </g>
    </g>
   </g>
   <g id="text_12">
    <g clip-path="url(#p577b9eb71c)">
     <!-- 18 -->
     <g transform="translate(165.937451 66.017148) scale(0.1 -0.1)">
      <use xlink:href="#DejaVuSans-31"/>
      <use xlink:href="#DejaVuSans-38" x="63.623047"/>
     </g>
    </g>
   </g>
   <g id="text_13">
    <g clip-path="url(#p577b9eb71c)">
     <!-- 19 -->
     <g transform="translate(118.80642 95.709292) scale(0.1 -0.1)">
      <defs>
       <path id="DejaVuSans-39" d="M 703 97 
L 703 672 
Q 941 559 1184 500 
Q 1428 441 1663 441 
Q 2288 441 2617 861 
Q 2947 1281 2994 2138 
Q 2813 1869 2534 1725 
Q 2256 1581 1919 1581 
Q 1219 1581 811 2004 
Q 403 2428 403 3163 
Q 403 3881 828 4315 
Q 1253 4750 1959 4750 
Q 2769 4750 3195 4129 
Q 3622 3509 3622 2328 
Q 3622 1225 3098 567 
Q 2575 -91 1691 -91 
Q 1453 -91 1209 -44 
Q 966 3 703 97 
z
M 1959 2075 
Q 2384 2075 2632 2365 
Q 2881 2656 2881 3163 
Q 2881 3666 2632 3958 
Q 2384 4250 1959 4250 
Q 1534 4250 1286 3958 
Q 1038 3666 1038 3163 
Q 1038 2656 1286 2365 
Q 1534 2075 1959 2075 
z
" transform="scale(0.015625)"/>
      </defs>
      <use xlink:href="#DejaVuSans-31"/>
      <use xlink:href="#DejaVuSans-39" x="63.623047"/>
     </g>
    </g>
   </g>
   <g id="text_14">
    <g clip-path="url(#p577b9eb71c)">
     <!-- 20 -->
     <g transform="translate(97.093303 32.749458) scale(0.1 -0.1)">
      <defs>
       <path id="DejaVuSans-32" d="M 1228 531 
L 3431 531 
L 3431 0 
L 469 0 
L 469 531 
Q 828 903 1448 1529 
Q 2069 2156 2228 2338 
Q 2531 2678 2651 2914 
Q 2772 3150 2772 3378 
Q 2772 3750 2511 3984 
Q 2250 4219 1831 4219 
Q 1534 4219 1204 4116 
Q 875 4013 500 3803 
L 500 4441 
Q 881 4594 1212 4672 
Q 1544 4750 1819 4750 
Q 2544 4750 2975 4387 
Q 3406 4025 3406 3419 
Q 3406 3131 3298 2873 
Q 3191 2616 2906 2266 
Q 2828 2175 2409 1742 
Q 1991 1309 1228 531 
z
" transform="scale(0.015625)"/>
      </defs>
      <use xlink:href="#DejaVuSans-32"/>
      <use xlink:href="#DejaVuSans-30" x="63.623047"/>
     </g>
    </g>
   </g>
   <g id="text_15">
    <g clip-path="url(#p577b9eb71c)">
     <!-- 21 -->
     <g transform="translate(91.999731 184.174059) scale(0.1 -0.1)">
      <use xlink:href="#DejaVuSans-32"/>
      <use xlink:href="#DejaVuSans-31" x="63.623047"/>
     </g>
    </g>
   </g>
   <g id="text_16">
    <g clip-path="url(#p577b9eb71c)">
     <!-- 23 -->
     <g transform="translate(84.627223 318.369292) scale(0.1 -0.1)">
      <use xlink:href="#DejaVuSans-32"/>
      <use xlink:href="#DejaVuSans-33" x="63.623047"/>
     </g>
    </g>
   </g>
  </g>
 </g>
 <defs>
  <clipPath id="p577b9eb71c">
   <rect x="0" y="0" width="460.8" height="345.6"/>
  </clipPath>
 </defs>
</svg>
