<?xml version="1.0" encoding="utf-8" standalone="no"?>
<!DOCTYPE svg PUBLIC "-//W3C//DTD SVG 1.1//EN"
  "http://www.w3.org/Graphics/SVG/1.1/DTD/svg11.dtd">
<svg xmlns:xlink="http://www.w3.org/1999/xlink" width="460.8pt" height="345.6pt" viewBox="0 0 460.8 345.6" xmlns="http://www.w3.org/2000/svg" version="1.1">
 <metadata>
  <rdf:RDF xmlns:dc="http://purl.org/dc/elements/1.1/" xmlns:cc="http://creativecommons.org/ns#" xmlns:rdf="http://www.w3.org/1999/02/22-rdf-syntax-ns#">
   <cc:Work>
    <dc:type rdf:resource="http://purl.org/dc/dcmitype/StillImage"/>
    <dc:date>2024-02-07T14:35:28.731976</dc:date>
    <dc:format>image/svg+xml</dc:format>
    <dc:creator>
     <cc:Agent>
      <dc:title>Matplotlib v3.8.0, https://matplotlib.org/</dc:title>
     </cc:Agent>
    </dc:creator>
   </cc:Work>
  </rdf:RDF>
 </metadata>
 <defs>
  <style type="text/css">*{stroke-linejoin: round; stroke-linecap: butt}</style>
 </defs>
 <g id="figure_1">
  <g id="patch_1">
   <path d="M 0 345.6 
L 460.8 345.6 
L 460.8 0 
L 0 0 
z
" style="fill: #ffffff"/>
  </g>
  <g id="axes_1">
   <g id="patch_2">
    <path d="M 245.893929 30.333389 
Q 271.694997 34.985412 296.395772 39.439049 
" clip-path="url(#p8b1a7ed9d2)" style="fill: none; stroke: #000000; stroke-linecap: round"/>
    <path d="M 292.814132 36.761017 
L 296.395772 39.439049 
L 292.104363 40.697542 
z
" clip-path="url(#p8b1a7ed9d2)" style="stroke: #000000; stroke-linecap: round"/>
   </g>
   <g id="patch_3">
    <path d="M 242.059142 30.169435 
Q 215.591097 32.628135 190.236294 34.983423 
" clip-path="url(#p8b1a7ed9d2)" style="fill: none; stroke: #000000; stroke-linecap: round"/>
    <path d="M 194.404136 36.604869 
L 190.236294 34.983423 
L 194.034157 32.622017 
z
" clip-path="url(#p8b1a7ed9d2)" style="stroke: #000000; stroke-linecap: round"/>
   </g>
   <g id="patch_4">
    <path d="M 297.495951 39.637415 
Q 271.694884 34.985392 246.994108 30.531755 
" clip-path="url(#p8b1a7ed9d2)" style="fill: none; stroke: #000000; stroke-linecap: round"/>
    <path d="M 250.575748 33.209787 
L 246.994108 30.531755 
L 251.285518 29.273262 
z
" clip-path="url(#p8b1a7ed9d2)" style="stroke: #000000; stroke-linecap: round"/>
   </g>
   <g id="patch_5">
    <path d="M 301.125242 40.862292 
Q 323.314206 52.20049 344.507582 63.029958 
" clip-path="url(#p8b1a7ed9d2)" style="fill: none; stroke: #000000; stroke-linecap: round"/>
    <path d="M 341.855702 59.428912 
L 344.507582 63.029958 
L 340.035617 62.990835 
z
" clip-path="url(#p8b1a7ed9d2)" style="stroke: #000000; stroke-linecap: round"/>
   </g>
   <g id="patch_6">
    <path d="M 134.163714 53.720448 
Q 159.766262 44.811274 184.31288 36.269542 
" clip-path="url(#p8b1a7ed9d2)" style="fill: none; stroke: #000000; stroke-linecap: round"/>
    <path d="M 179.877772 35.695239 
L 184.31288 36.269542 
L 181.192374 39.473046 
z
" clip-path="url(#p8b1a7ed9d2)" style="stroke: #000000; stroke-linecap: round"/>
   </g>
   <g id="patch_7">
    <path d="M 130.681405 55.371707 
Q 107.882114 69.376065 86.03549 82.795253 
" clip-path="url(#p8b1a7ed9d2)" style="fill: none; stroke: #000000; stroke-linecap: round"/>
    <path d="M 90.490641 82.405863 
L 86.03549 82.795253 
L 88.397069 78.997498 
z
" clip-path="url(#p8b1a7ed9d2)" style="stroke: #000000; stroke-linecap: round"/>
   </g>
   <g id="patch_8">
    <path d="M 189.128419 35.086337 
Q 215.596463 32.627637 240.951267 30.272349 
" clip-path="url(#p8b1a7ed9d2)" style="fill: none; stroke: #000000; stroke-linecap: round"/>
    <path d="M 236.783425 28.650903 
L 240.951267 30.272349 
L 237.153404 32.633755 
z
" clip-path="url(#p8b1a7ed9d2)" style="stroke: #000000; stroke-linecap: round"/>
   </g>
   <g id="patch_9">
    <path d="M 185.365918 35.903105 
Q 159.763371 44.81228 135.216753 53.354012 
" clip-path="url(#p8b1a7ed9d2)" style="fill: none; stroke: #000000; stroke-linecap: round"/>
    <path d="M 139.65186 53.928314 
L 135.216753 53.354012 
L 138.337259 50.150507 
z
" clip-path="url(#p8b1a7ed9d2)" style="stroke: #000000; stroke-linecap: round"/>
   </g>
   <g id="patch_10">
    <path d="M 419.032922 85.818395 
Q 402.448974 92.826099 386.894891 99.398624 
" clip-path="url(#p8b1a7ed9d2)" style="fill: none; stroke: #000000; stroke-linecap: round"/>
    <path d="M 391.357915 99.683958 
L 386.894891 99.398624 
L 389.800972 95.999405 
z
" clip-path="url(#p8b1a7ed9d2)" style="stroke: #000000; stroke-linecap: round"/>
   </g>
   <g id="patch_11">
    <path d="M 383.389722 151.823797 
Q 377.600753 175.645154 372.075799 198.380097 
" clip-path="url(#p8b1a7ed9d2)" style="fill: none; stroke: #000000; stroke-linecap: round"/>
    <path d="M 374.963808 194.96551 
L 372.075799 198.380097 
L 371.076934 194.020938 
z
" clip-path="url(#p8b1a7ed9d2)" style="stroke: #000000; stroke-linecap: round"/>
   </g>
   <g id="patch_12">
    <path d="M 383.855495 148.007444 
Q 383.961786 125.266472 384.062852 103.643521 
" clip-path="url(#p8b1a7ed9d2)" style="fill: none; stroke: #000000; stroke-linecap: round"/>
    <path d="M 382.044178 107.63413 
L 384.062852 103.643521 
L 386.044134 107.652826 
z
" clip-path="url(#p8b1a7ed9d2)" style="stroke: #000000; stroke-linecap: round"/>
   </g>
   <g id="patch_13">
    <path d="M 345.502843 63.53852 
Q 323.313879 52.200323 302.120502 41.370854 
" clip-path="url(#p8b1a7ed9d2)" style="fill: none; stroke: #000000; stroke-linecap: round"/>
    <path d="M 304.772383 44.9719 
L 302.120502 41.370854 
L 306.592467 41.409977 
z
" clip-path="url(#p8b1a7ed9d2)" style="stroke: #000000; stroke-linecap: round"/>
   </g>
   <g id="patch_14">
    <path d="M 348.611276 65.777761 
Q 365.652591 82.504679 381.896011 98.448421 
" clip-path="url(#p8b1a7ed9d2)" style="fill: none; stroke: #000000; stroke-linecap: round"/>
    <path d="M 380.44236 94.219131 
L 381.896011 98.448421 
L 377.640388 97.073768 
z
" clip-path="url(#p8b1a7ed9d2)" style="stroke: #000000; stroke-linecap: round"/>
   </g>
   <g id="patch_15">
    <path d="M 385.857429 99.837014 
Q 402.441376 92.82931 417.995459 86.256785 
" clip-path="url(#p8b1a7ed9d2)" style="fill: none; stroke: #000000; stroke-linecap: round"/>
    <path d="M 413.532435 85.971451 
L 417.995459 86.256785 
L 415.089378 89.656004 
z
" clip-path="url(#p8b1a7ed9d2)" style="stroke: #000000; stroke-linecap: round"/>
   </g>
   <g id="patch_16">
    <path d="M 384.068074 102.526269 
Q 383.961783 125.267241 383.860717 146.890192 
" clip-path="url(#p8b1a7ed9d2)" style="fill: none; stroke: #000000; stroke-linecap: round"/>
    <path d="M 385.879391 142.899583 
L 383.860717 146.890192 
L 381.879435 142.880888 
z
" clip-path="url(#p8b1a7ed9d2)" style="stroke: #000000; stroke-linecap: round"/>
   </g>
   <g id="patch_17">
    <path d="M 382.693939 99.231627 
Q 365.652623 82.50471 349.409203 66.560967 
" clip-path="url(#p8b1a7ed9d2)" style="fill: none; stroke: #000000; stroke-linecap: round"/>
    <path d="M 350.862854 70.790258 
L 349.409203 66.560967 
L 353.664826 67.93562 
z
" clip-path="url(#p8b1a7ed9d2)" style="stroke: #000000; stroke-linecap: round"/>
   </g>
   <g id="patch_18">
    <path d="M 371.81085 199.470349 
Q 377.59982 175.648992 383.124774 152.914049 
" clip-path="url(#p8b1a7ed9d2)" style="fill: none; stroke: #000000; stroke-linecap: round"/>
    <path d="M 380.236765 156.328636 
L 383.124774 152.914049 
L 384.123638 157.273208 
z
" clip-path="url(#p8b1a7ed9d2)" style="stroke: #000000; stroke-linecap: round"/>
   </g>
   <g id="patch_19">
    <path d="M 369.960922 202.693431 
Q 350.937332 221.041018 332.71848 238.612464 
" clip-path="url(#p8b1a7ed9d2)" style="fill: none; stroke: #000000; stroke-linecap: round"/>
    <path d="M 336.986004 237.275214 
L 332.71848 238.612464 
L 334.209194 234.396095 
z
" clip-path="url(#p8b1a7ed9d2)" style="stroke: #000000; stroke-linecap: round"/>
   </g>
   <g id="patch_20">
    <path d="M 370.668227 199.53649 
Q 368.032735 192.569359 365.792811 186.647946 
" clip-path="url(#p8b1a7ed9d2)" style="fill: none; stroke: #000000; stroke-linecap: round"/>
    <path d="M 365.337405 191.096834 
L 365.792811 186.647946 
L 369.078678 189.681603 
z
" clip-path="url(#p8b1a7ed9d2)" style="stroke: #000000; stroke-linecap: round"/>
   </g>
   <g id="patch_21">
    <path d="M 373.1393 202.10897 
Q 389.959446 209.262639 405.750742 215.978735 
" clip-path="url(#p8b1a7ed9d2)" style="fill: none; stroke: #000000; stroke-linecap: round"/>
    <path d="M 402.852576 212.572766 
L 405.750742 215.978735 
L 401.287066 216.253687 
z
" clip-path="url(#p8b1a7ed9d2)" style="stroke: #000000; stroke-linecap: round"/>
   </g>
   <g id="patch_22">
    <path d="M 331.91313 239.389196 
Q 350.936721 221.041608 369.155573 203.470162 
" clip-path="url(#p8b1a7ed9d2)" style="fill: none; stroke: #000000; stroke-linecap: round"/>
    <path d="M 364.888049 204.807413 
L 369.155573 203.470162 
L 367.664858 207.686532 
z
" clip-path="url(#p8b1a7ed9d2)" style="stroke: #000000; stroke-linecap: round"/>
   </g>
   <g id="patch_23">
    <path d="M 328.968904 241.893081 
Q 308.267026 257.3784 288.460427 272.194036 
" clip-path="url(#p8b1a7ed9d2)" style="fill: none; stroke: #000000; stroke-linecap: round"/>
    <path d="M 292.861441 271.399631 
L 288.460427 272.194036 
L 290.465511 268.196582 
z
" clip-path="url(#p8b1a7ed9d2)" style="stroke: #000000; stroke-linecap: round"/>
   </g>
   <g id="patch_24">
    <path d="M 365.398281 185.604975 
Q 368.033774 192.572106 370.273697 198.49352 
" clip-path="url(#p8b1a7ed9d2)" style="fill: none; stroke: #000000; stroke-linecap: round"/>
    <path d="M 370.729103 194.044631 
L 370.273697 198.49352 
L 366.98783 195.459862 
z
" clip-path="url(#p8b1a7ed9d2)" style="stroke: #000000; stroke-linecap: round"/>
   </g>
   <g id="patch_25">
    <path d="M 406.78044 216.41667 
Q 389.960295 209.263 374.168998 202.546904 
" clip-path="url(#p8b1a7ed9d2)" style="fill: none; stroke: #000000; stroke-linecap: round"/>
    <path d="M 377.067165 205.952874 
L 374.168998 202.546904 
L 378.632674 202.271952 
z
" clip-path="url(#p8b1a7ed9d2)" style="stroke: #000000; stroke-linecap: round"/>
   </g>
   <g id="patch_26">
    <path d="M 287.566769 272.862505 
Q 308.268647 257.377187 328.075246 242.561551 
" clip-path="url(#p8b1a7ed9d2)" style="fill: none; stroke: #000000; stroke-linecap: round"/>
    <path d="M 323.674232 243.355956 
L 328.075246 242.561551 
L 326.070161 246.559005 
z
" clip-path="url(#p8b1a7ed9d2)" style="stroke: #000000; stroke-linecap: round"/>
   </g>
   <g id="patch_27">
    <path d="M 284.327307 274.974999 
Q 262.288548 287.405206 241.223608 299.286164 
" clip-path="url(#p8b1a7ed9d2)" style="fill: none; stroke: #000000; stroke-linecap: round"/>
    <path d="M 245.690179 299.06313 
L 241.223608 299.286164 
L 243.725123 295.579087 
z
" clip-path="url(#p8b1a7ed9d2)" style="stroke: #000000; stroke-linecap: round"/>
   </g>
   <g id="patch_28">
    <path d="M 188.334089 315.080598 
Q 212.51933 308.197778 235.629235 301.620985 
" clip-path="url(#p8b1a7ed9d2)" style="fill: none; stroke: #000000; stroke-linecap: round"/>
    <path d="M 231.234558 300.792242 
L 235.629235 301.620985 
L 232.329434 304.639481 
z
" clip-path="url(#p8b1a7ed9d2)" style="stroke: #000000; stroke-linecap: round"/>
   </g>
   <g id="patch_29">
    <path d="M 184.536608 315.563019 
Q 159.886598 314.966356 136.354294 314.396747 
" clip-path="url(#p8b1a7ed9d2)" style="fill: none; stroke: #000000; stroke-linecap: round"/>
    <path d="M 140.304726 316.492955 
L 136.354294 314.396747 
L 140.40152 312.494126 
z
" clip-path="url(#p8b1a7ed9d2)" style="stroke: #000000; stroke-linecap: round"/>
   </g>
   <g id="patch_30">
    <path d="M 240.254007 299.833034 
Q 262.292767 287.402826 283.357707 275.521869 
" clip-path="url(#p8b1a7ed9d2)" style="fill: none; stroke: #000000; stroke-linecap: round"/>
    <path d="M 278.891136 275.744903 
L 283.357707 275.521869 
L 280.856191 279.228946 
z
" clip-path="url(#p8b1a7ed9d2)" style="stroke: #000000; stroke-linecap: round"/>
   </g>
   <g id="patch_31">
    <path d="M 236.70561 301.314662 
Q 212.520369 308.197482 189.410464 314.774275 
" clip-path="url(#p8b1a7ed9d2)" style="fill: none; stroke: #000000; stroke-linecap: round"/>
    <path d="M 193.805141 315.603017 
L 189.410464 314.774275 
L 192.710264 311.755779 
z
" clip-path="url(#p8b1a7ed9d2)" style="stroke: #000000; stroke-linecap: round"/>
   </g>
   <g id="patch_32">
    <path d="M 85.673727 293.433661 
Q 70.989991 277.482126 57.06346 262.353173 
" clip-path="url(#p8b1a7ed9d2)" style="fill: none; stroke: #000000; stroke-linecap: round"/>
    <path d="M 58.301038 266.65066 
L 57.06346 262.353173 
L 61.243997 263.941603 
z
" clip-path="url(#p8b1a7ed9d2)" style="stroke: #000000; stroke-linecap: round"/>
   </g>
   <g id="patch_33">
    <path d="M 88.767691 295.606623 
Q 110.141384 304.58947 130.484372 313.139135 
" clip-path="url(#p8b1a7ed9d2)" style="fill: none; stroke: #000000; stroke-linecap: round"/>
    <path d="M 127.571704 309.745558 
L 130.484372 313.139135 
L 126.021909 313.433123 
z
" clip-path="url(#p8b1a7ed9d2)" style="stroke: #000000; stroke-linecap: round"/>
   </g>
   <g id="patch_34">
    <path d="M 56.303735 261.527853 
Q 70.987471 277.479388 84.914002 292.608341 
" clip-path="url(#p8b1a7ed9d2)" style="fill: none; stroke: #000000; stroke-linecap: round"/>
    <path d="M 83.676424 288.310854 
L 84.914002 292.608341 
L 80.733465 291.019911 
z
" clip-path="url(#p8b1a7ed9d2)" style="stroke: #000000; stroke-linecap: round"/>
   </g>
   <g id="patch_35">
    <path d="M 54.357005 258.278581 
Q 47.490713 238.582915 40.992465 219.942969 
" clip-path="url(#p8b1a7ed9d2)" style="fill: none; stroke: #000000; stroke-linecap: round"/>
    <path d="M 40.420692 224.378403 
L 40.992465 219.942969 
L 44.197749 223.061647 
z
" clip-path="url(#p8b1a7ed9d2)" style="stroke: #000000; stroke-linecap: round"/>
   </g>
   <g id="patch_36">
    <path d="M 40.623357 218.884199 
Q 47.48965 238.579865 53.987898 257.219811 
" clip-path="url(#p8b1a7ed9d2)" style="fill: none; stroke: #000000; stroke-linecap: round"/>
    <path d="M 54.559671 252.784377 
L 53.987898 257.219811 
L 50.782614 254.101133 
z
" clip-path="url(#p8b1a7ed9d2)" style="stroke: #000000; stroke-linecap: round"/>
   </g>
   <g id="patch_37">
    <path d="M 39.994154 215.120928 
Q 40.076315 193.545566 40.154219 173.088231 
" clip-path="url(#p8b1a7ed9d2)" style="fill: none; stroke: #000000; stroke-linecap: round"/>
    <path d="M 38.139001 177.080585 
L 40.154219 173.088231 
L 42.138972 177.095818 
z
" clip-path="url(#p8b1a7ed9d2)" style="stroke: #000000; stroke-linecap: round"/>
   </g>
   <g id="patch_38">
    <path d="M 40.158466 171.972968 
Q 40.076305 193.548329 39.998401 214.005665 
" clip-path="url(#p8b1a7ed9d2)" style="fill: none; stroke: #000000; stroke-linecap: round"/>
    <path d="M 42.013619 210.01331 
L 39.998401 214.005665 
L 38.013648 209.998078 
z
" clip-path="url(#p8b1a7ed9d2)" style="stroke: #000000; stroke-linecap: round"/>
   </g>
   <g id="patch_39">
    <path d="M 40.700144 168.172204 
Q 46.994258 146.220012 52.980227 125.34255 
" clip-path="url(#p8b1a7ed9d2)" style="fill: none; stroke: #000000; stroke-linecap: round"/>
    <path d="M 49.955234 128.636396 
L 52.980227 125.34255 
L 53.800307 129.738852 
z
" clip-path="url(#p8b1a7ed9d2)" style="stroke: #000000; stroke-linecap: round"/>
   </g>
   <g id="patch_40">
    <path d="M 50.717815 96.560001 
Q 52.154799 108.521646 53.458429 119.373239 
" clip-path="url(#p8b1a7ed9d2)" style="fill: none; stroke: #000000; stroke-linecap: round"/>
    <path d="M 54.967051 115.163244 
L 53.458429 119.373239 
L 50.995606 115.640344 
z
" clip-path="url(#p8b1a7ed9d2)" style="stroke: #000000; stroke-linecap: round"/>
   </g>
   <g id="patch_41">
    <path d="M 52.332767 94.064278 
Q 66.957188 89.517274 80.513989 85.302213 
" clip-path="url(#p8b1a7ed9d2)" style="fill: none; stroke: #000000; stroke-linecap: round"/>
    <path d="M 76.100555 84.579991 
L 80.513989 85.302213 
L 77.288151 88.399626 
z
" clip-path="url(#p8b1a7ed9d2)" style="stroke: #000000; stroke-linecap: round"/>
   </g>
   <g id="patch_42">
    <path d="M 53.288293 124.268097 
Q 46.994179 146.220289 41.00821 167.09775 
" clip-path="url(#p8b1a7ed9d2)" style="fill: none; stroke: #000000; stroke-linecap: round"/>
    <path d="M 44.033203 163.803905 
L 41.00821 167.09775 
L 40.18813 162.701449 
z
" clip-path="url(#p8b1a7ed9d2)" style="stroke: #000000; stroke-linecap: round"/>
   </g>
   <g id="patch_43">
    <path d="M 53.59172 120.482779 
Q 52.154737 108.521133 50.851107 97.669541 
" clip-path="url(#p8b1a7ed9d2)" style="fill: none; stroke: #000000; stroke-linecap: round"/>
    <path d="M 49.342484 101.879536 
L 50.851107 97.669541 
L 53.313929 101.402436 
z
" clip-path="url(#p8b1a7ed9d2)" style="stroke: #000000; stroke-linecap: round"/>
   </g>
   <g id="patch_44">
    <path d="M 55.01348 120.875791 
Q 68.626117 103.400464 81.551695 86.807154 
" clip-path="url(#p8b1a7ed9d2)" style="fill: none; stroke: #000000; stroke-linecap: round"/>
    <path d="M 77.515805 88.733703 
L 81.551695 86.807154 
L 80.6714 91.191795 
z
" clip-path="url(#p8b1a7ed9d2)" style="stroke: #000000; stroke-linecap: round"/>
   </g>
   <g id="patch_45">
    <path d="M 85.080853 83.381634 
Q 107.880144 69.377275 129.726768 55.958088 
" clip-path="url(#p8b1a7ed9d2)" style="fill: none; stroke: #000000; stroke-linecap: round"/>
    <path d="M 125.271617 56.347478 
L 129.726768 55.958088 
L 127.365189 59.755843 
z
" clip-path="url(#p8b1a7ed9d2)" style="stroke: #000000; stroke-linecap: round"/>
   </g>
   <g id="patch_46">
    <path d="M 81.584478 84.969378 
Q 66.960057 89.516382 53.403256 93.731443 
" clip-path="url(#p8b1a7ed9d2)" style="fill: none; stroke: #000000; stroke-linecap: round"/>
    <path d="M 57.81669 94.453665 
L 53.403256 93.731443 
L 56.629094 90.634029 
z
" clip-path="url(#p8b1a7ed9d2)" style="stroke: #000000; stroke-linecap: round"/>
   </g>
   <g id="patch_47">
    <path d="M 82.239417 85.924286 
Q 68.62678 103.399612 55.701202 119.992923 
" clip-path="url(#p8b1a7ed9d2)" style="fill: none; stroke: #000000; stroke-linecap: round"/>
    <path d="M 59.737092 118.066374 
L 55.701202 119.992923 
L 56.581497 115.608281 
z
" clip-path="url(#p8b1a7ed9d2)" style="stroke: #000000; stroke-linecap: round"/>
   </g>
   <g id="patch_48">
    <path d="M 135.238389 314.369736 
Q 159.8884 314.966399 183.420703 315.536008 
" clip-path="url(#p8b1a7ed9d2)" style="fill: none; stroke: #000000; stroke-linecap: round"/>
    <path d="M 179.470271 313.4398 
L 183.420703 315.536008 
L 179.373478 317.438629 
z
" clip-path="url(#p8b1a7ed9d2)" style="stroke: #000000; stroke-linecap: round"/>
   </g>
   <g id="patch_49">
    <path d="M 131.517048 313.573144 
Q 110.143354 304.590297 89.800367 296.040632 
" clip-path="url(#p8b1a7ed9d2)" style="fill: none; stroke: #000000; stroke-linecap: round"/>
    <path d="M 92.713035 299.434209 
L 89.800367 296.040632 
L 94.262829 295.746644 
z
" clip-path="url(#p8b1a7ed9d2)" style="stroke: #000000; stroke-linecap: round"/>
   </g>
   <g id="PathCollection_1">
    <defs>
     <path id="C0_0_fd1c0504f4" d="M 0 1.936492 
C 0.513564 1.936492 1.006162 1.732451 1.369306 1.369306 
C 1.732451 1.006162 1.936492 0.513564 1.936492 -0 
C 1.936492 -0.513564 1.732451 -1.006162 1.369306 -1.369306 
C 1.006162 -1.732451 0.513564 -1.936492 0 -1.936492 
C -0.513564 -1.936492 -1.006162 -1.732451 -1.369306 -1.369306 
C -1.732451 -1.006162 -1.936492 -0.513564 -1.936492 0 
C -1.936492 0.513564 -1.732451 1.006162 -1.369306 1.369306 
C -1.006162 1.732451 -0.513564 1.936492 0 1.936492 
z
"/>
    </defs>
    <g clip-path="url(#p8b1a7ed9d2)">
     <use xlink:href="#C0_0_fd1c0504f4" x="243.989883" y="29.990083" style="fill: #ff0000; stroke: #ff0000"/>
    </g>
    <g clip-path="url(#p8b1a7ed9d2)">
     <use xlink:href="#C0_0_fd1c0504f4" x="299.399998" y="39.980721" style="fill: #ff0000; stroke: #ff0000"/>
    </g>
    <g clip-path="url(#p8b1a7ed9d2)">
     <use xlink:href="#C0_0_fd1c0504f4" x="132.331955" y="54.357864" style="fill: #ff0000; stroke: #ff0000"/>
    </g>
    <g clip-path="url(#p8b1a7ed9d2)">
     <use xlink:href="#C0_0_fd1c0504f4" x="187.197678" y="35.26569" style="fill: #ff0000; stroke: #ff0000"/>
    </g>
    <g clip-path="url(#p8b1a7ed9d2)">
     <use xlink:href="#C0_0_fd1c0504f4" x="420.813223" y="85.066112" style="fill: #ff0000; stroke: #ff0000"/>
    </g>
    <g clip-path="url(#p8b1a7ed9d2)">
     <use xlink:href="#C0_0_fd1c0504f4" x="383.846442" y="149.944416" style="stroke: #000000"/>
    </g>
    <g clip-path="url(#p8b1a7ed9d2)">
     <use xlink:href="#C0_0_fd1c0504f4" x="347.228087" y="64.420092" style="fill: #ff0000; stroke: #ff0000"/>
    </g>
    <g clip-path="url(#p8b1a7ed9d2)">
     <use xlink:href="#C0_0_fd1c0504f4" x="384.077127" y="100.589297" style="fill: #ff0000; stroke: #ff0000"/>
    </g>
    <g clip-path="url(#p8b1a7ed9d2)">
     <use xlink:href="#C0_0_fd1c0504f4" x="371.354131" y="201.34973" style="stroke: #000000"/>
    </g>
    <g clip-path="url(#p8b1a7ed9d2)">
     <use xlink:href="#C0_0_fd1c0504f4" x="330.519922" y="240.732896" style="stroke: #000000"/>
    </g>
    <g clip-path="url(#p8b1a7ed9d2)">
     <use xlink:href="#C0_0_fd1c0504f4" x="364.712378" y="183.791735" style="fill: #ff0000; stroke: #ff0000"/>
    </g>
    <g clip-path="url(#p8b1a7ed9d2)">
     <use xlink:href="#C0_0_fd1c0504f4" x="408.56561" y="217.175909" style="fill: #ff0000; stroke: #ff0000"/>
    </g>
    <g clip-path="url(#p8b1a7ed9d2)">
     <use xlink:href="#C0_0_fd1c0504f4" x="286.015751" y="274.02269" style="stroke: #000000"/>
    </g>
    <g clip-path="url(#p8b1a7ed9d2)">
     <use xlink:href="#C0_0_fd1c0504f4" x="186.474135" y="315.609917" style="fill: #ff0000; stroke: #ff0000"/>
    </g>
    <g clip-path="url(#p8b1a7ed9d2)">
     <use xlink:href="#C0_0_fd1c0504f4" x="238.565564" y="300.785342" style="fill: #ff0000; stroke: #ff0000"/>
    </g>
    <g clip-path="url(#p8b1a7ed9d2)">
     <use xlink:href="#C0_0_fd1c0504f4" x="86.983876" y="294.856929" style="stroke: #000000"/>
    </g>
    <g clip-path="url(#p8b1a7ed9d2)">
     <use xlink:href="#C0_0_fd1c0504f4" x="54.993586" y="260.104585" style="stroke: #000000"/>
    </g>
    <g clip-path="url(#p8b1a7ed9d2)">
     <use xlink:href="#C0_0_fd1c0504f4" x="39.986777" y="217.058195" style="fill: #ff0000; stroke: #ff0000"/>
    </g>
    <g clip-path="url(#p8b1a7ed9d2)">
     <use xlink:href="#C0_0_fd1c0504f4" x="40.165843" y="170.035701" style="fill: #ff0000; stroke: #ff0000"/>
    </g>
    <g clip-path="url(#p8b1a7ed9d2)">
     <use xlink:href="#C0_0_fd1c0504f4" x="50.486942" y="94.638179" style="fill: #ff0000; stroke: #ff0000"/>
    </g>
    <g clip-path="url(#p8b1a7ed9d2)">
     <use xlink:href="#C0_0_fd1c0504f4" x="53.822594" y="122.4046" style="stroke: #000000"/>
    </g>
    <g clip-path="url(#p8b1a7ed9d2)">
     <use xlink:href="#C0_0_fd1c0504f4" x="83.430303" y="84.395477" style="fill: #ff0000; stroke: #ff0000"/>
    </g>
    <g clip-path="url(#p8b1a7ed9d2)">
     <use xlink:href="#C0_0_fd1c0504f4" x="133.300862" y="314.322838" style="fill: #ff0000; stroke: #ff0000"/>
    </g>
   </g>
   <g id="text_1">
    <g clip-path="url(#p8b1a7ed9d2)">
     <!-- 0 -->
     <g transform="translate(240.808633 32.749458) scale(0.1 -0.1)">
      <defs>
       <path id="DejaVuSans-30" d="M 2034 4250 
Q 1547 4250 1301 3770 
Q 1056 3291 1056 2328 
Q 1056 1369 1301 889 
Q 1547 409 2034 409 
Q 2525 409 2770 889 
Q 3016 1369 3016 2328 
Q 3016 3291 2770 3770 
Q 2525 4250 2034 4250 
z
M 2034 4750 
Q 2819 4750 3233 4129 
Q 3647 3509 3647 2328 
Q 3647 1150 3233 529 
Q 2819 -91 2034 -91 
Q 1250 -91 836 529 
Q 422 1150 422 2328 
Q 422 3509 836 4129 
Q 1250 4750 2034 4750 
z
" transform="scale(0.015625)"/>
      </defs>
      <use xlink:href="#DejaVuSans-30"/>
     </g>
    </g>
   </g>
   <g id="text_2">
    <g clip-path="url(#p8b1a7ed9d2)">
     <!-- 1 -->
     <g transform="translate(296.218748 42.740096) scale(0.1 -0.1)">
      <defs>
       <path id="DejaVuSans-31" d="M 794 531 
L 1825 531 
L 1825 4091 
L 703 3866 
L 703 4441 
L 1819 4666 
L 2450 4666 
L 2450 531 
L 3481 531 
L 3481 0 
L 794 0 
L 794 531 
z
" transform="scale(0.015625)"/>
      </defs>
      <use xlink:href="#DejaVuSans-31"/>
     </g>
    </g>
   </g>
   <g id="text_3">
    <g clip-path="url(#p8b1a7ed9d2)">
     <!-- 2 -->
     <g transform="translate(129.150705 57.117239) scale(0.1 -0.1)">
      <defs>
       <path id="DejaVuSans-32" d="M 1228 531 
L 3431 531 
L 3431 0 
L 469 0 
L 469 531 
Q 828 903 1448 1529 
Q 2069 2156 2228 2338 
Q 2531 2678 2651 2914 
Q 2772 3150 2772 3378 
Q 2772 3750 2511 3984 
Q 2250 4219 1831 4219 
Q 1534 4219 1204 4116 
Q 875 4013 500 3803 
L 500 4441 
Q 881 4594 1212 4672 
Q 1544 4750 1819 4750 
Q 2544 4750 2975 4387 
Q 3406 4025 3406 3419 
Q 3406 3131 3298 2873 
Q 3191 2616 2906 2266 
Q 2828 2175 2409 1742 
Q 1991 1309 1228 531 
z
" transform="scale(0.015625)"/>
      </defs>
      <use xlink:href="#DejaVuSans-32"/>
     </g>
    </g>
   </g>
   <g id="text_4">
    <g clip-path="url(#p8b1a7ed9d2)">
     <!-- 3 -->
     <g transform="translate(184.016428 38.025065) scale(0.1 -0.1)">
      <defs>
       <path id="DejaVuSans-33" d="M 2597 2516 
Q 3050 2419 3304 2112 
Q 3559 1806 3559 1356 
Q 3559 666 3084 287 
Q 2609 -91 1734 -91 
Q 1441 -91 1130 -33 
Q 819 25 488 141 
L 488 750 
Q 750 597 1062 519 
Q 1375 441 1716 441 
Q 2309 441 2620 675 
Q 2931 909 2931 1356 
Q 2931 1769 2642 2001 
Q 2353 2234 1838 2234 
L 1294 2234 
L 1294 2753 
L 1863 2753 
Q 2328 2753 2575 2939 
Q 2822 3125 2822 3475 
Q 2822 3834 2567 4026 
Q 2313 4219 1838 4219 
Q 1578 4219 1281 4162 
Q 984 4106 628 3988 
L 628 4550 
Q 988 4650 1302 4700 
Q 1616 4750 1894 4750 
Q 2613 4750 3031 4423 
Q 3450 4097 3450 3541 
Q 3450 3153 3228 2886 
Q 3006 2619 2597 2516 
z
" transform="scale(0.015625)"/>
      </defs>
      <use xlink:href="#DejaVuSans-33"/>
     </g>
    </g>
   </g>
   <g id="text_5">
    <g clip-path="url(#p8b1a7ed9d2)">
     <!-- 4 -->
     <g transform="translate(417.631973 87.825487) scale(0.1 -0.1)">
      <defs>
       <path id="DejaVuSans-34" d="M 2419 4116 
L 825 1625 
L 2419 1625 
L 2419 4116 
z
M 2253 4666 
L 3047 4666 
L 3047 1625 
L 3713 1625 
L 3713 1100 
L 3047 1100 
L 3047 0 
L 2419 0 
L 2419 1100 
L 313 1100 
L 313 1709 
L 2253 4666 
z
" transform="scale(0.015625)"/>
      </defs>
      <use xlink:href="#DejaVuSans-34"/>
     </g>
    </g>
   </g>
   <g id="text_6">
    <g clip-path="url(#p8b1a7ed9d2)">
     <!-- 5 -->
     <g transform="translate(380.665192 152.703791) scale(0.1 -0.1)">
      <defs>
       <path id="DejaVuSans-35" d="M 691 4666 
L 3169 4666 
L 3169 4134 
L 1269 4134 
L 1269 2991 
Q 1406 3038 1543 3061 
Q 1681 3084 1819 3084 
Q 2600 3084 3056 2656 
Q 3513 2228 3513 1497 
Q 3513 744 3044 326 
Q 2575 -91 1722 -91 
Q 1428 -91 1123 -41 
Q 819 9 494 109 
L 494 744 
Q 775 591 1075 516 
Q 1375 441 1709 441 
Q 2250 441 2565 725 
Q 2881 1009 2881 1497 
Q 2881 1984 2565 2268 
Q 2250 2553 1709 2553 
Q 1456 2553 1204 2497 
Q 953 2441 691 2322 
L 691 4666 
z
" transform="scale(0.015625)"/>
      </defs>
      <use xlink:href="#DejaVuSans-35"/>
     </g>
    </g>
   </g>
   <g id="text_7">
    <g clip-path="url(#p8b1a7ed9d2)">
     <!-- 6 -->
     <g transform="translate(344.046837 67.179467) scale(0.1 -0.1)">
      <defs>
       <path id="DejaVuSans-36" d="M 2113 2584 
Q 1688 2584 1439 2293 
Q 1191 2003 1191 1497 
Q 1191 994 1439 701 
Q 1688 409 2113 409 
Q 2538 409 2786 701 
Q 3034 994 3034 1497 
Q 3034 2003 2786 2293 
Q 2538 2584 2113 2584 
z
M 3366 4563 
L 3366 3988 
Q 3128 4100 2886 4159 
Q 2644 4219 2406 4219 
Q 1781 4219 1451 3797 
Q 1122 3375 1075 2522 
Q 1259 2794 1537 2939 
Q 1816 3084 2150 3084 
Q 2853 3084 3261 2657 
Q 3669 2231 3669 1497 
Q 3669 778 3244 343 
Q 2819 -91 2113 -91 
Q 1303 -91 875 529 
Q 447 1150 447 2328 
Q 447 3434 972 4092 
Q 1497 4750 2381 4750 
Q 2619 4750 2861 4703 
Q 3103 4656 3366 4563 
z
" transform="scale(0.015625)"/>
      </defs>
      <use xlink:href="#DejaVuSans-36"/>
     </g>
    </g>
   </g>
   <g id="text_8">
    <g clip-path="url(#p8b1a7ed9d2)">
     <!-- 7 -->
     <g transform="translate(380.895877 103.348672) scale(0.1 -0.1)">
      <defs>
       <path id="DejaVuSans-37" d="M 525 4666 
L 3525 4666 
L 3525 4397 
L 1831 0 
L 1172 0 
L 2766 4134 
L 525 4134 
L 525 4666 
z
" transform="scale(0.015625)"/>
      </defs>
      <use xlink:href="#DejaVuSans-37"/>
     </g>
    </g>
   </g>
   <g id="text_9">
    <g clip-path="url(#p8b1a7ed9d2)">
     <!-- 8 -->
     <g transform="translate(368.172881 204.109105) scale(0.1 -0.1)">
      <defs>
       <path id="DejaVuSans-38" d="M 2034 2216 
Q 1584 2216 1326 1975 
Q 1069 1734 1069 1313 
Q 1069 891 1326 650 
Q 1584 409 2034 409 
Q 2484 409 2743 651 
Q 3003 894 3003 1313 
Q 3003 1734 2745 1975 
Q 2488 2216 2034 2216 
z
M 1403 2484 
Q 997 2584 770 2862 
Q 544 3141 544 3541 
Q 544 4100 942 4425 
Q 1341 4750 2034 4750 
Q 2731 4750 3128 4425 
Q 3525 4100 3525 3541 
Q 3525 3141 3298 2862 
Q 3072 2584 2669 2484 
Q 3125 2378 3379 2068 
Q 3634 1759 3634 1313 
Q 3634 634 3220 271 
Q 2806 -91 2034 -91 
Q 1263 -91 848 271 
Q 434 634 434 1313 
Q 434 1759 690 2068 
Q 947 2378 1403 2484 
z
M 1172 3481 
Q 1172 3119 1398 2916 
Q 1625 2713 2034 2713 
Q 2441 2713 2670 2916 
Q 2900 3119 2900 3481 
Q 2900 3844 2670 4047 
Q 2441 4250 2034 4250 
Q 1625 4250 1398 4047 
Q 1172 3844 1172 3481 
z
" transform="scale(0.015625)"/>
      </defs>
      <use xlink:href="#DejaVuSans-38"/>
     </g>
    </g>
   </g>
   <g id="text_10">
    <g clip-path="url(#p8b1a7ed9d2)">
     <!-- 9 -->
     <g transform="translate(327.338672 243.492271) scale(0.1 -0.1)">
      <defs>
       <path id="DejaVuSans-39" d="M 703 97 
L 703 672 
Q 941 559 1184 500 
Q 1428 441 1663 441 
Q 2288 441 2617 861 
Q 2947 1281 2994 2138 
Q 2813 1869 2534 1725 
Q 2256 1581 1919 1581 
Q 1219 1581 811 2004 
Q 403 2428 403 3163 
Q 403 3881 828 4315 
Q 1253 4750 1959 4750 
Q 2769 4750 3195 4129 
Q 3622 3509 3622 2328 
Q 3622 1225 3098 567 
Q 2575 -91 1691 -91 
Q 1453 -91 1209 -44 
Q 966 3 703 97 
z
M 1959 2075 
Q 2384 2075 2632 2365 
Q 2881 2656 2881 3163 
Q 2881 3666 2632 3958 
Q 2384 4250 1959 4250 
Q 1534 4250 1286 3958 
Q 1038 3666 1038 3163 
Q 1038 2656 1286 2365 
Q 1534 2075 1959 2075 
z
" transform="scale(0.015625)"/>
      </defs>
      <use xlink:href="#DejaVuSans-39"/>
     </g>
    </g>
   </g>
   <g id="text_11">
    <g clip-path="url(#p8b1a7ed9d2)">
     <!-- 10 -->
     <g transform="translate(358.349878 186.55111) scale(0.1 -0.1)">
      <use xlink:href="#DejaVuSans-31"/>
      <use xlink:href="#DejaVuSans-30" x="63.623047"/>
     </g>
    </g>
   </g>
   <g id="text_12">
    <g clip-path="url(#p8b1a7ed9d2)">
     <!-- 11 -->
     <g transform="translate(402.20311 219.935284) scale(0.1 -0.1)">
      <use xlink:href="#DejaVuSans-31"/>
      <use xlink:href="#DejaVuSans-31" x="63.623047"/>
     </g>
    </g>
   </g>
   <g id="text_13">
    <g clip-path="url(#p8b1a7ed9d2)">
     <!-- 12 -->
     <g transform="translate(279.653251 276.782065) scale(0.1 -0.1)">
      <use xlink:href="#DejaVuSans-31"/>
      <use xlink:href="#DejaVuSans-32" x="63.623047"/>
     </g>
    </g>
   </g>
   <g id="text_14">
    <g clip-path="url(#p8b1a7ed9d2)">
     <!-- 13 -->
     <g transform="translate(180.111635 318.369292) scale(0.1 -0.1)">
      <use xlink:href="#DejaVuSans-31"/>
      <use xlink:href="#DejaVuSans-33" x="63.623047"/>
     </g>
    </g>
   </g>
   <g id="text_15">
    <g clip-path="url(#p8b1a7ed9d2)">
     <!-- 14 -->
     <g transform="translate(232.203064 303.544717) scale(0.1 -0.1)">
      <use xlink:href="#DejaVuSans-31"/>
      <use xlink:href="#DejaVuSans-34" x="63.623047"/>
     </g>
    </g>
   </g>
   <g id="text_16">
    <g clip-path="url(#p8b1a7ed9d2)">
     <!-- 15 -->
     <g transform="translate(80.621376 297.616304) scale(0.1 -0.1)">
      <use xlink:href="#DejaVuSans-31"/>
      <use xlink:href="#DejaVuSans-35" x="63.623047"/>
     </g>
    </g>
   </g>
   <g id="text_17">
    <g clip-path="url(#p8b1a7ed9d2)">
     <!-- 16 -->
     <g transform="translate(48.631086 262.86396) scale(0.1 -0.1)">
      <use xlink:href="#DejaVuSans-31"/>
      <use xlink:href="#DejaVuSans-36" x="63.623047"/>
     </g>
    </g>
   </g>
   <g id="text_18">
    <g clip-path="url(#p8b1a7ed9d2)">
     <!-- 17 -->
     <g transform="translate(33.624277 219.81757) scale(0.1 -0.1)">
      <use xlink:href="#DejaVuSans-31"/>
      <use xlink:href="#DejaVuSans-37" x="63.623047"/>
     </g>
    </g>
   </g>
   <g id="text_19">
    <g clip-path="url(#p8b1a7ed9d2)">
     <!-- 18 -->
     <g transform="translate(33.803343 172.795076) scale(0.1 -0.1)">
      <use xlink:href="#DejaVuSans-31"/>
      <use xlink:href="#DejaVuSans-38" x="63.623047"/>
     </g>
    </g>
   </g>
   <g id="text_20">
    <g clip-path="url(#p8b1a7ed9d2)">
     <!-- 19 -->
     <g transform="translate(44.124442 97.397554) scale(0.1 -0.1)">
      <use xlink:href="#DejaVuSans-31"/>
      <use xlink:href="#DejaVuSans-39" x="63.623047"/>
     </g>
    </g>
   </g>
   <g id="text_21">
    <g clip-path="url(#p8b1a7ed9d2)">
     <!-- 20 -->
     <g transform="translate(47.460094 125.163975) scale(0.1 -0.1)">
      <use xlink:href="#DejaVuSans-32"/>
      <use xlink:href="#DejaVuSans-30" x="63.623047"/>
     </g>
    </g>
   </g>
   <g id="text_22">
    <g clip-path="url(#p8b1a7ed9d2)">
     <!-- 21 -->
     <g transform="translate(77.067803 87.154852) scale(0.1 -0.1)">
      <use xlink:href="#DejaVuSans-32"/>
      <use xlink:href="#DejaVuSans-31" x="63.623047"/>
     </g>
    </g>
   </g>
   <g id="text_23">
    <g clip-path="url(#p8b1a7ed9d2)">
     <!-- 22 -->
     <g transform="translate(126.938362 317.082213) scale(0.1 -0.1)">
      <use xlink:href="#DejaVuSans-32"/>
      <use xlink:href="#DejaVuSans-32" x="63.623047"/>
     </g>
    </g>
   </g>
  </g>
 </g>
 <defs>
  <clipPath id="p8b1a7ed9d2">
   <rect x="0" y="0" width="460.8" height="345.6"/>
  </clipPath>
 </defs>
</svg>
