<?xml version="1.0" encoding="utf-8" standalone="no"?>
<!DOCTYPE svg PUBLIC "-//W3C//DTD SVG 1.1//EN"
  "http://www.w3.org/Graphics/SVG/1.1/DTD/svg11.dtd">
<svg xmlns:xlink="http://www.w3.org/1999/xlink" width="460.8pt" height="345.6pt" viewBox="0 0 460.8 345.6" xmlns="http://www.w3.org/2000/svg" version="1.1">
 <metadata>
  <rdf:RDF xmlns:dc="http://purl.org/dc/elements/1.1/" xmlns:cc="http://creativecommons.org/ns#" xmlns:rdf="http://www.w3.org/1999/02/22-rdf-syntax-ns#">
   <cc:Work>
    <dc:type rdf:resource="http://purl.org/dc/dcmitype/StillImage"/>
    <dc:date>2024-02-28T11:16:44.001066</dc:date>
    <dc:format>image/svg+xml</dc:format>
    <dc:creator>
     <cc:Agent>
      <dc:title>Matplotlib v3.8.0, https://matplotlib.org/</dc:title>
     </cc:Agent>
    </dc:creator>
   </cc:Work>
  </rdf:RDF>
 </metadata>
 <defs>
  <style type="text/css">*{stroke-linejoin: round; stroke-linecap: butt}</style>
 </defs>
 <g id="figure_1">
  <g id="patch_1">
   <path d="M 0 345.6 
L 460.8 345.6 
L 460.8 0 
L 0 0 
z
" style="fill: #ffffff"/>
  </g>
  <g id="axes_1">
   <g id="patch_2">
    <path d="M 167.76288 196.736045 
Q 185.211124 190.060216 201.615155 183.78391 
" clip-path="url(#pe61f0d1ffe)" style="fill: none; stroke: #000000; stroke-linecap: round"/>
    <path d="M 197.164576 183.345344 
L 201.615155 183.78391 
L 198.593955 187.081234 
z
" clip-path="url(#pe61f0d1ffe)" style="stroke: #000000; stroke-linecap: round"/>
   </g>
   <g id="patch_3">
    <path d="M 167.728443 198.200652 
Q 191.126967 208.40244 213.500633 218.157388 
" clip-path="url(#pe61f0d1ffe)" style="fill: none; stroke: #000000; stroke-linecap: round"/>
    <path d="M 210.63332 214.725404 
L 213.500633 218.157388 
L 209.034658 218.392049 
z
" clip-path="url(#pe61f0d1ffe)" style="stroke: #000000; stroke-linecap: round"/>
   </g>
   <g id="patch_4">
    <path d="M 255.195753 304.857851 
Q 248.092582 286.103627 241.385416 268.394956 
" clip-path="url(#pe61f0d1ffe)" style="fill: none; stroke: #000000; stroke-linecap: round"/>
    <path d="M 240.931859 272.844033 
L 241.385416 268.394956 
L 244.672544 271.427247 
z
" clip-path="url(#pe61f0d1ffe)" style="stroke: #000000; stroke-linecap: round"/>
   </g>
   <g id="patch_5">
    <path d="M 255.080463 304.901711 
Q 236.090303 263.020963 217.561852 222.158461 
" clip-path="url(#pe61f0d1ffe)" style="fill: none; stroke: #000000; stroke-linecap: round"/>
    <path d="M 217.392213 226.627379 
L 217.561852 222.158461 
L 221.035202 224.975523 
z
" clip-path="url(#pe61f0d1ffe)" style="stroke: #000000; stroke-linecap: round"/>
   </g>
   <g id="patch_6">
    <path d="M 105.330784 182.748838 
Q 73.526231 166.889672 42.722221 151.52942 
" clip-path="url(#pe61f0d1ffe)" style="fill: none; stroke: #000000; stroke-linecap: round"/>
    <path d="M 45.409383 155.104215 
L 42.722221 151.52942 
L 47.194355 151.524568 
z
" clip-path="url(#pe61f0d1ffe)" style="stroke: #000000; stroke-linecap: round"/>
   </g>
   <g id="patch_7">
    <path d="M 106.908264 181.681861 
Q 105.575836 165.008431 104.33247 149.449482 
" clip-path="url(#pe61f0d1ffe)" style="fill: none; stroke: #000000; stroke-linecap: round"/>
    <path d="M 102.657463 153.596089 
L 104.33247 149.449482 
L 106.644752 153.277452 
z
" clip-path="url(#pe61f0d1ffe)" style="stroke: #000000; stroke-linecap: round"/>
   </g>
   <g id="patch_8">
    <path d="M 108.906075 184.215964 
Q 161.684374 201.49623 213.400141 218.428609 
" clip-path="url(#pe61f0d1ffe)" style="fill: none; stroke: #000000; stroke-linecap: round"/>
    <path d="M 210.221027 215.283258 
L 213.400141 218.428609 
L 208.976391 219.08469 
z
" clip-path="url(#pe61f0d1ffe)" style="stroke: #000000; stroke-linecap: round"/>
   </g>
   <g id="patch_9">
    <path d="M 41.71853 151.028935 
Q 73.523082 166.888101 104.327092 182.248353 
" clip-path="url(#pe61f0d1ffe)" style="fill: none; stroke: #000000; stroke-linecap: round"/>
    <path d="M 101.639931 178.673558 
L 104.327092 182.248353 
L 99.854959 182.253205 
z
" clip-path="url(#pe61f0d1ffe)" style="stroke: #000000; stroke-linecap: round"/>
   </g>
   <g id="patch_10">
    <path d="M 41.923455 150.051683 
Q 72.040524 148.283188 101.041481 146.580233 
" clip-path="url(#pe61f0d1ffe)" style="fill: none; stroke: #000000; stroke-linecap: round"/>
    <path d="M 96.93112 144.818151 
L 101.041481 146.580233 
L 97.165599 148.811273 
z
" clip-path="url(#pe61f0d1ffe)" style="stroke: #000000; stroke-linecap: round"/>
   </g>
   <g id="patch_11">
    <path d="M 202.657416 183.385133 
Q 185.209172 190.060962 168.805141 196.337268 
" clip-path="url(#pe61f0d1ffe)" style="fill: none; stroke: #000000; stroke-linecap: round"/>
    <path d="M 173.255721 196.775833 
L 168.805141 196.337268 
L 171.826341 193.039943 
z
" clip-path="url(#pe61f0d1ffe)" style="stroke: #000000; stroke-linecap: round"/>
   </g>
   <g id="patch_12">
    <path d="M 205.233768 184.470897 
Q 222.383704 224.114791 239.089736 262.732552 
" clip-path="url(#pe61f0d1ffe)" style="fill: none; stroke: #000000; stroke-linecap: round"/>
    <path d="M 239.337176 258.267267 
L 239.089736 262.732552 
L 235.665972 259.855429 
z
" clip-path="url(#pe61f0d1ffe)" style="stroke: #000000; stroke-linecap: round"/>
   </g>
   <g id="patch_13">
    <path d="M 206.320315 182.142565 
Q 266.884872 164.156433 326.377658 146.488589 
" clip-path="url(#pe61f0d1ffe)" style="fill: none; stroke: #000000; stroke-linecap: round"/>
    <path d="M 321.973803 145.710091 
L 326.377658 146.488589 
L 323.112547 149.544574 
z
" clip-path="url(#pe61f0d1ffe)" style="stroke: #000000; stroke-linecap: round"/>
   </g>
   <g id="patch_14">
    <path d="M 202.859218 183.775257 
Q 164.545144 209.585843 127.158328 234.771775 
" clip-path="url(#pe61f0d1ffe)" style="fill: none; stroke: #000000; stroke-linecap: round"/>
    <path d="M 131.593202 234.195671 
L 127.158328 234.771775 
L 129.35837 230.878213 
z
" clip-path="url(#pe61f0d1ffe)" style="stroke: #000000; stroke-linecap: round"/>
   </g>
   <g id="patch_15">
    <path d="M 202.642276 182.034582 
Q 154.27538 164.546886 106.959903 147.439345 
" clip-path="url(#pe61f0d1ffe)" style="fill: none; stroke: #000000; stroke-linecap: round"/>
    <path d="M 110.041534 150.680263 
L 106.959903 147.439345 
L 111.401617 146.918591 
z
" clip-path="url(#pe61f0d1ffe)" style="stroke: #000000; stroke-linecap: round"/>
   </g>
   <g id="patch_16">
    <path d="M 206.33371 183.207211 
Q 240.659692 192.64157 273.907616 201.779628 
" clip-path="url(#pe61f0d1ffe)" style="fill: none; stroke: #000000; stroke-linecap: round"/>
    <path d="M 270.58068 198.791068 
L 273.907616 201.779628 
L 269.520606 202.648041 
z
" clip-path="url(#pe61f0d1ffe)" style="stroke: #000000; stroke-linecap: round"/>
   </g>
   <g id="patch_17">
    <path d="M 203.993339 184.573568 
Q 193.152782 227.792097 182.584237 269.926185 
" clip-path="url(#pe61f0d1ffe)" style="fill: none; stroke: #000000; stroke-linecap: round"/>
    <path d="M 185.49732 266.532964 
L 182.584237 269.926185 
L 181.61751 265.559786 
z
" clip-path="url(#pe61f0d1ffe)" style="stroke: #000000; stroke-linecap: round"/>
   </g>
   <g id="patch_18">
    <path d="M 203.90271 180.842124 
Q 189.680085 134.00295 175.782303 88.233578 
" clip-path="url(#pe61f0d1ffe)" style="fill: none; stroke: #000000; stroke-linecap: round"/>
    <path d="M 175.030777 92.642116 
L 175.782303 88.233578 
L 178.858218 91.479921 
z
" clip-path="url(#pe61f0d1ffe)" style="stroke: #000000; stroke-linecap: round"/>
   </g>
   <g id="patch_19">
    <path d="M 384.462811 74.794092 
Q 357.480069 109.442275 331.184274 143.208356 
" clip-path="url(#pe61f0d1ffe)" style="fill: none; stroke: #000000; stroke-linecap: round"/>
    <path d="M 335.219925 141.281306 
L 331.184274 143.208356 
L 332.064025 138.823606 
z
" clip-path="url(#pe61f0d1ffe)" style="stroke: #000000; stroke-linecap: round"/>
   </g>
   <g id="patch_20">
    <path d="M 240.988675 267.347457 
Q 248.091845 286.101681 254.799012 303.810352 
" clip-path="url(#pe61f0d1ffe)" style="fill: none; stroke: #000000; stroke-linecap: round"/>
    <path d="M 255.252568 299.361275 
L 254.799012 303.810352 
L 251.511884 300.778061 
z
" clip-path="url(#pe61f0d1ffe)" style="stroke: #000000; stroke-linecap: round"/>
   </g>
   <g id="patch_21">
    <path d="M 239.534269 263.760138 
Q 222.384333 224.116244 205.678302 185.498483 
" clip-path="url(#pe61f0d1ffe)" style="fill: none; stroke: #000000; stroke-linecap: round"/>
    <path d="M 205.430861 189.963768 
L 205.678302 185.498483 
L 209.102066 188.375606 
z
" clip-path="url(#pe61f0d1ffe)" style="stroke: #000000; stroke-linecap: round"/>
   </g>
   <g id="patch_22">
    <path d="M 214.528272 218.60544 
Q 191.129748 208.403652 168.756082 198.648704 
" clip-path="url(#pe61f0d1ffe)" style="fill: none; stroke: #000000; stroke-linecap: round"/>
    <path d="M 171.623395 202.080688 
L 168.756082 198.648704 
L 173.222057 198.414044 
z
" clip-path="url(#pe61f0d1ffe)" style="stroke: #000000; stroke-linecap: round"/>
   </g>
   <g id="patch_23">
    <path d="M 217.102146 221.14463 
Q 236.092305 263.025378 254.620757 303.887879 
" clip-path="url(#pe61f0d1ffe)" style="fill: none; stroke: #000000; stroke-linecap: round"/>
    <path d="M 254.790396 299.418962 
L 254.620757 303.887879 
L 251.147406 301.070817 
z
" clip-path="url(#pe61f0d1ffe)" style="stroke: #000000; stroke-linecap: round"/>
   </g>
   <g id="patch_24">
    <path d="M 214.457781 218.774894 
Q 161.679481 201.494628 109.963715 184.562249 
" clip-path="url(#pe61f0d1ffe)" style="fill: none; stroke: #000000; stroke-linecap: round"/>
    <path d="M 113.142829 187.7076 
L 109.963715 184.562249 
L 114.387464 183.906169 
z
" clip-path="url(#pe61f0d1ffe)" style="stroke: #000000; stroke-linecap: round"/>
   </g>
   <g id="patch_25">
    <path d="M 217.925641 218.318282 
Q 272.805783 182.497562 326.749677 147.287939 
" clip-path="url(#pe61f0d1ffe)" style="fill: none; stroke: #000000; stroke-linecap: round"/>
    <path d="M 322.30689 147.799454 
L 326.749677 147.287939 
L 324.493217 151.149078 
z
" clip-path="url(#pe61f0d1ffe)" style="stroke: #000000; stroke-linecap: round"/>
   </g>
   <g id="patch_26">
    <path d="M 218.101585 220.097502 
Q 254.557076 234.65752 289.974281 248.802855 
" clip-path="url(#pe61f0d1ffe)" style="fill: none; stroke: #000000; stroke-linecap: round"/>
    <path d="M 287.001403 245.461898 
L 289.974281 248.802855 
L 285.517788 249.176583 
z
" clip-path="url(#pe61f0d1ffe)" style="stroke: #000000; stroke-linecap: round"/>
   </g>
   <g id="patch_27">
    <path d="M 215.893594 221.272695 
Q 205.944195 267.495573 196.230062 312.625451 
" clip-path="url(#pe61f0d1ffe)" style="fill: none; stroke: #000000; stroke-linecap: round"/>
    <path d="M 199.026995 309.135872 
L 196.230062 312.625451 
L 195.116559 308.294157 
z
" clip-path="url(#pe61f0d1ffe)" style="stroke: #000000; stroke-linecap: round"/>
   </g>
   <g id="patch_28">
    <path d="M 216.026426 217.46192 
Q 208.273141 163.405453 200.67859 110.455695 
" clip-path="url(#pe61f0d1ffe)" style="fill: none; stroke: #000000; stroke-linecap: round"/>
    <path d="M 199.266756 114.699128 
L 200.67859 110.455695 
L 203.226236 114.131222 
z
" clip-path="url(#pe61f0d1ffe)" style="stroke: #000000; stroke-linecap: round"/>
   </g>
   <g id="patch_29">
    <path d="M 214.764023 220.551788 
Q 176.638409 249.650082 139.401549 278.070058 
" clip-path="url(#pe61f0d1ffe)" style="fill: none; stroke: #000000; stroke-linecap: round"/>
    <path d="M 143.794667 277.233091 
L 139.401549 278.070058 
L 141.367846 274.053383 
z
" clip-path="url(#pe61f0d1ffe)" style="stroke: #000000; stroke-linecap: round"/>
   </g>
   <g id="patch_30">
    <path d="M 410.201503 106.863834 
Q 370.627083 125.823113 332.060958 144.299339 
" clip-path="url(#pe61f0d1ffe)" style="fill: none; stroke: #000000; stroke-linecap: round"/>
    <path d="M 336.532457 144.374808 
L 332.060958 144.299339 
L 334.804233 140.767421 
z
" clip-path="url(#pe61f0d1ffe)" style="stroke: #000000; stroke-linecap: round"/>
   </g>
   <g id="patch_31">
    <path d="M 402.824599 188.962062 
Q 366.899433 167.781709 331.937377 147.169175 
" clip-path="url(#pe61f0d1ffe)" style="fill: none; stroke: #000000; stroke-linecap: round"/>
    <path d="M 334.367358 150.923532 
L 331.937377 147.169175 
L 336.398851 147.477805 
z
" clip-path="url(#pe61f0d1ffe)" style="stroke: #000000; stroke-linecap: round"/>
   </g>
   <g id="patch_32">
    <path d="M 327.45188 146.169572 
Q 266.887323 164.155705 207.394537 181.823549 
" clip-path="url(#pe61f0d1ffe)" style="fill: none; stroke: #000000; stroke-linecap: round"/>
    <path d="M 211.798392 182.602046 
L 207.394537 181.823549 
L 210.659648 178.767563 
z
" clip-path="url(#pe61f0d1ffe)" style="stroke: #000000; stroke-linecap: round"/>
   </g>
   <g id="patch_33">
    <path d="M 330.49545 144.092866 
Q 357.478193 109.444684 383.773987 75.678602 
" clip-path="url(#pe61f0d1ffe)" style="fill: none; stroke: #000000; stroke-linecap: round"/>
    <path d="M 379.738336 77.605653 
L 383.773987 75.678602 
L 382.894237 80.063353 
z
" clip-path="url(#pe61f0d1ffe)" style="stroke: #000000; stroke-linecap: round"/>
   </g>
   <g id="patch_34">
    <path d="M 327.682972 146.67877 
Q 272.80283 182.49949 218.858937 217.709113 
" clip-path="url(#pe61f0d1ffe)" style="fill: none; stroke: #000000; stroke-linecap: round"/>
    <path d="M 223.301723 217.197598 
L 218.858937 217.709113 
L 221.115396 213.847974 
z
" clip-path="url(#pe61f0d1ffe)" style="stroke: #000000; stroke-linecap: round"/>
   </g>
   <g id="patch_35">
    <path d="M 331.055064 144.781241 
Q 370.629484 125.821963 409.195609 107.345737 
" clip-path="url(#pe61f0d1ffe)" style="fill: none; stroke: #000000; stroke-linecap: round"/>
    <path d="M 404.72411 107.270268 
L 409.195609 107.345737 
L 406.452334 110.877655 
z
" clip-path="url(#pe61f0d1ffe)" style="stroke: #000000; stroke-linecap: round"/>
   </g>
   <g id="patch_36">
    <path d="M 330.975379 146.602011 
Q 366.900545 167.782364 401.862601 188.394898 
" clip-path="url(#pe61f0d1ffe)" style="fill: none; stroke: #000000; stroke-linecap: round"/>
    <path d="M 399.43262 184.640541 
L 401.862601 188.394898 
L 397.401127 188.086269 
z
" clip-path="url(#pe61f0d1ffe)" style="stroke: #000000; stroke-linecap: round"/>
   </g>
   <g id="patch_37">
    <path d="M 331.242525 145.661992 
Q 375.058855 146.645335 417.757433 147.603592 
" clip-path="url(#pe61f0d1ffe)" style="fill: none; stroke: #000000; stroke-linecap: round"/>
    <path d="M 413.803313 145.514348 
L 417.757433 147.603592 
L 413.713566 149.513342 
z
" clip-path="url(#pe61f0d1ffe)" style="stroke: #000000; stroke-linecap: round"/>
   </g>
   <g id="patch_38">
    <path d="M 329.644853 143.709703 
Q 336.873189 102.834202 343.906835 63.059654 
" clip-path="url(#pe61f0d1ffe)" style="fill: none; stroke: #000000; stroke-linecap: round"/>
    <path d="M 341.240848 66.650268 
L 343.906835 63.059654 
L 345.179734 67.346812 
z
" clip-path="url(#pe61f0d1ffe)" style="stroke: #000000; stroke-linecap: round"/>
   </g>
   <g id="patch_39">
    <path d="M 418.877993 147.62874 
Q 375.061663 146.645398 332.363085 145.68714 
" clip-path="url(#pe61f0d1ffe)" style="fill: none; stroke: #000000; stroke-linecap: round"/>
    <path d="M 336.317205 147.776384 
L 332.363085 145.68714 
L 336.406952 143.777391 
z
" clip-path="url(#pe61f0d1ffe)" style="stroke: #000000; stroke-linecap: round"/>
   </g>
   <g id="patch_40">
    <path d="M 344.101218 61.960436 
Q 336.872882 102.835937 329.839236 142.610485 
" clip-path="url(#pe61f0d1ffe)" style="fill: none; stroke: #000000; stroke-linecap: round"/>
    <path d="M 332.505224 139.019871 
L 329.839236 142.610485 
L 328.566338 138.323327 
z
" clip-path="url(#pe61f0d1ffe)" style="stroke: #000000; stroke-linecap: round"/>
   </g>
   <g id="patch_41">
    <path d="M 126.229937 235.397193 
Q 164.544011 209.586607 201.930827 184.400675 
" clip-path="url(#pe61f0d1ffe)" style="fill: none; stroke: #000000; stroke-linecap: round"/>
    <path d="M 197.495953 184.976778 
L 201.930827 184.400675 
L 199.730785 188.294236 
z
" clip-path="url(#pe61f0d1ffe)" style="stroke: #000000; stroke-linecap: round"/>
   </g>
   <g id="patch_42">
    <path d="M 125.154071 238.343017 
Q 130.798701 258.203512 136.137676 276.988565 
" clip-path="url(#pe61f0d1ffe)" style="fill: none; stroke: #000000; stroke-linecap: round"/>
    <path d="M 136.967938 272.594175 
L 136.137676 276.988565 
L 133.120321 273.687721 
z
" clip-path="url(#pe61f0d1ffe)" style="stroke: #000000; stroke-linecap: round"/>
   </g>
   <g id="patch_43">
    <path d="M 104.243152 148.331794 
Q 105.57558 165.005224 106.818946 180.564173 
" clip-path="url(#pe61f0d1ffe)" style="fill: none; stroke: #000000; stroke-linecap: round"/>
    <path d="M 108.493953 176.417566 
L 106.818946 180.564173 
L 104.506664 176.736203 
z
" clip-path="url(#pe61f0d1ffe)" style="stroke: #000000; stroke-linecap: round"/>
   </g>
   <g id="patch_44">
    <path d="M 102.152201 146.515011 
Q 72.035132 148.283505 43.034175 149.98646 
" clip-path="url(#pe61f0d1ffe)" style="fill: none; stroke: #000000; stroke-linecap: round"/>
    <path d="M 47.144536 151.748542 
L 43.034175 149.98646 
L 46.910057 147.755421 
z
" clip-path="url(#pe61f0d1ffe)" style="stroke: #000000; stroke-linecap: round"/>
   </g>
   <g id="patch_45">
    <path d="M 105.911503 147.060282 
Q 154.278399 164.547978 201.593876 181.655519 
" clip-path="url(#pe61f0d1ffe)" style="fill: none; stroke: #000000; stroke-linecap: round"/>
    <path d="M 198.512245 178.414601 
L 201.593876 181.655519 
L 197.152163 182.176273 
z
" clip-path="url(#pe61f0d1ffe)" style="stroke: #000000; stroke-linecap: round"/>
   </g>
   <g id="patch_46">
    <path d="M 274.980464 202.074496 
Q 240.654482 192.640138 207.406558 183.502079 
" clip-path="url(#pe61f0d1ffe)" style="fill: none; stroke: #000000; stroke-linecap: round"/>
    <path d="M 210.733494 186.490639 
L 207.406558 183.502079 
L 211.793568 182.633666 
z
" clip-path="url(#pe61f0d1ffe)" style="stroke: #000000; stroke-linecap: round"/>
   </g>
   <g id="patch_47">
    <path d="M 277.468016 204.423244 
Q 284.831349 226.261981 291.837474 247.041283 
" clip-path="url(#pe61f0d1ffe)" style="fill: none; stroke: #000000; stroke-linecap: round"/>
    <path d="M 292.454662 242.61194 
L 291.837474 247.041283 
L 288.664312 243.889927 
z
" clip-path="url(#pe61f0d1ffe)" style="stroke: #000000; stroke-linecap: round"/>
   </g>
   <g id="patch_48">
    <path d="M 291.013529 249.217922 
Q 254.558038 234.657904 219.140833 220.512569 
" clip-path="url(#pe61f0d1ffe)" style="fill: none; stroke: #000000; stroke-linecap: round"/>
    <path d="M 222.113711 223.853526 
L 219.140833 220.512569 
L 223.597326 220.138841 
z
" clip-path="url(#pe61f0d1ffe)" style="stroke: #000000; stroke-linecap: round"/>
   </g>
   <g id="patch_49">
    <path d="M 292.195053 248.10182 
Q 284.831721 226.263083 277.825596 205.483781 
" clip-path="url(#pe61f0d1ffe)" style="fill: none; stroke: #000000; stroke-linecap: round"/>
    <path d="M 277.208408 209.913124 
L 277.825596 205.483781 
L 280.998757 208.635138 
z
" clip-path="url(#pe61f0d1ffe)" style="stroke: #000000; stroke-linecap: round"/>
   </g>
   <g id="patch_50">
    <path d="M 195.995385 313.715714 
Q 205.944784 267.492835 215.658917 222.362957 
" clip-path="url(#pe61f0d1ffe)" style="fill: none; stroke: #000000; stroke-linecap: round"/>
    <path d="M 212.861983 225.852536 
L 215.658917 222.362957 
L 216.77242 226.694251 
z
" clip-path="url(#pe61f0d1ffe)" style="stroke: #000000; stroke-linecap: round"/>
   </g>
   <g id="patch_51">
    <path d="M 194.994468 313.766438 
Q 188.714391 294.249685 182.776781 275.797224 
" clip-path="url(#pe61f0d1ffe)" style="fill: none; stroke: #000000; stroke-linecap: round"/>
    <path d="M 182.098164 280.217572 
L 182.776781 275.797224 
L 185.905889 278.992327 
z
" clip-path="url(#pe61f0d1ffe)" style="stroke: #000000; stroke-linecap: round"/>
   </g>
   <g id="patch_52">
    <path d="M 182.31259 271.009172 
Q 193.153147 227.790643 203.721692 185.656555 
" clip-path="url(#pe61f0d1ffe)" style="fill: none; stroke: #000000; stroke-linecap: round"/>
    <path d="M 200.80861 189.049776 
L 203.721692 185.656555 
L 204.68842 190.022954 
z
" clip-path="url(#pe61f0d1ffe)" style="stroke: #000000; stroke-linecap: round"/>
   </g>
   <g id="patch_53">
    <path d="M 182.434222 274.732644 
Q 188.714298 294.249396 194.651908 312.701857 
" clip-path="url(#pe61f0d1ffe)" style="fill: none; stroke: #000000; stroke-linecap: round"/>
    <path d="M 195.330526 308.281509 
L 194.651908 312.701857 
L 191.5228 309.506754 
z
" clip-path="url(#pe61f0d1ffe)" style="stroke: #000000; stroke-linecap: round"/>
   </g>
   <g id="patch_54">
    <path d="M 175.457525 87.163992 
Q 189.68015 134.003167 203.577932 179.772538 
" clip-path="url(#pe61f0d1ffe)" style="fill: none; stroke: #000000; stroke-linecap: round"/>
    <path d="M 204.329458 175.364 
L 203.577932 179.772538 
L 200.502017 176.526195 
z
" clip-path="url(#pe61f0d1ffe)" style="stroke: #000000; stroke-linecap: round"/>
   </g>
   <g id="patch_55">
    <path d="M 176.352809 86.584281 
Q 187.568245 96.370482 197.94126 105.421614 
" clip-path="url(#pe61f0d1ffe)" style="fill: none; stroke: #000000; stroke-linecap: round"/>
    <path d="M 196.242249 101.284784 
L 197.94126 105.421614 
L 193.61239 104.298725 
z
" clip-path="url(#pe61f0d1ffe)" style="stroke: #000000; stroke-linecap: round"/>
   </g>
   <g id="patch_56">
    <path d="M 174.873858 83.37774 
Q 174.588306 57.653322 174.315163 33.04687 
" clip-path="url(#pe61f0d1ffe)" style="fill: none; stroke: #000000; stroke-linecap: round"/>
    <path d="M 172.359685 37.068823 
L 174.315163 33.04687 
L 176.359439 37.024424 
z
" clip-path="url(#pe61f0d1ffe)" style="stroke: #000000; stroke-linecap: round"/>
   </g>
   <g id="patch_57">
    <path d="M 200.519746 109.34822 
Q 208.273031 163.404687 215.867582 216.354446 
" clip-path="url(#pe61f0d1ffe)" style="fill: none; stroke: #000000; stroke-linecap: round"/>
    <path d="M 217.279416 212.111013 
L 215.867582 216.354446 
L 213.319936 212.678919 
z
" clip-path="url(#pe61f0d1ffe)" style="stroke: #000000; stroke-linecap: round"/>
   </g>
   <g id="patch_58">
    <path d="M 198.78738 106.159909 
Q 187.571943 96.373708 177.198928 87.322576 
" clip-path="url(#pe61f0d1ffe)" style="fill: none; stroke: #000000; stroke-linecap: round"/>
    <path d="M 178.897939 91.459406 
L 177.198928 87.322576 
L 181.527799 88.445465 
z
" clip-path="url(#pe61f0d1ffe)" style="stroke: #000000; stroke-linecap: round"/>
   </g>
   <g id="patch_59">
    <path d="M 199.628407 105.59298 
Q 187.261913 68.707496 175.250816 32.882057 
" clip-path="url(#pe61f0d1ffe)" style="fill: none; stroke: #000000; stroke-linecap: round"/>
    <path d="M 174.626062 37.310339 
L 175.250816 32.882057 
L 178.418589 36.038829 
z
" clip-path="url(#pe61f0d1ffe)" style="stroke: #000000; stroke-linecap: round"/>
   </g>
   <g id="patch_60">
    <path d="M 174.302709 31.924883 
Q 174.588261 57.649301 174.861404 82.255753 
" clip-path="url(#pe61f0d1ffe)" style="fill: none; stroke: #000000; stroke-linecap: round"/>
    <path d="M 176.816881 78.2338 
L 174.861404 82.255753 
L 172.817128 78.278199 
z
" clip-path="url(#pe61f0d1ffe)" style="stroke: #000000; stroke-linecap: round"/>
   </g>
   <g id="patch_61">
    <path d="M 174.897677 31.828753 
Q 187.264172 68.714236 199.275269 104.539676 
" clip-path="url(#pe61f0d1ffe)" style="fill: none; stroke: #000000; stroke-linecap: round"/>
    <path d="M 199.900022 100.111393 
L 199.275269 104.539676 
L 196.107495 101.382904 
z
" clip-path="url(#pe61f0d1ffe)" style="stroke: #000000; stroke-linecap: round"/>
   </g>
   <g id="patch_62">
    <path d="M 138.509349 278.751005 
Q 176.634963 249.652711 213.871823 221.232735 
" clip-path="url(#pe61f0d1ffe)" style="fill: none; stroke: #000000; stroke-linecap: round"/>
    <path d="M 209.478705 222.069702 
L 213.871823 221.232735 
L 211.905526 225.24941 
z
" clip-path="url(#pe61f0d1ffe)" style="stroke: #000000; stroke-linecap: round"/>
   </g>
   <g id="patch_63">
    <path d="M 136.442238 278.060158 
Q 130.797608 258.199663 125.458633 239.414611 
" clip-path="url(#pe61f0d1ffe)" style="fill: none; stroke: #000000; stroke-linecap: round"/>
    <path d="M 124.628371 243.809001 
L 125.458633 239.414611 
L 128.475988 242.715454 
z
" clip-path="url(#pe61f0d1ffe)" style="stroke: #000000; stroke-linecap: round"/>
   </g>
   <g id="PathCollection_1">
    <defs>
     <path id="m94008948d7" d="M 0 1.936492 
C 0.513564 1.936492 1.006162 1.732451 1.369306 1.369306 
C 1.732451 1.006162 1.936492 0.513564 1.936492 0 
C 1.936492 -0.513564 1.732451 -1.006162 1.369306 -1.369306 
C 1.006162 -1.732451 0.513564 -1.936492 0 -1.936492 
C -0.513564 -1.936492 -1.006162 -1.732451 -1.369306 -1.369306 
C -1.732451 -1.006162 -1.936492 -0.513564 -1.936492 0 
C -1.936492 0.513564 -1.732451 1.006162 -1.369306 1.369306 
C -1.006162 1.732451 -0.513564 1.936492 0 1.936492 
z
" style="stroke: #1f78b4"/>
    </defs>
    <g clip-path="url(#pe61f0d1ffe)">
     <use xlink:href="#m94008948d7" x="165.955397" y="197.427602" style="fill: #1f78b4; stroke: #1f78b4"/>
     <use xlink:href="#m94008948d7" x="255.88129" y="306.66785" style="fill: #1f78b4; stroke: #1f78b4"/>
     <use xlink:href="#m94008948d7" x="107.062537" y="183.612367" style="fill: #1f78b4; stroke: #1f78b4"/>
     <use xlink:href="#m94008948d7" x="39.986777" y="150.165406" style="fill: #1f78b4; stroke: #1f78b4"/>
     <use xlink:href="#m94008948d7" x="204.4649" y="182.693576" style="fill: #1f78b4; stroke: #1f78b4"/>
     <use xlink:href="#m94008948d7" x="385.650966" y="73.268398" style="fill: #1f78b4; stroke: #1f78b4"/>
     <use xlink:href="#m94008948d7" x="240.303137" y="265.537459" style="fill: #1f78b4; stroke: #1f78b4"/>
     <use xlink:href="#m94008948d7" x="216.301319" y="219.378491" style="fill: #1f78b4; stroke: #1f78b4"/>
     <use xlink:href="#m94008948d7" x="411.949272" y="106.026515" style="fill: #1f78b4; stroke: #1f78b4"/>
     <use xlink:href="#m94008948d7" x="404.492683" y="189.945512" style="fill: #1f78b4; stroke: #1f78b4"/>
     <use xlink:href="#m94008948d7" x="329.307295" y="145.618561" style="fill: #1f78b4; stroke: #1f78b4"/>
     <use xlink:href="#m94008948d7" x="420.813223" y="147.672171" style="fill: #1f78b4; stroke: #1f78b4"/>
     <use xlink:href="#m94008948d7" x="344.438777" y="60.051578" style="fill: #1f78b4; stroke: #1f78b4"/>
     <use xlink:href="#m94008948d7" x="124.624255" y="236.478873" style="fill: #1f78b4; stroke: #1f78b4"/>
     <use xlink:href="#m94008948d7" x="104.088879" y="146.401288" style="fill: #1f78b4; stroke: #1f78b4"/>
     <use xlink:href="#m94008948d7" x="276.849274" y="202.588131" style="fill: #1f78b4; stroke: #1f78b4"/>
     <use xlink:href="#m94008948d7" x="292.813795" y="249.936933" style="fill: #1f78b4; stroke: #1f78b4"/>
     <use xlink:href="#m94008948d7" x="195.58766" y="315.609917" style="fill: #1f78b4; stroke: #1f78b4"/>
     <use xlink:href="#m94008948d7" x="181.841029" y="272.889164" style="fill: #1f78b4; stroke: #1f78b4"/>
     <use xlink:href="#m94008948d7" x="174.895335" y="85.31254" style="fill: #1f78b4; stroke: #1f78b4"/>
     <use xlink:href="#m94008948d7" x="200.244853" y="107.43165" style="fill: #1f78b4; stroke: #1f78b4"/>
     <use xlink:href="#m94008948d7" x="174.281231" y="29.990083" style="fill: #1f78b4; stroke: #1f78b4"/>
     <use xlink:href="#m94008948d7" x="136.972054" y="279.924302" style="fill: #1f78b4; stroke: #1f78b4"/>
    </g>
   </g>
   <g id="text_1">
    <g clip-path="url(#pe61f0d1ffe)">
     <!-- 0 -->
     <g transform="translate(162.774147 200.186977) scale(0.1 -0.1)">
      <defs>
       <path id="DejaVuSans-30" d="M 2034 4250 
Q 1547 4250 1301 3770 
Q 1056 3291 1056 2328 
Q 1056 1369 1301 889 
Q 1547 409 2034 409 
Q 2525 409 2770 889 
Q 3016 1369 3016 2328 
Q 3016 3291 2770 3770 
Q 2525 4250 2034 4250 
z
M 2034 4750 
Q 2819 4750 3233 4129 
Q 3647 3509 3647 2328 
Q 3647 1150 3233 529 
Q 2819 -91 2034 -91 
Q 1250 -91 836 529 
Q 422 1150 422 2328 
Q 422 3509 836 4129 
Q 1250 4750 2034 4750 
z
" transform="scale(0.015625)"/>
      </defs>
      <use xlink:href="#DejaVuSans-30"/>
     </g>
    </g>
   </g>
   <g id="text_2">
    <g clip-path="url(#pe61f0d1ffe)">
     <!-- 1 -->
     <g transform="translate(252.70004 309.427225) scale(0.1 -0.1)">
      <defs>
       <path id="DejaVuSans-31" d="M 794 531 
L 1825 531 
L 1825 4091 
L 703 3866 
L 703 4441 
L 1819 4666 
L 2450 4666 
L 2450 531 
L 3481 531 
L 3481 0 
L 794 0 
L 794 531 
z
" transform="scale(0.015625)"/>
      </defs>
      <use xlink:href="#DejaVuSans-31"/>
     </g>
    </g>
   </g>
   <g id="text_3">
    <g clip-path="url(#pe61f0d1ffe)">
     <!-- 2 -->
     <g transform="translate(103.881287 186.371742) scale(0.1 -0.1)">
      <defs>
       <path id="DejaVuSans-32" d="M 1228 531 
L 3431 531 
L 3431 0 
L 469 0 
L 469 531 
Q 828 903 1448 1529 
Q 2069 2156 2228 2338 
Q 2531 2678 2651 2914 
Q 2772 3150 2772 3378 
Q 2772 3750 2511 3984 
Q 2250 4219 1831 4219 
Q 1534 4219 1204 4116 
Q 875 4013 500 3803 
L 500 4441 
Q 881 4594 1212 4672 
Q 1544 4750 1819 4750 
Q 2544 4750 2975 4387 
Q 3406 4025 3406 3419 
Q 3406 3131 3298 2873 
Q 3191 2616 2906 2266 
Q 2828 2175 2409 1742 
Q 1991 1309 1228 531 
z
" transform="scale(0.015625)"/>
      </defs>
      <use xlink:href="#DejaVuSans-32"/>
     </g>
    </g>
   </g>
   <g id="text_4">
    <g clip-path="url(#pe61f0d1ffe)">
     <!-- 3 -->
     <g transform="translate(36.805527 152.924781) scale(0.1 -0.1)">
      <defs>
       <path id="DejaVuSans-33" d="M 2597 2516 
Q 3050 2419 3304 2112 
Q 3559 1806 3559 1356 
Q 3559 666 3084 287 
Q 2609 -91 1734 -91 
Q 1441 -91 1130 -33 
Q 819 25 488 141 
L 488 750 
Q 750 597 1062 519 
Q 1375 441 1716 441 
Q 2309 441 2620 675 
Q 2931 909 2931 1356 
Q 2931 1769 2642 2001 
Q 2353 2234 1838 2234 
L 1294 2234 
L 1294 2753 
L 1863 2753 
Q 2328 2753 2575 2939 
Q 2822 3125 2822 3475 
Q 2822 3834 2567 4026 
Q 2313 4219 1838 4219 
Q 1578 4219 1281 4162 
Q 984 4106 628 3988 
L 628 4550 
Q 988 4650 1302 4700 
Q 1616 4750 1894 4750 
Q 2613 4750 3031 4423 
Q 3450 4097 3450 3541 
Q 3450 3153 3228 2886 
Q 3006 2619 2597 2516 
z
" transform="scale(0.015625)"/>
      </defs>
      <use xlink:href="#DejaVuSans-33"/>
     </g>
    </g>
   </g>
   <g id="text_5">
    <g clip-path="url(#pe61f0d1ffe)">
     <!-- 4 -->
     <g transform="translate(201.28365 185.452951) scale(0.1 -0.1)">
      <defs>
       <path id="DejaVuSans-34" d="M 2419 4116 
L 825 1625 
L 2419 1625 
L 2419 4116 
z
M 2253 4666 
L 3047 4666 
L 3047 1625 
L 3713 1625 
L 3713 1100 
L 3047 1100 
L 3047 0 
L 2419 0 
L 2419 1100 
L 313 1100 
L 313 1709 
L 2253 4666 
z
" transform="scale(0.015625)"/>
      </defs>
      <use xlink:href="#DejaVuSans-34"/>
     </g>
    </g>
   </g>
   <g id="text_6">
    <g clip-path="url(#pe61f0d1ffe)">
     <!-- 5 -->
     <g transform="translate(382.469716 76.027773) scale(0.1 -0.1)">
      <defs>
       <path id="DejaVuSans-35" d="M 691 4666 
L 3169 4666 
L 3169 4134 
L 1269 4134 
L 1269 2991 
Q 1406 3038 1543 3061 
Q 1681 3084 1819 3084 
Q 2600 3084 3056 2656 
Q 3513 2228 3513 1497 
Q 3513 744 3044 326 
Q 2575 -91 1722 -91 
Q 1428 -91 1123 -41 
Q 819 9 494 109 
L 494 744 
Q 775 591 1075 516 
Q 1375 441 1709 441 
Q 2250 441 2565 725 
Q 2881 1009 2881 1497 
Q 2881 1984 2565 2268 
Q 2250 2553 1709 2553 
Q 1456 2553 1204 2497 
Q 953 2441 691 2322 
L 691 4666 
z
" transform="scale(0.015625)"/>
      </defs>
      <use xlink:href="#DejaVuSans-35"/>
     </g>
    </g>
   </g>
   <g id="text_7">
    <g clip-path="url(#pe61f0d1ffe)">
     <!-- 6 -->
     <g transform="translate(237.121887 268.296834) scale(0.1 -0.1)">
      <defs>
       <path id="DejaVuSans-36" d="M 2113 2584 
Q 1688 2584 1439 2293 
Q 1191 2003 1191 1497 
Q 1191 994 1439 701 
Q 1688 409 2113 409 
Q 2538 409 2786 701 
Q 3034 994 3034 1497 
Q 3034 2003 2786 2293 
Q 2538 2584 2113 2584 
z
M 3366 4563 
L 3366 3988 
Q 3128 4100 2886 4159 
Q 2644 4219 2406 4219 
Q 1781 4219 1451 3797 
Q 1122 3375 1075 2522 
Q 1259 2794 1537 2939 
Q 1816 3084 2150 3084 
Q 2853 3084 3261 2657 
Q 3669 2231 3669 1497 
Q 3669 778 3244 343 
Q 2819 -91 2113 -91 
Q 1303 -91 875 529 
Q 447 1150 447 2328 
Q 447 3434 972 4092 
Q 1497 4750 2381 4750 
Q 2619 4750 2861 4703 
Q 3103 4656 3366 4563 
z
" transform="scale(0.015625)"/>
      </defs>
      <use xlink:href="#DejaVuSans-36"/>
     </g>
    </g>
   </g>
   <g id="text_8">
    <g clip-path="url(#pe61f0d1ffe)">
     <!-- 7 -->
     <g transform="translate(213.120069 222.137866) scale(0.1 -0.1)">
      <defs>
       <path id="DejaVuSans-37" d="M 525 4666 
L 3525 4666 
L 3525 4397 
L 1831 0 
L 1172 0 
L 2766 4134 
L 525 4134 
L 525 4666 
z
" transform="scale(0.015625)"/>
      </defs>
      <use xlink:href="#DejaVuSans-37"/>
     </g>
    </g>
   </g>
   <g id="text_9">
    <g clip-path="url(#pe61f0d1ffe)">
     <!-- 8 -->
     <g transform="translate(408.768022 108.78589) scale(0.1 -0.1)">
      <defs>
       <path id="DejaVuSans-38" d="M 2034 2216 
Q 1584 2216 1326 1975 
Q 1069 1734 1069 1313 
Q 1069 891 1326 650 
Q 1584 409 2034 409 
Q 2484 409 2743 651 
Q 3003 894 3003 1313 
Q 3003 1734 2745 1975 
Q 2488 2216 2034 2216 
z
M 1403 2484 
Q 997 2584 770 2862 
Q 544 3141 544 3541 
Q 544 4100 942 4425 
Q 1341 4750 2034 4750 
Q 2731 4750 3128 4425 
Q 3525 4100 3525 3541 
Q 3525 3141 3298 2862 
Q 3072 2584 2669 2484 
Q 3125 2378 3379 2068 
Q 3634 1759 3634 1313 
Q 3634 634 3220 271 
Q 2806 -91 2034 -91 
Q 1263 -91 848 271 
Q 434 634 434 1313 
Q 434 1759 690 2068 
Q 947 2378 1403 2484 
z
M 1172 3481 
Q 1172 3119 1398 2916 
Q 1625 2713 2034 2713 
Q 2441 2713 2670 2916 
Q 2900 3119 2900 3481 
Q 2900 3844 2670 4047 
Q 2441 4250 2034 4250 
Q 1625 4250 1398 4047 
Q 1172 3844 1172 3481 
z
" transform="scale(0.015625)"/>
      </defs>
      <use xlink:href="#DejaVuSans-38"/>
     </g>
    </g>
   </g>
   <g id="text_10">
    <g clip-path="url(#pe61f0d1ffe)">
     <!-- 9 -->
     <g transform="translate(401.311433 192.704887) scale(0.1 -0.1)">
      <defs>
       <path id="DejaVuSans-39" d="M 703 97 
L 703 672 
Q 941 559 1184 500 
Q 1428 441 1663 441 
Q 2288 441 2617 861 
Q 2947 1281 2994 2138 
Q 2813 1869 2534 1725 
Q 2256 1581 1919 1581 
Q 1219 1581 811 2004 
Q 403 2428 403 3163 
Q 403 3881 828 4315 
Q 1253 4750 1959 4750 
Q 2769 4750 3195 4129 
Q 3622 3509 3622 2328 
Q 3622 1225 3098 567 
Q 2575 -91 1691 -91 
Q 1453 -91 1209 -44 
Q 966 3 703 97 
z
M 1959 2075 
Q 2384 2075 2632 2365 
Q 2881 2656 2881 3163 
Q 2881 3666 2632 3958 
Q 2384 4250 1959 4250 
Q 1534 4250 1286 3958 
Q 1038 3666 1038 3163 
Q 1038 2656 1286 2365 
Q 1534 2075 1959 2075 
z
" transform="scale(0.015625)"/>
      </defs>
      <use xlink:href="#DejaVuSans-39"/>
     </g>
    </g>
   </g>
   <g id="text_11">
    <g clip-path="url(#pe61f0d1ffe)">
     <!-- 10 -->
     <g transform="translate(322.944795 148.377936) scale(0.1 -0.1)">
      <use xlink:href="#DejaVuSans-31"/>
      <use xlink:href="#DejaVuSans-30" x="63.623047"/>
     </g>
    </g>
   </g>
   <g id="text_12">
    <g clip-path="url(#pe61f0d1ffe)">
     <!-- 11 -->
     <g transform="translate(414.450723 150.431546) scale(0.1 -0.1)">
      <use xlink:href="#DejaVuSans-31"/>
      <use xlink:href="#DejaVuSans-31" x="63.623047"/>
     </g>
    </g>
   </g>
   <g id="text_13">
    <g clip-path="url(#pe61f0d1ffe)">
     <!-- 12 -->
     <g transform="translate(338.076277 62.810953) scale(0.1 -0.1)">
      <use xlink:href="#DejaVuSans-31"/>
      <use xlink:href="#DejaVuSans-32" x="63.623047"/>
     </g>
    </g>
   </g>
   <g id="text_14">
    <g clip-path="url(#pe61f0d1ffe)">
     <!-- 13 -->
     <g transform="translate(118.261755 239.238248) scale(0.1 -0.1)">
      <use xlink:href="#DejaVuSans-31"/>
      <use xlink:href="#DejaVuSans-33" x="63.623047"/>
     </g>
    </g>
   </g>
   <g id="text_15">
    <g clip-path="url(#pe61f0d1ffe)">
     <!-- 14 -->
     <g transform="translate(97.726379 149.160663) scale(0.1 -0.1)">
      <use xlink:href="#DejaVuSans-31"/>
      <use xlink:href="#DejaVuSans-34" x="63.623047"/>
     </g>
    </g>
   </g>
   <g id="text_16">
    <g clip-path="url(#pe61f0d1ffe)">
     <!-- 15 -->
     <g transform="translate(270.486774 205.347506) scale(0.1 -0.1)">
      <use xlink:href="#DejaVuSans-31"/>
      <use xlink:href="#DejaVuSans-35" x="63.623047"/>
     </g>
    </g>
   </g>
   <g id="text_17">
    <g clip-path="url(#pe61f0d1ffe)">
     <!-- 16 -->
     <g transform="translate(286.451295 252.696308) scale(0.1 -0.1)">
      <use xlink:href="#DejaVuSans-31"/>
      <use xlink:href="#DejaVuSans-36" x="63.623047"/>
     </g>
    </g>
   </g>
   <g id="text_18">
    <g clip-path="url(#pe61f0d1ffe)">
     <!-- 17 -->
     <g transform="translate(189.22516 318.369292) scale(0.1 -0.1)">
      <use xlink:href="#DejaVuSans-31"/>
      <use xlink:href="#DejaVuSans-37" x="63.623047"/>
     </g>
    </g>
   </g>
   <g id="text_19">
    <g clip-path="url(#pe61f0d1ffe)">
     <!-- 18 -->
     <g transform="translate(175.478529 275.648539) scale(0.1 -0.1)">
      <use xlink:href="#DejaVuSans-31"/>
      <use xlink:href="#DejaVuSans-38" x="63.623047"/>
     </g>
    </g>
   </g>
   <g id="text_20">
    <g clip-path="url(#pe61f0d1ffe)">
     <!-- 19 -->
     <g transform="translate(168.532835 88.071915) scale(0.1 -0.1)">
      <use xlink:href="#DejaVuSans-31"/>
      <use xlink:href="#DejaVuSans-39" x="63.623047"/>
     </g>
    </g>
   </g>
   <g id="text_21">
    <g clip-path="url(#pe61f0d1ffe)">
     <!-- 20 -->
     <g transform="translate(193.882353 110.191025) scale(0.1 -0.1)">
      <use xlink:href="#DejaVuSans-32"/>
      <use xlink:href="#DejaVuSans-30" x="63.623047"/>
     </g>
    </g>
   </g>
   <g id="text_22">
    <g clip-path="url(#pe61f0d1ffe)">
     <!-- 21 -->
     <g transform="translate(167.918731 32.749458) scale(0.1 -0.1)">
      <use xlink:href="#DejaVuSans-32"/>
      <use xlink:href="#DejaVuSans-31" x="63.623047"/>
     </g>
    </g>
   </g>
   <g id="text_23">
    <g clip-path="url(#pe61f0d1ffe)">
     <!-- 22 -->
     <g transform="translate(130.609554 282.683677) scale(0.1 -0.1)">
      <use xlink:href="#DejaVuSans-32"/>
      <use xlink:href="#DejaVuSans-32" x="63.623047"/>
     </g>
    </g>
   </g>
  </g>
 </g>
 <defs>
  <clipPath id="pe61f0d1ffe">
   <rect x="0" y="0" width="460.8" height="345.6"/>
  </clipPath>
 </defs>
</svg>
