<?xml version="1.0" encoding="utf-8" standalone="no"?>
<!DOCTYPE svg PUBLIC "-//W3C//DTD SVG 1.1//EN"
  "http://www.w3.org/Graphics/SVG/1.1/DTD/svg11.dtd">
<svg xmlns:xlink="http://www.w3.org/1999/xlink" width="460.8pt" height="345.6pt" viewBox="0 0 460.8 345.6" xmlns="http://www.w3.org/2000/svg" version="1.1">
 <metadata>
  <rdf:RDF xmlns:dc="http://purl.org/dc/elements/1.1/" xmlns:cc="http://creativecommons.org/ns#" xmlns:rdf="http://www.w3.org/1999/02/22-rdf-syntax-ns#">
   <cc:Work>
    <dc:type rdf:resource="http://purl.org/dc/dcmitype/StillImage"/>
    <dc:date>2024-02-28T11:16:51.319824</dc:date>
    <dc:format>image/svg+xml</dc:format>
    <dc:creator>
     <cc:Agent>
      <dc:title>Matplotlib v3.8.0, https://matplotlib.org/</dc:title>
     </cc:Agent>
    </dc:creator>
   </cc:Work>
  </rdf:RDF>
 </metadata>
 <defs>
  <style type="text/css">*{stroke-linejoin: round; stroke-linecap: butt}</style>
 </defs>
 <g id="figure_1">
  <g id="patch_1">
   <path d="M 0 345.6 
L 460.8 345.6 
L 460.8 0 
L 0 0 
z
" style="fill: #ffffff"/>
  </g>
  <g id="axes_1">
   <g id="patch_2">
    <path d="M 41.803161 103.75449 
Q 135.217651 138.264063 227.583383 172.386199 
" clip-path="url(#p5b66b6cf72)" style="fill: none; stroke: #000000; stroke-linecap: round"/>
    <path d="M 224.5243 169.123989 
L 227.583383 172.386199 
L 223.138165 172.876139 
z
" clip-path="url(#p5b66b6cf72)" style="stroke: #000000; stroke-linecap: round"/>
   </g>
   <g id="patch_3">
    <path d="M 228.632089 172.773616 
Q 135.217599 138.264044 42.851868 104.141908 
" clip-path="url(#p5b66b6cf72)" style="fill: none; stroke: #000000; stroke-linecap: round"/>
    <path d="M 45.91095 107.404118 
L 42.851868 104.141908 
L 47.297085 103.651968 
z
" clip-path="url(#p5b66b6cf72)" style="stroke: #000000; stroke-linecap: round"/>
   </g>
   <g id="patch_4">
    <path d="M 228.64215 174.134163 
Q 136.350065 209.364923 45.102498 244.196959 
" clip-path="url(#p5b66b6cf72)" style="fill: none; stroke: #000000; stroke-linecap: round"/>
    <path d="M 49.552741 244.638928 
L 45.102498 244.196959 
L 48.126218 240.901946 
z
" clip-path="url(#p5b66b6cf72)" style="stroke: #000000; stroke-linecap: round"/>
   </g>
   <g id="patch_5">
    <path d="M 232.269743 174.108546 
Q 325.63093 208.141797 417.941699 241.792135 
" clip-path="url(#p5b66b6cf72)" style="fill: none; stroke: #000000; stroke-linecap: round"/>
    <path d="M 414.868583 238.543142 
L 417.941699 241.792135 
L 413.498634 242.301232 
z
" clip-path="url(#p5b66b6cf72)" style="stroke: #000000; stroke-linecap: round"/>
   </g>
   <g id="patch_6">
    <path d="M 232.255444 172.745905 
Q 324.583428 137.044078 415.868624 101.745481 
" clip-path="url(#p5b66b6cf72)" style="fill: none; stroke: #000000; stroke-linecap: round"/>
    <path d="M 411.416515 101.322726 
L 415.868624 101.745481 
L 412.859154 105.053515 
z
" clip-path="url(#p5b66b6cf72)" style="stroke: #000000; stroke-linecap: round"/>
   </g>
   <g id="patch_7">
    <path d="M 230.418954 171.505229 
Q 229.356723 101.717204 228.311508 33.047083 
" clip-path="url(#p5b66b6cf72)" style="fill: none; stroke: #000000; stroke-linecap: round"/>
    <path d="M 226.372616 37.077058 
L 228.311508 33.047083 
L 230.372153 37.016182 
z
" clip-path="url(#p5b66b6cf72)" style="stroke: #000000; stroke-linecap: round"/>
   </g>
   <g id="patch_8">
    <path d="M 230.47812 175.38396 
Q 231.535115 244.527664 232.57502 312.553465 
" clip-path="url(#p5b66b6cf72)" style="fill: none; stroke: #000000; stroke-linecap: round"/>
    <path d="M 234.513646 308.523362 
L 232.57502 312.553465 
L 230.514113 308.584503 
z
" clip-path="url(#p5b66b6cf72)" style="stroke: #000000; stroke-linecap: round"/>
   </g>
   <g id="patch_9">
    <path d="M 44.052563 244.597752 
Q 136.344648 209.366991 227.592215 174.534955 
" clip-path="url(#p5b66b6cf72)" style="fill: none; stroke: #000000; stroke-linecap: round"/>
    <path d="M 223.141972 174.092987 
L 227.592215 174.534955 
L 224.568494 177.829969 
z
" clip-path="url(#p5b66b6cf72)" style="stroke: #000000; stroke-linecap: round"/>
   </g>
   <g id="patch_10">
    <path d="M 418.991954 242.174988 
Q 325.630767 208.141737 233.319998 174.491399 
" clip-path="url(#p5b66b6cf72)" style="fill: none; stroke: #000000; stroke-linecap: round"/>
    <path d="M 236.393114 177.740392 
L 233.319998 174.491399 
L 237.763062 173.982302 
z
" clip-path="url(#p5b66b6cf72)" style="stroke: #000000; stroke-linecap: round"/>
   </g>
   <g id="patch_11">
    <path d="M 416.91114 101.342356 
Q 324.583156 137.044183 233.297959 172.34278 
" clip-path="url(#p5b66b6cf72)" style="fill: none; stroke: #000000; stroke-linecap: round"/>
    <path d="M 237.750069 172.765535 
L 233.297959 172.34278 
L 236.307429 169.034745 
z
" clip-path="url(#p5b66b6cf72)" style="stroke: #000000; stroke-linecap: round"/>
   </g>
   <g id="patch_12">
    <path d="M 228.294497 31.929486 
Q 229.356728 101.717511 230.401943 170.387632 
" clip-path="url(#p5b66b6cf72)" style="fill: none; stroke: #000000; stroke-linecap: round"/>
    <path d="M 232.340835 166.357657 
L 230.401943 170.387632 
L 228.341299 166.418533 
z
" clip-path="url(#p5b66b6cf72)" style="stroke: #000000; stroke-linecap: round"/>
   </g>
   <g id="patch_13">
    <path d="M 232.592098 313.67059 
Q 231.535103 244.526886 230.495197 176.501085 
" clip-path="url(#p5b66b6cf72)" style="fill: none; stroke: #000000; stroke-linecap: round"/>
    <path d="M 228.556571 180.531188 
L 230.495197 176.501085 
L 232.556104 180.470047 
z
" clip-path="url(#p5b66b6cf72)" style="stroke: #000000; stroke-linecap: round"/>
   </g>
   <g id="PathCollection_1">
    <defs>
     <path id="m737e150a65" d="M 0 1.936492 
C 0.513564 1.936492 1.006162 1.732451 1.369306 1.369306 
C 1.732451 1.006162 1.936492 0.513564 1.936492 0 
C 1.936492 -0.513564 1.732451 -1.006162 1.369306 -1.369306 
C 1.006162 -1.732451 0.513564 -1.936492 0 -1.936492 
C -0.513564 -1.936492 -1.006162 -1.732451 -1.369306 -1.369306 
C -1.732451 -1.006162 -1.936492 -0.513564 -1.936492 0 
C -1.936492 0.513564 -1.732451 1.006162 -1.369306 1.369306 
C -1.006162 1.732451 -0.513564 1.936492 0 1.936492 
z
" style="stroke: #1f78b4"/>
    </defs>
    <g clip-path="url(#p5b66b6cf72)">
     <use xlink:href="#m737e150a65" x="39.986777" y="103.083474" style="fill: #1f78b4; stroke: #1f78b4"/>
     <use xlink:href="#m737e150a65" x="230.448473" y="173.444633" style="fill: #1f78b4; stroke: #1f78b4"/>
     <use xlink:href="#m737e150a65" x="42.246239" y="245.287282" style="fill: #1f78b4; stroke: #1f78b4"/>
     <use xlink:href="#m737e150a65" x="420.813223" y="242.838901" style="fill: #1f78b4; stroke: #1f78b4"/>
     <use xlink:href="#m737e150a65" x="418.71811" y="100.643628" style="fill: #1f78b4; stroke: #1f78b4"/>
     <use xlink:href="#m737e150a65" x="228.264978" y="29.990083" style="fill: #1f78b4; stroke: #1f78b4"/>
     <use xlink:href="#m737e150a65" x="232.621744" y="315.609917" style="fill: #1f78b4; stroke: #1f78b4"/>
    </g>
   </g>
   <g id="text_1">
    <g clip-path="url(#p5b66b6cf72)">
     <!-- 0 -->
     <g transform="translate(36.805527 105.842849) scale(0.1 -0.1)">
      <defs>
       <path id="DejaVuSans-30" d="M 2034 4250 
Q 1547 4250 1301 3770 
Q 1056 3291 1056 2328 
Q 1056 1369 1301 889 
Q 1547 409 2034 409 
Q 2525 409 2770 889 
Q 3016 1369 3016 2328 
Q 3016 3291 2770 3770 
Q 2525 4250 2034 4250 
z
M 2034 4750 
Q 2819 4750 3233 4129 
Q 3647 3509 3647 2328 
Q 3647 1150 3233 529 
Q 2819 -91 2034 -91 
Q 1250 -91 836 529 
Q 422 1150 422 2328 
Q 422 3509 836 4129 
Q 1250 4750 2034 4750 
z
" transform="scale(0.015625)"/>
      </defs>
      <use xlink:href="#DejaVuSans-30"/>
     </g>
    </g>
   </g>
   <g id="text_2">
    <g clip-path="url(#p5b66b6cf72)">
     <!-- 1 -->
     <g transform="translate(227.267223 176.204008) scale(0.1 -0.1)">
      <defs>
       <path id="DejaVuSans-31" d="M 794 531 
L 1825 531 
L 1825 4091 
L 703 3866 
L 703 4441 
L 1819 4666 
L 2450 4666 
L 2450 531 
L 3481 531 
L 3481 0 
L 794 0 
L 794 531 
z
" transform="scale(0.015625)"/>
      </defs>
      <use xlink:href="#DejaVuSans-31"/>
     </g>
    </g>
   </g>
   <g id="text_3">
    <g clip-path="url(#p5b66b6cf72)">
     <!-- 2 -->
     <g transform="translate(39.064989 248.046657) scale(0.1 -0.1)">
      <defs>
       <path id="DejaVuSans-32" d="M 1228 531 
L 3431 531 
L 3431 0 
L 469 0 
L 469 531 
Q 828 903 1448 1529 
Q 2069 2156 2228 2338 
Q 2531 2678 2651 2914 
Q 2772 3150 2772 3378 
Q 2772 3750 2511 3984 
Q 2250 4219 1831 4219 
Q 1534 4219 1204 4116 
Q 875 4013 500 3803 
L 500 4441 
Q 881 4594 1212 4672 
Q 1544 4750 1819 4750 
Q 2544 4750 2975 4387 
Q 3406 4025 3406 3419 
Q 3406 3131 3298 2873 
Q 3191 2616 2906 2266 
Q 2828 2175 2409 1742 
Q 1991 1309 1228 531 
z
" transform="scale(0.015625)"/>
      </defs>
      <use xlink:href="#DejaVuSans-32"/>
     </g>
    </g>
   </g>
   <g id="text_4">
    <g clip-path="url(#p5b66b6cf72)">
     <!-- 3 -->
     <g transform="translate(417.631973 245.598276) scale(0.1 -0.1)">
      <defs>
       <path id="DejaVuSans-33" d="M 2597 2516 
Q 3050 2419 3304 2112 
Q 3559 1806 3559 1356 
Q 3559 666 3084 287 
Q 2609 -91 1734 -91 
Q 1441 -91 1130 -33 
Q 819 25 488 141 
L 488 750 
Q 750 597 1062 519 
Q 1375 441 1716 441 
Q 2309 441 2620 675 
Q 2931 909 2931 1356 
Q 2931 1769 2642 2001 
Q 2353 2234 1838 2234 
L 1294 2234 
L 1294 2753 
L 1863 2753 
Q 2328 2753 2575 2939 
Q 2822 3125 2822 3475 
Q 2822 3834 2567 4026 
Q 2313 4219 1838 4219 
Q 1578 4219 1281 4162 
Q 984 4106 628 3988 
L 628 4550 
Q 988 4650 1302 4700 
Q 1616 4750 1894 4750 
Q 2613 4750 3031 4423 
Q 3450 4097 3450 3541 
Q 3450 3153 3228 2886 
Q 3006 2619 2597 2516 
z
" transform="scale(0.015625)"/>
      </defs>
      <use xlink:href="#DejaVuSans-33"/>
     </g>
    </g>
   </g>
   <g id="text_5">
    <g clip-path="url(#p5b66b6cf72)">
     <!-- 4 -->
     <g transform="translate(415.53686 103.403003) scale(0.1 -0.1)">
      <defs>
       <path id="DejaVuSans-34" d="M 2419 4116 
L 825 1625 
L 2419 1625 
L 2419 4116 
z
M 2253 4666 
L 3047 4666 
L 3047 1625 
L 3713 1625 
L 3713 1100 
L 3047 1100 
L 3047 0 
L 2419 0 
L 2419 1100 
L 313 1100 
L 313 1709 
L 2253 4666 
z
" transform="scale(0.015625)"/>
      </defs>
      <use xlink:href="#DejaVuSans-34"/>
     </g>
    </g>
   </g>
   <g id="text_6">
    <g clip-path="url(#p5b66b6cf72)">
     <!-- 5 -->
     <g transform="translate(225.083728 32.749458) scale(0.1 -0.1)">
      <defs>
       <path id="DejaVuSans-35" d="M 691 4666 
L 3169 4666 
L 3169 4134 
L 1269 4134 
L 1269 2991 
Q 1406 3038 1543 3061 
Q 1681 3084 1819 3084 
Q 2600 3084 3056 2656 
Q 3513 2228 3513 1497 
Q 3513 744 3044 326 
Q 2575 -91 1722 -91 
Q 1428 -91 1123 -41 
Q 819 9 494 109 
L 494 744 
Q 775 591 1075 516 
Q 1375 441 1709 441 
Q 2250 441 2565 725 
Q 2881 1009 2881 1497 
Q 2881 1984 2565 2268 
Q 2250 2553 1709 2553 
Q 1456 2553 1204 2497 
Q 953 2441 691 2322 
L 691 4666 
z
" transform="scale(0.015625)"/>
      </defs>
      <use xlink:href="#DejaVuSans-35"/>
     </g>
    </g>
   </g>
   <g id="text_7">
    <g clip-path="url(#p5b66b6cf72)">
     <!-- 6 -->
     <g transform="translate(229.440494 318.369292) scale(0.1 -0.1)">
      <defs>
       <path id="DejaVuSans-36" d="M 2113 2584 
Q 1688 2584 1439 2293 
Q 1191 2003 1191 1497 
Q 1191 994 1439 701 
Q 1688 409 2113 409 
Q 2538 409 2786 701 
Q 3034 994 3034 1497 
Q 3034 2003 2786 2293 
Q 2538 2584 2113 2584 
z
M 3366 4563 
L 3366 3988 
Q 3128 4100 2886 4159 
Q 2644 4219 2406 4219 
Q 1781 4219 1451 3797 
Q 1122 3375 1075 2522 
Q 1259 2794 1537 2939 
Q 1816 3084 2150 3084 
Q 2853 3084 3261 2657 
Q 3669 2231 3669 1497 
Q 3669 778 3244 343 
Q 2819 -91 2113 -91 
Q 1303 -91 875 529 
Q 447 1150 447 2328 
Q 447 3434 972 4092 
Q 1497 4750 2381 4750 
Q 2619 4750 2861 4703 
Q 3103 4656 3366 4563 
z
" transform="scale(0.015625)"/>
      </defs>
      <use xlink:href="#DejaVuSans-36"/>
     </g>
    </g>
   </g>
  </g>
 </g>
 <defs>
  <clipPath id="p5b66b6cf72">
   <rect x="0" y="0" width="460.8" height="345.6"/>
  </clipPath>
 </defs>
</svg>
