<?xml version="1.0" encoding="utf-8" standalone="no"?>
<!DOCTYPE svg PUBLIC "-//W3C//DTD SVG 1.1//EN"
  "http://www.w3.org/Graphics/SVG/1.1/DTD/svg11.dtd">
<svg xmlns:xlink="http://www.w3.org/1999/xlink" width="460.8pt" height="345.6pt" viewBox="0 0 460.8 345.6" xmlns="http://www.w3.org/2000/svg" version="1.1">
 <metadata>
  <rdf:RDF xmlns:dc="http://purl.org/dc/elements/1.1/" xmlns:cc="http://creativecommons.org/ns#" xmlns:rdf="http://www.w3.org/1999/02/22-rdf-syntax-ns#">
   <cc:Work>
    <dc:type rdf:resource="http://purl.org/dc/dcmitype/StillImage"/>
    <dc:date>2024-02-28T11:16:55.979271</dc:date>
    <dc:format>image/svg+xml</dc:format>
    <dc:creator>
     <cc:Agent>
      <dc:title>Matplotlib v3.8.0, https://matplotlib.org/</dc:title>
     </cc:Agent>
    </dc:creator>
   </cc:Work>
  </rdf:RDF>
 </metadata>
 <defs>
  <style type="text/css">*{stroke-linejoin: round; stroke-linecap: butt}</style>
 </defs>
 <g id="figure_1">
  <g id="patch_1">
   <path d="M 0 345.6 
L 460.8 345.6 
L 460.8 0 
L 0 0 
z
" style="fill: #ffffff"/>
  </g>
  <g id="axes_1">
   <g id="patch_2">
    <path d="M 202.361329 130.529085 
Q 210.425044 108.057371 218.111141 86.63799 
" clip-path="url(#pde41a37d0f)" style="fill: none; stroke: #000000; stroke-linecap: round"/>
    <path d="M 214.877665 89.727429 
L 218.111141 86.63799 
L 218.642606 91.078435 
z
" clip-path="url(#pde41a37d0f)" style="stroke: #000000; stroke-linecap: round"/>
   </g>
   <g id="patch_3">
    <path d="M 202.361329 130.529085 
Q 210.425044 108.057371 218.111141 86.63799 
" clip-path="url(#pde41a37d0f)" style="fill: none; stroke: #000000; stroke-linecap: round"/>
    <path d="M 214.877665 89.727429 
L 218.111141 86.63799 
L 218.642606 91.078435 
z
" clip-path="url(#pde41a37d0f)" style="stroke: #000000; stroke-linecap: round"/>
   </g>
   <g id="patch_4">
    <path d="M 201.519163 134.281567 
Q 197.834541 172.147366 194.2582 208.900388 
" clip-path="url(#pde41a37d0f)" style="fill: none; stroke: #000000; stroke-linecap: round"/>
    <path d="M 196.636198 205.112892 
L 194.2582 208.900388 
L 192.655002 204.725492 
z
" clip-path="url(#pde41a37d0f)" style="stroke: #000000; stroke-linecap: round"/>
   </g>
   <g id="patch_5">
    <path d="M 147.892662 282.121517 
Q 147.645795 297.898919 147.41642 312.558425 
" clip-path="url(#pde41a37d0f)" style="fill: none; stroke: #000000; stroke-linecap: round"/>
    <path d="M 149.478755 308.590204 
L 147.41642 312.558425 
L 145.479244 308.527624 
z
" clip-path="url(#pde41a37d0f)" style="stroke: #000000; stroke-linecap: round"/>
   </g>
   <g id="patch_6">
    <path d="M 149.164843 278.699228 
Q 169.52361 254.281985 189.1664 230.723448 
" clip-path="url(#pde41a37d0f)" style="fill: none; stroke: #000000; stroke-linecap: round"/>
    <path d="M 185.068741 232.514868 
L 189.1664 230.723448 
L 188.140941 235.076427 
z
" clip-path="url(#pde41a37d0f)" style="stroke: #000000; stroke-linecap: round"/>
   </g>
   <g id="patch_7">
    <path d="M 261.779616 37.536267 
Q 241.118532 59.936566 221.215469 81.515035 
" clip-path="url(#pde41a37d0f)" style="fill: none; stroke: #000000; stroke-linecap: round"/>
    <path d="M 225.397581 79.930757 
L 221.215469 81.515035 
L 222.457314 77.218779 
z
" clip-path="url(#pde41a37d0f)" style="stroke: #000000; stroke-linecap: round"/>
   </g>
   <g id="patch_8">
    <path d="M 265.017788 35.918682 
Q 293.265503 33.052263 320.400897 30.298717 
" clip-path="url(#pde41a37d0f)" style="fill: none; stroke: #000000; stroke-linecap: round"/>
    <path d="M 316.219421 28.712759 
L 320.400897 30.298717 
L 316.623245 32.692323 
z
" clip-path="url(#pde41a37d0f)" style="stroke: #000000; stroke-linecap: round"/>
   </g>
   <g id="patch_9">
    <path d="M 218.488773 85.585615 
Q 210.425059 108.057329 202.738961 129.47671 
" clip-path="url(#pde41a37d0f)" style="fill: none; stroke: #000000; stroke-linecap: round"/>
    <path d="M 205.972438 126.387272 
L 202.738961 129.47671 
L 202.207496 125.036266 
z
" clip-path="url(#pde41a37d0f)" style="stroke: #000000; stroke-linecap: round"/>
   </g>
   <g id="patch_10">
    <path d="M 218.488773 85.585615 
Q 210.425059 108.057329 202.738961 129.47671 
" clip-path="url(#pde41a37d0f)" style="fill: none; stroke: #000000; stroke-linecap: round"/>
    <path d="M 205.972438 126.387272 
L 202.738961 129.47671 
L 202.207496 125.036266 
z
" clip-path="url(#pde41a37d0f)" style="stroke: #000000; stroke-linecap: round"/>
   </g>
   <g id="patch_11">
    <path d="M 220.45496 82.339563 
Q 241.116044 59.939264 261.019107 38.360795 
" clip-path="url(#pde41a37d0f)" style="fill: none; stroke: #000000; stroke-linecap: round"/>
    <path d="M 256.836995 39.945074 
L 261.019107 38.360795 
L 259.777263 42.657052 
z
" clip-path="url(#pde41a37d0f)" style="stroke: #000000; stroke-linecap: round"/>
   </g>
   <g id="patch_12">
    <path d="M 194.149853 210.013836 
Q 197.834476 172.148037 201.410816 135.395015 
" clip-path="url(#pde41a37d0f)" style="fill: none; stroke: #000000; stroke-linecap: round"/>
    <path d="M 199.032819 139.182511 
L 201.410816 135.395015 
L 203.014015 139.569911 
z
" clip-path="url(#pde41a37d0f)" style="stroke: #000000; stroke-linecap: round"/>
   </g>
   <g id="patch_13">
    <path d="M 193.458815 213.81096 
Q 185.631813 242.865662 178.09563 270.840816 
" clip-path="url(#pde41a37d0f)" style="fill: none; stroke: #000000; stroke-linecap: round"/>
    <path d="M 181.067247 267.498737 
L 178.09563 270.840816 
L 177.204937 266.458275 
z
" clip-path="url(#pde41a37d0f)" style="stroke: #000000; stroke-linecap: round"/>
   </g>
   <g id="patch_14">
    <path d="M 192.067088 211.541168 
Q 151.601867 202.974687 112.230439 194.639761 
" clip-path="url(#pde41a37d0f)" style="fill: none; stroke: #000000; stroke-linecap: round"/>
    <path d="M 115.72949 197.424835 
L 112.230439 194.639761 
L 116.557929 193.511564 
z
" clip-path="url(#pde41a37d0f)" style="stroke: #000000; stroke-linecap: round"/>
   </g>
   <g id="patch_15">
    <path d="M 195.597876 212.973923 
Q 234.504861 237.511044 272.466169 261.451763 
" clip-path="url(#pde41a37d0f)" style="fill: none; stroke: #000000; stroke-linecap: round"/>
    <path d="M 270.149688 257.626333 
L 272.466169 261.451763 
L 268.015936 261.00969 
z
" clip-path="url(#pde41a37d0f)" style="stroke: #000000; stroke-linecap: round"/>
   </g>
   <g id="patch_16">
    <path d="M 193.633112 213.848007 
Q 192.543848 220.155705 191.64484 225.361676 
" clip-path="url(#pde41a37d0f)" style="fill: none; stroke: #000000; stroke-linecap: round"/>
    <path d="M 194.296347 221.760355 
L 191.64484 225.361676 
L 190.354687 221.079678 
z
" clip-path="url(#pde41a37d0f)" style="stroke: #000000; stroke-linecap: round"/>
   </g>
   <g id="patch_17">
    <path d="M 193.633112 213.848007 
Q 192.543848 220.155705 191.64484 225.361676 
" clip-path="url(#pde41a37d0f)" style="fill: none; stroke: #000000; stroke-linecap: round"/>
    <path d="M 194.296347 221.760355 
L 191.64484 225.361676 
L 190.354687 221.079678 
z
" clip-path="url(#pde41a37d0f)" style="stroke: #000000; stroke-linecap: round"/>
   </g>
   <g id="patch_18">
    <path d="M 193.633112 213.848007 
Q 192.543848 220.155705 191.64484 225.361676 
" clip-path="url(#pde41a37d0f)" style="fill: none; stroke: #000000; stroke-linecap: round"/>
    <path d="M 194.296347 221.760355 
L 191.64484 225.361676 
L 190.354687 221.079678 
z
" clip-path="url(#pde41a37d0f)" style="stroke: #000000; stroke-linecap: round"/>
   </g>
   <g id="patch_19">
    <path d="M 193.633112 213.848007 
Q 192.543848 220.155705 191.64484 225.361676 
" clip-path="url(#pde41a37d0f)" style="fill: none; stroke: #000000; stroke-linecap: round"/>
    <path d="M 194.296347 221.760355 
L 191.64484 225.361676 
L 190.354687 221.079678 
z
" clip-path="url(#pde41a37d0f)" style="stroke: #000000; stroke-linecap: round"/>
   </g>
   <g id="patch_20">
    <path d="M 94.4534 234.921879 
Q 70.102699 232.882768 46.866133 230.936955 
" clip-path="url(#pde41a37d0f)" style="fill: none; stroke: #000000; stroke-linecap: round"/>
    <path d="M 50.685287 233.263768 
L 46.866133 230.936955 
L 51.019076 229.277719 
z
" clip-path="url(#pde41a37d0f)" style="stroke: #000000; stroke-linecap: round"/>
   </g>
   <g id="patch_21">
    <path d="M 94.4534 234.921879 
Q 70.102699 232.882768 46.866133 230.936955 
" clip-path="url(#pde41a37d0f)" style="fill: none; stroke: #000000; stroke-linecap: round"/>
    <path d="M 50.685287 233.263768 
L 46.866133 230.936955 
L 51.019076 229.277719 
z
" clip-path="url(#pde41a37d0f)" style="stroke: #000000; stroke-linecap: round"/>
   </g>
   <g id="patch_22">
    <path d="M 98.315745 234.946374 
Q 143.752877 231.729193 188.074767 228.590977 
" clip-path="url(#pde41a37d0f)" style="fill: none; stroke: #000000; stroke-linecap: round"/>
    <path d="M 183.9435 226.878484 
L 188.074767 228.590977 
L 184.226013 230.868495 
z
" clip-path="url(#pde41a37d0f)" style="stroke: #000000; stroke-linecap: round"/>
   </g>
   <g id="patch_23">
    <path d="M 147.398915 313.677146 
Q 147.645782 297.899743 147.875158 283.240238 
" clip-path="url(#pde41a37d0f)" style="fill: none; stroke: #000000; stroke-linecap: round"/>
    <path d="M 145.812823 287.208458 
L 147.875158 283.240238 
L 149.812333 287.271038 
z
" clip-path="url(#pde41a37d0f)" style="stroke: #000000; stroke-linecap: round"/>
   </g>
   <g id="patch_24">
    <path d="M 148.49588 314.035075 
Q 162.334895 294.700322 175.523179 276.274717 
" clip-path="url(#pde41a37d0f)" style="fill: none; stroke: #000000; stroke-linecap: round"/>
    <path d="M 171.568722 278.363322 
L 175.523179 276.274717 
L 174.821388 280.691446 
z
" clip-path="url(#pde41a37d0f)" style="stroke: #000000; stroke-linecap: round"/>
   </g>
   <g id="patch_25">
    <path d="M 189.882529 229.86456 
Q 169.523762 254.281803 149.880972 277.84034 
" clip-path="url(#pde41a37d0f)" style="fill: none; stroke: #000000; stroke-linecap: round"/>
    <path d="M 153.978632 276.048919 
L 149.880972 277.84034 
L 150.906431 273.48736 
z
" clip-path="url(#pde41a37d0f)" style="stroke: #000000; stroke-linecap: round"/>
   </g>
   <g id="patch_26">
    <path d="M 191.45355 226.469397 
Q 192.542814 220.161699 193.441822 214.955728 
" clip-path="url(#pde41a37d0f)" style="fill: none; stroke: #000000; stroke-linecap: round"/>
    <path d="M 190.790315 218.557048 
L 193.441822 214.955728 
L 194.731975 219.237725 
z
" clip-path="url(#pde41a37d0f)" style="stroke: #000000; stroke-linecap: round"/>
   </g>
   <g id="patch_27">
    <path d="M 191.45355 226.469397 
Q 192.542814 220.161699 193.441822 214.955728 
" clip-path="url(#pde41a37d0f)" style="fill: none; stroke: #000000; stroke-linecap: round"/>
    <path d="M 190.790315 218.557048 
L 193.441822 214.955728 
L 194.731975 219.237725 
z
" clip-path="url(#pde41a37d0f)" style="stroke: #000000; stroke-linecap: round"/>
   </g>
   <g id="patch_28">
    <path d="M 191.45355 226.469397 
Q 192.542814 220.161699 193.441822 214.955728 
" clip-path="url(#pde41a37d0f)" style="fill: none; stroke: #000000; stroke-linecap: round"/>
    <path d="M 190.790315 218.557048 
L 193.441822 214.955728 
L 194.731975 219.237725 
z
" clip-path="url(#pde41a37d0f)" style="stroke: #000000; stroke-linecap: round"/>
   </g>
   <g id="patch_29">
    <path d="M 191.45355 226.469397 
Q 192.542814 220.161699 193.441822 214.955728 
" clip-path="url(#pde41a37d0f)" style="fill: none; stroke: #000000; stroke-linecap: round"/>
    <path d="M 190.790315 218.557048 
L 193.441822 214.955728 
L 194.731975 219.237725 
z
" clip-path="url(#pde41a37d0f)" style="stroke: #000000; stroke-linecap: round"/>
   </g>
   <g id="patch_30">
    <path d="M 189.19017 228.512001 
Q 143.753038 231.729181 99.431148 234.867398 
" clip-path="url(#pde41a37d0f)" style="fill: none; stroke: #000000; stroke-linecap: round"/>
    <path d="M 103.562416 236.57989 
L 99.431148 234.867398 
L 103.279902 232.589879 
z
" clip-path="url(#pde41a37d0f)" style="stroke: #000000; stroke-linecap: round"/>
   </g>
   <g id="patch_31">
    <path d="M 193.059493 228.484085 
Q 237.27312 230.975619 280.370484 233.404249 
" clip-path="url(#pde41a37d0f)" style="fill: none; stroke: #000000; stroke-linecap: round"/>
    <path d="M 276.489346 231.182365 
L 280.370484 233.404249 
L 276.264295 235.176029 
z
" clip-path="url(#pde41a37d0f)" style="stroke: #000000; stroke-linecap: round"/>
   </g>
   <g id="patch_32">
    <path d="M 192.450931 226.963692 
Q 218.914996 198.806037 244.613372 171.463072 
" clip-path="url(#pde41a37d0f)" style="fill: none; stroke: #000000; stroke-linecap: round"/>
    <path d="M 240.416597 173.008089 
L 244.613372 171.463072 
L 243.331321 175.747502 
z
" clip-path="url(#pde41a37d0f)" style="stroke: #000000; stroke-linecap: round"/>
   </g>
   <g id="patch_33">
    <path d="M 45.748554 230.843369 
Q 70.099255 232.88248 93.335821 234.828293 
" clip-path="url(#pde41a37d0f)" style="fill: none; stroke: #000000; stroke-linecap: round"/>
    <path d="M 89.516667 232.50148 
L 93.335821 234.828293 
L 89.182878 236.487529 
z
" clip-path="url(#pde41a37d0f)" style="stroke: #000000; stroke-linecap: round"/>
   </g>
   <g id="patch_34">
    <path d="M 45.748554 230.843369 
Q 70.099255 232.88248 93.335821 234.828293 
" clip-path="url(#pde41a37d0f)" style="fill: none; stroke: #000000; stroke-linecap: round"/>
    <path d="M 89.516667 232.50148 
L 93.335821 234.828293 
L 89.182878 236.487529 
z
" clip-path="url(#pde41a37d0f)" style="stroke: #000000; stroke-linecap: round"/>
   </g>
   <g id="patch_35">
    <path d="M 43.61319 228.759933 
Q 41.903791 212.912547 40.314295 198.176747 
" clip-path="url(#pde41a37d0f)" style="fill: none; stroke: #000000; stroke-linecap: round"/>
    <path d="M 38.754807 202.368166 
L 40.314295 198.176747 
L 42.731737 201.939189 
z
" clip-path="url(#pde41a37d0f)" style="stroke: #000000; stroke-linecap: round"/>
   </g>
   <g id="patch_36">
    <path d="M 40.194094 197.062394 
Q 41.903493 212.90978 43.492989 227.64558 
" clip-path="url(#pde41a37d0f)" style="fill: none; stroke: #000000; stroke-linecap: round"/>
    <path d="M 45.052477 223.45416 
L 43.492989 227.64558 
L 41.075547 223.883137 
z
" clip-path="url(#pde41a37d0f)" style="stroke: #000000; stroke-linecap: round"/>
   </g>
   <g id="patch_37">
    <path d="M 41.927013 195.10867 
Q 74.617661 194.573876 106.190423 194.057371 
" clip-path="url(#pde41a37d0f)" style="fill: none; stroke: #000000; stroke-linecap: round"/>
    <path d="M 102.158244 192.123066 
L 106.190423 194.057371 
L 102.223673 196.122531 
z
" clip-path="url(#pde41a37d0f)" style="stroke: #000000; stroke-linecap: round"/>
   </g>
   <g id="patch_38">
    <path d="M 177.804241 271.922484 
Q 185.631242 242.867782 193.167426 214.892628 
" clip-path="url(#pde41a37d0f)" style="fill: none; stroke: #000000; stroke-linecap: round"/>
    <path d="M 190.195809 218.234707 
L 193.167426 214.892628 
L 194.058119 219.275169 
z
" clip-path="url(#pde41a37d0f)" style="stroke: #000000; stroke-linecap: round"/>
   </g>
   <g id="patch_39">
    <path d="M 176.173655 275.365925 
Q 162.33464 294.700677 149.146356 313.126282 
" clip-path="url(#pde41a37d0f)" style="fill: none; stroke: #000000; stroke-linecap: round"/>
    <path d="M 153.100813 311.037678 
L 149.146356 313.126282 
L 149.848147 308.709554 
z
" clip-path="url(#pde41a37d0f)" style="stroke: #000000; stroke-linecap: round"/>
   </g>
   <g id="patch_40">
    <path d="M 111.138597 194.408618 
Q 151.603819 202.9751 190.975247 211.310025 
" clip-path="url(#pde41a37d0f)" style="fill: none; stroke: #000000; stroke-linecap: round"/>
    <path d="M 187.476196 208.524951 
L 190.975247 211.310025 
L 186.647757 212.438222 
z
" clip-path="url(#pde41a37d0f)" style="stroke: #000000; stroke-linecap: round"/>
   </g>
   <g id="patch_41">
    <path d="M 107.303256 194.039166 
Q 74.612609 194.573959 43.039846 195.090465 
" clip-path="url(#pde41a37d0f)" style="fill: none; stroke: #000000; stroke-linecap: round"/>
    <path d="M 47.072025 197.024769 
L 43.039846 195.090465 
L 47.006597 193.025304 
z
" clip-path="url(#pde41a37d0f)" style="stroke: #000000; stroke-linecap: round"/>
   </g>
   <g id="patch_42">
    <path d="M 333.257269 66.508041 
Q 328.600837 49.182962 324.2346 32.9376 
" clip-path="url(#pde41a37d0f)" style="fill: none; stroke: #000000; stroke-linecap: round"/>
    <path d="M 323.341372 37.319625 
L 324.2346 32.9376 
L 327.204283 36.281397 
z
" clip-path="url(#pde41a37d0f)" style="stroke: #000000; stroke-linecap: round"/>
   </g>
   <g id="patch_43">
    <path d="M 332.623617 69.946197 
Q 316.427159 92.304835 300.886591 113.75804 
" clip-path="url(#pde41a37d0f)" style="fill: none; stroke: #000000; stroke-linecap: round"/>
    <path d="M 304.852861 111.691957 
L 300.886591 113.75804 
L 301.613487 109.345374 
z
" clip-path="url(#pde41a37d0f)" style="stroke: #000000; stroke-linecap: round"/>
   </g>
   <g id="patch_44">
    <path d="M 321.51591 30.185572 
Q 293.268194 33.05199 266.132801 35.805537 
" clip-path="url(#pde41a37d0f)" style="fill: none; stroke: #000000; stroke-linecap: round"/>
    <path d="M 270.314276 37.391495 
L 266.132801 35.805537 
L 269.910453 33.411931 
z
" clip-path="url(#pde41a37d0f)" style="stroke: #000000; stroke-linecap: round"/>
   </g>
   <g id="patch_45">
    <path d="M 323.94492 31.859795 
Q 328.601351 49.184874 332.967589 65.430236 
" clip-path="url(#pde41a37d0f)" style="fill: none; stroke: #000000; stroke-linecap: round"/>
    <path d="M 333.860817 61.048211 
L 332.967589 65.430236 
L 329.997905 62.086439 
z
" clip-path="url(#pde41a37d0f)" style="stroke: #000000; stroke-linecap: round"/>
   </g>
   <g id="patch_46">
    <path d="M 362.641168 243.962515 
Q 323.990294 238.895137 286.447966 233.973096 
" clip-path="url(#pde41a37d0f)" style="fill: none; stroke: #000000; stroke-linecap: round"/>
    <path d="M 290.154037 236.476101 
L 286.447966 233.973096 
L 290.674013 232.510042 
z
" clip-path="url(#pde41a37d0f)" style="stroke: #000000; stroke-linecap: round"/>
   </g>
   <g id="patch_47">
    <path d="M 366.346582 244.961975 
Q 392.687306 255.978809 417.996578 266.564245 
" clip-path="url(#pde41a37d0f)" style="fill: none; stroke: #000000; stroke-linecap: round"/>
    <path d="M 415.078048 263.175708 
L 417.996578 266.564245 
L 413.53463 266.865947 
z
" clip-path="url(#pde41a37d0f)" style="stroke: #000000; stroke-linecap: round"/>
   </g>
   <g id="patch_48">
    <path d="M 419.024336 266.994098 
Q 392.683611 255.977264 367.374339 245.391827 
" clip-path="url(#pde41a37d0f)" style="fill: none; stroke: #000000; stroke-linecap: round"/>
    <path d="M 370.292869 248.780365 
L 367.374339 245.391827 
L 371.836287 245.090126 
z
" clip-path="url(#pde41a37d0f)" style="stroke: #000000; stroke-linecap: round"/>
   </g>
   <g id="patch_49">
    <path d="M 419.669388 269.301673 
Q 411.536574 280.389096 404.065033 290.57501 
" clip-path="url(#pde41a37d0f)" style="fill: none; stroke: #000000; stroke-linecap: round"/>
    <path d="M 408.043542 288.532592 
L 404.065033 290.57501 
L 404.818204 286.166753 
z
" clip-path="url(#pde41a37d0f)" style="stroke: #000000; stroke-linecap: round"/>
   </g>
   <g id="patch_50">
    <path d="M 419.669388 269.301673 
Q 411.536574 280.389096 404.065033 290.57501 
" clip-path="url(#pde41a37d0f)" style="fill: none; stroke: #000000; stroke-linecap: round"/>
    <path d="M 408.043542 288.532592 
L 404.065033 290.57501 
L 404.818204 286.166753 
z
" clip-path="url(#pde41a37d0f)" style="stroke: #000000; stroke-linecap: round"/>
   </g>
   <g id="patch_51">
    <path d="M 403.40201 291.478906 
Q 411.534823 280.391483 419.006364 270.20557 
" clip-path="url(#pde41a37d0f)" style="fill: none; stroke: #000000; stroke-linecap: round"/>
    <path d="M 415.027856 272.247987 
L 419.006364 270.20557 
L 418.253193 274.613827 
z
" clip-path="url(#pde41a37d0f)" style="stroke: #000000; stroke-linecap: round"/>
   </g>
   <g id="patch_52">
    <path d="M 403.40201 291.478906 
Q 411.534823 280.391483 419.006364 270.20557 
" clip-path="url(#pde41a37d0f)" style="fill: none; stroke: #000000; stroke-linecap: round"/>
    <path d="M 415.027856 272.247987 
L 419.006364 270.20557 
L 418.253193 274.613827 
z
" clip-path="url(#pde41a37d0f)" style="stroke: #000000; stroke-linecap: round"/>
   </g>
   <g id="patch_53">
    <path d="M 400.335942 292.83526 
Q 367.189875 289.334284 335.155658 285.950744 
" clip-path="url(#pde41a37d0f)" style="fill: none; stroke: #000000; stroke-linecap: round"/>
    <path d="M 338.923454 288.359834 
L 335.155658 285.950744 
L 339.343607 284.381961 
z
" clip-path="url(#pde41a37d0f)" style="stroke: #000000; stroke-linecap: round"/>
   </g>
   <g id="patch_54">
    <path d="M 334.038194 285.832714 
Q 367.18426 289.333691 399.218478 292.71723 
" clip-path="url(#pde41a37d0f)" style="fill: none; stroke: #000000; stroke-linecap: round"/>
    <path d="M 395.450682 290.30814 
L 399.218478 292.71723 
L 395.030528 294.286013 
z
" clip-path="url(#pde41a37d0f)" style="stroke: #000000; stroke-linecap: round"/>
   </g>
   <g id="patch_55">
    <path d="M 330.315187 284.918134 
Q 303.580793 274.354441 277.886204 264.20161 
" clip-path="url(#pde41a37d0f)" style="fill: none; stroke: #000000; stroke-linecap: round"/>
    <path d="M 280.871345 267.531615 
L 277.886204 264.20161 
L 282.341292 263.8115 
z
" clip-path="url(#pde41a37d0f)" style="stroke: #000000; stroke-linecap: round"/>
   </g>
   <g id="patch_56">
    <path d="M 330.315187 284.918134 
Q 303.580793 274.354441 277.886204 264.20161 
" clip-path="url(#pde41a37d0f)" style="fill: none; stroke: #000000; stroke-linecap: round"/>
    <path d="M 280.871345 267.531615 
L 277.886204 264.20161 
L 282.341292 263.8115 
z
" clip-path="url(#pde41a37d0f)" style="stroke: #000000; stroke-linecap: round"/>
   </g>
   <g id="patch_57">
    <path d="M 273.412796 262.048764 
Q 234.505811 237.511643 196.544503 213.570923 
" clip-path="url(#pde41a37d0f)" style="fill: none; stroke: #000000; stroke-linecap: round"/>
    <path d="M 198.860984 217.396353 
L 196.544503 213.570923 
L 200.994735 214.012996 
z
" clip-path="url(#pde41a37d0f)" style="stroke: #000000; stroke-linecap: round"/>
   </g>
   <g id="patch_58">
    <path d="M 276.849252 263.791874 
Q 303.583646 274.355568 329.278236 284.508398 
" clip-path="url(#pde41a37d0f)" style="fill: none; stroke: #000000; stroke-linecap: round"/>
    <path d="M 326.293094 281.178394 
L 329.278236 284.508398 
L 324.823147 284.898508 
z
" clip-path="url(#pde41a37d0f)" style="stroke: #000000; stroke-linecap: round"/>
   </g>
   <g id="patch_59">
    <path d="M 276.849252 263.791874 
Q 303.583646 274.355568 329.278236 284.508398 
" clip-path="url(#pde41a37d0f)" style="fill: none; stroke: #000000; stroke-linecap: round"/>
    <path d="M 326.293094 281.178394 
L 329.278236 284.508398 
L 324.823147 284.898508 
z
" clip-path="url(#pde41a37d0f)" style="stroke: #000000; stroke-linecap: round"/>
   </g>
   <g id="patch_60">
    <path d="M 281.484785 233.467042 
Q 237.271158 230.975508 194.173794 228.546878 
" clip-path="url(#pde41a37d0f)" style="fill: none; stroke: #000000; stroke-linecap: round"/>
    <path d="M 198.054932 230.768762 
L 194.173794 228.546878 
L 198.279983 226.775098 
z
" clip-path="url(#pde41a37d0f)" style="stroke: #000000; stroke-linecap: round"/>
   </g>
   <g id="patch_61">
    <path d="M 285.336336 233.827354 
Q 323.98721 238.894733 361.529538 243.816773 
" clip-path="url(#pde41a37d0f)" style="fill: none; stroke: #000000; stroke-linecap: round"/>
    <path d="M 357.823467 241.313768 
L 361.529538 243.816773 
L 357.303491 245.279827 
z
" clip-path="url(#pde41a37d0f)" style="stroke: #000000; stroke-linecap: round"/>
   </g>
   <g id="patch_62">
    <path d="M 245.380521 170.646828 
Q 218.916456 198.804484 193.21808 226.147449 
" clip-path="url(#pde41a37d0f)" style="fill: none; stroke: #000000; stroke-linecap: round"/>
    <path d="M 197.414855 224.602431 
L 193.21808 226.147449 
L 194.500131 221.863018 
z
" clip-path="url(#pde41a37d0f)" style="stroke: #000000; stroke-linecap: round"/>
   </g>
   <g id="patch_63">
    <path d="M 248.065924 167.860554 
Q 272.899897 142.734494 296.947935 118.403611 
" clip-path="url(#pde41a37d0f)" style="fill: none; stroke: #000000; stroke-linecap: round"/>
    <path d="M 292.713635 119.842604 
L 296.947935 118.403611 
L 295.55855 122.654447 
z
" clip-path="url(#pde41a37d0f)" style="stroke: #000000; stroke-linecap: round"/>
   </g>
   <g id="patch_64">
    <path d="M 300.231105 114.662916 
Q 316.427562 92.304279 331.96813 70.851073 
" clip-path="url(#pde41a37d0f)" style="fill: none; stroke: #000000; stroke-linecap: round"/>
    <path d="M 328.00186 72.917157 
L 331.96813 70.851073 
L 331.241235 75.26374 
z
" clip-path="url(#pde41a37d0f)" style="stroke: #000000; stroke-linecap: round"/>
   </g>
   <g id="patch_65">
    <path d="M 297.735993 117.606284 
Q 272.902021 142.732345 248.853982 167.063227 
" clip-path="url(#pde41a37d0f)" style="fill: none; stroke: #000000; stroke-linecap: round"/>
    <path d="M 253.088282 165.624234 
L 248.853982 167.063227 
L 250.243368 162.812391 
z
" clip-path="url(#pde41a37d0f)" style="stroke: #000000; stroke-linecap: round"/>
   </g>
   <g id="PathCollection_1">
    <defs>
     <path id="m5575602068" d="M 0 1.936492 
C 0.513564 1.936492 1.006162 1.732451 1.369306 1.369306 
C 1.732451 1.006162 1.936492 0.513564 1.936492 0 
C 1.936492 -0.513564 1.732451 -1.006162 1.369306 -1.369306 
C 1.006162 -1.732451 0.513564 -1.936492 0 -1.936492 
C -0.513564 -1.936492 -1.006162 -1.732451 -1.369306 -1.369306 
C -1.732451 -1.006162 -1.936492 -0.513564 -1.936492 0 
C -1.936492 0.513564 -1.732451 1.006162 -1.369306 1.369306 
C -1.006162 1.732451 -0.513564 1.936492 0 1.936492 
z
" style="stroke: #1f78b4"/>
    </defs>
    <g clip-path="url(#pde41a37d0f)">
     <use xlink:href="#m5575602068" x="201.706823" y="132.353041" style="fill: #1f78b4; stroke: #1f78b4"/>
     <use xlink:href="#m5575602068" x="147.922904" y="280.188745" style="fill: #1f78b4; stroke: #1f78b4"/>
     <use xlink:href="#m5575602068" x="263.091297" y="36.114171" style="fill: #1f78b4; stroke: #1f78b4"/>
     <use xlink:href="#m5575602068" x="219.143279" y="83.761659" style="fill: #1f78b4; stroke: #1f78b4"/>
     <use xlink:href="#m5575602068" x="193.962194" y="211.942362" style="fill: #1f78b4; stroke: #1f78b4"/>
     <use xlink:href="#m5575602068" x="96.381447" y="235.083332" style="fill: #1f78b4; stroke: #1f78b4"/>
     <use xlink:href="#m5575602068" x="147.368673" y="315.609917" style="fill: #1f78b4; stroke: #1f78b4"/>
     <use xlink:href="#m5575602068" x="191.124468" y="228.375042" style="fill: #1f78b4; stroke: #1f78b4"/>
     <use xlink:href="#m5575602068" x="43.820507" y="230.681916" style="fill: #1f78b4; stroke: #1f78b4"/>
     <use xlink:href="#m5575602068" x="39.986777" y="195.140411" style="fill: #1f78b4; stroke: #1f78b4"/>
     <use xlink:href="#m5575602068" x="177.300862" y="273.791082" style="fill: #1f78b4; stroke: #1f78b4"/>
     <use xlink:href="#m5575602068" x="109.243492" y="194.007425" style="fill: #1f78b4; stroke: #1f78b4"/>
     <use xlink:href="#m5575602068" x="333.759788" y="68.377753" style="fill: #1f78b4; stroke: #1f78b4"/>
     <use xlink:href="#m5575602068" x="323.4424" y="29.990083" style="fill: #1f78b4; stroke: #1f78b4"/>
     <use xlink:href="#m5575602068" x="364.557694" y="244.213784" style="fill: #1f78b4; stroke: #1f78b4"/>
     <use xlink:href="#m5575602068" x="420.813223" y="267.742288" style="fill: #1f78b4; stroke: #1f78b4"/>
     <use xlink:href="#m5575602068" x="402.258174" y="293.038291" style="fill: #1f78b4; stroke: #1f78b4"/>
     <use xlink:href="#m5575602068" x="332.115961" y="285.629683" style="fill: #1f78b4; stroke: #1f78b4"/>
     <use xlink:href="#m5575602068" x="275.048478" y="263.080325" style="fill: #1f78b4; stroke: #1f78b4"/>
     <use xlink:href="#m5575602068" x="283.41981" y="233.576085" style="fill: #1f78b4; stroke: #1f78b4"/>
     <use xlink:href="#m5575602068" x="246.706984" y="169.235478" style="fill: #1f78b4; stroke: #1f78b4"/>
     <use xlink:href="#m5575602068" x="299.094934" y="116.23136" style="fill: #1f78b4; stroke: #1f78b4"/>
    </g>
   </g>
   <g id="text_1">
    <g clip-path="url(#pde41a37d0f)">
     <!-- 0 -->
     <g transform="translate(198.525573 135.112416) scale(0.1 -0.1)">
      <defs>
       <path id="DejaVuSans-30" d="M 2034 4250 
Q 1547 4250 1301 3770 
Q 1056 3291 1056 2328 
Q 1056 1369 1301 889 
Q 1547 409 2034 409 
Q 2525 409 2770 889 
Q 3016 1369 3016 2328 
Q 3016 3291 2770 3770 
Q 2525 4250 2034 4250 
z
M 2034 4750 
Q 2819 4750 3233 4129 
Q 3647 3509 3647 2328 
Q 3647 1150 3233 529 
Q 2819 -91 2034 -91 
Q 1250 -91 836 529 
Q 422 1150 422 2328 
Q 422 3509 836 4129 
Q 1250 4750 2034 4750 
z
" transform="scale(0.015625)"/>
      </defs>
      <use xlink:href="#DejaVuSans-30"/>
     </g>
    </g>
   </g>
   <g id="text_2">
    <g clip-path="url(#pde41a37d0f)">
     <!-- 1 -->
     <g transform="translate(144.741654 282.94812) scale(0.1 -0.1)">
      <defs>
       <path id="DejaVuSans-31" d="M 794 531 
L 1825 531 
L 1825 4091 
L 703 3866 
L 703 4441 
L 1819 4666 
L 2450 4666 
L 2450 531 
L 3481 531 
L 3481 0 
L 794 0 
L 794 531 
z
" transform="scale(0.015625)"/>
      </defs>
      <use xlink:href="#DejaVuSans-31"/>
     </g>
    </g>
   </g>
   <g id="text_3">
    <g clip-path="url(#pde41a37d0f)">
     <!-- 2 -->
     <g transform="translate(259.910047 38.873546) scale(0.1 -0.1)">
      <defs>
       <path id="DejaVuSans-32" d="M 1228 531 
L 3431 531 
L 3431 0 
L 469 0 
L 469 531 
Q 828 903 1448 1529 
Q 2069 2156 2228 2338 
Q 2531 2678 2651 2914 
Q 2772 3150 2772 3378 
Q 2772 3750 2511 3984 
Q 2250 4219 1831 4219 
Q 1534 4219 1204 4116 
Q 875 4013 500 3803 
L 500 4441 
Q 881 4594 1212 4672 
Q 1544 4750 1819 4750 
Q 2544 4750 2975 4387 
Q 3406 4025 3406 3419 
Q 3406 3131 3298 2873 
Q 3191 2616 2906 2266 
Q 2828 2175 2409 1742 
Q 1991 1309 1228 531 
z
" transform="scale(0.015625)"/>
      </defs>
      <use xlink:href="#DejaVuSans-32"/>
     </g>
    </g>
   </g>
   <g id="text_4">
    <g clip-path="url(#pde41a37d0f)">
     <!-- 3 -->
     <g transform="translate(215.962029 86.521034) scale(0.1 -0.1)">
      <defs>
       <path id="DejaVuSans-33" d="M 2597 2516 
Q 3050 2419 3304 2112 
Q 3559 1806 3559 1356 
Q 3559 666 3084 287 
Q 2609 -91 1734 -91 
Q 1441 -91 1130 -33 
Q 819 25 488 141 
L 488 750 
Q 750 597 1062 519 
Q 1375 441 1716 441 
Q 2309 441 2620 675 
Q 2931 909 2931 1356 
Q 2931 1769 2642 2001 
Q 2353 2234 1838 2234 
L 1294 2234 
L 1294 2753 
L 1863 2753 
Q 2328 2753 2575 2939 
Q 2822 3125 2822 3475 
Q 2822 3834 2567 4026 
Q 2313 4219 1838 4219 
Q 1578 4219 1281 4162 
Q 984 4106 628 3988 
L 628 4550 
Q 988 4650 1302 4700 
Q 1616 4750 1894 4750 
Q 2613 4750 3031 4423 
Q 3450 4097 3450 3541 
Q 3450 3153 3228 2886 
Q 3006 2619 2597 2516 
z
" transform="scale(0.015625)"/>
      </defs>
      <use xlink:href="#DejaVuSans-33"/>
     </g>
    </g>
   </g>
   <g id="text_5">
    <g clip-path="url(#pde41a37d0f)">
     <!-- 4 -->
     <g transform="translate(190.780944 214.701737) scale(0.1 -0.1)">
      <defs>
       <path id="DejaVuSans-34" d="M 2419 4116 
L 825 1625 
L 2419 1625 
L 2419 4116 
z
M 2253 4666 
L 3047 4666 
L 3047 1625 
L 3713 1625 
L 3713 1100 
L 3047 1100 
L 3047 0 
L 2419 0 
L 2419 1100 
L 313 1100 
L 313 1709 
L 2253 4666 
z
" transform="scale(0.015625)"/>
      </defs>
      <use xlink:href="#DejaVuSans-34"/>
     </g>
    </g>
   </g>
   <g id="text_6">
    <g clip-path="url(#pde41a37d0f)">
     <!-- 5 -->
     <g transform="translate(93.200197 237.842707) scale(0.1 -0.1)">
      <defs>
       <path id="DejaVuSans-35" d="M 691 4666 
L 3169 4666 
L 3169 4134 
L 1269 4134 
L 1269 2991 
Q 1406 3038 1543 3061 
Q 1681 3084 1819 3084 
Q 2600 3084 3056 2656 
Q 3513 2228 3513 1497 
Q 3513 744 3044 326 
Q 2575 -91 1722 -91 
Q 1428 -91 1123 -41 
Q 819 9 494 109 
L 494 744 
Q 775 591 1075 516 
Q 1375 441 1709 441 
Q 2250 441 2565 725 
Q 2881 1009 2881 1497 
Q 2881 1984 2565 2268 
Q 2250 2553 1709 2553 
Q 1456 2553 1204 2497 
Q 953 2441 691 2322 
L 691 4666 
z
" transform="scale(0.015625)"/>
      </defs>
      <use xlink:href="#DejaVuSans-35"/>
     </g>
    </g>
   </g>
   <g id="text_7">
    <g clip-path="url(#pde41a37d0f)">
     <!-- 6 -->
     <g transform="translate(144.187423 318.369292) scale(0.1 -0.1)">
      <defs>
       <path id="DejaVuSans-36" d="M 2113 2584 
Q 1688 2584 1439 2293 
Q 1191 2003 1191 1497 
Q 1191 994 1439 701 
Q 1688 409 2113 409 
Q 2538 409 2786 701 
Q 3034 994 3034 1497 
Q 3034 2003 2786 2293 
Q 2538 2584 2113 2584 
z
M 3366 4563 
L 3366 3988 
Q 3128 4100 2886 4159 
Q 2644 4219 2406 4219 
Q 1781 4219 1451 3797 
Q 1122 3375 1075 2522 
Q 1259 2794 1537 2939 
Q 1816 3084 2150 3084 
Q 2853 3084 3261 2657 
Q 3669 2231 3669 1497 
Q 3669 778 3244 343 
Q 2819 -91 2113 -91 
Q 1303 -91 875 529 
Q 447 1150 447 2328 
Q 447 3434 972 4092 
Q 1497 4750 2381 4750 
Q 2619 4750 2861 4703 
Q 3103 4656 3366 4563 
z
" transform="scale(0.015625)"/>
      </defs>
      <use xlink:href="#DejaVuSans-36"/>
     </g>
    </g>
   </g>
   <g id="text_8">
    <g clip-path="url(#pde41a37d0f)">
     <!-- 7 -->
     <g transform="translate(187.943218 231.134417) scale(0.1 -0.1)">
      <defs>
       <path id="DejaVuSans-37" d="M 525 4666 
L 3525 4666 
L 3525 4397 
L 1831 0 
L 1172 0 
L 2766 4134 
L 525 4134 
L 525 4666 
z
" transform="scale(0.015625)"/>
      </defs>
      <use xlink:href="#DejaVuSans-37"/>
     </g>
    </g>
   </g>
   <g id="text_9">
    <g clip-path="url(#pde41a37d0f)">
     <!-- 8 -->
     <g transform="translate(40.639257 233.441291) scale(0.1 -0.1)">
      <defs>
       <path id="DejaVuSans-38" d="M 2034 2216 
Q 1584 2216 1326 1975 
Q 1069 1734 1069 1313 
Q 1069 891 1326 650 
Q 1584 409 2034 409 
Q 2484 409 2743 651 
Q 3003 894 3003 1313 
Q 3003 1734 2745 1975 
Q 2488 2216 2034 2216 
z
M 1403 2484 
Q 997 2584 770 2862 
Q 544 3141 544 3541 
Q 544 4100 942 4425 
Q 1341 4750 2034 4750 
Q 2731 4750 3128 4425 
Q 3525 4100 3525 3541 
Q 3525 3141 3298 2862 
Q 3072 2584 2669 2484 
Q 3125 2378 3379 2068 
Q 3634 1759 3634 1313 
Q 3634 634 3220 271 
Q 2806 -91 2034 -91 
Q 1263 -91 848 271 
Q 434 634 434 1313 
Q 434 1759 690 2068 
Q 947 2378 1403 2484 
z
M 1172 3481 
Q 1172 3119 1398 2916 
Q 1625 2713 2034 2713 
Q 2441 2713 2670 2916 
Q 2900 3119 2900 3481 
Q 2900 3844 2670 4047 
Q 2441 4250 2034 4250 
Q 1625 4250 1398 4047 
Q 1172 3844 1172 3481 
z
" transform="scale(0.015625)"/>
      </defs>
      <use xlink:href="#DejaVuSans-38"/>
     </g>
    </g>
   </g>
   <g id="text_10">
    <g clip-path="url(#pde41a37d0f)">
     <!-- 9 -->
     <g transform="translate(36.805527 197.899786) scale(0.1 -0.1)">
      <defs>
       <path id="DejaVuSans-39" d="M 703 97 
L 703 672 
Q 941 559 1184 500 
Q 1428 441 1663 441 
Q 2288 441 2617 861 
Q 2947 1281 2994 2138 
Q 2813 1869 2534 1725 
Q 2256 1581 1919 1581 
Q 1219 1581 811 2004 
Q 403 2428 403 3163 
Q 403 3881 828 4315 
Q 1253 4750 1959 4750 
Q 2769 4750 3195 4129 
Q 3622 3509 3622 2328 
Q 3622 1225 3098 567 
Q 2575 -91 1691 -91 
Q 1453 -91 1209 -44 
Q 966 3 703 97 
z
M 1959 2075 
Q 2384 2075 2632 2365 
Q 2881 2656 2881 3163 
Q 2881 3666 2632 3958 
Q 2384 4250 1959 4250 
Q 1534 4250 1286 3958 
Q 1038 3666 1038 3163 
Q 1038 2656 1286 2365 
Q 1534 2075 1959 2075 
z
" transform="scale(0.015625)"/>
      </defs>
      <use xlink:href="#DejaVuSans-39"/>
     </g>
    </g>
   </g>
   <g id="text_11">
    <g clip-path="url(#pde41a37d0f)">
     <!-- 10 -->
     <g transform="translate(170.938362 276.550457) scale(0.1 -0.1)">
      <use xlink:href="#DejaVuSans-31"/>
      <use xlink:href="#DejaVuSans-30" x="63.623047"/>
     </g>
    </g>
   </g>
   <g id="text_12">
    <g clip-path="url(#pde41a37d0f)">
     <!-- 11 -->
     <g transform="translate(102.880992 196.7668) scale(0.1 -0.1)">
      <use xlink:href="#DejaVuSans-31"/>
      <use xlink:href="#DejaVuSans-31" x="63.623047"/>
     </g>
    </g>
   </g>
   <g id="text_13">
    <g clip-path="url(#pde41a37d0f)">
     <!-- 12 -->
     <g transform="translate(327.397288 71.137128) scale(0.1 -0.1)">
      <use xlink:href="#DejaVuSans-31"/>
      <use xlink:href="#DejaVuSans-32" x="63.623047"/>
     </g>
    </g>
   </g>
   <g id="text_14">
    <g clip-path="url(#pde41a37d0f)">
     <!-- 13 -->
     <g transform="translate(317.0799 32.749458) scale(0.1 -0.1)">
      <use xlink:href="#DejaVuSans-31"/>
      <use xlink:href="#DejaVuSans-33" x="63.623047"/>
     </g>
    </g>
   </g>
   <g id="text_15">
    <g clip-path="url(#pde41a37d0f)">
     <!-- 14 -->
     <g transform="translate(358.195194 246.973159) scale(0.1 -0.1)">
      <use xlink:href="#DejaVuSans-31"/>
      <use xlink:href="#DejaVuSans-34" x="63.623047"/>
     </g>
    </g>
   </g>
   <g id="text_16">
    <g clip-path="url(#pde41a37d0f)">
     <!-- 15 -->
     <g transform="translate(414.450723 270.501663) scale(0.1 -0.1)">
      <use xlink:href="#DejaVuSans-31"/>
      <use xlink:href="#DejaVuSans-35" x="63.623047"/>
     </g>
    </g>
   </g>
   <g id="text_17">
    <g clip-path="url(#pde41a37d0f)">
     <!-- 16 -->
     <g transform="translate(395.895674 295.797666) scale(0.1 -0.1)">
      <use xlink:href="#DejaVuSans-31"/>
      <use xlink:href="#DejaVuSans-36" x="63.623047"/>
     </g>
    </g>
   </g>
   <g id="text_18">
    <g clip-path="url(#pde41a37d0f)">
     <!-- 17 -->
     <g transform="translate(325.753461 288.389058) scale(0.1 -0.1)">
      <use xlink:href="#DejaVuSans-31"/>
      <use xlink:href="#DejaVuSans-37" x="63.623047"/>
     </g>
    </g>
   </g>
   <g id="text_19">
    <g clip-path="url(#pde41a37d0f)">
     <!-- 18 -->
     <g transform="translate(268.685978 265.8397) scale(0.1 -0.1)">
      <use xlink:href="#DejaVuSans-31"/>
      <use xlink:href="#DejaVuSans-38" x="63.623047"/>
     </g>
    </g>
   </g>
   <g id="text_20">
    <g clip-path="url(#pde41a37d0f)">
     <!-- 19 -->
     <g transform="translate(277.05731 236.33546) scale(0.1 -0.1)">
      <use xlink:href="#DejaVuSans-31"/>
      <use xlink:href="#DejaVuSans-39" x="63.623047"/>
     </g>
    </g>
   </g>
   <g id="text_21">
    <g clip-path="url(#pde41a37d0f)">
     <!-- 20 -->
     <g transform="translate(240.344484 171.994853) scale(0.1 -0.1)">
      <use xlink:href="#DejaVuSans-32"/>
      <use xlink:href="#DejaVuSans-30" x="63.623047"/>
     </g>
    </g>
   </g>
   <g id="text_22">
    <g clip-path="url(#pde41a37d0f)">
     <!-- 21 -->
     <g transform="translate(292.732434 118.990735) scale(0.1 -0.1)">
      <use xlink:href="#DejaVuSans-32"/>
      <use xlink:href="#DejaVuSans-31" x="63.623047"/>
     </g>
    </g>
   </g>
  </g>
 </g>
 <defs>
  <clipPath id="pde41a37d0f">
   <rect x="0" y="0" width="460.8" height="345.6"/>
  </clipPath>
 </defs>
</svg>
