<?xml version="1.0" encoding="utf-8" standalone="no"?>
<!DOCTYPE svg PUBLIC "-//W3C//DTD SVG 1.1//EN"
  "http://www.w3.org/Graphics/SVG/1.1/DTD/svg11.dtd">
<svg xmlns:xlink="http://www.w3.org/1999/xlink" width="460.8pt" height="345.6pt" viewBox="0 0 460.8 345.6" xmlns="http://www.w3.org/2000/svg" version="1.1">
 <metadata>
  <rdf:RDF xmlns:dc="http://purl.org/dc/elements/1.1/" xmlns:cc="http://creativecommons.org/ns#" xmlns:rdf="http://www.w3.org/1999/02/22-rdf-syntax-ns#">
   <cc:Work>
    <dc:type rdf:resource="http://purl.org/dc/dcmitype/StillImage"/>
    <dc:date>2024-02-28T11:16:55.308789</dc:date>
    <dc:format>image/svg+xml</dc:format>
    <dc:creator>
     <cc:Agent>
      <dc:title>Matplotlib v3.8.0, https://matplotlib.org/</dc:title>
     </cc:Agent>
    </dc:creator>
   </cc:Work>
  </rdf:RDF>
 </metadata>
 <defs>
  <style type="text/css">*{stroke-linejoin: round; stroke-linecap: butt}</style>
 </defs>
 <g id="figure_1">
  <g id="patch_1">
   <path d="M 0 345.6 
L 460.8 345.6 
L 460.8 0 
L 0 0 
z
" style="fill: #ffffff"/>
  </g>
  <g id="axes_1">
   <g id="patch_2">
    <path d="M 60.519602 159.401475 
Q 50.716256 177.382813 41.448087 194.382527 
" clip-path="url(#p479db26945)" style="fill: none; stroke: #000000; stroke-linecap: round"/>
    <path d="M 45.118776 191.827916 
L 41.448087 194.382527 
L 41.606812 189.913208 
z
" clip-path="url(#p479db26945)" style="stroke: #000000; stroke-linecap: round"/>
   </g>
   <g id="patch_3">
    <path d="M 60.519602 159.401475 
Q 50.716256 177.382813 41.448087 194.382527 
" clip-path="url(#p479db26945)" style="fill: none; stroke: #000000; stroke-linecap: round"/>
    <path d="M 45.118776 191.827916 
L 41.448087 194.382527 
L 41.606812 189.913208 
z
" clip-path="url(#p479db26945)" style="stroke: #000000; stroke-linecap: round"/>
   </g>
   <g id="patch_4">
    <path d="M 63.327345 157.249365 
Q 108.803424 146.285843 153.192608 135.584354 
" clip-path="url(#p479db26945)" style="fill: none; stroke: #000000; stroke-linecap: round"/>
    <path d="M 148.83528 134.577532 
L 153.192608 135.584354 
L 149.772754 138.466124 
z
" clip-path="url(#p479db26945)" style="stroke: #000000; stroke-linecap: round"/>
   </g>
   <g id="patch_5">
    <path d="M 174.83852 108.022797 
Q 152.983073 100.310831 132.181947 92.970895 
" clip-path="url(#p479db26945)" style="fill: none; stroke: #000000; stroke-linecap: round"/>
    <path d="M 135.288494 96.187938 
L 132.181947 92.970895 
L 136.61951 92.415884 
z
" clip-path="url(#p479db26945)" style="stroke: #000000; stroke-linecap: round"/>
   </g>
   <g id="patch_6">
    <path d="M 177.630856 110.34724 
Q 190.316709 132.367527 202.444455 153.419043 
" clip-path="url(#p479db26945)" style="fill: none; stroke: #000000; stroke-linecap: round"/>
    <path d="M 202.180699 148.954692 
L 202.444455 153.419043 
L 198.71472 150.951437 
z
" clip-path="url(#p479db26945)" style="stroke: #000000; stroke-linecap: round"/>
   </g>
   <g id="patch_7">
    <path d="M 86.085853 257.568815 
Q 63.622964 228.085829 41.837645 199.492168 
" clip-path="url(#p479db26945)" style="fill: none; stroke: #000000; stroke-linecap: round"/>
    <path d="M 42.670923 203.885988 
L 41.837645 199.492168 
L 45.852667 201.461838 
z
" clip-path="url(#p479db26945)" style="stroke: #000000; stroke-linecap: round"/>
   </g>
   <g id="patch_8">
    <path d="M 88.746079 260.348655 
Q 114.862399 282.116827 140.119895 303.169163 
" clip-path="url(#p479db26945)" style="fill: none; stroke: #000000; stroke-linecap: round"/>
    <path d="M 138.327802 299.071797 
L 140.119895 303.169163 
L 135.766747 302.144418 
z
" clip-path="url(#p479db26945)" style="stroke: #000000; stroke-linecap: round"/>
   </g>
   <g id="patch_9">
    <path d="M 40.912764 195.364417 
Q 50.716111 177.383079 59.98428 160.383365 
" clip-path="url(#p479db26945)" style="fill: none; stroke: #000000; stroke-linecap: round"/>
    <path d="M 56.31359 162.937976 
L 59.98428 160.383365 
L 59.825554 164.852683 
z
" clip-path="url(#p479db26945)" style="stroke: #000000; stroke-linecap: round"/>
   </g>
   <g id="patch_10">
    <path d="M 40.912764 195.364417 
Q 50.716111 177.383079 59.98428 160.383365 
" clip-path="url(#p479db26945)" style="fill: none; stroke: #000000; stroke-linecap: round"/>
    <path d="M 56.31359 162.937976 
L 59.98428 160.383365 
L 59.825554 164.852683 
z
" clip-path="url(#p479db26945)" style="stroke: #000000; stroke-linecap: round"/>
   </g>
   <g id="patch_11">
    <path d="M 41.16111 198.604203 
Q 63.623999 228.087188 85.409318 256.680849 
" clip-path="url(#p479db26945)" style="fill: none; stroke: #000000; stroke-linecap: round"/>
    <path d="M 84.57604 252.28703 
L 85.409318 256.680849 
L 81.394296 254.71118 
z
" clip-path="url(#p479db26945)" style="stroke: #000000; stroke-linecap: round"/>
   </g>
   <g id="patch_12">
    <path d="M 80.530414 178.395324 
Q 62.146249 194.388789 44.605594 209.648436 
" clip-path="url(#p479db26945)" style="fill: none; stroke: #000000; stroke-linecap: round"/>
    <path d="M 48.936124 208.531962 
L 44.605594 209.648436 
L 46.310732 205.514128 
z
" clip-path="url(#p479db26945)" style="stroke: #000000; stroke-linecap: round"/>
   </g>
   <g id="patch_13">
    <path d="M 80.530414 178.395324 
Q 62.146249 194.388789 44.605594 209.648436 
" clip-path="url(#p479db26945)" style="fill: none; stroke: #000000; stroke-linecap: round"/>
    <path d="M 48.936124 208.531962 
L 44.605594 209.648436 
L 46.310732 205.514128 
z
" clip-path="url(#p479db26945)" style="stroke: #000000; stroke-linecap: round"/>
   </g>
   <g id="patch_14">
    <path d="M 83.673079 176.166308 
Q 119.076554 155.996762 153.508583 136.380654 
" clip-path="url(#p479db26945)" style="fill: none; stroke: #000000; stroke-linecap: round"/>
    <path d="M 149.043014 136.622918 
L 153.508583 136.380654 
L 151.023053 140.098468 
z
" clip-path="url(#p479db26945)" style="stroke: #000000; stroke-linecap: round"/>
   </g>
   <g id="patch_15">
    <path d="M 43.759846 210.384202 
Q 62.144011 194.390736 79.684666 179.13109 
" clip-path="url(#p479db26945)" style="fill: none; stroke: #000000; stroke-linecap: round"/>
    <path d="M 75.354136 180.247564 
L 79.684666 179.13109 
L 77.979527 183.265398 
z
" clip-path="url(#p479db26945)" style="stroke: #000000; stroke-linecap: round"/>
   </g>
   <g id="patch_16">
    <path d="M 43.759846 210.384202 
Q 62.144011 194.390736 79.684666 179.13109 
" clip-path="url(#p479db26945)" style="fill: none; stroke: #000000; stroke-linecap: round"/>
    <path d="M 75.354136 180.247564 
L 79.684666 179.13109 
L 77.979527 183.265398 
z
" clip-path="url(#p479db26945)" style="stroke: #000000; stroke-linecap: round"/>
   </g>
   <g id="patch_17">
    <path d="M 43.495523 213.178349 
Q 53.617792 226.064896 63.049437 238.072217 
" clip-path="url(#p479db26945)" style="fill: none; stroke: #000000; stroke-linecap: round"/>
    <path d="M 62.151392 233.691177 
L 63.049437 238.072217 
L 59.005777 236.162029 
z
" clip-path="url(#p479db26945)" style="stroke: #000000; stroke-linecap: round"/>
   </g>
   <g id="patch_18">
    <path d="M 154.281782 135.321772 
Q 108.805703 146.285294 64.416519 156.986783 
" clip-path="url(#p479db26945)" style="fill: none; stroke: #000000; stroke-linecap: round"/>
    <path d="M 68.773847 157.993605 
L 64.416519 156.986783 
L 67.836373 154.105014 
z
" clip-path="url(#p479db26945)" style="stroke: #000000; stroke-linecap: round"/>
   </g>
   <g id="patch_19">
    <path d="M 154.481714 135.826256 
Q 119.078239 155.995802 84.64621 175.61191 
" clip-path="url(#p479db26945)" style="fill: none; stroke: #000000; stroke-linecap: round"/>
    <path d="M 89.11178 175.369646 
L 84.64621 175.61191 
L 87.131741 171.894096 
z
" clip-path="url(#p479db26945)" style="stroke: #000000; stroke-linecap: round"/>
   </g>
   <g id="patch_20">
    <path d="M 157.716839 133.711498 
Q 196.241798 105.025148 233.870019 77.006526 
" clip-path="url(#p479db26945)" style="fill: none; stroke: #000000; stroke-linecap: round"/>
    <path d="M 229.467283 77.791325 
L 233.870019 77.006526 
L 231.856216 80.999595 
z
" clip-path="url(#p479db26945)" style="stroke: #000000; stroke-linecap: round"/>
   </g>
   <g id="patch_21">
    <path d="M 155.135557 133.22585 
Q 142.731816 113.410123 130.921282 94.542079 
" clip-path="url(#p479db26945)" style="fill: none; stroke: #000000; stroke-linecap: round"/>
    <path d="M 131.348335 98.993779 
L 130.921282 94.542079 
L 134.738873 96.871456 
z
" clip-path="url(#p479db26945)" style="stroke: #000000; stroke-linecap: round"/>
   </g>
   <g id="patch_22">
    <path d="M 157.934639 135.653415 
Q 180.065206 145.466069 201.173703 154.82554 
" clip-path="url(#p479db26945)" style="fill: none; stroke: #000000; stroke-linecap: round"/>
    <path d="M 198.327718 151.375849 
L 201.173703 154.82554 
L 196.706359 155.032514 
z
" clip-path="url(#p479db26945)" style="stroke: #000000; stroke-linecap: round"/>
   </g>
   <g id="patch_23">
    <path d="M 157.934639 135.653415 
Q 180.065206 145.466069 201.173703 154.82554 
" clip-path="url(#p479db26945)" style="fill: none; stroke: #000000; stroke-linecap: round"/>
    <path d="M 198.327718 151.375849 
L 201.173703 154.82554 
L 196.706359 155.032514 
z
" clip-path="url(#p479db26945)" style="stroke: #000000; stroke-linecap: round"/>
   </g>
   <g id="patch_24">
    <path d="M 157.934639 135.653415 
Q 180.065206 145.466069 201.173703 154.82554 
" clip-path="url(#p479db26945)" style="fill: none; stroke: #000000; stroke-linecap: round"/>
    <path d="M 198.327718 151.375849 
L 201.173703 154.82554 
L 196.706359 155.032514 
z
" clip-path="url(#p479db26945)" style="stroke: #000000; stroke-linecap: round"/>
   </g>
   <g id="patch_25">
    <path d="M 157.934639 135.653415 
Q 180.065206 145.466069 201.173703 154.82554 
" clip-path="url(#p479db26945)" style="fill: none; stroke: #000000; stroke-linecap: round"/>
    <path d="M 198.327718 151.375849 
L 201.173703 154.82554 
L 196.706359 155.032514 
z
" clip-path="url(#p479db26945)" style="stroke: #000000; stroke-linecap: round"/>
   </g>
   <g id="patch_26">
    <path d="M 203.000375 154.384017 
Q 190.314522 132.36373 178.186776 111.312214 
" clip-path="url(#p479db26945)" style="fill: none; stroke: #000000; stroke-linecap: round"/>
    <path d="M 178.450532 115.776566 
L 178.186776 111.312214 
L 181.916511 113.779821 
z
" clip-path="url(#p479db26945)" style="stroke: #000000; stroke-linecap: round"/>
   </g>
   <g id="patch_27">
    <path d="M 202.197588 155.279529 
Q 180.067022 145.466875 158.958525 136.107404 
" clip-path="url(#p479db26945)" style="fill: none; stroke: #000000; stroke-linecap: round"/>
    <path d="M 161.80451 139.557095 
L 158.958525 136.107404 
L 163.425869 135.900431 
z
" clip-path="url(#p479db26945)" style="stroke: #000000; stroke-linecap: round"/>
   </g>
   <g id="patch_28">
    <path d="M 202.197588 155.279529 
Q 180.067022 145.466875 158.958525 136.107404 
" clip-path="url(#p479db26945)" style="fill: none; stroke: #000000; stroke-linecap: round"/>
    <path d="M 161.80451 139.557095 
L 158.958525 136.107404 
L 163.425869 135.900431 
z
" clip-path="url(#p479db26945)" style="stroke: #000000; stroke-linecap: round"/>
   </g>
   <g id="patch_29">
    <path d="M 202.197588 155.279529 
Q 180.067022 145.466875 158.958525 136.107404 
" clip-path="url(#p479db26945)" style="fill: none; stroke: #000000; stroke-linecap: round"/>
    <path d="M 161.80451 139.557095 
L 158.958525 136.107404 
L 163.425869 135.900431 
z
" clip-path="url(#p479db26945)" style="stroke: #000000; stroke-linecap: round"/>
   </g>
   <g id="patch_30">
    <path d="M 202.197588 155.279529 
Q 180.067022 145.466875 158.958525 136.107404 
" clip-path="url(#p479db26945)" style="fill: none; stroke: #000000; stroke-linecap: round"/>
    <path d="M 161.80451 139.557095 
L 158.958525 136.107404 
L 163.425869 135.900431 
z
" clip-path="url(#p479db26945)" style="stroke: #000000; stroke-linecap: round"/>
   </g>
   <g id="patch_31">
    <path d="M 205.839704 155.571524 
Q 256.731411 142.153512 306.542029 129.020539 
" clip-path="url(#p479db26945)" style="fill: none; stroke: #000000; stroke-linecap: round"/>
    <path d="M 302.164316 128.10641 
L 306.542029 129.020539 
L 303.184099 131.974232 
z
" clip-path="url(#p479db26945)" style="stroke: #000000; stroke-linecap: round"/>
   </g>
   <g id="patch_32">
    <path d="M 205.143054 157.604944 
Q 227.840851 187.371821 249.860727 216.249643 
" clip-path="url(#p479db26945)" style="fill: none; stroke: #000000; stroke-linecap: round"/>
    <path d="M 249.025712 211.856153 
L 249.860727 216.249643 
L 245.844926 214.281561 
z
" clip-path="url(#p479db26945)" style="stroke: #000000; stroke-linecap: round"/>
   </g>
   <g id="patch_33">
    <path d="M 202.452253 157.274154 
Q 172.989389 180.770065 144.40064 203.568893 
" clip-path="url(#p479db26945)" style="fill: none; stroke: #000000; stroke-linecap: round"/>
    <path d="M 148.774944 202.638591 
L 144.40064 203.568893 
L 146.280981 199.511268 
z
" clip-path="url(#p479db26945)" style="stroke: #000000; stroke-linecap: round"/>
   </g>
   <g id="patch_34">
    <path d="M 63.739631 238.950897 
Q 53.617363 226.06435 44.185718 214.057028 
" clip-path="url(#p479db26945)" style="fill: none; stroke: #000000; stroke-linecap: round"/>
    <path d="M 45.083763 218.438069 
L 44.185718 214.057028 
L 48.229378 215.967217 
z
" clip-path="url(#p479db26945)" style="stroke: #000000; stroke-linecap: round"/>
   </g>
   <g id="patch_35">
    <path d="M 66.697886 239.674175 
Q 103.472681 222.974896 139.229483 206.737882 
" clip-path="url(#p479db26945)" style="fill: none; stroke: #000000; stroke-linecap: round"/>
    <path d="M 134.760474 206.570695 
L 139.229483 206.737882 
L 136.414328 210.212778 
z
" clip-path="url(#p479db26945)" style="stroke: #000000; stroke-linecap: round"/>
   </g>
   <g id="patch_36">
    <path d="M 143.52675 204.265798 
Q 172.989614 180.769886 201.578363 157.971059 
" clip-path="url(#p479db26945)" style="fill: none; stroke: #000000; stroke-linecap: round"/>
    <path d="M 197.204059 158.901361 
L 201.578363 157.971059 
L 199.698022 162.028683 
z
" clip-path="url(#p479db26945)" style="stroke: #000000; stroke-linecap: round"/>
   </g>
   <g id="patch_37">
    <path d="M 140.248578 206.275116 
Q 103.473782 222.974395 67.71698 239.211409 
" clip-path="url(#p479db26945)" style="fill: none; stroke: #000000; stroke-linecap: round"/>
    <path d="M 72.18599 239.378596 
L 67.71698 239.211409 
L 70.532136 235.736513 
z
" clip-path="url(#p479db26945)" style="stroke: #000000; stroke-linecap: round"/>
   </g>
   <g id="patch_38">
    <path d="M 215.533725 315.341727 
Q 179.959935 310.366752 145.493403 305.546627 
" clip-path="url(#p479db26945)" style="fill: none; stroke: #000000; stroke-linecap: round"/>
    <path d="M 149.177849 308.081357 
L 145.493403 305.546627 
L 149.731855 304.119909 
z
" clip-path="url(#p479db26945)" style="stroke: #000000; stroke-linecap: round"/>
   </g>
   <g id="patch_39">
    <path d="M 218.897838 314.32284 
Q 239.681984 295.82813 259.630898 278.076648 
" clip-path="url(#p479db26945)" style="fill: none; stroke: #000000; stroke-linecap: round"/>
    <path d="M 255.313156 279.241595 
L 259.630898 278.076648 
L 257.97221 282.22981 
z
" clip-path="url(#p479db26945)" style="stroke: #000000; stroke-linecap: round"/>
   </g>
   <g id="patch_40">
    <path d="M 140.978068 303.884457 
Q 114.861748 282.116284 89.604251 261.063949 
" clip-path="url(#p479db26945)" style="fill: none; stroke: #000000; stroke-linecap: round"/>
    <path d="M 91.396344 265.161314 
L 89.604251 261.063949 
L 93.957399 262.088694 
z
" clip-path="url(#p479db26945)" style="stroke: #000000; stroke-linecap: round"/>
   </g>
   <g id="patch_41">
    <path d="M 144.38167 305.391151 
Q 179.95546 310.366126 214.421992 315.186251 
" clip-path="url(#p479db26945)" style="fill: none; stroke: #000000; stroke-linecap: round"/>
    <path d="M 210.737546 312.651521 
L 214.421992 315.186251 
L 210.18354 316.612969 
z
" clip-path="url(#p479db26945)" style="stroke: #000000; stroke-linecap: round"/>
   </g>
   <g id="patch_42">
    <path d="M 131.125612 92.598153 
Q 152.981059 100.31012 173.782184 107.650056 
" clip-path="url(#p479db26945)" style="fill: none; stroke: #000000; stroke-linecap: round"/>
    <path d="M 170.675638 104.433012 
L 173.782184 107.650056 
L 169.344622 108.205067 
z
" clip-path="url(#p479db26945)" style="stroke: #000000; stroke-linecap: round"/>
   </g>
   <g id="patch_43">
    <path d="M 130.329572 93.596787 
Q 142.733313 113.412514 154.543847 132.280558 
" clip-path="url(#p479db26945)" style="fill: none; stroke: #000000; stroke-linecap: round"/>
    <path d="M 154.116794 127.828859 
L 154.543847 132.280558 
L 150.726256 129.951181 
z
" clip-path="url(#p479db26945)" style="stroke: #000000; stroke-linecap: round"/>
   </g>
   <g id="patch_44">
    <path d="M 386.998637 94.170525 
Q 349.131417 110.817158 312.287699 127.013854 
" clip-path="url(#p479db26945)" style="fill: none; stroke: #000000; stroke-linecap: round"/>
    <path d="M 316.754364 127.235007 
L 312.287699 127.013854 
L 315.14462 123.573214 
z
" clip-path="url(#p479db26945)" style="stroke: #000000; stroke-linecap: round"/>
   </g>
   <g id="patch_45">
    <path d="M 389.916118 91.827273 
Q 404.792327 71.495032 419.008357 52.065099 
" clip-path="url(#p479db26945)" style="fill: none; stroke: #000000; stroke-linecap: round"/>
    <path d="M 415.032324 54.112333 
L 419.008357 52.065099 
L 418.260524 56.474266 
z
" clip-path="url(#p479db26945)" style="stroke: #000000; stroke-linecap: round"/>
   </g>
   <g id="patch_46">
    <path d="M 419.669176 51.161917 
Q 404.792966 71.494158 390.576937 90.92409 
" clip-path="url(#p479db26945)" style="fill: none; stroke: #000000; stroke-linecap: round"/>
    <path d="M 394.552969 88.876857 
L 390.576937 90.92409 
L 391.324769 86.514924 
z
" clip-path="url(#p479db26945)" style="stroke: #000000; stroke-linecap: round"/>
   </g>
   <g id="patch_47">
    <path d="M 419.071714 48.756933 
Q 400.520131 39.794456 382.975257 31.318331 
" clip-path="url(#p479db26945)" style="fill: none; stroke: #000000; stroke-linecap: round"/>
    <path d="M 385.706953 34.859212 
L 382.975257 31.318331 
L 387.446979 31.257503 
z
" clip-path="url(#p479db26945)" style="stroke: #000000; stroke-linecap: round"/>
   </g>
   <g id="patch_48">
    <path d="M 419.071714 48.756933 
Q 400.520131 39.794456 382.975257 31.318331 
" clip-path="url(#p479db26945)" style="fill: none; stroke: #000000; stroke-linecap: round"/>
    <path d="M 385.706953 34.859212 
L 382.975257 31.318331 
L 387.446979 31.257503 
z
" clip-path="url(#p479db26945)" style="stroke: #000000; stroke-linecap: round"/>
   </g>
   <g id="patch_49">
    <path d="M 381.967402 30.831425 
Q 400.518984 39.793902 418.063859 48.270027 
" clip-path="url(#p479db26945)" style="fill: none; stroke: #000000; stroke-linecap: round"/>
    <path d="M 415.332162 44.729146 
L 418.063859 48.270027 
L 413.592136 48.330856 
z
" clip-path="url(#p479db26945)" style="stroke: #000000; stroke-linecap: round"/>
   </g>
   <g id="patch_50">
    <path d="M 381.967402 30.831425 
Q 400.518984 39.793902 418.063859 48.270027 
" clip-path="url(#p479db26945)" style="fill: none; stroke: #000000; stroke-linecap: round"/>
    <path d="M 415.332162 44.729146 
L 418.063859 48.270027 
L 413.592136 48.330856 
z
" clip-path="url(#p479db26945)" style="stroke: #000000; stroke-linecap: round"/>
   </g>
   <g id="patch_51">
    <path d="M 378.32044 30.338903 
Q 337.979744 37.723856 298.738807 44.907481 
" clip-path="url(#p479db26945)" style="fill: none; stroke: #000000; stroke-linecap: round"/>
    <path d="M 303.033565 46.154499 
L 298.738807 44.907481 
L 302.313276 42.219886 
z
" clip-path="url(#p479db26945)" style="stroke: #000000; stroke-linecap: round"/>
   </g>
   <g id="patch_52">
    <path d="M 297.641697 45.108323 
Q 337.982393 37.723371 377.223331 30.539745 
" clip-path="url(#p479db26945)" style="fill: none; stroke: #000000; stroke-linecap: round"/>
    <path d="M 372.928573 29.292727 
L 377.223331 30.539745 
L 373.648861 33.22734 
z
" clip-path="url(#p479db26945)" style="stroke: #000000; stroke-linecap: round"/>
   </g>
   <g id="patch_53">
    <path d="M 294.006378 46.32258 
Q 266.026959 60.320422 239.047425 73.818031 
" clip-path="url(#p479db26945)" style="fill: none; stroke: #000000; stroke-linecap: round"/>
    <path d="M 243.519561 73.816991 
L 239.047425 73.818031 
L 241.729874 70.239698 
z
" clip-path="url(#p479db26945)" style="stroke: #000000; stroke-linecap: round"/>
   </g>
   <g id="patch_54">
    <path d="M 294.006378 46.32258 
Q 266.026959 60.320422 239.047425 73.818031 
" clip-path="url(#p479db26945)" style="fill: none; stroke: #000000; stroke-linecap: round"/>
    <path d="M 243.519561 73.816991 
L 239.047425 73.818031 
L 241.729874 70.239698 
z
" clip-path="url(#p479db26945)" style="stroke: #000000; stroke-linecap: round"/>
   </g>
   <g id="patch_55">
    <path d="M 234.765442 76.339779 
Q 196.240482 105.026128 158.612261 133.044751 
" clip-path="url(#p479db26945)" style="fill: none; stroke: #000000; stroke-linecap: round"/>
    <path d="M 163.014998 132.259952 
L 158.612261 133.044751 
L 160.626065 129.051682 
z
" clip-path="url(#p479db26945)" style="stroke: #000000; stroke-linecap: round"/>
   </g>
   <g id="patch_56">
    <path d="M 238.04861 74.317728 
Q 266.028029 60.319887 293.007563 46.822278 
" clip-path="url(#p479db26945)" style="fill: none; stroke: #000000; stroke-linecap: round"/>
    <path d="M 288.535427 46.823317 
L 293.007563 46.822278 
L 290.325114 50.40061 
z
" clip-path="url(#p479db26945)" style="stroke: #000000; stroke-linecap: round"/>
   </g>
   <g id="patch_57">
    <path d="M 238.04861 74.317728 
Q 266.028029 60.319887 293.007563 46.822278 
" clip-path="url(#p479db26945)" style="fill: none; stroke: #000000; stroke-linecap: round"/>
    <path d="M 288.535427 46.823317 
L 293.007563 46.822278 
L 290.325114 50.40061 
z
" clip-path="url(#p479db26945)" style="stroke: #000000; stroke-linecap: round"/>
   </g>
   <g id="patch_58">
    <path d="M 307.621576 128.735907 
Q 256.729869 142.153919 206.919251 155.286893 
" clip-path="url(#p479db26945)" style="fill: none; stroke: #000000; stroke-linecap: round"/>
    <path d="M 211.296964 156.201021 
L 206.919251 155.286893 
L 210.277181 152.333199 
z
" clip-path="url(#p479db26945)" style="stroke: #000000; stroke-linecap: round"/>
   </g>
   <g id="patch_59">
    <path d="M 311.266023 127.462988 
Q 349.133243 110.816355 385.976961 94.619659 
" clip-path="url(#p479db26945)" style="fill: none; stroke: #000000; stroke-linecap: round"/>
    <path d="M 381.510296 94.398507 
L 385.976961 94.619659 
L 383.12004 98.060299 
z
" clip-path="url(#p479db26945)" style="stroke: #000000; stroke-linecap: round"/>
   </g>
   <g id="patch_60">
    <path d="M 250.538187 217.138093 
Q 227.840389 187.371215 205.820514 158.493394 
" clip-path="url(#p479db26945)" style="fill: none; stroke: #000000; stroke-linecap: round"/>
    <path d="M 206.655529 162.886883 
L 205.820514 158.493394 
L 209.836314 160.461475 
z
" clip-path="url(#p479db26945)" style="stroke: #000000; stroke-linecap: round"/>
   </g>
   <g id="patch_61">
    <path d="M 252.051851 220.586501 
Q 256.81287 247.363457 261.378169 273.039643 
" clip-path="url(#p479db26945)" style="fill: none; stroke: #000000; stroke-linecap: round"/>
    <path d="M 262.647056 268.751295 
L 261.378169 273.039643 
L 258.708823 269.451524 
z
" clip-path="url(#p479db26945)" style="stroke: #000000; stroke-linecap: round"/>
   </g>
   <g id="patch_62">
    <path d="M 260.466333 277.333239 
Q 239.682188 295.827949 219.733273 313.57943 
" clip-path="url(#p479db26945)" style="fill: none; stroke: #000000; stroke-linecap: round"/>
    <path d="M 224.051016 312.414483 
L 219.733273 313.57943 
L 221.391961 309.426268 
z
" clip-path="url(#p479db26945)" style="stroke: #000000; stroke-linecap: round"/>
   </g>
   <g id="patch_63">
    <path d="M 261.573436 274.137864 
Q 256.812417 247.360909 252.247118 221.684723 
" clip-path="url(#p479db26945)" style="fill: none; stroke: #000000; stroke-linecap: round"/>
    <path d="M 250.978231 225.973071 
L 252.247118 221.684723 
L 254.916464 225.272841 
z
" clip-path="url(#p479db26945)" style="stroke: #000000; stroke-linecap: round"/>
   </g>
   <g id="PathCollection_1">
    <defs>
     <path id="maec256a6eb" d="M 0 1.936492 
C 0.513564 1.936492 1.006162 1.732451 1.369306 1.369306 
C 1.732451 1.006162 1.936492 0.513564 1.936492 0 
C 1.936492 -0.513564 1.732451 -1.006162 1.369306 -1.369306 
C 1.006162 -1.732451 0.513564 -1.936492 0 -1.936492 
C -0.513564 -1.936492 -1.006162 -1.732451 -1.369306 -1.369306 
C -1.732451 -1.006162 -1.936492 -0.513564 -1.936492 0 
C -1.936492 0.513564 -1.732451 1.006162 -1.369306 1.369306 
C -1.006162 1.732451 -0.513564 1.936492 0 1.936492 
z
" style="stroke: #1f78b4"/>
    </defs>
    <g clip-path="url(#p479db26945)">
     <use xlink:href="#maec256a6eb" x="61.445589" y="157.703025" style="fill: #1f78b4; stroke: #1f78b4"/>
     <use xlink:href="#maec256a6eb" x="176.662541" y="108.666425" style="fill: #1f78b4; stroke: #1f78b4"/>
     <use xlink:href="#maec256a6eb" x="87.260186" y="259.110151" style="fill: #1f78b4; stroke: #1f78b4"/>
     <use xlink:href="#maec256a6eb" x="39.986777" y="197.062867" style="fill: #1f78b4; stroke: #1f78b4"/>
     <use xlink:href="#maec256a6eb" x="81.991255" y="177.124452" style="fill: #1f78b4; stroke: #1f78b4"/>
     <use xlink:href="#maec256a6eb" x="42.299004" y="211.655074" style="fill: #1f78b4; stroke: #1f78b4"/>
     <use xlink:href="#maec256a6eb" x="156.163538" y="134.868112" style="fill: #1f78b4; stroke: #1f78b4"/>
     <use xlink:href="#maec256a6eb" x="203.96869" y="156.064832" style="fill: #1f78b4; stroke: #1f78b4"/>
     <use xlink:href="#maec256a6eb" x="64.936151" y="240.474172" style="fill: #1f78b4; stroke: #1f78b4"/>
     <use xlink:href="#maec256a6eb" x="142.010313" y="205.475119" style="fill: #1f78b4; stroke: #1f78b4"/>
     <use xlink:href="#maec256a6eb" x="217.451435" y="315.609917" style="fill: #1f78b4; stroke: #1f78b4"/>
     <use xlink:href="#maec256a6eb" x="142.46396" y="305.122961" style="fill: #1f78b4; stroke: #1f78b4"/>
     <use xlink:href="#maec256a6eb" x="129.301591" y="91.954525" style="fill: #1f78b4; stroke: #1f78b4"/>
     <use xlink:href="#maec256a6eb" x="388.77207" y="93.390914" style="fill: #1f78b4; stroke: #1f78b4"/>
     <use xlink:href="#maec256a6eb" x="420.813223" y="49.598276" style="fill: #1f78b4; stroke: #1f78b4"/>
     <use xlink:href="#maec256a6eb" x="380.225892" y="29.990083" style="fill: #1f78b4; stroke: #1f78b4"/>
     <use xlink:href="#maec256a6eb" x="295.736245" y="45.457144" style="fill: #1f78b4; stroke: #1f78b4"/>
     <use xlink:href="#maec256a6eb" x="236.318743" y="75.183165" style="fill: #1f78b4; stroke: #1f78b4"/>
     <use xlink:href="#maec256a6eb" x="309.49259" y="128.242599" style="fill: #1f78b4; stroke: #1f78b4"/>
     <use xlink:href="#maec256a6eb" x="251.712551" y="218.678205" style="fill: #1f78b4; stroke: #1f78b4"/>
     <use xlink:href="#maec256a6eb" x="261.912737" y="276.046161" style="fill: #1f78b4; stroke: #1f78b4"/>
    </g>
   </g>
   <g id="text_1">
    <g clip-path="url(#p479db26945)">
     <!-- 0 -->
     <g transform="translate(58.264339 160.4624) scale(0.1 -0.1)">
      <defs>
       <path id="DejaVuSans-30" d="M 2034 4250 
Q 1547 4250 1301 3770 
Q 1056 3291 1056 2328 
Q 1056 1369 1301 889 
Q 1547 409 2034 409 
Q 2525 409 2770 889 
Q 3016 1369 3016 2328 
Q 3016 3291 2770 3770 
Q 2525 4250 2034 4250 
z
M 2034 4750 
Q 2819 4750 3233 4129 
Q 3647 3509 3647 2328 
Q 3647 1150 3233 529 
Q 2819 -91 2034 -91 
Q 1250 -91 836 529 
Q 422 1150 422 2328 
Q 422 3509 836 4129 
Q 1250 4750 2034 4750 
z
" transform="scale(0.015625)"/>
      </defs>
      <use xlink:href="#DejaVuSans-30"/>
     </g>
    </g>
   </g>
   <g id="text_2">
    <g clip-path="url(#p479db26945)">
     <!-- 1 -->
     <g transform="translate(173.481291 111.4258) scale(0.1 -0.1)">
      <defs>
       <path id="DejaVuSans-31" d="M 794 531 
L 1825 531 
L 1825 4091 
L 703 3866 
L 703 4441 
L 1819 4666 
L 2450 4666 
L 2450 531 
L 3481 531 
L 3481 0 
L 794 0 
L 794 531 
z
" transform="scale(0.015625)"/>
      </defs>
      <use xlink:href="#DejaVuSans-31"/>
     </g>
    </g>
   </g>
   <g id="text_3">
    <g clip-path="url(#p479db26945)">
     <!-- 2 -->
     <g transform="translate(84.078936 261.869526) scale(0.1 -0.1)">
      <defs>
       <path id="DejaVuSans-32" d="M 1228 531 
L 3431 531 
L 3431 0 
L 469 0 
L 469 531 
Q 828 903 1448 1529 
Q 2069 2156 2228 2338 
Q 2531 2678 2651 2914 
Q 2772 3150 2772 3378 
Q 2772 3750 2511 3984 
Q 2250 4219 1831 4219 
Q 1534 4219 1204 4116 
Q 875 4013 500 3803 
L 500 4441 
Q 881 4594 1212 4672 
Q 1544 4750 1819 4750 
Q 2544 4750 2975 4387 
Q 3406 4025 3406 3419 
Q 3406 3131 3298 2873 
Q 3191 2616 2906 2266 
Q 2828 2175 2409 1742 
Q 1991 1309 1228 531 
z
" transform="scale(0.015625)"/>
      </defs>
      <use xlink:href="#DejaVuSans-32"/>
     </g>
    </g>
   </g>
   <g id="text_4">
    <g clip-path="url(#p479db26945)">
     <!-- 3 -->
     <g transform="translate(36.805527 199.822242) scale(0.1 -0.1)">
      <defs>
       <path id="DejaVuSans-33" d="M 2597 2516 
Q 3050 2419 3304 2112 
Q 3559 1806 3559 1356 
Q 3559 666 3084 287 
Q 2609 -91 1734 -91 
Q 1441 -91 1130 -33 
Q 819 25 488 141 
L 488 750 
Q 750 597 1062 519 
Q 1375 441 1716 441 
Q 2309 441 2620 675 
Q 2931 909 2931 1356 
Q 2931 1769 2642 2001 
Q 2353 2234 1838 2234 
L 1294 2234 
L 1294 2753 
L 1863 2753 
Q 2328 2753 2575 2939 
Q 2822 3125 2822 3475 
Q 2822 3834 2567 4026 
Q 2313 4219 1838 4219 
Q 1578 4219 1281 4162 
Q 984 4106 628 3988 
L 628 4550 
Q 988 4650 1302 4700 
Q 1616 4750 1894 4750 
Q 2613 4750 3031 4423 
Q 3450 4097 3450 3541 
Q 3450 3153 3228 2886 
Q 3006 2619 2597 2516 
z
" transform="scale(0.015625)"/>
      </defs>
      <use xlink:href="#DejaVuSans-33"/>
     </g>
    </g>
   </g>
   <g id="text_5">
    <g clip-path="url(#p479db26945)">
     <!-- 4 -->
     <g transform="translate(78.810005 179.883827) scale(0.1 -0.1)">
      <defs>
       <path id="DejaVuSans-34" d="M 2419 4116 
L 825 1625 
L 2419 1625 
L 2419 4116 
z
M 2253 4666 
L 3047 4666 
L 3047 1625 
L 3713 1625 
L 3713 1100 
L 3047 1100 
L 3047 0 
L 2419 0 
L 2419 1100 
L 313 1100 
L 313 1709 
L 2253 4666 
z
" transform="scale(0.015625)"/>
      </defs>
      <use xlink:href="#DejaVuSans-34"/>
     </g>
    </g>
   </g>
   <g id="text_6">
    <g clip-path="url(#p479db26945)">
     <!-- 5 -->
     <g transform="translate(39.117754 214.414449) scale(0.1 -0.1)">
      <defs>
       <path id="DejaVuSans-35" d="M 691 4666 
L 3169 4666 
L 3169 4134 
L 1269 4134 
L 1269 2991 
Q 1406 3038 1543 3061 
Q 1681 3084 1819 3084 
Q 2600 3084 3056 2656 
Q 3513 2228 3513 1497 
Q 3513 744 3044 326 
Q 2575 -91 1722 -91 
Q 1428 -91 1123 -41 
Q 819 9 494 109 
L 494 744 
Q 775 591 1075 516 
Q 1375 441 1709 441 
Q 2250 441 2565 725 
Q 2881 1009 2881 1497 
Q 2881 1984 2565 2268 
Q 2250 2553 1709 2553 
Q 1456 2553 1204 2497 
Q 953 2441 691 2322 
L 691 4666 
z
" transform="scale(0.015625)"/>
      </defs>
      <use xlink:href="#DejaVuSans-35"/>
     </g>
    </g>
   </g>
   <g id="text_7">
    <g clip-path="url(#p479db26945)">
     <!-- 6 -->
     <g transform="translate(152.982288 137.627487) scale(0.1 -0.1)">
      <defs>
       <path id="DejaVuSans-36" d="M 2113 2584 
Q 1688 2584 1439 2293 
Q 1191 2003 1191 1497 
Q 1191 994 1439 701 
Q 1688 409 2113 409 
Q 2538 409 2786 701 
Q 3034 994 3034 1497 
Q 3034 2003 2786 2293 
Q 2538 2584 2113 2584 
z
M 3366 4563 
L 3366 3988 
Q 3128 4100 2886 4159 
Q 2644 4219 2406 4219 
Q 1781 4219 1451 3797 
Q 1122 3375 1075 2522 
Q 1259 2794 1537 2939 
Q 1816 3084 2150 3084 
Q 2853 3084 3261 2657 
Q 3669 2231 3669 1497 
Q 3669 778 3244 343 
Q 2819 -91 2113 -91 
Q 1303 -91 875 529 
Q 447 1150 447 2328 
Q 447 3434 972 4092 
Q 1497 4750 2381 4750 
Q 2619 4750 2861 4703 
Q 3103 4656 3366 4563 
z
" transform="scale(0.015625)"/>
      </defs>
      <use xlink:href="#DejaVuSans-36"/>
     </g>
    </g>
   </g>
   <g id="text_8">
    <g clip-path="url(#p479db26945)">
     <!-- 7 -->
     <g transform="translate(200.78744 158.824207) scale(0.1 -0.1)">
      <defs>
       <path id="DejaVuSans-37" d="M 525 4666 
L 3525 4666 
L 3525 4397 
L 1831 0 
L 1172 0 
L 2766 4134 
L 525 4134 
L 525 4666 
z
" transform="scale(0.015625)"/>
      </defs>
      <use xlink:href="#DejaVuSans-37"/>
     </g>
    </g>
   </g>
   <g id="text_9">
    <g clip-path="url(#p479db26945)">
     <!-- 8 -->
     <g transform="translate(61.754901 243.233547) scale(0.1 -0.1)">
      <defs>
       <path id="DejaVuSans-38" d="M 2034 2216 
Q 1584 2216 1326 1975 
Q 1069 1734 1069 1313 
Q 1069 891 1326 650 
Q 1584 409 2034 409 
Q 2484 409 2743 651 
Q 3003 894 3003 1313 
Q 3003 1734 2745 1975 
Q 2488 2216 2034 2216 
z
M 1403 2484 
Q 997 2584 770 2862 
Q 544 3141 544 3541 
Q 544 4100 942 4425 
Q 1341 4750 2034 4750 
Q 2731 4750 3128 4425 
Q 3525 4100 3525 3541 
Q 3525 3141 3298 2862 
Q 3072 2584 2669 2484 
Q 3125 2378 3379 2068 
Q 3634 1759 3634 1313 
Q 3634 634 3220 271 
Q 2806 -91 2034 -91 
Q 1263 -91 848 271 
Q 434 634 434 1313 
Q 434 1759 690 2068 
Q 947 2378 1403 2484 
z
M 1172 3481 
Q 1172 3119 1398 2916 
Q 1625 2713 2034 2713 
Q 2441 2713 2670 2916 
Q 2900 3119 2900 3481 
Q 2900 3844 2670 4047 
Q 2441 4250 2034 4250 
Q 1625 4250 1398 4047 
Q 1172 3844 1172 3481 
z
" transform="scale(0.015625)"/>
      </defs>
      <use xlink:href="#DejaVuSans-38"/>
     </g>
    </g>
   </g>
   <g id="text_10">
    <g clip-path="url(#p479db26945)">
     <!-- 9 -->
     <g transform="translate(138.829063 208.234494) scale(0.1 -0.1)">
      <defs>
       <path id="DejaVuSans-39" d="M 703 97 
L 703 672 
Q 941 559 1184 500 
Q 1428 441 1663 441 
Q 2288 441 2617 861 
Q 2947 1281 2994 2138 
Q 2813 1869 2534 1725 
Q 2256 1581 1919 1581 
Q 1219 1581 811 2004 
Q 403 2428 403 3163 
Q 403 3881 828 4315 
Q 1253 4750 1959 4750 
Q 2769 4750 3195 4129 
Q 3622 3509 3622 2328 
Q 3622 1225 3098 567 
Q 2575 -91 1691 -91 
Q 1453 -91 1209 -44 
Q 966 3 703 97 
z
M 1959 2075 
Q 2384 2075 2632 2365 
Q 2881 2656 2881 3163 
Q 2881 3666 2632 3958 
Q 2384 4250 1959 4250 
Q 1534 4250 1286 3958 
Q 1038 3666 1038 3163 
Q 1038 2656 1286 2365 
Q 1534 2075 1959 2075 
z
" transform="scale(0.015625)"/>
      </defs>
      <use xlink:href="#DejaVuSans-39"/>
     </g>
    </g>
   </g>
   <g id="text_11">
    <g clip-path="url(#p479db26945)">
     <!-- 10 -->
     <g transform="translate(211.088935 318.369292) scale(0.1 -0.1)">
      <use xlink:href="#DejaVuSans-31"/>
      <use xlink:href="#DejaVuSans-30" x="63.623047"/>
     </g>
    </g>
   </g>
   <g id="text_12">
    <g clip-path="url(#p479db26945)">
     <!-- 11 -->
     <g transform="translate(136.10146 307.882336) scale(0.1 -0.1)">
      <use xlink:href="#DejaVuSans-31"/>
      <use xlink:href="#DejaVuSans-31" x="63.623047"/>
     </g>
    </g>
   </g>
   <g id="text_13">
    <g clip-path="url(#p479db26945)">
     <!-- 12 -->
     <g transform="translate(122.939091 94.7139) scale(0.1 -0.1)">
      <use xlink:href="#DejaVuSans-31"/>
      <use xlink:href="#DejaVuSans-32" x="63.623047"/>
     </g>
    </g>
   </g>
   <g id="text_14">
    <g clip-path="url(#p479db26945)">
     <!-- 13 -->
     <g transform="translate(382.40957 96.150289) scale(0.1 -0.1)">
      <use xlink:href="#DejaVuSans-31"/>
      <use xlink:href="#DejaVuSans-33" x="63.623047"/>
     </g>
    </g>
   </g>
   <g id="text_15">
    <g clip-path="url(#p479db26945)">
     <!-- 14 -->
     <g transform="translate(414.450723 52.357651) scale(0.1 -0.1)">
      <use xlink:href="#DejaVuSans-31"/>
      <use xlink:href="#DejaVuSans-34" x="63.623047"/>
     </g>
    </g>
   </g>
   <g id="text_16">
    <g clip-path="url(#p479db26945)">
     <!-- 15 -->
     <g transform="translate(373.863392 32.749458) scale(0.1 -0.1)">
      <use xlink:href="#DejaVuSans-31"/>
      <use xlink:href="#DejaVuSans-35" x="63.623047"/>
     </g>
    </g>
   </g>
   <g id="text_17">
    <g clip-path="url(#p479db26945)">
     <!-- 16 -->
     <g transform="translate(289.373745 48.216519) scale(0.1 -0.1)">
      <use xlink:href="#DejaVuSans-31"/>
      <use xlink:href="#DejaVuSans-36" x="63.623047"/>
     </g>
    </g>
   </g>
   <g id="text_18">
    <g clip-path="url(#p479db26945)">
     <!-- 17 -->
     <g transform="translate(229.956243 77.94254) scale(0.1 -0.1)">
      <use xlink:href="#DejaVuSans-31"/>
      <use xlink:href="#DejaVuSans-37" x="63.623047"/>
     </g>
    </g>
   </g>
   <g id="text_19">
    <g clip-path="url(#p479db26945)">
     <!-- 18 -->
     <g transform="translate(303.13009 131.001974) scale(0.1 -0.1)">
      <use xlink:href="#DejaVuSans-31"/>
      <use xlink:href="#DejaVuSans-38" x="63.623047"/>
     </g>
    </g>
   </g>
   <g id="text_20">
    <g clip-path="url(#p479db26945)">
     <!-- 19 -->
     <g transform="translate(245.350051 221.43758) scale(0.1 -0.1)">
      <use xlink:href="#DejaVuSans-31"/>
      <use xlink:href="#DejaVuSans-39" x="63.623047"/>
     </g>
    </g>
   </g>
   <g id="text_21">
    <g clip-path="url(#p479db26945)">
     <!-- 20 -->
     <g transform="translate(255.550237 278.805536) scale(0.1 -0.1)">
      <use xlink:href="#DejaVuSans-32"/>
      <use xlink:href="#DejaVuSans-30" x="63.623047"/>
     </g>
    </g>
   </g>
  </g>
 </g>
 <defs>
  <clipPath id="p479db26945">
   <rect x="0" y="0" width="460.8" height="345.6"/>
  </clipPath>
 </defs>
</svg>
