<?xml version="1.0" encoding="utf-8" standalone="no"?>
<!DOCTYPE svg PUBLIC "-//W3C//DTD SVG 1.1//EN"
  "http://www.w3.org/Graphics/SVG/1.1/DTD/svg11.dtd">
<svg xmlns:xlink="http://www.w3.org/1999/xlink" width="460.8pt" height="345.6pt" viewBox="0 0 460.8 345.6" xmlns="http://www.w3.org/2000/svg" version="1.1">
 <metadata>
  <rdf:RDF xmlns:dc="http://purl.org/dc/elements/1.1/" xmlns:cc="http://creativecommons.org/ns#" xmlns:rdf="http://www.w3.org/1999/02/22-rdf-syntax-ns#">
   <cc:Work>
    <dc:type rdf:resource="http://purl.org/dc/dcmitype/StillImage"/>
    <dc:date>2024-02-28T11:17:02.797499</dc:date>
    <dc:format>image/svg+xml</dc:format>
    <dc:creator>
     <cc:Agent>
      <dc:title>Matplotlib v3.8.0, https://matplotlib.org/</dc:title>
     </cc:Agent>
    </dc:creator>
   </cc:Work>
  </rdf:RDF>
 </metadata>
 <defs>
  <style type="text/css">*{stroke-linejoin: round; stroke-linecap: butt}</style>
 </defs>
 <g id="figure_1">
  <g id="patch_1">
   <path d="M 0 345.6 
L 460.8 345.6 
L 460.8 0 
L 0 0 
z
" style="fill: #ffffff"/>
  </g>
  <g id="axes_1">
   <g id="patch_2">
    <path d="M 265.905358 69.78622 
Q 300.082861 78.473063 333.176782 86.884493 
" clip-path="url(#p71a3f5c026)" style="fill: none; stroke: #000000; stroke-linecap: round"/>
    <path d="M 329.792716 83.96078 
L 333.176782 86.884493 
L 328.807372 87.837518 
z
" clip-path="url(#p71a3f5c026)" style="stroke: #000000; stroke-linecap: round"/>
   </g>
   <g id="patch_3">
    <path d="M 262.312675 70.21054 
Q 234.098204 85.06307 206.873061 99.394802 
" clip-path="url(#p71a3f5c026)" style="fill: none; stroke: #000000; stroke-linecap: round"/>
    <path d="M 211.34422 99.301304 
L 206.873061 99.394802 
L 209.480958 95.761776 
z
" clip-path="url(#p71a3f5c026)" style="stroke: #000000; stroke-linecap: round"/>
   </g>
   <g id="patch_4">
    <path d="M 334.254249 87.158352 
Q 300.076747 78.471509 266.982826 70.060078 
" clip-path="url(#p71a3f5c026)" style="fill: none; stroke: #000000; stroke-linecap: round"/>
    <path d="M 270.366892 72.983791 
L 266.982826 70.060078 
L 271.352236 69.107054 
z
" clip-path="url(#p71a3f5c026)" style="stroke: #000000; stroke-linecap: round"/>
   </g>
   <g id="patch_5">
    <path d="M 335.013945 89.217639 
Q 303.202065 134.158908 272.036138 178.187629 
" clip-path="url(#p71a3f5c026)" style="fill: none; stroke: #000000; stroke-linecap: round"/>
    <path d="M 275.979583 176.078308 
L 272.036138 178.187629 
L 272.714748 173.767279 
z
" clip-path="url(#p71a3f5c026)" style="stroke: #000000; stroke-linecap: round"/>
   </g>
   <g id="patch_6">
    <path d="M 336.342188 85.711421 
Q 339.258461 58.814924 342.054216 33.029947 
" clip-path="url(#p71a3f5c026)" style="fill: none; stroke: #000000; stroke-linecap: round"/>
    <path d="M 339.634694 36.791052 
L 342.054216 33.029947 
L 343.611387 37.222228 
z
" clip-path="url(#p71a3f5c026)" style="stroke: #000000; stroke-linecap: round"/>
   </g>
   <g id="patch_7">
    <path d="M 338.01741 87.186749 
Q 378.47411 77.539043 417.843272 68.150682 
" clip-path="url(#p71a3f5c026)" style="fill: none; stroke: #000000; stroke-linecap: round"/>
    <path d="M 413.488446 67.133096 
L 417.843272 68.150682 
L 414.416307 71.023992 
z
" clip-path="url(#p71a3f5c026)" style="stroke: #000000; stroke-linecap: round"/>
   </g>
   <g id="patch_8">
    <path d="M 337.595354 86.364627 
Q 363.662943 63.693449 388.886917 41.755969 
" clip-path="url(#p71a3f5c026)" style="fill: none; stroke: #000000; stroke-linecap: round"/>
    <path d="M 384.556227 42.871824 
L 388.886917 41.755969 
L 387.181187 45.890033 
z
" clip-path="url(#p71a3f5c026)" style="stroke: #000000; stroke-linecap: round"/>
   </g>
   <g id="patch_9">
    <path d="M 204.294383 184.202929 
Q 236.313684 182.494557 267.21654 180.845753 
" clip-path="url(#p71a3f5c026)" style="fill: none; stroke: #000000; stroke-linecap: round"/>
    <path d="M 263.115664 179.061708 
L 267.21654 180.845753 
L 263.328778 183.056027 
z
" clip-path="url(#p71a3f5c026)" style="stroke: #000000; stroke-linecap: round"/>
   </g>
   <g id="patch_10">
    <path d="M 337.885276 157.324782 
Q 304.991694 168.688028 273.154867 179.686213 
" clip-path="url(#p71a3f5c026)" style="fill: none; stroke: #000000; stroke-linecap: round"/>
    <path d="M 277.588669 180.270512 
L 273.154867 179.686213 
L 276.282587 176.489751 
z
" clip-path="url(#p71a3f5c026)" style="stroke: #000000; stroke-linecap: round"/>
   </g>
   <g id="patch_11">
    <path d="M 342.175142 31.914663 
Q 339.258869 58.81116 336.463113 84.596137 
" clip-path="url(#p71a3f5c026)" style="fill: none; stroke: #000000; stroke-linecap: round"/>
    <path d="M 338.882636 80.835032 
L 336.463113 84.596137 
L 334.905943 80.403856 
z
" clip-path="url(#p71a3f5c026)" style="stroke: #000000; stroke-linecap: round"/>
   </g>
   <g id="patch_12">
    <path d="M 205.883098 99.915934 
Q 234.097569 85.063404 261.322712 70.731672 
" clip-path="url(#p71a3f5c026)" style="fill: none; stroke: #000000; stroke-linecap: round"/>
    <path d="M 256.851553 70.82517 
L 261.322712 70.731672 
L 258.714815 74.364697 
z
" clip-path="url(#p71a3f5c026)" style="stroke: #000000; stroke-linecap: round"/>
   </g>
   <g id="patch_13">
    <path d="M 202.993905 99.279619 
Q 184.553663 75.15393 166.792365 51.916516 
" clip-path="url(#p71a3f5c026)" style="fill: none; stroke: #000000; stroke-linecap: round"/>
    <path d="M 167.632437 56.309041 
L 166.792365 51.916516 
L 170.810429 53.879974 
z
" clip-path="url(#p71a3f5c026)" style="stroke: #000000; stroke-linecap: round"/>
   </g>
   <g id="patch_14">
    <path d="M 205.406234 102.311959 
Q 237.221453 140.75239 268.323817 178.33152 
" clip-path="url(#p71a3f5c026)" style="fill: none; stroke: #000000; stroke-linecap: round"/>
    <path d="M 267.31417 173.974846 
L 268.323817 178.33152 
L 264.232689 176.525233 
z
" clip-path="url(#p71a3f5c026)" style="stroke: #000000; stroke-linecap: round"/>
   </g>
   <g id="patch_15">
    <path d="M 202.333171 100.202458 
Q 164.420466 87.497256 127.567853 75.147309 
" clip-path="url(#p71a3f5c026)" style="fill: none; stroke: #000000; stroke-linecap: round"/>
    <path d="M 130.725052 78.314657 
L 127.567853 75.147309 
L 131.99605 74.521958 
z
" clip-path="url(#p71a3f5c026)" style="stroke: #000000; stroke-linecap: round"/>
   </g>
   <g id="patch_16">
    <path d="M 418.929327 67.891691 
Q 378.472626 77.539397 339.103464 86.927757 
" clip-path="url(#p71a3f5c026)" style="fill: none; stroke: #000000; stroke-linecap: round"/>
    <path d="M 343.458291 87.945344 
L 339.103464 86.927757 
L 342.53043 84.054448 
z
" clip-path="url(#p71a3f5c026)" style="stroke: #000000; stroke-linecap: round"/>
   </g>
   <g id="patch_17">
    <path d="M 389.730975 41.021885 
Q 363.663387 63.693063 338.439413 85.630543 
" clip-path="url(#p71a3f5c026)" style="fill: none; stroke: #000000; stroke-linecap: round"/>
    <path d="M 342.770102 84.514688 
L 338.439413 85.630543 
L 340.145143 81.496479 
z
" clip-path="url(#p71a3f5c026)" style="stroke: #000000; stroke-linecap: round"/>
   </g>
   <g id="patch_18">
    <path d="M 166.11149 51.025715 
Q 184.551732 75.151404 202.31303 98.388817 
" clip-path="url(#p71a3f5c026)" style="fill: none; stroke: #000000; stroke-linecap: round"/>
    <path d="M 201.472958 93.996292 
L 202.31303 98.388817 
L 198.294966 96.42536 
z
" clip-path="url(#p71a3f5c026)" style="stroke: #000000; stroke-linecap: round"/>
   </g>
   <g id="patch_19">
    <path d="M 126.509898 74.79277 
Q 164.422603 87.497972 201.275216 99.847919 
" clip-path="url(#p71a3f5c026)" style="fill: none; stroke: #000000; stroke-linecap: round"/>
    <path d="M 198.118017 96.680571 
L 201.275216 99.847919 
L 196.847018 100.47327 
z
" clip-path="url(#p71a3f5c026)" style="stroke: #000000; stroke-linecap: round"/>
   </g>
   <g id="patch_20">
    <path d="M 312.136058 219.952166 
Q 291.909516 200.980222 272.498429 182.773153 
" clip-path="url(#p71a3f5c026)" style="fill: none; stroke: #000000; stroke-linecap: round"/>
    <path d="M 274.047641 186.968382 
L 272.498429 182.773153 
L 276.784139 184.050921 
z
" clip-path="url(#p71a3f5c026)" style="stroke: #000000; stroke-linecap: round"/>
   </g>
   <g id="patch_21">
    <path d="M 41.913709 186.460582 
Q 84.018706 190.896146 125.011822 195.214578 
" clip-path="url(#p71a3f5c026)" style="fill: none; stroke: #000000; stroke-linecap: round"/>
    <path d="M 121.243366 192.806521 
L 125.011822 195.214578 
L 120.824303 196.784509 
z
" clip-path="url(#p71a3f5c026)" style="stroke: #000000; stroke-linecap: round"/>
   </g>
   <g id="patch_22">
    <path d="M 354.570514 208.633304 
Q 313.339924 194.963014 273.170559 181.64458 
" clip-path="url(#p71a3f5c026)" style="fill: none; stroke: #000000; stroke-linecap: round"/>
    <path d="M 276.33789 184.801796 
L 273.170559 181.64458 
L 277.59673 181.005044 
z
" clip-path="url(#p71a3f5c026)" style="stroke: #000000; stroke-linecap: round"/>
   </g>
   <g id="patch_23">
    <path d="M 254.398798 222.205507 
Q 261.989004 202.347668 269.180032 183.534175 
" clip-path="url(#p71a3f5c026)" style="fill: none; stroke: #000000; stroke-linecap: round"/>
    <path d="M 265.88371 186.556469 
L 269.180032 183.534175 
L 269.620074 187.984609 
z
" clip-path="url(#p71a3f5c026)" style="stroke: #000000; stroke-linecap: round"/>
   </g>
   <g id="patch_24">
    <path d="M 50.703793 222.095037 
Q 88.463674 209.12855 125.166129 196.525176 
" clip-path="url(#p71a3f5c026)" style="fill: none; stroke: #000000; stroke-linecap: round"/>
    <path d="M 120.733412 195.932707 
L 125.166129 196.525176 
L 122.032524 199.715868 
z
" clip-path="url(#p71a3f5c026)" style="stroke: #000000; stroke-linecap: round"/>
   </g>
   <g id="patch_25">
    <path d="M 167.310628 297.808227 
Q 187.621247 274.356279 207.199929 251.749473 
" clip-path="url(#p71a3f5c026)" style="fill: none; stroke: #000000; stroke-linecap: round"/>
    <path d="M 203.06943 253.463817 
L 207.199929 251.749473 
L 206.093105 256.082479 
z
" clip-path="url(#p71a3f5c026)" style="stroke: #000000; stroke-linecap: round"/>
   </g>
   <g id="patch_26">
    <path d="M 207.930465 250.905948 
Q 187.619846 274.357897 168.041164 296.964703 
" clip-path="url(#p71a3f5c026)" style="fill: none; stroke: #000000; stroke-linecap: round"/>
    <path d="M 172.171664 295.250359 
L 168.041164 296.964703 
L 169.147988 292.631697 
z
" clip-path="url(#p71a3f5c026)" style="stroke: #000000; stroke-linecap: round"/>
   </g>
   <g id="patch_27">
    <path d="M 210.481514 247.997308 
Q 239.732531 215.064207 268.241091 182.967023 
" clip-path="url(#p71a3f5c026)" style="fill: none; stroke: #000000; stroke-linecap: round"/>
    <path d="M 264.089461 184.629543 
L 268.241091 182.967023 
L 267.080129 187.285839 
z
" clip-path="url(#p71a3f5c026)" style="stroke: #000000; stroke-linecap: round"/>
   </g>
   <g id="patch_28">
    <path d="M 339.629895 313.863437 
Q 327.153637 287.719741 315.158905 262.585071 
" clip-path="url(#p71a3f5c026)" style="fill: none; stroke: #000000; stroke-linecap: round"/>
    <path d="M 315.076664 267.056451 
L 315.158905 262.585071 
L 318.686664 265.333692 
z
" clip-path="url(#p71a3f5c026)" style="stroke: #000000; stroke-linecap: round"/>
   </g>
   <g id="patch_29">
    <path d="M 314.678295 261.577964 
Q 327.154553 287.72166 339.149285 312.85633 
" clip-path="url(#p71a3f5c026)" style="fill: none; stroke: #000000; stroke-linecap: round"/>
    <path d="M 339.231526 308.38495 
L 339.149285 312.85633 
L 335.621526 310.107709 
z
" clip-path="url(#p71a3f5c026)" style="stroke: #000000; stroke-linecap: round"/>
   </g>
   <g id="patch_30">
    <path d="M 312.909991 258.13344 
Q 292.056446 220.255494 271.742113 183.356961 
" clip-path="url(#p71a3f5c026)" style="fill: none; stroke: #000000; stroke-linecap: round"/>
    <path d="M 271.919229 187.825588 
L 271.742113 183.356961 
L 275.423284 185.896445 
z
" clip-path="url(#p71a3f5c026)" style="stroke: #000000; stroke-linecap: round"/>
   </g>
   <g id="patch_31">
    <path d="M 271.389458 179.101206 
Q 303.201337 134.159936 334.367265 90.131216 
" clip-path="url(#p71a3f5c026)" style="fill: none; stroke: #000000; stroke-linecap: round"/>
    <path d="M 330.423819 92.240537 
L 334.367265 90.131216 
L 333.688654 94.551565 
z
" clip-path="url(#p71a3f5c026)" style="stroke: #000000; stroke-linecap: round"/>
   </g>
   <g id="patch_32">
    <path d="M 268.334187 180.786121 
Q 236.314886 182.494493 205.41203 184.143298 
" clip-path="url(#p71a3f5c026)" style="fill: none; stroke: #000000; stroke-linecap: round"/>
    <path d="M 209.512906 185.927342 
L 205.41203 184.143298 
L 209.299791 181.933024 
z
" clip-path="url(#p71a3f5c026)" style="stroke: #000000; stroke-linecap: round"/>
   </g>
   <g id="patch_33">
    <path d="M 272.096644 180.051781 
Q 304.990226 168.688535 336.827054 157.69035 
" clip-path="url(#p71a3f5c026)" style="fill: none; stroke: #000000; stroke-linecap: round"/>
    <path d="M 332.393252 157.106051 
L 336.827054 157.69035 
L 333.699334 160.886812 
z
" clip-path="url(#p71a3f5c026)" style="stroke: #000000; stroke-linecap: round"/>
   </g>
   <g id="patch_34">
    <path d="M 269.033334 179.188788 
Q 237.218115 140.748357 206.115751 103.169226 
" clip-path="url(#p71a3f5c026)" style="fill: none; stroke: #000000; stroke-linecap: round"/>
    <path d="M 207.125398 107.525901 
L 206.115751 103.169226 
L 210.206879 104.975513 
z
" clip-path="url(#p71a3f5c026)" style="stroke: #000000; stroke-linecap: round"/>
   </g>
   <g id="patch_35">
    <path d="M 271.683126 182.008421 
Q 291.909668 200.980365 311.320755 219.187434 
" clip-path="url(#p71a3f5c026)" style="fill: none; stroke: #000000; stroke-linecap: round"/>
    <path d="M 309.771543 214.992205 
L 311.320755 219.187434 
L 307.035045 217.909666 
z
" clip-path="url(#p71a3f5c026)" style="stroke: #000000; stroke-linecap: round"/>
   </g>
   <g id="patch_36">
    <path d="M 272.107369 181.292072 
Q 313.337958 194.962362 353.507324 208.280796 
" clip-path="url(#p71a3f5c026)" style="fill: none; stroke: #000000; stroke-linecap: round"/>
    <path d="M 350.339992 205.12358 
L 353.507324 208.280796 
L 349.081152 208.920332 
z
" clip-path="url(#p71a3f5c026)" style="stroke: #000000; stroke-linecap: round"/>
   </g>
   <g id="patch_37">
    <path d="M 269.57949 182.489096 
Q 261.989284 202.346935 254.798255 221.160428 
" clip-path="url(#p71a3f5c026)" style="fill: none; stroke: #000000; stroke-linecap: round"/>
    <path d="M 258.094577 218.138134 
L 254.798255 221.160428 
L 254.358213 216.709994 
z
" clip-path="url(#p71a3f5c026)" style="stroke: #000000; stroke-linecap: round"/>
   </g>
   <g id="patch_38">
    <path d="M 268.985741 182.128638 
Q 239.734724 215.061739 211.226164 247.158923 
" clip-path="url(#p71a3f5c026)" style="fill: none; stroke: #000000; stroke-linecap: round"/>
    <path d="M 215.377793 245.496404 
L 211.226164 247.158923 
L 212.387126 242.840108 
z
" clip-path="url(#p71a3f5c026)" style="stroke: #000000; stroke-linecap: round"/>
   </g>
   <g id="patch_39">
    <path d="M 271.20474 182.380887 
Q 292.058284 220.258833 312.372617 257.157366 
" clip-path="url(#p71a3f5c026)" style="fill: none; stroke: #000000; stroke-linecap: round"/>
    <path d="M 312.195502 252.688738 
L 312.372617 257.157366 
L 308.691446 254.617881 
z
" clip-path="url(#p71a3f5c026)" style="stroke: #000000; stroke-linecap: round"/>
   </g>
   <g id="patch_40">
    <path d="M 270.158375 178.750204 
Q 269.21982 162.484106 268.345667 147.334186 
" clip-path="url(#p71a3f5c026)" style="fill: none; stroke: #000000; stroke-linecap: round"/>
    <path d="M 266.579406 151.442753 
L 268.345667 147.334186 
L 270.572764 151.212335 
z
" clip-path="url(#p71a3f5c026)" style="stroke: #000000; stroke-linecap: round"/>
   </g>
   <g id="patch_41">
    <path d="M 268.347185 180.883629 
Q 199.160058 188.108783 131.084918 195.217813 
" clip-path="url(#p71a3f5c026)" style="fill: none; stroke: #000000; stroke-linecap: round"/>
    <path d="M 135.271013 196.791538 
L 131.084918 195.217813 
L 134.855555 192.813172 
z
" clip-path="url(#p71a3f5c026)" style="stroke: #000000; stroke-linecap: round"/>
   </g>
   <g id="patch_42">
    <path d="M 272.205449 180.699166 
Q 317.814252 181.083787 362.30506 181.45898 
" clip-path="url(#p71a3f5c026)" style="fill: none; stroke: #000000; stroke-linecap: round"/>
    <path d="M 358.322067 179.425321 
L 362.30506 181.45898 
L 358.288336 183.425178 
z
" clip-path="url(#p71a3f5c026)" style="stroke: #000000; stroke-linecap: round"/>
   </g>
   <g id="patch_43">
    <path d="M 268.281359 146.219667 
Q 269.219915 162.485764 270.094067 177.635684 
" clip-path="url(#p71a3f5c026)" style="fill: none; stroke: #000000; stroke-linecap: round"/>
    <path d="M 271.860329 173.527118 
L 270.094067 177.635684 
L 267.866971 173.757535 
z
" clip-path="url(#p71a3f5c026)" style="stroke: #000000; stroke-linecap: round"/>
   </g>
   <g id="patch_44">
    <path d="M 126.123599 195.331698 
Q 84.018602 190.896135 43.025486 186.577702 
" clip-path="url(#p71a3f5c026)" style="fill: none; stroke: #000000; stroke-linecap: round"/>
    <path d="M 46.793943 188.985759 
L 43.025486 186.577702 
L 47.213005 185.007771 
z
" clip-path="url(#p71a3f5c026)" style="stroke: #000000; stroke-linecap: round"/>
   </g>
   <g id="patch_45">
    <path d="M 126.221426 196.162794 
Q 88.461546 209.129281 51.759091 221.732655 
" clip-path="url(#p71a3f5c026)" style="fill: none; stroke: #000000; stroke-linecap: round"/>
    <path d="M 56.191808 222.325124 
L 51.759091 221.732655 
L 54.892696 218.541963 
z
" clip-path="url(#p71a3f5c026)" style="stroke: #000000; stroke-linecap: round"/>
   </g>
   <g id="patch_46">
    <path d="M 129.973236 195.333905 
Q 199.160362 188.108751 267.235502 180.999721 
" clip-path="url(#p71a3f5c026)" style="fill: none; stroke: #000000; stroke-linecap: round"/>
    <path d="M 263.049407 179.425996 
L 267.235502 180.999721 
L 263.464865 183.404362 
z
" clip-path="url(#p71a3f5c026)" style="stroke: #000000; stroke-linecap: round"/>
   </g>
   <g id="patch_47">
    <path d="M 363.423455 181.468412 
Q 317.814652 181.083791 273.323844 180.708597 
" clip-path="url(#p71a3f5c026)" style="fill: none; stroke: #000000; stroke-linecap: round"/>
    <path d="M 277.306837 182.742257 
L 273.323844 180.708597 
L 277.340568 178.742399 
z
" clip-path="url(#p71a3f5c026)" style="stroke: #000000; stroke-linecap: round"/>
   </g>
   <g id="PathCollection_1">
    <defs>
     <path id="m9563891bfe" d="M 0 1.936492 
C 0.513564 1.936492 1.006162 1.732451 1.369306 1.369306 
C 1.732451 1.006162 1.936492 0.513564 1.936492 0 
C 1.936492 -0.513564 1.732451 -1.006162 1.369306 -1.369306 
C 1.006162 -1.732451 0.513564 -1.936492 0 -1.936492 
C -0.513564 -1.936492 -1.006162 -1.732451 -1.369306 -1.369306 
C -1.732451 -1.006162 -1.936492 -0.513564 -1.936492 0 
C -1.936492 0.513564 -1.732451 1.006162 -1.369306 1.369306 
C -1.006162 1.732451 -0.513564 1.936492 0 1.936492 
z
" style="stroke: #1f78b4"/>
    </defs>
    <g clip-path="url(#p71a3f5c026)">
     <use xlink:href="#m9563891bfe" x="264.026094" y="69.30857" style="fill: #1f78b4; stroke: #1f78b4"/>
     <use xlink:href="#m9563891bfe" x="336.133514" y="87.636001" style="fill: #1f78b4; stroke: #1f78b4"/>
     <use xlink:href="#m9563891bfe" x="202.358681" y="184.306207" style="fill: #1f78b4; stroke: #1f78b4"/>
     <use xlink:href="#m9563891bfe" x="339.712032" y="156.69372" style="fill: #1f78b4; stroke: #1f78b4"/>
     <use xlink:href="#m9563891bfe" x="342.383816" y="29.990083" style="fill: #1f78b4; stroke: #1f78b4"/>
     <use xlink:href="#m9563891bfe" x="204.169679" y="100.817904" style="fill: #1f78b4; stroke: #1f78b4"/>
     <use xlink:href="#m9563891bfe" x="420.813223" y="67.442438" style="fill: #1f78b4; stroke: #1f78b4"/>
     <use xlink:href="#m9563891bfe" x="391.192816" y="39.750511" style="fill: #1f78b4; stroke: #1f78b4"/>
     <use xlink:href="#m9563891bfe" x="164.935716" y="49.48743" style="fill: #1f78b4; stroke: #1f78b4"/>
     <use xlink:href="#m9563891bfe" x="124.67339" y="74.177324" style="fill: #1f78b4; stroke: #1f78b4"/>
     <use xlink:href="#m9563891bfe" x="313.549295" y="221.277744" style="fill: #1f78b4; stroke: #1f78b4"/>
     <use xlink:href="#m9563891bfe" x="39.986777" y="186.257589" style="fill: #1f78b4; stroke: #1f78b4"/>
     <use xlink:href="#m9563891bfe" x="356.407993" y="209.242533" style="fill: #1f78b4; stroke: #1f78b4"/>
     <use xlink:href="#m9563891bfe" x="253.708399" y="224.01176" style="fill: #1f78b4; stroke: #1f78b4"/>
     <use xlink:href="#m9563891bfe" x="48.874688" y="222.72314" style="fill: #1f78b4; stroke: #1f78b4"/>
     <use xlink:href="#m9563891bfe" x="166.043727" y="299.271072" style="fill: #1f78b4; stroke: #1f78b4"/>
     <use xlink:href="#m9563891bfe" x="209.197366" y="249.443103" style="fill: #1f78b4; stroke: #1f78b4"/>
     <use xlink:href="#m9563891bfe" x="340.463348" y="315.609917" style="fill: #1f78b4; stroke: #1f78b4"/>
     <use xlink:href="#m9563891bfe" x="313.844842" y="259.831483" style="fill: #1f78b4; stroke: #1f78b4"/>
     <use xlink:href="#m9563891bfe" x="270.269889" y="180.682843" style="fill: #1f78b4; stroke: #1f78b4"/>
     <use xlink:href="#m9563891bfe" x="268.169846" y="144.287027" style="fill: #1f78b4; stroke: #1f78b4"/>
     <use xlink:href="#m9563891bfe" x="128.050531" y="195.534691" style="fill: #1f78b4; stroke: #1f78b4"/>
     <use xlink:href="#m9563891bfe" x="365.359015" y="181.484735" style="fill: #1f78b4; stroke: #1f78b4"/>
    </g>
   </g>
   <g id="text_1">
    <g clip-path="url(#p71a3f5c026)">
     <!-- 0 -->
     <g transform="translate(260.844844 72.067945) scale(0.1 -0.1)">
      <defs>
       <path id="DejaVuSans-30" d="M 2034 4250 
Q 1547 4250 1301 3770 
Q 1056 3291 1056 2328 
Q 1056 1369 1301 889 
Q 1547 409 2034 409 
Q 2525 409 2770 889 
Q 3016 1369 3016 2328 
Q 3016 3291 2770 3770 
Q 2525 4250 2034 4250 
z
M 2034 4750 
Q 2819 4750 3233 4129 
Q 3647 3509 3647 2328 
Q 3647 1150 3233 529 
Q 2819 -91 2034 -91 
Q 1250 -91 836 529 
Q 422 1150 422 2328 
Q 422 3509 836 4129 
Q 1250 4750 2034 4750 
z
" transform="scale(0.015625)"/>
      </defs>
      <use xlink:href="#DejaVuSans-30"/>
     </g>
    </g>
   </g>
   <g id="text_2">
    <g clip-path="url(#p71a3f5c026)">
     <!-- 1 -->
     <g transform="translate(332.952264 90.395376) scale(0.1 -0.1)">
      <defs>
       <path id="DejaVuSans-31" d="M 794 531 
L 1825 531 
L 1825 4091 
L 703 3866 
L 703 4441 
L 1819 4666 
L 2450 4666 
L 2450 531 
L 3481 531 
L 3481 0 
L 794 0 
L 794 531 
z
" transform="scale(0.015625)"/>
      </defs>
      <use xlink:href="#DejaVuSans-31"/>
     </g>
    </g>
   </g>
   <g id="text_3">
    <g clip-path="url(#p71a3f5c026)">
     <!-- 2 -->
     <g transform="translate(199.177431 187.065582) scale(0.1 -0.1)">
      <defs>
       <path id="DejaVuSans-32" d="M 1228 531 
L 3431 531 
L 3431 0 
L 469 0 
L 469 531 
Q 828 903 1448 1529 
Q 2069 2156 2228 2338 
Q 2531 2678 2651 2914 
Q 2772 3150 2772 3378 
Q 2772 3750 2511 3984 
Q 2250 4219 1831 4219 
Q 1534 4219 1204 4116 
Q 875 4013 500 3803 
L 500 4441 
Q 881 4594 1212 4672 
Q 1544 4750 1819 4750 
Q 2544 4750 2975 4387 
Q 3406 4025 3406 3419 
Q 3406 3131 3298 2873 
Q 3191 2616 2906 2266 
Q 2828 2175 2409 1742 
Q 1991 1309 1228 531 
z
" transform="scale(0.015625)"/>
      </defs>
      <use xlink:href="#DejaVuSans-32"/>
     </g>
    </g>
   </g>
   <g id="text_4">
    <g clip-path="url(#p71a3f5c026)">
     <!-- 3 -->
     <g transform="translate(336.530782 159.453095) scale(0.1 -0.1)">
      <defs>
       <path id="DejaVuSans-33" d="M 2597 2516 
Q 3050 2419 3304 2112 
Q 3559 1806 3559 1356 
Q 3559 666 3084 287 
Q 2609 -91 1734 -91 
Q 1441 -91 1130 -33 
Q 819 25 488 141 
L 488 750 
Q 750 597 1062 519 
Q 1375 441 1716 441 
Q 2309 441 2620 675 
Q 2931 909 2931 1356 
Q 2931 1769 2642 2001 
Q 2353 2234 1838 2234 
L 1294 2234 
L 1294 2753 
L 1863 2753 
Q 2328 2753 2575 2939 
Q 2822 3125 2822 3475 
Q 2822 3834 2567 4026 
Q 2313 4219 1838 4219 
Q 1578 4219 1281 4162 
Q 984 4106 628 3988 
L 628 4550 
Q 988 4650 1302 4700 
Q 1616 4750 1894 4750 
Q 2613 4750 3031 4423 
Q 3450 4097 3450 3541 
Q 3450 3153 3228 2886 
Q 3006 2619 2597 2516 
z
" transform="scale(0.015625)"/>
      </defs>
      <use xlink:href="#DejaVuSans-33"/>
     </g>
    </g>
   </g>
   <g id="text_5">
    <g clip-path="url(#p71a3f5c026)">
     <!-- 4 -->
     <g transform="translate(339.202566 32.749458) scale(0.1 -0.1)">
      <defs>
       <path id="DejaVuSans-34" d="M 2419 4116 
L 825 1625 
L 2419 1625 
L 2419 4116 
z
M 2253 4666 
L 3047 4666 
L 3047 1625 
L 3713 1625 
L 3713 1100 
L 3047 1100 
L 3047 0 
L 2419 0 
L 2419 1100 
L 313 1100 
L 313 1709 
L 2253 4666 
z
" transform="scale(0.015625)"/>
      </defs>
      <use xlink:href="#DejaVuSans-34"/>
     </g>
    </g>
   </g>
   <g id="text_6">
    <g clip-path="url(#p71a3f5c026)">
     <!-- 5 -->
     <g transform="translate(200.988429 103.577279) scale(0.1 -0.1)">
      <defs>
       <path id="DejaVuSans-35" d="M 691 4666 
L 3169 4666 
L 3169 4134 
L 1269 4134 
L 1269 2991 
Q 1406 3038 1543 3061 
Q 1681 3084 1819 3084 
Q 2600 3084 3056 2656 
Q 3513 2228 3513 1497 
Q 3513 744 3044 326 
Q 2575 -91 1722 -91 
Q 1428 -91 1123 -41 
Q 819 9 494 109 
L 494 744 
Q 775 591 1075 516 
Q 1375 441 1709 441 
Q 2250 441 2565 725 
Q 2881 1009 2881 1497 
Q 2881 1984 2565 2268 
Q 2250 2553 1709 2553 
Q 1456 2553 1204 2497 
Q 953 2441 691 2322 
L 691 4666 
z
" transform="scale(0.015625)"/>
      </defs>
      <use xlink:href="#DejaVuSans-35"/>
     </g>
    </g>
   </g>
   <g id="text_7">
    <g clip-path="url(#p71a3f5c026)">
     <!-- 6 -->
     <g transform="translate(417.631973 70.201813) scale(0.1 -0.1)">
      <defs>
       <path id="DejaVuSans-36" d="M 2113 2584 
Q 1688 2584 1439 2293 
Q 1191 2003 1191 1497 
Q 1191 994 1439 701 
Q 1688 409 2113 409 
Q 2538 409 2786 701 
Q 3034 994 3034 1497 
Q 3034 2003 2786 2293 
Q 2538 2584 2113 2584 
z
M 3366 4563 
L 3366 3988 
Q 3128 4100 2886 4159 
Q 2644 4219 2406 4219 
Q 1781 4219 1451 3797 
Q 1122 3375 1075 2522 
Q 1259 2794 1537 2939 
Q 1816 3084 2150 3084 
Q 2853 3084 3261 2657 
Q 3669 2231 3669 1497 
Q 3669 778 3244 343 
Q 2819 -91 2113 -91 
Q 1303 -91 875 529 
Q 447 1150 447 2328 
Q 447 3434 972 4092 
Q 1497 4750 2381 4750 
Q 2619 4750 2861 4703 
Q 3103 4656 3366 4563 
z
" transform="scale(0.015625)"/>
      </defs>
      <use xlink:href="#DejaVuSans-36"/>
     </g>
    </g>
   </g>
   <g id="text_8">
    <g clip-path="url(#p71a3f5c026)">
     <!-- 7 -->
     <g transform="translate(388.011566 42.509886) scale(0.1 -0.1)">
      <defs>
       <path id="DejaVuSans-37" d="M 525 4666 
L 3525 4666 
L 3525 4397 
L 1831 0 
L 1172 0 
L 2766 4134 
L 525 4134 
L 525 4666 
z
" transform="scale(0.015625)"/>
      </defs>
      <use xlink:href="#DejaVuSans-37"/>
     </g>
    </g>
   </g>
   <g id="text_9">
    <g clip-path="url(#p71a3f5c026)">
     <!-- 8 -->
     <g transform="translate(161.754466 52.246805) scale(0.1 -0.1)">
      <defs>
       <path id="DejaVuSans-38" d="M 2034 2216 
Q 1584 2216 1326 1975 
Q 1069 1734 1069 1313 
Q 1069 891 1326 650 
Q 1584 409 2034 409 
Q 2484 409 2743 651 
Q 3003 894 3003 1313 
Q 3003 1734 2745 1975 
Q 2488 2216 2034 2216 
z
M 1403 2484 
Q 997 2584 770 2862 
Q 544 3141 544 3541 
Q 544 4100 942 4425 
Q 1341 4750 2034 4750 
Q 2731 4750 3128 4425 
Q 3525 4100 3525 3541 
Q 3525 3141 3298 2862 
Q 3072 2584 2669 2484 
Q 3125 2378 3379 2068 
Q 3634 1759 3634 1313 
Q 3634 634 3220 271 
Q 2806 -91 2034 -91 
Q 1263 -91 848 271 
Q 434 634 434 1313 
Q 434 1759 690 2068 
Q 947 2378 1403 2484 
z
M 1172 3481 
Q 1172 3119 1398 2916 
Q 1625 2713 2034 2713 
Q 2441 2713 2670 2916 
Q 2900 3119 2900 3481 
Q 2900 3844 2670 4047 
Q 2441 4250 2034 4250 
Q 1625 4250 1398 4047 
Q 1172 3844 1172 3481 
z
" transform="scale(0.015625)"/>
      </defs>
      <use xlink:href="#DejaVuSans-38"/>
     </g>
    </g>
   </g>
   <g id="text_10">
    <g clip-path="url(#p71a3f5c026)">
     <!-- 9 -->
     <g transform="translate(121.49214 76.936699) scale(0.1 -0.1)">
      <defs>
       <path id="DejaVuSans-39" d="M 703 97 
L 703 672 
Q 941 559 1184 500 
Q 1428 441 1663 441 
Q 2288 441 2617 861 
Q 2947 1281 2994 2138 
Q 2813 1869 2534 1725 
Q 2256 1581 1919 1581 
Q 1219 1581 811 2004 
Q 403 2428 403 3163 
Q 403 3881 828 4315 
Q 1253 4750 1959 4750 
Q 2769 4750 3195 4129 
Q 3622 3509 3622 2328 
Q 3622 1225 3098 567 
Q 2575 -91 1691 -91 
Q 1453 -91 1209 -44 
Q 966 3 703 97 
z
M 1959 2075 
Q 2384 2075 2632 2365 
Q 2881 2656 2881 3163 
Q 2881 3666 2632 3958 
Q 2384 4250 1959 4250 
Q 1534 4250 1286 3958 
Q 1038 3666 1038 3163 
Q 1038 2656 1286 2365 
Q 1534 2075 1959 2075 
z
" transform="scale(0.015625)"/>
      </defs>
      <use xlink:href="#DejaVuSans-39"/>
     </g>
    </g>
   </g>
   <g id="text_11">
    <g clip-path="url(#p71a3f5c026)">
     <!-- 10 -->
     <g transform="translate(307.186795 224.037119) scale(0.1 -0.1)">
      <use xlink:href="#DejaVuSans-31"/>
      <use xlink:href="#DejaVuSans-30" x="63.623047"/>
     </g>
    </g>
   </g>
   <g id="text_12">
    <g clip-path="url(#p71a3f5c026)">
     <!-- 11 -->
     <g transform="translate(33.624277 189.016964) scale(0.1 -0.1)">
      <use xlink:href="#DejaVuSans-31"/>
      <use xlink:href="#DejaVuSans-31" x="63.623047"/>
     </g>
    </g>
   </g>
   <g id="text_13">
    <g clip-path="url(#p71a3f5c026)">
     <!-- 12 -->
     <g transform="translate(350.045493 212.001908) scale(0.1 -0.1)">
      <use xlink:href="#DejaVuSans-31"/>
      <use xlink:href="#DejaVuSans-32" x="63.623047"/>
     </g>
    </g>
   </g>
   <g id="text_14">
    <g clip-path="url(#p71a3f5c026)">
     <!-- 13 -->
     <g transform="translate(247.345899 226.771135) scale(0.1 -0.1)">
      <use xlink:href="#DejaVuSans-31"/>
      <use xlink:href="#DejaVuSans-33" x="63.623047"/>
     </g>
    </g>
   </g>
   <g id="text_15">
    <g clip-path="url(#p71a3f5c026)">
     <!-- 14 -->
     <g transform="translate(42.512188 225.482515) scale(0.1 -0.1)">
      <use xlink:href="#DejaVuSans-31"/>
      <use xlink:href="#DejaVuSans-34" x="63.623047"/>
     </g>
    </g>
   </g>
   <g id="text_16">
    <g clip-path="url(#p71a3f5c026)">
     <!-- 15 -->
     <g transform="translate(159.681227 302.030447) scale(0.1 -0.1)">
      <use xlink:href="#DejaVuSans-31"/>
      <use xlink:href="#DejaVuSans-35" x="63.623047"/>
     </g>
    </g>
   </g>
   <g id="text_17">
    <g clip-path="url(#p71a3f5c026)">
     <!-- 16 -->
     <g transform="translate(202.834866 252.202478) scale(0.1 -0.1)">
      <use xlink:href="#DejaVuSans-31"/>
      <use xlink:href="#DejaVuSans-36" x="63.623047"/>
     </g>
    </g>
   </g>
   <g id="text_18">
    <g clip-path="url(#p71a3f5c026)">
     <!-- 17 -->
     <g transform="translate(334.100848 318.369292) scale(0.1 -0.1)">
      <use xlink:href="#DejaVuSans-31"/>
      <use xlink:href="#DejaVuSans-37" x="63.623047"/>
     </g>
    </g>
   </g>
   <g id="text_19">
    <g clip-path="url(#p71a3f5c026)">
     <!-- 18 -->
     <g transform="translate(307.482342 262.590858) scale(0.1 -0.1)">
      <use xlink:href="#DejaVuSans-31"/>
      <use xlink:href="#DejaVuSans-38" x="63.623047"/>
     </g>
    </g>
   </g>
   <g id="text_20">
    <g clip-path="url(#p71a3f5c026)">
     <!-- 19 -->
     <g transform="translate(263.907389 183.442218) scale(0.1 -0.1)">
      <use xlink:href="#DejaVuSans-31"/>
      <use xlink:href="#DejaVuSans-39" x="63.623047"/>
     </g>
    </g>
   </g>
   <g id="text_21">
    <g clip-path="url(#p71a3f5c026)">
     <!-- 20 -->
     <g transform="translate(261.807346 147.046402) scale(0.1 -0.1)">
      <use xlink:href="#DejaVuSans-32"/>
      <use xlink:href="#DejaVuSans-30" x="63.623047"/>
     </g>
    </g>
   </g>
   <g id="text_22">
    <g clip-path="url(#p71a3f5c026)">
     <!-- 21 -->
     <g transform="translate(121.688031 198.294066) scale(0.1 -0.1)">
      <use xlink:href="#DejaVuSans-32"/>
      <use xlink:href="#DejaVuSans-31" x="63.623047"/>
     </g>
    </g>
   </g>
   <g id="text_23">
    <g clip-path="url(#p71a3f5c026)">
     <!-- 22 -->
     <g transform="translate(358.996515 184.24411) scale(0.1 -0.1)">
      <use xlink:href="#DejaVuSans-32"/>
      <use xlink:href="#DejaVuSans-32" x="63.623047"/>
     </g>
    </g>
   </g>
  </g>
 </g>
 <defs>
  <clipPath id="p71a3f5c026">
   <rect x="0" y="0" width="460.8" height="345.6"/>
  </clipPath>
 </defs>
</svg>
