<?xml version="1.0" encoding="utf-8" standalone="no"?>
<!DOCTYPE svg PUBLIC "-//W3C//DTD SVG 1.1//EN"
  "http://www.w3.org/Graphics/SVG/1.1/DTD/svg11.dtd">
<svg xmlns:xlink="http://www.w3.org/1999/xlink" width="460.8pt" height="345.6pt" viewBox="0 0 460.8 345.6" xmlns="http://www.w3.org/2000/svg" version="1.1">
 <metadata>
  <rdf:RDF xmlns:dc="http://purl.org/dc/elements/1.1/" xmlns:cc="http://creativecommons.org/ns#" xmlns:rdf="http://www.w3.org/1999/02/22-rdf-syntax-ns#">
   <cc:Work>
    <dc:type rdf:resource="http://purl.org/dc/dcmitype/StillImage"/>
    <dc:date>2024-02-28T11:17:18.130665</dc:date>
    <dc:format>image/svg+xml</dc:format>
    <dc:creator>
     <cc:Agent>
      <dc:title>Matplotlib v3.8.0, https://matplotlib.org/</dc:title>
     </cc:Agent>
    </dc:creator>
   </cc:Work>
  </rdf:RDF>
 </metadata>
 <defs>
  <style type="text/css">*{stroke-linejoin: round; stroke-linecap: butt}</style>
 </defs>
 <g id="figure_1">
  <g id="patch_1">
   <path d="M 0 345.6 
L 460.8 345.6 
L 460.8 0 
L 0 0 
z
" style="fill: #ffffff"/>
  </g>
  <g id="axes_1">
   <g id="patch_2">
    <path d="M 355.064828 105.53069 
Q 386.973908 102.935958 417.768632 100.431842 
" clip-path="url(#p816dc3685b)" style="fill: none; stroke: #000000; stroke-linecap: round"/>
    <path d="M 413.619694 98.762618 
L 417.768632 100.431842 
L 413.943889 102.749458 
z
" clip-path="url(#p816dc3685b)" style="stroke: #000000; stroke-linecap: round"/>
   </g>
   <g id="patch_3">
    <path d="M 353.35372 107.610843 
Q 355.886413 129.962528 358.293226 151.203289 
" clip-path="url(#p816dc3685b)" style="fill: none; stroke: #000000; stroke-linecap: round"/>
    <path d="M 359.830146 147.003542 
L 358.293226 151.203289 
L 355.855581 147.453904 
z
" clip-path="url(#p816dc3685b)" style="stroke: #000000; stroke-linecap: round"/>
   </g>
   <g id="patch_4">
    <path d="M 351.202521 105.80493 
Q 298.239792 109.020559 246.393041 112.16843 
" clip-path="url(#p816dc3685b)" style="fill: none; stroke: #000000; stroke-linecap: round"/>
    <path d="M 250.506896 113.922341 
L 246.393041 112.16843 
L 250.264482 109.929693 
z
" clip-path="url(#p816dc3685b)" style="stroke: #000000; stroke-linecap: round"/>
   </g>
   <g id="patch_5">
    <path d="M 418.884185 100.34113 
Q 386.975105 102.935861 356.180381 105.439977 
" clip-path="url(#p816dc3685b)" style="fill: none; stroke: #000000; stroke-linecap: round"/>
    <path d="M 360.329319 107.109202 
L 356.180381 105.439977 
L 360.005123 103.122361 
z
" clip-path="url(#p816dc3685b)" style="stroke: #000000; stroke-linecap: round"/>
   </g>
   <g id="patch_6">
    <path d="M 419.350286 101.456171 
Q 389.725719 127.212298 360.944889 152.234867 
" clip-path="url(#p816dc3685b)" style="fill: none; stroke: #000000; stroke-linecap: round"/>
    <path d="M 365.275762 151.119726 
L 360.944889 152.234867 
L 362.6513 148.101084 
z
" clip-path="url(#p816dc3685b)" style="stroke: #000000; stroke-linecap: round"/>
   </g>
   <g id="patch_7">
    <path d="M 419.735804 98.576823 
Q 406.461668 78.772601 393.810019 59.897093 
" clip-path="url(#p816dc3685b)" style="fill: none; stroke: #000000; stroke-linecap: round"/>
    <path d="M 394.375763 64.3333 
L 393.810019 59.897093 
L 397.698431 62.106222 
z
" clip-path="url(#p816dc3685b)" style="stroke: #000000; stroke-linecap: round"/>
   </g>
   <g id="patch_8">
    <path d="M 279.123679 226.992453 
Q 279.183649 207.268618 279.240219 188.662811 
" clip-path="url(#p816dc3685b)" style="fill: none; stroke: #000000; stroke-linecap: round"/>
    <path d="M 277.228066 192.656712 
L 279.240219 188.662811 
L 281.228048 192.668874 
z
" clip-path="url(#p816dc3685b)" style="stroke: #000000; stroke-linecap: round"/>
   </g>
   <g id="patch_9">
    <path d="M 277.396449 229.818297 
Q 234.981669 251.689608 193.56059 273.048514 
" clip-path="url(#p816dc3685b)" style="fill: none; stroke: #000000; stroke-linecap: round"/>
    <path d="M 198.032379 272.992865 
L 193.56059 273.048514 
L 196.199144 269.437693 
z
" clip-path="url(#p816dc3685b)" style="stroke: #000000; stroke-linecap: round"/>
   </g>
   <g id="patch_10">
    <path d="M 280.527726 227.606383 
Q 318.875807 191.58754 356.408957 156.33413 
" clip-path="url(#p816dc3685b)" style="fill: none; stroke: #000000; stroke-linecap: round"/>
    <path d="M 352.124123 157.614832 
L 356.408957 156.33413 
L 354.862618 160.530418 
z
" clip-path="url(#p816dc3685b)" style="stroke: #000000; stroke-linecap: round"/>
   </g>
   <g id="patch_11">
    <path d="M 278.739546 230.82974 
Q 272.858329 260.358017 267.195504 288.789798 
" clip-path="url(#p816dc3685b)" style="fill: none; stroke: #000000; stroke-linecap: round"/>
    <path d="M 269.938319 285.257523 
L 267.195504 288.789798 
L 266.015373 284.476181 
z
" clip-path="url(#p816dc3685b)" style="stroke: #000000; stroke-linecap: round"/>
   </g>
   <g id="patch_12">
    <path d="M 358.419503 152.317719 
Q 355.88681 129.966033 353.479997 108.725273 
" clip-path="url(#p816dc3685b)" style="fill: none; stroke: #000000; stroke-linecap: round"/>
    <path d="M 351.943076 112.92502 
L 353.479997 108.725273 
L 355.917642 112.474658 
z
" clip-path="url(#p816dc3685b)" style="stroke: #000000; stroke-linecap: round"/>
   </g>
   <g id="patch_13">
    <path d="M 360.100371 152.969106 
Q 389.724937 127.212978 418.505768 102.19041 
" clip-path="url(#p816dc3685b)" style="fill: none; stroke: #000000; stroke-linecap: round"/>
    <path d="M 414.174895 103.305551 
L 418.505768 102.19041 
L 416.799356 106.324193 
z
" clip-path="url(#p816dc3685b)" style="stroke: #000000; stroke-linecap: round"/>
   </g>
   <g id="patch_14">
    <path d="M 357.227493 155.565311 
Q 318.879412 191.584154 281.346262 226.837564 
" clip-path="url(#p816dc3685b)" style="fill: none; stroke: #000000; stroke-linecap: round"/>
    <path d="M 285.631096 225.556862 
L 281.346262 226.837564 
L 282.892601 222.641276 
z
" clip-path="url(#p816dc3685b)" style="stroke: #000000; stroke-linecap: round"/>
   </g>
   <g id="patch_15">
    <path d="M 393.187507 58.968343 
Q 406.461644 78.772564 419.113292 97.648072 
" clip-path="url(#p816dc3685b)" style="fill: none; stroke: #000000; stroke-linecap: round"/>
    <path d="M 418.547548 93.211865 
L 419.113292 97.648072 
L 415.22488 95.438943 
z
" clip-path="url(#p816dc3685b)" style="stroke: #000000; stroke-linecap: round"/>
   </g>
   <g id="patch_16">
    <path d="M 390.198425 57.687176 
Q 333.999424 67.279084 278.90252 76.682889 
" clip-path="url(#p816dc3685b)" style="fill: none; stroke: #000000; stroke-linecap: round"/>
    <path d="M 283.18199 77.981401 
L 278.90252 76.682889 
L 282.509012 74.03842 
z
" clip-path="url(#p816dc3685b)" style="stroke: #000000; stroke-linecap: round"/>
   </g>
   <g id="patch_17">
    <path d="M 41.613492 117.496204 
Q 59.672111 105.786543 76.792646 94.685159 
" clip-path="url(#p816dc3685b)" style="fill: none; stroke: #000000; stroke-linecap: round"/>
    <path d="M 72.348341 95.183301 
L 76.792646 94.685159 
L 74.524577 98.539489 
z
" clip-path="url(#p816dc3685b)" style="stroke: #000000; stroke-linecap: round"/>
   </g>
   <g id="patch_18">
    <path d="M 41.906874 118.311322 
Q 95.081325 111.67359 147.146353 105.174347 
" clip-path="url(#p816dc3685b)" style="fill: none; stroke: #000000; stroke-linecap: round"/>
    <path d="M 142.929422 103.685222 
L 147.146353 105.174347 
L 143.424894 107.654417 
z
" clip-path="url(#p816dc3685b)" style="stroke: #000000; stroke-linecap: round"/>
   </g>
   <g id="patch_19">
    <path d="M 148.255359 105.035911 
Q 95.080907 111.673642 43.01588 118.172885 
" clip-path="url(#p816dc3685b)" style="fill: none; stroke: #000000; stroke-linecap: round"/>
    <path d="M 47.23281 119.662011 
L 43.01588 118.172885 
L 46.737339 115.692816 
z
" clip-path="url(#p816dc3685b)" style="stroke: #000000; stroke-linecap: round"/>
   </g>
   <g id="patch_20">
    <path d="M 148.269209 104.479355 
Q 114.76888 98.910664 82.371451 93.525306 
" clip-path="url(#p816dc3685b)" style="fill: none; stroke: #000000; stroke-linecap: round"/>
    <path d="M 85.989351 96.154146 
L 82.371451 93.525306 
L 86.645262 92.208289 
z
" clip-path="url(#p816dc3685b)" style="stroke: #000000; stroke-linecap: round"/>
   </g>
   <g id="patch_21">
    <path d="M 152.106061 104.952824 
Q 196.7607 108.574903 240.300965 112.106592 
" clip-path="url(#p816dc3685b)" style="fill: none; stroke: #000000; stroke-linecap: round"/>
    <path d="M 236.475755 109.789748 
L 240.300965 112.106592 
L 236.152364 113.776654 
z
" clip-path="url(#p816dc3685b)" style="stroke: #000000; stroke-linecap: round"/>
   </g>
   <g id="patch_22">
    <path d="M 152.066887 104.380986 
Q 213.03299 90.996641 272.907066 77.852037 
" clip-path="url(#p816dc3685b)" style="fill: none; stroke: #000000; stroke-linecap: round"/>
    <path d="M 268.571247 76.756282 
L 272.907066 77.852037 
L 269.428971 80.663239 
z
" clip-path="url(#p816dc3685b)" style="stroke: #000000; stroke-linecap: round"/>
   </g>
   <g id="patch_23">
    <path d="M 277.803961 76.870389 
Q 334.002962 67.27848 389.099867 57.874675 
" clip-path="url(#p816dc3685b)" style="fill: none; stroke: #000000; stroke-linecap: round"/>
    <path d="M 384.820396 56.576163 
L 389.099867 57.874675 
L 385.493375 60.519144 
z
" clip-path="url(#p816dc3685b)" style="stroke: #000000; stroke-linecap: round"/>
   </g>
   <g id="patch_24">
    <path d="M 274.000867 77.611907 
Q 213.034764 90.996252 153.160688 104.140856 
" clip-path="url(#p816dc3685b)" style="fill: none; stroke: #000000; stroke-linecap: round"/>
    <path d="M 157.496507 105.236611 
L 153.160688 104.140856 
L 156.638783 101.329654 
z
" clip-path="url(#p816dc3685b)" style="stroke: #000000; stroke-linecap: round"/>
   </g>
   <g id="patch_25">
    <path d="M 273.959356 77.313106 
Q 229.112999 80.014633 185.382653 82.648932 
" clip-path="url(#p816dc3685b)" style="fill: none; stroke: #000000; stroke-linecap: round"/>
    <path d="M 189.495677 84.404791 
L 185.382653 82.648932 
L 189.255154 80.412029 
z
" clip-path="url(#p816dc3685b)" style="stroke: #000000; stroke-linecap: round"/>
   </g>
   <g id="patch_26">
    <path d="M 77.728011 94.078645 
Q 59.669393 105.788305 42.548857 116.889689 
" clip-path="url(#p816dc3685b)" style="fill: none; stroke: #000000; stroke-linecap: round"/>
    <path d="M 46.993163 116.391547 
L 42.548857 116.889689 
L 44.816927 113.035359 
z
" clip-path="url(#p816dc3685b)" style="stroke: #000000; stroke-linecap: round"/>
   </g>
   <g id="patch_27">
    <path d="M 81.260973 93.340714 
Q 114.761302 98.909404 147.158732 104.294762 
" clip-path="url(#p816dc3685b)" style="fill: none; stroke: #000000; stroke-linecap: round"/>
    <path d="M 143.540831 101.665923 
L 147.158732 104.294762 
L 142.88492 105.611779 
z
" clip-path="url(#p816dc3685b)" style="stroke: #000000; stroke-linecap: round"/>
   </g>
   <g id="patch_28">
    <path d="M 81.281197 92.833191 
Q 130.844124 87.928245 179.294452 83.133407 
" clip-path="url(#p816dc3685b)" style="fill: none; stroke: #000000; stroke-linecap: round"/>
    <path d="M 175.116931 81.537061 
L 179.294452 83.133407 
L 175.510863 85.517616 
z
" clip-path="url(#p816dc3685b)" style="stroke: #000000; stroke-linecap: round"/>
   </g>
   <g id="patch_29">
    <path d="M 184.267431 82.716113 
Q 229.113788 80.014586 272.844134 77.380287 
" clip-path="url(#p816dc3685b)" style="fill: none; stroke: #000000; stroke-linecap: round"/>
    <path d="M 268.731111 75.624428 
L 272.844134 77.380287 
L 268.971633 79.61719 
z
" clip-path="url(#p816dc3685b)" style="stroke: #000000; stroke-linecap: round"/>
   </g>
   <g id="patch_30">
    <path d="M 180.408019 83.023204 
Q 130.845092 87.928149 82.394764 92.722988 
" clip-path="url(#p816dc3685b)" style="fill: none; stroke: #000000; stroke-linecap: round"/>
    <path d="M 86.572285 94.319334 
L 82.394764 92.722988 
L 86.178353 90.338779 
z
" clip-path="url(#p816dc3685b)" style="stroke: #000000; stroke-linecap: round"/>
   </g>
   <g id="patch_31">
    <path d="M 181.244268 81.229604 
Q 164.364957 56.412025 148.114413 32.518919 
" clip-path="url(#p816dc3685b)" style="fill: none; stroke: #000000; stroke-linecap: round"/>
    <path d="M 148.71021 36.95119 
L 148.114413 32.518919 
L 152.017708 34.701644 
z
" clip-path="url(#p816dc3685b)" style="stroke: #000000; stroke-linecap: round"/>
   </g>
   <g id="patch_32">
    <path d="M 183.330918 81.170487 
Q 190.784785 68.737261 197.663774 57.262947 
" clip-path="url(#p816dc3685b)" style="fill: none; stroke: #000000; stroke-linecap: round"/>
    <path d="M 193.891667 59.665282 
L 197.663774 57.262947 
L 197.322377 61.722033 
z
" clip-path="url(#p816dc3685b)" style="stroke: #000000; stroke-linecap: round"/>
   </g>
   <g id="patch_33">
    <path d="M 184.080943 83.677604 
Q 212.842999 97.594618 240.598644 111.024664 
" clip-path="url(#p816dc3685b)" style="fill: none; stroke: #000000; stroke-linecap: round"/>
    <path d="M 237.869118 107.48211 
L 240.598644 111.024664 
L 236.126886 111.082752 
z
" clip-path="url(#p816dc3685b)" style="stroke: #000000; stroke-linecap: round"/>
   </g>
   <g id="patch_34">
    <path d="M 183.275295 84.521246 
Q 199.574782 113.77791 215.330136 142.057885 
" clip-path="url(#p816dc3685b)" style="fill: none; stroke: #000000; stroke-linecap: round"/>
    <path d="M 215.13054 137.590206 
L 215.330136 142.057885 
L 211.636234 139.536955 
z
" clip-path="url(#p816dc3685b)" style="stroke: #000000; stroke-linecap: round"/>
   </g>
   <g id="patch_35">
    <path d="M 180.790519 313.733192 
Q 185.578966 295.02792 190.090144 277.405756 
" clip-path="url(#p816dc3685b)" style="fill: none; stroke: #000000; stroke-linecap: round"/>
    <path d="M 187.160633 280.784804 
L 190.090144 277.405756 
L 191.035675 281.776794 
z
" clip-path="url(#p816dc3685b)" style="stroke: #000000; stroke-linecap: round"/>
   </g>
   <g id="patch_36">
    <path d="M 182.177106 315.094473 
Q 223.453853 303.698825 263.652884 292.600712 
" clip-path="url(#p816dc3685b)" style="fill: none; stroke: #000000; stroke-linecap: round"/>
    <path d="M 259.264882 291.737327 
L 263.652884 292.600712 
L 260.329375 295.593083 
z
" clip-path="url(#p816dc3685b)" style="stroke: #000000; stroke-linecap: round"/>
   </g>
   <g id="patch_37">
    <path d="M 192.568761 273.559954 
Q 234.983541 251.688643 276.40462 230.329737 
" clip-path="url(#p816dc3685b)" style="fill: none; stroke: #000000; stroke-linecap: round"/>
    <path d="M 271.932831 230.385386 
L 276.40462 230.329737 
L 273.766066 233.940558 
z
" clip-path="url(#p816dc3685b)" style="stroke: #000000; stroke-linecap: round"/>
   </g>
   <g id="patch_38">
    <path d="M 190.366993 276.324292 
Q 185.578546 295.029563 181.067368 312.651727 
" clip-path="url(#p816dc3685b)" style="fill: none; stroke: #000000; stroke-linecap: round"/>
    <path d="M 183.996879 309.272679 
L 181.067368 312.651727 
L 180.121837 308.280689 
z
" clip-path="url(#p816dc3685b)" style="stroke: #000000; stroke-linecap: round"/>
   </g>
   <g id="patch_39">
    <path d="M 147.484684 31.593031 
Q 164.363995 56.410611 180.614539 80.303716 
" clip-path="url(#p816dc3685b)" style="fill: none; stroke: #000000; stroke-linecap: round"/>
    <path d="M 180.018742 75.871445 
L 180.614539 80.303716 
L 176.711244 78.120991 
z
" clip-path="url(#p816dc3685b)" style="stroke: #000000; stroke-linecap: round"/>
   </g>
   <g id="patch_40">
    <path d="M 148.152144 30.810135 
Q 172.815691 42.316997 196.46605 53.351154 
" clip-path="url(#p816dc3685b)" style="fill: none; stroke: #000000; stroke-linecap: round"/>
    <path d="M 193.686763 49.847504 
L 196.46605 53.351154 
L 191.995558 53.472394 
z
" clip-path="url(#p816dc3685b)" style="stroke: #000000; stroke-linecap: round"/>
   </g>
   <g id="patch_41">
    <path d="M 198.238145 56.304883 
Q 190.784277 68.738109 183.905289 80.212422 
" clip-path="url(#p816dc3685b)" style="fill: none; stroke: #000000; stroke-linecap: round"/>
    <path d="M 187.677396 77.810088 
L 183.905289 80.212422 
L 184.246686 75.753336 
z
" clip-path="url(#p816dc3685b)" style="stroke: #000000; stroke-linecap: round"/>
   </g>
   <g id="patch_42">
    <path d="M 197.476891 53.822765 
Q 172.813344 42.315902 149.162985 31.281746 
" clip-path="url(#p816dc3685b)" style="fill: none; stroke: #000000; stroke-linecap: round"/>
    <path d="M 151.942272 34.785396 
L 149.162985 31.281746 
L 153.633477 31.160506 
z
" clip-path="url(#p816dc3685b)" style="stroke: #000000; stroke-linecap: round"/>
   </g>
   <g id="patch_43">
    <path d="M 200.4111 56.182097 
Q 221.289714 83.498114 241.489386 109.925854 
" clip-path="url(#p816dc3685b)" style="fill: none; stroke: #000000; stroke-linecap: round"/>
    <path d="M 240.649327 105.533326 
L 241.489386 109.925854 
L 237.471329 107.962385 
z
" clip-path="url(#p816dc3685b)" style="stroke: #000000; stroke-linecap: round"/>
   </g>
   <g id="patch_44">
    <path d="M 245.278189 112.236118 
Q 298.240919 109.02049 350.087669 105.872619 
" clip-path="url(#p816dc3685b)" style="fill: none; stroke: #000000; stroke-linecap: round"/>
    <path d="M 345.973815 104.118708 
L 350.087669 105.872619 
L 346.216228 108.111356 
z
" clip-path="url(#p816dc3685b)" style="stroke: #000000; stroke-linecap: round"/>
   </g>
   <g id="patch_45">
    <path d="M 241.414316 112.196899 
Q 196.759677 108.57482 153.219412 105.043131 
" clip-path="url(#p816dc3685b)" style="fill: none; stroke: #000000; stroke-linecap: round"/>
    <path d="M 157.044622 107.359975 
L 153.219412 105.043131 
L 157.368013 103.373069 
z
" clip-path="url(#p816dc3685b)" style="stroke: #000000; stroke-linecap: round"/>
   </g>
   <g id="patch_46">
    <path d="M 241.598468 111.508445 
Q 212.836412 97.591431 185.080766 84.161386 
" clip-path="url(#p816dc3685b)" style="fill: none; stroke: #000000; stroke-linecap: round"/>
    <path d="M 187.810292 87.70394 
L 185.080766 84.161386 
L 189.552525 84.103297 
z
" clip-path="url(#p816dc3685b)" style="stroke: #000000; stroke-linecap: round"/>
   </g>
   <g id="patch_47">
    <path d="M 242.168394 110.814216 
Q 221.289779 83.498199 201.090108 57.07046 
" clip-path="url(#p816dc3685b)" style="fill: none; stroke: #000000; stroke-linecap: round"/>
    <path d="M 201.930167 61.462988 
L 201.090108 57.07046 
L 205.108165 59.033929 
z
" clip-path="url(#p816dc3685b)" style="stroke: #000000; stroke-linecap: round"/>
   </g>
   <g id="patch_48">
    <path d="M 244.197392 114.09274 
Q 261.296638 148.979263 277.903819 182.861857 
" clip-path="url(#p816dc3685b)" style="fill: none; stroke: #000000; stroke-linecap: round"/>
    <path d="M 277.939237 178.389861 
L 277.903819 182.861857 
L 274.347474 180.150325 
z
" clip-path="url(#p816dc3685b)" style="stroke: #000000; stroke-linecap: round"/>
   </g>
   <g id="patch_49">
    <path d="M 215.877263 143.039948 
Q 199.577776 113.783284 183.822422 85.503309 
" clip-path="url(#p816dc3685b)" style="fill: none; stroke: #000000; stroke-linecap: round"/>
    <path d="M 184.022019 89.970988 
L 183.822422 85.503309 
L 187.516324 88.024239 
z
" clip-path="url(#p816dc3685b)" style="stroke: #000000; stroke-linecap: round"/>
   </g>
   <g id="patch_50">
    <path d="M 218.437537 145.789034 
Q 248.032523 165.167184 276.692149 183.93288 
" clip-path="url(#p816dc3685b)" style="fill: none; stroke: #000000; stroke-linecap: round"/>
    <path d="M 274.44129 180.068474 
L 276.692149 183.93288 
L 272.250109 183.414923 
z
" clip-path="url(#p816dc3685b)" style="stroke: #000000; stroke-linecap: round"/>
   </g>
   <g id="patch_51">
    <path d="M 279.243616 187.545615 
Q 279.183646 207.26945 279.127076 225.875257 
" clip-path="url(#p816dc3685b)" style="fill: none; stroke: #000000; stroke-linecap: round"/>
    <path d="M 281.139228 221.881356 
L 279.127076 225.875257 
L 277.139247 221.869194 
z
" clip-path="url(#p816dc3685b)" style="stroke: #000000; stroke-linecap: round"/>
   </g>
   <g id="patch_52">
    <path d="M 278.397038 183.86814 
Q 261.297792 148.981617 244.690611 115.099023 
" clip-path="url(#p816dc3685b)" style="fill: none; stroke: #000000; stroke-linecap: round"/>
    <path d="M 244.655192 119.571019 
L 244.690611 115.099023 
L 248.246956 117.810555 
z
" clip-path="url(#p816dc3685b)" style="stroke: #000000; stroke-linecap: round"/>
   </g>
   <g id="patch_53">
    <path d="M 277.630041 184.546991 
Q 248.035054 165.168841 219.375429 146.403145 
" clip-path="url(#p816dc3685b)" style="fill: none; stroke: #000000; stroke-linecap: round"/>
    <path d="M 221.626287 150.267551 
L 219.375429 146.403145 
L 223.817469 146.921102 
z
" clip-path="url(#p816dc3685b)" style="stroke: #000000; stroke-linecap: round"/>
   </g>
   <g id="patch_54">
    <path d="M 280.70732 186.880685 
Q 314.634571 216.513887 347.719762 245.411606 
" clip-path="url(#p816dc3685b)" style="fill: none; stroke: #000000; stroke-linecap: round"/>
    <path d="M 346.022791 241.273939 
L 347.719762 245.411606 
L 343.391446 244.286583 
z
" clip-path="url(#p816dc3685b)" style="stroke: #000000; stroke-linecap: round"/>
   </g>
   <g id="patch_55">
    <path d="M 348.561405 246.146725 
Q 314.634154 216.513523 281.548963 187.615804 
" clip-path="url(#p816dc3685b)" style="fill: none; stroke: #000000; stroke-linecap: round"/>
    <path d="M 283.245935 191.753471 
L 281.548963 187.615804 
L 285.877279 188.740826 
z
" clip-path="url(#p816dc3685b)" style="stroke: #000000; stroke-linecap: round"/>
   </g>
   <g id="patch_56">
    <path d="M 350.145974 249.35251 
Q 351.702215 273.078123 353.185278 295.6881 
" clip-path="url(#p816dc3685b)" style="fill: none; stroke: #000000; stroke-linecap: round"/>
    <path d="M 354.919179 291.565772 
L 353.185278 295.6881 
L 350.927756 291.827582 
z
" clip-path="url(#p816dc3685b)" style="stroke: #000000; stroke-linecap: round"/>
   </g>
   <g id="patch_57">
    <path d="M 353.258428 296.8033 
Q 351.702187 273.077687 350.219124 250.467711 
" clip-path="url(#p816dc3685b)" style="fill: none; stroke: #000000; stroke-linecap: round"/>
    <path d="M 348.485223 254.590039 
L 350.219124 250.467711 
L 352.476646 254.328228 
z
" clip-path="url(#p816dc3685b)" style="stroke: #000000; stroke-linecap: round"/>
   </g>
   <g id="patch_58">
    <path d="M 351.454414 298.581204 
Q 309.991054 295.261584 269.642163 292.031189 
" clip-path="url(#p816dc3685b)" style="fill: none; stroke: #000000; stroke-linecap: round"/>
    <path d="M 273.469792 294.344035 
L 269.642163 292.031189 
L 273.789017 290.356793 
z
" clip-path="url(#p816dc3685b)" style="stroke: #000000; stroke-linecap: round"/>
   </g>
   <g id="patch_59">
    <path d="M 266.976683 289.888449 
Q 272.8579 260.360171 278.520726 231.928391 
" clip-path="url(#p816dc3685b)" style="fill: none; stroke: #000000; stroke-linecap: round"/>
    <path d="M 275.77791 235.460665 
L 278.520726 231.928391 
L 279.700856 236.242008 
z
" clip-path="url(#p816dc3685b)" style="stroke: #000000; stroke-linecap: round"/>
   </g>
   <g id="patch_60">
    <path d="M 264.731426 292.302949 
Q 223.454678 303.698597 183.255647 314.79671 
" clip-path="url(#p816dc3685b)" style="fill: none; stroke: #000000; stroke-linecap: round"/>
    <path d="M 187.64365 315.660094 
L 183.255647 314.79671 
L 186.579156 311.804338 
z
" clip-path="url(#p816dc3685b)" style="stroke: #000000; stroke-linecap: round"/>
   </g>
   <g id="patch_61">
    <path d="M 268.529216 291.942085 
Q 309.992575 295.261705 350.341467 298.4921 
" clip-path="url(#p816dc3685b)" style="fill: none; stroke: #000000; stroke-linecap: round"/>
    <path d="M 346.513838 296.179254 
L 350.341467 298.4921 
L 346.194613 300.166496 
z
" clip-path="url(#p816dc3685b)" style="stroke: #000000; stroke-linecap: round"/>
   </g>
   <g id="PathCollection_1">
    <defs>
     <path id="m7e697cf2b9" d="M 0 1.936492 
C 0.513564 1.936492 1.006162 1.732451 1.369306 1.369306 
C 1.732451 1.006162 1.936492 0.513564 1.936492 0 
C 1.936492 -0.513564 1.732451 -1.006162 1.369306 -1.369306 
C 1.006162 -1.732451 0.513564 -1.936492 0 -1.936492 
C -0.513564 -1.936492 -1.006162 -1.732451 -1.369306 -1.369306 
C -1.732451 -1.006162 -1.936492 -0.513564 -1.936492 0 
C -1.936492 0.513564 -1.732451 1.006162 -1.369306 1.369306 
C -1.006162 1.732451 -0.513564 1.936492 0 1.936492 
z
" style="stroke: #1f78b4"/>
    </defs>
    <g clip-path="url(#p816dc3685b)">
     <use xlink:href="#m7e697cf2b9" x="353.135789" y="105.687552" style="fill: #1f78b4; stroke: #1f78b4"/>
     <use xlink:href="#m7e697cf2b9" x="420.813223" y="100.184267" style="fill: #1f78b4; stroke: #1f78b4"/>
     <use xlink:href="#m7e697cf2b9" x="279.117786" y="228.930685" style="fill: #1f78b4; stroke: #1f78b4"/>
     <use xlink:href="#m7e697cf2b9" x="358.637433" y="154.24101" style="fill: #1f78b4; stroke: #1f78b4"/>
     <use xlink:href="#m7e697cf2b9" x="392.110089" y="57.360898" style="fill: #1f78b4; stroke: #1f78b4"/>
     <use xlink:href="#m7e697cf2b9" x="39.986777" y="118.551006" style="fill: #1f78b4; stroke: #1f78b4"/>
     <use xlink:href="#m7e697cf2b9" x="150.175456" y="104.796226" style="fill: #1f78b4; stroke: #1f78b4"/>
     <use xlink:href="#m7e697cf2b9" x="275.892298" y="77.196667" style="fill: #1f78b4; stroke: #1f78b4"/>
     <use xlink:href="#m7e697cf2b9" x="79.354727" y="93.023842" style="fill: #1f78b4; stroke: #1f78b4"/>
     <use xlink:href="#m7e697cf2b9" x="182.33449" y="82.832553" style="fill: #1f78b4; stroke: #1f78b4"/>
     <use xlink:href="#m7e697cf2b9" x="180.310088" y="315.609917" style="fill: #1f78b4; stroke: #1f78b4"/>
     <use xlink:href="#m7e697cf2b9" x="190.847424" y="274.447566" style="fill: #1f78b4; stroke: #1f78b4"/>
     <use xlink:href="#m7e697cf2b9" x="146.394462" y="29.990083" style="fill: #1f78b4; stroke: #1f78b4"/>
     <use xlink:href="#m7e697cf2b9" x="199.234573" y="54.642817" style="fill: #1f78b4; stroke: #1f78b4"/>
     <use xlink:href="#m7e697cf2b9" x="243.344921" y="112.353497" style="fill: #1f78b4; stroke: #1f78b4"/>
     <use xlink:href="#m7e697cf2b9" x="216.818069" y="144.728641" style="fill: #1f78b4; stroke: #1f78b4"/>
     <use xlink:href="#m7e697cf2b9" x="279.249509" y="185.607383" style="fill: #1f78b4; stroke: #1f78b4"/>
     <use xlink:href="#m7e697cf2b9" x="350.019216" y="247.420026" style="fill: #1f78b4; stroke: #1f78b4"/>
     <use xlink:href="#m7e697cf2b9" x="353.385186" y="298.735785" style="fill: #1f78b4; stroke: #1f78b4"/>
     <use xlink:href="#m7e697cf2b9" x="266.598444" y="291.787504" style="fill: #1f78b4; stroke: #1f78b4"/>
    </g>
   </g>
   <g id="text_1">
    <g clip-path="url(#p816dc3685b)">
     <!-- 0 -->
     <g transform="translate(349.954539 108.446927) scale(0.1 -0.1)">
      <defs>
       <path id="DejaVuSans-30" d="M 2034 4250 
Q 1547 4250 1301 3770 
Q 1056 3291 1056 2328 
Q 1056 1369 1301 889 
Q 1547 409 2034 409 
Q 2525 409 2770 889 
Q 3016 1369 3016 2328 
Q 3016 3291 2770 3770 
Q 2525 4250 2034 4250 
z
M 2034 4750 
Q 2819 4750 3233 4129 
Q 3647 3509 3647 2328 
Q 3647 1150 3233 529 
Q 2819 -91 2034 -91 
Q 1250 -91 836 529 
Q 422 1150 422 2328 
Q 422 3509 836 4129 
Q 1250 4750 2034 4750 
z
" transform="scale(0.015625)"/>
      </defs>
      <use xlink:href="#DejaVuSans-30"/>
     </g>
    </g>
   </g>
   <g id="text_2">
    <g clip-path="url(#p816dc3685b)">
     <!-- 1 -->
     <g transform="translate(417.631973 102.943642) scale(0.1 -0.1)">
      <defs>
       <path id="DejaVuSans-31" d="M 794 531 
L 1825 531 
L 1825 4091 
L 703 3866 
L 703 4441 
L 1819 4666 
L 2450 4666 
L 2450 531 
L 3481 531 
L 3481 0 
L 794 0 
L 794 531 
z
" transform="scale(0.015625)"/>
      </defs>
      <use xlink:href="#DejaVuSans-31"/>
     </g>
    </g>
   </g>
   <g id="text_3">
    <g clip-path="url(#p816dc3685b)">
     <!-- 2 -->
     <g transform="translate(275.936536 231.69006) scale(0.1 -0.1)">
      <defs>
       <path id="DejaVuSans-32" d="M 1228 531 
L 3431 531 
L 3431 0 
L 469 0 
L 469 531 
Q 828 903 1448 1529 
Q 2069 2156 2228 2338 
Q 2531 2678 2651 2914 
Q 2772 3150 2772 3378 
Q 2772 3750 2511 3984 
Q 2250 4219 1831 4219 
Q 1534 4219 1204 4116 
Q 875 4013 500 3803 
L 500 4441 
Q 881 4594 1212 4672 
Q 1544 4750 1819 4750 
Q 2544 4750 2975 4387 
Q 3406 4025 3406 3419 
Q 3406 3131 3298 2873 
Q 3191 2616 2906 2266 
Q 2828 2175 2409 1742 
Q 1991 1309 1228 531 
z
" transform="scale(0.015625)"/>
      </defs>
      <use xlink:href="#DejaVuSans-32"/>
     </g>
    </g>
   </g>
   <g id="text_4">
    <g clip-path="url(#p816dc3685b)">
     <!-- 3 -->
     <g transform="translate(355.456183 157.000385) scale(0.1 -0.1)">
      <defs>
       <path id="DejaVuSans-33" d="M 2597 2516 
Q 3050 2419 3304 2112 
Q 3559 1806 3559 1356 
Q 3559 666 3084 287 
Q 2609 -91 1734 -91 
Q 1441 -91 1130 -33 
Q 819 25 488 141 
L 488 750 
Q 750 597 1062 519 
Q 1375 441 1716 441 
Q 2309 441 2620 675 
Q 2931 909 2931 1356 
Q 2931 1769 2642 2001 
Q 2353 2234 1838 2234 
L 1294 2234 
L 1294 2753 
L 1863 2753 
Q 2328 2753 2575 2939 
Q 2822 3125 2822 3475 
Q 2822 3834 2567 4026 
Q 2313 4219 1838 4219 
Q 1578 4219 1281 4162 
Q 984 4106 628 3988 
L 628 4550 
Q 988 4650 1302 4700 
Q 1616 4750 1894 4750 
Q 2613 4750 3031 4423 
Q 3450 4097 3450 3541 
Q 3450 3153 3228 2886 
Q 3006 2619 2597 2516 
z
" transform="scale(0.015625)"/>
      </defs>
      <use xlink:href="#DejaVuSans-33"/>
     </g>
    </g>
   </g>
   <g id="text_5">
    <g clip-path="url(#p816dc3685b)">
     <!-- 4 -->
     <g transform="translate(388.928839 60.120273) scale(0.1 -0.1)">
      <defs>
       <path id="DejaVuSans-34" d="M 2419 4116 
L 825 1625 
L 2419 1625 
L 2419 4116 
z
M 2253 4666 
L 3047 4666 
L 3047 1625 
L 3713 1625 
L 3713 1100 
L 3047 1100 
L 3047 0 
L 2419 0 
L 2419 1100 
L 313 1100 
L 313 1709 
L 2253 4666 
z
" transform="scale(0.015625)"/>
      </defs>
      <use xlink:href="#DejaVuSans-34"/>
     </g>
    </g>
   </g>
   <g id="text_6">
    <g clip-path="url(#p816dc3685b)">
     <!-- 5 -->
     <g transform="translate(36.805527 121.310381) scale(0.1 -0.1)">
      <defs>
       <path id="DejaVuSans-35" d="M 691 4666 
L 3169 4666 
L 3169 4134 
L 1269 4134 
L 1269 2991 
Q 1406 3038 1543 3061 
Q 1681 3084 1819 3084 
Q 2600 3084 3056 2656 
Q 3513 2228 3513 1497 
Q 3513 744 3044 326 
Q 2575 -91 1722 -91 
Q 1428 -91 1123 -41 
Q 819 9 494 109 
L 494 744 
Q 775 591 1075 516 
Q 1375 441 1709 441 
Q 2250 441 2565 725 
Q 2881 1009 2881 1497 
Q 2881 1984 2565 2268 
Q 2250 2553 1709 2553 
Q 1456 2553 1204 2497 
Q 953 2441 691 2322 
L 691 4666 
z
" transform="scale(0.015625)"/>
      </defs>
      <use xlink:href="#DejaVuSans-35"/>
     </g>
    </g>
   </g>
   <g id="text_7">
    <g clip-path="url(#p816dc3685b)">
     <!-- 6 -->
     <g transform="translate(146.994206 107.555601) scale(0.1 -0.1)">
      <defs>
       <path id="DejaVuSans-36" d="M 2113 2584 
Q 1688 2584 1439 2293 
Q 1191 2003 1191 1497 
Q 1191 994 1439 701 
Q 1688 409 2113 409 
Q 2538 409 2786 701 
Q 3034 994 3034 1497 
Q 3034 2003 2786 2293 
Q 2538 2584 2113 2584 
z
M 3366 4563 
L 3366 3988 
Q 3128 4100 2886 4159 
Q 2644 4219 2406 4219 
Q 1781 4219 1451 3797 
Q 1122 3375 1075 2522 
Q 1259 2794 1537 2939 
Q 1816 3084 2150 3084 
Q 2853 3084 3261 2657 
Q 3669 2231 3669 1497 
Q 3669 778 3244 343 
Q 2819 -91 2113 -91 
Q 1303 -91 875 529 
Q 447 1150 447 2328 
Q 447 3434 972 4092 
Q 1497 4750 2381 4750 
Q 2619 4750 2861 4703 
Q 3103 4656 3366 4563 
z
" transform="scale(0.015625)"/>
      </defs>
      <use xlink:href="#DejaVuSans-36"/>
     </g>
    </g>
   </g>
   <g id="text_8">
    <g clip-path="url(#p816dc3685b)">
     <!-- 7 -->
     <g transform="translate(272.711048 79.956042) scale(0.1 -0.1)">
      <defs>
       <path id="DejaVuSans-37" d="M 525 4666 
L 3525 4666 
L 3525 4397 
L 1831 0 
L 1172 0 
L 2766 4134 
L 525 4134 
L 525 4666 
z
" transform="scale(0.015625)"/>
      </defs>
      <use xlink:href="#DejaVuSans-37"/>
     </g>
    </g>
   </g>
   <g id="text_9">
    <g clip-path="url(#p816dc3685b)">
     <!-- 8 -->
     <g transform="translate(76.173477 95.783217) scale(0.1 -0.1)">
      <defs>
       <path id="DejaVuSans-38" d="M 2034 2216 
Q 1584 2216 1326 1975 
Q 1069 1734 1069 1313 
Q 1069 891 1326 650 
Q 1584 409 2034 409 
Q 2484 409 2743 651 
Q 3003 894 3003 1313 
Q 3003 1734 2745 1975 
Q 2488 2216 2034 2216 
z
M 1403 2484 
Q 997 2584 770 2862 
Q 544 3141 544 3541 
Q 544 4100 942 4425 
Q 1341 4750 2034 4750 
Q 2731 4750 3128 4425 
Q 3525 4100 3525 3541 
Q 3525 3141 3298 2862 
Q 3072 2584 2669 2484 
Q 3125 2378 3379 2068 
Q 3634 1759 3634 1313 
Q 3634 634 3220 271 
Q 2806 -91 2034 -91 
Q 1263 -91 848 271 
Q 434 634 434 1313 
Q 434 1759 690 2068 
Q 947 2378 1403 2484 
z
M 1172 3481 
Q 1172 3119 1398 2916 
Q 1625 2713 2034 2713 
Q 2441 2713 2670 2916 
Q 2900 3119 2900 3481 
Q 2900 3844 2670 4047 
Q 2441 4250 2034 4250 
Q 1625 4250 1398 4047 
Q 1172 3844 1172 3481 
z
" transform="scale(0.015625)"/>
      </defs>
      <use xlink:href="#DejaVuSans-38"/>
     </g>
    </g>
   </g>
   <g id="text_10">
    <g clip-path="url(#p816dc3685b)">
     <!-- 9 -->
     <g transform="translate(179.15324 85.591928) scale(0.1 -0.1)">
      <defs>
       <path id="DejaVuSans-39" d="M 703 97 
L 703 672 
Q 941 559 1184 500 
Q 1428 441 1663 441 
Q 2288 441 2617 861 
Q 2947 1281 2994 2138 
Q 2813 1869 2534 1725 
Q 2256 1581 1919 1581 
Q 1219 1581 811 2004 
Q 403 2428 403 3163 
Q 403 3881 828 4315 
Q 1253 4750 1959 4750 
Q 2769 4750 3195 4129 
Q 3622 3509 3622 2328 
Q 3622 1225 3098 567 
Q 2575 -91 1691 -91 
Q 1453 -91 1209 -44 
Q 966 3 703 97 
z
M 1959 2075 
Q 2384 2075 2632 2365 
Q 2881 2656 2881 3163 
Q 2881 3666 2632 3958 
Q 2384 4250 1959 4250 
Q 1534 4250 1286 3958 
Q 1038 3666 1038 3163 
Q 1038 2656 1286 2365 
Q 1534 2075 1959 2075 
z
" transform="scale(0.015625)"/>
      </defs>
      <use xlink:href="#DejaVuSans-39"/>
     </g>
    </g>
   </g>
   <g id="text_11">
    <g clip-path="url(#p816dc3685b)">
     <!-- 10 -->
     <g transform="translate(173.947588 318.369292) scale(0.1 -0.1)">
      <use xlink:href="#DejaVuSans-31"/>
      <use xlink:href="#DejaVuSans-30" x="63.623047"/>
     </g>
    </g>
   </g>
   <g id="text_12">
    <g clip-path="url(#p816dc3685b)">
     <!-- 11 -->
     <g transform="translate(184.484924 277.206941) scale(0.1 -0.1)">
      <use xlink:href="#DejaVuSans-31"/>
      <use xlink:href="#DejaVuSans-31" x="63.623047"/>
     </g>
    </g>
   </g>
   <g id="text_13">
    <g clip-path="url(#p816dc3685b)">
     <!-- 12 -->
     <g transform="translate(140.031962 32.749458) scale(0.1 -0.1)">
      <use xlink:href="#DejaVuSans-31"/>
      <use xlink:href="#DejaVuSans-32" x="63.623047"/>
     </g>
    </g>
   </g>
   <g id="text_14">
    <g clip-path="url(#p816dc3685b)">
     <!-- 13 -->
     <g transform="translate(192.872073 57.402192) scale(0.1 -0.1)">
      <use xlink:href="#DejaVuSans-31"/>
      <use xlink:href="#DejaVuSans-33" x="63.623047"/>
     </g>
    </g>
   </g>
   <g id="text_15">
    <g clip-path="url(#p816dc3685b)">
     <!-- 14 -->
     <g transform="translate(236.982421 115.112872) scale(0.1 -0.1)">
      <use xlink:href="#DejaVuSans-31"/>
      <use xlink:href="#DejaVuSans-34" x="63.623047"/>
     </g>
    </g>
   </g>
   <g id="text_16">
    <g clip-path="url(#p816dc3685b)">
     <!-- 15 -->
     <g transform="translate(210.455569 147.488016) scale(0.1 -0.1)">
      <use xlink:href="#DejaVuSans-31"/>
      <use xlink:href="#DejaVuSans-35" x="63.623047"/>
     </g>
    </g>
   </g>
   <g id="text_17">
    <g clip-path="url(#p816dc3685b)">
     <!-- 16 -->
     <g transform="translate(272.887009 188.366758) scale(0.1 -0.1)">
      <use xlink:href="#DejaVuSans-31"/>
      <use xlink:href="#DejaVuSans-36" x="63.623047"/>
     </g>
    </g>
   </g>
   <g id="text_18">
    <g clip-path="url(#p816dc3685b)">
     <!-- 17 -->
     <g transform="translate(343.656716 250.179401) scale(0.1 -0.1)">
      <use xlink:href="#DejaVuSans-31"/>
      <use xlink:href="#DejaVuSans-37" x="63.623047"/>
     </g>
    </g>
   </g>
   <g id="text_19">
    <g clip-path="url(#p816dc3685b)">
     <!-- 18 -->
     <g transform="translate(347.022686 301.49516) scale(0.1 -0.1)">
      <use xlink:href="#DejaVuSans-31"/>
      <use xlink:href="#DejaVuSans-38" x="63.623047"/>
     </g>
    </g>
   </g>
   <g id="text_20">
    <g clip-path="url(#p816dc3685b)">
     <!-- 19 -->
     <g transform="translate(260.235944 294.546879) scale(0.1 -0.1)">
      <use xlink:href="#DejaVuSans-31"/>
      <use xlink:href="#DejaVuSans-39" x="63.623047"/>
     </g>
    </g>
   </g>
  </g>
 </g>
 <defs>
  <clipPath id="p816dc3685b">
   <rect x="0" y="0" width="460.8" height="345.6"/>
  </clipPath>
 </defs>
</svg>
