<?xml version="1.0" encoding="utf-8" standalone="no"?>
<!DOCTYPE svg PUBLIC "-//W3C//DTD SVG 1.1//EN"
  "http://www.w3.org/Graphics/SVG/1.1/DTD/svg11.dtd">
<svg xmlns:xlink="http://www.w3.org/1999/xlink" width="460.8pt" height="345.6pt" viewBox="0 0 460.8 345.6" xmlns="http://www.w3.org/2000/svg" version="1.1">
 <metadata>
  <rdf:RDF xmlns:dc="http://purl.org/dc/elements/1.1/" xmlns:cc="http://creativecommons.org/ns#" xmlns:rdf="http://www.w3.org/1999/02/22-rdf-syntax-ns#">
   <cc:Work>
    <dc:type rdf:resource="http://purl.org/dc/dcmitype/StillImage"/>
    <dc:date>2024-02-28T11:17:18.697040</dc:date>
    <dc:format>image/svg+xml</dc:format>
    <dc:creator>
     <cc:Agent>
      <dc:title>Matplotlib v3.8.0, https://matplotlib.org/</dc:title>
     </cc:Agent>
    </dc:creator>
   </cc:Work>
  </rdf:RDF>
 </metadata>
 <defs>
  <style type="text/css">*{stroke-linejoin: round; stroke-linecap: butt}</style>
 </defs>
 <g id="figure_1">
  <g id="patch_1">
   <path d="M 0 345.6 
L 460.8 345.6 
L 460.8 0 
L 0 0 
z
" style="fill: #ffffff"/>
  </g>
  <g id="axes_1">
   <g id="patch_2">
    <path d="M 327.679337 161.519255 
Q 333.244279 182.360941 338.520799 202.122437 
" clip-path="url(#pb86bdcea6b)" style="fill: none; stroke: #000000; stroke-linecap: round"/>
    <path d="M 339.421214 197.741883 
L 338.520799 202.122437 
L 335.556605 198.773773 
z
" clip-path="url(#pb86bdcea6b)" style="stroke: #000000; stroke-linecap: round"/>
   </g>
   <g id="patch_3">
    <path d="M 325.594757 158.532998 
Q 308.225767 146.315116 291.77123 134.74049 
" clip-path="url(#pb86bdcea6b)" style="fill: none; stroke: #000000; stroke-linecap: round"/>
    <path d="M 293.892187 138.677689 
L 291.77123 134.74049 
L 296.193564 135.406043 
z
" clip-path="url(#pb86bdcea6b)" style="stroke: #000000; stroke-linecap: round"/>
   </g>
   <g id="patch_4">
    <path d="M 327.811906 157.822274 
Q 333.388774 141.719317 338.599758 126.67283 
" clip-path="url(#pb86bdcea6b)" style="fill: none; stroke: #000000; stroke-linecap: round"/>
    <path d="M 335.400864 129.798062 
L 338.599758 126.67283 
L 339.180608 131.107084 
z
" clip-path="url(#pb86bdcea6b)" style="stroke: #000000; stroke-linecap: round"/>
   </g>
   <g id="patch_5">
    <path d="M 397.885894 234.043063 
Q 369.464052 219.986017 342.04437 206.424625 
" clip-path="url(#pb86bdcea6b)" style="fill: none; stroke: #000000; stroke-linecap: round"/>
    <path d="M 344.743155 209.990654 
L 342.04437 206.424625 
L 346.516464 206.405214 
z
" clip-path="url(#pb86bdcea6b)" style="stroke: #000000; stroke-linecap: round"/>
   </g>
   <g id="patch_6">
    <path d="M 391.555554 166.550533 
Q 391.872812 186.672324 392.172445 205.67622 
" clip-path="url(#pb86bdcea6b)" style="fill: none; stroke: #000000; stroke-linecap: round"/>
    <path d="M 394.109136 201.645187 
L 392.172445 205.67622 
L 390.109634 201.708247 
z
" clip-path="url(#pb86bdcea6b)" style="stroke: #000000; stroke-linecap: round"/>
   </g>
   <g id="patch_7">
    <path d="M 390.000624 163.415733 
Q 365.561792 144.19854 342.001823 125.672431 
" clip-path="url(#pb86bdcea6b)" style="fill: none; stroke: #000000; stroke-linecap: round"/>
    <path d="M 343.909893 129.71709 
L 342.001823 125.672431 
L 346.382393 126.57277 
z
" clip-path="url(#pb86bdcea6b)" style="stroke: #000000; stroke-linecap: round"/>
   </g>
   <g id="patch_8">
    <path d="M 338.808509 203.199959 
Q 333.243566 182.358272 327.967046 162.596777 
" clip-path="url(#pb86bdcea6b)" style="fill: none; stroke: #000000; stroke-linecap: round"/>
    <path d="M 327.066632 166.977331 
L 327.967046 162.596777 
L 330.931241 165.945441 
z
" clip-path="url(#pb86bdcea6b)" style="stroke: #000000; stroke-linecap: round"/>
   </g>
   <g id="patch_9">
    <path d="M 341.041997 205.928866 
Q 369.46384 219.985912 396.883522 233.547304 
" clip-path="url(#pb86bdcea6b)" style="fill: none; stroke: #000000; stroke-linecap: round"/>
    <path d="M 394.184736 229.981275 
L 396.883522 233.547304 
L 392.411428 233.566715 
z
" clip-path="url(#pb86bdcea6b)" style="stroke: #000000; stroke-linecap: round"/>
   </g>
   <g id="patch_10">
    <path d="M 338.823768 206.95042 
Q 334.946953 221.988603 331.34924 235.944149 
" clip-path="url(#pb86bdcea6b)" style="fill: none; stroke: #000000; stroke-linecap: round"/>
    <path d="M 334.284464 232.570062 
L 331.34924 235.944149 
L 330.411105 231.571518 
z
" clip-path="url(#pb86bdcea6b)" style="stroke: #000000; stroke-linecap: round"/>
   </g>
   <g id="patch_11">
    <path d="M 341.243336 205.187958 
Q 380.059396 207.526971 417.759446 209.798733 
" clip-path="url(#pb86bdcea6b)" style="fill: none; stroke: #000000; stroke-linecap: round"/>
    <path d="M 413.886988 207.561756 
L 417.759446 209.798733 
L 413.646389 211.554513 
z
" clip-path="url(#pb86bdcea6b)" style="stroke: #000000; stroke-linecap: round"/>
   </g>
   <g id="patch_12">
    <path d="M 337.411786 204.670631 
Q 289.435426 194.533031 242.552947 184.626573 
" clip-path="url(#pb86bdcea6b)" style="fill: none; stroke: #000000; stroke-linecap: round"/>
    <path d="M 246.053053 187.410322 
L 242.552947 184.626573 
L 246.88001 183.496737 
z
" clip-path="url(#pb86bdcea6b)" style="stroke: #000000; stroke-linecap: round"/>
   </g>
   <g id="patch_13">
    <path d="M 331.0709 237.02383 
Q 334.947715 221.985647 338.545428 208.030101 
" clip-path="url(#pb86bdcea6b)" style="fill: none; stroke: #000000; stroke-linecap: round"/>
    <path d="M 335.610204 211.404188 
L 338.545428 208.030101 
L 339.483563 212.402733 
z
" clip-path="url(#pb86bdcea6b)" style="stroke: #000000; stroke-linecap: round"/>
   </g>
   <g id="patch_14">
    <path d="M 412.943591 124.002764 
Q 377.241084 123.896261 342.656606 123.793093 
" clip-path="url(#pb86bdcea6b)" style="fill: none; stroke: #000000; stroke-linecap: round"/>
    <path d="M 346.650622 125.805016 
L 342.656606 123.793093 
L 346.662554 121.805034 
z
" clip-path="url(#pb86bdcea6b)" style="stroke: #000000; stroke-linecap: round"/>
   </g>
   <g id="patch_15">
    <path d="M 171.66234 173.320085 
Q 204.657347 178.507245 236.547886 183.520772 
" clip-path="url(#pb86bdcea6b)" style="fill: none; stroke: #000000; stroke-linecap: round"/>
    <path d="M 232.907024 180.923826 
L 236.547886 183.520772 
L 232.285812 184.875293 
z
" clip-path="url(#pb86bdcea6b)" style="stroke: #000000; stroke-linecap: round"/>
   </g>
   <g id="patch_16">
    <path d="M 172.972878 211.727873 
Q 205.375761 198.232864 236.746543 185.167699 
" clip-path="url(#pb86bdcea6b)" style="fill: none; stroke: #000000; stroke-linecap: round"/>
    <path d="M 232.285055 184.85928 
L 236.746543 185.167699 
L 233.822915 188.551839 
z
" clip-path="url(#pb86bdcea6b)" style="stroke: #000000; stroke-linecap: round"/>
   </g>
   <g id="patch_17">
    <path d="M 213.687072 307.725023 
Q 228.571573 288.811031 242.764654 270.775639 
" clip-path="url(#pb86bdcea6b)" style="fill: none; stroke: #000000; stroke-linecap: round"/>
    <path d="M 238.719265 272.682163 
L 242.764654 270.775639 
L 241.86264 275.155864 
z
" clip-path="url(#pb86bdcea6b)" style="stroke: #000000; stroke-linecap: round"/>
   </g>
   <g id="patch_18">
    <path d="M 213.572902 218.419663 
Q 225.984928 201.979377 237.723295 186.431382 
" clip-path="url(#pb86bdcea6b)" style="fill: none; stroke: #000000; stroke-linecap: round"/>
    <path d="M 233.716961 188.418664 
L 237.723295 186.431382 
L 236.909319 190.828819 
z
" clip-path="url(#pb86bdcea6b)" style="stroke: #000000; stroke-linecap: round"/>
   </g>
   <g id="patch_19">
    <path d="M 124.097002 98.924872 
Q 153.871582 103.149321 182.539213 107.216715 
" clip-path="url(#pb86bdcea6b)" style="fill: none; stroke: #000000; stroke-linecap: round"/>
    <path d="M 178.859824 104.67465 
L 182.539213 107.216715 
L 178.297927 108.634987 
z
" clip-path="url(#pb86bdcea6b)" style="stroke: #000000; stroke-linecap: round"/>
   </g>
   <g id="patch_20">
    <path d="M 41.775324 48.428353 
Q 69.947819 60.024595 97.086438 71.195277 
" clip-path="url(#pb86bdcea6b)" style="fill: none; stroke: #000000; stroke-linecap: round"/>
    <path d="M 94.148796 67.823296 
L 97.086438 71.195277 
L 92.626268 71.522202 
z
" clip-path="url(#pb86bdcea6b)" style="stroke: #000000; stroke-linecap: round"/>
   </g>
   <g id="patch_21">
    <path d="M 380.130095 91.513766 
Q 360.623372 107.045183 341.991302 121.880194 
" clip-path="url(#pb86bdcea6b)" style="fill: none; stroke: #000000; stroke-linecap: round"/>
    <path d="M 346.366326 120.953282 
L 341.991302 121.880194 
L 343.874787 117.824028 
z
" clip-path="url(#pb86bdcea6b)" style="stroke: #000000; stroke-linecap: round"/>
   </g>
   <g id="patch_22">
    <path d="M 290.85653 134.097062 
Q 308.22552 146.314943 324.680058 157.88957 
" clip-path="url(#pb86bdcea6b)" style="fill: none; stroke: #000000; stroke-linecap: round"/>
    <path d="M 322.5591 153.952371 
L 324.680058 157.88957 
L 320.257724 157.224017 
z
" clip-path="url(#pb86bdcea6b)" style="stroke: #000000; stroke-linecap: round"/>
   </g>
   <g id="patch_23">
    <path d="M 418.878076 209.866141 
Q 380.062016 207.527128 342.361966 205.255366 
" clip-path="url(#pb86bdcea6b)" style="fill: none; stroke: #000000; stroke-linecap: round"/>
    <path d="M 346.234424 207.492344 
L 342.361966 205.255366 
L 346.475023 203.499586 
z
" clip-path="url(#pb86bdcea6b)" style="stroke: #000000; stroke-linecap: round"/>
   </g>
   <g id="patch_24">
    <path d="M 178.068947 192.573229 
Q 207.856951 188.417772 236.537642 184.416786 
" clip-path="url(#pb86bdcea6b)" style="fill: none; stroke: #000000; stroke-linecap: round"/>
    <path d="M 232.299678 182.988619 
L 236.537642 184.416786 
L 232.852331 186.950257 
z
" clip-path="url(#pb86bdcea6b)" style="stroke: #000000; stroke-linecap: round"/>
   </g>
   <g id="patch_25">
    <path d="M 387.400386 31.257618 
Q 366.41129 49.398838 346.268064 66.808959 
" clip-path="url(#pb86bdcea6b)" style="fill: none; stroke: #000000; stroke-linecap: round"/>
    <path d="M 350.602167 65.706437 
L 346.268064 66.808959 
L 347.986509 62.680164 
z
" clip-path="url(#pb86bdcea6b)" style="stroke: #000000; stroke-linecap: round"/>
   </g>
   <g id="patch_26">
    <path d="M 275.816253 37.785032 
Q 276.607133 58.741877 277.355849 78.581485 
" clip-path="url(#pb86bdcea6b)" style="fill: none; stroke: #000000; stroke-linecap: round"/>
    <path d="M 279.20358 74.508907 
L 277.355849 78.581485 
L 275.206426 74.659753 
z
" clip-path="url(#pb86bdcea6b)" style="stroke: #000000; stroke-linecap: round"/>
   </g>
   <g id="patch_27">
    <path d="M 392.190111 206.796687 
Q 391.872853 186.674896 391.57322 167.671 
" clip-path="url(#pb86bdcea6b)" style="fill: none; stroke: #000000; stroke-linecap: round"/>
    <path d="M 389.636528 171.702032 
L 391.57322 167.671 
L 393.636031 171.638973 
z
" clip-path="url(#pb86bdcea6b)" style="stroke: #000000; stroke-linecap: round"/>
   </g>
   <g id="patch_28">
    <path d="M 410.765183 103.127858 
Q 376.114407 113.185486 342.53735 122.93146 
" clip-path="url(#pb86bdcea6b)" style="fill: none; stroke: #000000; stroke-linecap: round"/>
    <path d="M 346.936307 123.737178 
L 342.53735 122.93146 
L 345.821298 119.895725 
z
" clip-path="url(#pb86bdcea6b)" style="stroke: #000000; stroke-linecap: round"/>
   </g>
   <g id="patch_29">
    <path d="M 345.422353 67.539921 
Q 366.411448 49.398701 386.554674 31.98858 
" clip-path="url(#pb86bdcea6b)" style="fill: none; stroke: #000000; stroke-linecap: round"/>
    <path d="M 382.220571 33.091101 
L 386.554674 31.98858 
L 384.836229 36.117375 
z
" clip-path="url(#pb86bdcea6b)" style="stroke: #000000; stroke-linecap: round"/>
   </g>
   <g id="patch_30">
    <path d="M 343.802975 70.736869 
Q 341.778178 96.293957 339.841683 120.736504 
" clip-path="url(#pb86bdcea6b)" style="fill: none; stroke: #000000; stroke-linecap: round"/>
    <path d="M 342.151351 116.906957 
L 339.841683 120.736504 
L 338.163846 116.591041 
z
" clip-path="url(#pb86bdcea6b)" style="stroke: #000000; stroke-linecap: round"/>
   </g>
   <g id="patch_31">
    <path d="M 342.052676 69.174613 
Q 310.713788 75.220508 280.472693 81.054616 
" clip-path="url(#pb86bdcea6b)" style="fill: none; stroke: #000000; stroke-linecap: round"/>
    <path d="M 284.779126 82.260698 
L 280.472693 81.054616 
L 284.021418 78.333118 
z
" clip-path="url(#pb86bdcea6b)" style="stroke: #000000; stroke-linecap: round"/>
   </g>
   <g id="patch_32">
    <path d="M 338.967994 125.609566 
Q 333.391126 141.712524 328.180141 156.75901 
" clip-path="url(#pb86bdcea6b)" style="fill: none; stroke: #000000; stroke-linecap: round"/>
    <path d="M 331.379035 153.633778 
L 328.180141 156.75901 
L 327.599292 152.324756 
z
" clip-path="url(#pb86bdcea6b)" style="stroke: #000000; stroke-linecap: round"/>
   </g>
   <g id="patch_33">
    <path d="M 341.124646 124.982672 
Q 365.563478 144.199866 389.123447 162.725975 
" clip-path="url(#pb86bdcea6b)" style="fill: none; stroke: #000000; stroke-linecap: round"/>
    <path d="M 387.215377 158.681316 
L 389.123447 162.725975 
L 384.742877 161.825635 
z
" clip-path="url(#pb86bdcea6b)" style="stroke: #000000; stroke-linecap: round"/>
   </g>
   <g id="patch_34">
    <path d="M 341.534563 123.789746 
Q 377.23707 123.896249 411.821548 123.999417 
" clip-path="url(#pb86bdcea6b)" style="fill: none; stroke: #000000; stroke-linecap: round"/>
    <path d="M 407.827531 121.987494 
L 411.821548 123.999417 
L 407.815599 125.987476 
z
" clip-path="url(#pb86bdcea6b)" style="stroke: #000000; stroke-linecap: round"/>
   </g>
   <g id="patch_35">
    <path d="M 341.116936 122.576371 
Q 360.623659 107.044954 379.255729 92.209944 
" clip-path="url(#pb86bdcea6b)" style="fill: none; stroke: #000000; stroke-linecap: round"/>
    <path d="M 374.880705 93.136855 
L 379.255729 92.209944 
L 377.372244 96.26611 
z
" clip-path="url(#pb86bdcea6b)" style="stroke: #000000; stroke-linecap: round"/>
   </g>
   <g id="patch_36">
    <path d="M 341.458812 123.244513 
Q 376.109588 113.186885 409.686646 103.440911 
" clip-path="url(#pb86bdcea6b)" style="fill: none; stroke: #000000; stroke-linecap: round"/>
    <path d="M 405.287689 102.635193 
L 409.686646 103.440911 
L 406.402697 106.476646 
z
" clip-path="url(#pb86bdcea6b)" style="stroke: #000000; stroke-linecap: round"/>
   </g>
   <g id="patch_37">
    <path d="M 339.753103 121.854563 
Q 341.7779 96.297474 343.714395 71.854928 
" clip-path="url(#pb86bdcea6b)" style="fill: none; stroke: #000000; stroke-linecap: round"/>
    <path d="M 341.404727 75.684475 
L 343.714395 71.854928 
L 345.392232 76.000391 
z
" clip-path="url(#pb86bdcea6b)" style="stroke: #000000; stroke-linecap: round"/>
   </g>
   <g id="patch_38">
    <path d="M 337.942519 124.781731 
Q 289.582841 153.8886 242.181072 182.418919 
" clip-path="url(#pb86bdcea6b)" style="fill: none; stroke: #000000; stroke-linecap: round"/>
    <path d="M 246.639557 182.069754 
L 242.181072 182.418919 
L 244.57683 178.642633 
z
" clip-path="url(#pb86bdcea6b)" style="stroke: #000000; stroke-linecap: round"/>
   </g>
   <g id="patch_39">
    <path d="M 337.996199 122.695745 
Q 308.533403 102.707319 279.995815 83.34658 
" clip-path="url(#pb86bdcea6b)" style="fill: none; stroke: #000000; stroke-linecap: round"/>
    <path d="M 282.183095 87.247325 
L 279.995815 83.34658 
L 284.428778 83.937203 
z
" clip-path="url(#pb86bdcea6b)" style="stroke: #000000; stroke-linecap: round"/>
   </g>
   <g id="patch_40">
    <path d="M 241.459289 184.395479 
Q 289.435648 194.533078 336.318128 204.439537 
" clip-path="url(#pb86bdcea6b)" style="fill: none; stroke: #000000; stroke-linecap: round"/>
    <path d="M 332.818022 201.655788 
L 336.318128 204.439537 
L 331.991065 205.569373 
z
" clip-path="url(#pb86bdcea6b)" style="stroke: #000000; stroke-linecap: round"/>
   </g>
   <g id="patch_41">
    <path d="M 237.649655 183.693981 
Q 204.654647 178.506821 172.764109 173.493295 
" clip-path="url(#pb86bdcea6b)" style="fill: none; stroke: #000000; stroke-linecap: round"/>
    <path d="M 176.40497 176.090241 
L 172.764109 173.493295 
L 177.026182 172.138773 
z
" clip-path="url(#pb86bdcea6b)" style="stroke: #000000; stroke-linecap: round"/>
   </g>
   <g id="patch_42">
    <path d="M 237.772406 184.740452 
Q 205.369523 198.235462 173.998741 211.300626 
" clip-path="url(#pb86bdcea6b)" style="fill: none; stroke: #000000; stroke-linecap: round"/>
    <path d="M 178.460229 211.609045 
L 173.998741 211.300626 
L 176.922369 207.916487 
z
" clip-path="url(#pb86bdcea6b)" style="stroke: #000000; stroke-linecap: round"/>
   </g>
   <g id="patch_43">
    <path d="M 238.397721 185.538075 
Q 225.985695 201.978361 214.247328 217.526356 
" clip-path="url(#pb86bdcea6b)" style="fill: none; stroke: #000000; stroke-linecap: round"/>
    <path d="M 218.253662 215.539075 
L 214.247328 217.526356 
L 215.061303 213.12892 
z
" clip-path="url(#pb86bdcea6b)" style="stroke: #000000; stroke-linecap: round"/>
   </g>
   <g id="patch_44">
    <path d="M 237.647127 184.262012 
Q 207.859124 188.417469 179.178432 192.418455 
" clip-path="url(#pb86bdcea6b)" style="fill: none; stroke: #000000; stroke-linecap: round"/>
    <path d="M 183.416396 193.846621 
L 179.178432 192.418455 
L 182.863744 189.884983 
z
" clip-path="url(#pb86bdcea6b)" style="stroke: #000000; stroke-linecap: round"/>
   </g>
   <g id="patch_45">
    <path d="M 241.22061 182.997005 
Q 289.580288 153.890137 336.982057 125.359817 
" clip-path="url(#pb86bdcea6b)" style="fill: none; stroke: #000000; stroke-linecap: round"/>
    <path d="M 332.523572 125.708982 
L 336.982057 125.359817 
L 334.586299 129.136104 
z
" clip-path="url(#pb86bdcea6b)" style="stroke: #000000; stroke-linecap: round"/>
   </g>
   <g id="patch_46">
    <path d="M 239.679532 185.928688 
Q 242.107628 226.185303 244.468412 265.325911 
" clip-path="url(#pb86bdcea6b)" style="fill: none; stroke: #000000; stroke-linecap: round"/>
    <path d="M 246.22396 261.212755 
L 244.468412 265.325911 
L 242.231216 261.453579 
z
" clip-path="url(#pb86bdcea6b)" style="stroke: #000000; stroke-linecap: round"/>
   </g>
   <g id="patch_47">
    <path d="M 238.443936 182.4127 
Q 212.562761 145.819844 187.327185 110.139787 
" clip-path="url(#pb86bdcea6b)" style="fill: none; stroke: #000000; stroke-linecap: round"/>
    <path d="M 188.004086 114.560399 
L 187.327185 110.139787 
L 191.269815 112.250633 
z
" clip-path="url(#pb86bdcea6b)" style="stroke: #000000; stroke-linecap: round"/>
   </g>
   <g id="patch_48">
    <path d="M 159.392802 70.251442 
Q 171.922948 88.155481 183.812036 105.143526 
" clip-path="url(#pb86bdcea6b)" style="fill: none; stroke: #000000; stroke-linecap: round"/>
    <path d="M 183.157095 100.719608 
L 183.812036 105.143526 
L 179.879937 103.013128 
z
" clip-path="url(#pb86bdcea6b)" style="stroke: #000000; stroke-linecap: round"/>
   </g>
   <g id="patch_49">
    <path d="M 288.194116 304.321789 
Q 267.168722 286.964691 247.005524 270.319363 
" clip-path="url(#pb86bdcea6b)" style="fill: none; stroke: #000000; stroke-linecap: round"/>
    <path d="M 248.816962 274.408213 
L 247.005524 270.319363 
L 251.363467 271.323523 
z
" clip-path="url(#pb86bdcea6b)" style="stroke: #000000; stroke-linecap: round"/>
   </g>
   <g id="patch_50">
    <path d="M 243.452921 269.901046 
Q 228.56842 288.815038 214.375339 306.85043 
" clip-path="url(#pb86bdcea6b)" style="fill: none; stroke: #000000; stroke-linecap: round"/>
    <path d="M 218.420727 304.943906 
L 214.375339 306.85043 
L 215.277353 302.470205 
z
" clip-path="url(#pb86bdcea6b)" style="stroke: #000000; stroke-linecap: round"/>
   </g>
   <g id="patch_51">
    <path d="M 244.535783 266.442884 
Q 242.107687 226.18627 239.746903 187.045661 
" clip-path="url(#pb86bdcea6b)" style="fill: none; stroke: #000000; stroke-linecap: round"/>
    <path d="M 237.991355 191.158817 
L 239.746903 187.045661 
L 241.984099 190.917993 
z
" clip-path="url(#pb86bdcea6b)" style="stroke: #000000; stroke-linecap: round"/>
   </g>
   <g id="patch_52">
    <path d="M 246.144956 269.608938 
Q 267.170351 286.966036 287.333548 303.611364 
" clip-path="url(#pb86bdcea6b)" style="fill: none; stroke: #000000; stroke-linecap: round"/>
    <path d="M 285.52211 299.522514 
L 287.333548 303.611364 
L 282.975605 302.607204 
z
" clip-path="url(#pb86bdcea6b)" style="stroke: #000000; stroke-linecap: round"/>
   </g>
   <g id="patch_53">
    <path d="M 245.096622 270.259332 
Q 250.22462 291.992127 255.095862 312.63677 
" clip-path="url(#pb86bdcea6b)" style="fill: none; stroke: #000000; stroke-linecap: round"/>
    <path d="M 256.123807 308.284377 
L 255.095862 312.63677 
L 252.230714 309.202978 
z
" clip-path="url(#pb86bdcea6b)" style="stroke: #000000; stroke-linecap: round"/>
   </g>
   <g id="patch_54">
    <path d="M 255.353202 313.727397 
Q 250.225204 291.994601 245.353962 271.349958 
" clip-path="url(#pb86bdcea6b)" style="fill: none; stroke: #000000; stroke-linecap: round"/>
    <path d="M 244.326017 275.702351 
L 245.353962 271.349958 
L 248.21911 274.78375 
z
" clip-path="url(#pb86bdcea6b)" style="stroke: #000000; stroke-linecap: round"/>
   </g>
   <g id="patch_55">
    <path d="M 183.648333 107.374078 
Q 153.873754 103.149629 125.206122 99.082235 
" clip-path="url(#pb86bdcea6b)" style="fill: none; stroke: #000000; stroke-linecap: round"/>
    <path d="M 128.885511 101.6243 
L 125.206122 99.082235 
L 129.447408 97.663963 
z
" clip-path="url(#pb86bdcea6b)" style="stroke: #000000; stroke-linecap: round"/>
   </g>
   <g id="patch_56">
    <path d="M 186.68218 109.227827 
Q 212.563354 145.820683 237.79893 181.50074 
" clip-path="url(#pb86bdcea6b)" style="fill: none; stroke: #000000; stroke-linecap: round"/>
    <path d="M 237.122029 177.080129 
L 237.79893 181.50074 
L 233.856301 179.389894 
z
" clip-path="url(#pb86bdcea6b)" style="stroke: #000000; stroke-linecap: round"/>
   </g>
   <g id="patch_57">
    <path d="M 184.452605 106.058821 
Q 171.922459 88.154782 160.033371 71.166737 
" clip-path="url(#pb86bdcea6b)" style="fill: none; stroke: #000000; stroke-linecap: round"/>
    <path d="M 160.688312 75.590655 
L 160.033371 71.166737 
L 163.96547 73.297135 
z
" clip-path="url(#pb86bdcea6b)" style="stroke: #000000; stroke-linecap: round"/>
   </g>
   <g id="patch_58">
    <path d="M 183.772735 106.9081 
Q 142.736942 90.001767 102.734888 73.521324 
" clip-path="url(#pb86bdcea6b)" style="fill: none; stroke: #000000; stroke-linecap: round"/>
    <path d="M 105.671451 76.894245 
L 102.734888 73.521324 
L 107.195163 73.195826 
z
" clip-path="url(#pb86bdcea6b)" style="stroke: #000000; stroke-linecap: round"/>
   </g>
   <g id="patch_59">
    <path d="M 187.428424 107.117872 
Q 231.516823 94.639818 274.529445 82.466235 
" clip-path="url(#pb86bdcea6b)" style="fill: none; stroke: #000000; stroke-linecap: round"/>
    <path d="M 270.135973 81.631131 
L 274.529445 82.466235 
L 271.225279 85.479951 
z
" clip-path="url(#pb86bdcea6b)" style="stroke: #000000; stroke-linecap: round"/>
   </g>
   <g id="patch_60">
    <path d="M 98.123707 71.622233 
Q 69.951212 60.025991 42.812593 48.855309 
" clip-path="url(#pb86bdcea6b)" style="fill: none; stroke: #000000; stroke-linecap: round"/>
    <path d="M 45.750235 52.22729 
L 42.812593 48.855309 
L 47.272763 48.528384 
z
" clip-path="url(#pb86bdcea6b)" style="stroke: #000000; stroke-linecap: round"/>
   </g>
   <g id="patch_61">
    <path d="M 101.702749 73.096093 
Q 142.738542 90.002426 182.740596 106.482869 
" clip-path="url(#pb86bdcea6b)" style="fill: none; stroke: #000000; stroke-linecap: round"/>
    <path d="M 179.804032 103.109949 
L 182.740596 106.482869 
L 178.280321 106.808368 
z
" clip-path="url(#pb86bdcea6b)" style="stroke: #000000; stroke-linecap: round"/>
   </g>
   <g id="patch_62">
    <path d="M 277.397951 79.6971 
Q 276.607071 58.740254 275.858354 38.900647 
" clip-path="url(#pb86bdcea6b)" style="fill: none; stroke: #000000; stroke-linecap: round"/>
    <path d="M 274.010624 42.973225 
L 275.858354 38.900647 
L 278.007778 42.822378 
z
" clip-path="url(#pb86bdcea6b)" style="stroke: #000000; stroke-linecap: round"/>
   </g>
   <g id="patch_63">
    <path d="M 279.374195 81.266538 
Q 310.713083 75.220644 340.954178 69.386535 
" clip-path="url(#pb86bdcea6b)" style="fill: none; stroke: #000000; stroke-linecap: round"/>
    <path d="M 336.647745 68.180454 
L 340.954178 69.386535 
L 337.405453 72.108033 
z
" clip-path="url(#pb86bdcea6b)" style="stroke: #000000; stroke-linecap: round"/>
   </g>
   <g id="patch_64">
    <path d="M 279.075079 82.721926 
Q 308.537875 102.710352 337.075463 122.071091 
" clip-path="url(#pb86bdcea6b)" style="fill: none; stroke: #000000; stroke-linecap: round"/>
    <path d="M 334.888184 118.170346 
L 337.075463 122.071091 
L 332.6425 121.480468 
z
" clip-path="url(#pb86bdcea6b)" style="stroke: #000000; stroke-linecap: round"/>
   </g>
   <g id="patch_65">
    <path d="M 275.605841 82.161589 
Q 231.517441 94.639643 188.504819 106.813227 
" clip-path="url(#pb86bdcea6b)" style="fill: none; stroke: #000000; stroke-linecap: round"/>
    <path d="M 192.898292 107.64833 
L 188.504819 106.813227 
L 191.808985 103.799511 
z
" clip-path="url(#pb86bdcea6b)" style="stroke: #000000; stroke-linecap: round"/>
   </g>
   <g id="PathCollection_1">
    <defs>
     <path id="mc7586e1b3b" d="M 0 1.936492 
C 0.513564 1.936492 1.006162 1.732451 1.369306 1.369306 
C 1.732451 1.006162 1.936492 0.513564 1.936492 0 
C 1.936492 -0.513564 1.732451 -1.006162 1.369306 -1.369306 
C 1.006162 -1.732451 0.513564 -1.936492 0 -1.936492 
C -0.513564 -1.936492 -1.006162 -1.732451 -1.369306 -1.369306 
C -1.732451 -1.006162 -1.936492 -0.513564 -1.936492 0 
C -1.936492 0.513564 -1.732451 1.006162 -1.369306 1.369306 
C -1.006162 1.732451 -0.513564 1.936492 0 1.936492 
z
" style="stroke: #1f78b4"/>
    </defs>
    <g clip-path="url(#pb86bdcea6b)">
     <use xlink:href="#mc7586e1b3b" x="327.179657" y="159.647865" style="fill: #1f78b4; stroke: #1f78b4"/>
     <use xlink:href="#mc7586e1b3b" x="399.619703" y="234.900581" style="fill: #1f78b4; stroke: #1f78b4"/>
     <use xlink:href="#mc7586e1b3b" x="391.525027" y="164.61443" style="fill: #1f78b4; stroke: #1f78b4"/>
     <use xlink:href="#mc7586e1b3b" x="339.308189" y="205.071349" style="fill: #1f78b4; stroke: #1f78b4"/>
     <use xlink:href="#mc7586e1b3b" x="330.586479" y="238.902902" style="fill: #1f78b4; stroke: #1f78b4"/>
     <use xlink:href="#mc7586e1b3b" x="414.877911" y="124.008534" style="fill: #1f78b4; stroke: #1f78b4"/>
     <use xlink:href="#mc7586e1b3b" x="169.749108" y="173.019305" style="fill: #1f78b4; stroke: #1f78b4"/>
     <use xlink:href="#mc7586e1b3b" x="171.182398" y="212.473564" style="fill: #1f78b4; stroke: #1f78b4"/>
     <use xlink:href="#mc7586e1b3b" x="212.487564" y="309.249258" style="fill: #1f78b4; stroke: #1f78b4"/>
     <use xlink:href="#mc7586e1b3b" x="212.407736" y="219.962977" style="fill: #1f78b4; stroke: #1f78b4"/>
     <use xlink:href="#mc7586e1b3b" x="122.182106" y="98.653184" style="fill: #1f78b4; stroke: #1f78b4"/>
     <use xlink:href="#mc7586e1b3b" x="39.986777" y="47.692158" style="fill: #1f78b4; stroke: #1f78b4"/>
     <use xlink:href="#mc7586e1b3b" x="381.646788" y="90.306162" style="fill: #1f78b4; stroke: #1f78b4"/>
     <use xlink:href="#mc7586e1b3b" x="289.27163" y="132.982195" style="fill: #1f78b4; stroke: #1f78b4"/>
     <use xlink:href="#mc7586e1b3b" x="420.813223" y="209.982751" style="fill: #1f78b4; stroke: #1f78b4"/>
     <use xlink:href="#mc7586e1b3b" x="176.153188" y="192.840479" style="fill: #1f78b4; stroke: #1f78b4"/>
     <use xlink:href="#mc7586e1b3b" x="388.866903" y="29.990083" style="fill: #1f78b4; stroke: #1f78b4"/>
     <use xlink:href="#mc7586e1b3b" x="275.743169" y="35.848436" style="fill: #1f78b4; stroke: #1f78b4"/>
     <use xlink:href="#mc7586e1b3b" x="392.220637" y="208.732789" style="fill: #1f78b4; stroke: #1f78b4"/>
     <use xlink:href="#mc7586e1b3b" x="412.623753" y="102.588396" style="fill: #1f78b4; stroke: #1f78b4"/>
     <use xlink:href="#mc7586e1b3b" x="343.955836" y="68.807456" style="fill: #1f78b4; stroke: #1f78b4"/>
     <use xlink:href="#mc7586e1b3b" x="339.600243" y="123.783975" style="fill: #1f78b4; stroke: #1f78b4"/>
     <use xlink:href="#mc7586e1b3b" x="239.562886" y="183.994761" style="fill: #1f78b4; stroke: #1f78b4"/>
     <use xlink:href="#mc7586e1b3b" x="158.282178" y="68.664497" style="fill: #1f78b4; stroke: #1f78b4"/>
     <use xlink:href="#mc7586e1b3b" x="289.686644" y="305.553916" style="fill: #1f78b4; stroke: #1f78b4"/>
     <use xlink:href="#mc7586e1b3b" x="244.652428" y="268.376811" style="fill: #1f78b4; stroke: #1f78b4"/>
     <use xlink:href="#mc7586e1b3b" x="255.797395" y="315.609917" style="fill: #1f78b4; stroke: #1f78b4"/>
     <use xlink:href="#mc7586e1b3b" x="185.563229" y="107.645766" style="fill: #1f78b4; stroke: #1f78b4"/>
     <use xlink:href="#mc7586e1b3b" x="99.912254" y="72.358428" style="fill: #1f78b4; stroke: #1f78b4"/>
     <use xlink:href="#mc7586e1b3b" x="277.471035" y="81.633695" style="fill: #1f78b4; stroke: #1f78b4"/>
    </g>
   </g>
   <g id="text_1">
    <g clip-path="url(#pb86bdcea6b)">
     <!-- 0 -->
     <g transform="translate(323.998407 162.40724) scale(0.1 -0.1)">
      <defs>
       <path id="DejaVuSans-30" d="M 2034 4250 
Q 1547 4250 1301 3770 
Q 1056 3291 1056 2328 
Q 1056 1369 1301 889 
Q 1547 409 2034 409 
Q 2525 409 2770 889 
Q 3016 1369 3016 2328 
Q 3016 3291 2770 3770 
Q 2525 4250 2034 4250 
z
M 2034 4750 
Q 2819 4750 3233 4129 
Q 3647 3509 3647 2328 
Q 3647 1150 3233 529 
Q 2819 -91 2034 -91 
Q 1250 -91 836 529 
Q 422 1150 422 2328 
Q 422 3509 836 4129 
Q 1250 4750 2034 4750 
z
" transform="scale(0.015625)"/>
      </defs>
      <use xlink:href="#DejaVuSans-30"/>
     </g>
    </g>
   </g>
   <g id="text_2">
    <g clip-path="url(#pb86bdcea6b)">
     <!-- 1 -->
     <g transform="translate(396.438453 237.659956) scale(0.1 -0.1)">
      <defs>
       <path id="DejaVuSans-31" d="M 794 531 
L 1825 531 
L 1825 4091 
L 703 3866 
L 703 4441 
L 1819 4666 
L 2450 4666 
L 2450 531 
L 3481 531 
L 3481 0 
L 794 0 
L 794 531 
z
" transform="scale(0.015625)"/>
      </defs>
      <use xlink:href="#DejaVuSans-31"/>
     </g>
    </g>
   </g>
   <g id="text_3">
    <g clip-path="url(#pb86bdcea6b)">
     <!-- 2 -->
     <g transform="translate(388.343777 167.373805) scale(0.1 -0.1)">
      <defs>
       <path id="DejaVuSans-32" d="M 1228 531 
L 3431 531 
L 3431 0 
L 469 0 
L 469 531 
Q 828 903 1448 1529 
Q 2069 2156 2228 2338 
Q 2531 2678 2651 2914 
Q 2772 3150 2772 3378 
Q 2772 3750 2511 3984 
Q 2250 4219 1831 4219 
Q 1534 4219 1204 4116 
Q 875 4013 500 3803 
L 500 4441 
Q 881 4594 1212 4672 
Q 1544 4750 1819 4750 
Q 2544 4750 2975 4387 
Q 3406 4025 3406 3419 
Q 3406 3131 3298 2873 
Q 3191 2616 2906 2266 
Q 2828 2175 2409 1742 
Q 1991 1309 1228 531 
z
" transform="scale(0.015625)"/>
      </defs>
      <use xlink:href="#DejaVuSans-32"/>
     </g>
    </g>
   </g>
   <g id="text_4">
    <g clip-path="url(#pb86bdcea6b)">
     <!-- 3 -->
     <g transform="translate(336.126939 207.830724) scale(0.1 -0.1)">
      <defs>
       <path id="DejaVuSans-33" d="M 2597 2516 
Q 3050 2419 3304 2112 
Q 3559 1806 3559 1356 
Q 3559 666 3084 287 
Q 2609 -91 1734 -91 
Q 1441 -91 1130 -33 
Q 819 25 488 141 
L 488 750 
Q 750 597 1062 519 
Q 1375 441 1716 441 
Q 2309 441 2620 675 
Q 2931 909 2931 1356 
Q 2931 1769 2642 2001 
Q 2353 2234 1838 2234 
L 1294 2234 
L 1294 2753 
L 1863 2753 
Q 2328 2753 2575 2939 
Q 2822 3125 2822 3475 
Q 2822 3834 2567 4026 
Q 2313 4219 1838 4219 
Q 1578 4219 1281 4162 
Q 984 4106 628 3988 
L 628 4550 
Q 988 4650 1302 4700 
Q 1616 4750 1894 4750 
Q 2613 4750 3031 4423 
Q 3450 4097 3450 3541 
Q 3450 3153 3228 2886 
Q 3006 2619 2597 2516 
z
" transform="scale(0.015625)"/>
      </defs>
      <use xlink:href="#DejaVuSans-33"/>
     </g>
    </g>
   </g>
   <g id="text_5">
    <g clip-path="url(#pb86bdcea6b)">
     <!-- 4 -->
     <g transform="translate(327.405229 241.662277) scale(0.1 -0.1)">
      <defs>
       <path id="DejaVuSans-34" d="M 2419 4116 
L 825 1625 
L 2419 1625 
L 2419 4116 
z
M 2253 4666 
L 3047 4666 
L 3047 1625 
L 3713 1625 
L 3713 1100 
L 3047 1100 
L 3047 0 
L 2419 0 
L 2419 1100 
L 313 1100 
L 313 1709 
L 2253 4666 
z
" transform="scale(0.015625)"/>
      </defs>
      <use xlink:href="#DejaVuSans-34"/>
     </g>
    </g>
   </g>
   <g id="text_6">
    <g clip-path="url(#pb86bdcea6b)">
     <!-- 5 -->
     <g transform="translate(411.696661 126.767909) scale(0.1 -0.1)">
      <defs>
       <path id="DejaVuSans-35" d="M 691 4666 
L 3169 4666 
L 3169 4134 
L 1269 4134 
L 1269 2991 
Q 1406 3038 1543 3061 
Q 1681 3084 1819 3084 
Q 2600 3084 3056 2656 
Q 3513 2228 3513 1497 
Q 3513 744 3044 326 
Q 2575 -91 1722 -91 
Q 1428 -91 1123 -41 
Q 819 9 494 109 
L 494 744 
Q 775 591 1075 516 
Q 1375 441 1709 441 
Q 2250 441 2565 725 
Q 2881 1009 2881 1497 
Q 2881 1984 2565 2268 
Q 2250 2553 1709 2553 
Q 1456 2553 1204 2497 
Q 953 2441 691 2322 
L 691 4666 
z
" transform="scale(0.015625)"/>
      </defs>
      <use xlink:href="#DejaVuSans-35"/>
     </g>
    </g>
   </g>
   <g id="text_7">
    <g clip-path="url(#pb86bdcea6b)">
     <!-- 6 -->
     <g transform="translate(166.567858 175.77868) scale(0.1 -0.1)">
      <defs>
       <path id="DejaVuSans-36" d="M 2113 2584 
Q 1688 2584 1439 2293 
Q 1191 2003 1191 1497 
Q 1191 994 1439 701 
Q 1688 409 2113 409 
Q 2538 409 2786 701 
Q 3034 994 3034 1497 
Q 3034 2003 2786 2293 
Q 2538 2584 2113 2584 
z
M 3366 4563 
L 3366 3988 
Q 3128 4100 2886 4159 
Q 2644 4219 2406 4219 
Q 1781 4219 1451 3797 
Q 1122 3375 1075 2522 
Q 1259 2794 1537 2939 
Q 1816 3084 2150 3084 
Q 2853 3084 3261 2657 
Q 3669 2231 3669 1497 
Q 3669 778 3244 343 
Q 2819 -91 2113 -91 
Q 1303 -91 875 529 
Q 447 1150 447 2328 
Q 447 3434 972 4092 
Q 1497 4750 2381 4750 
Q 2619 4750 2861 4703 
Q 3103 4656 3366 4563 
z
" transform="scale(0.015625)"/>
      </defs>
      <use xlink:href="#DejaVuSans-36"/>
     </g>
    </g>
   </g>
   <g id="text_8">
    <g clip-path="url(#pb86bdcea6b)">
     <!-- 7 -->
     <g transform="translate(168.001148 215.232939) scale(0.1 -0.1)">
      <defs>
       <path id="DejaVuSans-37" d="M 525 4666 
L 3525 4666 
L 3525 4397 
L 1831 0 
L 1172 0 
L 2766 4134 
L 525 4134 
L 525 4666 
z
" transform="scale(0.015625)"/>
      </defs>
      <use xlink:href="#DejaVuSans-37"/>
     </g>
    </g>
   </g>
   <g id="text_9">
    <g clip-path="url(#pb86bdcea6b)">
     <!-- 8 -->
     <g transform="translate(209.306314 312.008633) scale(0.1 -0.1)">
      <defs>
       <path id="DejaVuSans-38" d="M 2034 2216 
Q 1584 2216 1326 1975 
Q 1069 1734 1069 1313 
Q 1069 891 1326 650 
Q 1584 409 2034 409 
Q 2484 409 2743 651 
Q 3003 894 3003 1313 
Q 3003 1734 2745 1975 
Q 2488 2216 2034 2216 
z
M 1403 2484 
Q 997 2584 770 2862 
Q 544 3141 544 3541 
Q 544 4100 942 4425 
Q 1341 4750 2034 4750 
Q 2731 4750 3128 4425 
Q 3525 4100 3525 3541 
Q 3525 3141 3298 2862 
Q 3072 2584 2669 2484 
Q 3125 2378 3379 2068 
Q 3634 1759 3634 1313 
Q 3634 634 3220 271 
Q 2806 -91 2034 -91 
Q 1263 -91 848 271 
Q 434 634 434 1313 
Q 434 1759 690 2068 
Q 947 2378 1403 2484 
z
M 1172 3481 
Q 1172 3119 1398 2916 
Q 1625 2713 2034 2713 
Q 2441 2713 2670 2916 
Q 2900 3119 2900 3481 
Q 2900 3844 2670 4047 
Q 2441 4250 2034 4250 
Q 1625 4250 1398 4047 
Q 1172 3844 1172 3481 
z
" transform="scale(0.015625)"/>
      </defs>
      <use xlink:href="#DejaVuSans-38"/>
     </g>
    </g>
   </g>
   <g id="text_10">
    <g clip-path="url(#pb86bdcea6b)">
     <!-- 9 -->
     <g transform="translate(209.226486 222.722352) scale(0.1 -0.1)">
      <defs>
       <path id="DejaVuSans-39" d="M 703 97 
L 703 672 
Q 941 559 1184 500 
Q 1428 441 1663 441 
Q 2288 441 2617 861 
Q 2947 1281 2994 2138 
Q 2813 1869 2534 1725 
Q 2256 1581 1919 1581 
Q 1219 1581 811 2004 
Q 403 2428 403 3163 
Q 403 3881 828 4315 
Q 1253 4750 1959 4750 
Q 2769 4750 3195 4129 
Q 3622 3509 3622 2328 
Q 3622 1225 3098 567 
Q 2575 -91 1691 -91 
Q 1453 -91 1209 -44 
Q 966 3 703 97 
z
M 1959 2075 
Q 2384 2075 2632 2365 
Q 2881 2656 2881 3163 
Q 2881 3666 2632 3958 
Q 2384 4250 1959 4250 
Q 1534 4250 1286 3958 
Q 1038 3666 1038 3163 
Q 1038 2656 1286 2365 
Q 1534 2075 1959 2075 
z
" transform="scale(0.015625)"/>
      </defs>
      <use xlink:href="#DejaVuSans-39"/>
     </g>
    </g>
   </g>
   <g id="text_11">
    <g clip-path="url(#pb86bdcea6b)">
     <!-- 10 -->
     <g transform="translate(115.819606 101.412559) scale(0.1 -0.1)">
      <use xlink:href="#DejaVuSans-31"/>
      <use xlink:href="#DejaVuSans-30" x="63.623047"/>
     </g>
    </g>
   </g>
   <g id="text_12">
    <g clip-path="url(#pb86bdcea6b)">
     <!-- 11 -->
     <g transform="translate(33.624277 50.451533) scale(0.1 -0.1)">
      <use xlink:href="#DejaVuSans-31"/>
      <use xlink:href="#DejaVuSans-31" x="63.623047"/>
     </g>
    </g>
   </g>
   <g id="text_13">
    <g clip-path="url(#pb86bdcea6b)">
     <!-- 12 -->
     <g transform="translate(375.284288 93.065537) scale(0.1 -0.1)">
      <use xlink:href="#DejaVuSans-31"/>
      <use xlink:href="#DejaVuSans-32" x="63.623047"/>
     </g>
    </g>
   </g>
   <g id="text_14">
    <g clip-path="url(#pb86bdcea6b)">
     <!-- 13 -->
     <g transform="translate(282.90913 135.74157) scale(0.1 -0.1)">
      <use xlink:href="#DejaVuSans-31"/>
      <use xlink:href="#DejaVuSans-33" x="63.623047"/>
     </g>
    </g>
   </g>
   <g id="text_15">
    <g clip-path="url(#pb86bdcea6b)">
     <!-- 14 -->
     <g transform="translate(414.450723 212.742126) scale(0.1 -0.1)">
      <use xlink:href="#DejaVuSans-31"/>
      <use xlink:href="#DejaVuSans-34" x="63.623047"/>
     </g>
    </g>
   </g>
   <g id="text_16">
    <g clip-path="url(#pb86bdcea6b)">
     <!-- 15 -->
     <g transform="translate(169.790688 195.599854) scale(0.1 -0.1)">
      <use xlink:href="#DejaVuSans-31"/>
      <use xlink:href="#DejaVuSans-35" x="63.623047"/>
     </g>
    </g>
   </g>
   <g id="text_17">
    <g clip-path="url(#pb86bdcea6b)">
     <!-- 16 -->
     <g transform="translate(382.504403 32.749458) scale(0.1 -0.1)">
      <use xlink:href="#DejaVuSans-31"/>
      <use xlink:href="#DejaVuSans-36" x="63.623047"/>
     </g>
    </g>
   </g>
   <g id="text_18">
    <g clip-path="url(#pb86bdcea6b)">
     <!-- 17 -->
     <g transform="translate(269.380669 38.607811) scale(0.1 -0.1)">
      <use xlink:href="#DejaVuSans-31"/>
      <use xlink:href="#DejaVuSans-37" x="63.623047"/>
     </g>
    </g>
   </g>
   <g id="text_19">
    <g clip-path="url(#pb86bdcea6b)">
     <!-- 18 -->
     <g transform="translate(385.858137 211.492164) scale(0.1 -0.1)">
      <use xlink:href="#DejaVuSans-31"/>
      <use xlink:href="#DejaVuSans-38" x="63.623047"/>
     </g>
    </g>
   </g>
   <g id="text_20">
    <g clip-path="url(#pb86bdcea6b)">
     <!-- 19 -->
     <g transform="translate(406.261253 105.347771) scale(0.1 -0.1)">
      <use xlink:href="#DejaVuSans-31"/>
      <use xlink:href="#DejaVuSans-39" x="63.623047"/>
     </g>
    </g>
   </g>
   <g id="text_21">
    <g clip-path="url(#pb86bdcea6b)">
     <!-- 20 -->
     <g transform="translate(337.593336 71.566831) scale(0.1 -0.1)">
      <use xlink:href="#DejaVuSans-32"/>
      <use xlink:href="#DejaVuSans-30" x="63.623047"/>
     </g>
    </g>
   </g>
   <g id="text_22">
    <g clip-path="url(#pb86bdcea6b)">
     <!-- 21 -->
     <g transform="translate(333.237743 126.54335) scale(0.1 -0.1)">
      <use xlink:href="#DejaVuSans-32"/>
      <use xlink:href="#DejaVuSans-31" x="63.623047"/>
     </g>
    </g>
   </g>
   <g id="text_23">
    <g clip-path="url(#pb86bdcea6b)">
     <!-- 22 -->
     <g transform="translate(233.200386 186.754136) scale(0.1 -0.1)">
      <use xlink:href="#DejaVuSans-32"/>
      <use xlink:href="#DejaVuSans-32" x="63.623047"/>
     </g>
    </g>
   </g>
   <g id="text_24">
    <g clip-path="url(#pb86bdcea6b)">
     <!-- 23 -->
     <g transform="translate(151.919678 71.423872) scale(0.1 -0.1)">
      <use xlink:href="#DejaVuSans-32"/>
      <use xlink:href="#DejaVuSans-33" x="63.623047"/>
     </g>
    </g>
   </g>
   <g id="text_25">
    <g clip-path="url(#pb86bdcea6b)">
     <!-- 24 -->
     <g transform="translate(283.324144 308.313291) scale(0.1 -0.1)">
      <use xlink:href="#DejaVuSans-32"/>
      <use xlink:href="#DejaVuSans-34" x="63.623047"/>
     </g>
    </g>
   </g>
   <g id="text_26">
    <g clip-path="url(#pb86bdcea6b)">
     <!-- 25 -->
     <g transform="translate(238.289928 271.136186) scale(0.1 -0.1)">
      <use xlink:href="#DejaVuSans-32"/>
      <use xlink:href="#DejaVuSans-35" x="63.623047"/>
     </g>
    </g>
   </g>
   <g id="text_27">
    <g clip-path="url(#pb86bdcea6b)">
     <!-- 26 -->
     <g transform="translate(249.434895 318.369292) scale(0.1 -0.1)">
      <use xlink:href="#DejaVuSans-32"/>
      <use xlink:href="#DejaVuSans-36" x="63.623047"/>
     </g>
    </g>
   </g>
   <g id="text_28">
    <g clip-path="url(#pb86bdcea6b)">
     <!-- 27 -->
     <g transform="translate(179.200729 110.405141) scale(0.1 -0.1)">
      <use xlink:href="#DejaVuSans-32"/>
      <use xlink:href="#DejaVuSans-37" x="63.623047"/>
     </g>
    </g>
   </g>
   <g id="text_29">
    <g clip-path="url(#pb86bdcea6b)">
     <!-- 28 -->
     <g transform="translate(93.549754 75.117803) scale(0.1 -0.1)">
      <use xlink:href="#DejaVuSans-32"/>
      <use xlink:href="#DejaVuSans-38" x="63.623047"/>
     </g>
    </g>
   </g>
   <g id="text_30">
    <g clip-path="url(#pb86bdcea6b)">
     <!-- 29 -->
     <g transform="translate(271.108535 84.39307) scale(0.1 -0.1)">
      <use xlink:href="#DejaVuSans-32"/>
      <use xlink:href="#DejaVuSans-39" x="63.623047"/>
     </g>
    </g>
   </g>
  </g>
 </g>
 <defs>
  <clipPath id="pb86bdcea6b">
   <rect x="0" y="0" width="460.8" height="345.6"/>
  </clipPath>
 </defs>
</svg>
