<?xml version="1.0" encoding="utf-8" standalone="no"?>
<!DOCTYPE svg PUBLIC "-//W3C//DTD SVG 1.1//EN"
  "http://www.w3.org/Graphics/SVG/1.1/DTD/svg11.dtd">
<svg xmlns:xlink="http://www.w3.org/1999/xlink" width="460.8pt" height="345.6pt" viewBox="0 0 460.8 345.6" xmlns="http://www.w3.org/2000/svg" version="1.1">
 <metadata>
  <rdf:RDF xmlns:dc="http://purl.org/dc/elements/1.1/" xmlns:cc="http://creativecommons.org/ns#" xmlns:rdf="http://www.w3.org/1999/02/22-rdf-syntax-ns#">
   <cc:Work>
    <dc:type rdf:resource="http://purl.org/dc/dcmitype/StillImage"/>
    <dc:date>2024-02-28T11:17:19.635680</dc:date>
    <dc:format>image/svg+xml</dc:format>
    <dc:creator>
     <cc:Agent>
      <dc:title>Matplotlib v3.8.0, https://matplotlib.org/</dc:title>
     </cc:Agent>
    </dc:creator>
   </cc:Work>
  </rdf:RDF>
 </metadata>
 <defs>
  <style type="text/css">*{stroke-linejoin: round; stroke-linecap: butt}</style>
 </defs>
 <g id="figure_1">
  <g id="patch_1">
   <path d="M 0 345.6 
L 460.8 345.6 
L 460.8 0 
L 0 0 
z
" style="fill: #ffffff"/>
  </g>
  <g id="axes_1">
   <g id="patch_2">
    <path d="M 48.236348 275.382187 
Q 44.352746 290.458103 40.748047 304.45133 
" clip-path="url(#pda156c11e0)" style="fill: none; stroke: #000000; stroke-linecap: round"/>
    <path d="M 43.682654 301.076707 
L 40.748047 304.45133 
L 39.809112 300.078871 
z
" clip-path="url(#pda156c11e0)" style="stroke: #000000; stroke-linecap: round"/>
   </g>
   <g id="patch_3">
    <path d="M 50.493193 272.728394 
Q 82.751493 258.558093 113.986167 244.837447 
" clip-path="url(#pda156c11e0)" style="fill: none; stroke: #000000; stroke-linecap: round"/>
    <path d="M 109.519563 244.615061 
L 113.986167 244.837447 
L 111.128297 248.277298 
z
" clip-path="url(#pda156c11e0)" style="stroke: #000000; stroke-linecap: round"/>
   </g>
   <g id="patch_4">
    <path d="M 181.190848 303.244503 
Q 145.543353 312.333914 110.979229 321.147086 
" clip-path="url(#pda156c11e0)" style="fill: none; stroke: #000000; stroke-linecap: round"/>
    <path d="M 115.349364 322.096778 
L 110.979229 321.147086 
L 114.361064 318.220793 
z
" clip-path="url(#pda156c11e0)" style="stroke: #000000; stroke-linecap: round"/>
   </g>
   <g id="patch_5">
    <path d="M 184.56381 301.54534 
Q 206.822526 283.413683 228.214406 265.988139 
" clip-path="url(#pda156c11e0)" style="fill: none; stroke: #000000; stroke-linecap: round"/>
    <path d="M 223.849987 266.963762 
L 228.214406 265.988139 
L 226.376254 270.065048 
z
" clip-path="url(#pda156c11e0)" style="stroke: #000000; stroke-linecap: round"/>
   </g>
   <g id="patch_6">
    <path d="M 109.889031 321.425065 
Q 145.536526 312.335654 180.10065 303.522482 
" clip-path="url(#pda156c11e0)" style="fill: none; stroke: #000000; stroke-linecap: round"/>
    <path d="M 175.730515 302.57279 
L 180.10065 303.522482 
L 176.718815 306.448775 
z
" clip-path="url(#pda156c11e0)" style="stroke: #000000; stroke-linecap: round"/>
   </g>
   <g id="patch_7">
    <path d="M 106.118029 321.498419 
Q 73.998923 314.654171 42.9733 308.042932 
" clip-path="url(#pda156c11e0)" style="fill: none; stroke: #000000; stroke-linecap: round"/>
    <path d="M 46.468645 310.832657 
L 42.9733 308.042932 
L 47.302287 306.920491 
z
" clip-path="url(#pda156c11e0)" style="stroke: #000000; stroke-linecap: round"/>
   </g>
   <g id="patch_8">
    <path d="M 40.469663 305.532 
Q 44.353266 290.456085 47.957964 276.462857 
" clip-path="url(#pda156c11e0)" style="fill: none; stroke: #000000; stroke-linecap: round"/>
    <path d="M 45.023357 279.83748 
L 47.957964 276.462857 
L 48.896899 280.835317 
z
" clip-path="url(#pda156c11e0)" style="stroke: #000000; stroke-linecap: round"/>
   </g>
   <g id="patch_9">
    <path d="M 41.884308 307.81088 
Q 74.003414 314.655128 105.029037 321.266366 
" clip-path="url(#pda156c11e0)" style="fill: none; stroke: #000000; stroke-linecap: round"/>
    <path d="M 101.533692 318.476641 
L 105.029037 321.266366 
L 100.70005 322.388807 
z
" clip-path="url(#pda156c11e0)" style="stroke: #000000; stroke-linecap: round"/>
   </g>
   <g id="patch_10">
    <path d="M 168.588057 256.088511 
Q 143.627683 250.074642 119.75424 244.322655 
" clip-path="url(#pda156c11e0)" style="fill: none; stroke: #000000; stroke-linecap: round"/>
    <path d="M 123.174494 247.203951 
L 119.75424 244.322655 
L 124.111429 243.31523 
z
" clip-path="url(#pda156c11e0)" style="stroke: #000000; stroke-linecap: round"/>
   </g>
   <g id="patch_11">
    <path d="M 168.588057 256.088511 
Q 143.627683 250.074642 119.75424 244.322655 
" clip-path="url(#pda156c11e0)" style="fill: none; stroke: #000000; stroke-linecap: round"/>
    <path d="M 123.174494 247.203951 
L 119.75424 244.322655 
L 124.111429 243.31523 
z
" clip-path="url(#pda156c11e0)" style="stroke: #000000; stroke-linecap: round"/>
   </g>
   <g id="patch_12">
    <path d="M 172.391034 256.78237 
Q 200.526739 260.300025 227.553047 263.678978 
" clip-path="url(#pda156c11e0)" style="fill: none; stroke: #000000; stroke-linecap: round"/>
    <path d="M 223.832065 261.198193 
L 227.553047 263.678978 
L 223.33583 265.167292 
z
" clip-path="url(#pda156c11e0)" style="stroke: #000000; stroke-linecap: round"/>
   </g>
   <g id="patch_13">
    <path d="M 172.391034 256.78237 
Q 200.526739 260.300025 227.553047 263.678978 
" clip-path="url(#pda156c11e0)" style="fill: none; stroke: #000000; stroke-linecap: round"/>
    <path d="M 223.832065 261.198193 
L 227.553047 263.678978 
L 223.33583 265.167292 
z
" clip-path="url(#pda156c11e0)" style="stroke: #000000; stroke-linecap: round"/>
   </g>
   <g id="patch_14">
    <path d="M 229.084485 265.279384 
Q 206.825769 283.411041 185.433888 300.836585 
" clip-path="url(#pda156c11e0)" style="fill: none; stroke: #000000; stroke-linecap: round"/>
    <path d="M 189.798308 299.860961 
L 185.433888 300.836585 
L 187.272041 296.759675 
z
" clip-path="url(#pda156c11e0)" style="stroke: #000000; stroke-linecap: round"/>
   </g>
   <g id="patch_15">
    <path d="M 228.665124 263.818015 
Q 200.529419 260.30036 173.503111 256.921407 
" clip-path="url(#pda156c11e0)" style="fill: none; stroke: #000000; stroke-linecap: round"/>
    <path d="M 177.224093 259.402192 
L 173.503111 256.921407 
L 177.720328 255.433092 
z
" clip-path="url(#pda156c11e0)" style="stroke: #000000; stroke-linecap: round"/>
   </g>
   <g id="patch_16">
    <path d="M 228.665124 263.818015 
Q 200.529419 260.30036 173.503111 256.921407 
" clip-path="url(#pda156c11e0)" style="fill: none; stroke: #000000; stroke-linecap: round"/>
    <path d="M 177.224093 259.402192 
L 173.503111 256.921407 
L 177.720328 255.433092 
z
" clip-path="url(#pda156c11e0)" style="stroke: #000000; stroke-linecap: round"/>
   </g>
   <g id="patch_17">
    <path d="M 232.302432 263.166121 
Q 267.101272 245.107175 300.907749 227.563219 
" clip-path="url(#pda156c11e0)" style="fill: none; stroke: #000000; stroke-linecap: round"/>
    <path d="M 296.436119 227.630508 
L 300.907749 227.563219 
L 298.278602 231.180896 
z
" clip-path="url(#pda156c11e0)" style="stroke: #000000; stroke-linecap: round"/>
   </g>
   <g id="patch_18">
    <path d="M 418.886372 191.210395 
Q 389.053978 194.480376 360.332961 197.628536 
" clip-path="url(#pda156c11e0)" style="fill: none; stroke: #000000; stroke-linecap: round"/>
    <path d="M 364.527064 199.180792 
L 360.332961 197.628536 
L 364.091228 195.204607 
z
" clip-path="url(#pda156c11e0)" style="stroke: #000000; stroke-linecap: round"/>
   </g>
   <g id="patch_19">
    <path d="M 418.886372 191.210395 
Q 389.053978 194.480376 360.332961 197.628536 
" clip-path="url(#pda156c11e0)" style="fill: none; stroke: #000000; stroke-linecap: round"/>
    <path d="M 364.527064 199.180792 
L 360.332961 197.628536 
L 364.091228 195.204607 
z
" clip-path="url(#pda156c11e0)" style="stroke: #000000; stroke-linecap: round"/>
   </g>
   <g id="patch_20">
    <path d="M 359.219884 197.750542 
Q 389.052278 194.480562 417.773294 191.332401 
" clip-path="url(#pda156c11e0)" style="fill: none; stroke: #000000; stroke-linecap: round"/>
    <path d="M 413.579191 189.780145 
L 417.773294 191.332401 
L 414.015028 193.75633 
z
" clip-path="url(#pda156c11e0)" style="stroke: #000000; stroke-linecap: round"/>
   </g>
   <g id="patch_21">
    <path d="M 359.219884 197.750542 
Q 389.052278 194.480562 417.773294 191.332401 
" clip-path="url(#pda156c11e0)" style="fill: none; stroke: #000000; stroke-linecap: round"/>
    <path d="M 413.579191 189.780145 
L 417.773294 191.332401 
L 414.015028 193.75633 
z
" clip-path="url(#pda156c11e0)" style="stroke: #000000; stroke-linecap: round"/>
   </g>
   <g id="patch_22">
    <path d="M 355.579698 198.861746 
Q 330.457456 212.058223 306.325001 224.734775 
" clip-path="url(#pda156c11e0)" style="fill: none; stroke: #000000; stroke-linecap: round"/>
    <path d="M 310.79624 224.645217 
L 306.325001 224.734775 
L 308.936098 221.104048 
z
" clip-path="url(#pda156c11e0)" style="stroke: #000000; stroke-linecap: round"/>
   </g>
   <g id="patch_23">
    <path d="M 355.373197 197.728909 
Q 307.760417 191.954411 261.257538 186.314522 
" clip-path="url(#pda156c11e0)" style="fill: none; stroke: #000000; stroke-linecap: round"/>
    <path d="M 264.987645 188.781566 
L 261.257538 186.314522 
L 265.469237 184.810663 
z
" clip-path="url(#pda156c11e0)" style="stroke: #000000; stroke-linecap: round"/>
   </g>
   <g id="patch_24">
    <path d="M 301.901031 227.047753 
Q 267.102191 245.106699 233.295714 262.650655 
" clip-path="url(#pda156c11e0)" style="fill: none; stroke: #000000; stroke-linecap: round"/>
    <path d="M 237.767344 262.583366 
L 233.295714 262.650655 
L 235.924861 259.032978 
z
" clip-path="url(#pda156c11e0)" style="stroke: #000000; stroke-linecap: round"/>
   </g>
   <g id="patch_25">
    <path d="M 305.332821 225.255957 
Q 330.455063 212.05948 354.587518 199.382929 
" clip-path="url(#pda156c11e0)" style="fill: none; stroke: #000000; stroke-linecap: round"/>
    <path d="M 350.116279 199.472487 
L 354.587518 199.382929 
L 351.976422 203.013655 
z
" clip-path="url(#pda156c11e0)" style="stroke: #000000; stroke-linecap: round"/>
   </g>
   <g id="patch_26">
    <path d="M 304.077401 224.275796 
Q 308.032322 208.037202 311.722679 192.884888 
" clip-path="url(#pda156c11e0)" style="fill: none; stroke: #000000; stroke-linecap: round"/>
    <path d="M 308.832947 196.298017 
L 311.722679 192.884888 
L 312.719343 197.244551 
z
" clip-path="url(#pda156c11e0)" style="stroke: #000000; stroke-linecap: round"/>
   </g>
   <g id="patch_27">
    <path d="M 311.988004 191.795484 
Q 308.033083 208.034079 304.342726 223.186392 
" clip-path="url(#pda156c11e0)" style="fill: none; stroke: #000000; stroke-linecap: round"/>
    <path d="M 307.232459 219.773264 
L 304.342726 223.186392 
L 303.346063 218.826729 
z
" clip-path="url(#pda156c11e0)" style="stroke: #000000; stroke-linecap: round"/>
   </g>
   <g id="patch_28">
    <path d="M 311.331264 188.331932 
Q 302.669159 176.027212 294.650636 164.636715 
" clip-path="url(#pda156c11e0)" style="fill: none; stroke: #000000; stroke-linecap: round"/>
    <path d="M 295.317773 169.05881 
L 294.650636 164.636715 
L 298.588595 166.756263 
z
" clip-path="url(#pda156c11e0)" style="stroke: #000000; stroke-linecap: round"/>
   </g>
   <g id="patch_29">
    <path d="M 294.007576 163.723233 
Q 302.669681 176.027953 310.688204 187.41845 
" clip-path="url(#pda156c11e0)" style="fill: none; stroke: #000000; stroke-linecap: round"/>
    <path d="M 310.021067 182.996355 
L 310.688204 187.41845 
L 306.750245 185.298902 
z
" clip-path="url(#pda156c11e0)" style="stroke: #000000; stroke-linecap: round"/>
   </g>
   <g id="patch_30">
    <path d="M 291.295301 163.23689 
Q 275.556724 174.044216 260.739808 184.218659 
" clip-path="url(#pda156c11e0)" style="fill: none; stroke: #000000; stroke-linecap: round"/>
    <path d="M 265.169378 183.603102 
L 260.739808 184.218659 
L 262.905105 180.305669 
z
" clip-path="url(#pda156c11e0)" style="stroke: #000000; stroke-linecap: round"/>
   </g>
   <g id="patch_31">
    <path d="M 260.143334 186.17939 
Q 307.756114 191.953889 354.258993 197.593778 
" clip-path="url(#pda156c11e0)" style="fill: none; stroke: #000000; stroke-linecap: round"/>
    <path d="M 350.528887 195.126734 
L 354.258993 197.593778 
L 350.047294 199.097637 
z
" clip-path="url(#pda156c11e0)" style="stroke: #000000; stroke-linecap: round"/>
   </g>
   <g id="patch_32">
    <path d="M 259.82112 184.849502 
Q 275.559696 174.042176 290.376612 163.867733 
" clip-path="url(#pda156c11e0)" style="fill: none; stroke: #000000; stroke-linecap: round"/>
    <path d="M 285.947042 164.48329 
L 290.376612 163.867733 
L 288.211315 167.780723 
z
" clip-path="url(#pda156c11e0)" style="stroke: #000000; stroke-linecap: round"/>
   </g>
   <g id="patch_33">
    <path d="M 256.341213 186.399061 
Q 213.723604 196.644514 172.193057 206.628633 
" clip-path="url(#pda156c11e0)" style="fill: none; stroke: #000000; stroke-linecap: round"/>
    <path d="M 176.549738 207.638251 
L 172.193057 206.628633 
L 175.61476 203.749059 
z
" clip-path="url(#pda156c11e0)" style="stroke: #000000; stroke-linecap: round"/>
   </g>
   <g id="patch_34">
    <path d="M 171.103263 206.890624 
Q 213.720873 196.645171 255.25142 186.661052 
" clip-path="url(#pda156c11e0)" style="fill: none; stroke: #000000; stroke-linecap: round"/>
    <path d="M 250.894738 185.651435 
L 255.25142 186.661052 
L 251.829717 189.540627 
z
" clip-path="url(#pda156c11e0)" style="stroke: #000000; stroke-linecap: round"/>
   </g>
   <g id="patch_35">
    <path d="M 167.630392 208.443194 
Q 143.004227 225.474839 119.297601 241.870522 
" clip-path="url(#pda156c11e0)" style="fill: none; stroke: #000000; stroke-linecap: round"/>
    <path d="M 123.725089 241.240163 
L 119.297601 241.870522 
L 121.449806 237.950317 
z
" clip-path="url(#pda156c11e0)" style="stroke: #000000; stroke-linecap: round"/>
   </g>
   <g id="patch_36">
    <path d="M 115.012114 244.386772 
Q 82.753815 258.557073 51.519141 272.27772 
" clip-path="url(#pda156c11e0)" style="fill: none; stroke: #000000; stroke-linecap: round"/>
    <path d="M 55.985744 272.500105 
L 51.519141 272.27772 
L 54.377011 268.837868 
z
" clip-path="url(#pda156c11e0)" style="stroke: #000000; stroke-linecap: round"/>
   </g>
   <g id="patch_37">
    <path d="M 118.670199 244.06147 
Q 143.630572 250.075338 167.504015 255.827326 
" clip-path="url(#pda156c11e0)" style="fill: none; stroke: #000000; stroke-linecap: round"/>
    <path d="M 164.083762 252.94603 
L 167.504015 255.827326 
L 163.146826 256.834751 
z
" clip-path="url(#pda156c11e0)" style="stroke: #000000; stroke-linecap: round"/>
   </g>
   <g id="patch_38">
    <path d="M 118.670199 244.06147 
Q 143.630572 250.075338 167.504015 255.827326 
" clip-path="url(#pda156c11e0)" style="fill: none; stroke: #000000; stroke-linecap: round"/>
    <path d="M 164.083762 252.94603 
L 167.504015 255.827326 
L 163.146826 256.834751 
z
" clip-path="url(#pda156c11e0)" style="stroke: #000000; stroke-linecap: round"/>
   </g>
   <g id="patch_39">
    <path d="M 118.376658 242.507454 
Q 143.002824 225.475809 166.709449 209.080126 
" clip-path="url(#pda156c11e0)" style="fill: none; stroke: #000000; stroke-linecap: round"/>
    <path d="M 162.281962 209.710485 
L 166.709449 209.080126 
L 164.557244 213.000332 
z
" clip-path="url(#pda156c11e0)" style="stroke: #000000; stroke-linecap: round"/>
   </g>
   <g id="PathCollection_1">
    <defs>
     <path id="m75000ff807" d="M 0 1.936492 
C 0.513564 1.936492 1.006162 1.732451 1.369306 1.369306 
C 1.732451 1.006162 1.936492 0.513564 1.936492 0 
C 1.936492 -0.513564 1.732451 -1.006162 1.369306 -1.369306 
C 1.006162 -1.732451 0.513564 -1.936492 0 -1.936492 
C -0.513564 -1.936492 -1.006162 -1.732451 -1.369306 -1.369306 
C -1.732451 -1.006162 -1.936492 -0.513564 -1.936492 0 
C -1.936492 0.513564 -1.732451 1.006162 -1.369306 1.369306 
C -1.006162 1.732451 -0.513564 1.936492 0 1.936492 
z
" style="stroke: #1f78b4"/>
    </defs>
    <g clip-path="url(#pda156c11e0)">
     <use xlink:href="#m75000ff807" x="48.719234" y="273.507652" style="fill: #1f78b4; stroke: #1f78b4"/>
     <use xlink:href="#m75000ff807" x="154.029401" y="15.709091" style="fill: #1f78b4; stroke: #1f78b4"/>
     <use xlink:href="#m75000ff807" x="183.064319" y="302.766805" style="fill: #1f78b4; stroke: #1f78b4"/>
     <use xlink:href="#m75000ff807" x="108.01556" y="321.902763" style="fill: #1f78b4; stroke: #1f78b4"/>
     <use xlink:href="#m75000ff807" x="39.986777" y="307.406535" style="fill: #1f78b4; stroke: #1f78b4"/>
     <use xlink:href="#m75000ff807" x="170.472182" y="256.542466" style="fill: #1f78b4; stroke: #1f78b4"/>
     <use xlink:href="#m75000ff807" x="230.583976" y="264.057918" style="fill: #1f78b4; stroke: #1f78b4"/>
     <use xlink:href="#m75000ff807" x="420.813223" y="190.999189" style="fill: #1f78b4; stroke: #1f78b4"/>
     <use xlink:href="#m75000ff807" x="357.293032" y="197.961748" style="fill: #1f78b4; stroke: #1f78b4"/>
     <use xlink:href="#m75000ff807" x="303.619487" y="226.155956" style="fill: #1f78b4; stroke: #1f78b4"/>
     <use xlink:href="#m75000ff807" x="312.445918" y="189.915325" style="fill: #1f78b4; stroke: #1f78b4"/>
     <use xlink:href="#m75000ff807" x="292.892921" y="162.13984" style="fill: #1f78b4; stroke: #1f78b4"/>
     <use xlink:href="#m75000ff807" x="258.223499" y="185.946552" style="fill: #1f78b4; stroke: #1f78b4"/>
     <use xlink:href="#m75000ff807" x="169.220977" y="207.343134" style="fill: #1f78b4; stroke: #1f78b4"/>
     <use xlink:href="#m75000ff807" x="116.786073" y="243.607515" style="fill: #1f78b4; stroke: #1f78b4"/>
    </g>
   </g>
   <g id="text_1">
    <g clip-path="url(#pda156c11e0)">
     <!-- 0 -->
     <g transform="translate(45.537984 276.267027) scale(0.1 -0.1)">
      <defs>
       <path id="DejaVuSans-30" d="M 2034 4250 
Q 1547 4250 1301 3770 
Q 1056 3291 1056 2328 
Q 1056 1369 1301 889 
Q 1547 409 2034 409 
Q 2525 409 2770 889 
Q 3016 1369 3016 2328 
Q 3016 3291 2770 3770 
Q 2525 4250 2034 4250 
z
M 2034 4750 
Q 2819 4750 3233 4129 
Q 3647 3509 3647 2328 
Q 3647 1150 3233 529 
Q 2819 -91 2034 -91 
Q 1250 -91 836 529 
Q 422 1150 422 2328 
Q 422 3509 836 4129 
Q 1250 4750 2034 4750 
z
" transform="scale(0.015625)"/>
      </defs>
      <use xlink:href="#DejaVuSans-30"/>
     </g>
    </g>
   </g>
   <g id="text_2">
    <g clip-path="url(#pda156c11e0)">
     <!-- 1 -->
     <g transform="translate(150.848151 18.468466) scale(0.1 -0.1)">
      <defs>
       <path id="DejaVuSans-31" d="M 794 531 
L 1825 531 
L 1825 4091 
L 703 3866 
L 703 4441 
L 1819 4666 
L 2450 4666 
L 2450 531 
L 3481 531 
L 3481 0 
L 794 0 
L 794 531 
z
" transform="scale(0.015625)"/>
      </defs>
      <use xlink:href="#DejaVuSans-31"/>
     </g>
    </g>
   </g>
   <g id="text_3">
    <g clip-path="url(#pda156c11e0)">
     <!-- 2 -->
     <g transform="translate(179.883069 305.52618) scale(0.1 -0.1)">
      <defs>
       <path id="DejaVuSans-32" d="M 1228 531 
L 3431 531 
L 3431 0 
L 469 0 
L 469 531 
Q 828 903 1448 1529 
Q 2069 2156 2228 2338 
Q 2531 2678 2651 2914 
Q 2772 3150 2772 3378 
Q 2772 3750 2511 3984 
Q 2250 4219 1831 4219 
Q 1534 4219 1204 4116 
Q 875 4013 500 3803 
L 500 4441 
Q 881 4594 1212 4672 
Q 1544 4750 1819 4750 
Q 2544 4750 2975 4387 
Q 3406 4025 3406 3419 
Q 3406 3131 3298 2873 
Q 3191 2616 2906 2266 
Q 2828 2175 2409 1742 
Q 1991 1309 1228 531 
z
" transform="scale(0.015625)"/>
      </defs>
      <use xlink:href="#DejaVuSans-32"/>
     </g>
    </g>
   </g>
   <g id="text_4">
    <g clip-path="url(#pda156c11e0)">
     <!-- 3 -->
     <g transform="translate(104.83431 324.662138) scale(0.1 -0.1)">
      <defs>
       <path id="DejaVuSans-33" d="M 2597 2516 
Q 3050 2419 3304 2112 
Q 3559 1806 3559 1356 
Q 3559 666 3084 287 
Q 2609 -91 1734 -91 
Q 1441 -91 1130 -33 
Q 819 25 488 141 
L 488 750 
Q 750 597 1062 519 
Q 1375 441 1716 441 
Q 2309 441 2620 675 
Q 2931 909 2931 1356 
Q 2931 1769 2642 2001 
Q 2353 2234 1838 2234 
L 1294 2234 
L 1294 2753 
L 1863 2753 
Q 2328 2753 2575 2939 
Q 2822 3125 2822 3475 
Q 2822 3834 2567 4026 
Q 2313 4219 1838 4219 
Q 1578 4219 1281 4162 
Q 984 4106 628 3988 
L 628 4550 
Q 988 4650 1302 4700 
Q 1616 4750 1894 4750 
Q 2613 4750 3031 4423 
Q 3450 4097 3450 3541 
Q 3450 3153 3228 2886 
Q 3006 2619 2597 2516 
z
" transform="scale(0.015625)"/>
      </defs>
      <use xlink:href="#DejaVuSans-33"/>
     </g>
    </g>
   </g>
   <g id="text_5">
    <g clip-path="url(#pda156c11e0)">
     <!-- 4 -->
     <g transform="translate(36.805527 310.16591) scale(0.1 -0.1)">
      <defs>
       <path id="DejaVuSans-34" d="M 2419 4116 
L 825 1625 
L 2419 1625 
L 2419 4116 
z
M 2253 4666 
L 3047 4666 
L 3047 1625 
L 3713 1625 
L 3713 1100 
L 3047 1100 
L 3047 0 
L 2419 0 
L 2419 1100 
L 313 1100 
L 313 1709 
L 2253 4666 
z
" transform="scale(0.015625)"/>
      </defs>
      <use xlink:href="#DejaVuSans-34"/>
     </g>
    </g>
   </g>
   <g id="text_6">
    <g clip-path="url(#pda156c11e0)">
     <!-- 5 -->
     <g transform="translate(167.290932 259.301841) scale(0.1 -0.1)">
      <defs>
       <path id="DejaVuSans-35" d="M 691 4666 
L 3169 4666 
L 3169 4134 
L 1269 4134 
L 1269 2991 
Q 1406 3038 1543 3061 
Q 1681 3084 1819 3084 
Q 2600 3084 3056 2656 
Q 3513 2228 3513 1497 
Q 3513 744 3044 326 
Q 2575 -91 1722 -91 
Q 1428 -91 1123 -41 
Q 819 9 494 109 
L 494 744 
Q 775 591 1075 516 
Q 1375 441 1709 441 
Q 2250 441 2565 725 
Q 2881 1009 2881 1497 
Q 2881 1984 2565 2268 
Q 2250 2553 1709 2553 
Q 1456 2553 1204 2497 
Q 953 2441 691 2322 
L 691 4666 
z
" transform="scale(0.015625)"/>
      </defs>
      <use xlink:href="#DejaVuSans-35"/>
     </g>
    </g>
   </g>
   <g id="text_7">
    <g clip-path="url(#pda156c11e0)">
     <!-- 6 -->
     <g transform="translate(227.402726 266.817293) scale(0.1 -0.1)">
      <defs>
       <path id="DejaVuSans-36" d="M 2113 2584 
Q 1688 2584 1439 2293 
Q 1191 2003 1191 1497 
Q 1191 994 1439 701 
Q 1688 409 2113 409 
Q 2538 409 2786 701 
Q 3034 994 3034 1497 
Q 3034 2003 2786 2293 
Q 2538 2584 2113 2584 
z
M 3366 4563 
L 3366 3988 
Q 3128 4100 2886 4159 
Q 2644 4219 2406 4219 
Q 1781 4219 1451 3797 
Q 1122 3375 1075 2522 
Q 1259 2794 1537 2939 
Q 1816 3084 2150 3084 
Q 2853 3084 3261 2657 
Q 3669 2231 3669 1497 
Q 3669 778 3244 343 
Q 2819 -91 2113 -91 
Q 1303 -91 875 529 
Q 447 1150 447 2328 
Q 447 3434 972 4092 
Q 1497 4750 2381 4750 
Q 2619 4750 2861 4703 
Q 3103 4656 3366 4563 
z
" transform="scale(0.015625)"/>
      </defs>
      <use xlink:href="#DejaVuSans-36"/>
     </g>
    </g>
   </g>
   <g id="text_8">
    <g clip-path="url(#pda156c11e0)">
     <!-- 7 -->
     <g transform="translate(417.631973 193.758564) scale(0.1 -0.1)">
      <defs>
       <path id="DejaVuSans-37" d="M 525 4666 
L 3525 4666 
L 3525 4397 
L 1831 0 
L 1172 0 
L 2766 4134 
L 525 4134 
L 525 4666 
z
" transform="scale(0.015625)"/>
      </defs>
      <use xlink:href="#DejaVuSans-37"/>
     </g>
    </g>
   </g>
   <g id="text_9">
    <g clip-path="url(#pda156c11e0)">
     <!-- 8 -->
     <g transform="translate(354.111782 200.721123) scale(0.1 -0.1)">
      <defs>
       <path id="DejaVuSans-38" d="M 2034 2216 
Q 1584 2216 1326 1975 
Q 1069 1734 1069 1313 
Q 1069 891 1326 650 
Q 1584 409 2034 409 
Q 2484 409 2743 651 
Q 3003 894 3003 1313 
Q 3003 1734 2745 1975 
Q 2488 2216 2034 2216 
z
M 1403 2484 
Q 997 2584 770 2862 
Q 544 3141 544 3541 
Q 544 4100 942 4425 
Q 1341 4750 2034 4750 
Q 2731 4750 3128 4425 
Q 3525 4100 3525 3541 
Q 3525 3141 3298 2862 
Q 3072 2584 2669 2484 
Q 3125 2378 3379 2068 
Q 3634 1759 3634 1313 
Q 3634 634 3220 271 
Q 2806 -91 2034 -91 
Q 1263 -91 848 271 
Q 434 634 434 1313 
Q 434 1759 690 2068 
Q 947 2378 1403 2484 
z
M 1172 3481 
Q 1172 3119 1398 2916 
Q 1625 2713 2034 2713 
Q 2441 2713 2670 2916 
Q 2900 3119 2900 3481 
Q 2900 3844 2670 4047 
Q 2441 4250 2034 4250 
Q 1625 4250 1398 4047 
Q 1172 3844 1172 3481 
z
" transform="scale(0.015625)"/>
      </defs>
      <use xlink:href="#DejaVuSans-38"/>
     </g>
    </g>
   </g>
   <g id="text_10">
    <g clip-path="url(#pda156c11e0)">
     <!-- 9 -->
     <g transform="translate(300.438237 228.915331) scale(0.1 -0.1)">
      <defs>
       <path id="DejaVuSans-39" d="M 703 97 
L 703 672 
Q 941 559 1184 500 
Q 1428 441 1663 441 
Q 2288 441 2617 861 
Q 2947 1281 2994 2138 
Q 2813 1869 2534 1725 
Q 2256 1581 1919 1581 
Q 1219 1581 811 2004 
Q 403 2428 403 3163 
Q 403 3881 828 4315 
Q 1253 4750 1959 4750 
Q 2769 4750 3195 4129 
Q 3622 3509 3622 2328 
Q 3622 1225 3098 567 
Q 2575 -91 1691 -91 
Q 1453 -91 1209 -44 
Q 966 3 703 97 
z
M 1959 2075 
Q 2384 2075 2632 2365 
Q 2881 2656 2881 3163 
Q 2881 3666 2632 3958 
Q 2384 4250 1959 4250 
Q 1534 4250 1286 3958 
Q 1038 3666 1038 3163 
Q 1038 2656 1286 2365 
Q 1534 2075 1959 2075 
z
" transform="scale(0.015625)"/>
      </defs>
      <use xlink:href="#DejaVuSans-39"/>
     </g>
    </g>
   </g>
   <g id="text_11">
    <g clip-path="url(#pda156c11e0)">
     <!-- 10 -->
     <g transform="translate(306.083418 192.6747) scale(0.1 -0.1)">
      <use xlink:href="#DejaVuSans-31"/>
      <use xlink:href="#DejaVuSans-30" x="63.623047"/>
     </g>
    </g>
   </g>
   <g id="text_12">
    <g clip-path="url(#pda156c11e0)">
     <!-- 11 -->
     <g transform="translate(286.530421 164.899215) scale(0.1 -0.1)">
      <use xlink:href="#DejaVuSans-31"/>
      <use xlink:href="#DejaVuSans-31" x="63.623047"/>
     </g>
    </g>
   </g>
   <g id="text_13">
    <g clip-path="url(#pda156c11e0)">
     <!-- 12 -->
     <g transform="translate(251.860999 188.705927) scale(0.1 -0.1)">
      <use xlink:href="#DejaVuSans-31"/>
      <use xlink:href="#DejaVuSans-32" x="63.623047"/>
     </g>
    </g>
   </g>
   <g id="text_14">
    <g clip-path="url(#pda156c11e0)">
     <!-- 13 -->
     <g transform="translate(162.858477 210.102509) scale(0.1 -0.1)">
      <use xlink:href="#DejaVuSans-31"/>
      <use xlink:href="#DejaVuSans-33" x="63.623047"/>
     </g>
    </g>
   </g>
   <g id="text_15">
    <g clip-path="url(#pda156c11e0)">
     <!-- 14 -->
     <g transform="translate(110.423573 246.36689) scale(0.1 -0.1)">
      <use xlink:href="#DejaVuSans-31"/>
      <use xlink:href="#DejaVuSans-34" x="63.623047"/>
     </g>
    </g>
   </g>
  </g>
 </g>
 <defs>
  <clipPath id="pda156c11e0">
   <rect x="0" y="0" width="460.8" height="345.6"/>
  </clipPath>
 </defs>
</svg>
