<?xml version="1.0" encoding="utf-8" standalone="no"?>
<!DOCTYPE svg PUBLIC "-//W3C//DTD SVG 1.1//EN"
  "http://www.w3.org/Graphics/SVG/1.1/DTD/svg11.dtd">
<svg xmlns:xlink="http://www.w3.org/1999/xlink" width="460.8pt" height="345.6pt" viewBox="0 0 460.8 345.6" xmlns="http://www.w3.org/2000/svg" version="1.1">
 <metadata>
  <rdf:RDF xmlns:dc="http://purl.org/dc/elements/1.1/" xmlns:cc="http://creativecommons.org/ns#" xmlns:rdf="http://www.w3.org/1999/02/22-rdf-syntax-ns#">
   <cc:Work>
    <dc:type rdf:resource="http://purl.org/dc/dcmitype/StillImage"/>
    <dc:date>2024-02-28T11:17:24.061739</dc:date>
    <dc:format>image/svg+xml</dc:format>
    <dc:creator>
     <cc:Agent>
      <dc:title>Matplotlib v3.8.0, https://matplotlib.org/</dc:title>
     </cc:Agent>
    </dc:creator>
   </cc:Work>
  </rdf:RDF>
 </metadata>
 <defs>
  <style type="text/css">*{stroke-linejoin: round; stroke-linecap: butt}</style>
 </defs>
 <g id="figure_1">
  <g id="patch_1">
   <path d="M 0 345.6 
L 460.8 345.6 
L 460.8 0 
L 0 0 
z
" style="fill: #ffffff"/>
  </g>
  <g id="axes_1">
   <g id="patch_2">
    <path d="M 235.614617 46.947118 
Q 257.476597 79.904888 278.720556 111.930967 
" clip-path="url(#pfcfa13aa7d)" style="fill: none; stroke: #000000; stroke-linecap: round"/>
    <path d="M 278.176114 107.492095 
L 278.720556 111.930967 
L 274.842793 109.703197 
z
" clip-path="url(#pfcfa13aa7d)" style="stroke: #000000; stroke-linecap: round"/>
   </g>
   <g id="patch_3">
    <path d="M 156.001956 173.353674 
Q 98.944991 162.346164 42.985818 151.550441 
" clip-path="url(#pfcfa13aa7d)" style="fill: none; stroke: #000000; stroke-linecap: round"/>
    <path d="M 46.534539 154.271944 
L 42.985818 151.550441 
L 47.292253 150.344366 
z
" clip-path="url(#pfcfa13aa7d)" style="stroke: #000000; stroke-linecap: round"/>
   </g>
   <g id="patch_4">
    <path d="M 159.651475 172.876563 
Q 219.157967 144.096883 277.657958 115.803985 
" clip-path="url(#pfcfa13aa7d)" style="fill: none; stroke: #000000; stroke-linecap: round"/>
    <path d="M 273.18621 115.745071 
L 277.657958 115.803985 
L 274.927778 119.346035 
z
" clip-path="url(#pfcfa13aa7d)" style="stroke: #000000; stroke-linecap: round"/>
   </g>
   <g id="patch_5">
    <path d="M 155.983409 173.932796 
Q 104.438306 179.614085 54.004506 185.172887 
" clip-path="url(#pfcfa13aa7d)" style="fill: none; stroke: #000000; stroke-linecap: round"/>
    <path d="M 58.199541 186.722623 
L 54.004506 185.172887 
L 57.761316 182.7467 
z
" clip-path="url(#pfcfa13aa7d)" style="stroke: #000000; stroke-linecap: round"/>
   </g>
   <g id="patch_6">
    <path d="M 156.160138 174.554125 
Q 108.169773 197.462077 61.188384 219.8884 
" clip-path="url(#pfcfa13aa7d)" style="fill: none; stroke: #000000; stroke-linecap: round"/>
    <path d="M 65.659772 219.970181 
L 61.188384 219.8884 
L 63.936642 216.360358 
z
" clip-path="url(#pfcfa13aa7d)" style="stroke: #000000; stroke-linecap: round"/>
   </g>
   <g id="patch_7">
    <path d="M 156.250823 172.717393 
Q 113.53284 146.81131 71.770834 121.484975 
" clip-path="url(#pfcfa13aa7d)" style="fill: none; stroke: #000000; stroke-linecap: round"/>
    <path d="M 74.15396 125.269246 
L 71.770834 121.484975 
L 76.228127 121.849037 
z
" clip-path="url(#pfcfa13aa7d)" style="stroke: #000000; stroke-linecap: round"/>
   </g>
   <g id="patch_8">
    <path d="M 159.718079 174.393203 
Q 233.463715 201.746622 306.161102 228.711228 
" clip-path="url(#pfcfa13aa7d)" style="fill: none; stroke: #000000; stroke-linecap: round"/>
    <path d="M 303.106301 225.445008 
L 306.161102 228.711228 
L 301.715245 229.195337 
z
" clip-path="url(#pfcfa13aa7d)" style="stroke: #000000; stroke-linecap: round"/>
   </g>
   <g id="patch_9">
    <path d="M 156.941466 172.03645 
Q 138.306672 139.479245 120.227267 107.89237 
" clip-path="url(#pfcfa13aa7d)" style="fill: none; stroke: #000000; stroke-linecap: round"/>
    <path d="M 120.478507 112.357443 
L 120.227267 107.89237 
L 123.950069 110.370422 
z
" clip-path="url(#pfcfa13aa7d)" style="stroke: #000000; stroke-linecap: round"/>
   </g>
   <g id="patch_10">
    <path d="M 156.705877 175.242884 
Q 131.161411 207.647909 106.309086 239.174902 
" clip-path="url(#pfcfa13aa7d)" style="fill: none; stroke: #000000; stroke-linecap: round"/>
    <path d="M 110.356038 237.271699 
L 106.309086 239.174902 
L 107.214695 234.795418 
z
" clip-path="url(#pfcfa13aa7d)" style="stroke: #000000; stroke-linecap: round"/>
   </g>
   <g id="patch_11">
    <path d="M 159.838156 173.893973 
Q 221.361337 179.402828 281.77094 184.811972 
" clip-path="url(#pfcfa13aa7d)" style="fill: none; stroke: #000000; stroke-linecap: round"/>
    <path d="M 277.965248 182.463205 
L 281.77094 184.811972 
L 277.608511 186.447265 
z
" clip-path="url(#pfcfa13aa7d)" style="stroke: #000000; stroke-linecap: round"/>
   </g>
   <g id="patch_12">
    <path d="M 293.656506 313.705546 
Q 301.167697 272.691519 308.477485 232.777236 
" clip-path="url(#pfcfa13aa7d)" style="fill: none; stroke: #000000; stroke-linecap: round"/>
    <path d="M 305.789639 236.351517 
L 308.477485 232.777236 
L 309.724202 237.072081 
z
" clip-path="url(#pfcfa13aa7d)" style="stroke: #000000; stroke-linecap: round"/>
   </g>
   <g id="patch_13">
    <path d="M 41.890435 151.339118 
Q 98.947399 162.346628 154.906572 173.142351 
" clip-path="url(#pfcfa13aa7d)" style="fill: none; stroke: #000000; stroke-linecap: round"/>
    <path d="M 151.357851 170.420849 
L 154.906572 173.142351 
L 150.600137 174.348427 
z
" clip-path="url(#pfcfa13aa7d)" style="stroke: #000000; stroke-linecap: round"/>
   </g>
   <g id="patch_14">
    <path d="M 286.309133 31.921192 
Q 283.427411 72.231525 280.625411 111.426671 
" clip-path="url(#pfcfa13aa7d)" style="fill: none; stroke: #000000; stroke-linecap: round"/>
    <path d="M 282.905546 107.579466 
L 280.625411 111.426671 
L 278.915728 107.29424 
z
" clip-path="url(#pfcfa13aa7d)" style="stroke: #000000; stroke-linecap: round"/>
   </g>
   <g id="patch_15">
    <path d="M 279.336819 112.860007 
Q 257.474838 79.902237 236.23088 47.876158 
" clip-path="url(#pfcfa13aa7d)" style="fill: none; stroke: #000000; stroke-linecap: round"/>
    <path d="M 236.775321 52.31503 
L 236.23088 47.876158 
L 240.108642 50.103928 
z
" clip-path="url(#pfcfa13aa7d)" style="stroke: #000000; stroke-linecap: round"/>
   </g>
   <g id="patch_16">
    <path d="M 278.661688 115.318542 
Q 219.155196 144.098223 160.655205 172.39112 
" clip-path="url(#pfcfa13aa7d)" style="fill: none; stroke: #000000; stroke-linecap: round"/>
    <path d="M 165.126953 172.450034 
L 160.655205 172.39112 
L 163.385385 168.84907 
z
" clip-path="url(#pfcfa13aa7d)" style="stroke: #000000; stroke-linecap: round"/>
   </g>
   <g id="patch_17">
    <path d="M 280.545602 112.543066 
Q 283.427324 72.232732 286.229324 33.037587 
" clip-path="url(#pfcfa13aa7d)" style="fill: none; stroke: #000000; stroke-linecap: round"/>
    <path d="M 283.949189 36.884792 
L 286.229324 33.037587 
L 287.939007 37.170018 
z
" clip-path="url(#pfcfa13aa7d)" style="stroke: #000000; stroke-linecap: round"/>
   </g>
   <g id="patch_18">
    <path d="M 281.608509 112.956963 
Q 309.131205 78.18663 335.959994 44.292933 
" clip-path="url(#pfcfa13aa7d)" style="fill: none; stroke: #000000; stroke-linecap: round"/>
    <path d="M 331.909218 46.187983 
L 335.959994 44.292933 
L 335.045569 48.670583 
z
" clip-path="url(#pfcfa13aa7d)" style="stroke: #000000; stroke-linecap: round"/>
   </g>
   <g id="patch_19">
    <path d="M 280.874823 116.35667 
Q 294.717861 172.125805 308.291554 226.809835 
" clip-path="url(#pfcfa13aa7d)" style="fill: none; stroke: #000000; stroke-linecap: round"/>
    <path d="M 309.26901 222.445825 
L 308.291554 226.809835 
L 305.38682 223.409464 
z
" clip-path="url(#pfcfa13aa7d)" style="stroke: #000000; stroke-linecap: round"/>
   </g>
   <g id="patch_20">
    <path d="M 282.172651 113.677414 
Q 328.525282 92.753994 373.858886 72.290558 
" clip-path="url(#pfcfa13aa7d)" style="fill: none; stroke: #000000; stroke-linecap: round"/>
    <path d="M 369.390262 72.113361 
L 373.858886 72.290558 
L 371.035954 75.759139 
z
" clip-path="url(#pfcfa13aa7d)" style="stroke: #000000; stroke-linecap: round"/>
   </g>
   <g id="patch_21">
    <path d="M 280.528212 116.409226 
Q 282.609117 149.780522 284.620441 182.035952 
" clip-path="url(#pfcfa13aa7d)" style="fill: none; stroke: #000000; stroke-linecap: round"/>
    <path d="M 286.367623 177.919236 
L 284.620441 182.035952 
L 282.375377 178.168177 
z
" clip-path="url(#pfcfa13aa7d)" style="stroke: #000000; stroke-linecap: round"/>
   </g>
   <g id="patch_22">
    <path d="M 52.889295 185.295805 
Q 104.434399 179.614516 154.868198 174.055714 
" clip-path="url(#pfcfa13aa7d)" style="fill: none; stroke: #000000; stroke-linecap: round"/>
    <path d="M 150.673163 172.505978 
L 154.868198 174.055714 
L 151.111389 176.4819 
z
" clip-path="url(#pfcfa13aa7d)" style="stroke: #000000; stroke-linecap: round"/>
   </g>
   <g id="patch_23">
    <path d="M 60.180214 220.369645 
Q 108.170578 197.461693 155.151967 175.03537 
" clip-path="url(#pfcfa13aa7d)" style="fill: none; stroke: #000000; stroke-linecap: round"/>
    <path d="M 150.680579 174.953589 
L 155.151967 175.03537 
L 152.403709 178.563412 
z
" clip-path="url(#pfcfa13aa7d)" style="stroke: #000000; stroke-linecap: round"/>
   </g>
   <g id="patch_24">
    <path d="M 336.656261 43.413315 
Q 309.133565 78.183649 282.304776 112.077346 
" clip-path="url(#pfcfa13aa7d)" style="fill: none; stroke: #000000; stroke-linecap: round"/>
    <path d="M 286.355552 110.182295 
L 282.304776 112.077346 
L 283.219201 107.699695 
z
" clip-path="url(#pfcfa13aa7d)" style="stroke: #000000; stroke-linecap: round"/>
   </g>
   <g id="patch_25">
    <path d="M 351.773733 308.280862 
Q 330.863026 269.876947 310.486964 232.454945 
" clip-path="url(#pfcfa13aa7d)" style="fill: none; stroke: #000000; stroke-linecap: round"/>
    <path d="M 310.643272 236.924348 
L 310.486964 232.454945 
L 314.156272 235.011541 
z
" clip-path="url(#pfcfa13aa7d)" style="stroke: #000000; stroke-linecap: round"/>
   </g>
   <g id="patch_26">
    <path d="M 70.813818 120.904598 
Q 113.531802 146.81068 155.293807 172.137016 
" clip-path="url(#pfcfa13aa7d)" style="fill: none; stroke: #000000; stroke-linecap: round"/>
    <path d="M 152.910682 168.352744 
L 155.293807 172.137016 
L 150.836515 171.772953 
z
" clip-path="url(#pfcfa13aa7d)" style="stroke: #000000; stroke-linecap: round"/>
   </g>
   <g id="patch_27">
    <path d="M 223.839986 223.574227 
Q 253.504694 204.847193 282.223993 186.716985 
" clip-path="url(#pfcfa13aa7d)" style="fill: none; stroke: #000000; stroke-linecap: round"/>
    <path d="M 277.773959 187.16106 
L 282.223993 186.716985 
L 279.909233 190.543457 
z
" clip-path="url(#pfcfa13aa7d)" style="stroke: #000000; stroke-linecap: round"/>
   </g>
   <g id="patch_28">
    <path d="M 307.214952 229.102118 
Q 233.469316 201.748699 160.771929 174.784093 
" clip-path="url(#pfcfa13aa7d)" style="fill: none; stroke: #000000; stroke-linecap: round"/>
    <path d="M 163.82673 178.050313 
L 160.771929 174.784093 
L 165.217786 174.299984 
z
" clip-path="url(#pfcfa13aa7d)" style="stroke: #000000; stroke-linecap: round"/>
   </g>
   <g id="patch_29">
    <path d="M 308.678656 231.678761 
Q 301.167465 272.692788 293.857677 312.607071 
" clip-path="url(#pfcfa13aa7d)" style="fill: none; stroke: #000000; stroke-linecap: round"/>
    <path d="M 296.545523 309.032791 
L 293.857677 312.607071 
L 292.61096 308.312226 
z
" clip-path="url(#pfcfa13aa7d)" style="stroke: #000000; stroke-linecap: round"/>
   </g>
   <g id="patch_30">
    <path d="M 308.560144 227.891895 
Q 294.717106 172.12276 281.143413 117.43873 
" clip-path="url(#pfcfa13aa7d)" style="fill: none; stroke: #000000; stroke-linecap: round"/>
    <path d="M 280.165956 121.80274 
L 281.143413 117.43873 
L 284.048147 120.839101 
z
" clip-path="url(#pfcfa13aa7d)" style="stroke: #000000; stroke-linecap: round"/>
   </g>
   <g id="patch_31">
    <path d="M 309.953701 231.475572 
Q 330.864409 269.879487 351.24047 307.301489 
" clip-path="url(#pfcfa13aa7d)" style="fill: none; stroke: #000000; stroke-linecap: round"/>
    <path d="M 351.084162 302.832085 
L 351.24047 307.301489 
L 347.571163 304.744893 
z
" clip-path="url(#pfcfa13aa7d)" style="stroke: #000000; stroke-linecap: round"/>
   </g>
   <g id="patch_32">
    <path d="M 310.659048 230.816621 
Q 353.067298 257.905579 394.533332 284.392681 
" clip-path="url(#pfcfa13aa7d)" style="fill: none; stroke: #000000; stroke-linecap: round"/>
    <path d="M 392.238991 280.553931 
L 394.533332 284.392681 
L 390.085727 283.924904 
z
" clip-path="url(#pfcfa13aa7d)" style="stroke: #000000; stroke-linecap: round"/>
   </g>
   <g id="patch_33">
    <path d="M 308.103616 228.069592 
Q 296.918406 207.428232 286.265862 187.76986 
" clip-path="url(#pfcfa13aa7d)" style="fill: none; stroke: #000000; stroke-linecap: round"/>
    <path d="M 286.41316 192.23957 
L 286.265862 187.76986 
L 289.930008 190.333848 
z
" clip-path="url(#pfcfa13aa7d)" style="stroke: #000000; stroke-linecap: round"/>
   </g>
   <g id="patch_34">
    <path d="M 310.934408 230.095867 
Q 364.91982 239.196636 417.802754 248.11155 
" clip-path="url(#pfcfa13aa7d)" style="fill: none; stroke: #000000; stroke-linecap: round"/>
    <path d="M 414.190873 245.474446 
L 417.802754 248.11155 
L 413.525942 249.418792 
z
" clip-path="url(#pfcfa13aa7d)" style="stroke: #000000; stroke-linecap: round"/>
   </g>
   <g id="patch_35">
    <path d="M 395.476981 284.995453 
Q 353.068732 257.906495 311.602698 231.419392 
" clip-path="url(#pfcfa13aa7d)" style="fill: none; stroke: #000000; stroke-linecap: round"/>
    <path d="M 313.897039 235.258142 
L 311.602698 231.419392 
L 316.050302 231.88717 
z
" clip-path="url(#pfcfa13aa7d)" style="stroke: #000000; stroke-linecap: round"/>
   </g>
   <g id="patch_36">
    <path d="M 374.880135 71.82957 
Q 328.527505 92.75299 283.1939 113.216426 
" clip-path="url(#pfcfa13aa7d)" style="fill: none; stroke: #000000; stroke-linecap: round"/>
    <path d="M 287.662524 113.393623 
L 283.1939 113.216426 
L 286.016832 109.747845 
z
" clip-path="url(#pfcfa13aa7d)" style="stroke: #000000; stroke-linecap: round"/>
   </g>
   <g id="patch_37">
    <path d="M 119.672257 106.922702 
Q 138.307051 139.479908 156.386456 171.066782 
" clip-path="url(#pfcfa13aa7d)" style="fill: none; stroke: #000000; stroke-linecap: round"/>
    <path d="M 156.135216 166.601709 
L 156.386456 171.066782 
L 152.663654 168.58873 
z
" clip-path="url(#pfcfa13aa7d)" style="stroke: #000000; stroke-linecap: round"/>
   </g>
   <g id="patch_38">
    <path d="M 105.618325 240.051183 
Q 131.162791 207.646159 156.015115 176.119166 
" clip-path="url(#pfcfa13aa7d)" style="fill: none; stroke: #000000; stroke-linecap: round"/>
    <path d="M 151.968163 178.022369 
L 156.015115 176.119166 
L 155.109506 180.498649 
z
" clip-path="url(#pfcfa13aa7d)" style="stroke: #000000; stroke-linecap: round"/>
   </g>
   <g id="patch_39">
    <path d="M 373.071727 149.195109 
Q 329.836716 166.775455 287.637391 183.934667 
" clip-path="url(#pfcfa13aa7d)" style="fill: none; stroke: #000000; stroke-linecap: round"/>
    <path d="M 292.096122 184.280665 
L 287.637391 183.934667 
L 290.589428 180.575281 
z
" clip-path="url(#pfcfa13aa7d)" style="stroke: #000000; stroke-linecap: round"/>
   </g>
   <g id="patch_40">
    <path d="M 282.877972 184.911097 
Q 221.354791 179.402242 160.945188 173.993098 
" clip-path="url(#pfcfa13aa7d)" style="fill: none; stroke: #000000; stroke-linecap: round"/>
    <path d="M 164.75088 176.341865 
L 160.945188 173.993098 
L 165.107618 172.357805 
z
" clip-path="url(#pfcfa13aa7d)" style="stroke: #000000; stroke-linecap: round"/>
   </g>
   <g id="patch_41">
    <path d="M 284.689852 183.149088 
Q 282.608947 149.777792 280.597623 117.522362 
" clip-path="url(#pfcfa13aa7d)" style="fill: none; stroke: #000000; stroke-linecap: round"/>
    <path d="M 278.850441 121.639078 
L 280.597623 117.522362 
L 282.842687 121.390137 
z
" clip-path="url(#pfcfa13aa7d)" style="stroke: #000000; stroke-linecap: round"/>
   </g>
   <g id="patch_42">
    <path d="M 283.171132 186.119066 
Q 253.506424 204.8461 224.787125 222.976308 
" clip-path="url(#pfcfa13aa7d)" style="fill: none; stroke: #000000; stroke-linecap: round"/>
    <path d="M 229.237158 222.532233 
L 224.787125 222.976308 
L 227.101885 219.149836 
z
" clip-path="url(#pfcfa13aa7d)" style="stroke: #000000; stroke-linecap: round"/>
   </g>
   <g id="patch_43">
    <path d="M 285.734316 186.788937 
Q 296.919526 207.430298 307.57207 227.088669 
" clip-path="url(#pfcfa13aa7d)" style="fill: none; stroke: #000000; stroke-linecap: round"/>
    <path d="M 307.424773 222.61896 
L 307.57207 227.088669 
L 303.907924 224.524681 
z
" clip-path="url(#pfcfa13aa7d)" style="stroke: #000000; stroke-linecap: round"/>
   </g>
   <g id="patch_44">
    <path d="M 286.605146 184.354401 
Q 329.840157 166.774056 372.039482 149.614844 
" clip-path="url(#pfcfa13aa7d)" style="fill: none; stroke: #000000; stroke-linecap: round"/>
    <path d="M 367.580751 149.268846 
L 372.039482 149.614844 
L 369.087445 152.97423 
z
" clip-path="url(#pfcfa13aa7d)" style="stroke: #000000; stroke-linecap: round"/>
   </g>
   <g id="patch_45">
    <path d="M 284.295833 186.951287 
Q 274.796151 221.413961 265.593575 254.798801 
" clip-path="url(#pfcfa13aa7d)" style="fill: none; stroke: #000000; stroke-linecap: round"/>
    <path d="M 268.584625 251.474103 
L 265.593575 254.798801 
L 264.728446 250.411142 
z
" clip-path="url(#pfcfa13aa7d)" style="stroke: #000000; stroke-linecap: round"/>
   </g>
   <g id="patch_46">
    <path d="M 286.747118 185.127899 
Q 338.318436 186.293202 388.772005 187.433249 
" clip-path="url(#pfcfa13aa7d)" style="fill: none; stroke: #000000; stroke-linecap: round"/>
    <path d="M 384.818206 185.343398 
L 388.772005 187.433249 
L 384.727845 189.342378 
z
" clip-path="url(#pfcfa13aa7d)" style="stroke: #000000; stroke-linecap: round"/>
   </g>
   <g id="patch_47">
    <path d="M 265.2954 255.880511 
Q 274.795083 221.417836 283.997658 188.032996 
" clip-path="url(#pfcfa13aa7d)" style="fill: none; stroke: #000000; stroke-linecap: round"/>
    <path d="M 281.006608 191.357695 
L 283.997658 188.032996 
L 284.862787 192.420656 
z
" clip-path="url(#pfcfa13aa7d)" style="stroke: #000000; stroke-linecap: round"/>
   </g>
   <g id="patch_48">
    <path d="M 389.886774 187.458438 
Q 338.315456 186.293135 287.861887 185.153088 
" clip-path="url(#pfcfa13aa7d)" style="fill: none; stroke: #000000; stroke-linecap: round"/>
    <path d="M 291.815686 187.242938 
L 287.861887 185.153088 
L 291.906047 183.243959 
z
" clip-path="url(#pfcfa13aa7d)" style="stroke: #000000; stroke-linecap: round"/>
   </g>
   <g id="patch_49">
    <path d="M 418.906233 248.297573 
Q 364.92082 239.196804 312.037887 230.28189 
" clip-path="url(#pfcfa13aa7d)" style="fill: none; stroke: #000000; stroke-linecap: round"/>
    <path d="M 315.649767 232.918994 
L 312.037887 230.28189 
L 316.314698 228.974648 
z
" clip-path="url(#pfcfa13aa7d)" style="stroke: #000000; stroke-linecap: round"/>
   </g>
   <g id="PathCollection_1">
    <defs>
     <path id="m3f152fe8bc" d="M 0 1.936492 
C 0.513564 1.936492 1.006162 1.732451 1.369306 1.369306 
C 1.732451 1.006162 1.936492 0.513564 1.936492 0 
C 1.936492 -0.513564 1.732451 -1.006162 1.369306 -1.369306 
C 1.006162 -1.732451 0.513564 -1.936492 0 -1.936492 
C -0.513564 -1.936492 -1.006162 -1.732451 -1.369306 -1.369306 
C -1.732451 -1.006162 -1.936492 -0.513564 -1.936492 0 
C -1.936492 0.513564 -1.732451 1.006162 -1.369306 1.369306 
C -1.006162 1.732451 -0.513564 1.936492 0 1.936492 
z
" style="stroke: #1f78b4"/>
    </defs>
    <g clip-path="url(#pfcfa13aa7d)">
     <use xlink:href="#m3f152fe8bc" x="234.543886" y="45.33295" style="fill: #1f78b4; stroke: #1f78b4"/>
     <use xlink:href="#m3f152fe8bc" x="157.905613" y="173.720931" style="fill: #1f78b4; stroke: #1f78b4"/>
     <use xlink:href="#m3f152fe8bc" x="293.307744" y="315.609917" style="fill: #1f78b4; stroke: #1f78b4"/>
     <use xlink:href="#m3f152fe8bc" x="39.986777" y="150.971862" style="fill: #1f78b4; stroke: #1f78b4"/>
     <use xlink:href="#m3f152fe8bc" x="286.447185" y="29.990083" style="fill: #1f78b4; stroke: #1f78b4"/>
     <use xlink:href="#m3f152fe8bc" x="280.40755" y="114.474175" style="fill: #1f78b4; stroke: #1f78b4"/>
     <use xlink:href="#m3f152fe8bc" x="50.967091" y="185.50767" style="fill: #1f78b4; stroke: #1f78b4"/>
     <use xlink:href="#m3f152fe8bc" x="58.434738" y="221.202839" style="fill: #1f78b4; stroke: #1f78b4"/>
     <use xlink:href="#m3f152fe8bc" x="337.85722" y="41.896103" style="fill: #1f78b4; stroke: #1f78b4"/>
     <use xlink:href="#m3f152fe8bc" x="352.700017" y="309.982044" style="fill: #1f78b4; stroke: #1f78b4"/>
     <use xlink:href="#m3f152fe8bc" x="69.159028" y="119.901059" style="fill: #1f78b4; stroke: #1f78b4"/>
     <use xlink:href="#m3f152fe8bc" x="222.200603" y="224.609154" style="fill: #1f78b4; stroke: #1f78b4"/>
     <use xlink:href="#m3f152fe8bc" x="309.027417" y="229.77439" style="fill: #1f78b4; stroke: #1f78b4"/>
     <use xlink:href="#m3f152fe8bc" x="397.108612" y="286.037683" style="fill: #1f78b4; stroke: #1f78b4"/>
     <use xlink:href="#m3f152fe8bc" x="376.645237" y="71.032809" style="fill: #1f78b4; stroke: #1f78b4"/>
     <use xlink:href="#m3f152fe8bc" x="118.708109" y="105.238221" style="fill: #1f78b4; stroke: #1f78b4"/>
     <use xlink:href="#m3f152fe8bc" x="104.418588" y="241.573137" style="fill: #1f78b4; stroke: #1f78b4"/>
     <use xlink:href="#m3f152fe8bc" x="374.866358" y="148.465371" style="fill: #1f78b4; stroke: #1f78b4"/>
     <use xlink:href="#m3f152fe8bc" x="284.810515" y="185.084139" style="fill: #1f78b4; stroke: #1f78b4"/>
     <use xlink:href="#m3f152fe8bc" x="264.780719" y="257.747658" style="fill: #1f78b4; stroke: #1f78b4"/>
     <use xlink:href="#m3f152fe8bc" x="391.823377" y="187.502197" style="fill: #1f78b4; stroke: #1f78b4"/>
     <use xlink:href="#m3f152fe8bc" x="420.813223" y="248.61905" style="fill: #1f78b4; stroke: #1f78b4"/>
    </g>
   </g>
   <g id="text_1">
    <g clip-path="url(#pfcfa13aa7d)">
     <!-- 0 -->
     <g transform="translate(231.362636 48.092325) scale(0.1 -0.1)">
      <defs>
       <path id="DejaVuSans-30" d="M 2034 4250 
Q 1547 4250 1301 3770 
Q 1056 3291 1056 2328 
Q 1056 1369 1301 889 
Q 1547 409 2034 409 
Q 2525 409 2770 889 
Q 3016 1369 3016 2328 
Q 3016 3291 2770 3770 
Q 2525 4250 2034 4250 
z
M 2034 4750 
Q 2819 4750 3233 4129 
Q 3647 3509 3647 2328 
Q 3647 1150 3233 529 
Q 2819 -91 2034 -91 
Q 1250 -91 836 529 
Q 422 1150 422 2328 
Q 422 3509 836 4129 
Q 1250 4750 2034 4750 
z
" transform="scale(0.015625)"/>
      </defs>
      <use xlink:href="#DejaVuSans-30"/>
     </g>
    </g>
   </g>
   <g id="text_2">
    <g clip-path="url(#pfcfa13aa7d)">
     <!-- 1 -->
     <g transform="translate(154.724363 176.480306) scale(0.1 -0.1)">
      <defs>
       <path id="DejaVuSans-31" d="M 794 531 
L 1825 531 
L 1825 4091 
L 703 3866 
L 703 4441 
L 1819 4666 
L 2450 4666 
L 2450 531 
L 3481 531 
L 3481 0 
L 794 0 
L 794 531 
z
" transform="scale(0.015625)"/>
      </defs>
      <use xlink:href="#DejaVuSans-31"/>
     </g>
    </g>
   </g>
   <g id="text_3">
    <g clip-path="url(#pfcfa13aa7d)">
     <!-- 2 -->
     <g transform="translate(290.126494 318.369292) scale(0.1 -0.1)">
      <defs>
       <path id="DejaVuSans-32" d="M 1228 531 
L 3431 531 
L 3431 0 
L 469 0 
L 469 531 
Q 828 903 1448 1529 
Q 2069 2156 2228 2338 
Q 2531 2678 2651 2914 
Q 2772 3150 2772 3378 
Q 2772 3750 2511 3984 
Q 2250 4219 1831 4219 
Q 1534 4219 1204 4116 
Q 875 4013 500 3803 
L 500 4441 
Q 881 4594 1212 4672 
Q 1544 4750 1819 4750 
Q 2544 4750 2975 4387 
Q 3406 4025 3406 3419 
Q 3406 3131 3298 2873 
Q 3191 2616 2906 2266 
Q 2828 2175 2409 1742 
Q 1991 1309 1228 531 
z
" transform="scale(0.015625)"/>
      </defs>
      <use xlink:href="#DejaVuSans-32"/>
     </g>
    </g>
   </g>
   <g id="text_4">
    <g clip-path="url(#pfcfa13aa7d)">
     <!-- 3 -->
     <g transform="translate(36.805527 153.731237) scale(0.1 -0.1)">
      <defs>
       <path id="DejaVuSans-33" d="M 2597 2516 
Q 3050 2419 3304 2112 
Q 3559 1806 3559 1356 
Q 3559 666 3084 287 
Q 2609 -91 1734 -91 
Q 1441 -91 1130 -33 
Q 819 25 488 141 
L 488 750 
Q 750 597 1062 519 
Q 1375 441 1716 441 
Q 2309 441 2620 675 
Q 2931 909 2931 1356 
Q 2931 1769 2642 2001 
Q 2353 2234 1838 2234 
L 1294 2234 
L 1294 2753 
L 1863 2753 
Q 2328 2753 2575 2939 
Q 2822 3125 2822 3475 
Q 2822 3834 2567 4026 
Q 2313 4219 1838 4219 
Q 1578 4219 1281 4162 
Q 984 4106 628 3988 
L 628 4550 
Q 988 4650 1302 4700 
Q 1616 4750 1894 4750 
Q 2613 4750 3031 4423 
Q 3450 4097 3450 3541 
Q 3450 3153 3228 2886 
Q 3006 2619 2597 2516 
z
" transform="scale(0.015625)"/>
      </defs>
      <use xlink:href="#DejaVuSans-33"/>
     </g>
    </g>
   </g>
   <g id="text_5">
    <g clip-path="url(#pfcfa13aa7d)">
     <!-- 4 -->
     <g transform="translate(283.265935 32.749458) scale(0.1 -0.1)">
      <defs>
       <path id="DejaVuSans-34" d="M 2419 4116 
L 825 1625 
L 2419 1625 
L 2419 4116 
z
M 2253 4666 
L 3047 4666 
L 3047 1625 
L 3713 1625 
L 3713 1100 
L 3047 1100 
L 3047 0 
L 2419 0 
L 2419 1100 
L 313 1100 
L 313 1709 
L 2253 4666 
z
" transform="scale(0.015625)"/>
      </defs>
      <use xlink:href="#DejaVuSans-34"/>
     </g>
    </g>
   </g>
   <g id="text_6">
    <g clip-path="url(#pfcfa13aa7d)">
     <!-- 5 -->
     <g transform="translate(277.2263 117.23355) scale(0.1 -0.1)">
      <defs>
       <path id="DejaVuSans-35" d="M 691 4666 
L 3169 4666 
L 3169 4134 
L 1269 4134 
L 1269 2991 
Q 1406 3038 1543 3061 
Q 1681 3084 1819 3084 
Q 2600 3084 3056 2656 
Q 3513 2228 3513 1497 
Q 3513 744 3044 326 
Q 2575 -91 1722 -91 
Q 1428 -91 1123 -41 
Q 819 9 494 109 
L 494 744 
Q 775 591 1075 516 
Q 1375 441 1709 441 
Q 2250 441 2565 725 
Q 2881 1009 2881 1497 
Q 2881 1984 2565 2268 
Q 2250 2553 1709 2553 
Q 1456 2553 1204 2497 
Q 953 2441 691 2322 
L 691 4666 
z
" transform="scale(0.015625)"/>
      </defs>
      <use xlink:href="#DejaVuSans-35"/>
     </g>
    </g>
   </g>
   <g id="text_7">
    <g clip-path="url(#pfcfa13aa7d)">
     <!-- 6 -->
     <g transform="translate(47.785841 188.267045) scale(0.1 -0.1)">
      <defs>
       <path id="DejaVuSans-36" d="M 2113 2584 
Q 1688 2584 1439 2293 
Q 1191 2003 1191 1497 
Q 1191 994 1439 701 
Q 1688 409 2113 409 
Q 2538 409 2786 701 
Q 3034 994 3034 1497 
Q 3034 2003 2786 2293 
Q 2538 2584 2113 2584 
z
M 3366 4563 
L 3366 3988 
Q 3128 4100 2886 4159 
Q 2644 4219 2406 4219 
Q 1781 4219 1451 3797 
Q 1122 3375 1075 2522 
Q 1259 2794 1537 2939 
Q 1816 3084 2150 3084 
Q 2853 3084 3261 2657 
Q 3669 2231 3669 1497 
Q 3669 778 3244 343 
Q 2819 -91 2113 -91 
Q 1303 -91 875 529 
Q 447 1150 447 2328 
Q 447 3434 972 4092 
Q 1497 4750 2381 4750 
Q 2619 4750 2861 4703 
Q 3103 4656 3366 4563 
z
" transform="scale(0.015625)"/>
      </defs>
      <use xlink:href="#DejaVuSans-36"/>
     </g>
    </g>
   </g>
   <g id="text_8">
    <g clip-path="url(#pfcfa13aa7d)">
     <!-- 7 -->
     <g transform="translate(55.253488 223.962214) scale(0.1 -0.1)">
      <defs>
       <path id="DejaVuSans-37" d="M 525 4666 
L 3525 4666 
L 3525 4397 
L 1831 0 
L 1172 0 
L 2766 4134 
L 525 4134 
L 525 4666 
z
" transform="scale(0.015625)"/>
      </defs>
      <use xlink:href="#DejaVuSans-37"/>
     </g>
    </g>
   </g>
   <g id="text_9">
    <g clip-path="url(#pfcfa13aa7d)">
     <!-- 8 -->
     <g transform="translate(334.67597 44.655478) scale(0.1 -0.1)">
      <defs>
       <path id="DejaVuSans-38" d="M 2034 2216 
Q 1584 2216 1326 1975 
Q 1069 1734 1069 1313 
Q 1069 891 1326 650 
Q 1584 409 2034 409 
Q 2484 409 2743 651 
Q 3003 894 3003 1313 
Q 3003 1734 2745 1975 
Q 2488 2216 2034 2216 
z
M 1403 2484 
Q 997 2584 770 2862 
Q 544 3141 544 3541 
Q 544 4100 942 4425 
Q 1341 4750 2034 4750 
Q 2731 4750 3128 4425 
Q 3525 4100 3525 3541 
Q 3525 3141 3298 2862 
Q 3072 2584 2669 2484 
Q 3125 2378 3379 2068 
Q 3634 1759 3634 1313 
Q 3634 634 3220 271 
Q 2806 -91 2034 -91 
Q 1263 -91 848 271 
Q 434 634 434 1313 
Q 434 1759 690 2068 
Q 947 2378 1403 2484 
z
M 1172 3481 
Q 1172 3119 1398 2916 
Q 1625 2713 2034 2713 
Q 2441 2713 2670 2916 
Q 2900 3119 2900 3481 
Q 2900 3844 2670 4047 
Q 2441 4250 2034 4250 
Q 1625 4250 1398 4047 
Q 1172 3844 1172 3481 
z
" transform="scale(0.015625)"/>
      </defs>
      <use xlink:href="#DejaVuSans-38"/>
     </g>
    </g>
   </g>
   <g id="text_10">
    <g clip-path="url(#pfcfa13aa7d)">
     <!-- 9 -->
     <g transform="translate(349.518767 312.741419) scale(0.1 -0.1)">
      <defs>
       <path id="DejaVuSans-39" d="M 703 97 
L 703 672 
Q 941 559 1184 500 
Q 1428 441 1663 441 
Q 2288 441 2617 861 
Q 2947 1281 2994 2138 
Q 2813 1869 2534 1725 
Q 2256 1581 1919 1581 
Q 1219 1581 811 2004 
Q 403 2428 403 3163 
Q 403 3881 828 4315 
Q 1253 4750 1959 4750 
Q 2769 4750 3195 4129 
Q 3622 3509 3622 2328 
Q 3622 1225 3098 567 
Q 2575 -91 1691 -91 
Q 1453 -91 1209 -44 
Q 966 3 703 97 
z
M 1959 2075 
Q 2384 2075 2632 2365 
Q 2881 2656 2881 3163 
Q 2881 3666 2632 3958 
Q 2384 4250 1959 4250 
Q 1534 4250 1286 3958 
Q 1038 3666 1038 3163 
Q 1038 2656 1286 2365 
Q 1534 2075 1959 2075 
z
" transform="scale(0.015625)"/>
      </defs>
      <use xlink:href="#DejaVuSans-39"/>
     </g>
    </g>
   </g>
   <g id="text_11">
    <g clip-path="url(#pfcfa13aa7d)">
     <!-- 10 -->
     <g transform="translate(62.796528 122.660434) scale(0.1 -0.1)">
      <use xlink:href="#DejaVuSans-31"/>
      <use xlink:href="#DejaVuSans-30" x="63.623047"/>
     </g>
    </g>
   </g>
   <g id="text_12">
    <g clip-path="url(#pfcfa13aa7d)">
     <!-- 11 -->
     <g transform="translate(215.838103 227.368529) scale(0.1 -0.1)">
      <use xlink:href="#DejaVuSans-31"/>
      <use xlink:href="#DejaVuSans-31" x="63.623047"/>
     </g>
    </g>
   </g>
   <g id="text_13">
    <g clip-path="url(#pfcfa13aa7d)">
     <!-- 12 -->
     <g transform="translate(302.664917 232.533765) scale(0.1 -0.1)">
      <use xlink:href="#DejaVuSans-31"/>
      <use xlink:href="#DejaVuSans-32" x="63.623047"/>
     </g>
    </g>
   </g>
   <g id="text_14">
    <g clip-path="url(#pfcfa13aa7d)">
     <!-- 13 -->
     <g transform="translate(390.746112 288.797058) scale(0.1 -0.1)">
      <use xlink:href="#DejaVuSans-31"/>
      <use xlink:href="#DejaVuSans-33" x="63.623047"/>
     </g>
    </g>
   </g>
   <g id="text_15">
    <g clip-path="url(#pfcfa13aa7d)">
     <!-- 14 -->
     <g transform="translate(370.282737 73.792184) scale(0.1 -0.1)">
      <use xlink:href="#DejaVuSans-31"/>
      <use xlink:href="#DejaVuSans-34" x="63.623047"/>
     </g>
    </g>
   </g>
   <g id="text_16">
    <g clip-path="url(#pfcfa13aa7d)">
     <!-- 15 -->
     <g transform="translate(112.345609 107.997596) scale(0.1 -0.1)">
      <use xlink:href="#DejaVuSans-31"/>
      <use xlink:href="#DejaVuSans-35" x="63.623047"/>
     </g>
    </g>
   </g>
   <g id="text_17">
    <g clip-path="url(#pfcfa13aa7d)">
     <!-- 16 -->
     <g transform="translate(98.056088 244.332512) scale(0.1 -0.1)">
      <use xlink:href="#DejaVuSans-31"/>
      <use xlink:href="#DejaVuSans-36" x="63.623047"/>
     </g>
    </g>
   </g>
   <g id="text_18">
    <g clip-path="url(#pfcfa13aa7d)">
     <!-- 17 -->
     <g transform="translate(368.503858 151.224746) scale(0.1 -0.1)">
      <use xlink:href="#DejaVuSans-31"/>
      <use xlink:href="#DejaVuSans-37" x="63.623047"/>
     </g>
    </g>
   </g>
   <g id="text_19">
    <g clip-path="url(#pfcfa13aa7d)">
     <!-- 18 -->
     <g transform="translate(278.448015 187.843514) scale(0.1 -0.1)">
      <use xlink:href="#DejaVuSans-31"/>
      <use xlink:href="#DejaVuSans-38" x="63.623047"/>
     </g>
    </g>
   </g>
   <g id="text_20">
    <g clip-path="url(#pfcfa13aa7d)">
     <!-- 19 -->
     <g transform="translate(258.418219 260.507033) scale(0.1 -0.1)">
      <use xlink:href="#DejaVuSans-31"/>
      <use xlink:href="#DejaVuSans-39" x="63.623047"/>
     </g>
    </g>
   </g>
   <g id="text_21">
    <g clip-path="url(#pfcfa13aa7d)">
     <!-- 20 -->
     <g transform="translate(385.460877 190.261572) scale(0.1 -0.1)">
      <use xlink:href="#DejaVuSans-32"/>
      <use xlink:href="#DejaVuSans-30" x="63.623047"/>
     </g>
    </g>
   </g>
   <g id="text_22">
    <g clip-path="url(#pfcfa13aa7d)">
     <!-- 21 -->
     <g transform="translate(414.450723 251.378425) scale(0.1 -0.1)">
      <use xlink:href="#DejaVuSans-32"/>
      <use xlink:href="#DejaVuSans-31" x="63.623047"/>
     </g>
    </g>
   </g>
  </g>
 </g>
 <defs>
  <clipPath id="pfcfa13aa7d">
   <rect x="0" y="0" width="460.8" height="345.6"/>
  </clipPath>
 </defs>
</svg>
