<?xml version="1.0" encoding="utf-8" standalone="no"?>
<!DOCTYPE svg PUBLIC "-//W3C//DTD SVG 1.1//EN"
  "http://www.w3.org/Graphics/SVG/1.1/DTD/svg11.dtd">
<svg xmlns:xlink="http://www.w3.org/1999/xlink" width="460.8pt" height="345.6pt" viewBox="0 0 460.8 345.6" xmlns="http://www.w3.org/2000/svg" version="1.1">
 <metadata>
  <rdf:RDF xmlns:dc="http://purl.org/dc/elements/1.1/" xmlns:cc="http://creativecommons.org/ns#" xmlns:rdf="http://www.w3.org/1999/02/22-rdf-syntax-ns#">
   <cc:Work>
    <dc:type rdf:resource="http://purl.org/dc/dcmitype/StillImage"/>
    <dc:date>2024-02-28T11:17:22.132775</dc:date>
    <dc:format>image/svg+xml</dc:format>
    <dc:creator>
     <cc:Agent>
      <dc:title>Matplotlib v3.8.0, https://matplotlib.org/</dc:title>
     </cc:Agent>
    </dc:creator>
   </cc:Work>
  </rdf:RDF>
 </metadata>
 <defs>
  <style type="text/css">*{stroke-linejoin: round; stroke-linecap: butt}</style>
 </defs>
 <g id="figure_1">
  <g id="patch_1">
   <path d="M 0 345.6 
L 460.8 345.6 
L 460.8 0 
L 0 0 
z
" style="fill: #ffffff"/>
  </g>
  <g id="axes_1">
   <g id="patch_2">
    <path d="M 366.752197 296.592421 
Q 328.454789 259.695194 290.962531 223.57368 
" clip-path="url(#pa247d1f230)" style="fill: none; stroke: #000000; stroke-linecap: round"/>
    <path d="M 292.455487 227.789256 
L 290.962531 223.57368 
L 295.230766 224.908661 
z
" clip-path="url(#pa247d1f230)" style="stroke: #000000; stroke-linecap: round"/>
   </g>
   <g id="patch_3">
    <path d="M 290.158023 222.798585 
Q 328.455432 259.695813 365.947689 295.817326 
" clip-path="url(#pa247d1f230)" style="fill: none; stroke: #000000; stroke-linecap: round"/>
    <path d="M 364.454733 291.60175 
L 365.947689 295.817326 
L 361.679454 294.482345 
z
" clip-path="url(#pa247d1f230)" style="stroke: #000000; stroke-linecap: round"/>
   </g>
   <g id="patch_4">
    <path d="M 289.00315 219.53495 
Q 294.376896 176.157099 299.613188 133.888801 
" clip-path="url(#pa247d1f230)" style="fill: none; stroke: #000000; stroke-linecap: round"/>
    <path d="M 297.136591 137.612572 
L 299.613188 133.888801 
L 301.106246 138.104341 
z
" clip-path="url(#pa247d1f230)" style="stroke: #000000; stroke-linecap: round"/>
   </g>
   <g id="patch_5">
    <path d="M 290.663713 221.838826 
Q 346.479234 233.076012 401.198714 244.092535 
" clip-path="url(#pa247d1f230)" style="fill: none; stroke: #000000; stroke-linecap: round"/>
    <path d="M 397.67213 241.342407 
L 401.198714 244.092535 
L 396.882661 245.263726 
z
" clip-path="url(#pa247d1f230)" style="stroke: #000000; stroke-linecap: round"/>
   </g>
   <g id="patch_6">
    <path d="M 286.845642 221.231274 
Q 224.4548 213.907755 163.174369 206.714577 
" clip-path="url(#pa247d1f230)" style="fill: none; stroke: #000000; stroke-linecap: round"/>
    <path d="M 166.913932 209.167263 
L 163.174369 206.714577 
L 167.380255 205.194539 
z
" clip-path="url(#pa247d1f230)" style="stroke: #000000; stroke-linecap: round"/>
   </g>
   <g id="patch_7">
    <path d="M 288.904873 223.390334 
Q 292.168002 268.533408 295.350525 312.561356 
" clip-path="url(#pa247d1f230)" style="fill: none; stroke: #000000; stroke-linecap: round"/>
    <path d="M 297.056937 308.427573 
L 295.350525 312.561356 
L 293.067346 308.715957 
z
" clip-path="url(#pa247d1f230)" style="stroke: #000000; stroke-linecap: round"/>
   </g>
   <g id="patch_8">
    <path d="M 287.495601 219.99206 
Q 247.249661 173.563234 207.736034 127.979226 
" clip-path="url(#pa247d1f230)" style="fill: none; stroke: #000000; stroke-linecap: round"/>
    <path d="M 208.844784 132.311739 
L 207.736034 127.979226 
L 211.867295 129.691734 
z
" clip-path="url(#pa247d1f230)" style="stroke: #000000; stroke-linecap: round"/>
   </g>
   <g id="patch_9">
    <path d="M 140.067876 296.674983 
Q 149.895224 252.460832 159.47999 209.338081 
" clip-path="url(#pa247d1f230)" style="fill: none; stroke: #000000; stroke-linecap: round"/>
    <path d="M 156.659746 212.808848 
L 159.47999 209.338081 
L 160.564457 213.676736 
z
" clip-path="url(#pa247d1f230)" style="stroke: #000000; stroke-linecap: round"/>
   </g>
   <g id="patch_10">
    <path d="M 53.862981 169.489652 
Q 106.086343 187.6063 157.253425 205.356517 
" clip-path="url(#pa247d1f230)" style="fill: none; stroke: #000000; stroke-linecap: round"/>
    <path d="M 154.129853 202.156002 
L 157.253425 205.356517 
L 152.818869 205.935065 
z
" clip-path="url(#pa247d1f230)" style="stroke: #000000; stroke-linecap: round"/>
   </g>
   <g id="patch_11">
    <path d="M 299.750957 132.776705 
Q 294.377211 176.154556 289.140919 218.422854 
" clip-path="url(#pa247d1f230)" style="fill: none; stroke: #000000; stroke-linecap: round"/>
    <path d="M 291.617516 214.699084 
L 289.140919 218.422854 
L 287.647861 214.207314 
z
" clip-path="url(#pa247d1f230)" style="stroke: #000000; stroke-linecap: round"/>
   </g>
   <g id="patch_12">
    <path d="M 298.286167 131.774444 
Q 230.067895 168.605635 162.833429 204.905669 
" clip-path="url(#pa247d1f230)" style="fill: none; stroke: #000000; stroke-linecap: round"/>
    <path d="M 167.303359 204.765223 
L 162.833429 204.905669 
L 165.40303 201.245457 
z
" clip-path="url(#pa247d1f230)" style="stroke: #000000; stroke-linecap: round"/>
   </g>
   <g id="patch_13">
    <path d="M 298.053166 130.748565 
Q 252.861186 128.262153 208.785553 125.837161 
" clip-path="url(#pa247d1f230)" style="fill: none; stroke: #000000; stroke-linecap: round"/>
    <path d="M 212.66964 128.053884 
L 208.785553 125.837161 
L 212.889384 124.059924 
z
" clip-path="url(#pa247d1f230)" style="stroke: #000000; stroke-linecap: round"/>
   </g>
   <g id="patch_14">
    <path d="M 300.560421 129.005933 
Q 314.369535 84.318069 327.848563 40.698402 
" clip-path="url(#pa247d1f230)" style="fill: none; stroke: #000000; stroke-linecap: round"/>
    <path d="M 324.756764 43.929621 
L 327.848563 40.698402 
L 328.578459 45.110573 
z
" clip-path="url(#pa247d1f230)" style="stroke: #000000; stroke-linecap: round"/>
   </g>
   <g id="patch_15">
    <path d="M 301.924826 130.750546 
Q 360.402113 127.592978 417.762992 124.495692 
" clip-path="url(#pa247d1f230)" style="fill: none; stroke: #000000; stroke-linecap: round"/>
    <path d="M 413.660975 122.714273 
L 417.762992 124.495692 
L 413.876647 126.708454 
z
" clip-path="url(#pa247d1f230)" style="stroke: #000000; stroke-linecap: round"/>
   </g>
   <g id="patch_16">
    <path d="M 301.599404 129.776785 
Q 347.35769 99.137886 392.186967 69.121033 
" clip-path="url(#pa247d1f230)" style="fill: none; stroke: #000000; stroke-linecap: round"/>
    <path d="M 387.750492 69.684675 
L 392.186967 69.121033 
L 389.975995 73.008398 
z
" clip-path="url(#pa247d1f230)" style="stroke: #000000; stroke-linecap: round"/>
   </g>
   <g id="patch_17">
    <path d="M 41.897207 225.579091 
Q 100.065251 216.12402 157.129744 206.84833 
" clip-path="url(#pa247d1f230)" style="fill: none; stroke: #000000; stroke-linecap: round"/>
    <path d="M 152.860679 205.516006 
L 157.129744 206.84833 
L 153.502446 209.464187 
z
" clip-path="url(#pa247d1f230)" style="stroke: #000000; stroke-linecap: round"/>
   </g>
   <g id="patch_18">
    <path d="M 402.291242 244.312491 
Q 346.47572 233.075305 291.756241 222.058782 
" clip-path="url(#pa247d1f230)" style="fill: none; stroke: #000000; stroke-linecap: round"/>
    <path d="M 295.282825 224.808909 
L 291.756241 222.058782 
L 296.072293 220.887591 
z
" clip-path="url(#pa247d1f230)" style="stroke: #000000; stroke-linecap: round"/>
   </g>
   <g id="patch_19">
    <path d="M 162.061669 206.583967 
Q 224.452511 213.907486 285.732943 221.100664 
" clip-path="url(#pa247d1f230)" style="fill: none; stroke: #000000; stroke-linecap: round"/>
    <path d="M 281.99338 218.647978 
L 285.732943 221.100664 
L 281.527056 222.620703 
z
" clip-path="url(#pa247d1f230)" style="stroke: #000000; stroke-linecap: round"/>
   </g>
   <g id="patch_20">
    <path d="M 159.722556 208.246757 
Q 149.895208 252.460908 140.310442 295.583659 
" clip-path="url(#pa247d1f230)" style="fill: none; stroke: #000000; stroke-linecap: round"/>
    <path d="M 143.130686 292.112892 
L 140.310442 295.583659 
L 139.225975 291.245004 
z
" clip-path="url(#pa247d1f230)" style="stroke: #000000; stroke-linecap: round"/>
   </g>
   <g id="patch_21">
    <path d="M 158.311125 205.723441 
Q 106.087763 187.606793 54.920681 169.856576 
" clip-path="url(#pa247d1f230)" style="fill: none; stroke: #000000; stroke-linecap: round"/>
    <path d="M 58.044253 173.057091 
L 54.920681 169.856576 
L 59.355237 169.278028 
z
" clip-path="url(#pa247d1f230)" style="stroke: #000000; stroke-linecap: round"/>
   </g>
   <g id="patch_22">
    <path d="M 161.845064 205.439289 
Q 230.063335 168.608097 297.297802 132.308064 
" clip-path="url(#pa247d1f230)" style="fill: none; stroke: #000000; stroke-linecap: round"/>
    <path d="M 292.827872 132.44851 
L 297.297802 132.308064 
L 294.728201 135.968276 
z
" clip-path="url(#pa247d1f230)" style="stroke: #000000; stroke-linecap: round"/>
   </g>
   <g id="patch_23">
    <path d="M 158.231787 206.669195 
Q 100.063744 216.124265 42.999251 225.399956 
" clip-path="url(#pa247d1f230)" style="fill: none; stroke: #000000; stroke-linecap: round"/>
    <path d="M 47.268315 226.73228 
L 42.999251 225.399956 
L 46.626548 222.784099 
z
" clip-path="url(#pa247d1f230)" style="stroke: #000000; stroke-linecap: round"/>
   </g>
   <g id="patch_24">
    <path d="M 161.095286 204.671884 
Q 182.938373 166.013201 204.231465 128.327917 
" clip-path="url(#pa247d1f230)" style="fill: none; stroke: #000000; stroke-linecap: round"/>
    <path d="M 200.522476 130.826597 
L 204.231465 128.327917 
L 204.005016 132.794316 
z
" clip-path="url(#pa247d1f230)" style="stroke: #000000; stroke-linecap: round"/>
   </g>
   <g id="patch_25">
    <path d="M 158.625073 207.565435 
Q 115.516323 241.855242 73.28256 275.449062 
" clip-path="url(#pa247d1f230)" style="fill: none; stroke: #000000; stroke-linecap: round"/>
    <path d="M 77.658028 274.524247 
L 73.28256 275.449062 
L 75.167989 271.393799 
z
" clip-path="url(#pa247d1f230)" style="stroke: #000000; stroke-linecap: round"/>
   </g>
   <g id="patch_26">
    <path d="M 295.431108 313.676165 
Q 292.167979 268.533092 288.985456 224.505143 
" clip-path="url(#pa247d1f230)" style="fill: none; stroke: #000000; stroke-linecap: round"/>
    <path d="M 287.279045 228.638926 
L 288.985456 224.505143 
L 291.268636 228.350542 
z
" clip-path="url(#pa247d1f230)" style="stroke: #000000; stroke-linecap: round"/>
   </g>
   <g id="patch_27">
    <path d="M 186.781441 31.890935 
Q 196.065826 77.831377 205.128739 122.67594 
" clip-path="url(#pa247d1f230)" style="fill: none; stroke: #000000; stroke-linecap: round"/>
    <path d="M 206.296741 118.359023 
L 205.128739 122.67594 
L 202.376007 119.151389 
z
" clip-path="url(#pa247d1f230)" style="stroke: #000000; stroke-linecap: round"/>
   </g>
   <g id="patch_28">
    <path d="M 207.003168 127.133772 
Q 247.249109 173.562598 286.762735 219.146606 
" clip-path="url(#pa247d1f230)" style="fill: none; stroke: #000000; stroke-linecap: round"/>
    <path d="M 285.653985 214.814093 
L 286.762735 219.146606 
L 282.631474 217.434099 
z
" clip-path="url(#pa247d1f230)" style="stroke: #000000; stroke-linecap: round"/>
   </g>
   <g id="patch_29">
    <path d="M 207.669523 125.775758 
Q 252.861502 128.26217 296.937136 130.687162 
" clip-path="url(#pa247d1f230)" style="fill: none; stroke: #000000; stroke-linecap: round"/>
    <path d="M 293.053048 128.470439 
L 296.937136 130.687162 
L 292.833305 132.464399 
z
" clip-path="url(#pa247d1f230)" style="stroke: #000000; stroke-linecap: round"/>
   </g>
   <g id="patch_30">
    <path d="M 204.780607 127.356025 
Q 182.937521 166.014708 161.644428 203.699993 
" clip-path="url(#pa247d1f230)" style="fill: none; stroke: #000000; stroke-linecap: round"/>
    <path d="M 165.353417 201.201312 
L 161.644428 203.699993 
L 161.870877 199.233594 
z
" clip-path="url(#pa247d1f230)" style="stroke: #000000; stroke-linecap: round"/>
   </g>
   <g id="patch_31">
    <path d="M 205.349521 123.768397 
Q 196.065135 77.827955 187.002222 32.983392 
" clip-path="url(#pa247d1f230)" style="fill: none; stroke: #000000; stroke-linecap: round"/>
    <path d="M 185.83422 37.300309 
L 187.002222 32.983392 
L 189.754954 36.507944 
z
" clip-path="url(#pa247d1f230)" style="stroke: #000000; stroke-linecap: round"/>
   </g>
   <g id="patch_32">
    <path d="M 204.164447 124.534548 
Q 161.019841 93.336901 118.781228 62.794371 
" clip-path="url(#pa247d1f230)" style="fill: none; stroke: #000000; stroke-linecap: round"/>
    <path d="M 120.850691 66.758879 
L 118.781228 62.794371 
L 123.194512 63.517505 
z
" clip-path="url(#pa247d1f230)" style="stroke: #000000; stroke-linecap: round"/>
   </g>
   <g id="patch_33">
    <path d="M 117.87596 62.139777 
Q 161.020566 93.337424 203.259179 123.879954 
" clip-path="url(#pa247d1f230)" style="fill: none; stroke: #000000; stroke-linecap: round"/>
    <path d="M 201.189716 119.915446 
L 203.259179 123.879954 
L 198.845895 123.15682 
z
" clip-path="url(#pa247d1f230)" style="stroke: #000000; stroke-linecap: round"/>
   </g>
   <g id="patch_34">
    <path d="M 328.179341 39.627966 
Q 314.370227 84.31583 300.891199 127.935497 
" clip-path="url(#pa247d1f230)" style="fill: none; stroke: #000000; stroke-linecap: round"/>
    <path d="M 303.982999 124.704278 
L 300.891199 127.935497 
L 300.161304 123.523326 
z
" clip-path="url(#pa247d1f230)" style="stroke: #000000; stroke-linecap: round"/>
   </g>
   <g id="patch_35">
    <path d="M 418.87741 124.435517 
Q 360.400123 127.593085 303.039244 130.690371 
" clip-path="url(#pa247d1f230)" style="fill: none; stroke: #000000; stroke-linecap: round"/>
    <path d="M 307.141261 132.47179 
L 303.039244 130.690371 
L 306.92559 128.477609 
z
" clip-path="url(#pa247d1f230)" style="stroke: #000000; stroke-linecap: round"/>
   </g>
   <g id="patch_36">
    <path d="M 393.117022 68.498285 
Q 347.358736 99.137185 302.529459 129.154037 
" clip-path="url(#pa247d1f230)" style="fill: none; stroke: #000000; stroke-linecap: round"/>
    <path d="M 306.965934 128.590396 
L 302.529459 129.154037 
L 304.740431 125.266673 
z
" clip-path="url(#pa247d1f230)" style="stroke: #000000; stroke-linecap: round"/>
   </g>
   <g id="patch_37">
    <path d="M 72.406587 276.145833 
Q 115.515337 241.856026 157.7491 208.262207 
" clip-path="url(#pa247d1f230)" style="fill: none; stroke: #000000; stroke-linecap: round"/>
    <path d="M 153.373632 209.187021 
L 157.7491 208.262207 
L 155.863671 212.31747 
z
" clip-path="url(#pa247d1f230)" style="stroke: #000000; stroke-linecap: round"/>
   </g>
   <g id="PathCollection_1">
    <defs>
     <path id="me67122f1b4" d="M 0 1.936492 
C 0.513564 1.936492 1.006162 1.732451 1.369306 1.369306 
C 1.732451 1.006162 1.936492 0.513564 1.936492 0 
C 1.936492 -0.513564 1.732451 -1.006162 1.369306 -1.369306 
C 1.006162 -1.732451 0.513564 -1.936492 0 -1.936492 
C -0.513564 -1.936492 -1.006162 -1.732451 -1.369306 -1.369306 
C -1.732451 -1.006162 -1.936492 -0.513564 -1.936492 0 
C -1.936492 0.513564 -1.732451 1.006162 -1.369306 1.369306 
C -1.006162 1.732451 -0.513564 1.936492 0 1.936492 
z
" style="stroke: #1f78b4"/>
    </defs>
    <g clip-path="url(#pa247d1f230)">
     <use xlink:href="#me67122f1b4" x="368.145127" y="297.934424" style="fill: #1f78b4; stroke: #1f78b4"/>
     <use xlink:href="#me67122f1b4" x="288.765094" y="221.456582" style="fill: #1f78b4; stroke: #1f78b4"/>
     <use xlink:href="#me67122f1b4" x="139.648215" y="298.56308" style="fill: #1f78b4; stroke: #1f78b4"/>
     <use xlink:href="#me67122f1b4" x="52.031888" y="168.854434" style="fill: #1f78b4; stroke: #1f78b4"/>
     <use xlink:href="#me67122f1b4" x="299.989013" y="130.855073" style="fill: #1f78b4; stroke: #1f78b4"/>
     <use xlink:href="#me67122f1b4" x="39.986777" y="225.889626" style="fill: #1f78b4; stroke: #1f78b4"/>
     <use xlink:href="#me67122f1b4" x="404.189861" y="244.694734" style="fill: #1f78b4; stroke: #1f78b4"/>
     <use xlink:href="#me67122f1b4" x="160.142218" y="206.358659" style="fill: #1f78b4; stroke: #1f78b4"/>
     <use xlink:href="#me67122f1b4" x="295.570888" y="315.609917" style="fill: #1f78b4; stroke: #1f78b4"/>
     <use xlink:href="#me67122f1b4" x="186.397286" y="29.990083" style="fill: #1f78b4; stroke: #1f78b4"/>
     <use xlink:href="#me67122f1b4" x="205.733676" y="125.66925" style="fill: #1f78b4; stroke: #1f78b4"/>
     <use xlink:href="#me67122f1b4" x="116.306731" y="61.005075" style="fill: #1f78b4; stroke: #1f78b4"/>
     <use xlink:href="#me67122f1b4" x="328.750749" y="37.778826" style="fill: #1f78b4; stroke: #1f78b4"/>
     <use xlink:href="#me67122f1b4" x="420.813223" y="124.33099" style="fill: #1f78b4; stroke: #1f78b4"/>
     <use xlink:href="#me67122f1b4" x="394.727413" y="67.419997" style="fill: #1f78b4; stroke: #1f78b4"/>
     <use xlink:href="#me67122f1b4" x="70.889443" y="277.352609" style="fill: #1f78b4; stroke: #1f78b4"/>
    </g>
   </g>
   <g id="text_1">
    <g clip-path="url(#pa247d1f230)">
     <!-- 0 -->
     <g transform="translate(364.963877 300.693799) scale(0.1 -0.1)">
      <defs>
       <path id="DejaVuSans-30" d="M 2034 4250 
Q 1547 4250 1301 3770 
Q 1056 3291 1056 2328 
Q 1056 1369 1301 889 
Q 1547 409 2034 409 
Q 2525 409 2770 889 
Q 3016 1369 3016 2328 
Q 3016 3291 2770 3770 
Q 2525 4250 2034 4250 
z
M 2034 4750 
Q 2819 4750 3233 4129 
Q 3647 3509 3647 2328 
Q 3647 1150 3233 529 
Q 2819 -91 2034 -91 
Q 1250 -91 836 529 
Q 422 1150 422 2328 
Q 422 3509 836 4129 
Q 1250 4750 2034 4750 
z
" transform="scale(0.015625)"/>
      </defs>
      <use xlink:href="#DejaVuSans-30"/>
     </g>
    </g>
   </g>
   <g id="text_2">
    <g clip-path="url(#pa247d1f230)">
     <!-- 1 -->
     <g transform="translate(285.583844 224.215957) scale(0.1 -0.1)">
      <defs>
       <path id="DejaVuSans-31" d="M 794 531 
L 1825 531 
L 1825 4091 
L 703 3866 
L 703 4441 
L 1819 4666 
L 2450 4666 
L 2450 531 
L 3481 531 
L 3481 0 
L 794 0 
L 794 531 
z
" transform="scale(0.015625)"/>
      </defs>
      <use xlink:href="#DejaVuSans-31"/>
     </g>
    </g>
   </g>
   <g id="text_3">
    <g clip-path="url(#pa247d1f230)">
     <!-- 2 -->
     <g transform="translate(136.466965 301.322455) scale(0.1 -0.1)">
      <defs>
       <path id="DejaVuSans-32" d="M 1228 531 
L 3431 531 
L 3431 0 
L 469 0 
L 469 531 
Q 828 903 1448 1529 
Q 2069 2156 2228 2338 
Q 2531 2678 2651 2914 
Q 2772 3150 2772 3378 
Q 2772 3750 2511 3984 
Q 2250 4219 1831 4219 
Q 1534 4219 1204 4116 
Q 875 4013 500 3803 
L 500 4441 
Q 881 4594 1212 4672 
Q 1544 4750 1819 4750 
Q 2544 4750 2975 4387 
Q 3406 4025 3406 3419 
Q 3406 3131 3298 2873 
Q 3191 2616 2906 2266 
Q 2828 2175 2409 1742 
Q 1991 1309 1228 531 
z
" transform="scale(0.015625)"/>
      </defs>
      <use xlink:href="#DejaVuSans-32"/>
     </g>
    </g>
   </g>
   <g id="text_4">
    <g clip-path="url(#pa247d1f230)">
     <!-- 3 -->
     <g transform="translate(48.850638 171.613809) scale(0.1 -0.1)">
      <defs>
       <path id="DejaVuSans-33" d="M 2597 2516 
Q 3050 2419 3304 2112 
Q 3559 1806 3559 1356 
Q 3559 666 3084 287 
Q 2609 -91 1734 -91 
Q 1441 -91 1130 -33 
Q 819 25 488 141 
L 488 750 
Q 750 597 1062 519 
Q 1375 441 1716 441 
Q 2309 441 2620 675 
Q 2931 909 2931 1356 
Q 2931 1769 2642 2001 
Q 2353 2234 1838 2234 
L 1294 2234 
L 1294 2753 
L 1863 2753 
Q 2328 2753 2575 2939 
Q 2822 3125 2822 3475 
Q 2822 3834 2567 4026 
Q 2313 4219 1838 4219 
Q 1578 4219 1281 4162 
Q 984 4106 628 3988 
L 628 4550 
Q 988 4650 1302 4700 
Q 1616 4750 1894 4750 
Q 2613 4750 3031 4423 
Q 3450 4097 3450 3541 
Q 3450 3153 3228 2886 
Q 3006 2619 2597 2516 
z
" transform="scale(0.015625)"/>
      </defs>
      <use xlink:href="#DejaVuSans-33"/>
     </g>
    </g>
   </g>
   <g id="text_5">
    <g clip-path="url(#pa247d1f230)">
     <!-- 4 -->
     <g transform="translate(296.807763 133.614448) scale(0.1 -0.1)">
      <defs>
       <path id="DejaVuSans-34" d="M 2419 4116 
L 825 1625 
L 2419 1625 
L 2419 4116 
z
M 2253 4666 
L 3047 4666 
L 3047 1625 
L 3713 1625 
L 3713 1100 
L 3047 1100 
L 3047 0 
L 2419 0 
L 2419 1100 
L 313 1100 
L 313 1709 
L 2253 4666 
z
" transform="scale(0.015625)"/>
      </defs>
      <use xlink:href="#DejaVuSans-34"/>
     </g>
    </g>
   </g>
   <g id="text_6">
    <g clip-path="url(#pa247d1f230)">
     <!-- 5 -->
     <g transform="translate(36.805527 228.649001) scale(0.1 -0.1)">
      <defs>
       <path id="DejaVuSans-35" d="M 691 4666 
L 3169 4666 
L 3169 4134 
L 1269 4134 
L 1269 2991 
Q 1406 3038 1543 3061 
Q 1681 3084 1819 3084 
Q 2600 3084 3056 2656 
Q 3513 2228 3513 1497 
Q 3513 744 3044 326 
Q 2575 -91 1722 -91 
Q 1428 -91 1123 -41 
Q 819 9 494 109 
L 494 744 
Q 775 591 1075 516 
Q 1375 441 1709 441 
Q 2250 441 2565 725 
Q 2881 1009 2881 1497 
Q 2881 1984 2565 2268 
Q 2250 2553 1709 2553 
Q 1456 2553 1204 2497 
Q 953 2441 691 2322 
L 691 4666 
z
" transform="scale(0.015625)"/>
      </defs>
      <use xlink:href="#DejaVuSans-35"/>
     </g>
    </g>
   </g>
   <g id="text_7">
    <g clip-path="url(#pa247d1f230)">
     <!-- 6 -->
     <g transform="translate(401.008611 247.454109) scale(0.1 -0.1)">
      <defs>
       <path id="DejaVuSans-36" d="M 2113 2584 
Q 1688 2584 1439 2293 
Q 1191 2003 1191 1497 
Q 1191 994 1439 701 
Q 1688 409 2113 409 
Q 2538 409 2786 701 
Q 3034 994 3034 1497 
Q 3034 2003 2786 2293 
Q 2538 2584 2113 2584 
z
M 3366 4563 
L 3366 3988 
Q 3128 4100 2886 4159 
Q 2644 4219 2406 4219 
Q 1781 4219 1451 3797 
Q 1122 3375 1075 2522 
Q 1259 2794 1537 2939 
Q 1816 3084 2150 3084 
Q 2853 3084 3261 2657 
Q 3669 2231 3669 1497 
Q 3669 778 3244 343 
Q 2819 -91 2113 -91 
Q 1303 -91 875 529 
Q 447 1150 447 2328 
Q 447 3434 972 4092 
Q 1497 4750 2381 4750 
Q 2619 4750 2861 4703 
Q 3103 4656 3366 4563 
z
" transform="scale(0.015625)"/>
      </defs>
      <use xlink:href="#DejaVuSans-36"/>
     </g>
    </g>
   </g>
   <g id="text_8">
    <g clip-path="url(#pa247d1f230)">
     <!-- 7 -->
     <g transform="translate(156.960968 209.118034) scale(0.1 -0.1)">
      <defs>
       <path id="DejaVuSans-37" d="M 525 4666 
L 3525 4666 
L 3525 4397 
L 1831 0 
L 1172 0 
L 2766 4134 
L 525 4134 
L 525 4666 
z
" transform="scale(0.015625)"/>
      </defs>
      <use xlink:href="#DejaVuSans-37"/>
     </g>
    </g>
   </g>
   <g id="text_9">
    <g clip-path="url(#pa247d1f230)">
     <!-- 8 -->
     <g transform="translate(292.389638 318.369292) scale(0.1 -0.1)">
      <defs>
       <path id="DejaVuSans-38" d="M 2034 2216 
Q 1584 2216 1326 1975 
Q 1069 1734 1069 1313 
Q 1069 891 1326 650 
Q 1584 409 2034 409 
Q 2484 409 2743 651 
Q 3003 894 3003 1313 
Q 3003 1734 2745 1975 
Q 2488 2216 2034 2216 
z
M 1403 2484 
Q 997 2584 770 2862 
Q 544 3141 544 3541 
Q 544 4100 942 4425 
Q 1341 4750 2034 4750 
Q 2731 4750 3128 4425 
Q 3525 4100 3525 3541 
Q 3525 3141 3298 2862 
Q 3072 2584 2669 2484 
Q 3125 2378 3379 2068 
Q 3634 1759 3634 1313 
Q 3634 634 3220 271 
Q 2806 -91 2034 -91 
Q 1263 -91 848 271 
Q 434 634 434 1313 
Q 434 1759 690 2068 
Q 947 2378 1403 2484 
z
M 1172 3481 
Q 1172 3119 1398 2916 
Q 1625 2713 2034 2713 
Q 2441 2713 2670 2916 
Q 2900 3119 2900 3481 
Q 2900 3844 2670 4047 
Q 2441 4250 2034 4250 
Q 1625 4250 1398 4047 
Q 1172 3844 1172 3481 
z
" transform="scale(0.015625)"/>
      </defs>
      <use xlink:href="#DejaVuSans-38"/>
     </g>
    </g>
   </g>
   <g id="text_10">
    <g clip-path="url(#pa247d1f230)">
     <!-- 9 -->
     <g transform="translate(183.216036 32.749458) scale(0.1 -0.1)">
      <defs>
       <path id="DejaVuSans-39" d="M 703 97 
L 703 672 
Q 941 559 1184 500 
Q 1428 441 1663 441 
Q 2288 441 2617 861 
Q 2947 1281 2994 2138 
Q 2813 1869 2534 1725 
Q 2256 1581 1919 1581 
Q 1219 1581 811 2004 
Q 403 2428 403 3163 
Q 403 3881 828 4315 
Q 1253 4750 1959 4750 
Q 2769 4750 3195 4129 
Q 3622 3509 3622 2328 
Q 3622 1225 3098 567 
Q 2575 -91 1691 -91 
Q 1453 -91 1209 -44 
Q 966 3 703 97 
z
M 1959 2075 
Q 2384 2075 2632 2365 
Q 2881 2656 2881 3163 
Q 2881 3666 2632 3958 
Q 2384 4250 1959 4250 
Q 1534 4250 1286 3958 
Q 1038 3666 1038 3163 
Q 1038 2656 1286 2365 
Q 1534 2075 1959 2075 
z
" transform="scale(0.015625)"/>
      </defs>
      <use xlink:href="#DejaVuSans-39"/>
     </g>
    </g>
   </g>
   <g id="text_11">
    <g clip-path="url(#pa247d1f230)">
     <!-- 10 -->
     <g transform="translate(199.371176 128.428625) scale(0.1 -0.1)">
      <use xlink:href="#DejaVuSans-31"/>
      <use xlink:href="#DejaVuSans-30" x="63.623047"/>
     </g>
    </g>
   </g>
   <g id="text_12">
    <g clip-path="url(#pa247d1f230)">
     <!-- 11 -->
     <g transform="translate(109.944231 63.76445) scale(0.1 -0.1)">
      <use xlink:href="#DejaVuSans-31"/>
      <use xlink:href="#DejaVuSans-31" x="63.623047"/>
     </g>
    </g>
   </g>
   <g id="text_13">
    <g clip-path="url(#pa247d1f230)">
     <!-- 12 -->
     <g transform="translate(322.388249 40.538201) scale(0.1 -0.1)">
      <use xlink:href="#DejaVuSans-31"/>
      <use xlink:href="#DejaVuSans-32" x="63.623047"/>
     </g>
    </g>
   </g>
   <g id="text_14">
    <g clip-path="url(#pa247d1f230)">
     <!-- 13 -->
     <g transform="translate(414.450723 127.090365) scale(0.1 -0.1)">
      <use xlink:href="#DejaVuSans-31"/>
      <use xlink:href="#DejaVuSans-33" x="63.623047"/>
     </g>
    </g>
   </g>
   <g id="text_15">
    <g clip-path="url(#pa247d1f230)">
     <!-- 14 -->
     <g transform="translate(388.364913 70.179372) scale(0.1 -0.1)">
      <use xlink:href="#DejaVuSans-31"/>
      <use xlink:href="#DejaVuSans-34" x="63.623047"/>
     </g>
    </g>
   </g>
   <g id="text_16">
    <g clip-path="url(#pa247d1f230)">
     <!-- 15 -->
     <g transform="translate(64.526943 280.111984) scale(0.1 -0.1)">
      <use xlink:href="#DejaVuSans-31"/>
      <use xlink:href="#DejaVuSans-35" x="63.623047"/>
     </g>
    </g>
   </g>
  </g>
 </g>
 <defs>
  <clipPath id="pa247d1f230">
   <rect x="0" y="0" width="460.8" height="345.6"/>
  </clipPath>
 </defs>
</svg>
