<?xml version="1.0" encoding="utf-8" standalone="no"?>
<!DOCTYPE svg PUBLIC "-//W3C//DTD SVG 1.1//EN"
  "http://www.w3.org/Graphics/SVG/1.1/DTD/svg11.dtd">
<svg xmlns:xlink="http://www.w3.org/1999/xlink" width="460.8pt" height="345.6pt" viewBox="0 0 460.8 345.6" xmlns="http://www.w3.org/2000/svg" version="1.1">
 <metadata>
  <rdf:RDF xmlns:dc="http://purl.org/dc/elements/1.1/" xmlns:cc="http://creativecommons.org/ns#" xmlns:rdf="http://www.w3.org/1999/02/22-rdf-syntax-ns#">
   <cc:Work>
    <dc:type rdf:resource="http://purl.org/dc/dcmitype/StillImage"/>
    <dc:date>2024-02-28T11:17:23.665386</dc:date>
    <dc:format>image/svg+xml</dc:format>
    <dc:creator>
     <cc:Agent>
      <dc:title>Matplotlib v3.8.0, https://matplotlib.org/</dc:title>
     </cc:Agent>
    </dc:creator>
   </cc:Work>
  </rdf:RDF>
 </metadata>
 <defs>
  <style type="text/css">*{stroke-linejoin: round; stroke-linecap: butt}</style>
 </defs>
 <g id="figure_1">
  <g id="patch_1">
   <path d="M 0 345.6 
L 460.8 345.6 
L 460.8 0 
L 0 0 
z
" style="fill: #ffffff"/>
  </g>
  <g id="axes_1">
   <g id="patch_2">
    <path d="M 202.583681 295.836185 
Q 187.552758 261.882535 172.974413 228.951222 
" clip-path="url(#p20d73cbeb3)" style="fill: none; stroke: #000000; stroke-linecap: round"/>
    <path d="M 172.764792 233.418442 
L 172.974413 228.951222 
L 176.422417 231.79925 
z
" clip-path="url(#p20d73cbeb3)" style="stroke: #000000; stroke-linecap: round"/>
   </g>
   <g id="patch_3">
    <path d="M 124.886533 302.551238 
Q 147.804783 265.179802 170.138546 228.761454 
" clip-path="url(#p20d73cbeb3)" style="fill: none; stroke: #000000; stroke-linecap: round"/>
    <path d="M 166.34249 231.125762 
L 170.138546 228.761454 
L 169.752359 233.216884 
z
" clip-path="url(#p20d73cbeb3)" style="stroke: #000000; stroke-linecap: round"/>
   </g>
   <g id="patch_4">
    <path d="M 172.522528 227.930449 
Q 187.553451 261.8841 202.131796 294.815413 
" clip-path="url(#p20d73cbeb3)" style="fill: none; stroke: #000000; stroke-linecap: round"/>
    <path d="M 202.341416 290.348193 
L 202.131796 294.815413 
L 198.683792 291.967385 
z
" clip-path="url(#p20d73cbeb3)" style="stroke: #000000; stroke-linecap: round"/>
   </g>
   <g id="patch_5">
    <path d="M 170.724502 227.805972 
Q 147.806252 265.177407 125.472489 301.595755 
" clip-path="url(#p20d73cbeb3)" style="fill: none; stroke: #000000; stroke-linecap: round"/>
    <path d="M 129.268545 299.231447 
L 125.472489 301.595755 
L 125.858676 297.140325 
z
" clip-path="url(#p20d73cbeb3)" style="stroke: #000000; stroke-linecap: round"/>
   </g>
   <g id="patch_6">
    <path d="M 169.848411 226.586409 
Q 125.902098 236.617339 83.045785 246.399471 
" clip-path="url(#p20d73cbeb3)" style="fill: none; stroke: #000000; stroke-linecap: round"/>
    <path d="M 87.390549 247.459199 
L 83.045785 246.399471 
L 86.500426 243.559497 
z
" clip-path="url(#p20d73cbeb3)" style="stroke: #000000; stroke-linecap: round"/>
   </g>
   <g id="patch_7">
    <path d="M 173.248038 224.9482 
Q 237.677637 173.483592 301.233675 122.71676 
" clip-path="url(#p20d73cbeb3)" style="fill: none; stroke: #000000; stroke-linecap: round"/>
    <path d="M 296.860109 123.650528 
L 301.233675 122.71676 
L 299.35655 126.775874 
z
" clip-path="url(#p20d73cbeb3)" style="stroke: #000000; stroke-linecap: round"/>
   </g>
   <g id="patch_8">
    <path d="M 170.145977 227.263 
Q 130.948898 254.555124 92.669349 281.20839 
" clip-path="url(#p20d73cbeb3)" style="fill: none; stroke: #000000; stroke-linecap: round"/>
    <path d="M 97.094826 280.564072 
L 92.669349 281.20839 
L 94.809181 277.281417 
z
" clip-path="url(#p20d73cbeb3)" style="stroke: #000000; stroke-linecap: round"/>
   </g>
   <g id="patch_9">
    <path d="M 171.587587 228.085457 
Q 168.280572 270.882108 165.059693 312.564048 
" clip-path="url(#p20d73cbeb3)" style="fill: none; stroke: #000000; stroke-linecap: round"/>
    <path d="M 167.36192 308.730024 
L 165.059693 312.564048 
L 163.373809 308.421851 
z
" clip-path="url(#p20d73cbeb3)" style="stroke: #000000; stroke-linecap: round"/>
   </g>
   <g id="patch_10">
    <path d="M 171.368729 224.254635 
Q 161.06542 171.03694 150.974624 118.916896 
" clip-path="url(#p20d73cbeb3)" style="fill: none; stroke: #000000; stroke-linecap: round"/>
    <path d="M 149.771394 123.224127 
L 150.974624 118.916896 
L 153.698471 122.463818 
z
" clip-path="url(#p20d73cbeb3)" style="stroke: #000000; stroke-linecap: round"/>
   </g>
   <g id="patch_11">
    <path d="M 81.956324 246.648145 
Q 125.902638 236.617215 168.758951 226.835083 
" clip-path="url(#p20d73cbeb3)" style="fill: none; stroke: #000000; stroke-linecap: round"/>
    <path d="M 164.414187 225.775355 
L 168.758951 226.835083 
L 165.30431 229.675057 
z
" clip-path="url(#p20d73cbeb3)" style="stroke: #000000; stroke-linecap: round"/>
   </g>
   <g id="patch_12">
    <path d="M 302.10981 122.016927 
Q 237.680211 173.481535 174.124173 224.248367 
" clip-path="url(#p20d73cbeb3)" style="fill: none; stroke: #000000; stroke-linecap: round"/>
    <path d="M 178.497739 223.314599 
L 174.124173 224.248367 
L 176.001298 220.189253 
z
" clip-path="url(#p20d73cbeb3)" style="stroke: #000000; stroke-linecap: round"/>
   </g>
   <g id="patch_13">
    <path d="M 305.427741 120.110301 
Q 342.113963 105.907235 377.757561 92.10782 
" clip-path="url(#p20d73cbeb3)" style="fill: none; stroke: #000000; stroke-linecap: round"/>
    <path d="M 373.305281 91.686866 
L 377.757561 92.10782 
L 374.749429 95.417072 
z
" clip-path="url(#p20d73cbeb3)" style="stroke: #000000; stroke-linecap: round"/>
   </g>
   <g id="patch_14">
    <path d="M 304.651142 119.167995 
Q 324.982694 86.761791 344.720058 55.302656 
" clip-path="url(#p20d73cbeb3)" style="fill: none; stroke: #000000; stroke-linecap: round"/>
    <path d="M 340.900056 57.628077 
L 344.720058 55.302656 
L 344.288394 59.75391 
z
" clip-path="url(#p20d73cbeb3)" style="stroke: #000000; stroke-linecap: round"/>
   </g>
   <g id="patch_15">
    <path d="M 305.324498 121.722557 
Q 338.593655 139.551137 370.87736 156.851624 
" clip-path="url(#p20d73cbeb3)" style="fill: none; stroke: #000000; stroke-linecap: round"/>
    <path d="M 368.296379 153.199428 
L 370.87736 156.851624 
L 366.407015 156.725091 
z
" clip-path="url(#p20d73cbeb3)" style="stroke: #000000; stroke-linecap: round"/>
   </g>
   <g id="patch_16">
    <path d="M 302.847849 119.033452 
Q 290.505424 90.681612 278.60926 63.354882 
" clip-path="url(#p20d73cbeb3)" style="fill: none; stroke: #000000; stroke-linecap: round"/>
    <path d="M 278.372082 67.820724 
L 278.60926 63.354882 
L 282.039627 66.224129 
z
" clip-path="url(#p20d73cbeb3)" style="stroke: #000000; stroke-linecap: round"/>
   </g>
   <g id="patch_17">
    <path d="M 303.052011 122.657861 
Q 293.84708 152.550042 284.971186 181.373703 
" clip-path="url(#p20d73cbeb3)" style="fill: none; stroke: #000000; stroke-linecap: round"/>
    <path d="M 288.059813 178.139451 
L 284.971186 181.373703 
L 284.236961 176.962251 
z
" clip-path="url(#p20d73cbeb3)" style="stroke: #000000; stroke-linecap: round"/>
   </g>
   <g id="patch_18">
    <path d="M 303.052011 122.657861 
Q 293.84708 152.550042 284.971186 181.373703 
" clip-path="url(#p20d73cbeb3)" style="fill: none; stroke: #000000; stroke-linecap: round"/>
    <path d="M 288.059813 178.139451 
L 284.971186 181.373703 
L 284.236961 176.962251 
z
" clip-path="url(#p20d73cbeb3)" style="stroke: #000000; stroke-linecap: round"/>
   </g>
   <g id="patch_19">
    <path d="M 305.527351 120.487741 
Q 362.215083 110.912267 417.800399 101.523008 
" clip-path="url(#p20d73cbeb3)" style="fill: none; stroke: #000000; stroke-linecap: round"/>
    <path d="M 413.523158 100.217172 
L 417.800399 101.523008 
L 414.189385 104.161299 
z
" clip-path="url(#p20d73cbeb3)" style="stroke: #000000; stroke-linecap: round"/>
   </g>
   <g id="patch_20">
    <path d="M 305.526593 121.163073 
Q 358.488141 130.983915 410.350395 140.600911 
" clip-path="url(#p20d73cbeb3)" style="fill: none; stroke: #000000; stroke-linecap: round"/>
    <path d="M 406.782093 137.905134 
L 410.350395 140.600911 
L 406.052792 141.838087 
z
" clip-path="url(#p20d73cbeb3)" style="stroke: #000000; stroke-linecap: round"/>
   </g>
   <g id="patch_21">
    <path d="M 303.813606 118.883895 
Q 308.132736 75.670639 312.340674 33.569873 
" clip-path="url(#p20d73cbeb3)" style="fill: none; stroke: #000000; stroke-linecap: round"/>
    <path d="M 309.952775 37.351134 
L 312.340674 33.569873 
L 313.932944 37.748949 
z
" clip-path="url(#p20d73cbeb3)" style="stroke: #000000; stroke-linecap: round"/>
   </g>
   <g id="patch_22">
    <path d="M 305.120199 119.585944 
Q 346.635145 85.69473 387.28401 52.510553 
" clip-path="url(#p20d73cbeb3)" style="fill: none; stroke: #000000; stroke-linecap: round"/>
    <path d="M 382.920633 53.490828 
L 387.28401 52.510553 
L 385.450204 56.58942 
z
" clip-path="url(#p20d73cbeb3)" style="stroke: #000000; stroke-linecap: round"/>
   </g>
   <g id="patch_23">
    <path d="M 301.689882 120.748083 
Q 227.009269 118.364021 153.44612 116.015632 
" clip-path="url(#p20d73cbeb3)" style="fill: none; stroke: #000000; stroke-linecap: round"/>
    <path d="M 157.380269 118.142242 
L 153.44612 116.015632 
L 157.507897 114.144279 
z
" clip-path="url(#p20d73cbeb3)" style="stroke: #000000; stroke-linecap: round"/>
   </g>
   <g id="patch_24">
    <path d="M 378.796788 91.705484 
Q 342.110566 105.90855 306.466969 119.707964 
" clip-path="url(#p20d73cbeb3)" style="fill: none; stroke: #000000; stroke-linecap: round"/>
    <path d="M 310.919249 120.128919 
L 306.466969 119.707964 
L 309.4751 116.398713 
z
" clip-path="url(#p20d73cbeb3)" style="stroke: #000000; stroke-linecap: round"/>
   </g>
   <g id="patch_25">
    <path d="M 345.314862 54.354606 
Q 324.983309 86.76081 305.245945 118.219945 
" clip-path="url(#p20d73cbeb3)" style="fill: none; stroke: #000000; stroke-linecap: round"/>
    <path d="M 309.065947 115.894523 
L 305.245945 118.219945 
L 305.677609 113.768691 
z
" clip-path="url(#p20d73cbeb3)" style="stroke: #000000; stroke-linecap: round"/>
   </g>
   <g id="patch_26">
    <path d="M 371.862982 157.379809 
Q 338.593825 139.551228 306.31012 122.250741 
" clip-path="url(#p20d73cbeb3)" style="fill: none; stroke: #000000; stroke-linecap: round"/>
    <path d="M 308.891101 125.902937 
L 306.31012 122.250741 
L 310.780465 122.377274 
z
" clip-path="url(#p20d73cbeb3)" style="stroke: #000000; stroke-linecap: round"/>
   </g>
   <g id="patch_27">
    <path d="M 278.164041 62.332168 
Q 290.506467 90.684008 302.402631 118.010738 
" clip-path="url(#p20d73cbeb3)" style="fill: none; stroke: #000000; stroke-linecap: round"/>
    <path d="M 302.639808 113.544896 
L 302.402631 118.010738 
L 298.972263 115.141491 
z
" clip-path="url(#p20d73cbeb3)" style="stroke: #000000; stroke-linecap: round"/>
   </g>
   <g id="patch_28">
    <path d="M 344.852918 255.027054 
Q 315.094729 220.393184 286.065164 186.607317 
" clip-path="url(#p20d73cbeb3)" style="fill: none; stroke: #000000; stroke-linecap: round"/>
    <path d="M 287.155011 190.944624 
L 286.065164 186.607317 
L 290.188918 188.337824 
z
" clip-path="url(#p20d73cbeb3)" style="stroke: #000000; stroke-linecap: round"/>
   </g>
   <g id="patch_29">
    <path d="M 91.753549 281.846042 
Q 130.950628 254.553919 169.230177 227.900653 
" clip-path="url(#p20d73cbeb3)" style="fill: none; stroke: #000000; stroke-linecap: round"/>
    <path d="M 164.804699 228.544971 
L 169.230177 227.900653 
L 167.090345 231.827626 
z
" clip-path="url(#p20d73cbeb3)" style="stroke: #000000; stroke-linecap: round"/>
   </g>
   <g id="patch_30">
    <path d="M 373.065632 225.521202 
Q 329.448083 205.312265 286.844973 185.573339 
" clip-path="url(#p20d73cbeb3)" style="fill: none; stroke: #000000; stroke-linecap: round"/>
    <path d="M 289.633562 189.06959 
L 286.844973 185.573339 
L 291.315127 185.440218 
z
" clip-path="url(#p20d73cbeb3)" style="stroke: #000000; stroke-linecap: round"/>
   </g>
   <g id="patch_31">
    <path d="M 90.209398 83.59774 
Q 119.447666 99.29932 147.700946 114.471941 
" clip-path="url(#p20d73cbeb3)" style="fill: none; stroke: #000000; stroke-linecap: round"/>
    <path d="M 145.123177 110.817477 
L 147.700946 114.471941 
L 143.230713 114.341477 
z
" clip-path="url(#p20d73cbeb3)" style="stroke: #000000; stroke-linecap: round"/>
   </g>
   <g id="patch_32">
    <path d="M 284.642501 182.44108 
Q 293.847432 152.5489 302.723326 123.725239 
" clip-path="url(#p20d73cbeb3)" style="fill: none; stroke: #000000; stroke-linecap: round"/>
    <path d="M 299.634699 126.95949 
L 302.723326 123.725239 
L 303.457551 128.136691 
z
" clip-path="url(#p20d73cbeb3)" style="stroke: #000000; stroke-linecap: round"/>
   </g>
   <g id="patch_33">
    <path d="M 284.642501 182.44108 
Q 293.847432 152.5489 302.723326 123.725239 
" clip-path="url(#p20d73cbeb3)" style="fill: none; stroke: #000000; stroke-linecap: round"/>
    <path d="M 299.634699 126.95949 
L 302.723326 123.725239 
L 303.457551 128.136691 
z
" clip-path="url(#p20d73cbeb3)" style="stroke: #000000; stroke-linecap: round"/>
   </g>
   <g id="patch_34">
    <path d="M 285.33628 185.75901 
Q 315.094468 220.39288 344.124033 254.178747 
" clip-path="url(#p20d73cbeb3)" style="fill: none; stroke: #000000; stroke-linecap: round"/>
    <path d="M 343.034187 249.841439 
L 344.124033 254.178747 
L 340.000279 252.44824 
z
" clip-path="url(#p20d73cbeb3)" style="stroke: #000000; stroke-linecap: round"/>
   </g>
   <g id="patch_35">
    <path d="M 285.832023 185.104018 
Q 329.449573 205.312955 372.052682 225.051881 
" clip-path="url(#p20d73cbeb3)" style="fill: none; stroke: #000000; stroke-linecap: round"/>
    <path d="M 369.264093 221.55563 
L 372.052682 225.051881 
L 367.582528 225.185002 
z
" clip-path="url(#p20d73cbeb3)" style="stroke: #000000; stroke-linecap: round"/>
   </g>
   <g id="patch_36">
    <path d="M 284.473219 186.181789 
Q 291.890062 221.289469 299.07581 255.303259 
" clip-path="url(#p20d73cbeb3)" style="fill: none; stroke: #000000; stroke-linecap: round"/>
    <path d="M 300.205829 250.976244 
L 299.07581 255.303259 
L 296.29221 251.803035 
z
" clip-path="url(#p20d73cbeb3)" style="stroke: #000000; stroke-linecap: round"/>
   </g>
   <g id="patch_37">
    <path d="M 282.347735 183.40661 
Q 217.234667 150.104185 153.116996 117.310861 
" clip-path="url(#p20d73cbeb3)" style="fill: none; stroke: #000000; stroke-linecap: round"/>
    <path d="M 155.76753 120.912898 
L 153.116996 117.310861 
L 157.588946 117.351657 
z
" clip-path="url(#p20d73cbeb3)" style="stroke: #000000; stroke-linecap: round"/>
   </g>
   <g id="patch_38">
    <path d="M 418.906992 101.336087 
Q 362.219259 110.911561 306.633944 120.30082 
" clip-path="url(#p20d73cbeb3)" style="fill: none; stroke: #000000; stroke-linecap: round"/>
    <path d="M 310.911185 121.606657 
L 306.633944 120.30082 
L 310.244958 117.662529 
z
" clip-path="url(#p20d73cbeb3)" style="stroke: #000000; stroke-linecap: round"/>
   </g>
   <g id="patch_39">
    <path d="M 411.449508 140.804724 
Q 358.48796 130.983882 306.625706 121.366885 
" clip-path="url(#p20d73cbeb3)" style="fill: none; stroke: #000000; stroke-linecap: round"/>
    <path d="M 310.194009 124.062663 
L 306.625706 121.366885 
L 310.92331 120.12971 
z
" clip-path="url(#p20d73cbeb3)" style="stroke: #000000; stroke-linecap: round"/>
   </g>
   <g id="patch_40">
    <path d="M 79.451971 151.962118 
Q 114.059186 134.379048 147.669641 117.302407 
" clip-path="url(#p20d73cbeb3)" style="fill: none; stroke: #000000; stroke-linecap: round"/>
    <path d="M 143.197598 117.331204 
L 147.669641 117.302407 
L 145.009453 120.89732 
z
" clip-path="url(#p20d73cbeb3)" style="stroke: #000000; stroke-linecap: round"/>
   </g>
   <g id="patch_41">
    <path d="M 46.193483 125.505687 
Q 97.328655 120.800743 147.350495 116.198237 
" clip-path="url(#p20d73cbeb3)" style="fill: none; stroke: #000000; stroke-linecap: round"/>
    <path d="M 143.184074 114.573141 
L 147.350495 116.198237 
L 143.550566 118.556316 
z
" clip-path="url(#p20d73cbeb3)" style="stroke: #000000; stroke-linecap: round"/>
   </g>
   <g id="patch_42">
    <path d="M 164.973471 313.679853 
Q 168.280487 270.883202 171.501366 229.201261 
" clip-path="url(#p20d73cbeb3)" style="fill: none; stroke: #000000; stroke-linecap: round"/>
    <path d="M 169.199138 233.035286 
L 171.501366 229.201261 
L 173.187249 233.343459 
z
" clip-path="url(#p20d73cbeb3)" style="stroke: #000000; stroke-linecap: round"/>
   </g>
   <g id="patch_43">
    <path d="M 299.307838 256.401565 
Q 291.890995 221.293885 284.705247 187.280096 
" clip-path="url(#p20d73cbeb3)" style="fill: none; stroke: #000000; stroke-linecap: round"/>
    <path d="M 283.575228 191.60711 
L 284.705247 187.280096 
L 287.488848 190.78032 
z
" clip-path="url(#p20d73cbeb3)" style="stroke: #000000; stroke-linecap: round"/>
   </g>
   <g id="patch_44">
    <path d="M 312.452073 32.455322 
Q 308.132942 75.668578 303.925004 117.769344 
" clip-path="url(#p20d73cbeb3)" style="fill: none; stroke: #000000; stroke-linecap: round"/>
    <path d="M 306.312903 113.988083 
L 303.925004 117.769344 
L 302.332734 113.590268 
z
" clip-path="url(#p20d73cbeb3)" style="stroke: #000000; stroke-linecap: round"/>
   </g>
   <g id="patch_45">
    <path d="M 388.149766 51.803782 
Q 346.634819 85.694996 305.985955 118.879173 
" clip-path="url(#p20d73cbeb3)" style="fill: none; stroke: #000000; stroke-linecap: round"/>
    <path d="M 310.349332 117.898897 
L 305.985955 118.879173 
L 307.819761 114.800306 
z
" clip-path="url(#p20d73cbeb3)" style="stroke: #000000; stroke-linecap: round"/>
   </g>
   <g id="patch_46">
    <path d="M 159.316421 43.625773 
Q 154.973684 78.812294 150.767896 112.889199 
" clip-path="url(#p20d73cbeb3)" style="fill: none; stroke: #000000; stroke-linecap: round"/>
    <path d="M 153.2428 109.164303 
L 150.767896 112.889199 
L 149.272921 108.674339 
z
" clip-path="url(#p20d73cbeb3)" style="stroke: #000000; stroke-linecap: round"/>
   </g>
   <g id="patch_47">
    <path d="M 116.961004 31.791615 
Q 133.319916 72.955055 149.265918 113.079502 
" clip-path="url(#p20d73cbeb3)" style="fill: none; stroke: #000000; stroke-linecap: round"/>
    <path d="M 149.647254 108.623653 
L 149.265918 113.079502 
L 145.930041 110.100924 
z
" clip-path="url(#p20d73cbeb3)" style="stroke: #000000; stroke-linecap: round"/>
   </g>
   <g id="patch_48">
    <path d="M 150.762055 117.818956 
Q 161.065364 171.036652 171.156161 223.156696 
" clip-path="url(#p20d73cbeb3)" style="fill: none; stroke: #000000; stroke-linecap: round"/>
    <path d="M 172.35939 218.849465 
L 171.156161 223.156696 
L 168.432313 219.609774 
z
" clip-path="url(#p20d73cbeb3)" style="stroke: #000000; stroke-linecap: round"/>
   </g>
   <g id="patch_49">
    <path d="M 152.325293 115.979851 
Q 227.005906 118.363913 300.569055 120.712302 
" clip-path="url(#p20d73cbeb3)" style="fill: none; stroke: #000000; stroke-linecap: round"/>
    <path d="M 296.634906 118.585692 
L 300.569055 120.712302 
L 296.507278 122.583655 
z
" clip-path="url(#p20d73cbeb3)" style="stroke: #000000; stroke-linecap: round"/>
   </g>
   <g id="patch_50">
    <path d="M 148.690467 115.003335 
Q 119.452199 99.301755 91.198919 84.129134 
" clip-path="url(#p20d73cbeb3)" style="fill: none; stroke: #000000; stroke-linecap: round"/>
    <path d="M 93.776687 87.783599 
L 91.198919 84.129134 
L 95.669151 84.259598 
z
" clip-path="url(#p20d73cbeb3)" style="stroke: #000000; stroke-linecap: round"/>
   </g>
   <g id="patch_51">
    <path d="M 152.119713 116.800796 
Q 217.232781 150.103221 281.350452 182.896545 
" clip-path="url(#p20d73cbeb3)" style="fill: none; stroke: #000000; stroke-linecap: round"/>
    <path d="M 278.699918 179.294508 
L 281.350452 182.896545 
L 276.878502 182.85575 
z
" clip-path="url(#p20d73cbeb3)" style="stroke: #000000; stroke-linecap: round"/>
   </g>
   <g id="patch_52">
    <path d="M 148.668737 116.794791 
Q 114.061522 134.377861 80.451067 151.454502 
" clip-path="url(#p20d73cbeb3)" style="fill: none; stroke: #000000; stroke-linecap: round"/>
    <path d="M 84.92311 151.425705 
L 80.451067 151.454502 
L 83.111255 147.859589 
z
" clip-path="url(#p20d73cbeb3)" style="stroke: #000000; stroke-linecap: round"/>
   </g>
   <g id="patch_53">
    <path d="M 148.466994 116.095508 
Q 97.331823 120.800452 47.309982 125.402958 
" clip-path="url(#p20d73cbeb3)" style="fill: none; stroke: #000000; stroke-linecap: round"/>
    <path d="M 51.476403 127.028054 
L 47.309982 125.402958 
L 51.109912 123.044879 
z
" clip-path="url(#p20d73cbeb3)" style="stroke: #000000; stroke-linecap: round"/>
   </g>
   <g id="patch_54">
    <path d="M 150.631665 113.992998 
Q 154.974402 78.806478 159.18019 44.729572 
" clip-path="url(#p20d73cbeb3)" style="fill: none; stroke: #000000; stroke-linecap: round"/>
    <path d="M 156.705286 48.454469 
L 159.18019 44.729572 
L 160.675165 48.944433 
z
" clip-path="url(#p20d73cbeb3)" style="stroke: #000000; stroke-linecap: round"/>
   </g>
   <g id="patch_55">
    <path d="M 149.678102 114.116667 
Q 133.31919 72.953227 117.373188 32.82878 
" clip-path="url(#p20d73cbeb3)" style="fill: none; stroke: #000000; stroke-linecap: round"/>
    <path d="M 116.991853 37.284628 
L 117.373188 32.82878 
L 120.709065 35.807357 
z
" clip-path="url(#p20d73cbeb3)" style="stroke: #000000; stroke-linecap: round"/>
   </g>
   <g id="patch_56">
    <path d="M 148.950633 114.627003 
Q 111.434179 81.067106 74.751012 48.252615 
" clip-path="url(#p20d73cbeb3)" style="fill: none; stroke: #000000; stroke-linecap: round"/>
    <path d="M 76.398846 52.410096 
L 74.751012 48.252615 
L 79.065696 49.428836 
z
" clip-path="url(#p20d73cbeb3)" style="stroke: #000000; stroke-linecap: round"/>
   </g>
   <g id="patch_57">
    <path d="M 148.530798 115.400653 
Q 95.191256 100.584847 42.928964 86.068262 
" clip-path="url(#p20d73cbeb3)" style="fill: none; stroke: #000000; stroke-linecap: round"/>
    <path d="M 46.247786 89.065831 
L 42.928964 86.068262 
L 47.318313 85.211746 
z
" clip-path="url(#p20d73cbeb3)" style="stroke: #000000; stroke-linecap: round"/>
   </g>
   <g id="patch_58">
    <path d="M 73.916455 47.506073 
Q 111.43291 81.065971 148.116077 113.880461 
" clip-path="url(#p20d73cbeb3)" style="fill: none; stroke: #000000; stroke-linecap: round"/>
    <path d="M 146.468243 109.722981 
L 148.116077 113.880461 
L 143.801392 112.70424 
z
" clip-path="url(#p20d73cbeb3)" style="stroke: #000000; stroke-linecap: round"/>
   </g>
   <g id="patch_59">
    <path d="M 41.850034 85.768574 
Q 95.189576 100.58438 147.451868 115.100965 
" clip-path="url(#p20d73cbeb3)" style="fill: none; stroke: #000000; stroke-linecap: round"/>
    <path d="M 144.133046 112.103396 
L 147.451868 115.100965 
L 143.06252 115.957482 
z
" clip-path="url(#p20d73cbeb3)" style="stroke: #000000; stroke-linecap: round"/>
   </g>
   <g id="PathCollection_1">
    <defs>
     <path id="m17f5c65bab" d="M 0 1.936492 
C 0.513564 1.936492 1.006162 1.732451 1.369306 1.369306 
C 1.732451 1.006162 1.936492 0.513564 1.936492 0 
C 1.936492 -0.513564 1.732451 -1.006162 1.369306 -1.369306 
C 1.006162 -1.732451 0.513564 -1.936492 0 -1.936492 
C -0.513564 -1.936492 -1.006162 -1.732451 -1.369306 -1.369306 
C -1.732451 -1.006162 -1.936492 -0.513564 -1.936492 0 
C -1.936492 0.513564 -1.732451 1.006162 -1.369306 1.369306 
C -1.006162 1.732451 -0.513564 1.936492 0 1.936492 
z
" style="stroke: #1f78b4"/>
    </defs>
    <g clip-path="url(#p20d73cbeb3)">
     <use xlink:href="#m17f5c65bab" x="203.36948" y="297.611242" style="fill: #1f78b4; stroke: #1f78b4"/>
     <use xlink:href="#m17f5c65bab" x="123.874306" y="304.201817" style="fill: #1f78b4; stroke: #1f78b4"/>
     <use xlink:href="#m17f5c65bab" x="171.736729" y="226.155393" style="fill: #1f78b4; stroke: #1f78b4"/>
     <use xlink:href="#m17f5c65bab" x="80.068007" y="247.079162" style="fill: #1f78b4; stroke: #1f78b4"/>
     <use xlink:href="#m17f5c65bab" x="303.621119" y="120.809735" style="fill: #1f78b4; stroke: #1f78b4"/>
     <use xlink:href="#m17f5c65bab" x="380.60341" y="91.00605" style="fill: #1f78b4; stroke: #1f78b4"/>
     <use xlink:href="#m17f5c65bab" x="346.344884" y="52.712866" style="fill: #1f78b4; stroke: #1f78b4"/>
     <use xlink:href="#m17f5c65bab" x="373.566361" y="158.292631" style="fill: #1f78b4; stroke: #1f78b4"/>
     <use xlink:href="#m17f5c65bab" x="277.390771" y="60.555886" style="fill: #1f78b4; stroke: #1f78b4"/>
     <use xlink:href="#m17f5c65bab" x="346.115805" y="256.496857" style="fill: #1f78b4; stroke: #1f78b4"/>
     <use xlink:href="#m17f5c65bab" x="90.162797" y="282.95365" style="fill: #1f78b4; stroke: #1f78b4"/>
     <use xlink:href="#m17f5c65bab" x="374.824263" y="226.336013" style="fill: #1f78b4; stroke: #1f78b4"/>
     <use xlink:href="#m17f5c65bab" x="88.505809" y="82.682876" style="fill: #1f78b4; stroke: #1f78b4"/>
     <use xlink:href="#m17f5c65bab" x="284.073393" y="184.289207" style="fill: #1f78b4; stroke: #1f78b4"/>
     <use xlink:href="#m17f5c65bab" x="420.813223" y="101.014094" style="fill: #1f78b4; stroke: #1f78b4"/>
     <use xlink:href="#m17f5c65bab" x="413.354982" y="141.158062" style="fill: #1f78b4; stroke: #1f78b4"/>
     <use xlink:href="#m17f5c65bab" x="77.726653" y="152.838709" style="fill: #1f78b4; stroke: #1f78b4"/>
     <use xlink:href="#m17f5c65bab" x="44.266422" y="125.682996" style="fill: #1f78b4; stroke: #1f78b4"/>
     <use xlink:href="#m17f5c65bab" x="164.82433" y="315.609917" style="fill: #1f78b4; stroke: #1f78b4"/>
     <use xlink:href="#m17f5c65bab" x="299.707665" y="258.294147" style="fill: #1f78b4; stroke: #1f78b4"/>
     <use xlink:href="#m17f5c65bab" x="312.644559" y="30.529483" style="fill: #1f78b4; stroke: #1f78b4"/>
     <use xlink:href="#m17f5c65bab" x="389.648845" y="50.579991" style="fill: #1f78b4; stroke: #1f78b4"/>
     <use xlink:href="#m17f5c65bab" x="159.55403" y="41.700572" style="fill: #1f78b4; stroke: #1f78b4"/>
     <use xlink:href="#m17f5c65bab" x="116.245051" y="29.990083" style="fill: #1f78b4; stroke: #1f78b4"/>
     <use xlink:href="#m17f5c65bab" x="150.394055" y="115.918199" style="fill: #1f78b4; stroke: #1f78b4"/>
     <use xlink:href="#m17f5c65bab" x="72.473033" y="46.214877" style="fill: #1f78b4; stroke: #1f78b4"/>
     <use xlink:href="#m17f5c65bab" x="39.986777" y="85.251029" style="fill: #1f78b4; stroke: #1f78b4"/>
    </g>
   </g>
   <g id="text_1">
    <g clip-path="url(#p20d73cbeb3)">
     <!-- 0 -->
     <g transform="translate(200.18823 300.370617) scale(0.1 -0.1)">
      <defs>
       <path id="DejaVuSans-30" d="M 2034 4250 
Q 1547 4250 1301 3770 
Q 1056 3291 1056 2328 
Q 1056 1369 1301 889 
Q 1547 409 2034 409 
Q 2525 409 2770 889 
Q 3016 1369 3016 2328 
Q 3016 3291 2770 3770 
Q 2525 4250 2034 4250 
z
M 2034 4750 
Q 2819 4750 3233 4129 
Q 3647 3509 3647 2328 
Q 3647 1150 3233 529 
Q 2819 -91 2034 -91 
Q 1250 -91 836 529 
Q 422 1150 422 2328 
Q 422 3509 836 4129 
Q 1250 4750 2034 4750 
z
" transform="scale(0.015625)"/>
      </defs>
      <use xlink:href="#DejaVuSans-30"/>
     </g>
    </g>
   </g>
   <g id="text_2">
    <g clip-path="url(#p20d73cbeb3)">
     <!-- 1 -->
     <g transform="translate(120.693056 306.961192) scale(0.1 -0.1)">
      <defs>
       <path id="DejaVuSans-31" d="M 794 531 
L 1825 531 
L 1825 4091 
L 703 3866 
L 703 4441 
L 1819 4666 
L 2450 4666 
L 2450 531 
L 3481 531 
L 3481 0 
L 794 0 
L 794 531 
z
" transform="scale(0.015625)"/>
      </defs>
      <use xlink:href="#DejaVuSans-31"/>
     </g>
    </g>
   </g>
   <g id="text_3">
    <g clip-path="url(#p20d73cbeb3)">
     <!-- 2 -->
     <g transform="translate(168.555479 228.914768) scale(0.1 -0.1)">
      <defs>
       <path id="DejaVuSans-32" d="M 1228 531 
L 3431 531 
L 3431 0 
L 469 0 
L 469 531 
Q 828 903 1448 1529 
Q 2069 2156 2228 2338 
Q 2531 2678 2651 2914 
Q 2772 3150 2772 3378 
Q 2772 3750 2511 3984 
Q 2250 4219 1831 4219 
Q 1534 4219 1204 4116 
Q 875 4013 500 3803 
L 500 4441 
Q 881 4594 1212 4672 
Q 1544 4750 1819 4750 
Q 2544 4750 2975 4387 
Q 3406 4025 3406 3419 
Q 3406 3131 3298 2873 
Q 3191 2616 2906 2266 
Q 2828 2175 2409 1742 
Q 1991 1309 1228 531 
z
" transform="scale(0.015625)"/>
      </defs>
      <use xlink:href="#DejaVuSans-32"/>
     </g>
    </g>
   </g>
   <g id="text_4">
    <g clip-path="url(#p20d73cbeb3)">
     <!-- 3 -->
     <g transform="translate(76.886757 249.838537) scale(0.1 -0.1)">
      <defs>
       <path id="DejaVuSans-33" d="M 2597 2516 
Q 3050 2419 3304 2112 
Q 3559 1806 3559 1356 
Q 3559 666 3084 287 
Q 2609 -91 1734 -91 
Q 1441 -91 1130 -33 
Q 819 25 488 141 
L 488 750 
Q 750 597 1062 519 
Q 1375 441 1716 441 
Q 2309 441 2620 675 
Q 2931 909 2931 1356 
Q 2931 1769 2642 2001 
Q 2353 2234 1838 2234 
L 1294 2234 
L 1294 2753 
L 1863 2753 
Q 2328 2753 2575 2939 
Q 2822 3125 2822 3475 
Q 2822 3834 2567 4026 
Q 2313 4219 1838 4219 
Q 1578 4219 1281 4162 
Q 984 4106 628 3988 
L 628 4550 
Q 988 4650 1302 4700 
Q 1616 4750 1894 4750 
Q 2613 4750 3031 4423 
Q 3450 4097 3450 3541 
Q 3450 3153 3228 2886 
Q 3006 2619 2597 2516 
z
" transform="scale(0.015625)"/>
      </defs>
      <use xlink:href="#DejaVuSans-33"/>
     </g>
    </g>
   </g>
   <g id="text_5">
    <g clip-path="url(#p20d73cbeb3)">
     <!-- 4 -->
     <g transform="translate(300.439869 123.56911) scale(0.1 -0.1)">
      <defs>
       <path id="DejaVuSans-34" d="M 2419 4116 
L 825 1625 
L 2419 1625 
L 2419 4116 
z
M 2253 4666 
L 3047 4666 
L 3047 1625 
L 3713 1625 
L 3713 1100 
L 3047 1100 
L 3047 0 
L 2419 0 
L 2419 1100 
L 313 1100 
L 313 1709 
L 2253 4666 
z
" transform="scale(0.015625)"/>
      </defs>
      <use xlink:href="#DejaVuSans-34"/>
     </g>
    </g>
   </g>
   <g id="text_6">
    <g clip-path="url(#p20d73cbeb3)">
     <!-- 5 -->
     <g transform="translate(377.42216 93.765425) scale(0.1 -0.1)">
      <defs>
       <path id="DejaVuSans-35" d="M 691 4666 
L 3169 4666 
L 3169 4134 
L 1269 4134 
L 1269 2991 
Q 1406 3038 1543 3061 
Q 1681 3084 1819 3084 
Q 2600 3084 3056 2656 
Q 3513 2228 3513 1497 
Q 3513 744 3044 326 
Q 2575 -91 1722 -91 
Q 1428 -91 1123 -41 
Q 819 9 494 109 
L 494 744 
Q 775 591 1075 516 
Q 1375 441 1709 441 
Q 2250 441 2565 725 
Q 2881 1009 2881 1497 
Q 2881 1984 2565 2268 
Q 2250 2553 1709 2553 
Q 1456 2553 1204 2497 
Q 953 2441 691 2322 
L 691 4666 
z
" transform="scale(0.015625)"/>
      </defs>
      <use xlink:href="#DejaVuSans-35"/>
     </g>
    </g>
   </g>
   <g id="text_7">
    <g clip-path="url(#p20d73cbeb3)">
     <!-- 6 -->
     <g transform="translate(343.163634 55.472241) scale(0.1 -0.1)">
      <defs>
       <path id="DejaVuSans-36" d="M 2113 2584 
Q 1688 2584 1439 2293 
Q 1191 2003 1191 1497 
Q 1191 994 1439 701 
Q 1688 409 2113 409 
Q 2538 409 2786 701 
Q 3034 994 3034 1497 
Q 3034 2003 2786 2293 
Q 2538 2584 2113 2584 
z
M 3366 4563 
L 3366 3988 
Q 3128 4100 2886 4159 
Q 2644 4219 2406 4219 
Q 1781 4219 1451 3797 
Q 1122 3375 1075 2522 
Q 1259 2794 1537 2939 
Q 1816 3084 2150 3084 
Q 2853 3084 3261 2657 
Q 3669 2231 3669 1497 
Q 3669 778 3244 343 
Q 2819 -91 2113 -91 
Q 1303 -91 875 529 
Q 447 1150 447 2328 
Q 447 3434 972 4092 
Q 1497 4750 2381 4750 
Q 2619 4750 2861 4703 
Q 3103 4656 3366 4563 
z
" transform="scale(0.015625)"/>
      </defs>
      <use xlink:href="#DejaVuSans-36"/>
     </g>
    </g>
   </g>
   <g id="text_8">
    <g clip-path="url(#p20d73cbeb3)">
     <!-- 7 -->
     <g transform="translate(370.385111 161.052006) scale(0.1 -0.1)">
      <defs>
       <path id="DejaVuSans-37" d="M 525 4666 
L 3525 4666 
L 3525 4397 
L 1831 0 
L 1172 0 
L 2766 4134 
L 525 4134 
L 525 4666 
z
" transform="scale(0.015625)"/>
      </defs>
      <use xlink:href="#DejaVuSans-37"/>
     </g>
    </g>
   </g>
   <g id="text_9">
    <g clip-path="url(#p20d73cbeb3)">
     <!-- 8 -->
     <g transform="translate(274.209521 63.315261) scale(0.1 -0.1)">
      <defs>
       <path id="DejaVuSans-38" d="M 2034 2216 
Q 1584 2216 1326 1975 
Q 1069 1734 1069 1313 
Q 1069 891 1326 650 
Q 1584 409 2034 409 
Q 2484 409 2743 651 
Q 3003 894 3003 1313 
Q 3003 1734 2745 1975 
Q 2488 2216 2034 2216 
z
M 1403 2484 
Q 997 2584 770 2862 
Q 544 3141 544 3541 
Q 544 4100 942 4425 
Q 1341 4750 2034 4750 
Q 2731 4750 3128 4425 
Q 3525 4100 3525 3541 
Q 3525 3141 3298 2862 
Q 3072 2584 2669 2484 
Q 3125 2378 3379 2068 
Q 3634 1759 3634 1313 
Q 3634 634 3220 271 
Q 2806 -91 2034 -91 
Q 1263 -91 848 271 
Q 434 634 434 1313 
Q 434 1759 690 2068 
Q 947 2378 1403 2484 
z
M 1172 3481 
Q 1172 3119 1398 2916 
Q 1625 2713 2034 2713 
Q 2441 2713 2670 2916 
Q 2900 3119 2900 3481 
Q 2900 3844 2670 4047 
Q 2441 4250 2034 4250 
Q 1625 4250 1398 4047 
Q 1172 3844 1172 3481 
z
" transform="scale(0.015625)"/>
      </defs>
      <use xlink:href="#DejaVuSans-38"/>
     </g>
    </g>
   </g>
   <g id="text_10">
    <g clip-path="url(#p20d73cbeb3)">
     <!-- 9 -->
     <g transform="translate(342.934555 259.256232) scale(0.1 -0.1)">
      <defs>
       <path id="DejaVuSans-39" d="M 703 97 
L 703 672 
Q 941 559 1184 500 
Q 1428 441 1663 441 
Q 2288 441 2617 861 
Q 2947 1281 2994 2138 
Q 2813 1869 2534 1725 
Q 2256 1581 1919 1581 
Q 1219 1581 811 2004 
Q 403 2428 403 3163 
Q 403 3881 828 4315 
Q 1253 4750 1959 4750 
Q 2769 4750 3195 4129 
Q 3622 3509 3622 2328 
Q 3622 1225 3098 567 
Q 2575 -91 1691 -91 
Q 1453 -91 1209 -44 
Q 966 3 703 97 
z
M 1959 2075 
Q 2384 2075 2632 2365 
Q 2881 2656 2881 3163 
Q 2881 3666 2632 3958 
Q 2384 4250 1959 4250 
Q 1534 4250 1286 3958 
Q 1038 3666 1038 3163 
Q 1038 2656 1286 2365 
Q 1534 2075 1959 2075 
z
" transform="scale(0.015625)"/>
      </defs>
      <use xlink:href="#DejaVuSans-39"/>
     </g>
    </g>
   </g>
   <g id="text_11">
    <g clip-path="url(#p20d73cbeb3)">
     <!-- 10 -->
     <g transform="translate(83.800297 285.713025) scale(0.1 -0.1)">
      <use xlink:href="#DejaVuSans-31"/>
      <use xlink:href="#DejaVuSans-30" x="63.623047"/>
     </g>
    </g>
   </g>
   <g id="text_12">
    <g clip-path="url(#p20d73cbeb3)">
     <!-- 11 -->
     <g transform="translate(368.461763 229.095388) scale(0.1 -0.1)">
      <use xlink:href="#DejaVuSans-31"/>
      <use xlink:href="#DejaVuSans-31" x="63.623047"/>
     </g>
    </g>
   </g>
   <g id="text_13">
    <g clip-path="url(#p20d73cbeb3)">
     <!-- 12 -->
     <g transform="translate(82.143309 85.442251) scale(0.1 -0.1)">
      <use xlink:href="#DejaVuSans-31"/>
      <use xlink:href="#DejaVuSans-32" x="63.623047"/>
     </g>
    </g>
   </g>
   <g id="text_14">
    <g clip-path="url(#p20d73cbeb3)">
     <!-- 13 -->
     <g transform="translate(277.710893 187.048582) scale(0.1 -0.1)">
      <use xlink:href="#DejaVuSans-31"/>
      <use xlink:href="#DejaVuSans-33" x="63.623047"/>
     </g>
    </g>
   </g>
   <g id="text_15">
    <g clip-path="url(#p20d73cbeb3)">
     <!-- 14 -->
     <g transform="translate(414.450723 103.773469) scale(0.1 -0.1)">
      <use xlink:href="#DejaVuSans-31"/>
      <use xlink:href="#DejaVuSans-34" x="63.623047"/>
     </g>
    </g>
   </g>
   <g id="text_16">
    <g clip-path="url(#p20d73cbeb3)">
     <!-- 15 -->
     <g transform="translate(406.992482 143.917437) scale(0.1 -0.1)">
      <use xlink:href="#DejaVuSans-31"/>
      <use xlink:href="#DejaVuSans-35" x="63.623047"/>
     </g>
    </g>
   </g>
   <g id="text_17">
    <g clip-path="url(#p20d73cbeb3)">
     <!-- 16 -->
     <g transform="translate(71.364153 155.598084) scale(0.1 -0.1)">
      <use xlink:href="#DejaVuSans-31"/>
      <use xlink:href="#DejaVuSans-36" x="63.623047"/>
     </g>
    </g>
   </g>
   <g id="text_18">
    <g clip-path="url(#p20d73cbeb3)">
     <!-- 17 -->
     <g transform="translate(37.903922 128.442371) scale(0.1 -0.1)">
      <use xlink:href="#DejaVuSans-31"/>
      <use xlink:href="#DejaVuSans-37" x="63.623047"/>
     </g>
    </g>
   </g>
   <g id="text_19">
    <g clip-path="url(#p20d73cbeb3)">
     <!-- 18 -->
     <g transform="translate(158.46183 318.369292) scale(0.1 -0.1)">
      <use xlink:href="#DejaVuSans-31"/>
      <use xlink:href="#DejaVuSans-38" x="63.623047"/>
     </g>
    </g>
   </g>
   <g id="text_20">
    <g clip-path="url(#p20d73cbeb3)">
     <!-- 19 -->
     <g transform="translate(293.345165 261.053522) scale(0.1 -0.1)">
      <use xlink:href="#DejaVuSans-31"/>
      <use xlink:href="#DejaVuSans-39" x="63.623047"/>
     </g>
    </g>
   </g>
   <g id="text_21">
    <g clip-path="url(#p20d73cbeb3)">
     <!-- 20 -->
     <g transform="translate(306.282059 33.288858) scale(0.1 -0.1)">
      <use xlink:href="#DejaVuSans-32"/>
      <use xlink:href="#DejaVuSans-30" x="63.623047"/>
     </g>
    </g>
   </g>
   <g id="text_22">
    <g clip-path="url(#p20d73cbeb3)">
     <!-- 21 -->
     <g transform="translate(383.286345 53.339366) scale(0.1 -0.1)">
      <use xlink:href="#DejaVuSans-32"/>
      <use xlink:href="#DejaVuSans-31" x="63.623047"/>
     </g>
    </g>
   </g>
   <g id="text_23">
    <g clip-path="url(#p20d73cbeb3)">
     <!-- 22 -->
     <g transform="translate(153.19153 44.459947) scale(0.1 -0.1)">
      <use xlink:href="#DejaVuSans-32"/>
      <use xlink:href="#DejaVuSans-32" x="63.623047"/>
     </g>
    </g>
   </g>
   <g id="text_24">
    <g clip-path="url(#p20d73cbeb3)">
     <!-- 23 -->
     <g transform="translate(109.882551 32.749458) scale(0.1 -0.1)">
      <use xlink:href="#DejaVuSans-32"/>
      <use xlink:href="#DejaVuSans-33" x="63.623047"/>
     </g>
    </g>
   </g>
   <g id="text_25">
    <g clip-path="url(#p20d73cbeb3)">
     <!-- 24 -->
     <g transform="translate(144.031555 118.677574) scale(0.1 -0.1)">
      <use xlink:href="#DejaVuSans-32"/>
      <use xlink:href="#DejaVuSans-34" x="63.623047"/>
     </g>
    </g>
   </g>
   <g id="text_26">
    <g clip-path="url(#p20d73cbeb3)">
     <!-- 25 -->
     <g transform="translate(66.110533 48.974252) scale(0.1 -0.1)">
      <use xlink:href="#DejaVuSans-32"/>
      <use xlink:href="#DejaVuSans-35" x="63.623047"/>
     </g>
    </g>
   </g>
   <g id="text_27">
    <g clip-path="url(#p20d73cbeb3)">
     <!-- 26 -->
     <g transform="translate(33.624277 88.010404) scale(0.1 -0.1)">
      <use xlink:href="#DejaVuSans-32"/>
      <use xlink:href="#DejaVuSans-36" x="63.623047"/>
     </g>
    </g>
   </g>
  </g>
 </g>
 <defs>
  <clipPath id="p20d73cbeb3">
   <rect x="0" y="0" width="460.8" height="345.6"/>
  </clipPath>
 </defs>
</svg>
