<?xml version="1.0" encoding="utf-8" standalone="no"?>
<!DOCTYPE svg PUBLIC "-//W3C//DTD SVG 1.1//EN"
  "http://www.w3.org/Graphics/SVG/1.1/DTD/svg11.dtd">
<svg xmlns:xlink="http://www.w3.org/1999/xlink" width="460.8pt" height="345.6pt" viewBox="0 0 460.8 345.6" xmlns="http://www.w3.org/2000/svg" version="1.1">
 <metadata>
  <rdf:RDF xmlns:dc="http://purl.org/dc/elements/1.1/" xmlns:cc="http://creativecommons.org/ns#" xmlns:rdf="http://www.w3.org/1999/02/22-rdf-syntax-ns#">
   <cc:Work>
    <dc:type rdf:resource="http://purl.org/dc/dcmitype/StillImage"/>
    <dc:date>2024-02-28T11:17:46.885639</dc:date>
    <dc:format>image/svg+xml</dc:format>
    <dc:creator>
     <cc:Agent>
      <dc:title>Matplotlib v3.8.0, https://matplotlib.org/</dc:title>
     </cc:Agent>
    </dc:creator>
   </cc:Work>
  </rdf:RDF>
 </metadata>
 <defs>
  <style type="text/css">*{stroke-linejoin: round; stroke-linecap: butt}</style>
 </defs>
 <g id="figure_1">
  <g id="patch_1">
   <path d="M 0 345.6 
L 460.8 345.6 
L 460.8 0 
L 0 0 
z
" style="fill: #ffffff"/>
  </g>
  <g id="axes_1">
   <g id="patch_2">
    <path d="M 312.21748 267.997102 
Q 299.040777 259.810517 286.813744 252.213954 
" clip-path="url(#p18595ed290)" style="fill: none; stroke: #000000; stroke-linecap: round"/>
    <path d="M 289.155922 256.023705 
L 286.813744 252.213954 
L 291.266852 252.626062 
z
" clip-path="url(#p18595ed290)" style="stroke: #000000; stroke-linecap: round"/>
   </g>
   <g id="patch_3">
    <path d="M 270.728773 309.106968 
Q 277.256679 280.799266 283.533354 253.581006 
" clip-path="url(#p18595ed290)" style="fill: none; stroke: #000000; stroke-linecap: round"/>
    <path d="M 280.68567 257.029295 
L 283.533354 253.581006 
L 284.583375 257.928126 
z
" clip-path="url(#p18595ed290)" style="stroke: #000000; stroke-linecap: round"/>
   </g>
   <g id="patch_4">
    <path d="M 293.379716 211.543795 
Q 289.020779 230.131532 284.917103 247.630766 
" clip-path="url(#p18595ed290)" style="fill: none; stroke: #000000; stroke-linecap: round"/>
    <path d="M 287.777528 244.193039 
L 284.917103 247.630766 
L 283.883176 243.279789 
z
" clip-path="url(#p18595ed290)" style="stroke: #000000; stroke-linecap: round"/>
   </g>
   <g id="patch_5">
    <path d="M 254.471698 221.956185 
Q 268.647806 235.607118 282.018568 248.482539 
" clip-path="url(#p18595ed290)" style="fill: none; stroke: #000000; stroke-linecap: round"/>
    <path d="M 280.52455 244.267339 
L 282.018568 248.482539 
L 277.749997 247.148634 
z
" clip-path="url(#p18595ed290)" style="stroke: #000000; stroke-linecap: round"/>
   </g>
   <g id="patch_6">
    <path d="M 315.861304 174.7238 
Q 300.41299 211.770521 285.394978 247.785332 
" clip-path="url(#p18595ed290)" style="fill: none; stroke: #000000; stroke-linecap: round"/>
    <path d="M 288.780412 244.863203 
L 285.394978 247.785332 
L 285.088535 243.323707 
z
" clip-path="url(#p18595ed290)" style="stroke: #000000; stroke-linecap: round"/>
   </g>
   <g id="patch_7">
    <path d="M 317.567768 171.252014 
Q 333.379718 143.550844 348.637425 116.820661 
" clip-path="url(#p18595ed290)" style="fill: none; stroke: #000000; stroke-linecap: round"/>
    <path d="M 344.917551 119.303106 
L 348.637425 116.820661 
L 348.391457 121.286027 
z
" clip-path="url(#p18595ed290)" style="stroke: #000000; stroke-linecap: round"/>
   </g>
   <g id="patch_8">
    <path d="M 337.473874 188.902969 
Q 354.246387 162.118158 370.42553 136.280929 
" clip-path="url(#p18595ed290)" style="fill: none; stroke: #000000; stroke-linecap: round"/>
    <path d="M 366.607536 138.609647 
L 370.42553 136.280929 
L 369.997707 140.732555 
z
" clip-path="url(#p18595ed290)" style="stroke: #000000; stroke-linecap: round"/>
   </g>
   <g id="patch_9">
    <path d="M 335.174243 192.006868 
Q 310.333209 220.573359 286.225816 248.296186 
" clip-path="url(#p18595ed290)" style="fill: none; stroke: #000000; stroke-linecap: round"/>
    <path d="M 290.359763 246.590171 
L 286.225816 248.296186 
L 287.341372 243.96542 
z
" clip-path="url(#p18595ed290)" style="stroke: #000000; stroke-linecap: round"/>
   </g>
   <g id="patch_10">
    <path d="M 332.796938 253.770028 
Q 309.473636 252.249241 287.265998 250.8012 
" clip-path="url(#p18595ed290)" style="fill: none; stroke: #000000; stroke-linecap: round"/>
    <path d="M 291.127389 253.057227 
L 287.265998 250.8012 
L 291.387655 249.065704 
z
" clip-path="url(#p18595ed290)" style="stroke: #000000; stroke-linecap: round"/>
   </g>
   <g id="patch_11">
    <path d="M 349.192024 115.849051 
Q 333.380074 143.550221 318.122367 170.280404 
" clip-path="url(#p18595ed290)" style="fill: none; stroke: #000000; stroke-linecap: round"/>
    <path d="M 321.842241 167.797959 
L 318.122367 170.280404 
L 318.368335 165.815038 
z
" clip-path="url(#p18595ed290)" style="stroke: #000000; stroke-linecap: round"/>
   </g>
   <g id="patch_12">
    <path d="M 351.532187 112.810411 
Q 368.4149 96.215642 384.500274 80.404614 
" clip-path="url(#p18595ed290)" style="fill: none; stroke: #000000; stroke-linecap: round"/>
    <path d="M 380.245627 81.782285 
L 384.500274 80.404614 
L 383.049623 84.634934 
z
" clip-path="url(#p18595ed290)" style="stroke: #000000; stroke-linecap: round"/>
   </g>
   <g id="patch_13">
    <path d="M 371.018771 135.333554 
Q 354.246258 162.118365 338.067115 187.955594 
" clip-path="url(#p18595ed290)" style="fill: none; stroke: #000000; stroke-linecap: round"/>
    <path d="M 341.885109 185.626877 
L 338.067115 187.955594 
L 338.494938 183.503968 
z
" clip-path="url(#p18595ed290)" style="stroke: #000000; stroke-linecap: round"/>
   </g>
   <g id="patch_14">
    <path d="M 372.540352 131.821457 
Q 379.361421 105.979806 385.897151 81.219165 
" clip-path="url(#p18595ed290)" style="fill: none; stroke: #000000; stroke-linecap: round"/>
    <path d="M 382.942521 84.576272 
L 385.897151 81.219165 
L 386.810058 85.597133 
z
" clip-path="url(#p18595ed290)" style="stroke: #000000; stroke-linecap: round"/>
   </g>
   <g id="patch_15">
    <path d="M 313.404617 299.796132 
Q 299.306708 276.032569 285.779248 253.23056 
" clip-path="url(#p18595ed290)" style="fill: none; stroke: #000000; stroke-linecap: round"/>
    <path d="M 286.100069 257.691174 
L 285.779248 253.23056 
L 289.540231 255.650272 
z
" clip-path="url(#p18595ed290)" style="stroke: #000000; stroke-linecap: round"/>
   </g>
   <g id="patch_16">
    <path d="M 329.737209 282.865047 
Q 307.76908 267.294044 286.713094 252.369568 
" clip-path="url(#p18595ed290)" style="fill: none; stroke: #000000; stroke-linecap: round"/>
    <path d="M 288.819932 256.31434 
L 286.713094 252.369568 
L 291.133015 253.050961 
z
" clip-path="url(#p18595ed290)" style="stroke: #000000; stroke-linecap: round"/>
   </g>
   <g id="patch_17">
    <path d="M 396.628841 31.884666 
Q 391.856046 54.127979 387.317812 75.278139 
" clip-path="url(#p18595ed290)" style="fill: none; stroke: #000000; stroke-linecap: round"/>
    <path d="M 390.112489 71.786753 
L 387.317812 75.278139 
L 386.201509 70.947566 
z
" clip-path="url(#p18595ed290)" style="stroke: #000000; stroke-linecap: round"/>
   </g>
   <g id="patch_18">
    <path d="M 385.296961 79.621515 
Q 368.414247 96.216284 352.328873 112.027312 
" clip-path="url(#p18595ed290)" style="fill: none; stroke: #000000; stroke-linecap: round"/>
    <path d="M 356.58352 110.649641 
L 352.328873 112.027312 
L 353.779525 107.796992 
z
" clip-path="url(#p18595ed290)" style="stroke: #000000; stroke-linecap: round"/>
   </g>
   <g id="patch_19">
    <path d="M 386.183079 80.135923 
Q 379.36201 105.977574 372.826281 130.738215 
" clip-path="url(#p18595ed290)" style="fill: none; stroke: #000000; stroke-linecap: round"/>
    <path d="M 375.780911 127.381108 
L 372.826281 130.738215 
L 371.913374 126.360247 
z
" clip-path="url(#p18595ed290)" style="stroke: #000000; stroke-linecap: round"/>
   </g>
   <g id="patch_20">
    <path d="M 387.083414 76.370539 
Q 391.856208 54.127226 396.394442 32.977066 
" clip-path="url(#p18595ed290)" style="fill: none; stroke: #000000; stroke-linecap: round"/>
    <path d="M 393.599765 36.468452 
L 396.394442 32.977066 
L 397.510745 37.307639 
z
" clip-path="url(#p18595ed290)" style="stroke: #000000; stroke-linecap: round"/>
   </g>
   <g id="patch_21">
    <path d="M 388.183271 77.04539 
Q 403.746428 64.443756 418.440677 52.545684 
" clip-path="url(#p18595ed290)" style="fill: none; stroke: #000000; stroke-linecap: round"/>
    <path d="M 414.073409 53.508477 
L 418.440677 52.545684 
L 416.590551 56.617174 
z
" clip-path="url(#p18595ed290)" style="stroke: #000000; stroke-linecap: round"/>
   </g>
   <g id="patch_22">
    <path d="M 256.81492 286.702252 
Q 269.931279 269.424699 282.371611 253.037644 
" clip-path="url(#p18595ed290)" style="fill: none; stroke: #000000; stroke-linecap: round"/>
    <path d="M 278.360011 255.014273 
L 282.371611 253.037644 
L 281.545955 257.432902 
z
" clip-path="url(#p18595ed290)" style="stroke: #000000; stroke-linecap: round"/>
   </g>
   <g id="patch_23">
    <path d="M 318.721153 231.649799 
Q 302.319298 240.660014 286.897354 249.131923 
" clip-path="url(#p18595ed290)" style="fill: none; stroke: #000000; stroke-linecap: round"/>
    <path d="M 291.366143 248.95894 
L 286.897354 249.131923 
L 289.440242 245.453102 
z
" clip-path="url(#p18595ed290)" style="stroke: #000000; stroke-linecap: round"/>
   </g>
   <g id="patch_24">
    <path d="M 296.076409 313.709374 
Q 290.327402 283.10929 284.784835 253.608016 
" clip-path="url(#p18595ed290)" style="fill: none; stroke: #000000; stroke-linecap: round"/>
    <path d="M 283.557804 257.908527 
L 284.784835 253.608016 
L 287.489026 257.169947 
z
" clip-path="url(#p18595ed290)" style="stroke: #000000; stroke-linecap: round"/>
   </g>
   <g id="patch_25">
    <path d="M 285.611706 289.999441 
Q 284.950176 271.270071 284.32811 253.658038 
" clip-path="url(#p18595ed290)" style="fill: none; stroke: #000000; stroke-linecap: round"/>
    <path d="M 282.47055 257.726142 
L 284.32811 253.658038 
L 286.468058 257.584948 
z
" clip-path="url(#p18595ed290)" style="stroke: #000000; stroke-linecap: round"/>
   </g>
   <g id="patch_26">
    <path d="M 41.864922 217.679208 
Q 60.41854 222.364704 77.888155 226.776449 
" clip-path="url(#p18595ed290)" style="fill: none; stroke: #000000; stroke-linecap: round"/>
    <path d="M 74.499615 223.857923 
L 77.888155 226.776449 
L 73.52021 227.736166 
z
" clip-path="url(#p18595ed290)" style="stroke: #000000; stroke-linecap: round"/>
   </g>
   <g id="patch_27">
    <path d="M 108.454952 177.199786 
Q 121.300966 192.861758 133.437951 207.659277 
" clip-path="url(#p18595ed290)" style="fill: none; stroke: #000000; stroke-linecap: round"/>
    <path d="M 132.447636 203.298167 
L 133.437951 207.659277 
L 129.354875 205.834863 
z
" clip-path="url(#p18595ed290)" style="stroke: #000000; stroke-linecap: round"/>
   </g>
   <g id="patch_28">
    <path d="M 419.306841 51.844343 
Q 403.743684 64.445978 389.049435 76.34405 
" clip-path="url(#p18595ed290)" style="fill: none; stroke: #000000; stroke-linecap: round"/>
    <path d="M 393.416703 75.381257 
L 389.049435 76.34405 
L 390.899561 72.272559 
z
" clip-path="url(#p18595ed290)" style="stroke: #000000; stroke-linecap: round"/>
   </g>
   <g id="patch_29">
    <path d="M 285.866664 251.62554 
Q 299.043367 259.812126 311.2704 267.408688 
" clip-path="url(#p18595ed290)" style="fill: none; stroke: #000000; stroke-linecap: round"/>
    <path d="M 308.928222 263.598937 
L 311.2704 267.408688 
L 306.817292 266.99658 
z
" clip-path="url(#p18595ed290)" style="stroke: #000000; stroke-linecap: round"/>
   </g>
   <g id="patch_30">
    <path d="M 283.785861 252.486032 
Q 277.257955 280.793734 270.98128 308.011994 
" clip-path="url(#p18595ed290)" style="fill: none; stroke: #000000; stroke-linecap: round"/>
    <path d="M 273.828964 304.563705 
L 270.98128 308.011994 
L 269.931259 303.664874 
z
" clip-path="url(#p18595ed290)" style="stroke: #000000; stroke-linecap: round"/>
   </g>
   <g id="patch_31">
    <path d="M 284.662665 248.71576 
Q 289.021603 230.128023 293.125279 212.628789 
" clip-path="url(#p18595ed290)" style="fill: none; stroke: #000000; stroke-linecap: round"/>
    <path d="M 290.264854 216.066517 
L 293.125279 212.628789 
L 294.159206 216.979766 
z
" clip-path="url(#p18595ed290)" style="stroke: #000000; stroke-linecap: round"/>
   </g>
   <g id="patch_32">
    <path d="M 282.826948 249.260971 
Q 268.650839 235.610039 255.280078 222.734617 
" clip-path="url(#p18595ed290)" style="fill: none; stroke: #000000; stroke-linecap: round"/>
    <path d="M 256.774096 226.949817 
L 255.280078 222.734617 
L 259.548648 224.068523 
z
" clip-path="url(#p18595ed290)" style="stroke: #000000; stroke-linecap: round"/>
   </g>
   <g id="patch_33">
    <path d="M 284.96642 248.81306 
Q 300.414734 211.766339 315.432746 175.751529 
" clip-path="url(#p18595ed290)" style="fill: none; stroke: #000000; stroke-linecap: round"/>
    <path d="M 312.047312 178.673657 
L 315.432746 175.751529 
L 315.739188 180.213153 
z
" clip-path="url(#p18595ed290)" style="stroke: #000000; stroke-linecap: round"/>
   </g>
   <g id="patch_34">
    <path d="M 285.49205 249.139997 
Q 310.333083 220.573505 334.440477 192.850679 
" clip-path="url(#p18595ed290)" style="fill: none; stroke: #000000; stroke-linecap: round"/>
    <path d="M 330.30653 194.556693 
L 334.440477 192.850679 
L 333.32492 197.181445 
z
" clip-path="url(#p18595ed290)" style="stroke: #000000; stroke-linecap: round"/>
   </g>
   <g id="patch_35">
    <path d="M 286.153149 250.728637 
Q 309.476451 252.249424 331.684088 253.697465 
" clip-path="url(#p18595ed290)" style="fill: none; stroke: #000000; stroke-linecap: round"/>
    <path d="M 327.822698 251.441437 
L 331.684088 253.697465 
L 327.562432 255.432961 
z
" clip-path="url(#p18595ed290)" style="stroke: #000000; stroke-linecap: round"/>
   </g>
   <g id="patch_36">
    <path d="M 285.20915 252.269597 
Q 299.307059 276.033161 312.834518 298.835169 
" clip-path="url(#p18595ed290)" style="fill: none; stroke: #000000; stroke-linecap: round"/>
    <path d="M 312.513698 294.374555 
L 312.834518 298.835169 
L 309.073535 296.415457 
z
" clip-path="url(#p18595ed290)" style="stroke: #000000; stroke-linecap: round"/>
   </g>
   <g id="patch_37">
    <path d="M 285.798267 251.721139 
Q 307.766396 267.292142 328.822382 282.216618 
" clip-path="url(#p18595ed290)" style="fill: none; stroke: #000000; stroke-linecap: round"/>
    <path d="M 326.715544 278.271846 
L 328.822382 282.216618 
L 324.402461 281.535226 
z
" clip-path="url(#p18595ed290)" style="stroke: #000000; stroke-linecap: round"/>
   </g>
   <g id="patch_38">
    <path d="M 283.04989 252.14418 
Q 269.933531 269.421733 257.493199 285.808788 
" clip-path="url(#p18595ed290)" style="fill: none; stroke: #000000; stroke-linecap: round"/>
    <path d="M 261.504799 283.832159 
L 257.493199 285.808788 
L 258.318855 281.41353 
z
" clip-path="url(#p18595ed290)" style="stroke: #000000; stroke-linecap: round"/>
   </g>
   <g id="patch_39">
    <path d="M 285.919277 249.66922 
Q 302.321133 240.659006 317.743076 232.187097 
" clip-path="url(#p18595ed290)" style="fill: none; stroke: #000000; stroke-linecap: round"/>
    <path d="M 313.274287 232.360079 
L 317.743076 232.187097 
L 315.200188 235.865918 
z
" clip-path="url(#p18595ed290)" style="stroke: #000000; stroke-linecap: round"/>
   </g>
   <g id="patch_40">
    <path d="M 284.577256 252.503142 
Q 290.326263 283.103226 295.86883 312.6045 
" clip-path="url(#p18595ed290)" style="fill: none; stroke: #000000; stroke-linecap: round"/>
    <path d="M 297.095861 308.303989 
L 295.86883 312.6045 
L 293.16464 309.042569 
z
" clip-path="url(#p18595ed290)" style="stroke: #000000; stroke-linecap: round"/>
   </g>
   <g id="patch_41">
    <path d="M 284.288532 252.537502 
Q 284.950063 271.266872 285.572128 288.878906 
" clip-path="url(#p18595ed290)" style="fill: none; stroke: #000000; stroke-linecap: round"/>
    <path d="M 287.429688 284.810801 
L 285.572128 288.878906 
L 283.432181 284.951995 
z
" clip-path="url(#p18595ed290)" style="stroke: #000000; stroke-linecap: round"/>
   </g>
   <g id="patch_42">
    <path d="M 283.691952 248.737675 
Q 277.161003 225.680415 270.934748 203.698869 
" clip-path="url(#p18595ed290)" style="fill: none; stroke: #000000; stroke-linecap: round"/>
    <path d="M 270.100563 208.092516 
L 270.934748 203.698869 
L 273.949155 207.002405 
z
" clip-path="url(#p18595ed290)" style="stroke: #000000; stroke-linecap: round"/>
   </g>
   <g id="patch_43">
    <path d="M 282.291844 250.812732 
Q 267.00965 252.478046 252.838909 254.022244 
" clip-path="url(#p18595ed290)" style="fill: none; stroke: #000000; stroke-linecap: round"/>
    <path d="M 257.032029 255.577156 
L 252.838909 254.022244 
L 256.59871 251.600696 
z
" clip-path="url(#p18595ed290)" style="stroke: #000000; stroke-linecap: round"/>
   </g>
   <g id="patch_44">
    <path d="M 282.476889 251.45184 
Q 250.772102 266.896684 220.072428 281.851891 
" clip-path="url(#p18595ed290)" style="fill: none; stroke: #000000; stroke-linecap: round"/>
    <path d="M 224.544326 281.898116 
L 220.072428 281.851891 
L 222.792547 278.302108 
z
" clip-path="url(#p18595ed290)" style="stroke: #000000; stroke-linecap: round"/>
   </g>
   <g id="patch_45">
    <path d="M 282.369661 250.026186 
Q 244.99562 238.384721 208.689028 227.07575 
" clip-path="url(#p18595ed290)" style="fill: none; stroke: #000000; stroke-linecap: round"/>
    <path d="M 211.913265 230.17483 
L 208.689028 227.07575 
L 213.102834 226.355808 
z
" clip-path="url(#p18595ed290)" style="stroke: #000000; stroke-linecap: round"/>
   </g>
   <g id="patch_46">
    <path d="M 270.629909 202.622647 
Q 277.160859 225.679907 283.387113 247.661453 
" clip-path="url(#p18595ed290)" style="fill: none; stroke: #000000; stroke-linecap: round"/>
    <path d="M 284.221299 243.267806 
L 283.387113 247.661453 
L 280.372707 244.357917 
z
" clip-path="url(#p18595ed290)" style="stroke: #000000; stroke-linecap: round"/>
   </g>
   <g id="patch_47">
    <path d="M 78.973883 227.050637 
Q 60.420266 222.36514 42.95065 217.953396 
" clip-path="url(#p18595ed290)" style="fill: none; stroke: #000000; stroke-linecap: round"/>
    <path d="M 46.339191 220.871921 
L 42.95065 217.953396 
L 47.318595 216.993679 
z
" clip-path="url(#p18595ed290)" style="stroke: #000000; stroke-linecap: round"/>
   </g>
   <g id="patch_48">
    <path d="M 82.698945 226.931973 
Q 108.115521 218.771775 132.467583 210.953348 
" clip-path="url(#p18595ed290)" style="fill: none; stroke: #000000; stroke-linecap: round"/>
    <path d="M 128.047679 210.271843 
L 132.467583 210.953348 
L 129.270436 214.080368 
z
" clip-path="url(#p18595ed290)" style="stroke: #000000; stroke-linecap: round"/>
   </g>
   <g id="patch_49">
    <path d="M 80.707104 229.455647 
Q 79.103606 250.817656 77.583796 271.064768 
" clip-path="url(#p18595ed290)" style="fill: none; stroke: #000000; stroke-linecap: round"/>
    <path d="M 79.877595 267.225694 
L 77.583796 271.064768 
L 75.888816 266.926284 
z
" clip-path="url(#p18595ed290)" style="stroke: #000000; stroke-linecap: round"/>
   </g>
   <g id="patch_50">
    <path d="M 77.499976 272.18142 
Q 79.103474 250.81941 80.623284 230.572299 
" clip-path="url(#p18595ed290)" style="fill: none; stroke: #000000; stroke-linecap: round"/>
    <path d="M 78.329485 234.411372 
L 80.623284 230.572299 
L 82.318264 234.710782 
z
" clip-path="url(#p18595ed290)" style="stroke: #000000; stroke-linecap: round"/>
   </g>
   <g id="patch_51">
    <path d="M 78.844767 275.35006 
Q 94.141266 288.06125 108.577876 300.057882 
" clip-path="url(#p18595ed290)" style="fill: none; stroke: #000000; stroke-linecap: round"/>
    <path d="M 106.779681 295.963191 
L 108.577876 300.057882 
L 104.223206 299.039624 
z
" clip-path="url(#p18595ed290)" style="stroke: #000000; stroke-linecap: round"/>
   </g>
   <g id="patch_52">
    <path d="M 109.438241 300.772835 
Q 94.141742 288.061645 79.705133 276.065013 
" clip-path="url(#p18595ed290)" style="fill: none; stroke: #000000; stroke-linecap: round"/>
    <path d="M 81.503328 280.159704 
L 79.705133 276.065013 
L 84.059803 277.083271 
z
" clip-path="url(#p18595ed290)" style="stroke: #000000; stroke-linecap: round"/>
   </g>
   <g id="patch_53">
    <path d="M 112.866772 302.018395 
Q 135.553032 302.107634 157.121267 302.192475 
" clip-path="url(#p18595ed290)" style="fill: none; stroke: #000000; stroke-linecap: round"/>
    <path d="M 153.129165 300.176756 
L 157.121267 302.192475 
L 153.113431 304.176726 
z
" clip-path="url(#p18595ed290)" style="stroke: #000000; stroke-linecap: round"/>
   </g>
   <g id="patch_54">
    <path d="M 251.73239 254.142823 
Q 267.014585 252.477509 281.185325 250.933311 
" clip-path="url(#p18595ed290)" style="fill: none; stroke: #000000; stroke-linecap: round"/>
    <path d="M 276.992206 249.378399 
L 281.185325 250.933311 
L 277.425524 253.354859 
z
" clip-path="url(#p18595ed290)" style="stroke: #000000; stroke-linecap: round"/>
   </g>
   <g id="patch_55">
    <path d="M 219.072985 282.338765 
Q 250.777773 266.893921 281.477446 251.938714 
" clip-path="url(#p18595ed290)" style="fill: none; stroke: #000000; stroke-linecap: round"/>
    <path d="M 277.005549 251.892489 
L 281.477446 251.938714 
L 278.757328 255.488497 
z
" clip-path="url(#p18595ed290)" style="stroke: #000000; stroke-linecap: round"/>
   </g>
   <g id="patch_56">
    <path d="M 215.491333 283.799682 
Q 188.75409 292.695978 163.077699 301.239296 
" clip-path="url(#p18595ed290)" style="fill: none; stroke: #000000; stroke-linecap: round"/>
    <path d="M 167.504544 301.874154 
L 163.077699 301.239296 
L 166.241692 298.078735 
z
" clip-path="url(#p18595ed290)" style="stroke: #000000; stroke-linecap: round"/>
   </g>
   <g id="patch_57">
    <path d="M 158.238043 302.196868 
Q 135.551782 302.107629 113.983547 302.022788 
" clip-path="url(#p18595ed290)" style="fill: none; stroke: #000000; stroke-linecap: round"/>
    <path d="M 117.975649 304.038507 
L 113.983547 302.022788 
L 117.991384 300.038538 
z
" clip-path="url(#p18595ed290)" style="stroke: #000000; stroke-linecap: round"/>
   </g>
   <g id="patch_58">
    <path d="M 162.015209 301.592819 
Q 188.752451 292.696523 214.428842 284.153205 
" clip-path="url(#p18595ed290)" style="fill: none; stroke: #000000; stroke-linecap: round"/>
    <path d="M 210.001998 283.518347 
L 214.428842 284.153205 
L 211.264849 287.313766 
z
" clip-path="url(#p18595ed290)" style="stroke: #000000; stroke-linecap: round"/>
   </g>
   <g id="patch_59">
    <path d="M 134.14595 208.522475 
Q 121.299936 192.860503 109.162951 178.062985 
" clip-path="url(#p18595ed290)" style="fill: none; stroke: #000000; stroke-linecap: round"/>
    <path d="M 110.153266 182.424094 
L 109.162951 178.062985 
L 113.246027 179.887398 
z
" clip-path="url(#p18595ed290)" style="stroke: #000000; stroke-linecap: round"/>
   </g>
   <g id="patch_60">
    <path d="M 133.527405 210.613083 
Q 108.110829 218.773281 83.758767 226.591708 
" clip-path="url(#p18595ed290)" style="fill: none; stroke: #000000; stroke-linecap: round"/>
    <path d="M 88.178671 227.273213 
L 83.758767 226.591708 
L 86.955913 223.464688 
z
" clip-path="url(#p18595ed290)" style="stroke: #000000; stroke-linecap: round"/>
   </g>
   <g id="patch_61">
    <path d="M 137.260667 210.452791 
Q 170.574825 218.094131 202.799248 225.485516 
" clip-path="url(#p18595ed290)" style="fill: none; stroke: #000000; stroke-linecap: round"/>
    <path d="M 199.347626 222.641873 
L 202.799248 225.485516 
L 198.45336 226.540627 
z
" clip-path="url(#p18595ed290)" style="stroke: #000000; stroke-linecap: round"/>
   </g>
   <g id="patch_62">
    <path d="M 207.625496 226.744475 
Q 244.999537 238.385941 281.306129 249.694911 
" clip-path="url(#p18595ed290)" style="fill: none; stroke: #000000; stroke-linecap: round"/>
    <path d="M 278.081892 246.595831 
L 281.306129 249.694911 
L 276.892323 250.414853 
z
" clip-path="url(#p18595ed290)" style="stroke: #000000; stroke-linecap: round"/>
   </g>
   <g id="patch_63">
    <path d="M 203.888621 225.735387 
Q 170.574463 218.094048 138.35004 210.702663 
" clip-path="url(#p18595ed290)" style="fill: none; stroke: #000000; stroke-linecap: round"/>
    <path d="M 141.801662 213.546306 
L 138.35004 210.702663 
L 142.695927 209.647551 
z
" clip-path="url(#p18595ed290)" style="stroke: #000000; stroke-linecap: round"/>
   </g>
   <g id="PathCollection_1">
    <defs>
     <path id="m5fd902b344" d="M 0 1.936492 
C 0.513564 1.936492 1.006162 1.732451 1.369306 1.369306 
C 1.732451 1.006162 1.936492 0.513564 1.936492 0 
C 1.936492 -0.513564 1.732451 -1.006162 1.369306 -1.369306 
C 1.006162 -1.732451 0.513564 -1.936492 0 -1.936492 
C -0.513564 -1.936492 -1.006162 -1.732451 -1.369306 -1.369306 
C -1.732451 -1.006162 -1.936492 -0.513564 -1.936492 0 
C -1.936492 0.513564 -1.732451 1.006162 -1.369306 1.369306 
C -1.006162 1.732451 -0.513564 1.936492 0 1.936492 
z
" style="stroke: #1f78b4"/>
    </defs>
    <g clip-path="url(#p18595ed290)">
     <use xlink:href="#m5fd902b344" x="313.863954" y="269.020043" style="fill: #1f78b4; stroke: #1f78b4"/>
     <use xlink:href="#m5fd902b344" x="270.294444" y="310.990402" style="fill: #1f78b4; stroke: #1f78b4"/>
     <use xlink:href="#m5fd902b344" x="293.822191" y="209.656956" style="fill: #1f78b4; stroke: #1f78b4"/>
     <use xlink:href="#m5fd902b344" x="253.078455" y="220.614557" style="fill: #1f78b4; stroke: #1f78b4"/>
     <use xlink:href="#m5fd902b344" x="316.607533" y="172.934261" style="fill: #1f78b4; stroke: #1f78b4"/>
     <use xlink:href="#m5fd902b344" x="336.446102" y="190.544265" style="fill: #1f78b4; stroke: #1f78b4"/>
     <use xlink:href="#m5fd902b344" x="334.729896" y="253.896066" style="fill: #1f78b4; stroke: #1f78b4"/>
     <use xlink:href="#m5fd902b344" x="350.152258" y="114.166804" style="fill: #1f78b4; stroke: #1f78b4"/>
     <use xlink:href="#m5fd902b344" x="372.046543" y="133.692258" style="fill: #1f78b4; stroke: #1f78b4"/>
     <use xlink:href="#m5fd902b344" x="314.393576" y="301.463131" style="fill: #1f78b4; stroke: #1f78b4"/>
     <use xlink:href="#m5fd902b344" x="331.315286" y="283.983587" style="fill: #1f78b4; stroke: #1f78b4"/>
     <use xlink:href="#m5fd902b344" x="397.035365" y="29.990083" style="fill: #1f78b4; stroke: #1f78b4"/>
     <use xlink:href="#m5fd902b344" x="386.676889" y="78.265122" style="fill: #1f78b4; stroke: #1f78b4"/>
     <use xlink:href="#m5fd902b344" x="255.644619" y="288.243833" style="fill: #1f78b4; stroke: #1f78b4"/>
     <use xlink:href="#m5fd902b344" x="320.42024" y="230.716421" style="fill: #1f78b4; stroke: #1f78b4"/>
     <use xlink:href="#m5fd902b344" x="296.433475" y="315.609917" style="fill: #1f78b4; stroke: #1f78b4"/>
     <use xlink:href="#m5fd902b344" x="285.680048" y="291.934344" style="fill: #1f78b4; stroke: #1f78b4"/>
     <use xlink:href="#m5fd902b344" x="39.986777" y="217.204905" style="fill: #1f78b4; stroke: #1f78b4"/>
     <use xlink:href="#m5fd902b344" x="107.226581" y="175.702146" style="fill: #1f78b4; stroke: #1f78b4"/>
     <use xlink:href="#m5fd902b344" x="420.813223" y="50.624611" style="fill: #1f78b4; stroke: #1f78b4"/>
     <use xlink:href="#m5fd902b344" x="284.22019" y="250.602599" style="fill: #1f78b4; stroke: #1f78b4"/>
     <use xlink:href="#m5fd902b344" x="270.101671" y="200.757723" style="fill: #1f78b4; stroke: #1f78b4"/>
     <use xlink:href="#m5fd902b344" x="80.852029" y="227.52494" style="fill: #1f78b4; stroke: #1f78b4"/>
     <use xlink:href="#m5fd902b344" x="77.355052" y="274.112126" style="fill: #1f78b4; stroke: #1f78b4"/>
     <use xlink:href="#m5fd902b344" x="110.927957" y="302.010769" style="fill: #1f78b4; stroke: #1f78b4"/>
     <use xlink:href="#m5fd902b344" x="249.804044" y="254.352956" style="fill: #1f78b4; stroke: #1f78b4"/>
     <use xlink:href="#m5fd902b344" x="217.329684" y="283.188006" style="fill: #1f78b4; stroke: #1f78b4"/>
     <use xlink:href="#m5fd902b344" x="160.176858" y="302.204495" style="fill: #1f78b4; stroke: #1f78b4"/>
     <use xlink:href="#m5fd902b344" x="135.374321" y="210.020116" style="fill: #1f78b4; stroke: #1f78b4"/>
     <use xlink:href="#m5fd902b344" x="205.774966" y="226.168063" style="fill: #1f78b4; stroke: #1f78b4"/>
    </g>
   </g>
   <g id="text_1">
    <g clip-path="url(#p18595ed290)">
     <!-- 0 -->
     <g transform="translate(310.682704 271.779418) scale(0.1 -0.1)">
      <defs>
       <path id="DejaVuSans-30" d="M 2034 4250 
Q 1547 4250 1301 3770 
Q 1056 3291 1056 2328 
Q 1056 1369 1301 889 
Q 1547 409 2034 409 
Q 2525 409 2770 889 
Q 3016 1369 3016 2328 
Q 3016 3291 2770 3770 
Q 2525 4250 2034 4250 
z
M 2034 4750 
Q 2819 4750 3233 4129 
Q 3647 3509 3647 2328 
Q 3647 1150 3233 529 
Q 2819 -91 2034 -91 
Q 1250 -91 836 529 
Q 422 1150 422 2328 
Q 422 3509 836 4129 
Q 1250 4750 2034 4750 
z
" transform="scale(0.015625)"/>
      </defs>
      <use xlink:href="#DejaVuSans-30"/>
     </g>
    </g>
   </g>
   <g id="text_2">
    <g clip-path="url(#p18595ed290)">
     <!-- 1 -->
     <g transform="translate(267.113194 313.749777) scale(0.1 -0.1)">
      <defs>
       <path id="DejaVuSans-31" d="M 794 531 
L 1825 531 
L 1825 4091 
L 703 3866 
L 703 4441 
L 1819 4666 
L 2450 4666 
L 2450 531 
L 3481 531 
L 3481 0 
L 794 0 
L 794 531 
z
" transform="scale(0.015625)"/>
      </defs>
      <use xlink:href="#DejaVuSans-31"/>
     </g>
    </g>
   </g>
   <g id="text_3">
    <g clip-path="url(#p18595ed290)">
     <!-- 2 -->
     <g transform="translate(290.640941 212.416331) scale(0.1 -0.1)">
      <defs>
       <path id="DejaVuSans-32" d="M 1228 531 
L 3431 531 
L 3431 0 
L 469 0 
L 469 531 
Q 828 903 1448 1529 
Q 2069 2156 2228 2338 
Q 2531 2678 2651 2914 
Q 2772 3150 2772 3378 
Q 2772 3750 2511 3984 
Q 2250 4219 1831 4219 
Q 1534 4219 1204 4116 
Q 875 4013 500 3803 
L 500 4441 
Q 881 4594 1212 4672 
Q 1544 4750 1819 4750 
Q 2544 4750 2975 4387 
Q 3406 4025 3406 3419 
Q 3406 3131 3298 2873 
Q 3191 2616 2906 2266 
Q 2828 2175 2409 1742 
Q 1991 1309 1228 531 
z
" transform="scale(0.015625)"/>
      </defs>
      <use xlink:href="#DejaVuSans-32"/>
     </g>
    </g>
   </g>
   <g id="text_4">
    <g clip-path="url(#p18595ed290)">
     <!-- 3 -->
     <g transform="translate(249.897205 223.373932) scale(0.1 -0.1)">
      <defs>
       <path id="DejaVuSans-33" d="M 2597 2516 
Q 3050 2419 3304 2112 
Q 3559 1806 3559 1356 
Q 3559 666 3084 287 
Q 2609 -91 1734 -91 
Q 1441 -91 1130 -33 
Q 819 25 488 141 
L 488 750 
Q 750 597 1062 519 
Q 1375 441 1716 441 
Q 2309 441 2620 675 
Q 2931 909 2931 1356 
Q 2931 1769 2642 2001 
Q 2353 2234 1838 2234 
L 1294 2234 
L 1294 2753 
L 1863 2753 
Q 2328 2753 2575 2939 
Q 2822 3125 2822 3475 
Q 2822 3834 2567 4026 
Q 2313 4219 1838 4219 
Q 1578 4219 1281 4162 
Q 984 4106 628 3988 
L 628 4550 
Q 988 4650 1302 4700 
Q 1616 4750 1894 4750 
Q 2613 4750 3031 4423 
Q 3450 4097 3450 3541 
Q 3450 3153 3228 2886 
Q 3006 2619 2597 2516 
z
" transform="scale(0.015625)"/>
      </defs>
      <use xlink:href="#DejaVuSans-33"/>
     </g>
    </g>
   </g>
   <g id="text_5">
    <g clip-path="url(#p18595ed290)">
     <!-- 4 -->
     <g transform="translate(313.426283 175.693636) scale(0.1 -0.1)">
      <defs>
       <path id="DejaVuSans-34" d="M 2419 4116 
L 825 1625 
L 2419 1625 
L 2419 4116 
z
M 2253 4666 
L 3047 4666 
L 3047 1625 
L 3713 1625 
L 3713 1100 
L 3047 1100 
L 3047 0 
L 2419 0 
L 2419 1100 
L 313 1100 
L 313 1709 
L 2253 4666 
z
" transform="scale(0.015625)"/>
      </defs>
      <use xlink:href="#DejaVuSans-34"/>
     </g>
    </g>
   </g>
   <g id="text_6">
    <g clip-path="url(#p18595ed290)">
     <!-- 5 -->
     <g transform="translate(333.264852 193.30364) scale(0.1 -0.1)">
      <defs>
       <path id="DejaVuSans-35" d="M 691 4666 
L 3169 4666 
L 3169 4134 
L 1269 4134 
L 1269 2991 
Q 1406 3038 1543 3061 
Q 1681 3084 1819 3084 
Q 2600 3084 3056 2656 
Q 3513 2228 3513 1497 
Q 3513 744 3044 326 
Q 2575 -91 1722 -91 
Q 1428 -91 1123 -41 
Q 819 9 494 109 
L 494 744 
Q 775 591 1075 516 
Q 1375 441 1709 441 
Q 2250 441 2565 725 
Q 2881 1009 2881 1497 
Q 2881 1984 2565 2268 
Q 2250 2553 1709 2553 
Q 1456 2553 1204 2497 
Q 953 2441 691 2322 
L 691 4666 
z
" transform="scale(0.015625)"/>
      </defs>
      <use xlink:href="#DejaVuSans-35"/>
     </g>
    </g>
   </g>
   <g id="text_7">
    <g clip-path="url(#p18595ed290)">
     <!-- 6 -->
     <g transform="translate(331.548646 256.655441) scale(0.1 -0.1)">
      <defs>
       <path id="DejaVuSans-36" d="M 2113 2584 
Q 1688 2584 1439 2293 
Q 1191 2003 1191 1497 
Q 1191 994 1439 701 
Q 1688 409 2113 409 
Q 2538 409 2786 701 
Q 3034 994 3034 1497 
Q 3034 2003 2786 2293 
Q 2538 2584 2113 2584 
z
M 3366 4563 
L 3366 3988 
Q 3128 4100 2886 4159 
Q 2644 4219 2406 4219 
Q 1781 4219 1451 3797 
Q 1122 3375 1075 2522 
Q 1259 2794 1537 2939 
Q 1816 3084 2150 3084 
Q 2853 3084 3261 2657 
Q 3669 2231 3669 1497 
Q 3669 778 3244 343 
Q 2819 -91 2113 -91 
Q 1303 -91 875 529 
Q 447 1150 447 2328 
Q 447 3434 972 4092 
Q 1497 4750 2381 4750 
Q 2619 4750 2861 4703 
Q 3103 4656 3366 4563 
z
" transform="scale(0.015625)"/>
      </defs>
      <use xlink:href="#DejaVuSans-36"/>
     </g>
    </g>
   </g>
   <g id="text_8">
    <g clip-path="url(#p18595ed290)">
     <!-- 7 -->
     <g transform="translate(346.971008 116.926179) scale(0.1 -0.1)">
      <defs>
       <path id="DejaVuSans-37" d="M 525 4666 
L 3525 4666 
L 3525 4397 
L 1831 0 
L 1172 0 
L 2766 4134 
L 525 4134 
L 525 4666 
z
" transform="scale(0.015625)"/>
      </defs>
      <use xlink:href="#DejaVuSans-37"/>
     </g>
    </g>
   </g>
   <g id="text_9">
    <g clip-path="url(#p18595ed290)">
     <!-- 8 -->
     <g transform="translate(368.865293 136.451633) scale(0.1 -0.1)">
      <defs>
       <path id="DejaVuSans-38" d="M 2034 2216 
Q 1584 2216 1326 1975 
Q 1069 1734 1069 1313 
Q 1069 891 1326 650 
Q 1584 409 2034 409 
Q 2484 409 2743 651 
Q 3003 894 3003 1313 
Q 3003 1734 2745 1975 
Q 2488 2216 2034 2216 
z
M 1403 2484 
Q 997 2584 770 2862 
Q 544 3141 544 3541 
Q 544 4100 942 4425 
Q 1341 4750 2034 4750 
Q 2731 4750 3128 4425 
Q 3525 4100 3525 3541 
Q 3525 3141 3298 2862 
Q 3072 2584 2669 2484 
Q 3125 2378 3379 2068 
Q 3634 1759 3634 1313 
Q 3634 634 3220 271 
Q 2806 -91 2034 -91 
Q 1263 -91 848 271 
Q 434 634 434 1313 
Q 434 1759 690 2068 
Q 947 2378 1403 2484 
z
M 1172 3481 
Q 1172 3119 1398 2916 
Q 1625 2713 2034 2713 
Q 2441 2713 2670 2916 
Q 2900 3119 2900 3481 
Q 2900 3844 2670 4047 
Q 2441 4250 2034 4250 
Q 1625 4250 1398 4047 
Q 1172 3844 1172 3481 
z
" transform="scale(0.015625)"/>
      </defs>
      <use xlink:href="#DejaVuSans-38"/>
     </g>
    </g>
   </g>
   <g id="text_10">
    <g clip-path="url(#p18595ed290)">
     <!-- 9 -->
     <g transform="translate(311.212326 304.222506) scale(0.1 -0.1)">
      <defs>
       <path id="DejaVuSans-39" d="M 703 97 
L 703 672 
Q 941 559 1184 500 
Q 1428 441 1663 441 
Q 2288 441 2617 861 
Q 2947 1281 2994 2138 
Q 2813 1869 2534 1725 
Q 2256 1581 1919 1581 
Q 1219 1581 811 2004 
Q 403 2428 403 3163 
Q 403 3881 828 4315 
Q 1253 4750 1959 4750 
Q 2769 4750 3195 4129 
Q 3622 3509 3622 2328 
Q 3622 1225 3098 567 
Q 2575 -91 1691 -91 
Q 1453 -91 1209 -44 
Q 966 3 703 97 
z
M 1959 2075 
Q 2384 2075 2632 2365 
Q 2881 2656 2881 3163 
Q 2881 3666 2632 3958 
Q 2384 4250 1959 4250 
Q 1534 4250 1286 3958 
Q 1038 3666 1038 3163 
Q 1038 2656 1286 2365 
Q 1534 2075 1959 2075 
z
" transform="scale(0.015625)"/>
      </defs>
      <use xlink:href="#DejaVuSans-39"/>
     </g>
    </g>
   </g>
   <g id="text_11">
    <g clip-path="url(#p18595ed290)">
     <!-- 10 -->
     <g transform="translate(324.952786 286.742962) scale(0.1 -0.1)">
      <use xlink:href="#DejaVuSans-31"/>
      <use xlink:href="#DejaVuSans-30" x="63.623047"/>
     </g>
    </g>
   </g>
   <g id="text_12">
    <g clip-path="url(#p18595ed290)">
     <!-- 11 -->
     <g transform="translate(390.672865 32.749458) scale(0.1 -0.1)">
      <use xlink:href="#DejaVuSans-31"/>
      <use xlink:href="#DejaVuSans-31" x="63.623047"/>
     </g>
    </g>
   </g>
   <g id="text_13">
    <g clip-path="url(#p18595ed290)">
     <!-- 12 -->
     <g transform="translate(380.314389 81.024497) scale(0.1 -0.1)">
      <use xlink:href="#DejaVuSans-31"/>
      <use xlink:href="#DejaVuSans-32" x="63.623047"/>
     </g>
    </g>
   </g>
   <g id="text_14">
    <g clip-path="url(#p18595ed290)">
     <!-- 13 -->
     <g transform="translate(249.282119 291.003208) scale(0.1 -0.1)">
      <use xlink:href="#DejaVuSans-31"/>
      <use xlink:href="#DejaVuSans-33" x="63.623047"/>
     </g>
    </g>
   </g>
   <g id="text_15">
    <g clip-path="url(#p18595ed290)">
     <!-- 14 -->
     <g transform="translate(314.05774 233.475796) scale(0.1 -0.1)">
      <use xlink:href="#DejaVuSans-31"/>
      <use xlink:href="#DejaVuSans-34" x="63.623047"/>
     </g>
    </g>
   </g>
   <g id="text_16">
    <g clip-path="url(#p18595ed290)">
     <!-- 15 -->
     <g transform="translate(290.070975 318.369292) scale(0.1 -0.1)">
      <use xlink:href="#DejaVuSans-31"/>
      <use xlink:href="#DejaVuSans-35" x="63.623047"/>
     </g>
    </g>
   </g>
   <g id="text_17">
    <g clip-path="url(#p18595ed290)">
     <!-- 16 -->
     <g transform="translate(279.317548 294.693719) scale(0.1 -0.1)">
      <use xlink:href="#DejaVuSans-31"/>
      <use xlink:href="#DejaVuSans-36" x="63.623047"/>
     </g>
    </g>
   </g>
   <g id="text_18">
    <g clip-path="url(#p18595ed290)">
     <!-- 17 -->
     <g transform="translate(33.624277 219.96428) scale(0.1 -0.1)">
      <use xlink:href="#DejaVuSans-31"/>
      <use xlink:href="#DejaVuSans-37" x="63.623047"/>
     </g>
    </g>
   </g>
   <g id="text_19">
    <g clip-path="url(#p18595ed290)">
     <!-- 18 -->
     <g transform="translate(100.864081 178.461521) scale(0.1 -0.1)">
      <use xlink:href="#DejaVuSans-31"/>
      <use xlink:href="#DejaVuSans-38" x="63.623047"/>
     </g>
    </g>
   </g>
   <g id="text_20">
    <g clip-path="url(#p18595ed290)">
     <!-- 19 -->
     <g transform="translate(414.450723 53.383986) scale(0.1 -0.1)">
      <use xlink:href="#DejaVuSans-31"/>
      <use xlink:href="#DejaVuSans-39" x="63.623047"/>
     </g>
    </g>
   </g>
   <g id="text_21">
    <g clip-path="url(#p18595ed290)">
     <!-- 20 -->
     <g transform="translate(277.85769 253.361974) scale(0.1 -0.1)">
      <use xlink:href="#DejaVuSans-32"/>
      <use xlink:href="#DejaVuSans-30" x="63.623047"/>
     </g>
    </g>
   </g>
   <g id="text_22">
    <g clip-path="url(#p18595ed290)">
     <!-- 21 -->
     <g transform="translate(263.739171 203.517098) scale(0.1 -0.1)">
      <use xlink:href="#DejaVuSans-32"/>
      <use xlink:href="#DejaVuSans-31" x="63.623047"/>
     </g>
    </g>
   </g>
   <g id="text_23">
    <g clip-path="url(#p18595ed290)">
     <!-- 22 -->
     <g transform="translate(74.489529 230.284315) scale(0.1 -0.1)">
      <use xlink:href="#DejaVuSans-32"/>
      <use xlink:href="#DejaVuSans-32" x="63.623047"/>
     </g>
    </g>
   </g>
   <g id="text_24">
    <g clip-path="url(#p18595ed290)">
     <!-- 23 -->
     <g transform="translate(70.992552 276.871501) scale(0.1 -0.1)">
      <use xlink:href="#DejaVuSans-32"/>
      <use xlink:href="#DejaVuSans-33" x="63.623047"/>
     </g>
    </g>
   </g>
   <g id="text_25">
    <g clip-path="url(#p18595ed290)">
     <!-- 24 -->
     <g transform="translate(104.565457 304.770144) scale(0.1 -0.1)">
      <use xlink:href="#DejaVuSans-32"/>
      <use xlink:href="#DejaVuSans-34" x="63.623047"/>
     </g>
    </g>
   </g>
   <g id="text_26">
    <g clip-path="url(#p18595ed290)">
     <!-- 25 -->
     <g transform="translate(243.441544 257.112331) scale(0.1 -0.1)">
      <use xlink:href="#DejaVuSans-32"/>
      <use xlink:href="#DejaVuSans-35" x="63.623047"/>
     </g>
    </g>
   </g>
   <g id="text_27">
    <g clip-path="url(#p18595ed290)">
     <!-- 26 -->
     <g transform="translate(210.967184 285.947381) scale(0.1 -0.1)">
      <use xlink:href="#DejaVuSans-32"/>
      <use xlink:href="#DejaVuSans-36" x="63.623047"/>
     </g>
    </g>
   </g>
   <g id="text_28">
    <g clip-path="url(#p18595ed290)">
     <!-- 27 -->
     <g transform="translate(153.814358 304.96387) scale(0.1 -0.1)">
      <use xlink:href="#DejaVuSans-32"/>
      <use xlink:href="#DejaVuSans-37" x="63.623047"/>
     </g>
    </g>
   </g>
   <g id="text_29">
    <g clip-path="url(#p18595ed290)">
     <!-- 28 -->
     <g transform="translate(129.011821 212.779491) scale(0.1 -0.1)">
      <use xlink:href="#DejaVuSans-32"/>
      <use xlink:href="#DejaVuSans-38" x="63.623047"/>
     </g>
    </g>
   </g>
   <g id="text_30">
    <g clip-path="url(#p18595ed290)">
     <!-- 29 -->
     <g transform="translate(199.412466 228.927438) scale(0.1 -0.1)">
      <use xlink:href="#DejaVuSans-32"/>
      <use xlink:href="#DejaVuSans-39" x="63.623047"/>
     </g>
    </g>
   </g>
  </g>
 </g>
 <defs>
  <clipPath id="p18595ed290">
   <rect x="0" y="0" width="460.8" height="345.6"/>
  </clipPath>
 </defs>
</svg>
