<?xml version="1.0" encoding="utf-8" standalone="no"?>
<!DOCTYPE svg PUBLIC "-//W3C//DTD SVG 1.1//EN"
  "http://www.w3.org/Graphics/SVG/1.1/DTD/svg11.dtd">
<svg xmlns:xlink="http://www.w3.org/1999/xlink" width="460.8pt" height="345.6pt" viewBox="0 0 460.8 345.6" xmlns="http://www.w3.org/2000/svg" version="1.1">
 <metadata>
  <rdf:RDF xmlns:dc="http://purl.org/dc/elements/1.1/" xmlns:cc="http://creativecommons.org/ns#" xmlns:rdf="http://www.w3.org/1999/02/22-rdf-syntax-ns#">
   <cc:Work>
    <dc:type rdf:resource="http://purl.org/dc/dcmitype/StillImage"/>
    <dc:date>2024-02-28T11:17:47.883521</dc:date>
    <dc:format>image/svg+xml</dc:format>
    <dc:creator>
     <cc:Agent>
      <dc:title>Matplotlib v3.8.0, https://matplotlib.org/</dc:title>
     </cc:Agent>
    </dc:creator>
   </cc:Work>
  </rdf:RDF>
 </metadata>
 <defs>
  <style type="text/css">*{stroke-linejoin: round; stroke-linecap: butt}</style>
 </defs>
 <g id="figure_1">
  <g id="patch_1">
   <path d="M 0 345.6 
L 460.8 345.6 
L 460.8 0 
L 0 0 
z
" style="fill: #ffffff"/>
  </g>
  <g id="axes_1">
   <g id="patch_2">
    <path d="M 135.25237 231.621678 
Q 127.245054 211.329291 119.648117 192.076899 
" clip-path="url(#p76617f0b1e)" style="fill: none; stroke: #000000; stroke-linecap: round"/>
    <path d="M 119.255934 196.531806 
L 119.648117 192.076899 
L 122.976732 195.06359 
z
" clip-path="url(#p76617f0b1e)" style="stroke: #000000; stroke-linecap: round"/>
   </g>
   <g id="patch_3">
    <path d="M 102.827542 229.847785 
Q 110.327609 210.444275 117.424585 192.083606 
" clip-path="url(#p76617f0b1e)" style="fill: none; stroke: #000000; stroke-linecap: round"/>
    <path d="M 114.116952 195.093517 
L 117.424585 192.083606 
L 117.847934 196.535659 
z
" clip-path="url(#p76617f0b1e)" style="stroke: #000000; stroke-linecap: round"/>
   </g>
   <g id="patch_4">
    <path d="M 414.235311 137.695579 
Q 384.024724 143.615153 354.911307 149.319744 
" clip-path="url(#p76617f0b1e)" style="fill: none; stroke: #000000; stroke-linecap: round"/>
    <path d="M 359.221236 150.513273 
L 354.911307 149.319744 
L 358.452087 146.587918 
z
" clip-path="url(#p76617f0b1e)" style="stroke: #000000; stroke-linecap: round"/>
   </g>
   <g id="patch_5">
    <path d="M 74.313525 184.976032 
Q 95.45513 187.011941 115.483849 188.940682 
" clip-path="url(#p76617f0b1e)" style="fill: none; stroke: #000000; stroke-linecap: round"/>
    <path d="M 111.693978 186.56647 
L 115.483849 188.940682 
L 111.310557 190.548051 
z
" clip-path="url(#p76617f0b1e)" style="stroke: #000000; stroke-linecap: round"/>
   </g>
   <g id="patch_6">
    <path d="M 93.159995 266.147009 
Q 85.861075 289.953147 78.889883 312.690363 
" clip-path="url(#p76617f0b1e)" style="fill: none; stroke: #000000; stroke-linecap: round"/>
    <path d="M 81.974549 309.452334 
L 78.889883 312.690363 
L 78.150259 308.279813 
z
" clip-path="url(#p76617f0b1e)" style="stroke: #000000; stroke-linecap: round"/>
   </g>
   <g id="patch_7">
    <path d="M 94.334454 262.458867 
Q 106.126887 226.764704 117.568596 192.13214 
" clip-path="url(#p76617f0b1e)" style="fill: none; stroke: #000000; stroke-linecap: round"/>
    <path d="M 114.414758 195.302836 
L 117.568596 192.13214 
L 118.21285 196.557628 
z
" clip-path="url(#p76617f0b1e)" style="stroke: #000000; stroke-linecap: round"/>
   </g>
   <g id="patch_8">
    <path d="M 41.918624 195.981367 
Q 79.256859 192.692557 115.481372 189.501846 
" clip-path="url(#p76617f0b1e)" style="fill: none; stroke: #000000; stroke-linecap: round"/>
    <path d="M 111.321316 187.860527 
L 115.481372 189.501846 
L 111.672283 191.8451 
z
" clip-path="url(#p76617f0b1e)" style="stroke: #000000; stroke-linecap: round"/>
   </g>
   <g id="patch_9">
    <path d="M 209.523269 197.165683 
Q 214.200364 175.550308 218.641014 155.027678 
" clip-path="url(#p76617f0b1e)" style="fill: none; stroke: #000000; stroke-linecap: round"/>
    <path d="M 215.840315 158.514236 
L 218.641014 155.027678 
L 219.749841 159.360172 
z
" clip-path="url(#p76617f0b1e)" style="stroke: #000000; stroke-linecap: round"/>
   </g>
   <g id="patch_10">
    <path d="M 211.006824 199.459911 
Q 251.303718 208.044861 290.507118 216.396851 
" clip-path="url(#p76617f0b1e)" style="fill: none; stroke: #000000; stroke-linecap: round"/>
    <path d="M 287.011648 213.607284 
L 290.507118 216.396851 
L 286.178182 217.519487 
z
" clip-path="url(#p76617f0b1e)" style="stroke: #000000; stroke-linecap: round"/>
   </g>
   <g id="patch_11">
    <path d="M 207.187225 198.847737 
Q 163.818586 194.144999 121.561466 189.56279 
" clip-path="url(#p76617f0b1e)" style="fill: none; stroke: #000000; stroke-linecap: round"/>
    <path d="M 125.322546 191.982352 
L 121.561466 189.56279 
L 125.753764 188.005663 
z
" clip-path="url(#p76617f0b1e)" style="stroke: #000000; stroke-linecap: round"/>
   </g>
   <g id="patch_12">
    <path d="M 49.125191 169.194762 
Q 82.895906 178.945743 115.592467 188.386572 
" clip-path="url(#p76617f0b1e)" style="fill: none; stroke: #000000; stroke-linecap: round"/>
    <path d="M 112.304275 185.355434 
L 115.592467 188.386572 
L 111.194642 189.198443 
z
" clip-path="url(#p76617f0b1e)" style="stroke: #000000; stroke-linecap: round"/>
   </g>
   <g id="patch_13">
    <path d="M 78.562261 313.758934 
Q 85.861182 289.952796 92.832374 267.21558 
" clip-path="url(#p76617f0b1e)" style="fill: none; stroke: #000000; stroke-linecap: round"/>
    <path d="M 89.747708 270.45361 
L 92.832374 267.21558 
L 93.571998 271.626131 
z
" clip-path="url(#p76617f0b1e)" style="stroke: #000000; stroke-linecap: round"/>
   </g>
   <g id="patch_14">
    <path d="M 77.10843 154.619131 
Q 97.075356 171.306315 116.1844 187.276531 
" clip-path="url(#p76617f0b1e)" style="fill: none; stroke: #000000; stroke-linecap: round"/>
    <path d="M 114.397701 183.176811 
L 116.1844 187.276531 
L 111.832604 186.246058 
z
" clip-path="url(#p76617f0b1e)" style="stroke: #000000; stroke-linecap: round"/>
   </g>
   <g id="patch_15">
    <path d="M 228.923365 31.922746 
Q 227.498923 63.0439 226.1256 93.048189 
" clip-path="url(#p76617f0b1e)" style="fill: none; stroke: #000000; stroke-linecap: round"/>
    <path d="M 228.3064 89.143819 
L 226.1256 93.048189 
L 224.310584 88.960927 
z
" clip-path="url(#p76617f0b1e)" style="stroke: #000000; stroke-linecap: round"/>
   </g>
   <g id="patch_16">
    <path d="M 184.03114 107.003407 
Q 204.072672 101.793054 223.03214 96.864013 
" clip-path="url(#p76617f0b1e)" style="fill: none; stroke: #000000; stroke-linecap: round"/>
    <path d="M 218.657602 95.934812 
L 223.03214 96.864013 
L 219.664057 99.806123 
z
" clip-path="url(#p76617f0b1e)" style="stroke: #000000; stroke-linecap: round"/>
   </g>
   <g id="patch_17">
    <path d="M 166.933042 56.264515 
Q 195.65761 75.639357 223.455283 94.389006 
" clip-path="url(#p76617f0b1e)" style="fill: none; stroke: #000000; stroke-linecap: round"/>
    <path d="M 221.257507 90.494166 
L 223.455283 94.389006 
L 219.020746 93.810322 
z
" clip-path="url(#p76617f0b1e)" style="stroke: #000000; stroke-linecap: round"/>
   </g>
   <g id="patch_18">
    <path d="M 259.364303 66.086645 
Q 243.395366 80.443867 228.25784 94.05359 
" clip-path="url(#p76617f0b1e)" style="fill: none; stroke: #000000; stroke-linecap: round"/>
    <path d="M 232.569555 92.866531 
L 228.25784 94.05359 
L 229.895222 89.891982 
z
" clip-path="url(#p76617f0b1e)" style="stroke: #000000; stroke-linecap: round"/>
   </g>
   <g id="patch_19">
    <path d="M 165.555389 83.238935 
Q 194.824669 89.466208 223.000391 95.460817 
" clip-path="url(#p76617f0b1e)" style="fill: none; stroke: #000000; stroke-linecap: round"/>
    <path d="M 219.504161 92.672202 
L 223.000391 95.460817 
L 218.671761 96.584632 
z
" clip-path="url(#p76617f0b1e)" style="stroke: #000000; stroke-linecap: round"/>
   </g>
   <g id="patch_20">
    <path d="M 286.38494 60.28239 
Q 257.016813 77.696301 228.61037 94.53998 
" clip-path="url(#p76617f0b1e)" style="fill: none; stroke: #000000; stroke-linecap: round"/>
    <path d="M 233.071056 94.220164 
L 228.61037 94.53998 
L 231.030929 90.779542 
z
" clip-path="url(#p76617f0b1e)" style="stroke: #000000; stroke-linecap: round"/>
   </g>
   <g id="patch_21">
    <path d="M 226.878911 54.184877 
Q 226.453129 74.17224 226.051159 93.041822 
" clip-path="url(#p76617f0b1e)" style="fill: none; stroke: #000000; stroke-linecap: round"/>
    <path d="M 228.135896 89.085325 
L 226.051159 93.041822 
L 224.136804 89.000134 
z
" clip-path="url(#p76617f0b1e)" style="stroke: #000000; stroke-linecap: round"/>
   </g>
   <g id="patch_22">
    <path d="M 218.877689 153.933878 
Q 214.200593 175.549253 209.759943 196.071883 
" clip-path="url(#p76617f0b1e)" style="fill: none; stroke: #000000; stroke-linecap: round"/>
    <path d="M 212.560642 192.585325 
L 209.759943 196.071883 
L 208.651116 191.739389 
z
" clip-path="url(#p76617f0b1e)" style="stroke: #000000; stroke-linecap: round"/>
   </g>
   <g id="patch_23">
    <path d="M 219.517064 150.120392 
Q 222.636485 124.069408 225.622979 99.128529 
" clip-path="url(#p76617f0b1e)" style="fill: none; stroke: #000000; stroke-linecap: round"/>
    <path d="M 223.16159 102.862369 
L 225.622979 99.128529 
L 227.133218 103.337944 
z
" clip-path="url(#p76617f0b1e)" style="stroke: #000000; stroke-linecap: round"/>
   </g>
   <g id="patch_24">
    <path d="M 264.576114 114.718724 
Q 246.153762 105.828511 228.738328 97.424215 
" clip-path="url(#p76617f0b1e)" style="fill: none; stroke: #000000; stroke-linecap: round"/>
    <path d="M 231.471556 100.963913 
L 228.738328 97.424215 
L 233.210023 97.361451 
z
" clip-path="url(#p76617f0b1e)" style="stroke: #000000; stroke-linecap: round"/>
   </g>
   <g id="patch_25">
    <path d="M 60.771976 212.287348 
Q 88.748432 201.120012 115.686521 190.367159 
" clip-path="url(#p76617f0b1e)" style="fill: none; stroke: #000000; stroke-linecap: round"/>
    <path d="M 111.2301 189.992575 
L 115.686521 190.367159 
L 112.713002 193.707545 
z
" clip-path="url(#p76617f0b1e)" style="stroke: #000000; stroke-linecap: round"/>
   </g>
   <g id="patch_26">
    <path d="M 69.74105 231.321746 
Q 93.399635 210.910922 116.211684 191.230426 
" clip-path="url(#p76617f0b1e)" style="fill: none; stroke: #000000; stroke-linecap: round"/>
    <path d="M 111.876577 192.328992 
L 116.211684 191.230426 
L 114.489473 195.357651 
z
" clip-path="url(#p76617f0b1e)" style="stroke: #000000; stroke-linecap: round"/>
   </g>
   <g id="patch_27">
    <path d="M 285.648647 88.501539 
Q 256.776911 92.176654 229.014259 95.710592 
" clip-path="url(#p76617f0b1e)" style="fill: none; stroke: #000000; stroke-linecap: round"/>
    <path d="M 233.234786 97.189494 
L 229.014259 95.710592 
L 232.729697 93.221512 
z
" clip-path="url(#p76617f0b1e)" style="stroke: #000000; stroke-linecap: round"/>
   </g>
   <g id="patch_28">
    <path d="M 193.56031 63.620265 
Q 209.08942 79.173319 223.828569 93.935196 
" clip-path="url(#p76617f0b1e)" style="fill: none; stroke: #000000; stroke-linecap: round"/>
    <path d="M 222.417625 89.691467 
L 223.828569 93.935196 
L 219.587019 92.517714 
z
" clip-path="url(#p76617f0b1e)" style="stroke: #000000; stroke-linecap: round"/>
   </g>
   <g id="patch_29">
    <path d="M 196.337573 37.473406 
Q 210.724816 65.920631 224.607473 93.370162 
" clip-path="url(#p76617f0b1e)" style="fill: none; stroke: #000000; stroke-linecap: round"/>
    <path d="M 224.586941 88.898073 
L 224.607473 93.370162 
L 221.017483 90.703334 
z
" clip-path="url(#p76617f0b1e)" style="stroke: #000000; stroke-linecap: round"/>
   </g>
   <g id="patch_30">
    <path d="M 260.537172 39.656841 
Q 243.766699 67.051421 227.579968 93.492459 
" clip-path="url(#p76617f0b1e)" style="fill: none; stroke: #000000; stroke-linecap: round"/>
    <path d="M 231.374178 91.125188 
L 227.579968 93.492459 
L 227.962678 89.036728 
z
" clip-path="url(#p76617f0b1e)" style="stroke: #000000; stroke-linecap: round"/>
   </g>
   <g id="patch_31">
    <path d="M 335.199737 195.899329 
Q 315.212124 206.028557 296.221794 215.652386 
" clip-path="url(#p76617f0b1e)" style="fill: none; stroke: #000000; stroke-linecap: round"/>
    <path d="M 300.693864 215.628212 
L 296.221794 215.652386 
L 298.885697 212.060225 
z
" clip-path="url(#p76617f0b1e)" style="stroke: #000000; stroke-linecap: round"/>
   </g>
   <g id="patch_32">
    <path d="M 337.535627 193.188051 
Q 344.420862 172.46533 350.953574 152.80361 
" clip-path="url(#p76617f0b1e)" style="fill: none; stroke: #000000; stroke-linecap: round"/>
    <path d="M 347.794366 155.968956 
L 350.953574 152.80361 
L 351.590325 157.230183 
z
" clip-path="url(#p76617f0b1e)" style="stroke: #000000; stroke-linecap: round"/>
   </g>
   <g id="patch_33">
    <path d="M 291.603471 216.63042 
Q 251.306576 208.04547 212.103176 199.69348 
" clip-path="url(#p76617f0b1e)" style="fill: none; stroke: #000000; stroke-linecap: round"/>
    <path d="M 215.598647 202.483048 
L 212.103176 199.69348 
L 216.432112 198.570844 
z
" clip-path="url(#p76617f0b1e)" style="stroke: #000000; stroke-linecap: round"/>
   </g>
   <g id="patch_34">
    <path d="M 295.221805 216.159156 
Q 315.209418 206.029928 334.199749 196.406099 
" clip-path="url(#p76617f0b1e)" style="fill: none; stroke: #000000; stroke-linecap: round"/>
    <path d="M 329.727678 196.430273 
L 334.199749 196.406099 
L 331.535846 199.99826 
z
" clip-path="url(#p76617f0b1e)" style="stroke: #000000; stroke-linecap: round"/>
   </g>
   <g id="patch_35">
    <path d="M 295.433947 217.020225 
Q 327.487137 216.798131 358.42232 216.583783 
" clip-path="url(#p76617f0b1e)" style="fill: none; stroke: #000000; stroke-linecap: round"/>
    <path d="M 354.408559 214.611546 
L 358.42232 216.583783 
L 354.436274 218.61145 
z
" clip-path="url(#p76617f0b1e)" style="stroke: #000000; stroke-linecap: round"/>
   </g>
   <g id="patch_36">
    <path d="M 119.236009 191.032523 
Q 127.243325 211.324909 134.840262 230.577301 
" clip-path="url(#p76617f0b1e)" style="fill: none; stroke: #000000; stroke-linecap: round"/>
    <path d="M 135.232445 226.122395 
L 134.840262 230.577301 
L 131.511647 227.590611 
z
" clip-path="url(#p76617f0b1e)" style="stroke: #000000; stroke-linecap: round"/>
   </g>
   <g id="patch_37">
    <path d="M 117.828664 191.038209 
Q 110.328597 210.441719 103.23162 228.802388 
" clip-path="url(#p76617f0b1e)" style="fill: none; stroke: #000000; stroke-linecap: round"/>
    <path d="M 106.539253 225.792477 
L 103.23162 228.802388 
L 102.808271 224.350335 
z
" clip-path="url(#p76617f0b1e)" style="stroke: #000000; stroke-linecap: round"/>
   </g>
   <g id="patch_38">
    <path d="M 116.597034 189.04788 
Q 95.45543 187.01197 75.42671 185.08323 
" clip-path="url(#p76617f0b1e)" style="fill: none; stroke: #000000; stroke-linecap: round"/>
    <path d="M 79.216581 187.457442 
L 75.42671 185.08323 
L 79.600002 183.475861 
z
" clip-path="url(#p76617f0b1e)" style="stroke: #000000; stroke-linecap: round"/>
   </g>
   <g id="patch_39">
    <path d="M 117.919231 191.070813 
Q 106.126797 226.764976 94.685089 261.39754 
" clip-path="url(#p76617f0b1e)" style="fill: none; stroke: #000000; stroke-linecap: round"/>
    <path d="M 97.838926 258.226845 
L 94.685089 261.39754 
L 94.040835 256.972053 
z
" clip-path="url(#p76617f0b1e)" style="stroke: #000000; stroke-linecap: round"/>
   </g>
   <g id="patch_40">
    <path d="M 116.594334 189.403814 
Q 79.256099 192.692624 43.031585 195.883336 
" clip-path="url(#p76617f0b1e)" style="fill: none; stroke: #000000; stroke-linecap: round"/>
    <path d="M 47.191642 197.524655 
L 43.031585 195.883336 
L 46.840675 193.540082 
z
" clip-path="url(#p76617f0b1e)" style="stroke: #000000; stroke-linecap: round"/>
   </g>
   <g id="patch_41">
    <path d="M 120.453054 189.442597 
Q 163.821692 194.145335 206.078813 198.727545 
" clip-path="url(#p76617f0b1e)" style="fill: none; stroke: #000000; stroke-linecap: round"/>
    <path d="M 202.317733 196.307983 
L 206.078813 198.727545 
L 201.886515 200.284671 
z
" clip-path="url(#p76617f0b1e)" style="stroke: #000000; stroke-linecap: round"/>
   </g>
   <g id="patch_42">
    <path d="M 116.669051 188.697425 
Q 82.898336 178.946445 50.201775 169.505616 
" clip-path="url(#p76617f0b1e)" style="fill: none; stroke: #000000; stroke-linecap: round"/>
    <path d="M 53.489967 172.536753 
L 50.201775 169.505616 
L 54.5996 168.693745 
z
" clip-path="url(#p76617f0b1e)" style="stroke: #000000; stroke-linecap: round"/>
   </g>
   <g id="patch_43">
    <path d="M 117.041458 187.99281 
Q 97.074533 171.305627 77.965488 155.33541 
" clip-path="url(#p76617f0b1e)" style="fill: none; stroke: #000000; stroke-linecap: round"/>
    <path d="M 79.752187 159.43513 
L 77.965488 155.33541 
L 82.317284 156.365883 
z
" clip-path="url(#p76617f0b1e)" style="stroke: #000000; stroke-linecap: round"/>
   </g>
   <g id="patch_44">
    <path d="M 116.726928 189.951861 
Q 88.750472 201.119197 61.812383 211.87205 
" clip-path="url(#p76617f0b1e)" style="fill: none; stroke: #000000; stroke-linecap: round"/>
    <path d="M 66.268804 212.246634 
L 61.812383 211.87205 
L 64.785902 208.531663 
z
" clip-path="url(#p76617f0b1e)" style="stroke: #000000; stroke-linecap: round"/>
   </g>
   <g id="patch_45">
    <path d="M 117.056952 190.501193 
Q 93.398367 210.912016 70.586318 230.592513 
" clip-path="url(#p76617f0b1e)" style="fill: none; stroke: #000000; stroke-linecap: round"/>
    <path d="M 74.921425 229.493946 
L 70.586318 230.592513 
L 72.308529 226.465287 
z
" clip-path="url(#p76617f0b1e)" style="stroke: #000000; stroke-linecap: round"/>
   </g>
   <g id="patch_46">
    <path d="M 119.99208 187.963131 
Q 172.256433 142.664597 223.675922 98.098323 
" clip-path="url(#p76617f0b1e)" style="fill: none; stroke: #000000; stroke-linecap: round"/>
    <path d="M 219.343338 99.206798 
L 223.675922 98.098323 
L 221.963152 102.229475 
z
" clip-path="url(#p76617f0b1e)" style="stroke: #000000; stroke-linecap: round"/>
   </g>
   <g id="patch_47">
    <path d="M 226.074556 94.163386 
Q 227.498999 63.042233 228.872322 33.037943 
" clip-path="url(#p76617f0b1e)" style="fill: none; stroke: #000000; stroke-linecap: round"/>
    <path d="M 226.691521 36.942314 
L 228.872322 33.037943 
L 230.687338 37.125206 
z
" clip-path="url(#p76617f0b1e)" style="stroke: #000000; stroke-linecap: round"/>
   </g>
   <g id="patch_48">
    <path d="M 224.11079 96.583588 
Q 204.069258 101.793942 185.10979 106.722982 
" clip-path="url(#p76617f0b1e)" style="fill: none; stroke: #000000; stroke-linecap: round"/>
    <path d="M 189.484328 107.652183 
L 185.10979 106.722982 
L 188.477873 103.780872 
z
" clip-path="url(#p76617f0b1e)" style="stroke: #000000; stroke-linecap: round"/>
   </g>
   <g id="patch_49">
    <path d="M 224.383064 95.014798 
Q 195.658496 75.639955 167.860822 56.890307 
" clip-path="url(#p76617f0b1e)" style="fill: none; stroke: #000000; stroke-linecap: round"/>
    <path d="M 170.058598 60.785147 
L 167.860822 56.890307 
L 172.29536 57.46899 
z
" clip-path="url(#p76617f0b1e)" style="stroke: #000000; stroke-linecap: round"/>
   </g>
   <g id="patch_50">
    <path d="M 227.424757 94.80259 
Q 243.393695 80.445369 258.531221 66.835646 
" clip-path="url(#p76617f0b1e)" style="fill: none; stroke: #000000; stroke-linecap: round"/>
    <path d="M 254.219505 68.022704 
L 258.531221 66.835646 
L 256.893838 70.997253 
z
" clip-path="url(#p76617f0b1e)" style="stroke: #000000; stroke-linecap: round"/>
   </g>
   <g id="patch_51">
    <path d="M 224.095616 95.693835 
Q 194.826336 89.466562 166.650614 83.471953 
" clip-path="url(#p76617f0b1e)" style="fill: none; stroke: #000000; stroke-linecap: round"/>
    <path d="M 170.146844 86.260569 
L 166.650614 83.471953 
L 170.979245 82.348138 
z
" clip-path="url(#p76617f0b1e)" style="stroke: #000000; stroke-linecap: round"/>
   </g>
   <g id="patch_52">
    <path d="M 227.649006 95.110023 
Q 257.017132 77.696112 285.423576 60.852434 
" clip-path="url(#p76617f0b1e)" style="fill: none; stroke: #000000; stroke-linecap: round"/>
    <path d="M 280.96289 61.172249 
L 285.423576 60.852434 
L 283.003016 64.612871 
z
" clip-path="url(#p76617f0b1e)" style="stroke: #000000; stroke-linecap: round"/>
   </g>
   <g id="patch_53">
    <path d="M 226.027314 94.161194 
Q 226.453095 74.173831 226.855065 55.304249 
" clip-path="url(#p76617f0b1e)" style="fill: none; stroke: #000000; stroke-linecap: round"/>
    <path d="M 224.770328 59.260746 
L 226.855065 55.304249 
L 228.769421 59.345937 
z
" clip-path="url(#p76617f0b1e)" style="stroke: #000000; stroke-linecap: round"/>
   </g>
   <g id="patch_54">
    <path d="M 225.755892 98.018539 
Q 222.636471 124.069523 219.649977 149.010403 
" clip-path="url(#p76617f0b1e)" style="fill: none; stroke: #000000; stroke-linecap: round"/>
    <path d="M 222.111365 145.276562 
L 219.649977 149.010403 
L 218.139737 144.800987 
z
" clip-path="url(#p76617f0b1e)" style="stroke: #000000; stroke-linecap: round"/>
   </g>
   <g id="patch_55">
    <path d="M 227.731572 96.938377 
Q 246.153924 105.82859 263.569358 114.232886 
" clip-path="url(#p76617f0b1e)" style="fill: none; stroke: #000000; stroke-linecap: round"/>
    <path d="M 260.836129 110.693188 
L 263.569358 114.232886 
L 259.097662 114.29565 
z
" clip-path="url(#p76617f0b1e)" style="stroke: #000000; stroke-linecap: round"/>
   </g>
   <g id="patch_56">
    <path d="M 227.906815 95.85156 
Q 256.778552 92.176445 284.541203 88.642507 
" clip-path="url(#p76617f0b1e)" style="fill: none; stroke: #000000; stroke-linecap: round"/>
    <path d="M 280.320676 87.163605 
L 284.541203 88.642507 
L 280.825765 91.131587 
z
" clip-path="url(#p76617f0b1e)" style="stroke: #000000; stroke-linecap: round"/>
   </g>
   <g id="patch_57">
    <path d="M 224.618607 94.726452 
Q 209.089498 79.173397 194.350348 64.411521 
" clip-path="url(#p76617f0b1e)" style="fill: none; stroke: #000000; stroke-linecap: round"/>
    <path d="M 195.761293 68.65525 
L 194.350348 64.411521 
L 198.591898 65.829003 
z
" clip-path="url(#p76617f0b1e)" style="stroke: #000000; stroke-linecap: round"/>
   </g>
   <g id="patch_58">
    <path d="M 225.112383 94.368496 
Q 210.72514 65.921271 196.842483 38.47174 
" clip-path="url(#p76617f0b1e)" style="fill: none; stroke: #000000; stroke-linecap: round"/>
    <path d="M 196.863014 42.943829 
L 196.842483 38.47174 
L 200.432473 41.138568 
z
" clip-path="url(#p76617f0b1e)" style="stroke: #000000; stroke-linecap: round"/>
   </g>
   <g id="patch_59">
    <path d="M 226.995346 94.447439 
Q 243.76582 67.052859 259.95255 40.611821 
" clip-path="url(#p76617f0b1e)" style="fill: none; stroke: #000000; stroke-linecap: round"/>
    <path d="M 256.15834 42.979092 
L 259.95255 40.611821 
L 259.569841 45.067552 
z
" clip-path="url(#p76617f0b1e)" style="stroke: #000000; stroke-linecap: round"/>
   </g>
   <g id="patch_60">
    <path d="M 224.520197 97.366573 
Q 172.255844 142.665107 120.836355 187.231381 
" clip-path="url(#p76617f0b1e)" style="fill: none; stroke: #000000; stroke-linecap: round"/>
    <path d="M 125.168939 186.122906 
L 120.836355 187.231381 
L 122.549126 183.100229 
z
" clip-path="url(#p76617f0b1e)" style="stroke: #000000; stroke-linecap: round"/>
   </g>
   <g id="patch_61">
    <path d="M 227.765442 96.856374 
Q 288.948519 123.000238 349.103489 148.704786 
" clip-path="url(#p76617f0b1e)" style="fill: none; stroke: #000000; stroke-linecap: round"/>
    <path d="M 346.211096 145.293912 
L 349.103489 148.704786 
L 344.639354 148.972176 
z
" clip-path="url(#p76617f0b1e)" style="stroke: #000000; stroke-linecap: round"/>
   </g>
   <g id="patch_62">
    <path d="M 353.817161 149.534135 
Q 384.027748 143.614561 413.141165 137.90997 
" clip-path="url(#p76617f0b1e)" style="fill: none; stroke: #000000; stroke-linecap: round"/>
    <path d="M 408.831235 136.716441 
L 413.141165 137.90997 
L 409.600384 140.641796 
z
" clip-path="url(#p76617f0b1e)" style="stroke: #000000; stroke-linecap: round"/>
   </g>
   <g id="patch_63">
    <path d="M 351.305829 151.743417 
Q 344.420593 172.466139 337.887882 192.127858 
" clip-path="url(#p76617f0b1e)" style="fill: none; stroke: #000000; stroke-linecap: round"/>
    <path d="M 341.047089 188.962512 
L 337.887882 192.127858 
L 337.25113 187.701285 
z
" clip-path="url(#p76617f0b1e)" style="stroke: #000000; stroke-linecap: round"/>
   </g>
   <g id="patch_64">
    <path d="M 350.136764 149.14631 
Q 288.953687 123.002447 228.798717 97.297898 
" clip-path="url(#p76617f0b1e)" style="fill: none; stroke: #000000; stroke-linecap: round"/>
    <path d="M 231.69111 100.708772 
L 228.798717 97.297898 
L 233.262852 97.030508 
z
" clip-path="url(#p76617f0b1e)" style="stroke: #000000; stroke-linecap: round"/>
   </g>
   <g id="patch_65">
    <path d="M 353.837861 150.170739 
Q 386.366941 154.641175 417.788397 158.959391 
" clip-path="url(#p76617f0b1e)" style="fill: none; stroke: #000000; stroke-linecap: round"/>
    <path d="M 414.097943 156.433418 
L 417.788397 158.959391 
L 413.553346 160.396171 
z
" clip-path="url(#p76617f0b1e)" style="stroke: #000000; stroke-linecap: round"/>
   </g>
   <g id="patch_66">
    <path d="M 353.54031 148.853284 
Q 377.650228 133.217167 400.82211 118.189398 
" clip-path="url(#p76617f0b1e)" style="fill: none; stroke: #000000; stroke-linecap: round"/>
    <path d="M 396.377843 118.687884 
L 400.82211 118.189398 
L 398.554338 122.043903 
z
" clip-path="url(#p76617f0b1e)" style="stroke: #000000; stroke-linecap: round"/>
   </g>
   <g id="patch_67">
    <path d="M 353.614392 150.842502 
Q 378.317581 164.455622 402.041573 177.529139 
" clip-path="url(#p76617f0b1e)" style="fill: none; stroke: #000000; stroke-linecap: round"/>
    <path d="M 399.503562 173.846952 
L 402.041573 177.529139 
L 397.573017 177.350235 
z
" clip-path="url(#p76617f0b1e)" style="stroke: #000000; stroke-linecap: round"/>
   </g>
   <g id="patch_68">
    <path d="M 352.191027 151.822831 
Q 356.697678 183.234501 361.04555 213.53947 
" clip-path="url(#p76617f0b1e)" style="fill: none; stroke: #000000; stroke-linecap: round"/>
    <path d="M 362.457213 209.29598 
L 361.04555 213.53947 
L 358.497755 209.864045 
z
" clip-path="url(#p76617f0b1e)" style="stroke: #000000; stroke-linecap: round"/>
   </g>
   <g id="patch_69">
    <path d="M 359.54153 216.576028 
Q 327.48834 216.798122 296.553157 217.01247 
" clip-path="url(#p76617f0b1e)" style="fill: none; stroke: #000000; stroke-linecap: round"/>
    <path d="M 300.566918 218.984707 
L 296.553157 217.01247 
L 300.539203 214.984803 
z
" clip-path="url(#p76617f0b1e)" style="stroke: #000000; stroke-linecap: round"/>
   </g>
   <g id="patch_70">
    <path d="M 361.204362 214.646405 
Q 356.697712 183.234735 352.34984 152.929766 
" clip-path="url(#p76617f0b1e)" style="fill: none; stroke: #000000; stroke-linecap: round"/>
    <path d="M 350.938177 157.173256 
L 352.34984 152.929766 
L 354.897634 156.605191 
z
" clip-path="url(#p76617f0b1e)" style="stroke: #000000; stroke-linecap: round"/>
   </g>
   <g id="patch_71">
    <path d="M 362.897771 217.886025 
Q 383.283405 236.905411 402.851549 255.162096 
" clip-path="url(#p76617f0b1e)" style="fill: none; stroke: #000000; stroke-linecap: round"/>
    <path d="M 401.291173 250.971007 
L 402.851549 255.162096 
L 398.562453 253.895744 
z
" clip-path="url(#p76617f0b1e)" style="stroke: #000000; stroke-linecap: round"/>
   </g>
   <g id="patch_72">
    <path d="M 403.664088 255.920178 
Q 383.278455 236.900793 363.71031 218.644108 
" clip-path="url(#p76617f0b1e)" style="fill: none; stroke: #000000; stroke-linecap: round"/>
    <path d="M 365.270687 222.835197 
L 363.71031 218.644108 
L 367.999407 219.91046 
z
" clip-path="url(#p76617f0b1e)" style="stroke: #000000; stroke-linecap: round"/>
   </g>
   <g id="patch_73">
    <path d="M 418.891471 159.110986 
Q 386.362392 154.64055 354.940935 150.322333 
" clip-path="url(#p76617f0b1e)" style="fill: none; stroke: #000000; stroke-linecap: round"/>
    <path d="M 358.63139 152.848307 
L 354.940935 150.322333 
L 359.175987 148.885553 
z
" clip-path="url(#p76617f0b1e)" style="stroke: #000000; stroke-linecap: round"/>
   </g>
   <g id="patch_74">
    <path d="M 401.763658 117.578772 
Q 377.65374 133.214889 354.481858 148.242658 
" clip-path="url(#p76617f0b1e)" style="fill: none; stroke: #000000; stroke-linecap: round"/>
    <path d="M 358.926125 147.744173 
L 354.481858 148.242658 
L 356.74963 144.388153 
z
" clip-path="url(#p76617f0b1e)" style="stroke: #000000; stroke-linecap: round"/>
   </g>
   <g id="patch_75">
    <path d="M 403.016046 178.066139 
Q 378.312857 164.453019 354.588866 151.379503 
" clip-path="url(#p76617f0b1e)" style="fill: none; stroke: #000000; stroke-linecap: round"/>
    <path d="M 357.126877 155.06169 
L 354.588866 151.379503 
L 359.057422 151.558406 
z
" clip-path="url(#p76617f0b1e)" style="stroke: #000000; stroke-linecap: round"/>
   </g>
   <g id="PathCollection_1">
    <defs>
     <path id="mc2712e6da5" d="M 0 1.936492 
C 0.513564 1.936492 1.006162 1.732451 1.369306 1.369306 
C 1.732451 1.006162 1.936492 0.513564 1.936492 0 
C 1.936492 -0.513564 1.732451 -1.006162 1.369306 -1.369306 
C 1.006162 -1.732451 0.513564 -1.936492 0 -1.936492 
C -0.513564 -1.936492 -1.006162 -1.732451 -1.369306 -1.369306 
C -1.732451 -1.006162 -1.936492 -0.513564 -1.936492 0 
C -1.936492 0.513564 -1.732451 1.006162 -1.369306 1.369306 
C -1.006162 1.732451 -0.513564 1.936492 0 1.936492 
z
" style="stroke: #1f78b4"/>
    </defs>
    <g clip-path="url(#p76617f0b1e)">
     <use xlink:href="#mc2712e6da5" x="135.962198" y="233.420546" style="fill: #1f78b4; stroke: #1f78b4"/>
     <use xlink:href="#mc2712e6da5" x="102.130024" y="231.65234" style="fill: #1f78b4; stroke: #1f78b4"/>
     <use xlink:href="#mc2712e6da5" x="416.136362" y="137.32308" style="fill: #1f78b4; stroke: #1f78b4"/>
     <use xlink:href="#mc2712e6da5" x="72.384378" y="184.790257" style="fill: #1f78b4; stroke: #1f78b4"/>
     <use xlink:href="#mc2712e6da5" x="93.727504" y="264.296026" style="fill: #1f78b4; stroke: #1f78b4"/>
     <use xlink:href="#mc2712e6da5" x="39.986777" y="196.151527" style="fill: #1f78b4; stroke: #1f78b4"/>
     <use xlink:href="#mc2712e6da5" x="209.114098" y="199.05668" style="fill: #1f78b4; stroke: #1f78b4"/>
     <use xlink:href="#mc2712e6da5" x="47.268061" y="168.658533" style="fill: #1f78b4; stroke: #1f78b4"/>
     <use xlink:href="#mc2712e6da5" x="77.994753" y="315.609917" style="fill: #1f78b4; stroke: #1f78b4"/>
     <use xlink:href="#mc2712e6da5" x="75.623707" y="153.378287" style="fill: #1f78b4; stroke: #1f78b4"/>
     <use xlink:href="#mc2712e6da5" x="229.011825" y="29.990083" style="fill: #1f78b4; stroke: #1f78b4"/>
     <use xlink:href="#mc2712e6da5" x="182.155834" y="107.490945" style="fill: #1f78b4; stroke: #1f78b4"/>
     <use xlink:href="#mc2712e6da5" x="165.330009" y="55.183263" style="fill: #1f78b4; stroke: #1f78b4"/>
     <use xlink:href="#mc2712e6da5" x="260.802964" y="64.793185" style="fill: #1f78b4; stroke: #1f78b4"/>
     <use xlink:href="#mc2712e6da5" x="163.664909" y="82.83672" style="fill: #1f78b4; stroke: #1f78b4"/>
     <use xlink:href="#mc2712e6da5" x="288.047849" y="59.296363" style="fill: #1f78b4; stroke: #1f78b4"/>
     <use xlink:href="#mc2712e6da5" x="226.920128" y="52.250021" style="fill: #1f78b4; stroke: #1f78b4"/>
     <use xlink:href="#mc2712e6da5" x="219.286859" y="152.042881" style="fill: #1f78b4; stroke: #1f78b4"/>
     <use xlink:href="#mc2712e6da5" x="266.321589" y="115.561051" style="fill: #1f78b4; stroke: #1f78b4"/>
     <use xlink:href="#mc2712e6da5" x="58.972723" y="213.005554" style="fill: #1f78b4; stroke: #1f78b4"/>
     <use xlink:href="#mc2712e6da5" x="68.271822" y="232.589284" style="fill: #1f78b4; stroke: #1f78b4"/>
     <use xlink:href="#mc2712e6da5" x="287.569366" y="88.257049" style="fill: #1f78b4; stroke: #1f78b4"/>
     <use xlink:href="#mc2712e6da5" x="192.192821" y="62.250667" style="fill: #1f78b4; stroke: #1f78b4"/>
     <use xlink:href="#mc2712e6da5" x="195.463859" y="35.745852" style="fill: #1f78b4; stroke: #1f78b4"/>
     <use xlink:href="#mc2712e6da5" x="261.546422" y="38.00823" style="fill: #1f78b4; stroke: #1f78b4"/>
     <use xlink:href="#mc2712e6da5" x="336.925346" y="195.024834" style="fill: #1f78b4; stroke: #1f78b4"/>
     <use xlink:href="#mc2712e6da5" x="293.496196" y="217.033651" style="fill: #1f78b4; stroke: #1f78b4"/>
     <use xlink:href="#mc2712e6da5" x="118.526181" y="189.233654" style="fill: #1f78b4; stroke: #1f78b4"/>
     <use xlink:href="#mc2712e6da5" x="225.986096" y="96.09605" style="fill: #1f78b4; stroke: #1f78b4"/>
     <use xlink:href="#mc2712e6da5" x="351.916109" y="149.906634" style="fill: #1f78b4; stroke: #1f78b4"/>
     <use xlink:href="#mc2712e6da5" x="361.47928" y="216.562602" style="fill: #1f78b4; stroke: #1f78b4"/>
     <use xlink:href="#mc2712e6da5" x="405.082579" y="257.243602" style="fill: #1f78b4; stroke: #1f78b4"/>
     <use xlink:href="#mc2712e6da5" x="420.813223" y="159.37509" style="fill: #1f78b4; stroke: #1f78b4"/>
     <use xlink:href="#mc2712e6da5" x="403.387858" y="116.525422" style="fill: #1f78b4; stroke: #1f78b4"/>
     <use xlink:href="#mc2712e6da5" x="404.714329" y="179.002007" style="fill: #1f78b4; stroke: #1f78b4"/>
    </g>
   </g>
   <g id="text_1">
    <g clip-path="url(#p76617f0b1e)">
     <!-- 0 -->
     <g transform="translate(132.780948 236.179921) scale(0.1 -0.1)">
      <defs>
       <path id="DejaVuSans-30" d="M 2034 4250 
Q 1547 4250 1301 3770 
Q 1056 3291 1056 2328 
Q 1056 1369 1301 889 
Q 1547 409 2034 409 
Q 2525 409 2770 889 
Q 3016 1369 3016 2328 
Q 3016 3291 2770 3770 
Q 2525 4250 2034 4250 
z
M 2034 4750 
Q 2819 4750 3233 4129 
Q 3647 3509 3647 2328 
Q 3647 1150 3233 529 
Q 2819 -91 2034 -91 
Q 1250 -91 836 529 
Q 422 1150 422 2328 
Q 422 3509 836 4129 
Q 1250 4750 2034 4750 
z
" transform="scale(0.015625)"/>
      </defs>
      <use xlink:href="#DejaVuSans-30"/>
     </g>
    </g>
   </g>
   <g id="text_2">
    <g clip-path="url(#p76617f0b1e)">
     <!-- 1 -->
     <g transform="translate(98.948774 234.411715) scale(0.1 -0.1)">
      <defs>
       <path id="DejaVuSans-31" d="M 794 531 
L 1825 531 
L 1825 4091 
L 703 3866 
L 703 4441 
L 1819 4666 
L 2450 4666 
L 2450 531 
L 3481 531 
L 3481 0 
L 794 0 
L 794 531 
z
" transform="scale(0.015625)"/>
      </defs>
      <use xlink:href="#DejaVuSans-31"/>
     </g>
    </g>
   </g>
   <g id="text_3">
    <g clip-path="url(#p76617f0b1e)">
     <!-- 2 -->
     <g transform="translate(412.955112 140.082455) scale(0.1 -0.1)">
      <defs>
       <path id="DejaVuSans-32" d="M 1228 531 
L 3431 531 
L 3431 0 
L 469 0 
L 469 531 
Q 828 903 1448 1529 
Q 2069 2156 2228 2338 
Q 2531 2678 2651 2914 
Q 2772 3150 2772 3378 
Q 2772 3750 2511 3984 
Q 2250 4219 1831 4219 
Q 1534 4219 1204 4116 
Q 875 4013 500 3803 
L 500 4441 
Q 881 4594 1212 4672 
Q 1544 4750 1819 4750 
Q 2544 4750 2975 4387 
Q 3406 4025 3406 3419 
Q 3406 3131 3298 2873 
Q 3191 2616 2906 2266 
Q 2828 2175 2409 1742 
Q 1991 1309 1228 531 
z
" transform="scale(0.015625)"/>
      </defs>
      <use xlink:href="#DejaVuSans-32"/>
     </g>
    </g>
   </g>
   <g id="text_4">
    <g clip-path="url(#p76617f0b1e)">
     <!-- 3 -->
     <g transform="translate(69.203128 187.549632) scale(0.1 -0.1)">
      <defs>
       <path id="DejaVuSans-33" d="M 2597 2516 
Q 3050 2419 3304 2112 
Q 3559 1806 3559 1356 
Q 3559 666 3084 287 
Q 2609 -91 1734 -91 
Q 1441 -91 1130 -33 
Q 819 25 488 141 
L 488 750 
Q 750 597 1062 519 
Q 1375 441 1716 441 
Q 2309 441 2620 675 
Q 2931 909 2931 1356 
Q 2931 1769 2642 2001 
Q 2353 2234 1838 2234 
L 1294 2234 
L 1294 2753 
L 1863 2753 
Q 2328 2753 2575 2939 
Q 2822 3125 2822 3475 
Q 2822 3834 2567 4026 
Q 2313 4219 1838 4219 
Q 1578 4219 1281 4162 
Q 984 4106 628 3988 
L 628 4550 
Q 988 4650 1302 4700 
Q 1616 4750 1894 4750 
Q 2613 4750 3031 4423 
Q 3450 4097 3450 3541 
Q 3450 3153 3228 2886 
Q 3006 2619 2597 2516 
z
" transform="scale(0.015625)"/>
      </defs>
      <use xlink:href="#DejaVuSans-33"/>
     </g>
    </g>
   </g>
   <g id="text_5">
    <g clip-path="url(#p76617f0b1e)">
     <!-- 4 -->
     <g transform="translate(90.546254 267.055401) scale(0.1 -0.1)">
      <defs>
       <path id="DejaVuSans-34" d="M 2419 4116 
L 825 1625 
L 2419 1625 
L 2419 4116 
z
M 2253 4666 
L 3047 4666 
L 3047 1625 
L 3713 1625 
L 3713 1100 
L 3047 1100 
L 3047 0 
L 2419 0 
L 2419 1100 
L 313 1100 
L 313 1709 
L 2253 4666 
z
" transform="scale(0.015625)"/>
      </defs>
      <use xlink:href="#DejaVuSans-34"/>
     </g>
    </g>
   </g>
   <g id="text_6">
    <g clip-path="url(#p76617f0b1e)">
     <!-- 5 -->
     <g transform="translate(36.805527 198.910902) scale(0.1 -0.1)">
      <defs>
       <path id="DejaVuSans-35" d="M 691 4666 
L 3169 4666 
L 3169 4134 
L 1269 4134 
L 1269 2991 
Q 1406 3038 1543 3061 
Q 1681 3084 1819 3084 
Q 2600 3084 3056 2656 
Q 3513 2228 3513 1497 
Q 3513 744 3044 326 
Q 2575 -91 1722 -91 
Q 1428 -91 1123 -41 
Q 819 9 494 109 
L 494 744 
Q 775 591 1075 516 
Q 1375 441 1709 441 
Q 2250 441 2565 725 
Q 2881 1009 2881 1497 
Q 2881 1984 2565 2268 
Q 2250 2553 1709 2553 
Q 1456 2553 1204 2497 
Q 953 2441 691 2322 
L 691 4666 
z
" transform="scale(0.015625)"/>
      </defs>
      <use xlink:href="#DejaVuSans-35"/>
     </g>
    </g>
   </g>
   <g id="text_7">
    <g clip-path="url(#p76617f0b1e)">
     <!-- 6 -->
     <g transform="translate(205.932848 201.816055) scale(0.1 -0.1)">
      <defs>
       <path id="DejaVuSans-36" d="M 2113 2584 
Q 1688 2584 1439 2293 
Q 1191 2003 1191 1497 
Q 1191 994 1439 701 
Q 1688 409 2113 409 
Q 2538 409 2786 701 
Q 3034 994 3034 1497 
Q 3034 2003 2786 2293 
Q 2538 2584 2113 2584 
z
M 3366 4563 
L 3366 3988 
Q 3128 4100 2886 4159 
Q 2644 4219 2406 4219 
Q 1781 4219 1451 3797 
Q 1122 3375 1075 2522 
Q 1259 2794 1537 2939 
Q 1816 3084 2150 3084 
Q 2853 3084 3261 2657 
Q 3669 2231 3669 1497 
Q 3669 778 3244 343 
Q 2819 -91 2113 -91 
Q 1303 -91 875 529 
Q 447 1150 447 2328 
Q 447 3434 972 4092 
Q 1497 4750 2381 4750 
Q 2619 4750 2861 4703 
Q 3103 4656 3366 4563 
z
" transform="scale(0.015625)"/>
      </defs>
      <use xlink:href="#DejaVuSans-36"/>
     </g>
    </g>
   </g>
   <g id="text_8">
    <g clip-path="url(#p76617f0b1e)">
     <!-- 7 -->
     <g transform="translate(44.086811 171.417908) scale(0.1 -0.1)">
      <defs>
       <path id="DejaVuSans-37" d="M 525 4666 
L 3525 4666 
L 3525 4397 
L 1831 0 
L 1172 0 
L 2766 4134 
L 525 4134 
L 525 4666 
z
" transform="scale(0.015625)"/>
      </defs>
      <use xlink:href="#DejaVuSans-37"/>
     </g>
    </g>
   </g>
   <g id="text_9">
    <g clip-path="url(#p76617f0b1e)">
     <!-- 8 -->
     <g transform="translate(74.813503 318.369292) scale(0.1 -0.1)">
      <defs>
       <path id="DejaVuSans-38" d="M 2034 2216 
Q 1584 2216 1326 1975 
Q 1069 1734 1069 1313 
Q 1069 891 1326 650 
Q 1584 409 2034 409 
Q 2484 409 2743 651 
Q 3003 894 3003 1313 
Q 3003 1734 2745 1975 
Q 2488 2216 2034 2216 
z
M 1403 2484 
Q 997 2584 770 2862 
Q 544 3141 544 3541 
Q 544 4100 942 4425 
Q 1341 4750 2034 4750 
Q 2731 4750 3128 4425 
Q 3525 4100 3525 3541 
Q 3525 3141 3298 2862 
Q 3072 2584 2669 2484 
Q 3125 2378 3379 2068 
Q 3634 1759 3634 1313 
Q 3634 634 3220 271 
Q 2806 -91 2034 -91 
Q 1263 -91 848 271 
Q 434 634 434 1313 
Q 434 1759 690 2068 
Q 947 2378 1403 2484 
z
M 1172 3481 
Q 1172 3119 1398 2916 
Q 1625 2713 2034 2713 
Q 2441 2713 2670 2916 
Q 2900 3119 2900 3481 
Q 2900 3844 2670 4047 
Q 2441 4250 2034 4250 
Q 1625 4250 1398 4047 
Q 1172 3844 1172 3481 
z
" transform="scale(0.015625)"/>
      </defs>
      <use xlink:href="#DejaVuSans-38"/>
     </g>
    </g>
   </g>
   <g id="text_10">
    <g clip-path="url(#p76617f0b1e)">
     <!-- 9 -->
     <g transform="translate(72.442457 156.137662) scale(0.1 -0.1)">
      <defs>
       <path id="DejaVuSans-39" d="M 703 97 
L 703 672 
Q 941 559 1184 500 
Q 1428 441 1663 441 
Q 2288 441 2617 861 
Q 2947 1281 2994 2138 
Q 2813 1869 2534 1725 
Q 2256 1581 1919 1581 
Q 1219 1581 811 2004 
Q 403 2428 403 3163 
Q 403 3881 828 4315 
Q 1253 4750 1959 4750 
Q 2769 4750 3195 4129 
Q 3622 3509 3622 2328 
Q 3622 1225 3098 567 
Q 2575 -91 1691 -91 
Q 1453 -91 1209 -44 
Q 966 3 703 97 
z
M 1959 2075 
Q 2384 2075 2632 2365 
Q 2881 2656 2881 3163 
Q 2881 3666 2632 3958 
Q 2384 4250 1959 4250 
Q 1534 4250 1286 3958 
Q 1038 3666 1038 3163 
Q 1038 2656 1286 2365 
Q 1534 2075 1959 2075 
z
" transform="scale(0.015625)"/>
      </defs>
      <use xlink:href="#DejaVuSans-39"/>
     </g>
    </g>
   </g>
   <g id="text_11">
    <g clip-path="url(#p76617f0b1e)">
     <!-- 10 -->
     <g transform="translate(222.649325 32.749458) scale(0.1 -0.1)">
      <use xlink:href="#DejaVuSans-31"/>
      <use xlink:href="#DejaVuSans-30" x="63.623047"/>
     </g>
    </g>
   </g>
   <g id="text_12">
    <g clip-path="url(#p76617f0b1e)">
     <!-- 11 -->
     <g transform="translate(175.793334 110.25032) scale(0.1 -0.1)">
      <use xlink:href="#DejaVuSans-31"/>
      <use xlink:href="#DejaVuSans-31" x="63.623047"/>
     </g>
    </g>
   </g>
   <g id="text_13">
    <g clip-path="url(#p76617f0b1e)">
     <!-- 12 -->
     <g transform="translate(158.967509 57.942638) scale(0.1 -0.1)">
      <use xlink:href="#DejaVuSans-31"/>
      <use xlink:href="#DejaVuSans-32" x="63.623047"/>
     </g>
    </g>
   </g>
   <g id="text_14">
    <g clip-path="url(#p76617f0b1e)">
     <!-- 13 -->
     <g transform="translate(254.440464 67.55256) scale(0.1 -0.1)">
      <use xlink:href="#DejaVuSans-31"/>
      <use xlink:href="#DejaVuSans-33" x="63.623047"/>
     </g>
    </g>
   </g>
   <g id="text_15">
    <g clip-path="url(#p76617f0b1e)">
     <!-- 14 -->
     <g transform="translate(157.302409 85.596095) scale(0.1 -0.1)">
      <use xlink:href="#DejaVuSans-31"/>
      <use xlink:href="#DejaVuSans-34" x="63.623047"/>
     </g>
    </g>
   </g>
   <g id="text_16">
    <g clip-path="url(#p76617f0b1e)">
     <!-- 15 -->
     <g transform="translate(281.685349 62.055738) scale(0.1 -0.1)">
      <use xlink:href="#DejaVuSans-31"/>
      <use xlink:href="#DejaVuSans-35" x="63.623047"/>
     </g>
    </g>
   </g>
   <g id="text_17">
    <g clip-path="url(#p76617f0b1e)">
     <!-- 16 -->
     <g transform="translate(220.557628 55.009396) scale(0.1 -0.1)">
      <use xlink:href="#DejaVuSans-31"/>
      <use xlink:href="#DejaVuSans-36" x="63.623047"/>
     </g>
    </g>
   </g>
   <g id="text_18">
    <g clip-path="url(#p76617f0b1e)">
     <!-- 17 -->
     <g transform="translate(212.924359 154.802256) scale(0.1 -0.1)">
      <use xlink:href="#DejaVuSans-31"/>
      <use xlink:href="#DejaVuSans-37" x="63.623047"/>
     </g>
    </g>
   </g>
   <g id="text_19">
    <g clip-path="url(#p76617f0b1e)">
     <!-- 18 -->
     <g transform="translate(259.959089 118.320426) scale(0.1 -0.1)">
      <use xlink:href="#DejaVuSans-31"/>
      <use xlink:href="#DejaVuSans-38" x="63.623047"/>
     </g>
    </g>
   </g>
   <g id="text_20">
    <g clip-path="url(#p76617f0b1e)">
     <!-- 19 -->
     <g transform="translate(52.610223 215.764929) scale(0.1 -0.1)">
      <use xlink:href="#DejaVuSans-31"/>
      <use xlink:href="#DejaVuSans-39" x="63.623047"/>
     </g>
    </g>
   </g>
   <g id="text_21">
    <g clip-path="url(#p76617f0b1e)">
     <!-- 20 -->
     <g transform="translate(61.909322 235.348659) scale(0.1 -0.1)">
      <use xlink:href="#DejaVuSans-32"/>
      <use xlink:href="#DejaVuSans-30" x="63.623047"/>
     </g>
    </g>
   </g>
   <g id="text_22">
    <g clip-path="url(#p76617f0b1e)">
     <!-- 21 -->
     <g transform="translate(281.206866 91.016424) scale(0.1 -0.1)">
      <use xlink:href="#DejaVuSans-32"/>
      <use xlink:href="#DejaVuSans-31" x="63.623047"/>
     </g>
    </g>
   </g>
   <g id="text_23">
    <g clip-path="url(#p76617f0b1e)">
     <!-- 22 -->
     <g transform="translate(185.830321 65.010042) scale(0.1 -0.1)">
      <use xlink:href="#DejaVuSans-32"/>
      <use xlink:href="#DejaVuSans-32" x="63.623047"/>
     </g>
    </g>
   </g>
   <g id="text_24">
    <g clip-path="url(#p76617f0b1e)">
     <!-- 23 -->
     <g transform="translate(189.101359 38.505227) scale(0.1 -0.1)">
      <use xlink:href="#DejaVuSans-32"/>
      <use xlink:href="#DejaVuSans-33" x="63.623047"/>
     </g>
    </g>
   </g>
   <g id="text_25">
    <g clip-path="url(#p76617f0b1e)">
     <!-- 24 -->
     <g transform="translate(255.183922 40.767605) scale(0.1 -0.1)">
      <use xlink:href="#DejaVuSans-32"/>
      <use xlink:href="#DejaVuSans-34" x="63.623047"/>
     </g>
    </g>
   </g>
   <g id="text_26">
    <g clip-path="url(#p76617f0b1e)">
     <!-- 25 -->
     <g transform="translate(330.562846 197.784209) scale(0.1 -0.1)">
      <use xlink:href="#DejaVuSans-32"/>
      <use xlink:href="#DejaVuSans-35" x="63.623047"/>
     </g>
    </g>
   </g>
   <g id="text_27">
    <g clip-path="url(#p76617f0b1e)">
     <!-- 26 -->
     <g transform="translate(287.133696 219.793026) scale(0.1 -0.1)">
      <use xlink:href="#DejaVuSans-32"/>
      <use xlink:href="#DejaVuSans-36" x="63.623047"/>
     </g>
    </g>
   </g>
   <g id="text_28">
    <g clip-path="url(#p76617f0b1e)">
     <!-- 27 -->
     <g transform="translate(112.163681 191.993029) scale(0.1 -0.1)">
      <use xlink:href="#DejaVuSans-32"/>
      <use xlink:href="#DejaVuSans-37" x="63.623047"/>
     </g>
    </g>
   </g>
   <g id="text_29">
    <g clip-path="url(#p76617f0b1e)">
     <!-- 28 -->
     <g transform="translate(219.623596 98.855425) scale(0.1 -0.1)">
      <use xlink:href="#DejaVuSans-32"/>
      <use xlink:href="#DejaVuSans-38" x="63.623047"/>
     </g>
    </g>
   </g>
   <g id="text_30">
    <g clip-path="url(#p76617f0b1e)">
     <!-- 29 -->
     <g transform="translate(345.553609 152.666009) scale(0.1 -0.1)">
      <use xlink:href="#DejaVuSans-32"/>
      <use xlink:href="#DejaVuSans-39" x="63.623047"/>
     </g>
    </g>
   </g>
   <g id="text_31">
    <g clip-path="url(#p76617f0b1e)">
     <!-- 30 -->
     <g transform="translate(355.11678 219.321977) scale(0.1 -0.1)">
      <use xlink:href="#DejaVuSans-33"/>
      <use xlink:href="#DejaVuSans-30" x="63.623047"/>
     </g>
    </g>
   </g>
   <g id="text_32">
    <g clip-path="url(#p76617f0b1e)">
     <!-- 31 -->
     <g transform="translate(398.720079 260.002977) scale(0.1 -0.1)">
      <use xlink:href="#DejaVuSans-33"/>
      <use xlink:href="#DejaVuSans-31" x="63.623047"/>
     </g>
    </g>
   </g>
   <g id="text_33">
    <g clip-path="url(#p76617f0b1e)">
     <!-- 32 -->
     <g transform="translate(414.450723 162.134465) scale(0.1 -0.1)">
      <use xlink:href="#DejaVuSans-33"/>
      <use xlink:href="#DejaVuSans-32" x="63.623047"/>
     </g>
    </g>
   </g>
   <g id="text_34">
    <g clip-path="url(#p76617f0b1e)">
     <!-- 33 -->
     <g transform="translate(397.025358 119.284797) scale(0.1 -0.1)">
      <use xlink:href="#DejaVuSans-33"/>
      <use xlink:href="#DejaVuSans-33" x="63.623047"/>
     </g>
    </g>
   </g>
   <g id="text_35">
    <g clip-path="url(#p76617f0b1e)">
     <!-- 34 -->
     <g transform="translate(398.351829 181.761382) scale(0.1 -0.1)">
      <use xlink:href="#DejaVuSans-33"/>
      <use xlink:href="#DejaVuSans-34" x="63.623047"/>
     </g>
    </g>
   </g>
  </g>
 </g>
 <defs>
  <clipPath id="p76617f0b1e">
   <rect x="0" y="0" width="460.8" height="345.6"/>
  </clipPath>
 </defs>
</svg>
