<?xml version="1.0" encoding="utf-8" standalone="no"?>
<!DOCTYPE svg PUBLIC "-//W3C//DTD SVG 1.1//EN"
  "http://www.w3.org/Graphics/SVG/1.1/DTD/svg11.dtd">
<svg xmlns:xlink="http://www.w3.org/1999/xlink" width="460.8pt" height="345.6pt" viewBox="0 0 460.8 345.6" xmlns="http://www.w3.org/2000/svg" version="1.1">
 <metadata>
  <rdf:RDF xmlns:dc="http://purl.org/dc/elements/1.1/" xmlns:cc="http://creativecommons.org/ns#" xmlns:rdf="http://www.w3.org/1999/02/22-rdf-syntax-ns#">
   <cc:Work>
    <dc:type rdf:resource="http://purl.org/dc/dcmitype/StillImage"/>
    <dc:date>2024-02-28T11:17:49.987679</dc:date>
    <dc:format>image/svg+xml</dc:format>
    <dc:creator>
     <cc:Agent>
      <dc:title>Matplotlib v3.8.0, https://matplotlib.org/</dc:title>
     </cc:Agent>
    </dc:creator>
   </cc:Work>
  </rdf:RDF>
 </metadata>
 <defs>
  <style type="text/css">*{stroke-linejoin: round; stroke-linecap: butt}</style>
 </defs>
 <g id="figure_1">
  <g id="patch_1">
   <path d="M 0 345.6 
L 460.8 345.6 
L 460.8 0 
L 0 0 
z
" style="fill: #ffffff"/>
  </g>
  <g id="axes_1">
   <g id="patch_2">
    <path d="M 395.544679 127.927724 
Q 407.735548 151.612364 419.414749 174.302925 
" clip-path="url(#pb36ce48e6d)" style="fill: none; stroke: #000000; stroke-linecap: round"/>
    <path d="M 419.36241 169.831095 
L 419.414749 174.302925 
L 415.805882 171.661698 
z
" clip-path="url(#pb36ce48e6d)" style="stroke: #000000; stroke-linecap: round"/>
   </g>
   <g id="patch_3">
    <path d="M 392.971193 125.25519 
Q 360.011881 106.675997 328.026519 88.645821 
" clip-path="url(#pb36ce48e6d)" style="fill: none; stroke: #000000; stroke-linecap: round"/>
    <path d="M 330.52892 92.352301 
L 328.026519 88.645821 
L 332.493143 88.867788 
z
" clip-path="url(#pb36ce48e6d)" style="stroke: #000000; stroke-linecap: round"/>
   </g>
   <g id="patch_4">
    <path d="M 268.447998 58.326272 
Q 284.51536 44.781663 299.727898 31.957662 
" clip-path="url(#pb36ce48e6d)" style="fill: none; stroke: #000000; stroke-linecap: round"/>
    <path d="M 295.380523 33.00663 
L 299.727898 31.957662 
L 297.958647 36.064943 
z
" clip-path="url(#pb36ce48e6d)" style="stroke: #000000; stroke-linecap: round"/>
   </g>
   <g id="patch_5">
    <path d="M 268.447998 58.326272 
Q 284.51536 44.781663 299.727898 31.957662 
" clip-path="url(#pb36ce48e6d)" style="fill: none; stroke: #000000; stroke-linecap: round"/>
    <path d="M 295.380523 33.00663 
L 299.727898 31.957662 
L 297.958647 36.064943 
z
" clip-path="url(#pb36ce48e6d)" style="stroke: #000000; stroke-linecap: round"/>
   </g>
   <g id="patch_6">
    <path d="M 265.306989 60.574503 
Q 228.036114 83.026263 191.722933 104.901115 
" clip-path="url(#pb36ce48e6d)" style="fill: none; stroke: #000000; stroke-linecap: round"/>
    <path d="M 196.181286 104.550277 
L 191.722933 104.901115 
L 194.117274 101.123929 
z
" clip-path="url(#pb36ce48e6d)" style="stroke: #000000; stroke-linecap: round"/>
   </g>
   <g id="patch_7">
    <path d="M 268.717953 60.400251 
Q 296.164955 73.359041 322.600943 85.840493 
" clip-path="url(#pb36ce48e6d)" style="fill: none; stroke: #000000; stroke-linecap: round"/>
    <path d="M 319.837721 82.324159 
L 322.600943 85.840493 
L 318.129943 85.94127 
z
" clip-path="url(#pb36ce48e6d)" style="stroke: #000000; stroke-linecap: round"/>
   </g>
   <g id="patch_8">
    <path d="M 114.989964 298.426914 
Q 78.354725 280.047448 42.71881 262.169331 
" clip-path="url(#pb36ce48e6d)" style="fill: none; stroke: #000000; stroke-linecap: round"/>
    <path d="M 45.397261 265.750658 
L 42.71881 262.169331 
L 47.190942 262.175366 
z
" clip-path="url(#pb36ce48e6d)" style="stroke: #000000; stroke-linecap: round"/>
   </g>
   <g id="patch_9">
    <path d="M 118.658077 299.331396 
Q 174.333399 300.37424 228.890883 301.396145 
" clip-path="url(#pb36ce48e6d)" style="fill: none; stroke: #000000; stroke-linecap: round"/>
    <path d="M 224.92904 299.321586 
L 228.890883 301.396145 
L 224.85413 303.320884 
z
" clip-path="url(#pb36ce48e6d)" style="stroke: #000000; stroke-linecap: round"/>
   </g>
   <g id="patch_10">
    <path d="M 397.203882 230.686266 
Q 365.727874 251.780598 335.180622 272.252505 
" clip-path="url(#pb36ce48e6d)" style="fill: none; stroke: #000000; stroke-linecap: round"/>
    <path d="M 339.616867 271.687055 
L 335.180622 272.252505 
L 337.39001 268.364239 
z
" clip-path="url(#pb36ce48e6d)" style="stroke: #000000; stroke-linecap: round"/>
   </g>
   <g id="patch_11">
    <path d="M 399.5633 227.818482 
Q 409.814079 203.313688 419.633395 179.840319 
" clip-path="url(#pb36ce48e6d)" style="fill: none; stroke: #000000; stroke-linecap: round"/>
    <path d="M 416.244674 182.758636 
L 419.633395 179.840319 
L 419.934816 184.302286 
z
" clip-path="url(#pb36ce48e6d)" style="stroke: #000000; stroke-linecap: round"/>
   </g>
   <g id="patch_12">
    <path d="M 334.251707 272.875038 
Q 365.727714 251.780705 396.274966 231.308799 
" clip-path="url(#pb36ce48e6d)" style="fill: none; stroke: #000000; stroke-linecap: round"/>
    <path d="M 391.838722 231.874249 
L 396.274966 231.308799 
L 394.065579 235.197064 
z
" clip-path="url(#pb36ce48e6d)" style="stroke: #000000; stroke-linecap: round"/>
   </g>
   <g id="patch_13">
    <path d="M 330.774905 274.46445 
Q 282.295034 287.704015 234.893701 300.649039 
" clip-path="url(#pb36ce48e6d)" style="fill: none; stroke: #000000; stroke-linecap: round"/>
    <path d="M 239.27929 301.5246 
L 234.893701 300.649039 
L 238.225503 297.665904 
z
" clip-path="url(#pb36ce48e6d)" style="stroke: #000000; stroke-linecap: round"/>
   </g>
   <g id="patch_14">
    <path d="M 419.927252 175.298624 
Q 407.736382 151.613984 396.057181 128.923423 
" clip-path="url(#pb36ce48e6d)" style="fill: none; stroke: #000000; stroke-linecap: round"/>
    <path d="M 396.10952 133.395253 
L 396.057181 128.923423 
L 399.666048 131.56465 
z
" clip-path="url(#pb36ce48e6d)" style="stroke: #000000; stroke-linecap: round"/>
   </g>
   <g id="patch_15">
    <path d="M 420.065374 178.807661 
Q 409.814595 203.312455 399.995279 226.785824 
" clip-path="url(#pb36ce48e6d)" style="fill: none; stroke: #000000; stroke-linecap: round"/>
    <path d="M 403.384 223.867508 
L 399.995279 226.785824 
L 399.693858 222.323858 
z
" clip-path="url(#pb36ce48e6d)" style="stroke: #000000; stroke-linecap: round"/>
   </g>
   <g id="patch_16">
    <path d="M 327.052401 88.09671 
Q 360.011713 106.675903 391.997075 124.706078 
" clip-path="url(#pb36ce48e6d)" style="fill: none; stroke: #000000; stroke-linecap: round"/>
    <path d="M 389.494673 120.999599 
L 391.997075 124.706078 
L 387.53045 124.484112 
z
" clip-path="url(#pb36ce48e6d)" style="stroke: #000000; stroke-linecap: round"/>
   </g>
   <g id="patch_17">
    <path d="M 323.61483 86.319188 
Q 296.167828 73.360397 269.731839 60.878946 
" clip-path="url(#pb36ce48e6d)" style="fill: none; stroke: #000000; stroke-linecap: round"/>
    <path d="M 272.495061 64.395279 
L 269.731839 60.878946 
L 274.202839 60.778168 
z
" clip-path="url(#pb36ce48e6d)" style="stroke: #000000; stroke-linecap: round"/>
   </g>
   <g id="patch_18">
    <path d="M 323.430137 87.046598 
Q 283.602063 85.011522 244.890565 83.033499 
" clip-path="url(#pb36ce48e6d)" style="fill: none; stroke: #000000; stroke-linecap: round"/>
    <path d="M 248.783294 85.235013 
L 244.890565 83.033499 
L 248.987414 81.240224 
z
" clip-path="url(#pb36ce48e6d)" style="stroke: #000000; stroke-linecap: round"/>
   </g>
   <g id="patch_19">
    <path d="M 230.010714 301.417121 
Q 174.335392 300.374277 119.777908 299.352372 
" clip-path="url(#pb36ce48e6d)" style="fill: none; stroke: #000000; stroke-linecap: round"/>
    <path d="M 123.739751 301.426931 
L 119.777908 299.352372 
L 123.814661 297.427633 
z
" clip-path="url(#pb36ce48e6d)" style="stroke: #000000; stroke-linecap: round"/>
   </g>
   <g id="patch_20">
    <path d="M 233.813523 300.944029 
Q 282.293394 287.704463 329.694727 274.75944 
" clip-path="url(#pb36ce48e6d)" style="fill: none; stroke: #000000; stroke-linecap: round"/>
    <path d="M 325.309138 273.883879 
L 329.694727 274.75944 
L 326.362925 277.742575 
z
" clip-path="url(#pb36ce48e6d)" style="stroke: #000000; stroke-linecap: round"/>
   </g>
   <g id="patch_21">
    <path d="M 230.083214 301.981344 
Q 206.942712 308.531527 184.877976 314.777202 
" clip-path="url(#pb36ce48e6d)" style="fill: none; stroke: #000000; stroke-linecap: round"/>
    <path d="M 189.271478 315.612151 
L 184.877976 314.777202 
L 188.182037 311.76337 
z
" clip-path="url(#pb36ce48e6d)" style="stroke: #000000; stroke-linecap: round"/>
   </g>
   <g id="patch_22">
    <path d="M 46.066971 209.085393 
Q 43.139876 233.980945 40.343334 257.766112 
" clip-path="url(#pb36ce48e6d)" style="fill: none; stroke: #000000; stroke-linecap: round"/>
    <path d="M 42.796734 254.027017 
L 40.343334 257.766112 
L 38.824099 253.559935 
z
" clip-path="url(#pb36ce48e6d)" style="stroke: #000000; stroke-linecap: round"/>
   </g>
   <g id="patch_23">
    <path d="M 47.999503 206.246339 
Q 83.524031 187.148871 118.063803 168.580794 
" clip-path="url(#pb36ce48e6d)" style="fill: none; stroke: #000000; stroke-linecap: round"/>
    <path d="M 113.593628 168.713214 
L 118.063803 168.580794 
L 115.487633 172.236386 
z
" clip-path="url(#pb36ce48e6d)" style="stroke: #000000; stroke-linecap: round"/>
   </g>
   <g id="patch_24">
    <path d="M 41.717313 261.666892 
Q 78.352552 280.046358 113.988467 297.924475 
" clip-path="url(#pb36ce48e6d)" style="fill: none; stroke: #000000; stroke-linecap: round"/>
    <path d="M 111.310017 294.343148 
L 113.988467 297.924475 
L 109.516335 297.918439 
z
" clip-path="url(#pb36ce48e6d)" style="stroke: #000000; stroke-linecap: round"/>
   </g>
   <g id="patch_25">
    <path d="M 40.212711 258.877089 
Q 43.139806 233.981537 45.936348 210.196371 
" clip-path="url(#pb36ce48e6d)" style="fill: none; stroke: #000000; stroke-linecap: round"/>
    <path d="M 43.482948 213.935465 
L 45.936348 210.196371 
L 47.455583 214.402548 
z
" clip-path="url(#pb36ce48e6d)" style="stroke: #000000; stroke-linecap: round"/>
   </g>
   <g id="patch_26">
    <path d="M 300.581848 31.237792 
Q 284.514486 44.782401 269.301948 57.606402 
" clip-path="url(#pb36ce48e6d)" style="fill: none; stroke: #000000; stroke-linecap: round"/>
    <path d="M 273.649323 56.557434 
L 269.301948 57.606402 
L 271.071199 53.499121 
z
" clip-path="url(#pb36ce48e6d)" style="stroke: #000000; stroke-linecap: round"/>
   </g>
   <g id="patch_27">
    <path d="M 300.581848 31.237792 
Q 284.514486 44.782401 269.301948 57.606402 
" clip-path="url(#pb36ce48e6d)" style="fill: none; stroke: #000000; stroke-linecap: round"/>
    <path d="M 273.649323 56.557434 
L 269.301948 57.606402 
L 271.071199 53.499121 
z
" clip-path="url(#pb36ce48e6d)" style="stroke: #000000; stroke-linecap: round"/>
   </g>
   <g id="patch_28">
    <path d="M 243.771492 82.976318 
Q 283.599566 85.011394 322.311063 86.989417 
" clip-path="url(#pb36ce48e6d)" style="fill: none; stroke: #000000; stroke-linecap: round"/>
    <path d="M 318.418335 84.787903 
L 322.311063 86.989417 
L 318.214215 88.782691 
z
" clip-path="url(#pb36ce48e6d)" style="stroke: #000000; stroke-linecap: round"/>
   </g>
   <g id="patch_29">
    <path d="M 240.069865 83.668233 
Q 215.473477 94.676464 191.897579 105.227969 
" clip-path="url(#pb36ce48e6d)" style="fill: none; stroke: #000000; stroke-linecap: round"/>
    <path d="M 196.365614 105.419447 
L 191.897579 105.227969 
L 194.731583 101.768428 
z
" clip-path="url(#pb36ce48e6d)" style="stroke: #000000; stroke-linecap: round"/>
   </g>
   <g id="patch_30">
    <path d="M 190.768114 105.476292 
Q 228.038988 83.024532 264.35217 61.14968 
" clip-path="url(#pb36ce48e6d)" style="fill: none; stroke: #000000; stroke-linecap: round"/>
    <path d="M 259.893816 61.500518 
L 264.35217 61.14968 
L 261.957828 64.926866 
z
" clip-path="url(#pb36ce48e6d)" style="stroke: #000000; stroke-linecap: round"/>
   </g>
   <g id="patch_31">
    <path d="M 190.874083 105.686039 
Q 215.470472 94.677809 239.046369 84.126304 
" clip-path="url(#pb36ce48e6d)" style="fill: none; stroke: #000000; stroke-linecap: round"/>
    <path d="M 234.578334 83.934825 
L 239.046369 84.126304 
L 236.212365 87.585845 
z
" clip-path="url(#pb36ce48e6d)" style="stroke: #000000; stroke-linecap: round"/>
   </g>
   <g id="patch_32">
    <path d="M 187.657497 107.763325 
Q 154.930526 136.806118 123.039791 165.106814 
" clip-path="url(#pb36ce48e6d)" style="fill: none; stroke: #000000; stroke-linecap: round"/>
    <path d="M 127.359105 163.947707 
L 123.039791 165.106814 
L 124.704094 160.955899 
z
" clip-path="url(#pb36ce48e6d)" style="stroke: #000000; stroke-linecap: round"/>
   </g>
   <g id="patch_33">
    <path d="M 183.801235 315.081986 
Q 206.941737 308.531803 229.006472 302.286128 
" clip-path="url(#pb36ce48e6d)" style="fill: none; stroke: #000000; stroke-linecap: round"/>
    <path d="M 224.61297 301.451179 
L 229.006472 302.286128 
L 225.702412 305.29996 
z
" clip-path="url(#pb36ce48e6d)" style="stroke: #000000; stroke-linecap: round"/>
   </g>
   <g id="patch_34">
    <path d="M 180.81394 314.034745 
Q 166.059158 293.324582 151.953107 273.524993 
" clip-path="url(#pb36ce48e6d)" style="fill: none; stroke: #000000; stroke-linecap: round"/>
    <path d="M 152.645194 277.943252 
L 151.953107 273.524993 
L 155.902967 275.622279 
z
" clip-path="url(#pb36ce48e6d)" style="stroke: #000000; stroke-linecap: round"/>
   </g>
   <g id="patch_35">
    <path d="M 151.302901 272.612347 
Q 166.057683 293.322511 180.163733 313.1221 
" clip-path="url(#pb36ce48e6d)" style="fill: none; stroke: #000000; stroke-linecap: round"/>
    <path d="M 179.471647 308.70384 
L 180.163733 313.1221 
L 176.213874 311.024813 
z
" clip-path="url(#pb36ce48e6d)" style="stroke: #000000; stroke-linecap: round"/>
   </g>
   <g id="patch_36">
    <path d="M 149.415442 269.260733 
Q 139.501332 246.245947 130.029544 224.257976 
" clip-path="url(#pb36ce48e6d)" style="fill: none; stroke: #000000; stroke-linecap: round"/>
    <path d="M 129.775222 228.722875 
L 130.029544 224.257976 
L 133.44887 227.140373 
z
" clip-path="url(#pb36ce48e6d)" style="stroke: #000000; stroke-linecap: round"/>
   </g>
   <g id="patch_37">
    <path d="M 148.426857 270.215325 
Q 129.627573 261.405898 111.84068 253.070882 
" clip-path="url(#pb36ce48e6d)" style="fill: none; stroke: #000000; stroke-linecap: round"/>
    <path d="M 114.614066 256.579204 
L 111.84068 253.070882 
L 116.31137 252.957166 
z
" clip-path="url(#pb36ce48e6d)" style="stroke: #000000; stroke-linecap: round"/>
   </g>
   <g id="patch_38">
    <path d="M 110.826249 252.595516 
Q 129.625534 261.404942 147.412427 269.739959 
" clip-path="url(#pb36ce48e6d)" style="fill: none; stroke: #000000; stroke-linecap: round"/>
    <path d="M 144.63904 266.231636 
L 147.412427 269.739959 
L 142.941737 269.853675 
z
" clip-path="url(#pb36ce48e6d)" style="stroke: #000000; stroke-linecap: round"/>
   </g>
   <g id="patch_39">
    <path d="M 110.130768 250.148878 
Q 118.948063 236.612416 127.155138 224.012774 
" clip-path="url(#pb36ce48e6d)" style="fill: none; stroke: #000000; stroke-linecap: round"/>
    <path d="M 123.296114 226.272849 
L 127.155138 224.012774 
L 126.647783 228.456038 
z
" clip-path="url(#pb36ce48e6d)" style="stroke: #000000; stroke-linecap: round"/>
   </g>
   <g id="patch_40">
    <path d="M 129.586985 223.230613 
Q 139.501096 246.245399 148.972884 268.23337 
" clip-path="url(#pb36ce48e6d)" style="fill: none; stroke: #000000; stroke-linecap: round"/>
    <path d="M 149.227205 263.768471 
L 148.972884 268.23337 
L 145.553558 265.350974 
z
" clip-path="url(#pb36ce48e6d)" style="stroke: #000000; stroke-linecap: round"/>
   </g>
   <g id="patch_41">
    <path d="M 127.763401 223.078958 
Q 118.946106 236.61542 110.739031 249.215062 
" clip-path="url(#pb36ce48e6d)" style="fill: none; stroke: #000000; stroke-linecap: round"/>
    <path d="M 114.598055 246.954987 
L 110.739031 249.215062 
L 111.246386 244.771798 
z
" clip-path="url(#pb36ce48e6d)" style="stroke: #000000; stroke-linecap: round"/>
   </g>
   <g id="patch_42">
    <path d="M 128.537692 219.541144 
Q 124.7891 194.295337 121.204718 170.155438 
" clip-path="url(#pb36ce48e6d)" style="fill: none; stroke: #000000; stroke-linecap: round"/>
    <path d="M 119.813902 174.405806 
L 121.204718 170.155438 
L 123.770523 173.818312 
z
" clip-path="url(#pb36ce48e6d)" style="stroke: #000000; stroke-linecap: round"/>
   </g>
   <g id="patch_43">
    <path d="M 119.049412 168.050944 
Q 83.524884 187.148412 48.985113 205.716489 
" clip-path="url(#pb36ce48e6d)" style="fill: none; stroke: #000000; stroke-linecap: round"/>
    <path d="M 53.455288 205.584069 
L 48.985113 205.716489 
L 51.561282 202.060897 
z
" clip-path="url(#pb36ce48e6d)" style="stroke: #000000; stroke-linecap: round"/>
   </g>
   <g id="patch_44">
    <path d="M 122.20572 165.846991 
Q 154.93269 136.804198 186.823425 108.503502 
" clip-path="url(#pb36ce48e6d)" style="fill: none; stroke: #000000; stroke-linecap: round"/>
    <path d="M 182.504111 109.662609 
L 186.823425 108.503502 
L 185.159123 112.654417 
z
" clip-path="url(#pb36ce48e6d)" style="stroke: #000000; stroke-linecap: round"/>
   </g>
   <g id="patch_45">
    <path d="M 121.040063 169.046529 
Q 124.788655 194.292337 128.373037 218.432235 
" clip-path="url(#pb36ce48e6d)" style="fill: none; stroke: #000000; stroke-linecap: round"/>
    <path d="M 129.763853 214.181867 
L 128.373037 218.432235 
L 125.807232 214.769361 
z
" clip-path="url(#pb36ce48e6d)" style="stroke: #000000; stroke-linecap: round"/>
   </g>
   <g id="PathCollection_1">
    <defs>
     <path id="m26f5ef4234" d="M 0 1.936492 
C 0.513564 1.936492 1.006162 1.732451 1.369306 1.369306 
C 1.732451 1.006162 1.936492 0.513564 1.936492 0 
C 1.936492 -0.513564 1.732451 -1.006162 1.369306 -1.369306 
C 1.006162 -1.732451 0.513564 -1.936492 0 -1.936492 
C -0.513564 -1.936492 -1.006162 -1.732451 -1.369306 -1.369306 
C -1.732451 -1.006162 -1.936492 -0.513564 -1.936492 0 
C -1.936492 0.513564 -1.732451 1.006162 -1.369306 1.369306 
C -1.006162 1.732451 -0.513564 1.936492 0 1.936492 
z
" style="stroke: #1f78b4"/>
    </defs>
    <g clip-path="url(#pb36ce48e6d)">
     <use xlink:href="#m26f5ef4234" x="394.658707" y="126.206443" style="fill: #1f78b4; stroke: #1f78b4"/>
     <use xlink:href="#m26f5ef4234" x="266.967896" y="59.573981" style="fill: #1f78b4; stroke: #1f78b4"/>
     <use xlink:href="#m26f5ef4234" x="116.7205" y="299.295104" style="fill: #1f78b4; stroke: #1f78b4"/>
     <use xlink:href="#m26f5ef4234" x="398.815451" y="229.606238" style="fill: #1f78b4; stroke: #1f78b4"/>
     <use xlink:href="#m26f5ef4234" x="332.640138" y="273.955066" style="fill: #1f78b4; stroke: #1f78b4"/>
     <use xlink:href="#m26f5ef4234" x="420.813223" y="177.019905" style="fill: #1f78b4; stroke: #1f78b4"/>
     <use xlink:href="#m26f5ef4234" x="325.364886" y="87.145457" style="fill: #1f78b4; stroke: #1f78b4"/>
     <use xlink:href="#m26f5ef4234" x="231.94829" y="301.453413" style="fill: #1f78b4; stroke: #1f78b4"/>
     <use xlink:href="#m26f5ef4234" x="46.292905" y="207.163781" style="fill: #1f78b4; stroke: #1f78b4"/>
     <use xlink:href="#m26f5ef4234" x="39.986777" y="260.798702" style="fill: #1f78b4; stroke: #1f78b4"/>
     <use xlink:href="#m26f5ef4234" x="302.06195" y="29.990083" style="fill: #1f78b4; stroke: #1f78b4"/>
     <use xlink:href="#m26f5ef4234" x="241.836743" y="82.877459" style="fill: #1f78b4; stroke: #1f78b4"/>
     <use xlink:href="#m26f5ef4234" x="189.107206" y="106.476814" style="fill: #1f78b4; stroke: #1f78b4"/>
     <use xlink:href="#m26f5ef4234" x="181.936158" y="315.609917" style="fill: #1f78b4; stroke: #1f78b4"/>
     <use xlink:href="#m26f5ef4234" x="150.180683" y="271.037175" style="fill: #1f78b4; stroke: #1f78b4"/>
     <use xlink:href="#m26f5ef4234" x="109.072424" y="251.773665" style="fill: #1f78b4; stroke: #1f78b4"/>
     <use xlink:href="#m26f5ef4234" x="128.821745" y="221.454171" style="fill: #1f78b4; stroke: #1f78b4"/>
     <use xlink:href="#m26f5ef4234" x="120.75601" y="167.133502" style="fill: #1f78b4; stroke: #1f78b4"/>
    </g>
   </g>
   <g id="text_1">
    <g clip-path="url(#pb36ce48e6d)">
     <!-- 0 -->
     <g transform="translate(391.477457 128.965818) scale(0.1 -0.1)">
      <defs>
       <path id="DejaVuSans-30" d="M 2034 4250 
Q 1547 4250 1301 3770 
Q 1056 3291 1056 2328 
Q 1056 1369 1301 889 
Q 1547 409 2034 409 
Q 2525 409 2770 889 
Q 3016 1369 3016 2328 
Q 3016 3291 2770 3770 
Q 2525 4250 2034 4250 
z
M 2034 4750 
Q 2819 4750 3233 4129 
Q 3647 3509 3647 2328 
Q 3647 1150 3233 529 
Q 2819 -91 2034 -91 
Q 1250 -91 836 529 
Q 422 1150 422 2328 
Q 422 3509 836 4129 
Q 1250 4750 2034 4750 
z
" transform="scale(0.015625)"/>
      </defs>
      <use xlink:href="#DejaVuSans-30"/>
     </g>
    </g>
   </g>
   <g id="text_2">
    <g clip-path="url(#pb36ce48e6d)">
     <!-- 1 -->
     <g transform="translate(263.786646 62.333356) scale(0.1 -0.1)">
      <defs>
       <path id="DejaVuSans-31" d="M 794 531 
L 1825 531 
L 1825 4091 
L 703 3866 
L 703 4441 
L 1819 4666 
L 2450 4666 
L 2450 531 
L 3481 531 
L 3481 0 
L 794 0 
L 794 531 
z
" transform="scale(0.015625)"/>
      </defs>
      <use xlink:href="#DejaVuSans-31"/>
     </g>
    </g>
   </g>
   <g id="text_3">
    <g clip-path="url(#pb36ce48e6d)">
     <!-- 2 -->
     <g transform="translate(113.53925 302.054479) scale(0.1 -0.1)">
      <defs>
       <path id="DejaVuSans-32" d="M 1228 531 
L 3431 531 
L 3431 0 
L 469 0 
L 469 531 
Q 828 903 1448 1529 
Q 2069 2156 2228 2338 
Q 2531 2678 2651 2914 
Q 2772 3150 2772 3378 
Q 2772 3750 2511 3984 
Q 2250 4219 1831 4219 
Q 1534 4219 1204 4116 
Q 875 4013 500 3803 
L 500 4441 
Q 881 4594 1212 4672 
Q 1544 4750 1819 4750 
Q 2544 4750 2975 4387 
Q 3406 4025 3406 3419 
Q 3406 3131 3298 2873 
Q 3191 2616 2906 2266 
Q 2828 2175 2409 1742 
Q 1991 1309 1228 531 
z
" transform="scale(0.015625)"/>
      </defs>
      <use xlink:href="#DejaVuSans-32"/>
     </g>
    </g>
   </g>
   <g id="text_4">
    <g clip-path="url(#pb36ce48e6d)">
     <!-- 3 -->
     <g transform="translate(395.634201 232.365613) scale(0.1 -0.1)">
      <defs>
       <path id="DejaVuSans-33" d="M 2597 2516 
Q 3050 2419 3304 2112 
Q 3559 1806 3559 1356 
Q 3559 666 3084 287 
Q 2609 -91 1734 -91 
Q 1441 -91 1130 -33 
Q 819 25 488 141 
L 488 750 
Q 750 597 1062 519 
Q 1375 441 1716 441 
Q 2309 441 2620 675 
Q 2931 909 2931 1356 
Q 2931 1769 2642 2001 
Q 2353 2234 1838 2234 
L 1294 2234 
L 1294 2753 
L 1863 2753 
Q 2328 2753 2575 2939 
Q 2822 3125 2822 3475 
Q 2822 3834 2567 4026 
Q 2313 4219 1838 4219 
Q 1578 4219 1281 4162 
Q 984 4106 628 3988 
L 628 4550 
Q 988 4650 1302 4700 
Q 1616 4750 1894 4750 
Q 2613 4750 3031 4423 
Q 3450 4097 3450 3541 
Q 3450 3153 3228 2886 
Q 3006 2619 2597 2516 
z
" transform="scale(0.015625)"/>
      </defs>
      <use xlink:href="#DejaVuSans-33"/>
     </g>
    </g>
   </g>
   <g id="text_5">
    <g clip-path="url(#pb36ce48e6d)">
     <!-- 4 -->
     <g transform="translate(329.458888 276.714441) scale(0.1 -0.1)">
      <defs>
       <path id="DejaVuSans-34" d="M 2419 4116 
L 825 1625 
L 2419 1625 
L 2419 4116 
z
M 2253 4666 
L 3047 4666 
L 3047 1625 
L 3713 1625 
L 3713 1100 
L 3047 1100 
L 3047 0 
L 2419 0 
L 2419 1100 
L 313 1100 
L 313 1709 
L 2253 4666 
z
" transform="scale(0.015625)"/>
      </defs>
      <use xlink:href="#DejaVuSans-34"/>
     </g>
    </g>
   </g>
   <g id="text_6">
    <g clip-path="url(#pb36ce48e6d)">
     <!-- 5 -->
     <g transform="translate(417.631973 179.77928) scale(0.1 -0.1)">
      <defs>
       <path id="DejaVuSans-35" d="M 691 4666 
L 3169 4666 
L 3169 4134 
L 1269 4134 
L 1269 2991 
Q 1406 3038 1543 3061 
Q 1681 3084 1819 3084 
Q 2600 3084 3056 2656 
Q 3513 2228 3513 1497 
Q 3513 744 3044 326 
Q 2575 -91 1722 -91 
Q 1428 -91 1123 -41 
Q 819 9 494 109 
L 494 744 
Q 775 591 1075 516 
Q 1375 441 1709 441 
Q 2250 441 2565 725 
Q 2881 1009 2881 1497 
Q 2881 1984 2565 2268 
Q 2250 2553 1709 2553 
Q 1456 2553 1204 2497 
Q 953 2441 691 2322 
L 691 4666 
z
" transform="scale(0.015625)"/>
      </defs>
      <use xlink:href="#DejaVuSans-35"/>
     </g>
    </g>
   </g>
   <g id="text_7">
    <g clip-path="url(#pb36ce48e6d)">
     <!-- 6 -->
     <g transform="translate(322.183636 89.904832) scale(0.1 -0.1)">
      <defs>
       <path id="DejaVuSans-36" d="M 2113 2584 
Q 1688 2584 1439 2293 
Q 1191 2003 1191 1497 
Q 1191 994 1439 701 
Q 1688 409 2113 409 
Q 2538 409 2786 701 
Q 3034 994 3034 1497 
Q 3034 2003 2786 2293 
Q 2538 2584 2113 2584 
z
M 3366 4563 
L 3366 3988 
Q 3128 4100 2886 4159 
Q 2644 4219 2406 4219 
Q 1781 4219 1451 3797 
Q 1122 3375 1075 2522 
Q 1259 2794 1537 2939 
Q 1816 3084 2150 3084 
Q 2853 3084 3261 2657 
Q 3669 2231 3669 1497 
Q 3669 778 3244 343 
Q 2819 -91 2113 -91 
Q 1303 -91 875 529 
Q 447 1150 447 2328 
Q 447 3434 972 4092 
Q 1497 4750 2381 4750 
Q 2619 4750 2861 4703 
Q 3103 4656 3366 4563 
z
" transform="scale(0.015625)"/>
      </defs>
      <use xlink:href="#DejaVuSans-36"/>
     </g>
    </g>
   </g>
   <g id="text_8">
    <g clip-path="url(#pb36ce48e6d)">
     <!-- 7 -->
     <g transform="translate(228.76704 304.212788) scale(0.1 -0.1)">
      <defs>
       <path id="DejaVuSans-37" d="M 525 4666 
L 3525 4666 
L 3525 4397 
L 1831 0 
L 1172 0 
L 2766 4134 
L 525 4134 
L 525 4666 
z
" transform="scale(0.015625)"/>
      </defs>
      <use xlink:href="#DejaVuSans-37"/>
     </g>
    </g>
   </g>
   <g id="text_9">
    <g clip-path="url(#pb36ce48e6d)">
     <!-- 8 -->
     <g transform="translate(43.111655 209.923156) scale(0.1 -0.1)">
      <defs>
       <path id="DejaVuSans-38" d="M 2034 2216 
Q 1584 2216 1326 1975 
Q 1069 1734 1069 1313 
Q 1069 891 1326 650 
Q 1584 409 2034 409 
Q 2484 409 2743 651 
Q 3003 894 3003 1313 
Q 3003 1734 2745 1975 
Q 2488 2216 2034 2216 
z
M 1403 2484 
Q 997 2584 770 2862 
Q 544 3141 544 3541 
Q 544 4100 942 4425 
Q 1341 4750 2034 4750 
Q 2731 4750 3128 4425 
Q 3525 4100 3525 3541 
Q 3525 3141 3298 2862 
Q 3072 2584 2669 2484 
Q 3125 2378 3379 2068 
Q 3634 1759 3634 1313 
Q 3634 634 3220 271 
Q 2806 -91 2034 -91 
Q 1263 -91 848 271 
Q 434 634 434 1313 
Q 434 1759 690 2068 
Q 947 2378 1403 2484 
z
M 1172 3481 
Q 1172 3119 1398 2916 
Q 1625 2713 2034 2713 
Q 2441 2713 2670 2916 
Q 2900 3119 2900 3481 
Q 2900 3844 2670 4047 
Q 2441 4250 2034 4250 
Q 1625 4250 1398 4047 
Q 1172 3844 1172 3481 
z
" transform="scale(0.015625)"/>
      </defs>
      <use xlink:href="#DejaVuSans-38"/>
     </g>
    </g>
   </g>
   <g id="text_10">
    <g clip-path="url(#pb36ce48e6d)">
     <!-- 9 -->
     <g transform="translate(36.805527 263.558077) scale(0.1 -0.1)">
      <defs>
       <path id="DejaVuSans-39" d="M 703 97 
L 703 672 
Q 941 559 1184 500 
Q 1428 441 1663 441 
Q 2288 441 2617 861 
Q 2947 1281 2994 2138 
Q 2813 1869 2534 1725 
Q 2256 1581 1919 1581 
Q 1219 1581 811 2004 
Q 403 2428 403 3163 
Q 403 3881 828 4315 
Q 1253 4750 1959 4750 
Q 2769 4750 3195 4129 
Q 3622 3509 3622 2328 
Q 3622 1225 3098 567 
Q 2575 -91 1691 -91 
Q 1453 -91 1209 -44 
Q 966 3 703 97 
z
M 1959 2075 
Q 2384 2075 2632 2365 
Q 2881 2656 2881 3163 
Q 2881 3666 2632 3958 
Q 2384 4250 1959 4250 
Q 1534 4250 1286 3958 
Q 1038 3666 1038 3163 
Q 1038 2656 1286 2365 
Q 1534 2075 1959 2075 
z
" transform="scale(0.015625)"/>
      </defs>
      <use xlink:href="#DejaVuSans-39"/>
     </g>
    </g>
   </g>
   <g id="text_11">
    <g clip-path="url(#pb36ce48e6d)">
     <!-- 10 -->
     <g transform="translate(295.69945 32.749458) scale(0.1 -0.1)">
      <use xlink:href="#DejaVuSans-31"/>
      <use xlink:href="#DejaVuSans-30" x="63.623047"/>
     </g>
    </g>
   </g>
   <g id="text_12">
    <g clip-path="url(#pb36ce48e6d)">
     <!-- 11 -->
     <g transform="translate(235.474243 85.636834) scale(0.1 -0.1)">
      <use xlink:href="#DejaVuSans-31"/>
      <use xlink:href="#DejaVuSans-31" x="63.623047"/>
     </g>
    </g>
   </g>
   <g id="text_13">
    <g clip-path="url(#pb36ce48e6d)">
     <!-- 12 -->
     <g transform="translate(182.744706 109.236189) scale(0.1 -0.1)">
      <use xlink:href="#DejaVuSans-31"/>
      <use xlink:href="#DejaVuSans-32" x="63.623047"/>
     </g>
    </g>
   </g>
   <g id="text_14">
    <g clip-path="url(#pb36ce48e6d)">
     <!-- 13 -->
     <g transform="translate(175.573658 318.369292) scale(0.1 -0.1)">
      <use xlink:href="#DejaVuSans-31"/>
      <use xlink:href="#DejaVuSans-33" x="63.623047"/>
     </g>
    </g>
   </g>
   <g id="text_15">
    <g clip-path="url(#pb36ce48e6d)">
     <!-- 14 -->
     <g transform="translate(143.818183 273.79655) scale(0.1 -0.1)">
      <use xlink:href="#DejaVuSans-31"/>
      <use xlink:href="#DejaVuSans-34" x="63.623047"/>
     </g>
    </g>
   </g>
   <g id="text_16">
    <g clip-path="url(#pb36ce48e6d)">
     <!-- 15 -->
     <g transform="translate(102.709924 254.53304) scale(0.1 -0.1)">
      <use xlink:href="#DejaVuSans-31"/>
      <use xlink:href="#DejaVuSans-35" x="63.623047"/>
     </g>
    </g>
   </g>
   <g id="text_17">
    <g clip-path="url(#pb36ce48e6d)">
     <!-- 16 -->
     <g transform="translate(122.459245 224.213546) scale(0.1 -0.1)">
      <use xlink:href="#DejaVuSans-31"/>
      <use xlink:href="#DejaVuSans-36" x="63.623047"/>
     </g>
    </g>
   </g>
   <g id="text_18">
    <g clip-path="url(#pb36ce48e6d)">
     <!-- 17 -->
     <g transform="translate(114.39351 169.892877) scale(0.1 -0.1)">
      <use xlink:href="#DejaVuSans-31"/>
      <use xlink:href="#DejaVuSans-37" x="63.623047"/>
     </g>
    </g>
   </g>
  </g>
 </g>
 <defs>
  <clipPath id="pb36ce48e6d">
   <rect x="0" y="0" width="460.8" height="345.6"/>
  </clipPath>
 </defs>
</svg>
