<?xml version="1.0" encoding="utf-8" standalone="no"?>
<!DOCTYPE svg PUBLIC "-//W3C//DTD SVG 1.1//EN"
  "http://www.w3.org/Graphics/SVG/1.1/DTD/svg11.dtd">
<svg xmlns:xlink="http://www.w3.org/1999/xlink" width="460.8pt" height="345.6pt" viewBox="0 0 460.8 345.6" xmlns="http://www.w3.org/2000/svg" version="1.1">
 <metadata>
  <rdf:RDF xmlns:dc="http://purl.org/dc/elements/1.1/" xmlns:cc="http://creativecommons.org/ns#" xmlns:rdf="http://www.w3.org/1999/02/22-rdf-syntax-ns#">
   <cc:Work>
    <dc:type rdf:resource="http://purl.org/dc/dcmitype/StillImage"/>
    <dc:date>2024-02-28T11:17:50.556015</dc:date>
    <dc:format>image/svg+xml</dc:format>
    <dc:creator>
     <cc:Agent>
      <dc:title>Matplotlib v3.8.0, https://matplotlib.org/</dc:title>
     </cc:Agent>
    </dc:creator>
   </cc:Work>
  </rdf:RDF>
 </metadata>
 <defs>
  <style type="text/css">*{stroke-linejoin: round; stroke-linecap: butt}</style>
 </defs>
 <g id="figure_1">
  <g id="patch_1">
   <path d="M 0 345.6 
L 460.8 345.6 
L 460.8 0 
L 0 0 
z
" style="fill: #ffffff"/>
  </g>
  <g id="axes_1">
   <g id="patch_2">
    <path d="M 414.55196 282.193363 
Q 417.554378 259.752702 420.408531 238.4202 
" clip-path="url(#p70addcca94)" style="fill: none; stroke: #000000; stroke-linecap: round"/>
    <path d="M 417.895747 242.119648 
L 420.408531 238.4202 
L 421.860419 242.650096 
z
" clip-path="url(#p70addcca94)" style="stroke: #000000; stroke-linecap: round"/>
   </g>
   <g id="patch_3">
    <path d="M 414.101215 286.037564 
Q 412.707927 299.8617 411.426754 312.573439 
" clip-path="url(#p70addcca94)" style="fill: none; stroke: #000000; stroke-linecap: round"/>
    <path d="M 413.817787 308.794158 
L 411.426754 312.573439 
L 409.837949 308.393044 
z
" clip-path="url(#p70addcca94)" style="stroke: #000000; stroke-linecap: round"/>
   </g>
   <g id="patch_4">
    <path d="M 412.465006 284.738831 
Q 384.720441 294.252619 358.033459 303.403754 
" clip-path="url(#p70addcca94)" style="fill: none; stroke: #000000; stroke-linecap: round"/>
    <path d="M 362.465917 303.998154 
L 358.033459 303.403754 
L 361.168454 300.214427 
z
" clip-path="url(#p70addcca94)" style="stroke: #000000; stroke-linecap: round"/>
   </g>
   <g id="patch_5">
    <path d="M 394.027257 226.968042 
Q 360.259616 226.385516 327.609843 225.822273 
" clip-path="url(#p70addcca94)" style="fill: none; stroke: #000000; stroke-linecap: round"/>
    <path d="M 331.574751 227.890969 
L 327.609843 225.822273 
L 331.643745 223.891565 
z
" clip-path="url(#p70addcca94)" style="stroke: #000000; stroke-linecap: round"/>
   </g>
   <g id="patch_6">
    <path d="M 395.219822 225.211649 
Q 392.675534 219.115802 390.561887 214.051725 
" clip-path="url(#p70addcca94)" style="fill: none; stroke: #000000; stroke-linecap: round"/>
    <path d="M 390.256908 218.51345 
L 390.561887 214.051725 
L 393.94828 216.972743 
z
" clip-path="url(#p70addcca94)" style="stroke: #000000; stroke-linecap: round"/>
   </g>
   <g id="patch_7">
    <path d="M 397.801838 227.621417 
Q 408.39039 231.198593 417.91972 234.417927 
" clip-path="url(#p70addcca94)" style="fill: none; stroke: #000000; stroke-linecap: round"/>
    <path d="M 414.770261 231.242883 
L 417.91972 234.417927 
L 413.490009 235.032468 
z
" clip-path="url(#p70addcca94)" style="stroke: #000000; stroke-linecap: round"/>
   </g>
   <g id="patch_8">
    <path d="M 390.133454 213.025243 
Q 392.677741 219.12109 394.791388 224.185167 
" clip-path="url(#p70addcca94)" style="fill: none; stroke: #000000; stroke-linecap: round"/>
    <path d="M 395.096368 219.723442 
L 394.791388 224.185167 
L 391.404996 221.264149 
z
" clip-path="url(#p70addcca94)" style="stroke: #000000; stroke-linecap: round"/>
   </g>
   <g id="patch_9">
    <path d="M 390.924752 212.418029 
Q 405.10098 223.316317 418.39083 233.533183 
" clip-path="url(#p70addcca94)" style="fill: none; stroke: #000000; stroke-linecap: round"/>
    <path d="M 416.438596 229.509654 
L 418.39083 233.533183 
L 414.000666 232.680853 
z
" clip-path="url(#p70addcca94)" style="stroke: #000000; stroke-linecap: round"/>
   </g>
   <g id="patch_10">
    <path d="M 387.89637 209.999038 
Q 372.457453 197.188639 357.878948 185.092165 
" clip-path="url(#p70addcca94)" style="fill: none; stroke: #000000; stroke-linecap: round"/>
    <path d="M 359.680147 189.185536 
L 357.878948 185.092165 
L 362.234364 186.107229 
z
" clip-path="url(#p70addcca94)" style="stroke: #000000; stroke-linecap: round"/>
   </g>
   <g id="patch_11">
    <path d="M 387.498892 211.658534 
Q 356.969697 218.502605 327.531458 225.102105 
" clip-path="url(#p70addcca94)" style="fill: none; stroke: #000000; stroke-linecap: round"/>
    <path d="M 331.872084 226.178659 
L 327.531458 225.102105 
L 330.997077 222.275537 
z
" clip-path="url(#p70addcca94)" style="stroke: #000000; stroke-linecap: round"/>
   </g>
   <g id="patch_12">
    <path d="M 420.55663 237.313277 
Q 417.554213 259.753938 414.70006 281.08644 
" clip-path="url(#p70addcca94)" style="fill: none; stroke: #000000; stroke-linecap: round"/>
    <path d="M 417.212844 277.386992 
L 414.70006 281.08644 
L 413.248172 276.856544 
z
" clip-path="url(#p70addcca94)" style="stroke: #000000; stroke-linecap: round"/>
   </g>
   <g id="patch_13">
    <path d="M 418.978257 234.775537 
Q 408.389705 231.198361 398.860375 227.979027 
" clip-path="url(#p70addcca94)" style="fill: none; stroke: #000000; stroke-linecap: round"/>
    <path d="M 402.009834 231.154071 
L 398.860375 227.979027 
L 403.290086 227.364486 
z
" clip-path="url(#p70addcca94)" style="stroke: #000000; stroke-linecap: round"/>
   </g>
   <g id="patch_14">
    <path d="M 419.274874 234.212812 
Q 405.098647 223.314524 391.808797 213.097657 
" clip-path="url(#p70addcca94)" style="fill: none; stroke: #000000; stroke-linecap: round"/>
    <path d="M 393.761031 217.121186 
L 391.808797 213.097657 
L 396.19896 213.949987 
z
" clip-path="url(#p70addcca94)" style="stroke: #000000; stroke-linecap: round"/>
   </g>
   <g id="patch_15">
    <path d="M 419.634453 233.857833 
Q 402.963394 212.111684 386.972556 191.252832 
" clip-path="url(#p70addcca94)" style="fill: none; stroke: #000000; stroke-linecap: round"/>
    <path d="M 387.818944 195.644145 
L 386.972556 191.252832 
L 390.993439 193.21051 
z
" clip-path="url(#p70addcca94)" style="stroke: #000000; stroke-linecap: round"/>
   </g>
   <g id="patch_16">
    <path d="M 291.71655 101.62806 
Q 284.264892 82.785382 277.224394 64.982391 
" clip-path="url(#p70addcca94)" style="fill: none; stroke: #000000; stroke-linecap: round"/>
    <path d="M 276.835564 69.437591 
L 277.224394 64.982391 
L 280.555256 67.966575 
z
" clip-path="url(#p70addcca94)" style="stroke: #000000; stroke-linecap: round"/>
   </g>
   <g id="patch_17">
    <path d="M 293.414441 105.094906 
Q 306.08727 126.509792 318.190704 146.962498 
" clip-path="url(#p70addcca94)" style="fill: none; stroke: #000000; stroke-linecap: round"/>
    <path d="M 317.874772 142.501536 
L 318.190704 146.962498 
L 314.432375 144.538666 
z
" clip-path="url(#p70addcca94)" style="stroke: #000000; stroke-linecap: round"/>
   </g>
   <g id="patch_18">
    <path d="M 276.81383 63.944215 
Q 284.265489 82.786892 291.305986 100.589884 
" clip-path="url(#p70addcca94)" style="fill: none; stroke: #000000; stroke-linecap: round"/>
    <path d="M 291.694816 96.134684 
L 291.305986 100.589884 
L 287.975124 97.6057 
z
" clip-path="url(#p70addcca94)" style="stroke: #000000; stroke-linecap: round"/>
   </g>
   <g id="patch_19">
    <path d="M 275.481732 60.309523 
Q 270.667141 46.065826 266.210564 32.881292 
" clip-path="url(#p70addcca94)" style="fill: none; stroke: #000000; stroke-linecap: round"/>
    <path d="M 265.596744 37.311103 
L 266.210564 32.881292 
L 269.386121 36.030235 
z
" clip-path="url(#p70addcca94)" style="stroke: #000000; stroke-linecap: round"/>
   </g>
   <g id="patch_20">
    <path d="M 386.293333 190.366836 
Q 402.964392 212.112986 418.955229 232.971837 
" clip-path="url(#p70addcca94)" style="fill: none; stroke: #000000; stroke-linecap: round"/>
    <path d="M 418.108842 228.580525 
L 418.955229 232.971837 
L 414.934346 231.01416 
z
" clip-path="url(#p70addcca94)" style="stroke: #000000; stroke-linecap: round"/>
   </g>
   <g id="patch_21">
    <path d="M 383.450805 187.8305 
Q 352.428177 169.20828 322.364138 151.161479 
" clip-path="url(#p70addcca94)" style="fill: none; stroke: #000000; stroke-linecap: round"/>
    <path d="M 324.764345 154.93494 
L 322.364138 151.161479 
L 326.823031 151.50539 
z
" clip-path="url(#p70addcca94)" style="stroke: #000000; stroke-linecap: round"/>
   </g>
   <g id="patch_22">
    <path d="M 318.759912 147.924362 
Q 306.087083 126.509476 293.983649 106.05677 
" clip-path="url(#p70addcca94)" style="fill: none; stroke: #000000; stroke-linecap: round"/>
    <path d="M 294.299581 110.517733 
L 293.983649 106.05677 
L 297.741978 108.480602 
z
" clip-path="url(#p70addcca94)" style="stroke: #000000; stroke-linecap: round"/>
   </g>
   <g id="patch_23">
    <path d="M 321.409012 150.588138 
Q 352.43164 169.210358 382.495679 187.257158 
" clip-path="url(#p70addcca94)" style="fill: none; stroke: #000000; stroke-linecap: round"/>
    <path d="M 380.095472 183.483698 
L 382.495679 187.257158 
L 378.036787 186.913248 
z
" clip-path="url(#p70addcca94)" style="stroke: #000000; stroke-linecap: round"/>
   </g>
   <g id="patch_24">
    <path d="M 265.852841 31.822986 
Q 270.667431 46.066683 275.124008 59.251217 
" clip-path="url(#p70addcca94)" style="fill: none; stroke: #000000; stroke-linecap: round"/>
    <path d="M 275.737828 54.821406 
L 275.124008 59.251217 
L 271.948452 56.102274 
z
" clip-path="url(#p70addcca94)" style="stroke: #000000; stroke-linecap: round"/>
   </g>
   <g id="patch_25">
    <path d="M 326.493773 225.80302 
Q 360.261414 226.385547 392.911187 226.948789 
" clip-path="url(#p70addcca94)" style="fill: none; stroke: #000000; stroke-linecap: round"/>
    <path d="M 388.946279 224.880093 
L 392.911187 226.948789 
L 388.877285 228.879498 
z
" clip-path="url(#p70addcca94)" style="stroke: #000000; stroke-linecap: round"/>
   </g>
   <g id="patch_26">
    <path d="M 326.441669 225.346415 
Q 356.970864 218.502343 386.409103 211.902844 
" clip-path="url(#p70addcca94)" style="fill: none; stroke: #000000; stroke-linecap: round"/>
    <path d="M 382.068478 210.826289 
L 386.409103 211.902844 
L 382.943484 214.729411 
z
" clip-path="url(#p70addcca94)" style="stroke: #000000; stroke-linecap: round"/>
   </g>
   <g id="patch_27">
    <path d="M 322.685377 226.279195 
Q 283.784837 236.887773 245.96294 247.202193 
" clip-path="url(#p70addcca94)" style="fill: none; stroke: #000000; stroke-linecap: round"/>
    <path d="M 250.348216 248.07932 
L 245.96294 247.202193 
L 249.295808 244.220248 
z
" clip-path="url(#p70addcca94)" style="stroke: #000000; stroke-linecap: round"/>
   </g>
   <g id="patch_28">
    <path d="M 322.884626 224.787393 
Q 304.109932 213.742453 286.298887 203.264416 
" clip-path="url(#p70addcca94)" style="fill: none; stroke: #000000; stroke-linecap: round"/>
    <path d="M 288.732435 207.016462 
L 286.298887 203.264416 
L 290.760652 203.568805 
z
" clip-path="url(#p70addcca94)" style="stroke: #000000; stroke-linecap: round"/>
   </g>
   <g id="patch_29">
    <path d="M 51.311622 204.862305 
Q 80.61293 213.778751 108.84463 222.369713 
" clip-path="url(#p70addcca94)" style="fill: none; stroke: #000000; stroke-linecap: round"/>
    <path d="M 105.600129 219.291855 
L 108.84463 222.369713 
L 104.435643 223.1186 
z
" clip-path="url(#p70addcca94)" style="stroke: #000000; stroke-linecap: round"/>
   </g>
   <g id="patch_30">
    <path d="M 41.910177 230.410432 
Q 75.878754 226.93364 108.735108 223.570687 
" clip-path="url(#p70addcca94)" style="fill: none; stroke: #000000; stroke-linecap: round"/>
    <path d="M 104.552255 221.988367 
L 108.735108 223.570687 
L 104.95954 225.967578 
z
" clip-path="url(#p70addcca94)" style="stroke: #000000; stroke-linecap: round"/>
   </g>
   <g id="patch_31">
    <path d="M 357.016933 184.376911 
Q 372.455851 197.18731 387.034355 209.283784 
" clip-path="url(#p70addcca94)" style="fill: none; stroke: #000000; stroke-linecap: round"/>
    <path d="M 385.233157 205.190413 
L 387.034355 209.283784 
L 382.67894 208.26872 
z
" clip-path="url(#p70addcca94)" style="stroke: #000000; stroke-linecap: round"/>
   </g>
   <g id="patch_32">
    <path d="M 353.654083 183.624674 
Q 319.598103 192.427974 286.624577 200.951465 
" clip-path="url(#p70addcca94)" style="fill: none; stroke: #000000; stroke-linecap: round"/>
    <path d="M 290.99782 201.886743 
L 286.624577 200.951465 
L 289.996745 198.014037 
z
" clip-path="url(#p70addcca94)" style="stroke: #000000; stroke-linecap: round"/>
   </g>
   <g id="patch_33">
    <path d="M 285.336387 202.698188 
Q 304.111081 213.743128 321.922126 224.221165 
" clip-path="url(#p70addcca94)" style="fill: none; stroke: #000000; stroke-linecap: round"/>
    <path d="M 319.488578 220.469119 
L 321.922126 224.221165 
L 317.460361 223.916775 
z
" clip-path="url(#p70addcca94)" style="stroke: #000000; stroke-linecap: round"/>
   </g>
   <g id="patch_34">
    <path d="M 285.539672 201.231907 
Q 319.595652 192.428607 352.569178 183.905116 
" clip-path="url(#p70addcca94)" style="fill: none; stroke: #000000; stroke-linecap: round"/>
    <path d="M 348.195935 182.969838 
L 352.569178 183.905116 
L 349.19701 186.842544 
z
" clip-path="url(#p70addcca94)" style="stroke: #000000; stroke-linecap: round"/>
   </g>
   <g id="patch_35">
    <path d="M 281.767229 202.080941 
Q 242.662187 209.593058 204.655104 216.894256 
" clip-path="url(#p70addcca94)" style="fill: none; stroke: #000000; stroke-linecap: round"/>
    <path d="M 208.960584 218.103738 
L 204.655104 216.894256 
L 208.205978 214.175561 
z
" clip-path="url(#p70addcca94)" style="stroke: #000000; stroke-linecap: round"/>
   </g>
   <g id="patch_36">
    <path d="M 411.31487 313.683542 
Q 412.708158 299.859406 413.989331 287.147667 
" clip-path="url(#p70addcca94)" style="fill: none; stroke: #000000; stroke-linecap: round"/>
    <path d="M 411.598298 290.926948 
L 413.989331 287.147667 
L 415.578136 291.328062 
z
" clip-path="url(#p70addcca94)" style="stroke: #000000; stroke-linecap: round"/>
   </g>
   <g id="patch_37">
    <path d="M 409.224607 315.229978 
Q 383.13434 310.002048 358.140315 304.993782 
" clip-path="url(#p70addcca94)" style="fill: none; stroke: #000000; stroke-linecap: round"/>
    <path d="M 361.669406 307.740692 
L 358.140315 304.993782 
L 362.455298 303.818655 
z
" clip-path="url(#p70addcca94)" style="stroke: #000000; stroke-linecap: round"/>
   </g>
   <g id="patch_38">
    <path d="M 356.97654 303.766178 
Q 384.721105 294.252391 411.408087 285.101255 
" clip-path="url(#p70addcca94)" style="fill: none; stroke: #000000; stroke-linecap: round"/>
    <path d="M 406.975629 284.506856 
L 411.408087 285.101255 
L 408.273093 288.290583 
z
" clip-path="url(#p70addcca94)" style="stroke: #000000; stroke-linecap: round"/>
   </g>
   <g id="patch_39">
    <path d="M 357.042289 304.773761 
Q 383.132556 310.00169 408.126581 315.009957 
" clip-path="url(#p70addcca94)" style="fill: none; stroke: #000000; stroke-linecap: round"/>
    <path d="M 404.59749 312.263046 
L 408.126581 315.009957 
L 403.811598 316.185083 
z
" clip-path="url(#p70addcca94)" style="stroke: #000000; stroke-linecap: round"/>
   </g>
   <g id="patch_40">
    <path d="M 353.242305 304.030805 
Q 312.120736 296.190052 272.097415 288.558706 
" clip-path="url(#p70addcca94)" style="fill: none; stroke: #000000; stroke-linecap: round"/>
    <path d="M 275.652031 291.272505 
L 272.097415 288.558706 
L 276.401224 287.343293 
z
" clip-path="url(#p70addcca94)" style="stroke: #000000; stroke-linecap: round"/>
   </g>
   <g id="patch_41">
    <path d="M 271.000203 288.349498 
Q 312.121772 296.19025 352.145093 303.821596 
" clip-path="url(#p70addcca94)" style="fill: none; stroke: #000000; stroke-linecap: round"/>
    <path d="M 348.590477 301.107798 
L 352.145093 303.821596 
L 347.841284 305.03701 
z
" clip-path="url(#p70addcca94)" style="stroke: #000000; stroke-linecap: round"/>
   </g>
   <g id="patch_42">
    <path d="M 267.161062 287.932577 
Q 233.146444 286.985131 200.249426 286.068815 
" clip-path="url(#p70addcca94)" style="fill: none; stroke: #000000; stroke-linecap: round"/>
    <path d="M 204.192189 288.179413 
L 200.249426 286.068815 
L 204.303562 284.180964 
z
" clip-path="url(#p70addcca94)" style="stroke: #000000; stroke-linecap: round"/>
   </g>
   <g id="patch_43">
    <path d="M 268.037714 286.363749 
Q 256.055354 267.996205 244.683866 250.565057 
" clip-path="url(#p70addcca94)" style="fill: none; stroke: #000000; stroke-linecap: round"/>
    <path d="M 245.194314 255.007966 
L 244.683866 250.565057 
L 248.544462 252.822444 
z
" clip-path="url(#p70addcca94)" style="stroke: #000000; stroke-linecap: round"/>
   </g>
   <g id="patch_44">
    <path d="M 199.132673 286.037709 
Q 233.147291 286.985155 266.044309 287.901471 
" clip-path="url(#p70addcca94)" style="fill: none; stroke: #000000; stroke-linecap: round"/>
    <path d="M 262.101546 285.790873 
L 266.044309 287.901471 
L 261.990173 289.789322 
z
" clip-path="url(#p70addcca94)" style="stroke: #000000; stroke-linecap: round"/>
   </g>
   <g id="patch_45">
    <path d="M 195.861148 284.58439 
Q 181.845891 269.906721 168.602746 256.037658 
" clip-path="url(#p70addcca94)" style="fill: none; stroke: #000000; stroke-linecap: round"/>
    <path d="M 169.918663 260.311809 
L 168.602746 256.037658 
L 172.811617 257.549416 
z
" clip-path="url(#p70addcca94)" style="stroke: #000000; stroke-linecap: round"/>
   </g>
   <g id="patch_46">
    <path d="M 167.827838 255.226125 
Q 181.843095 269.903793 195.086239 283.772856 
" clip-path="url(#p70addcca94)" style="fill: none; stroke: #000000; stroke-linecap: round"/>
    <path d="M 193.770323 279.498705 
L 195.086239 283.772856 
L 190.877369 282.261099 
z
" clip-path="url(#p70addcca94)" style="stroke: #000000; stroke-linecap: round"/>
   </g>
   <g id="patch_47">
    <path d="M 168.420535 253.679991 
Q 204.750075 250.916704 239.964802 248.238212 
" clip-path="url(#p70addcca94)" style="fill: none; stroke: #000000; stroke-linecap: round"/>
    <path d="M 235.824637 246.547343 
L 239.964802 248.238212 
L 236.128008 250.535822 
z
" clip-path="url(#p70addcca94)" style="stroke: #000000; stroke-linecap: round"/>
   </g>
   <g id="patch_48">
    <path d="M 164.798241 252.880829 
Q 139.130664 238.543193 114.439164 224.750784 
" clip-path="url(#p70addcca94)" style="fill: none; stroke: #000000; stroke-linecap: round"/>
    <path d="M 116.955955 228.447507 
L 114.439164 224.750784 
L 118.906617 224.955385 
z
" clip-path="url(#p70addcca94)" style="stroke: #000000; stroke-linecap: round"/>
   </g>
   <g id="patch_49">
    <path d="M 244.883362 247.496605 
Q 283.783902 236.888027 321.605799 226.573607 
" clip-path="url(#p70addcca94)" style="fill: none; stroke: #000000; stroke-linecap: round"/>
    <path d="M 317.220523 225.69648 
L 321.605799 226.573607 
L 318.272931 229.555552 
z
" clip-path="url(#p70addcca94)" style="stroke: #000000; stroke-linecap: round"/>
   </g>
   <g id="patch_50">
    <path d="M 244.073197 249.628974 
Q 256.055557 267.996517 267.427045 285.427665 
" clip-path="url(#p70addcca94)" style="fill: none; stroke: #000000; stroke-linecap: round"/>
    <path d="M 266.916596 280.984756 
L 267.427045 285.427665 
L 263.566448 283.170279 
z
" clip-path="url(#p70addcca94)" style="stroke: #000000; stroke-linecap: round"/>
   </g>
   <g id="patch_51">
    <path d="M 241.085626 248.15296 
Q 204.756085 250.916247 169.541359 253.594739 
" clip-path="url(#p70addcca94)" style="fill: none; stroke: #000000; stroke-linecap: round"/>
    <path d="M 173.681523 255.285608 
L 169.541359 253.594739 
L 173.378153 251.297129 
z
" clip-path="url(#p70addcca94)" style="stroke: #000000; stroke-linecap: round"/>
   </g>
   <g id="patch_52">
    <path d="M 241.457036 246.856307 
Q 222.334649 232.738273 204.111716 219.284305 
" clip-path="url(#p70addcca94)" style="fill: none; stroke: #000000; stroke-linecap: round"/>
    <path d="M 206.141783 223.26913 
L 204.111716 219.284305 
L 208.517616 220.051147 
z
" clip-path="url(#p70addcca94)" style="stroke: #000000; stroke-linecap: round"/>
   </g>
   <g id="patch_53">
    <path d="M 203.554695 217.105646 
Q 242.659736 209.593529 280.666819 202.292331 
" clip-path="url(#p70addcca94)" style="fill: none; stroke: #000000; stroke-linecap: round"/>
    <path d="M 276.36134 201.08285 
L 280.666819 202.292331 
L 277.115946 205.011026 
z
" clip-path="url(#p70addcca94)" style="stroke: #000000; stroke-linecap: round"/>
   </g>
   <g id="patch_54">
    <path d="M 203.212614 218.620499 
Q 222.335001 232.738533 240.557934 246.192501 
" clip-path="url(#p70addcca94)" style="fill: none; stroke: #000000; stroke-linecap: round"/>
    <path d="M 238.527867 242.207676 
L 240.557934 246.192501 
L 236.152034 245.42566 
z
" clip-path="url(#p70addcca94)" style="stroke: #000000; stroke-linecap: round"/>
   </g>
   <g id="patch_55">
    <path d="M 199.721209 217.595125 
Q 156.710701 220.365422 114.815914 223.063856 
" clip-path="url(#p70addcca94)" style="fill: none; stroke: #000000; stroke-linecap: round"/>
    <path d="M 118.936196 224.802614 
L 114.815914 223.063856 
L 118.679089 220.810886 
z
" clip-path="url(#p70addcca94)" style="stroke: #000000; stroke-linecap: round"/>
   </g>
   <g id="patch_56">
    <path d="M 109.918226 222.696411 
Q 80.616919 213.779965 52.385218 205.189002 
" clip-path="url(#p70addcca94)" style="fill: none; stroke: #000000; stroke-linecap: round"/>
    <path d="M 55.62972 208.26686 
L 52.385218 205.189002 
L 56.794205 204.440116 
z
" clip-path="url(#p70addcca94)" style="stroke: #000000; stroke-linecap: round"/>
   </g>
   <g id="patch_57">
    <path d="M 109.846962 223.456886 
Q 75.878385 226.933678 43.022031 230.296631 
" clip-path="url(#p70addcca94)" style="fill: none; stroke: #000000; stroke-linecap: round"/>
    <path d="M 47.204885 231.878951 
L 43.022031 230.296631 
L 46.7976 227.89974 
z
" clip-path="url(#p70addcca94)" style="stroke: #000000; stroke-linecap: round"/>
   </g>
   <g id="patch_58">
    <path d="M 113.463701 224.2059 
Q 139.131279 238.543537 163.822778 252.335946 
" clip-path="url(#p70addcca94)" style="fill: none; stroke: #000000; stroke-linecap: round"/>
    <path d="M 161.305987 248.639223 
L 163.822778 252.335946 
L 159.355325 252.131345 
z
" clip-path="url(#p70addcca94)" style="stroke: #000000; stroke-linecap: round"/>
   </g>
   <g id="patch_59">
    <path d="M 113.704222 223.13546 
Q 156.714731 220.365163 198.609517 217.666729 
" clip-path="url(#p70addcca94)" style="fill: none; stroke: #000000; stroke-linecap: round"/>
    <path d="M 194.489235 215.927971 
L 198.609517 217.666729 
L 194.746342 219.9197 
z
" clip-path="url(#p70addcca94)" style="stroke: #000000; stroke-linecap: round"/>
   </g>
   <g id="PathCollection_1">
    <defs>
     <path id="m71433c88c2" d="M 0 1.936492 
C 0.513564 1.936492 1.006162 1.732451 1.369306 1.369306 
C 1.732451 1.006162 1.936492 0.513564 1.936492 0 
C 1.936492 -0.513564 1.732451 -1.006162 1.369306 -1.369306 
C 1.006162 -1.732451 0.513564 -1.936492 0 -1.936492 
C -0.513564 -1.936492 -1.006162 -1.732451 -1.369306 -1.369306 
C -1.732451 -1.006162 -1.936492 -0.513564 -1.936492 0 
C -1.936492 0.513564 -1.732451 1.006162 -1.369306 1.369306 
C -1.006162 1.732451 -0.513564 1.936492 0 1.936492 
z
" style="stroke: #1f78b4"/>
    </defs>
    <g clip-path="url(#p70addcca94)">
     <use xlink:href="#m71433c88c2" x="414.295368" y="284.111189" style="fill: #1f78b4; stroke: #1f78b4"/>
     <use xlink:href="#m71433c88c2" x="395.966872" y="227.001503" style="fill: #1f78b4; stroke: #1f78b4"/>
     <use xlink:href="#m71433c88c2" x="389.386404" y="211.235389" style="fill: #1f78b4; stroke: #1f78b4"/>
     <use xlink:href="#m71433c88c2" x="420.813223" y="235.395451" style="fill: #1f78b4; stroke: #1f78b4"/>
     <use xlink:href="#m71433c88c2" x="292.429098" y="103.429849" style="fill: #1f78b4; stroke: #1f78b4"/>
     <use xlink:href="#m71433c88c2" x="276.101282" y="62.142426" style="fill: #1f78b4; stroke: #1f78b4"/>
     <use xlink:href="#m71433c88c2" x="385.114563" y="188.829218" style="fill: #1f78b4; stroke: #1f78b4"/>
     <use xlink:href="#m71433c88c2" x="319.745254" y="149.58942" style="fill: #1f78b4; stroke: #1f78b4"/>
     <use xlink:href="#m71433c88c2" x="265.233291" y="29.990083" style="fill: #1f78b4; stroke: #1f78b4"/>
     <use xlink:href="#m71433c88c2" x="324.554158" y="225.769559" style="fill: #1f78b4; stroke: #1f78b4"/>
     <use xlink:href="#m71433c88c2" x="49.459486" y="204.298696" style="fill: #1f78b4; stroke: #1f78b4"/>
     <use xlink:href="#m71433c88c2" x="39.986777" y="230.607299" style="fill: #1f78b4; stroke: #1f78b4"/>
     <use xlink:href="#m71433c88c2" x="355.5269" y="183.14056" style="fill: #1f78b4; stroke: #1f78b4"/>
     <use xlink:href="#m71433c88c2" x="283.666855" y="201.716021" style="fill: #1f78b4; stroke: #1f78b4"/>
     <use xlink:href="#m71433c88c2" x="411.120717" y="315.609917" style="fill: #1f78b4; stroke: #1f78b4"/>
     <use xlink:href="#m71433c88c2" x="355.146179" y="304.393821" style="fill: #1f78b4; stroke: #1f78b4"/>
     <use xlink:href="#m71433c88c2" x="269.09633" y="287.986482" style="fill: #1f78b4; stroke: #1f78b4"/>
     <use xlink:href="#m71433c88c2" x="197.197406" y="285.983804" style="fill: #1f78b4; stroke: #1f78b4"/>
     <use xlink:href="#m71433c88c2" x="166.49158" y="253.82671" style="fill: #1f78b4; stroke: #1f78b4"/>
     <use xlink:href="#m71433c88c2" x="243.014581" y="248.006241" style="fill: #1f78b4; stroke: #1f78b4"/>
     <use xlink:href="#m71433c88c2" x="201.655069" y="217.470566" style="fill: #1f78b4; stroke: #1f78b4"/>
     <use xlink:href="#m71433c88c2" x="111.770362" y="223.260019" style="fill: #1f78b4; stroke: #1f78b4"/>
    </g>
   </g>
   <g id="text_1">
    <g clip-path="url(#p70addcca94)">
     <!-- 0 -->
     <g transform="translate(411.114118 286.870564) scale(0.1 -0.1)">
      <defs>
       <path id="DejaVuSans-30" d="M 2034 4250 
Q 1547 4250 1301 3770 
Q 1056 3291 1056 2328 
Q 1056 1369 1301 889 
Q 1547 409 2034 409 
Q 2525 409 2770 889 
Q 3016 1369 3016 2328 
Q 3016 3291 2770 3770 
Q 2525 4250 2034 4250 
z
M 2034 4750 
Q 2819 4750 3233 4129 
Q 3647 3509 3647 2328 
Q 3647 1150 3233 529 
Q 2819 -91 2034 -91 
Q 1250 -91 836 529 
Q 422 1150 422 2328 
Q 422 3509 836 4129 
Q 1250 4750 2034 4750 
z
" transform="scale(0.015625)"/>
      </defs>
      <use xlink:href="#DejaVuSans-30"/>
     </g>
    </g>
   </g>
   <g id="text_2">
    <g clip-path="url(#p70addcca94)">
     <!-- 1 -->
     <g transform="translate(392.785622 229.760878) scale(0.1 -0.1)">
      <defs>
       <path id="DejaVuSans-31" d="M 794 531 
L 1825 531 
L 1825 4091 
L 703 3866 
L 703 4441 
L 1819 4666 
L 2450 4666 
L 2450 531 
L 3481 531 
L 3481 0 
L 794 0 
L 794 531 
z
" transform="scale(0.015625)"/>
      </defs>
      <use xlink:href="#DejaVuSans-31"/>
     </g>
    </g>
   </g>
   <g id="text_3">
    <g clip-path="url(#p70addcca94)">
     <!-- 2 -->
     <g transform="translate(386.205154 213.994764) scale(0.1 -0.1)">
      <defs>
       <path id="DejaVuSans-32" d="M 1228 531 
L 3431 531 
L 3431 0 
L 469 0 
L 469 531 
Q 828 903 1448 1529 
Q 2069 2156 2228 2338 
Q 2531 2678 2651 2914 
Q 2772 3150 2772 3378 
Q 2772 3750 2511 3984 
Q 2250 4219 1831 4219 
Q 1534 4219 1204 4116 
Q 875 4013 500 3803 
L 500 4441 
Q 881 4594 1212 4672 
Q 1544 4750 1819 4750 
Q 2544 4750 2975 4387 
Q 3406 4025 3406 3419 
Q 3406 3131 3298 2873 
Q 3191 2616 2906 2266 
Q 2828 2175 2409 1742 
Q 1991 1309 1228 531 
z
" transform="scale(0.015625)"/>
      </defs>
      <use xlink:href="#DejaVuSans-32"/>
     </g>
    </g>
   </g>
   <g id="text_4">
    <g clip-path="url(#p70addcca94)">
     <!-- 3 -->
     <g transform="translate(417.631973 238.154826) scale(0.1 -0.1)">
      <defs>
       <path id="DejaVuSans-33" d="M 2597 2516 
Q 3050 2419 3304 2112 
Q 3559 1806 3559 1356 
Q 3559 666 3084 287 
Q 2609 -91 1734 -91 
Q 1441 -91 1130 -33 
Q 819 25 488 141 
L 488 750 
Q 750 597 1062 519 
Q 1375 441 1716 441 
Q 2309 441 2620 675 
Q 2931 909 2931 1356 
Q 2931 1769 2642 2001 
Q 2353 2234 1838 2234 
L 1294 2234 
L 1294 2753 
L 1863 2753 
Q 2328 2753 2575 2939 
Q 2822 3125 2822 3475 
Q 2822 3834 2567 4026 
Q 2313 4219 1838 4219 
Q 1578 4219 1281 4162 
Q 984 4106 628 3988 
L 628 4550 
Q 988 4650 1302 4700 
Q 1616 4750 1894 4750 
Q 2613 4750 3031 4423 
Q 3450 4097 3450 3541 
Q 3450 3153 3228 2886 
Q 3006 2619 2597 2516 
z
" transform="scale(0.015625)"/>
      </defs>
      <use xlink:href="#DejaVuSans-33"/>
     </g>
    </g>
   </g>
   <g id="text_5">
    <g clip-path="url(#p70addcca94)">
     <!-- 4 -->
     <g transform="translate(289.247848 106.189224) scale(0.1 -0.1)">
      <defs>
       <path id="DejaVuSans-34" d="M 2419 4116 
L 825 1625 
L 2419 1625 
L 2419 4116 
z
M 2253 4666 
L 3047 4666 
L 3047 1625 
L 3713 1625 
L 3713 1100 
L 3047 1100 
L 3047 0 
L 2419 0 
L 2419 1100 
L 313 1100 
L 313 1709 
L 2253 4666 
z
" transform="scale(0.015625)"/>
      </defs>
      <use xlink:href="#DejaVuSans-34"/>
     </g>
    </g>
   </g>
   <g id="text_6">
    <g clip-path="url(#p70addcca94)">
     <!-- 5 -->
     <g transform="translate(272.920032 64.901801) scale(0.1 -0.1)">
      <defs>
       <path id="DejaVuSans-35" d="M 691 4666 
L 3169 4666 
L 3169 4134 
L 1269 4134 
L 1269 2991 
Q 1406 3038 1543 3061 
Q 1681 3084 1819 3084 
Q 2600 3084 3056 2656 
Q 3513 2228 3513 1497 
Q 3513 744 3044 326 
Q 2575 -91 1722 -91 
Q 1428 -91 1123 -41 
Q 819 9 494 109 
L 494 744 
Q 775 591 1075 516 
Q 1375 441 1709 441 
Q 2250 441 2565 725 
Q 2881 1009 2881 1497 
Q 2881 1984 2565 2268 
Q 2250 2553 1709 2553 
Q 1456 2553 1204 2497 
Q 953 2441 691 2322 
L 691 4666 
z
" transform="scale(0.015625)"/>
      </defs>
      <use xlink:href="#DejaVuSans-35"/>
     </g>
    </g>
   </g>
   <g id="text_7">
    <g clip-path="url(#p70addcca94)">
     <!-- 6 -->
     <g transform="translate(381.933313 191.588593) scale(0.1 -0.1)">
      <defs>
       <path id="DejaVuSans-36" d="M 2113 2584 
Q 1688 2584 1439 2293 
Q 1191 2003 1191 1497 
Q 1191 994 1439 701 
Q 1688 409 2113 409 
Q 2538 409 2786 701 
Q 3034 994 3034 1497 
Q 3034 2003 2786 2293 
Q 2538 2584 2113 2584 
z
M 3366 4563 
L 3366 3988 
Q 3128 4100 2886 4159 
Q 2644 4219 2406 4219 
Q 1781 4219 1451 3797 
Q 1122 3375 1075 2522 
Q 1259 2794 1537 2939 
Q 1816 3084 2150 3084 
Q 2853 3084 3261 2657 
Q 3669 2231 3669 1497 
Q 3669 778 3244 343 
Q 2819 -91 2113 -91 
Q 1303 -91 875 529 
Q 447 1150 447 2328 
Q 447 3434 972 4092 
Q 1497 4750 2381 4750 
Q 2619 4750 2861 4703 
Q 3103 4656 3366 4563 
z
" transform="scale(0.015625)"/>
      </defs>
      <use xlink:href="#DejaVuSans-36"/>
     </g>
    </g>
   </g>
   <g id="text_8">
    <g clip-path="url(#p70addcca94)">
     <!-- 7 -->
     <g transform="translate(316.564004 152.348795) scale(0.1 -0.1)">
      <defs>
       <path id="DejaVuSans-37" d="M 525 4666 
L 3525 4666 
L 3525 4397 
L 1831 0 
L 1172 0 
L 2766 4134 
L 525 4134 
L 525 4666 
z
" transform="scale(0.015625)"/>
      </defs>
      <use xlink:href="#DejaVuSans-37"/>
     </g>
    </g>
   </g>
   <g id="text_9">
    <g clip-path="url(#p70addcca94)">
     <!-- 8 -->
     <g transform="translate(262.052041 32.749458) scale(0.1 -0.1)">
      <defs>
       <path id="DejaVuSans-38" d="M 2034 2216 
Q 1584 2216 1326 1975 
Q 1069 1734 1069 1313 
Q 1069 891 1326 650 
Q 1584 409 2034 409 
Q 2484 409 2743 651 
Q 3003 894 3003 1313 
Q 3003 1734 2745 1975 
Q 2488 2216 2034 2216 
z
M 1403 2484 
Q 997 2584 770 2862 
Q 544 3141 544 3541 
Q 544 4100 942 4425 
Q 1341 4750 2034 4750 
Q 2731 4750 3128 4425 
Q 3525 4100 3525 3541 
Q 3525 3141 3298 2862 
Q 3072 2584 2669 2484 
Q 3125 2378 3379 2068 
Q 3634 1759 3634 1313 
Q 3634 634 3220 271 
Q 2806 -91 2034 -91 
Q 1263 -91 848 271 
Q 434 634 434 1313 
Q 434 1759 690 2068 
Q 947 2378 1403 2484 
z
M 1172 3481 
Q 1172 3119 1398 2916 
Q 1625 2713 2034 2713 
Q 2441 2713 2670 2916 
Q 2900 3119 2900 3481 
Q 2900 3844 2670 4047 
Q 2441 4250 2034 4250 
Q 1625 4250 1398 4047 
Q 1172 3844 1172 3481 
z
" transform="scale(0.015625)"/>
      </defs>
      <use xlink:href="#DejaVuSans-38"/>
     </g>
    </g>
   </g>
   <g id="text_10">
    <g clip-path="url(#p70addcca94)">
     <!-- 9 -->
     <g transform="translate(321.372908 228.528934) scale(0.1 -0.1)">
      <defs>
       <path id="DejaVuSans-39" d="M 703 97 
L 703 672 
Q 941 559 1184 500 
Q 1428 441 1663 441 
Q 2288 441 2617 861 
Q 2947 1281 2994 2138 
Q 2813 1869 2534 1725 
Q 2256 1581 1919 1581 
Q 1219 1581 811 2004 
Q 403 2428 403 3163 
Q 403 3881 828 4315 
Q 1253 4750 1959 4750 
Q 2769 4750 3195 4129 
Q 3622 3509 3622 2328 
Q 3622 1225 3098 567 
Q 2575 -91 1691 -91 
Q 1453 -91 1209 -44 
Q 966 3 703 97 
z
M 1959 2075 
Q 2384 2075 2632 2365 
Q 2881 2656 2881 3163 
Q 2881 3666 2632 3958 
Q 2384 4250 1959 4250 
Q 1534 4250 1286 3958 
Q 1038 3666 1038 3163 
Q 1038 2656 1286 2365 
Q 1534 2075 1959 2075 
z
" transform="scale(0.015625)"/>
      </defs>
      <use xlink:href="#DejaVuSans-39"/>
     </g>
    </g>
   </g>
   <g id="text_11">
    <g clip-path="url(#p70addcca94)">
     <!-- 10 -->
     <g transform="translate(43.096986 207.058071) scale(0.1 -0.1)">
      <use xlink:href="#DejaVuSans-31"/>
      <use xlink:href="#DejaVuSans-30" x="63.623047"/>
     </g>
    </g>
   </g>
   <g id="text_12">
    <g clip-path="url(#p70addcca94)">
     <!-- 11 -->
     <g transform="translate(33.624277 233.366674) scale(0.1 -0.1)">
      <use xlink:href="#DejaVuSans-31"/>
      <use xlink:href="#DejaVuSans-31" x="63.623047"/>
     </g>
    </g>
   </g>
   <g id="text_13">
    <g clip-path="url(#p70addcca94)">
     <!-- 12 -->
     <g transform="translate(349.1644 185.899935) scale(0.1 -0.1)">
      <use xlink:href="#DejaVuSans-31"/>
      <use xlink:href="#DejaVuSans-32" x="63.623047"/>
     </g>
    </g>
   </g>
   <g id="text_14">
    <g clip-path="url(#p70addcca94)">
     <!-- 13 -->
     <g transform="translate(277.304355 204.475396) scale(0.1 -0.1)">
      <use xlink:href="#DejaVuSans-31"/>
      <use xlink:href="#DejaVuSans-33" x="63.623047"/>
     </g>
    </g>
   </g>
   <g id="text_15">
    <g clip-path="url(#p70addcca94)">
     <!-- 14 -->
     <g transform="translate(404.758217 318.369292) scale(0.1 -0.1)">
      <use xlink:href="#DejaVuSans-31"/>
      <use xlink:href="#DejaVuSans-34" x="63.623047"/>
     </g>
    </g>
   </g>
   <g id="text_16">
    <g clip-path="url(#p70addcca94)">
     <!-- 15 -->
     <g transform="translate(348.783679 307.153196) scale(0.1 -0.1)">
      <use xlink:href="#DejaVuSans-31"/>
      <use xlink:href="#DejaVuSans-35" x="63.623047"/>
     </g>
    </g>
   </g>
   <g id="text_17">
    <g clip-path="url(#p70addcca94)">
     <!-- 16 -->
     <g transform="translate(262.73383 290.745857) scale(0.1 -0.1)">
      <use xlink:href="#DejaVuSans-31"/>
      <use xlink:href="#DejaVuSans-36" x="63.623047"/>
     </g>
    </g>
   </g>
   <g id="text_18">
    <g clip-path="url(#p70addcca94)">
     <!-- 17 -->
     <g transform="translate(190.834906 288.743179) scale(0.1 -0.1)">
      <use xlink:href="#DejaVuSans-31"/>
      <use xlink:href="#DejaVuSans-37" x="63.623047"/>
     </g>
    </g>
   </g>
   <g id="text_19">
    <g clip-path="url(#p70addcca94)">
     <!-- 18 -->
     <g transform="translate(160.12908 256.586085) scale(0.1 -0.1)">
      <use xlink:href="#DejaVuSans-31"/>
      <use xlink:href="#DejaVuSans-38" x="63.623047"/>
     </g>
    </g>
   </g>
   <g id="text_20">
    <g clip-path="url(#p70addcca94)">
     <!-- 19 -->
     <g transform="translate(236.652081 250.765616) scale(0.1 -0.1)">
      <use xlink:href="#DejaVuSans-31"/>
      <use xlink:href="#DejaVuSans-39" x="63.623047"/>
     </g>
    </g>
   </g>
   <g id="text_21">
    <g clip-path="url(#p70addcca94)">
     <!-- 20 -->
     <g transform="translate(195.292569 220.229941) scale(0.1 -0.1)">
      <use xlink:href="#DejaVuSans-32"/>
      <use xlink:href="#DejaVuSans-30" x="63.623047"/>
     </g>
    </g>
   </g>
   <g id="text_22">
    <g clip-path="url(#p70addcca94)">
     <!-- 21 -->
     <g transform="translate(105.407862 226.019394) scale(0.1 -0.1)">
      <use xlink:href="#DejaVuSans-32"/>
      <use xlink:href="#DejaVuSans-31" x="63.623047"/>
     </g>
    </g>
   </g>
  </g>
 </g>
 <defs>
  <clipPath id="p70addcca94">
   <rect x="0" y="0" width="460.8" height="345.6"/>
  </clipPath>
 </defs>
</svg>
