<?xml version="1.0" encoding="utf-8" standalone="no"?>
<!DOCTYPE svg PUBLIC "-//W3C//DTD SVG 1.1//EN"
  "http://www.w3.org/Graphics/SVG/1.1/DTD/svg11.dtd">
<svg xmlns:xlink="http://www.w3.org/1999/xlink" width="460.8pt" height="345.6pt" viewBox="0 0 460.8 345.6" xmlns="http://www.w3.org/2000/svg" version="1.1">
 <metadata>
  <rdf:RDF xmlns:dc="http://purl.org/dc/elements/1.1/" xmlns:cc="http://creativecommons.org/ns#" xmlns:rdf="http://www.w3.org/1999/02/22-rdf-syntax-ns#">
   <cc:Work>
    <dc:type rdf:resource="http://purl.org/dc/dcmitype/StillImage"/>
    <dc:date>2024-02-28T11:17:48.713410</dc:date>
    <dc:format>image/svg+xml</dc:format>
    <dc:creator>
     <cc:Agent>
      <dc:title>Matplotlib v3.8.0, https://matplotlib.org/</dc:title>
     </cc:Agent>
    </dc:creator>
   </cc:Work>
  </rdf:RDF>
 </metadata>
 <defs>
  <style type="text/css">*{stroke-linejoin: round; stroke-linecap: butt}</style>
 </defs>
 <g id="figure_1">
  <g id="patch_1">
   <path d="M 0 345.6 
L 460.8 345.6 
L 460.8 0 
L 0 0 
z
" style="fill: #ffffff"/>
  </g>
  <g id="axes_1">
   <g id="patch_2">
    <path d="M 57.523271 158.572859 
Q 67.397851 129.017736 76.918139 100.523026 
" clip-path="url(#pcd7ef5cedc)" style="fill: none; stroke: #000000; stroke-linecap: round"/>
    <path d="M 73.753661 103.683101 
L 76.918139 100.523026 
L 77.547512 104.950654 
z
" clip-path="url(#pcd7ef5cedc)" style="stroke: #000000; stroke-linecap: round"/>
   </g>
   <g id="patch_3">
    <path d="M 57.916058 162.060093 
Q 75.263238 190.54335 92.028867 218.071726 
" clip-path="url(#pcd7ef5cedc)" style="fill: none; stroke: #000000; stroke-linecap: round"/>
    <path d="M 91.656386 213.615129 
L 92.028867 218.071726 
L 88.240101 215.695752 
z
" clip-path="url(#pcd7ef5cedc)" style="stroke: #000000; stroke-linecap: round"/>
   </g>
   <g id="patch_4">
    <path d="M 133.98356 314.345924 
Q 158.810705 292.95327 182.790871 272.290427 
" clip-path="url(#pcd7ef5cedc)" style="fill: none; stroke: #000000; stroke-linecap: round"/>
    <path d="M 178.455097 273.386358 
L 182.790871 272.290427 
L 181.066151 276.416605 
z
" clip-path="url(#pcd7ef5cedc)" style="stroke: #000000; stroke-linecap: round"/>
   </g>
   <g id="patch_5">
    <path d="M 419.070895 300.055385 
Q 381.220306 281.710537 344.375813 263.853307 
" clip-path="url(#pcd7ef5cedc)" style="fill: none; stroke: #000000; stroke-linecap: round"/>
    <path d="M 347.10305 267.397624 
L 344.375813 263.853307 
L 348.847609 263.798108 
z
" clip-path="url(#pcd7ef5cedc)" style="stroke: #000000; stroke-linecap: round"/>
   </g>
   <g id="patch_6">
    <path d="M 403.973835 209.177724 
Q 373.536247 235.220418 343.948176 260.536256 
" clip-path="url(#pcd7ef5cedc)" style="fill: none; stroke: #000000; stroke-linecap: round"/>
    <path d="M 348.287743 259.455442 
L 343.948176 260.536256 
L 345.687265 256.416114 
z
" clip-path="url(#pcd7ef5cedc)" style="stroke: #000000; stroke-linecap: round"/>
   </g>
   <g id="patch_7">
    <path d="M 405.391309 205.983596 
Q 404.64311 178.602396 403.925451 152.338813 
" clip-path="url(#pcd7ef5cedc)" style="fill: none; stroke: #000000; stroke-linecap: round"/>
    <path d="M 402.035458 156.391951 
L 403.925451 152.338813 
L 406.033965 156.28269 
z
" clip-path="url(#pcd7ef5cedc)" style="stroke: #000000; stroke-linecap: round"/>
   </g>
   <g id="patch_8">
    <path d="M 183.640619 271.55823 
Q 158.813473 292.950885 134.833308 313.613727 
" clip-path="url(#pcd7ef5cedc)" style="fill: none; stroke: #000000; stroke-linecap: round"/>
    <path d="M 139.169082 312.517796 
L 134.833308 313.613727 
L 136.558028 309.487549 
z
" clip-path="url(#pcd7ef5cedc)" style="stroke: #000000; stroke-linecap: round"/>
   </g>
   <g id="patch_9">
    <path d="M 183.407214 269.372207 
Q 139.364094 245.489093 96.303806 222.138936 
" clip-path="url(#pcd7ef5cedc)" style="fill: none; stroke: #000000; stroke-linecap: round"/>
    <path d="M 98.866709 225.803842 
L 96.303806 222.138936 
L 100.773472 222.287558 
z
" clip-path="url(#pcd7ef5cedc)" style="stroke: #000000; stroke-linecap: round"/>
   </g>
   <g id="patch_10">
    <path d="M 187.042072 270.198169 
Q 263.370246 266.407741 338.581762 262.672767 
" clip-path="url(#pcd7ef5cedc)" style="fill: none; stroke: #000000; stroke-linecap: round"/>
    <path d="M 334.487488 260.873622 
L 338.581762 262.672767 
L 334.685882 264.868699 
z
" clip-path="url(#pcd7ef5cedc)" style="stroke: #000000; stroke-linecap: round"/>
   </g>
   <g id="patch_11">
    <path d="M 403.894957 151.222836 
Q 404.643155 178.604036 405.360814 204.867619 
" clip-path="url(#pcd7ef5cedc)" style="fill: none; stroke: #000000; stroke-linecap: round"/>
    <path d="M 407.250808 200.814481 
L 405.360814 204.867619 
L 403.2523 200.923742 
z
" clip-path="url(#pcd7ef5cedc)" style="stroke: #000000; stroke-linecap: round"/>
   </g>
   <g id="patch_12">
    <path d="M 402.224958 148.224134 
Q 365.939503 124.379836 330.5884 101.14953 
" clip-path="url(#pcd7ef5cedc)" style="fill: none; stroke: #000000; stroke-linecap: round"/>
    <path d="M 332.832899 105.017634 
L 330.5884 101.14953 
L 335.029582 101.674794 
z
" clip-path="url(#pcd7ef5cedc)" style="stroke: #000000; stroke-linecap: round"/>
   </g>
   <g id="patch_13">
    <path d="M 329.652318 100.534401 
Q 365.937773 124.378699 401.288876 147.609005 
" clip-path="url(#pcd7ef5cedc)" style="fill: none; stroke: #000000; stroke-linecap: round"/>
    <path d="M 399.044378 143.740901 
L 401.288876 147.609005 
L 396.847694 147.083741 
z
" clip-path="url(#pcd7ef5cedc)" style="stroke: #000000; stroke-linecap: round"/>
   </g>
   <g id="patch_14">
    <path d="M 326.141794 99.051553 
Q 261.888732 84.791982 198.727149 70.774642 
" clip-path="url(#pcd7ef5cedc)" style="fill: none; stroke: #000000; stroke-linecap: round"/>
    <path d="M 202.198826 73.593766 
L 198.727149 70.774642 
L 203.065454 69.688774 
z
" clip-path="url(#pcd7ef5cedc)" style="stroke: #000000; stroke-linecap: round"/>
   </g>
   <g id="patch_15">
    <path d="M 197.638894 70.533128 
Q 261.891956 84.792698 325.053539 98.810038 
" clip-path="url(#pcd7ef5cedc)" style="fill: none; stroke: #000000; stroke-linecap: round"/>
    <path d="M 321.581862 95.990915 
L 325.053539 98.810038 
L 320.715234 99.895906 
z
" clip-path="url(#pcd7ef5cedc)" style="stroke: #000000; stroke-linecap: round"/>
   </g>
   <g id="patch_16">
    <path d="M 194.06541 69.150503 
Q 160.725793 50.051911 128.356307 31.509057 
" clip-path="url(#pcd7ef5cedc)" style="fill: none; stroke: #000000; stroke-linecap: round"/>
    <path d="M 130.833016 35.232753 
L 128.356307 31.509057 
L 132.821289 31.761908 
z
" clip-path="url(#pcd7ef5cedc)" style="stroke: #000000; stroke-linecap: round"/>
   </g>
   <g id="patch_17">
    <path d="M 193.857139 70.553774 
Q 136.814325 83.87108 80.860269 96.934203 
" clip-path="url(#pcd7ef5cedc)" style="fill: none; stroke: #000000; stroke-linecap: round"/>
    <path d="M 85.210219 97.972438 
L 80.860269 96.934203 
L 84.300827 94.077184 
z
" clip-path="url(#pcd7ef5cedc)" style="stroke: #000000; stroke-linecap: round"/>
   </g>
   <g id="patch_18">
    <path d="M 127.384751 30.952502 
Q 160.724368 50.051094 193.093854 68.593947 
" clip-path="url(#pcd7ef5cedc)" style="fill: none; stroke: #000000; stroke-linecap: round"/>
    <path d="M 190.617145 64.870251 
L 193.093854 68.593947 
L 188.628872 68.341097 
z
" clip-path="url(#pcd7ef5cedc)" style="stroke: #000000; stroke-linecap: round"/>
   </g>
   <g id="patch_19">
    <path d="M 123.818629 30.437417 
Q 82.845453 40.155375 42.960132 49.615318 
" clip-path="url(#pcd7ef5cedc)" style="fill: none; stroke: #000000; stroke-linecap: round"/>
    <path d="M 47.313712 50.638226 
L 42.960132 49.615318 
L 46.390607 46.746199 
z
" clip-path="url(#pcd7ef5cedc)" style="stroke: #000000; stroke-linecap: round"/>
   </g>
   <g id="patch_20">
    <path d="M 41.872843 49.873199 
Q 82.846019 40.155241 122.731341 30.695299 
" clip-path="url(#pcd7ef5cedc)" style="fill: none; stroke: #000000; stroke-linecap: round"/>
    <path d="M 118.377761 29.67239 
L 122.731341 30.695299 
L 119.300866 33.564418 
z
" clip-path="url(#pcd7ef5cedc)" style="stroke: #000000; stroke-linecap: round"/>
   </g>
   <g id="patch_21">
    <path d="M 41.196545 51.830679 
Q 58.935107 73.973604 75.974656 95.243958 
" clip-path="url(#pcd7ef5cedc)" style="fill: none; stroke: #000000; stroke-linecap: round"/>
    <path d="M 75.034699 90.871719 
L 75.974656 95.243958 
L 71.91289 93.37258 
z
" clip-path="url(#pcd7ef5cedc)" style="stroke: #000000; stroke-linecap: round"/>
   </g>
   <g id="patch_22">
    <path d="M 77.271902 99.464196 
Q 67.397322 129.019319 57.877034 157.514029 
" clip-path="url(#pcd7ef5cedc)" style="fill: none; stroke: #000000; stroke-linecap: round"/>
    <path d="M 61.041512 154.353954 
L 57.877034 157.514029 
L 57.247661 153.086401 
z
" clip-path="url(#pcd7ef5cedc)" style="stroke: #000000; stroke-linecap: round"/>
   </g>
   <g id="patch_23">
    <path d="M 79.773453 97.187933 
Q 136.816266 83.870627 192.770323 70.807504 
" clip-path="url(#pcd7ef5cedc)" style="fill: none; stroke: #000000; stroke-linecap: round"/>
    <path d="M 188.420372 69.769269 
L 192.770323 70.807504 
L 189.329765 73.664523 
z
" clip-path="url(#pcd7ef5cedc)" style="stroke: #000000; stroke-linecap: round"/>
   </g>
   <g id="patch_24">
    <path d="M 76.675358 96.11864 
Q 58.936796 73.975714 41.897247 52.70536 
" clip-path="url(#pcd7ef5cedc)" style="fill: none; stroke: #000000; stroke-linecap: round"/>
    <path d="M 42.837204 57.0776 
L 41.897247 52.70536 
L 45.959013 54.576738 
z
" clip-path="url(#pcd7ef5cedc)" style="stroke: #000000; stroke-linecap: round"/>
   </g>
   <g id="patch_25">
    <path d="M 92.613357 219.031432 
Q 75.266177 190.548175 58.500548 163.019799 
" clip-path="url(#pcd7ef5cedc)" style="fill: none; stroke: #000000; stroke-linecap: round"/>
    <path d="M 58.873029 167.476396 
L 58.500548 163.019799 
L 62.289314 165.395773 
z
" clip-path="url(#pcd7ef5cedc)" style="stroke: #000000; stroke-linecap: round"/>
   </g>
   <g id="patch_26">
    <path d="M 95.319695 221.605285 
Q 139.362814 245.488399 182.423102 268.838556 
" clip-path="url(#pcd7ef5cedc)" style="fill: none; stroke: #000000; stroke-linecap: round"/>
    <path d="M 179.8602 265.17365 
L 182.423102 268.838556 
L 177.953436 268.689934 
z
" clip-path="url(#pcd7ef5cedc)" style="stroke: #000000; stroke-linecap: round"/>
   </g>
   <g id="patch_27">
    <path d="M 343.370241 263.365941 
Q 381.220829 281.71079 418.065322 299.56802 
" clip-path="url(#pcd7ef5cedc)" style="fill: none; stroke: #000000; stroke-linecap: round"/>
    <path d="M 415.338086 296.023703 
L 418.065322 299.56802 
L 413.593527 299.623219 
z
" clip-path="url(#pcd7ef5cedc)" style="stroke: #000000; stroke-linecap: round"/>
   </g>
   <g id="patch_28">
    <path d="M 343.098289 261.263428 
Q 373.535878 235.220733 403.123948 209.904895 
" clip-path="url(#pcd7ef5cedc)" style="fill: none; stroke: #000000; stroke-linecap: round"/>
    <path d="M 398.784381 210.985709 
L 403.123948 209.904895 
L 401.384859 214.025037 
z
" clip-path="url(#pcd7ef5cedc)" style="stroke: #000000; stroke-linecap: round"/>
   </g>
   <g id="patch_29">
    <path d="M 339.69338 262.617564 
Q 263.365207 266.407992 188.153691 270.142966 
" clip-path="url(#pcd7ef5cedc)" style="fill: none; stroke: #000000; stroke-linecap: round"/>
    <path d="M 192.247965 271.942111 
L 188.153691 270.142966 
L 192.049571 267.947034 
z
" clip-path="url(#pcd7ef5cedc)" style="stroke: #000000; stroke-linecap: round"/>
   </g>
   <g id="PathCollection_1">
    <defs>
     <path id="mb5502ad2d5" d="M 0 1.936492 
C 0.513564 1.936492 1.006162 1.732451 1.369306 1.369306 
C 1.732451 1.006162 1.936492 0.513564 1.936492 0 
C 1.936492 -0.513564 1.732451 -1.006162 1.369306 -1.369306 
C 1.006162 -1.732451 0.513564 -1.936492 0 -1.936492 
C -0.513564 -1.936492 -1.006162 -1.732451 -1.369306 -1.369306 
C -1.732451 -1.006162 -1.936492 -0.513564 -1.936492 0 
C -1.936492 0.513564 -1.732451 1.006162 -1.369306 1.369306 
C -1.006162 1.732451 -0.513564 1.936492 0 1.936492 
z
" style="stroke: #1f78b4"/>
    </defs>
    <g clip-path="url(#pcd7ef5cedc)">
     <use xlink:href="#mb5502ad2d5" x="56.910047" y="160.40827" style="fill: #1f78b4; stroke: #1f78b4"/>
     <use xlink:href="#mb5502ad2d5" x="132.516639" y="315.609917" style="fill: #1f78b4; stroke: #1f78b4"/>
     <use xlink:href="#mb5502ad2d5" x="420.813223" y="300.89983" style="fill: #1f78b4; stroke: #1f78b4"/>
     <use xlink:href="#mb5502ad2d5" x="405.444212" y="207.919655" style="fill: #1f78b4; stroke: #1f78b4"/>
     <use xlink:href="#mb5502ad2d5" x="185.10754" y="270.294237" style="fill: #1f78b4; stroke: #1f78b4"/>
     <use xlink:href="#mb5502ad2d5" x="403.842054" y="149.286777" style="fill: #1f78b4; stroke: #1f78b4"/>
     <use xlink:href="#mb5502ad2d5" x="328.035223" y="99.471758" style="fill: #1f78b4; stroke: #1f78b4"/>
     <use xlink:href="#mb5502ad2d5" x="195.745465" y="70.112922" style="fill: #1f78b4; stroke: #1f78b4"/>
     <use xlink:href="#mb5502ad2d5" x="125.704696" y="29.990083" style="fill: #1f78b4; stroke: #1f78b4"/>
     <use xlink:href="#mb5502ad2d5" x="39.986777" y="50.320534" style="fill: #1f78b4; stroke: #1f78b4"/>
     <use xlink:href="#mb5502ad2d5" x="77.885126" y="97.628785" style="fill: #1f78b4; stroke: #1f78b4"/>
     <use xlink:href="#mb5502ad2d5" x="93.619368" y="220.683255" style="fill: #1f78b4; stroke: #1f78b4"/>
     <use xlink:href="#mb5502ad2d5" x="341.627913" y="262.521496" style="fill: #1f78b4; stroke: #1f78b4"/>
    </g>
   </g>
   <g id="text_1">
    <g clip-path="url(#pcd7ef5cedc)">
     <!-- 0 -->
     <g transform="translate(53.728797 163.167645) scale(0.1 -0.1)">
      <defs>
       <path id="DejaVuSans-30" d="M 2034 4250 
Q 1547 4250 1301 3770 
Q 1056 3291 1056 2328 
Q 1056 1369 1301 889 
Q 1547 409 2034 409 
Q 2525 409 2770 889 
Q 3016 1369 3016 2328 
Q 3016 3291 2770 3770 
Q 2525 4250 2034 4250 
z
M 2034 4750 
Q 2819 4750 3233 4129 
Q 3647 3509 3647 2328 
Q 3647 1150 3233 529 
Q 2819 -91 2034 -91 
Q 1250 -91 836 529 
Q 422 1150 422 2328 
Q 422 3509 836 4129 
Q 1250 4750 2034 4750 
z
" transform="scale(0.015625)"/>
      </defs>
      <use xlink:href="#DejaVuSans-30"/>
     </g>
    </g>
   </g>
   <g id="text_2">
    <g clip-path="url(#pcd7ef5cedc)">
     <!-- 1 -->
     <g transform="translate(129.335389 318.369292) scale(0.1 -0.1)">
      <defs>
       <path id="DejaVuSans-31" d="M 794 531 
L 1825 531 
L 1825 4091 
L 703 3866 
L 703 4441 
L 1819 4666 
L 2450 4666 
L 2450 531 
L 3481 531 
L 3481 0 
L 794 0 
L 794 531 
z
" transform="scale(0.015625)"/>
      </defs>
      <use xlink:href="#DejaVuSans-31"/>
     </g>
    </g>
   </g>
   <g id="text_3">
    <g clip-path="url(#pcd7ef5cedc)">
     <!-- 2 -->
     <g transform="translate(417.631973 303.659205) scale(0.1 -0.1)">
      <defs>
       <path id="DejaVuSans-32" d="M 1228 531 
L 3431 531 
L 3431 0 
L 469 0 
L 469 531 
Q 828 903 1448 1529 
Q 2069 2156 2228 2338 
Q 2531 2678 2651 2914 
Q 2772 3150 2772 3378 
Q 2772 3750 2511 3984 
Q 2250 4219 1831 4219 
Q 1534 4219 1204 4116 
Q 875 4013 500 3803 
L 500 4441 
Q 881 4594 1212 4672 
Q 1544 4750 1819 4750 
Q 2544 4750 2975 4387 
Q 3406 4025 3406 3419 
Q 3406 3131 3298 2873 
Q 3191 2616 2906 2266 
Q 2828 2175 2409 1742 
Q 1991 1309 1228 531 
z
" transform="scale(0.015625)"/>
      </defs>
      <use xlink:href="#DejaVuSans-32"/>
     </g>
    </g>
   </g>
   <g id="text_4">
    <g clip-path="url(#pcd7ef5cedc)">
     <!-- 3 -->
     <g transform="translate(402.262962 210.67903) scale(0.1 -0.1)">
      <defs>
       <path id="DejaVuSans-33" d="M 2597 2516 
Q 3050 2419 3304 2112 
Q 3559 1806 3559 1356 
Q 3559 666 3084 287 
Q 2609 -91 1734 -91 
Q 1441 -91 1130 -33 
Q 819 25 488 141 
L 488 750 
Q 750 597 1062 519 
Q 1375 441 1716 441 
Q 2309 441 2620 675 
Q 2931 909 2931 1356 
Q 2931 1769 2642 2001 
Q 2353 2234 1838 2234 
L 1294 2234 
L 1294 2753 
L 1863 2753 
Q 2328 2753 2575 2939 
Q 2822 3125 2822 3475 
Q 2822 3834 2567 4026 
Q 2313 4219 1838 4219 
Q 1578 4219 1281 4162 
Q 984 4106 628 3988 
L 628 4550 
Q 988 4650 1302 4700 
Q 1616 4750 1894 4750 
Q 2613 4750 3031 4423 
Q 3450 4097 3450 3541 
Q 3450 3153 3228 2886 
Q 3006 2619 2597 2516 
z
" transform="scale(0.015625)"/>
      </defs>
      <use xlink:href="#DejaVuSans-33"/>
     </g>
    </g>
   </g>
   <g id="text_5">
    <g clip-path="url(#pcd7ef5cedc)">
     <!-- 4 -->
     <g transform="translate(181.92629 273.053612) scale(0.1 -0.1)">
      <defs>
       <path id="DejaVuSans-34" d="M 2419 4116 
L 825 1625 
L 2419 1625 
L 2419 4116 
z
M 2253 4666 
L 3047 4666 
L 3047 1625 
L 3713 1625 
L 3713 1100 
L 3047 1100 
L 3047 0 
L 2419 0 
L 2419 1100 
L 313 1100 
L 313 1709 
L 2253 4666 
z
" transform="scale(0.015625)"/>
      </defs>
      <use xlink:href="#DejaVuSans-34"/>
     </g>
    </g>
   </g>
   <g id="text_6">
    <g clip-path="url(#pcd7ef5cedc)">
     <!-- 5 -->
     <g transform="translate(400.660804 152.046152) scale(0.1 -0.1)">
      <defs>
       <path id="DejaVuSans-35" d="M 691 4666 
L 3169 4666 
L 3169 4134 
L 1269 4134 
L 1269 2991 
Q 1406 3038 1543 3061 
Q 1681 3084 1819 3084 
Q 2600 3084 3056 2656 
Q 3513 2228 3513 1497 
Q 3513 744 3044 326 
Q 2575 -91 1722 -91 
Q 1428 -91 1123 -41 
Q 819 9 494 109 
L 494 744 
Q 775 591 1075 516 
Q 1375 441 1709 441 
Q 2250 441 2565 725 
Q 2881 1009 2881 1497 
Q 2881 1984 2565 2268 
Q 2250 2553 1709 2553 
Q 1456 2553 1204 2497 
Q 953 2441 691 2322 
L 691 4666 
z
" transform="scale(0.015625)"/>
      </defs>
      <use xlink:href="#DejaVuSans-35"/>
     </g>
    </g>
   </g>
   <g id="text_7">
    <g clip-path="url(#pcd7ef5cedc)">
     <!-- 6 -->
     <g transform="translate(324.853973 102.231133) scale(0.1 -0.1)">
      <defs>
       <path id="DejaVuSans-36" d="M 2113 2584 
Q 1688 2584 1439 2293 
Q 1191 2003 1191 1497 
Q 1191 994 1439 701 
Q 1688 409 2113 409 
Q 2538 409 2786 701 
Q 3034 994 3034 1497 
Q 3034 2003 2786 2293 
Q 2538 2584 2113 2584 
z
M 3366 4563 
L 3366 3988 
Q 3128 4100 2886 4159 
Q 2644 4219 2406 4219 
Q 1781 4219 1451 3797 
Q 1122 3375 1075 2522 
Q 1259 2794 1537 2939 
Q 1816 3084 2150 3084 
Q 2853 3084 3261 2657 
Q 3669 2231 3669 1497 
Q 3669 778 3244 343 
Q 2819 -91 2113 -91 
Q 1303 -91 875 529 
Q 447 1150 447 2328 
Q 447 3434 972 4092 
Q 1497 4750 2381 4750 
Q 2619 4750 2861 4703 
Q 3103 4656 3366 4563 
z
" transform="scale(0.015625)"/>
      </defs>
      <use xlink:href="#DejaVuSans-36"/>
     </g>
    </g>
   </g>
   <g id="text_8">
    <g clip-path="url(#pcd7ef5cedc)">
     <!-- 7 -->
     <g transform="translate(192.564215 72.872297) scale(0.1 -0.1)">
      <defs>
       <path id="DejaVuSans-37" d="M 525 4666 
L 3525 4666 
L 3525 4397 
L 1831 0 
L 1172 0 
L 2766 4134 
L 525 4134 
L 525 4666 
z
" transform="scale(0.015625)"/>
      </defs>
      <use xlink:href="#DejaVuSans-37"/>
     </g>
    </g>
   </g>
   <g id="text_9">
    <g clip-path="url(#pcd7ef5cedc)">
     <!-- 8 -->
     <g transform="translate(122.523446 32.749458) scale(0.1 -0.1)">
      <defs>
       <path id="DejaVuSans-38" d="M 2034 2216 
Q 1584 2216 1326 1975 
Q 1069 1734 1069 1313 
Q 1069 891 1326 650 
Q 1584 409 2034 409 
Q 2484 409 2743 651 
Q 3003 894 3003 1313 
Q 3003 1734 2745 1975 
Q 2488 2216 2034 2216 
z
M 1403 2484 
Q 997 2584 770 2862 
Q 544 3141 544 3541 
Q 544 4100 942 4425 
Q 1341 4750 2034 4750 
Q 2731 4750 3128 4425 
Q 3525 4100 3525 3541 
Q 3525 3141 3298 2862 
Q 3072 2584 2669 2484 
Q 3125 2378 3379 2068 
Q 3634 1759 3634 1313 
Q 3634 634 3220 271 
Q 2806 -91 2034 -91 
Q 1263 -91 848 271 
Q 434 634 434 1313 
Q 434 1759 690 2068 
Q 947 2378 1403 2484 
z
M 1172 3481 
Q 1172 3119 1398 2916 
Q 1625 2713 2034 2713 
Q 2441 2713 2670 2916 
Q 2900 3119 2900 3481 
Q 2900 3844 2670 4047 
Q 2441 4250 2034 4250 
Q 1625 4250 1398 4047 
Q 1172 3844 1172 3481 
z
" transform="scale(0.015625)"/>
      </defs>
      <use xlink:href="#DejaVuSans-38"/>
     </g>
    </g>
   </g>
   <g id="text_10">
    <g clip-path="url(#pcd7ef5cedc)">
     <!-- 9 -->
     <g transform="translate(36.805527 53.079909) scale(0.1 -0.1)">
      <defs>
       <path id="DejaVuSans-39" d="M 703 97 
L 703 672 
Q 941 559 1184 500 
Q 1428 441 1663 441 
Q 2288 441 2617 861 
Q 2947 1281 2994 2138 
Q 2813 1869 2534 1725 
Q 2256 1581 1919 1581 
Q 1219 1581 811 2004 
Q 403 2428 403 3163 
Q 403 3881 828 4315 
Q 1253 4750 1959 4750 
Q 2769 4750 3195 4129 
Q 3622 3509 3622 2328 
Q 3622 1225 3098 567 
Q 2575 -91 1691 -91 
Q 1453 -91 1209 -44 
Q 966 3 703 97 
z
M 1959 2075 
Q 2384 2075 2632 2365 
Q 2881 2656 2881 3163 
Q 2881 3666 2632 3958 
Q 2384 4250 1959 4250 
Q 1534 4250 1286 3958 
Q 1038 3666 1038 3163 
Q 1038 2656 1286 2365 
Q 1534 2075 1959 2075 
z
" transform="scale(0.015625)"/>
      </defs>
      <use xlink:href="#DejaVuSans-39"/>
     </g>
    </g>
   </g>
   <g id="text_11">
    <g clip-path="url(#pcd7ef5cedc)">
     <!-- 10 -->
     <g transform="translate(71.522626 100.38816) scale(0.1 -0.1)">
      <use xlink:href="#DejaVuSans-31"/>
      <use xlink:href="#DejaVuSans-30" x="63.623047"/>
     </g>
    </g>
   </g>
   <g id="text_12">
    <g clip-path="url(#pcd7ef5cedc)">
     <!-- 11 -->
     <g transform="translate(87.256868 223.44263) scale(0.1 -0.1)">
      <use xlink:href="#DejaVuSans-31"/>
      <use xlink:href="#DejaVuSans-31" x="63.623047"/>
     </g>
    </g>
   </g>
   <g id="text_13">
    <g clip-path="url(#pcd7ef5cedc)">
     <!-- 12 -->
     <g transform="translate(335.265413 265.280871) scale(0.1 -0.1)">
      <use xlink:href="#DejaVuSans-31"/>
      <use xlink:href="#DejaVuSans-32" x="63.623047"/>
     </g>
    </g>
   </g>
  </g>
 </g>
 <defs>
  <clipPath id="pcd7ef5cedc">
   <rect x="0" y="0" width="460.8" height="345.6"/>
  </clipPath>
 </defs>
</svg>
