<?xml version="1.0" encoding="utf-8" standalone="no"?>
<!DOCTYPE svg PUBLIC "-//W3C//DTD SVG 1.1//EN"
  "http://www.w3.org/Graphics/SVG/1.1/DTD/svg11.dtd">
<svg xmlns:xlink="http://www.w3.org/1999/xlink" width="460.8pt" height="345.6pt" viewBox="0 0 460.8 345.6" xmlns="http://www.w3.org/2000/svg" version="1.1">
 <metadata>
  <rdf:RDF xmlns:dc="http://purl.org/dc/elements/1.1/" xmlns:cc="http://creativecommons.org/ns#" xmlns:rdf="http://www.w3.org/1999/02/22-rdf-syntax-ns#">
   <cc:Work>
    <dc:type rdf:resource="http://purl.org/dc/dcmitype/StillImage"/>
    <dc:date>2024-02-28T11:17:52.960009</dc:date>
    <dc:format>image/svg+xml</dc:format>
    <dc:creator>
     <cc:Agent>
      <dc:title>Matplotlib v3.8.0, https://matplotlib.org/</dc:title>
     </cc:Agent>
    </dc:creator>
   </cc:Work>
  </rdf:RDF>
 </metadata>
 <defs>
  <style type="text/css">*{stroke-linejoin: round; stroke-linecap: butt}</style>
 </defs>
 <g id="figure_1">
  <g id="patch_1">
   <path d="M 0 345.6 
L 460.8 345.6 
L 460.8 0 
L 0 0 
z
" style="fill: #ffffff"/>
  </g>
  <g id="axes_1">
   <g id="patch_2">
    <path d="M 41.89229 154.864547 
Q 78.914508 161.935951 114.838544 168.797598 
" clip-path="url(#p5986f838e8)" style="fill: none; stroke: #000000; stroke-linecap: round"/>
    <path d="M 111.284797 166.082661 
L 114.838544 168.797598 
L 110.534346 170.011634 
z
" clip-path="url(#p5986f838e8)" style="stroke: #000000; stroke-linecap: round"/>
   </g>
   <g id="patch_3">
    <path d="M 55.737185 132.265002 
Q 85.95754 150.321012 115.218122 167.803578 
" clip-path="url(#p5986f838e8)" style="fill: none; stroke: #000000; stroke-linecap: round"/>
    <path d="M 112.810143 164.035073 
L 115.218122 167.803578 
L 110.75853 167.468858 
z
" clip-path="url(#p5986f838e8)" style="stroke: #000000; stroke-linecap: round"/>
   </g>
   <g id="patch_4">
    <path d="M 54.985257 205.07948 
Q 85.571502 187.703762 115.185627 170.880296 
" clip-path="url(#p5986f838e8)" style="fill: none; stroke: #000000; stroke-linecap: round"/>
    <path d="M 110.719765 171.117108 
L 115.185627 170.880296 
L 112.695559 174.595072 
z
" clip-path="url(#p5986f838e8)" style="stroke: #000000; stroke-linecap: round"/>
   </g>
   <g id="patch_5">
    <path d="M 81.947579 117.576422 
Q 99.343777 142.678774 116.103142 166.86219 
" clip-path="url(#p5986f838e8)" style="fill: none; stroke: #000000; stroke-linecap: round"/>
    <path d="M 115.468583 162.435302 
L 116.103142 166.86219 
L 112.180897 164.713704 
z
" clip-path="url(#p5986f838e8)" style="stroke: #000000; stroke-linecap: round"/>
   </g>
   <g id="patch_6">
    <path d="M 294.202196 313.776141 
Q 283.774495 283.575982 273.711696 254.432632 
" clip-path="url(#p5986f838e8)" style="fill: none; stroke: #000000; stroke-linecap: round"/>
    <path d="M 273.12673 258.866346 
L 273.711696 254.432632 
L 276.907687 257.560833 
z
" clip-path="url(#p5986f838e8)" style="stroke: #000000; stroke-linecap: round"/>
   </g>
   <g id="patch_7">
    <path d="M 339.936373 272.078826 
Q 307.251371 262.096456 275.635646 252.440654 
" clip-path="url(#p5986f838e8)" style="fill: none; stroke: #000000; stroke-linecap: round"/>
    <path d="M 278.877022 255.521804 
L 275.635646 252.440654 
L 280.045391 251.696244 
z
" clip-path="url(#p5986f838e8)" style="stroke: #000000; stroke-linecap: round"/>
   </g>
   <g id="patch_8">
    <path d="M 114.308956 292.955602 
Q 138.741628 269.476798 162.368151 246.772671 
" clip-path="url(#p5986f838e8)" style="fill: none; stroke: #000000; stroke-linecap: round"/>
    <path d="M 158.098201 248.102155 
L 162.368151 246.772671 
L 160.869768 250.986321 
z
" clip-path="url(#p5986f838e8)" style="stroke: #000000; stroke-linecap: round"/>
   </g>
   <g id="patch_9">
    <path d="M 324.421277 299.063271 
Q 299.280282 275.960077 274.962516 253.613384 
" clip-path="url(#p5986f838e8)" style="fill: none; stroke: #000000; stroke-linecap: round"/>
    <path d="M 276.554516 257.792563 
L 274.962516 253.613384 
L 279.261059 254.847291 
z
" clip-path="url(#p5986f838e8)" style="stroke: #000000; stroke-linecap: round"/>
   </g>
   <g id="patch_10">
    <path d="M 199.366841 31.924582 
Q 196.924521 63.075301 194.569591 93.111406 
" clip-path="url(#p5986f838e8)" style="fill: none; stroke: #000000; stroke-linecap: round"/>
    <path d="M 196.876126 89.279971 
L 194.569591 93.111406 
L 192.888364 88.967317 
z
" clip-path="url(#p5986f838e8)" style="stroke: #000000; stroke-linecap: round"/>
   </g>
   <g id="patch_11">
    <path d="M 162.598278 39.909657 
Q 177.988988 67.191408 192.830356 93.499392 
" clip-path="url(#p5986f838e8)" style="fill: none; stroke: #000000; stroke-linecap: round"/>
    <path d="M 192.606903 89.032842 
L 192.830356 93.499392 
L 189.123044 90.998223 
z
" clip-path="url(#p5986f838e8)" style="stroke: #000000; stroke-linecap: round"/>
   </g>
   <g id="patch_12">
    <path d="M 324.098932 149.557409 
Q 291.002667 151.141045 259.023159 152.671244 
" clip-path="url(#p5986f838e8)" style="fill: none; stroke: #000000; stroke-linecap: round"/>
    <path d="M 263.114177 154.477779 
L 259.023159 152.671244 
L 262.922998 150.482351 
z
" clip-path="url(#p5986f838e8)" style="stroke: #000000; stroke-linecap: round"/>
   </g>
   <g id="patch_13">
    <path d="M 207.166946 146.141408 
Q 189.04479 161.297802 171.78026 175.736924 
" clip-path="url(#p5986f838e8)" style="fill: none; stroke: #000000; stroke-linecap: round"/>
    <path d="M 176.131689 174.704902 
L 171.78026 175.736924 
L 173.5655 171.636568 
z
" clip-path="url(#p5986f838e8)" style="stroke: #000000; stroke-linecap: round"/>
   </g>
   <g id="patch_14">
    <path d="M 210.562416 145.217747 
Q 232.312826 148.857681 252.960537 152.313079 
" clip-path="url(#p5986f838e8)" style="fill: none; stroke: #000000; stroke-linecap: round"/>
    <path d="M 249.345509 149.680291 
L 252.960537 152.313079 
L 248.68529 153.625428 
z
" clip-path="url(#p5986f838e8)" style="stroke: #000000; stroke-linecap: round"/>
   </g>
   <g id="patch_15">
    <path d="M 308.448485 121.282275 
Q 283.04183 136.550266 258.593482 151.242368 
" clip-path="url(#p5986f838e8)" style="fill: none; stroke: #000000; stroke-linecap: round"/>
    <path d="M 263.052206 150.896276 
L 258.593482 151.242368 
L 260.991843 147.467733 
z
" clip-path="url(#p5986f838e8)" style="stroke: #000000; stroke-linecap: round"/>
   </g>
   <g id="patch_16">
    <path d="M 262.204911 94.941287 
Q 259.192554 122.916645 256.299893 149.780395 
" clip-path="url(#p5986f838e8)" style="fill: none; stroke: #000000; stroke-linecap: round"/>
    <path d="M 258.716639 146.017505 
L 256.299893 149.780395 
L 254.739628 145.589265 
z
" clip-path="url(#p5986f838e8)" style="stroke: #000000; stroke-linecap: round"/>
   </g>
   <g id="patch_17">
    <path d="M 294.371901 94.923615 
Q 275.70793 123.062991 257.66194 150.270648 
" clip-path="url(#p5986f838e8)" style="fill: none; stroke: #000000; stroke-linecap: round"/>
    <path d="M 261.539603 148.042705 
L 257.66194 150.270648 
L 258.206183 145.831752 
z
" clip-path="url(#p5986f838e8)" style="stroke: #000000; stroke-linecap: round"/>
   </g>
   <g id="patch_18">
    <path d="M 315.922835 176.644483 
Q 286.846162 165.087871 258.808468 153.944204 
" clip-path="url(#p5986f838e8)" style="fill: none; stroke: #000000; stroke-linecap: round"/>
    <path d="M 261.786931 157.280183 
L 258.808468 153.944204 
L 263.264329 153.563021 
z
" clip-path="url(#p5986f838e8)" style="stroke: #000000; stroke-linecap: round"/>
   </g>
   <g id="patch_19">
    <path d="M 419.029099 84.652609 
Q 387.82042 97.97218 357.640038 110.852884 
" clip-path="url(#p5986f838e8)" style="fill: none; stroke: #000000; stroke-linecap: round"/>
    <path d="M 362.104057 111.122218 
L 357.640038 110.852884 
L 360.533916 107.44327 
z
" clip-path="url(#p5986f838e8)" style="stroke: #000000; stroke-linecap: round"/>
   </g>
   <g id="patch_20">
    <path d="M 195.579535 187.051329 
Q 183.419505 182.699914 172.312141 178.725192 
" clip-path="url(#p5986f838e8)" style="fill: none; stroke: #000000; stroke-linecap: round"/>
    <path d="M 175.404423 181.955949 
L 172.312141 178.725192 
L 176.752116 178.18982 
z
" clip-path="url(#p5986f838e8)" style="stroke: #000000; stroke-linecap: round"/>
   </g>
   <g id="patch_21">
    <path d="M 118.718837 206.271064 
Q 143.234518 192.45901 166.776122 179.195747 
" clip-path="url(#p5986f838e8)" style="fill: none; stroke: #000000; stroke-linecap: round"/>
    <path d="M 162.309446 179.416683 
L 166.776122 179.195747 
L 164.272865 182.901649 
z
" clip-path="url(#p5986f838e8)" style="stroke: #000000; stroke-linecap: round"/>
   </g>
   <g id="patch_22">
    <path d="M 188.579472 277.423795 
Q 202.81158 251.568134 216.504552 226.691929 
" clip-path="url(#p5986f838e8)" style="fill: none; stroke: #000000; stroke-linecap: round"/>
    <path d="M 212.823578 229.231699 
L 216.504552 226.691929 
L 216.327784 231.16057 
z
" clip-path="url(#p5986f838e8)" style="stroke: #000000; stroke-linecap: round"/>
   </g>
   <g id="patch_23">
    <path d="M 232.912678 282.110297 
Q 225.686712 254.000083 218.739096 226.972698 
" clip-path="url(#p5986f838e8)" style="fill: none; stroke: #000000; stroke-linecap: round"/>
    <path d="M 217.797928 231.344678 
L 218.739096 226.972698 
L 221.671978 230.34882 
z
" clip-path="url(#p5986f838e8)" style="stroke: #000000; stroke-linecap: round"/>
   </g>
   <g id="patch_24">
    <path d="M 356.612959 111.291232 
Q 387.821639 97.97166 418.002021 85.090956 
" clip-path="url(#p5986f838e8)" style="fill: none; stroke: #000000; stroke-linecap: round"/>
    <path d="M 413.538002 84.821623 
L 418.002021 85.090956 
L 415.108143 88.500571 
z
" clip-path="url(#p5986f838e8)" style="stroke: #000000; stroke-linecap: round"/>
   </g>
   <g id="patch_25">
    <path d="M 353.039847 112.790391 
Q 305.40245 132.434284 258.798657 151.651957 
" clip-path="url(#p5986f838e8)" style="fill: none; stroke: #000000; stroke-linecap: round"/>
    <path d="M 263.259036 151.976033 
L 258.798657 151.651957 
L 261.734146 148.2781 
z
" clip-path="url(#p5986f838e8)" style="stroke: #000000; stroke-linecap: round"/>
   </g>
   <g id="patch_26">
    <path d="M 43.958683 179.868131 
Q 79.942056 174.755841 114.818511 169.800815 
" clip-path="url(#p5986f838e8)" style="fill: none; stroke: #000000; stroke-linecap: round"/>
    <path d="M 110.576957 168.383344 
L 114.818511 169.800815 
L 111.139602 172.343575 
z
" clip-path="url(#p5986f838e8)" style="stroke: #000000; stroke-linecap: round"/>
   </g>
   <g id="patch_27">
    <path d="M 147.170148 310.085889 
Q 155.621084 278.307759 163.784682 247.610108 
" clip-path="url(#p5986f838e8)" style="fill: none; stroke: #000000; stroke-linecap: round"/>
    <path d="M 160.823849 250.961745 
L 163.784682 247.610108 
L 164.689491 251.989757 
z
" clip-path="url(#p5986f838e8)" style="stroke: #000000; stroke-linecap: round"/>
   </g>
   <g id="patch_28">
    <path d="M 163.173346 245.998911 
Q 138.740674 269.477715 115.114151 292.181842 
" clip-path="url(#p5986f838e8)" style="fill: none; stroke: #000000; stroke-linecap: round"/>
    <path d="M 119.384101 290.852358 
L 115.114151 292.181842 
L 116.612534 287.968192 
z
" clip-path="url(#p5986f838e8)" style="stroke: #000000; stroke-linecap: round"/>
   </g>
   <g id="patch_29">
    <path d="M 164.073085 246.525622 
Q 155.62215 278.303752 147.458552 309.001402 
" clip-path="url(#p5986f838e8)" style="fill: none; stroke: #000000; stroke-linecap: round"/>
    <path d="M 150.419385 305.649766 
L 147.458552 309.001402 
L 146.553743 304.621754 
z
" clip-path="url(#p5986f838e8)" style="stroke: #000000; stroke-linecap: round"/>
   </g>
   <g id="patch_30">
    <path d="M 163.547639 243.009357 
Q 141.206002 207.01393 119.453968 171.968433 
" clip-path="url(#p5986f838e8)" style="fill: none; stroke: #000000; stroke-linecap: round"/>
    <path d="M 119.864107 176.421722 
L 119.453968 171.968433 
L 123.262683 174.312294 
z
" clip-path="url(#p5986f838e8)" style="stroke: #000000; stroke-linecap: round"/>
   </g>
   <g id="patch_31">
    <path d="M 164.710617 242.723568 
Q 167.003713 211.176443 169.215756 180.744411 
" clip-path="url(#p5986f838e8)" style="fill: none; stroke: #000000; stroke-linecap: round"/>
    <path d="M 166.931032 184.588892 
L 169.215756 180.744411 
L 170.920507 184.878879 
z
" clip-path="url(#p5986f838e8)" style="stroke: #000000; stroke-linecap: round"/>
   </g>
   <g id="patch_32">
    <path d="M 166.500808 244.779732 
Q 218.640839 248.102683 269.6651 251.354524 
" clip-path="url(#p5986f838e8)" style="fill: none; stroke: #000000; stroke-linecap: round"/>
    <path d="M 265.800403 249.104165 
L 269.6651 251.354524 
L 265.545994 253.096066 
z
" clip-path="url(#p5986f838e8)" style="stroke: #000000; stroke-linecap: round"/>
   </g>
   <g id="patch_33">
    <path d="M 115.936444 169.007302 
Q 78.914226 161.935897 42.99019 155.074251 
" clip-path="url(#p5986f838e8)" style="fill: none; stroke: #000000; stroke-linecap: round"/>
    <path d="M 46.543936 157.789188 
L 42.99019 155.074251 
L 47.294387 153.860215 
z
" clip-path="url(#p5986f838e8)" style="stroke: #000000; stroke-linecap: round"/>
   </g>
   <g id="patch_34">
    <path d="M 116.180069 168.378321 
Q 85.959715 150.322311 56.699132 132.839745 
" clip-path="url(#p5986f838e8)" style="fill: none; stroke: #000000; stroke-linecap: round"/>
    <path d="M 59.107111 136.608251 
L 56.699132 132.839745 
L 61.158724 133.174465 
z
" clip-path="url(#p5986f838e8)" style="stroke: #000000; stroke-linecap: round"/>
   </g>
   <g id="patch_35">
    <path d="M 116.159948 170.326794 
Q 85.573703 187.702512 55.959579 204.525978 
" clip-path="url(#p5986f838e8)" style="fill: none; stroke: #000000; stroke-linecap: round"/>
    <path d="M 60.425441 204.289166 
L 55.959579 204.525978 
L 58.449646 200.811202 
z
" clip-path="url(#p5986f838e8)" style="stroke: #000000; stroke-linecap: round"/>
   </g>
   <g id="patch_36">
    <path d="M 116.737688 167.777826 
Q 99.34149 142.675474 82.582125 118.492059 
" clip-path="url(#p5986f838e8)" style="fill: none; stroke: #000000; stroke-linecap: round"/>
    <path d="M 83.216684 122.918947 
L 82.582125 118.492059 
L 86.504371 120.640545 
z
" clip-path="url(#p5986f838e8)" style="stroke: #000000; stroke-linecap: round"/>
   </g>
   <g id="patch_37">
    <path d="M 115.921889 169.644054 
Q 79.938516 174.756344 45.062061 179.71137 
" clip-path="url(#p5986f838e8)" style="fill: none; stroke: #000000; stroke-linecap: round"/>
    <path d="M 49.303615 181.128841 
L 45.062061 179.71137 
L 48.74097 177.16861 
z
" clip-path="url(#p5986f838e8)" style="stroke: #000000; stroke-linecap: round"/>
   </g>
   <g id="patch_38">
    <path d="M 118.86442 171.018591 
Q 141.206057 207.014019 162.958091 242.059516 
" clip-path="url(#p5986f838e8)" style="fill: none; stroke: #000000; stroke-linecap: round"/>
    <path d="M 162.547952 237.606227 
L 162.958091 242.059516 
L 159.149376 239.715654 
z
" clip-path="url(#p5986f838e8)" style="stroke: #000000; stroke-linecap: round"/>
   </g>
   <g id="patch_39">
    <path d="M 119.753479 169.679697 
Q 143.638652 173.533696 166.420066 177.209597 
" clip-path="url(#p5986f838e8)" style="fill: none; stroke: #000000; stroke-linecap: round"/>
    <path d="M 162.789732 174.597955 
L 166.420066 177.209597 
L 162.152552 178.546879 
z
" clip-path="url(#p5986f838e8)" style="stroke: #000000; stroke-linecap: round"/>
   </g>
   <g id="patch_40">
    <path d="M 119.768405 169.140391 
Q 186.908389 161.094114 252.938283 153.180875 
" clip-path="url(#p5986f838e8)" style="fill: none; stroke: #000000; stroke-linecap: round"/>
    <path d="M 248.728718 151.671052 
L 252.938283 153.180875 
L 249.204685 155.642633 
z
" clip-path="url(#p5986f838e8)" style="stroke: #000000; stroke-linecap: round"/>
   </g>
   <g id="patch_41">
    <path d="M 217.043579 225.712671 
Q 202.811471 251.568332 189.118499 276.444537 
" clip-path="url(#p5986f838e8)" style="fill: none; stroke: #000000; stroke-linecap: round"/>
    <path d="M 192.799473 273.904767 
L 189.118499 276.444537 
L 189.295267 271.975896 
z
" clip-path="url(#p5986f838e8)" style="stroke: #000000; stroke-linecap: round"/>
   </g>
   <g id="patch_42">
    <path d="M 218.461276 225.891931 
Q 225.687242 254.002145 232.634858 281.02953 
" clip-path="url(#p5986f838e8)" style="fill: none; stroke: #000000; stroke-linecap: round"/>
    <path d="M 233.576026 276.65755 
L 232.634858 281.02953 
L 229.701975 277.653408 
z
" clip-path="url(#p5986f838e8)" style="stroke: #000000; stroke-linecap: round"/>
   </g>
   <g id="patch_43">
    <path d="M 216.57719 222.676908 
Q 193.707844 200.855179 171.647377 179.805275 
" clip-path="url(#p5986f838e8)" style="fill: none; stroke: #000000; stroke-linecap: round"/>
    <path d="M 173.160628 184.013608 
L 171.647377 179.805275 
L 175.921995 181.119674 
z
" clip-path="url(#p5986f838e8)" style="stroke: #000000; stroke-linecap: round"/>
   </g>
   <g id="patch_44">
    <path d="M 218.889922 222.306294 
Q 236.975339 188.416363 254.534379 155.512802 
" clip-path="url(#p5986f838e8)" style="fill: none; stroke: #000000; stroke-linecap: round"/>
    <path d="M 250.886679 158.100134 
L 254.534379 155.512802 
L 254.415624 159.983361 
z
" clip-path="url(#p5986f838e8)" style="stroke: #000000; stroke-linecap: round"/>
   </g>
   <g id="patch_45">
    <path d="M 170.923705 176.4533 
Q 189.045861 161.296906 206.310391 146.857784 
" clip-path="url(#p5986f838e8)" style="fill: none; stroke: #000000; stroke-linecap: round"/>
    <path d="M 201.958962 147.889806 
L 206.310391 146.857784 
L 204.525152 150.95814 
z
" clip-path="url(#p5986f838e8)" style="stroke: #000000; stroke-linecap: round"/>
   </g>
   <g id="patch_46">
    <path d="M 171.263883 178.350077 
Q 183.423912 182.701491 194.531276 186.676214 
" clip-path="url(#p5986f838e8)" style="fill: none; stroke: #000000; stroke-linecap: round"/>
    <path d="M 191.438994 183.445457 
L 194.531276 186.676214 
L 190.091301 187.211585 
z
" clip-path="url(#p5986f838e8)" style="stroke: #000000; stroke-linecap: round"/>
   </g>
   <g id="patch_47">
    <path d="M 167.751702 178.646109 
Q 143.236021 192.458163 119.694418 205.721426 
" clip-path="url(#p5986f838e8)" style="fill: none; stroke: #000000; stroke-linecap: round"/>
    <path d="M 124.161093 205.50049 
L 119.694418 205.721426 
L 122.197674 202.015524 
z
" clip-path="url(#p5986f838e8)" style="stroke: #000000; stroke-linecap: round"/>
   </g>
   <g id="patch_48">
    <path d="M 169.296792 179.629562 
Q 167.003696 211.176687 164.791653 241.608719 
" clip-path="url(#p5986f838e8)" style="fill: none; stroke: #000000; stroke-linecap: round"/>
    <path d="M 167.076377 237.764238 
L 164.791653 241.608719 
L 163.086902 237.474251 
z
" clip-path="url(#p5986f838e8)" style="stroke: #000000; stroke-linecap: round"/>
   </g>
   <g id="patch_49">
    <path d="M 167.525785 177.38801 
Q 143.640612 173.534012 120.859197 169.858111 
" clip-path="url(#p5986f838e8)" style="fill: none; stroke: #000000; stroke-linecap: round"/>
    <path d="M 124.489531 172.469752 
L 120.859197 169.858111 
L 125.126711 168.520828 
z
" clip-path="url(#p5986f838e8)" style="stroke: #000000; stroke-linecap: round"/>
   </g>
   <g id="patch_50">
    <path d="M 170.838674 179.033617 
Q 193.708021 200.855347 215.768488 221.905251 
" clip-path="url(#p5986f838e8)" style="fill: none; stroke: #000000; stroke-linecap: round"/>
    <path d="M 214.255237 217.696917 
L 215.768488 221.905251 
L 211.49387 220.590851 
z
" clip-path="url(#p5986f838e8)" style="stroke: #000000; stroke-linecap: round"/>
   </g>
   <g id="patch_51">
    <path d="M 170.003272 175.842639 
Q 181.884478 136.926028 193.439225 99.078727 
" clip-path="url(#p5986f838e8)" style="fill: none; stroke: #000000; stroke-linecap: round"/>
    <path d="M 190.358408 102.320419 
L 193.439225 99.078727 
L 194.184089 103.488396 
z
" clip-path="url(#p5986f838e8)" style="stroke: #000000; stroke-linecap: round"/>
   </g>
   <g id="patch_52">
    <path d="M 257.910066 152.724504 
Q 291.006331 151.140869 322.98584 149.61067 
" clip-path="url(#p5986f838e8)" style="fill: none; stroke: #000000; stroke-linecap: round"/>
    <path d="M 318.894822 147.804134 
L 322.98584 149.61067 
L 319.086001 151.799563 
z
" clip-path="url(#p5986f838e8)" style="stroke: #000000; stroke-linecap: round"/>
   </g>
   <g id="patch_53">
    <path d="M 254.063822 152.497714 
Q 232.313412 148.857779 211.665701 145.402382 
" clip-path="url(#p5986f838e8)" style="fill: none; stroke: #000000; stroke-linecap: round"/>
    <path d="M 215.280729 148.03517 
L 211.665701 145.402382 
L 215.940948 144.090033 
z
" clip-path="url(#p5986f838e8)" style="stroke: #000000; stroke-linecap: round"/>
   </g>
   <g id="patch_54">
    <path d="M 257.634956 151.818389 
Q 283.041611 136.550398 307.489959 121.858295 
" clip-path="url(#p5986f838e8)" style="fill: none; stroke: #000000; stroke-linecap: round"/>
    <path d="M 303.031235 122.204388 
L 307.489959 121.858295 
L 305.091599 125.63293 
z
" clip-path="url(#p5986f838e8)" style="stroke: #000000; stroke-linecap: round"/>
   </g>
   <g id="patch_55">
    <path d="M 256.180012 150.893718 
Q 259.192369 122.91836 262.08503 96.05461 
" clip-path="url(#p5986f838e8)" style="fill: none; stroke: #000000; stroke-linecap: round"/>
    <path d="M 259.668284 99.8175 
L 262.08503 96.05461 
L 263.645295 100.24574 
z
" clip-path="url(#p5986f838e8)" style="stroke: #000000; stroke-linecap: round"/>
   </g>
   <g id="patch_56">
    <path d="M 257.044953 151.200869 
Q 275.708924 123.061493 293.754914 95.853836 
" clip-path="url(#p5986f838e8)" style="fill: none; stroke: #000000; stroke-linecap: round"/>
    <path d="M 289.877251 98.081779 
L 293.754914 95.853836 
L 293.210671 100.292732 
z
" clip-path="url(#p5986f838e8)" style="stroke: #000000; stroke-linecap: round"/>
   </g>
   <g id="patch_57">
    <path d="M 257.7706 153.531701 
Q 286.847273 165.088313 314.884968 176.23198 
" clip-path="url(#p5986f838e8)" style="fill: none; stroke: #000000; stroke-linecap: round"/>
    <path d="M 311.906504 172.896001 
L 314.884968 176.23198 
L 310.429106 176.613163 
z
" clip-path="url(#p5986f838e8)" style="stroke: #000000; stroke-linecap: round"/>
   </g>
   <g id="patch_58">
    <path d="M 257.761882 152.079485 
Q 305.399279 132.435592 352.003072 113.217919 
" clip-path="url(#p5986f838e8)" style="fill: none; stroke: #000000; stroke-linecap: round"/>
    <path d="M 347.542693 112.893843 
L 352.003072 113.217919 
L 349.067584 116.591776 
z
" clip-path="url(#p5986f838e8)" style="stroke: #000000; stroke-linecap: round"/>
   </g>
   <g id="patch_59">
    <path d="M 254.046446 153.048069 
Q 186.906461 161.094345 120.876568 169.007585 
" clip-path="url(#p5986f838e8)" style="fill: none; stroke: #000000; stroke-linecap: round"/>
    <path d="M 125.086132 170.517408 
L 120.876568 169.007585 
L 124.610165 166.545827 
z
" clip-path="url(#p5986f838e8)" style="stroke: #000000; stroke-linecap: round"/>
   </g>
   <g id="patch_60">
    <path d="M 255.06153 154.524984 
Q 236.976112 188.414915 219.417073 221.318476 
" clip-path="url(#p5986f838e8)" style="fill: none; stroke: #000000; stroke-linecap: round"/>
    <path d="M 223.064773 218.731144 
L 219.417073 221.318476 
L 219.535827 216.847917 
z
" clip-path="url(#p5986f838e8)" style="stroke: #000000; stroke-linecap: round"/>
   </g>
   <g id="patch_61">
    <path d="M 256.296331 154.72446 
Q 264.344065 202.180818 272.20487 248.534879 
" clip-path="url(#p5986f838e8)" style="fill: none; stroke: #000000; stroke-linecap: round"/>
    <path d="M 273.507939 244.256794 
L 272.20487 248.534879 
L 269.564244 244.925573 
z
" clip-path="url(#p5986f838e8)" style="stroke: #000000; stroke-linecap: round"/>
   </g>
   <g id="patch_62">
    <path d="M 254.548847 151.508287 
Q 225.150949 124.487262 196.576196 98.22283 
" clip-path="url(#p5986f838e8)" style="fill: none; stroke: #000000; stroke-linecap: round"/>
    <path d="M 198.167736 102.402184 
L 196.576196 98.22283 
L 200.874604 99.45721 
z
" clip-path="url(#p5986f838e8)" style="stroke: #000000; stroke-linecap: round"/>
   </g>
   <g id="patch_63">
    <path d="M 273.349182 253.382739 
Q 283.776883 283.582898 293.839682 312.726248 
" clip-path="url(#p5986f838e8)" style="fill: none; stroke: #000000; stroke-linecap: round"/>
    <path d="M 294.424648 308.292534 
L 293.839682 312.726248 
L 290.643691 309.598047 
z
" clip-path="url(#p5986f838e8)" style="stroke: #000000; stroke-linecap: round"/>
   </g>
   <g id="patch_64">
    <path d="M 274.566725 252.114194 
Q 307.251727 262.096564 338.867452 271.752366 
" clip-path="url(#p5986f838e8)" style="fill: none; stroke: #000000; stroke-linecap: round"/>
    <path d="M 335.626076 268.671216 
L 338.867452 271.752366 
L 334.457706 272.496776 
z
" clip-path="url(#p5986f838e8)" style="stroke: #000000; stroke-linecap: round"/>
   </g>
   <g id="patch_65">
    <path d="M 274.139561 252.857133 
Q 299.280556 275.960328 323.598322 298.307021 
" clip-path="url(#p5986f838e8)" style="fill: none; stroke: #000000; stroke-linecap: round"/>
    <path d="M 322.006322 294.127842 
L 323.598322 298.307021 
L 319.299779 297.073114 
z
" clip-path="url(#p5986f838e8)" style="stroke: #000000; stroke-linecap: round"/>
   </g>
   <g id="patch_66">
    <path d="M 270.785299 251.425916 
Q 218.645268 248.102965 167.621007 244.851124 
" clip-path="url(#p5986f838e8)" style="fill: none; stroke: #000000; stroke-linecap: round"/>
    <path d="M 171.485703 247.101483 
L 167.621007 244.851124 
L 171.740112 243.109582 
z
" clip-path="url(#p5986f838e8)" style="stroke: #000000; stroke-linecap: round"/>
   </g>
   <g id="patch_67">
    <path d="M 272.392567 249.641699 
Q 264.344832 202.185342 256.484027 155.831281 
" clip-path="url(#p5986f838e8)" style="fill: none; stroke: #000000; stroke-linecap: round"/>
    <path d="M 255.180958 160.109366 
L 256.484027 155.831281 
L 259.124654 159.440587 
z
" clip-path="url(#p5986f838e8)" style="stroke: #000000; stroke-linecap: round"/>
   </g>
   <g id="patch_68">
    <path d="M 194.482332 94.224351 
Q 196.924652 63.073632 199.279583 33.037527 
" clip-path="url(#p5986f838e8)" style="fill: none; stroke: #000000; stroke-linecap: round"/>
    <path d="M 196.973048 36.868962 
L 199.279583 33.037527 
L 200.96081 37.181616 
z
" clip-path="url(#p5986f838e8)" style="stroke: #000000; stroke-linecap: round"/>
   </g>
   <g id="patch_69">
    <path d="M 193.379109 94.472117 
Q 177.988399 67.190366 163.147031 40.882382 
" clip-path="url(#p5986f838e8)" style="fill: none; stroke: #000000; stroke-linecap: round"/>
    <path d="M 163.370484 45.348932 
L 163.147031 40.882382 
L 166.854343 43.38355 
z
" clip-path="url(#p5986f838e8)" style="stroke: #000000; stroke-linecap: round"/>
   </g>
   <g id="patch_70">
    <path d="M 193.764696 98.012656 
Q 181.883489 136.929267 170.328742 174.776568 
" clip-path="url(#p5986f838e8)" style="fill: none; stroke: #000000; stroke-linecap: round"/>
    <path d="M 173.409559 171.534876 
L 170.328742 174.776568 
L 169.583879 170.366899 
z
" clip-path="url(#p5986f838e8)" style="stroke: #000000; stroke-linecap: round"/>
   </g>
   <g id="patch_71">
    <path d="M 195.754708 97.46776 
Q 225.152606 124.488785 253.727358 150.753217 
" clip-path="url(#p5986f838e8)" style="fill: none; stroke: #000000; stroke-linecap: round"/>
    <path d="M 252.135818 146.573863 
L 253.727358 150.753217 
L 249.428951 149.518837 
z
" clip-path="url(#p5986f838e8)" style="stroke: #000000; stroke-linecap: round"/>
   </g>
   <g id="PathCollection_1">
    <defs>
     <path id="mead75eaf00" d="M 0 1.936492 
C 0.513564 1.936492 1.006162 1.732451 1.369306 1.369306 
C 1.732451 1.006162 1.936492 0.513564 1.936492 0 
C 1.936492 -0.513564 1.732451 -1.006162 1.369306 -1.369306 
C 1.006162 -1.732451 0.513564 -1.936492 0 -1.936492 
C -0.513564 -1.936492 -1.006162 -1.732451 -1.369306 -1.369306 
C -1.732451 -1.006162 -1.936492 -0.513564 -1.936492 0 
C -1.936492 0.513564 -1.732451 1.006162 -1.369306 1.369306 
C -1.006162 1.732451 -0.513564 1.936492 0 1.936492 
z
" style="stroke: #1f78b4"/>
    </defs>
    <g clip-path="url(#p5986f838e8)">
     <use xlink:href="#mead75eaf00" x="39.986777" y="154.500586" style="fill: #1f78b4; stroke: #1f78b4"/>
     <use xlink:href="#mead75eaf00" x="54.075298" y="131.27206" style="fill: #1f78b4; stroke: #1f78b4"/>
     <use xlink:href="#mead75eaf00" x="53.303249" y="206.035011" style="fill: #1f78b4; stroke: #1f78b4"/>
     <use xlink:href="#mead75eaf00" x="80.84331" y="115.982986" style="fill: #1f78b4; stroke: #1f78b4"/>
     <use xlink:href="#mead75eaf00" x="294.835374" y="315.609917" style="fill: #1f78b4; stroke: #1f78b4"/>
     <use xlink:href="#mead75eaf00" x="341.787094" y="272.644058" style="fill: #1f78b4; stroke: #1f78b4"/>
     <use xlink:href="#mead75eaf00" x="112.9122" y="294.297827" style="fill: #1f78b4; stroke: #1f78b4"/>
     <use xlink:href="#mead75eaf00" x="325.844834" y="300.371442" style="fill: #1f78b4; stroke: #1f78b4"/>
     <use xlink:href="#mead75eaf00" x="199.518512" y="29.990083" style="fill: #1f78b4; stroke: #1f78b4"/>
     <use xlink:href="#mead75eaf00" x="161.646726" y="38.222924" style="fill: #1f78b4; stroke: #1f78b4"/>
     <use xlink:href="#mead75eaf00" x="326.036105" y="149.464717" style="fill: #1f78b4; stroke: #1f78b4"/>
     <use xlink:href="#mead75eaf00" x="208.653345" y="144.898264" style="fill: #1f78b4; stroke: #1f78b4"/>
     <use xlink:href="#mead75eaf00" x="310.110548" y="120.283467" style="fill: #1f78b4; stroke: #1f78b4"/>
     <use xlink:href="#mead75eaf00" x="262.412029" y="93.017808" style="fill: #1f78b4; stroke: #1f78b4"/>
     <use xlink:href="#mead75eaf00" x="295.443961" y="93.307288" style="fill: #1f78b4; stroke: #1f78b4"/>
     <use xlink:href="#mead75eaf00" x="317.720542" y="177.358987" style="fill: #1f78b4; stroke: #1f78b4"/>
     <use xlink:href="#mead75eaf00" x="420.813223" y="83.891162" style="fill: #1f78b4; stroke: #1f78b4"/>
     <use xlink:href="#mead75eaf00" x="197.406111" y="187.704961" style="fill: #1f78b4; stroke: #1f78b4"/>
     <use xlink:href="#mead75eaf00" x="117.033233" y="207.220728" style="fill: #1f78b4; stroke: #1f78b4"/>
     <use xlink:href="#mead75eaf00" x="187.644492" y="279.122385" style="fill: #1f78b4; stroke: #1f78b4"/>
     <use xlink:href="#mead75eaf00" x="233.395395" y="283.988147" style="fill: #1f78b4; stroke: #1f78b4"/>
     <use xlink:href="#mead75eaf00" x="354.828836" y="112.052679" style="fill: #1f78b4; stroke: #1f78b4"/>
     <use xlink:href="#mead75eaf00" x="42.038615" y="180.140922" style="fill: #1f78b4; stroke: #1f78b4"/>
     <use xlink:href="#mead75eaf00" x="146.673132" y="311.954825" style="fill: #1f78b4; stroke: #1f78b4"/>
     <use xlink:href="#mead75eaf00" x="164.570102" y="244.656686" style="fill: #1f78b4; stroke: #1f78b4"/>
     <use xlink:href="#mead75eaf00" x="117.841957" y="169.371263" style="fill: #1f78b4; stroke: #1f78b4"/>
     <use xlink:href="#mead75eaf00" x="217.978558" y="224.014081" style="fill: #1f78b4; stroke: #1f78b4"/>
     <use xlink:href="#mead75eaf00" x="169.437307" y="177.696444" style="fill: #1f78b4; stroke: #1f78b4"/>
     <use xlink:href="#mead75eaf00" x="255.972893" y="152.817197" style="fill: #1f78b4; stroke: #1f78b4"/>
     <use xlink:href="#mead75eaf00" x="272.716004" y="251.548963" style="fill: #1f78b4; stroke: #1f78b4"/>
     <use xlink:href="#mead75eaf00" x="194.330661" y="96.15885" style="fill: #1f78b4; stroke: #1f78b4"/>
    </g>
   </g>
   <g id="text_1">
    <g clip-path="url(#p5986f838e8)">
     <!-- 0 -->
     <g transform="translate(36.805527 157.259961) scale(0.1 -0.1)">
      <defs>
       <path id="DejaVuSans-30" d="M 2034 4250 
Q 1547 4250 1301 3770 
Q 1056 3291 1056 2328 
Q 1056 1369 1301 889 
Q 1547 409 2034 409 
Q 2525 409 2770 889 
Q 3016 1369 3016 2328 
Q 3016 3291 2770 3770 
Q 2525 4250 2034 4250 
z
M 2034 4750 
Q 2819 4750 3233 4129 
Q 3647 3509 3647 2328 
Q 3647 1150 3233 529 
Q 2819 -91 2034 -91 
Q 1250 -91 836 529 
Q 422 1150 422 2328 
Q 422 3509 836 4129 
Q 1250 4750 2034 4750 
z
" transform="scale(0.015625)"/>
      </defs>
      <use xlink:href="#DejaVuSans-30"/>
     </g>
    </g>
   </g>
   <g id="text_2">
    <g clip-path="url(#p5986f838e8)">
     <!-- 1 -->
     <g transform="translate(50.894048 134.031435) scale(0.1 -0.1)">
      <defs>
       <path id="DejaVuSans-31" d="M 794 531 
L 1825 531 
L 1825 4091 
L 703 3866 
L 703 4441 
L 1819 4666 
L 2450 4666 
L 2450 531 
L 3481 531 
L 3481 0 
L 794 0 
L 794 531 
z
" transform="scale(0.015625)"/>
      </defs>
      <use xlink:href="#DejaVuSans-31"/>
     </g>
    </g>
   </g>
   <g id="text_3">
    <g clip-path="url(#p5986f838e8)">
     <!-- 2 -->
     <g transform="translate(50.121999 208.794386) scale(0.1 -0.1)">
      <defs>
       <path id="DejaVuSans-32" d="M 1228 531 
L 3431 531 
L 3431 0 
L 469 0 
L 469 531 
Q 828 903 1448 1529 
Q 2069 2156 2228 2338 
Q 2531 2678 2651 2914 
Q 2772 3150 2772 3378 
Q 2772 3750 2511 3984 
Q 2250 4219 1831 4219 
Q 1534 4219 1204 4116 
Q 875 4013 500 3803 
L 500 4441 
Q 881 4594 1212 4672 
Q 1544 4750 1819 4750 
Q 2544 4750 2975 4387 
Q 3406 4025 3406 3419 
Q 3406 3131 3298 2873 
Q 3191 2616 2906 2266 
Q 2828 2175 2409 1742 
Q 1991 1309 1228 531 
z
" transform="scale(0.015625)"/>
      </defs>
      <use xlink:href="#DejaVuSans-32"/>
     </g>
    </g>
   </g>
   <g id="text_4">
    <g clip-path="url(#p5986f838e8)">
     <!-- 3 -->
     <g transform="translate(77.66206 118.742361) scale(0.1 -0.1)">
      <defs>
       <path id="DejaVuSans-33" d="M 2597 2516 
Q 3050 2419 3304 2112 
Q 3559 1806 3559 1356 
Q 3559 666 3084 287 
Q 2609 -91 1734 -91 
Q 1441 -91 1130 -33 
Q 819 25 488 141 
L 488 750 
Q 750 597 1062 519 
Q 1375 441 1716 441 
Q 2309 441 2620 675 
Q 2931 909 2931 1356 
Q 2931 1769 2642 2001 
Q 2353 2234 1838 2234 
L 1294 2234 
L 1294 2753 
L 1863 2753 
Q 2328 2753 2575 2939 
Q 2822 3125 2822 3475 
Q 2822 3834 2567 4026 
Q 2313 4219 1838 4219 
Q 1578 4219 1281 4162 
Q 984 4106 628 3988 
L 628 4550 
Q 988 4650 1302 4700 
Q 1616 4750 1894 4750 
Q 2613 4750 3031 4423 
Q 3450 4097 3450 3541 
Q 3450 3153 3228 2886 
Q 3006 2619 2597 2516 
z
" transform="scale(0.015625)"/>
      </defs>
      <use xlink:href="#DejaVuSans-33"/>
     </g>
    </g>
   </g>
   <g id="text_5">
    <g clip-path="url(#p5986f838e8)">
     <!-- 4 -->
     <g transform="translate(291.654124 318.369292) scale(0.1 -0.1)">
      <defs>
       <path id="DejaVuSans-34" d="M 2419 4116 
L 825 1625 
L 2419 1625 
L 2419 4116 
z
M 2253 4666 
L 3047 4666 
L 3047 1625 
L 3713 1625 
L 3713 1100 
L 3047 1100 
L 3047 0 
L 2419 0 
L 2419 1100 
L 313 1100 
L 313 1709 
L 2253 4666 
z
" transform="scale(0.015625)"/>
      </defs>
      <use xlink:href="#DejaVuSans-34"/>
     </g>
    </g>
   </g>
   <g id="text_6">
    <g clip-path="url(#p5986f838e8)">
     <!-- 5 -->
     <g transform="translate(338.605844 275.403433) scale(0.1 -0.1)">
      <defs>
       <path id="DejaVuSans-35" d="M 691 4666 
L 3169 4666 
L 3169 4134 
L 1269 4134 
L 1269 2991 
Q 1406 3038 1543 3061 
Q 1681 3084 1819 3084 
Q 2600 3084 3056 2656 
Q 3513 2228 3513 1497 
Q 3513 744 3044 326 
Q 2575 -91 1722 -91 
Q 1428 -91 1123 -41 
Q 819 9 494 109 
L 494 744 
Q 775 591 1075 516 
Q 1375 441 1709 441 
Q 2250 441 2565 725 
Q 2881 1009 2881 1497 
Q 2881 1984 2565 2268 
Q 2250 2553 1709 2553 
Q 1456 2553 1204 2497 
Q 953 2441 691 2322 
L 691 4666 
z
" transform="scale(0.015625)"/>
      </defs>
      <use xlink:href="#DejaVuSans-35"/>
     </g>
    </g>
   </g>
   <g id="text_7">
    <g clip-path="url(#p5986f838e8)">
     <!-- 6 -->
     <g transform="translate(109.73095 297.057202) scale(0.1 -0.1)">
      <defs>
       <path id="DejaVuSans-36" d="M 2113 2584 
Q 1688 2584 1439 2293 
Q 1191 2003 1191 1497 
Q 1191 994 1439 701 
Q 1688 409 2113 409 
Q 2538 409 2786 701 
Q 3034 994 3034 1497 
Q 3034 2003 2786 2293 
Q 2538 2584 2113 2584 
z
M 3366 4563 
L 3366 3988 
Q 3128 4100 2886 4159 
Q 2644 4219 2406 4219 
Q 1781 4219 1451 3797 
Q 1122 3375 1075 2522 
Q 1259 2794 1537 2939 
Q 1816 3084 2150 3084 
Q 2853 3084 3261 2657 
Q 3669 2231 3669 1497 
Q 3669 778 3244 343 
Q 2819 -91 2113 -91 
Q 1303 -91 875 529 
Q 447 1150 447 2328 
Q 447 3434 972 4092 
Q 1497 4750 2381 4750 
Q 2619 4750 2861 4703 
Q 3103 4656 3366 4563 
z
" transform="scale(0.015625)"/>
      </defs>
      <use xlink:href="#DejaVuSans-36"/>
     </g>
    </g>
   </g>
   <g id="text_8">
    <g clip-path="url(#p5986f838e8)">
     <!-- 7 -->
     <g transform="translate(322.663584 303.130817) scale(0.1 -0.1)">
      <defs>
       <path id="DejaVuSans-37" d="M 525 4666 
L 3525 4666 
L 3525 4397 
L 1831 0 
L 1172 0 
L 2766 4134 
L 525 4134 
L 525 4666 
z
" transform="scale(0.015625)"/>
      </defs>
      <use xlink:href="#DejaVuSans-37"/>
     </g>
    </g>
   </g>
   <g id="text_9">
    <g clip-path="url(#p5986f838e8)">
     <!-- 8 -->
     <g transform="translate(196.337262 32.749458) scale(0.1 -0.1)">
      <defs>
       <path id="DejaVuSans-38" d="M 2034 2216 
Q 1584 2216 1326 1975 
Q 1069 1734 1069 1313 
Q 1069 891 1326 650 
Q 1584 409 2034 409 
Q 2484 409 2743 651 
Q 3003 894 3003 1313 
Q 3003 1734 2745 1975 
Q 2488 2216 2034 2216 
z
M 1403 2484 
Q 997 2584 770 2862 
Q 544 3141 544 3541 
Q 544 4100 942 4425 
Q 1341 4750 2034 4750 
Q 2731 4750 3128 4425 
Q 3525 4100 3525 3541 
Q 3525 3141 3298 2862 
Q 3072 2584 2669 2484 
Q 3125 2378 3379 2068 
Q 3634 1759 3634 1313 
Q 3634 634 3220 271 
Q 2806 -91 2034 -91 
Q 1263 -91 848 271 
Q 434 634 434 1313 
Q 434 1759 690 2068 
Q 947 2378 1403 2484 
z
M 1172 3481 
Q 1172 3119 1398 2916 
Q 1625 2713 2034 2713 
Q 2441 2713 2670 2916 
Q 2900 3119 2900 3481 
Q 2900 3844 2670 4047 
Q 2441 4250 2034 4250 
Q 1625 4250 1398 4047 
Q 1172 3844 1172 3481 
z
" transform="scale(0.015625)"/>
      </defs>
      <use xlink:href="#DejaVuSans-38"/>
     </g>
    </g>
   </g>
   <g id="text_10">
    <g clip-path="url(#p5986f838e8)">
     <!-- 9 -->
     <g transform="translate(158.465476 40.982299) scale(0.1 -0.1)">
      <defs>
       <path id="DejaVuSans-39" d="M 703 97 
L 703 672 
Q 941 559 1184 500 
Q 1428 441 1663 441 
Q 2288 441 2617 861 
Q 2947 1281 2994 2138 
Q 2813 1869 2534 1725 
Q 2256 1581 1919 1581 
Q 1219 1581 811 2004 
Q 403 2428 403 3163 
Q 403 3881 828 4315 
Q 1253 4750 1959 4750 
Q 2769 4750 3195 4129 
Q 3622 3509 3622 2328 
Q 3622 1225 3098 567 
Q 2575 -91 1691 -91 
Q 1453 -91 1209 -44 
Q 966 3 703 97 
z
M 1959 2075 
Q 2384 2075 2632 2365 
Q 2881 2656 2881 3163 
Q 2881 3666 2632 3958 
Q 2384 4250 1959 4250 
Q 1534 4250 1286 3958 
Q 1038 3666 1038 3163 
Q 1038 2656 1286 2365 
Q 1534 2075 1959 2075 
z
" transform="scale(0.015625)"/>
      </defs>
      <use xlink:href="#DejaVuSans-39"/>
     </g>
    </g>
   </g>
   <g id="text_11">
    <g clip-path="url(#p5986f838e8)">
     <!-- 10 -->
     <g transform="translate(319.673605 152.224092) scale(0.1 -0.1)">
      <use xlink:href="#DejaVuSans-31"/>
      <use xlink:href="#DejaVuSans-30" x="63.623047"/>
     </g>
    </g>
   </g>
   <g id="text_12">
    <g clip-path="url(#p5986f838e8)">
     <!-- 11 -->
     <g transform="translate(202.290845 147.657639) scale(0.1 -0.1)">
      <use xlink:href="#DejaVuSans-31"/>
      <use xlink:href="#DejaVuSans-31" x="63.623047"/>
     </g>
    </g>
   </g>
   <g id="text_13">
    <g clip-path="url(#p5986f838e8)">
     <!-- 12 -->
     <g transform="translate(303.748048 123.042842) scale(0.1 -0.1)">
      <use xlink:href="#DejaVuSans-31"/>
      <use xlink:href="#DejaVuSans-32" x="63.623047"/>
     </g>
    </g>
   </g>
   <g id="text_14">
    <g clip-path="url(#p5986f838e8)">
     <!-- 13 -->
     <g transform="translate(256.049529 95.777183) scale(0.1 -0.1)">
      <use xlink:href="#DejaVuSans-31"/>
      <use xlink:href="#DejaVuSans-33" x="63.623047"/>
     </g>
    </g>
   </g>
   <g id="text_15">
    <g clip-path="url(#p5986f838e8)">
     <!-- 14 -->
     <g transform="translate(289.081461 96.066663) scale(0.1 -0.1)">
      <use xlink:href="#DejaVuSans-31"/>
      <use xlink:href="#DejaVuSans-34" x="63.623047"/>
     </g>
    </g>
   </g>
   <g id="text_16">
    <g clip-path="url(#p5986f838e8)">
     <!-- 15 -->
     <g transform="translate(311.358042 180.118362) scale(0.1 -0.1)">
      <use xlink:href="#DejaVuSans-31"/>
      <use xlink:href="#DejaVuSans-35" x="63.623047"/>
     </g>
    </g>
   </g>
   <g id="text_17">
    <g clip-path="url(#p5986f838e8)">
     <!-- 16 -->
     <g transform="translate(414.450723 86.650537) scale(0.1 -0.1)">
      <use xlink:href="#DejaVuSans-31"/>
      <use xlink:href="#DejaVuSans-36" x="63.623047"/>
     </g>
    </g>
   </g>
   <g id="text_18">
    <g clip-path="url(#p5986f838e8)">
     <!-- 17 -->
     <g transform="translate(191.043611 190.464336) scale(0.1 -0.1)">
      <use xlink:href="#DejaVuSans-31"/>
      <use xlink:href="#DejaVuSans-37" x="63.623047"/>
     </g>
    </g>
   </g>
   <g id="text_19">
    <g clip-path="url(#p5986f838e8)">
     <!-- 18 -->
     <g transform="translate(110.670733 209.980103) scale(0.1 -0.1)">
      <use xlink:href="#DejaVuSans-31"/>
      <use xlink:href="#DejaVuSans-38" x="63.623047"/>
     </g>
    </g>
   </g>
   <g id="text_20">
    <g clip-path="url(#p5986f838e8)">
     <!-- 19 -->
     <g transform="translate(181.281992 281.88176) scale(0.1 -0.1)">
      <use xlink:href="#DejaVuSans-31"/>
      <use xlink:href="#DejaVuSans-39" x="63.623047"/>
     </g>
    </g>
   </g>
   <g id="text_21">
    <g clip-path="url(#p5986f838e8)">
     <!-- 20 -->
     <g transform="translate(227.032895 286.747522) scale(0.1 -0.1)">
      <use xlink:href="#DejaVuSans-32"/>
      <use xlink:href="#DejaVuSans-30" x="63.623047"/>
     </g>
    </g>
   </g>
   <g id="text_22">
    <g clip-path="url(#p5986f838e8)">
     <!-- 21 -->
     <g transform="translate(348.466336 114.812054) scale(0.1 -0.1)">
      <use xlink:href="#DejaVuSans-32"/>
      <use xlink:href="#DejaVuSans-31" x="63.623047"/>
     </g>
    </g>
   </g>
   <g id="text_23">
    <g clip-path="url(#p5986f838e8)">
     <!-- 22 -->
     <g transform="translate(35.676115 182.900297) scale(0.1 -0.1)">
      <use xlink:href="#DejaVuSans-32"/>
      <use xlink:href="#DejaVuSans-32" x="63.623047"/>
     </g>
    </g>
   </g>
   <g id="text_24">
    <g clip-path="url(#p5986f838e8)">
     <!-- 23 -->
     <g transform="translate(140.310632 314.7142) scale(0.1 -0.1)">
      <use xlink:href="#DejaVuSans-32"/>
      <use xlink:href="#DejaVuSans-33" x="63.623047"/>
     </g>
    </g>
   </g>
   <g id="text_25">
    <g clip-path="url(#p5986f838e8)">
     <!-- 24 -->
     <g transform="translate(158.207602 247.416061) scale(0.1 -0.1)">
      <use xlink:href="#DejaVuSans-32"/>
      <use xlink:href="#DejaVuSans-34" x="63.623047"/>
     </g>
    </g>
   </g>
   <g id="text_26">
    <g clip-path="url(#p5986f838e8)">
     <!-- 25 -->
     <g transform="translate(111.479457 172.130638) scale(0.1 -0.1)">
      <use xlink:href="#DejaVuSans-32"/>
      <use xlink:href="#DejaVuSans-35" x="63.623047"/>
     </g>
    </g>
   </g>
   <g id="text_27">
    <g clip-path="url(#p5986f838e8)">
     <!-- 26 -->
     <g transform="translate(211.616058 226.773456) scale(0.1 -0.1)">
      <use xlink:href="#DejaVuSans-32"/>
      <use xlink:href="#DejaVuSans-36" x="63.623047"/>
     </g>
    </g>
   </g>
   <g id="text_28">
    <g clip-path="url(#p5986f838e8)">
     <!-- 27 -->
     <g transform="translate(163.074807 180.455819) scale(0.1 -0.1)">
      <use xlink:href="#DejaVuSans-32"/>
      <use xlink:href="#DejaVuSans-37" x="63.623047"/>
     </g>
    </g>
   </g>
   <g id="text_29">
    <g clip-path="url(#p5986f838e8)">
     <!-- 28 -->
     <g transform="translate(249.610393 155.576572) scale(0.1 -0.1)">
      <use xlink:href="#DejaVuSans-32"/>
      <use xlink:href="#DejaVuSans-38" x="63.623047"/>
     </g>
    </g>
   </g>
   <g id="text_30">
    <g clip-path="url(#p5986f838e8)">
     <!-- 29 -->
     <g transform="translate(266.353504 254.308338) scale(0.1 -0.1)">
      <use xlink:href="#DejaVuSans-32"/>
      <use xlink:href="#DejaVuSans-39" x="63.623047"/>
     </g>
    </g>
   </g>
   <g id="text_31">
    <g clip-path="url(#p5986f838e8)">
     <!-- 30 -->
     <g transform="translate(187.968161 98.918225) scale(0.1 -0.1)">
      <use xlink:href="#DejaVuSans-33"/>
      <use xlink:href="#DejaVuSans-30" x="63.623047"/>
     </g>
    </g>
   </g>
  </g>
 </g>
 <defs>
  <clipPath id="p5986f838e8">
   <rect x="0" y="0" width="460.8" height="345.6"/>
  </clipPath>
 </defs>
</svg>
