<?xml version="1.0" encoding="utf-8" standalone="no"?>
<!DOCTYPE svg PUBLIC "-//W3C//DTD SVG 1.1//EN"
  "http://www.w3.org/Graphics/SVG/1.1/DTD/svg11.dtd">
<svg xmlns:xlink="http://www.w3.org/1999/xlink" width="460.8pt" height="345.6pt" viewBox="0 0 460.8 345.6" xmlns="http://www.w3.org/2000/svg" version="1.1">
 <metadata>
  <rdf:RDF xmlns:dc="http://purl.org/dc/elements/1.1/" xmlns:cc="http://creativecommons.org/ns#" xmlns:rdf="http://www.w3.org/1999/02/22-rdf-syntax-ns#">
   <cc:Work>
    <dc:type rdf:resource="http://purl.org/dc/dcmitype/StillImage"/>
    <dc:date>2024-02-28T11:17:53.584573</dc:date>
    <dc:format>image/svg+xml</dc:format>
    <dc:creator>
     <cc:Agent>
      <dc:title>Matplotlib v3.8.0, https://matplotlib.org/</dc:title>
     </cc:Agent>
    </dc:creator>
   </cc:Work>
  </rdf:RDF>
 </metadata>
 <defs>
  <style type="text/css">*{stroke-linejoin: round; stroke-linecap: butt}</style>
 </defs>
 <g id="figure_1">
  <g id="patch_1">
   <path d="M 0 345.6 
L 460.8 345.6 
L 460.8 0 
L 0 0 
z
" style="fill: #ffffff"/>
  </g>
  <g id="axes_1">
   <g id="patch_2">
    <path d="M 108.325901 154.332014 
Q 92.798336 133.982347 77.948984 114.521514 
" clip-path="url(#pd436d63f02)" style="fill: none; stroke: #000000; stroke-linecap: round"/>
    <path d="M 78.785442 118.914729 
L 77.948984 114.521514 
L 81.965431 116.488277 
z
" clip-path="url(#pd436d63f02)" style="stroke: #000000; stroke-linecap: round"/>
   </g>
   <g id="patch_3">
    <path d="M 109.264242 153.953797 
Q 104.732712 117.415656 100.338788 81.987049 
" clip-path="url(#pd436d63f02)" style="fill: none; stroke: #000000; stroke-linecap: round"/>
    <path d="M 98.84631 86.202794 
L 100.338788 81.987049 
L 102.815897 85.710479 
z
" clip-path="url(#pd436d63f02)" style="stroke: #000000; stroke-linecap: round"/>
   </g>
   <g id="patch_4">
    <path d="M 110.620979 157.457675 
Q 136.897406 194.662446 162.528849 230.953985 
" clip-path="url(#pd436d63f02)" style="fill: none; stroke: #000000; stroke-linecap: round"/>
    <path d="M 161.854923 226.532919 
L 162.528849 230.953985 
L 158.58764 228.840486 
z
" clip-path="url(#pd436d63f02)" style="stroke: #000000; stroke-linecap: round"/>
   </g>
   <g id="patch_5">
    <path d="M 214.671606 297.025316 
Q 190.083213 265.996843 166.189207 235.844627 
" clip-path="url(#pd436d63f02)" style="fill: none; stroke: #000000; stroke-linecap: round"/>
    <path d="M 167.106024 240.221778 
L 166.189207 235.844627 
L 170.241018 237.737464 
z
" clip-path="url(#pd436d63f02)" style="stroke: #000000; stroke-linecap: round"/>
   </g>
   <g id="patch_6">
    <path d="M 217.763625 298.991822 
Q 251.926952 307.078234 285.002307 314.907124 
" clip-path="url(#pd436d63f02)" style="fill: none; stroke: #000000; stroke-linecap: round"/>
    <path d="M 281.570529 312.039564 
L 285.002307 314.907124 
L 280.649192 315.93201 
z
" clip-path="url(#pd436d63f02)" style="stroke: #000000; stroke-linecap: round"/>
   </g>
   <g id="patch_7">
    <path d="M 54.150246 31.649596 
Q 47.569039 42.554897 41.565509 52.502967 
" clip-path="url(#pd436d63f02)" style="fill: none; stroke: #000000; stroke-linecap: round"/>
    <path d="M 45.344612 50.111654 
L 41.565509 52.502967 
L 41.91992 48.044897 
z
" clip-path="url(#pd436d63f02)" style="stroke: #000000; stroke-linecap: round"/>
   </g>
   <g id="patch_8">
    <path d="M 56.456375 31.415771 
Q 77.555279 54.472398 97.899407 76.704214 
" clip-path="url(#pd436d63f02)" style="fill: none; stroke: #000000; stroke-linecap: round"/>
    <path d="M 96.674503 72.403097 
L 97.899407 76.704214 
L 93.723571 75.103467 
z
" clip-path="url(#pd436d63f02)" style="stroke: #000000; stroke-linecap: round"/>
   </g>
   <g id="patch_9">
    <path d="M 100.201449 80.879673 
Q 104.732979 117.417814 109.126903 152.846421 
" clip-path="url(#pd436d63f02)" style="fill: none; stroke: #000000; stroke-linecap: round"/>
    <path d="M 110.619381 148.630676 
L 109.126903 152.846421 
L 106.649794 149.122992 
z
" clip-path="url(#pd436d63f02)" style="stroke: #000000; stroke-linecap: round"/>
   </g>
   <g id="patch_10">
    <path d="M 98.658688 77.533947 
Q 77.559784 54.47732 57.215656 32.245504 
" clip-path="url(#pd436d63f02)" style="fill: none; stroke: #000000; stroke-linecap: round"/>
    <path d="M 58.44056 36.546621 
L 57.215656 32.245504 
L 61.391492 33.846251 
z
" clip-path="url(#pd436d63f02)" style="stroke: #000000; stroke-linecap: round"/>
   </g>
   <g id="patch_11">
    <path d="M 98.165929 78.245172 
Q 69.976525 67.039896 42.826082 56.247607 
" clip-path="url(#pd436d63f02)" style="fill: none; stroke: #000000; stroke-linecap: round"/>
    <path d="M 45.804412 59.583705 
L 42.826082 56.247607 
L 47.281959 55.866602 
z
" clip-path="url(#pd436d63f02)" style="stroke: #000000; stroke-linecap: round"/>
   </g>
   <g id="patch_12">
    <path d="M 101.867565 79.323177 
Q 142.878841 87.152695 182.791916 94.772555 
" clip-path="url(#pd436d63f02)" style="fill: none; stroke: #000000; stroke-linecap: round"/>
    <path d="M 179.237926 92.057937 
L 182.791916 94.772555 
L 178.487828 95.986976 
z
" clip-path="url(#pd436d63f02)" style="stroke: #000000; stroke-linecap: round"/>
   </g>
   <g id="patch_13">
    <path d="M 98.203501 78.147376 
Q 84.722221 71.92498 72.256062 66.171122 
" clip-path="url(#pd436d63f02)" style="fill: none; stroke: #000000; stroke-linecap: round"/>
    <path d="M 75.049727 69.663319 
L 72.256062 66.171122 
L 76.726018 66.031509 
z
" clip-path="url(#pd436d63f02)" style="stroke: #000000; stroke-linecap: round"/>
   </g>
   <g id="patch_14">
    <path d="M 349.683581 282.908164 
Q 364.973332 249.866897 379.793552 217.840293 
" clip-path="url(#pd436d63f02)" style="fill: none; stroke: #000000; stroke-linecap: round"/>
    <path d="M 376.298619 220.630534 
L 379.793552 217.840293 
L 379.928786 222.310384 
z
" clip-path="url(#pd436d63f02)" style="stroke: #000000; stroke-linecap: round"/>
   </g>
   <g id="patch_15">
    <path d="M 346.953784 284.952777 
Q 331.827598 287.241874 317.806859 289.363679 
" clip-path="url(#pd436d63f02)" style="fill: none; stroke: #000000; stroke-linecap: round"/>
    <path d="M 322.061087 290.742645 
L 317.806859 289.363679 
L 321.462568 286.787677 
z
" clip-path="url(#pd436d63f02)" style="stroke: #000000; stroke-linecap: round"/>
   </g>
   <g id="patch_16">
    <path d="M 347.143323 285.540853 
Q 318.42236 300.135838 290.69812 314.224323 
" clip-path="url(#pd436d63f02)" style="fill: none; stroke: #000000; stroke-linecap: round"/>
    <path d="M 295.170162 314.195207 
L 290.69812 314.224323 
L 293.358052 310.629221 
z
" clip-path="url(#pd436d63f02)" style="stroke: #000000; stroke-linecap: round"/>
   </g>
   <g id="patch_17">
    <path d="M 380.265613 216.820164 
Q 364.975862 249.861431 350.155642 281.888035 
" clip-path="url(#pd436d63f02)" style="fill: none; stroke: #000000; stroke-linecap: round"/>
    <path d="M 353.650574 279.097793 
L 350.155642 281.888035 
L 350.020408 277.417944 
z
" clip-path="url(#pd436d63f02)" style="stroke: #000000; stroke-linecap: round"/>
   </g>
   <g id="patch_18">
    <path d="M 380.666073 213.171446 
Q 372.030343 173.403528 363.631867 134.728182 
" clip-path="url(#pd436d63f02)" style="fill: none; stroke: #000000; stroke-linecap: round"/>
    <path d="M 362.526248 139.061495 
L 363.631867 134.728182 
L 366.435147 138.212666 
z
" clip-path="url(#pd436d63f02)" style="stroke: #000000; stroke-linecap: round"/>
   </g>
   <g id="patch_19">
    <path d="M 316.70726 289.530085 
Q 331.833446 287.240989 345.854185 285.119183 
" clip-path="url(#pd436d63f02)" style="fill: none; stroke: #000000; stroke-linecap: round"/>
    <path d="M 341.599958 283.740218 
L 345.854185 285.119183 
L 342.198476 287.695186 
z
" clip-path="url(#pd436d63f02)" style="stroke: #000000; stroke-linecap: round"/>
   </g>
   <g id="patch_20">
    <path d="M 313.955423 288.072727 
Q 300.527899 259.931413 287.581841 232.799154 
" clip-path="url(#pd436d63f02)" style="fill: none; stroke: #000000; stroke-linecap: round"/>
    <path d="M 287.499337 237.270529 
L 287.581841 232.799154 
L 291.109439 235.547982 
z
" clip-path="url(#pd436d63f02)" style="stroke: #000000; stroke-linecap: round"/>
   </g>
   <g id="patch_21">
    <path d="M 313.391436 291.164595 
Q 301.378076 302.717337 290.170584 313.495111 
" clip-path="url(#pd436d63f02)" style="fill: none; stroke: #000000; stroke-linecap: round"/>
    <path d="M 294.440051 312.164077 
L 290.170584 313.495111 
L 291.667437 309.280917 
z
" clip-path="url(#pd436d63f02)" style="stroke: #000000; stroke-linecap: round"/>
   </g>
   <g id="patch_22">
    <path d="M 286.083701 315.163088 
Q 251.920374 307.076677 218.845019 299.247787 
" clip-path="url(#pd436d63f02)" style="fill: none; stroke: #000000; stroke-linecap: round"/>
    <path d="M 222.276797 302.115346 
L 218.845019 299.247787 
L 223.198134 298.2229 
z
" clip-path="url(#pd436d63f02)" style="stroke: #000000; stroke-linecap: round"/>
   </g>
   <g id="patch_23">
    <path d="M 289.69989 314.731589 
Q 318.420853 300.136604 346.145093 286.048119 
" clip-path="url(#pd436d63f02)" style="fill: none; stroke: #000000; stroke-linecap: round"/>
    <path d="M 341.673051 286.077235 
L 346.145093 286.048119 
L 343.485161 289.643221 
z
" clip-path="url(#pd436d63f02)" style="stroke: #000000; stroke-linecap: round"/>
   </g>
   <g id="patch_24">
    <path d="M 289.369311 314.265661 
Q 301.382671 302.712918 312.590163 291.935145 
" clip-path="url(#pd436d63f02)" style="fill: none; stroke: #000000; stroke-linecap: round"/>
    <path d="M 308.320696 293.266179 
L 312.590163 291.935145 
L 311.09331 296.149339 
z
" clip-path="url(#pd436d63f02)" style="stroke: #000000; stroke-linecap: round"/>
   </g>
   <g id="patch_25">
    <path d="M 363.395331 133.638922 
Q 372.031061 173.406839 380.429536 212.082185 
" clip-path="url(#pd436d63f02)" style="fill: none; stroke: #000000; stroke-linecap: round"/>
    <path d="M 381.535156 207.748872 
L 380.429536 212.082185 
L 377.626257 208.597702 
z
" clip-path="url(#pd436d63f02)" style="stroke: #000000; stroke-linecap: round"/>
   </g>
   <g id="patch_26">
    <path d="M 364.794659 131.059155 
Q 391.899589 120.799021 417.95889 110.934693 
" clip-path="url(#pd436d63f02)" style="fill: none; stroke: #000000; stroke-linecap: round"/>
    <path d="M 413.509899 110.480294 
L 417.95889 110.934693 
L 414.925976 114.221247 
z
" clip-path="url(#pd436d63f02)" style="stroke: #000000; stroke-linecap: round"/>
   </g>
   <g id="patch_27">
    <path d="M 361.980486 133.402989 
Q 347.502995 157.329584 333.604296 180.299624 
" clip-path="url(#pd436d63f02)" style="fill: none; stroke: #000000; stroke-linecap: round"/>
    <path d="M 337.386186 177.912721 
L 333.604296 180.299624 
L 333.963907 175.84197 
z
" clip-path="url(#pd436d63f02)" style="stroke: #000000; stroke-linecap: round"/>
   </g>
   <g id="patch_28">
    <path d="M 364.026908 130.115523 
Q 380.744983 104.002463 396.860231 78.830997 
" clip-path="url(#pd436d63f02)" style="fill: none; stroke: #000000; stroke-linecap: round"/>
    <path d="M 393.019118 81.121379 
L 396.860231 78.830997 
L 396.387869 83.278117 
z
" clip-path="url(#pd436d63f02)" style="stroke: #000000; stroke-linecap: round"/>
   </g>
   <g id="patch_29">
    <path d="M 361.106907 131.267553 
Q 319.113626 120.59594 278.203938 110.199697 
" clip-path="url(#pd436d63f02)" style="fill: none; stroke: #000000; stroke-linecap: round"/>
    <path d="M 281.588118 113.123278 
L 278.203938 110.199697 
L 282.573311 109.246501 
z
" clip-path="url(#pd436d63f02)" style="stroke: #000000; stroke-linecap: round"/>
   </g>
   <g id="patch_30">
    <path d="M 419.002529 110.539641 
Q 391.8976 120.799774 365.838298 130.664102 
" clip-path="url(#pd436d63f02)" style="fill: none; stroke: #000000; stroke-linecap: round"/>
    <path d="M 370.287289 131.118501 
L 365.838298 130.664102 
L 368.871212 127.377549 
z
" clip-path="url(#pd436d63f02)" style="stroke: #000000; stroke-linecap: round"/>
   </g>
   <g id="patch_31">
    <path d="M 322.616246 128.023913 
Q 299.829591 119.088585 278.083805 110.561413 
" clip-path="url(#pd436d63f02)" style="fill: none; stroke: #000000; stroke-linecap: round"/>
    <path d="M 281.077601 113.883639 
L 278.083805 110.561413 
L 282.537864 110.159712 
z
" clip-path="url(#pd436d63f02)" style="stroke: #000000; stroke-linecap: round"/>
   </g>
   <g id="patch_32">
    <path d="M 325.618272 130.24842 
Q 343.113636 152.403178 359.916101 173.680503 
" clip-path="url(#pd436d63f02)" style="fill: none; stroke: #000000; stroke-linecap: round"/>
    <path d="M 359.006709 169.301804 
L 359.916101 173.680503 
L 355.867506 171.780797 
z
" clip-path="url(#pd436d63f02)" style="stroke: #000000; stroke-linecap: round"/>
   </g>
   <g id="patch_33">
    <path d="M 233.115925 74.152932 
Q 253.436946 91.178421 272.900967 107.485892 
" clip-path="url(#pd436d63f02)" style="fill: none; stroke: #000000; stroke-linecap: round"/>
    <path d="M 271.119297 103.383984 
L 272.900967 107.485892 
L 268.550438 106.450083 
z
" clip-path="url(#pd436d63f02)" style="stroke: #000000; stroke-linecap: round"/>
   </g>
   <g id="patch_34">
    <path d="M 229.895921 73.761169 
Q 208.715311 84.127161 188.538918 94.001679 
" clip-path="url(#pd436d63f02)" style="fill: none; stroke: #000000; stroke-linecap: round"/>
    <path d="M 193.010892 94.039729 
L 188.538918 94.001679 
L 191.252542 90.44693 
z
" clip-path="url(#pd436d63f02)" style="stroke: #000000; stroke-linecap: round"/>
   </g>
   <g id="patch_35">
    <path d="M 360.610371 174.559672 
Q 343.115006 152.404913 326.312542 131.127589 
" clip-path="url(#pd436d63f02)" style="fill: none; stroke: #000000; stroke-linecap: round"/>
    <path d="M 327.221934 135.506288 
L 326.312542 131.127589 
L 330.361136 133.027295 
z
" clip-path="url(#pd436d63f02)" style="stroke: #000000; stroke-linecap: round"/>
   </g>
   <g id="patch_36">
    <path d="M 333.025112 181.256827 
Q 347.502604 157.330231 361.401303 134.360191 
" clip-path="url(#pd436d63f02)" style="fill: none; stroke: #000000; stroke-linecap: round"/>
    <path d="M 357.619413 136.747095 
L 361.401303 134.360191 
L 361.041691 138.817845 
z
" clip-path="url(#pd436d63f02)" style="stroke: #000000; stroke-linecap: round"/>
   </g>
   <g id="patch_37">
    <path d="M 330.672794 184.304607 
Q 309.143521 206.480561 288.393034 227.854337 
" clip-path="url(#pd436d63f02)" style="fill: none; stroke: #000000; stroke-linecap: round"/>
    <path d="M 292.614287 226.377509 
L 288.393034 227.854337 
L 289.744323 223.591238 
z
" clip-path="url(#pd436d63f02)" style="stroke: #000000; stroke-linecap: round"/>
   </g>
   <g id="patch_38">
    <path d="M 397.466113 77.88463 
Q 380.748038 103.99769 364.63279 129.169156 
" clip-path="url(#pd436d63f02)" style="fill: none; stroke: #000000; stroke-linecap: round"/>
    <path d="M 368.473903 126.878775 
L 364.63279 129.169156 
L 365.105152 124.722037 
z
" clip-path="url(#pd436d63f02)" style="stroke: #000000; stroke-linecap: round"/>
   </g>
   <g id="patch_39">
    <path d="M 71.244391 65.704177 
Q 84.725671 71.926573 97.19183 77.68043 
" clip-path="url(#pd436d63f02)" style="fill: none; stroke: #000000; stroke-linecap: round"/>
    <path d="M 94.398165 74.188233 
L 97.19183 77.68043 
L 92.721874 77.820044 
z
" clip-path="url(#pd436d63f02)" style="stroke: #000000; stroke-linecap: round"/>
   </g>
   <g id="patch_40">
    <path d="M 69.752933 66.807757 
Q 72.790507 88.492941 75.672985 109.070901 
" clip-path="url(#pd436d63f02)" style="fill: none; stroke: #000000; stroke-linecap: round"/>
    <path d="M 77.098761 104.832132 
L 75.672985 109.070901 
L 73.137435 105.387019 
z
" clip-path="url(#pd436d63f02)" style="stroke: #000000; stroke-linecap: round"/>
   </g>
   <g id="patch_41">
    <path d="M 77.27286 113.635418 
Q 92.800425 133.985085 107.649777 153.445918 
" clip-path="url(#pd436d63f02)" style="fill: none; stroke: #000000; stroke-linecap: round"/>
    <path d="M 106.813319 149.052703 
L 107.649777 153.445918 
L 103.63333 151.479155 
z
" clip-path="url(#pd436d63f02)" style="stroke: #000000; stroke-linecap: round"/>
   </g>
   <g id="patch_42">
    <path d="M 75.828029 110.177757 
Q 72.790455 88.492573 69.907977 67.914613 
" clip-path="url(#pd436d63f02)" style="fill: none; stroke: #000000; stroke-linecap: round"/>
    <path d="M 68.482201 72.153382 
L 69.907977 67.914613 
L 72.443527 71.598496 
z
" clip-path="url(#pd436d63f02)" style="stroke: #000000; stroke-linecap: round"/>
   </g>
   <g id="patch_43">
    <path d="M 151.910015 147.593391 
Q 168.325232 122.281042 184.132119 97.906741 
" clip-path="url(#pd436d63f02)" style="fill: none; stroke: #000000; stroke-linecap: round"/>
    <path d="M 180.277659 100.17459 
L 184.132119 97.906741 
L 183.633722 102.351018 
z
" clip-path="url(#pd436d63f02)" style="stroke: #000000; stroke-linecap: round"/>
   </g>
   <g id="patch_44">
    <path d="M 150.210653 151.045605 
Q 140.614706 178.240892 131.39078 204.381854 
" clip-path="url(#pd436d63f02)" style="fill: none; stroke: #000000; stroke-linecap: round"/>
    <path d="M 134.607799 201.275281 
L 131.39078 204.381854 
L 130.835733 199.944296 
z
" clip-path="url(#pd436d63f02)" style="stroke: #000000; stroke-linecap: round"/>
   </g>
   <g id="patch_45">
    <path d="M 40.988272 53.45947 
Q 47.569479 42.554169 53.573009 32.606099 
" clip-path="url(#pd436d63f02)" style="fill: none; stroke: #000000; stroke-linecap: round"/>
    <path d="M 49.793906 34.997413 
L 53.573009 32.606099 
L 53.218598 37.06417 
z
" clip-path="url(#pd436d63f02)" style="stroke: #000000; stroke-linecap: round"/>
   </g>
   <g id="patch_46">
    <path d="M 41.78417 55.833447 
Q 69.973574 67.038723 97.124016 77.831012 
" clip-path="url(#pd436d63f02)" style="fill: none; stroke: #000000; stroke-linecap: round"/>
    <path d="M 94.145687 74.494914 
L 97.124016 77.831012 
L 92.66814 78.212017 
z
" clip-path="url(#pd436d63f02)" style="stroke: #000000; stroke-linecap: round"/>
   </g>
   <g id="patch_47">
    <path d="M 131.017201 205.440593 
Q 140.613148 178.245307 149.837073 152.104344 
" clip-path="url(#pd436d63f02)" style="fill: none; stroke: #000000; stroke-linecap: round"/>
    <path d="M 146.620055 155.210917 
L 149.837073 152.104344 
L 150.39212 156.541903 
z
" clip-path="url(#pd436d63f02)" style="stroke: #000000; stroke-linecap: round"/>
   </g>
   <g id="patch_48">
    <path d="M 131.90748 208.449416 
Q 147.335054 220.359746 161.877639 231.586851 
" clip-path="url(#pd436d63f02)" style="fill: none; stroke: #000000; stroke-linecap: round"/>
    <path d="M 159.933599 227.559357 
L 161.877639 231.586851 
L 157.48922 230.725586 
z
" clip-path="url(#pd436d63f02)" style="stroke: #000000; stroke-linecap: round"/>
   </g>
   <g id="patch_49">
    <path d="M 163.173926 231.86735 
Q 136.897499 194.662578 111.266057 158.37104 
" clip-path="url(#pd436d63f02)" style="fill: none; stroke: #000000; stroke-linecap: round"/>
    <path d="M 111.939983 162.792106 
L 111.266057 158.37104 
L 115.207265 160.484538 
z
" clip-path="url(#pd436d63f02)" style="stroke: #000000; stroke-linecap: round"/>
   </g>
   <g id="patch_50">
    <path d="M 165.496799 234.970866 
Q 190.085191 265.999339 213.979198 296.151555 
" clip-path="url(#pd436d63f02)" style="fill: none; stroke: #000000; stroke-linecap: round"/>
    <path d="M 213.062381 291.774405 
L 213.979198 296.151555 
L 209.927387 294.258718 
z
" clip-path="url(#pd436d63f02)" style="stroke: #000000; stroke-linecap: round"/>
   </g>
   <g id="patch_51">
    <path d="M 162.758475 232.26687 
Q 147.330902 220.35654 132.788316 209.129435 
" clip-path="url(#pd436d63f02)" style="fill: none; stroke: #000000; stroke-linecap: round"/>
    <path d="M 134.732356 213.156929 
L 132.788316 209.129435 
L 137.176735 209.990699 
z
" clip-path="url(#pd436d63f02)" style="stroke: #000000; stroke-linecap: round"/>
   </g>
   <g id="patch_52">
    <path d="M 166.190263 233.818722 
Q 194.712786 239.342674 222.13767 244.654048 
" clip-path="url(#pd436d63f02)" style="fill: none; stroke: #000000; stroke-linecap: round"/>
    <path d="M 218.590914 241.929985 
L 222.13767 244.654048 
L 217.830366 245.857015 
z
" clip-path="url(#pd436d63f02)" style="stroke: #000000; stroke-linecap: round"/>
   </g>
   <g id="patch_53">
    <path d="M 223.240883 244.867707 
Q 194.71836 239.343754 167.293476 234.032381 
" clip-path="url(#pd436d63f02)" style="fill: none; stroke: #000000; stroke-linecap: round"/>
    <path d="M 170.840232 236.756443 
L 167.293476 234.032381 
L 171.60078 232.829413 
z
" clip-path="url(#pd436d63f02)" style="stroke: #000000; stroke-linecap: round"/>
   </g>
   <g id="patch_54">
    <path d="M 226.908918 246.01731 
Q 241.962583 252.667584 255.993563 258.866065 
" clip-path="url(#pd436d63f02)" style="fill: none; stroke: #000000; stroke-linecap: round"/>
    <path d="M 253.142887 255.42025 
L 255.993563 258.866065 
L 251.526505 259.079117 
z
" clip-path="url(#pd436d63f02)" style="stroke: #000000; stroke-linecap: round"/>
   </g>
   <g id="patch_55">
    <path d="M 227.0153 244.768857 
Q 255.702795 237.639648 283.305259 230.780083 
" clip-path="url(#pd436d63f02)" style="fill: none; stroke: #000000; stroke-linecap: round"/>
    <path d="M 278.94098 229.803829 
L 283.305259 230.780083 
L 279.905688 233.685754 
z
" clip-path="url(#pd436d63f02)" style="stroke: #000000; stroke-linecap: round"/>
   </g>
   <g id="patch_56">
    <path d="M 257.0165 259.317969 
Q 241.962835 252.667695 227.931855 246.469214 
" clip-path="url(#pd436d63f02)" style="fill: none; stroke: #000000; stroke-linecap: round"/>
    <path d="M 230.782532 249.91503 
L 227.931855 246.469214 
L 232.398913 246.256162 
z
" clip-path="url(#pd436d63f02)" style="stroke: #000000; stroke-linecap: round"/>
   </g>
   <g id="patch_57">
    <path d="M 260.091727 258.672819 
Q 272.526048 245.07308 284.205946 232.298474 
" clip-path="url(#pd436d63f02)" style="fill: none; stroke: #000000; stroke-linecap: round"/>
    <path d="M 280.030794 233.901005 
L 284.205946 232.298474 
L 282.982879 236.600114 
z
" clip-path="url(#pd436d63f02)" style="stroke: #000000; stroke-linecap: round"/>
   </g>
   <g id="patch_58">
    <path d="M 287.101094 231.791608 
Q 300.528618 259.932921 313.474676 287.065181 
" clip-path="url(#pd436d63f02)" style="fill: none; stroke: #000000; stroke-linecap: round"/>
    <path d="M 313.55718 282.593806 
L 313.474676 287.065181 
L 309.947078 284.316352 
z
" clip-path="url(#pd436d63f02)" style="stroke: #000000; stroke-linecap: round"/>
   </g>
   <g id="patch_59">
    <path d="M 287.616067 228.654642 
Q 309.14534 206.478687 329.895827 185.104912 
" clip-path="url(#pd436d63f02)" style="fill: none; stroke: #000000; stroke-linecap: round"/>
    <path d="M 325.674574 186.581739 
L 329.895827 185.104912 
L 328.544538 189.368011 
z
" clip-path="url(#pd436d63f02)" style="stroke: #000000; stroke-linecap: round"/>
   </g>
   <g id="patch_60">
    <path d="M 284.390537 230.510378 
Q 255.703042 237.639587 228.100578 244.499152 
" clip-path="url(#pd436d63f02)" style="fill: none; stroke: #000000; stroke-linecap: round"/>
    <path d="M 232.464857 245.475406 
L 228.100578 244.499152 
L 231.500149 241.593482 
z
" clip-path="url(#pd436d63f02)" style="stroke: #000000; stroke-linecap: round"/>
   </g>
   <g id="patch_61">
    <path d="M 284.96231 231.471218 
Q 272.527989 245.070957 260.848091 257.845563 
" clip-path="url(#pd436d63f02)" style="fill: none; stroke: #000000; stroke-linecap: round"/>
    <path d="M 265.023243 256.243032 
L 260.848091 257.845563 
L 262.071158 253.543923 
z
" clip-path="url(#pd436d63f02)" style="stroke: #000000; stroke-linecap: round"/>
   </g>
   <g id="patch_62">
    <path d="M 286.028661 228.121647 
Q 282.335056 198.358951 278.779146 169.705777 
" clip-path="url(#pd436d63f02)" style="fill: none; stroke: #000000; stroke-linecap: round"/>
    <path d="M 277.287 173.92164 
L 278.779146 169.705777 
L 281.256549 173.429012 
z
" clip-path="url(#pd436d63f02)" style="stroke: #000000; stroke-linecap: round"/>
   </g>
   <g id="patch_63">
    <path d="M 278.641242 168.594559 
Q 282.334846 198.357255 285.890756 227.010428 
" clip-path="url(#pd436d63f02)" style="fill: none; stroke: #000000; stroke-linecap: round"/>
    <path d="M 287.382903 222.794565 
L 285.890756 227.010428 
L 283.413354 223.287194 
z
" clip-path="url(#pd436d63f02)" style="stroke: #000000; stroke-linecap: round"/>
   </g>
   <g id="patch_64">
    <path d="M 278.295978 164.740714 
Q 276.822159 138.06069 275.410008 112.496998 
" clip-path="url(#pd436d63f02)" style="fill: none; stroke: #000000; stroke-linecap: round"/>
    <path d="M 273.633678 116.601222 
L 275.410008 112.496998 
L 277.627589 116.380597 
z
" clip-path="url(#pd436d63f02)" style="stroke: #000000; stroke-linecap: round"/>
   </g>
   <g id="patch_65">
    <path d="M 277.118575 109.923877 
Q 319.111856 120.59549 360.021544 130.991733 
" clip-path="url(#pd436d63f02)" style="fill: none; stroke: #000000; stroke-linecap: round"/>
    <path d="M 356.637363 128.068153 
L 360.021544 130.991733 
L 355.652171 131.944929 
z
" clip-path="url(#pd436d63f02)" style="stroke: #000000; stroke-linecap: round"/>
   </g>
   <g id="patch_66">
    <path d="M 277.045496 110.154261 
Q 299.832151 119.089589 321.577937 127.616761 
" clip-path="url(#pd436d63f02)" style="fill: none; stroke: #000000; stroke-linecap: round"/>
    <path d="M 318.584141 124.294534 
L 321.577937 127.616761 
L 317.123878 128.018461 
z
" clip-path="url(#pd436d63f02)" style="stroke: #000000; stroke-linecap: round"/>
   </g>
   <g id="patch_67">
    <path d="M 273.75899 108.204766 
Q 253.437968 91.179277 233.973948 74.871806 
" clip-path="url(#pd436d63f02)" style="fill: none; stroke: #000000; stroke-linecap: round"/>
    <path d="M 235.755618 78.973714 
L 233.973948 74.871806 
L 238.324476 75.907615 
z
" clip-path="url(#pd436d63f02)" style="stroke: #000000; stroke-linecap: round"/>
   </g>
   <g id="patch_68">
    <path d="M 275.348213 111.378362 
Q 276.822032 138.058385 278.234184 163.622077 
" clip-path="url(#pd436d63f02)" style="fill: none; stroke: #000000; stroke-linecap: round"/>
    <path d="M 280.010514 159.517853 
L 278.234184 163.622077 
L 276.016603 159.738479 
z
" clip-path="url(#pd436d63f02)" style="stroke: #000000; stroke-linecap: round"/>
   </g>
   <g id="patch_69">
    <path d="M 273.327962 109.145199 
Q 230.518206 102.396332 188.812845 95.821571 
" clip-path="url(#pd436d63f02)" style="fill: none; stroke: #000000; stroke-linecap: round"/>
    <path d="M 192.452598 98.420071 
L 188.812845 95.821571 
L 193.075496 94.468869 
z
" clip-path="url(#pd436d63f02)" style="stroke: #000000; stroke-linecap: round"/>
   </g>
   <g id="patch_70">
    <path d="M 183.888848 94.981972 
Q 142.877572 87.152453 102.964496 79.532593 
" clip-path="url(#pd436d63f02)" style="fill: none; stroke: #000000; stroke-linecap: round"/>
    <path d="M 106.518487 82.247212 
L 102.964496 79.532593 
L 107.268585 78.318172 
z
" clip-path="url(#pd436d63f02)" style="stroke: #000000; stroke-linecap: round"/>
   </g>
   <g id="patch_71">
    <path d="M 187.530568 94.495175 
Q 208.711178 84.129183 228.887571 74.254665 
" clip-path="url(#pd436d63f02)" style="fill: none; stroke: #000000; stroke-linecap: round"/>
    <path d="M 224.415597 74.216616 
L 228.887571 74.254665 
L 226.173947 77.809415 
z
" clip-path="url(#pd436d63f02)" style="stroke: #000000; stroke-linecap: round"/>
   </g>
   <g id="patch_72">
    <path d="M 184.73751 96.973224 
Q 168.322293 122.285574 152.515407 146.659875 
" clip-path="url(#pd436d63f02)" style="fill: none; stroke: #000000; stroke-linecap: round"/>
    <path d="M 156.369866 144.392026 
L 152.515407 146.659875 
L 153.013803 142.215597 
z
" clip-path="url(#pd436d63f02)" style="stroke: #000000; stroke-linecap: round"/>
   </g>
   <g id="patch_73">
    <path d="M 187.706645 95.647181 
Q 230.516401 102.396048 272.221763 108.970809 
" clip-path="url(#pd436d63f02)" style="fill: none; stroke: #000000; stroke-linecap: round"/>
    <path d="M 268.58201 106.372309 
L 272.221763 108.970809 
L 267.959111 110.323511 
z
" clip-path="url(#pd436d63f02)" style="stroke: #000000; stroke-linecap: round"/>
   </g>
   <g id="PathCollection_1">
    <defs>
     <path id="m87b27a1b58" d="M 0 1.936492 
C 0.513564 1.936492 1.006162 1.732451 1.369306 1.369306 
C 1.732451 1.006162 1.936492 0.513564 1.936492 0 
C 1.936492 -0.513564 1.732451 -1.006162 1.369306 -1.369306 
C 1.006162 -1.732451 0.513564 -1.936492 0 -1.936492 
C -0.513564 -1.936492 -1.006162 -1.732451 -1.369306 -1.369306 
C -1.732451 -1.006162 -1.936492 -0.513564 -1.936492 0 
C -1.936492 0.513564 -1.732451 1.006162 -1.369306 1.369306 
C -1.006162 1.732451 -0.513564 1.936492 0 1.936492 
z
" style="stroke: #1f78b4"/>
    </defs>
    <g clip-path="url(#pd436d63f02)">
     <use xlink:href="#m87b27a1b58" x="109.502369" y="155.873835" style="fill: #1f78b4; stroke: #1f78b4"/>
     <use xlink:href="#m87b27a1b58" x="215.875868" y="298.544993" style="fill: #1f78b4; stroke: #1f78b4"/>
     <use xlink:href="#m87b27a1b58" x="55.151741" y="29.990083" style="fill: #1f78b4; stroke: #1f78b4"/>
     <use xlink:href="#m87b27a1b58" x="99.963322" y="78.959635" style="fill: #1f78b4; stroke: #1f78b4"/>
     <use xlink:href="#m87b27a1b58" x="348.871755" y="284.662524" style="fill: #1f78b4; stroke: #1f78b4"/>
     <use xlink:href="#m87b27a1b58" x="381.077439" y="215.065804" style="fill: #1f78b4; stroke: #1f78b4"/>
     <use xlink:href="#m87b27a1b58" x="314.789289" y="289.820338" style="fill: #1f78b4; stroke: #1f78b4"/>
     <use xlink:href="#m87b27a1b58" x="287.971458" y="315.609917" style="fill: #1f78b4; stroke: #1f78b4"/>
     <use xlink:href="#m87b27a1b58" x="362.983965" y="131.744564" style="fill: #1f78b4; stroke: #1f78b4"/>
     <use xlink:href="#m87b27a1b58" x="420.813223" y="109.854232" style="fill: #1f78b4; stroke: #1f78b4"/>
     <use xlink:href="#m87b27a1b58" x="324.420225" y="128.731307" style="fill: #1f78b4; stroke: #1f78b4"/>
     <use xlink:href="#m87b27a1b58" x="231.633398" y="72.910831" style="fill: #1f78b4; stroke: #1f78b4"/>
     <use xlink:href="#m87b27a1b58" x="361.808417" y="176.076785" style="fill: #1f78b4; stroke: #1f78b4"/>
     <use xlink:href="#m87b27a1b58" x="332.021633" y="182.915252" style="fill: #1f78b4; stroke: #1f78b4"/>
     <use xlink:href="#m87b27a1b58" x="398.509055" y="76.25559" style="fill: #1f78b4; stroke: #1f78b4"/>
     <use xlink:href="#m87b27a1b58" x="69.48457" y="64.891918" style="fill: #1f78b4; stroke: #1f78b4"/>
     <use xlink:href="#m87b27a1b58" x="76.096392" y="112.093597" style="fill: #1f78b4; stroke: #1f78b4"/>
     <use xlink:href="#m87b27a1b58" x="150.854435" y="149.221102" style="fill: #1f78b4; stroke: #1f78b4"/>
     <use xlink:href="#m87b27a1b58" x="39.986777" y="55.118984" style="fill: #1f78b4; stroke: #1f78b4"/>
     <use xlink:href="#m87b27a1b58" x="130.373419" y="207.265096" style="fill: #1f78b4; stroke: #1f78b4"/>
     <use xlink:href="#m87b27a1b58" x="164.292537" y="233.451189" style="fill: #1f78b4; stroke: #1f78b4"/>
     <use xlink:href="#m87b27a1b58" x="225.138609" y="245.235239" style="fill: #1f78b4; stroke: #1f78b4"/>
     <use xlink:href="#m87b27a1b58" x="258.786809" y="260.10004" style="fill: #1f78b4; stroke: #1f78b4"/>
     <use xlink:href="#m87b27a1b58" x="286.267228" y="230.043996" style="fill: #1f78b4; stroke: #1f78b4"/>
     <use xlink:href="#m87b27a1b58" x="278.402675" y="166.672209" style="fill: #1f78b4; stroke: #1f78b4"/>
     <use xlink:href="#m87b27a1b58" x="275.241517" y="109.446867" style="fill: #1f78b4; stroke: #1f78b4"/>
     <use xlink:href="#m87b27a1b58" x="185.793091" y="95.345513" style="fill: #1f78b4; stroke: #1f78b4"/>
    </g>
   </g>
   <g id="text_1">
    <g clip-path="url(#pd436d63f02)">
     <!-- 0 -->
     <g transform="translate(106.321119 158.63321) scale(0.1 -0.1)">
      <defs>
       <path id="DejaVuSans-30" d="M 2034 4250 
Q 1547 4250 1301 3770 
Q 1056 3291 1056 2328 
Q 1056 1369 1301 889 
Q 1547 409 2034 409 
Q 2525 409 2770 889 
Q 3016 1369 3016 2328 
Q 3016 3291 2770 3770 
Q 2525 4250 2034 4250 
z
M 2034 4750 
Q 2819 4750 3233 4129 
Q 3647 3509 3647 2328 
Q 3647 1150 3233 529 
Q 2819 -91 2034 -91 
Q 1250 -91 836 529 
Q 422 1150 422 2328 
Q 422 3509 836 4129 
Q 1250 4750 2034 4750 
z
" transform="scale(0.015625)"/>
      </defs>
      <use xlink:href="#DejaVuSans-30"/>
     </g>
    </g>
   </g>
   <g id="text_2">
    <g clip-path="url(#pd436d63f02)">
     <!-- 1 -->
     <g transform="translate(212.694618 301.304368) scale(0.1 -0.1)">
      <defs>
       <path id="DejaVuSans-31" d="M 794 531 
L 1825 531 
L 1825 4091 
L 703 3866 
L 703 4441 
L 1819 4666 
L 2450 4666 
L 2450 531 
L 3481 531 
L 3481 0 
L 794 0 
L 794 531 
z
" transform="scale(0.015625)"/>
      </defs>
      <use xlink:href="#DejaVuSans-31"/>
     </g>
    </g>
   </g>
   <g id="text_3">
    <g clip-path="url(#pd436d63f02)">
     <!-- 2 -->
     <g transform="translate(51.970491 32.749458) scale(0.1 -0.1)">
      <defs>
       <path id="DejaVuSans-32" d="M 1228 531 
L 3431 531 
L 3431 0 
L 469 0 
L 469 531 
Q 828 903 1448 1529 
Q 2069 2156 2228 2338 
Q 2531 2678 2651 2914 
Q 2772 3150 2772 3378 
Q 2772 3750 2511 3984 
Q 2250 4219 1831 4219 
Q 1534 4219 1204 4116 
Q 875 4013 500 3803 
L 500 4441 
Q 881 4594 1212 4672 
Q 1544 4750 1819 4750 
Q 2544 4750 2975 4387 
Q 3406 4025 3406 3419 
Q 3406 3131 3298 2873 
Q 3191 2616 2906 2266 
Q 2828 2175 2409 1742 
Q 1991 1309 1228 531 
z
" transform="scale(0.015625)"/>
      </defs>
      <use xlink:href="#DejaVuSans-32"/>
     </g>
    </g>
   </g>
   <g id="text_4">
    <g clip-path="url(#pd436d63f02)">
     <!-- 3 -->
     <g transform="translate(96.782072 81.71901) scale(0.1 -0.1)">
      <defs>
       <path id="DejaVuSans-33" d="M 2597 2516 
Q 3050 2419 3304 2112 
Q 3559 1806 3559 1356 
Q 3559 666 3084 287 
Q 2609 -91 1734 -91 
Q 1441 -91 1130 -33 
Q 819 25 488 141 
L 488 750 
Q 750 597 1062 519 
Q 1375 441 1716 441 
Q 2309 441 2620 675 
Q 2931 909 2931 1356 
Q 2931 1769 2642 2001 
Q 2353 2234 1838 2234 
L 1294 2234 
L 1294 2753 
L 1863 2753 
Q 2328 2753 2575 2939 
Q 2822 3125 2822 3475 
Q 2822 3834 2567 4026 
Q 2313 4219 1838 4219 
Q 1578 4219 1281 4162 
Q 984 4106 628 3988 
L 628 4550 
Q 988 4650 1302 4700 
Q 1616 4750 1894 4750 
Q 2613 4750 3031 4423 
Q 3450 4097 3450 3541 
Q 3450 3153 3228 2886 
Q 3006 2619 2597 2516 
z
" transform="scale(0.015625)"/>
      </defs>
      <use xlink:href="#DejaVuSans-33"/>
     </g>
    </g>
   </g>
   <g id="text_5">
    <g clip-path="url(#pd436d63f02)">
     <!-- 4 -->
     <g transform="translate(345.690505 287.421899) scale(0.1 -0.1)">
      <defs>
       <path id="DejaVuSans-34" d="M 2419 4116 
L 825 1625 
L 2419 1625 
L 2419 4116 
z
M 2253 4666 
L 3047 4666 
L 3047 1625 
L 3713 1625 
L 3713 1100 
L 3047 1100 
L 3047 0 
L 2419 0 
L 2419 1100 
L 313 1100 
L 313 1709 
L 2253 4666 
z
" transform="scale(0.015625)"/>
      </defs>
      <use xlink:href="#DejaVuSans-34"/>
     </g>
    </g>
   </g>
   <g id="text_6">
    <g clip-path="url(#pd436d63f02)">
     <!-- 5 -->
     <g transform="translate(377.896189 217.825179) scale(0.1 -0.1)">
      <defs>
       <path id="DejaVuSans-35" d="M 691 4666 
L 3169 4666 
L 3169 4134 
L 1269 4134 
L 1269 2991 
Q 1406 3038 1543 3061 
Q 1681 3084 1819 3084 
Q 2600 3084 3056 2656 
Q 3513 2228 3513 1497 
Q 3513 744 3044 326 
Q 2575 -91 1722 -91 
Q 1428 -91 1123 -41 
Q 819 9 494 109 
L 494 744 
Q 775 591 1075 516 
Q 1375 441 1709 441 
Q 2250 441 2565 725 
Q 2881 1009 2881 1497 
Q 2881 1984 2565 2268 
Q 2250 2553 1709 2553 
Q 1456 2553 1204 2497 
Q 953 2441 691 2322 
L 691 4666 
z
" transform="scale(0.015625)"/>
      </defs>
      <use xlink:href="#DejaVuSans-35"/>
     </g>
    </g>
   </g>
   <g id="text_7">
    <g clip-path="url(#pd436d63f02)">
     <!-- 6 -->
     <g transform="translate(311.608039 292.579713) scale(0.1 -0.1)">
      <defs>
       <path id="DejaVuSans-36" d="M 2113 2584 
Q 1688 2584 1439 2293 
Q 1191 2003 1191 1497 
Q 1191 994 1439 701 
Q 1688 409 2113 409 
Q 2538 409 2786 701 
Q 3034 994 3034 1497 
Q 3034 2003 2786 2293 
Q 2538 2584 2113 2584 
z
M 3366 4563 
L 3366 3988 
Q 3128 4100 2886 4159 
Q 2644 4219 2406 4219 
Q 1781 4219 1451 3797 
Q 1122 3375 1075 2522 
Q 1259 2794 1537 2939 
Q 1816 3084 2150 3084 
Q 2853 3084 3261 2657 
Q 3669 2231 3669 1497 
Q 3669 778 3244 343 
Q 2819 -91 2113 -91 
Q 1303 -91 875 529 
Q 447 1150 447 2328 
Q 447 3434 972 4092 
Q 1497 4750 2381 4750 
Q 2619 4750 2861 4703 
Q 3103 4656 3366 4563 
z
" transform="scale(0.015625)"/>
      </defs>
      <use xlink:href="#DejaVuSans-36"/>
     </g>
    </g>
   </g>
   <g id="text_8">
    <g clip-path="url(#pd436d63f02)">
     <!-- 7 -->
     <g transform="translate(284.790208 318.369292) scale(0.1 -0.1)">
      <defs>
       <path id="DejaVuSans-37" d="M 525 4666 
L 3525 4666 
L 3525 4397 
L 1831 0 
L 1172 0 
L 2766 4134 
L 525 4134 
L 525 4666 
z
" transform="scale(0.015625)"/>
      </defs>
      <use xlink:href="#DejaVuSans-37"/>
     </g>
    </g>
   </g>
   <g id="text_9">
    <g clip-path="url(#pd436d63f02)">
     <!-- 8 -->
     <g transform="translate(359.802715 134.503939) scale(0.1 -0.1)">
      <defs>
       <path id="DejaVuSans-38" d="M 2034 2216 
Q 1584 2216 1326 1975 
Q 1069 1734 1069 1313 
Q 1069 891 1326 650 
Q 1584 409 2034 409 
Q 2484 409 2743 651 
Q 3003 894 3003 1313 
Q 3003 1734 2745 1975 
Q 2488 2216 2034 2216 
z
M 1403 2484 
Q 997 2584 770 2862 
Q 544 3141 544 3541 
Q 544 4100 942 4425 
Q 1341 4750 2034 4750 
Q 2731 4750 3128 4425 
Q 3525 4100 3525 3541 
Q 3525 3141 3298 2862 
Q 3072 2584 2669 2484 
Q 3125 2378 3379 2068 
Q 3634 1759 3634 1313 
Q 3634 634 3220 271 
Q 2806 -91 2034 -91 
Q 1263 -91 848 271 
Q 434 634 434 1313 
Q 434 1759 690 2068 
Q 947 2378 1403 2484 
z
M 1172 3481 
Q 1172 3119 1398 2916 
Q 1625 2713 2034 2713 
Q 2441 2713 2670 2916 
Q 2900 3119 2900 3481 
Q 2900 3844 2670 4047 
Q 2441 4250 2034 4250 
Q 1625 4250 1398 4047 
Q 1172 3844 1172 3481 
z
" transform="scale(0.015625)"/>
      </defs>
      <use xlink:href="#DejaVuSans-38"/>
     </g>
    </g>
   </g>
   <g id="text_10">
    <g clip-path="url(#pd436d63f02)">
     <!-- 9 -->
     <g transform="translate(417.631973 112.613607) scale(0.1 -0.1)">
      <defs>
       <path id="DejaVuSans-39" d="M 703 97 
L 703 672 
Q 941 559 1184 500 
Q 1428 441 1663 441 
Q 2288 441 2617 861 
Q 2947 1281 2994 2138 
Q 2813 1869 2534 1725 
Q 2256 1581 1919 1581 
Q 1219 1581 811 2004 
Q 403 2428 403 3163 
Q 403 3881 828 4315 
Q 1253 4750 1959 4750 
Q 2769 4750 3195 4129 
Q 3622 3509 3622 2328 
Q 3622 1225 3098 567 
Q 2575 -91 1691 -91 
Q 1453 -91 1209 -44 
Q 966 3 703 97 
z
M 1959 2075 
Q 2384 2075 2632 2365 
Q 2881 2656 2881 3163 
Q 2881 3666 2632 3958 
Q 2384 4250 1959 4250 
Q 1534 4250 1286 3958 
Q 1038 3666 1038 3163 
Q 1038 2656 1286 2365 
Q 1534 2075 1959 2075 
z
" transform="scale(0.015625)"/>
      </defs>
      <use xlink:href="#DejaVuSans-39"/>
     </g>
    </g>
   </g>
   <g id="text_11">
    <g clip-path="url(#pd436d63f02)">
     <!-- 10 -->
     <g transform="translate(318.057725 131.490682) scale(0.1 -0.1)">
      <use xlink:href="#DejaVuSans-31"/>
      <use xlink:href="#DejaVuSans-30" x="63.623047"/>
     </g>
    </g>
   </g>
   <g id="text_12">
    <g clip-path="url(#pd436d63f02)">
     <!-- 11 -->
     <g transform="translate(225.270898 75.670206) scale(0.1 -0.1)">
      <use xlink:href="#DejaVuSans-31"/>
      <use xlink:href="#DejaVuSans-31" x="63.623047"/>
     </g>
    </g>
   </g>
   <g id="text_13">
    <g clip-path="url(#pd436d63f02)">
     <!-- 12 -->
     <g transform="translate(355.445917 178.83616) scale(0.1 -0.1)">
      <use xlink:href="#DejaVuSans-31"/>
      <use xlink:href="#DejaVuSans-32" x="63.623047"/>
     </g>
    </g>
   </g>
   <g id="text_14">
    <g clip-path="url(#pd436d63f02)">
     <!-- 13 -->
     <g transform="translate(325.659133 185.674627) scale(0.1 -0.1)">
      <use xlink:href="#DejaVuSans-31"/>
      <use xlink:href="#DejaVuSans-33" x="63.623047"/>
     </g>
    </g>
   </g>
   <g id="text_15">
    <g clip-path="url(#pd436d63f02)">
     <!-- 14 -->
     <g transform="translate(392.146555 79.014965) scale(0.1 -0.1)">
      <use xlink:href="#DejaVuSans-31"/>
      <use xlink:href="#DejaVuSans-34" x="63.623047"/>
     </g>
    </g>
   </g>
   <g id="text_16">
    <g clip-path="url(#pd436d63f02)">
     <!-- 15 -->
     <g transform="translate(63.12207 67.651293) scale(0.1 -0.1)">
      <use xlink:href="#DejaVuSans-31"/>
      <use xlink:href="#DejaVuSans-35" x="63.623047"/>
     </g>
    </g>
   </g>
   <g id="text_17">
    <g clip-path="url(#pd436d63f02)">
     <!-- 16 -->
     <g transform="translate(69.733892 114.852972) scale(0.1 -0.1)">
      <use xlink:href="#DejaVuSans-31"/>
      <use xlink:href="#DejaVuSans-36" x="63.623047"/>
     </g>
    </g>
   </g>
   <g id="text_18">
    <g clip-path="url(#pd436d63f02)">
     <!-- 17 -->
     <g transform="translate(144.491935 151.980477) scale(0.1 -0.1)">
      <use xlink:href="#DejaVuSans-31"/>
      <use xlink:href="#DejaVuSans-37" x="63.623047"/>
     </g>
    </g>
   </g>
   <g id="text_19">
    <g clip-path="url(#pd436d63f02)">
     <!-- 18 -->
     <g transform="translate(33.624277 57.878359) scale(0.1 -0.1)">
      <use xlink:href="#DejaVuSans-31"/>
      <use xlink:href="#DejaVuSans-38" x="63.623047"/>
     </g>
    </g>
   </g>
   <g id="text_20">
    <g clip-path="url(#pd436d63f02)">
     <!-- 19 -->
     <g transform="translate(124.010919 210.024471) scale(0.1 -0.1)">
      <use xlink:href="#DejaVuSans-31"/>
      <use xlink:href="#DejaVuSans-39" x="63.623047"/>
     </g>
    </g>
   </g>
   <g id="text_21">
    <g clip-path="url(#pd436d63f02)">
     <!-- 20 -->
     <g transform="translate(157.930037 236.210564) scale(0.1 -0.1)">
      <use xlink:href="#DejaVuSans-32"/>
      <use xlink:href="#DejaVuSans-30" x="63.623047"/>
     </g>
    </g>
   </g>
   <g id="text_22">
    <g clip-path="url(#pd436d63f02)">
     <!-- 21 -->
     <g transform="translate(218.776109 247.994614) scale(0.1 -0.1)">
      <use xlink:href="#DejaVuSans-32"/>
      <use xlink:href="#DejaVuSans-31" x="63.623047"/>
     </g>
    </g>
   </g>
   <g id="text_23">
    <g clip-path="url(#pd436d63f02)">
     <!-- 22 -->
     <g transform="translate(252.424309 262.859415) scale(0.1 -0.1)">
      <use xlink:href="#DejaVuSans-32"/>
      <use xlink:href="#DejaVuSans-32" x="63.623047"/>
     </g>
    </g>
   </g>
   <g id="text_24">
    <g clip-path="url(#pd436d63f02)">
     <!-- 23 -->
     <g transform="translate(279.904728 232.803371) scale(0.1 -0.1)">
      <use xlink:href="#DejaVuSans-32"/>
      <use xlink:href="#DejaVuSans-33" x="63.623047"/>
     </g>
    </g>
   </g>
   <g id="text_25">
    <g clip-path="url(#pd436d63f02)">
     <!-- 24 -->
     <g transform="translate(272.040175 169.431584) scale(0.1 -0.1)">
      <use xlink:href="#DejaVuSans-32"/>
      <use xlink:href="#DejaVuSans-34" x="63.623047"/>
     </g>
    </g>
   </g>
   <g id="text_26">
    <g clip-path="url(#pd436d63f02)">
     <!-- 25 -->
     <g transform="translate(268.879017 112.206242) scale(0.1 -0.1)">
      <use xlink:href="#DejaVuSans-32"/>
      <use xlink:href="#DejaVuSans-35" x="63.623047"/>
     </g>
    </g>
   </g>
   <g id="text_27">
    <g clip-path="url(#pd436d63f02)">
     <!-- 26 -->
     <g transform="translate(179.430591 98.104888) scale(0.1 -0.1)">
      <use xlink:href="#DejaVuSans-32"/>
      <use xlink:href="#DejaVuSans-36" x="63.623047"/>
     </g>
    </g>
   </g>
  </g>
 </g>
 <defs>
  <clipPath id="pd436d63f02">
   <rect x="0" y="0" width="460.8" height="345.6"/>
  </clipPath>
 </defs>
</svg>
