<?xml version="1.0" encoding="utf-8" standalone="no"?>
<!DOCTYPE svg PUBLIC "-//W3C//DTD SVG 1.1//EN"
  "http://www.w3.org/Graphics/SVG/1.1/DTD/svg11.dtd">
<svg xmlns:xlink="http://www.w3.org/1999/xlink" width="460.8pt" height="345.6pt" viewBox="0 0 460.8 345.6" xmlns="http://www.w3.org/2000/svg" version="1.1">
 <metadata>
  <rdf:RDF xmlns:dc="http://purl.org/dc/elements/1.1/" xmlns:cc="http://creativecommons.org/ns#" xmlns:rdf="http://www.w3.org/1999/02/22-rdf-syntax-ns#">
   <cc:Work>
    <dc:type rdf:resource="http://purl.org/dc/dcmitype/StillImage"/>
    <dc:date>2024-02-28T11:18:01.032419</dc:date>
    <dc:format>image/svg+xml</dc:format>
    <dc:creator>
     <cc:Agent>
      <dc:title>Matplotlib v3.8.0, https://matplotlib.org/</dc:title>
     </cc:Agent>
    </dc:creator>
   </cc:Work>
  </rdf:RDF>
 </metadata>
 <defs>
  <style type="text/css">*{stroke-linejoin: round; stroke-linecap: butt}</style>
 </defs>
 <g id="figure_1">
  <g id="patch_1">
   <path d="M 0 345.6 
L 460.8 345.6 
L 460.8 0 
L 0 0 
z
" style="fill: #ffffff"/>
  </g>
  <g id="axes_1">
   <g id="patch_2">
    <path d="M 208.437582 157.823151 
Q 249.227238 161.423307 288.90319 164.925166 
" clip-path="url(#p50c2b74728)" style="fill: none; stroke: #000000; stroke-linecap: round"/>
    <path d="M 285.09452 162.581232 
L 288.90319 164.925166 
L 284.742841 166.565742 
z
" clip-path="url(#p50c2b74728)" style="stroke: #000000; stroke-linecap: round"/>
   </g>
   <g id="patch_3">
    <path d="M 208.437582 157.823151 
Q 249.227238 161.423307 288.90319 164.925166 
" clip-path="url(#p50c2b74728)" style="fill: none; stroke: #000000; stroke-linecap: round"/>
    <path d="M 285.09452 162.581232 
L 288.90319 164.925166 
L 284.742841 166.565742 
z
" clip-path="url(#p50c2b74728)" style="stroke: #000000; stroke-linecap: round"/>
   </g>
   <g id="patch_4">
    <path d="M 208.422272 157.938682 
Q 240.184708 162.6843 270.841384 167.264706 
" clip-path="url(#p50c2b74728)" style="fill: none; stroke: #000000; stroke-linecap: round"/>
    <path d="M 267.180836 164.695584 
L 270.841384 167.264706 
L 266.589758 168.651672 
z
" clip-path="url(#p50c2b74728)" style="stroke: #000000; stroke-linecap: round"/>
   </g>
   <g id="patch_5">
    <path d="M 358.693731 153.037192 
Q 326.271179 158.942213 294.948568 164.646905 
" clip-path="url(#p50c2b74728)" style="fill: none; stroke: #000000; stroke-linecap: round"/>
    <path d="M 299.242193 165.89782 
L 294.948568 164.646905 
L 298.525475 161.962554 
z
" clip-path="url(#p50c2b74728)" style="stroke: #000000; stroke-linecap: round"/>
   </g>
   <g id="patch_6">
    <path d="M 358.693731 153.037192 
Q 326.271179 158.942213 294.948568 164.646905 
" clip-path="url(#p50c2b74728)" style="fill: none; stroke: #000000; stroke-linecap: round"/>
    <path d="M 299.242193 165.89782 
L 294.948568 164.646905 
L 298.525475 161.962554 
z
" clip-path="url(#p50c2b74728)" style="stroke: #000000; stroke-linecap: round"/>
   </g>
   <g id="patch_7">
    <path d="M 358.691771 153.020564 
Q 317.230017 160.202903 276.86989 167.194409 
" clip-path="url(#p50c2b74728)" style="fill: none; stroke: #000000; stroke-linecap: round"/>
    <path d="M 281.152564 168.482316 
L 276.86989 167.194409 
L 280.46982 164.541014 
z
" clip-path="url(#p50c2b74728)" style="stroke: #000000; stroke-linecap: round"/>
   </g>
   <g id="patch_8">
    <path d="M 381.013867 129.940065 
Q 337.381041 147.210254 294.787779 164.068976 
" clip-path="url(#p50c2b74728)" style="fill: none; stroke: #000000; stroke-linecap: round"/>
    <path d="M 299.243094 164.456496 
L 294.787779 164.068976 
L 297.770984 160.737237 
z
" clip-path="url(#p50c2b74728)" style="stroke: #000000; stroke-linecap: round"/>
   </g>
   <g id="patch_9">
    <path d="M 380.98816 129.87256 
Q 328.337984 148.471369 276.742001 166.697783 
" clip-path="url(#p50c2b74728)" style="fill: none; stroke: #000000; stroke-linecap: round"/>
    <path d="M 281.179756 167.251254 
L 276.742001 166.697783 
L 279.847431 163.479662 
z
" clip-path="url(#p50c2b74728)" style="stroke: #000000; stroke-linecap: round"/>
   </g>
   <g id="patch_10">
    <path d="M 411.275422 168.858326 
Q 352.577613 167.055723 294.997312 165.287439 
" clip-path="url(#p50c2b74728)" style="fill: none; stroke: #000000; stroke-linecap: round"/>
    <path d="M 298.934036 167.409278 
L 294.997312 165.287439 
L 299.056817 163.411163 
z
" clip-path="url(#p50c2b74728)" style="stroke: #000000; stroke-linecap: round"/>
   </g>
   <g id="patch_11">
    <path d="M 411.27594 168.901074 
Q 343.534733 168.316754 276.911518 167.742078 
" clip-path="url(#p50c2b74728)" style="fill: none; stroke: #000000; stroke-linecap: round"/>
    <path d="M 280.894118 169.776505 
L 276.911518 167.742078 
L 280.92862 165.776654 
z
" clip-path="url(#p50c2b74728)" style="stroke: #000000; stroke-linecap: round"/>
   </g>
   <g id="patch_12">
    <path d="M 184.628985 202.87261 
Q 237.375435 184.353412 289.066981 166.204588 
" clip-path="url(#p50c2b74728)" style="fill: none; stroke: #000000; stroke-linecap: round"/>
    <path d="M 284.630295 165.642613 
L 289.066981 166.204588 
L 285.955389 169.416752 
z
" clip-path="url(#p50c2b74728)" style="stroke: #000000; stroke-linecap: round"/>
   </g>
   <g id="patch_13">
    <path d="M 184.603865 202.805615 
Q 228.331827 185.614605 271.019275 168.832658 
" clip-path="url(#p50c2b74728)" style="fill: none; stroke: #000000; stroke-linecap: round"/>
    <path d="M 266.564868 168.434838 
L 271.019275 168.832658 
L 268.028375 172.157491 
z
" clip-path="url(#p50c2b74728)" style="stroke: #000000; stroke-linecap: round"/>
   </g>
   <g id="patch_14">
    <path d="M 419.414679 31.327529 
Q 386.664551 62.646915 354.722444 93.193579 
" clip-path="url(#p50c2b74728)" style="fill: none; stroke: #000000; stroke-linecap: round"/>
    <path d="M 358.995601 91.874437 
L 354.722444 93.193579 
L 356.231025 88.983569 
z
" clip-path="url(#p50c2b74728)" style="stroke: #000000; stroke-linecap: round"/>
   </g>
   <g id="patch_15">
    <path d="M 391.64107 199.829675 
Q 342.707837 182.829336 294.830717 166.19591 
" clip-path="url(#p50c2b74728)" style="fill: none; stroke: #000000; stroke-linecap: round"/>
    <path d="M 297.952826 169.397853 
L 294.830717 166.19591 
L 299.265537 165.619389 
z
" clip-path="url(#p50c2b74728)" style="stroke: #000000; stroke-linecap: round"/>
   </g>
   <g id="patch_16">
    <path d="M 391.606898 199.955118 
Q 333.66606 184.090752 276.803567 168.521639 
" clip-path="url(#p50c2b74728)" style="fill: none; stroke: #000000; stroke-linecap: round"/>
    <path d="M 280.133401 171.50697 
L 276.803567 168.521639 
L 281.189733 167.64897 
z
" clip-path="url(#p50c2b74728)" style="stroke: #000000; stroke-linecap: round"/>
   </g>
   <g id="patch_17">
    <path d="M 353.914478 93.966248 
Q 386.664607 62.646861 418.606713 32.100198 
" clip-path="url(#p50c2b74728)" style="fill: none; stroke: #000000; stroke-linecap: round"/>
    <path d="M 414.333557 33.419339 
L 418.606713 32.100198 
L 417.098133 36.310208 
z
" clip-path="url(#p50c2b74728)" style="stroke: #000000; stroke-linecap: round"/>
   </g>
   <g id="patch_18">
    <path d="M 351.092509 96.61413 
Q 313.189369 131.508564 276.108769 165.64575 
" clip-path="url(#p50c2b74728)" style="fill: none; stroke: #000000; stroke-linecap: round"/>
    <path d="M 280.40619 164.407941 
L 276.108769 165.64575 
L 277.696974 161.465128 
z
" clip-path="url(#p50c2b74728)" style="stroke: #000000; stroke-linecap: round"/>
   </g>
   <g id="patch_19">
    <path d="M 351.246053 96.768979 
Q 322.230369 130.249458 293.94691 162.885043 
" clip-path="url(#p50c2b74728)" style="fill: none; stroke: #000000; stroke-linecap: round"/>
    <path d="M 298.077989 161.172096 
L 293.94691 162.885043 
L 295.0552 158.552411 
z
" clip-path="url(#p50c2b74728)" style="stroke: #000000; stroke-linecap: round"/>
   </g>
   <g id="patch_20">
    <path d="M 209.031416 313.878732 
Q 226.044721 279.524475 242.561853 246.172121 
" clip-path="url(#p50c2b74728)" style="fill: none; stroke: #000000; stroke-linecap: round"/>
    <path d="M 238.994426 248.869058 
L 242.561853 246.172121 
L 242.578946 250.644224 
z
" clip-path="url(#p50c2b74728)" style="stroke: #000000; stroke-linecap: round"/>
   </g>
   <g id="patch_21">
    <path d="M 41.830476 88.784403 
Q 103.847659 108.530352 164.799504 127.937104 
" clip-path="url(#p50c2b74728)" style="fill: none; stroke: #000000; stroke-linecap: round"/>
    <path d="M 161.594811 124.817818 
L 164.799504 127.937104 
L 160.381259 128.629286 
z
" clip-path="url(#p50c2b74728)" style="stroke: #000000; stroke-linecap: round"/>
   </g>
   <g id="patch_22">
    <path d="M 243.058754 245.168749 
Q 226.045448 279.523006 209.528317 312.87536 
" clip-path="url(#p50c2b74728)" style="fill: none; stroke: #000000; stroke-linecap: round"/>
    <path d="M 213.095744 310.178424 
L 209.528317 312.87536 
L 209.511224 308.403257 
z
" clip-path="url(#p50c2b74728)" style="stroke: #000000; stroke-linecap: round"/>
   </g>
   <g id="patch_23">
    <path d="M 244.928931 241.787586 
Q 267.930292 204.316953 290.346755 167.799155 
" clip-path="url(#p50c2b74728)" style="fill: none; stroke: #000000; stroke-linecap: round"/>
    <path d="M 286.549678 170.161823 
L 290.346755 167.799155 
L 289.958644 172.254418 
z
" clip-path="url(#p50c2b74728)" style="stroke: #000000; stroke-linecap: round"/>
   </g>
   <g id="patch_24">
    <path d="M 244.627046 241.639726 
Q 258.887704 205.577878 272.737215 170.555722 
" clip-path="url(#p50c2b74728)" style="fill: none; stroke: #000000; stroke-linecap: round"/>
    <path d="M 269.406397 173.539956 
L 272.737215 170.555722 
L 273.126111 175.010917 
z
" clip-path="url(#p50c2b74728)" style="stroke: #000000; stroke-linecap: round"/>
   </g>
   <g id="patch_25">
    <path d="M 276.877998 108.96276 
Q 284.161432 136.14301 291.155478 162.243328 
" clip-path="url(#p50c2b74728)" style="fill: none; stroke: #000000; stroke-linecap: round"/>
    <path d="M 292.051977 157.861971 
L 291.155478 162.243328 
L 288.188292 158.897314 
z
" clip-path="url(#p50c2b74728)" style="stroke: #000000; stroke-linecap: round"/>
   </g>
   <g id="patch_26">
    <path d="M 276.296873 109.029082 
Q 275.118804 137.403502 273.987115 164.660851 
" clip-path="url(#p50c2b74728)" style="fill: none; stroke: #000000; stroke-linecap: round"/>
    <path d="M 276.151325 160.747261 
L 273.987115 164.660851 
L 272.154768 160.581329 
z
" clip-path="url(#p50c2b74728)" style="stroke: #000000; stroke-linecap: round"/>
   </g>
   <g id="patch_27">
    <path d="M 157.958165 172.963467 
Q 223.985083 169.134679 288.895843 165.370615 
" clip-path="url(#p50c2b74728)" style="fill: none; stroke: #000000; stroke-linecap: round"/>
    <path d="M 284.786769 163.605534 
L 288.895843 165.370615 
L 285.018333 167.598825 
z
" clip-path="url(#p50c2b74728)" style="stroke: #000000; stroke-linecap: round"/>
   </g>
   <g id="patch_28">
    <path d="M 157.952143 172.98796 
Q 214.938777 170.395864 270.808532 167.85457 
" clip-path="url(#p50c2b74728)" style="fill: none; stroke: #000000; stroke-linecap: round"/>
    <path d="M 266.721785 166.038392 
L 270.808532 167.85457 
L 266.903542 170.034261 
z
" clip-path="url(#p50c2b74728)" style="stroke: #000000; stroke-linecap: round"/>
   </g>
   <g id="patch_29">
    <path d="M 290.019314 165.023676 
Q 249.229657 161.42352 209.553705 157.921661 
" clip-path="url(#p50c2b74728)" style="fill: none; stroke: #000000; stroke-linecap: round"/>
    <path d="M 213.362376 160.265595 
L 209.553705 157.921661 
L 213.714055 156.281085 
z
" clip-path="url(#p50c2b74728)" style="stroke: #000000; stroke-linecap: round"/>
   </g>
   <g id="patch_30">
    <path d="M 290.019314 165.023676 
Q 249.229657 161.42352 209.553705 157.921661 
" clip-path="url(#p50c2b74728)" style="fill: none; stroke: #000000; stroke-linecap: round"/>
    <path d="M 213.362376 160.265595 
L 209.553705 157.921661 
L 213.714055 156.281085 
z
" clip-path="url(#p50c2b74728)" style="stroke: #000000; stroke-linecap: round"/>
   </g>
   <g id="patch_31">
    <path d="M 293.852689 164.846494 
Q 326.27524 158.941473 357.597851 153.236781 
" clip-path="url(#p50c2b74728)" style="fill: none; stroke: #000000; stroke-linecap: round"/>
    <path d="M 353.304226 151.985866 
L 357.597851 153.236781 
L 354.020944 155.921132 
z
" clip-path="url(#p50c2b74728)" style="stroke: #000000; stroke-linecap: round"/>
   </g>
   <g id="patch_32">
    <path d="M 293.852689 164.846494 
Q 326.27524 158.941473 357.597851 153.236781 
" clip-path="url(#p50c2b74728)" style="fill: none; stroke: #000000; stroke-linecap: round"/>
    <path d="M 353.304226 151.985866 
L 357.597851 153.236781 
L 354.020944 155.921132 
z
" clip-path="url(#p50c2b74728)" style="stroke: #000000; stroke-linecap: round"/>
   </g>
   <g id="patch_33">
    <path d="M 293.745806 164.481397 
Q 337.378632 147.211208 379.971894 130.352486 
" clip-path="url(#p50c2b74728)" style="fill: none; stroke: #000000; stroke-linecap: round"/>
    <path d="M 375.516579 129.964966 
L 379.971894 130.352486 
L 376.988689 133.684226 
z
" clip-path="url(#p50c2b74728)" style="stroke: #000000; stroke-linecap: round"/>
   </g>
   <g id="patch_34">
    <path d="M 293.881563 165.253175 
Q 352.579372 167.055777 410.159673 168.824061 
" clip-path="url(#p50c2b74728)" style="fill: none; stroke: #000000; stroke-linecap: round"/>
    <path d="M 406.222949 166.702222 
L 410.159673 168.824061 
L 406.100167 170.700337 
z
" clip-path="url(#p50c2b74728)" style="stroke: #000000; stroke-linecap: round"/>
   </g>
   <g id="patch_35">
    <path d="M 290.117448 165.835771 
Q 237.370998 184.354969 185.679452 202.503793 
" clip-path="url(#p50c2b74728)" style="fill: none; stroke: #000000; stroke-linecap: round"/>
    <path d="M 190.116138 203.065768 
L 185.679452 202.503793 
L 188.791043 199.291629 
z
" clip-path="url(#p50c2b74728)" style="stroke: #000000; stroke-linecap: round"/>
   </g>
   <g id="patch_36">
    <path d="M 293.777206 165.8299 
Q 342.710438 182.830239 390.587558 199.463665 
" clip-path="url(#p50c2b74728)" style="fill: none; stroke: #000000; stroke-linecap: round"/>
    <path d="M 387.46545 196.261722 
L 390.587558 199.463665 
L 386.152739 200.040186 
z
" clip-path="url(#p50c2b74728)" style="stroke: #000000; stroke-linecap: round"/>
   </g>
   <g id="patch_37">
    <path d="M 293.215974 163.728452 
Q 322.231658 130.247972 350.515117 97.612388 
" clip-path="url(#p50c2b74728)" style="fill: none; stroke: #000000; stroke-linecap: round"/>
    <path d="M 346.384038 99.325335 
L 350.515117 97.612388 
L 349.406827 101.945019 
z
" clip-path="url(#p50c2b74728)" style="stroke: #000000; stroke-linecap: round"/>
   </g>
   <g id="patch_38">
    <path d="M 290.933253 166.843715 
Q 267.931891 204.314348 245.515428 240.832146 
" clip-path="url(#p50c2b74728)" style="fill: none; stroke: #000000; stroke-linecap: round"/>
    <path d="M 249.312506 238.469477 
L 245.515428 240.832146 
L 245.90354 236.376883 
z
" clip-path="url(#p50c2b74728)" style="stroke: #000000; stroke-linecap: round"/>
   </g>
   <g id="patch_39">
    <path d="M 291.445311 163.324926 
Q 284.161878 136.144676 277.167832 110.044359 
" clip-path="url(#p50c2b74728)" style="fill: none; stroke: #000000; stroke-linecap: round"/>
    <path d="M 276.271333 114.425716 
L 277.167832 110.044359 
L 280.135018 113.390372 
z
" clip-path="url(#p50c2b74728)" style="stroke: #000000; stroke-linecap: round"/>
   </g>
   <g id="patch_40">
    <path d="M 290.008928 165.306069 
Q 223.982009 169.134858 159.07125 172.898922 
" clip-path="url(#p50c2b74728)" style="fill: none; stroke: #000000; stroke-linecap: round"/>
    <path d="M 163.180323 174.664003 
L 159.07125 172.898922 
L 162.948759 170.670712 
z
" clip-path="url(#p50c2b74728)" style="stroke: #000000; stroke-linecap: round"/>
   </g>
   <g id="patch_41">
    <path d="M 290.025358 165.461578 
Q 282.899857 166.455212 276.881676 167.294432 
" clip-path="url(#p50c2b74728)" style="fill: none; stroke: #000000; stroke-linecap: round"/>
    <path d="M 281.119566 168.722821 
L 276.881676 167.294432 
L 280.567121 164.761154 
z
" clip-path="url(#p50c2b74728)" style="stroke: #000000; stroke-linecap: round"/>
   </g>
   <g id="patch_42">
    <path d="M 290.084562 164.649377 
Q 229.826633 147.028385 170.641797 129.721194 
" clip-path="url(#p50c2b74728)" style="fill: none; stroke: #000000; stroke-linecap: round"/>
    <path d="M 173.919669 132.763488 
L 170.641797 129.721194 
L 175.042356 128.924273 
z
" clip-path="url(#p50c2b74728)" style="stroke: #000000; stroke-linecap: round"/>
   </g>
   <g id="patch_43">
    <path d="M 293.471705 166.383623 
Q 311.877593 180.739115 329.401883 194.407012 
" clip-path="url(#p50c2b74728)" style="fill: none; stroke: #000000; stroke-linecap: round"/>
    <path d="M 327.477787 190.369952 
L 329.401883 194.407012 
L 325.017777 193.524053 
z
" clip-path="url(#p50c2b74728)" style="stroke: #000000; stroke-linecap: round"/>
   </g>
   <g id="patch_44">
    <path d="M 292.918045 166.866473 
Q 309.292227 195.046524 325.104706 222.259884 
" clip-path="url(#p50c2b74728)" style="fill: none; stroke: #000000; stroke-linecap: round"/>
    <path d="M 324.824372 217.796543 
L 325.104706 222.259884 
L 321.365833 219.806147 
z
" clip-path="url(#p50c2b74728)" style="stroke: #000000; stroke-linecap: round"/>
   </g>
   <g id="patch_45">
    <path d="M 290.385649 164.048869 
Q 267.126322 146.983938 244.768434 130.580377 
" clip-path="url(#p50c2b74728)" style="fill: none; stroke: #000000; stroke-linecap: round"/>
    <path d="M 246.810426 134.559103 
L 244.768434 130.580377 
L 249.176611 131.334018 
z
" clip-path="url(#p50c2b74728)" style="stroke: #000000; stroke-linecap: round"/>
   </g>
   <g id="patch_46">
    <path d="M 290.505081 166.4916 
Q 270.044422 184.919731 250.414518 202.599632 
" clip-path="url(#p50c2b74728)" style="fill: none; stroke: #000000; stroke-linecap: round"/>
    <path d="M 254.725189 201.408786 
L 250.414518 202.599632 
L 252.048244 198.436587 
z
" clip-path="url(#p50c2b74728)" style="stroke: #000000; stroke-linecap: round"/>
   </g>
   <g id="patch_47">
    <path d="M 271.94881 167.430166 
Q 240.186374 162.684549 209.529699 158.104143 
" clip-path="url(#p50c2b74728)" style="fill: none; stroke: #000000; stroke-linecap: round"/>
    <path d="M 213.190247 160.673264 
L 209.529699 158.104143 
L 213.781325 156.717177 
z
" clip-path="url(#p50c2b74728)" style="stroke: #000000; stroke-linecap: round"/>
   </g>
   <g id="patch_48">
    <path d="M 275.768835 167.385143 
Q 317.230589 160.202804 357.590716 153.211298 
" clip-path="url(#p50c2b74728)" style="fill: none; stroke: #000000; stroke-linecap: round"/>
    <path d="M 353.308042 151.923391 
L 357.590716 153.211298 
L 353.990786 155.864693 
z
" clip-path="url(#p50c2b74728)" style="stroke: #000000; stroke-linecap: round"/>
   </g>
   <g id="patch_49">
    <path d="M 275.685699 167.070924 
Q 328.335875 148.472115 379.931859 130.245701 
" clip-path="url(#p50c2b74728)" style="fill: none; stroke: #000000; stroke-linecap: round"/>
    <path d="M 375.494104 129.69223 
L 379.931859 130.245701 
L 376.826429 133.463822 
z
" clip-path="url(#p50c2b74728)" style="stroke: #000000; stroke-linecap: round"/>
   </g>
   <g id="patch_50">
    <path d="M 275.795232 167.732449 
Q 343.536439 168.316768 410.159654 168.891445 
" clip-path="url(#p50c2b74728)" style="fill: none; stroke: #000000; stroke-linecap: round"/>
    <path d="M 406.177053 166.857017 
L 410.159654 168.891445 
L 406.142552 170.856869 
z
" clip-path="url(#p50c2b74728)" style="stroke: #000000; stroke-linecap: round"/>
   </g>
   <g id="patch_51">
    <path d="M 272.056754 168.424788 
Q 228.328793 185.615798 185.641345 202.397745 
" clip-path="url(#p50c2b74728)" style="fill: none; stroke: #000000; stroke-linecap: round"/>
    <path d="M 190.095751 202.795565 
L 185.641345 202.397745 
L 188.632244 199.072911 
z
" clip-path="url(#p50c2b74728)" style="stroke: #000000; stroke-linecap: round"/>
   </g>
   <g id="patch_52">
    <path d="M 275.725565 168.226479 
Q 333.666402 184.090845 390.528895 199.659958 
" clip-path="url(#p50c2b74728)" style="fill: none; stroke: #000000; stroke-linecap: round"/>
    <path d="M 387.199061 196.674626 
L 390.528895 199.659958 
L 386.142729 200.532626 
z
" clip-path="url(#p50c2b74728)" style="stroke: #000000; stroke-linecap: round"/>
   </g>
   <g id="patch_53">
    <path d="M 275.283704 166.405323 
Q 313.186845 131.510888 350.267444 97.373702 
" clip-path="url(#p50c2b74728)" style="fill: none; stroke: #000000; stroke-linecap: round"/>
    <path d="M 345.970023 98.611511 
L 350.267444 97.373702 
L 348.679239 101.554324 
z
" clip-path="url(#p50c2b74728)" style="stroke: #000000; stroke-linecap: round"/>
   </g>
   <g id="patch_54">
    <path d="M 273.149324 169.513597 
Q 258.888666 205.575444 245.039155 240.5976 
" clip-path="url(#p50c2b74728)" style="fill: none; stroke: #000000; stroke-linecap: round"/>
    <path d="M 248.369973 237.613366 
L 245.039155 240.5976 
L 244.650259 236.142405 
z
" clip-path="url(#p50c2b74728)" style="stroke: #000000; stroke-linecap: round"/>
   </g>
   <g id="patch_55">
    <path d="M 273.940623 165.780626 
Q 275.118692 137.406205 276.250382 110.148856 
" clip-path="url(#p50c2b74728)" style="fill: none; stroke: #000000; stroke-linecap: round"/>
    <path d="M 274.086171 114.062447 
L 276.250382 110.148856 
L 278.082728 114.228379 
z
" clip-path="url(#p50c2b74728)" style="stroke: #000000; stroke-linecap: round"/>
   </g>
   <g id="patch_56">
    <path d="M 271.929136 167.803598 
Q 214.942502 170.395695 159.072747 172.936988 
" clip-path="url(#p50c2b74728)" style="fill: none; stroke: #000000; stroke-linecap: round"/>
    <path d="M 163.159493 174.753166 
L 159.072747 172.936988 
L 162.977737 170.757298 
z
" clip-path="url(#p50c2b74728)" style="stroke: #000000; stroke-linecap: round"/>
   </g>
   <g id="patch_57">
    <path d="M 275.781014 167.447917 
Q 282.906514 166.454283 288.924695 165.615063 
" clip-path="url(#p50c2b74728)" style="fill: none; stroke: #000000; stroke-linecap: round"/>
    <path d="M 284.686806 164.186674 
L 288.924695 165.615063 
L 285.23925 168.148341 
z
" clip-path="url(#p50c2b74728)" style="stroke: #000000; stroke-linecap: round"/>
   </g>
   <g id="patch_58">
    <path d="M 272.042993 167.050613 
Q 220.786833 148.290331 170.580591 129.91433 
" clip-path="url(#p50c2b74728)" style="fill: none; stroke: #000000; stroke-linecap: round"/>
    <path d="M 173.64947 133.167325 
L 170.580591 129.91433 
L 175.024315 129.411024 
z
" clip-path="url(#p50c2b74728)" style="stroke: #000000; stroke-linecap: round"/>
   </g>
   <g id="patch_59">
    <path d="M 272.042993 167.050613 
Q 220.786833 148.290331 170.580591 129.91433 
" clip-path="url(#p50c2b74728)" style="fill: none; stroke: #000000; stroke-linecap: round"/>
    <path d="M 173.64947 133.167325 
L 170.580591 129.91433 
L 175.024315 129.411024 
z
" clip-path="url(#p50c2b74728)" style="stroke: #000000; stroke-linecap: round"/>
   </g>
   <g id="patch_60">
    <path d="M 275.596978 168.571971 
Q 302.83449 182.000381 329.069215 194.934406 
" clip-path="url(#p50c2b74728)" style="fill: none; stroke: #000000; stroke-linecap: round"/>
    <path d="M 326.365918 191.371797 
L 329.069215 194.934406 
L 324.597149 194.959478 
z
" clip-path="url(#p50c2b74728)" style="stroke: #000000; stroke-linecap: round"/>
   </g>
   <g id="patch_61">
    <path d="M 275.596978 168.571971 
Q 302.83449 182.000381 329.069215 194.934406 
" clip-path="url(#p50c2b74728)" style="fill: none; stroke: #000000; stroke-linecap: round"/>
    <path d="M 326.365918 191.371797 
L 329.069215 194.934406 
L 324.597149 194.959478 
z
" clip-path="url(#p50c2b74728)" style="stroke: #000000; stroke-linecap: round"/>
   </g>
   <g id="patch_62">
    <path d="M 275.171395 169.13634 
Q 300.247549 196.306122 324.565423 222.654313 
" clip-path="url(#p50c2b74728)" style="fill: none; stroke: #000000; stroke-linecap: round"/>
    <path d="M 323.322221 218.358449 
L 324.565423 222.654313 
L 320.38281 221.071357 
z
" clip-path="url(#p50c2b74728)" style="stroke: #000000; stroke-linecap: round"/>
   </g>
   <g id="patch_63">
    <path d="M 272.641047 166.211132 
Q 258.082047 148.244205 244.22693 131.145925 
" clip-path="url(#p50c2b74728)" style="fill: none; stroke: #000000; stroke-linecap: round"/>
    <path d="M 245.191339 135.512836 
L 244.22693 131.145925 
L 248.299105 132.994545 
z
" clip-path="url(#p50c2b74728)" style="stroke: #000000; stroke-linecap: round"/>
   </g>
   <g id="patch_64">
    <path d="M 272.641047 166.211132 
Q 258.082047 148.244205 244.22693 131.145925 
" clip-path="url(#p50c2b74728)" style="fill: none; stroke: #000000; stroke-linecap: round"/>
    <path d="M 245.191339 135.512836 
L 244.22693 131.145925 
L 248.299105 132.994545 
z
" clip-path="url(#p50c2b74728)" style="stroke: #000000; stroke-linecap: round"/>
   </g>
   <g id="patch_65">
    <path d="M 272.753697 169.304813 
Q 261.002174 186.180028 249.889569 202.137754 
" clip-path="url(#p50c2b74728)" style="fill: none; stroke: #000000; stroke-linecap: round"/>
    <path d="M 253.816684 199.998182 
L 249.889569 202.137754 
L 250.53418 197.712319 
z
" clip-path="url(#p50c2b74728)" style="stroke: #000000; stroke-linecap: round"/>
   </g>
   <g id="patch_66">
    <path d="M 272.753697 169.304813 
Q 261.002174 186.180028 249.889569 202.137754 
" clip-path="url(#p50c2b74728)" style="fill: none; stroke: #000000; stroke-linecap: round"/>
    <path d="M 253.816684 199.998182 
L 249.889569 202.137754 
L 250.53418 197.712319 
z
" clip-path="url(#p50c2b74728)" style="stroke: #000000; stroke-linecap: round"/>
   </g>
   <g id="patch_67">
    <path d="M 165.868961 128.277613 
Q 103.851778 108.531664 42.899934 89.124913 
" clip-path="url(#p50c2b74728)" style="fill: none; stroke: #000000; stroke-linecap: round"/>
    <path d="M 46.104626 92.244199 
L 42.899934 89.124913 
L 47.318178 88.43273 
z
" clip-path="url(#p50c2b74728)" style="stroke: #000000; stroke-linecap: round"/>
   </g>
   <g id="patch_68">
    <path d="M 169.57419 129.408998 
Q 229.83212 147.029989 289.016956 164.337181 
" clip-path="url(#p50c2b74728)" style="fill: none; stroke: #000000; stroke-linecap: round"/>
    <path d="M 285.739084 161.294886 
L 289.016956 164.337181 
L 284.616397 165.134101 
z
" clip-path="url(#p50c2b74728)" style="stroke: #000000; stroke-linecap: round"/>
   </g>
   <g id="patch_69">
    <path d="M 169.529946 129.529783 
Q 220.786106 148.290065 270.992349 166.666066 
" clip-path="url(#p50c2b74728)" style="fill: none; stroke: #000000; stroke-linecap: round"/>
    <path d="M 267.92347 163.41307 
L 270.992349 166.666066 
L 266.548625 167.169372 
z
" clip-path="url(#p50c2b74728)" style="stroke: #000000; stroke-linecap: round"/>
   </g>
   <g id="patch_70">
    <path d="M 169.529946 129.529783 
Q 220.786106 148.290065 270.992349 166.666066 
" clip-path="url(#p50c2b74728)" style="fill: none; stroke: #000000; stroke-linecap: round"/>
    <path d="M 267.92347 163.41307 
L 270.992349 166.666066 
L 266.548625 167.169372 
z
" clip-path="url(#p50c2b74728)" style="stroke: #000000; stroke-linecap: round"/>
   </g>
   <g id="patch_71">
    <path d="M 330.285939 195.096523 
Q 311.880051 180.741032 294.355762 167.073134 
" clip-path="url(#p50c2b74728)" style="fill: none; stroke: #000000; stroke-linecap: round"/>
    <path d="M 296.279857 171.110195 
L 294.355762 167.073134 
L 298.739867 167.956094 
z
" clip-path="url(#p50c2b74728)" style="stroke: #000000; stroke-linecap: round"/>
   </g>
   <g id="patch_72">
    <path d="M 330.074853 195.430198 
Q 302.837341 182.001787 276.602617 169.067763 
" clip-path="url(#p50c2b74728)" style="fill: none; stroke: #000000; stroke-linecap: round"/>
    <path d="M 279.305914 172.630372 
L 276.602617 169.067763 
L 281.074682 169.042691 
z
" clip-path="url(#p50c2b74728)" style="stroke: #000000; stroke-linecap: round"/>
   </g>
   <g id="patch_73">
    <path d="M 330.074853 195.430198 
Q 302.837341 182.001787 276.602617 169.067763 
" clip-path="url(#p50c2b74728)" style="fill: none; stroke: #000000; stroke-linecap: round"/>
    <path d="M 279.305914 172.630372 
L 276.602617 169.067763 
L 281.074682 169.042691 
z
" clip-path="url(#p50c2b74728)" style="stroke: #000000; stroke-linecap: round"/>
   </g>
   <g id="patch_74">
    <path d="M 325.667994 223.229304 
Q 309.293812 195.049253 293.481333 167.835893 
" clip-path="url(#p50c2b74728)" style="fill: none; stroke: #000000; stroke-linecap: round"/>
    <path d="M 293.761667 172.299234 
L 293.481333 167.835893 
L 297.220206 170.28963 
z
" clip-path="url(#p50c2b74728)" style="stroke: #000000; stroke-linecap: round"/>
   </g>
   <g id="patch_75">
    <path d="M 325.328831 223.481458 
Q 300.252676 196.311677 275.934803 169.963485 
" clip-path="url(#p50c2b74728)" style="fill: none; stroke: #000000; stroke-linecap: round"/>
    <path d="M 277.178005 174.259349 
L 275.934803 169.963485 
L 280.117415 171.546442 
z
" clip-path="url(#p50c2b74728)" style="stroke: #000000; stroke-linecap: round"/>
   </g>
   <g id="patch_76">
    <path d="M 243.863219 129.916238 
Q 267.122546 146.981168 289.480434 163.38473 
" clip-path="url(#p50c2b74728)" style="fill: none; stroke: #000000; stroke-linecap: round"/>
    <path d="M 287.438441 159.406003 
L 289.480434 163.38473 
L 285.072257 162.631088 
z
" clip-path="url(#p50c2b74728)" style="stroke: #000000; stroke-linecap: round"/>
   </g>
   <g id="patch_77">
    <path d="M 243.522008 130.275996 
Q 258.081008 148.242923 271.936124 165.341203 
" clip-path="url(#p50c2b74728)" style="fill: none; stroke: #000000; stroke-linecap: round"/>
    <path d="M 270.971715 160.974291 
L 271.936124 165.341203 
L 267.86395 163.492583 
z
" clip-path="url(#p50c2b74728)" style="stroke: #000000; stroke-linecap: round"/>
   </g>
   <g id="patch_78">
    <path d="M 243.522008 130.275996 
Q 258.081008 148.242923 271.936124 165.341203 
" clip-path="url(#p50c2b74728)" style="fill: none; stroke: #000000; stroke-linecap: round"/>
    <path d="M 270.971715 160.974291 
L 271.936124 165.341203 
L 267.86395 163.492583 
z
" clip-path="url(#p50c2b74728)" style="stroke: #000000; stroke-linecap: round"/>
   </g>
   <g id="patch_79">
    <path d="M 249.58463 203.34708 
Q 270.045289 184.91895 289.675193 167.239049 
" clip-path="url(#p50c2b74728)" style="fill: none; stroke: #000000; stroke-linecap: round"/>
    <path d="M 285.364522 168.429895 
L 289.675193 167.239049 
L 288.041467 171.402093 
z
" clip-path="url(#p50c2b74728)" style="stroke: #000000; stroke-linecap: round"/>
   </g>
   <g id="patch_80">
    <path d="M 249.250201 203.055889 
Q 261.001723 186.180675 272.114328 170.222948 
" clip-path="url(#p50c2b74728)" style="fill: none; stroke: #000000; stroke-linecap: round"/>
    <path d="M 268.187214 172.362521 
L 272.114328 170.222948 
L 271.469718 174.648383 
z
" clip-path="url(#p50c2b74728)" style="stroke: #000000; stroke-linecap: round"/>
   </g>
   <g id="patch_81">
    <path d="M 249.250201 203.055889 
Q 261.001723 186.180675 272.114328 170.222948 
" clip-path="url(#p50c2b74728)" style="fill: none; stroke: #000000; stroke-linecap: round"/>
    <path d="M 268.187214 172.362521 
L 272.114328 170.222948 
L 271.469718 174.648383 
z
" clip-path="url(#p50c2b74728)" style="stroke: #000000; stroke-linecap: round"/>
   </g>
   <g id="PathCollection_1">
    <defs>
     <path id="mcd2ae1e8c0" d="M 0 1.936492 
C 0.513564 1.936492 1.006162 1.732451 1.369306 1.369306 
C 1.732451 1.006162 1.936492 0.513564 1.936492 0 
C 1.936492 -0.513564 1.732451 -1.006162 1.369306 -1.369306 
C 1.006162 -1.732451 0.513564 -1.936492 0 -1.936492 
C -0.513564 -1.936492 -1.006162 -1.732451 -1.369306 -1.369306 
C -1.732451 -1.006162 -1.936492 -0.513564 -1.936492 0 
C -1.936492 0.513564 -1.732451 1.006162 -1.369306 1.369306 
C -1.006162 1.732451 -0.513564 1.936492 0 1.936492 
z
" style="stroke: #1f78b4"/>
    </defs>
    <g clip-path="url(#p50c2b74728)">
     <use xlink:href="#mcd2ae1e8c0" x="206.510803" y="157.65309" style="fill: #1f78b4; stroke: #1f78b4"/>
     <use xlink:href="#mcd2ae1e8c0" x="360.600327" y="152.689949" style="fill: #1f78b4; stroke: #1f78b4"/>
     <use xlink:href="#mcd2ae1e8c0" x="382.81358" y="129.227726" style="fill: #1f78b4; stroke: #1f78b4"/>
     <use xlink:href="#mcd2ae1e8c0" x="413.210892" y="168.917764" style="fill: #1f78b4; stroke: #1f78b4"/>
     <use xlink:href="#mcd2ae1e8c0" x="182.80034" y="203.514644" style="fill: #1f78b4; stroke: #1f78b4"/>
     <use xlink:href="#mcd2ae1e8c0" x="420.813223" y="29.990083" style="fill: #1f78b4; stroke: #1f78b4"/>
     <use xlink:href="#mcd2ae1e8c0" x="393.472183" y="200.465839" style="fill: #1f78b4; stroke: #1f78b4"/>
     <use xlink:href="#mcd2ae1e8c0" x="352.515935" y="95.303694" style="fill: #1f78b4; stroke: #1f78b4"/>
     <use xlink:href="#mcd2ae1e8c0" x="208.174079" y="315.609917" style="fill: #1f78b4; stroke: #1f78b4"/>
     <use xlink:href="#mcd2ae1e8c0" x="39.986777" y="88.197379" style="fill: #1f78b4; stroke: #1f78b4"/>
     <use xlink:href="#mcd2ae1e8c0" x="243.916091" y="243.437564" style="fill: #1f78b4; stroke: #1f78b4"/>
     <use xlink:href="#mcd2ae1e8c0" x="276.377217" y="107.09395" style="fill: #1f78b4; stroke: #1f78b4"/>
     <use xlink:href="#mcd2ae1e8c0" x="156.021" y="173.0758" style="fill: #1f78b4; stroke: #1f78b4"/>
     <use xlink:href="#mcd2ae1e8c0" x="291.946092" y="165.193737" style="fill: #1f78b4; stroke: #1f78b4"/>
     <use xlink:href="#mcd2ae1e8c0" x="273.860279" y="167.715758" style="fill: #1f78b4; stroke: #1f78b4"/>
     <use xlink:href="#mcd2ae1e8c0" x="167.71266" y="128.864638" style="fill: #1f78b4; stroke: #1f78b4"/>
     <use xlink:href="#mcd2ae1e8c0" x="331.811552" y="196.28641" style="fill: #1f78b4; stroke: #1f78b4"/>
     <use xlink:href="#mcd2ae1e8c0" x="326.639947" y="224.90204" style="fill: #1f78b4; stroke: #1f78b4"/>
     <use xlink:href="#mcd2ae1e8c0" x="242.302775" y="128.77137" style="fill: #1f78b4; stroke: #1f78b4"/>
     <use xlink:href="#mcd2ae1e8c0" x="248.143618" y="204.644944" style="fill: #1f78b4; stroke: #1f78b4"/>
    </g>
   </g>
   <g id="text_1">
    <g clip-path="url(#p50c2b74728)">
     <!-- 0 -->
     <g transform="translate(203.329553 160.412465) scale(0.1 -0.1)">
      <defs>
       <path id="DejaVuSans-30" d="M 2034 4250 
Q 1547 4250 1301 3770 
Q 1056 3291 1056 2328 
Q 1056 1369 1301 889 
Q 1547 409 2034 409 
Q 2525 409 2770 889 
Q 3016 1369 3016 2328 
Q 3016 3291 2770 3770 
Q 2525 4250 2034 4250 
z
M 2034 4750 
Q 2819 4750 3233 4129 
Q 3647 3509 3647 2328 
Q 3647 1150 3233 529 
Q 2819 -91 2034 -91 
Q 1250 -91 836 529 
Q 422 1150 422 2328 
Q 422 3509 836 4129 
Q 1250 4750 2034 4750 
z
" transform="scale(0.015625)"/>
      </defs>
      <use xlink:href="#DejaVuSans-30"/>
     </g>
    </g>
   </g>
   <g id="text_2">
    <g clip-path="url(#p50c2b74728)">
     <!-- 1 -->
     <g transform="translate(357.419077 155.449324) scale(0.1 -0.1)">
      <defs>
       <path id="DejaVuSans-31" d="M 794 531 
L 1825 531 
L 1825 4091 
L 703 3866 
L 703 4441 
L 1819 4666 
L 2450 4666 
L 2450 531 
L 3481 531 
L 3481 0 
L 794 0 
L 794 531 
z
" transform="scale(0.015625)"/>
      </defs>
      <use xlink:href="#DejaVuSans-31"/>
     </g>
    </g>
   </g>
   <g id="text_3">
    <g clip-path="url(#p50c2b74728)">
     <!-- 2 -->
     <g transform="translate(379.63233 131.987101) scale(0.1 -0.1)">
      <defs>
       <path id="DejaVuSans-32" d="M 1228 531 
L 3431 531 
L 3431 0 
L 469 0 
L 469 531 
Q 828 903 1448 1529 
Q 2069 2156 2228 2338 
Q 2531 2678 2651 2914 
Q 2772 3150 2772 3378 
Q 2772 3750 2511 3984 
Q 2250 4219 1831 4219 
Q 1534 4219 1204 4116 
Q 875 4013 500 3803 
L 500 4441 
Q 881 4594 1212 4672 
Q 1544 4750 1819 4750 
Q 2544 4750 2975 4387 
Q 3406 4025 3406 3419 
Q 3406 3131 3298 2873 
Q 3191 2616 2906 2266 
Q 2828 2175 2409 1742 
Q 1991 1309 1228 531 
z
" transform="scale(0.015625)"/>
      </defs>
      <use xlink:href="#DejaVuSans-32"/>
     </g>
    </g>
   </g>
   <g id="text_4">
    <g clip-path="url(#p50c2b74728)">
     <!-- 3 -->
     <g transform="translate(410.029642 171.677139) scale(0.1 -0.1)">
      <defs>
       <path id="DejaVuSans-33" d="M 2597 2516 
Q 3050 2419 3304 2112 
Q 3559 1806 3559 1356 
Q 3559 666 3084 287 
Q 2609 -91 1734 -91 
Q 1441 -91 1130 -33 
Q 819 25 488 141 
L 488 750 
Q 750 597 1062 519 
Q 1375 441 1716 441 
Q 2309 441 2620 675 
Q 2931 909 2931 1356 
Q 2931 1769 2642 2001 
Q 2353 2234 1838 2234 
L 1294 2234 
L 1294 2753 
L 1863 2753 
Q 2328 2753 2575 2939 
Q 2822 3125 2822 3475 
Q 2822 3834 2567 4026 
Q 2313 4219 1838 4219 
Q 1578 4219 1281 4162 
Q 984 4106 628 3988 
L 628 4550 
Q 988 4650 1302 4700 
Q 1616 4750 1894 4750 
Q 2613 4750 3031 4423 
Q 3450 4097 3450 3541 
Q 3450 3153 3228 2886 
Q 3006 2619 2597 2516 
z
" transform="scale(0.015625)"/>
      </defs>
      <use xlink:href="#DejaVuSans-33"/>
     </g>
    </g>
   </g>
   <g id="text_5">
    <g clip-path="url(#p50c2b74728)">
     <!-- 4 -->
     <g transform="translate(179.61909 206.274019) scale(0.1 -0.1)">
      <defs>
       <path id="DejaVuSans-34" d="M 2419 4116 
L 825 1625 
L 2419 1625 
L 2419 4116 
z
M 2253 4666 
L 3047 4666 
L 3047 1625 
L 3713 1625 
L 3713 1100 
L 3047 1100 
L 3047 0 
L 2419 0 
L 2419 1100 
L 313 1100 
L 313 1709 
L 2253 4666 
z
" transform="scale(0.015625)"/>
      </defs>
      <use xlink:href="#DejaVuSans-34"/>
     </g>
    </g>
   </g>
   <g id="text_6">
    <g clip-path="url(#p50c2b74728)">
     <!-- 5 -->
     <g transform="translate(417.631973 32.749458) scale(0.1 -0.1)">
      <defs>
       <path id="DejaVuSans-35" d="M 691 4666 
L 3169 4666 
L 3169 4134 
L 1269 4134 
L 1269 2991 
Q 1406 3038 1543 3061 
Q 1681 3084 1819 3084 
Q 2600 3084 3056 2656 
Q 3513 2228 3513 1497 
Q 3513 744 3044 326 
Q 2575 -91 1722 -91 
Q 1428 -91 1123 -41 
Q 819 9 494 109 
L 494 744 
Q 775 591 1075 516 
Q 1375 441 1709 441 
Q 2250 441 2565 725 
Q 2881 1009 2881 1497 
Q 2881 1984 2565 2268 
Q 2250 2553 1709 2553 
Q 1456 2553 1204 2497 
Q 953 2441 691 2322 
L 691 4666 
z
" transform="scale(0.015625)"/>
      </defs>
      <use xlink:href="#DejaVuSans-35"/>
     </g>
    </g>
   </g>
   <g id="text_7">
    <g clip-path="url(#p50c2b74728)">
     <!-- 6 -->
     <g transform="translate(390.290933 203.225214) scale(0.1 -0.1)">
      <defs>
       <path id="DejaVuSans-36" d="M 2113 2584 
Q 1688 2584 1439 2293 
Q 1191 2003 1191 1497 
Q 1191 994 1439 701 
Q 1688 409 2113 409 
Q 2538 409 2786 701 
Q 3034 994 3034 1497 
Q 3034 2003 2786 2293 
Q 2538 2584 2113 2584 
z
M 3366 4563 
L 3366 3988 
Q 3128 4100 2886 4159 
Q 2644 4219 2406 4219 
Q 1781 4219 1451 3797 
Q 1122 3375 1075 2522 
Q 1259 2794 1537 2939 
Q 1816 3084 2150 3084 
Q 2853 3084 3261 2657 
Q 3669 2231 3669 1497 
Q 3669 778 3244 343 
Q 2819 -91 2113 -91 
Q 1303 -91 875 529 
Q 447 1150 447 2328 
Q 447 3434 972 4092 
Q 1497 4750 2381 4750 
Q 2619 4750 2861 4703 
Q 3103 4656 3366 4563 
z
" transform="scale(0.015625)"/>
      </defs>
      <use xlink:href="#DejaVuSans-36"/>
     </g>
    </g>
   </g>
   <g id="text_8">
    <g clip-path="url(#p50c2b74728)">
     <!-- 7 -->
     <g transform="translate(349.334685 98.063069) scale(0.1 -0.1)">
      <defs>
       <path id="DejaVuSans-37" d="M 525 4666 
L 3525 4666 
L 3525 4397 
L 1831 0 
L 1172 0 
L 2766 4134 
L 525 4134 
L 525 4666 
z
" transform="scale(0.015625)"/>
      </defs>
      <use xlink:href="#DejaVuSans-37"/>
     </g>
    </g>
   </g>
   <g id="text_9">
    <g clip-path="url(#p50c2b74728)">
     <!-- 8 -->
     <g transform="translate(204.992829 318.369292) scale(0.1 -0.1)">
      <defs>
       <path id="DejaVuSans-38" d="M 2034 2216 
Q 1584 2216 1326 1975 
Q 1069 1734 1069 1313 
Q 1069 891 1326 650 
Q 1584 409 2034 409 
Q 2484 409 2743 651 
Q 3003 894 3003 1313 
Q 3003 1734 2745 1975 
Q 2488 2216 2034 2216 
z
M 1403 2484 
Q 997 2584 770 2862 
Q 544 3141 544 3541 
Q 544 4100 942 4425 
Q 1341 4750 2034 4750 
Q 2731 4750 3128 4425 
Q 3525 4100 3525 3541 
Q 3525 3141 3298 2862 
Q 3072 2584 2669 2484 
Q 3125 2378 3379 2068 
Q 3634 1759 3634 1313 
Q 3634 634 3220 271 
Q 2806 -91 2034 -91 
Q 1263 -91 848 271 
Q 434 634 434 1313 
Q 434 1759 690 2068 
Q 947 2378 1403 2484 
z
M 1172 3481 
Q 1172 3119 1398 2916 
Q 1625 2713 2034 2713 
Q 2441 2713 2670 2916 
Q 2900 3119 2900 3481 
Q 2900 3844 2670 4047 
Q 2441 4250 2034 4250 
Q 1625 4250 1398 4047 
Q 1172 3844 1172 3481 
z
" transform="scale(0.015625)"/>
      </defs>
      <use xlink:href="#DejaVuSans-38"/>
     </g>
    </g>
   </g>
   <g id="text_10">
    <g clip-path="url(#p50c2b74728)">
     <!-- 9 -->
     <g transform="translate(36.805527 90.956754) scale(0.1 -0.1)">
      <defs>
       <path id="DejaVuSans-39" d="M 703 97 
L 703 672 
Q 941 559 1184 500 
Q 1428 441 1663 441 
Q 2288 441 2617 861 
Q 2947 1281 2994 2138 
Q 2813 1869 2534 1725 
Q 2256 1581 1919 1581 
Q 1219 1581 811 2004 
Q 403 2428 403 3163 
Q 403 3881 828 4315 
Q 1253 4750 1959 4750 
Q 2769 4750 3195 4129 
Q 3622 3509 3622 2328 
Q 3622 1225 3098 567 
Q 2575 -91 1691 -91 
Q 1453 -91 1209 -44 
Q 966 3 703 97 
z
M 1959 2075 
Q 2384 2075 2632 2365 
Q 2881 2656 2881 3163 
Q 2881 3666 2632 3958 
Q 2384 4250 1959 4250 
Q 1534 4250 1286 3958 
Q 1038 3666 1038 3163 
Q 1038 2656 1286 2365 
Q 1534 2075 1959 2075 
z
" transform="scale(0.015625)"/>
      </defs>
      <use xlink:href="#DejaVuSans-39"/>
     </g>
    </g>
   </g>
   <g id="text_11">
    <g clip-path="url(#p50c2b74728)">
     <!-- 10 -->
     <g transform="translate(237.553591 246.196939) scale(0.1 -0.1)">
      <use xlink:href="#DejaVuSans-31"/>
      <use xlink:href="#DejaVuSans-30" x="63.623047"/>
     </g>
    </g>
   </g>
   <g id="text_12">
    <g clip-path="url(#p50c2b74728)">
     <!-- 11 -->
     <g transform="translate(270.014717 109.853325) scale(0.1 -0.1)">
      <use xlink:href="#DejaVuSans-31"/>
      <use xlink:href="#DejaVuSans-31" x="63.623047"/>
     </g>
    </g>
   </g>
   <g id="text_13">
    <g clip-path="url(#p50c2b74728)">
     <!-- 12 -->
     <g transform="translate(149.6585 175.835175) scale(0.1 -0.1)">
      <use xlink:href="#DejaVuSans-31"/>
      <use xlink:href="#DejaVuSans-32" x="63.623047"/>
     </g>
    </g>
   </g>
   <g id="text_14">
    <g clip-path="url(#p50c2b74728)">
     <!-- 13 -->
     <g transform="translate(285.583592 167.953112) scale(0.1 -0.1)">
      <use xlink:href="#DejaVuSans-31"/>
      <use xlink:href="#DejaVuSans-33" x="63.623047"/>
     </g>
    </g>
   </g>
   <g id="text_15">
    <g clip-path="url(#p50c2b74728)">
     <!-- 14 -->
     <g transform="translate(267.497779 170.475133) scale(0.1 -0.1)">
      <use xlink:href="#DejaVuSans-31"/>
      <use xlink:href="#DejaVuSans-34" x="63.623047"/>
     </g>
    </g>
   </g>
   <g id="text_16">
    <g clip-path="url(#p50c2b74728)">
     <!-- 15 -->
     <g transform="translate(161.35016 131.624013) scale(0.1 -0.1)">
      <use xlink:href="#DejaVuSans-31"/>
      <use xlink:href="#DejaVuSans-35" x="63.623047"/>
     </g>
    </g>
   </g>
   <g id="text_17">
    <g clip-path="url(#p50c2b74728)">
     <!-- 16 -->
     <g transform="translate(325.449052 199.045785) scale(0.1 -0.1)">
      <use xlink:href="#DejaVuSans-31"/>
      <use xlink:href="#DejaVuSans-36" x="63.623047"/>
     </g>
    </g>
   </g>
   <g id="text_18">
    <g clip-path="url(#p50c2b74728)">
     <!-- 17 -->
     <g transform="translate(320.277447 227.661415) scale(0.1 -0.1)">
      <use xlink:href="#DejaVuSans-31"/>
      <use xlink:href="#DejaVuSans-37" x="63.623047"/>
     </g>
    </g>
   </g>
   <g id="text_19">
    <g clip-path="url(#p50c2b74728)">
     <!-- 18 -->
     <g transform="translate(235.940275 131.530745) scale(0.1 -0.1)">
      <use xlink:href="#DejaVuSans-31"/>
      <use xlink:href="#DejaVuSans-38" x="63.623047"/>
     </g>
    </g>
   </g>
   <g id="text_20">
    <g clip-path="url(#p50c2b74728)">
     <!-- 19 -->
     <g transform="translate(241.781118 207.404319) scale(0.1 -0.1)">
      <use xlink:href="#DejaVuSans-31"/>
      <use xlink:href="#DejaVuSans-39" x="63.623047"/>
     </g>
    </g>
   </g>
  </g>
 </g>
 <defs>
  <clipPath id="p50c2b74728">
   <rect x="0" y="0" width="460.8" height="345.6"/>
  </clipPath>
 </defs>
</svg>
