<?xml version="1.0" encoding="utf-8" standalone="no"?>
<!DOCTYPE svg PUBLIC "-//W3C//DTD SVG 1.1//EN"
  "http://www.w3.org/Graphics/SVG/1.1/DTD/svg11.dtd">
<svg xmlns:xlink="http://www.w3.org/1999/xlink" width="460.8pt" height="345.6pt" viewBox="0 0 460.8 345.6" xmlns="http://www.w3.org/2000/svg" version="1.1">
 <metadata>
  <rdf:RDF xmlns:dc="http://purl.org/dc/elements/1.1/" xmlns:cc="http://creativecommons.org/ns#" xmlns:rdf="http://www.w3.org/1999/02/22-rdf-syntax-ns#">
   <cc:Work>
    <dc:type rdf:resource="http://purl.org/dc/dcmitype/StillImage"/>
    <dc:date>2024-02-28T11:18:00.656481</dc:date>
    <dc:format>image/svg+xml</dc:format>
    <dc:creator>
     <cc:Agent>
      <dc:title>Matplotlib v3.8.0, https://matplotlib.org/</dc:title>
     </cc:Agent>
    </dc:creator>
   </cc:Work>
  </rdf:RDF>
 </metadata>
 <defs>
  <style type="text/css">*{stroke-linejoin: round; stroke-linecap: butt}</style>
 </defs>
 <g id="figure_1">
  <g id="patch_1">
   <path d="M 0 345.6 
L 460.8 345.6 
L 460.8 0 
L 0 0 
z
" style="fill: #ffffff"/>
  </g>
  <g id="axes_1">
   <g id="patch_2">
    <path d="M 405.981308 314.034504 
Q 412.833284 304.464981 419.034371 295.804492 
" clip-path="url(#ped91eded40)" style="fill: none; stroke: #000000; stroke-linecap: round"/>
    <path d="M 415.079552 297.892412 
L 419.034371 295.804492 
L 418.331815 300.221099 
z
" clip-path="url(#ped91eded40)" style="stroke: #000000; stroke-linecap: round"/>
   </g>
   <g id="patch_3">
    <path d="M 164.978962 144.334243 
Q 154.023032 159.11418 143.732893 172.99594 
" clip-path="url(#ped91eded40)" style="fill: none; stroke: #000000; stroke-linecap: round"/>
    <path d="M 147.72161 170.97353 
L 143.732893 172.99594 
L 144.508195 168.591521 
z
" clip-path="url(#ped91eded40)" style="stroke: #000000; stroke-linecap: round"/>
   </g>
   <g id="patch_4">
    <path d="M 167.734919 141.686729 
Q 185.38118 129.68645 202.102929 118.314882 
" clip-path="url(#ped91eded40)" style="fill: none; stroke: #000000; stroke-linecap: round"/>
    <path d="M 197.670622 118.91041 
L 202.102929 118.314882 
L 199.919968 122.218044 
z
" clip-path="url(#ped91eded40)" style="stroke: #000000; stroke-linecap: round"/>
   </g>
   <g id="patch_5">
    <path d="M 164.366548 141.988291 
Q 130.008492 126.707379 96.671991 111.880808 
" clip-path="url(#ped91eded40)" style="fill: none; stroke: #000000; stroke-linecap: round"/>
    <path d="M 99.514066 115.333722 
L 96.671991 111.880808 
L 101.139567 111.678897 
z
" clip-path="url(#ped91eded40)" style="stroke: #000000; stroke-linecap: round"/>
   </g>
   <g id="patch_6">
    <path d="M 168.066499 142.929931 
Q 195.601481 145.141496 222.022018 147.26355 
" clip-path="url(#ped91eded40)" style="fill: none; stroke: #000000; stroke-linecap: round"/>
    <path d="M 218.194979 144.949728 
L 222.022018 147.26355 
L 217.874737 148.936888 
z
" clip-path="url(#ped91eded40)" style="stroke: #000000; stroke-linecap: round"/>
   </g>
   <g id="patch_7">
    <path d="M 167.397841 144.239823 
Q 180.209511 159.102005 192.29119 173.117363 
" clip-path="url(#ped91eded40)" style="fill: none; stroke: #000000; stroke-linecap: round"/>
    <path d="M 191.194345 168.78182 
L 192.29119 173.117363 
L 188.164649 171.393513 
z
" clip-path="url(#ped91eded40)" style="stroke: #000000; stroke-linecap: round"/>
   </g>
   <g id="patch_8">
    <path d="M 143.071599 173.888049 
Q 154.02753 159.108112 164.317668 145.226352 
" clip-path="url(#ped91eded40)" style="fill: none; stroke: #000000; stroke-linecap: round"/>
    <path d="M 160.328952 147.248762 
L 164.317668 145.226352 
L 163.542366 149.630771 
z
" clip-path="url(#ped91eded40)" style="stroke: #000000; stroke-linecap: round"/>
   </g>
   <g id="patch_9">
    <path d="M 203.028492 117.685456 
Q 185.382231 129.685735 168.660482 141.057303 
" clip-path="url(#ped91eded40)" style="fill: none; stroke: #000000; stroke-linecap: round"/>
    <path d="M 173.092789 140.461775 
L 168.660482 141.057303 
L 170.843444 137.154141 
z
" clip-path="url(#ped91eded40)" style="stroke: #000000; stroke-linecap: round"/>
   </g>
   <g id="patch_10">
    <path d="M 419.685195 294.895547 
Q 412.83322 304.46507 406.632132 313.125558 
" clip-path="url(#ped91eded40)" style="fill: none; stroke: #000000; stroke-linecap: round"/>
    <path d="M 410.586951 311.037639 
L 406.632132 313.125558 
L 407.334688 308.708952 
z
" clip-path="url(#ped91eded40)" style="stroke: #000000; stroke-linecap: round"/>
   </g>
   <g id="patch_11">
    <path d="M 95.650698 111.426583 
Q 130.008754 126.707495 163.345254 141.534066 
" clip-path="url(#ped91eded40)" style="fill: none; stroke: #000000; stroke-linecap: round"/>
    <path d="M 160.50318 138.081152 
L 163.345254 141.534066 
L 158.877679 141.735977 
z
" clip-path="url(#ped91eded40)" style="stroke: #000000; stroke-linecap: round"/>
   </g>
   <g id="patch_12">
    <path d="M 93.270867 108.804528 
Q 86.281687 87.822893 79.645846 67.901989 
" clip-path="url(#ped91eded40)" style="fill: none; stroke: #000000; stroke-linecap: round"/>
    <path d="M 79.012499 72.32905 
L 79.645846 67.901989 
L 82.807487 71.064904 
z
" clip-path="url(#ped91eded40)" style="stroke: #000000; stroke-linecap: round"/>
   </g>
   <g id="patch_13">
    <path d="M 92.12668 111.458836 
Q 71.01579 121.304093 50.918162 130.676806 
" clip-path="url(#ped91eded40)" style="fill: none; stroke: #000000; stroke-linecap: round"/>
    <path d="M 55.388635 130.79876 
L 50.918162 130.676806 
L 53.698008 127.1736 
z
" clip-path="url(#ped91eded40)" style="stroke: #000000; stroke-linecap: round"/>
   </g>
   <g id="patch_14">
    <path d="M 91.990833 110.234976 
Q 66.936266 104.868911 42.974941 99.736991 
" clip-path="url(#ped91eded40)" style="fill: none; stroke: #000000; stroke-linecap: round"/>
    <path d="M 46.467388 102.530343 
L 42.974941 99.736991 
L 47.305091 98.619045 
z
" clip-path="url(#ped91eded40)" style="stroke: #000000; stroke-linecap: round"/>
   </g>
   <g id="patch_15">
    <path d="M 223.135777 147.353005 
Q 195.600795 145.141441 169.180259 143.019386 
" clip-path="url(#ped91eded40)" style="fill: none; stroke: #000000; stroke-linecap: round"/>
    <path d="M 173.007298 145.333209 
L 169.180259 143.019386 
L 173.32754 141.346049 
z
" clip-path="url(#ped91eded40)" style="stroke: #000000; stroke-linecap: round"/>
   </g>
   <g id="patch_16">
    <path d="M 193.023607 173.967003 
Q 180.211937 159.10482 168.130258 145.089463 
" clip-path="url(#ped91eded40)" style="fill: none; stroke: #000000; stroke-linecap: round"/>
    <path d="M 169.227104 149.425006 
L 168.130258 145.089463 
L 172.2568 146.813313 
z
" clip-path="url(#ped91eded40)" style="stroke: #000000; stroke-linecap: round"/>
   </g>
   <g id="patch_17">
    <path d="M 79.292166 66.840234 
Q 86.281346 87.821869 92.917187 107.742773 
" clip-path="url(#ped91eded40)" style="fill: none; stroke: #000000; stroke-linecap: round"/>
    <path d="M 93.550535 103.315712 
L 92.917187 107.742773 
L 89.755546 104.579858 
z
" clip-path="url(#ped91eded40)" style="stroke: #000000; stroke-linecap: round"/>
   </g>
   <g id="patch_18">
    <path d="M 77.893272 63.239417 
Q 70.871086 47.497529 64.304372 32.776692 
" clip-path="url(#ped91eded40)" style="fill: none; stroke: #000000; stroke-linecap: round"/>
    <path d="M 64.107412 37.244489 
L 64.304372 32.776692 
L 67.760433 35.614939 
z
" clip-path="url(#ped91eded40)" style="stroke: #000000; stroke-linecap: round"/>
   </g>
   <g id="patch_19">
    <path d="M 63.848767 31.755345 
Q 70.870953 47.497232 77.437666 62.218069 
" clip-path="url(#ped91eded40)" style="fill: none; stroke: #000000; stroke-linecap: round"/>
    <path d="M 77.634627 57.750273 
L 77.437666 62.218069 
L 73.981605 59.379823 
z
" clip-path="url(#ped91eded40)" style="stroke: #000000; stroke-linecap: round"/>
   </g>
   <g id="patch_20">
    <path d="M 49.907884 131.147959 
Q 71.018774 121.302701 91.116402 111.929988 
" clip-path="url(#ped91eded40)" style="fill: none; stroke: #000000; stroke-linecap: round"/>
    <path d="M 86.645929 111.808035 
L 91.116402 111.929988 
L 88.336556 115.433195 
z
" clip-path="url(#ped91eded40)" style="stroke: #000000; stroke-linecap: round"/>
   </g>
   <g id="patch_21">
    <path d="M 41.878252 99.502108 
Q 66.932818 104.868173 90.894144 110.000092 
" clip-path="url(#ped91eded40)" style="fill: none; stroke: #000000; stroke-linecap: round"/>
    <path d="M 87.401697 107.20674 
L 90.894144 110.000092 
L 86.563994 111.118039 
z
" clip-path="url(#ped91eded40)" style="stroke: #000000; stroke-linecap: round"/>
   </g>
   <g id="PathCollection_1">
    <defs>
     <path id="mf6f35fa549" d="M 0 1.936492 
C 0.513564 1.936492 1.006162 1.732451 1.369306 1.369306 
C 1.732451 1.006162 1.936492 0.513564 1.936492 0 
C 1.936492 -0.513564 1.732451 -1.006162 1.369306 -1.369306 
C 1.006162 -1.732451 0.513564 -1.936492 0 -1.936492 
C -0.513564 -1.936492 -1.006162 -1.732451 -1.369306 -1.369306 
C -1.732451 -1.006162 -1.936492 -0.513564 -1.936492 0 
C -1.936492 0.513564 -1.732451 1.006162 -1.369306 1.369306 
C -1.006162 1.732451 -0.513564 1.936492 0 1.936492 
z
" style="stroke: #1f78b4"/>
    </defs>
    <g clip-path="url(#ped91eded40)">
     <use xlink:href="#mf6f35fa549" x="404.85328" y="315.609917" style="fill: #1f78b4; stroke: #1f78b4"/>
     <use xlink:href="#mf6f35fa549" x="166.134938" y="142.774791" style="fill: #1f78b4; stroke: #1f78b4"/>
     <use xlink:href="#mf6f35fa549" x="141.915624" y="175.447501" style="fill: #1f78b4; stroke: #1f78b4"/>
     <use xlink:href="#mf6f35fa549" x="204.628474" y="116.597394" style="fill: #1f78b4; stroke: #1f78b4"/>
     <use xlink:href="#mf6f35fa549" x="420.813223" y="293.320133" style="fill: #1f78b4; stroke: #1f78b4"/>
     <use xlink:href="#mf6f35fa549" x="93.882308" y="110.640083" style="fill: #1f78b4; stroke: #1f78b4"/>
     <use xlink:href="#mf6f35fa549" x="225.067339" y="147.508145" style="fill: #1f78b4; stroke: #1f78b4"/>
     <use xlink:href="#mf6f35fa549" x="194.28651" y="175.432035" style="fill: #1f78b4; stroke: #1f78b4"/>
     <use xlink:href="#mf6f35fa549" x="78.680725" y="65.004679" style="fill: #1f78b4; stroke: #1f78b4"/>
     <use xlink:href="#mf6f35fa549" x="63.061313" y="29.990083" style="fill: #1f78b4; stroke: #1f78b4"/>
     <use xlink:href="#mf6f35fa549" x="48.152256" y="131.966712" style="fill: #1f78b4; stroke: #1f78b4"/>
     <use xlink:href="#mf6f35fa549" x="39.986777" y="99.097001" style="fill: #1f78b4; stroke: #1f78b4"/>
    </g>
   </g>
   <g id="text_1">
    <g clip-path="url(#ped91eded40)">
     <!-- 0 -->
     <g transform="translate(401.67203 318.369292) scale(0.1 -0.1)">
      <defs>
       <path id="DejaVuSans-30" d="M 2034 4250 
Q 1547 4250 1301 3770 
Q 1056 3291 1056 2328 
Q 1056 1369 1301 889 
Q 1547 409 2034 409 
Q 2525 409 2770 889 
Q 3016 1369 3016 2328 
Q 3016 3291 2770 3770 
Q 2525 4250 2034 4250 
z
M 2034 4750 
Q 2819 4750 3233 4129 
Q 3647 3509 3647 2328 
Q 3647 1150 3233 529 
Q 2819 -91 2034 -91 
Q 1250 -91 836 529 
Q 422 1150 422 2328 
Q 422 3509 836 4129 
Q 1250 4750 2034 4750 
z
" transform="scale(0.015625)"/>
      </defs>
      <use xlink:href="#DejaVuSans-30"/>
     </g>
    </g>
   </g>
   <g id="text_2">
    <g clip-path="url(#ped91eded40)">
     <!-- 1 -->
     <g transform="translate(162.953688 145.534166) scale(0.1 -0.1)">
      <defs>
       <path id="DejaVuSans-31" d="M 794 531 
L 1825 531 
L 1825 4091 
L 703 3866 
L 703 4441 
L 1819 4666 
L 2450 4666 
L 2450 531 
L 3481 531 
L 3481 0 
L 794 0 
L 794 531 
z
" transform="scale(0.015625)"/>
      </defs>
      <use xlink:href="#DejaVuSans-31"/>
     </g>
    </g>
   </g>
   <g id="text_3">
    <g clip-path="url(#ped91eded40)">
     <!-- 2 -->
     <g transform="translate(138.734374 178.206876) scale(0.1 -0.1)">
      <defs>
       <path id="DejaVuSans-32" d="M 1228 531 
L 3431 531 
L 3431 0 
L 469 0 
L 469 531 
Q 828 903 1448 1529 
Q 2069 2156 2228 2338 
Q 2531 2678 2651 2914 
Q 2772 3150 2772 3378 
Q 2772 3750 2511 3984 
Q 2250 4219 1831 4219 
Q 1534 4219 1204 4116 
Q 875 4013 500 3803 
L 500 4441 
Q 881 4594 1212 4672 
Q 1544 4750 1819 4750 
Q 2544 4750 2975 4387 
Q 3406 4025 3406 3419 
Q 3406 3131 3298 2873 
Q 3191 2616 2906 2266 
Q 2828 2175 2409 1742 
Q 1991 1309 1228 531 
z
" transform="scale(0.015625)"/>
      </defs>
      <use xlink:href="#DejaVuSans-32"/>
     </g>
    </g>
   </g>
   <g id="text_4">
    <g clip-path="url(#ped91eded40)">
     <!-- 3 -->
     <g transform="translate(201.447224 119.356769) scale(0.1 -0.1)">
      <defs>
       <path id="DejaVuSans-33" d="M 2597 2516 
Q 3050 2419 3304 2112 
Q 3559 1806 3559 1356 
Q 3559 666 3084 287 
Q 2609 -91 1734 -91 
Q 1441 -91 1130 -33 
Q 819 25 488 141 
L 488 750 
Q 750 597 1062 519 
Q 1375 441 1716 441 
Q 2309 441 2620 675 
Q 2931 909 2931 1356 
Q 2931 1769 2642 2001 
Q 2353 2234 1838 2234 
L 1294 2234 
L 1294 2753 
L 1863 2753 
Q 2328 2753 2575 2939 
Q 2822 3125 2822 3475 
Q 2822 3834 2567 4026 
Q 2313 4219 1838 4219 
Q 1578 4219 1281 4162 
Q 984 4106 628 3988 
L 628 4550 
Q 988 4650 1302 4700 
Q 1616 4750 1894 4750 
Q 2613 4750 3031 4423 
Q 3450 4097 3450 3541 
Q 3450 3153 3228 2886 
Q 3006 2619 2597 2516 
z
" transform="scale(0.015625)"/>
      </defs>
      <use xlink:href="#DejaVuSans-33"/>
     </g>
    </g>
   </g>
   <g id="text_5">
    <g clip-path="url(#ped91eded40)">
     <!-- 4 -->
     <g transform="translate(417.631973 296.079508) scale(0.1 -0.1)">
      <defs>
       <path id="DejaVuSans-34" d="M 2419 4116 
L 825 1625 
L 2419 1625 
L 2419 4116 
z
M 2253 4666 
L 3047 4666 
L 3047 1625 
L 3713 1625 
L 3713 1100 
L 3047 1100 
L 3047 0 
L 2419 0 
L 2419 1100 
L 313 1100 
L 313 1709 
L 2253 4666 
z
" transform="scale(0.015625)"/>
      </defs>
      <use xlink:href="#DejaVuSans-34"/>
     </g>
    </g>
   </g>
   <g id="text_6">
    <g clip-path="url(#ped91eded40)">
     <!-- 5 -->
     <g transform="translate(90.701058 113.399458) scale(0.1 -0.1)">
      <defs>
       <path id="DejaVuSans-35" d="M 691 4666 
L 3169 4666 
L 3169 4134 
L 1269 4134 
L 1269 2991 
Q 1406 3038 1543 3061 
Q 1681 3084 1819 3084 
Q 2600 3084 3056 2656 
Q 3513 2228 3513 1497 
Q 3513 744 3044 326 
Q 2575 -91 1722 -91 
Q 1428 -91 1123 -41 
Q 819 9 494 109 
L 494 744 
Q 775 591 1075 516 
Q 1375 441 1709 441 
Q 2250 441 2565 725 
Q 2881 1009 2881 1497 
Q 2881 1984 2565 2268 
Q 2250 2553 1709 2553 
Q 1456 2553 1204 2497 
Q 953 2441 691 2322 
L 691 4666 
z
" transform="scale(0.015625)"/>
      </defs>
      <use xlink:href="#DejaVuSans-35"/>
     </g>
    </g>
   </g>
   <g id="text_7">
    <g clip-path="url(#ped91eded40)">
     <!-- 6 -->
     <g transform="translate(221.886089 150.26752) scale(0.1 -0.1)">
      <defs>
       <path id="DejaVuSans-36" d="M 2113 2584 
Q 1688 2584 1439 2293 
Q 1191 2003 1191 1497 
Q 1191 994 1439 701 
Q 1688 409 2113 409 
Q 2538 409 2786 701 
Q 3034 994 3034 1497 
Q 3034 2003 2786 2293 
Q 2538 2584 2113 2584 
z
M 3366 4563 
L 3366 3988 
Q 3128 4100 2886 4159 
Q 2644 4219 2406 4219 
Q 1781 4219 1451 3797 
Q 1122 3375 1075 2522 
Q 1259 2794 1537 2939 
Q 1816 3084 2150 3084 
Q 2853 3084 3261 2657 
Q 3669 2231 3669 1497 
Q 3669 778 3244 343 
Q 2819 -91 2113 -91 
Q 1303 -91 875 529 
Q 447 1150 447 2328 
Q 447 3434 972 4092 
Q 1497 4750 2381 4750 
Q 2619 4750 2861 4703 
Q 3103 4656 3366 4563 
z
" transform="scale(0.015625)"/>
      </defs>
      <use xlink:href="#DejaVuSans-36"/>
     </g>
    </g>
   </g>
   <g id="text_8">
    <g clip-path="url(#ped91eded40)">
     <!-- 7 -->
     <g transform="translate(191.10526 178.19141) scale(0.1 -0.1)">
      <defs>
       <path id="DejaVuSans-37" d="M 525 4666 
L 3525 4666 
L 3525 4397 
L 1831 0 
L 1172 0 
L 2766 4134 
L 525 4134 
L 525 4666 
z
" transform="scale(0.015625)"/>
      </defs>
      <use xlink:href="#DejaVuSans-37"/>
     </g>
    </g>
   </g>
   <g id="text_9">
    <g clip-path="url(#ped91eded40)">
     <!-- 8 -->
     <g transform="translate(75.499475 67.764054) scale(0.1 -0.1)">
      <defs>
       <path id="DejaVuSans-38" d="M 2034 2216 
Q 1584 2216 1326 1975 
Q 1069 1734 1069 1313 
Q 1069 891 1326 650 
Q 1584 409 2034 409 
Q 2484 409 2743 651 
Q 3003 894 3003 1313 
Q 3003 1734 2745 1975 
Q 2488 2216 2034 2216 
z
M 1403 2484 
Q 997 2584 770 2862 
Q 544 3141 544 3541 
Q 544 4100 942 4425 
Q 1341 4750 2034 4750 
Q 2731 4750 3128 4425 
Q 3525 4100 3525 3541 
Q 3525 3141 3298 2862 
Q 3072 2584 2669 2484 
Q 3125 2378 3379 2068 
Q 3634 1759 3634 1313 
Q 3634 634 3220 271 
Q 2806 -91 2034 -91 
Q 1263 -91 848 271 
Q 434 634 434 1313 
Q 434 1759 690 2068 
Q 947 2378 1403 2484 
z
M 1172 3481 
Q 1172 3119 1398 2916 
Q 1625 2713 2034 2713 
Q 2441 2713 2670 2916 
Q 2900 3119 2900 3481 
Q 2900 3844 2670 4047 
Q 2441 4250 2034 4250 
Q 1625 4250 1398 4047 
Q 1172 3844 1172 3481 
z
" transform="scale(0.015625)"/>
      </defs>
      <use xlink:href="#DejaVuSans-38"/>
     </g>
    </g>
   </g>
   <g id="text_10">
    <g clip-path="url(#ped91eded40)">
     <!-- 9 -->
     <g transform="translate(59.880063 32.749458) scale(0.1 -0.1)">
      <defs>
       <path id="DejaVuSans-39" d="M 703 97 
L 703 672 
Q 941 559 1184 500 
Q 1428 441 1663 441 
Q 2288 441 2617 861 
Q 2947 1281 2994 2138 
Q 2813 1869 2534 1725 
Q 2256 1581 1919 1581 
Q 1219 1581 811 2004 
Q 403 2428 403 3163 
Q 403 3881 828 4315 
Q 1253 4750 1959 4750 
Q 2769 4750 3195 4129 
Q 3622 3509 3622 2328 
Q 3622 1225 3098 567 
Q 2575 -91 1691 -91 
Q 1453 -91 1209 -44 
Q 966 3 703 97 
z
M 1959 2075 
Q 2384 2075 2632 2365 
Q 2881 2656 2881 3163 
Q 2881 3666 2632 3958 
Q 2384 4250 1959 4250 
Q 1534 4250 1286 3958 
Q 1038 3666 1038 3163 
Q 1038 2656 1286 2365 
Q 1534 2075 1959 2075 
z
" transform="scale(0.015625)"/>
      </defs>
      <use xlink:href="#DejaVuSans-39"/>
     </g>
    </g>
   </g>
   <g id="text_11">
    <g clip-path="url(#ped91eded40)">
     <!-- 10 -->
     <g transform="translate(41.789756 134.726087) scale(0.1 -0.1)">
      <use xlink:href="#DejaVuSans-31"/>
      <use xlink:href="#DejaVuSans-30" x="63.623047"/>
     </g>
    </g>
   </g>
   <g id="text_12">
    <g clip-path="url(#ped91eded40)">
     <!-- 11 -->
     <g transform="translate(33.624277 101.856376) scale(0.1 -0.1)">
      <use xlink:href="#DejaVuSans-31"/>
      <use xlink:href="#DejaVuSans-31" x="63.623047"/>
     </g>
    </g>
   </g>
  </g>
 </g>
 <defs>
  <clipPath id="ped91eded40">
   <rect x="0" y="0" width="460.8" height="345.6"/>
  </clipPath>
 </defs>
</svg>
