<?xml version="1.0" encoding="utf-8" standalone="no"?>
<!DOCTYPE svg PUBLIC "-//W3C//DTD SVG 1.1//EN"
  "http://www.w3.org/Graphics/SVG/1.1/DTD/svg11.dtd">
<svg xmlns:xlink="http://www.w3.org/1999/xlink" width="460.8pt" height="345.6pt" viewBox="0 0 460.8 345.6" xmlns="http://www.w3.org/2000/svg" version="1.1">
 <metadata>
  <rdf:RDF xmlns:dc="http://purl.org/dc/elements/1.1/" xmlns:cc="http://creativecommons.org/ns#" xmlns:rdf="http://www.w3.org/1999/02/22-rdf-syntax-ns#">
   <cc:Work>
    <dc:type rdf:resource="http://purl.org/dc/dcmitype/StillImage"/>
    <dc:date>2024-02-28T11:18:12.308382</dc:date>
    <dc:format>image/svg+xml</dc:format>
    <dc:creator>
     <cc:Agent>
      <dc:title>Matplotlib v3.8.0, https://matplotlib.org/</dc:title>
     </cc:Agent>
    </dc:creator>
   </cc:Work>
  </rdf:RDF>
 </metadata>
 <defs>
  <style type="text/css">*{stroke-linejoin: round; stroke-linecap: butt}</style>
 </defs>
 <g id="figure_1">
  <g id="patch_1">
   <path d="M 0 345.6 
L 460.8 345.6 
L 460.8 0 
L 0 0 
z
" style="fill: #ffffff"/>
  </g>
  <g id="axes_1">
   <g id="patch_2">
    <path d="M 281.552588 252.207827 
Q 244.846586 237.445324 209.177871 223.099999 
" clip-path="url(#p67f529fd3f)" style="fill: none; stroke: #000000; stroke-linecap: round"/>
    <path d="M 212.142708 226.448094 
L 209.177871 223.099999 
L 213.635249 222.736986 
z
" clip-path="url(#p67f529fd3f)" style="stroke: #000000; stroke-linecap: round"/>
   </g>
   <g id="patch_3">
    <path d="M 284.579649 254.426037 
Q 301.626324 275.159512 317.962952 295.029373 
" clip-path="url(#p67f529fd3f)" style="fill: none; stroke: #000000; stroke-linecap: round"/>
    <path d="M 316.967488 290.669435 
L 317.962952 295.029373 
L 313.877724 293.209782 
z
" clip-path="url(#p67f529fd3f)" style="stroke: #000000; stroke-linecap: round"/>
   </g>
   <g id="patch_4">
    <path d="M 283.15511 251.001134 
Q 279.322008 213.112008 275.60144 176.335237 
" clip-path="url(#p67f529fd3f)" style="fill: none; stroke: #000000; stroke-linecap: round"/>
    <path d="M 274.014206 180.516229 
L 275.60144 176.335237 
L 277.993893 180.113619 
z
" clip-path="url(#p67f529fd3f)" style="stroke: #000000; stroke-linecap: round"/>
   </g>
   <g id="patch_5">
    <path d="M 281.467788 253.389318 
Q 257.603312 259.201209 234.825121 264.74855 
" clip-path="url(#p67f529fd3f)" style="fill: none; stroke: #000000; stroke-linecap: round"/>
    <path d="M 239.184772 265.745268 
L 234.825121 264.74855 
L 238.238286 261.858861 
z
" clip-path="url(#p67f529fd3f)" style="stroke: #000000; stroke-linecap: round"/>
   </g>
   <g id="patch_6">
    <path d="M 283.189007 254.862789 
Q 280.733344 284.270495 278.370717 312.564044 
" clip-path="url(#p67f529fd3f)" style="fill: none; stroke: #000000; stroke-linecap: round"/>
    <path d="M 280.696638 308.744346 
L 278.370717 312.564044 
L 276.710511 308.411488 
z
" clip-path="url(#p67f529fd3f)" style="stroke: #000000; stroke-linecap: round"/>
   </g>
   <g id="patch_7">
    <path d="M 285.243741 253.335155 
Q 323.222595 261.444929 360.108064 269.321228 
" clip-path="url(#p67f529fd3f)" style="fill: none; stroke: #000000; stroke-linecap: round"/>
    <path d="M 356.613906 266.530018 
L 360.108064 269.321228 
L 355.778601 270.44183 
z
" clip-path="url(#p67f529fd3f)" style="stroke: #000000; stroke-linecap: round"/>
   </g>
   <g id="patch_8">
    <path d="M 166.803152 83.091727 
Q 133.840775 86.007473 101.992083 88.824705 
" clip-path="url(#p67f529fd3f)" style="fill: none; stroke: #000000; stroke-linecap: round"/>
    <path d="M 106.152751 90.464475 
L 101.992083 88.824705 
L 105.8003 86.480033 
z
" clip-path="url(#p67f529fd3f)" style="stroke: #000000; stroke-linecap: round"/>
   </g>
   <g id="patch_9">
    <path d="M 170.500666 83.72073 
Q 200.70968 97.38288 229.899995 110.584319 
" clip-path="url(#p67f529fd3f)" style="fill: none; stroke: #000000; stroke-linecap: round"/>
    <path d="M 227.079534 107.113728 
L 229.899995 110.584319 
L 225.431246 110.758334 
z
" clip-path="url(#p67f529fd3f)" style="stroke: #000000; stroke-linecap: round"/>
   </g>
   <g id="patch_10">
    <path d="M 144.534309 161.688247 
Q 174.746822 191.148646 204.158866 219.828501 
" clip-path="url(#p67f529fd3f)" style="fill: none; stroke: #000000; stroke-linecap: round"/>
    <path d="M 202.691295 215.604021 
L 204.158866 219.828501 
L 199.898739 218.46787 
z
" clip-path="url(#p67f529fd3f)" style="stroke: #000000; stroke-linecap: round"/>
   </g>
   <g id="patch_11">
    <path d="M 142.126623 158.690234 
Q 121.049564 124.713854 100.561877 91.687547 
" clip-path="url(#p67f529fd3f)" style="fill: none; stroke: #000000; stroke-linecap: round"/>
    <path d="M 100.970939 96.140935 
L 100.561877 91.687547 
L 104.370025 94.032331 
z
" clip-path="url(#p67f529fd3f)" style="stroke: #000000; stroke-linecap: round"/>
   </g>
   <g id="patch_12">
    <path d="M 208.143538 222.684008 
Q 244.849539 237.446511 280.518255 251.791837 
" clip-path="url(#p67f529fd3f)" style="fill: none; stroke: #000000; stroke-linecap: round"/>
    <path d="M 277.553418 248.443741 
L 280.518255 251.791837 
L 276.060876 252.154849 
z
" clip-path="url(#p67f529fd3f)" style="stroke: #000000; stroke-linecap: round"/>
   </g>
   <g id="patch_13">
    <path d="M 204.95909 220.608805 
Q 174.746577 191.148406 145.334533 162.468551 
" clip-path="url(#p67f529fd3f)" style="fill: none; stroke: #000000; stroke-linecap: round"/>
    <path d="M 146.802104 166.693031 
L 145.334533 162.468551 
L 149.59466 163.829182 
z
" clip-path="url(#p67f529fd3f)" style="stroke: #000000; stroke-linecap: round"/>
   </g>
   <g id="patch_14">
    <path d="M 207.325255 223.631386 
Q 219.101485 243.714876 230.31219 262.833906 
" clip-path="url(#p67f529fd3f)" style="fill: none; stroke: #000000; stroke-linecap: round"/>
    <path d="M 230.014187 258.37171 
L 230.31219 262.833906 
L 226.563631 260.39499 
z
" clip-path="url(#p67f529fd3f)" style="stroke: #000000; stroke-linecap: round"/>
   </g>
   <g id="patch_15">
    <path d="M 207.716488 220.587836 
Q 217.421324 210.865604 226.3363 201.934649 
" clip-path="url(#p67f529fd3f)" style="fill: none; stroke: #000000; stroke-linecap: round"/>
    <path d="M 222.094927 203.352661 
L 226.3363 201.934649 
L 224.925886 206.178555 
z
" clip-path="url(#p67f529fd3f)" style="stroke: #000000; stroke-linecap: round"/>
   </g>
   <g id="patch_16">
    <path d="M 100.882047 88.922895 
Q 133.844424 86.00715 165.693116 83.189917 
" clip-path="url(#p67f529fd3f)" style="fill: none; stroke: #000000; stroke-linecap: round"/>
    <path d="M 161.532448 81.550147 
L 165.693116 83.189917 
L 161.884899 85.534589 
z
" clip-path="url(#p67f529fd3f)" style="stroke: #000000; stroke-linecap: round"/>
   </g>
   <g id="patch_17">
    <path d="M 99.973693 90.739388 
Q 121.050752 124.715769 141.538438 157.742076 
" clip-path="url(#p67f529fd3f)" style="fill: none; stroke: #000000; stroke-linecap: round"/>
    <path d="M 141.129377 153.288687 
L 141.538438 157.742076 
L 137.730291 155.397292 
z
" clip-path="url(#p67f529fd3f)" style="stroke: #000000; stroke-linecap: round"/>
   </g>
   <g id="patch_18">
    <path d="M 97.344889 88.019292 
Q 72.973568 71.735602 49.53187 56.073039 
" clip-path="url(#p67f529fd3f)" style="fill: none; stroke: #000000; stroke-linecap: round"/>
    <path d="M 51.746686 59.958215 
L 49.53187 56.073039 
L 53.968901 56.632292 
z
" clip-path="url(#p67f529fd3f)" style="stroke: #000000; stroke-linecap: round"/>
   </g>
   <g id="patch_19">
    <path d="M 97.048842 89.461961 
Q 69.46687 94.799133 42.982571 99.923904 
" clip-path="url(#p67f529fd3f)" style="fill: none; stroke: #000000; stroke-linecap: round"/>
    <path d="M 47.289681 101.127568 
L 42.982571 99.923904 
L 46.529768 97.200415 
z
" clip-path="url(#p67f529fd3f)" style="stroke: #000000; stroke-linecap: round"/>
   </g>
   <g id="patch_20">
    <path d="M 98.588896 87.192463 
Q 93.297517 59.542668 88.216285 32.990979 
" clip-path="url(#p67f529fd3f)" style="fill: none; stroke: #000000; stroke-linecap: round"/>
    <path d="M 87.003773 37.295606 
L 88.216285 32.990979 
L 90.93248 36.543764 
z
" clip-path="url(#p67f529fd3f)" style="stroke: #000000; stroke-linecap: round"/>
   </g>
   <g id="patch_21">
    <path d="M 318.674778 295.895151 
Q 301.628103 275.161675 285.291475 255.291815 
" clip-path="url(#p67f529fd3f)" style="fill: none; stroke: #000000; stroke-linecap: round"/>
    <path d="M 286.286939 259.651752 
L 285.291475 255.291815 
L 289.376703 257.111406 
z
" clip-path="url(#p67f529fd3f)" style="stroke: #000000; stroke-linecap: round"/>
   </g>
   <g id="patch_22">
    <path d="M 275.488839 175.22221 
Q 279.32194 213.111337 283.042509 249.888107 
" clip-path="url(#p67f529fd3f)" style="fill: none; stroke: #000000; stroke-linecap: round"/>
    <path d="M 284.629742 245.707116 
L 283.042509 249.888107 
L 280.650056 246.109726 
z
" clip-path="url(#p67f529fd3f)" style="stroke: #000000; stroke-linecap: round"/>
   </g>
   <g id="patch_23">
    <path d="M 274.188314 171.698505 
Q 253.986902 142.565432 234.422577 114.351119 
" clip-path="url(#p67f529fd3f)" style="fill: none; stroke: #000000; stroke-linecap: round"/>
    <path d="M 235.058355 118.777832 
L 234.422577 114.351119 
L 238.345414 116.498525 
z
" clip-path="url(#p67f529fd3f)" style="stroke: #000000; stroke-linecap: round"/>
   </g>
   <g id="patch_24">
    <path d="M 230.915349 111.043517 
Q 200.706335 97.381367 171.51602 84.179928 
" clip-path="url(#p67f529fd3f)" style="fill: none; stroke: #000000; stroke-linecap: round"/>
    <path d="M 174.336481 87.650518 
L 171.51602 84.179928 
L 175.984769 84.005913 
z
" clip-path="url(#p67f529fd3f)" style="stroke: #000000; stroke-linecap: round"/>
   </g>
   <g id="patch_25">
    <path d="M 233.78883 113.437174 
Q 253.990241 142.570247 273.554567 170.784559 
" clip-path="url(#p67f529fd3f)" style="fill: none; stroke: #000000; stroke-linecap: round"/>
    <path d="M 272.918789 166.357846 
L 273.554567 170.784559 
L 269.63173 168.637154 
z
" clip-path="url(#p67f529fd3f)" style="stroke: #000000; stroke-linecap: round"/>
   </g>
   <g id="patch_26">
    <path d="M 233.741049 265.012562 
Q 257.605524 259.200671 280.383716 253.65333 
" clip-path="url(#p67f529fd3f)" style="fill: none; stroke: #000000; stroke-linecap: round"/>
    <path d="M 276.024065 252.656611 
L 280.383716 253.65333 
L 276.970551 256.543019 
z
" clip-path="url(#p67f529fd3f)" style="stroke: #000000; stroke-linecap: round"/>
   </g>
   <g id="patch_27">
    <path d="M 230.879043 263.800633 
Q 219.102814 243.717143 207.892109 224.598113 
" clip-path="url(#p67f529fd3f)" style="fill: none; stroke: #000000; stroke-linecap: round"/>
    <path d="M 208.190112 229.06031 
L 207.892109 224.598113 
L 211.640667 227.037029 
z
" clip-path="url(#p67f529fd3f)" style="stroke: #000000; stroke-linecap: round"/>
   </g>
   <g id="patch_28">
    <path d="M 88.005814 31.891177 
Q 93.297193 59.540973 98.378425 86.092662 
" clip-path="url(#p67f529fd3f)" style="fill: none; stroke: #000000; stroke-linecap: round"/>
    <path d="M 99.590937 81.788035 
L 98.378425 86.092662 
L 95.66223 82.539876 
z
" clip-path="url(#p67f529fd3f)" style="stroke: #000000; stroke-linecap: round"/>
   </g>
   <g id="patch_29">
    <path d="M 418.970855 287.739001 
Q 391.956609 279.142818 366.007759 270.885654 
" clip-path="url(#p67f529fd3f)" style="fill: none; stroke: #000000; stroke-linecap: round"/>
    <path d="M 369.212977 274.0044 
L 366.007759 270.885654 
L 370.425886 270.192727 
z
" clip-path="url(#p67f529fd3f)" style="stroke: #000000; stroke-linecap: round"/>
   </g>
   <g id="patch_30">
    <path d="M 48.602831 55.452302 
Q 72.974152 71.735992 96.415849 87.398554 
" clip-path="url(#p67f529fd3f)" style="fill: none; stroke: #000000; stroke-linecap: round"/>
    <path d="M 94.201033 83.513379 
L 96.415849 87.398554 
L 91.978819 86.839302 
z
" clip-path="url(#p67f529fd3f)" style="stroke: #000000; stroke-linecap: round"/>
   </g>
   <g id="patch_31">
    <path d="M 227.122488 201.147052 
Q 217.417651 210.869284 208.502676 219.800239 
" clip-path="url(#p67f529fd3f)" style="fill: none; stroke: #000000; stroke-linecap: round"/>
    <path d="M 212.744049 218.382227 
L 208.502676 219.800239 
L 209.91309 215.556333 
z
" clip-path="url(#p67f529fd3f)" style="stroke: #000000; stroke-linecap: round"/>
   </g>
   <g id="patch_32">
    <path d="M 41.890645 100.135194 
Q 69.472617 94.798021 95.956916 89.673251 
" clip-path="url(#p67f529fd3f)" style="fill: none; stroke: #000000; stroke-linecap: round"/>
    <path d="M 91.649807 88.469587 
L 95.956916 89.673251 
L 92.409719 92.39674 
z
" clip-path="url(#p67f529fd3f)" style="stroke: #000000; stroke-linecap: round"/>
   </g>
   <g id="patch_33">
    <path d="M 278.277699 313.677976 
Q 280.733362 284.27027 283.095989 255.976721 
" clip-path="url(#p67f529fd3f)" style="fill: none; stroke: #000000; stroke-linecap: round"/>
    <path d="M 280.770068 259.796419 
L 283.095989 255.976721 
L 284.756195 260.129277 
z
" clip-path="url(#p67f529fd3f)" style="stroke: #000000; stroke-linecap: round"/>
   </g>
   <g id="patch_34">
    <path d="M 361.204012 269.55525 
Q 323.225159 261.445476 286.339689 253.569177 
" clip-path="url(#p67f529fd3f)" style="fill: none; stroke: #000000; stroke-linecap: round"/>
    <path d="M 289.833848 256.360387 
L 286.339689 253.569177 
L 290.669153 252.448576 
z
" clip-path="url(#p67f529fd3f)" style="stroke: #000000; stroke-linecap: round"/>
   </g>
   <g id="patch_35">
    <path d="M 364.93979 270.545816 
Q 391.954036 279.141999 417.902886 287.399163 
" clip-path="url(#p67f529fd3f)" style="fill: none; stroke: #000000; stroke-linecap: round"/>
    <path d="M 414.697668 284.280417 
L 417.902886 287.399163 
L 413.484759 288.09209 
z
" clip-path="url(#p67f529fd3f)" style="stroke: #000000; stroke-linecap: round"/>
   </g>
   <g id="PathCollection_1">
    <defs>
     <path id="mff7735c395" d="M 0 1.936492 
C 0.513564 1.936492 1.006162 1.732451 1.369306 1.369306 
C 1.732451 1.006162 1.936492 0.513564 1.936492 0 
C 1.936492 -0.513564 1.732451 -1.006162 1.369306 -1.369306 
C 1.006162 -1.732451 0.513564 -1.936492 0 -1.936492 
C -0.513564 -1.936492 -1.006162 -1.732451 -1.369306 -1.369306 
C -1.732451 -1.006162 -1.936492 -0.513564 -1.936492 0 
C -1.936492 0.513564 -1.732451 1.006162 -1.369306 1.369306 
C -1.006162 1.732451 -0.513564 1.936492 0 1.936492 
z
" style="stroke: #1f78b4"/>
    </defs>
    <g clip-path="url(#p67f529fd3f)">
     <use xlink:href="#mff7735c395" x="283.350332" y="252.930848" style="fill: #1f78b4; stroke: #1f78b4"/>
     <use xlink:href="#mff7735c395" x="168.732488" y="82.921064" style="fill: #1f78b4; stroke: #1f78b4"/>
     <use xlink:href="#mff7735c395" x="143.147605" y="160.336065" style="fill: #1f78b4; stroke: #1f78b4"/>
     <use xlink:href="#mff7735c395" x="206.345794" y="221.960987" style="fill: #1f78b4; stroke: #1f78b4"/>
     <use xlink:href="#mff7735c395" x="98.952711" y="89.093558" style="fill: #1f78b4; stroke: #1f78b4"/>
     <use xlink:href="#mff7735c395" x="319.904095" y="297.39034" style="fill: #1f78b4; stroke: #1f78b4"/>
     <use xlink:href="#mff7735c395" x="275.293617" y="173.292497" style="fill: #1f78b4; stroke: #1f78b4"/>
     <use xlink:href="#mff7735c395" x="232.683527" y="111.843182" style="fill: #1f78b4; stroke: #1f78b4"/>
     <use xlink:href="#mff7735c395" x="231.858505" y="265.471032" style="fill: #1f78b4; stroke: #1f78b4"/>
     <use xlink:href="#mff7735c395" x="87.641999" y="29.990083" style="fill: #1f78b4; stroke: #1f78b4"/>
     <use xlink:href="#mff7735c395" x="420.813223" y="288.325259" style="fill: #1f78b4; stroke: #1f78b4"/>
     <use xlink:href="#mff7735c395" x="46.995009" y="54.378036" style="fill: #1f78b4; stroke: #1f78b4"/>
     <use xlink:href="#mff7735c395" x="228.493182" y="199.773901" style="fill: #1f78b4; stroke: #1f78b4"/>
     <use xlink:href="#mff7735c395" x="39.986777" y="100.503597" style="fill: #1f78b4; stroke: #1f78b4"/>
     <use xlink:href="#mff7735c395" x="278.116374" y="315.609917" style="fill: #1f78b4; stroke: #1f78b4"/>
     <use xlink:href="#mff7735c395" x="363.097422" y="269.959558" style="fill: #1f78b4; stroke: #1f78b4"/>
    </g>
   </g>
   <g id="text_1">
    <g clip-path="url(#p67f529fd3f)">
     <!-- 0 -->
     <g transform="translate(280.169082 255.690223) scale(0.1 -0.1)">
      <defs>
       <path id="DejaVuSans-30" d="M 2034 4250 
Q 1547 4250 1301 3770 
Q 1056 3291 1056 2328 
Q 1056 1369 1301 889 
Q 1547 409 2034 409 
Q 2525 409 2770 889 
Q 3016 1369 3016 2328 
Q 3016 3291 2770 3770 
Q 2525 4250 2034 4250 
z
M 2034 4750 
Q 2819 4750 3233 4129 
Q 3647 3509 3647 2328 
Q 3647 1150 3233 529 
Q 2819 -91 2034 -91 
Q 1250 -91 836 529 
Q 422 1150 422 2328 
Q 422 3509 836 4129 
Q 1250 4750 2034 4750 
z
" transform="scale(0.015625)"/>
      </defs>
      <use xlink:href="#DejaVuSans-30"/>
     </g>
    </g>
   </g>
   <g id="text_2">
    <g clip-path="url(#p67f529fd3f)">
     <!-- 1 -->
     <g transform="translate(165.551238 85.680439) scale(0.1 -0.1)">
      <defs>
       <path id="DejaVuSans-31" d="M 794 531 
L 1825 531 
L 1825 4091 
L 703 3866 
L 703 4441 
L 1819 4666 
L 2450 4666 
L 2450 531 
L 3481 531 
L 3481 0 
L 794 0 
L 794 531 
z
" transform="scale(0.015625)"/>
      </defs>
      <use xlink:href="#DejaVuSans-31"/>
     </g>
    </g>
   </g>
   <g id="text_3">
    <g clip-path="url(#p67f529fd3f)">
     <!-- 2 -->
     <g transform="translate(139.966355 163.09544) scale(0.1 -0.1)">
      <defs>
       <path id="DejaVuSans-32" d="M 1228 531 
L 3431 531 
L 3431 0 
L 469 0 
L 469 531 
Q 828 903 1448 1529 
Q 2069 2156 2228 2338 
Q 2531 2678 2651 2914 
Q 2772 3150 2772 3378 
Q 2772 3750 2511 3984 
Q 2250 4219 1831 4219 
Q 1534 4219 1204 4116 
Q 875 4013 500 3803 
L 500 4441 
Q 881 4594 1212 4672 
Q 1544 4750 1819 4750 
Q 2544 4750 2975 4387 
Q 3406 4025 3406 3419 
Q 3406 3131 3298 2873 
Q 3191 2616 2906 2266 
Q 2828 2175 2409 1742 
Q 1991 1309 1228 531 
z
" transform="scale(0.015625)"/>
      </defs>
      <use xlink:href="#DejaVuSans-32"/>
     </g>
    </g>
   </g>
   <g id="text_4">
    <g clip-path="url(#p67f529fd3f)">
     <!-- 3 -->
     <g transform="translate(203.164544 224.720362) scale(0.1 -0.1)">
      <defs>
       <path id="DejaVuSans-33" d="M 2597 2516 
Q 3050 2419 3304 2112 
Q 3559 1806 3559 1356 
Q 3559 666 3084 287 
Q 2609 -91 1734 -91 
Q 1441 -91 1130 -33 
Q 819 25 488 141 
L 488 750 
Q 750 597 1062 519 
Q 1375 441 1716 441 
Q 2309 441 2620 675 
Q 2931 909 2931 1356 
Q 2931 1769 2642 2001 
Q 2353 2234 1838 2234 
L 1294 2234 
L 1294 2753 
L 1863 2753 
Q 2328 2753 2575 2939 
Q 2822 3125 2822 3475 
Q 2822 3834 2567 4026 
Q 2313 4219 1838 4219 
Q 1578 4219 1281 4162 
Q 984 4106 628 3988 
L 628 4550 
Q 988 4650 1302 4700 
Q 1616 4750 1894 4750 
Q 2613 4750 3031 4423 
Q 3450 4097 3450 3541 
Q 3450 3153 3228 2886 
Q 3006 2619 2597 2516 
z
" transform="scale(0.015625)"/>
      </defs>
      <use xlink:href="#DejaVuSans-33"/>
     </g>
    </g>
   </g>
   <g id="text_5">
    <g clip-path="url(#p67f529fd3f)">
     <!-- 4 -->
     <g transform="translate(95.771461 91.852933) scale(0.1 -0.1)">
      <defs>
       <path id="DejaVuSans-34" d="M 2419 4116 
L 825 1625 
L 2419 1625 
L 2419 4116 
z
M 2253 4666 
L 3047 4666 
L 3047 1625 
L 3713 1625 
L 3713 1100 
L 3047 1100 
L 3047 0 
L 2419 0 
L 2419 1100 
L 313 1100 
L 313 1709 
L 2253 4666 
z
" transform="scale(0.015625)"/>
      </defs>
      <use xlink:href="#DejaVuSans-34"/>
     </g>
    </g>
   </g>
   <g id="text_6">
    <g clip-path="url(#p67f529fd3f)">
     <!-- 5 -->
     <g transform="translate(316.722845 300.149715) scale(0.1 -0.1)">
      <defs>
       <path id="DejaVuSans-35" d="M 691 4666 
L 3169 4666 
L 3169 4134 
L 1269 4134 
L 1269 2991 
Q 1406 3038 1543 3061 
Q 1681 3084 1819 3084 
Q 2600 3084 3056 2656 
Q 3513 2228 3513 1497 
Q 3513 744 3044 326 
Q 2575 -91 1722 -91 
Q 1428 -91 1123 -41 
Q 819 9 494 109 
L 494 744 
Q 775 591 1075 516 
Q 1375 441 1709 441 
Q 2250 441 2565 725 
Q 2881 1009 2881 1497 
Q 2881 1984 2565 2268 
Q 2250 2553 1709 2553 
Q 1456 2553 1204 2497 
Q 953 2441 691 2322 
L 691 4666 
z
" transform="scale(0.015625)"/>
      </defs>
      <use xlink:href="#DejaVuSans-35"/>
     </g>
    </g>
   </g>
   <g id="text_7">
    <g clip-path="url(#p67f529fd3f)">
     <!-- 6 -->
     <g transform="translate(272.112367 176.051872) scale(0.1 -0.1)">
      <defs>
       <path id="DejaVuSans-36" d="M 2113 2584 
Q 1688 2584 1439 2293 
Q 1191 2003 1191 1497 
Q 1191 994 1439 701 
Q 1688 409 2113 409 
Q 2538 409 2786 701 
Q 3034 994 3034 1497 
Q 3034 2003 2786 2293 
Q 2538 2584 2113 2584 
z
M 3366 4563 
L 3366 3988 
Q 3128 4100 2886 4159 
Q 2644 4219 2406 4219 
Q 1781 4219 1451 3797 
Q 1122 3375 1075 2522 
Q 1259 2794 1537 2939 
Q 1816 3084 2150 3084 
Q 2853 3084 3261 2657 
Q 3669 2231 3669 1497 
Q 3669 778 3244 343 
Q 2819 -91 2113 -91 
Q 1303 -91 875 529 
Q 447 1150 447 2328 
Q 447 3434 972 4092 
Q 1497 4750 2381 4750 
Q 2619 4750 2861 4703 
Q 3103 4656 3366 4563 
z
" transform="scale(0.015625)"/>
      </defs>
      <use xlink:href="#DejaVuSans-36"/>
     </g>
    </g>
   </g>
   <g id="text_8">
    <g clip-path="url(#p67f529fd3f)">
     <!-- 7 -->
     <g transform="translate(229.502277 114.602557) scale(0.1 -0.1)">
      <defs>
       <path id="DejaVuSans-37" d="M 525 4666 
L 3525 4666 
L 3525 4397 
L 1831 0 
L 1172 0 
L 2766 4134 
L 525 4134 
L 525 4666 
z
" transform="scale(0.015625)"/>
      </defs>
      <use xlink:href="#DejaVuSans-37"/>
     </g>
    </g>
   </g>
   <g id="text_9">
    <g clip-path="url(#p67f529fd3f)">
     <!-- 8 -->
     <g transform="translate(228.677255 268.230407) scale(0.1 -0.1)">
      <defs>
       <path id="DejaVuSans-38" d="M 2034 2216 
Q 1584 2216 1326 1975 
Q 1069 1734 1069 1313 
Q 1069 891 1326 650 
Q 1584 409 2034 409 
Q 2484 409 2743 651 
Q 3003 894 3003 1313 
Q 3003 1734 2745 1975 
Q 2488 2216 2034 2216 
z
M 1403 2484 
Q 997 2584 770 2862 
Q 544 3141 544 3541 
Q 544 4100 942 4425 
Q 1341 4750 2034 4750 
Q 2731 4750 3128 4425 
Q 3525 4100 3525 3541 
Q 3525 3141 3298 2862 
Q 3072 2584 2669 2484 
Q 3125 2378 3379 2068 
Q 3634 1759 3634 1313 
Q 3634 634 3220 271 
Q 2806 -91 2034 -91 
Q 1263 -91 848 271 
Q 434 634 434 1313 
Q 434 1759 690 2068 
Q 947 2378 1403 2484 
z
M 1172 3481 
Q 1172 3119 1398 2916 
Q 1625 2713 2034 2713 
Q 2441 2713 2670 2916 
Q 2900 3119 2900 3481 
Q 2900 3844 2670 4047 
Q 2441 4250 2034 4250 
Q 1625 4250 1398 4047 
Q 1172 3844 1172 3481 
z
" transform="scale(0.015625)"/>
      </defs>
      <use xlink:href="#DejaVuSans-38"/>
     </g>
    </g>
   </g>
   <g id="text_10">
    <g clip-path="url(#p67f529fd3f)">
     <!-- 9 -->
     <g transform="translate(84.460749 32.749458) scale(0.1 -0.1)">
      <defs>
       <path id="DejaVuSans-39" d="M 703 97 
L 703 672 
Q 941 559 1184 500 
Q 1428 441 1663 441 
Q 2288 441 2617 861 
Q 2947 1281 2994 2138 
Q 2813 1869 2534 1725 
Q 2256 1581 1919 1581 
Q 1219 1581 811 2004 
Q 403 2428 403 3163 
Q 403 3881 828 4315 
Q 1253 4750 1959 4750 
Q 2769 4750 3195 4129 
Q 3622 3509 3622 2328 
Q 3622 1225 3098 567 
Q 2575 -91 1691 -91 
Q 1453 -91 1209 -44 
Q 966 3 703 97 
z
M 1959 2075 
Q 2384 2075 2632 2365 
Q 2881 2656 2881 3163 
Q 2881 3666 2632 3958 
Q 2384 4250 1959 4250 
Q 1534 4250 1286 3958 
Q 1038 3666 1038 3163 
Q 1038 2656 1286 2365 
Q 1534 2075 1959 2075 
z
" transform="scale(0.015625)"/>
      </defs>
      <use xlink:href="#DejaVuSans-39"/>
     </g>
    </g>
   </g>
   <g id="text_11">
    <g clip-path="url(#p67f529fd3f)">
     <!-- 10 -->
     <g transform="translate(414.450723 291.084634) scale(0.1 -0.1)">
      <use xlink:href="#DejaVuSans-31"/>
      <use xlink:href="#DejaVuSans-30" x="63.623047"/>
     </g>
    </g>
   </g>
   <g id="text_12">
    <g clip-path="url(#p67f529fd3f)">
     <!-- 11 -->
     <g transform="translate(40.632509 57.137411) scale(0.1 -0.1)">
      <use xlink:href="#DejaVuSans-31"/>
      <use xlink:href="#DejaVuSans-31" x="63.623047"/>
     </g>
    </g>
   </g>
   <g id="text_13">
    <g clip-path="url(#p67f529fd3f)">
     <!-- 12 -->
     <g transform="translate(222.130682 202.533276) scale(0.1 -0.1)">
      <use xlink:href="#DejaVuSans-31"/>
      <use xlink:href="#DejaVuSans-32" x="63.623047"/>
     </g>
    </g>
   </g>
   <g id="text_14">
    <g clip-path="url(#p67f529fd3f)">
     <!-- 13 -->
     <g transform="translate(33.624277 103.262972) scale(0.1 -0.1)">
      <use xlink:href="#DejaVuSans-31"/>
      <use xlink:href="#DejaVuSans-33" x="63.623047"/>
     </g>
    </g>
   </g>
   <g id="text_15">
    <g clip-path="url(#p67f529fd3f)">
     <!-- 14 -->
     <g transform="translate(271.753874 318.369292) scale(0.1 -0.1)">
      <use xlink:href="#DejaVuSans-31"/>
      <use xlink:href="#DejaVuSans-34" x="63.623047"/>
     </g>
    </g>
   </g>
   <g id="text_16">
    <g clip-path="url(#p67f529fd3f)">
     <!-- 15 -->
     <g transform="translate(356.734922 272.718933) scale(0.1 -0.1)">
      <use xlink:href="#DejaVuSans-31"/>
      <use xlink:href="#DejaVuSans-35" x="63.623047"/>
     </g>
    </g>
   </g>
  </g>
 </g>
 <defs>
  <clipPath id="p67f529fd3f">
   <rect x="0" y="0" width="460.8" height="345.6"/>
  </clipPath>
 </defs>
</svg>
