<?xml version="1.0" encoding="utf-8" standalone="no"?>
<!DOCTYPE svg PUBLIC "-//W3C//DTD SVG 1.1//EN"
  "http://www.w3.org/Graphics/SVG/1.1/DTD/svg11.dtd">
<svg xmlns:xlink="http://www.w3.org/1999/xlink" width="460.8pt" height="345.6pt" viewBox="0 0 460.8 345.6" xmlns="http://www.w3.org/2000/svg" version="1.1">
 <metadata>
  <rdf:RDF xmlns:dc="http://purl.org/dc/elements/1.1/" xmlns:cc="http://creativecommons.org/ns#" xmlns:rdf="http://www.w3.org/1999/02/22-rdf-syntax-ns#">
   <cc:Work>
    <dc:type rdf:resource="http://purl.org/dc/dcmitype/StillImage"/>
    <dc:date>2024-02-28T11:18:12.557133</dc:date>
    <dc:format>image/svg+xml</dc:format>
    <dc:creator>
     <cc:Agent>
      <dc:title>Matplotlib v3.8.0, https://matplotlib.org/</dc:title>
     </cc:Agent>
    </dc:creator>
   </cc:Work>
  </rdf:RDF>
 </metadata>
 <defs>
  <style type="text/css">*{stroke-linejoin: round; stroke-linecap: butt}</style>
 </defs>
 <g id="figure_1">
  <g id="patch_1">
   <path d="M 0 345.6 
L 460.8 345.6 
L 460.8 0 
L 0 0 
z
" style="fill: #ffffff"/>
  </g>
  <g id="axes_1">
   <g id="patch_2">
    <path d="M 254.960907 164.371579 
Q 208.204695 155.549475 162.547131 146.934668 
" clip-path="url(#p257716b9dd)" style="fill: none; stroke: #000000; stroke-linecap: round"/>
    <path d="M 166.106952 149.641635 
L 162.547131 146.934668 
L 166.848597 145.710992 
z
" clip-path="url(#p257716b9dd)" style="stroke: #000000; stroke-linecap: round"/>
   </g>
   <g id="patch_3">
    <path d="M 97.224832 313.805729 
Q 110.393397 279.994016 123.15621 247.224112 
" clip-path="url(#p257716b9dd)" style="fill: none; stroke: #000000; stroke-linecap: round"/>
    <path d="M 119.840907 250.225572 
L 123.15621 247.224112 
L 123.568197 251.677231 
z
" clip-path="url(#p257716b9dd)" style="stroke: #000000; stroke-linecap: round"/>
   </g>
   <g id="patch_4">
    <path d="M 123.560666 246.185629 
Q 110.392101 279.997342 97.629288 312.767246 
" clip-path="url(#p257716b9dd)" style="fill: none; stroke: #000000; stroke-linecap: round"/>
    <path d="M 100.944591 309.765786 
L 97.629288 312.767246 
L 97.217301 308.314127 
z
" clip-path="url(#p257716b9dd)" style="stroke: #000000; stroke-linecap: round"/>
   </g>
   <g id="patch_5">
    <path d="M 124.919094 242.559852 
Q 141.904961 195.375711 158.512137 149.243516 
" clip-path="url(#p257716b9dd)" style="fill: none; stroke: #000000; stroke-linecap: round"/>
    <path d="M 155.275509 152.329652 
L 158.512137 149.243516 
L 159.039069 153.6845 
z
" clip-path="url(#p257716b9dd)" style="stroke: #000000; stroke-linecap: round"/>
   </g>
   <g id="patch_6">
    <path d="M 86.11615 190.310414 
Q 122.001348 168.836351 156.927167 147.936389 
" clip-path="url(#p257716b9dd)" style="fill: none; stroke: #000000; stroke-linecap: round"/>
    <path d="M 152.467805 148.27417 
L 156.927167 147.936389 
L 154.521774 151.706547 
z
" clip-path="url(#p257716b9dd)" style="stroke: #000000; stroke-linecap: round"/>
   </g>
   <g id="patch_7">
    <path d="M 211.782375 205.983746 
Q 186.303958 176.905721 161.562348 148.668597 
" clip-path="url(#p257716b9dd)" style="fill: none; stroke: #000000; stroke-linecap: round"/>
    <path d="M 162.694173 152.99514 
L 161.562348 148.668597 
L 165.702677 150.359063 
z
" clip-path="url(#p257716b9dd)" style="stroke: #000000; stroke-linecap: round"/>
   </g>
   <g id="patch_8">
    <path d="M 307.365004 90.858834 
Q 234.360505 118.27407 162.402673 145.296253 
" clip-path="url(#p257716b9dd)" style="fill: none; stroke: #000000; stroke-linecap: round"/>
    <path d="M 166.850452 145.762359 
L 162.402673 145.296253 
L 165.444225 142.017692 
z
" clip-path="url(#p257716b9dd)" style="stroke: #000000; stroke-linecap: round"/>
   </g>
   <g id="patch_9">
    <path d="M 311.109531 90.09324 
Q 364.99551 87.727159 417.764532 85.410122 
" clip-path="url(#p257716b9dd)" style="fill: none; stroke: #000000; stroke-linecap: round"/>
    <path d="M 413.680649 83.587514 
L 417.764532 85.410122 
L 413.856116 87.583664 
z
" clip-path="url(#p257716b9dd)" style="stroke: #000000; stroke-linecap: round"/>
   </g>
   <g id="patch_10">
    <path d="M 310.573651 88.839038 
Q 340.546585 60.085339 369.712709 32.10563 
" clip-path="url(#p257716b9dd)" style="fill: none; stroke: #000000; stroke-linecap: round"/>
    <path d="M 365.441628 33.431476 
L 369.712709 32.10563 
L 368.210737 36.318002 
z
" clip-path="url(#p257716b9dd)" style="stroke: #000000; stroke-linecap: round"/>
   </g>
   <g id="patch_11">
    <path d="M 418.881544 85.361075 
Q 364.995565 87.727156 312.226543 90.044194 
" clip-path="url(#p257716b9dd)" style="fill: none; stroke: #000000; stroke-linecap: round"/>
    <path d="M 316.310426 91.866801 
L 312.226543 90.044194 
L 316.134959 87.870652 
z
" clip-path="url(#p257716b9dd)" style="stroke: #000000; stroke-linecap: round"/>
   </g>
   <g id="patch_12">
    <path d="M 370.522163 31.329103 
Q 340.549229 60.082802 311.383104 88.062511 
" clip-path="url(#p257716b9dd)" style="fill: none; stroke: #000000; stroke-linecap: round"/>
    <path d="M 315.654185 86.736666 
L 311.383104 88.062511 
L 312.885077 83.850139 
z
" clip-path="url(#p257716b9dd)" style="stroke: #000000; stroke-linecap: round"/>
   </g>
   <g id="patch_13">
    <path d="M 188.184838 84.630526 
Q 174.274095 114.619694 160.833812 143.59463 
" clip-path="url(#p257716b9dd)" style="fill: none; stroke: #000000; stroke-linecap: round"/>
    <path d="M 164.331297 140.807589 
L 160.833812 143.59463 
L 160.70267 139.124417 
z
" clip-path="url(#p257716b9dd)" style="stroke: #000000; stroke-linecap: round"/>
   </g>
   <g id="patch_14">
    <path d="M 41.916934 152.73483 
Q 99.764558 149.604078 156.495782 146.533747 
" clip-path="url(#p257716b9dd)" style="fill: none; stroke: #000000; stroke-linecap: round"/>
    <path d="M 152.393544 144.752836 
L 156.495782 146.533747 
L 152.60971 148.74699 
z
" clip-path="url(#p257716b9dd)" style="stroke: #000000; stroke-linecap: round"/>
   </g>
   <g id="patch_15">
    <path d="M 161.45078 146.727805 
Q 208.206993 155.549909 253.864557 164.164717 
" clip-path="url(#p257716b9dd)" style="fill: none; stroke: #000000; stroke-linecap: round"/>
    <path d="M 250.304736 161.457749 
L 253.864557 164.164717 
L 249.56309 165.388393 
z
" clip-path="url(#p257716b9dd)" style="stroke: #000000; stroke-linecap: round"/>
   </g>
   <g id="patch_16">
    <path d="M 158.891322 148.190197 
Q 141.905455 195.374339 125.298279 241.506533 
" clip-path="url(#p257716b9dd)" style="fill: none; stroke: #000000; stroke-linecap: round"/>
    <path d="M 128.534907 238.420397 
L 125.298279 241.506533 
L 124.771347 237.065549 
z
" clip-path="url(#p257716b9dd)" style="stroke: #000000; stroke-linecap: round"/>
   </g>
   <g id="patch_17">
    <path d="M 157.885641 147.362829 
Q 122.000443 168.836892 87.074624 189.736854 
" clip-path="url(#p257716b9dd)" style="fill: none; stroke: #000000; stroke-linecap: round"/>
    <path d="M 91.533985 189.399073 
L 87.074624 189.736854 
L 89.480016 185.966696 
z
" clip-path="url(#p257716b9dd)" style="stroke: #000000; stroke-linecap: round"/>
   </g>
   <g id="patch_18">
    <path d="M 160.824136 147.826091 
Q 186.302553 176.904117 211.044164 205.14124 
" clip-path="url(#p257716b9dd)" style="fill: none; stroke: #000000; stroke-linecap: round"/>
    <path d="M 209.912339 200.814697 
L 211.044164 205.14124 
L 206.903835 203.450774 
z
" clip-path="url(#p257716b9dd)" style="stroke: #000000; stroke-linecap: round"/>
   </g>
   <g id="patch_19">
    <path d="M 161.359926 145.687833 
Q 234.364424 118.272598 306.322257 91.250415 
" clip-path="url(#p257716b9dd)" style="fill: none; stroke: #000000; stroke-linecap: round"/>
    <path d="M 301.874477 90.784309 
L 306.322257 91.250415 
L 303.280704 94.528975 
z
" clip-path="url(#p257716b9dd)" style="stroke: #000000; stroke-linecap: round"/>
   </g>
   <g id="patch_20">
    <path d="M 160.361396 144.613078 
Q 174.272139 114.62391 187.712422 85.648975 
" clip-path="url(#p257716b9dd)" style="fill: none; stroke: #000000; stroke-linecap: round"/>
    <path d="M 184.214937 88.436016 
L 187.712422 85.648975 
L 187.843564 90.119187 
z
" clip-path="url(#p257716b9dd)" style="stroke: #000000; stroke-linecap: round"/>
   </g>
   <g id="patch_21">
    <path d="M 157.61692 146.47307 
Q 99.769296 149.603822 43.038072 152.674153 
" clip-path="url(#p257716b9dd)" style="fill: none; stroke: #000000; stroke-linecap: round"/>
    <path d="M 47.14031 154.455064 
L 43.038072 152.674153 
L 46.924144 150.46091 
z
" clip-path="url(#p257716b9dd)" style="stroke: #000000; stroke-linecap: round"/>
   </g>
   <g id="patch_22">
    <path d="M 157.741357 145.665992 
Q 108.800214 126.622696 60.901007 107.984824 
" clip-path="url(#p257716b9dd)" style="fill: none; stroke: #000000; stroke-linecap: round"/>
    <path d="M 63.903508 111.299185 
L 60.901007 107.984824 
L 65.353996 107.57144 
z
" clip-path="url(#p257716b9dd)" style="stroke: #000000; stroke-linecap: round"/>
   </g>
   <g id="patch_23">
    <path d="M 158.480601 144.749636 
Q 135.965777 110.570835 114.06599 77.325697 
" clip-path="url(#p257716b9dd)" style="fill: none; stroke: #000000; stroke-linecap: round"/>
    <path d="M 114.59623 81.766288 
L 114.06599 77.325697 
L 117.936607 79.565859 
z
" clip-path="url(#p257716b9dd)" style="stroke: #000000; stroke-linecap: round"/>
   </g>
   <g id="patch_24">
    <path d="M 59.860776 107.580064 
Q 108.801919 126.62336 156.701126 145.261231 
" clip-path="url(#p257716b9dd)" style="fill: none; stroke: #000000; stroke-linecap: round"/>
    <path d="M 153.698625 141.946871 
L 156.701126 145.261231 
L 152.248136 145.674616 
z
" clip-path="url(#p257716b9dd)" style="stroke: #000000; stroke-linecap: round"/>
   </g>
   <g id="patch_25">
    <path d="M 113.452562 76.394477 
Q 135.967386 110.573278 157.867173 143.818416 
" clip-path="url(#p257716b9dd)" style="fill: none; stroke: #000000; stroke-linecap: round"/>
    <path d="M 157.336933 139.377825 
L 157.867173 143.818416 
L 153.996556 141.578253 
z
" clip-path="url(#p257716b9dd)" style="stroke: #000000; stroke-linecap: round"/>
   </g>
   <g id="PathCollection_1">
    <defs>
     <path id="m809deb0a24" d="M 0 1.936492 
C 0.513564 1.936492 1.006162 1.732451 1.369306 1.369306 
C 1.732451 1.006162 1.936492 0.513564 1.936492 0 
C 1.936492 -0.513564 1.732451 -1.006162 1.369306 -1.369306 
C 1.006162 -1.732451 0.513564 -1.936492 0 -1.936492 
C -0.513564 -1.936492 -1.006162 -1.732451 -1.369306 -1.369306 
C -1.732451 -1.006162 -1.936492 -0.513564 -1.936492 0 
C -1.936492 0.513564 -1.732451 1.006162 -1.369306 1.369306 
C -1.006162 1.732451 -0.513564 1.936492 0 1.936492 
z
" style="stroke: #1f78b4"/>
    </defs>
    <g clip-path="url(#p257716b9dd)">
     <use xlink:href="#m809deb0a24" x="256.86461" y="164.730776" style="fill: #1f78b4; stroke: #1f78b4"/>
     <use xlink:href="#m809deb0a24" x="96.52216" y="315.609917" style="fill: #1f78b4; stroke: #1f78b4"/>
     <use xlink:href="#m809deb0a24" x="124.263338" y="244.381441" style="fill: #1f78b4; stroke: #1f78b4"/>
     <use xlink:href="#m809deb0a24" x="84.454713" y="191.304635" style="fill: #1f78b4; stroke: #1f78b4"/>
     <use xlink:href="#m809deb0a24" x="213.059434" y="207.441229" style="fill: #1f78b4; stroke: #1f78b4"/>
     <use xlink:href="#m809deb0a24" x="309.177852" y="90.178059" style="fill: #1f78b4; stroke: #1f78b4"/>
     <use xlink:href="#m809deb0a24" x="420.813223" y="85.276257" style="fill: #1f78b4; stroke: #1f78b4"/>
     <use xlink:href="#m809deb0a24" x="371.917962" y="29.990083" style="fill: #1f78b4; stroke: #1f78b4"/>
     <use xlink:href="#m809deb0a24" x="188.999157" y="82.874996" style="fill: #1f78b4; stroke: #1f78b4"/>
     <use xlink:href="#m809deb0a24" x="39.986777" y="152.839292" style="fill: #1f78b4; stroke: #1f78b4"/>
     <use xlink:href="#m809deb0a24" x="159.547078" y="146.368609" style="fill: #1f78b4; stroke: #1f78b4"/>
     <use xlink:href="#m809deb0a24" x="58.055055" y="106.877447" style="fill: #1f78b4; stroke: #1f78b4"/>
     <use xlink:href="#m809deb0a24" x="112.386085" y="74.775504" style="fill: #1f78b4; stroke: #1f78b4"/>
    </g>
   </g>
   <g id="text_1">
    <g clip-path="url(#p257716b9dd)">
     <!-- 0 -->
     <g transform="translate(253.68336 167.490151) scale(0.1 -0.1)">
      <defs>
       <path id="DejaVuSans-30" d="M 2034 4250 
Q 1547 4250 1301 3770 
Q 1056 3291 1056 2328 
Q 1056 1369 1301 889 
Q 1547 409 2034 409 
Q 2525 409 2770 889 
Q 3016 1369 3016 2328 
Q 3016 3291 2770 3770 
Q 2525 4250 2034 4250 
z
M 2034 4750 
Q 2819 4750 3233 4129 
Q 3647 3509 3647 2328 
Q 3647 1150 3233 529 
Q 2819 -91 2034 -91 
Q 1250 -91 836 529 
Q 422 1150 422 2328 
Q 422 3509 836 4129 
Q 1250 4750 2034 4750 
z
" transform="scale(0.015625)"/>
      </defs>
      <use xlink:href="#DejaVuSans-30"/>
     </g>
    </g>
   </g>
   <g id="text_2">
    <g clip-path="url(#p257716b9dd)">
     <!-- 1 -->
     <g transform="translate(93.34091 318.369292) scale(0.1 -0.1)">
      <defs>
       <path id="DejaVuSans-31" d="M 794 531 
L 1825 531 
L 1825 4091 
L 703 3866 
L 703 4441 
L 1819 4666 
L 2450 4666 
L 2450 531 
L 3481 531 
L 3481 0 
L 794 0 
L 794 531 
z
" transform="scale(0.015625)"/>
      </defs>
      <use xlink:href="#DejaVuSans-31"/>
     </g>
    </g>
   </g>
   <g id="text_3">
    <g clip-path="url(#p257716b9dd)">
     <!-- 2 -->
     <g transform="translate(121.082088 247.140816) scale(0.1 -0.1)">
      <defs>
       <path id="DejaVuSans-32" d="M 1228 531 
L 3431 531 
L 3431 0 
L 469 0 
L 469 531 
Q 828 903 1448 1529 
Q 2069 2156 2228 2338 
Q 2531 2678 2651 2914 
Q 2772 3150 2772 3378 
Q 2772 3750 2511 3984 
Q 2250 4219 1831 4219 
Q 1534 4219 1204 4116 
Q 875 4013 500 3803 
L 500 4441 
Q 881 4594 1212 4672 
Q 1544 4750 1819 4750 
Q 2544 4750 2975 4387 
Q 3406 4025 3406 3419 
Q 3406 3131 3298 2873 
Q 3191 2616 2906 2266 
Q 2828 2175 2409 1742 
Q 1991 1309 1228 531 
z
" transform="scale(0.015625)"/>
      </defs>
      <use xlink:href="#DejaVuSans-32"/>
     </g>
    </g>
   </g>
   <g id="text_4">
    <g clip-path="url(#p257716b9dd)">
     <!-- 3 -->
     <g transform="translate(81.273463 194.06401) scale(0.1 -0.1)">
      <defs>
       <path id="DejaVuSans-33" d="M 2597 2516 
Q 3050 2419 3304 2112 
Q 3559 1806 3559 1356 
Q 3559 666 3084 287 
Q 2609 -91 1734 -91 
Q 1441 -91 1130 -33 
Q 819 25 488 141 
L 488 750 
Q 750 597 1062 519 
Q 1375 441 1716 441 
Q 2309 441 2620 675 
Q 2931 909 2931 1356 
Q 2931 1769 2642 2001 
Q 2353 2234 1838 2234 
L 1294 2234 
L 1294 2753 
L 1863 2753 
Q 2328 2753 2575 2939 
Q 2822 3125 2822 3475 
Q 2822 3834 2567 4026 
Q 2313 4219 1838 4219 
Q 1578 4219 1281 4162 
Q 984 4106 628 3988 
L 628 4550 
Q 988 4650 1302 4700 
Q 1616 4750 1894 4750 
Q 2613 4750 3031 4423 
Q 3450 4097 3450 3541 
Q 3450 3153 3228 2886 
Q 3006 2619 2597 2516 
z
" transform="scale(0.015625)"/>
      </defs>
      <use xlink:href="#DejaVuSans-33"/>
     </g>
    </g>
   </g>
   <g id="text_5">
    <g clip-path="url(#p257716b9dd)">
     <!-- 4 -->
     <g transform="translate(209.878184 210.200604) scale(0.1 -0.1)">
      <defs>
       <path id="DejaVuSans-34" d="M 2419 4116 
L 825 1625 
L 2419 1625 
L 2419 4116 
z
M 2253 4666 
L 3047 4666 
L 3047 1625 
L 3713 1625 
L 3713 1100 
L 3047 1100 
L 3047 0 
L 2419 0 
L 2419 1100 
L 313 1100 
L 313 1709 
L 2253 4666 
z
" transform="scale(0.015625)"/>
      </defs>
      <use xlink:href="#DejaVuSans-34"/>
     </g>
    </g>
   </g>
   <g id="text_6">
    <g clip-path="url(#p257716b9dd)">
     <!-- 5 -->
     <g transform="translate(305.996602 92.937434) scale(0.1 -0.1)">
      <defs>
       <path id="DejaVuSans-35" d="M 691 4666 
L 3169 4666 
L 3169 4134 
L 1269 4134 
L 1269 2991 
Q 1406 3038 1543 3061 
Q 1681 3084 1819 3084 
Q 2600 3084 3056 2656 
Q 3513 2228 3513 1497 
Q 3513 744 3044 326 
Q 2575 -91 1722 -91 
Q 1428 -91 1123 -41 
Q 819 9 494 109 
L 494 744 
Q 775 591 1075 516 
Q 1375 441 1709 441 
Q 2250 441 2565 725 
Q 2881 1009 2881 1497 
Q 2881 1984 2565 2268 
Q 2250 2553 1709 2553 
Q 1456 2553 1204 2497 
Q 953 2441 691 2322 
L 691 4666 
z
" transform="scale(0.015625)"/>
      </defs>
      <use xlink:href="#DejaVuSans-35"/>
     </g>
    </g>
   </g>
   <g id="text_7">
    <g clip-path="url(#p257716b9dd)">
     <!-- 6 -->
     <g transform="translate(417.631973 88.035632) scale(0.1 -0.1)">
      <defs>
       <path id="DejaVuSans-36" d="M 2113 2584 
Q 1688 2584 1439 2293 
Q 1191 2003 1191 1497 
Q 1191 994 1439 701 
Q 1688 409 2113 409 
Q 2538 409 2786 701 
Q 3034 994 3034 1497 
Q 3034 2003 2786 2293 
Q 2538 2584 2113 2584 
z
M 3366 4563 
L 3366 3988 
Q 3128 4100 2886 4159 
Q 2644 4219 2406 4219 
Q 1781 4219 1451 3797 
Q 1122 3375 1075 2522 
Q 1259 2794 1537 2939 
Q 1816 3084 2150 3084 
Q 2853 3084 3261 2657 
Q 3669 2231 3669 1497 
Q 3669 778 3244 343 
Q 2819 -91 2113 -91 
Q 1303 -91 875 529 
Q 447 1150 447 2328 
Q 447 3434 972 4092 
Q 1497 4750 2381 4750 
Q 2619 4750 2861 4703 
Q 3103 4656 3366 4563 
z
" transform="scale(0.015625)"/>
      </defs>
      <use xlink:href="#DejaVuSans-36"/>
     </g>
    </g>
   </g>
   <g id="text_8">
    <g clip-path="url(#p257716b9dd)">
     <!-- 7 -->
     <g transform="translate(368.736712 32.749458) scale(0.1 -0.1)">
      <defs>
       <path id="DejaVuSans-37" d="M 525 4666 
L 3525 4666 
L 3525 4397 
L 1831 0 
L 1172 0 
L 2766 4134 
L 525 4134 
L 525 4666 
z
" transform="scale(0.015625)"/>
      </defs>
      <use xlink:href="#DejaVuSans-37"/>
     </g>
    </g>
   </g>
   <g id="text_9">
    <g clip-path="url(#p257716b9dd)">
     <!-- 8 -->
     <g transform="translate(185.817907 85.634371) scale(0.1 -0.1)">
      <defs>
       <path id="DejaVuSans-38" d="M 2034 2216 
Q 1584 2216 1326 1975 
Q 1069 1734 1069 1313 
Q 1069 891 1326 650 
Q 1584 409 2034 409 
Q 2484 409 2743 651 
Q 3003 894 3003 1313 
Q 3003 1734 2745 1975 
Q 2488 2216 2034 2216 
z
M 1403 2484 
Q 997 2584 770 2862 
Q 544 3141 544 3541 
Q 544 4100 942 4425 
Q 1341 4750 2034 4750 
Q 2731 4750 3128 4425 
Q 3525 4100 3525 3541 
Q 3525 3141 3298 2862 
Q 3072 2584 2669 2484 
Q 3125 2378 3379 2068 
Q 3634 1759 3634 1313 
Q 3634 634 3220 271 
Q 2806 -91 2034 -91 
Q 1263 -91 848 271 
Q 434 634 434 1313 
Q 434 1759 690 2068 
Q 947 2378 1403 2484 
z
M 1172 3481 
Q 1172 3119 1398 2916 
Q 1625 2713 2034 2713 
Q 2441 2713 2670 2916 
Q 2900 3119 2900 3481 
Q 2900 3844 2670 4047 
Q 2441 4250 2034 4250 
Q 1625 4250 1398 4047 
Q 1172 3844 1172 3481 
z
" transform="scale(0.015625)"/>
      </defs>
      <use xlink:href="#DejaVuSans-38"/>
     </g>
    </g>
   </g>
   <g id="text_10">
    <g clip-path="url(#p257716b9dd)">
     <!-- 9 -->
     <g transform="translate(36.805527 155.598667) scale(0.1 -0.1)">
      <defs>
       <path id="DejaVuSans-39" d="M 703 97 
L 703 672 
Q 941 559 1184 500 
Q 1428 441 1663 441 
Q 2288 441 2617 861 
Q 2947 1281 2994 2138 
Q 2813 1869 2534 1725 
Q 2256 1581 1919 1581 
Q 1219 1581 811 2004 
Q 403 2428 403 3163 
Q 403 3881 828 4315 
Q 1253 4750 1959 4750 
Q 2769 4750 3195 4129 
Q 3622 3509 3622 2328 
Q 3622 1225 3098 567 
Q 2575 -91 1691 -91 
Q 1453 -91 1209 -44 
Q 966 3 703 97 
z
M 1959 2075 
Q 2384 2075 2632 2365 
Q 2881 2656 2881 3163 
Q 2881 3666 2632 3958 
Q 2384 4250 1959 4250 
Q 1534 4250 1286 3958 
Q 1038 3666 1038 3163 
Q 1038 2656 1286 2365 
Q 1534 2075 1959 2075 
z
" transform="scale(0.015625)"/>
      </defs>
      <use xlink:href="#DejaVuSans-39"/>
     </g>
    </g>
   </g>
   <g id="text_11">
    <g clip-path="url(#p257716b9dd)">
     <!-- 10 -->
     <g transform="translate(153.184578 149.127984) scale(0.1 -0.1)">
      <use xlink:href="#DejaVuSans-31"/>
      <use xlink:href="#DejaVuSans-30" x="63.623047"/>
     </g>
    </g>
   </g>
   <g id="text_12">
    <g clip-path="url(#p257716b9dd)">
     <!-- 11 -->
     <g transform="translate(51.692555 109.636822) scale(0.1 -0.1)">
      <use xlink:href="#DejaVuSans-31"/>
      <use xlink:href="#DejaVuSans-31" x="63.623047"/>
     </g>
    </g>
   </g>
   <g id="text_13">
    <g clip-path="url(#p257716b9dd)">
     <!-- 12 -->
     <g transform="translate(106.023585 77.534879) scale(0.1 -0.1)">
      <use xlink:href="#DejaVuSans-31"/>
      <use xlink:href="#DejaVuSans-32" x="63.623047"/>
     </g>
    </g>
   </g>
  </g>
 </g>
 <defs>
  <clipPath id="p257716b9dd">
   <rect x="0" y="0" width="460.8" height="345.6"/>
  </clipPath>
 </defs>
</svg>
