<?xml version="1.0" encoding="utf-8" standalone="no"?>
<!DOCTYPE svg PUBLIC "-//W3C//DTD SVG 1.1//EN"
  "http://www.w3.org/Graphics/SVG/1.1/DTD/svg11.dtd">
<svg xmlns:xlink="http://www.w3.org/1999/xlink" width="460.8pt" height="345.6pt" viewBox="0 0 460.8 345.6" xmlns="http://www.w3.org/2000/svg" version="1.1">
 <metadata>
  <rdf:RDF xmlns:dc="http://purl.org/dc/elements/1.1/" xmlns:cc="http://creativecommons.org/ns#" xmlns:rdf="http://www.w3.org/1999/02/22-rdf-syntax-ns#">
   <cc:Work>
    <dc:type rdf:resource="http://purl.org/dc/dcmitype/StillImage"/>
    <dc:date>2024-02-28T11:18:14.158925</dc:date>
    <dc:format>image/svg+xml</dc:format>
    <dc:creator>
     <cc:Agent>
      <dc:title>Matplotlib v3.8.0, https://matplotlib.org/</dc:title>
     </cc:Agent>
    </dc:creator>
   </cc:Work>
  </rdf:RDF>
 </metadata>
 <defs>
  <style type="text/css">*{stroke-linejoin: round; stroke-linecap: butt}</style>
 </defs>
 <g id="figure_1">
  <g id="patch_1">
   <path d="M 0 345.6 
L 460.8 345.6 
L 460.8 0 
L 0 0 
z
" style="fill: #ffffff"/>
  </g>
  <g id="axes_1">
   <g id="patch_2">
    <path d="M 341.507243 314.069334 
Q 302.222492 262.248165 263.613161 211.317955 
" clip-path="url(#p398920c932)" style="fill: none; stroke: #000000; stroke-linecap: round"/>
    <path d="M 264.435824 215.713774 
L 263.613161 211.317955 
L 267.623414 213.297316 
z
" clip-path="url(#p398920c932)" style="stroke: #000000; stroke-linecap: round"/>
   </g>
   <g id="patch_3">
    <path d="M 262.93513 210.423554 
Q 302.219882 262.244723 340.829213 313.174933 
" clip-path="url(#p398920c932)" style="fill: none; stroke: #000000; stroke-linecap: round"/>
    <path d="M 340.00655 308.779114 
L 340.829213 313.174933 
L 336.81896 311.195572 
z
" clip-path="url(#p398920c932)" style="stroke: #000000; stroke-linecap: round"/>
   </g>
   <g id="patch_4">
    <path d="M 259.875527 209.30804 
Q 150.875651 233.800411 42.966609 258.047671 
" clip-path="url(#p398920c932)" style="fill: none; stroke: #000000; stroke-linecap: round"/>
    <path d="M 47.307767 259.122077 
L 42.966609 258.047671 
L 46.430829 255.219388 
z
" clip-path="url(#p398920c932)" style="stroke: #000000; stroke-linecap: round"/>
   </g>
   <g id="patch_5">
    <path d="M 263.464281 207.951206 
Q 339.759535 166.061134 415.074757 124.709149 
" clip-path="url(#p398920c932)" style="fill: none; stroke: #000000; stroke-linecap: round"/>
    <path d="M 410.60593 124.881139 
L 415.074757 124.709149 
L 412.531053 128.387405 
z
" clip-path="url(#p398920c932)" style="stroke: #000000; stroke-linecap: round"/>
   </g>
   <g id="patch_6">
    <path d="M 262.106849 206.978442 
Q 271.650246 153.459109 280.997373 101.040448 
" clip-path="url(#p398920c932)" style="fill: none; stroke: #000000; stroke-linecap: round"/>
    <path d="M 278.326241 104.627237 
L 280.997373 101.040448 
L 282.264124 105.329428 
z
" clip-path="url(#p398920c932)" style="stroke: #000000; stroke-linecap: round"/>
   </g>
   <g id="patch_7">
    <path d="M 41.878489 258.292172 
Q 150.878366 233.799801 258.787407 209.552541 
" clip-path="url(#p398920c932)" style="fill: none; stroke: #000000; stroke-linecap: round"/>
    <path d="M 254.44625 208.478135 
L 258.787407 209.552541 
L 255.323187 212.380823 
z
" clip-path="url(#p398920c932)" style="stroke: #000000; stroke-linecap: round"/>
   </g>
   <g id="patch_8">
    <path d="M 416.055159 124.170858 
Q 339.759906 166.06093 264.444683 207.412914 
" clip-path="url(#p398920c932)" style="fill: none; stroke: #000000; stroke-linecap: round"/>
    <path d="M 268.913511 207.240924 
L 264.444683 207.412914 
L 266.988388 203.734658 
z
" clip-path="url(#p398920c932)" style="stroke: #000000; stroke-linecap: round"/>
   </g>
   <g id="patch_9">
    <path d="M 417.815816 121.301149 
Q 419.282732 76.613957 420.712968 33.044197 
" clip-path="url(#p398920c932)" style="fill: none; stroke: #000000; stroke-linecap: round"/>
    <path d="M 418.58281 36.976426 
L 420.712968 33.044197 
L 422.580656 37.107661 
z
" clip-path="url(#p398920c932)" style="stroke: #000000; stroke-linecap: round"/>
   </g>
   <g id="patch_10">
    <path d="M 415.844105 122.886042 
Q 349.641705 110.636711 284.538678 98.590797 
" clip-path="url(#p398920c932)" style="fill: none; stroke: #000000; stroke-linecap: round"/>
    <path d="M 288.108036 101.285177 
L 284.538678 98.590797 
L 288.835797 97.351939 
z
" clip-path="url(#p398920c932)" style="stroke: #000000; stroke-linecap: round"/>
   </g>
   <g id="patch_11">
    <path d="M 420.749608 31.928027 
Q 419.282691 76.61522 417.852456 120.18498 
" clip-path="url(#p398920c932)" style="fill: none; stroke: #000000; stroke-linecap: round"/>
    <path d="M 419.982614 116.25275 
L 417.852456 120.18498 
L 415.984767 116.121516 
z
" clip-path="url(#p398920c932)" style="stroke: #000000; stroke-linecap: round"/>
   </g>
   <g id="patch_12">
    <path d="M 419.074775 30.839395 
Q 351.175027 64.011552 284.279839 96.692935 
" clip-path="url(#p398920c932)" style="fill: none; stroke: #000000; stroke-linecap: round"/>
    <path d="M 288.751785 96.734101 
L 284.279839 96.692935 
L 286.995939 93.140077 
z
" clip-path="url(#p398920c932)" style="stroke: #000000; stroke-linecap: round"/>
   </g>
   <g id="patch_13">
    <path d="M 281.193735 99.939252 
Q 271.650339 153.458585 262.303211 205.877246 
" clip-path="url(#p398920c932)" style="fill: none; stroke: #000000; stroke-linecap: round"/>
    <path d="M 264.974344 202.290458 
L 262.303211 205.877246 
L 261.03646 201.588267 
z
" clip-path="url(#p398920c932)" style="stroke: #000000; stroke-linecap: round"/>
   </g>
   <g id="patch_14">
    <path d="M 283.441439 98.387776 
Q 349.64384 110.637106 414.746867 122.683021 
" clip-path="url(#p398920c932)" style="fill: none; stroke: #000000; stroke-linecap: round"/>
    <path d="M 411.177509 119.988641 
L 414.746867 122.683021 
L 410.449748 123.921879 
z
" clip-path="url(#p398920c932)" style="stroke: #000000; stroke-linecap: round"/>
   </g>
   <g id="patch_15">
    <path d="M 283.271793 97.185412 
Q 351.171541 64.013255 418.066729 31.331872 
" clip-path="url(#p398920c932)" style="fill: none; stroke: #000000; stroke-linecap: round"/>
    <path d="M 413.594783 31.290706 
L 418.066729 31.331872 
L 415.350629 34.884729 
z
" clip-path="url(#p398920c932)" style="stroke: #000000; stroke-linecap: round"/>
   </g>
   <g id="PathCollection_1">
    <defs>
     <path id="m0963ebebab" d="M 0 1.936492 
C 0.513564 1.936492 1.006162 1.732451 1.369306 1.369306 
C 1.732451 1.006162 1.936492 0.513564 1.936492 0 
C 1.936492 -0.513564 1.732451 -1.006162 1.369306 -1.369306 
C 1.006162 -1.732451 0.513564 -1.936492 0 -1.936492 
C -0.513564 -1.936492 -1.006162 -1.732451 -1.369306 -1.369306 
C -1.732451 -1.006162 -1.936492 -0.513564 -1.936492 0 
C -1.936492 0.513564 -1.732451 1.006162 -1.369306 1.369306 
C -1.006162 1.732451 -0.513564 1.936492 0 1.936492 
z
" style="stroke: #1f78b4"/>
    </defs>
    <g clip-path="url(#p398920c932)">
     <use xlink:href="#m0963ebebab" x="342.675134" y="315.609917" style="fill: #1f78b4; stroke: #1f78b4"/>
     <use xlink:href="#m0963ebebab" x="261.76724" y="208.88297" style="fill: #1f78b4; stroke: #1f78b4"/>
     <use xlink:href="#m0963ebebab" x="39.986777" y="258.717242" style="fill: #1f78b4; stroke: #1f78b4"/>
     <use xlink:href="#m0963ebebab" x="417.7522" y="123.239094" style="fill: #1f78b4; stroke: #1f78b4"/>
     <use xlink:href="#m0963ebebab" x="420.813223" y="29.990083" style="fill: #1f78b4; stroke: #1f78b4"/>
     <use xlink:href="#m0963ebebab" x="281.533345" y="98.034724" style="fill: #1f78b4; stroke: #1f78b4"/>
    </g>
   </g>
   <g id="text_1">
    <g clip-path="url(#p398920c932)">
     <!-- 0 -->
     <g transform="translate(339.493884 318.369292) scale(0.1 -0.1)">
      <defs>
       <path id="DejaVuSans-30" d="M 2034 4250 
Q 1547 4250 1301 3770 
Q 1056 3291 1056 2328 
Q 1056 1369 1301 889 
Q 1547 409 2034 409 
Q 2525 409 2770 889 
Q 3016 1369 3016 2328 
Q 3016 3291 2770 3770 
Q 2525 4250 2034 4250 
z
M 2034 4750 
Q 2819 4750 3233 4129 
Q 3647 3509 3647 2328 
Q 3647 1150 3233 529 
Q 2819 -91 2034 -91 
Q 1250 -91 836 529 
Q 422 1150 422 2328 
Q 422 3509 836 4129 
Q 1250 4750 2034 4750 
z
" transform="scale(0.015625)"/>
      </defs>
      <use xlink:href="#DejaVuSans-30"/>
     </g>
    </g>
   </g>
   <g id="text_2">
    <g clip-path="url(#p398920c932)">
     <!-- 1 -->
     <g transform="translate(258.58599 211.642345) scale(0.1 -0.1)">
      <defs>
       <path id="DejaVuSans-31" d="M 794 531 
L 1825 531 
L 1825 4091 
L 703 3866 
L 703 4441 
L 1819 4666 
L 2450 4666 
L 2450 531 
L 3481 531 
L 3481 0 
L 794 0 
L 794 531 
z
" transform="scale(0.015625)"/>
      </defs>
      <use xlink:href="#DejaVuSans-31"/>
     </g>
    </g>
   </g>
   <g id="text_3">
    <g clip-path="url(#p398920c932)">
     <!-- 2 -->
     <g transform="translate(36.805527 261.476617) scale(0.1 -0.1)">
      <defs>
       <path id="DejaVuSans-32" d="M 1228 531 
L 3431 531 
L 3431 0 
L 469 0 
L 469 531 
Q 828 903 1448 1529 
Q 2069 2156 2228 2338 
Q 2531 2678 2651 2914 
Q 2772 3150 2772 3378 
Q 2772 3750 2511 3984 
Q 2250 4219 1831 4219 
Q 1534 4219 1204 4116 
Q 875 4013 500 3803 
L 500 4441 
Q 881 4594 1212 4672 
Q 1544 4750 1819 4750 
Q 2544 4750 2975 4387 
Q 3406 4025 3406 3419 
Q 3406 3131 3298 2873 
Q 3191 2616 2906 2266 
Q 2828 2175 2409 1742 
Q 1991 1309 1228 531 
z
" transform="scale(0.015625)"/>
      </defs>
      <use xlink:href="#DejaVuSans-32"/>
     </g>
    </g>
   </g>
   <g id="text_4">
    <g clip-path="url(#p398920c932)">
     <!-- 3 -->
     <g transform="translate(414.57095 125.998469) scale(0.1 -0.1)">
      <defs>
       <path id="DejaVuSans-33" d="M 2597 2516 
Q 3050 2419 3304 2112 
Q 3559 1806 3559 1356 
Q 3559 666 3084 287 
Q 2609 -91 1734 -91 
Q 1441 -91 1130 -33 
Q 819 25 488 141 
L 488 750 
Q 750 597 1062 519 
Q 1375 441 1716 441 
Q 2309 441 2620 675 
Q 2931 909 2931 1356 
Q 2931 1769 2642 2001 
Q 2353 2234 1838 2234 
L 1294 2234 
L 1294 2753 
L 1863 2753 
Q 2328 2753 2575 2939 
Q 2822 3125 2822 3475 
Q 2822 3834 2567 4026 
Q 2313 4219 1838 4219 
Q 1578 4219 1281 4162 
Q 984 4106 628 3988 
L 628 4550 
Q 988 4650 1302 4700 
Q 1616 4750 1894 4750 
Q 2613 4750 3031 4423 
Q 3450 4097 3450 3541 
Q 3450 3153 3228 2886 
Q 3006 2619 2597 2516 
z
" transform="scale(0.015625)"/>
      </defs>
      <use xlink:href="#DejaVuSans-33"/>
     </g>
    </g>
   </g>
   <g id="text_5">
    <g clip-path="url(#p398920c932)">
     <!-- 4 -->
     <g transform="translate(417.631973 32.749458) scale(0.1 -0.1)">
      <defs>
       <path id="DejaVuSans-34" d="M 2419 4116 
L 825 1625 
L 2419 1625 
L 2419 4116 
z
M 2253 4666 
L 3047 4666 
L 3047 1625 
L 3713 1625 
L 3713 1100 
L 3047 1100 
L 3047 0 
L 2419 0 
L 2419 1100 
L 313 1100 
L 313 1709 
L 2253 4666 
z
" transform="scale(0.015625)"/>
      </defs>
      <use xlink:href="#DejaVuSans-34"/>
     </g>
    </g>
   </g>
   <g id="text_6">
    <g clip-path="url(#p398920c932)">
     <!-- 5 -->
     <g transform="translate(278.352095 100.794099) scale(0.1 -0.1)">
      <defs>
       <path id="DejaVuSans-35" d="M 691 4666 
L 3169 4666 
L 3169 4134 
L 1269 4134 
L 1269 2991 
Q 1406 3038 1543 3061 
Q 1681 3084 1819 3084 
Q 2600 3084 3056 2656 
Q 3513 2228 3513 1497 
Q 3513 744 3044 326 
Q 2575 -91 1722 -91 
Q 1428 -91 1123 -41 
Q 819 9 494 109 
L 494 744 
Q 775 591 1075 516 
Q 1375 441 1709 441 
Q 2250 441 2565 725 
Q 2881 1009 2881 1497 
Q 2881 1984 2565 2268 
Q 2250 2553 1709 2553 
Q 1456 2553 1204 2497 
Q 953 2441 691 2322 
L 691 4666 
z
" transform="scale(0.015625)"/>
      </defs>
      <use xlink:href="#DejaVuSans-35"/>
     </g>
    </g>
   </g>
  </g>
 </g>
 <defs>
  <clipPath id="p398920c932">
   <rect x="0" y="0" width="460.8" height="345.6"/>
  </clipPath>
 </defs>
</svg>
