<?xml version="1.0" encoding="utf-8" standalone="no"?>
<!DOCTYPE svg PUBLIC "-//W3C//DTD SVG 1.1//EN"
  "http://www.w3.org/Graphics/SVG/1.1/DTD/svg11.dtd">
<svg xmlns:xlink="http://www.w3.org/1999/xlink" width="460.8pt" height="345.6pt" viewBox="0 0 460.8 345.6" xmlns="http://www.w3.org/2000/svg" version="1.1">
 <metadata>
  <rdf:RDF xmlns:dc="http://purl.org/dc/elements/1.1/" xmlns:cc="http://creativecommons.org/ns#" xmlns:rdf="http://www.w3.org/1999/02/22-rdf-syntax-ns#">
   <cc:Work>
    <dc:type rdf:resource="http://purl.org/dc/dcmitype/StillImage"/>
    <dc:date>2024-02-28T11:18:15.993327</dc:date>
    <dc:format>image/svg+xml</dc:format>
    <dc:creator>
     <cc:Agent>
      <dc:title>Matplotlib v3.8.0, https://matplotlib.org/</dc:title>
     </cc:Agent>
    </dc:creator>
   </cc:Work>
  </rdf:RDF>
 </metadata>
 <defs>
  <style type="text/css">*{stroke-linejoin: round; stroke-linecap: butt}</style>
 </defs>
 <g id="figure_1">
  <g id="patch_1">
   <path d="M 0 345.6 
L 460.8 345.6 
L 460.8 0 
L 0 0 
z
" style="fill: #ffffff"/>
  </g>
  <g id="axes_1">
   <g id="patch_2">
    <path d="M 55.814059 270.272694 
Q 133.975188 223.392888 211.17752 177.088153 
" clip-path="url(#p8cb8c1fd7c)" style="fill: none; stroke: #000000; stroke-linecap: round"/>
    <path d="M 206.718503 177.430443 
L 211.17752 177.088153 
L 208.775941 180.860741 
z
" clip-path="url(#p8cb8c1fd7c)" style="stroke: #000000; stroke-linecap: round"/>
   </g>
   <g id="patch_3">
    <path d="M 418.876871 167.080035 
Q 317.305565 171.258616 216.851348 175.391241 
" clip-path="url(#p8cb8c1fd7c)" style="fill: none; stroke: #000000; stroke-linecap: round"/>
    <path d="M 220.930177 177.225132 
L 216.851348 175.391241 
L 220.765759 173.228513 
z
" clip-path="url(#p8cb8c1fd7c)" style="stroke: #000000; stroke-linecap: round"/>
   </g>
   <g id="patch_4">
    <path d="M 212.138365 176.511854 
Q 133.977235 223.39166 56.774904 269.696395 
" clip-path="url(#p8cb8c1fd7c)" style="fill: none; stroke: #000000; stroke-linecap: round"/>
    <path d="M 61.233921 269.354105 
L 56.774904 269.696395 
L 59.176483 265.923807 
z
" clip-path="url(#p8cb8c1fd7c)" style="stroke: #000000; stroke-linecap: round"/>
   </g>
   <g id="patch_5">
    <path d="M 215.733596 175.437225 
Q 317.304901 171.258643 417.759118 167.126018 
" clip-path="url(#p8cb8c1fd7c)" style="fill: none; stroke: #000000; stroke-linecap: round"/>
    <path d="M 413.680289 165.292127 
L 417.759118 167.126018 
L 413.844708 169.288747 
z
" clip-path="url(#p8cb8c1fd7c)" style="stroke: #000000; stroke-linecap: round"/>
   </g>
   <g id="patch_6">
    <path d="M 214.715778 177.22273 
Q 251.515779 245.56534 287.785719 312.923555 
" clip-path="url(#p8cb8c1fd7c)" style="fill: none; stroke: #000000; stroke-linecap: round"/>
    <path d="M 287.650255 308.453471 
L 287.785719 312.923555 
L 284.128374 310.349876 
z
" clip-path="url(#p8cb8c1fd7c)" style="stroke: #000000; stroke-linecap: round"/>
   </g>
   <g id="patch_7">
    <path d="M 214.461731 173.700465 
Q 240.4151 102.755305 265.984361 32.860127 
" clip-path="url(#p8cb8c1fd7c)" style="fill: none; stroke: #000000; stroke-linecap: round"/>
    <path d="M 262.731872 35.929543 
L 265.984361 32.860127 
L 266.488401 37.303768 
z
" clip-path="url(#p8cb8c1fd7c)" style="stroke: #000000; stroke-linecap: round"/>
   </g>
   <g id="patch_8">
    <path d="M 212.04418 174.698587 
Q 126.893671 134.951885 42.75626 95.678079 
" clip-path="url(#p8cb8c1fd7c)" style="fill: none; stroke: #000000; stroke-linecap: round"/>
    <path d="M 45.534891 99.18225 
L 42.75626 95.678079 
L 47.226775 95.557677 
z
" clip-path="url(#p8cb8c1fd7c)" style="stroke: #000000; stroke-linecap: round"/>
   </g>
   <g id="patch_9">
    <path d="M 288.313692 313.904073 
Q 251.513691 245.561462 215.243751 178.203247 
" clip-path="url(#p8cb8c1fd7c)" style="fill: none; stroke: #000000; stroke-linecap: round"/>
    <path d="M 215.379215 182.673331 
L 215.243751 178.203247 
L 218.901097 180.776926 
z
" clip-path="url(#p8cb8c1fd7c)" style="stroke: #000000; stroke-linecap: round"/>
   </g>
   <g id="patch_10">
    <path d="M 266.3698 31.806503 
Q 240.416432 102.751663 214.847171 172.646841 
" clip-path="url(#p8cb8c1fd7c)" style="fill: none; stroke: #000000; stroke-linecap: round"/>
    <path d="M 218.09966 169.577424 
L 214.847171 172.646841 
L 214.343131 168.2032 
z
" clip-path="url(#p8cb8c1fd7c)" style="stroke: #000000; stroke-linecap: round"/>
   </g>
   <g id="patch_11">
    <path d="M 41.73984 95.203632 
Q 126.890349 134.950335 211.02776 174.224141 
" clip-path="url(#p8cb8c1fd7c)" style="fill: none; stroke: #000000; stroke-linecap: round"/>
    <path d="M 208.249129 170.71997 
L 211.02776 174.224141 
L 206.557245 174.344543 
z
" clip-path="url(#p8cb8c1fd7c)" style="stroke: #000000; stroke-linecap: round"/>
   </g>
   <g id="PathCollection_1">
    <defs>
     <path id="m053117684d" d="M 0 1.936492 
C 0.513564 1.936492 1.006162 1.732451 1.369306 1.369306 
C 1.732451 1.006162 1.936492 0.513564 1.936492 0 
C 1.936492 -0.513564 1.732451 -1.006162 1.369306 -1.369306 
C 1.006162 -1.732451 0.513564 -1.936492 0 -1.936492 
C -0.513564 -1.936492 -1.006162 -1.732451 -1.369306 -1.369306 
C -1.732451 -1.006162 -1.936492 -0.513564 -1.936492 0 
C -1.936492 0.513564 -1.732451 1.006162 -1.369306 1.369306 
C -1.006162 1.732451 -0.513564 1.936492 0 1.936492 
z
" style="stroke: #1f78b4"/>
    </defs>
    <g clip-path="url(#p8cb8c1fd7c)">
     <use xlink:href="#m053117684d" x="54.15518" y="271.267663" style="fill: #1f78b4; stroke: #1f78b4"/>
     <use xlink:href="#m053117684d" x="420.813223" y="167.000374" style="fill: #1f78b4; stroke: #1f78b4"/>
     <use xlink:href="#m053117684d" x="213.797243" y="175.516885" style="fill: #1f78b4; stroke: #1f78b4"/>
     <use xlink:href="#m053117684d" x="289.232227" y="315.609917" style="fill: #1f78b4; stroke: #1f78b4"/>
     <use xlink:href="#m053117684d" x="267.034289" y="29.990083" style="fill: #1f78b4; stroke: #1f78b4"/>
     <use xlink:href="#m053117684d" x="39.986777" y="94.385335" style="fill: #1f78b4; stroke: #1f78b4"/>
    </g>
   </g>
   <g id="text_1">
    <g clip-path="url(#p8cb8c1fd7c)">
     <!-- 0 -->
     <g transform="translate(50.97393 274.027038) scale(0.1 -0.1)">
      <defs>
       <path id="DejaVuSans-30" d="M 2034 4250 
Q 1547 4250 1301 3770 
Q 1056 3291 1056 2328 
Q 1056 1369 1301 889 
Q 1547 409 2034 409 
Q 2525 409 2770 889 
Q 3016 1369 3016 2328 
Q 3016 3291 2770 3770 
Q 2525 4250 2034 4250 
z
M 2034 4750 
Q 2819 4750 3233 4129 
Q 3647 3509 3647 2328 
Q 3647 1150 3233 529 
Q 2819 -91 2034 -91 
Q 1250 -91 836 529 
Q 422 1150 422 2328 
Q 422 3509 836 4129 
Q 1250 4750 2034 4750 
z
" transform="scale(0.015625)"/>
      </defs>
      <use xlink:href="#DejaVuSans-30"/>
     </g>
    </g>
   </g>
   <g id="text_2">
    <g clip-path="url(#p8cb8c1fd7c)">
     <!-- 1 -->
     <g transform="translate(417.631973 169.759749) scale(0.1 -0.1)">
      <defs>
       <path id="DejaVuSans-31" d="M 794 531 
L 1825 531 
L 1825 4091 
L 703 3866 
L 703 4441 
L 1819 4666 
L 2450 4666 
L 2450 531 
L 3481 531 
L 3481 0 
L 794 0 
L 794 531 
z
" transform="scale(0.015625)"/>
      </defs>
      <use xlink:href="#DejaVuSans-31"/>
     </g>
    </g>
   </g>
   <g id="text_3">
    <g clip-path="url(#p8cb8c1fd7c)">
     <!-- 2 -->
     <g transform="translate(210.615993 178.27626) scale(0.1 -0.1)">
      <defs>
       <path id="DejaVuSans-32" d="M 1228 531 
L 3431 531 
L 3431 0 
L 469 0 
L 469 531 
Q 828 903 1448 1529 
Q 2069 2156 2228 2338 
Q 2531 2678 2651 2914 
Q 2772 3150 2772 3378 
Q 2772 3750 2511 3984 
Q 2250 4219 1831 4219 
Q 1534 4219 1204 4116 
Q 875 4013 500 3803 
L 500 4441 
Q 881 4594 1212 4672 
Q 1544 4750 1819 4750 
Q 2544 4750 2975 4387 
Q 3406 4025 3406 3419 
Q 3406 3131 3298 2873 
Q 3191 2616 2906 2266 
Q 2828 2175 2409 1742 
Q 1991 1309 1228 531 
z
" transform="scale(0.015625)"/>
      </defs>
      <use xlink:href="#DejaVuSans-32"/>
     </g>
    </g>
   </g>
   <g id="text_4">
    <g clip-path="url(#p8cb8c1fd7c)">
     <!-- 3 -->
     <g transform="translate(286.050977 318.369292) scale(0.1 -0.1)">
      <defs>
       <path id="DejaVuSans-33" d="M 2597 2516 
Q 3050 2419 3304 2112 
Q 3559 1806 3559 1356 
Q 3559 666 3084 287 
Q 2609 -91 1734 -91 
Q 1441 -91 1130 -33 
Q 819 25 488 141 
L 488 750 
Q 750 597 1062 519 
Q 1375 441 1716 441 
Q 2309 441 2620 675 
Q 2931 909 2931 1356 
Q 2931 1769 2642 2001 
Q 2353 2234 1838 2234 
L 1294 2234 
L 1294 2753 
L 1863 2753 
Q 2328 2753 2575 2939 
Q 2822 3125 2822 3475 
Q 2822 3834 2567 4026 
Q 2313 4219 1838 4219 
Q 1578 4219 1281 4162 
Q 984 4106 628 3988 
L 628 4550 
Q 988 4650 1302 4700 
Q 1616 4750 1894 4750 
Q 2613 4750 3031 4423 
Q 3450 4097 3450 3541 
Q 3450 3153 3228 2886 
Q 3006 2619 2597 2516 
z
" transform="scale(0.015625)"/>
      </defs>
      <use xlink:href="#DejaVuSans-33"/>
     </g>
    </g>
   </g>
   <g id="text_5">
    <g clip-path="url(#p8cb8c1fd7c)">
     <!-- 4 -->
     <g transform="translate(263.853039 32.749458) scale(0.1 -0.1)">
      <defs>
       <path id="DejaVuSans-34" d="M 2419 4116 
L 825 1625 
L 2419 1625 
L 2419 4116 
z
M 2253 4666 
L 3047 4666 
L 3047 1625 
L 3713 1625 
L 3713 1100 
L 3047 1100 
L 3047 0 
L 2419 0 
L 2419 1100 
L 313 1100 
L 313 1709 
L 2253 4666 
z
" transform="scale(0.015625)"/>
      </defs>
      <use xlink:href="#DejaVuSans-34"/>
     </g>
    </g>
   </g>
   <g id="text_6">
    <g clip-path="url(#p8cb8c1fd7c)">
     <!-- 5 -->
     <g transform="translate(36.805527 97.14471) scale(0.1 -0.1)">
      <defs>
       <path id="DejaVuSans-35" d="M 691 4666 
L 3169 4666 
L 3169 4134 
L 1269 4134 
L 1269 2991 
Q 1406 3038 1543 3061 
Q 1681 3084 1819 3084 
Q 2600 3084 3056 2656 
Q 3513 2228 3513 1497 
Q 3513 744 3044 326 
Q 2575 -91 1722 -91 
Q 1428 -91 1123 -41 
Q 819 9 494 109 
L 494 744 
Q 775 591 1075 516 
Q 1375 441 1709 441 
Q 2250 441 2565 725 
Q 2881 1009 2881 1497 
Q 2881 1984 2565 2268 
Q 2250 2553 1709 2553 
Q 1456 2553 1204 2497 
Q 953 2441 691 2322 
L 691 4666 
z
" transform="scale(0.015625)"/>
      </defs>
      <use xlink:href="#DejaVuSans-35"/>
     </g>
    </g>
   </g>
  </g>
 </g>
 <defs>
  <clipPath id="p8cb8c1fd7c">
   <rect x="0" y="0" width="460.8" height="345.6"/>
  </clipPath>
 </defs>
</svg>
