<?xml version="1.0" encoding="utf-8" standalone="no"?>
<!DOCTYPE svg PUBLIC "-//W3C//DTD SVG 1.1//EN"
  "http://www.w3.org/Graphics/SVG/1.1/DTD/svg11.dtd">
<svg xmlns:xlink="http://www.w3.org/1999/xlink" width="460.8pt" height="345.6pt" viewBox="0 0 460.8 345.6" xmlns="http://www.w3.org/2000/svg" version="1.1">
 <metadata>
  <rdf:RDF xmlns:dc="http://purl.org/dc/elements/1.1/" xmlns:cc="http://creativecommons.org/ns#" xmlns:rdf="http://www.w3.org/1999/02/22-rdf-syntax-ns#">
   <cc:Work>
    <dc:type rdf:resource="http://purl.org/dc/dcmitype/StillImage"/>
    <dc:date>2024-02-28T11:18:18.022846</dc:date>
    <dc:format>image/svg+xml</dc:format>
    <dc:creator>
     <cc:Agent>
      <dc:title>Matplotlib v3.8.0, https://matplotlib.org/</dc:title>
     </cc:Agent>
    </dc:creator>
   </cc:Work>
  </rdf:RDF>
 </metadata>
 <defs>
  <style type="text/css">*{stroke-linejoin: round; stroke-linecap: butt}</style>
 </defs>
 <g id="figure_1">
  <g id="patch_1">
   <path d="M 0 345.6 
L 460.8 345.6 
L 460.8 0 
L 0 0 
z
" style="fill: #ffffff"/>
  </g>
  <g id="axes_1">
   <g id="patch_2">
    <path d="M 289.050714 38.270545 
Q 326.526366 34.234174 362.890413 30.317529 
" clip-path="url(#p7db70dece6)" style="fill: none; stroke: #000000; stroke-linecap: round"/>
    <path d="M 358.69924 28.757378 
L 362.890413 30.317529 
L 359.127589 32.734377 
z
" clip-path="url(#p7db70dece6)" style="stroke: #000000; stroke-linecap: round"/>
   </g>
   <g id="patch_3">
    <path d="M 285.273127 39.068949 
Q 249.541236 50.484944 214.874346 61.560682 
" clip-path="url(#p7db70dece6)" style="fill: none; stroke: #000000; stroke-linecap: round"/>
    <path d="M 219.293276 62.24847 
L 214.874346 61.560682 
L 218.075935 58.438211 
z
" clip-path="url(#p7db70dece6)" style="stroke: #000000; stroke-linecap: round"/>
   </g>
   <g id="patch_4">
    <path d="M 364.001733 30.197832 
Q 326.526081 34.234204 290.162034 38.150849 
" clip-path="url(#p7db70dece6)" style="fill: none; stroke: #000000; stroke-linecap: round"/>
    <path d="M 294.353207 39.711 
L 290.162034 38.150849 
L 293.924858 35.734001 
z
" clip-path="url(#p7db70dece6)" style="stroke: #000000; stroke-linecap: round"/>
   </g>
   <g id="patch_5">
    <path d="M 367.762908 30.617116 
Q 393.373349 39.381182 417.92598 47.783257 
" clip-path="url(#p7db70dece6)" style="fill: none; stroke: #000000; stroke-linecap: round"/>
    <path d="M 414.788989 44.595894 
L 417.92598 47.783257 
L 413.493894 48.380432 
z
" clip-path="url(#p7db70dece6)" style="stroke: #000000; stroke-linecap: round"/>
   </g>
   <g id="patch_6">
    <path d="M 149.314686 99.739105 
Q 131.661349 119.202977 114.759125 137.838702 
" clip-path="url(#p7db70dece6)" style="fill: none; stroke: #000000; stroke-linecap: round"/>
    <path d="M 118.927826 136.219462 
L 114.759125 137.838702 
L 115.964954 133.532198 
z
" clip-path="url(#p7db70dece6)" style="stroke: #000000; stroke-linecap: round"/>
   </g>
   <g id="patch_7">
    <path d="M 152.291081 97.325694 
Q 181.290374 80.396472 209.324121 64.030916 
" clip-path="url(#p7db70dece6)" style="fill: none; stroke: #000000; stroke-linecap: round"/>
    <path d="M 204.86136 64.320331 
L 209.324121 64.030916 
L 206.877996 67.774774 
z
" clip-path="url(#p7db70dece6)" style="stroke: #000000; stroke-linecap: round"/>
   </g>
   <g id="patch_8">
    <path d="M 149.694795 100.002282 
Q 145.068117 108.52473 140.974862 116.0646 
" clip-path="url(#p7db70dece6)" style="fill: none; stroke: #000000; stroke-linecap: round"/>
    <path d="M 144.640984 113.503439 
L 140.974862 116.0646 
L 141.125606 111.595006 
z
" clip-path="url(#p7db70dece6)" style="stroke: #000000; stroke-linecap: round"/>
   </g>
   <g id="patch_9">
    <path d="M 213.810074 61.900707 
Q 249.541964 50.484711 284.208855 39.408973 
" clip-path="url(#p7db70dece6)" style="fill: none; stroke: #000000; stroke-linecap: round"/>
    <path d="M 279.789924 38.721185 
L 284.208855 39.408973 
L 281.007265 42.531445 
z
" clip-path="url(#p7db70dece6)" style="stroke: #000000; stroke-linecap: round"/>
   </g>
   <g id="patch_10">
    <path d="M 210.28771 63.468391 
Q 181.288417 80.397614 153.25467 96.76317 
" clip-path="url(#p7db70dece6)" style="fill: none; stroke: #000000; stroke-linecap: round"/>
    <path d="M 157.717431 96.473755 
L 153.25467 96.76317 
L 155.700794 93.019312 
z
" clip-path="url(#p7db70dece6)" style="stroke: #000000; stroke-linecap: round"/>
   </g>
   <g id="patch_11">
    <path d="M 74.362581 148.625346 
Q 74.851938 163.138893 75.303619 176.535041 
" clip-path="url(#p7db70dece6)" style="fill: none; stroke: #000000; stroke-linecap: round"/>
    <path d="M 77.167691 172.469916 
L 75.303619 176.535041 
L 73.169963 172.604708 
z
" clip-path="url(#p7db70dece6)" style="stroke: #000000; stroke-linecap: round"/>
   </g>
   <g id="patch_12">
    <path d="M 76.076859 145.931266 
Q 106.908998 132.720074 136.713471 119.949225 
" clip-path="url(#p7db70dece6)" style="fill: none; stroke: #000000; stroke-linecap: round"/>
    <path d="M 132.249071 119.686296 
L 136.713471 119.949225 
L 133.824488 123.362988 
z
" clip-path="url(#p7db70dece6)" style="stroke: #000000; stroke-linecap: round"/>
   </g>
   <g id="patch_13">
    <path d="M 321.644576 96.080236 
Q 277.746794 101.855616 234.957494 107.485158 
" clip-path="url(#p7db70dece6)" style="fill: none; stroke: #000000; stroke-linecap: round"/>
    <path d="M 239.184199 108.94631 
L 234.957494 107.485158 
L 238.662438 104.980485 
z
" clip-path="url(#p7db70dece6)" style="stroke: #000000; stroke-linecap: round"/>
   </g>
   <g id="patch_14">
    <path d="M 325.440932 95.327208 
Q 359.543688 86.229044 392.566193 77.419077 
" clip-path="url(#p7db70dece6)" style="fill: none; stroke: #000000; stroke-linecap: round"/>
    <path d="M 388.185827 76.517749 
L 392.566193 77.419077 
L 389.216911 80.382573 
z
" clip-path="url(#p7db70dece6)" style="stroke: #000000; stroke-linecap: round"/>
   </g>
   <g id="patch_15">
    <path d="M 393.640344 77.132508 
Q 359.537588 86.230672 326.515083 95.040639 
" clip-path="url(#p7db70dece6)" style="fill: none; stroke: #000000; stroke-linecap: round"/>
    <path d="M 330.895449 95.941967 
L 326.515083 95.040639 
L 329.864365 92.077143 
z
" clip-path="url(#p7db70dece6)" style="stroke: #000000; stroke-linecap: round"/>
   </g>
   <g id="patch_16">
    <path d="M 396.815589 75.200423 
Q 408.162615 62.703689 418.758065 51.034684 
" clip-path="url(#p7db70dece6)" style="fill: none; stroke: #000000; stroke-linecap: round"/>
    <path d="M 414.588459 52.651592 
L 418.758065 51.034684 
L 417.549828 55.340513 
z
" clip-path="url(#p7db70dece6)" style="stroke: #000000; stroke-linecap: round"/>
   </g>
   <g id="patch_17">
    <path d="M 61.388872 229.93976 
Q 60.632827 244.759196 59.933748 258.46205 
" clip-path="url(#p7db70dece6)" style="fill: none; stroke: #000000; stroke-linecap: round"/>
    <path d="M 62.134953 254.569147 
L 59.933748 258.46205 
L 58.140149 254.365344 
z
" clip-path="url(#p7db70dece6)" style="stroke: #000000; stroke-linecap: round"/>
   </g>
   <g id="patch_18">
    <path d="M 61.388872 229.93976 
Q 60.632827 244.759196 59.933748 258.46205 
" clip-path="url(#p7db70dece6)" style="fill: none; stroke: #000000; stroke-linecap: round"/>
    <path d="M 62.134953 254.569147 
L 59.933748 258.46205 
L 58.140149 254.365344 
z
" clip-path="url(#p7db70dece6)" style="stroke: #000000; stroke-linecap: round"/>
   </g>
   <g id="patch_19">
    <path d="M 62.021935 226.146606 
Q 68.446759 203.799697 74.562658 182.527295 
" clip-path="url(#p7db70dece6)" style="fill: none; stroke: #000000; stroke-linecap: round"/>
    <path d="M 71.535277 185.818946 
L 74.562658 182.527295 
L 75.37955 186.92419 
z
" clip-path="url(#p7db70dece6)" style="stroke: #000000; stroke-linecap: round"/>
   </g>
   <g id="patch_20">
    <path d="M 114.00809 138.666764 
Q 131.661427 119.202892 148.563651 100.567167 
" clip-path="url(#p7db70dece6)" style="fill: none; stroke: #000000; stroke-linecap: round"/>
    <path d="M 144.39495 102.186407 
L 148.563651 100.567167 
L 147.357822 104.873671 
z
" clip-path="url(#p7db70dece6)" style="stroke: #000000; stroke-linecap: round"/>
   </g>
   <g id="patch_21">
    <path d="M 111.373554 141.513102 
Q 94.054177 159.849308 77.502512 177.372729 
" clip-path="url(#p7db70dece6)" style="fill: none; stroke: #000000; stroke-linecap: round"/>
    <path d="M 81.703115 175.838148 
L 77.502512 177.372729 
L 78.795208 173.091499 
z
" clip-path="url(#p7db70dece6)" style="stroke: #000000; stroke-linecap: round"/>
   </g>
   <g id="patch_22">
    <path d="M 88.875096 290.408659 
Q 75.013086 276.640737 61.944333 263.660688 
" clip-path="url(#p7db70dece6)" style="fill: none; stroke: #000000; stroke-linecap: round"/>
    <path d="M 63.372986 267.898488 
L 61.944333 263.660688 
L 66.191765 265.060446 
z
" clip-path="url(#p7db70dece6)" style="stroke: #000000; stroke-linecap: round"/>
   </g>
   <g id="patch_23">
    <path d="M 89.195071 293.40025 
Q 82.522489 303.693097 76.458083 313.047796 
" clip-path="url(#p7db70dece6)" style="fill: none; stroke: #000000; stroke-linecap: round"/>
    <path d="M 80.312171 310.779316 
L 76.458083 313.047796 
L 76.955752 308.603437 
z
" clip-path="url(#p7db70dece6)" style="stroke: #000000; stroke-linecap: round"/>
   </g>
   <g id="patch_24">
    <path d="M 59.876976 259.574839 
Q 60.633021 244.755403 61.332101 231.052549 
" clip-path="url(#p7db70dece6)" style="fill: none; stroke: #000000; stroke-linecap: round"/>
    <path d="M 59.130895 234.945452 
L 61.332101 231.052549 
L 63.1257 235.149255 
z
" clip-path="url(#p7db70dece6)" style="stroke: #000000; stroke-linecap: round"/>
   </g>
   <g id="patch_25">
    <path d="M 59.876976 259.574839 
Q 60.633021 244.755403 61.332101 231.052549 
" clip-path="url(#p7db70dece6)" style="fill: none; stroke: #000000; stroke-linecap: round"/>
    <path d="M 59.130895 234.945452 
L 61.332101 231.052549 
L 63.1257 235.149255 
z
" clip-path="url(#p7db70dece6)" style="stroke: #000000; stroke-linecap: round"/>
   </g>
   <g id="patch_26">
    <path d="M 61.152687 262.874415 
Q 75.014697 276.642337 88.08345 289.622386 
" clip-path="url(#p7db70dece6)" style="fill: none; stroke: #000000; stroke-linecap: round"/>
    <path d="M 86.654797 285.384585 
L 88.08345 289.622386 
L 83.836018 288.222628 
z
" clip-path="url(#p7db70dece6)" style="stroke: #000000; stroke-linecap: round"/>
   </g>
   <g id="patch_27">
    <path d="M 58.775662 263.169901 
Q 49.882364 277.899154 41.56695 291.671303 
" clip-path="url(#p7db70dece6)" style="fill: none; stroke: #000000; stroke-linecap: round"/>
    <path d="M 45.346575 289.280814 
L 41.56695 291.671303 
L 41.922334 287.21331 
z
" clip-path="url(#p7db70dece6)" style="stroke: #000000; stroke-linecap: round"/>
   </g>
   <g id="patch_28">
    <path d="M 75.341549 177.659985 
Q 74.852192 163.146438 74.400511 149.75029 
" clip-path="url(#p7db70dece6)" style="fill: none; stroke: #000000; stroke-linecap: round"/>
    <path d="M 72.53644 153.815415 
L 74.400511 149.75029 
L 76.534168 153.680622 
z
" clip-path="url(#p7db70dece6)" style="stroke: #000000; stroke-linecap: round"/>
   </g>
   <g id="patch_29">
    <path d="M 74.872308 181.450265 
Q 68.447484 203.797174 62.331585 225.069576 
" clip-path="url(#p7db70dece6)" style="fill: none; stroke: #000000; stroke-linecap: round"/>
    <path d="M 65.358965 221.777924 
L 62.331585 225.069576 
L 61.514692 220.67268 
z
" clip-path="url(#p7db70dece6)" style="stroke: #000000; stroke-linecap: round"/>
   </g>
   <g id="patch_30">
    <path d="M 76.738447 178.181653 
Q 94.057824 159.845447 110.609489 142.322025 
" clip-path="url(#p7db70dece6)" style="fill: none; stroke: #000000; stroke-linecap: round"/>
    <path d="M 106.408886 143.856607 
L 110.609489 142.322025 
L 109.316793 146.603256 
z
" clip-path="url(#p7db70dece6)" style="stroke: #000000; stroke-linecap: round"/>
   </g>
   <g id="patch_31">
    <path d="M 233.850961 107.630738 
Q 277.748743 101.855359 320.538043 96.225816 
" clip-path="url(#p7db70dece6)" style="fill: none; stroke: #000000; stroke-linecap: round"/>
    <path d="M 316.311337 94.764665 
L 320.538043 96.225816 
L 316.833098 98.73049 
z
" clip-path="url(#p7db70dece6)" style="stroke: #000000; stroke-linecap: round"/>
   </g>
   <g id="patch_32">
    <path d="M 230.009224 108.109277 
Q 185.726247 113.315159 142.553657 118.390505 
" clip-path="url(#p7db70dece6)" style="fill: none; stroke: #000000; stroke-linecap: round"/>
    <path d="M 146.75981 119.909804 
L 142.553657 118.390505 
L 146.292789 115.937162 
z
" clip-path="url(#p7db70dece6)" style="stroke: #000000; stroke-linecap: round"/>
   </g>
   <g id="patch_33">
    <path d="M 140.441121 117.047764 
Q 145.067799 108.525316 149.161054 100.985446 
" clip-path="url(#p7db70dece6)" style="fill: none; stroke: #000000; stroke-linecap: round"/>
    <path d="M 145.494932 103.546607 
L 149.161054 100.985446 
L 149.01031 105.45504 
z
" clip-path="url(#p7db70dece6)" style="stroke: #000000; stroke-linecap: round"/>
   </g>
   <g id="patch_34">
    <path d="M 137.739057 119.509774 
Q 106.906917 132.720966 77.102444 145.491815 
" clip-path="url(#p7db70dece6)" style="fill: none; stroke: #000000; stroke-linecap: round"/>
    <path d="M 81.566844 145.754744 
L 77.102444 145.491815 
L 79.991427 142.078052 
z
" clip-path="url(#p7db70dece6)" style="stroke: #000000; stroke-linecap: round"/>
   </g>
   <g id="patch_35">
    <path d="M 141.438998 118.521543 
Q 185.721975 113.315661 228.894565 108.240316 
" clip-path="url(#p7db70dece6)" style="fill: none; stroke: #000000; stroke-linecap: round"/>
    <path d="M 224.688411 106.721016 
L 228.894565 108.240316 
L 225.155433 110.693659 
z
" clip-path="url(#p7db70dece6)" style="stroke: #000000; stroke-linecap: round"/>
   </g>
   <g id="patch_36">
    <path d="M 418.980899 48.144258 
Q 393.370458 39.380192 368.817827 30.978117 
" clip-path="url(#p7db70dece6)" style="fill: none; stroke: #000000; stroke-linecap: round"/>
    <path d="M 371.954818 34.16548 
L 368.817827 30.978117 
L 373.249913 30.380942 
z
" clip-path="url(#p7db70dece6)" style="stroke: #000000; stroke-linecap: round"/>
   </g>
   <g id="patch_37">
    <path d="M 419.513133 50.20311 
Q 408.166107 62.699844 397.570657 74.368849 
" clip-path="url(#p7db70dece6)" style="fill: none; stroke: #000000; stroke-linecap: round"/>
    <path d="M 401.740263 72.751941 
L 397.570657 74.368849 
L 398.778894 70.06302 
z
" clip-path="url(#p7db70dece6)" style="stroke: #000000; stroke-linecap: round"/>
   </g>
   <g id="patch_38">
    <path d="M 75.851555 313.9834 
Q 82.524138 303.690554 88.588543 294.335855 
" clip-path="url(#p7db70dece6)" style="fill: none; stroke: #000000; stroke-linecap: round"/>
    <path d="M 84.734455 296.604335 
L 88.588543 294.335855 
L 88.090874 298.780213 
z
" clip-path="url(#p7db70dece6)" style="stroke: #000000; stroke-linecap: round"/>
   </g>
   <g id="patch_39">
    <path d="M 73.144145 314.597458 
Q 57.389134 304.94744 42.587528 295.881388 
" clip-path="url(#p7db70dece6)" style="fill: none; stroke: #000000; stroke-linecap: round"/>
    <path d="M 44.953909 299.676153 
L 42.587528 295.881388 
L 47.043169 296.265143 
z
" clip-path="url(#p7db70dece6)" style="stroke: #000000; stroke-linecap: round"/>
   </g>
   <g id="patch_40">
    <path d="M 40.989398 292.627855 
Q 49.882697 277.898602 58.198111 264.126453 
" clip-path="url(#p7db70dece6)" style="fill: none; stroke: #000000; stroke-linecap: round"/>
    <path d="M 54.418486 266.516942 
L 58.198111 264.126453 
L 57.842727 268.584446 
z
" clip-path="url(#p7db70dece6)" style="stroke: #000000; stroke-linecap: round"/>
   </g>
   <g id="patch_41">
    <path d="M 41.639759 295.300875 
Q 57.39477 304.950893 72.196376 314.016945 
" clip-path="url(#p7db70dece6)" style="fill: none; stroke: #000000; stroke-linecap: round"/>
    <path d="M 69.829995 310.22218 
L 72.196376 314.016945 
L 67.740735 313.63319 
z
" clip-path="url(#p7db70dece6)" style="stroke: #000000; stroke-linecap: round"/>
   </g>
   <g id="PathCollection_1">
    <defs>
     <path id="m8e9752f881" d="M 0 1.936492 
C 0.513564 1.936492 1.006162 1.732451 1.369306 1.369306 
C 1.732451 1.006162 1.936492 0.513564 1.936492 0 
C 1.936492 -0.513564 1.732451 -1.006162 1.369306 -1.369306 
C 1.006162 -1.732451 0.513564 -1.936492 0 -1.936492 
C -0.513564 -1.936492 -1.006162 -1.732451 -1.369306 -1.369306 
C -1.732451 -1.006162 -1.936492 -0.513564 -1.936492 0 
C -1.936492 0.513564 -1.732451 1.006162 -1.369306 1.369306 
C -1.006162 1.732451 -0.513564 1.936492 0 1.936492 
z
" style="stroke: #1f78b4"/>
    </defs>
    <g clip-path="url(#p7db70dece6)">
     <use xlink:href="#m8e9752f881" x="287.121863" y="38.478295" style="fill: #1f78b4; stroke: #1f78b4"/>
     <use xlink:href="#m8e9752f881" x="365.930584" y="29.990083" style="fill: #1f78b4; stroke: #1f78b4"/>
     <use xlink:href="#m8e9752f881" x="150.617453" y="98.302726" style="fill: #1f78b4; stroke: #1f78b4"/>
     <use xlink:href="#m8e9752f881" x="211.961338" y="62.49136" style="fill: #1f78b4; stroke: #1f78b4"/>
     <use xlink:href="#m8e9752f881" x="74.297452" y="146.69372" style="fill: #1f78b4; stroke: #1f78b4"/>
     <use xlink:href="#m8e9752f881" x="323.565777" y="95.827475" style="fill: #1f78b4; stroke: #1f78b4"/>
     <use xlink:href="#m8e9752f881" x="395.515499" y="76.632241" style="fill: #1f78b4; stroke: #1f78b4"/>
     <use xlink:href="#m8e9752f881" x="61.487565" y="228.005259" style="fill: #1f78b4; stroke: #1f78b4"/>
     <use xlink:href="#m8e9752f881" x="112.705323" y="140.103143" style="fill: #1f78b4; stroke: #1f78b4"/>
     <use xlink:href="#m8e9752f881" x="90.249499" y="291.773733" style="fill: #1f78b4; stroke: #1f78b4"/>
     <use xlink:href="#m8e9752f881" x="59.778284" y="261.50934" style="fill: #1f78b4; stroke: #1f78b4"/>
     <use xlink:href="#m8e9752f881" x="75.406678" y="179.591611" style="fill: #1f78b4; stroke: #1f78b4"/>
     <use xlink:href="#m8e9752f881" x="231.929759" y="107.8835" style="fill: #1f78b4; stroke: #1f78b4"/>
     <use xlink:href="#m8e9752f881" x="139.518463" y="118.74732" style="fill: #1f78b4; stroke: #1f78b4"/>
     <use xlink:href="#m8e9752f881" x="420.813223" y="48.771291" style="fill: #1f78b4; stroke: #1f78b4"/>
     <use xlink:href="#m8e9752f881" x="74.797127" y="315.609917" style="fill: #1f78b4; stroke: #1f78b4"/>
     <use xlink:href="#m8e9752f881" x="39.986777" y="294.288416" style="fill: #1f78b4; stroke: #1f78b4"/>
    </g>
   </g>
   <g id="text_1">
    <g clip-path="url(#p7db70dece6)">
     <!-- 0 -->
     <g transform="translate(283.940613 41.23767) scale(0.1 -0.1)">
      <defs>
       <path id="DejaVuSans-30" d="M 2034 4250 
Q 1547 4250 1301 3770 
Q 1056 3291 1056 2328 
Q 1056 1369 1301 889 
Q 1547 409 2034 409 
Q 2525 409 2770 889 
Q 3016 1369 3016 2328 
Q 3016 3291 2770 3770 
Q 2525 4250 2034 4250 
z
M 2034 4750 
Q 2819 4750 3233 4129 
Q 3647 3509 3647 2328 
Q 3647 1150 3233 529 
Q 2819 -91 2034 -91 
Q 1250 -91 836 529 
Q 422 1150 422 2328 
Q 422 3509 836 4129 
Q 1250 4750 2034 4750 
z
" transform="scale(0.015625)"/>
      </defs>
      <use xlink:href="#DejaVuSans-30"/>
     </g>
    </g>
   </g>
   <g id="text_2">
    <g clip-path="url(#p7db70dece6)">
     <!-- 1 -->
     <g transform="translate(362.749334 32.749458) scale(0.1 -0.1)">
      <defs>
       <path id="DejaVuSans-31" d="M 794 531 
L 1825 531 
L 1825 4091 
L 703 3866 
L 703 4441 
L 1819 4666 
L 2450 4666 
L 2450 531 
L 3481 531 
L 3481 0 
L 794 0 
L 794 531 
z
" transform="scale(0.015625)"/>
      </defs>
      <use xlink:href="#DejaVuSans-31"/>
     </g>
    </g>
   </g>
   <g id="text_3">
    <g clip-path="url(#p7db70dece6)">
     <!-- 2 -->
     <g transform="translate(147.436203 101.062101) scale(0.1 -0.1)">
      <defs>
       <path id="DejaVuSans-32" d="M 1228 531 
L 3431 531 
L 3431 0 
L 469 0 
L 469 531 
Q 828 903 1448 1529 
Q 2069 2156 2228 2338 
Q 2531 2678 2651 2914 
Q 2772 3150 2772 3378 
Q 2772 3750 2511 3984 
Q 2250 4219 1831 4219 
Q 1534 4219 1204 4116 
Q 875 4013 500 3803 
L 500 4441 
Q 881 4594 1212 4672 
Q 1544 4750 1819 4750 
Q 2544 4750 2975 4387 
Q 3406 4025 3406 3419 
Q 3406 3131 3298 2873 
Q 3191 2616 2906 2266 
Q 2828 2175 2409 1742 
Q 1991 1309 1228 531 
z
" transform="scale(0.015625)"/>
      </defs>
      <use xlink:href="#DejaVuSans-32"/>
     </g>
    </g>
   </g>
   <g id="text_4">
    <g clip-path="url(#p7db70dece6)">
     <!-- 3 -->
     <g transform="translate(208.780088 65.250735) scale(0.1 -0.1)">
      <defs>
       <path id="DejaVuSans-33" d="M 2597 2516 
Q 3050 2419 3304 2112 
Q 3559 1806 3559 1356 
Q 3559 666 3084 287 
Q 2609 -91 1734 -91 
Q 1441 -91 1130 -33 
Q 819 25 488 141 
L 488 750 
Q 750 597 1062 519 
Q 1375 441 1716 441 
Q 2309 441 2620 675 
Q 2931 909 2931 1356 
Q 2931 1769 2642 2001 
Q 2353 2234 1838 2234 
L 1294 2234 
L 1294 2753 
L 1863 2753 
Q 2328 2753 2575 2939 
Q 2822 3125 2822 3475 
Q 2822 3834 2567 4026 
Q 2313 4219 1838 4219 
Q 1578 4219 1281 4162 
Q 984 4106 628 3988 
L 628 4550 
Q 988 4650 1302 4700 
Q 1616 4750 1894 4750 
Q 2613 4750 3031 4423 
Q 3450 4097 3450 3541 
Q 3450 3153 3228 2886 
Q 3006 2619 2597 2516 
z
" transform="scale(0.015625)"/>
      </defs>
      <use xlink:href="#DejaVuSans-33"/>
     </g>
    </g>
   </g>
   <g id="text_5">
    <g clip-path="url(#p7db70dece6)">
     <!-- 4 -->
     <g transform="translate(71.116202 149.453095) scale(0.1 -0.1)">
      <defs>
       <path id="DejaVuSans-34" d="M 2419 4116 
L 825 1625 
L 2419 1625 
L 2419 4116 
z
M 2253 4666 
L 3047 4666 
L 3047 1625 
L 3713 1625 
L 3713 1100 
L 3047 1100 
L 3047 0 
L 2419 0 
L 2419 1100 
L 313 1100 
L 313 1709 
L 2253 4666 
z
" transform="scale(0.015625)"/>
      </defs>
      <use xlink:href="#DejaVuSans-34"/>
     </g>
    </g>
   </g>
   <g id="text_6">
    <g clip-path="url(#p7db70dece6)">
     <!-- 5 -->
     <g transform="translate(320.384527 98.58685) scale(0.1 -0.1)">
      <defs>
       <path id="DejaVuSans-35" d="M 691 4666 
L 3169 4666 
L 3169 4134 
L 1269 4134 
L 1269 2991 
Q 1406 3038 1543 3061 
Q 1681 3084 1819 3084 
Q 2600 3084 3056 2656 
Q 3513 2228 3513 1497 
Q 3513 744 3044 326 
Q 2575 -91 1722 -91 
Q 1428 -91 1123 -41 
Q 819 9 494 109 
L 494 744 
Q 775 591 1075 516 
Q 1375 441 1709 441 
Q 2250 441 2565 725 
Q 2881 1009 2881 1497 
Q 2881 1984 2565 2268 
Q 2250 2553 1709 2553 
Q 1456 2553 1204 2497 
Q 953 2441 691 2322 
L 691 4666 
z
" transform="scale(0.015625)"/>
      </defs>
      <use xlink:href="#DejaVuSans-35"/>
     </g>
    </g>
   </g>
   <g id="text_7">
    <g clip-path="url(#p7db70dece6)">
     <!-- 6 -->
     <g transform="translate(392.334249 79.391616) scale(0.1 -0.1)">
      <defs>
       <path id="DejaVuSans-36" d="M 2113 2584 
Q 1688 2584 1439 2293 
Q 1191 2003 1191 1497 
Q 1191 994 1439 701 
Q 1688 409 2113 409 
Q 2538 409 2786 701 
Q 3034 994 3034 1497 
Q 3034 2003 2786 2293 
Q 2538 2584 2113 2584 
z
M 3366 4563 
L 3366 3988 
Q 3128 4100 2886 4159 
Q 2644 4219 2406 4219 
Q 1781 4219 1451 3797 
Q 1122 3375 1075 2522 
Q 1259 2794 1537 2939 
Q 1816 3084 2150 3084 
Q 2853 3084 3261 2657 
Q 3669 2231 3669 1497 
Q 3669 778 3244 343 
Q 2819 -91 2113 -91 
Q 1303 -91 875 529 
Q 447 1150 447 2328 
Q 447 3434 972 4092 
Q 1497 4750 2381 4750 
Q 2619 4750 2861 4703 
Q 3103 4656 3366 4563 
z
" transform="scale(0.015625)"/>
      </defs>
      <use xlink:href="#DejaVuSans-36"/>
     </g>
    </g>
   </g>
   <g id="text_8">
    <g clip-path="url(#p7db70dece6)">
     <!-- 7 -->
     <g transform="translate(58.306315 230.764634) scale(0.1 -0.1)">
      <defs>
       <path id="DejaVuSans-37" d="M 525 4666 
L 3525 4666 
L 3525 4397 
L 1831 0 
L 1172 0 
L 2766 4134 
L 525 4134 
L 525 4666 
z
" transform="scale(0.015625)"/>
      </defs>
      <use xlink:href="#DejaVuSans-37"/>
     </g>
    </g>
   </g>
   <g id="text_9">
    <g clip-path="url(#p7db70dece6)">
     <!-- 8 -->
     <g transform="translate(109.524073 142.862518) scale(0.1 -0.1)">
      <defs>
       <path id="DejaVuSans-38" d="M 2034 2216 
Q 1584 2216 1326 1975 
Q 1069 1734 1069 1313 
Q 1069 891 1326 650 
Q 1584 409 2034 409 
Q 2484 409 2743 651 
Q 3003 894 3003 1313 
Q 3003 1734 2745 1975 
Q 2488 2216 2034 2216 
z
M 1403 2484 
Q 997 2584 770 2862 
Q 544 3141 544 3541 
Q 544 4100 942 4425 
Q 1341 4750 2034 4750 
Q 2731 4750 3128 4425 
Q 3525 4100 3525 3541 
Q 3525 3141 3298 2862 
Q 3072 2584 2669 2484 
Q 3125 2378 3379 2068 
Q 3634 1759 3634 1313 
Q 3634 634 3220 271 
Q 2806 -91 2034 -91 
Q 1263 -91 848 271 
Q 434 634 434 1313 
Q 434 1759 690 2068 
Q 947 2378 1403 2484 
z
M 1172 3481 
Q 1172 3119 1398 2916 
Q 1625 2713 2034 2713 
Q 2441 2713 2670 2916 
Q 2900 3119 2900 3481 
Q 2900 3844 2670 4047 
Q 2441 4250 2034 4250 
Q 1625 4250 1398 4047 
Q 1172 3844 1172 3481 
z
" transform="scale(0.015625)"/>
      </defs>
      <use xlink:href="#DejaVuSans-38"/>
     </g>
    </g>
   </g>
   <g id="text_10">
    <g clip-path="url(#p7db70dece6)">
     <!-- 9 -->
     <g transform="translate(87.068249 294.533108) scale(0.1 -0.1)">
      <defs>
       <path id="DejaVuSans-39" d="M 703 97 
L 703 672 
Q 941 559 1184 500 
Q 1428 441 1663 441 
Q 2288 441 2617 861 
Q 2947 1281 2994 2138 
Q 2813 1869 2534 1725 
Q 2256 1581 1919 1581 
Q 1219 1581 811 2004 
Q 403 2428 403 3163 
Q 403 3881 828 4315 
Q 1253 4750 1959 4750 
Q 2769 4750 3195 4129 
Q 3622 3509 3622 2328 
Q 3622 1225 3098 567 
Q 2575 -91 1691 -91 
Q 1453 -91 1209 -44 
Q 966 3 703 97 
z
M 1959 2075 
Q 2384 2075 2632 2365 
Q 2881 2656 2881 3163 
Q 2881 3666 2632 3958 
Q 2384 4250 1959 4250 
Q 1534 4250 1286 3958 
Q 1038 3666 1038 3163 
Q 1038 2656 1286 2365 
Q 1534 2075 1959 2075 
z
" transform="scale(0.015625)"/>
      </defs>
      <use xlink:href="#DejaVuSans-39"/>
     </g>
    </g>
   </g>
   <g id="text_11">
    <g clip-path="url(#p7db70dece6)">
     <!-- 10 -->
     <g transform="translate(53.415784 264.268715) scale(0.1 -0.1)">
      <use xlink:href="#DejaVuSans-31"/>
      <use xlink:href="#DejaVuSans-30" x="63.623047"/>
     </g>
    </g>
   </g>
   <g id="text_12">
    <g clip-path="url(#p7db70dece6)">
     <!-- 11 -->
     <g transform="translate(69.044178 182.350986) scale(0.1 -0.1)">
      <use xlink:href="#DejaVuSans-31"/>
      <use xlink:href="#DejaVuSans-31" x="63.623047"/>
     </g>
    </g>
   </g>
   <g id="text_13">
    <g clip-path="url(#p7db70dece6)">
     <!-- 12 -->
     <g transform="translate(225.567259 110.642875) scale(0.1 -0.1)">
      <use xlink:href="#DejaVuSans-31"/>
      <use xlink:href="#DejaVuSans-32" x="63.623047"/>
     </g>
    </g>
   </g>
   <g id="text_14">
    <g clip-path="url(#p7db70dece6)">
     <!-- 13 -->
     <g transform="translate(133.155963 121.506695) scale(0.1 -0.1)">
      <use xlink:href="#DejaVuSans-31"/>
      <use xlink:href="#DejaVuSans-33" x="63.623047"/>
     </g>
    </g>
   </g>
   <g id="text_15">
    <g clip-path="url(#p7db70dece6)">
     <!-- 14 -->
     <g transform="translate(414.450723 51.530666) scale(0.1 -0.1)">
      <use xlink:href="#DejaVuSans-31"/>
      <use xlink:href="#DejaVuSans-34" x="63.623047"/>
     </g>
    </g>
   </g>
   <g id="text_16">
    <g clip-path="url(#p7db70dece6)">
     <!-- 15 -->
     <g transform="translate(68.434627 318.369292) scale(0.1 -0.1)">
      <use xlink:href="#DejaVuSans-31"/>
      <use xlink:href="#DejaVuSans-35" x="63.623047"/>
     </g>
    </g>
   </g>
   <g id="text_17">
    <g clip-path="url(#p7db70dece6)">
     <!-- 16 -->
     <g transform="translate(33.624277 297.047791) scale(0.1 -0.1)">
      <use xlink:href="#DejaVuSans-31"/>
      <use xlink:href="#DejaVuSans-36" x="63.623047"/>
     </g>
    </g>
   </g>
  </g>
 </g>
 <defs>
  <clipPath id="p7db70dece6">
   <rect x="0" y="0" width="460.8" height="345.6"/>
  </clipPath>
 </defs>
</svg>
