<?xml version="1.0" encoding="utf-8" standalone="no"?>
<!DOCTYPE svg PUBLIC "-//W3C//DTD SVG 1.1//EN"
  "http://www.w3.org/Graphics/SVG/1.1/DTD/svg11.dtd">
<svg xmlns:xlink="http://www.w3.org/1999/xlink" width="460.8pt" height="345.6pt" viewBox="0 0 460.8 345.6" xmlns="http://www.w3.org/2000/svg" version="1.1">
 <metadata>
  <rdf:RDF xmlns:dc="http://purl.org/dc/elements/1.1/" xmlns:cc="http://creativecommons.org/ns#" xmlns:rdf="http://www.w3.org/1999/02/22-rdf-syntax-ns#">
   <cc:Work>
    <dc:type rdf:resource="http://purl.org/dc/dcmitype/StillImage"/>
    <dc:date>2024-02-28T11:18:19.190391</dc:date>
    <dc:format>image/svg+xml</dc:format>
    <dc:creator>
     <cc:Agent>
      <dc:title>Matplotlib v3.8.0, https://matplotlib.org/</dc:title>
     </cc:Agent>
    </dc:creator>
   </cc:Work>
  </rdf:RDF>
 </metadata>
 <defs>
  <style type="text/css">*{stroke-linejoin: round; stroke-linecap: butt}</style>
 </defs>
 <g id="figure_1">
  <g id="patch_1">
   <path d="M 0 345.6 
L 460.8 345.6 
L 460.8 0 
L 0 0 
z
" style="fill: #ffffff"/>
  </g>
  <g id="axes_1">
   <g id="patch_2">
    <path d="M 286.578019 151.308154 
Q 291.264583 186.109557 295.801933 219.802928 
" clip-path="url(#p025787a9a1)" style="fill: none; stroke: #000000; stroke-linecap: round"/>
    <path d="M 297.250196 215.571789 
L 295.801933 219.802928 
L 293.28598 216.105634 
z
" clip-path="url(#p025787a9a1)" style="stroke: #000000; stroke-linecap: round"/>
   </g>
   <g id="patch_3">
    <path d="M 418.900509 240.728904 
Q 358.511513 231.917672 299.228836 223.267862 
" clip-path="url(#p025787a9a1)" style="fill: none; stroke: #000000; stroke-linecap: round"/>
    <path d="M 302.898168 225.824423 
L 299.228836 223.267862 
L 303.475685 221.866333 
z
" clip-path="url(#p025787a9a1)" style="stroke: #000000; stroke-linecap: round"/>
   </g>
   <g id="patch_4">
    <path d="M 364.424891 149.234261 
Q 330.975933 185.319947 298.28702 220.585674 
" clip-path="url(#p025787a9a1)" style="fill: none; stroke: #000000; stroke-linecap: round"/>
    <path d="M 302.473025 219.011712 
L 298.28702 220.585674 
L 299.539454 216.292492 
z
" clip-path="url(#p025787a9a1)" style="stroke: #000000; stroke-linecap: round"/>
   </g>
   <g id="patch_5">
    <path d="M 265.822597 312.276062 
Q 280.704785 268.467503 295.227351 225.717561 
" clip-path="url(#p025787a9a1)" style="fill: none; stroke: #000000; stroke-linecap: round"/>
    <path d="M 292.047013 228.861675 
L 295.227351 225.717561 
L 295.834439 230.1483 
z
" clip-path="url(#p025787a9a1)" style="stroke: #000000; stroke-linecap: round"/>
   </g>
   <g id="patch_6">
    <path d="M 41.920494 116.434359 
Q 97.905145 117.133413 152.771849 117.818509 
" clip-path="url(#p025787a9a1)" style="fill: none; stroke: #000000; stroke-linecap: round"/>
    <path d="M 148.797132 115.768722 
L 152.771849 117.818509 
L 148.74719 119.768411 
z
" clip-path="url(#p025787a9a1)" style="stroke: #000000; stroke-linecap: round"/>
   </g>
   <g id="patch_7">
    <path d="M 387.337792 284.986 
Q 342.573045 254.452006 298.731927 224.548018 
" clip-path="url(#p025787a9a1)" style="fill: none; stroke: #000000; stroke-linecap: round"/>
    <path d="M 300.909414 228.454238 
L 298.731927 224.548018 
L 303.163395 225.14976 
z
" clip-path="url(#p025787a9a1)" style="stroke: #000000; stroke-linecap: round"/>
   </g>
   <g id="patch_8">
    <path d="M 295.950245 220.904259 
Q 291.263681 186.102857 286.726331 152.409486 
" clip-path="url(#p025787a9a1)" style="fill: none; stroke: #000000; stroke-linecap: round"/>
    <path d="M 285.278068 156.640624 
L 286.726331 152.409486 
L 289.242284 156.106779 
z
" clip-path="url(#p025787a9a1)" style="stroke: #000000; stroke-linecap: round"/>
   </g>
   <g id="patch_9">
    <path d="M 298.121924 223.106354 
Q 358.51092 231.917586 417.793596 240.567396 
" clip-path="url(#p025787a9a1)" style="fill: none; stroke: #000000; stroke-linecap: round"/>
    <path d="M 414.124265 238.010835 
L 417.793596 240.567396 
L 413.546748 241.968925 
z
" clip-path="url(#p025787a9a1)" style="stroke: #000000; stroke-linecap: round"/>
   </g>
   <g id="patch_10">
    <path d="M 297.526967 221.40564 
Q 330.975925 185.319955 363.664838 150.054228 
" clip-path="url(#p025787a9a1)" style="fill: none; stroke: #000000; stroke-linecap: round"/>
    <path d="M 359.478833 151.62819 
L 363.664838 150.054228 
L 362.412404 154.34741 
z
" clip-path="url(#p025787a9a1)" style="stroke: #000000; stroke-linecap: round"/>
   </g>
   <g id="patch_11">
    <path d="M 295.585559 224.663107 
Q 280.703371 268.471666 266.180805 311.221608 
" clip-path="url(#p025787a9a1)" style="fill: none; stroke: #000000; stroke-linecap: round"/>
    <path d="M 269.361143 308.077494 
L 266.180805 311.221608 
L 265.573717 306.790869 
z
" clip-path="url(#p025787a9a1)" style="stroke: #000000; stroke-linecap: round"/>
   </g>
   <g id="patch_12">
    <path d="M 297.808056 223.917846 
Q 342.572803 254.451841 386.41392 284.355828 
" clip-path="url(#p025787a9a1)" style="fill: none; stroke: #000000; stroke-linecap: round"/>
    <path d="M 384.236433 280.449609 
L 386.41392 284.355828 
L 381.982452 283.754086 
z
" clip-path="url(#p025787a9a1)" style="stroke: #000000; stroke-linecap: round"/>
   </g>
   <g id="patch_13">
    <path d="M 294.656203 221.666024 
Q 226.017486 170.341872 158.274164 119.687247 
" clip-path="url(#p025787a9a1)" style="fill: none; stroke: #000000; stroke-linecap: round"/>
    <path d="M 160.279945 123.684351 
L 158.274164 119.687247 
L 162.675316 120.480885 
z
" clip-path="url(#p025787a9a1)" style="stroke: #000000; stroke-linecap: round"/>
   </g>
   <g id="patch_14">
    <path d="M 294.612546 223.919213 
Q 250.713646 253.941139 207.737606 283.331933 
" clip-path="url(#p025787a9a1)" style="fill: none; stroke: #000000; stroke-linecap: round"/>
    <path d="M 212.168337 282.724785 
L 207.737606 283.331933 
L 209.910326 279.42306 
z
" clip-path="url(#p025787a9a1)" style="stroke: #000000; stroke-linecap: round"/>
   </g>
   <g id="patch_15">
    <path d="M 296.936318 224.619615 
Q 315.028157 269.21647 332.699705 312.777297 
" clip-path="url(#p025787a9a1)" style="fill: none; stroke: #000000; stroke-linecap: round"/>
    <path d="M 333.04933 308.318848 
L 332.699705 312.777297 
L 329.342722 309.822528 
z
" clip-path="url(#p025787a9a1)" style="stroke: #000000; stroke-linecap: round"/>
   </g>
   <g id="patch_16">
    <path d="M 298.067251 222.292389 
Q 354.191731 206.135522 409.24181 190.287949 
" clip-path="url(#p025787a9a1)" style="fill: none; stroke: #000000; stroke-linecap: round"/>
    <path d="M 404.844635 189.472565 
L 409.24181 190.287949 
L 405.951198 193.316459 
z
" clip-path="url(#p025787a9a1)" style="stroke: #000000; stroke-linecap: round"/>
   </g>
   <g id="patch_17">
    <path d="M 294.27699 222.920703 
Q 244.397239 225.332552 195.634217 227.690404 
" clip-path="url(#p025787a9a1)" style="fill: none; stroke: #000000; stroke-linecap: round"/>
    <path d="M 199.726143 229.494882 
L 195.634217 227.690404 
L 199.532955 225.49955 
z
" clip-path="url(#p025787a9a1)" style="stroke: #000000; stroke-linecap: round"/>
   </g>
   <g id="patch_18">
    <path d="M 153.892278 117.832499 
Q 97.907627 117.133444 43.040923 116.448349 
" clip-path="url(#p025787a9a1)" style="fill: none; stroke: #000000; stroke-linecap: round"/>
    <path d="M 47.01564 118.498135 
L 43.040923 116.448349 
L 47.065582 114.498447 
z
" clip-path="url(#p025787a9a1)" style="stroke: #000000; stroke-linecap: round"/>
   </g>
   <g id="patch_19">
    <path d="M 157.379001 119.017895 
Q 226.017719 170.342047 293.76104 220.996672 
" clip-path="url(#p025787a9a1)" style="fill: none; stroke: #000000; stroke-linecap: round"/>
    <path d="M 291.755259 216.999567 
L 293.76104 220.996672 
L 289.359888 220.203034 
z
" clip-path="url(#p025787a9a1)" style="stroke: #000000; stroke-linecap: round"/>
   </g>
   <g id="patch_20">
    <path d="M 154.280784 116.686919 
Q 113.839708 86.073021 74.290055 56.133929 
" clip-path="url(#p025787a9a1)" style="fill: none; stroke: #000000; stroke-linecap: round"/>
    <path d="M 76.272175 60.142819 
L 74.290055 56.133929 
L 78.686439 56.953567 
z
" clip-path="url(#p025787a9a1)" style="stroke: #000000; stroke-linecap: round"/>
   </g>
   <g id="patch_21">
    <path d="M 155.765518 115.923301 
Q 154.451779 73.925696 153.172998 33.045578 
" clip-path="url(#p025787a9a1)" style="fill: none; stroke: #000000; stroke-linecap: round"/>
    <path d="M 151.299039 37.106154 
L 153.172998 33.045578 
L 155.297084 36.981091 
z
" clip-path="url(#p025787a9a1)" style="stroke: #000000; stroke-linecap: round"/>
   </g>
   <g id="patch_22">
    <path d="M 206.815483 283.962562 
Q 250.714383 253.940635 293.690422 224.549842 
" clip-path="url(#p025787a9a1)" style="fill: none; stroke: #000000; stroke-linecap: round"/>
    <path d="M 289.259692 225.15699 
L 293.690422 224.549842 
L 291.517702 228.458715 
z
" clip-path="url(#p025787a9a1)" style="stroke: #000000; stroke-linecap: round"/>
   </g>
   <g id="patch_23">
    <path d="M 333.121721 313.817577 
Q 315.029882 269.220722 297.358333 225.659895 
" clip-path="url(#p025787a9a1)" style="fill: none; stroke: #000000; stroke-linecap: round"/>
    <path d="M 297.008708 230.118343 
L 297.358333 225.659895 
L 300.715317 228.614664 
z
" clip-path="url(#p025787a9a1)" style="stroke: #000000; stroke-linecap: round"/>
   </g>
   <g id="patch_24">
    <path d="M 410.321266 189.9772 
Q 354.196786 206.134067 299.146707 221.98164 
" clip-path="url(#p025787a9a1)" style="fill: none; stroke: #000000; stroke-linecap: round"/>
    <path d="M 303.543882 222.797024 
L 299.146707 221.98164 
L 302.437319 218.953131 
z
" clip-path="url(#p025787a9a1)" style="stroke: #000000; stroke-linecap: round"/>
   </g>
   <g id="patch_25">
    <path d="M 194.516275 227.74446 
Q 244.396026 225.332611 293.159048 222.974759 
" clip-path="url(#p025787a9a1)" style="fill: none; stroke: #000000; stroke-linecap: round"/>
    <path d="M 289.067122 221.170281 
L 293.159048 222.974759 
L 289.26031 225.165613 
z
" clip-path="url(#p025787a9a1)" style="stroke: #000000; stroke-linecap: round"/>
   </g>
   <g id="patch_26">
    <path d="M 73.401913 55.461606 
Q 113.842989 86.075505 153.392642 116.014596 
" clip-path="url(#p025787a9a1)" style="fill: none; stroke: #000000; stroke-linecap: round"/>
    <path d="M 151.410522 112.005706 
L 153.392642 116.014596 
L 148.996258 115.194958 
z
" clip-path="url(#p025787a9a1)" style="stroke: #000000; stroke-linecap: round"/>
   </g>
   <g id="patch_27">
    <path d="M 153.137895 31.923426 
Q 154.451633 73.921031 155.730415 114.801149 
" clip-path="url(#p025787a9a1)" style="fill: none; stroke: #000000; stroke-linecap: round"/>
    <path d="M 157.604373 110.740573 
L 155.730415 114.801149 
L 153.606329 110.865637 
z
" clip-path="url(#p025787a9a1)" style="stroke: #000000; stroke-linecap: round"/>
   </g>
   <g id="PathCollection_1">
    <defs>
     <path id="mc6450a0237" d="M 0 1.936492 
C 0.513564 1.936492 1.006162 1.732451 1.369306 1.369306 
C 1.732451 1.006162 1.936492 0.513564 1.936492 0 
C 1.936492 -0.513564 1.732451 -1.006162 1.369306 -1.369306 
C 1.006162 -1.732451 0.513564 -1.936492 0 -1.936492 
C -0.513564 -1.936492 -1.006162 -1.732451 -1.369306 -1.369306 
C -1.732451 -1.006162 -1.936492 -0.513564 -1.936492 0 
C -1.936492 0.513564 -1.732451 1.006162 -1.369306 1.369306 
C -1.006162 1.732451 -0.513564 1.936492 0 1.936492 
z
" style="stroke: #1f78b4"/>
    </defs>
    <g clip-path="url(#p025787a9a1)">
     <use xlink:href="#mc6450a0237" x="286.319054" y="149.385139" style="fill: #1f78b4; stroke: #1f78b4"/>
     <use xlink:href="#mc6450a0237" x="420.813223" y="241.007984" style="fill: #1f78b4; stroke: #1f78b4"/>
     <use xlink:href="#mc6450a0237" x="365.742649" y="147.812627" style="fill: #1f78b4; stroke: #1f78b4"/>
     <use xlink:href="#mc6450a0237" x="265.198947" y="314.111895" style="fill: #1f78b4; stroke: #1f78b4"/>
     <use xlink:href="#mc6450a0237" x="39.986777" y="116.410213" style="fill: #1f78b4; stroke: #1f78b4"/>
     <use xlink:href="#mc6450a0237" x="388.936638" y="286.076572" style="fill: #1f78b4; stroke: #1f78b4"/>
     <use xlink:href="#mc6450a0237" x="296.209209" y="222.827274" style="fill: #1f78b4; stroke: #1f78b4"/>
     <use xlink:href="#mc6450a0237" x="155.825995" y="117.856645" style="fill: #1f78b4; stroke: #1f78b4"/>
     <use xlink:href="#mc6450a0237" x="205.218819" y="285.054501" style="fill: #1f78b4; stroke: #1f78b4"/>
     <use xlink:href="#mc6450a0237" x="333.848829" y="315.609917" style="fill: #1f78b4; stroke: #1f78b4"/>
     <use xlink:href="#mc6450a0237" x="412.179308" y="189.442315" style="fill: #1f78b4; stroke: #1f78b4"/>
     <use xlink:href="#mc6450a0237" x="192.584055" y="227.837889" style="fill: #1f78b4; stroke: #1f78b4"/>
     <use xlink:href="#mc6450a0237" x="71.856702" y="54.291881" style="fill: #1f78b4; stroke: #1f78b4"/>
     <use xlink:href="#mc6450a0237" x="153.077418" y="29.990083" style="fill: #1f78b4; stroke: #1f78b4"/>
    </g>
   </g>
   <g id="text_1">
    <g clip-path="url(#p025787a9a1)">
     <!-- 0 -->
     <g transform="translate(283.137804 152.144514) scale(0.1 -0.1)">
      <defs>
       <path id="DejaVuSans-30" d="M 2034 4250 
Q 1547 4250 1301 3770 
Q 1056 3291 1056 2328 
Q 1056 1369 1301 889 
Q 1547 409 2034 409 
Q 2525 409 2770 889 
Q 3016 1369 3016 2328 
Q 3016 3291 2770 3770 
Q 2525 4250 2034 4250 
z
M 2034 4750 
Q 2819 4750 3233 4129 
Q 3647 3509 3647 2328 
Q 3647 1150 3233 529 
Q 2819 -91 2034 -91 
Q 1250 -91 836 529 
Q 422 1150 422 2328 
Q 422 3509 836 4129 
Q 1250 4750 2034 4750 
z
" transform="scale(0.015625)"/>
      </defs>
      <use xlink:href="#DejaVuSans-30"/>
     </g>
    </g>
   </g>
   <g id="text_2">
    <g clip-path="url(#p025787a9a1)">
     <!-- 1 -->
     <g transform="translate(417.631973 243.767359) scale(0.1 -0.1)">
      <defs>
       <path id="DejaVuSans-31" d="M 794 531 
L 1825 531 
L 1825 4091 
L 703 3866 
L 703 4441 
L 1819 4666 
L 2450 4666 
L 2450 531 
L 3481 531 
L 3481 0 
L 794 0 
L 794 531 
z
" transform="scale(0.015625)"/>
      </defs>
      <use xlink:href="#DejaVuSans-31"/>
     </g>
    </g>
   </g>
   <g id="text_3">
    <g clip-path="url(#p025787a9a1)">
     <!-- 2 -->
     <g transform="translate(362.561399 150.572002) scale(0.1 -0.1)">
      <defs>
       <path id="DejaVuSans-32" d="M 1228 531 
L 3431 531 
L 3431 0 
L 469 0 
L 469 531 
Q 828 903 1448 1529 
Q 2069 2156 2228 2338 
Q 2531 2678 2651 2914 
Q 2772 3150 2772 3378 
Q 2772 3750 2511 3984 
Q 2250 4219 1831 4219 
Q 1534 4219 1204 4116 
Q 875 4013 500 3803 
L 500 4441 
Q 881 4594 1212 4672 
Q 1544 4750 1819 4750 
Q 2544 4750 2975 4387 
Q 3406 4025 3406 3419 
Q 3406 3131 3298 2873 
Q 3191 2616 2906 2266 
Q 2828 2175 2409 1742 
Q 1991 1309 1228 531 
z
" transform="scale(0.015625)"/>
      </defs>
      <use xlink:href="#DejaVuSans-32"/>
     </g>
    </g>
   </g>
   <g id="text_4">
    <g clip-path="url(#p025787a9a1)">
     <!-- 3 -->
     <g transform="translate(262.017697 316.87127) scale(0.1 -0.1)">
      <defs>
       <path id="DejaVuSans-33" d="M 2597 2516 
Q 3050 2419 3304 2112 
Q 3559 1806 3559 1356 
Q 3559 666 3084 287 
Q 2609 -91 1734 -91 
Q 1441 -91 1130 -33 
Q 819 25 488 141 
L 488 750 
Q 750 597 1062 519 
Q 1375 441 1716 441 
Q 2309 441 2620 675 
Q 2931 909 2931 1356 
Q 2931 1769 2642 2001 
Q 2353 2234 1838 2234 
L 1294 2234 
L 1294 2753 
L 1863 2753 
Q 2328 2753 2575 2939 
Q 2822 3125 2822 3475 
Q 2822 3834 2567 4026 
Q 2313 4219 1838 4219 
Q 1578 4219 1281 4162 
Q 984 4106 628 3988 
L 628 4550 
Q 988 4650 1302 4700 
Q 1616 4750 1894 4750 
Q 2613 4750 3031 4423 
Q 3450 4097 3450 3541 
Q 3450 3153 3228 2886 
Q 3006 2619 2597 2516 
z
" transform="scale(0.015625)"/>
      </defs>
      <use xlink:href="#DejaVuSans-33"/>
     </g>
    </g>
   </g>
   <g id="text_5">
    <g clip-path="url(#p025787a9a1)">
     <!-- 4 -->
     <g transform="translate(36.805527 119.169588) scale(0.1 -0.1)">
      <defs>
       <path id="DejaVuSans-34" d="M 2419 4116 
L 825 1625 
L 2419 1625 
L 2419 4116 
z
M 2253 4666 
L 3047 4666 
L 3047 1625 
L 3713 1625 
L 3713 1100 
L 3047 1100 
L 3047 0 
L 2419 0 
L 2419 1100 
L 313 1100 
L 313 1709 
L 2253 4666 
z
" transform="scale(0.015625)"/>
      </defs>
      <use xlink:href="#DejaVuSans-34"/>
     </g>
    </g>
   </g>
   <g id="text_6">
    <g clip-path="url(#p025787a9a1)">
     <!-- 5 -->
     <g transform="translate(385.755388 288.835947) scale(0.1 -0.1)">
      <defs>
       <path id="DejaVuSans-35" d="M 691 4666 
L 3169 4666 
L 3169 4134 
L 1269 4134 
L 1269 2991 
Q 1406 3038 1543 3061 
Q 1681 3084 1819 3084 
Q 2600 3084 3056 2656 
Q 3513 2228 3513 1497 
Q 3513 744 3044 326 
Q 2575 -91 1722 -91 
Q 1428 -91 1123 -41 
Q 819 9 494 109 
L 494 744 
Q 775 591 1075 516 
Q 1375 441 1709 441 
Q 2250 441 2565 725 
Q 2881 1009 2881 1497 
Q 2881 1984 2565 2268 
Q 2250 2553 1709 2553 
Q 1456 2553 1204 2497 
Q 953 2441 691 2322 
L 691 4666 
z
" transform="scale(0.015625)"/>
      </defs>
      <use xlink:href="#DejaVuSans-35"/>
     </g>
    </g>
   </g>
   <g id="text_7">
    <g clip-path="url(#p025787a9a1)">
     <!-- 6 -->
     <g transform="translate(293.027959 225.586649) scale(0.1 -0.1)">
      <defs>
       <path id="DejaVuSans-36" d="M 2113 2584 
Q 1688 2584 1439 2293 
Q 1191 2003 1191 1497 
Q 1191 994 1439 701 
Q 1688 409 2113 409 
Q 2538 409 2786 701 
Q 3034 994 3034 1497 
Q 3034 2003 2786 2293 
Q 2538 2584 2113 2584 
z
M 3366 4563 
L 3366 3988 
Q 3128 4100 2886 4159 
Q 2644 4219 2406 4219 
Q 1781 4219 1451 3797 
Q 1122 3375 1075 2522 
Q 1259 2794 1537 2939 
Q 1816 3084 2150 3084 
Q 2853 3084 3261 2657 
Q 3669 2231 3669 1497 
Q 3669 778 3244 343 
Q 2819 -91 2113 -91 
Q 1303 -91 875 529 
Q 447 1150 447 2328 
Q 447 3434 972 4092 
Q 1497 4750 2381 4750 
Q 2619 4750 2861 4703 
Q 3103 4656 3366 4563 
z
" transform="scale(0.015625)"/>
      </defs>
      <use xlink:href="#DejaVuSans-36"/>
     </g>
    </g>
   </g>
   <g id="text_8">
    <g clip-path="url(#p025787a9a1)">
     <!-- 7 -->
     <g transform="translate(152.644745 120.61602) scale(0.1 -0.1)">
      <defs>
       <path id="DejaVuSans-37" d="M 525 4666 
L 3525 4666 
L 3525 4397 
L 1831 0 
L 1172 0 
L 2766 4134 
L 525 4134 
L 525 4666 
z
" transform="scale(0.015625)"/>
      </defs>
      <use xlink:href="#DejaVuSans-37"/>
     </g>
    </g>
   </g>
   <g id="text_9">
    <g clip-path="url(#p025787a9a1)">
     <!-- 8 -->
     <g transform="translate(202.037569 287.813876) scale(0.1 -0.1)">
      <defs>
       <path id="DejaVuSans-38" d="M 2034 2216 
Q 1584 2216 1326 1975 
Q 1069 1734 1069 1313 
Q 1069 891 1326 650 
Q 1584 409 2034 409 
Q 2484 409 2743 651 
Q 3003 894 3003 1313 
Q 3003 1734 2745 1975 
Q 2488 2216 2034 2216 
z
M 1403 2484 
Q 997 2584 770 2862 
Q 544 3141 544 3541 
Q 544 4100 942 4425 
Q 1341 4750 2034 4750 
Q 2731 4750 3128 4425 
Q 3525 4100 3525 3541 
Q 3525 3141 3298 2862 
Q 3072 2584 2669 2484 
Q 3125 2378 3379 2068 
Q 3634 1759 3634 1313 
Q 3634 634 3220 271 
Q 2806 -91 2034 -91 
Q 1263 -91 848 271 
Q 434 634 434 1313 
Q 434 1759 690 2068 
Q 947 2378 1403 2484 
z
M 1172 3481 
Q 1172 3119 1398 2916 
Q 1625 2713 2034 2713 
Q 2441 2713 2670 2916 
Q 2900 3119 2900 3481 
Q 2900 3844 2670 4047 
Q 2441 4250 2034 4250 
Q 1625 4250 1398 4047 
Q 1172 3844 1172 3481 
z
" transform="scale(0.015625)"/>
      </defs>
      <use xlink:href="#DejaVuSans-38"/>
     </g>
    </g>
   </g>
   <g id="text_10">
    <g clip-path="url(#p025787a9a1)">
     <!-- 9 -->
     <g transform="translate(330.667579 318.369292) scale(0.1 -0.1)">
      <defs>
       <path id="DejaVuSans-39" d="M 703 97 
L 703 672 
Q 941 559 1184 500 
Q 1428 441 1663 441 
Q 2288 441 2617 861 
Q 2947 1281 2994 2138 
Q 2813 1869 2534 1725 
Q 2256 1581 1919 1581 
Q 1219 1581 811 2004 
Q 403 2428 403 3163 
Q 403 3881 828 4315 
Q 1253 4750 1959 4750 
Q 2769 4750 3195 4129 
Q 3622 3509 3622 2328 
Q 3622 1225 3098 567 
Q 2575 -91 1691 -91 
Q 1453 -91 1209 -44 
Q 966 3 703 97 
z
M 1959 2075 
Q 2384 2075 2632 2365 
Q 2881 2656 2881 3163 
Q 2881 3666 2632 3958 
Q 2384 4250 1959 4250 
Q 1534 4250 1286 3958 
Q 1038 3666 1038 3163 
Q 1038 2656 1286 2365 
Q 1534 2075 1959 2075 
z
" transform="scale(0.015625)"/>
      </defs>
      <use xlink:href="#DejaVuSans-39"/>
     </g>
    </g>
   </g>
   <g id="text_11">
    <g clip-path="url(#p025787a9a1)">
     <!-- 10 -->
     <g transform="translate(405.816808 192.20169) scale(0.1 -0.1)">
      <use xlink:href="#DejaVuSans-31"/>
      <use xlink:href="#DejaVuSans-30" x="63.623047"/>
     </g>
    </g>
   </g>
   <g id="text_12">
    <g clip-path="url(#p025787a9a1)">
     <!-- 11 -->
     <g transform="translate(186.221555 230.597264) scale(0.1 -0.1)">
      <use xlink:href="#DejaVuSans-31"/>
      <use xlink:href="#DejaVuSans-31" x="63.623047"/>
     </g>
    </g>
   </g>
   <g id="text_13">
    <g clip-path="url(#p025787a9a1)">
     <!-- 12 -->
     <g transform="translate(65.494202 57.051256) scale(0.1 -0.1)">
      <use xlink:href="#DejaVuSans-31"/>
      <use xlink:href="#DejaVuSans-32" x="63.623047"/>
     </g>
    </g>
   </g>
   <g id="text_14">
    <g clip-path="url(#p025787a9a1)">
     <!-- 13 -->
     <g transform="translate(146.714918 32.749458) scale(0.1 -0.1)">
      <use xlink:href="#DejaVuSans-31"/>
      <use xlink:href="#DejaVuSans-33" x="63.623047"/>
     </g>
    </g>
   </g>
  </g>
 </g>
 <defs>
  <clipPath id="p025787a9a1">
   <rect x="0" y="0" width="460.8" height="345.6"/>
  </clipPath>
 </defs>
</svg>
