<?xml version="1.0" encoding="utf-8" standalone="no"?>
<!DOCTYPE svg PUBLIC "-//W3C//DTD SVG 1.1//EN"
  "http://www.w3.org/Graphics/SVG/1.1/DTD/svg11.dtd">
<svg xmlns:xlink="http://www.w3.org/1999/xlink" width="460.8pt" height="345.6pt" viewBox="0 0 460.8 345.6" xmlns="http://www.w3.org/2000/svg" version="1.1">
 <metadata>
  <rdf:RDF xmlns:dc="http://purl.org/dc/elements/1.1/" xmlns:cc="http://creativecommons.org/ns#" xmlns:rdf="http://www.w3.org/1999/02/22-rdf-syntax-ns#">
   <cc:Work>
    <dc:type rdf:resource="http://purl.org/dc/dcmitype/StillImage"/>
    <dc:date>2024-02-28T11:18:19.412166</dc:date>
    <dc:format>image/svg+xml</dc:format>
    <dc:creator>
     <cc:Agent>
      <dc:title>Matplotlib v3.8.0, https://matplotlib.org/</dc:title>
     </cc:Agent>
    </dc:creator>
   </cc:Work>
  </rdf:RDF>
 </metadata>
 <defs>
  <style type="text/css">*{stroke-linejoin: round; stroke-linecap: butt}</style>
 </defs>
 <g id="figure_1">
  <g id="patch_1">
   <path d="M 0 345.6 
L 460.8 345.6 
L 460.8 0 
L 0 0 
z
" style="fill: #ffffff"/>
  </g>
  <g id="axes_1">
   <g id="patch_2">
    <path d="M 339.335056 89.352832 
Q 309.223177 143.685333 279.653262 197.03994 
" clip-path="url(#p8c56f912a6)" style="fill: none; stroke: #000000; stroke-linecap: round"/>
    <path d="M 283.341558 194.510815 
L 279.653262 197.03994 
L 279.84294 192.571828 
z
" clip-path="url(#p8c56f912a6)" style="stroke: #000000; stroke-linecap: round"/>
   </g>
   <g id="patch_3">
    <path d="M 279.110538 198.019207 
Q 309.222416 143.686706 338.792331 90.332098 
" clip-path="url(#p8c56f912a6)" style="fill: none; stroke: #000000; stroke-linecap: round"/>
    <path d="M 335.104036 92.861224 
L 338.792331 90.332098 
L 338.602654 94.80021 
z
" clip-path="url(#p8c56f912a6)" style="stroke: #000000; stroke-linecap: round"/>
   </g>
   <g id="patch_4">
    <path d="M 280.031382 199.161093 
Q 323.698572 186.222914 366.293791 173.60235 
" clip-path="url(#p8c56f912a6)" style="fill: none; stroke: #000000; stroke-linecap: round"/>
    <path d="M 361.890426 172.821084 
L 366.293791 173.60235 
L 363.026759 176.656283 
z
" clip-path="url(#p8c56f912a6)" style="stroke: #000000; stroke-linecap: round"/>
   </g>
   <g id="patch_5">
    <path d="M 280.031382 199.161093 
Q 323.698572 186.222914 366.293791 173.60235 
" clip-path="url(#p8c56f912a6)" style="fill: none; stroke: #000000; stroke-linecap: round"/>
    <path d="M 361.890426 172.821084 
L 366.293791 173.60235 
L 363.026759 176.656283 
z
" clip-path="url(#p8c56f912a6)" style="stroke: #000000; stroke-linecap: round"/>
   </g>
   <g id="patch_6">
    <path d="M 276.563761 198.631764 
Q 209.979544 153.92477 144.323539 109.841011 
" clip-path="url(#p8c56f912a6)" style="fill: none; stroke: #000000; stroke-linecap: round"/>
    <path d="M 146.529537 113.7312 
L 144.323539 109.841011 
L 148.75929 110.410326 
z
" clip-path="url(#p8c56f912a6)" style="stroke: #000000; stroke-linecap: round"/>
   </g>
   <g id="patch_7">
    <path d="M 279.996361 200.362863 
Q 349.491597 225.166483 417.933856 249.594284 
" clip-path="url(#p8c56f912a6)" style="fill: none; stroke: #000000; stroke-linecap: round"/>
    <path d="M 414.838897 246.366091 
L 417.933856 249.594284 
L 413.494326 250.133335 
z
" clip-path="url(#p8c56f912a6)" style="stroke: #000000; stroke-linecap: round"/>
   </g>
   <g id="patch_8">
    <path d="M 278.789098 201.547548 
Q 297.639791 257.661514 316.13445 312.715649 
" clip-path="url(#p8c56f912a6)" style="fill: none; stroke: #000000; stroke-linecap: round"/>
    <path d="M 316.756542 308.286993 
L 316.13445 312.715649 
L 312.96478 309.560782 
z
" clip-path="url(#p8c56f912a6)" style="stroke: #000000; stroke-linecap: round"/>
   </g>
   <g id="patch_9">
    <path d="M 276.886346 201.160952 
Q 235.432176 247.868515 194.720152 293.739884 
" clip-path="url(#p8c56f912a6)" style="fill: none; stroke: #000000; stroke-linecap: round"/>
    <path d="M 198.871159 292.075811 
L 194.720152 293.739884 
L 195.879498 289.420634 
z
" clip-path="url(#p8c56f912a6)" style="stroke: #000000; stroke-linecap: round"/>
   </g>
   <g id="patch_10">
    <path d="M 276.264784 199.400729 
Q 215.031978 189.413129 154.902624 179.605511 
" clip-path="url(#p8c56f912a6)" style="fill: none; stroke: #000000; stroke-linecap: round"/>
    <path d="M 158.528491 182.223351 
L 154.902624 179.605511 
L 159.172416 178.275521 
z
" clip-path="url(#p8c56f912a6)" style="stroke: #000000; stroke-linecap: round"/>
   </g>
   <g id="patch_11">
    <path d="M 367.365916 173.284689 
Q 323.698727 186.222868 281.103508 198.843433 
" clip-path="url(#p8c56f912a6)" style="fill: none; stroke: #000000; stroke-linecap: round"/>
    <path d="M 285.506873 199.624698 
L 281.103508 198.843433 
L 284.370539 195.7895 
z
" clip-path="url(#p8c56f912a6)" style="stroke: #000000; stroke-linecap: round"/>
   </g>
   <g id="patch_12">
    <path d="M 367.365916 173.284689 
Q 323.698727 186.222868 281.103508 198.843433 
" clip-path="url(#p8c56f912a6)" style="fill: none; stroke: #000000; stroke-linecap: round"/>
    <path d="M 285.506873 199.624698 
L 281.103508 198.843433 
L 284.370539 195.7895 
z
" clip-path="url(#p8c56f912a6)" style="stroke: #000000; stroke-linecap: round"/>
   </g>
   <g id="patch_13">
    <path d="M 143.395792 109.218089 
Q 209.98001 153.925083 275.636014 198.008842 
" clip-path="url(#p8c56f912a6)" style="fill: none; stroke: #000000; stroke-linecap: round"/>
    <path d="M 273.430016 194.118653 
L 275.636014 198.008842 
L 271.200264 197.439527 
z
" clip-path="url(#p8c56f912a6)" style="stroke: #000000; stroke-linecap: round"/>
   </g>
   <g id="patch_14">
    <path d="M 142.060288 110.057065 
Q 146.838642 143.626702 151.459441 176.089462 
" clip-path="url(#p8c56f912a6)" style="fill: none; stroke: #000000; stroke-linecap: round"/>
    <path d="M 152.875799 171.847536 
L 151.459441 176.089462 
L 148.915715 172.411221 
z
" clip-path="url(#p8c56f912a6)" style="stroke: #000000; stroke-linecap: round"/>
   </g>
   <g id="patch_15">
    <path d="M 140.249305 106.957453 
Q 90.887573 69.064506 42.412695 31.852359 
" clip-path="url(#p8c56f912a6)" style="fill: none; stroke: #000000; stroke-linecap: round"/>
    <path d="M 44.367747 35.874519 
L 42.412695 31.852359 
L 46.803454 32.701614 
z
" clip-path="url(#p8c56f912a6)" style="stroke: #000000; stroke-linecap: round"/>
   </g>
   <g id="patch_16">
    <path d="M 41.524593 31.1706 
Q 90.886325 69.063548 139.361204 106.275694 
" clip-path="url(#p8c56f912a6)" style="fill: none; stroke: #000000; stroke-linecap: round"/>
    <path d="M 137.406152 102.253534 
L 139.361204 106.275694 
L 134.970444 105.42644 
z
" clip-path="url(#p8c56f912a6)" style="stroke: #000000; stroke-linecap: round"/>
   </g>
   <g id="patch_17">
    <path d="M 418.989295 249.970982 
Q 349.494059 225.167362 281.051799 200.739561 
" clip-path="url(#p8c56f912a6)" style="fill: none; stroke: #000000; stroke-linecap: round"/>
    <path d="M 284.146758 203.967754 
L 281.051799 200.739561 
L 285.491329 200.20051 
z
" clip-path="url(#p8c56f912a6)" style="stroke: #000000; stroke-linecap: round"/>
   </g>
   <g id="patch_18">
    <path d="M 316.490073 313.774252 
Q 297.639379 257.660286 279.144721 202.606151 
" clip-path="url(#p8c56f912a6)" style="fill: none; stroke: #000000; stroke-linecap: round"/>
    <path d="M 278.522628 207.034808 
L 279.144721 202.606151 
L 282.314391 205.761019 
z
" clip-path="url(#p8c56f912a6)" style="stroke: #000000; stroke-linecap: round"/>
   </g>
   <g id="patch_19">
    <path d="M 193.976801 294.577438 
Q 235.43097 247.869874 276.142995 201.998506 
" clip-path="url(#p8c56f912a6)" style="fill: none; stroke: #000000; stroke-linecap: round"/>
    <path d="M 271.991988 203.662579 
L 276.142995 201.998506 
L 274.983649 206.317756 
z
" clip-path="url(#p8c56f912a6)" style="stroke: #000000; stroke-linecap: round"/>
   </g>
   <g id="patch_20">
    <path d="M 153.797624 179.425276 
Q 215.03043 189.412876 275.159784 199.220494 
" clip-path="url(#p8c56f912a6)" style="fill: none; stroke: #000000; stroke-linecap: round"/>
    <path d="M 271.533917 196.602654 
L 275.159784 199.220494 
L 270.889992 200.550484 
z
" clip-path="url(#p8c56f912a6)" style="stroke: #000000; stroke-linecap: round"/>
   </g>
   <g id="patch_21">
    <path d="M 151.616809 177.195028 
Q 146.838456 143.625391 142.217656 111.162631 
" clip-path="url(#p8c56f912a6)" style="fill: none; stroke: #000000; stroke-linecap: round"/>
    <path d="M 140.801299 115.404556 
L 142.217656 111.162631 
L 144.761382 114.840872 
z
" clip-path="url(#p8c56f912a6)" style="stroke: #000000; stroke-linecap: round"/>
   </g>
   <g id="PathCollection_1">
    <defs>
     <path id="m1e39cd858f" d="M 0 1.936492 
C 0.513564 1.936492 1.006162 1.732451 1.369306 1.369306 
C 1.732451 1.006162 1.936492 0.513564 1.936492 0 
C 1.936492 -0.513564 1.732451 -1.006162 1.369306 -1.369306 
C 1.006162 -1.732451 0.513564 -1.936492 0 -1.936492 
C -0.513564 -1.936492 -1.006162 -1.732451 -1.369306 -1.369306 
C -1.732451 -1.006162 -1.936492 -0.513564 -1.936492 0 
C -1.936492 0.513564 -1.732451 1.006162 -1.369306 1.369306 
C -1.006162 1.732451 -0.513564 1.936492 0 1.936492 
z
" style="stroke: #1f78b4"/>
    </defs>
    <g clip-path="url(#p8c56f912a6)">
     <use xlink:href="#m1e39cd858f" x="340.273162" y="87.660156" style="fill: #1f78b4; stroke: #1f78b4"/>
     <use xlink:href="#m1e39cd858f" x="278.172432" y="199.711883" style="fill: #1f78b4; stroke: #1f78b4"/>
     <use xlink:href="#m1e39cd858f" x="369.224866" y="172.7339" style="fill: #1f78b4; stroke: #1f78b4"/>
     <use xlink:href="#m1e39cd858f" x="141.787122" y="108.137971" style="fill: #1f78b4; stroke: #1f78b4"/>
     <use xlink:href="#m1e39cd858f" x="39.986777" y="29.990083" style="fill: #1f78b4; stroke: #1f78b4"/>
     <use xlink:href="#m1e39cd858f" x="420.813223" y="250.621962" style="fill: #1f78b4; stroke: #1f78b4"/>
     <use xlink:href="#m1e39cd858f" x="317.106738" y="315.609917" style="fill: #1f78b4; stroke: #1f78b4"/>
     <use xlink:href="#m1e39cd858f" x="192.690715" y="296.026507" style="fill: #1f78b4; stroke: #1f78b4"/>
     <use xlink:href="#m1e39cd858f" x="151.889976" y="179.114122" style="fill: #1f78b4; stroke: #1f78b4"/>
    </g>
   </g>
   <g id="text_1">
    <g clip-path="url(#p8c56f912a6)">
     <!-- 0 -->
     <g transform="translate(337.091912 90.419531) scale(0.1 -0.1)">
      <defs>
       <path id="DejaVuSans-30" d="M 2034 4250 
Q 1547 4250 1301 3770 
Q 1056 3291 1056 2328 
Q 1056 1369 1301 889 
Q 1547 409 2034 409 
Q 2525 409 2770 889 
Q 3016 1369 3016 2328 
Q 3016 3291 2770 3770 
Q 2525 4250 2034 4250 
z
M 2034 4750 
Q 2819 4750 3233 4129 
Q 3647 3509 3647 2328 
Q 3647 1150 3233 529 
Q 2819 -91 2034 -91 
Q 1250 -91 836 529 
Q 422 1150 422 2328 
Q 422 3509 836 4129 
Q 1250 4750 2034 4750 
z
" transform="scale(0.015625)"/>
      </defs>
      <use xlink:href="#DejaVuSans-30"/>
     </g>
    </g>
   </g>
   <g id="text_2">
    <g clip-path="url(#p8c56f912a6)">
     <!-- 1 -->
     <g transform="translate(274.991182 202.471258) scale(0.1 -0.1)">
      <defs>
       <path id="DejaVuSans-31" d="M 794 531 
L 1825 531 
L 1825 4091 
L 703 3866 
L 703 4441 
L 1819 4666 
L 2450 4666 
L 2450 531 
L 3481 531 
L 3481 0 
L 794 0 
L 794 531 
z
" transform="scale(0.015625)"/>
      </defs>
      <use xlink:href="#DejaVuSans-31"/>
     </g>
    </g>
   </g>
   <g id="text_3">
    <g clip-path="url(#p8c56f912a6)">
     <!-- 2 -->
     <g transform="translate(366.043616 175.493275) scale(0.1 -0.1)">
      <defs>
       <path id="DejaVuSans-32" d="M 1228 531 
L 3431 531 
L 3431 0 
L 469 0 
L 469 531 
Q 828 903 1448 1529 
Q 2069 2156 2228 2338 
Q 2531 2678 2651 2914 
Q 2772 3150 2772 3378 
Q 2772 3750 2511 3984 
Q 2250 4219 1831 4219 
Q 1534 4219 1204 4116 
Q 875 4013 500 3803 
L 500 4441 
Q 881 4594 1212 4672 
Q 1544 4750 1819 4750 
Q 2544 4750 2975 4387 
Q 3406 4025 3406 3419 
Q 3406 3131 3298 2873 
Q 3191 2616 2906 2266 
Q 2828 2175 2409 1742 
Q 1991 1309 1228 531 
z
" transform="scale(0.015625)"/>
      </defs>
      <use xlink:href="#DejaVuSans-32"/>
     </g>
    </g>
   </g>
   <g id="text_4">
    <g clip-path="url(#p8c56f912a6)">
     <!-- 3 -->
     <g transform="translate(138.605872 110.897346) scale(0.1 -0.1)">
      <defs>
       <path id="DejaVuSans-33" d="M 2597 2516 
Q 3050 2419 3304 2112 
Q 3559 1806 3559 1356 
Q 3559 666 3084 287 
Q 2609 -91 1734 -91 
Q 1441 -91 1130 -33 
Q 819 25 488 141 
L 488 750 
Q 750 597 1062 519 
Q 1375 441 1716 441 
Q 2309 441 2620 675 
Q 2931 909 2931 1356 
Q 2931 1769 2642 2001 
Q 2353 2234 1838 2234 
L 1294 2234 
L 1294 2753 
L 1863 2753 
Q 2328 2753 2575 2939 
Q 2822 3125 2822 3475 
Q 2822 3834 2567 4026 
Q 2313 4219 1838 4219 
Q 1578 4219 1281 4162 
Q 984 4106 628 3988 
L 628 4550 
Q 988 4650 1302 4700 
Q 1616 4750 1894 4750 
Q 2613 4750 3031 4423 
Q 3450 4097 3450 3541 
Q 3450 3153 3228 2886 
Q 3006 2619 2597 2516 
z
" transform="scale(0.015625)"/>
      </defs>
      <use xlink:href="#DejaVuSans-33"/>
     </g>
    </g>
   </g>
   <g id="text_5">
    <g clip-path="url(#p8c56f912a6)">
     <!-- 4 -->
     <g transform="translate(36.805527 32.749458) scale(0.1 -0.1)">
      <defs>
       <path id="DejaVuSans-34" d="M 2419 4116 
L 825 1625 
L 2419 1625 
L 2419 4116 
z
M 2253 4666 
L 3047 4666 
L 3047 1625 
L 3713 1625 
L 3713 1100 
L 3047 1100 
L 3047 0 
L 2419 0 
L 2419 1100 
L 313 1100 
L 313 1709 
L 2253 4666 
z
" transform="scale(0.015625)"/>
      </defs>
      <use xlink:href="#DejaVuSans-34"/>
     </g>
    </g>
   </g>
   <g id="text_6">
    <g clip-path="url(#p8c56f912a6)">
     <!-- 5 -->
     <g transform="translate(417.631973 253.381337) scale(0.1 -0.1)">
      <defs>
       <path id="DejaVuSans-35" d="M 691 4666 
L 3169 4666 
L 3169 4134 
L 1269 4134 
L 1269 2991 
Q 1406 3038 1543 3061 
Q 1681 3084 1819 3084 
Q 2600 3084 3056 2656 
Q 3513 2228 3513 1497 
Q 3513 744 3044 326 
Q 2575 -91 1722 -91 
Q 1428 -91 1123 -41 
Q 819 9 494 109 
L 494 744 
Q 775 591 1075 516 
Q 1375 441 1709 441 
Q 2250 441 2565 725 
Q 2881 1009 2881 1497 
Q 2881 1984 2565 2268 
Q 2250 2553 1709 2553 
Q 1456 2553 1204 2497 
Q 953 2441 691 2322 
L 691 4666 
z
" transform="scale(0.015625)"/>
      </defs>
      <use xlink:href="#DejaVuSans-35"/>
     </g>
    </g>
   </g>
   <g id="text_7">
    <g clip-path="url(#p8c56f912a6)">
     <!-- 6 -->
     <g transform="translate(313.925488 318.369292) scale(0.1 -0.1)">
      <defs>
       <path id="DejaVuSans-36" d="M 2113 2584 
Q 1688 2584 1439 2293 
Q 1191 2003 1191 1497 
Q 1191 994 1439 701 
Q 1688 409 2113 409 
Q 2538 409 2786 701 
Q 3034 994 3034 1497 
Q 3034 2003 2786 2293 
Q 2538 2584 2113 2584 
z
M 3366 4563 
L 3366 3988 
Q 3128 4100 2886 4159 
Q 2644 4219 2406 4219 
Q 1781 4219 1451 3797 
Q 1122 3375 1075 2522 
Q 1259 2794 1537 2939 
Q 1816 3084 2150 3084 
Q 2853 3084 3261 2657 
Q 3669 2231 3669 1497 
Q 3669 778 3244 343 
Q 2819 -91 2113 -91 
Q 1303 -91 875 529 
Q 447 1150 447 2328 
Q 447 3434 972 4092 
Q 1497 4750 2381 4750 
Q 2619 4750 2861 4703 
Q 3103 4656 3366 4563 
z
" transform="scale(0.015625)"/>
      </defs>
      <use xlink:href="#DejaVuSans-36"/>
     </g>
    </g>
   </g>
   <g id="text_8">
    <g clip-path="url(#p8c56f912a6)">
     <!-- 7 -->
     <g transform="translate(189.509465 298.785882) scale(0.1 -0.1)">
      <defs>
       <path id="DejaVuSans-37" d="M 525 4666 
L 3525 4666 
L 3525 4397 
L 1831 0 
L 1172 0 
L 2766 4134 
L 525 4134 
L 525 4666 
z
" transform="scale(0.015625)"/>
      </defs>
      <use xlink:href="#DejaVuSans-37"/>
     </g>
    </g>
   </g>
   <g id="text_9">
    <g clip-path="url(#p8c56f912a6)">
     <!-- 8 -->
     <g transform="translate(148.708726 181.873497) scale(0.1 -0.1)">
      <defs>
       <path id="DejaVuSans-38" d="M 2034 2216 
Q 1584 2216 1326 1975 
Q 1069 1734 1069 1313 
Q 1069 891 1326 650 
Q 1584 409 2034 409 
Q 2484 409 2743 651 
Q 3003 894 3003 1313 
Q 3003 1734 2745 1975 
Q 2488 2216 2034 2216 
z
M 1403 2484 
Q 997 2584 770 2862 
Q 544 3141 544 3541 
Q 544 4100 942 4425 
Q 1341 4750 2034 4750 
Q 2731 4750 3128 4425 
Q 3525 4100 3525 3541 
Q 3525 3141 3298 2862 
Q 3072 2584 2669 2484 
Q 3125 2378 3379 2068 
Q 3634 1759 3634 1313 
Q 3634 634 3220 271 
Q 2806 -91 2034 -91 
Q 1263 -91 848 271 
Q 434 634 434 1313 
Q 434 1759 690 2068 
Q 947 2378 1403 2484 
z
M 1172 3481 
Q 1172 3119 1398 2916 
Q 1625 2713 2034 2713 
Q 2441 2713 2670 2916 
Q 2900 3119 2900 3481 
Q 2900 3844 2670 4047 
Q 2441 4250 2034 4250 
Q 1625 4250 1398 4047 
Q 1172 3844 1172 3481 
z
" transform="scale(0.015625)"/>
      </defs>
      <use xlink:href="#DejaVuSans-38"/>
     </g>
    </g>
   </g>
  </g>
 </g>
 <defs>
  <clipPath id="p8c56f912a6">
   <rect x="0" y="0" width="460.8" height="345.6"/>
  </clipPath>
 </defs>
</svg>
