<?xml version="1.0" encoding="utf-8" standalone="no"?>
<!DOCTYPE svg PUBLIC "-//W3C//DTD SVG 1.1//EN"
  "http://www.w3.org/Graphics/SVG/1.1/DTD/svg11.dtd">
<svg xmlns:xlink="http://www.w3.org/1999/xlink" width="460.8pt" height="345.6pt" viewBox="0 0 460.8 345.6" xmlns="http://www.w3.org/2000/svg" version="1.1">
 <metadata>
  <rdf:RDF xmlns:dc="http://purl.org/dc/elements/1.1/" xmlns:cc="http://creativecommons.org/ns#" xmlns:rdf="http://www.w3.org/1999/02/22-rdf-syntax-ns#">
   <cc:Work>
    <dc:type rdf:resource="http://purl.org/dc/dcmitype/StillImage"/>
    <dc:date>2024-02-28T11:18:23.571473</dc:date>
    <dc:format>image/svg+xml</dc:format>
    <dc:creator>
     <cc:Agent>
      <dc:title>Matplotlib v3.8.0, https://matplotlib.org/</dc:title>
     </cc:Agent>
    </dc:creator>
   </cc:Work>
  </rdf:RDF>
 </metadata>
 <defs>
  <style type="text/css">*{stroke-linejoin: round; stroke-linecap: butt}</style>
 </defs>
 <g id="figure_1">
  <g id="patch_1">
   <path d="M 0 345.6 
L 460.8 345.6 
L 460.8 0 
L 0 0 
z
" style="fill: #ffffff"/>
  </g>
  <g id="axes_1">
   <g id="patch_2">
    <path d="M 350.156247 31.64133 
Q 319.476333 81.719383 289.38048 130.844089 
" clip-path="url(#p3e101c75e6)" style="fill: none; stroke: #000000; stroke-linecap: round"/>
    <path d="M 293.175482 128.478087 
L 289.38048 130.844089 
L 289.76468 126.388487 
z
" clip-path="url(#p3e101c75e6)" style="stroke: #000000; stroke-linecap: round"/>
   </g>
   <g id="patch_3">
    <path d="M 241.2818 44.471445 
Q 264.084585 88.099914 286.36949 130.737526 
" clip-path="url(#p3e101c75e6)" style="fill: none; stroke: #000000; stroke-linecap: round"/>
    <path d="M 286.289166 126.266111 
L 286.36949 130.737526 
L 282.744163 128.118936 
z
" clip-path="url(#p3e101c75e6)" style="stroke: #000000; stroke-linecap: round"/>
   </g>
   <g id="patch_4">
    <path d="M 314.690356 299.874747 
Q 293.966173 307.411475 274.292701 314.566093 
" clip-path="url(#p3e101c75e6)" style="fill: none; stroke: #000000; stroke-linecap: round"/>
    <path d="M 278.735375 315.078582 
L 274.292701 314.566093 
L 277.368297 311.319447 
z
" clip-path="url(#p3e101c75e6)" style="stroke: #000000; stroke-linecap: round"/>
   </g>
   <g id="patch_5">
    <path d="M 315.289398 297.708535 
Q 284.00916 259.127327 253.433038 221.414579 
" clip-path="url(#p3e101c75e6)" style="fill: none; stroke: #000000; stroke-linecap: round"/>
    <path d="M 254.39861 225.781233 
L 253.433038 221.414579 
L 257.505705 223.262114 
z
" clip-path="url(#p3e101c75e6)" style="stroke: #000000; stroke-linecap: round"/>
   </g>
   <g id="patch_6">
    <path d="M 418.917354 106.432755 
Q 354.297965 119.744995 290.773615 132.831647 
" clip-path="url(#p3e101c75e6)" style="fill: none; stroke: #000000; stroke-linecap: round"/>
    <path d="M 295.09489 133.98342 
L 290.773615 132.831647 
L 294.287798 130.065691 
z
" clip-path="url(#p3e101c75e6)" style="stroke: #000000; stroke-linecap: round"/>
   </g>
   <g id="patch_7">
    <path d="M 323.58752 164.341198 
Q 306.419742 149.526817 290.098418 135.442857 
" clip-path="url(#p3e101c75e6)" style="fill: none; stroke: #000000; stroke-linecap: round"/>
    <path d="M 291.82017 139.570274 
L 290.098418 135.442857 
L 294.433403 136.541905 
z
" clip-path="url(#p3e101c75e6)" style="stroke: #000000; stroke-linecap: round"/>
   </g>
   <g id="patch_8">
    <path d="M 323.58752 164.341198 
Q 306.419742 149.526817 290.098418 135.442857 
" clip-path="url(#p3e101c75e6)" style="fill: none; stroke: #000000; stroke-linecap: round"/>
    <path d="M 291.82017 139.570274 
L 290.098418 135.442857 
L 294.433403 136.541905 
z
" clip-path="url(#p3e101c75e6)" style="stroke: #000000; stroke-linecap: round"/>
   </g>
   <g id="patch_9">
    <path d="M 323.58752 164.341198 
Q 306.419742 149.526817 290.098418 135.442857 
" clip-path="url(#p3e101c75e6)" style="fill: none; stroke: #000000; stroke-linecap: round"/>
    <path d="M 291.82017 139.570274 
L 290.098418 135.442857 
L 294.433403 136.541905 
z
" clip-path="url(#p3e101c75e6)" style="stroke: #000000; stroke-linecap: round"/>
   </g>
   <g id="patch_10">
    <path d="M 363.469858 93.072698 
Q 326.481219 112.804668 290.47903 132.010408 
" clip-path="url(#p3e101c75e6)" style="fill: none; stroke: #000000; stroke-linecap: round"/>
    <path d="M 294.949606 131.892319 
L 290.47903 132.010408 
L 293.066904 128.363093 
z
" clip-path="url(#p3e101c75e6)" style="stroke: #000000; stroke-linecap: round"/>
   </g>
   <g id="patch_11">
    <path d="M 363.569553 91.087543 
Q 340.648563 75.774156 318.657221 61.081861 
" clip-path="url(#p3e101c75e6)" style="fill: none; stroke: #000000; stroke-linecap: round"/>
    <path d="M 320.872185 64.966952 
L 318.657221 61.081861 
L 323.094273 61.640944 
z
" clip-path="url(#p3e101c75e6)" style="stroke: #000000; stroke-linecap: round"/>
   </g>
   <g id="patch_12">
    <path d="M 366.079985 93.87539 
Q 379.153726 118.698075 391.70646 142.531543 
" clip-path="url(#p3e101c75e6)" style="fill: none; stroke: #000000; stroke-linecap: round"/>
    <path d="M 391.612018 138.060404 
L 391.70646 142.531543 
L 388.072884 139.924413 
z
" clip-path="url(#p3e101c75e6)" style="stroke: #000000; stroke-linecap: round"/>
   </g>
   <g id="patch_13">
    <path d="M 317.728145 60.46115 
Q 340.649134 75.774537 362.640476 90.466832 
" clip-path="url(#p3e101c75e6)" style="fill: none; stroke: #000000; stroke-linecap: round"/>
    <path d="M 360.425512 86.581741 
L 362.640476 90.466832 
L 358.203424 89.907749 
z
" clip-path="url(#p3e101c75e6)" style="stroke: #000000; stroke-linecap: round"/>
   </g>
   <g id="patch_14">
    <path d="M 315.426761 61.199558 
Q 301.952932 96.417189 288.878609 130.5906 
" clip-path="url(#p3e101c75e6)" style="fill: none; stroke: #000000; stroke-linecap: round"/>
    <path d="M 292.175881 127.569343 
L 288.878609 130.5906 
L 288.439966 126.140028 
z
" clip-path="url(#p3e101c75e6)" style="stroke: #000000; stroke-linecap: round"/>
   </g>
   <g id="patch_15">
    <path d="M 392.228045 143.521858 
Q 379.154304 118.699172 366.601569 94.865705 
" clip-path="url(#p3e101c75e6)" style="fill: none; stroke: #000000; stroke-linecap: round"/>
    <path d="M 366.696012 99.336844 
L 366.601569 94.865705 
L 370.235146 97.472834 
z
" clip-path="url(#p3e101c75e6)" style="stroke: #000000; stroke-linecap: round"/>
   </g>
   <g id="patch_16">
    <path d="M 391.204877 145.01999 
Q 340.456329 139.341129 290.81888 133.786601 
" clip-path="url(#p3e101c75e6)" style="fill: none; stroke: #000000; stroke-linecap: round"/>
    <path d="M 294.571653 136.219027 
L 290.81888 133.786601 
L 295.016485 132.243838 
z
" clip-path="url(#p3e101c75e6)" style="stroke: #000000; stroke-linecap: round"/>
   </g>
   <g id="patch_17">
    <path d="M 80.048343 255.99918 
Q 65.419136 244.472531 51.668118 233.637825 
" clip-path="url(#p3e101c75e6)" style="fill: none; stroke: #000000; stroke-linecap: round"/>
    <path d="M 53.572237 237.684346 
L 51.668118 233.637825 
L 56.047806 234.542443 
z
" clip-path="url(#p3e101c75e6)" style="stroke: #000000; stroke-linecap: round"/>
   </g>
   <g id="patch_18">
    <path d="M 82.975586 255.868705 
Q 119.058418 221.815597 154.328141 188.529858 
" clip-path="url(#p3e101c75e6)" style="fill: none; stroke: #000000; stroke-linecap: round"/>
    <path d="M 150.046366 189.820749 
L 154.328141 188.529858 
L 152.791789 192.729813 
z
" clip-path="url(#p3e101c75e6)" style="stroke: #000000; stroke-linecap: round"/>
   </g>
   <g id="patch_19">
    <path d="M 273.241432 314.948406 
Q 293.965615 307.411678 313.639088 300.25706 
" clip-path="url(#p3e101c75e6)" style="fill: none; stroke: #000000; stroke-linecap: round"/>
    <path d="M 309.196414 299.74457 
L 313.639088 300.25706 
L 310.563492 303.503706 
z
" clip-path="url(#p3e101c75e6)" style="stroke: #000000; stroke-linecap: round"/>
   </g>
   <g id="patch_20">
    <path d="M 271.031668 313.714962 
Q 261.465807 267.327016 252.12575 222.034066 
" clip-path="url(#p3e101c75e6)" style="fill: none; stroke: #000000; stroke-linecap: round"/>
    <path d="M 250.974824 226.355567 
L 252.12575 222.034066 
L 254.892395 225.547707 
z
" clip-path="url(#p3e101c75e6)" style="stroke: #000000; stroke-linecap: round"/>
   </g>
   <g id="patch_21">
    <path d="M 252.728462 220.545551 
Q 284.008699 259.126759 314.584822 296.839507 
" clip-path="url(#p3e101c75e6)" style="fill: none; stroke: #000000; stroke-linecap: round"/>
    <path d="M 313.61925 292.472853 
L 314.584822 296.839507 
L 310.512155 294.991972 
z
" clip-path="url(#p3e101c75e6)" style="stroke: #000000; stroke-linecap: round"/>
   </g>
   <g id="patch_22">
    <path d="M 251.899273 220.935807 
Q 261.465134 267.323752 270.805191 312.616702 
" clip-path="url(#p3e101c75e6)" style="fill: none; stroke: #000000; stroke-linecap: round"/>
    <path d="M 271.956117 308.295202 
L 270.805191 312.616702 
L 268.038546 309.103061 
z
" clip-path="url(#p3e101c75e6)" style="stroke: #000000; stroke-linecap: round"/>
   </g>
   <g id="patch_23">
    <path d="M 252.26465 217.256779 
Q 269.647403 176.243328 286.593867 136.259271 
" clip-path="url(#p3e101c75e6)" style="fill: none; stroke: #000000; stroke-linecap: round"/>
    <path d="M 283.191517 139.161687 
L 286.593867 136.259271 
L 286.874389 140.722601 
z
" clip-path="url(#p3e101c75e6)" style="stroke: #000000; stroke-linecap: round"/>
   </g>
   <g id="patch_24">
    <path d="M 252.26465 217.256779 
Q 269.647403 176.243328 286.593867 136.259271 
" clip-path="url(#p3e101c75e6)" style="fill: none; stroke: #000000; stroke-linecap: round"/>
    <path d="M 283.191517 139.161687 
L 286.593867 136.259271 
L 286.874389 140.722601 
z
" clip-path="url(#p3e101c75e6)" style="stroke: #000000; stroke-linecap: round"/>
   </g>
   <g id="patch_25">
    <path d="M 249.674114 218.410962 
Q 204.028107 202.73714 159.439531 187.426416 
" clip-path="url(#p3e101c75e6)" style="fill: none; stroke: #000000; stroke-linecap: round"/>
    <path d="M 162.573181 190.617065 
L 159.439531 187.426416 
L 163.87224 186.833886 
z
" clip-path="url(#p3e101c75e6)" style="stroke: #000000; stroke-linecap: round"/>
   </g>
   <g id="patch_26">
    <path d="M 249.674114 218.410962 
Q 204.028107 202.73714 159.439531 187.426416 
" clip-path="url(#p3e101c75e6)" style="fill: none; stroke: #000000; stroke-linecap: round"/>
    <path d="M 162.573181 190.617065 
L 159.439531 187.426416 
L 163.87224 186.833886 
z
" clip-path="url(#p3e101c75e6)" style="stroke: #000000; stroke-linecap: round"/>
   </g>
   <g id="patch_27">
    <path d="M 288.797338 131.795937 
Q 319.477252 81.717883 349.573105 32.593178 
" clip-path="url(#p3e101c75e6)" style="fill: none; stroke: #000000; stroke-linecap: round"/>
    <path d="M 345.778104 34.95918 
L 349.573105 32.593178 
L 349.188906 37.04878 
z
" clip-path="url(#p3e101c75e6)" style="stroke: #000000; stroke-linecap: round"/>
   </g>
   <g id="patch_28">
    <path d="M 286.887375 131.728394 
Q 264.08459 88.099925 241.799686 45.462313 
" clip-path="url(#p3e101c75e6)" style="fill: none; stroke: #000000; stroke-linecap: round"/>
    <path d="M 241.88001 49.933728 
L 241.799686 45.462313 
L 245.425012 48.080903 
z
" clip-path="url(#p3e101c75e6)" style="stroke: #000000; stroke-linecap: round"/>
   </g>
   <g id="patch_29">
    <path d="M 289.681584 133.056616 
Q 354.300973 119.744376 417.825324 106.657724 
" clip-path="url(#p3e101c75e6)" style="fill: none; stroke: #000000; stroke-linecap: round"/>
    <path d="M 413.504049 105.505951 
L 417.825324 106.657724 
L 414.31114 109.42368 
z
" clip-path="url(#p3e101c75e6)" style="stroke: #000000; stroke-linecap: round"/>
   </g>
   <g id="patch_30">
    <path d="M 289.252909 134.713252 
Q 306.420687 149.527633 322.742011 163.611593 
" clip-path="url(#p3e101c75e6)" style="fill: none; stroke: #000000; stroke-linecap: round"/>
    <path d="M 321.020259 159.484176 
L 322.742011 163.611593 
L 318.407026 162.512545 
z
" clip-path="url(#p3e101c75e6)" style="stroke: #000000; stroke-linecap: round"/>
   </g>
   <g id="patch_31">
    <path d="M 289.252909 134.713252 
Q 306.420687 149.527633 322.742011 163.611593 
" clip-path="url(#p3e101c75e6)" style="fill: none; stroke: #000000; stroke-linecap: round"/>
    <path d="M 321.020259 159.484176 
L 322.742011 163.611593 
L 318.407026 162.512545 
z
" clip-path="url(#p3e101c75e6)" style="stroke: #000000; stroke-linecap: round"/>
   </g>
   <g id="patch_32">
    <path d="M 289.252909 134.713252 
Q 306.420687 149.527633 322.742011 163.611593 
" clip-path="url(#p3e101c75e6)" style="fill: none; stroke: #000000; stroke-linecap: round"/>
    <path d="M 321.020259 159.484176 
L 322.742011 163.611593 
L 318.407026 162.512545 
z
" clip-path="url(#p3e101c75e6)" style="stroke: #000000; stroke-linecap: round"/>
   </g>
   <g id="patch_33">
    <path d="M 289.493302 132.536254 
Q 326.481941 112.804283 362.484131 93.598544 
" clip-path="url(#p3e101c75e6)" style="fill: none; stroke: #000000; stroke-linecap: round"/>
    <path d="M 358.013554 93.716633 
L 362.484131 93.598544 
L 359.896256 97.245859 
z
" clip-path="url(#p3e101c75e6)" style="stroke: #000000; stroke-linecap: round"/>
   </g>
   <g id="patch_34">
    <path d="M 288.479206 131.634552 
Q 301.953035 96.416921 315.027358 62.24351 
" clip-path="url(#p3e101c75e6)" style="fill: none; stroke: #000000; stroke-linecap: round"/>
    <path d="M 311.730086 65.264767 
L 315.027358 62.24351 
L 315.466001 66.694082 
z
" clip-path="url(#p3e101c75e6)" style="stroke: #000000; stroke-linecap: round"/>
   </g>
   <g id="patch_35">
    <path d="M 289.711422 133.662675 
Q 340.45997 139.341536 390.097419 144.896063 
" clip-path="url(#p3e101c75e6)" style="fill: none; stroke: #000000; stroke-linecap: round"/>
    <path d="M 386.344646 142.463638 
L 390.097419 144.896063 
L 385.899815 146.438826 
z
" clip-path="url(#p3e101c75e6)" style="stroke: #000000; stroke-linecap: round"/>
   </g>
   <g id="patch_36">
    <path d="M 287.029571 135.231256 
Q 269.646818 176.244707 252.700354 216.228764 
" clip-path="url(#p3e101c75e6)" style="fill: none; stroke: #000000; stroke-linecap: round"/>
    <path d="M 256.102704 213.326348 
L 252.700354 216.228764 
L 252.419832 211.765434 
z
" clip-path="url(#p3e101c75e6)" style="stroke: #000000; stroke-linecap: round"/>
   </g>
   <g id="patch_37">
    <path d="M 287.029571 135.231256 
Q 269.646818 176.244707 252.700354 216.228764 
" clip-path="url(#p3e101c75e6)" style="fill: none; stroke: #000000; stroke-linecap: round"/>
    <path d="M 256.102704 213.326348 
L 252.700354 216.228764 
L 252.419832 211.765434 
z
" clip-path="url(#p3e101c75e6)" style="stroke: #000000; stroke-linecap: round"/>
   </g>
   <g id="patch_38">
    <path d="M 285.987459 134.173229 
Q 222.166909 159.940725 159.383081 185.289645 
" clip-path="url(#p3e101c75e6)" style="fill: none; stroke: #000000; stroke-linecap: round"/>
    <path d="M 163.840945 185.646648 
L 159.383081 185.289645 
L 162.343402 181.937556 
z
" clip-path="url(#p3e101c75e6)" style="stroke: #000000; stroke-linecap: round"/>
   </g>
   <g id="patch_39">
    <path d="M 285.987459 134.173229 
Q 222.166909 159.940725 159.383081 185.289645 
" clip-path="url(#p3e101c75e6)" style="fill: none; stroke: #000000; stroke-linecap: round"/>
    <path d="M 163.840945 185.646648 
L 159.383081 185.289645 
L 162.343402 181.937556 
z
" clip-path="url(#p3e101c75e6)" style="stroke: #000000; stroke-linecap: round"/>
   </g>
   <g id="patch_40">
    <path d="M 41.918335 180.849544 
Q 98.266422 183.594594 153.497799 186.285242 
" clip-path="url(#p3e101c75e6)" style="fill: none; stroke: #000000; stroke-linecap: round"/>
    <path d="M 149.599853 184.092978 
L 153.497799 186.285242 
L 149.40522 188.08824 
z
" clip-path="url(#p3e101c75e6)" style="stroke: #000000; stroke-linecap: round"/>
   </g>
   <g id="patch_41">
    <path d="M 58.527417 134.892217 
Q 106.681198 160.212408 153.845408 185.012264 
" clip-path="url(#p3e101c75e6)" style="fill: none; stroke: #000000; stroke-linecap: round"/>
    <path d="M 151.235816 181.380456 
L 153.845408 185.012264 
L 149.374207 184.920853 
z
" clip-path="url(#p3e101c75e6)" style="stroke: #000000; stroke-linecap: round"/>
   </g>
   <g id="patch_42">
    <path d="M 108.587428 107.422373 
Q 132.065463 146.099869 154.963349 183.821631 
" clip-path="url(#p3e101c75e6)" style="fill: none; stroke: #000000; stroke-linecap: round"/>
    <path d="M 154.59741 179.364492 
L 154.963349 183.821631 
L 151.178074 181.440099 
z
" clip-path="url(#p3e101c75e6)" style="stroke: #000000; stroke-linecap: round"/>
   </g>
   <g id="patch_43">
    <path d="M 155.14178 187.761987 
Q 119.058949 221.815095 83.789226 255.100834 
" clip-path="url(#p3e101c75e6)" style="fill: none; stroke: #000000; stroke-linecap: round"/>
    <path d="M 88.071001 253.809942 
L 83.789226 255.100834 
L 85.325578 250.900879 
z
" clip-path="url(#p3e101c75e6)" style="stroke: #000000; stroke-linecap: round"/>
   </g>
   <g id="patch_44">
    <path d="M 158.383433 187.063776 
Q 204.02944 202.737597 248.618016 218.048321 
" clip-path="url(#p3e101c75e6)" style="fill: none; stroke: #000000; stroke-linecap: round"/>
    <path d="M 245.484367 214.857672 
L 248.618016 218.048321 
L 244.185308 218.640851 
z
" clip-path="url(#p3e101c75e6)" style="stroke: #000000; stroke-linecap: round"/>
   </g>
   <g id="patch_45">
    <path d="M 158.383433 187.063776 
Q 204.02944 202.737597 248.618016 218.048321 
" clip-path="url(#p3e101c75e6)" style="fill: none; stroke: #000000; stroke-linecap: round"/>
    <path d="M 245.484367 214.857672 
L 248.618016 218.048321 
L 244.185308 218.640851 
z
" clip-path="url(#p3e101c75e6)" style="stroke: #000000; stroke-linecap: round"/>
   </g>
   <g id="patch_46">
    <path d="M 158.347298 185.707842 
Q 222.167848 159.940346 284.951675 134.591425 
" clip-path="url(#p3e101c75e6)" style="fill: none; stroke: #000000; stroke-linecap: round"/>
    <path d="M 280.493812 134.234422 
L 284.951675 134.591425 
L 281.991355 137.943515 
z
" clip-path="url(#p3e101c75e6)" style="stroke: #000000; stroke-linecap: round"/>
   </g>
   <g id="patch_47">
    <path d="M 158.347298 185.707842 
Q 222.167848 159.940346 284.951675 134.591425 
" clip-path="url(#p3e101c75e6)" style="fill: none; stroke: #000000; stroke-linecap: round"/>
    <path d="M 280.493812 134.234422 
L 284.951675 134.591425 
L 281.991355 137.943515 
z
" clip-path="url(#p3e101c75e6)" style="stroke: #000000; stroke-linecap: round"/>
   </g>
   <g id="patch_48">
    <path d="M 154.617483 186.339789 
Q 98.269397 183.594739 43.03802 180.90409 
" clip-path="url(#p3e101c75e6)" style="fill: none; stroke: #000000; stroke-linecap: round"/>
    <path d="M 46.935965 183.096354 
L 43.03802 180.90409 
L 47.130598 179.101092 
z
" clip-path="url(#p3e101c75e6)" style="stroke: #000000; stroke-linecap: round"/>
   </g>
   <g id="patch_49">
    <path d="M 154.835451 185.532848 
Q 106.68167 160.212656 59.51746 135.412801 
" clip-path="url(#p3e101c75e6)" style="fill: none; stroke: #000000; stroke-linecap: round"/>
    <path d="M 62.127052 139.044609 
L 59.51746 135.412801 
L 63.988662 135.504212 
z
" clip-path="url(#p3e101c75e6)" style="stroke: #000000; stroke-linecap: round"/>
   </g>
   <g id="patch_50">
    <path d="M 155.543335 184.777094 
Q 132.065299 146.099598 109.167414 108.377836 
" clip-path="url(#p3e101c75e6)" style="fill: none; stroke: #000000; stroke-linecap: round"/>
    <path d="M 109.533353 112.834975 
L 109.167414 108.377836 
L 112.952688 110.759368 
z
" clip-path="url(#p3e101c75e6)" style="stroke: #000000; stroke-linecap: round"/>
   </g>
   <g id="patch_51">
    <path d="M 156.197196 188.337784 
Q 147.932264 233.060796 139.870507 276.684391 
" clip-path="url(#p3e101c75e6)" style="fill: none; stroke: #000000; stroke-linecap: round"/>
    <path d="M 142.564108 273.114445 
L 139.870507 276.684391 
L 138.630711 272.387543 
z
" clip-path="url(#p3e101c75e6)" style="stroke: #000000; stroke-linecap: round"/>
   </g>
   <g id="patch_52">
    <path d="M 154.764738 187.187536 
Q 102.909883 209.089855 52.084959 230.557154 
" clip-path="url(#p3e101c75e6)" style="fill: none; stroke: #000000; stroke-linecap: round"/>
    <path d="M 56.547939 230.843177 
L 52.084959 230.557154 
L 54.991566 227.158384 
z
" clip-path="url(#p3e101c75e6)" style="stroke: #000000; stroke-linecap: round"/>
   </g>
   <g id="patch_53">
    <path d="M 139.667303 277.783967 
Q 147.932235 233.060955 155.993992 189.43736 
" clip-path="url(#p3e101c75e6)" style="fill: none; stroke: #000000; stroke-linecap: round"/>
    <path d="M 153.300391 193.007306 
L 155.993992 189.43736 
L 157.233788 193.734209 
z
" clip-path="url(#p3e101c75e6)" style="stroke: #000000; stroke-linecap: round"/>
   </g>
   <g id="patch_54">
    <path d="M 50.788189 232.944511 
Q 65.417395 244.47116 79.168413 255.305866 
" clip-path="url(#p3e101c75e6)" style="fill: none; stroke: #000000; stroke-linecap: round"/>
    <path d="M 77.264295 251.259345 
L 79.168413 255.305866 
L 74.788725 254.401248 
z
" clip-path="url(#p3e101c75e6)" style="stroke: #000000; stroke-linecap: round"/>
   </g>
   <g id="patch_55">
    <path d="M 51.05251 230.993237 
Q 102.907365 209.090918 153.732289 187.623619 
" clip-path="url(#p3e101c75e6)" style="fill: none; stroke: #000000; stroke-linecap: round"/>
    <path d="M 149.269309 187.337596 
L 153.732289 187.623619 
L 150.825682 191.022389 
z
" clip-path="url(#p3e101c75e6)" style="stroke: #000000; stroke-linecap: round"/>
   </g>
   <g id="PathCollection_1">
    <defs>
     <path id="m00f6dfc2a7" d="M 0 1.936492 
C 0.513564 1.936492 1.006162 1.732451 1.369306 1.369306 
C 1.732451 1.006162 1.936492 0.513564 1.936492 0 
C 1.936492 -0.513564 1.732451 -1.006162 1.369306 -1.369306 
C 1.006162 -1.732451 0.513564 -1.936492 0 -1.936492 
C -0.513564 -1.936492 -1.006162 -1.732451 -1.369306 -1.369306 
C -1.732451 -1.006162 -1.936492 -0.513564 -1.936492 0 
C -1.936492 0.513564 -1.732451 1.006162 -1.369306 1.369306 
C -1.006162 1.732451 -0.513564 1.936492 0 1.936492 
z
" style="stroke: #1f78b4"/>
    </defs>
    <g clip-path="url(#p3e101c75e6)">
     <use xlink:href="#m00f6dfc2a7" x="351.167871" y="29.990083" style="fill: #1f78b4; stroke: #1f78b4"/>
     <use xlink:href="#m00f6dfc2a7" x="240.38346" y="42.752655" style="fill: #1f78b4; stroke: #1f78b4"/>
     <use xlink:href="#m00f6dfc2a7" x="316.509354" y="299.213235" style="fill: #1f78b4; stroke: #1f78b4"/>
     <use xlink:href="#m00f6dfc2a7" x="420.813223" y="106.042187" style="fill: #1f78b4; stroke: #1f78b4"/>
     <use xlink:href="#m00f6dfc2a7" x="325.054714" y="165.607266" style="fill: #1f78b4; stroke: #1f78b4"/>
     <use xlink:href="#m00f6dfc2a7" x="365.177445" y="92.161768" style="fill: #1f78b4; stroke: #1f78b4"/>
     <use xlink:href="#m00f6dfc2a7" x="316.120252" y="59.386925" style="fill: #1f78b4; stroke: #1f78b4"/>
     <use xlink:href="#m00f6dfc2a7" x="393.130584" y="145.23548" style="fill: #1f78b4; stroke: #1f78b4"/>
     <use xlink:href="#m00f6dfc2a7" x="81.568325" y="257.196805" style="fill: #1f78b4; stroke: #1f78b4"/>
     <use xlink:href="#m00f6dfc2a7" x="271.422435" y="315.609917" style="fill: #1f78b4; stroke: #1f78b4"/>
     <use xlink:href="#m00f6dfc2a7" x="251.508506" y="219.040851" style="fill: #1f78b4; stroke: #1f78b4"/>
     <use xlink:href="#m00f6dfc2a7" x="287.785715" y="133.447184" style="fill: #1f78b4; stroke: #1f78b4"/>
     <use xlink:href="#m00f6dfc2a7" x="39.986777" y="180.755446" style="fill: #1f78b4; stroke: #1f78b4"/>
     <use xlink:href="#m00f6dfc2a7" x="56.813827" y="133.991178" style="fill: #1f78b4; stroke: #1f78b4"/>
     <use xlink:href="#m00f6dfc2a7" x="107.581721" y="105.76558" style="fill: #1f78b4; stroke: #1f78b4"/>
     <use xlink:href="#m00f6dfc2a7" x="156.549042" y="186.433887" style="fill: #1f78b4; stroke: #1f78b4"/>
     <use xlink:href="#m00f6dfc2a7" x="139.315457" y="279.687865" style="fill: #1f78b4; stroke: #1f78b4"/>
     <use xlink:href="#m00f6dfc2a7" x="49.268206" y="231.746886" style="fill: #1f78b4; stroke: #1f78b4"/>
    </g>
   </g>
   <g id="text_1">
    <g clip-path="url(#p3e101c75e6)">
     <!-- 0 -->
     <g transform="translate(347.986621 32.749458) scale(0.1 -0.1)">
      <defs>
       <path id="DejaVuSans-30" d="M 2034 4250 
Q 1547 4250 1301 3770 
Q 1056 3291 1056 2328 
Q 1056 1369 1301 889 
Q 1547 409 2034 409 
Q 2525 409 2770 889 
Q 3016 1369 3016 2328 
Q 3016 3291 2770 3770 
Q 2525 4250 2034 4250 
z
M 2034 4750 
Q 2819 4750 3233 4129 
Q 3647 3509 3647 2328 
Q 3647 1150 3233 529 
Q 2819 -91 2034 -91 
Q 1250 -91 836 529 
Q 422 1150 422 2328 
Q 422 3509 836 4129 
Q 1250 4750 2034 4750 
z
" transform="scale(0.015625)"/>
      </defs>
      <use xlink:href="#DejaVuSans-30"/>
     </g>
    </g>
   </g>
   <g id="text_2">
    <g clip-path="url(#p3e101c75e6)">
     <!-- 1 -->
     <g transform="translate(237.20221 45.51203) scale(0.1 -0.1)">
      <defs>
       <path id="DejaVuSans-31" d="M 794 531 
L 1825 531 
L 1825 4091 
L 703 3866 
L 703 4441 
L 1819 4666 
L 2450 4666 
L 2450 531 
L 3481 531 
L 3481 0 
L 794 0 
L 794 531 
z
" transform="scale(0.015625)"/>
      </defs>
      <use xlink:href="#DejaVuSans-31"/>
     </g>
    </g>
   </g>
   <g id="text_3">
    <g clip-path="url(#p3e101c75e6)">
     <!-- 2 -->
     <g transform="translate(313.328104 301.97261) scale(0.1 -0.1)">
      <defs>
       <path id="DejaVuSans-32" d="M 1228 531 
L 3431 531 
L 3431 0 
L 469 0 
L 469 531 
Q 828 903 1448 1529 
Q 2069 2156 2228 2338 
Q 2531 2678 2651 2914 
Q 2772 3150 2772 3378 
Q 2772 3750 2511 3984 
Q 2250 4219 1831 4219 
Q 1534 4219 1204 4116 
Q 875 4013 500 3803 
L 500 4441 
Q 881 4594 1212 4672 
Q 1544 4750 1819 4750 
Q 2544 4750 2975 4387 
Q 3406 4025 3406 3419 
Q 3406 3131 3298 2873 
Q 3191 2616 2906 2266 
Q 2828 2175 2409 1742 
Q 1991 1309 1228 531 
z
" transform="scale(0.015625)"/>
      </defs>
      <use xlink:href="#DejaVuSans-32"/>
     </g>
    </g>
   </g>
   <g id="text_4">
    <g clip-path="url(#p3e101c75e6)">
     <!-- 3 -->
     <g transform="translate(417.631973 108.801562) scale(0.1 -0.1)">
      <defs>
       <path id="DejaVuSans-33" d="M 2597 2516 
Q 3050 2419 3304 2112 
Q 3559 1806 3559 1356 
Q 3559 666 3084 287 
Q 2609 -91 1734 -91 
Q 1441 -91 1130 -33 
Q 819 25 488 141 
L 488 750 
Q 750 597 1062 519 
Q 1375 441 1716 441 
Q 2309 441 2620 675 
Q 2931 909 2931 1356 
Q 2931 1769 2642 2001 
Q 2353 2234 1838 2234 
L 1294 2234 
L 1294 2753 
L 1863 2753 
Q 2328 2753 2575 2939 
Q 2822 3125 2822 3475 
Q 2822 3834 2567 4026 
Q 2313 4219 1838 4219 
Q 1578 4219 1281 4162 
Q 984 4106 628 3988 
L 628 4550 
Q 988 4650 1302 4700 
Q 1616 4750 1894 4750 
Q 2613 4750 3031 4423 
Q 3450 4097 3450 3541 
Q 3450 3153 3228 2886 
Q 3006 2619 2597 2516 
z
" transform="scale(0.015625)"/>
      </defs>
      <use xlink:href="#DejaVuSans-33"/>
     </g>
    </g>
   </g>
   <g id="text_5">
    <g clip-path="url(#p3e101c75e6)">
     <!-- 4 -->
     <g transform="translate(321.873464 168.366641) scale(0.1 -0.1)">
      <defs>
       <path id="DejaVuSans-34" d="M 2419 4116 
L 825 1625 
L 2419 1625 
L 2419 4116 
z
M 2253 4666 
L 3047 4666 
L 3047 1625 
L 3713 1625 
L 3713 1100 
L 3047 1100 
L 3047 0 
L 2419 0 
L 2419 1100 
L 313 1100 
L 313 1709 
L 2253 4666 
z
" transform="scale(0.015625)"/>
      </defs>
      <use xlink:href="#DejaVuSans-34"/>
     </g>
    </g>
   </g>
   <g id="text_6">
    <g clip-path="url(#p3e101c75e6)">
     <!-- 5 -->
     <g transform="translate(361.996195 94.921143) scale(0.1 -0.1)">
      <defs>
       <path id="DejaVuSans-35" d="M 691 4666 
L 3169 4666 
L 3169 4134 
L 1269 4134 
L 1269 2991 
Q 1406 3038 1543 3061 
Q 1681 3084 1819 3084 
Q 2600 3084 3056 2656 
Q 3513 2228 3513 1497 
Q 3513 744 3044 326 
Q 2575 -91 1722 -91 
Q 1428 -91 1123 -41 
Q 819 9 494 109 
L 494 744 
Q 775 591 1075 516 
Q 1375 441 1709 441 
Q 2250 441 2565 725 
Q 2881 1009 2881 1497 
Q 2881 1984 2565 2268 
Q 2250 2553 1709 2553 
Q 1456 2553 1204 2497 
Q 953 2441 691 2322 
L 691 4666 
z
" transform="scale(0.015625)"/>
      </defs>
      <use xlink:href="#DejaVuSans-35"/>
     </g>
    </g>
   </g>
   <g id="text_7">
    <g clip-path="url(#p3e101c75e6)">
     <!-- 6 -->
     <g transform="translate(312.939002 62.1463) scale(0.1 -0.1)">
      <defs>
       <path id="DejaVuSans-36" d="M 2113 2584 
Q 1688 2584 1439 2293 
Q 1191 2003 1191 1497 
Q 1191 994 1439 701 
Q 1688 409 2113 409 
Q 2538 409 2786 701 
Q 3034 994 3034 1497 
Q 3034 2003 2786 2293 
Q 2538 2584 2113 2584 
z
M 3366 4563 
L 3366 3988 
Q 3128 4100 2886 4159 
Q 2644 4219 2406 4219 
Q 1781 4219 1451 3797 
Q 1122 3375 1075 2522 
Q 1259 2794 1537 2939 
Q 1816 3084 2150 3084 
Q 2853 3084 3261 2657 
Q 3669 2231 3669 1497 
Q 3669 778 3244 343 
Q 2819 -91 2113 -91 
Q 1303 -91 875 529 
Q 447 1150 447 2328 
Q 447 3434 972 4092 
Q 1497 4750 2381 4750 
Q 2619 4750 2861 4703 
Q 3103 4656 3366 4563 
z
" transform="scale(0.015625)"/>
      </defs>
      <use xlink:href="#DejaVuSans-36"/>
     </g>
    </g>
   </g>
   <g id="text_8">
    <g clip-path="url(#p3e101c75e6)">
     <!-- 7 -->
     <g transform="translate(389.949334 147.994855) scale(0.1 -0.1)">
      <defs>
       <path id="DejaVuSans-37" d="M 525 4666 
L 3525 4666 
L 3525 4397 
L 1831 0 
L 1172 0 
L 2766 4134 
L 525 4134 
L 525 4666 
z
" transform="scale(0.015625)"/>
      </defs>
      <use xlink:href="#DejaVuSans-37"/>
     </g>
    </g>
   </g>
   <g id="text_9">
    <g clip-path="url(#p3e101c75e6)">
     <!-- 8 -->
     <g transform="translate(78.387075 259.95618) scale(0.1 -0.1)">
      <defs>
       <path id="DejaVuSans-38" d="M 2034 2216 
Q 1584 2216 1326 1975 
Q 1069 1734 1069 1313 
Q 1069 891 1326 650 
Q 1584 409 2034 409 
Q 2484 409 2743 651 
Q 3003 894 3003 1313 
Q 3003 1734 2745 1975 
Q 2488 2216 2034 2216 
z
M 1403 2484 
Q 997 2584 770 2862 
Q 544 3141 544 3541 
Q 544 4100 942 4425 
Q 1341 4750 2034 4750 
Q 2731 4750 3128 4425 
Q 3525 4100 3525 3541 
Q 3525 3141 3298 2862 
Q 3072 2584 2669 2484 
Q 3125 2378 3379 2068 
Q 3634 1759 3634 1313 
Q 3634 634 3220 271 
Q 2806 -91 2034 -91 
Q 1263 -91 848 271 
Q 434 634 434 1313 
Q 434 1759 690 2068 
Q 947 2378 1403 2484 
z
M 1172 3481 
Q 1172 3119 1398 2916 
Q 1625 2713 2034 2713 
Q 2441 2713 2670 2916 
Q 2900 3119 2900 3481 
Q 2900 3844 2670 4047 
Q 2441 4250 2034 4250 
Q 1625 4250 1398 4047 
Q 1172 3844 1172 3481 
z
" transform="scale(0.015625)"/>
      </defs>
      <use xlink:href="#DejaVuSans-38"/>
     </g>
    </g>
   </g>
   <g id="text_10">
    <g clip-path="url(#p3e101c75e6)">
     <!-- 9 -->
     <g transform="translate(268.241185 318.369292) scale(0.1 -0.1)">
      <defs>
       <path id="DejaVuSans-39" d="M 703 97 
L 703 672 
Q 941 559 1184 500 
Q 1428 441 1663 441 
Q 2288 441 2617 861 
Q 2947 1281 2994 2138 
Q 2813 1869 2534 1725 
Q 2256 1581 1919 1581 
Q 1219 1581 811 2004 
Q 403 2428 403 3163 
Q 403 3881 828 4315 
Q 1253 4750 1959 4750 
Q 2769 4750 3195 4129 
Q 3622 3509 3622 2328 
Q 3622 1225 3098 567 
Q 2575 -91 1691 -91 
Q 1453 -91 1209 -44 
Q 966 3 703 97 
z
M 1959 2075 
Q 2384 2075 2632 2365 
Q 2881 2656 2881 3163 
Q 2881 3666 2632 3958 
Q 2384 4250 1959 4250 
Q 1534 4250 1286 3958 
Q 1038 3666 1038 3163 
Q 1038 2656 1286 2365 
Q 1534 2075 1959 2075 
z
" transform="scale(0.015625)"/>
      </defs>
      <use xlink:href="#DejaVuSans-39"/>
     </g>
    </g>
   </g>
   <g id="text_11">
    <g clip-path="url(#p3e101c75e6)">
     <!-- 10 -->
     <g transform="translate(245.146006 221.800226) scale(0.1 -0.1)">
      <use xlink:href="#DejaVuSans-31"/>
      <use xlink:href="#DejaVuSans-30" x="63.623047"/>
     </g>
    </g>
   </g>
   <g id="text_12">
    <g clip-path="url(#p3e101c75e6)">
     <!-- 11 -->
     <g transform="translate(281.423215 136.206559) scale(0.1 -0.1)">
      <use xlink:href="#DejaVuSans-31"/>
      <use xlink:href="#DejaVuSans-31" x="63.623047"/>
     </g>
    </g>
   </g>
   <g id="text_13">
    <g clip-path="url(#p3e101c75e6)">
     <!-- 12 -->
     <g transform="translate(33.624277 183.514821) scale(0.1 -0.1)">
      <use xlink:href="#DejaVuSans-31"/>
      <use xlink:href="#DejaVuSans-32" x="63.623047"/>
     </g>
    </g>
   </g>
   <g id="text_14">
    <g clip-path="url(#p3e101c75e6)">
     <!-- 13 -->
     <g transform="translate(50.451327 136.750553) scale(0.1 -0.1)">
      <use xlink:href="#DejaVuSans-31"/>
      <use xlink:href="#DejaVuSans-33" x="63.623047"/>
     </g>
    </g>
   </g>
   <g id="text_15">
    <g clip-path="url(#p3e101c75e6)">
     <!-- 14 -->
     <g transform="translate(101.219221 108.524955) scale(0.1 -0.1)">
      <use xlink:href="#DejaVuSans-31"/>
      <use xlink:href="#DejaVuSans-34" x="63.623047"/>
     </g>
    </g>
   </g>
   <g id="text_16">
    <g clip-path="url(#p3e101c75e6)">
     <!-- 15 -->
     <g transform="translate(150.186542 189.193262) scale(0.1 -0.1)">
      <use xlink:href="#DejaVuSans-31"/>
      <use xlink:href="#DejaVuSans-35" x="63.623047"/>
     </g>
    </g>
   </g>
   <g id="text_17">
    <g clip-path="url(#p3e101c75e6)">
     <!-- 16 -->
     <g transform="translate(132.952957 282.44724) scale(0.1 -0.1)">
      <use xlink:href="#DejaVuSans-31"/>
      <use xlink:href="#DejaVuSans-36" x="63.623047"/>
     </g>
    </g>
   </g>
   <g id="text_18">
    <g clip-path="url(#p3e101c75e6)">
     <!-- 17 -->
     <g transform="translate(42.905706 234.506261) scale(0.1 -0.1)">
      <use xlink:href="#DejaVuSans-31"/>
      <use xlink:href="#DejaVuSans-37" x="63.623047"/>
     </g>
    </g>
   </g>
  </g>
 </g>
 <defs>
  <clipPath id="p3e101c75e6">
   <rect x="0" y="0" width="460.8" height="345.6"/>
  </clipPath>
 </defs>
</svg>
