<?xml version="1.0" encoding="utf-8" standalone="no"?>
<!DOCTYPE svg PUBLIC "-//W3C//DTD SVG 1.1//EN"
  "http://www.w3.org/Graphics/SVG/1.1/DTD/svg11.dtd">
<svg xmlns:xlink="http://www.w3.org/1999/xlink" width="460.8pt" height="345.6pt" viewBox="0 0 460.8 345.6" xmlns="http://www.w3.org/2000/svg" version="1.1">
 <metadata>
  <rdf:RDF xmlns:dc="http://purl.org/dc/elements/1.1/" xmlns:cc="http://creativecommons.org/ns#" xmlns:rdf="http://www.w3.org/1999/02/22-rdf-syntax-ns#">
   <cc:Work>
    <dc:type rdf:resource="http://purl.org/dc/dcmitype/StillImage"/>
    <dc:date>2024-02-28T11:18:23.998005</dc:date>
    <dc:format>image/svg+xml</dc:format>
    <dc:creator>
     <cc:Agent>
      <dc:title>Matplotlib v3.8.0, https://matplotlib.org/</dc:title>
     </cc:Agent>
    </dc:creator>
   </cc:Work>
  </rdf:RDF>
 </metadata>
 <defs>
  <style type="text/css">*{stroke-linejoin: round; stroke-linecap: butt}</style>
 </defs>
 <g id="figure_1">
  <g id="patch_1">
   <path d="M 0 345.6 
L 460.8 345.6 
L 460.8 0 
L 0 0 
z
" style="fill: #ffffff"/>
  </g>
  <g id="axes_1">
   <g id="patch_2">
    <path d="M 223.719106 307.904948 
Q 211.017893 311.49455 199.392572 314.780084 
" clip-path="url(#p246fc2f571)" style="fill: none; stroke: #000000; stroke-linecap: round"/>
    <path d="M 203.785732 315.616834 
L 199.392572 314.780084 
L 202.697868 311.767606 
z
" clip-path="url(#p246fc2f571)" style="stroke: #000000; stroke-linecap: round"/>
   </g>
   <g id="patch_3">
    <path d="M 225.599757 305.440923 
Q 225.822389 274.259185 226.037038 244.195454 
" clip-path="url(#p246fc2f571)" style="fill: none; stroke: #000000; stroke-linecap: round"/>
    <path d="M 224.008531 248.181072 
L 226.037038 244.195454 
L 228.008429 248.209631 
z
" clip-path="url(#p246fc2f571)" style="stroke: #000000; stroke-linecap: round"/>
   </g>
   <g id="patch_4">
    <path d="M 319.581934 120.810065 
Q 291.86575 144.844047 264.994252 168.145563 
" clip-path="url(#p246fc2f571)" style="fill: none; stroke: #000000; stroke-linecap: round"/>
    <path d="M 269.326566 167.036033 
L 264.994252 168.145563 
L 266.706016 164.013994 
z
" clip-path="url(#p246fc2f571)" style="stroke: #000000; stroke-linecap: round"/>
   </g>
   <g id="patch_5">
    <path d="M 321.455296 117.645317 
Q 326.553692 94.043677 331.416018 71.534863 
" clip-path="url(#p246fc2f571)" style="fill: none; stroke: #000000; stroke-linecap: round"/>
    <path d="M 328.616516 75.022382 
L 331.416018 71.534863 
L 332.526332 75.866976 
z
" clip-path="url(#p246fc2f571)" style="stroke: #000000; stroke-linecap: round"/>
   </g>
   <g id="patch_6">
    <path d="M 322.213038 117.998781 
Q 337.96686 97.187825 353.045877 77.268293 
" clip-path="url(#p246fc2f571)" style="fill: none; stroke: #000000; stroke-linecap: round"/>
    <path d="M 349.036991 79.250422 
L 353.045877 77.268293 
L 352.226248 81.664679 
z
" clip-path="url(#p246fc2f571)" style="stroke: #000000; stroke-linecap: round"/>
   </g>
   <g id="patch_7">
    <path d="M 322.939695 119.140881 
Q 343.176483 114.869476 362.31934 110.828969 
" clip-path="url(#p246fc2f571)" style="fill: none; stroke: #000000; stroke-linecap: round"/>
    <path d="M 357.992529 109.698169 
L 362.31934 110.828969 
L 358.818613 113.611938 
z
" clip-path="url(#p246fc2f571)" style="stroke: #000000; stroke-linecap: round"/>
   </g>
   <g id="patch_8">
    <path d="M 264.151564 168.876296 
Q 291.867748 144.842314 318.739246 121.540798 
" clip-path="url(#p246fc2f571)" style="fill: none; stroke: #000000; stroke-linecap: round"/>
    <path d="M 314.406933 122.650328 
L 318.739246 121.540798 
L 317.027482 125.672367 
z
" clip-path="url(#p246fc2f571)" style="stroke: #000000; stroke-linecap: round"/>
   </g>
   <g id="patch_9">
    <path d="M 260.774718 169.854532 
Q 238.391653 166.446984 217.113888 163.207704 
" clip-path="url(#p246fc2f571)" style="fill: none; stroke: #000000; stroke-linecap: round"/>
    <path d="M 220.767318 165.786938 
L 217.113888 163.207704 
L 221.369333 161.8325 
z
" clip-path="url(#p246fc2f571)" style="stroke: #000000; stroke-linecap: round"/>
   </g>
   <g id="patch_10">
    <path d="M 261.800071 171.866072 
Q 244.373382 205.643922 227.459308 238.428179 
" clip-path="url(#p246fc2f571)" style="fill: none; stroke: #000000; stroke-linecap: round"/>
    <path d="M 231.070687 235.790387 
L 227.459308 238.428179 
L 227.515903 233.956401 
z
" clip-path="url(#p246fc2f571)" style="stroke: #000000; stroke-linecap: round"/>
   </g>
   <g id="patch_11">
    <path d="M 331.651111 70.446563 
Q 326.552715 94.048203 321.690389 116.557017 
" clip-path="url(#p246fc2f571)" style="fill: none; stroke: #000000; stroke-linecap: round"/>
    <path d="M 324.489891 113.069498 
L 321.690389 116.557017 
L 320.580075 112.224904 
z
" clip-path="url(#p246fc2f571)" style="stroke: #000000; stroke-linecap: round"/>
   </g>
   <g id="patch_12">
    <path d="M 333.92502 69.064041 
Q 343.475352 71.690576 351.947675 74.020638 
" clip-path="url(#p246fc2f571)" style="fill: none; stroke: #000000; stroke-linecap: round"/>
    <path d="M 348.621223 71.031538 
L 351.947675 74.020638 
L 347.560524 74.88834 
z
" clip-path="url(#p246fc2f571)" style="stroke: #000000; stroke-linecap: round"/>
   </g>
   <g id="patch_13">
    <path d="M 353.724312 76.372073 
Q 337.97049 97.183029 322.891473 117.102561 
" clip-path="url(#p246fc2f571)" style="fill: none; stroke: #000000; stroke-linecap: round"/>
    <path d="M 326.900359 115.120432 
L 322.891473 117.102561 
L 323.711102 112.706175 
z
" clip-path="url(#p246fc2f571)" style="stroke: #000000; stroke-linecap: round"/>
   </g>
   <g id="patch_14">
    <path d="M 353.026983 74.317469 
Q 343.476651 71.690934 335.004328 69.360872 
" clip-path="url(#p246fc2f571)" style="fill: none; stroke: #000000; stroke-linecap: round"/>
    <path d="M 338.33078 72.349972 
L 335.004328 69.360872 
L 339.391479 68.493171 
z
" clip-path="url(#p246fc2f571)" style="stroke: #000000; stroke-linecap: round"/>
   </g>
   <g id="patch_15">
    <path d="M 356.744827 74.275918 
Q 372.586304 69.537855 387.356632 65.120164 
" clip-path="url(#p246fc2f571)" style="fill: none; stroke: #000000; stroke-linecap: round"/>
    <path d="M 382.951271 64.350233 
L 387.356632 65.120164 
L 384.09747 68.182495 
z
" clip-path="url(#p246fc2f571)" style="stroke: #000000; stroke-linecap: round"/>
   </g>
   <g id="patch_16">
    <path d="M 419.525574 31.434798 
Q 405.547398 47.118023 392.313118 61.966611 
" clip-path="url(#p246fc2f571)" style="fill: none; stroke: #000000; stroke-linecap: round"/>
    <path d="M 396.467606 60.311247 
L 392.313118 61.966611 
L 393.48152 57.649803 
z
" clip-path="url(#p246fc2f571)" style="stroke: #000000; stroke-linecap: round"/>
   </g>
   <g id="patch_17">
    <path d="M 363.414995 110.597708 
Q 343.178207 114.869113 324.035351 118.90962 
" clip-path="url(#p246fc2f571)" style="fill: none; stroke: #000000; stroke-linecap: round"/>
    <path d="M 328.362161 120.04042 
L 324.035351 118.90962 
L 327.536077 116.126651 
z
" clip-path="url(#p246fc2f571)" style="stroke: #000000; stroke-linecap: round"/>
   </g>
   <g id="patch_18">
    <path d="M 366.234041 108.495499 
Q 377.796567 87.219715 388.825231 66.926271 
" clip-path="url(#p246fc2f571)" style="fill: none; stroke: #000000; stroke-linecap: round"/>
    <path d="M 385.157966 69.485796 
L 388.825231 66.926271 
L 388.672491 71.395798 
z
" clip-path="url(#p246fc2f571)" style="stroke: #000000; stroke-linecap: round"/>
   </g>
   <g id="patch_19">
    <path d="M 388.428979 64.799434 
Q 372.587502 69.537497 357.817175 73.955187 
" clip-path="url(#p246fc2f571)" style="fill: none; stroke: #000000; stroke-linecap: round"/>
    <path d="M 362.222536 74.725118 
L 357.817175 73.955187 
L 361.076336 70.892857 
z
" clip-path="url(#p246fc2f571)" style="stroke: #000000; stroke-linecap: round"/>
   </g>
   <g id="patch_20">
    <path d="M 391.569982 62.800394 
Q 405.548159 47.117169 418.782438 32.268581 
" clip-path="url(#p246fc2f571)" style="fill: none; stroke: #000000; stroke-linecap: round"/>
    <path d="M 414.62795 33.923945 
L 418.782438 32.268581 
L 417.614037 36.58539 
z
" clip-path="url(#p246fc2f571)" style="stroke: #000000; stroke-linecap: round"/>
   </g>
   <g id="patch_21">
    <path d="M 389.357106 65.947587 
Q 377.79458 87.223371 366.765916 107.516815 
" clip-path="url(#p246fc2f571)" style="fill: none; stroke: #000000; stroke-linecap: round"/>
    <path d="M 370.433181 104.957291 
L 366.765916 107.516815 
L 366.918655 103.047288 
z
" clip-path="url(#p246fc2f571)" style="stroke: #000000; stroke-linecap: round"/>
   </g>
   <g id="patch_22">
    <path d="M 67.477386 163.641543 
Q 57.810185 187.539854 48.562242 210.401717 
" clip-path="url(#p246fc2f571)" style="fill: none; stroke: #000000; stroke-linecap: round"/>
    <path d="M 51.916276 207.443601 
L 48.562242 210.401717 
L 48.208169 205.94362 
z
" clip-path="url(#p246fc2f571)" style="stroke: #000000; stroke-linecap: round"/>
   </g>
   <g id="patch_23">
    <path d="M 70.124063 162.080349 
Q 89.8354 164.503949 108.43706 166.791109 
" clip-path="url(#p246fc2f571)" style="fill: none; stroke: #000000; stroke-linecap: round"/>
    <path d="M 104.711028 164.317915 
L 108.43706 166.791109 
L 104.222886 168.288018 
z
" clip-path="url(#p246fc2f571)" style="stroke: #000000; stroke-linecap: round"/>
   </g>
   <g id="patch_24">
    <path d="M 48.143922 211.435846 
Q 57.811123 187.537536 67.059066 164.675672 
" clip-path="url(#p246fc2f571)" style="fill: none; stroke: #000000; stroke-linecap: round"/>
    <path d="M 63.705032 167.633788 
L 67.059066 164.675672 
L 67.413139 169.133769 
z
" clip-path="url(#p246fc2f571)" style="stroke: #000000; stroke-linecap: round"/>
   </g>
   <g id="patch_25">
    <path d="M 48.201609 215.00162 
Q 59.568243 240.61992 70.481443 265.216262 
" clip-path="url(#p246fc2f571)" style="fill: none; stroke: #000000; stroke-linecap: round"/>
    <path d="M 70.68732 260.748868 
L 70.481443 265.216262 
L 67.031054 262.371124 
z
" clip-path="url(#p246fc2f571)" style="stroke: #000000; stroke-linecap: round"/>
   </g>
   <g id="patch_26">
    <path d="M 70.93538 266.239352 
Q 59.568746 240.621052 48.655546 216.02471 
" clip-path="url(#p246fc2f571)" style="fill: none; stroke: #000000; stroke-linecap: round"/>
    <path d="M 48.449669 220.492105 
L 48.655546 216.02471 
L 52.105935 218.869849 
z
" clip-path="url(#p246fc2f571)" style="stroke: #000000; stroke-linecap: round"/>
   </g>
   <g id="patch_27">
    <path d="M 73.611692 268.428563 
Q 97.164603 273.666321 119.62614 278.661376 
" clip-path="url(#p246fc2f571)" style="fill: none; stroke: #000000; stroke-linecap: round"/>
    <path d="M 116.155684 275.840749 
L 119.62614 278.661376 
L 115.287365 279.745365 
z
" clip-path="url(#p246fc2f571)" style="stroke: #000000; stroke-linecap: round"/>
   </g>
   <g id="patch_28">
    <path d="M 72.157527 266.120737 
Q 77.996385 240.932241 83.582769 216.8329 
" clip-path="url(#p246fc2f571)" style="fill: none; stroke: #000000; stroke-linecap: round"/>
    <path d="M 80.731155 220.277939 
L 83.582769 216.8329 
L 84.627832 221.181214 
z
" clip-path="url(#p246fc2f571)" style="stroke: #000000; stroke-linecap: round"/>
   </g>
   <g id="patch_29">
    <path d="M 70.575394 269.567866 
Q 55.853315 289.631137 41.792664 308.793013 
" clip-path="url(#p246fc2f571)" style="fill: none; stroke: #000000; stroke-linecap: round"/>
    <path d="M 45.771525 306.751283 
L 41.792664 308.793013 
L 42.546596 304.384886 
z
" clip-path="url(#p246fc2f571)" style="stroke: #000000; stroke-linecap: round"/>
   </g>
   <g id="patch_30">
    <path d="M 162.790481 180.665927 
Q 168.684478 218.235579 174.405196 254.700706 
" clip-path="url(#p246fc2f571)" style="fill: none; stroke: #000000; stroke-linecap: round"/>
    <path d="M 175.761084 250.439067 
L 174.405196 254.700706 
L 171.809417 251.059012 
z
" clip-path="url(#p246fc2f571)" style="stroke: #000000; stroke-linecap: round"/>
   </g>
   <g id="patch_31">
    <path d="M 164.33924 178.179096 
Q 188.293323 170.750534 211.179542 163.653135 
" clip-path="url(#p246fc2f571)" style="fill: none; stroke: #000000; stroke-linecap: round"/>
    <path d="M 206.766638 162.927685 
L 211.179542 163.653135 
L 207.95144 166.748188 
z
" clip-path="url(#p246fc2f571)" style="stroke: #000000; stroke-linecap: round"/>
   </g>
   <g id="patch_32">
    <path d="M 161.449073 177.120164 
Q 149.58621 158.52283 138.32461 140.86809 
" clip-path="url(#p246fc2f571)" style="fill: none; stroke: #000000; stroke-linecap: round"/>
    <path d="M 138.789585 145.315988 
L 138.32461 140.86809 
L 142.161914 143.164848 
z
" clip-path="url(#p246fc2f571)" style="stroke: #000000; stroke-linecap: round"/>
   </g>
   <g id="patch_33">
    <path d="M 160.599969 178.323137 
Q 136.976631 172.95761 114.443559 167.839712 
" clip-path="url(#p246fc2f571)" style="fill: none; stroke: #000000; stroke-linecap: round"/>
    <path d="M 117.901238 170.675987 
L 114.443559 167.839712 
L 118.787186 166.775334 
z
" clip-path="url(#p246fc2f571)" style="stroke: #000000; stroke-linecap: round"/>
   </g>
   <g id="patch_34">
    <path d="M 216.009822 163.039623 
Q 238.392886 166.447172 259.670652 169.686452 
" clip-path="url(#p246fc2f571)" style="fill: none; stroke: #000000; stroke-linecap: round"/>
    <path d="M 256.017222 167.107218 
L 259.670652 169.686452 
L 255.415207 171.061656 
z
" clip-path="url(#p246fc2f571)" style="stroke: #000000; stroke-linecap: round"/>
   </g>
   <g id="patch_35">
    <path d="M 212.247975 163.321796 
Q 188.293893 170.750357 165.407673 177.847757 
" clip-path="url(#p246fc2f571)" style="fill: none; stroke: #000000; stroke-linecap: round"/>
    <path d="M 169.820577 178.573207 
L 165.407673 177.847757 
L 168.635775 174.752703 
z
" clip-path="url(#p246fc2f571)" style="stroke: #000000; stroke-linecap: round"/>
   </g>
   <g id="patch_36">
    <path d="M 137.723028 139.924995 
Q 149.585891 158.522329 160.847491 176.177069 
" clip-path="url(#p246fc2f571)" style="fill: none; stroke: #000000; stroke-linecap: round"/>
    <path d="M 160.382516 171.729171 
L 160.847491 176.177069 
L 157.010187 173.88031 
z
" clip-path="url(#p246fc2f571)" style="stroke: #000000; stroke-linecap: round"/>
   </g>
   <g id="patch_37">
    <path d="M 135.4106 139.748206 
Q 124.074521 152.728044 113.473891 164.865791 
" clip-path="url(#p246fc2f571)" style="fill: none; stroke: #000000; stroke-linecap: round"/>
    <path d="M 117.611488 163.168647 
L 113.473891 164.865791 
L 114.598734 160.537428 
z
" clip-path="url(#p246fc2f571)" style="stroke: #000000; stroke-linecap: round"/>
   </g>
   <g id="patch_38">
    <path d="M 109.547351 166.927624 
Q 89.836014 164.504025 71.234355 162.216865 
" clip-path="url(#p246fc2f571)" style="fill: none; stroke: #000000; stroke-linecap: round"/>
    <path d="M 74.960386 164.690058 
L 71.234355 162.216865 
L 75.448529 160.719956 
z
" clip-path="url(#p246fc2f571)" style="stroke: #000000; stroke-linecap: round"/>
   </g>
   <g id="patch_39">
    <path d="M 113.357352 167.593004 
Q 136.98069 172.958532 159.513763 178.076429 
" clip-path="url(#p246fc2f571)" style="fill: none; stroke: #000000; stroke-linecap: round"/>
    <path d="M 156.056084 175.240154 
L 159.513763 178.076429 
L 155.170135 179.140807 
z
" clip-path="url(#p246fc2f571)" style="stroke: #000000; stroke-linecap: round"/>
   </g>
   <g id="patch_40">
    <path d="M 112.738229 165.708126 
Q 124.074308 152.728288 134.674938 140.590541 
" clip-path="url(#p246fc2f571)" style="fill: none; stroke: #000000; stroke-linecap: round"/>
    <path d="M 130.537342 142.287684 
L 134.674938 140.590541 
L 133.550095 144.918904 
z
" clip-path="url(#p246fc2f571)" style="stroke: #000000; stroke-linecap: round"/>
   </g>
   <g id="patch_41">
    <path d="M 110.4927 168.836625 
Q 97.869783 190.510848 85.809533 211.218942 
" clip-path="url(#p246fc2f571)" style="fill: none; stroke: #000000; stroke-linecap: round"/>
    <path d="M 89.550857 208.768942 
L 85.809533 211.218942 
L 86.094327 206.755884 
z
" clip-path="url(#p246fc2f571)" style="stroke: #000000; stroke-linecap: round"/>
   </g>
   <g id="patch_42">
    <path d="M 83.834784 215.745718 
Q 77.995927 240.934214 72.409543 265.033555 
" clip-path="url(#p246fc2f571)" style="fill: none; stroke: #000000; stroke-linecap: round"/>
    <path d="M 75.261157 261.588516 
L 72.409543 265.033555 
L 71.364479 260.685241 
z
" clip-path="url(#p246fc2f571)" style="stroke: #000000; stroke-linecap: round"/>
   </g>
   <g id="patch_43">
    <path d="M 85.246566 212.185588 
Q 97.869483 190.511364 109.929733 169.80327 
" clip-path="url(#p246fc2f571)" style="fill: none; stroke: #000000; stroke-linecap: round"/>
    <path d="M 106.188409 172.25327 
L 109.929733 169.80327 
L 109.644939 174.266329 
z
" clip-path="url(#p246fc2f571)" style="stroke: #000000; stroke-linecap: round"/>
   </g>
   <g id="patch_44">
    <path d="M 198.323169 315.082317 
Q 211.024381 311.492716 222.649702 308.207182 
" clip-path="url(#p246fc2f571)" style="fill: none; stroke: #000000; stroke-linecap: round"/>
    <path d="M 218.256542 307.370432 
L 222.649702 308.207182 
L 219.344406 311.21966 
z
" clip-path="url(#p246fc2f571)" style="stroke: #000000; stroke-linecap: round"/>
   </g>
   <g id="patch_45">
    <path d="M 195.780727 313.797303 
Q 185.668458 286.667055 175.946672 260.584434 
" clip-path="url(#p246fc2f571)" style="fill: none; stroke: #000000; stroke-linecap: round"/>
    <path d="M 175.469653 265.031057 
L 175.946672 260.584434 
L 179.217759 263.634023 
z
" clip-path="url(#p246fc2f571)" style="stroke: #000000; stroke-linecap: round"/>
   </g>
   <g id="patch_46">
    <path d="M 41.131453 309.694113 
Q 55.853532 289.630842 69.914183 270.468966 
" clip-path="url(#p246fc2f571)" style="fill: none; stroke: #000000; stroke-linecap: round"/>
    <path d="M 65.935322 272.510696 
L 69.914183 270.468966 
L 69.160251 274.877093 
z
" clip-path="url(#p246fc2f571)" style="stroke: #000000; stroke-linecap: round"/>
   </g>
   <g id="patch_47">
    <path d="M 120.718977 278.904404 
Q 97.166066 273.666646 74.704529 268.671591 
" clip-path="url(#p246fc2f571)" style="fill: none; stroke: #000000; stroke-linecap: round"/>
    <path d="M 78.174985 271.492218 
L 74.704529 268.671591 
L 79.043304 267.587602 
z
" clip-path="url(#p246fc2f571)" style="stroke: #000000; stroke-linecap: round"/>
   </g>
   <g id="patch_48">
    <path d="M 124.400299 278.585272 
Q 148.744512 268.522273 172.055487 258.886377 
" clip-path="url(#p246fc2f571)" style="fill: none; stroke: #000000; stroke-linecap: round"/>
    <path d="M 167.594833 258.566112 
L 172.055487 258.886377 
L 169.122883 262.262741 
z
" clip-path="url(#p246fc2f571)" style="stroke: #000000; stroke-linecap: round"/>
   </g>
   <g id="patch_49">
    <path d="M 174.57858 255.805896 
Q 168.684583 218.236244 162.963865 181.771116 
" clip-path="url(#p246fc2f571)" style="fill: none; stroke: #000000; stroke-linecap: round"/>
    <path d="M 161.607977 186.032755 
L 162.963865 181.771116 
L 165.559643 185.41281 
z
" clip-path="url(#p246fc2f571)" style="stroke: #000000; stroke-linecap: round"/>
   </g>
   <g id="patch_50">
    <path d="M 175.554381 259.531952 
Q 185.666649 286.662201 195.388435 312.744822 
" clip-path="url(#p246fc2f571)" style="fill: none; stroke: #000000; stroke-linecap: round"/>
    <path d="M 195.865455 308.298199 
L 195.388435 312.744822 
L 192.117349 309.695232 
z
" clip-path="url(#p246fc2f571)" style="stroke: #000000; stroke-linecap: round"/>
   </g>
   <g id="patch_51">
    <path d="M 173.089064 258.459134 
Q 148.744851 268.522133 125.433876 278.158029 
" clip-path="url(#p246fc2f571)" style="fill: none; stroke: #000000; stroke-linecap: round"/>
    <path d="M 129.89453 278.478293 
L 125.433876 278.158029 
L 128.36648 274.781665 
z
" clip-path="url(#p246fc2f571)" style="stroke: #000000; stroke-linecap: round"/>
   </g>
   <g id="patch_52">
    <path d="M 176.718673 257.123413 
Q 200.468745 249.431033 223.155182 242.083153 
" clip-path="url(#p246fc2f571)" style="fill: none; stroke: #000000; stroke-linecap: round"/>
    <path d="M 218.733545 241.412983 
L 223.155182 242.083153 
L 219.966064 245.218361 
z
" clip-path="url(#p246fc2f571)" style="stroke: #000000; stroke-linecap: round"/>
   </g>
   <g id="patch_53">
    <path d="M 226.045009 243.079119 
Q 225.822377 274.260856 225.607727 304.324588 
" clip-path="url(#p246fc2f571)" style="fill: none; stroke: #000000; stroke-linecap: round"/>
    <path d="M 227.636235 300.338969 
L 225.607727 304.324588 
L 223.636337 300.310411 
z
" clip-path="url(#p246fc2f571)" style="stroke: #000000; stroke-linecap: round"/>
   </g>
   <g id="patch_54">
    <path d="M 226.946385 239.422369 
Q 244.373074 205.64452 261.287147 172.860263 
" clip-path="url(#p246fc2f571)" style="fill: none; stroke: #000000; stroke-linecap: round"/>
    <path d="M 257.675768 175.498054 
L 261.287147 172.860263 
L 261.230553 177.332041 
z
" clip-path="url(#p246fc2f571)" style="stroke: #000000; stroke-linecap: round"/>
   </g>
   <g id="patch_55">
    <path d="M 224.218926 241.738619 
Q 200.468853 249.430998 177.782417 256.778878 
" clip-path="url(#p246fc2f571)" style="fill: none; stroke: #000000; stroke-linecap: round"/>
    <path d="M 182.204053 257.449048 
L 177.782417 256.778878 
L 180.971535 253.643671 
z
" clip-path="url(#p246fc2f571)" style="stroke: #000000; stroke-linecap: round"/>
   </g>
   <g id="PathCollection_1">
    <defs>
     <path id="mf7f29f88b7" d="M 0 1.936492 
C 0.513564 1.936492 1.006162 1.732451 1.369306 1.369306 
C 1.732451 1.006162 1.936492 0.513564 1.936492 0 
C 1.936492 -0.513564 1.732451 -1.006162 1.369306 -1.369306 
C 1.006162 -1.732451 0.513564 -1.936492 0 -1.936492 
C -0.513564 -1.936492 -1.006162 -1.732451 -1.369306 -1.369306 
C -1.732451 -1.006162 -1.936492 -0.513564 -1.936492 0 
C -1.936492 0.513564 -1.732451 1.006162 -1.369306 1.369306 
C -1.006162 1.732451 -0.513564 1.936492 0 1.936492 
z
" style="stroke: #1f78b4"/>
    </defs>
    <g clip-path="url(#p246fc2f571)">
     <use xlink:href="#mf7f29f88b7" x="225.585931" y="307.377348" style="fill: #1f78b4; stroke: #1f78b4"/>
     <use xlink:href="#mf7f29f88b7" x="321.045877" y="119.540612" style="fill: #1f78b4; stroke: #1f78b4"/>
     <use xlink:href="#mf7f29f88b7" x="262.687621" y="170.145748" style="fill: #1f78b4; stroke: #1f78b4"/>
     <use xlink:href="#mf7f29f88b7" x="332.06053" y="68.551268" style="fill: #1f78b4; stroke: #1f78b4"/>
     <use xlink:href="#mf7f29f88b7" x="354.891473" y="74.830242" style="fill: #1f78b4; stroke: #1f78b4"/>
     <use xlink:href="#mf7f29f88b7" x="420.813223" y="29.990083" style="fill: #1f78b4; stroke: #1f78b4"/>
     <use xlink:href="#mf7f29f88b7" x="365.308813" y="110.197977" style="fill: #1f78b4; stroke: #1f78b4"/>
     <use xlink:href="#mf7f29f88b7" x="390.282333" y="64.24511" style="fill: #1f78b4; stroke: #1f78b4"/>
     <use xlink:href="#mf7f29f88b7" x="68.204389" y="161.844316" style="fill: #1f78b4; stroke: #1f78b4"/>
     <use xlink:href="#mf7f29f88b7" x="47.416919" y="213.233073" style="fill: #1f78b4; stroke: #1f78b4"/>
     <use xlink:href="#mf7f29f88b7" x="71.720071" y="268.0079" style="fill: #1f78b4; stroke: #1f78b4"/>
     <use xlink:href="#mf7f29f88b7" x="162.490297" y="178.752484" style="fill: #1f78b4; stroke: #1f78b4"/>
     <use xlink:href="#mf7f29f88b7" x="214.096919" y="162.748407" style="fill: #1f78b4; stroke: #1f78b4"/>
     <use xlink:href="#mf7f29f88b7" x="136.681804" y="138.292675" style="fill: #1f78b4; stroke: #1f78b4"/>
     <use xlink:href="#mf7f29f88b7" x="111.467025" y="167.163657" style="fill: #1f78b4; stroke: #1f78b4"/>
     <use xlink:href="#mf7f29f88b7" x="84.272241" y="213.858555" style="fill: #1f78b4; stroke: #1f78b4"/>
     <use xlink:href="#mf7f29f88b7" x="196.456343" y="315.609917" style="fill: #1f78b4; stroke: #1f78b4"/>
     <use xlink:href="#mf7f29f88b7" x="39.986777" y="311.254079" style="fill: #1f78b4; stroke: #1f78b4"/>
     <use xlink:href="#mf7f29f88b7" x="122.610599" y="279.325067" style="fill: #1f78b4; stroke: #1f78b4"/>
     <use xlink:href="#mf7f29f88b7" x="174.878764" y="257.719338" style="fill: #1f78b4; stroke: #1f78b4"/>
     <use xlink:href="#mf7f29f88b7" x="226.058834" y="241.142693" style="fill: #1f78b4; stroke: #1f78b4"/>
    </g>
   </g>
   <g id="text_1">
    <g clip-path="url(#p246fc2f571)">
     <!-- 0 -->
     <g transform="translate(222.404681 310.136723) scale(0.1 -0.1)">
      <defs>
       <path id="DejaVuSans-30" d="M 2034 4250 
Q 1547 4250 1301 3770 
Q 1056 3291 1056 2328 
Q 1056 1369 1301 889 
Q 1547 409 2034 409 
Q 2525 409 2770 889 
Q 3016 1369 3016 2328 
Q 3016 3291 2770 3770 
Q 2525 4250 2034 4250 
z
M 2034 4750 
Q 2819 4750 3233 4129 
Q 3647 3509 3647 2328 
Q 3647 1150 3233 529 
Q 2819 -91 2034 -91 
Q 1250 -91 836 529 
Q 422 1150 422 2328 
Q 422 3509 836 4129 
Q 1250 4750 2034 4750 
z
" transform="scale(0.015625)"/>
      </defs>
      <use xlink:href="#DejaVuSans-30"/>
     </g>
    </g>
   </g>
   <g id="text_2">
    <g clip-path="url(#p246fc2f571)">
     <!-- 1 -->
     <g transform="translate(317.864627 122.299987) scale(0.1 -0.1)">
      <defs>
       <path id="DejaVuSans-31" d="M 794 531 
L 1825 531 
L 1825 4091 
L 703 3866 
L 703 4441 
L 1819 4666 
L 2450 4666 
L 2450 531 
L 3481 531 
L 3481 0 
L 794 0 
L 794 531 
z
" transform="scale(0.015625)"/>
      </defs>
      <use xlink:href="#DejaVuSans-31"/>
     </g>
    </g>
   </g>
   <g id="text_3">
    <g clip-path="url(#p246fc2f571)">
     <!-- 2 -->
     <g transform="translate(259.506371 172.905123) scale(0.1 -0.1)">
      <defs>
       <path id="DejaVuSans-32" d="M 1228 531 
L 3431 531 
L 3431 0 
L 469 0 
L 469 531 
Q 828 903 1448 1529 
Q 2069 2156 2228 2338 
Q 2531 2678 2651 2914 
Q 2772 3150 2772 3378 
Q 2772 3750 2511 3984 
Q 2250 4219 1831 4219 
Q 1534 4219 1204 4116 
Q 875 4013 500 3803 
L 500 4441 
Q 881 4594 1212 4672 
Q 1544 4750 1819 4750 
Q 2544 4750 2975 4387 
Q 3406 4025 3406 3419 
Q 3406 3131 3298 2873 
Q 3191 2616 2906 2266 
Q 2828 2175 2409 1742 
Q 1991 1309 1228 531 
z
" transform="scale(0.015625)"/>
      </defs>
      <use xlink:href="#DejaVuSans-32"/>
     </g>
    </g>
   </g>
   <g id="text_4">
    <g clip-path="url(#p246fc2f571)">
     <!-- 3 -->
     <g transform="translate(328.87928 71.310643) scale(0.1 -0.1)">
      <defs>
       <path id="DejaVuSans-33" d="M 2597 2516 
Q 3050 2419 3304 2112 
Q 3559 1806 3559 1356 
Q 3559 666 3084 287 
Q 2609 -91 1734 -91 
Q 1441 -91 1130 -33 
Q 819 25 488 141 
L 488 750 
Q 750 597 1062 519 
Q 1375 441 1716 441 
Q 2309 441 2620 675 
Q 2931 909 2931 1356 
Q 2931 1769 2642 2001 
Q 2353 2234 1838 2234 
L 1294 2234 
L 1294 2753 
L 1863 2753 
Q 2328 2753 2575 2939 
Q 2822 3125 2822 3475 
Q 2822 3834 2567 4026 
Q 2313 4219 1838 4219 
Q 1578 4219 1281 4162 
Q 984 4106 628 3988 
L 628 4550 
Q 988 4650 1302 4700 
Q 1616 4750 1894 4750 
Q 2613 4750 3031 4423 
Q 3450 4097 3450 3541 
Q 3450 3153 3228 2886 
Q 3006 2619 2597 2516 
z
" transform="scale(0.015625)"/>
      </defs>
      <use xlink:href="#DejaVuSans-33"/>
     </g>
    </g>
   </g>
   <g id="text_5">
    <g clip-path="url(#p246fc2f571)">
     <!-- 4 -->
     <g transform="translate(351.710223 77.589617) scale(0.1 -0.1)">
      <defs>
       <path id="DejaVuSans-34" d="M 2419 4116 
L 825 1625 
L 2419 1625 
L 2419 4116 
z
M 2253 4666 
L 3047 4666 
L 3047 1625 
L 3713 1625 
L 3713 1100 
L 3047 1100 
L 3047 0 
L 2419 0 
L 2419 1100 
L 313 1100 
L 313 1709 
L 2253 4666 
z
" transform="scale(0.015625)"/>
      </defs>
      <use xlink:href="#DejaVuSans-34"/>
     </g>
    </g>
   </g>
   <g id="text_6">
    <g clip-path="url(#p246fc2f571)">
     <!-- 5 -->
     <g transform="translate(417.631973 32.749458) scale(0.1 -0.1)">
      <defs>
       <path id="DejaVuSans-35" d="M 691 4666 
L 3169 4666 
L 3169 4134 
L 1269 4134 
L 1269 2991 
Q 1406 3038 1543 3061 
Q 1681 3084 1819 3084 
Q 2600 3084 3056 2656 
Q 3513 2228 3513 1497 
Q 3513 744 3044 326 
Q 2575 -91 1722 -91 
Q 1428 -91 1123 -41 
Q 819 9 494 109 
L 494 744 
Q 775 591 1075 516 
Q 1375 441 1709 441 
Q 2250 441 2565 725 
Q 2881 1009 2881 1497 
Q 2881 1984 2565 2268 
Q 2250 2553 1709 2553 
Q 1456 2553 1204 2497 
Q 953 2441 691 2322 
L 691 4666 
z
" transform="scale(0.015625)"/>
      </defs>
      <use xlink:href="#DejaVuSans-35"/>
     </g>
    </g>
   </g>
   <g id="text_7">
    <g clip-path="url(#p246fc2f571)">
     <!-- 6 -->
     <g transform="translate(362.127563 112.957352) scale(0.1 -0.1)">
      <defs>
       <path id="DejaVuSans-36" d="M 2113 2584 
Q 1688 2584 1439 2293 
Q 1191 2003 1191 1497 
Q 1191 994 1439 701 
Q 1688 409 2113 409 
Q 2538 409 2786 701 
Q 3034 994 3034 1497 
Q 3034 2003 2786 2293 
Q 2538 2584 2113 2584 
z
M 3366 4563 
L 3366 3988 
Q 3128 4100 2886 4159 
Q 2644 4219 2406 4219 
Q 1781 4219 1451 3797 
Q 1122 3375 1075 2522 
Q 1259 2794 1537 2939 
Q 1816 3084 2150 3084 
Q 2853 3084 3261 2657 
Q 3669 2231 3669 1497 
Q 3669 778 3244 343 
Q 2819 -91 2113 -91 
Q 1303 -91 875 529 
Q 447 1150 447 2328 
Q 447 3434 972 4092 
Q 1497 4750 2381 4750 
Q 2619 4750 2861 4703 
Q 3103 4656 3366 4563 
z
" transform="scale(0.015625)"/>
      </defs>
      <use xlink:href="#DejaVuSans-36"/>
     </g>
    </g>
   </g>
   <g id="text_8">
    <g clip-path="url(#p246fc2f571)">
     <!-- 7 -->
     <g transform="translate(387.101083 67.004485) scale(0.1 -0.1)">
      <defs>
       <path id="DejaVuSans-37" d="M 525 4666 
L 3525 4666 
L 3525 4397 
L 1831 0 
L 1172 0 
L 2766 4134 
L 525 4134 
L 525 4666 
z
" transform="scale(0.015625)"/>
      </defs>
      <use xlink:href="#DejaVuSans-37"/>
     </g>
    </g>
   </g>
   <g id="text_9">
    <g clip-path="url(#p246fc2f571)">
     <!-- 8 -->
     <g transform="translate(65.023139 164.603691) scale(0.1 -0.1)">
      <defs>
       <path id="DejaVuSans-38" d="M 2034 2216 
Q 1584 2216 1326 1975 
Q 1069 1734 1069 1313 
Q 1069 891 1326 650 
Q 1584 409 2034 409 
Q 2484 409 2743 651 
Q 3003 894 3003 1313 
Q 3003 1734 2745 1975 
Q 2488 2216 2034 2216 
z
M 1403 2484 
Q 997 2584 770 2862 
Q 544 3141 544 3541 
Q 544 4100 942 4425 
Q 1341 4750 2034 4750 
Q 2731 4750 3128 4425 
Q 3525 4100 3525 3541 
Q 3525 3141 3298 2862 
Q 3072 2584 2669 2484 
Q 3125 2378 3379 2068 
Q 3634 1759 3634 1313 
Q 3634 634 3220 271 
Q 2806 -91 2034 -91 
Q 1263 -91 848 271 
Q 434 634 434 1313 
Q 434 1759 690 2068 
Q 947 2378 1403 2484 
z
M 1172 3481 
Q 1172 3119 1398 2916 
Q 1625 2713 2034 2713 
Q 2441 2713 2670 2916 
Q 2900 3119 2900 3481 
Q 2900 3844 2670 4047 
Q 2441 4250 2034 4250 
Q 1625 4250 1398 4047 
Q 1172 3844 1172 3481 
z
" transform="scale(0.015625)"/>
      </defs>
      <use xlink:href="#DejaVuSans-38"/>
     </g>
    </g>
   </g>
   <g id="text_10">
    <g clip-path="url(#p246fc2f571)">
     <!-- 9 -->
     <g transform="translate(44.235669 215.992448) scale(0.1 -0.1)">
      <defs>
       <path id="DejaVuSans-39" d="M 703 97 
L 703 672 
Q 941 559 1184 500 
Q 1428 441 1663 441 
Q 2288 441 2617 861 
Q 2947 1281 2994 2138 
Q 2813 1869 2534 1725 
Q 2256 1581 1919 1581 
Q 1219 1581 811 2004 
Q 403 2428 403 3163 
Q 403 3881 828 4315 
Q 1253 4750 1959 4750 
Q 2769 4750 3195 4129 
Q 3622 3509 3622 2328 
Q 3622 1225 3098 567 
Q 2575 -91 1691 -91 
Q 1453 -91 1209 -44 
Q 966 3 703 97 
z
M 1959 2075 
Q 2384 2075 2632 2365 
Q 2881 2656 2881 3163 
Q 2881 3666 2632 3958 
Q 2384 4250 1959 4250 
Q 1534 4250 1286 3958 
Q 1038 3666 1038 3163 
Q 1038 2656 1286 2365 
Q 1534 2075 1959 2075 
z
" transform="scale(0.015625)"/>
      </defs>
      <use xlink:href="#DejaVuSans-39"/>
     </g>
    </g>
   </g>
   <g id="text_11">
    <g clip-path="url(#p246fc2f571)">
     <!-- 10 -->
     <g transform="translate(65.357571 270.767275) scale(0.1 -0.1)">
      <use xlink:href="#DejaVuSans-31"/>
      <use xlink:href="#DejaVuSans-30" x="63.623047"/>
     </g>
    </g>
   </g>
   <g id="text_12">
    <g clip-path="url(#p246fc2f571)">
     <!-- 11 -->
     <g transform="translate(156.127797 181.511859) scale(0.1 -0.1)">
      <use xlink:href="#DejaVuSans-31"/>
      <use xlink:href="#DejaVuSans-31" x="63.623047"/>
     </g>
    </g>
   </g>
   <g id="text_13">
    <g clip-path="url(#p246fc2f571)">
     <!-- 12 -->
     <g transform="translate(207.734419 165.507782) scale(0.1 -0.1)">
      <use xlink:href="#DejaVuSans-31"/>
      <use xlink:href="#DejaVuSans-32" x="63.623047"/>
     </g>
    </g>
   </g>
   <g id="text_14">
    <g clip-path="url(#p246fc2f571)">
     <!-- 13 -->
     <g transform="translate(130.319304 141.05205) scale(0.1 -0.1)">
      <use xlink:href="#DejaVuSans-31"/>
      <use xlink:href="#DejaVuSans-33" x="63.623047"/>
     </g>
    </g>
   </g>
   <g id="text_15">
    <g clip-path="url(#p246fc2f571)">
     <!-- 14 -->
     <g transform="translate(105.104525 169.923032) scale(0.1 -0.1)">
      <use xlink:href="#DejaVuSans-31"/>
      <use xlink:href="#DejaVuSans-34" x="63.623047"/>
     </g>
    </g>
   </g>
   <g id="text_16">
    <g clip-path="url(#p246fc2f571)">
     <!-- 15 -->
     <g transform="translate(77.909741 216.61793) scale(0.1 -0.1)">
      <use xlink:href="#DejaVuSans-31"/>
      <use xlink:href="#DejaVuSans-35" x="63.623047"/>
     </g>
    </g>
   </g>
   <g id="text_17">
    <g clip-path="url(#p246fc2f571)">
     <!-- 16 -->
     <g transform="translate(190.093843 318.369292) scale(0.1 -0.1)">
      <use xlink:href="#DejaVuSans-31"/>
      <use xlink:href="#DejaVuSans-36" x="63.623047"/>
     </g>
    </g>
   </g>
   <g id="text_18">
    <g clip-path="url(#p246fc2f571)">
     <!-- 17 -->
     <g transform="translate(33.624277 314.013454) scale(0.1 -0.1)">
      <use xlink:href="#DejaVuSans-31"/>
      <use xlink:href="#DejaVuSans-37" x="63.623047"/>
     </g>
    </g>
   </g>
   <g id="text_19">
    <g clip-path="url(#p246fc2f571)">
     <!-- 18 -->
     <g transform="translate(116.248099 282.084442) scale(0.1 -0.1)">
      <use xlink:href="#DejaVuSans-31"/>
      <use xlink:href="#DejaVuSans-38" x="63.623047"/>
     </g>
    </g>
   </g>
   <g id="text_20">
    <g clip-path="url(#p246fc2f571)">
     <!-- 19 -->
     <g transform="translate(168.516264 260.478713) scale(0.1 -0.1)">
      <use xlink:href="#DejaVuSans-31"/>
      <use xlink:href="#DejaVuSans-39" x="63.623047"/>
     </g>
    </g>
   </g>
   <g id="text_21">
    <g clip-path="url(#p246fc2f571)">
     <!-- 20 -->
     <g transform="translate(219.696334 243.902068) scale(0.1 -0.1)">
      <use xlink:href="#DejaVuSans-32"/>
      <use xlink:href="#DejaVuSans-30" x="63.623047"/>
     </g>
    </g>
   </g>
  </g>
 </g>
 <defs>
  <clipPath id="p246fc2f571">
   <rect x="0" y="0" width="460.8" height="345.6"/>
  </clipPath>
 </defs>
</svg>
