<?xml version="1.0" encoding="utf-8" standalone="no"?>
<!DOCTYPE svg PUBLIC "-//W3C//DTD SVG 1.1//EN"
  "http://www.w3.org/Graphics/SVG/1.1/DTD/svg11.dtd">
<svg xmlns:xlink="http://www.w3.org/1999/xlink" width="460.8pt" height="345.6pt" viewBox="0 0 460.8 345.6" xmlns="http://www.w3.org/2000/svg" version="1.1">
 <metadata>
  <rdf:RDF xmlns:dc="http://purl.org/dc/elements/1.1/" xmlns:cc="http://creativecommons.org/ns#" xmlns:rdf="http://www.w3.org/1999/02/22-rdf-syntax-ns#">
   <cc:Work>
    <dc:type rdf:resource="http://purl.org/dc/dcmitype/StillImage"/>
    <dc:date>2024-02-28T11:18:25.087985</dc:date>
    <dc:format>image/svg+xml</dc:format>
    <dc:creator>
     <cc:Agent>
      <dc:title>Matplotlib v3.8.0, https://matplotlib.org/</dc:title>
     </cc:Agent>
    </dc:creator>
   </cc:Work>
  </rdf:RDF>
 </metadata>
 <defs>
  <style type="text/css">*{stroke-linejoin: round; stroke-linecap: butt}</style>
 </defs>
 <g id="figure_1">
  <g id="patch_1">
   <path d="M 0 345.6 
L 460.8 345.6 
L 460.8 0 
L 0 0 
z
" style="fill: #ffffff"/>
  </g>
  <g id="axes_1">
   <g id="patch_2">
    <path d="M 190.037358 111.251404 
Q 162.795774 140.626182 136.314433 169.181185 
" clip-path="url(#p47f1251a8c)" style="fill: none; stroke: #000000; stroke-linecap: round"/>
    <path d="M 140.500818 167.608233 
L 136.314433 169.181185 
L 137.567903 164.888306 
z
" clip-path="url(#p47f1251a8c)" style="stroke: #000000; stroke-linecap: round"/>
   </g>
   <g id="patch_3">
    <path d="M 193.25381 109.451694 
Q 240.699806 99.94795 287.049543 90.663793 
" clip-path="url(#p47f1251a8c)" style="fill: none; stroke: #000000; stroke-linecap: round"/>
    <path d="M 282.734642 89.488368 
L 287.049543 90.663793 
L 283.520262 93.410459 
z
" clip-path="url(#p47f1251a8c)" style="stroke: #000000; stroke-linecap: round"/>
   </g>
   <g id="patch_4">
    <path d="M 315.493999 31.768387 
Q 303.157101 60.028336 291.267515 87.263632 
" clip-path="url(#p47f1251a8c)" style="fill: none; stroke: #000000; stroke-linecap: round"/>
    <path d="M 294.700822 84.397903 
L 291.267515 87.263632 
L 291.034916 82.797549 
z
" clip-path="url(#p47f1251a8c)" style="stroke: #000000; stroke-linecap: round"/>
   </g>
   <g id="patch_5">
    <path d="M 41.922537 168.812574 
Q 87.112484 170.089126 131.184843 171.334107 
" clip-path="url(#p47f1251a8c)" style="fill: none; stroke: #000000; stroke-linecap: round"/>
    <path d="M 127.242912 169.221955 
L 131.184843 171.334107 
L 127.129963 173.22036 
z
" clip-path="url(#p47f1251a8c)" style="stroke: #000000; stroke-linecap: round"/>
   </g>
   <g id="patch_6">
    <path d="M 41.488975 169.976435 
Q 63.696341 187.99047 85.035421 205.300174 
" clip-path="url(#p47f1251a8c)" style="fill: none; stroke: #000000; stroke-linecap: round"/>
    <path d="M 83.188894 201.22705 
L 85.035421 205.300174 
L 80.669006 204.333521 
z
" clip-path="url(#p47f1251a8c)" style="stroke: #000000; stroke-linecap: round"/>
   </g>
   <g id="patch_7">
    <path d="M 135.55386 170.001316 
Q 162.795444 140.626538 189.276785 112.071535 
" clip-path="url(#p47f1251a8c)" style="fill: none; stroke: #000000; stroke-linecap: round"/>
    <path d="M 185.0904 113.644487 
L 189.276785 112.071535 
L 188.023316 116.364415 
z
" clip-path="url(#p47f1251a8c)" style="stroke: #000000; stroke-linecap: round"/>
   </g>
   <g id="patch_8">
    <path d="M 132.302115 171.365668 
Q 87.112168 170.089117 43.039809 168.844135 
" clip-path="url(#p47f1251a8c)" style="fill: none; stroke: #000000; stroke-linecap: round"/>
    <path d="M 46.98174 170.956287 
L 43.039809 168.844135 
L 47.094689 166.957882 
z
" clip-path="url(#p47f1251a8c)" style="stroke: #000000; stroke-linecap: round"/>
   </g>
   <g id="patch_9">
    <path d="M 135.346632 173.010742 
Q 155.311533 201.648222 174.637033 229.36855 
" clip-path="url(#p47f1251a8c)" style="fill: none; stroke: #000000; stroke-linecap: round"/>
    <path d="M 173.990092 224.943454 
L 174.637033 229.36855 
L 170.708792 227.231045 
z
" clip-path="url(#p47f1251a8c)" style="stroke: #000000; stroke-linecap: round"/>
   </g>
   <g id="patch_10">
    <path d="M 135.983494 172.253774 
Q 166.084126 186.624938 195.175817 200.514396 
" clip-path="url(#p47f1251a8c)" style="fill: none; stroke: #000000; stroke-linecap: round"/>
    <path d="M 192.427825 196.986148 
L 195.175817 200.514396 
L 190.704423 200.595841 
z
" clip-path="url(#p47f1251a8c)" style="stroke: #000000; stroke-linecap: round"/>
   </g>
   <g id="patch_11">
    <path d="M 132.697294 172.598262 
Q 110.822858 189.323215 89.836592 205.369083 
" clip-path="url(#p47f1251a8c)" style="fill: none; stroke: #000000; stroke-linecap: round"/>
    <path d="M 94.228986 204.528322 
L 89.836592 205.369083 
L 91.79942 201.350712 
z
" clip-path="url(#p47f1251a8c)" style="stroke: #000000; stroke-linecap: round"/>
   </g>
   <g id="patch_12">
    <path d="M 175.277325 230.286979 
Q 155.312424 201.6495 135.986924 173.929172 
" clip-path="url(#p47f1251a8c)" style="fill: none; stroke: #000000; stroke-linecap: round"/>
    <path d="M 136.633865 178.354267 
L 135.986924 173.929172 
L 139.915165 176.066676 
z
" clip-path="url(#p47f1251a8c)" style="stroke: #000000; stroke-linecap: round"/>
   </g>
   <g id="patch_13">
    <path d="M 177.748561 233.251415 
Q 200.492068 256.18799 222.448354 278.330661 
" clip-path="url(#p47f1251a8c)" style="fill: none; stroke: #000000; stroke-linecap: round"/>
    <path d="M 221.052085 274.082081 
L 222.448354 278.330661 
L 218.211729 276.898529 
z
" clip-path="url(#p47f1251a8c)" style="stroke: #000000; stroke-linecap: round"/>
   </g>
   <g id="patch_14">
    <path d="M 223.237106 279.126109 
Q 200.493599 256.189534 178.537313 234.046863 
" clip-path="url(#p47f1251a8c)" style="fill: none; stroke: #000000; stroke-linecap: round"/>
    <path d="M 179.933582 238.295443 
L 178.537313 234.046863 
L 182.773939 235.478996 
z
" clip-path="url(#p47f1251a8c)" style="stroke: #000000; stroke-linecap: round"/>
   </g>
   <g id="patch_15">
    <path d="M 196.189857 200.998536 
Q 166.089225 186.627373 136.997533 172.737914 
" clip-path="url(#p47f1251a8c)" style="fill: none; stroke: #000000; stroke-linecap: round"/>
    <path d="M 139.745526 176.266163 
L 136.997533 172.737914 
L 141.468928 172.65647 
z
" clip-path="url(#p47f1251a8c)" style="stroke: #000000; stroke-linecap: round"/>
   </g>
   <g id="patch_16">
    <path d="M 197.323868 203.674235 
Q 185.502871 239.281253 174.034139 273.827182 
" clip-path="url(#p47f1251a8c)" style="fill: none; stroke: #000000; stroke-linecap: round"/>
    <path d="M 177.192575 270.661068 
L 174.034139 273.827182 
L 173.396309 269.400764 
z
" clip-path="url(#p47f1251a8c)" style="stroke: #000000; stroke-linecap: round"/>
   </g>
   <g id="patch_17">
    <path d="M 199.78424 201.263491 
Q 261.435011 182.306739 322.017127 163.678584 
" clip-path="url(#p47f1251a8c)" style="fill: none; stroke: #000000; stroke-linecap: round"/>
    <path d="M 317.605978 162.942539 
L 322.017127 163.678584 
L 318.781601 166.765876 
z
" clip-path="url(#p47f1251a8c)" style="stroke: #000000; stroke-linecap: round"/>
   </g>
   <g id="patch_18">
    <path d="M 196.002742 201.926272 
Q 142.671793 204.528681 90.45755 207.076598 
" clip-path="url(#p47f1251a8c)" style="fill: none; stroke: #000000; stroke-linecap: round"/>
    <path d="M 94.550275 208.879264 
L 90.45755 207.076598 
L 94.355317 204.884018 
z
" clip-path="url(#p47f1251a8c)" style="stroke: #000000; stroke-linecap: round"/>
   </g>
   <g id="patch_19">
    <path d="M 85.90657 206.006827 
Q 63.699204 187.992792 42.360124 170.683088 
" clip-path="url(#p47f1251a8c)" style="fill: none; stroke: #000000; stroke-linecap: round"/>
    <path d="M 44.206651 174.756212 
L 42.360124 170.683088 
L 46.726539 171.649741 
z
" clip-path="url(#p47f1251a8c)" style="stroke: #000000; stroke-linecap: round"/>
   </g>
   <g id="patch_20">
    <path d="M 88.94935 206.047459 
Q 110.823785 189.322506 131.810051 173.276638 
" clip-path="url(#p47f1251a8c)" style="fill: none; stroke: #000000; stroke-linecap: round"/>
    <path d="M 127.417657 174.117399 
L 131.810051 173.276638 
L 129.847223 177.29501 
z
" clip-path="url(#p47f1251a8c)" style="stroke: #000000; stroke-linecap: round"/>
   </g>
   <g id="patch_21">
    <path d="M 89.341501 207.131058 
Q 142.67245 204.528649 194.886694 201.980732 
" clip-path="url(#p47f1251a8c)" style="fill: none; stroke: #000000; stroke-linecap: round"/>
    <path d="M 190.793969 200.178067 
L 194.886694 201.980732 
L 190.988926 204.173313 
z
" clip-path="url(#p47f1251a8c)" style="stroke: #000000; stroke-linecap: round"/>
   </g>
   <g id="patch_22">
    <path d="M 86.973778 209.109234 
Q 80.773654 235.960881 74.825069 261.723157 
" clip-path="url(#p47f1251a8c)" style="fill: none; stroke: #000000; stroke-linecap: round"/>
    <path d="M 77.673727 258.275673 
L 74.825069 261.723157 
L 73.776276 257.37574 
z
" clip-path="url(#p47f1251a8c)" style="stroke: #000000; stroke-linecap: round"/>
   </g>
   <g id="patch_23">
    <path d="M 74.572117 262.818645 
Q 80.772241 235.966998 86.720827 210.204722 
" clip-path="url(#p47f1251a8c)" style="fill: none; stroke: #000000; stroke-linecap: round"/>
    <path d="M 83.872169 213.652207 
L 86.720827 210.204722 
L 87.769619 214.552139 
z
" clip-path="url(#p47f1251a8c)" style="stroke: #000000; stroke-linecap: round"/>
   </g>
   <g id="patch_24">
    <path d="M 76.060363 264.936316 
Q 123.604747 270.716278 170.039269 276.361314 
" clip-path="url(#p47f1251a8c)" style="fill: none; stroke: #000000; stroke-linecap: round"/>
    <path d="M 166.309867 273.893206 
L 170.039269 276.361314 
L 165.827142 277.863971 
z
" clip-path="url(#p47f1251a8c)" style="stroke: #000000; stroke-linecap: round"/>
   </g>
   <g id="patch_25">
    <path d="M 173.682114 274.887546 
Q 185.503111 239.280528 196.971843 204.734599 
" clip-path="url(#p47f1251a8c)" style="fill: none; stroke: #000000; stroke-linecap: round"/>
    <path d="M 193.813407 207.900713 
L 196.971843 204.734599 
L 197.609672 209.161016 
z
" clip-path="url(#p47f1251a8c)" style="stroke: #000000; stroke-linecap: round"/>
   </g>
   <g id="patch_26">
    <path d="M 171.147271 276.496014 
Q 123.602886 270.716052 77.168364 265.071016 
" clip-path="url(#p47f1251a8c)" style="fill: none; stroke: #000000; stroke-linecap: round"/>
    <path d="M 80.897767 267.539123 
L 77.168364 265.071016 
L 81.380492 263.568358 
z
" clip-path="url(#p47f1251a8c)" style="stroke: #000000; stroke-linecap: round"/>
   </g>
   <g id="patch_27">
    <path d="M 174.88734 277.407327 
Q 225.202075 296.169943 274.469242 314.541915 
" clip-path="url(#p47f1251a8c)" style="fill: none; stroke: #000000; stroke-linecap: round"/>
    <path d="M 271.420154 311.270362 
L 274.469242 314.541915 
L 270.022546 315.018253 
z
" clip-path="url(#p47f1251a8c)" style="stroke: #000000; stroke-linecap: round"/>
   </g>
   <g id="patch_28">
    <path d="M 275.516414 314.932411 
Q 225.20168 296.169795 175.934513 277.797823 
" clip-path="url(#p47f1251a8c)" style="fill: none; stroke: #000000; stroke-linecap: round"/>
    <path d="M 178.983601 281.069377 
L 175.934513 277.797823 
L 180.381208 277.321485 
z
" clip-path="url(#p47f1251a8c)" style="stroke: #000000; stroke-linecap: round"/>
   </g>
   <g id="patch_29">
    <path d="M 279.209162 315.122778 
Q 325.133827 303.197014 369.976348 291.552262 
" clip-path="url(#p47f1251a8c)" style="fill: none; stroke: #000000; stroke-linecap: round"/>
    <path d="M 365.602069 290.621845 
L 369.976348 291.552262 
L 366.607447 294.493436 
z
" clip-path="url(#p47f1251a8c)" style="stroke: #000000; stroke-linecap: round"/>
   </g>
   <g id="patch_30">
    <path d="M 371.056003 291.271896 
Q 325.131338 303.19766 280.288816 314.842412 
" clip-path="url(#p47f1251a8c)" style="fill: none; stroke: #000000; stroke-linecap: round"/>
    <path d="M 284.663096 315.772829 
L 280.288816 314.842412 
L 283.657718 311.901239 
z
" clip-path="url(#p47f1251a8c)" style="stroke: #000000; stroke-linecap: round"/>
   </g>
   <g id="patch_31">
    <path d="M 373.31851 288.885522 
Q 379.435293 258.8353 385.329072 229.880647 
" clip-path="url(#p47f1251a8c)" style="fill: none; stroke: #000000; stroke-linecap: round"/>
    <path d="M 382.571414 233.401346 
L 385.329072 229.880647 
L 386.491036 234.199193 
z
" clip-path="url(#p47f1251a8c)" style="stroke: #000000; stroke-linecap: round"/>
   </g>
   <g id="patch_32">
    <path d="M 385.551369 228.788557 
Q 379.434585 258.838778 373.540807 287.793432 
" clip-path="url(#p47f1251a8c)" style="fill: none; stroke: #000000; stroke-linecap: round"/>
    <path d="M 376.298465 284.272733 
L 373.540807 287.793432 
L 372.378843 283.474886 
z
" clip-path="url(#p47f1251a8c)" style="stroke: #000000; stroke-linecap: round"/>
   </g>
   <g id="patch_33">
    <path d="M 384.60322 225.486547 
Q 355.438039 194.834822 327.043543 164.993063 
" clip-path="url(#p47f1251a8c)" style="fill: none; stroke: #000000; stroke-linecap: round"/>
    <path d="M 328.351917 169.269529 
L 327.043543 164.993063 
L 331.24974 166.512244 
z
" clip-path="url(#p47f1251a8c)" style="stroke: #000000; stroke-linecap: round"/>
   </g>
   <g id="patch_34">
    <path d="M 323.089425 163.348868 
Q 261.438654 182.305619 200.856538 200.933774 
" clip-path="url(#p47f1251a8c)" style="fill: none; stroke: #000000; stroke-linecap: round"/>
    <path d="M 205.267687 201.66982 
L 200.856538 200.933774 
L 204.092064 197.846482 
z
" clip-path="url(#p47f1251a8c)" style="stroke: #000000; stroke-linecap: round"/>
   </g>
   <g id="patch_35">
    <path d="M 326.272931 164.183173 
Q 355.438112 194.834898 383.832608 224.676657 
" clip-path="url(#p47f1251a8c)" style="fill: none; stroke: #000000; stroke-linecap: round"/>
    <path d="M 382.524235 220.400191 
L 383.832608 224.676657 
L 379.626411 223.157476 
z
" clip-path="url(#p47f1251a8c)" style="stroke: #000000; stroke-linecap: round"/>
   </g>
   <g id="patch_36">
    <path d="M 326.813674 162.294404 
Q 372.876838 150.358048 417.857715 138.702146 
" clip-path="url(#p47f1251a8c)" style="fill: none; stroke: #000000; stroke-linecap: round"/>
    <path d="M 413.483916 137.769472 
L 417.857715 138.702146 
L 414.487296 141.641581 
z
" clip-path="url(#p47f1251a8c)" style="stroke: #000000; stroke-linecap: round"/>
   </g>
   <g id="patch_37">
    <path d="M 324.101215 161.036158 
Q 307.492008 126.422819 291.366486 92.817472 
" clip-path="url(#p47f1251a8c)" style="fill: none; stroke: #000000; stroke-linecap: round"/>
    <path d="M 291.293819 97.289018 
L 291.366486 92.817472 
L 294.900122 95.558534 
z
" clip-path="url(#p47f1251a8c)" style="stroke: #000000; stroke-linecap: round"/>
   </g>
   <g id="patch_38">
    <path d="M 418.937738 138.422279 
Q 372.874574 150.358635 327.893697 162.014537 
" clip-path="url(#p47f1251a8c)" style="fill: none; stroke: #000000; stroke-linecap: round"/>
    <path d="M 332.267496 162.947211 
L 327.893697 162.014537 
L 331.264116 159.075102 
z
" clip-path="url(#p47f1251a8c)" style="stroke: #000000; stroke-linecap: round"/>
   </g>
   <g id="patch_39">
    <path d="M 288.144651 90.444436 
Q 240.698655 99.94818 194.348917 109.232336 
" clip-path="url(#p47f1251a8c)" style="fill: none; stroke: #000000; stroke-linecap: round"/>
    <path d="M 198.663819 110.407761 
L 194.348917 109.232336 
L 197.878198 106.48567 
z
" clip-path="url(#p47f1251a8c)" style="stroke: #000000; stroke-linecap: round"/>
   </g>
   <g id="patch_40">
    <path d="M 290.821438 88.285456 
Q 303.158336 60.025507 315.047922 32.79021 
" clip-path="url(#p47f1251a8c)" style="fill: none; stroke: #000000; stroke-linecap: round"/>
    <path d="M 311.614615 35.655939 
L 315.047922 32.79021 
L 315.280521 37.256293 
z
" clip-path="url(#p47f1251a8c)" style="stroke: #000000; stroke-linecap: round"/>
   </g>
   <g id="patch_41">
    <path d="M 290.882091 91.808001 
Q 307.491298 126.42134 323.61682 160.026686 
" clip-path="url(#p47f1251a8c)" style="fill: none; stroke: #000000; stroke-linecap: round"/>
    <path d="M 323.689488 155.555141 
L 323.61682 160.026686 
L 320.083184 157.285625 
z
" clip-path="url(#p47f1251a8c)" style="stroke: #000000; stroke-linecap: round"/>
   </g>
   <g id="PathCollection_1">
    <defs>
     <path id="mf0ca9a816b" d="M 0 1.936492 
C 0.513564 1.936492 1.006162 1.732451 1.369306 1.369306 
C 1.732451 1.006162 1.936492 0.513564 1.936492 0 
C 1.936492 -0.513564 1.732451 -1.006162 1.369306 -1.369306 
C 1.006162 -1.732451 0.513564 -1.936492 0 -1.936492 
C -0.513564 -1.936492 -1.006162 -1.732451 -1.369306 -1.369306 
C -1.732451 -1.006162 -1.936492 -0.513564 -1.936492 0 
C -1.936492 0.513564 -1.732451 1.006162 -1.369306 1.369306 
C -1.006162 1.732451 -0.513564 1.936492 0 1.936492 
z
" style="stroke: #1f78b4"/>
    </defs>
    <g clip-path="url(#p47f1251a8c)">
     <use xlink:href="#mf0ca9a816b" x="191.353343" y="109.83237" style="fill: #1f78b4; stroke: #1f78b4"/>
     <use xlink:href="#mf0ca9a816b" x="316.270319" y="29.990083" style="fill: #1f78b4; stroke: #1f78b4"/>
     <use xlink:href="#mf0ca9a816b" x="39.986777" y="168.757892" style="fill: #1f78b4; stroke: #1f78b4"/>
     <use xlink:href="#mf0ca9a816b" x="134.237875" y="171.420351" style="fill: #1f78b4; stroke: #1f78b4"/>
     <use xlink:href="#mf0ca9a816b" x="176.386082" y="231.877371" style="fill: #1f78b4; stroke: #1f78b4"/>
     <use xlink:href="#mf0ca9a816b" x="224.599585" y="280.500154" style="fill: #1f78b4; stroke: #1f78b4"/>
     <use xlink:href="#mf0ca9a816b" x="197.935476" y="201.83196" style="fill: #1f78b4; stroke: #1f78b4"/>
     <use xlink:href="#mf0ca9a816b" x="87.408768" y="207.225371" style="fill: #1f78b4; stroke: #1f78b4"/>
     <use xlink:href="#mf0ca9a816b" x="74.137128" y="264.702509" style="fill: #1f78b4; stroke: #1f78b4"/>
     <use xlink:href="#mf0ca9a816b" x="173.070506" y="276.729821" style="fill: #1f78b4; stroke: #1f78b4"/>
     <use xlink:href="#mf0ca9a816b" x="277.333249" y="315.609917" style="fill: #1f78b4; stroke: #1f78b4"/>
     <use xlink:href="#mf0ca9a816b" x="372.931916" y="290.784757" style="fill: #1f78b4; stroke: #1f78b4"/>
     <use xlink:href="#mf0ca9a816b" x="385.937962" y="226.889321" style="fill: #1f78b4; stroke: #1f78b4"/>
     <use xlink:href="#mf0ca9a816b" x="324.938189" y="162.780399" style="fill: #1f78b4; stroke: #1f78b4"/>
     <use xlink:href="#mf0ca9a816b" x="420.813223" y="137.936285" style="fill: #1f78b4; stroke: #1f78b4"/>
     <use xlink:href="#mf0ca9a816b" x="290.045118" y="90.06376" style="fill: #1f78b4; stroke: #1f78b4"/>
    </g>
   </g>
   <g id="text_1">
    <g clip-path="url(#p47f1251a8c)">
     <!-- 0 -->
     <g transform="translate(188.172093 112.591745) scale(0.1 -0.1)">
      <defs>
       <path id="DejaVuSans-30" d="M 2034 4250 
Q 1547 4250 1301 3770 
Q 1056 3291 1056 2328 
Q 1056 1369 1301 889 
Q 1547 409 2034 409 
Q 2525 409 2770 889 
Q 3016 1369 3016 2328 
Q 3016 3291 2770 3770 
Q 2525 4250 2034 4250 
z
M 2034 4750 
Q 2819 4750 3233 4129 
Q 3647 3509 3647 2328 
Q 3647 1150 3233 529 
Q 2819 -91 2034 -91 
Q 1250 -91 836 529 
Q 422 1150 422 2328 
Q 422 3509 836 4129 
Q 1250 4750 2034 4750 
z
" transform="scale(0.015625)"/>
      </defs>
      <use xlink:href="#DejaVuSans-30"/>
     </g>
    </g>
   </g>
   <g id="text_2">
    <g clip-path="url(#p47f1251a8c)">
     <!-- 1 -->
     <g transform="translate(313.089069 32.749458) scale(0.1 -0.1)">
      <defs>
       <path id="DejaVuSans-31" d="M 794 531 
L 1825 531 
L 1825 4091 
L 703 3866 
L 703 4441 
L 1819 4666 
L 2450 4666 
L 2450 531 
L 3481 531 
L 3481 0 
L 794 0 
L 794 531 
z
" transform="scale(0.015625)"/>
      </defs>
      <use xlink:href="#DejaVuSans-31"/>
     </g>
    </g>
   </g>
   <g id="text_3">
    <g clip-path="url(#p47f1251a8c)">
     <!-- 2 -->
     <g transform="translate(36.805527 171.517267) scale(0.1 -0.1)">
      <defs>
       <path id="DejaVuSans-32" d="M 1228 531 
L 3431 531 
L 3431 0 
L 469 0 
L 469 531 
Q 828 903 1448 1529 
Q 2069 2156 2228 2338 
Q 2531 2678 2651 2914 
Q 2772 3150 2772 3378 
Q 2772 3750 2511 3984 
Q 2250 4219 1831 4219 
Q 1534 4219 1204 4116 
Q 875 4013 500 3803 
L 500 4441 
Q 881 4594 1212 4672 
Q 1544 4750 1819 4750 
Q 2544 4750 2975 4387 
Q 3406 4025 3406 3419 
Q 3406 3131 3298 2873 
Q 3191 2616 2906 2266 
Q 2828 2175 2409 1742 
Q 1991 1309 1228 531 
z
" transform="scale(0.015625)"/>
      </defs>
      <use xlink:href="#DejaVuSans-32"/>
     </g>
    </g>
   </g>
   <g id="text_4">
    <g clip-path="url(#p47f1251a8c)">
     <!-- 3 -->
     <g transform="translate(131.056625 174.179726) scale(0.1 -0.1)">
      <defs>
       <path id="DejaVuSans-33" d="M 2597 2516 
Q 3050 2419 3304 2112 
Q 3559 1806 3559 1356 
Q 3559 666 3084 287 
Q 2609 -91 1734 -91 
Q 1441 -91 1130 -33 
Q 819 25 488 141 
L 488 750 
Q 750 597 1062 519 
Q 1375 441 1716 441 
Q 2309 441 2620 675 
Q 2931 909 2931 1356 
Q 2931 1769 2642 2001 
Q 2353 2234 1838 2234 
L 1294 2234 
L 1294 2753 
L 1863 2753 
Q 2328 2753 2575 2939 
Q 2822 3125 2822 3475 
Q 2822 3834 2567 4026 
Q 2313 4219 1838 4219 
Q 1578 4219 1281 4162 
Q 984 4106 628 3988 
L 628 4550 
Q 988 4650 1302 4700 
Q 1616 4750 1894 4750 
Q 2613 4750 3031 4423 
Q 3450 4097 3450 3541 
Q 3450 3153 3228 2886 
Q 3006 2619 2597 2516 
z
" transform="scale(0.015625)"/>
      </defs>
      <use xlink:href="#DejaVuSans-33"/>
     </g>
    </g>
   </g>
   <g id="text_5">
    <g clip-path="url(#p47f1251a8c)">
     <!-- 4 -->
     <g transform="translate(173.204832 234.636746) scale(0.1 -0.1)">
      <defs>
       <path id="DejaVuSans-34" d="M 2419 4116 
L 825 1625 
L 2419 1625 
L 2419 4116 
z
M 2253 4666 
L 3047 4666 
L 3047 1625 
L 3713 1625 
L 3713 1100 
L 3047 1100 
L 3047 0 
L 2419 0 
L 2419 1100 
L 313 1100 
L 313 1709 
L 2253 4666 
z
" transform="scale(0.015625)"/>
      </defs>
      <use xlink:href="#DejaVuSans-34"/>
     </g>
    </g>
   </g>
   <g id="text_6">
    <g clip-path="url(#p47f1251a8c)">
     <!-- 5 -->
     <g transform="translate(221.418335 283.259529) scale(0.1 -0.1)">
      <defs>
       <path id="DejaVuSans-35" d="M 691 4666 
L 3169 4666 
L 3169 4134 
L 1269 4134 
L 1269 2991 
Q 1406 3038 1543 3061 
Q 1681 3084 1819 3084 
Q 2600 3084 3056 2656 
Q 3513 2228 3513 1497 
Q 3513 744 3044 326 
Q 2575 -91 1722 -91 
Q 1428 -91 1123 -41 
Q 819 9 494 109 
L 494 744 
Q 775 591 1075 516 
Q 1375 441 1709 441 
Q 2250 441 2565 725 
Q 2881 1009 2881 1497 
Q 2881 1984 2565 2268 
Q 2250 2553 1709 2553 
Q 1456 2553 1204 2497 
Q 953 2441 691 2322 
L 691 4666 
z
" transform="scale(0.015625)"/>
      </defs>
      <use xlink:href="#DejaVuSans-35"/>
     </g>
    </g>
   </g>
   <g id="text_7">
    <g clip-path="url(#p47f1251a8c)">
     <!-- 6 -->
     <g transform="translate(194.754226 204.591335) scale(0.1 -0.1)">
      <defs>
       <path id="DejaVuSans-36" d="M 2113 2584 
Q 1688 2584 1439 2293 
Q 1191 2003 1191 1497 
Q 1191 994 1439 701 
Q 1688 409 2113 409 
Q 2538 409 2786 701 
Q 3034 994 3034 1497 
Q 3034 2003 2786 2293 
Q 2538 2584 2113 2584 
z
M 3366 4563 
L 3366 3988 
Q 3128 4100 2886 4159 
Q 2644 4219 2406 4219 
Q 1781 4219 1451 3797 
Q 1122 3375 1075 2522 
Q 1259 2794 1537 2939 
Q 1816 3084 2150 3084 
Q 2853 3084 3261 2657 
Q 3669 2231 3669 1497 
Q 3669 778 3244 343 
Q 2819 -91 2113 -91 
Q 1303 -91 875 529 
Q 447 1150 447 2328 
Q 447 3434 972 4092 
Q 1497 4750 2381 4750 
Q 2619 4750 2861 4703 
Q 3103 4656 3366 4563 
z
" transform="scale(0.015625)"/>
      </defs>
      <use xlink:href="#DejaVuSans-36"/>
     </g>
    </g>
   </g>
   <g id="text_8">
    <g clip-path="url(#p47f1251a8c)">
     <!-- 7 -->
     <g transform="translate(84.227518 209.984746) scale(0.1 -0.1)">
      <defs>
       <path id="DejaVuSans-37" d="M 525 4666 
L 3525 4666 
L 3525 4397 
L 1831 0 
L 1172 0 
L 2766 4134 
L 525 4134 
L 525 4666 
z
" transform="scale(0.015625)"/>
      </defs>
      <use xlink:href="#DejaVuSans-37"/>
     </g>
    </g>
   </g>
   <g id="text_9">
    <g clip-path="url(#p47f1251a8c)">
     <!-- 8 -->
     <g transform="translate(70.955878 267.461884) scale(0.1 -0.1)">
      <defs>
       <path id="DejaVuSans-38" d="M 2034 2216 
Q 1584 2216 1326 1975 
Q 1069 1734 1069 1313 
Q 1069 891 1326 650 
Q 1584 409 2034 409 
Q 2484 409 2743 651 
Q 3003 894 3003 1313 
Q 3003 1734 2745 1975 
Q 2488 2216 2034 2216 
z
M 1403 2484 
Q 997 2584 770 2862 
Q 544 3141 544 3541 
Q 544 4100 942 4425 
Q 1341 4750 2034 4750 
Q 2731 4750 3128 4425 
Q 3525 4100 3525 3541 
Q 3525 3141 3298 2862 
Q 3072 2584 2669 2484 
Q 3125 2378 3379 2068 
Q 3634 1759 3634 1313 
Q 3634 634 3220 271 
Q 2806 -91 2034 -91 
Q 1263 -91 848 271 
Q 434 634 434 1313 
Q 434 1759 690 2068 
Q 947 2378 1403 2484 
z
M 1172 3481 
Q 1172 3119 1398 2916 
Q 1625 2713 2034 2713 
Q 2441 2713 2670 2916 
Q 2900 3119 2900 3481 
Q 2900 3844 2670 4047 
Q 2441 4250 2034 4250 
Q 1625 4250 1398 4047 
Q 1172 3844 1172 3481 
z
" transform="scale(0.015625)"/>
      </defs>
      <use xlink:href="#DejaVuSans-38"/>
     </g>
    </g>
   </g>
   <g id="text_10">
    <g clip-path="url(#p47f1251a8c)">
     <!-- 9 -->
     <g transform="translate(169.889256 279.489196) scale(0.1 -0.1)">
      <defs>
       <path id="DejaVuSans-39" d="M 703 97 
L 703 672 
Q 941 559 1184 500 
Q 1428 441 1663 441 
Q 2288 441 2617 861 
Q 2947 1281 2994 2138 
Q 2813 1869 2534 1725 
Q 2256 1581 1919 1581 
Q 1219 1581 811 2004 
Q 403 2428 403 3163 
Q 403 3881 828 4315 
Q 1253 4750 1959 4750 
Q 2769 4750 3195 4129 
Q 3622 3509 3622 2328 
Q 3622 1225 3098 567 
Q 2575 -91 1691 -91 
Q 1453 -91 1209 -44 
Q 966 3 703 97 
z
M 1959 2075 
Q 2384 2075 2632 2365 
Q 2881 2656 2881 3163 
Q 2881 3666 2632 3958 
Q 2384 4250 1959 4250 
Q 1534 4250 1286 3958 
Q 1038 3666 1038 3163 
Q 1038 2656 1286 2365 
Q 1534 2075 1959 2075 
z
" transform="scale(0.015625)"/>
      </defs>
      <use xlink:href="#DejaVuSans-39"/>
     </g>
    </g>
   </g>
   <g id="text_11">
    <g clip-path="url(#p47f1251a8c)">
     <!-- 10 -->
     <g transform="translate(270.970749 318.369292) scale(0.1 -0.1)">
      <use xlink:href="#DejaVuSans-31"/>
      <use xlink:href="#DejaVuSans-30" x="63.623047"/>
     </g>
    </g>
   </g>
   <g id="text_12">
    <g clip-path="url(#p47f1251a8c)">
     <!-- 11 -->
     <g transform="translate(366.569416 293.544132) scale(0.1 -0.1)">
      <use xlink:href="#DejaVuSans-31"/>
      <use xlink:href="#DejaVuSans-31" x="63.623047"/>
     </g>
    </g>
   </g>
   <g id="text_13">
    <g clip-path="url(#p47f1251a8c)">
     <!-- 12 -->
     <g transform="translate(379.575462 229.648696) scale(0.1 -0.1)">
      <use xlink:href="#DejaVuSans-31"/>
      <use xlink:href="#DejaVuSans-32" x="63.623047"/>
     </g>
    </g>
   </g>
   <g id="text_14">
    <g clip-path="url(#p47f1251a8c)">
     <!-- 13 -->
     <g transform="translate(318.575689 165.539774) scale(0.1 -0.1)">
      <use xlink:href="#DejaVuSans-31"/>
      <use xlink:href="#DejaVuSans-33" x="63.623047"/>
     </g>
    </g>
   </g>
   <g id="text_15">
    <g clip-path="url(#p47f1251a8c)">
     <!-- 14 -->
     <g transform="translate(414.450723 140.69566) scale(0.1 -0.1)">
      <use xlink:href="#DejaVuSans-31"/>
      <use xlink:href="#DejaVuSans-34" x="63.623047"/>
     </g>
    </g>
   </g>
   <g id="text_16">
    <g clip-path="url(#p47f1251a8c)">
     <!-- 15 -->
     <g transform="translate(283.682618 92.823135) scale(0.1 -0.1)">
      <use xlink:href="#DejaVuSans-31"/>
      <use xlink:href="#DejaVuSans-35" x="63.623047"/>
     </g>
    </g>
   </g>
  </g>
 </g>
 <defs>
  <clipPath id="p47f1251a8c">
   <rect x="0" y="0" width="460.8" height="345.6"/>
  </clipPath>
 </defs>
</svg>
