<?xml version="1.0" encoding="utf-8" standalone="no"?>
<!DOCTYPE svg PUBLIC "-//W3C//DTD SVG 1.1//EN"
  "http://www.w3.org/Graphics/SVG/1.1/DTD/svg11.dtd">
<svg xmlns:xlink="http://www.w3.org/1999/xlink" width="460.8pt" height="345.6pt" viewBox="0 0 460.8 345.6" xmlns="http://www.w3.org/2000/svg" version="1.1">
 <metadata>
  <rdf:RDF xmlns:dc="http://purl.org/dc/elements/1.1/" xmlns:cc="http://creativecommons.org/ns#" xmlns:rdf="http://www.w3.org/1999/02/22-rdf-syntax-ns#">
   <cc:Work>
    <dc:type rdf:resource="http://purl.org/dc/dcmitype/StillImage"/>
    <dc:date>2024-02-28T11:18:29.177995</dc:date>
    <dc:format>image/svg+xml</dc:format>
    <dc:creator>
     <cc:Agent>
      <dc:title>Matplotlib v3.8.0, https://matplotlib.org/</dc:title>
     </cc:Agent>
    </dc:creator>
   </cc:Work>
  </rdf:RDF>
 </metadata>
 <defs>
  <style type="text/css">*{stroke-linejoin: round; stroke-linecap: butt}</style>
 </defs>
 <g id="figure_1">
  <g id="patch_1">
   <path d="M 0 345.6 
L 460.8 345.6 
L 460.8 0 
L 0 0 
z
" style="fill: #ffffff"/>
  </g>
  <g id="axes_1">
   <g id="patch_2">
    <path d="M 228.075226 172.070142 
Q 134.962317 145.408971 42.924249 119.055561 
" clip-path="url(#p75b91915b2)" style="fill: none; stroke: #000000; stroke-linecap: round"/>
    <path d="M 46.219178 122.079374 
L 42.924249 119.055561 
L 47.320257 118.233906 
z
" clip-path="url(#p75b91915b2)" style="stroke: #000000; stroke-linecap: round"/>
   </g>
   <g id="patch_3">
    <path d="M 229.07836 174.336365 
Q 194.425115 244.104409 160.269219 312.871131 
" clip-path="url(#p75b91915b2)" style="fill: none; stroke: #000000; stroke-linecap: round"/>
    <path d="M 163.839805 310.178379 
L 160.269219 312.871131 
L 160.257369 308.399011 
z
" clip-path="url(#p75b91915b2)" style="stroke: #000000; stroke-linecap: round"/>
   </g>
   <g id="patch_4">
    <path d="M 230.814491 170.875944 
Q 266.074147 101.295062 300.82843 32.711476 
" clip-path="url(#p75b91915b2)" style="fill: none; stroke: #000000; stroke-linecap: round"/>
    <path d="M 297.236336 35.37547 
L 300.82843 32.711476 
L 300.804369 37.183547 
z
" clip-path="url(#p75b91915b2)" style="stroke: #000000; stroke-linecap: round"/>
   </g>
   <g id="patch_5">
    <path d="M 231.800017 173.131903 
Q 325.376494 199.686281 417.877404 225.935442 
" clip-path="url(#p75b91915b2)" style="fill: none; stroke: #000000; stroke-linecap: round"/>
    <path d="M 414.575326 222.919438 
L 417.877404 225.935442 
L 413.483354 226.767502 
z
" clip-path="url(#p75b91915b2)" style="stroke: #000000; stroke-linecap: round"/>
   </g>
   <g id="patch_6">
    <path d="M 41.850474 118.748105 
Q 134.963382 145.409276 227.00145 171.762686 
" clip-path="url(#p75b91915b2)" style="fill: none; stroke: #000000; stroke-linecap: round"/>
    <path d="M 223.706522 168.738873 
L 227.00145 171.762686 
L 222.605442 172.584341 
z
" clip-path="url(#p75b91915b2)" style="stroke: #000000; stroke-linecap: round"/>
   </g>
   <g id="patch_7">
    <path d="M 159.769448 313.87733 
Q 194.422693 244.109286 228.578589 175.342563 
" clip-path="url(#p75b91915b2)" style="fill: none; stroke: #000000; stroke-linecap: round"/>
    <path d="M 225.008002 178.035315 
L 228.578589 175.342563 
L 228.590439 179.814683 
z
" clip-path="url(#p75b91915b2)" style="stroke: #000000; stroke-linecap: round"/>
   </g>
   <g id="patch_8">
    <path d="M 301.33191 31.717916 
Q 266.072254 101.298798 231.31797 169.882384 
" clip-path="url(#p75b91915b2)" style="fill: none; stroke: #000000; stroke-linecap: round"/>
    <path d="M 234.910064 167.21839 
L 231.31797 169.882384 
L 231.342031 165.410313 
z
" clip-path="url(#p75b91915b2)" style="stroke: #000000; stroke-linecap: round"/>
   </g>
   <g id="patch_9">
    <path d="M 418.952129 226.240419 
Q 325.375652 199.686042 232.874742 173.43688 
" clip-path="url(#p75b91915b2)" style="fill: none; stroke: #000000; stroke-linecap: round"/>
    <path d="M 236.176819 176.452885 
L 232.874742 173.43688 
L 237.268792 172.604821 
z
" clip-path="url(#p75b91915b2)" style="stroke: #000000; stroke-linecap: round"/>
   </g>
   <g id="PathCollection_1">
    <defs>
     <path id="m5f1b8ccac1" d="M 0 1.936492 
C 0.513564 1.936492 1.006162 1.732451 1.369306 1.369306 
C 1.732451 1.006162 1.936492 0.513564 1.936492 0 
C 1.936492 -0.513564 1.732451 -1.006162 1.369306 -1.369306 
C 1.006162 -1.732451 0.513564 -1.936492 0 -1.936492 
C -0.513564 -1.936492 -1.006162 -1.732451 -1.369306 -1.369306 
C -1.732451 -1.006162 -1.936492 -0.513564 -1.936492 0 
C -1.936492 0.513564 -1.732451 1.006162 -1.369306 1.369306 
C -1.006162 1.732451 -0.513564 1.936492 0 1.936492 
z
" style="stroke: #1f78b4"/>
    </defs>
    <g clip-path="url(#p75b91915b2)">
     <use xlink:href="#m5f1b8ccac1" x="229.938922" y="172.603777" style="fill: #1f78b4; stroke: #1f78b4"/>
     <use xlink:href="#m5f1b8ccac1" x="39.986777" y="118.214469" style="fill: #1f78b4; stroke: #1f78b4"/>
     <use xlink:href="#m5f1b8ccac1" x="158.908886" y="315.609917" style="fill: #1f78b4; stroke: #1f78b4"/>
     <use xlink:href="#m5f1b8ccac1" x="302.207478" y="29.990083" style="fill: #1f78b4; stroke: #1f78b4"/>
     <use xlink:href="#m5f1b8ccac1" x="420.813223" y="226.768545" style="fill: #1f78b4; stroke: #1f78b4"/>
    </g>
   </g>
   <g id="text_1">
    <g clip-path="url(#p75b91915b2)">
     <!-- 0 -->
     <g transform="translate(226.757672 175.363152) scale(0.1 -0.1)">
      <defs>
       <path id="DejaVuSans-30" d="M 2034 4250 
Q 1547 4250 1301 3770 
Q 1056 3291 1056 2328 
Q 1056 1369 1301 889 
Q 1547 409 2034 409 
Q 2525 409 2770 889 
Q 3016 1369 3016 2328 
Q 3016 3291 2770 3770 
Q 2525 4250 2034 4250 
z
M 2034 4750 
Q 2819 4750 3233 4129 
Q 3647 3509 3647 2328 
Q 3647 1150 3233 529 
Q 2819 -91 2034 -91 
Q 1250 -91 836 529 
Q 422 1150 422 2328 
Q 422 3509 836 4129 
Q 1250 4750 2034 4750 
z
" transform="scale(0.015625)"/>
      </defs>
      <use xlink:href="#DejaVuSans-30"/>
     </g>
    </g>
   </g>
   <g id="text_2">
    <g clip-path="url(#p75b91915b2)">
     <!-- 1 -->
     <g transform="translate(36.805527 120.973844) scale(0.1 -0.1)">
      <defs>
       <path id="DejaVuSans-31" d="M 794 531 
L 1825 531 
L 1825 4091 
L 703 3866 
L 703 4441 
L 1819 4666 
L 2450 4666 
L 2450 531 
L 3481 531 
L 3481 0 
L 794 0 
L 794 531 
z
" transform="scale(0.015625)"/>
      </defs>
      <use xlink:href="#DejaVuSans-31"/>
     </g>
    </g>
   </g>
   <g id="text_3">
    <g clip-path="url(#p75b91915b2)">
     <!-- 2 -->
     <g transform="translate(155.727636 318.369292) scale(0.1 -0.1)">
      <defs>
       <path id="DejaVuSans-32" d="M 1228 531 
L 3431 531 
L 3431 0 
L 469 0 
L 469 531 
Q 828 903 1448 1529 
Q 2069 2156 2228 2338 
Q 2531 2678 2651 2914 
Q 2772 3150 2772 3378 
Q 2772 3750 2511 3984 
Q 2250 4219 1831 4219 
Q 1534 4219 1204 4116 
Q 875 4013 500 3803 
L 500 4441 
Q 881 4594 1212 4672 
Q 1544 4750 1819 4750 
Q 2544 4750 2975 4387 
Q 3406 4025 3406 3419 
Q 3406 3131 3298 2873 
Q 3191 2616 2906 2266 
Q 2828 2175 2409 1742 
Q 1991 1309 1228 531 
z
" transform="scale(0.015625)"/>
      </defs>
      <use xlink:href="#DejaVuSans-32"/>
     </g>
    </g>
   </g>
   <g id="text_4">
    <g clip-path="url(#p75b91915b2)">
     <!-- 3 -->
     <g transform="translate(299.026228 32.749458) scale(0.1 -0.1)">
      <defs>
       <path id="DejaVuSans-33" d="M 2597 2516 
Q 3050 2419 3304 2112 
Q 3559 1806 3559 1356 
Q 3559 666 3084 287 
Q 2609 -91 1734 -91 
Q 1441 -91 1130 -33 
Q 819 25 488 141 
L 488 750 
Q 750 597 1062 519 
Q 1375 441 1716 441 
Q 2309 441 2620 675 
Q 2931 909 2931 1356 
Q 2931 1769 2642 2001 
Q 2353 2234 1838 2234 
L 1294 2234 
L 1294 2753 
L 1863 2753 
Q 2328 2753 2575 2939 
Q 2822 3125 2822 3475 
Q 2822 3834 2567 4026 
Q 2313 4219 1838 4219 
Q 1578 4219 1281 4162 
Q 984 4106 628 3988 
L 628 4550 
Q 988 4650 1302 4700 
Q 1616 4750 1894 4750 
Q 2613 4750 3031 4423 
Q 3450 4097 3450 3541 
Q 3450 3153 3228 2886 
Q 3006 2619 2597 2516 
z
" transform="scale(0.015625)"/>
      </defs>
      <use xlink:href="#DejaVuSans-33"/>
     </g>
    </g>
   </g>
   <g id="text_5">
    <g clip-path="url(#p75b91915b2)">
     <!-- 4 -->
     <g transform="translate(417.631973 229.52792) scale(0.1 -0.1)">
      <defs>
       <path id="DejaVuSans-34" d="M 2419 4116 
L 825 1625 
L 2419 1625 
L 2419 4116 
z
M 2253 4666 
L 3047 4666 
L 3047 1625 
L 3713 1625 
L 3713 1100 
L 3047 1100 
L 3047 0 
L 2419 0 
L 2419 1100 
L 313 1100 
L 313 1709 
L 2253 4666 
z
" transform="scale(0.015625)"/>
      </defs>
      <use xlink:href="#DejaVuSans-34"/>
     </g>
    </g>
   </g>
  </g>
 </g>
 <defs>
  <clipPath id="p75b91915b2">
   <rect x="0" y="0" width="460.8" height="345.6"/>
  </clipPath>
 </defs>
</svg>
