<?xml version="1.0" encoding="utf-8" standalone="no"?>
<!DOCTYPE svg PUBLIC "-//W3C//DTD SVG 1.1//EN"
  "http://www.w3.org/Graphics/SVG/1.1/DTD/svg11.dtd">
<svg xmlns:xlink="http://www.w3.org/1999/xlink" width="460.8pt" height="345.6pt" viewBox="0 0 460.8 345.6" xmlns="http://www.w3.org/2000/svg" version="1.1">
 <metadata>
  <rdf:RDF xmlns:dc="http://purl.org/dc/elements/1.1/" xmlns:cc="http://creativecommons.org/ns#" xmlns:rdf="http://www.w3.org/1999/02/22-rdf-syntax-ns#">
   <cc:Work>
    <dc:type rdf:resource="http://purl.org/dc/dcmitype/StillImage"/>
    <dc:date>2024-02-28T11:18:30.105151</dc:date>
    <dc:format>image/svg+xml</dc:format>
    <dc:creator>
     <cc:Agent>
      <dc:title>Matplotlib v3.8.0, https://matplotlib.org/</dc:title>
     </cc:Agent>
    </dc:creator>
   </cc:Work>
  </rdf:RDF>
 </metadata>
 <defs>
  <style type="text/css">*{stroke-linejoin: round; stroke-linecap: butt}</style>
 </defs>
 <g id="figure_1">
  <g id="patch_1">
   <path d="M 0 345.6 
L 460.8 345.6 
L 460.8 0 
L 0 0 
z
" style="fill: #ffffff"/>
  </g>
  <g id="axes_1">
   <g id="patch_2">
    <path d="M 255.792141 234.560797 
Q 261.990405 266.483145 267.975563 297.307956 
" clip-path="url(#p2243667e7d)" style="fill: none; stroke: #000000; stroke-linecap: round"/>
    <path d="M 269.176467 293.000076 
L 267.975563 297.307956 
L 265.249802 293.762504 
z
" clip-path="url(#p2243667e7d)" style="stroke: #000000; stroke-linecap: round"/>
   </g>
   <g id="patch_3">
    <path d="M 254.656358 230.876824 
Q 239.451383 195.541902 224.688332 161.233967 
" clip-path="url(#p2243667e7d)" style="fill: none; stroke: #000000; stroke-linecap: round"/>
    <path d="M 224.432273 165.698766 
L 224.688332 161.233967 
L 228.106536 164.117694 
z
" clip-path="url(#p2243667e7d)" style="stroke: #000000; stroke-linecap: round"/>
   </g>
   <g id="patch_4">
    <path d="M 268.187619 298.400088 
Q 261.989355 266.47774 256.004197 235.652929 
" clip-path="url(#p2243667e7d)" style="fill: none; stroke: #000000; stroke-linecap: round"/>
    <path d="M 254.803293 239.960809 
L 256.004197 235.652929 
L 258.729958 239.198381 
z
" clip-path="url(#p2243667e7d)" style="stroke: #000000; stroke-linecap: round"/>
   </g>
   <g id="patch_5">
    <path d="M 267.312718 298.821109 
Q 261.326582 291.690744 256.059319 285.416663 
" clip-path="url(#p2243667e7d)" style="fill: none; stroke: #000000; stroke-linecap: round"/>
    <path d="M 257.099472 289.766155 
L 256.059319 285.416663 
L 260.163005 287.194236 
z
" clip-path="url(#p2243667e7d)" style="stroke: #000000; stroke-linecap: round"/>
   </g>
   <g id="patch_6">
    <path d="M 144.706117 125.36749 
Q 132.746428 142.187812 121.434614 158.09695 
" clip-path="url(#p2243667e7d)" style="fill: none; stroke: #000000; stroke-linecap: round"/>
    <path d="M 125.382501 155.995954 
L 121.434614 158.09695 
L 122.122549 153.678043 
z
" clip-path="url(#p2243667e7d)" style="stroke: #000000; stroke-linecap: round"/>
   </g>
   <g id="patch_7">
    <path d="M 280.712015 159.512124 
Q 253.065142 158.98691 226.536102 158.482932 
" clip-path="url(#p2243667e7d)" style="fill: none; stroke: #000000; stroke-linecap: round"/>
    <path d="M 230.497393 160.558547 
L 226.536102 158.482932 
L 230.573368 156.559268 
z
" clip-path="url(#p2243667e7d)" style="stroke: #000000; stroke-linecap: round"/>
   </g>
   <g id="patch_8">
    <path d="M 282.408579 161.469869 
Q 280.077632 179.907566 277.886913 197.236059 
" clip-path="url(#p2243667e7d)" style="fill: none; stroke: #000000; stroke-linecap: round"/>
    <path d="M 280.372817 193.518495 
L 277.886913 197.236059 
L 276.404405 193.016797 
z
" clip-path="url(#p2243667e7d)" style="stroke: #000000; stroke-linecap: round"/>
   </g>
   <g id="patch_9">
    <path d="M 117.614729 104.317897 
Q 118.603816 131.486229 119.552226 157.537266 
" clip-path="url(#p2243667e7d)" style="fill: none; stroke: #000000; stroke-linecap: round"/>
    <path d="M 121.405375 153.467151 
L 119.552226 157.537266 
L 117.408023 153.612678 
z
" clip-path="url(#p2243667e7d)" style="stroke: #000000; stroke-linecap: round"/>
   </g>
   <g id="patch_10">
    <path d="M 174.096464 285.969413 
Q 197.079684 261.342889 219.300076 237.533736 
" clip-path="url(#p2243667e7d)" style="fill: none; stroke: #000000; stroke-linecap: round"/>
    <path d="M 215.108745 239.09346 
L 219.300076 237.533736 
L 218.033057 241.822635 
z
" clip-path="url(#p2243667e7d)" style="stroke: #000000; stroke-linecap: round"/>
   </g>
   <g id="patch_11">
    <path d="M 170.853155 287.607402 
Q 145.280377 290.578553 120.818162 293.420674 
" clip-path="url(#p2243667e7d)" style="fill: none; stroke: #000000; stroke-linecap: round"/>
    <path d="M 125.022251 294.94568 
L 120.818162 293.420674 
L 124.560619 290.972407 
z
" clip-path="url(#p2243667e7d)" style="stroke: #000000; stroke-linecap: round"/>
   </g>
   <g id="patch_12">
    <path d="M 255.341067 284.56112 
Q 261.327203 291.691484 266.594466 297.965566 
" clip-path="url(#p2243667e7d)" style="fill: none; stroke: #000000; stroke-linecap: round"/>
    <path d="M 265.554313 293.616073 
L 266.594466 297.965566 
L 262.49078 296.187993 
z
" clip-path="url(#p2243667e7d)" style="stroke: #000000; stroke-linecap: round"/>
   </g>
   <g id="patch_13">
    <path d="M 253.004372 281.483722 
Q 237.740285 259.192509 223.107877 237.823782 
" clip-path="url(#p2243667e7d)" style="fill: none; stroke: #000000; stroke-linecap: round"/>
    <path d="M 223.71765 242.254152 
L 223.107877 237.823782 
L 227.018037 239.994186 
z
" clip-path="url(#p2243667e7d)" style="stroke: #000000; stroke-linecap: round"/>
   </g>
   <g id="patch_14">
    <path d="M 256.02328 282.923788 
Q 274.279034 281.455299 291.420354 280.076455 
" clip-path="url(#p2243667e7d)" style="fill: none; stroke: #000000; stroke-linecap: round"/>
    <path d="M 287.272871 278.403618 
L 291.420354 280.076455 
L 287.593595 282.390739 
z
" clip-path="url(#p2243667e7d)" style="stroke: #000000; stroke-linecap: round"/>
   </g>
   <g id="patch_15">
    <path d="M 277.747066 198.342242 
Q 280.078014 179.904545 282.268733 162.576052 
" clip-path="url(#p2243667e7d)" style="fill: none; stroke: #000000; stroke-linecap: round"/>
    <path d="M 279.782828 166.293616 
L 282.268733 162.576052 
L 283.75124 166.795314 
z
" clip-path="url(#p2243667e7d)" style="stroke: #000000; stroke-linecap: round"/>
   </g>
   <g id="patch_16">
    <path d="M 275.863435 201.287568 
Q 249.442321 217.783578 223.969576 233.687475 
" clip-path="url(#p2243667e7d)" style="fill: none; stroke: #000000; stroke-linecap: round"/>
    <path d="M 228.421765 233.265559 
L 223.969576 233.687475 
L 226.303356 229.872574 
z
" clip-path="url(#p2243667e7d)" style="stroke: #000000; stroke-linecap: round"/>
   </g>
   <g id="patch_17">
    <path d="M 310.684499 260.920504 
Q 335.341169 276.290741 359.049055 291.069533 
" clip-path="url(#p2243667e7d)" style="fill: none; stroke: #000000; stroke-linecap: round"/>
    <path d="M 356.712586 287.256278 
L 359.049055 291.069533 
L 354.596569 290.650755 
z
" clip-path="url(#p2243667e7d)" style="stroke: #000000; stroke-linecap: round"/>
   </g>
   <g id="patch_18">
    <path d="M 307.179345 259.374708 
Q 265.214027 247.600805 224.325178 236.128919 
" clip-path="url(#p2243667e7d)" style="fill: none; stroke: #000000; stroke-linecap: round"/>
    <path d="M 227.636206 239.135095 
L 224.325178 236.128919 
L 228.716735 235.283802 
z
" clip-path="url(#p2243667e7d)" style="stroke: #000000; stroke-linecap: round"/>
   </g>
   <g id="patch_19">
    <path d="M 360.002659 291.663981 
Q 335.345988 276.293745 311.638103 261.514953 
" clip-path="url(#p2243667e7d)" style="fill: none; stroke: #000000; stroke-linecap: round"/>
    <path d="M 313.974572 265.328208 
L 311.638103 261.514953 
L 316.090588 261.933731 
z
" clip-path="url(#p2243667e7d)" style="stroke: #000000; stroke-linecap: round"/>
   </g>
   <g id="patch_20">
    <path d="M 363.445288 293.384793 
Q 391.22763 304.148053 417.967439 314.507422 
" clip-path="url(#p2243667e7d)" style="fill: none; stroke: #000000; stroke-linecap: round"/>
    <path d="M 414.960067 311.19748 
L 417.967439 314.507422 
L 413.515063 314.927354 
z
" clip-path="url(#p2243667e7d)" style="stroke: #000000; stroke-linecap: round"/>
   </g>
   <g id="patch_21">
    <path d="M 359.74472 292.323357 
Q 328.054334 286.259357 297.462059 280.405481 
" clip-path="url(#p2243667e7d)" style="fill: none; stroke: #000000; stroke-linecap: round"/>
    <path d="M 301.014897 283.121608 
L 297.462059 280.405481 
L 301.766663 279.192887 
z
" clip-path="url(#p2243667e7d)" style="stroke: #000000; stroke-linecap: round"/>
   </g>
   <g id="patch_22">
    <path d="M 69.590415 112.18147 
Q 93.931569 135.712666 117.468892 158.466779 
" clip-path="url(#p2243667e7d)" style="fill: none; stroke: #000000; stroke-linecap: round"/>
    <path d="M 115.98311 154.248669 
L 117.468892 158.466779 
L 113.202935 157.124539 
z
" clip-path="url(#p2243667e7d)" style="stroke: #000000; stroke-linecap: round"/>
   </g>
   <g id="patch_23">
    <path d="M 77.661759 145.812751 
Q 97.748615 152.878959 116.780792 159.574149 
" clip-path="url(#p2243667e7d)" style="fill: none; stroke: #000000; stroke-linecap: round"/>
    <path d="M 113.671157 156.360091 
L 116.780792 159.574149 
L 112.343765 160.133422 
z
" clip-path="url(#p2243667e7d)" style="stroke: #000000; stroke-linecap: round"/>
   </g>
   <g id="patch_24">
    <path d="M 220.061681 236.717677 
Q 197.07846 261.3442 174.858068 285.153354 
" clip-path="url(#p2243667e7d)" style="fill: none; stroke: #000000; stroke-linecap: round"/>
    <path d="M 179.0494 283.59363 
L 174.858068 285.153354 
L 176.125088 280.864454 
z
" clip-path="url(#p2243667e7d)" style="stroke: #000000; stroke-linecap: round"/>
   </g>
   <g id="patch_25">
    <path d="M 222.474061 236.898176 
Q 237.738148 259.189389 252.370556 280.558115 
" clip-path="url(#p2243667e7d)" style="fill: none; stroke: #000000; stroke-linecap: round"/>
    <path d="M 251.760783 276.127746 
L 252.370556 280.558115 
L 248.460396 278.387712 
z
" clip-path="url(#p2243667e7d)" style="stroke: #000000; stroke-linecap: round"/>
   </g>
   <g id="patch_26">
    <path d="M 223.022623 234.278704 
Q 249.443737 217.782694 274.916482 201.878797 
" clip-path="url(#p2243667e7d)" style="fill: none; stroke: #000000; stroke-linecap: round"/>
    <path d="M 270.464293 202.300713 
L 274.916482 201.878797 
L 272.582702 205.693698 
z
" clip-path="url(#p2243667e7d)" style="stroke: #000000; stroke-linecap: round"/>
   </g>
   <g id="patch_27">
    <path d="M 223.246478 235.826276 
Q 265.211796 247.600179 306.100645 259.072065 
" clip-path="url(#p2243667e7d)" style="fill: none; stroke: #000000; stroke-linecap: round"/>
    <path d="M 302.789616 256.06589 
L 306.100645 259.072065 
L 301.709087 259.917182 
z
" clip-path="url(#p2243667e7d)" style="stroke: #000000; stroke-linecap: round"/>
   </g>
   <g id="patch_28">
    <path d="M 219.820424 234.156227 
Q 170.522809 197.945823 122.12627 162.397283 
" clip-path="url(#p2243667e7d)" style="fill: none; stroke: #000000; stroke-linecap: round"/>
    <path d="M 124.166077 166.377131 
L 122.12627 162.397283 
L 126.534032 163.153346 
z
" clip-path="url(#p2243667e7d)" style="stroke: #000000; stroke-linecap: round"/>
   </g>
   <g id="patch_29">
    <path d="M 223.034469 236.310075 
Q 257.921668 257.566834 291.854099 278.241853 
" clip-path="url(#p2243667e7d)" style="fill: none; stroke: #000000; stroke-linecap: round"/>
    <path d="M 289.478868 274.452621 
L 291.854099 278.241853 
L 287.397575 277.868499 
z
" clip-path="url(#p2243667e7d)" style="stroke: #000000; stroke-linecap: round"/>
   </g>
   <g id="patch_30">
    <path d="M 219.747503 234.267302 
Q 195.68554 219.017064 172.567918 204.36534 
" clip-path="url(#p2243667e7d)" style="fill: none; stroke: #000000; stroke-linecap: round"/>
    <path d="M 174.875841 208.195939 
L 172.567918 204.36534 
L 177.017151 204.817361 
z
" clip-path="url(#p2243667e7d)" style="stroke: #000000; stroke-linecap: round"/>
   </g>
   <g id="patch_31">
    <path d="M 120.785999 159.009174 
Q 132.745689 142.188852 144.057502 126.279714 
" clip-path="url(#p2243667e7d)" style="fill: none; stroke: #000000; stroke-linecap: round"/>
    <path d="M 140.109615 128.38071 
L 144.057502 126.279714 
L 143.369567 130.698621 
z
" clip-path="url(#p2243667e7d)" style="stroke: #000000; stroke-linecap: round"/>
   </g>
   <g id="patch_32">
    <path d="M 119.592808 158.651975 
Q 118.603721 131.483643 117.655311 105.432606 
" clip-path="url(#p2243667e7d)" style="fill: none; stroke: #000000; stroke-linecap: round"/>
    <path d="M 115.802162 109.502721 
L 117.655311 105.432606 
L 119.799514 109.357194 
z
" clip-path="url(#p2243667e7d)" style="stroke: #000000; stroke-linecap: round"/>
   </g>
   <g id="patch_33">
    <path d="M 118.271772 159.242943 
Q 93.930618 135.711747 70.393294 112.957633 
" clip-path="url(#p2243667e7d)" style="fill: none; stroke: #000000; stroke-linecap: round"/>
    <path d="M 71.879077 117.175743 
L 70.393294 112.957633 
L 74.659252 114.299873 
z
" clip-path="url(#p2243667e7d)" style="stroke: #000000; stroke-linecap: round"/>
   </g>
   <g id="patch_34">
    <path d="M 117.836212 159.945427 
Q 97.749356 152.879219 78.717179 146.184029 
" clip-path="url(#p2243667e7d)" style="fill: none; stroke: #000000; stroke-linecap: round"/>
    <path d="M 81.826814 149.398087 
L 78.717179 146.184029 
L 83.154206 145.624756 
z
" clip-path="url(#p2243667e7d)" style="stroke: #000000; stroke-linecap: round"/>
   </g>
   <g id="patch_35">
    <path d="M 121.224711 161.735064 
Q 170.522325 197.945468 218.918864 233.494008 
" clip-path="url(#p2243667e7d)" style="fill: none; stroke: #000000; stroke-linecap: round"/>
    <path d="M 216.879057 229.51416 
L 218.918864 233.494008 
L 214.511102 232.737945 
z
" clip-path="url(#p2243667e7d)" style="stroke: #000000; stroke-linecap: round"/>
   </g>
   <g id="patch_36">
    <path d="M 117.888386 159.808475 
Q 83.038766 144.4996 49.212769 129.640388 
" clip-path="url(#p2243667e7d)" style="fill: none; stroke: #000000; stroke-linecap: round"/>
    <path d="M 52.070617 133.080257 
L 49.212769 129.640388 
L 53.679373 129.418031 
z
" clip-path="url(#p2243667e7d)" style="stroke: #000000; stroke-linecap: round"/>
   </g>
   <g id="patch_37">
    <path d="M 117.732658 160.478222 
Q 79.825372 158.319565 43.034312 156.224473 
" clip-path="url(#p2243667e7d)" style="fill: none; stroke: #000000; stroke-linecap: round"/>
    <path d="M 46.914135 158.448652 
L 43.034312 156.224473 
L 47.141549 154.455122 
z
" clip-path="url(#p2243667e7d)" style="stroke: #000000; stroke-linecap: round"/>
   </g>
   <g id="patch_38">
    <path d="M 117.796725 161.098291 
Q 84.672619 170.150987 52.626996 178.908938 
" clip-path="url(#p2243667e7d)" style="fill: none; stroke: #000000; stroke-linecap: round"/>
    <path d="M 57.01275 179.783673 
L 52.626996 178.908938 
L 55.958237 175.925176 
z
" clip-path="url(#p2243667e7d)" style="stroke: #000000; stroke-linecap: round"/>
   </g>
   <g id="patch_39">
    <path d="M 121.146825 161.830483 
Q 144.822939 181.657068 167.641877 200.765846 
" clip-path="url(#p2243667e7d)" style="fill: none; stroke: #000000; stroke-linecap: round"/>
    <path d="M 165.8592 196.664375 
L 167.641877 200.765846 
L 163.291094 199.731104 
z
" clip-path="url(#p2243667e7d)" style="stroke: #000000; stroke-linecap: round"/>
   </g>
   <g id="patch_40">
    <path d="M 121.599079 160.547826 
Q 171.570815 159.506528 220.424759 158.488521 
" clip-path="url(#p2243667e7d)" style="fill: none; stroke: #000000; stroke-linecap: round"/>
    <path d="M 216.383961 156.572288 
L 220.424759 158.488521 
L 216.467294 160.57142 
z
" clip-path="url(#p2243667e7d)" style="stroke: #000000; stroke-linecap: round"/>
   </g>
   <g id="patch_41">
    <path d="M 119.317479 162.495234 
Q 112.668292 199.163391 106.218589 234.731454 
" clip-path="url(#p2243667e7d)" style="fill: none; stroke: #000000; stroke-linecap: round"/>
    <path d="M 108.900194 231.152488 
L 106.218589 234.731454 
L 104.964379 230.438791 
z
" clip-path="url(#p2243667e7d)" style="stroke: #000000; stroke-linecap: round"/>
   </g>
   <g id="patch_42">
    <path d="M 118.107812 161.734776 
Q 90.771764 181.885319 64.335667 201.37247 
" clip-path="url(#p2243667e7d)" style="fill: none; stroke: #000000; stroke-linecap: round"/>
    <path d="M 68.74214 200.60893 
L 64.335667 201.37247 
L 66.368719 197.389167 
z
" clip-path="url(#p2243667e7d)" style="stroke: #000000; stroke-linecap: round"/>
   </g>
   <g id="patch_43">
    <path d="M 118.53503 162.158893 
Q 106.327067 179.154354 94.771363 195.241763 
" clip-path="url(#p2243667e7d)" style="fill: none; stroke: #000000; stroke-linecap: round"/>
    <path d="M 98.729331 193.159818 
L 94.771363 195.241763 
L 95.480588 190.826222 
z
" clip-path="url(#p2243667e7d)" style="stroke: #000000; stroke-linecap: round"/>
   </g>
   <g id="patch_44">
    <path d="M 118.861328 158.822152 
Q 104.832944 127.930303 91.266841 98.056441 
" clip-path="url(#p2243667e7d)" style="fill: none; stroke: #000000; stroke-linecap: round"/>
    <path d="M 91.099717 102.525453 
L 91.266841 98.056441 
L 94.741776 100.871547 
z
" clip-path="url(#p2243667e7d)" style="stroke: #000000; stroke-linecap: round"/>
   </g>
   <g id="patch_45">
    <path d="M 120.621874 158.907165 
Q 142.260268 120.961237 163.344829 83.986531 
" clip-path="url(#p2243667e7d)" style="fill: none; stroke: #000000; stroke-linecap: round"/>
    <path d="M 159.626007 86.470552 
L 163.344829 83.986531 
L 163.100753 88.452001 
z
" clip-path="url(#p2243667e7d)" style="stroke: #000000; stroke-linecap: round"/>
   </g>
   <g id="patch_46">
    <path d="M 419.011108 314.911753 
Q 391.228767 304.148494 364.488957 293.789125 
" clip-path="url(#p2243667e7d)" style="fill: none; stroke: #000000; stroke-linecap: round"/>
    <path d="M 367.496329 297.099066 
L 364.488957 293.789125 
L 368.941333 293.369192 
z
" clip-path="url(#p2243667e7d)" style="stroke: #000000; stroke-linecap: round"/>
   </g>
   <g id="patch_47">
    <path d="M 292.536677 279.986658 
Q 274.280922 281.455147 257.139602 282.833991 
" clip-path="url(#p2243667e7d)" style="fill: none; stroke: #000000; stroke-linecap: round"/>
    <path d="M 261.287085 284.506829 
L 257.139602 282.833991 
L 260.966362 280.519708 
z
" clip-path="url(#p2243667e7d)" style="stroke: #000000; stroke-linecap: round"/>
   </g>
   <g id="patch_48">
    <path d="M 296.361815 280.194948 
Q 328.052201 286.258948 358.644476 292.112824 
" clip-path="url(#p2243667e7d)" style="fill: none; stroke: #000000; stroke-linecap: round"/>
    <path d="M 355.091638 289.396697 
L 358.644476 292.112824 
L 354.339872 293.325418 
z
" clip-path="url(#p2243667e7d)" style="stroke: #000000; stroke-linecap: round"/>
   </g>
   <g id="patch_49">
    <path d="M 292.810731 278.824729 
Q 257.923533 257.56797 223.991101 236.892951 
" clip-path="url(#p2243667e7d)" style="fill: none; stroke: #000000; stroke-linecap: round"/>
    <path d="M 226.366332 240.682182 
L 223.991101 236.892951 
L 228.447625 237.266305 
z
" clip-path="url(#p2243667e7d)" style="stroke: #000000; stroke-linecap: round"/>
   </g>
   <g id="patch_50">
    <path d="M 48.188528 129.190455 
Q 83.038149 144.499329 116.864146 159.358542 
" clip-path="url(#p2243667e7d)" style="fill: none; stroke: #000000; stroke-linecap: round"/>
    <path d="M 114.006298 155.918672 
L 116.864146 159.358542 
L 112.397541 159.580899 
z
" clip-path="url(#p2243667e7d)" style="stroke: #000000; stroke-linecap: round"/>
   </g>
   <g id="patch_51">
    <path d="M 41.917415 156.160871 
Q 79.824701 158.319527 116.615761 160.41462 
" clip-path="url(#p2243667e7d)" style="fill: none; stroke: #000000; stroke-linecap: round"/>
    <path d="M 112.735938 158.19044 
L 116.615761 160.41462 
L 112.508524 162.18397 
z
" clip-path="url(#p2243667e7d)" style="stroke: #000000; stroke-linecap: round"/>
   </g>
   <g id="patch_52">
    <path d="M 51.548411 179.203711 
Q 84.672516 170.151015 116.71814 161.393064 
" clip-path="url(#p2243667e7d)" style="fill: none; stroke: #000000; stroke-linecap: round"/>
    <path d="M 112.332386 160.518329 
L 116.71814 161.393064 
L 113.386899 164.376826 
z
" clip-path="url(#p2243667e7d)" style="stroke: #000000; stroke-linecap: round"/>
   </g>
   <g id="patch_53">
    <path d="M 171.620878 203.765115 
Q 195.682841 219.015353 218.800463 233.667077 
" clip-path="url(#p2243667e7d)" style="fill: none; stroke: #000000; stroke-linecap: round"/>
    <path d="M 216.49254 229.836478 
L 218.800463 233.667077 
L 214.35123 233.215056 
z
" clip-path="url(#p2243667e7d)" style="stroke: #000000; stroke-linecap: round"/>
   </g>
   <g id="patch_54">
    <path d="M 168.503015 201.48697 
Q 144.8269 181.660385 122.007962 162.551607 
" clip-path="url(#p2243667e7d)" style="fill: none; stroke: #000000; stroke-linecap: round"/>
    <path d="M 123.790639 166.653078 
L 122.007962 162.551607 
L 126.358745 163.586349 
z
" clip-path="url(#p2243667e7d)" style="stroke: #000000; stroke-linecap: round"/>
   </g>
   <g id="patch_55">
    <path d="M 258.30132 91.478515 
Q 241.33782 124.09157 224.890242 155.712746 
" clip-path="url(#p2243667e7d)" style="fill: none; stroke: #000000; stroke-linecap: round"/>
    <path d="M 228.510385 153.086996 
L 224.890242 155.712746 
L 224.961728 151.241182 
z
" clip-path="url(#p2243667e7d)" style="stroke: #000000; stroke-linecap: round"/>
   </g>
   <g id="patch_56">
    <path d="M 259.291794 87.829717 
Q 260.632625 61.611873 261.916353 36.510604 
" clip-path="url(#p2243667e7d)" style="fill: none; stroke: #000000; stroke-linecap: round"/>
    <path d="M 259.714663 40.403233 
L 261.916353 36.510604 
L 263.709442 40.607533 
z
" clip-path="url(#p2243667e7d)" style="stroke: #000000; stroke-linecap: round"/>
   </g>
   <g id="patch_57">
    <path d="M 224.245759 160.205469 
Q 239.450734 195.540391 254.213785 229.848326 
" clip-path="url(#p2243667e7d)" style="fill: none; stroke: #000000; stroke-linecap: round"/>
    <path d="M 254.469844 225.383527 
L 254.213785 229.848326 
L 250.795581 226.964599 
z
" clip-path="url(#p2243667e7d)" style="stroke: #000000; stroke-linecap: round"/>
   </g>
   <g id="patch_58">
    <path d="M 225.418958 158.46171 
Q 253.065831 158.986923 279.594871 159.490901 
" clip-path="url(#p2243667e7d)" style="fill: none; stroke: #000000; stroke-linecap: round"/>
    <path d="M 275.633581 157.415287 
L 279.594871 159.490901 
L 275.557605 161.414565 
z
" clip-path="url(#p2243667e7d)" style="stroke: #000000; stroke-linecap: round"/>
   </g>
   <g id="patch_59">
    <path d="M 221.543765 158.465204 
Q 171.572029 159.506502 122.718085 160.524509 
" clip-path="url(#p2243667e7d)" style="fill: none; stroke: #000000; stroke-linecap: round"/>
    <path d="M 126.758883 162.440742 
L 122.718085 160.524509 
L 126.67555 158.44161 
z
" clip-path="url(#p2243667e7d)" style="stroke: #000000; stroke-linecap: round"/>
   </g>
   <g id="patch_60">
    <path d="M 224.371072 156.710872 
Q 241.334572 124.097816 257.78215 92.47664 
" clip-path="url(#p2243667e7d)" style="fill: none; stroke: #000000; stroke-linecap: round"/>
    <path d="M 254.162007 95.102391 
L 257.78215 92.47664 
L 257.710665 96.948205 
z
" clip-path="url(#p2243667e7d)" style="stroke: #000000; stroke-linecap: round"/>
   </g>
   <g id="patch_61">
    <path d="M 119.710079 293.549416 
Q 145.282857 290.578265 169.745072 287.736144 
" clip-path="url(#p2243667e7d)" style="fill: none; stroke: #000000; stroke-linecap: round"/>
    <path d="M 165.540983 286.211138 
L 169.745072 287.736144 
L 166.002615 290.184411 
z
" clip-path="url(#p2243667e7d)" style="stroke: #000000; stroke-linecap: round"/>
   </g>
   <g id="patch_62">
    <path d="M 117.37807 291.881522 
Q 111.730462 265.756257 106.319087 240.723783 
" clip-path="url(#p2243667e7d)" style="fill: none; stroke: #000000; stroke-linecap: round"/>
    <path d="M 105.209416 245.05606 
L 106.319087 240.723783 
L 109.119107 244.210886 
z
" clip-path="url(#p2243667e7d)" style="stroke: #000000; stroke-linecap: round"/>
   </g>
   <g id="patch_63">
    <path d="M 106.019325 235.83033 
Q 112.668513 199.162174 119.118216 163.594111 
" clip-path="url(#p2243667e7d)" style="fill: none; stroke: #000000; stroke-linecap: round"/>
    <path d="M 116.436611 167.173076 
L 119.118216 163.594111 
L 120.372425 167.886774 
z
" clip-path="url(#p2243667e7d)" style="stroke: #000000; stroke-linecap: round"/>
   </g>
   <g id="patch_64">
    <path d="M 106.082366 239.628734 
Q 111.729974 265.754 117.141349 290.786474 
" clip-path="url(#p2243667e7d)" style="fill: none; stroke: #000000; stroke-linecap: round"/>
    <path d="M 118.25102 286.454196 
L 117.141349 290.786474 
L 114.34133 287.29937 
z
" clip-path="url(#p2243667e7d)" style="stroke: #000000; stroke-linecap: round"/>
   </g>
   <g id="patch_65">
    <path d="M 63.429533 202.040419 
Q 90.765581 181.889877 117.201678 162.402726 
" clip-path="url(#p2243667e7d)" style="fill: none; stroke: #000000; stroke-linecap: round"/>
    <path d="M 112.795204 163.166266 
L 117.201678 162.402726 
L 115.168626 166.386028 
z
" clip-path="url(#p2243667e7d)" style="stroke: #000000; stroke-linecap: round"/>
   </g>
   <g id="patch_66">
    <path d="M 94.116931 196.152839 
Q 106.324894 179.157378 117.880597 163.069969 
" clip-path="url(#p2243667e7d)" style="fill: none; stroke: #000000; stroke-linecap: round"/>
    <path d="M 113.92263 165.151914 
L 117.880597 163.069969 
L 117.171373 167.48551 
z
" clip-path="url(#p2243667e7d)" style="stroke: #000000; stroke-linecap: round"/>
   </g>
   <g id="patch_67">
    <path d="M 90.805108 97.039661 
Q 104.833492 127.93151 118.399595 157.805372 
" clip-path="url(#p2243667e7d)" style="fill: none; stroke: #000000; stroke-linecap: round"/>
    <path d="M 118.566719 153.33636 
L 118.399595 157.805372 
L 114.92466 154.990266 
z
" clip-path="url(#p2243667e7d)" style="stroke: #000000; stroke-linecap: round"/>
   </g>
   <g id="patch_68">
    <path d="M 163.89993 83.013085 
Q 142.261536 120.959012 121.176975 157.933719 
" clip-path="url(#p2243667e7d)" style="fill: none; stroke: #000000; stroke-linecap: round"/>
    <path d="M 124.895797 155.449697 
L 121.176975 157.933719 
L 121.421051 153.468248 
z
" clip-path="url(#p2243667e7d)" style="stroke: #000000; stroke-linecap: round"/>
   </g>
   <g id="patch_69">
    <path d="M 166.160391 79.893733 
Q 188.095557 55.659212 209.280455 32.253605 
" clip-path="url(#p2243667e7d)" style="fill: none; stroke: #000000; stroke-linecap: round"/>
    <path d="M 205.11341 33.8771 
L 209.280455 32.253605 
L 208.079024 36.561338 
z
" clip-path="url(#p2243667e7d)" style="stroke: #000000; stroke-linecap: round"/>
   </g>
   <g id="patch_70">
    <path d="M 210.027333 31.428436 
Q 188.092167 55.662957 166.907268 79.068564 
" clip-path="url(#p2243667e7d)" style="fill: none; stroke: #000000; stroke-linecap: round"/>
    <path d="M 171.074314 77.445069 
L 166.907268 79.068564 
L 168.1087 74.760831 
z
" clip-path="url(#p2243667e7d)" style="stroke: #000000; stroke-linecap: round"/>
   </g>
   <g id="patch_71">
    <path d="M 213.258721 30.122001 
Q 236.698761 31.724572 259.023372 33.250882 
" clip-path="url(#p2243667e7d)" style="fill: none; stroke: #000000; stroke-linecap: round"/>
    <path d="M 255.169107 30.982701 
L 259.023372 33.250882 
L 254.896268 34.973385 
z
" clip-path="url(#p2243667e7d)" style="stroke: #000000; stroke-linecap: round"/>
   </g>
   <g id="patch_72">
    <path d="M 261.973451 35.394144 
Q 260.632619 61.611988 259.348892 86.713258 
" clip-path="url(#p2243667e7d)" style="fill: none; stroke: #000000; stroke-linecap: round"/>
    <path d="M 261.550582 82.820629 
L 259.348892 86.713258 
L 257.555803 82.616328 
z
" clip-path="url(#p2243667e7d)" style="stroke: #000000; stroke-linecap: round"/>
   </g>
   <g id="patch_73">
    <path d="M 260.142896 33.327423 
Q 236.702855 31.724852 214.378245 30.198542 
" clip-path="url(#p2243667e7d)" style="fill: none; stroke: #000000; stroke-linecap: round"/>
    <path d="M 218.232509 32.466722 
L 214.378245 30.198542 
L 218.505348 28.476038 
z
" clip-path="url(#p2243667e7d)" style="stroke: #000000; stroke-linecap: round"/>
   </g>
   <g id="PathCollection_1">
    <defs>
     <path id="m52254cd79c" d="M 0 1.936492 
C 0.513564 1.936492 1.006162 1.732451 1.369306 1.369306 
C 1.732451 1.006162 1.936492 0.513564 1.936492 0 
C 1.936492 -0.513564 1.732451 -1.006162 1.369306 -1.369306 
C 1.006162 -1.732451 0.513564 -1.936492 0 -1.936492 
C -0.513564 -1.936492 -1.006162 -1.732451 -1.369306 -1.369306 
C -1.732451 -1.006162 -1.936492 -0.513564 -1.936492 0 
C -1.936492 0.513564 -1.732451 1.006162 -1.369306 1.369306 
C -1.006162 1.732451 -0.513564 1.936492 0 1.936492 
z
" style="stroke: #1f78b4"/>
    </defs>
    <g clip-path="url(#p2243667e7d)">
     <use xlink:href="#m52254cd79c" x="255.422569" y="232.657427" style="fill: #1f78b4; stroke: #1f78b4"/>
     <use xlink:href="#m52254cd79c" x="268.55719" y="300.303458" style="fill: #1f78b4; stroke: #1f78b4"/>
     <use xlink:href="#m52254cd79c" x="145.82882" y="123.7885" style="fill: #1f78b4; stroke: #1f78b4"/>
     <use xlink:href="#m52254cd79c" x="282.651426" y="159.548967" style="fill: #1f78b4; stroke: #1f78b4"/>
     <use xlink:href="#m52254cd79c" x="117.544241" y="102.381708" style="fill: #1f78b4; stroke: #1f78b4"/>
     <use xlink:href="#m52254cd79c" x="172.776306" y="287.383962" style="fill: #1f78b4; stroke: #1f78b4"/>
     <use xlink:href="#m52254cd79c" x="254.096595" y="283.07877" style="fill: #1f78b4; stroke: #1f78b4"/>
     <use xlink:href="#m52254cd79c" x="277.50422" y="200.263144" style="fill: #1f78b4; stroke: #1f78b4"/>
     <use xlink:href="#m52254cd79c" x="309.043984" y="259.897857" style="fill: #1f78b4; stroke: #1f78b4"/>
     <use xlink:href="#m52254cd79c" x="361.643173" y="292.686629" style="fill: #1f78b4; stroke: #1f78b4"/>
     <use xlink:href="#m52254cd79c" x="68.19889" y="110.836249" style="fill: #1f78b4; stroke: #1f78b4"/>
     <use xlink:href="#m52254cd79c" x="75.834675" y="145.170014" style="fill: #1f78b4; stroke: #1f78b4"/>
     <use xlink:href="#m52254cd79c" x="221.381838" y="235.303128" style="fill: #1f78b4; stroke: #1f78b4"/>
     <use xlink:href="#m52254cd79c" x="119.663296" y="160.588164" style="fill: #1f78b4; stroke: #1f78b4"/>
     <use xlink:href="#m52254cd79c" x="420.813223" y="315.609917" style="fill: #1f78b4; stroke: #1f78b4"/>
     <use xlink:href="#m52254cd79c" x="294.463362" y="279.831676" style="fill: #1f78b4; stroke: #1f78b4"/>
     <use xlink:href="#m52254cd79c" x="46.413618" y="128.410766" style="fill: #1f78b4; stroke: #1f78b4"/>
     <use xlink:href="#m52254cd79c" x="39.986777" y="156.050929" style="fill: #1f78b4; stroke: #1f78b4"/>
     <use xlink:href="#m52254cd79c" x="49.68184" y="179.713838" style="fill: #1f78b4; stroke: #1f78b4"/>
     <use xlink:href="#m52254cd79c" x="169.986543" y="202.729289" style="fill: #1f78b4; stroke: #1f78b4"/>
     <use xlink:href="#m52254cd79c" x="259.192844" y="89.76452" style="fill: #1f78b4; stroke: #1f78b4"/>
     <use xlink:href="#m52254cd79c" x="223.479548" y="158.424866" style="fill: #1f78b4; stroke: #1f78b4"/>
     <use xlink:href="#m52254cd79c" x="117.786928" y="293.772856" style="fill: #1f78b4; stroke: #1f78b4"/>
     <use xlink:href="#m52254cd79c" x="105.673508" y="237.737401" style="fill: #1f78b4; stroke: #1f78b4"/>
     <use xlink:href="#m52254cd79c" x="61.874048" y="203.187032" style="fill: #1f78b4; stroke: #1f78b4"/>
     <use xlink:href="#m52254cd79c" x="92.988664" y="197.723568" style="fill: #1f78b4; stroke: #1f78b4"/>
     <use xlink:href="#m52254cd79c" x="90.003139" y="95.273649" style="fill: #1f78b4; stroke: #1f78b4"/>
     <use xlink:href="#m52254cd79c" x="164.858508" y="81.332086" style="fill: #1f78b4; stroke: #1f78b4"/>
     <use xlink:href="#m52254cd79c" x="211.329216" y="29.990083" style="fill: #1f78b4; stroke: #1f78b4"/>
     <use xlink:href="#m52254cd79c" x="262.072401" y="33.459341" style="fill: #1f78b4; stroke: #1f78b4"/>
    </g>
   </g>
   <g id="text_1">
    <g clip-path="url(#p2243667e7d)">
     <!-- 0 -->
     <g transform="translate(252.241319 235.416802) scale(0.1 -0.1)">
      <defs>
       <path id="DejaVuSans-30" d="M 2034 4250 
Q 1547 4250 1301 3770 
Q 1056 3291 1056 2328 
Q 1056 1369 1301 889 
Q 1547 409 2034 409 
Q 2525 409 2770 889 
Q 3016 1369 3016 2328 
Q 3016 3291 2770 3770 
Q 2525 4250 2034 4250 
z
M 2034 4750 
Q 2819 4750 3233 4129 
Q 3647 3509 3647 2328 
Q 3647 1150 3233 529 
Q 2819 -91 2034 -91 
Q 1250 -91 836 529 
Q 422 1150 422 2328 
Q 422 3509 836 4129 
Q 1250 4750 2034 4750 
z
" transform="scale(0.015625)"/>
      </defs>
      <use xlink:href="#DejaVuSans-30"/>
     </g>
    </g>
   </g>
   <g id="text_2">
    <g clip-path="url(#p2243667e7d)">
     <!-- 1 -->
     <g transform="translate(265.37594 303.062833) scale(0.1 -0.1)">
      <defs>
       <path id="DejaVuSans-31" d="M 794 531 
L 1825 531 
L 1825 4091 
L 703 3866 
L 703 4441 
L 1819 4666 
L 2450 4666 
L 2450 531 
L 3481 531 
L 3481 0 
L 794 0 
L 794 531 
z
" transform="scale(0.015625)"/>
      </defs>
      <use xlink:href="#DejaVuSans-31"/>
     </g>
    </g>
   </g>
   <g id="text_3">
    <g clip-path="url(#p2243667e7d)">
     <!-- 2 -->
     <g transform="translate(142.64757 126.547875) scale(0.1 -0.1)">
      <defs>
       <path id="DejaVuSans-32" d="M 1228 531 
L 3431 531 
L 3431 0 
L 469 0 
L 469 531 
Q 828 903 1448 1529 
Q 2069 2156 2228 2338 
Q 2531 2678 2651 2914 
Q 2772 3150 2772 3378 
Q 2772 3750 2511 3984 
Q 2250 4219 1831 4219 
Q 1534 4219 1204 4116 
Q 875 4013 500 3803 
L 500 4441 
Q 881 4594 1212 4672 
Q 1544 4750 1819 4750 
Q 2544 4750 2975 4387 
Q 3406 4025 3406 3419 
Q 3406 3131 3298 2873 
Q 3191 2616 2906 2266 
Q 2828 2175 2409 1742 
Q 1991 1309 1228 531 
z
" transform="scale(0.015625)"/>
      </defs>
      <use xlink:href="#DejaVuSans-32"/>
     </g>
    </g>
   </g>
   <g id="text_4">
    <g clip-path="url(#p2243667e7d)">
     <!-- 3 -->
     <g transform="translate(279.470176 162.308342) scale(0.1 -0.1)">
      <defs>
       <path id="DejaVuSans-33" d="M 2597 2516 
Q 3050 2419 3304 2112 
Q 3559 1806 3559 1356 
Q 3559 666 3084 287 
Q 2609 -91 1734 -91 
Q 1441 -91 1130 -33 
Q 819 25 488 141 
L 488 750 
Q 750 597 1062 519 
Q 1375 441 1716 441 
Q 2309 441 2620 675 
Q 2931 909 2931 1356 
Q 2931 1769 2642 2001 
Q 2353 2234 1838 2234 
L 1294 2234 
L 1294 2753 
L 1863 2753 
Q 2328 2753 2575 2939 
Q 2822 3125 2822 3475 
Q 2822 3834 2567 4026 
Q 2313 4219 1838 4219 
Q 1578 4219 1281 4162 
Q 984 4106 628 3988 
L 628 4550 
Q 988 4650 1302 4700 
Q 1616 4750 1894 4750 
Q 2613 4750 3031 4423 
Q 3450 4097 3450 3541 
Q 3450 3153 3228 2886 
Q 3006 2619 2597 2516 
z
" transform="scale(0.015625)"/>
      </defs>
      <use xlink:href="#DejaVuSans-33"/>
     </g>
    </g>
   </g>
   <g id="text_5">
    <g clip-path="url(#p2243667e7d)">
     <!-- 4 -->
     <g transform="translate(114.362991 105.141083) scale(0.1 -0.1)">
      <defs>
       <path id="DejaVuSans-34" d="M 2419 4116 
L 825 1625 
L 2419 1625 
L 2419 4116 
z
M 2253 4666 
L 3047 4666 
L 3047 1625 
L 3713 1625 
L 3713 1100 
L 3047 1100 
L 3047 0 
L 2419 0 
L 2419 1100 
L 313 1100 
L 313 1709 
L 2253 4666 
z
" transform="scale(0.015625)"/>
      </defs>
      <use xlink:href="#DejaVuSans-34"/>
     </g>
    </g>
   </g>
   <g id="text_6">
    <g clip-path="url(#p2243667e7d)">
     <!-- 5 -->
     <g transform="translate(169.595056 290.143337) scale(0.1 -0.1)">
      <defs>
       <path id="DejaVuSans-35" d="M 691 4666 
L 3169 4666 
L 3169 4134 
L 1269 4134 
L 1269 2991 
Q 1406 3038 1543 3061 
Q 1681 3084 1819 3084 
Q 2600 3084 3056 2656 
Q 3513 2228 3513 1497 
Q 3513 744 3044 326 
Q 2575 -91 1722 -91 
Q 1428 -91 1123 -41 
Q 819 9 494 109 
L 494 744 
Q 775 591 1075 516 
Q 1375 441 1709 441 
Q 2250 441 2565 725 
Q 2881 1009 2881 1497 
Q 2881 1984 2565 2268 
Q 2250 2553 1709 2553 
Q 1456 2553 1204 2497 
Q 953 2441 691 2322 
L 691 4666 
z
" transform="scale(0.015625)"/>
      </defs>
      <use xlink:href="#DejaVuSans-35"/>
     </g>
    </g>
   </g>
   <g id="text_7">
    <g clip-path="url(#p2243667e7d)">
     <!-- 6 -->
     <g transform="translate(250.915345 285.838145) scale(0.1 -0.1)">
      <defs>
       <path id="DejaVuSans-36" d="M 2113 2584 
Q 1688 2584 1439 2293 
Q 1191 2003 1191 1497 
Q 1191 994 1439 701 
Q 1688 409 2113 409 
Q 2538 409 2786 701 
Q 3034 994 3034 1497 
Q 3034 2003 2786 2293 
Q 2538 2584 2113 2584 
z
M 3366 4563 
L 3366 3988 
Q 3128 4100 2886 4159 
Q 2644 4219 2406 4219 
Q 1781 4219 1451 3797 
Q 1122 3375 1075 2522 
Q 1259 2794 1537 2939 
Q 1816 3084 2150 3084 
Q 2853 3084 3261 2657 
Q 3669 2231 3669 1497 
Q 3669 778 3244 343 
Q 2819 -91 2113 -91 
Q 1303 -91 875 529 
Q 447 1150 447 2328 
Q 447 3434 972 4092 
Q 1497 4750 2381 4750 
Q 2619 4750 2861 4703 
Q 3103 4656 3366 4563 
z
" transform="scale(0.015625)"/>
      </defs>
      <use xlink:href="#DejaVuSans-36"/>
     </g>
    </g>
   </g>
   <g id="text_8">
    <g clip-path="url(#p2243667e7d)">
     <!-- 7 -->
     <g transform="translate(274.32297 203.022519) scale(0.1 -0.1)">
      <defs>
       <path id="DejaVuSans-37" d="M 525 4666 
L 3525 4666 
L 3525 4397 
L 1831 0 
L 1172 0 
L 2766 4134 
L 525 4134 
L 525 4666 
z
" transform="scale(0.015625)"/>
      </defs>
      <use xlink:href="#DejaVuSans-37"/>
     </g>
    </g>
   </g>
   <g id="text_9">
    <g clip-path="url(#p2243667e7d)">
     <!-- 8 -->
     <g transform="translate(305.862734 262.657232) scale(0.1 -0.1)">
      <defs>
       <path id="DejaVuSans-38" d="M 2034 2216 
Q 1584 2216 1326 1975 
Q 1069 1734 1069 1313 
Q 1069 891 1326 650 
Q 1584 409 2034 409 
Q 2484 409 2743 651 
Q 3003 894 3003 1313 
Q 3003 1734 2745 1975 
Q 2488 2216 2034 2216 
z
M 1403 2484 
Q 997 2584 770 2862 
Q 544 3141 544 3541 
Q 544 4100 942 4425 
Q 1341 4750 2034 4750 
Q 2731 4750 3128 4425 
Q 3525 4100 3525 3541 
Q 3525 3141 3298 2862 
Q 3072 2584 2669 2484 
Q 3125 2378 3379 2068 
Q 3634 1759 3634 1313 
Q 3634 634 3220 271 
Q 2806 -91 2034 -91 
Q 1263 -91 848 271 
Q 434 634 434 1313 
Q 434 1759 690 2068 
Q 947 2378 1403 2484 
z
M 1172 3481 
Q 1172 3119 1398 2916 
Q 1625 2713 2034 2713 
Q 2441 2713 2670 2916 
Q 2900 3119 2900 3481 
Q 2900 3844 2670 4047 
Q 2441 4250 2034 4250 
Q 1625 4250 1398 4047 
Q 1172 3844 1172 3481 
z
" transform="scale(0.015625)"/>
      </defs>
      <use xlink:href="#DejaVuSans-38"/>
     </g>
    </g>
   </g>
   <g id="text_10">
    <g clip-path="url(#p2243667e7d)">
     <!-- 9 -->
     <g transform="translate(358.461923 295.446004) scale(0.1 -0.1)">
      <defs>
       <path id="DejaVuSans-39" d="M 703 97 
L 703 672 
Q 941 559 1184 500 
Q 1428 441 1663 441 
Q 2288 441 2617 861 
Q 2947 1281 2994 2138 
Q 2813 1869 2534 1725 
Q 2256 1581 1919 1581 
Q 1219 1581 811 2004 
Q 403 2428 403 3163 
Q 403 3881 828 4315 
Q 1253 4750 1959 4750 
Q 2769 4750 3195 4129 
Q 3622 3509 3622 2328 
Q 3622 1225 3098 567 
Q 2575 -91 1691 -91 
Q 1453 -91 1209 -44 
Q 966 3 703 97 
z
M 1959 2075 
Q 2384 2075 2632 2365 
Q 2881 2656 2881 3163 
Q 2881 3666 2632 3958 
Q 2384 4250 1959 4250 
Q 1534 4250 1286 3958 
Q 1038 3666 1038 3163 
Q 1038 2656 1286 2365 
Q 1534 2075 1959 2075 
z
" transform="scale(0.015625)"/>
      </defs>
      <use xlink:href="#DejaVuSans-39"/>
     </g>
    </g>
   </g>
   <g id="text_11">
    <g clip-path="url(#p2243667e7d)">
     <!-- 10 -->
     <g transform="translate(61.83639 113.595624) scale(0.1 -0.1)">
      <use xlink:href="#DejaVuSans-31"/>
      <use xlink:href="#DejaVuSans-30" x="63.623047"/>
     </g>
    </g>
   </g>
   <g id="text_12">
    <g clip-path="url(#p2243667e7d)">
     <!-- 11 -->
     <g transform="translate(69.472175 147.929389) scale(0.1 -0.1)">
      <use xlink:href="#DejaVuSans-31"/>
      <use xlink:href="#DejaVuSans-31" x="63.623047"/>
     </g>
    </g>
   </g>
   <g id="text_13">
    <g clip-path="url(#p2243667e7d)">
     <!-- 12 -->
     <g transform="translate(215.019338 238.062503) scale(0.1 -0.1)">
      <use xlink:href="#DejaVuSans-31"/>
      <use xlink:href="#DejaVuSans-32" x="63.623047"/>
     </g>
    </g>
   </g>
   <g id="text_14">
    <g clip-path="url(#p2243667e7d)">
     <!-- 13 -->
     <g transform="translate(113.300796 163.347539) scale(0.1 -0.1)">
      <use xlink:href="#DejaVuSans-31"/>
      <use xlink:href="#DejaVuSans-33" x="63.623047"/>
     </g>
    </g>
   </g>
   <g id="text_15">
    <g clip-path="url(#p2243667e7d)">
     <!-- 14 -->
     <g transform="translate(414.450723 318.369292) scale(0.1 -0.1)">
      <use xlink:href="#DejaVuSans-31"/>
      <use xlink:href="#DejaVuSans-34" x="63.623047"/>
     </g>
    </g>
   </g>
   <g id="text_16">
    <g clip-path="url(#p2243667e7d)">
     <!-- 15 -->
     <g transform="translate(288.100862 282.591051) scale(0.1 -0.1)">
      <use xlink:href="#DejaVuSans-31"/>
      <use xlink:href="#DejaVuSans-35" x="63.623047"/>
     </g>
    </g>
   </g>
   <g id="text_17">
    <g clip-path="url(#p2243667e7d)">
     <!-- 16 -->
     <g transform="translate(40.051118 131.170141) scale(0.1 -0.1)">
      <use xlink:href="#DejaVuSans-31"/>
      <use xlink:href="#DejaVuSans-36" x="63.623047"/>
     </g>
    </g>
   </g>
   <g id="text_18">
    <g clip-path="url(#p2243667e7d)">
     <!-- 17 -->
     <g transform="translate(33.624277 158.810304) scale(0.1 -0.1)">
      <use xlink:href="#DejaVuSans-31"/>
      <use xlink:href="#DejaVuSans-37" x="63.623047"/>
     </g>
    </g>
   </g>
   <g id="text_19">
    <g clip-path="url(#p2243667e7d)">
     <!-- 18 -->
     <g transform="translate(43.31934 182.473213) scale(0.1 -0.1)">
      <use xlink:href="#DejaVuSans-31"/>
      <use xlink:href="#DejaVuSans-38" x="63.623047"/>
     </g>
    </g>
   </g>
   <g id="text_20">
    <g clip-path="url(#p2243667e7d)">
     <!-- 19 -->
     <g transform="translate(163.624043 205.488664) scale(0.1 -0.1)">
      <use xlink:href="#DejaVuSans-31"/>
      <use xlink:href="#DejaVuSans-39" x="63.623047"/>
     </g>
    </g>
   </g>
   <g id="text_21">
    <g clip-path="url(#p2243667e7d)">
     <!-- 20 -->
     <g transform="translate(252.830344 92.523895) scale(0.1 -0.1)">
      <use xlink:href="#DejaVuSans-32"/>
      <use xlink:href="#DejaVuSans-30" x="63.623047"/>
     </g>
    </g>
   </g>
   <g id="text_22">
    <g clip-path="url(#p2243667e7d)">
     <!-- 21 -->
     <g transform="translate(217.117048 161.184241) scale(0.1 -0.1)">
      <use xlink:href="#DejaVuSans-32"/>
      <use xlink:href="#DejaVuSans-31" x="63.623047"/>
     </g>
    </g>
   </g>
   <g id="text_23">
    <g clip-path="url(#p2243667e7d)">
     <!-- 22 -->
     <g transform="translate(111.424428 296.532231) scale(0.1 -0.1)">
      <use xlink:href="#DejaVuSans-32"/>
      <use xlink:href="#DejaVuSans-32" x="63.623047"/>
     </g>
    </g>
   </g>
   <g id="text_24">
    <g clip-path="url(#p2243667e7d)">
     <!-- 23 -->
     <g transform="translate(99.311008 240.496776) scale(0.1 -0.1)">
      <use xlink:href="#DejaVuSans-32"/>
      <use xlink:href="#DejaVuSans-33" x="63.623047"/>
     </g>
    </g>
   </g>
   <g id="text_25">
    <g clip-path="url(#p2243667e7d)">
     <!-- 24 -->
     <g transform="translate(55.511548 205.946407) scale(0.1 -0.1)">
      <use xlink:href="#DejaVuSans-32"/>
      <use xlink:href="#DejaVuSans-34" x="63.623047"/>
     </g>
    </g>
   </g>
   <g id="text_26">
    <g clip-path="url(#p2243667e7d)">
     <!-- 25 -->
     <g transform="translate(86.626164 200.482943) scale(0.1 -0.1)">
      <use xlink:href="#DejaVuSans-32"/>
      <use xlink:href="#DejaVuSans-35" x="63.623047"/>
     </g>
    </g>
   </g>
   <g id="text_27">
    <g clip-path="url(#p2243667e7d)">
     <!-- 26 -->
     <g transform="translate(83.640639 98.033024) scale(0.1 -0.1)">
      <use xlink:href="#DejaVuSans-32"/>
      <use xlink:href="#DejaVuSans-36" x="63.623047"/>
     </g>
    </g>
   </g>
   <g id="text_28">
    <g clip-path="url(#p2243667e7d)">
     <!-- 27 -->
     <g transform="translate(158.496008 84.091461) scale(0.1 -0.1)">
      <use xlink:href="#DejaVuSans-32"/>
      <use xlink:href="#DejaVuSans-37" x="63.623047"/>
     </g>
    </g>
   </g>
   <g id="text_29">
    <g clip-path="url(#p2243667e7d)">
     <!-- 28 -->
     <g transform="translate(204.966716 32.749458) scale(0.1 -0.1)">
      <use xlink:href="#DejaVuSans-32"/>
      <use xlink:href="#DejaVuSans-38" x="63.623047"/>
     </g>
    </g>
   </g>
   <g id="text_30">
    <g clip-path="url(#p2243667e7d)">
     <!-- 29 -->
     <g transform="translate(255.709901 36.218716) scale(0.1 -0.1)">
      <use xlink:href="#DejaVuSans-32"/>
      <use xlink:href="#DejaVuSans-39" x="63.623047"/>
     </g>
    </g>
   </g>
  </g>
 </g>
 <defs>
  <clipPath id="p2243667e7d">
   <rect x="0" y="0" width="460.8" height="345.6"/>
  </clipPath>
 </defs>
</svg>
