<?xml version="1.0" encoding="utf-8" standalone="no"?>
<!DOCTYPE svg PUBLIC "-//W3C//DTD SVG 1.1//EN"
  "http://www.w3.org/Graphics/SVG/1.1/DTD/svg11.dtd">
<svg xmlns:xlink="http://www.w3.org/1999/xlink" width="460.8pt" height="345.6pt" viewBox="0 0 460.8 345.6" xmlns="http://www.w3.org/2000/svg" version="1.1">
 <metadata>
  <rdf:RDF xmlns:dc="http://purl.org/dc/elements/1.1/" xmlns:cc="http://creativecommons.org/ns#" xmlns:rdf="http://www.w3.org/1999/02/22-rdf-syntax-ns#">
   <cc:Work>
    <dc:type rdf:resource="http://purl.org/dc/dcmitype/StillImage"/>
    <dc:date>2024-02-28T11:18:29.755254</dc:date>
    <dc:format>image/svg+xml</dc:format>
    <dc:creator>
     <cc:Agent>
      <dc:title>Matplotlib v3.8.0, https://matplotlib.org/</dc:title>
     </cc:Agent>
    </dc:creator>
   </cc:Work>
  </rdf:RDF>
 </metadata>
 <defs>
  <style type="text/css">*{stroke-linejoin: round; stroke-linecap: butt}</style>
 </defs>
 <g id="figure_1">
  <g id="patch_1">
   <path d="M 0 345.6 
L 460.8 345.6 
L 460.8 0 
L 0 0 
z
" style="fill: #ffffff"/>
  </g>
  <g id="axes_1">
   <g id="patch_2">
    <path d="M 166.320691 153.999898 
Q 199.07146 148.054009 230.722178 142.307834 
" clip-path="url(#pc2a3419844)" style="fill: none; stroke: #000000; stroke-linecap: round"/>
    <path d="M 226.429253 141.054519 
L 230.722178 142.307834 
L 227.143771 144.990185 
z
" clip-path="url(#pc2a3419844)" style="stroke: #000000; stroke-linecap: round"/>
   </g>
   <g id="patch_3">
    <path d="M 162.86355 155.502669 
Q 133.835381 177.171155 105.703158 198.170851 
" clip-path="url(#pc2a3419844)" style="fill: none; stroke: #000000; stroke-linecap: round"/>
    <path d="M 110.10496 197.380827 
L 105.703158 198.170851 
L 107.71222 194.175395 
z
" clip-path="url(#pc2a3419844)" style="stroke: #000000; stroke-linecap: round"/>
   </g>
   <g id="patch_4">
    <path d="M 231.819078 142.108692 
Q 199.068309 148.054581 167.417591 153.800756 
" clip-path="url(#pc2a3419844)" style="fill: none; stroke: #000000; stroke-linecap: round"/>
    <path d="M 171.710516 155.054071 
L 167.417591 153.800756 
L 170.995998 151.118405 
z
" clip-path="url(#pc2a3419844)" style="stroke: #000000; stroke-linecap: round"/>
   </g>
   <g id="patch_5">
    <path d="M 234.770643 143.394731 
Q 251.724793 169.916132 268.076755 195.49553 
" clip-path="url(#pc2a3419844)" style="fill: none; stroke: #000000; stroke-linecap: round"/>
    <path d="M 267.607409 191.048091 
L 268.076755 195.49553 
L 264.237196 193.202544 
z
" clip-path="url(#pc2a3419844)" style="stroke: #000000; stroke-linecap: round"/>
   </g>
   <g id="patch_6">
    <path d="M 235.133635 140.426017 
Q 255.347652 121.221914 274.751111 102.787872 
" clip-path="url(#pc2a3419844)" style="fill: none; stroke: #000000; stroke-linecap: round"/>
    <path d="M 270.473641 104.092959 
L 274.751111 102.787872 
L 273.228698 106.9929 
z
" clip-path="url(#pc2a3419844)" style="stroke: #000000; stroke-linecap: round"/>
   </g>
   <g id="patch_7">
    <path d="M 111.921213 283.06246 
Q 135.830643 266.204069 158.826335 249.989948 
" clip-path="url(#pc2a3419844)" style="fill: none; stroke: #000000; stroke-linecap: round"/>
    <path d="M 154.404744 250.660417 
L 158.826335 249.989948 
L 156.709756 253.929503 
z
" clip-path="url(#pc2a3419844)" style="stroke: #000000; stroke-linecap: round"/>
   </g>
   <g id="patch_8">
    <path d="M 41.813268 178.544562 
Q 71.620333 188.953076 100.371867 198.993004 
" clip-path="url(#pc2a3419844)" style="fill: none; stroke: #000000; stroke-linecap: round"/>
    <path d="M 97.254837 195.786117 
L 100.371867 198.993004 
L 95.93614 199.562496 
z
" clip-path="url(#pc2a3419844)" style="stroke: #000000; stroke-linecap: round"/>
   </g>
   <g id="patch_9">
    <path d="M 371.504176 296.881838 
Q 346.059426 281.84378 321.577181 267.37457 
" clip-path="url(#pc2a3419844)" style="fill: none; stroke: #000000; stroke-linecap: round"/>
    <path d="M 324.003152 271.131519 
L 321.577181 267.37457 
L 326.038322 267.687962 
z
" clip-path="url(#pc2a3419844)" style="stroke: #000000; stroke-linecap: round"/>
   </g>
   <g id="patch_10">
    <path d="M 320.614458 266.805593 
Q 346.059207 281.84365 370.541453 296.31286 
" clip-path="url(#pc2a3419844)" style="fill: none; stroke: #000000; stroke-linecap: round"/>
    <path d="M 368.115481 292.555912 
L 370.541453 296.31286 
L 366.080311 295.999468 
z
" clip-path="url(#pc2a3419844)" style="stroke: #000000; stroke-linecap: round"/>
   </g>
   <g id="patch_11">
    <path d="M 317.722628 267.318299 
Q 302.222489 286.218324 287.431331 304.253857 
" clip-path="url(#pc2a3419844)" style="fill: none; stroke: #000000; stroke-linecap: round"/>
    <path d="M 291.514308 302.429218 
L 287.431331 304.253857 
L 288.421406 299.892693 
z
" clip-path="url(#pc2a3419844)" style="stroke: #000000; stroke-linecap: round"/>
   </g>
   <g id="patch_12">
    <path d="M 317.812652 264.256623 
Q 294.335345 231.944684 271.515227 200.537237 
" clip-path="url(#pc2a3419844)" style="fill: none; stroke: #000000; stroke-linecap: round"/>
    <path d="M 272.248451 204.948856 
L 271.515227 200.537237 
L 275.484456 202.59763 
z
" clip-path="url(#pc2a3419844)" style="stroke: #000000; stroke-linecap: round"/>
   </g>
   <g id="patch_13">
    <path d="M 275.556761 102.022473 
Q 255.342744 121.226576 235.939285 139.660618 
" clip-path="url(#pc2a3419844)" style="fill: none; stroke: #000000; stroke-linecap: round"/>
    <path d="M 240.216755 138.355531 
L 235.939285 139.660618 
L 237.461698 135.45559 
z
" clip-path="url(#pc2a3419844)" style="stroke: #000000; stroke-linecap: round"/>
   </g>
   <g id="patch_14">
    <path d="M 278.713654 101.51343 
Q 298.655645 110.938264 317.586809 119.885368 
" clip-path="url(#pc2a3419844)" style="fill: none; stroke: #000000; stroke-linecap: round"/>
    <path d="M 314.824949 116.367965 
L 317.586809 119.885368 
L 313.11577 119.984414 
z
" clip-path="url(#pc2a3419844)" style="stroke: #000000; stroke-linecap: round"/>
   </g>
   <g id="patch_15">
    <path d="M 324.647708 209.031164 
Q 298.135313 203.739941 272.71933 198.667534 
" clip-path="url(#pc2a3419844)" style="fill: none; stroke: #000000; stroke-linecap: round"/>
    <path d="M 276.250541 201.411719 
L 272.71933 198.667534 
L 277.033404 197.489076 
z
" clip-path="url(#pc2a3419844)" style="stroke: #000000; stroke-linecap: round"/>
   </g>
   <g id="patch_16">
    <path d="M 315.891964 175.554992 
Q 293.676386 186.388246 272.465725 196.731461 
" clip-path="url(#pc2a3419844)" style="fill: none; stroke: #000000; stroke-linecap: round"/>
    <path d="M 276.937641 196.775891 
L 272.465725 196.731461 
L 275.184418 193.180587 
z
" clip-path="url(#pc2a3419844)" style="stroke: #000000; stroke-linecap: round"/>
   </g>
   <g id="patch_17">
    <path d="M 379.548369 67.404803 
Q 399.464252 49.347131 418.551872 32.040443 
" clip-path="url(#pc2a3419844)" style="fill: none; stroke: #000000; stroke-linecap: round"/>
    <path d="M 414.24518 33.245604 
L 418.551872 32.040443 
L 416.931985 36.208893 
z
" clip-path="url(#pc2a3419844)" style="stroke: #000000; stroke-linecap: round"/>
   </g>
   <g id="patch_18">
    <path d="M 376.677393 70.010627 
Q 349.229787 94.949299 322.609665 119.136126 
" clip-path="url(#pc2a3419844)" style="fill: none; stroke: #000000; stroke-linecap: round"/>
    <path d="M 326.915101 117.926492 
L 322.609665 119.136126 
L 324.225219 114.965997 
z
" clip-path="url(#pc2a3419844)" style="stroke: #000000; stroke-linecap: round"/>
   </g>
   <g id="patch_19">
    <path d="M 268.678554 196.436926 
Q 251.724404 169.915524 235.372442 144.336126 
" clip-path="url(#pc2a3419844)" style="fill: none; stroke: #000000; stroke-linecap: round"/>
    <path d="M 235.841788 148.783565 
L 235.372442 144.336126 
L 239.212001 146.629113 
z
" clip-path="url(#pc2a3419844)" style="stroke: #000000; stroke-linecap: round"/>
   </g>
   <g id="patch_20">
    <path d="M 270.859362 199.634567 
Q 294.336668 231.946506 317.156787 263.353953 
" clip-path="url(#pc2a3419844)" style="fill: none; stroke: #000000; stroke-linecap: round"/>
    <path d="M 316.423563 258.942334 
L 317.156787 263.353953 
L 313.187557 261.29356 
z
" clip-path="url(#pc2a3419844)" style="stroke: #000000; stroke-linecap: round"/>
   </g>
   <g id="patch_21">
    <path d="M 271.619207 198.447977 
Q 298.131602 203.7392 323.547585 208.811606 
" clip-path="url(#pc2a3419844)" style="fill: none; stroke: #000000; stroke-linecap: round"/>
    <path d="M 320.016374 206.067422 
L 323.547585 208.811606 
L 319.233511 209.990064 
z
" clip-path="url(#pc2a3419844)" style="stroke: #000000; stroke-linecap: round"/>
   </g>
   <g id="patch_22">
    <path d="M 271.461997 197.220921 
Q 293.677576 186.387666 314.888236 176.044452 
" clip-path="url(#pc2a3419844)" style="fill: none; stroke: #000000; stroke-linecap: round"/>
    <path d="M 310.416321 176.000022 
L 314.888236 176.044452 
L 312.169543 179.595326 
z
" clip-path="url(#pc2a3419844)" style="stroke: #000000; stroke-linecap: round"/>
   </g>
   <g id="patch_23">
    <path d="M 267.965523 198.8822 
Q 215.524635 223.148493 164.098414 246.945262 
" clip-path="url(#pc2a3419844)" style="fill: none; stroke: #000000; stroke-linecap: round"/>
    <path d="M 168.568503 247.080537 
L 164.098414 246.945262 
L 166.888687 243.450355 
z
" clip-path="url(#pc2a3419844)" style="stroke: #000000; stroke-linecap: round"/>
   </g>
   <g id="patch_24">
    <path d="M 270.786613 196.452863 
Q 295.034406 159.631355 318.667299 123.743602 
" clip-path="url(#pc2a3419844)" style="fill: none; stroke: #000000; stroke-linecap: round"/>
    <path d="M 314.797017 125.984342 
L 318.667299 123.743602 
L 318.137722 128.184271 
z
" clip-path="url(#pc2a3419844)" style="stroke: #000000; stroke-linecap: round"/>
   </g>
   <g id="patch_25">
    <path d="M 159.739107 249.346358 
Q 135.829677 266.204749 112.833985 282.41887 
" clip-path="url(#pc2a3419844)" style="fill: none; stroke: #000000; stroke-linecap: round"/>
    <path d="M 117.255576 281.748401 
L 112.833985 282.41887 
L 114.950564 278.479315 
z
" clip-path="url(#pc2a3419844)" style="stroke: #000000; stroke-linecap: round"/>
   </g>
   <g id="patch_26">
    <path d="M 163.079667 247.416673 
Q 215.520555 223.15038 266.946777 199.353611 
" clip-path="url(#pc2a3419844)" style="fill: none; stroke: #000000; stroke-linecap: round"/>
    <path d="M 262.476687 199.218336 
L 266.946777 199.353611 
L 264.156503 202.848517 
z
" clip-path="url(#pc2a3419844)" style="stroke: #000000; stroke-linecap: round"/>
   </g>
   <g id="patch_27">
    <path d="M 159.830939 246.990196 
Q 132.286464 224.11283 105.602058 201.949803 
" clip-path="url(#pc2a3419844)" style="fill: none; stroke: #000000; stroke-linecap: round"/>
    <path d="M 107.401285 206.044041 
L 105.602058 201.949803 
L 109.956985 202.966965 
z
" clip-path="url(#pc2a3419844)" style="stroke: #000000; stroke-linecap: round"/>
   </g>
   <g id="patch_28">
    <path d="M 162.940396 249.28874 
Q 193.713922 269.443254 223.552152 288.985216 
" clip-path="url(#pc2a3419844)" style="fill: none; stroke: #000000; stroke-linecap: round"/>
    <path d="M 221.301706 285.120569 
L 223.552152 288.985216 
L 219.110168 288.466785 
z
" clip-path="url(#pc2a3419844)" style="stroke: #000000; stroke-linecap: round"/>
   </g>
   <g id="patch_29">
    <path d="M 161.243551 250.166532 
Q 159.93986 281.919595 158.682034 312.555566 
" clip-path="url(#pc2a3419844)" style="fill: none; stroke: #000000; stroke-linecap: round"/>
    <path d="M 160.844441 308.640978 
L 158.682034 312.555566 
L 156.847808 308.476888 
z
" clip-path="url(#pc2a3419844)" style="stroke: #000000; stroke-linecap: round"/>
   </g>
   <g id="patch_30">
    <path d="M 162.096877 250.006619 
Q 170.71467 269.798302 178.886119 288.56491 
" clip-path="url(#pc2a3419844)" style="fill: none; stroke: #000000; stroke-linecap: round"/>
    <path d="M 179.122943 284.099049 
L 178.886119 288.56491 
L 175.455525 285.695934 
z
" clip-path="url(#pc2a3419844)" style="stroke: #000000; stroke-linecap: round"/>
   </g>
   <g id="patch_31">
    <path d="M 160.370508 249.91957 
Q 144.539855 278.006443 129.258168 305.119337 
" clip-path="url(#pc2a3419844)" style="fill: none; stroke: #000000; stroke-linecap: round"/>
    <path d="M 132.964516 302.616741 
L 129.258168 305.119337 
L 129.4799 300.652701 
z
" clip-path="url(#pc2a3419844)" style="stroke: #000000; stroke-linecap: round"/>
   </g>
   <g id="patch_32">
    <path d="M 160.273074 246.602538 
Q 138.169795 212.353741 116.672774 179.044334 
" clip-path="url(#pc2a3419844)" style="fill: none; stroke: #000000; stroke-linecap: round"/>
    <path d="M 117.161355 183.489701 
L 116.672774 179.044334 
L 120.522216 181.320689 
z
" clip-path="url(#pc2a3419844)" style="stroke: #000000; stroke-linecap: round"/>
   </g>
   <g id="patch_33">
    <path d="M 159.389488 248.289593 
Q 126.664125 249.306475 95.056256 250.288634 
" clip-path="url(#pc2a3419844)" style="fill: none; stroke: #000000; stroke-linecap: round"/>
    <path d="M 99.116443 252.163436 
L 95.056256 250.288634 
L 98.99221 248.165366 
z
" clip-path="url(#pc2a3419844)" style="stroke: #000000; stroke-linecap: round"/>
   </g>
   <g id="patch_34">
    <path d="M 419.377176 31.292142 
Q 399.461292 49.349815 380.373673 66.656502 
" clip-path="url(#pc2a3419844)" style="fill: none; stroke: #000000; stroke-linecap: round"/>
    <path d="M 384.680364 65.451342 
L 380.373673 66.656502 
L 381.993559 62.488053 
z
" clip-path="url(#pc2a3419844)" style="stroke: #000000; stroke-linecap: round"/>
   </g>
   <g id="patch_35">
    <path d="M 318.598174 120.363352 
Q 298.656183 110.938518 279.725019 101.991414 
" clip-path="url(#pc2a3419844)" style="fill: none; stroke: #000000; stroke-linecap: round"/>
    <path d="M 282.486879 105.508818 
L 279.725019 101.991414 
L 284.196058 101.892369 
z
" clip-path="url(#pc2a3419844)" style="stroke: #000000; stroke-linecap: round"/>
   </g>
   <g id="patch_36">
    <path d="M 321.783446 119.886822 
Q 349.231052 94.94815 375.851175 70.761323 
" clip-path="url(#pc2a3419844)" style="fill: none; stroke: #000000; stroke-linecap: round"/>
    <path d="M 371.545738 71.970957 
L 375.851175 70.761323 
L 374.23562 74.931453 
z
" clip-path="url(#pc2a3419844)" style="stroke: #000000; stroke-linecap: round"/>
   </g>
   <g id="patch_37">
    <path d="M 319.284016 122.807086 
Q 295.036223 159.628595 271.403329 195.516348 
" clip-path="url(#pc2a3419844)" style="fill: none; stroke: #000000; stroke-linecap: round"/>
    <path d="M 275.273611 193.275608 
L 271.403329 195.516348 
L 271.932906 191.075678 
z
" clip-path="url(#pc2a3419844)" style="stroke: #000000; stroke-linecap: round"/>
   </g>
   <g id="patch_38">
    <path d="M 55.415692 227.551645 
Q 78.495233 214.258957 100.605943 201.524269 
" clip-path="url(#pc2a3419844)" style="fill: none; stroke: #000000; stroke-linecap: round"/>
    <path d="M 96.141562 201.787531 
L 100.605943 201.524269 
L 98.137924 205.253731 
z
" clip-path="url(#pc2a3419844)" style="stroke: #000000; stroke-linecap: round"/>
   </g>
   <g id="patch_39">
    <path d="M 55.417536 229.477258 
Q 72.868838 239.449985 89.349429 248.867988 
" clip-path="url(#pc2a3419844)" style="fill: none; stroke: #000000; stroke-linecap: round"/>
    <path d="M 86.868823 245.146887 
L 89.349429 248.867988 
L 84.884184 248.619812 
z
" clip-path="url(#pc2a3419844)" style="stroke: #000000; stroke-linecap: round"/>
   </g>
   <g id="patch_40">
    <path d="M 104.802792 198.842942 
Q 133.830961 177.174455 161.963184 156.17476 
" clip-path="url(#pc2a3419844)" style="fill: none; stroke: #000000; stroke-linecap: round"/>
    <path d="M 157.561382 156.964784 
L 161.963184 156.17476 
L 159.954122 160.170216 
z
" clip-path="url(#pc2a3419844)" style="stroke: #000000; stroke-linecap: round"/>
   </g>
   <g id="patch_41">
    <path d="M 101.427167 199.361511 
Q 71.620103 188.952996 42.868568 178.913069 
" clip-path="url(#pc2a3419844)" style="fill: none; stroke: #000000; stroke-linecap: round"/>
    <path d="M 45.985599 182.119956 
L 42.868568 178.913069 
L 47.304296 178.343577 
z
" clip-path="url(#pc2a3419844)" style="stroke: #000000; stroke-linecap: round"/>
   </g>
   <g id="patch_42">
    <path d="M 104.745799 201.238628 
Q 132.290274 224.115994 158.97468 246.279021 
" clip-path="url(#pc2a3419844)" style="fill: none; stroke: #000000; stroke-linecap: round"/>
    <path d="M 157.175453 242.184783 
L 158.97468 246.279021 
L 154.619753 245.261859 
z
" clip-path="url(#pc2a3419844)" style="stroke: #000000; stroke-linecap: round"/>
   </g>
   <g id="patch_43">
    <path d="M 101.576353 200.96536 
Q 78.496811 214.258048 56.386102 226.992736 
" clip-path="url(#pc2a3419844)" style="fill: none; stroke: #000000; stroke-linecap: round"/>
    <path d="M 60.850482 226.729474 
L 56.386102 226.992736 
L 58.854121 223.263274 
z
" clip-path="url(#pc2a3419844)" style="stroke: #000000; stroke-linecap: round"/>
   </g>
   <g id="patch_44">
    <path d="M 286.720158 305.121022 
Q 302.220297 286.220997 317.011455 268.185464 
" clip-path="url(#pc2a3419844)" style="fill: none; stroke: #000000; stroke-linecap: round"/>
    <path d="M 312.928479 270.010103 
L 317.011455 268.185464 
L 316.02138 272.546628 
z
" clip-path="url(#pc2a3419844)" style="stroke: #000000; stroke-linecap: round"/>
   </g>
   <g id="patch_45">
    <path d="M 283.626316 306.115928 
Q 255.804029 298.639783 229.061475 291.453775 
" clip-path="url(#pc2a3419844)" style="fill: none; stroke: #000000; stroke-linecap: round"/>
    <path d="M 232.405432 294.423278 
L 229.061475 291.453775 
L 233.443452 290.560311 
z
" clip-path="url(#pc2a3419844)" style="stroke: #000000; stroke-linecap: round"/>
   </g>
   <g id="patch_46">
    <path d="M 224.493342 289.601629 
Q 193.719816 269.447114 163.881585 249.905153 
" clip-path="url(#pc2a3419844)" style="fill: none; stroke: #000000; stroke-linecap: round"/>
    <path d="M 166.132032 253.769799 
L 163.881585 249.905153 
L 168.32357 250.423583 
z
" clip-path="url(#pc2a3419844)" style="stroke: #000000; stroke-linecap: round"/>
   </g>
   <g id="patch_47">
    <path d="M 227.977226 291.162425 
Q 255.799513 298.63857 282.542067 305.824578 
" clip-path="url(#pc2a3419844)" style="fill: none; stroke: #000000; stroke-linecap: round"/>
    <path d="M 279.19811 302.855075 
L 282.542067 305.824578 
L 278.16009 306.718042 
z
" clip-path="url(#pc2a3419844)" style="stroke: #000000; stroke-linecap: round"/>
   </g>
   <g id="patch_48">
    <path d="M 158.63616 313.672895 
Q 159.93985 281.919832 161.197676 251.283861 
" clip-path="url(#pc2a3419844)" style="fill: none; stroke: #000000; stroke-linecap: round"/>
    <path d="M 159.035269 255.198449 
L 161.197676 251.283861 
L 163.031902 255.362539 
z
" clip-path="url(#pc2a3419844)" style="stroke: #000000; stroke-linecap: round"/>
   </g>
   <g id="patch_49">
    <path d="M 179.331359 289.58745 
Q 170.713566 269.795767 162.542116 251.029159 
" clip-path="url(#pc2a3419844)" style="fill: none; stroke: #000000; stroke-linecap: round"/>
    <path d="M 162.305293 255.49502 
L 162.542116 251.029159 
L 165.972711 253.898135 
z
" clip-path="url(#pc2a3419844)" style="stroke: #000000; stroke-linecap: round"/>
   </g>
   <g id="patch_50">
    <path d="M 128.712353 306.087727 
Q 144.543005 278.000854 159.824692 250.88796 
" clip-path="url(#pc2a3419844)" style="fill: none; stroke: #000000; stroke-linecap: round"/>
    <path d="M 156.118344 253.390556 
L 159.824692 250.88796 
L 159.60296 255.354596 
z
" clip-path="url(#pc2a3419844)" style="stroke: #000000; stroke-linecap: round"/>
   </g>
   <g id="patch_51">
    <path d="M 116.065464 178.103314 
Q 138.168743 212.352111 159.665765 245.661518 
" clip-path="url(#pc2a3419844)" style="fill: none; stroke: #000000; stroke-linecap: round"/>
    <path d="M 159.177183 241.216151 
L 159.665765 245.661518 
L 155.816322 243.385163 
z
" clip-path="url(#pc2a3419844)" style="stroke: #000000; stroke-linecap: round"/>
   </g>
   <g id="patch_52">
    <path d="M 113.793086 174.97361 
Q 94.196321 150.882194 75.305068 127.658103 
" clip-path="url(#pc2a3419844)" style="fill: none; stroke: #000000; stroke-linecap: round"/>
    <path d="M 76.277664 132.023198 
L 75.305068 127.658103 
L 79.380702 129.499083 
z
" clip-path="url(#pc2a3419844)" style="stroke: #000000; stroke-linecap: round"/>
   </g>
   <g id="patch_53">
    <path d="M 74.600909 126.79244 
Q 94.197674 150.883856 113.088927 174.107947 
" clip-path="url(#pc2a3419844)" style="fill: none; stroke: #000000; stroke-linecap: round"/>
    <path d="M 112.116331 169.742852 
L 113.088927 174.107947 
L 109.013293 172.266967 
z
" clip-path="url(#pc2a3419844)" style="stroke: #000000; stroke-linecap: round"/>
   </g>
   <g id="patch_54">
    <path d="M 93.935112 250.323471 
Q 126.660476 249.306589 158.268345 248.32443 
" clip-path="url(#pc2a3419844)" style="fill: none; stroke: #000000; stroke-linecap: round"/>
    <path d="M 154.208158 246.449628 
L 158.268345 248.32443 
L 154.332391 250.447698 
z
" clip-path="url(#pc2a3419844)" style="stroke: #000000; stroke-linecap: round"/>
   </g>
   <g id="patch_55">
    <path d="M 90.322372 249.423987 
Q 72.871069 239.45126 56.390479 230.033256 
" clip-path="url(#pc2a3419844)" style="fill: none; stroke: #000000; stroke-linecap: round"/>
    <path d="M 58.871084 233.754358 
L 56.390479 230.033256 
L 60.855723 230.281433 
z
" clip-path="url(#pc2a3419844)" style="stroke: #000000; stroke-linecap: round"/>
   </g>
   <g id="PathCollection_1">
    <defs>
     <path id="m7530177278" d="M 0 1.936492 
C 0.513564 1.936492 1.006162 1.732451 1.369306 1.369306 
C 1.732451 1.006162 1.936492 0.513564 1.936492 0 
C 1.936492 -0.513564 1.732451 -1.006162 1.369306 -1.369306 
C 1.006162 -1.732451 0.513564 -1.936492 0 -1.936492 
C -0.513564 -1.936492 -1.006162 -1.732451 -1.369306 -1.369306 
C -1.732451 -1.006162 -1.936492 -0.513564 -1.936492 0 
C -1.936492 0.513564 -1.732451 1.006162 -1.369306 1.369306 
C -1.006162 1.732451 -0.513564 1.936492 0 1.936492 
z
" style="stroke: #1f78b4"/>
    </defs>
    <g clip-path="url(#pc2a3419844)">
     <use xlink:href="#m7530177278" x="164.412683" y="154.346296" style="fill: #1f78b4; stroke: #1f78b4"/>
     <use xlink:href="#m7530177278" x="233.727086" y="141.762294" style="fill: #1f78b4; stroke: #1f78b4"/>
     <use xlink:href="#m7530177278" x="110.337241" y="284.179309" style="fill: #1f78b4; stroke: #1f78b4"/>
     <use xlink:href="#m7530177278" x="39.986777" y="177.906758" style="fill: #1f78b4; stroke: #1f78b4"/>
     <use xlink:href="#m7530177278" x="373.168731" y="297.865604" style="fill: #1f78b4; stroke: #1f78b4"/>
     <use xlink:href="#m7530177278" x="318.949903" y="265.821827" style="fill: #1f78b4; stroke: #1f78b4"/>
     <use xlink:href="#m7530177278" x="276.96331" y="100.686196" style="fill: #1f78b4; stroke: #1f78b4"/>
     <use xlink:href="#m7530177278" x="326.544803" y="209.409777" style="fill: #1f78b4; stroke: #1f78b4"/>
     <use xlink:href="#m7530177278" x="317.63185" y="174.70655" style="fill: #1f78b4; stroke: #1f78b4"/>
     <use xlink:href="#m7530177278" x="378.112322" y="68.706863" style="fill: #1f78b4; stroke: #1f78b4"/>
     <use xlink:href="#m7530177278" x="269.722111" y="198.069363" style="fill: #1f78b4; stroke: #1f78b4"/>
     <use xlink:href="#m7530177278" x="161.323079" y="248.22951" style="fill: #1f78b4; stroke: #1f78b4"/>
     <use xlink:href="#m7530177278" x="420.813223" y="29.990083" style="fill: #1f78b4; stroke: #1f78b4"/>
     <use xlink:href="#m7530177278" x="320.348518" y="121.190586" style="fill: #1f78b4; stroke: #1f78b4"/>
     <use xlink:href="#m7530177278" x="53.738386" y="228.517691" style="fill: #1f78b4; stroke: #1f78b4"/>
     <use xlink:href="#m7530177278" x="103.253659" y="199.999314" style="fill: #1f78b4; stroke: #1f78b4"/>
     <use xlink:href="#m7530177278" x="285.492884" y="306.617494" style="fill: #1f78b4; stroke: #1f78b4"/>
     <use xlink:href="#m7530177278" x="226.110659" y="290.660859" style="fill: #1f78b4; stroke: #1f78b4"/>
     <use xlink:href="#m7530177278" x="158.556631" y="315.609917" style="fill: #1f78b4; stroke: #1f78b4"/>
     <use xlink:href="#m7530177278" x="180.105157" y="291.364559" style="fill: #1f78b4; stroke: #1f78b4"/>
     <use xlink:href="#m7530177278" x="127.759781" y="307.777787" style="fill: #1f78b4; stroke: #1f78b4"/>
     <use xlink:href="#m7530177278" x="115.015459" y="176.476343" style="fill: #1f78b4; stroke: #1f78b4"/>
     <use xlink:href="#m7530177278" x="73.378536" y="125.289707" style="fill: #1f78b4; stroke: #1f78b4"/>
     <use xlink:href="#m7530177278" x="92.001522" y="250.383554" style="fill: #1f78b4; stroke: #1f78b4"/>
    </g>
   </g>
   <g id="text_1">
    <g clip-path="url(#pc2a3419844)">
     <!-- 0 -->
     <g transform="translate(161.231433 157.105671) scale(0.1 -0.1)">
      <defs>
       <path id="DejaVuSans-30" d="M 2034 4250 
Q 1547 4250 1301 3770 
Q 1056 3291 1056 2328 
Q 1056 1369 1301 889 
Q 1547 409 2034 409 
Q 2525 409 2770 889 
Q 3016 1369 3016 2328 
Q 3016 3291 2770 3770 
Q 2525 4250 2034 4250 
z
M 2034 4750 
Q 2819 4750 3233 4129 
Q 3647 3509 3647 2328 
Q 3647 1150 3233 529 
Q 2819 -91 2034 -91 
Q 1250 -91 836 529 
Q 422 1150 422 2328 
Q 422 3509 836 4129 
Q 1250 4750 2034 4750 
z
" transform="scale(0.015625)"/>
      </defs>
      <use xlink:href="#DejaVuSans-30"/>
     </g>
    </g>
   </g>
   <g id="text_2">
    <g clip-path="url(#pc2a3419844)">
     <!-- 1 -->
     <g transform="translate(230.545836 144.521669) scale(0.1 -0.1)">
      <defs>
       <path id="DejaVuSans-31" d="M 794 531 
L 1825 531 
L 1825 4091 
L 703 3866 
L 703 4441 
L 1819 4666 
L 2450 4666 
L 2450 531 
L 3481 531 
L 3481 0 
L 794 0 
L 794 531 
z
" transform="scale(0.015625)"/>
      </defs>
      <use xlink:href="#DejaVuSans-31"/>
     </g>
    </g>
   </g>
   <g id="text_3">
    <g clip-path="url(#pc2a3419844)">
     <!-- 2 -->
     <g transform="translate(107.155991 286.938684) scale(0.1 -0.1)">
      <defs>
       <path id="DejaVuSans-32" d="M 1228 531 
L 3431 531 
L 3431 0 
L 469 0 
L 469 531 
Q 828 903 1448 1529 
Q 2069 2156 2228 2338 
Q 2531 2678 2651 2914 
Q 2772 3150 2772 3378 
Q 2772 3750 2511 3984 
Q 2250 4219 1831 4219 
Q 1534 4219 1204 4116 
Q 875 4013 500 3803 
L 500 4441 
Q 881 4594 1212 4672 
Q 1544 4750 1819 4750 
Q 2544 4750 2975 4387 
Q 3406 4025 3406 3419 
Q 3406 3131 3298 2873 
Q 3191 2616 2906 2266 
Q 2828 2175 2409 1742 
Q 1991 1309 1228 531 
z
" transform="scale(0.015625)"/>
      </defs>
      <use xlink:href="#DejaVuSans-32"/>
     </g>
    </g>
   </g>
   <g id="text_4">
    <g clip-path="url(#pc2a3419844)">
     <!-- 3 -->
     <g transform="translate(36.805527 180.666133) scale(0.1 -0.1)">
      <defs>
       <path id="DejaVuSans-33" d="M 2597 2516 
Q 3050 2419 3304 2112 
Q 3559 1806 3559 1356 
Q 3559 666 3084 287 
Q 2609 -91 1734 -91 
Q 1441 -91 1130 -33 
Q 819 25 488 141 
L 488 750 
Q 750 597 1062 519 
Q 1375 441 1716 441 
Q 2309 441 2620 675 
Q 2931 909 2931 1356 
Q 2931 1769 2642 2001 
Q 2353 2234 1838 2234 
L 1294 2234 
L 1294 2753 
L 1863 2753 
Q 2328 2753 2575 2939 
Q 2822 3125 2822 3475 
Q 2822 3834 2567 4026 
Q 2313 4219 1838 4219 
Q 1578 4219 1281 4162 
Q 984 4106 628 3988 
L 628 4550 
Q 988 4650 1302 4700 
Q 1616 4750 1894 4750 
Q 2613 4750 3031 4423 
Q 3450 4097 3450 3541 
Q 3450 3153 3228 2886 
Q 3006 2619 2597 2516 
z
" transform="scale(0.015625)"/>
      </defs>
      <use xlink:href="#DejaVuSans-33"/>
     </g>
    </g>
   </g>
   <g id="text_5">
    <g clip-path="url(#pc2a3419844)">
     <!-- 4 -->
     <g transform="translate(369.987481 300.624979) scale(0.1 -0.1)">
      <defs>
       <path id="DejaVuSans-34" d="M 2419 4116 
L 825 1625 
L 2419 1625 
L 2419 4116 
z
M 2253 4666 
L 3047 4666 
L 3047 1625 
L 3713 1625 
L 3713 1100 
L 3047 1100 
L 3047 0 
L 2419 0 
L 2419 1100 
L 313 1100 
L 313 1709 
L 2253 4666 
z
" transform="scale(0.015625)"/>
      </defs>
      <use xlink:href="#DejaVuSans-34"/>
     </g>
    </g>
   </g>
   <g id="text_6">
    <g clip-path="url(#pc2a3419844)">
     <!-- 5 -->
     <g transform="translate(315.768653 268.581202) scale(0.1 -0.1)">
      <defs>
       <path id="DejaVuSans-35" d="M 691 4666 
L 3169 4666 
L 3169 4134 
L 1269 4134 
L 1269 2991 
Q 1406 3038 1543 3061 
Q 1681 3084 1819 3084 
Q 2600 3084 3056 2656 
Q 3513 2228 3513 1497 
Q 3513 744 3044 326 
Q 2575 -91 1722 -91 
Q 1428 -91 1123 -41 
Q 819 9 494 109 
L 494 744 
Q 775 591 1075 516 
Q 1375 441 1709 441 
Q 2250 441 2565 725 
Q 2881 1009 2881 1497 
Q 2881 1984 2565 2268 
Q 2250 2553 1709 2553 
Q 1456 2553 1204 2497 
Q 953 2441 691 2322 
L 691 4666 
z
" transform="scale(0.015625)"/>
      </defs>
      <use xlink:href="#DejaVuSans-35"/>
     </g>
    </g>
   </g>
   <g id="text_7">
    <g clip-path="url(#pc2a3419844)">
     <!-- 6 -->
     <g transform="translate(273.78206 103.445571) scale(0.1 -0.1)">
      <defs>
       <path id="DejaVuSans-36" d="M 2113 2584 
Q 1688 2584 1439 2293 
Q 1191 2003 1191 1497 
Q 1191 994 1439 701 
Q 1688 409 2113 409 
Q 2538 409 2786 701 
Q 3034 994 3034 1497 
Q 3034 2003 2786 2293 
Q 2538 2584 2113 2584 
z
M 3366 4563 
L 3366 3988 
Q 3128 4100 2886 4159 
Q 2644 4219 2406 4219 
Q 1781 4219 1451 3797 
Q 1122 3375 1075 2522 
Q 1259 2794 1537 2939 
Q 1816 3084 2150 3084 
Q 2853 3084 3261 2657 
Q 3669 2231 3669 1497 
Q 3669 778 3244 343 
Q 2819 -91 2113 -91 
Q 1303 -91 875 529 
Q 447 1150 447 2328 
Q 447 3434 972 4092 
Q 1497 4750 2381 4750 
Q 2619 4750 2861 4703 
Q 3103 4656 3366 4563 
z
" transform="scale(0.015625)"/>
      </defs>
      <use xlink:href="#DejaVuSans-36"/>
     </g>
    </g>
   </g>
   <g id="text_8">
    <g clip-path="url(#pc2a3419844)">
     <!-- 7 -->
     <g transform="translate(323.363553 212.169152) scale(0.1 -0.1)">
      <defs>
       <path id="DejaVuSans-37" d="M 525 4666 
L 3525 4666 
L 3525 4397 
L 1831 0 
L 1172 0 
L 2766 4134 
L 525 4134 
L 525 4666 
z
" transform="scale(0.015625)"/>
      </defs>
      <use xlink:href="#DejaVuSans-37"/>
     </g>
    </g>
   </g>
   <g id="text_9">
    <g clip-path="url(#pc2a3419844)">
     <!-- 8 -->
     <g transform="translate(314.4506 177.465925) scale(0.1 -0.1)">
      <defs>
       <path id="DejaVuSans-38" d="M 2034 2216 
Q 1584 2216 1326 1975 
Q 1069 1734 1069 1313 
Q 1069 891 1326 650 
Q 1584 409 2034 409 
Q 2484 409 2743 651 
Q 3003 894 3003 1313 
Q 3003 1734 2745 1975 
Q 2488 2216 2034 2216 
z
M 1403 2484 
Q 997 2584 770 2862 
Q 544 3141 544 3541 
Q 544 4100 942 4425 
Q 1341 4750 2034 4750 
Q 2731 4750 3128 4425 
Q 3525 4100 3525 3541 
Q 3525 3141 3298 2862 
Q 3072 2584 2669 2484 
Q 3125 2378 3379 2068 
Q 3634 1759 3634 1313 
Q 3634 634 3220 271 
Q 2806 -91 2034 -91 
Q 1263 -91 848 271 
Q 434 634 434 1313 
Q 434 1759 690 2068 
Q 947 2378 1403 2484 
z
M 1172 3481 
Q 1172 3119 1398 2916 
Q 1625 2713 2034 2713 
Q 2441 2713 2670 2916 
Q 2900 3119 2900 3481 
Q 2900 3844 2670 4047 
Q 2441 4250 2034 4250 
Q 1625 4250 1398 4047 
Q 1172 3844 1172 3481 
z
" transform="scale(0.015625)"/>
      </defs>
      <use xlink:href="#DejaVuSans-38"/>
     </g>
    </g>
   </g>
   <g id="text_10">
    <g clip-path="url(#pc2a3419844)">
     <!-- 9 -->
     <g transform="translate(374.931072 71.466238) scale(0.1 -0.1)">
      <defs>
       <path id="DejaVuSans-39" d="M 703 97 
L 703 672 
Q 941 559 1184 500 
Q 1428 441 1663 441 
Q 2288 441 2617 861 
Q 2947 1281 2994 2138 
Q 2813 1869 2534 1725 
Q 2256 1581 1919 1581 
Q 1219 1581 811 2004 
Q 403 2428 403 3163 
Q 403 3881 828 4315 
Q 1253 4750 1959 4750 
Q 2769 4750 3195 4129 
Q 3622 3509 3622 2328 
Q 3622 1225 3098 567 
Q 2575 -91 1691 -91 
Q 1453 -91 1209 -44 
Q 966 3 703 97 
z
M 1959 2075 
Q 2384 2075 2632 2365 
Q 2881 2656 2881 3163 
Q 2881 3666 2632 3958 
Q 2384 4250 1959 4250 
Q 1534 4250 1286 3958 
Q 1038 3666 1038 3163 
Q 1038 2656 1286 2365 
Q 1534 2075 1959 2075 
z
" transform="scale(0.015625)"/>
      </defs>
      <use xlink:href="#DejaVuSans-39"/>
     </g>
    </g>
   </g>
   <g id="text_11">
    <g clip-path="url(#pc2a3419844)">
     <!-- 10 -->
     <g transform="translate(263.359611 200.828738) scale(0.1 -0.1)">
      <use xlink:href="#DejaVuSans-31"/>
      <use xlink:href="#DejaVuSans-30" x="63.623047"/>
     </g>
    </g>
   </g>
   <g id="text_12">
    <g clip-path="url(#pc2a3419844)">
     <!-- 11 -->
     <g transform="translate(154.960579 250.988885) scale(0.1 -0.1)">
      <use xlink:href="#DejaVuSans-31"/>
      <use xlink:href="#DejaVuSans-31" x="63.623047"/>
     </g>
    </g>
   </g>
   <g id="text_13">
    <g clip-path="url(#pc2a3419844)">
     <!-- 12 -->
     <g transform="translate(414.450723 32.749458) scale(0.1 -0.1)">
      <use xlink:href="#DejaVuSans-31"/>
      <use xlink:href="#DejaVuSans-32" x="63.623047"/>
     </g>
    </g>
   </g>
   <g id="text_14">
    <g clip-path="url(#pc2a3419844)">
     <!-- 13 -->
     <g transform="translate(313.986018 123.949961) scale(0.1 -0.1)">
      <use xlink:href="#DejaVuSans-31"/>
      <use xlink:href="#DejaVuSans-33" x="63.623047"/>
     </g>
    </g>
   </g>
   <g id="text_15">
    <g clip-path="url(#pc2a3419844)">
     <!-- 14 -->
     <g transform="translate(47.375886 231.277066) scale(0.1 -0.1)">
      <use xlink:href="#DejaVuSans-31"/>
      <use xlink:href="#DejaVuSans-34" x="63.623047"/>
     </g>
    </g>
   </g>
   <g id="text_16">
    <g clip-path="url(#pc2a3419844)">
     <!-- 15 -->
     <g transform="translate(96.891159 202.758689) scale(0.1 -0.1)">
      <use xlink:href="#DejaVuSans-31"/>
      <use xlink:href="#DejaVuSans-35" x="63.623047"/>
     </g>
    </g>
   </g>
   <g id="text_17">
    <g clip-path="url(#pc2a3419844)">
     <!-- 16 -->
     <g transform="translate(279.130384 309.376869) scale(0.1 -0.1)">
      <use xlink:href="#DejaVuSans-31"/>
      <use xlink:href="#DejaVuSans-36" x="63.623047"/>
     </g>
    </g>
   </g>
   <g id="text_18">
    <g clip-path="url(#pc2a3419844)">
     <!-- 17 -->
     <g transform="translate(219.748159 293.420234) scale(0.1 -0.1)">
      <use xlink:href="#DejaVuSans-31"/>
      <use xlink:href="#DejaVuSans-37" x="63.623047"/>
     </g>
    </g>
   </g>
   <g id="text_19">
    <g clip-path="url(#pc2a3419844)">
     <!-- 18 -->
     <g transform="translate(152.194131 318.369292) scale(0.1 -0.1)">
      <use xlink:href="#DejaVuSans-31"/>
      <use xlink:href="#DejaVuSans-38" x="63.623047"/>
     </g>
    </g>
   </g>
   <g id="text_20">
    <g clip-path="url(#pc2a3419844)">
     <!-- 19 -->
     <g transform="translate(173.742657 294.123934) scale(0.1 -0.1)">
      <use xlink:href="#DejaVuSans-31"/>
      <use xlink:href="#DejaVuSans-39" x="63.623047"/>
     </g>
    </g>
   </g>
   <g id="text_21">
    <g clip-path="url(#pc2a3419844)">
     <!-- 20 -->
     <g transform="translate(121.397281 310.537162) scale(0.1 -0.1)">
      <use xlink:href="#DejaVuSans-32"/>
      <use xlink:href="#DejaVuSans-30" x="63.623047"/>
     </g>
    </g>
   </g>
   <g id="text_22">
    <g clip-path="url(#pc2a3419844)">
     <!-- 21 -->
     <g transform="translate(108.652959 179.235718) scale(0.1 -0.1)">
      <use xlink:href="#DejaVuSans-32"/>
      <use xlink:href="#DejaVuSans-31" x="63.623047"/>
     </g>
    </g>
   </g>
   <g id="text_23">
    <g clip-path="url(#pc2a3419844)">
     <!-- 22 -->
     <g transform="translate(67.016036 128.049082) scale(0.1 -0.1)">
      <use xlink:href="#DejaVuSans-32"/>
      <use xlink:href="#DejaVuSans-32" x="63.623047"/>
     </g>
    </g>
   </g>
   <g id="text_24">
    <g clip-path="url(#pc2a3419844)">
     <!-- 23 -->
     <g transform="translate(85.639022 253.142929) scale(0.1 -0.1)">
      <use xlink:href="#DejaVuSans-32"/>
      <use xlink:href="#DejaVuSans-33" x="63.623047"/>
     </g>
    </g>
   </g>
  </g>
 </g>
 <defs>
  <clipPath id="pc2a3419844">
   <rect x="0" y="0" width="460.8" height="345.6"/>
  </clipPath>
 </defs>
</svg>
