<?xml version="1.0" encoding="utf-8" standalone="no"?>
<!DOCTYPE svg PUBLIC "-//W3C//DTD SVG 1.1//EN"
  "http://www.w3.org/Graphics/SVG/1.1/DTD/svg11.dtd">
<svg xmlns:xlink="http://www.w3.org/1999/xlink" width="460.8pt" height="345.6pt" viewBox="0 0 460.8 345.6" xmlns="http://www.w3.org/2000/svg" version="1.1">
 <metadata>
  <rdf:RDF xmlns:dc="http://purl.org/dc/elements/1.1/" xmlns:cc="http://creativecommons.org/ns#" xmlns:rdf="http://www.w3.org/1999/02/22-rdf-syntax-ns#">
   <cc:Work>
    <dc:type rdf:resource="http://purl.org/dc/dcmitype/StillImage"/>
    <dc:date>2024-02-28T11:18:46.162602</dc:date>
    <dc:format>image/svg+xml</dc:format>
    <dc:creator>
     <cc:Agent>
      <dc:title>Matplotlib v3.8.0, https://matplotlib.org/</dc:title>
     </cc:Agent>
    </dc:creator>
   </cc:Work>
  </rdf:RDF>
 </metadata>
 <defs>
  <style type="text/css">*{stroke-linejoin: round; stroke-linecap: butt}</style>
 </defs>
 <g id="figure_1">
  <g id="patch_1">
   <path d="M 0 345.6 
L 460.8 345.6 
L 460.8 0 
L 0 0 
z
" style="fill: #ffffff"/>
  </g>
  <g id="axes_1">
   <g id="patch_2">
    <path d="M 395.022132 121.392362 
Q 355.675936 145.073195 317.28766 168.177495 
" clip-path="url(#p4774eeb3d2)" style="fill: none; stroke: #000000; stroke-linecap: round"/>
    <path d="M 321.74615 167.828411 
L 317.28766 168.177495 
L 319.683487 164.401252 
z
" clip-path="url(#p4774eeb3d2)" style="stroke: #000000; stroke-linecap: round"/>
   </g>
   <g id="patch_3">
    <path d="M 395.022132 121.392362 
Q 355.675936 145.073195 317.28766 168.177495 
" clip-path="url(#p4774eeb3d2)" style="fill: none; stroke: #000000; stroke-linecap: round"/>
    <path d="M 321.74615 167.828411 
L 317.28766 168.177495 
L 319.683487 164.401252 
z
" clip-path="url(#p4774eeb3d2)" style="stroke: #000000; stroke-linecap: round"/>
   </g>
   <g id="patch_4">
    <path d="M 372.551447 270.010686 
Q 344.095416 220.721798 316.198389 172.401164 
" clip-path="url(#p4774eeb3d2)" style="fill: none; stroke: #000000; stroke-linecap: round"/>
    <path d="M 316.466275 176.865269 
L 316.198389 172.401164 
L 319.930405 174.865318 
z
" clip-path="url(#p4774eeb3d2)" style="stroke: #000000; stroke-linecap: round"/>
   </g>
   <g id="patch_5">
    <path d="M 259.937633 120.928182 
Q 214.828692 141.328258 170.738454 161.267636 
" clip-path="url(#p4774eeb3d2)" style="fill: none; stroke: #000000; stroke-linecap: round"/>
    <path d="M 175.207202 161.441702 
L 170.738454 161.267636 
L 173.558956 157.797078 
z
" clip-path="url(#p4774eeb3d2)" style="stroke: #000000; stroke-linecap: round"/>
   </g>
   <g id="patch_6">
    <path d="M 263.11561 121.453446 
Q 288.186204 144.941492 312.440897 167.665138 
" clip-path="url(#p4774eeb3d2)" style="fill: none; stroke: #000000; stroke-linecap: round"/>
    <path d="M 310.889237 163.470815 
L 312.440897 167.665138 
L 308.154442 166.389872 
z
" clip-path="url(#p4774eeb3d2)" style="stroke: #000000; stroke-linecap: round"/>
   </g>
   <g id="patch_7">
    <path d="M 263.11561 121.453446 
Q 288.186204 144.941492 312.440897 167.665138 
" clip-path="url(#p4774eeb3d2)" style="fill: none; stroke: #000000; stroke-linecap: round"/>
    <path d="M 310.889237 163.470815 
L 312.440897 167.665138 
L 308.154442 166.389872 
z
" clip-path="url(#p4774eeb3d2)" style="stroke: #000000; stroke-linecap: round"/>
   </g>
   <g id="patch_8">
    <path d="M 316.328983 168.754482 
Q 355.675179 145.07365 394.063455 121.96935 
" clip-path="url(#p4774eeb3d2)" style="fill: none; stroke: #000000; stroke-linecap: round"/>
    <path d="M 389.604964 122.318434 
L 394.063455 121.96935 
L 391.667628 125.745593 
z
" clip-path="url(#p4774eeb3d2)" style="stroke: #000000; stroke-linecap: round"/>
   </g>
   <g id="patch_9">
    <path d="M 316.328983 168.754482 
Q 355.675179 145.07365 394.063455 121.96935 
" clip-path="url(#p4774eeb3d2)" style="fill: none; stroke: #000000; stroke-linecap: round"/>
    <path d="M 389.604964 122.318434 
L 394.063455 121.96935 
L 391.667628 125.745593 
z
" clip-path="url(#p4774eeb3d2)" style="stroke: #000000; stroke-linecap: round"/>
   </g>
   <g id="patch_10">
    <path d="M 315.637644 171.429894 
Q 344.093675 220.718782 371.990703 269.039416 
" clip-path="url(#p4774eeb3d2)" style="fill: none; stroke: #000000; stroke-linecap: round"/>
    <path d="M 371.722816 264.575311 
L 371.990703 269.039416 
L 368.258686 266.575262 
z
" clip-path="url(#p4774eeb3d2)" style="stroke: #000000; stroke-linecap: round"/>
   </g>
   <g id="patch_11">
    <path d="M 313.256876 168.42961 
Q 288.186282 144.941565 263.931589 122.217918 
" clip-path="url(#p4774eeb3d2)" style="fill: none; stroke: #000000; stroke-linecap: round"/>
    <path d="M 265.483249 126.412242 
L 263.931589 122.217918 
L 268.218044 123.493185 
z
" clip-path="url(#p4774eeb3d2)" style="stroke: #000000; stroke-linecap: round"/>
   </g>
   <g id="patch_12">
    <path d="M 313.256876 168.42961 
Q 288.186282 144.941565 263.931589 122.217918 
" clip-path="url(#p4774eeb3d2)" style="fill: none; stroke: #000000; stroke-linecap: round"/>
    <path d="M 265.483249 126.412242 
L 263.931589 122.217918 
L 268.218044 123.493185 
z
" clip-path="url(#p4774eeb3d2)" style="stroke: #000000; stroke-linecap: round"/>
   </g>
   <g id="patch_13">
    <path d="M 312.739864 169.658132 
Q 241.312414 166.14004 171.001645 162.676949 
" clip-path="url(#p4774eeb3d2)" style="fill: none; stroke: #000000; stroke-linecap: round"/>
    <path d="M 174.898413 164.871305 
L 171.001645 162.676949 
L 175.095191 160.876148 
z
" clip-path="url(#p4774eeb3d2)" style="stroke: #000000; stroke-linecap: round"/>
   </g>
   <g id="patch_14">
    <path d="M 314.258067 171.647052 
Q 306.95458 205.255626 299.888512 237.771666 
" clip-path="url(#p4774eeb3d2)" style="fill: none; stroke: #000000; stroke-linecap: round"/>
    <path d="M 302.692313 234.287603 
L 299.888512 237.771666 
L 298.783542 233.438187 
z
" clip-path="url(#p4774eeb3d2)" style="stroke: #000000; stroke-linecap: round"/>
   </g>
   <g id="patch_15">
    <path d="M 314.258067 171.647052 
Q 306.95458 205.255626 299.888512 237.771666 
" clip-path="url(#p4774eeb3d2)" style="fill: none; stroke: #000000; stroke-linecap: round"/>
    <path d="M 302.692313 234.287603 
L 299.888512 237.771666 
L 298.783542 233.438187 
z
" clip-path="url(#p4774eeb3d2)" style="stroke: #000000; stroke-linecap: round"/>
   </g>
   <g id="patch_16">
    <path d="M 128.862165 282.262566 
Q 148.108083 223.313697 167.007005 165.427651 
" clip-path="url(#p4774eeb3d2)" style="fill: none; stroke: #000000; stroke-linecap: round"/>
    <path d="M 163.864319 168.609399 
L 167.007005 165.427651 
L 167.666792 169.85085 
z
" clip-path="url(#p4774eeb3d2)" style="stroke: #000000; stroke-linecap: round"/>
   </g>
   <g id="patch_17">
    <path d="M 58.437903 228.100802 
Q 112.36546 195.811111 165.333787 164.095769 
" clip-path="url(#p4774eeb3d2)" style="fill: none; stroke: #000000; stroke-linecap: round"/>
    <path d="M 160.874513 164.4347 
L 165.333787 164.095769 
L 162.929368 167.866547 
z
" clip-path="url(#p4774eeb3d2)" style="stroke: #000000; stroke-linecap: round"/>
   </g>
   <g id="patch_18">
    <path d="M 162.972304 31.927494 
Q 165.426322 96.260667 167.837723 159.476618 
" clip-path="url(#p4774eeb3d2)" style="fill: none; stroke: #000000; stroke-linecap: round"/>
    <path d="M 169.683799 155.403289 
L 167.837723 159.476618 
L 165.686706 155.55576 
z
" clip-path="url(#p4774eeb3d2)" style="stroke: #000000; stroke-linecap: round"/>
   </g>
   <g id="patch_19">
    <path d="M 81.9549 65.213751 
Q 124.312801 113.144191 165.930334 160.236862 
" clip-path="url(#p4774eeb3d2)" style="fill: none; stroke: #000000; stroke-linecap: round"/>
    <path d="M 164.780162 155.915161 
L 165.930334 160.236862 
L 161.78287 158.563979 
z
" clip-path="url(#p4774eeb3d2)" style="stroke: #000000; stroke-linecap: round"/>
   </g>
   <g id="patch_20">
    <path d="M 41.896445 142.21627 
Q 103.969287 152.217529 164.938331 162.040943 
" clip-path="url(#p4774eeb3d2)" style="fill: none; stroke: #000000; stroke-linecap: round"/>
    <path d="M 161.307401 159.430129 
L 164.938331 162.040943 
L 160.671122 163.379198 
z
" clip-path="url(#p4774eeb3d2)" style="stroke: #000000; stroke-linecap: round"/>
   </g>
   <g id="patch_21">
    <path d="M 419.162213 314.593407 
Q 360.026136 278.183904 301.842113 242.360572 
" clip-path="url(#p4774eeb3d2)" style="fill: none; stroke: #000000; stroke-linecap: round"/>
    <path d="M 304.199709 246.160801 
L 301.842113 242.360572 
L 306.296854 242.754632 
z
" clip-path="url(#p4774eeb3d2)" style="stroke: #000000; stroke-linecap: round"/>
   </g>
   <g id="patch_22">
    <path d="M 299.65107 238.864305 
Q 306.954557 205.255731 314.020625 172.739691 
" clip-path="url(#p4774eeb3d2)" style="fill: none; stroke: #000000; stroke-linecap: round"/>
    <path d="M 311.216824 176.223754 
L 314.020625 172.739691 
L 315.125595 177.07317 
z
" clip-path="url(#p4774eeb3d2)" style="stroke: #000000; stroke-linecap: round"/>
   </g>
   <g id="patch_23">
    <path d="M 299.65107 238.864305 
Q 306.954557 205.255731 314.020625 172.739691 
" clip-path="url(#p4774eeb3d2)" style="fill: none; stroke: #000000; stroke-linecap: round"/>
    <path d="M 311.216824 176.223754 
L 314.020625 172.739691 
L 315.125595 177.07317 
z
" clip-path="url(#p4774eeb3d2)" style="stroke: #000000; stroke-linecap: round"/>
   </g>
   <g id="patch_24">
    <path d="M 300.890523 241.774687 
Q 360.026599 278.184189 418.210623 314.007522 
" clip-path="url(#p4774eeb3d2)" style="fill: none; stroke: #000000; stroke-linecap: round"/>
    <path d="M 415.853026 310.207293 
L 418.210623 314.007522 
L 413.755882 313.613461 
z
" clip-path="url(#p4774eeb3d2)" style="stroke: #000000; stroke-linecap: round"/>
   </g>
   <g id="patch_25">
    <path d="M 297.576809 239.767393 
Q 233.598132 201.643308 170.5799 164.091539 
" clip-path="url(#p4774eeb3d2)" style="fill: none; stroke: #000000; stroke-linecap: round"/>
    <path d="M 172.992299 167.857217 
L 170.5799 164.091539 
L 175.039882 164.421027 
z
" clip-path="url(#p4774eeb3d2)" style="stroke: #000000; stroke-linecap: round"/>
   </g>
   <g id="patch_26">
    <path d="M 169.719304 161.728537 
Q 214.828245 141.328461 258.918482 121.389083 
" clip-path="url(#p4774eeb3d2)" style="fill: none; stroke: #000000; stroke-linecap: round"/>
    <path d="M 254.449735 121.215017 
L 258.918482 121.389083 
L 256.097981 124.859641 
z
" clip-path="url(#p4774eeb3d2)" style="stroke: #000000; stroke-linecap: round"/>
   </g>
   <g id="patch_27">
    <path d="M 169.883836 162.621892 
Q 241.311286 166.139985 311.622055 169.603076 
" clip-path="url(#p4774eeb3d2)" style="fill: none; stroke: #000000; stroke-linecap: round"/>
    <path d="M 307.725287 167.40872 
L 311.622055 169.603076 
L 307.528509 171.403876 
z
" clip-path="url(#p4774eeb3d2)" style="stroke: #000000; stroke-linecap: round"/>
   </g>
   <g id="patch_28">
    <path d="M 167.352028 164.370873 
Q 148.10611 223.319741 129.207188 281.205787 
" clip-path="url(#p4774eeb3d2)" style="fill: none; stroke: #000000; stroke-linecap: round"/>
    <path d="M 132.349874 278.024039 
L 129.207188 281.205787 
L 128.547401 276.782589 
z
" clip-path="url(#p4774eeb3d2)" style="stroke: #000000; stroke-linecap: round"/>
   </g>
   <g id="patch_29">
    <path d="M 166.294996 163.520235 
Q 112.367439 195.809926 59.399112 227.525268 
" clip-path="url(#p4774eeb3d2)" style="fill: none; stroke: #000000; stroke-linecap: round"/>
    <path d="M 63.858386 227.186337 
L 59.399112 227.525268 
L 61.803532 223.75449 
z
" clip-path="url(#p4774eeb3d2)" style="stroke: #000000; stroke-linecap: round"/>
   </g>
   <g id="patch_30">
    <path d="M 167.880172 160.589432 
Q 165.426154 96.256259 163.014753 33.040308 
" clip-path="url(#p4774eeb3d2)" style="fill: none; stroke: #000000; stroke-linecap: round"/>
    <path d="M 161.168677 37.113637 
L 163.014753 33.040308 
L 165.16577 36.961166 
z
" clip-path="url(#p4774eeb3d2)" style="stroke: #000000; stroke-linecap: round"/>
   </g>
   <g id="patch_31">
    <path d="M 166.672891 161.077109 
Q 124.31499 113.146669 82.697456 66.053997 
" clip-path="url(#p4774eeb3d2)" style="fill: none; stroke: #000000; stroke-linecap: round"/>
    <path d="M 83.847628 70.375699 
L 82.697456 66.053997 
L 86.844921 67.726881 
z
" clip-path="url(#p4774eeb3d2)" style="stroke: #000000; stroke-linecap: round"/>
   </g>
   <g id="patch_32">
    <path d="M 166.044407 162.219155 
Q 103.971565 152.217896 43.002521 142.394483 
" clip-path="url(#p4774eeb3d2)" style="fill: none; stroke: #000000; stroke-linecap: round"/>
    <path d="M 46.633451 145.005297 
L 43.002521 142.394483 
L 47.26973 141.056227 
z
" clip-path="url(#p4774eeb3d2)" style="stroke: #000000; stroke-linecap: round"/>
   </g>
   <g id="patch_33">
    <path d="M 169.616778 163.517627 
Q 233.595455 201.641713 296.613688 239.193481 
" clip-path="url(#p4774eeb3d2)" style="fill: none; stroke: #000000; stroke-linecap: round"/>
    <path d="M 294.201289 235.427803 
L 296.613688 239.193481 
L 292.153706 238.863994 
z
" clip-path="url(#p4774eeb3d2)" style="stroke: #000000; stroke-linecap: round"/>
   </g>
   <g id="PathCollection_1">
    <defs>
     <path id="md67078d5de" d="M 0 1.936492 
C 0.513564 1.936492 1.006162 1.732451 1.369306 1.369306 
C 1.732451 1.006162 1.936492 0.513564 1.936492 0 
C 1.936492 -0.513564 1.732451 -1.006162 1.369306 -1.369306 
C 1.006162 -1.732451 0.513564 -1.936492 0 -1.936492 
C -0.513564 -1.936492 -1.006162 -1.732451 -1.369306 -1.369306 
C -1.732451 -1.006162 -1.936492 -0.513564 -1.936492 0 
C -1.936492 0.513564 -1.732451 1.006162 -1.369306 1.369306 
C -1.006162 1.732451 -0.513564 1.936492 0 1.936492 
z
" style="stroke: #1f78b4"/>
    </defs>
    <g clip-path="url(#p4774eeb3d2)">
     <use xlink:href="#md67078d5de" x="396.68149" y="120.393664" style="fill: #1f78b4; stroke: #1f78b4"/>
     <use xlink:href="#md67078d5de" x="373.519467" y="271.687399" style="fill: #1f78b4; stroke: #1f78b4"/>
     <use xlink:href="#md67078d5de" x="261.702861" y="120.129875" style="fill: #1f78b4; stroke: #1f78b4"/>
     <use xlink:href="#md67078d5de" x="314.669625" y="169.753181" style="fill: #1f78b4; stroke: #1f78b4"/>
     <use xlink:href="#md67078d5de" x="128.260118" y="284.106595" style="fill: #1f78b4; stroke: #1f78b4"/>
     <use xlink:href="#md67078d5de" x="56.778824" y="229.094193" style="fill: #1f78b4; stroke: #1f78b4"/>
     <use xlink:href="#md67078d5de" x="162.898401" y="29.990083" style="fill: #1f78b4; stroke: #1f78b4"/>
     <use xlink:href="#md67078d5de" x="80.673715" y="63.764016" style="fill: #1f78b4; stroke: #1f78b4"/>
     <use xlink:href="#md67078d5de" x="39.986777" y="141.908582" style="fill: #1f78b4; stroke: #1f78b4"/>
     <use xlink:href="#md67078d5de" x="420.813223" y="315.609917" style="fill: #1f78b4; stroke: #1f78b4"/>
     <use xlink:href="#md67078d5de" x="299.239512" y="240.758176" style="fill: #1f78b4; stroke: #1f78b4"/>
     <use xlink:href="#md67078d5de" x="167.954075" y="162.526844" style="fill: #1f78b4; stroke: #1f78b4"/>
    </g>
   </g>
   <g id="text_1">
    <g clip-path="url(#p4774eeb3d2)">
     <!-- 0 -->
     <g transform="translate(393.50024 123.153039) scale(0.1 -0.1)">
      <defs>
       <path id="DejaVuSans-30" d="M 2034 4250 
Q 1547 4250 1301 3770 
Q 1056 3291 1056 2328 
Q 1056 1369 1301 889 
Q 1547 409 2034 409 
Q 2525 409 2770 889 
Q 3016 1369 3016 2328 
Q 3016 3291 2770 3770 
Q 2525 4250 2034 4250 
z
M 2034 4750 
Q 2819 4750 3233 4129 
Q 3647 3509 3647 2328 
Q 3647 1150 3233 529 
Q 2819 -91 2034 -91 
Q 1250 -91 836 529 
Q 422 1150 422 2328 
Q 422 3509 836 4129 
Q 1250 4750 2034 4750 
z
" transform="scale(0.015625)"/>
      </defs>
      <use xlink:href="#DejaVuSans-30"/>
     </g>
    </g>
   </g>
   <g id="text_2">
    <g clip-path="url(#p4774eeb3d2)">
     <!-- 1 -->
     <g transform="translate(370.338217 274.446774) scale(0.1 -0.1)">
      <defs>
       <path id="DejaVuSans-31" d="M 794 531 
L 1825 531 
L 1825 4091 
L 703 3866 
L 703 4441 
L 1819 4666 
L 2450 4666 
L 2450 531 
L 3481 531 
L 3481 0 
L 794 0 
L 794 531 
z
" transform="scale(0.015625)"/>
      </defs>
      <use xlink:href="#DejaVuSans-31"/>
     </g>
    </g>
   </g>
   <g id="text_3">
    <g clip-path="url(#p4774eeb3d2)">
     <!-- 2 -->
     <g transform="translate(258.521611 122.88925) scale(0.1 -0.1)">
      <defs>
       <path id="DejaVuSans-32" d="M 1228 531 
L 3431 531 
L 3431 0 
L 469 0 
L 469 531 
Q 828 903 1448 1529 
Q 2069 2156 2228 2338 
Q 2531 2678 2651 2914 
Q 2772 3150 2772 3378 
Q 2772 3750 2511 3984 
Q 2250 4219 1831 4219 
Q 1534 4219 1204 4116 
Q 875 4013 500 3803 
L 500 4441 
Q 881 4594 1212 4672 
Q 1544 4750 1819 4750 
Q 2544 4750 2975 4387 
Q 3406 4025 3406 3419 
Q 3406 3131 3298 2873 
Q 3191 2616 2906 2266 
Q 2828 2175 2409 1742 
Q 1991 1309 1228 531 
z
" transform="scale(0.015625)"/>
      </defs>
      <use xlink:href="#DejaVuSans-32"/>
     </g>
    </g>
   </g>
   <g id="text_4">
    <g clip-path="url(#p4774eeb3d2)">
     <!-- 3 -->
     <g transform="translate(311.488375 172.512556) scale(0.1 -0.1)">
      <defs>
       <path id="DejaVuSans-33" d="M 2597 2516 
Q 3050 2419 3304 2112 
Q 3559 1806 3559 1356 
Q 3559 666 3084 287 
Q 2609 -91 1734 -91 
Q 1441 -91 1130 -33 
Q 819 25 488 141 
L 488 750 
Q 750 597 1062 519 
Q 1375 441 1716 441 
Q 2309 441 2620 675 
Q 2931 909 2931 1356 
Q 2931 1769 2642 2001 
Q 2353 2234 1838 2234 
L 1294 2234 
L 1294 2753 
L 1863 2753 
Q 2328 2753 2575 2939 
Q 2822 3125 2822 3475 
Q 2822 3834 2567 4026 
Q 2313 4219 1838 4219 
Q 1578 4219 1281 4162 
Q 984 4106 628 3988 
L 628 4550 
Q 988 4650 1302 4700 
Q 1616 4750 1894 4750 
Q 2613 4750 3031 4423 
Q 3450 4097 3450 3541 
Q 3450 3153 3228 2886 
Q 3006 2619 2597 2516 
z
" transform="scale(0.015625)"/>
      </defs>
      <use xlink:href="#DejaVuSans-33"/>
     </g>
    </g>
   </g>
   <g id="text_5">
    <g clip-path="url(#p4774eeb3d2)">
     <!-- 4 -->
     <g transform="translate(125.078868 286.86597) scale(0.1 -0.1)">
      <defs>
       <path id="DejaVuSans-34" d="M 2419 4116 
L 825 1625 
L 2419 1625 
L 2419 4116 
z
M 2253 4666 
L 3047 4666 
L 3047 1625 
L 3713 1625 
L 3713 1100 
L 3047 1100 
L 3047 0 
L 2419 0 
L 2419 1100 
L 313 1100 
L 313 1709 
L 2253 4666 
z
" transform="scale(0.015625)"/>
      </defs>
      <use xlink:href="#DejaVuSans-34"/>
     </g>
    </g>
   </g>
   <g id="text_6">
    <g clip-path="url(#p4774eeb3d2)">
     <!-- 5 -->
     <g transform="translate(53.597574 231.853568) scale(0.1 -0.1)">
      <defs>
       <path id="DejaVuSans-35" d="M 691 4666 
L 3169 4666 
L 3169 4134 
L 1269 4134 
L 1269 2991 
Q 1406 3038 1543 3061 
Q 1681 3084 1819 3084 
Q 2600 3084 3056 2656 
Q 3513 2228 3513 1497 
Q 3513 744 3044 326 
Q 2575 -91 1722 -91 
Q 1428 -91 1123 -41 
Q 819 9 494 109 
L 494 744 
Q 775 591 1075 516 
Q 1375 441 1709 441 
Q 2250 441 2565 725 
Q 2881 1009 2881 1497 
Q 2881 1984 2565 2268 
Q 2250 2553 1709 2553 
Q 1456 2553 1204 2497 
Q 953 2441 691 2322 
L 691 4666 
z
" transform="scale(0.015625)"/>
      </defs>
      <use xlink:href="#DejaVuSans-35"/>
     </g>
    </g>
   </g>
   <g id="text_7">
    <g clip-path="url(#p4774eeb3d2)">
     <!-- 6 -->
     <g transform="translate(159.717151 32.749458) scale(0.1 -0.1)">
      <defs>
       <path id="DejaVuSans-36" d="M 2113 2584 
Q 1688 2584 1439 2293 
Q 1191 2003 1191 1497 
Q 1191 994 1439 701 
Q 1688 409 2113 409 
Q 2538 409 2786 701 
Q 3034 994 3034 1497 
Q 3034 2003 2786 2293 
Q 2538 2584 2113 2584 
z
M 3366 4563 
L 3366 3988 
Q 3128 4100 2886 4159 
Q 2644 4219 2406 4219 
Q 1781 4219 1451 3797 
Q 1122 3375 1075 2522 
Q 1259 2794 1537 2939 
Q 1816 3084 2150 3084 
Q 2853 3084 3261 2657 
Q 3669 2231 3669 1497 
Q 3669 778 3244 343 
Q 2819 -91 2113 -91 
Q 1303 -91 875 529 
Q 447 1150 447 2328 
Q 447 3434 972 4092 
Q 1497 4750 2381 4750 
Q 2619 4750 2861 4703 
Q 3103 4656 3366 4563 
z
" transform="scale(0.015625)"/>
      </defs>
      <use xlink:href="#DejaVuSans-36"/>
     </g>
    </g>
   </g>
   <g id="text_8">
    <g clip-path="url(#p4774eeb3d2)">
     <!-- 7 -->
     <g transform="translate(77.492465 66.523391) scale(0.1 -0.1)">
      <defs>
       <path id="DejaVuSans-37" d="M 525 4666 
L 3525 4666 
L 3525 4397 
L 1831 0 
L 1172 0 
L 2766 4134 
L 525 4134 
L 525 4666 
z
" transform="scale(0.015625)"/>
      </defs>
      <use xlink:href="#DejaVuSans-37"/>
     </g>
    </g>
   </g>
   <g id="text_9">
    <g clip-path="url(#p4774eeb3d2)">
     <!-- 8 -->
     <g transform="translate(36.805527 144.667957) scale(0.1 -0.1)">
      <defs>
       <path id="DejaVuSans-38" d="M 2034 2216 
Q 1584 2216 1326 1975 
Q 1069 1734 1069 1313 
Q 1069 891 1326 650 
Q 1584 409 2034 409 
Q 2484 409 2743 651 
Q 3003 894 3003 1313 
Q 3003 1734 2745 1975 
Q 2488 2216 2034 2216 
z
M 1403 2484 
Q 997 2584 770 2862 
Q 544 3141 544 3541 
Q 544 4100 942 4425 
Q 1341 4750 2034 4750 
Q 2731 4750 3128 4425 
Q 3525 4100 3525 3541 
Q 3525 3141 3298 2862 
Q 3072 2584 2669 2484 
Q 3125 2378 3379 2068 
Q 3634 1759 3634 1313 
Q 3634 634 3220 271 
Q 2806 -91 2034 -91 
Q 1263 -91 848 271 
Q 434 634 434 1313 
Q 434 1759 690 2068 
Q 947 2378 1403 2484 
z
M 1172 3481 
Q 1172 3119 1398 2916 
Q 1625 2713 2034 2713 
Q 2441 2713 2670 2916 
Q 2900 3119 2900 3481 
Q 2900 3844 2670 4047 
Q 2441 4250 2034 4250 
Q 1625 4250 1398 4047 
Q 1172 3844 1172 3481 
z
" transform="scale(0.015625)"/>
      </defs>
      <use xlink:href="#DejaVuSans-38"/>
     </g>
    </g>
   </g>
   <g id="text_10">
    <g clip-path="url(#p4774eeb3d2)">
     <!-- 9 -->
     <g transform="translate(417.631973 318.369292) scale(0.1 -0.1)">
      <defs>
       <path id="DejaVuSans-39" d="M 703 97 
L 703 672 
Q 941 559 1184 500 
Q 1428 441 1663 441 
Q 2288 441 2617 861 
Q 2947 1281 2994 2138 
Q 2813 1869 2534 1725 
Q 2256 1581 1919 1581 
Q 1219 1581 811 2004 
Q 403 2428 403 3163 
Q 403 3881 828 4315 
Q 1253 4750 1959 4750 
Q 2769 4750 3195 4129 
Q 3622 3509 3622 2328 
Q 3622 1225 3098 567 
Q 2575 -91 1691 -91 
Q 1453 -91 1209 -44 
Q 966 3 703 97 
z
M 1959 2075 
Q 2384 2075 2632 2365 
Q 2881 2656 2881 3163 
Q 2881 3666 2632 3958 
Q 2384 4250 1959 4250 
Q 1534 4250 1286 3958 
Q 1038 3666 1038 3163 
Q 1038 2656 1286 2365 
Q 1534 2075 1959 2075 
z
" transform="scale(0.015625)"/>
      </defs>
      <use xlink:href="#DejaVuSans-39"/>
     </g>
    </g>
   </g>
   <g id="text_11">
    <g clip-path="url(#p4774eeb3d2)">
     <!-- 10 -->
     <g transform="translate(292.877012 243.517551) scale(0.1 -0.1)">
      <use xlink:href="#DejaVuSans-31"/>
      <use xlink:href="#DejaVuSans-30" x="63.623047"/>
     </g>
    </g>
   </g>
   <g id="text_12">
    <g clip-path="url(#p4774eeb3d2)">
     <!-- 11 -->
     <g transform="translate(161.591575 165.286219) scale(0.1 -0.1)">
      <use xlink:href="#DejaVuSans-31"/>
      <use xlink:href="#DejaVuSans-31" x="63.623047"/>
     </g>
    </g>
   </g>
  </g>
 </g>
 <defs>
  <clipPath id="p4774eeb3d2">
   <rect x="0" y="0" width="460.8" height="345.6"/>
  </clipPath>
 </defs>
</svg>
