<?xml version="1.0" encoding="utf-8" standalone="no"?>
<!DOCTYPE svg PUBLIC "-//W3C//DTD SVG 1.1//EN"
  "http://www.w3.org/Graphics/SVG/1.1/DTD/svg11.dtd">
<svg xmlns:xlink="http://www.w3.org/1999/xlink" width="460.8pt" height="345.6pt" viewBox="0 0 460.8 345.6" xmlns="http://www.w3.org/2000/svg" version="1.1">
 <metadata>
  <rdf:RDF xmlns:dc="http://purl.org/dc/elements/1.1/" xmlns:cc="http://creativecommons.org/ns#" xmlns:rdf="http://www.w3.org/1999/02/22-rdf-syntax-ns#">
   <cc:Work>
    <dc:type rdf:resource="http://purl.org/dc/dcmitype/StillImage"/>
    <dc:date>2024-02-28T11:18:47.541753</dc:date>
    <dc:format>image/svg+xml</dc:format>
    <dc:creator>
     <cc:Agent>
      <dc:title>Matplotlib v3.8.0, https://matplotlib.org/</dc:title>
     </cc:Agent>
    </dc:creator>
   </cc:Work>
  </rdf:RDF>
 </metadata>
 <defs>
  <style type="text/css">*{stroke-linejoin: round; stroke-linecap: butt}</style>
 </defs>
 <g id="figure_1">
  <g id="patch_1">
   <path d="M 0 345.6 
L 460.8 345.6 
L 460.8 0 
L 0 0 
z
" style="fill: #ffffff"/>
  </g>
  <g id="axes_1">
   <g id="patch_2">
    <path d="M 205.88865 313.695749 
Q 210.991883 282.175579 215.91643 251.759073 
" clip-path="url(#pd03d4984fa)" style="fill: none; stroke: #000000; stroke-linecap: round"/>
    <path d="M 213.302848 255.38801 
L 215.91643 251.759073 
L 217.251431 256.027301 
z
" clip-path="url(#pd03d4984fa)" style="stroke: #000000; stroke-linecap: round"/>
   </g>
   <g id="patch_3">
    <path d="M 418.873827 96.962345 
Q 363.763643 97.450819 309.77145 97.929383 
" clip-path="url(#pd03d4984fa)" style="fill: none; stroke: #000000; stroke-linecap: round"/>
    <path d="M 313.789019 99.893852 
L 309.77145 97.929383 
L 313.753566 95.894009 
z
" clip-path="url(#pd03d4984fa)" style="stroke: #000000; stroke-linecap: round"/>
   </g>
   <g id="patch_4">
    <path d="M 216.095232 250.6547 
Q 210.991998 282.17487 206.067452 312.591376 
" clip-path="url(#pd03d4984fa)" style="fill: none; stroke: #000000; stroke-linecap: round"/>
    <path d="M 208.681034 308.962439 
L 206.067452 312.591376 
L 204.732451 308.323148 
z
" clip-path="url(#pd03d4984fa)" style="stroke: #000000; stroke-linecap: round"/>
   </g>
   <g id="patch_5">
    <path d="M 214.823419 249.857826 
Q 180.758177 273.920749 147.606119 297.338618 
" clip-path="url(#pd03d4984fa)" style="fill: none; stroke: #000000; stroke-linecap: round"/>
    <path d="M 152.027135 296.66436 
L 147.606119 297.338618 
L 149.719322 293.397251 
z
" clip-path="url(#pd03d4984fa)" style="stroke: #000000; stroke-linecap: round"/>
   </g>
   <g id="patch_6">
    <path d="M 217.068921 246.917537 
Q 228.624925 215.180209 239.798407 184.49344 
" clip-path="url(#pd03d4984fa)" style="fill: none; stroke: #000000; stroke-linecap: round"/>
    <path d="M 236.550551 187.567758 
L 239.798407 184.49344 
L 240.309148 188.936316 
z
" clip-path="url(#pd03d4984fa)" style="stroke: #000000; stroke-linecap: round"/>
   </g>
   <g id="patch_7">
    <path d="M 217.656902 250.219973 
Q 241.725073 278.665912 265.071083 306.258337 
" clip-path="url(#pd03d4984fa)" style="fill: none; stroke: #000000; stroke-linecap: round"/>
    <path d="M 264.014218 301.912875 
L 265.071083 306.258337 
L 260.960595 304.496552 
z
" clip-path="url(#pd03d4984fa)" style="stroke: #000000; stroke-linecap: round"/>
   </g>
   <g id="patch_8">
    <path d="M 218.242442 249.357071 
Q 262.505374 264.210307 305.708358 278.707859 
" clip-path="url(#pd03d4984fa)" style="fill: none; stroke: #000000; stroke-linecap: round"/>
    <path d="M 302.552444 275.539231 
L 305.708358 278.707859 
L 301.279907 279.331414 
z
" clip-path="url(#pd03d4984fa)" style="stroke: #000000; stroke-linecap: round"/>
   </g>
   <g id="patch_9">
    <path d="M 215.396313 247.084137 
Q 184.310425 196.044328 153.806104 145.959391 
" clip-path="url(#pd03d4984fa)" style="fill: none; stroke: #000000; stroke-linecap: round"/>
    <path d="M 154.178653 150.415982 
L 153.806104 145.959391 
L 157.594906 148.335307 
z
" clip-path="url(#pd03d4984fa)" style="stroke: #000000; stroke-linecap: round"/>
   </g>
   <g id="patch_10">
    <path d="M 146.693988 297.982927 
Q 180.759231 273.920004 213.911288 250.502134 
" clip-path="url(#pd03d4984fa)" style="fill: none; stroke: #000000; stroke-linecap: round"/>
    <path d="M 209.490273 251.176392 
L 213.911288 250.502134 
L 211.798086 254.443501 
z
" clip-path="url(#pd03d4984fa)" style="stroke: #000000; stroke-linecap: round"/>
   </g>
   <g id="patch_11">
    <path d="M 240.180315 183.44457 
Q 228.62431 215.181899 217.450829 245.868667 
" clip-path="url(#pd03d4984fa)" style="fill: none; stroke: #000000; stroke-linecap: round"/>
    <path d="M 220.698685 242.794349 
L 217.450829 245.868667 
L 216.940088 241.425792 
z
" clip-path="url(#pd03d4984fa)" style="stroke: #000000; stroke-linecap: round"/>
   </g>
   <g id="patch_12">
    <path d="M 242.040258 180.102388 
Q 273.780888 139.790253 304.829872 100.356542 
" clip-path="url(#pd03d4984fa)" style="fill: none; stroke: #000000; stroke-linecap: round"/>
    <path d="M 300.783996 102.26203 
L 304.829872 100.356542 
L 303.926737 104.736536 
z
" clip-path="url(#pd03d4984fa)" style="stroke: #000000; stroke-linecap: round"/>
   </g>
   <g id="patch_13">
    <path d="M 239.263331 182.735711 
Q 210.799241 202.797446 183.249012 222.215084 
" clip-path="url(#pd03d4984fa)" style="fill: none; stroke: #000000; stroke-linecap: round"/>
    <path d="M 187.670731 221.545458 
L 183.249012 222.215084 
L 185.366342 218.275933 
z
" clip-path="url(#pd03d4984fa)" style="stroke: #000000; stroke-linecap: round"/>
   </g>
   <g id="patch_14">
    <path d="M 238.932457 181.911444 
Q 201.198782 187.633129 164.570505 193.187199 
" clip-path="url(#pd03d4984fa)" style="fill: none; stroke: #000000; stroke-linecap: round"/>
    <path d="M 168.825138 194.564916 
L 164.570505 193.187199 
L 168.225459 190.610124 
z
" clip-path="url(#pd03d4984fa)" style="stroke: #000000; stroke-linecap: round"/>
   </g>
   <g id="patch_15">
    <path d="M 264.38278 46.737385 
Q 284.934922 71.601319 304.774753 95.603503 
" clip-path="url(#pd03d4984fa)" style="fill: none; stroke: #000000; stroke-linecap: round"/>
    <path d="M 303.767863 91.24619 
L 304.774753 95.603503 
L 300.684769 93.794627 
z
" clip-path="url(#pd03d4984fa)" style="stroke: #000000; stroke-linecap: round"/>
   </g>
   <g id="patch_16">
    <path d="M 401.922517 65.75952 
Q 355.237724 81.547975 309.612038 96.978248 
" clip-path="url(#pd03d4984fa)" style="fill: none; stroke: #000000; stroke-linecap: round"/>
    <path d="M 314.041946 97.591364 
L 309.612038 96.978248 
L 312.760476 93.802191 
z
" clip-path="url(#pd03d4984fa)" style="stroke: #000000; stroke-linecap: round"/>
   </g>
   <g id="patch_17">
    <path d="M 163.463966 193.354987 
Q 201.19764 187.633302 237.825917 182.079232 
" clip-path="url(#pd03d4984fa)" style="fill: none; stroke: #000000; stroke-linecap: round"/>
    <path d="M 233.571285 180.701515 
L 237.825917 182.079232 
L 234.170963 184.656307 
z
" clip-path="url(#pd03d4984fa)" style="stroke: #000000; stroke-linecap: round"/>
   </g>
   <g id="patch_18">
    <path d="M 41.908184 130.39916 
Q 96.101073 136.761168 149.183554 142.992819 
" clip-path="url(#pd03d4984fa)" style="fill: none; stroke: #000000; stroke-linecap: round"/>
    <path d="M 145.444026 140.54008 
L 149.183554 142.992819 
L 144.977646 144.512798 
z
" clip-path="url(#pd03d4984fa)" style="stroke: #000000; stroke-linecap: round"/>
   </g>
   <g id="patch_19">
    <path d="M 389.317571 127.90977 
Q 348.929839 113.26355 309.593163 98.998485 
" clip-path="url(#pd03d4984fa)" style="fill: none; stroke: #000000; stroke-linecap: round"/>
    <path d="M 312.671707 102.242337 
L 309.593163 98.998485 
L 314.03537 98.481961 
z
" clip-path="url(#pd03d4984fa)" style="stroke: #000000; stroke-linecap: round"/>
   </g>
   <g id="patch_20">
    <path d="M 265.792444 307.110906 
Q 241.724274 278.664968 218.378263 251.072543 
" clip-path="url(#pd03d4984fa)" style="fill: none; stroke: #000000; stroke-linecap: round"/>
    <path d="M 219.435128 255.418004 
L 218.378263 251.072543 
L 222.488751 252.834327 
z
" clip-path="url(#pd03d4984fa)" style="stroke: #000000; stroke-linecap: round"/>
   </g>
   <g id="patch_21">
    <path d="M 306.764783 279.062361 
Q 262.501851 264.209125 219.298866 249.711573 
" clip-path="url(#pd03d4984fa)" style="fill: none; stroke: #000000; stroke-linecap: round"/>
    <path d="M 222.454781 252.880201 
L 219.298866 249.711573 
L 223.727317 249.088018 
z
" clip-path="url(#pd03d4984fa)" style="stroke: #000000; stroke-linecap: round"/>
   </g>
   <g id="patch_22">
    <path d="M 182.333882 222.860076 
Q 210.797971 202.798341 238.3482 183.380703 
" clip-path="url(#pd03d4984fa)" style="fill: none; stroke: #000000; stroke-linecap: round"/>
    <path d="M 233.926481 184.050329 
L 238.3482 183.380703 
L 236.23087 187.319854 
z
" clip-path="url(#pd03d4984fa)" style="stroke: #000000; stroke-linecap: round"/>
   </g>
   <g id="patch_23">
    <path d="M 153.224968 145.005225 
Q 184.310856 196.045035 214.815177 246.129972 
" clip-path="url(#pd03d4984fa)" style="fill: none; stroke: #000000; stroke-linecap: round"/>
    <path d="M 214.442628 241.673381 
L 214.815177 246.129972 
L 211.026375 243.754056 
z
" clip-path="url(#pd03d4984fa)" style="stroke: #000000; stroke-linecap: round"/>
   </g>
   <g id="patch_24">
    <path d="M 150.294731 143.123266 
Q 96.101842 136.761258 43.019361 130.529607 
" clip-path="url(#pd03d4984fa)" style="fill: none; stroke: #000000; stroke-linecap: round"/>
    <path d="M 46.758889 132.982346 
L 43.019361 130.529607 
L 47.225269 129.009628 
z
" clip-path="url(#pd03d4984fa)" style="stroke: #000000; stroke-linecap: round"/>
   </g>
   <g id="patch_25">
    <path d="M 150.498923 142.456756 
Q 109.262993 121.035116 69.019209 100.128886 
" clip-path="url(#pd03d4984fa)" style="fill: none; stroke: #000000; stroke-linecap: round"/>
    <path d="M 71.646825 103.747675 
L 69.019209 100.128886 
L 73.49081 100.198066 
z
" clip-path="url(#pd03d4984fa)" style="stroke: #000000; stroke-linecap: round"/>
   </g>
   <g id="patch_26">
    <path d="M 150.322298 143.767378 
Q 101.760338 154.499771 54.290069 164.990896 
" clip-path="url(#pd03d4984fa)" style="fill: none; stroke: #000000; stroke-linecap: round"/>
    <path d="M 58.627416 166.080585 
L 54.290069 164.990896 
L 57.764228 162.174832 
z
" clip-path="url(#pd03d4984fa)" style="stroke: #000000; stroke-linecap: round"/>
   </g>
   <g id="patch_27">
    <path d="M 151.326037 141.625273 
Q 137.36438 114.590442 123.915739 88.548996 
" clip-path="url(#pd03d4984fa)" style="fill: none; stroke: #000000; stroke-linecap: round"/>
    <path d="M 123.97414 93.020751 
L 123.915739 88.548996 
L 127.528183 91.185329 
z
" clip-path="url(#pd03d4984fa)" style="stroke: #000000; stroke-linecap: round"/>
   </g>
   <g id="patch_28">
    <path d="M 154.078592 142.801651 
Q 229.469802 120.652071 303.788316 98.817645 
" clip-path="url(#pd03d4984fa)" style="fill: none; stroke: #000000; stroke-linecap: round"/>
    <path d="M 299.386756 98.026273 
L 303.788316 98.817645 
L 300.514283 101.864069 
z
" clip-path="url(#pd03d4984fa)" style="stroke: #000000; stroke-linecap: round"/>
   </g>
   <g id="patch_29">
    <path d="M 68.025418 99.612622 
Q 109.261348 121.034262 149.505133 141.940492 
" clip-path="url(#pd03d4984fa)" style="fill: none; stroke: #000000; stroke-linecap: round"/>
    <path d="M 146.877517 138.321703 
L 149.505133 141.940492 
L 145.033532 141.871311 
z
" clip-path="url(#pd03d4984fa)" style="stroke: #000000; stroke-linecap: round"/>
   </g>
   <g id="patch_30">
    <path d="M 53.203706 165.230987 
Q 101.765666 154.498593 149.235935 144.007468 
" clip-path="url(#pd03d4984fa)" style="fill: none; stroke: #000000; stroke-linecap: round"/>
    <path d="M 144.898588 142.917779 
L 149.235935 144.007468 
L 145.761775 146.823533 
z
" clip-path="url(#pd03d4984fa)" style="stroke: #000000; stroke-linecap: round"/>
   </g>
   <g id="patch_31">
    <path d="M 123.404779 87.559592 
Q 137.366436 114.594422 150.815076 140.635868 
" clip-path="url(#pd03d4984fa)" style="fill: none; stroke: #000000; stroke-linecap: round"/>
    <path d="M 150.756676 136.164113 
L 150.815076 140.635868 
L 147.202632 137.999536 
z
" clip-path="url(#pd03d4984fa)" style="stroke: #000000; stroke-linecap: round"/>
   </g>
   <g id="patch_32">
    <path d="M 366.743514 42.836743 
Q 337.444145 69.742244 308.968271 95.891532 
" clip-path="url(#pd03d4984fa)" style="fill: none; stroke: #000000; stroke-linecap: round"/>
    <path d="M 313.267248 94.659138 
L 308.968271 95.891532 
L 310.561741 91.712914 
z
" clip-path="url(#pd03d4984fa)" style="stroke: #000000; stroke-linecap: round"/>
   </g>
   <g id="patch_33">
    <path d="M 315.736154 31.910763 
Q 311.358603 63.97621 307.132283 94.933898 
" clip-path="url(#pd03d4984fa)" style="fill: none; stroke: #000000; stroke-linecap: round"/>
    <path d="M 309.65496 91.241189 
L 307.132283 94.933898 
L 305.691722 90.700131 
z
" clip-path="url(#pd03d4984fa)" style="stroke: #000000; stroke-linecap: round"/>
   </g>
   <g id="patch_34">
    <path d="M 308.659045 97.939243 
Q 363.769229 97.450769 417.761422 96.972205 
" clip-path="url(#pd03d4984fa)" style="fill: none; stroke: #000000; stroke-linecap: round"/>
    <path d="M 413.743853 95.007737 
L 417.761422 96.972205 
L 413.779306 99.00758 
z
" clip-path="url(#pd03d4984fa)" style="stroke: #000000; stroke-linecap: round"/>
   </g>
   <g id="patch_35">
    <path d="M 305.523483 99.475621 
Q 273.782854 139.787756 242.73387 179.221467 
" clip-path="url(#pd03d4984fa)" style="fill: none; stroke: #000000; stroke-linecap: round"/>
    <path d="M 246.779746 177.315979 
L 242.73387 179.221467 
L 243.637005 174.841473 
z
" clip-path="url(#pd03d4984fa)" style="stroke: #000000; stroke-linecap: round"/>
   </g>
   <g id="patch_36">
    <path d="M 305.488447 96.466927 
Q 284.936305 71.602993 265.096474 47.600809 
" clip-path="url(#pd03d4984fa)" style="fill: none; stroke: #000000; stroke-linecap: round"/>
    <path d="M 266.103364 51.958122 
L 265.096474 47.600809 
L 269.186458 49.409684 
z
" clip-path="url(#pd03d4984fa)" style="stroke: #000000; stroke-linecap: round"/>
   </g>
   <g id="patch_37">
    <path d="M 308.552694 97.33651 
Q 355.237487 81.548055 400.863174 66.117782 
" clip-path="url(#pd03d4984fa)" style="fill: none; stroke: #000000; stroke-linecap: round"/>
    <path d="M 396.433265 65.504666 
L 400.863174 66.117782 
L 397.714736 69.293839 
z
" clip-path="url(#pd03d4984fa)" style="stroke: #000000; stroke-linecap: round"/>
   </g>
   <g id="patch_38">
    <path d="M 308.541075 98.616955 
Q 348.928807 113.263176 388.265482 127.52824 
" clip-path="url(#pd03d4984fa)" style="fill: none; stroke: #000000; stroke-linecap: round"/>
    <path d="M 385.186939 124.284389 
L 388.265482 127.52824 
L 383.823275 128.044764 
z
" clip-path="url(#pd03d4984fa)" style="stroke: #000000; stroke-linecap: round"/>
   </g>
   <g id="patch_39">
    <path d="M 304.857195 98.503613 
Q 229.465985 120.653193 155.147471 142.48762 
" clip-path="url(#pd03d4984fa)" style="fill: none; stroke: #000000; stroke-linecap: round"/>
    <path d="M 159.549031 143.278991 
L 155.147471 142.48762 
L 158.421504 139.441195 
z
" clip-path="url(#pd03d4984fa)" style="stroke: #000000; stroke-linecap: round"/>
   </g>
   <g id="patch_40">
    <path d="M 308.146779 96.645905 
Q 337.446148 69.740404 365.922023 43.591115 
" clip-path="url(#pd03d4984fa)" style="fill: none; stroke: #000000; stroke-linecap: round"/>
    <path d="M 361.623046 44.82351 
L 365.922023 43.591115 
L 364.328552 47.769734 
z
" clip-path="url(#pd03d4984fa)" style="stroke: #000000; stroke-linecap: round"/>
   </g>
   <g id="patch_41">
    <path d="M 306.981859 96.035753 
Q 311.359409 63.970306 315.58573 33.012618 
" clip-path="url(#pd03d4984fa)" style="fill: none; stroke: #000000; stroke-linecap: round"/>
    <path d="M 313.063052 36.705326 
L 315.58573 33.012618 
L 317.02629 37.246385 
z
" clip-path="url(#pd03d4984fa)" style="stroke: #000000; stroke-linecap: round"/>
   </g>
   <g id="PathCollection_1">
    <defs>
     <path id="mc03524967c" d="M 0 1.936492 
C 0.513564 1.936492 1.006162 1.732451 1.369306 1.369306 
C 1.732451 1.006162 1.936492 0.513564 1.936492 0 
C 1.936492 -0.513564 1.732451 -1.006162 1.369306 -1.369306 
C 1.006162 -1.732451 0.513564 -1.936492 0 -1.936492 
C -0.513564 -1.936492 -1.006162 -1.732451 -1.369306 -1.369306 
C -1.732451 -1.006162 -1.936492 -0.513564 -1.936492 0 
C -1.936492 0.513564 -1.732451 1.006162 -1.369306 1.369306 
C -1.006162 1.732451 -0.513564 1.936492 0 1.936492 
z
" style="stroke: #1f78b4"/>
    </defs>
    <g clip-path="url(#pd03d4984fa)">
     <use xlink:href="#mc03524967c" x="205.578739" y="315.609917" style="fill: #1f78b4; stroke: #1f78b4"/>
     <use xlink:href="#mc03524967c" x="420.813223" y="96.945155" style="fill: #1f78b4; stroke: #1f78b4"/>
     <use xlink:href="#mc03524967c" x="216.405143" y="248.740532" style="fill: #1f78b4; stroke: #1f78b4"/>
     <use xlink:href="#mc03524967c" x="145.112265" y="299.100221" style="fill: #1f78b4; stroke: #1f78b4"/>
     <use xlink:href="#mc03524967c" x="240.844093" y="181.621576" style="fill: #1f78b4; stroke: #1f78b4"/>
     <use xlink:href="#mc03524967c" x="263.151578" y="45.247879" style="fill: #1f78b4; stroke: #1f78b4"/>
     <use xlink:href="#mc03524967c" x="403.755563" y="65.139598" style="fill: #1f78b4; stroke: #1f78b4"/>
     <use xlink:href="#mc03524967c" x="161.55233" y="193.644855" style="fill: #1f78b4; stroke: #1f78b4"/>
     <use xlink:href="#mc03524967c" x="39.986777" y="130.173595" style="fill: #1f78b4; stroke: #1f78b4"/>
     <use xlink:href="#mc03524967c" x="391.138997" y="128.570293" style="fill: #1f78b4; stroke: #1f78b4"/>
     <use xlink:href="#mc03524967c" x="267.044203" y="308.590348" style="fill: #1f78b4; stroke: #1f78b4"/>
     <use xlink:href="#mc03524967c" x="308.602081" y="279.6789" style="fill: #1f78b4; stroke: #1f78b4"/>
     <use xlink:href="#mc03524967c" x="180.75312" y="223.974211" style="fill: #1f78b4; stroke: #1f78b4"/>
     <use xlink:href="#mc03524967c" x="152.216138" y="143.348831" style="fill: #1f78b4; stroke: #1f78b4"/>
     <use xlink:href="#mc03524967c" x="66.308204" y="98.720546" style="fill: #1f78b4; stroke: #1f78b4"/>
     <use xlink:href="#mc03524967c" x="51.309865" y="165.649533" style="fill: #1f78b4; stroke: #1f78b4"/>
     <use xlink:href="#mc03524967c" x="122.514678" y="85.836033" style="fill: #1f78b4; stroke: #1f78b4"/>
     <use xlink:href="#mc03524967c" x="368.170644" y="41.526215" style="fill: #1f78b4; stroke: #1f78b4"/>
     <use xlink:href="#mc03524967c" x="315.998364" y="29.990083" style="fill: #1f78b4; stroke: #1f78b4"/>
     <use xlink:href="#mc03524967c" x="306.719649" y="97.956433" style="fill: #1f78b4; stroke: #1f78b4"/>
    </g>
   </g>
   <g id="text_1">
    <g clip-path="url(#pd03d4984fa)">
     <!-- 0 -->
     <g transform="translate(202.397489 318.369292) scale(0.1 -0.1)">
      <defs>
       <path id="DejaVuSans-30" d="M 2034 4250 
Q 1547 4250 1301 3770 
Q 1056 3291 1056 2328 
Q 1056 1369 1301 889 
Q 1547 409 2034 409 
Q 2525 409 2770 889 
Q 3016 1369 3016 2328 
Q 3016 3291 2770 3770 
Q 2525 4250 2034 4250 
z
M 2034 4750 
Q 2819 4750 3233 4129 
Q 3647 3509 3647 2328 
Q 3647 1150 3233 529 
Q 2819 -91 2034 -91 
Q 1250 -91 836 529 
Q 422 1150 422 2328 
Q 422 3509 836 4129 
Q 1250 4750 2034 4750 
z
" transform="scale(0.015625)"/>
      </defs>
      <use xlink:href="#DejaVuSans-30"/>
     </g>
    </g>
   </g>
   <g id="text_2">
    <g clip-path="url(#pd03d4984fa)">
     <!-- 1 -->
     <g transform="translate(417.631973 99.70453) scale(0.1 -0.1)">
      <defs>
       <path id="DejaVuSans-31" d="M 794 531 
L 1825 531 
L 1825 4091 
L 703 3866 
L 703 4441 
L 1819 4666 
L 2450 4666 
L 2450 531 
L 3481 531 
L 3481 0 
L 794 0 
L 794 531 
z
" transform="scale(0.015625)"/>
      </defs>
      <use xlink:href="#DejaVuSans-31"/>
     </g>
    </g>
   </g>
   <g id="text_3">
    <g clip-path="url(#pd03d4984fa)">
     <!-- 2 -->
     <g transform="translate(213.223893 251.499907) scale(0.1 -0.1)">
      <defs>
       <path id="DejaVuSans-32" d="M 1228 531 
L 3431 531 
L 3431 0 
L 469 0 
L 469 531 
Q 828 903 1448 1529 
Q 2069 2156 2228 2338 
Q 2531 2678 2651 2914 
Q 2772 3150 2772 3378 
Q 2772 3750 2511 3984 
Q 2250 4219 1831 4219 
Q 1534 4219 1204 4116 
Q 875 4013 500 3803 
L 500 4441 
Q 881 4594 1212 4672 
Q 1544 4750 1819 4750 
Q 2544 4750 2975 4387 
Q 3406 4025 3406 3419 
Q 3406 3131 3298 2873 
Q 3191 2616 2906 2266 
Q 2828 2175 2409 1742 
Q 1991 1309 1228 531 
z
" transform="scale(0.015625)"/>
      </defs>
      <use xlink:href="#DejaVuSans-32"/>
     </g>
    </g>
   </g>
   <g id="text_4">
    <g clip-path="url(#pd03d4984fa)">
     <!-- 3 -->
     <g transform="translate(141.931015 301.859596) scale(0.1 -0.1)">
      <defs>
       <path id="DejaVuSans-33" d="M 2597 2516 
Q 3050 2419 3304 2112 
Q 3559 1806 3559 1356 
Q 3559 666 3084 287 
Q 2609 -91 1734 -91 
Q 1441 -91 1130 -33 
Q 819 25 488 141 
L 488 750 
Q 750 597 1062 519 
Q 1375 441 1716 441 
Q 2309 441 2620 675 
Q 2931 909 2931 1356 
Q 2931 1769 2642 2001 
Q 2353 2234 1838 2234 
L 1294 2234 
L 1294 2753 
L 1863 2753 
Q 2328 2753 2575 2939 
Q 2822 3125 2822 3475 
Q 2822 3834 2567 4026 
Q 2313 4219 1838 4219 
Q 1578 4219 1281 4162 
Q 984 4106 628 3988 
L 628 4550 
Q 988 4650 1302 4700 
Q 1616 4750 1894 4750 
Q 2613 4750 3031 4423 
Q 3450 4097 3450 3541 
Q 3450 3153 3228 2886 
Q 3006 2619 2597 2516 
z
" transform="scale(0.015625)"/>
      </defs>
      <use xlink:href="#DejaVuSans-33"/>
     </g>
    </g>
   </g>
   <g id="text_5">
    <g clip-path="url(#pd03d4984fa)">
     <!-- 4 -->
     <g transform="translate(237.662843 184.380951) scale(0.1 -0.1)">
      <defs>
       <path id="DejaVuSans-34" d="M 2419 4116 
L 825 1625 
L 2419 1625 
L 2419 4116 
z
M 2253 4666 
L 3047 4666 
L 3047 1625 
L 3713 1625 
L 3713 1100 
L 3047 1100 
L 3047 0 
L 2419 0 
L 2419 1100 
L 313 1100 
L 313 1709 
L 2253 4666 
z
" transform="scale(0.015625)"/>
      </defs>
      <use xlink:href="#DejaVuSans-34"/>
     </g>
    </g>
   </g>
   <g id="text_6">
    <g clip-path="url(#pd03d4984fa)">
     <!-- 5 -->
     <g transform="translate(259.970328 48.007254) scale(0.1 -0.1)">
      <defs>
       <path id="DejaVuSans-35" d="M 691 4666 
L 3169 4666 
L 3169 4134 
L 1269 4134 
L 1269 2991 
Q 1406 3038 1543 3061 
Q 1681 3084 1819 3084 
Q 2600 3084 3056 2656 
Q 3513 2228 3513 1497 
Q 3513 744 3044 326 
Q 2575 -91 1722 -91 
Q 1428 -91 1123 -41 
Q 819 9 494 109 
L 494 744 
Q 775 591 1075 516 
Q 1375 441 1709 441 
Q 2250 441 2565 725 
Q 2881 1009 2881 1497 
Q 2881 1984 2565 2268 
Q 2250 2553 1709 2553 
Q 1456 2553 1204 2497 
Q 953 2441 691 2322 
L 691 4666 
z
" transform="scale(0.015625)"/>
      </defs>
      <use xlink:href="#DejaVuSans-35"/>
     </g>
    </g>
   </g>
   <g id="text_7">
    <g clip-path="url(#pd03d4984fa)">
     <!-- 6 -->
     <g transform="translate(400.574313 67.898973) scale(0.1 -0.1)">
      <defs>
       <path id="DejaVuSans-36" d="M 2113 2584 
Q 1688 2584 1439 2293 
Q 1191 2003 1191 1497 
Q 1191 994 1439 701 
Q 1688 409 2113 409 
Q 2538 409 2786 701 
Q 3034 994 3034 1497 
Q 3034 2003 2786 2293 
Q 2538 2584 2113 2584 
z
M 3366 4563 
L 3366 3988 
Q 3128 4100 2886 4159 
Q 2644 4219 2406 4219 
Q 1781 4219 1451 3797 
Q 1122 3375 1075 2522 
Q 1259 2794 1537 2939 
Q 1816 3084 2150 3084 
Q 2853 3084 3261 2657 
Q 3669 2231 3669 1497 
Q 3669 778 3244 343 
Q 2819 -91 2113 -91 
Q 1303 -91 875 529 
Q 447 1150 447 2328 
Q 447 3434 972 4092 
Q 1497 4750 2381 4750 
Q 2619 4750 2861 4703 
Q 3103 4656 3366 4563 
z
" transform="scale(0.015625)"/>
      </defs>
      <use xlink:href="#DejaVuSans-36"/>
     </g>
    </g>
   </g>
   <g id="text_8">
    <g clip-path="url(#pd03d4984fa)">
     <!-- 7 -->
     <g transform="translate(158.37108 196.40423) scale(0.1 -0.1)">
      <defs>
       <path id="DejaVuSans-37" d="M 525 4666 
L 3525 4666 
L 3525 4397 
L 1831 0 
L 1172 0 
L 2766 4134 
L 525 4134 
L 525 4666 
z
" transform="scale(0.015625)"/>
      </defs>
      <use xlink:href="#DejaVuSans-37"/>
     </g>
    </g>
   </g>
   <g id="text_9">
    <g clip-path="url(#pd03d4984fa)">
     <!-- 8 -->
     <g transform="translate(36.805527 132.93297) scale(0.1 -0.1)">
      <defs>
       <path id="DejaVuSans-38" d="M 2034 2216 
Q 1584 2216 1326 1975 
Q 1069 1734 1069 1313 
Q 1069 891 1326 650 
Q 1584 409 2034 409 
Q 2484 409 2743 651 
Q 3003 894 3003 1313 
Q 3003 1734 2745 1975 
Q 2488 2216 2034 2216 
z
M 1403 2484 
Q 997 2584 770 2862 
Q 544 3141 544 3541 
Q 544 4100 942 4425 
Q 1341 4750 2034 4750 
Q 2731 4750 3128 4425 
Q 3525 4100 3525 3541 
Q 3525 3141 3298 2862 
Q 3072 2584 2669 2484 
Q 3125 2378 3379 2068 
Q 3634 1759 3634 1313 
Q 3634 634 3220 271 
Q 2806 -91 2034 -91 
Q 1263 -91 848 271 
Q 434 634 434 1313 
Q 434 1759 690 2068 
Q 947 2378 1403 2484 
z
M 1172 3481 
Q 1172 3119 1398 2916 
Q 1625 2713 2034 2713 
Q 2441 2713 2670 2916 
Q 2900 3119 2900 3481 
Q 2900 3844 2670 4047 
Q 2441 4250 2034 4250 
Q 1625 4250 1398 4047 
Q 1172 3844 1172 3481 
z
" transform="scale(0.015625)"/>
      </defs>
      <use xlink:href="#DejaVuSans-38"/>
     </g>
    </g>
   </g>
   <g id="text_10">
    <g clip-path="url(#pd03d4984fa)">
     <!-- 9 -->
     <g transform="translate(387.957747 131.329668) scale(0.1 -0.1)">
      <defs>
       <path id="DejaVuSans-39" d="M 703 97 
L 703 672 
Q 941 559 1184 500 
Q 1428 441 1663 441 
Q 2288 441 2617 861 
Q 2947 1281 2994 2138 
Q 2813 1869 2534 1725 
Q 2256 1581 1919 1581 
Q 1219 1581 811 2004 
Q 403 2428 403 3163 
Q 403 3881 828 4315 
Q 1253 4750 1959 4750 
Q 2769 4750 3195 4129 
Q 3622 3509 3622 2328 
Q 3622 1225 3098 567 
Q 2575 -91 1691 -91 
Q 1453 -91 1209 -44 
Q 966 3 703 97 
z
M 1959 2075 
Q 2384 2075 2632 2365 
Q 2881 2656 2881 3163 
Q 2881 3666 2632 3958 
Q 2384 4250 1959 4250 
Q 1534 4250 1286 3958 
Q 1038 3666 1038 3163 
Q 1038 2656 1286 2365 
Q 1534 2075 1959 2075 
z
" transform="scale(0.015625)"/>
      </defs>
      <use xlink:href="#DejaVuSans-39"/>
     </g>
    </g>
   </g>
   <g id="text_11">
    <g clip-path="url(#pd03d4984fa)">
     <!-- 10 -->
     <g transform="translate(260.681703 311.349723) scale(0.1 -0.1)">
      <use xlink:href="#DejaVuSans-31"/>
      <use xlink:href="#DejaVuSans-30" x="63.623047"/>
     </g>
    </g>
   </g>
   <g id="text_12">
    <g clip-path="url(#pd03d4984fa)">
     <!-- 11 -->
     <g transform="translate(302.239581 282.438275) scale(0.1 -0.1)">
      <use xlink:href="#DejaVuSans-31"/>
      <use xlink:href="#DejaVuSans-31" x="63.623047"/>
     </g>
    </g>
   </g>
   <g id="text_13">
    <g clip-path="url(#pd03d4984fa)">
     <!-- 12 -->
     <g transform="translate(174.39062 226.733586) scale(0.1 -0.1)">
      <use xlink:href="#DejaVuSans-31"/>
      <use xlink:href="#DejaVuSans-32" x="63.623047"/>
     </g>
    </g>
   </g>
   <g id="text_14">
    <g clip-path="url(#pd03d4984fa)">
     <!-- 13 -->
     <g transform="translate(145.853638 146.108206) scale(0.1 -0.1)">
      <use xlink:href="#DejaVuSans-31"/>
      <use xlink:href="#DejaVuSans-33" x="63.623047"/>
     </g>
    </g>
   </g>
   <g id="text_15">
    <g clip-path="url(#pd03d4984fa)">
     <!-- 14 -->
     <g transform="translate(59.945704 101.479921) scale(0.1 -0.1)">
      <use xlink:href="#DejaVuSans-31"/>
      <use xlink:href="#DejaVuSans-34" x="63.623047"/>
     </g>
    </g>
   </g>
   <g id="text_16">
    <g clip-path="url(#pd03d4984fa)">
     <!-- 15 -->
     <g transform="translate(44.947365 168.408908) scale(0.1 -0.1)">
      <use xlink:href="#DejaVuSans-31"/>
      <use xlink:href="#DejaVuSans-35" x="63.623047"/>
     </g>
    </g>
   </g>
   <g id="text_17">
    <g clip-path="url(#pd03d4984fa)">
     <!-- 16 -->
     <g transform="translate(116.152178 88.595408) scale(0.1 -0.1)">
      <use xlink:href="#DejaVuSans-31"/>
      <use xlink:href="#DejaVuSans-36" x="63.623047"/>
     </g>
    </g>
   </g>
   <g id="text_18">
    <g clip-path="url(#pd03d4984fa)">
     <!-- 17 -->
     <g transform="translate(361.808144 44.28559) scale(0.1 -0.1)">
      <use xlink:href="#DejaVuSans-31"/>
      <use xlink:href="#DejaVuSans-37" x="63.623047"/>
     </g>
    </g>
   </g>
   <g id="text_19">
    <g clip-path="url(#pd03d4984fa)">
     <!-- 18 -->
     <g transform="translate(309.635864 32.749458) scale(0.1 -0.1)">
      <use xlink:href="#DejaVuSans-31"/>
      <use xlink:href="#DejaVuSans-38" x="63.623047"/>
     </g>
    </g>
   </g>
   <g id="text_20">
    <g clip-path="url(#pd03d4984fa)">
     <!-- 19 -->
     <g transform="translate(300.357149 100.715808) scale(0.1 -0.1)">
      <use xlink:href="#DejaVuSans-31"/>
      <use xlink:href="#DejaVuSans-39" x="63.623047"/>
     </g>
    </g>
   </g>
  </g>
 </g>
 <defs>
  <clipPath id="pd03d4984fa">
   <rect x="0" y="0" width="460.8" height="345.6"/>
  </clipPath>
 </defs>
</svg>
