<?xml version="1.0" encoding="utf-8" standalone="no"?>
<!DOCTYPE svg PUBLIC "-//W3C//DTD SVG 1.1//EN"
  "http://www.w3.org/Graphics/SVG/1.1/DTD/svg11.dtd">
<svg xmlns:xlink="http://www.w3.org/1999/xlink" width="460.8pt" height="345.6pt" viewBox="0 0 460.8 345.6" xmlns="http://www.w3.org/2000/svg" version="1.1">
 <metadata>
  <rdf:RDF xmlns:dc="http://purl.org/dc/elements/1.1/" xmlns:cc="http://creativecommons.org/ns#" xmlns:rdf="http://www.w3.org/1999/02/22-rdf-syntax-ns#">
   <cc:Work>
    <dc:type rdf:resource="http://purl.org/dc/dcmitype/StillImage"/>
    <dc:date>2024-02-28T11:18:54.908891</dc:date>
    <dc:format>image/svg+xml</dc:format>
    <dc:creator>
     <cc:Agent>
      <dc:title>Matplotlib v3.8.0, https://matplotlib.org/</dc:title>
     </cc:Agent>
    </dc:creator>
   </cc:Work>
  </rdf:RDF>
 </metadata>
 <defs>
  <style type="text/css">*{stroke-linejoin: round; stroke-linecap: butt}</style>
 </defs>
 <g id="figure_1">
  <g id="patch_1">
   <path d="M 0 345.6 
L 460.8 345.6 
L 460.8 0 
L 0 0 
z
" style="fill: #ffffff"/>
  </g>
  <g id="axes_1">
   <g id="patch_2">
    <path d="M 207.614107 86.307192 
Q 195.370037 75.568144 183.966506 65.566317 
" clip-path="url(#p4f837992ad)" style="fill: none; stroke: #000000; stroke-linecap: round"/>
    <path d="M 185.654927 69.707481 
L 183.966506 65.566317 
L 188.292489 66.700278 
z
" clip-path="url(#p4f837992ad)" style="stroke: #000000; stroke-linecap: round"/>
   </g>
   <g id="patch_3">
    <path d="M 210.294708 89.07721 
Q 221.344481 102.544877 231.68509 115.148201 
" clip-path="url(#p4f837992ad)" style="fill: none; stroke: #000000; stroke-linecap: round"/>
    <path d="M 230.694091 110.787247 
L 231.68509 115.148201 
L 227.601727 113.324429 
z
" clip-path="url(#p4f837992ad)" style="stroke: #000000; stroke-linecap: round"/>
   </g>
   <g id="patch_4">
    <path d="M 152.099208 44.457418 
Q 142.791667 37.787998 134.392929 31.76979 
" clip-path="url(#p4f837992ad)" style="fill: none; stroke: #000000; stroke-linecap: round"/>
    <path d="M 136.479436 35.725354 
L 134.392929 31.76979 
L 138.809285 32.473923 
z
" clip-path="url(#p4f837992ad)" style="stroke: #000000; stroke-linecap: round"/>
   </g>
   <g id="patch_5">
    <path d="M 155.305 46.632623 
Q 167.672788 54.569796 179.099642 61.903114 
" clip-path="url(#p4f837992ad)" style="fill: none; stroke: #000000; stroke-linecap: round"/>
    <path d="M 176.813462 58.059498 
L 179.099642 61.903114 
L 174.653041 61.425888 
z
" clip-path="url(#p4f837992ad)" style="stroke: #000000; stroke-linecap: round"/>
   </g>
   <g id="patch_6">
    <path d="M 389.140652 299.175363 
Q 390.458121 289.532628 391.624242 280.997635 
" clip-path="url(#p4f837992ad)" style="fill: none; stroke: #000000; stroke-linecap: round"/>
    <path d="M 389.10117 284.690074 
L 391.624242 280.997635 
L 393.06435 285.231556 
z
" clip-path="url(#p4f837992ad)" style="stroke: #000000; stroke-linecap: round"/>
   </g>
   <g id="patch_7">
    <path d="M 183.127215 64.830191 
Q 195.371285 75.569239 206.774817 85.571065 
" clip-path="url(#p4f837992ad)" style="fill: none; stroke: #000000; stroke-linecap: round"/>
    <path d="M 205.086395 81.429902 
L 206.774817 85.571065 
L 202.448833 84.437105 
z
" clip-path="url(#p4f837992ad)" style="stroke: #000000; stroke-linecap: round"/>
   </g>
   <g id="patch_8">
    <path d="M 180.042212 62.508019 
Q 167.674424 54.570846 156.24757 47.237529 
" clip-path="url(#p4f837992ad)" style="fill: none; stroke: #000000; stroke-linecap: round"/>
    <path d="M 158.53375 51.081144 
L 156.24757 47.237529 
L 160.694171 47.714754 
z
" clip-path="url(#p4f837992ad)" style="stroke: #000000; stroke-linecap: round"/>
   </g>
   <g id="patch_9">
    <path d="M 116.716813 223.434728 
Q 136.294842 212.943976 154.887398 202.981283 
" clip-path="url(#p4f837992ad)" style="fill: none; stroke: #000000; stroke-linecap: round"/>
    <path d="M 150.417048 203.107656 
L 154.887398 202.981283 
L 152.306287 206.633387 
z
" clip-path="url(#p4f837992ad)" style="stroke: #000000; stroke-linecap: round"/>
   </g>
   <g id="patch_10">
    <path d="M 113.101621 224.016082 
Q 92.963258 220.497267 73.926243 217.170892 
" clip-path="url(#p4f837992ad)" style="fill: none; stroke: #000000; stroke-linecap: round"/>
    <path d="M 77.522296 219.829539 
L 73.926243 217.170892 
L 78.210792 215.889238 
z
" clip-path="url(#p4f837992ad)" style="stroke: #000000; stroke-linecap: round"/>
   </g>
   <g id="patch_11">
    <path d="M 114.707722 226.261861 
Q 112.303567 241.487781 110.073788 255.60935 
" clip-path="url(#p4f837992ad)" style="fill: none; stroke: #000000; stroke-linecap: round"/>
    <path d="M 112.673179 251.970234 
L 110.073788 255.60935 
L 108.72213 251.346368 
z
" clip-path="url(#p4f837992ad)" style="stroke: #000000; stroke-linecap: round"/>
   </g>
   <g id="patch_12">
    <path d="M 72.825073 216.978483 
Q 92.963436 220.497298 112.000451 223.823672 
" clip-path="url(#p4f837992ad)" style="fill: none; stroke: #000000; stroke-linecap: round"/>
    <path d="M 108.404398 221.165025 
L 112.000451 223.823672 
L 107.715901 225.105326 
z
" clip-path="url(#p4f837992ad)" style="stroke: #000000; stroke-linecap: round"/>
   </g>
   <g id="patch_13">
    <path d="M 69.267451 215.631068 
Q 58.698895 209.134373 49.082804 203.223178 
" clip-path="url(#p4f837992ad)" style="fill: none; stroke: #000000; stroke-linecap: round"/>
    <path d="M 51.443076 207.021745 
L 49.082804 203.223178 
L 53.537821 203.6141 
z
" clip-path="url(#p4f837992ad)" style="stroke: #000000; stroke-linecap: round"/>
   </g>
   <g id="patch_14">
    <path d="M 69.017851 217.021447 
Q 55.453833 219.709484 42.986521 222.180183 
" clip-path="url(#p4f837992ad)" style="fill: none; stroke: #000000; stroke-linecap: round"/>
    <path d="M 47.299002 223.364455 
L 42.986521 222.180183 
L 46.521428 219.440761 
z
" clip-path="url(#p4f837992ad)" style="stroke: #000000; stroke-linecap: round"/>
   </g>
   <g id="patch_15">
    <path d="M 41.885935 222.39829 
Q 55.449954 219.710253 67.917266 217.239555 
" clip-path="url(#p4f837992ad)" style="fill: none; stroke: #000000; stroke-linecap: round"/>
    <path d="M 63.604784 216.055282 
L 67.917266 217.239555 
L 64.382359 219.978977 
z
" clip-path="url(#p4f837992ad)" style="stroke: #000000; stroke-linecap: round"/>
   </g>
   <g id="patch_16">
    <path d="M 109.898789 256.717651 
Q 112.302943 241.49173 114.532722 227.370162 
" clip-path="url(#p4f837992ad)" style="fill: none; stroke: #000000; stroke-linecap: round"/>
    <path d="M 111.933331 231.009278 
L 114.532722 227.370162 
L 115.884381 231.633144 
z
" clip-path="url(#p4f837992ad)" style="stroke: #000000; stroke-linecap: round"/>
   </g>
   <g id="patch_17">
    <path d="M 109.205904 260.52442 
Q 106.240167 274.896205 103.500385 288.173027 
" clip-path="url(#p4f837992ad)" style="fill: none; stroke: #000000; stroke-linecap: round"/>
    <path d="M 106.267515 284.659768 
L 103.500385 288.173027 
L 102.350056 283.851367 
z
" clip-path="url(#p4f837992ad)" style="stroke: #000000; stroke-linecap: round"/>
   </g>
   <g id="patch_18">
    <path d="M 48.130429 202.637735 
Q 58.698985 209.134429 68.315076 215.045625 
" clip-path="url(#p4f837992ad)" style="fill: none; stroke: #000000; stroke-linecap: round"/>
    <path d="M 65.954803 211.247057 
L 68.315076 215.045625 
L 63.860059 214.654702 
z
" clip-path="url(#p4f837992ad)" style="stroke: #000000; stroke-linecap: round"/>
   </g>
   <g id="patch_19">
    <path d="M 418.878041 250.662601 
Q 404.990702 250.03963 392.220274 249.466762 
" clip-path="url(#p4f837992ad)" style="fill: none; stroke: #000000; stroke-linecap: round"/>
    <path d="M 396.126628 251.644008 
L 392.220274 249.466762 
L 396.305883 247.648027 
z
" clip-path="url(#p4f837992ad)" style="stroke: #000000; stroke-linecap: round"/>
   </g>
   <g id="patch_20">
    <path d="M 133.484806 31.119064 
Q 142.792347 37.788485 151.191085 43.806693 
" clip-path="url(#p4f837992ad)" style="fill: none; stroke: #000000; stroke-linecap: round"/>
    <path d="M 149.104578 39.851128 
L 151.191085 43.806693 
L 146.774729 43.10256 
z
" clip-path="url(#p4f837992ad)" style="stroke: #000000; stroke-linecap: round"/>
   </g>
   <g id="patch_21">
    <path d="M 240.598036 157.867154 
Q 221.12586 168.193295 202.641426 177.995635 
" clip-path="url(#p4f837992ad)" style="fill: none; stroke: #000000; stroke-linecap: round"/>
    <path d="M 207.112279 177.888551 
L 202.641426 177.995635 
L 205.238271 174.354701 
z
" clip-path="url(#p4f837992ad)" style="stroke: #000000; stroke-linecap: round"/>
   </g>
   <g id="patch_22">
    <path d="M 241.890463 155.068134 
Q 237.964436 137.235042 234.278794 120.493835 
" clip-path="url(#p4f837992ad)" style="fill: none; stroke: #000000; stroke-linecap: round"/>
    <path d="M 233.185589 124.830297 
L 234.278794 120.493835 
L 237.09204 123.970277 
z
" clip-path="url(#p4f837992ad)" style="stroke: #000000; stroke-linecap: round"/>
   </g>
   <g id="patch_23">
    <path d="M 244.080321 157.7353 
Q 264.756427 166.766214 284.407968 175.349617 
" clip-path="url(#p4f837992ad)" style="fill: none; stroke: #000000; stroke-linecap: round"/>
    <path d="M 281.5429 171.915758 
L 284.407968 175.349617 
L 279.94184 175.581355 
z
" clip-path="url(#p4f837992ad)" style="stroke: #000000; stroke-linecap: round"/>
   </g>
   <g id="patch_24">
    <path d="M 93.878982 313.810513 
Q 98.02328 303.38722 101.7545 294.002852 
" clip-path="url(#p4f837992ad)" style="fill: none; stroke: #000000; stroke-linecap: round"/>
    <path d="M 98.418145 296.980894 
L 101.7545 294.002852 
L 102.13512 298.458762 
z
" clip-path="url(#p4f837992ad)" style="stroke: #000000; stroke-linecap: round"/>
   </g>
   <g id="patch_25">
    <path d="M 232.395697 116.014302 
Q 221.345924 102.546636 211.005315 89.943311 
" clip-path="url(#p4f837992ad)" style="fill: none; stroke: #000000; stroke-linecap: round"/>
    <path d="M 211.996315 94.304265 
L 211.005315 89.943311 
L 215.088678 91.767084 
z
" clip-path="url(#p4f837992ad)" style="stroke: #000000; stroke-linecap: round"/>
   </g>
   <g id="patch_26">
    <path d="M 234.038212 119.401049 
Q 237.964238 137.234142 241.649881 153.975348 
" clip-path="url(#p4f837992ad)" style="fill: none; stroke: #000000; stroke-linecap: round"/>
    <path d="M 242.743086 149.638886 
L 241.649881 153.975348 
L 238.836635 150.498907 
z
" clip-path="url(#p4f837992ad)" style="stroke: #000000; stroke-linecap: round"/>
   </g>
   <g id="patch_27">
    <path d="M 235.137258 116.299828 
Q 244.126402 109.132452 252.241374 102.662086 
" clip-path="url(#p4f837992ad)" style="fill: none; stroke: #000000; stroke-linecap: round"/>
    <path d="M 247.866991 103.592017 
L 252.241374 102.662086 
L 250.360689 106.719551 
z
" clip-path="url(#p4f837992ad)" style="stroke: #000000; stroke-linecap: round"/>
   </g>
   <g id="patch_28">
    <path d="M 391.105669 249.416762 
Q 404.993008 250.039733 417.763436 250.612601 
" clip-path="url(#p4f837992ad)" style="fill: none; stroke: #000000; stroke-linecap: round"/>
    <path d="M 413.857082 248.435355 
L 417.763436 250.612601 
L 413.677827 252.431336 
z
" clip-path="url(#p4f837992ad)" style="stroke: #000000; stroke-linecap: round"/>
   </g>
   <g id="patch_29">
    <path d="M 389.363333 251.256435 
Q 390.604017 263.65052 391.73334 274.932131 
" clip-path="url(#p4f837992ad)" style="fill: none; stroke: #000000; stroke-linecap: round"/>
    <path d="M 393.324973 270.752812 
L 391.73334 274.932131 
L 389.344865 271.151233 
z
" clip-path="url(#p4f837992ad)" style="stroke: #000000; stroke-linecap: round"/>
   </g>
   <g id="patch_30">
    <path d="M 387.757455 248.011925 
Q 375.088777 236.195021 363.237676 225.140723 
" clip-path="url(#p4f837992ad)" style="fill: none; stroke: #000000; stroke-linecap: round"/>
    <path d="M 364.798533 229.331633 
L 363.237676 225.140723 
L 367.526918 226.406584 
z
" clip-path="url(#p4f837992ad)" style="stroke: #000000; stroke-linecap: round"/>
   </g>
   <g id="patch_31">
    <path d="M 391.775815 279.888251 
Q 390.458346 289.530986 389.292225 298.065979 
" clip-path="url(#p4f837992ad)" style="fill: none; stroke: #000000; stroke-linecap: round"/>
    <path d="M 391.815297 294.37354 
L 389.292225 298.065979 
L 387.852117 293.832058 
z
" clip-path="url(#p4f837992ad)" style="stroke: #000000; stroke-linecap: round"/>
   </g>
   <g id="patch_32">
    <path d="M 391.844789 276.045475 
Q 390.604105 263.65139 389.474782 252.369779 
" clip-path="url(#p4f837992ad)" style="fill: none; stroke: #000000; stroke-linecap: round"/>
    <path d="M 387.883149 256.549098 
L 389.474782 252.369779 
L 391.863257 256.150677 
z
" clip-path="url(#p4f837992ad)" style="stroke: #000000; stroke-linecap: round"/>
   </g>
   <g id="patch_33">
    <path d="M 103.274038 289.269891 
Q 106.239775 274.898106 108.979557 261.621284 
" clip-path="url(#p4f837992ad)" style="fill: none; stroke: #000000; stroke-linecap: round"/>
    <path d="M 106.212427 265.134543 
L 108.979557 261.621284 
L 110.129886 265.942943 
z
" clip-path="url(#p4f837992ad)" style="stroke: #000000; stroke-linecap: round"/>
   </g>
   <g id="patch_34">
    <path d="M 102.167673 292.963685 
Q 98.023376 303.386978 94.292155 312.771345 
" clip-path="url(#p4f837992ad)" style="fill: none; stroke: #000000; stroke-linecap: round"/>
    <path d="M 97.628511 309.793304 
L 94.292155 312.771345 
L 93.911535 308.315436 
z
" clip-path="url(#p4f837992ad)" style="stroke: #000000; stroke-linecap: round"/>
   </g>
   <g id="patch_35">
    <path d="M 101.582392 289.731877 
Q 98.421133 286.250585 96.011483 283.596991 
" clip-path="url(#p4f837992ad)" style="fill: none; stroke: #000000; stroke-linecap: round"/>
    <path d="M 97.219887 287.902773 
L 96.011483 283.596991 
L 100.181151 285.213736 
z
" clip-path="url(#p4f837992ad)" style="stroke: #000000; stroke-linecap: round"/>
   </g>
   <g id="patch_36">
    <path d="M 95.259614 282.769006 
Q 98.420873 286.250298 100.830524 288.903892 
" clip-path="url(#p4f837992ad)" style="fill: none; stroke: #000000; stroke-linecap: round"/>
    <path d="M 99.622119 284.59811 
L 100.830524 288.903892 
L 96.660855 287.287147 
z
" clip-path="url(#p4f837992ad)" style="stroke: #000000; stroke-linecap: round"/>
   </g>
   <g id="patch_37">
    <path d="M 253.115661 101.964985 
Q 244.126516 109.132361 236.011544 115.602727 
" clip-path="url(#p4f837992ad)" style="fill: none; stroke: #000000; stroke-linecap: round"/>
    <path d="M 240.385927 114.672796 
L 236.011544 115.602727 
L 237.892229 111.545262 
z
" clip-path="url(#p4f837992ad)" style="stroke: #000000; stroke-linecap: round"/>
   </g>
   <g id="patch_38">
    <path d="M 155.874251 202.452485 
Q 136.296222 212.943237 117.703666 222.90593 
" clip-path="url(#p4f837992ad)" style="fill: none; stroke: #000000; stroke-linecap: round"/>
    <path d="M 122.174016 222.779557 
L 117.703666 222.90593 
L 120.284777 219.253826 
z
" clip-path="url(#p4f837992ad)" style="stroke: #000000; stroke-linecap: round"/>
   </g>
   <g id="patch_39">
    <path d="M 159.295641 200.642954 
Q 178.762668 190.48192 197.238553 180.838224 
" clip-path="url(#p4f837992ad)" style="fill: none; stroke: #000000; stroke-linecap: round"/>
    <path d="M 192.767095 180.916099 
L 197.238553 180.838224 
L 194.617979 184.462115 
z
" clip-path="url(#p4f837992ad)" style="stroke: #000000; stroke-linecap: round"/>
   </g>
   <g id="patch_40">
    <path d="M 201.65316 178.519714 
Q 221.125336 168.193573 239.609771 158.391234 
" clip-path="url(#p4f837992ad)" style="fill: none; stroke: #000000; stroke-linecap: round"/>
    <path d="M 235.138917 158.498318 
L 239.609771 158.391234 
L 237.012926 162.032167 
z
" clip-path="url(#p4f837992ad)" style="stroke: #000000; stroke-linecap: round"/>
   </g>
   <g id="patch_41">
    <path d="M 198.229793 180.320835 
Q 178.762766 190.481869 160.286881 200.125565 
" clip-path="url(#p4f837992ad)" style="fill: none; stroke: #000000; stroke-linecap: round"/>
    <path d="M 164.758338 200.04769 
L 160.286881 200.125565 
L 162.907455 196.501674 
z
" clip-path="url(#p4f837992ad)" style="stroke: #000000; stroke-linecap: round"/>
   </g>
   <g id="patch_42">
    <path d="M 285.436218 175.798736 
Q 264.760112 166.767823 245.108572 158.18442 
" clip-path="url(#p4f837992ad)" style="fill: none; stroke: #000000; stroke-linecap: round"/>
    <path d="M 247.973639 161.618279 
L 245.108572 158.18442 
L 249.574699 157.952681 
z
" clip-path="url(#p4f837992ad)" style="stroke: #000000; stroke-linecap: round"/>
   </g>
   <g id="patch_43">
    <path d="M 288.905413 177.506066 
Q 307.199009 187.567888 324.512974 197.090894 
" clip-path="url(#p4f837992ad)" style="fill: none; stroke: #000000; stroke-linecap: round"/>
    <path d="M 321.972001 193.41075 
L 324.512974 197.090894 
L 320.044275 196.915586 
z
" clip-path="url(#p4f837992ad)" style="stroke: #000000; stroke-linecap: round"/>
   </g>
   <g id="patch_44">
    <path d="M 325.495438 197.631268 
Q 307.201842 187.569446 289.887877 178.04644 
" clip-path="url(#p4f837992ad)" style="fill: none; stroke: #000000; stroke-linecap: round"/>
    <path d="M 292.428851 181.726584 
L 289.887877 178.04644 
L 294.356576 178.221748 
z
" clip-path="url(#p4f837992ad)" style="stroke: #000000; stroke-linecap: round"/>
   </g>
   <g id="patch_45">
    <path d="M 328.757942 199.698861 
Q 344.09669 210.810138 358.530004 221.265525 
" clip-path="url(#p4f837992ad)" style="fill: none; stroke: #000000; stroke-linecap: round"/>
    <path d="M 356.463918 217.299256 
L 358.530004 221.265525 
L 354.117337 220.538633 
z
" clip-path="url(#p4f837992ad)" style="stroke: #000000; stroke-linecap: round"/>
   </g>
   <g id="patch_46">
    <path d="M 362.419151 224.377232 
Q 375.087828 236.194136 386.93893 247.248433 
" clip-path="url(#p4f837992ad)" style="fill: none; stroke: #000000; stroke-linecap: round"/>
    <path d="M 385.378073 243.057524 
L 386.93893 247.248433 
L 382.649688 245.982573 
z
" clip-path="url(#p4f837992ad)" style="stroke: #000000; stroke-linecap: round"/>
   </g>
   <g id="patch_47">
    <path d="M 359.439631 221.924452 
Q 344.100884 210.813176 329.667569 200.357788 
" clip-path="url(#p4f837992ad)" style="fill: none; stroke: #000000; stroke-linecap: round"/>
    <path d="M 331.733655 204.324057 
L 329.667569 200.357788 
L 334.080236 201.08468 
z
" clip-path="url(#p4f837992ad)" style="stroke: #000000; stroke-linecap: round"/>
   </g>
   <g id="PathCollection_1">
    <defs>
     <path id="m1a5684d650" d="M 0 1.936492 
C 0.513564 1.936492 1.006162 1.732451 1.369306 1.369306 
C 1.732451 1.006162 1.936492 0.513564 1.936492 0 
C 1.936492 -0.513564 1.732451 -1.006162 1.369306 -1.369306 
C 1.006162 -1.732451 0.513564 -1.936492 0 -1.936492 
C -0.513564 -1.936492 -1.006162 -1.732451 -1.369306 -1.369306 
C -1.732451 -1.006162 -1.936492 -0.513564 -1.936492 0 
C -1.936492 0.513564 -1.732451 1.006162 -1.369306 1.369306 
C -1.006162 1.732451 -0.513564 1.936492 0 1.936492 
z
" style="stroke: #1f78b4"/>
    </defs>
    <g clip-path="url(#p4f837992ad)">
     <use xlink:href="#m1a5684d650" x="209.068874" y="87.58314" style="fill: #1f78b4; stroke: #1f78b4"/>
     <use xlink:href="#m1a5684d650" x="153.674763" y="45.5864" style="fill: #1f78b4; stroke: #1f78b4"/>
     <use xlink:href="#m1a5684d650" x="388.878832" y="301.091657" style="fill: #1f78b4; stroke: #1f78b4"/>
     <use xlink:href="#m1a5684d650" x="181.672449" y="63.554243" style="fill: #1f78b4; stroke: #1f78b4"/>
     <use xlink:href="#m1a5684d650" x="115.009684" y="224.349481" style="fill: #1f78b4; stroke: #1f78b4"/>
     <use xlink:href="#m1a5684d650" x="70.91701" y="216.645083" style="fill: #1f78b4; stroke: #1f78b4"/>
     <use xlink:href="#m1a5684d650" x="39.986777" y="222.774654" style="fill: #1f78b4; stroke: #1f78b4"/>
     <use xlink:href="#m1a5684d650" x="109.596827" y="258.63003" style="fill: #1f78b4; stroke: #1f78b4"/>
     <use xlink:href="#m1a5684d650" x="46.48087" y="201.623719" style="fill: #1f78b4; stroke: #1f78b4"/>
     <use xlink:href="#m1a5684d650" x="420.813223" y="250.749411" style="fill: #1f78b4; stroke: #1f78b4"/>
     <use xlink:href="#m1a5684d650" x="131.909251" y="29.990083" style="fill: #1f78b4; stroke: #1f78b4"/>
     <use xlink:href="#m1a5684d650" x="242.307143" y="156.960811" style="fill: #1f78b4; stroke: #1f78b4"/>
     <use xlink:href="#m1a5684d650" x="93.16354" y="315.609917" style="fill: #1f78b4; stroke: #1f78b4"/>
     <use xlink:href="#m1a5684d650" x="233.621532" y="117.508372" style="fill: #1f78b4; stroke: #1f78b4"/>
     <use xlink:href="#m1a5684d650" x="389.170487" y="249.329952" style="fill: #1f78b4; stroke: #1f78b4"/>
     <use xlink:href="#m1a5684d650" x="392.037635" y="277.971958" style="fill: #1f78b4; stroke: #1f78b4"/>
     <use xlink:href="#m1a5684d650" x="102.883115" y="291.16428" style="fill: #1f78b4; stroke: #1f78b4"/>
     <use xlink:href="#m1a5684d650" x="93.958891" y="281.336603" style="fill: #1f78b4; stroke: #1f78b4"/>
     <use xlink:href="#m1a5684d650" x="254.631386" y="100.756441" style="fill: #1f78b4; stroke: #1f78b4"/>
     <use xlink:href="#m1a5684d650" x="157.58138" y="201.537732" style="fill: #1f78b4; stroke: #1f78b4"/>
     <use xlink:href="#m1a5684d650" x="199.944054" y="179.426057" style="fill: #1f78b4; stroke: #1f78b4"/>
     <use xlink:href="#m1a5684d650" x="287.209396" y="176.573226" style="fill: #1f78b4; stroke: #1f78b4"/>
     <use xlink:href="#m1a5684d650" x="327.191455" y="198.564109" style="fill: #1f78b4; stroke: #1f78b4"/>
     <use xlink:href="#m1a5684d650" x="361.006119" y="223.059205" style="fill: #1f78b4; stroke: #1f78b4"/>
    </g>
   </g>
   <g id="text_1">
    <g clip-path="url(#p4f837992ad)">
     <!-- 0 -->
     <g transform="translate(205.887624 90.342515) scale(0.1 -0.1)">
      <defs>
       <path id="DejaVuSans-30" d="M 2034 4250 
Q 1547 4250 1301 3770 
Q 1056 3291 1056 2328 
Q 1056 1369 1301 889 
Q 1547 409 2034 409 
Q 2525 409 2770 889 
Q 3016 1369 3016 2328 
Q 3016 3291 2770 3770 
Q 2525 4250 2034 4250 
z
M 2034 4750 
Q 2819 4750 3233 4129 
Q 3647 3509 3647 2328 
Q 3647 1150 3233 529 
Q 2819 -91 2034 -91 
Q 1250 -91 836 529 
Q 422 1150 422 2328 
Q 422 3509 836 4129 
Q 1250 4750 2034 4750 
z
" transform="scale(0.015625)"/>
      </defs>
      <use xlink:href="#DejaVuSans-30"/>
     </g>
    </g>
   </g>
   <g id="text_2">
    <g clip-path="url(#p4f837992ad)">
     <!-- 1 -->
     <g transform="translate(150.493513 48.345775) scale(0.1 -0.1)">
      <defs>
       <path id="DejaVuSans-31" d="M 794 531 
L 1825 531 
L 1825 4091 
L 703 3866 
L 703 4441 
L 1819 4666 
L 2450 4666 
L 2450 531 
L 3481 531 
L 3481 0 
L 794 0 
L 794 531 
z
" transform="scale(0.015625)"/>
      </defs>
      <use xlink:href="#DejaVuSans-31"/>
     </g>
    </g>
   </g>
   <g id="text_3">
    <g clip-path="url(#p4f837992ad)">
     <!-- 2 -->
     <g transform="translate(385.697582 303.851032) scale(0.1 -0.1)">
      <defs>
       <path id="DejaVuSans-32" d="M 1228 531 
L 3431 531 
L 3431 0 
L 469 0 
L 469 531 
Q 828 903 1448 1529 
Q 2069 2156 2228 2338 
Q 2531 2678 2651 2914 
Q 2772 3150 2772 3378 
Q 2772 3750 2511 3984 
Q 2250 4219 1831 4219 
Q 1534 4219 1204 4116 
Q 875 4013 500 3803 
L 500 4441 
Q 881 4594 1212 4672 
Q 1544 4750 1819 4750 
Q 2544 4750 2975 4387 
Q 3406 4025 3406 3419 
Q 3406 3131 3298 2873 
Q 3191 2616 2906 2266 
Q 2828 2175 2409 1742 
Q 1991 1309 1228 531 
z
" transform="scale(0.015625)"/>
      </defs>
      <use xlink:href="#DejaVuSans-32"/>
     </g>
    </g>
   </g>
   <g id="text_4">
    <g clip-path="url(#p4f837992ad)">
     <!-- 3 -->
     <g transform="translate(178.491199 66.313618) scale(0.1 -0.1)">
      <defs>
       <path id="DejaVuSans-33" d="M 2597 2516 
Q 3050 2419 3304 2112 
Q 3559 1806 3559 1356 
Q 3559 666 3084 287 
Q 2609 -91 1734 -91 
Q 1441 -91 1130 -33 
Q 819 25 488 141 
L 488 750 
Q 750 597 1062 519 
Q 1375 441 1716 441 
Q 2309 441 2620 675 
Q 2931 909 2931 1356 
Q 2931 1769 2642 2001 
Q 2353 2234 1838 2234 
L 1294 2234 
L 1294 2753 
L 1863 2753 
Q 2328 2753 2575 2939 
Q 2822 3125 2822 3475 
Q 2822 3834 2567 4026 
Q 2313 4219 1838 4219 
Q 1578 4219 1281 4162 
Q 984 4106 628 3988 
L 628 4550 
Q 988 4650 1302 4700 
Q 1616 4750 1894 4750 
Q 2613 4750 3031 4423 
Q 3450 4097 3450 3541 
Q 3450 3153 3228 2886 
Q 3006 2619 2597 2516 
z
" transform="scale(0.015625)"/>
      </defs>
      <use xlink:href="#DejaVuSans-33"/>
     </g>
    </g>
   </g>
   <g id="text_5">
    <g clip-path="url(#p4f837992ad)">
     <!-- 4 -->
     <g transform="translate(111.828434 227.108856) scale(0.1 -0.1)">
      <defs>
       <path id="DejaVuSans-34" d="M 2419 4116 
L 825 1625 
L 2419 1625 
L 2419 4116 
z
M 2253 4666 
L 3047 4666 
L 3047 1625 
L 3713 1625 
L 3713 1100 
L 3047 1100 
L 3047 0 
L 2419 0 
L 2419 1100 
L 313 1100 
L 313 1709 
L 2253 4666 
z
" transform="scale(0.015625)"/>
      </defs>
      <use xlink:href="#DejaVuSans-34"/>
     </g>
    </g>
   </g>
   <g id="text_6">
    <g clip-path="url(#p4f837992ad)">
     <!-- 5 -->
     <g transform="translate(67.73576 219.404458) scale(0.1 -0.1)">
      <defs>
       <path id="DejaVuSans-35" d="M 691 4666 
L 3169 4666 
L 3169 4134 
L 1269 4134 
L 1269 2991 
Q 1406 3038 1543 3061 
Q 1681 3084 1819 3084 
Q 2600 3084 3056 2656 
Q 3513 2228 3513 1497 
Q 3513 744 3044 326 
Q 2575 -91 1722 -91 
Q 1428 -91 1123 -41 
Q 819 9 494 109 
L 494 744 
Q 775 591 1075 516 
Q 1375 441 1709 441 
Q 2250 441 2565 725 
Q 2881 1009 2881 1497 
Q 2881 1984 2565 2268 
Q 2250 2553 1709 2553 
Q 1456 2553 1204 2497 
Q 953 2441 691 2322 
L 691 4666 
z
" transform="scale(0.015625)"/>
      </defs>
      <use xlink:href="#DejaVuSans-35"/>
     </g>
    </g>
   </g>
   <g id="text_7">
    <g clip-path="url(#p4f837992ad)">
     <!-- 6 -->
     <g transform="translate(36.805527 225.534029) scale(0.1 -0.1)">
      <defs>
       <path id="DejaVuSans-36" d="M 2113 2584 
Q 1688 2584 1439 2293 
Q 1191 2003 1191 1497 
Q 1191 994 1439 701 
Q 1688 409 2113 409 
Q 2538 409 2786 701 
Q 3034 994 3034 1497 
Q 3034 2003 2786 2293 
Q 2538 2584 2113 2584 
z
M 3366 4563 
L 3366 3988 
Q 3128 4100 2886 4159 
Q 2644 4219 2406 4219 
Q 1781 4219 1451 3797 
Q 1122 3375 1075 2522 
Q 1259 2794 1537 2939 
Q 1816 3084 2150 3084 
Q 2853 3084 3261 2657 
Q 3669 2231 3669 1497 
Q 3669 778 3244 343 
Q 2819 -91 2113 -91 
Q 1303 -91 875 529 
Q 447 1150 447 2328 
Q 447 3434 972 4092 
Q 1497 4750 2381 4750 
Q 2619 4750 2861 4703 
Q 3103 4656 3366 4563 
z
" transform="scale(0.015625)"/>
      </defs>
      <use xlink:href="#DejaVuSans-36"/>
     </g>
    </g>
   </g>
   <g id="text_8">
    <g clip-path="url(#p4f837992ad)">
     <!-- 7 -->
     <g transform="translate(106.415577 261.389405) scale(0.1 -0.1)">
      <defs>
       <path id="DejaVuSans-37" d="M 525 4666 
L 3525 4666 
L 3525 4397 
L 1831 0 
L 1172 0 
L 2766 4134 
L 525 4134 
L 525 4666 
z
" transform="scale(0.015625)"/>
      </defs>
      <use xlink:href="#DejaVuSans-37"/>
     </g>
    </g>
   </g>
   <g id="text_9">
    <g clip-path="url(#p4f837992ad)">
     <!-- 8 -->
     <g transform="translate(43.29962 204.383094) scale(0.1 -0.1)">
      <defs>
       <path id="DejaVuSans-38" d="M 2034 2216 
Q 1584 2216 1326 1975 
Q 1069 1734 1069 1313 
Q 1069 891 1326 650 
Q 1584 409 2034 409 
Q 2484 409 2743 651 
Q 3003 894 3003 1313 
Q 3003 1734 2745 1975 
Q 2488 2216 2034 2216 
z
M 1403 2484 
Q 997 2584 770 2862 
Q 544 3141 544 3541 
Q 544 4100 942 4425 
Q 1341 4750 2034 4750 
Q 2731 4750 3128 4425 
Q 3525 4100 3525 3541 
Q 3525 3141 3298 2862 
Q 3072 2584 2669 2484 
Q 3125 2378 3379 2068 
Q 3634 1759 3634 1313 
Q 3634 634 3220 271 
Q 2806 -91 2034 -91 
Q 1263 -91 848 271 
Q 434 634 434 1313 
Q 434 1759 690 2068 
Q 947 2378 1403 2484 
z
M 1172 3481 
Q 1172 3119 1398 2916 
Q 1625 2713 2034 2713 
Q 2441 2713 2670 2916 
Q 2900 3119 2900 3481 
Q 2900 3844 2670 4047 
Q 2441 4250 2034 4250 
Q 1625 4250 1398 4047 
Q 1172 3844 1172 3481 
z
" transform="scale(0.015625)"/>
      </defs>
      <use xlink:href="#DejaVuSans-38"/>
     </g>
    </g>
   </g>
   <g id="text_10">
    <g clip-path="url(#p4f837992ad)">
     <!-- 9 -->
     <g transform="translate(417.631973 253.508786) scale(0.1 -0.1)">
      <defs>
       <path id="DejaVuSans-39" d="M 703 97 
L 703 672 
Q 941 559 1184 500 
Q 1428 441 1663 441 
Q 2288 441 2617 861 
Q 2947 1281 2994 2138 
Q 2813 1869 2534 1725 
Q 2256 1581 1919 1581 
Q 1219 1581 811 2004 
Q 403 2428 403 3163 
Q 403 3881 828 4315 
Q 1253 4750 1959 4750 
Q 2769 4750 3195 4129 
Q 3622 3509 3622 2328 
Q 3622 1225 3098 567 
Q 2575 -91 1691 -91 
Q 1453 -91 1209 -44 
Q 966 3 703 97 
z
M 1959 2075 
Q 2384 2075 2632 2365 
Q 2881 2656 2881 3163 
Q 2881 3666 2632 3958 
Q 2384 4250 1959 4250 
Q 1534 4250 1286 3958 
Q 1038 3666 1038 3163 
Q 1038 2656 1286 2365 
Q 1534 2075 1959 2075 
z
" transform="scale(0.015625)"/>
      </defs>
      <use xlink:href="#DejaVuSans-39"/>
     </g>
    </g>
   </g>
   <g id="text_11">
    <g clip-path="url(#p4f837992ad)">
     <!-- 10 -->
     <g transform="translate(125.546751 32.749458) scale(0.1 -0.1)">
      <use xlink:href="#DejaVuSans-31"/>
      <use xlink:href="#DejaVuSans-30" x="63.623047"/>
     </g>
    </g>
   </g>
   <g id="text_12">
    <g clip-path="url(#p4f837992ad)">
     <!-- 11 -->
     <g transform="translate(235.944643 159.720186) scale(0.1 -0.1)">
      <use xlink:href="#DejaVuSans-31"/>
      <use xlink:href="#DejaVuSans-31" x="63.623047"/>
     </g>
    </g>
   </g>
   <g id="text_13">
    <g clip-path="url(#p4f837992ad)">
     <!-- 12 -->
     <g transform="translate(86.80104 318.369292) scale(0.1 -0.1)">
      <use xlink:href="#DejaVuSans-31"/>
      <use xlink:href="#DejaVuSans-32" x="63.623047"/>
     </g>
    </g>
   </g>
   <g id="text_14">
    <g clip-path="url(#p4f837992ad)">
     <!-- 13 -->
     <g transform="translate(227.259032 120.267747) scale(0.1 -0.1)">
      <use xlink:href="#DejaVuSans-31"/>
      <use xlink:href="#DejaVuSans-33" x="63.623047"/>
     </g>
    </g>
   </g>
   <g id="text_15">
    <g clip-path="url(#p4f837992ad)">
     <!-- 14 -->
     <g transform="translate(382.807987 252.089327) scale(0.1 -0.1)">
      <use xlink:href="#DejaVuSans-31"/>
      <use xlink:href="#DejaVuSans-34" x="63.623047"/>
     </g>
    </g>
   </g>
   <g id="text_16">
    <g clip-path="url(#p4f837992ad)">
     <!-- 15 -->
     <g transform="translate(385.675135 280.731333) scale(0.1 -0.1)">
      <use xlink:href="#DejaVuSans-31"/>
      <use xlink:href="#DejaVuSans-35" x="63.623047"/>
     </g>
    </g>
   </g>
   <g id="text_17">
    <g clip-path="url(#p4f837992ad)">
     <!-- 16 -->
     <g transform="translate(96.520615 293.923655) scale(0.1 -0.1)">
      <use xlink:href="#DejaVuSans-31"/>
      <use xlink:href="#DejaVuSans-36" x="63.623047"/>
     </g>
    </g>
   </g>
   <g id="text_18">
    <g clip-path="url(#p4f837992ad)">
     <!-- 17 -->
     <g transform="translate(87.596391 284.095978) scale(0.1 -0.1)">
      <use xlink:href="#DejaVuSans-31"/>
      <use xlink:href="#DejaVuSans-37" x="63.623047"/>
     </g>
    </g>
   </g>
   <g id="text_19">
    <g clip-path="url(#p4f837992ad)">
     <!-- 18 -->
     <g transform="translate(248.268886 103.515816) scale(0.1 -0.1)">
      <use xlink:href="#DejaVuSans-31"/>
      <use xlink:href="#DejaVuSans-38" x="63.623047"/>
     </g>
    </g>
   </g>
   <g id="text_20">
    <g clip-path="url(#p4f837992ad)">
     <!-- 19 -->
     <g transform="translate(151.21888 204.297107) scale(0.1 -0.1)">
      <use xlink:href="#DejaVuSans-31"/>
      <use xlink:href="#DejaVuSans-39" x="63.623047"/>
     </g>
    </g>
   </g>
   <g id="text_21">
    <g clip-path="url(#p4f837992ad)">
     <!-- 20 -->
     <g transform="translate(193.581554 182.185432) scale(0.1 -0.1)">
      <use xlink:href="#DejaVuSans-32"/>
      <use xlink:href="#DejaVuSans-30" x="63.623047"/>
     </g>
    </g>
   </g>
   <g id="text_22">
    <g clip-path="url(#p4f837992ad)">
     <!-- 21 -->
     <g transform="translate(280.846896 179.332601) scale(0.1 -0.1)">
      <use xlink:href="#DejaVuSans-32"/>
      <use xlink:href="#DejaVuSans-31" x="63.623047"/>
     </g>
    </g>
   </g>
   <g id="text_23">
    <g clip-path="url(#p4f837992ad)">
     <!-- 22 -->
     <g transform="translate(320.828955 201.323484) scale(0.1 -0.1)">
      <use xlink:href="#DejaVuSans-32"/>
      <use xlink:href="#DejaVuSans-32" x="63.623047"/>
     </g>
    </g>
   </g>
   <g id="text_24">
    <g clip-path="url(#p4f837992ad)">
     <!-- 23 -->
     <g transform="translate(354.643619 225.81858) scale(0.1 -0.1)">
      <use xlink:href="#DejaVuSans-32"/>
      <use xlink:href="#DejaVuSans-33" x="63.623047"/>
     </g>
    </g>
   </g>
  </g>
 </g>
 <defs>
  <clipPath id="p4f837992ad">
   <rect x="0" y="0" width="460.8" height="345.6"/>
  </clipPath>
 </defs>
</svg>
